<?xml version="1.0" encoding="UTF-8" standalone="no"?>
<!DOCTYPE svg PUBLIC "-//W3C//DTD SVG 1.1//EN"
 "http://www.w3.org/Graphics/SVG/1.1/DTD/svg11.dtd">
<!-- Generated by graphviz version 2.43.0 (0)
 -->
<!-- Title: include/Hermes/Socket/_base.hpp Pages: 1 -->
<svg width="2812pt" height="302pt"
 viewBox="0.00 0.00 2812.00 302.00" xmlns="http://www.w3.org/2000/svg" xmlns:xlink="http://www.w3.org/1999/xlink">
<g id="graph0" class="graph" transform="scale(1 1) rotate(0) translate(4 298)">
<title>include/Hermes/Socket/_base.hpp</title>
<!-- Node1 -->
<g id="Node000001" class="node">
<title>Node1</title>
<g id="a_Node000001"><a xlink:title=" ">
<polygon fill="#999999" stroke="#666666" points="581,-294 453,-294 453,-264 581,-264 581,-294"/>
<text text-anchor="start" x="461" y="-282" font-family="Helvetica,sans-Serif" font-size="10.00">include/Hermes/Socket</text>
<text text-anchor="middle" x="517" y="-271" font-family="Helvetica,sans-Serif" font-size="10.00">/_base.hpp</text>
</a>
</g>
</g>
<!-- Node2 -->
<g id="Node000002" class="node">
<title>Node2</title>
<g id="a_Node000002"><a xlink:href="_endpoint_concept_8hpp.html" target="_top" xlink:title=" ">
<polygon fill="white" stroke="#666666" points="470,-228 338,-228 338,-198 470,-198 470,-228"/>
<text text-anchor="start" x="346" y="-216" font-family="Helvetica,sans-Serif" font-size="10.00">Hermes/Endpoint/_base</text>
<text text-anchor="middle" x="404" y="-205" font-family="Helvetica,sans-Serif" font-size="10.00">/EndpointConcept.hpp</text>
</a>
</g>
</g>
<!-- Node1&#45;&gt;Node2 -->
<g id="edge1_Node000001_Node000002" class="edge">
<title>Node1&#45;&gt;Node2</title>
<g id="a_edge1_Node000001_Node000002"><a xlink:title=" ">
<path fill="none" stroke="#63b8ff" d="M492.2,-263.95C476.16,-254.87 455.07,-242.93 437.54,-233"/>
<polygon fill="#63b8ff" stroke="#63b8ff" points="439.17,-229.9 428.74,-228.01 435.72,-235.99 439.17,-229.9"/>
</a>
</g>
</g>
<!-- Node3 -->
<g id="Node000003" class="node">
<title>Node3</title>
<g id="a_Node000003"><a xlink:href="_connection_error_enum_8hpp.html" target="_top" xlink:title=" ">
<polygon fill="white" stroke="#666666" points="393.5,-162 226.5,-162 226.5,-132 393.5,-132 393.5,-162"/>
<text text-anchor="start" x="234.5" y="-150" font-family="Helvetica,sans-Serif" font-size="10.00">Hermes/_base/ConnectionError</text>
<text text-anchor="middle" x="310" y="-139" font-family="Helvetica,sans-Serif" font-size="10.00">Enum.hpp</text>
</a>
</g>
</g>
<!-- Node1&#45;&gt;Node3 -->
<g id="edge33_Node000001_Node000003" class="edge">
<title>Node1&#45;&gt;Node3</title>
<g id="a_edge33_Node000001_Node000003"><a xlink:title=" ">
<path fill="none" stroke="#63b8ff" d="M452.92,-277.03C412.1,-272.96 361.04,-260.91 329,-228 314.73,-213.35 310.48,-190.04 309.51,-172.35"/>
<polygon fill="#63b8ff" stroke="#63b8ff" points="313,-172.11 309.26,-162.2 306.01,-172.28 313,-172.11"/>
</a>
</g>
</g>
<!-- Node7 -->
<g id="Node000007" class="node">
<title>Node7</title>
<g id="a_Node000007"><a xlink:title=" ">
<polygon fill="#e0e0e0" stroke="#999999" points="512.5,-85 387.5,-85 387.5,-66 512.5,-66 512.5,-85"/>
<text text-anchor="middle" x="450" y="-73" font-family="Helvetica,sans-Serif" font-size="10.00">stdexec/execution.hpp</text>
</a>
</g>
</g>
<!-- Node1&#45;&gt;Node7 -->
<g id="edge35_Node000001_Node000007" class="edge">
<title>Node1&#45;&gt;Node7</title>
<g id="a_edge35_Node000001_Node000007"><a xlink:title=" ">
<path fill="none" stroke="#63b8ff" d="M512.29,-263.83C500.42,-228.13 469.29,-134.51 456.07,-94.76"/>
<polygon fill="#63b8ff" stroke="#63b8ff" points="459.33,-93.46 452.85,-85.08 452.69,-95.67 459.33,-93.46"/>
</a>
</g>
</g>
<!-- Node9 -->
<g id="Node000009" class="node">
<title>Node9</title>
<g id="a_Node000009"><a xlink:href="_os_api_8hpp.html" target="_top" xlink:title=" ">
<polygon fill="white" stroke="#666666" points="1602,-162 1484,-162 1484,-132 1602,-132 1602,-162"/>
<text text-anchor="start" x="1492" y="-150" font-family="Helvetica,sans-Serif" font-size="10.00">Hermes/_base/OsApi</text>
<text text-anchor="middle" x="1543" y="-139" font-family="Helvetica,sans-Serif" font-size="10.00">/OsApi.hpp</text>
</a>
</g>
</g>
<!-- Node1&#45;&gt;Node9 -->
<g id="edge34_Node000001_Node000009" class="edge">
<title>Node1&#45;&gt;Node9</title>
<g id="a_edge34_Node000001_Node000009"><a xlink:title=" ">
<path fill="none" stroke="#63b8ff" d="M519.22,-263.85C522.97,-245.21 532.5,-213.03 555,-198 630.88,-147.31 1261.66,-146.32 1473.74,-147.45"/>
<polygon fill="#63b8ff" stroke="#63b8ff" points="1473.8,-150.95 1483.82,-147.51 1473.84,-143.95 1473.8,-150.95"/>
</a>
</g>
</g>
<!-- Node28 -->
<g id="Node000028" class="node">
<title>Node28</title>
<g id="a_Node000028"><a xlink:title=" ">
<polygon fill="#e0e0e0" stroke="#999999" points="624,-222.5 564,-222.5 564,-203.5 624,-203.5 624,-222.5"/>
<text text-anchor="middle" x="594" y="-210.5" font-family="Helvetica,sans-Serif" font-size="10.00">concepts</text>
</a>
</g>
</g>
<!-- Node1&#45;&gt;Node28 -->
<g id="edge36_Node000001_Node000028" class="edge">
<title>Node1&#45;&gt;Node28</title>
<g id="a_edge36_Node000001_Node000028"><a xlink:title=" ">
<path fill="none" stroke="#63b8ff" d="M534.09,-263.8C546.33,-253.62 562.8,-239.93 575.38,-229.48"/>
<polygon fill="#63b8ff" stroke="#63b8ff" points="577.91,-231.93 583.36,-222.84 573.43,-226.54 577.91,-231.93"/>
</a>
</g>
</g>
<!-- Node29 -->
<g id="Node000029" class="node">
<title>Node29</title>
<g id="a_Node000029"><a xlink:title=" ">
<polygon fill="#e0e0e0" stroke="#999999" points="692,-222.5 642,-222.5 642,-203.5 692,-203.5 692,-222.5"/>
<text text-anchor="middle" x="667" y="-210.5" font-family="Helvetica,sans-Serif" font-size="10.00">ranges</text>
</a>
</g>
</g>
<!-- Node1&#45;&gt;Node29 -->
<g id="edge37_Node000001_Node000029" class="edge">
<title>Node1&#45;&gt;Node29</title>
<g id="a_edge37_Node000001_Node000029"><a xlink:title=" ">
<path fill="none" stroke="#63b8ff" d="M549.92,-263.95C576.11,-252.78 612.42,-237.29 637.63,-226.53"/>
<polygon fill="#63b8ff" stroke="#63b8ff" points="639.21,-229.66 647.04,-222.52 636.47,-223.22 639.21,-229.66"/>
</a>
</g>
</g>
<!-- Node2&#45;&gt;Node3 -->
<g id="edge2_Node000002_Node000003" class="edge">
<title>Node2&#45;&gt;Node3</title>
<g id="a_edge2_Node000002_Node000003"><a xlink:title=" ">
<path fill="none" stroke="#63b8ff" d="M383.14,-197.8C370.24,-189.01 353.49,-177.61 339.27,-167.93"/>
<polygon fill="#63b8ff" stroke="#63b8ff" points="341.04,-164.9 330.8,-162.16 337.1,-170.69 341.04,-164.9"/>
</a>
</g>
</g>
<!-- Node2&#45;&gt;Node9 -->
<g id="edge8_Node000002_Node000009" class="edge">
<title>Node2&#45;&gt;Node9</title>
<g id="a_edge8_Node000002_Node000009"><a xlink:title=" ">
<path fill="none" stroke="#63b8ff" d="M470.07,-203.34C486.98,-201.35 505.14,-199.41 522,-198 879.49,-168.08 1309.01,-154.23 1473.91,-149.73"/>
<polygon fill="#63b8ff" stroke="#63b8ff" points="1474.02,-153.23 1483.92,-149.46 1473.83,-146.24 1474.02,-153.23"/>
</a>
</g>
</g>
<!-- Node4 -->
<g id="Node000004" class="node">
<title>Node4</title>
<g id="a_Node000004"><a xlink:title=" ">
<polygon fill="#e0e0e0" stroke="#999999" points="304,-85 242,-85 242,-66 304,-66 304,-85"/>
<text text-anchor="middle" x="273" y="-73" font-family="Helvetica,sans-Serif" font-size="10.00">expected</text>
</a>
</g>
</g>
<!-- Node3&#45;&gt;Node4 -->
<g id="edge3_Node000003_Node000004" class="edge">
<title>Node3&#45;&gt;Node4</title>
<g id="a_edge3_Node000003_Node000004"><a xlink:title=" ">
<path fill="none" stroke="#63b8ff" d="M302.51,-131.94C296.71,-121.03 288.62,-105.85 282.38,-94.13"/>
<polygon fill="#63b8ff" stroke="#63b8ff" points="285.46,-92.45 277.67,-85.27 279.28,-95.74 285.46,-92.45"/>
</a>
</g>
</g>
<!-- Node5 -->
<g id="Node000005" class="node">
<title>Node5</title>
<g id="a_Node000005"><a xlink:title=" ">
<polygon fill="#e0e0e0" stroke="#999999" points="369.5,-85 322.5,-85 322.5,-66 369.5,-66 369.5,-85"/>
<text text-anchor="middle" x="346" y="-73" font-family="Helvetica,sans-Serif" font-size="10.00">vector</text>
</a>
</g>
</g>
<!-- Node3&#45;&gt;Node5 -->
<g id="edge4_Node000003_Node000005" class="edge">
<title>Node3&#45;&gt;Node5</title>
<g id="a_edge4_Node000003_Node000005"><a xlink:title=" ">
<path fill="none" stroke="#63b8ff" d="M317.29,-131.94C322.88,-121.14 330.64,-106.15 336.69,-94.48"/>
<polygon fill="#63b8ff" stroke="#63b8ff" points="339.97,-95.76 341.46,-85.27 333.75,-92.54 339.97,-95.76"/>
</a>
</g>
</g>
<!-- Node6 -->
<g id="Node000006" class="node">
<title>Node6</title>
<g id="a_Node000006"><a xlink:title=" ">
<polygon fill="#e0e0e0" stroke="#999999" points="40,-85 0,-85 0,-66 40,-66 40,-85"/>
<text text-anchor="middle" x="20" y="-73" font-family="Helvetica,sans-Serif" font-size="10.00">span</text>
</a>
</g>
</g>
<!-- Node3&#45;&gt;Node6 -->
<g id="edge5_Node000003_Node000006" class="edge">
<title>Node3&#45;&gt;Node6</title>
<g id="a_edge5_Node000003_Node000006"><a xlink:title=" ">
<path fill="none" stroke="#63b8ff" d="M226.28,-139.05C173.52,-132.5 104.87,-119.94 48,-96 44.68,-94.6 41.35,-92.77 38.22,-90.78"/>
<polygon fill="#63b8ff" stroke="#63b8ff" points="40.22,-87.91 30.02,-85.03 36.19,-93.64 40.22,-87.91"/>
</a>
</g>
</g>
<!-- Node3&#45;&gt;Node7 -->
<g id="edge6_Node000003_Node000007" class="edge">
<title>Node3&#45;&gt;Node7</title>
<g id="a_edge6_Node000003_Node000007"><a xlink:title=" ">
<path fill="none" stroke="#63b8ff" d="M338.33,-131.94C363.3,-119.54 399.39,-101.62 423.73,-89.54"/>
<polygon fill="#63b8ff" stroke="#63b8ff" points="425.34,-92.65 432.74,-85.07 422.23,-86.38 425.34,-92.65"/>
</a>
</g>
</g>
<!-- Node8 -->
<g id="Node000008" class="node">
<title>Node8</title>
<g id="a_Node000008"><a xlink:title=" ">
<polygon fill="#e0e0e0" stroke="#999999" points="224.5,-90.5 57.5,-90.5 57.5,-60.5 224.5,-60.5 224.5,-90.5"/>
<text text-anchor="start" x="65.5" y="-78.5" font-family="Helvetica,sans-Serif" font-size="10.00">Hermes/_base/ConnectionError</text>
<text text-anchor="middle" x="141" y="-67.5" font-family="Helvetica,sans-Serif" font-size="10.00">Enum.tpp</text>
</a>
</g>
</g>
<!-- Node3&#45;&gt;Node8 -->
<g id="edge7_Node000003_Node000008" class="edge">
<title>Node3&#45;&gt;Node8</title>
<g id="a_edge7_Node000003_Node000008"><a xlink:title=" ">
<path fill="none" stroke="#63b8ff" d="M275.8,-131.94C249.46,-121.1 212.86,-106.05 184.44,-94.37"/>
<polygon fill="#63b8ff" stroke="#63b8ff" points="185.73,-91.11 175.15,-90.54 183.07,-97.58 185.73,-91.11"/>
</a>
</g>
</g>
<!-- Node10 -->
<g id="Node000010" class="node">
<title>Node10</title>
<g id="a_Node000010"><a xlink:title=" ">
<polygon fill="#e0e0e0" stroke="#999999" points="2087.5,-19 2010.5,-19 2010.5,0 2087.5,0 2087.5,-19"/>
<text text-anchor="middle" x="2049" y="-7" font-family="Helvetica,sans-Serif" font-size="10.00">sys/socket.h</text>
</a>
</g>
</g>
<!-- Node9&#45;&gt;Node10 -->
<g id="edge9_Node000009_Node000010" class="edge">
<title>Node9&#45;&gt;Node10</title>
<g id="a_edge9_Node000009_Node000010"><a xlink:title=" ">
<path fill="none" stroke="#63b8ff" d="M1602.09,-144.42C1780.53,-139.38 2303.22,-122.41 2328,-96 2396.23,-23.28 2194.61,-11.84 2097.76,-10.44"/>
<polygon fill="#63b8ff" stroke="#63b8ff" points="2097.65,-6.94 2087.61,-10.32 2097.57,-13.94 2097.65,-6.94"/>
</a>
</g>
</g>
<!-- Node11 -->
<g id="Node000011" class="node">
<title>Node11</title>
<g id="a_Node000011"><a xlink:title=" ">
<polygon fill="#e0e0e0" stroke="#999999" points="2546,-19 2474,-19 2474,0 2546,0 2546,-19"/>
<text text-anchor="middle" x="2510" y="-7" font-family="Helvetica,sans-Serif" font-size="10.00">netinet/in.h</text>
</a>
</g>
</g>
<!-- Node9&#45;&gt;Node11 -->
<g id="edge10_Node000009_Node000011" class="edge">
<title>Node9&#45;&gt;Node11</title>
<g id="a_edge10_Node000009_Node000011"><a xlink:title=" ">
<path fill="none" stroke="#63b8ff" d="M1602.24,-145.36C1816.63,-142.76 2541.28,-131.39 2575,-96 2587.57,-82.81 2583.5,-71.12 2575,-55 2567.76,-41.27 2554.17,-30.97 2541.28,-23.76"/>
<polygon fill="#63b8ff" stroke="#63b8ff" points="2542.61,-20.51 2532.12,-19.05 2539.41,-26.73 2542.61,-20.51"/>
</a>
</g>
</g>
<!-- Node12 -->
<g id="Node000012" class="node">
<title>Node12</title>
<g id="a_Node000012"><a xlink:title=" ">
<polygon fill="#e0e0e0" stroke="#999999" points="599.5,-85 530.5,-85 530.5,-66 599.5,-66 599.5,-85"/>
<text text-anchor="middle" x="565" y="-73" font-family="Helvetica,sans-Serif" font-size="10.00">arpa/inet.h</text>
</a>
</g>
</g>
<!-- Node9&#45;&gt;Node12 -->
<g id="edge11_Node000009_Node000012" class="edge">
<title>Node9&#45;&gt;Node12</title>
<g id="a_edge11_Node000009_Node000012"><a xlink:title=" ">
<path fill="none" stroke="#63b8ff" d="M1483.84,-145.7C1305.5,-144.33 775.19,-136.84 608,-96 601.88,-94.5 595.56,-92.15 589.71,-89.58"/>
<polygon fill="#63b8ff" stroke="#63b8ff" points="590.96,-86.31 580.42,-85.19 587.96,-92.63 590.96,-86.31"/>
</a>
</g>
</g>
<!-- Node13 -->
<g id="Node000013" class="node">
<title>Node13</title>
<g id="a_Node000013"><a xlink:title=" ">
<polygon fill="#e0e0e0" stroke="#999999" points="2708.5,-19 2655.5,-19 2655.5,0 2708.5,0 2708.5,-19"/>
<text text-anchor="middle" x="2682" y="-7" font-family="Helvetica,sans-Serif" font-size="10.00">netdb.h</text>
</a>
</g>
</g>
<!-- Node9&#45;&gt;Node13 -->
<g id="edge12_Node000009_Node000013" class="edge">
<title>Node9&#45;&gt;Node13</title>
<g id="a_edge12_Node000009_Node000013"><a xlink:title=" ">
<path fill="none" stroke="#63b8ff" d="M1602.29,-145.58C1810.56,-143.76 2501.04,-134.85 2592,-96 2626.03,-81.46 2654.9,-47.96 2670.22,-27.48"/>
<polygon fill="#63b8ff" stroke="#63b8ff" points="2673.26,-29.25 2676.28,-19.1 2667.58,-25.15 2673.26,-29.25"/>
</a>
</g>
</g>
<!-- Node14 -->
<g id="Node000014" class="node">
<title>Node14</title>
<g id="a_Node000014"><a xlink:title=" ">
<polygon fill="#e0e0e0" stroke="#999999" points="977,-85 921,-85 921,-66 977,-66 977,-85"/>
<text text-anchor="middle" x="949" y="-73" font-family="Helvetica,sans-Serif" font-size="10.00">unistd.h</text>
</a>
</g>
</g>
<!-- Node9&#45;&gt;Node14 -->
<g id="edge13_Node000009_Node000014" class="edge">
<title>Node9&#45;&gt;Node14</title>
<g id="a_edge13_Node000009_Node000014"><a xlink:title=" ">
<path fill="none" stroke="#63b8ff" d="M1483.91,-143.64C1360.26,-138.21 1078.06,-123.2 986,-96 981.04,-94.53 975.97,-92.37 971.24,-90.02"/>
<polygon fill="#63b8ff" stroke="#63b8ff" points="972.61,-86.78 962.16,-85.07 969.27,-92.93 972.61,-86.78"/>
</a>
</g>
</g>
<!-- Node15 -->
<g id="Node000015" class="node">
<title>Node15</title>
<g id="a_Node000015"><a xlink:href="_conversion_and_literals_8hpp.html" target="_top" xlink:title=" ">
<polygon fill="white" stroke="#666666" points="767,-90.5 617,-90.5 617,-60.5 767,-60.5 767,-90.5"/>
<text text-anchor="start" x="625" y="-78.5" font-family="Helvetica,sans-Serif" font-size="10.00">Hermes/_base/OsApi</text>
<text text-anchor="middle" x="692" y="-67.5" font-family="Helvetica,sans-Serif" font-size="10.00">/ConversionAndLiterals.hpp</text>
</a>
</g>
</g>
<!-- Node9&#45;&gt;Node15 -->
<g id="edge14_Node000009_Node000015" class="edge">
<title>Node9&#45;&gt;Node15</title>
<g id="a_edge14_Node000009_Node000015"><a xlink:title=" ">
<path fill="none" stroke="#63b8ff" d="M1483.96,-145.42C1354.86,-143.44 1038.04,-134.69 776,-96 769.78,-95.08 763.34,-93.94 756.92,-92.67"/>
<polygon fill="#63b8ff" stroke="#63b8ff" points="757.38,-89.19 746.88,-90.59 755.96,-96.05 757.38,-89.19"/>
</a>
</g>
</g>
<!-- Node17 -->
<g id="Node000017" class="node">
<title>Node17</title>
<g id="a_Node000017"><a xlink:href="_macros_8hpp.html" target="_top" xlink:title=" ">
<polygon fill="white" stroke="#666666" points="903,-90.5 785,-90.5 785,-60.5 903,-60.5 903,-90.5"/>
<text text-anchor="start" x="793" y="-78.5" font-family="Helvetica,sans-Serif" font-size="10.00">Hermes/_base/OsApi</text>
<text text-anchor="middle" x="844" y="-67.5" font-family="Helvetica,sans-Serif" font-size="10.00">/Macros.hpp</text>
</a>
</g>
</g>
<!-- Node9&#45;&gt;Node17 -->
<g id="edge16_Node000009_Node000017" class="edge">
<title>Node9&#45;&gt;Node17</title>
<g id="a_edge16_Node000009_Node000017"><a xlink:title=" ">
<path fill="none" stroke="#63b8ff" d="M1483.77,-145.25C1371.4,-142.95 1119.89,-133.65 912,-96 907.53,-95.19 902.93,-94.21 898.33,-93.12"/>
<polygon fill="#63b8ff" stroke="#63b8ff" points="898.88,-89.65 888.32,-90.59 897.16,-96.43 898.88,-89.65"/>
</a>
</g>
</g>
<!-- Node19 -->
<g id="Node000019" class="node">
<title>Node19</title>
<g id="a_Node000019"><a xlink:href="_address_family_enum_8hpp.html" target="_top" xlink:title=" ">
<polygon fill="white" stroke="#666666" points="1171,-90.5 995,-90.5 995,-60.5 1171,-60.5 1171,-90.5"/>
<text text-anchor="start" x="1003" y="-78.5" font-family="Helvetica,sans-Serif" font-size="10.00">Hermes/_base/OsApi</text>
<text text-anchor="middle" x="1083" y="-67.5" font-family="Helvetica,sans-Serif" font-size="10.00">/Enums/AddressFamilyEnum.hpp</text>
</a>
</g>
</g>
<!-- Node9&#45;&gt;Node19 -->
<g id="edge19_Node000009_Node000019" class="edge">
<title>Node9&#45;&gt;Node19</title>
<g id="a_edge19_Node000009_Node000019"><a xlink:title=" ">
<path fill="none" stroke="#63b8ff" d="M1483.73,-138.97C1411.72,-130.17 1286.63,-114.04 1180,-96 1173.46,-94.89 1166.68,-93.68 1159.89,-92.41"/>
<polygon fill="#63b8ff" stroke="#63b8ff" points="1160.43,-88.95 1149.95,-90.52 1159.12,-95.82 1160.43,-88.95"/>
</a>
</g>
</g>
<!-- Node20 -->
<g id="Node000020" class="node">
<title>Node20</title>
<g id="a_Node000020"><a xlink:href="_protocol_base_type_enum_8hpp.html" target="_top" xlink:title=" ">
<polygon fill="white" stroke="#666666" points="2565.5,-90.5 2374.5,-90.5 2374.5,-60.5 2565.5,-60.5 2565.5,-90.5"/>
<text text-anchor="start" x="2382.5" y="-78.5" font-family="Helvetica,sans-Serif" font-size="10.00">Hermes/_base/OsApi</text>
<text text-anchor="middle" x="2470" y="-67.5" font-family="Helvetica,sans-Serif" font-size="10.00">/Enums/ProtocolBaseTypeEnum.hpp</text>
</a>
</g>
</g>
<!-- Node9&#45;&gt;Node20 -->
<g id="edge21_Node000009_Node000020" class="edge">
<title>Node9&#45;&gt;Node20</title>
<g id="a_edge21_Node000009_Node000020"><a xlink:title=" ">
<path fill="none" stroke="#63b8ff" d="M1602.16,-144.7C1737.02,-141.22 2077.42,-129.58 2360,-96 2368.98,-94.93 2378.34,-93.61 2387.64,-92.15"/>
<polygon fill="#63b8ff" stroke="#63b8ff" points="2388.38,-95.58 2397.69,-90.53 2387.26,-88.67 2388.38,-95.58"/>
</a>
</g>
</g>
<!-- Node21 -->
<g id="Node000021" class="node">
<title>Node21</title>
<g id="a_Node000021"><a xlink:href="_socket_shutdown_enum_8hpp.html" target="_top" xlink:title=" ">
<polygon fill="white" stroke="#666666" points="2141.5,-90.5 1956.5,-90.5 1956.5,-60.5 2141.5,-60.5 2141.5,-90.5"/>
<text text-anchor="start" x="1964.5" y="-78.5" font-family="Helvetica,sans-Serif" font-size="10.00">Hermes/_base/OsApi</text>
<text text-anchor="middle" x="2049" y="-67.5" font-family="Helvetica,sans-Serif" font-size="10.00">/Enums/SocketShutdownEnum.hpp</text>
</a>
</g>
</g>
<!-- Node9&#45;&gt;Node21 -->
<g id="edge23_Node000009_Node000021" class="edge">
<title>Node9&#45;&gt;Node21</title>
<g id="a_edge23_Node000009_Node000021"><a xlink:title=" ">
<path fill="none" stroke="#63b8ff" d="M1602.2,-139.96C1681.25,-131.62 1825.54,-115.36 1948,-96 1955.03,-94.89 1962.33,-93.65 1969.63,-92.35"/>
<polygon fill="#63b8ff" stroke="#63b8ff" points="1970.35,-95.78 1979.56,-90.55 1969.1,-88.89 1970.35,-95.78"/>
</a>
</g>
</g>
<!-- Node22 -->
<g id="Node000022" class="node">
<title>Node22</title>
<g id="a_Node000022"><a xlink:href="_socket_type_enum_8hpp.html" target="_top" xlink:title=" ">
<polygon fill="white" stroke="#666666" points="2318.5,-90.5 2159.5,-90.5 2159.5,-60.5 2318.5,-60.5 2318.5,-90.5"/>
<text text-anchor="start" x="2167.5" y="-78.5" font-family="Helvetica,sans-Serif" font-size="10.00">Hermes/_base/OsApi</text>
<text text-anchor="middle" x="2239" y="-67.5" font-family="Helvetica,sans-Serif" font-size="10.00">/Enums/SocketTypeEnum.hpp</text>
</a>
</g>
</g>
<!-- Node9&#45;&gt;Node22 -->
<g id="edge25_Node000009_Node000022" class="edge">
<title>Node9&#45;&gt;Node22</title>
<g id="a_edge25_Node000009_Node000022"><a xlink:title=" ">
<path fill="none" stroke="#63b8ff" d="M1602,-143.82C1710.98,-139.19 1950.98,-126.24 2151,-96 2157.55,-95.01 2164.34,-93.81 2171.11,-92.51"/>
<polygon fill="#63b8ff" stroke="#63b8ff" points="2171.87,-95.92 2180.99,-90.53 2170.49,-89.06 2171.87,-95.92"/>
</a>
</g>
</g>
<!-- Node23 -->
<g id="Node000023" class="node">
<title>Node23</title>
<g id="a_Node000023"><a xlink:href="_linux_2_encrypt_status_enum_8hpp.html" target="_top" xlink:title=" ">
<polygon fill="white" stroke="#666666" points="1341,-96 1189,-96 1189,-55 1341,-55 1341,-96"/>
<text text-anchor="start" x="1197" y="-84" font-family="Helvetica,sans-Serif" font-size="10.00">Hermes/_base/OsApi</text>
<text text-anchor="start" x="1197" y="-73" font-family="Helvetica,sans-Serif" font-size="10.00">/Enums/Linux/EncryptStatus</text>
<text text-anchor="middle" x="1265" y="-62" font-family="Helvetica,sans-Serif" font-size="10.00">Enum.hpp</text>
</a>
</g>
</g>
<!-- Node9&#45;&gt;Node23 -->
<g id="edge27_Node000009_Node000023" class="edge">
<title>Node9&#45;&gt;Node23</title>
<g id="a_edge27_Node000009_Node000023"><a xlink:title=" ">
<path fill="none" stroke="#63b8ff" d="M1486.74,-131.94C1447.8,-122.2 1395.24,-109.06 1351.06,-98.02"/>
<polygon fill="#63b8ff" stroke="#63b8ff" points="1351.74,-94.58 1341.19,-95.55 1350.05,-101.37 1351.74,-94.58"/>
</a>
</g>
</g>
<!-- Node24 -->
<g id="Node000024" class="node">
<title>Node24</title>
<g id="a_Node000024"><a xlink:href="_name_info_flags_8hpp.html" target="_top" xlink:title=" ">
<polygon fill="white" stroke="#666666" points="2804,-90.5 2660,-90.5 2660,-60.5 2804,-60.5 2804,-90.5"/>
<text text-anchor="start" x="2668" y="-78.5" font-family="Helvetica,sans-Serif" font-size="10.00">Hermes/_base/OsApi</text>
<text text-anchor="middle" x="2732" y="-67.5" font-family="Helvetica,sans-Serif" font-size="10.00">/Flags/NameInfoFlags.hpp</text>
</a>
</g>
</g>
<!-- Node9&#45;&gt;Node24 -->
<g id="edge28_Node000009_Node000024" class="edge">
<title>Node9&#45;&gt;Node24</title>
<g id="a_edge28_Node000009_Node000024"><a xlink:title=" ">
<path fill="none" stroke="#63b8ff" d="M1602.06,-144.71C1800.37,-140.15 2441.43,-123.61 2646,-96 2652.73,-95.09 2659.71,-93.91 2666.64,-92.59"/>
<polygon fill="#63b8ff" stroke="#63b8ff" points="2667.64,-95.96 2676.75,-90.55 2666.25,-89.09 2667.64,-95.96"/>
</a>
</g>
</g>
<!-- Node25 -->
<g id="Node000025" class="node">
<title>Node25</title>
<g id="a_Node000025"><a xlink:href="_linux_2_credential_flags_8hpp.html" target="_top" xlink:title=" ">
<polygon fill="white" stroke="#666666" points="1535,-90.5 1359,-90.5 1359,-60.5 1535,-60.5 1535,-90.5"/>
<text text-anchor="start" x="1367" y="-78.5" font-family="Helvetica,sans-Serif" font-size="10.00">Hermes/_base/OsApi</text>
<text text-anchor="middle" x="1447" y="-67.5" font-family="Helvetica,sans-Serif" font-size="10.00">/Flags/Linux/CredentialFlags.hpp</text>
</a>
</g>
</g>
<!-- Node9&#45;&gt;Node25 -->
<g id="edge30_Node000009_Node000025" class="edge">
<title>Node9&#45;&gt;Node25</title>
<g id="a_edge30_Node000009_Node000025"><a xlink:title=" ">
<path fill="none" stroke="#63b8ff" d="M1523.57,-131.94C1509.52,-121.76 1490.33,-107.87 1474.68,-96.54"/>
<polygon fill="#63b8ff" stroke="#63b8ff" points="1476.55,-93.57 1466.4,-90.54 1472.45,-99.24 1476.55,-93.57"/>
</a>
</g>
</g>
<!-- Node26 -->
<g id="Node000026" class="node">
<title>Node26</title>
<g id="a_Node000026"><a xlink:href="_linux_2_supported_protocols_flags_8hpp.html" target="_top" xlink:title=" ">
<polygon fill="white" stroke="#666666" points="1726.5,-96 1553.5,-96 1553.5,-55 1726.5,-55 1726.5,-96"/>
<text text-anchor="start" x="1561.5" y="-84" font-family="Helvetica,sans-Serif" font-size="10.00">Hermes/_base/OsApi</text>
<text text-anchor="start" x="1561.5" y="-73" font-family="Helvetica,sans-Serif" font-size="10.00">/Flags/Linux/SupportedProtocols</text>
<text text-anchor="middle" x="1640" y="-62" font-family="Helvetica,sans-Serif" font-size="10.00">Flags.hpp</text>
</a>
</g>
</g>
<!-- Node9&#45;&gt;Node26 -->
<g id="edge31_Node000009_Node000026" class="edge">
<title>Node9&#45;&gt;Node26</title>
<g id="a_edge31_Node000009_Node000026"><a xlink:title=" ">
<path fill="none" stroke="#63b8ff" d="M1562.63,-131.94C1574.55,-123.4 1590.13,-112.23 1604.18,-102.17"/>
<polygon fill="#63b8ff" stroke="#63b8ff" points="1606.59,-104.74 1612.68,-96.07 1602.51,-99.05 1606.59,-104.74"/>
</a>
</g>
</g>
<!-- Node27 -->
<g id="Node000027" class="node">
<title>Node27</title>
<g id="a_Node000027"><a xlink:href="_linux_2_s_channel_cred_flags_8hpp.html" target="_top" xlink:title=" ">
<polygon fill="white" stroke="#666666" points="1939,-90.5 1745,-90.5 1745,-60.5 1939,-60.5 1939,-90.5"/>
<text text-anchor="start" x="1753" y="-78.5" font-family="Helvetica,sans-Serif" font-size="10.00">Hermes/_base/OsApi</text>
<text text-anchor="middle" x="1842" y="-67.5" font-family="Helvetica,sans-Serif" font-size="10.00">/Flags/Linux/SChannelCredFlags.hpp</text>
</a>
</g>
</g>
<!-- Node9&#45;&gt;Node27 -->
<g id="edge32_Node000009_Node000027" class="edge">
<title>Node9&#45;&gt;Node27</title>
<g id="a_edge32_Node000009_Node000027"><a xlink:title=" ">
<path fill="none" stroke="#63b8ff" d="M1602.07,-132.27C1650.92,-120.92 1720.39,-104.77 1772.02,-92.77"/>
<polygon fill="#63b8ff" stroke="#63b8ff" points="1772.82,-96.17 1781.77,-90.5 1771.24,-89.36 1772.82,-96.17"/>
</a>
</g>
</g>
<!-- Node16 -->
<g id="Node000016" class="node">
<title>Node16</title>
<g id="a_Node000016"><a xlink:title=" ">
<polygon fill="#e0e0e0" stroke="#999999" points="717,-19 667,-19 667,0 717,0 717,-19"/>
<text text-anchor="middle" x="692" y="-7" font-family="Helvetica,sans-Serif" font-size="10.00">cstdint</text>
</a>
</g>
</g>
<!-- Node15&#45;&gt;Node16 -->
<g id="edge15_Node000015_Node000016" class="edge">
<title>Node15&#45;&gt;Node16</title>
<g id="a_edge15_Node000015_Node000016"><a xlink:title=" ">
<path fill="none" stroke="#63b8ff" d="M692,-60.3C692,-51.2 692,-39.29 692,-29.4"/>
<polygon fill="#63b8ff" stroke="#63b8ff" points="695.5,-29.34 692,-19.34 688.5,-29.34 695.5,-29.34"/>
</a>
</g>
</g>
<!-- Node17&#45;&gt;Node10 -->
<g id="edge18_Node000017_Node000010" class="edge">
<title>Node17&#45;&gt;Node10</title>
<g id="a_edge18_Node000017_Node000010"><a xlink:title=" ">
<path fill="none" stroke="#63b8ff" d="M887.18,-60.44C895.35,-58.26 903.88,-56.3 912,-55 1126.4,-20.58 1811.07,-12.46 2000.2,-10.85"/>
<polygon fill="#63b8ff" stroke="#63b8ff" points="2000.41,-14.35 2010.38,-10.77 2000.36,-7.35 2000.41,-14.35"/>
</a>
</g>
</g>
<!-- Node18 -->
<g id="Node000018" class="node">
<title>Node18</title>
<g id="a_Node000018"><a xlink:title=" ">
<polygon fill="#e0e0e0" stroke="#999999" points="880.5,-19 807.5,-19 807.5,0 880.5,0 880.5,-19"/>
<text text-anchor="middle" x="844" y="-7" font-family="Helvetica,sans-Serif" font-size="10.00">string_view</text>
</a>
</g>
</g>
<!-- Node17&#45;&gt;Node18 -->
<g id="edge17_Node000017_Node000018" class="edge">
<title>Node17&#45;&gt;Node18</title>
<g id="a_edge17_Node000017_Node000018"><a xlink:title=" ">
<path fill="none" stroke="#63b8ff" d="M844,-60.3C844,-51.2 844,-39.29 844,-29.4"/>
<polygon fill="#63b8ff" stroke="#63b8ff" points="847.5,-29.34 844,-19.34 840.5,-29.34 847.5,-29.34"/>
</a>
</g>
</g>
<!-- Node19&#45;&gt;Node10 -->
<g id="edge20_Node000019_Node000010" class="edge">
<title>Node19&#45;&gt;Node10</title>
<g id="a_edge20_Node000019_Node000010"><a xlink:title=" ">
<path fill="none" stroke="#63b8ff" d="M1145.91,-60.45C1157.22,-58.33 1168.92,-56.39 1180,-55 1490.49,-16.06 1867.46,-11 2000.05,-10.49"/>
<polygon fill="#63b8ff" stroke="#63b8ff" points="2000.29,-13.99 2010.28,-10.46 2000.27,-6.99 2000.29,-13.99"/>
</a>
</g>
</g>
<!-- Node20&#45;&gt;Node11 -->
<g id="edge22_Node000020_Node000011" class="edge">
<title>Node20&#45;&gt;Node11</title>
<g id="a_edge22_Node000020_Node000011"><a xlink:title=" ">
<path fill="none" stroke="#63b8ff" d="M2478.88,-60.3C2484.81,-50.81 2492.65,-38.26 2498.98,-28.13"/>
<polygon fill="#63b8ff" stroke="#63b8ff" points="2502.14,-29.68 2504.47,-19.34 2496.2,-25.97 2502.14,-29.68"/>
</a>
</g>
</g>
<!-- Node21&#45;&gt;Node10 -->
<g id="edge24_Node000021_Node000010" class="edge">
<title>Node21&#45;&gt;Node10</title>
<g id="a_edge24_Node000021_Node000010"><a xlink:title=" ">
<path fill="none" stroke="#63b8ff" d="M2049,-60.3C2049,-51.2 2049,-39.29 2049,-29.4"/>
<polygon fill="#63b8ff" stroke="#63b8ff" points="2052.5,-29.34 2049,-19.34 2045.5,-29.34 2052.5,-29.34"/>
</a>
</g>
</g>
<!-- Node22&#45;&gt;Node10 -->
<g id="edge26_Node000022_Node000010" class="edge">
<title>Node22&#45;&gt;Node10</title>
<g id="a_edge26_Node000022_Node000010"><a xlink:title=" ">
<path fill="none" stroke="#63b8ff" d="M2197.3,-60.45C2163.4,-49.03 2116.09,-33.1 2084.1,-22.32"/>
<polygon fill="#63b8ff" stroke="#63b8ff" points="2084.88,-18.89 2074.29,-19.02 2082.65,-25.53 2084.88,-18.89"/>
</a>
</g>
</g>
<!-- Node24&#45;&gt;Node13 -->
<g id="edge29_Node000024_Node000013" class="edge">
<title>Node24&#45;&gt;Node13</title>
<g id="a_edge29_Node000024_Node000013"><a xlink:title=" ">
<path fill="none" stroke="#63b8ff" d="M2720.9,-60.3C2713.34,-50.61 2703.28,-37.74 2695.29,-27.51"/>
<polygon fill="#63b8ff" stroke="#63b8ff" points="2697.82,-25.07 2688.91,-19.34 2692.31,-29.38 2697.82,-25.07"/>
</a>
</g>
</g>
</g>
</svg>
