<?xml version="1.0" encoding="UTF-8" standalone="no"?>
<!DOCTYPE svg PUBLIC "-//W3C//DTD SVG 1.1//EN"
 "http://www.w3.org/Graphics/SVG/1.1/DTD/svg11.dtd">
<!-- Generated by graphviz version 2.43.0 (0)
 -->
<!-- Title: include/Hermes/Socket/_base/_base.hpp Pages: 1 -->
<svg width="834pt" height="390pt"
 viewBox="0.00 0.00 833.50 390.00" xmlns="http://www.w3.org/2000/svg" xmlns:xlink="http://www.w3.org/1999/xlink">
<g id="graph0" class="graph" transform="scale(1 1) rotate(0) translate(4 386)">
<title>include/Hermes/Socket/_base/_base.hpp</title>
<!-- Node1 -->
<g id="Node000001" class="node">
<title>Node1</title>
<g id="a_Node000001"><a xlink:title=" ">
<polygon fill="#999999" stroke="#666666" points="532,-382 404,-382 404,-352 532,-352 532,-382"/>
<text text-anchor="start" x="412" y="-370" font-family="Helvetica,sans-Serif" font-size="10.00">include/Hermes/Socket</text>
<text text-anchor="middle" x="468" y="-359" font-family="Helvetica,sans-Serif" font-size="10.00">/_base/_base.hpp</text>
</a>
</g>
</g>
<!-- Node2 -->
<g id="Node000002" class="node">
<title>Node2</title>
<g id="a_Node000002"><a xlink:href="_default_accept_policy_8hpp.html" target="_top" xlink:title=" ">
<polygon fill="white" stroke="#666666" points="156,-250 0,-250 0,-209 156,-209 156,-250"/>
<text text-anchor="start" x="8" y="-238" font-family="Helvetica,sans-Serif" font-size="10.00">include/Hermes/Socket</text>
<text text-anchor="start" x="8" y="-227" font-family="Helvetica,sans-Serif" font-size="10.00">/_base/Accept/DefaultAccept</text>
<text text-anchor="middle" x="78" y="-216" font-family="Helvetica,sans-Serif" font-size="10.00">Policy.hpp</text>
</a>
</g>
</g>
<!-- Node1&#45;&gt;Node2 -->
<g id="edge1_Node000001_Node000002" class="edge">
<title>Node1&#45;&gt;Node2</title>
<g id="a_edge1_Node000001_Node000002"><a xlink:title=" ">
<path fill="none" stroke="#63b8ff" d="M393.52,-365.27C330.94,-361.97 240.66,-350.79 170,-316 138.31,-300.4 109.89,-270.3 93.28,-250.31"/>
<polygon fill="#63b8ff" stroke="#63b8ff" points="393.56,-368.77 403.71,-365.75 393.89,-361.78 393.56,-368.77"/>
</a>
</g>
</g>
<!-- Node5 -->
<g id="Node000005" class="node">
<title>Node5</title>
<g id="a_Node000005"><a xlink:href="_tls_accept_policy_8hpp.html" target="_top" xlink:title=" ">
<polygon fill="white" stroke="#666666" points="228.5,-167.5 45.5,-167.5 45.5,-137.5 228.5,-137.5 228.5,-167.5"/>
<text text-anchor="start" x="53.5" y="-155.5" font-family="Helvetica,sans-Serif" font-size="10.00">include/Hermes/Socket</text>
<text text-anchor="middle" x="137" y="-144.5" font-family="Helvetica,sans-Serif" font-size="10.00">/_base/Accept/TlsAcceptPolicy.hpp</text>
</a>
</g>
</g>
<!-- Node1&#45;&gt;Node5 -->
<g id="edge6_Node000001_Node000005" class="edge">
<title>Node1&#45;&gt;Node5</title>
<g id="a_edge6_Node000001_Node000005"><a xlink:title=" ">
<path fill="none" stroke="#63b8ff" d="M393.45,-360.19C325.33,-353.44 231.08,-340.04 203,-316 164.66,-283.18 184.85,-255.4 165,-209 158.89,-194.71 150.79,-178.94 144.88,-167.87"/>
<polygon fill="#63b8ff" stroke="#63b8ff" points="393.43,-363.7 403.72,-361.18 394.1,-356.74 393.43,-363.7"/>
</a>
</g>
</g>
<!-- Node6 -->
<g id="Node000006" class="node">
<title>Node6</title>
<g id="a_Node000006"><a xlink:href="_default_connect_policy_8hpp.html" target="_top" xlink:title=" ">
<polygon fill="white" stroke="#666666" points="825.5,-250 640.5,-250 640.5,-209 825.5,-209 825.5,-250"/>
<text text-anchor="start" x="648.5" y="-238" font-family="Helvetica,sans-Serif" font-size="10.00">include/Hermes/Socket</text>
<text text-anchor="start" x="648.5" y="-227" font-family="Helvetica,sans-Serif" font-size="10.00">/_base/Connection/DefaultConnect</text>
<text text-anchor="middle" x="733" y="-216" font-family="Helvetica,sans-Serif" font-size="10.00">Policy.hpp</text>
</a>
</g>
</g>
<!-- Node1&#45;&gt;Node6 -->
<g id="edge7_Node000001_Node000006" class="edge">
<title>Node1&#45;&gt;Node6</title>
<g id="a_edge7_Node000001_Node000006"><a xlink:title=" ">
<path fill="none" stroke="#63b8ff" d="M541.01,-349.23C568.86,-341.26 600.3,-330.3 627,-316 644.61,-306.57 685.17,-272.33 710.7,-250.14"/>
<polygon fill="#63b8ff" stroke="#63b8ff" points="540.02,-345.87 531.33,-351.92 541.9,-352.62 540.02,-345.87"/>
</a>
</g>
</g>
<!-- Node8 -->
<g id="Node000008" class="node">
<title>Node8</title>
<g id="a_Node000008"><a xlink:href="_tls_connect_policy_8hpp.html" target="_top" xlink:title=" ">
<polygon fill="white" stroke="#666666" points="760.5,-173 597.5,-173 597.5,-132 760.5,-132 760.5,-173"/>
<text text-anchor="start" x="605.5" y="-161" font-family="Helvetica,sans-Serif" font-size="10.00">include/Hermes/Socket</text>
<text text-anchor="start" x="605.5" y="-150" font-family="Helvetica,sans-Serif" font-size="10.00">/_base/Connection/TlsConnect</text>
<text text-anchor="middle" x="679" y="-139" font-family="Helvetica,sans-Serif" font-size="10.00">Policy.hpp</text>
</a>
</g>
</g>
<!-- Node1&#45;&gt;Node8 -->
<g id="edge11_Node000001_Node000008" class="edge">
<title>Node1&#45;&gt;Node8</title>
<g id="a_edge11_Node000001_Node000008"><a xlink:title=" ">
<path fill="none" stroke="#63b8ff" d="M501.4,-346.24C514.65,-337.7 529.64,-327.12 542,-316 588.19,-274.43 591.92,-256.49 632,-209 642.1,-197.04 653.44,-183.64 662.45,-173.01"/>
<polygon fill="#63b8ff" stroke="#63b8ff" points="499.16,-343.52 492.56,-351.81 502.89,-349.44 499.16,-343.52"/>
</a>
</g>
</g>
<!-- Node9 -->
<g id="Node000009" class="node">
<title>Node9</title>
<g id="a_Node000009"><a xlink:href="_default_socket_data_8hpp.html" target="_top" xlink:title=" ">
<polygon fill="white" stroke="#666666" points="402,-316 212,-316 212,-286 402,-286 402,-316"/>
<text text-anchor="start" x="220" y="-304" font-family="Helvetica,sans-Serif" font-size="10.00">include/Hermes/Socket</text>
<text text-anchor="middle" x="307" y="-293" font-family="Helvetica,sans-Serif" font-size="10.00">/_base/Data/DefaultSocketData.hpp</text>
</a>
</g>
</g>
<!-- Node1&#45;&gt;Node9 -->
<g id="edge12_Node000001_Node000009" class="edge">
<title>Node1&#45;&gt;Node9</title>
<g id="a_edge12_Node000001_Node000009"><a xlink:title=" ">
<path fill="none" stroke="#63b8ff" d="M423.19,-348.19C397.63,-338.02 366.03,-325.47 342.25,-316.01"/>
<polygon fill="#63b8ff" stroke="#63b8ff" points="422.08,-351.51 432.67,-351.95 424.67,-345.01 422.08,-351.51"/>
</a>
</g>
</g>
<!-- Node10 -->
<g id="Node000010" class="node">
<title>Node10</title>
<g id="a_Node000010"><a xlink:href="_default_transfer_policy_8hpp.html" target="_top" xlink:title=" ">
<polygon fill="white" stroke="#666666" points="415,-173 247,-173 247,-132 415,-132 415,-173"/>
<text text-anchor="start" x="255" y="-161" font-family="Helvetica,sans-Serif" font-size="10.00">include/Hermes/Socket</text>
<text text-anchor="start" x="255" y="-150" font-family="Helvetica,sans-Serif" font-size="10.00">/_base/Transfer/DefaultTransfer</text>
<text text-anchor="middle" x="331" y="-139" font-family="Helvetica,sans-Serif" font-size="10.00">Policy.hpp</text>
</a>
</g>
</g>
<!-- Node1&#45;&gt;Node10 -->
<g id="edge24_Node000001_Node000010" class="edge">
<title>Node1&#45;&gt;Node10</title>
<g id="a_edge24_Node000001_Node000010"><a xlink:title=" ">
<path fill="none" stroke="#63b8ff" d="M453.95,-343.43C443.13,-326.81 427.3,-304.05 411,-286 394.74,-268.01 384.03,-269.78 370,-250 353.06,-226.13 341.94,-193.82 336.06,-173.32"/>
<polygon fill="#63b8ff" stroke="#63b8ff" points="451.08,-345.44 459.42,-351.97 456.97,-341.66 451.08,-345.44"/>
</a>
</g>
</g>
<!-- Node11 -->
<g id="Node000011" class="node">
<title>Node11</title>
<g id="a_Node000011"><a xlink:href="_tls_socket_data_8hpp.html" target="_top" xlink:title=" ">
<polygon fill="white" stroke="#666666" points="547,-244.5 379,-244.5 379,-214.5 547,-214.5 547,-244.5"/>
<text text-anchor="start" x="387" y="-232.5" font-family="Helvetica,sans-Serif" font-size="10.00">include/Hermes/Socket</text>
<text text-anchor="middle" x="463" y="-221.5" font-family="Helvetica,sans-Serif" font-size="10.00">/_base/Data/TlsSocketData.hpp</text>
</a>
</g>
</g>
<!-- Node1&#45;&gt;Node11 -->
<g id="edge18_Node000001_Node000011" class="edge">
<title>Node1&#45;&gt;Node11</title>
<g id="a_edge18_Node000001_Node000011"><a xlink:title=" ">
<path fill="none" stroke="#63b8ff" d="M467.1,-341.48C466.05,-313.14 464.36,-267.46 463.52,-244.55"/>
<polygon fill="#63b8ff" stroke="#63b8ff" points="463.61,-341.89 467.47,-351.76 470.6,-341.63 463.61,-341.89"/>
</a>
</g>
</g>
<!-- Node12 -->
<g id="Node000012" class="node">
<title>Node12</title>
<g id="a_Node000012"><a xlink:href="_tls_transfer_policy_8hpp.html" target="_top" xlink:title=" ">
<polygon fill="white" stroke="#666666" points="579,-173 433,-173 433,-132 579,-132 579,-173"/>
<text text-anchor="start" x="441" y="-161" font-family="Helvetica,sans-Serif" font-size="10.00">include/Hermes/Socket</text>
<text text-anchor="start" x="441" y="-150" font-family="Helvetica,sans-Serif" font-size="10.00">/_base/Transfer/TlsTransfer</text>
<text text-anchor="middle" x="506" y="-139" font-family="Helvetica,sans-Serif" font-size="10.00">Policy.hpp</text>
</a>
</g>
</g>
<!-- Node1&#45;&gt;Node12 -->
<g id="edge25_Node000001_Node000012" class="edge">
<title>Node1&#45;&gt;Node12</title>
<g id="a_edge25_Node000001_Node000012"><a xlink:title=" ">
<path fill="none" stroke="#63b8ff" d="M491.08,-344.8C512.6,-323.32 543.24,-287.93 556,-250 561.81,-232.73 562.53,-226.01 556,-209 550.7,-195.2 540.2,-182.68 530.19,-173.04"/>
<polygon fill="#63b8ff" stroke="#63b8ff" points="488.62,-342.31 483.89,-351.79 493.5,-347.32 488.62,-342.31"/>
</a>
</g>
</g>
<!-- Node13 -->
<g id="Node000013" class="node">
<title>Node13</title>
<g id="a_Node000013"><a xlink:href="_to_bytes_8hpp.html" target="_top" xlink:title=" ">
<polygon fill="white" stroke="#666666" points="798.5,-316 679.5,-316 679.5,-286 798.5,-286 798.5,-316"/>
<text text-anchor="start" x="687.5" y="-304" font-family="Helvetica,sans-Serif" font-size="10.00">include/Hermes/Utils</text>
<text text-anchor="middle" x="739" y="-293" font-family="Helvetica,sans-Serif" font-size="10.00">/ToBytes.hpp</text>
</a>
</g>
</g>
<!-- Node1&#45;&gt;Node13 -->
<g id="edge26_Node000001_Node000013" class="edge">
<title>Node1&#45;&gt;Node13</title>
<g id="a_edge26_Node000001_Node000013"><a xlink:title=" ">
<path fill="none" stroke="#63b8ff" d="M537.24,-349.65C581.27,-339.25 637.69,-325.93 679.67,-316.01"/>
<polygon fill="#63b8ff" stroke="#63b8ff" points="536.4,-346.25 527.47,-351.95 538.01,-353.06 536.4,-346.25"/>
</a>
</g>
</g>
<!-- Node3 -->
<g id="Node000003" class="node">
<title>Node3</title>
<g id="a_Node000003"><a xlink:href="_server_socket_8hpp.html" target="_top" xlink:title=" ">
<polygon fill="white" stroke="#666666" points="298,-96 170,-96 170,-66 298,-66 298,-96"/>
<text text-anchor="start" x="178" y="-84" font-family="Helvetica,sans-Serif" font-size="10.00">include/Hermes/Socket</text>
<text text-anchor="middle" x="234" y="-73" font-family="Helvetica,sans-Serif" font-size="10.00">/ServerSocket.hpp</text>
</a>
</g>
</g>
<!-- Node2&#45;&gt;Node3 -->
<g id="edge2_Node000002_Node000003" class="edge">
<title>Node2&#45;&gt;Node3</title>
<g id="a_edge2_Node000002_Node000003"><a xlink:title=" ">
<path fill="none" stroke="#63b8ff" d="M51.6,-201.13C35.12,-180.66 19.84,-152.74 36,-132 52.48,-110.85 118.6,-97.24 169.95,-89.64"/>
<polygon fill="#63b8ff" stroke="#63b8ff" points="49.01,-203.49 58.15,-208.85 54.35,-198.96 49.01,-203.49"/>
</a>
</g>
</g>
<!-- Node2&#45;&gt;Node5 -->
<g id="edge4_Node000002_Node000005" class="edge">
<title>Node2&#45;&gt;Node5</title>
<g id="a_edge4_Node000002_Node000005"><a xlink:title=" ">
<path fill="none" stroke="#63b8ff" d="M99.7,-200.92C108.52,-189.7 118.35,-177.21 125.7,-167.86"/>
<polygon fill="#63b8ff" stroke="#63b8ff" points="96.93,-198.77 93.5,-208.79 102.44,-203.1 96.93,-198.77"/>
</a>
</g>
</g>
<!-- Node4 -->
<g id="Node000004" class="node">
<title>Node4</title>
<g id="a_Node000004"><a xlink:href="_listener_socket_8hpp.html" target="_top" xlink:title=" ">
<polygon fill="white" stroke="#666666" points="298,-30 170,-30 170,0 298,0 298,-30"/>
<text text-anchor="start" x="178" y="-18" font-family="Helvetica,sans-Serif" font-size="10.00">include/Hermes/Socket</text>
<text text-anchor="middle" x="234" y="-7" font-family="Helvetica,sans-Serif" font-size="10.00">/ListenerSocket.hpp</text>
</a>
</g>
</g>
<!-- Node3&#45;&gt;Node4 -->
<g id="edge3_Node000003_Node000004" class="edge">
<title>Node3&#45;&gt;Node4</title>
<g id="a_edge3_Node000003_Node000004"><a xlink:title=" ">
<path fill="none" stroke="#63b8ff" d="M234,-55.54C234,-46.96 234,-37.61 234,-30.16"/>
<polygon fill="#63b8ff" stroke="#63b8ff" points="230.5,-55.8 234,-65.8 237.5,-55.8 230.5,-55.8"/>
</a>
</g>
</g>
<!-- Node5&#45;&gt;Node3 -->
<g id="edge5_Node000005_Node000003" class="edge">
<title>Node5&#45;&gt;Node3</title>
<g id="a_edge5_Node000005_Node000003"><a xlink:title=" ">
<path fill="none" stroke="#63b8ff" d="M165,-131.44C180.82,-120.1 200.21,-106.21 214.4,-96.04"/>
<polygon fill="#63b8ff" stroke="#63b8ff" points="162.72,-128.77 156.63,-137.44 166.8,-134.46 162.72,-128.77"/>
</a>
</g>
</g>
<!-- Node7 -->
<g id="Node000007" class="node">
<title>Node7</title>
<g id="a_Node000007"><a xlink:href="_client_socket_8hpp.html" target="_top" xlink:title=" ">
<polygon fill="white" stroke="#666666" points="656,-96 528,-96 528,-66 656,-66 656,-96"/>
<text text-anchor="start" x="536" y="-84" font-family="Helvetica,sans-Serif" font-size="10.00">include/Hermes/Socket</text>
<text text-anchor="middle" x="592" y="-73" font-family="Helvetica,sans-Serif" font-size="10.00">/ClientSocket.hpp</text>
</a>
</g>
</g>
<!-- Node6&#45;&gt;Node7 -->
<g id="edge8_Node000006_Node000007" class="edge">
<title>Node6&#45;&gt;Node7</title>
<g id="a_edge8_Node000006_Node000007"><a xlink:title=" ">
<path fill="none" stroke="#63b8ff" d="M757.24,-200.76C772.09,-180.27 785.53,-152.49 770,-132 756.04,-113.58 701.47,-100.06 656.38,-91.76"/>
<polygon fill="#63b8ff" stroke="#63b8ff" points="754.4,-198.71 751.09,-208.78 759.96,-202.97 754.4,-198.71"/>
</a>
</g>
</g>
<!-- Node6&#45;&gt;Node8 -->
<g id="edge9_Node000006_Node000008" class="edge">
<title>Node6&#45;&gt;Node8</title>
<g id="a_edge9_Node000006_Node000008"><a xlink:title=" ">
<path fill="none" stroke="#63b8ff" d="M712.96,-200.67C706.36,-191.5 699.16,-181.5 693.09,-173.07"/>
<polygon fill="#63b8ff" stroke="#63b8ff" points="710.13,-202.72 718.81,-208.79 715.81,-198.63 710.13,-202.72"/>
</a>
</g>
</g>
<!-- Node8&#45;&gt;Node7 -->
<g id="edge10_Node000008_Node000007" class="edge">
<title>Node8&#45;&gt;Node7</title>
<g id="a_edge10_Node000008_Node000007"><a xlink:title=" ">
<path fill="none" stroke="#63b8ff" d="M646.33,-125.41C633.86,-115.44 620.12,-104.46 609.57,-96.04"/>
<polygon fill="#63b8ff" stroke="#63b8ff" points="644.3,-128.26 654.3,-131.77 648.67,-122.79 644.3,-128.26"/>
</a>
</g>
</g>
<!-- Node9&#45;&gt;Node2 -->
<g id="edge13_Node000009_Node000002" class="edge">
<title>Node9&#45;&gt;Node2</title>
<g id="a_edge13_Node000009_Node000002"><a xlink:title=" ">
<path fill="none" stroke="#63b8ff" d="M250.79,-282.94C218.02,-273 176.58,-260.42 142.49,-250.07"/>
<polygon fill="#63b8ff" stroke="#63b8ff" points="250.07,-286.38 260.66,-285.94 252.11,-279.68 250.07,-286.38"/>
</a>
</g>
</g>
<!-- Node9&#45;&gt;Node6 -->
<g id="edge14_Node000009_Node000006" class="edge">
<title>Node9&#45;&gt;Node6</title>
<g id="a_edge14_Node000009_Node000006"><a xlink:title=" ">
<path fill="none" stroke="#63b8ff" d="M403.23,-284.3C474.15,-272.73 570.06,-257.08 640.17,-245.65"/>
<polygon fill="#63b8ff" stroke="#63b8ff" points="402.26,-280.91 392.95,-285.98 403.38,-287.82 402.26,-280.91"/>
</a>
</g>
</g>
<!-- Node9&#45;&gt;Node10 -->
<g id="edge15_Node000009_Node000010" class="edge">
<title>Node9&#45;&gt;Node10</title>
<g id="a_edge15_Node000009_Node000010"><a xlink:title=" ">
<path fill="none" stroke="#63b8ff" d="M310.94,-275.96C315.63,-247.3 323.4,-199.92 327.76,-173.27"/>
<polygon fill="#63b8ff" stroke="#63b8ff" points="307.46,-275.52 309.3,-285.95 314.37,-276.65 307.46,-275.52"/>
</a>
</g>
</g>
<!-- Node10&#45;&gt;Node3 -->
<g id="edge17_Node000010_Node000003" class="edge">
<title>Node10&#45;&gt;Node3</title>
<g id="a_edge17_Node000010_Node000003"><a xlink:title=" ">
<path fill="none" stroke="#63b8ff" d="M295.23,-125.87C281.19,-115.81 265.62,-104.66 253.7,-96.11"/>
<polygon fill="#63b8ff" stroke="#63b8ff" points="293.55,-128.98 303.72,-131.96 297.63,-123.29 293.55,-128.98"/>
</a>
</g>
</g>
<!-- Node10&#45;&gt;Node7 -->
<g id="edge16_Node000010_Node000007" class="edge">
<title>Node10&#45;&gt;Node7</title>
<g id="a_edge16_Node000010_Node000007"><a xlink:title=" ">
<path fill="none" stroke="#63b8ff" d="M414.13,-129.37C455.19,-118.43 503.51,-105.56 539.41,-96"/>
<polygon fill="#63b8ff" stroke="#63b8ff" points="413.16,-126 404.4,-131.96 414.96,-132.76 413.16,-126"/>
</a>
</g>
</g>
<!-- Node11&#45;&gt;Node5 -->
<g id="edge19_Node000011_Node000005" class="edge">
<title>Node11&#45;&gt;Node5</title>
<g id="a_edge19_Node000011_Node000005"><a xlink:title=" ">
<path fill="none" stroke="#63b8ff" d="M392.24,-212.22C334.25,-198.88 253.04,-180.2 197.91,-167.51"/>
<polygon fill="#63b8ff" stroke="#63b8ff" points="391.53,-215.65 402.06,-214.48 393.1,-208.83 391.53,-215.65"/>
</a>
</g>
</g>
<!-- Node11&#45;&gt;Node8 -->
<g id="edge20_Node000011_Node000008" class="edge">
<title>Node11&#45;&gt;Node8</title>
<g id="a_edge20_Node000011_Node000008"><a xlink:title=" ">
<path fill="none" stroke="#63b8ff" d="M513.18,-211.08C545.89,-199.72 588.63,-184.88 622.53,-173.11"/>
<polygon fill="#63b8ff" stroke="#63b8ff" points="511.67,-207.89 503.37,-214.48 513.97,-214.51 511.67,-207.89"/>
</a>
</g>
</g>
<!-- Node11&#45;&gt;Node12 -->
<g id="edge21_Node000011_Node000012" class="edge">
<title>Node11&#45;&gt;Node12</title>
<g id="a_edge21_Node000011_Node000012"><a xlink:title=" ">
<path fill="none" stroke="#63b8ff" d="M476.18,-205.51C482.11,-195.18 489.02,-183.11 494.7,-173.2"/>
<polygon fill="#63b8ff" stroke="#63b8ff" points="473.03,-203.98 471.09,-214.39 479.1,-207.46 473.03,-203.98"/>
</a>
</g>
</g>
<!-- Node12&#45;&gt;Node3 -->
<g id="edge23_Node000012_Node000003" class="edge">
<title>Node12&#45;&gt;Node3</title>
<g id="a_edge23_Node000012_Node000003"><a xlink:title=" ">
<path fill="none" stroke="#63b8ff" d="M423.03,-130.3C379.47,-119.17 327.3,-105.84 288.82,-96.01"/>
<polygon fill="#63b8ff" stroke="#63b8ff" points="422.2,-133.7 432.75,-132.78 423.93,-126.92 422.2,-133.7"/>
</a>
</g>
</g>
<!-- Node12&#45;&gt;Node7 -->
<g id="edge22_Node000012_Node000007" class="edge">
<title>Node12&#45;&gt;Node7</title>
<g id="a_edge22_Node000012_Node000007"><a xlink:title=" ">
<path fill="none" stroke="#63b8ff" d="M538.29,-125.41C550.62,-115.44 564.21,-104.46 574.63,-96.04"/>
<polygon fill="#63b8ff" stroke="#63b8ff" points="535.99,-122.76 530.41,-131.77 540.39,-128.21 535.99,-122.76"/>
</a>
</g>
</g>
</g>
</svg>
