<?xml version="1.0" encoding="UTF-8" standalone="no"?>
<!DOCTYPE svg PUBLIC "-//W3C//DTD SVG 1.1//EN"
 "http://www.w3.org/Graphics/SVG/1.1/DTD/svg11.dtd">
<!-- Generated by graphviz version 2.43.0 (0)
 -->
<!-- Title: include/Hermes/Socket/_base.hpp Pages: 1 -->
<svg width="844pt" height="401pt"
 viewBox="0.00 0.00 843.50 401.00" xmlns="http://www.w3.org/2000/svg" xmlns:xlink="http://www.w3.org/1999/xlink">
<g id="graph0" class="graph" transform="scale(1 1) rotate(0) translate(4 397)">
<title>include/Hermes/Socket/_base.hpp</title>
<!-- Node1 -->
<g id="Node000001" class="node">
<title>Node1</title>
<g id="a_Node000001"><a xlink:title=" ">
<polygon fill="#999999" stroke="#666666" points="551,-393 423,-393 423,-363 551,-363 551,-393"/>
<text text-anchor="start" x="431" y="-381" font-family="Helvetica,sans-Serif" font-size="10.00">include/Hermes/Socket</text>
<text text-anchor="middle" x="487" y="-370" font-family="Helvetica,sans-Serif" font-size="10.00">/_base.hpp</text>
</a>
</g>
</g>
<!-- Node2 -->
<g id="Node000002" class="node">
<title>Node2</title>
<g id="a_Node000002"><a xlink:href="_default_accept_policy_8hpp.html" target="_top" xlink:title=" ">
<polygon fill="white" stroke="#666666" points="182,-250 0,-250 0,-209 182,-209 182,-250"/>
<text text-anchor="start" x="8" y="-238" font-family="Helvetica,sans-Serif" font-size="10.00">include/Hermes/Socket</text>
<text text-anchor="start" x="8" y="-227" font-family="Helvetica,sans-Serif" font-size="10.00">/Sync/_base/Accept/DefaultAccept</text>
<text text-anchor="middle" x="91" y="-216" font-family="Helvetica,sans-Serif" font-size="10.00">Policy.hpp</text>
</a>
</g>
</g>
<!-- Node1&#45;&gt;Node2 -->
<g id="edge1_Node000001_Node000002" class="edge">
<title>Node1&#45;&gt;Node2</title>
<g id="a_edge1_Node000001_Node000002"><a xlink:title=" ">
<path fill="none" stroke="#63b8ff" d="M412.48,-375.72C351.47,-372.04 264.39,-360.6 196,-327 158.67,-308.66 125.11,-272.83 106.46,-250.37"/>
<polygon fill="#63b8ff" stroke="#63b8ff" points="412.62,-379.24 422.8,-376.29 413.01,-372.25 412.62,-379.24"/>
</a>
</g>
</g>
<!-- Node5 -->
<g id="Node000005" class="node">
<title>Node5</title>
<g id="a_Node000005"><a xlink:href="_tls_accept_policy_8hpp.html" target="_top" xlink:title=" ">
<polygon fill="white" stroke="#666666" points="268.5,-173 107.5,-173 107.5,-132 268.5,-132 268.5,-173"/>
<text text-anchor="start" x="115.5" y="-161" font-family="Helvetica,sans-Serif" font-size="10.00">include/Hermes/Socket</text>
<text text-anchor="start" x="115.5" y="-150" font-family="Helvetica,sans-Serif" font-size="10.00">/Sync/_base/Accept/TlsAccept</text>
<text text-anchor="middle" x="188" y="-139" font-family="Helvetica,sans-Serif" font-size="10.00">Policy.hpp</text>
</a>
</g>
</g>
<!-- Node1&#45;&gt;Node5 -->
<g id="edge6_Node000001_Node000005" class="edge">
<title>Node1&#45;&gt;Node5</title>
<g id="a_edge6_Node000001_Node000005"><a xlink:title=" ">
<path fill="none" stroke="#63b8ff" d="M412.91,-371.5C346.23,-365.02 254.86,-351.83 229,-327 206.95,-305.83 194.52,-214.06 189.99,-173.22"/>
<polygon fill="#63b8ff" stroke="#63b8ff" points="412.69,-375 422.97,-372.45 413.34,-368.03 412.69,-375"/>
</a>
</g>
</g>
<!-- Node6 -->
<g id="Node000006" class="node">
<title>Node6</title>
<g id="a_Node000006"><a xlink:href="_default_connect_policy_8hpp.html" target="_top" xlink:title=" ">
<polygon fill="white" stroke="#666666" points="822,-250 678,-250 678,-209 822,-209 822,-250"/>
<text text-anchor="start" x="686" y="-238" font-family="Helvetica,sans-Serif" font-size="10.00">include/Hermes/Socket</text>
<text text-anchor="start" x="686" y="-227" font-family="Helvetica,sans-Serif" font-size="10.00">/Sync/_base/Connection</text>
<text text-anchor="middle" x="750" y="-216" font-family="Helvetica,sans-Serif" font-size="10.00">/DefaultConnectPolicy.hpp</text>
</a>
</g>
</g>
<!-- Node1&#45;&gt;Node6 -->
<g id="edge7_Node000001_Node000006" class="edge">
<title>Node1&#45;&gt;Node6</title>
<g id="a_edge7_Node000001_Node000006"><a xlink:title=" ">
<path fill="none" stroke="#63b8ff" d="M561.31,-365.77C594.54,-358.37 633.09,-346.34 664,-327 680.65,-316.58 714.72,-275.31 734.62,-250.24"/>
<polygon fill="#63b8ff" stroke="#63b8ff" points="560.24,-362.42 551.19,-367.92 561.7,-369.27 560.24,-362.42"/>
</a>
</g>
</g>
<!-- Node8 -->
<g id="Node000008" class="node">
<title>Node8</title>
<g id="a_Node000008"><a xlink:href="_tls_connect_policy_8hpp.html" target="_top" xlink:title=" ">
<polygon fill="white" stroke="#666666" points="726,-173 594,-173 594,-132 726,-132 726,-173"/>
<text text-anchor="start" x="602" y="-161" font-family="Helvetica,sans-Serif" font-size="10.00">include/Hermes/Socket</text>
<text text-anchor="start" x="602" y="-150" font-family="Helvetica,sans-Serif" font-size="10.00">/Sync/_base/Connection</text>
<text text-anchor="middle" x="660" y="-139" font-family="Helvetica,sans-Serif" font-size="10.00">/TlsConnectPolicy.hpp</text>
</a>
</g>
</g>
<!-- Node1&#45;&gt;Node8 -->
<g id="edge11_Node000001_Node000008" class="edge">
<title>Node1&#45;&gt;Node8</title>
<g id="a_edge11_Node000001_Node000008"><a xlink:title=" ">
<path fill="none" stroke="#63b8ff" d="M530.25,-358.19C545.14,-350.18 561.05,-339.71 573,-327 616.73,-280.47 643.39,-207.76 654.29,-173.12"/>
<polygon fill="#63b8ff" stroke="#63b8ff" points="528.46,-355.18 521.16,-362.86 531.65,-361.41 528.46,-355.18"/>
</a>
</g>
</g>
<!-- Node9 -->
<g id="Node000009" class="node">
<title>Node9</title>
<g id="a_Node000009"><a xlink:href="_default_socket_data_8hpp.html" target="_top" xlink:title=" ">
<polygon fill="white" stroke="#666666" points="410,-327 238,-327 238,-286 410,-286 410,-327"/>
<text text-anchor="start" x="246" y="-315" font-family="Helvetica,sans-Serif" font-size="10.00">include/Hermes/Socket</text>
<text text-anchor="start" x="246" y="-304" font-family="Helvetica,sans-Serif" font-size="10.00">/Sync/_base/Data/DefaultSocket</text>
<text text-anchor="middle" x="324" y="-293" font-family="Helvetica,sans-Serif" font-size="10.00">Data.hpp</text>
</a>
</g>
</g>
<!-- Node1&#45;&gt;Node9 -->
<g id="edge12_Node000001_Node000009" class="edge">
<title>Node1&#45;&gt;Node9</title>
<g id="a_edge12_Node000001_Node000009"><a xlink:title=" ">
<path fill="none" stroke="#63b8ff" d="M444.55,-358.9C421.64,-349.13 393.33,-337.06 369.91,-327.07"/>
<polygon fill="#63b8ff" stroke="#63b8ff" points="443.44,-362.23 454.01,-362.94 446.19,-355.79 443.44,-362.23"/>
</a>
</g>
</g>
<!-- Node10 -->
<g id="Node000010" class="node">
<title>Node10</title>
<g id="a_Node000010"><a xlink:href="_default_transfer_policy_8hpp.html" target="_top" xlink:title=" ">
<polygon fill="white" stroke="#666666" points="429.5,-173 286.5,-173 286.5,-132 429.5,-132 429.5,-173"/>
<text text-anchor="start" x="294.5" y="-161" font-family="Helvetica,sans-Serif" font-size="10.00">include/Hermes/Socket</text>
<text text-anchor="start" x="294.5" y="-150" font-family="Helvetica,sans-Serif" font-size="10.00">/Sync/_base/Transfer</text>
<text text-anchor="middle" x="358" y="-139" font-family="Helvetica,sans-Serif" font-size="10.00">/DefaultTransferPolicy.hpp</text>
</a>
</g>
</g>
<!-- Node1&#45;&gt;Node10 -->
<g id="edge24_Node000001_Node000010" class="edge">
<title>Node1&#45;&gt;Node10</title>
<g id="a_edge24_Node000001_Node000010"><a xlink:title=" ">
<path fill="none" stroke="#63b8ff" d="M471.85,-354.56C458.69,-335.62 438.69,-308.13 419,-286 403.54,-268.62 392.62,-270.15 381,-250 367.06,-225.83 361.55,-193.61 359.39,-173.2"/>
<polygon fill="#63b8ff" stroke="#63b8ff" points="469.01,-356.61 477.56,-362.86 474.77,-352.64 469.01,-356.61"/>
</a>
</g>
</g>
<!-- Node11 -->
<g id="Node000011" class="node">
<title>Node11</title>
<g id="a_Node000011"><a xlink:href="_tls_socket_data_8hpp.html" target="_top" xlink:title=" ">
<polygon fill="white" stroke="#666666" points="584,-244.5 390,-244.5 390,-214.5 584,-214.5 584,-244.5"/>
<text text-anchor="start" x="398" y="-232.5" font-family="Helvetica,sans-Serif" font-size="10.00">include/Hermes/Socket</text>
<text text-anchor="middle" x="487" y="-221.5" font-family="Helvetica,sans-Serif" font-size="10.00">/Sync/_base/Data/TlsSocketData.hpp</text>
</a>
</g>
</g>
<!-- Node1&#45;&gt;Node11 -->
<g id="edge18_Node000001_Node000011" class="edge">
<title>Node1&#45;&gt;Node11</title>
<g id="a_edge18_Node000001_Node000011"><a xlink:title=" ">
<path fill="none" stroke="#63b8ff" d="M487,-352.65C487,-321.82 487,-269.72 487,-244.72"/>
<polygon fill="#63b8ff" stroke="#63b8ff" points="483.5,-352.95 487,-362.95 490.5,-352.95 483.5,-352.95"/>
</a>
</g>
</g>
<!-- Node12 -->
<g id="Node000012" class="node">
<title>Node12</title>
<g id="a_Node000012"><a xlink:href="_tls_transfer_policy_8hpp.html" target="_top" xlink:title=" ">
<polygon fill="white" stroke="#666666" points="576,-173 448,-173 448,-132 576,-132 576,-173"/>
<text text-anchor="start" x="456" y="-161" font-family="Helvetica,sans-Serif" font-size="10.00">include/Hermes/Socket</text>
<text text-anchor="start" x="456" y="-150" font-family="Helvetica,sans-Serif" font-size="10.00">/Sync/_base/Transfer</text>
<text text-anchor="middle" x="512" y="-139" font-family="Helvetica,sans-Serif" font-size="10.00">/TlsTransferPolicy.hpp</text>
</a>
</g>
</g>
<!-- Node1&#45;&gt;Node12 -->
<g id="edge25_Node000001_Node000012" class="edge">
<title>Node1&#45;&gt;Node12</title>
<g id="a_edge25_Node000001_Node000012"><a xlink:title=" ">
<path fill="none" stroke="#63b8ff" d="M512.43,-356.37C538.38,-333.52 577.03,-294.04 593,-250 599.21,-232.87 601.5,-225.12 593,-209 584.97,-193.77 570.67,-181.92 556.3,-173.15"/>
<polygon fill="#63b8ff" stroke="#63b8ff" points="510.12,-353.74 504.82,-362.92 514.69,-359.05 510.12,-353.74"/>
</a>
</g>
</g>
<!-- Node13 -->
<g id="Node000013" class="node">
<title>Node13</title>
<g id="a_Node000013"><a xlink:href="_to_bytes_8hpp.html" target="_top" xlink:title=" ">
<polygon fill="white" stroke="#666666" points="835.5,-321.5 716.5,-321.5 716.5,-291.5 835.5,-291.5 835.5,-321.5"/>
<text text-anchor="start" x="724.5" y="-309.5" font-family="Helvetica,sans-Serif" font-size="10.00">include/Hermes/Utils</text>
<text text-anchor="middle" x="776" y="-298.5" font-family="Helvetica,sans-Serif" font-size="10.00">/ToBytes.hpp</text>
</a>
</g>
</g>
<!-- Node1&#45;&gt;Node13 -->
<g id="edge26_Node000001_Node000013" class="edge">
<title>Node1&#45;&gt;Node13</title>
<g id="a_edge26_Node000001_Node000013"><a xlink:title=" ">
<path fill="none" stroke="#63b8ff" d="M559.48,-360.7C601.23,-351.17 654.65,-338.74 702,-327 708.96,-325.27 716.28,-323.41 723.5,-321.54"/>
<polygon fill="#63b8ff" stroke="#63b8ff" points="558.65,-357.3 549.68,-362.93 560.21,-364.12 558.65,-357.3"/>
</a>
</g>
</g>
<!-- Node3 -->
<g id="Node000003" class="node">
<title>Node3</title>
<g id="a_Node000003"><a xlink:href="_server_socket_8hpp.html" target="_top" xlink:title=" ">
<polygon fill="white" stroke="#666666" points="338.5,-96 207.5,-96 207.5,-66 338.5,-66 338.5,-96"/>
<text text-anchor="start" x="215.5" y="-84" font-family="Helvetica,sans-Serif" font-size="10.00">include/Hermes/Socket</text>
<text text-anchor="middle" x="273" y="-73" font-family="Helvetica,sans-Serif" font-size="10.00">/Sync/ServerSocket.hpp</text>
</a>
</g>
</g>
<!-- Node2&#45;&gt;Node3 -->
<g id="edge2_Node000002_Node000003" class="edge">
<title>Node2&#45;&gt;Node3</title>
<g id="a_edge2_Node000002_Node000003"><a xlink:title=" ">
<path fill="none" stroke="#63b8ff" d="M84.93,-198.77C82.45,-177.85 83.05,-150.4 98,-132 112.05,-114.71 163.71,-101.3 207.29,-92.74"/>
<polygon fill="#63b8ff" stroke="#63b8ff" points="81.48,-199.36 86.4,-208.74 88.41,-198.34 81.48,-199.36"/>
</a>
</g>
</g>
<!-- Node2&#45;&gt;Node5 -->
<g id="edge4_Node000002_Node000005" class="edge">
<title>Node2&#45;&gt;Node5</title>
<g id="a_edge4_Node000002_Node000005"><a xlink:title=" ">
<path fill="none" stroke="#63b8ff" d="M124.22,-202.82C136.77,-193.11 150.83,-182.24 162.56,-173.17"/>
<polygon fill="#63b8ff" stroke="#63b8ff" points="122,-200.1 116.23,-208.99 126.28,-205.64 122,-200.1"/>
</a>
</g>
</g>
<!-- Node4 -->
<g id="Node000004" class="node">
<title>Node4</title>
<g id="a_Node000004"><a xlink:href="_listener_socket_8hpp.html" target="_top" xlink:title=" ">
<polygon fill="white" stroke="#666666" points="342,-30 204,-30 204,0 342,0 342,-30"/>
<text text-anchor="start" x="212" y="-18" font-family="Helvetica,sans-Serif" font-size="10.00">include/Hermes/Socket</text>
<text text-anchor="middle" x="273" y="-7" font-family="Helvetica,sans-Serif" font-size="10.00">/Sync/ListenerSocket.hpp</text>
</a>
</g>
</g>
<!-- Node3&#45;&gt;Node4 -->
<g id="edge3_Node000003_Node000004" class="edge">
<title>Node3&#45;&gt;Node4</title>
<g id="a_edge3_Node000003_Node000004"><a xlink:title=" ">
<path fill="none" stroke="#63b8ff" d="M273,-55.54C273,-46.96 273,-37.61 273,-30.16"/>
<polygon fill="#63b8ff" stroke="#63b8ff" points="269.5,-55.8 273,-65.8 276.5,-55.8 269.5,-55.8"/>
</a>
</g>
</g>
<!-- Node5&#45;&gt;Node3 -->
<g id="edge5_Node000005_Node000003" class="edge">
<title>Node5&#45;&gt;Node3</title>
<g id="a_edge5_Node000005_Node000003"><a xlink:title=" ">
<path fill="none" stroke="#63b8ff" d="M219.91,-125.41C232.1,-115.44 245.53,-104.46 255.83,-96.04"/>
<polygon fill="#63b8ff" stroke="#63b8ff" points="217.66,-122.73 212.13,-131.77 222.09,-128.15 217.66,-122.73"/>
</a>
</g>
</g>
<!-- Node7 -->
<g id="Node000007" class="node">
<title>Node7</title>
<g id="a_Node000007"><a xlink:href="_client_socket_8hpp.html" target="_top" xlink:title=" ">
<polygon fill="white" stroke="#666666" points="650,-96 522,-96 522,-66 650,-66 650,-96"/>
<text text-anchor="start" x="530" y="-84" font-family="Helvetica,sans-Serif" font-size="10.00">include/Hermes/Socket</text>
<text text-anchor="middle" x="586" y="-73" font-family="Helvetica,sans-Serif" font-size="10.00">/Sync/ClientSocket.hpp</text>
</a>
</g>
</g>
<!-- Node6&#45;&gt;Node7 -->
<g id="edge8_Node000006_Node000007" class="edge">
<title>Node6&#45;&gt;Node7</title>
<g id="a_edge8_Node000006_Node000007"><a xlink:title=" ">
<path fill="none" stroke="#63b8ff" d="M752.97,-198.42C753.38,-177.5 750.36,-150.21 735,-132 714.07,-107.18 680.4,-94.63 650.36,-88.31"/>
<polygon fill="#63b8ff" stroke="#63b8ff" points="749.46,-198.54 752.5,-208.69 756.46,-198.87 749.46,-198.54"/>
</a>
</g>
</g>
<!-- Node6&#45;&gt;Node8 -->
<g id="edge9_Node000006_Node000008" class="edge">
<title>Node6&#45;&gt;Node8</title>
<g id="a_edge9_Node000006_Node000008"><a xlink:title=" ">
<path fill="none" stroke="#63b8ff" d="M718.62,-202.35C707.08,-192.73 694.22,-182.01 683.49,-173.07"/>
<polygon fill="#63b8ff" stroke="#63b8ff" points="716.43,-205.08 726.35,-208.79 720.91,-199.7 716.43,-205.08"/>
</a>
</g>
</g>
<!-- Node8&#45;&gt;Node7 -->
<g id="edge10_Node000008_Node000007" class="edge">
<title>Node8&#45;&gt;Node7</title>
<g id="a_edge10_Node000008_Node000007"><a xlink:title=" ">
<path fill="none" stroke="#63b8ff" d="M631.61,-124.83C621.16,-115.02 609.74,-104.3 600.95,-96.04"/>
<polygon fill="#63b8ff" stroke="#63b8ff" points="629.31,-127.48 638.99,-131.77 634.1,-122.37 629.31,-127.48"/>
</a>
</g>
</g>
<!-- Node9&#45;&gt;Node2 -->
<g id="edge13_Node000009_Node000002" class="edge">
<title>Node9&#45;&gt;Node2</title>
<g id="a_edge13_Node000009_Node000002"><a xlink:title=" ">
<path fill="none" stroke="#63b8ff" d="M253.51,-282.81C221.04,-272.36 182.89,-260.08 151.71,-250.04"/>
<polygon fill="#63b8ff" stroke="#63b8ff" points="252.8,-286.26 263.39,-285.99 254.94,-279.59 252.8,-286.26"/>
</a>
</g>
</g>
<!-- Node9&#45;&gt;Node6 -->
<g id="edge14_Node000009_Node000006" class="edge">
<title>Node9&#45;&gt;Node6</title>
<g id="a_edge14_Node000009_Node000006"><a xlink:title=" ">
<path fill="none" stroke="#63b8ff" d="M420.06,-288.59C498.21,-274.83 606.8,-255.71 677.72,-243.22"/>
<polygon fill="#63b8ff" stroke="#63b8ff" points="419.45,-285.14 410.21,-290.32 420.66,-292.04 419.45,-285.14"/>
</a>
</g>
</g>
<!-- Node9&#45;&gt;Node10 -->
<g id="edge15_Node000009_Node000010" class="edge">
<title>Node9&#45;&gt;Node10</title>
<g id="a_edge15_Node000009_Node000010"><a xlink:title=" ">
<path fill="none" stroke="#63b8ff" d="M330.6,-275.98C337.36,-245.76 347.68,-199.64 353.53,-173.47"/>
<polygon fill="#63b8ff" stroke="#63b8ff" points="327.14,-275.42 328.38,-285.94 333.97,-276.95 327.14,-275.42"/>
</a>
</g>
</g>
<!-- Node10&#45;&gt;Node3 -->
<g id="edge17_Node000010_Node000003" class="edge">
<title>Node10&#45;&gt;Node3</title>
<g id="a_edge17_Node000010_Node000003"><a xlink:title=" ">
<path fill="none" stroke="#63b8ff" d="M326.09,-125.41C313.9,-115.44 300.47,-104.46 290.17,-96.04"/>
<polygon fill="#63b8ff" stroke="#63b8ff" points="323.91,-128.15 333.87,-131.77 328.34,-122.73 323.91,-128.15"/>
</a>
</g>
</g>
<!-- Node10&#45;&gt;Node7 -->
<g id="edge16_Node000010_Node000007" class="edge">
<title>Node10&#45;&gt;Node7</title>
<g id="a_edge16_Node000010_Node000007"><a xlink:title=" ">
<path fill="none" stroke="#63b8ff" d="M431.98,-128.95C467.56,-118.1 509.09,-105.44 540.06,-96"/>
<polygon fill="#63b8ff" stroke="#63b8ff" points="430.66,-125.69 422.12,-131.96 432.7,-132.39 430.66,-125.69"/>
</a>
</g>
</g>
<!-- Node11&#45;&gt;Node5 -->
<g id="edge19_Node000011_Node000005" class="edge">
<title>Node11&#45;&gt;Node5</title>
<g id="a_edge19_Node000011_Node000005"><a xlink:title=" ">
<path fill="none" stroke="#63b8ff" d="M421.29,-212.02C375.48,-200.53 314.16,-185.15 265.89,-173.04"/>
<polygon fill="#63b8ff" stroke="#63b8ff" points="420.56,-215.44 431.11,-214.48 422.26,-208.65 420.56,-215.44"/>
</a>
</g>
</g>
<!-- Node11&#45;&gt;Node8 -->
<g id="edge20_Node000011_Node000008" class="edge">
<title>Node11&#45;&gt;Node8</title>
<g id="a_edge20_Node000011_Node000008"><a xlink:title=" ">
<path fill="none" stroke="#63b8ff" d="M528.76,-210.4C554.78,-199.12 588.25,-184.61 614.88,-173.06"/>
<polygon fill="#63b8ff" stroke="#63b8ff" points="527.32,-207.2 519.54,-214.39 530.11,-213.63 527.32,-207.2"/>
</a>
</g>
</g>
<!-- Node11&#45;&gt;Node12 -->
<g id="edge21_Node000011_Node000012" class="edge">
<title>Node11&#45;&gt;Node12</title>
<g id="a_edge21_Node000011_Node000012"><a xlink:title=" ">
<path fill="none" stroke="#63b8ff" d="M494.88,-204.87C498.27,-194.69 502.2,-182.91 505.43,-173.2"/>
<polygon fill="#63b8ff" stroke="#63b8ff" points="491.54,-203.8 491.7,-214.39 498.19,-206.01 491.54,-203.8"/>
</a>
</g>
</g>
<!-- Node12&#45;&gt;Node3 -->
<g id="edge23_Node000012_Node000003" class="edge">
<title>Node12&#45;&gt;Node3</title>
<g id="a_edge23_Node000012_Node000003"><a xlink:title=" ">
<path fill="none" stroke="#63b8ff" d="M437.95,-129.97C399.96,-118.92 354.76,-105.78 321.29,-96.04"/>
<polygon fill="#63b8ff" stroke="#63b8ff" points="437.37,-133.44 447.95,-132.88 439.33,-126.72 437.37,-133.44"/>
</a>
</g>
</g>
<!-- Node12&#45;&gt;Node7 -->
<g id="edge22_Node000012_Node000007" class="edge">
<title>Node12&#45;&gt;Node7</title>
<g id="a_edge22_Node000012_Node000007"><a xlink:title=" ">
<path fill="none" stroke="#63b8ff" d="M540.39,-124.83C550.84,-115.02 562.26,-104.3 571.05,-96.04"/>
<polygon fill="#63b8ff" stroke="#63b8ff" points="537.9,-122.37 533.01,-131.77 542.69,-127.48 537.9,-122.37"/>
</a>
</g>
</g>
</g>
</svg>
