<?xml version="1.0" encoding="UTF-8" standalone="no"?>
<!DOCTYPE svg PUBLIC "-//W3C//DTD SVG 1.1//EN"
 "http://www.w3.org/Graphics/SVG/1.1/DTD/svg11.dtd">
<!-- Generated by graphviz version 2.43.0 (0)
 -->
<!-- Title: include/Hermes/Socket/_base.hpp Pages: 1 -->
<svg width="3718pt" height="302pt"
 viewBox="0.00 0.00 3718.00 302.00" xmlns="http://www.w3.org/2000/svg" xmlns:xlink="http://www.w3.org/1999/xlink">
<g id="graph0" class="graph" transform="scale(1 1) rotate(0) translate(4 298)">
<title>include/Hermes/Socket/_base.hpp</title>
<!-- Node1 -->
<g id="Node000001" class="node">
<title>Node1</title>
<g id="a_Node000001"><a xlink:title=" ">
<polygon fill="#999999" stroke="#666666" points="381,-294 253,-294 253,-264 381,-264 381,-294"/>
<text text-anchor="start" x="261" y="-282" font-family="Helvetica,sans-Serif" font-size="10.00">include/Hermes/Socket</text>
<text text-anchor="middle" x="317" y="-271" font-family="Helvetica,sans-Serif" font-size="10.00">/_base.hpp</text>
</a>
</g>
</g>
<!-- Node2 -->
<g id="Node000002" class="node">
<title>Node2</title>
<g id="a_Node000002"><a xlink:href="_endpoint_concept_8hpp.html" target="_top" xlink:title=" ">
<polygon fill="white" stroke="#666666" points="326,-228 194,-228 194,-198 326,-198 326,-228"/>
<text text-anchor="start" x="202" y="-216" font-family="Helvetica,sans-Serif" font-size="10.00">Hermes/Endpoint/_base</text>
<text text-anchor="middle" x="260" y="-205" font-family="Helvetica,sans-Serif" font-size="10.00">/EndpointConcept.hpp</text>
</a>
</g>
</g>
<!-- Node1&#45;&gt;Node2 -->
<g id="edge1_Node000001_Node000002" class="edge">
<title>Node1&#45;&gt;Node2</title>
<g id="a_edge1_Node000001_Node000002"><a xlink:title=" ">
<path fill="none" stroke="#63b8ff" d="M304.35,-263.8C297.04,-255.59 287.7,-245.1 279.48,-235.87"/>
<polygon fill="#63b8ff" stroke="#63b8ff" points="281.88,-233.3 272.61,-228.16 276.65,-237.96 281.88,-233.3"/>
</a>
</g>
</g>
<!-- Node3 -->
<g id="Node000003" class="node">
<title>Node3</title>
<g id="a_Node000003"><a xlink:href="_connection_error_enum_8hpp.html" target="_top" xlink:title=" ">
<polygon fill="white" stroke="#666666" points="249.5,-162 82.5,-162 82.5,-132 249.5,-132 249.5,-162"/>
<text text-anchor="start" x="90.5" y="-150" font-family="Helvetica,sans-Serif" font-size="10.00">Hermes/_base/ConnectionError</text>
<text text-anchor="middle" x="166" y="-139" font-family="Helvetica,sans-Serif" font-size="10.00">Enum.hpp</text>
</a>
</g>
</g>
<!-- Node1&#45;&gt;Node3 -->
<g id="edge49_Node000001_Node000003" class="edge">
<title>Node1&#45;&gt;Node3</title>
<g id="a_edge49_Node000001_Node000003"><a xlink:title=" ">
<path fill="none" stroke="#63b8ff" d="M252.83,-267.02C228.45,-259.77 202.39,-247.79 185,-228 171.58,-212.73 167.21,-189.68 165.98,-172.24"/>
<polygon fill="#63b8ff" stroke="#63b8ff" points="169.47,-172.08 165.56,-162.23 162.48,-172.37 169.47,-172.08"/>
</a>
</g>
</g>
<!-- Node35 -->
<g id="Node000035" class="node">
<title>Node35</title>
<g id="a_Node000035"><a xlink:title=" ">
<polygon fill="#e0e0e0" stroke="#999999" points="404,-222.5 344,-222.5 344,-203.5 404,-203.5 404,-222.5"/>
<text text-anchor="middle" x="374" y="-210.5" font-family="Helvetica,sans-Serif" font-size="10.00">concepts</text>
</a>
</g>
</g>
<!-- Node1&#45;&gt;Node35 -->
<g id="edge50_Node000001_Node000035" class="edge">
<title>Node1&#45;&gt;Node35</title>
<g id="a_edge50_Node000001_Node000035"><a xlink:title=" ">
<path fill="none" stroke="#63b8ff" d="M329.65,-263.8C338.45,-253.92 350.2,-240.72 359.4,-230.39"/>
<polygon fill="#63b8ff" stroke="#63b8ff" points="362.09,-232.64 366.12,-222.84 356.86,-227.98 362.09,-232.64"/>
</a>
</g>
</g>
<!-- Node36 -->
<g id="Node000036" class="node">
<title>Node36</title>
<g id="a_Node000036"><a xlink:title=" ">
<polygon fill="#e0e0e0" stroke="#999999" points="472,-222.5 422,-222.5 422,-203.5 472,-203.5 472,-222.5"/>
<text text-anchor="middle" x="447" y="-210.5" font-family="Helvetica,sans-Serif" font-size="10.00">ranges</text>
</a>
</g>
</g>
<!-- Node1&#45;&gt;Node36 -->
<g id="edge51_Node000001_Node000036" class="edge">
<title>Node1&#45;&gt;Node36</title>
<g id="a_edge51_Node000001_Node000036"><a xlink:title=" ">
<path fill="none" stroke="#63b8ff" d="M345.53,-263.95C367.93,-252.93 398.86,-237.7 420.67,-226.96"/>
<polygon fill="#63b8ff" stroke="#63b8ff" points="422.27,-230.07 429.7,-222.52 419.18,-223.79 422.27,-230.07"/>
</a>
</g>
</g>
<!-- Node2&#45;&gt;Node3 -->
<g id="edge2_Node000002_Node000003" class="edge">
<title>Node2&#45;&gt;Node3</title>
<g id="a_edge2_Node000002_Node000003"><a xlink:title=" ">
<path fill="none" stroke="#63b8ff" d="M239.14,-197.8C226.24,-189.01 209.49,-177.61 195.27,-167.93"/>
<polygon fill="#63b8ff" stroke="#63b8ff" points="197.04,-164.9 186.8,-162.16 193.1,-170.69 197.04,-164.9"/>
</a>
</g>
</g>
<!-- Node8 -->
<g id="Node000008" class="node">
<title>Node8</title>
<g id="a_Node000008"><a xlink:href="_win_api_8hpp.html" target="_top" xlink:title=" ">
<polygon fill="white" stroke="#666666" points="1703,-162 1579,-162 1579,-132 1703,-132 1703,-162"/>
<text text-anchor="start" x="1587" y="-150" font-family="Helvetica,sans-Serif" font-size="10.00">Hermes/_base/WinApi</text>
<text text-anchor="middle" x="1641" y="-139" font-family="Helvetica,sans-Serif" font-size="10.00">/WinApi.hpp</text>
</a>
</g>
</g>
<!-- Node2&#45;&gt;Node8 -->
<g id="edge7_Node000002_Node000008" class="edge">
<title>Node2&#45;&gt;Node8</title>
<g id="a_edge7_Node000002_Node000008"><a xlink:title=" ">
<path fill="none" stroke="#63b8ff" d="M326.17,-199.1C329.15,-198.7 332.1,-198.32 335,-198 576.91,-170.94 1330.73,-154.12 1568.43,-149.38"/>
<polygon fill="#63b8ff" stroke="#63b8ff" points="1568.76,-152.87 1578.69,-149.18 1568.62,-145.87 1568.76,-152.87"/>
</a>
</g>
</g>
<!-- Node4 -->
<g id="Node000004" class="node">
<title>Node4</title>
<g id="a_Node000004"><a xlink:title=" ">
<polygon fill="#e0e0e0" stroke="#999999" points="62,-85 0,-85 0,-66 62,-66 62,-85"/>
<text text-anchor="middle" x="31" y="-73" font-family="Helvetica,sans-Serif" font-size="10.00">expected</text>
</a>
</g>
</g>
<!-- Node3&#45;&gt;Node4 -->
<g id="edge3_Node000003_Node000004" class="edge">
<title>Node3&#45;&gt;Node4</title>
<g id="a_edge3_Node000003_Node000004"><a xlink:title=" ">
<path fill="none" stroke="#63b8ff" d="M138.68,-131.94C114.71,-119.59 80.11,-101.78 56.65,-89.7"/>
<polygon fill="#63b8ff" stroke="#63b8ff" points="58.14,-86.53 47.64,-85.07 54.93,-92.76 58.14,-86.53"/>
</a>
</g>
</g>
<!-- Node5 -->
<g id="Node000005" class="node">
<title>Node5</title>
<g id="a_Node000005"><a xlink:title=" ">
<polygon fill="#e0e0e0" stroke="#999999" points="127.5,-85 80.5,-85 80.5,-66 127.5,-66 127.5,-85"/>
<text text-anchor="middle" x="104" y="-73" font-family="Helvetica,sans-Serif" font-size="10.00">vector</text>
</a>
</g>
</g>
<!-- Node3&#45;&gt;Node5 -->
<g id="edge4_Node000003_Node000005" class="edge">
<title>Node3&#45;&gt;Node5</title>
<g id="a_edge4_Node000003_Node000005"><a xlink:title=" ">
<path fill="none" stroke="#63b8ff" d="M153.45,-131.94C143.33,-120.59 129.09,-104.62 118.48,-92.74"/>
<polygon fill="#63b8ff" stroke="#63b8ff" points="121.09,-90.4 111.82,-85.27 115.87,-95.06 121.09,-90.4"/>
</a>
</g>
</g>
<!-- Node6 -->
<g id="Node000006" class="node">
<title>Node6</title>
<g id="a_Node000006"><a xlink:title=" ">
<polygon fill="#e0e0e0" stroke="#999999" points="186,-85 146,-85 146,-66 186,-66 186,-85"/>
<text text-anchor="middle" x="166" y="-73" font-family="Helvetica,sans-Serif" font-size="10.00">span</text>
</a>
</g>
</g>
<!-- Node3&#45;&gt;Node6 -->
<g id="edge5_Node000003_Node000006" class="edge">
<title>Node3&#45;&gt;Node6</title>
<g id="a_edge5_Node000003_Node000006"><a xlink:title=" ">
<path fill="none" stroke="#63b8ff" d="M166,-131.94C166,-121.46 166,-107.05 166,-95.55"/>
<polygon fill="#63b8ff" stroke="#63b8ff" points="169.5,-95.27 166,-85.27 162.5,-95.27 169.5,-95.27"/>
</a>
</g>
</g>
<!-- Node7 -->
<g id="Node000007" class="node">
<title>Node7</title>
<g id="a_Node000007"><a xlink:title=" ">
<polygon fill="#e0e0e0" stroke="#999999" points="370.5,-90.5 203.5,-90.5 203.5,-60.5 370.5,-60.5 370.5,-90.5"/>
<text text-anchor="start" x="211.5" y="-78.5" font-family="Helvetica,sans-Serif" font-size="10.00">Hermes\_base\ConnectionError</text>
<text text-anchor="middle" x="287" y="-67.5" font-family="Helvetica,sans-Serif" font-size="10.00">Enum.tpp</text>
</a>
</g>
</g>
<!-- Node3&#45;&gt;Node7 -->
<g id="edge6_Node000003_Node000007" class="edge">
<title>Node3&#45;&gt;Node7</title>
<g id="a_edge6_Node000003_Node000007"><a xlink:title=" ">
<path fill="none" stroke="#63b8ff" d="M190.49,-131.94C208.69,-121.48 233.74,-107.09 253.75,-95.6"/>
<polygon fill="#63b8ff" stroke="#63b8ff" points="255.62,-98.56 262.55,-90.54 252.14,-92.49 255.62,-98.56"/>
</a>
</g>
</g>
<!-- Node9 -->
<g id="Node000009" class="node">
<title>Node9</title>
<g id="a_Node000009"><a xlink:title=" ">
<polygon fill="#e0e0e0" stroke="#999999" points="457.5,-85 388.5,-85 388.5,-66 457.5,-66 457.5,-85"/>
<text text-anchor="middle" x="423" y="-73" font-family="Helvetica,sans-Serif" font-size="10.00">ws2tcpip.h</text>
</a>
</g>
</g>
<!-- Node8&#45;&gt;Node9 -->
<g id="edge8_Node000008_Node000009" class="edge">
<title>Node8&#45;&gt;Node9</title>
<g id="a_edge8_Node000008_Node000009"><a xlink:title=" ">
<path fill="none" stroke="#63b8ff" d="M1578.92,-146.08C1368.89,-145.92 686.16,-141.81 472,-96 464.49,-94.39 456.64,-91.75 449.48,-88.91"/>
<polygon fill="#63b8ff" stroke="#63b8ff" points="450.82,-85.68 440.24,-85.01 448.1,-92.13 450.82,-85.68"/>
</a>
</g>
</g>
<!-- Node10 -->
<g id="Node000010" class="node">
<title>Node10</title>
<g id="a_Node000010"><a xlink:title=" ">
<polygon fill="#e0e0e0" stroke="#999999" points="640.5,-19 569.5,-19 569.5,0 640.5,0 640.5,-19"/>
<text text-anchor="middle" x="605" y="-7" font-family="Helvetica,sans-Serif" font-size="10.00">winsock2.h</text>
</a>
</g>
</g>
<!-- Node8&#45;&gt;Node10 -->
<g id="edge9_Node000008_Node000010" class="edge">
<title>Node8&#45;&gt;Node10</title>
<g id="a_edge9_Node000008_Node000010"><a xlink:title=" ">
<path fill="none" stroke="#63b8ff" d="M1578.81,-145.55C1350.03,-143.59 566.44,-134.12 530,-96 517.41,-82.83 520.98,-70.83 530,-55 538.3,-40.43 553.45,-30.14 567.98,-23.15"/>
<polygon fill="#63b8ff" stroke="#63b8ff" points="569.61,-26.25 577.35,-19.02 566.79,-19.85 569.61,-26.25"/>
</a>
</g>
</g>
<!-- Node11 -->
<g id="Node000011" class="node">
<title>Node11</title>
<g id="a_Node000011"><a xlink:title=" ">
<polygon fill="#e0e0e0" stroke="#999999" points="846.5,-19 777.5,-19 777.5,0 846.5,0 846.5,-19"/>
<text text-anchor="middle" x="812" y="-7" font-family="Helvetica,sans-Serif" font-size="10.00">schannel.h</text>
</a>
</g>
</g>
<!-- Node8&#45;&gt;Node11 -->
<g id="edge10_Node000008_Node000011" class="edge">
<title>Node8&#45;&gt;Node11</title>
<g id="a_edge10_Node000008_Node000011"><a xlink:title=" ">
<path fill="none" stroke="#63b8ff" d="M1578.76,-145.51C1351.66,-143.44 578.96,-133.64 543,-96 530.41,-82.83 531.21,-68.9 543,-55 571.21,-21.74 698.21,-13.3 767.14,-11.19"/>
<polygon fill="#63b8ff" stroke="#63b8ff" points="767.38,-14.68 777.28,-10.91 767.19,-7.69 767.38,-14.68"/>
</a>
</g>
</g>
<!-- Node12 -->
<g id="Node000012" class="node">
<title>Node12</title>
<g id="a_Node000012"><a xlink:title=" ">
<polygon fill="#e0e0e0" stroke="#999999" points="1663.5,-19 1618.5,-19 1618.5,0 1663.5,0 1663.5,-19"/>
<text text-anchor="middle" x="1641" y="-7" font-family="Helvetica,sans-Serif" font-size="10.00">sspi.h</text>
</a>
</g>
</g>
<!-- Node8&#45;&gt;Node12 -->
<g id="edge11_Node000008_Node000012" class="edge">
<title>Node8&#45;&gt;Node12</title>
<g id="a_edge11_Node000008_Node000012"><a xlink:title=" ">
<path fill="none" stroke="#63b8ff" d="M1578.78,-146.8C1485.73,-146.51 1317.14,-139.77 1279,-96 1267.03,-82.26 1266.93,-68.65 1279,-55 1300.68,-30.5 1523.27,-16.55 1608.26,-12.09"/>
<polygon fill="#63b8ff" stroke="#63b8ff" points="1608.58,-15.58 1618.38,-11.57 1608.22,-8.59 1608.58,-15.58"/>
</a>
</g>
</g>
<!-- Node13 -->
<g id="Node000013" class="node">
<title>Node13</title>
<g id="a_Node000013"><a xlink:href="_conversion_and_literals_8hpp.html" target="_top" xlink:title=" ">
<polygon fill="white" stroke="#666666" points="2525,-90.5 2375,-90.5 2375,-60.5 2525,-60.5 2525,-90.5"/>
<text text-anchor="start" x="2383" y="-78.5" font-family="Helvetica,sans-Serif" font-size="10.00">Hermes/_base/WinApi</text>
<text text-anchor="middle" x="2450" y="-67.5" font-family="Helvetica,sans-Serif" font-size="10.00">/ConversionAndLiterals.hpp</text>
</a>
</g>
</g>
<!-- Node8&#45;&gt;Node13 -->
<g id="edge12_Node000008_Node000013" class="edge">
<title>Node8&#45;&gt;Node13</title>
<g id="a_edge12_Node000008_Node000013"><a xlink:title=" ">
<path fill="none" stroke="#63b8ff" d="M1703.43,-145.04C1829.39,-142.36 2122.68,-132.4 2366,-96 2372.22,-95.07 2378.66,-93.92 2385.08,-92.65"/>
<polygon fill="#63b8ff" stroke="#63b8ff" points="2386.04,-96.02 2395.12,-90.56 2384.61,-89.17 2386.04,-96.02"/>
</a>
</g>
</g>
<!-- Node15 -->
<g id="Node000015" class="node">
<title>Node15</title>
<g id="a_Node000015"><a xlink:href="_macros_8hpp.html" target="_top" xlink:title=" ">
<polygon fill="white" stroke="#666666" points="1232,-90.5 1108,-90.5 1108,-60.5 1232,-60.5 1232,-90.5"/>
<text text-anchor="start" x="1116" y="-78.5" font-family="Helvetica,sans-Serif" font-size="10.00">Hermes/_base/WinApi</text>
<text text-anchor="middle" x="1170" y="-67.5" font-family="Helvetica,sans-Serif" font-size="10.00">/Macros.hpp</text>
</a>
</g>
</g>
<!-- Node8&#45;&gt;Node15 -->
<g id="edge14_Node000008_Node000015" class="edge">
<title>Node8&#45;&gt;Node15</title>
<g id="a_edge14_Node000008_Node000015"><a xlink:title=" ">
<path fill="none" stroke="#63b8ff" d="M1578.71,-140.55C1500.55,-133.15 1362.62,-118.25 1246,-96 1241.23,-95.09 1236.32,-94.06 1231.4,-92.95"/>
<polygon fill="#63b8ff" stroke="#63b8ff" points="1231.85,-89.46 1221.31,-90.59 1230.26,-96.28 1231.85,-89.46"/>
</a>
</g>
</g>
<!-- Node17 -->
<g id="Node000017" class="node">
<title>Node17</title>
<g id="a_Node000017"><a xlink:href="_address_family_enum_8hpp.html" target="_top" xlink:title=" ">
<polygon fill="white" stroke="#666666" points="2719,-90.5 2543,-90.5 2543,-60.5 2719,-60.5 2719,-90.5"/>
<text text-anchor="start" x="2551" y="-78.5" font-family="Helvetica,sans-Serif" font-size="10.00">Hermes/_base/WinApi</text>
<text text-anchor="middle" x="2631" y="-67.5" font-family="Helvetica,sans-Serif" font-size="10.00">/Enums/AddressFamilyEnum.hpp</text>
</a>
</g>
</g>
<!-- Node8&#45;&gt;Node17 -->
<g id="edge19_Node000008_Node000017" class="edge">
<title>Node8&#45;&gt;Node17</title>
<g id="a_edge19_Node000008_Node000017"><a xlink:title=" ">
<path fill="none" stroke="#63b8ff" d="M1703.26,-145.56C1849.07,-143.86 2223.83,-135.65 2534,-96 2541.87,-94.99 2550.07,-93.71 2558.2,-92.3"/>
<polygon fill="#63b8ff" stroke="#63b8ff" points="2558.87,-95.73 2568.08,-90.5 2557.62,-88.84 2558.87,-95.73"/>
</a>
</g>
</g>
<!-- Node19 -->
<g id="Node000019" class="node">
<title>Node19</title>
<g id="a_Node000019"><a xlink:href="_condition_function_enum_8hpp.html" target="_top" xlink:title=" ">
<polygon fill="white" stroke="#666666" points="3139,-90.5 2947,-90.5 2947,-60.5 3139,-60.5 3139,-90.5"/>
<text text-anchor="start" x="2955" y="-78.5" font-family="Helvetica,sans-Serif" font-size="10.00">Hermes/_base/WinApi</text>
<text text-anchor="middle" x="3043" y="-67.5" font-family="Helvetica,sans-Serif" font-size="10.00">/Enums/ConditionFunctionEnum.hpp</text>
</a>
</g>
</g>
<!-- Node8&#45;&gt;Node19 -->
<g id="edge21_Node000008_Node000019" class="edge">
<title>Node8&#45;&gt;Node19</title>
<g id="a_edge21_Node000008_Node000019"><a xlink:title=" ">
<path fill="none" stroke="#63b8ff" d="M1703.22,-144.78C1927.42,-140.21 2693.48,-122.96 2937,-96 2946.01,-95 2955.41,-93.68 2964.73,-92.2"/>
<polygon fill="#63b8ff" stroke="#63b8ff" points="2965.49,-95.62 2974.79,-90.53 2964.35,-88.72 2965.49,-95.62"/>
</a>
</g>
</g>
<!-- Node21 -->
<g id="Node000021" class="node">
<title>Node21</title>
<g id="a_Node000021"><a xlink:href="_encrypt_status_enum_8hpp.html" target="_top" xlink:title=" ">
<polygon fill="white" stroke="#666666" points="3710,-90.5 3538,-90.5 3538,-60.5 3710,-60.5 3710,-90.5"/>
<text text-anchor="start" x="3546" y="-78.5" font-family="Helvetica,sans-Serif" font-size="10.00">Hermes/_base/WinApi</text>
<text text-anchor="middle" x="3624" y="-67.5" font-family="Helvetica,sans-Serif" font-size="10.00">/Enums/EncryptStatusEnum.hpp</text>
</a>
</g>
</g>
<!-- Node8&#45;&gt;Node21 -->
<g id="edge23_Node000008_Node000021" class="edge">
<title>Node8&#45;&gt;Node21</title>
<g id="a_edge23_Node000008_Node000021"><a xlink:title=" ">
<path fill="none" stroke="#63b8ff" d="M1703.08,-145.81C1986.86,-144.7 3162.5,-137.64 3528,-96 3536.2,-95.07 3544.74,-93.79 3553.19,-92.32"/>
<polygon fill="#63b8ff" stroke="#63b8ff" points="3553.84,-95.76 3563.06,-90.53 3552.59,-88.88 3553.84,-95.76"/>
</a>
</g>
</g>
<!-- Node23 -->
<g id="Node000023" class="node">
<title>Node23</title>
<g id="a_Node000023"><a xlink:href="_protocol_base_type_enum_8hpp.html" target="_top" xlink:title=" ">
<polygon fill="white" stroke="#666666" points="2928.5,-90.5 2737.5,-90.5 2737.5,-60.5 2928.5,-60.5 2928.5,-90.5"/>
<text text-anchor="start" x="2745.5" y="-78.5" font-family="Helvetica,sans-Serif" font-size="10.00">Hermes/_base/WinApi</text>
<text text-anchor="middle" x="2833" y="-67.5" font-family="Helvetica,sans-Serif" font-size="10.00">/Enums/ProtocolBaseTypeEnum.hpp</text>
</a>
</g>
</g>
<!-- Node8&#45;&gt;Node23 -->
<g id="edge25_Node000008_Node000023" class="edge">
<title>Node8&#45;&gt;Node23</title>
<g id="a_edge25_Node000008_Node000023"><a xlink:title=" ">
<path fill="none" stroke="#63b8ff" d="M1703.13,-146.13C1869.72,-145.83 2339.99,-140.74 2728,-96 2736.86,-94.98 2746.1,-93.65 2755.26,-92.17"/>
<polygon fill="#63b8ff" stroke="#63b8ff" points="2755.86,-95.62 2765.15,-90.51 2754.7,-88.72 2755.86,-95.62"/>
</a>
</g>
</g>
<!-- Node24 -->
<g id="Node000024" class="node">
<title>Node24</title>
<g id="a_Node000024"><a xlink:href="_s_ch_cred_enum_8hpp.html" target="_top" xlink:title=" ">
<polygon fill="white" stroke="#666666" points="698,-90.5 552,-90.5 552,-60.5 698,-60.5 698,-90.5"/>
<text text-anchor="start" x="560" y="-78.5" font-family="Helvetica,sans-Serif" font-size="10.00">Hermes/_base/WinApi</text>
<text text-anchor="middle" x="625" y="-67.5" font-family="Helvetica,sans-Serif" font-size="10.00">/Enums/SChCredEnum.hpp</text>
</a>
</g>
</g>
<!-- Node8&#45;&gt;Node24 -->
<g id="edge27_Node000008_Node000024" class="edge">
<title>Node8&#45;&gt;Node24</title>
<g id="a_edge27_Node000008_Node000024"><a xlink:title=" ">
<path fill="none" stroke="#63b8ff" d="M1578.87,-146.52C1428.41,-146.95 1032.85,-143.08 707,-96 700.82,-95.11 694.43,-93.97 688.06,-92.7"/>
<polygon fill="#63b8ff" stroke="#63b8ff" points="688.61,-89.24 678.1,-90.6 687.17,-96.09 688.61,-89.24"/>
</a>
</g>
</g>
<!-- Node25 -->
<g id="Node000025" class="node">
<title>Node25</title>
<g id="a_Node000025"><a xlink:href="_security_buffer_enum_8hpp.html" target="_top" xlink:title=" ">
<polygon fill="white" stroke="#666666" points="1461.5,-90.5 1288.5,-90.5 1288.5,-60.5 1461.5,-60.5 1461.5,-90.5"/>
<text text-anchor="start" x="1296.5" y="-78.5" font-family="Helvetica,sans-Serif" font-size="10.00">Hermes/_base/WinApi</text>
<text text-anchor="middle" x="1375" y="-67.5" font-family="Helvetica,sans-Serif" font-size="10.00">/Enums/SecurityBufferEnum.hpp</text>
</a>
</g>
</g>
<!-- Node8&#45;&gt;Node25 -->
<g id="edge29_Node000008_Node000025" class="edge">
<title>Node8&#45;&gt;Node25</title>
<g id="a_edge29_Node000008_Node000025"><a xlink:title=" ">
<path fill="none" stroke="#63b8ff" d="M1587.17,-131.94C1544.18,-120.7 1483.83,-104.93 1438.48,-93.09"/>
<polygon fill="#63b8ff" stroke="#63b8ff" points="1439.31,-89.69 1428.75,-90.54 1437.54,-96.46 1439.31,-89.69"/>
</a>
</g>
</g>
<!-- Node26 -->
<g id="Node000026" class="node">
<title>Node26</title>
<g id="a_Node000026"><a xlink:href="_socket_shutdown_enum_8hpp.html" target="_top" xlink:title=" ">
<polygon fill="white" stroke="#666666" points="3342.5,-90.5 3157.5,-90.5 3157.5,-60.5 3342.5,-60.5 3342.5,-90.5"/>
<text text-anchor="start" x="3165.5" y="-78.5" font-family="Helvetica,sans-Serif" font-size="10.00">Hermes/_base/WinApi</text>
<text text-anchor="middle" x="3250" y="-67.5" font-family="Helvetica,sans-Serif" font-size="10.00">/Enums/SocketShutdownEnum.hpp</text>
</a>
</g>
</g>
<!-- Node8&#45;&gt;Node26 -->
<g id="edge31_Node000008_Node000026" class="edge">
<title>Node8&#45;&gt;Node26</title>
<g id="a_edge31_Node000008_Node000026"><a xlink:title=" ">
<path fill="none" stroke="#63b8ff" d="M1703.35,-145.23C1950.43,-141.96 2861.17,-127.98 3148,-96 3156.72,-95.03 3165.82,-93.72 3174.82,-92.24"/>
<polygon fill="#63b8ff" stroke="#63b8ff" points="3175.67,-95.65 3184.93,-90.5 3174.49,-88.75 3175.67,-95.65"/>
</a>
</g>
</g>
<!-- Node27 -->
<g id="Node000027" class="node">
<title>Node27</title>
<g id="a_Node000027"><a xlink:href="_socket_type_enum_8hpp.html" target="_top" xlink:title=" ">
<polygon fill="white" stroke="#666666" points="3519.5,-90.5 3360.5,-90.5 3360.5,-60.5 3519.5,-60.5 3519.5,-90.5"/>
<text text-anchor="start" x="3368.5" y="-78.5" font-family="Helvetica,sans-Serif" font-size="10.00">Hermes/_base/WinApi</text>
<text text-anchor="middle" x="3440" y="-67.5" font-family="Helvetica,sans-Serif" font-size="10.00">/Enums/SocketTypeEnum.hpp</text>
</a>
</g>
</g>
<!-- Node8&#45;&gt;Node27 -->
<g id="edge33_Node000008_Node000027" class="edge">
<title>Node8&#45;&gt;Node27</title>
<g id="a_edge33_Node000008_Node000027"><a xlink:title=" ">
<path fill="none" stroke="#63b8ff" d="M1703.43,-145.73C1971.07,-144.35 3022.69,-136.41 3351,-96 3358.31,-95.1 3365.91,-93.88 3373.45,-92.49"/>
<polygon fill="#63b8ff" stroke="#63b8ff" points="3374.15,-95.92 3383.3,-90.58 3372.81,-89.05 3374.15,-95.92"/>
</a>
</g>
</g>
<!-- Node28 -->
<g id="Node000028" class="node">
<title>Node28</title>
<g id="a_Node000028"><a xlink:href="_credential_flags_8hpp.html" target="_top" xlink:title=" ">
<polygon fill="white" stroke="#666666" points="1626,-90.5 1480,-90.5 1480,-60.5 1626,-60.5 1626,-90.5"/>
<text text-anchor="start" x="1488" y="-78.5" font-family="Helvetica,sans-Serif" font-size="10.00">Hermes/_base/WinApi</text>
<text text-anchor="middle" x="1553" y="-67.5" font-family="Helvetica,sans-Serif" font-size="10.00">/Flags/CredentialFlags.hpp</text>
</a>
</g>
</g>
<!-- Node8&#45;&gt;Node28 -->
<g id="edge35_Node000008_Node000028" class="edge">
<title>Node8&#45;&gt;Node28</title>
<g id="a_edge35_Node000008_Node000028"><a xlink:title=" ">
<path fill="none" stroke="#63b8ff" d="M1623.19,-131.94C1610.43,-121.86 1593.04,-108.13 1578.77,-96.85"/>
<polygon fill="#63b8ff" stroke="#63b8ff" points="1580.8,-93.99 1570.78,-90.54 1576.46,-99.49 1580.8,-93.99"/>
</a>
</g>
</g>
<!-- Node29 -->
<g id="Node000029" class="node">
<title>Node29</title>
<g id="a_Node000029"><a xlink:href="_supported_protocols_flags_8hpp.html" target="_top" xlink:title=" ">
<polygon fill="white" stroke="#666666" points="907.5,-90.5 716.5,-90.5 716.5,-60.5 907.5,-60.5 907.5,-90.5"/>
<text text-anchor="start" x="724.5" y="-78.5" font-family="Helvetica,sans-Serif" font-size="10.00">Hermes/_base/WinApi</text>
<text text-anchor="middle" x="812" y="-67.5" font-family="Helvetica,sans-Serif" font-size="10.00">/Flags/SupportedProtocolsFlags.hpp</text>
</a>
</g>
</g>
<!-- Node8&#45;&gt;Node29 -->
<g id="edge37_Node000008_Node000029" class="edge">
<title>Node8&#45;&gt;Node29</title>
<g id="a_edge37_Node000008_Node000029"><a xlink:title=" ">
<path fill="none" stroke="#63b8ff" d="M1578.78,-144.11C1453.23,-139.76 1160.73,-126.94 917,-96 908.67,-94.94 900,-93.65 891.38,-92.24"/>
<polygon fill="#63b8ff" stroke="#63b8ff" points="891.74,-88.75 881.29,-90.53 890.57,-95.65 891.74,-88.75"/>
</a>
</g>
</g>
<!-- Node30 -->
<g id="Node000030" class="node">
<title>Node30</title>
<g id="a_Node000030"><a xlink:href="_initialize_security_context_flags_8hpp.html" target="_top" xlink:title=" ">
<polygon fill="white" stroke="#666666" points="1813.5,-96 1644.5,-96 1644.5,-55 1813.5,-55 1813.5,-96"/>
<text text-anchor="start" x="1652.5" y="-84" font-family="Helvetica,sans-Serif" font-size="10.00">Hermes/_base/WinApi</text>
<text text-anchor="start" x="1652.5" y="-73" font-family="Helvetica,sans-Serif" font-size="10.00">/Flags/InitializeSecurityContext</text>
<text text-anchor="middle" x="1729" y="-62" font-family="Helvetica,sans-Serif" font-size="10.00">Flags.hpp</text>
</a>
</g>
</g>
<!-- Node8&#45;&gt;Node30 -->
<g id="edge39_Node000008_Node000030" class="edge">
<title>Node8&#45;&gt;Node30</title>
<g id="a_edge39_Node000008_Node000030"><a xlink:title=" ">
<path fill="none" stroke="#63b8ff" d="M1658.81,-131.94C1669.52,-123.48 1683.49,-112.44 1696.14,-102.45"/>
<polygon fill="#63b8ff" stroke="#63b8ff" points="1698.54,-105.02 1704.22,-96.07 1694.2,-99.52 1698.54,-105.02"/>
</a>
</g>
</g>
<!-- Node31 -->
<g id="Node000031" class="node">
<title>Node31</title>
<g id="a_Node000031"><a xlink:href="_initialize_security_context_return_flags_8hpp.html" target="_top" xlink:title=" ">
<polygon fill="white" stroke="#666666" points="2000.5,-96 1831.5,-96 1831.5,-55 2000.5,-55 2000.5,-96"/>
<text text-anchor="start" x="1839.5" y="-84" font-family="Helvetica,sans-Serif" font-size="10.00">Hermes/_base/WinApi</text>
<text text-anchor="start" x="1839.5" y="-73" font-family="Helvetica,sans-Serif" font-size="10.00">/Flags/InitializeSecurityContext</text>
<text text-anchor="middle" x="1916" y="-62" font-family="Helvetica,sans-Serif" font-size="10.00">ReturnFlags.hpp</text>
</a>
</g>
</g>
<!-- Node8&#45;&gt;Node31 -->
<g id="edge41_Node000008_Node000031" class="edge">
<title>Node8&#45;&gt;Node31</title>
<g id="a_edge41_Node000008_Node000031"><a xlink:title=" ">
<path fill="none" stroke="#63b8ff" d="M1696.65,-131.94C1734.58,-122.35 1785.57,-109.46 1828.85,-98.53"/>
<polygon fill="#63b8ff" stroke="#63b8ff" points="1829.97,-101.85 1838.81,-96.01 1828.26,-95.06 1829.97,-101.85"/>
</a>
</g>
</g>
<!-- Node32 -->
<g id="Node000032" class="node">
<title>Node32</title>
<g id="a_Node000032"><a xlink:href="_accept_security_context_flags_8hpp.html" target="_top" xlink:title=" ">
<polygon fill="white" stroke="#666666" points="2179,-96 2019,-96 2019,-55 2179,-55 2179,-96"/>
<text text-anchor="start" x="2027" y="-84" font-family="Helvetica,sans-Serif" font-size="10.00">Hermes/_base/WinApi</text>
<text text-anchor="start" x="2027" y="-73" font-family="Helvetica,sans-Serif" font-size="10.00">/Flags/AcceptSecurityContext</text>
<text text-anchor="middle" x="2099" y="-62" font-family="Helvetica,sans-Serif" font-size="10.00">Flags.hpp</text>
</a>
</g>
</g>
<!-- Node8&#45;&gt;Node32 -->
<g id="edge43_Node000008_Node000032" class="edge">
<title>Node8&#45;&gt;Node32</title>
<g id="a_edge43_Node000008_Node000032"><a xlink:title=" ">
<path fill="none" stroke="#63b8ff" d="M1703.09,-139.07C1774.35,-130.78 1894.93,-115.71 2008.67,-95.99"/>
<polygon fill="#63b8ff" stroke="#63b8ff" points="2009.34,-99.42 2018.59,-94.25 2008.14,-92.52 2009.34,-99.42"/>
</a>
</g>
</g>
<!-- Node33 -->
<g id="Node000033" class="node">
<title>Node33</title>
<g id="a_Node000033"><a xlink:href="_accept_security_context_return_flags_8hpp.html" target="_top" xlink:title=" ">
<polygon fill="white" stroke="#666666" points="2357,-96 2197,-96 2197,-55 2357,-55 2357,-96"/>
<text text-anchor="start" x="2205" y="-84" font-family="Helvetica,sans-Serif" font-size="10.00">Hermes/_base/WinApi</text>
<text text-anchor="start" x="2205" y="-73" font-family="Helvetica,sans-Serif" font-size="10.00">/Flags/AcceptSecurityContext</text>
<text text-anchor="middle" x="2277" y="-62" font-family="Helvetica,sans-Serif" font-size="10.00">ReturnFlags.hpp</text>
</a>
</g>
</g>
<!-- Node8&#45;&gt;Node33 -->
<g id="edge45_Node000008_Node000033" class="edge">
<title>Node8&#45;&gt;Node33</title>
<g id="a_edge45_Node000008_Node000033"><a xlink:title=" ">
<path fill="none" stroke="#63b8ff" d="M1703.24,-142.84C1803.23,-137.21 2005.92,-123.5 2186.6,-96.12"/>
<polygon fill="#63b8ff" stroke="#63b8ff" points="2187.2,-99.57 2196.55,-94.6 2186.14,-92.65 2187.2,-99.57"/>
</a>
</g>
</g>
<!-- Node34 -->
<g id="Node000034" class="node">
<title>Node34</title>
<g id="a_Node000034"><a xlink:href="_s_channel_cred_flags_8hpp.html" target="_top" xlink:title=" ">
<polygon fill="white" stroke="#666666" points="1090,-90.5 926,-90.5 926,-60.5 1090,-60.5 1090,-90.5"/>
<text text-anchor="start" x="934" y="-78.5" font-family="Helvetica,sans-Serif" font-size="10.00">Hermes/_base/WinApi</text>
<text text-anchor="middle" x="1008" y="-67.5" font-family="Helvetica,sans-Serif" font-size="10.00">/Flags/SChannelCredFlags.hpp</text>
</a>
</g>
</g>
<!-- Node8&#45;&gt;Node34 -->
<g id="edge47_Node000008_Node000034" class="edge">
<title>Node8&#45;&gt;Node34</title>
<g id="a_edge47_Node000008_Node000034"><a xlink:title=" ">
<path fill="none" stroke="#63b8ff" d="M1578.93,-142.69C1477.91,-136.75 1271.82,-122.39 1099,-96 1092.35,-94.98 1085.45,-93.78 1078.56,-92.48"/>
<polygon fill="#63b8ff" stroke="#63b8ff" points="1079,-89 1068.51,-90.52 1077.65,-95.87 1079,-89"/>
</a>
</g>
</g>
<!-- Node14 -->
<g id="Node000014" class="node">
<title>Node14</title>
<g id="a_Node000014"><a xlink:title=" ">
<polygon fill="#e0e0e0" stroke="#999999" points="2475,-19 2425,-19 2425,0 2475,0 2475,-19"/>
<text text-anchor="middle" x="2450" y="-7" font-family="Helvetica,sans-Serif" font-size="10.00">cstdint</text>
</a>
</g>
</g>
<!-- Node13&#45;&gt;Node14 -->
<g id="edge13_Node000013_Node000014" class="edge">
<title>Node13&#45;&gt;Node14</title>
<g id="a_edge13_Node000013_Node000014"><a xlink:title=" ">
<path fill="none" stroke="#63b8ff" d="M2450,-60.3C2450,-51.2 2450,-39.29 2450,-29.4"/>
<polygon fill="#63b8ff" stroke="#63b8ff" points="2453.5,-29.34 2450,-19.34 2446.5,-29.34 2453.5,-29.34"/>
</a>
</g>
</g>
<!-- Node15&#45;&gt;Node10 -->
<g id="edge16_Node000015_Node000010" class="edge">
<title>Node15&#45;&gt;Node10</title>
<g id="a_edge16_Node000015_Node000010"><a xlink:title=" ">
<path fill="none" stroke="#63b8ff" d="M1123.3,-60.41C1115.25,-58.34 1106.92,-56.43 1099,-55 1013.51,-39.54 755.88,-20.8 650.59,-13.56"/>
<polygon fill="#63b8ff" stroke="#63b8ff" points="650.8,-10.07 640.59,-12.88 650.32,-17.05 650.8,-10.07"/>
</a>
</g>
</g>
<!-- Node15&#45;&gt;Node11 -->
<g id="edge17_Node000015_Node000011" class="edge">
<title>Node15&#45;&gt;Node11</title>
<g id="a_edge17_Node000015_Node000011"><a xlink:title=" ">
<path fill="none" stroke="#63b8ff" d="M1121.68,-60.44C1114.12,-58.47 1106.37,-56.58 1099,-55 1014.06,-36.81 913.47,-22.95 856.76,-15.83"/>
<polygon fill="#63b8ff" stroke="#63b8ff" points="857.05,-12.34 846.69,-14.58 856.18,-19.29 857.05,-12.34"/>
</a>
</g>
</g>
<!-- Node15&#45;&gt;Node12 -->
<g id="edge18_Node000015_Node000012" class="edge">
<title>Node15&#45;&gt;Node12</title>
<g id="a_edge18_Node000015_Node000012"><a xlink:title=" ">
<path fill="none" stroke="#63b8ff" d="M1220.89,-60.41C1229.23,-58.39 1237.83,-56.5 1246,-55 1379.04,-30.56 1539.92,-17.46 1608.01,-12.66"/>
<polygon fill="#63b8ff" stroke="#63b8ff" points="1608.39,-16.14 1618.13,-11.96 1607.91,-9.16 1608.39,-16.14"/>
</a>
</g>
</g>
<!-- Node16 -->
<g id="Node000016" class="node">
<title>Node16</title>
<g id="a_Node000016"><a xlink:title=" ">
<polygon fill="#e0e0e0" stroke="#999999" points="1206.5,-19 1133.5,-19 1133.5,0 1206.5,0 1206.5,-19"/>
<text text-anchor="middle" x="1170" y="-7" font-family="Helvetica,sans-Serif" font-size="10.00">string_view</text>
</a>
</g>
</g>
<!-- Node15&#45;&gt;Node16 -->
<g id="edge15_Node000015_Node000016" class="edge">
<title>Node15&#45;&gt;Node16</title>
<g id="a_edge15_Node000015_Node000016"><a xlink:title=" ">
<path fill="none" stroke="#63b8ff" d="M1170,-60.3C1170,-51.2 1170,-39.29 1170,-29.4"/>
<polygon fill="#63b8ff" stroke="#63b8ff" points="1173.5,-29.34 1170,-19.34 1166.5,-29.34 1173.5,-29.34"/>
</a>
</g>
</g>
<!-- Node18 -->
<g id="Node000018" class="node">
<title>Node18</title>
<g id="a_Node000018"><a xlink:title=" ">
<polygon fill="#e0e0e0" stroke="#999999" points="2762,-19 2702,-19 2702,0 2762,0 2762,-19"/>
<text text-anchor="middle" x="2732" y="-7" font-family="Helvetica,sans-Serif" font-size="10.00">ws2def.h</text>
</a>
</g>
</g>
<!-- Node17&#45;&gt;Node18 -->
<g id="edge20_Node000017_Node000018" class="edge">
<title>Node17&#45;&gt;Node18</title>
<g id="a_edge20_Node000017_Node000018"><a xlink:title=" ">
<path fill="none" stroke="#63b8ff" d="M2653.42,-60.3C2670.19,-49.67 2693.01,-35.2 2709.75,-24.6"/>
<polygon fill="#63b8ff" stroke="#63b8ff" points="2711.76,-27.47 2718.34,-19.16 2708.02,-21.55 2711.76,-27.47"/>
</a>
</g>
</g>
<!-- Node20 -->
<g id="Node000020" class="node">
<title>Node20</title>
<g id="a_Node000020"><a xlink:title=" ">
<polygon fill="#e0e0e0" stroke="#999999" points="3287,-19 3213,-19 3213,0 3287,0 3287,-19"/>
<text text-anchor="middle" x="3250" y="-7" font-family="Helvetica,sans-Serif" font-size="10.00">WinSock2.h</text>
</a>
</g>
</g>
<!-- Node19&#45;&gt;Node20 -->
<g id="edge22_Node000019_Node000020" class="edge">
<title>Node19&#45;&gt;Node20</title>
<g id="a_edge22_Node000019_Node000020"><a xlink:title=" ">
<path fill="none" stroke="#63b8ff" d="M3088.43,-60.45C3125.69,-48.93 3177.8,-32.82 3212.66,-22.04"/>
<polygon fill="#63b8ff" stroke="#63b8ff" points="3213.93,-25.32 3222.45,-19.02 3211.86,-18.63 3213.93,-25.32"/>
</a>
</g>
</g>
<!-- Node22 -->
<g id="Node000022" class="node">
<title>Node22</title>
<g id="a_Node000022"><a xlink:title=" ">
<polygon fill="#e0e0e0" stroke="#999999" points="3656.5,-19 3591.5,-19 3591.5,0 3656.5,0 3656.5,-19"/>
<text text-anchor="middle" x="3624" y="-7" font-family="Helvetica,sans-Serif" font-size="10.00">winerror.h</text>
</a>
</g>
</g>
<!-- Node21&#45;&gt;Node22 -->
<g id="edge24_Node000021_Node000022" class="edge">
<title>Node21&#45;&gt;Node22</title>
<g id="a_edge24_Node000021_Node000022"><a xlink:title=" ">
<path fill="none" stroke="#63b8ff" d="M3624,-60.3C3624,-51.2 3624,-39.29 3624,-29.4"/>
<polygon fill="#63b8ff" stroke="#63b8ff" points="3627.5,-29.34 3624,-19.34 3620.5,-29.34 3627.5,-29.34"/>
</a>
</g>
</g>
<!-- Node23&#45;&gt;Node18 -->
<g id="edge26_Node000023_Node000018" class="edge">
<title>Node23&#45;&gt;Node18</title>
<g id="a_edge26_Node000023_Node000018"><a xlink:title=" ">
<path fill="none" stroke="#63b8ff" d="M2810.58,-60.3C2793.81,-49.67 2770.99,-35.2 2754.25,-24.6"/>
<polygon fill="#63b8ff" stroke="#63b8ff" points="2755.98,-21.55 2745.66,-19.16 2752.24,-27.47 2755.98,-21.55"/>
</a>
</g>
</g>
<!-- Node24&#45;&gt;Node11 -->
<g id="edge28_Node000024_Node000011" class="edge">
<title>Node24&#45;&gt;Node11</title>
<g id="a_edge28_Node000024_Node000011"><a xlink:title=" ">
<path fill="none" stroke="#63b8ff" d="M666.04,-60.45C699.41,-49.03 745.97,-33.1 777.46,-22.32"/>
<polygon fill="#63b8ff" stroke="#63b8ff" points="778.79,-25.57 787.11,-19.02 776.52,-18.94 778.79,-25.57"/>
</a>
</g>
</g>
<!-- Node25&#45;&gt;Node12 -->
<g id="edge30_Node000025_Node000012" class="edge">
<title>Node25&#45;&gt;Node12</title>
<g id="a_edge30_Node000025_Node000012"><a xlink:title=" ">
<path fill="none" stroke="#63b8ff" d="M1433.37,-60.45C1487.18,-47.51 1565.07,-28.77 1608.54,-18.31"/>
<polygon fill="#63b8ff" stroke="#63b8ff" points="1609.4,-21.7 1618.3,-15.96 1607.76,-14.9 1609.4,-21.7"/>
</a>
</g>
</g>
<!-- Node26&#45;&gt;Node20 -->
<g id="edge32_Node000026_Node000020" class="edge">
<title>Node26&#45;&gt;Node20</title>
<g id="a_edge32_Node000026_Node000020"><a xlink:title=" ">
<path fill="none" stroke="#63b8ff" d="M3250,-60.3C3250,-51.2 3250,-39.29 3250,-29.4"/>
<polygon fill="#63b8ff" stroke="#63b8ff" points="3253.5,-29.34 3250,-19.34 3246.5,-29.34 3253.5,-29.34"/>
</a>
</g>
</g>
<!-- Node27&#45;&gt;Node20 -->
<g id="edge34_Node000027_Node000020" class="edge">
<title>Node27&#45;&gt;Node20</title>
<g id="a_edge34_Node000027_Node000020"><a xlink:title=" ">
<path fill="none" stroke="#63b8ff" d="M3398.3,-60.45C3364.4,-49.03 3317.09,-33.1 3285.1,-22.32"/>
<polygon fill="#63b8ff" stroke="#63b8ff" points="3285.88,-18.89 3275.29,-19.02 3283.65,-25.53 3285.88,-18.89"/>
</a>
</g>
</g>
<!-- Node28&#45;&gt;Node12 -->
<g id="edge36_Node000028_Node000012" class="edge">
<title>Node28&#45;&gt;Node12</title>
<g id="a_edge36_Node000028_Node000012"><a xlink:title=" ">
<path fill="none" stroke="#63b8ff" d="M1572.53,-60.3C1586.87,-49.87 1606.3,-35.74 1620.79,-25.19"/>
<polygon fill="#63b8ff" stroke="#63b8ff" points="1623.07,-27.87 1629.09,-19.16 1618.95,-22.21 1623.07,-27.87"/>
</a>
</g>
</g>
<!-- Node29&#45;&gt;Node11 -->
<g id="edge38_Node000029_Node000011" class="edge">
<title>Node29&#45;&gt;Node11</title>
<g id="a_edge38_Node000029_Node000011"><a xlink:title=" ">
<path fill="none" stroke="#63b8ff" d="M812,-60.3C812,-51.2 812,-39.29 812,-29.4"/>
<polygon fill="#63b8ff" stroke="#63b8ff" points="815.5,-29.34 812,-19.34 808.5,-29.34 815.5,-29.34"/>
</a>
</g>
</g>
<!-- Node30&#45;&gt;Node12 -->
<g id="edge40_Node000030_Node000012" class="edge">
<title>Node30&#45;&gt;Node12</title>
<g id="a_edge40_Node000030_Node000012"><a xlink:title=" ">
<path fill="none" stroke="#63b8ff" d="M1702.12,-54.95C1688.94,-45.37 1673.34,-34.02 1661.19,-25.19"/>
<polygon fill="#63b8ff" stroke="#63b8ff" points="1663.19,-22.31 1653.05,-19.26 1659.07,-27.97 1663.19,-22.31"/>
</a>
</g>
</g>
<!-- Node31&#45;&gt;Node12 -->
<g id="edge42_Node000031_Node000012" class="edge">
<title>Node31&#45;&gt;Node12</title>
<g id="a_edge42_Node000031_Node000012"><a xlink:title=" ">
<path fill="none" stroke="#63b8ff" d="M1832,-54.95C1778.72,-42.55 1712.75,-27.2 1673.93,-18.16"/>
<polygon fill="#63b8ff" stroke="#63b8ff" points="1674.27,-14.65 1663.73,-15.79 1672.68,-21.47 1674.27,-14.65"/>
</a>
</g>
</g>
<!-- Node32&#45;&gt;Node12 -->
<g id="edge44_Node000032_Node000012" class="edge">
<title>Node32&#45;&gt;Node12</title>
<g id="a_edge44_Node000032_Node000012"><a xlink:title=" ">
<path fill="none" stroke="#63b8ff" d="M2018.6,-56.69C2015.36,-56.1 2012.15,-55.53 2009,-55 1886.02,-34.29 1738.35,-19.43 1673.85,-13.44"/>
<polygon fill="#63b8ff" stroke="#63b8ff" points="1673.79,-9.92 1663.51,-12.49 1673.14,-16.89 1673.79,-9.92"/>
</a>
</g>
</g>
<!-- Node33&#45;&gt;Node12 -->
<g id="edge46_Node000033_Node000012" class="edge">
<title>Node33&#45;&gt;Node12</title>
<g id="a_edge46_Node000033_Node000012"><a xlink:title=" ">
<path fill="none" stroke="#63b8ff" d="M2196.56,-56.37C2193.68,-55.88 2190.82,-55.42 2188,-55 1994.16,-26.02 1758.66,-14.88 1673.6,-11.62"/>
<polygon fill="#63b8ff" stroke="#63b8ff" points="1673.65,-8.12 1663.53,-11.25 1673.39,-15.12 1673.65,-8.12"/>
</a>
</g>
</g>
<!-- Node34&#45;&gt;Node11 -->
<g id="edge48_Node000034_Node000011" class="edge">
<title>Node34&#45;&gt;Node11</title>
<g id="a_edge48_Node000034_Node000011"><a xlink:title=" ">
<path fill="none" stroke="#63b8ff" d="M964.99,-60.45C929.86,-48.98 880.79,-32.96 847.78,-22.18"/>
<polygon fill="#63b8ff" stroke="#63b8ff" points="848.68,-18.79 838.08,-19.02 846.5,-25.45 848.68,-18.79"/>
</a>
</g>
</g>
</g>
</svg>
