<?xml version="1.0" encoding="UTF-8" standalone="no"?>
<!DOCTYPE svg PUBLIC "-//W3C//DTD SVG 1.1//EN"
 "http://www.w3.org/Graphics/SVG/1.1/DTD/svg11.dtd">
<!-- Generated by graphviz version 2.43.0 (0)
 -->
<!-- Title: include/Hermes/Socket/_base.hpp Pages: 1 -->
<svg width="1301pt" height="478pt"
 viewBox="0.00 0.00 1301.03 478.00" xmlns="http://www.w3.org/2000/svg" xmlns:xlink="http://www.w3.org/1999/xlink">
<g id="graph0" class="graph" transform="scale(1 1) rotate(0) translate(4 474)">
<title>include/Hermes/Socket/_base.hpp</title>
<!-- Node1 -->
<g id="Node000001" class="node">
<title>Node1</title>
<g id="a_Node000001"><a xlink:title=" ">
<polygon fill="#999999" stroke="#666666" points="657.53,-470 529.53,-470 529.53,-440 657.53,-440 657.53,-470"/>
<text text-anchor="start" x="537.53" y="-458" font-family="Helvetica,sans-Serif" font-size="10.00">include/Hermes/Socket</text>
<text text-anchor="middle" x="593.53" y="-447" font-family="Helvetica,sans-Serif" font-size="10.00">/_base.hpp</text>
</a>
</g>
</g>
<!-- Node2 -->
<g id="Node000002" class="node">
<title>Node2</title>
<g id="a_Node000002"><a xlink:href="_default_async_connect_policy_8hpp.html" target="_top" xlink:title=" ">
<polygon fill="white" stroke="#666666" points="591.03,-184 418.03,-184 418.03,-143 591.03,-143 591.03,-184"/>
<text text-anchor="start" x="426.03" y="-172" font-family="Helvetica,sans-Serif" font-size="10.00">include/Hermes/Socket</text>
<text text-anchor="start" x="426.03" y="-161" font-family="Helvetica,sans-Serif" font-size="10.00">/Async/_base/Connection</text>
<text text-anchor="middle" x="504.53" y="-150" font-family="Helvetica,sans-Serif" font-size="10.00">/DefaultAsyncConnectPolicy.hpp</text>
</a>
</g>
</g>
<!-- Node1&#45;&gt;Node2 -->
<g id="edge1_Node000001_Node000002" class="edge">
<title>Node1&#45;&gt;Node2</title>
<g id="a_edge1_Node000001_Node000002"><a xlink:title=" ">
<path fill="none" stroke="#63b8ff" d="M519.22,-448.92C479.78,-443.01 432.4,-430.46 397.53,-404 370.56,-383.54 368.27,-370.7 359.53,-338 345.15,-284.22 362.07,-259.26 401.53,-220 416.58,-205.03 436.5,-193.03 454.82,-184.08"/>
<polygon fill="#63b8ff" stroke="#63b8ff" points="518.94,-452.41 529.33,-450.31 519.9,-445.48 518.94,-452.41"/>
</a>
</g>
</g>
<!-- Node4 -->
<g id="Node000004" class="node">
<title>Node4</title>
<g id="a_Node000004"><a xlink:href="_tls_async_connect_policy_8hpp.html" target="_top" xlink:title=" ">
<polygon fill="white" stroke="#666666" points="427.53,-107 275.53,-107 275.53,-66 427.53,-66 427.53,-107"/>
<text text-anchor="start" x="283.53" y="-95" font-family="Helvetica,sans-Serif" font-size="10.00">include/Hermes/Socket</text>
<text text-anchor="start" x="283.53" y="-84" font-family="Helvetica,sans-Serif" font-size="10.00">/Async/_base/Connection</text>
<text text-anchor="middle" x="351.53" y="-73" font-family="Helvetica,sans-Serif" font-size="10.00">/TlsAsyncConnectPolicy.hpp</text>
</a>
</g>
</g>
<!-- Node1&#45;&gt;Node4 -->
<g id="edge5_Node000001_Node000004" class="edge">
<title>Node1&#45;&gt;Node4</title>
<g id="a_edge5_Node000001_Node000004"><a xlink:title=" ">
<path fill="none" stroke="#63b8ff" d="M519.14,-453.48C425.15,-448.45 275.53,-423.88 275.53,-318.5 275.53,-318.5 275.53,-318.5 275.53,-239.5 275.53,-187.28 311.86,-134.61 334.28,-107.07"/>
<polygon fill="#63b8ff" stroke="#63b8ff" points="519.02,-456.98 529.18,-453.96 519.35,-449.99 519.02,-456.98"/>
</a>
</g>
</g>
<!-- Node5 -->
<g id="Node000005" class="node">
<title>Node5</title>
<g id="a_Node000005"><a xlink:href="_default_async_transfer_policy_8hpp.html" target="_top" xlink:title=" ">
<polygon fill="white" stroke="#666666" points="247.03,-338 74.03,-338 74.03,-297 247.03,-297 247.03,-338"/>
<text text-anchor="start" x="82.03" y="-326" font-family="Helvetica,sans-Serif" font-size="10.00">include/Hermes/Socket</text>
<text text-anchor="start" x="82.03" y="-315" font-family="Helvetica,sans-Serif" font-size="10.00">/Async/_base/Transfer</text>
<text text-anchor="middle" x="160.53" y="-304" font-family="Helvetica,sans-Serif" font-size="10.00">/DefaultAsyncTransferPolicy.hpp</text>
</a>
</g>
</g>
<!-- Node1&#45;&gt;Node5 -->
<g id="edge6_Node000001_Node000005" class="edge">
<title>Node1&#45;&gt;Node5</title>
<g id="a_edge6_Node000001_Node000005"><a xlink:title=" ">
<path fill="none" stroke="#63b8ff" d="M519.02,-454.27C449.49,-451.92 344.33,-441.57 261.53,-404 227.43,-388.53 195.81,-358.09 177.33,-338.03"/>
<polygon fill="#63b8ff" stroke="#63b8ff" points="519.34,-457.78 529.44,-454.57 519.55,-450.79 519.34,-457.78"/>
</a>
</g>
</g>
<!-- Node8 -->
<g id="Node000008" class="node">
<title>Node8</title>
<g id="a_Node000008"><a xlink:href="_tls_async_transfer_policy_8hpp.html" target="_top" xlink:title=" ">
<polygon fill="white" stroke="#666666" points="166.03,-261 15.03,-261 15.03,-220 166.03,-220 166.03,-261"/>
<text text-anchor="start" x="23.03" y="-249" font-family="Helvetica,sans-Serif" font-size="10.00">include/Hermes/Socket</text>
<text text-anchor="start" x="23.03" y="-238" font-family="Helvetica,sans-Serif" font-size="10.00">/Async/_base/Transfer</text>
<text text-anchor="middle" x="90.53" y="-227" font-family="Helvetica,sans-Serif" font-size="10.00">/TlsAsyncTransferPolicy.hpp</text>
</a>
</g>
</g>
<!-- Node1&#45;&gt;Node8 -->
<g id="edge10_Node000001_Node000008" class="edge">
<title>Node1&#45;&gt;Node8</title>
<g id="a_edge10_Node000001_Node000008"><a xlink:title=" ">
<path fill="none" stroke="#63b8ff" d="M519.19,-450.59C441.45,-445.57 316.53,-433.34 212.53,-404 143.21,-384.44 103.74,-398.41 64.53,-338 49.13,-314.28 63.88,-281.64 76.63,-261.06"/>
<polygon fill="#63b8ff" stroke="#63b8ff" points="519.17,-454.1 529.36,-451.23 519.6,-447.11 519.17,-454.1"/>
</a>
</g>
</g>
<!-- Node9 -->
<g id="Node000009" class="node">
<title>Node9</title>
<g id="a_Node000009"><a xlink:href="_default_socket_data_8hpp.html" target="_top" xlink:title=" ">
<polygon fill="white" stroke="#666666" points="779.53,-404 621.53,-404 621.53,-374 779.53,-374 779.53,-404"/>
<text text-anchor="start" x="629.53" y="-392" font-family="Helvetica,sans-Serif" font-size="10.00">include/Hermes/Socket</text>
<text text-anchor="middle" x="700.53" y="-381" font-family="Helvetica,sans-Serif" font-size="10.00">/Data/DefaultSocketData.hpp</text>
</a>
</g>
</g>
<!-- Node1&#45;&gt;Node9 -->
<g id="edge13_Node000001_Node000009" class="edge">
<title>Node1&#45;&gt;Node9</title>
<g id="a_edge13_Node000001_Node000009"><a xlink:title=" ">
<path fill="none" stroke="#63b8ff" d="M625.81,-434.69C642.32,-424.82 662.06,-413.01 677.1,-404.01"/>
<polygon fill="#63b8ff" stroke="#63b8ff" points="623.8,-431.82 617.01,-439.95 627.39,-437.83 623.8,-431.82"/>
</a>
</g>
</g>
<!-- Node10 -->
<g id="Node000010" class="node">
<title>Node10</title>
<g id="a_Node000010"><a xlink:href="_default_accept_policy_8hpp.html" target="_top" xlink:title=" ">
<polygon fill="white" stroke="#666666" points="1117.53,-338 935.53,-338 935.53,-297 1117.53,-297 1117.53,-338"/>
<text text-anchor="start" x="943.53" y="-326" font-family="Helvetica,sans-Serif" font-size="10.00">include/Hermes/Socket</text>
<text text-anchor="start" x="943.53" y="-315" font-family="Helvetica,sans-Serif" font-size="10.00">/Sync/_base/Accept/DefaultAccept</text>
<text text-anchor="middle" x="1026.53" y="-304" font-family="Helvetica,sans-Serif" font-size="10.00">Policy.hpp</text>
</a>
</g>
</g>
<!-- Node1&#45;&gt;Node10 -->
<g id="edge38_Node000001_Node000010" class="edge">
<title>Node1&#45;&gt;Node10</title>
<g id="a_edge38_Node000001_Node000010"><a xlink:title=" ">
<path fill="none" stroke="#63b8ff" d="M667.92,-453.71C736.51,-450.92 839.76,-440.25 921.53,-404 956.56,-388.47 989.55,-358.05 1008.89,-338"/>
<polygon fill="#63b8ff" stroke="#63b8ff" points="667.51,-450.22 657.64,-454.08 667.76,-457.21 667.51,-450.22"/>
</a>
</g>
</g>
<!-- Node13 -->
<g id="Node000013" class="node">
<title>Node13</title>
<g id="a_Node000013"><a xlink:href="_tls_accept_policy_8hpp.html" target="_top" xlink:title=" ">
<polygon fill="white" stroke="#666666" points="1107.03,-261 946.03,-261 946.03,-220 1107.03,-220 1107.03,-261"/>
<text text-anchor="start" x="954.03" y="-249" font-family="Helvetica,sans-Serif" font-size="10.00">include/Hermes/Socket</text>
<text text-anchor="start" x="954.03" y="-238" font-family="Helvetica,sans-Serif" font-size="10.00">/Sync/_base/Accept/TlsAccept</text>
<text text-anchor="middle" x="1026.53" y="-227" font-family="Helvetica,sans-Serif" font-size="10.00">Policy.hpp</text>
</a>
</g>
</g>
<!-- Node1&#45;&gt;Node13 -->
<g id="edge39_Node000001_Node000013" class="edge">
<title>Node1&#45;&gt;Node13</title>
<g id="a_edge39_Node000001_Node000013"><a xlink:title=" ">
<path fill="none" stroke="#63b8ff" d="M667.72,-449.93C801.82,-440.74 1075.39,-413.03 1126.53,-338 1136.79,-322.94 1135.77,-312.7 1126.53,-297 1117.21,-281.17 1101.57,-269.54 1085.39,-261.13"/>
<polygon fill="#63b8ff" stroke="#63b8ff" points="667.28,-446.45 657.54,-450.61 667.75,-453.43 667.28,-446.45"/>
</a>
</g>
</g>
<!-- Node14 -->
<g id="Node000014" class="node">
<title>Node14</title>
<g id="a_Node000014"><a xlink:href="_default_connect_policy_8hpp.html" target="_top" xlink:title=" ">
<polygon fill="white" stroke="#666666" points="679.53,-338 535.53,-338 535.53,-297 679.53,-297 679.53,-338"/>
<text text-anchor="start" x="543.53" y="-326" font-family="Helvetica,sans-Serif" font-size="10.00">include/Hermes/Socket</text>
<text text-anchor="start" x="543.53" y="-315" font-family="Helvetica,sans-Serif" font-size="10.00">/Sync/_base/Connection</text>
<text text-anchor="middle" x="607.53" y="-304" font-family="Helvetica,sans-Serif" font-size="10.00">/DefaultConnectPolicy.hpp</text>
</a>
</g>
</g>
<!-- Node1&#45;&gt;Node14 -->
<g id="edge40_Node000001_Node000014" class="edge">
<title>Node1&#45;&gt;Node14</title>
<g id="a_edge40_Node000001_Node000014"><a xlink:title=" ">
<path fill="none" stroke="#63b8ff" d="M596.06,-429.54C598.76,-403.38 602.99,-362.39 605.49,-338.21"/>
<polygon fill="#63b8ff" stroke="#63b8ff" points="592.55,-429.45 595,-439.76 599.51,-430.17 592.55,-429.45"/>
</a>
</g>
</g>
<!-- Node16 -->
<g id="Node000016" class="node">
<title>Node16</title>
<g id="a_Node000016"><a xlink:href="_tls_connect_policy_8hpp.html" target="_top" xlink:title=" ">
<polygon fill="white" stroke="#666666" points="542.53,-261 410.53,-261 410.53,-220 542.53,-220 542.53,-261"/>
<text text-anchor="start" x="418.53" y="-249" font-family="Helvetica,sans-Serif" font-size="10.00">include/Hermes/Socket</text>
<text text-anchor="start" x="418.53" y="-238" font-family="Helvetica,sans-Serif" font-size="10.00">/Sync/_base/Connection</text>
<text text-anchor="middle" x="476.53" y="-227" font-family="Helvetica,sans-Serif" font-size="10.00">/TlsConnectPolicy.hpp</text>
</a>
</g>
</g>
<!-- Node1&#45;&gt;Node16 -->
<g id="edge41_Node000001_Node000016" class="edge">
<title>Node1&#45;&gt;Node16</title>
<g id="a_edge41_Node000001_Node000016"><a xlink:title=" ">
<path fill="none" stroke="#63b8ff" d="M519.48,-437.02C467.86,-420.91 402.71,-391.01 370.53,-338 361.07,-322.42 361.09,-312.59 370.53,-297 380.21,-281.01 396.18,-269.4 412.83,-261.07"/>
<polygon fill="#63b8ff" stroke="#63b8ff" points="518.69,-440.44 529.28,-439.97 520.71,-433.74 518.69,-440.44"/>
</a>
</g>
</g>
<!-- Node17 -->
<g id="Node000017" class="node">
<title>Node17</title>
<g id="a_Node000017"><a xlink:href="_default_transfer_policy_8hpp.html" target="_top" xlink:title=" ">
<polygon fill="white" stroke="#666666" points="879.03,-338 736.03,-338 736.03,-297 879.03,-297 879.03,-338"/>
<text text-anchor="start" x="744.03" y="-326" font-family="Helvetica,sans-Serif" font-size="10.00">include/Hermes/Socket</text>
<text text-anchor="start" x="744.03" y="-315" font-family="Helvetica,sans-Serif" font-size="10.00">/Sync/_base/Transfer</text>
<text text-anchor="middle" x="807.53" y="-304" font-family="Helvetica,sans-Serif" font-size="10.00">/DefaultTransferPolicy.hpp</text>
</a>
</g>
</g>
<!-- Node1&#45;&gt;Node17 -->
<g id="edge42_Node000001_Node000017" class="edge">
<title>Node1&#45;&gt;Node17</title>
<g id="a_edge42_Node000001_Node000017"><a xlink:title=" ">
<path fill="none" stroke="#63b8ff" d="M667.8,-443.17C715.51,-434.71 771.62,-421.46 788.53,-404 805.45,-386.52 808.64,-357.49 808.66,-338.18"/>
<polygon fill="#63b8ff" stroke="#63b8ff" points="667.02,-439.75 657.76,-444.9 668.21,-446.65 667.02,-439.75"/>
</a>
</g>
</g>
<!-- Node18 -->
<g id="Node000018" class="node">
<title>Node18</title>
<g id="a_Node000018"><a xlink:href="_tls_socket_data_8hpp.html" target="_top" xlink:title=" ">
<polygon fill="white" stroke="#666666" points="517.03,-332.5 380.03,-332.5 380.03,-302.5 517.03,-302.5 517.03,-332.5"/>
<text text-anchor="start" x="388.03" y="-320.5" font-family="Helvetica,sans-Serif" font-size="10.00">include/Hermes/Socket</text>
<text text-anchor="middle" x="448.53" y="-309.5" font-family="Helvetica,sans-Serif" font-size="10.00">/Data/TlsSocketData.hpp</text>
</a>
</g>
</g>
<!-- Node1&#45;&gt;Node18 -->
<g id="edge30_Node000001_Node000018" class="edge">
<title>Node1&#45;&gt;Node18</title>
<g id="a_edge30_Node000001_Node000018"><a xlink:title=" ">
<path fill="none" stroke="#63b8ff" d="M570.82,-432.78C540.89,-404.81 489.06,-356.37 463.57,-332.55"/>
<polygon fill="#63b8ff" stroke="#63b8ff" points="568.59,-435.48 578.29,-439.76 573.37,-430.37 568.59,-435.48"/>
</a>
</g>
</g>
<!-- Node19 -->
<g id="Node000019" class="node">
<title>Node19</title>
<g id="a_Node000019"><a xlink:href="_tls_transfer_policy_8hpp.html" target="_top" xlink:title=" ">
<polygon fill="white" stroke="#666666" points="889.53,-261 761.53,-261 761.53,-220 889.53,-220 889.53,-261"/>
<text text-anchor="start" x="769.53" y="-249" font-family="Helvetica,sans-Serif" font-size="10.00">include/Hermes/Socket</text>
<text text-anchor="start" x="769.53" y="-238" font-family="Helvetica,sans-Serif" font-size="10.00">/Sync/_base/Transfer</text>
<text text-anchor="middle" x="825.53" y="-227" font-family="Helvetica,sans-Serif" font-size="10.00">/TlsTransferPolicy.hpp</text>
</a>
</g>
</g>
<!-- Node1&#45;&gt;Node19 -->
<g id="edge43_Node000001_Node000019" class="edge">
<title>Node1&#45;&gt;Node19</title>
<g id="a_edge43_Node000001_Node000019"><a xlink:title=" ">
<path fill="none" stroke="#63b8ff" d="M667.87,-451.28C742.18,-443.87 850.68,-418.94 888.53,-338 896.25,-321.49 896.03,-313.61 888.53,-297 881.99,-282.52 869.6,-270.31 857.52,-261.06"/>
<polygon fill="#63b8ff" stroke="#63b8ff" points="667.26,-447.82 657.62,-452.21 667.9,-454.79 667.26,-447.82"/>
</a>
</g>
</g>
<!-- Node20 -->
<g id="Node000020" class="node">
<title>Node20</title>
<g id="a_Node000020"><a xlink:href="_to_bytes_8hpp.html" target="_top" xlink:title=" ">
<polygon fill="white" stroke="#666666" points="1293.03,-404 1174.03,-404 1174.03,-374 1293.03,-374 1293.03,-404"/>
<text text-anchor="start" x="1182.03" y="-392" font-family="Helvetica,sans-Serif" font-size="10.00">include/Hermes/Utils</text>
<text text-anchor="middle" x="1233.53" y="-381" font-family="Helvetica,sans-Serif" font-size="10.00">/ToBytes.hpp</text>
</a>
</g>
</g>
<!-- Node1&#45;&gt;Node20 -->
<g id="edge44_Node000001_Node000020" class="edge">
<title>Node1&#45;&gt;Node20</title>
<g id="a_edge44_Node000001_Node000020"><a xlink:title=" ">
<path fill="none" stroke="#63b8ff" d="M668.03,-449.77C776.52,-443.09 984.17,-428.27 1159.53,-404 1164.19,-403.35 1169.01,-402.61 1173.84,-401.82"/>
<polygon fill="#63b8ff" stroke="#63b8ff" points="667.62,-446.29 657.85,-450.4 668.04,-453.28 667.62,-446.29"/>
</a>
</g>
</g>
<!-- Node3 -->
<g id="Node000003" class="node">
<title>Node3</title>
<g id="a_Node000003"><a xlink:href="_async_client_socket_8hpp.html" target="_top" xlink:title=" ">
<polygon fill="white" stroke="#666666" points="284.03,-30 121.03,-30 121.03,0 284.03,0 284.03,-30"/>
<text text-anchor="start" x="129.03" y="-18" font-family="Helvetica,sans-Serif" font-size="10.00">include/Hermes/Socket</text>
<text text-anchor="middle" x="202.53" y="-7" font-family="Helvetica,sans-Serif" font-size="10.00">/Async/AsyncClientSocket.hpp</text>
</a>
</g>
</g>
<!-- Node2&#45;&gt;Node3 -->
<g id="edge2_Node000002_Node000003" class="edge">
<title>Node2&#45;&gt;Node3</title>
<g id="a_edge2_Node000002_Node000003"><a xlink:title=" ">
<path fill="none" stroke="#63b8ff" d="M491.56,-133.65C480.19,-111.7 461.56,-82.53 436.53,-66 391.47,-36.24 331.83,-23.81 284.04,-18.78"/>
<polygon fill="#63b8ff" stroke="#63b8ff" points="488.55,-135.46 496.13,-142.86 494.82,-132.34 488.55,-135.46"/>
</a>
</g>
</g>
<!-- Node2&#45;&gt;Node4 -->
<g id="edge3_Node000002_Node000004" class="edge">
<title>Node2&#45;&gt;Node4</title>
<g id="a_edge3_Node000002_Node000004"><a xlink:title=" ">
<path fill="none" stroke="#63b8ff" d="M455.74,-138.59C434.98,-128.41 411.07,-116.69 391.39,-107.04"/>
<polygon fill="#63b8ff" stroke="#63b8ff" points="454.21,-141.73 464.73,-142.99 457.29,-135.45 454.21,-141.73"/>
</a>
</g>
</g>
<!-- Node4&#45;&gt;Node3 -->
<g id="edge4_Node000004_Node000003" class="edge">
<title>Node4&#45;&gt;Node3</title>
<g id="a_edge4_Node000004_Node000003"><a xlink:title=" ">
<path fill="none" stroke="#63b8ff" d="M300.52,-61.71C277.97,-51.19 252.23,-39.18 232.79,-30.11"/>
<polygon fill="#63b8ff" stroke="#63b8ff" points="299.09,-64.9 309.63,-65.96 302.04,-58.56 299.09,-64.9"/>
</a>
</g>
</g>
<!-- Node5&#45;&gt;Node3 -->
<g id="edge7_Node000005_Node000003" class="edge">
<title>Node5&#45;&gt;Node3</title>
<g id="a_edge7_Node000005_Node000003"><a xlink:title=" ">
<path fill="none" stroke="#63b8ff" d="M64.37,-301.96C41.43,-293.73 19.56,-280.92 5.53,-261 -4.96,-246.1 2.73,-238.01 5.53,-220 16.55,-149.02 4.19,-117.24 54.53,-66 72.3,-47.91 96.83,-36.37 120.82,-29"/>
<polygon fill="#63b8ff" stroke="#63b8ff" points="63.3,-305.29 73.9,-305.1 65.5,-298.64 63.3,-305.29"/>
</a>
</g>
</g>
<!-- Node6 -->
<g id="Node000006" class="node">
<title>Node6</title>
<g id="a_Node000006"><a xlink:href="_async_server_socket_8hpp.html" target="_top" xlink:title=" ">
<polygon fill="white" stroke="#666666" points="247.53,-178.5 81.53,-178.5 81.53,-148.5 247.53,-148.5 247.53,-178.5"/>
<text text-anchor="start" x="89.53" y="-166.5" font-family="Helvetica,sans-Serif" font-size="10.00">include/Hermes/Socket</text>
<text text-anchor="middle" x="164.53" y="-155.5" font-family="Helvetica,sans-Serif" font-size="10.00">/Async/AsyncServerSocket.hpp</text>
</a>
</g>
</g>
<!-- Node5&#45;&gt;Node6 -->
<g id="edge8_Node000005_Node000006" class="edge">
<title>Node5&#45;&gt;Node6</title>
<g id="a_edge8_Node000005_Node000006"><a xlink:title=" ">
<path fill="none" stroke="#63b8ff" d="M169.35,-287.22C171.49,-278.83 173.46,-269.62 174.53,-261 178.16,-231.75 172.15,-197.4 167.99,-178.58"/>
<polygon fill="#63b8ff" stroke="#63b8ff" points="165.95,-286.38 166.72,-296.95 172.71,-288.21 165.95,-286.38"/>
</a>
</g>
</g>
<!-- Node7 -->
<g id="Node000007" class="node">
<title>Node7</title>
<g id="a_Node000007"><a xlink:href="_async_listener_socket_8hpp.html" target="_top" xlink:title=" ">
<polygon fill="white" stroke="#666666" points="255.03,-101.5 82.03,-101.5 82.03,-71.5 255.03,-71.5 255.03,-101.5"/>
<text text-anchor="start" x="90.03" y="-89.5" font-family="Helvetica,sans-Serif" font-size="10.00">include/Hermes/Socket</text>
<text text-anchor="middle" x="168.53" y="-78.5" font-family="Helvetica,sans-Serif" font-size="10.00">/Async/AsyncListenerSocket.hpp</text>
</a>
</g>
</g>
<!-- Node6&#45;&gt;Node7 -->
<g id="edge9_Node000006_Node000007" class="edge">
<title>Node6&#45;&gt;Node7</title>
<g id="a_edge9_Node000006_Node000007"><a xlink:title=" ">
<path fill="none" stroke="#63b8ff" d="M165.83,-138.04C166.48,-125.95 167.23,-111.79 167.78,-101.54"/>
<polygon fill="#63b8ff" stroke="#63b8ff" points="162.32,-138.22 165.28,-148.39 169.31,-138.59 162.32,-138.22"/>
</a>
</g>
</g>
<!-- Node8&#45;&gt;Node3 -->
<g id="edge11_Node000008_Node000003" class="edge">
<title>Node8&#45;&gt;Node3</title>
<g id="a_edge11_Node000008_Node000003"><a xlink:title=" ">
<path fill="none" stroke="#63b8ff" d="M76.86,-210.55C61.62,-173.6 42.78,-109.31 72.53,-66 84.37,-48.76 103.05,-37.46 122.6,-30.06"/>
<polygon fill="#63b8ff" stroke="#63b8ff" points="73.65,-211.96 80.82,-219.76 80.08,-209.19 73.65,-211.96"/>
</a>
</g>
</g>
<!-- Node8&#45;&gt;Node6 -->
<g id="edge12_Node000008_Node000006" class="edge">
<title>Node8&#45;&gt;Node6</title>
<g id="a_edge12_Node000008_Node000006"><a xlink:title=" ">
<path fill="none" stroke="#63b8ff" d="M117.1,-212.57C128.33,-201.18 140.96,-188.39 150.36,-178.86"/>
<polygon fill="#63b8ff" stroke="#63b8ff" points="114.5,-210.22 109.97,-219.79 119.49,-215.13 114.5,-210.22"/>
</a>
</g>
</g>
<!-- Node9&#45;&gt;Node2 -->
<g id="edge14_Node000009_Node000002" class="edge">
<title>Node9&#45;&gt;Node2</title>
<g id="a_edge14_Node000009_Node000002"><a xlink:title=" ">
<path fill="none" stroke="#63b8ff" d="M702.39,-363.81C702.75,-344.42 700.62,-317.22 688.53,-297 656.41,-243.28 593.21,-205.18 549.93,-184.02"/>
<polygon fill="#63b8ff" stroke="#63b8ff" points="698.88,-363.81 701.96,-373.95 705.88,-364.1 698.88,-363.81"/>
</a>
</g>
</g>
<!-- Node9&#45;&gt;Node5 -->
<g id="edge15_Node000009_Node000005" class="edge">
<title>Node9&#45;&gt;Node5</title>
<g id="a_edge15_Node000009_Node000005"><a xlink:title=" ">
<path fill="none" stroke="#63b8ff" d="M611.26,-376.51C510.41,-363.53 347.33,-342.54 247.45,-329.69"/>
<polygon fill="#63b8ff" stroke="#63b8ff" points="611.07,-380.01 621.43,-377.82 611.96,-373.07 611.07,-380.01"/>
</a>
</g>
</g>
<!-- Node9&#45;&gt;Node10 -->
<g id="edge16_Node000009_Node000010" class="edge">
<title>Node9&#45;&gt;Node10</title>
<g id="a_edge16_Node000009_Node000010"><a xlink:title=" ">
<path fill="none" stroke="#63b8ff" d="M776.4,-371.82C823.85,-361.71 885.25,-348.62 935.33,-337.94"/>
<polygon fill="#63b8ff" stroke="#63b8ff" points="775.55,-368.43 766.5,-373.94 777.01,-375.27 775.55,-368.43"/>
</a>
</g>
</g>
<!-- Node9&#45;&gt;Node14 -->
<g id="edge21_Node000009_Node000014" class="edge">
<title>Node9&#45;&gt;Node14</title>
<g id="a_edge21_Node000009_Node000014"><a xlink:title=" ">
<path fill="none" stroke="#63b8ff" d="M673.47,-367.77C660.94,-358.42 646.13,-347.35 633.72,-338.07"/>
<polygon fill="#63b8ff" stroke="#63b8ff" points="671.6,-370.75 681.71,-373.94 675.79,-365.15 671.6,-370.75"/>
</a>
</g>
</g>
<!-- Node9&#45;&gt;Node17 -->
<g id="edge27_Node000009_Node000017" class="edge">
<title>Node9&#45;&gt;Node17</title>
<g id="a_edge27_Node000009_Node000017"><a xlink:title=" ">
<path fill="none" stroke="#63b8ff" d="M730.84,-368.31C745.42,-358.84 762.84,-347.53 777.39,-338.07"/>
<polygon fill="#63b8ff" stroke="#63b8ff" points="728.66,-365.55 722.18,-373.94 732.47,-371.42 728.66,-365.55"/>
</a>
</g>
</g>
<!-- Node11 -->
<g id="Node000011" class="node">
<title>Node11</title>
<g id="a_Node000011"><a xlink:href="_server_socket_8hpp.html" target="_top" xlink:title=" ">
<polygon fill="white" stroke="#666666" points="1037.03,-178.5 906.03,-178.5 906.03,-148.5 1037.03,-148.5 1037.03,-178.5"/>
<text text-anchor="start" x="914.03" y="-166.5" font-family="Helvetica,sans-Serif" font-size="10.00">include/Hermes/Socket</text>
<text text-anchor="middle" x="971.53" y="-155.5" font-family="Helvetica,sans-Serif" font-size="10.00">/Sync/ServerSocket.hpp</text>
</a>
</g>
</g>
<!-- Node10&#45;&gt;Node11 -->
<g id="edge17_Node000010_Node000011" class="edge">
<title>Node10&#45;&gt;Node11</title>
<g id="a_edge17_Node000010_Node000011"><a xlink:title=" ">
<path fill="none" stroke="#63b8ff" d="M1086.41,-291.47C1098.45,-283.55 1109.55,-273.51 1116.53,-261 1125.41,-245.09 1126.86,-235.01 1116.53,-220 1098.58,-193.91 1066.56,-180.07 1037.17,-172.74"/>
<polygon fill="#63b8ff" stroke="#63b8ff" points="1084.25,-288.68 1077.51,-296.86 1087.88,-294.67 1084.25,-288.68"/>
</a>
</g>
</g>
<!-- Node10&#45;&gt;Node13 -->
<g id="edge19_Node000010_Node000013" class="edge">
<title>Node10&#45;&gt;Node13</title>
<g id="a_edge19_Node000010_Node000013"><a xlink:title=" ">
<path fill="none" stroke="#63b8ff" d="M1026.53,-286.69C1026.53,-278.08 1026.53,-268.9 1026.53,-261.07"/>
<polygon fill="#63b8ff" stroke="#63b8ff" points="1023.03,-286.79 1026.53,-296.79 1030.03,-286.79 1023.03,-286.79"/>
</a>
</g>
</g>
<!-- Node12 -->
<g id="Node000012" class="node">
<title>Node12</title>
<g id="a_Node000012"><a xlink:href="_listener_socket_8hpp.html" target="_top" xlink:title=" ">
<polygon fill="white" stroke="#666666" points="1040.53,-101.5 902.53,-101.5 902.53,-71.5 1040.53,-71.5 1040.53,-101.5"/>
<text text-anchor="start" x="910.53" y="-89.5" font-family="Helvetica,sans-Serif" font-size="10.00">include/Hermes/Socket</text>
<text text-anchor="middle" x="971.53" y="-78.5" font-family="Helvetica,sans-Serif" font-size="10.00">/Sync/ListenerSocket.hpp</text>
</a>
</g>
</g>
<!-- Node11&#45;&gt;Node12 -->
<g id="edge18_Node000011_Node000012" class="edge">
<title>Node11&#45;&gt;Node12</title>
<g id="a_edge18_Node000011_Node000012"><a xlink:title=" ">
<path fill="none" stroke="#63b8ff" d="M971.53,-138.04C971.53,-125.95 971.53,-111.79 971.53,-101.54"/>
<polygon fill="#63b8ff" stroke="#63b8ff" points="968.03,-138.39 971.53,-148.39 975.03,-138.39 968.03,-138.39"/>
</a>
</g>
</g>
<!-- Node13&#45;&gt;Node11 -->
<g id="edge20_Node000013_Node000011" class="edge">
<title>Node13&#45;&gt;Node11</title>
<g id="a_edge20_Node000013_Node000011"><a xlink:title=" ">
<path fill="none" stroke="#63b8ff" d="M1006.06,-211.59C997.9,-200.46 988.85,-188.12 982.06,-178.86"/>
<polygon fill="#63b8ff" stroke="#63b8ff" points="1003.34,-213.8 1012.08,-219.79 1008.99,-209.66 1003.34,-213.8"/>
</a>
</g>
</g>
<!-- Node15 -->
<g id="Node000015" class="node">
<title>Node15</title>
<g id="a_Node000015"><a xlink:href="_client_socket_8hpp.html" target="_top" xlink:title=" ">
<polygon fill="white" stroke="#666666" points="767.53,-178.5 639.53,-178.5 639.53,-148.5 767.53,-148.5 767.53,-178.5"/>
<text text-anchor="start" x="647.53" y="-166.5" font-family="Helvetica,sans-Serif" font-size="10.00">include/Hermes/Socket</text>
<text text-anchor="middle" x="703.53" y="-155.5" font-family="Helvetica,sans-Serif" font-size="10.00">/Sync/ClientSocket.hpp</text>
</a>
</g>
</g>
<!-- Node14&#45;&gt;Node15 -->
<g id="edge22_Node000014_Node000015" class="edge">
<title>Node14&#45;&gt;Node15</title>
<g id="a_edge22_Node000014_Node000015"><a xlink:title=" ">
<path fill="none" stroke="#63b8ff" d="M625.33,-288.32C645.89,-255.76 678.92,-203.47 694.64,-178.57"/>
<polygon fill="#63b8ff" stroke="#63b8ff" points="622.26,-286.62 619.88,-296.94 628.18,-290.35 622.26,-286.62"/>
</a>
</g>
</g>
<!-- Node14&#45;&gt;Node16 -->
<g id="edge23_Node000014_Node000016" class="edge">
<title>Node14&#45;&gt;Node16</title>
<g id="a_edge23_Node000014_Node000016"><a xlink:title=" ">
<path fill="none" stroke="#63b8ff" d="M564.59,-291.92C547.17,-281.95 527.33,-270.58 510.89,-261.17"/>
<polygon fill="#63b8ff" stroke="#63b8ff" points="563.04,-295.06 573.45,-296.99 566.51,-288.98 563.04,-295.06"/>
</a>
</g>
</g>
<!-- Node16&#45;&gt;Node2 -->
<g id="edge24_Node000016_Node000002" class="edge">
<title>Node16&#45;&gt;Node2</title>
<g id="a_edge24_Node000016_Node000002"><a xlink:title=" ">
<path fill="none" stroke="#63b8ff" d="M487.44,-210.26C490.72,-201.48 494.24,-192.07 497.22,-184.07"/>
<polygon fill="#63b8ff" stroke="#63b8ff" points="484.1,-209.2 483.89,-219.79 490.66,-211.65 484.1,-209.2"/>
</a>
</g>
</g>
<!-- Node16&#45;&gt;Node4 -->
<g id="edge25_Node000016_Node000004" class="edge">
<title>Node16&#45;&gt;Node4</title>
<g id="a_edge25_Node000016_Node000004"><a xlink:title=" ">
<path fill="none" stroke="#63b8ff" d="M439.97,-213.57C429.13,-204.89 417.71,-194.68 408.53,-184 387.98,-160.09 370.62,-127.8 360.63,-107.31"/>
<polygon fill="#63b8ff" stroke="#63b8ff" points="438.06,-216.51 448.1,-219.89 442.35,-210.99 438.06,-216.51"/>
</a>
</g>
</g>
<!-- Node16&#45;&gt;Node15 -->
<g id="edge26_Node000016_Node000015" class="edge">
<title>Node16&#45;&gt;Node15</title>
<g id="a_edge26_Node000016_Node000015"><a xlink:title=" ">
<path fill="none" stroke="#63b8ff" d="M545.46,-216.73C583.07,-204.3 628.44,-189.31 660.91,-178.58"/>
<polygon fill="#63b8ff" stroke="#63b8ff" points="543.98,-213.53 535.58,-219.99 546.17,-220.18 543.98,-213.53"/>
</a>
</g>
</g>
<!-- Node17&#45;&gt;Node11 -->
<g id="edge29_Node000017_Node000011" class="edge">
<title>Node17&#45;&gt;Node11</title>
<g id="a_edge29_Node000017_Node000011"><a xlink:title=" ">
<path fill="none" stroke="#63b8ff" d="M855.82,-291.62C870.35,-282.97 885.8,-272.51 898.53,-261 926.41,-235.77 950.99,-198.64 963.26,-178.59"/>
<polygon fill="#63b8ff" stroke="#63b8ff" points="853.83,-288.73 846.93,-296.77 857.34,-294.79 853.83,-288.73"/>
</a>
</g>
</g>
<!-- Node17&#45;&gt;Node15 -->
<g id="edge28_Node000017_Node000015" class="edge">
<title>Node17&#45;&gt;Node15</title>
<g id="a_edge28_Node000017_Node000015"><a xlink:title=" ">
<path fill="none" stroke="#63b8ff" d="M777.78,-289.86C769.03,-281.17 759.85,-271.14 752.53,-261 733.06,-234.04 717.09,-198.23 709.09,-178.69"/>
<polygon fill="#63b8ff" stroke="#63b8ff" points="775.36,-292.39 784.98,-296.82 780.22,-287.35 775.36,-292.39"/>
</a>
</g>
</g>
<!-- Node18&#45;&gt;Node4 -->
<g id="edge31_Node000018_Node000004" class="edge">
<title>Node18&#45;&gt;Node4</title>
<g id="a_edge31_Node000018_Node000004"><a xlink:title=" ">
<path fill="none" stroke="#63b8ff" d="M426.55,-294.61C417.81,-284.95 408.25,-273.06 401.53,-261 372.92,-209.65 359.4,-140.45 354.21,-107.09"/>
<polygon fill="#63b8ff" stroke="#63b8ff" points="424.23,-297.25 433.62,-302.15 429.34,-292.46 424.23,-297.25"/>
</a>
</g>
</g>
<!-- Node18&#45;&gt;Node8 -->
<g id="edge32_Node000018_Node000008" class="edge">
<title>Node18&#45;&gt;Node8</title>
<g id="a_edge32_Node000018_Node000008"><a xlink:title=" ">
<path fill="none" stroke="#63b8ff" d="M371.69,-300.4C310.92,-287.67 226.54,-269.99 166.1,-257.33"/>
<polygon fill="#63b8ff" stroke="#63b8ff" points="371.11,-303.86 381.61,-302.48 372.54,-297 371.11,-303.86"/>
</a>
</g>
</g>
<!-- Node18&#45;&gt;Node13 -->
<g id="edge33_Node000018_Node000013" class="edge">
<title>Node18&#45;&gt;Node13</title>
<g id="a_edge33_Node000018_Node000013"><a xlink:title=" ">
<path fill="none" stroke="#63b8ff" d="M510.19,-300.19C515.7,-299.01 521.2,-297.92 526.53,-297 690.22,-268.78 733.7,-281.52 898.53,-261 913.81,-259.1 930.08,-256.82 945.71,-254.5"/>
<polygon fill="#63b8ff" stroke="#63b8ff" points="509.31,-296.8 500.33,-302.41 510.85,-303.63 509.31,-296.8"/>
</a>
</g>
</g>
<!-- Node18&#45;&gt;Node16 -->
<g id="edge34_Node000018_Node000016" class="edge">
<title>Node18&#45;&gt;Node16</title>
<g id="a_edge34_Node000018_Node000016"><a xlink:title=" ">
<path fill="none" stroke="#63b8ff" d="M457.35,-292.87C461.15,-282.69 465.55,-270.91 469.17,-261.2"/>
<polygon fill="#63b8ff" stroke="#63b8ff" points="454.01,-291.8 453.8,-302.39 460.57,-294.25 454.01,-291.8"/>
</a>
</g>
</g>
<!-- Node18&#45;&gt;Node19 -->
<g id="edge35_Node000018_Node000019" class="edge">
<title>Node18&#45;&gt;Node19</title>
<g id="a_edge35_Node000018_Node000019"><a xlink:title=" ">
<path fill="none" stroke="#63b8ff" d="M512.99,-300.06C517.57,-298.99 522.11,-297.96 526.53,-297 607.14,-279.46 700.73,-262.66 761.43,-252.22"/>
<polygon fill="#63b8ff" stroke="#63b8ff" points="511.9,-296.72 502.98,-302.43 513.52,-303.53 511.9,-296.72"/>
</a>
</g>
</g>
<!-- Node19&#45;&gt;Node11 -->
<g id="edge37_Node000019_Node000011" class="edge">
<title>Node19&#45;&gt;Node11</title>
<g id="a_edge37_Node000019_Node000011"><a xlink:title=" ">
<path fill="none" stroke="#63b8ff" d="M872.63,-215.3C896.16,-203.22 923.81,-189.01 943.89,-178.7"/>
<polygon fill="#63b8ff" stroke="#63b8ff" points="870.8,-212.31 863.51,-219.99 874,-218.53 870.8,-212.31"/>
</a>
</g>
</g>
<!-- Node19&#45;&gt;Node15 -->
<g id="edge36_Node000019_Node000015" class="edge">
<title>Node19&#45;&gt;Node15</title>
<g id="a_edge36_Node000019_Node000015"><a xlink:title=" ">
<path fill="none" stroke="#63b8ff" d="M785.12,-214.66C765.69,-202.71 743.1,-188.83 726.63,-178.7"/>
<polygon fill="#63b8ff" stroke="#63b8ff" points="783.44,-217.73 793.79,-219.99 787.11,-211.77 783.44,-217.73"/>
</a>
</g>
</g>
</g>
</svg>
