<?xml version="1.0" encoding="UTF-8" standalone="no"?>
<!DOCTYPE svg PUBLIC "-//W3C//DTD SVG 1.1//EN"
 "http://www.w3.org/Graphics/SVG/1.1/DTD/svg11.dtd">
<!-- Generated by graphviz version 2.43.0 (0)
 -->
<!-- Title: include/Hermes/Socket/_base.hpp Pages: 1 -->
<svg width="3054pt" height="302pt"
 viewBox="0.00 0.00 3054.00 302.00" xmlns="http://www.w3.org/2000/svg" xmlns:xlink="http://www.w3.org/1999/xlink">
<g id="graph0" class="graph" transform="scale(1 1) rotate(0) translate(4 298)">
<title>include/Hermes/Socket/_base.hpp</title>
<!-- Node1 -->
<g id="Node000001" class="node">
<title>Node1</title>
<g id="a_Node000001"><a xlink:title=" ">
<polygon fill="#999999" stroke="#666666" points="774,-294 646,-294 646,-264 774,-264 774,-294"/>
<text text-anchor="start" x="654" y="-282" font-family="Helvetica,sans-Serif" font-size="10.00">include/Hermes/Socket</text>
<text text-anchor="middle" x="710" y="-271" font-family="Helvetica,sans-Serif" font-size="10.00">/_base.hpp</text>
</a>
</g>
</g>
<!-- Node2 -->
<g id="Node000002" class="node">
<title>Node2</title>
<g id="a_Node000002"><a xlink:href="_endpoint_concept_8hpp.html" target="_top" xlink:title=" ">
<polygon fill="white" stroke="#666666" points="663,-228 531,-228 531,-198 663,-198 663,-228"/>
<text text-anchor="start" x="539" y="-216" font-family="Helvetica,sans-Serif" font-size="10.00">Hermes/Endpoint/_base</text>
<text text-anchor="middle" x="597" y="-205" font-family="Helvetica,sans-Serif" font-size="10.00">/EndpointConcept.hpp</text>
</a>
</g>
</g>
<!-- Node1&#45;&gt;Node2 -->
<g id="edge1_Node000001_Node000002" class="edge">
<title>Node1&#45;&gt;Node2</title>
<g id="a_edge1_Node000001_Node000002"><a xlink:title=" ">
<path fill="none" stroke="#63b8ff" d="M685.2,-263.95C669.16,-254.87 648.07,-242.93 630.54,-233"/>
<polygon fill="#63b8ff" stroke="#63b8ff" points="632.17,-229.9 621.74,-228.01 628.72,-235.99 632.17,-229.9"/>
</a>
</g>
</g>
<!-- Node3 -->
<g id="Node000003" class="node">
<title>Node3</title>
<g id="a_Node000003"><a xlink:href="_connection_error_enum_8hpp.html" target="_top" xlink:title=" ">
<polygon fill="white" stroke="#666666" points="586.5,-162 419.5,-162 419.5,-132 586.5,-132 586.5,-162"/>
<text text-anchor="start" x="427.5" y="-150" font-family="Helvetica,sans-Serif" font-size="10.00">Hermes/_base/ConnectionError</text>
<text text-anchor="middle" x="503" y="-139" font-family="Helvetica,sans-Serif" font-size="10.00">Enum.hpp</text>
</a>
</g>
</g>
<!-- Node1&#45;&gt;Node3 -->
<g id="edge35_Node000001_Node000003" class="edge">
<title>Node1&#45;&gt;Node3</title>
<g id="a_edge35_Node000001_Node000003"><a xlink:title=" ">
<path fill="none" stroke="#63b8ff" d="M645.92,-277.03C605.1,-272.96 554.04,-260.91 522,-228 507.73,-213.35 503.48,-190.04 502.51,-172.35"/>
<polygon fill="#63b8ff" stroke="#63b8ff" points="506,-172.11 502.26,-162.2 499.01,-172.28 506,-172.11"/>
</a>
</g>
</g>
<!-- Node8 -->
<g id="Node000008" class="node">
<title>Node8</title>
<g id="a_Node000008"><a xlink:title=" ">
<polygon fill="#e0e0e0" stroke="#999999" points="753.5,-85 628.5,-85 628.5,-66 753.5,-66 753.5,-85"/>
<text text-anchor="middle" x="691" y="-73" font-family="Helvetica,sans-Serif" font-size="10.00">stdexec/execution.hpp</text>
</a>
</g>
</g>
<!-- Node1&#45;&gt;Node8 -->
<g id="edge37_Node000001_Node000008" class="edge">
<title>Node1&#45;&gt;Node8</title>
<g id="a_edge37_Node000001_Node000008"><a xlink:title=" ">
<path fill="none" stroke="#63b8ff" d="M708.66,-263.83C705.31,-228.28 696.55,-135.31 692.77,-95.28"/>
<polygon fill="#63b8ff" stroke="#63b8ff" points="696.23,-94.7 691.81,-85.08 689.26,-95.36 696.23,-94.7"/>
</a>
</g>
</g>
<!-- Node11 -->
<g id="Node000011" class="node">
<title>Node11</title>
<g id="a_Node000011"><a xlink:href="_os_api_8hpp.html" target="_top" xlink:title=" ">
<polygon fill="white" stroke="#666666" points="2102,-162 1984,-162 1984,-132 2102,-132 2102,-162"/>
<text text-anchor="start" x="1992" y="-150" font-family="Helvetica,sans-Serif" font-size="10.00">Hermes/_base/OsApi</text>
<text text-anchor="middle" x="2043" y="-139" font-family="Helvetica,sans-Serif" font-size="10.00">/OsApi.hpp</text>
</a>
</g>
</g>
<!-- Node1&#45;&gt;Node11 -->
<g id="edge36_Node000001_Node000011" class="edge">
<title>Node1&#45;&gt;Node11</title>
<g id="a_edge36_Node000001_Node000011"><a xlink:title=" ">
<path fill="none" stroke="#63b8ff" d="M712.19,-263.81C715.92,-245.12 725.41,-212.9 748,-198 799.47,-164.06 1712.22,-151.59 1973.59,-148.7"/>
<polygon fill="#63b8ff" stroke="#63b8ff" points="1973.75,-152.2 1983.72,-148.59 1973.68,-145.2 1973.75,-152.2"/>
</a>
</g>
</g>
<!-- Node30 -->
<g id="Node000030" class="node">
<title>Node30</title>
<g id="a_Node000030"><a xlink:title=" ">
<polygon fill="#e0e0e0" stroke="#999999" points="817,-222.5 757,-222.5 757,-203.5 817,-203.5 817,-222.5"/>
<text text-anchor="middle" x="787" y="-210.5" font-family="Helvetica,sans-Serif" font-size="10.00">concepts</text>
</a>
</g>
</g>
<!-- Node1&#45;&gt;Node30 -->
<g id="edge38_Node000001_Node000030" class="edge">
<title>Node1&#45;&gt;Node30</title>
<g id="a_edge38_Node000001_Node000030"><a xlink:title=" ">
<path fill="none" stroke="#63b8ff" d="M727.09,-263.8C739.33,-253.62 755.8,-239.93 768.38,-229.48"/>
<polygon fill="#63b8ff" stroke="#63b8ff" points="770.91,-231.93 776.36,-222.84 766.43,-226.54 770.91,-231.93"/>
</a>
</g>
</g>
<!-- Node31 -->
<g id="Node000031" class="node">
<title>Node31</title>
<g id="a_Node000031"><a xlink:title=" ">
<polygon fill="#e0e0e0" stroke="#999999" points="885,-222.5 835,-222.5 835,-203.5 885,-203.5 885,-222.5"/>
<text text-anchor="middle" x="860" y="-210.5" font-family="Helvetica,sans-Serif" font-size="10.00">ranges</text>
</a>
</g>
</g>
<!-- Node1&#45;&gt;Node31 -->
<g id="edge39_Node000001_Node000031" class="edge">
<title>Node1&#45;&gt;Node31</title>
<g id="a_edge39_Node000001_Node000031"><a xlink:title=" ">
<path fill="none" stroke="#63b8ff" d="M742.92,-263.95C769.11,-252.78 805.42,-237.29 830.63,-226.53"/>
<polygon fill="#63b8ff" stroke="#63b8ff" points="832.21,-229.66 840.04,-222.52 829.47,-223.22 832.21,-229.66"/>
</a>
</g>
</g>
<!-- Node2&#45;&gt;Node3 -->
<g id="edge2_Node000002_Node000003" class="edge">
<title>Node2&#45;&gt;Node3</title>
<g id="a_edge2_Node000002_Node000003"><a xlink:title=" ">
<path fill="none" stroke="#63b8ff" d="M576.14,-197.8C563.24,-189.01 546.49,-177.61 532.27,-167.93"/>
<polygon fill="#63b8ff" stroke="#63b8ff" points="534.04,-164.9 523.8,-162.16 530.1,-170.69 534.04,-164.9"/>
</a>
</g>
</g>
<!-- Node2&#45;&gt;Node11 -->
<g id="edge10_Node000002_Node000011" class="edge">
<title>Node2&#45;&gt;Node11</title>
<g id="a_edge10_Node000002_Node000011"><a xlink:title=" ">
<path fill="none" stroke="#63b8ff" d="M663.06,-203.21C679.97,-201.23 698.13,-199.32 715,-198 1195.77,-160.49 1776.72,-150.9 1973.79,-148.64"/>
<polygon fill="#63b8ff" stroke="#63b8ff" points="1974.04,-152.14 1984,-148.53 1973.96,-145.14 1974.04,-152.14"/>
</a>
</g>
</g>
<!-- Node4 -->
<g id="Node000004" class="node">
<title>Node4</title>
<g id="a_Node000004"><a xlink:title=" ">
<polygon fill="#e0e0e0" stroke="#999999" points="399,-85 337,-85 337,-66 399,-66 399,-85"/>
<text text-anchor="middle" x="368" y="-73" font-family="Helvetica,sans-Serif" font-size="10.00">expected</text>
</a>
</g>
</g>
<!-- Node3&#45;&gt;Node4 -->
<g id="edge3_Node000003_Node000004" class="edge">
<title>Node3&#45;&gt;Node4</title>
<g id="a_edge3_Node000003_Node000004"><a xlink:title=" ">
<path fill="none" stroke="#63b8ff" d="M475.68,-131.94C451.71,-119.59 417.11,-101.78 393.65,-89.7"/>
<polygon fill="#63b8ff" stroke="#63b8ff" points="395.14,-86.53 384.64,-85.07 391.93,-92.76 395.14,-86.53"/>
</a>
</g>
</g>
<!-- Node5 -->
<g id="Node000005" class="node">
<title>Node5</title>
<g id="a_Node000005"><a xlink:title=" ">
<polygon fill="#e0e0e0" stroke="#999999" points="464.5,-85 417.5,-85 417.5,-66 464.5,-66 464.5,-85"/>
<text text-anchor="middle" x="441" y="-73" font-family="Helvetica,sans-Serif" font-size="10.00">vector</text>
</a>
</g>
</g>
<!-- Node3&#45;&gt;Node5 -->
<g id="edge4_Node000003_Node000005" class="edge">
<title>Node3&#45;&gt;Node5</title>
<g id="a_edge4_Node000003_Node000005"><a xlink:title=" ">
<path fill="none" stroke="#63b8ff" d="M490.45,-131.94C480.33,-120.59 466.09,-104.62 455.48,-92.74"/>
<polygon fill="#63b8ff" stroke="#63b8ff" points="458.09,-90.4 448.82,-85.27 452.87,-95.06 458.09,-90.4"/>
</a>
</g>
</g>
<!-- Node6 -->
<g id="Node000006" class="node">
<title>Node6</title>
<g id="a_Node000006"><a xlink:title=" ">
<polygon fill="#e0e0e0" stroke="#999999" points="523,-85 483,-85 483,-66 523,-66 523,-85"/>
<text text-anchor="middle" x="503" y="-73" font-family="Helvetica,sans-Serif" font-size="10.00">span</text>
</a>
</g>
</g>
<!-- Node3&#45;&gt;Node6 -->
<g id="edge5_Node000003_Node000006" class="edge">
<title>Node3&#45;&gt;Node6</title>
<g id="a_edge5_Node000003_Node000006"><a xlink:title=" ">
<path fill="none" stroke="#63b8ff" d="M503,-131.94C503,-121.46 503,-107.05 503,-95.55"/>
<polygon fill="#63b8ff" stroke="#63b8ff" points="506.5,-95.27 503,-85.27 499.5,-95.27 506.5,-95.27"/>
</a>
</g>
</g>
<!-- Node7 -->
<g id="Node000007" class="node">
<title>Node7</title>
<g id="a_Node000007"><a xlink:title=" ">
<polygon fill="#e0e0e0" stroke="#999999" points="610.5,-85 541.5,-85 541.5,-66 610.5,-66 610.5,-85"/>
<text text-anchor="middle" x="576" y="-73" font-family="Helvetica,sans-Serif" font-size="10.00">type_traits</text>
</a>
</g>
</g>
<!-- Node3&#45;&gt;Node7 -->
<g id="edge6_Node000003_Node000007" class="edge">
<title>Node3&#45;&gt;Node7</title>
<g id="a_edge6_Node000003_Node000007"><a xlink:title=" ">
<path fill="none" stroke="#63b8ff" d="M517.77,-131.94C529.8,-120.48 546.78,-104.32 559.3,-92.4"/>
<polygon fill="#63b8ff" stroke="#63b8ff" points="561.96,-94.7 566.79,-85.27 557.14,-89.63 561.96,-94.7"/>
</a>
</g>
</g>
<!-- Node3&#45;&gt;Node8 -->
<g id="edge7_Node000003_Node000008" class="edge">
<title>Node3&#45;&gt;Node8</title>
<g id="a_edge7_Node000003_Node000008"><a xlink:title=" ">
<path fill="none" stroke="#63b8ff" d="M541.04,-131.94C575.47,-119.21 625.63,-100.67 658.29,-88.59"/>
<polygon fill="#63b8ff" stroke="#63b8ff" points="659.66,-91.82 667.82,-85.07 657.23,-85.25 659.66,-91.82"/>
</a>
</g>
</g>
<!-- Node9 -->
<g id="Node000009" class="node">
<title>Node9</title>
<g id="a_Node000009"><a xlink:title=" ">
<polygon fill="#e0e0e0" stroke="#999999" points="134,-85 0,-85 0,-66 134,-66 134,-85"/>
<text text-anchor="middle" x="67" y="-73" font-family="Helvetica,sans-Serif" font-size="10.00">exec/any_sender_of.hpp</text>
</a>
</g>
</g>
<!-- Node3&#45;&gt;Node9 -->
<g id="edge8_Node000003_Node000009" class="edge">
<title>Node3&#45;&gt;Node9</title>
<g id="a_edge8_Node000003_Node000009"><a xlink:title=" ">
<path fill="none" stroke="#63b8ff" d="M419.26,-137.09C346.01,-128.65 236.95,-114.51 143,-96 131.22,-93.68 118.53,-90.64 106.97,-87.66"/>
<polygon fill="#63b8ff" stroke="#63b8ff" points="107.71,-84.23 97.15,-85.07 105.92,-91 107.71,-84.23"/>
</a>
</g>
</g>
<!-- Node10 -->
<g id="Node000010" class="node">
<title>Node10</title>
<g id="a_Node000010"><a xlink:title=" ">
<polygon fill="#e0e0e0" stroke="#999999" points="319.5,-90.5 152.5,-90.5 152.5,-60.5 319.5,-60.5 319.5,-90.5"/>
<text text-anchor="start" x="160.5" y="-78.5" font-family="Helvetica,sans-Serif" font-size="10.00">Hermes/_base/ConnectionError</text>
<text text-anchor="middle" x="236" y="-67.5" font-family="Helvetica,sans-Serif" font-size="10.00">Enum.tpp</text>
</a>
</g>
</g>
<!-- Node3&#45;&gt;Node10 -->
<g id="edge9_Node000003_Node000010" class="edge">
<title>Node3&#45;&gt;Node10</title>
<g id="a_edge9_Node000003_Node000010"><a xlink:title=" ">
<path fill="none" stroke="#63b8ff" d="M448.97,-131.94C405.81,-120.7 345.23,-104.93 299.72,-93.09"/>
<polygon fill="#63b8ff" stroke="#63b8ff" points="300.51,-89.68 289.95,-90.54 298.75,-96.45 300.51,-89.68"/>
</a>
</g>
</g>
<!-- Node12 -->
<g id="Node000012" class="node">
<title>Node12</title>
<g id="a_Node000012"><a xlink:title=" ">
<polygon fill="#e0e0e0" stroke="#999999" points="2135.5,-19 2058.5,-19 2058.5,0 2135.5,0 2135.5,-19"/>
<text text-anchor="middle" x="2097" y="-7" font-family="Helvetica,sans-Serif" font-size="10.00">sys/socket.h</text>
</a>
</g>
</g>
<!-- Node11&#45;&gt;Node12 -->
<g id="edge11_Node000011_Node000012" class="edge">
<title>Node11&#45;&gt;Node12</title>
<g id="a_edge11_Node000011_Node000012"><a xlink:title=" ">
<path fill="none" stroke="#63b8ff" d="M2055.79,-131.69C2063.62,-122.2 2073.21,-109.11 2079,-96 2088.6,-74.26 2093.19,-47.1 2095.31,-29.3"/>
<polygon fill="#63b8ff" stroke="#63b8ff" points="2098.82,-29.42 2096.37,-19.11 2091.85,-28.69 2098.82,-29.42"/>
</a>
</g>
</g>
<!-- Node13 -->
<g id="Node000013" class="node">
<title>Node13</title>
<g id="a_Node000013"><a xlink:title=" ">
<polygon fill="#e0e0e0" stroke="#999999" points="2565,-19 2493,-19 2493,0 2565,0 2565,-19"/>
<text text-anchor="middle" x="2529" y="-7" font-family="Helvetica,sans-Serif" font-size="10.00">netinet/in.h</text>
</a>
</g>
</g>
<!-- Node11&#45;&gt;Node13 -->
<g id="edge12_Node000011_Node000013" class="edge">
<title>Node11&#45;&gt;Node13</title>
<g id="a_edge12_Node000011_Node000013"><a xlink:title=" ">
<path fill="none" stroke="#63b8ff" d="M2102.22,-143.53C2199.23,-138.67 2387.14,-125.67 2446,-96 2468.46,-84.68 2467.49,-73.05 2485,-55 2494.17,-45.54 2504.53,-35.06 2512.88,-26.65"/>
<polygon fill="#63b8ff" stroke="#63b8ff" points="2515.61,-28.87 2520.18,-19.32 2510.65,-23.93 2515.61,-28.87"/>
</a>
</g>
</g>
<!-- Node14 -->
<g id="Node000014" class="node">
<title>Node14</title>
<g id="a_Node000014"><a xlink:title=" ">
<polygon fill="#e0e0e0" stroke="#999999" points="2771.5,-85 2702.5,-85 2702.5,-66 2771.5,-66 2771.5,-85"/>
<text text-anchor="middle" x="2737" y="-73" font-family="Helvetica,sans-Serif" font-size="10.00">arpa/inet.h</text>
</a>
</g>
</g>
<!-- Node11&#45;&gt;Node14 -->
<g id="edge13_Node000011_Node000014" class="edge">
<title>Node11&#45;&gt;Node14</title>
<g id="a_edge13_Node000011_Node000014"><a xlink:title=" ">
<path fill="none" stroke="#63b8ff" d="M2102.1,-144.09C2240.62,-139.19 2582.9,-124.51 2694,-96 2700.1,-94.43 2706.42,-92.05 2712.27,-89.48"/>
<polygon fill="#63b8ff" stroke="#63b8ff" points="2714.01,-92.53 2721.55,-85.09 2711.02,-86.2 2714.01,-92.53"/>
</a>
</g>
</g>
<!-- Node15 -->
<g id="Node000015" class="node">
<title>Node15</title>
<g id="a_Node000015"><a xlink:title=" ">
<polygon fill="#e0e0e0" stroke="#999999" points="2876.5,-19 2823.5,-19 2823.5,0 2876.5,0 2876.5,-19"/>
<text text-anchor="middle" x="2850" y="-7" font-family="Helvetica,sans-Serif" font-size="10.00">netdb.h</text>
</a>
</g>
</g>
<!-- Node11&#45;&gt;Node15 -->
<g id="edge14_Node000011_Node000015" class="edge">
<title>Node11&#45;&gt;Node15</title>
<g id="a_edge14_Node000011_Node000015"><a xlink:title=" ">
<path fill="none" stroke="#63b8ff" d="M2102.18,-144.7C2266.71,-140.71 2721.44,-126.99 2781,-96 2788.65,-92.02 2819.94,-50.97 2837.64,-27.23"/>
<polygon fill="#63b8ff" stroke="#63b8ff" points="2840.53,-29.21 2843.68,-19.09 2834.91,-25.04 2840.53,-29.21"/>
</a>
</g>
</g>
<!-- Node16 -->
<g id="Node000016" class="node">
<title>Node16</title>
<g id="a_Node000016"><a xlink:title=" ">
<polygon fill="#e0e0e0" stroke="#999999" points="3046,-85 2990,-85 2990,-66 3046,-66 3046,-85"/>
<text text-anchor="middle" x="3018" y="-73" font-family="Helvetica,sans-Serif" font-size="10.00">unistd.h</text>
</a>
</g>
</g>
<!-- Node11&#45;&gt;Node16 -->
<g id="edge15_Node000011_Node000016" class="edge">
<title>Node11&#45;&gt;Node16</title>
<g id="a_edge15_Node000011_Node000016"><a xlink:title=" ">
<path fill="none" stroke="#63b8ff" d="M2102.15,-146.15C2281.08,-146.09 2814.46,-141.94 2981,-96 2985.99,-94.62 2991.06,-92.5 2995.8,-90.16"/>
<polygon fill="#63b8ff" stroke="#63b8ff" points="2997.78,-93.06 3004.88,-85.2 2994.43,-86.92 2997.78,-93.06"/>
</a>
</g>
</g>
<!-- Node17 -->
<g id="Node000017" class="node">
<title>Node17</title>
<g id="a_Node000017"><a xlink:href="_conversion_and_literals_8hpp.html" target="_top" xlink:title=" ">
<polygon fill="white" stroke="#666666" points="922,-90.5 772,-90.5 772,-60.5 922,-60.5 922,-90.5"/>
<text text-anchor="start" x="780" y="-78.5" font-family="Helvetica,sans-Serif" font-size="10.00">Hermes/_base/OsApi</text>
<text text-anchor="middle" x="847" y="-67.5" font-family="Helvetica,sans-Serif" font-size="10.00">/ConversionAndLiterals.hpp</text>
</a>
</g>
</g>
<!-- Node11&#45;&gt;Node17 -->
<g id="edge16_Node000011_Node000017" class="edge">
<title>Node11&#45;&gt;Node17</title>
<g id="a_edge16_Node000011_Node000017"><a xlink:title=" ">
<path fill="none" stroke="#63b8ff" d="M1983.8,-144.77C1784.26,-140.4 1137.29,-124.34 931,-96 924.42,-95.1 917.6,-93.92 910.82,-92.59"/>
<polygon fill="#63b8ff" stroke="#63b8ff" points="911.45,-89.15 900.95,-90.56 910.04,-96.01 911.45,-89.15"/>
</a>
</g>
</g>
<!-- Node19 -->
<g id="Node000019" class="node">
<title>Node19</title>
<g id="a_Node000019"><a xlink:href="_macros_8hpp.html" target="_top" xlink:title=" ">
<polygon fill="white" stroke="#666666" points="2437,-90.5 2319,-90.5 2319,-60.5 2437,-60.5 2437,-90.5"/>
<text text-anchor="start" x="2327" y="-78.5" font-family="Helvetica,sans-Serif" font-size="10.00">Hermes/_base/OsApi</text>
<text text-anchor="middle" x="2378" y="-67.5" font-family="Helvetica,sans-Serif" font-size="10.00">/Macros.hpp</text>
</a>
</g>
</g>
<!-- Node11&#45;&gt;Node19 -->
<g id="edge18_Node000011_Node000019" class="edge">
<title>Node11&#45;&gt;Node19</title>
<g id="a_edge18_Node000011_Node000019"><a xlink:title=" ">
<path fill="none" stroke="#63b8ff" d="M2102.19,-136.56C2156.52,-127.51 2239.09,-112.77 2310,-96 2313.79,-95.1 2317.69,-94.13 2321.6,-93.11"/>
<polygon fill="#63b8ff" stroke="#63b8ff" points="2322.57,-96.48 2331.33,-90.51 2320.77,-89.71 2322.57,-96.48"/>
</a>
</g>
</g>
<!-- Node21 -->
<g id="Node000021" class="node">
<title>Node21</title>
<g id="a_Node000021"><a xlink:href="_address_family_enum_8hpp.html" target="_top" xlink:title=" ">
<polygon fill="white" stroke="#666666" points="2301,-90.5 2125,-90.5 2125,-60.5 2301,-60.5 2301,-90.5"/>
<text text-anchor="start" x="2133" y="-78.5" font-family="Helvetica,sans-Serif" font-size="10.00">Hermes/_base/OsApi</text>
<text text-anchor="middle" x="2213" y="-67.5" font-family="Helvetica,sans-Serif" font-size="10.00">/Enums/AddressFamilyEnum.hpp</text>
</a>
</g>
</g>
<!-- Node11&#45;&gt;Node21 -->
<g id="edge21_Node000011_Node000021" class="edge">
<title>Node11&#45;&gt;Node21</title>
<g id="a_edge21_Node000011_Node000021"><a xlink:title=" ">
<path fill="none" stroke="#63b8ff" d="M2077.4,-131.94C2103.9,-121.1 2140.71,-106.05 2169.3,-94.37"/>
<polygon fill="#63b8ff" stroke="#63b8ff" points="2170.72,-97.57 2178.65,-90.54 2168.07,-91.09 2170.72,-97.57"/>
</a>
</g>
</g>
<!-- Node22 -->
<g id="Node000022" class="node">
<title>Node22</title>
<g id="a_Node000022"><a xlink:href="_protocol_base_type_enum_8hpp.html" target="_top" xlink:title=" ">
<polygon fill="white" stroke="#666666" points="2684.5,-90.5 2493.5,-90.5 2493.5,-60.5 2684.5,-60.5 2684.5,-90.5"/>
<text text-anchor="start" x="2501.5" y="-78.5" font-family="Helvetica,sans-Serif" font-size="10.00">Hermes/_base/OsApi</text>
<text text-anchor="middle" x="2589" y="-67.5" font-family="Helvetica,sans-Serif" font-size="10.00">/Enums/ProtocolBaseTypeEnum.hpp</text>
</a>
</g>
</g>
<!-- Node11&#45;&gt;Node22 -->
<g id="edge23_Node000011_Node000022" class="edge">
<title>Node11&#45;&gt;Node22</title>
<g id="a_edge23_Node000011_Node000022"><a xlink:title=" ">
<path fill="none" stroke="#63b8ff" d="M2102.03,-140.39C2185.99,-132.15 2344.61,-115.6 2479,-96 2486.91,-94.85 2495.13,-93.56 2503.35,-92.21"/>
<polygon fill="#63b8ff" stroke="#63b8ff" points="2504.07,-95.64 2513.36,-90.54 2502.92,-88.73 2504.07,-95.64"/>
</a>
</g>
</g>
<!-- Node23 -->
<g id="Node000023" class="node">
<title>Node23</title>
<g id="a_Node000023"><a xlink:href="_socket_shutdown_enum_8hpp.html" target="_top" xlink:title=" ">
<polygon fill="white" stroke="#666666" points="1892.5,-90.5 1707.5,-90.5 1707.5,-60.5 1892.5,-60.5 1892.5,-90.5"/>
<text text-anchor="start" x="1715.5" y="-78.5" font-family="Helvetica,sans-Serif" font-size="10.00">Hermes/_base/OsApi</text>
<text text-anchor="middle" x="1800" y="-67.5" font-family="Helvetica,sans-Serif" font-size="10.00">/Enums/SocketShutdownEnum.hpp</text>
</a>
</g>
</g>
<!-- Node11&#45;&gt;Node23 -->
<g id="edge25_Node000011_Node000023" class="edge">
<title>Node11&#45;&gt;Node23</title>
<g id="a_edge25_Node000011_Node000023"><a xlink:title=" ">
<path fill="none" stroke="#63b8ff" d="M1993.83,-131.94C1954.79,-120.77 1900.11,-105.13 1858.77,-93.31"/>
<polygon fill="#63b8ff" stroke="#63b8ff" points="1859.68,-89.93 1849.1,-90.54 1857.75,-96.66 1859.68,-89.93"/>
</a>
</g>
</g>
<!-- Node24 -->
<g id="Node000024" class="node">
<title>Node24</title>
<g id="a_Node000024"><a xlink:href="_socket_type_enum_8hpp.html" target="_top" xlink:title=" ">
<polygon fill="white" stroke="#666666" points="2069.5,-90.5 1910.5,-90.5 1910.5,-60.5 2069.5,-60.5 2069.5,-90.5"/>
<text text-anchor="start" x="1918.5" y="-78.5" font-family="Helvetica,sans-Serif" font-size="10.00">Hermes/_base/OsApi</text>
<text text-anchor="middle" x="1990" y="-67.5" font-family="Helvetica,sans-Serif" font-size="10.00">/Enums/SocketTypeEnum.hpp</text>
</a>
</g>
</g>
<!-- Node11&#45;&gt;Node24 -->
<g id="edge27_Node000011_Node000024" class="edge">
<title>Node11&#45;&gt;Node24</title>
<g id="a_edge27_Node000011_Node000024"><a xlink:title=" ">
<path fill="none" stroke="#63b8ff" d="M2032.27,-131.94C2025.02,-122.42 2015.28,-109.65 2006.98,-98.77"/>
<polygon fill="#63b8ff" stroke="#63b8ff" points="2009.56,-96.37 2000.71,-90.54 2003.99,-100.62 2009.56,-96.37"/>
</a>
</g>
</g>
<!-- Node25 -->
<g id="Node000025" class="node">
<title>Node25</title>
<g id="a_Node000025"><a xlink:href="_linux_2_encrypt_status_enum_8hpp.html" target="_top" xlink:title=" ">
<polygon fill="white" stroke="#666666" points="1092,-96 940,-96 940,-55 1092,-55 1092,-96"/>
<text text-anchor="start" x="948" y="-84" font-family="Helvetica,sans-Serif" font-size="10.00">Hermes/_base/OsApi</text>
<text text-anchor="start" x="948" y="-73" font-family="Helvetica,sans-Serif" font-size="10.00">/Enums/Linux/EncryptStatus</text>
<text text-anchor="middle" x="1016" y="-62" font-family="Helvetica,sans-Serif" font-size="10.00">Enum.hpp</text>
</a>
</g>
</g>
<!-- Node11&#45;&gt;Node25 -->
<g id="edge29_Node000011_Node000025" class="edge">
<title>Node11&#45;&gt;Node25</title>
<g id="a_edge29_Node000011_Node000025"><a xlink:title=" ">
<path fill="none" stroke="#63b8ff" d="M1983.97,-146.39C1836.52,-146.61 1440.31,-142.54 1102.32,-96.05"/>
<polygon fill="#63b8ff" stroke="#63b8ff" points="1102.73,-92.58 1092.34,-94.67 1101.76,-99.51 1102.73,-92.58"/>
</a>
</g>
</g>
<!-- Node26 -->
<g id="Node000026" class="node">
<title>Node26</title>
<g id="a_Node000026"><a xlink:href="_name_info_flags_8hpp.html" target="_top" xlink:title=" ">
<polygon fill="white" stroke="#666666" points="2972,-90.5 2828,-90.5 2828,-60.5 2972,-60.5 2972,-90.5"/>
<text text-anchor="start" x="2836" y="-78.5" font-family="Helvetica,sans-Serif" font-size="10.00">Hermes/_base/OsApi</text>
<text text-anchor="middle" x="2900" y="-67.5" font-family="Helvetica,sans-Serif" font-size="10.00">/Flags/NameInfoFlags.hpp</text>
</a>
</g>
</g>
<!-- Node11&#45;&gt;Node26 -->
<g id="edge30_Node000011_Node000026" class="edge">
<title>Node11&#45;&gt;Node26</title>
<g id="a_edge30_Node000011_Node000026"><a xlink:title=" ">
<path fill="none" stroke="#63b8ff" d="M2102.33,-145.34C2232.08,-143.21 2550.49,-134.17 2814,-96 2820.52,-95.06 2827.27,-93.88 2833.99,-92.57"/>
<polygon fill="#63b8ff" stroke="#63b8ff" points="2834.7,-96 2843.8,-90.58 2833.3,-89.14 2834.7,-96"/>
</a>
</g>
</g>
<!-- Node27 -->
<g id="Node000027" class="node">
<title>Node27</title>
<g id="a_Node000027"><a xlink:href="_linux_2_credential_flags_8hpp.html" target="_top" xlink:title=" ">
<polygon fill="white" stroke="#666666" points="1286,-90.5 1110,-90.5 1110,-60.5 1286,-60.5 1286,-90.5"/>
<text text-anchor="start" x="1118" y="-78.5" font-family="Helvetica,sans-Serif" font-size="10.00">Hermes/_base/OsApi</text>
<text text-anchor="middle" x="1198" y="-67.5" font-family="Helvetica,sans-Serif" font-size="10.00">/Flags/Linux/CredentialFlags.hpp</text>
</a>
</g>
</g>
<!-- Node11&#45;&gt;Node27 -->
<g id="edge32_Node000011_Node000027" class="edge">
<title>Node11&#45;&gt;Node27</title>
<g id="a_edge32_Node000011_Node000027"><a xlink:title=" ">
<path fill="none" stroke="#63b8ff" d="M1983.59,-144.68C1856.65,-141.29 1549.79,-129.98 1295,-96 1287.34,-94.98 1279.37,-93.71 1271.45,-92.32"/>
<polygon fill="#63b8ff" stroke="#63b8ff" points="1271.92,-88.85 1261.46,-90.5 1270.67,-95.74 1271.92,-88.85"/>
</a>
</g>
</g>
<!-- Node28 -->
<g id="Node000028" class="node">
<title>Node28</title>
<g id="a_Node000028"><a xlink:href="_linux_2_supported_protocols_flags_8hpp.html" target="_top" xlink:title=" ">
<polygon fill="white" stroke="#666666" points="1477.5,-96 1304.5,-96 1304.5,-55 1477.5,-55 1477.5,-96"/>
<text text-anchor="start" x="1312.5" y="-84" font-family="Helvetica,sans-Serif" font-size="10.00">Hermes/_base/OsApi</text>
<text text-anchor="start" x="1312.5" y="-73" font-family="Helvetica,sans-Serif" font-size="10.00">/Flags/Linux/SupportedProtocols</text>
<text text-anchor="middle" x="1391" y="-62" font-family="Helvetica,sans-Serif" font-size="10.00">Flags.hpp</text>
</a>
</g>
</g>
<!-- Node11&#45;&gt;Node28 -->
<g id="edge33_Node000011_Node000028" class="edge">
<title>Node11&#45;&gt;Node28</title>
<g id="a_edge33_Node000011_Node000028"><a xlink:title=" ">
<path fill="none" stroke="#63b8ff" d="M1983.91,-142.84C1883.85,-137.02 1674.58,-122.81 1487.55,-95.99"/>
<polygon fill="#63b8ff" stroke="#63b8ff" points="1487.93,-92.51 1477.53,-94.54 1486.92,-99.43 1487.93,-92.51"/>
</a>
</g>
</g>
<!-- Node29 -->
<g id="Node000029" class="node">
<title>Node29</title>
<g id="a_Node000029"><a xlink:href="_linux_2_s_channel_cred_flags_8hpp.html" target="_top" xlink:title=" ">
<polygon fill="white" stroke="#666666" points="1690,-90.5 1496,-90.5 1496,-60.5 1690,-60.5 1690,-90.5"/>
<text text-anchor="start" x="1504" y="-78.5" font-family="Helvetica,sans-Serif" font-size="10.00">Hermes/_base/OsApi</text>
<text text-anchor="middle" x="1593" y="-67.5" font-family="Helvetica,sans-Serif" font-size="10.00">/Flags/Linux/SChannelCredFlags.hpp</text>
</a>
</g>
</g>
<!-- Node11&#45;&gt;Node29 -->
<g id="edge34_Node000011_Node000029" class="edge">
<title>Node11&#45;&gt;Node29</title>
<g id="a_edge34_Node000011_Node000029"><a xlink:title=" ">
<path fill="none" stroke="#63b8ff" d="M1983.85,-138.09C1915.23,-128.76 1798.74,-112.42 1699,-96 1691.96,-94.84 1684.66,-93.59 1677.33,-92.31"/>
<polygon fill="#63b8ff" stroke="#63b8ff" points="1677.81,-88.84 1667.36,-90.54 1676.59,-95.73 1677.81,-88.84"/>
</a>
</g>
</g>
<!-- Node18 -->
<g id="Node000018" class="node">
<title>Node18</title>
<g id="a_Node000018"><a xlink:title=" ">
<polygon fill="#e0e0e0" stroke="#999999" points="872,-19 822,-19 822,0 872,0 872,-19"/>
<text text-anchor="middle" x="847" y="-7" font-family="Helvetica,sans-Serif" font-size="10.00">cstdint</text>
</a>
</g>
</g>
<!-- Node17&#45;&gt;Node18 -->
<g id="edge17_Node000017_Node000018" class="edge">
<title>Node17&#45;&gt;Node18</title>
<g id="a_edge17_Node000017_Node000018"><a xlink:title=" ">
<path fill="none" stroke="#63b8ff" d="M847,-60.3C847,-51.2 847,-39.29 847,-29.4"/>
<polygon fill="#63b8ff" stroke="#63b8ff" points="850.5,-29.34 847,-19.34 843.5,-29.34 850.5,-29.34"/>
</a>
</g>
</g>
<!-- Node19&#45;&gt;Node12 -->
<g id="edge20_Node000019_Node000012" class="edge">
<title>Node19&#45;&gt;Node12</title>
<g id="a_edge20_Node000019_Node000012"><a xlink:title=" ">
<path fill="none" stroke="#63b8ff" d="M2330.56,-60.42C2323.69,-58.51 2316.68,-56.65 2310,-55 2253.98,-41.14 2188.98,-27.97 2145.66,-19.61"/>
<polygon fill="#63b8ff" stroke="#63b8ff" points="2146.15,-16.14 2135.67,-17.69 2144.83,-23.02 2146.15,-16.14"/>
</a>
</g>
</g>
<!-- Node20 -->
<g id="Node000020" class="node">
<title>Node20</title>
<g id="a_Node000020"><a xlink:title=" ">
<polygon fill="#e0e0e0" stroke="#999999" points="2414.5,-19 2341.5,-19 2341.5,0 2414.5,0 2414.5,-19"/>
<text text-anchor="middle" x="2378" y="-7" font-family="Helvetica,sans-Serif" font-size="10.00">string_view</text>
</a>
</g>
</g>
<!-- Node19&#45;&gt;Node20 -->
<g id="edge19_Node000019_Node000020" class="edge">
<title>Node19&#45;&gt;Node20</title>
<g id="a_edge19_Node000019_Node000020"><a xlink:title=" ">
<path fill="none" stroke="#63b8ff" d="M2378,-60.3C2378,-51.2 2378,-39.29 2378,-29.4"/>
<polygon fill="#63b8ff" stroke="#63b8ff" points="2381.5,-29.34 2378,-19.34 2374.5,-29.34 2381.5,-29.34"/>
</a>
</g>
</g>
<!-- Node21&#45;&gt;Node12 -->
<g id="edge22_Node000021_Node000012" class="edge">
<title>Node21&#45;&gt;Node12</title>
<g id="a_edge22_Node000021_Node000012"><a xlink:title=" ">
<path fill="none" stroke="#63b8ff" d="M2187.54,-60.45C2167.83,-49.58 2140.69,-34.61 2121.28,-23.9"/>
<polygon fill="#63b8ff" stroke="#63b8ff" points="2122.88,-20.78 2112.44,-19.02 2119.5,-26.91 2122.88,-20.78"/>
</a>
</g>
</g>
<!-- Node22&#45;&gt;Node13 -->
<g id="edge24_Node000022_Node000013" class="edge">
<title>Node22&#45;&gt;Node13</title>
<g id="a_edge24_Node000022_Node000013"><a xlink:title=" ">
<path fill="none" stroke="#63b8ff" d="M2575.68,-60.3C2566.42,-50.42 2554.05,-37.22 2544.37,-26.89"/>
<polygon fill="#63b8ff" stroke="#63b8ff" points="2546.68,-24.25 2537.29,-19.34 2541.58,-29.03 2546.68,-24.25"/>
</a>
</g>
</g>
<!-- Node23&#45;&gt;Node12 -->
<g id="edge26_Node000023_Node000012" class="edge">
<title>Node23&#45;&gt;Node12</title>
<g id="a_edge26_Node000023_Node000012"><a xlink:title=" ">
<path fill="none" stroke="#63b8ff" d="M1865.18,-60.45C1920.45,-48.54 1998.5,-31.73 2048.42,-20.97"/>
<polygon fill="#63b8ff" stroke="#63b8ff" points="2049.29,-24.36 2058.33,-18.83 2047.81,-17.52 2049.29,-24.36"/>
</a>
</g>
</g>
<!-- Node24&#45;&gt;Node12 -->
<g id="edge28_Node000024_Node000012" class="edge">
<title>Node24&#45;&gt;Node12</title>
<g id="a_edge28_Node000024_Node000012"><a xlink:title=" ">
<path fill="none" stroke="#63b8ff" d="M2013.48,-60.45C2031.5,-49.68 2056.24,-34.88 2074.11,-24.19"/>
<polygon fill="#63b8ff" stroke="#63b8ff" points="2075.97,-27.15 2082.76,-19.02 2072.38,-21.15 2075.97,-27.15"/>
</a>
</g>
</g>
<!-- Node26&#45;&gt;Node15 -->
<g id="edge31_Node000026_Node000015" class="edge">
<title>Node26&#45;&gt;Node15</title>
<g id="a_edge31_Node000026_Node000015"><a xlink:title=" ">
<path fill="none" stroke="#63b8ff" d="M2888.9,-60.3C2881.34,-50.61 2871.28,-37.74 2863.29,-27.51"/>
<polygon fill="#63b8ff" stroke="#63b8ff" points="2865.82,-25.07 2856.91,-19.34 2860.31,-29.38 2865.82,-25.07"/>
</a>
</g>
</g>
</g>
</svg>
