<?xml version="1.0" encoding="UTF-8" standalone="no"?>
<!DOCTYPE svg PUBLIC "-//W3C//DTD SVG 1.1//EN"
 "http://www.w3.org/Graphics/SVG/1.1/DTD/svg11.dtd">
<!-- Generated by graphviz version 2.43.0 (0)
 -->
<!-- Title: include/Hermes/Socket/_base.hpp Pages: 1 -->
<svg width="2056pt" height="489pt"
 viewBox="0.00 0.00 2055.50 489.00" xmlns="http://www.w3.org/2000/svg" xmlns:xlink="http://www.w3.org/1999/xlink">
<g id="graph0" class="graph" transform="scale(1 1) rotate(0) translate(4 485)">
<title>include/Hermes/Socket/_base.hpp</title>
<!-- Node1 -->
<g id="Node000001" class="node">
<title>Node1</title>
<g id="a_Node000001"><a xlink:title=" ">
<polygon fill="#999999" stroke="#666666" points="1000,-481 872,-481 872,-451 1000,-451 1000,-481"/>
<text text-anchor="start" x="880" y="-469" font-family="Helvetica,sans-Serif" font-size="10.00">include/Hermes/Socket</text>
<text text-anchor="middle" x="936" y="-458" font-family="Helvetica,sans-Serif" font-size="10.00">/_base.hpp</text>
</a>
</g>
</g>
<!-- Node2 -->
<g id="Node000002" class="node">
<title>Node2</title>
<g id="a_Node000002"><a xlink:href="_async_listener_socket_8hpp.html" target="_top" xlink:title=" ">
<polygon fill="white" stroke="#666666" points="190.5,-30 17.5,-30 17.5,0 190.5,0 190.5,-30"/>
<text text-anchor="start" x="25.5" y="-18" font-family="Helvetica,sans-Serif" font-size="10.00">include/Hermes/Socket</text>
<text text-anchor="middle" x="104" y="-7" font-family="Helvetica,sans-Serif" font-size="10.00">/Async/AsyncListenerSocket.hpp</text>
</a>
</g>
</g>
<!-- Node1&#45;&gt;Node2 -->
<g id="edge1_Node000001_Node000002" class="edge">
<title>Node1&#45;&gt;Node2</title>
<g id="a_edge1_Node000001_Node000002"><a xlink:title=" ">
<path fill="none" stroke="#63b8ff" d="M861.65,-463.13C672.53,-457.99 183.26,-442.22 115,-415 53.03,-390.28 0,-385.22 0,-318.5 0,-318.5 0,-318.5 0,-162.5 0,-104.8 54.31,-53.99 84.44,-30.24"/>
<polygon fill="#63b8ff" stroke="#63b8ff" points="861.69,-466.63 871.78,-463.4 861.88,-459.63 861.69,-466.63"/>
</a>
</g>
</g>
<!-- Node3 -->
<g id="Node000003" class="node">
<title>Node3</title>
<g id="a_Node000003"><a xlink:href="_async_server_socket_8hpp.html" target="_top" xlink:title=" ">
<polygon fill="white" stroke="#666666" points="354,-101.5 188,-101.5 188,-71.5 354,-71.5 354,-101.5"/>
<text text-anchor="start" x="196" y="-89.5" font-family="Helvetica,sans-Serif" font-size="10.00">include/Hermes/Socket</text>
<text text-anchor="middle" x="271" y="-78.5" font-family="Helvetica,sans-Serif" font-size="10.00">/Async/AsyncServerSocket.hpp</text>
</a>
</g>
</g>
<!-- Node1&#45;&gt;Node3 -->
<g id="edge2_Node000001_Node000003" class="edge">
<title>Node1&#45;&gt;Node3</title>
<g id="a_edge2_Node000001_Node000003"><a xlink:title=" ">
<path fill="none" stroke="#63b8ff" d="M861.9,-463.29C684.96,-458.73 248.1,-444.61 189,-415 95.43,-368.12 6.07,-311.43 57,-220 92.3,-156.63 171.8,-119.73 223.34,-101.62"/>
<polygon fill="#63b8ff" stroke="#63b8ff" points="861.82,-466.79 871.91,-463.54 862,-459.79 861.82,-466.79"/>
</a>
</g>
</g>
<!-- Node4 -->
<g id="Node000004" class="node">
<title>Node4</title>
<g id="a_Node000004"><a xlink:href="_default_async_accept_policy_8hpp.html" target="_top" xlink:title=" ">
<polygon fill="white" stroke="#666666" points="907.5,-261 752.5,-261 752.5,-220 907.5,-220 907.5,-261"/>
<text text-anchor="start" x="760.5" y="-249" font-family="Helvetica,sans-Serif" font-size="10.00">include/Hermes/Socket</text>
<text text-anchor="start" x="760.5" y="-238" font-family="Helvetica,sans-Serif" font-size="10.00">/Async/_base/Accept/Default</text>
<text text-anchor="middle" x="830" y="-227" font-family="Helvetica,sans-Serif" font-size="10.00">AsyncAcceptPolicy.hpp</text>
</a>
</g>
</g>
<!-- Node1&#45;&gt;Node4 -->
<g id="edge4_Node000001_Node000004" class="edge">
<title>Node1&#45;&gt;Node4</title>
<g id="a_edge4_Node000001_Node000004"><a xlink:title=" ">
<path fill="none" stroke="#63b8ff" d="M929.18,-441.16C917.5,-401.07 893.53,-322.07 879,-297 871.4,-283.88 860.39,-271.06 850.74,-261.06"/>
<polygon fill="#63b8ff" stroke="#63b8ff" points="925.86,-442.27 932,-450.91 932.58,-440.33 925.86,-442.27"/>
</a>
</g>
</g>
<!-- Node5 -->
<g id="Node000005" class="node">
<title>Node5</title>
<g id="a_Node000005"><a xlink:href="_tls_async_accept_policy_8hpp.html" target="_top" xlink:title=" ">
<polygon fill="white" stroke="#666666" points="475.5,-184 312.5,-184 312.5,-143 475.5,-143 475.5,-184"/>
<text text-anchor="start" x="320.5" y="-172" font-family="Helvetica,sans-Serif" font-size="10.00">include/Hermes/Socket</text>
<text text-anchor="start" x="320.5" y="-161" font-family="Helvetica,sans-Serif" font-size="10.00">/Async/_base/Accept/TlsAsync</text>
<text text-anchor="middle" x="394" y="-150" font-family="Helvetica,sans-Serif" font-size="10.00">AcceptPolicy.hpp</text>
</a>
</g>
</g>
<!-- Node1&#45;&gt;Node5 -->
<g id="edge8_Node000001_Node000005" class="edge">
<title>Node1&#45;&gt;Node5</title>
<g id="a_edge8_Node000001_Node000005"><a xlink:title=" ">
<path fill="none" stroke="#63b8ff" d="M861.5,-460.34C757.07,-453.12 572.89,-437.64 510,-415 450.73,-393.66 428.49,-388.63 391,-338 359.25,-295.13 357.79,-272.16 369,-220 371.69,-207.5 377.42,-194.42 382.72,-184.09"/>
<polygon fill="#63b8ff" stroke="#63b8ff" points="861.44,-463.85 871.66,-461.04 861.92,-456.86 861.44,-463.85"/>
</a>
</g>
</g>
<!-- Node6 -->
<g id="Node000006" class="node">
<title>Node6</title>
<g id="a_Node000006"><a xlink:href="_default_async_connect_policy_8hpp.html" target="_top" xlink:title=" ">
<polygon fill="white" stroke="#666666" points="1350.5,-184 1177.5,-184 1177.5,-143 1350.5,-143 1350.5,-184"/>
<text text-anchor="start" x="1185.5" y="-172" font-family="Helvetica,sans-Serif" font-size="10.00">include/Hermes/Socket</text>
<text text-anchor="start" x="1185.5" y="-161" font-family="Helvetica,sans-Serif" font-size="10.00">/Async/_base/Connection</text>
<text text-anchor="middle" x="1264" y="-150" font-family="Helvetica,sans-Serif" font-size="10.00">/DefaultAsyncConnectPolicy.hpp</text>
</a>
</g>
</g>
<!-- Node1&#45;&gt;Node6 -->
<g id="edge9_Node000001_Node000006" class="edge">
<title>Node1&#45;&gt;Node6</title>
<g id="a_edge9_Node000001_Node000006"><a xlink:title=" ">
<path fill="none" stroke="#63b8ff" d="M1010.28,-458.3C1087.37,-450.39 1202.03,-435.65 1241,-415 1317.43,-374.5 1336.99,-344.38 1360,-261 1364.85,-243.43 1369.11,-235.78 1360,-220 1350.91,-204.24 1335.45,-192.56 1319.56,-184.08"/>
<polygon fill="#63b8ff" stroke="#63b8ff" points="1009.73,-454.84 1000.13,-459.33 1010.43,-461.81 1009.73,-454.84"/>
</a>
</g>
</g>
<!-- Node8 -->
<g id="Node000008" class="node">
<title>Node8</title>
<g id="a_Node000008"><a xlink:href="_tls_async_connect_policy_8hpp.html" target="_top" xlink:title=" ">
<polygon fill="white" stroke="#666666" points="620,-107 468,-107 468,-66 620,-66 620,-107"/>
<text text-anchor="start" x="476" y="-95" font-family="Helvetica,sans-Serif" font-size="10.00">include/Hermes/Socket</text>
<text text-anchor="start" x="476" y="-84" font-family="Helvetica,sans-Serif" font-size="10.00">/Async/_base/Connection</text>
<text text-anchor="middle" x="544" y="-73" font-family="Helvetica,sans-Serif" font-size="10.00">/TlsAsyncConnectPolicy.hpp</text>
</a>
</g>
</g>
<!-- Node1&#45;&gt;Node8 -->
<g id="edge13_Node000001_Node000008" class="edge">
<title>Node1&#45;&gt;Node8</title>
<g id="a_edge13_Node000001_Node000008"><a xlink:title=" ">
<path fill="none" stroke="#63b8ff" d="M861.62,-464.78C683.27,-462.24 246,-443.28 246,-318.5 246,-318.5 246,-318.5 246,-239.5 246,-192.72 251.83,-172.66 288,-143 315.16,-120.72 402.78,-105.12 467.99,-96.25"/>
<polygon fill="#63b8ff" stroke="#63b8ff" points="861.66,-468.28 871.71,-464.91 861.75,-461.28 861.66,-468.28"/>
</a>
</g>
</g>
<!-- Node9 -->
<g id="Node000009" class="node">
<title>Node9</title>
<g id="a_Node000009"><a xlink:href="_default_async_transfer_policy_8hpp.html" target="_top" xlink:title=" ">
<polygon fill="white" stroke="#666666" points="974.5,-184 801.5,-184 801.5,-143 974.5,-143 974.5,-184"/>
<text text-anchor="start" x="809.5" y="-172" font-family="Helvetica,sans-Serif" font-size="10.00">include/Hermes/Socket</text>
<text text-anchor="start" x="809.5" y="-161" font-family="Helvetica,sans-Serif" font-size="10.00">/Async/_base/Transfer</text>
<text text-anchor="middle" x="888" y="-150" font-family="Helvetica,sans-Serif" font-size="10.00">/DefaultAsyncTransferPolicy.hpp</text>
</a>
</g>
</g>
<!-- Node1&#45;&gt;Node9 -->
<g id="edge14_Node000001_Node000009" class="edge">
<title>Node1&#45;&gt;Node9</title>
<g id="a_edge14_Node000001_Node000009"><a xlink:title=" ">
<path fill="none" stroke="#63b8ff" d="M937.06,-440.69C938.35,-396.05 938.06,-298.39 916,-220 912.46,-207.43 906.01,-194.34 900.2,-184.04"/>
<polygon fill="#63b8ff" stroke="#63b8ff" points="933.56,-440.74 936.71,-450.85 940.55,-440.98 933.56,-440.74"/>
</a>
</g>
</g>
<!-- Node10 -->
<g id="Node000010" class="node">
<title>Node10</title>
<g id="a_Node000010"><a xlink:href="_tls_async_transfer_policy_8hpp.html" target="_top" xlink:title=" ">
<polygon fill="white" stroke="#666666" points="217.5,-261 66.5,-261 66.5,-220 217.5,-220 217.5,-261"/>
<text text-anchor="start" x="74.5" y="-249" font-family="Helvetica,sans-Serif" font-size="10.00">include/Hermes/Socket</text>
<text text-anchor="start" x="74.5" y="-238" font-family="Helvetica,sans-Serif" font-size="10.00">/Async/_base/Transfer</text>
<text text-anchor="middle" x="142" y="-227" font-family="Helvetica,sans-Serif" font-size="10.00">/TlsAsyncTransferPolicy.hpp</text>
</a>
</g>
</g>
<!-- Node1&#45;&gt;Node10 -->
<g id="edge17_Node000001_Node000010" class="edge">
<title>Node1&#45;&gt;Node10</title>
<g id="a_edge17_Node000001_Node000010"><a xlink:title=" ">
<path fill="none" stroke="#63b8ff" d="M861.83,-463.8C691.64,-460.46 283.67,-448.97 232,-415 177.13,-378.93 153.79,-298.26 145.66,-261.02"/>
<polygon fill="#63b8ff" stroke="#63b8ff" points="861.89,-467.3 871.96,-463.99 862.03,-460.3 861.89,-467.3"/>
</a>
</g>
</g>
<!-- Node11 -->
<g id="Node000011" class="node">
<title>Node11</title>
<g id="a_Node000011"><a xlink:href="_default_socket_data_8hpp.html" target="_top" xlink:title=" ">
<polygon fill="white" stroke="#666666" points="1167,-409.5 1009,-409.5 1009,-379.5 1167,-379.5 1167,-409.5"/>
<text text-anchor="start" x="1017" y="-397.5" font-family="Helvetica,sans-Serif" font-size="10.00">include/Hermes/Socket</text>
<text text-anchor="middle" x="1088" y="-386.5" font-family="Helvetica,sans-Serif" font-size="10.00">/Data/DefaultSocketData.hpp</text>
</a>
</g>
</g>
<!-- Node1&#45;&gt;Node11 -->
<g id="edge20_Node000001_Node000011" class="edge">
<title>Node1&#45;&gt;Node11</title>
<g id="a_edge20_Node000001_Node000011"><a xlink:title=" ">
<path fill="none" stroke="#63b8ff" d="M976.13,-446.65C1001.55,-435.03 1033.91,-420.23 1057.29,-409.54"/>
<polygon fill="#63b8ff" stroke="#63b8ff" points="974.4,-443.59 966.76,-450.94 977.31,-449.96 974.4,-443.59"/>
</a>
</g>
</g>
<!-- Node12 -->
<g id="Node000012" class="node">
<title>Node12</title>
<g id="a_Node000012"><a xlink:href="_default_accept_policy_8hpp.html" target="_top" xlink:title=" ">
<polygon fill="white" stroke="#666666" points="870,-338 688,-338 688,-297 870,-297 870,-338"/>
<text text-anchor="start" x="696" y="-326" font-family="Helvetica,sans-Serif" font-size="10.00">include/Hermes/Socket</text>
<text text-anchor="start" x="696" y="-315" font-family="Helvetica,sans-Serif" font-size="10.00">/Sync/_base/Accept/DefaultAccept</text>
<text text-anchor="middle" x="779" y="-304" font-family="Helvetica,sans-Serif" font-size="10.00">Policy.hpp</text>
</a>
</g>
</g>
<!-- Node1&#45;&gt;Node12 -->
<g id="edge50_Node000001_Node000012" class="edge">
<title>Node1&#45;&gt;Node12</title>
<g id="a_edge50_Node000001_Node000012"><a xlink:title=" ">
<path fill="none" stroke="#63b8ff" d="M913.39,-443.9C883.01,-415.55 829.42,-365.55 799.93,-338.03"/>
<polygon fill="#63b8ff" stroke="#63b8ff" points="911.25,-446.69 920.95,-450.95 916.02,-441.57 911.25,-446.69"/>
</a>
</g>
</g>
<!-- Node15 -->
<g id="Node000015" class="node">
<title>Node15</title>
<g id="a_Node000015"><a xlink:href="_tls_accept_policy_8hpp.html" target="_top" xlink:title=" ">
<polygon fill="white" stroke="#666666" points="549.5,-261 388.5,-261 388.5,-220 549.5,-220 549.5,-261"/>
<text text-anchor="start" x="396.5" y="-249" font-family="Helvetica,sans-Serif" font-size="10.00">include/Hermes/Socket</text>
<text text-anchor="start" x="396.5" y="-238" font-family="Helvetica,sans-Serif" font-size="10.00">/Sync/_base/Accept/TlsAccept</text>
<text text-anchor="middle" x="469" y="-227" font-family="Helvetica,sans-Serif" font-size="10.00">Policy.hpp</text>
</a>
</g>
</g>
<!-- Node1&#45;&gt;Node15 -->
<g id="edge51_Node000001_Node000015" class="edge">
<title>Node1&#45;&gt;Node15</title>
<g id="a_edge51_Node000001_Node000015"><a xlink:title=" ">
<path fill="none" stroke="#63b8ff" d="M861.71,-454.49C819.77,-446.87 767.09,-434.42 723,-415 698.56,-404.24 557.28,-304.39 496.64,-261.23"/>
<polygon fill="#63b8ff" stroke="#63b8ff" points="861.13,-457.94 871.59,-456.23 862.34,-451.05 861.13,-457.94"/>
</a>
</g>
</g>
<!-- Node16 -->
<g id="Node000016" class="node">
<title>Node16</title>
<g id="a_Node000016"><a xlink:href="_default_connect_policy_8hpp.html" target="_top" xlink:title=" ">
<polygon fill="white" stroke="#666666" points="1264,-338 1120,-338 1120,-297 1264,-297 1264,-338"/>
<text text-anchor="start" x="1128" y="-326" font-family="Helvetica,sans-Serif" font-size="10.00">include/Hermes/Socket</text>
<text text-anchor="start" x="1128" y="-315" font-family="Helvetica,sans-Serif" font-size="10.00">/Sync/_base/Connection</text>
<text text-anchor="middle" x="1192" y="-304" font-family="Helvetica,sans-Serif" font-size="10.00">/DefaultConnectPolicy.hpp</text>
</a>
</g>
</g>
<!-- Node1&#45;&gt;Node16 -->
<g id="edge52_Node000001_Node000016" class="edge">
<title>Node1&#45;&gt;Node16</title>
<g id="a_edge52_Node000001_Node000016"><a xlink:title=" ">
<path fill="none" stroke="#63b8ff" d="M1010.36,-458.64C1072.15,-451.76 1153.46,-438.49 1176,-415 1195.52,-394.66 1196.45,-360.12 1194.7,-338.35"/>
<polygon fill="#63b8ff" stroke="#63b8ff" points="1009.81,-455.18 1000.24,-459.73 1010.56,-462.14 1009.81,-455.18"/>
</a>
</g>
</g>
<!-- Node18 -->
<g id="Node000018" class="node">
<title>Node18</title>
<g id="a_Node000018"><a xlink:href="_tls_connect_policy_8hpp.html" target="_top" xlink:title=" ">
<polygon fill="white" stroke="#666666" points="1334,-261 1202,-261 1202,-220 1334,-220 1334,-261"/>
<text text-anchor="start" x="1210" y="-249" font-family="Helvetica,sans-Serif" font-size="10.00">include/Hermes/Socket</text>
<text text-anchor="start" x="1210" y="-238" font-family="Helvetica,sans-Serif" font-size="10.00">/Sync/_base/Connection</text>
<text text-anchor="middle" x="1268" y="-227" font-family="Helvetica,sans-Serif" font-size="10.00">/TlsConnectPolicy.hpp</text>
</a>
</g>
</g>
<!-- Node1&#45;&gt;Node18 -->
<g id="edge53_Node000001_Node000018" class="edge">
<title>Node1&#45;&gt;Node18</title>
<g id="a_edge53_Node000001_Node000018"><a xlink:title=" ">
<path fill="none" stroke="#63b8ff" d="M1010.23,-462.89C1065.25,-458.57 1140.53,-446.68 1199,-415 1240.73,-392.39 1255.27,-382.03 1273,-338 1283.09,-312.95 1278.51,-281.24 1273.72,-261.15"/>
<polygon fill="#63b8ff" stroke="#63b8ff" points="1009.92,-459.4 1000.2,-463.61 1010.42,-466.39 1009.92,-459.4"/>
</a>
</g>
</g>
<!-- Node20 -->
<g id="Node000020" class="node">
<title>Node20</title>
<g id="a_Node000020"><a xlink:href="_default_transfer_policy_8hpp.html" target="_top" xlink:title=" ">
<polygon fill="white" stroke="#666666" points="1107.5,-261 964.5,-261 964.5,-220 1107.5,-220 1107.5,-261"/>
<text text-anchor="start" x="972.5" y="-249" font-family="Helvetica,sans-Serif" font-size="10.00">include/Hermes/Socket</text>
<text text-anchor="start" x="972.5" y="-238" font-family="Helvetica,sans-Serif" font-size="10.00">/Sync/_base/Transfer</text>
<text text-anchor="middle" x="1036" y="-227" font-family="Helvetica,sans-Serif" font-size="10.00">/DefaultTransferPolicy.hpp</text>
</a>
</g>
</g>
<!-- Node1&#45;&gt;Node20 -->
<g id="edge54_Node000001_Node000020" class="edge">
<title>Node1&#45;&gt;Node20</title>
<g id="a_edge54_Node000001_Node000020"><a xlink:title=" ">
<path fill="none" stroke="#63b8ff" d="M946.61,-441.29C966.43,-396.99 1008.75,-302.41 1027.15,-261.28"/>
<polygon fill="#63b8ff" stroke="#63b8ff" points="943.3,-440.12 942.41,-450.68 949.69,-442.98 943.3,-440.12"/>
</a>
</g>
</g>
<!-- Node21 -->
<g id="Node000021" class="node">
<title>Node21</title>
<g id="a_Node000021"><a xlink:href="_tls_socket_data_8hpp.html" target="_top" xlink:title=" ">
<polygon fill="white" stroke="#666666" points="537.5,-332.5 400.5,-332.5 400.5,-302.5 537.5,-302.5 537.5,-332.5"/>
<text text-anchor="start" x="408.5" y="-320.5" font-family="Helvetica,sans-Serif" font-size="10.00">include/Hermes/Socket</text>
<text text-anchor="middle" x="469" y="-309.5" font-family="Helvetica,sans-Serif" font-size="10.00">/Data/TlsSocketData.hpp</text>
</a>
</g>
</g>
<!-- Node1&#45;&gt;Node21 -->
<g id="edge41_Node000001_Node000021" class="edge">
<title>Node1&#45;&gt;Node21</title>
<g id="a_edge41_Node000001_Node000021"><a xlink:title=" ">
<path fill="none" stroke="#63b8ff" d="M861.58,-460.55C768.86,-454.05 616.49,-439.93 566,-415 526.81,-395.65 493.84,-354.26 478.4,-332.51"/>
<polygon fill="#63b8ff" stroke="#63b8ff" points="861.53,-464.06 871.74,-461.25 862.01,-457.07 861.53,-464.06"/>
</a>
</g>
</g>
<!-- Node22 -->
<g id="Node000022" class="node">
<title>Node22</title>
<g id="a_Node000022"><a xlink:href="_tls_transfer_policy_8hpp.html" target="_top" xlink:title=" ">
<polygon fill="white" stroke="#666666" points="696,-261 568,-261 568,-220 696,-220 696,-261"/>
<text text-anchor="start" x="576" y="-249" font-family="Helvetica,sans-Serif" font-size="10.00">include/Hermes/Socket</text>
<text text-anchor="start" x="576" y="-238" font-family="Helvetica,sans-Serif" font-size="10.00">/Sync/_base/Transfer</text>
<text text-anchor="middle" x="632" y="-227" font-family="Helvetica,sans-Serif" font-size="10.00">/TlsTransferPolicy.hpp</text>
</a>
</g>
</g>
<!-- Node1&#45;&gt;Node22 -->
<g id="edge55_Node000001_Node000022" class="edge">
<title>Node1&#45;&gt;Node22</title>
<g id="a_edge55_Node000001_Node000022"><a xlink:title=" ">
<path fill="none" stroke="#63b8ff" d="M876.08,-447.88C819.2,-429.01 734.4,-393.72 679,-338 657.32,-316.2 644.06,-282.41 637.38,-261.15"/>
<polygon fill="#63b8ff" stroke="#63b8ff" points="875.07,-451.23 885.66,-450.99 877.23,-444.58 875.07,-451.23"/>
</a>
</g>
</g>
<!-- Node23 -->
<g id="Node000023" class="node">
<title>Node23</title>
<g id="a_Node000023"><a xlink:href="_i_tls_accept_state_machine_8hpp.html" target="_top" xlink:title=" ">
<polygon fill="white" stroke="#666666" points="1705.5,-415 1542.5,-415 1542.5,-374 1705.5,-374 1705.5,-415"/>
<text text-anchor="start" x="1550.5" y="-403" font-family="Helvetica,sans-Serif" font-size="10.00">include/Hermes/Socket</text>
<text text-anchor="start" x="1550.5" y="-392" font-family="Helvetica,sans-Serif" font-size="10.00">/_base/Accept/ITlsAcceptState</text>
<text text-anchor="middle" x="1624" y="-381" font-family="Helvetica,sans-Serif" font-size="10.00">Machine.hpp</text>
</a>
</g>
</g>
<!-- Node1&#45;&gt;Node23 -->
<g id="edge56_Node000001_Node000023" class="edge">
<title>Node1&#45;&gt;Node23</title>
<g id="a_edge56_Node000001_Node000023"><a xlink:title=" ">
<path fill="none" stroke="#63b8ff" d="M1010.66,-461.81C1124.03,-456.27 1346.19,-442.72 1533,-415 1536.04,-414.55 1539.12,-414.06 1542.24,-413.54"/>
<polygon fill="#63b8ff" stroke="#63b8ff" points="1010.18,-458.33 1000.36,-462.3 1010.52,-465.32 1010.18,-458.33"/>
</a>
</g>
</g>
<!-- Node25 -->
<g id="Node000025" class="node">
<title>Node25</title>
<g id="a_Node000025"><a xlink:href="_i_tls_connect_state_machine_8hpp.html" target="_top" xlink:title=" ">
<polygon fill="white" stroke="#666666" points="1524,-415 1358,-415 1358,-374 1524,-374 1524,-415"/>
<text text-anchor="start" x="1366" y="-403" font-family="Helvetica,sans-Serif" font-size="10.00">include/Hermes/Socket</text>
<text text-anchor="start" x="1366" y="-392" font-family="Helvetica,sans-Serif" font-size="10.00">/_base/Connection/ITlsConnect</text>
<text text-anchor="middle" x="1441" y="-381" font-family="Helvetica,sans-Serif" font-size="10.00">StateMachine.hpp</text>
</a>
</g>
</g>
<!-- Node1&#45;&gt;Node25 -->
<g id="edge58_Node000001_Node000025" class="edge">
<title>Node1&#45;&gt;Node25</title>
<g id="a_edge58_Node000001_Node000025"><a xlink:title=" ">
<path fill="none" stroke="#63b8ff" d="M1010.13,-457.64C1092.08,-449.1 1227.85,-433.76 1344,-415 1348.49,-414.27 1353.1,-413.49 1357.74,-412.67"/>
<polygon fill="#63b8ff" stroke="#63b8ff" points="1009.75,-454.16 1000.17,-458.67 1010.48,-461.12 1009.75,-454.16"/>
</a>
</g>
</g>
<!-- Node26 -->
<g id="Node000026" class="node">
<title>Node26</title>
<g id="a_Node000026"><a xlink:href="_i_tls_transfer_state_machine_8hpp.html" target="_top" xlink:title=" ">
<polygon fill="white" stroke="#666666" points="1872.5,-415 1723.5,-415 1723.5,-374 1872.5,-374 1872.5,-415"/>
<text text-anchor="start" x="1731.5" y="-403" font-family="Helvetica,sans-Serif" font-size="10.00">include/Hermes/Socket</text>
<text text-anchor="start" x="1731.5" y="-392" font-family="Helvetica,sans-Serif" font-size="10.00">/_base/Transfer/ITlsTransfer</text>
<text text-anchor="middle" x="1798" y="-381" font-family="Helvetica,sans-Serif" font-size="10.00">StateMachine.hpp</text>
</a>
</g>
</g>
<!-- Node1&#45;&gt;Node26 -->
<g id="edge60_Node000001_Node000026" class="edge">
<title>Node1&#45;&gt;Node26</title>
<g id="a_edge60_Node000001_Node000026"><a xlink:title=" ">
<path fill="none" stroke="#63b8ff" d="M1010.27,-464.27C1149.18,-462.01 1457.46,-452.76 1714,-415 1717.11,-414.54 1720.28,-414.03 1723.47,-413.47"/>
<polygon fill="#63b8ff" stroke="#63b8ff" points="1010.1,-460.77 1000.16,-464.43 1010.21,-467.77 1010.1,-460.77"/>
</a>
</g>
</g>
<!-- Node27 -->
<g id="Node000027" class="node">
<title>Node27</title>
<g id="a_Node000027"><a xlink:href="_tls_transfer_state_machine_8hpp.html" target="_top" xlink:title=" ">
<polygon fill="white" stroke="#666666" points="1922,-338 1776,-338 1776,-297 1922,-297 1922,-338"/>
<text text-anchor="start" x="1784" y="-326" font-family="Helvetica,sans-Serif" font-size="10.00">include/Hermes/Socket</text>
<text text-anchor="start" x="1784" y="-315" font-family="Helvetica,sans-Serif" font-size="10.00">/_base/Transfer/TlsTransfer</text>
<text text-anchor="middle" x="1849" y="-304" font-family="Helvetica,sans-Serif" font-size="10.00">StateMachine.hpp</text>
</a>
</g>
</g>
<!-- Node1&#45;&gt;Node27 -->
<g id="edge62_Node000001_Node000027" class="edge">
<title>Node1&#45;&gt;Node27</title>
<g id="a_edge62_Node000001_Node000027"><a xlink:title=" ">
<path fill="none" stroke="#63b8ff" d="M1010.19,-463.83C1227.98,-460.05 1852.13,-446.49 1882,-415 1902.11,-393.8 1882.58,-359.84 1866.17,-338.38"/>
<polygon fill="#63b8ff" stroke="#63b8ff" points="1010.07,-460.34 1000.13,-464.01 1010.19,-467.33 1010.07,-460.34"/>
</a>
</g>
</g>
<!-- Node28 -->
<g id="Node000028" class="node">
<title>Node28</title>
<g id="a_Node000028"><a xlink:href="_to_bytes_8hpp.html" target="_top" xlink:title=" ">
<polygon fill="white" stroke="#666666" points="2047.5,-409.5 1928.5,-409.5 1928.5,-379.5 2047.5,-379.5 2047.5,-409.5"/>
<text text-anchor="start" x="1936.5" y="-397.5" font-family="Helvetica,sans-Serif" font-size="10.00">include/Hermes/Utils</text>
<text text-anchor="middle" x="1988" y="-386.5" font-family="Helvetica,sans-Serif" font-size="10.00">/ToBytes.hpp</text>
</a>
</g>
</g>
<!-- Node1&#45;&gt;Node28 -->
<g id="edge63_Node000001_Node000028" class="edge">
<title>Node1&#45;&gt;Node28</title>
<g id="a_edge63_Node000001_Node000028"><a xlink:title=" ">
<path fill="none" stroke="#63b8ff" d="M1010.53,-463.18C1207.77,-458.06 1740.09,-442.06 1914,-415 1922.66,-413.65 1931.78,-411.7 1940.54,-409.55"/>
<polygon fill="#63b8ff" stroke="#63b8ff" points="1010.18,-459.69 1000.27,-463.45 1010.36,-466.69 1010.18,-459.69"/>
</a>
</g>
</g>
<!-- Node3&#45;&gt;Node2 -->
<g id="edge3_Node000003_Node000002" class="edge">
<title>Node3&#45;&gt;Node2</title>
<g id="a_edge3_Node000003_Node000002"><a xlink:title=" ">
<path fill="none" stroke="#63b8ff" d="M227.65,-67.46C199.61,-55.79 163.65,-40.82 137.74,-30.04"/>
<polygon fill="#63b8ff" stroke="#63b8ff" points="226.63,-70.82 237.21,-71.44 229.32,-64.36 226.63,-70.82"/>
</a>
</g>
</g>
<!-- Node4&#45;&gt;Node3 -->
<g id="edge5_Node000004_Node000003" class="edge">
<title>Node4&#45;&gt;Node3</title>
<g id="a_edge5_Node000004_Node000003"><a xlink:title=" ">
<path fill="none" stroke="#63b8ff" d="M811.11,-211.24C793.49,-185.79 767.76,-151.18 753,-143 744.37,-138.22 489.81,-110.67 354.21,-96.27"/>
<polygon fill="#63b8ff" stroke="#63b8ff" points="808.43,-213.53 816.97,-219.8 814.21,-209.57 808.43,-213.53"/>
</a>
</g>
</g>
<!-- Node4&#45;&gt;Node5 -->
<g id="edge6_Node000004_Node000005" class="edge">
<title>Node4&#45;&gt;Node5</title>
<g id="a_edge6_Node000004_Node000005"><a xlink:title=" ">
<path fill="none" stroke="#63b8ff" d="M742.04,-224.37C664.27,-210.99 551.68,-191.62 475.81,-178.57"/>
<polygon fill="#63b8ff" stroke="#63b8ff" points="741.85,-227.89 752.3,-226.13 743.04,-220.99 741.85,-227.89"/>
</a>
</g>
</g>
<!-- Node5&#45;&gt;Node3 -->
<g id="edge7_Node000005_Node000003" class="edge">
<title>Node5&#45;&gt;Node3</title>
<g id="a_edge7_Node000005_Node000003"><a xlink:title=" ">
<path fill="none" stroke="#63b8ff" d="M353.26,-137.66C333.67,-125.71 310.9,-111.83 294.29,-101.7"/>
<polygon fill="#63b8ff" stroke="#63b8ff" points="351.64,-140.77 362,-142.99 355.29,-134.8 351.64,-140.77"/>
</a>
</g>
</g>
<!-- Node7 -->
<g id="Node000007" class="node">
<title>Node7</title>
<g id="a_Node000007"><a xlink:href="_async_client_socket_8hpp.html" target="_top" xlink:title=" ">
<polygon fill="white" stroke="#666666" points="783.5,-30 620.5,-30 620.5,0 783.5,0 783.5,-30"/>
<text text-anchor="start" x="628.5" y="-18" font-family="Helvetica,sans-Serif" font-size="10.00">include/Hermes/Socket</text>
<text text-anchor="middle" x="702" y="-7" font-family="Helvetica,sans-Serif" font-size="10.00">/Async/AsyncClientSocket.hpp</text>
</a>
</g>
</g>
<!-- Node6&#45;&gt;Node7 -->
<g id="edge10_Node000006_Node000007" class="edge">
<title>Node6&#45;&gt;Node7</title>
<g id="a_edge10_Node000006_Node000007"><a xlink:title=" ">
<path fill="none" stroke="#63b8ff" d="M1179.06,-140.36C1061.8,-109.79 853.74,-55.55 755.8,-30.02"/>
<polygon fill="#63b8ff" stroke="#63b8ff" points="1178.52,-143.83 1189.08,-142.97 1180.29,-137.06 1178.52,-143.83"/>
</a>
</g>
</g>
<!-- Node6&#45;&gt;Node8 -->
<g id="edge11_Node000006_Node000008" class="edge">
<title>Node6&#45;&gt;Node8</title>
<g id="a_edge11_Node000006_Node000008"><a xlink:title=" ">
<path fill="none" stroke="#63b8ff" d="M1167.43,-143.59C1165.94,-143.39 1164.47,-143.19 1163,-143 927.1,-112.4 864.33,-141.7 629,-107 626.15,-106.58 623.26,-106.12 620.35,-105.61"/>
<polygon fill="#63b8ff" stroke="#63b8ff" points="1166.94,-147.06 1177.34,-145.05 1167.95,-140.13 1166.94,-147.06"/>
</a>
</g>
</g>
<!-- Node8&#45;&gt;Node7 -->
<g id="edge12_Node000008_Node000007" class="edge">
<title>Node8&#45;&gt;Node7</title>
<g id="a_edge12_Node000008_Node000007"><a xlink:title=" ">
<path fill="none" stroke="#63b8ff" d="M597.78,-61.85C621.76,-51.3 649.21,-39.22 669.92,-30.11"/>
<polygon fill="#63b8ff" stroke="#63b8ff" points="596.18,-58.73 588.43,-65.96 599,-65.13 596.18,-58.73"/>
</a>
</g>
</g>
<!-- Node9&#45;&gt;Node3 -->
<g id="edge16_Node000009_Node000003" class="edge">
<title>Node9&#45;&gt;Node3</title>
<g id="a_edge16_Node000009_Node000003"><a xlink:title=" ">
<path fill="none" stroke="#63b8ff" d="M791.42,-143.68C789.94,-143.45 788.46,-143.22 787,-143 765.95,-139.84 494.73,-111.1 354.21,-96.27"/>
<polygon fill="#63b8ff" stroke="#63b8ff" points="790.88,-147.13 801.31,-145.28 791.99,-140.22 790.88,-147.13"/>
</a>
</g>
</g>
<!-- Node9&#45;&gt;Node7 -->
<g id="edge15_Node000009_Node000007" class="edge">
<title>Node9&#45;&gt;Node7</title>
<g id="a_edge15_Node000009_Node000007"><a xlink:title=" ">
<path fill="none" stroke="#63b8ff" d="M862.12,-135.32C842.07,-115.02 813.07,-87.23 785,-66 767.15,-52.5 745.45,-39.54 728.71,-30.19"/>
<polygon fill="#63b8ff" stroke="#63b8ff" points="859.85,-138.01 869.34,-142.71 864.85,-133.11 859.85,-138.01"/>
</a>
</g>
</g>
<!-- Node10&#45;&gt;Node3 -->
<g id="edge19_Node000010_Node000003" class="edge">
<title>Node10&#45;&gt;Node3</title>
<g id="a_edge19_Node000010_Node000003"><a xlink:title=" ">
<path fill="none" stroke="#63b8ff" d="M165.21,-212.15C192.79,-179.65 237.74,-126.68 259.06,-101.57"/>
<polygon fill="#63b8ff" stroke="#63b8ff" points="162.4,-210.05 158.6,-219.94 167.74,-214.58 162.4,-210.05"/>
</a>
</g>
</g>
<!-- Node10&#45;&gt;Node7 -->
<g id="edge18_Node000010_Node000007" class="edge">
<title>Node10&#45;&gt;Node7</title>
<g id="a_edge18_Node000010_Node000007"><a xlink:title=" ">
<path fill="none" stroke="#63b8ff" d="M138.72,-209.74C136.22,-170.45 138.56,-102.04 179,-66 211.22,-37.29 481.62,-23.7 620.44,-18.57"/>
<polygon fill="#63b8ff" stroke="#63b8ff" points="135.24,-210.07 139.5,-219.77 142.21,-209.53 135.24,-210.07"/>
</a>
</g>
</g>
<!-- Node11&#45;&gt;Node4 -->
<g id="edge21_Node000011_Node000004" class="edge">
<title>Node11&#45;&gt;Node4</title>
<g id="a_edge21_Node000011_Node000004"><a xlink:title=" ">
<path fill="none" stroke="#63b8ff" d="M1055.53,-374.37C1006.28,-345.35 913.19,-290.51 863.4,-261.18"/>
<polygon fill="#63b8ff" stroke="#63b8ff" points="1053.8,-377.41 1064.19,-379.47 1057.35,-371.38 1053.8,-377.41"/>
</a>
</g>
</g>
<!-- Node11&#45;&gt;Node6 -->
<g id="edge22_Node000011_Node000006" class="edge">
<title>Node11&#45;&gt;Node6</title>
<g id="a_edge22_Node000011_Node000006"><a xlink:title=" ">
<path fill="none" stroke="#63b8ff" d="M1177.1,-378.02C1239.86,-361.47 1317.13,-327.92 1343,-261 1349.57,-244 1351.4,-236.17 1343,-220 1335.12,-204.83 1320.97,-192.94 1306.81,-184.12"/>
<polygon fill="#63b8ff" stroke="#63b8ff" points="1175.99,-374.69 1167.16,-380.53 1177.71,-381.47 1175.99,-374.69"/>
</a>
</g>
</g>
<!-- Node11&#45;&gt;Node9 -->
<g id="edge23_Node000011_Node000009" class="edge">
<title>Node11&#45;&gt;Node9</title>
<g id="a_edge23_Node000011_Node000009"><a xlink:title=" ">
<path fill="none" stroke="#63b8ff" d="M1094.65,-369.49C1101.58,-343.13 1111.98,-299.43 1116,-261 1117.89,-242.88 1127.26,-234.33 1116,-220 1111.38,-214.12 1037.14,-196.75 974.61,-182.99"/>
<polygon fill="#63b8ff" stroke="#63b8ff" points="1091.22,-368.78 1092.01,-379.34 1097.98,-370.59 1091.22,-368.78"/>
</a>
</g>
</g>
<!-- Node11&#45;&gt;Node12 -->
<g id="edge24_Node000011_Node000012" class="edge">
<title>Node11&#45;&gt;Node12</title>
<g id="a_edge24_Node000011_Node000012"><a xlink:title=" ">
<path fill="none" stroke="#63b8ff" d="M1020.39,-377.09C973.01,-365.59 909.48,-350.17 859.49,-338.04"/>
<polygon fill="#63b8ff" stroke="#63b8ff" points="1019.7,-380.52 1030.24,-379.48 1021.35,-373.72 1019.7,-380.52"/>
</a>
</g>
</g>
<!-- Node11&#45;&gt;Node16 -->
<g id="edge31_Node000011_Node000016" class="edge">
<title>Node11&#45;&gt;Node16</title>
<g id="a_edge31_Node000011_Node000016"><a xlink:title=" ">
<path fill="none" stroke="#63b8ff" d="M1116,-373.31C1131.11,-362.41 1149.68,-349.02 1164.68,-338.2"/>
<polygon fill="#63b8ff" stroke="#63b8ff" points="1113.63,-370.71 1107.56,-379.39 1117.72,-376.38 1113.63,-370.71"/>
</a>
</g>
</g>
<!-- Node11&#45;&gt;Node20 -->
<g id="edge38_Node000011_Node000020" class="edge">
<title>Node11&#45;&gt;Node20</title>
<g id="a_edge38_Node000011_Node000020"><a xlink:title=" ">
<path fill="none" stroke="#63b8ff" d="M1079.91,-369.85C1069.68,-339.96 1052.27,-289.05 1042.73,-261.18"/>
<polygon fill="#63b8ff" stroke="#63b8ff" points="1076.65,-371.14 1083.2,-379.47 1083.28,-368.88 1076.65,-371.14"/>
</a>
</g>
</g>
<!-- Node12&#45;&gt;Node4 -->
<g id="edge25_Node000012_Node000004" class="edge">
<title>Node12&#45;&gt;Node4</title>
<g id="a_edge25_Node000012_Node000004"><a xlink:title=" ">
<path fill="none" stroke="#63b8ff" d="M798.11,-288.39C804.3,-279.3 811.02,-269.41 816.69,-261.07"/>
<polygon fill="#63b8ff" stroke="#63b8ff" points="795.13,-286.56 792.4,-296.79 800.92,-290.49 795.13,-286.56"/>
</a>
</g>
</g>
<!-- Node13 -->
<g id="Node000013" class="node">
<title>Node13</title>
<g id="a_Node000013"><a xlink:href="_server_socket_8hpp.html" target="_top" xlink:title=" ">
<polygon fill="white" stroke="#666666" points="744.5,-178.5 613.5,-178.5 613.5,-148.5 744.5,-148.5 744.5,-178.5"/>
<text text-anchor="start" x="621.5" y="-166.5" font-family="Helvetica,sans-Serif" font-size="10.00">include/Hermes/Socket</text>
<text text-anchor="middle" x="679" y="-155.5" font-family="Helvetica,sans-Serif" font-size="10.00">/Sync/ServerSocket.hpp</text>
</a>
</g>
</g>
<!-- Node12&#45;&gt;Node13 -->
<g id="edge26_Node000012_Node000013" class="edge">
<title>Node12&#45;&gt;Node13</title>
<g id="a_edge26_Node000012_Node000013"><a xlink:title=" ">
<path fill="none" stroke="#63b8ff" d="M760.46,-288.32C739.04,-255.76 704.64,-203.47 688.26,-178.57"/>
<polygon fill="#63b8ff" stroke="#63b8ff" points="757.71,-290.51 766.13,-296.94 763.56,-286.66 757.71,-290.51"/>
</a>
</g>
</g>
<!-- Node12&#45;&gt;Node15 -->
<g id="edge28_Node000012_Node000015" class="edge">
<title>Node12&#45;&gt;Node15</title>
<g id="a_edge28_Node000012_Node000015"><a xlink:title=" ">
<path fill="none" stroke="#63b8ff" d="M688.53,-294.61C644.54,-283.97 592.1,-271.28 549.5,-260.98"/>
<polygon fill="#63b8ff" stroke="#63b8ff" points="687.82,-298.04 698.36,-296.99 689.46,-291.24 687.82,-298.04"/>
</a>
</g>
</g>
<!-- Node14 -->
<g id="Node000014" class="node">
<title>Node14</title>
<g id="a_Node000014"><a xlink:href="_listener_socket_8hpp.html" target="_top" xlink:title=" ">
<polygon fill="white" stroke="#666666" points="776,-101.5 638,-101.5 638,-71.5 776,-71.5 776,-101.5"/>
<text text-anchor="start" x="646" y="-89.5" font-family="Helvetica,sans-Serif" font-size="10.00">include/Hermes/Socket</text>
<text text-anchor="middle" x="707" y="-78.5" font-family="Helvetica,sans-Serif" font-size="10.00">/Sync/ListenerSocket.hpp</text>
</a>
</g>
</g>
<!-- Node13&#45;&gt;Node14 -->
<g id="edge27_Node000013_Node000014" class="edge">
<title>Node13&#45;&gt;Node14</title>
<g id="a_edge27_Node000013_Node000014"><a xlink:title=" ">
<path fill="none" stroke="#63b8ff" d="M687.86,-138.78C692.43,-126.53 697.85,-112 701.76,-101.54"/>
<polygon fill="#63b8ff" stroke="#63b8ff" points="684.49,-137.8 684.27,-148.39 691.04,-140.25 684.49,-137.8"/>
</a>
</g>
</g>
<!-- Node15&#45;&gt;Node5 -->
<g id="edge29_Node000015_Node000005" class="edge">
<title>Node15&#45;&gt;Node5</title>
<g id="a_edge29_Node000015_Node000005"><a xlink:title=" ">
<path fill="none" stroke="#63b8ff" d="M442.01,-212.51C432.61,-203.11 422.26,-192.76 413.57,-184.07"/>
<polygon fill="#63b8ff" stroke="#63b8ff" points="439.75,-215.2 449.29,-219.79 444.7,-210.25 439.75,-215.2"/>
</a>
</g>
</g>
<!-- Node15&#45;&gt;Node13 -->
<g id="edge30_Node000015_Node000013" class="edge">
<title>Node15&#45;&gt;Node13</title>
<g id="a_edge30_Node000015_Node000013"><a xlink:title=" ">
<path fill="none" stroke="#63b8ff" d="M533.21,-216.57C567.92,-204.17 609.66,-189.26 639.57,-178.58"/>
<polygon fill="#63b8ff" stroke="#63b8ff" points="531.87,-213.33 523.63,-219.99 534.22,-219.92 531.87,-213.33"/>
</a>
</g>
</g>
<!-- Node17 -->
<g id="Node000017" class="node">
<title>Node17</title>
<g id="a_Node000017"><a xlink:href="_client_socket_8hpp.html" target="_top" xlink:title=" ">
<polygon fill="white" stroke="#666666" points="1121,-178.5 993,-178.5 993,-148.5 1121,-148.5 1121,-178.5"/>
<text text-anchor="start" x="1001" y="-166.5" font-family="Helvetica,sans-Serif" font-size="10.00">include/Hermes/Socket</text>
<text text-anchor="middle" x="1057" y="-155.5" font-family="Helvetica,sans-Serif" font-size="10.00">/Sync/ClientSocket.hpp</text>
</a>
</g>
</g>
<!-- Node16&#45;&gt;Node17 -->
<g id="edge32_Node000016_Node000017" class="edge">
<title>Node16&#45;&gt;Node17</title>
<g id="a_edge32_Node000016_Node000017"><a xlink:title=" ">
<path fill="none" stroke="#63b8ff" d="M1184.39,-286.97C1177.92,-266.38 1166.93,-239.24 1150,-220 1134.1,-201.93 1110.85,-188.06 1091.58,-178.7"/>
<polygon fill="#63b8ff" stroke="#63b8ff" points="1181.1,-288.19 1187.3,-296.78 1187.82,-286.2 1181.1,-288.19"/>
</a>
</g>
</g>
<!-- Node16&#45;&gt;Node18 -->
<g id="edge33_Node000016_Node000018" class="edge">
<title>Node16&#45;&gt;Node18</title>
<g id="a_edge33_Node000016_Node000018"><a xlink:title=" ">
<path fill="none" stroke="#63b8ff" d="M1219.35,-289.51C1228.87,-280.11 1239.37,-269.76 1248.17,-261.07"/>
<polygon fill="#63b8ff" stroke="#63b8ff" points="1216.63,-287.28 1211.97,-296.79 1221.54,-292.26 1216.63,-287.28"/>
</a>
</g>
</g>
<!-- Node18&#45;&gt;Node6 -->
<g id="edge34_Node000018_Node000006" class="edge">
<title>Node18&#45;&gt;Node6</title>
<g id="a_edge34_Node000018_Node000006"><a xlink:title=" ">
<path fill="none" stroke="#63b8ff" d="M1266.41,-209.69C1265.95,-201.08 1265.46,-191.9 1265.04,-184.07"/>
<polygon fill="#63b8ff" stroke="#63b8ff" points="1262.92,-210 1266.95,-219.79 1269.91,-209.62 1262.92,-210"/>
</a>
</g>
</g>
<!-- Node18&#45;&gt;Node8 -->
<g id="edge35_Node000018_Node000008" class="edge">
<title>Node18&#45;&gt;Node8</title>
<g id="a_edge35_Node000018_Node000008"><a xlink:title=" ">
<path fill="none" stroke="#63b8ff" d="M1216.88,-215.16C1200.57,-206.36 1182.9,-195.68 1168,-184 1148.45,-168.67 1152.4,-153.75 1130,-143 1029.37,-94.7 739.39,-123.53 629,-107 626.16,-106.57 623.26,-106.1 620.35,-105.6"/>
<polygon fill="#63b8ff" stroke="#63b8ff" points="1215.3,-218.29 1225.78,-219.85 1218.57,-212.09 1215.3,-218.29"/>
</a>
</g>
</g>
<!-- Node18&#45;&gt;Node17 -->
<g id="edge36_Node000018_Node000017" class="edge">
<title>Node18&#45;&gt;Node17</title>
<g id="a_edge36_Node000018_Node000017"><a xlink:title=" ">
<path fill="none" stroke="#63b8ff" d="M1203.48,-216.57C1168.61,-204.17 1126.67,-189.26 1096.62,-178.58"/>
<polygon fill="#63b8ff" stroke="#63b8ff" points="1202.52,-219.94 1213.11,-219.99 1204.86,-213.34 1202.52,-219.94"/>
</a>
</g>
</g>
<!-- Node19 -->
<g id="Node000019" class="node">
<title>Node19</title>
<g id="a_Node000019"><a xlink:href="_tls_connect_state_machine_8hpp.html" target="_top" xlink:title=" ">
<polygon fill="white" stroke="#666666" points="1531.5,-184 1368.5,-184 1368.5,-143 1531.5,-143 1531.5,-184"/>
<text text-anchor="start" x="1376.5" y="-172" font-family="Helvetica,sans-Serif" font-size="10.00">include/Hermes/Socket</text>
<text text-anchor="start" x="1376.5" y="-161" font-family="Helvetica,sans-Serif" font-size="10.00">/_base/Connection/TlsConnect</text>
<text text-anchor="middle" x="1450" y="-150" font-family="Helvetica,sans-Serif" font-size="10.00">StateMachine.hpp</text>
</a>
</g>
</g>
<!-- Node18&#45;&gt;Node19 -->
<g id="edge37_Node000018_Node000019" class="edge">
<title>Node18&#45;&gt;Node19</title>
<g id="a_edge37_Node000018_Node000019"><a xlink:title=" ">
<path fill="none" stroke="#63b8ff" d="M1324.71,-216.13C1349.71,-205.83 1378.75,-193.86 1402.58,-184.04"/>
<polygon fill="#63b8ff" stroke="#63b8ff" points="1323.26,-212.94 1315.34,-219.99 1325.92,-219.42 1323.26,-212.94"/>
</a>
</g>
</g>
<!-- Node20&#45;&gt;Node13 -->
<g id="edge40_Node000020_Node000013" class="edge">
<title>Node20&#45;&gt;Node13</title>
<g id="a_edge40_Node000020_Node000013"><a xlink:title=" ">
<path fill="none" stroke="#63b8ff" d="M954.2,-222.31C890.66,-208.97 803.72,-190.7 744.68,-178.3"/>
<polygon fill="#63b8ff" stroke="#63b8ff" points="953.68,-225.78 964.19,-224.41 955.12,-218.93 953.68,-225.78"/>
</a>
</g>
</g>
<!-- Node20&#45;&gt;Node17 -->
<g id="edge39_Node000020_Node000017" class="edge">
<title>Node20&#45;&gt;Node17</title>
<g id="a_edge39_Node000020_Node000017"><a xlink:title=" ">
<path fill="none" stroke="#63b8ff" d="M1044.28,-209.94C1047.27,-199.25 1050.51,-187.66 1052.98,-178.86"/>
<polygon fill="#63b8ff" stroke="#63b8ff" points="1040.84,-209.22 1041.52,-219.79 1047.58,-211.11 1040.84,-209.22"/>
</a>
</g>
</g>
<!-- Node21&#45;&gt;Node5 -->
<g id="edge42_Node000021_Node000005" class="edge">
<title>Node21&#45;&gt;Node5</title>
<g id="a_edge42_Node000021_Node000005"><a xlink:title=" ">
<path fill="none" stroke="#63b8ff" d="M419.59,-297.73C403.74,-289.08 387.98,-277.08 379,-261 365.61,-237.02 375.18,-204.74 384,-184.28"/>
<polygon fill="#63b8ff" stroke="#63b8ff" points="418.38,-301.04 428.88,-302.44 421.54,-294.79 418.38,-301.04"/>
</a>
</g>
</g>
<!-- Node21&#45;&gt;Node8 -->
<g id="edge43_Node000021_Node000008" class="edge">
<title>Node21&#45;&gt;Node8</title>
<g id="a_edge43_Node000021_Node000008"><a xlink:title=" ">
<path fill="none" stroke="#63b8ff" d="M427.19,-298.03C363.61,-267.41 254.85,-203.5 303,-143 323.42,-117.34 405.27,-102.54 467.98,-94.78"/>
<polygon fill="#63b8ff" stroke="#63b8ff" points="426.06,-301.37 436.59,-302.48 429.05,-295.04 426.06,-301.37"/>
</a>
</g>
</g>
<!-- Node21&#45;&gt;Node10 -->
<g id="edge44_Node000021_Node000010" class="edge">
<title>Node21&#45;&gt;Node10</title>
<g id="a_edge44_Node000021_Node000010"><a xlink:title=" ">
<path fill="none" stroke="#63b8ff" d="M397.84,-300.18C344.65,-287.98 272.05,-271.33 217.78,-258.88"/>
<polygon fill="#63b8ff" stroke="#63b8ff" points="397.35,-303.66 407.88,-302.48 398.91,-296.83 397.35,-303.66"/>
</a>
</g>
</g>
<!-- Node21&#45;&gt;Node15 -->
<g id="edge45_Node000021_Node000015" class="edge">
<title>Node21&#45;&gt;Node15</title>
<g id="a_edge45_Node000021_Node000015"><a xlink:title=" ">
<path fill="none" stroke="#63b8ff" d="M469,-292.23C469,-282.2 469,-270.71 469,-261.2"/>
<polygon fill="#63b8ff" stroke="#63b8ff" points="465.5,-292.39 469,-302.39 472.5,-292.39 465.5,-292.39"/>
</a>
</g>
</g>
<!-- Node21&#45;&gt;Node18 -->
<g id="edge46_Node000021_Node000018" class="edge">
<title>Node21&#45;&gt;Node18</title>
<g id="a_edge46_Node000021_Node000018"><a xlink:title=" ">
<path fill="none" stroke="#63b8ff" d="M547.63,-309C587.06,-305.29 635.55,-300.81 679,-297 873.14,-279.99 922.19,-281.4 1116,-261 1144.18,-258.03 1175.22,-254.16 1201.86,-250.65"/>
<polygon fill="#63b8ff" stroke="#63b8ff" points="547.18,-305.53 537.55,-309.95 547.84,-312.5 547.18,-305.53"/>
</a>
</g>
</g>
<!-- Node21&#45;&gt;Node22 -->
<g id="edge47_Node000021_Node000022" class="edge">
<title>Node21&#45;&gt;Node22</title>
<g id="a_edge47_Node000021_Node000022"><a xlink:title=" ">
<path fill="none" stroke="#63b8ff" d="M508.99,-298.1C533.42,-286.86 564.62,-272.5 589.48,-261.06"/>
<polygon fill="#63b8ff" stroke="#63b8ff" points="507.28,-295.03 499.66,-302.39 510.21,-301.39 507.28,-295.03"/>
</a>
</g>
</g>
<!-- Node22&#45;&gt;Node13 -->
<g id="edge49_Node000022_Node000013" class="edge">
<title>Node22&#45;&gt;Node13</title>
<g id="a_edge49_Node000022_Node000013"><a xlink:title=" ">
<path fill="none" stroke="#63b8ff" d="M649.7,-211.26C656.62,-200.21 664.26,-188.02 670,-178.86"/>
<polygon fill="#63b8ff" stroke="#63b8ff" points="646.69,-209.46 644.35,-219.79 652.62,-213.18 646.69,-209.46"/>
</a>
</g>
</g>
<!-- Node22&#45;&gt;Node17 -->
<g id="edge48_Node000022_Node000017" class="edge">
<title>Node22&#45;&gt;Node17</title>
<g id="a_edge48_Node000022_Node000017"><a xlink:title=" ">
<path fill="none" stroke="#63b8ff" d="M706.4,-226.17C718.62,-224.05 731.16,-221.93 743,-220 849.46,-202.67 877.36,-205.77 983,-184 990.68,-182.42 998.75,-180.53 1006.62,-178.56"/>
<polygon fill="#63b8ff" stroke="#63b8ff" points="705.48,-222.77 696.23,-227.94 706.68,-229.67 705.48,-222.77"/>
</a>
</g>
</g>
<!-- Node24 -->
<g id="Node000024" class="node">
<title>Node24</title>
<g id="a_Node000024"><a xlink:href="_tls_accept_state_machine_8hpp.html" target="_top" xlink:title=" ">
<polygon fill="white" stroke="#666666" points="1704,-338 1544,-338 1544,-297 1704,-297 1704,-338"/>
<text text-anchor="start" x="1552" y="-326" font-family="Helvetica,sans-Serif" font-size="10.00">include/Hermes/Socket</text>
<text text-anchor="start" x="1552" y="-315" font-family="Helvetica,sans-Serif" font-size="10.00">/_base/Accept/TlsAcceptState</text>
<text text-anchor="middle" x="1624" y="-304" font-family="Helvetica,sans-Serif" font-size="10.00">Machine.hpp</text>
</a>
</g>
</g>
<!-- Node23&#45;&gt;Node24 -->
<g id="edge57_Node000023_Node000024" class="edge">
<title>Node23&#45;&gt;Node24</title>
<g id="a_edge57_Node000023_Node000024"><a xlink:title=" ">
<path fill="none" stroke="#63b8ff" d="M1624,-363.69C1624,-355.08 1624,-345.9 1624,-338.07"/>
<polygon fill="#63b8ff" stroke="#63b8ff" points="1620.5,-363.79 1624,-373.79 1627.5,-363.79 1620.5,-363.79"/>
</a>
</g>
</g>
<!-- Node25&#45;&gt;Node19 -->
<g id="edge59_Node000025_Node000019" class="edge">
<title>Node25&#45;&gt;Node19</title>
<g id="a_edge59_Node000025_Node000019"><a xlink:title=" ">
<path fill="none" stroke="#63b8ff" d="M1442.17,-363.73C1444.04,-316.23 1447.64,-224.57 1449.22,-184.3"/>
<polygon fill="#63b8ff" stroke="#63b8ff" points="1438.66,-363.85 1441.77,-373.98 1445.66,-364.12 1438.66,-363.85"/>
</a>
</g>
</g>
<!-- Node26&#45;&gt;Node27 -->
<g id="edge61_Node000026_Node000027" class="edge">
<title>Node26&#45;&gt;Node27</title>
<g id="a_edge61_Node000026_Node000027"><a xlink:title=" ">
<path fill="none" stroke="#63b8ff" d="M1817.11,-365.39C1823.3,-356.3 1830.02,-346.41 1835.69,-338.07"/>
<polygon fill="#63b8ff" stroke="#63b8ff" points="1814.13,-363.56 1811.4,-373.79 1819.92,-367.49 1814.13,-363.56"/>
</a>
</g>
</g>
</g>
</svg>
