<?xml version="1.0" encoding="UTF-8" standalone="no"?>
<!DOCTYPE svg PUBLIC "-//W3C//DTD SVG 1.1//EN"
 "http://www.w3.org/Graphics/SVG/1.1/DTD/svg11.dtd">
<!-- Generated by graphviz version 2.43.0 (0)
 -->
<!-- Title: include/Hermes/Socket/_base.hpp Pages: 1 -->
<svg width="2950pt" height="302pt"
 viewBox="0.00 0.00 2950.00 302.00" xmlns="http://www.w3.org/2000/svg" xmlns:xlink="http://www.w3.org/1999/xlink">
<g id="graph0" class="graph" transform="scale(1 1) rotate(0) translate(4 298)">
<title>include/Hermes/Socket/_base.hpp</title>
<!-- Node1 -->
<g id="Node000001" class="node">
<title>Node1</title>
<g id="a_Node000001"><a xlink:title=" ">
<polygon fill="#999999" stroke="#666666" points="546,-294 418,-294 418,-264 546,-264 546,-294"/>
<text text-anchor="start" x="426" y="-282" font-family="Helvetica,sans-Serif" font-size="10.00">include/Hermes/Socket</text>
<text text-anchor="middle" x="482" y="-271" font-family="Helvetica,sans-Serif" font-size="10.00">/_base.hpp</text>
</a>
</g>
</g>
<!-- Node2 -->
<g id="Node000002" class="node">
<title>Node2</title>
<g id="a_Node000002"><a xlink:href="_endpoint_concept_8hpp.html" target="_top" xlink:title=" ">
<polygon fill="white" stroke="#666666" points="435,-228 303,-228 303,-198 435,-198 435,-228"/>
<text text-anchor="start" x="311" y="-216" font-family="Helvetica,sans-Serif" font-size="10.00">Hermes/Endpoint/_base</text>
<text text-anchor="middle" x="369" y="-205" font-family="Helvetica,sans-Serif" font-size="10.00">/EndpointConcept.hpp</text>
</a>
</g>
</g>
<!-- Node1&#45;&gt;Node2 -->
<g id="edge1_Node000001_Node000002" class="edge">
<title>Node1&#45;&gt;Node2</title>
<g id="a_edge1_Node000001_Node000002"><a xlink:title=" ">
<path fill="none" stroke="#63b8ff" d="M457.2,-263.95C441.16,-254.87 420.07,-242.93 402.54,-233"/>
<polygon fill="#63b8ff" stroke="#63b8ff" points="404.17,-229.9 393.74,-228.01 400.72,-235.99 404.17,-229.9"/>
</a>
</g>
</g>
<!-- Node3 -->
<g id="Node000003" class="node">
<title>Node3</title>
<g id="a_Node000003"><a xlink:href="_connection_error_enum_8hpp.html" target="_top" xlink:title=" ">
<polygon fill="white" stroke="#666666" points="358.5,-162 191.5,-162 191.5,-132 358.5,-132 358.5,-162"/>
<text text-anchor="start" x="199.5" y="-150" font-family="Helvetica,sans-Serif" font-size="10.00">Hermes/_base/ConnectionError</text>
<text text-anchor="middle" x="275" y="-139" font-family="Helvetica,sans-Serif" font-size="10.00">Enum.hpp</text>
</a>
</g>
</g>
<!-- Node1&#45;&gt;Node3 -->
<g id="edge34_Node000001_Node000003" class="edge">
<title>Node1&#45;&gt;Node3</title>
<g id="a_edge34_Node000001_Node000003"><a xlink:title=" ">
<path fill="none" stroke="#63b8ff" d="M417.92,-277.03C377.1,-272.96 326.04,-260.91 294,-228 279.73,-213.35 275.48,-190.04 274.51,-172.35"/>
<polygon fill="#63b8ff" stroke="#63b8ff" points="278,-172.11 274.26,-162.2 271.01,-172.28 278,-172.11"/>
</a>
</g>
</g>
<!-- Node7 -->
<g id="Node000007" class="node">
<title>Node7</title>
<g id="a_Node000007"><a xlink:title=" ">
<polygon fill="#e0e0e0" stroke="#999999" points="513.5,-85 388.5,-85 388.5,-66 513.5,-66 513.5,-85"/>
<text text-anchor="middle" x="451" y="-73" font-family="Helvetica,sans-Serif" font-size="10.00">stdexec/execution.hpp</text>
</a>
</g>
</g>
<!-- Node1&#45;&gt;Node7 -->
<g id="edge36_Node000001_Node000007" class="edge">
<title>Node1&#45;&gt;Node7</title>
<g id="a_edge36_Node000001_Node000007"><a xlink:title=" ">
<path fill="none" stroke="#63b8ff" d="M479.82,-263.83C474.34,-228.21 459.99,-134.91 453.85,-95.02"/>
<polygon fill="#63b8ff" stroke="#63b8ff" points="457.3,-94.43 452.32,-85.08 450.38,-95.49 457.3,-94.43"/>
</a>
</g>
</g>
<!-- Node9 -->
<g id="Node000009" class="node">
<title>Node9</title>
<g id="a_Node000009"><a xlink:href="_os_api_8hpp.html" target="_top" xlink:title=" ">
<polygon fill="white" stroke="#666666" points="1627,-162 1509,-162 1509,-132 1627,-132 1627,-162"/>
<text text-anchor="start" x="1517" y="-150" font-family="Helvetica,sans-Serif" font-size="10.00">Hermes/_base/OsApi</text>
<text text-anchor="middle" x="1568" y="-139" font-family="Helvetica,sans-Serif" font-size="10.00">/OsApi.hpp</text>
</a>
</g>
</g>
<!-- Node1&#45;&gt;Node9 -->
<g id="edge35_Node000001_Node000009" class="edge">
<title>Node1&#45;&gt;Node9</title>
<g id="a_edge35_Node000001_Node000009"><a xlink:title=" ">
<path fill="none" stroke="#63b8ff" d="M484.21,-263.84C487.96,-245.19 497.48,-213 520,-198 560.71,-170.89 1271.08,-154.07 1498.54,-149.36"/>
<polygon fill="#63b8ff" stroke="#63b8ff" points="1498.76,-152.86 1508.68,-149.15 1498.61,-145.86 1498.76,-152.86"/>
</a>
</g>
</g>
<!-- Node29 -->
<g id="Node000029" class="node">
<title>Node29</title>
<g id="a_Node000029"><a xlink:title=" ">
<polygon fill="#e0e0e0" stroke="#999999" points="589,-222.5 529,-222.5 529,-203.5 589,-203.5 589,-222.5"/>
<text text-anchor="middle" x="559" y="-210.5" font-family="Helvetica,sans-Serif" font-size="10.00">concepts</text>
</a>
</g>
</g>
<!-- Node1&#45;&gt;Node29 -->
<g id="edge37_Node000001_Node000029" class="edge">
<title>Node1&#45;&gt;Node29</title>
<g id="a_edge37_Node000001_Node000029"><a xlink:title=" ">
<path fill="none" stroke="#63b8ff" d="M499.09,-263.8C511.33,-253.62 527.8,-239.93 540.38,-229.48"/>
<polygon fill="#63b8ff" stroke="#63b8ff" points="542.91,-231.93 548.36,-222.84 538.43,-226.54 542.91,-231.93"/>
</a>
</g>
</g>
<!-- Node30 -->
<g id="Node000030" class="node">
<title>Node30</title>
<g id="a_Node000030"><a xlink:title=" ">
<polygon fill="#e0e0e0" stroke="#999999" points="657,-222.5 607,-222.5 607,-203.5 657,-203.5 657,-222.5"/>
<text text-anchor="middle" x="632" y="-210.5" font-family="Helvetica,sans-Serif" font-size="10.00">ranges</text>
</a>
</g>
</g>
<!-- Node1&#45;&gt;Node30 -->
<g id="edge38_Node000001_Node000030" class="edge">
<title>Node1&#45;&gt;Node30</title>
<g id="a_edge38_Node000001_Node000030"><a xlink:title=" ">
<path fill="none" stroke="#63b8ff" d="M514.92,-263.95C541.11,-252.78 577.42,-237.29 602.63,-226.53"/>
<polygon fill="#63b8ff" stroke="#63b8ff" points="604.21,-229.66 612.04,-222.52 601.47,-223.22 604.21,-229.66"/>
</a>
</g>
</g>
<!-- Node2&#45;&gt;Node3 -->
<g id="edge2_Node000002_Node000003" class="edge">
<title>Node2&#45;&gt;Node3</title>
<g id="a_edge2_Node000002_Node000003"><a xlink:title=" ">
<path fill="none" stroke="#63b8ff" d="M348.14,-197.8C335.24,-189.01 318.49,-177.61 304.27,-167.93"/>
<polygon fill="#63b8ff" stroke="#63b8ff" points="306.04,-164.9 295.8,-162.16 302.1,-170.69 306.04,-164.9"/>
</a>
</g>
</g>
<!-- Node2&#45;&gt;Node9 -->
<g id="edge8_Node000002_Node000009" class="edge">
<title>Node2&#45;&gt;Node9</title>
<g id="a_edge8_Node000002_Node000009"><a xlink:title=" ">
<path fill="none" stroke="#63b8ff" d="M435.07,-203.31C451.97,-201.32 470.14,-199.39 487,-198 868.2,-166.61 1326.78,-153.52 1498.56,-149.48"/>
<polygon fill="#63b8ff" stroke="#63b8ff" points="1498.81,-152.98 1508.73,-149.25 1498.65,-145.98 1498.81,-152.98"/>
</a>
</g>
</g>
<!-- Node4 -->
<g id="Node000004" class="node">
<title>Node4</title>
<g id="a_Node000004"><a xlink:title=" ">
<polygon fill="#e0e0e0" stroke="#999999" points="62,-85 0,-85 0,-66 62,-66 62,-85"/>
<text text-anchor="middle" x="31" y="-73" font-family="Helvetica,sans-Serif" font-size="10.00">expected</text>
</a>
</g>
</g>
<!-- Node3&#45;&gt;Node4 -->
<g id="edge3_Node000003_Node000004" class="edge">
<title>Node3&#45;&gt;Node4</title>
<g id="a_edge3_Node000003_Node000004"><a xlink:title=" ">
<path fill="none" stroke="#63b8ff" d="M201.66,-131.99C162.32,-123.49 113.35,-111.31 71,-96 65.95,-94.17 60.7,-91.9 55.72,-89.56"/>
<polygon fill="#63b8ff" stroke="#63b8ff" points="57.14,-86.36 46.62,-85.08 54.05,-92.64 57.14,-86.36"/>
</a>
</g>
</g>
<!-- Node5 -->
<g id="Node000005" class="node">
<title>Node5</title>
<g id="a_Node000005"><a xlink:title=" ">
<polygon fill="#e0e0e0" stroke="#999999" points="127.5,-85 80.5,-85 80.5,-66 127.5,-66 127.5,-85"/>
<text text-anchor="middle" x="104" y="-73" font-family="Helvetica,sans-Serif" font-size="10.00">vector</text>
</a>
</g>
</g>
<!-- Node3&#45;&gt;Node5 -->
<g id="edge4_Node000003_Node000005" class="edge">
<title>Node3&#45;&gt;Node5</title>
<g id="a_edge4_Node000003_Node000005"><a xlink:title=" ">
<path fill="none" stroke="#63b8ff" d="M229.71,-131.96C202.35,-122.9 167.08,-110.18 137,-96 133.31,-94.26 129.5,-92.24 125.84,-90.17"/>
<polygon fill="#63b8ff" stroke="#63b8ff" points="127.57,-87.13 117.18,-85.05 124.01,-93.15 127.57,-87.13"/>
</a>
</g>
</g>
<!-- Node6 -->
<g id="Node000006" class="node">
<title>Node6</title>
<g id="a_Node000006"><a xlink:title=" ">
<polygon fill="#e0e0e0" stroke="#999999" points="186,-85 146,-85 146,-66 186,-66 186,-85"/>
<text text-anchor="middle" x="166" y="-73" font-family="Helvetica,sans-Serif" font-size="10.00">span</text>
</a>
</g>
</g>
<!-- Node3&#45;&gt;Node6 -->
<g id="edge5_Node000003_Node000006" class="edge">
<title>Node3&#45;&gt;Node6</title>
<g id="a_edge5_Node000003_Node000006"><a xlink:title=" ">
<path fill="none" stroke="#63b8ff" d="M251.39,-131.9C235.12,-122.06 213.07,-108.51 194,-96 191.54,-94.39 188.98,-92.66 186.45,-90.94"/>
<polygon fill="#63b8ff" stroke="#63b8ff" points="188.38,-88.01 178.17,-85.19 184.39,-93.77 188.38,-88.01"/>
</a>
</g>
</g>
<!-- Node3&#45;&gt;Node7 -->
<g id="edge6_Node000003_Node000007" class="edge">
<title>Node3&#45;&gt;Node7</title>
<g id="a_edge6_Node000003_Node000007"><a xlink:title=" ">
<path fill="none" stroke="#63b8ff" d="M310.62,-131.94C342.7,-119.27 389.39,-100.83 419.98,-88.75"/>
<polygon fill="#63b8ff" stroke="#63b8ff" points="421.29,-92 429.3,-85.07 418.72,-85.49 421.29,-92"/>
</a>
</g>
</g>
<!-- Node8 -->
<g id="Node000008" class="node">
<title>Node8</title>
<g id="a_Node000008"><a xlink:title=" ">
<polygon fill="#e0e0e0" stroke="#999999" points="370.5,-90.5 203.5,-90.5 203.5,-60.5 370.5,-60.5 370.5,-90.5"/>
<text text-anchor="start" x="211.5" y="-78.5" font-family="Helvetica,sans-Serif" font-size="10.00">Hermes/_base/ConnectionError</text>
<text text-anchor="middle" x="287" y="-67.5" font-family="Helvetica,sans-Serif" font-size="10.00">Enum.tpp</text>
</a>
</g>
</g>
<!-- Node3&#45;&gt;Node8 -->
<g id="edge7_Node000003_Node000008" class="edge">
<title>Node3&#45;&gt;Node8</title>
<g id="a_edge7_Node000003_Node000008"><a xlink:title=" ">
<path fill="none" stroke="#63b8ff" d="M277.43,-131.94C278.99,-122.89 281.06,-110.91 282.87,-100.4"/>
<polygon fill="#63b8ff" stroke="#63b8ff" points="286.32,-100.99 284.58,-90.54 279.42,-99.8 286.32,-100.99"/>
</a>
</g>
</g>
<!-- Node10 -->
<g id="Node000010" class="node">
<title>Node10</title>
<g id="a_Node000010"><a xlink:title=" ">
<polygon fill="#e0e0e0" stroke="#999999" points="2126.5,-19 2049.5,-19 2049.5,0 2126.5,0 2126.5,-19"/>
<text text-anchor="middle" x="2088" y="-7" font-family="Helvetica,sans-Serif" font-size="10.00">sys/socket.h</text>
</a>
</g>
</g>
<!-- Node9&#45;&gt;Node10 -->
<g id="edge9_Node000009_Node000010" class="edge">
<title>Node9&#45;&gt;Node10</title>
<g id="a_edge9_Node000009_Node000010"><a xlink:title=" ">
<path fill="none" stroke="#63b8ff" d="M1627.09,-143.94C1752.49,-139.03 2036.51,-124.83 2069,-96 2087.63,-79.46 2090.2,-49.07 2089.63,-29.33"/>
<polygon fill="#63b8ff" stroke="#63b8ff" points="2093.11,-28.91 2089.03,-19.13 2086.12,-29.32 2093.11,-28.91"/>
</a>
</g>
</g>
<!-- Node11 -->
<g id="Node000011" class="node">
<title>Node11</title>
<g id="a_Node000011"><a xlink:title=" ">
<polygon fill="#e0e0e0" stroke="#999999" points="2684,-19 2612,-19 2612,0 2684,0 2684,-19"/>
<text text-anchor="middle" x="2648" y="-7" font-family="Helvetica,sans-Serif" font-size="10.00">netinet/in.h</text>
</a>
</g>
</g>
<!-- Node9&#45;&gt;Node11 -->
<g id="edge10_Node000009_Node000011" class="edge">
<title>Node9&#45;&gt;Node11</title>
<g id="a_edge10_Node000009_Node000011"><a xlink:title=" ">
<path fill="none" stroke="#63b8ff" d="M1627.32,-145.66C1856.75,-144.04 2675.16,-135.53 2713,-96 2725.6,-82.84 2721.5,-71.12 2713,-55 2705.76,-41.27 2692.17,-30.97 2679.28,-23.76"/>
<polygon fill="#63b8ff" stroke="#63b8ff" points="2680.61,-20.51 2670.12,-19.05 2677.41,-26.73 2680.61,-20.51"/>
</a>
</g>
</g>
<!-- Node12 -->
<g id="Node000012" class="node">
<title>Node12</title>
<g id="a_Node000012"><a xlink:title=" ">
<polygon fill="#e0e0e0" stroke="#999999" points="600.5,-85 531.5,-85 531.5,-66 600.5,-66 600.5,-85"/>
<text text-anchor="middle" x="566" y="-73" font-family="Helvetica,sans-Serif" font-size="10.00">arpa/inet.h</text>
</a>
</g>
</g>
<!-- Node9&#45;&gt;Node12 -->
<g id="edge11_Node000009_Node000012" class="edge">
<title>Node9&#45;&gt;Node12</title>
<g id="a_edge11_Node000009_Node000012"><a xlink:title=" ">
<path fill="none" stroke="#63b8ff" d="M1508.93,-145.79C1327.63,-144.69 781.01,-137.9 609,-96 602.88,-94.51 596.55,-92.15 590.7,-89.59"/>
<polygon fill="#63b8ff" stroke="#63b8ff" points="591.96,-86.31 581.42,-85.19 588.96,-92.64 591.96,-86.31"/>
</a>
</g>
</g>
<!-- Node13 -->
<g id="Node000013" class="node">
<title>Node13</title>
<g id="a_Node000013"><a xlink:title=" ">
<polygon fill="#e0e0e0" stroke="#999999" points="2846.5,-19 2793.5,-19 2793.5,0 2846.5,0 2846.5,-19"/>
<text text-anchor="middle" x="2820" y="-7" font-family="Helvetica,sans-Serif" font-size="10.00">netdb.h</text>
</a>
</g>
</g>
<!-- Node9&#45;&gt;Node13 -->
<g id="edge12_Node000009_Node000013" class="edge">
<title>Node9&#45;&gt;Node13</title>
<g id="a_edge12_Node000009_Node000013"><a xlink:title=" ">
<path fill="none" stroke="#63b8ff" d="M1627.05,-145.88C1849.31,-145.08 2628.18,-139.22 2730,-96 2764.22,-81.48 2793.18,-47.71 2808.44,-27.23"/>
<polygon fill="#63b8ff" stroke="#63b8ff" points="2811.28,-29.27 2814.28,-19.11 2805.6,-25.18 2811.28,-29.27"/>
</a>
</g>
</g>
<!-- Node14 -->
<g id="Node000014" class="node">
<title>Node14</title>
<g id="a_Node000014"><a xlink:title=" ">
<polygon fill="#e0e0e0" stroke="#999999" points="978,-85 922,-85 922,-66 978,-66 978,-85"/>
<text text-anchor="middle" x="950" y="-73" font-family="Helvetica,sans-Serif" font-size="10.00">unistd.h</text>
</a>
</g>
</g>
<!-- Node9&#45;&gt;Node14 -->
<g id="edge13_Node000009_Node000014" class="edge">
<title>Node9&#45;&gt;Node14</title>
<g id="a_edge13_Node000009_Node000014"><a xlink:title=" ">
<path fill="none" stroke="#63b8ff" d="M1508.79,-143.89C1381.12,-138.84 1083.66,-124.36 987,-96 982.04,-94.54 976.97,-92.39 972.24,-90.03"/>
<polygon fill="#63b8ff" stroke="#63b8ff" points="973.61,-86.79 963.15,-85.09 970.26,-92.94 973.61,-86.79"/>
</a>
</g>
</g>
<!-- Node15 -->
<g id="Node000015" class="node">
<title>Node15</title>
<g id="a_Node000015"><a xlink:href="_types_8hpp.html" target="_top" xlink:title=" ">
<polygon fill="white" stroke="#666666" points="1114,-90.5 996,-90.5 996,-60.5 1114,-60.5 1114,-90.5"/>
<text text-anchor="start" x="1004" y="-78.5" font-family="Helvetica,sans-Serif" font-size="10.00">Hermes/_base/OsApi</text>
<text text-anchor="middle" x="1055" y="-67.5" font-family="Helvetica,sans-Serif" font-size="10.00">/Types.hpp</text>
</a>
</g>
</g>
<!-- Node9&#45;&gt;Node15 -->
<g id="edge14_Node000009_Node000015" class="edge">
<title>Node9&#45;&gt;Node15</title>
<g id="a_edge14_Node000009_Node000015"><a xlink:title=" ">
<path fill="none" stroke="#63b8ff" d="M1509,-142.43C1423.49,-136.57 1260.44,-122.78 1124,-96 1119.62,-95.14 1115.12,-94.14 1110.61,-93.05"/>
<polygon fill="#63b8ff" stroke="#63b8ff" points="1111.32,-89.63 1100.77,-90.56 1109.61,-96.41 1111.32,-89.63"/>
</a>
</g>
</g>
<!-- Node16 -->
<g id="Node000016" class="node">
<title>Node16</title>
<g id="a_Node000016"><a xlink:href="_conversion_and_literals_8hpp.html" target="_top" xlink:title=" ">
<polygon fill="white" stroke="#666666" points="768,-90.5 618,-90.5 618,-60.5 768,-60.5 768,-90.5"/>
<text text-anchor="start" x="626" y="-78.5" font-family="Helvetica,sans-Serif" font-size="10.00">Hermes/_base/OsApi</text>
<text text-anchor="middle" x="693" y="-67.5" font-family="Helvetica,sans-Serif" font-size="10.00">/ConversionAndLiterals.hpp</text>
</a>
</g>
</g>
<!-- Node9&#45;&gt;Node16 -->
<g id="edge15_Node000009_Node000016" class="edge">
<title>Node9&#45;&gt;Node16</title>
<g id="a_edge15_Node000009_Node000016"><a xlink:title=" ">
<path fill="none" stroke="#63b8ff" d="M1508.61,-145.58C1376.44,-143.93 1048.27,-135.78 777,-96 770.68,-95.07 764.14,-93.91 757.62,-92.63"/>
<polygon fill="#63b8ff" stroke="#63b8ff" points="757.93,-89.12 747.43,-90.51 756.5,-95.97 757.93,-89.12"/>
</a>
</g>
</g>
<!-- Node18 -->
<g id="Node000018" class="node">
<title>Node18</title>
<g id="a_Node000018"><a xlink:href="_macros_8hpp.html" target="_top" xlink:title=" ">
<polygon fill="white" stroke="#666666" points="904,-90.5 786,-90.5 786,-60.5 904,-60.5 904,-90.5"/>
<text text-anchor="start" x="794" y="-78.5" font-family="Helvetica,sans-Serif" font-size="10.00">Hermes/_base/OsApi</text>
<text text-anchor="middle" x="845" y="-67.5" font-family="Helvetica,sans-Serif" font-size="10.00">/Macros.hpp</text>
</a>
</g>
</g>
<!-- Node9&#45;&gt;Node18 -->
<g id="edge17_Node000009_Node000018" class="edge">
<title>Node9&#45;&gt;Node18</title>
<g id="a_edge17_Node000009_Node000018"><a xlink:title=" ">
<path fill="none" stroke="#63b8ff" d="M1508.78,-145.49C1393.27,-143.62 1130.2,-135.02 913,-96 908.33,-95.16 903.53,-94.13 898.74,-92.99"/>
<polygon fill="#63b8ff" stroke="#63b8ff" points="899.51,-89.58 888.95,-90.51 897.79,-96.36 899.51,-89.58"/>
</a>
</g>
</g>
<!-- Node20 -->
<g id="Node000020" class="node">
<title>Node20</title>
<g id="a_Node000020"><a xlink:href="_address_family_enum_8hpp.html" target="_top" xlink:title=" ">
<polygon fill="white" stroke="#666666" points="2292,-90.5 2116,-90.5 2116,-60.5 2292,-60.5 2292,-90.5"/>
<text text-anchor="start" x="2124" y="-78.5" font-family="Helvetica,sans-Serif" font-size="10.00">Hermes/_base/OsApi</text>
<text text-anchor="middle" x="2204" y="-67.5" font-family="Helvetica,sans-Serif" font-size="10.00">/Enums/AddressFamilyEnum.hpp</text>
</a>
</g>
</g>
<!-- Node9&#45;&gt;Node20 -->
<g id="edge20_Node000009_Node000020" class="edge">
<title>Node9&#45;&gt;Node20</title>
<g id="a_edge20_Node000009_Node000020"><a xlink:title=" ">
<path fill="none" stroke="#63b8ff" d="M1627.08,-142.32C1725.78,-135.76 1930.3,-120.39 2102,-96 2109.66,-94.91 2117.61,-93.64 2125.55,-92.28"/>
<polygon fill="#63b8ff" stroke="#63b8ff" points="2126.33,-95.7 2135.57,-90.51 2125.11,-88.8 2126.33,-95.7"/>
</a>
</g>
</g>
<!-- Node21 -->
<g id="Node000021" class="node">
<title>Node21</title>
<g id="a_Node000021"><a xlink:href="_protocol_base_type_enum_8hpp.html" target="_top" xlink:title=" ">
<polygon fill="white" stroke="#666666" points="2703.5,-90.5 2512.5,-90.5 2512.5,-60.5 2703.5,-60.5 2703.5,-90.5"/>
<text text-anchor="start" x="2520.5" y="-78.5" font-family="Helvetica,sans-Serif" font-size="10.00">Hermes/_base/OsApi</text>
<text text-anchor="middle" x="2608" y="-67.5" font-family="Helvetica,sans-Serif" font-size="10.00">/Enums/ProtocolBaseTypeEnum.hpp</text>
</a>
</g>
</g>
<!-- Node9&#45;&gt;Node21 -->
<g id="edge22_Node000009_Node000021" class="edge">
<title>Node9&#45;&gt;Node21</title>
<g id="a_edge22_Node000009_Node000021"><a xlink:title=" ">
<path fill="none" stroke="#63b8ff" d="M1627.1,-145.55C1775.24,-143.82 2174.19,-135.55 2504,-96 2512.55,-94.97 2521.45,-93.67 2530.29,-92.23"/>
<polygon fill="#63b8ff" stroke="#63b8ff" points="2530.95,-95.66 2540.23,-90.54 2529.78,-88.76 2530.95,-95.66"/>
</a>
</g>
</g>
<!-- Node22 -->
<g id="Node000022" class="node">
<title>Node22</title>
<g id="a_Node000022"><a xlink:href="_socket_shutdown_enum_8hpp.html" target="_top" xlink:title=" ">
<polygon fill="white" stroke="#666666" points="2494.5,-90.5 2309.5,-90.5 2309.5,-60.5 2494.5,-60.5 2494.5,-90.5"/>
<text text-anchor="start" x="2317.5" y="-78.5" font-family="Helvetica,sans-Serif" font-size="10.00">Hermes/_base/OsApi</text>
<text text-anchor="middle" x="2402" y="-67.5" font-family="Helvetica,sans-Serif" font-size="10.00">/Enums/SocketShutdownEnum.hpp</text>
</a>
</g>
</g>
<!-- Node9&#45;&gt;Node22 -->
<g id="edge24_Node000009_Node000022" class="edge">
<title>Node9&#45;&gt;Node22</title>
<g id="a_edge24_Node000009_Node000022"><a xlink:title=" ">
<path fill="none" stroke="#63b8ff" d="M1627.15,-144.42C1752.08,-140.56 2051.82,-128.43 2301,-96 2308.99,-94.96 2317.31,-93.68 2325.59,-92.28"/>
<polygon fill="#63b8ff" stroke="#63b8ff" points="2326.39,-95.69 2335.64,-90.51 2325.18,-88.79 2326.39,-95.69"/>
</a>
</g>
</g>
<!-- Node23 -->
<g id="Node000023" class="node">
<title>Node23</title>
<g id="a_Node000023"><a xlink:href="_socket_type_enum_8hpp.html" target="_top" xlink:title=" ">
<polygon fill="white" stroke="#666666" points="1291.5,-90.5 1132.5,-90.5 1132.5,-60.5 1291.5,-60.5 1291.5,-90.5"/>
<text text-anchor="start" x="1140.5" y="-78.5" font-family="Helvetica,sans-Serif" font-size="10.00">Hermes/_base/OsApi</text>
<text text-anchor="middle" x="1212" y="-67.5" font-family="Helvetica,sans-Serif" font-size="10.00">/Enums/SocketTypeEnum.hpp</text>
</a>
</g>
</g>
<!-- Node9&#45;&gt;Node23 -->
<g id="edge26_Node000009_Node000023" class="edge">
<title>Node9&#45;&gt;Node23</title>
<g id="a_edge26_Node000009_Node000023"><a xlink:title=" ">
<path fill="none" stroke="#63b8ff" d="M1508.78,-135.45C1454.6,-125.66 1372.29,-110.48 1301,-96 1295.77,-94.94 1290.37,-93.82 1284.94,-92.67"/>
<polygon fill="#63b8ff" stroke="#63b8ff" points="1285.66,-89.25 1275.16,-90.59 1284.21,-96.09 1285.66,-89.25"/>
</a>
</g>
</g>
<!-- Node24 -->
<g id="Node000024" class="node">
<title>Node24</title>
<g id="a_Node000024"><a xlink:href="_linux_2_encrypt_status_enum_8hpp.html" target="_top" xlink:title=" ">
<polygon fill="white" stroke="#666666" points="1462,-96 1310,-96 1310,-55 1462,-55 1462,-96"/>
<text text-anchor="start" x="1318" y="-84" font-family="Helvetica,sans-Serif" font-size="10.00">Hermes/_base/OsApi</text>
<text text-anchor="start" x="1318" y="-73" font-family="Helvetica,sans-Serif" font-size="10.00">/Enums/Linux/EncryptStatus</text>
<text text-anchor="middle" x="1386" y="-62" font-family="Helvetica,sans-Serif" font-size="10.00">Enum.hpp</text>
</a>
</g>
</g>
<!-- Node9&#45;&gt;Node24 -->
<g id="edge28_Node000009_Node000024" class="edge">
<title>Node9&#45;&gt;Node24</title>
<g id="a_edge28_Node000009_Node000024"><a xlink:title=" ">
<path fill="none" stroke="#63b8ff" d="M1531.17,-131.94C1507.01,-122.71 1474.85,-110.43 1446.93,-99.77"/>
<polygon fill="#63b8ff" stroke="#63b8ff" points="1447.85,-96.37 1437.26,-96.07 1445.35,-102.91 1447.85,-96.37"/>
</a>
</g>
</g>
<!-- Node25 -->
<g id="Node000025" class="node">
<title>Node25</title>
<g id="a_Node000025"><a xlink:href="_name_info_flags_8hpp.html" target="_top" xlink:title=" ">
<polygon fill="white" stroke="#666666" points="2942,-90.5 2798,-90.5 2798,-60.5 2942,-60.5 2942,-90.5"/>
<text text-anchor="start" x="2806" y="-78.5" font-family="Helvetica,sans-Serif" font-size="10.00">Hermes/_base/OsApi</text>
<text text-anchor="middle" x="2870" y="-67.5" font-family="Helvetica,sans-Serif" font-size="10.00">/Flags/NameInfoFlags.hpp</text>
</a>
</g>
</g>
<!-- Node9&#45;&gt;Node25 -->
<g id="edge29_Node000009_Node000025" class="edge">
<title>Node9&#45;&gt;Node25</title>
<g id="a_edge29_Node000009_Node000025"><a xlink:title=" ">
<path fill="none" stroke="#63b8ff" d="M1627.14,-144.99C1838.56,-141.17 2556.35,-126.23 2784,-96 2790.73,-95.11 2797.71,-93.94 2804.65,-92.61"/>
<polygon fill="#63b8ff" stroke="#63b8ff" points="2805.64,-95.99 2814.75,-90.58 2804.26,-89.12 2805.64,-95.99"/>
</a>
</g>
</g>
<!-- Node26 -->
<g id="Node000026" class="node">
<title>Node26</title>
<g id="a_Node000026"><a xlink:href="_linux_2_credential_flags_8hpp.html" target="_top" xlink:title=" ">
<polygon fill="white" stroke="#666666" points="1656,-90.5 1480,-90.5 1480,-60.5 1656,-60.5 1656,-90.5"/>
<text text-anchor="start" x="1488" y="-78.5" font-family="Helvetica,sans-Serif" font-size="10.00">Hermes/_base/OsApi</text>
<text text-anchor="middle" x="1568" y="-67.5" font-family="Helvetica,sans-Serif" font-size="10.00">/Flags/Linux/CredentialFlags.hpp</text>
</a>
</g>
</g>
<!-- Node9&#45;&gt;Node26 -->
<g id="edge31_Node000009_Node000026" class="edge">
<title>Node9&#45;&gt;Node26</title>
<g id="a_edge31_Node000009_Node000026"><a xlink:title=" ">
<path fill="none" stroke="#63b8ff" d="M1568,-131.94C1568,-122.99 1568,-111.16 1568,-100.73"/>
<polygon fill="#63b8ff" stroke="#63b8ff" points="1571.5,-100.54 1568,-90.54 1564.5,-100.54 1571.5,-100.54"/>
</a>
</g>
</g>
<!-- Node27 -->
<g id="Node000027" class="node">
<title>Node27</title>
<g id="a_Node000027"><a xlink:href="_linux_2_supported_protocols_flags_8hpp.html" target="_top" xlink:title=" ">
<polygon fill="white" stroke="#666666" points="1847.5,-96 1674.5,-96 1674.5,-55 1847.5,-55 1847.5,-96"/>
<text text-anchor="start" x="1682.5" y="-84" font-family="Helvetica,sans-Serif" font-size="10.00">Hermes/_base/OsApi</text>
<text text-anchor="start" x="1682.5" y="-73" font-family="Helvetica,sans-Serif" font-size="10.00">/Flags/Linux/SupportedProtocols</text>
<text text-anchor="middle" x="1761" y="-62" font-family="Helvetica,sans-Serif" font-size="10.00">Flags.hpp</text>
</a>
</g>
</g>
<!-- Node9&#45;&gt;Node27 -->
<g id="edge32_Node000009_Node000027" class="edge">
<title>Node9&#45;&gt;Node27</title>
<g id="a_edge32_Node000009_Node000027"><a xlink:title=" ">
<path fill="none" stroke="#63b8ff" d="M1607.06,-131.94C1632.9,-122.63 1667.38,-110.21 1697.16,-99.49"/>
<polygon fill="#63b8ff" stroke="#63b8ff" points="1698.42,-102.75 1706.64,-96.07 1696.05,-96.17 1698.42,-102.75"/>
</a>
</g>
</g>
<!-- Node28 -->
<g id="Node000028" class="node">
<title>Node28</title>
<g id="a_Node000028"><a xlink:href="_linux_2_s_channel_cred_flags_8hpp.html" target="_top" xlink:title=" ">
<polygon fill="white" stroke="#666666" points="2060,-90.5 1866,-90.5 1866,-60.5 2060,-60.5 2060,-90.5"/>
<text text-anchor="start" x="1874" y="-78.5" font-family="Helvetica,sans-Serif" font-size="10.00">Hermes/_base/OsApi</text>
<text text-anchor="middle" x="1963" y="-67.5" font-family="Helvetica,sans-Serif" font-size="10.00">/Flags/Linux/SChannelCredFlags.hpp</text>
</a>
</g>
</g>
<!-- Node9&#45;&gt;Node28 -->
<g id="edge33_Node000009_Node000028" class="edge">
<title>Node9&#45;&gt;Node28</title>
<g id="a_edge33_Node000009_Node000028"><a xlink:title=" ">
<path fill="none" stroke="#63b8ff" d="M1627.26,-135.94C1685.7,-125.97 1777.55,-110.18 1857,-96 1863.56,-94.83 1870.34,-93.61 1877.17,-92.37"/>
<polygon fill="#63b8ff" stroke="#63b8ff" points="1877.95,-95.78 1887.17,-90.55 1876.7,-88.9 1877.95,-95.78"/>
</a>
</g>
</g>
<!-- Node17 -->
<g id="Node000017" class="node">
<title>Node17</title>
<g id="a_Node000017"><a xlink:title=" ">
<polygon fill="#e0e0e0" stroke="#999999" points="718,-19 668,-19 668,0 718,0 718,-19"/>
<text text-anchor="middle" x="693" y="-7" font-family="Helvetica,sans-Serif" font-size="10.00">cstdint</text>
</a>
</g>
</g>
<!-- Node16&#45;&gt;Node17 -->
<g id="edge16_Node000016_Node000017" class="edge">
<title>Node16&#45;&gt;Node17</title>
<g id="a_edge16_Node000016_Node000017"><a xlink:title=" ">
<path fill="none" stroke="#63b8ff" d="M693,-60.3C693,-51.2 693,-39.29 693,-29.4"/>
<polygon fill="#63b8ff" stroke="#63b8ff" points="696.5,-29.34 693,-19.34 689.5,-29.34 696.5,-29.34"/>
</a>
</g>
</g>
<!-- Node18&#45;&gt;Node10 -->
<g id="edge19_Node000018_Node000010" class="edge">
<title>Node18&#45;&gt;Node10</title>
<g id="a_edge19_Node000018_Node000010"><a xlink:title=" ">
<path fill="none" stroke="#63b8ff" d="M888.18,-60.43C896.34,-58.25 904.87,-56.3 913,-55 1135.18,-19.47 1845.99,-12.13 2039.16,-10.78"/>
<polygon fill="#63b8ff" stroke="#63b8ff" points="2039.31,-14.28 2049.29,-10.71 2039.26,-7.28 2039.31,-14.28"/>
</a>
</g>
</g>
<!-- Node19 -->
<g id="Node000019" class="node">
<title>Node19</title>
<g id="a_Node000019"><a xlink:title=" ">
<polygon fill="#e0e0e0" stroke="#999999" points="881.5,-19 808.5,-19 808.5,0 881.5,0 881.5,-19"/>
<text text-anchor="middle" x="845" y="-7" font-family="Helvetica,sans-Serif" font-size="10.00">string_view</text>
</a>
</g>
</g>
<!-- Node18&#45;&gt;Node19 -->
<g id="edge18_Node000018_Node000019" class="edge">
<title>Node18&#45;&gt;Node19</title>
<g id="a_edge18_Node000018_Node000019"><a xlink:title=" ">
<path fill="none" stroke="#63b8ff" d="M845,-60.3C845,-51.2 845,-39.29 845,-29.4"/>
<polygon fill="#63b8ff" stroke="#63b8ff" points="848.5,-29.34 845,-19.34 841.5,-29.34 848.5,-29.34"/>
</a>
</g>
</g>
<!-- Node20&#45;&gt;Node10 -->
<g id="edge21_Node000020_Node000010" class="edge">
<title>Node20&#45;&gt;Node10</title>
<g id="a_edge21_Node000020_Node000010"><a xlink:title=" ">
<path fill="none" stroke="#63b8ff" d="M2178.54,-60.45C2158.83,-49.58 2131.69,-34.61 2112.28,-23.9"/>
<polygon fill="#63b8ff" stroke="#63b8ff" points="2113.88,-20.78 2103.44,-19.02 2110.5,-26.91 2113.88,-20.78"/>
</a>
</g>
</g>
<!-- Node21&#45;&gt;Node11 -->
<g id="edge23_Node000021_Node000011" class="edge">
<title>Node21&#45;&gt;Node11</title>
<g id="a_edge23_Node000021_Node000011"><a xlink:title=" ">
<path fill="none" stroke="#63b8ff" d="M2616.88,-60.3C2622.81,-50.81 2630.65,-38.26 2636.98,-28.13"/>
<polygon fill="#63b8ff" stroke="#63b8ff" points="2640.14,-29.68 2642.47,-19.34 2634.2,-25.97 2640.14,-29.68"/>
</a>
</g>
</g>
<!-- Node22&#45;&gt;Node10 -->
<g id="edge25_Node000022_Node000010" class="edge">
<title>Node22&#45;&gt;Node10</title>
<g id="a_edge25_Node000022_Node000010"><a xlink:title=" ">
<path fill="none" stroke="#63b8ff" d="M2333.09,-60.45C2273.69,-48.35 2189.4,-31.17 2136.76,-20.44"/>
<polygon fill="#63b8ff" stroke="#63b8ff" points="2137.16,-16.95 2126.67,-18.38 2135.77,-23.81 2137.16,-16.95"/>
</a>
</g>
</g>
<!-- Node23&#45;&gt;Node10 -->
<g id="edge27_Node000023_Node000010" class="edge">
<title>Node23&#45;&gt;Node10</title>
<g id="a_edge27_Node000023_Node000010"><a xlink:title=" ">
<path fill="none" stroke="#63b8ff" d="M1269.69,-60.46C1280.06,-58.34 1290.81,-56.39 1301,-55 1578.32,-17.02 1914.89,-11.33 2039,-10.57"/>
<polygon fill="#63b8ff" stroke="#63b8ff" points="2039.32,-14.07 2049.3,-10.51 2039.28,-7.07 2039.32,-14.07"/>
</a>
</g>
</g>
<!-- Node25&#45;&gt;Node13 -->
<g id="edge30_Node000025_Node000013" class="edge">
<title>Node25&#45;&gt;Node13</title>
<g id="a_edge30_Node000025_Node000013"><a xlink:title=" ">
<path fill="none" stroke="#63b8ff" d="M2858.9,-60.3C2851.34,-50.61 2841.28,-37.74 2833.29,-27.51"/>
<polygon fill="#63b8ff" stroke="#63b8ff" points="2835.82,-25.07 2826.91,-19.34 2830.31,-29.38 2835.82,-25.07"/>
</a>
</g>
</g>
</g>
</svg>
