<?xml version="1.0" encoding="UTF-8" standalone="no"?>
<!DOCTYPE svg PUBLIC "-//W3C//DTD SVG 1.1//EN"
 "http://www.w3.org/Graphics/SVG/1.1/DTD/svg11.dtd">
<!-- Generated by graphviz version 2.43.0 (0)
 -->
<!-- Title: include/Hermes/Socket/_base.hpp Pages: 1 -->
<svg width="4100pt" height="302pt"
 viewBox="0.00 0.00 4100.00 302.00" xmlns="http://www.w3.org/2000/svg" xmlns:xlink="http://www.w3.org/1999/xlink">
<g id="graph0" class="graph" transform="scale(1 1) rotate(0) translate(4 298)">
<title>include/Hermes/Socket/_base.hpp</title>
<!-- Node1 -->
<g id="Node000001" class="node">
<title>Node1</title>
<g id="a_Node000001"><a xlink:title=" ">
<polygon fill="#999999" stroke="#666666" points="755,-294 627,-294 627,-264 755,-264 755,-294"/>
<text text-anchor="start" x="635" y="-282" font-family="Helvetica,sans-Serif" font-size="10.00">include/Hermes/Socket</text>
<text text-anchor="middle" x="691" y="-271" font-family="Helvetica,sans-Serif" font-size="10.00">/_base.hpp</text>
</a>
</g>
</g>
<!-- Node2 -->
<g id="Node000002" class="node">
<title>Node2</title>
<g id="a_Node000002"><a xlink:href="_endpoint_concept_8hpp.html" target="_top" xlink:title=" ">
<polygon fill="white" stroke="#666666" points="663,-228 531,-228 531,-198 663,-198 663,-228"/>
<text text-anchor="start" x="539" y="-216" font-family="Helvetica,sans-Serif" font-size="10.00">Hermes/Endpoint/_base</text>
<text text-anchor="middle" x="597" y="-205" font-family="Helvetica,sans-Serif" font-size="10.00">/EndpointConcept.hpp</text>
</a>
</g>
</g>
<!-- Node1&#45;&gt;Node2 -->
<g id="edge1_Node000001_Node000002" class="edge">
<title>Node1&#45;&gt;Node2</title>
<g id="a_edge1_Node000001_Node000002"><a xlink:title=" ">
<path fill="none" stroke="#63b8ff" d="M670.14,-263.8C657.24,-255.01 640.49,-243.61 626.27,-233.93"/>
<polygon fill="#63b8ff" stroke="#63b8ff" points="628.04,-230.9 617.8,-228.16 624.1,-236.69 628.04,-230.9"/>
</a>
</g>
</g>
<!-- Node3 -->
<g id="Node000003" class="node">
<title>Node3</title>
<g id="a_Node000003"><a xlink:href="_connection_error_enum_8hpp.html" target="_top" xlink:title=" ">
<polygon fill="white" stroke="#666666" points="586.5,-162 419.5,-162 419.5,-132 586.5,-132 586.5,-162"/>
<text text-anchor="start" x="427.5" y="-150" font-family="Helvetica,sans-Serif" font-size="10.00">Hermes/_base/ConnectionError</text>
<text text-anchor="middle" x="503" y="-139" font-family="Helvetica,sans-Serif" font-size="10.00">Enum.hpp</text>
</a>
</g>
</g>
<!-- Node1&#45;&gt;Node3 -->
<g id="edge52_Node000001_Node000003" class="edge">
<title>Node1&#45;&gt;Node3</title>
<g id="a_edge52_Node000001_Node000003"><a xlink:title=" ">
<path fill="none" stroke="#63b8ff" d="M626.7,-274.33C591.18,-268.94 548.93,-256.44 522,-228 507.94,-213.15 503.66,-189.87 502.63,-172.24"/>
<polygon fill="#63b8ff" stroke="#63b8ff" points="506.12,-172.02 502.34,-162.12 499.13,-172.22 506.12,-172.02"/>
</a>
</g>
</g>
<!-- Node8 -->
<g id="Node000008" class="node">
<title>Node8</title>
<g id="a_Node000008"><a xlink:title=" ">
<polygon fill="#e0e0e0" stroke="#999999" points="753.5,-85 628.5,-85 628.5,-66 753.5,-66 753.5,-85"/>
<text text-anchor="middle" x="691" y="-73" font-family="Helvetica,sans-Serif" font-size="10.00">stdexec/execution.hpp</text>
</a>
</g>
</g>
<!-- Node1&#45;&gt;Node8 -->
<g id="edge53_Node000001_Node000008" class="edge">
<title>Node1&#45;&gt;Node8</title>
<g id="a_edge53_Node000001_Node000008"><a xlink:title=" ">
<path fill="none" stroke="#63b8ff" d="M691,-263.83C691,-228.28 691,-135.31 691,-95.28"/>
<polygon fill="#63b8ff" stroke="#63b8ff" points="694.5,-95.08 691,-85.08 687.5,-95.08 694.5,-95.08"/>
</a>
</g>
</g>
<!-- Node38 -->
<g id="Node000038" class="node">
<title>Node38</title>
<g id="a_Node000038"><a xlink:title=" ">
<polygon fill="#e0e0e0" stroke="#999999" points="779,-222.5 719,-222.5 719,-203.5 779,-203.5 779,-222.5"/>
<text text-anchor="middle" x="749" y="-210.5" font-family="Helvetica,sans-Serif" font-size="10.00">concepts</text>
</a>
</g>
</g>
<!-- Node1&#45;&gt;Node38 -->
<g id="edge54_Node000001_Node000038" class="edge">
<title>Node1&#45;&gt;Node38</title>
<g id="a_edge54_Node000001_Node000038"><a xlink:title=" ">
<path fill="none" stroke="#63b8ff" d="M703.87,-263.8C712.83,-253.92 724.79,-240.72 734.14,-230.39"/>
<polygon fill="#63b8ff" stroke="#63b8ff" points="736.86,-232.6 740.98,-222.84 731.68,-227.9 736.86,-232.6"/>
</a>
</g>
</g>
<!-- Node39 -->
<g id="Node000039" class="node">
<title>Node39</title>
<g id="a_Node000039"><a xlink:title=" ">
<polygon fill="#e0e0e0" stroke="#999999" points="847,-222.5 797,-222.5 797,-203.5 847,-203.5 847,-222.5"/>
<text text-anchor="middle" x="822" y="-210.5" font-family="Helvetica,sans-Serif" font-size="10.00">ranges</text>
</a>
</g>
</g>
<!-- Node1&#45;&gt;Node39 -->
<g id="edge55_Node000001_Node000039" class="edge">
<title>Node1&#45;&gt;Node39</title>
<g id="a_edge55_Node000001_Node000039"><a xlink:title=" ">
<path fill="none" stroke="#63b8ff" d="M719.75,-263.95C742.32,-252.93 773.49,-237.7 795.47,-226.96"/>
<polygon fill="#63b8ff" stroke="#63b8ff" points="797.12,-230.05 804.57,-222.52 794.04,-223.76 797.12,-230.05"/>
</a>
</g>
</g>
<!-- Node2&#45;&gt;Node3 -->
<g id="edge2_Node000002_Node000003" class="edge">
<title>Node2&#45;&gt;Node3</title>
<g id="a_edge2_Node000002_Node000003"><a xlink:title=" ">
<path fill="none" stroke="#63b8ff" d="M576.14,-197.8C563.24,-189.01 546.49,-177.61 532.27,-167.93"/>
<polygon fill="#63b8ff" stroke="#63b8ff" points="534.04,-164.9 523.8,-162.16 530.1,-170.69 534.04,-164.9"/>
</a>
</g>
</g>
<!-- Node11 -->
<g id="Node000011" class="node">
<title>Node11</title>
<g id="a_Node000011"><a xlink:href="_win_api_8hpp.html" target="_top" xlink:title=" ">
<polygon fill="white" stroke="#666666" points="2536,-162 2412,-162 2412,-132 2536,-132 2536,-162"/>
<text text-anchor="start" x="2420" y="-150" font-family="Helvetica,sans-Serif" font-size="10.00">Hermes/_base/WinApi</text>
<text text-anchor="middle" x="2474" y="-139" font-family="Helvetica,sans-Serif" font-size="10.00">/WinApi.hpp</text>
</a>
</g>
</g>
<!-- Node2&#45;&gt;Node11 -->
<g id="edge10_Node000002_Node000011" class="edge">
<title>Node2&#45;&gt;Node11</title>
<g id="a_edge10_Node000002_Node000011"><a xlink:title=" ">
<path fill="none" stroke="#63b8ff" d="M663.22,-202.73C678.55,-200.88 694.82,-199.15 710,-198 1365.42,-148.22 2161.21,-146.76 2401.77,-147.59"/>
<polygon fill="#63b8ff" stroke="#63b8ff" points="2401.77,-151.09 2411.79,-147.63 2401.8,-144.09 2401.77,-151.09"/>
</a>
</g>
</g>
<!-- Node4 -->
<g id="Node000004" class="node">
<title>Node4</title>
<g id="a_Node000004"><a xlink:title=" ">
<polygon fill="#e0e0e0" stroke="#999999" points="545,-85 483,-85 483,-66 545,-66 545,-85"/>
<text text-anchor="middle" x="514" y="-73" font-family="Helvetica,sans-Serif" font-size="10.00">expected</text>
</a>
</g>
</g>
<!-- Node3&#45;&gt;Node4 -->
<g id="edge3_Node000003_Node000004" class="edge">
<title>Node3&#45;&gt;Node4</title>
<g id="a_edge3_Node000003_Node000004"><a xlink:title=" ">
<path fill="none" stroke="#63b8ff" d="M505.23,-131.94C506.9,-121.36 509.21,-106.75 511.04,-95.19"/>
<polygon fill="#63b8ff" stroke="#63b8ff" points="514.51,-95.69 512.61,-85.27 507.59,-94.6 514.51,-95.69"/>
</a>
</g>
</g>
<!-- Node5 -->
<g id="Node000005" class="node">
<title>Node5</title>
<g id="a_Node000005"><a xlink:title=" ">
<polygon fill="#e0e0e0" stroke="#999999" points="610.5,-85 563.5,-85 563.5,-66 610.5,-66 610.5,-85"/>
<text text-anchor="middle" x="587" y="-73" font-family="Helvetica,sans-Serif" font-size="10.00">vector</text>
</a>
</g>
</g>
<!-- Node3&#45;&gt;Node5 -->
<g id="edge4_Node000003_Node000005" class="edge">
<title>Node3&#45;&gt;Node5</title>
<g id="a_edge4_Node000003_Node000005"><a xlink:title=" ">
<path fill="none" stroke="#63b8ff" d="M520,-131.94C534.1,-120.26 554.13,-103.7 568.61,-91.72"/>
<polygon fill="#63b8ff" stroke="#63b8ff" points="570.93,-94.34 576.4,-85.27 566.47,-88.95 570.93,-94.34"/>
</a>
</g>
</g>
<!-- Node6 -->
<g id="Node000006" class="node">
<title>Node6</title>
<g id="a_Node000006"><a xlink:title=" ">
<polygon fill="#e0e0e0" stroke="#999999" points="40,-85 0,-85 0,-66 40,-66 40,-85"/>
<text text-anchor="middle" x="20" y="-73" font-family="Helvetica,sans-Serif" font-size="10.00">span</text>
</a>
</g>
</g>
<!-- Node3&#45;&gt;Node6 -->
<g id="edge5_Node000003_Node000006" class="edge">
<title>Node3&#45;&gt;Node6</title>
<g id="a_edge5_Node000003_Node000006"><a xlink:title=" ">
<path fill="none" stroke="#63b8ff" d="M419.28,-141.57C307.25,-134.83 115,-120.15 49,-96 45.37,-94.67 41.75,-92.79 38.36,-90.73"/>
<polygon fill="#63b8ff" stroke="#63b8ff" points="40.3,-87.81 30.07,-85.04 36.34,-93.59 40.3,-87.81"/>
</a>
</g>
</g>
<!-- Node7 -->
<g id="Node000007" class="node">
<title>Node7</title>
<g id="a_Node000007"><a xlink:title=" ">
<polygon fill="#e0e0e0" stroke="#999999" points="127.5,-85 58.5,-85 58.5,-66 127.5,-66 127.5,-85"/>
<text text-anchor="middle" x="93" y="-73" font-family="Helvetica,sans-Serif" font-size="10.00">type_traits</text>
</a>
</g>
</g>
<!-- Node3&#45;&gt;Node7 -->
<g id="edge6_Node000003_Node000007" class="edge">
<title>Node3&#45;&gt;Node7</title>
<g id="a_edge6_Node000003_Node000007"><a xlink:title=" ">
<path fill="none" stroke="#63b8ff" d="M419.14,-141.27C344.06,-135.45 231.55,-122.83 137,-96 130.92,-94.28 124.6,-91.87 118.7,-89.33"/>
<polygon fill="#63b8ff" stroke="#63b8ff" points="119.85,-86.01 109.3,-85.04 116.95,-92.38 119.85,-86.01"/>
</a>
</g>
</g>
<!-- Node3&#45;&gt;Node8 -->
<g id="edge7_Node000003_Node000008" class="edge">
<title>Node3&#45;&gt;Node8</title>
<g id="a_edge7_Node000003_Node000008"><a xlink:title=" ">
<path fill="none" stroke="#63b8ff" d="M541.04,-131.94C575.47,-119.21 625.63,-100.67 658.29,-88.59"/>
<polygon fill="#63b8ff" stroke="#63b8ff" points="659.66,-91.82 667.82,-85.07 657.23,-85.25 659.66,-91.82"/>
</a>
</g>
</g>
<!-- Node9 -->
<g id="Node000009" class="node">
<title>Node9</title>
<g id="a_Node000009"><a xlink:title=" ">
<polygon fill="#e0e0e0" stroke="#999999" points="280,-85 146,-85 146,-66 280,-66 280,-85"/>
<text text-anchor="middle" x="213" y="-73" font-family="Helvetica,sans-Serif" font-size="10.00">exec/any_sender_of.hpp</text>
</a>
</g>
</g>
<!-- Node3&#45;&gt;Node9 -->
<g id="edge8_Node000003_Node000009" class="edge">
<title>Node3&#45;&gt;Node9</title>
<g id="a_edge8_Node000003_Node000009"><a xlink:title=" ">
<path fill="none" stroke="#63b8ff" d="M441.11,-131.91C398.33,-122.08 340.14,-108.53 289,-96 278.06,-93.32 266.26,-90.34 255.29,-87.52"/>
<polygon fill="#63b8ff" stroke="#63b8ff" points="256.06,-84.11 245.51,-85.01 254.32,-90.89 256.06,-84.11"/>
</a>
</g>
</g>
<!-- Node10 -->
<g id="Node000010" class="node">
<title>Node10</title>
<g id="a_Node000010"><a xlink:title=" ">
<polygon fill="#e0e0e0" stroke="#999999" points="465.5,-90.5 298.5,-90.5 298.5,-60.5 465.5,-60.5 465.5,-90.5"/>
<text text-anchor="start" x="306.5" y="-78.5" font-family="Helvetica,sans-Serif" font-size="10.00">Hermes/_base/ConnectionError</text>
<text text-anchor="middle" x="382" y="-67.5" font-family="Helvetica,sans-Serif" font-size="10.00">Enum.tpp</text>
</a>
</g>
</g>
<!-- Node3&#45;&gt;Node10 -->
<g id="edge9_Node000003_Node000010" class="edge">
<title>Node3&#45;&gt;Node10</title>
<g id="a_edge9_Node000003_Node000010"><a xlink:title=" ">
<path fill="none" stroke="#63b8ff" d="M478.51,-131.94C460.31,-121.48 435.26,-107.09 415.25,-95.6"/>
<polygon fill="#63b8ff" stroke="#63b8ff" points="416.86,-92.49 406.45,-90.54 413.38,-98.56 416.86,-92.49"/>
</a>
</g>
</g>
<!-- Node12 -->
<g id="Node000012" class="node">
<title>Node12</title>
<g id="a_Node000012"><a xlink:title=" ">
<polygon fill="#e0e0e0" stroke="#999999" points="2582.5,-85 2513.5,-85 2513.5,-66 2582.5,-66 2582.5,-85"/>
<text text-anchor="middle" x="2548" y="-73" font-family="Helvetica,sans-Serif" font-size="10.00">ws2tcpip.h</text>
</a>
</g>
</g>
<!-- Node11&#45;&gt;Node12 -->
<g id="edge11_Node000011_Node000012" class="edge">
<title>Node11&#45;&gt;Node12</title>
<g id="a_edge11_Node000011_Node000012"><a xlink:title=" ">
<path fill="none" stroke="#63b8ff" d="M2488.98,-131.94C2501.17,-120.48 2518.38,-104.32 2531.08,-92.4"/>
<polygon fill="#63b8ff" stroke="#63b8ff" points="2533.77,-94.66 2538.67,-85.27 2528.98,-89.56 2533.77,-94.66"/>
</a>
</g>
</g>
<!-- Node13 -->
<g id="Node000013" class="node">
<title>Node13</title>
<g id="a_Node000013"><a xlink:title=" ">
<polygon fill="#e0e0e0" stroke="#999999" points="2169.5,-19 2098.5,-19 2098.5,0 2169.5,0 2169.5,-19"/>
<text text-anchor="middle" x="2134" y="-7" font-family="Helvetica,sans-Serif" font-size="10.00">winsock2.h</text>
</a>
</g>
</g>
<!-- Node11&#45;&gt;Node13 -->
<g id="edge12_Node000011_Node000013" class="edge">
<title>Node11&#45;&gt;Node13</title>
<g id="a_edge12_Node000011_Node000013"><a xlink:title=" ">
<path fill="none" stroke="#63b8ff" d="M2411.91,-144.42C2329.32,-141.01 2189.46,-130.19 2153,-96 2134.83,-78.96 2132.13,-48.71 2132.55,-29.14"/>
<polygon fill="#63b8ff" stroke="#63b8ff" points="2136.05,-29.19 2133.06,-19.03 2129.06,-28.84 2136.05,-29.19"/>
</a>
</g>
</g>
<!-- Node14 -->
<g id="Node000014" class="node">
<title>Node14</title>
<g id="a_Node000014"><a xlink:title=" ">
<polygon fill="#e0e0e0" stroke="#999999" points="2717.5,-19 2648.5,-19 2648.5,0 2717.5,0 2717.5,-19"/>
<text text-anchor="middle" x="2683" y="-7" font-family="Helvetica,sans-Serif" font-size="10.00">schannel.h</text>
</a>
</g>
</g>
<!-- Node11&#45;&gt;Node14 -->
<g id="edge13_Node000011_Node000014" class="edge">
<title>Node11&#45;&gt;Node14</title>
<g id="a_edge13_Node000011_Node000014"><a xlink:title=" ">
<path fill="none" stroke="#63b8ff" d="M2536.13,-144.74C2614.91,-141.67 2744.14,-131.25 2774,-96 2785.78,-82.1 2783.65,-70.46 2774,-55 2763.63,-38.38 2745.06,-27.8 2727.38,-21.15"/>
<polygon fill="#63b8ff" stroke="#63b8ff" points="2728.31,-17.77 2717.72,-17.85 2726.05,-24.39 2728.31,-17.77"/>
</a>
</g>
</g>
<!-- Node15 -->
<g id="Node000015" class="node">
<title>Node15</title>
<g id="a_Node000015"><a xlink:title=" ">
<polygon fill="#e0e0e0" stroke="#999999" points="3399.5,-19 3354.5,-19 3354.5,0 3399.5,0 3399.5,-19"/>
<text text-anchor="middle" x="3377" y="-7" font-family="Helvetica,sans-Serif" font-size="10.00">sspi.h</text>
</a>
</g>
</g>
<!-- Node11&#45;&gt;Node15 -->
<g id="edge14_Node000011_Node000015" class="edge">
<title>Node11&#45;&gt;Node15</title>
<g id="a_edge14_Node000011_Node000015"><a xlink:title=" ">
<path fill="none" stroke="#63b8ff" d="M2536.24,-143.98C2693.64,-138.5 3098.99,-122.02 3154,-96 3176.73,-85.24 3171.22,-67.58 3193,-55 3240.99,-27.28 3305.61,-16.77 3344.11,-12.82"/>
<polygon fill="#63b8ff" stroke="#63b8ff" points="3344.61,-16.29 3354.25,-11.88 3343.96,-9.32 3344.61,-16.29"/>
</a>
</g>
</g>
<!-- Node16 -->
<g id="Node000016" class="node">
<title>Node16</title>
<g id="a_Node000016"><a xlink:href="_conversion_and_literals_8hpp.html" target="_top" xlink:title=" ">
<polygon fill="white" stroke="#666666" points="922,-90.5 772,-90.5 772,-60.5 922,-60.5 922,-90.5"/>
<text text-anchor="start" x="780" y="-78.5" font-family="Helvetica,sans-Serif" font-size="10.00">Hermes/_base/WinApi</text>
<text text-anchor="middle" x="847" y="-67.5" font-family="Helvetica,sans-Serif" font-size="10.00">/ConversionAndLiterals.hpp</text>
</a>
</g>
</g>
<!-- Node11&#45;&gt;Node16 -->
<g id="edge15_Node000011_Node000016" class="edge">
<title>Node11&#45;&gt;Node16</title>
<g id="a_edge15_Node000011_Node000016"><a xlink:title=" ">
<path fill="none" stroke="#63b8ff" d="M2411.83,-145.61C2161.22,-143.78 1224.66,-134.47 931,-96 924.32,-95.12 917.39,-93.95 910.5,-92.62"/>
<polygon fill="#63b8ff" stroke="#63b8ff" points="910.99,-89.15 900.49,-90.56 909.58,-96 910.99,-89.15"/>
</a>
</g>
</g>
<!-- Node18 -->
<g id="Node000018" class="node">
<title>Node18</title>
<g id="a_Node000018"><a xlink:href="_macros_8hpp.html" target="_top" xlink:title=" ">
<polygon fill="white" stroke="#666666" points="2286,-90.5 2162,-90.5 2162,-60.5 2286,-60.5 2286,-90.5"/>
<text text-anchor="start" x="2170" y="-78.5" font-family="Helvetica,sans-Serif" font-size="10.00">Hermes/_base/WinApi</text>
<text text-anchor="middle" x="2224" y="-67.5" font-family="Helvetica,sans-Serif" font-size="10.00">/Macros.hpp</text>
</a>
</g>
</g>
<!-- Node11&#45;&gt;Node18 -->
<g id="edge17_Node000011_Node000018" class="edge">
<title>Node11&#45;&gt;Node18</title>
<g id="a_edge17_Node000011_Node000018"><a xlink:title=" ">
<path fill="none" stroke="#63b8ff" d="M2423.41,-131.94C2383.17,-120.75 2326.76,-105.07 2284.2,-93.23"/>
<polygon fill="#63b8ff" stroke="#63b8ff" points="2285.09,-89.85 2274.52,-90.54 2283.21,-96.59 2285.09,-89.85"/>
</a>
</g>
</g>
<!-- Node20 -->
<g id="Node000020" class="node">
<title>Node20</title>
<g id="a_Node000020"><a xlink:href="_address_family_enum_8hpp.html" target="_top" xlink:title=" ">
<polygon fill="white" stroke="#666666" points="1326,-90.5 1150,-90.5 1150,-60.5 1326,-60.5 1326,-90.5"/>
<text text-anchor="start" x="1158" y="-78.5" font-family="Helvetica,sans-Serif" font-size="10.00">Hermes/_base/WinApi</text>
<text text-anchor="middle" x="1238" y="-67.5" font-family="Helvetica,sans-Serif" font-size="10.00">/Enums/AddressFamilyEnum.hpp</text>
</a>
</g>
</g>
<!-- Node11&#45;&gt;Node20 -->
<g id="edge22_Node000011_Node000020" class="edge">
<title>Node11&#45;&gt;Node20</title>
<g id="a_edge22_Node000011_Node000020"><a xlink:title=" ">
<path fill="none" stroke="#63b8ff" d="M2411.93,-146.68C2239.95,-147.83 1742.99,-146.19 1334,-96 1326.08,-95.03 1317.84,-93.76 1309.66,-92.33"/>
<polygon fill="#63b8ff" stroke="#63b8ff" points="1310.2,-88.87 1299.74,-90.52 1308.95,-95.76 1310.2,-88.87"/>
</a>
</g>
</g>
<!-- Node22 -->
<g id="Node000022" class="node">
<title>Node22</title>
<g id="a_Node000022"><a xlink:href="_condition_function_enum_8hpp.html" target="_top" xlink:title=" ">
<polygon fill="white" stroke="#666666" points="1916,-90.5 1724,-90.5 1724,-60.5 1916,-60.5 1916,-90.5"/>
<text text-anchor="start" x="1732" y="-78.5" font-family="Helvetica,sans-Serif" font-size="10.00">Hermes/_base/WinApi</text>
<text text-anchor="middle" x="1820" y="-67.5" font-family="Helvetica,sans-Serif" font-size="10.00">/Enums/ConditionFunctionEnum.hpp</text>
</a>
</g>
</g>
<!-- Node11&#45;&gt;Node22 -->
<g id="edge24_Node000011_Node000022" class="edge">
<title>Node11&#45;&gt;Node22</title>
<g id="a_edge24_Node000011_Node000022"><a xlink:title=" ">
<path fill="none" stroke="#63b8ff" d="M2411.62,-142.21C2309.56,-135.59 2100.63,-120.25 1925,-96 1917.03,-94.9 1908.76,-93.61 1900.5,-92.23"/>
<polygon fill="#63b8ff" stroke="#63b8ff" points="1900.9,-88.75 1890.45,-90.51 1899.72,-95.65 1900.9,-88.75"/>
</a>
</g>
</g>
<!-- Node24 -->
<g id="Node000024" class="node">
<title>Node24</title>
<g id="a_Node000024"><a xlink:href="_encrypt_status_enum_8hpp.html" target="_top" xlink:title=" ">
<polygon fill="white" stroke="#666666" points="2106,-90.5 1934,-90.5 1934,-60.5 2106,-60.5 2106,-90.5"/>
<text text-anchor="start" x="1942" y="-78.5" font-family="Helvetica,sans-Serif" font-size="10.00">Hermes/_base/WinApi</text>
<text text-anchor="middle" x="2020" y="-67.5" font-family="Helvetica,sans-Serif" font-size="10.00">/Enums/EncryptStatusEnum.hpp</text>
</a>
</g>
</g>
<!-- Node11&#45;&gt;Node24 -->
<g id="edge26_Node000011_Node000024" class="edge">
<title>Node11&#45;&gt;Node24</title>
<g id="a_edge26_Node000011_Node000024"><a xlink:title=" ">
<path fill="none" stroke="#63b8ff" d="M2411.82,-138.22C2341.01,-129.12 2221.92,-113.12 2120,-96 2113.32,-94.88 2106.4,-93.65 2099.46,-92.39"/>
<polygon fill="#63b8ff" stroke="#63b8ff" points="2099.78,-88.89 2089.31,-90.5 2098.5,-95.77 2099.78,-88.89"/>
</a>
</g>
</g>
<!-- Node26 -->
<g id="Node000026" class="node">
<title>Node26</title>
<g id="a_Node000026"><a xlink:href="_protocol_base_type_enum_8hpp.html" target="_top" xlink:title=" ">
<polygon fill="white" stroke="#666666" points="1131.5,-90.5 940.5,-90.5 940.5,-60.5 1131.5,-60.5 1131.5,-90.5"/>
<text text-anchor="start" x="948.5" y="-78.5" font-family="Helvetica,sans-Serif" font-size="10.00">Hermes/_base/WinApi</text>
<text text-anchor="middle" x="1036" y="-67.5" font-family="Helvetica,sans-Serif" font-size="10.00">/Enums/ProtocolBaseTypeEnum.hpp</text>
</a>
</g>
</g>
<!-- Node11&#45;&gt;Node26 -->
<g id="edge28_Node000011_Node000026" class="edge">
<title>Node11&#45;&gt;Node26</title>
<g id="a_edge28_Node000011_Node000026"><a xlink:title=" ">
<path fill="none" stroke="#63b8ff" d="M2411.98,-144.88C2183.93,-140.56 1392.18,-123.88 1141,-96 1132.07,-95.01 1122.75,-93.69 1113.52,-92.21"/>
<polygon fill="#63b8ff" stroke="#63b8ff" points="1114,-88.74 1103.56,-90.55 1112.85,-95.65 1114,-88.74"/>
</a>
</g>
</g>
<!-- Node27 -->
<g id="Node000027" class="node">
<title>Node27</title>
<g id="a_Node000027"><a xlink:href="_s_ch_cred_enum_8hpp.html" target="_top" xlink:title=" ">
<polygon fill="white" stroke="#666666" points="2967,-90.5 2821,-90.5 2821,-60.5 2967,-60.5 2967,-90.5"/>
<text text-anchor="start" x="2829" y="-78.5" font-family="Helvetica,sans-Serif" font-size="10.00">Hermes/_base/WinApi</text>
<text text-anchor="middle" x="2894" y="-67.5" font-family="Helvetica,sans-Serif" font-size="10.00">/Enums/SChCredEnum.hpp</text>
</a>
</g>
</g>
<!-- Node11&#45;&gt;Node27 -->
<g id="edge30_Node000011_Node000027" class="edge">
<title>Node11&#45;&gt;Node27</title>
<g id="a_edge30_Node000011_Node000027"><a xlink:title=" ">
<path fill="none" stroke="#63b8ff" d="M2536.21,-138.01C2603.27,-129.09 2713.04,-113.56 2807,-96 2812.42,-94.99 2818.02,-93.88 2823.64,-92.72"/>
<polygon fill="#63b8ff" stroke="#63b8ff" points="2824.68,-96.08 2833.74,-90.59 2823.23,-89.23 2824.68,-96.08"/>
</a>
</g>
</g>
<!-- Node28 -->
<g id="Node000028" class="node">
<title>Node28</title>
<g id="a_Node000028"><a xlink:href="_security_buffer_enum_8hpp.html" target="_top" xlink:title=" ">
<polygon fill="white" stroke="#666666" points="3374.5,-90.5 3201.5,-90.5 3201.5,-60.5 3374.5,-60.5 3374.5,-90.5"/>
<text text-anchor="start" x="3209.5" y="-78.5" font-family="Helvetica,sans-Serif" font-size="10.00">Hermes/_base/WinApi</text>
<text text-anchor="middle" x="3288" y="-67.5" font-family="Helvetica,sans-Serif" font-size="10.00">/Enums/SecurityBufferEnum.hpp</text>
</a>
</g>
</g>
<!-- Node11&#45;&gt;Node28 -->
<g id="edge32_Node000011_Node000028" class="edge">
<title>Node11&#45;&gt;Node28</title>
<g id="a_edge32_Node000011_Node000028"><a xlink:title=" ">
<path fill="none" stroke="#63b8ff" d="M2536.24,-144.16C2660.45,-139.94 2947.7,-127.38 3187,-96 3194.93,-94.96 3203.18,-93.69 3211.39,-92.29"/>
<polygon fill="#63b8ff" stroke="#63b8ff" points="3212.12,-95.72 3221.36,-90.54 3210.91,-88.83 3212.12,-95.72"/>
</a>
</g>
</g>
<!-- Node29 -->
<g id="Node000029" class="node">
<title>Node29</title>
<g id="a_Node000029"><a xlink:href="_socket_shutdown_enum_8hpp.html" target="_top" xlink:title=" ">
<polygon fill="white" stroke="#666666" points="1528.5,-90.5 1343.5,-90.5 1343.5,-60.5 1528.5,-60.5 1528.5,-90.5"/>
<text text-anchor="start" x="1351.5" y="-78.5" font-family="Helvetica,sans-Serif" font-size="10.00">Hermes/_base/WinApi</text>
<text text-anchor="middle" x="1436" y="-67.5" font-family="Helvetica,sans-Serif" font-size="10.00">/Enums/SocketShutdownEnum.hpp</text>
</a>
</g>
</g>
<!-- Node11&#45;&gt;Node29 -->
<g id="edge34_Node000011_Node000029" class="edge">
<title>Node11&#45;&gt;Node29</title>
<g id="a_edge34_Node000011_Node000029"><a xlink:title=" ">
<path fill="none" stroke="#63b8ff" d="M2411.8,-145.63C2261.12,-144.09 1864.83,-136.2 1537,-96 1528.72,-94.98 1520.1,-93.69 1511.53,-92.25"/>
<polygon fill="#63b8ff" stroke="#63b8ff" points="1511.98,-88.78 1501.53,-90.51 1510.78,-95.67 1511.98,-88.78"/>
</a>
</g>
</g>
<!-- Node30 -->
<g id="Node000030" class="node">
<title>Node30</title>
<g id="a_Node000030"><a xlink:href="_socket_type_enum_8hpp.html" target="_top" xlink:title=" ">
<polygon fill="white" stroke="#666666" points="1705.5,-90.5 1546.5,-90.5 1546.5,-60.5 1705.5,-60.5 1705.5,-90.5"/>
<text text-anchor="start" x="1554.5" y="-78.5" font-family="Helvetica,sans-Serif" font-size="10.00">Hermes/_base/WinApi</text>
<text text-anchor="middle" x="1626" y="-67.5" font-family="Helvetica,sans-Serif" font-size="10.00">/Enums/SocketTypeEnum.hpp</text>
</a>
</g>
</g>
<!-- Node11&#45;&gt;Node30 -->
<g id="edge36_Node000011_Node000030" class="edge">
<title>Node11&#45;&gt;Node30</title>
<g id="a_edge36_Node000011_Node000030"><a xlink:title=" ">
<path fill="none" stroke="#63b8ff" d="M2411.69,-145.05C2281.61,-142.38 1971.93,-132.4 1715,-96 1708.27,-95.05 1701.28,-93.86 1694.32,-92.55"/>
<polygon fill="#63b8ff" stroke="#63b8ff" points="1694.67,-89.05 1684.18,-90.56 1693.32,-95.92 1694.67,-89.05"/>
</a>
</g>
</g>
<!-- Node31 -->
<g id="Node000031" class="node">
<title>Node31</title>
<g id="a_Node000031"><a xlink:href="_credential_flags_8hpp.html" target="_top" xlink:title=" ">
<polygon fill="white" stroke="#666666" points="3539,-90.5 3393,-90.5 3393,-60.5 3539,-60.5 3539,-90.5"/>
<text text-anchor="start" x="3401" y="-78.5" font-family="Helvetica,sans-Serif" font-size="10.00">Hermes/_base/WinApi</text>
<text text-anchor="middle" x="3466" y="-67.5" font-family="Helvetica,sans-Serif" font-size="10.00">/Flags/CredentialFlags.hpp</text>
</a>
</g>
</g>
<!-- Node11&#45;&gt;Node31 -->
<g id="edge38_Node000011_Node000031" class="edge">
<title>Node11&#45;&gt;Node31</title>
<g id="a_edge38_Node000011_Node000031"><a xlink:title=" ">
<path fill="none" stroke="#63b8ff" d="M2536.17,-146.39C2683.98,-146.5 3067.7,-141.92 3384,-96 3390.18,-95.1 3396.57,-93.96 3402.94,-92.69"/>
<polygon fill="#63b8ff" stroke="#63b8ff" points="3403.83,-96.08 3412.89,-90.58 3402.39,-89.23 3403.83,-96.08"/>
</a>
</g>
</g>
<!-- Node32 -->
<g id="Node000032" class="node">
<title>Node32</title>
<g id="a_Node000032"><a xlink:href="_supported_protocols_flags_8hpp.html" target="_top" xlink:title=" ">
<polygon fill="white" stroke="#666666" points="2495.5,-90.5 2304.5,-90.5 2304.5,-60.5 2495.5,-60.5 2495.5,-90.5"/>
<text text-anchor="start" x="2312.5" y="-78.5" font-family="Helvetica,sans-Serif" font-size="10.00">Hermes/_base/WinApi</text>
<text text-anchor="middle" x="2400" y="-67.5" font-family="Helvetica,sans-Serif" font-size="10.00">/Flags/SupportedProtocolsFlags.hpp</text>
</a>
</g>
</g>
<!-- Node11&#45;&gt;Node32 -->
<g id="edge40_Node000011_Node000032" class="edge">
<title>Node11&#45;&gt;Node32</title>
<g id="a_edge40_Node000011_Node000032"><a xlink:title=" ">
<path fill="none" stroke="#63b8ff" d="M2459.02,-131.94C2448.49,-122.04 2434.22,-108.64 2422.34,-97.49"/>
<polygon fill="#63b8ff" stroke="#63b8ff" points="2424.64,-94.84 2414.95,-90.54 2419.85,-99.94 2424.64,-94.84"/>
</a>
</g>
</g>
<!-- Node33 -->
<g id="Node000033" class="node">
<title>Node33</title>
<g id="a_Node000033"><a xlink:href="_initialize_security_context_flags_8hpp.html" target="_top" xlink:title=" ">
<polygon fill="white" stroke="#666666" points="3726.5,-96 3557.5,-96 3557.5,-55 3726.5,-55 3726.5,-96"/>
<text text-anchor="start" x="3565.5" y="-84" font-family="Helvetica,sans-Serif" font-size="10.00">Hermes/_base/WinApi</text>
<text text-anchor="start" x="3565.5" y="-73" font-family="Helvetica,sans-Serif" font-size="10.00">/Flags/InitializeSecurityContext</text>
<text text-anchor="middle" x="3642" y="-62" font-family="Helvetica,sans-Serif" font-size="10.00">Flags.hpp</text>
</a>
</g>
</g>
<!-- Node11&#45;&gt;Node33 -->
<g id="edge42_Node000011_Node000033" class="edge">
<title>Node11&#45;&gt;Node33</title>
<g id="a_edge42_Node000011_Node000033"><a xlink:title=" ">
<path fill="none" stroke="#63b8ff" d="M2536.04,-146.53C2699.88,-147.19 3157.67,-144.31 3547.24,-95.97"/>
<polygon fill="#63b8ff" stroke="#63b8ff" points="3547.81,-99.43 3557.3,-94.71 3546.94,-92.48 3547.81,-99.43"/>
</a>
</g>
</g>
<!-- Node34 -->
<g id="Node000034" class="node">
<title>Node34</title>
<g id="a_Node000034"><a xlink:href="_initialize_security_context_return_flags_8hpp.html" target="_top" xlink:title=" ">
<polygon fill="white" stroke="#666666" points="3913.5,-96 3744.5,-96 3744.5,-55 3913.5,-55 3913.5,-96"/>
<text text-anchor="start" x="3752.5" y="-84" font-family="Helvetica,sans-Serif" font-size="10.00">Hermes/_base/WinApi</text>
<text text-anchor="start" x="3752.5" y="-73" font-family="Helvetica,sans-Serif" font-size="10.00">/Flags/InitializeSecurityContext</text>
<text text-anchor="middle" x="3829" y="-62" font-family="Helvetica,sans-Serif" font-size="10.00">ReturnFlags.hpp</text>
</a>
</g>
</g>
<!-- Node11&#45;&gt;Node34 -->
<g id="edge44_Node000011_Node000034" class="edge">
<title>Node11&#45;&gt;Node34</title>
<g id="a_edge44_Node000011_Node000034"><a xlink:title=" ">
<path fill="none" stroke="#63b8ff" d="M2536.12,-144.91C2753.53,-140.9 3480.25,-125.65 3734.52,-96.05"/>
<polygon fill="#63b8ff" stroke="#63b8ff" points="3734.94,-99.52 3744.45,-94.85 3734.11,-92.57 3734.94,-99.52"/>
</a>
</g>
</g>
<!-- Node35 -->
<g id="Node000035" class="node">
<title>Node35</title>
<g id="a_Node000035"><a xlink:href="_accept_security_context_flags_8hpp.html" target="_top" xlink:title=" ">
<polygon fill="white" stroke="#666666" points="4092,-96 3932,-96 3932,-55 4092,-55 4092,-96"/>
<text text-anchor="start" x="3940" y="-84" font-family="Helvetica,sans-Serif" font-size="10.00">Hermes/_base/WinApi</text>
<text text-anchor="start" x="3940" y="-73" font-family="Helvetica,sans-Serif" font-size="10.00">/Flags/AcceptSecurityContext</text>
<text text-anchor="middle" x="4012" y="-62" font-family="Helvetica,sans-Serif" font-size="10.00">Flags.hpp</text>
</a>
</g>
</g>
<!-- Node11&#45;&gt;Node35 -->
<g id="edge46_Node000011_Node000035" class="edge">
<title>Node11&#45;&gt;Node35</title>
<g id="a_edge46_Node000011_Node000035"><a xlink:title=" ">
<path fill="none" stroke="#63b8ff" d="M2536.02,-145.36C2773.78,-142.66 3628.09,-130.81 3921.39,-96.05"/>
<polygon fill="#63b8ff" stroke="#63b8ff" points="3922.08,-99.49 3931.58,-94.8 3921.23,-92.54 3922.08,-99.49"/>
</a>
</g>
</g>
<!-- Node36 -->
<g id="Node000036" class="node">
<title>Node36</title>
<g id="a_Node000036"><a xlink:href="_accept_security_context_return_flags_8hpp.html" target="_top" xlink:title=" ">
<polygon fill="white" stroke="#666666" points="3145,-96 2985,-96 2985,-55 3145,-55 3145,-96"/>
<text text-anchor="start" x="2993" y="-84" font-family="Helvetica,sans-Serif" font-size="10.00">Hermes/_base/WinApi</text>
<text text-anchor="start" x="2993" y="-73" font-family="Helvetica,sans-Serif" font-size="10.00">/Flags/AcceptSecurityContext</text>
<text text-anchor="middle" x="3065" y="-62" font-family="Helvetica,sans-Serif" font-size="10.00">ReturnFlags.hpp</text>
</a>
</g>
</g>
<!-- Node11&#45;&gt;Node36 -->
<g id="edge48_Node000011_Node000036" class="edge">
<title>Node11&#45;&gt;Node36</title>
<g id="a_edge48_Node000011_Node000036"><a xlink:title=" ">
<path fill="none" stroke="#63b8ff" d="M2536.12,-142.15C2629.31,-135.86 2810.93,-121.6 2974.31,-96.18"/>
<polygon fill="#63b8ff" stroke="#63b8ff" points="2975.22,-99.58 2984.55,-94.57 2974.13,-92.66 2975.22,-99.58"/>
</a>
</g>
</g>
<!-- Node37 -->
<g id="Node000037" class="node">
<title>Node37</title>
<g id="a_Node000037"><a xlink:href="_s_channel_cred_flags_8hpp.html" target="_top" xlink:title=" ">
<polygon fill="white" stroke="#666666" points="2765,-90.5 2601,-90.5 2601,-60.5 2765,-60.5 2765,-90.5"/>
<text text-anchor="start" x="2609" y="-78.5" font-family="Helvetica,sans-Serif" font-size="10.00">Hermes/_base/WinApi</text>
<text text-anchor="middle" x="2683" y="-67.5" font-family="Helvetica,sans-Serif" font-size="10.00">/Flags/SChannelCredFlags.hpp</text>
</a>
</g>
</g>
<!-- Node11&#45;&gt;Node37 -->
<g id="edge50_Node000011_Node000037" class="edge">
<title>Node11&#45;&gt;Node37</title>
<g id="a_edge50_Node000011_Node000037"><a xlink:title=" ">
<path fill="none" stroke="#63b8ff" d="M2516.29,-131.94C2549.44,-120.91 2595.71,-105.53 2631.1,-93.76"/>
<polygon fill="#63b8ff" stroke="#63b8ff" points="2632.38,-97.02 2640.77,-90.54 2630.18,-90.38 2632.38,-97.02"/>
</a>
</g>
</g>
<!-- Node17 -->
<g id="Node000017" class="node">
<title>Node17</title>
<g id="a_Node000017"><a xlink:title=" ">
<polygon fill="#e0e0e0" stroke="#999999" points="872,-19 822,-19 822,0 872,0 872,-19"/>
<text text-anchor="middle" x="847" y="-7" font-family="Helvetica,sans-Serif" font-size="10.00">cstdint</text>
</a>
</g>
</g>
<!-- Node16&#45;&gt;Node17 -->
<g id="edge16_Node000016_Node000017" class="edge">
<title>Node16&#45;&gt;Node17</title>
<g id="a_edge16_Node000016_Node000017"><a xlink:title=" ">
<path fill="none" stroke="#63b8ff" d="M847,-60.3C847,-51.2 847,-39.29 847,-29.4"/>
<polygon fill="#63b8ff" stroke="#63b8ff" points="850.5,-29.34 847,-19.34 843.5,-29.34 850.5,-29.34"/>
</a>
</g>
</g>
<!-- Node18&#45;&gt;Node13 -->
<g id="edge19_Node000018_Node000013" class="edge">
<title>Node18&#45;&gt;Node13</title>
<g id="a_edge19_Node000018_Node000013"><a xlink:title=" ">
<path fill="none" stroke="#63b8ff" d="M2204.03,-60.3C2189.36,-49.87 2169.49,-35.74 2154.66,-25.19"/>
<polygon fill="#63b8ff" stroke="#63b8ff" points="2156.35,-22.1 2146.18,-19.16 2152.3,-27.81 2156.35,-22.1"/>
</a>
</g>
</g>
<!-- Node18&#45;&gt;Node14 -->
<g id="edge20_Node000018_Node000014" class="edge">
<title>Node18&#45;&gt;Node14</title>
<g id="a_edge20_Node000018_Node000014"><a xlink:title=" ">
<path fill="none" stroke="#63b8ff" d="M2271.79,-60.48C2279.83,-58.44 2288.11,-56.51 2296,-55 2418.66,-31.48 2565.73,-18.73 2638.17,-13.46"/>
<polygon fill="#63b8ff" stroke="#63b8ff" points="2638.58,-16.94 2648.31,-12.74 2638.08,-9.96 2638.58,-16.94"/>
</a>
</g>
</g>
<!-- Node18&#45;&gt;Node15 -->
<g id="edge21_Node000018_Node000015" class="edge">
<title>Node18&#45;&gt;Node15</title>
<g id="a_edge21_Node000018_Node000015"><a xlink:title=" ">
<path fill="none" stroke="#63b8ff" d="M2269.76,-60.47C2278.41,-58.29 2287.42,-56.32 2296,-55 2505.6,-22.72 3186.52,-12.76 3344.19,-10.86"/>
<polygon fill="#63b8ff" stroke="#63b8ff" points="3344.26,-14.36 3354.22,-10.75 3344.18,-7.36 3344.26,-14.36"/>
</a>
</g>
</g>
<!-- Node19 -->
<g id="Node000019" class="node">
<title>Node19</title>
<g id="a_Node000019"><a xlink:title=" ">
<polygon fill="#e0e0e0" stroke="#999999" points="2260.5,-19 2187.5,-19 2187.5,0 2260.5,0 2260.5,-19"/>
<text text-anchor="middle" x="2224" y="-7" font-family="Helvetica,sans-Serif" font-size="10.00">string_view</text>
</a>
</g>
</g>
<!-- Node18&#45;&gt;Node19 -->
<g id="edge18_Node000018_Node000019" class="edge">
<title>Node18&#45;&gt;Node19</title>
<g id="a_edge18_Node000018_Node000019"><a xlink:title=" ">
<path fill="none" stroke="#63b8ff" d="M2224,-60.3C2224,-51.2 2224,-39.29 2224,-29.4"/>
<polygon fill="#63b8ff" stroke="#63b8ff" points="2227.5,-29.34 2224,-19.34 2220.5,-29.34 2227.5,-29.34"/>
</a>
</g>
</g>
<!-- Node21 -->
<g id="Node000021" class="node">
<title>Node21</title>
<g id="a_Node000021"><a xlink:title=" ">
<polygon fill="#e0e0e0" stroke="#999999" points="1167,-19 1107,-19 1107,0 1167,0 1167,-19"/>
<text text-anchor="middle" x="1137" y="-7" font-family="Helvetica,sans-Serif" font-size="10.00">ws2def.h</text>
</a>
</g>
</g>
<!-- Node20&#45;&gt;Node21 -->
<g id="edge23_Node000020_Node000021" class="edge">
<title>Node20&#45;&gt;Node21</title>
<g id="a_edge23_Node000020_Node000021"><a xlink:title=" ">
<path fill="none" stroke="#63b8ff" d="M1215.58,-60.3C1198.81,-49.67 1175.99,-35.2 1159.25,-24.6"/>
<polygon fill="#63b8ff" stroke="#63b8ff" points="1160.98,-21.55 1150.66,-19.16 1157.24,-27.47 1160.98,-21.55"/>
</a>
</g>
</g>
<!-- Node23 -->
<g id="Node000023" class="node">
<title>Node23</title>
<g id="a_Node000023"><a xlink:title=" ">
<polygon fill="#e0e0e0" stroke="#999999" points="1663,-19 1589,-19 1589,0 1663,0 1663,-19"/>
<text text-anchor="middle" x="1626" y="-7" font-family="Helvetica,sans-Serif" font-size="10.00">WinSock2.h</text>
</a>
</g>
</g>
<!-- Node22&#45;&gt;Node23 -->
<g id="edge25_Node000022_Node000023" class="edge">
<title>Node22&#45;&gt;Node23</title>
<g id="a_edge25_Node000022_Node000023"><a xlink:title=" ">
<path fill="none" stroke="#63b8ff" d="M1777.43,-60.45C1742.65,-48.98 1694.09,-32.96 1661.41,-22.18"/>
<polygon fill="#63b8ff" stroke="#63b8ff" points="1662.41,-18.83 1651.82,-19.02 1660.22,-25.47 1662.41,-18.83"/>
</a>
</g>
</g>
<!-- Node25 -->
<g id="Node000025" class="node">
<title>Node25</title>
<g id="a_Node000025"><a xlink:title=" ">
<polygon fill="#e0e0e0" stroke="#999999" points="2052.5,-19 1987.5,-19 1987.5,0 2052.5,0 2052.5,-19"/>
<text text-anchor="middle" x="2020" y="-7" font-family="Helvetica,sans-Serif" font-size="10.00">winerror.h</text>
</a>
</g>
</g>
<!-- Node24&#45;&gt;Node25 -->
<g id="edge27_Node000024_Node000025" class="edge">
<title>Node24&#45;&gt;Node25</title>
<g id="a_edge27_Node000024_Node000025"><a xlink:title=" ">
<path fill="none" stroke="#63b8ff" d="M2020,-60.3C2020,-51.2 2020,-39.29 2020,-29.4"/>
<polygon fill="#63b8ff" stroke="#63b8ff" points="2023.5,-29.34 2020,-19.34 2016.5,-29.34 2023.5,-29.34"/>
</a>
</g>
</g>
<!-- Node26&#45;&gt;Node21 -->
<g id="edge29_Node000026_Node000021" class="edge">
<title>Node26&#45;&gt;Node21</title>
<g id="a_edge29_Node000026_Node000021"><a xlink:title=" ">
<path fill="none" stroke="#63b8ff" d="M1058.42,-60.3C1075.19,-49.67 1098.01,-35.2 1114.75,-24.6"/>
<polygon fill="#63b8ff" stroke="#63b8ff" points="1116.76,-27.47 1123.34,-19.16 1113.02,-21.55 1116.76,-27.47"/>
</a>
</g>
</g>
<!-- Node27&#45;&gt;Node14 -->
<g id="edge31_Node000027_Node000014" class="edge">
<title>Node27&#45;&gt;Node14</title>
<g id="a_edge31_Node000027_Node000014"><a xlink:title=" ">
<path fill="none" stroke="#63b8ff" d="M2847.7,-60.45C2809.71,-48.93 2756.6,-32.82 2721.06,-22.04"/>
<polygon fill="#63b8ff" stroke="#63b8ff" points="2721.67,-18.57 2711.08,-19.02 2719.63,-25.27 2721.67,-18.57"/>
</a>
</g>
</g>
<!-- Node28&#45;&gt;Node15 -->
<g id="edge33_Node000028_Node000015" class="edge">
<title>Node28&#45;&gt;Node15</title>
<g id="a_edge33_Node000028_Node000015"><a xlink:title=" ">
<path fill="none" stroke="#63b8ff" d="M3307.75,-60.3C3322.26,-49.87 3341.9,-35.74 3356.56,-25.19"/>
<polygon fill="#63b8ff" stroke="#63b8ff" points="3358.88,-27.84 3364.96,-19.16 3354.8,-22.16 3358.88,-27.84"/>
</a>
</g>
</g>
<!-- Node29&#45;&gt;Node23 -->
<g id="edge35_Node000029_Node000023" class="edge">
<title>Node29&#45;&gt;Node23</title>
<g id="a_edge35_Node000029_Node000023"><a xlink:title=" ">
<path fill="none" stroke="#63b8ff" d="M1477.7,-60.45C1511.6,-49.03 1558.91,-33.1 1590.9,-22.32"/>
<polygon fill="#63b8ff" stroke="#63b8ff" points="1592.35,-25.53 1600.71,-19.02 1590.12,-18.89 1592.35,-25.53"/>
</a>
</g>
</g>
<!-- Node30&#45;&gt;Node23 -->
<g id="edge37_Node000030_Node000023" class="edge">
<title>Node30&#45;&gt;Node23</title>
<g id="a_edge37_Node000030_Node000023"><a xlink:title=" ">
<path fill="none" stroke="#63b8ff" d="M1626,-60.3C1626,-51.2 1626,-39.29 1626,-29.4"/>
<polygon fill="#63b8ff" stroke="#63b8ff" points="1629.5,-29.34 1626,-19.34 1622.5,-29.34 1629.5,-29.34"/>
</a>
</g>
</g>
<!-- Node31&#45;&gt;Node15 -->
<g id="edge39_Node000031_Node000015" class="edge">
<title>Node31&#45;&gt;Node15</title>
<g id="a_edge39_Node000031_Node000015"><a xlink:title=" ">
<path fill="none" stroke="#63b8ff" d="M3446.25,-60.3C3431.74,-49.87 3412.1,-35.74 3397.44,-25.19"/>
<polygon fill="#63b8ff" stroke="#63b8ff" points="3399.2,-22.16 3389.04,-19.16 3395.12,-27.84 3399.2,-22.16"/>
</a>
</g>
</g>
<!-- Node32&#45;&gt;Node14 -->
<g id="edge41_Node000032_Node000014" class="edge">
<title>Node32&#45;&gt;Node14</title>
<g id="a_edge41_Node000032_Node000014"><a xlink:title=" ">
<path fill="none" stroke="#63b8ff" d="M2462.11,-60.45C2515.31,-48.42 2590.66,-31.38 2638.16,-20.64"/>
<polygon fill="#63b8ff" stroke="#63b8ff" points="2639.17,-24 2648.15,-18.38 2637.63,-17.17 2639.17,-24"/>
</a>
</g>
</g>
<!-- Node33&#45;&gt;Node15 -->
<g id="edge43_Node000033_Node000015" class="edge">
<title>Node33&#45;&gt;Node15</title>
<g id="a_edge43_Node000033_Node000015"><a xlink:title=" ">
<path fill="none" stroke="#63b8ff" d="M3561.05,-54.95C3510.13,-42.65 3447.17,-27.45 3409.65,-18.39"/>
<polygon fill="#63b8ff" stroke="#63b8ff" points="3410.32,-14.95 3399.77,-16 3408.67,-21.75 3410.32,-14.95"/>
</a>
</g>
</g>
<!-- Node34&#45;&gt;Node15 -->
<g id="edge45_Node000034_Node000015" class="edge">
<title>Node34&#45;&gt;Node15</title>
<g id="a_edge45_Node000034_Node000015"><a xlink:title=" ">
<path fill="none" stroke="#63b8ff" d="M3744.41,-56.45C3741.58,-55.95 3738.77,-55.46 3736,-55 3616.53,-35.11 3473.34,-19.93 3409.96,-13.66"/>
<polygon fill="#63b8ff" stroke="#63b8ff" points="3410.07,-10.15 3399.78,-12.66 3409.39,-17.12 3410.07,-10.15"/>
</a>
</g>
</g>
<!-- Node35&#45;&gt;Node15 -->
<g id="edge47_Node000035_Node000015" class="edge">
<title>Node35&#45;&gt;Node15</title>
<g id="a_edge47_Node000035_Node000015"><a xlink:title=" ">
<path fill="none" stroke="#63b8ff" d="M3931.56,-56.37C3928.68,-55.88 3925.82,-55.42 3923,-55 3729.74,-26.09 3494.99,-14.92 3409.84,-11.64"/>
<polygon fill="#63b8ff" stroke="#63b8ff" points="3409.87,-8.14 3399.75,-11.26 3409.61,-15.13 3409.87,-8.14"/>
</a>
</g>
</g>
<!-- Node36&#45;&gt;Node15 -->
<g id="edge49_Node000036_Node000015" class="edge">
<title>Node36&#45;&gt;Node15</title>
<g id="a_edge49_Node000036_Node000015"><a xlink:title=" ">
<path fill="none" stroke="#63b8ff" d="M3145.25,-57.83C3149.9,-56.87 3154.51,-55.92 3159,-55 3224.89,-41.44 3302.01,-25.74 3344.6,-17.08"/>
<polygon fill="#63b8ff" stroke="#63b8ff" points="3345.3,-20.51 3354.4,-15.09 3343.9,-13.65 3345.3,-20.51"/>
</a>
</g>
</g>
<!-- Node37&#45;&gt;Node14 -->
<g id="edge51_Node000037_Node000014" class="edge">
<title>Node37&#45;&gt;Node14</title>
<g id="a_edge51_Node000037_Node000014"><a xlink:title=" ">
<path fill="none" stroke="#63b8ff" d="M2683,-60.3C2683,-51.2 2683,-39.29 2683,-29.4"/>
<polygon fill="#63b8ff" stroke="#63b8ff" points="2686.5,-29.34 2683,-19.34 2679.5,-29.34 2686.5,-29.34"/>
</a>
</g>
</g>
</g>
</svg>
