<?xml version="1.0" encoding="UTF-8" standalone="no"?>
<!DOCTYPE svg PUBLIC "-//W3C//DTD SVG 1.1//EN"
 "http://www.w3.org/Graphics/SVG/1.1/DTD/svg11.dtd">
<!-- Generated by graphviz version 2.43.0 (0)
 -->
<!-- Title: include/Hermes/Socket/_base.hpp Pages: 1 -->
<svg width="2088pt" height="489pt"
 viewBox="0.00 0.00 2088.00 489.00" xmlns="http://www.w3.org/2000/svg" xmlns:xlink="http://www.w3.org/1999/xlink">
<g id="graph0" class="graph" transform="scale(1 1) rotate(0) translate(4 485)">
<title>include/Hermes/Socket/_base.hpp</title>
<!-- Node1 -->
<g id="Node000001" class="node">
<title>Node1</title>
<g id="a_Node000001"><a xlink:title=" ">
<polygon fill="#999999" stroke="#666666" points="1156.5,-481 1028.5,-481 1028.5,-451 1156.5,-451 1156.5,-481"/>
<text text-anchor="start" x="1036.5" y="-469" font-family="Helvetica,sans-Serif" font-size="10.00">include/Hermes/Socket</text>
<text text-anchor="middle" x="1092.5" y="-458" font-family="Helvetica,sans-Serif" font-size="10.00">/_base.hpp</text>
</a>
</g>
</g>
<!-- Node2 -->
<g id="Node000002" class="node">
<title>Node2</title>
<g id="a_Node000002"><a xlink:href="_async_listener_socket_8hpp.html" target="_top" xlink:title=" ">
<polygon fill="white" stroke="#666666" points="173,-101.5 0,-101.5 0,-71.5 173,-71.5 173,-101.5"/>
<text text-anchor="start" x="8" y="-89.5" font-family="Helvetica,sans-Serif" font-size="10.00">include/Hermes/Socket</text>
<text text-anchor="middle" x="86.5" y="-78.5" font-family="Helvetica,sans-Serif" font-size="10.00">/Async/AsyncListenerSocket.hpp</text>
</a>
</g>
</g>
<!-- Node1&#45;&gt;Node2 -->
<g id="edge1_Node000001_Node000002" class="edge">
<title>Node1&#45;&gt;Node2</title>
<g id="a_edge1_Node000001_Node000002"><a xlink:title=" ">
<path fill="none" stroke="#63b8ff" d="M1018.26,-465C844.99,-464.25 418.32,-457.97 282.5,-415 204.41,-390.3 125.5,-400.4 125.5,-318.5 125.5,-318.5 125.5,-318.5 125.5,-239.5 125.5,-187.46 103.79,-128.46 92.77,-101.86"/>
<polygon fill="#63b8ff" stroke="#63b8ff" points="1018.3,-468.5 1028.31,-465.03 1018.33,-461.5 1018.3,-468.5"/>
</a>
</g>
</g>
<!-- Node3 -->
<g id="Node000003" class="node">
<title>Node3</title>
<g id="a_Node000003"><a xlink:href="_async_server_socket_8hpp.html" target="_top" xlink:title=" ">
<polygon fill="white" stroke="#666666" points="395.5,-178.5 229.5,-178.5 229.5,-148.5 395.5,-148.5 395.5,-178.5"/>
<text text-anchor="start" x="237.5" y="-166.5" font-family="Helvetica,sans-Serif" font-size="10.00">include/Hermes/Socket</text>
<text text-anchor="middle" x="312.5" y="-155.5" font-family="Helvetica,sans-Serif" font-size="10.00">/Async/AsyncServerSocket.hpp</text>
</a>
</g>
</g>
<!-- Node1&#45;&gt;Node3 -->
<g id="edge2_Node000001_Node000003" class="edge">
<title>Node1&#45;&gt;Node3</title>
<g id="a_edge2_Node000001_Node000003"><a xlink:title=" ">
<path fill="none" stroke="#63b8ff" d="M1017.85,-463.7C862.7,-460.35 510.32,-449.11 395.5,-415 327.8,-394.89 292.35,-398.85 256.5,-338 224.69,-284.01 275.58,-209.75 300.28,-178.87"/>
<polygon fill="#63b8ff" stroke="#63b8ff" points="1018.15,-467.21 1028.22,-463.92 1018.3,-460.21 1018.15,-467.21"/>
</a>
</g>
</g>
<!-- Node4 -->
<g id="Node000004" class="node">
<title>Node4</title>
<g id="a_Node000004"><a xlink:href="_default_async_accept_policy_8hpp.html" target="_top" xlink:title=" ">
<polygon fill="white" stroke="#666666" points="1076,-261 921,-261 921,-220 1076,-220 1076,-261"/>
<text text-anchor="start" x="929" y="-249" font-family="Helvetica,sans-Serif" font-size="10.00">include/Hermes/Socket</text>
<text text-anchor="start" x="929" y="-238" font-family="Helvetica,sans-Serif" font-size="10.00">/Async/_base/Accept/Default</text>
<text text-anchor="middle" x="998.5" y="-227" font-family="Helvetica,sans-Serif" font-size="10.00">AsyncAcceptPolicy.hpp</text>
</a>
</g>
</g>
<!-- Node1&#45;&gt;Node4 -->
<g id="edge4_Node000001_Node000004" class="edge">
<title>Node1&#45;&gt;Node4</title>
<g id="a_edge4_Node000001_Node000004"><a xlink:title=" ">
<path fill="none" stroke="#63b8ff" d="M1074.94,-442.53C1056.84,-418.19 1029.26,-377.51 1014.5,-338 1004.99,-312.55 1001.12,-281.21 999.55,-261.3"/>
<polygon fill="#63b8ff" stroke="#63b8ff" points="1072.31,-444.86 1081.13,-450.73 1077.89,-440.64 1072.31,-444.86"/>
</a>
</g>
</g>
<!-- Node5 -->
<g id="Node000005" class="node">
<title>Node5</title>
<g id="a_Node000005"><a xlink:href="_tls_async_accept_policy_8hpp.html" target="_top" xlink:title=" ">
<polygon fill="white" stroke="#666666" points="1522,-184 1359,-184 1359,-143 1522,-143 1522,-184"/>
<text text-anchor="start" x="1367" y="-172" font-family="Helvetica,sans-Serif" font-size="10.00">include/Hermes/Socket</text>
<text text-anchor="start" x="1367" y="-161" font-family="Helvetica,sans-Serif" font-size="10.00">/Async/_base/Accept/TlsAsync</text>
<text text-anchor="middle" x="1440.5" y="-150" font-family="Helvetica,sans-Serif" font-size="10.00">AcceptPolicy.hpp</text>
</a>
</g>
</g>
<!-- Node1&#45;&gt;Node5 -->
<g id="edge7_Node000001_Node000005" class="edge">
<title>Node1&#45;&gt;Node5</title>
<g id="a_edge7_Node000001_Node000005"><a xlink:title=" ">
<path fill="none" stroke="#63b8ff" d="M1166.78,-462.81C1262.64,-458.71 1422.89,-447.14 1471.5,-415 1551.28,-362.26 1614.27,-300.42 1562.5,-220 1552.05,-203.76 1535.55,-192.22 1518.02,-184.03"/>
<polygon fill="#63b8ff" stroke="#63b8ff" points="1166.42,-459.32 1156.57,-463.23 1166.7,-466.32 1166.42,-459.32"/>
</a>
</g>
</g>
<!-- Node6 -->
<g id="Node000006" class="node">
<title>Node6</title>
<g id="a_Node000006"><a xlink:href="_default_async_connect_policy_8hpp.html" target="_top" xlink:title=" ">
<polygon fill="white" stroke="#666666" points="630,-184 457,-184 457,-143 630,-143 630,-184"/>
<text text-anchor="start" x="465" y="-172" font-family="Helvetica,sans-Serif" font-size="10.00">include/Hermes/Socket</text>
<text text-anchor="start" x="465" y="-161" font-family="Helvetica,sans-Serif" font-size="10.00">/Async/_base/Connection</text>
<text text-anchor="middle" x="543.5" y="-150" font-family="Helvetica,sans-Serif" font-size="10.00">/DefaultAsyncConnectPolicy.hpp</text>
</a>
</g>
</g>
<!-- Node1&#45;&gt;Node6 -->
<g id="edge8_Node000001_Node000006" class="edge">
<title>Node1&#45;&gt;Node6</title>
<g id="a_edge8_Node000001_Node000006"><a xlink:title=" ">
<path fill="none" stroke="#63b8ff" d="M1017.91,-464.35C933.61,-461.72 793.22,-451.56 678.5,-415 610.1,-393.2 575.98,-397.96 536.5,-338 505.17,-290.41 523.91,-218.52 535.87,-184.15"/>
<polygon fill="#63b8ff" stroke="#63b8ff" points="1018.06,-467.86 1028.15,-464.64 1018.26,-460.86 1018.06,-467.86"/>
</a>
</g>
</g>
<!-- Node8 -->
<g id="Node000008" class="node">
<title>Node8</title>
<g id="a_Node000008"><a xlink:href="_tls_async_connect_policy_8hpp.html" target="_top" xlink:title=" ">
<polygon fill="white" stroke="#666666" points="751.5,-107 599.5,-107 599.5,-66 751.5,-66 751.5,-107"/>
<text text-anchor="start" x="607.5" y="-95" font-family="Helvetica,sans-Serif" font-size="10.00">include/Hermes/Socket</text>
<text text-anchor="start" x="607.5" y="-84" font-family="Helvetica,sans-Serif" font-size="10.00">/Async/_base/Connection</text>
<text text-anchor="middle" x="675.5" y="-73" font-family="Helvetica,sans-Serif" font-size="10.00">/TlsAsyncConnectPolicy.hpp</text>
</a>
</g>
</g>
<!-- Node1&#45;&gt;Node8 -->
<g id="edge12_Node000001_Node000008" class="edge">
<title>Node1&#45;&gt;Node8</title>
<g id="a_edge12_Node000001_Node000008"><a xlink:title=" ">
<path fill="none" stroke="#63b8ff" d="M1167.02,-463.88C1322.14,-460.84 1668.71,-450.16 1708.5,-415 1741.32,-386 1728.5,-362.3 1728.5,-318.5 1728.5,-318.5 1728.5,-318.5 1728.5,-239.5 1728.5,-195.79 1742.51,-171.66 1709.5,-143 1691.43,-127.31 987.62,-99.31 751.69,-90.34"/>
<polygon fill="#63b8ff" stroke="#63b8ff" points="1166.56,-460.38 1156.63,-464.07 1166.7,-467.38 1166.56,-460.38"/>
</a>
</g>
</g>
<!-- Node9 -->
<g id="Node000009" class="node">
<title>Node9</title>
<g id="a_Node000009"><a xlink:href="_default_async_transfer_policy_8hpp.html" target="_top" xlink:title=" ">
<polygon fill="white" stroke="#666666" points="439,-338 266,-338 266,-297 439,-297 439,-338"/>
<text text-anchor="start" x="274" y="-326" font-family="Helvetica,sans-Serif" font-size="10.00">include/Hermes/Socket</text>
<text text-anchor="start" x="274" y="-315" font-family="Helvetica,sans-Serif" font-size="10.00">/Async/_base/Transfer</text>
<text text-anchor="middle" x="352.5" y="-304" font-family="Helvetica,sans-Serif" font-size="10.00">/DefaultAsyncTransferPolicy.hpp</text>
</a>
</g>
</g>
<!-- Node1&#45;&gt;Node9 -->
<g id="edge13_Node000001_Node000009" class="edge">
<title>Node1&#45;&gt;Node9</title>
<g id="a_edge13_Node000001_Node000009"><a xlink:title=" ">
<path fill="none" stroke="#63b8ff" d="M1018.25,-465.38C872.08,-465.12 552.65,-459.32 453.5,-415 415.86,-398.18 383.67,-361.14 366.29,-338.16"/>
<polygon fill="#63b8ff" stroke="#63b8ff" points="1018.46,-468.88 1028.47,-465.39 1018.47,-461.88 1018.46,-468.88"/>
</a>
</g>
</g>
<!-- Node10 -->
<g id="Node000010" class="node">
<title>Node10</title>
<g id="a_Node000010"><a xlink:href="_tls_async_transfer_policy_8hpp.html" target="_top" xlink:title=" ">
<polygon fill="white" stroke="#666666" points="477,-261 326,-261 326,-220 477,-220 477,-261"/>
<text text-anchor="start" x="334" y="-249" font-family="Helvetica,sans-Serif" font-size="10.00">include/Hermes/Socket</text>
<text text-anchor="start" x="334" y="-238" font-family="Helvetica,sans-Serif" font-size="10.00">/Async/_base/Transfer</text>
<text text-anchor="middle" x="401.5" y="-227" font-family="Helvetica,sans-Serif" font-size="10.00">/TlsAsyncTransferPolicy.hpp</text>
</a>
</g>
</g>
<!-- Node1&#45;&gt;Node10 -->
<g id="edge16_Node000001_Node000010" class="edge">
<title>Node1&#45;&gt;Node10</title>
<g id="a_edge16_Node000001_Node000010"><a xlink:title=" ">
<path fill="none" stroke="#63b8ff" d="M1018.22,-463.23C866.67,-458.98 532.62,-446.16 491.5,-415 446.89,-381.2 475.53,-345.45 447.5,-297 440.04,-284.11 429.58,-271.21 420.51,-261.1"/>
<polygon fill="#63b8ff" stroke="#63b8ff" points="1018.28,-466.73 1028.37,-463.5 1018.47,-459.73 1018.28,-466.73"/>
</a>
</g>
</g>
<!-- Node11 -->
<g id="Node000011" class="node">
<title>Node11</title>
<g id="a_Node000011"><a xlink:href="_default_socket_data_8hpp.html" target="_top" xlink:title=" ">
<polygon fill="white" stroke="#666666" points="929.5,-409.5 771.5,-409.5 771.5,-379.5 929.5,-379.5 929.5,-409.5"/>
<text text-anchor="start" x="779.5" y="-397.5" font-family="Helvetica,sans-Serif" font-size="10.00">include/Hermes/Socket</text>
<text text-anchor="middle" x="850.5" y="-386.5" font-family="Helvetica,sans-Serif" font-size="10.00">/Data/DefaultSocketData.hpp</text>
</a>
</g>
</g>
<!-- Node1&#45;&gt;Node11 -->
<g id="edge19_Node000001_Node000011" class="edge">
<title>Node1&#45;&gt;Node11</title>
<g id="a_edge19_Node000001_Node000011"><a xlink:title=" ">
<path fill="none" stroke="#63b8ff" d="M1033.89,-448.17C992.71,-436.34 938.25,-420.7 899.4,-409.54"/>
<polygon fill="#63b8ff" stroke="#63b8ff" points="1032.95,-451.54 1043.53,-450.94 1034.88,-444.81 1032.95,-451.54"/>
</a>
</g>
</g>
<!-- Node12 -->
<g id="Node000012" class="node">
<title>Node12</title>
<g id="a_Node000012"><a xlink:href="_default_accept_policy_8hpp.html" target="_top" xlink:title=" ">
<polygon fill="white" stroke="#666666" points="1399.5,-338 1217.5,-338 1217.5,-297 1399.5,-297 1399.5,-338"/>
<text text-anchor="start" x="1225.5" y="-326" font-family="Helvetica,sans-Serif" font-size="10.00">include/Hermes/Socket</text>
<text text-anchor="start" x="1225.5" y="-315" font-family="Helvetica,sans-Serif" font-size="10.00">/Sync/_base/Accept/DefaultAccept</text>
<text text-anchor="middle" x="1308.5" y="-304" font-family="Helvetica,sans-Serif" font-size="10.00">Policy.hpp</text>
</a>
</g>
</g>
<!-- Node1&#45;&gt;Node12 -->
<g id="edge50_Node000001_Node000012" class="edge">
<title>Node1&#45;&gt;Node12</title>
<g id="a_edge50_Node000001_Node000012"><a xlink:title=" ">
<path fill="none" stroke="#63b8ff" d="M1140.89,-447.17C1161.02,-438.76 1184.16,-427.76 1203.5,-415 1237.39,-392.64 1270.95,-359.32 1290.7,-338.27"/>
<polygon fill="#63b8ff" stroke="#63b8ff" points="1139.52,-443.95 1131.58,-450.97 1142.16,-450.43 1139.52,-443.95"/>
</a>
</g>
</g>
<!-- Node15 -->
<g id="Node000015" class="node">
<title>Node15</title>
<g id="a_Node000015"><a xlink:href="_tls_accept_policy_8hpp.html" target="_top" xlink:title=" ">
<polygon fill="white" stroke="#666666" points="1554,-261 1393,-261 1393,-220 1554,-220 1554,-261"/>
<text text-anchor="start" x="1401" y="-249" font-family="Helvetica,sans-Serif" font-size="10.00">include/Hermes/Socket</text>
<text text-anchor="start" x="1401" y="-238" font-family="Helvetica,sans-Serif" font-size="10.00">/Sync/_base/Accept/TlsAccept</text>
<text text-anchor="middle" x="1473.5" y="-227" font-family="Helvetica,sans-Serif" font-size="10.00">Policy.hpp</text>
</a>
</g>
</g>
<!-- Node1&#45;&gt;Node15 -->
<g id="edge51_Node000001_Node000015" class="edge">
<title>Node1&#45;&gt;Node15</title>
<g id="a_edge51_Node000001_Node000015"><a xlink:title=" ">
<path fill="none" stroke="#63b8ff" d="M1166.67,-464.42C1258.12,-462.07 1406.18,-452.4 1444.5,-415 1486.36,-374.16 1481.82,-297.33 1476.88,-261.21"/>
<polygon fill="#63b8ff" stroke="#63b8ff" points="1166.55,-460.92 1156.64,-464.65 1166.72,-467.92 1166.55,-460.92"/>
</a>
</g>
</g>
<!-- Node17 -->
<g id="Node000017" class="node">
<title>Node17</title>
<g id="a_Node000017"><a xlink:href="_default_connect_policy_8hpp.html" target="_top" xlink:title=" ">
<polygon fill="white" stroke="#666666" points="715.5,-338 571.5,-338 571.5,-297 715.5,-297 715.5,-338"/>
<text text-anchor="start" x="579.5" y="-326" font-family="Helvetica,sans-Serif" font-size="10.00">include/Hermes/Socket</text>
<text text-anchor="start" x="579.5" y="-315" font-family="Helvetica,sans-Serif" font-size="10.00">/Sync/_base/Connection</text>
<text text-anchor="middle" x="643.5" y="-304" font-family="Helvetica,sans-Serif" font-size="10.00">/DefaultConnectPolicy.hpp</text>
</a>
</g>
</g>
<!-- Node1&#45;&gt;Node17 -->
<g id="edge52_Node000001_Node000017" class="edge">
<title>Node1&#45;&gt;Node17</title>
<g id="a_edge52_Node000001_Node000017"><a xlink:title=" ">
<path fill="none" stroke="#63b8ff" d="M1018.49,-460.83C927.2,-454.66 778.13,-440.93 729.5,-415 696.03,-397.16 669.27,-360.82 654.95,-338.18"/>
<polygon fill="#63b8ff" stroke="#63b8ff" points="1018.29,-464.33 1028.5,-461.49 1018.75,-457.34 1018.29,-464.33"/>
</a>
</g>
</g>
<!-- Node19 -->
<g id="Node000019" class="node">
<title>Node19</title>
<g id="a_Node000019"><a xlink:href="_tls_connect_policy_8hpp.html" target="_top" xlink:title=" ">
<polygon fill="white" stroke="#666666" points="741.5,-261 609.5,-261 609.5,-220 741.5,-220 741.5,-261"/>
<text text-anchor="start" x="617.5" y="-249" font-family="Helvetica,sans-Serif" font-size="10.00">include/Hermes/Socket</text>
<text text-anchor="start" x="617.5" y="-238" font-family="Helvetica,sans-Serif" font-size="10.00">/Sync/_base/Connection</text>
<text text-anchor="middle" x="675.5" y="-227" font-family="Helvetica,sans-Serif" font-size="10.00">/TlsConnectPolicy.hpp</text>
</a>
</g>
</g>
<!-- Node1&#45;&gt;Node19 -->
<g id="edge53_Node000001_Node000019" class="edge">
<title>Node1&#45;&gt;Node19</title>
<g id="a_edge53_Node000001_Node000019"><a xlink:title=" ">
<path fill="none" stroke="#63b8ff" d="M1018.27,-462.66C932.99,-458.47 799.98,-446.88 762.5,-415 720.53,-379.3 751.75,-344.88 724.5,-297 717,-283.82 706,-271 696.33,-261"/>
<polygon fill="#63b8ff" stroke="#63b8ff" points="1018.27,-466.16 1028.42,-463.13 1018.59,-459.17 1018.27,-466.16"/>
</a>
</g>
</g>
<!-- Node21 -->
<g id="Node000021" class="node">
<title>Node21</title>
<g id="a_Node000021"><a xlink:href="_default_transfer_policy_8hpp.html" target="_top" xlink:title=" ">
<polygon fill="white" stroke="#666666" points="903,-261 760,-261 760,-220 903,-220 903,-261"/>
<text text-anchor="start" x="768" y="-249" font-family="Helvetica,sans-Serif" font-size="10.00">include/Hermes/Socket</text>
<text text-anchor="start" x="768" y="-238" font-family="Helvetica,sans-Serif" font-size="10.00">/Sync/_base/Transfer</text>
<text text-anchor="middle" x="831.5" y="-227" font-family="Helvetica,sans-Serif" font-size="10.00">/DefaultTransferPolicy.hpp</text>
</a>
</g>
</g>
<!-- Node1&#45;&gt;Node21 -->
<g id="edge54_Node000001_Node000021" class="edge">
<title>Node1&#45;&gt;Node21</title>
<g id="a_edge54_Node000001_Node000021"><a xlink:title=" ">
<path fill="none" stroke="#63b8ff" d="M1065.77,-444.68C1054.19,-435.73 1040.55,-425 1028.5,-415 963.26,-360.87 888.83,-293.81 853,-261.18"/>
<polygon fill="#63b8ff" stroke="#63b8ff" points="1063.73,-447.52 1073.79,-450.84 1067.99,-441.97 1063.73,-447.52"/>
</a>
</g>
</g>
<!-- Node22 -->
<g id="Node000022" class="node">
<title>Node22</title>
<g id="a_Node000022"><a xlink:href="_tls_socket_data_8hpp.html" target="_top" xlink:title=" ">
<polygon fill="white" stroke="#666666" points="1161,-332.5 1024,-332.5 1024,-302.5 1161,-302.5 1161,-332.5"/>
<text text-anchor="start" x="1032" y="-320.5" font-family="Helvetica,sans-Serif" font-size="10.00">include/Hermes/Socket</text>
<text text-anchor="middle" x="1092.5" y="-309.5" font-family="Helvetica,sans-Serif" font-size="10.00">/Data/TlsSocketData.hpp</text>
</a>
</g>
</g>
<!-- Node1&#45;&gt;Node22 -->
<g id="edge41_Node000001_Node000022" class="edge">
<title>Node1&#45;&gt;Node22</title>
<g id="a_edge41_Node000001_Node000022"><a xlink:title=" ">
<path fill="none" stroke="#63b8ff" d="M1092.5,-440.65C1092.5,-409.82 1092.5,-357.72 1092.5,-332.72"/>
<polygon fill="#63b8ff" stroke="#63b8ff" points="1089,-440.95 1092.5,-450.95 1096,-440.95 1089,-440.95"/>
</a>
</g>
</g>
<!-- Node23 -->
<g id="Node000023" class="node">
<title>Node23</title>
<g id="a_Node000023"><a xlink:href="_tls_transfer_policy_8hpp.html" target="_top" xlink:title=" ">
<polygon fill="white" stroke="#666666" points="1260.5,-261 1132.5,-261 1132.5,-220 1260.5,-220 1260.5,-261"/>
<text text-anchor="start" x="1140.5" y="-249" font-family="Helvetica,sans-Serif" font-size="10.00">include/Hermes/Socket</text>
<text text-anchor="start" x="1140.5" y="-238" font-family="Helvetica,sans-Serif" font-size="10.00">/Sync/_base/Transfer</text>
<text text-anchor="middle" x="1196.5" y="-227" font-family="Helvetica,sans-Serif" font-size="10.00">/TlsTransferPolicy.hpp</text>
</a>
</g>
</g>
<!-- Node1&#45;&gt;Node23 -->
<g id="edge55_Node000001_Node000023" class="edge">
<title>Node1&#45;&gt;Node23</title>
<g id="a_edge55_Node000001_Node000023"><a xlink:title=" ">
<path fill="none" stroke="#63b8ff" d="M1108.71,-442.56C1125.85,-417.95 1152.7,-376.77 1169.5,-338 1180.57,-312.46 1188.35,-281.15 1192.63,-261.26"/>
<polygon fill="#63b8ff" stroke="#63b8ff" points="1105.77,-440.65 1102.87,-450.84 1111.49,-444.69 1105.77,-440.65"/>
</a>
</g>
</g>
<!-- Node24 -->
<g id="Node000024" class="node">
<title>Node24</title>
<g id="a_Node000024"><a xlink:href="_i_tls_accept_state_machine_8hpp.html" target="_top" xlink:title=" ">
<polygon fill="white" stroke="#666666" points="1700,-415 1537,-415 1537,-374 1700,-374 1700,-415"/>
<text text-anchor="start" x="1545" y="-403" font-family="Helvetica,sans-Serif" font-size="10.00">include/Hermes/Socket</text>
<text text-anchor="start" x="1545" y="-392" font-family="Helvetica,sans-Serif" font-size="10.00">/_base/Accept/ITlsAcceptState</text>
<text text-anchor="middle" x="1618.5" y="-381" font-family="Helvetica,sans-Serif" font-size="10.00">Machine.hpp</text>
</a>
</g>
</g>
<!-- Node1&#45;&gt;Node24 -->
<g id="edge56_Node000001_Node000024" class="edge">
<title>Node1&#45;&gt;Node24</title>
<g id="a_edge56_Node000001_Node000024"><a xlink:title=" ">
<path fill="none" stroke="#63b8ff" d="M1167.02,-458.27C1252.98,-450.05 1398.4,-434.78 1522.5,-415 1527.2,-414.25 1532.02,-413.43 1536.88,-412.57"/>
<polygon fill="#63b8ff" stroke="#63b8ff" points="1166.47,-454.8 1156.84,-459.23 1167.13,-461.77 1166.47,-454.8"/>
</a>
</g>
</g>
<!-- Node25 -->
<g id="Node000025" class="node">
<title>Node25</title>
<g id="a_Node000025"><a xlink:href="_i_tls_connect_state_machine_8hpp.html" target="_top" xlink:title=" ">
<polygon fill="white" stroke="#666666" points="1435.5,-415 1269.5,-415 1269.5,-374 1435.5,-374 1435.5,-415"/>
<text text-anchor="start" x="1277.5" y="-403" font-family="Helvetica,sans-Serif" font-size="10.00">include/Hermes/Socket</text>
<text text-anchor="start" x="1277.5" y="-392" font-family="Helvetica,sans-Serif" font-size="10.00">/_base/Connection/ITlsConnect</text>
<text text-anchor="middle" x="1352.5" y="-381" font-family="Helvetica,sans-Serif" font-size="10.00">StateMachine.hpp</text>
</a>
</g>
</g>
<!-- Node1&#45;&gt;Node25 -->
<g id="edge58_Node000001_Node000025" class="edge">
<title>Node1&#45;&gt;Node25</title>
<g id="a_edge58_Node000001_Node000025"><a xlink:title=" ">
<path fill="none" stroke="#63b8ff" d="M1154.88,-448.32C1192.3,-438.32 1240.07,-425.55 1279.28,-415.07"/>
<polygon fill="#63b8ff" stroke="#63b8ff" points="1153.87,-444.97 1145.11,-450.94 1155.68,-451.73 1153.87,-444.97"/>
</a>
</g>
</g>
<!-- Node26 -->
<g id="Node000026" class="node">
<title>Node26</title>
<g id="a_Node000026"><a xlink:href="_i_tls_transfer_state_machine_8hpp.html" target="_top" xlink:title=" ">
<polygon fill="white" stroke="#666666" points="1943,-415 1794,-415 1794,-374 1943,-374 1943,-415"/>
<text text-anchor="start" x="1802" y="-403" font-family="Helvetica,sans-Serif" font-size="10.00">include/Hermes/Socket</text>
<text text-anchor="start" x="1802" y="-392" font-family="Helvetica,sans-Serif" font-size="10.00">/_base/Transfer/ITlsTransfer</text>
<text text-anchor="middle" x="1868.5" y="-381" font-family="Helvetica,sans-Serif" font-size="10.00">StateMachine.hpp</text>
</a>
</g>
</g>
<!-- Node1&#45;&gt;Node26 -->
<g id="edge60_Node000001_Node000026" class="edge">
<title>Node1&#45;&gt;Node26</title>
<g id="a_edge60_Node000001_Node000026"><a xlink:title=" ">
<path fill="none" stroke="#63b8ff" d="M1167.22,-463.13C1293.96,-459.16 1558.92,-447.43 1780.5,-415 1784.84,-414.37 1789.28,-413.64 1793.74,-412.84"/>
<polygon fill="#63b8ff" stroke="#63b8ff" points="1166.75,-459.64 1156.86,-463.44 1166.97,-466.64 1166.75,-459.64"/>
</a>
</g>
</g>
<!-- Node27 -->
<g id="Node000027" class="node">
<title>Node27</title>
<g id="a_Node000027"><a xlink:href="_tls_transfer_state_machine_8hpp.html" target="_top" xlink:title=" ">
<polygon fill="white" stroke="#666666" points="1921.5,-338 1775.5,-338 1775.5,-297 1921.5,-297 1921.5,-338"/>
<text text-anchor="start" x="1783.5" y="-326" font-family="Helvetica,sans-Serif" font-size="10.00">include/Hermes/Socket</text>
<text text-anchor="start" x="1783.5" y="-315" font-family="Helvetica,sans-Serif" font-size="10.00">/_base/Transfer/TlsTransfer</text>
<text text-anchor="middle" x="1848.5" y="-304" font-family="Helvetica,sans-Serif" font-size="10.00">StateMachine.hpp</text>
</a>
</g>
</g>
<!-- Node1&#45;&gt;Node27 -->
<g id="edge62_Node000001_Node000027" class="edge">
<title>Node1&#45;&gt;Node27</title>
<g id="a_edge62_Node000001_Node000027"><a xlink:title=" ">
<path fill="none" stroke="#63b8ff" d="M1166.91,-465.49C1315.06,-465.45 1641.35,-460.07 1742.5,-415 1766.62,-404.25 1766.03,-391.84 1785.5,-374 1798.72,-361.89 1813.78,-348.6 1825.86,-338.07"/>
<polygon fill="#63b8ff" stroke="#63b8ff" points="1166.56,-461.99 1156.56,-465.48 1166.56,-468.99 1166.56,-461.99"/>
</a>
</g>
</g>
<!-- Node28 -->
<g id="Node000028" class="node">
<title>Node28</title>
<g id="a_Node000028"><a xlink:href="_to_bytes_8hpp.html" target="_top" xlink:title=" ">
<polygon fill="white" stroke="#666666" points="2080,-409.5 1961,-409.5 1961,-379.5 2080,-379.5 2080,-409.5"/>
<text text-anchor="start" x="1969" y="-397.5" font-family="Helvetica,sans-Serif" font-size="10.00">include/Hermes/Utils</text>
<text text-anchor="middle" x="2020.5" y="-386.5" font-family="Helvetica,sans-Serif" font-size="10.00">/ToBytes.hpp</text>
</a>
</g>
</g>
<!-- Node1&#45;&gt;Node28 -->
<g id="edge63_Node000001_Node000028" class="edge">
<title>Node1&#45;&gt;Node28</title>
<g id="a_edge63_Node000001_Node000028"><a xlink:title=" ">
<path fill="none" stroke="#63b8ff" d="M1166.7,-462.75C1346.45,-456.97 1801.48,-440.25 1951.5,-415 1959.6,-413.64 1968.11,-411.68 1976.28,-409.53"/>
<polygon fill="#63b8ff" stroke="#63b8ff" points="1166.43,-459.26 1156.54,-463.08 1166.65,-466.26 1166.43,-459.26"/>
</a>
</g>
</g>
<!-- Node3&#45;&gt;Node2 -->
<g id="edge3_Node000003_Node000002" class="edge">
<title>Node3&#45;&gt;Node2</title>
<g id="a_edge3_Node000003_Node000002"><a xlink:title=" ">
<path fill="none" stroke="#63b8ff" d="M260.7,-145.31C220.78,-132.06 166.27,-113.97 128.92,-101.58"/>
<polygon fill="#63b8ff" stroke="#63b8ff" points="259.66,-148.65 270.26,-148.48 261.87,-142.01 259.66,-148.65"/>
</a>
</g>
</g>
<!-- Node4&#45;&gt;Node3 -->
<g id="edge5_Node000004_Node000003" class="edge">
<title>Node4&#45;&gt;Node3</title>
<g id="a_edge5_Node000004_Node000003"><a xlink:title=" ">
<path fill="none" stroke="#63b8ff" d="M910.91,-220.04C705.23,-189.84 649.87,-206.44 447.5,-184 430.67,-182.13 412.71,-179.79 395.57,-177.38"/>
<polygon fill="#63b8ff" stroke="#63b8ff" points="910.41,-223.5 920.82,-221.51 911.44,-216.58 910.41,-223.5"/>
</a>
</g>
</g>
<!-- Node4&#45;&gt;Node5 -->
<g id="edge6_Node000004_Node000005" class="edge">
<title>Node4&#45;&gt;Node5</title>
<g id="a_edge6_Node000004_Node000005"><a xlink:title=" ">
<path fill="none" stroke="#63b8ff" d="M1086.51,-225.71C1186.21,-210.06 1336.62,-186.4 1349.5,-184 1352.52,-183.44 1355.59,-182.85 1358.69,-182.25"/>
<polygon fill="#63b8ff" stroke="#63b8ff" points="1085.76,-222.28 1076.42,-227.29 1086.84,-229.2 1085.76,-222.28"/>
</a>
</g>
</g>
<!-- Node7 -->
<g id="Node000007" class="node">
<title>Node7</title>
<g id="a_Node000007"><a xlink:href="_async_client_socket_8hpp.html" target="_top" xlink:title=" ">
<polygon fill="white" stroke="#666666" points="565,-30 402,-30 402,0 565,0 565,-30"/>
<text text-anchor="start" x="410" y="-18" font-family="Helvetica,sans-Serif" font-size="10.00">include/Hermes/Socket</text>
<text text-anchor="middle" x="483.5" y="-7" font-family="Helvetica,sans-Serif" font-size="10.00">/Async/AsyncClientSocket.hpp</text>
</a>
</g>
</g>
<!-- Node6&#45;&gt;Node7 -->
<g id="edge9_Node000006_Node000007" class="edge">
<title>Node6&#45;&gt;Node7</title>
<g id="a_edge9_Node000006_Node000007"><a xlink:title=" ">
<path fill="none" stroke="#63b8ff" d="M531.52,-133.26C518.74,-102.04 499.02,-53.89 489.31,-30.18"/>
<polygon fill="#63b8ff" stroke="#63b8ff" points="528.38,-134.81 535.41,-142.74 534.86,-132.16 528.38,-134.81"/>
</a>
</g>
</g>
<!-- Node6&#45;&gt;Node8 -->
<g id="edge10_Node000006_Node000008" class="edge">
<title>Node6&#45;&gt;Node8</title>
<g id="a_edge10_Node000006_Node000008"><a xlink:title=" ">
<path fill="none" stroke="#63b8ff" d="M586.76,-137.92C604.32,-127.95 624.31,-116.58 640.88,-107.17"/>
<polygon fill="#63b8ff" stroke="#63b8ff" points="584.8,-135.01 577.84,-142.99 588.26,-141.09 584.8,-135.01"/>
</a>
</g>
</g>
<!-- Node8&#45;&gt;Node7 -->
<g id="edge11_Node000008_Node000007" class="edge">
<title>Node8&#45;&gt;Node7</title>
<g id="a_edge11_Node000008_Node000007"><a xlink:title=" ">
<path fill="none" stroke="#63b8ff" d="M612.05,-62.53C582.34,-51.78 547.93,-39.32 522.19,-30"/>
<polygon fill="#63b8ff" stroke="#63b8ff" points="610.91,-65.84 621.51,-65.96 613.29,-59.26 610.91,-65.84"/>
</a>
</g>
</g>
<!-- Node9&#45;&gt;Node3 -->
<g id="edge15_Node000009_Node000003" class="edge">
<title>Node9&#45;&gt;Node3</title>
<g id="a_edge15_Node000009_Node000003"><a xlink:title=" ">
<path fill="none" stroke="#63b8ff" d="M330.22,-288.49C324.73,-280.11 319.55,-270.58 316.5,-261 307.54,-232.88 309.01,-197.81 310.8,-178.64"/>
<polygon fill="#63b8ff" stroke="#63b8ff" points="327.4,-290.55 335.98,-296.76 333.14,-286.55 327.4,-290.55"/>
</a>
</g>
</g>
<!-- Node9&#45;&gt;Node7 -->
<g id="edge14_Node000009_Node000007" class="edge">
<title>Node9&#45;&gt;Node7</title>
<g id="a_edge14_Node000009_Node000007"><a xlink:title=" ">
<path fill="none" stroke="#63b8ff" d="M309.3,-291.37C258.6,-258.52 185.6,-198.61 220.5,-143 261,-78.47 344.55,-45.94 406.67,-30.08"/>
<polygon fill="#63b8ff" stroke="#63b8ff" points="307.53,-294.39 317.85,-296.79 311.28,-288.48 307.53,-294.39"/>
</a>
</g>
</g>
<!-- Node10&#45;&gt;Node3 -->
<g id="edge18_Node000010_Node000003" class="edge">
<title>Node10&#45;&gt;Node3</title>
<g id="a_edge18_Node000010_Node000003"><a xlink:title=" ">
<path fill="none" stroke="#63b8ff" d="M370.26,-213.17C356.46,-201.55 340.8,-188.34 329.26,-178.63"/>
<polygon fill="#63b8ff" stroke="#63b8ff" points="368.21,-216.03 378.12,-219.79 372.72,-210.67 368.21,-216.03"/>
</a>
</g>
</g>
<!-- Node10&#45;&gt;Node7 -->
<g id="edge17_Node000010_Node000007" class="edge">
<title>Node10&#45;&gt;Node7</title>
<g id="a_edge17_Node000010_Node000007"><a xlink:title=" ">
<path fill="none" stroke="#63b8ff" d="M412.31,-210.03C430.17,-161.36 465.16,-66 478.32,-30.11"/>
<polygon fill="#63b8ff" stroke="#63b8ff" points="408.94,-209.07 408.78,-219.67 415.51,-211.48 408.94,-209.07"/>
</a>
</g>
</g>
<!-- Node11&#45;&gt;Node4 -->
<g id="edge20_Node000011_Node000004" class="edge">
<title>Node11&#45;&gt;Node4</title>
<g id="a_edge20_Node000011_Node000004"><a xlink:title=" ">
<path fill="none" stroke="#63b8ff" d="M871.28,-372.15C900.02,-342.64 951.49,-289.78 979.34,-261.18"/>
<polygon fill="#63b8ff" stroke="#63b8ff" points="868.63,-369.87 864.16,-379.47 873.64,-374.75 868.63,-369.87"/>
</a>
</g>
</g>
<!-- Node11&#45;&gt;Node6 -->
<g id="edge21_Node000011_Node000006" class="edge">
<title>Node11&#45;&gt;Node6</title>
<g id="a_edge21_Node000011_Node000006"><a xlink:title=" ">
<path fill="none" stroke="#63b8ff" d="M761.05,-387.69C686.68,-380.88 588.91,-366.65 562.5,-338 523.27,-295.45 532,-219.81 538.97,-184.15"/>
<polygon fill="#63b8ff" stroke="#63b8ff" points="761.11,-391.21 771.38,-388.61 761.72,-384.24 761.11,-391.21"/>
</a>
</g>
</g>
<!-- Node11&#45;&gt;Node9 -->
<g id="edge22_Node000011_Node000009" class="edge">
<title>Node11&#45;&gt;Node9</title>
<g id="a_edge22_Node000011_Node000009"><a xlink:title=" ">
<path fill="none" stroke="#63b8ff" d="M761.28,-380.06C670.14,-366.34 529.56,-345.17 439.31,-331.57"/>
<polygon fill="#63b8ff" stroke="#63b8ff" points="760.91,-383.55 771.32,-381.57 761.95,-376.62 760.91,-383.55"/>
</a>
</g>
</g>
<!-- Node11&#45;&gt;Node12 -->
<g id="edge23_Node000011_Node000012" class="edge">
<title>Node11&#45;&gt;Node12</title>
<g id="a_edge23_Node000011_Node000012"><a xlink:title=" ">
<path fill="none" stroke="#63b8ff" d="M939.81,-378.87C1019.82,-365.77 1136.65,-346.64 1217.24,-333.44"/>
<polygon fill="#63b8ff" stroke="#63b8ff" points="939.06,-375.45 929.75,-380.52 940.19,-382.36 939.06,-375.45"/>
</a>
</g>
</g>
<!-- Node11&#45;&gt;Node17 -->
<g id="edge31_Node000011_Node000017" class="edge">
<title>Node11&#45;&gt;Node17</title>
<g id="a_edge31_Node000011_Node000017"><a xlink:title=" ">
<path fill="none" stroke="#63b8ff" d="M802.16,-375.99C770.81,-364.63 729.91,-349.81 697.49,-338.06"/>
<polygon fill="#63b8ff" stroke="#63b8ff" points="800.97,-379.28 811.56,-379.39 803.36,-372.7 800.97,-379.28"/>
</a>
</g>
</g>
<!-- Node11&#45;&gt;Node21 -->
<g id="edge38_Node000011_Node000021" class="edge">
<title>Node11&#45;&gt;Node21</title>
<g id="a_edge38_Node000011_Node000021"><a xlink:title=" ">
<path fill="none" stroke="#63b8ff" d="M847.49,-369.46C843.75,-339.51 837.43,-288.93 833.96,-261.18"/>
<polygon fill="#63b8ff" stroke="#63b8ff" points="844.03,-369.98 848.75,-379.47 850.98,-369.12 844.03,-369.98"/>
</a>
</g>
</g>
<!-- Node12&#45;&gt;Node4 -->
<g id="edge24_Node000012_Node000004" class="edge">
<title>Node12&#45;&gt;Node4</title>
<g id="a_edge24_Node000012_Node000004"><a xlink:title=" ">
<path fill="none" stroke="#63b8ff" d="M1218.1,-294.63C1173.07,-283.74 1119.19,-270.7 1076.06,-260.27"/>
<polygon fill="#63b8ff" stroke="#63b8ff" points="1217.32,-298.04 1227.86,-296.99 1218.96,-291.24 1217.32,-298.04"/>
</a>
</g>
</g>
<!-- Node13 -->
<g id="Node000013" class="node">
<title>Node13</title>
<g id="a_Node000013"><a xlink:href="_server_socket_8hpp.html" target="_top" xlink:title=" ">
<polygon fill="white" stroke="#666666" points="1341,-178.5 1210,-178.5 1210,-148.5 1341,-148.5 1341,-178.5"/>
<text text-anchor="start" x="1218" y="-166.5" font-family="Helvetica,sans-Serif" font-size="10.00">include/Hermes/Socket</text>
<text text-anchor="middle" x="1275.5" y="-155.5" font-family="Helvetica,sans-Serif" font-size="10.00">/Sync/ServerSocket.hpp</text>
</a>
</g>
</g>
<!-- Node12&#45;&gt;Node13 -->
<g id="edge25_Node000012_Node000013" class="edge">
<title>Node12&#45;&gt;Node13</title>
<g id="a_edge25_Node000012_Node000013"><a xlink:title=" ">
<path fill="none" stroke="#63b8ff" d="M1302.11,-287.06C1295.02,-254.42 1283.89,-203.15 1278.55,-178.57"/>
<polygon fill="#63b8ff" stroke="#63b8ff" points="1298.71,-287.91 1304.25,-296.94 1305.55,-286.42 1298.71,-287.91"/>
</a>
</g>
</g>
<!-- Node12&#45;&gt;Node15 -->
<g id="edge27_Node000012_Node000015" class="edge">
<title>Node12&#45;&gt;Node15</title>
<g id="a_edge27_Node000012_Node000015"><a xlink:title=" ">
<path fill="none" stroke="#63b8ff" d="M1360.81,-292.72C1383.27,-282.51 1409.19,-270.73 1430.51,-261.04"/>
<polygon fill="#63b8ff" stroke="#63b8ff" points="1359.08,-289.67 1351.42,-296.99 1361.97,-296.04 1359.08,-289.67"/>
</a>
</g>
</g>
<!-- Node14 -->
<g id="Node000014" class="node">
<title>Node14</title>
<g id="a_Node000014"><a xlink:href="_listener_socket_8hpp.html" target="_top" xlink:title=" ">
<polygon fill="white" stroke="#666666" points="1344.5,-101.5 1206.5,-101.5 1206.5,-71.5 1344.5,-71.5 1344.5,-101.5"/>
<text text-anchor="start" x="1214.5" y="-89.5" font-family="Helvetica,sans-Serif" font-size="10.00">include/Hermes/Socket</text>
<text text-anchor="middle" x="1275.5" y="-78.5" font-family="Helvetica,sans-Serif" font-size="10.00">/Sync/ListenerSocket.hpp</text>
</a>
</g>
</g>
<!-- Node13&#45;&gt;Node14 -->
<g id="edge26_Node000013_Node000014" class="edge">
<title>Node13&#45;&gt;Node14</title>
<g id="a_edge26_Node000013_Node000014"><a xlink:title=" ">
<path fill="none" stroke="#63b8ff" d="M1275.5,-138.04C1275.5,-125.95 1275.5,-111.79 1275.5,-101.54"/>
<polygon fill="#63b8ff" stroke="#63b8ff" points="1272,-138.39 1275.5,-148.39 1279,-138.39 1272,-138.39"/>
</a>
</g>
</g>
<!-- Node15&#45;&gt;Node5 -->
<g id="edge28_Node000015_Node000005" class="edge">
<title>Node15&#45;&gt;Node5</title>
<g id="a_edge28_Node000015_Node000005"><a xlink:title=" ">
<path fill="none" stroke="#63b8ff" d="M1460.76,-210.55C1456.86,-201.69 1452.67,-192.15 1449.11,-184.07"/>
<polygon fill="#63b8ff" stroke="#63b8ff" points="1457.6,-212.05 1464.83,-219.79 1464.01,-209.23 1457.6,-212.05"/>
</a>
</g>
</g>
<!-- Node15&#45;&gt;Node13 -->
<g id="edge29_Node000015_Node000013" class="edge">
<title>Node15&#45;&gt;Node13</title>
<g id="a_edge29_Node000015_Node000013"><a xlink:title=" ">
<path fill="none" stroke="#63b8ff" d="M1412.54,-216.41C1379.9,-204.05 1340.76,-189.22 1312.68,-178.58"/>
<polygon fill="#63b8ff" stroke="#63b8ff" points="1411.4,-219.72 1421.99,-219.99 1413.88,-213.18 1411.4,-219.72"/>
</a>
</g>
</g>
<!-- Node16 -->
<g id="Node000016" class="node">
<title>Node16</title>
<g id="a_Node000016"><a xlink:href="_tls_accept_state_machine_8hpp.html" target="_top" xlink:title=" ">
<polygon fill="white" stroke="#666666" points="1700.5,-184 1540.5,-184 1540.5,-143 1700.5,-143 1700.5,-184"/>
<text text-anchor="start" x="1548.5" y="-172" font-family="Helvetica,sans-Serif" font-size="10.00">include/Hermes/Socket</text>
<text text-anchor="start" x="1548.5" y="-161" font-family="Helvetica,sans-Serif" font-size="10.00">/_base/Accept/TlsAcceptState</text>
<text text-anchor="middle" x="1620.5" y="-150" font-family="Helvetica,sans-Serif" font-size="10.00">Machine.hpp</text>
</a>
</g>
</g>
<!-- Node15&#45;&gt;Node16 -->
<g id="edge30_Node000015_Node000016" class="edge">
<title>Node15&#45;&gt;Node16</title>
<g id="a_edge30_Node000015_Node000016"><a xlink:title=" ">
<path fill="none" stroke="#63b8ff" d="M1520.91,-215.31C1540.73,-205.2 1563.46,-193.6 1582.2,-184.04"/>
<polygon fill="#63b8ff" stroke="#63b8ff" points="1519.06,-212.33 1511.74,-219.99 1522.24,-218.56 1519.06,-212.33"/>
</a>
</g>
</g>
<!-- Node18 -->
<g id="Node000018" class="node">
<title>Node18</title>
<g id="a_Node000018"><a xlink:href="_client_socket_8hpp.html" target="_top" xlink:title=" ">
<polygon fill="white" stroke="#666666" points="863.5,-178.5 735.5,-178.5 735.5,-148.5 863.5,-148.5 863.5,-178.5"/>
<text text-anchor="start" x="743.5" y="-166.5" font-family="Helvetica,sans-Serif" font-size="10.00">include/Hermes/Socket</text>
<text text-anchor="middle" x="799.5" y="-155.5" font-family="Helvetica,sans-Serif" font-size="10.00">/Sync/ClientSocket.hpp</text>
</a>
</g>
</g>
<!-- Node17&#45;&gt;Node18 -->
<g id="edge32_Node000017_Node000018" class="edge">
<title>Node17&#45;&gt;Node18</title>
<g id="a_edge32_Node000017_Node000018"><a xlink:title=" ">
<path fill="none" stroke="#63b8ff" d="M616.8,-289.29C600.11,-268.9 584.54,-241.02 600.5,-220 616.93,-198.36 683.61,-182.9 735.31,-173.88"/>
<polygon fill="#63b8ff" stroke="#63b8ff" points="614.26,-291.69 623.44,-296.97 619.56,-287.12 614.26,-291.69"/>
</a>
</g>
</g>
<!-- Node17&#45;&gt;Node19 -->
<g id="edge33_Node000017_Node000019" class="edge">
<title>Node17&#45;&gt;Node19</title>
<g id="a_edge33_Node000017_Node000019"><a xlink:title=" ">
<path fill="none" stroke="#63b8ff" d="M655.85,-287.55C659.63,-278.69 663.7,-269.15 667.15,-261.07"/>
<polygon fill="#63b8ff" stroke="#63b8ff" points="652.61,-286.22 651.91,-296.79 659.05,-288.97 652.61,-286.22"/>
</a>
</g>
</g>
<!-- Node19&#45;&gt;Node6 -->
<g id="edge34_Node000019_Node000006" class="edge">
<title>Node19&#45;&gt;Node6</title>
<g id="a_edge34_Node000019_Node000006"><a xlink:title=" ">
<path fill="none" stroke="#63b8ff" d="M632.24,-214.92C614.68,-204.95 594.69,-193.58 578.12,-184.17"/>
<polygon fill="#63b8ff" stroke="#63b8ff" points="630.74,-218.09 641.16,-219.99 634.2,-212.01 630.74,-218.09"/>
</a>
</g>
</g>
<!-- Node19&#45;&gt;Node8 -->
<g id="edge35_Node000019_Node000008" class="edge">
<title>Node19&#45;&gt;Node8</title>
<g id="a_edge35_Node000019_Node000008"><a xlink:title=" ">
<path fill="none" stroke="#63b8ff" d="M675.5,-209.58C675.5,-179.36 675.5,-133.53 675.5,-107.47"/>
<polygon fill="#63b8ff" stroke="#63b8ff" points="672,-209.94 675.5,-219.94 679,-209.94 672,-209.94"/>
</a>
</g>
</g>
<!-- Node19&#45;&gt;Node18 -->
<g id="edge36_Node000019_Node000018" class="edge">
<title>Node19&#45;&gt;Node18</title>
<g id="a_edge36_Node000019_Node000018"><a xlink:title=" ">
<path fill="none" stroke="#63b8ff" d="M716.57,-214.66C736.32,-202.71 759.28,-188.83 776.02,-178.7"/>
<polygon fill="#63b8ff" stroke="#63b8ff" points="714.5,-211.82 707.76,-219.99 718.12,-217.81 714.5,-211.82"/>
</a>
</g>
</g>
<!-- Node20 -->
<g id="Node000020" class="node">
<title>Node20</title>
<g id="a_Node000020"><a xlink:href="_tls_connect_state_machine_8hpp.html" target="_top" xlink:title=" ">
<polygon fill="white" stroke="#666666" points="1192,-184 1029,-184 1029,-143 1192,-143 1192,-184"/>
<text text-anchor="start" x="1037" y="-172" font-family="Helvetica,sans-Serif" font-size="10.00">include/Hermes/Socket</text>
<text text-anchor="start" x="1037" y="-161" font-family="Helvetica,sans-Serif" font-size="10.00">/_base/Connection/TlsConnect</text>
<text text-anchor="middle" x="1110.5" y="-150" font-family="Helvetica,sans-Serif" font-size="10.00">StateMachine.hpp</text>
</a>
</g>
</g>
<!-- Node19&#45;&gt;Node20 -->
<g id="edge37_Node000019_Node000020" class="edge">
<title>Node19&#45;&gt;Node20</title>
<g id="a_edge37_Node000019_Node000020"><a xlink:title=" ">
<path fill="none" stroke="#63b8ff" d="M751.72,-219.85C852.48,-199.37 958.06,-184.06 1028.94,-174.67"/>
<polygon fill="#63b8ff" stroke="#63b8ff" points="750.76,-216.47 741.67,-221.91 752.17,-223.33 750.76,-216.47"/>
</a>
</g>
</g>
<!-- Node21&#45;&gt;Node13 -->
<g id="edge40_Node000021_Node000013" class="edge">
<title>Node21&#45;&gt;Node13</title>
<g id="a_edge40_Node000021_Node000013"><a xlink:title=" ">
<path fill="none" stroke="#63b8ff" d="M913.5,-219.74C1040.63,-197.21 1076.6,-207.72 1200.5,-184 1208.56,-182.46 1217.04,-180.54 1225.28,-178.52"/>
<polygon fill="#63b8ff" stroke="#63b8ff" points="912.59,-216.34 903.37,-221.57 913.84,-223.23 912.59,-216.34"/>
</a>
</g>
</g>
<!-- Node21&#45;&gt;Node18 -->
<g id="edge39_Node000021_Node000018" class="edge">
<title>Node21&#45;&gt;Node18</title>
<g id="a_edge39_Node000021_Node000018"><a xlink:title=" ">
<path fill="none" stroke="#63b8ff" d="M819.03,-210.27C814.43,-199.49 809.42,-187.75 805.63,-178.86"/>
<polygon fill="#63b8ff" stroke="#63b8ff" points="815.95,-211.97 823.09,-219.79 822.39,-209.22 815.95,-211.97"/>
</a>
</g>
</g>
<!-- Node22&#45;&gt;Node5 -->
<g id="edge42_Node000022_Node000005" class="edge">
<title>Node22&#45;&gt;Node5</title>
<g id="a_edge42_Node000022_Node000005"><a xlink:title=" ">
<path fill="none" stroke="#63b8ff" d="M1157.24,-299.74C1191.27,-290.05 1233.33,-276.67 1269.5,-261 1320.95,-238.71 1376.89,-205.22 1410.3,-184.13"/>
<polygon fill="#63b8ff" stroke="#63b8ff" points="1156.09,-296.42 1147.41,-302.5 1157.98,-303.16 1156.09,-296.42"/>
</a>
</g>
</g>
<!-- Node22&#45;&gt;Node8 -->
<g id="edge43_Node000022_Node000008" class="edge">
<title>Node22&#45;&gt;Node8</title>
<g id="a_edge43_Node000022_Node000008"><a xlink:title=" ">
<path fill="none" stroke="#63b8ff" d="M1097.23,-292.25C1099.92,-271.03 1100.15,-240.47 1084.5,-220 1063.76,-192.87 863.67,-136.82 751.25,-107.06"/>
<polygon fill="#63b8ff" stroke="#63b8ff" points="1093.73,-291.97 1095.66,-302.39 1100.65,-293.04 1093.73,-291.97"/>
</a>
</g>
</g>
<!-- Node22&#45;&gt;Node10 -->
<g id="edge44_Node000022_Node000010" class="edge">
<title>Node22&#45;&gt;Node10</title>
<g id="a_edge44_Node000022_Node000010"><a xlink:title=" ">
<path fill="none" stroke="#63b8ff" d="M1013.52,-307.93C879.38,-293.37 608.81,-264 477.05,-249.7"/>
<polygon fill="#63b8ff" stroke="#63b8ff" points="1013.4,-311.43 1023.72,-309.03 1014.15,-304.48 1013.4,-311.43"/>
</a>
</g>
</g>
<!-- Node22&#45;&gt;Node15 -->
<g id="edge45_Node000022_Node000015" class="edge">
<title>Node22&#45;&gt;Node15</title>
<g id="a_edge45_Node000022_Node000015"><a xlink:title=" ">
<path fill="none" stroke="#63b8ff" d="M1171.12,-301.48C1228.6,-290.44 1308.43,-274.99 1378.5,-261 1383.21,-260.06 1388.04,-259.09 1392.92,-258.1"/>
<polygon fill="#63b8ff" stroke="#63b8ff" points="1170.18,-298.1 1161.02,-303.42 1171.5,-304.97 1170.18,-298.1"/>
</a>
</g>
</g>
<!-- Node22&#45;&gt;Node19 -->
<g id="edge46_Node000022_Node000019" class="edge">
<title>Node22&#45;&gt;Node19</title>
<g id="a_edge46_Node000022_Node000019"><a xlink:title=" ">
<path fill="none" stroke="#63b8ff" d="M1013.69,-305.85C944.12,-295.93 840.12,-279.88 750.5,-261 747.6,-260.39 744.65,-259.74 741.67,-259.06"/>
<polygon fill="#63b8ff" stroke="#63b8ff" points="1013.3,-309.33 1023.69,-307.26 1014.28,-302.4 1013.3,-309.33"/>
</a>
</g>
</g>
<!-- Node22&#45;&gt;Node23 -->
<g id="edge47_Node000022_Node000023" class="edge">
<title>Node22&#45;&gt;Node23</title>
<g id="a_edge47_Node000022_Node000023"><a xlink:title=" ">
<path fill="none" stroke="#63b8ff" d="M1120.5,-296.31C1135.61,-285.41 1154.18,-272.02 1169.18,-261.2"/>
<polygon fill="#63b8ff" stroke="#63b8ff" points="1118.13,-293.71 1112.06,-302.39 1122.22,-299.38 1118.13,-293.71"/>
</a>
</g>
</g>
<!-- Node23&#45;&gt;Node13 -->
<g id="edge49_Node000023_Node000013" class="edge">
<title>Node23&#45;&gt;Node13</title>
<g id="a_edge49_Node000023_Node000013"><a xlink:title=" ">
<path fill="none" stroke="#63b8ff" d="M1224.53,-212.89C1236.6,-201.43 1250.24,-188.48 1260.37,-178.86"/>
<polygon fill="#63b8ff" stroke="#63b8ff" points="1222.1,-210.37 1217.26,-219.79 1226.92,-215.45 1222.1,-210.37"/>
</a>
</g>
</g>
<!-- Node23&#45;&gt;Node18 -->
<g id="edge48_Node000023_Node000018" class="edge">
<title>Node23&#45;&gt;Node18</title>
<g id="a_edge48_Node000023_Node000018"><a xlink:title=" ">
<path fill="none" stroke="#63b8ff" d="M1122.03,-225.43C1047.56,-211.36 934.23,-189.95 863.63,-176.62"/>
<polygon fill="#63b8ff" stroke="#63b8ff" points="1121.8,-228.95 1132.27,-227.37 1123.1,-222.07 1121.8,-228.95"/>
</a>
</g>
</g>
<!-- Node24&#45;&gt;Node16 -->
<g id="edge57_Node000024_Node000016" class="edge">
<title>Node24&#45;&gt;Node16</title>
<g id="a_edge57_Node000024_Node000016"><a xlink:title=" ">
<path fill="none" stroke="#63b8ff" d="M1618.76,-363.73C1619.17,-316.23 1619.98,-224.57 1620.33,-184.3"/>
<polygon fill="#63b8ff" stroke="#63b8ff" points="1615.26,-363.95 1618.67,-373.98 1622.26,-364.01 1615.26,-363.95"/>
</a>
</g>
</g>
<!-- Node25&#45;&gt;Node20 -->
<g id="edge59_Node000025_Node000020" class="edge">
<title>Node25&#45;&gt;Node20</title>
<g id="a_edge59_Node000025_Node000020"><a xlink:title=" ">
<path fill="none" stroke="#63b8ff" d="M1387.84,-366.91C1396.19,-358.66 1403.98,-348.85 1408.5,-338 1415.51,-321.18 1417.75,-312.7 1408.5,-297 1383.67,-254.87 1256.66,-209.26 1176.67,-184.06"/>
<polygon fill="#63b8ff" stroke="#63b8ff" points="1385.4,-364.4 1380.42,-373.75 1390.14,-369.55 1385.4,-364.4"/>
</a>
</g>
</g>
<!-- Node26&#45;&gt;Node27 -->
<g id="edge61_Node000026_Node000027" class="edge">
<title>Node26&#45;&gt;Node27</title>
<g id="a_edge61_Node000026_Node000027"><a xlink:title=" ">
<path fill="none" stroke="#63b8ff" d="M1860.63,-363.98C1858.31,-355.28 1855.83,-345.98 1853.72,-338.07"/>
<polygon fill="#63b8ff" stroke="#63b8ff" points="1857.29,-365.03 1863.25,-373.79 1864.05,-363.23 1857.29,-365.03"/>
</a>
</g>
</g>
</g>
</svg>
