<?xml version="1.0" encoding="UTF-8" standalone="no"?>
<!DOCTYPE svg PUBLIC "-//W3C//DTD SVG 1.1//EN"
 "http://www.w3.org/Graphics/SVG/1.1/DTD/svg11.dtd">
<!-- Generated by graphviz version 2.43.0 (0)
 -->
<!-- Title: include/Hermes/Socket/_base.hpp Pages: 1 -->
<svg width="4170pt" height="302pt"
 viewBox="0.00 0.00 4170.00 302.00" xmlns="http://www.w3.org/2000/svg" xmlns:xlink="http://www.w3.org/1999/xlink">
<g id="graph0" class="graph" transform="scale(1 1) rotate(0) translate(4 298)">
<title>include/Hermes/Socket/_base.hpp</title>
<!-- Node1 -->
<g id="Node000001" class="node">
<title>Node1</title>
<g id="a_Node000001"><a xlink:title=" ">
<polygon fill="#999999" stroke="#666666" points="684,-294 556,-294 556,-264 684,-264 684,-294"/>
<text text-anchor="start" x="564" y="-282" font-family="Helvetica,sans-Serif" font-size="10.00">include/Hermes/Socket</text>
<text text-anchor="middle" x="620" y="-271" font-family="Helvetica,sans-Serif" font-size="10.00">/_base.hpp</text>
</a>
</g>
</g>
<!-- Node2 -->
<g id="Node000002" class="node">
<title>Node2</title>
<g id="a_Node000002"><a xlink:href="_endpoint_concept_8hpp.html" target="_top" xlink:title=" ">
<polygon fill="white" stroke="#666666" points="592,-228 460,-228 460,-198 592,-198 592,-228"/>
<text text-anchor="start" x="468" y="-216" font-family="Helvetica,sans-Serif" font-size="10.00">Hermes/Endpoint/_base</text>
<text text-anchor="middle" x="526" y="-205" font-family="Helvetica,sans-Serif" font-size="10.00">/EndpointConcept.hpp</text>
</a>
</g>
</g>
<!-- Node1&#45;&gt;Node2 -->
<g id="edge1_Node000001_Node000002" class="edge">
<title>Node1&#45;&gt;Node2</title>
<g id="a_edge1_Node000001_Node000002"><a xlink:title=" ">
<path fill="none" stroke="#63b8ff" d="M599.14,-263.8C586.24,-255.01 569.49,-243.61 555.27,-233.93"/>
<polygon fill="#63b8ff" stroke="#63b8ff" points="557.04,-230.9 546.8,-228.16 553.1,-236.69 557.04,-230.9"/>
</a>
</g>
</g>
<!-- Node3 -->
<g id="Node000003" class="node">
<title>Node3</title>
<g id="a_Node000003"><a xlink:href="_connection_error_enum_8hpp.html" target="_top" xlink:title=" ">
<polygon fill="white" stroke="#666666" points="442.5,-162 275.5,-162 275.5,-132 442.5,-132 442.5,-162"/>
<text text-anchor="start" x="283.5" y="-150" font-family="Helvetica,sans-Serif" font-size="10.00">Hermes/_base/ConnectionError</text>
<text text-anchor="middle" x="359" y="-139" font-family="Helvetica,sans-Serif" font-size="10.00">Enum.hpp</text>
</a>
</g>
</g>
<!-- Node1&#45;&gt;Node3 -->
<g id="edge53_Node000001_Node000003" class="edge">
<title>Node1&#45;&gt;Node3</title>
<g id="a_edge53_Node000001_Node000003"><a xlink:title=" ">
<path fill="none" stroke="#63b8ff" d="M555.66,-265.81C522.99,-257.95 483.46,-245.8 451,-228 423.16,-212.73 396.35,-187.88 378.93,-169.93"/>
<polygon fill="#63b8ff" stroke="#63b8ff" points="381.04,-167.06 371.62,-162.22 375.96,-171.88 381.04,-167.06"/>
</a>
</g>
</g>
<!-- Node8 -->
<g id="Node000008" class="node">
<title>Node8</title>
<g id="a_Node000008"><a xlink:title=" ">
<polygon fill="#e0e0e0" stroke="#999999" points="754.5,-85 629.5,-85 629.5,-66 754.5,-66 754.5,-85"/>
<text text-anchor="middle" x="692" y="-73" font-family="Helvetica,sans-Serif" font-size="10.00">stdexec/execution.hpp</text>
</a>
</g>
</g>
<!-- Node1&#45;&gt;Node8 -->
<g id="edge54_Node000001_Node000008" class="edge">
<title>Node1&#45;&gt;Node8</title>
<g id="a_edge54_Node000001_Node000008"><a xlink:title=" ">
<path fill="none" stroke="#63b8ff" d="M622.55,-263.91C625.66,-247.77 631.45,-220.61 639,-198 651.7,-159.97 671.66,-117.43 683.12,-94.13"/>
<polygon fill="#63b8ff" stroke="#63b8ff" points="686.27,-95.64 687.59,-85.13 680.01,-92.53 686.27,-95.64"/>
</a>
</g>
</g>
<!-- Node39 -->
<g id="Node000039" class="node">
<title>Node39</title>
<g id="a_Node000039"><a xlink:title=" ">
<polygon fill="#e0e0e0" stroke="#999999" points="708,-222.5 648,-222.5 648,-203.5 708,-203.5 708,-222.5"/>
<text text-anchor="middle" x="678" y="-210.5" font-family="Helvetica,sans-Serif" font-size="10.00">concepts</text>
</a>
</g>
</g>
<!-- Node1&#45;&gt;Node39 -->
<g id="edge55_Node000001_Node000039" class="edge">
<title>Node1&#45;&gt;Node39</title>
<g id="a_edge55_Node000001_Node000039"><a xlink:title=" ">
<path fill="none" stroke="#63b8ff" d="M632.87,-263.8C641.83,-253.92 653.79,-240.72 663.14,-230.39"/>
<polygon fill="#63b8ff" stroke="#63b8ff" points="665.86,-232.6 669.98,-222.84 660.68,-227.9 665.86,-232.6"/>
</a>
</g>
</g>
<!-- Node40 -->
<g id="Node000040" class="node">
<title>Node40</title>
<g id="a_Node000040"><a xlink:title=" ">
<polygon fill="#e0e0e0" stroke="#999999" points="776,-222.5 726,-222.5 726,-203.5 776,-203.5 776,-222.5"/>
<text text-anchor="middle" x="751" y="-210.5" font-family="Helvetica,sans-Serif" font-size="10.00">ranges</text>
</a>
</g>
</g>
<!-- Node1&#45;&gt;Node40 -->
<g id="edge56_Node000001_Node000040" class="edge">
<title>Node1&#45;&gt;Node40</title>
<g id="a_edge56_Node000001_Node000040"><a xlink:title=" ">
<path fill="none" stroke="#63b8ff" d="M648.75,-263.95C671.32,-252.93 702.49,-237.7 724.47,-226.96"/>
<polygon fill="#63b8ff" stroke="#63b8ff" points="726.12,-230.05 733.57,-222.52 723.04,-223.76 726.12,-230.05"/>
</a>
</g>
</g>
<!-- Node2&#45;&gt;Node3 -->
<g id="edge2_Node000002_Node000003" class="edge">
<title>Node2&#45;&gt;Node3</title>
<g id="a_edge2_Node000002_Node000003"><a xlink:title=" ">
<path fill="none" stroke="#63b8ff" d="M489.35,-197.95C464.55,-188.45 431.6,-175.82 405.04,-165.64"/>
<polygon fill="#63b8ff" stroke="#63b8ff" points="406.15,-162.32 395.56,-162.01 403.65,-168.86 406.15,-162.32"/>
</a>
</g>
</g>
<!-- Node11 -->
<g id="Node000011" class="node">
<title>Node11</title>
<g id="a_Node000011"><a xlink:href="_win_api_8hpp.html" target="_top" xlink:title=" ">
<polygon fill="white" stroke="#666666" points="2175,-162 2051,-162 2051,-132 2175,-132 2175,-162"/>
<text text-anchor="start" x="2059" y="-150" font-family="Helvetica,sans-Serif" font-size="10.00">Hermes/_base/WinApi</text>
<text text-anchor="middle" x="2113" y="-139" font-family="Helvetica,sans-Serif" font-size="10.00">/WinApi.hpp</text>
</a>
</g>
</g>
<!-- Node2&#45;&gt;Node11 -->
<g id="edge10_Node000002_Node000011" class="edge">
<title>Node2&#45;&gt;Node11</title>
<g id="a_edge10_Node000002_Node000011"><a xlink:title=" ">
<path fill="none" stroke="#63b8ff" d="M592.22,-202.79C607.56,-200.94 623.83,-199.19 639,-198 1176.14,-155.7 1826.16,-149.16 2040.57,-148.17"/>
<polygon fill="#63b8ff" stroke="#63b8ff" points="2040.76,-151.67 2050.75,-148.12 2040.73,-144.67 2040.76,-151.67"/>
</a>
</g>
</g>
<!-- Node4 -->
<g id="Node000004" class="node">
<title>Node4</title>
<g id="a_Node000004"><a xlink:title=" ">
<polygon fill="#e0e0e0" stroke="#999999" points="62,-85 0,-85 0,-66 62,-66 62,-85"/>
<text text-anchor="middle" x="31" y="-73" font-family="Helvetica,sans-Serif" font-size="10.00">expected</text>
</a>
</g>
</g>
<!-- Node3&#45;&gt;Node4 -->
<g id="edge3_Node000003_Node000004" class="edge">
<title>Node3&#45;&gt;Node4</title>
<g id="a_edge3_Node000003_Node000004"><a xlink:title=" ">
<path fill="none" stroke="#63b8ff" d="M275.26,-137.78C216.97,-130.53 138,-117.66 71,-96 65.8,-94.32 60.43,-92.08 55.37,-89.72"/>
<polygon fill="#63b8ff" stroke="#63b8ff" points="56.67,-86.46 46.15,-85.14 53.55,-92.73 56.67,-86.46"/>
</a>
</g>
</g>
<!-- Node5 -->
<g id="Node000005" class="node">
<title>Node5</title>
<g id="a_Node000005"><a xlink:title=" ">
<polygon fill="#e0e0e0" stroke="#999999" points="127.5,-85 80.5,-85 80.5,-66 127.5,-66 127.5,-85"/>
<text text-anchor="middle" x="104" y="-73" font-family="Helvetica,sans-Serif" font-size="10.00">vector</text>
</a>
</g>
</g>
<!-- Node3&#45;&gt;Node5 -->
<g id="edge4_Node000003_Node000005" class="edge">
<title>Node3&#45;&gt;Node5</title>
<g id="a_edge4_Node000003_Node000005"><a xlink:title=" ">
<path fill="none" stroke="#63b8ff" d="M275.45,-133.56C233.03,-125.66 181.25,-113.55 137,-96 133.08,-94.44 129.07,-92.46 125.26,-90.36"/>
<polygon fill="#63b8ff" stroke="#63b8ff" points="126.76,-87.17 116.38,-85.06 123.18,-93.19 126.76,-87.17"/>
</a>
</g>
</g>
<!-- Node6 -->
<g id="Node000006" class="node">
<title>Node6</title>
<g id="a_Node000006"><a xlink:title=" ">
<polygon fill="#e0e0e0" stroke="#999999" points="186,-85 146,-85 146,-66 186,-66 186,-85"/>
<text text-anchor="middle" x="166" y="-73" font-family="Helvetica,sans-Serif" font-size="10.00">span</text>
</a>
</g>
</g>
<!-- Node3&#45;&gt;Node6 -->
<g id="edge5_Node000003_Node000006" class="edge">
<title>Node3&#45;&gt;Node6</title>
<g id="a_edge5_Node000003_Node000006"><a xlink:title=" ">
<path fill="none" stroke="#63b8ff" d="M297.81,-131.96C266.26,-123.59 227.66,-111.53 195,-96 191.88,-94.51 188.71,-92.72 185.67,-90.84"/>
<polygon fill="#63b8ff" stroke="#63b8ff" points="187.36,-87.76 177.1,-85.1 183.46,-93.58 187.36,-87.76"/>
</a>
</g>
</g>
<!-- Node7 -->
<g id="Node000007" class="node">
<title>Node7</title>
<g id="a_Node000007"><a xlink:title=" ">
<polygon fill="#e0e0e0" stroke="#999999" points="273.5,-85 204.5,-85 204.5,-66 273.5,-66 273.5,-85"/>
<text text-anchor="middle" x="239" y="-73" font-family="Helvetica,sans-Serif" font-size="10.00">type_traits</text>
</a>
</g>
</g>
<!-- Node3&#45;&gt;Node7 -->
<g id="edge6_Node000003_Node000007" class="edge">
<title>Node3&#45;&gt;Node7</title>
<g id="a_edge6_Node000003_Node000007"><a xlink:title=" ">
<path fill="none" stroke="#63b8ff" d="M334.72,-131.94C313.69,-119.76 283.47,-102.26 262.64,-90.19"/>
<polygon fill="#63b8ff" stroke="#63b8ff" points="264.2,-87.05 253.79,-85.07 260.69,-93.11 264.2,-87.05"/>
</a>
</g>
</g>
<!-- Node3&#45;&gt;Node8 -->
<g id="edge7_Node000003_Node000008" class="edge">
<title>Node3&#45;&gt;Node8</title>
<g id="a_edge7_Node000003_Node000008"><a xlink:title=" ">
<path fill="none" stroke="#63b8ff" d="M440.74,-131.97C492.36,-122.71 560.32,-109.78 620,-96 630.61,-93.55 642.03,-90.6 652.57,-87.75"/>
<polygon fill="#63b8ff" stroke="#63b8ff" points="653.63,-91.09 662.35,-85.07 651.78,-84.34 653.63,-91.09"/>
</a>
</g>
</g>
<!-- Node9 -->
<g id="Node000009" class="node">
<title>Node9</title>
<g id="a_Node000009"><a xlink:title=" ">
<polygon fill="#e0e0e0" stroke="#999999" points="426,-85 292,-85 292,-66 426,-66 426,-85"/>
<text text-anchor="middle" x="359" y="-73" font-family="Helvetica,sans-Serif" font-size="10.00">exec/any_sender_of.hpp</text>
</a>
</g>
</g>
<!-- Node3&#45;&gt;Node9 -->
<g id="edge8_Node000003_Node000009" class="edge">
<title>Node3&#45;&gt;Node9</title>
<g id="a_edge8_Node000003_Node000009"><a xlink:title=" ">
<path fill="none" stroke="#63b8ff" d="M359,-131.94C359,-121.46 359,-107.05 359,-95.55"/>
<polygon fill="#63b8ff" stroke="#63b8ff" points="362.5,-95.27 359,-85.27 355.5,-95.27 362.5,-95.27"/>
</a>
</g>
</g>
<!-- Node10 -->
<g id="Node000010" class="node">
<title>Node10</title>
<g id="a_Node000010"><a xlink:title=" ">
<polygon fill="#e0e0e0" stroke="#999999" points="611.5,-90.5 444.5,-90.5 444.5,-60.5 611.5,-60.5 611.5,-90.5"/>
<text text-anchor="start" x="452.5" y="-78.5" font-family="Helvetica,sans-Serif" font-size="10.00">Hermes/_base/ConnectionError</text>
<text text-anchor="middle" x="528" y="-67.5" font-family="Helvetica,sans-Serif" font-size="10.00">Enum.tpp</text>
</a>
</g>
</g>
<!-- Node3&#45;&gt;Node10 -->
<g id="edge9_Node000003_Node000010" class="edge">
<title>Node3&#45;&gt;Node10</title>
<g id="a_edge9_Node000003_Node000010"><a xlink:title=" ">
<path fill="none" stroke="#63b8ff" d="M393.2,-131.94C419.54,-121.1 456.14,-106.05 484.56,-94.37"/>
<polygon fill="#63b8ff" stroke="#63b8ff" points="485.93,-97.58 493.85,-90.54 483.27,-91.11 485.93,-97.58"/>
</a>
</g>
</g>
<!-- Node12 -->
<g id="Node000012" class="node">
<title>Node12</title>
<g id="a_Node000012"><a xlink:title=" ">
<polygon fill="#e0e0e0" stroke="#999999" points="841.5,-85 772.5,-85 772.5,-66 841.5,-66 841.5,-85"/>
<text text-anchor="middle" x="807" y="-73" font-family="Helvetica,sans-Serif" font-size="10.00">ws2tcpip.h</text>
</a>
</g>
</g>
<!-- Node11&#45;&gt;Node12 -->
<g id="edge11_Node000011_Node000012" class="edge">
<title>Node11&#45;&gt;Node12</title>
<g id="a_edge11_Node000011_Node000012"><a xlink:title=" ">
<path fill="none" stroke="#63b8ff" d="M2050.89,-146.3C1830.66,-146.93 1087.93,-145.25 856,-96 848.49,-94.4 840.64,-91.76 833.48,-88.93"/>
<polygon fill="#63b8ff" stroke="#63b8ff" points="834.81,-85.69 824.24,-85.03 832.09,-92.14 834.81,-85.69"/>
</a>
</g>
</g>
<!-- Node13 -->
<g id="Node000013" class="node">
<title>Node13</title>
<g id="a_Node000013"><a xlink:title=" ">
<polygon fill="#e0e0e0" stroke="#999999" points="1024.5,-19 953.5,-19 953.5,0 1024.5,0 1024.5,-19"/>
<text text-anchor="middle" x="989" y="-7" font-family="Helvetica,sans-Serif" font-size="10.00">winsock2.h</text>
</a>
</g>
</g>
<!-- Node11&#45;&gt;Node13 -->
<g id="edge12_Node000011_Node000013" class="edge">
<title>Node11&#45;&gt;Node13</title>
<g id="a_edge12_Node000011_Node000013"><a xlink:title=" ">
<path fill="none" stroke="#63b8ff" d="M2050.89,-145.76C1810.65,-144.56 953.66,-137.35 914,-96 901.39,-82.85 904.98,-70.83 914,-55 922.3,-40.43 937.45,-30.14 951.98,-23.15"/>
<polygon fill="#63b8ff" stroke="#63b8ff" points="953.61,-26.25 961.35,-19.02 950.79,-19.85 953.61,-26.25"/>
</a>
</g>
</g>
<!-- Node14 -->
<g id="Node000014" class="node">
<title>Node14</title>
<g id="a_Node000014"><a xlink:title=" ">
<polygon fill="#e0e0e0" stroke="#999999" points="2809,-85 2759,-85 2759,-66 2809,-66 2809,-85"/>
<text text-anchor="middle" x="2784" y="-73" font-family="Helvetica,sans-Serif" font-size="10.00">ntdef.h</text>
</a>
</g>
</g>
<!-- Node11&#45;&gt;Node14 -->
<g id="edge13_Node000011_Node000014" class="edge">
<title>Node11&#45;&gt;Node14</title>
<g id="a_edge13_Node000011_Node000014"><a xlink:title=" ">
<path fill="none" stroke="#63b8ff" d="M2175.11,-144.59C2313.6,-140.88 2643.81,-128.79 2750,-96 2754.51,-94.61 2759.07,-92.54 2763.33,-90.26"/>
<polygon fill="#63b8ff" stroke="#63b8ff" points="2765.19,-93.23 2772.01,-85.12 2761.63,-87.2 2765.19,-93.23"/>
</a>
</g>
</g>
<!-- Node15 -->
<g id="Node000015" class="node">
<title>Node15</title>
<g id="a_Node000015"><a xlink:title=" ">
<polygon fill="#e0e0e0" stroke="#999999" points="1230.5,-19 1161.5,-19 1161.5,0 1230.5,0 1230.5,-19"/>
<text text-anchor="middle" x="1196" y="-7" font-family="Helvetica,sans-Serif" font-size="10.00">schannel.h</text>
</a>
</g>
</g>
<!-- Node11&#45;&gt;Node15 -->
<g id="edge14_Node000011_Node000015" class="edge">
<title>Node11&#45;&gt;Node15</title>
<g id="a_edge14_Node000011_Node000015"><a xlink:title=" ">
<path fill="none" stroke="#63b8ff" d="M2050.75,-145.73C1812,-144.41 966.18,-136.86 927,-96 914.39,-82.85 915.21,-68.9 927,-55 955.21,-21.74 1082.21,-13.3 1151.14,-11.19"/>
<polygon fill="#63b8ff" stroke="#63b8ff" points="1151.38,-14.68 1161.28,-10.91 1151.19,-7.69 1151.38,-14.68"/>
</a>
</g>
</g>
<!-- Node16 -->
<g id="Node000016" class="node">
<title>Node16</title>
<g id="a_Node000016"><a xlink:title=" ">
<polygon fill="#e0e0e0" stroke="#999999" points="2047.5,-19 2002.5,-19 2002.5,0 2047.5,0 2047.5,-19"/>
<text text-anchor="middle" x="2025" y="-7" font-family="Helvetica,sans-Serif" font-size="10.00">sspi.h</text>
</a>
</g>
</g>
<!-- Node11&#45;&gt;Node16 -->
<g id="edge15_Node000011_Node000016" class="edge">
<title>Node11&#45;&gt;Node16</title>
<g id="a_edge15_Node000011_Node000016"><a xlink:title=" ">
<path fill="none" stroke="#63b8ff" d="M2050.62,-143.6C1933.11,-138.44 1688.39,-124.37 1663,-96 1650.85,-82.42 1650.93,-68.65 1663,-55 1684.68,-30.5 1907.27,-16.55 1992.26,-12.09"/>
<polygon fill="#63b8ff" stroke="#63b8ff" points="1992.58,-15.58 2002.38,-11.57 1992.22,-8.59 1992.58,-15.58"/>
</a>
</g>
</g>
<!-- Node17 -->
<g id="Node000017" class="node">
<title>Node17</title>
<g id="a_Node000017"><a xlink:href="_conversion_and_literals_8hpp.html" target="_top" xlink:title=" ">
<polygon fill="white" stroke="#666666" points="2977,-90.5 2827,-90.5 2827,-60.5 2977,-60.5 2977,-90.5"/>
<text text-anchor="start" x="2835" y="-78.5" font-family="Helvetica,sans-Serif" font-size="10.00">Hermes/_base/WinApi</text>
<text text-anchor="middle" x="2902" y="-67.5" font-family="Helvetica,sans-Serif" font-size="10.00">/ConversionAndLiterals.hpp</text>
</a>
</g>
</g>
<!-- Node11&#45;&gt;Node17 -->
<g id="edge16_Node000011_Node000017" class="edge">
<title>Node11&#45;&gt;Node17</title>
<g id="a_edge16_Node000011_Node000017"><a xlink:title=" ">
<path fill="none" stroke="#63b8ff" d="M2175.13,-144.87C2298.38,-141.91 2582.31,-131.49 2818,-96 2824.22,-95.06 2830.66,-93.91 2837.08,-92.63"/>
<polygon fill="#63b8ff" stroke="#63b8ff" points="2838.04,-96.01 2847.11,-90.55 2836.61,-89.16 2838.04,-96.01"/>
</a>
</g>
</g>
<!-- Node19 -->
<g id="Node000019" class="node">
<title>Node19</title>
<g id="a_Node000019"><a xlink:href="_macros_8hpp.html" target="_top" xlink:title=" ">
<polygon fill="white" stroke="#666666" points="1616,-90.5 1492,-90.5 1492,-60.5 1616,-60.5 1616,-90.5"/>
<text text-anchor="start" x="1500" y="-78.5" font-family="Helvetica,sans-Serif" font-size="10.00">Hermes/_base/WinApi</text>
<text text-anchor="middle" x="1554" y="-67.5" font-family="Helvetica,sans-Serif" font-size="10.00">/Macros.hpp</text>
</a>
</g>
</g>
<!-- Node11&#45;&gt;Node19 -->
<g id="edge18_Node000011_Node000019" class="edge">
<title>Node11&#45;&gt;Node19</title>
<g id="a_edge18_Node000011_Node000019"><a xlink:title=" ">
<path fill="none" stroke="#63b8ff" d="M2050.83,-142.52C1958.47,-136.67 1779.78,-122.82 1630,-96 1624.93,-95.09 1619.71,-94.03 1614.48,-92.87"/>
<polygon fill="#63b8ff" stroke="#63b8ff" points="1614.99,-89.4 1604.46,-90.56 1613.42,-96.22 1614.99,-89.4"/>
</a>
</g>
</g>
<!-- Node21 -->
<g id="Node000021" class="node">
<title>Node21</title>
<g id="a_Node000021"><a xlink:href="_address_family_enum_8hpp.html" target="_top" xlink:title=" ">
<polygon fill="white" stroke="#666666" points="3171,-90.5 2995,-90.5 2995,-60.5 3171,-60.5 3171,-90.5"/>
<text text-anchor="start" x="3003" y="-78.5" font-family="Helvetica,sans-Serif" font-size="10.00">Hermes/_base/WinApi</text>
<text text-anchor="middle" x="3083" y="-67.5" font-family="Helvetica,sans-Serif" font-size="10.00">/Enums/AddressFamilyEnum.hpp</text>
</a>
</g>
</g>
<!-- Node11&#45;&gt;Node21 -->
<g id="edge23_Node000011_Node000021" class="edge">
<title>Node11&#45;&gt;Node21</title>
<g id="a_edge23_Node000011_Node000021"><a xlink:title=" ">
<path fill="none" stroke="#63b8ff" d="M2175.2,-145.45C2318.69,-143.51 2683.73,-134.84 2986,-96 2993.73,-95.01 3001.76,-93.75 3009.75,-92.36"/>
<polygon fill="#63b8ff" stroke="#63b8ff" points="3010.6,-95.77 3019.82,-90.54 3009.35,-88.88 3010.6,-95.77"/>
</a>
</g>
</g>
<!-- Node23 -->
<g id="Node000023" class="node">
<title>Node23</title>
<g id="a_Node000023"><a xlink:href="_condition_function_enum_8hpp.html" target="_top" xlink:title=" ">
<polygon fill="white" stroke="#666666" points="3591,-90.5 3399,-90.5 3399,-60.5 3591,-60.5 3591,-90.5"/>
<text text-anchor="start" x="3407" y="-78.5" font-family="Helvetica,sans-Serif" font-size="10.00">Hermes/_base/WinApi</text>
<text text-anchor="middle" x="3495" y="-67.5" font-family="Helvetica,sans-Serif" font-size="10.00">/Enums/ConditionFunctionEnum.hpp</text>
</a>
</g>
</g>
<!-- Node11&#45;&gt;Node23 -->
<g id="edge25_Node000011_Node000023" class="edge">
<title>Node11&#45;&gt;Node23</title>
<g id="a_edge25_Node000011_Node000023"><a xlink:title=" ">
<path fill="none" stroke="#63b8ff" d="M2175.02,-144.74C2396.73,-140.07 3149.51,-122.58 3389,-96 3398.01,-95 3407.41,-93.68 3416.73,-92.2"/>
<polygon fill="#63b8ff" stroke="#63b8ff" points="3417.49,-95.62 3426.79,-90.53 3416.35,-88.71 3417.49,-95.62"/>
</a>
</g>
</g>
<!-- Node25 -->
<g id="Node000025" class="node">
<title>Node25</title>
<g id="a_Node000025"><a xlink:href="_encrypt_status_enum_8hpp.html" target="_top" xlink:title=" ">
<polygon fill="white" stroke="#666666" points="4162,-90.5 3990,-90.5 3990,-60.5 4162,-60.5 4162,-90.5"/>
<text text-anchor="start" x="3998" y="-78.5" font-family="Helvetica,sans-Serif" font-size="10.00">Hermes/_base/WinApi</text>
<text text-anchor="middle" x="4076" y="-67.5" font-family="Helvetica,sans-Serif" font-size="10.00">/Enums/EncryptStatusEnum.hpp</text>
</a>
</g>
</g>
<!-- Node11&#45;&gt;Node25 -->
<g id="edge27_Node000011_Node000025" class="edge">
<title>Node11&#45;&gt;Node25</title>
<g id="a_edge27_Node000011_Node000025"><a xlink:title=" ">
<path fill="none" stroke="#63b8ff" d="M2175.36,-145.79C2457.79,-144.59 3618.78,-137.21 3980,-96 3988.2,-95.06 3996.74,-93.78 4005.19,-92.32"/>
<polygon fill="#63b8ff" stroke="#63b8ff" points="4005.84,-95.76 4015.05,-90.53 4004.59,-88.87 4005.84,-95.76"/>
</a>
</g>
</g>
<!-- Node27 -->
<g id="Node000027" class="node">
<title>Node27</title>
<g id="a_Node000027"><a xlink:href="_protocol_base_type_enum_8hpp.html" target="_top" xlink:title=" ">
<polygon fill="white" stroke="#666666" points="3380.5,-90.5 3189.5,-90.5 3189.5,-60.5 3380.5,-60.5 3380.5,-90.5"/>
<text text-anchor="start" x="3197.5" y="-78.5" font-family="Helvetica,sans-Serif" font-size="10.00">Hermes/_base/WinApi</text>
<text text-anchor="middle" x="3285" y="-67.5" font-family="Helvetica,sans-Serif" font-size="10.00">/Enums/ProtocolBaseTypeEnum.hpp</text>
</a>
</g>
</g>
<!-- Node11&#45;&gt;Node27 -->
<g id="edge29_Node000011_Node000027" class="edge">
<title>Node11&#45;&gt;Node27</title>
<g id="a_edge29_Node000011_Node000027"><a xlink:title=" ">
<path fill="none" stroke="#63b8ff" d="M2175.18,-146.05C2339.74,-145.55 2800.05,-139.97 3180,-96 3188.86,-94.97 3198.1,-93.65 3207.26,-92.16"/>
<polygon fill="#63b8ff" stroke="#63b8ff" points="3207.86,-95.61 3217.14,-90.5 3206.7,-88.71 3207.86,-95.61"/>
</a>
</g>
</g>
<!-- Node28 -->
<g id="Node000028" class="node">
<title>Node28</title>
<g id="a_Node000028"><a xlink:href="_s_ch_cred_enum_8hpp.html" target="_top" xlink:title=" ">
<polygon fill="white" stroke="#666666" points="1082,-90.5 936,-90.5 936,-60.5 1082,-60.5 1082,-90.5"/>
<text text-anchor="start" x="944" y="-78.5" font-family="Helvetica,sans-Serif" font-size="10.00">Hermes/_base/WinApi</text>
<text text-anchor="middle" x="1009" y="-67.5" font-family="Helvetica,sans-Serif" font-size="10.00">/Enums/SChCredEnum.hpp</text>
</a>
</g>
</g>
<!-- Node11&#45;&gt;Node28 -->
<g id="edge31_Node000011_Node000028" class="edge">
<title>Node11&#45;&gt;Node28</title>
<g id="a_edge31_Node000011_Node000028"><a xlink:title=" ">
<path fill="none" stroke="#63b8ff" d="M2050.69,-144.46C1858.69,-139.48 1277.87,-122.56 1091,-96 1084.73,-95.11 1078.23,-93.96 1071.76,-92.67"/>
<polygon fill="#63b8ff" stroke="#63b8ff" points="1072.17,-89.18 1061.66,-90.53 1070.72,-96.03 1072.17,-89.18"/>
</a>
</g>
</g>
<!-- Node29 -->
<g id="Node000029" class="node">
<title>Node29</title>
<g id="a_Node000029"><a xlink:href="_security_buffer_enum_8hpp.html" target="_top" xlink:title=" ">
<polygon fill="white" stroke="#666666" points="1845.5,-90.5 1672.5,-90.5 1672.5,-60.5 1845.5,-60.5 1845.5,-90.5"/>
<text text-anchor="start" x="1680.5" y="-78.5" font-family="Helvetica,sans-Serif" font-size="10.00">Hermes/_base/WinApi</text>
<text text-anchor="middle" x="1759" y="-67.5" font-family="Helvetica,sans-Serif" font-size="10.00">/Enums/SecurityBufferEnum.hpp</text>
</a>
</g>
</g>
<!-- Node11&#45;&gt;Node29 -->
<g id="edge33_Node000011_Node000029" class="edge">
<title>Node11&#45;&gt;Node29</title>
<g id="a_edge33_Node000011_Node000029"><a xlink:title=" ">
<path fill="none" stroke="#63b8ff" d="M2050.93,-134.13C1998.65,-124.1 1921.9,-109.28 1855,-96 1849.34,-94.88 1843.49,-93.71 1837.6,-92.52"/>
<polygon fill="#63b8ff" stroke="#63b8ff" points="1838.18,-89.07 1827.68,-90.53 1836.79,-95.93 1838.18,-89.07"/>
</a>
</g>
</g>
<!-- Node30 -->
<g id="Node000030" class="node">
<title>Node30</title>
<g id="a_Node000030"><a xlink:href="_socket_shutdown_enum_8hpp.html" target="_top" xlink:title=" ">
<polygon fill="white" stroke="#666666" points="3794.5,-90.5 3609.5,-90.5 3609.5,-60.5 3794.5,-60.5 3794.5,-90.5"/>
<text text-anchor="start" x="3617.5" y="-78.5" font-family="Helvetica,sans-Serif" font-size="10.00">Hermes/_base/WinApi</text>
<text text-anchor="middle" x="3702" y="-67.5" font-family="Helvetica,sans-Serif" font-size="10.00">/Enums/SocketShutdownEnum.hpp</text>
</a>
</g>
</g>
<!-- Node11&#45;&gt;Node30 -->
<g id="edge35_Node000011_Node000030" class="edge">
<title>Node11&#45;&gt;Node30</title>
<g id="a_edge35_Node000011_Node000030"><a xlink:title=" ">
<path fill="none" stroke="#63b8ff" d="M2175.36,-145.19C2420.36,-141.83 3317.3,-127.58 3600,-96 3608.66,-95.03 3617.68,-93.74 3626.62,-92.27"/>
<polygon fill="#63b8ff" stroke="#63b8ff" points="3627.39,-95.69 3636.66,-90.55 3626.21,-88.79 3627.39,-95.69"/>
</a>
</g>
</g>
<!-- Node31 -->
<g id="Node000031" class="node">
<title>Node31</title>
<g id="a_Node000031"><a xlink:href="_socket_type_enum_8hpp.html" target="_top" xlink:title=" ">
<polygon fill="white" stroke="#666666" points="3971.5,-90.5 3812.5,-90.5 3812.5,-60.5 3971.5,-60.5 3971.5,-90.5"/>
<text text-anchor="start" x="3820.5" y="-78.5" font-family="Helvetica,sans-Serif" font-size="10.00">Hermes/_base/WinApi</text>
<text text-anchor="middle" x="3892" y="-67.5" font-family="Helvetica,sans-Serif" font-size="10.00">/Enums/SocketTypeEnum.hpp</text>
</a>
</g>
</g>
<!-- Node11&#45;&gt;Node31 -->
<g id="edge37_Node000011_Node000031" class="edge">
<title>Node11&#45;&gt;Node31</title>
<g id="a_edge37_Node000011_Node000031"><a xlink:title=" ">
<path fill="none" stroke="#63b8ff" d="M2175.15,-145.71C2440.38,-144.23 3478.72,-135.97 3803,-96 3810.31,-95.1 3817.91,-93.88 3825.45,-92.49"/>
<polygon fill="#63b8ff" stroke="#63b8ff" points="3826.15,-95.92 3835.3,-90.57 3824.81,-89.05 3826.15,-95.92"/>
</a>
</g>
</g>
<!-- Node32 -->
<g id="Node000032" class="node">
<title>Node32</title>
<g id="a_Node000032"><a xlink:href="_credential_flags_8hpp.html" target="_top" xlink:title=" ">
<polygon fill="white" stroke="#666666" points="2010,-90.5 1864,-90.5 1864,-60.5 2010,-60.5 2010,-90.5"/>
<text text-anchor="start" x="1872" y="-78.5" font-family="Helvetica,sans-Serif" font-size="10.00">Hermes/_base/WinApi</text>
<text text-anchor="middle" x="1937" y="-67.5" font-family="Helvetica,sans-Serif" font-size="10.00">/Flags/CredentialFlags.hpp</text>
</a>
</g>
</g>
<!-- Node11&#45;&gt;Node32 -->
<g id="edge39_Node000011_Node000032" class="edge">
<title>Node11&#45;&gt;Node32</title>
<g id="a_edge39_Node000011_Node000032"><a xlink:title=" ">
<path fill="none" stroke="#63b8ff" d="M2077.38,-131.94C2049.95,-121.1 2011.84,-106.05 1982.24,-94.37"/>
<polygon fill="#63b8ff" stroke="#63b8ff" points="1983.15,-90.96 1972.56,-90.54 1980.58,-97.47 1983.15,-90.96"/>
</a>
</g>
</g>
<!-- Node33 -->
<g id="Node000033" class="node">
<title>Node33</title>
<g id="a_Node000033"><a xlink:href="_supported_protocols_flags_8hpp.html" target="_top" xlink:title=" ">
<polygon fill="white" stroke="#666666" points="1291.5,-90.5 1100.5,-90.5 1100.5,-60.5 1291.5,-60.5 1291.5,-90.5"/>
<text text-anchor="start" x="1108.5" y="-78.5" font-family="Helvetica,sans-Serif" font-size="10.00">Hermes/_base/WinApi</text>
<text text-anchor="middle" x="1196" y="-67.5" font-family="Helvetica,sans-Serif" font-size="10.00">/Flags/SupportedProtocolsFlags.hpp</text>
</a>
</g>
</g>
<!-- Node11&#45;&gt;Node33 -->
<g id="edge41_Node000011_Node000033" class="edge">
<title>Node11&#45;&gt;Node33</title>
<g id="a_edge41_Node000011_Node000033"><a xlink:title=" ">
<path fill="none" stroke="#63b8ff" d="M2050.88,-144.76C1914.62,-141.47 1579.43,-130.3 1301,-96 1292.44,-94.95 1283.53,-93.63 1274.67,-92.19"/>
<polygon fill="#63b8ff" stroke="#63b8ff" points="1275.16,-88.72 1264.72,-90.51 1274,-95.62 1275.16,-88.72"/>
</a>
</g>
</g>
<!-- Node34 -->
<g id="Node000034" class="node">
<title>Node34</title>
<g id="a_Node000034"><a xlink:href="_initialize_security_context_flags_8hpp.html" target="_top" xlink:title=" ">
<polygon fill="white" stroke="#666666" points="2197.5,-96 2028.5,-96 2028.5,-55 2197.5,-55 2197.5,-96"/>
<text text-anchor="start" x="2036.5" y="-84" font-family="Helvetica,sans-Serif" font-size="10.00">Hermes/_base/WinApi</text>
<text text-anchor="start" x="2036.5" y="-73" font-family="Helvetica,sans-Serif" font-size="10.00">/Flags/InitializeSecurityContext</text>
<text text-anchor="middle" x="2113" y="-62" font-family="Helvetica,sans-Serif" font-size="10.00">Flags.hpp</text>
</a>
</g>
</g>
<!-- Node11&#45;&gt;Node34 -->
<g id="edge43_Node000011_Node000034" class="edge">
<title>Node11&#45;&gt;Node34</title>
<g id="a_edge43_Node000011_Node000034"><a xlink:title=" ">
<path fill="none" stroke="#63b8ff" d="M2113,-131.94C2113,-124.52 2113,-115.14 2113,-106.2"/>
<polygon fill="#63b8ff" stroke="#63b8ff" points="2116.5,-106.07 2113,-96.07 2109.5,-106.07 2116.5,-106.07"/>
</a>
</g>
</g>
<!-- Node35 -->
<g id="Node000035" class="node">
<title>Node35</title>
<g id="a_Node000035"><a xlink:href="_initialize_security_context_return_flags_8hpp.html" target="_top" xlink:title=" ">
<polygon fill="white" stroke="#666666" points="2384.5,-96 2215.5,-96 2215.5,-55 2384.5,-55 2384.5,-96"/>
<text text-anchor="start" x="2223.5" y="-84" font-family="Helvetica,sans-Serif" font-size="10.00">Hermes/_base/WinApi</text>
<text text-anchor="start" x="2223.5" y="-73" font-family="Helvetica,sans-Serif" font-size="10.00">/Flags/InitializeSecurityContext</text>
<text text-anchor="middle" x="2300" y="-62" font-family="Helvetica,sans-Serif" font-size="10.00">ReturnFlags.hpp</text>
</a>
</g>
</g>
<!-- Node11&#45;&gt;Node35 -->
<g id="edge45_Node000011_Node000035" class="edge">
<title>Node11&#45;&gt;Node35</title>
<g id="a_edge45_Node000011_Node000035"><a xlink:title=" ">
<path fill="none" stroke="#63b8ff" d="M2150.84,-131.94C2175.77,-122.67 2209,-110.32 2237.77,-99.63"/>
<polygon fill="#63b8ff" stroke="#63b8ff" points="2239.18,-102.84 2247.33,-96.07 2236.74,-96.28 2239.18,-102.84"/>
</a>
</g>
</g>
<!-- Node36 -->
<g id="Node000036" class="node">
<title>Node36</title>
<g id="a_Node000036"><a xlink:href="_accept_security_context_flags_8hpp.html" target="_top" xlink:title=" ">
<polygon fill="white" stroke="#666666" points="2563,-96 2403,-96 2403,-55 2563,-55 2563,-96"/>
<text text-anchor="start" x="2411" y="-84" font-family="Helvetica,sans-Serif" font-size="10.00">Hermes/_base/WinApi</text>
<text text-anchor="start" x="2411" y="-73" font-family="Helvetica,sans-Serif" font-size="10.00">/Flags/AcceptSecurityContext</text>
<text text-anchor="middle" x="2483" y="-62" font-family="Helvetica,sans-Serif" font-size="10.00">Flags.hpp</text>
</a>
</g>
</g>
<!-- Node11&#45;&gt;Node36 -->
<g id="edge47_Node000011_Node000036" class="edge">
<title>Node11&#45;&gt;Node36</title>
<g id="a_edge47_Node000011_Node000036"><a xlink:title=" ">
<path fill="none" stroke="#63b8ff" d="M2175.12,-135.58C2229.73,-126.27 2311.58,-111.94 2392.68,-96.03"/>
<polygon fill="#63b8ff" stroke="#63b8ff" points="2393.42,-99.45 2402.56,-94.08 2392.07,-92.58 2393.42,-99.45"/>
</a>
</g>
</g>
<!-- Node37 -->
<g id="Node000037" class="node">
<title>Node37</title>
<g id="a_Node000037"><a xlink:href="_accept_security_context_return_flags_8hpp.html" target="_top" xlink:title=" ">
<polygon fill="white" stroke="#666666" points="2741,-96 2581,-96 2581,-55 2741,-55 2741,-96"/>
<text text-anchor="start" x="2589" y="-84" font-family="Helvetica,sans-Serif" font-size="10.00">Hermes/_base/WinApi</text>
<text text-anchor="start" x="2589" y="-73" font-family="Helvetica,sans-Serif" font-size="10.00">/Flags/AcceptSecurityContext</text>
<text text-anchor="middle" x="2661" y="-62" font-family="Helvetica,sans-Serif" font-size="10.00">ReturnFlags.hpp</text>
</a>
</g>
</g>
<!-- Node11&#45;&gt;Node37 -->
<g id="edge49_Node000011_Node000037" class="edge">
<title>Node11&#45;&gt;Node37</title>
<g id="a_edge49_Node000011_Node000037"><a xlink:title=" ">
<path fill="none" stroke="#63b8ff" d="M2175.28,-141.35C2261.83,-134.41 2423.52,-119.74 2570.44,-96.17"/>
<polygon fill="#63b8ff" stroke="#63b8ff" points="2571.23,-99.59 2580.54,-94.53 2570.11,-92.68 2571.23,-99.59"/>
</a>
</g>
</g>
<!-- Node38 -->
<g id="Node000038" class="node">
<title>Node38</title>
<g id="a_Node000038"><a xlink:href="_s_channel_cred_flags_8hpp.html" target="_top" xlink:title=" ">
<polygon fill="white" stroke="#666666" points="1474,-90.5 1310,-90.5 1310,-60.5 1474,-60.5 1474,-90.5"/>
<text text-anchor="start" x="1318" y="-78.5" font-family="Helvetica,sans-Serif" font-size="10.00">Hermes/_base/WinApi</text>
<text text-anchor="middle" x="1392" y="-67.5" font-family="Helvetica,sans-Serif" font-size="10.00">/Flags/SChannelCredFlags.hpp</text>
</a>
</g>
</g>
<!-- Node11&#45;&gt;Node38 -->
<g id="edge51_Node000011_Node000038" class="edge">
<title>Node11&#45;&gt;Node38</title>
<g id="a_edge51_Node000011_Node000038"><a xlink:title=" ">
<path fill="none" stroke="#63b8ff" d="M2050.99,-143.79C1937.69,-139.16 1689.82,-126.23 1483,-96 1476.23,-95.01 1469.22,-93.82 1462.22,-92.51"/>
<polygon fill="#63b8ff" stroke="#63b8ff" points="1462.49,-89 1452,-90.53 1461.16,-95.87 1462.49,-89"/>
</a>
</g>
</g>
<!-- Node18 -->
<g id="Node000018" class="node">
<title>Node18</title>
<g id="a_Node000018"><a xlink:title=" ">
<polygon fill="#e0e0e0" stroke="#999999" points="2927,-19 2877,-19 2877,0 2927,0 2927,-19"/>
<text text-anchor="middle" x="2902" y="-7" font-family="Helvetica,sans-Serif" font-size="10.00">cstdint</text>
</a>
</g>
</g>
<!-- Node17&#45;&gt;Node18 -->
<g id="edge17_Node000017_Node000018" class="edge">
<title>Node17&#45;&gt;Node18</title>
<g id="a_edge17_Node000017_Node000018"><a xlink:title=" ">
<path fill="none" stroke="#63b8ff" d="M2902,-60.3C2902,-51.2 2902,-39.29 2902,-29.4"/>
<polygon fill="#63b8ff" stroke="#63b8ff" points="2905.5,-29.34 2902,-19.34 2898.5,-29.34 2905.5,-29.34"/>
</a>
</g>
</g>
<!-- Node19&#45;&gt;Node13 -->
<g id="edge20_Node000019_Node000013" class="edge">
<title>Node19&#45;&gt;Node13</title>
<g id="a_edge20_Node000019_Node000013"><a xlink:title=" ">
<path fill="none" stroke="#63b8ff" d="M1507.3,-60.41C1499.25,-58.34 1490.92,-56.43 1483,-55 1397.51,-39.54 1139.88,-20.8 1034.59,-13.56"/>
<polygon fill="#63b8ff" stroke="#63b8ff" points="1034.8,-10.07 1024.59,-12.88 1034.32,-17.05 1034.8,-10.07"/>
</a>
</g>
</g>
<!-- Node19&#45;&gt;Node15 -->
<g id="edge21_Node000019_Node000015" class="edge">
<title>Node19&#45;&gt;Node15</title>
<g id="a_edge21_Node000019_Node000015"><a xlink:title=" ">
<path fill="none" stroke="#63b8ff" d="M1505.68,-60.44C1498.12,-58.47 1490.37,-56.58 1483,-55 1398.06,-36.81 1297.47,-22.95 1240.76,-15.83"/>
<polygon fill="#63b8ff" stroke="#63b8ff" points="1241.05,-12.34 1230.69,-14.58 1240.18,-19.29 1241.05,-12.34"/>
</a>
</g>
</g>
<!-- Node19&#45;&gt;Node16 -->
<g id="edge22_Node000019_Node000016" class="edge">
<title>Node19&#45;&gt;Node16</title>
<g id="a_edge22_Node000019_Node000016"><a xlink:title=" ">
<path fill="none" stroke="#63b8ff" d="M1604.89,-60.41C1613.23,-58.39 1621.83,-56.5 1630,-55 1763.04,-30.56 1923.92,-17.46 1992.01,-12.66"/>
<polygon fill="#63b8ff" stroke="#63b8ff" points="1992.39,-16.14 2002.13,-11.96 1991.91,-9.16 1992.39,-16.14"/>
</a>
</g>
</g>
<!-- Node20 -->
<g id="Node000020" class="node">
<title>Node20</title>
<g id="a_Node000020"><a xlink:title=" ">
<polygon fill="#e0e0e0" stroke="#999999" points="1590.5,-19 1517.5,-19 1517.5,0 1590.5,0 1590.5,-19"/>
<text text-anchor="middle" x="1554" y="-7" font-family="Helvetica,sans-Serif" font-size="10.00">string_view</text>
</a>
</g>
</g>
<!-- Node19&#45;&gt;Node20 -->
<g id="edge19_Node000019_Node000020" class="edge">
<title>Node19&#45;&gt;Node20</title>
<g id="a_edge19_Node000019_Node000020"><a xlink:title=" ">
<path fill="none" stroke="#63b8ff" d="M1554,-60.3C1554,-51.2 1554,-39.29 1554,-29.4"/>
<polygon fill="#63b8ff" stroke="#63b8ff" points="1557.5,-29.34 1554,-19.34 1550.5,-29.34 1557.5,-29.34"/>
</a>
</g>
</g>
<!-- Node22 -->
<g id="Node000022" class="node">
<title>Node22</title>
<g id="a_Node000022"><a xlink:title=" ">
<polygon fill="#e0e0e0" stroke="#999999" points="3214,-19 3154,-19 3154,0 3214,0 3214,-19"/>
<text text-anchor="middle" x="3184" y="-7" font-family="Helvetica,sans-Serif" font-size="10.00">ws2def.h</text>
</a>
</g>
</g>
<!-- Node21&#45;&gt;Node22 -->
<g id="edge24_Node000021_Node000022" class="edge">
<title>Node21&#45;&gt;Node22</title>
<g id="a_edge24_Node000021_Node000022"><a xlink:title=" ">
<path fill="none" stroke="#63b8ff" d="M3105.42,-60.3C3122.19,-49.67 3145.01,-35.2 3161.75,-24.6"/>
<polygon fill="#63b8ff" stroke="#63b8ff" points="3163.76,-27.47 3170.34,-19.16 3160.02,-21.55 3163.76,-27.47"/>
</a>
</g>
</g>
<!-- Node24 -->
<g id="Node000024" class="node">
<title>Node24</title>
<g id="a_Node000024"><a xlink:title=" ">
<polygon fill="#e0e0e0" stroke="#999999" points="3739,-19 3665,-19 3665,0 3739,0 3739,-19"/>
<text text-anchor="middle" x="3702" y="-7" font-family="Helvetica,sans-Serif" font-size="10.00">WinSock2.h</text>
</a>
</g>
</g>
<!-- Node23&#45;&gt;Node24 -->
<g id="edge26_Node000023_Node000024" class="edge">
<title>Node23&#45;&gt;Node24</title>
<g id="a_edge26_Node000023_Node000024"><a xlink:title=" ">
<path fill="none" stroke="#63b8ff" d="M3540.43,-60.45C3577.69,-48.93 3629.8,-32.82 3664.66,-22.04"/>
<polygon fill="#63b8ff" stroke="#63b8ff" points="3665.93,-25.32 3674.45,-19.02 3663.86,-18.63 3665.93,-25.32"/>
</a>
</g>
</g>
<!-- Node26 -->
<g id="Node000026" class="node">
<title>Node26</title>
<g id="a_Node000026"><a xlink:title=" ">
<polygon fill="#e0e0e0" stroke="#999999" points="4108.5,-19 4043.5,-19 4043.5,0 4108.5,0 4108.5,-19"/>
<text text-anchor="middle" x="4076" y="-7" font-family="Helvetica,sans-Serif" font-size="10.00">winerror.h</text>
</a>
</g>
</g>
<!-- Node25&#45;&gt;Node26 -->
<g id="edge28_Node000025_Node000026" class="edge">
<title>Node25&#45;&gt;Node26</title>
<g id="a_edge28_Node000025_Node000026"><a xlink:title=" ">
<path fill="none" stroke="#63b8ff" d="M4076,-60.3C4076,-51.2 4076,-39.29 4076,-29.4"/>
<polygon fill="#63b8ff" stroke="#63b8ff" points="4079.5,-29.34 4076,-19.34 4072.5,-29.34 4079.5,-29.34"/>
</a>
</g>
</g>
<!-- Node27&#45;&gt;Node22 -->
<g id="edge30_Node000027_Node000022" class="edge">
<title>Node27&#45;&gt;Node22</title>
<g id="a_edge30_Node000027_Node000022"><a xlink:title=" ">
<path fill="none" stroke="#63b8ff" d="M3262.58,-60.3C3245.81,-49.67 3222.99,-35.2 3206.25,-24.6"/>
<polygon fill="#63b8ff" stroke="#63b8ff" points="3207.98,-21.55 3197.66,-19.16 3204.24,-27.47 3207.98,-21.55"/>
</a>
</g>
</g>
<!-- Node28&#45;&gt;Node15 -->
<g id="edge32_Node000028_Node000015" class="edge">
<title>Node28&#45;&gt;Node15</title>
<g id="a_edge32_Node000028_Node000015"><a xlink:title=" ">
<path fill="none" stroke="#63b8ff" d="M1050.04,-60.45C1083.41,-49.03 1129.97,-33.1 1161.46,-22.32"/>
<polygon fill="#63b8ff" stroke="#63b8ff" points="1162.79,-25.57 1171.11,-19.02 1160.52,-18.94 1162.79,-25.57"/>
</a>
</g>
</g>
<!-- Node29&#45;&gt;Node16 -->
<g id="edge34_Node000029_Node000016" class="edge">
<title>Node29&#45;&gt;Node16</title>
<g id="a_edge34_Node000029_Node000016"><a xlink:title=" ">
<path fill="none" stroke="#63b8ff" d="M1817.37,-60.45C1871.18,-47.51 1949.07,-28.77 1992.54,-18.31"/>
<polygon fill="#63b8ff" stroke="#63b8ff" points="1993.4,-21.7 2002.3,-15.96 1991.76,-14.9 1993.4,-21.7"/>
</a>
</g>
</g>
<!-- Node30&#45;&gt;Node24 -->
<g id="edge36_Node000030_Node000024" class="edge">
<title>Node30&#45;&gt;Node24</title>
<g id="a_edge36_Node000030_Node000024"><a xlink:title=" ">
<path fill="none" stroke="#63b8ff" d="M3702,-60.3C3702,-51.2 3702,-39.29 3702,-29.4"/>
<polygon fill="#63b8ff" stroke="#63b8ff" points="3705.5,-29.34 3702,-19.34 3698.5,-29.34 3705.5,-29.34"/>
</a>
</g>
</g>
<!-- Node31&#45;&gt;Node24 -->
<g id="edge38_Node000031_Node000024" class="edge">
<title>Node31&#45;&gt;Node24</title>
<g id="a_edge38_Node000031_Node000024"><a xlink:title=" ">
<path fill="none" stroke="#63b8ff" d="M3850.3,-60.45C3816.4,-49.03 3769.09,-33.1 3737.1,-22.32"/>
<polygon fill="#63b8ff" stroke="#63b8ff" points="3737.88,-18.89 3727.29,-19.02 3735.65,-25.53 3737.88,-18.89"/>
</a>
</g>
</g>
<!-- Node32&#45;&gt;Node16 -->
<g id="edge40_Node000032_Node000016" class="edge">
<title>Node32&#45;&gt;Node16</title>
<g id="a_edge40_Node000032_Node000016"><a xlink:title=" ">
<path fill="none" stroke="#63b8ff" d="M1956.53,-60.3C1970.87,-49.87 1990.3,-35.74 2004.79,-25.19"/>
<polygon fill="#63b8ff" stroke="#63b8ff" points="2007.07,-27.87 2013.09,-19.16 2002.95,-22.21 2007.07,-27.87"/>
</a>
</g>
</g>
<!-- Node33&#45;&gt;Node15 -->
<g id="edge42_Node000033_Node000015" class="edge">
<title>Node33&#45;&gt;Node15</title>
<g id="a_edge42_Node000033_Node000015"><a xlink:title=" ">
<path fill="none" stroke="#63b8ff" d="M1196,-60.3C1196,-51.2 1196,-39.29 1196,-29.4"/>
<polygon fill="#63b8ff" stroke="#63b8ff" points="1199.5,-29.34 1196,-19.34 1192.5,-29.34 1199.5,-29.34"/>
</a>
</g>
</g>
<!-- Node34&#45;&gt;Node16 -->
<g id="edge44_Node000034_Node000016" class="edge">
<title>Node34&#45;&gt;Node16</title>
<g id="a_edge44_Node000034_Node000016"><a xlink:title=" ">
<path fill="none" stroke="#63b8ff" d="M2086.12,-54.95C2072.94,-45.37 2057.34,-34.02 2045.19,-25.19"/>
<polygon fill="#63b8ff" stroke="#63b8ff" points="2047.19,-22.31 2037.05,-19.26 2043.07,-27.97 2047.19,-22.31"/>
</a>
</g>
</g>
<!-- Node35&#45;&gt;Node16 -->
<g id="edge46_Node000035_Node000016" class="edge">
<title>Node35&#45;&gt;Node16</title>
<g id="a_edge46_Node000035_Node000016"><a xlink:title=" ">
<path fill="none" stroke="#63b8ff" d="M2216,-54.95C2162.72,-42.55 2096.75,-27.2 2057.93,-18.16"/>
<polygon fill="#63b8ff" stroke="#63b8ff" points="2058.27,-14.65 2047.73,-15.79 2056.68,-21.47 2058.27,-14.65"/>
</a>
</g>
</g>
<!-- Node36&#45;&gt;Node16 -->
<g id="edge48_Node000036_Node000016" class="edge">
<title>Node36&#45;&gt;Node16</title>
<g id="a_edge48_Node000036_Node000016"><a xlink:title=" ">
<path fill="none" stroke="#63b8ff" d="M2402.6,-56.69C2399.36,-56.1 2396.15,-55.53 2393,-55 2270.02,-34.29 2122.35,-19.43 2057.85,-13.44"/>
<polygon fill="#63b8ff" stroke="#63b8ff" points="2057.79,-9.92 2047.51,-12.49 2057.14,-16.89 2057.79,-9.92"/>
</a>
</g>
</g>
<!-- Node37&#45;&gt;Node16 -->
<g id="edge50_Node000037_Node000016" class="edge">
<title>Node37&#45;&gt;Node16</title>
<g id="a_edge50_Node000037_Node000016"><a xlink:title=" ">
<path fill="none" stroke="#63b8ff" d="M2580.56,-56.37C2577.68,-55.88 2574.82,-55.42 2572,-55 2378.16,-26.02 2142.66,-14.88 2057.6,-11.62"/>
<polygon fill="#63b8ff" stroke="#63b8ff" points="2057.65,-8.12 2047.53,-11.25 2057.39,-15.12 2057.65,-8.12"/>
</a>
</g>
</g>
<!-- Node38&#45;&gt;Node15 -->
<g id="edge52_Node000038_Node000015" class="edge">
<title>Node38&#45;&gt;Node15</title>
<g id="a_edge52_Node000038_Node000015"><a xlink:title=" ">
<path fill="none" stroke="#63b8ff" d="M1348.99,-60.45C1313.86,-48.98 1264.79,-32.96 1231.78,-22.18"/>
<polygon fill="#63b8ff" stroke="#63b8ff" points="1232.68,-18.79 1222.08,-19.02 1230.5,-25.45 1232.68,-18.79"/>
</a>
</g>
</g>
</g>
</svg>
