<?xml version="1.0" encoding="UTF-8" standalone="no"?>
<!DOCTYPE svg PUBLIC "-//W3C//DTD SVG 1.1//EN"
 "http://www.w3.org/Graphics/SVG/1.1/DTD/svg11.dtd">
<!-- Generated by graphviz version 2.43.0 (0)
 -->
<!-- Title: include/Hermes/Socket/_base.hpp Pages: 1 -->
<svg width="3056pt" height="302pt"
 viewBox="0.00 0.00 3056.00 302.00" xmlns="http://www.w3.org/2000/svg" xmlns:xlink="http://www.w3.org/1999/xlink">
<g id="graph0" class="graph" transform="scale(1 1) rotate(0) translate(4 298)">
<title>include/Hermes/Socket/_base.hpp</title>
<!-- Node1 -->
<g id="Node000001" class="node">
<title>Node1</title>
<g id="a_Node000001"><a xlink:title=" ">
<polygon fill="#999999" stroke="#666666" points="684,-294 556,-294 556,-264 684,-264 684,-294"/>
<text text-anchor="start" x="564" y="-282" font-family="Helvetica,sans-Serif" font-size="10.00">include/Hermes/Socket</text>
<text text-anchor="middle" x="620" y="-271" font-family="Helvetica,sans-Serif" font-size="10.00">/_base.hpp</text>
</a>
</g>
</g>
<!-- Node2 -->
<g id="Node000002" class="node">
<title>Node2</title>
<g id="a_Node000002"><a xlink:href="_endpoint_concept_8hpp.html" target="_top" xlink:title=" ">
<polygon fill="white" stroke="#666666" points="592,-228 460,-228 460,-198 592,-198 592,-228"/>
<text text-anchor="start" x="468" y="-216" font-family="Helvetica,sans-Serif" font-size="10.00">Hermes/Endpoint/_base</text>
<text text-anchor="middle" x="526" y="-205" font-family="Helvetica,sans-Serif" font-size="10.00">/EndpointConcept.hpp</text>
</a>
</g>
</g>
<!-- Node1&#45;&gt;Node2 -->
<g id="edge1_Node000001_Node000002" class="edge">
<title>Node1&#45;&gt;Node2</title>
<g id="a_edge1_Node000001_Node000002"><a xlink:title=" ">
<path fill="none" stroke="#63b8ff" d="M599.14,-263.8C586.24,-255.01 569.49,-243.61 555.27,-233.93"/>
<polygon fill="#63b8ff" stroke="#63b8ff" points="557.04,-230.9 546.8,-228.16 553.1,-236.69 557.04,-230.9"/>
</a>
</g>
</g>
<!-- Node3 -->
<g id="Node000003" class="node">
<title>Node3</title>
<g id="a_Node000003"><a xlink:href="_connection_error_enum_8hpp.html" target="_top" xlink:title=" ">
<polygon fill="white" stroke="#666666" points="442.5,-162 275.5,-162 275.5,-132 442.5,-132 442.5,-162"/>
<text text-anchor="start" x="283.5" y="-150" font-family="Helvetica,sans-Serif" font-size="10.00">Hermes/_base/ConnectionError</text>
<text text-anchor="middle" x="359" y="-139" font-family="Helvetica,sans-Serif" font-size="10.00">Enum.hpp</text>
</a>
</g>
</g>
<!-- Node1&#45;&gt;Node3 -->
<g id="edge36_Node000001_Node000003" class="edge">
<title>Node1&#45;&gt;Node3</title>
<g id="a_edge36_Node000001_Node000003"><a xlink:title=" ">
<path fill="none" stroke="#63b8ff" d="M555.66,-265.81C522.99,-257.95 483.46,-245.8 451,-228 423.16,-212.73 396.35,-187.88 378.93,-169.93"/>
<polygon fill="#63b8ff" stroke="#63b8ff" points="381.04,-167.06 371.62,-162.22 375.96,-171.88 381.04,-167.06"/>
</a>
</g>
</g>
<!-- Node8 -->
<g id="Node000008" class="node">
<title>Node8</title>
<g id="a_Node000008"><a xlink:title=" ">
<polygon fill="#e0e0e0" stroke="#999999" points="754.5,-85 629.5,-85 629.5,-66 754.5,-66 754.5,-85"/>
<text text-anchor="middle" x="692" y="-73" font-family="Helvetica,sans-Serif" font-size="10.00">stdexec/execution.hpp</text>
</a>
</g>
</g>
<!-- Node1&#45;&gt;Node8 -->
<g id="edge37_Node000001_Node000008" class="edge">
<title>Node1&#45;&gt;Node8</title>
<g id="a_edge37_Node000001_Node000008"><a xlink:title=" ">
<path fill="none" stroke="#63b8ff" d="M622.55,-263.91C625.66,-247.77 631.45,-220.61 639,-198 651.7,-159.97 671.66,-117.43 683.12,-94.13"/>
<polygon fill="#63b8ff" stroke="#63b8ff" points="686.27,-95.64 687.59,-85.13 680.01,-92.53 686.27,-95.64"/>
</a>
</g>
</g>
<!-- Node30 -->
<g id="Node000030" class="node">
<title>Node30</title>
<g id="a_Node000030"><a xlink:title=" ">
<polygon fill="#e0e0e0" stroke="#999999" points="708,-222.5 648,-222.5 648,-203.5 708,-203.5 708,-222.5"/>
<text text-anchor="middle" x="678" y="-210.5" font-family="Helvetica,sans-Serif" font-size="10.00">concepts</text>
</a>
</g>
</g>
<!-- Node1&#45;&gt;Node30 -->
<g id="edge38_Node000001_Node000030" class="edge">
<title>Node1&#45;&gt;Node30</title>
<g id="a_edge38_Node000001_Node000030"><a xlink:title=" ">
<path fill="none" stroke="#63b8ff" d="M632.87,-263.8C641.83,-253.92 653.79,-240.72 663.14,-230.39"/>
<polygon fill="#63b8ff" stroke="#63b8ff" points="665.86,-232.6 669.98,-222.84 660.68,-227.9 665.86,-232.6"/>
</a>
</g>
</g>
<!-- Node31 -->
<g id="Node000031" class="node">
<title>Node31</title>
<g id="a_Node000031"><a xlink:title=" ">
<polygon fill="#e0e0e0" stroke="#999999" points="776,-222.5 726,-222.5 726,-203.5 776,-203.5 776,-222.5"/>
<text text-anchor="middle" x="751" y="-210.5" font-family="Helvetica,sans-Serif" font-size="10.00">ranges</text>
</a>
</g>
</g>
<!-- Node1&#45;&gt;Node31 -->
<g id="edge39_Node000001_Node000031" class="edge">
<title>Node1&#45;&gt;Node31</title>
<g id="a_edge39_Node000001_Node000031"><a xlink:title=" ">
<path fill="none" stroke="#63b8ff" d="M648.75,-263.95C671.32,-252.93 702.49,-237.7 724.47,-226.96"/>
<polygon fill="#63b8ff" stroke="#63b8ff" points="726.12,-230.05 733.57,-222.52 723.04,-223.76 726.12,-230.05"/>
</a>
</g>
</g>
<!-- Node2&#45;&gt;Node3 -->
<g id="edge2_Node000002_Node000003" class="edge">
<title>Node2&#45;&gt;Node3</title>
<g id="a_edge2_Node000002_Node000003"><a xlink:title=" ">
<path fill="none" stroke="#63b8ff" d="M489.35,-197.95C464.55,-188.45 431.6,-175.82 405.04,-165.64"/>
<polygon fill="#63b8ff" stroke="#63b8ff" points="406.15,-162.32 395.56,-162.01 403.65,-168.86 406.15,-162.32"/>
</a>
</g>
</g>
<!-- Node11 -->
<g id="Node000011" class="node">
<title>Node11</title>
<g id="a_Node000011"><a xlink:href="_os_api_8hpp.html" target="_top" xlink:title=" ">
<polygon fill="white" stroke="#666666" points="1862,-162 1744,-162 1744,-132 1862,-132 1862,-162"/>
<text text-anchor="start" x="1752" y="-150" font-family="Helvetica,sans-Serif" font-size="10.00">Hermes/_base/OsApi</text>
<text text-anchor="middle" x="1803" y="-139" font-family="Helvetica,sans-Serif" font-size="10.00">/OsApi.hpp</text>
</a>
</g>
</g>
<!-- Node2&#45;&gt;Node11 -->
<g id="edge10_Node000002_Node000011" class="edge">
<title>Node2&#45;&gt;Node11</title>
<g id="a_edge10_Node000002_Node000011"><a xlink:title=" ">
<path fill="none" stroke="#63b8ff" d="M592.23,-202.89C607.56,-201.03 623.83,-199.26 639,-198 1053.5,-163.48 1553.13,-152.15 1733.69,-149.04"/>
<polygon fill="#63b8ff" stroke="#63b8ff" points="1733.91,-152.53 1743.84,-148.86 1733.79,-145.53 1733.91,-152.53"/>
</a>
</g>
</g>
<!-- Node4 -->
<g id="Node000004" class="node">
<title>Node4</title>
<g id="a_Node000004"><a xlink:title=" ">
<polygon fill="#e0e0e0" stroke="#999999" points="62,-85 0,-85 0,-66 62,-66 62,-85"/>
<text text-anchor="middle" x="31" y="-73" font-family="Helvetica,sans-Serif" font-size="10.00">expected</text>
</a>
</g>
</g>
<!-- Node3&#45;&gt;Node4 -->
<g id="edge3_Node000003_Node000004" class="edge">
<title>Node3&#45;&gt;Node4</title>
<g id="a_edge3_Node000003_Node000004"><a xlink:title=" ">
<path fill="none" stroke="#63b8ff" d="M275.26,-137.78C216.97,-130.53 138,-117.66 71,-96 65.8,-94.32 60.43,-92.08 55.37,-89.72"/>
<polygon fill="#63b8ff" stroke="#63b8ff" points="56.67,-86.46 46.15,-85.14 53.55,-92.73 56.67,-86.46"/>
</a>
</g>
</g>
<!-- Node5 -->
<g id="Node000005" class="node">
<title>Node5</title>
<g id="a_Node000005"><a xlink:title=" ">
<polygon fill="#e0e0e0" stroke="#999999" points="127.5,-85 80.5,-85 80.5,-66 127.5,-66 127.5,-85"/>
<text text-anchor="middle" x="104" y="-73" font-family="Helvetica,sans-Serif" font-size="10.00">vector</text>
</a>
</g>
</g>
<!-- Node3&#45;&gt;Node5 -->
<g id="edge4_Node000003_Node000005" class="edge">
<title>Node3&#45;&gt;Node5</title>
<g id="a_edge4_Node000003_Node000005"><a xlink:title=" ">
<path fill="none" stroke="#63b8ff" d="M275.45,-133.56C233.03,-125.66 181.25,-113.55 137,-96 133.08,-94.44 129.07,-92.46 125.26,-90.36"/>
<polygon fill="#63b8ff" stroke="#63b8ff" points="126.76,-87.17 116.38,-85.06 123.18,-93.19 126.76,-87.17"/>
</a>
</g>
</g>
<!-- Node6 -->
<g id="Node000006" class="node">
<title>Node6</title>
<g id="a_Node000006"><a xlink:title=" ">
<polygon fill="#e0e0e0" stroke="#999999" points="186,-85 146,-85 146,-66 186,-66 186,-85"/>
<text text-anchor="middle" x="166" y="-73" font-family="Helvetica,sans-Serif" font-size="10.00">span</text>
</a>
</g>
</g>
<!-- Node3&#45;&gt;Node6 -->
<g id="edge5_Node000003_Node000006" class="edge">
<title>Node3&#45;&gt;Node6</title>
<g id="a_edge5_Node000003_Node000006"><a xlink:title=" ">
<path fill="none" stroke="#63b8ff" d="M297.81,-131.96C266.26,-123.59 227.66,-111.53 195,-96 191.88,-94.51 188.71,-92.72 185.67,-90.84"/>
<polygon fill="#63b8ff" stroke="#63b8ff" points="187.36,-87.76 177.1,-85.1 183.46,-93.58 187.36,-87.76"/>
</a>
</g>
</g>
<!-- Node7 -->
<g id="Node000007" class="node">
<title>Node7</title>
<g id="a_Node000007"><a xlink:title=" ">
<polygon fill="#e0e0e0" stroke="#999999" points="273.5,-85 204.5,-85 204.5,-66 273.5,-66 273.5,-85"/>
<text text-anchor="middle" x="239" y="-73" font-family="Helvetica,sans-Serif" font-size="10.00">type_traits</text>
</a>
</g>
</g>
<!-- Node3&#45;&gt;Node7 -->
<g id="edge6_Node000003_Node000007" class="edge">
<title>Node3&#45;&gt;Node7</title>
<g id="a_edge6_Node000003_Node000007"><a xlink:title=" ">
<path fill="none" stroke="#63b8ff" d="M334.72,-131.94C313.69,-119.76 283.47,-102.26 262.64,-90.19"/>
<polygon fill="#63b8ff" stroke="#63b8ff" points="264.2,-87.05 253.79,-85.07 260.69,-93.11 264.2,-87.05"/>
</a>
</g>
</g>
<!-- Node3&#45;&gt;Node8 -->
<g id="edge7_Node000003_Node000008" class="edge">
<title>Node3&#45;&gt;Node8</title>
<g id="a_edge7_Node000003_Node000008"><a xlink:title=" ">
<path fill="none" stroke="#63b8ff" d="M440.74,-131.97C492.36,-122.71 560.32,-109.78 620,-96 630.61,-93.55 642.03,-90.6 652.57,-87.75"/>
<polygon fill="#63b8ff" stroke="#63b8ff" points="653.63,-91.09 662.35,-85.07 651.78,-84.34 653.63,-91.09"/>
</a>
</g>
</g>
<!-- Node9 -->
<g id="Node000009" class="node">
<title>Node9</title>
<g id="a_Node000009"><a xlink:title=" ">
<polygon fill="#e0e0e0" stroke="#999999" points="426,-85 292,-85 292,-66 426,-66 426,-85"/>
<text text-anchor="middle" x="359" y="-73" font-family="Helvetica,sans-Serif" font-size="10.00">exec/any_sender_of.hpp</text>
</a>
</g>
</g>
<!-- Node3&#45;&gt;Node9 -->
<g id="edge8_Node000003_Node000009" class="edge">
<title>Node3&#45;&gt;Node9</title>
<g id="a_edge8_Node000003_Node000009"><a xlink:title=" ">
<path fill="none" stroke="#63b8ff" d="M359,-131.94C359,-121.46 359,-107.05 359,-95.55"/>
<polygon fill="#63b8ff" stroke="#63b8ff" points="362.5,-95.27 359,-85.27 355.5,-95.27 362.5,-95.27"/>
</a>
</g>
</g>
<!-- Node10 -->
<g id="Node000010" class="node">
<title>Node10</title>
<g id="a_Node000010"><a xlink:title=" ">
<polygon fill="#e0e0e0" stroke="#999999" points="611.5,-90.5 444.5,-90.5 444.5,-60.5 611.5,-60.5 611.5,-90.5"/>
<text text-anchor="start" x="452.5" y="-78.5" font-family="Helvetica,sans-Serif" font-size="10.00">Hermes/_base/ConnectionError</text>
<text text-anchor="middle" x="528" y="-67.5" font-family="Helvetica,sans-Serif" font-size="10.00">Enum.tpp</text>
</a>
</g>
</g>
<!-- Node3&#45;&gt;Node10 -->
<g id="edge9_Node000003_Node000010" class="edge">
<title>Node3&#45;&gt;Node10</title>
<g id="a_edge9_Node000003_Node000010"><a xlink:title=" ">
<path fill="none" stroke="#63b8ff" d="M393.2,-131.94C419.54,-121.1 456.14,-106.05 484.56,-94.37"/>
<polygon fill="#63b8ff" stroke="#63b8ff" points="485.93,-97.58 493.85,-90.54 483.27,-91.11 485.93,-97.58"/>
</a>
</g>
</g>
<!-- Node12 -->
<g id="Node000012" class="node">
<title>Node12</title>
<g id="a_Node000012"><a xlink:title=" ">
<polygon fill="#e0e0e0" stroke="#999999" points="1135.5,-19 1058.5,-19 1058.5,0 1135.5,0 1135.5,-19"/>
<text text-anchor="middle" x="1097" y="-7" font-family="Helvetica,sans-Serif" font-size="10.00">sys/socket.h</text>
</a>
</g>
</g>
<!-- Node11&#45;&gt;Node12 -->
<g id="edge11_Node000011_Node000012" class="edge">
<title>Node11&#45;&gt;Node12</title>
<g id="a_edge11_Node000011_Node000012"><a xlink:title=" ">
<path fill="none" stroke="#63b8ff" d="M1743.74,-145.27C1533.56,-142.39 834.59,-130.26 802,-96 728.98,-19.24 946.98,-10.13 1048.27,-9.9"/>
<polygon fill="#63b8ff" stroke="#63b8ff" points="1048.27,-13.4 1058.27,-9.9 1048.28,-6.4 1048.27,-13.4"/>
</a>
</g>
</g>
<!-- Node13 -->
<g id="Node000013" class="node">
<title>Node13</title>
<g id="a_Node000013"><a xlink:title=" ">
<polygon fill="#e0e0e0" stroke="#999999" points="1569,-19 1497,-19 1497,0 1569,0 1569,-19"/>
<text text-anchor="middle" x="1533" y="-7" font-family="Helvetica,sans-Serif" font-size="10.00">netinet/in.h</text>
</a>
</g>
</g>
<!-- Node11&#45;&gt;Node13 -->
<g id="edge12_Node000011_Node000013" class="edge">
<title>Node11&#45;&gt;Node13</title>
<g id="a_edge12_Node000011_Node000013"><a xlink:title=" ">
<path fill="none" stroke="#63b8ff" d="M1743.89,-141.81C1677.85,-135.88 1576.69,-122.66 1550,-96 1532.55,-78.57 1530.43,-48.67 1531.19,-29.25"/>
<polygon fill="#63b8ff" stroke="#63b8ff" points="1534.69,-29.41 1531.88,-19.2 1527.7,-28.93 1534.69,-29.41"/>
</a>
</g>
</g>
<!-- Node14 -->
<g id="Node000014" class="node">
<title>Node14</title>
<g id="a_Node000014"><a xlink:title=" ">
<polygon fill="#e0e0e0" stroke="#999999" points="1837.5,-85 1768.5,-85 1768.5,-66 1837.5,-66 1837.5,-85"/>
<text text-anchor="middle" x="1803" y="-73" font-family="Helvetica,sans-Serif" font-size="10.00">arpa/inet.h</text>
</a>
</g>
</g>
<!-- Node11&#45;&gt;Node14 -->
<g id="edge13_Node000011_Node000014" class="edge">
<title>Node11&#45;&gt;Node14</title>
<g id="a_edge13_Node000011_Node000014"><a xlink:title=" ">
<path fill="none" stroke="#63b8ff" d="M1803,-131.94C1803,-121.46 1803,-107.05 1803,-95.55"/>
<polygon fill="#63b8ff" stroke="#63b8ff" points="1806.5,-95.27 1803,-85.27 1799.5,-95.27 1806.5,-95.27"/>
</a>
</g>
</g>
<!-- Node15 -->
<g id="Node000015" class="node">
<title>Node15</title>
<g id="a_Node000015"><a xlink:title=" ">
<polygon fill="#e0e0e0" stroke="#999999" points="1942.5,-19 1889.5,-19 1889.5,0 1942.5,0 1942.5,-19"/>
<text text-anchor="middle" x="1916" y="-7" font-family="Helvetica,sans-Serif" font-size="10.00">netdb.h</text>
</a>
</g>
</g>
<!-- Node11&#45;&gt;Node15 -->
<g id="edge14_Node000011_Node000015" class="edge">
<title>Node11&#45;&gt;Node15</title>
<g id="a_edge14_Node000011_Node000015"><a xlink:title=" ">
<path fill="none" stroke="#63b8ff" d="M1815.51,-131.64C1824.14,-121.69 1835.84,-108.1 1846,-96 1865.95,-72.22 1888.65,-44.35 1902.65,-27.05"/>
<polygon fill="#63b8ff" stroke="#63b8ff" points="1905.55,-29.03 1909.11,-19.05 1900.1,-24.63 1905.55,-29.03"/>
</a>
</g>
</g>
<!-- Node16 -->
<g id="Node000016" class="node">
<title>Node16</title>
<g id="a_Node000016"><a xlink:title=" ">
<polygon fill="#e0e0e0" stroke="#999999" points="2112,-85 2056,-85 2056,-66 2112,-66 2112,-85"/>
<text text-anchor="middle" x="2084" y="-73" font-family="Helvetica,sans-Serif" font-size="10.00">unistd.h</text>
</a>
</g>
</g>
<!-- Node11&#45;&gt;Node16 -->
<g id="edge15_Node000011_Node000016" class="edge">
<title>Node11&#45;&gt;Node16</title>
<g id="a_edge15_Node000011_Node000016"><a xlink:title=" ">
<path fill="none" stroke="#63b8ff" d="M1862.45,-138.62C1912.65,-131.26 1985.93,-117.85 2047,-96 2051.71,-94.32 2056.56,-92.13 2061.14,-89.82"/>
<polygon fill="#63b8ff" stroke="#63b8ff" points="2062.86,-92.88 2070.02,-85.07 2059.55,-86.7 2062.86,-92.88"/>
</a>
</g>
</g>
<!-- Node17 -->
<g id="Node000017" class="node">
<title>Node17</title>
<g id="a_Node000017"><a xlink:href="_conversion_and_literals_8hpp.html" target="_top" xlink:title=" ">
<polygon fill="white" stroke="#666666" points="2280,-90.5 2130,-90.5 2130,-60.5 2280,-60.5 2280,-90.5"/>
<text text-anchor="start" x="2138" y="-78.5" font-family="Helvetica,sans-Serif" font-size="10.00">Hermes/_base/OsApi</text>
<text text-anchor="middle" x="2205" y="-67.5" font-family="Helvetica,sans-Serif" font-size="10.00">/ConversionAndLiterals.hpp</text>
</a>
</g>
</g>
<!-- Node11&#45;&gt;Node17 -->
<g id="edge16_Node000011_Node000017" class="edge">
<title>Node11&#45;&gt;Node17</title>
<g id="a_edge16_Node000011_Node000017"><a xlink:title=" ">
<path fill="none" stroke="#63b8ff" d="M1862.12,-138.01C1926.15,-129.05 2031.17,-113.47 2121,-96 2126.1,-95.01 2131.37,-93.93 2136.66,-92.8"/>
<polygon fill="#63b8ff" stroke="#63b8ff" points="2137.8,-96.13 2146.82,-90.58 2136.31,-89.29 2137.8,-96.13"/>
</a>
</g>
</g>
<!-- Node19 -->
<g id="Node000019" class="node">
<title>Node19</title>
<g id="a_Node000019"><a xlink:href="_macros_8hpp.html" target="_top" xlink:title=" ">
<polygon fill="white" stroke="#666666" points="1503,-90.5 1385,-90.5 1385,-60.5 1503,-60.5 1503,-90.5"/>
<text text-anchor="start" x="1393" y="-78.5" font-family="Helvetica,sans-Serif" font-size="10.00">Hermes/_base/OsApi</text>
<text text-anchor="middle" x="1444" y="-67.5" font-family="Helvetica,sans-Serif" font-size="10.00">/Macros.hpp</text>
</a>
</g>
</g>
<!-- Node11&#45;&gt;Node19 -->
<g id="edge18_Node000011_Node000019" class="edge">
<title>Node11&#45;&gt;Node19</title>
<g id="a_edge18_Node000011_Node000019"><a xlink:title=" ">
<path fill="none" stroke="#63b8ff" d="M1743.82,-137.21C1685.77,-128.22 1594.9,-113.18 1517,-96 1512.7,-95.05 1508.28,-94.02 1503.84,-92.94"/>
<polygon fill="#63b8ff" stroke="#63b8ff" points="1504.67,-89.54 1494.12,-90.51 1502.98,-96.33 1504.67,-89.54"/>
</a>
</g>
</g>
<!-- Node21 -->
<g id="Node000021" class="node">
<title>Node21</title>
<g id="a_Node000021"><a xlink:href="_address_family_enum_8hpp.html" target="_top" xlink:title=" ">
<polygon fill="white" stroke="#666666" points="987,-90.5 811,-90.5 811,-60.5 987,-60.5 987,-90.5"/>
<text text-anchor="start" x="819" y="-78.5" font-family="Helvetica,sans-Serif" font-size="10.00">Hermes/_base/OsApi</text>
<text text-anchor="middle" x="899" y="-67.5" font-family="Helvetica,sans-Serif" font-size="10.00">/Enums/AddressFamilyEnum.hpp</text>
</a>
</g>
</g>
<!-- Node11&#45;&gt;Node21 -->
<g id="edge22_Node000011_Node000021" class="edge">
<title>Node11&#45;&gt;Node21</title>
<g id="a_edge22_Node000011_Node000021"><a xlink:title=" ">
<path fill="none" stroke="#63b8ff" d="M1743.93,-145.14C1610.09,-142.59 1273.68,-132.75 995,-96 987.35,-94.99 979.4,-93.73 971.5,-92.33"/>
<polygon fill="#63b8ff" stroke="#63b8ff" points="972,-88.87 961.53,-90.5 970.74,-95.75 972,-88.87"/>
</a>
</g>
</g>
<!-- Node22 -->
<g id="Node000022" class="node">
<title>Node22</title>
<g id="a_Node000022"><a xlink:href="_protocol_base_type_enum_8hpp.html" target="_top" xlink:title=" ">
<polygon fill="white" stroke="#666666" points="1750.5,-90.5 1559.5,-90.5 1559.5,-60.5 1750.5,-60.5 1750.5,-90.5"/>
<text text-anchor="start" x="1567.5" y="-78.5" font-family="Helvetica,sans-Serif" font-size="10.00">Hermes/_base/OsApi</text>
<text text-anchor="middle" x="1655" y="-67.5" font-family="Helvetica,sans-Serif" font-size="10.00">/Enums/ProtocolBaseTypeEnum.hpp</text>
</a>
</g>
</g>
<!-- Node11&#45;&gt;Node22 -->
<g id="edge24_Node000011_Node000022" class="edge">
<title>Node11&#45;&gt;Node22</title>
<g id="a_edge24_Node000011_Node000022"><a xlink:title=" ">
<path fill="none" stroke="#63b8ff" d="M1773.05,-131.94C1750.28,-121.24 1718.77,-106.44 1694.02,-94.83"/>
<polygon fill="#63b8ff" stroke="#63b8ff" points="1695.44,-91.63 1684.91,-90.54 1692.47,-97.96 1695.44,-91.63"/>
</a>
</g>
</g>
<!-- Node23 -->
<g id="Node000023" class="node">
<title>Node23</title>
<g id="a_Node000023"><a xlink:href="_socket_shutdown_enum_8hpp.html" target="_top" xlink:title=" ">
<polygon fill="white" stroke="#666666" points="1189.5,-90.5 1004.5,-90.5 1004.5,-60.5 1189.5,-60.5 1189.5,-90.5"/>
<text text-anchor="start" x="1012.5" y="-78.5" font-family="Helvetica,sans-Serif" font-size="10.00">Hermes/_base/OsApi</text>
<text text-anchor="middle" x="1097" y="-67.5" font-family="Helvetica,sans-Serif" font-size="10.00">/Enums/SocketShutdownEnum.hpp</text>
</a>
</g>
</g>
<!-- Node11&#45;&gt;Node23 -->
<g id="edge26_Node000011_Node000023" class="edge">
<title>Node11&#45;&gt;Node23</title>
<g id="a_edge26_Node000011_Node000023"><a xlink:title=" ">
<path fill="none" stroke="#63b8ff" d="M1743.94,-143.25C1635.42,-137.71 1397.16,-123.37 1198,-96 1190.29,-94.94 1182.27,-93.68 1174.28,-92.31"/>
<polygon fill="#63b8ff" stroke="#63b8ff" points="1174.66,-88.82 1164.2,-90.53 1173.44,-95.71 1174.66,-88.82"/>
</a>
</g>
</g>
<!-- Node24 -->
<g id="Node000024" class="node">
<title>Node24</title>
<g id="a_Node000024"><a xlink:href="_socket_type_enum_8hpp.html" target="_top" xlink:title=" ">
<polygon fill="white" stroke="#666666" points="1366.5,-90.5 1207.5,-90.5 1207.5,-60.5 1366.5,-60.5 1366.5,-90.5"/>
<text text-anchor="start" x="1215.5" y="-78.5" font-family="Helvetica,sans-Serif" font-size="10.00">Hermes/_base/OsApi</text>
<text text-anchor="middle" x="1287" y="-67.5" font-family="Helvetica,sans-Serif" font-size="10.00">/Enums/SocketTypeEnum.hpp</text>
</a>
</g>
</g>
<!-- Node11&#45;&gt;Node24 -->
<g id="edge28_Node000011_Node000024" class="edge">
<title>Node11&#45;&gt;Node24</title>
<g id="a_edge28_Node000011_Node000024"><a xlink:title=" ">
<path fill="none" stroke="#63b8ff" d="M1743.68,-140.93C1660.97,-133.43 1506.48,-117.88 1376,-96 1369.86,-94.97 1363.5,-93.8 1357.14,-92.55"/>
<polygon fill="#63b8ff" stroke="#63b8ff" points="1357.66,-89.08 1347.16,-90.53 1356.27,-95.94 1357.66,-89.08"/>
</a>
</g>
</g>
<!-- Node25 -->
<g id="Node000025" class="node">
<title>Node25</title>
<g id="a_Node000025"><a xlink:title=" ">
<polygon fill="#e0e0e0" stroke="#999999" points="2450,-96 2298,-96 2298,-55 2450,-55 2450,-96"/>
<text text-anchor="start" x="2306" y="-84" font-family="Helvetica,sans-Serif" font-size="10.00">Hermes/_base/OsApi</text>
<text text-anchor="start" x="2306" y="-73" font-family="Helvetica,sans-Serif" font-size="10.00">/Enums/Linux/EncryptStatus</text>
<text text-anchor="middle" x="2374" y="-62" font-family="Helvetica,sans-Serif" font-size="10.00">Enum.hpp</text>
</a>
</g>
</g>
<!-- Node11&#45;&gt;Node25 -->
<g id="edge30_Node000011_Node000025" class="edge">
<title>Node11&#45;&gt;Node25</title>
<g id="a_edge30_Node000011_Node000025"><a xlink:title=" ">
<path fill="none" stroke="#63b8ff" d="M1862.04,-142.28C1951.93,-136.09 2128.63,-121.91 2287.67,-96.12"/>
<polygon fill="#63b8ff" stroke="#63b8ff" points="2288.33,-99.56 2297.63,-94.49 2287.2,-92.65 2288.33,-99.56"/>
</a>
</g>
</g>
<!-- Node26 -->
<g id="Node000026" class="node">
<title>Node26</title>
<g id="a_Node000026"><a xlink:href="_name_info_flags_8hpp.html" target="_top" xlink:title=" ">
<polygon fill="white" stroke="#666666" points="2038,-90.5 1894,-90.5 1894,-60.5 2038,-60.5 2038,-90.5"/>
<text text-anchor="start" x="1902" y="-78.5" font-family="Helvetica,sans-Serif" font-size="10.00">Hermes/_base/OsApi</text>
<text text-anchor="middle" x="1966" y="-67.5" font-family="Helvetica,sans-Serif" font-size="10.00">/Flags/NameInfoFlags.hpp</text>
</a>
</g>
</g>
<!-- Node11&#45;&gt;Node26 -->
<g id="edge31_Node000011_Node000026" class="edge">
<title>Node11&#45;&gt;Node26</title>
<g id="a_edge31_Node000011_Node000026"><a xlink:title=" ">
<path fill="none" stroke="#63b8ff" d="M1835.99,-131.94C1861.28,-121.15 1896.38,-106.18 1923.74,-94.52"/>
<polygon fill="#63b8ff" stroke="#63b8ff" points="1925.24,-97.69 1933.06,-90.54 1922.49,-91.25 1925.24,-97.69"/>
</a>
</g>
</g>
<!-- Node27 -->
<g id="Node000027" class="node">
<title>Node27</title>
<g id="a_Node000027"><a xlink:title=" ">
<polygon fill="#e0e0e0" stroke="#999999" points="2644,-90.5 2468,-90.5 2468,-60.5 2644,-60.5 2644,-90.5"/>
<text text-anchor="start" x="2476" y="-78.5" font-family="Helvetica,sans-Serif" font-size="10.00">Hermes/_base/OsApi</text>
<text text-anchor="middle" x="2556" y="-67.5" font-family="Helvetica,sans-Serif" font-size="10.00">/Flags/Linux/CredentialFlags.hpp</text>
</a>
</g>
</g>
<!-- Node11&#45;&gt;Node27 -->
<g id="edge33_Node000011_Node000027" class="edge">
<title>Node11&#45;&gt;Node27</title>
<g id="a_edge33_Node000011_Node000027"><a xlink:title=" ">
<path fill="none" stroke="#63b8ff" d="M1862.06,-143.92C1977.31,-139.33 2240.06,-126.23 2459,-96 2466.54,-94.96 2474.37,-93.69 2482.17,-92.31"/>
<polygon fill="#63b8ff" stroke="#63b8ff" points="2482.8,-95.76 2492.01,-90.51 2481.54,-88.87 2482.8,-95.76"/>
</a>
</g>
</g>
<!-- Node28 -->
<g id="Node000028" class="node">
<title>Node28</title>
<g id="a_Node000028"><a xlink:title=" ">
<polygon fill="#e0e0e0" stroke="#999999" points="2835.5,-96 2662.5,-96 2662.5,-55 2835.5,-55 2835.5,-96"/>
<text text-anchor="start" x="2670.5" y="-84" font-family="Helvetica,sans-Serif" font-size="10.00">Hermes/_base/OsApi</text>
<text text-anchor="start" x="2670.5" y="-73" font-family="Helvetica,sans-Serif" font-size="10.00">/Flags/Linux/SupportedProtocols</text>
<text text-anchor="middle" x="2749" y="-62" font-family="Helvetica,sans-Serif" font-size="10.00">Flags.hpp</text>
</a>
</g>
</g>
<!-- Node11&#45;&gt;Node28 -->
<g id="edge34_Node000011_Node000028" class="edge">
<title>Node11&#45;&gt;Node28</title>
<g id="a_edge34_Node000011_Node000028"><a xlink:title=" ">
<path fill="none" stroke="#63b8ff" d="M1862.01,-145.4C1999.07,-143.39 2349.64,-134.69 2652.2,-95.99"/>
<polygon fill="#63b8ff" stroke="#63b8ff" points="2653.02,-99.41 2662.49,-94.66 2652.12,-92.47 2653.02,-99.41"/>
</a>
</g>
</g>
<!-- Node29 -->
<g id="Node000029" class="node">
<title>Node29</title>
<g id="a_Node000029"><a xlink:title=" ">
<polygon fill="#e0e0e0" stroke="#999999" points="3048,-90.5 2854,-90.5 2854,-60.5 3048,-60.5 3048,-90.5"/>
<text text-anchor="start" x="2862" y="-78.5" font-family="Helvetica,sans-Serif" font-size="10.00">Hermes/_base/OsApi</text>
<text text-anchor="middle" x="2951" y="-67.5" font-family="Helvetica,sans-Serif" font-size="10.00">/Flags/Linux/SChannelCredFlags.hpp</text>
</a>
</g>
</g>
<!-- Node11&#45;&gt;Node29 -->
<g id="edge35_Node000011_Node000029" class="edge">
<title>Node11&#45;&gt;Node29</title>
<g id="a_edge35_Node000011_Node000029"><a xlink:title=" ">
<path fill="none" stroke="#63b8ff" d="M1862.27,-145.93C2021.69,-145.14 2472.8,-138.97 2845,-96 2853.87,-94.98 2863.12,-93.66 2872.3,-92.19"/>
<polygon fill="#63b8ff" stroke="#63b8ff" points="2872.92,-95.63 2882.21,-90.54 2871.77,-88.73 2872.92,-95.63"/>
</a>
</g>
</g>
<!-- Node18 -->
<g id="Node000018" class="node">
<title>Node18</title>
<g id="a_Node000018"><a xlink:title=" ">
<polygon fill="#e0e0e0" stroke="#999999" points="2230,-19 2180,-19 2180,0 2230,0 2230,-19"/>
<text text-anchor="middle" x="2205" y="-7" font-family="Helvetica,sans-Serif" font-size="10.00">cstdint</text>
</a>
</g>
</g>
<!-- Node17&#45;&gt;Node18 -->
<g id="edge17_Node000017_Node000018" class="edge">
<title>Node17&#45;&gt;Node18</title>
<g id="a_edge17_Node000017_Node000018"><a xlink:title=" ">
<path fill="none" stroke="#63b8ff" d="M2205,-60.3C2205,-51.2 2205,-39.29 2205,-29.4"/>
<polygon fill="#63b8ff" stroke="#63b8ff" points="2208.5,-29.34 2205,-19.34 2201.5,-29.34 2208.5,-29.34"/>
</a>
</g>
</g>
<!-- Node19&#45;&gt;Node12 -->
<g id="edge20_Node000019_Node000012" class="edge">
<title>Node19&#45;&gt;Node12</title>
<g id="a_edge20_Node000019_Node000012"><a xlink:title=" ">
<path fill="none" stroke="#63b8ff" d="M1397.05,-60.44C1389.7,-58.47 1382.17,-56.58 1375,-55 1295.47,-37.46 1201.69,-23.9 1145.91,-16.57"/>
<polygon fill="#63b8ff" stroke="#63b8ff" points="1146.31,-13.09 1135.95,-15.27 1145.41,-20.04 1146.31,-13.09"/>
</a>
</g>
</g>
<!-- Node19&#45;&gt;Node13 -->
<g id="edge21_Node000019_Node000013" class="edge">
<title>Node19&#45;&gt;Node13</title>
<g id="a_edge21_Node000019_Node000013"><a xlink:title=" ">
<path fill="none" stroke="#63b8ff" d="M1463.75,-60.3C1478.26,-49.87 1497.9,-35.74 1512.56,-25.19"/>
<polygon fill="#63b8ff" stroke="#63b8ff" points="1514.88,-27.84 1520.96,-19.16 1510.8,-22.16 1514.88,-27.84"/>
</a>
</g>
</g>
<!-- Node20 -->
<g id="Node000020" class="node">
<title>Node20</title>
<g id="a_Node000020"><a xlink:title=" ">
<polygon fill="#e0e0e0" stroke="#999999" points="1478.5,-19 1405.5,-19 1405.5,0 1478.5,0 1478.5,-19"/>
<text text-anchor="middle" x="1442" y="-7" font-family="Helvetica,sans-Serif" font-size="10.00">string_view</text>
</a>
</g>
</g>
<!-- Node19&#45;&gt;Node20 -->
<g id="edge19_Node000019_Node000020" class="edge">
<title>Node19&#45;&gt;Node20</title>
<g id="a_edge19_Node000019_Node000020"><a xlink:title=" ">
<path fill="none" stroke="#63b8ff" d="M1443.56,-60.3C1443.27,-51.2 1442.9,-39.29 1442.59,-29.4"/>
<polygon fill="#63b8ff" stroke="#63b8ff" points="1446.09,-29.23 1442.28,-19.34 1439.09,-29.45 1446.09,-29.23"/>
</a>
</g>
</g>
<!-- Node21&#45;&gt;Node12 -->
<g id="edge23_Node000021_Node000012" class="edge">
<title>Node21&#45;&gt;Node12</title>
<g id="a_edge23_Node000021_Node000012"><a xlink:title=" ">
<path fill="none" stroke="#63b8ff" d="M942.45,-60.45C977.94,-48.98 1027.51,-32.96 1060.86,-22.18"/>
<polygon fill="#63b8ff" stroke="#63b8ff" points="1062.21,-25.42 1070.65,-19.02 1060.06,-18.76 1062.21,-25.42"/>
</a>
</g>
</g>
<!-- Node22&#45;&gt;Node13 -->
<g id="edge25_Node000022_Node000013" class="edge">
<title>Node22&#45;&gt;Node13</title>
<g id="a_edge25_Node000022_Node000013"><a xlink:title=" ">
<path fill="none" stroke="#63b8ff" d="M1628.23,-60.45C1607.4,-49.53 1578.69,-34.47 1558.26,-23.75"/>
<polygon fill="#63b8ff" stroke="#63b8ff" points="1559.72,-20.56 1549.24,-19.02 1556.47,-26.76 1559.72,-20.56"/>
</a>
</g>
</g>
<!-- Node23&#45;&gt;Node12 -->
<g id="edge27_Node000023_Node000012" class="edge">
<title>Node23&#45;&gt;Node12</title>
<g id="a_edge27_Node000023_Node000012"><a xlink:title=" ">
<path fill="none" stroke="#63b8ff" d="M1097,-60.3C1097,-51.2 1097,-39.29 1097,-29.4"/>
<polygon fill="#63b8ff" stroke="#63b8ff" points="1100.5,-29.34 1097,-19.34 1093.5,-29.34 1100.5,-29.34"/>
</a>
</g>
</g>
<!-- Node24&#45;&gt;Node12 -->
<g id="edge29_Node000024_Node000012" class="edge">
<title>Node24&#45;&gt;Node12</title>
<g id="a_edge29_Node000024_Node000012"><a xlink:title=" ">
<path fill="none" stroke="#63b8ff" d="M1245.3,-60.45C1211.4,-49.03 1164.09,-33.1 1132.1,-22.32"/>
<polygon fill="#63b8ff" stroke="#63b8ff" points="1132.88,-18.89 1122.29,-19.02 1130.65,-25.53 1132.88,-18.89"/>
</a>
</g>
</g>
<!-- Node26&#45;&gt;Node15 -->
<g id="edge32_Node000026_Node000015" class="edge">
<title>Node26&#45;&gt;Node15</title>
<g id="a_edge32_Node000026_Node000015"><a xlink:title=" ">
<path fill="none" stroke="#63b8ff" d="M1954.9,-60.3C1947.34,-50.61 1937.28,-37.74 1929.29,-27.51"/>
<polygon fill="#63b8ff" stroke="#63b8ff" points="1931.82,-25.07 1922.91,-19.34 1926.31,-29.38 1931.82,-25.07"/>
</a>
</g>
</g>
</g>
</svg>
