<?xml version="1.0" encoding="UTF-8" standalone="no"?>
<!DOCTYPE svg PUBLIC "-//W3C//DTD SVG 1.1//EN"
 "http://www.w3.org/Graphics/SVG/1.1/DTD/svg11.dtd">
<!-- Generated by graphviz version 2.43.0 (0)
 -->
<!-- Title: include/Hermes/Socket/_base.hpp Pages: 1 -->
<svg width="2025pt" height="489pt"
 viewBox="0.00 0.00 2024.84 489.00" xmlns="http://www.w3.org/2000/svg" xmlns:xlink="http://www.w3.org/1999/xlink">
<g id="graph0" class="graph" transform="scale(1 1) rotate(0) translate(4 485)">
<title>include/Hermes/Socket/_base.hpp</title>
<!-- Node1 -->
<g id="Node000001" class="node">
<title>Node1</title>
<g id="a_Node000001"><a xlink:title=" ">
<polygon fill="#999999" stroke="#666666" points="1057.34,-481 929.34,-481 929.34,-451 1057.34,-451 1057.34,-481"/>
<text text-anchor="start" x="937.34" y="-469" font-family="Helvetica,sans-Serif" font-size="10.00">include/Hermes/Socket</text>
<text text-anchor="middle" x="993.34" y="-458" font-family="Helvetica,sans-Serif" font-size="10.00">/_base.hpp</text>
</a>
</g>
</g>
<!-- Node2 -->
<g id="Node000002" class="node">
<title>Node2</title>
<g id="a_Node000002"><a xlink:href="_default_async_accept_policy_8hpp.html" target="_top" xlink:title=" ">
<polygon fill="white" stroke="#666666" points="1319.84,-261 1164.84,-261 1164.84,-220 1319.84,-220 1319.84,-261"/>
<text text-anchor="start" x="1172.84" y="-249" font-family="Helvetica,sans-Serif" font-size="10.00">include/Hermes/Socket</text>
<text text-anchor="start" x="1172.84" y="-238" font-family="Helvetica,sans-Serif" font-size="10.00">/Async/_base/Accept/Default</text>
<text text-anchor="middle" x="1242.34" y="-227" font-family="Helvetica,sans-Serif" font-size="10.00">AsyncAcceptPolicy.hpp</text>
</a>
</g>
</g>
<!-- Node1&#45;&gt;Node2 -->
<g id="edge1_Node000001_Node000002" class="edge">
<title>Node1&#45;&gt;Node2</title>
<g id="a_edge1_Node000001_Node000002"><a xlink:title=" ">
<path fill="none" stroke="#63b8ff" d="M1020.94,-444.73C1032.68,-435.87 1046.39,-425.18 1058.34,-415 1091.09,-387.09 1181.55,-300.21 1222.15,-261.02"/>
<polygon fill="#63b8ff" stroke="#63b8ff" points="1018.7,-442.04 1012.79,-450.83 1022.9,-447.64 1018.7,-442.04"/>
</a>
</g>
</g>
<!-- Node5 -->
<g id="Node000005" class="node">
<title>Node5</title>
<g id="a_Node000005"><a xlink:href="_tls_async_accept_policy_8hpp.html" target="_top" xlink:title=" ">
<polygon fill="white" stroke="#666666" points="1338.84,-184 1175.84,-184 1175.84,-143 1338.84,-143 1338.84,-184"/>
<text text-anchor="start" x="1183.84" y="-172" font-family="Helvetica,sans-Serif" font-size="10.00">include/Hermes/Socket</text>
<text text-anchor="start" x="1183.84" y="-161" font-family="Helvetica,sans-Serif" font-size="10.00">/Async/_base/Accept/TlsAsync</text>
<text text-anchor="middle" x="1257.34" y="-150" font-family="Helvetica,sans-Serif" font-size="10.00">AcceptPolicy.hpp</text>
</a>
</g>
</g>
<!-- Node1&#45;&gt;Node5 -->
<g id="edge6_Node000001_Node000005" class="edge">
<title>Node1&#45;&gt;Node5</title>
<g id="a_edge6_Node000001_Node000005"><a xlink:title=" ">
<path fill="none" stroke="#63b8ff" d="M1067.63,-465.17C1195.53,-460.8 1452.58,-430.31 1546.34,-261 1555.17,-245.06 1557.95,-234.05 1546.34,-220 1533.1,-203.97 1419.89,-185.89 1339.17,-174.85"/>
<polygon fill="#63b8ff" stroke="#63b8ff" points="1067.43,-461.68 1057.53,-465.47 1067.63,-468.67 1067.43,-461.68"/>
</a>
</g>
</g>
<!-- Node6 -->
<g id="Node000006" class="node">
<title>Node6</title>
<g id="a_Node000006"><a xlink:href="_default_async_connect_policy_8hpp.html" target="_top" xlink:title=" ">
<polygon fill="white" stroke="#666666" points="518.84,-184 345.84,-184 345.84,-143 518.84,-143 518.84,-184"/>
<text text-anchor="start" x="353.84" y="-172" font-family="Helvetica,sans-Serif" font-size="10.00">include/Hermes/Socket</text>
<text text-anchor="start" x="353.84" y="-161" font-family="Helvetica,sans-Serif" font-size="10.00">/Async/_base/Connection</text>
<text text-anchor="middle" x="432.34" y="-150" font-family="Helvetica,sans-Serif" font-size="10.00">/DefaultAsyncConnectPolicy.hpp</text>
</a>
</g>
</g>
<!-- Node1&#45;&gt;Node6 -->
<g id="edge7_Node000001_Node000006" class="edge">
<title>Node1&#45;&gt;Node6</title>
<g id="a_edge7_Node000001_Node000006"><a xlink:title=" ">
<path fill="none" stroke="#63b8ff" d="M918.67,-462.73C769.63,-457.61 445.92,-443.36 404.34,-415 328.63,-363.37 291.72,-299.48 337.34,-220 346.37,-204.26 361.78,-192.56 377.6,-184.07"/>
<polygon fill="#63b8ff" stroke="#63b8ff" points="918.98,-466.24 929.09,-463.08 919.22,-459.25 918.98,-466.24"/>
</a>
</g>
</g>
<!-- Node8 -->
<g id="Node000008" class="node">
<title>Node8</title>
<g id="a_Node000008"><a xlink:href="_tls_async_connect_policy_8hpp.html" target="_top" xlink:title=" ">
<polygon fill="white" stroke="#666666" points="404.34,-107 252.34,-107 252.34,-66 404.34,-66 404.34,-107"/>
<text text-anchor="start" x="260.34" y="-95" font-family="Helvetica,sans-Serif" font-size="10.00">include/Hermes/Socket</text>
<text text-anchor="start" x="260.34" y="-84" font-family="Helvetica,sans-Serif" font-size="10.00">/Async/_base/Connection</text>
<text text-anchor="middle" x="328.34" y="-73" font-family="Helvetica,sans-Serif" font-size="10.00">/TlsAsyncConnectPolicy.hpp</text>
</a>
</g>
</g>
<!-- Node1&#45;&gt;Node8 -->
<g id="edge11_Node000001_Node000008" class="edge">
<title>Node1&#45;&gt;Node8</title>
<g id="a_edge11_Node000001_Node000008"><a xlink:title=" ">
<path fill="none" stroke="#63b8ff" d="M918.84,-463.51C711.79,-459 142.76,-444.03 115.34,-415 72.86,-370.03 -121.59,-449.87 116.34,-143 133.18,-121.28 198.56,-106.39 252.31,-97.55"/>
<polygon fill="#63b8ff" stroke="#63b8ff" points="918.94,-467.01 929.01,-463.73 919.09,-460.01 918.94,-467.01"/>
</a>
</g>
</g>
<!-- Node9 -->
<g id="Node000009" class="node">
<title>Node9</title>
<g id="a_Node000009"><a xlink:href="_default_async_transfer_policy_8hpp.html" target="_top" xlink:title=" ">
<polygon fill="white" stroke="#666666" points="557.84,-338 384.84,-338 384.84,-297 557.84,-297 557.84,-338"/>
<text text-anchor="start" x="392.84" y="-326" font-family="Helvetica,sans-Serif" font-size="10.00">include/Hermes/Socket</text>
<text text-anchor="start" x="392.84" y="-315" font-family="Helvetica,sans-Serif" font-size="10.00">/Async/_base/Transfer</text>
<text text-anchor="middle" x="471.34" y="-304" font-family="Helvetica,sans-Serif" font-size="10.00">/DefaultAsyncTransferPolicy.hpp</text>
</a>
</g>
</g>
<!-- Node1&#45;&gt;Node9 -->
<g id="edge12_Node000001_Node000009" class="edge">
<title>Node1&#45;&gt;Node9</title>
<g id="a_edge12_Node000001_Node000009"><a xlink:title=" ">
<path fill="none" stroke="#63b8ff" d="M918.86,-462.39C846.51,-458 734.41,-446.29 642.34,-415 587.96,-396.52 531.08,-360.56 498.55,-338.14"/>
<polygon fill="#63b8ff" stroke="#63b8ff" points="919.06,-465.9 929.24,-462.98 919.46,-458.91 919.06,-465.9"/>
</a>
</g>
</g>
<!-- Node10 -->
<g id="Node000010" class="node">
<title>Node10</title>
<g id="a_Node000010"><a xlink:href="_tls_async_transfer_policy_8hpp.html" target="_top" xlink:title=" ">
<polygon fill="white" stroke="#666666" points="961.84,-261 810.84,-261 810.84,-220 961.84,-220 961.84,-261"/>
<text text-anchor="start" x="818.84" y="-249" font-family="Helvetica,sans-Serif" font-size="10.00">include/Hermes/Socket</text>
<text text-anchor="start" x="818.84" y="-238" font-family="Helvetica,sans-Serif" font-size="10.00">/Async/_base/Transfer</text>
<text text-anchor="middle" x="886.34" y="-227" font-family="Helvetica,sans-Serif" font-size="10.00">/TlsAsyncTransferPolicy.hpp</text>
</a>
</g>
</g>
<!-- Node1&#45;&gt;Node10 -->
<g id="edge15_Node000001_Node000010" class="edge">
<title>Node1&#45;&gt;Node10</title>
<g id="a_edge15_Node000001_Node000010"><a xlink:title=" ">
<path fill="none" stroke="#63b8ff" d="M977.04,-442.53C959.78,-417.89 932.68,-376.69 915.34,-338 903.89,-312.46 895.43,-281.15 890.69,-261.26"/>
<polygon fill="#63b8ff" stroke="#63b8ff" points="974.28,-444.69 982.92,-450.82 979.99,-440.64 974.28,-444.69"/>
</a>
</g>
</g>
<!-- Node11 -->
<g id="Node000011" class="node">
<title>Node11</title>
<g id="a_Node000011"><a xlink:href="_default_socket_data_8hpp.html" target="_top" xlink:title=" ">
<polygon fill="white" stroke="#666666" points="830.34,-409.5 672.34,-409.5 672.34,-379.5 830.34,-379.5 830.34,-409.5"/>
<text text-anchor="start" x="680.34" y="-397.5" font-family="Helvetica,sans-Serif" font-size="10.00">include/Hermes/Socket</text>
<text text-anchor="middle" x="751.34" y="-386.5" font-family="Helvetica,sans-Serif" font-size="10.00">/Data/DefaultSocketData.hpp</text>
</a>
</g>
</g>
<!-- Node1&#45;&gt;Node11 -->
<g id="edge18_Node000001_Node000011" class="edge">
<title>Node1&#45;&gt;Node11</title>
<g id="a_edge18_Node000001_Node000011"><a xlink:title=" ">
<path fill="none" stroke="#63b8ff" d="M934.73,-448.17C893.55,-436.34 839.09,-420.7 800.24,-409.54"/>
<polygon fill="#63b8ff" stroke="#63b8ff" points="933.79,-451.54 944.37,-450.94 935.72,-444.81 933.79,-451.54"/>
</a>
</g>
</g>
<!-- Node12 -->
<g id="Node000012" class="node">
<title>Node12</title>
<g id="a_Node000012"><a xlink:href="_default_accept_policy_8hpp.html" target="_top" xlink:title=" ">
<polygon fill="white" stroke="#666666" points="1376.34,-338 1194.34,-338 1194.34,-297 1376.34,-297 1376.34,-338"/>
<text text-anchor="start" x="1202.34" y="-326" font-family="Helvetica,sans-Serif" font-size="10.00">include/Hermes/Socket</text>
<text text-anchor="start" x="1202.34" y="-315" font-family="Helvetica,sans-Serif" font-size="10.00">/Sync/_base/Accept/DefaultAccept</text>
<text text-anchor="middle" x="1285.34" y="-304" font-family="Helvetica,sans-Serif" font-size="10.00">Policy.hpp</text>
</a>
</g>
</g>
<!-- Node1&#45;&gt;Node12 -->
<g id="edge49_Node000001_Node000012" class="edge">
<title>Node1&#45;&gt;Node12</title>
<g id="a_edge49_Node000001_Node000012"><a xlink:title=" ">
<path fill="none" stroke="#63b8ff" d="M1067.55,-453.7C1103.2,-446.19 1145.61,-434.08 1180.34,-415 1216.58,-395.1 1250.22,-360.09 1269.23,-338.16"/>
<polygon fill="#63b8ff" stroke="#63b8ff" points="1066.79,-450.28 1057.69,-455.7 1068.19,-457.14 1066.79,-450.28"/>
</a>
</g>
</g>
<!-- Node15 -->
<g id="Node000015" class="node">
<title>Node15</title>
<g id="a_Node000015"><a xlink:href="_tls_accept_policy_8hpp.html" target="_top" xlink:title=" ">
<polygon fill="white" stroke="#666666" points="1537.84,-261 1376.84,-261 1376.84,-220 1537.84,-220 1537.84,-261"/>
<text text-anchor="start" x="1384.84" y="-249" font-family="Helvetica,sans-Serif" font-size="10.00">include/Hermes/Socket</text>
<text text-anchor="start" x="1384.84" y="-238" font-family="Helvetica,sans-Serif" font-size="10.00">/Sync/_base/Accept/TlsAccept</text>
<text text-anchor="middle" x="1457.34" y="-227" font-family="Helvetica,sans-Serif" font-size="10.00">Policy.hpp</text>
</a>
</g>
</g>
<!-- Node1&#45;&gt;Node15 -->
<g id="edge50_Node000001_Node000015" class="edge">
<title>Node1&#45;&gt;Node15</title>
<g id="a_edge50_Node000001_Node000015"><a xlink:title=" ">
<path fill="none" stroke="#63b8ff" d="M1067.56,-457.21C1152.63,-444.9 1292.26,-413.94 1385.34,-338 1412.06,-316.2 1434.25,-282.41 1446.64,-261.15"/>
<polygon fill="#63b8ff" stroke="#63b8ff" points="1066.88,-453.77 1057.46,-458.62 1067.85,-460.71 1066.88,-453.77"/>
</a>
</g>
</g>
<!-- Node17 -->
<g id="Node000017" class="node">
<title>Node17</title>
<g id="a_Node000017"><a xlink:href="_default_connect_policy_8hpp.html" target="_top" xlink:title=" ">
<polygon fill="white" stroke="#666666" points="720.34,-338 576.34,-338 576.34,-297 720.34,-297 720.34,-338"/>
<text text-anchor="start" x="584.34" y="-326" font-family="Helvetica,sans-Serif" font-size="10.00">include/Hermes/Socket</text>
<text text-anchor="start" x="584.34" y="-315" font-family="Helvetica,sans-Serif" font-size="10.00">/Sync/_base/Connection</text>
<text text-anchor="middle" x="648.34" y="-304" font-family="Helvetica,sans-Serif" font-size="10.00">/DefaultConnectPolicy.hpp</text>
</a>
</g>
</g>
<!-- Node1&#45;&gt;Node17 -->
<g id="edge51_Node000001_Node000017" class="edge">
<title>Node1&#45;&gt;Node17</title>
<g id="a_edge51_Node000001_Node000017"><a xlink:title=" ">
<path fill="none" stroke="#63b8ff" d="M918.95,-463.65C832.82,-460.44 698.3,-449.83 663.34,-415 643.28,-395.02 643.01,-360.04 645.24,-338.13"/>
<polygon fill="#63b8ff" stroke="#63b8ff" points="919.08,-467.16 929.2,-464.01 919.33,-460.16 919.08,-467.16"/>
</a>
</g>
</g>
<!-- Node19 -->
<g id="Node000019" class="node">
<title>Node19</title>
<g id="a_Node000019"><a xlink:href="_tls_connect_policy_8hpp.html" target="_top" xlink:title=" ">
<polygon fill="white" stroke="#666666" points="478.34,-261 346.34,-261 346.34,-220 478.34,-220 478.34,-261"/>
<text text-anchor="start" x="354.34" y="-249" font-family="Helvetica,sans-Serif" font-size="10.00">include/Hermes/Socket</text>
<text text-anchor="start" x="354.34" y="-238" font-family="Helvetica,sans-Serif" font-size="10.00">/Sync/_base/Connection</text>
<text text-anchor="middle" x="412.34" y="-227" font-family="Helvetica,sans-Serif" font-size="10.00">/TlsConnectPolicy.hpp</text>
</a>
</g>
</g>
<!-- Node1&#45;&gt;Node19 -->
<g id="edge52_Node000001_Node000019" class="edge">
<title>Node1&#45;&gt;Node19</title>
<g id="a_edge52_Node000001_Node000019"><a xlink:title=" ">
<path fill="none" stroke="#63b8ff" d="M919.03,-463.35C830.17,-459.85 677.6,-448.93 551.34,-415 468.88,-392.84 422.07,-409.46 375.34,-338 359.43,-313.67 378.47,-281.49 394.6,-261.14"/>
<polygon fill="#63b8ff" stroke="#63b8ff" points="919.16,-466.86 929.28,-463.74 919.42,-459.87 919.16,-466.86"/>
</a>
</g>
</g>
<!-- Node21 -->
<g id="Node000021" class="node">
<title>Node21</title>
<g id="a_Node000021"><a xlink:href="_default_transfer_policy_8hpp.html" target="_top" xlink:title=" ">
<polygon fill="white" stroke="#666666" points="753.84,-261 610.84,-261 610.84,-220 753.84,-220 753.84,-261"/>
<text text-anchor="start" x="618.84" y="-249" font-family="Helvetica,sans-Serif" font-size="10.00">include/Hermes/Socket</text>
<text text-anchor="start" x="618.84" y="-238" font-family="Helvetica,sans-Serif" font-size="10.00">/Sync/_base/Transfer</text>
<text text-anchor="middle" x="682.34" y="-227" font-family="Helvetica,sans-Serif" font-size="10.00">/DefaultTransferPolicy.hpp</text>
</a>
</g>
</g>
<!-- Node1&#45;&gt;Node21 -->
<g id="edge53_Node000001_Node000021" class="edge">
<title>Node1&#45;&gt;Node21</title>
<g id="a_edge53_Node000001_Node000021"><a xlink:title=" ">
<path fill="none" stroke="#63b8ff" d="M967.31,-444.39C911.56,-400.24 785.21,-300.27 780.34,-297 761.03,-284.02 738.49,-271.12 719.9,-261.02"/>
<polygon fill="#63b8ff" stroke="#63b8ff" points="965.3,-447.26 975.32,-450.73 969.65,-441.77 965.3,-447.26"/>
</a>
</g>
</g>
<!-- Node22 -->
<g id="Node000022" class="node">
<title>Node22</title>
<g id="a_Node000022"><a xlink:href="_tls_socket_data_8hpp.html" target="_top" xlink:title=" ">
<polygon fill="white" stroke="#666666" points="1061.84,-332.5 924.84,-332.5 924.84,-302.5 1061.84,-302.5 1061.84,-332.5"/>
<text text-anchor="start" x="932.84" y="-320.5" font-family="Helvetica,sans-Serif" font-size="10.00">include/Hermes/Socket</text>
<text text-anchor="middle" x="993.34" y="-309.5" font-family="Helvetica,sans-Serif" font-size="10.00">/Data/TlsSocketData.hpp</text>
</a>
</g>
</g>
<!-- Node1&#45;&gt;Node22 -->
<g id="edge40_Node000001_Node000022" class="edge">
<title>Node1&#45;&gt;Node22</title>
<g id="a_edge40_Node000001_Node000022"><a xlink:title=" ">
<path fill="none" stroke="#63b8ff" d="M993.34,-440.65C993.34,-409.82 993.34,-357.72 993.34,-332.72"/>
<polygon fill="#63b8ff" stroke="#63b8ff" points="989.84,-440.95 993.34,-450.95 996.84,-440.95 989.84,-440.95"/>
</a>
</g>
</g>
<!-- Node23 -->
<g id="Node000023" class="node">
<title>Node23</title>
<g id="a_Node000023"><a xlink:href="_tls_transfer_policy_8hpp.html" target="_top" xlink:title=" ">
<polygon fill="white" stroke="#666666" points="1108.34,-261 980.34,-261 980.34,-220 1108.34,-220 1108.34,-261"/>
<text text-anchor="start" x="988.34" y="-249" font-family="Helvetica,sans-Serif" font-size="10.00">include/Hermes/Socket</text>
<text text-anchor="start" x="988.34" y="-238" font-family="Helvetica,sans-Serif" font-size="10.00">/Sync/_base/Transfer</text>
<text text-anchor="middle" x="1044.34" y="-227" font-family="Helvetica,sans-Serif" font-size="10.00">/TlsTransferPolicy.hpp</text>
</a>
</g>
</g>
<!-- Node1&#45;&gt;Node23 -->
<g id="edge54_Node000001_Node000023" class="edge">
<title>Node1&#45;&gt;Node23</title>
<g id="a_edge54_Node000001_Node000023"><a xlink:title=" ">
<path fill="none" stroke="#63b8ff" d="M1011.97,-442.91C1030.91,-418.89 1059.03,-378.47 1070.34,-338 1075.24,-320.45 1074.3,-314.79 1070.34,-297 1067.54,-284.43 1061.58,-271.35 1056.07,-261.04"/>
<polygon fill="#63b8ff" stroke="#63b8ff" points="1009.01,-441.01 1005.45,-450.99 1014.46,-445.41 1009.01,-441.01"/>
</a>
</g>
</g>
<!-- Node24 -->
<g id="Node000024" class="node">
<title>Node24</title>
<g id="a_Node000024"><a xlink:href="_i_tls_accept_state_machine_8hpp.html" target="_top" xlink:title=" ">
<polygon fill="white" stroke="#666666" points="1674.84,-415 1511.84,-415 1511.84,-374 1674.84,-374 1674.84,-415"/>
<text text-anchor="start" x="1519.84" y="-403" font-family="Helvetica,sans-Serif" font-size="10.00">include/Hermes/Socket</text>
<text text-anchor="start" x="1519.84" y="-392" font-family="Helvetica,sans-Serif" font-size="10.00">/_base/Accept/ITlsAcceptState</text>
<text text-anchor="middle" x="1593.34" y="-381" font-family="Helvetica,sans-Serif" font-size="10.00">Machine.hpp</text>
</a>
</g>
</g>
<!-- Node1&#45;&gt;Node24 -->
<g id="edge55_Node000001_Node000024" class="edge">
<title>Node1&#45;&gt;Node24</title>
<g id="a_edge55_Node000001_Node000024"><a xlink:title=" ">
<path fill="none" stroke="#63b8ff" d="M1067.81,-459.99C1166.41,-452.81 1345.55,-437.88 1497.34,-415 1502.05,-414.29 1506.88,-413.5 1511.74,-412.66"/>
<polygon fill="#63b8ff" stroke="#63b8ff" points="1067.37,-456.51 1057.64,-460.72 1067.87,-463.49 1067.37,-456.51"/>
</a>
</g>
</g>
<!-- Node25 -->
<g id="Node000025" class="node">
<title>Node25</title>
<g id="a_Node000025"><a xlink:href="_i_tls_connect_state_machine_8hpp.html" target="_top" xlink:title=" ">
<polygon fill="white" stroke="#666666" points="290.34,-415 124.34,-415 124.34,-374 290.34,-374 290.34,-415"/>
<text text-anchor="start" x="132.34" y="-403" font-family="Helvetica,sans-Serif" font-size="10.00">include/Hermes/Socket</text>
<text text-anchor="start" x="132.34" y="-392" font-family="Helvetica,sans-Serif" font-size="10.00">/_base/Connection/ITlsConnect</text>
<text text-anchor="middle" x="207.34" y="-381" font-family="Helvetica,sans-Serif" font-size="10.00">StateMachine.hpp</text>
</a>
</g>
</g>
<!-- Node1&#45;&gt;Node25 -->
<g id="edge57_Node000001_Node000025" class="edge">
<title>Node1&#45;&gt;Node25</title>
<g id="a_edge57_Node000001_Node000025"><a xlink:title=" ">
<path fill="none" stroke="#63b8ff" d="M918.58,-462.66C791.75,-458 526.55,-445.28 304.34,-415 299.83,-414.39 295.21,-413.69 290.56,-412.93"/>
<polygon fill="#63b8ff" stroke="#63b8ff" points="918.82,-466.17 928.94,-463.03 919.07,-459.17 918.82,-466.17"/>
</a>
</g>
</g>
<!-- Node26 -->
<g id="Node000026" class="node">
<title>Node26</title>
<g id="a_Node000026"><a xlink:href="_i_tls_transfer_state_machine_8hpp.html" target="_top" xlink:title=" ">
<polygon fill="white" stroke="#666666" points="1879.84,-415 1730.84,-415 1730.84,-374 1879.84,-374 1879.84,-415"/>
<text text-anchor="start" x="1738.84" y="-403" font-family="Helvetica,sans-Serif" font-size="10.00">include/Hermes/Socket</text>
<text text-anchor="start" x="1738.84" y="-392" font-family="Helvetica,sans-Serif" font-size="10.00">/_base/Transfer/ITlsTransfer</text>
<text text-anchor="middle" x="1805.34" y="-381" font-family="Helvetica,sans-Serif" font-size="10.00">StateMachine.hpp</text>
</a>
</g>
</g>
<!-- Node1&#45;&gt;Node26 -->
<g id="edge59_Node000001_Node000026" class="edge">
<title>Node1&#45;&gt;Node26</title>
<g id="a_edge59_Node000001_Node000026"><a xlink:title=" ">
<path fill="none" stroke="#63b8ff" d="M1067.97,-463.51C1199.7,-460.07 1481.8,-449.04 1717.34,-415 1721.68,-414.37 1726.12,-413.65 1730.59,-412.86"/>
<polygon fill="#63b8ff" stroke="#63b8ff" points="1067.51,-460.02 1057.6,-463.77 1067.69,-467.02 1067.51,-460.02"/>
</a>
</g>
</g>
<!-- Node27 -->
<g id="Node000027" class="node">
<title>Node27</title>
<g id="a_Node000027"><a xlink:href="_tls_transfer_state_machine_8hpp.html" target="_top" xlink:title=" ">
<polygon fill="white" stroke="#666666" points="1828.34,-338 1682.34,-338 1682.34,-297 1828.34,-297 1828.34,-338"/>
<text text-anchor="start" x="1690.34" y="-326" font-family="Helvetica,sans-Serif" font-size="10.00">include/Hermes/Socket</text>
<text text-anchor="start" x="1690.34" y="-315" font-family="Helvetica,sans-Serif" font-size="10.00">/_base/Transfer/TlsTransfer</text>
<text text-anchor="middle" x="1755.34" y="-304" font-family="Helvetica,sans-Serif" font-size="10.00">StateMachine.hpp</text>
</a>
</g>
</g>
<!-- Node1&#45;&gt;Node27 -->
<g id="edge61_Node000001_Node000027" class="edge">
<title>Node1&#45;&gt;Node27</title>
<g id="a_edge61_Node000001_Node000027"><a xlink:title=" ">
<path fill="none" stroke="#63b8ff" d="M1067.77,-463.09C1235.07,-458.29 1630.39,-444 1683.34,-415 1699.47,-406.16 1727.45,-363.87 1743.37,-338.29"/>
<polygon fill="#63b8ff" stroke="#63b8ff" points="1067.46,-459.59 1057.57,-463.37 1067.66,-466.59 1067.46,-459.59"/>
</a>
</g>
</g>
<!-- Node28 -->
<g id="Node000028" class="node">
<title>Node28</title>
<g id="a_Node000028"><a xlink:href="_to_bytes_8hpp.html" target="_top" xlink:title=" ">
<polygon fill="white" stroke="#666666" points="2016.84,-409.5 1897.84,-409.5 1897.84,-379.5 2016.84,-379.5 2016.84,-409.5"/>
<text text-anchor="start" x="1905.84" y="-397.5" font-family="Helvetica,sans-Serif" font-size="10.00">include/Hermes/Utils</text>
<text text-anchor="middle" x="1957.34" y="-386.5" font-family="Helvetica,sans-Serif" font-size="10.00">/ToBytes.hpp</text>
</a>
</g>
</g>
<!-- Node1&#45;&gt;Node28 -->
<g id="edge62_Node000001_Node000028" class="edge">
<title>Node1&#45;&gt;Node28</title>
<g id="a_edge62_Node000001_Node000028"><a xlink:title=" ">
<path fill="none" stroke="#63b8ff" d="M1067.68,-462.95C1252.88,-457.5 1731.2,-441.27 1888.34,-415 1896.44,-413.65 1904.95,-411.69 1913.12,-409.54"/>
<polygon fill="#63b8ff" stroke="#63b8ff" points="1067.39,-459.46 1057.5,-463.25 1067.6,-466.45 1067.39,-459.46"/>
</a>
</g>
</g>
<!-- Node3 -->
<g id="Node000003" class="node">
<title>Node3</title>
<g id="a_Node000003"><a xlink:href="_async_server_socket_8hpp.html" target="_top" xlink:title=" ">
<polygon fill="white" stroke="#666666" points="1014.34,-101.5 848.34,-101.5 848.34,-71.5 1014.34,-71.5 1014.34,-101.5"/>
<text text-anchor="start" x="856.34" y="-89.5" font-family="Helvetica,sans-Serif" font-size="10.00">include/Hermes/Socket</text>
<text text-anchor="middle" x="931.34" y="-78.5" font-family="Helvetica,sans-Serif" font-size="10.00">/Async/AsyncServerSocket.hpp</text>
</a>
</g>
</g>
<!-- Node2&#45;&gt;Node3 -->
<g id="edge2_Node000002_Node000003" class="edge">
<title>Node2&#45;&gt;Node3</title>
<g id="a_edge2_Node000002_Node000003"><a xlink:title=" ">
<path fill="none" stroke="#63b8ff" d="M1154.7,-223.43C1101.94,-212.7 1040.61,-198.02 1017.34,-184 982.36,-162.92 953.65,-123.04 939.97,-101.74"/>
<polygon fill="#63b8ff" stroke="#63b8ff" points="1154.29,-226.92 1164.78,-225.46 1155.67,-220.05 1154.29,-226.92"/>
</a>
</g>
</g>
<!-- Node2&#45;&gt;Node5 -->
<g id="edge4_Node000002_Node000005" class="edge">
<title>Node2&#45;&gt;Node5</title>
<g id="a_edge4_Node000002_Node000005"><a xlink:title=" ">
<path fill="none" stroke="#63b8ff" d="M1248.24,-209.98C1249.98,-201.28 1251.84,-191.98 1253.42,-184.07"/>
<polygon fill="#63b8ff" stroke="#63b8ff" points="1244.81,-209.3 1246.28,-219.79 1251.67,-210.68 1244.81,-209.3"/>
</a>
</g>
</g>
<!-- Node4 -->
<g id="Node000004" class="node">
<title>Node4</title>
<g id="a_Node000004"><a xlink:href="_async_listener_socket_8hpp.html" target="_top" xlink:title=" ">
<polygon fill="white" stroke="#666666" points="1017.84,-30 844.84,-30 844.84,0 1017.84,0 1017.84,-30"/>
<text text-anchor="start" x="852.84" y="-18" font-family="Helvetica,sans-Serif" font-size="10.00">include/Hermes/Socket</text>
<text text-anchor="middle" x="931.34" y="-7" font-family="Helvetica,sans-Serif" font-size="10.00">/Async/AsyncListenerSocket.hpp</text>
</a>
</g>
</g>
<!-- Node3&#45;&gt;Node4 -->
<g id="edge3_Node000003_Node000004" class="edge">
<title>Node3&#45;&gt;Node4</title>
<g id="a_edge3_Node000003_Node000004"><a xlink:title=" ">
<path fill="none" stroke="#63b8ff" d="M931.34,-61.25C931.34,-50.81 931.34,-38.99 931.34,-30.04"/>
<polygon fill="#63b8ff" stroke="#63b8ff" points="927.84,-61.44 931.34,-71.44 934.84,-61.44 927.84,-61.44"/>
</a>
</g>
</g>
<!-- Node5&#45;&gt;Node3 -->
<g id="edge5_Node000005_Node000003" class="edge">
<title>Node5&#45;&gt;Node3</title>
<g id="a_edge5_Node000005_Node000003"><a xlink:title=" ">
<path fill="none" stroke="#63b8ff" d="M1165.67,-141.41C1110.26,-128.66 1041.15,-112.76 992.38,-101.54"/>
<polygon fill="#63b8ff" stroke="#63b8ff" points="1164.97,-144.84 1175.5,-143.67 1166.54,-138.02 1164.97,-144.84"/>
</a>
</g>
</g>
<!-- Node7 -->
<g id="Node000007" class="node">
<title>Node7</title>
<g id="a_Node000007"><a xlink:href="_async_client_socket_8hpp.html" target="_top" xlink:title=" ">
<polygon fill="white" stroke="#666666" points="461.84,-30 298.84,-30 298.84,0 461.84,0 461.84,-30"/>
<text text-anchor="start" x="306.84" y="-18" font-family="Helvetica,sans-Serif" font-size="10.00">include/Hermes/Socket</text>
<text text-anchor="middle" x="380.34" y="-7" font-family="Helvetica,sans-Serif" font-size="10.00">/Async/AsyncClientSocket.hpp</text>
</a>
</g>
</g>
<!-- Node6&#45;&gt;Node7 -->
<g id="edge8_Node000006_Node000007" class="edge">
<title>Node6&#45;&gt;Node7</title>
<g id="a_edge8_Node000006_Node000007"><a xlink:title=" ">
<path fill="none" stroke="#63b8ff" d="M429.48,-132.5C426.89,-113 422.08,-87.33 413.34,-66 407.98,-52.91 399,-39.62 391.76,-30.03"/>
<polygon fill="#63b8ff" stroke="#63b8ff" points="426.03,-133.12 430.7,-142.63 432.98,-132.28 426.03,-133.12"/>
</a>
</g>
</g>
<!-- Node6&#45;&gt;Node8 -->
<g id="edge9_Node000006_Node000008" class="edge">
<title>Node6&#45;&gt;Node8</title>
<g id="a_edge9_Node000006_Node000008"><a xlink:title=" ">
<path fill="none" stroke="#63b8ff" d="M397.11,-137.09C383.56,-127.32 368.31,-116.32 355.62,-107.17"/>
<polygon fill="#63b8ff" stroke="#63b8ff" points="395.13,-139.98 405.29,-142.99 399.22,-134.3 395.13,-139.98"/>
</a>
</g>
</g>
<!-- Node8&#45;&gt;Node7 -->
<g id="edge10_Node000008_Node000007" class="edge">
<title>Node8&#45;&gt;Node7</title>
<g id="a_edge10_Node000008_Node000007"><a xlink:title=" ">
<path fill="none" stroke="#63b8ff" d="M349.15,-57.69C356.25,-48.19 363.89,-37.98 369.84,-30.04"/>
<polygon fill="#63b8ff" stroke="#63b8ff" points="346.29,-55.67 343.1,-65.77 351.89,-59.86 346.29,-55.67"/>
</a>
</g>
</g>
<!-- Node9&#45;&gt;Node3 -->
<g id="edge14_Node000009_Node000003" class="edge">
<title>Node9&#45;&gt;Node3</title>
<g id="a_edge14_Node000009_Node000003"><a xlink:title=" ">
<path fill="none" stroke="#63b8ff" d="M482.12,-287.34C498.4,-247.69 533.23,-177.74 587.34,-143 629.4,-116 760.5,-100.73 848.16,-93.3"/>
<polygon fill="#63b8ff" stroke="#63b8ff" points="478.83,-286.14 478.38,-296.73 485.33,-288.73 478.83,-286.14"/>
</a>
</g>
</g>
<!-- Node9&#45;&gt;Node7 -->
<g id="edge13_Node000009_Node000007" class="edge">
<title>Node9&#45;&gt;Node7</title>
<g id="a_edge13_Node000009_Node000007"><a xlink:title=" ">
<path fill="none" stroke="#63b8ff" d="M374.67,-309.79C290.83,-298.26 174.11,-267.22 116.34,-184 60.27,-103.22 215.46,-52.69 311.2,-30.01"/>
<polygon fill="#63b8ff" stroke="#63b8ff" points="374.36,-313.28 384.73,-311.1 375.27,-306.34 374.36,-313.28"/>
</a>
</g>
</g>
<!-- Node10&#45;&gt;Node3 -->
<g id="edge17_Node000010_Node000003" class="edge">
<title>Node10&#45;&gt;Node3</title>
<g id="a_edge17_Node000010_Node000003"><a xlink:title=" ">
<path fill="none" stroke="#63b8ff" d="M895.06,-210.06C904.72,-177.42 919.9,-126.15 927.17,-101.57"/>
<polygon fill="#63b8ff" stroke="#63b8ff" points="891.61,-209.36 892.13,-219.94 898.33,-211.34 891.61,-209.36"/>
</a>
</g>
</g>
<!-- Node10&#45;&gt;Node7 -->
<g id="edge16_Node000010_Node000007" class="edge">
<title>Node10&#45;&gt;Node7</title>
<g id="a_edge16_Node000010_Node000007"><a xlink:title=" ">
<path fill="none" stroke="#63b8ff" d="M866.96,-211.81C850.49,-190.18 824.99,-160.89 796.34,-143 691.3,-77.4 550.12,-43.73 462.21,-28"/>
<polygon fill="#63b8ff" stroke="#63b8ff" points="864.26,-214.03 873.04,-219.97 869.88,-209.86 864.26,-214.03"/>
</a>
</g>
</g>
<!-- Node11&#45;&gt;Node2 -->
<g id="edge19_Node000011_Node000002" class="edge">
<title>Node11&#45;&gt;Node2</title>
<g id="a_edge19_Node000011_Node000002"><a xlink:title=" ">
<path fill="none" stroke="#63b8ff" d="M840.82,-386.11C905.93,-378.79 995.43,-364.65 1070.34,-338 1098.65,-327.93 1168.98,-286.31 1210.41,-261.14"/>
<polygon fill="#63b8ff" stroke="#63b8ff" points="840.14,-382.67 830.58,-387.23 840.9,-389.62 840.14,-382.67"/>
</a>
</g>
</g>
<!-- Node11&#45;&gt;Node6 -->
<g id="edge20_Node000011_Node000006" class="edge">
<title>Node11&#45;&gt;Node6</title>
<g id="a_edge20_Node000011_Node000006"><a xlink:title=" ">
<path fill="none" stroke="#63b8ff" d="M752.34,-369.23C751.88,-347.54 747.68,-316.28 729.34,-297 688.61,-254.18 655.85,-283.82 601.34,-261 549.76,-239.41 494.24,-205.4 461.43,-184.06"/>
<polygon fill="#63b8ff" stroke="#63b8ff" points="748.84,-369.29 752.3,-379.31 755.84,-369.32 748.84,-369.29"/>
</a>
</g>
</g>
<!-- Node11&#45;&gt;Node9 -->
<g id="edge21_Node000011_Node000009" class="edge">
<title>Node11&#45;&gt;Node9</title>
<g id="a_edge21_Node000011_Node000009"><a xlink:title=" ">
<path fill="none" stroke="#63b8ff" d="M689.26,-376.87C646.42,-365.4 589.29,-350.09 544.28,-338.04"/>
<polygon fill="#63b8ff" stroke="#63b8ff" points="688.44,-380.27 699,-379.48 690.25,-373.51 688.44,-380.27"/>
</a>
</g>
</g>
<!-- Node11&#45;&gt;Node12 -->
<g id="edge22_Node000011_Node000012" class="edge">
<title>Node11&#45;&gt;Node12</title>
<g id="a_edge22_Node000011_Node000012"><a xlink:title=" ">
<path fill="none" stroke="#63b8ff" d="M840.61,-380.96C938.7,-367.19 1095.43,-345.17 1194.24,-331.29"/>
<polygon fill="#63b8ff" stroke="#63b8ff" points="839.84,-377.54 830.42,-382.39 840.81,-384.47 839.84,-377.54"/>
</a>
</g>
</g>
<!-- Node11&#45;&gt;Node17 -->
<g id="edge30_Node000011_Node000017" class="edge">
<title>Node11&#45;&gt;Node17</title>
<g id="a_edge30_Node000011_Node000017"><a xlink:title=" ">
<path fill="none" stroke="#63b8ff" d="M723.61,-373.31C708.64,-362.41 690.26,-349.02 675.4,-338.2"/>
<polygon fill="#63b8ff" stroke="#63b8ff" points="721.82,-376.34 731.97,-379.39 725.94,-370.68 721.82,-376.34"/>
</a>
</g>
</g>
<!-- Node11&#45;&gt;Node21 -->
<g id="edge37_Node000011_Node000021" class="edge">
<title>Node11&#45;&gt;Node21</title>
<g id="a_edge37_Node000011_Node000021"><a xlink:title=" ">
<path fill="none" stroke="#63b8ff" d="M761.16,-370.01C768.1,-349.58 774.25,-319.75 762.34,-297 754.34,-281.72 740.02,-269.81 725.68,-261"/>
<polygon fill="#63b8ff" stroke="#63b8ff" points="757.84,-368.9 757.66,-379.49 764.41,-371.32 757.84,-368.9"/>
</a>
</g>
</g>
<!-- Node12&#45;&gt;Node2 -->
<g id="edge23_Node000012_Node000002" class="edge">
<title>Node12&#45;&gt;Node2</title>
<g id="a_edge23_Node000012_Node000002"><a xlink:title=" ">
<path fill="none" stroke="#63b8ff" d="M1269.06,-288.11C1263.89,-279.09 1258.29,-269.33 1253.56,-261.07"/>
<polygon fill="#63b8ff" stroke="#63b8ff" points="1266.03,-289.86 1274.04,-296.79 1272.1,-286.38 1266.03,-289.86"/>
</a>
</g>
</g>
<!-- Node13 -->
<g id="Node000013" class="node">
<title>Node13</title>
<g id="a_Node000013"><a xlink:href="_server_socket_8hpp.html" target="_top" xlink:title=" ">
<polygon fill="white" stroke="#666666" points="1157.84,-178.5 1026.84,-178.5 1026.84,-148.5 1157.84,-148.5 1157.84,-178.5"/>
<text text-anchor="start" x="1034.84" y="-166.5" font-family="Helvetica,sans-Serif" font-size="10.00">include/Hermes/Socket</text>
<text text-anchor="middle" x="1092.34" y="-155.5" font-family="Helvetica,sans-Serif" font-size="10.00">/Sync/ServerSocket.hpp</text>
</a>
</g>
</g>
<!-- Node12&#45;&gt;Node13 -->
<g id="edge24_Node000012_Node000013" class="edge">
<title>Node12&#45;&gt;Node13</title>
<g id="a_edge24_Node000012_Node000013"><a xlink:title=" ">
<path fill="none" stroke="#63b8ff" d="M1312.35,-289.04C1329.22,-268.52 1344.85,-240.59 1328.34,-220 1282.19,-162.47 1238.01,-201.4 1166.34,-184 1159.37,-182.31 1152.04,-180.46 1144.83,-178.6"/>
<polygon fill="#63b8ff" stroke="#63b8ff" points="1309.55,-286.93 1305.65,-296.78 1314.84,-291.51 1309.55,-286.93"/>
</a>
</g>
</g>
<!-- Node12&#45;&gt;Node15 -->
<g id="edge26_Node000012_Node000015" class="edge">
<title>Node12&#45;&gt;Node15</title>
<g id="a_edge26_Node000012_Node000015"><a xlink:title=" ">
<path fill="none" stroke="#63b8ff" d="M1339.56,-292.86C1363.04,-282.62 1390.2,-270.77 1412.52,-261.04"/>
<polygon fill="#63b8ff" stroke="#63b8ff" points="1337.85,-289.79 1330.08,-296.99 1340.65,-296.2 1337.85,-289.79"/>
</a>
</g>
</g>
<!-- Node14 -->
<g id="Node000014" class="node">
<title>Node14</title>
<g id="a_Node000014"><a xlink:href="_listener_socket_8hpp.html" target="_top" xlink:title=" ">
<polygon fill="white" stroke="#666666" points="1170.34,-101.5 1032.34,-101.5 1032.34,-71.5 1170.34,-71.5 1170.34,-101.5"/>
<text text-anchor="start" x="1040.34" y="-89.5" font-family="Helvetica,sans-Serif" font-size="10.00">include/Hermes/Socket</text>
<text text-anchor="middle" x="1101.34" y="-78.5" font-family="Helvetica,sans-Serif" font-size="10.00">/Sync/ListenerSocket.hpp</text>
</a>
</g>
</g>
<!-- Node13&#45;&gt;Node14 -->
<g id="edge25_Node000013_Node000014" class="edge">
<title>Node13&#45;&gt;Node14</title>
<g id="a_edge25_Node000013_Node000014"><a xlink:title=" ">
<path fill="none" stroke="#63b8ff" d="M1095.23,-138.41C1096.69,-126.24 1098.41,-111.9 1099.65,-101.54"/>
<polygon fill="#63b8ff" stroke="#63b8ff" points="1091.75,-138.05 1094.03,-148.39 1098.7,-138.88 1091.75,-138.05"/>
</a>
</g>
</g>
<!-- Node15&#45;&gt;Node5 -->
<g id="edge27_Node000015_Node000005" class="edge">
<title>Node15&#45;&gt;Node5</title>
<g id="a_edge27_Node000015_Node000005"><a xlink:title=" ">
<path fill="none" stroke="#63b8ff" d="M1395.75,-216.4C1368.11,-206.04 1335.87,-193.95 1309.45,-184.04"/>
<polygon fill="#63b8ff" stroke="#63b8ff" points="1394.72,-219.76 1405.31,-219.99 1397.18,-213.2 1394.72,-219.76"/>
</a>
</g>
</g>
<!-- Node15&#45;&gt;Node13 -->
<g id="edge28_Node000015_Node000013" class="edge">
<title>Node15&#45;&gt;Node13</title>
<g id="a_edge28_Node000015_Node000013"><a xlink:title=" ">
<path fill="none" stroke="#63b8ff" d="M1366.79,-220.87C1365.3,-220.58 1363.81,-220.29 1362.34,-220 1275.4,-203.09 1252.78,-203.3 1166.34,-184 1158.95,-182.35 1151.18,-180.47 1143.57,-178.54"/>
<polygon fill="#63b8ff" stroke="#63b8ff" points="1366.28,-224.34 1376.77,-222.84 1367.64,-217.47 1366.28,-224.34"/>
</a>
</g>
</g>
<!-- Node16 -->
<g id="Node000016" class="node">
<title>Node16</title>
<g id="a_Node000016"><a xlink:href="_tls_accept_state_machine_8hpp.html" target="_top" xlink:title=" ">
<polygon fill="white" stroke="#666666" points="1610.34,-184 1450.34,-184 1450.34,-143 1610.34,-143 1610.34,-184"/>
<text text-anchor="start" x="1458.34" y="-172" font-family="Helvetica,sans-Serif" font-size="10.00">include/Hermes/Socket</text>
<text text-anchor="start" x="1458.34" y="-161" font-family="Helvetica,sans-Serif" font-size="10.00">/_base/Accept/TlsAcceptState</text>
<text text-anchor="middle" x="1530.34" y="-150" font-family="Helvetica,sans-Serif" font-size="10.00">Machine.hpp</text>
</a>
</g>
</g>
<!-- Node15&#45;&gt;Node16 -->
<g id="edge29_Node000015_Node000016" class="edge">
<title>Node15&#45;&gt;Node16</title>
<g id="a_edge29_Node000015_Node000016"><a xlink:title=" ">
<path fill="none" stroke="#63b8ff" d="M1483.61,-212.51C1492.76,-203.11 1502.84,-192.76 1511.29,-184.07"/>
<polygon fill="#63b8ff" stroke="#63b8ff" points="1480.99,-210.19 1476.52,-219.79 1486,-215.07 1480.99,-210.19"/>
</a>
</g>
</g>
<!-- Node18 -->
<g id="Node000018" class="node">
<title>Node18</title>
<g id="a_Node000018"><a xlink:href="_client_socket_8hpp.html" target="_top" xlink:title=" ">
<polygon fill="white" stroke="#666666" points="724.34,-178.5 596.34,-178.5 596.34,-148.5 724.34,-148.5 724.34,-178.5"/>
<text text-anchor="start" x="604.34" y="-166.5" font-family="Helvetica,sans-Serif" font-size="10.00">include/Hermes/Socket</text>
<text text-anchor="middle" x="660.34" y="-155.5" font-family="Helvetica,sans-Serif" font-size="10.00">/Sync/ClientSocket.hpp</text>
</a>
</g>
</g>
<!-- Node17&#45;&gt;Node18 -->
<g id="edge31_Node000017_Node000018" class="edge">
<title>Node17&#45;&gt;Node18</title>
<g id="a_edge31_Node000017_Node000018"><a xlink:title=" ">
<path fill="none" stroke="#63b8ff" d="M618.91,-289.4C611.78,-281.06 605.13,-271.33 601.34,-261 595.07,-243.89 594.11,-236.73 601.34,-220 608.82,-202.7 624.63,-188.31 638.01,-178.51"/>
<polygon fill="#63b8ff" stroke="#63b8ff" points="616.49,-291.93 625.82,-296.94 621.65,-287.2 616.49,-291.93"/>
</a>
</g>
</g>
<!-- Node17&#45;&gt;Node19 -->
<g id="edge32_Node000017_Node000019" class="edge">
<title>Node17&#45;&gt;Node19</title>
<g id="a_edge32_Node000017_Node000019"><a xlink:title=" ">
<path fill="none" stroke="#63b8ff" d="M577.37,-293.94C544.39,-283.46 505.54,-271.12 473.83,-261.04"/>
<polygon fill="#63b8ff" stroke="#63b8ff" points="576.36,-297.3 586.95,-296.99 578.48,-290.63 576.36,-297.3"/>
</a>
</g>
</g>
<!-- Node19&#45;&gt;Node6 -->
<g id="edge33_Node000019_Node000006" class="edge">
<title>Node19&#45;&gt;Node6</title>
<g id="a_edge33_Node000019_Node000006"><a xlink:title=" ">
<path fill="none" stroke="#63b8ff" d="M420.21,-209.98C422.53,-201.28 425.01,-191.98 427.12,-184.07"/>
<polygon fill="#63b8ff" stroke="#63b8ff" points="416.79,-209.23 417.59,-219.79 423.55,-211.03 416.79,-209.23"/>
</a>
</g>
</g>
<!-- Node19&#45;&gt;Node8 -->
<g id="edge34_Node000019_Node000008" class="edge">
<title>Node19&#45;&gt;Node8</title>
<g id="a_edge34_Node000019_Node000008"><a xlink:title=" ">
<path fill="none" stroke="#63b8ff" d="M364.48,-214.12C353.47,-205.98 343.03,-195.92 336.34,-184 323.01,-160.25 323.35,-127.92 325.39,-107.37"/>
<polygon fill="#63b8ff" stroke="#63b8ff" points="362.75,-217.17 372.97,-219.97 366.72,-211.41 362.75,-217.17"/>
</a>
</g>
</g>
<!-- Node19&#45;&gt;Node18 -->
<g id="edge35_Node000019_Node000018" class="edge">
<title>Node19&#45;&gt;Node18</title>
<g id="a_edge35_Node000019_Node000018"><a xlink:title=" ">
<path fill="none" stroke="#63b8ff" d="M486.6,-217.04C527.89,-204.56 578,-189.4 613.77,-178.58"/>
<polygon fill="#63b8ff" stroke="#63b8ff" points="485.41,-213.75 476.85,-219.99 487.44,-220.45 485.41,-213.75"/>
</a>
</g>
</g>
<!-- Node20 -->
<g id="Node000020" class="node">
<title>Node20</title>
<g id="a_Node000020"><a xlink:href="_tls_connect_state_machine_8hpp.html" target="_top" xlink:title=" ">
<polygon fill="white" stroke="#666666" points="288.84,-184 125.84,-184 125.84,-143 288.84,-143 288.84,-184"/>
<text text-anchor="start" x="133.84" y="-172" font-family="Helvetica,sans-Serif" font-size="10.00">include/Hermes/Socket</text>
<text text-anchor="start" x="133.84" y="-161" font-family="Helvetica,sans-Serif" font-size="10.00">/_base/Connection/TlsConnect</text>
<text text-anchor="middle" x="207.34" y="-150" font-family="Helvetica,sans-Serif" font-size="10.00">StateMachine.hpp</text>
</a>
</g>
</g>
<!-- Node19&#45;&gt;Node20 -->
<g id="edge36_Node000019_Node000020" class="edge">
<title>Node19&#45;&gt;Node20</title>
<g id="a_edge36_Node000019_Node000020"><a xlink:title=" ">
<path fill="none" stroke="#63b8ff" d="M349.58,-216.54C321.17,-206.15 287.95,-193.99 260.75,-184.04"/>
<polygon fill="#63b8ff" stroke="#63b8ff" points="348.42,-219.84 359.01,-219.99 350.82,-213.27 348.42,-219.84"/>
</a>
</g>
</g>
<!-- Node21&#45;&gt;Node13 -->
<g id="edge39_Node000021_Node000013" class="edge">
<title>Node21&#45;&gt;Node13</title>
<g id="a_edge39_Node000021_Node000013"><a xlink:title=" ">
<path fill="none" stroke="#63b8ff" d="M764.38,-224.49C841.47,-210.39 955.37,-189.56 1026.64,-176.52"/>
<polygon fill="#63b8ff" stroke="#63b8ff" points="763.43,-221.11 754.23,-226.35 764.69,-227.99 763.43,-221.11"/>
</a>
</g>
</g>
<!-- Node21&#45;&gt;Node18 -->
<g id="edge38_Node000021_Node000018" class="edge">
<title>Node21&#45;&gt;Node18</title>
<g id="a_edge38_Node000021_Node000018"><a xlink:title=" ">
<path fill="none" stroke="#63b8ff" d="M673.67,-209.94C670.53,-199.25 667.13,-187.66 664.55,-178.86"/>
<polygon fill="#63b8ff" stroke="#63b8ff" points="670.39,-211.18 676.56,-219.79 677.1,-209.21 670.39,-211.18"/>
</a>
</g>
</g>
<!-- Node22&#45;&gt;Node5 -->
<g id="edge41_Node000022_Node000005" class="edge">
<title>Node22&#45;&gt;Node5</title>
<g id="a_edge41_Node000022_Node000005"><a xlink:title=" ">
<path fill="none" stroke="#63b8ff" d="M1044.88,-298.85C1068.18,-289.54 1095.36,-276.76 1117.34,-261 1137.53,-246.52 1135.72,-235.25 1155.34,-220 1173.32,-206.02 1195.31,-193.57 1214.25,-184.02"/>
<polygon fill="#63b8ff" stroke="#63b8ff" points="1043.54,-295.61 1035.49,-302.49 1046.08,-302.14 1043.54,-295.61"/>
</a>
</g>
</g>
<!-- Node22&#45;&gt;Node8 -->
<g id="edge42_Node000022_Node000008" class="edge">
<title>Node22&#45;&gt;Node8</title>
<g id="a_edge42_Node000022_Node000008"><a xlink:title=" ">
<path fill="none" stroke="#63b8ff" d="M914.6,-307.6C877.18,-300.12 833.68,-286.34 801.34,-261 753.7,-223.66 783.57,-176.78 733.34,-143 681.08,-107.85 506.58,-94.76 404.49,-90.04"/>
<polygon fill="#63b8ff" stroke="#63b8ff" points="914,-311.05 924.48,-309.46 915.3,-304.17 914,-311.05"/>
</a>
</g>
</g>
<!-- Node22&#45;&gt;Node10 -->
<g id="edge43_Node000022_Node000010" class="edge">
<title>Node22&#45;&gt;Node10</title>
<g id="a_edge43_Node000022_Node000010"><a xlink:title=" ">
<path fill="none" stroke="#63b8ff" d="M964.96,-296.61C949.34,-285.66 930.03,-272.12 914.45,-261.2"/>
<polygon fill="#63b8ff" stroke="#63b8ff" points="963.02,-299.52 973.21,-302.39 967.03,-293.79 963.02,-299.52"/>
</a>
</g>
</g>
<!-- Node22&#45;&gt;Node15 -->
<g id="edge44_Node000022_Node000015" class="edge">
<title>Node22&#45;&gt;Node15</title>
<g id="a_edge44_Node000022_Node000015"><a xlink:title=" ">
<path fill="none" stroke="#63b8ff" d="M1072.14,-303.76C1156.92,-290.06 1291.05,-268.38 1376.58,-254.55"/>
<polygon fill="#63b8ff" stroke="#63b8ff" points="1071.37,-300.34 1062.05,-305.39 1072.48,-307.25 1071.37,-300.34"/>
</a>
</g>
</g>
<!-- Node22&#45;&gt;Node19 -->
<g id="edge45_Node000022_Node000019" class="edge">
<title>Node22&#45;&gt;Node19</title>
<g id="a_edge45_Node000022_Node000019"><a xlink:title=" ">
<path fill="none" stroke="#63b8ff" d="M914.52,-306.33C799.15,-291.43 586.33,-263.96 478.57,-250.05"/>
<polygon fill="#63b8ff" stroke="#63b8ff" points="914.33,-309.83 924.7,-307.64 915.23,-302.89 914.33,-309.83"/>
</a>
</g>
</g>
<!-- Node22&#45;&gt;Node23 -->
<g id="edge46_Node000022_Node000023" class="edge">
<title>Node22&#45;&gt;Node23</title>
<g id="a_edge46_Node000022_Node000023"><a xlink:title=" ">
<path fill="none" stroke="#63b8ff" d="M1008.76,-293.82C1015.83,-283.42 1024.13,-271.21 1030.94,-261.2"/>
<polygon fill="#63b8ff" stroke="#63b8ff" points="1005.66,-292.16 1002.93,-302.39 1011.45,-296.09 1005.66,-292.16"/>
</a>
</g>
</g>
<!-- Node23&#45;&gt;Node13 -->
<g id="edge48_Node000023_Node000013" class="edge">
<title>Node23&#45;&gt;Node13</title>
<g id="a_edge48_Node000023_Node000013"><a xlink:title=" ">
<path fill="none" stroke="#63b8ff" d="M1062.41,-211.26C1069.48,-200.21 1077.28,-188.02 1083.15,-178.86"/>
<polygon fill="#63b8ff" stroke="#63b8ff" points="1059.39,-209.49 1056.95,-219.79 1065.29,-213.26 1059.39,-209.49"/>
</a>
</g>
</g>
<!-- Node23&#45;&gt;Node18 -->
<g id="edge47_Node000023_Node000018" class="edge">
<title>Node23&#45;&gt;Node18</title>
<g id="a_edge47_Node000023_Node000018"><a xlink:title=" ">
<path fill="none" stroke="#63b8ff" d="M970.64,-220.07C970.54,-220.04 970.44,-220.02 970.34,-220 885.85,-201.34 787.36,-184.54 724.46,-174.43"/>
<polygon fill="#63b8ff" stroke="#63b8ff" points="969.71,-223.44 980.24,-222.27 971.28,-216.62 969.71,-223.44"/>
</a>
</g>
</g>
<!-- Node24&#45;&gt;Node16 -->
<g id="edge56_Node000024_Node000016" class="edge">
<title>Node24&#45;&gt;Node16</title>
<g id="a_edge56_Node000024_Node000016"><a xlink:title=" ">
<path fill="none" stroke="#63b8ff" d="M1596.79,-363.57C1599.64,-327.85 1600.46,-267.07 1580.34,-220 1574.53,-206.41 1563.98,-193.91 1554.06,-184.24"/>
<polygon fill="#63b8ff" stroke="#63b8ff" points="1593.28,-363.52 1595.86,-373.8 1600.25,-364.16 1593.28,-363.52"/>
</a>
</g>
</g>
<!-- Node25&#45;&gt;Node20 -->
<g id="edge58_Node000025_Node000020" class="edge">
<title>Node25&#45;&gt;Node20</title>
<g id="a_edge58_Node000025_Node000020"><a xlink:title=" ">
<path fill="none" stroke="#63b8ff" d="M207.34,-363.73C207.34,-316.23 207.34,-224.57 207.34,-184.3"/>
<polygon fill="#63b8ff" stroke="#63b8ff" points="203.84,-363.98 207.34,-373.98 210.84,-363.98 203.84,-363.98"/>
</a>
</g>
</g>
<!-- Node26&#45;&gt;Node27 -->
<g id="edge60_Node000026_Node000027" class="edge">
<title>Node26&#45;&gt;Node27</title>
<g id="a_edge60_Node000026_Node000027"><a xlink:title=" ">
<path fill="none" stroke="#63b8ff" d="M1786.6,-365.39C1780.54,-356.3 1773.95,-346.41 1768.39,-338.07"/>
<polygon fill="#63b8ff" stroke="#63b8ff" points="1783.74,-367.42 1792.2,-373.79 1789.57,-363.53 1783.74,-367.42"/>
</a>
</g>
</g>
</g>
</svg>
