<?xml version="1.0" encoding="UTF-8" standalone="no"?>
<!DOCTYPE svg PUBLIC "-//W3C//DTD SVG 1.1//EN"
 "http://www.w3.org/Graphics/SVG/1.1/DTD/svg11.dtd">
<!-- Generated by graphviz version 2.43.0 (0)
 -->
<!-- Title: include/Hermes/Socket/_base.hpp Pages: 1 -->
<svg width="1946pt" height="489pt"
 viewBox="0.00 0.00 1946.00 489.00" xmlns="http://www.w3.org/2000/svg" xmlns:xlink="http://www.w3.org/1999/xlink">
<g id="graph0" class="graph" transform="scale(1 1) rotate(0) translate(4 485)">
<title>include/Hermes/Socket/_base.hpp</title>
<!-- Node1 -->
<g id="Node000001" class="node">
<title>Node1</title>
<g id="a_Node000001"><a xlink:title=" ">
<polygon fill="#999999" stroke="#666666" points="1016.5,-481 888.5,-481 888.5,-451 1016.5,-451 1016.5,-481"/>
<text text-anchor="start" x="896.5" y="-469" font-family="Helvetica,sans-Serif" font-size="10.00">include/Hermes/Socket</text>
<text text-anchor="middle" x="952.5" y="-458" font-family="Helvetica,sans-Serif" font-size="10.00">/_base.hpp</text>
</a>
</g>
</g>
<!-- Node2 -->
<g id="Node000002" class="node">
<title>Node2</title>
<g id="a_Node000002"><a xlink:href="_async_listener_socket_8hpp.html" target="_top" xlink:title=" ">
<polygon fill="white" stroke="#666666" points="173,-101.5 0,-101.5 0,-71.5 173,-71.5 173,-101.5"/>
<text text-anchor="start" x="8" y="-89.5" font-family="Helvetica,sans-Serif" font-size="10.00">include/Hermes/Socket</text>
<text text-anchor="middle" x="86.5" y="-78.5" font-family="Helvetica,sans-Serif" font-size="10.00">/Async/AsyncListenerSocket.hpp</text>
</a>
</g>
</g>
<!-- Node1&#45;&gt;Node2 -->
<g id="edge1_Node000001_Node000002" class="edge">
<title>Node1&#45;&gt;Node2</title>
<g id="a_edge1_Node000001_Node000002"><a xlink:title=" ">
<path fill="none" stroke="#63b8ff" d="M878.32,-463.51C688.41,-459.27 194.87,-445.43 127.5,-415 72.37,-390.1 31.5,-379 31.5,-318.5 31.5,-318.5 31.5,-318.5 31.5,-239.5 31.5,-195.79 34.09,-183.51 50.5,-143 56.62,-127.88 67.03,-112.46 75.08,-101.72"/>
<polygon fill="#63b8ff" stroke="#63b8ff" points="878.41,-467.01 888.49,-463.73 878.57,-460.01 878.41,-467.01"/>
</a>
</g>
</g>
<!-- Node3 -->
<g id="Node000003" class="node">
<title>Node3</title>
<g id="a_Node000003"><a xlink:href="_async_server_socket_8hpp.html" target="_top" xlink:title=" ">
<polygon fill="white" stroke="#666666" points="225.5,-178.5 59.5,-178.5 59.5,-148.5 225.5,-148.5 225.5,-178.5"/>
<text text-anchor="start" x="67.5" y="-166.5" font-family="Helvetica,sans-Serif" font-size="10.00">include/Hermes/Socket</text>
<text text-anchor="middle" x="142.5" y="-155.5" font-family="Helvetica,sans-Serif" font-size="10.00">/Async/AsyncServerSocket.hpp</text>
</a>
</g>
</g>
<!-- Node1&#45;&gt;Node3 -->
<g id="edge2_Node000001_Node000003" class="edge">
<title>Node1&#45;&gt;Node3</title>
<g id="a_edge2_Node000001_Node000003"><a xlink:title=" ">
<path fill="none" stroke="#63b8ff" d="M878.29,-464.76C694.38,-463.54 228.36,-456.36 172.5,-415 99.83,-361.2 93.57,-307.96 114.5,-220 118.05,-205.09 126.27,-189.65 132.9,-178.85"/>
<polygon fill="#63b8ff" stroke="#63b8ff" points="878.39,-468.26 888.41,-464.83 878.43,-461.26 878.39,-468.26"/>
</a>
</g>
</g>
<!-- Node4 -->
<g id="Node000004" class="node">
<title>Node4</title>
<g id="a_Node000004"><a xlink:href="_default_async_accept_policy_8hpp.html" target="_top" xlink:title=" ">
<polygon fill="white" stroke="#666666" points="537,-261 382,-261 382,-220 537,-220 537,-261"/>
<text text-anchor="start" x="390" y="-249" font-family="Helvetica,sans-Serif" font-size="10.00">include/Hermes/Socket</text>
<text text-anchor="start" x="390" y="-238" font-family="Helvetica,sans-Serif" font-size="10.00">/Async/_base/Accept/Default</text>
<text text-anchor="middle" x="459.5" y="-227" font-family="Helvetica,sans-Serif" font-size="10.00">AsyncAcceptPolicy.hpp</text>
</a>
</g>
</g>
<!-- Node1&#45;&gt;Node4 -->
<g id="edge4_Node000001_Node000004" class="edge">
<title>Node1&#45;&gt;Node4</title>
<g id="a_edge4_Node000001_Node000004"><a xlink:title=" ">
<path fill="none" stroke="#63b8ff" d="M878.28,-462.78C805.47,-458.7 692.2,-447.21 599.5,-415 535.34,-392.71 503.73,-395.45 467.5,-338 452.88,-314.82 453.64,-282.04 456.11,-261.28"/>
<polygon fill="#63b8ff" stroke="#63b8ff" points="878.11,-466.28 888.28,-463.31 878.47,-459.29 878.11,-466.28"/>
</a>
</g>
</g>
<!-- Node5 -->
<g id="Node000005" class="node">
<title>Node5</title>
<g id="a_Node000005"><a xlink:href="_tls_async_accept_policy_8hpp.html" target="_top" xlink:title=" ">
<polygon fill="white" stroke="#666666" points="507,-184 344,-184 344,-143 507,-143 507,-184"/>
<text text-anchor="start" x="352" y="-172" font-family="Helvetica,sans-Serif" font-size="10.00">include/Hermes/Socket</text>
<text text-anchor="start" x="352" y="-161" font-family="Helvetica,sans-Serif" font-size="10.00">/Async/_base/Accept/TlsAsync</text>
<text text-anchor="middle" x="425.5" y="-150" font-family="Helvetica,sans-Serif" font-size="10.00">AcceptPolicy.hpp</text>
</a>
</g>
</g>
<!-- Node1&#45;&gt;Node5 -->
<g id="edge7_Node000001_Node000005" class="edge">
<title>Node1&#45;&gt;Node5</title>
<g id="a_edge7_Node000001_Node000005"><a xlink:title=" ">
<path fill="none" stroke="#63b8ff" d="M878,-462.52C742.29,-457.36 460.15,-443.51 366.5,-415 298.94,-394.43 263.35,-398.85 227.5,-338 218.25,-322.3 218.1,-312.61 227.5,-297 245.14,-267.7 266.58,-279.24 295.5,-261 334.01,-236.71 375.84,-204.52 401.37,-184.15"/>
<polygon fill="#63b8ff" stroke="#63b8ff" points="878.18,-466.03 888.3,-462.91 878.44,-459.03 878.18,-466.03"/>
</a>
</g>
</g>
<!-- Node6 -->
<g id="Node000006" class="node">
<title>Node6</title>
<g id="a_Node000006"><a xlink:href="_default_async_connect_policy_8hpp.html" target="_top" xlink:title=" ">
<polygon fill="white" stroke="#666666" points="855,-184 682,-184 682,-143 855,-143 855,-184"/>
<text text-anchor="start" x="690" y="-172" font-family="Helvetica,sans-Serif" font-size="10.00">include/Hermes/Socket</text>
<text text-anchor="start" x="690" y="-161" font-family="Helvetica,sans-Serif" font-size="10.00">/Async/_base/Connection</text>
<text text-anchor="middle" x="768.5" y="-150" font-family="Helvetica,sans-Serif" font-size="10.00">/DefaultAsyncConnectPolicy.hpp</text>
</a>
</g>
</g>
<!-- Node1&#45;&gt;Node6 -->
<g id="edge8_Node000001_Node000006" class="edge">
<title>Node1&#45;&gt;Node6</title>
<g id="a_edge8_Node000001_Node000006"><a xlink:title=" ">
<path fill="none" stroke="#63b8ff" d="M946.98,-441.07C937.02,-399.8 915.16,-317.68 894.5,-297 859.93,-262.4 823.15,-297.42 790.5,-261 771.46,-239.76 767.86,-205.49 767.69,-184.02"/>
<polygon fill="#63b8ff" stroke="#63b8ff" points="943.58,-441.93 949.3,-450.85 950.39,-440.31 943.58,-441.93"/>
</a>
</g>
</g>
<!-- Node8 -->
<g id="Node000008" class="node">
<title>Node8</title>
<g id="a_Node000008"><a xlink:href="_tls_async_connect_policy_8hpp.html" target="_top" xlink:title=" ">
<polygon fill="white" stroke="#666666" points="1137.5,-107 985.5,-107 985.5,-66 1137.5,-66 1137.5,-107"/>
<text text-anchor="start" x="993.5" y="-95" font-family="Helvetica,sans-Serif" font-size="10.00">include/Hermes/Socket</text>
<text text-anchor="start" x="993.5" y="-84" font-family="Helvetica,sans-Serif" font-size="10.00">/Async/_base/Connection</text>
<text text-anchor="middle" x="1061.5" y="-73" font-family="Helvetica,sans-Serif" font-size="10.00">/TlsAsyncConnectPolicy.hpp</text>
</a>
</g>
</g>
<!-- Node1&#45;&gt;Node8 -->
<g id="edge12_Node000001_Node000008" class="edge">
<title>Node1&#45;&gt;Node8</title>
<g id="a_edge12_Node000001_Node000008"><a xlink:title=" ">
<path fill="none" stroke="#63b8ff" d="M1026.92,-463.9C1181.85,-460.91 1527.95,-450.3 1567.5,-415 1600.11,-385.89 1586.5,-362.21 1586.5,-318.5 1586.5,-318.5 1586.5,-318.5 1586.5,-239.5 1586.5,-194.31 1589.6,-171.46 1554.5,-143 1522.81,-117.3 1267.9,-99.24 1137.6,-91.59"/>
<polygon fill="#63b8ff" stroke="#63b8ff" points="1026.48,-460.41 1016.55,-464.09 1026.62,-467.41 1026.48,-460.41"/>
</a>
</g>
</g>
<!-- Node9 -->
<g id="Node000009" class="node">
<title>Node9</title>
<g id="a_Node000009"><a xlink:href="_default_async_transfer_policy_8hpp.html" target="_top" xlink:title=" ">
<polygon fill="white" stroke="#666666" points="410,-338 237,-338 237,-297 410,-297 410,-338"/>
<text text-anchor="start" x="245" y="-326" font-family="Helvetica,sans-Serif" font-size="10.00">include/Hermes/Socket</text>
<text text-anchor="start" x="245" y="-315" font-family="Helvetica,sans-Serif" font-size="10.00">/Async/_base/Transfer</text>
<text text-anchor="middle" x="323.5" y="-304" font-family="Helvetica,sans-Serif" font-size="10.00">/DefaultAsyncTransferPolicy.hpp</text>
</a>
</g>
</g>
<!-- Node1&#45;&gt;Node9 -->
<g id="edge13_Node000001_Node000009" class="edge">
<title>Node1&#45;&gt;Node9</title>
<g id="a_edge13_Node000001_Node000009"><a xlink:title=" ">
<path fill="none" stroke="#63b8ff" d="M878.1,-463.92C752.27,-461.12 503.42,-451.05 424.5,-415 387,-397.87 354.77,-360.94 337.34,-338.05"/>
<polygon fill="#63b8ff" stroke="#63b8ff" points="878.34,-467.43 888.42,-464.14 878.49,-460.43 878.34,-467.43"/>
</a>
</g>
</g>
<!-- Node10 -->
<g id="Node000010" class="node">
<title>Node10</title>
<g id="a_Node000010"><a xlink:href="_tls_async_transfer_policy_8hpp.html" target="_top" xlink:title=" ">
<polygon fill="white" stroke="#666666" points="287,-261 136,-261 136,-220 287,-220 287,-261"/>
<text text-anchor="start" x="144" y="-249" font-family="Helvetica,sans-Serif" font-size="10.00">include/Hermes/Socket</text>
<text text-anchor="start" x="144" y="-238" font-family="Helvetica,sans-Serif" font-size="10.00">/Async/_base/Transfer</text>
<text text-anchor="middle" x="211.5" y="-227" font-family="Helvetica,sans-Serif" font-size="10.00">/TlsAsyncTransferPolicy.hpp</text>
</a>
</g>
</g>
<!-- Node1&#45;&gt;Node10 -->
<g id="edge16_Node000001_Node000010" class="edge">
<title>Node1&#45;&gt;Node10</title>
<g id="a_edge16_Node000001_Node000010"><a xlink:title=" ">
<path fill="none" stroke="#63b8ff" d="M878.43,-465.72C696.78,-466.71 240.58,-464.22 194.5,-415 154.99,-372.8 183.9,-296.99 201.13,-261.21"/>
<polygon fill="#63b8ff" stroke="#63b8ff" points="878.46,-469.22 888.43,-465.66 878.41,-462.22 878.46,-469.22"/>
</a>
</g>
</g>
<!-- Node11 -->
<g id="Node000011" class="node">
<title>Node11</title>
<g id="a_Node000011"><a xlink:href="_default_socket_data_8hpp.html" target="_top" xlink:title=" ">
<polygon fill="white" stroke="#666666" points="793.5,-409.5 635.5,-409.5 635.5,-379.5 793.5,-379.5 793.5,-409.5"/>
<text text-anchor="start" x="643.5" y="-397.5" font-family="Helvetica,sans-Serif" font-size="10.00">include/Hermes/Socket</text>
<text text-anchor="middle" x="714.5" y="-386.5" font-family="Helvetica,sans-Serif" font-size="10.00">/Data/DefaultSocketData.hpp</text>
</a>
</g>
</g>
<!-- Node1&#45;&gt;Node11 -->
<g id="edge19_Node000001_Node000011" class="edge">
<title>Node1&#45;&gt;Node11</title>
<g id="a_edge19_Node000001_Node000011"><a xlink:title=" ">
<path fill="none" stroke="#63b8ff" d="M894.61,-448.09C854.13,-436.28 800.72,-420.68 762.59,-409.54"/>
<polygon fill="#63b8ff" stroke="#63b8ff" points="893.76,-451.49 904.34,-450.94 895.72,-444.77 893.76,-451.49"/>
</a>
</g>
</g>
<!-- Node12 -->
<g id="Node000012" class="node">
<title>Node12</title>
<g id="a_Node000012"><a xlink:href="_default_accept_policy_8hpp.html" target="_top" xlink:title=" ">
<polygon fill="white" stroke="#666666" points="686.5,-338 504.5,-338 504.5,-297 686.5,-297 686.5,-338"/>
<text text-anchor="start" x="512.5" y="-326" font-family="Helvetica,sans-Serif" font-size="10.00">include/Hermes/Socket</text>
<text text-anchor="start" x="512.5" y="-315" font-family="Helvetica,sans-Serif" font-size="10.00">/Sync/_base/Accept/DefaultAccept</text>
<text text-anchor="middle" x="595.5" y="-304" font-family="Helvetica,sans-Serif" font-size="10.00">Policy.hpp</text>
</a>
</g>
</g>
<!-- Node1&#45;&gt;Node12 -->
<g id="edge48_Node000001_Node000012" class="edge">
<title>Node1&#45;&gt;Node12</title>
<g id="a_edge48_Node000001_Node000012"><a xlink:title=" ">
<path fill="none" stroke="#63b8ff" d="M878.44,-462.51C794.16,-458.18 663.4,-446.46 626.5,-415 604.01,-395.82 597.68,-360.25 596,-338.07"/>
<polygon fill="#63b8ff" stroke="#63b8ff" points="878.32,-466 888.48,-463 878.66,-459.01 878.32,-466"/>
</a>
</g>
</g>
<!-- Node15 -->
<g id="Node000015" class="node">
<title>Node15</title>
<g id="a_Node000015"><a xlink:href="_tls_accept_policy_8hpp.html" target="_top" xlink:title=" ">
<polygon fill="white" stroke="#666666" points="961,-261 800,-261 800,-220 961,-220 961,-261"/>
<text text-anchor="start" x="808" y="-249" font-family="Helvetica,sans-Serif" font-size="10.00">include/Hermes/Socket</text>
<text text-anchor="start" x="808" y="-238" font-family="Helvetica,sans-Serif" font-size="10.00">/Sync/_base/Accept/TlsAccept</text>
<text text-anchor="middle" x="880.5" y="-227" font-family="Helvetica,sans-Serif" font-size="10.00">Policy.hpp</text>
</a>
</g>
</g>
<!-- Node1&#45;&gt;Node15 -->
<g id="edge49_Node000001_Node000015" class="edge">
<title>Node1&#45;&gt;Node15</title>
<g id="a_edge49_Node000001_Node000015"><a xlink:title=" ">
<path fill="none" stroke="#63b8ff" d="M953.23,-440.43C953.32,-406.6 950.12,-344.45 928.5,-297 922.37,-283.55 911.94,-270.9 902.37,-261.08"/>
<polygon fill="#63b8ff" stroke="#63b8ff" points="949.73,-440.72 953.1,-450.76 956.73,-440.81 949.73,-440.72"/>
</a>
</g>
</g>
<!-- Node17 -->
<g id="Node000017" class="node">
<title>Node17</title>
<g id="a_Node000017"><a xlink:href="_default_connect_policy_8hpp.html" target="_top" xlink:title=" ">
<polygon fill="white" stroke="#666666" points="1318.5,-338 1174.5,-338 1174.5,-297 1318.5,-297 1318.5,-338"/>
<text text-anchor="start" x="1182.5" y="-326" font-family="Helvetica,sans-Serif" font-size="10.00">include/Hermes/Socket</text>
<text text-anchor="start" x="1182.5" y="-315" font-family="Helvetica,sans-Serif" font-size="10.00">/Sync/_base/Connection</text>
<text text-anchor="middle" x="1246.5" y="-304" font-family="Helvetica,sans-Serif" font-size="10.00">/DefaultConnectPolicy.hpp</text>
</a>
</g>
</g>
<!-- Node1&#45;&gt;Node17 -->
<g id="edge50_Node000001_Node000017" class="edge">
<title>Node1&#45;&gt;Node17</title>
<g id="a_edge50_Node000001_Node000017"><a xlink:title=" ">
<path fill="none" stroke="#63b8ff" d="M1026.86,-449.99C1057.05,-442.11 1091.56,-430.74 1120.5,-415 1145.15,-401.6 1146.38,-391.26 1168.5,-374 1184.35,-361.63 1202.65,-348.55 1217.53,-338.2"/>
<polygon fill="#63b8ff" stroke="#63b8ff" points="1025.64,-446.69 1016.8,-452.53 1027.35,-453.47 1025.64,-446.69"/>
</a>
</g>
</g>
<!-- Node19 -->
<g id="Node000019" class="node">
<title>Node19</title>
<g id="a_Node000019"><a xlink:href="_tls_connect_policy_8hpp.html" target="_top" xlink:title=" ">
<polygon fill="white" stroke="#666666" points="1409.5,-261 1277.5,-261 1277.5,-220 1409.5,-220 1409.5,-261"/>
<text text-anchor="start" x="1285.5" y="-249" font-family="Helvetica,sans-Serif" font-size="10.00">include/Hermes/Socket</text>
<text text-anchor="start" x="1285.5" y="-238" font-family="Helvetica,sans-Serif" font-size="10.00">/Sync/_base/Connection</text>
<text text-anchor="middle" x="1343.5" y="-227" font-family="Helvetica,sans-Serif" font-size="10.00">/TlsConnectPolicy.hpp</text>
</a>
</g>
</g>
<!-- Node1&#45;&gt;Node19 -->
<g id="edge51_Node000001_Node000019" class="edge">
<title>Node1&#45;&gt;Node19</title>
<g id="a_edge51_Node000001_Node000019"><a xlink:title=" ">
<path fill="none" stroke="#63b8ff" d="M1026.78,-456.55C1067.55,-449.61 1117.92,-437.16 1158.5,-415 1181.68,-402.34 1178.58,-387.12 1201.5,-374 1252.04,-345.06 1288.73,-381.46 1327.5,-338 1346.27,-316.96 1347.42,-282.63 1345.92,-261.09"/>
<polygon fill="#63b8ff" stroke="#63b8ff" points="1026.21,-453.1 1016.9,-458.15 1027.33,-460 1026.21,-453.1"/>
</a>
</g>
</g>
<!-- Node21 -->
<g id="Node000021" class="node">
<title>Node21</title>
<g id="a_Node000021"><a xlink:href="_default_transfer_policy_8hpp.html" target="_top" xlink:title=" ">
<polygon fill="white" stroke="#666666" points="886,-338 743,-338 743,-297 886,-297 886,-338"/>
<text text-anchor="start" x="751" y="-326" font-family="Helvetica,sans-Serif" font-size="10.00">include/Hermes/Socket</text>
<text text-anchor="start" x="751" y="-315" font-family="Helvetica,sans-Serif" font-size="10.00">/Sync/_base/Transfer</text>
<text text-anchor="middle" x="814.5" y="-304" font-family="Helvetica,sans-Serif" font-size="10.00">/DefaultTransferPolicy.hpp</text>
</a>
</g>
</g>
<!-- Node1&#45;&gt;Node21 -->
<g id="edge52_Node000001_Node000021" class="edge">
<title>Node1&#45;&gt;Node21</title>
<g id="a_edge52_Node000001_Node000021"><a xlink:title=" ">
<path fill="none" stroke="#63b8ff" d="M929.81,-443.91C920.57,-435.13 909.87,-424.73 900.5,-415 875.6,-389.13 848.23,-357.91 831.2,-338.12"/>
<polygon fill="#63b8ff" stroke="#63b8ff" points="927.5,-446.55 937.18,-450.86 932.31,-441.45 927.5,-446.55"/>
</a>
</g>
</g>
<!-- Node22 -->
<g id="Node000022" class="node">
<title>Node22</title>
<g id="a_Node000022"><a xlink:href="_tls_socket_data_8hpp.html" target="_top" xlink:title=" ">
<polygon fill="white" stroke="#666666" points="1118,-332.5 981,-332.5 981,-302.5 1118,-302.5 1118,-332.5"/>
<text text-anchor="start" x="989" y="-320.5" font-family="Helvetica,sans-Serif" font-size="10.00">include/Hermes/Socket</text>
<text text-anchor="middle" x="1049.5" y="-309.5" font-family="Helvetica,sans-Serif" font-size="10.00">/Data/TlsSocketData.hpp</text>
</a>
</g>
</g>
<!-- Node1&#45;&gt;Node22 -->
<g id="edge40_Node000001_Node000022" class="edge">
<title>Node1&#45;&gt;Node22</title>
<g id="a_edge40_Node000001_Node000022"><a xlink:title=" ">
<path fill="none" stroke="#63b8ff" d="M967.56,-442.25C987.82,-411.65 1023.24,-358.16 1040.08,-332.72"/>
<polygon fill="#63b8ff" stroke="#63b8ff" points="964.4,-440.68 961.8,-450.95 970.24,-444.55 964.4,-440.68"/>
</a>
</g>
</g>
<!-- Node23 -->
<g id="Node000023" class="node">
<title>Node23</title>
<g id="a_Node000023"><a xlink:href="_tls_transfer_policy_8hpp.html" target="_top" xlink:title=" ">
<polygon fill="white" stroke="#666666" points="1221.5,-261 1093.5,-261 1093.5,-220 1221.5,-220 1221.5,-261"/>
<text text-anchor="start" x="1101.5" y="-249" font-family="Helvetica,sans-Serif" font-size="10.00">include/Hermes/Socket</text>
<text text-anchor="start" x="1101.5" y="-238" font-family="Helvetica,sans-Serif" font-size="10.00">/Sync/_base/Transfer</text>
<text text-anchor="middle" x="1157.5" y="-227" font-family="Helvetica,sans-Serif" font-size="10.00">/TlsTransferPolicy.hpp</text>
</a>
</g>
</g>
<!-- Node1&#45;&gt;Node23 -->
<g id="edge53_Node000001_Node000023" class="edge">
<title>Node1&#45;&gt;Node23</title>
<g id="a_edge53_Node000001_Node000023"><a xlink:title=" ">
<path fill="none" stroke="#63b8ff" d="M991.29,-446.08C1030.76,-424.93 1091.02,-387.12 1126.5,-338 1143.3,-314.75 1151.27,-281.98 1154.85,-261.25"/>
<polygon fill="#63b8ff" stroke="#63b8ff" points="989.45,-443.09 982.23,-450.84 992.71,-449.29 989.45,-443.09"/>
</a>
</g>
</g>
<!-- Node24 -->
<g id="Node000024" class="node">
<title>Node24</title>
<g id="a_Node000024"><a xlink:href="_i_tls_accept_state_machine_8hpp.html" target="_top" xlink:title=" ">
<polygon fill="white" stroke="#666666" points="1374,-415 1211,-415 1211,-374 1374,-374 1374,-415"/>
<text text-anchor="start" x="1219" y="-403" font-family="Helvetica,sans-Serif" font-size="10.00">include/Hermes/Socket</text>
<text text-anchor="start" x="1219" y="-392" font-family="Helvetica,sans-Serif" font-size="10.00">/_base/Accept/ITlsAcceptState</text>
<text text-anchor="middle" x="1292.5" y="-381" font-family="Helvetica,sans-Serif" font-size="10.00">Machine.hpp</text>
</a>
</g>
</g>
<!-- Node1&#45;&gt;Node24 -->
<g id="edge54_Node000001_Node000024" class="edge">
<title>Node1&#45;&gt;Node24</title>
<g id="a_edge54_Node000001_Node000024"><a xlink:title=" ">
<path fill="none" stroke="#63b8ff" d="M1026.77,-449.82C1081.17,-438.7 1154.96,-423.62 1210.98,-412.16"/>
<polygon fill="#63b8ff" stroke="#63b8ff" points="1025.95,-446.41 1016.85,-451.85 1027.35,-453.27 1025.95,-446.41"/>
</a>
</g>
</g>
<!-- Node25 -->
<g id="Node000025" class="node">
<title>Node25</title>
<g id="a_Node000025"><a xlink:href="_i_tls_connect_state_machine_8hpp.html" target="_top" xlink:title=" ">
<polygon fill="white" stroke="#666666" points="1558.5,-415 1392.5,-415 1392.5,-374 1558.5,-374 1558.5,-415"/>
<text text-anchor="start" x="1400.5" y="-403" font-family="Helvetica,sans-Serif" font-size="10.00">include/Hermes/Socket</text>
<text text-anchor="start" x="1400.5" y="-392" font-family="Helvetica,sans-Serif" font-size="10.00">/_base/Connection/ITlsConnect</text>
<text text-anchor="middle" x="1475.5" y="-381" font-family="Helvetica,sans-Serif" font-size="10.00">StateMachine.hpp</text>
</a>
</g>
</g>
<!-- Node1&#45;&gt;Node25 -->
<g id="edge56_Node000001_Node000025" class="edge">
<title>Node1&#45;&gt;Node25</title>
<g id="a_edge56_Node000001_Node000025"><a xlink:title=" ">
<path fill="none" stroke="#63b8ff" d="M1027.05,-458.41C1113.02,-450.32 1258.47,-435.17 1382.5,-415 1385.76,-414.47 1389.07,-413.9 1392.42,-413.31"/>
<polygon fill="#63b8ff" stroke="#63b8ff" points="1026.49,-454.94 1016.86,-459.36 1027.14,-461.91 1026.49,-454.94"/>
</a>
</g>
</g>
<!-- Node26 -->
<g id="Node000026" class="node">
<title>Node26</title>
<g id="a_Node000026"><a xlink:href="_i_tls_transfer_state_machine_8hpp.html" target="_top" xlink:title=" ">
<polygon fill="white" stroke="#666666" points="1801,-415 1652,-415 1652,-374 1801,-374 1801,-415"/>
<text text-anchor="start" x="1660" y="-403" font-family="Helvetica,sans-Serif" font-size="10.00">include/Hermes/Socket</text>
<text text-anchor="start" x="1660" y="-392" font-family="Helvetica,sans-Serif" font-size="10.00">/_base/Transfer/ITlsTransfer</text>
<text text-anchor="middle" x="1726.5" y="-381" font-family="Helvetica,sans-Serif" font-size="10.00">StateMachine.hpp</text>
</a>
</g>
</g>
<!-- Node1&#45;&gt;Node26 -->
<g id="edge58_Node000001_Node000026" class="edge">
<title>Node1&#45;&gt;Node26</title>
<g id="a_edge58_Node000001_Node000026"><a xlink:title=" ">
<path fill="none" stroke="#63b8ff" d="M1027,-463.11C1153.38,-459.12 1417.56,-447.36 1638.5,-415 1642.84,-414.37 1647.27,-413.64 1651.74,-412.84"/>
<polygon fill="#63b8ff" stroke="#63b8ff" points="1026.56,-459.62 1016.68,-463.43 1026.78,-466.62 1026.56,-459.62"/>
</a>
</g>
</g>
<!-- Node27 -->
<g id="Node000027" class="node">
<title>Node27</title>
<g id="a_Node000027"><a xlink:href="_tls_transfer_state_machine_8hpp.html" target="_top" xlink:title=" ">
<polygon fill="white" stroke="#666666" points="1780.5,-338 1634.5,-338 1634.5,-297 1780.5,-297 1780.5,-338"/>
<text text-anchor="start" x="1642.5" y="-326" font-family="Helvetica,sans-Serif" font-size="10.00">include/Hermes/Socket</text>
<text text-anchor="start" x="1642.5" y="-315" font-family="Helvetica,sans-Serif" font-size="10.00">/_base/Transfer/TlsTransfer</text>
<text text-anchor="middle" x="1707.5" y="-304" font-family="Helvetica,sans-Serif" font-size="10.00">StateMachine.hpp</text>
</a>
</g>
</g>
<!-- Node1&#45;&gt;Node27 -->
<g id="edge60_Node000001_Node000027" class="edge">
<title>Node1&#45;&gt;Node27</title>
<g id="a_edge60_Node000001_Node000027"><a xlink:title=" ">
<path fill="none" stroke="#63b8ff" d="M1026.96,-465.47C1174.79,-465.39 1499.73,-459.92 1600.5,-415 1624.62,-404.25 1623.96,-391.77 1643.5,-374 1656.88,-361.83 1672.18,-348.54 1684.46,-338.02"/>
<polygon fill="#63b8ff" stroke="#63b8ff" points="1026.63,-461.97 1016.63,-465.46 1026.63,-468.97 1026.63,-461.97"/>
</a>
</g>
</g>
<!-- Node28 -->
<g id="Node000028" class="node">
<title>Node28</title>
<g id="a_Node000028"><a xlink:href="_to_bytes_8hpp.html" target="_top" xlink:title=" ">
<polygon fill="white" stroke="#666666" points="1938,-409.5 1819,-409.5 1819,-379.5 1938,-379.5 1938,-409.5"/>
<text text-anchor="start" x="1827" y="-397.5" font-family="Helvetica,sans-Serif" font-size="10.00">include/Hermes/Utils</text>
<text text-anchor="middle" x="1878.5" y="-386.5" font-family="Helvetica,sans-Serif" font-size="10.00">/ToBytes.hpp</text>
</a>
</g>
</g>
<!-- Node1&#45;&gt;Node28 -->
<g id="edge61_Node000001_Node000028" class="edge">
<title>Node1&#45;&gt;Node28</title>
<g id="a_edge61_Node000001_Node000028"><a xlink:title=" ">
<path fill="none" stroke="#63b8ff" d="M1026.85,-462.74C1206.41,-456.93 1659.92,-440.19 1809.5,-415 1817.6,-413.64 1826.11,-411.68 1834.28,-409.53"/>
<polygon fill="#63b8ff" stroke="#63b8ff" points="1026.59,-459.24 1016.71,-463.06 1026.81,-466.24 1026.59,-459.24"/>
</a>
</g>
</g>
<!-- Node3&#45;&gt;Node2 -->
<g id="edge3_Node000003_Node000002" class="edge">
<title>Node3&#45;&gt;Node2</title>
<g id="a_edge3_Node000003_Node000002"><a xlink:title=" ">
<path fill="none" stroke="#63b8ff" d="M125.88,-140.24C116.52,-127.7 105.11,-112.42 96.99,-101.54"/>
<polygon fill="#63b8ff" stroke="#63b8ff" points="123.18,-142.47 131.97,-148.39 128.79,-138.29 123.18,-142.47"/>
</a>
</g>
</g>
<!-- Node4&#45;&gt;Node3 -->
<g id="edge5_Node000004_Node000003" class="edge">
<title>Node4&#45;&gt;Node3</title>
<g id="a_edge5_Node000004_Node000003"><a xlink:title=" ">
<path fill="none" stroke="#63b8ff" d="M372.01,-218.8C317.86,-205.99 249.77,-189.88 201.86,-178.54"/>
<polygon fill="#63b8ff" stroke="#63b8ff" points="371.42,-222.26 381.95,-221.15 373.03,-215.44 371.42,-222.26"/>
</a>
</g>
</g>
<!-- Node4&#45;&gt;Node5 -->
<g id="edge6_Node000004_Node000005" class="edge">
<title>Node4&#45;&gt;Node5</title>
<g id="a_edge6_Node000004_Node000005"><a xlink:title=" ">
<path fill="none" stroke="#63b8ff" d="M446.37,-210.55C442.36,-201.69 438.04,-192.15 434.37,-184.07"/>
<polygon fill="#63b8ff" stroke="#63b8ff" points="443.25,-212.13 450.57,-219.79 449.63,-209.24 443.25,-212.13"/>
</a>
</g>
</g>
<!-- Node7 -->
<g id="Node000007" class="node">
<title>Node7</title>
<g id="a_Node000007"><a xlink:href="_async_client_socket_8hpp.html" target="_top" xlink:title=" ">
<polygon fill="white" stroke="#666666" points="623,-30 460,-30 460,0 623,0 623,-30"/>
<text text-anchor="start" x="468" y="-18" font-family="Helvetica,sans-Serif" font-size="10.00">include/Hermes/Socket</text>
<text text-anchor="middle" x="541.5" y="-7" font-family="Helvetica,sans-Serif" font-size="10.00">/Async/AsyncClientSocket.hpp</text>
</a>
</g>
</g>
<!-- Node6&#45;&gt;Node7 -->
<g id="edge9_Node000006_Node000007" class="edge">
<title>Node6&#45;&gt;Node7</title>
<g id="a_edge9_Node000006_Node000007"><a xlink:title=" ">
<path fill="none" stroke="#63b8ff" d="M729.31,-137.21C681.35,-106.26 601.8,-54.91 563.47,-30.18"/>
<polygon fill="#63b8ff" stroke="#63b8ff" points="727.59,-140.26 737.89,-142.74 731.38,-134.38 727.59,-140.26"/>
</a>
</g>
</g>
<!-- Node6&#45;&gt;Node8 -->
<g id="edge10_Node000006_Node000008" class="edge">
<title>Node6&#45;&gt;Node8</title>
<g id="a_edge10_Node000006_Node000008"><a xlink:title=" ">
<path fill="none" stroke="#63b8ff" d="M854.53,-140.48C896.01,-129.86 945.32,-117.24 985.41,-106.98"/>
<polygon fill="#63b8ff" stroke="#63b8ff" points="853.54,-137.12 844.72,-142.99 855.27,-143.9 853.54,-137.12"/>
</a>
</g>
</g>
<!-- Node8&#45;&gt;Node7 -->
<g id="edge11_Node000008_Node000007" class="edge">
<title>Node8&#45;&gt;Node7</title>
<g id="a_edge11_Node000008_Node000007"><a xlink:title=" ">
<path fill="none" stroke="#63b8ff" d="M975.17,-73.96C877.28,-60.88 718.87,-39.71 623.02,-26.9"/>
<polygon fill="#63b8ff" stroke="#63b8ff" points="974.96,-77.46 985.33,-75.32 975.88,-70.53 974.96,-77.46"/>
</a>
</g>
</g>
<!-- Node9&#45;&gt;Node3 -->
<g id="edge15_Node000009_Node000003" class="edge">
<title>Node9&#45;&gt;Node3</title>
<g id="a_edge15_Node000009_Node000003"><a xlink:title=" ">
<path fill="none" stroke="#63b8ff" d="M227.1,-300.63C183.75,-291.34 139.41,-278.05 126.5,-261 108.05,-236.63 123.45,-198.82 134.23,-178.52"/>
<polygon fill="#63b8ff" stroke="#63b8ff" points="226.4,-304.06 236.91,-302.67 227.83,-297.21 226.4,-304.06"/>
</a>
</g>
</g>
<!-- Node9&#45;&gt;Node7 -->
<g id="edge14_Node000009_Node000007" class="edge">
<title>Node9&#45;&gt;Node7</title>
<g id="a_edge14_Node000009_Node000007"><a xlink:title=" ">
<path fill="none" stroke="#63b8ff" d="M317.58,-286.81C311.94,-250.19 307.79,-187.36 334.5,-143 370.38,-83.4 446,-47.87 495.23,-30.14"/>
<polygon fill="#63b8ff" stroke="#63b8ff" points="314.16,-287.56 319.27,-296.84 321.07,-286.4 314.16,-287.56"/>
</a>
</g>
</g>
<!-- Node10&#45;&gt;Node3 -->
<g id="edge18_Node000010_Node000003" class="edge">
<title>Node10&#45;&gt;Node3</title>
<g id="a_edge18_Node000010_Node000003"><a xlink:title=" ">
<path fill="none" stroke="#63b8ff" d="M186.42,-212.24C176.03,-200.94 164.39,-188.3 155.71,-178.86"/>
<polygon fill="#63b8ff" stroke="#63b8ff" points="184.02,-214.81 193.37,-219.79 189.18,-210.07 184.02,-214.81"/>
</a>
</g>
</g>
<!-- Node10&#45;&gt;Node7 -->
<g id="edge17_Node000010_Node000007" class="edge">
<title>Node10&#45;&gt;Node7</title>
<g id="a_edge17_Node000010_Node000007"><a xlink:title=" ">
<path fill="none" stroke="#63b8ff" d="M224.93,-210.36C246.79,-163.48 288.88,-75.57 301.5,-66 326.17,-47.29 400.33,-33.7 459.75,-25.45"/>
<polygon fill="#63b8ff" stroke="#63b8ff" points="221.63,-209.15 220.6,-219.7 227.98,-212.1 221.63,-209.15"/>
</a>
</g>
</g>
<!-- Node11&#45;&gt;Node4 -->
<g id="edge20_Node000011_Node000004" class="edge">
<title>Node11&#45;&gt;Node4</title>
<g id="a_edge20_Node000011_Node000004"><a xlink:title=" ">
<path fill="none" stroke="#63b8ff" d="M625.33,-389.88C581.56,-383.78 530.79,-369.64 495.5,-338 473.27,-318.06 464.72,-283.07 461.47,-261.15"/>
<polygon fill="#63b8ff" stroke="#63b8ff" points="625.06,-393.38 635.42,-391.17 625.94,-386.43 625.06,-393.38"/>
</a>
</g>
</g>
<!-- Node11&#45;&gt;Node6 -->
<g id="edge21_Node000011_Node000006" class="edge">
<title>Node11&#45;&gt;Node6</title>
<g id="a_edge21_Node000011_Node000006"><a xlink:title=" ">
<path fill="none" stroke="#63b8ff" d="M718.79,-369.48C722.39,-349.9 727.84,-321.57 733.5,-297 742.79,-256.66 755.62,-209.94 762.89,-184.16"/>
<polygon fill="#63b8ff" stroke="#63b8ff" points="715.33,-368.91 716.99,-379.38 722.22,-370.16 715.33,-368.91"/>
</a>
</g>
</g>
<!-- Node11&#45;&gt;Node9 -->
<g id="edge22_Node000011_Node000009" class="edge">
<title>Node11&#45;&gt;Node9</title>
<g id="a_edge22_Node000011_Node000009"><a xlink:title=" ">
<path fill="none" stroke="#63b8ff" d="M631.2,-377.52C566.17,-365.05 476.11,-347.77 410.22,-335.13"/>
<polygon fill="#63b8ff" stroke="#63b8ff" points="630.93,-381.03 641.41,-379.48 632.25,-374.16 630.93,-381.03"/>
</a>
</g>
</g>
<!-- Node11&#45;&gt;Node12 -->
<g id="edge23_Node000011_Node000012" class="edge">
<title>Node11&#45;&gt;Node12</title>
<g id="a_edge23_Node000011_Node000012"><a xlink:title=" ">
<path fill="none" stroke="#63b8ff" d="M683.42,-373.91C665.97,-362.91 644.25,-349.22 626.76,-338.2"/>
<polygon fill="#63b8ff" stroke="#63b8ff" points="681.79,-377.02 692.12,-379.39 685.52,-371.1 681.79,-377.02"/>
</a>
</g>
</g>
<!-- Node11&#45;&gt;Node17 -->
<g id="edge30_Node000011_Node000017" class="edge">
<title>Node11&#45;&gt;Node17</title>
<g id="a_edge30_Node000011_Node000017"><a xlink:title=" ">
<path fill="none" stroke="#63b8ff" d="M803.53,-382.22C887.04,-371.46 1015.37,-354.51 1126.5,-338 1141.95,-335.7 1158.49,-333.11 1174.21,-330.57"/>
<polygon fill="#63b8ff" stroke="#63b8ff" points="803.05,-378.75 793.57,-383.5 803.94,-385.69 803.05,-378.75"/>
</a>
</g>
</g>
<!-- Node11&#45;&gt;Node21 -->
<g id="edge37_Node000011_Node000021" class="edge">
<title>Node11&#45;&gt;Node21</title>
<g id="a_edge37_Node000011_Node000021"><a xlink:title=" ">
<path fill="none" stroke="#63b8ff" d="M741.43,-373.31C755.95,-362.41 773.8,-349.02 788.23,-338.2"/>
<polygon fill="#63b8ff" stroke="#63b8ff" points="739.21,-370.59 733.31,-379.39 743.41,-376.19 739.21,-370.59"/>
</a>
</g>
</g>
<!-- Node12&#45;&gt;Node4 -->
<g id="edge24_Node000012_Node000004" class="edge">
<title>Node12&#45;&gt;Node4</title>
<g id="a_edge24_Node000012_Node000004"><a xlink:title=" ">
<path fill="none" stroke="#63b8ff" d="M550.93,-291.92C532.84,-281.95 512.24,-270.58 495.17,-261.17"/>
<polygon fill="#63b8ff" stroke="#63b8ff" points="549.68,-295.23 560.12,-296.99 553.06,-289.1 549.68,-295.23"/>
</a>
</g>
</g>
<!-- Node13 -->
<g id="Node000013" class="node">
<title>Node13</title>
<g id="a_Node000013"><a xlink:href="_server_socket_8hpp.html" target="_top" xlink:title=" ">
<polygon fill="white" stroke="#666666" points="686,-255.5 555,-255.5 555,-225.5 686,-225.5 686,-255.5"/>
<text text-anchor="start" x="563" y="-243.5" font-family="Helvetica,sans-Serif" font-size="10.00">include/Hermes/Socket</text>
<text text-anchor="middle" x="620.5" y="-232.5" font-family="Helvetica,sans-Serif" font-size="10.00">/Sync/ServerSocket.hpp</text>
</a>
</g>
</g>
<!-- Node12&#45;&gt;Node13 -->
<g id="edge25_Node000012_Node000013" class="edge">
<title>Node12&#45;&gt;Node13</title>
<g id="a_edge25_Node000012_Node000013"><a xlink:title=" ">
<path fill="none" stroke="#63b8ff" d="M605.24,-287.27C608.84,-276.49 612.75,-264.75 615.71,-255.86"/>
<polygon fill="#63b8ff" stroke="#63b8ff" points="601.91,-286.2 602.07,-296.79 608.55,-288.41 601.91,-286.2"/>
</a>
</g>
</g>
<!-- Node12&#45;&gt;Node15 -->
<g id="edge27_Node000012_Node000015" class="edge">
<title>Node12&#45;&gt;Node15</title>
<g id="a_edge27_Node000012_Node000015"><a xlink:title=" ">
<path fill="none" stroke="#63b8ff" d="M679.42,-294.42C719.63,-283.84 767.37,-271.27 806.24,-261.04"/>
<polygon fill="#63b8ff" stroke="#63b8ff" points="678.42,-291.06 669.64,-296.99 680.2,-297.83 678.42,-291.06"/>
</a>
</g>
</g>
<!-- Node14 -->
<g id="Node000014" class="node">
<title>Node14</title>
<g id="a_Node000014"><a xlink:href="_listener_socket_8hpp.html" target="_top" xlink:title=" ">
<polygon fill="white" stroke="#666666" points="663.5,-178.5 525.5,-178.5 525.5,-148.5 663.5,-148.5 663.5,-178.5"/>
<text text-anchor="start" x="533.5" y="-166.5" font-family="Helvetica,sans-Serif" font-size="10.00">include/Hermes/Socket</text>
<text text-anchor="middle" x="594.5" y="-155.5" font-family="Helvetica,sans-Serif" font-size="10.00">/Sync/ListenerSocket.hpp</text>
</a>
</g>
</g>
<!-- Node13&#45;&gt;Node14 -->
<g id="edge26_Node000013_Node000014" class="edge">
<title>Node13&#45;&gt;Node14</title>
<g id="a_edge26_Node000013_Node000014"><a xlink:title=" ">
<path fill="none" stroke="#63b8ff" d="M612.28,-215.78C608.03,-203.53 602.99,-189 599.37,-178.54"/>
<polygon fill="#63b8ff" stroke="#63b8ff" points="609.03,-217.09 615.61,-225.39 615.64,-214.8 609.03,-217.09"/>
</a>
</g>
</g>
<!-- Node15&#45;&gt;Node5 -->
<g id="edge28_Node000015_Node000005" class="edge">
<title>Node15&#45;&gt;Node5</title>
<g id="a_edge28_Node000015_Node000005"><a xlink:title=" ">
<path fill="none" stroke="#63b8ff" d="M789.48,-227.16C715.7,-216.79 609.13,-200.97 516.5,-184 513.48,-183.45 510.41,-182.87 507.31,-182.27"/>
<polygon fill="#63b8ff" stroke="#63b8ff" points="789.28,-230.67 799.67,-228.59 790.25,-223.73 789.28,-230.67"/>
</a>
</g>
</g>
<!-- Node16 -->
<g id="Node000016" class="node">
<title>Node16</title>
<g id="a_Node000016"><a xlink:href="_tls_accept_state_machine_8hpp.html" target="_top" xlink:title=" ">
<polygon fill="white" stroke="#666666" points="1033.5,-184 873.5,-184 873.5,-143 1033.5,-143 1033.5,-184"/>
<text text-anchor="start" x="881.5" y="-172" font-family="Helvetica,sans-Serif" font-size="10.00">include/Hermes/Socket</text>
<text text-anchor="start" x="881.5" y="-161" font-family="Helvetica,sans-Serif" font-size="10.00">/_base/Accept/TlsAcceptState</text>
<text text-anchor="middle" x="953.5" y="-150" font-family="Helvetica,sans-Serif" font-size="10.00">Machine.hpp</text>
</a>
</g>
</g>
<!-- Node15&#45;&gt;Node16 -->
<g id="edge29_Node000015_Node000016" class="edge">
<title>Node15&#45;&gt;Node16</title>
<g id="a_edge29_Node000015_Node000016"><a xlink:title=" ">
<path fill="none" stroke="#63b8ff" d="M906.77,-212.51C915.92,-203.11 926,-192.76 934.45,-184.07"/>
<polygon fill="#63b8ff" stroke="#63b8ff" points="904.15,-210.19 899.68,-219.79 909.16,-215.07 904.15,-210.19"/>
</a>
</g>
</g>
<!-- Node18 -->
<g id="Node000018" class="node">
<title>Node18</title>
<g id="a_Node000018"><a xlink:href="_client_socket_8hpp.html" target="_top" xlink:title=" ">
<polygon fill="white" stroke="#666666" points="1267.5,-178.5 1139.5,-178.5 1139.5,-148.5 1267.5,-148.5 1267.5,-178.5"/>
<text text-anchor="start" x="1147.5" y="-166.5" font-family="Helvetica,sans-Serif" font-size="10.00">include/Hermes/Socket</text>
<text text-anchor="middle" x="1203.5" y="-155.5" font-family="Helvetica,sans-Serif" font-size="10.00">/Sync/ClientSocket.hpp</text>
</a>
</g>
</g>
<!-- Node17&#45;&gt;Node18 -->
<g id="edge31_Node000017_Node000018" class="edge">
<title>Node17&#45;&gt;Node18</title>
<g id="a_edge31_Node000017_Node000018"><a xlink:title=" ">
<path fill="none" stroke="#63b8ff" d="M1243.82,-286.84C1241.53,-267.48 1237.46,-241.84 1230.5,-220 1225.81,-205.3 1217.86,-189.58 1211.79,-178.63"/>
<polygon fill="#63b8ff" stroke="#63b8ff" points="1240.35,-287.33 1244.92,-296.89 1247.31,-286.57 1240.35,-287.33"/>
</a>
</g>
</g>
<!-- Node17&#45;&gt;Node19 -->
<g id="edge32_Node000017_Node000019" class="edge">
<title>Node17&#45;&gt;Node19</title>
<g id="a_edge32_Node000017_Node000019"><a xlink:title=" ">
<path fill="none" stroke="#63b8ff" d="M1279.72,-290.82C1292.27,-281.11 1306.33,-270.24 1318.06,-261.17"/>
<polygon fill="#63b8ff" stroke="#63b8ff" points="1277.5,-288.1 1271.73,-296.99 1281.78,-293.64 1277.5,-288.1"/>
</a>
</g>
</g>
<!-- Node19&#45;&gt;Node6 -->
<g id="edge33_Node000019_Node000006" class="edge">
<title>Node19&#45;&gt;Node6</title>
<g id="a_edge33_Node000019_Node000006"><a xlink:title=" ">
<path fill="none" stroke="#63b8ff" d="M1267.12,-225.54C1254.9,-223.53 1242.37,-221.61 1230.5,-220 1068.52,-198.09 1026.14,-208.3 864.5,-184 861.39,-183.53 858.23,-183.03 855.03,-182.5"/>
<polygon fill="#63b8ff" stroke="#63b8ff" points="1266.86,-229.05 1277.3,-227.25 1268.01,-222.14 1266.86,-229.05"/>
</a>
</g>
</g>
<!-- Node19&#45;&gt;Node8 -->
<g id="edge34_Node000019_Node000008" class="edge">
<title>Node19&#45;&gt;Node8</title>
<g id="a_edge34_Node000019_Node000008"><a xlink:title=" ">
<path fill="none" stroke="#63b8ff" d="M1330.43,-210.55C1319.16,-188.8 1300.85,-159.95 1276.5,-143 1235.69,-114.58 1181.42,-100.71 1137.61,-93.94"/>
<polygon fill="#63b8ff" stroke="#63b8ff" points="1327.39,-212.28 1334.97,-219.68 1333.65,-209.16 1327.39,-212.28"/>
</a>
</g>
</g>
<!-- Node19&#45;&gt;Node18 -->
<g id="edge35_Node000019_Node000018" class="edge">
<title>Node19&#45;&gt;Node18</title>
<g id="a_edge35_Node000019_Node000018"><a xlink:title=" ">
<path fill="none" stroke="#63b8ff" d="M1298.03,-215.14C1275.54,-203.09 1249.17,-188.97 1230.01,-178.7"/>
<polygon fill="#63b8ff" stroke="#63b8ff" points="1296.61,-218.35 1307.08,-219.99 1299.92,-212.18 1296.61,-218.35"/>
</a>
</g>
</g>
<!-- Node20 -->
<g id="Node000020" class="node">
<title>Node20</title>
<g id="a_Node000020"><a xlink:href="_tls_connect_state_machine_8hpp.html" target="_top" xlink:title=" ">
<polygon fill="white" stroke="#666666" points="1546,-184 1383,-184 1383,-143 1546,-143 1546,-184"/>
<text text-anchor="start" x="1391" y="-172" font-family="Helvetica,sans-Serif" font-size="10.00">include/Hermes/Socket</text>
<text text-anchor="start" x="1391" y="-161" font-family="Helvetica,sans-Serif" font-size="10.00">/_base/Connection/TlsConnect</text>
<text text-anchor="middle" x="1464.5" y="-150" font-family="Helvetica,sans-Serif" font-size="10.00">StateMachine.hpp</text>
</a>
</g>
</g>
<!-- Node19&#45;&gt;Node20 -->
<g id="edge36_Node000019_Node000020" class="edge">
<title>Node19&#45;&gt;Node20</title>
<g id="a_edge36_Node000019_Node000020"><a xlink:title=" ">
<path fill="none" stroke="#63b8ff" d="M1383.6,-214.64C1399.58,-204.74 1417.72,-193.5 1432.76,-184.17"/>
<polygon fill="#63b8ff" stroke="#63b8ff" points="1381.63,-211.75 1374.98,-219.99 1385.32,-217.7 1381.63,-211.75"/>
</a>
</g>
</g>
<!-- Node21&#45;&gt;Node13 -->
<g id="edge39_Node000021_Node000013" class="edge">
<title>Node21&#45;&gt;Node13</title>
<g id="a_edge39_Node000021_Node000013"><a xlink:title=" ">
<path fill="none" stroke="#63b8ff" d="M754.36,-293.25C722.46,-280.92 684.32,-266.17 656.93,-255.58"/>
<polygon fill="#63b8ff" stroke="#63b8ff" points="753.45,-296.65 764.04,-296.99 755.97,-290.12 753.45,-296.65"/>
</a>
</g>
</g>
<!-- Node21&#45;&gt;Node18 -->
<g id="edge38_Node000021_Node000018" class="edge">
<title>Node21&#45;&gt;Node18</title>
<g id="a_edge38_Node000021_Node000018"><a xlink:title=" ">
<path fill="none" stroke="#63b8ff" d="M880.61,-293.6C908.2,-283.85 940.51,-272.16 969.5,-261 1041.88,-233.13 1125.69,-197.82 1170.76,-178.58"/>
<polygon fill="#63b8ff" stroke="#63b8ff" points="879.33,-290.34 871.06,-296.97 881.65,-296.95 879.33,-290.34"/>
</a>
</g>
</g>
<!-- Node22&#45;&gt;Node5 -->
<g id="edge41_Node000022_Node000005" class="edge">
<title>Node22&#45;&gt;Node5</title>
<g id="a_edge41_Node000022_Node000005"><a xlink:title=" ">
<path fill="none" stroke="#63b8ff" d="M1034.03,-294.01C1015.79,-268.26 985.91,-228.52 969.5,-220 879.88,-173.46 616.42,-198.61 516.5,-184 513.46,-183.56 510.37,-183.07 507.26,-182.55"/>
<polygon fill="#63b8ff" stroke="#63b8ff" points="1031.34,-296.28 1039.95,-302.46 1037.08,-292.27 1031.34,-296.28"/>
</a>
</g>
</g>
<!-- Node22&#45;&gt;Node8 -->
<g id="edge42_Node000022_Node000008" class="edge">
<title>Node22&#45;&gt;Node8</title>
<g id="a_edge42_Node000022_Node000008"><a xlink:title=" ">
<path fill="none" stroke="#63b8ff" d="M1050.78,-291.98C1053.18,-246.28 1058.28,-148.93 1060.47,-107.18"/>
<polygon fill="#63b8ff" stroke="#63b8ff" points="1047.28,-292.01 1050.25,-302.18 1054.27,-292.37 1047.28,-292.01"/>
</a>
</g>
</g>
<!-- Node22&#45;&gt;Node10 -->
<g id="edge43_Node000022_Node000010" class="edge">
<title>Node22&#45;&gt;Node10</title>
<g id="a_edge43_Node000022_Node000010"><a xlink:title=" ">
<path fill="none" stroke="#63b8ff" d="M970.97,-305.75C946.51,-302.63 919.41,-299.42 894.5,-297 663.04,-274.48 604.01,-282.99 372.5,-261 344.61,-258.35 314.08,-254.82 287.17,-251.48"/>
<polygon fill="#63b8ff" stroke="#63b8ff" points="970.56,-309.22 980.92,-307.03 971.45,-302.28 970.56,-309.22"/>
</a>
</g>
</g>
<!-- Node22&#45;&gt;Node15 -->
<g id="edge44_Node000022_Node000015" class="edge">
<title>Node22&#45;&gt;Node15</title>
<g id="a_edge44_Node000022_Node000015"><a xlink:title=" ">
<path fill="none" stroke="#63b8ff" d="M1008.37,-298.25C983,-286.99 950.48,-272.56 924.58,-261.06"/>
<polygon fill="#63b8ff" stroke="#63b8ff" points="1007.15,-301.54 1017.71,-302.39 1009.99,-295.14 1007.15,-301.54"/>
</a>
</g>
</g>
<!-- Node22&#45;&gt;Node19 -->
<g id="edge45_Node000022_Node000019" class="edge">
<title>Node22&#45;&gt;Node19</title>
<g id="a_edge45_Node000022_Node000019"><a xlink:title=" ">
<path fill="none" stroke="#63b8ff" d="M1114.21,-299.99C1162.67,-287.63 1228.73,-270.78 1277.5,-258.34"/>
<polygon fill="#63b8ff" stroke="#63b8ff" points="1113.28,-296.62 1104.45,-302.48 1115.01,-303.4 1113.28,-296.62"/>
</a>
</g>
</g>
<!-- Node22&#45;&gt;Node23 -->
<g id="edge46_Node000022_Node000023" class="edge">
<title>Node22&#45;&gt;Node23</title>
<g id="a_edge46_Node000022_Node000023"><a xlink:title=" ">
<path fill="none" stroke="#63b8ff" d="M1078.14,-296.61C1093.91,-285.66 1113.4,-272.12 1129.13,-261.2"/>
<polygon fill="#63b8ff" stroke="#63b8ff" points="1076.03,-293.81 1069.81,-302.39 1080.02,-299.56 1076.03,-293.81"/>
</a>
</g>
</g>
<!-- Node23&#45;&gt;Node18 -->
<g id="edge47_Node000023_Node000018" class="edge">
<title>Node23&#45;&gt;Node18</title>
<g id="a_edge47_Node000023_Node000018"><a xlink:title=" ">
<path fill="none" stroke="#63b8ff" d="M1174.82,-211.26C1181.6,-200.21 1189.07,-188.02 1194.69,-178.86"/>
<polygon fill="#63b8ff" stroke="#63b8ff" points="1171.83,-209.44 1169.59,-219.79 1177.8,-213.1 1171.83,-209.44"/>
</a>
</g>
</g>
<!-- Node24&#45;&gt;Node16 -->
<g id="edge55_Node000024_Node000016" class="edge">
<title>Node24&#45;&gt;Node16</title>
<g id="a_edge55_Node000024_Node000016"><a xlink:title=" ">
<path fill="none" stroke="#63b8ff" d="M1333.47,-368.29C1385.14,-333.45 1462.28,-269.31 1418.5,-220 1415.33,-216.43 1165.71,-188.13 1033.56,-173.38"/>
<polygon fill="#63b8ff" stroke="#63b8ff" points="1331.51,-365.39 1325.1,-373.83 1335.37,-371.23 1331.51,-365.39"/>
</a>
</g>
</g>
<!-- Node25&#45;&gt;Node20 -->
<g id="edge57_Node000025_Node000020" class="edge">
<title>Node25&#45;&gt;Node20</title>
<g id="a_edge57_Node000025_Node000020"><a xlink:title=" ">
<path fill="none" stroke="#63b8ff" d="M1474.07,-363.73C1471.79,-316.23 1467.39,-224.57 1465.45,-184.3"/>
<polygon fill="#63b8ff" stroke="#63b8ff" points="1470.59,-364.16 1474.56,-373.98 1477.58,-363.82 1470.59,-364.16"/>
</a>
</g>
</g>
<!-- Node26&#45;&gt;Node27 -->
<g id="edge59_Node000026_Node000027" class="edge">
<title>Node26&#45;&gt;Node27</title>
<g id="a_edge59_Node000026_Node000027"><a xlink:title=" ">
<path fill="none" stroke="#63b8ff" d="M1719.02,-363.98C1716.82,-355.28 1714.46,-345.98 1712.46,-338.07"/>
<polygon fill="#63b8ff" stroke="#63b8ff" points="1715.66,-364.96 1721.51,-373.79 1722.44,-363.24 1715.66,-364.96"/>
</a>
</g>
</g>
</g>
</svg>
