<?xml version="1.0" encoding="UTF-8" standalone="no"?>
<!DOCTYPE svg PUBLIC "-//W3C//DTD SVG 1.1//EN"
 "http://www.w3.org/Graphics/SVG/1.1/DTD/svg11.dtd">
<!-- Generated by graphviz version 2.43.0 (0)
 -->
<!-- Title: include/Hermes/Socket/_base.hpp Pages: 1 -->
<svg width="2059pt" height="423pt"
 viewBox="0.00 0.00 2059.00 423.00" xmlns="http://www.w3.org/2000/svg" xmlns:xlink="http://www.w3.org/1999/xlink">
<g id="graph0" class="graph" transform="scale(1 1) rotate(0) translate(4 419)">
<title>include/Hermes/Socket/_base.hpp</title>
<!-- Node1 -->
<g id="Node000001" class="node">
<title>Node1</title>
<g id="a_Node000001"><a xlink:title=" ">
<polygon fill="#999999" stroke="#666666" points="1217.5,-415 1089.5,-415 1089.5,-385 1217.5,-385 1217.5,-415"/>
<text text-anchor="start" x="1097.5" y="-403" font-family="Helvetica,sans-Serif" font-size="10.00">include/Hermes/Socket</text>
<text text-anchor="middle" x="1153.5" y="-392" font-family="Helvetica,sans-Serif" font-size="10.00">/_base.hpp</text>
</a>
</g>
</g>
<!-- Node2 -->
<g id="Node000002" class="node">
<title>Node2</title>
<g id="a_Node000002"><a xlink:href="_async_listener_socket_8hpp.html" target="_top" xlink:title=" ">
<polygon fill="white" stroke="#666666" points="173,-35.5 0,-35.5 0,-5.5 173,-5.5 173,-35.5"/>
<text text-anchor="start" x="8" y="-23.5" font-family="Helvetica,sans-Serif" font-size="10.00">include/Hermes/Socket</text>
<text text-anchor="middle" x="86.5" y="-12.5" font-family="Helvetica,sans-Serif" font-size="10.00">/Async/AsyncListenerSocket.hpp</text>
</a>
</g>
</g>
<!-- Node1&#45;&gt;Node2 -->
<g id="edge1_Node000001_Node000002" class="edge">
<title>Node1&#45;&gt;Node2</title>
<g id="a_edge1_Node000001_Node000002"><a xlink:title=" ">
<path fill="none" stroke="#63b8ff" d="M1079.17,-397.93C866.24,-394.47 263.98,-381.86 181.5,-349 120.15,-324.56 68.5,-318.54 68.5,-252.5 68.5,-252.5 68.5,-252.5 68.5,-173.5 68.5,-122.48 78.62,-62.49 83.69,-35.68"/>
<polygon fill="#63b8ff" stroke="#63b8ff" points="1079.26,-401.43 1089.31,-398.09 1079.37,-394.43 1079.26,-401.43"/>
</a>
</g>
</g>
<!-- Node3 -->
<g id="Node000003" class="node">
<title>Node3</title>
<g id="a_Node000003"><a xlink:href="_async_server_socket_8hpp.html" target="_top" xlink:title=" ">
<polygon fill="white" stroke="#666666" points="262.5,-112.5 96.5,-112.5 96.5,-82.5 262.5,-82.5 262.5,-112.5"/>
<text text-anchor="start" x="104.5" y="-100.5" font-family="Helvetica,sans-Serif" font-size="10.00">include/Hermes/Socket</text>
<text text-anchor="middle" x="179.5" y="-89.5" font-family="Helvetica,sans-Serif" font-size="10.00">/Async/AsyncServerSocket.hpp</text>
</a>
</g>
</g>
<!-- Node1&#45;&gt;Node3 -->
<g id="edge2_Node000001_Node000003" class="edge">
<title>Node1&#45;&gt;Node3</title>
<g id="a_edge2_Node000001_Node000003"><a xlink:title=" ">
<path fill="none" stroke="#63b8ff" d="M1079.13,-398.92C898.48,-398.05 440.64,-391.58 294.5,-349 227.07,-329.35 192.06,-332.57 156.5,-272 125.88,-219.86 156.76,-143.94 172.03,-112.72"/>
<polygon fill="#63b8ff" stroke="#63b8ff" points="1079.32,-402.42 1089.34,-398.97 1079.35,-395.42 1079.32,-402.42"/>
</a>
</g>
</g>
<!-- Node4 -->
<g id="Node000004" class="node">
<title>Node4</title>
<g id="a_Node000004"><a xlink:href="_default_async_accept_policy_8hpp.html" target="_top" xlink:title=" ">
<polygon fill="white" stroke="#666666" points="474,-195 319,-195 319,-154 474,-154 474,-195"/>
<text text-anchor="start" x="327" y="-183" font-family="Helvetica,sans-Serif" font-size="10.00">include/Hermes/Socket</text>
<text text-anchor="start" x="327" y="-172" font-family="Helvetica,sans-Serif" font-size="10.00">/Async/_base/Accept/Default</text>
<text text-anchor="middle" x="396.5" y="-161" font-family="Helvetica,sans-Serif" font-size="10.00">AsyncAcceptPolicy.hpp</text>
</a>
</g>
</g>
<!-- Node1&#45;&gt;Node4 -->
<g id="edge4_Node000001_Node000004" class="edge">
<title>Node1&#45;&gt;Node4</title>
<g id="a_edge4_Node000001_Node000004"><a xlink:title=" ">
<path fill="none" stroke="#63b8ff" d="M1079.06,-395.98C942.68,-389.91 657.99,-374.57 562.5,-349 484.72,-328.17 442.38,-339.52 398.5,-272 383.53,-248.96 386.92,-215.83 391.29,-195"/>
<polygon fill="#63b8ff" stroke="#63b8ff" points="1079.26,-399.49 1089.41,-396.44 1079.57,-392.5 1079.26,-399.49"/>
</a>
</g>
</g>
<!-- Node5 -->
<g id="Node000005" class="node">
<title>Node5</title>
<g id="a_Node000005"><a xlink:href="_tls_async_accept_policy_8hpp.html" target="_top" xlink:title=" ">
<polygon fill="white" stroke="#666666" points="812,-118 649,-118 649,-77 812,-77 812,-118"/>
<text text-anchor="start" x="657" y="-106" font-family="Helvetica,sans-Serif" font-size="10.00">include/Hermes/Socket</text>
<text text-anchor="start" x="657" y="-95" font-family="Helvetica,sans-Serif" font-size="10.00">/Async/_base/Accept/TlsAsync</text>
<text text-anchor="middle" x="730.5" y="-84" font-family="Helvetica,sans-Serif" font-size="10.00">AcceptPolicy.hpp</text>
</a>
</g>
</g>
<!-- Node1&#45;&gt;Node5 -->
<g id="edge7_Node000001_Node000005" class="edge">
<title>Node1&#45;&gt;Node5</title>
<g id="a_edge7_Node000001_Node000005"><a xlink:title=" ">
<path fill="none" stroke="#63b8ff" d="M1092.06,-381.22C1073.76,-373.6 1054.8,-363.12 1040.5,-349 999.46,-308.48 1031.52,-267.05 986.5,-231 926.21,-182.73 883.3,-233.76 816.5,-195 812.13,-192.47 771.39,-145.79 747.58,-118.3"/>
<polygon fill="#63b8ff" stroke="#63b8ff" points="1090.96,-384.54 1101.54,-384.94 1093.52,-378.03 1090.96,-384.54"/>
</a>
</g>
</g>
<!-- Node6 -->
<g id="Node000006" class="node">
<title>Node6</title>
<g id="a_Node000006"><a xlink:href="_default_async_connect_policy_8hpp.html" target="_top" xlink:title=" ">
<polygon fill="white" stroke="#666666" points="1182,-118 1009,-118 1009,-77 1182,-77 1182,-118"/>
<text text-anchor="start" x="1017" y="-106" font-family="Helvetica,sans-Serif" font-size="10.00">include/Hermes/Socket</text>
<text text-anchor="start" x="1017" y="-95" font-family="Helvetica,sans-Serif" font-size="10.00">/Async/_base/Connection</text>
<text text-anchor="middle" x="1095.5" y="-84" font-family="Helvetica,sans-Serif" font-size="10.00">/DefaultAsyncConnectPolicy.hpp</text>
</a>
</g>
</g>
<!-- Node1&#45;&gt;Node6 -->
<g id="edge8_Node000001_Node000006" class="edge">
<title>Node1&#45;&gt;Node6</title>
<g id="a_edge8_Node000001_Node000006"><a xlink:title=" ">
<path fill="none" stroke="#63b8ff" d="M1208.32,-380.33C1222.22,-372.84 1235.47,-362.65 1243.5,-349 1252.74,-333.29 1253.36,-323.33 1243.5,-308 1222.63,-275.55 1191.11,-299.94 1164.5,-272 1122.03,-227.39 1104.59,-153.43 1098.43,-118.26"/>
<polygon fill="#63b8ff" stroke="#63b8ff" points="1206.55,-377.3 1199.15,-384.87 1209.66,-383.57 1206.55,-377.3"/>
</a>
</g>
</g>
<!-- Node8 -->
<g id="Node000008" class="node">
<title>Node8</title>
<g id="a_Node000008"><a xlink:href="_tls_async_connect_policy_8hpp.html" target="_top" xlink:title=" ">
<polygon fill="white" stroke="#666666" points="1307.5,-41 1155.5,-41 1155.5,0 1307.5,0 1307.5,-41"/>
<text text-anchor="start" x="1163.5" y="-29" font-family="Helvetica,sans-Serif" font-size="10.00">include/Hermes/Socket</text>
<text text-anchor="start" x="1163.5" y="-18" font-family="Helvetica,sans-Serif" font-size="10.00">/Async/_base/Connection</text>
<text text-anchor="middle" x="1231.5" y="-7" font-family="Helvetica,sans-Serif" font-size="10.00">/TlsAsyncConnectPolicy.hpp</text>
</a>
</g>
</g>
<!-- Node1&#45;&gt;Node8 -->
<g id="edge11_Node000001_Node000008" class="edge">
<title>Node1&#45;&gt;Node8</title>
<g id="a_edge11_Node000001_Node000008"><a xlink:title=" ">
<path fill="none" stroke="#63b8ff" d="M1227.81,-396.99C1362.29,-392.59 1634.94,-379.94 1664.5,-349 1724.42,-286.28 1710.99,-231.73 1672.5,-154 1647.46,-103.41 1623.34,-99.32 1571.5,-77 1485.94,-40.16 1378.64,-27.6 1307.72,-23.42"/>
<polygon fill="#63b8ff" stroke="#63b8ff" points="1227.47,-393.5 1217.58,-397.31 1227.69,-400.49 1227.47,-393.5"/>
</a>
</g>
</g>
<!-- Node9 -->
<g id="Node000009" class="node">
<title>Node9</title>
<g id="a_Node000009"><a xlink:href="_default_async_transfer_policy_8hpp.html" target="_top" xlink:title=" ">
<polygon fill="white" stroke="#666666" points="339,-272 166,-272 166,-231 339,-231 339,-272"/>
<text text-anchor="start" x="174" y="-260" font-family="Helvetica,sans-Serif" font-size="10.00">include/Hermes/Socket</text>
<text text-anchor="start" x="174" y="-249" font-family="Helvetica,sans-Serif" font-size="10.00">/Async/_base/Transfer</text>
<text text-anchor="middle" x="252.5" y="-238" font-family="Helvetica,sans-Serif" font-size="10.00">/DefaultAsyncTransferPolicy.hpp</text>
</a>
</g>
</g>
<!-- Node1&#45;&gt;Node9 -->
<g id="edge12_Node000001_Node000009" class="edge">
<title>Node1&#45;&gt;Node9</title>
<g id="a_edge12_Node000001_Node000009"><a xlink:title=" ">
<path fill="none" stroke="#63b8ff" d="M1079.01,-397.25C893.1,-392.47 418.88,-377.61 353.5,-349 315.73,-332.47 283.58,-295.34 266.25,-272.26"/>
<polygon fill="#63b8ff" stroke="#63b8ff" points="1079.16,-400.76 1089.24,-397.51 1079.33,-393.76 1079.16,-400.76"/>
</a>
</g>
</g>
<!-- Node10 -->
<g id="Node000010" class="node">
<title>Node10</title>
<g id="a_Node000010"><a xlink:href="_tls_async_transfer_policy_8hpp.html" target="_top" xlink:title=" ">
<polygon fill="white" stroke="#666666" points="1497,-195 1346,-195 1346,-154 1497,-154 1497,-195"/>
<text text-anchor="start" x="1354" y="-183" font-family="Helvetica,sans-Serif" font-size="10.00">include/Hermes/Socket</text>
<text text-anchor="start" x="1354" y="-172" font-family="Helvetica,sans-Serif" font-size="10.00">/Async/_base/Transfer</text>
<text text-anchor="middle" x="1421.5" y="-161" font-family="Helvetica,sans-Serif" font-size="10.00">/TlsAsyncTransferPolicy.hpp</text>
</a>
</g>
</g>
<!-- Node1&#45;&gt;Node10 -->
<g id="edge15_Node000001_Node000010" class="edge">
<title>Node1&#45;&gt;Node10</title>
<g id="a_edge15_Node000001_Node000010"><a xlink:title=" ">
<path fill="none" stroke="#63b8ff" d="M1227.74,-390.15C1260.17,-383.23 1296.99,-370.92 1324.5,-349 1376.19,-307.82 1404.82,-231.16 1415.97,-195.15"/>
<polygon fill="#63b8ff" stroke="#63b8ff" points="1226.96,-386.74 1217.84,-392.12 1228.33,-393.6 1226.96,-386.74"/>
</a>
</g>
</g>
<!-- Node11 -->
<g id="Node000011" class="node">
<title>Node11</title>
<g id="a_Node000011"><a xlink:href="_default_socket_data_8hpp.html" target="_top" xlink:title=" ">
<polygon fill="white" stroke="#666666" points="784.5,-343.5 626.5,-343.5 626.5,-313.5 784.5,-313.5 784.5,-343.5"/>
<text text-anchor="start" x="634.5" y="-331.5" font-family="Helvetica,sans-Serif" font-size="10.00">include/Hermes/Socket</text>
<text text-anchor="middle" x="705.5" y="-320.5" font-family="Helvetica,sans-Serif" font-size="10.00">/Data/DefaultSocketData.hpp</text>
</a>
</g>
</g>
<!-- Node1&#45;&gt;Node11 -->
<g id="edge16_Node000001_Node000011" class="edge">
<title>Node1&#45;&gt;Node11</title>
<g id="a_edge16_Node000001_Node000011"><a xlink:title=" ">
<path fill="none" stroke="#63b8ff" d="M1079.15,-387.47C997.79,-374.84 867.89,-354.69 784.67,-341.78"/>
<polygon fill="#63b8ff" stroke="#63b8ff" points="1078.89,-390.97 1089.31,-389.04 1079.97,-384.05 1078.89,-390.97"/>
</a>
</g>
</g>
<!-- Node12 -->
<g id="Node000012" class="node">
<title>Node12</title>
<g id="a_Node000012"><a xlink:href="_default_accept_policy_8hpp.html" target="_top" xlink:title=" ">
<polygon fill="white" stroke="#666666" points="615.5,-272 433.5,-272 433.5,-231 615.5,-231 615.5,-272"/>
<text text-anchor="start" x="441.5" y="-260" font-family="Helvetica,sans-Serif" font-size="10.00">include/Hermes/Socket</text>
<text text-anchor="start" x="441.5" y="-249" font-family="Helvetica,sans-Serif" font-size="10.00">/Sync/_base/Accept/DefaultAccept</text>
<text text-anchor="middle" x="524.5" y="-238" font-family="Helvetica,sans-Serif" font-size="10.00">Policy.hpp</text>
</a>
</g>
</g>
<!-- Node1&#45;&gt;Node12 -->
<g id="edge43_Node000001_Node000012" class="edge">
<title>Node1&#45;&gt;Node12</title>
<g id="a_edge43_Node000001_Node000012"><a xlink:title=" ">
<path fill="none" stroke="#63b8ff" d="M1079.19,-398.39C951.66,-396.31 697.14,-387.32 617.5,-349 581.86,-331.85 552.54,-294.92 536.87,-272.05"/>
<polygon fill="#63b8ff" stroke="#63b8ff" points="1079.21,-401.89 1089.26,-398.55 1079.32,-394.89 1079.21,-401.89"/>
</a>
</g>
</g>
<!-- Node15 -->
<g id="Node000015" class="node">
<title>Node15</title>
<g id="a_Node000015"><a xlink:href="_tls_accept_policy_8hpp.html" target="_top" xlink:title=" ">
<polygon fill="white" stroke="#666666" points="987,-195 826,-195 826,-154 987,-154 987,-195"/>
<text text-anchor="start" x="834" y="-183" font-family="Helvetica,sans-Serif" font-size="10.00">include/Hermes/Socket</text>
<text text-anchor="start" x="834" y="-172" font-family="Helvetica,sans-Serif" font-size="10.00">/Sync/_base/Accept/TlsAccept</text>
<text text-anchor="middle" x="906.5" y="-161" font-family="Helvetica,sans-Serif" font-size="10.00">Policy.hpp</text>
</a>
</g>
</g>
<!-- Node1&#45;&gt;Node15 -->
<g id="edge44_Node000001_Node000015" class="edge">
<title>Node1&#45;&gt;Node15</title>
<g id="a_edge44_Node000001_Node000015"><a xlink:title=" ">
<path fill="none" stroke="#63b8ff" d="M1104.92,-380.43C1089.67,-372.64 1073.87,-362.26 1062.5,-349 1026.16,-306.63 1056.8,-272.53 1019.5,-231 1005.41,-215.31 985.88,-203.56 967.02,-195.01"/>
<polygon fill="#63b8ff" stroke="#63b8ff" points="1103.76,-383.76 1114.29,-384.94 1106.8,-377.45 1103.76,-383.76"/>
</a>
</g>
</g>
<!-- Node17 -->
<g id="Node000017" class="node">
<title>Node17</title>
<g id="a_Node000017"><a xlink:href="_default_connect_policy_8hpp.html" target="_top" xlink:title=" ">
<polygon fill="white" stroke="#666666" points="977.5,-272 833.5,-272 833.5,-231 977.5,-231 977.5,-272"/>
<text text-anchor="start" x="841.5" y="-260" font-family="Helvetica,sans-Serif" font-size="10.00">include/Hermes/Socket</text>
<text text-anchor="start" x="841.5" y="-249" font-family="Helvetica,sans-Serif" font-size="10.00">/Sync/_base/Connection</text>
<text text-anchor="middle" x="905.5" y="-238" font-family="Helvetica,sans-Serif" font-size="10.00">/DefaultConnectPolicy.hpp</text>
</a>
</g>
</g>
<!-- Node1&#45;&gt;Node17 -->
<g id="edge45_Node000001_Node000017" class="edge">
<title>Node1&#45;&gt;Node17</title>
<g id="a_edge45_Node000001_Node000017"><a xlink:title=" ">
<path fill="none" stroke="#63b8ff" d="M1079.22,-385.09C1050.31,-377.43 1017.86,-365.94 991.5,-349 959.97,-328.74 932.98,-293.85 918.02,-272.03"/>
<polygon fill="#63b8ff" stroke="#63b8ff" points="1078.74,-388.57 1089.29,-387.64 1080.45,-381.79 1078.74,-388.57"/>
</a>
</g>
</g>
<!-- Node19 -->
<g id="Node000019" class="node">
<title>Node19</title>
<g id="a_Node000019"><a xlink:href="_tls_connect_policy_8hpp.html" target="_top" xlink:title=" ">
<polygon fill="white" stroke="#666666" points="1327.5,-195 1195.5,-195 1195.5,-154 1327.5,-154 1327.5,-195"/>
<text text-anchor="start" x="1203.5" y="-183" font-family="Helvetica,sans-Serif" font-size="10.00">include/Hermes/Socket</text>
<text text-anchor="start" x="1203.5" y="-172" font-family="Helvetica,sans-Serif" font-size="10.00">/Sync/_base/Connection</text>
<text text-anchor="middle" x="1261.5" y="-161" font-family="Helvetica,sans-Serif" font-size="10.00">/TlsConnectPolicy.hpp</text>
</a>
</g>
</g>
<!-- Node1&#45;&gt;Node19 -->
<g id="edge46_Node000001_Node000019" class="edge">
<title>Node1&#45;&gt;Node19</title>
<g id="a_edge46_Node000001_Node000019"><a xlink:title=" ">
<path fill="none" stroke="#63b8ff" d="M1227.39,-386.83C1251.85,-379.5 1277.4,-367.77 1295.5,-349 1332.65,-310.47 1340.52,-280.22 1319.5,-231 1313.42,-216.77 1301.71,-204.45 1290.39,-195.05"/>
<polygon fill="#63b8ff" stroke="#63b8ff" points="1226.43,-383.47 1217.73,-389.53 1228.31,-390.21 1226.43,-383.47"/>
</a>
</g>
</g>
<!-- Node21 -->
<g id="Node000021" class="node">
<title>Node21</title>
<g id="a_Node000021"><a xlink:href="_default_transfer_policy_8hpp.html" target="_top" xlink:title=" ">
<polygon fill="white" stroke="#666666" points="777,-272 634,-272 634,-231 777,-231 777,-272"/>
<text text-anchor="start" x="642" y="-260" font-family="Helvetica,sans-Serif" font-size="10.00">include/Hermes/Socket</text>
<text text-anchor="start" x="642" y="-249" font-family="Helvetica,sans-Serif" font-size="10.00">/Sync/_base/Transfer</text>
<text text-anchor="middle" x="705.5" y="-238" font-family="Helvetica,sans-Serif" font-size="10.00">/DefaultTransferPolicy.hpp</text>
</a>
</g>
</g>
<!-- Node1&#45;&gt;Node21 -->
<g id="edge47_Node000001_Node000021" class="edge">
<title>Node1&#45;&gt;Node21</title>
<g id="a_edge47_Node000001_Node000021"><a xlink:title=" ">
<path fill="none" stroke="#63b8ff" d="M1079.59,-384.27C1039,-375.47 988.02,-363.24 943.5,-349 873.64,-326.66 795.29,-293.19 748.21,-272.11"/>
<polygon fill="#63b8ff" stroke="#63b8ff" points="1078.89,-387.7 1089.4,-386.38 1080.36,-380.86 1078.89,-387.7"/>
</a>
</g>
</g>
<!-- Node22 -->
<g id="Node000022" class="node">
<title>Node22</title>
<g id="a_Node000022"><a xlink:href="_tls_socket_data_8hpp.html" target="_top" xlink:title=" ">
<polygon fill="white" stroke="#666666" points="1311,-266.5 1174,-266.5 1174,-236.5 1311,-236.5 1311,-266.5"/>
<text text-anchor="start" x="1182" y="-254.5" font-family="Helvetica,sans-Serif" font-size="10.00">include/Hermes/Socket</text>
<text text-anchor="middle" x="1242.5" y="-243.5" font-family="Helvetica,sans-Serif" font-size="10.00">/Data/TlsSocketData.hpp</text>
</a>
</g>
</g>
<!-- Node1&#45;&gt;Node22 -->
<g id="edge36_Node000001_Node000022" class="edge">
<title>Node1&#45;&gt;Node22</title>
<g id="a_edge36_Node000001_Node000022"><a xlink:title=" ">
<path fill="none" stroke="#63b8ff" d="M1227.4,-385.09C1246.92,-377.69 1265.78,-366.36 1277.5,-349 1295.25,-322.71 1271.39,-286.32 1255.21,-266.59"/>
<polygon fill="#63b8ff" stroke="#63b8ff" points="1226.1,-381.84 1217.8,-388.42 1228.39,-388.45 1226.1,-381.84"/>
</a>
</g>
</g>
<!-- Node23 -->
<g id="Node000023" class="node">
<title>Node23</title>
<g id="a_Node000023"><a xlink:href="_tls_transfer_policy_8hpp.html" target="_top" xlink:title=" ">
<polygon fill="white" stroke="#666666" points="1643.5,-195 1515.5,-195 1515.5,-154 1643.5,-154 1643.5,-195"/>
<text text-anchor="start" x="1523.5" y="-183" font-family="Helvetica,sans-Serif" font-size="10.00">include/Hermes/Socket</text>
<text text-anchor="start" x="1523.5" y="-172" font-family="Helvetica,sans-Serif" font-size="10.00">/Sync/_base/Transfer</text>
<text text-anchor="middle" x="1579.5" y="-161" font-family="Helvetica,sans-Serif" font-size="10.00">/TlsTransferPolicy.hpp</text>
</a>
</g>
</g>
<!-- Node1&#45;&gt;Node23 -->
<g id="edge48_Node000001_Node000023" class="edge">
<title>Node1&#45;&gt;Node23</title>
<g id="a_edge48_Node000001_Node000023"><a xlink:title=" ">
<path fill="none" stroke="#63b8ff" d="M1227.84,-388.57C1267.69,-381.09 1316.82,-368.74 1357.5,-349 1441.77,-308.1 1524.19,-231.3 1560.37,-195.2"/>
<polygon fill="#63b8ff" stroke="#63b8ff" points="1227.14,-385.15 1217.92,-390.37 1228.38,-392.03 1227.14,-385.15"/>
</a>
</g>
</g>
<!-- Node24 -->
<g id="Node000024" class="node">
<title>Node24</title>
<g id="a_Node000024"><a xlink:href="_i_tls_accept_state_machine_8hpp.html" target="_top" xlink:title=" ">
<polygon fill="white" stroke="#666666" points="1235,-349 1072,-349 1072,-308 1235,-308 1235,-349"/>
<text text-anchor="start" x="1080" y="-337" font-family="Helvetica,sans-Serif" font-size="10.00">include/Hermes/Socket</text>
<text text-anchor="start" x="1080" y="-326" font-family="Helvetica,sans-Serif" font-size="10.00">/_base/Accept/ITlsAcceptState</text>
<text text-anchor="middle" x="1153.5" y="-315" font-family="Helvetica,sans-Serif" font-size="10.00">Machine.hpp</text>
</a>
</g>
</g>
<!-- Node1&#45;&gt;Node24 -->
<g id="edge49_Node000001_Node000024" class="edge">
<title>Node1&#45;&gt;Node24</title>
<g id="a_edge49_Node000001_Node000024"><a xlink:title=" ">
<path fill="none" stroke="#63b8ff" d="M1153.5,-374.91C1153.5,-366.47 1153.5,-357.1 1153.5,-349.07"/>
<polygon fill="#63b8ff" stroke="#63b8ff" points="1150,-374.94 1153.5,-384.94 1157,-374.94 1150,-374.94"/>
</a>
</g>
</g>
<!-- Node25 -->
<g id="Node000025" class="node">
<title>Node25</title>
<g id="a_Node000025"><a xlink:href="_i_tls_connect_state_machine_8hpp.html" target="_top" xlink:title=" ">
<polygon fill="white" stroke="#666666" points="1655.5,-349 1489.5,-349 1489.5,-308 1655.5,-308 1655.5,-349"/>
<text text-anchor="start" x="1497.5" y="-337" font-family="Helvetica,sans-Serif" font-size="10.00">include/Hermes/Socket</text>
<text text-anchor="start" x="1497.5" y="-326" font-family="Helvetica,sans-Serif" font-size="10.00">/_base/Connection/ITlsConnect</text>
<text text-anchor="middle" x="1572.5" y="-315" font-family="Helvetica,sans-Serif" font-size="10.00">StateMachine.hpp</text>
</a>
</g>
</g>
<!-- Node1&#45;&gt;Node25 -->
<g id="edge51_Node000001_Node000025" class="edge">
<title>Node1&#45;&gt;Node25</title>
<g id="a_edge51_Node000001_Node000025"><a xlink:title=" ">
<path fill="none" stroke="#63b8ff" d="M1227.67,-386.7C1300.99,-374.54 1412.96,-355.96 1489.27,-343.3"/>
<polygon fill="#63b8ff" stroke="#63b8ff" points="1226.89,-383.28 1217.59,-388.37 1228.03,-390.19 1226.89,-383.28"/>
</a>
</g>
</g>
<!-- Node26 -->
<g id="Node000026" class="node">
<title>Node26</title>
<g id="a_Node000026"><a xlink:href="_i_tls_transfer_state_machine_8hpp.html" target="_top" xlink:title=" ">
<polygon fill="white" stroke="#666666" points="1914,-349 1765,-349 1765,-308 1914,-308 1914,-349"/>
<text text-anchor="start" x="1773" y="-337" font-family="Helvetica,sans-Serif" font-size="10.00">include/Hermes/Socket</text>
<text text-anchor="start" x="1773" y="-326" font-family="Helvetica,sans-Serif" font-size="10.00">/_base/Transfer/ITlsTransfer</text>
<text text-anchor="middle" x="1839.5" y="-315" font-family="Helvetica,sans-Serif" font-size="10.00">StateMachine.hpp</text>
</a>
</g>
</g>
<!-- Node1&#45;&gt;Node26 -->
<g id="edge53_Node000001_Node000026" class="edge">
<title>Node1&#45;&gt;Node26</title>
<g id="a_edge53_Node000001_Node000026"><a xlink:title=" ">
<path fill="none" stroke="#63b8ff" d="M1227.85,-396C1341.31,-390.71 1564.22,-377.45 1751.5,-349 1755.83,-348.34 1760.27,-347.59 1764.74,-346.79"/>
<polygon fill="#63b8ff" stroke="#63b8ff" points="1227.38,-392.52 1217.55,-396.48 1227.7,-399.51 1227.38,-392.52"/>
</a>
</g>
</g>
<!-- Node27 -->
<g id="Node000027" class="node">
<title>Node27</title>
<g id="a_Node000027"><a xlink:href="_tls_transfer_state_machine_8hpp.html" target="_top" xlink:title=" ">
<polygon fill="white" stroke="#666666" points="1902.5,-272 1756.5,-272 1756.5,-231 1902.5,-231 1902.5,-272"/>
<text text-anchor="start" x="1764.5" y="-260" font-family="Helvetica,sans-Serif" font-size="10.00">include/Hermes/Socket</text>
<text text-anchor="start" x="1764.5" y="-249" font-family="Helvetica,sans-Serif" font-size="10.00">/_base/Transfer/TlsTransfer</text>
<text text-anchor="middle" x="1829.5" y="-238" font-family="Helvetica,sans-Serif" font-size="10.00">StateMachine.hpp</text>
</a>
</g>
</g>
<!-- Node1&#45;&gt;Node27 -->
<g id="edge55_Node000001_Node000027" class="edge">
<title>Node1&#45;&gt;Node27</title>
<g id="a_edge55_Node000001_Node000027"><a xlink:title=" ">
<path fill="none" stroke="#63b8ff" d="M1228.01,-398.39C1359.96,-396.32 1628.79,-387.37 1713.5,-349 1737.55,-338.1 1736.4,-325.13 1756.5,-308 1771.16,-295.5 1788.27,-282.42 1802.24,-272.1"/>
<polygon fill="#63b8ff" stroke="#63b8ff" points="1227.93,-394.89 1217.98,-398.54 1228.03,-401.89 1227.93,-394.89"/>
</a>
</g>
</g>
<!-- Node28 -->
<g id="Node000028" class="node">
<title>Node28</title>
<g id="a_Node000028"><a xlink:href="_to_bytes_8hpp.html" target="_top" xlink:title=" ">
<polygon fill="white" stroke="#666666" points="2051,-343.5 1932,-343.5 1932,-313.5 2051,-313.5 2051,-343.5"/>
<text text-anchor="start" x="1940" y="-331.5" font-family="Helvetica,sans-Serif" font-size="10.00">include/Hermes/Utils</text>
<text text-anchor="middle" x="1991.5" y="-320.5" font-family="Helvetica,sans-Serif" font-size="10.00">/ToBytes.hpp</text>
</a>
</g>
</g>
<!-- Node1&#45;&gt;Node28 -->
<g id="edge56_Node000001_Node000028" class="edge">
<title>Node1&#45;&gt;Node28</title>
<g id="a_edge56_Node000001_Node000028"><a xlink:title=" ">
<path fill="none" stroke="#63b8ff" d="M1227.62,-399.34C1365.47,-398.83 1670.21,-392.35 1922.5,-349 1930.47,-347.63 1938.85,-345.7 1946.9,-343.58"/>
<polygon fill="#63b8ff" stroke="#63b8ff" points="1227.57,-395.84 1217.58,-399.37 1227.59,-402.84 1227.57,-395.84"/>
</a>
</g>
</g>
<!-- Node3&#45;&gt;Node2 -->
<g id="edge3_Node000003_Node000002" class="edge">
<title>Node3&#45;&gt;Node2</title>
<g id="a_edge3_Node000003_Node000002"><a xlink:title=" ">
<path fill="none" stroke="#63b8ff" d="M154.11,-76.03C138.18,-63.18 118.05,-46.94 103.91,-35.54"/>
<polygon fill="#63b8ff" stroke="#63b8ff" points="152.03,-78.84 162.01,-82.39 156.42,-73.39 152.03,-78.84"/>
</a>
</g>
</g>
<!-- Node4&#45;&gt;Node3 -->
<g id="edge5_Node000004_Node000003" class="edge">
<title>Node4&#45;&gt;Node3</title>
<g id="a_edge5_Node000004_Node000003"><a xlink:title=" ">
<path fill="none" stroke="#63b8ff" d="M330.15,-150.57C294.29,-138.17 251.15,-123.26 220.25,-112.58"/>
<polygon fill="#63b8ff" stroke="#63b8ff" points="329.46,-154.03 340.05,-153.99 331.74,-147.42 329.46,-154.03"/>
</a>
</g>
</g>
<!-- Node4&#45;&gt;Node5 -->
<g id="edge6_Node000004_Node000005" class="edge">
<title>Node4&#45;&gt;Node5</title>
<g id="a_edge6_Node000004_Node000005"><a xlink:title=" ">
<path fill="none" stroke="#63b8ff" d="M484.38,-153.58C544.58,-140.03 603.11,-126.93 648.95,-116.69"/>
<polygon fill="#63b8ff" stroke="#63b8ff" points="483.3,-150.23 474.31,-155.85 484.84,-157.06 483.3,-150.23"/>
</a>
</g>
</g>
<!-- Node7 -->
<g id="Node000007" class="node">
<title>Node7</title>
<g id="a_Node000007"><a xlink:href="_async_client_socket_8hpp.html" target="_top" xlink:title=" ">
<polygon fill="white" stroke="#666666" points="744,-35.5 581,-35.5 581,-5.5 744,-5.5 744,-35.5"/>
<text text-anchor="start" x="589" y="-23.5" font-family="Helvetica,sans-Serif" font-size="10.00">include/Hermes/Socket</text>
<text text-anchor="middle" x="662.5" y="-12.5" font-family="Helvetica,sans-Serif" font-size="10.00">/Async/AsyncClientSocket.hpp</text>
</a>
</g>
</g>
<!-- Node6&#45;&gt;Node7 -->
<g id="edge9_Node000006_Node000007" class="edge">
<title>Node6&#45;&gt;Node7</title>
<g id="a_edge9_Node000006_Node000007"><a xlink:title=" ">
<path fill="none" stroke="#63b8ff" d="M999.02,-76.94C905.66,-59.9 810.03,-44.42 744.02,-34.06"/>
<polygon fill="#63b8ff" stroke="#63b8ff" points="998.45,-80.4 1008.92,-78.76 999.72,-73.51 998.45,-80.4"/>
</a>
</g>
</g>
<!-- Node6&#45;&gt;Node8 -->
<g id="edge10_Node000006_Node000008" class="edge">
<title>Node6&#45;&gt;Node8</title>
<g id="a_edge10_Node000006_Node000008"><a xlink:title=" ">
<path fill="none" stroke="#63b8ff" d="M1140.07,-71.92C1158.16,-61.95 1178.76,-50.58 1195.83,-41.17"/>
<polygon fill="#63b8ff" stroke="#63b8ff" points="1137.94,-69.1 1130.88,-76.99 1141.32,-75.23 1137.94,-69.1"/>
</a>
</g>
</g>
<!-- Node9&#45;&gt;Node3 -->
<g id="edge14_Node000009_Node000003" class="edge">
<title>Node9&#45;&gt;Node3</title>
<g id="a_edge14_Node000009_Node000003"><a xlink:title=" ">
<path fill="none" stroke="#63b8ff" d="M238.76,-221.9C223.11,-189.31 198.17,-137.37 186.26,-112.57"/>
<polygon fill="#63b8ff" stroke="#63b8ff" points="235.62,-223.44 243.11,-230.94 241.93,-220.41 235.62,-223.44"/>
</a>
</g>
</g>
<!-- Node9&#45;&gt;Node7 -->
<g id="edge13_Node000009_Node000007" class="edge">
<title>Node9&#45;&gt;Node7</title>
<g id="a_edge13_Node000009_Node000007"><a xlink:title=" ">
<path fill="none" stroke="#63b8ff" d="M264.02,-221.31C273.55,-200.3 288.87,-172.51 309.5,-154 386.48,-84.93 502.9,-50.65 580.76,-34.52"/>
<polygon fill="#63b8ff" stroke="#63b8ff" points="260.71,-220.15 259.93,-230.72 267.13,-222.94 260.71,-220.15"/>
</a>
</g>
</g>
<!-- Node11&#45;&gt;Node4 -->
<g id="edge17_Node000011_Node000004" class="edge">
<title>Node11&#45;&gt;Node4</title>
<g id="a_edge17_Node000011_Node000004"><a xlink:title=" ">
<path fill="none" stroke="#63b8ff" d="M615.86,-319.89C544.47,-312.04 452.11,-297.29 424.5,-272 403.02,-252.32 397.65,-217.25 396.51,-195.24"/>
<polygon fill="#63b8ff" stroke="#63b8ff" points="615.91,-323.41 626.22,-320.99 616.65,-316.45 615.91,-323.41"/>
</a>
</g>
</g>
<!-- Node11&#45;&gt;Node6 -->
<g id="edge18_Node000011_Node000006" class="edge">
<title>Node11&#45;&gt;Node6</title>
<g id="a_edge18_Node000011_Node000006"><a xlink:title=" ">
<path fill="none" stroke="#63b8ff" d="M737.02,-307.78C752.21,-297.76 770.37,-284.96 785.5,-272 804.6,-255.64 802.54,-243.25 824.5,-231 892.32,-193.16 926.88,-231.38 995.5,-195 1031.31,-176.01 1063.19,-140.39 1080.87,-118.14"/>
<polygon fill="#63b8ff" stroke="#63b8ff" points="734.94,-304.96 728.47,-313.35 738.76,-310.83 734.94,-304.96"/>
</a>
</g>
</g>
<!-- Node11&#45;&gt;Node9 -->
<g id="edge19_Node000011_Node000009" class="edge">
<title>Node11&#45;&gt;Node9</title>
<g id="a_edge19_Node000011_Node000009"><a xlink:title=" ">
<path fill="none" stroke="#63b8ff" d="M616.24,-312.72C535.97,-299.43 418.78,-280.03 339.28,-266.87"/>
<polygon fill="#63b8ff" stroke="#63b8ff" points="615.9,-316.21 626.33,-314.39 617.04,-309.31 615.9,-316.21"/>
</a>
</g>
</g>
<!-- Node11&#45;&gt;Node12 -->
<g id="edge20_Node000011_Node000012" class="edge">
<title>Node11&#45;&gt;Node12</title>
<g id="a_edge20_Node000011_Node000012"><a xlink:title=" ">
<path fill="none" stroke="#63b8ff" d="M662.16,-309.54C634.89,-298.24 599.69,-283.66 571.71,-272.06"/>
<polygon fill="#63b8ff" stroke="#63b8ff" points="660.88,-312.8 671.46,-313.39 663.56,-306.33 660.88,-312.8"/>
</a>
</g>
</g>
<!-- Node11&#45;&gt;Node17 -->
<g id="edge27_Node000011_Node000017" class="edge">
<title>Node11&#45;&gt;Node17</title>
<g id="a_edge27_Node000011_Node000017"><a xlink:title=" ">
<path fill="none" stroke="#63b8ff" d="M752.6,-309.84C782.84,-298.5 822.15,-283.76 853.33,-272.06"/>
<polygon fill="#63b8ff" stroke="#63b8ff" points="751.25,-306.6 743.12,-313.39 753.71,-313.16 751.25,-306.6"/>
</a>
</g>
</g>
<!-- Node11&#45;&gt;Node21 -->
<g id="edge33_Node000011_Node000021" class="edge">
<title>Node11&#45;&gt;Node21</title>
<g id="a_edge33_Node000011_Node000021"><a xlink:title=" ">
<path fill="none" stroke="#63b8ff" d="M705.5,-303.23C705.5,-293.2 705.5,-281.71 705.5,-272.2"/>
<polygon fill="#63b8ff" stroke="#63b8ff" points="702,-303.39 705.5,-313.39 709,-303.39 702,-303.39"/>
</a>
</g>
</g>
<!-- Node12&#45;&gt;Node4 -->
<g id="edge21_Node000012_Node000004" class="edge">
<title>Node12&#45;&gt;Node4</title>
<g id="a_edge21_Node000012_Node000004"><a xlink:title=" ">
<path fill="none" stroke="#63b8ff" d="M482.55,-225.92C465.53,-215.95 446.13,-204.58 430.07,-195.17"/>
<polygon fill="#63b8ff" stroke="#63b8ff" points="480.81,-228.95 491.2,-230.99 484.35,-222.92 480.81,-228.95"/>
</a>
</g>
</g>
<!-- Node13 -->
<g id="Node000013" class="node">
<title>Node13</title>
<g id="a_Node000013"><a xlink:href="_server_socket_8hpp.html" target="_top" xlink:title=" ">
<polygon fill="white" stroke="#666666" points="623,-189.5 492,-189.5 492,-159.5 623,-159.5 623,-189.5"/>
<text text-anchor="start" x="500" y="-177.5" font-family="Helvetica,sans-Serif" font-size="10.00">include/Hermes/Socket</text>
<text text-anchor="middle" x="557.5" y="-166.5" font-family="Helvetica,sans-Serif" font-size="10.00">/Sync/ServerSocket.hpp</text>
</a>
</g>
</g>
<!-- Node12&#45;&gt;Node13 -->
<g id="edge22_Node000012_Node000013" class="edge">
<title>Node12&#45;&gt;Node13</title>
<g id="a_edge22_Node000012_Node000013"><a xlink:title=" ">
<path fill="none" stroke="#63b8ff" d="M537.21,-221.6C542,-210.73 547.23,-198.84 551.18,-189.86"/>
<polygon fill="#63b8ff" stroke="#63b8ff" points="533.99,-220.23 533.17,-230.79 540.4,-223.05 533.99,-220.23"/>
</a>
</g>
</g>
<!-- Node12&#45;&gt;Node15 -->
<g id="edge24_Node000012_Node000015" class="edge">
<title>Node12&#45;&gt;Node15</title>
<g id="a_edge24_Node000012_Node000015"><a xlink:title=" ">
<path fill="none" stroke="#63b8ff" d="M625.42,-230.69C688.07,-218.39 767.49,-202.79 825.92,-191.32"/>
<polygon fill="#63b8ff" stroke="#63b8ff" points="624.65,-227.27 615.51,-232.63 626,-234.14 624.65,-227.27"/>
</a>
</g>
</g>
<!-- Node14 -->
<g id="Node000014" class="node">
<title>Node14</title>
<g id="a_Node000014"><a xlink:href="_listener_socket_8hpp.html" target="_top" xlink:title=" ">
<polygon fill="white" stroke="#666666" points="626.5,-112.5 488.5,-112.5 488.5,-82.5 626.5,-82.5 626.5,-112.5"/>
<text text-anchor="start" x="496.5" y="-100.5" font-family="Helvetica,sans-Serif" font-size="10.00">include/Hermes/Socket</text>
<text text-anchor="middle" x="557.5" y="-89.5" font-family="Helvetica,sans-Serif" font-size="10.00">/Sync/ListenerSocket.hpp</text>
</a>
</g>
</g>
<!-- Node13&#45;&gt;Node14 -->
<g id="edge23_Node000013_Node000014" class="edge">
<title>Node13&#45;&gt;Node14</title>
<g id="a_edge23_Node000013_Node000014"><a xlink:title=" ">
<path fill="none" stroke="#63b8ff" d="M557.5,-149.04C557.5,-136.95 557.5,-122.79 557.5,-112.54"/>
<polygon fill="#63b8ff" stroke="#63b8ff" points="554,-149.39 557.5,-159.39 561,-149.39 554,-149.39"/>
</a>
</g>
</g>
<!-- Node15&#45;&gt;Node5 -->
<g id="edge25_Node000015_Node000005" class="edge">
<title>Node15&#45;&gt;Node5</title>
<g id="a_edge25_Node000015_Node000005"><a xlink:title=" ">
<path fill="none" stroke="#63b8ff" d="M851.34,-150C827.24,-139.72 799.3,-127.82 776.36,-118.04"/>
<polygon fill="#63b8ff" stroke="#63b8ff" points="850.15,-153.29 860.72,-153.99 852.89,-146.85 850.15,-153.29"/>
</a>
</g>
</g>
<!-- Node16 -->
<g id="Node000016" class="node">
<title>Node16</title>
<g id="a_Node000016"><a xlink:href="_tls_accept_state_machine_8hpp.html" target="_top" xlink:title=" ">
<polygon fill="white" stroke="#666666" points="990.5,-118 830.5,-118 830.5,-77 990.5,-77 990.5,-118"/>
<text text-anchor="start" x="838.5" y="-106" font-family="Helvetica,sans-Serif" font-size="10.00">include/Hermes/Socket</text>
<text text-anchor="start" x="838.5" y="-95" font-family="Helvetica,sans-Serif" font-size="10.00">/_base/Accept/TlsAcceptState</text>
<text text-anchor="middle" x="910.5" y="-84" font-family="Helvetica,sans-Serif" font-size="10.00">Machine.hpp</text>
</a>
</g>
</g>
<!-- Node15&#45;&gt;Node16 -->
<g id="edge26_Node000015_Node000016" class="edge">
<title>Node15&#45;&gt;Node16</title>
<g id="a_edge26_Node000015_Node000016"><a xlink:title=" ">
<path fill="none" stroke="#63b8ff" d="M908.09,-143.69C908.55,-135.08 909.04,-125.9 909.46,-118.07"/>
<polygon fill="#63b8ff" stroke="#63b8ff" points="904.59,-143.62 907.55,-153.79 911.58,-144 904.59,-143.62"/>
</a>
</g>
</g>
<!-- Node18 -->
<g id="Node000018" class="node">
<title>Node18</title>
<g id="a_Node000018"><a xlink:href="_client_socket_8hpp.html" target="_top" xlink:title=" ">
<polygon fill="white" stroke="#666666" points="769.5,-189.5 641.5,-189.5 641.5,-159.5 769.5,-159.5 769.5,-189.5"/>
<text text-anchor="start" x="649.5" y="-177.5" font-family="Helvetica,sans-Serif" font-size="10.00">include/Hermes/Socket</text>
<text text-anchor="middle" x="705.5" y="-166.5" font-family="Helvetica,sans-Serif" font-size="10.00">/Sync/ClientSocket.hpp</text>
</a>
</g>
</g>
<!-- Node17&#45;&gt;Node18 -->
<g id="edge28_Node000017_Node000018" class="edge">
<title>Node17&#45;&gt;Node18</title>
<g id="a_edge28_Node000017_Node000018"><a xlink:title=" ">
<path fill="none" stroke="#63b8ff" d="M843.92,-227.41C810.95,-215.05 771.42,-200.22 743.05,-189.58"/>
<polygon fill="#63b8ff" stroke="#63b8ff" points="842.88,-230.76 853.47,-230.99 845.34,-224.2 842.88,-230.76"/>
</a>
</g>
</g>
<!-- Node17&#45;&gt;Node19 -->
<g id="edge29_Node000017_Node000019" class="edge">
<title>Node17&#45;&gt;Node19</title>
<g id="a_edge29_Node000017_Node000019"><a xlink:title=" ">
<path fill="none" stroke="#63b8ff" d="M987.46,-233.23C1050.52,-219.95 1136.53,-201.83 1195.27,-189.45"/>
<polygon fill="#63b8ff" stroke="#63b8ff" points="986.61,-229.84 977.54,-235.32 988.05,-236.69 986.61,-229.84"/>
</a>
</g>
</g>
<!-- Node19&#45;&gt;Node6 -->
<g id="edge30_Node000019_Node000006" class="edge">
<title>Node19&#45;&gt;Node6</title>
<g id="a_edge30_Node000019_Node000006"><a xlink:title=" ">
<path fill="none" stroke="#63b8ff" d="M1209.17,-149.86C1186.51,-139.62 1160.29,-127.77 1138.75,-118.04"/>
<polygon fill="#63b8ff" stroke="#63b8ff" points="1207.76,-153.06 1218.32,-153.99 1210.65,-146.68 1207.76,-153.06"/>
</a>
</g>
</g>
<!-- Node19&#45;&gt;Node8 -->
<g id="edge31_Node000019_Node000008" class="edge">
<title>Node19&#45;&gt;Node8</title>
<g id="a_edge31_Node000019_Node000008"><a xlink:title=" ">
<path fill="none" stroke="#63b8ff" d="M1255.67,-143.98C1249.71,-113.76 1240.61,-67.64 1235.44,-41.47"/>
<polygon fill="#63b8ff" stroke="#63b8ff" points="1252.27,-144.81 1257.64,-153.94 1259.14,-143.45 1252.27,-144.81"/>
</a>
</g>
</g>
<!-- Node20 -->
<g id="Node000020" class="node">
<title>Node20</title>
<g id="a_Node000020"><a xlink:href="_tls_connect_state_machine_8hpp.html" target="_top" xlink:title=" ">
<polygon fill="white" stroke="#666666" points="1563,-118 1400,-118 1400,-77 1563,-77 1563,-118"/>
<text text-anchor="start" x="1408" y="-106" font-family="Helvetica,sans-Serif" font-size="10.00">include/Hermes/Socket</text>
<text text-anchor="start" x="1408" y="-95" font-family="Helvetica,sans-Serif" font-size="10.00">/_base/Connection/TlsConnect</text>
<text text-anchor="middle" x="1481.5" y="-84" font-family="Helvetica,sans-Serif" font-size="10.00">StateMachine.hpp</text>
</a>
</g>
</g>
<!-- Node19&#45;&gt;Node20 -->
<g id="edge32_Node000019_Node000020" class="edge">
<title>Node19&#45;&gt;Node20</title>
<g id="a_edge32_Node000019_Node000020"><a xlink:title=" ">
<path fill="none" stroke="#63b8ff" d="M1328.45,-150.67C1359.03,-140.25 1394.87,-128.03 1424.18,-118.04"/>
<polygon fill="#63b8ff" stroke="#63b8ff" points="1327.06,-147.45 1318.73,-153.99 1329.32,-154.08 1327.06,-147.45"/>
</a>
</g>
</g>
<!-- Node21&#45;&gt;Node13 -->
<g id="edge35_Node000021_Node000013" class="edge">
<title>Node21&#45;&gt;Node13</title>
<g id="a_edge35_Node000021_Node000013"><a xlink:title=" ">
<path fill="none" stroke="#63b8ff" d="M658.07,-226.46C634.15,-214.34 605.96,-200.06 585.52,-189.7"/>
<polygon fill="#63b8ff" stroke="#63b8ff" points="656.5,-229.59 667,-230.99 659.66,-223.35 656.5,-229.59"/>
</a>
</g>
</g>
<!-- Node21&#45;&gt;Node18 -->
<g id="edge34_Node000021_Node000018" class="edge">
<title>Node21&#45;&gt;Node18</title>
<g id="a_edge34_Node000021_Node000018"><a xlink:title=" ">
<path fill="none" stroke="#63b8ff" d="M705.5,-220.61C705.5,-210.01 705.5,-198.57 705.5,-189.86"/>
<polygon fill="#63b8ff" stroke="#63b8ff" points="702,-220.79 705.5,-230.79 709,-220.79 702,-220.79"/>
</a>
</g>
</g>
<!-- Node22&#45;&gt;Node5 -->
<g id="edge37_Node000022_Node000005" class="edge">
<title>Node22&#45;&gt;Node5</title>
<g id="a_edge37_Node000022_Node000005"><a xlink:title=" ">
<path fill="none" stroke="#63b8ff" d="M1202.34,-232.39C1154.06,-211.18 1070.19,-176.15 995.5,-154 919.79,-131.55 898.78,-134.27 821.5,-118 818.5,-117.37 815.44,-116.72 812.35,-116.07"/>
<polygon fill="#63b8ff" stroke="#63b8ff" points="1200.95,-235.6 1211.51,-236.43 1203.78,-229.19 1200.95,-235.6"/>
</a>
</g>
</g>
<!-- Node22&#45;&gt;Node8 -->
<g id="edge38_Node000022_Node000008" class="edge">
<title>Node22&#45;&gt;Node8</title>
<g id="a_edge38_Node000022_Node000008"><a xlink:title=" ">
<path fill="none" stroke="#63b8ff" d="M1213.57,-229.87C1202.96,-220.56 1192.17,-208.59 1186.5,-195 1179.49,-178.18 1183.53,-171.98 1186.5,-154 1193.35,-112.53 1211.49,-66.6 1222.54,-41.18"/>
<polygon fill="#63b8ff" stroke="#63b8ff" points="1211.62,-232.8 1221.56,-236.46 1216.07,-227.4 1211.62,-232.8"/>
</a>
</g>
</g>
<!-- Node22&#45;&gt;Node10 -->
<g id="edge39_Node000022_Node000010" class="edge">
<title>Node22&#45;&gt;Node10</title>
<g id="a_edge39_Node000022_Node000010"><a xlink:title=" ">
<path fill="none" stroke="#63b8ff" d="M1285.71,-232.4C1312.63,-221.12 1347.26,-206.61 1374.81,-195.06"/>
<polygon fill="#63b8ff" stroke="#63b8ff" points="1284.04,-229.3 1276.17,-236.39 1286.74,-235.76 1284.04,-229.3"/>
</a>
</g>
</g>
<!-- Node22&#45;&gt;Node15 -->
<g id="edge40_Node000022_Node000015" class="edge">
<title>Node22&#45;&gt;Node15</title>
<g id="a_edge40_Node000022_Node000015"><a xlink:title=" ">
<path fill="none" stroke="#63b8ff" d="M1169.88,-234.29C1116.08,-222.28 1042.76,-205.91 987.13,-193.5"/>
<polygon fill="#63b8ff" stroke="#63b8ff" points="1169.17,-237.72 1179.7,-236.48 1170.7,-230.89 1169.17,-237.72"/>
</a>
</g>
</g>
<!-- Node22&#45;&gt;Node19 -->
<g id="edge41_Node000022_Node000019" class="edge">
<title>Node22&#45;&gt;Node19</title>
<g id="a_edge41_Node000022_Node000019"><a xlink:title=" ">
<path fill="none" stroke="#63b8ff" d="M1248.57,-226.55C1251.13,-216.44 1254.08,-204.81 1256.51,-195.2"/>
<polygon fill="#63b8ff" stroke="#63b8ff" points="1245.14,-225.84 1246.07,-236.39 1251.92,-227.56 1245.14,-225.84"/>
</a>
</g>
</g>
<!-- Node22&#45;&gt;Node23 -->
<g id="edge42_Node000022_Node000023" class="edge">
<title>Node22&#45;&gt;Node23</title>
<g id="a_edge42_Node000022_Node000023"><a xlink:title=" ">
<path fill="none" stroke="#63b8ff" d="M1321,-235C1373.4,-224.39 1443.75,-209.64 1505.5,-195 1508.73,-194.23 1512.04,-193.43 1515.37,-192.61"/>
<polygon fill="#63b8ff" stroke="#63b8ff" points="1320.21,-231.59 1311.1,-237 1321.59,-238.45 1320.21,-231.59"/>
</a>
</g>
</g>
<!-- Node24&#45;&gt;Node16 -->
<g id="edge50_Node000024_Node000016" class="edge">
<title>Node24&#45;&gt;Node16</title>
<g id="a_edge50_Node000024_Node000016"><a xlink:title=" ">
<path fill="none" stroke="#63b8ff" d="M1131.89,-299.67C1103.1,-263.63 1049.49,-199.97 995.5,-154 979.93,-140.75 961.02,-128.11 944.99,-118.25"/>
<polygon fill="#63b8ff" stroke="#63b8ff" points="1129.37,-302.13 1138.32,-307.79 1134.85,-297.78 1129.37,-302.13"/>
</a>
</g>
</g>
<!-- Node25&#45;&gt;Node20 -->
<g id="edge52_Node000025_Node000020" class="edge">
<title>Node25&#45;&gt;Node20</title>
<g id="a_edge52_Node000025_Node000020"><a xlink:title=" ">
<path fill="none" stroke="#63b8ff" d="M1601.4,-300.8C1636.42,-265.17 1686.73,-201.09 1652.5,-154 1631.95,-125.72 1596.65,-111.56 1563.44,-104.58"/>
<polygon fill="#63b8ff" stroke="#63b8ff" points="1598.82,-298.43 1594.2,-307.96 1603.76,-303.39 1598.82,-298.43"/>
</a>
</g>
</g>
<!-- Node26&#45;&gt;Node27 -->
<g id="edge54_Node000026_Node000027" class="edge">
<title>Node26&#45;&gt;Node27</title>
<g id="a_edge54_Node000026_Node000027"><a xlink:title=" ">
<path fill="none" stroke="#63b8ff" d="M1835.53,-297.69C1834.38,-289.08 1833.15,-279.9 1832.11,-272.07"/>
<polygon fill="#63b8ff" stroke="#63b8ff" points="1832.08,-298.34 1836.87,-307.79 1839.02,-297.42 1832.08,-298.34"/>
</a>
</g>
</g>
</g>
</svg>
