<?xml version="1.0" encoding="UTF-8" standalone="no"?>
<!DOCTYPE svg PUBLIC "-//W3C//DTD SVG 1.1//EN"
 "http://www.w3.org/Graphics/SVG/1.1/DTD/svg11.dtd">
<!-- Generated by graphviz version 2.43.0 (0)
 -->
<!-- Title: include/Hermes/_base/ConnectionErrorEnum.hpp Pages: 1 -->
<svg width="966pt" height="533pt"
 viewBox="0.00 0.00 966.00 533.00" xmlns="http://www.w3.org/2000/svg" xmlns:xlink="http://www.w3.org/1999/xlink">
<g id="graph0" class="graph" transform="scale(1 1) rotate(0) translate(4 529)">
<title>include/Hermes/_base/ConnectionErrorEnum.hpp</title>
<!-- Node1 -->
<g id="Node000001" class="node">
<title>Node1</title>
<g id="a_Node000001"><a xlink:title=" ">
<polygon fill="#999999" stroke="#666666" points="568,-525 422,-525 422,-495 568,-495 568,-525"/>
<text text-anchor="start" x="430" y="-513" font-family="Helvetica,sans-Serif" font-size="10.00">include/Hermes/_base</text>
<text text-anchor="middle" x="495" y="-502" font-family="Helvetica,sans-Serif" font-size="10.00">/ConnectionErrorEnum.hpp</text>
</a>
</g>
</g>
<!-- Node2 -->
<g id="Node000002" class="node">
<title>Node2</title>
<g id="a_Node000002"><a xlink:href="_endpoint_concept_8hpp.html" target="_top" xlink:title=" ">
<polygon fill="white" stroke="#666666" points="625.5,-459 470.5,-459 470.5,-429 625.5,-429 625.5,-459"/>
<text text-anchor="start" x="478.5" y="-447" font-family="Helvetica,sans-Serif" font-size="10.00">include/Hermes/Endpoint</text>
<text text-anchor="middle" x="548" y="-436" font-family="Helvetica,sans-Serif" font-size="10.00">/_base/EndpointConcept.hpp</text>
</a>
</g>
</g>
<!-- Node1&#45;&gt;Node2 -->
<g id="edge1_Node000001_Node000002" class="edge">
<title>Node1&#45;&gt;Node2</title>
<g id="a_edge1_Node000001_Node000002"><a xlink:title=" ">
<path fill="none" stroke="#63b8ff" d="M513.15,-487.09C520.8,-477.85 529.48,-467.36 536.27,-459.16"/>
<polygon fill="#63b8ff" stroke="#63b8ff" points="510.44,-484.86 506.76,-494.8 515.84,-489.33 510.44,-484.86"/>
</a>
</g>
</g>
<!-- Node5 -->
<g id="Node000005" class="node">
<title>Node5</title>
<g id="a_Node000005"><a xlink:href="_default_accept_policy_8hpp.html" target="_top" xlink:title=" ">
<polygon fill="white" stroke="#666666" points="276,-250 94,-250 94,-209 276,-209 276,-250"/>
<text text-anchor="start" x="102" y="-238" font-family="Helvetica,sans-Serif" font-size="10.00">include/Hermes/Socket</text>
<text text-anchor="start" x="102" y="-227" font-family="Helvetica,sans-Serif" font-size="10.00">/Sync/_base/Accept/DefaultAccept</text>
<text text-anchor="middle" x="185" y="-216" font-family="Helvetica,sans-Serif" font-size="10.00">Policy.hpp</text>
</a>
</g>
</g>
<!-- Node1&#45;&gt;Node5 -->
<g id="edge32_Node000001_Node000005" class="edge">
<title>Node1&#45;&gt;Node5</title>
<g id="a_edge32_Node000001_Node000005"><a xlink:title=" ">
<path fill="none" stroke="#63b8ff" d="M411.71,-499.91C368.86,-492.86 316.79,-480.5 274,-459 233.72,-438.77 225.97,-427.53 197,-393 164.47,-354.22 146.64,-335.32 158,-286 160.89,-273.47 167,-260.49 172.68,-250.24"/>
<polygon fill="#63b8ff" stroke="#63b8ff" points="411.41,-503.4 421.83,-501.5 412.5,-496.49 411.41,-503.4"/>
</a>
</g>
</g>
<!-- Node8 -->
<g id="Node000008" class="node">
<title>Node8</title>
<g id="a_Node000008"><a xlink:href="_tls_accept_policy_8hpp.html" target="_top" xlink:title=" ">
<polygon fill="white" stroke="#666666" points="265.5,-173 104.5,-173 104.5,-132 265.5,-132 265.5,-173"/>
<text text-anchor="start" x="112.5" y="-161" font-family="Helvetica,sans-Serif" font-size="10.00">include/Hermes/Socket</text>
<text text-anchor="start" x="112.5" y="-150" font-family="Helvetica,sans-Serif" font-size="10.00">/Sync/_base/Accept/TlsAccept</text>
<text text-anchor="middle" x="185" y="-139" font-family="Helvetica,sans-Serif" font-size="10.00">Policy.hpp</text>
</a>
</g>
</g>
<!-- Node1&#45;&gt;Node8 -->
<g id="edge33_Node000001_Node000008" class="edge">
<title>Node1&#45;&gt;Node8</title>
<g id="a_edge33_Node000001_Node000008"><a xlink:title=" ">
<path fill="none" stroke="#63b8ff" d="M411.62,-504.24C270.56,-493.89 0,-463.08 0,-379 0,-379 0,-379 0,-305.5 0,-238.47 73.4,-195.58 127.73,-173.01"/>
<polygon fill="#63b8ff" stroke="#63b8ff" points="411.74,-507.76 421.96,-504.98 412.24,-500.78 411.74,-507.76"/>
</a>
</g>
</g>
<!-- Node9 -->
<g id="Node000009" class="node">
<title>Node9</title>
<g id="a_Node000009"><a xlink:href="_default_connect_policy_8hpp.html" target="_top" xlink:title=" ">
<polygon fill="white" stroke="#666666" points="638,-250 494,-250 494,-209 638,-209 638,-250"/>
<text text-anchor="start" x="502" y="-238" font-family="Helvetica,sans-Serif" font-size="10.00">include/Hermes/Socket</text>
<text text-anchor="start" x="502" y="-227" font-family="Helvetica,sans-Serif" font-size="10.00">/Sync/_base/Connection</text>
<text text-anchor="middle" x="566" y="-216" font-family="Helvetica,sans-Serif" font-size="10.00">/DefaultConnectPolicy.hpp</text>
</a>
</g>
</g>
<!-- Node1&#45;&gt;Node9 -->
<g id="edge34_Node000001_Node000009" class="edge">
<title>Node1&#45;&gt;Node9</title>
<g id="a_edge34_Node000001_Node000009"><a xlink:title=" ">
<path fill="none" stroke="#63b8ff" d="M572.98,-492.21C653.85,-470.03 775.28,-422.08 825,-327 833.44,-310.85 836.46,-300.17 825,-286 813.16,-271.36 710.5,-252.74 638.05,-241.22"/>
<polygon fill="#63b8ff" stroke="#63b8ff" points="571.6,-488.96 562.84,-494.92 573.4,-495.72 571.6,-488.96"/>
</a>
</g>
</g>
<!-- Node11 -->
<g id="Node000011" class="node">
<title>Node11</title>
<g id="a_Node000011"><a xlink:href="_tls_connect_policy_8hpp.html" target="_top" xlink:title=" ">
<polygon fill="white" stroke="#666666" points="731,-173 599,-173 599,-132 731,-132 731,-173"/>
<text text-anchor="start" x="607" y="-161" font-family="Helvetica,sans-Serif" font-size="10.00">include/Hermes/Socket</text>
<text text-anchor="start" x="607" y="-150" font-family="Helvetica,sans-Serif" font-size="10.00">/Sync/_base/Connection</text>
<text text-anchor="middle" x="665" y="-139" font-family="Helvetica,sans-Serif" font-size="10.00">/TlsConnectPolicy.hpp</text>
</a>
</g>
</g>
<!-- Node1&#45;&gt;Node11 -->
<g id="edge35_Node000001_Node000011" class="edge">
<title>Node1&#45;&gt;Node11</title>
<g id="a_edge35_Node000001_Node000011"><a xlink:title=" ">
<path fill="none" stroke="#63b8ff" d="M578.29,-502.72C711.59,-490.36 958,-456.96 958,-379 958,-379 958,-379 958,-305.5 958,-203.93 817.54,-170.14 731.12,-158.97"/>
<polygon fill="#63b8ff" stroke="#63b8ff" points="577.75,-499.26 568.11,-503.65 578.38,-506.23 577.75,-499.26"/>
</a>
</g>
</g>
<!-- Node12 -->
<g id="Node000012" class="node">
<title>Node12</title>
<g id="a_Node000012"><a xlink:href="_default_transfer_policy_8hpp.html" target="_top" xlink:title=" ">
<polygon fill="white" stroke="#666666" points="437.5,-250 294.5,-250 294.5,-209 437.5,-209 437.5,-250"/>
<text text-anchor="start" x="302.5" y="-238" font-family="Helvetica,sans-Serif" font-size="10.00">include/Hermes/Socket</text>
<text text-anchor="start" x="302.5" y="-227" font-family="Helvetica,sans-Serif" font-size="10.00">/Sync/_base/Transfer</text>
<text text-anchor="middle" x="366" y="-216" font-family="Helvetica,sans-Serif" font-size="10.00">/DefaultTransferPolicy.hpp</text>
</a>
</g>
</g>
<!-- Node1&#45;&gt;Node12 -->
<g id="edge36_Node000001_Node000012" class="edge">
<title>Node1&#45;&gt;Node12</title>
<g id="a_edge36_Node000001_Node000012"><a xlink:title=" ">
<path fill="none" stroke="#63b8ff" d="M425.5,-492.19C348.01,-469.32 226.42,-420.13 172,-327 162.81,-311.27 161.03,-300.55 172,-286 175.92,-280.8 240.79,-262.9 294.45,-248.82"/>
<polygon fill="#63b8ff" stroke="#63b8ff" points="424.62,-495.58 435.19,-494.99 426.55,-488.85 424.62,-495.58"/>
</a>
</g>
</g>
<!-- Node14 -->
<g id="Node000014" class="node">
<title>Node14</title>
<g id="a_Node000014"><a xlink:href="_tls_transfer_policy_8hpp.html" target="_top" xlink:title=" ">
<polygon fill="white" stroke="#666666" points="861,-250 733,-250 733,-209 861,-209 861,-250"/>
<text text-anchor="start" x="741" y="-238" font-family="Helvetica,sans-Serif" font-size="10.00">include/Hermes/Socket</text>
<text text-anchor="start" x="741" y="-227" font-family="Helvetica,sans-Serif" font-size="10.00">/Sync/_base/Transfer</text>
<text text-anchor="middle" x="797" y="-216" font-family="Helvetica,sans-Serif" font-size="10.00">/TlsTransferPolicy.hpp</text>
</a>
</g>
</g>
<!-- Node1&#45;&gt;Node14 -->
<g id="edge37_Node000001_Node000014" class="edge">
<title>Node1&#45;&gt;Node14</title>
<g id="a_edge37_Node000001_Node000014"><a xlink:title=" ">
<path fill="none" stroke="#63b8ff" d="M578.34,-497.15C618.7,-489.5 667.15,-477.44 708,-459 754.2,-438.15 766.08,-429.73 801,-393 836.2,-355.98 860.33,-334.06 843,-286 838.12,-272.46 828.34,-259.89 819.05,-250.14"/>
<polygon fill="#63b8ff" stroke="#63b8ff" points="577.47,-493.75 568.26,-499 578.73,-500.63 577.47,-493.75"/>
</a>
</g>
</g>
<!-- Node15 -->
<g id="Node000015" class="node">
<title>Node15</title>
<g id="a_Node000015"><a xlink:href="__base_8hpp.html" target="_top" xlink:title=" ">
<polygon fill="white" stroke="#666666" points="506,-393 378,-393 378,-363 506,-363 506,-393"/>
<text text-anchor="start" x="386" y="-381" font-family="Helvetica,sans-Serif" font-size="10.00">include/Hermes/Socket</text>
<text text-anchor="middle" x="442" y="-370" font-family="Helvetica,sans-Serif" font-size="10.00">/_base.hpp</text>
</a>
</g>
</g>
<!-- Node1&#45;&gt;Node15 -->
<g id="edge38_Node000001_Node000015" class="edge">
<title>Node1&#45;&gt;Node15</title>
<g id="a_edge38_Node000001_Node000015"><a xlink:title=" ">
<path fill="none" stroke="#63b8ff" d="M477.81,-486.5C472.12,-478.21 466.18,-468.51 462,-459 452.32,-436.98 446.73,-409.41 444.03,-393.06"/>
<polygon fill="#63b8ff" stroke="#63b8ff" points="475.14,-488.78 483.8,-494.88 480.83,-484.71 475.14,-488.78"/>
</a>
</g>
</g>
<!-- Node3 -->
<g id="Node000003" class="node">
<title>Node3</title>
<g id="a_Node000003"><a xlink:href="_ip_endpoint_8hpp.html" target="_top" xlink:title=" ">
<polygon fill="white" stroke="#666666" points="671.5,-393 524.5,-393 524.5,-363 671.5,-363 671.5,-393"/>
<text text-anchor="start" x="532.5" y="-381" font-family="Helvetica,sans-Serif" font-size="10.00">include/Hermes/Endpoint</text>
<text text-anchor="middle" x="598" y="-370" font-family="Helvetica,sans-Serif" font-size="10.00">/IpEndpoint/IpEndpoint.hpp</text>
</a>
</g>
</g>
<!-- Node2&#45;&gt;Node3 -->
<g id="edge2_Node000002_Node000003" class="edge">
<title>Node2&#45;&gt;Node3</title>
<g id="a_edge2_Node000002_Node000003"><a xlink:title=" ">
<path fill="none" stroke="#63b8ff" d="M565.34,-420.81C572.5,-411.64 580.6,-401.28 586.93,-393.16"/>
<polygon fill="#63b8ff" stroke="#63b8ff" points="562.5,-418.76 559.1,-428.8 568.01,-423.07 562.5,-418.76"/>
</a>
</g>
</g>
<!-- Node2&#45;&gt;Node15 -->
<g id="edge22_Node000002_Node000015" class="edge">
<title>Node2&#45;&gt;Node15</title>
<g id="a_edge22_Node000002_Node000015"><a xlink:title=" ">
<path fill="none" stroke="#63b8ff" d="M516.03,-423.69C499.66,-413.82 480.11,-402.01 465.21,-393.01"/>
<polygon fill="#63b8ff" stroke="#63b8ff" points="514.37,-426.78 524.74,-428.95 517.99,-420.79 514.37,-426.78"/>
</a>
</g>
</g>
<!-- Node4 -->
<g id="Node000004" class="node">
<title>Node4</title>
<g id="a_Node000004"><a xlink:href="_default_socket_data_8hpp.html" target="_top" xlink:title=" ">
<polygon fill="white" stroke="#666666" points="528,-327 356,-327 356,-286 528,-286 528,-327"/>
<text text-anchor="start" x="364" y="-315" font-family="Helvetica,sans-Serif" font-size="10.00">include/Hermes/Socket</text>
<text text-anchor="start" x="364" y="-304" font-family="Helvetica,sans-Serif" font-size="10.00">/Sync/_base/Data/DefaultSocket</text>
<text text-anchor="middle" x="442" y="-293" font-family="Helvetica,sans-Serif" font-size="10.00">Data.hpp</text>
</a>
</g>
</g>
<!-- Node3&#45;&gt;Node4 -->
<g id="edge3_Node000003_Node000004" class="edge">
<title>Node3&#45;&gt;Node4</title>
<g id="a_edge3_Node000003_Node000004"><a xlink:title=" ">
<path fill="none" stroke="#63b8ff" d="M557.08,-358.77C535.21,-349.02 508.25,-337.02 485.93,-327.07"/>
<polygon fill="#63b8ff" stroke="#63b8ff" points="555.87,-362.06 566.43,-362.94 558.72,-355.67 555.87,-362.06"/>
</a>
</g>
</g>
<!-- Node13 -->
<g id="Node000013" class="node">
<title>Node13</title>
<g id="a_Node000013"><a xlink:href="_tls_socket_data_8hpp.html" target="_top" xlink:title=" ">
<polygon fill="white" stroke="#666666" points="816,-321.5 622,-321.5 622,-291.5 816,-291.5 816,-321.5"/>
<text text-anchor="start" x="630" y="-309.5" font-family="Helvetica,sans-Serif" font-size="10.00">include/Hermes/Socket</text>
<text text-anchor="middle" x="719" y="-298.5" font-family="Helvetica,sans-Serif" font-size="10.00">/Sync/_base/Data/TlsSocketData.hpp</text>
</a>
</g>
</g>
<!-- Node3&#45;&gt;Node13 -->
<g id="edge16_Node000003_Node000013" class="edge">
<title>Node3&#45;&gt;Node13</title>
<g id="a_edge16_Node000003_Node000013"><a xlink:title=" ">
<path fill="none" stroke="#63b8ff" d="M631.29,-357.88C651.31,-346.38 676.35,-331.99 694.55,-321.54"/>
<polygon fill="#63b8ff" stroke="#63b8ff" points="629.41,-354.92 622.49,-362.94 632.9,-360.99 629.41,-354.92"/>
</a>
</g>
</g>
<!-- Node4&#45;&gt;Node5 -->
<g id="edge4_Node000004_Node000005" class="edge">
<title>Node4&#45;&gt;Node5</title>
<g id="a_edge4_Node000004_Node000005"><a xlink:title=" ">
<path fill="none" stroke="#63b8ff" d="M365.17,-283.08C329.16,-272.57 286.65,-260.16 251.96,-250.04"/>
<polygon fill="#63b8ff" stroke="#63b8ff" points="364.57,-286.55 375.15,-285.99 366.53,-279.83 364.57,-286.55"/>
</a>
</g>
</g>
<!-- Node4&#45;&gt;Node9 -->
<g id="edge9_Node000004_Node000009" class="edge">
<title>Node4&#45;&gt;Node9</title>
<g id="a_edge9_Node000004_Node000009"><a xlink:title=" ">
<path fill="none" stroke="#63b8ff" d="M483.09,-280.64C499.47,-270.74 518.06,-259.5 533.47,-250.17"/>
<polygon fill="#63b8ff" stroke="#63b8ff" points="481,-277.82 474.26,-285.99 484.62,-283.81 481,-277.82"/>
</a>
</g>
</g>
<!-- Node4&#45;&gt;Node12 -->
<g id="edge13_Node000004_Node000012" class="edge">
<title>Node4&#45;&gt;Node12</title>
<g id="a_edge13_Node000004_Node000012"><a xlink:title=" ">
<path fill="none" stroke="#63b8ff" d="M414.65,-278.51C405.13,-269.11 394.63,-258.76 385.83,-250.07"/>
<polygon fill="#63b8ff" stroke="#63b8ff" points="412.46,-281.26 422.03,-285.79 417.37,-276.28 412.46,-281.26"/>
</a>
</g>
</g>
<!-- Node6 -->
<g id="Node000006" class="node">
<title>Node6</title>
<g id="a_Node000006"><a xlink:href="_server_socket_8hpp.html" target="_top" xlink:title=" ">
<polygon fill="white" stroke="#666666" points="387.5,-96 256.5,-96 256.5,-66 387.5,-66 387.5,-96"/>
<text text-anchor="start" x="264.5" y="-84" font-family="Helvetica,sans-Serif" font-size="10.00">include/Hermes/Socket</text>
<text text-anchor="middle" x="322" y="-73" font-family="Helvetica,sans-Serif" font-size="10.00">/Sync/ServerSocket.hpp</text>
</a>
</g>
</g>
<!-- Node5&#45;&gt;Node6 -->
<g id="edge5_Node000005_Node000006" class="edge">
<title>Node5&#45;&gt;Node6</title>
<g id="a_edge5_Node000005_Node000006"><a xlink:title=" ">
<path fill="none" stroke="#63b8ff" d="M235.94,-203.64C249.76,-195.25 263.94,-184.93 275,-173 296.4,-149.92 310.67,-115.25 317.45,-96.05"/>
<polygon fill="#63b8ff" stroke="#63b8ff" points="233.83,-200.82 226.95,-208.88 237.35,-206.87 233.83,-200.82"/>
</a>
</g>
</g>
<!-- Node5&#45;&gt;Node8 -->
<g id="edge7_Node000005_Node000008" class="edge">
<title>Node5&#45;&gt;Node8</title>
<g id="a_edge7_Node000005_Node000008"><a xlink:title=" ">
<path fill="none" stroke="#63b8ff" d="M185,-198.69C185,-190.08 185,-180.9 185,-173.07"/>
<polygon fill="#63b8ff" stroke="#63b8ff" points="181.5,-198.79 185,-208.79 188.5,-198.79 181.5,-198.79"/>
</a>
</g>
</g>
<!-- Node7 -->
<g id="Node000007" class="node">
<title>Node7</title>
<g id="a_Node000007"><a xlink:href="_listener_socket_8hpp.html" target="_top" xlink:title=" ">
<polygon fill="white" stroke="#666666" points="391,-30 253,-30 253,0 391,0 391,-30"/>
<text text-anchor="start" x="261" y="-18" font-family="Helvetica,sans-Serif" font-size="10.00">include/Hermes/Socket</text>
<text text-anchor="middle" x="322" y="-7" font-family="Helvetica,sans-Serif" font-size="10.00">/Sync/ListenerSocket.hpp</text>
</a>
</g>
</g>
<!-- Node6&#45;&gt;Node7 -->
<g id="edge6_Node000006_Node000007" class="edge">
<title>Node6&#45;&gt;Node7</title>
<g id="a_edge6_Node000006_Node000007"><a xlink:title=" ">
<path fill="none" stroke="#63b8ff" d="M322,-55.54C322,-46.96 322,-37.61 322,-30.16"/>
<polygon fill="#63b8ff" stroke="#63b8ff" points="318.5,-55.8 322,-65.8 325.5,-55.8 318.5,-55.8"/>
</a>
</g>
</g>
<!-- Node8&#45;&gt;Node6 -->
<g id="edge8_Node000008_Node000006" class="edge">
<title>Node8&#45;&gt;Node6</title>
<g id="a_edge8_Node000008_Node000006"><a xlink:title=" ">
<path fill="none" stroke="#63b8ff" d="M232.46,-127.42C253.06,-116.98 276.46,-105.1 294.18,-96.11"/>
<polygon fill="#63b8ff" stroke="#63b8ff" points="230.86,-124.31 223.53,-131.96 234.03,-130.55 230.86,-124.31"/>
</a>
</g>
</g>
<!-- Node10 -->
<g id="Node000010" class="node">
<title>Node10</title>
<g id="a_Node000010"><a xlink:href="_client_socket_8hpp.html" target="_top" xlink:title=" ">
<polygon fill="white" stroke="#666666" points="681,-96 553,-96 553,-66 681,-66 681,-96"/>
<text text-anchor="start" x="561" y="-84" font-family="Helvetica,sans-Serif" font-size="10.00">include/Hermes/Socket</text>
<text text-anchor="middle" x="617" y="-73" font-family="Helvetica,sans-Serif" font-size="10.00">/Sync/ClientSocket.hpp</text>
</a>
</g>
</g>
<!-- Node9&#45;&gt;Node10 -->
<g id="edge10_Node000009_Node000010" class="edge">
<title>Node9&#45;&gt;Node10</title>
<g id="a_edge10_Node000009_Node000010"><a xlink:title=" ">
<path fill="none" stroke="#63b8ff" d="M571.38,-198.77C575.37,-179.38 581.58,-153.73 590,-132 594.84,-119.49 602.16,-106.16 607.96,-96.41"/>
<polygon fill="#63b8ff" stroke="#63b8ff" points="567.89,-198.34 569.39,-208.83 574.76,-199.7 567.89,-198.34"/>
</a>
</g>
</g>
<!-- Node9&#45;&gt;Node11 -->
<g id="edge11_Node000009_Node000011" class="edge">
<title>Node9&#45;&gt;Node11</title>
<g id="a_edge11_Node000009_Node000011"><a xlink:title=" ">
<path fill="none" stroke="#63b8ff" d="M599.9,-202.82C612.71,-193.11 627.07,-182.24 639.03,-173.17"/>
<polygon fill="#63b8ff" stroke="#63b8ff" points="597.61,-200.16 591.75,-208.99 601.84,-205.74 597.61,-200.16"/>
</a>
</g>
</g>
<!-- Node11&#45;&gt;Node10 -->
<g id="edge12_Node000011_Node000010" class="edge">
<title>Node11&#45;&gt;Node10</title>
<g id="a_edge12_Node000011_Node000010"><a xlink:title=" ">
<path fill="none" stroke="#63b8ff" d="M645.59,-123.4C639.09,-113.99 632.12,-103.9 626.7,-96.04"/>
<polygon fill="#63b8ff" stroke="#63b8ff" points="642.81,-125.53 651.37,-131.77 648.57,-121.55 642.81,-125.53"/>
</a>
</g>
</g>
<!-- Node12&#45;&gt;Node6 -->
<g id="edge15_Node000012_Node000006" class="edge">
<title>Node12&#45;&gt;Node6</title>
<g id="a_edge15_Node000012_Node000006"><a xlink:title=" ">
<path fill="none" stroke="#63b8ff" d="M357.09,-198.85C347.72,-167.63 333.35,-119.79 326.26,-96.18"/>
<polygon fill="#63b8ff" stroke="#63b8ff" points="353.84,-200.17 360.07,-208.74 360.54,-198.16 353.84,-200.17"/>
</a>
</g>
</g>
<!-- Node12&#45;&gt;Node10 -->
<g id="edge14_Node000012_Node000010" class="edge">
<title>Node12&#45;&gt;Node10</title>
<g id="a_edge14_Node000012_Node000010"><a xlink:title=" ">
<path fill="none" stroke="#63b8ff" d="M408.42,-203.74C461.48,-172.77 550.49,-120.82 593,-96.01"/>
<polygon fill="#63b8ff" stroke="#63b8ff" points="406.46,-200.83 399.59,-208.89 409.99,-206.88 406.46,-200.83"/>
</a>
</g>
</g>
<!-- Node13&#45;&gt;Node8 -->
<g id="edge17_Node000013_Node000008" class="edge">
<title>Node13&#45;&gt;Node8</title>
<g id="a_edge17_Node000013_Node000008"><a xlink:title=" ">
<path fill="none" stroke="#63b8ff" d="M612.05,-293.74C570.33,-285.77 523.4,-272.4 485,-250 463.54,-237.48 468.61,-221.26 447,-209 391.39,-177.45 319.94,-163.78 265.7,-157.89"/>
<polygon fill="#63b8ff" stroke="#63b8ff" points="611.51,-297.2 621.98,-295.56 612.77,-290.31 611.51,-297.2"/>
</a>
</g>
</g>
<!-- Node13&#45;&gt;Node11 -->
<g id="edge18_Node000013_Node000011" class="edge">
<title>Node13&#45;&gt;Node11</title>
<g id="a_edge18_Node000013_Node000011"><a xlink:title=" ">
<path fill="none" stroke="#63b8ff" d="M710.6,-281.85C699.98,-251.96 681.89,-201.05 671.99,-173.18"/>
<polygon fill="#63b8ff" stroke="#63b8ff" points="707.37,-283.22 714.02,-291.47 713.97,-280.88 707.37,-283.22"/>
</a>
</g>
</g>
<!-- Node13&#45;&gt;Node14 -->
<g id="edge19_Node000013_Node000014" class="edge">
<title>Node13&#45;&gt;Node14</title>
<g id="a_edge19_Node000013_Node000014"><a xlink:title=" ">
<path fill="none" stroke="#63b8ff" d="M740.96,-284.38C752.11,-273.66 765.57,-260.72 776.51,-250.2"/>
<polygon fill="#63b8ff" stroke="#63b8ff" points="738.45,-281.94 733.67,-291.39 743.31,-286.98 738.45,-281.94"/>
</a>
</g>
</g>
<!-- Node14&#45;&gt;Node6 -->
<g id="edge21_Node000014_Node000006" class="edge">
<title>Node14&#45;&gt;Node6</title>
<g id="a_edge21_Node000014_Node000006"><a xlink:title=" ">
<path fill="none" stroke="#63b8ff" d="M783.54,-199.66C771.11,-174.34 752.72,-140.3 740,-132 711.16,-113.18 498.16,-94.97 387.84,-86.67"/>
<polygon fill="#63b8ff" stroke="#63b8ff" points="780.48,-201.38 787.98,-208.86 786.78,-198.33 780.48,-201.38"/>
</a>
</g>
</g>
<!-- Node14&#45;&gt;Node10 -->
<g id="edge20_Node000014_Node000010" class="edge">
<title>Node14&#45;&gt;Node10</title>
<g id="a_edge20_Node000014_Node000010"><a xlink:title=" ">
<path fill="none" stroke="#63b8ff" d="M796.93,-198.79C795.3,-177.64 789.75,-149.9 773,-132 749.39,-106.77 713.05,-94.22 681.39,-88.01"/>
<polygon fill="#63b8ff" stroke="#63b8ff" points="793.43,-199.06 797.45,-208.86 800.43,-198.7 793.43,-199.06"/>
</a>
</g>
</g>
<!-- Node15&#45;&gt;Node4 -->
<g id="edge27_Node000015_Node000004" class="edge">
<title>Node15&#45;&gt;Node4</title>
<g id="a_edge27_Node000015_Node000004"><a xlink:title=" ">
<path fill="none" stroke="#63b8ff" d="M442,-352.91C442,-344.47 442,-335.1 442,-327.07"/>
<polygon fill="#63b8ff" stroke="#63b8ff" points="438.5,-352.94 442,-362.94 445.5,-352.94 438.5,-352.94"/>
</a>
</g>
</g>
<!-- Node15&#45;&gt;Node5 -->
<g id="edge23_Node000015_Node000005" class="edge">
<title>Node15&#45;&gt;Node5</title>
<g id="a_edge23_Node000015_Node000005"><a xlink:title=" ">
<path fill="none" stroke="#63b8ff" d="M367.66,-373.61C296.51,-368.61 196.48,-356.43 172,-327 154.16,-305.56 164.72,-271.67 174.48,-250.28"/>
<polygon fill="#63b8ff" stroke="#63b8ff" points="367.73,-377.12 377.94,-374.29 368.19,-370.13 367.73,-377.12"/>
</a>
</g>
</g>
<!-- Node15&#45;&gt;Node8 -->
<g id="edge24_Node000015_Node000008" class="edge">
<title>Node15&#45;&gt;Node8</title>
<g id="a_edge24_Node000015_Node000008"><a xlink:title=" ">
<path fill="none" stroke="#63b8ff" d="M367.79,-376.54C307.92,-373.3 223.24,-362.06 158,-327 103.68,-297.8 53.71,-262.14 85,-209 94.32,-193.17 109.96,-181.54 126.13,-173.13"/>
<polygon fill="#63b8ff" stroke="#63b8ff" points="367.76,-380.04 377.92,-377.02 368.1,-373.05 367.76,-380.04"/>
</a>
</g>
</g>
<!-- Node15&#45;&gt;Node9 -->
<g id="edge25_Node000015_Node000009" class="edge">
<title>Node15&#45;&gt;Node9</title>
<g id="a_edge25_Node000015_Node000009"><a xlink:title=" ">
<path fill="none" stroke="#63b8ff" d="M494.37,-358.63C509.94,-350.96 525.81,-340.59 537,-327 555.24,-304.86 562.01,-271.48 564.52,-250.35"/>
<polygon fill="#63b8ff" stroke="#63b8ff" points="492.88,-355.46 485.28,-362.84 495.82,-361.82 492.88,-355.46"/>
</a>
</g>
</g>
<!-- Node15&#45;&gt;Node11 -->
<g id="edge26_Node000015_Node000011" class="edge">
<title>Node15&#45;&gt;Node11</title>
<g id="a_edge26_Node000015_Node000011"><a xlink:title=" ">
<path fill="none" stroke="#63b8ff" d="M493.59,-359.33C514.93,-350.97 539.44,-339.97 560,-327 570.92,-320.11 640.64,-261.23 647,-250 660.61,-225.98 664.2,-193.71 665.01,-173.26"/>
<polygon fill="#63b8ff" stroke="#63b8ff" points="492.13,-356.14 484.04,-362.98 494.63,-362.68 492.13,-356.14"/>
</a>
</g>
</g>
<!-- Node15&#45;&gt;Node12 -->
<g id="edge29_Node000015_Node000012" class="edge">
<title>Node15&#45;&gt;Node12</title>
<g id="a_edge29_Node000015_Node000012"><a xlink:title=" ">
<path fill="none" stroke="#63b8ff" d="M382.99,-358.32C368.77,-350.9 355.3,-340.74 347,-327 332.61,-303.17 344.25,-270.57 354.6,-250.02"/>
<polygon fill="#63b8ff" stroke="#63b8ff" points="381.86,-361.67 392.39,-362.82 384.88,-355.35 381.86,-361.67"/>
</a>
</g>
</g>
<!-- Node15&#45;&gt;Node13 -->
<g id="edge28_Node000015_Node000013" class="edge">
<title>Node15&#45;&gt;Node13</title>
<g id="a_edge28_Node000015_Node000013"><a xlink:title=" ">
<path fill="none" stroke="#63b8ff" d="M507.89,-360.47C555.17,-348.61 618.18,-332.8 663.03,-321.54"/>
<polygon fill="#63b8ff" stroke="#63b8ff" points="506.9,-357.11 498.06,-362.94 508.61,-363.9 506.9,-357.11"/>
</a>
</g>
</g>
<!-- Node15&#45;&gt;Node14 -->
<g id="edge30_Node000015_Node000014" class="edge">
<title>Node15&#45;&gt;Node14</title>
<g id="a_edge30_Node000015_Node000014"><a xlink:title=" ">
<path fill="none" stroke="#63b8ff" d="M516.07,-363.31C599.69,-354.53 780.87,-376.57 825,-327 844.14,-305.5 826.97,-271.63 812.35,-250.26"/>
<polygon fill="#63b8ff" stroke="#63b8ff" points="515.6,-359.84 506.13,-364.58 516.49,-366.79 515.6,-359.84"/>
</a>
</g>
</g>
<!-- Node16 -->
<g id="Node000016" class="node">
<title>Node16</title>
<g id="a_Node000016"><a xlink:href="_to_bytes_8hpp.html" target="_top" xlink:title=" ">
<polygon fill="white" stroke="#666666" points="299.5,-321.5 180.5,-321.5 180.5,-291.5 299.5,-291.5 299.5,-321.5"/>
<text text-anchor="start" x="188.5" y="-309.5" font-family="Helvetica,sans-Serif" font-size="10.00">include/Hermes/Utils</text>
<text text-anchor="middle" x="240" y="-298.5" font-family="Helvetica,sans-Serif" font-size="10.00">/ToBytes.hpp</text>
</a>
</g>
</g>
<!-- Node15&#45;&gt;Node16 -->
<g id="edge31_Node000015_Node000016" class="edge">
<title>Node15&#45;&gt;Node16</title>
<g id="a_edge31_Node000015_Node000016"><a xlink:title=" ">
<path fill="none" stroke="#63b8ff" d="M391.33,-359.57C357.17,-347.81 312.7,-332.51 280.82,-321.54"/>
<polygon fill="#63b8ff" stroke="#63b8ff" points="390.53,-362.99 401.12,-362.94 392.81,-356.37 390.53,-362.99"/>
</a>
</g>
</g>
</g>
</svg>
