<?xml version="1.0" encoding="UTF-8" standalone="no"?>
<!DOCTYPE svg PUBLIC "-//W3C//DTD SVG 1.1//EN"
 "http://www.w3.org/Graphics/SVG/1.1/DTD/svg11.dtd">
<!-- Generated by graphviz version 2.43.0 (0)
 -->
<!-- Title: include/Hermes/_base/ConnectionErrorEnum.hpp Pages: 1 -->
<svg width="1391pt" height="610pt"
 viewBox="0.00 0.00 1390.50 610.00" xmlns="http://www.w3.org/2000/svg" xmlns:xlink="http://www.w3.org/1999/xlink">
<g id="graph0" class="graph" transform="scale(1 1) rotate(0) translate(4 606)">
<title>include/Hermes/_base/ConnectionErrorEnum.hpp</title>
<!-- Node1 -->
<g id="Node000001" class="node">
<title>Node1</title>
<g id="a_Node000001"><a xlink:title=" ">
<polygon fill="#999999" stroke="#666666" points="909.5,-602 763.5,-602 763.5,-572 909.5,-572 909.5,-602"/>
<text text-anchor="start" x="771.5" y="-590" font-family="Helvetica,sans-Serif" font-size="10.00">include/Hermes/_base</text>
<text text-anchor="middle" x="836.5" y="-579" font-family="Helvetica,sans-Serif" font-size="10.00">/ConnectionErrorEnum.hpp</text>
</a>
</g>
</g>
<!-- Node2 -->
<g id="Node000002" class="node">
<title>Node2</title>
<g id="a_Node000002"><a xlink:href="_endpoint_concept_8hpp.html" target="_top" xlink:title=" ">
<polygon fill="white" stroke="#666666" points="808,-536 653,-536 653,-506 808,-506 808,-536"/>
<text text-anchor="start" x="661" y="-524" font-family="Helvetica,sans-Serif" font-size="10.00">include/Hermes/Endpoint</text>
<text text-anchor="middle" x="730.5" y="-513" font-family="Helvetica,sans-Serif" font-size="10.00">/_base/EndpointConcept.hpp</text>
</a>
</g>
</g>
<!-- Node1&#45;&gt;Node2 -->
<g id="edge1_Node000001_Node000002" class="edge">
<title>Node1&#45;&gt;Node2</title>
<g id="a_edge1_Node000001_Node000002"><a xlink:title=" ">
<path fill="none" stroke="#63b8ff" d="M804.53,-566.69C788.16,-556.82 768.61,-545.01 753.71,-536.01"/>
<polygon fill="#63b8ff" stroke="#63b8ff" points="802.87,-569.78 813.24,-571.95 806.49,-563.79 802.87,-569.78"/>
</a>
</g>
</g>
<!-- Node11 -->
<g id="Node000011" class="node">
<title>Node11</title>
<g id="a_Node000011"><a xlink:href="_default_accept_policy_8hpp.html" target="_top" xlink:title=" ">
<polygon fill="white" stroke="#666666" points="1316.5,-338 1134.5,-338 1134.5,-297 1316.5,-297 1316.5,-338"/>
<text text-anchor="start" x="1142.5" y="-326" font-family="Helvetica,sans-Serif" font-size="10.00">include/Hermes/Socket</text>
<text text-anchor="start" x="1142.5" y="-315" font-family="Helvetica,sans-Serif" font-size="10.00">/Sync/_base/Accept/DefaultAccept</text>
<text text-anchor="middle" x="1225.5" y="-304" font-family="Helvetica,sans-Serif" font-size="10.00">Policy.hpp</text>
</a>
</g>
</g>
<!-- Node1&#45;&gt;Node11 -->
<g id="edge51_Node000001_Node000011" class="edge">
<title>Node1&#45;&gt;Node11</title>
<g id="a_edge51_Node000001_Node000011"><a xlink:title=" ">
<path fill="none" stroke="#63b8ff" d="M919.92,-574.52C954.38,-567.16 993.63,-555.23 1025.5,-536 1112.9,-483.26 1185.27,-381.09 1213.17,-338.2"/>
<polygon fill="#63b8ff" stroke="#63b8ff" points="918.97,-571.14 909.87,-576.57 920.36,-578 918.97,-571.14"/>
</a>
</g>
</g>
<!-- Node14 -->
<g id="Node000014" class="node">
<title>Node14</title>
<g id="a_Node000014"><a xlink:href="_tls_accept_policy_8hpp.html" target="_top" xlink:title=" ">
<polygon fill="white" stroke="#666666" points="1306,-261 1145,-261 1145,-220 1306,-220 1306,-261"/>
<text text-anchor="start" x="1153" y="-249" font-family="Helvetica,sans-Serif" font-size="10.00">include/Hermes/Socket</text>
<text text-anchor="start" x="1153" y="-238" font-family="Helvetica,sans-Serif" font-size="10.00">/Sync/_base/Accept/TlsAccept</text>
<text text-anchor="middle" x="1225.5" y="-227" font-family="Helvetica,sans-Serif" font-size="10.00">Policy.hpp</text>
</a>
</g>
</g>
<!-- Node1&#45;&gt;Node14 -->
<g id="edge52_Node000001_Node000014" class="edge">
<title>Node1&#45;&gt;Node14</title>
<g id="a_edge52_Node000001_Node000014"><a xlink:title=" ">
<path fill="none" stroke="#63b8ff" d="M919.85,-583.32C1072.75,-576.12 1382.5,-549.94 1382.5,-456 1382.5,-456 1382.5,-456 1382.5,-388 1382.5,-343.82 1373.29,-328.69 1342.5,-297 1327.3,-281.36 1306.83,-269.6 1287.25,-261.03"/>
<polygon fill="#63b8ff" stroke="#63b8ff" points="919.4,-579.84 909.57,-583.79 919.72,-586.83 919.4,-579.84"/>
</a>
</g>
</g>
<!-- Node15 -->
<g id="Node000015" class="node">
<title>Node15</title>
<g id="a_Node000015"><a xlink:href="_default_connect_policy_8hpp.html" target="_top" xlink:title=" ">
<polygon fill="white" stroke="#666666" points="618.5,-338 474.5,-338 474.5,-297 618.5,-297 618.5,-338"/>
<text text-anchor="start" x="482.5" y="-326" font-family="Helvetica,sans-Serif" font-size="10.00">include/Hermes/Socket</text>
<text text-anchor="start" x="482.5" y="-315" font-family="Helvetica,sans-Serif" font-size="10.00">/Sync/_base/Connection</text>
<text text-anchor="middle" x="546.5" y="-304" font-family="Helvetica,sans-Serif" font-size="10.00">/DefaultConnectPolicy.hpp</text>
</a>
</g>
</g>
<!-- Node1&#45;&gt;Node15 -->
<g id="edge53_Node000001_Node000015" class="edge">
<title>Node1&#45;&gt;Node15</title>
<g id="a_edge53_Node000001_Node000015"><a xlink:title=" ">
<path fill="none" stroke="#63b8ff" d="M753.09,-577.49C678.33,-565.59 570.4,-537.26 503.5,-470 470.78,-437.11 440.52,-414.86 462.5,-374 470.78,-358.61 485.41,-346.77 500.16,-338.06"/>
<polygon fill="#63b8ff" stroke="#63b8ff" points="753,-581.01 763.42,-579.06 754.06,-574.09 753,-581.01"/>
</a>
</g>
</g>
<!-- Node17 -->
<g id="Node000017" class="node">
<title>Node17</title>
<g id="a_Node000017"><a xlink:href="_tls_connect_policy_8hpp.html" target="_top" xlink:title=" ">
<polygon fill="white" stroke="#666666" points="712.5,-261 580.5,-261 580.5,-220 712.5,-220 712.5,-261"/>
<text text-anchor="start" x="588.5" y="-249" font-family="Helvetica,sans-Serif" font-size="10.00">include/Hermes/Socket</text>
<text text-anchor="start" x="588.5" y="-238" font-family="Helvetica,sans-Serif" font-size="10.00">/Sync/_base/Connection</text>
<text text-anchor="middle" x="646.5" y="-227" font-family="Helvetica,sans-Serif" font-size="10.00">/TlsConnectPolicy.hpp</text>
</a>
</g>
</g>
<!-- Node1&#45;&gt;Node17 -->
<g id="edge54_Node000001_Node000017" class="edge">
<title>Node1&#45;&gt;Node17</title>
<g id="a_edge54_Node000001_Node000017"><a xlink:title=" ">
<path fill="none" stroke="#63b8ff" d="M842.15,-562.1C850.78,-519.21 861.91,-428.56 817.5,-374 782.62,-331.15 741.29,-372.97 698.5,-338 673.89,-317.89 659.26,-282.95 652.06,-261.09"/>
<polygon fill="#63b8ff" stroke="#63b8ff" points="838.72,-561.41 840.05,-571.92 845.56,-562.88 838.72,-561.41"/>
</a>
</g>
</g>
<!-- Node18 -->
<g id="Node000018" class="node">
<title>Node18</title>
<g id="a_Node000018"><a xlink:href="_default_transfer_policy_8hpp.html" target="_top" xlink:title=" ">
<polygon fill="white" stroke="#666666" points="894,-338 751,-338 751,-297 894,-297 894,-338"/>
<text text-anchor="start" x="759" y="-326" font-family="Helvetica,sans-Serif" font-size="10.00">include/Hermes/Socket</text>
<text text-anchor="start" x="759" y="-315" font-family="Helvetica,sans-Serif" font-size="10.00">/Sync/_base/Transfer</text>
<text text-anchor="middle" x="822.5" y="-304" font-family="Helvetica,sans-Serif" font-size="10.00">/DefaultTransferPolicy.hpp</text>
</a>
</g>
</g>
<!-- Node1&#45;&gt;Node18 -->
<g id="edge55_Node000001_Node000018" class="edge">
<title>Node1&#45;&gt;Node18</title>
<g id="a_edge55_Node000001_Node000018"><a xlink:title=" ">
<path fill="none" stroke="#63b8ff" d="M880.85,-567.88C959.94,-533 1111.49,-452.97 1049.5,-374 1030.37,-349.63 953.25,-334.58 894.15,-326.41"/>
<polygon fill="#63b8ff" stroke="#63b8ff" points="879.36,-564.71 871.58,-571.91 882.15,-571.13 879.36,-564.71"/>
</a>
</g>
</g>
<!-- Node20 -->
<g id="Node000020" class="node">
<title>Node20</title>
<g id="a_Node000020"><a xlink:href="_tls_async_transfer_policy_8hpp.html" target="_top" xlink:title=" ">
<polygon fill="white" stroke="#666666" points="151,-338 0,-338 0,-297 151,-297 151,-338"/>
<text text-anchor="start" x="8" y="-326" font-family="Helvetica,sans-Serif" font-size="10.00">include/Hermes/Socket</text>
<text text-anchor="start" x="8" y="-315" font-family="Helvetica,sans-Serif" font-size="10.00">/Async/_base/Transfer</text>
<text text-anchor="middle" x="75.5" y="-304" font-family="Helvetica,sans-Serif" font-size="10.00">/TlsAsyncTransferPolicy.hpp</text>
</a>
</g>
</g>
<!-- Node1&#45;&gt;Node20 -->
<g id="edge50_Node000001_Node000020" class="edge">
<title>Node1&#45;&gt;Node20</title>
<g id="a_edge50_Node000001_Node000020"><a xlink:title=" ">
<path fill="none" stroke="#63b8ff" d="M753.23,-576.52C694.24,-568.65 613.63,-555.55 544.5,-536 392.89,-493.13 356.33,-474.64 215.5,-404 175.66,-384.02 132.21,-356.51 104.45,-338.15"/>
<polygon fill="#63b8ff" stroke="#63b8ff" points="752.88,-580 763.25,-577.83 753.79,-573.06 752.88,-580"/>
</a>
</g>
</g>
<!-- Node21 -->
<g id="Node000021" class="node">
<title>Node21</title>
<g id="a_Node000021"><a xlink:href="_tls_transfer_policy_8hpp.html" target="_top" xlink:title=" ">
<polygon fill="white" stroke="#666666" points="1116.5,-338 988.5,-338 988.5,-297 1116.5,-297 1116.5,-338"/>
<text text-anchor="start" x="996.5" y="-326" font-family="Helvetica,sans-Serif" font-size="10.00">include/Hermes/Socket</text>
<text text-anchor="start" x="996.5" y="-315" font-family="Helvetica,sans-Serif" font-size="10.00">/Sync/_base/Transfer</text>
<text text-anchor="middle" x="1052.5" y="-304" font-family="Helvetica,sans-Serif" font-size="10.00">/TlsTransferPolicy.hpp</text>
</a>
</g>
</g>
<!-- Node1&#45;&gt;Node21 -->
<g id="edge56_Node000001_Node000021" class="edge">
<title>Node1&#45;&gt;Node21</title>
<g id="a_edge56_Node000001_Node000021"><a xlink:title=" ">
<path fill="none" stroke="#63b8ff" d="M914.14,-569.04C965.98,-553.11 1029.88,-523.42 1059.5,-470 1080.3,-432.48 1075.85,-416.42 1069.5,-374 1067.68,-361.84 1063.73,-348.67 1060.1,-338.21"/>
<polygon fill="#63b8ff" stroke="#63b8ff" points="912.88,-565.76 904.28,-571.95 914.86,-572.47 912.88,-565.76"/>
</a>
</g>
</g>
<!-- Node22 -->
<g id="Node000022" class="node">
<title>Node22</title>
<g id="a_Node000022"><a xlink:href="__base_8hpp.html" target="_top" xlink:title=" ">
<polygon fill="white" stroke="#666666" points="640.5,-470 512.5,-470 512.5,-440 640.5,-440 640.5,-470"/>
<text text-anchor="start" x="520.5" y="-458" font-family="Helvetica,sans-Serif" font-size="10.00">include/Hermes/Socket</text>
<text text-anchor="middle" x="576.5" y="-447" font-family="Helvetica,sans-Serif" font-size="10.00">/_base.hpp</text>
</a>
</g>
</g>
<!-- Node1&#45;&gt;Node22 -->
<g id="edge57_Node000001_Node000022" class="edge">
<title>Node1&#45;&gt;Node22</title>
<g id="a_edge57_Node000001_Node000022"><a xlink:title=" ">
<path fill="none" stroke="#63b8ff" d="M753.52,-576.08C717.62,-568.96 676.4,-556.79 643.5,-536 616.85,-519.16 595.48,-488.25 584.52,-470.18"/>
<polygon fill="#63b8ff" stroke="#63b8ff" points="753.02,-579.54 763.49,-577.95 754.31,-572.66 753.02,-579.54"/>
</a>
</g>
</g>
<!-- Node3 -->
<g id="Node000003" class="node">
<title>Node3</title>
<g id="a_Node000003"><a xlink:href="_ip_endpoint_8hpp.html" target="_top" xlink:title=" ">
<polygon fill="white" stroke="#666666" points="806,-470 659,-470 659,-440 806,-440 806,-470"/>
<text text-anchor="start" x="667" y="-458" font-family="Helvetica,sans-Serif" font-size="10.00">include/Hermes/Endpoint</text>
<text text-anchor="middle" x="732.5" y="-447" font-family="Helvetica,sans-Serif" font-size="10.00">/IpEndpoint/IpEndpoint.hpp</text>
</a>
</g>
</g>
<!-- Node2&#45;&gt;Node3 -->
<g id="edge2_Node000002_Node000003" class="edge">
<title>Node2&#45;&gt;Node3</title>
<g id="a_edge2_Node000002_Node000003"><a xlink:title=" ">
<path fill="none" stroke="#63b8ff" d="M731.26,-495.54C731.53,-486.96 731.82,-477.61 732.06,-470.16"/>
<polygon fill="#63b8ff" stroke="#63b8ff" points="727.76,-495.69 730.94,-505.8 734.75,-495.91 727.76,-495.69"/>
</a>
</g>
</g>
<!-- Node2&#45;&gt;Node22 -->
<g id="edge36_Node000002_Node000022" class="edge">
<title>Node2&#45;&gt;Node22</title>
<g id="a_edge36_Node000002_Node000022"><a xlink:title=" ">
<path fill="none" stroke="#63b8ff" d="M687.32,-502.05C662.92,-491.91 632.87,-479.43 610.22,-470.01"/>
<polygon fill="#63b8ff" stroke="#63b8ff" points="686.13,-505.35 696.7,-505.95 688.81,-498.89 686.13,-505.35"/>
</a>
</g>
</g>
<!-- Node4 -->
<g id="Node000004" class="node">
<title>Node4</title>
<g id="a_Node000004"><a xlink:href="_default_socket_data_8hpp.html" target="_top" xlink:title=" ">
<polygon fill="white" stroke="#666666" points="808.5,-404 650.5,-404 650.5,-374 808.5,-374 808.5,-404"/>
<text text-anchor="start" x="658.5" y="-392" font-family="Helvetica,sans-Serif" font-size="10.00">include/Hermes/Socket</text>
<text text-anchor="middle" x="729.5" y="-381" font-family="Helvetica,sans-Serif" font-size="10.00">/Data/DefaultSocketData.hpp</text>
</a>
</g>
</g>
<!-- Node3&#45;&gt;Node4 -->
<g id="edge3_Node000003_Node000004" class="edge">
<title>Node3&#45;&gt;Node4</title>
<g id="a_edge3_Node000003_Node000004"><a xlink:title=" ">
<path fill="none" stroke="#63b8ff" d="M731.35,-429.54C730.95,-420.96 730.51,-411.61 730.16,-404.16"/>
<polygon fill="#63b8ff" stroke="#63b8ff" points="727.87,-429.97 731.83,-439.8 734.86,-429.64 727.87,-429.97"/>
</a>
</g>
</g>
<!-- Node19 -->
<g id="Node000019" class="node">
<title>Node19</title>
<g id="a_Node000019"><a xlink:href="_tls_socket_data_8hpp.html" target="_top" xlink:title=" ">
<polygon fill="white" stroke="#666666" points="1040,-404 903,-404 903,-374 1040,-374 1040,-404"/>
<text text-anchor="start" x="911" y="-392" font-family="Helvetica,sans-Serif" font-size="10.00">include/Hermes/Socket</text>
<text text-anchor="middle" x="971.5" y="-381" font-family="Helvetica,sans-Serif" font-size="10.00">/Data/TlsSocketData.hpp</text>
</a>
</g>
</g>
<!-- Node3&#45;&gt;Node19 -->
<g id="edge26_Node000003_Node000019" class="edge">
<title>Node3&#45;&gt;Node19</title>
<g id="a_edge26_Node000003_Node000019"><a xlink:title=" ">
<path fill="none" stroke="#63b8ff" d="M795.04,-437.25C833.65,-426.91 882.62,-413.8 919.17,-404.01"/>
<polygon fill="#63b8ff" stroke="#63b8ff" points="793.7,-433.99 784.95,-439.95 795.51,-440.75 793.7,-433.99"/>
</a>
</g>
</g>
<!-- Node5 -->
<g id="Node000005" class="node">
<title>Node5</title>
<g id="a_Node000005"><a xlink:href="_default_async_connect_policy_8hpp.html" target="_top" xlink:title=" ">
<polygon fill="white" stroke="#666666" points="572,-184 399,-184 399,-143 572,-143 572,-184"/>
<text text-anchor="start" x="407" y="-172" font-family="Helvetica,sans-Serif" font-size="10.00">include/Hermes/Socket</text>
<text text-anchor="start" x="407" y="-161" font-family="Helvetica,sans-Serif" font-size="10.00">/Async/_base/Connection</text>
<text text-anchor="middle" x="485.5" y="-150" font-family="Helvetica,sans-Serif" font-size="10.00">/DefaultAsyncConnectPolicy.hpp</text>
</a>
</g>
</g>
<!-- Node4&#45;&gt;Node5 -->
<g id="edge4_Node000004_Node000005" class="edge">
<title>Node4&#45;&gt;Node5</title>
<g id="a_edge4_Node000004_Node000005"><a xlink:title=" ">
<path fill="none" stroke="#63b8ff" d="M640.36,-373.88C565.99,-361.67 471.24,-344.93 465.5,-338 428.65,-293.52 457.72,-219.16 475.01,-184.03"/>
<polygon fill="#63b8ff" stroke="#63b8ff" points="639.81,-377.34 650.24,-375.5 640.94,-370.43 639.81,-377.34"/>
</a>
</g>
</g>
<!-- Node8 -->
<g id="Node000008" class="node">
<title>Node8</title>
<g id="a_Node000008"><a xlink:href="_default_async_transfer_policy_8hpp.html" target="_top" xlink:title=" ">
<polygon fill="white" stroke="#666666" points="342,-338 169,-338 169,-297 342,-297 342,-338"/>
<text text-anchor="start" x="177" y="-326" font-family="Helvetica,sans-Serif" font-size="10.00">include/Hermes/Socket</text>
<text text-anchor="start" x="177" y="-315" font-family="Helvetica,sans-Serif" font-size="10.00">/Async/_base/Transfer</text>
<text text-anchor="middle" x="255.5" y="-304" font-family="Helvetica,sans-Serif" font-size="10.00">/DefaultAsyncTransferPolicy.hpp</text>
</a>
</g>
</g>
<!-- Node4&#45;&gt;Node8 -->
<g id="edge8_Node000004_Node000008" class="edge">
<title>Node4&#45;&gt;Node8</title>
<g id="a_edge8_Node000004_Node000008"><a xlink:title=" ">
<path fill="none" stroke="#63b8ff" d="M640.8,-374.05C640.7,-374.03 640.6,-374.02 640.5,-374 538.16,-358.58 420.38,-341.73 342.32,-330.69"/>
<polygon fill="#63b8ff" stroke="#63b8ff" points="640,-377.46 650.41,-375.5 641.05,-370.54 640,-377.46"/>
</a>
</g>
</g>
<!-- Node4&#45;&gt;Node11 -->
<g id="edge12_Node000004_Node000011" class="edge">
<title>Node4&#45;&gt;Node11</title>
<g id="a_edge12_Node000004_Node000011"><a xlink:title=" ">
<path fill="none" stroke="#63b8ff" d="M818.7,-378.47C899.12,-369.46 1020.52,-354.84 1125.5,-338 1128.38,-337.54 1131.31,-337.05 1134.26,-336.55"/>
<polygon fill="#63b8ff" stroke="#63b8ff" points="818.16,-375 808.61,-379.59 818.94,-381.96 818.16,-375"/>
</a>
</g>
</g>
<!-- Node4&#45;&gt;Node15 -->
<g id="edge17_Node000004_Node000015" class="edge">
<title>Node4&#45;&gt;Node15</title>
<g id="a_edge17_Node000004_Node000015"><a xlink:title=" ">
<path fill="none" stroke="#63b8ff" d="M682.88,-370.29C656.97,-360.46 624.69,-348.2 598.04,-338.07"/>
<polygon fill="#63b8ff" stroke="#63b8ff" points="681.88,-373.66 692.47,-373.94 684.36,-367.11 681.88,-373.66"/>
</a>
</g>
</g>
<!-- Node4&#45;&gt;Node18 -->
<g id="edge23_Node000004_Node000018" class="edge">
<title>Node4&#45;&gt;Node18</title>
<g id="a_edge23_Node000004_Node000018"><a xlink:title=" ">
<path fill="none" stroke="#63b8ff" d="M756.56,-367.77C769.08,-358.42 783.9,-347.35 796.31,-338.07"/>
<polygon fill="#63b8ff" stroke="#63b8ff" points="754.24,-365.15 748.32,-373.94 758.43,-370.75 754.24,-365.15"/>
</a>
</g>
</g>
<!-- Node6 -->
<g id="Node000006" class="node">
<title>Node6</title>
<g id="a_Node000006"><a xlink:href="_async_client_socket_8hpp.html" target="_top" xlink:title=" ">
<polygon fill="white" stroke="#666666" points="435,-30 272,-30 272,0 435,0 435,-30"/>
<text text-anchor="start" x="280" y="-18" font-family="Helvetica,sans-Serif" font-size="10.00">include/Hermes/Socket</text>
<text text-anchor="middle" x="353.5" y="-7" font-family="Helvetica,sans-Serif" font-size="10.00">/Async/AsyncClientSocket.hpp</text>
</a>
</g>
</g>
<!-- Node5&#45;&gt;Node6 -->
<g id="edge5_Node000005_Node000006" class="edge">
<title>Node5&#45;&gt;Node6</title>
<g id="a_edge5_Node000005_Node000006"><a xlink:title=" ">
<path fill="none" stroke="#63b8ff" d="M438.14,-137.67C424.86,-129.18 411.16,-118.8 400.5,-107 379.52,-83.77 365.18,-49.47 358.26,-30.3"/>
<polygon fill="#63b8ff" stroke="#63b8ff" points="436.42,-140.72 446.77,-142.97 440.09,-134.76 436.42,-140.72"/>
</a>
</g>
</g>
<!-- Node7 -->
<g id="Node000007" class="node">
<title>Node7</title>
<g id="a_Node000007"><a xlink:href="_tls_async_connect_policy_8hpp.html" target="_top" xlink:title=" ">
<polygon fill="white" stroke="#666666" points="561.5,-107 409.5,-107 409.5,-66 561.5,-66 561.5,-107"/>
<text text-anchor="start" x="417.5" y="-95" font-family="Helvetica,sans-Serif" font-size="10.00">include/Hermes/Socket</text>
<text text-anchor="start" x="417.5" y="-84" font-family="Helvetica,sans-Serif" font-size="10.00">/Async/_base/Connection</text>
<text text-anchor="middle" x="485.5" y="-73" font-family="Helvetica,sans-Serif" font-size="10.00">/TlsAsyncConnectPolicy.hpp</text>
</a>
</g>
</g>
<!-- Node5&#45;&gt;Node7 -->
<g id="edge6_Node000005_Node000007" class="edge">
<title>Node5&#45;&gt;Node7</title>
<g id="a_edge6_Node000005_Node000007"><a xlink:title=" ">
<path fill="none" stroke="#63b8ff" d="M485.5,-132.69C485.5,-124.08 485.5,-114.9 485.5,-107.07"/>
<polygon fill="#63b8ff" stroke="#63b8ff" points="482,-132.79 485.5,-142.79 489,-132.79 482,-132.79"/>
</a>
</g>
</g>
<!-- Node7&#45;&gt;Node6 -->
<g id="edge7_Node000007_Node000006" class="edge">
<title>Node7&#45;&gt;Node6</title>
<g id="a_edge7_Node000007_Node000006"><a xlink:title=" ">
<path fill="none" stroke="#63b8ff" d="M439.51,-61.28C419.73,-50.87 397.3,-39.06 380.3,-30.11"/>
<polygon fill="#63b8ff" stroke="#63b8ff" points="437.9,-64.39 448.38,-65.96 441.16,-58.2 437.9,-64.39"/>
</a>
</g>
</g>
<!-- Node8&#45;&gt;Node6 -->
<g id="edge9_Node000008_Node000006" class="edge">
<title>Node8&#45;&gt;Node6</title>
<g id="a_edge9_Node000008_Node000006"><a xlink:title=" ">
<path fill="none" stroke="#63b8ff" d="M281.15,-289.2C287.99,-280.7 294.78,-270.93 299.5,-261 338.29,-179.37 349.68,-69.11 352.6,-30.26"/>
<polygon fill="#63b8ff" stroke="#63b8ff" points="278.41,-287.02 274.64,-296.93 283.76,-291.53 278.41,-287.02"/>
</a>
</g>
</g>
<!-- Node9 -->
<g id="Node000009" class="node">
<title>Node9</title>
<g id="a_Node000009"><a xlink:href="_async_server_socket_8hpp.html" target="_top" xlink:title=" ">
<polygon fill="white" stroke="#666666" points="290.5,-255.5 124.5,-255.5 124.5,-225.5 290.5,-225.5 290.5,-255.5"/>
<text text-anchor="start" x="132.5" y="-243.5" font-family="Helvetica,sans-Serif" font-size="10.00">include/Hermes/Socket</text>
<text text-anchor="middle" x="207.5" y="-232.5" font-family="Helvetica,sans-Serif" font-size="10.00">/Async/AsyncServerSocket.hpp</text>
</a>
</g>
</g>
<!-- Node8&#45;&gt;Node9 -->
<g id="edge10_Node000008_Node000009" class="edge">
<title>Node8&#45;&gt;Node9</title>
<g id="a_edge10_Node000008_Node000009"><a xlink:title=" ">
<path fill="none" stroke="#63b8ff" d="M237.43,-288.26C230.36,-277.21 222.56,-265.02 216.69,-255.86"/>
<polygon fill="#63b8ff" stroke="#63b8ff" points="234.55,-290.26 242.89,-296.79 240.45,-286.49 234.55,-290.26"/>
</a>
</g>
</g>
<!-- Node10 -->
<g id="Node000010" class="node">
<title>Node10</title>
<g id="a_Node000010"><a xlink:href="_async_listener_socket_8hpp.html" target="_top" xlink:title=" ">
<polygon fill="white" stroke="#666666" points="294,-178.5 121,-178.5 121,-148.5 294,-148.5 294,-178.5"/>
<text text-anchor="start" x="129" y="-166.5" font-family="Helvetica,sans-Serif" font-size="10.00">include/Hermes/Socket</text>
<text text-anchor="middle" x="207.5" y="-155.5" font-family="Helvetica,sans-Serif" font-size="10.00">/Async/AsyncListenerSocket.hpp</text>
</a>
</g>
</g>
<!-- Node9&#45;&gt;Node10 -->
<g id="edge11_Node000009_Node000010" class="edge">
<title>Node9&#45;&gt;Node10</title>
<g id="a_edge11_Node000009_Node000010"><a xlink:title=" ">
<path fill="none" stroke="#63b8ff" d="M207.5,-215.04C207.5,-202.95 207.5,-188.79 207.5,-178.54"/>
<polygon fill="#63b8ff" stroke="#63b8ff" points="204,-215.39 207.5,-225.39 211,-215.39 204,-215.39"/>
</a>
</g>
</g>
<!-- Node12 -->
<g id="Node000012" class="node">
<title>Node12</title>
<g id="a_Node000012"><a xlink:href="_server_socket_8hpp.html" target="_top" xlink:title=" ">
<polygon fill="white" stroke="#666666" points="1156,-178.5 1025,-178.5 1025,-148.5 1156,-148.5 1156,-178.5"/>
<text text-anchor="start" x="1033" y="-166.5" font-family="Helvetica,sans-Serif" font-size="10.00">include/Hermes/Socket</text>
<text text-anchor="middle" x="1090.5" y="-155.5" font-family="Helvetica,sans-Serif" font-size="10.00">/Sync/ServerSocket.hpp</text>
</a>
</g>
</g>
<!-- Node11&#45;&gt;Node12 -->
<g id="edge13_Node000011_Node000012" class="edge">
<title>Node11&#45;&gt;Node12</title>
<g id="a_edge13_Node000011_Node000012"><a xlink:title=" ">
<path fill="none" stroke="#63b8ff" d="M1174.51,-291.54C1160.96,-283.19 1147.15,-272.92 1136.5,-261 1114.37,-236.22 1100.7,-198.92 1094.48,-178.71"/>
<polygon fill="#63b8ff" stroke="#63b8ff" points="1172.95,-294.69 1183.34,-296.75 1176.5,-288.66 1172.95,-294.69"/>
</a>
</g>
</g>
<!-- Node11&#45;&gt;Node14 -->
<g id="edge15_Node000011_Node000014" class="edge">
<title>Node11&#45;&gt;Node14</title>
<g id="a_edge15_Node000011_Node000014"><a xlink:title=" ">
<path fill="none" stroke="#63b8ff" d="M1225.5,-286.69C1225.5,-278.08 1225.5,-268.9 1225.5,-261.07"/>
<polygon fill="#63b8ff" stroke="#63b8ff" points="1222,-286.79 1225.5,-296.79 1229,-286.79 1222,-286.79"/>
</a>
</g>
</g>
<!-- Node13 -->
<g id="Node000013" class="node">
<title>Node13</title>
<g id="a_Node000013"><a xlink:href="_listener_socket_8hpp.html" target="_top" xlink:title=" ">
<polygon fill="white" stroke="#666666" points="1159.5,-101.5 1021.5,-101.5 1021.5,-71.5 1159.5,-71.5 1159.5,-101.5"/>
<text text-anchor="start" x="1029.5" y="-89.5" font-family="Helvetica,sans-Serif" font-size="10.00">include/Hermes/Socket</text>
<text text-anchor="middle" x="1090.5" y="-78.5" font-family="Helvetica,sans-Serif" font-size="10.00">/Sync/ListenerSocket.hpp</text>
</a>
</g>
</g>
<!-- Node12&#45;&gt;Node13 -->
<g id="edge14_Node000012_Node000013" class="edge">
<title>Node12&#45;&gt;Node13</title>
<g id="a_edge14_Node000012_Node000013"><a xlink:title=" ">
<path fill="none" stroke="#63b8ff" d="M1090.5,-138.04C1090.5,-125.95 1090.5,-111.79 1090.5,-101.54"/>
<polygon fill="#63b8ff" stroke="#63b8ff" points="1087,-138.39 1090.5,-148.39 1094,-138.39 1087,-138.39"/>
</a>
</g>
</g>
<!-- Node14&#45;&gt;Node12 -->
<g id="edge16_Node000014_Node000012" class="edge">
<title>Node14&#45;&gt;Node12</title>
<g id="a_edge16_Node000014_Node000012"><a xlink:title=" ">
<path fill="none" stroke="#63b8ff" d="M1181.37,-214.98C1159.74,-202.97 1134.46,-188.92 1116.06,-178.7"/>
<polygon fill="#63b8ff" stroke="#63b8ff" points="1179.94,-218.19 1190.38,-219.99 1183.34,-212.07 1179.94,-218.19"/>
</a>
</g>
</g>
<!-- Node16 -->
<g id="Node000016" class="node">
<title>Node16</title>
<g id="a_Node000016"><a xlink:href="_client_socket_8hpp.html" target="_top" xlink:title=" ">
<polygon fill="white" stroke="#666666" points="812.5,-178.5 684.5,-178.5 684.5,-148.5 812.5,-148.5 812.5,-178.5"/>
<text text-anchor="start" x="692.5" y="-166.5" font-family="Helvetica,sans-Serif" font-size="10.00">include/Hermes/Socket</text>
<text text-anchor="middle" x="748.5" y="-155.5" font-family="Helvetica,sans-Serif" font-size="10.00">/Sync/ClientSocket.hpp</text>
</a>
</g>
</g>
<!-- Node15&#45;&gt;Node16 -->
<g id="edge18_Node000015_Node000016" class="edge">
<title>Node15&#45;&gt;Node16</title>
<g id="a_edge18_Node000015_Node000016"><a xlink:title=" ">
<path fill="none" stroke="#63b8ff" d="M546.88,-286.73C548.73,-265.56 554.56,-237.81 571.5,-220 600.68,-189.31 646.59,-175.51 684.33,-169.34"/>
<polygon fill="#63b8ff" stroke="#63b8ff" points="543.38,-286.63 546.26,-296.82 550.37,-287.06 543.38,-286.63"/>
</a>
</g>
</g>
<!-- Node15&#45;&gt;Node17 -->
<g id="edge19_Node000015_Node000017" class="edge">
<title>Node15&#45;&gt;Node17</title>
<g id="a_edge19_Node000015_Node000017"><a xlink:title=" ">
<path fill="none" stroke="#63b8ff" d="M580.75,-290.82C593.68,-281.11 608.18,-270.24 620.27,-261.17"/>
<polygon fill="#63b8ff" stroke="#63b8ff" points="578.41,-288.19 572.51,-296.99 582.61,-293.79 578.41,-288.19"/>
</a>
</g>
</g>
<!-- Node17&#45;&gt;Node5 -->
<g id="edge20_Node000017_Node000005" class="edge">
<title>Node17&#45;&gt;Node5</title>
<g id="a_edge20_Node000017_Node000005"><a xlink:title=" ">
<path fill="none" stroke="#63b8ff" d="M595.46,-215.72C573.54,-205.51 548.25,-193.73 527.45,-184.04"/>
<polygon fill="#63b8ff" stroke="#63b8ff" points="594.08,-218.94 604.62,-219.99 597.03,-212.6 594.08,-218.94"/>
</a>
</g>
</g>
<!-- Node17&#45;&gt;Node7 -->
<g id="edge21_Node000017_Node000007" class="edge">
<title>Node17&#45;&gt;Node7</title>
<g id="a_edge21_Node000017_Node000007"><a xlink:title=" ">
<path fill="none" stroke="#63b8ff" d="M631.5,-210.92C619.65,-190.27 601.62,-162.67 580.5,-143 565.12,-128.68 545.42,-116.42 527.95,-107.09"/>
<polygon fill="#63b8ff" stroke="#63b8ff" points="628.56,-212.84 636.49,-219.86 634.67,-209.42 628.56,-212.84"/>
</a>
</g>
</g>
<!-- Node17&#45;&gt;Node16 -->
<g id="edge22_Node000017_Node000016" class="edge">
<title>Node17&#45;&gt;Node16</title>
<g id="a_edge22_Node000017_Node000016"><a xlink:title=" ">
<path fill="none" stroke="#63b8ff" d="M681.16,-214.01C697.21,-202.22 715.66,-188.65 729.19,-178.7"/>
<polygon fill="#63b8ff" stroke="#63b8ff" points="679.02,-211.25 673.03,-219.99 683.16,-216.89 679.02,-211.25"/>
</a>
</g>
</g>
<!-- Node18&#45;&gt;Node12 -->
<g id="edge25_Node000018_Node000012" class="edge">
<title>Node18&#45;&gt;Node12</title>
<g id="a_edge25_Node000018_Node000012"><a xlink:title=" ">
<path fill="none" stroke="#63b8ff" d="M865.72,-291.98C922.44,-259.82 1020.1,-204.43 1065.7,-178.57"/>
<polygon fill="#63b8ff" stroke="#63b8ff" points="863.96,-288.96 856.99,-296.94 867.41,-295.05 863.96,-288.96"/>
</a>
</g>
</g>
<!-- Node18&#45;&gt;Node16 -->
<g id="edge24_Node000018_Node000016" class="edge">
<title>Node18&#45;&gt;Node16</title>
<g id="a_edge24_Node000018_Node000016"><a xlink:title=" ">
<path fill="none" stroke="#63b8ff" d="M808.58,-287.9C792.71,-255.31 767.42,-203.37 755.35,-178.57"/>
<polygon fill="#63b8ff" stroke="#63b8ff" points="805.45,-289.48 812.98,-296.94 811.75,-286.42 805.45,-289.48"/>
</a>
</g>
</g>
<!-- Node19&#45;&gt;Node7 -->
<g id="edge27_Node000019_Node000007" class="edge">
<title>Node19&#45;&gt;Node7</title>
<g id="a_edge27_Node000019_Node000007"><a xlink:title=" ">
<path fill="none" stroke="#63b8ff" d="M964.37,-364.05C948.1,-313.91 903.19,-198 821.5,-143 780.12,-115.14 647.3,-99.89 561.56,-92.74"/>
<polygon fill="#63b8ff" stroke="#63b8ff" points="961.07,-365.22 967.41,-373.7 967.75,-363.12 961.07,-365.22"/>
</a>
</g>
</g>
<!-- Node19&#45;&gt;Node14 -->
<g id="edge31_Node000019_Node000014" class="edge">
<title>Node19&#45;&gt;Node14</title>
<g id="a_edge31_Node000019_Node000014"><a xlink:title=" ">
<path fill="none" stroke="#63b8ff" d="M966.47,-363.68C963.79,-343.41 963.75,-315.02 979.5,-297 1001.07,-272.32 1081.58,-257.52 1144.7,-249.49"/>
<polygon fill="#63b8ff" stroke="#63b8ff" points="963.05,-364.41 968.1,-373.72 969.96,-363.29 963.05,-364.41"/>
</a>
</g>
</g>
<!-- Node19&#45;&gt;Node17 -->
<g id="edge32_Node000019_Node000017" class="edge">
<title>Node19&#45;&gt;Node17</title>
<g id="a_edge32_Node000019_Node000017"><a xlink:title=" ">
<path fill="none" stroke="#63b8ff" d="M892.86,-375.84C836.92,-366.26 767.29,-352.21 741.5,-338 732.29,-332.92 689.51,-287.77 664.61,-261.06"/>
<polygon fill="#63b8ff" stroke="#63b8ff" points="892.33,-379.3 902.78,-377.51 893.5,-372.39 892.33,-379.3"/>
</a>
</g>
</g>
<!-- Node19&#45;&gt;Node20 -->
<g id="edge28_Node000019_Node000020" class="edge">
<title>Node19&#45;&gt;Node20</title>
<g id="a_edge28_Node000019_Node000020"><a xlink:title=" ">
<path fill="none" stroke="#63b8ff" d="M892.76,-380.29C868.62,-378.08 841.98,-375.78 817.5,-374 525.39,-352.74 449.46,-379.27 159.5,-338 156.83,-337.62 154.12,-337.2 151.39,-336.74"/>
<polygon fill="#63b8ff" stroke="#63b8ff" points="892.65,-383.8 902.93,-381.23 893.3,-376.83 892.65,-383.8"/>
</a>
</g>
</g>
<!-- Node19&#45;&gt;Node21 -->
<g id="edge33_Node000019_Node000021" class="edge">
<title>Node19&#45;&gt;Node21</title>
<g id="a_edge33_Node000019_Node000021"><a xlink:title=" ">
<path fill="none" stroke="#63b8ff" d="M995.7,-367.23C1006.47,-357.99 1019.09,-347.17 1029.69,-338.07"/>
<polygon fill="#63b8ff" stroke="#63b8ff" points="993.2,-364.77 987.89,-373.94 997.76,-370.08 993.2,-364.77"/>
</a>
</g>
</g>
<!-- Node20&#45;&gt;Node6 -->
<g id="edge29_Node000020_Node000006" class="edge">
<title>Node20&#45;&gt;Node6</title>
<g id="a_edge29_Node000020_Node000006"><a xlink:title=" ">
<path fill="none" stroke="#63b8ff" d="M74.29,-286.67C74.31,-249.4 79.56,-185.37 111.5,-143 157.7,-81.72 242.13,-47.18 298.04,-30.05"/>
<polygon fill="#63b8ff" stroke="#63b8ff" points="70.8,-286.93 74.42,-296.88 77.8,-286.84 70.8,-286.93"/>
</a>
</g>
</g>
<!-- Node20&#45;&gt;Node9 -->
<g id="edge30_Node000020_Node000009" class="edge">
<title>Node20&#45;&gt;Node9</title>
<g id="a_edge30_Node000020_Node000009"><a xlink:title=" ">
<path fill="none" stroke="#63b8ff" d="M118.65,-291.98C139.8,-279.97 164.52,-265.92 182.51,-255.7"/>
<polygon fill="#63b8ff" stroke="#63b8ff" points="116.8,-289.01 109.84,-296.99 120.26,-295.09 116.8,-289.01"/>
</a>
</g>
</g>
<!-- Node21&#45;&gt;Node12 -->
<g id="edge35_Node000021_Node000012" class="edge">
<title>Node21&#45;&gt;Node12</title>
<g id="a_edge35_Node000021_Node000012"><a xlink:title=" ">
<path fill="none" stroke="#63b8ff" d="M1059.86,-287.06C1068.02,-254.42 1080.84,-203.15 1086.98,-178.57"/>
<polygon fill="#63b8ff" stroke="#63b8ff" points="1056.42,-286.39 1057.39,-296.94 1063.21,-288.09 1056.42,-286.39"/>
</a>
</g>
</g>
<!-- Node21&#45;&gt;Node16 -->
<g id="edge34_Node000021_Node000016" class="edge">
<title>Node21&#45;&gt;Node16</title>
<g id="a_edge34_Node000021_Node000016"><a xlink:title=" ">
<path fill="none" stroke="#63b8ff" d="M1004.26,-292.38C940.05,-260.28 828.57,-204.54 776.64,-178.57"/>
<polygon fill="#63b8ff" stroke="#63b8ff" points="1002.87,-295.6 1013.38,-296.94 1006,-289.34 1002.87,-295.6"/>
</a>
</g>
</g>
<!-- Node22&#45;&gt;Node4 -->
<g id="edge41_Node000022_Node000004" class="edge">
<title>Node22&#45;&gt;Node4</title>
<g id="a_edge41_Node000022_Node000004"><a xlink:title=" ">
<path fill="none" stroke="#63b8ff" d="M619.4,-436.05C643.64,-425.91 673.5,-413.43 696,-404.01"/>
<polygon fill="#63b8ff" stroke="#63b8ff" points="617.95,-432.87 610.08,-439.95 620.65,-439.32 617.95,-432.87"/>
</a>
</g>
</g>
<!-- Node22&#45;&gt;Node5 -->
<g id="edge37_Node000022_Node000005" class="edge">
<title>Node22&#45;&gt;Node5</title>
<g id="a_edge37_Node000022_Node000005"><a xlink:title=" ">
<path fill="none" stroke="#63b8ff" d="M508.92,-436.1C491.71,-428.66 474.67,-418.31 462.5,-404 409.29,-341.44 420.27,-298.15 445.5,-220 449.77,-206.78 458.49,-194.05 466.7,-184.12"/>
<polygon fill="#63b8ff" stroke="#63b8ff" points="507.88,-439.46 518.47,-439.94 510.49,-432.96 507.88,-439.46"/>
</a>
</g>
</g>
<!-- Node22&#45;&gt;Node7 -->
<g id="edge38_Node000022_Node000007" class="edge">
<title>Node22&#45;&gt;Node7</title>
<g id="a_edge38_Node000022_Node000007"><a xlink:title=" ">
<path fill="none" stroke="#63b8ff" d="M502.72,-437.48C443.61,-419.37 370.5,-383.79 370.5,-318.5 370.5,-318.5 370.5,-318.5 370.5,-239.5 370.5,-195.79 364.08,-178.56 389.5,-143 400.58,-127.49 417.45,-115.68 433.97,-107.02"/>
<polygon fill="#63b8ff" stroke="#63b8ff" points="501.87,-440.88 512.45,-440.34 503.84,-434.16 501.87,-440.88"/>
</a>
</g>
</g>
<!-- Node22&#45;&gt;Node8 -->
<g id="edge39_Node000022_Node000008" class="edge">
<title>Node22&#45;&gt;Node8</title>
<g id="a_edge39_Node000022_Node000008"><a xlink:title=" ">
<path fill="none" stroke="#63b8ff" d="M502.07,-446.09C457.98,-439.26 402.02,-426.72 356.5,-404 323.41,-387.48 291.99,-357.92 273.23,-338.26"/>
<polygon fill="#63b8ff" stroke="#63b8ff" points="501.74,-449.58 512.14,-447.59 502.77,-442.66 501.74,-449.58"/>
</a>
</g>
</g>
<!-- Node22&#45;&gt;Node11 -->
<g id="edge43_Node000022_Node000011" class="edge">
<title>Node22&#45;&gt;Node11</title>
<g id="a_edge43_Node000022_Node000011"><a xlink:title=" ">
<path fill="none" stroke="#63b8ff" d="M650.64,-439.97C836.61,-415.86 892.66,-456.89 1068.5,-404 1117.24,-389.34 1167.97,-358.37 1198.13,-338.01"/>
<polygon fill="#63b8ff" stroke="#63b8ff" points="649.98,-436.53 640.53,-441.33 650.91,-443.47 649.98,-436.53"/>
</a>
</g>
</g>
<!-- Node22&#45;&gt;Node14 -->
<g id="edge44_Node000022_Node000014" class="edge">
<title>Node22&#45;&gt;Node14</title>
<g id="a_edge44_Node000022_Node000014"><a xlink:title=" ">
<path fill="none" stroke="#63b8ff" d="M650.69,-440.05C817.79,-421.41 1237.45,-457.96 1325.5,-338 1336.28,-323.31 1334.74,-312.7 1325.5,-297 1316.18,-281.17 1300.54,-269.54 1284.37,-261.13"/>
<polygon fill="#63b8ff" stroke="#63b8ff" points="650.03,-436.61 640.53,-441.3 650.88,-443.56 650.03,-436.61"/>
</a>
</g>
</g>
<!-- Node22&#45;&gt;Node15 -->
<g id="edge45_Node000022_Node000015" class="edge">
<title>Node22&#45;&gt;Node15</title>
<g id="a_edge45_Node000022_Node000015"><a xlink:title=" ">
<path fill="none" stroke="#63b8ff" d="M508.76,-435.74C493.66,-428.38 479.48,-418.16 470.5,-404 454.76,-379.18 482.62,-354.48 508.93,-338.06"/>
<polygon fill="#63b8ff" stroke="#63b8ff" points="507.69,-439.09 518.25,-439.96 510.53,-432.7 507.69,-439.09"/>
</a>
</g>
</g>
<!-- Node22&#45;&gt;Node17 -->
<g id="edge46_Node000022_Node000017" class="edge">
<title>Node22&#45;&gt;Node17</title>
<g id="a_edge46_Node000022_Node000017"><a xlink:title=" ">
<path fill="none" stroke="#63b8ff" d="M538.89,-434.77C513.33,-419.11 486.94,-396.06 503.5,-374 537.96,-328.11 588.75,-380.33 627.5,-338 646.64,-317.09 648.95,-282.72 648.2,-261.14"/>
<polygon fill="#63b8ff" stroke="#63b8ff" points="537.42,-437.96 547.82,-439.98 540.95,-431.92 537.42,-437.96"/>
</a>
</g>
</g>
<!-- Node22&#45;&gt;Node18 -->
<g id="edge47_Node000022_Node000018" class="edge">
<title>Node22&#45;&gt;Node18</title>
<g id="a_edge47_Node000022_Node000018"><a xlink:title=" ">
<path fill="none" stroke="#63b8ff" d="M650.79,-439.7C720.56,-426.1 814.7,-407.25 817.5,-404 832.95,-386.11 831.14,-357.46 827.55,-338.32"/>
<polygon fill="#63b8ff" stroke="#63b8ff" points="649.83,-436.32 640.69,-441.66 651.17,-443.19 649.83,-436.32"/>
</a>
</g>
</g>
<!-- Node22&#45;&gt;Node19 -->
<g id="edge42_Node000022_Node000019" class="edge">
<title>Node22&#45;&gt;Node19</title>
<g id="a_edge42_Node000022_Node000019"><a xlink:title=" ">
<path fill="none" stroke="#63b8ff" d="M650.44,-439.88C757.03,-421.81 785.53,-420.44 888.5,-404 893.12,-403.26 897.88,-402.49 902.67,-401.71"/>
<polygon fill="#63b8ff" stroke="#63b8ff" points="649.84,-436.43 640.57,-441.56 651.01,-443.33 649.84,-436.43"/>
</a>
</g>
</g>
<!-- Node22&#45;&gt;Node20 -->
<g id="edge40_Node000022_Node000020" class="edge">
<title>Node22&#45;&gt;Node20</title>
<g id="a_edge40_Node000022_Node000020"><a xlink:title=" ">
<path fill="none" stroke="#63b8ff" d="M502.28,-443.38C448.52,-434.88 374.36,-421.49 310.5,-404 243.92,-385.76 169.39,-357.2 122.47,-338.17"/>
<polygon fill="#63b8ff" stroke="#63b8ff" points="502,-446.88 512.42,-444.96 503.08,-439.96 502,-446.88"/>
</a>
</g>
</g>
<!-- Node22&#45;&gt;Node21 -->
<g id="edge48_Node000022_Node000021" class="edge">
<title>Node22&#45;&gt;Node21</title>
<g id="a_edge48_Node000022_Node000021"><a xlink:title=" ">
<path fill="none" stroke="#63b8ff" d="M650.66,-440.27C725.95,-433.97 1020.38,-434.76 1049.5,-404 1065.84,-386.74 1062.93,-357.66 1058.44,-338.27"/>
<polygon fill="#63b8ff" stroke="#63b8ff" points="650.11,-436.81 640.53,-441.35 650.85,-443.77 650.11,-436.81"/>
</a>
</g>
</g>
<!-- Node23 -->
<g id="Node000023" class="node">
<title>Node23</title>
<g id="a_Node000023"><a xlink:href="_to_bytes_8hpp.html" target="_top" xlink:title=" ">
<polygon fill="white" stroke="#666666" points="632,-404 513,-404 513,-374 632,-374 632,-404"/>
<text text-anchor="start" x="521" y="-392" font-family="Helvetica,sans-Serif" font-size="10.00">include/Hermes/Utils</text>
<text text-anchor="middle" x="572.5" y="-381" font-family="Helvetica,sans-Serif" font-size="10.00">/ToBytes.hpp</text>
</a>
</g>
</g>
<!-- Node22&#45;&gt;Node23 -->
<g id="edge49_Node000022_Node000023" class="edge">
<title>Node22&#45;&gt;Node23</title>
<g id="a_edge49_Node000022_Node000023"><a xlink:title=" ">
<path fill="none" stroke="#63b8ff" d="M574.97,-429.54C574.44,-420.96 573.85,-411.61 573.39,-404.16"/>
<polygon fill="#63b8ff" stroke="#63b8ff" points="571.5,-430.03 575.61,-439.8 578.48,-429.6 571.5,-430.03"/>
</a>
</g>
</g>
</g>
</svg>
