<?xml version="1.0" encoding="UTF-8" standalone="no"?>
<!DOCTYPE svg PUBLIC "-//W3C//DTD SVG 1.1//EN"
 "http://www.w3.org/Graphics/SVG/1.1/DTD/svg11.dtd">
<!-- Generated by graphviz version 2.43.0 (0)
 -->
<!-- Title: include/Hermes/_base/ConnectionErrorEnum.hpp Pages: 1 -->
<svg width="676pt" height="104pt"
 viewBox="0.00 0.00 675.50 104.00" xmlns="http://www.w3.org/2000/svg" xmlns:xlink="http://www.w3.org/1999/xlink">
<g id="graph0" class="graph" transform="scale(1 1) rotate(0) translate(4 100)">
<title>include/Hermes/_base/ConnectionErrorEnum.hpp</title>
<!-- Node1 -->
<g id="Node000001" class="node">
<title>Node1</title>
<g id="a_Node000001"><a xlink:title=" ">
<polygon fill="#999999" stroke="#666666" points="289,-96 143,-96 143,-66 289,-66 289,-96"/>
<text text-anchor="start" x="151" y="-84" font-family="Helvetica,sans-Serif" font-size="10.00">include/Hermes/_base</text>
<text text-anchor="middle" x="216" y="-73" font-family="Helvetica,sans-Serif" font-size="10.00">/ConnectionErrorEnum.hpp</text>
</a>
</g>
</g>
<!-- Node2 -->
<g id="Node000002" class="node">
<title>Node2</title>
<g id="a_Node000002"><a xlink:title=" ">
<polygon fill="#e0e0e0" stroke="#999999" points="62,-24.5 0,-24.5 0,-5.5 62,-5.5 62,-24.5"/>
<text text-anchor="middle" x="31" y="-12.5" font-family="Helvetica,sans-Serif" font-size="10.00">expected</text>
</a>
</g>
</g>
<!-- Node1&#45;&gt;Node2 -->
<g id="edge1_Node000001_Node000002" class="edge">
<title>Node1&#45;&gt;Node2</title>
<g id="a_edge1_Node000001_Node000002"><a xlink:title=" ">
<path fill="none" stroke="#63b8ff" d="M175.04,-65.93C145.99,-55.94 106.09,-42.19 71,-30 69.12,-29.35 67.2,-28.68 65.25,-28"/>
<polygon fill="#63b8ff" stroke="#63b8ff" points="66.13,-24.6 55.53,-24.61 63.82,-31.21 66.13,-24.6"/>
</a>
</g>
</g>
<!-- Node3 -->
<g id="Node000003" class="node">
<title>Node3</title>
<g id="a_Node000003"><a xlink:title=" ">
<polygon fill="#e0e0e0" stroke="#999999" points="127.5,-24.5 80.5,-24.5 80.5,-5.5 127.5,-5.5 127.5,-24.5"/>
<text text-anchor="middle" x="104" y="-12.5" font-family="Helvetica,sans-Serif" font-size="10.00">vector</text>
</a>
</g>
</g>
<!-- Node1&#45;&gt;Node3 -->
<g id="edge2_Node000001_Node000003" class="edge">
<title>Node1&#45;&gt;Node3</title>
<g id="a_edge2_Node000001_Node000003"><a xlink:title=" ">
<path fill="none" stroke="#63b8ff" d="M191.42,-65.95C172.47,-55.13 146.42,-40.24 127.7,-29.54"/>
<polygon fill="#63b8ff" stroke="#63b8ff" points="129.32,-26.44 118.91,-24.52 125.85,-32.52 129.32,-26.44"/>
</a>
</g>
</g>
<!-- Node4 -->
<g id="Node000004" class="node">
<title>Node4</title>
<g id="a_Node000004"><a xlink:title=" ">
<polygon fill="#e0e0e0" stroke="#999999" points="186,-24.5 146,-24.5 146,-5.5 186,-5.5 186,-24.5"/>
<text text-anchor="middle" x="166" y="-12.5" font-family="Helvetica,sans-Serif" font-size="10.00">span</text>
</a>
</g>
</g>
<!-- Node1&#45;&gt;Node4 -->
<g id="edge3_Node000001_Node000004" class="edge">
<title>Node1&#45;&gt;Node4</title>
<g id="a_edge3_Node000001_Node000004"><a xlink:title=" ">
<path fill="none" stroke="#63b8ff" d="M204.9,-65.8C197.34,-56.11 187.28,-43.24 179.29,-33.01"/>
<polygon fill="#63b8ff" stroke="#63b8ff" points="181.82,-30.57 172.91,-24.84 176.31,-34.88 181.82,-30.57"/>
</a>
</g>
</g>
<!-- Node5 -->
<g id="Node000005" class="node">
<title>Node5</title>
<g id="a_Node000005"><a xlink:title=" ">
<polygon fill="#e0e0e0" stroke="#999999" points="329.5,-24.5 204.5,-24.5 204.5,-5.5 329.5,-5.5 329.5,-24.5"/>
<text text-anchor="middle" x="267" y="-12.5" font-family="Helvetica,sans-Serif" font-size="10.00">stdexec/execution.hpp</text>
</a>
</g>
</g>
<!-- Node1&#45;&gt;Node5 -->
<g id="edge4_Node000001_Node000005" class="edge">
<title>Node1&#45;&gt;Node5</title>
<g id="a_edge4_Node000001_Node000005"><a xlink:title=" ">
<path fill="none" stroke="#63b8ff" d="M227.32,-65.8C235.11,-56.01 245.5,-42.98 253.69,-32.7"/>
<polygon fill="#63b8ff" stroke="#63b8ff" points="256.46,-34.85 259.95,-24.84 250.98,-30.48 256.46,-34.85"/>
</a>
</g>
</g>
<!-- Node6 -->
<g id="Node000006" class="node">
<title>Node6</title>
<g id="a_Node000006"><a xlink:title=" ">
<polygon fill="#e0e0e0" stroke="#999999" points="482,-24.5 348,-24.5 348,-5.5 482,-5.5 482,-24.5"/>
<text text-anchor="middle" x="415" y="-12.5" font-family="Helvetica,sans-Serif" font-size="10.00">exec/any_sender_of.hpp</text>
</a>
</g>
</g>
<!-- Node1&#45;&gt;Node6 -->
<g id="edge5_Node000001_Node000006" class="edge">
<title>Node1&#45;&gt;Node6</title>
<g id="a_edge5_Node000001_Node000006"><a xlink:title=" ">
<path fill="none" stroke="#63b8ff" d="M259.67,-65.95C295.34,-54.48 345.16,-38.46 378.67,-27.68"/>
<polygon fill="#63b8ff" stroke="#63b8ff" points="380.07,-30.91 388.52,-24.52 377.93,-24.25 380.07,-30.91"/>
</a>
</g>
</g>
<!-- Node7 -->
<g id="Node000007" class="node">
<title>Node7</title>
<g id="a_Node000007"><a xlink:title=" ">
<polygon fill="#e0e0e0" stroke="#999999" points="667.5,-30 500.5,-30 500.5,0 667.5,0 667.5,-30"/>
<text text-anchor="start" x="508.5" y="-18" font-family="Helvetica,sans-Serif" font-size="10.00">Hermes/_base/ConnectionError</text>
<text text-anchor="middle" x="584" y="-7" font-family="Helvetica,sans-Serif" font-size="10.00">Enum.tpp</text>
</a>
</g>
</g>
<!-- Node1&#45;&gt;Node7 -->
<g id="edge6_Node000001_Node000007" class="edge">
<title>Node1&#45;&gt;Node7</title>
<g id="a_edge6_Node000001_Node000007"><a xlink:title=" ">
<path fill="none" stroke="#63b8ff" d="M289.14,-67.28C347.84,-57.07 430.53,-42.69 493.41,-31.76"/>
<polygon fill="#63b8ff" stroke="#63b8ff" points="494.07,-35.19 503.32,-30.03 492.87,-28.3 494.07,-35.19"/>
</a>
</g>
</g>
</g>
</svg>
