<?xml version="1.0" encoding="UTF-8" standalone="no"?>
<!DOCTYPE svg PUBLIC "-//W3C//DTD SVG 1.1//EN"
 "http://www.w3.org/Graphics/SVG/1.1/DTD/svg11.dtd">
<!-- Generated by graphviz version 2.43.0 (0)
 -->
<!-- Title: include/Hermes/_base/ConnectionErrorEnum.hpp Pages: 1 -->
<svg width="958pt" height="522pt"
 viewBox="0.00 0.00 958.00 522.00" xmlns="http://www.w3.org/2000/svg" xmlns:xlink="http://www.w3.org/1999/xlink">
<g id="graph0" class="graph" transform="scale(1 1) rotate(0) translate(4 518)">
<title>include/Hermes/_base/ConnectionErrorEnum.hpp</title>
<!-- Node1 -->
<g id="Node000001" class="node">
<title>Node1</title>
<g id="a_Node000001"><a xlink:title=" ">
<polygon fill="#999999" stroke="#666666" points="577,-514 431,-514 431,-484 577,-484 577,-514"/>
<text text-anchor="start" x="439" y="-502" font-family="Helvetica,sans-Serif" font-size="10.00">include/Hermes/_base</text>
<text text-anchor="middle" x="504" y="-491" font-family="Helvetica,sans-Serif" font-size="10.00">/ConnectionErrorEnum.hpp</text>
</a>
</g>
</g>
<!-- Node2 -->
<g id="Node000002" class="node">
<title>Node2</title>
<g id="a_Node000002"><a xlink:href="_endpoint_concept_8hpp.html" target="_top" xlink:title=" ">
<polygon fill="white" stroke="#666666" points="634.5,-448 479.5,-448 479.5,-418 634.5,-418 634.5,-448"/>
<text text-anchor="start" x="487.5" y="-436" font-family="Helvetica,sans-Serif" font-size="10.00">include/Hermes/Endpoint</text>
<text text-anchor="middle" x="557" y="-425" font-family="Helvetica,sans-Serif" font-size="10.00">/_base/EndpointConcept.hpp</text>
</a>
</g>
</g>
<!-- Node1&#45;&gt;Node2 -->
<g id="edge1_Node000001_Node000002" class="edge">
<title>Node1&#45;&gt;Node2</title>
<g id="a_edge1_Node000001_Node000002"><a xlink:title=" ">
<path fill="none" stroke="#63b8ff" d="M522.15,-476.09C529.8,-466.85 538.48,-456.36 545.27,-448.16"/>
<polygon fill="#63b8ff" stroke="#63b8ff" points="519.44,-473.86 515.76,-483.8 524.84,-478.33 519.44,-473.86"/>
</a>
</g>
</g>
<!-- Node5 -->
<g id="Node000005" class="node">
<title>Node5</title>
<g id="a_Node000005"><a xlink:href="_default_accept_policy_8hpp.html" target="_top" xlink:title=" ">
<polygon fill="white" stroke="#666666" points="236,-250 80,-250 80,-209 236,-209 236,-250"/>
<text text-anchor="start" x="88" y="-238" font-family="Helvetica,sans-Serif" font-size="10.00">include/Hermes/Socket</text>
<text text-anchor="start" x="88" y="-227" font-family="Helvetica,sans-Serif" font-size="10.00">/_base/Accept/DefaultAccept</text>
<text text-anchor="middle" x="158" y="-216" font-family="Helvetica,sans-Serif" font-size="10.00">Policy.hpp</text>
</a>
</g>
</g>
<!-- Node1&#45;&gt;Node5 -->
<g id="edge32_Node000001_Node000005" class="edge">
<title>Node1&#45;&gt;Node5</title>
<g id="a_edge32_Node000001_Node000005"><a xlink:title=" ">
<path fill="none" stroke="#63b8ff" d="M420.81,-488.92C376.52,-481.84 322.04,-469.44 277,-448 204.32,-413.4 175.08,-393.4 153,-316 146.76,-294.12 149.76,-267.86 153.19,-250.26"/>
<polygon fill="#63b8ff" stroke="#63b8ff" points="420.55,-492.42 430.97,-490.48 421.61,-485.5 420.55,-492.42"/>
</a>
</g>
</g>
<!-- Node8 -->
<g id="Node000008" class="node">
<title>Node8</title>
<g id="a_Node000008"><a xlink:href="_tls_accept_policy_8hpp.html" target="_top" xlink:title=" ">
<polygon fill="white" stroke="#666666" points="249.5,-167.5 66.5,-167.5 66.5,-137.5 249.5,-137.5 249.5,-167.5"/>
<text text-anchor="start" x="74.5" y="-155.5" font-family="Helvetica,sans-Serif" font-size="10.00">include/Hermes/Socket</text>
<text text-anchor="middle" x="158" y="-144.5" font-family="Helvetica,sans-Serif" font-size="10.00">/_base/Accept/TlsAcceptPolicy.hpp</text>
</a>
</g>
</g>
<!-- Node1&#45;&gt;Node8 -->
<g id="edge33_Node000001_Node000008" class="edge">
<title>Node1&#45;&gt;Node8</title>
<g id="a_edge33_Node000001_Node000008"><a xlink:title=" ">
<path fill="none" stroke="#63b8ff" d="M420.92,-493.66C277.81,-483.89 0,-453.87 0,-368 0,-368 0,-368 0,-300 0,-233.6 75.96,-188.85 122.54,-167.65"/>
<polygon fill="#63b8ff" stroke="#63b8ff" points="420.77,-497.16 430.98,-494.33 421.24,-490.17 420.77,-497.16"/>
</a>
</g>
</g>
<!-- Node9 -->
<g id="Node000009" class="node">
<title>Node9</title>
<g id="a_Node000009"><a xlink:href="_default_connect_policy_8hpp.html" target="_top" xlink:title=" ">
<polygon fill="white" stroke="#666666" points="662.5,-250 477.5,-250 477.5,-209 662.5,-209 662.5,-250"/>
<text text-anchor="start" x="485.5" y="-238" font-family="Helvetica,sans-Serif" font-size="10.00">include/Hermes/Socket</text>
<text text-anchor="start" x="485.5" y="-227" font-family="Helvetica,sans-Serif" font-size="10.00">/_base/Connection/DefaultConnect</text>
<text text-anchor="middle" x="570" y="-216" font-family="Helvetica,sans-Serif" font-size="10.00">Policy.hpp</text>
</a>
</g>
</g>
<!-- Node1&#45;&gt;Node9 -->
<g id="edge34_Node000001_Node000009" class="edge">
<title>Node1&#45;&gt;Node9</title>
<g id="a_edge34_Node000001_Node000009"><a xlink:title=" ">
<path fill="none" stroke="#63b8ff" d="M575.16,-481.17C652.31,-458.51 770.61,-409.74 817,-316 822.91,-304.05 825.33,-296.41 817,-286 797.61,-261.76 724.42,-247.38 662.7,-239.35"/>
<polygon fill="#63b8ff" stroke="#63b8ff" points="574.15,-477.82 565.5,-483.93 576.08,-484.55 574.15,-477.82"/>
</a>
</g>
</g>
<!-- Node11 -->
<g id="Node000011" class="node">
<title>Node11</title>
<g id="a_Node000011"><a xlink:href="_tls_connect_policy_8hpp.html" target="_top" xlink:title=" ">
<polygon fill="white" stroke="#666666" points="766.5,-173 603.5,-173 603.5,-132 766.5,-132 766.5,-173"/>
<text text-anchor="start" x="611.5" y="-161" font-family="Helvetica,sans-Serif" font-size="10.00">include/Hermes/Socket</text>
<text text-anchor="start" x="611.5" y="-150" font-family="Helvetica,sans-Serif" font-size="10.00">/_base/Connection/TlsConnect</text>
<text text-anchor="middle" x="685" y="-139" font-family="Helvetica,sans-Serif" font-size="10.00">Policy.hpp</text>
</a>
</g>
</g>
<!-- Node1&#45;&gt;Node11 -->
<g id="edge35_Node000001_Node000011" class="edge">
<title>Node1&#45;&gt;Node11</title>
<g id="a_edge35_Node000001_Node000011"><a xlink:title=" ">
<path fill="none" stroke="#63b8ff" d="M587.4,-490.81C716.5,-477.36 950,-442.7 950,-368 950,-368 950,-368 950,-300 950,-256.67 947.57,-237.58 915,-209 892.88,-189.6 823.5,-174.53 766.68,-165.02"/>
<polygon fill="#63b8ff" stroke="#63b8ff" points="586.74,-487.36 577.15,-491.86 587.45,-494.33 586.74,-487.36"/>
</a>
</g>
</g>
<!-- Node12 -->
<g id="Node000012" class="node">
<title>Node12</title>
<g id="a_Node000012"><a xlink:href="_default_transfer_policy_8hpp.html" target="_top" xlink:title=" ">
<polygon fill="white" stroke="#666666" points="422,-250 254,-250 254,-209 422,-209 422,-250"/>
<text text-anchor="start" x="262" y="-238" font-family="Helvetica,sans-Serif" font-size="10.00">include/Hermes/Socket</text>
<text text-anchor="start" x="262" y="-227" font-family="Helvetica,sans-Serif" font-size="10.00">/_base/Transfer/DefaultTransfer</text>
<text text-anchor="middle" x="338" y="-216" font-family="Helvetica,sans-Serif" font-size="10.00">Policy.hpp</text>
</a>
</g>
</g>
<!-- Node1&#45;&gt;Node12 -->
<g id="edge36_Node000001_Node000012" class="edge">
<title>Node1&#45;&gt;Node12</title>
<g id="a_edge36_Node000001_Node000012"><a xlink:title=" ">
<path fill="none" stroke="#63b8ff" d="M430.57,-481.2C350.9,-458.62 227.65,-409.97 172,-316 165.21,-304.53 164.21,-296.82 172,-286 182.43,-271.51 218.26,-258.63 253.97,-248.94"/>
<polygon fill="#63b8ff" stroke="#63b8ff" points="429.98,-484.67 440.55,-483.96 431.84,-477.92 429.98,-484.67"/>
</a>
</g>
</g>
<!-- Node14 -->
<g id="Node000014" class="node">
<title>Node14</title>
<g id="a_Node000014"><a xlink:href="_tls_transfer_policy_8hpp.html" target="_top" xlink:title=" ">
<polygon fill="white" stroke="#666666" points="906,-250 760,-250 760,-209 906,-209 906,-250"/>
<text text-anchor="start" x="768" y="-238" font-family="Helvetica,sans-Serif" font-size="10.00">include/Hermes/Socket</text>
<text text-anchor="start" x="768" y="-227" font-family="Helvetica,sans-Serif" font-size="10.00">/_base/Transfer/TlsTransfer</text>
<text text-anchor="middle" x="833" y="-216" font-family="Helvetica,sans-Serif" font-size="10.00">Policy.hpp</text>
</a>
</g>
</g>
<!-- Node1&#45;&gt;Node14 -->
<g id="edge37_Node000001_Node000014" class="edge">
<title>Node1&#45;&gt;Node14</title>
<g id="a_edge37_Node000001_Node000014"><a xlink:title=" ">
<path fill="none" stroke="#63b8ff" d="M586.92,-485.37C624.5,-477.68 668.75,-465.8 706,-448 749.79,-427.07 759.56,-417.18 793,-382 817.46,-356.27 827.54,-349.93 838,-316 844.71,-294.26 841.61,-267.97 838.03,-250.33"/>
<polygon fill="#63b8ff" stroke="#63b8ff" points="586.15,-481.95 577.02,-487.33 587.51,-488.82 586.15,-481.95"/>
</a>
</g>
</g>
<!-- Node15 -->
<g id="Node000015" class="node">
<title>Node15</title>
<g id="a_Node000015"><a xlink:href="__base_8hpp.html" target="_top" xlink:title=" ">
<polygon fill="white" stroke="#666666" points="515,-382 387,-382 387,-352 515,-352 515,-382"/>
<text text-anchor="start" x="395" y="-370" font-family="Helvetica,sans-Serif" font-size="10.00">include/Hermes/Socket</text>
<text text-anchor="middle" x="451" y="-359" font-family="Helvetica,sans-Serif" font-size="10.00">/_base/_base.hpp</text>
</a>
</g>
</g>
<!-- Node1&#45;&gt;Node15 -->
<g id="edge38_Node000001_Node000015" class="edge">
<title>Node1&#45;&gt;Node15</title>
<g id="a_edge38_Node000001_Node000015"><a xlink:title=" ">
<path fill="none" stroke="#63b8ff" d="M486.81,-475.5C481.12,-467.21 475.18,-457.51 471,-448 461.32,-425.98 455.73,-398.41 453.03,-382.06"/>
<polygon fill="#63b8ff" stroke="#63b8ff" points="484.14,-477.78 492.8,-483.88 489.83,-473.71 484.14,-477.78"/>
</a>
</g>
</g>
<!-- Node3 -->
<g id="Node000003" class="node">
<title>Node3</title>
<g id="a_Node000003"><a xlink:href="_ip_endpoint_8hpp.html" target="_top" xlink:title=" ">
<polygon fill="white" stroke="#666666" points="680.5,-382 533.5,-382 533.5,-352 680.5,-352 680.5,-382"/>
<text text-anchor="start" x="541.5" y="-370" font-family="Helvetica,sans-Serif" font-size="10.00">include/Hermes/Endpoint</text>
<text text-anchor="middle" x="607" y="-359" font-family="Helvetica,sans-Serif" font-size="10.00">/IpEndpoint/IpEndpoint.hpp</text>
</a>
</g>
</g>
<!-- Node2&#45;&gt;Node3 -->
<g id="edge2_Node000002_Node000003" class="edge">
<title>Node2&#45;&gt;Node3</title>
<g id="a_edge2_Node000002_Node000003"><a xlink:title=" ">
<path fill="none" stroke="#63b8ff" d="M574.34,-409.81C581.5,-400.64 589.6,-390.28 595.93,-382.16"/>
<polygon fill="#63b8ff" stroke="#63b8ff" points="571.5,-407.76 568.1,-417.8 577.01,-412.07 571.5,-407.76"/>
</a>
</g>
</g>
<!-- Node2&#45;&gt;Node15 -->
<g id="edge22_Node000002_Node000015" class="edge">
<title>Node2&#45;&gt;Node15</title>
<g id="a_edge22_Node000002_Node000015"><a xlink:title=" ">
<path fill="none" stroke="#63b8ff" d="M525.03,-412.69C508.66,-402.82 489.11,-391.01 474.21,-382.01"/>
<polygon fill="#63b8ff" stroke="#63b8ff" points="523.37,-415.78 533.74,-417.95 526.99,-409.79 523.37,-415.78"/>
</a>
</g>
</g>
<!-- Node4 -->
<g id="Node000004" class="node">
<title>Node4</title>
<g id="a_Node000004"><a xlink:href="_default_socket_data_8hpp.html" target="_top" xlink:title=" ">
<polygon fill="white" stroke="#666666" points="546,-316 356,-316 356,-286 546,-286 546,-316"/>
<text text-anchor="start" x="364" y="-304" font-family="Helvetica,sans-Serif" font-size="10.00">include/Hermes/Socket</text>
<text text-anchor="middle" x="451" y="-293" font-family="Helvetica,sans-Serif" font-size="10.00">/_base/Data/DefaultSocketData.hpp</text>
</a>
</g>
</g>
<!-- Node3&#45;&gt;Node4 -->
<g id="edge3_Node000003_Node000004" class="edge">
<title>Node3&#45;&gt;Node4</title>
<g id="a_edge3_Node000003_Node000004"><a xlink:title=" ">
<path fill="none" stroke="#63b8ff" d="M563.26,-348.05C538.54,-337.91 508.1,-325.43 485.16,-316.01"/>
<polygon fill="#63b8ff" stroke="#63b8ff" points="562.18,-351.4 572.77,-351.95 564.84,-344.92 562.18,-351.4"/>
</a>
</g>
</g>
<!-- Node13 -->
<g id="Node000013" class="node">
<title>Node13</title>
<g id="a_Node000013"><a xlink:href="_tls_socket_data_8hpp.html" target="_top" xlink:title=" ">
<polygon fill="white" stroke="#666666" points="808,-316 640,-316 640,-286 808,-286 808,-316"/>
<text text-anchor="start" x="648" y="-304" font-family="Helvetica,sans-Serif" font-size="10.00">include/Hermes/Socket</text>
<text text-anchor="middle" x="724" y="-293" font-family="Helvetica,sans-Serif" font-size="10.00">/_base/Data/TlsSocketData.hpp</text>
</a>
</g>
</g>
<!-- Node3&#45;&gt;Node13 -->
<g id="edge16_Node000003_Node000013" class="edge">
<title>Node3&#45;&gt;Node13</title>
<g id="a_edge16_Node000003_Node000013"><a xlink:title=" ">
<path fill="none" stroke="#63b8ff" d="M641.79,-346.97C659.95,-337.03 681.78,-325.09 698.38,-316.01"/>
<polygon fill="#63b8ff" stroke="#63b8ff" points="639.77,-344.09 632.68,-351.95 643.13,-350.23 639.77,-344.09"/>
</a>
</g>
</g>
<!-- Node4&#45;&gt;Node5 -->
<g id="edge4_Node000004_Node000005" class="edge">
<title>Node4&#45;&gt;Node5</title>
<g id="a_edge4_Node000004_Node000005"><a xlink:title=" ">
<path fill="none" stroke="#63b8ff" d="M381.73,-283.57C338.01,-273.2 281.43,-259.78 236.11,-249.03"/>
<polygon fill="#63b8ff" stroke="#63b8ff" points="381.17,-287.03 391.71,-285.94 382.78,-280.22 381.17,-287.03"/>
</a>
</g>
</g>
<!-- Node4&#45;&gt;Node9 -->
<g id="edge9_Node000004_Node000009" class="edge">
<title>Node4&#45;&gt;Node9</title>
<g id="a_edge9_Node000004_Node000009"><a xlink:title=" ">
<path fill="none" stroke="#63b8ff" d="M483.8,-280.85C500.19,-271.27 519.99,-259.71 536.49,-250.07"/>
<polygon fill="#63b8ff" stroke="#63b8ff" points="481.95,-277.87 475.08,-285.94 485.48,-283.91 481.95,-277.87"/>
</a>
</g>
</g>
<!-- Node4&#45;&gt;Node12 -->
<g id="edge13_Node000004_Node000012" class="edge">
<title>Node4&#45;&gt;Node12</title>
<g id="a_edge13_Node000004_Node000012"><a xlink:title=" ">
<path fill="none" stroke="#63b8ff" d="M419.43,-280.58C403.94,-271.06 385.34,-259.62 369.82,-250.07"/>
<polygon fill="#63b8ff" stroke="#63b8ff" points="417.78,-283.68 428.13,-285.94 421.45,-277.72 417.78,-283.68"/>
</a>
</g>
</g>
<!-- Node6 -->
<g id="Node000006" class="node">
<title>Node6</title>
<g id="a_Node000006"><a xlink:href="_server_socket_8hpp.html" target="_top" xlink:title=" ">
<polygon fill="white" stroke="#666666" points="367,-96 239,-96 239,-66 367,-66 367,-96"/>
<text text-anchor="start" x="247" y="-84" font-family="Helvetica,sans-Serif" font-size="10.00">include/Hermes/Socket</text>
<text text-anchor="middle" x="303" y="-73" font-family="Helvetica,sans-Serif" font-size="10.00">/ServerSocket.hpp</text>
</a>
</g>
</g>
<!-- Node5&#45;&gt;Node6 -->
<g id="edge5_Node000005_Node000006" class="edge">
<title>Node5&#45;&gt;Node6</title>
<g id="a_edge5_Node000005_Node000006"><a xlink:title=" ">
<path fill="none" stroke="#63b8ff" d="M216.3,-204.36C231.54,-196.06 247.02,-185.62 259,-173 280.38,-150.47 293.23,-115.59 299.12,-96.21"/>
<polygon fill="#63b8ff" stroke="#63b8ff" points="214.64,-201.28 207.39,-209 217.87,-207.49 214.64,-201.28"/>
</a>
</g>
</g>
<!-- Node5&#45;&gt;Node8 -->
<g id="edge7_Node000005_Node000008" class="edge">
<title>Node5&#45;&gt;Node8</title>
<g id="a_edge7_Node000005_Node000008"><a xlink:title=" ">
<path fill="none" stroke="#63b8ff" d="M158,-198.61C158,-188.01 158,-176.57 158,-167.86"/>
<polygon fill="#63b8ff" stroke="#63b8ff" points="154.5,-198.79 158,-208.79 161.5,-198.79 154.5,-198.79"/>
</a>
</g>
</g>
<!-- Node7 -->
<g id="Node000007" class="node">
<title>Node7</title>
<g id="a_Node000007"><a xlink:href="_listener_socket_8hpp.html" target="_top" xlink:title=" ">
<polygon fill="white" stroke="#666666" points="367,-30 239,-30 239,0 367,0 367,-30"/>
<text text-anchor="start" x="247" y="-18" font-family="Helvetica,sans-Serif" font-size="10.00">include/Hermes/Socket</text>
<text text-anchor="middle" x="303" y="-7" font-family="Helvetica,sans-Serif" font-size="10.00">/ListenerSocket.hpp</text>
</a>
</g>
</g>
<!-- Node6&#45;&gt;Node7 -->
<g id="edge6_Node000006_Node000007" class="edge">
<title>Node6&#45;&gt;Node7</title>
<g id="a_edge6_Node000006_Node000007"><a xlink:title=" ">
<path fill="none" stroke="#63b8ff" d="M303,-55.54C303,-46.96 303,-37.61 303,-30.16"/>
<polygon fill="#63b8ff" stroke="#63b8ff" points="299.5,-55.8 303,-65.8 306.5,-55.8 299.5,-55.8"/>
</a>
</g>
</g>
<!-- Node8&#45;&gt;Node6 -->
<g id="edge8_Node000008_Node000006" class="edge">
<title>Node8&#45;&gt;Node6</title>
<g id="a_edge8_Node000008_Node000006"><a xlink:title=" ">
<path fill="none" stroke="#63b8ff" d="M196.6,-133C220.8,-121.4 251.5,-106.68 273.7,-96.04"/>
<polygon fill="#63b8ff" stroke="#63b8ff" points="194.85,-129.96 187.34,-137.44 197.87,-136.27 194.85,-129.96"/>
</a>
</g>
</g>
<!-- Node10 -->
<g id="Node000010" class="node">
<title>Node10</title>
<g id="a_Node000010"><a xlink:href="_client_socket_8hpp.html" target="_top" xlink:title=" ">
<polygon fill="white" stroke="#666666" points="693,-96 565,-96 565,-66 693,-66 693,-96"/>
<text text-anchor="start" x="573" y="-84" font-family="Helvetica,sans-Serif" font-size="10.00">include/Hermes/Socket</text>
<text text-anchor="middle" x="629" y="-73" font-family="Helvetica,sans-Serif" font-size="10.00">/ClientSocket.hpp</text>
</a>
</g>
</g>
<!-- Node9&#45;&gt;Node10 -->
<g id="edge10_Node000009_Node000010" class="edge">
<title>Node9&#45;&gt;Node10</title>
<g id="a_edge10_Node000009_Node000010"><a xlink:title=" ">
<path fill="none" stroke="#63b8ff" d="M574.89,-199.1C578.79,-179.51 585.25,-153.51 595,-132 600.89,-119 610.12,-105.7 617.47,-96.09"/>
<polygon fill="#63b8ff" stroke="#63b8ff" points="571.44,-198.51 573.02,-208.98 578.32,-199.8 571.44,-198.51"/>
</a>
</g>
</g>
<!-- Node9&#45;&gt;Node11 -->
<g id="edge11_Node000009_Node000011" class="edge">
<title>Node9&#45;&gt;Node11</title>
<g id="a_edge11_Node000009_Node000011"><a xlink:title=" ">
<path fill="none" stroke="#63b8ff" d="M608.53,-203.37C623.62,-193.53 640.67,-182.41 654.84,-173.17"/>
<polygon fill="#63b8ff" stroke="#63b8ff" points="606.38,-200.6 599.91,-208.99 610.2,-206.46 606.38,-200.6"/>
</a>
</g>
</g>
<!-- Node11&#45;&gt;Node10 -->
<g id="edge12_Node000011_Node000010" class="edge">
<title>Node11&#45;&gt;Node10</title>
<g id="a_edge12_Node000011_Node000010"><a xlink:title=" ">
<path fill="none" stroke="#63b8ff" d="M662.82,-123.98C655.11,-114.4 646.77,-104.06 640.31,-96.04"/>
<polygon fill="#63b8ff" stroke="#63b8ff" points="660.1,-126.18 669.1,-131.77 665.55,-121.79 660.1,-126.18"/>
</a>
</g>
</g>
<!-- Node12&#45;&gt;Node6 -->
<g id="edge15_Node000012_Node000006" class="edge">
<title>Node12&#45;&gt;Node6</title>
<g id="a_edge15_Node000012_Node000006"><a xlink:title=" ">
<path fill="none" stroke="#63b8ff" d="M330.92,-198.85C323.46,-167.63 312.03,-119.79 306.39,-96.18"/>
<polygon fill="#63b8ff" stroke="#63b8ff" points="327.55,-199.83 333.28,-208.74 334.36,-198.2 327.55,-199.83"/>
</a>
</g>
</g>
<!-- Node12&#45;&gt;Node10 -->
<g id="edge14_Node000012_Node000010" class="edge">
<title>Node12&#45;&gt;Node10</title>
<g id="a_edge14_Node000012_Node000010"><a xlink:title=" ">
<path fill="none" stroke="#63b8ff" d="M386.04,-204.31C447.41,-173.42 551.59,-120.97 601.17,-96.01"/>
<polygon fill="#63b8ff" stroke="#63b8ff" points="384.3,-201.27 376.94,-208.89 387.45,-207.52 384.3,-201.27"/>
</a>
</g>
</g>
<!-- Node13&#45;&gt;Node8 -->
<g id="edge17_Node000013_Node000008" class="edge">
<title>Node13&#45;&gt;Node8</title>
<g id="a_edge17_Node000013_Node000008"><a xlink:title=" ">
<path fill="none" stroke="#63b8ff" d="M629.74,-295.58C579.41,-289.86 517.94,-277.28 469,-250 447.3,-237.9 452.66,-221.17 431,-209 375.55,-177.84 305.04,-164.05 249.56,-158"/>
<polygon fill="#63b8ff" stroke="#63b8ff" points="629.66,-299.09 639.97,-296.67 630.4,-292.13 629.66,-299.09"/>
</a>
</g>
</g>
<!-- Node13&#45;&gt;Node11 -->
<g id="edge18_Node000013_Node000011" class="edge">
<title>Node13&#45;&gt;Node11</title>
<g id="a_edge18_Node000013_Node000011"><a xlink:title=" ">
<path fill="none" stroke="#63b8ff" d="M719.46,-275.78C715.81,-257.34 710.27,-231.4 704,-209 700.62,-196.94 696.1,-183.65 692.32,-173.11"/>
<polygon fill="#63b8ff" stroke="#63b8ff" points="716.04,-276.54 721.38,-285.69 722.91,-275.21 716.04,-276.54"/>
</a>
</g>
</g>
<!-- Node13&#45;&gt;Node14 -->
<g id="edge19_Node000013_Node000014" class="edge">
<title>Node13&#45;&gt;Node14</title>
<g id="a_edge19_Node000013_Node000014"><a xlink:title=" ">
<path fill="none" stroke="#63b8ff" d="M754.88,-280.31C769.73,-270.84 787.48,-259.53 802.3,-250.07"/>
<polygon fill="#63b8ff" stroke="#63b8ff" points="752.61,-277.61 746.06,-285.94 756.37,-283.51 752.61,-277.61"/>
</a>
</g>
</g>
<!-- Node14&#45;&gt;Node6 -->
<g id="edge21_Node000014_Node000006" class="edge">
<title>Node14&#45;&gt;Node6</title>
<g id="a_edge21_Node000014_Node000006"><a xlink:title=" ">
<path fill="none" stroke="#63b8ff" d="M819.56,-199.62C807.16,-174.27 788.77,-140.21 776,-132 742.35,-110.37 488.7,-92.84 367.33,-85.6"/>
<polygon fill="#63b8ff" stroke="#63b8ff" points="816.51,-201.34 824,-208.83 822.81,-198.3 816.51,-201.34"/>
</a>
</g>
</g>
<!-- Node14&#45;&gt;Node10 -->
<g id="edge20_Node000014_Node000010" class="edge">
<title>Node14&#45;&gt;Node10</title>
<g id="a_edge20_Node000014_Node000010"><a xlink:title=" ">
<path fill="none" stroke="#63b8ff" d="M833.13,-198.59C831.61,-177.34 826.1,-149.57 809,-132 779.03,-101.2 731.86,-88.89 693.33,-84.18"/>
<polygon fill="#63b8ff" stroke="#63b8ff" points="829.64,-198.89 833.6,-208.72 836.64,-198.57 829.64,-198.89"/>
</a>
</g>
</g>
<!-- Node15&#45;&gt;Node4 -->
<g id="edge27_Node000015_Node000004" class="edge">
<title>Node15&#45;&gt;Node4</title>
<g id="a_edge27_Node000015_Node000004"><a xlink:title=" ">
<path fill="none" stroke="#63b8ff" d="M451,-341.54C451,-332.96 451,-323.61 451,-316.16"/>
<polygon fill="#63b8ff" stroke="#63b8ff" points="447.5,-341.8 451,-351.8 454.5,-341.8 447.5,-341.8"/>
</a>
</g>
</g>
<!-- Node15&#45;&gt;Node5 -->
<g id="edge23_Node000015_Node000005" class="edge">
<title>Node15&#45;&gt;Node5</title>
<g id="a_edge23_Node000015_Node000005"><a xlink:title=" ">
<path fill="none" stroke="#63b8ff" d="M376.93,-362.2C304.12,-356.86 199.95,-344.38 172,-316 155.11,-298.86 153.86,-269.74 155.3,-250.32"/>
<polygon fill="#63b8ff" stroke="#63b8ff" points="376.77,-365.7 386.99,-362.91 377.26,-358.72 376.77,-365.7"/>
</a>
</g>
</g>
<!-- Node15&#45;&gt;Node8 -->
<g id="edge24_Node000015_Node000008" class="edge">
<title>Node15&#45;&gt;Node8</title>
<g id="a_edge24_Node000015_Node000008"><a xlink:title=" ">
<path fill="none" stroke="#63b8ff" d="M376.84,-363.95C314.64,-359.84 224.74,-348.21 153,-316 110.32,-296.84 91.2,-292.2 71,-250 63.13,-233.56 62.24,-224.98 71,-209 81.42,-189.99 101.43,-176.55 119.63,-167.67"/>
<polygon fill="#63b8ff" stroke="#63b8ff" points="376.77,-367.45 386.96,-364.57 377.19,-360.47 376.77,-367.45"/>
</a>
</g>
</g>
<!-- Node15&#45;&gt;Node9 -->
<g id="edge25_Node000015_Node000009" class="edge">
<title>Node15&#45;&gt;Node9</title>
<g id="a_edge25_Node000015_Node000009"><a xlink:title=" ">
<path fill="none" stroke="#63b8ff" d="M512.73,-347.87C528.67,-340.4 544.33,-330.08 555,-316 569.38,-297.02 571.72,-268.9 571.41,-250.15"/>
<polygon fill="#63b8ff" stroke="#63b8ff" points="511.12,-344.75 503.34,-351.95 513.91,-351.17 511.12,-344.75"/>
</a>
</g>
</g>
<!-- Node15&#45;&gt;Node11 -->
<g id="edge26_Node000015_Node000011" class="edge">
<title>Node15&#45;&gt;Node11</title>
<g id="a_edge26_Node000015_Node000011"><a xlink:title=" ">
<path fill="none" stroke="#63b8ff" d="M501.74,-348.36C524.63,-339.69 551.71,-328.43 575,-316 598,-303.72 658.29,-272.18 672,-250 686.49,-226.56 687.8,-193.85 686.84,-173.17"/>
<polygon fill="#63b8ff" stroke="#63b8ff" points="500.35,-345.14 492.2,-351.91 502.79,-351.7 500.35,-345.14"/>
</a>
</g>
</g>
<!-- Node15&#45;&gt;Node12 -->
<g id="edge29_Node000015_Node000012" class="edge">
<title>Node15&#45;&gt;Node12</title>
<g id="a_edge29_Node000015_Node000012"><a xlink:title=" ">
<path fill="none" stroke="#63b8ff" d="M387.73,-347.9C372.1,-340.47 356.98,-330.17 347,-316 333.42,-296.72 333.17,-268.67 334.98,-250.02"/>
<polygon fill="#63b8ff" stroke="#63b8ff" points="386.4,-351.14 396.97,-351.96 389.22,-344.73 386.4,-351.14"/>
</a>
</g>
</g>
<!-- Node15&#45;&gt;Node13 -->
<g id="edge28_Node000015_Node000013" class="edge">
<title>Node15&#45;&gt;Node13</title>
<g id="a_edge28_Node000015_Node000013"><a xlink:title=" ">
<path fill="none" stroke="#63b8ff" d="M520.75,-349.65C565.11,-339.25 621.94,-325.93 664.23,-316.01"/>
<polygon fill="#63b8ff" stroke="#63b8ff" points="519.85,-346.26 510.91,-351.95 521.45,-353.08 519.85,-346.26"/>
</a>
</g>
</g>
<!-- Node15&#45;&gt;Node14 -->
<g id="edge30_Node000015_Node000014" class="edge">
<title>Node15&#45;&gt;Node14</title>
<g id="a_edge30_Node000015_Node000014"><a xlink:title=" ">
<path fill="none" stroke="#63b8ff" d="M525.3,-352.26C604.8,-343.42 771.4,-358.84 817,-316 834.72,-299.35 836.48,-269.83 835.35,-250.21"/>
<polygon fill="#63b8ff" stroke="#63b8ff" points="524.59,-348.82 515.13,-353.61 525.5,-355.76 524.59,-348.82"/>
</a>
</g>
</g>
<!-- Node16 -->
<g id="Node000016" class="node">
<title>Node16</title>
<g id="a_Node000016"><a xlink:href="_to_bytes_8hpp.html" target="_top" xlink:title=" ">
<polygon fill="white" stroke="#666666" points="299.5,-316 180.5,-316 180.5,-286 299.5,-286 299.5,-316"/>
<text text-anchor="start" x="188.5" y="-304" font-family="Helvetica,sans-Serif" font-size="10.00">include/Hermes/Utils</text>
<text text-anchor="middle" x="240" y="-293" font-family="Helvetica,sans-Serif" font-size="10.00">/ToBytes.hpp</text>
</a>
</g>
</g>
<!-- Node15&#45;&gt;Node16 -->
<g id="edge31_Node000015_Node000016" class="edge">
<title>Node15&#45;&gt;Node16</title>
<g id="a_edge31_Node000015_Node000016"><a xlink:title=" ">
<path fill="none" stroke="#63b8ff" d="M394.92,-348.99C360.97,-338.69 318.19,-325.72 286.2,-316.01"/>
<polygon fill="#63b8ff" stroke="#63b8ff" points="394.11,-352.4 404.7,-351.95 396.14,-345.7 394.11,-352.4"/>
</a>
</g>
</g>
</g>
</svg>
