<?xml version="1.0" encoding="UTF-8" standalone="no"?>
<!DOCTYPE svg PUBLIC "-//W3C//DTD SVG 1.1//EN"
 "http://www.w3.org/Graphics/SVG/1.1/DTD/svg11.dtd">
<!-- Generated by graphviz version 2.43.0 (0)
 -->
<!-- Title: include/Hermes/_base/Credentials.hpp Pages: 1 -->
<svg width="1338pt" height="401pt"
 viewBox="0.00 0.00 1338.00 401.00" xmlns="http://www.w3.org/2000/svg" xmlns:xlink="http://www.w3.org/1999/xlink">
<g id="graph0" class="graph" transform="scale(1 1) rotate(0) translate(4 397)">
<title>include/Hermes/_base/Credentials.hpp</title>
<!-- Node1 -->
<g id="Node000001" class="node">
<title>Node1</title>
<g id="a_Node000001"><a xlink:title=" ">
<polygon fill="#999999" stroke="#666666" points="794,-393 669,-393 669,-363 794,-363 794,-393"/>
<text text-anchor="start" x="677" y="-381" font-family="Helvetica,sans-Serif" font-size="10.00">include/Hermes/_base</text>
<text text-anchor="middle" x="731.5" y="-370" font-family="Helvetica,sans-Serif" font-size="10.00">/Credentials.hpp</text>
</a>
</g>
</g>
<!-- Node2 -->
<g id="Node000002" class="node">
<title>Node2</title>
<g id="a_Node000002"><a xlink:href="_tls_socket_data_8hpp.html" target="_top" xlink:title=" ">
<polygon fill="white" stroke="#666666" points="726,-327 589,-327 589,-297 726,-297 726,-327"/>
<text text-anchor="start" x="597" y="-315" font-family="Helvetica,sans-Serif" font-size="10.00">include/Hermes/Socket</text>
<text text-anchor="middle" x="657.5" y="-304" font-family="Helvetica,sans-Serif" font-size="10.00">/Data/TlsSocketData.hpp</text>
</a>
</g>
</g>
<!-- Node1&#45;&gt;Node2 -->
<g id="edge1_Node000001_Node000002" class="edge">
<title>Node1&#45;&gt;Node2</title>
<g id="a_edge1_Node000001_Node000002"><a xlink:title=" ">
<path fill="none" stroke="#63b8ff" d="M707.45,-356.2C696.47,-346.7 683.74,-335.69 673.88,-327.16"/>
<polygon fill="#63b8ff" stroke="#63b8ff" points="705.22,-358.9 715.08,-362.8 709.8,-353.61 705.22,-358.9"/>
</a>
</g>
</g>
<!-- Node18 -->
<g id="Node000018" class="node">
<title>Node18</title>
<g id="a_Node000018"><a xlink:href="_network_8hpp.html" target="_top" xlink:title=" ">
<polygon fill="white" stroke="#666666" points="869,-327 744,-327 744,-297 869,-297 869,-327"/>
<text text-anchor="start" x="752" y="-315" font-family="Helvetica,sans-Serif" font-size="10.00">include/Hermes/_base</text>
<text text-anchor="middle" x="806.5" y="-304" font-family="Helvetica,sans-Serif" font-size="10.00">/Network.hpp</text>
</a>
</g>
</g>
<!-- Node1&#45;&gt;Node18 -->
<g id="edge24_Node000001_Node000018" class="edge">
<title>Node1&#45;&gt;Node18</title>
<g id="a_edge24_Node000001_Node000018"><a xlink:title=" ">
<path fill="none" stroke="#63b8ff" d="M755.87,-356.2C767.01,-346.7 779.91,-335.69 789.9,-327.16"/>
<polygon fill="#63b8ff" stroke="#63b8ff" points="753.48,-353.64 748.14,-362.8 758.02,-358.97 753.48,-353.64"/>
</a>
</g>
</g>
<!-- Node3 -->
<g id="Node000003" class="node">
<title>Node3</title>
<g id="a_Node000003"><a xlink:href="_tls_async_accept_policy_8hpp.html" target="_top" xlink:title=" ">
<polygon fill="white" stroke="#666666" points="163,-184 0,-184 0,-143 163,-143 163,-184"/>
<text text-anchor="start" x="8" y="-172" font-family="Helvetica,sans-Serif" font-size="10.00">include/Hermes/Socket</text>
<text text-anchor="start" x="8" y="-161" font-family="Helvetica,sans-Serif" font-size="10.00">/Async/_base/Accept/TlsAsync</text>
<text text-anchor="middle" x="81.5" y="-150" font-family="Helvetica,sans-Serif" font-size="10.00">AcceptPolicy.hpp</text>
</a>
</g>
</g>
<!-- Node2&#45;&gt;Node3 -->
<g id="edge2_Node000002_Node000003" class="edge">
<title>Node2&#45;&gt;Node3</title>
<g id="a_edge2_Node000002_Node000003"><a xlink:title=" ">
<path fill="none" stroke="#63b8ff" d="M578.59,-309.13C498.15,-305.34 370.62,-294.09 265.5,-261 207.35,-242.7 145.79,-206.5 110.66,-184.02"/>
<polygon fill="#63b8ff" stroke="#63b8ff" points="578.5,-312.63 588.65,-309.58 578.81,-305.63 578.5,-312.63"/>
</a>
</g>
</g>
<!-- Node4 -->
<g id="Node000004" class="node">
<title>Node4</title>
<g id="a_Node000004"><a xlink:href="_tls_async_connect_policy_8hpp.html" target="_top" xlink:title=" ">
<polygon fill="white" stroke="#666666" points="1100.5,-107 948.5,-107 948.5,-66 1100.5,-66 1100.5,-107"/>
<text text-anchor="start" x="956.5" y="-95" font-family="Helvetica,sans-Serif" font-size="10.00">include/Hermes/Socket</text>
<text text-anchor="start" x="956.5" y="-84" font-family="Helvetica,sans-Serif" font-size="10.00">/Async/_base/Connection</text>
<text text-anchor="middle" x="1024.5" y="-73" font-family="Helvetica,sans-Serif" font-size="10.00">/TlsAsyncConnectPolicy.hpp</text>
</a>
</g>
</g>
<!-- Node2&#45;&gt;Node4 -->
<g id="edge3_Node000002_Node000004" class="edge">
<title>Node2&#45;&gt;Node4</title>
<g id="a_edge3_Node000002_Node000004"><a xlink:title=" ">
<path fill="none" stroke="#63b8ff" d="M736.03,-296.21C837.32,-275.35 1004.74,-234.17 1040.5,-184 1056.66,-161.32 1045.55,-128.09 1035.48,-107.14"/>
<polygon fill="#63b8ff" stroke="#63b8ff" points="735.24,-292.8 726.14,-298.23 736.64,-299.66 735.24,-292.8"/>
</a>
</g>
</g>
<!-- Node6 -->
<g id="Node000006" class="node">
<title>Node6</title>
<g id="a_Node000006"><a xlink:href="_tls_async_transfer_policy_8hpp.html" target="_top" xlink:title=" ">
<polygon fill="white" stroke="#666666" points="1256,-261 1105,-261 1105,-220 1256,-220 1256,-261"/>
<text text-anchor="start" x="1113" y="-249" font-family="Helvetica,sans-Serif" font-size="10.00">include/Hermes/Socket</text>
<text text-anchor="start" x="1113" y="-238" font-family="Helvetica,sans-Serif" font-size="10.00">/Async/_base/Transfer</text>
<text text-anchor="middle" x="1180.5" y="-227" font-family="Helvetica,sans-Serif" font-size="10.00">/TlsAsyncTransferPolicy.hpp</text>
</a>
</g>
</g>
<!-- Node2&#45;&gt;Node6 -->
<g id="edge5_Node000002_Node000006" class="edge">
<title>Node2&#45;&gt;Node6</title>
<g id="a_edge5_Node000002_Node000006"><a xlink:title=" ">
<path fill="none" stroke="#63b8ff" d="M736.34,-296.81C893.72,-275.2 936.65,-285.37 1090.5,-261 1095.24,-260.25 1100.1,-259.41 1104.99,-258.51"/>
<polygon fill="#63b8ff" stroke="#63b8ff" points="735.72,-293.36 726.3,-298.21 736.69,-300.3 735.72,-293.36"/>
</a>
</g>
</g>
<!-- Node9 -->
<g id="Node000009" class="node">
<title>Node9</title>
<g id="a_Node000009"><a xlink:href="_tls_accept_policy_8hpp.html" target="_top" xlink:title=" ">
<polygon fill="white" stroke="#666666" points="436,-261 275,-261 275,-220 436,-220 436,-261"/>
<text text-anchor="start" x="283" y="-249" font-family="Helvetica,sans-Serif" font-size="10.00">include/Hermes/Socket</text>
<text text-anchor="start" x="283" y="-238" font-family="Helvetica,sans-Serif" font-size="10.00">/Sync/_base/Accept/TlsAccept</text>
<text text-anchor="middle" x="355.5" y="-227" font-family="Helvetica,sans-Serif" font-size="10.00">Policy.hpp</text>
</a>
</g>
</g>
<!-- Node2&#45;&gt;Node9 -->
<g id="edge9_Node000002_Node000009" class="edge">
<title>Node2&#45;&gt;Node9</title>
<g id="a_edge9_Node000002_Node000009"><a xlink:title=" ">
<path fill="none" stroke="#63b8ff" d="M586.39,-294.64C541.28,-284.26 482.82,-270.8 436.01,-260.03"/>
<polygon fill="#63b8ff" stroke="#63b8ff" points="585.86,-298.1 596.39,-296.94 587.43,-291.28 585.86,-298.1"/>
</a>
</g>
</g>
<!-- Node13 -->
<g id="Node000013" class="node">
<title>Node13</title>
<g id="a_Node000013"><a xlink:href="_tls_connect_policy_8hpp.html" target="_top" xlink:title=" ">
<polygon fill="white" stroke="#666666" points="808.5,-261 676.5,-261 676.5,-220 808.5,-220 808.5,-261"/>
<text text-anchor="start" x="684.5" y="-249" font-family="Helvetica,sans-Serif" font-size="10.00">include/Hermes/Socket</text>
<text text-anchor="start" x="684.5" y="-238" font-family="Helvetica,sans-Serif" font-size="10.00">/Sync/_base/Connection</text>
<text text-anchor="middle" x="742.5" y="-227" font-family="Helvetica,sans-Serif" font-size="10.00">/TlsConnectPolicy.hpp</text>
</a>
</g>
</g>
<!-- Node2&#45;&gt;Node13 -->
<g id="edge14_Node000002_Node000013" class="edge">
<title>Node2&#45;&gt;Node13</title>
<g id="a_edge14_Node000002_Node000013"><a xlink:title=" ">
<path fill="none" stroke="#63b8ff" d="M682.57,-290.5C693.94,-281.21 707.33,-270.26 718.56,-261.07"/>
<polygon fill="#63b8ff" stroke="#63b8ff" points="680.23,-287.9 674.7,-296.94 684.66,-293.32 680.23,-287.9"/>
</a>
</g>
</g>
<!-- Node17 -->
<g id="Node000017" class="node">
<title>Node17</title>
<g id="a_Node000017"><a xlink:href="_tls_transfer_policy_8hpp.html" target="_top" xlink:title=" ">
<polygon fill="white" stroke="#666666" points="637.5,-261 509.5,-261 509.5,-220 637.5,-220 637.5,-261"/>
<text text-anchor="start" x="517.5" y="-249" font-family="Helvetica,sans-Serif" font-size="10.00">include/Hermes/Socket</text>
<text text-anchor="start" x="517.5" y="-238" font-family="Helvetica,sans-Serif" font-size="10.00">/Sync/_base/Transfer</text>
<text text-anchor="middle" x="573.5" y="-227" font-family="Helvetica,sans-Serif" font-size="10.00">/TlsTransferPolicy.hpp</text>
</a>
</g>
</g>
<!-- Node2&#45;&gt;Node17 -->
<g id="edge21_Node000002_Node000017" class="edge">
<title>Node2&#45;&gt;Node17</title>
<g id="a_edge21_Node000002_Node000017"><a xlink:title=" ">
<path fill="none" stroke="#63b8ff" d="M632.73,-290.5C621.49,-281.21 608.26,-270.26 597.16,-261.07"/>
<polygon fill="#63b8ff" stroke="#63b8ff" points="630.57,-293.26 640.5,-296.94 635.03,-287.86 630.57,-293.26"/>
</a>
</g>
</g>
<!-- Node5 -->
<g id="Node000005" class="node">
<title>Node5</title>
<g id="a_Node000005"><a xlink:href="_async_client_socket_8hpp.html" target="_top" xlink:title=" ">
<polygon fill="white" stroke="#666666" points="1106,-30 943,-30 943,0 1106,0 1106,-30"/>
<text text-anchor="start" x="951" y="-18" font-family="Helvetica,sans-Serif" font-size="10.00">include/Hermes/Socket</text>
<text text-anchor="middle" x="1024.5" y="-7" font-family="Helvetica,sans-Serif" font-size="10.00">/Async/AsyncClientSocket.hpp</text>
</a>
</g>
</g>
<!-- Node4&#45;&gt;Node5 -->
<g id="edge4_Node000004_Node000005" class="edge">
<title>Node4&#45;&gt;Node5</title>
<g id="a_edge4_Node000004_Node000005"><a xlink:title=" ">
<path fill="none" stroke="#63b8ff" d="M1024.5,-55.66C1024.5,-46.76 1024.5,-37.42 1024.5,-30.04"/>
<polygon fill="#63b8ff" stroke="#63b8ff" points="1021,-55.77 1024.5,-65.77 1028,-55.77 1021,-55.77"/>
</a>
</g>
</g>
<!-- Node6&#45;&gt;Node5 -->
<g id="edge6_Node000006_Node000005" class="edge">
<title>Node6&#45;&gt;Node5</title>
<g id="a_edge6_Node000006_Node000005"><a xlink:title=" ">
<path fill="none" stroke="#63b8ff" d="M1163.32,-211.09C1158.52,-202.55 1153.51,-193.04 1149.5,-184 1127.02,-133.39 1144.45,-108.96 1109.5,-66 1096.64,-50.2 1077.37,-38.28 1060.43,-30.05"/>
<polygon fill="#63b8ff" stroke="#63b8ff" points="1160.38,-213 1168.4,-219.91 1166.45,-209.5 1160.38,-213"/>
</a>
</g>
</g>
<!-- Node7 -->
<g id="Node000007" class="node">
<title>Node7</title>
<g id="a_Node000007"><a xlink:href="_async_server_socket_8hpp.html" target="_top" xlink:title=" ">
<polygon fill="white" stroke="#666666" points="1324.5,-178.5 1158.5,-178.5 1158.5,-148.5 1324.5,-148.5 1324.5,-178.5"/>
<text text-anchor="start" x="1166.5" y="-166.5" font-family="Helvetica,sans-Serif" font-size="10.00">include/Hermes/Socket</text>
<text text-anchor="middle" x="1241.5" y="-155.5" font-family="Helvetica,sans-Serif" font-size="10.00">/Async/AsyncServerSocket.hpp</text>
</a>
</g>
</g>
<!-- Node6&#45;&gt;Node7 -->
<g id="edge7_Node000006_Node000007" class="edge">
<title>Node6&#45;&gt;Node7</title>
<g id="a_edge7_Node000006_Node000007"><a xlink:title=" ">
<path fill="none" stroke="#63b8ff" d="M1202.94,-211.92C1212.06,-200.7 1222.22,-188.21 1229.82,-178.86"/>
<polygon fill="#63b8ff" stroke="#63b8ff" points="1200.12,-209.83 1196.53,-219.79 1205.55,-214.25 1200.12,-209.83"/>
</a>
</g>
</g>
<!-- Node8 -->
<g id="Node000008" class="node">
<title>Node8</title>
<g id="a_Node000008"><a xlink:href="_async_listener_socket_8hpp.html" target="_top" xlink:title=" ">
<polygon fill="white" stroke="#666666" points="1330,-101.5 1157,-101.5 1157,-71.5 1330,-71.5 1330,-101.5"/>
<text text-anchor="start" x="1165" y="-89.5" font-family="Helvetica,sans-Serif" font-size="10.00">include/Hermes/Socket</text>
<text text-anchor="middle" x="1243.5" y="-78.5" font-family="Helvetica,sans-Serif" font-size="10.00">/Async/AsyncListenerSocket.hpp</text>
</a>
</g>
</g>
<!-- Node7&#45;&gt;Node8 -->
<g id="edge8_Node000007_Node000008" class="edge">
<title>Node7&#45;&gt;Node8</title>
<g id="a_edge8_Node000007_Node000008"><a xlink:title=" ">
<path fill="none" stroke="#63b8ff" d="M1242.15,-138.04C1242.47,-125.95 1242.85,-111.79 1243.13,-101.54"/>
<polygon fill="#63b8ff" stroke="#63b8ff" points="1238.64,-138.3 1241.88,-148.39 1245.64,-138.49 1238.64,-138.3"/>
</a>
</g>
</g>
<!-- Node9&#45;&gt;Node3 -->
<g id="edge10_Node000009_Node000003" class="edge">
<title>Node9&#45;&gt;Node3</title>
<g id="a_edge10_Node000009_Node000003"><a xlink:title=" ">
<path fill="none" stroke="#63b8ff" d="M274.57,-217.35C235.97,-206.78 190.19,-194.25 152.89,-184.04"/>
<polygon fill="#63b8ff" stroke="#63b8ff" points="273.66,-220.73 284.22,-219.99 275.5,-213.97 273.66,-220.73"/>
</a>
</g>
</g>
<!-- Node10 -->
<g id="Node000010" class="node">
<title>Node10</title>
<g id="a_Node000010"><a xlink:href="_server_socket_8hpp.html" target="_top" xlink:title=" ">
<polygon fill="white" stroke="#666666" points="491,-178.5 360,-178.5 360,-148.5 491,-148.5 491,-178.5"/>
<text text-anchor="start" x="368" y="-166.5" font-family="Helvetica,sans-Serif" font-size="10.00">include/Hermes/Socket</text>
<text text-anchor="middle" x="425.5" y="-155.5" font-family="Helvetica,sans-Serif" font-size="10.00">/Sync/ServerSocket.hpp</text>
</a>
</g>
</g>
<!-- Node9&#45;&gt;Node10 -->
<g id="edge11_Node000009_Node000010" class="edge">
<title>Node9&#45;&gt;Node10</title>
<g id="a_edge11_Node000009_Node000010"><a xlink:title=" ">
<path fill="none" stroke="#63b8ff" d="M380.94,-212.24C391.49,-200.94 403.29,-188.3 412.1,-178.86"/>
<polygon fill="#63b8ff" stroke="#63b8ff" points="378.16,-210.1 373.89,-219.79 383.27,-214.87 378.16,-210.1"/>
</a>
</g>
</g>
<!-- Node12 -->
<g id="Node000012" class="node">
<title>Node12</title>
<g id="a_Node000012"><a xlink:href="_tls_accept_state_machine_8hpp.html" target="_top" xlink:title=" ">
<polygon fill="white" stroke="#666666" points="341.5,-184 181.5,-184 181.5,-143 341.5,-143 341.5,-184"/>
<text text-anchor="start" x="189.5" y="-172" font-family="Helvetica,sans-Serif" font-size="10.00">include/Hermes/Socket</text>
<text text-anchor="start" x="189.5" y="-161" font-family="Helvetica,sans-Serif" font-size="10.00">/_base/Accept/TlsAcceptState</text>
<text text-anchor="middle" x="261.5" y="-150" font-family="Helvetica,sans-Serif" font-size="10.00">Machine.hpp</text>
</a>
</g>
</g>
<!-- Node9&#45;&gt;Node12 -->
<g id="edge13_Node000009_Node000012" class="edge">
<title>Node9&#45;&gt;Node12</title>
<g id="a_edge13_Node000009_Node000012"><a xlink:title=" ">
<path fill="none" stroke="#63b8ff" d="M322.72,-213.35C310.67,-203.73 297.24,-193.01 286.03,-184.07"/>
<polygon fill="#63b8ff" stroke="#63b8ff" points="320.8,-216.29 330.8,-219.79 325.17,-210.82 320.8,-216.29"/>
</a>
</g>
</g>
<!-- Node11 -->
<g id="Node000011" class="node">
<title>Node11</title>
<g id="a_Node000011"><a xlink:href="_listener_socket_8hpp.html" target="_top" xlink:title=" ">
<polygon fill="white" stroke="#666666" points="494.5,-101.5 356.5,-101.5 356.5,-71.5 494.5,-71.5 494.5,-101.5"/>
<text text-anchor="start" x="364.5" y="-89.5" font-family="Helvetica,sans-Serif" font-size="10.00">include/Hermes/Socket</text>
<text text-anchor="middle" x="425.5" y="-78.5" font-family="Helvetica,sans-Serif" font-size="10.00">/Sync/ListenerSocket.hpp</text>
</a>
</g>
</g>
<!-- Node10&#45;&gt;Node11 -->
<g id="edge12_Node000010_Node000011" class="edge">
<title>Node10&#45;&gt;Node11</title>
<g id="a_edge12_Node000010_Node000011"><a xlink:title=" ">
<path fill="none" stroke="#63b8ff" d="M425.5,-138.04C425.5,-125.95 425.5,-111.79 425.5,-101.54"/>
<polygon fill="#63b8ff" stroke="#63b8ff" points="422,-138.39 425.5,-148.39 429,-138.39 422,-138.39"/>
</a>
</g>
</g>
<!-- Node13&#45;&gt;Node4 -->
<g id="edge18_Node000013_Node000004" class="edge">
<title>Node13&#45;&gt;Node4</title>
<g id="a_edge18_Node000013_Node000004"><a xlink:title=" ">
<path fill="none" stroke="#63b8ff" d="M818.69,-234.4C891.14,-227.82 992.76,-213.51 1018.5,-184 1036.82,-163 1033.9,-128.66 1029.59,-107.11"/>
<polygon fill="#63b8ff" stroke="#63b8ff" points="818.33,-230.92 808.68,-235.28 818.94,-237.89 818.33,-230.92"/>
</a>
</g>
</g>
<!-- Node14 -->
<g id="Node000014" class="node">
<title>Node14</title>
<g id="a_Node000014"><a xlink:href="_default_async_connect_policy_8hpp.html" target="_top" xlink:title=" ">
<polygon fill="white" stroke="#666666" points="829,-184 656,-184 656,-143 829,-143 829,-184"/>
<text text-anchor="start" x="664" y="-172" font-family="Helvetica,sans-Serif" font-size="10.00">include/Hermes/Socket</text>
<text text-anchor="start" x="664" y="-161" font-family="Helvetica,sans-Serif" font-size="10.00">/Async/_base/Connection</text>
<text text-anchor="middle" x="742.5" y="-150" font-family="Helvetica,sans-Serif" font-size="10.00">/DefaultAsyncConnectPolicy.hpp</text>
</a>
</g>
</g>
<!-- Node13&#45;&gt;Node14 -->
<g id="edge15_Node000013_Node000014" class="edge">
<title>Node13&#45;&gt;Node14</title>
<g id="a_edge15_Node000013_Node000014"><a xlink:title=" ">
<path fill="none" stroke="#63b8ff" d="M742.5,-209.69C742.5,-201.08 742.5,-191.9 742.5,-184.07"/>
<polygon fill="#63b8ff" stroke="#63b8ff" points="739,-209.79 742.5,-219.79 746,-209.79 739,-209.79"/>
</a>
</g>
</g>
<!-- Node15 -->
<g id="Node000015" class="node">
<title>Node15</title>
<g id="a_Node000015"><a xlink:href="_client_socket_8hpp.html" target="_top" xlink:title=" ">
<polygon fill="white" stroke="#666666" points="637.5,-178.5 509.5,-178.5 509.5,-148.5 637.5,-148.5 637.5,-178.5"/>
<text text-anchor="start" x="517.5" y="-166.5" font-family="Helvetica,sans-Serif" font-size="10.00">include/Hermes/Socket</text>
<text text-anchor="middle" x="573.5" y="-155.5" font-family="Helvetica,sans-Serif" font-size="10.00">/Sync/ClientSocket.hpp</text>
</a>
</g>
</g>
<!-- Node13&#45;&gt;Node15 -->
<g id="edge19_Node000013_Node000015" class="edge">
<title>Node13&#45;&gt;Node15</title>
<g id="a_edge19_Node000013_Node000015"><a xlink:title=" ">
<path fill="none" stroke="#63b8ff" d="M689.39,-215.93C661.75,-203.66 628.89,-189.08 605.23,-178.58"/>
<polygon fill="#63b8ff" stroke="#63b8ff" points="687.98,-219.13 698.54,-219.99 690.82,-212.73 687.98,-219.13"/>
</a>
</g>
</g>
<!-- Node16 -->
<g id="Node000016" class="node">
<title>Node16</title>
<g id="a_Node000016"><a xlink:href="_tls_connect_state_machine_8hpp.html" target="_top" xlink:title=" ">
<polygon fill="white" stroke="#666666" points="1010,-184 847,-184 847,-143 1010,-143 1010,-184"/>
<text text-anchor="start" x="855" y="-172" font-family="Helvetica,sans-Serif" font-size="10.00">include/Hermes/Socket</text>
<text text-anchor="start" x="855" y="-161" font-family="Helvetica,sans-Serif" font-size="10.00">/_base/Connection/TlsConnect</text>
<text text-anchor="middle" x="928.5" y="-150" font-family="Helvetica,sans-Serif" font-size="10.00">StateMachine.hpp</text>
</a>
</g>
</g>
<!-- Node13&#45;&gt;Node16 -->
<g id="edge20_Node000013_Node000016" class="edge">
<title>Node13&#45;&gt;Node16</title>
<g id="a_edge20_Node000013_Node000016"><a xlink:title=" ">
<path fill="none" stroke="#63b8ff" d="M800.45,-216.13C826,-205.83 855.69,-193.86 880.04,-184.04"/>
<polygon fill="#63b8ff" stroke="#63b8ff" points="798.85,-213 790.88,-219.99 801.47,-219.5 798.85,-213"/>
</a>
</g>
</g>
<!-- Node14&#45;&gt;Node4 -->
<g id="edge17_Node000014_Node000004" class="edge">
<title>Node14&#45;&gt;Node4</title>
<g id="a_edge17_Node000014_Node000004"><a xlink:title=" ">
<path fill="none" stroke="#63b8ff" d="M825.54,-140.42C865.32,-129.84 912.56,-117.27 951.02,-107.04"/>
<polygon fill="#63b8ff" stroke="#63b8ff" points="824.62,-137.04 815.86,-142.99 826.42,-143.8 824.62,-137.04"/>
</a>
</g>
</g>
<!-- Node14&#45;&gt;Node5 -->
<g id="edge16_Node000014_Node000005" class="edge">
<title>Node14&#45;&gt;Node5</title>
<g id="a_edge16_Node000014_Node000005"><a xlink:title=" ">
<path fill="none" stroke="#63b8ff" d="M789.42,-138.12C848.94,-107.2 949.58,-54.92 997.54,-30.01"/>
<polygon fill="#63b8ff" stroke="#63b8ff" points="787.5,-135.18 780.24,-142.89 790.73,-141.39 787.5,-135.18"/>
</a>
</g>
</g>
<!-- Node17&#45;&gt;Node10 -->
<g id="edge23_Node000017_Node000010" class="edge">
<title>Node17&#45;&gt;Node10</title>
<g id="a_edge23_Node000017_Node000010"><a xlink:title=" ">
<path fill="none" stroke="#63b8ff" d="M526.07,-215.46C502.15,-203.34 473.96,-189.06 453.52,-178.7"/>
<polygon fill="#63b8ff" stroke="#63b8ff" points="524.5,-218.59 535,-219.99 527.66,-212.35 524.5,-218.59"/>
</a>
</g>
</g>
<!-- Node17&#45;&gt;Node15 -->
<g id="edge22_Node000017_Node000015" class="edge">
<title>Node17&#45;&gt;Node15</title>
<g id="a_edge22_Node000017_Node000015"><a xlink:title=" ">
<path fill="none" stroke="#63b8ff" d="M573.5,-209.61C573.5,-199.01 573.5,-187.57 573.5,-178.86"/>
<polygon fill="#63b8ff" stroke="#63b8ff" points="570,-209.79 573.5,-219.79 577,-209.79 570,-209.79"/>
</a>
</g>
</g>
</g>
</svg>
