<?xml version="1.0" encoding="UTF-8" standalone="no"?>
<!DOCTYPE svg PUBLIC "-//W3C//DTD SVG 1.1//EN"
 "http://www.w3.org/Graphics/SVG/1.1/DTD/svg11.dtd">
<!-- Generated by graphviz version 2.43.0 (0)
 -->
<!-- Title: include/Hermes/_base/Credentials.hpp Pages: 1 -->
<svg width="2262pt" height="236pt"
 viewBox="0.00 0.00 2261.63 236.00" xmlns="http://www.w3.org/2000/svg" xmlns:xlink="http://www.w3.org/1999/xlink">
<g id="graph0" class="graph" transform="scale(1 1) rotate(0) translate(4 232)">
<title>include/Hermes/_base/Credentials.hpp</title>
<!-- Node1 -->
<g id="Node000001" class="node">
<title>Node1</title>
<g id="a_Node000001"><a xlink:title=" ">
<polygon fill="#999999" stroke="#666666" points="1215.13,-228 1090.13,-228 1090.13,-198 1215.13,-198 1215.13,-228"/>
<text text-anchor="start" x="1098.13" y="-216" font-family="Helvetica,sans-Serif" font-size="10.00">include/Hermes/_base</text>
<text text-anchor="middle" x="1152.63" y="-205" font-family="Helvetica,sans-Serif" font-size="10.00">/Credentials.hpp</text>
</a>
</g>
</g>
<!-- Node2 -->
<g id="Node000002" class="node">
<title>Node2</title>
<g id="a_Node000002"><a xlink:href="_os_api_8hpp.html" target="_top" xlink:title=" ">
<polygon fill="white" stroke="#666666" points="984.63,-162 866.63,-162 866.63,-132 984.63,-132 984.63,-162"/>
<text text-anchor="start" x="874.63" y="-150" font-family="Helvetica,sans-Serif" font-size="10.00">Hermes/_base/OsApi</text>
<text text-anchor="middle" x="925.63" y="-139" font-family="Helvetica,sans-Serif" font-size="10.00">/OsApi.hpp</text>
</a>
</g>
</g>
<!-- Node1&#45;&gt;Node2 -->
<g id="edge1_Node000001_Node000002" class="edge">
<title>Node1&#45;&gt;Node2</title>
<g id="a_edge1_Node000001_Node000002"><a xlink:title=" ">
<path fill="none" stroke="#63b8ff" d="M1102.81,-197.95C1068.21,-188.2 1021.95,-175.16 985.37,-164.84"/>
<polygon fill="#63b8ff" stroke="#63b8ff" points="985.9,-161.36 975.33,-162.01 984,-168.09 985.9,-161.36"/>
</a>
</g>
</g>
<!-- Node21 -->
<g id="Node000021" class="node">
<title>Node21</title>
<g id="a_Node000021"><a xlink:title=" ">
<polygon fill="#e0e0e0" stroke="#999999" points="1064.63,-156.5 1002.63,-156.5 1002.63,-137.5 1064.63,-137.5 1064.63,-156.5"/>
<text text-anchor="middle" x="1033.63" y="-144.5" font-family="Helvetica,sans-Serif" font-size="10.00">expected</text>
</a>
</g>
</g>
<!-- Node1&#45;&gt;Node21 -->
<g id="edge27_Node000001_Node000021" class="edge">
<title>Node1&#45;&gt;Node21</title>
<g id="a_edge27_Node000001_Node000021"><a xlink:title=" ">
<path fill="none" stroke="#63b8ff" d="M1126.51,-197.95C1106.29,-187.08 1078.45,-172.11 1058.53,-161.4"/>
<polygon fill="#63b8ff" stroke="#63b8ff" points="1059.93,-158.17 1049.46,-156.52 1056.61,-164.34 1059.93,-158.17"/>
</a>
</g>
</g>
<!-- Node22 -->
<g id="Node000022" class="node">
<title>Node22</title>
<g id="a_Node000022"><a xlink:title=" ">
<polygon fill="#e0e0e0" stroke="#999999" points="1150.63,-156.5 1082.63,-156.5 1082.63,-137.5 1150.63,-137.5 1150.63,-156.5"/>
<text text-anchor="middle" x="1116.63" y="-144.5" font-family="Helvetica,sans-Serif" font-size="10.00">filesystem</text>
</a>
</g>
</g>
<!-- Node1&#45;&gt;Node22 -->
<g id="edge28_Node000001_Node000022" class="edge">
<title>Node1&#45;&gt;Node22</title>
<g id="a_edge28_Node000001_Node000022"><a xlink:title=" ">
<path fill="none" stroke="#63b8ff" d="M1144.64,-197.8C1139.3,-188.31 1132.24,-175.76 1126.54,-165.63"/>
<polygon fill="#63b8ff" stroke="#63b8ff" points="1129.55,-163.84 1121.6,-156.84 1123.45,-167.28 1129.55,-163.84"/>
</a>
</g>
</g>
<!-- Node23 -->
<g id="Node000023" class="node">
<title>Node23</title>
<g id="a_Node000023"><a xlink:title=" ">
<polygon fill="#e0e0e0" stroke="#999999" points="1208.63,-156.5 1168.63,-156.5 1168.63,-137.5 1208.63,-137.5 1208.63,-156.5"/>
<text text-anchor="middle" x="1188.63" y="-144.5" font-family="Helvetica,sans-Serif" font-size="10.00">span</text>
</a>
</g>
</g>
<!-- Node1&#45;&gt;Node23 -->
<g id="edge29_Node000001_Node000023" class="edge">
<title>Node1&#45;&gt;Node23</title>
<g id="a_edge29_Node000001_Node000023"><a xlink:title=" ">
<path fill="none" stroke="#63b8ff" d="M1160.62,-197.8C1165.95,-188.31 1173.01,-175.76 1178.71,-165.63"/>
<polygon fill="#63b8ff" stroke="#63b8ff" points="1181.8,-167.28 1183.65,-156.84 1175.7,-163.84 1181.8,-167.28"/>
</a>
</g>
</g>
<!-- Node24 -->
<g id="Node000024" class="node">
<title>Node24</title>
<g id="a_Node000024"><a xlink:title=" ">
<polygon fill="#e0e0e0" stroke="#999999" points="1280.13,-156.5 1227.13,-156.5 1227.13,-137.5 1280.13,-137.5 1280.13,-156.5"/>
<text text-anchor="middle" x="1253.63" y="-144.5" font-family="Helvetica,sans-Serif" font-size="10.00">cstddef</text>
</a>
</g>
</g>
<!-- Node1&#45;&gt;Node24 -->
<g id="edge30_Node000001_Node000024" class="edge">
<title>Node1&#45;&gt;Node24</title>
<g id="a_edge30_Node000001_Node000024"><a xlink:title=" ">
<path fill="none" stroke="#63b8ff" d="M1175.04,-197.8C1191.81,-187.17 1214.64,-172.7 1231.37,-162.1"/>
<polygon fill="#63b8ff" stroke="#63b8ff" points="1233.39,-164.97 1239.96,-156.66 1229.64,-159.05 1233.39,-164.97"/>
</a>
</g>
</g>
<!-- Node25 -->
<g id="Node000025" class="node">
<title>Node25</title>
<g id="a_Node000025"><a xlink:title=" ">
<polygon fill="#e0e0e0" stroke="#999999" points="1356.63,-156.5 1298.63,-156.5 1298.63,-137.5 1356.63,-137.5 1356.63,-156.5"/>
<text text-anchor="middle" x="1327.63" y="-144.5" font-family="Helvetica,sans-Serif" font-size="10.00">memory</text>
</a>
</g>
</g>
<!-- Node1&#45;&gt;Node25 -->
<g id="edge31_Node000001_Node000025" class="edge">
<title>Node1&#45;&gt;Node25</title>
<g id="a_edge31_Node000001_Node000025"><a xlink:title=" ">
<path fill="none" stroke="#63b8ff" d="M1191.03,-197.95C1222.13,-186.58 1265.45,-170.74 1294.91,-159.96"/>
<polygon fill="#63b8ff" stroke="#63b8ff" points="1296.15,-163.24 1304.34,-156.52 1293.74,-156.66 1296.15,-163.24"/>
</a>
</g>
</g>
<!-- Node3 -->
<g id="Node000003" class="node">
<title>Node3</title>
<g id="a_Node000003"><a xlink:title=" ">
<polygon fill="#e0e0e0" stroke="#999999" points="749.13,-19 672.13,-19 672.13,0 749.13,0 749.13,-19"/>
<text text-anchor="middle" x="710.63" y="-7" font-family="Helvetica,sans-Serif" font-size="10.00">sys/socket.h</text>
</a>
</g>
</g>
<!-- Node2&#45;&gt;Node3 -->
<g id="edge2_Node000002_Node000003" class="edge">
<title>Node2&#45;&gt;Node3</title>
<g id="a_edge2_Node000002_Node000003"><a xlink:title=" ">
<path fill="none" stroke="#63b8ff" d="M866.53,-137.84C815.99,-129.66 748.51,-115.48 729.63,-96 712.45,-78.29 709.42,-48.68 709.5,-29.38"/>
<polygon fill="#63b8ff" stroke="#63b8ff" points="713,-29.23 709.83,-19.12 706.01,-29 713,-29.23"/>
</a>
</g>
</g>
<!-- Node4 -->
<g id="Node000004" class="node">
<title>Node4</title>
<g id="a_Node000004"><a xlink:title=" ">
<polygon fill="#e0e0e0" stroke="#999999" points="149.63,-19 77.63,-19 77.63,0 149.63,0 149.63,-19"/>
<text text-anchor="middle" x="113.63" y="-7" font-family="Helvetica,sans-Serif" font-size="10.00">netinet/in.h</text>
</a>
</g>
</g>
<!-- Node2&#45;&gt;Node4 -->
<g id="edge3_Node000002_Node000004" class="edge">
<title>Node2&#45;&gt;Node4</title>
<g id="a_edge3_Node000002_Node000004"><a xlink:title=" ">
<path fill="none" stroke="#63b8ff" d="M866.6,-144.99C668.51,-141.31 38.17,-127.2 8.63,-96 -3.9,-82.77 -1.44,-70.19 8.63,-55 21.8,-35.1 45.85,-24.08 67.61,-17.98"/>
<polygon fill="#63b8ff" stroke="#63b8ff" points="68.56,-21.35 77.4,-15.51 66.85,-14.56 68.56,-21.35"/>
</a>
</g>
</g>
<!-- Node5 -->
<g id="Node000005" class="node">
<title>Node5</title>
<g id="a_Node000005"><a xlink:title=" ">
<polygon fill="#e0e0e0" stroke="#999999" points="296.13,-85 227.13,-85 227.13,-66 296.13,-66 296.13,-85"/>
<text text-anchor="middle" x="261.63" y="-73" font-family="Helvetica,sans-Serif" font-size="10.00">arpa/inet.h</text>
</a>
</g>
</g>
<!-- Node2&#45;&gt;Node5 -->
<g id="edge4_Node000002_Node000005" class="edge">
<title>Node2&#45;&gt;Node5</title>
<g id="a_edge4_Node000002_Node000005"><a xlink:title=" ">
<path fill="none" stroke="#63b8ff" d="M866.39,-143.76C732.63,-138.29 410.75,-122.71 305.63,-96 299.4,-94.42 292.95,-92.03 286.96,-89.46"/>
<polygon fill="#63b8ff" stroke="#63b8ff" points="288,-86.08 277.46,-85.07 285.07,-92.44 288,-86.08"/>
</a>
</g>
</g>
<!-- Node6 -->
<g id="Node000006" class="node">
<title>Node6</title>
<g id="a_Node000006"><a xlink:title=" ">
<polygon fill="#e0e0e0" stroke="#999999" points="1284.13,-19 1231.13,-19 1231.13,0 1284.13,0 1284.13,-19"/>
<text text-anchor="middle" x="1257.63" y="-7" font-family="Helvetica,sans-Serif" font-size="10.00">netdb.h</text>
</a>
</g>
</g>
<!-- Node2&#45;&gt;Node6 -->
<g id="edge5_Node000002_Node000006" class="edge">
<title>Node2&#45;&gt;Node6</title>
<g id="a_edge5_Node000002_Node000006"><a xlink:title=" ">
<path fill="none" stroke="#63b8ff" d="M984.91,-133.5C987.85,-132.97 990.77,-132.47 993.63,-132 1058.8,-121.33 1244.85,-145.45 1288.63,-96 1306.23,-76.11 1287.31,-45.44 1272.27,-26.74"/>
<polygon fill="#63b8ff" stroke="#63b8ff" points="1274.91,-24.45 1265.77,-19.08 1269.57,-28.97 1274.91,-24.45"/>
</a>
</g>
</g>
<!-- Node7 -->
<g id="Node000007" class="node">
<title>Node7</title>
<g id="a_Node000007"><a xlink:title=" ">
<polygon fill="#e0e0e0" stroke="#999999" points="506.63,-85 450.63,-85 450.63,-66 506.63,-66 506.63,-85"/>
<text text-anchor="middle" x="478.63" y="-73" font-family="Helvetica,sans-Serif" font-size="10.00">unistd.h</text>
</a>
</g>
</g>
<!-- Node2&#45;&gt;Node7 -->
<g id="edge6_Node000002_Node000007" class="edge">
<title>Node2&#45;&gt;Node7</title>
<g id="a_edge6_Node000002_Node000007"><a xlink:title=" ">
<path fill="none" stroke="#63b8ff" d="M866.3,-145.68C785.06,-143.71 635.5,-134.55 514.63,-96 510.01,-94.53 505.29,-92.45 500.86,-90.21"/>
<polygon fill="#63b8ff" stroke="#63b8ff" points="502.21,-86.95 491.76,-85.17 498.82,-93.07 502.21,-86.95"/>
</a>
</g>
</g>
<!-- Node8 -->
<g id="Node000008" class="node">
<title>Node8</title>
<g id="a_Node000008"><a xlink:href="_conversion_and_literals_8hpp.html" target="_top" xlink:title=" ">
<polygon fill="white" stroke="#666666" points="1655.63,-90.5 1505.63,-90.5 1505.63,-60.5 1655.63,-60.5 1655.63,-90.5"/>
<text text-anchor="start" x="1513.63" y="-78.5" font-family="Helvetica,sans-Serif" font-size="10.00">Hermes/_base/OsApi</text>
<text text-anchor="middle" x="1580.63" y="-67.5" font-family="Helvetica,sans-Serif" font-size="10.00">/ConversionAndLiterals.hpp</text>
</a>
</g>
</g>
<!-- Node2&#45;&gt;Node8 -->
<g id="edge7_Node000002_Node000008" class="edge">
<title>Node2&#45;&gt;Node8</title>
<g id="a_edge7_Node000002_Node000008"><a xlink:title=" ">
<path fill="none" stroke="#63b8ff" d="M984.88,-133.32C987.83,-132.84 990.76,-132.4 993.63,-132 1215.65,-101.34 1275.01,-129.44 1496.63,-96 1502.84,-95.06 1509.28,-93.91 1515.7,-92.63"/>
<polygon fill="#63b8ff" stroke="#63b8ff" points="1516.66,-96.01 1525.74,-90.54 1515.24,-89.15 1516.66,-96.01"/>
</a>
</g>
</g>
<!-- Node10 -->
<g id="Node000010" class="node">
<title>Node10</title>
<g id="a_Node000010"><a xlink:href="_macros_8hpp.html" target="_top" xlink:title=" ">
<polygon fill="white" stroke="#666666" points="432.63,-90.5 314.63,-90.5 314.63,-60.5 432.63,-60.5 432.63,-90.5"/>
<text text-anchor="start" x="322.63" y="-78.5" font-family="Helvetica,sans-Serif" font-size="10.00">Hermes/_base/OsApi</text>
<text text-anchor="middle" x="373.63" y="-67.5" font-family="Helvetica,sans-Serif" font-size="10.00">/Macros.hpp</text>
</a>
</g>
</g>
<!-- Node2&#45;&gt;Node10 -->
<g id="edge9_Node000002_Node000010" class="edge">
<title>Node2&#45;&gt;Node10</title>
<g id="a_edge9_Node000002_Node000010"><a xlink:title=" ">
<path fill="none" stroke="#63b8ff" d="M866.28,-143.24C774.51,-138.23 592.99,-125.28 441.63,-96 437.23,-95.15 432.72,-94.15 428.2,-93.05"/>
<polygon fill="#63b8ff" stroke="#63b8ff" points="428.9,-89.62 418.35,-90.53 427.17,-96.4 428.9,-89.62"/>
</a>
</g>
</g>
<!-- Node12 -->
<g id="Node000012" class="node">
<title>Node12</title>
<g id="a_Node000012"><a xlink:href="_address_family_enum_8hpp.html" target="_top" xlink:title=" ">
<polygon fill="white" stroke="#666666" points="914.63,-90.5 738.63,-90.5 738.63,-60.5 914.63,-60.5 914.63,-90.5"/>
<text text-anchor="start" x="746.63" y="-78.5" font-family="Helvetica,sans-Serif" font-size="10.00">Hermes/_base/OsApi</text>
<text text-anchor="middle" x="826.63" y="-67.5" font-family="Helvetica,sans-Serif" font-size="10.00">/Enums/AddressFamilyEnum.hpp</text>
</a>
</g>
</g>
<!-- Node2&#45;&gt;Node12 -->
<g id="edge13_Node000002_Node000012" class="edge">
<title>Node2&#45;&gt;Node12</title>
<g id="a_edge13_Node000002_Node000012"><a xlink:title=" ">
<path fill="none" stroke="#63b8ff" d="M905.59,-131.94C891.1,-121.76 871.31,-107.87 855.17,-96.54"/>
<polygon fill="#63b8ff" stroke="#63b8ff" points="856.83,-93.42 846.63,-90.54 852.8,-99.15 856.83,-93.42"/>
</a>
</g>
</g>
<!-- Node13 -->
<g id="Node000013" class="node">
<title>Node13</title>
<g id="a_Node000013"><a xlink:href="_protocol_base_type_enum_8hpp.html" target="_top" xlink:title=" ">
<polygon fill="white" stroke="#666666" points="209.13,-90.5 18.13,-90.5 18.13,-60.5 209.13,-60.5 209.13,-90.5"/>
<text text-anchor="start" x="26.13" y="-78.5" font-family="Helvetica,sans-Serif" font-size="10.00">Hermes/_base/OsApi</text>
<text text-anchor="middle" x="113.63" y="-67.5" font-family="Helvetica,sans-Serif" font-size="10.00">/Enums/ProtocolBaseTypeEnum.hpp</text>
</a>
</g>
</g>
<!-- Node2&#45;&gt;Node13 -->
<g id="edge15_Node000002_Node000013" class="edge">
<title>Node2&#45;&gt;Node13</title>
<g id="a_edge15_Node000002_Node000013"><a xlink:title=" ">
<path fill="none" stroke="#63b8ff" d="M866.19,-144.11C744.19,-139.72 456.86,-126.77 217.63,-96 209.38,-94.94 200.79,-93.64 192.25,-92.23"/>
<polygon fill="#63b8ff" stroke="#63b8ff" points="192.7,-88.76 182.26,-90.52 191.53,-95.66 192.7,-88.76"/>
</a>
</g>
</g>
<!-- Node14 -->
<g id="Node000014" class="node">
<title>Node14</title>
<g id="a_Node000014"><a xlink:href="_socket_shutdown_enum_8hpp.html" target="_top" xlink:title=" ">
<polygon fill="white" stroke="#666666" points="1117.13,-90.5 932.13,-90.5 932.13,-60.5 1117.13,-60.5 1117.13,-90.5"/>
<text text-anchor="start" x="940.13" y="-78.5" font-family="Helvetica,sans-Serif" font-size="10.00">Hermes/_base/OsApi</text>
<text text-anchor="middle" x="1024.63" y="-67.5" font-family="Helvetica,sans-Serif" font-size="10.00">/Enums/SocketShutdownEnum.hpp</text>
</a>
</g>
</g>
<!-- Node2&#45;&gt;Node14 -->
<g id="edge17_Node000002_Node000014" class="edge">
<title>Node2&#45;&gt;Node14</title>
<g id="a_edge17_Node000002_Node000014"><a xlink:title=" ">
<path fill="none" stroke="#63b8ff" d="M945.66,-131.94C960.15,-121.76 979.94,-107.87 996.09,-96.54"/>
<polygon fill="#63b8ff" stroke="#63b8ff" points="998.45,-99.15 1004.62,-90.54 994.43,-93.42 998.45,-99.15"/>
</a>
</g>
</g>
<!-- Node15 -->
<g id="Node000015" class="node">
<title>Node15</title>
<g id="a_Node000015"><a xlink:href="_socket_type_enum_8hpp.html" target="_top" xlink:title=" ">
<polygon fill="white" stroke="#666666" points="683.13,-90.5 524.13,-90.5 524.13,-60.5 683.13,-60.5 683.13,-90.5"/>
<text text-anchor="start" x="532.13" y="-78.5" font-family="Helvetica,sans-Serif" font-size="10.00">Hermes/_base/OsApi</text>
<text text-anchor="middle" x="603.63" y="-67.5" font-family="Helvetica,sans-Serif" font-size="10.00">/Enums/SocketTypeEnum.hpp</text>
</a>
</g>
</g>
<!-- Node2&#45;&gt;Node15 -->
<g id="edge19_Node000002_Node000015" class="edge">
<title>Node2&#45;&gt;Node15</title>
<g id="a_edge19_Node000002_Node000015"><a xlink:title=" ">
<path fill="none" stroke="#63b8ff" d="M866.57,-133.25C813.73,-121.85 736,-105.07 678.76,-92.72"/>
<polygon fill="#63b8ff" stroke="#63b8ff" points="679.19,-89.23 668.68,-90.54 677.71,-96.07 679.19,-89.23"/>
</a>
</g>
</g>
<!-- Node16 -->
<g id="Node000016" class="node">
<title>Node16</title>
<g id="a_Node000016"><a xlink:title=" ">
<polygon fill="#e0e0e0" stroke="#999999" points="1487.63,-96 1335.63,-96 1335.63,-55 1487.63,-55 1487.63,-96"/>
<text text-anchor="start" x="1343.63" y="-84" font-family="Helvetica,sans-Serif" font-size="10.00">Hermes/_base/OsApi</text>
<text text-anchor="start" x="1343.63" y="-73" font-family="Helvetica,sans-Serif" font-size="10.00">/Enums/Linux/EncryptStatus</text>
<text text-anchor="middle" x="1411.63" y="-62" font-family="Helvetica,sans-Serif" font-size="10.00">Enum.hpp</text>
</a>
</g>
</g>
<!-- Node2&#45;&gt;Node16 -->
<g id="edge21_Node000002_Node000016" class="edge">
<title>Node2&#45;&gt;Node16</title>
<g id="a_edge21_Node000002_Node000016"><a xlink:title=" ">
<path fill="none" stroke="#63b8ff" d="M984.9,-133.45C987.85,-132.94 990.77,-132.45 993.63,-132 1138.49,-109.19 1176.88,-119.56 1321.63,-96 1322.91,-95.79 1324.21,-95.57 1325.51,-95.35"/>
<polygon fill="#63b8ff" stroke="#63b8ff" points="1326.39,-98.75 1335.62,-93.55 1325.16,-91.86 1326.39,-98.75"/>
</a>
</g>
</g>
<!-- Node17 -->
<g id="Node000017" class="node">
<title>Node17</title>
<g id="a_Node000017"><a xlink:href="_name_info_flags_8hpp.html" target="_top" xlink:title=" ">
<polygon fill="white" stroke="#666666" points="1279.63,-90.5 1135.63,-90.5 1135.63,-60.5 1279.63,-60.5 1279.63,-90.5"/>
<text text-anchor="start" x="1143.63" y="-78.5" font-family="Helvetica,sans-Serif" font-size="10.00">Hermes/_base/OsApi</text>
<text text-anchor="middle" x="1207.63" y="-67.5" font-family="Helvetica,sans-Serif" font-size="10.00">/Flags/NameInfoFlags.hpp</text>
</a>
</g>
</g>
<!-- Node2&#45;&gt;Node17 -->
<g id="edge22_Node000002_Node000017" class="edge">
<title>Node2&#45;&gt;Node17</title>
<g id="a_edge22_Node000002_Node000017"><a xlink:title=" ">
<path fill="none" stroke="#63b8ff" d="M982.69,-131.94C1028.37,-120.68 1092.52,-104.87 1140.63,-93.01"/>
<polygon fill="#63b8ff" stroke="#63b8ff" points="1141.77,-96.33 1150.64,-90.54 1140.1,-89.54 1141.77,-96.33"/>
</a>
</g>
</g>
<!-- Node18 -->
<g id="Node000018" class="node">
<title>Node18</title>
<g id="a_Node000018"><a xlink:title=" ">
<polygon fill="#e0e0e0" stroke="#999999" points="1849.63,-90.5 1673.63,-90.5 1673.63,-60.5 1849.63,-60.5 1849.63,-90.5"/>
<text text-anchor="start" x="1681.63" y="-78.5" font-family="Helvetica,sans-Serif" font-size="10.00">Hermes/_base/OsApi</text>
<text text-anchor="middle" x="1761.63" y="-67.5" font-family="Helvetica,sans-Serif" font-size="10.00">/Flags/Linux/CredentialFlags.hpp</text>
</a>
</g>
</g>
<!-- Node2&#45;&gt;Node18 -->
<g id="edge24_Node000002_Node000018" class="edge">
<title>Node2&#45;&gt;Node18</title>
<g id="a_edge24_Node000002_Node000018"><a xlink:title=" ">
<path fill="none" stroke="#63b8ff" d="M984.88,-133.26C987.83,-132.79 990.76,-132.37 993.63,-132 1289.82,-93.78 1368.34,-133.53 1664.63,-96 1672.5,-95 1680.69,-93.73 1688.83,-92.31"/>
<polygon fill="#63b8ff" stroke="#63b8ff" points="1689.49,-95.75 1698.71,-90.52 1688.24,-88.86 1689.49,-95.75"/>
</a>
</g>
</g>
<!-- Node19 -->
<g id="Node000019" class="node">
<title>Node19</title>
<g id="a_Node000019"><a xlink:title=" ">
<polygon fill="#e0e0e0" stroke="#999999" points="2041.13,-96 1868.13,-96 1868.13,-55 2041.13,-55 2041.13,-96"/>
<text text-anchor="start" x="1876.13" y="-84" font-family="Helvetica,sans-Serif" font-size="10.00">Hermes/_base/OsApi</text>
<text text-anchor="start" x="1876.13" y="-73" font-family="Helvetica,sans-Serif" font-size="10.00">/Flags/Linux/SupportedProtocols</text>
<text text-anchor="middle" x="1954.63" y="-62" font-family="Helvetica,sans-Serif" font-size="10.00">Flags.hpp</text>
</a>
</g>
</g>
<!-- Node2&#45;&gt;Node19 -->
<g id="edge25_Node000002_Node000019" class="edge">
<title>Node2&#45;&gt;Node19</title>
<g id="a_edge25_Node000002_Node000019"><a xlink:title=" ">
<path fill="none" stroke="#63b8ff" d="M984.87,-133.22C987.82,-132.76 990.75,-132.35 993.63,-132 1372.26,-85.45 1474.91,-141.47 1858.15,-95.93"/>
<polygon fill="#63b8ff" stroke="#63b8ff" points="1858.61,-99.4 1868.12,-94.73 1857.78,-92.45 1858.61,-99.4"/>
</a>
</g>
</g>
<!-- Node20 -->
<g id="Node000020" class="node">
<title>Node20</title>
<g id="a_Node000020"><a xlink:title=" ">
<polygon fill="#e0e0e0" stroke="#999999" points="2253.63,-90.5 2059.63,-90.5 2059.63,-60.5 2253.63,-60.5 2253.63,-90.5"/>
<text text-anchor="start" x="2067.63" y="-78.5" font-family="Helvetica,sans-Serif" font-size="10.00">Hermes/_base/OsApi</text>
<text text-anchor="middle" x="2156.63" y="-67.5" font-family="Helvetica,sans-Serif" font-size="10.00">/Flags/Linux/SChannelCredFlags.hpp</text>
</a>
</g>
</g>
<!-- Node2&#45;&gt;Node20 -->
<g id="edge26_Node000002_Node000020" class="edge">
<title>Node2&#45;&gt;Node20</title>
<g id="a_edge26_Node000002_Node000020"><a xlink:title=" ">
<path fill="none" stroke="#63b8ff" d="M984.87,-133.19C987.82,-132.74 990.75,-132.34 993.63,-132 1460.38,-76.41 1583.31,-146.66 2050.63,-96 2059.71,-95.02 2069.19,-93.7 2078.57,-92.21"/>
<polygon fill="#63b8ff" stroke="#63b8ff" points="2079.41,-95.62 2088.7,-90.53 2078.27,-88.71 2079.41,-95.62"/>
</a>
</g>
</g>
<!-- Node9 -->
<g id="Node000009" class="node">
<title>Node9</title>
<g id="a_Node000009"><a xlink:title=" ">
<polygon fill="#e0e0e0" stroke="#999999" points="1605.63,-19 1555.63,-19 1555.63,0 1605.63,0 1605.63,-19"/>
<text text-anchor="middle" x="1580.63" y="-7" font-family="Helvetica,sans-Serif" font-size="10.00">cstdint</text>
</a>
</g>
</g>
<!-- Node8&#45;&gt;Node9 -->
<g id="edge8_Node000008_Node000009" class="edge">
<title>Node8&#45;&gt;Node9</title>
<g id="a_edge8_Node000008_Node000009"><a xlink:title=" ">
<path fill="none" stroke="#63b8ff" d="M1580.63,-60.3C1580.63,-51.2 1580.63,-39.29 1580.63,-29.4"/>
<polygon fill="#63b8ff" stroke="#63b8ff" points="1584.13,-29.34 1580.63,-19.34 1577.13,-29.34 1584.13,-29.34"/>
</a>
</g>
</g>
<!-- Node10&#45;&gt;Node3 -->
<g id="edge11_Node000010_Node000003" class="edge">
<title>Node10&#45;&gt;Node3</title>
<g id="a_edge11_Node000010_Node000003"><a xlink:title=" ">
<path fill="none" stroke="#63b8ff" d="M419.9,-60.46C427.13,-58.49 434.56,-56.59 441.63,-55 517.98,-37.8 607.92,-24.25 662.04,-16.82"/>
<polygon fill="#63b8ff" stroke="#63b8ff" points="662.61,-20.27 672.05,-15.46 661.67,-13.34 662.61,-20.27"/>
</a>
</g>
</g>
<!-- Node10&#45;&gt;Node4 -->
<g id="edge12_Node000010_Node000004" class="edge">
<title>Node10&#45;&gt;Node4</title>
<g id="a_edge12_Node000010_Node000004"><a xlink:title=" ">
<path fill="none" stroke="#63b8ff" d="M325.07,-60.47C318.22,-58.58 311.26,-56.71 304.63,-55 255.29,-42.29 198.38,-29.23 159.6,-20.58"/>
<polygon fill="#63b8ff" stroke="#63b8ff" points="160.18,-17.12 149.65,-18.37 158.66,-23.96 160.18,-17.12"/>
</a>
</g>
</g>
<!-- Node11 -->
<g id="Node000011" class="node">
<title>Node11</title>
<g id="a_Node000011"><a xlink:title=" ">
<polygon fill="#e0e0e0" stroke="#999999" points="410.13,-19 337.13,-19 337.13,0 410.13,0 410.13,-19"/>
<text text-anchor="middle" x="373.63" y="-7" font-family="Helvetica,sans-Serif" font-size="10.00">string_view</text>
</a>
</g>
</g>
<!-- Node10&#45;&gt;Node11 -->
<g id="edge10_Node000010_Node000011" class="edge">
<title>Node10&#45;&gt;Node11</title>
<g id="a_edge10_Node000010_Node000011"><a xlink:title=" ">
<path fill="none" stroke="#63b8ff" d="M373.63,-60.3C373.63,-51.2 373.63,-39.29 373.63,-29.4"/>
<polygon fill="#63b8ff" stroke="#63b8ff" points="377.13,-29.34 373.63,-19.34 370.13,-29.34 377.13,-29.34"/>
</a>
</g>
</g>
<!-- Node12&#45;&gt;Node3 -->
<g id="edge14_Node000012_Node000003" class="edge">
<title>Node12&#45;&gt;Node3</title>
<g id="a_edge14_Node000012_Node000003"><a xlink:title=" ">
<path fill="none" stroke="#63b8ff" d="M801.17,-60.45C781.45,-49.58 754.32,-34.61 734.91,-23.9"/>
<polygon fill="#63b8ff" stroke="#63b8ff" points="736.51,-20.78 726.06,-19.02 733.13,-26.91 736.51,-20.78"/>
</a>
</g>
</g>
<!-- Node13&#45;&gt;Node4 -->
<g id="edge16_Node000013_Node000004" class="edge">
<title>Node13&#45;&gt;Node4</title>
<g id="a_edge16_Node000013_Node000004"><a xlink:title=" ">
<path fill="none" stroke="#63b8ff" d="M113.63,-60.3C113.63,-51.2 113.63,-39.29 113.63,-29.4"/>
<polygon fill="#63b8ff" stroke="#63b8ff" points="117.13,-29.34 113.63,-19.34 110.13,-29.34 117.13,-29.34"/>
</a>
</g>
</g>
<!-- Node14&#45;&gt;Node3 -->
<g id="edge18_Node000014_Node000003" class="edge">
<title>Node14&#45;&gt;Node3</title>
<g id="a_edge18_Node000014_Node000003"><a xlink:title=" ">
<path fill="none" stroke="#63b8ff" d="M955.72,-60.45C896.31,-48.35 812.03,-31.17 759.38,-20.44"/>
<polygon fill="#63b8ff" stroke="#63b8ff" points="759.79,-16.95 749.29,-18.38 758.39,-23.81 759.79,-16.95"/>
</a>
</g>
</g>
<!-- Node15&#45;&gt;Node3 -->
<g id="edge20_Node000015_Node000003" class="edge">
<title>Node15&#45;&gt;Node3</title>
<g id="a_edge20_Node000015_Node000003"><a xlink:title=" ">
<path fill="none" stroke="#63b8ff" d="M627.11,-60.45C645.13,-49.68 669.87,-34.88 687.74,-24.19"/>
<polygon fill="#63b8ff" stroke="#63b8ff" points="689.6,-27.15 696.39,-19.02 686.01,-21.15 689.6,-27.15"/>
</a>
</g>
</g>
<!-- Node17&#45;&gt;Node6 -->
<g id="edge23_Node000017_Node000006" class="edge">
<title>Node17&#45;&gt;Node6</title>
<g id="a_edge23_Node000017_Node000006"><a xlink:title=" ">
<path fill="none" stroke="#63b8ff" d="M1218.72,-60.3C1226.29,-50.61 1236.34,-37.74 1244.34,-27.51"/>
<polygon fill="#63b8ff" stroke="#63b8ff" points="1247.32,-29.38 1250.72,-19.34 1241.8,-25.07 1247.32,-29.38"/>
</a>
</g>
</g>
</g>
</svg>
