<?xml version="1.0" encoding="UTF-8" standalone="no"?>
<!DOCTYPE svg PUBLIC "-//W3C//DTD SVG 1.1//EN"
 "http://www.w3.org/Graphics/SVG/1.1/DTD/svg11.dtd">
<!-- Generated by graphviz version 2.43.0 (0)
 -->
<!-- Title: include/Hermes/_base/Credentials.hpp Pages: 1 -->
<svg width="808pt" height="401pt"
 viewBox="0.00 0.00 807.69 401.00" xmlns="http://www.w3.org/2000/svg" xmlns:xlink="http://www.w3.org/1999/xlink">
<g id="graph0" class="graph" transform="scale(1 1) rotate(0) translate(4 397)">
<title>include/Hermes/_base/Credentials.hpp</title>
<!-- Node1 -->
<g id="Node000001" class="node">
<title>Node1</title>
<g id="a_Node000001"><a xlink:title=" ">
<polygon fill="#999999" stroke="#666666" points="538.69,-393 413.69,-393 413.69,-363 538.69,-363 538.69,-393"/>
<text text-anchor="start" x="421.69" y="-381" font-family="Helvetica,sans-Serif" font-size="10.00">include/Hermes/_base</text>
<text text-anchor="middle" x="476.19" y="-370" font-family="Helvetica,sans-Serif" font-size="10.00">/Credentials.hpp</text>
</a>
</g>
</g>
<!-- Node2 -->
<g id="Node000002" class="node">
<title>Node2</title>
<g id="a_Node000002"><a xlink:href="_tls_socket_data_8hpp.html" target="_top" xlink:title=" ">
<polygon fill="white" stroke="#666666" points="470.69,-327 333.69,-327 333.69,-297 470.69,-297 470.69,-327"/>
<text text-anchor="start" x="341.69" y="-315" font-family="Helvetica,sans-Serif" font-size="10.00">include/Hermes/Socket</text>
<text text-anchor="middle" x="402.19" y="-304" font-family="Helvetica,sans-Serif" font-size="10.00">/Data/TlsSocketData.hpp</text>
</a>
</g>
</g>
<!-- Node1&#45;&gt;Node2 -->
<g id="edge1_Node000001_Node000002" class="edge">
<title>Node1&#45;&gt;Node2</title>
<g id="a_edge1_Node000001_Node000002"><a xlink:title=" ">
<path fill="none" stroke="#63b8ff" d="M452.14,-356.2C441.16,-346.7 428.43,-335.69 418.57,-327.16"/>
<polygon fill="#63b8ff" stroke="#63b8ff" points="449.92,-358.9 459.77,-362.8 454.5,-353.61 449.92,-358.9"/>
</a>
</g>
</g>
<!-- Node15 -->
<g id="Node000015" class="node">
<title>Node15</title>
<g id="a_Node000015"><a xlink:href="_network_8hpp.html" target="_top" xlink:title=" ">
<polygon fill="white" stroke="#666666" points="613.69,-327 488.69,-327 488.69,-297 613.69,-297 613.69,-327"/>
<text text-anchor="start" x="496.69" y="-315" font-family="Helvetica,sans-Serif" font-size="10.00">include/Hermes/_base</text>
<text text-anchor="middle" x="551.19" y="-304" font-family="Helvetica,sans-Serif" font-size="10.00">/Network.hpp</text>
</a>
</g>
</g>
<!-- Node1&#45;&gt;Node15 -->
<g id="edge20_Node000001_Node000015" class="edge">
<title>Node1&#45;&gt;Node15</title>
<g id="a_edge20_Node000001_Node000015"><a xlink:title=" ">
<path fill="none" stroke="#63b8ff" d="M500.57,-356.2C511.7,-346.7 524.6,-335.69 534.59,-327.16"/>
<polygon fill="#63b8ff" stroke="#63b8ff" points="498.17,-353.64 492.84,-362.8 502.72,-358.97 498.17,-353.64"/>
</a>
</g>
</g>
<!-- Node3 -->
<g id="Node000003" class="node">
<title>Node3</title>
<g id="a_Node000003"><a xlink:href="_tls_async_connect_policy_8hpp.html" target="_top" xlink:title=" ">
<polygon fill="white" stroke="#666666" points="374.19,-107 222.19,-107 222.19,-66 374.19,-66 374.19,-107"/>
<text text-anchor="start" x="230.19" y="-95" font-family="Helvetica,sans-Serif" font-size="10.00">include/Hermes/Socket</text>
<text text-anchor="start" x="230.19" y="-84" font-family="Helvetica,sans-Serif" font-size="10.00">/Async/_base/Connection</text>
<text text-anchor="middle" x="298.19" y="-73" font-family="Helvetica,sans-Serif" font-size="10.00">/TlsAsyncConnectPolicy.hpp</text>
</a>
</g>
</g>
<!-- Node2&#45;&gt;Node3 -->
<g id="edge2_Node000002_Node000003" class="edge">
<title>Node2&#45;&gt;Node3</title>
<g id="a_edge2_Node000002_Node000003"><a xlink:title=" ">
<path fill="none" stroke="#63b8ff" d="M364.93,-291.66C351.8,-283.51 337.7,-273.09 327.19,-261 302.29,-232.34 298.63,-221.02 290.19,-184 284.26,-157.94 288.78,-127.02 293.06,-107.34"/>
<polygon fill="#63b8ff" stroke="#63b8ff" points="363.43,-294.84 373.82,-296.93 367,-288.82 363.43,-294.84"/>
</a>
</g>
</g>
<!-- Node5 -->
<g id="Node000005" class="node">
<title>Node5</title>
<g id="a_Node000005"><a xlink:href="_tls_async_transfer_policy_8hpp.html" target="_top" xlink:title=" ">
<polygon fill="white" stroke="#666666" points="192.69,-261 41.69,-261 41.69,-220 192.69,-220 192.69,-261"/>
<text text-anchor="start" x="49.69" y="-249" font-family="Helvetica,sans-Serif" font-size="10.00">include/Hermes/Socket</text>
<text text-anchor="start" x="49.69" y="-238" font-family="Helvetica,sans-Serif" font-size="10.00">/Async/_base/Transfer</text>
<text text-anchor="middle" x="117.19" y="-227" font-family="Helvetica,sans-Serif" font-size="10.00">/TlsAsyncTransferPolicy.hpp</text>
</a>
</g>
</g>
<!-- Node2&#45;&gt;Node5 -->
<g id="edge4_Node000002_Node000005" class="edge">
<title>Node2&#45;&gt;Node5</title>
<g id="a_edge4_Node000002_Node000005"><a xlink:title=" ">
<path fill="none" stroke="#63b8ff" d="M334.8,-294.57C292.19,-284.17 237.03,-270.72 192.9,-259.96"/>
<polygon fill="#63b8ff" stroke="#63b8ff" points="333.97,-297.97 344.52,-296.94 335.63,-291.17 333.97,-297.97"/>
</a>
</g>
</g>
<!-- Node8 -->
<g id="Node000008" class="node">
<title>Node8</title>
<g id="a_Node000008"><a xlink:href="_tls_accept_policy_8hpp.html" target="_top" xlink:title=" ">
<polygon fill="white" stroke="#666666" points="799.69,-261 638.69,-261 638.69,-220 799.69,-220 799.69,-261"/>
<text text-anchor="start" x="646.69" y="-249" font-family="Helvetica,sans-Serif" font-size="10.00">include/Hermes/Socket</text>
<text text-anchor="start" x="646.69" y="-238" font-family="Helvetica,sans-Serif" font-size="10.00">/Sync/_base/Accept/TlsAccept</text>
<text text-anchor="middle" x="719.19" y="-227" font-family="Helvetica,sans-Serif" font-size="10.00">Policy.hpp</text>
</a>
</g>
</g>
<!-- Node2&#45;&gt;Node8 -->
<g id="edge8_Node000002_Node000008" class="edge">
<title>Node2&#45;&gt;Node8</title>
<g id="a_edge8_Node000002_Node000008"><a xlink:title=" ">
<path fill="none" stroke="#63b8ff" d="M476.18,-294.78C524.84,-284.11 588.54,-270.15 638.51,-259.19"/>
<polygon fill="#63b8ff" stroke="#63b8ff" points="475.36,-291.38 466.34,-296.94 476.86,-298.21 475.36,-291.38"/>
</a>
</g>
</g>
<!-- Node11 -->
<g id="Node000011" class="node">
<title>Node11</title>
<g id="a_Node000011"><a xlink:href="_tls_connect_policy_8hpp.html" target="_top" xlink:title=" ">
<polygon fill="white" stroke="#666666" points="468.19,-261 336.19,-261 336.19,-220 468.19,-220 468.19,-261"/>
<text text-anchor="start" x="344.19" y="-249" font-family="Helvetica,sans-Serif" font-size="10.00">include/Hermes/Socket</text>
<text text-anchor="start" x="344.19" y="-238" font-family="Helvetica,sans-Serif" font-size="10.00">/Sync/_base/Connection</text>
<text text-anchor="middle" x="402.19" y="-227" font-family="Helvetica,sans-Serif" font-size="10.00">/TlsConnectPolicy.hpp</text>
</a>
</g>
</g>
<!-- Node2&#45;&gt;Node11 -->
<g id="edge11_Node000002_Node000011" class="edge">
<title>Node2&#45;&gt;Node11</title>
<g id="a_edge11_Node000002_Node000011"><a xlink:title=" ">
<path fill="none" stroke="#63b8ff" d="M402.19,-286.91C402.19,-278.47 402.19,-269.1 402.19,-261.07"/>
<polygon fill="#63b8ff" stroke="#63b8ff" points="398.69,-286.94 402.19,-296.94 405.69,-286.94 398.69,-286.94"/>
</a>
</g>
</g>
<!-- Node14 -->
<g id="Node000014" class="node">
<title>Node14</title>
<g id="a_Node000014"><a xlink:href="_tls_transfer_policy_8hpp.html" target="_top" xlink:title=" ">
<polygon fill="white" stroke="#666666" points="620.19,-261 492.19,-261 492.19,-220 620.19,-220 620.19,-261"/>
<text text-anchor="start" x="500.19" y="-249" font-family="Helvetica,sans-Serif" font-size="10.00">include/Hermes/Socket</text>
<text text-anchor="start" x="500.19" y="-238" font-family="Helvetica,sans-Serif" font-size="10.00">/Sync/_base/Transfer</text>
<text text-anchor="middle" x="556.19" y="-227" font-family="Helvetica,sans-Serif" font-size="10.00">/TlsTransferPolicy.hpp</text>
</a>
</g>
</g>
<!-- Node2&#45;&gt;Node14 -->
<g id="edge17_Node000002_Node000014" class="edge">
<title>Node2&#45;&gt;Node14</title>
<g id="a_edge17_Node000002_Node000014"><a xlink:title=" ">
<path fill="none" stroke="#63b8ff" d="M442.59,-292.77C464.18,-283.02 490.79,-271.02 512.82,-261.07"/>
<polygon fill="#63b8ff" stroke="#63b8ff" points="441.03,-289.63 433.36,-296.94 443.91,-296.01 441.03,-289.63"/>
</a>
</g>
</g>
<!-- Node4 -->
<g id="Node000004" class="node">
<title>Node4</title>
<g id="a_Node000004"><a xlink:href="_async_client_socket_8hpp.html" target="_top" xlink:title=" ">
<polygon fill="white" stroke="#666666" points="379.69,-30 216.69,-30 216.69,0 379.69,0 379.69,-30"/>
<text text-anchor="start" x="224.69" y="-18" font-family="Helvetica,sans-Serif" font-size="10.00">include/Hermes/Socket</text>
<text text-anchor="middle" x="298.19" y="-7" font-family="Helvetica,sans-Serif" font-size="10.00">/Async/AsyncClientSocket.hpp</text>
</a>
</g>
</g>
<!-- Node3&#45;&gt;Node4 -->
<g id="edge3_Node000003_Node000004" class="edge">
<title>Node3&#45;&gt;Node4</title>
<g id="a_edge3_Node000003_Node000004"><a xlink:title=" ">
<path fill="none" stroke="#63b8ff" d="M298.19,-55.66C298.19,-46.76 298.19,-37.42 298.19,-30.04"/>
<polygon fill="#63b8ff" stroke="#63b8ff" points="294.69,-55.77 298.19,-65.77 301.69,-55.77 294.69,-55.77"/>
</a>
</g>
</g>
<!-- Node5&#45;&gt;Node4 -->
<g id="edge5_Node000005_Node000004" class="edge">
<title>Node5&#45;&gt;Node4</title>
<g id="a_edge5_Node000005_Node000004"><a xlink:title=" ">
<path fill="none" stroke="#63b8ff" d="M56.84,-214.66C44.37,-206.72 32.75,-196.61 25.19,-184 -1.78,-138.99 -12.46,-106.27 21.19,-66 45.75,-36.61 144.09,-24.47 216.65,-19.47"/>
<polygon fill="#63b8ff" stroke="#63b8ff" points="55.18,-217.75 65.57,-219.83 58.75,-211.72 55.18,-217.75"/>
</a>
</g>
</g>
<!-- Node6 -->
<g id="Node000006" class="node">
<title>Node6</title>
<g id="a_Node000006"><a xlink:href="_async_server_socket_8hpp.html" target="_top" xlink:title=" ">
<polygon fill="white" stroke="#666666" points="200.19,-178.5 34.19,-178.5 34.19,-148.5 200.19,-148.5 200.19,-178.5"/>
<text text-anchor="start" x="42.19" y="-166.5" font-family="Helvetica,sans-Serif" font-size="10.00">include/Hermes/Socket</text>
<text text-anchor="middle" x="117.19" y="-155.5" font-family="Helvetica,sans-Serif" font-size="10.00">/Async/AsyncServerSocket.hpp</text>
</a>
</g>
</g>
<!-- Node5&#45;&gt;Node6 -->
<g id="edge6_Node000005_Node000006" class="edge">
<title>Node5&#45;&gt;Node6</title>
<g id="a_edge6_Node000005_Node000006"><a xlink:title=" ">
<path fill="none" stroke="#63b8ff" d="M117.19,-209.61C117.19,-199.01 117.19,-187.57 117.19,-178.86"/>
<polygon fill="#63b8ff" stroke="#63b8ff" points="113.69,-209.79 117.19,-219.79 120.69,-209.79 113.69,-209.79"/>
</a>
</g>
</g>
<!-- Node7 -->
<g id="Node000007" class="node">
<title>Node7</title>
<g id="a_Node000007"><a xlink:href="_async_listener_socket_8hpp.html" target="_top" xlink:title=" ">
<polygon fill="white" stroke="#666666" points="203.69,-101.5 30.69,-101.5 30.69,-71.5 203.69,-71.5 203.69,-101.5"/>
<text text-anchor="start" x="38.69" y="-89.5" font-family="Helvetica,sans-Serif" font-size="10.00">include/Hermes/Socket</text>
<text text-anchor="middle" x="117.19" y="-78.5" font-family="Helvetica,sans-Serif" font-size="10.00">/Async/AsyncListenerSocket.hpp</text>
</a>
</g>
</g>
<!-- Node6&#45;&gt;Node7 -->
<g id="edge7_Node000006_Node000007" class="edge">
<title>Node6&#45;&gt;Node7</title>
<g id="a_edge7_Node000006_Node000007"><a xlink:title=" ">
<path fill="none" stroke="#63b8ff" d="M117.19,-138.04C117.19,-125.95 117.19,-111.79 117.19,-101.54"/>
<polygon fill="#63b8ff" stroke="#63b8ff" points="113.69,-138.39 117.19,-148.39 120.69,-138.39 113.69,-138.39"/>
</a>
</g>
</g>
<!-- Node9 -->
<g id="Node000009" class="node">
<title>Node9</title>
<g id="a_Node000009"><a xlink:href="_server_socket_8hpp.html" target="_top" xlink:title=" ">
<polygon fill="white" stroke="#666666" points="784.69,-178.5 653.69,-178.5 653.69,-148.5 784.69,-148.5 784.69,-178.5"/>
<text text-anchor="start" x="661.69" y="-166.5" font-family="Helvetica,sans-Serif" font-size="10.00">include/Hermes/Socket</text>
<text text-anchor="middle" x="719.19" y="-155.5" font-family="Helvetica,sans-Serif" font-size="10.00">/Sync/ServerSocket.hpp</text>
</a>
</g>
</g>
<!-- Node8&#45;&gt;Node9 -->
<g id="edge9_Node000008_Node000009" class="edge">
<title>Node8&#45;&gt;Node9</title>
<g id="a_edge9_Node000008_Node000009"><a xlink:title=" ">
<path fill="none" stroke="#63b8ff" d="M719.19,-209.61C719.19,-199.01 719.19,-187.57 719.19,-178.86"/>
<polygon fill="#63b8ff" stroke="#63b8ff" points="715.69,-209.79 719.19,-219.79 722.69,-209.79 715.69,-209.79"/>
</a>
</g>
</g>
<!-- Node10 -->
<g id="Node000010" class="node">
<title>Node10</title>
<g id="a_Node000010"><a xlink:href="_listener_socket_8hpp.html" target="_top" xlink:title=" ">
<polygon fill="white" stroke="#666666" points="788.19,-101.5 650.19,-101.5 650.19,-71.5 788.19,-71.5 788.19,-101.5"/>
<text text-anchor="start" x="658.19" y="-89.5" font-family="Helvetica,sans-Serif" font-size="10.00">include/Hermes/Socket</text>
<text text-anchor="middle" x="719.19" y="-78.5" font-family="Helvetica,sans-Serif" font-size="10.00">/Sync/ListenerSocket.hpp</text>
</a>
</g>
</g>
<!-- Node9&#45;&gt;Node10 -->
<g id="edge10_Node000009_Node000010" class="edge">
<title>Node9&#45;&gt;Node10</title>
<g id="a_edge10_Node000009_Node000010"><a xlink:title=" ">
<path fill="none" stroke="#63b8ff" d="M719.19,-138.04C719.19,-125.95 719.19,-111.79 719.19,-101.54"/>
<polygon fill="#63b8ff" stroke="#63b8ff" points="715.69,-138.39 719.19,-148.39 722.69,-138.39 715.69,-138.39"/>
</a>
</g>
</g>
<!-- Node11&#45;&gt;Node3 -->
<g id="edge15_Node000011_Node000003" class="edge">
<title>Node11&#45;&gt;Node3</title>
<g id="a_edge15_Node000011_Node000003"><a xlink:title=" ">
<path fill="none" stroke="#63b8ff" d="M339.35,-214.84C326.41,-206.9 314.27,-196.75 306.19,-184 291.53,-160.85 292.3,-128.06 294.79,-107.29"/>
<polygon fill="#63b8ff" stroke="#63b8ff" points="337.99,-218.09 348.41,-219.99 341.45,-212 337.99,-218.09"/>
</a>
</g>
</g>
<!-- Node12 -->
<g id="Node000012" class="node">
<title>Node12</title>
<g id="a_Node000012"><a xlink:href="_default_async_connect_policy_8hpp.html" target="_top" xlink:title=" ">
<polygon fill="white" stroke="#666666" points="488.69,-184 315.69,-184 315.69,-143 488.69,-143 488.69,-184"/>
<text text-anchor="start" x="323.69" y="-172" font-family="Helvetica,sans-Serif" font-size="10.00">include/Hermes/Socket</text>
<text text-anchor="start" x="323.69" y="-161" font-family="Helvetica,sans-Serif" font-size="10.00">/Async/_base/Connection</text>
<text text-anchor="middle" x="402.19" y="-150" font-family="Helvetica,sans-Serif" font-size="10.00">/DefaultAsyncConnectPolicy.hpp</text>
</a>
</g>
</g>
<!-- Node11&#45;&gt;Node12 -->
<g id="edge12_Node000011_Node000012" class="edge">
<title>Node11&#45;&gt;Node12</title>
<g id="a_edge12_Node000011_Node000012"><a xlink:title=" ">
<path fill="none" stroke="#63b8ff" d="M402.19,-209.69C402.19,-201.08 402.19,-191.9 402.19,-184.07"/>
<polygon fill="#63b8ff" stroke="#63b8ff" points="398.69,-209.79 402.19,-219.79 405.69,-209.79 398.69,-209.79"/>
</a>
</g>
</g>
<!-- Node13 -->
<g id="Node000013" class="node">
<title>Node13</title>
<g id="a_Node000013"><a xlink:href="_client_socket_8hpp.html" target="_top" xlink:title=" ">
<polygon fill="white" stroke="#666666" points="635.19,-178.5 507.19,-178.5 507.19,-148.5 635.19,-148.5 635.19,-178.5"/>
<text text-anchor="start" x="515.19" y="-166.5" font-family="Helvetica,sans-Serif" font-size="10.00">include/Hermes/Socket</text>
<text text-anchor="middle" x="571.19" y="-155.5" font-family="Helvetica,sans-Serif" font-size="10.00">/Sync/ClientSocket.hpp</text>
</a>
</g>
</g>
<!-- Node11&#45;&gt;Node13 -->
<g id="edge16_Node000011_Node000013" class="edge">
<title>Node11&#45;&gt;Node13</title>
<g id="a_edge16_Node000011_Node000013"><a xlink:title=" ">
<path fill="none" stroke="#63b8ff" d="M455.31,-215.93C482.94,-203.66 515.8,-189.08 539.46,-178.58"/>
<polygon fill="#63b8ff" stroke="#63b8ff" points="453.88,-212.73 446.15,-219.99 456.71,-219.13 453.88,-212.73"/>
</a>
</g>
</g>
<!-- Node12&#45;&gt;Node3 -->
<g id="edge14_Node000012_Node000003" class="edge">
<title>Node12&#45;&gt;Node3</title>
<g id="a_edge14_Node000012_Node000003"><a xlink:title=" ">
<path fill="none" stroke="#63b8ff" d="M366.96,-137.09C353.41,-127.32 338.16,-116.32 325.47,-107.17"/>
<polygon fill="#63b8ff" stroke="#63b8ff" points="364.98,-139.98 375.14,-142.99 369.08,-134.3 364.98,-139.98"/>
</a>
</g>
</g>
<!-- Node12&#45;&gt;Node4 -->
<g id="edge13_Node000012_Node000004" class="edge">
<title>Node12&#45;&gt;Node4</title>
<g id="a_edge13_Node000012_Node000004"><a xlink:title=" ">
<path fill="none" stroke="#63b8ff" d="M402.53,-132.88C401.38,-112.4 396.99,-85.45 383.19,-66 371.81,-49.94 353.5,-38.22 336.78,-30.18"/>
<polygon fill="#63b8ff" stroke="#63b8ff" points="399.04,-133.04 402.87,-142.92 406.03,-132.81 399.04,-133.04"/>
</a>
</g>
</g>
<!-- Node14&#45;&gt;Node9 -->
<g id="edge19_Node000014_Node000009" class="edge">
<title>Node14&#45;&gt;Node9</title>
<g id="a_edge19_Node000014_Node000009"><a xlink:title=" ">
<path fill="none" stroke="#63b8ff" d="M607.77,-215.77C634.35,-203.54 665.87,-189.04 688.59,-178.58"/>
<polygon fill="#63b8ff" stroke="#63b8ff" points="606.22,-212.63 598.59,-219.99 609.14,-218.99 606.22,-212.63"/>
</a>
</g>
</g>
<!-- Node14&#45;&gt;Node13 -->
<g id="edge18_Node000014_Node000013" class="edge">
<title>Node14&#45;&gt;Node13</title>
<g id="a_edge18_Node000014_Node000013"><a xlink:title=" ">
<path fill="none" stroke="#63b8ff" d="M562.1,-209.94C564.24,-199.25 566.56,-187.66 568.32,-178.86"/>
<polygon fill="#63b8ff" stroke="#63b8ff" points="558.66,-209.3 560.13,-219.79 565.53,-210.68 558.66,-209.3"/>
</a>
</g>
</g>
</g>
</svg>
