<?xml version="1.0" encoding="UTF-8" standalone="no"?>
<!DOCTYPE svg PUBLIC "-//W3C//DTD SVG 1.1//EN"
 "http://www.w3.org/Graphics/SVG/1.1/DTD/svg11.dtd">
<!-- Generated by graphviz version 2.43.0 (0)
 -->
<!-- Title: include/Hermes/Socket/Data/DefaultSocketData.hpp Pages: 1 -->
<svg width="1211pt" height="346pt"
 viewBox="0.00 0.00 1211.00 346.00" xmlns="http://www.w3.org/2000/svg" xmlns:xlink="http://www.w3.org/1999/xlink">
<g id="graph0" class="graph" transform="scale(1 1) rotate(0) translate(4 342)">
<title>include/Hermes/Socket/Data/DefaultSocketData.hpp</title>
<!-- Node1 -->
<g id="Node000001" class="node">
<title>Node1</title>
<g id="a_Node000001"><a xlink:title=" ">
<polygon fill="#999999" stroke="#666666" points="710.5,-338 552.5,-338 552.5,-308 710.5,-308 710.5,-338"/>
<text text-anchor="start" x="560.5" y="-326" font-family="Helvetica,sans-Serif" font-size="10.00">include/Hermes/Socket</text>
<text text-anchor="middle" x="631.5" y="-315" font-family="Helvetica,sans-Serif" font-size="10.00">/Data/DefaultSocketData.hpp</text>
</a>
</g>
</g>
<!-- Node2 -->
<g id="Node000002" class="node">
<title>Node2</title>
<g id="a_Node000002"><a xlink:href="_default_async_accept_policy_8hpp.html" target="_top" xlink:title=" ">
<polygon fill="white" stroke="#666666" points="452,-195 297,-195 297,-154 452,-154 452,-195"/>
<text text-anchor="start" x="305" y="-183" font-family="Helvetica,sans-Serif" font-size="10.00">include/Hermes/Socket</text>
<text text-anchor="start" x="305" y="-172" font-family="Helvetica,sans-Serif" font-size="10.00">/Async/_base/Accept/Default</text>
<text text-anchor="middle" x="374.5" y="-161" font-family="Helvetica,sans-Serif" font-size="10.00">AsyncAcceptPolicy.hpp</text>
</a>
</g>
</g>
<!-- Node1&#45;&gt;Node2 -->
<g id="edge1_Node000001_Node000002" class="edge">
<title>Node1&#45;&gt;Node2</title>
<g id="a_edge1_Node000001_Node000002"><a xlink:title=" ">
<path fill="none" stroke="#63b8ff" d="M542.35,-311.89C508.49,-304.77 471,-292.65 441.5,-272 413.59,-252.47 393.58,-217.36 383.04,-195.3"/>
<polygon fill="#63b8ff" stroke="#63b8ff" points="541.77,-315.34 552.26,-313.85 543.14,-308.47 541.77,-315.34"/>
</a>
</g>
</g>
<!-- Node6 -->
<g id="Node000006" class="node">
<title>Node6</title>
<g id="a_Node000006"><a xlink:href="_default_async_connect_policy_8hpp.html" target="_top" xlink:title=" ">
<polygon fill="white" stroke="#666666" points="1203,-118 1030,-118 1030,-77 1203,-77 1203,-118"/>
<text text-anchor="start" x="1038" y="-106" font-family="Helvetica,sans-Serif" font-size="10.00">include/Hermes/Socket</text>
<text text-anchor="start" x="1038" y="-95" font-family="Helvetica,sans-Serif" font-size="10.00">/Async/_base/Connection</text>
<text text-anchor="middle" x="1116.5" y="-84" font-family="Helvetica,sans-Serif" font-size="10.00">/DefaultAsyncConnectPolicy.hpp</text>
</a>
</g>
</g>
<!-- Node1&#45;&gt;Node6 -->
<g id="edge5_Node000001_Node000006" class="edge">
<title>Node1&#45;&gt;Node6</title>
<g id="a_edge5_Node000001_Node000006"><a xlink:title=" ">
<path fill="none" stroke="#63b8ff" d="M721.14,-318.78C789.9,-313.91 886.15,-301.83 965.5,-272 1024.82,-249.7 1046.87,-245.23 1085.5,-195 1103.09,-172.12 1110.87,-138.95 1114.18,-118.07"/>
<polygon fill="#63b8ff" stroke="#63b8ff" points="720.52,-315.31 710.78,-319.47 720.99,-322.3 720.52,-315.31"/>
</a>
</g>
</g>
<!-- Node9 -->
<g id="Node000009" class="node">
<title>Node9</title>
<g id="a_Node000009"><a xlink:href="_default_async_transfer_policy_8hpp.html" target="_top" xlink:title=" ">
<polygon fill="white" stroke="#666666" points="279,-195 106,-195 106,-154 279,-154 279,-195"/>
<text text-anchor="start" x="114" y="-183" font-family="Helvetica,sans-Serif" font-size="10.00">include/Hermes/Socket</text>
<text text-anchor="start" x="114" y="-172" font-family="Helvetica,sans-Serif" font-size="10.00">/Async/_base/Transfer</text>
<text text-anchor="middle" x="192.5" y="-161" font-family="Helvetica,sans-Serif" font-size="10.00">/DefaultAsyncTransferPolicy.hpp</text>
</a>
</g>
</g>
<!-- Node1&#45;&gt;Node9 -->
<g id="edge8_Node000001_Node000009" class="edge">
<title>Node1&#45;&gt;Node9</title>
<g id="a_edge8_Node000001_Node000009"><a xlink:title=" ">
<path fill="none" stroke="#63b8ff" d="M542.46,-307.34C499.29,-299.06 447.06,-287.27 401.5,-272 338.59,-250.92 269.39,-216.6 228.51,-195.08"/>
<polygon fill="#63b8ff" stroke="#63b8ff" points="541.9,-310.8 552.37,-309.22 543.19,-303.92 541.9,-310.8"/>
</a>
</g>
</g>
<!-- Node10 -->
<g id="Node000010" class="node">
<title>Node10</title>
<g id="a_Node000010"><a xlink:href="_default_accept_policy_8hpp.html" target="_top" xlink:title=" ">
<polygon fill="white" stroke="#666666" points="632.5,-272 450.5,-272 450.5,-231 632.5,-231 632.5,-272"/>
<text text-anchor="start" x="458.5" y="-260" font-family="Helvetica,sans-Serif" font-size="10.00">include/Hermes/Socket</text>
<text text-anchor="start" x="458.5" y="-249" font-family="Helvetica,sans-Serif" font-size="10.00">/Sync/_base/Accept/DefaultAccept</text>
<text text-anchor="middle" x="541.5" y="-238" font-family="Helvetica,sans-Serif" font-size="10.00">Policy.hpp</text>
</a>
</g>
</g>
<!-- Node1&#45;&gt;Node10 -->
<g id="edge11_Node000001_Node000010" class="edge">
<title>Node1&#45;&gt;Node10</title>
<g id="a_edge11_Node000001_Node000010"><a xlink:title=" ">
<path fill="none" stroke="#63b8ff" d="M605.31,-301.77C593.19,-292.42 578.86,-281.35 566.85,-272.07"/>
<polygon fill="#63b8ff" stroke="#63b8ff" points="603.23,-304.59 613.29,-307.94 607.51,-299.05 603.23,-304.59"/>
</a>
</g>
</g>
<!-- Node15 -->
<g id="Node000015" class="node">
<title>Node15</title>
<g id="a_Node000015"><a xlink:href="_default_connect_policy_8hpp.html" target="_top" xlink:title=" ">
<polygon fill="white" stroke="#666666" points="956.5,-272 812.5,-272 812.5,-231 956.5,-231 956.5,-272"/>
<text text-anchor="start" x="820.5" y="-260" font-family="Helvetica,sans-Serif" font-size="10.00">include/Hermes/Socket</text>
<text text-anchor="start" x="820.5" y="-249" font-family="Helvetica,sans-Serif" font-size="10.00">/Sync/_base/Connection</text>
<text text-anchor="middle" x="884.5" y="-238" font-family="Helvetica,sans-Serif" font-size="10.00">/DefaultConnectPolicy.hpp</text>
</a>
</g>
</g>
<!-- Node1&#45;&gt;Node15 -->
<g id="edge18_Node000001_Node000015" class="edge">
<title>Node1&#45;&gt;Node15</title>
<g id="a_edge18_Node000001_Node000015"><a xlink:title=" ">
<path fill="none" stroke="#63b8ff" d="M692.67,-305.2C729.01,-295.21 775.26,-282.51 813.25,-272.07"/>
<polygon fill="#63b8ff" stroke="#63b8ff" points="691.41,-301.91 682.7,-307.94 693.27,-308.66 691.41,-301.91"/>
</a>
</g>
</g>
<!-- Node19 -->
<g id="Node000019" class="node">
<title>Node19</title>
<g id="a_Node000019"><a xlink:href="_default_transfer_policy_8hpp.html" target="_top" xlink:title=" ">
<polygon fill="white" stroke="#666666" points="794,-272 651,-272 651,-231 794,-231 794,-272"/>
<text text-anchor="start" x="659" y="-260" font-family="Helvetica,sans-Serif" font-size="10.00">include/Hermes/Socket</text>
<text text-anchor="start" x="659" y="-249" font-family="Helvetica,sans-Serif" font-size="10.00">/Sync/_base/Transfer</text>
<text text-anchor="middle" x="722.5" y="-238" font-family="Helvetica,sans-Serif" font-size="10.00">/DefaultTransferPolicy.hpp</text>
</a>
</g>
</g>
<!-- Node1&#45;&gt;Node19 -->
<g id="edge24_Node000001_Node000019" class="edge">
<title>Node1&#45;&gt;Node19</title>
<g id="a_edge24_Node000001_Node000019"><a xlink:title=" ">
<path fill="none" stroke="#63b8ff" d="M657.98,-301.77C670.23,-292.42 684.73,-281.35 696.87,-272.07"/>
<polygon fill="#63b8ff" stroke="#63b8ff" points="655.74,-299.08 649.92,-307.94 659.99,-304.65 655.74,-299.08"/>
</a>
</g>
</g>
<!-- Node3 -->
<g id="Node000003" class="node">
<title>Node3</title>
<g id="a_Node000003"><a xlink:href="_async_server_socket_8hpp.html" target="_top" xlink:title=" ">
<polygon fill="white" stroke="#666666" points="275.5,-112.5 109.5,-112.5 109.5,-82.5 275.5,-82.5 275.5,-112.5"/>
<text text-anchor="start" x="117.5" y="-100.5" font-family="Helvetica,sans-Serif" font-size="10.00">include/Hermes/Socket</text>
<text text-anchor="middle" x="192.5" y="-89.5" font-family="Helvetica,sans-Serif" font-size="10.00">/Async/AsyncServerSocket.hpp</text>
</a>
</g>
</g>
<!-- Node2&#45;&gt;Node3 -->
<g id="edge2_Node000002_Node000003" class="edge">
<title>Node2&#45;&gt;Node3</title>
<g id="a_edge2_Node000002_Node000003"><a xlink:title=" ">
<path fill="none" stroke="#63b8ff" d="M317.69,-150.09C287.85,-137.79 252.26,-123.13 226.67,-112.58"/>
<polygon fill="#63b8ff" stroke="#63b8ff" points="316.58,-153.42 327.16,-153.99 319.24,-146.94 316.58,-153.42"/>
</a>
</g>
</g>
<!-- Node5 -->
<g id="Node000005" class="node">
<title>Node5</title>
<g id="a_Node000005"><a xlink:href="_tls_async_accept_policy_8hpp.html" target="_top" xlink:title=" ">
<polygon fill="white" stroke="#666666" points="457,-118 294,-118 294,-77 457,-77 457,-118"/>
<text text-anchor="start" x="302" y="-106" font-family="Helvetica,sans-Serif" font-size="10.00">include/Hermes/Socket</text>
<text text-anchor="start" x="302" y="-95" font-family="Helvetica,sans-Serif" font-size="10.00">/Async/_base/Accept/TlsAsync</text>
<text text-anchor="middle" x="375.5" y="-84" font-family="Helvetica,sans-Serif" font-size="10.00">AcceptPolicy.hpp</text>
</a>
</g>
</g>
<!-- Node2&#45;&gt;Node5 -->
<g id="edge4_Node000002_Node000005" class="edge">
<title>Node2&#45;&gt;Node5</title>
<g id="a_edge4_Node000002_Node000005"><a xlink:title=" ">
<path fill="none" stroke="#63b8ff" d="M374.9,-143.69C375.01,-135.08 375.13,-125.9 375.24,-118.07"/>
<polygon fill="#63b8ff" stroke="#63b8ff" points="371.4,-143.75 374.76,-153.79 378.4,-143.84 371.4,-143.75"/>
</a>
</g>
</g>
<!-- Node4 -->
<g id="Node000004" class="node">
<title>Node4</title>
<g id="a_Node000004"><a xlink:href="_async_listener_socket_8hpp.html" target="_top" xlink:title=" ">
<polygon fill="white" stroke="#666666" points="354,-35.5 181,-35.5 181,-5.5 354,-5.5 354,-35.5"/>
<text text-anchor="start" x="189" y="-23.5" font-family="Helvetica,sans-Serif" font-size="10.00">include/Hermes/Socket</text>
<text text-anchor="middle" x="267.5" y="-12.5" font-family="Helvetica,sans-Serif" font-size="10.00">/Async/AsyncListenerSocket.hpp</text>
</a>
</g>
</g>
<!-- Node3&#45;&gt;Node4 -->
<g id="edge3_Node000003_Node000004" class="edge">
<title>Node3&#45;&gt;Node4</title>
<g id="a_edge3_Node000003_Node000004"><a xlink:title=" ">
<path fill="none" stroke="#63b8ff" d="M213.68,-75.32C226.42,-62.58 242.26,-46.74 253.46,-35.54"/>
<polygon fill="#63b8ff" stroke="#63b8ff" points="211.2,-72.85 206.61,-82.39 216.15,-77.8 211.2,-72.85"/>
</a>
</g>
</g>
<!-- Node7 -->
<g id="Node000007" class="node">
<title>Node7</title>
<g id="a_Node000007"><a xlink:href="_async_client_socket_8hpp.html" target="_top" xlink:title=" ">
<polygon fill="white" stroke="#666666" points="163,-35.5 0,-35.5 0,-5.5 163,-5.5 163,-35.5"/>
<text text-anchor="start" x="8" y="-23.5" font-family="Helvetica,sans-Serif" font-size="10.00">include/Hermes/Socket</text>
<text text-anchor="middle" x="81.5" y="-12.5" font-family="Helvetica,sans-Serif" font-size="10.00">/Async/AsyncClientSocket.hpp</text>
</a>
</g>
</g>
<!-- Node6&#45;&gt;Node7 -->
<g id="edge6_Node000006_Node000007" class="edge">
<title>Node6&#45;&gt;Node7</title>
<g id="a_edge6_Node000006_Node000007"><a xlink:title=" ">
<path fill="none" stroke="#63b8ff" d="M1019.79,-81.25C1007.27,-79.62 994.6,-78.15 982.5,-77 623.31,-42.98 529.31,-87.37 171.5,-41 161.04,-39.64 149.99,-37.69 139.35,-35.54"/>
<polygon fill="#63b8ff" stroke="#63b8ff" points="1019.42,-84.73 1029.79,-82.59 1020.35,-77.8 1019.42,-84.73"/>
</a>
</g>
</g>
<!-- Node8 -->
<g id="Node000008" class="node">
<title>Node8</title>
<g id="a_Node000008"><a xlink:href="_tls_async_connect_policy_8hpp.html" target="_top" xlink:title=" ">
<polygon fill="white" stroke="#666666" points="1134.5,-41 982.5,-41 982.5,0 1134.5,0 1134.5,-41"/>
<text text-anchor="start" x="990.5" y="-29" font-family="Helvetica,sans-Serif" font-size="10.00">include/Hermes/Socket</text>
<text text-anchor="start" x="990.5" y="-18" font-family="Helvetica,sans-Serif" font-size="10.00">/Async/_base/Connection</text>
<text text-anchor="middle" x="1058.5" y="-7" font-family="Helvetica,sans-Serif" font-size="10.00">/TlsAsyncConnectPolicy.hpp</text>
</a>
</g>
</g>
<!-- Node6&#45;&gt;Node8 -->
<g id="edge7_Node000006_Node000008" class="edge">
<title>Node6&#45;&gt;Node8</title>
<g id="a_edge7_Node000006_Node000008"><a xlink:title=" ">
<path fill="none" stroke="#63b8ff" d="M1094.98,-68.67C1087.89,-59.5 1080.15,-49.5 1073.64,-41.07"/>
<polygon fill="#63b8ff" stroke="#63b8ff" points="1092.37,-71.03 1101.26,-76.79 1097.91,-66.74 1092.37,-71.03"/>
</a>
</g>
</g>
<!-- Node9&#45;&gt;Node3 -->
<g id="edge10_Node000009_Node000003" class="edge">
<title>Node9&#45;&gt;Node3</title>
<g id="a_edge10_Node000009_Node000003"><a xlink:title=" ">
<path fill="none" stroke="#63b8ff" d="M192.5,-143.61C192.5,-133.01 192.5,-121.57 192.5,-112.86"/>
<polygon fill="#63b8ff" stroke="#63b8ff" points="189,-143.79 192.5,-153.79 196,-143.79 189,-143.79"/>
</a>
</g>
</g>
<!-- Node9&#45;&gt;Node7 -->
<g id="edge9_Node000009_Node000007" class="edge">
<title>Node9&#45;&gt;Node7</title>
<g id="a_edge9_Node000009_Node000007"><a xlink:title=" ">
<path fill="none" stroke="#63b8ff" d="M134.58,-148.57C121.64,-140.54 109.2,-130.41 100.5,-118 82.96,-92.97 80.66,-55.76 80.86,-35.65"/>
<polygon fill="#63b8ff" stroke="#63b8ff" points="133.17,-151.8 143.57,-153.81 136.69,-145.75 133.17,-151.8"/>
</a>
</g>
</g>
<!-- Node10&#45;&gt;Node2 -->
<g id="edge12_Node000010_Node000002" class="edge">
<title>Node10&#45;&gt;Node2</title>
<g id="a_edge12_Node000010_Node000002"><a xlink:title=" ">
<path fill="none" stroke="#63b8ff" d="M488.86,-226.86C466.06,-216.62 439.68,-204.77 418.01,-195.04"/>
<polygon fill="#63b8ff" stroke="#63b8ff" points="487.5,-230.09 498.06,-230.99 490.37,-223.7 487.5,-230.09"/>
</a>
</g>
</g>
<!-- Node11 -->
<g id="Node000011" class="node">
<title>Node11</title>
<g id="a_Node000011"><a xlink:href="_server_socket_8hpp.html" target="_top" xlink:title=" ">
<polygon fill="white" stroke="#666666" points="780,-189.5 649,-189.5 649,-159.5 780,-159.5 780,-189.5"/>
<text text-anchor="start" x="657" y="-177.5" font-family="Helvetica,sans-Serif" font-size="10.00">include/Hermes/Socket</text>
<text text-anchor="middle" x="714.5" y="-166.5" font-family="Helvetica,sans-Serif" font-size="10.00">/Sync/ServerSocket.hpp</text>
</a>
</g>
</g>
<!-- Node10&#45;&gt;Node11 -->
<g id="edge13_Node000010_Node000011" class="edge">
<title>Node10&#45;&gt;Node11</title>
<g id="a_edge13_Node000010_Node000011"><a xlink:title=" ">
<path fill="none" stroke="#63b8ff" d="M595.87,-226.93C624.16,-214.66 657.8,-200.08 682.02,-189.58"/>
<polygon fill="#63b8ff" stroke="#63b8ff" points="594.28,-223.8 586.5,-230.99 597.07,-230.22 594.28,-223.8"/>
</a>
</g>
</g>
<!-- Node13 -->
<g id="Node000013" class="node">
<title>Node13</title>
<g id="a_Node000013"><a xlink:href="_tls_accept_policy_8hpp.html" target="_top" xlink:title=" ">
<polygon fill="white" stroke="#666666" points="631,-195 470,-195 470,-154 631,-154 631,-195"/>
<text text-anchor="start" x="478" y="-183" font-family="Helvetica,sans-Serif" font-size="10.00">include/Hermes/Socket</text>
<text text-anchor="start" x="478" y="-172" font-family="Helvetica,sans-Serif" font-size="10.00">/Sync/_base/Accept/TlsAccept</text>
<text text-anchor="middle" x="550.5" y="-161" font-family="Helvetica,sans-Serif" font-size="10.00">Policy.hpp</text>
</a>
</g>
</g>
<!-- Node10&#45;&gt;Node13 -->
<g id="edge15_Node000010_Node000013" class="edge">
<title>Node10&#45;&gt;Node13</title>
<g id="a_edge15_Node000010_Node000013"><a xlink:title=" ">
<path fill="none" stroke="#63b8ff" d="M545.08,-220.69C546.11,-212.08 547.21,-202.9 548.15,-195.07"/>
<polygon fill="#63b8ff" stroke="#63b8ff" points="541.58,-220.45 543.86,-230.79 548.53,-221.28 541.58,-220.45"/>
</a>
</g>
</g>
<!-- Node12 -->
<g id="Node000012" class="node">
<title>Node12</title>
<g id="a_Node000012"><a xlink:href="_listener_socket_8hpp.html" target="_top" xlink:title=" ">
<polygon fill="white" stroke="#666666" points="791.5,-112.5 653.5,-112.5 653.5,-82.5 791.5,-82.5 791.5,-112.5"/>
<text text-anchor="start" x="661.5" y="-100.5" font-family="Helvetica,sans-Serif" font-size="10.00">include/Hermes/Socket</text>
<text text-anchor="middle" x="722.5" y="-89.5" font-family="Helvetica,sans-Serif" font-size="10.00">/Sync/ListenerSocket.hpp</text>
</a>
</g>
</g>
<!-- Node11&#45;&gt;Node12 -->
<g id="edge14_Node000011_Node000012" class="edge">
<title>Node11&#45;&gt;Node12</title>
<g id="a_edge14_Node000011_Node000012"><a xlink:title=" ">
<path fill="none" stroke="#63b8ff" d="M717.07,-149.41C718.37,-137.24 719.9,-122.9 721,-112.54"/>
<polygon fill="#63b8ff" stroke="#63b8ff" points="713.59,-149.08 716,-159.39 720.55,-149.82 713.59,-149.08"/>
</a>
</g>
</g>
<!-- Node13&#45;&gt;Node5 -->
<g id="edge16_Node000013_Node000005" class="edge">
<title>Node13&#45;&gt;Node5</title>
<g id="a_edge16_Node000013_Node000005"><a xlink:title=" ">
<path fill="none" stroke="#63b8ff" d="M495.66,-150C471.69,-139.72 443.91,-127.82 421.1,-118.04"/>
<polygon fill="#63b8ff" stroke="#63b8ff" points="494.41,-153.27 504.98,-153.99 497.16,-146.83 494.41,-153.27"/>
</a>
</g>
</g>
<!-- Node14 -->
<g id="Node000014" class="node">
<title>Node14</title>
<g id="a_Node000014"><a xlink:href="_tls_accept_state_machine_8hpp.html" target="_top" xlink:title=" ">
<polygon fill="white" stroke="#666666" points="635.5,-118 475.5,-118 475.5,-77 635.5,-77 635.5,-118"/>
<text text-anchor="start" x="483.5" y="-106" font-family="Helvetica,sans-Serif" font-size="10.00">include/Hermes/Socket</text>
<text text-anchor="start" x="483.5" y="-95" font-family="Helvetica,sans-Serif" font-size="10.00">/_base/Accept/TlsAcceptState</text>
<text text-anchor="middle" x="555.5" y="-84" font-family="Helvetica,sans-Serif" font-size="10.00">Machine.hpp</text>
</a>
</g>
</g>
<!-- Node13&#45;&gt;Node14 -->
<g id="edge17_Node000013_Node000014" class="edge">
<title>Node13&#45;&gt;Node14</title>
<g id="a_edge17_Node000013_Node000014"><a xlink:title=" ">
<path fill="none" stroke="#63b8ff" d="M552.49,-143.69C553.06,-135.08 553.67,-125.9 554.2,-118.07"/>
<polygon fill="#63b8ff" stroke="#63b8ff" points="548.99,-143.58 551.81,-153.79 555.97,-144.05 548.99,-143.58"/>
</a>
</g>
</g>
<!-- Node16 -->
<g id="Node000016" class="node">
<title>Node16</title>
<g id="a_Node000016"><a xlink:href="_client_socket_8hpp.html" target="_top" xlink:title=" ">
<polygon fill="white" stroke="#666666" points="926.5,-189.5 798.5,-189.5 798.5,-159.5 926.5,-159.5 926.5,-189.5"/>
<text text-anchor="start" x="806.5" y="-177.5" font-family="Helvetica,sans-Serif" font-size="10.00">include/Hermes/Socket</text>
<text text-anchor="middle" x="862.5" y="-166.5" font-family="Helvetica,sans-Serif" font-size="10.00">/Sync/ClientSocket.hpp</text>
</a>
</g>
</g>
<!-- Node15&#45;&gt;Node16 -->
<g id="edge19_Node000015_Node000016" class="edge">
<title>Node15&#45;&gt;Node16</title>
<g id="a_edge19_Node000015_Node000016"><a xlink:title=" ">
<path fill="none" stroke="#63b8ff" d="M875.83,-220.94C872.69,-210.25 869.29,-198.66 866.71,-189.86"/>
<polygon fill="#63b8ff" stroke="#63b8ff" points="872.55,-222.18 878.72,-230.79 879.26,-220.21 872.55,-222.18"/>
</a>
</g>
</g>
<!-- Node17 -->
<g id="Node000017" class="node">
<title>Node17</title>
<g id="a_Node000017"><a xlink:href="_tls_connect_policy_8hpp.html" target="_top" xlink:title=" ">
<polygon fill="white" stroke="#666666" points="1076.5,-195 944.5,-195 944.5,-154 1076.5,-154 1076.5,-195"/>
<text text-anchor="start" x="952.5" y="-183" font-family="Helvetica,sans-Serif" font-size="10.00">include/Hermes/Socket</text>
<text text-anchor="start" x="952.5" y="-172" font-family="Helvetica,sans-Serif" font-size="10.00">/Sync/_base/Connection</text>
<text text-anchor="middle" x="1010.5" y="-161" font-family="Helvetica,sans-Serif" font-size="10.00">/TlsConnectPolicy.hpp</text>
</a>
</g>
</g>
<!-- Node15&#45;&gt;Node17 -->
<g id="edge20_Node000015_Node000017" class="edge">
<title>Node15&#45;&gt;Node17</title>
<g id="a_edge20_Node000015_Node000017"><a xlink:title=" ">
<path fill="none" stroke="#63b8ff" d="M926.26,-225.64C942.9,-215.74 961.79,-204.5 977.45,-195.17"/>
<polygon fill="#63b8ff" stroke="#63b8ff" points="924.08,-222.87 917.28,-230.99 927.66,-228.88 924.08,-222.87"/>
</a>
</g>
</g>
<!-- Node17&#45;&gt;Node6 -->
<g id="edge21_Node000017_Node000006" class="edge">
<title>Node17&#45;&gt;Node6</title>
<g id="a_edge21_Node000017_Node000006"><a xlink:title=" ">
<path fill="none" stroke="#63b8ff" d="M1046.41,-148.09C1060.22,-138.32 1075.76,-127.32 1088.7,-118.17"/>
<polygon fill="#63b8ff" stroke="#63b8ff" points="1044.22,-145.36 1038.07,-153.99 1048.26,-151.07 1044.22,-145.36"/>
</a>
</g>
</g>
<!-- Node17&#45;&gt;Node8 -->
<g id="edge22_Node000017_Node000008" class="edge">
<title>Node17&#45;&gt;Node8</title>
<g id="a_edge22_Node000017_Node000008"><a xlink:title=" ">
<path fill="none" stroke="#63b8ff" d="M1010.31,-143.53C1011.05,-124.04 1013.68,-98.38 1021.5,-77 1026.24,-64.06 1034.56,-51.16 1042.12,-41.05"/>
<polygon fill="#63b8ff" stroke="#63b8ff" points="1006.81,-143.58 1010.07,-153.66 1013.8,-143.74 1006.81,-143.58"/>
</a>
</g>
</g>
<!-- Node18 -->
<g id="Node000018" class="node">
<title>Node18</title>
<g id="a_Node000018"><a xlink:href="_tls_connect_state_machine_8hpp.html" target="_top" xlink:title=" ">
<polygon fill="white" stroke="#666666" points="973,-118 810,-118 810,-77 973,-77 973,-118"/>
<text text-anchor="start" x="818" y="-106" font-family="Helvetica,sans-Serif" font-size="10.00">include/Hermes/Socket</text>
<text text-anchor="start" x="818" y="-95" font-family="Helvetica,sans-Serif" font-size="10.00">/_base/Connection/TlsConnect</text>
<text text-anchor="middle" x="891.5" y="-84" font-family="Helvetica,sans-Serif" font-size="10.00">StateMachine.hpp</text>
</a>
</g>
</g>
<!-- Node17&#45;&gt;Node18 -->
<g id="edge23_Node000017_Node000018" class="edge">
<title>Node17&#45;&gt;Node18</title>
<g id="a_edge23_Node000017_Node000018"><a xlink:title=" ">
<path fill="none" stroke="#63b8ff" d="M971.06,-148.64C955.34,-138.74 937.51,-127.5 922.71,-118.17"/>
<polygon fill="#63b8ff" stroke="#63b8ff" points="969.22,-151.62 979.54,-153.99 972.95,-145.7 969.22,-151.62"/>
</a>
</g>
</g>
<!-- Node19&#45;&gt;Node11 -->
<g id="edge26_Node000019_Node000011" class="edge">
<title>Node19&#45;&gt;Node11</title>
<g id="a_edge26_Node000019_Node000011"><a xlink:title=" ">
<path fill="none" stroke="#63b8ff" d="M719.31,-220.61C718.18,-210.01 716.96,-198.57 716.03,-189.86"/>
<polygon fill="#63b8ff" stroke="#63b8ff" points="715.86,-221.22 720.4,-230.79 722.82,-220.48 715.86,-221.22"/>
</a>
</g>
</g>
<!-- Node19&#45;&gt;Node16 -->
<g id="edge25_Node000019_Node000016" class="edge">
<title>Node19&#45;&gt;Node16</title>
<g id="a_edge25_Node000019_Node000016"><a xlink:title=" ">
<path fill="none" stroke="#63b8ff" d="M767.97,-226.14C790.46,-214.09 816.83,-199.97 835.99,-189.7"/>
<polygon fill="#63b8ff" stroke="#63b8ff" points="766.08,-223.18 758.92,-230.99 769.39,-229.35 766.08,-223.18"/>
</a>
</g>
</g>
</g>
</svg>
