<?xml version="1.0" encoding="UTF-8" standalone="no"?>
<!DOCTYPE svg PUBLIC "-//W3C//DTD SVG 1.1//EN"
 "http://www.w3.org/Graphics/SVG/1.1/DTD/svg11.dtd">
<!-- Generated by graphviz version 2.43.0 (0)
 -->
<!-- Title: include/Hermes/Socket/Sync/_base/Accept/DefaultAcceptPolicy.hpp Pages: 1 -->
<svg width="563pt" height="335pt"
 viewBox="0.00 0.00 562.50 335.00" xmlns="http://www.w3.org/2000/svg" xmlns:xlink="http://www.w3.org/1999/xlink">
<g id="graph0" class="graph" transform="scale(1 1) rotate(0) translate(4 331)">
<title>include/Hermes/Socket/Sync/_base/Accept/DefaultAcceptPolicy.hpp</title>
<!-- Node1 -->
<g id="Node000001" class="node">
<title>Node1</title>
<g id="a_Node000001"><a xlink:title=" ">
<polygon fill="#999999" stroke="#666666" points="412.5,-327 230.5,-327 230.5,-286 412.5,-286 412.5,-327"/>
<text text-anchor="start" x="238.5" y="-315" font-family="Helvetica,sans-Serif" font-size="10.00">include/Hermes/Socket</text>
<text text-anchor="start" x="238.5" y="-304" font-family="Helvetica,sans-Serif" font-size="10.00">/Sync/_base/Accept/DefaultAccept</text>
<text text-anchor="middle" x="321.5" y="-293" font-family="Helvetica,sans-Serif" font-size="10.00">Policy.hpp</text>
</a>
</g>
</g>
<!-- Node2 -->
<g id="Node000002" class="node">
<title>Node2</title>
<g id="a_Node000002"><a xlink:href="_default_async_accept_policy_8hpp.html" target="_top" xlink:title=" ">
<polygon fill="white" stroke="#666666" points="219,-250 64,-250 64,-209 219,-209 219,-250"/>
<text text-anchor="start" x="72" y="-238" font-family="Helvetica,sans-Serif" font-size="10.00">include/Hermes/Socket</text>
<text text-anchor="start" x="72" y="-227" font-family="Helvetica,sans-Serif" font-size="10.00">/Async/_base/Accept/Default</text>
<text text-anchor="middle" x="141.5" y="-216" font-family="Helvetica,sans-Serif" font-size="10.00">AsyncAcceptPolicy.hpp</text>
</a>
</g>
</g>
<!-- Node1&#45;&gt;Node2 -->
<g id="edge1_Node000001_Node000002" class="edge">
<title>Node1&#45;&gt;Node2</title>
<g id="a_edge1_Node000001_Node000002"><a xlink:title=" ">
<path fill="none" stroke="#63b8ff" d="M265.42,-282.13C240.69,-271.83 211.97,-259.86 188.4,-250.04"/>
<polygon fill="#63b8ff" stroke="#63b8ff" points="264.1,-285.37 274.68,-285.99 266.79,-278.91 264.1,-285.37"/>
</a>
</g>
</g>
<!-- Node6 -->
<g id="Node000006" class="node">
<title>Node6</title>
<g id="a_Node000006"><a xlink:href="_server_socket_8hpp.html" target="_top" xlink:title=" ">
<polygon fill="white" stroke="#666666" points="551,-167.5 420,-167.5 420,-137.5 551,-137.5 551,-167.5"/>
<text text-anchor="start" x="428" y="-155.5" font-family="Helvetica,sans-Serif" font-size="10.00">include/Hermes/Socket</text>
<text text-anchor="middle" x="485.5" y="-144.5" font-family="Helvetica,sans-Serif" font-size="10.00">/Sync/ServerSocket.hpp</text>
</a>
</g>
</g>
<!-- Node1&#45;&gt;Node6 -->
<g id="edge6_Node000001_Node000006" class="edge">
<title>Node1&#45;&gt;Node6</title>
<g id="a_edge6_Node000001_Node000006"><a xlink:title=" ">
<path fill="none" stroke="#63b8ff" d="M368.82,-280.73C383.3,-272.03 398.75,-261.51 411.5,-250 439.54,-224.67 464.55,-187.58 477.05,-167.56"/>
<polygon fill="#63b8ff" stroke="#63b8ff" points="366.83,-277.84 359.96,-285.91 370.36,-283.88 366.83,-277.84"/>
</a>
</g>
</g>
<!-- Node8 -->
<g id="Node000008" class="node">
<title>Node8</title>
<g id="a_Node000008"><a xlink:href="_tls_accept_policy_8hpp.html" target="_top" xlink:title=" ">
<polygon fill="white" stroke="#666666" points="402,-250 241,-250 241,-209 402,-209 402,-250"/>
<text text-anchor="start" x="249" y="-238" font-family="Helvetica,sans-Serif" font-size="10.00">include/Hermes/Socket</text>
<text text-anchor="start" x="249" y="-227" font-family="Helvetica,sans-Serif" font-size="10.00">/Sync/_base/Accept/TlsAccept</text>
<text text-anchor="middle" x="321.5" y="-216" font-family="Helvetica,sans-Serif" font-size="10.00">Policy.hpp</text>
</a>
</g>
</g>
<!-- Node1&#45;&gt;Node8 -->
<g id="edge8_Node000001_Node000008" class="edge">
<title>Node1&#45;&gt;Node8</title>
<g id="a_edge8_Node000001_Node000008"><a xlink:title=" ">
<path fill="none" stroke="#63b8ff" d="M321.5,-275.69C321.5,-267.08 321.5,-257.9 321.5,-250.07"/>
<polygon fill="#63b8ff" stroke="#63b8ff" points="318,-275.79 321.5,-285.79 325,-275.79 318,-275.79"/>
</a>
</g>
</g>
<!-- Node3 -->
<g id="Node000003" class="node">
<title>Node3</title>
<g id="a_Node000003"><a xlink:href="_async_server_socket_8hpp.html" target="_top" xlink:title=" ">
<polygon fill="white" stroke="#666666" points="169.5,-96 3.5,-96 3.5,-66 169.5,-66 169.5,-96"/>
<text text-anchor="start" x="11.5" y="-84" font-family="Helvetica,sans-Serif" font-size="10.00">include/Hermes/Socket</text>
<text text-anchor="middle" x="86.5" y="-73" font-family="Helvetica,sans-Serif" font-size="10.00">/Async/AsyncServerSocket.hpp</text>
</a>
</g>
</g>
<!-- Node2&#45;&gt;Node3 -->
<g id="edge2_Node000002_Node000003" class="edge">
<title>Node2&#45;&gt;Node3</title>
<g id="a_edge2_Node000002_Node000003"><a xlink:title=" ">
<path fill="none" stroke="#63b8ff" d="M81.32,-203.82C69.01,-195.86 57.64,-185.72 50.5,-173 41.58,-157.11 44.91,-149.34 50.5,-132 54.83,-118.56 64.27,-105.69 72.39,-96.37"/>
<polygon fill="#63b8ff" stroke="#63b8ff" points="79.58,-206.86 89.96,-208.98 83.17,-200.85 79.58,-206.86"/>
</a>
</g>
</g>
<!-- Node5 -->
<g id="Node000005" class="node">
<title>Node5</title>
<g id="a_Node000005"><a xlink:href="_tls_async_accept_policy_8hpp.html" target="_top" xlink:title=" ">
<polygon fill="white" stroke="#666666" points="223,-173 60,-173 60,-132 223,-132 223,-173"/>
<text text-anchor="start" x="68" y="-161" font-family="Helvetica,sans-Serif" font-size="10.00">include/Hermes/Socket</text>
<text text-anchor="start" x="68" y="-150" font-family="Helvetica,sans-Serif" font-size="10.00">/Async/_base/Accept/TlsAsync</text>
<text text-anchor="middle" x="141.5" y="-139" font-family="Helvetica,sans-Serif" font-size="10.00">AcceptPolicy.hpp</text>
</a>
</g>
</g>
<!-- Node2&#45;&gt;Node5 -->
<g id="edge4_Node000002_Node000005" class="edge">
<title>Node2&#45;&gt;Node5</title>
<g id="a_edge4_Node000002_Node000005"><a xlink:title=" ">
<path fill="none" stroke="#63b8ff" d="M141.5,-198.69C141.5,-190.08 141.5,-180.9 141.5,-173.07"/>
<polygon fill="#63b8ff" stroke="#63b8ff" points="138,-198.79 141.5,-208.79 145,-198.79 138,-198.79"/>
</a>
</g>
</g>
<!-- Node4 -->
<g id="Node000004" class="node">
<title>Node4</title>
<g id="a_Node000004"><a xlink:href="_async_listener_socket_8hpp.html" target="_top" xlink:title=" ">
<polygon fill="white" stroke="#666666" points="173,-30 0,-30 0,0 173,0 173,-30"/>
<text text-anchor="start" x="8" y="-18" font-family="Helvetica,sans-Serif" font-size="10.00">include/Hermes/Socket</text>
<text text-anchor="middle" x="86.5" y="-7" font-family="Helvetica,sans-Serif" font-size="10.00">/Async/AsyncListenerSocket.hpp</text>
</a>
</g>
</g>
<!-- Node3&#45;&gt;Node4 -->
<g id="edge3_Node000003_Node000004" class="edge">
<title>Node3&#45;&gt;Node4</title>
<g id="a_edge3_Node000003_Node000004"><a xlink:title=" ">
<path fill="none" stroke="#63b8ff" d="M86.5,-55.54C86.5,-46.96 86.5,-37.61 86.5,-30.16"/>
<polygon fill="#63b8ff" stroke="#63b8ff" points="83,-55.8 86.5,-65.8 90,-55.8 83,-55.8"/>
</a>
</g>
</g>
<!-- Node5&#45;&gt;Node3 -->
<g id="edge5_Node000005_Node000003" class="edge">
<title>Node5&#45;&gt;Node3</title>
<g id="a_edge5_Node000005_Node000003"><a xlink:title=" ">
<path fill="none" stroke="#63b8ff" d="M119.49,-123.69C111.98,-114.19 103.89,-103.98 97.61,-96.04"/>
<polygon fill="#63b8ff" stroke="#63b8ff" points="116.94,-126.1 125.89,-131.77 122.43,-121.76 116.94,-126.1"/>
</a>
</g>
</g>
<!-- Node7 -->
<g id="Node000007" class="node">
<title>Node7</title>
<g id="a_Node000007"><a xlink:href="_listener_socket_8hpp.html" target="_top" xlink:title=" ">
<polygon fill="white" stroke="#666666" points="554.5,-96 416.5,-96 416.5,-66 554.5,-66 554.5,-96"/>
<text text-anchor="start" x="424.5" y="-84" font-family="Helvetica,sans-Serif" font-size="10.00">include/Hermes/Socket</text>
<text text-anchor="middle" x="485.5" y="-73" font-family="Helvetica,sans-Serif" font-size="10.00">/Sync/ListenerSocket.hpp</text>
</a>
</g>
</g>
<!-- Node6&#45;&gt;Node7 -->
<g id="edge7_Node000006_Node000007" class="edge">
<title>Node6&#45;&gt;Node7</title>
<g id="a_edge7_Node000006_Node000007"><a xlink:title=" ">
<path fill="none" stroke="#63b8ff" d="M485.5,-127.25C485.5,-116.81 485.5,-104.99 485.5,-96.04"/>
<polygon fill="#63b8ff" stroke="#63b8ff" points="482,-127.44 485.5,-137.44 489,-127.44 482,-127.44"/>
</a>
</g>
</g>
<!-- Node8&#45;&gt;Node5 -->
<g id="edge9_Node000008_Node000005" class="edge">
<title>Node8&#45;&gt;Node5</title>
<g id="a_edge9_Node000008_Node000005"><a xlink:title=" ">
<path fill="none" stroke="#63b8ff" d="M265.42,-205.13C240.69,-194.83 211.97,-182.86 188.4,-173.04"/>
<polygon fill="#63b8ff" stroke="#63b8ff" points="264.1,-208.37 274.68,-208.99 266.79,-201.91 264.1,-208.37"/>
</a>
</g>
</g>
<!-- Node8&#45;&gt;Node6 -->
<g id="edge10_Node000008_Node000006" class="edge">
<title>Node8&#45;&gt;Node6</title>
<g id="a_edge10_Node000008_Node000006"><a xlink:title=" ">
<path fill="none" stroke="#63b8ff" d="M373.39,-204.77C400.14,-192.54 431.85,-178.04 454.71,-167.58"/>
<polygon fill="#63b8ff" stroke="#63b8ff" points="371.8,-201.65 364.16,-208.99 374.71,-208.01 371.8,-201.65"/>
</a>
</g>
</g>
<!-- Node9 -->
<g id="Node000009" class="node">
<title>Node9</title>
<g id="a_Node000009"><a xlink:href="_tls_accept_state_machine_8hpp.html" target="_top" xlink:title=" ">
<polygon fill="white" stroke="#666666" points="401.5,-173 241.5,-173 241.5,-132 401.5,-132 401.5,-173"/>
<text text-anchor="start" x="249.5" y="-161" font-family="Helvetica,sans-Serif" font-size="10.00">include/Hermes/Socket</text>
<text text-anchor="start" x="249.5" y="-150" font-family="Helvetica,sans-Serif" font-size="10.00">/_base/Accept/TlsAcceptState</text>
<text text-anchor="middle" x="321.5" y="-139" font-family="Helvetica,sans-Serif" font-size="10.00">Machine.hpp</text>
</a>
</g>
</g>
<!-- Node8&#45;&gt;Node9 -->
<g id="edge11_Node000008_Node000009" class="edge">
<title>Node8&#45;&gt;Node9</title>
<g id="a_edge11_Node000008_Node000009"><a xlink:title=" ">
<path fill="none" stroke="#63b8ff" d="M321.5,-198.69C321.5,-190.08 321.5,-180.9 321.5,-173.07"/>
<polygon fill="#63b8ff" stroke="#63b8ff" points="318,-198.79 321.5,-208.79 325,-198.79 318,-198.79"/>
</a>
</g>
</g>
</g>
</svg>
