<?xml version="1.0" encoding="UTF-8" standalone="no"?>
<!DOCTYPE svg PUBLIC "-//W3C//DTD SVG 1.1//EN"
 "http://www.w3.org/Graphics/SVG/1.1/DTD/svg11.dtd">
<!-- Generated by graphviz version 2.43.0 (0)
 -->
<!-- Title: include/Hermes/Socket/Data/DefaultSocketData.hpp Pages: 1 -->
<svg width="3202pt" height="368pt"
 viewBox="0.00 0.00 3202.00 368.00" xmlns="http://www.w3.org/2000/svg" xmlns:xlink="http://www.w3.org/1999/xlink">
<g id="graph0" class="graph" transform="scale(1 1) rotate(0) translate(4 364)">
<title>include/Hermes/Socket/Data/DefaultSocketData.hpp</title>
<!-- Node1 -->
<g id="Node000001" class="node">
<title>Node1</title>
<g id="a_Node000001"><a xlink:title=" ">
<polygon fill="#999999" stroke="#666666" points="1992.5,-360 1834.5,-360 1834.5,-330 1992.5,-330 1992.5,-360"/>
<text text-anchor="start" x="1842.5" y="-348" font-family="Helvetica,sans-Serif" font-size="10.00">include/Hermes/Socket</text>
<text text-anchor="middle" x="1913.5" y="-337" font-family="Helvetica,sans-Serif" font-size="10.00">/Data/DefaultSocketData.hpp</text>
</a>
</g>
</g>
<!-- Node2 -->
<g id="Node000002" class="node">
<title>Node2</title>
<g id="a_Node000002"><a xlink:href="_ip_endpoint_8hpp.html" target="_top" xlink:title=" ">
<polygon fill="white" stroke="#666666" points="1292,-294 1137,-294 1137,-264 1292,-264 1292,-294"/>
<text text-anchor="start" x="1145" y="-282" font-family="Helvetica,sans-Serif" font-size="10.00">Hermes/Endpoint/IpEndpoint</text>
<text text-anchor="middle" x="1214.5" y="-271" font-family="Helvetica,sans-Serif" font-size="10.00">/IpEndpoint.hpp</text>
</a>
</g>
</g>
<!-- Node1&#45;&gt;Node2 -->
<g id="edge1_Node000001_Node000002" class="edge">
<title>Node1&#45;&gt;Node2</title>
<g id="a_edge1_Node000001_Node000002"><a xlink:title=" ">
<path fill="none" stroke="#63b8ff" d="M1834.34,-336.75C1702.61,-324.69 1439.38,-300.59 1302.21,-288.03"/>
<polygon fill="#63b8ff" stroke="#63b8ff" points="1302.43,-284.54 1292.15,-287.11 1301.79,-291.51 1302.43,-284.54"/>
</a>
</g>
</g>
<!-- Node42 -->
<g id="Node000042" class="node">
<title>Node42</title>
<g id="a_Node000042"><a xlink:title=" ">
<polygon fill="#e0e0e0" stroke="#999999" points="1881.5,-288.5 1831.5,-288.5 1831.5,-269.5 1881.5,-269.5 1881.5,-288.5"/>
<text text-anchor="middle" x="1856.5" y="-276.5" font-family="Helvetica,sans-Serif" font-size="10.00">chrono</text>
</a>
</g>
</g>
<!-- Node1&#45;&gt;Node42 -->
<g id="edge52_Node000001_Node000042" class="edge">
<title>Node1&#45;&gt;Node42</title>
<g id="a_edge52_Node000001_Node000042"><a xlink:title=" ">
<path fill="none" stroke="#63b8ff" d="M1900.85,-329.8C1892.05,-319.92 1880.3,-306.72 1871.1,-296.39"/>
<polygon fill="#63b8ff" stroke="#63b8ff" points="1873.64,-293.98 1864.38,-288.84 1868.41,-298.64 1873.64,-293.98"/>
</a>
</g>
</g>
<!-- Node43 -->
<g id="Node000043" class="node">
<title>Node43</title>
<g id="a_Node000043"><a xlink:href="__base_8hpp.html" target="_top" xlink:title=" ">
<polygon fill="white" stroke="#666666" points="2043,-288.5 1900,-288.5 1900,-269.5 2043,-269.5 2043,-288.5"/>
<text text-anchor="middle" x="1971.5" y="-276.5" font-family="Helvetica,sans-Serif" font-size="10.00">Hermes/Socket/_base.hpp</text>
</a>
</g>
</g>
<!-- Node1&#45;&gt;Node43 -->
<g id="edge53_Node000001_Node000043" class="edge">
<title>Node1&#45;&gt;Node43</title>
<g id="a_edge53_Node000001_Node000043"><a xlink:title=" ">
<path fill="none" stroke="#63b8ff" d="M1926.37,-329.8C1935.33,-319.92 1947.29,-306.72 1956.64,-296.39"/>
<polygon fill="#63b8ff" stroke="#63b8ff" points="1959.36,-298.6 1963.48,-288.84 1954.18,-293.9 1959.36,-298.6"/>
</a>
</g>
</g>
<!-- Node46 -->
<g id="Node000046" class="node">
<title>Node46</title>
<g id="a_Node000046"><a xlink:title=" ">
<polygon fill="#e0e0e0" stroke="#999999" points="2191.5,-294 2061.5,-294 2061.5,-264 2191.5,-264 2191.5,-294"/>
<text text-anchor="start" x="2069.5" y="-282" font-family="Helvetica,sans-Serif" font-size="10.00">Hermes/Socket/Data</text>
<text text-anchor="middle" x="2126.5" y="-271" font-family="Helvetica,sans-Serif" font-size="10.00">/DefaultSocketData.tpp</text>
</a>
</g>
</g>
<!-- Node1&#45;&gt;Node46 -->
<g id="edge59_Node000001_Node000046" class="edge">
<title>Node1&#45;&gt;Node46</title>
<g id="a_edge59_Node000001_Node000046"><a xlink:title=" ">
<path fill="none" stroke="#63b8ff" d="M1960.24,-329.95C1992.57,-320.24 2035.75,-307.27 2070,-296.98"/>
<polygon fill="#63b8ff" stroke="#63b8ff" points="2071.3,-300.24 2079.87,-294.01 2069.28,-293.54 2071.3,-300.24"/>
</a>
</g>
</g>
<!-- Node3 -->
<g id="Node000003" class="node">
<title>Node3</title>
<g id="a_Node000003"><a xlink:href="_endpoint_concept_8hpp.html" target="_top" xlink:title=" ">
<polygon fill="white" stroke="#666666" points="1646.5,-228 1514.5,-228 1514.5,-198 1646.5,-198 1646.5,-228"/>
<text text-anchor="start" x="1522.5" y="-216" font-family="Helvetica,sans-Serif" font-size="10.00">Hermes/Endpoint/_base</text>
<text text-anchor="middle" x="1580.5" y="-205" font-family="Helvetica,sans-Serif" font-size="10.00">/EndpointConcept.hpp</text>
</a>
</g>
</g>
<!-- Node2&#45;&gt;Node3 -->
<g id="edge2_Node000002_Node000003" class="edge">
<title>Node2&#45;&gt;Node3</title>
<g id="a_edge2_Node000002_Node000003"><a xlink:title=" ">
<path fill="none" stroke="#63b8ff" d="M1292.12,-264.43C1354.63,-253.5 1442.03,-238.21 1504.19,-227.34"/>
<polygon fill="#63b8ff" stroke="#63b8ff" points="1505.09,-230.74 1514.33,-225.57 1503.88,-223.85 1505.09,-230.74"/>
</a>
</g>
</g>
<!-- Node31 -->
<g id="Node000031" class="node">
<title>Node31</title>
<g id="a_Node000031"><a xlink:href="_ip_address_8hpp.html" target="_top" xlink:title=" ">
<polygon fill="white" stroke="#666666" points="1292,-228 1137,-228 1137,-198 1292,-198 1292,-228"/>
<text text-anchor="start" x="1145" y="-216" font-family="Helvetica,sans-Serif" font-size="10.00">Hermes/Endpoint/IpEndpoint</text>
<text text-anchor="middle" x="1214.5" y="-205" font-family="Helvetica,sans-Serif" font-size="10.00">/IpAddress.hpp</text>
</a>
</g>
</g>
<!-- Node2&#45;&gt;Node31 -->
<g id="edge37_Node000002_Node000031" class="edge">
<title>Node2&#45;&gt;Node31</title>
<g id="a_edge37_Node000002_Node000031"><a xlink:title=" ">
<path fill="none" stroke="#63b8ff" d="M1214.5,-263.8C1214.5,-256.34 1214.5,-246.99 1214.5,-238.41"/>
<polygon fill="#63b8ff" stroke="#63b8ff" points="1218,-238.16 1214.5,-228.16 1211,-238.16 1218,-238.16"/>
</a>
</g>
</g>
<!-- Node32 -->
<g id="Node000032" class="node">
<title>Node32</title>
<g id="a_Node000032"><a xlink:href="_hash_8hpp.html" target="_top" xlink:title=" ">
<polygon fill="white" stroke="#666666" points="547,-156.5 418,-156.5 418,-137.5 547,-137.5 547,-156.5"/>
<text text-anchor="middle" x="482.5" y="-144.5" font-family="Helvetica,sans-Serif" font-size="10.00">Hermes/Utils/Hash.hpp</text>
</a>
</g>
</g>
<!-- Node2&#45;&gt;Node32 -->
<g id="edge48_Node000002_Node000032" class="edge">
<title>Node2&#45;&gt;Node32</title>
<g id="a_edge48_Node000002_Node000032"><a xlink:title=" ">
<path fill="none" stroke="#63b8ff" d="M1165.98,-263.92C1140.68,-255.47 1109.83,-243.36 1084.5,-228 1067.27,-217.55 1069.02,-205.95 1050.5,-198 963.72,-160.76 690.83,-151.26 557.42,-148.83"/>
<polygon fill="#63b8ff" stroke="#63b8ff" points="557.34,-145.33 547.28,-148.66 557.22,-152.33 557.34,-145.33"/>
</a>
</g>
</g>
<!-- Node36 -->
<g id="Node000036" class="node">
<title>Node36</title>
<g id="a_Node000036"><a xlink:title=" ">
<polygon fill="#e0e0e0" stroke="#999999" points="936.5,-156.5 892.5,-156.5 892.5,-137.5 936.5,-137.5 936.5,-156.5"/>
<text text-anchor="middle" x="914.5" y="-144.5" font-family="Helvetica,sans-Serif" font-size="10.00">string</text>
</a>
</g>
</g>
<!-- Node2&#45;&gt;Node36 -->
<g id="edge50_Node000002_Node000036" class="edge">
<title>Node2&#45;&gt;Node36</title>
<g id="a_edge50_Node000002_Node000036"><a xlink:title=" ">
<path fill="none" stroke="#63b8ff" d="M1188.64,-263.92C1171.15,-254.21 1147.65,-240.79 1127.5,-228 1107.82,-215.52 1105.67,-207.74 1084.5,-198 1026.53,-171.32 1005.69,-183.21 945.5,-162 944.11,-161.51 942.69,-160.98 941.27,-160.43"/>
<polygon fill="#63b8ff" stroke="#63b8ff" points="942.57,-157.18 931.99,-156.53 939.85,-163.63 942.57,-157.18"/>
</a>
</g>
</g>
<!-- Node38 -->
<g id="Node000038" class="node">
<title>Node38</title>
<g id="a_Node000038"><a xlink:title=" ">
<polygon fill="#e0e0e0" stroke="#999999" points="1382.5,-156.5 1326.5,-156.5 1326.5,-137.5 1382.5,-137.5 1382.5,-156.5"/>
<text text-anchor="middle" x="1354.5" y="-144.5" font-family="Helvetica,sans-Serif" font-size="10.00">optional</text>
</a>
</g>
</g>
<!-- Node2&#45;&gt;Node38 -->
<g id="edge49_Node000002_Node000038" class="edge">
<title>Node2&#45;&gt;Node38</title>
<g id="a_edge49_Node000002_Node000038"><a xlink:title=" ">
<path fill="none" stroke="#63b8ff" d="M1246.21,-263.91C1263.52,-255.21 1284.61,-242.86 1300.5,-228 1320.04,-209.73 1336.21,-183.13 1345.62,-165.7"/>
<polygon fill="#63b8ff" stroke="#63b8ff" points="1348.83,-167.11 1350.35,-156.63 1342.62,-163.88 1348.83,-167.11"/>
</a>
</g>
</g>
<!-- Node41 -->
<g id="Node000041" class="node">
<title>Node41</title>
<g id="a_Node000041"><a xlink:title=" ">
<polygon fill="#e0e0e0" stroke="#999999" points="1042,-228 887,-228 887,-198 1042,-198 1042,-228"/>
<text text-anchor="start" x="895" y="-216" font-family="Helvetica,sans-Serif" font-size="10.00">Hermes/Endpoint/IpEndpoint</text>
<text text-anchor="middle" x="964.5" y="-205" font-family="Helvetica,sans-Serif" font-size="10.00">/IpEndpoint.tpp</text>
</a>
</g>
</g>
<!-- Node2&#45;&gt;Node41 -->
<g id="edge51_Node000002_Node000041" class="edge">
<title>Node2&#45;&gt;Node41</title>
<g id="a_edge51_Node000002_Node000041"><a xlink:title=" ">
<path fill="none" stroke="#63b8ff" d="M1159.64,-263.95C1121.13,-254.1 1069.49,-240.88 1029.01,-230.51"/>
<polygon fill="#63b8ff" stroke="#63b8ff" points="1029.79,-227.1 1019.24,-228.01 1028.06,-233.88 1029.79,-227.1"/>
</a>
</g>
</g>
<!-- Node4 -->
<g id="Node000004" class="node">
<title>Node4</title>
<g id="a_Node000004"><a xlink:href="_connection_error_enum_8hpp.html" target="_top" xlink:title=" ">
<polygon fill="white" stroke="#666666" points="2689,-162 2522,-162 2522,-132 2689,-132 2689,-162"/>
<text text-anchor="start" x="2530" y="-150" font-family="Helvetica,sans-Serif" font-size="10.00">Hermes/_base/ConnectionError</text>
<text text-anchor="middle" x="2605.5" y="-139" font-family="Helvetica,sans-Serif" font-size="10.00">Enum.hpp</text>
</a>
</g>
</g>
<!-- Node3&#45;&gt;Node4 -->
<g id="edge3_Node000003_Node000004" class="edge">
<title>Node3&#45;&gt;Node4</title>
<g id="a_edge3_Node000003_Node000004"><a xlink:title=" ">
<path fill="none" stroke="#63b8ff" d="M1646.57,-207.87C1823.23,-196.84 2306.94,-166.64 2511.83,-153.85"/>
<polygon fill="#63b8ff" stroke="#63b8ff" points="2512.2,-157.33 2521.96,-153.22 2511.76,-150.35 2512.2,-157.33"/>
</a>
</g>
</g>
<!-- Node12 -->
<g id="Node000012" class="node">
<title>Node12</title>
<g id="a_Node000012"><a xlink:href="_os_api_8hpp.html" target="_top" xlink:title=" ">
<polygon fill="white" stroke="#666666" points="1518.5,-162 1400.5,-162 1400.5,-132 1518.5,-132 1518.5,-162"/>
<text text-anchor="start" x="1408.5" y="-150" font-family="Helvetica,sans-Serif" font-size="10.00">Hermes/_base/OsApi</text>
<text text-anchor="middle" x="1459.5" y="-139" font-family="Helvetica,sans-Serif" font-size="10.00">/OsApi.hpp</text>
</a>
</g>
</g>
<!-- Node3&#45;&gt;Node12 -->
<g id="edge11_Node000003_Node000012" class="edge">
<title>Node3&#45;&gt;Node12</title>
<g id="a_edge11_Node000003_Node000012"><a xlink:title=" ">
<path fill="none" stroke="#63b8ff" d="M1553.95,-197.95C1536.61,-188.78 1513.77,-176.71 1494.9,-166.72"/>
<polygon fill="#63b8ff" stroke="#63b8ff" points="1496.47,-163.59 1485.99,-162.01 1493.2,-169.78 1496.47,-163.59"/>
</a>
</g>
</g>
<!-- Node5 -->
<g id="Node000005" class="node">
<title>Node5</title>
<g id="a_Node000005"><a xlink:title=" ">
<polygon fill="#e0e0e0" stroke="#999999" points="2567.5,-85 2505.5,-85 2505.5,-66 2567.5,-66 2567.5,-85"/>
<text text-anchor="middle" x="2536.5" y="-73" font-family="Helvetica,sans-Serif" font-size="10.00">expected</text>
</a>
</g>
</g>
<!-- Node4&#45;&gt;Node5 -->
<g id="edge4_Node000004_Node000005" class="edge">
<title>Node4&#45;&gt;Node5</title>
<g id="a_edge4_Node000004_Node000005"><a xlink:title=" ">
<path fill="none" stroke="#63b8ff" d="M2591.54,-131.94C2580.17,-120.48 2564.12,-104.32 2552.28,-92.4"/>
<polygon fill="#63b8ff" stroke="#63b8ff" points="2554.73,-89.9 2545.2,-85.27 2549.77,-94.83 2554.73,-89.9"/>
</a>
</g>
</g>
<!-- Node6 -->
<g id="Node000006" class="node">
<title>Node6</title>
<g id="a_Node000006"><a xlink:title=" ">
<polygon fill="#e0e0e0" stroke="#999999" points="2487,-85 2440,-85 2440,-66 2487,-66 2487,-85"/>
<text text-anchor="middle" x="2463.5" y="-73" font-family="Helvetica,sans-Serif" font-size="10.00">vector</text>
</a>
</g>
</g>
<!-- Node4&#45;&gt;Node6 -->
<g id="edge5_Node000004_Node000006" class="edge">
<title>Node4&#45;&gt;Node6</title>
<g id="a_edge5_Node000004_Node000006"><a xlink:title=" ">
<path fill="none" stroke="#63b8ff" d="M2572.64,-131.99C2550.78,-122.41 2521.59,-109.12 2496.5,-96 2493.12,-94.23 2489.59,-92.27 2486.16,-90.3"/>
<polygon fill="#63b8ff" stroke="#63b8ff" points="2487.84,-87.23 2477.45,-85.18 2484.29,-93.27 2487.84,-87.23"/>
</a>
</g>
</g>
<!-- Node7 -->
<g id="Node000007" class="node">
<title>Node7</title>
<g id="a_Node000007"><a xlink:title=" ">
<polygon fill="#e0e0e0" stroke="#999999" points="2625.5,-85 2585.5,-85 2585.5,-66 2625.5,-66 2625.5,-85"/>
<text text-anchor="middle" x="2605.5" y="-73" font-family="Helvetica,sans-Serif" font-size="10.00">span</text>
</a>
</g>
</g>
<!-- Node4&#45;&gt;Node7 -->
<g id="edge6_Node000004_Node000007" class="edge">
<title>Node4&#45;&gt;Node7</title>
<g id="a_edge6_Node000004_Node000007"><a xlink:title=" ">
<path fill="none" stroke="#63b8ff" d="M2605.5,-131.94C2605.5,-121.46 2605.5,-107.05 2605.5,-95.55"/>
<polygon fill="#63b8ff" stroke="#63b8ff" points="2609,-95.27 2605.5,-85.27 2602,-95.27 2609,-95.27"/>
</a>
</g>
</g>
<!-- Node8 -->
<g id="Node000008" class="node">
<title>Node8</title>
<g id="a_Node000008"><a xlink:title=" ">
<polygon fill="#e0e0e0" stroke="#999999" points="2713,-85 2644,-85 2644,-66 2713,-66 2713,-85"/>
<text text-anchor="middle" x="2678.5" y="-73" font-family="Helvetica,sans-Serif" font-size="10.00">type_traits</text>
</a>
</g>
</g>
<!-- Node4&#45;&gt;Node8 -->
<g id="edge7_Node000004_Node000008" class="edge">
<title>Node4&#45;&gt;Node8</title>
<g id="a_edge7_Node000004_Node000008"><a xlink:title=" ">
<path fill="none" stroke="#63b8ff" d="M2620.27,-131.94C2632.3,-120.48 2649.28,-104.32 2661.8,-92.4"/>
<polygon fill="#63b8ff" stroke="#63b8ff" points="2664.46,-94.7 2669.29,-85.27 2659.64,-89.63 2664.46,-94.7"/>
</a>
</g>
</g>
<!-- Node9 -->
<g id="Node000009" class="node">
<title>Node9</title>
<g id="a_Node000009"><a xlink:title=" ">
<polygon fill="#e0e0e0" stroke="#999999" points="3194,-85 3069,-85 3069,-66 3194,-66 3194,-85"/>
<text text-anchor="middle" x="3131.5" y="-73" font-family="Helvetica,sans-Serif" font-size="10.00">stdexec/execution.hpp</text>
</a>
</g>
</g>
<!-- Node4&#45;&gt;Node9 -->
<g id="edge8_Node000004_Node000009" class="edge">
<title>Node4&#45;&gt;Node9</title>
<g id="a_edge8_Node000004_Node000009"><a xlink:title=" ">
<path fill="none" stroke="#63b8ff" d="M2689.12,-140.8C2780.84,-134.18 2932.1,-120.53 3060.5,-96 3071.75,-93.85 3083.82,-90.82 3094.76,-87.78"/>
<polygon fill="#63b8ff" stroke="#63b8ff" points="3095.77,-91.13 3104.43,-85.02 3093.85,-84.4 3095.77,-91.13"/>
</a>
</g>
</g>
<!-- Node10 -->
<g id="Node000010" class="node">
<title>Node10</title>
<g id="a_Node000010"><a xlink:title=" ">
<polygon fill="#e0e0e0" stroke="#999999" points="2865.5,-85 2731.5,-85 2731.5,-66 2865.5,-66 2865.5,-85"/>
<text text-anchor="middle" x="2798.5" y="-73" font-family="Helvetica,sans-Serif" font-size="10.00">exec/any_sender_of.hpp</text>
</a>
</g>
</g>
<!-- Node4&#45;&gt;Node10 -->
<g id="edge9_Node000004_Node000010" class="edge">
<title>Node4&#45;&gt;Node10</title>
<g id="a_edge9_Node000004_Node000010"><a xlink:title=" ">
<path fill="none" stroke="#63b8ff" d="M2644.56,-131.94C2679.89,-119.21 2731.39,-100.67 2764.92,-88.59"/>
<polygon fill="#63b8ff" stroke="#63b8ff" points="2766.48,-91.75 2774.71,-85.07 2764.11,-85.16 2766.48,-91.75"/>
</a>
</g>
</g>
<!-- Node11 -->
<g id="Node000011" class="node">
<title>Node11</title>
<g id="a_Node000011"><a xlink:title=" ">
<polygon fill="#e0e0e0" stroke="#999999" points="3051,-90.5 2884,-90.5 2884,-60.5 3051,-60.5 3051,-90.5"/>
<text text-anchor="start" x="2892" y="-78.5" font-family="Helvetica,sans-Serif" font-size="10.00">Hermes/_base/ConnectionError</text>
<text text-anchor="middle" x="2967.5" y="-67.5" font-family="Helvetica,sans-Serif" font-size="10.00">Enum.tpp</text>
</a>
</g>
</g>
<!-- Node4&#45;&gt;Node11 -->
<g id="edge10_Node000004_Node000011" class="edge">
<title>Node4&#45;&gt;Node11</title>
<g id="a_edge10_Node000004_Node000011"><a xlink:title=" ">
<path fill="none" stroke="#63b8ff" d="M2683.57,-131.98C2737.31,-122.2 2810.31,-108.69 2874.5,-96 2879.96,-94.92 2885.6,-93.79 2891.27,-92.63"/>
<polygon fill="#63b8ff" stroke="#63b8ff" points="2892.4,-95.97 2901.49,-90.54 2890.99,-89.12 2892.4,-95.97"/>
</a>
</g>
</g>
<!-- Node13 -->
<g id="Node000013" class="node">
<title>Node13</title>
<g id="a_Node000013"><a xlink:title=" ">
<polygon fill="#e0e0e0" stroke="#999999" points="698,-19 621,-19 621,0 698,0 698,-19"/>
<text text-anchor="middle" x="659.5" y="-7" font-family="Helvetica,sans-Serif" font-size="10.00">sys/socket.h</text>
</a>
</g>
</g>
<!-- Node12&#45;&gt;Node13 -->
<g id="edge12_Node000012_Node000013" class="edge">
<title>Node12&#45;&gt;Node13</title>
<g id="a_edge12_Node000012_Node000013"><a xlink:title=" ">
<path fill="none" stroke="#63b8ff" d="M1400.25,-133.22C1397.3,-132.77 1394.37,-132.36 1391.5,-132 1345.47,-126.31 589.58,-129.49 557.5,-96 544.9,-82.84 547.52,-70.25 557.5,-55 569.55,-36.59 591.06,-25.76 611.23,-19.4"/>
<polygon fill="#63b8ff" stroke="#63b8ff" points="612.32,-22.73 620.98,-16.62 610.4,-16 612.32,-22.73"/>
</a>
</g>
</g>
<!-- Node14 -->
<g id="Node000014" class="node">
<title>Node14</title>
<g id="a_Node000014"><a xlink:title=" ">
<polygon fill="#e0e0e0" stroke="#999999" points="399.5,-19 327.5,-19 327.5,0 399.5,0 399.5,-19"/>
<text text-anchor="middle" x="363.5" y="-7" font-family="Helvetica,sans-Serif" font-size="10.00">netinet/in.h</text>
</a>
</g>
</g>
<!-- Node12&#45;&gt;Node14 -->
<g id="edge13_Node000012_Node000014" class="edge">
<title>Node12&#45;&gt;Node14</title>
<g id="a_edge13_Node000012_Node000014"><a xlink:title=" ">
<path fill="none" stroke="#63b8ff" d="M1400.26,-133.19C1397.3,-132.75 1394.37,-132.34 1391.5,-132 1335.92,-125.33 427.93,-131.32 384.5,-96 364.88,-80.04 361.85,-49 362.16,-29.03"/>
<polygon fill="#63b8ff" stroke="#63b8ff" points="365.66,-29.15 362.61,-19 358.67,-28.84 365.66,-29.15"/>
</a>
</g>
</g>
<!-- Node15 -->
<g id="Node000015" class="node">
<title>Node15</title>
<g id="a_Node000015"><a xlink:title=" ">
<polygon fill="#e0e0e0" stroke="#999999" points="2309,-85 2240,-85 2240,-66 2309,-66 2309,-85"/>
<text text-anchor="middle" x="2274.5" y="-73" font-family="Helvetica,sans-Serif" font-size="10.00">arpa/inet.h</text>
</a>
</g>
</g>
<!-- Node12&#45;&gt;Node15 -->
<g id="edge14_Node000012_Node000015" class="edge">
<title>Node12&#45;&gt;Node15</title>
<g id="a_edge14_Node000012_Node000015"><a xlink:title=" ">
<path fill="none" stroke="#63b8ff" d="M1518.61,-144.85C1674.79,-141.37 2095.68,-129.13 2230.5,-96 2236.74,-94.47 2243.2,-92.1 2249.18,-89.53"/>
<polygon fill="#63b8ff" stroke="#63b8ff" points="2251.08,-92.51 2258.68,-85.14 2248.14,-86.16 2251.08,-92.51"/>
</a>
</g>
</g>
<!-- Node16 -->
<g id="Node000016" class="node">
<title>Node16</title>
<g id="a_Node000016"><a xlink:title=" ">
<polygon fill="#e0e0e0" stroke="#999999" points="2270,-19 2217,-19 2217,0 2270,0 2270,-19"/>
<text text-anchor="middle" x="2243.5" y="-7" font-family="Helvetica,sans-Serif" font-size="10.00">netdb.h</text>
</a>
</g>
</g>
<!-- Node12&#45;&gt;Node16 -->
<g id="edge15_Node000012_Node000016" class="edge">
<title>Node12&#45;&gt;Node16</title>
<g id="a_edge15_Node000012_Node000016"><a xlink:title=" ">
<path fill="none" stroke="#63b8ff" d="M1518.73,-144.76C1708.56,-140.49 2291.06,-125.08 2318.5,-96 2331.01,-82.75 2327.52,-70.83 2318.5,-55 2310.02,-40.11 2294.37,-29.68 2279.56,-22.69"/>
<polygon fill="#63b8ff" stroke="#63b8ff" points="2280.59,-19.32 2270.02,-18.58 2277.82,-25.75 2280.59,-19.32"/>
</a>
</g>
</g>
<!-- Node17 -->
<g id="Node000017" class="node">
<title>Node17</title>
<g id="a_Node000017"><a xlink:title=" ">
<polygon fill="#e0e0e0" stroke="#999999" points="2421.5,-85 2365.5,-85 2365.5,-66 2421.5,-66 2421.5,-85"/>
<text text-anchor="middle" x="2393.5" y="-73" font-family="Helvetica,sans-Serif" font-size="10.00">unistd.h</text>
</a>
</g>
</g>
<!-- Node12&#45;&gt;Node17 -->
<g id="edge16_Node000012_Node000017" class="edge">
<title>Node12&#45;&gt;Node17</title>
<g id="a_edge16_Node000012_Node000017"><a xlink:title=" ">
<path fill="none" stroke="#63b8ff" d="M1518.78,-143.97C1705.09,-137.43 2271.24,-116.1 2351.5,-96 2357.5,-94.5 2363.68,-92.14 2369.39,-89.58"/>
<polygon fill="#63b8ff" stroke="#63b8ff" points="2370.99,-92.69 2378.46,-85.18 2367.93,-86.39 2370.99,-92.69"/>
</a>
</g>
</g>
<!-- Node18 -->
<g id="Node000018" class="node">
<title>Node18</title>
<g id="a_Node000018"><a xlink:href="_conversion_and_literals_8hpp.html" target="_top" xlink:title=" ">
<polygon fill="white" stroke="#666666" points="2059.5,-90.5 1909.5,-90.5 1909.5,-60.5 2059.5,-60.5 2059.5,-90.5"/>
<text text-anchor="start" x="1917.5" y="-78.5" font-family="Helvetica,sans-Serif" font-size="10.00">Hermes/_base/OsApi</text>
<text text-anchor="middle" x="1984.5" y="-67.5" font-family="Helvetica,sans-Serif" font-size="10.00">/ConversionAndLiterals.hpp</text>
</a>
</g>
</g>
<!-- Node12&#45;&gt;Node18 -->
<g id="edge17_Node000012_Node000018" class="edge">
<title>Node12&#45;&gt;Node18</title>
<g id="a_edge17_Node000012_Node000018"><a xlink:title=" ">
<path fill="none" stroke="#63b8ff" d="M1518.66,-141.47C1603.58,-134.48 1764.76,-119.37 1900.5,-96 1906.27,-95.01 1912.23,-93.86 1918.19,-92.64"/>
<polygon fill="#63b8ff" stroke="#63b8ff" points="1919.15,-96.01 1928.2,-90.51 1917.69,-89.17 1919.15,-96.01"/>
</a>
</g>
</g>
<!-- Node20 -->
<g id="Node000020" class="node">
<title>Node20</title>
<g id="a_Node000020"><a xlink:href="_macros_8hpp.html" target="_top" xlink:title=" ">
<polygon fill="white" stroke="#666666" points="511.5,-90.5 393.5,-90.5 393.5,-60.5 511.5,-60.5 511.5,-90.5"/>
<text text-anchor="start" x="401.5" y="-78.5" font-family="Helvetica,sans-Serif" font-size="10.00">Hermes/_base/OsApi</text>
<text text-anchor="middle" x="452.5" y="-67.5" font-family="Helvetica,sans-Serif" font-size="10.00">/Macros.hpp</text>
</a>
</g>
</g>
<!-- Node12&#45;&gt;Node20 -->
<g id="edge19_Node000012_Node000020" class="edge">
<title>Node12&#45;&gt;Node20</title>
<g id="a_edge19_Node000012_Node000020"><a xlink:title=" ">
<path fill="none" stroke="#63b8ff" d="M1400.26,-133.22C1397.3,-132.76 1394.37,-132.35 1391.5,-132 1009.16,-85.01 906.32,-154.06 525.5,-96 520.07,-95.17 514.46,-94.09 508.88,-92.87"/>
<polygon fill="#63b8ff" stroke="#63b8ff" points="509.44,-89.4 498.91,-90.53 507.84,-96.22 509.44,-89.4"/>
</a>
</g>
</g>
<!-- Node22 -->
<g id="Node000022" class="node">
<title>Node22</title>
<g id="a_Node000022"><a xlink:href="_address_family_enum_8hpp.html" target="_top" xlink:title=" ">
<polygon fill="white" stroke="#666666" points="1293.5,-90.5 1117.5,-90.5 1117.5,-60.5 1293.5,-60.5 1293.5,-90.5"/>
<text text-anchor="start" x="1125.5" y="-78.5" font-family="Helvetica,sans-Serif" font-size="10.00">Hermes/_base/OsApi</text>
<text text-anchor="middle" x="1205.5" y="-67.5" font-family="Helvetica,sans-Serif" font-size="10.00">/Enums/AddressFamilyEnum.hpp</text>
</a>
</g>
</g>
<!-- Node12&#45;&gt;Node22 -->
<g id="edge23_Node000012_Node000022" class="edge">
<title>Node12&#45;&gt;Node22</title>
<g id="a_edge23_Node000012_Node000022"><a xlink:title=" ">
<path fill="none" stroke="#63b8ff" d="M1408.1,-131.94C1367.22,-120.75 1309.9,-105.07 1266.66,-93.23"/>
<polygon fill="#63b8ff" stroke="#63b8ff" points="1267.39,-89.81 1256.82,-90.54 1265.55,-96.56 1267.39,-89.81"/>
</a>
</g>
</g>
<!-- Node23 -->
<g id="Node000023" class="node">
<title>Node23</title>
<g id="a_Node000023"><a xlink:href="_protocol_base_type_enum_8hpp.html" target="_top" xlink:title=" ">
<polygon fill="white" stroke="#666666" points="337,-90.5 146,-90.5 146,-60.5 337,-60.5 337,-90.5"/>
<text text-anchor="start" x="154" y="-78.5" font-family="Helvetica,sans-Serif" font-size="10.00">Hermes/_base/OsApi</text>
<text text-anchor="middle" x="241.5" y="-67.5" font-family="Helvetica,sans-Serif" font-size="10.00">/Enums/ProtocolBaseTypeEnum.hpp</text>
</a>
</g>
</g>
<!-- Node12&#45;&gt;Node23 -->
<g id="edge25_Node000012_Node000023" class="edge">
<title>Node12&#45;&gt;Node23</title>
<g id="a_edge25_Node000012_Node000023"><a xlink:title=" ">
<path fill="none" stroke="#63b8ff" d="M1400.26,-133.19C1397.3,-132.74 1394.37,-132.34 1391.5,-132 932.26,-77.17 811.45,-144.49 351.5,-96 341.88,-94.99 331.83,-93.63 321.89,-92.1"/>
<polygon fill="#63b8ff" stroke="#63b8ff" points="322.43,-88.64 312,-90.51 321.32,-95.55 322.43,-88.64"/>
</a>
</g>
</g>
<!-- Node24 -->
<g id="Node000024" class="node">
<title>Node24</title>
<g id="a_Node000024"><a xlink:href="_socket_shutdown_enum_8hpp.html" target="_top" xlink:title=" ">
<polygon fill="white" stroke="#666666" points="752,-90.5 567,-90.5 567,-60.5 752,-60.5 752,-90.5"/>
<text text-anchor="start" x="575" y="-78.5" font-family="Helvetica,sans-Serif" font-size="10.00">Hermes/_base/OsApi</text>
<text text-anchor="middle" x="659.5" y="-67.5" font-family="Helvetica,sans-Serif" font-size="10.00">/Enums/SocketShutdownEnum.hpp</text>
</a>
</g>
</g>
<!-- Node12&#45;&gt;Node24 -->
<g id="edge27_Node000012_Node000024" class="edge">
<title>Node12&#45;&gt;Node24</title>
<g id="a_edge27_Node000012_Node000024"><a xlink:title=" ">
<path fill="none" stroke="#63b8ff" d="M1400.25,-133.27C1397.3,-132.8 1394.37,-132.38 1391.5,-132 1112.97,-95.58 1039.25,-130.7 760.5,-96 752.28,-94.98 743.73,-93.69 735.23,-92.26"/>
<polygon fill="#63b8ff" stroke="#63b8ff" points="735.76,-88.79 725.31,-90.52 734.56,-95.69 735.76,-88.79"/>
</a>
</g>
</g>
<!-- Node25 -->
<g id="Node000025" class="node">
<title>Node25</title>
<g id="a_Node000025"><a xlink:href="_socket_type_enum_8hpp.html" target="_top" xlink:title=" ">
<polygon fill="white" stroke="#666666" points="929,-90.5 770,-90.5 770,-60.5 929,-60.5 929,-90.5"/>
<text text-anchor="start" x="778" y="-78.5" font-family="Helvetica,sans-Serif" font-size="10.00">Hermes/_base/OsApi</text>
<text text-anchor="middle" x="849.5" y="-67.5" font-family="Helvetica,sans-Serif" font-size="10.00">/Enums/SocketTypeEnum.hpp</text>
</a>
</g>
</g>
<!-- Node12&#45;&gt;Node25 -->
<g id="edge29_Node000012_Node000025" class="edge">
<title>Node12&#45;&gt;Node25</title>
<g id="a_edge29_Node000012_Node000025"><a xlink:title=" ">
<path fill="none" stroke="#63b8ff" d="M1400.24,-133.35C1397.29,-132.86 1394.36,-132.41 1391.5,-132 1191.54,-103.58 1138.28,-125.68 938.5,-96 931.88,-95.02 925.01,-93.82 918.16,-92.52"/>
<polygon fill="#63b8ff" stroke="#63b8ff" points="918.66,-89.05 908.18,-90.54 917.3,-95.92 918.66,-89.05"/>
</a>
</g>
</g>
<!-- Node26 -->
<g id="Node000026" class="node">
<title>Node26</title>
<g id="a_Node000026"><a xlink:title=" ">
<polygon fill="#e0e0e0" stroke="#999999" points="1099.5,-96 947.5,-96 947.5,-55 1099.5,-55 1099.5,-96"/>
<text text-anchor="start" x="955.5" y="-84" font-family="Helvetica,sans-Serif" font-size="10.00">Hermes/_base/OsApi</text>
<text text-anchor="start" x="955.5" y="-73" font-family="Helvetica,sans-Serif" font-size="10.00">/Enums/Linux/EncryptStatus</text>
<text text-anchor="middle" x="1023.5" y="-62" font-family="Helvetica,sans-Serif" font-size="10.00">Enum.hpp</text>
</a>
</g>
</g>
<!-- Node12&#45;&gt;Node26 -->
<g id="edge31_Node000012_Node000026" class="edge">
<title>Node12&#45;&gt;Node26</title>
<g id="a_edge31_Node000012_Node000026"><a xlink:title=" ">
<path fill="none" stroke="#63b8ff" d="M1400.21,-133.52C1397.27,-132.98 1394.35,-132.47 1391.5,-132 1269.6,-111.73 1235.07,-117.87 1109.86,-96.15"/>
<polygon fill="#63b8ff" stroke="#63b8ff" points="1110.34,-92.68 1099.88,-94.4 1109.13,-99.58 1110.34,-92.68"/>
</a>
</g>
</g>
<!-- Node27 -->
<g id="Node000027" class="node">
<title>Node27</title>
<g id="a_Node000027"><a xlink:href="_name_info_flags_8hpp.html" target="_top" xlink:title=" ">
<polygon fill="white" stroke="#666666" points="2221.5,-90.5 2077.5,-90.5 2077.5,-60.5 2221.5,-60.5 2221.5,-90.5"/>
<text text-anchor="start" x="2085.5" y="-78.5" font-family="Helvetica,sans-Serif" font-size="10.00">Hermes/_base/OsApi</text>
<text text-anchor="middle" x="2149.5" y="-67.5" font-family="Helvetica,sans-Serif" font-size="10.00">/Flags/NameInfoFlags.hpp</text>
</a>
</g>
</g>
<!-- Node12&#45;&gt;Node27 -->
<g id="edge32_Node000012_Node000027" class="edge">
<title>Node12&#45;&gt;Node27</title>
<g id="a_edge32_Node000012_Node000027"><a xlink:title=" ">
<path fill="none" stroke="#63b8ff" d="M1518.65,-144.17C1627.9,-140.13 1868.44,-128.1 2068.5,-96 2074.26,-95.08 2080.22,-93.96 2086.17,-92.73"/>
<polygon fill="#63b8ff" stroke="#63b8ff" points="2087.11,-96.11 2096.14,-90.58 2085.63,-89.27 2087.11,-96.11"/>
</a>
</g>
</g>
<!-- Node28 -->
<g id="Node000028" class="node">
<title>Node28</title>
<g id="a_Node000028"><a xlink:title=" ">
<polygon fill="#e0e0e0" stroke="#999999" points="1487.5,-90.5 1311.5,-90.5 1311.5,-60.5 1487.5,-60.5 1487.5,-90.5"/>
<text text-anchor="start" x="1319.5" y="-78.5" font-family="Helvetica,sans-Serif" font-size="10.00">Hermes/_base/OsApi</text>
<text text-anchor="middle" x="1399.5" y="-67.5" font-family="Helvetica,sans-Serif" font-size="10.00">/Flags/Linux/CredentialFlags.hpp</text>
</a>
</g>
</g>
<!-- Node12&#45;&gt;Node28 -->
<g id="edge34_Node000012_Node000028" class="edge">
<title>Node12&#45;&gt;Node28</title>
<g id="a_edge34_Node000012_Node000028"><a xlink:title=" ">
<path fill="none" stroke="#63b8ff" d="M1447.36,-131.94C1438.98,-122.23 1427.68,-109.15 1418.17,-98.13"/>
<polygon fill="#63b8ff" stroke="#63b8ff" points="1420.81,-95.83 1411.62,-90.54 1415.51,-100.4 1420.81,-95.83"/>
</a>
</g>
</g>
<!-- Node29 -->
<g id="Node000029" class="node">
<title>Node29</title>
<g id="a_Node000029"><a xlink:title=" ">
<polygon fill="#e0e0e0" stroke="#999999" points="1679,-96 1506,-96 1506,-55 1679,-55 1679,-96"/>
<text text-anchor="start" x="1514" y="-84" font-family="Helvetica,sans-Serif" font-size="10.00">Hermes/_base/OsApi</text>
<text text-anchor="start" x="1514" y="-73" font-family="Helvetica,sans-Serif" font-size="10.00">/Flags/Linux/SupportedProtocols</text>
<text text-anchor="middle" x="1592.5" y="-62" font-family="Helvetica,sans-Serif" font-size="10.00">Flags.hpp</text>
</a>
</g>
</g>
<!-- Node12&#45;&gt;Node29 -->
<g id="edge35_Node000012_Node000029" class="edge">
<title>Node12&#45;&gt;Node29</title>
<g id="a_edge35_Node000012_Node000029"><a xlink:title=" ">
<path fill="none" stroke="#63b8ff" d="M1486.41,-131.94C1503.53,-122.99 1526.14,-111.18 1546.09,-100.75"/>
<polygon fill="#63b8ff" stroke="#63b8ff" points="1547.8,-103.81 1555.04,-96.07 1544.56,-97.6 1547.8,-103.81"/>
</a>
</g>
</g>
<!-- Node30 -->
<g id="Node000030" class="node">
<title>Node30</title>
<g id="a_Node000030"><a xlink:title=" ">
<polygon fill="#e0e0e0" stroke="#999999" points="1891.5,-90.5 1697.5,-90.5 1697.5,-60.5 1891.5,-60.5 1891.5,-90.5"/>
<text text-anchor="start" x="1705.5" y="-78.5" font-family="Helvetica,sans-Serif" font-size="10.00">Hermes/_base/OsApi</text>
<text text-anchor="middle" x="1794.5" y="-67.5" font-family="Helvetica,sans-Serif" font-size="10.00">/Flags/Linux/SChannelCredFlags.hpp</text>
</a>
</g>
</g>
<!-- Node12&#45;&gt;Node30 -->
<g id="edge36_Node000012_Node000030" class="edge">
<title>Node12&#45;&gt;Node30</title>
<g id="a_edge36_Node000012_Node000030"><a xlink:title=" ">
<path fill="none" stroke="#63b8ff" d="M1518.62,-133.73C1573.78,-122.29 1656.42,-105.15 1716.87,-92.61"/>
<polygon fill="#63b8ff" stroke="#63b8ff" points="1717.67,-96.01 1726.75,-90.56 1716.25,-89.16 1717.67,-96.01"/>
</a>
</g>
</g>
<!-- Node19 -->
<g id="Node000019" class="node">
<title>Node19</title>
<g id="a_Node000019"><a xlink:title=" ">
<polygon fill="#e0e0e0" stroke="#999999" points="2009.5,-19 1959.5,-19 1959.5,0 2009.5,0 2009.5,-19"/>
<text text-anchor="middle" x="1984.5" y="-7" font-family="Helvetica,sans-Serif" font-size="10.00">cstdint</text>
</a>
</g>
</g>
<!-- Node18&#45;&gt;Node19 -->
<g id="edge18_Node000018_Node000019" class="edge">
<title>Node18&#45;&gt;Node19</title>
<g id="a_edge18_Node000018_Node000019"><a xlink:title=" ">
<path fill="none" stroke="#63b8ff" d="M1984.5,-60.3C1984.5,-51.2 1984.5,-39.29 1984.5,-29.4"/>
<polygon fill="#63b8ff" stroke="#63b8ff" points="1988,-29.34 1984.5,-19.34 1981,-29.34 1988,-29.34"/>
</a>
</g>
</g>
<!-- Node20&#45;&gt;Node13 -->
<g id="edge21_Node000020_Node000013" class="edge">
<title>Node20&#45;&gt;Node13</title>
<g id="a_edge21_Node000020_Node000013"><a xlink:title=" ">
<path fill="none" stroke="#63b8ff" d="M497.93,-60.45C535.19,-48.93 587.3,-32.82 622.16,-22.04"/>
<polygon fill="#63b8ff" stroke="#63b8ff" points="623.43,-25.32 631.95,-19.02 621.36,-18.63 623.43,-25.32"/>
</a>
</g>
</g>
<!-- Node20&#45;&gt;Node14 -->
<g id="edge22_Node000020_Node000014" class="edge">
<title>Node20&#45;&gt;Node14</title>
<g id="a_edge22_Node000020_Node000014"><a xlink:title=" ">
<path fill="none" stroke="#63b8ff" d="M432.75,-60.3C418.24,-49.87 398.6,-35.74 383.94,-25.19"/>
<polygon fill="#63b8ff" stroke="#63b8ff" points="385.7,-22.16 375.54,-19.16 381.62,-27.84 385.7,-22.16"/>
</a>
</g>
</g>
<!-- Node21 -->
<g id="Node000021" class="node">
<title>Node21</title>
<g id="a_Node000021"><a xlink:title=" ">
<polygon fill="#e0e0e0" stroke="#999999" points="491,-19 418,-19 418,0 491,0 491,-19"/>
<text text-anchor="middle" x="454.5" y="-7" font-family="Helvetica,sans-Serif" font-size="10.00">string_view</text>
</a>
</g>
</g>
<!-- Node20&#45;&gt;Node21 -->
<g id="edge20_Node000020_Node000021" class="edge">
<title>Node20&#45;&gt;Node21</title>
<g id="a_edge20_Node000020_Node000021"><a xlink:title=" ">
<path fill="none" stroke="#63b8ff" d="M452.94,-60.3C453.23,-51.2 453.6,-39.29 453.91,-29.4"/>
<polygon fill="#63b8ff" stroke="#63b8ff" points="457.41,-29.45 454.22,-19.34 450.41,-29.23 457.41,-29.45"/>
</a>
</g>
</g>
<!-- Node22&#45;&gt;Node13 -->
<g id="edge24_Node000022_Node000013" class="edge">
<title>Node22&#45;&gt;Node13</title>
<g id="a_edge24_Node000022_Node000013"><a xlink:title=" ">
<path fill="none" stroke="#63b8ff" d="M1140.44,-60.49C1129.79,-58.47 1118.86,-56.55 1108.5,-55 963.63,-33.31 790.82,-19.57 708.2,-13.73"/>
<polygon fill="#63b8ff" stroke="#63b8ff" points="708.32,-10.23 698.1,-13.02 707.83,-17.21 708.32,-10.23"/>
</a>
</g>
</g>
<!-- Node23&#45;&gt;Node14 -->
<g id="edge26_Node000023_Node000014" class="edge">
<title>Node23&#45;&gt;Node14</title>
<g id="a_edge26_Node000023_Node000014"><a xlink:title=" ">
<path fill="none" stroke="#63b8ff" d="M268.27,-60.45C289.1,-49.53 317.81,-34.47 338.24,-23.75"/>
<polygon fill="#63b8ff" stroke="#63b8ff" points="340.03,-26.76 347.26,-19.02 336.78,-20.56 340.03,-26.76"/>
</a>
</g>
</g>
<!-- Node24&#45;&gt;Node13 -->
<g id="edge28_Node000024_Node000013" class="edge">
<title>Node24&#45;&gt;Node13</title>
<g id="a_edge28_Node000024_Node000013"><a xlink:title=" ">
<path fill="none" stroke="#63b8ff" d="M659.5,-60.3C659.5,-51.2 659.5,-39.29 659.5,-29.4"/>
<polygon fill="#63b8ff" stroke="#63b8ff" points="663,-29.34 659.5,-19.34 656,-29.34 663,-29.34"/>
</a>
</g>
</g>
<!-- Node25&#45;&gt;Node13 -->
<g id="edge30_Node000025_Node000013" class="edge">
<title>Node25&#45;&gt;Node13</title>
<g id="a_edge30_Node000025_Node000013"><a xlink:title=" ">
<path fill="none" stroke="#63b8ff" d="M807.8,-60.45C773.9,-49.03 726.59,-33.1 694.6,-22.32"/>
<polygon fill="#63b8ff" stroke="#63b8ff" points="695.38,-18.89 684.79,-19.02 693.15,-25.53 695.38,-18.89"/>
</a>
</g>
</g>
<!-- Node27&#45;&gt;Node16 -->
<g id="edge33_Node000027_Node000016" class="edge">
<title>Node27&#45;&gt;Node16</title>
<g id="a_edge33_Node000027_Node000016"><a xlink:title=" ">
<path fill="none" stroke="#63b8ff" d="M2170.36,-60.3C2185.82,-49.77 2206.82,-35.47 2222.35,-24.9"/>
<polygon fill="#63b8ff" stroke="#63b8ff" points="2224.49,-27.68 2230.78,-19.16 2220.55,-21.89 2224.49,-27.68"/>
</a>
</g>
</g>
<!-- Node31&#45;&gt;Node6 -->
<g id="edge45_Node000031_Node000006" class="edge">
<title>Node31&#45;&gt;Node6</title>
<g id="a_edge45_Node000031_Node000006"><a xlink:title=" ">
<path fill="none" stroke="#63b8ff" d="M1292.36,-206.55C1543.55,-188.71 2322.48,-131.13 2430.5,-96 2434.77,-94.61 2439.08,-92.6 2443.12,-90.39"/>
<polygon fill="#63b8ff" stroke="#63b8ff" points="2445.15,-93.25 2451.88,-85.07 2441.52,-87.27 2445.15,-93.25"/>
</a>
</g>
</g>
<!-- Node31&#45;&gt;Node32 -->
<g id="edge38_Node000031_Node000032" class="edge">
<title>Node31&#45;&gt;Node32</title>
<g id="a_edge38_Node000031_Node000032"><a xlink:title=" ">
<path fill="none" stroke="#63b8ff" d="M1136.85,-203.32C1119.62,-201.49 1101.45,-199.62 1084.5,-198 894.74,-179.9 670.96,-162.3 557.14,-153.61"/>
<polygon fill="#63b8ff" stroke="#63b8ff" points="557.37,-150.12 547.13,-152.85 556.84,-157.1 557.37,-150.12"/>
</a>
</g>
</g>
<!-- Node35 -->
<g id="Node000035" class="node">
<title>Node35</title>
<g id="a_Node000035"><a xlink:title=" ">
<polygon fill="#e0e0e0" stroke="#999999" points="1170.5,-156.5 1128.5,-156.5 1128.5,-137.5 1170.5,-137.5 1170.5,-156.5"/>
<text text-anchor="middle" x="1149.5" y="-144.5" font-family="Helvetica,sans-Serif" font-size="10.00">array</text>
</a>
</g>
</g>
<!-- Node31&#45;&gt;Node35 -->
<g id="edge41_Node000031_Node000035" class="edge">
<title>Node31&#45;&gt;Node35</title>
<g id="a_edge41_Node000031_Node000035"><a xlink:title=" ">
<path fill="none" stroke="#63b8ff" d="M1200.07,-197.8C1189.94,-187.82 1176.37,-174.46 1165.84,-164.09"/>
<polygon fill="#63b8ff" stroke="#63b8ff" points="1168.06,-161.37 1158.48,-156.84 1163.15,-166.35 1168.06,-161.37"/>
</a>
</g>
</g>
<!-- Node31&#45;&gt;Node36 -->
<g id="edge42_Node000031_Node000036" class="edge">
<title>Node31&#45;&gt;Node36</title>
<g id="a_edge42_Node000031_Node000036"><a xlink:title=" ">
<path fill="none" stroke="#63b8ff" d="M1136.71,-199.67C1070.36,-188.77 980.34,-172.93 945.5,-162 944.06,-161.55 942.59,-161.04 941.12,-160.51"/>
<polygon fill="#63b8ff" stroke="#63b8ff" points="942.17,-157.15 931.59,-156.6 939.52,-163.63 942.17,-157.15"/>
</a>
</g>
</g>
<!-- Node37 -->
<g id="Node000037" class="node">
<title>Node37</title>
<g id="a_Node000037"><a xlink:title=" ">
<polygon fill="#e0e0e0" stroke="#999999" points="1240,-156.5 1189,-156.5 1189,-137.5 1240,-137.5 1240,-156.5"/>
<text text-anchor="middle" x="1214.5" y="-144.5" font-family="Helvetica,sans-Serif" font-size="10.00">variant</text>
</a>
</g>
</g>
<!-- Node31&#45;&gt;Node37 -->
<g id="edge43_Node000031_Node000037" class="edge">
<title>Node31&#45;&gt;Node37</title>
<g id="a_edge43_Node000031_Node000037"><a xlink:title=" ">
<path fill="none" stroke="#63b8ff" d="M1214.5,-197.8C1214.5,-188.7 1214.5,-176.79 1214.5,-166.9"/>
<polygon fill="#63b8ff" stroke="#63b8ff" points="1218,-166.84 1214.5,-156.84 1211,-166.84 1218,-166.84"/>
</a>
</g>
</g>
<!-- Node31&#45;&gt;Node38 -->
<g id="edge44_Node000031_Node000038" class="edge">
<title>Node31&#45;&gt;Node38</title>
<g id="a_edge44_Node000031_Node000038"><a xlink:title=" ">
<path fill="none" stroke="#63b8ff" d="M1245.22,-197.95C1269.45,-186.88 1302.96,-171.56 1326.46,-160.82"/>
<polygon fill="#63b8ff" stroke="#63b8ff" points="1328.23,-163.86 1335.87,-156.52 1325.32,-157.49 1328.23,-163.86"/>
</a>
</g>
</g>
<!-- Node39 -->
<g id="Node000039" class="node">
<title>Node39</title>
<g id="a_Node000039"><a xlink:title=" ">
<polygon fill="#e0e0e0" stroke="#999999" points="1308.5,-156.5 1258.5,-156.5 1258.5,-137.5 1308.5,-137.5 1308.5,-156.5"/>
<text text-anchor="middle" x="1283.5" y="-144.5" font-family="Helvetica,sans-Serif" font-size="10.00">format</text>
</a>
</g>
</g>
<!-- Node31&#45;&gt;Node39 -->
<g id="edge46_Node000031_Node000039" class="edge">
<title>Node31&#45;&gt;Node39</title>
<g id="a_edge46_Node000031_Node000039"><a xlink:title=" ">
<path fill="none" stroke="#63b8ff" d="M1229.81,-197.8C1240.68,-187.72 1255.26,-174.19 1266.49,-163.78"/>
<polygon fill="#63b8ff" stroke="#63b8ff" points="1269.01,-166.21 1273.96,-156.84 1264.25,-161.08 1269.01,-166.21"/>
</a>
</g>
</g>
<!-- Node40 -->
<g id="Node000040" class="node">
<title>Node40</title>
<g id="a_Node000040"><a xlink:title=" ">
<polygon fill="#e0e0e0" stroke="#999999" points="1110,-162 955,-162 955,-132 1110,-132 1110,-162"/>
<text text-anchor="start" x="963" y="-150" font-family="Helvetica,sans-Serif" font-size="10.00">Hermes/Endpoint/IpEndpoint</text>
<text text-anchor="middle" x="1032.5" y="-139" font-family="Helvetica,sans-Serif" font-size="10.00">/IpAddress.tpp</text>
</a>
</g>
</g>
<!-- Node31&#45;&gt;Node40 -->
<g id="edge47_Node000031_Node000040" class="edge">
<title>Node31&#45;&gt;Node40</title>
<g id="a_edge47_Node000031_Node000040"><a xlink:title=" ">
<path fill="none" stroke="#63b8ff" d="M1174.56,-197.95C1147.3,-188.37 1110.99,-175.6 1081.91,-165.37"/>
<polygon fill="#63b8ff" stroke="#63b8ff" points="1082.94,-162.03 1072.35,-162.01 1080.62,-168.63 1082.94,-162.03"/>
</a>
</g>
</g>
<!-- Node33 -->
<g id="Node000033" class="node">
<title>Node33</title>
<g id="a_Node000033"><a xlink:title=" ">
<polygon fill="#e0e0e0" stroke="#999999" points="45,-85 0,-85 0,-66 45,-66 45,-85"/>
<text text-anchor="middle" x="22.5" y="-73" font-family="Helvetica,sans-Serif" font-size="10.00">utility</text>
</a>
</g>
</g>
<!-- Node32&#45;&gt;Node33 -->
<g id="edge39_Node000032_Node000033" class="edge">
<title>Node32&#45;&gt;Node33</title>
<g id="a_edge39_Node000032_Node000033"><a xlink:title=" ">
<path fill="none" stroke="#63b8ff" d="M417.74,-141.97C314.88,-134.98 119.09,-119.11 53.5,-96 49.56,-94.61 45.61,-92.66 41.9,-90.51"/>
<polygon fill="#63b8ff" stroke="#63b8ff" points="43.66,-87.48 33.36,-85.02 39.88,-93.37 43.66,-87.48"/>
</a>
</g>
</g>
<!-- Node34 -->
<g id="Node000034" class="node">
<title>Node34</title>
<g id="a_Node000034"><a xlink:title=" ">
<polygon fill="#e0e0e0" stroke="#999999" points="128,-85 63,-85 63,-66 128,-66 128,-85"/>
<text text-anchor="middle" x="95.5" y="-73" font-family="Helvetica,sans-Serif" font-size="10.00">functional</text>
</a>
</g>
</g>
<!-- Node32&#45;&gt;Node34 -->
<g id="edge40_Node000032_Node000034" class="edge">
<title>Node32&#45;&gt;Node34</title>
<g id="a_edge40_Node000032_Node000034"><a xlink:title=" ">
<path fill="none" stroke="#63b8ff" d="M417.8,-142.46C347.33,-137.27 231.92,-124.86 136.5,-96 130.94,-94.32 125.17,-91.99 119.79,-89.52"/>
<polygon fill="#63b8ff" stroke="#63b8ff" points="121.16,-86.29 110.64,-85.04 118.08,-92.58 121.16,-86.29"/>
</a>
</g>
</g>
<!-- Node43&#45;&gt;Node3 -->
<g id="edge54_Node000043_Node000003" class="edge">
<title>Node43&#45;&gt;Node3</title>
<g id="a_edge54_Node000043_Node000003"><a xlink:title=" ">
<path fill="none" stroke="#63b8ff" d="M1922.69,-269.47C1912.08,-267.64 1900.92,-265.74 1890.5,-264 1810.92,-250.7 1719.73,-236.07 1656.96,-226.09"/>
<polygon fill="#63b8ff" stroke="#63b8ff" points="1657.18,-222.58 1646.75,-224.47 1656.08,-229.49 1657.18,-222.58"/>
</a>
</g>
</g>
<!-- Node43&#45;&gt;Node4 -->
<g id="edge55_Node000043_Node000004" class="edge">
<title>Node43&#45;&gt;Node4</title>
<g id="a_edge55_Node000043_Node000004"><a xlink:title=" ">
<path fill="none" stroke="#63b8ff" d="M2013.1,-269.47C2117.44,-248.07 2391.62,-191.86 2527.24,-164.05"/>
<polygon fill="#63b8ff" stroke="#63b8ff" points="2528.06,-167.45 2537.15,-162.01 2526.65,-160.59 2528.06,-167.45"/>
</a>
</g>
</g>
<!-- Node43&#45;&gt;Node9 -->
<g id="edge56_Node000043_Node000009" class="edge">
<title>Node43&#45;&gt;Node9</title>
<g id="a_edge56_Node000043_Node000009"><a xlink:title=" ">
<path fill="none" stroke="#63b8ff" d="M2019.43,-269.49C2030.3,-267.62 2041.79,-265.7 2052.5,-264 2163.38,-246.44 2191.57,-245.23 2302.5,-228 2640.41,-175.52 2727.1,-172.02 3060.5,-96 3071.08,-93.59 3082.45,-90.63 3092.92,-87.76"/>
<polygon fill="#63b8ff" stroke="#63b8ff" points="3093.94,-91.11 3102.63,-85.05 3092.06,-84.36 3093.94,-91.11"/>
</a>
</g>
</g>
<!-- Node44 -->
<g id="Node000044" class="node">
<title>Node44</title>
<g id="a_Node000044"><a xlink:title=" ">
<polygon fill="#e0e0e0" stroke="#999999" points="1965.5,-222.5 1905.5,-222.5 1905.5,-203.5 1965.5,-203.5 1965.5,-222.5"/>
<text text-anchor="middle" x="1935.5" y="-210.5" font-family="Helvetica,sans-Serif" font-size="10.00">concepts</text>
</a>
</g>
</g>
<!-- Node43&#45;&gt;Node44 -->
<g id="edge57_Node000043_Node000044" class="edge">
<title>Node43&#45;&gt;Node44</title>
<g id="a_edge57_Node000043_Node000044"><a xlink:title=" ">
<path fill="none" stroke="#63b8ff" d="M1966.64,-269.37C1961.25,-259.78 1952.4,-244.05 1945.51,-231.8"/>
<polygon fill="#63b8ff" stroke="#63b8ff" points="1948.46,-229.91 1940.51,-222.91 1942.36,-233.34 1948.46,-229.91"/>
</a>
</g>
</g>
<!-- Node45 -->
<g id="Node000045" class="node">
<title>Node45</title>
<g id="a_Node000045"><a xlink:title=" ">
<polygon fill="#e0e0e0" stroke="#999999" points="2033.5,-222.5 1983.5,-222.5 1983.5,-203.5 2033.5,-203.5 2033.5,-222.5"/>
<text text-anchor="middle" x="2008.5" y="-210.5" font-family="Helvetica,sans-Serif" font-size="10.00">ranges</text>
</a>
</g>
</g>
<!-- Node43&#45;&gt;Node45 -->
<g id="edge58_Node000043_Node000045" class="edge">
<title>Node43&#45;&gt;Node45</title>
<g id="a_edge58_Node000043_Node000045"><a xlink:title=" ">
<path fill="none" stroke="#63b8ff" d="M1976.49,-269.37C1982.03,-259.78 1991.13,-244.05 1998.21,-231.8"/>
<polygon fill="#63b8ff" stroke="#63b8ff" points="2001.38,-233.31 2003.35,-222.91 1995.32,-229.81 2001.38,-233.31"/>
</a>
</g>
</g>
</g>
</svg>
