<?xml version="1.0" encoding="UTF-8" standalone="no"?>
<!DOCTYPE svg PUBLIC "-//W3C//DTD SVG 1.1//EN"
 "http://www.w3.org/Graphics/SVG/1.1/DTD/svg11.dtd">
<!-- Generated by graphviz version 2.43.0 (0)
 -->
<!-- Title: include/Hermes/Socket/Async/_base/Transfer/DefaultAsyncTransferPolicy.hpp Pages: 1 -->
<svg width="3325pt" height="456pt"
 viewBox="0.00 0.00 3324.50 456.00" xmlns="http://www.w3.org/2000/svg" xmlns:xlink="http://www.w3.org/1999/xlink">
<g id="graph0" class="graph" transform="scale(1 1) rotate(0) translate(4 452)">
<title>include/Hermes/Socket/Async/_base/Transfer/DefaultAsyncTransferPolicy.hpp</title>
<!-- Node1 -->
<g id="Node000001" class="node">
<title>Node1</title>
<g id="a_Node000001"><a xlink:title=" ">
<polygon fill="#999999" stroke="#666666" points="3057,-448 2884,-448 2884,-407 3057,-407 3057,-448"/>
<text text-anchor="start" x="2892" y="-436" font-family="Helvetica,sans-Serif" font-size="10.00">include/Hermes/Socket</text>
<text text-anchor="start" x="2892" y="-425" font-family="Helvetica,sans-Serif" font-size="10.00">/Async/_base/Transfer</text>
<text text-anchor="middle" x="2970.5" y="-414" font-family="Helvetica,sans-Serif" font-size="10.00">/DefaultAsyncTransferPolicy.hpp</text>
</a>
</g>
</g>
<!-- Node2 -->
<g id="Node000002" class="node">
<title>Node2</title>
<g id="a_Node000002"><a xlink:href="_default_socket_data_8hpp.html" target="_top" xlink:title=" ">
<polygon fill="white" stroke="#666666" points="2842.5,-365.5 2710.5,-365.5 2710.5,-335.5 2842.5,-335.5 2842.5,-365.5"/>
<text text-anchor="start" x="2718.5" y="-353.5" font-family="Helvetica,sans-Serif" font-size="10.00">Hermes/Socket/Data</text>
<text text-anchor="middle" x="2776.5" y="-342.5" font-family="Helvetica,sans-Serif" font-size="10.00">/DefaultSocketData.hpp</text>
</a>
</g>
</g>
<!-- Node1&#45;&gt;Node2 -->
<g id="edge1_Node000001_Node000002" class="edge">
<title>Node1&#45;&gt;Node2</title>
<g id="a_edge1_Node000001_Node000002"><a xlink:title=" ">
<path fill="none" stroke="#63b8ff" d="M2920.04,-406.99C2889.88,-395.33 2851.85,-380.63 2822.52,-369.29"/>
<polygon fill="#63b8ff" stroke="#63b8ff" points="2823.52,-365.92 2812.93,-365.58 2820.99,-372.45 2823.52,-365.92"/>
</a>
</g>
</g>
<!-- Node8 -->
<g id="Node000008" class="node">
<title>Node8</title>
<g id="a_Node000008"><a xlink:title=" ">
<polygon fill="#e0e0e0" stroke="#999999" points="3049.5,-85 3009.5,-85 3009.5,-66 3049.5,-66 3049.5,-85"/>
<text text-anchor="middle" x="3029.5" y="-73" font-family="Helvetica,sans-Serif" font-size="10.00">span</text>
</a>
</g>
</g>
<!-- Node1&#45;&gt;Node8 -->
<g id="edge63_Node000001_Node000008" class="edge">
<title>Node1&#45;&gt;Node8</title>
<g id="a_edge63_Node000001_Node000008"><a xlink:title=" ">
<path fill="none" stroke="#63b8ff" d="M2945.52,-406.86C2915.9,-381.17 2870.5,-333.12 2870.5,-280 2870.5,-280 2870.5,-280 2870.5,-212 2870.5,-193.97 2966.44,-122.19 3009.27,-91.05"/>
<polygon fill="#63b8ff" stroke="#63b8ff" points="3011.5,-93.75 3017.55,-85.05 3007.4,-88.08 3011.5,-93.75"/>
</a>
</g>
</g>
<!-- Node10 -->
<g id="Node000010" class="node">
<title>Node10</title>
<g id="a_Node000010"><a xlink:title=" ">
<polygon fill="#e0e0e0" stroke="#999999" points="3193,-85 3068,-85 3068,-66 3193,-66 3193,-85"/>
<text text-anchor="middle" x="3130.5" y="-73" font-family="Helvetica,sans-Serif" font-size="10.00">stdexec/execution.hpp</text>
</a>
</g>
</g>
<!-- Node1&#45;&gt;Node10 -->
<g id="edge62_Node000001_Node000010" class="edge">
<title>Node1&#45;&gt;Node10</title>
<g id="a_edge62_Node000001_Node000010"><a xlink:title=" ">
<path fill="none" stroke="#63b8ff" d="M3018.51,-406.85C3065.63,-384 3130.5,-341.39 3130.5,-280 3130.5,-280 3130.5,-280 3130.5,-212 3130.5,-170.38 3130.5,-121.58 3130.5,-95.39"/>
<polygon fill="#63b8ff" stroke="#63b8ff" points="3134,-95.06 3130.5,-85.06 3127,-95.06 3134,-95.06"/>
</a>
</g>
</g>
<!-- Node44 -->
<g id="Node000044" class="node">
<title>Node44</title>
<g id="a_Node000044"><a xlink:href="__base_8hpp.html" target="_top" xlink:title=" ">
<polygon fill="white" stroke="#666666" points="3042,-288.5 2899,-288.5 2899,-269.5 3042,-269.5 3042,-288.5"/>
<text text-anchor="middle" x="2970.5" y="-276.5" font-family="Helvetica,sans-Serif" font-size="10.00">Hermes/Socket/_base.hpp</text>
</a>
</g>
</g>
<!-- Node1&#45;&gt;Node44 -->
<g id="edge61_Node000001_Node000044" class="edge">
<title>Node1&#45;&gt;Node44</title>
<g id="a_edge61_Node000001_Node000044"><a xlink:title=" ">
<path fill="none" stroke="#63b8ff" d="M2970.5,-406.74C2970.5,-378.45 2970.5,-326.75 2970.5,-298.92"/>
<polygon fill="#63b8ff" stroke="#63b8ff" points="2974,-298.6 2970.5,-288.6 2967,-298.6 2974,-298.6"/>
</a>
</g>
</g>
<!-- Node48 -->
<g id="Node000048" class="node">
<title>Node48</title>
<g id="a_Node000048"><a xlink:title=" ">
<polygon fill="#e0e0e0" stroke="#999999" points="3316.5,-371 3158.5,-371 3158.5,-330 3316.5,-330 3316.5,-371"/>
<text text-anchor="start" x="3166.5" y="-359" font-family="Helvetica,sans-Serif" font-size="10.00">Hermes/Socket/Async</text>
<text text-anchor="start" x="3166.5" y="-348" font-family="Helvetica,sans-Serif" font-size="10.00">/_base/Transfer/DefaultAsync</text>
<text text-anchor="middle" x="3237.5" y="-337" font-family="Helvetica,sans-Serif" font-size="10.00">TransferPolicy.tpp</text>
</a>
</g>
</g>
<!-- Node1&#45;&gt;Node48 -->
<g id="edge64_Node000001_Node000048" class="edge">
<title>Node1&#45;&gt;Node48</title>
<g id="a_edge64_Node000001_Node000048"><a xlink:title=" ">
<path fill="none" stroke="#63b8ff" d="M3039.95,-406.99C3076.12,-396.83 3120.51,-384.36 3158.04,-373.82"/>
<polygon fill="#63b8ff" stroke="#63b8ff" points="3159.25,-377.12 3167.93,-371.04 3157.36,-370.38 3159.25,-377.12"/>
</a>
</g>
</g>
<!-- Node3 -->
<g id="Node000003" class="node">
<title>Node3</title>
<g id="a_Node000003"><a xlink:href="_ip_endpoint_8hpp.html" target="_top" xlink:title=" ">
<polygon fill="white" stroke="#666666" points="1241,-294 1086,-294 1086,-264 1241,-264 1241,-294"/>
<text text-anchor="start" x="1094" y="-282" font-family="Helvetica,sans-Serif" font-size="10.00">Hermes/Endpoint/IpEndpoint</text>
<text text-anchor="middle" x="1163.5" y="-271" font-family="Helvetica,sans-Serif" font-size="10.00">/IpEndpoint.hpp</text>
</a>
</g>
</g>
<!-- Node2&#45;&gt;Node3 -->
<g id="edge2_Node000002_Node000003" class="edge">
<title>Node2&#45;&gt;Node3</title>
<g id="a_edge2_Node000002_Node000003"><a xlink:title=" ">
<path fill="none" stroke="#63b8ff" d="M2710.26,-346.65C2455.7,-335.68 1540.15,-296.23 1251.39,-283.79"/>
<polygon fill="#63b8ff" stroke="#63b8ff" points="1251.53,-280.29 1241.38,-283.36 1251.22,-287.28 1251.53,-280.29"/>
</a>
</g>
</g>
<!-- Node43 -->
<g id="Node000043" class="node">
<title>Node43</title>
<g id="a_Node000043"><a xlink:title=" ">
<polygon fill="#e0e0e0" stroke="#999999" points="2694.5,-288.5 2644.5,-288.5 2644.5,-269.5 2694.5,-269.5 2694.5,-288.5"/>
<text text-anchor="middle" x="2669.5" y="-276.5" font-family="Helvetica,sans-Serif" font-size="10.00">chrono</text>
</a>
</g>
</g>
<!-- Node2&#45;&gt;Node43 -->
<g id="edge53_Node000002_Node000043" class="edge">
<title>Node2&#45;&gt;Node43</title>
<g id="a_edge53_Node000002_Node000043"><a xlink:title=" ">
<path fill="none" stroke="#63b8ff" d="M2754.85,-335.44C2736.27,-323.37 2709.64,-306.07 2691.08,-294.02"/>
<polygon fill="#63b8ff" stroke="#63b8ff" points="2692.98,-291.08 2682.69,-288.57 2689.17,-296.95 2692.98,-291.08"/>
</a>
</g>
</g>
<!-- Node2&#45;&gt;Node44 -->
<g id="edge54_Node000002_Node000044" class="edge">
<title>Node2&#45;&gt;Node44</title>
<g id="a_edge54_Node000002_Node000044"><a xlink:title=" ">
<path fill="none" stroke="#63b8ff" d="M2815.76,-335.44C2851.28,-322.71 2903.04,-304.17 2936.74,-292.09"/>
<polygon fill="#63b8ff" stroke="#63b8ff" points="2938.35,-295.24 2946.58,-288.57 2935.99,-288.65 2938.35,-295.24"/>
</a>
</g>
</g>
<!-- Node47 -->
<g id="Node000047" class="node">
<title>Node47</title>
<g id="a_Node000047"><a xlink:title=" ">
<polygon fill="#e0e0e0" stroke="#999999" points="2842.5,-294 2712.5,-294 2712.5,-264 2842.5,-264 2842.5,-294"/>
<text text-anchor="start" x="2720.5" y="-282" font-family="Helvetica,sans-Serif" font-size="10.00">Hermes/Socket/Data</text>
<text text-anchor="middle" x="2777.5" y="-271" font-family="Helvetica,sans-Serif" font-size="10.00">/DefaultSocketData.tpp</text>
</a>
</g>
</g>
<!-- Node2&#45;&gt;Node47 -->
<g id="edge60_Node000002_Node000047" class="edge">
<title>Node2&#45;&gt;Node47</title>
<g id="a_edge60_Node000002_Node000047"><a xlink:title=" ">
<path fill="none" stroke="#63b8ff" d="M2776.7,-335.44C2776.83,-326.49 2777,-314.66 2777.15,-304.23"/>
<polygon fill="#63b8ff" stroke="#63b8ff" points="2780.65,-304.09 2777.3,-294.04 2773.65,-303.99 2780.65,-304.09"/>
</a>
</g>
</g>
<!-- Node4 -->
<g id="Node000004" class="node">
<title>Node4</title>
<g id="a_Node000004"><a xlink:href="_endpoint_concept_8hpp.html" target="_top" xlink:title=" ">
<polygon fill="white" stroke="#666666" points="2083.5,-228 1951.5,-228 1951.5,-198 2083.5,-198 2083.5,-228"/>
<text text-anchor="start" x="1959.5" y="-216" font-family="Helvetica,sans-Serif" font-size="10.00">Hermes/Endpoint/_base</text>
<text text-anchor="middle" x="2017.5" y="-205" font-family="Helvetica,sans-Serif" font-size="10.00">/EndpointConcept.hpp</text>
</a>
</g>
</g>
<!-- Node3&#45;&gt;Node4 -->
<g id="edge3_Node000003_Node000004" class="edge">
<title>Node3&#45;&gt;Node4</title>
<g id="a_edge3_Node000003_Node000004"><a xlink:title=" ">
<path fill="none" stroke="#63b8ff" d="M1241.17,-272.18C1404.02,-259.98 1779.46,-231.84 1941.15,-219.72"/>
<polygon fill="#63b8ff" stroke="#63b8ff" points="1941.77,-223.18 1951.49,-218.95 1941.25,-216.2 1941.77,-223.18"/>
</a>
</g>
</g>
<!-- Node32 -->
<g id="Node000032" class="node">
<title>Node32</title>
<g id="a_Node000032"><a xlink:href="_ip_address_8hpp.html" target="_top" xlink:title=" ">
<polygon fill="white" stroke="#666666" points="1068,-228 913,-228 913,-198 1068,-198 1068,-228"/>
<text text-anchor="start" x="921" y="-216" font-family="Helvetica,sans-Serif" font-size="10.00">Hermes/Endpoint/IpEndpoint</text>
<text text-anchor="middle" x="990.5" y="-205" font-family="Helvetica,sans-Serif" font-size="10.00">/IpAddress.hpp</text>
</a>
</g>
</g>
<!-- Node3&#45;&gt;Node32 -->
<g id="edge38_Node000003_Node000032" class="edge">
<title>Node3&#45;&gt;Node32</title>
<g id="a_edge38_Node000003_Node000032"><a xlink:title=" ">
<path fill="none" stroke="#63b8ff" d="M1125.53,-263.95C1099.73,-254.41 1065.41,-241.71 1037.83,-231.51"/>
<polygon fill="#63b8ff" stroke="#63b8ff" points="1038.97,-228.2 1028.38,-228.01 1036.54,-234.76 1038.97,-228.2"/>
</a>
</g>
</g>
<!-- Node33 -->
<g id="Node000033" class="node">
<title>Node33</title>
<g id="a_Node000033"><a xlink:href="_hash_8hpp.html" target="_top" xlink:title=" ">
<polygon fill="white" stroke="#666666" points="851,-156.5 722,-156.5 722,-137.5 851,-137.5 851,-156.5"/>
<text text-anchor="middle" x="786.5" y="-144.5" font-family="Helvetica,sans-Serif" font-size="10.00">Hermes/Utils/Hash.hpp</text>
</a>
</g>
</g>
<!-- Node3&#45;&gt;Node33 -->
<g id="edge49_Node000003_Node000033" class="edge">
<title>Node3&#45;&gt;Node33</title>
<g id="a_edge49_Node000003_Node000033"><a xlink:title=" ">
<path fill="none" stroke="#63b8ff" d="M1085.74,-271.44C1032.77,-264.98 961.95,-252.36 903.5,-228 864.6,-211.79 825.38,-181.46 803.68,-163.16"/>
<polygon fill="#63b8ff" stroke="#63b8ff" points="805.88,-160.43 796.01,-156.57 801.32,-165.74 805.88,-160.43"/>
</a>
</g>
</g>
<!-- Node37 -->
<g id="Node000037" class="node">
<title>Node37</title>
<g id="a_Node000037"><a xlink:title=" ">
<polygon fill="#e0e0e0" stroke="#999999" points="703.5,-156.5 659.5,-156.5 659.5,-137.5 703.5,-137.5 703.5,-156.5"/>
<text text-anchor="middle" x="681.5" y="-144.5" font-family="Helvetica,sans-Serif" font-size="10.00">string</text>
</a>
</g>
</g>
<!-- Node3&#45;&gt;Node37 -->
<g id="edge51_Node000003_Node000037" class="edge">
<title>Node3&#45;&gt;Node37</title>
<g id="a_edge51_Node000003_Node000037"><a xlink:title=" ">
<path fill="none" stroke="#63b8ff" d="M1085.96,-271.88C1021.53,-265.33 928.05,-252.4 849.5,-228 795.26,-211.15 736.28,-179.71 704.66,-161.67"/>
<polygon fill="#63b8ff" stroke="#63b8ff" points="706.17,-158.5 695.76,-156.53 702.67,-164.56 706.17,-158.5"/>
</a>
</g>
</g>
<!-- Node39 -->
<g id="Node000039" class="node">
<title>Node39</title>
<g id="a_Node000039"><a xlink:title=" ">
<polygon fill="#e0e0e0" stroke="#999999" points="1297.5,-156.5 1241.5,-156.5 1241.5,-137.5 1297.5,-137.5 1297.5,-156.5"/>
<text text-anchor="middle" x="1269.5" y="-144.5" font-family="Helvetica,sans-Serif" font-size="10.00">optional</text>
</a>
</g>
</g>
<!-- Node3&#45;&gt;Node39 -->
<g id="edge50_Node000003_Node000039" class="edge">
<title>Node3&#45;&gt;Node39</title>
<g id="a_edge50_Node000003_Node000039"><a xlink:title=" ">
<path fill="none" stroke="#63b8ff" d="M1201.73,-263.86C1218.68,-255.78 1237.46,-244.01 1249.5,-228 1262.98,-210.07 1267.45,-184.12 1268.89,-166.68"/>
<polygon fill="#63b8ff" stroke="#63b8ff" points="1272.39,-166.81 1269.46,-156.63 1265.4,-166.41 1272.39,-166.81"/>
</a>
</g>
</g>
<!-- Node42 -->
<g id="Node000042" class="node">
<title>Node42</title>
<g id="a_Node000042"><a xlink:title=" ">
<polygon fill="#e0e0e0" stroke="#999999" points="1241,-228 1086,-228 1086,-198 1241,-198 1241,-228"/>
<text text-anchor="start" x="1094" y="-216" font-family="Helvetica,sans-Serif" font-size="10.00">Hermes/Endpoint/IpEndpoint</text>
<text text-anchor="middle" x="1163.5" y="-205" font-family="Helvetica,sans-Serif" font-size="10.00">/IpEndpoint.tpp</text>
</a>
</g>
</g>
<!-- Node3&#45;&gt;Node42 -->
<g id="edge52_Node000003_Node000042" class="edge">
<title>Node3&#45;&gt;Node42</title>
<g id="a_edge52_Node000003_Node000042"><a xlink:title=" ">
<path fill="none" stroke="#63b8ff" d="M1163.5,-263.8C1163.5,-256.34 1163.5,-246.99 1163.5,-238.41"/>
<polygon fill="#63b8ff" stroke="#63b8ff" points="1167,-238.16 1163.5,-228.16 1160,-238.16 1167,-238.16"/>
</a>
</g>
</g>
<!-- Node5 -->
<g id="Node000005" class="node">
<title>Node5</title>
<g id="a_Node000005"><a xlink:href="_connection_error_enum_8hpp.html" target="_top" xlink:title=" ">
<polygon fill="white" stroke="#666666" points="2843,-162 2676,-162 2676,-132 2843,-132 2843,-162"/>
<text text-anchor="start" x="2684" y="-150" font-family="Helvetica,sans-Serif" font-size="10.00">Hermes/_base/ConnectionError</text>
<text text-anchor="middle" x="2759.5" y="-139" font-family="Helvetica,sans-Serif" font-size="10.00">Enum.hpp</text>
</a>
</g>
</g>
<!-- Node4&#45;&gt;Node5 -->
<g id="edge4_Node000004_Node000005" class="edge">
<title>Node4&#45;&gt;Node5</title>
<g id="a_edge4_Node000004_Node000005"><a xlink:title=" ">
<path fill="none" stroke="#63b8ff" d="M2083.67,-206.29C2215.96,-194.88 2513.4,-169.23 2665.72,-156.09"/>
<polygon fill="#63b8ff" stroke="#63b8ff" points="2666.33,-159.55 2675.99,-155.2 2665.73,-152.58 2666.33,-159.55"/>
</a>
</g>
</g>
<!-- Node13 -->
<g id="Node000013" class="node">
<title>Node13</title>
<g id="a_Node000013"><a xlink:href="_os_api_8hpp.html" target="_top" xlink:title=" ">
<polygon fill="white" stroke="#666666" points="1433.5,-162 1315.5,-162 1315.5,-132 1433.5,-132 1433.5,-162"/>
<text text-anchor="start" x="1323.5" y="-150" font-family="Helvetica,sans-Serif" font-size="10.00">Hermes/_base/OsApi</text>
<text text-anchor="middle" x="1374.5" y="-139" font-family="Helvetica,sans-Serif" font-size="10.00">/OsApi.hpp</text>
</a>
</g>
</g>
<!-- Node4&#45;&gt;Node13 -->
<g id="edge12_Node000004_Node000013" class="edge">
<title>Node4&#45;&gt;Node13</title>
<g id="a_edge12_Node000004_Node000013"><a xlink:title=" ">
<path fill="none" stroke="#63b8ff" d="M1951.41,-205.42C1829.06,-193.24 1568.42,-167.3 1443.74,-154.89"/>
<polygon fill="#63b8ff" stroke="#63b8ff" points="1443.85,-151.39 1433.55,-153.88 1443.16,-158.35 1443.85,-151.39"/>
</a>
</g>
</g>
<!-- Node6 -->
<g id="Node000006" class="node">
<title>Node6</title>
<g id="a_Node000006"><a xlink:title=" ">
<polygon fill="#e0e0e0" stroke="#999999" points="2991.5,-85 2929.5,-85 2929.5,-66 2991.5,-66 2991.5,-85"/>
<text text-anchor="middle" x="2960.5" y="-73" font-family="Helvetica,sans-Serif" font-size="10.00">expected</text>
</a>
</g>
</g>
<!-- Node5&#45;&gt;Node6 -->
<g id="edge5_Node000005_Node000006" class="edge">
<title>Node5&#45;&gt;Node6</title>
<g id="a_edge5_Node000005_Node000006"><a xlink:title=" ">
<path fill="none" stroke="#63b8ff" d="M2812.79,-131.94C2844.77,-122.92 2885.99,-110.25 2921.5,-96 2926.17,-94.13 2931.05,-91.91 2935.71,-89.66"/>
<polygon fill="#63b8ff" stroke="#63b8ff" points="2937.47,-92.69 2944.83,-85.07 2934.32,-86.43 2937.47,-92.69"/>
</a>
</g>
</g>
<!-- Node7 -->
<g id="Node000007" class="node">
<title>Node7</title>
<g id="a_Node000007"><a xlink:title=" ">
<polygon fill="#e0e0e0" stroke="#999999" points="2487,-85 2440,-85 2440,-66 2487,-66 2487,-85"/>
<text text-anchor="middle" x="2463.5" y="-73" font-family="Helvetica,sans-Serif" font-size="10.00">vector</text>
</a>
</g>
</g>
<!-- Node5&#45;&gt;Node7 -->
<g id="edge6_Node000005_Node000007" class="edge">
<title>Node5&#45;&gt;Node7</title>
<g id="a_edge6_Node000005_Node000007"><a xlink:title=" ">
<path fill="none" stroke="#63b8ff" d="M2675.76,-137.58C2623.06,-130.46 2554.34,-117.82 2496.5,-96 2492.55,-94.51 2488.53,-92.56 2484.72,-90.47"/>
<polygon fill="#63b8ff" stroke="#63b8ff" points="2486.21,-87.29 2475.83,-85.17 2482.63,-93.3 2486.21,-87.29"/>
</a>
</g>
</g>
<!-- Node5&#45;&gt;Node8 -->
<g id="edge7_Node000005_Node000008" class="edge">
<title>Node5&#45;&gt;Node8</title>
<g id="a_edge7_Node000005_Node000008"><a xlink:title=" ">
<path fill="none" stroke="#63b8ff" d="M2843.06,-132.19C2900.94,-121.96 2972.44,-107.81 3000.5,-96 3003.84,-94.59 3007.21,-92.78 3010.4,-90.82"/>
<polygon fill="#63b8ff" stroke="#63b8ff" points="3012.45,-93.66 3018.79,-85.17 3008.54,-87.86 3012.45,-93.66"/>
</a>
</g>
</g>
<!-- Node9 -->
<g id="Node000009" class="node">
<title>Node9</title>
<g id="a_Node000009"><a xlink:title=" ">
<polygon fill="#e0e0e0" stroke="#999999" points="2574,-85 2505,-85 2505,-66 2574,-66 2574,-85"/>
<text text-anchor="middle" x="2539.5" y="-73" font-family="Helvetica,sans-Serif" font-size="10.00">type_traits</text>
</a>
</g>
</g>
<!-- Node5&#45;&gt;Node9 -->
<g id="edge8_Node000005_Node000009" class="edge">
<title>Node5&#45;&gt;Node9</title>
<g id="a_edge8_Node000005_Node000009"><a xlink:title=" ">
<path fill="none" stroke="#63b8ff" d="M2702.18,-131.9C2667.46,-122.81 2622.48,-110.1 2583.5,-96 2578,-94.01 2572.22,-91.65 2566.72,-89.27"/>
<polygon fill="#63b8ff" stroke="#63b8ff" points="2567.81,-85.93 2557.25,-85.05 2564.96,-92.32 2567.81,-85.93"/>
</a>
</g>
</g>
<!-- Node5&#45;&gt;Node10 -->
<g id="edge9_Node000005_Node000010" class="edge">
<title>Node5&#45;&gt;Node10</title>
<g id="a_edge9_Node000005_Node000010"><a xlink:title=" ">
<path fill="none" stroke="#63b8ff" d="M2843.05,-134.29C2903.25,-125.3 2986.26,-111.78 3058.5,-96 3069.33,-93.63 3080.98,-90.67 3091.67,-87.77"/>
<polygon fill="#63b8ff" stroke="#63b8ff" points="3092.88,-91.07 3101.58,-85.03 3091.01,-84.32 3092.88,-91.07"/>
</a>
</g>
</g>
<!-- Node11 -->
<g id="Node000011" class="node">
<title>Node11</title>
<g id="a_Node000011"><a xlink:title=" ">
<polygon fill="#e0e0e0" stroke="#999999" points="2726.5,-85 2592.5,-85 2592.5,-66 2726.5,-66 2726.5,-85"/>
<text text-anchor="middle" x="2659.5" y="-73" font-family="Helvetica,sans-Serif" font-size="10.00">exec/any_sender_of.hpp</text>
</a>
</g>
</g>
<!-- Node5&#45;&gt;Node11 -->
<g id="edge10_Node000005_Node000011" class="edge">
<title>Node5&#45;&gt;Node11</title>
<g id="a_edge10_Node000005_Node000011"><a xlink:title=" ">
<path fill="none" stroke="#63b8ff" d="M2739.26,-131.94C2722.06,-119.98 2697.46,-102.88 2680.14,-90.85"/>
<polygon fill="#63b8ff" stroke="#63b8ff" points="2682.04,-87.9 2671.83,-85.07 2678.04,-93.65 2682.04,-87.9"/>
</a>
</g>
</g>
<!-- Node12 -->
<g id="Node000012" class="node">
<title>Node12</title>
<g id="a_Node000012"><a xlink:title=" ">
<polygon fill="#e0e0e0" stroke="#999999" points="2912,-90.5 2745,-90.5 2745,-60.5 2912,-60.5 2912,-90.5"/>
<text text-anchor="start" x="2753" y="-78.5" font-family="Helvetica,sans-Serif" font-size="10.00">Hermes/_base/ConnectionError</text>
<text text-anchor="middle" x="2828.5" y="-67.5" font-family="Helvetica,sans-Serif" font-size="10.00">Enum.tpp</text>
</a>
</g>
</g>
<!-- Node5&#45;&gt;Node12 -->
<g id="edge11_Node000005_Node000012" class="edge">
<title>Node5&#45;&gt;Node12</title>
<g id="a_edge11_Node000005_Node000012"><a xlink:title=" ">
<path fill="none" stroke="#63b8ff" d="M2773.46,-131.94C2783.19,-122.14 2796.34,-108.89 2807.35,-97.81"/>
<polygon fill="#63b8ff" stroke="#63b8ff" points="2810,-100.11 2814.56,-90.54 2805.03,-95.17 2810,-100.11"/>
</a>
</g>
</g>
<!-- Node14 -->
<g id="Node000014" class="node">
<title>Node14</title>
<g id="a_Node000014"><a xlink:title=" ">
<polygon fill="#e0e0e0" stroke="#999999" points="760,-19 683,-19 683,0 760,0 760,-19"/>
<text text-anchor="middle" x="721.5" y="-7" font-family="Helvetica,sans-Serif" font-size="10.00">sys/socket.h</text>
</a>
</g>
</g>
<!-- Node13&#45;&gt;Node14 -->
<g id="edge13_Node000013_Node000014" class="edge">
<title>Node13&#45;&gt;Node14</title>
<g id="a_edge13_Node000013_Node000014"><a xlink:title=" ">
<path fill="none" stroke="#63b8ff" d="M1315.25,-133.26C1312.3,-132.79 1309.37,-132.37 1306.5,-132 1232.12,-122.41 684.1,-150.43 632.5,-96 619.96,-82.78 622.92,-70.5 632.5,-55 641.99,-39.64 658.56,-29.41 674.85,-22.68"/>
<polygon fill="#63b8ff" stroke="#63b8ff" points="676.23,-25.9 684.35,-19.1 673.76,-19.35 676.23,-25.9"/>
</a>
</g>
</g>
<!-- Node15 -->
<g id="Node000015" class="node">
<title>Node15</title>
<g id="a_Node000015"><a xlink:title=" ">
<polygon fill="#e0e0e0" stroke="#999999" points="390.5,-19 318.5,-19 318.5,0 390.5,0 390.5,-19"/>
<text text-anchor="middle" x="354.5" y="-7" font-family="Helvetica,sans-Serif" font-size="10.00">netinet/in.h</text>
</a>
</g>
</g>
<!-- Node13&#45;&gt;Node15 -->
<g id="edge14_Node000013_Node000015" class="edge">
<title>Node13&#45;&gt;Node15</title>
<g id="a_edge14_Node000013_Node000015"><a xlink:title=" ">
<path fill="none" stroke="#63b8ff" d="M1315.26,-133.19C1312.3,-132.74 1309.37,-132.34 1306.5,-132 1248.16,-125.05 290.33,-138.25 249.5,-96 236.84,-82.9 239.44,-70.19 249.5,-55 262.68,-35.1 286.72,-24.08 308.48,-17.98"/>
<polygon fill="#63b8ff" stroke="#63b8ff" points="309.43,-21.35 318.27,-15.51 307.72,-14.56 309.43,-21.35"/>
</a>
</g>
</g>
<!-- Node16 -->
<g id="Node000016" class="node">
<title>Node16</title>
<g id="a_Node000016"><a xlink:title=" ">
<polygon fill="#e0e0e0" stroke="#999999" points="2259,-85 2190,-85 2190,-66 2259,-66 2259,-85"/>
<text text-anchor="middle" x="2224.5" y="-73" font-family="Helvetica,sans-Serif" font-size="10.00">arpa/inet.h</text>
</a>
</g>
</g>
<!-- Node13&#45;&gt;Node16 -->
<g id="edge15_Node000013_Node000016" class="edge">
<title>Node13&#45;&gt;Node16</title>
<g id="a_edge15_Node000013_Node000016"><a xlink:title=" ">
<path fill="none" stroke="#63b8ff" d="M1433.51,-144.73C1593.69,-140.9 2034.1,-127.7 2175.5,-96 2182.7,-94.39 2190.23,-91.85 2197.16,-89.14"/>
<polygon fill="#63b8ff" stroke="#63b8ff" points="2198.9,-92.21 2206.78,-85.13 2196.21,-85.75 2198.9,-92.21"/>
</a>
</g>
</g>
<!-- Node17 -->
<g id="Node000017" class="node">
<title>Node17</title>
<g id="a_Node000017"><a xlink:title=" ">
<polygon fill="#e0e0e0" stroke="#999999" points="2282,-19 2229,-19 2229,0 2282,0 2282,-19"/>
<text text-anchor="middle" x="2255.5" y="-7" font-family="Helvetica,sans-Serif" font-size="10.00">netdb.h</text>
</a>
</g>
</g>
<!-- Node13&#45;&gt;Node17 -->
<g id="edge16_Node000013_Node000017" class="edge">
<title>Node13&#45;&gt;Node17</title>
<g id="a_edge16_Node000013_Node000017"><a xlink:title=" ">
<path fill="none" stroke="#63b8ff" d="M1433.52,-144.62C1602.3,-140.35 2078.93,-125.75 2142.5,-96 2165.28,-85.34 2161.88,-70.73 2181.5,-55 2196.37,-43.08 2214.72,-32.02 2229.43,-23.91"/>
<polygon fill="#63b8ff" stroke="#63b8ff" points="2231.35,-26.85 2238.5,-19.03 2228.03,-20.69 2231.35,-26.85"/>
</a>
</g>
</g>
<!-- Node18 -->
<g id="Node000018" class="node">
<title>Node18</title>
<g id="a_Node000018"><a xlink:title=" ">
<polygon fill="#e0e0e0" stroke="#999999" points="202.5,-85 146.5,-85 146.5,-66 202.5,-66 202.5,-85"/>
<text text-anchor="middle" x="174.5" y="-73" font-family="Helvetica,sans-Serif" font-size="10.00">unistd.h</text>
</a>
</g>
</g>
<!-- Node13&#45;&gt;Node18 -->
<g id="edge17_Node000013_Node000018" class="edge">
<title>Node13&#45;&gt;Node18</title>
<g id="a_edge17_Node000013_Node000018"><a xlink:title=" ">
<path fill="none" stroke="#63b8ff" d="M1315.26,-133.19C1312.3,-132.74 1309.37,-132.34 1306.5,-132 1065.83,-103.46 452.26,-152.16 216.5,-96 210.39,-94.54 204.09,-92.16 198.3,-89.55"/>
<polygon fill="#63b8ff" stroke="#63b8ff" points="199.65,-86.32 189.13,-85.07 196.58,-92.6 199.65,-86.32"/>
</a>
</g>
</g>
<!-- Node19 -->
<g id="Node000019" class="node">
<title>Node19</title>
<g id="a_Node000019"><a xlink:href="_conversion_and_literals_8hpp.html" target="_top" xlink:title=" ">
<polygon fill="white" stroke="#666666" points="2133.5,-90.5 1983.5,-90.5 1983.5,-60.5 2133.5,-60.5 2133.5,-90.5"/>
<text text-anchor="start" x="1991.5" y="-78.5" font-family="Helvetica,sans-Serif" font-size="10.00">Hermes/_base/OsApi</text>
<text text-anchor="middle" x="2058.5" y="-67.5" font-family="Helvetica,sans-Serif" font-size="10.00">/ConversionAndLiterals.hpp</text>
</a>
</g>
</g>
<!-- Node13&#45;&gt;Node19 -->
<g id="edge18_Node000013_Node000019" class="edge">
<title>Node13&#45;&gt;Node19</title>
<g id="a_edge18_Node000013_Node000019"><a xlink:title=" ">
<path fill="none" stroke="#63b8ff" d="M1433.6,-143.92C1541.59,-139.48 1777.78,-126.86 1974.5,-96 1980.61,-95.04 1986.95,-93.88 1993.26,-92.61"/>
<polygon fill="#63b8ff" stroke="#63b8ff" points="1994.08,-96.02 2003.15,-90.55 1992.64,-89.17 1994.08,-96.02"/>
</a>
</g>
</g>
<!-- Node21 -->
<g id="Node000021" class="node">
<title>Node21</title>
<g id="a_Node000021"><a xlink:href="_macros_8hpp.html" target="_top" xlink:title=" ">
<polygon fill="white" stroke="#666666" points="586.5,-90.5 468.5,-90.5 468.5,-60.5 586.5,-60.5 586.5,-90.5"/>
<text text-anchor="start" x="476.5" y="-78.5" font-family="Helvetica,sans-Serif" font-size="10.00">Hermes/_base/OsApi</text>
<text text-anchor="middle" x="527.5" y="-67.5" font-family="Helvetica,sans-Serif" font-size="10.00">/Macros.hpp</text>
</a>
</g>
</g>
<!-- Node13&#45;&gt;Node21 -->
<g id="edge20_Node000013_Node000021" class="edge">
<title>Node13&#45;&gt;Node21</title>
<g id="a_edge20_Node000013_Node000021"><a xlink:title=" ">
<path fill="none" stroke="#63b8ff" d="M1315.25,-133.25C1312.3,-132.79 1309.37,-132.37 1306.5,-132 994.84,-92.21 910.87,-144.81 600.5,-96 595.15,-95.16 589.64,-94.08 584.14,-92.87"/>
<polygon fill="#63b8ff" stroke="#63b8ff" points="584.85,-89.44 574.31,-90.56 583.24,-96.25 584.85,-89.44"/>
</a>
</g>
</g>
<!-- Node23 -->
<g id="Node000023" class="node">
<title>Node23</title>
<g id="a_Node000023"><a xlink:href="_address_family_enum_8hpp.html" target="_top" xlink:title=" ">
<polygon fill="white" stroke="#666666" points="994.5,-90.5 818.5,-90.5 818.5,-60.5 994.5,-60.5 994.5,-90.5"/>
<text text-anchor="start" x="826.5" y="-78.5" font-family="Helvetica,sans-Serif" font-size="10.00">Hermes/_base/OsApi</text>
<text text-anchor="middle" x="906.5" y="-67.5" font-family="Helvetica,sans-Serif" font-size="10.00">/Enums/AddressFamilyEnum.hpp</text>
</a>
</g>
</g>
<!-- Node13&#45;&gt;Node23 -->
<g id="edge24_Node000013_Node000023" class="edge">
<title>Node13&#45;&gt;Node23</title>
<g id="a_edge24_Node000013_Node000023"><a xlink:title=" ">
<path fill="none" stroke="#63b8ff" d="M1315.22,-133.49C1312.27,-132.96 1309.36,-132.46 1306.5,-132 1172.63,-110.31 1137.42,-117.38 1003.5,-96 996.78,-94.93 989.81,-93.72 982.83,-92.44"/>
<polygon fill="#63b8ff" stroke="#63b8ff" points="983.11,-88.93 972.64,-90.53 981.82,-95.81 983.11,-88.93"/>
</a>
</g>
</g>
<!-- Node24 -->
<g id="Node000024" class="node">
<title>Node24</title>
<g id="a_Node000024"><a xlink:href="_protocol_base_type_enum_8hpp.html" target="_top" xlink:title=" ">
<polygon fill="white" stroke="#666666" points="450,-90.5 259,-90.5 259,-60.5 450,-60.5 450,-90.5"/>
<text text-anchor="start" x="267" y="-78.5" font-family="Helvetica,sans-Serif" font-size="10.00">Hermes/_base/OsApi</text>
<text text-anchor="middle" x="354.5" y="-67.5" font-family="Helvetica,sans-Serif" font-size="10.00">/Enums/ProtocolBaseTypeEnum.hpp</text>
</a>
</g>
</g>
<!-- Node13&#45;&gt;Node24 -->
<g id="edge26_Node000013_Node000024" class="edge">
<title>Node13&#45;&gt;Node24</title>
<g id="a_edge26_Node000013_Node000024"><a xlink:title=" ">
<path fill="none" stroke="#63b8ff" d="M1315.25,-133.22C1312.3,-132.77 1309.37,-132.35 1306.5,-132 932.55,-85.86 833.88,-138.5 459.5,-96 450.64,-94.99 441.4,-93.68 432.24,-92.2"/>
<polygon fill="#63b8ff" stroke="#63b8ff" points="432.79,-88.75 422.35,-90.55 431.64,-95.65 432.79,-88.75"/>
</a>
</g>
</g>
<!-- Node25 -->
<g id="Node000025" class="node">
<title>Node25</title>
<g id="a_Node000025"><a xlink:href="_socket_shutdown_enum_8hpp.html" target="_top" xlink:title=" ">
<polygon fill="white" stroke="#666666" points="1368,-90.5 1183,-90.5 1183,-60.5 1368,-60.5 1368,-90.5"/>
<text text-anchor="start" x="1191" y="-78.5" font-family="Helvetica,sans-Serif" font-size="10.00">Hermes/_base/OsApi</text>
<text text-anchor="middle" x="1275.5" y="-67.5" font-family="Helvetica,sans-Serif" font-size="10.00">/Enums/SocketShutdownEnum.hpp</text>
</a>
</g>
</g>
<!-- Node13&#45;&gt;Node25 -->
<g id="edge28_Node000013_Node000025" class="edge">
<title>Node13&#45;&gt;Node25</title>
<g id="a_edge28_Node000013_Node000025"><a xlink:title=" ">
<path fill="none" stroke="#63b8ff" d="M1354.47,-131.94C1339.97,-121.76 1320.18,-107.87 1304.04,-96.54"/>
<polygon fill="#63b8ff" stroke="#63b8ff" points="1305.7,-93.42 1295.5,-90.54 1301.68,-99.15 1305.7,-93.42"/>
</a>
</g>
</g>
<!-- Node26 -->
<g id="Node000026" class="node">
<title>Node26</title>
<g id="a_Node000026"><a xlink:href="_socket_type_enum_8hpp.html" target="_top" xlink:title=" ">
<polygon fill="white" stroke="#666666" points="801,-90.5 642,-90.5 642,-60.5 801,-60.5 801,-90.5"/>
<text text-anchor="start" x="650" y="-78.5" font-family="Helvetica,sans-Serif" font-size="10.00">Hermes/_base/OsApi</text>
<text text-anchor="middle" x="721.5" y="-67.5" font-family="Helvetica,sans-Serif" font-size="10.00">/Enums/SocketTypeEnum.hpp</text>
</a>
</g>
</g>
<!-- Node13&#45;&gt;Node26 -->
<g id="edge30_Node000013_Node000026" class="edge">
<title>Node13&#45;&gt;Node26</title>
<g id="a_edge30_Node000013_Node000026"><a xlink:title=" ">
<path fill="none" stroke="#63b8ff" d="M1315.24,-133.32C1312.29,-132.84 1309.37,-132.4 1306.5,-132 1087.13,-101.61 1028.64,-128.04 809.5,-96 802.84,-95.03 795.94,-93.83 789.06,-92.51"/>
<polygon fill="#63b8ff" stroke="#63b8ff" points="789.52,-89.04 779.03,-90.51 788.15,-95.9 789.52,-89.04"/>
</a>
</g>
</g>
<!-- Node27 -->
<g id="Node000027" class="node">
<title>Node27</title>
<g id="a_Node000027"><a xlink:title=" ">
<polygon fill="#e0e0e0" stroke="#999999" points="1164.5,-96 1012.5,-96 1012.5,-55 1164.5,-55 1164.5,-96"/>
<text text-anchor="start" x="1020.5" y="-84" font-family="Helvetica,sans-Serif" font-size="10.00">Hermes/_base/OsApi</text>
<text text-anchor="start" x="1020.5" y="-73" font-family="Helvetica,sans-Serif" font-size="10.00">/Enums/Linux/EncryptStatus</text>
<text text-anchor="middle" x="1088.5" y="-62" font-family="Helvetica,sans-Serif" font-size="10.00">Enum.hpp</text>
</a>
</g>
</g>
<!-- Node13&#45;&gt;Node27 -->
<g id="edge32_Node000013_Node000027" class="edge">
<title>Node13&#45;&gt;Node27</title>
<g id="a_edge32_Node000013_Node000027"><a xlink:title=" ">
<path fill="none" stroke="#63b8ff" d="M1316.62,-131.94C1275.87,-122.03 1220.61,-108.6 1174.69,-97.45"/>
<polygon fill="#63b8ff" stroke="#63b8ff" points="1175.29,-93.99 1164.74,-95.03 1173.63,-100.79 1175.29,-93.99"/>
</a>
</g>
</g>
<!-- Node28 -->
<g id="Node000028" class="node">
<title>Node28</title>
<g id="a_Node000028"><a xlink:href="_name_info_flags_8hpp.html" target="_top" xlink:title=" ">
<polygon fill="white" stroke="#666666" points="2421.5,-90.5 2277.5,-90.5 2277.5,-60.5 2421.5,-60.5 2421.5,-90.5"/>
<text text-anchor="start" x="2285.5" y="-78.5" font-family="Helvetica,sans-Serif" font-size="10.00">Hermes/_base/OsApi</text>
<text text-anchor="middle" x="2349.5" y="-67.5" font-family="Helvetica,sans-Serif" font-size="10.00">/Flags/NameInfoFlags.hpp</text>
</a>
</g>
</g>
<!-- Node13&#45;&gt;Node28 -->
<g id="edge33_Node000013_Node000028" class="edge">
<title>Node13&#45;&gt;Node28</title>
<g id="a_edge33_Node000013_Node000028"><a xlink:title=" ">
<path fill="none" stroke="#63b8ff" d="M1433.54,-144.09C1605.91,-138.29 2106.53,-119.83 2268.5,-96 2274.6,-95.1 2280.92,-93.96 2287.22,-92.69"/>
<polygon fill="#63b8ff" stroke="#63b8ff" points="2288,-96.1 2297.05,-90.58 2286.54,-89.25 2288,-96.1"/>
</a>
</g>
</g>
<!-- Node29 -->
<g id="Node000029" class="node">
<title>Node29</title>
<g id="a_Node000029"><a xlink:title=" ">
<polygon fill="#e0e0e0" stroke="#999999" points="1561.5,-90.5 1385.5,-90.5 1385.5,-60.5 1561.5,-60.5 1561.5,-90.5"/>
<text text-anchor="start" x="1393.5" y="-78.5" font-family="Helvetica,sans-Serif" font-size="10.00">Hermes/_base/OsApi</text>
<text text-anchor="middle" x="1473.5" y="-67.5" font-family="Helvetica,sans-Serif" font-size="10.00">/Flags/Linux/CredentialFlags.hpp</text>
</a>
</g>
</g>
<!-- Node13&#45;&gt;Node29 -->
<g id="edge35_Node000013_Node000029" class="edge">
<title>Node13&#45;&gt;Node29</title>
<g id="a_edge35_Node000013_Node000029"><a xlink:title=" ">
<path fill="none" stroke="#63b8ff" d="M1394.53,-131.94C1409.03,-121.76 1428.82,-107.87 1444.96,-96.54"/>
<polygon fill="#63b8ff" stroke="#63b8ff" points="1447.32,-99.15 1453.5,-90.54 1443.3,-93.42 1447.32,-99.15"/>
</a>
</g>
</g>
<!-- Node30 -->
<g id="Node000030" class="node">
<title>Node30</title>
<g id="a_Node000030"><a xlink:title=" ">
<polygon fill="#e0e0e0" stroke="#999999" points="1753,-96 1580,-96 1580,-55 1753,-55 1753,-96"/>
<text text-anchor="start" x="1588" y="-84" font-family="Helvetica,sans-Serif" font-size="10.00">Hermes/_base/OsApi</text>
<text text-anchor="start" x="1588" y="-73" font-family="Helvetica,sans-Serif" font-size="10.00">/Flags/Linux/SupportedProtocols</text>
<text text-anchor="middle" x="1666.5" y="-62" font-family="Helvetica,sans-Serif" font-size="10.00">Flags.hpp</text>
</a>
</g>
</g>
<!-- Node13&#45;&gt;Node30 -->
<g id="edge36_Node000013_Node000030" class="edge">
<title>Node13&#45;&gt;Node30</title>
<g id="a_edge36_Node000013_Node000030"><a xlink:title=" ">
<path fill="none" stroke="#63b8ff" d="M1433.59,-131.94C1474.03,-122.31 1528.47,-109.35 1574.54,-98.39"/>
<polygon fill="#63b8ff" stroke="#63b8ff" points="1575.62,-101.73 1584.54,-96.01 1574,-94.92 1575.62,-101.73"/>
</a>
</g>
</g>
<!-- Node31 -->
<g id="Node000031" class="node">
<title>Node31</title>
<g id="a_Node000031"><a xlink:title=" ">
<polygon fill="#e0e0e0" stroke="#999999" points="1965.5,-90.5 1771.5,-90.5 1771.5,-60.5 1965.5,-60.5 1965.5,-90.5"/>
<text text-anchor="start" x="1779.5" y="-78.5" font-family="Helvetica,sans-Serif" font-size="10.00">Hermes/_base/OsApi</text>
<text text-anchor="middle" x="1868.5" y="-67.5" font-family="Helvetica,sans-Serif" font-size="10.00">/Flags/Linux/SChannelCredFlags.hpp</text>
</a>
</g>
</g>
<!-- Node13&#45;&gt;Node31 -->
<g id="edge37_Node000013_Node000031" class="edge">
<title>Node13&#45;&gt;Node31</title>
<g id="a_edge37_Node000013_Node000031"><a xlink:title=" ">
<path fill="none" stroke="#63b8ff" d="M1433.64,-139.32C1509.67,-130.52 1645.69,-114.02 1761.5,-96 1768.89,-94.85 1776.56,-93.59 1784.25,-92.28"/>
<polygon fill="#63b8ff" stroke="#63b8ff" points="1785.07,-95.69 1794.33,-90.53 1783.88,-88.79 1785.07,-95.69"/>
</a>
</g>
</g>
<!-- Node20 -->
<g id="Node000020" class="node">
<title>Node20</title>
<g id="a_Node000020"><a xlink:title=" ">
<polygon fill="#e0e0e0" stroke="#999999" points="2083.5,-19 2033.5,-19 2033.5,0 2083.5,0 2083.5,-19"/>
<text text-anchor="middle" x="2058.5" y="-7" font-family="Helvetica,sans-Serif" font-size="10.00">cstdint</text>
</a>
</g>
</g>
<!-- Node19&#45;&gt;Node20 -->
<g id="edge19_Node000019_Node000020" class="edge">
<title>Node19&#45;&gt;Node20</title>
<g id="a_edge19_Node000019_Node000020"><a xlink:title=" ">
<path fill="none" stroke="#63b8ff" d="M2058.5,-60.3C2058.5,-51.2 2058.5,-39.29 2058.5,-29.4"/>
<polygon fill="#63b8ff" stroke="#63b8ff" points="2062,-29.34 2058.5,-19.34 2055,-29.34 2062,-29.34"/>
</a>
</g>
</g>
<!-- Node21&#45;&gt;Node14 -->
<g id="edge22_Node000021_Node000014" class="edge">
<title>Node21&#45;&gt;Node14</title>
<g id="a_edge22_Node000021_Node000014"><a xlink:title=" ">
<path fill="none" stroke="#63b8ff" d="M570.07,-60.45C604.85,-48.98 653.41,-32.96 686.09,-22.18"/>
<polygon fill="#63b8ff" stroke="#63b8ff" points="687.28,-25.47 695.68,-19.02 685.09,-18.83 687.28,-25.47"/>
</a>
</g>
</g>
<!-- Node21&#45;&gt;Node15 -->
<g id="edge23_Node000021_Node000015" class="edge">
<title>Node21&#45;&gt;Node15</title>
<g id="a_edge23_Node000021_Node000015"><a xlink:title=" ">
<path fill="none" stroke="#63b8ff" d="M489.53,-60.45C458.93,-49.13 416.33,-33.38 387.22,-22.6"/>
<polygon fill="#63b8ff" stroke="#63b8ff" points="388.12,-19.2 377.52,-19.02 385.69,-25.77 388.12,-19.2"/>
</a>
</g>
</g>
<!-- Node22 -->
<g id="Node000022" class="node">
<title>Node22</title>
<g id="a_Node000022"><a xlink:title=" ">
<polygon fill="#e0e0e0" stroke="#999999" points="564,-19 491,-19 491,0 564,0 564,-19"/>
<text text-anchor="middle" x="527.5" y="-7" font-family="Helvetica,sans-Serif" font-size="10.00">string_view</text>
</a>
</g>
</g>
<!-- Node21&#45;&gt;Node22 -->
<g id="edge21_Node000021_Node000022" class="edge">
<title>Node21&#45;&gt;Node22</title>
<g id="a_edge21_Node000021_Node000022"><a xlink:title=" ">
<path fill="none" stroke="#63b8ff" d="M527.5,-60.3C527.5,-51.2 527.5,-39.29 527.5,-29.4"/>
<polygon fill="#63b8ff" stroke="#63b8ff" points="531,-29.34 527.5,-19.34 524,-29.34 531,-29.34"/>
</a>
</g>
</g>
<!-- Node23&#45;&gt;Node14 -->
<g id="edge25_Node000023_Node000014" class="edge">
<title>Node23&#45;&gt;Node14</title>
<g id="a_edge25_Node000023_Node000014"><a xlink:title=" ">
<path fill="none" stroke="#63b8ff" d="M865.9,-60.45C832.89,-49.03 786.83,-33.1 755.68,-22.32"/>
<polygon fill="#63b8ff" stroke="#63b8ff" points="756.72,-18.98 746.12,-19.02 754.43,-25.59 756.72,-18.98"/>
</a>
</g>
</g>
<!-- Node24&#45;&gt;Node15 -->
<g id="edge27_Node000024_Node000015" class="edge">
<title>Node24&#45;&gt;Node15</title>
<g id="a_edge27_Node000024_Node000015"><a xlink:title=" ">
<path fill="none" stroke="#63b8ff" d="M354.5,-60.3C354.5,-51.2 354.5,-39.29 354.5,-29.4"/>
<polygon fill="#63b8ff" stroke="#63b8ff" points="358,-29.34 354.5,-19.34 351,-29.34 358,-29.34"/>
</a>
</g>
</g>
<!-- Node25&#45;&gt;Node14 -->
<g id="edge29_Node000025_Node000014" class="edge">
<title>Node25&#45;&gt;Node14</title>
<g id="a_edge29_Node000025_Node000014"><a xlink:title=" ">
<path fill="none" stroke="#63b8ff" d="M1206.79,-60.48C1195.69,-58.47 1184.3,-56.56 1173.5,-55 1027.37,-33.88 853.2,-19.85 770.18,-13.84"/>
<polygon fill="#63b8ff" stroke="#63b8ff" points="770.26,-10.33 760.04,-13.11 769.76,-17.32 770.26,-10.33"/>
</a>
</g>
</g>
<!-- Node26&#45;&gt;Node14 -->
<g id="edge31_Node000026_Node000014" class="edge">
<title>Node26&#45;&gt;Node14</title>
<g id="a_edge31_Node000026_Node000014"><a xlink:title=" ">
<path fill="none" stroke="#63b8ff" d="M721.5,-60.3C721.5,-51.2 721.5,-39.29 721.5,-29.4"/>
<polygon fill="#63b8ff" stroke="#63b8ff" points="725,-29.34 721.5,-19.34 718,-29.34 725,-29.34"/>
</a>
</g>
</g>
<!-- Node28&#45;&gt;Node17 -->
<g id="edge34_Node000028_Node000017" class="edge">
<title>Node28&#45;&gt;Node17</title>
<g id="a_edge34_Node000028_Node000017"><a xlink:title=" ">
<path fill="none" stroke="#63b8ff" d="M2328.64,-60.3C2313.18,-49.77 2292.18,-35.47 2276.65,-24.9"/>
<polygon fill="#63b8ff" stroke="#63b8ff" points="2278.45,-21.89 2268.22,-19.16 2274.51,-27.68 2278.45,-21.89"/>
</a>
</g>
</g>
<!-- Node32&#45;&gt;Node7 -->
<g id="edge46_Node000032_Node000007" class="edge">
<title>Node32&#45;&gt;Node7</title>
<g id="a_edge46_Node000032_Node000007"><a xlink:title=" ">
<path fill="none" stroke="#63b8ff" d="M1068.27,-199.03C1071.05,-198.67 1073.8,-198.32 1076.5,-198 1675.77,-126.78 1854.77,-276.9 2430.5,-96 2434.79,-94.65 2439.11,-92.66 2443.14,-90.46"/>
<polygon fill="#63b8ff" stroke="#63b8ff" points="2445.18,-93.32 2451.91,-85.14 2441.54,-87.34 2445.18,-93.32"/>
</a>
</g>
</g>
<!-- Node32&#45;&gt;Node33 -->
<g id="edge39_Node000032_Node000033" class="edge">
<title>Node32&#45;&gt;Node33</title>
<g id="a_edge39_Node000032_Node000033"><a xlink:title=" ">
<path fill="none" stroke="#63b8ff" d="M945.73,-197.95C909.01,-186.43 857.66,-170.32 823.3,-159.54"/>
<polygon fill="#63b8ff" stroke="#63b8ff" points="824.24,-156.17 813.65,-156.52 822.14,-162.85 824.24,-156.17"/>
</a>
</g>
</g>
<!-- Node36 -->
<g id="Node000036" class="node">
<title>Node36</title>
<g id="a_Node000036"><a xlink:title=" ">
<polygon fill="#e0e0e0" stroke="#999999" points="911.5,-156.5 869.5,-156.5 869.5,-137.5 911.5,-137.5 911.5,-156.5"/>
<text text-anchor="middle" x="890.5" y="-144.5" font-family="Helvetica,sans-Serif" font-size="10.00">array</text>
</a>
</g>
</g>
<!-- Node32&#45;&gt;Node36 -->
<g id="edge42_Node000032_Node000036" class="edge">
<title>Node32&#45;&gt;Node36</title>
<g id="a_edge42_Node000032_Node000036"><a xlink:title=" ">
<path fill="none" stroke="#63b8ff" d="M968.31,-197.8C951.7,-187.17 929.1,-172.7 912.53,-162.1"/>
<polygon fill="#63b8ff" stroke="#63b8ff" points="914.34,-159.1 904.03,-156.66 910.56,-165 914.34,-159.1"/>
</a>
</g>
</g>
<!-- Node32&#45;&gt;Node37 -->
<g id="edge43_Node000032_Node000037" class="edge">
<title>Node32&#45;&gt;Node37</title>
<g id="a_edge43_Node000032_Node000037"><a xlink:title=" ">
<path fill="none" stroke="#63b8ff" d="M912.88,-203.25C856.44,-195.64 778.65,-182.54 712.5,-162 711.05,-161.55 709.59,-161.05 708.12,-160.52"/>
<polygon fill="#63b8ff" stroke="#63b8ff" points="709.17,-157.16 698.59,-156.62 706.52,-163.64 709.17,-157.16"/>
</a>
</g>
</g>
<!-- Node38 -->
<g id="Node000038" class="node">
<title>Node38</title>
<g id="a_Node000038"><a xlink:title=" ">
<polygon fill="#e0e0e0" stroke="#999999" points="981,-156.5 930,-156.5 930,-137.5 981,-137.5 981,-156.5"/>
<text text-anchor="middle" x="955.5" y="-144.5" font-family="Helvetica,sans-Serif" font-size="10.00">variant</text>
</a>
</g>
</g>
<!-- Node32&#45;&gt;Node38 -->
<g id="edge44_Node000032_Node000038" class="edge">
<title>Node32&#45;&gt;Node38</title>
<g id="a_edge44_Node000032_Node000038"><a xlink:title=" ">
<path fill="none" stroke="#63b8ff" d="M982.73,-197.8C977.54,-188.31 970.68,-175.76 965.14,-165.63"/>
<polygon fill="#63b8ff" stroke="#63b8ff" points="968.21,-163.94 960.34,-156.84 962.06,-167.3 968.21,-163.94"/>
</a>
</g>
</g>
<!-- Node32&#45;&gt;Node39 -->
<g id="edge45_Node000032_Node000039" class="edge">
<title>Node32&#45;&gt;Node39</title>
<g id="a_edge45_Node000032_Node000039"><a xlink:title=" ">
<path fill="none" stroke="#63b8ff" d="M1068.27,-198.9C1115.84,-190.14 1177.68,-177.4 1231.5,-162 1233.78,-161.35 1236.12,-160.62 1238.47,-159.86"/>
<polygon fill="#63b8ff" stroke="#63b8ff" points="1239.68,-163.14 1247.98,-156.56 1237.39,-156.53 1239.68,-163.14"/>
</a>
</g>
</g>
<!-- Node40 -->
<g id="Node000040" class="node">
<title>Node40</title>
<g id="a_Node000040"><a xlink:title=" ">
<polygon fill="#e0e0e0" stroke="#999999" points="1049.5,-156.5 999.5,-156.5 999.5,-137.5 1049.5,-137.5 1049.5,-156.5"/>
<text text-anchor="middle" x="1024.5" y="-144.5" font-family="Helvetica,sans-Serif" font-size="10.00">format</text>
</a>
</g>
</g>
<!-- Node32&#45;&gt;Node40 -->
<g id="edge47_Node000032_Node000040" class="edge">
<title>Node32&#45;&gt;Node40</title>
<g id="a_edge47_Node000032_Node000040"><a xlink:title=" ">
<path fill="none" stroke="#63b8ff" d="M998.05,-197.8C1003.03,-188.41 1009.62,-176.02 1014.97,-165.95"/>
<polygon fill="#63b8ff" stroke="#63b8ff" points="1018.2,-167.32 1019.8,-156.84 1012.02,-164.03 1018.2,-167.32"/>
</a>
</g>
</g>
<!-- Node41 -->
<g id="Node000041" class="node">
<title>Node41</title>
<g id="a_Node000041"><a xlink:title=" ">
<polygon fill="#e0e0e0" stroke="#999999" points="1223,-162 1068,-162 1068,-132 1223,-132 1223,-162"/>
<text text-anchor="start" x="1076" y="-150" font-family="Helvetica,sans-Serif" font-size="10.00">Hermes/Endpoint/IpEndpoint</text>
<text text-anchor="middle" x="1145.5" y="-139" font-family="Helvetica,sans-Serif" font-size="10.00">/IpAddress.tpp</text>
</a>
</g>
</g>
<!-- Node32&#45;&gt;Node41 -->
<g id="edge48_Node000032_Node000041" class="edge">
<title>Node32&#45;&gt;Node41</title>
<g id="a_edge48_Node000032_Node000041"><a xlink:title=" ">
<path fill="none" stroke="#63b8ff" d="M1024.52,-197.95C1047.33,-188.53 1077.58,-176.04 1102.12,-165.91"/>
<polygon fill="#63b8ff" stroke="#63b8ff" points="1103.66,-169.06 1111.56,-162.01 1100.99,-162.59 1103.66,-169.06"/>
</a>
</g>
</g>
<!-- Node34 -->
<g id="Node000034" class="node">
<title>Node34</title>
<g id="a_Node000034"><a xlink:title=" ">
<polygon fill="#e0e0e0" stroke="#999999" points="45,-85 0,-85 0,-66 45,-66 45,-85"/>
<text text-anchor="middle" x="22.5" y="-73" font-family="Helvetica,sans-Serif" font-size="10.00">utility</text>
</a>
</g>
</g>
<!-- Node33&#45;&gt;Node34 -->
<g id="edge40_Node000033_Node000034" class="edge">
<title>Node33&#45;&gt;Node34</title>
<g id="a_edge40_Node000033_Node000034"><a xlink:title=" ">
<path fill="none" stroke="#63b8ff" d="M746.71,-137.47C735.68,-135.38 723.66,-133.35 712.5,-132 566.91,-114.33 193.26,-140.47 53.5,-96 49.46,-94.71 45.42,-92.77 41.65,-90.61"/>
<polygon fill="#63b8ff" stroke="#63b8ff" points="43.31,-87.51 33.01,-85 39.5,-93.38 43.31,-87.51"/>
</a>
</g>
</g>
<!-- Node35 -->
<g id="Node000035" class="node">
<title>Node35</title>
<g id="a_Node000035"><a xlink:title=" ">
<polygon fill="#e0e0e0" stroke="#999999" points="128,-85 63,-85 63,-66 128,-66 128,-85"/>
<text text-anchor="middle" x="95.5" y="-73" font-family="Helvetica,sans-Serif" font-size="10.00">functional</text>
</a>
</g>
</g>
<!-- Node33&#45;&gt;Node35 -->
<g id="edge41_Node000033_Node000035" class="edge">
<title>Node33&#45;&gt;Node35</title>
<g id="a_edge41_Node000033_Node000035"><a xlink:title=" ">
<path fill="none" stroke="#63b8ff" d="M746.32,-137.46C735.39,-135.39 723.53,-133.38 712.5,-132 458.43,-100.14 385.68,-159 137.5,-96 131.51,-94.48 125.33,-92.11 119.61,-89.55"/>
<polygon fill="#63b8ff" stroke="#63b8ff" points="121.07,-86.37 110.55,-85.15 118.02,-92.66 121.07,-86.37"/>
</a>
</g>
</g>
<!-- Node44&#45;&gt;Node4 -->
<g id="edge55_Node000044_Node000004" class="edge">
<title>Node44&#45;&gt;Node4</title>
<g id="a_edge55_Node000044_Node000004"><a xlink:title=" ">
<path fill="none" stroke="#63b8ff" d="M2903.85,-269.48C2886.81,-267.49 2868.49,-265.51 2851.5,-264 2572.83,-239.27 2240.67,-223.42 2093.8,-217.11"/>
<polygon fill="#63b8ff" stroke="#63b8ff" points="2093.69,-213.6 2083.55,-216.67 2093.39,-220.6 2093.69,-213.6"/>
</a>
</g>
</g>
<!-- Node44&#45;&gt;Node5 -->
<g id="edge56_Node000044_Node000005" class="edge">
<title>Node44&#45;&gt;Node5</title>
<g id="a_edge56_Node000044_Node000005"><a xlink:title=" ">
<path fill="none" stroke="#63b8ff" d="M2956.66,-269.47C2923.31,-248.92 2837.83,-196.26 2791.13,-167.49"/>
<polygon fill="#63b8ff" stroke="#63b8ff" points="2792.68,-164.33 2782.33,-162.07 2789.01,-170.29 2792.68,-164.33"/>
</a>
</g>
</g>
<!-- Node44&#45;&gt;Node10 -->
<g id="edge57_Node000044_Node000010" class="edge">
<title>Node44&#45;&gt;Node10</title>
<g id="a_edge57_Node000044_Node000010"><a xlink:title=" ">
<path fill="none" stroke="#63b8ff" d="M3002.27,-269.49C3024.87,-261.96 3054.48,-248.86 3073.5,-228 3091.95,-207.77 3115.33,-130.57 3125.45,-94.84"/>
<polygon fill="#63b8ff" stroke="#63b8ff" points="3128.83,-95.77 3128.15,-85.2 3122.09,-93.89 3128.83,-95.77"/>
</a>
</g>
</g>
<!-- Node45 -->
<g id="Node000045" class="node">
<title>Node45</title>
<g id="a_Node000045"><a xlink:title=" ">
<polygon fill="#e0e0e0" stroke="#999999" points="2996.5,-222.5 2936.5,-222.5 2936.5,-203.5 2996.5,-203.5 2996.5,-222.5"/>
<text text-anchor="middle" x="2966.5" y="-210.5" font-family="Helvetica,sans-Serif" font-size="10.00">concepts</text>
</a>
</g>
</g>
<!-- Node44&#45;&gt;Node45 -->
<g id="edge58_Node000044_Node000045" class="edge">
<title>Node44&#45;&gt;Node45</title>
<g id="a_edge58_Node000044_Node000045"><a xlink:title=" ">
<path fill="none" stroke="#63b8ff" d="M2969.96,-269.37C2969.38,-260.07 2968.44,-244.98 2967.68,-232.9"/>
<polygon fill="#63b8ff" stroke="#63b8ff" points="2971.17,-232.67 2967.06,-222.91 2964.19,-233.1 2971.17,-232.67"/>
</a>
</g>
</g>
<!-- Node46 -->
<g id="Node000046" class="node">
<title>Node46</title>
<g id="a_Node000046"><a xlink:title=" ">
<polygon fill="#e0e0e0" stroke="#999999" points="3064.5,-222.5 3014.5,-222.5 3014.5,-203.5 3064.5,-203.5 3064.5,-222.5"/>
<text text-anchor="middle" x="3039.5" y="-210.5" font-family="Helvetica,sans-Serif" font-size="10.00">ranges</text>
</a>
</g>
</g>
<!-- Node44&#45;&gt;Node46 -->
<g id="edge59_Node000044_Node000046" class="edge">
<title>Node44&#45;&gt;Node46</title>
<g id="a_edge59_Node000044_Node000046"><a xlink:title=" ">
<path fill="none" stroke="#63b8ff" d="M2979.81,-269.37C2990.65,-259.31 3008.8,-242.48 3022.24,-230.01"/>
<polygon fill="#63b8ff" stroke="#63b8ff" points="3024.95,-232.27 3029.9,-222.91 3020.19,-227.14 3024.95,-232.27"/>
</a>
</g>
</g>
</g>
</svg>
