<?xml version="1.0" encoding="UTF-8" standalone="no"?>
<!DOCTYPE svg PUBLIC "-//W3C//DTD SVG 1.1//EN"
 "http://www.w3.org/Graphics/SVG/1.1/DTD/svg11.dtd">
<!-- Generated by graphviz version 2.43.0 (0)
 -->
<!-- Title: include/Hermes/Socket/Sync/_base/Connection/DefaultConnectPolicy.hpp Pages: 1 -->
<svg width="3413pt" height="456pt"
 viewBox="0.00 0.00 3413.00 456.00" xmlns="http://www.w3.org/2000/svg" xmlns:xlink="http://www.w3.org/1999/xlink">
<g id="graph0" class="graph" transform="scale(1 1) rotate(0) translate(4 452)">
<title>include/Hermes/Socket/Sync/_base/Connection/DefaultConnectPolicy.hpp</title>
<!-- Node1 -->
<g id="Node000001" class="node">
<title>Node1</title>
<g id="a_Node000001"><a xlink:title=" ">
<polygon fill="#999999" stroke="#666666" points="853.5,-448 709.5,-448 709.5,-407 853.5,-407 853.5,-448"/>
<text text-anchor="start" x="717.5" y="-436" font-family="Helvetica,sans-Serif" font-size="10.00">include/Hermes/Socket</text>
<text text-anchor="start" x="717.5" y="-425" font-family="Helvetica,sans-Serif" font-size="10.00">/Sync/_base/Connection</text>
<text text-anchor="middle" x="781.5" y="-414" font-family="Helvetica,sans-Serif" font-size="10.00">/DefaultConnectPolicy.hpp</text>
</a>
</g>
</g>
<!-- Node2 -->
<g id="Node000002" class="node">
<title>Node2</title>
<g id="a_Node000002"><a xlink:href="_ip_endpoint_8hpp.html" target="_top" xlink:title=" ">
<polygon fill="white" stroke="#666666" points="606,-294 451,-294 451,-264 606,-264 606,-294"/>
<text text-anchor="start" x="459" y="-282" font-family="Helvetica,sans-Serif" font-size="10.00">Hermes/Endpoint/IpEndpoint</text>
<text text-anchor="middle" x="528.5" y="-271" font-family="Helvetica,sans-Serif" font-size="10.00">/IpEndpoint.hpp</text>
</a>
</g>
</g>
<!-- Node1&#45;&gt;Node2 -->
<g id="edge1_Node000001_Node000002" class="edge">
<title>Node1&#45;&gt;Node2</title>
<g id="a_edge1_Node000001_Node000002"><a xlink:title=" ">
<path fill="none" stroke="#63b8ff" d="M741.31,-406.88C720.8,-396.6 695.58,-383.57 673.5,-371 632.77,-347.81 587.2,-318.66 558.21,-299.7"/>
<polygon fill="#63b8ff" stroke="#63b8ff" points="560.05,-296.71 549.77,-294.15 556.21,-302.57 560.05,-296.71"/>
</a>
</g>
</g>
<!-- Node4 -->
<g id="Node000004" class="node">
<title>Node4</title>
<g id="a_Node000004"><a xlink:href="_connection_error_enum_8hpp.html" target="_top" xlink:title=" ">
<polygon fill="white" stroke="#666666" points="865,-162 698,-162 698,-132 865,-132 865,-162"/>
<text text-anchor="start" x="706" y="-150" font-family="Helvetica,sans-Serif" font-size="10.00">Hermes/_base/ConnectionError</text>
<text text-anchor="middle" x="781.5" y="-139" font-family="Helvetica,sans-Serif" font-size="10.00">Enum.hpp</text>
</a>
</g>
</g>
<!-- Node1&#45;&gt;Node4 -->
<g id="edge51_Node000001_Node000004" class="edge">
<title>Node1&#45;&gt;Node4</title>
<g id="a_edge51_Node000001_Node000004"><a xlink:title=" ">
<path fill="none" stroke="#63b8ff" d="M771.35,-406.9C753.93,-372.05 719.01,-296.49 706.5,-228 704.1,-214.88 700.21,-209.76 706.5,-198 713.39,-185.12 725.23,-174.99 737.49,-167.31"/>
<polygon fill="#63b8ff" stroke="#63b8ff" points="739.52,-170.18 746.43,-162.15 736.02,-164.12 739.52,-170.18"/>
</a>
</g>
</g>
<!-- Node42 -->
<g id="Node000042" class="node">
<title>Node42</title>
<g id="a_Node000042"><a xlink:href="__base_8hpp.html" target="_top" xlink:title=" ">
<polygon fill="white" stroke="#666666" points="947,-288.5 804,-288.5 804,-269.5 947,-269.5 947,-288.5"/>
<text text-anchor="middle" x="875.5" y="-276.5" font-family="Helvetica,sans-Serif" font-size="10.00">Hermes/Socket/_base.hpp</text>
</a>
</g>
</g>
<!-- Node1&#45;&gt;Node42 -->
<g id="edge52_Node000001_Node000042" class="edge">
<title>Node1&#45;&gt;Node42</title>
<g id="a_edge52_Node000001_Node000042"><a xlink:title=" ">
<path fill="none" stroke="#63b8ff" d="M781.08,-406.71C781.57,-385.94 785.05,-353.15 800.5,-330 811.29,-313.83 829.27,-301.58 844.92,-293.25"/>
<polygon fill="#63b8ff" stroke="#63b8ff" points="846.9,-296.18 854.28,-288.58 843.77,-289.92 846.9,-296.18"/>
</a>
</g>
</g>
<!-- Node45 -->
<g id="Node000045" class="node">
<title>Node45</title>
<g id="a_Node000045"><a xlink:href="_default_socket_data_8hpp.html" target="_top" xlink:title=" ">
<polygon fill="white" stroke="#666666" points="941.5,-365.5 809.5,-365.5 809.5,-335.5 941.5,-335.5 941.5,-365.5"/>
<text text-anchor="start" x="817.5" y="-353.5" font-family="Helvetica,sans-Serif" font-size="10.00">Hermes/Socket/Data</text>
<text text-anchor="middle" x="875.5" y="-342.5" font-family="Helvetica,sans-Serif" font-size="10.00">/DefaultSocketData.hpp</text>
</a>
</g>
</g>
<!-- Node1&#45;&gt;Node45 -->
<g id="edge59_Node000001_Node000045" class="edge">
<title>Node1&#45;&gt;Node45</title>
<g id="a_edge59_Node000001_Node000045"><a xlink:title=" ">
<path fill="none" stroke="#63b8ff" d="M806.2,-406.79C819.62,-396.08 836.2,-382.85 849.78,-372.02"/>
<polygon fill="#63b8ff" stroke="#63b8ff" points="852.16,-374.6 857.8,-365.63 847.8,-369.13 852.16,-374.6"/>
</a>
</g>
</g>
<!-- Node48 -->
<g id="Node000048" class="node">
<title>Node48</title>
<g id="a_Node000048"><a xlink:title=" ">
<polygon fill="#e0e0e0" stroke="#999999" points="1145,-371 960,-371 960,-330 1145,-330 1145,-371"/>
<text text-anchor="start" x="968" y="-359" font-family="Helvetica,sans-Serif" font-size="10.00">Hermes/Socket/Sync</text>
<text text-anchor="start" x="968" y="-348" font-family="Helvetica,sans-Serif" font-size="10.00">/_base/Connection/DefaultConnect</text>
<text text-anchor="middle" x="1052.5" y="-337" font-family="Helvetica,sans-Serif" font-size="10.00">Policy.tpp</text>
</a>
</g>
</g>
<!-- Node1&#45;&gt;Node48 -->
<g id="edge64_Node000001_Node000048" class="edge">
<title>Node1&#45;&gt;Node48</title>
<g id="a_edge64_Node000001_Node000048"><a xlink:title=" ">
<path fill="none" stroke="#63b8ff" d="M851.99,-406.99C888.71,-396.83 933.76,-384.36 971.85,-373.82"/>
<polygon fill="#63b8ff" stroke="#63b8ff" points="973.18,-377.08 981.89,-371.04 971.32,-370.34 973.18,-377.08"/>
</a>
</g>
</g>
<!-- Node3 -->
<g id="Node000003" class="node">
<title>Node3</title>
<g id="a_Node000003"><a xlink:href="_endpoint_concept_8hpp.html" target="_top" xlink:title=" ">
<polygon fill="white" stroke="#666666" points="847.5,-228 715.5,-228 715.5,-198 847.5,-198 847.5,-228"/>
<text text-anchor="start" x="723.5" y="-216" font-family="Helvetica,sans-Serif" font-size="10.00">Hermes/Endpoint/_base</text>
<text text-anchor="middle" x="781.5" y="-205" font-family="Helvetica,sans-Serif" font-size="10.00">/EndpointConcept.hpp</text>
</a>
</g>
</g>
<!-- Node2&#45;&gt;Node3 -->
<g id="edge2_Node000002_Node000003" class="edge">
<title>Node2&#45;&gt;Node3</title>
<g id="a_edge2_Node000002_Node000003"><a xlink:title=" ">
<path fill="none" stroke="#63b8ff" d="M584.02,-263.95C622.99,-254.1 675.25,-240.88 716.22,-230.51"/>
<polygon fill="#63b8ff" stroke="#63b8ff" points="717.27,-233.86 726.11,-228.01 715.55,-227.07 717.27,-233.86"/>
</a>
</g>
</g>
<!-- Node31 -->
<g id="Node000031" class="node">
<title>Node31</title>
<g id="a_Node000031"><a xlink:href="_ip_address_8hpp.html" target="_top" xlink:title=" ">
<polygon fill="white" stroke="#666666" points="415,-228 260,-228 260,-198 415,-198 415,-228"/>
<text text-anchor="start" x="268" y="-216" font-family="Helvetica,sans-Serif" font-size="10.00">Hermes/Endpoint/IpEndpoint</text>
<text text-anchor="middle" x="337.5" y="-205" font-family="Helvetica,sans-Serif" font-size="10.00">/IpAddress.hpp</text>
</a>
</g>
</g>
<!-- Node2&#45;&gt;Node31 -->
<g id="edge36_Node000002_Node000031" class="edge">
<title>Node2&#45;&gt;Node31</title>
<g id="a_edge36_Node000002_Node000031"><a xlink:title=" ">
<path fill="none" stroke="#63b8ff" d="M486.58,-263.95C457.85,-254.33 419.54,-241.49 388.96,-231.24"/>
<polygon fill="#63b8ff" stroke="#63b8ff" points="389.91,-227.87 379.32,-228.01 387.69,-234.51 389.91,-227.87"/>
</a>
</g>
</g>
<!-- Node32 -->
<g id="Node000032" class="node">
<title>Node32</title>
<g id="a_Node000032"><a xlink:href="_hash_8hpp.html" target="_top" xlink:title=" ">
<polygon fill="white" stroke="#666666" points="133,-156.5 4,-156.5 4,-137.5 133,-137.5 133,-156.5"/>
<text text-anchor="middle" x="68.5" y="-144.5" font-family="Helvetica,sans-Serif" font-size="10.00">Hermes/Utils/Hash.hpp</text>
</a>
</g>
</g>
<!-- Node2&#45;&gt;Node32 -->
<g id="edge47_Node000002_Node000032" class="edge">
<title>Node2&#45;&gt;Node32</title>
<g id="a_edge47_Node000002_Node000032"><a xlink:title=" ">
<path fill="none" stroke="#63b8ff" d="M450.88,-273.66C385.09,-268.15 289.02,-255.75 209.5,-228 163.39,-211.91 115,-180.87 88.61,-162.54"/>
<polygon fill="#63b8ff" stroke="#63b8ff" points="90.42,-159.54 80.23,-156.64 86.39,-165.26 90.42,-159.54"/>
</a>
</g>
</g>
<!-- Node36 -->
<g id="Node000036" class="node">
<title>Node36</title>
<g id="a_Node000036"><a xlink:title=" ">
<polygon fill="#e0e0e0" stroke="#999999" points="195.5,-156.5 151.5,-156.5 151.5,-137.5 195.5,-137.5 195.5,-156.5"/>
<text text-anchor="middle" x="173.5" y="-144.5" font-family="Helvetica,sans-Serif" font-size="10.00">string</text>
</a>
</g>
</g>
<!-- Node2&#45;&gt;Node36 -->
<g id="edge49_Node000002_Node000036" class="edge">
<title>Node2&#45;&gt;Node36</title>
<g id="a_edge49_Node000002_Node000036"><a xlink:title=" ">
<path fill="none" stroke="#63b8ff" d="M450.88,-276.77C392.66,-272.93 312.66,-261.25 250.5,-228 222.29,-212.91 198.3,-183.76 184.91,-165.13"/>
<polygon fill="#63b8ff" stroke="#63b8ff" points="187.64,-162.92 179.06,-156.7 181.88,-166.91 187.64,-162.92"/>
</a>
</g>
</g>
<!-- Node38 -->
<g id="Node000038" class="node">
<title>Node38</title>
<g id="a_Node000038"><a xlink:title=" ">
<polygon fill="#e0e0e0" stroke="#999999" points="679.5,-156.5 623.5,-156.5 623.5,-137.5 679.5,-137.5 679.5,-156.5"/>
<text text-anchor="middle" x="651.5" y="-144.5" font-family="Helvetica,sans-Serif" font-size="10.00">optional</text>
</a>
</g>
</g>
<!-- Node2&#45;&gt;Node38 -->
<g id="edge48_Node000002_Node000038" class="edge">
<title>Node2&#45;&gt;Node38</title>
<g id="a_edge48_Node000002_Node000038"><a xlink:title=" ">
<path fill="none" stroke="#63b8ff" d="M514.39,-263.96C499.22,-247.12 479.21,-218.6 494.5,-198 527.43,-153.63 561.11,-179.56 613.5,-162 615.4,-161.36 617.35,-160.69 619.31,-160.01"/>
<polygon fill="#63b8ff" stroke="#63b8ff" points="620.84,-163.18 629.07,-156.51 618.48,-156.59 620.84,-163.18"/>
</a>
</g>
</g>
<!-- Node41 -->
<g id="Node000041" class="node">
<title>Node41</title>
<g id="a_Node000041"><a xlink:title=" ">
<polygon fill="#e0e0e0" stroke="#999999" points="659,-228 504,-228 504,-198 659,-198 659,-228"/>
<text text-anchor="start" x="512" y="-216" font-family="Helvetica,sans-Serif" font-size="10.00">Hermes/Endpoint/IpEndpoint</text>
<text text-anchor="middle" x="581.5" y="-205" font-family="Helvetica,sans-Serif" font-size="10.00">/IpEndpoint.tpp</text>
</a>
</g>
</g>
<!-- Node2&#45;&gt;Node41 -->
<g id="edge50_Node000002_Node000041" class="edge">
<title>Node2&#45;&gt;Node41</title>
<g id="a_edge50_Node000002_Node000041"><a xlink:title=" ">
<path fill="none" stroke="#63b8ff" d="M540.26,-263.8C547.06,-255.59 555.74,-245.1 563.39,-235.87"/>
<polygon fill="#63b8ff" stroke="#63b8ff" points="566.09,-238.1 569.77,-228.16 560.7,-233.63 566.09,-238.1"/>
</a>
</g>
</g>
<!-- Node3&#45;&gt;Node4 -->
<g id="edge3_Node000003_Node000004" class="edge">
<title>Node3&#45;&gt;Node4</title>
<g id="a_edge3_Node000003_Node000004"><a xlink:title=" ">
<path fill="none" stroke="#63b8ff" d="M781.5,-197.8C781.5,-190.34 781.5,-180.99 781.5,-172.41"/>
<polygon fill="#63b8ff" stroke="#63b8ff" points="785,-172.16 781.5,-162.16 778,-172.16 785,-172.16"/>
</a>
</g>
</g>
<!-- Node10 -->
<g id="Node000010" class="node">
<title>Node10</title>
<g id="a_Node000010"><a xlink:href="_os_api_8hpp.html" target="_top" xlink:title=" ">
<polygon fill="white" stroke="#666666" points="2147.5,-162 2029.5,-162 2029.5,-132 2147.5,-132 2147.5,-162"/>
<text text-anchor="start" x="2037.5" y="-150" font-family="Helvetica,sans-Serif" font-size="10.00">Hermes/_base/OsApi</text>
<text text-anchor="middle" x="2088.5" y="-139" font-family="Helvetica,sans-Serif" font-size="10.00">/OsApi.hpp</text>
</a>
</g>
</g>
<!-- Node3&#45;&gt;Node10 -->
<g id="edge9_Node000003_Node000010" class="edge">
<title>Node3&#45;&gt;Node10</title>
<g id="a_edge9_Node000003_Node000010"><a xlink:title=" ">
<path fill="none" stroke="#63b8ff" d="M847.6,-205.16C873.98,-202.62 904.66,-199.89 932.5,-198 1344.38,-170.02 1839.95,-154.74 2019.4,-149.8"/>
<polygon fill="#63b8ff" stroke="#63b8ff" points="2019.59,-153.3 2029.49,-149.53 2019.4,-146.3 2019.59,-153.3"/>
</a>
</g>
</g>
<!-- Node5 -->
<g id="Node000005" class="node">
<title>Node5</title>
<g id="a_Node000005"><a xlink:title=" ">
<polygon fill="#e0e0e0" stroke="#999999" points="590.5,-85 528.5,-85 528.5,-66 590.5,-66 590.5,-85"/>
<text text-anchor="middle" x="559.5" y="-73" font-family="Helvetica,sans-Serif" font-size="10.00">expected</text>
</a>
</g>
</g>
<!-- Node4&#45;&gt;Node5 -->
<g id="edge4_Node000004_Node000005" class="edge">
<title>Node4&#45;&gt;Node5</title>
<g id="a_edge4_Node000004_Node000005"><a xlink:title=" ">
<path fill="none" stroke="#63b8ff" d="M719.09,-131.9C683.53,-123.11 638.44,-110.69 599.5,-96 594.57,-94.14 589.42,-91.88 584.53,-89.58"/>
<polygon fill="#63b8ff" stroke="#63b8ff" points="586.07,-86.43 575.55,-85.17 582.98,-92.72 586.07,-86.43"/>
</a>
</g>
</g>
<!-- Node6 -->
<g id="Node000006" class="node">
<title>Node6</title>
<g id="a_Node000006"><a xlink:title=" ">
<polygon fill="#e0e0e0" stroke="#999999" points="378,-85 331,-85 331,-66 378,-66 378,-85"/>
<text text-anchor="middle" x="354.5" y="-73" font-family="Helvetica,sans-Serif" font-size="10.00">vector</text>
</a>
</g>
</g>
<!-- Node4&#45;&gt;Node6 -->
<g id="edge5_Node000004_Node000006" class="edge">
<title>Node4&#45;&gt;Node6</title>
<g id="a_edge5_Node000004_Node000006"><a xlink:title=" ">
<path fill="none" stroke="#63b8ff" d="M697.9,-132.39C603.41,-117.01 454.16,-92.72 387.99,-81.95"/>
<polygon fill="#63b8ff" stroke="#63b8ff" points="388.54,-78.49 378.1,-80.34 387.41,-85.4 388.54,-78.49"/>
</a>
</g>
</g>
<!-- Node7 -->
<g id="Node000007" class="node">
<title>Node7</title>
<g id="a_Node000007"><a xlink:title=" ">
<polygon fill="#e0e0e0" stroke="#999999" points="648.5,-85 608.5,-85 608.5,-66 648.5,-66 648.5,-85"/>
<text text-anchor="middle" x="628.5" y="-73" font-family="Helvetica,sans-Serif" font-size="10.00">span</text>
</a>
</g>
</g>
<!-- Node4&#45;&gt;Node7 -->
<g id="edge6_Node000004_Node000007" class="edge">
<title>Node4&#45;&gt;Node7</title>
<g id="a_edge6_Node000004_Node000007"><a xlink:title=" ">
<path fill="none" stroke="#63b8ff" d="M740.61,-131.97C715.96,-122.91 684.26,-110.19 657.5,-96 654.5,-94.41 651.42,-92.58 648.45,-90.69"/>
<polygon fill="#63b8ff" stroke="#63b8ff" points="650.26,-87.7 640.01,-85.05 646.37,-93.52 650.26,-87.7"/>
</a>
</g>
</g>
<!-- Node8 -->
<g id="Node000008" class="node">
<title>Node8</title>
<g id="a_Node000008"><a xlink:title=" ">
<polygon fill="#e0e0e0" stroke="#999999" points="976,-85 851,-85 851,-66 976,-66 976,-85"/>
<text text-anchor="middle" x="913.5" y="-73" font-family="Helvetica,sans-Serif" font-size="10.00">stdexec/execution.hpp</text>
</a>
</g>
</g>
<!-- Node4&#45;&gt;Node8 -->
<g id="edge7_Node000004_Node000008" class="edge">
<title>Node4&#45;&gt;Node8</title>
<g id="a_edge7_Node000004_Node000008"><a xlink:title=" ">
<path fill="none" stroke="#63b8ff" d="M808.21,-131.94C831.55,-119.65 865.18,-101.94 888.12,-89.87"/>
<polygon fill="#63b8ff" stroke="#63b8ff" points="890.01,-92.82 897.23,-85.07 886.75,-86.63 890.01,-92.82"/>
</a>
</g>
</g>
<!-- Node9 -->
<g id="Node000009" class="node">
<title>Node9</title>
<g id="a_Node000009"><a xlink:title=" ">
<polygon fill="#e0e0e0" stroke="#999999" points="833,-90.5 666,-90.5 666,-60.5 833,-60.5 833,-90.5"/>
<text text-anchor="start" x="674" y="-78.5" font-family="Helvetica,sans-Serif" font-size="10.00">Hermes/_base/ConnectionError</text>
<text text-anchor="middle" x="749.5" y="-67.5" font-family="Helvetica,sans-Serif" font-size="10.00">Enum.tpp</text>
</a>
</g>
</g>
<!-- Node4&#45;&gt;Node9 -->
<g id="edge8_Node000004_Node000009" class="edge">
<title>Node4&#45;&gt;Node9</title>
<g id="a_edge8_Node000004_Node000009"><a xlink:title=" ">
<path fill="none" stroke="#63b8ff" d="M775.02,-131.94C770.77,-122.7 765.11,-110.41 760.2,-99.74"/>
<polygon fill="#63b8ff" stroke="#63b8ff" points="763.33,-98.16 755.97,-90.54 756.97,-101.09 763.33,-98.16"/>
</a>
</g>
</g>
<!-- Node11 -->
<g id="Node000011" class="node">
<title>Node11</title>
<g id="a_Node000011"><a xlink:title=" ">
<polygon fill="#e0e0e0" stroke="#999999" points="1569,-19 1492,-19 1492,0 1569,0 1569,-19"/>
<text text-anchor="middle" x="1530.5" y="-7" font-family="Helvetica,sans-Serif" font-size="10.00">sys/socket.h</text>
</a>
</g>
</g>
<!-- Node10&#45;&gt;Node11 -->
<g id="edge10_Node000010_Node000011" class="edge">
<title>Node10&#45;&gt;Node11</title>
<g id="a_edge10_Node000010_Node000011"><a xlink:title=" ">
<path fill="none" stroke="#63b8ff" d="M2029.35,-144.74C1840.5,-140.41 1262.73,-124.87 1235.5,-96 1162.89,-19.01 1380.19,-10.01 1481.51,-9.85"/>
<polygon fill="#63b8ff" stroke="#63b8ff" points="1481.81,-13.35 1491.81,-9.86 1481.82,-6.35 1481.81,-13.35"/>
</a>
</g>
</g>
<!-- Node12 -->
<g id="Node000012" class="node">
<title>Node12</title>
<g id="a_Node000012"><a xlink:title=" ">
<polygon fill="#e0e0e0" stroke="#999999" points="2064.5,-19 1992.5,-19 1992.5,0 2064.5,0 2064.5,-19"/>
<text text-anchor="middle" x="2028.5" y="-7" font-family="Helvetica,sans-Serif" font-size="10.00">netinet/in.h</text>
</a>
</g>
</g>
<!-- Node10&#45;&gt;Node12 -->
<g id="edge11_Node000010_Node000012" class="edge">
<title>Node10&#45;&gt;Node12</title>
<g id="a_edge11_Node000010_Node000012"><a xlink:title=" ">
<path fill="none" stroke="#63b8ff" d="M2031.86,-131.93C2013.55,-124.41 1995.22,-113.04 1984.5,-96 1974.8,-80.57 1977.57,-71.85 1984.5,-55 1989.31,-43.31 1998.83,-33.05 2007.8,-25.34"/>
<polygon fill="#63b8ff" stroke="#63b8ff" points="2010.1,-27.98 2015.72,-19 2005.73,-22.51 2010.1,-27.98"/>
</a>
</g>
</g>
<!-- Node13 -->
<g id="Node000013" class="node">
<title>Node13</title>
<g id="a_Node000013"><a xlink:title=" ">
<polygon fill="#e0e0e0" stroke="#999999" points="2271,-85 2202,-85 2202,-66 2271,-66 2271,-85"/>
<text text-anchor="middle" x="2236.5" y="-73" font-family="Helvetica,sans-Serif" font-size="10.00">arpa/inet.h</text>
</a>
</g>
</g>
<!-- Node10&#45;&gt;Node13 -->
<g id="edge12_Node000010_Node000013" class="edge">
<title>Node10&#45;&gt;Node13</title>
<g id="a_edge12_Node000010_Node000013"><a xlink:title=" ">
<path fill="none" stroke="#63b8ff" d="M2118.45,-131.94C2144.96,-119.49 2183.34,-101.46 2209.07,-89.38"/>
<polygon fill="#63b8ff" stroke="#63b8ff" points="2210.69,-92.49 2218.25,-85.07 2207.72,-86.15 2210.69,-92.49"/>
</a>
</g>
</g>
<!-- Node14 -->
<g id="Node000014" class="node">
<title>Node14</title>
<g id="a_Node000014"><a xlink:title=" ">
<polygon fill="#e0e0e0" stroke="#999999" points="2376,-19 2323,-19 2323,0 2376,0 2376,-19"/>
<text text-anchor="middle" x="2349.5" y="-7" font-family="Helvetica,sans-Serif" font-size="10.00">netdb.h</text>
</a>
</g>
</g>
<!-- Node10&#45;&gt;Node14 -->
<g id="edge13_Node000010_Node000014" class="edge">
<title>Node10&#45;&gt;Node14</title>
<g id="a_edge13_Node000010_Node000014"><a xlink:title=" ">
<path fill="none" stroke="#63b8ff" d="M2147.82,-140.36C2187.89,-134.3 2240.57,-121.78 2280.5,-96 2294.65,-86.86 2322.13,-49.62 2337.8,-27.41"/>
<polygon fill="#63b8ff" stroke="#63b8ff" points="2340.68,-29.41 2343.54,-19.2 2334.95,-25.39 2340.68,-29.41"/>
</a>
</g>
</g>
<!-- Node15 -->
<g id="Node000015" class="node">
<title>Node15</title>
<g id="a_Node000015"><a xlink:title=" ">
<polygon fill="#e0e0e0" stroke="#999999" points="2545.5,-85 2489.5,-85 2489.5,-66 2545.5,-66 2545.5,-85"/>
<text text-anchor="middle" x="2517.5" y="-73" font-family="Helvetica,sans-Serif" font-size="10.00">unistd.h</text>
</a>
</g>
</g>
<!-- Node10&#45;&gt;Node15 -->
<g id="edge14_Node000010_Node000015" class="edge">
<title>Node10&#45;&gt;Node15</title>
<g id="a_edge14_Node000010_Node000015"><a xlink:title=" ">
<path fill="none" stroke="#63b8ff" d="M2147.68,-144.99C2225.68,-142.19 2366.34,-132.06 2480.5,-96 2485.35,-94.47 2490.32,-92.31 2494.97,-89.99"/>
<polygon fill="#63b8ff" stroke="#63b8ff" points="2496.82,-92.97 2503.96,-85.14 2493.5,-86.81 2496.82,-92.97"/>
</a>
</g>
</g>
<!-- Node16 -->
<g id="Node000016" class="node">
<title>Node16</title>
<g id="a_Node000016"><a xlink:href="_types_8hpp.html" target="_top" xlink:title=" ">
<polygon fill="white" stroke="#666666" points="2681.5,-90.5 2563.5,-90.5 2563.5,-60.5 2681.5,-60.5 2681.5,-90.5"/>
<text text-anchor="start" x="2571.5" y="-78.5" font-family="Helvetica,sans-Serif" font-size="10.00">Hermes/_base/OsApi</text>
<text text-anchor="middle" x="2622.5" y="-67.5" font-family="Helvetica,sans-Serif" font-size="10.00">/Types.hpp</text>
</a>
</g>
</g>
<!-- Node10&#45;&gt;Node16 -->
<g id="edge15_Node000010_Node000016" class="edge">
<title>Node10&#45;&gt;Node16</title>
<g id="a_edge15_Node000010_Node000016"><a xlink:title=" ">
<path fill="none" stroke="#63b8ff" d="M2147.84,-142.92C2236.86,-137.55 2409.96,-124.26 2554.5,-96 2558.89,-95.14 2563.41,-94.13 2567.93,-93.03"/>
<polygon fill="#63b8ff" stroke="#63b8ff" points="2568.96,-96.38 2577.78,-90.51 2567.22,-89.6 2568.96,-96.38"/>
</a>
</g>
</g>
<!-- Node18 -->
<g id="Node000018" class="node">
<title>Node18</title>
<g id="a_Node000018"><a xlink:href="_conversion_and_literals_8hpp.html" target="_top" xlink:title=" ">
<polygon fill="white" stroke="#666666" points="2849.5,-90.5 2699.5,-90.5 2699.5,-60.5 2849.5,-60.5 2849.5,-90.5"/>
<text text-anchor="start" x="2707.5" y="-78.5" font-family="Helvetica,sans-Serif" font-size="10.00">Hermes/_base/OsApi</text>
<text text-anchor="middle" x="2774.5" y="-67.5" font-family="Helvetica,sans-Serif" font-size="10.00">/ConversionAndLiterals.hpp</text>
</a>
</g>
</g>
<!-- Node10&#45;&gt;Node18 -->
<g id="edge17_Node000010_Node000018" class="edge">
<title>Node10&#45;&gt;Node18</title>
<g id="a_edge17_Node000010_Node000018"><a xlink:title=" ">
<path fill="none" stroke="#63b8ff" d="M2147.8,-143.93C2256.15,-139.52 2493.13,-126.94 2690.5,-96 2696.61,-95.04 2702.95,-93.88 2709.26,-92.62"/>
<polygon fill="#63b8ff" stroke="#63b8ff" points="2710.08,-96.02 2719.15,-90.55 2708.64,-89.17 2710.08,-96.02"/>
</a>
</g>
</g>
<!-- Node20 -->
<g id="Node000020" class="node">
<title>Node20</title>
<g id="a_Node000020"><a xlink:href="_macros_8hpp.html" target="_top" xlink:title=" ">
<polygon fill="white" stroke="#666666" points="1936.5,-90.5 1818.5,-90.5 1818.5,-60.5 1936.5,-60.5 1936.5,-90.5"/>
<text text-anchor="start" x="1826.5" y="-78.5" font-family="Helvetica,sans-Serif" font-size="10.00">Hermes/_base/OsApi</text>
<text text-anchor="middle" x="1877.5" y="-67.5" font-family="Helvetica,sans-Serif" font-size="10.00">/Macros.hpp</text>
</a>
</g>
</g>
<!-- Node10&#45;&gt;Node20 -->
<g id="edge19_Node000010_Node000020" class="edge">
<title>Node10&#45;&gt;Node20</title>
<g id="a_edge19_Node000010_Node000020"><a xlink:title=" ">
<path fill="none" stroke="#63b8ff" d="M2045.8,-131.94C2012.34,-120.91 1965.63,-105.53 1929.9,-93.76"/>
<polygon fill="#63b8ff" stroke="#63b8ff" points="1930.73,-90.35 1920.14,-90.54 1928.54,-97 1930.73,-90.35"/>
</a>
</g>
</g>
<!-- Node22 -->
<g id="Node000022" class="node">
<title>Node22</title>
<g id="a_Node000022"><a xlink:href="_address_family_enum_8hpp.html" target="_top" xlink:title=" ">
<polygon fill="white" stroke="#666666" points="1420.5,-90.5 1244.5,-90.5 1244.5,-60.5 1420.5,-60.5 1420.5,-90.5"/>
<text text-anchor="start" x="1252.5" y="-78.5" font-family="Helvetica,sans-Serif" font-size="10.00">Hermes/_base/OsApi</text>
<text text-anchor="middle" x="1332.5" y="-67.5" font-family="Helvetica,sans-Serif" font-size="10.00">/Enums/AddressFamilyEnum.hpp</text>
</a>
</g>
</g>
<!-- Node10&#45;&gt;Node22 -->
<g id="edge22_Node000010_Node000022" class="edge">
<title>Node10&#45;&gt;Node22</title>
<g id="a_edge22_Node000010_Node000022"><a xlink:title=" ">
<path fill="none" stroke="#63b8ff" d="M2029.17,-143.94C1913.39,-139.38 1649.44,-126.33 1429.5,-96 1421.96,-94.96 1414.13,-93.7 1406.33,-92.32"/>
<polygon fill="#63b8ff" stroke="#63b8ff" points="1406.96,-88.87 1396.49,-90.52 1405.7,-95.76 1406.96,-88.87"/>
</a>
</g>
</g>
<!-- Node23 -->
<g id="Node000023" class="node">
<title>Node23</title>
<g id="a_Node000023"><a xlink:href="_protocol_base_type_enum_8hpp.html" target="_top" xlink:title=" ">
<polygon fill="white" stroke="#666666" points="2184,-90.5 1993,-90.5 1993,-60.5 2184,-60.5 2184,-90.5"/>
<text text-anchor="start" x="2001" y="-78.5" font-family="Helvetica,sans-Serif" font-size="10.00">Hermes/_base/OsApi</text>
<text text-anchor="middle" x="2088.5" y="-67.5" font-family="Helvetica,sans-Serif" font-size="10.00">/Enums/ProtocolBaseTypeEnum.hpp</text>
</a>
</g>
</g>
<!-- Node10&#45;&gt;Node23 -->
<g id="edge24_Node000010_Node000023" class="edge">
<title>Node10&#45;&gt;Node23</title>
<g id="a_edge24_Node000010_Node000023"><a xlink:title=" ">
<path fill="none" stroke="#63b8ff" d="M2088.5,-131.94C2088.5,-122.99 2088.5,-111.16 2088.5,-100.73"/>
<polygon fill="#63b8ff" stroke="#63b8ff" points="2092,-100.54 2088.5,-90.54 2085,-100.54 2092,-100.54"/>
</a>
</g>
</g>
<!-- Node24 -->
<g id="Node000024" class="node">
<title>Node24</title>
<g id="a_Node000024"><a xlink:href="_socket_shutdown_enum_8hpp.html" target="_top" xlink:title=" ">
<polygon fill="white" stroke="#666666" points="1623,-90.5 1438,-90.5 1438,-60.5 1623,-60.5 1623,-90.5"/>
<text text-anchor="start" x="1446" y="-78.5" font-family="Helvetica,sans-Serif" font-size="10.00">Hermes/_base/OsApi</text>
<text text-anchor="middle" x="1530.5" y="-67.5" font-family="Helvetica,sans-Serif" font-size="10.00">/Enums/SocketShutdownEnum.hpp</text>
</a>
</g>
</g>
<!-- Node10&#45;&gt;Node24 -->
<g id="edge26_Node000010_Node000024" class="edge">
<title>Node10&#45;&gt;Node24</title>
<g id="a_edge26_Node000010_Node000024"><a xlink:title=" ">
<path fill="none" stroke="#63b8ff" d="M2029.28,-141.03C1942.11,-133.36 1774.26,-117.29 1632.5,-96 1625.12,-94.89 1617.47,-93.63 1609.82,-92.3"/>
<polygon fill="#63b8ff" stroke="#63b8ff" points="1610.24,-88.82 1599.78,-90.51 1609.01,-95.71 1610.24,-88.82"/>
</a>
</g>
</g>
<!-- Node25 -->
<g id="Node000025" class="node">
<title>Node25</title>
<g id="a_Node000025"><a xlink:href="_socket_type_enum_8hpp.html" target="_top" xlink:title=" ">
<polygon fill="white" stroke="#666666" points="1800,-90.5 1641,-90.5 1641,-60.5 1800,-60.5 1800,-90.5"/>
<text text-anchor="start" x="1649" y="-78.5" font-family="Helvetica,sans-Serif" font-size="10.00">Hermes/_base/OsApi</text>
<text text-anchor="middle" x="1720.5" y="-67.5" font-family="Helvetica,sans-Serif" font-size="10.00">/Enums/SocketTypeEnum.hpp</text>
</a>
</g>
</g>
<!-- Node10&#45;&gt;Node25 -->
<g id="edge28_Node000010_Node000025" class="edge">
<title>Node10&#45;&gt;Node25</title>
<g id="a_edge28_Node000010_Node000025"><a xlink:title=" ">
<path fill="none" stroke="#63b8ff" d="M2029.32,-136.07C1972.76,-126.42 1885.15,-111.06 1809.5,-96 1804.17,-94.94 1798.66,-93.81 1793.13,-92.65"/>
<polygon fill="#63b8ff" stroke="#63b8ff" points="1793.67,-89.19 1783.16,-90.55 1792.22,-96.04 1793.67,-89.19"/>
</a>
</g>
</g>
<!-- Node26 -->
<g id="Node000026" class="node">
<title>Node26</title>
<g id="a_Node000026"><a xlink:href="_linux_2_encrypt_status_enum_8hpp.html" target="_top" xlink:title=" ">
<polygon fill="white" stroke="#666666" points="3019.5,-96 2867.5,-96 2867.5,-55 3019.5,-55 3019.5,-96"/>
<text text-anchor="start" x="2875.5" y="-84" font-family="Helvetica,sans-Serif" font-size="10.00">Hermes/_base/OsApi</text>
<text text-anchor="start" x="2875.5" y="-73" font-family="Helvetica,sans-Serif" font-size="10.00">/Enums/Linux/EncryptStatus</text>
<text text-anchor="middle" x="2943.5" y="-62" font-family="Helvetica,sans-Serif" font-size="10.00">Enum.hpp</text>
</a>
</g>
</g>
<!-- Node10&#45;&gt;Node26 -->
<g id="edge30_Node000010_Node000026" class="edge">
<title>Node10&#45;&gt;Node26</title>
<g id="a_edge30_Node000010_Node000026"><a xlink:title=" ">
<path fill="none" stroke="#63b8ff" d="M2147.77,-145.39C2275.77,-143.37 2587.65,-134.68 2857.18,-96.07"/>
<polygon fill="#63b8ff" stroke="#63b8ff" points="2857.76,-99.52 2867.15,-94.62 2856.76,-92.59 2857.76,-99.52"/>
</a>
</g>
</g>
<!-- Node27 -->
<g id="Node000027" class="node">
<title>Node27</title>
<g id="a_Node000027"><a xlink:href="_name_info_flags_8hpp.html" target="_top" xlink:title=" ">
<polygon fill="white" stroke="#666666" points="2471.5,-90.5 2327.5,-90.5 2327.5,-60.5 2471.5,-60.5 2471.5,-90.5"/>
<text text-anchor="start" x="2335.5" y="-78.5" font-family="Helvetica,sans-Serif" font-size="10.00">Hermes/_base/OsApi</text>
<text text-anchor="middle" x="2399.5" y="-67.5" font-family="Helvetica,sans-Serif" font-size="10.00">/Flags/NameInfoFlags.hpp</text>
</a>
</g>
</g>
<!-- Node10&#45;&gt;Node27 -->
<g id="edge31_Node000010_Node000027" class="edge">
<title>Node10&#45;&gt;Node27</title>
<g id="a_edge31_Node000010_Node000027"><a xlink:title=" ">
<path fill="none" stroke="#63b8ff" d="M2147.73,-132.91C2193.11,-122.86 2257.28,-108.62 2313.5,-96 2318.11,-94.96 2322.86,-93.9 2327.65,-92.82"/>
<polygon fill="#63b8ff" stroke="#63b8ff" points="2328.52,-96.21 2337.5,-90.59 2326.98,-89.38 2328.52,-96.21"/>
</a>
</g>
</g>
<!-- Node28 -->
<g id="Node000028" class="node">
<title>Node28</title>
<g id="a_Node000028"><a xlink:href="_linux_2_credential_flags_8hpp.html" target="_top" xlink:title=" ">
<polygon fill="white" stroke="#666666" points="3213.5,-90.5 3037.5,-90.5 3037.5,-60.5 3213.5,-60.5 3213.5,-90.5"/>
<text text-anchor="start" x="3045.5" y="-78.5" font-family="Helvetica,sans-Serif" font-size="10.00">Hermes/_base/OsApi</text>
<text text-anchor="middle" x="3125.5" y="-67.5" font-family="Helvetica,sans-Serif" font-size="10.00">/Flags/Linux/CredentialFlags.hpp</text>
</a>
</g>
</g>
<!-- Node10&#45;&gt;Node28 -->
<g id="edge33_Node000010_Node000028" class="edge">
<title>Node10&#45;&gt;Node28</title>
<g id="a_edge33_Node000010_Node000028"><a xlink:title=" ">
<path fill="none" stroke="#63b8ff" d="M2147.61,-145.83C2296.24,-144.76 2697.34,-137.87 3028.5,-96 3036.38,-95 3044.57,-93.73 3052.71,-92.32"/>
<polygon fill="#63b8ff" stroke="#63b8ff" points="3053.37,-95.75 3062.58,-90.53 3052.12,-88.87 3053.37,-95.75"/>
</a>
</g>
</g>
<!-- Node29 -->
<g id="Node000029" class="node">
<title>Node29</title>
<g id="a_Node000029"><a xlink:href="_linux_2_supported_protocols_flags_8hpp.html" target="_top" xlink:title=" ">
<polygon fill="white" stroke="#666666" points="3405,-96 3232,-96 3232,-55 3405,-55 3405,-96"/>
<text text-anchor="start" x="3240" y="-84" font-family="Helvetica,sans-Serif" font-size="10.00">Hermes/_base/OsApi</text>
<text text-anchor="start" x="3240" y="-73" font-family="Helvetica,sans-Serif" font-size="10.00">/Flags/Linux/SupportedProtocols</text>
<text text-anchor="middle" x="3318.5" y="-62" font-family="Helvetica,sans-Serif" font-size="10.00">Flags.hpp</text>
</a>
</g>
</g>
<!-- Node10&#45;&gt;Node29 -->
<g id="edge34_Node000010_Node000029" class="edge">
<title>Node10&#45;&gt;Node29</title>
<g id="a_edge34_Node000010_Node000029"><a xlink:title=" ">
<path fill="none" stroke="#63b8ff" d="M2147.8,-146.64C2315.2,-147.76 2805.72,-146.24 3221.87,-95.95"/>
<polygon fill="#63b8ff" stroke="#63b8ff" points="3222.49,-99.4 3231.99,-94.72 3221.64,-92.46 3222.49,-99.4"/>
</a>
</g>
</g>
<!-- Node30 -->
<g id="Node000030" class="node">
<title>Node30</title>
<g id="a_Node000030"><a xlink:href="_linux_2_s_channel_cred_flags_8hpp.html" target="_top" xlink:title=" ">
<polygon fill="white" stroke="#666666" points="1188.5,-90.5 994.5,-90.5 994.5,-60.5 1188.5,-60.5 1188.5,-90.5"/>
<text text-anchor="start" x="1002.5" y="-78.5" font-family="Helvetica,sans-Serif" font-size="10.00">Hermes/_base/OsApi</text>
<text text-anchor="middle" x="1091.5" y="-67.5" font-family="Helvetica,sans-Serif" font-size="10.00">/Flags/Linux/SChannelCredFlags.hpp</text>
</a>
</g>
</g>
<!-- Node10&#45;&gt;Node30 -->
<g id="edge35_Node000010_Node000030" class="edge">
<title>Node10&#45;&gt;Node30</title>
<g id="a_edge35_Node000010_Node000030"><a xlink:title=" ">
<path fill="none" stroke="#63b8ff" d="M2029.46,-145.06C1886.87,-142.28 1512.61,-131.86 1202.5,-96 1193.27,-94.93 1183.64,-93.59 1174.08,-92.11"/>
<polygon fill="#63b8ff" stroke="#63b8ff" points="1174.59,-88.65 1164.16,-90.53 1173.49,-95.56 1174.59,-88.65"/>
</a>
</g>
</g>
<!-- Node17 -->
<g id="Node000017" class="node">
<title>Node17</title>
<g id="a_Node000017"><a xlink:title=" ">
<polygon fill="#e0e0e0" stroke="#999999" points="2659.5,-19 2585.5,-19 2585.5,0 2659.5,0 2659.5,-19"/>
<text text-anchor="middle" x="2622.5" y="-7" font-family="Helvetica,sans-Serif" font-size="10.00">WinSock2.h</text>
</a>
</g>
</g>
<!-- Node16&#45;&gt;Node17 -->
<g id="edge16_Node000016_Node000017" class="edge">
<title>Node16&#45;&gt;Node17</title>
<g id="a_edge16_Node000016_Node000017"><a xlink:title=" ">
<path fill="none" stroke="#63b8ff" d="M2622.5,-60.3C2622.5,-51.2 2622.5,-39.29 2622.5,-29.4"/>
<polygon fill="#63b8ff" stroke="#63b8ff" points="2626,-29.34 2622.5,-19.34 2619,-29.34 2626,-29.34"/>
</a>
</g>
</g>
<!-- Node19 -->
<g id="Node000019" class="node">
<title>Node19</title>
<g id="a_Node000019"><a xlink:title=" ">
<polygon fill="#e0e0e0" stroke="#999999" points="2799.5,-19 2749.5,-19 2749.5,0 2799.5,0 2799.5,-19"/>
<text text-anchor="middle" x="2774.5" y="-7" font-family="Helvetica,sans-Serif" font-size="10.00">cstdint</text>
</a>
</g>
</g>
<!-- Node18&#45;&gt;Node19 -->
<g id="edge18_Node000018_Node000019" class="edge">
<title>Node18&#45;&gt;Node19</title>
<g id="a_edge18_Node000018_Node000019"><a xlink:title=" ">
<path fill="none" stroke="#63b8ff" d="M2774.5,-60.3C2774.5,-51.2 2774.5,-39.29 2774.5,-29.4"/>
<polygon fill="#63b8ff" stroke="#63b8ff" points="2778,-29.34 2774.5,-19.34 2771,-29.34 2778,-29.34"/>
</a>
</g>
</g>
<!-- Node20&#45;&gt;Node11 -->
<g id="edge21_Node000020_Node000011" class="edge">
<title>Node20&#45;&gt;Node11</title>
<g id="a_edge21_Node000020_Node000011"><a xlink:title=" ">
<path fill="none" stroke="#63b8ff" d="M1831.24,-60.42C1824,-58.46 1816.57,-56.57 1809.5,-55 1729.49,-37.22 1635.06,-23.69 1579.12,-16.44"/>
<polygon fill="#63b8ff" stroke="#63b8ff" points="1579.5,-12.96 1569.14,-15.16 1578.61,-19.9 1579.5,-12.96"/>
</a>
</g>
</g>
<!-- Node21 -->
<g id="Node000021" class="node">
<title>Node21</title>
<g id="a_Node000021"><a xlink:title=" ">
<polygon fill="#e0e0e0" stroke="#999999" points="1914,-19 1841,-19 1841,0 1914,0 1914,-19"/>
<text text-anchor="middle" x="1877.5" y="-7" font-family="Helvetica,sans-Serif" font-size="10.00">string_view</text>
</a>
</g>
</g>
<!-- Node20&#45;&gt;Node21 -->
<g id="edge20_Node000020_Node000021" class="edge">
<title>Node20&#45;&gt;Node21</title>
<g id="a_edge20_Node000020_Node000021"><a xlink:title=" ">
<path fill="none" stroke="#63b8ff" d="M1877.5,-60.3C1877.5,-51.2 1877.5,-39.29 1877.5,-29.4"/>
<polygon fill="#63b8ff" stroke="#63b8ff" points="1881,-29.34 1877.5,-19.34 1874,-29.34 1881,-29.34"/>
</a>
</g>
</g>
<!-- Node22&#45;&gt;Node11 -->
<g id="edge23_Node000022_Node000011" class="edge">
<title>Node22&#45;&gt;Node11</title>
<g id="a_edge23_Node000022_Node000011"><a xlink:title=" ">
<path fill="none" stroke="#63b8ff" d="M1375.95,-60.45C1411.44,-48.98 1461.01,-32.96 1494.36,-22.18"/>
<polygon fill="#63b8ff" stroke="#63b8ff" points="1495.71,-25.42 1504.15,-19.02 1493.56,-18.76 1495.71,-25.42"/>
</a>
</g>
</g>
<!-- Node23&#45;&gt;Node12 -->
<g id="edge25_Node000023_Node000012" class="edge">
<title>Node23&#45;&gt;Node12</title>
<g id="a_edge25_Node000023_Node000012"><a xlink:title=" ">
<path fill="none" stroke="#63b8ff" d="M2075.18,-60.3C2065.92,-50.42 2053.55,-37.22 2043.87,-26.89"/>
<polygon fill="#63b8ff" stroke="#63b8ff" points="2046.18,-24.25 2036.79,-19.34 2041.08,-29.03 2046.18,-24.25"/>
</a>
</g>
</g>
<!-- Node24&#45;&gt;Node11 -->
<g id="edge27_Node000024_Node000011" class="edge">
<title>Node24&#45;&gt;Node11</title>
<g id="a_edge27_Node000024_Node000011"><a xlink:title=" ">
<path fill="none" stroke="#63b8ff" d="M1530.5,-60.3C1530.5,-51.2 1530.5,-39.29 1530.5,-29.4"/>
<polygon fill="#63b8ff" stroke="#63b8ff" points="1534,-29.34 1530.5,-19.34 1527,-29.34 1534,-29.34"/>
</a>
</g>
</g>
<!-- Node25&#45;&gt;Node11 -->
<g id="edge29_Node000025_Node000011" class="edge">
<title>Node25&#45;&gt;Node11</title>
<g id="a_edge29_Node000025_Node000011"><a xlink:title=" ">
<path fill="none" stroke="#63b8ff" d="M1678.8,-60.45C1644.9,-49.03 1597.59,-33.1 1565.6,-22.32"/>
<polygon fill="#63b8ff" stroke="#63b8ff" points="1566.38,-18.89 1555.79,-19.02 1564.15,-25.53 1566.38,-18.89"/>
</a>
</g>
</g>
<!-- Node27&#45;&gt;Node14 -->
<g id="edge32_Node000027_Node000014" class="edge">
<title>Node27&#45;&gt;Node14</title>
<g id="a_edge32_Node000027_Node000014"><a xlink:title=" ">
<path fill="none" stroke="#63b8ff" d="M2388.4,-60.3C2380.84,-50.61 2370.78,-37.74 2362.79,-27.51"/>
<polygon fill="#63b8ff" stroke="#63b8ff" points="2365.32,-25.07 2356.41,-19.34 2359.81,-29.38 2365.32,-25.07"/>
</a>
</g>
</g>
<!-- Node31&#45;&gt;Node6 -->
<g id="edge44_Node000031_Node000006" class="edge">
<title>Node31&#45;&gt;Node6</title>
<g id="a_edge44_Node000031_Node000006"><a xlink:title=" ">
<path fill="none" stroke="#63b8ff" d="M287.89,-197.82C270.41,-190.18 252.61,-178.75 242.5,-162 235.61,-150.59 235.47,-143.33 242.5,-132 259.47,-104.65 294.37,-90.36 320.73,-83.18"/>
<polygon fill="#63b8ff" stroke="#63b8ff" points="321.86,-86.51 330.71,-80.68 320.16,-79.72 321.86,-86.51"/>
</a>
</g>
</g>
<!-- Node31&#45;&gt;Node32 -->
<g id="edge37_Node000031_Node000032" class="edge">
<title>Node31&#45;&gt;Node32</title>
<g id="a_edge37_Node000031_Node000032"><a xlink:title=" ">
<path fill="none" stroke="#63b8ff" d="M278.47,-197.95C229.01,-186.19 159.41,-169.63 114.14,-158.86"/>
<polygon fill="#63b8ff" stroke="#63b8ff" points="114.84,-155.43 104.3,-156.52 113.22,-162.24 114.84,-155.43"/>
</a>
</g>
</g>
<!-- Node35 -->
<g id="Node000035" class="node">
<title>Node35</title>
<g id="a_Node000035"><a xlink:title=" ">
<polygon fill="#e0e0e0" stroke="#999999" points="293.5,-156.5 251.5,-156.5 251.5,-137.5 293.5,-137.5 293.5,-156.5"/>
<text text-anchor="middle" x="272.5" y="-144.5" font-family="Helvetica,sans-Serif" font-size="10.00">array</text>
</a>
</g>
</g>
<!-- Node31&#45;&gt;Node35 -->
<g id="edge40_Node000031_Node000035" class="edge">
<title>Node31&#45;&gt;Node35</title>
<g id="a_edge40_Node000031_Node000035"><a xlink:title=" ">
<path fill="none" stroke="#63b8ff" d="M323.07,-197.8C312.94,-187.82 299.37,-174.46 288.84,-164.09"/>
<polygon fill="#63b8ff" stroke="#63b8ff" points="291.06,-161.37 281.48,-156.84 286.15,-166.35 291.06,-161.37"/>
</a>
</g>
</g>
<!-- Node31&#45;&gt;Node36 -->
<g id="edge41_Node000031_Node000036" class="edge">
<title>Node31&#45;&gt;Node36</title>
<g id="a_edge41_Node000031_Node000036"><a xlink:title=" ">
<path fill="none" stroke="#63b8ff" d="M301.51,-197.95C272.62,-186.68 232.47,-171.01 204.88,-160.25"/>
<polygon fill="#63b8ff" stroke="#63b8ff" points="205.91,-156.89 195.33,-156.52 203.37,-163.41 205.91,-156.89"/>
</a>
</g>
</g>
<!-- Node37 -->
<g id="Node000037" class="node">
<title>Node37</title>
<g id="a_Node000037"><a xlink:title=" ">
<polygon fill="#e0e0e0" stroke="#999999" points="363,-156.5 312,-156.5 312,-137.5 363,-137.5 363,-156.5"/>
<text text-anchor="middle" x="337.5" y="-144.5" font-family="Helvetica,sans-Serif" font-size="10.00">variant</text>
</a>
</g>
</g>
<!-- Node31&#45;&gt;Node37 -->
<g id="edge42_Node000031_Node000037" class="edge">
<title>Node31&#45;&gt;Node37</title>
<g id="a_edge42_Node000031_Node000037"><a xlink:title=" ">
<path fill="none" stroke="#63b8ff" d="M337.5,-197.8C337.5,-188.7 337.5,-176.79 337.5,-166.9"/>
<polygon fill="#63b8ff" stroke="#63b8ff" points="341,-166.84 337.5,-156.84 334,-166.84 341,-166.84"/>
</a>
</g>
</g>
<!-- Node31&#45;&gt;Node38 -->
<g id="edge43_Node000031_Node000038" class="edge">
<title>Node31&#45;&gt;Node38</title>
<g id="a_edge43_Node000031_Node000038"><a xlink:title=" ">
<path fill="none" stroke="#63b8ff" d="M415.04,-201.64C470.8,-193.3 547.49,-179.99 613.5,-162 615.93,-161.34 618.43,-160.58 620.93,-159.78"/>
<polygon fill="#63b8ff" stroke="#63b8ff" points="622.1,-163.08 630.41,-156.51 619.81,-156.46 622.1,-163.08"/>
</a>
</g>
</g>
<!-- Node39 -->
<g id="Node000039" class="node">
<title>Node39</title>
<g id="a_Node000039"><a xlink:title=" ">
<polygon fill="#e0e0e0" stroke="#999999" points="431.5,-156.5 381.5,-156.5 381.5,-137.5 431.5,-137.5 431.5,-156.5"/>
<text text-anchor="middle" x="406.5" y="-144.5" font-family="Helvetica,sans-Serif" font-size="10.00">format</text>
</a>
</g>
</g>
<!-- Node31&#45;&gt;Node39 -->
<g id="edge45_Node000031_Node000039" class="edge">
<title>Node31&#45;&gt;Node39</title>
<g id="a_edge45_Node000031_Node000039"><a xlink:title=" ">
<path fill="none" stroke="#63b8ff" d="M352.81,-197.8C363.68,-187.72 378.26,-174.19 389.49,-163.78"/>
<polygon fill="#63b8ff" stroke="#63b8ff" points="392.01,-166.21 396.96,-156.84 387.25,-161.08 392.01,-166.21"/>
</a>
</g>
</g>
<!-- Node40 -->
<g id="Node000040" class="node">
<title>Node40</title>
<g id="a_Node000040"><a xlink:title=" ">
<polygon fill="#e0e0e0" stroke="#999999" points="605,-162 450,-162 450,-132 605,-132 605,-162"/>
<text text-anchor="start" x="458" y="-150" font-family="Helvetica,sans-Serif" font-size="10.00">Hermes/Endpoint/IpEndpoint</text>
<text text-anchor="middle" x="527.5" y="-139" font-family="Helvetica,sans-Serif" font-size="10.00">/IpAddress.tpp</text>
</a>
</g>
</g>
<!-- Node31&#45;&gt;Node40 -->
<g id="edge46_Node000031_Node000040" class="edge">
<title>Node31&#45;&gt;Node40</title>
<g id="a_edge46_Node000031_Node000040"><a xlink:title=" ">
<path fill="none" stroke="#63b8ff" d="M379.2,-197.95C407.78,-188.33 445.89,-175.49 476.31,-165.24"/>
<polygon fill="#63b8ff" stroke="#63b8ff" points="477.54,-168.52 485.9,-162.01 475.31,-161.89 477.54,-168.52"/>
</a>
</g>
</g>
<!-- Node33 -->
<g id="Node000033" class="node">
<title>Node33</title>
<g id="a_Node000033"><a xlink:title=" ">
<polygon fill="#e0e0e0" stroke="#999999" points="128,-85 83,-85 83,-66 128,-66 128,-85"/>
<text text-anchor="middle" x="105.5" y="-73" font-family="Helvetica,sans-Serif" font-size="10.00">utility</text>
</a>
</g>
</g>
<!-- Node32&#45;&gt;Node33 -->
<g id="edge38_Node000032_Node000033" class="edge">
<title>Node32&#45;&gt;Node33</title>
<g id="a_edge38_Node000032_Node000033"><a xlink:title=" ">
<path fill="none" stroke="#63b8ff" d="M73.04,-137.48C78.75,-126.74 88.71,-108.03 96.1,-94.16"/>
<polygon fill="#63b8ff" stroke="#63b8ff" points="99.32,-95.56 100.93,-85.09 93.14,-92.27 99.32,-95.56"/>
</a>
</g>
</g>
<!-- Node34 -->
<g id="Node000034" class="node">
<title>Node34</title>
<g id="a_Node000034"><a xlink:title=" ">
<polygon fill="#e0e0e0" stroke="#999999" points="65,-85 0,-85 0,-66 65,-66 65,-85"/>
<text text-anchor="middle" x="32.5" y="-73" font-family="Helvetica,sans-Serif" font-size="10.00">functional</text>
</a>
</g>
</g>
<!-- Node32&#45;&gt;Node34 -->
<g id="edge39_Node000032_Node000034" class="edge">
<title>Node32&#45;&gt;Node34</title>
<g id="a_edge39_Node000032_Node000034"><a xlink:title=" ">
<path fill="none" stroke="#63b8ff" d="M64.09,-137.48C58.53,-126.74 48.83,-108.03 41.65,-94.16"/>
<polygon fill="#63b8ff" stroke="#63b8ff" points="44.66,-92.36 36.95,-85.09 38.44,-95.58 44.66,-92.36"/>
</a>
</g>
</g>
<!-- Node42&#45;&gt;Node3 -->
<g id="edge53_Node000042_Node000003" class="edge">
<title>Node42&#45;&gt;Node3</title>
<g id="a_edge53_Node000042_Node000003"><a xlink:title=" ">
<path fill="none" stroke="#63b8ff" d="M862.82,-269.37C849.59,-260.36 828.39,-245.92 810.95,-234.05"/>
<polygon fill="#63b8ff" stroke="#63b8ff" points="812.47,-230.85 802.23,-228.12 808.53,-236.64 812.47,-230.85"/>
</a>
</g>
</g>
<!-- Node42&#45;&gt;Node4 -->
<g id="edge54_Node000042_Node000004" class="edge">
<title>Node42&#45;&gt;Node4</title>
<g id="a_edge54_Node000042_Node000004"><a xlink:title=" ">
<path fill="none" stroke="#63b8ff" d="M875.46,-269.47C874.99,-253.9 872.07,-220.38 856.5,-198 847.71,-185.37 834.61,-175.07 821.81,-167.17"/>
<polygon fill="#63b8ff" stroke="#63b8ff" points="823.45,-164.08 813.05,-162.08 819.94,-170.13 823.45,-164.08"/>
</a>
</g>
</g>
<!-- Node42&#45;&gt;Node8 -->
<g id="edge56_Node000042_Node000008" class="edge">
<title>Node42&#45;&gt;Node8</title>
<g id="a_edge56_Node000042_Node000008"><a xlink:title=" ">
<path fill="none" stroke="#63b8ff" d="M877.13,-269.34C882.83,-239.12 901.93,-137.85 909.93,-95.43"/>
<polygon fill="#63b8ff" stroke="#63b8ff" points="913.42,-95.83 911.83,-85.35 906.54,-94.53 913.42,-95.83"/>
</a>
</g>
</g>
<!-- Node42&#45;&gt;Node10 -->
<g id="edge55_Node000042_Node000010" class="edge">
<title>Node42&#45;&gt;Node10</title>
<g id="a_edge55_Node000042_Node000010"><a xlink:title=" ">
<path fill="none" stroke="#63b8ff" d="M906.73,-269.49C934.9,-261.11 976.94,-246.84 1010.5,-228 1029.26,-217.47 1028.35,-205.54 1048.5,-198 1138.85,-164.18 1801.77,-151.99 2019.46,-148.88"/>
<polygon fill="#63b8ff" stroke="#63b8ff" points="2019.53,-152.38 2029.48,-148.74 2019.43,-145.38 2019.53,-152.38"/>
</a>
</g>
</g>
<!-- Node43 -->
<g id="Node000043" class="node">
<title>Node43</title>
<g id="a_Node000043"><a xlink:title=" ">
<polygon fill="#e0e0e0" stroke="#999999" points="1001.5,-222.5 941.5,-222.5 941.5,-203.5 1001.5,-203.5 1001.5,-222.5"/>
<text text-anchor="middle" x="971.5" y="-210.5" font-family="Helvetica,sans-Serif" font-size="10.00">concepts</text>
</a>
</g>
</g>
<!-- Node42&#45;&gt;Node43 -->
<g id="edge57_Node000042_Node000043" class="edge">
<title>Node42&#45;&gt;Node43</title>
<g id="a_edge57_Node000042_Node000043"><a xlink:title=" ">
<path fill="none" stroke="#63b8ff" d="M888.45,-269.37C904.19,-258.87 931,-241 949.9,-228.4"/>
<polygon fill="#63b8ff" stroke="#63b8ff" points="952.07,-231.16 958.45,-222.7 948.19,-225.33 952.07,-231.16"/>
</a>
</g>
</g>
<!-- Node44 -->
<g id="Node000044" class="node">
<title>Node44</title>
<g id="a_Node000044"><a xlink:title=" ">
<polygon fill="#e0e0e0" stroke="#999999" points="1107.5,-222.5 1057.5,-222.5 1057.5,-203.5 1107.5,-203.5 1107.5,-222.5"/>
<text text-anchor="middle" x="1082.5" y="-210.5" font-family="Helvetica,sans-Serif" font-size="10.00">ranges</text>
</a>
</g>
</g>
<!-- Node42&#45;&gt;Node44 -->
<g id="edge58_Node000042_Node000044" class="edge">
<title>Node42&#45;&gt;Node44</title>
<g id="a_edge58_Node000042_Node000044"><a xlink:title=" ">
<path fill="none" stroke="#63b8ff" d="M906.01,-269.47C939.79,-259.9 995.79,-243.65 1043.5,-228 1045.61,-227.31 1047.78,-226.58 1049.96,-225.83"/>
<polygon fill="#63b8ff" stroke="#63b8ff" points="1051.19,-229.11 1059.48,-222.5 1048.88,-222.5 1051.19,-229.11"/>
</a>
</g>
</g>
<!-- Node45&#45;&gt;Node2 -->
<g id="edge60_Node000045_Node000002" class="edge">
<title>Node45&#45;&gt;Node2</title>
<g id="a_edge60_Node000045_Node000002"><a xlink:title=" ">
<path fill="none" stroke="#63b8ff" d="M809.42,-336.26C752.23,-324.81 669.38,-308.22 608.47,-296.02"/>
<polygon fill="#63b8ff" stroke="#63b8ff" points="609,-292.55 598.51,-294.02 607.62,-299.42 609,-292.55"/>
</a>
</g>
</g>
<!-- Node45&#45;&gt;Node42 -->
<g id="edge62_Node000045_Node000042" class="edge">
<title>Node45&#45;&gt;Node42</title>
<g id="a_edge62_Node000045_Node000042"><a xlink:title=" ">
<path fill="none" stroke="#63b8ff" d="M875.5,-335.44C875.5,-324.96 875.5,-310.55 875.5,-299.05"/>
<polygon fill="#63b8ff" stroke="#63b8ff" points="879,-298.77 875.5,-288.77 872,-298.77 879,-298.77"/>
</a>
</g>
</g>
<!-- Node46 -->
<g id="Node000046" class="node">
<title>Node46</title>
<g id="a_Node000046"><a xlink:title=" ">
<polygon fill="#e0e0e0" stroke="#999999" points="1163.5,-288.5 1113.5,-288.5 1113.5,-269.5 1163.5,-269.5 1163.5,-288.5"/>
<text text-anchor="middle" x="1138.5" y="-276.5" font-family="Helvetica,sans-Serif" font-size="10.00">chrono</text>
</a>
</g>
</g>
<!-- Node45&#45;&gt;Node46 -->
<g id="edge61_Node000045_Node000046" class="edge">
<title>Node45&#45;&gt;Node46</title>
<g id="a_edge61_Node000045_Node000046"><a xlink:title=" ">
<path fill="none" stroke="#63b8ff" d="M929.85,-335.41C937.12,-333.57 944.49,-331.72 951.5,-330 1019.34,-313.32 1037.99,-315.37 1104.5,-294 1106.17,-293.46 1107.88,-292.88 1109.59,-292.27"/>
<polygon fill="#63b8ff" stroke="#63b8ff" points="1111.2,-295.4 1119.28,-288.54 1108.69,-288.86 1111.2,-295.4"/>
</a>
</g>
</g>
<!-- Node47 -->
<g id="Node000047" class="node">
<title>Node47</title>
<g id="a_Node000047"><a xlink:title=" ">
<polygon fill="#e0e0e0" stroke="#999999" points="1095.5,-294 965.5,-294 965.5,-264 1095.5,-264 1095.5,-294"/>
<text text-anchor="start" x="973.5" y="-282" font-family="Helvetica,sans-Serif" font-size="10.00">Hermes/Socket/Data</text>
<text text-anchor="middle" x="1030.5" y="-271" font-family="Helvetica,sans-Serif" font-size="10.00">/DefaultSocketData.tpp</text>
</a>
</g>
</g>
<!-- Node45&#45;&gt;Node47 -->
<g id="edge63_Node000045_Node000047" class="edge">
<title>Node45&#45;&gt;Node47</title>
<g id="a_edge63_Node000045_Node000047"><a xlink:title=" ">
<path fill="none" stroke="#63b8ff" d="M906.87,-335.44C930.82,-324.7 964.01,-309.81 989.97,-298.17"/>
<polygon fill="#63b8ff" stroke="#63b8ff" points="991.49,-301.33 999.18,-294.04 988.62,-294.94 991.49,-301.33"/>
</a>
</g>
</g>
</g>
</svg>
