<?xml version="1.0" encoding="UTF-8" standalone="no"?>
<!DOCTYPE svg PUBLIC "-//W3C//DTD SVG 1.1//EN"
 "http://www.w3.org/Graphics/SVG/1.1/DTD/svg11.dtd">
<!-- Generated by graphviz version 2.43.0 (0)
 -->
<!-- Title: include/Hermes/Socket/_base/Data/DefaultSocketData.hpp Pages: 1 -->
<svg width="614pt" height="324pt"
 viewBox="0.00 0.00 613.60 324.00" xmlns="http://www.w3.org/2000/svg" xmlns:xlink="http://www.w3.org/1999/xlink">
<g id="graph0" class="graph" transform="scale(1 1) rotate(0) translate(4 320)">
<title>include/Hermes/Socket/_base/Data/DefaultSocketData.hpp</title>
<!-- Node1 -->
<g id="Node000001" class="node">
<title>Node1</title>
<g id="a_Node000001"><a xlink:title=" ">
<polygon fill="#999999" stroke="#666666" points="393.1,-316 203.1,-316 203.1,-286 393.1,-286 393.1,-316"/>
<text text-anchor="start" x="211.1" y="-304" font-family="Helvetica,sans-Serif" font-size="10.00">include/Hermes/Socket</text>
<text text-anchor="middle" x="298.1" y="-293" font-family="Helvetica,sans-Serif" font-size="10.00">/_base/Data/DefaultSocketData.hpp</text>
</a>
</g>
</g>
<!-- Node2 -->
<g id="Node000002" class="node">
<title>Node2</title>
<g id="a_Node000002"><a xlink:href="_default_accept_policy_8hpp.html" target="_top" xlink:title=" ">
<polygon fill="white" stroke="#666666" points="186.1,-250 30.1,-250 30.1,-209 186.1,-209 186.1,-250"/>
<text text-anchor="start" x="38.1" y="-238" font-family="Helvetica,sans-Serif" font-size="10.00">include/Hermes/Socket</text>
<text text-anchor="start" x="38.1" y="-227" font-family="Helvetica,sans-Serif" font-size="10.00">/_base/Accept/DefaultAccept</text>
<text text-anchor="middle" x="108.1" y="-216" font-family="Helvetica,sans-Serif" font-size="10.00">Policy.hpp</text>
</a>
</g>
</g>
<!-- Node1&#45;&gt;Node2 -->
<g id="edge1_Node000001_Node000002" class="edge">
<title>Node1&#45;&gt;Node2</title>
<g id="a_edge1_Node000001_Node000002"><a xlink:title=" ">
<path fill="none" stroke="#63b8ff" d="M250.05,-282.42C223.1,-272.56 189.41,-260.24 161.61,-250.07"/>
<polygon fill="#63b8ff" stroke="#63b8ff" points="249.06,-285.79 259.65,-285.94 251.47,-279.21 249.06,-285.79"/>
</a>
</g>
</g>
<!-- Node6 -->
<g id="Node000006" class="node">
<title>Node6</title>
<g id="a_Node000006"><a xlink:href="_default_connect_policy_8hpp.html" target="_top" xlink:title=" ">
<polygon fill="white" stroke="#666666" points="510.6,-250 325.6,-250 325.6,-209 510.6,-209 510.6,-250"/>
<text text-anchor="start" x="333.6" y="-238" font-family="Helvetica,sans-Serif" font-size="10.00">include/Hermes/Socket</text>
<text text-anchor="start" x="333.6" y="-227" font-family="Helvetica,sans-Serif" font-size="10.00">/_base/Connection/DefaultConnect</text>
<text text-anchor="middle" x="418.1" y="-216" font-family="Helvetica,sans-Serif" font-size="10.00">Policy.hpp</text>
</a>
</g>
</g>
<!-- Node1&#45;&gt;Node6 -->
<g id="edge6_Node000001_Node000006" class="edge">
<title>Node1&#45;&gt;Node6</title>
<g id="a_edge6_Node000001_Node000006"><a xlink:title=" ">
<path fill="none" stroke="#63b8ff" d="M331.17,-280.85C347.71,-271.27 367.68,-259.71 384.31,-250.07"/>
<polygon fill="#63b8ff" stroke="#63b8ff" points="329.29,-277.9 322.39,-285.94 332.8,-283.95 329.29,-277.9"/>
</a>
</g>
</g>
<!-- Node9 -->
<g id="Node000009" class="node">
<title>Node9</title>
<g id="a_Node000009"><a xlink:href="_default_transfer_policy_8hpp.html" target="_top" xlink:title=" ">
<polygon fill="white" stroke="#666666" points="386.1,-173 218.1,-173 218.1,-132 386.1,-132 386.1,-173"/>
<text text-anchor="start" x="226.1" y="-161" font-family="Helvetica,sans-Serif" font-size="10.00">include/Hermes/Socket</text>
<text text-anchor="start" x="226.1" y="-150" font-family="Helvetica,sans-Serif" font-size="10.00">/_base/Transfer/DefaultTransfer</text>
<text text-anchor="middle" x="302.1" y="-139" font-family="Helvetica,sans-Serif" font-size="10.00">Policy.hpp</text>
</a>
</g>
</g>
<!-- Node1&#45;&gt;Node9 -->
<g id="edge10_Node000001_Node000009" class="edge">
<title>Node1&#45;&gt;Node9</title>
<g id="a_edge10_Node000001_Node000009"><a xlink:title=" ">
<path fill="none" stroke="#63b8ff" d="M298.77,-275.58C299.55,-246.88 300.84,-199.8 301.56,-173.27"/>
<polygon fill="#63b8ff" stroke="#63b8ff" points="295.26,-275.86 298.49,-285.95 302.26,-276.05 295.26,-275.86"/>
</a>
</g>
</g>
<!-- Node3 -->
<g id="Node000003" class="node">
<title>Node3</title>
<g id="a_Node000003"><a xlink:href="_server_socket_8hpp.html" target="_top" xlink:title=" ">
<polygon fill="white" stroke="#666666" points="172.1,-96 44.1,-96 44.1,-66 172.1,-66 172.1,-96"/>
<text text-anchor="start" x="52.1" y="-84" font-family="Helvetica,sans-Serif" font-size="10.00">include/Hermes/Socket</text>
<text text-anchor="middle" x="108.1" y="-73" font-family="Helvetica,sans-Serif" font-size="10.00">/ServerSocket.hpp</text>
</a>
</g>
</g>
<!-- Node2&#45;&gt;Node3 -->
<g id="edge2_Node000002_Node000003" class="edge">
<title>Node2&#45;&gt;Node3</title>
<g id="a_edge2_Node000002_Node000003"><a xlink:title=" ">
<path fill="none" stroke="#63b8ff" d="M39.57,-203.92C26.63,-196.07 14.76,-185.94 7.1,-173 -2.17,-157.32 -2.51,-147.48 7.1,-132 17.63,-115.04 35.8,-103.66 53.86,-96.1"/>
<polygon fill="#63b8ff" stroke="#63b8ff" points="38.23,-207.18 48.66,-208.99 41.64,-201.06 38.23,-207.18"/>
</a>
</g>
</g>
<!-- Node5 -->
<g id="Node000005" class="node">
<title>Node5</title>
<g id="a_Node000005"><a xlink:href="_tls_accept_policy_8hpp.html" target="_top" xlink:title=" ">
<polygon fill="white" stroke="#666666" points="199.6,-167.5 16.6,-167.5 16.6,-137.5 199.6,-137.5 199.6,-167.5"/>
<text text-anchor="start" x="24.6" y="-155.5" font-family="Helvetica,sans-Serif" font-size="10.00">include/Hermes/Socket</text>
<text text-anchor="middle" x="108.1" y="-144.5" font-family="Helvetica,sans-Serif" font-size="10.00">/_base/Accept/TlsAcceptPolicy.hpp</text>
</a>
</g>
</g>
<!-- Node2&#45;&gt;Node5 -->
<g id="edge4_Node000002_Node000005" class="edge">
<title>Node2&#45;&gt;Node5</title>
<g id="a_edge4_Node000002_Node000005"><a xlink:title=" ">
<path fill="none" stroke="#63b8ff" d="M108.1,-198.61C108.1,-188.01 108.1,-176.57 108.1,-167.86"/>
<polygon fill="#63b8ff" stroke="#63b8ff" points="104.6,-198.79 108.1,-208.79 111.6,-198.79 104.6,-198.79"/>
</a>
</g>
</g>
<!-- Node4 -->
<g id="Node000004" class="node">
<title>Node4</title>
<g id="a_Node000004"><a xlink:href="_listener_socket_8hpp.html" target="_top" xlink:title=" ">
<polygon fill="white" stroke="#666666" points="172.1,-30 44.1,-30 44.1,0 172.1,0 172.1,-30"/>
<text text-anchor="start" x="52.1" y="-18" font-family="Helvetica,sans-Serif" font-size="10.00">include/Hermes/Socket</text>
<text text-anchor="middle" x="108.1" y="-7" font-family="Helvetica,sans-Serif" font-size="10.00">/ListenerSocket.hpp</text>
</a>
</g>
</g>
<!-- Node3&#45;&gt;Node4 -->
<g id="edge3_Node000003_Node000004" class="edge">
<title>Node3&#45;&gt;Node4</title>
<g id="a_edge3_Node000003_Node000004"><a xlink:title=" ">
<path fill="none" stroke="#63b8ff" d="M108.1,-55.54C108.1,-46.96 108.1,-37.61 108.1,-30.16"/>
<polygon fill="#63b8ff" stroke="#63b8ff" points="104.6,-55.8 108.1,-65.8 111.6,-55.8 104.6,-55.8"/>
</a>
</g>
</g>
<!-- Node5&#45;&gt;Node3 -->
<g id="edge5_Node000005_Node000003" class="edge">
<title>Node5&#45;&gt;Node3</title>
<g id="a_edge5_Node000005_Node000003"><a xlink:title=" ">
<path fill="none" stroke="#63b8ff" d="M108.1,-127.25C108.1,-116.81 108.1,-104.99 108.1,-96.04"/>
<polygon fill="#63b8ff" stroke="#63b8ff" points="104.6,-127.44 108.1,-137.44 111.6,-127.44 104.6,-127.44"/>
</a>
</g>
</g>
<!-- Node7 -->
<g id="Node000007" class="node">
<title>Node7</title>
<g id="a_Node000007"><a xlink:href="_client_socket_8hpp.html" target="_top" xlink:title=" ">
<polygon fill="white" stroke="#666666" points="478.1,-96 350.1,-96 350.1,-66 478.1,-66 478.1,-96"/>
<text text-anchor="start" x="358.1" y="-84" font-family="Helvetica,sans-Serif" font-size="10.00">include/Hermes/Socket</text>
<text text-anchor="middle" x="414.1" y="-73" font-family="Helvetica,sans-Serif" font-size="10.00">/ClientSocket.hpp</text>
</a>
</g>
</g>
<!-- Node6&#45;&gt;Node7 -->
<g id="edge7_Node000006_Node000007" class="edge">
<title>Node6&#45;&gt;Node7</title>
<g id="a_edge7_Node000006_Node000007"><a xlink:title=" ">
<path fill="none" stroke="#63b8ff" d="M417.28,-198.44C416.43,-167.21 415.13,-119.68 414.49,-96.18"/>
<polygon fill="#63b8ff" stroke="#63b8ff" points="413.79,-198.84 417.56,-208.74 420.79,-198.65 413.79,-198.84"/>
</a>
</g>
</g>
<!-- Node8 -->
<g id="Node000008" class="node">
<title>Node8</title>
<g id="a_Node000008"><a xlink:href="_tls_connect_policy_8hpp.html" target="_top" xlink:title=" ">
<polygon fill="white" stroke="#666666" points="605.6,-173 442.6,-173 442.6,-132 605.6,-132 605.6,-173"/>
<text text-anchor="start" x="450.6" y="-161" font-family="Helvetica,sans-Serif" font-size="10.00">include/Hermes/Socket</text>
<text text-anchor="start" x="450.6" y="-150" font-family="Helvetica,sans-Serif" font-size="10.00">/_base/Connection/TlsConnect</text>
<text text-anchor="middle" x="524.1" y="-139" font-family="Helvetica,sans-Serif" font-size="10.00">Policy.hpp</text>
</a>
</g>
</g>
<!-- Node6&#45;&gt;Node8 -->
<g id="edge8_Node000006_Node000008" class="edge">
<title>Node6&#45;&gt;Node8</title>
<g id="a_edge8_Node000006_Node000008"><a xlink:title=" ">
<path fill="none" stroke="#63b8ff" d="M454.01,-203.09C467.82,-193.32 483.37,-182.32 496.3,-173.17"/>
<polygon fill="#63b8ff" stroke="#63b8ff" points="451.82,-200.36 445.68,-208.99 455.86,-206.07 451.82,-200.36"/>
</a>
</g>
</g>
<!-- Node8&#45;&gt;Node7 -->
<g id="edge9_Node000008_Node000007" class="edge">
<title>Node8&#45;&gt;Node7</title>
<g id="a_edge9_Node000008_Node000007"><a xlink:title=" ">
<path fill="none" stroke="#63b8ff" d="M484.43,-126.44C468.28,-116.23 450.22,-104.82 436.44,-96.11"/>
<polygon fill="#63b8ff" stroke="#63b8ff" points="482.85,-129.57 493.17,-131.96 486.59,-123.66 482.85,-129.57"/>
</a>
</g>
</g>
<!-- Node9&#45;&gt;Node3 -->
<g id="edge12_Node000009_Node000003" class="edge">
<title>Node9&#45;&gt;Node3</title>
<g id="a_edge12_Node000009_Node000003"><a xlink:title=" ">
<path fill="none" stroke="#63b8ff" d="M237.99,-128.53C207.98,-117.78 173.2,-105.32 147.19,-96"/>
<polygon fill="#63b8ff" stroke="#63b8ff" points="236.95,-131.88 247.55,-131.96 239.31,-125.29 236.95,-131.88"/>
</a>
</g>
</g>
<!-- Node9&#45;&gt;Node7 -->
<g id="edge11_Node000009_Node000007" class="edge">
<title>Node9&#45;&gt;Node7</title>
<g id="a_edge11_Node000009_Node000007"><a xlink:title=" ">
<path fill="none" stroke="#63b8ff" d="M342.49,-126.44C358.94,-116.23 377.33,-104.82 391.36,-96.11"/>
<polygon fill="#63b8ff" stroke="#63b8ff" points="340.25,-123.71 333.6,-131.96 343.94,-129.66 340.25,-123.71"/>
</a>
</g>
</g>
</g>
</svg>
