<?xml version="1.0" encoding="UTF-8" standalone="no"?>
<!DOCTYPE svg PUBLIC "-//W3C//DTD SVG 1.1//EN"
 "http://www.w3.org/Graphics/SVG/1.1/DTD/svg11.dtd">
<!-- Generated by graphviz version 2.43.0 (0)
 -->
<!-- Title: include/Hermes/Socket/Async/_base/Transfer/DefaultAsyncTransferPolicy.hpp Pages: 1 -->
<svg width="3015pt" height="456pt"
 viewBox="0.00 0.00 3014.50 456.00" xmlns="http://www.w3.org/2000/svg" xmlns:xlink="http://www.w3.org/1999/xlink">
<g id="graph0" class="graph" transform="scale(1 1) rotate(0) translate(4 452)">
<title>include/Hermes/Socket/Async/_base/Transfer/DefaultAsyncTransferPolicy.hpp</title>
<!-- Node1 -->
<g id="Node000001" class="node">
<title>Node1</title>
<g id="a_Node000001"><a xlink:title=" ">
<polygon fill="#999999" stroke="#666666" points="2869,-448 2696,-448 2696,-407 2869,-407 2869,-448"/>
<text text-anchor="start" x="2704" y="-436" font-family="Helvetica,sans-Serif" font-size="10.00">include/Hermes/Socket</text>
<text text-anchor="start" x="2704" y="-425" font-family="Helvetica,sans-Serif" font-size="10.00">/Async/_base/Transfer</text>
<text text-anchor="middle" x="2782.5" y="-414" font-family="Helvetica,sans-Serif" font-size="10.00">/DefaultAsyncTransferPolicy.hpp</text>
</a>
</g>
</g>
<!-- Node2 -->
<g id="Node000002" class="node">
<title>Node2</title>
<g id="a_Node000002"><a xlink:href="_default_socket_data_8hpp.html" target="_top" xlink:title=" ">
<polygon fill="white" stroke="#666666" points="2504.5,-365.5 2372.5,-365.5 2372.5,-335.5 2504.5,-335.5 2504.5,-365.5"/>
<text text-anchor="start" x="2380.5" y="-353.5" font-family="Helvetica,sans-Serif" font-size="10.00">Hermes/Socket/Data</text>
<text text-anchor="middle" x="2438.5" y="-342.5" font-family="Helvetica,sans-Serif" font-size="10.00">/DefaultSocketData.hpp</text>
</a>
</g>
</g>
<!-- Node1&#45;&gt;Node2 -->
<g id="edge1_Node000001_Node000002" class="edge">
<title>Node1&#45;&gt;Node2</title>
<g id="a_edge1_Node000001_Node000002"><a xlink:title=" ">
<path fill="none" stroke="#63b8ff" d="M2695.69,-407.57C2639.2,-395.26 2566.3,-379.36 2512.55,-367.64"/>
<polygon fill="#63b8ff" stroke="#63b8ff" points="2513.26,-364.22 2502.74,-365.51 2511.77,-371.06 2513.26,-364.22"/>
</a>
</g>
</g>
<!-- Node8 -->
<g id="Node000008" class="node">
<title>Node8</title>
<g id="a_Node000008"><a xlink:title=" ">
<polygon fill="#e0e0e0" stroke="#999999" points="2808.5,-85 2768.5,-85 2768.5,-66 2808.5,-66 2808.5,-85"/>
<text text-anchor="middle" x="2788.5" y="-73" font-family="Helvetica,sans-Serif" font-size="10.00">span</text>
</a>
</g>
</g>
<!-- Node1&#45;&gt;Node8 -->
<g id="edge61_Node000001_Node000008" class="edge">
<title>Node1&#45;&gt;Node8</title>
<g id="a_edge61_Node000001_Node000008"><a xlink:title=" ">
<path fill="none" stroke="#63b8ff" d="M2782.5,-406.6C2782.5,-378.41 2782.5,-325.27 2782.5,-280 2782.5,-280 2782.5,-280 2782.5,-212 2782.5,-170.34 2785.37,-121.55 2787.14,-95.38"/>
<polygon fill="#63b8ff" stroke="#63b8ff" points="2790.65,-95.27 2787.86,-85.05 2783.67,-94.79 2790.65,-95.27"/>
</a>
</g>
</g>
<!-- Node9 -->
<g id="Node000009" class="node">
<title>Node9</title>
<g id="a_Node000009"><a xlink:title=" ">
<polygon fill="#e0e0e0" stroke="#999999" points="2952,-85 2827,-85 2827,-66 2952,-66 2952,-85"/>
<text text-anchor="middle" x="2889.5" y="-73" font-family="Helvetica,sans-Serif" font-size="10.00">stdexec/execution.hpp</text>
</a>
</g>
</g>
<!-- Node1&#45;&gt;Node9 -->
<g id="edge60_Node000001_Node000009" class="edge">
<title>Node1&#45;&gt;Node9</title>
<g id="a_edge60_Node000001_Node000009"><a xlink:title=" ">
<path fill="none" stroke="#63b8ff" d="M2791.12,-406.54C2802.33,-378.74 2820.5,-326.51 2820.5,-280 2820.5,-280 2820.5,-280 2820.5,-212 2820.5,-164.74 2854.24,-117.32 2874.53,-93.07"/>
<polygon fill="#63b8ff" stroke="#63b8ff" points="2877.42,-95.08 2881.31,-85.23 2872.13,-90.5 2877.42,-95.08"/>
</a>
</g>
</g>
<!-- Node42 -->
<g id="Node000042" class="node">
<title>Node42</title>
<g id="a_Node000042"><a xlink:href="__base_8hpp.html" target="_top" xlink:title=" ">
<polygon fill="white" stroke="#666666" points="2665,-288.5 2522,-288.5 2522,-269.5 2665,-269.5 2665,-288.5"/>
<text text-anchor="middle" x="2593.5" y="-276.5" font-family="Helvetica,sans-Serif" font-size="10.00">Hermes/Socket/_base.hpp</text>
</a>
</g>
</g>
<!-- Node1&#45;&gt;Node42 -->
<g id="edge59_Node000001_Node000042" class="edge">
<title>Node1&#45;&gt;Node42</title>
<g id="a_edge59_Node000001_Node000042"><a xlink:title=" ">
<path fill="none" stroke="#63b8ff" d="M2757.01,-406.74C2718.72,-377.06 2647.18,-321.61 2612.86,-295"/>
<polygon fill="#63b8ff" stroke="#63b8ff" points="2614.64,-291.96 2604.59,-288.6 2610.35,-297.49 2614.64,-291.96"/>
</a>
</g>
</g>
<!-- Node46 -->
<g id="Node000046" class="node">
<title>Node46</title>
<g id="a_Node000046"><a xlink:title=" ">
<polygon fill="#e0e0e0" stroke="#999999" points="3006.5,-371 2848.5,-371 2848.5,-330 3006.5,-330 3006.5,-371"/>
<text text-anchor="start" x="2856.5" y="-359" font-family="Helvetica,sans-Serif" font-size="10.00">Hermes/Socket/Async</text>
<text text-anchor="start" x="2856.5" y="-348" font-family="Helvetica,sans-Serif" font-size="10.00">/_base/Transfer/DefaultAsync</text>
<text text-anchor="middle" x="2927.5" y="-337" font-family="Helvetica,sans-Serif" font-size="10.00">TransferPolicy.tpp</text>
</a>
</g>
</g>
<!-- Node1&#45;&gt;Node46 -->
<g id="edge62_Node000001_Node000046" class="edge">
<title>Node1&#45;&gt;Node46</title>
<g id="a_edge62_Node000001_Node000046"><a xlink:title=" ">
<path fill="none" stroke="#63b8ff" d="M2820.22,-406.99C2838.69,-397.44 2861.11,-385.84 2880.67,-375.72"/>
<polygon fill="#63b8ff" stroke="#63b8ff" points="2882.44,-378.75 2889.72,-371.04 2879.23,-372.53 2882.44,-378.75"/>
</a>
</g>
</g>
<!-- Node3 -->
<g id="Node000003" class="node">
<title>Node3</title>
<g id="a_Node000003"><a xlink:href="_ip_endpoint_8hpp.html" target="_top" xlink:title=" ">
<polygon fill="white" stroke="#666666" points="1319,-294 1164,-294 1164,-264 1319,-264 1319,-294"/>
<text text-anchor="start" x="1172" y="-282" font-family="Helvetica,sans-Serif" font-size="10.00">Hermes/Endpoint/IpEndpoint</text>
<text text-anchor="middle" x="1241.5" y="-271" font-family="Helvetica,sans-Serif" font-size="10.00">/IpEndpoint.hpp</text>
</a>
</g>
</g>
<!-- Node2&#45;&gt;Node3 -->
<g id="edge2_Node000002_Node000003" class="edge">
<title>Node2&#45;&gt;Node3</title>
<g id="a_edge2_Node000002_Node000003"><a xlink:title=" ">
<path fill="none" stroke="#63b8ff" d="M2372.44,-345.66C2170.07,-333.91 1558.58,-298.41 1329.45,-285.11"/>
<polygon fill="#63b8ff" stroke="#63b8ff" points="1329.35,-281.59 1319.16,-284.51 1328.94,-288.58 1329.35,-281.59"/>
</a>
</g>
</g>
<!-- Node41 -->
<g id="Node000041" class="node">
<title>Node41</title>
<g id="a_Node000041"><a xlink:title=" ">
<polygon fill="#e0e0e0" stroke="#999999" points="2355.5,-288.5 2305.5,-288.5 2305.5,-269.5 2355.5,-269.5 2355.5,-288.5"/>
<text text-anchor="middle" x="2330.5" y="-276.5" font-family="Helvetica,sans-Serif" font-size="10.00">chrono</text>
</a>
</g>
</g>
<!-- Node2&#45;&gt;Node41 -->
<g id="edge50_Node000002_Node000041" class="edge">
<title>Node2&#45;&gt;Node41</title>
<g id="a_edge50_Node000002_Node000041"><a xlink:title=" ">
<path fill="none" stroke="#63b8ff" d="M2416.64,-335.44C2397.89,-323.37 2371.01,-306.07 2352.28,-294.02"/>
<polygon fill="#63b8ff" stroke="#63b8ff" points="2354.12,-291.04 2343.81,-288.57 2350.33,-296.92 2354.12,-291.04"/>
</a>
</g>
</g>
<!-- Node2&#45;&gt;Node42 -->
<g id="edge51_Node000002_Node000042" class="edge">
<title>Node2&#45;&gt;Node42</title>
<g id="a_edge51_Node000002_Node000042"><a xlink:title=" ">
<path fill="none" stroke="#63b8ff" d="M2469.87,-335.44C2497.76,-322.93 2538.18,-304.81 2565.12,-292.72"/>
<polygon fill="#63b8ff" stroke="#63b8ff" points="2566.7,-295.85 2574.39,-288.57 2563.84,-289.47 2566.7,-295.85"/>
</a>
</g>
</g>
<!-- Node45 -->
<g id="Node000045" class="node">
<title>Node45</title>
<g id="a_Node000045"><a xlink:title=" ">
<polygon fill="#e0e0e0" stroke="#999999" points="2503.5,-294 2373.5,-294 2373.5,-264 2503.5,-264 2503.5,-294"/>
<text text-anchor="start" x="2381.5" y="-282" font-family="Helvetica,sans-Serif" font-size="10.00">Hermes/Socket/Data</text>
<text text-anchor="middle" x="2438.5" y="-271" font-family="Helvetica,sans-Serif" font-size="10.00">/DefaultSocketData.tpp</text>
</a>
</g>
</g>
<!-- Node2&#45;&gt;Node45 -->
<g id="edge58_Node000002_Node000045" class="edge">
<title>Node2&#45;&gt;Node45</title>
<g id="a_edge58_Node000002_Node000045"><a xlink:title=" ">
<path fill="none" stroke="#63b8ff" d="M2438.5,-335.44C2438.5,-326.49 2438.5,-314.66 2438.5,-304.23"/>
<polygon fill="#63b8ff" stroke="#63b8ff" points="2442,-304.04 2438.5,-294.04 2435,-304.04 2442,-304.04"/>
</a>
</g>
</g>
<!-- Node4 -->
<g id="Node000004" class="node">
<title>Node4</title>
<g id="a_Node000004"><a xlink:href="_endpoint_concept_8hpp.html" target="_top" xlink:title=" ">
<polygon fill="white" stroke="#666666" points="1696.5,-228 1564.5,-228 1564.5,-198 1696.5,-198 1696.5,-228"/>
<text text-anchor="start" x="1572.5" y="-216" font-family="Helvetica,sans-Serif" font-size="10.00">Hermes/Endpoint/_base</text>
<text text-anchor="middle" x="1630.5" y="-205" font-family="Helvetica,sans-Serif" font-size="10.00">/EndpointConcept.hpp</text>
</a>
</g>
</g>
<!-- Node3&#45;&gt;Node4 -->
<g id="edge3_Node000003_Node000004" class="edge">
<title>Node3&#45;&gt;Node4</title>
<g id="a_edge3_Node000003_Node000004"><a xlink:title=" ">
<path fill="none" stroke="#63b8ff" d="M1319.29,-265.2C1387.61,-253.96 1486.44,-237.7 1554.29,-226.54"/>
<polygon fill="#63b8ff" stroke="#63b8ff" points="1555.19,-229.94 1564.49,-224.86 1554.06,-223.03 1555.19,-229.94"/>
</a>
</g>
</g>
<!-- Node30 -->
<g id="Node000030" class="node">
<title>Node30</title>
<g id="a_Node000030"><a xlink:href="_ip_address_8hpp.html" target="_top" xlink:title=" ">
<polygon fill="white" stroke="#666666" points="1213,-228 1058,-228 1058,-198 1213,-198 1213,-228"/>
<text text-anchor="start" x="1066" y="-216" font-family="Helvetica,sans-Serif" font-size="10.00">Hermes/Endpoint/IpEndpoint</text>
<text text-anchor="middle" x="1135.5" y="-205" font-family="Helvetica,sans-Serif" font-size="10.00">/IpAddress.hpp</text>
</a>
</g>
</g>
<!-- Node3&#45;&gt;Node30 -->
<g id="edge35_Node000003_Node000030" class="edge">
<title>Node3&#45;&gt;Node30</title>
<g id="a_edge35_Node000003_Node000030"><a xlink:title=" ">
<path fill="none" stroke="#63b8ff" d="M1218.24,-263.95C1203.33,-254.95 1183.77,-243.14 1167.41,-233.27"/>
<polygon fill="#63b8ff" stroke="#63b8ff" points="1169.08,-230.18 1158.71,-228.01 1165.46,-236.18 1169.08,-230.18"/>
</a>
</g>
</g>
<!-- Node31 -->
<g id="Node000031" class="node">
<title>Node31</title>
<g id="a_Node000031"><a xlink:href="_hash_8hpp.html" target="_top" xlink:title=" ">
<polygon fill="white" stroke="#666666" points="477,-156.5 348,-156.5 348,-137.5 477,-137.5 477,-156.5"/>
<text text-anchor="middle" x="412.5" y="-144.5" font-family="Helvetica,sans-Serif" font-size="10.00">Hermes/Utils/Hash.hpp</text>
</a>
</g>
</g>
<!-- Node3&#45;&gt;Node31 -->
<g id="edge46_Node000003_Node000031" class="edge">
<title>Node3&#45;&gt;Node31</title>
<g id="a_edge46_Node000003_Node000031"><a xlink:title=" ">
<path fill="none" stroke="#63b8ff" d="M1163.92,-268.21C1089.75,-258.66 974.85,-243.36 875.5,-228 728.36,-205.24 555.67,-174.27 468.67,-158.36"/>
<polygon fill="#63b8ff" stroke="#63b8ff" points="469.21,-154.91 458.74,-156.55 467.95,-161.79 469.21,-154.91"/>
</a>
</g>
</g>
<!-- Node35 -->
<g id="Node000035" class="node">
<title>Node35</title>
<g id="a_Node000035"><a xlink:title=" ">
<polygon fill="#e0e0e0" stroke="#999999" points="1301.5,-156.5 1257.5,-156.5 1257.5,-137.5 1301.5,-137.5 1301.5,-156.5"/>
<text text-anchor="middle" x="1279.5" y="-144.5" font-family="Helvetica,sans-Serif" font-size="10.00">string</text>
</a>
</g>
</g>
<!-- Node3&#45;&gt;Node35 -->
<g id="edge48_Node000003_Node000035" class="edge">
<title>Node3&#45;&gt;Node35</title>
<g id="a_edge48_Node000003_Node000035"><a xlink:title=" ">
<path fill="none" stroke="#63b8ff" d="M1245.64,-263.84C1252.54,-240.23 1266.39,-192.83 1274.07,-166.58"/>
<polygon fill="#63b8ff" stroke="#63b8ff" points="1277.5,-167.33 1276.94,-156.75 1270.78,-165.36 1277.5,-167.33"/>
</a>
</g>
</g>
<!-- Node37 -->
<g id="Node000037" class="node">
<title>Node37</title>
<g id="a_Node000037"><a xlink:title=" ">
<polygon fill="#e0e0e0" stroke="#999999" points="1239.5,-156.5 1183.5,-156.5 1183.5,-137.5 1239.5,-137.5 1239.5,-156.5"/>
<text text-anchor="middle" x="1211.5" y="-144.5" font-family="Helvetica,sans-Serif" font-size="10.00">optional</text>
</a>
</g>
</g>
<!-- Node3&#45;&gt;Node37 -->
<g id="edge47_Node000003_Node000037" class="edge">
<title>Node3&#45;&gt;Node37</title>
<g id="a_edge47_Node000003_Node000037"><a xlink:title=" ">
<path fill="none" stroke="#63b8ff" d="M1238.23,-263.84C1232.78,-240.23 1221.85,-192.83 1215.79,-166.58"/>
<polygon fill="#63b8ff" stroke="#63b8ff" points="1219.18,-165.71 1213.52,-156.75 1212.36,-167.28 1219.18,-165.71"/>
</a>
</g>
</g>
<!-- Node40 -->
<g id="Node000040" class="node">
<title>Node40</title>
<g id="a_Node000040"><a xlink:title=" ">
<polygon fill="#e0e0e0" stroke="#999999" points="1040,-228 885,-228 885,-198 1040,-198 1040,-228"/>
<text text-anchor="start" x="893" y="-216" font-family="Helvetica,sans-Serif" font-size="10.00">Hermes/Endpoint/IpEndpoint</text>
<text text-anchor="middle" x="962.5" y="-205" font-family="Helvetica,sans-Serif" font-size="10.00">/IpEndpoint.tpp</text>
</a>
</g>
</g>
<!-- Node3&#45;&gt;Node40 -->
<g id="edge49_Node000003_Node000040" class="edge">
<title>Node3&#45;&gt;Node40</title>
<g id="a_edge49_Node000003_Node000040"><a xlink:title=" ">
<path fill="none" stroke="#63b8ff" d="M1180.27,-263.95C1136.93,-254.01 1078.69,-240.65 1033.35,-230.25"/>
<polygon fill="#63b8ff" stroke="#63b8ff" points="1034.11,-226.84 1023.58,-228.01 1032.55,-233.66 1034.11,-226.84"/>
</a>
</g>
</g>
<!-- Node5 -->
<g id="Node000005" class="node">
<title>Node5</title>
<g id="a_Node000005"><a xlink:href="_connection_error_enum_8hpp.html" target="_top" xlink:title=" ">
<polygon fill="white" stroke="#666666" points="2677,-162 2510,-162 2510,-132 2677,-132 2677,-162"/>
<text text-anchor="start" x="2518" y="-150" font-family="Helvetica,sans-Serif" font-size="10.00">Hermes/_base/ConnectionError</text>
<text text-anchor="middle" x="2593.5" y="-139" font-family="Helvetica,sans-Serif" font-size="10.00">Enum.hpp</text>
</a>
</g>
</g>
<!-- Node4&#45;&gt;Node5 -->
<g id="edge4_Node000004_Node000005" class="edge">
<title>Node4&#45;&gt;Node5</title>
<g id="a_edge4_Node000004_Node000005"><a xlink:title=" ">
<path fill="none" stroke="#63b8ff" d="M1696.69,-207.6C1864.2,-196.47 2305.38,-167.15 2499.52,-154.25"/>
<polygon fill="#63b8ff" stroke="#63b8ff" points="2499.96,-157.72 2509.7,-153.57 2499.49,-150.74 2499.96,-157.72"/>
</a>
</g>
</g>
<!-- Node11 -->
<g id="Node000011" class="node">
<title>Node11</title>
<g id="a_Node000011"><a xlink:href="_os_api_8hpp.html" target="_top" xlink:title=" ">
<polygon fill="white" stroke="#666666" points="1437.5,-162 1319.5,-162 1319.5,-132 1437.5,-132 1437.5,-162"/>
<text text-anchor="start" x="1327.5" y="-150" font-family="Helvetica,sans-Serif" font-size="10.00">Hermes/_base/OsApi</text>
<text text-anchor="middle" x="1378.5" y="-139" font-family="Helvetica,sans-Serif" font-size="10.00">/OsApi.hpp</text>
</a>
</g>
</g>
<!-- Node4&#45;&gt;Node11 -->
<g id="edge10_Node000004_Node000011" class="edge">
<title>Node4&#45;&gt;Node11</title>
<g id="a_edge10_Node000004_Node000011"><a xlink:title=" ">
<path fill="none" stroke="#63b8ff" d="M1575.2,-197.95C1536.38,-188.1 1484.33,-174.88 1443.52,-164.51"/>
<polygon fill="#63b8ff" stroke="#63b8ff" points="1444.23,-161.08 1433.67,-162.01 1442.5,-167.87 1444.23,-161.08"/>
</a>
</g>
</g>
<!-- Node6 -->
<g id="Node000006" class="node">
<title>Node6</title>
<g id="a_Node000006"><a xlink:title=" ">
<polygon fill="#e0e0e0" stroke="#999999" points="2750.5,-85 2688.5,-85 2688.5,-66 2750.5,-66 2750.5,-85"/>
<text text-anchor="middle" x="2719.5" y="-73" font-family="Helvetica,sans-Serif" font-size="10.00">expected</text>
</a>
</g>
</g>
<!-- Node5&#45;&gt;Node6 -->
<g id="edge5_Node000005_Node000006" class="edge">
<title>Node5&#45;&gt;Node6</title>
<g id="a_edge5_Node000005_Node000006"><a xlink:title=" ">
<path fill="none" stroke="#63b8ff" d="M2619,-131.94C2641.17,-119.7 2673.09,-102.1 2694.98,-90.03"/>
<polygon fill="#63b8ff" stroke="#63b8ff" points="2696.9,-92.96 2703.97,-85.07 2693.52,-86.83 2696.9,-92.96"/>
</a>
</g>
</g>
<!-- Node7 -->
<g id="Node000007" class="node">
<title>Node7</title>
<g id="a_Node000007"><a xlink:title=" ">
<polygon fill="#e0e0e0" stroke="#999999" points="2486,-85 2439,-85 2439,-66 2486,-66 2486,-85"/>
<text text-anchor="middle" x="2462.5" y="-73" font-family="Helvetica,sans-Serif" font-size="10.00">vector</text>
</a>
</g>
</g>
<!-- Node5&#45;&gt;Node7 -->
<g id="edge6_Node000005_Node000007" class="edge">
<title>Node5&#45;&gt;Node7</title>
<g id="a_edge6_Node000005_Node000007"><a xlink:title=" ">
<path fill="none" stroke="#63b8ff" d="M2564.16,-131.94C2544.29,-122.24 2517.56,-108.82 2494.5,-96 2491.33,-94.24 2488.03,-92.32 2484.8,-90.4"/>
<polygon fill="#63b8ff" stroke="#63b8ff" points="2486.43,-87.29 2476.06,-85.09 2482.79,-93.28 2486.43,-87.29"/>
</a>
</g>
</g>
<!-- Node5&#45;&gt;Node8 -->
<g id="edge7_Node000005_Node000008" class="edge">
<title>Node5&#45;&gt;Node8</title>
<g id="a_edge7_Node000005_Node000008"><a xlink:title=" ">
<path fill="none" stroke="#63b8ff" d="M2655.84,-131.96C2687.7,-123.61 2726.59,-111.59 2759.5,-96 2762.63,-94.52 2765.8,-92.73 2768.84,-90.85"/>
<polygon fill="#63b8ff" stroke="#63b8ff" points="2771.04,-93.58 2777.4,-85.11 2767.14,-87.77 2771.04,-93.58"/>
</a>
</g>
</g>
<!-- Node5&#45;&gt;Node9 -->
<g id="edge8_Node000005_Node000009" class="edge">
<title>Node5&#45;&gt;Node9</title>
<g id="a_edge8_Node000005_Node000009"><a xlink:title=" ">
<path fill="none" stroke="#63b8ff" d="M2660.33,-131.9C2704.96,-122.29 2764.89,-108.99 2817.5,-96 2827.89,-93.44 2839.06,-90.5 2849.44,-87.69"/>
<polygon fill="#63b8ff" stroke="#63b8ff" points="2850.37,-91.07 2859.1,-85.06 2848.53,-84.31 2850.37,-91.07"/>
</a>
</g>
</g>
<!-- Node10 -->
<g id="Node000010" class="node">
<title>Node10</title>
<g id="a_Node000010"><a xlink:title=" ">
<polygon fill="#e0e0e0" stroke="#999999" points="2671,-90.5 2504,-90.5 2504,-60.5 2671,-60.5 2671,-90.5"/>
<text text-anchor="start" x="2512" y="-78.5" font-family="Helvetica,sans-Serif" font-size="10.00">Hermes/_base/ConnectionError</text>
<text text-anchor="middle" x="2587.5" y="-67.5" font-family="Helvetica,sans-Serif" font-size="10.00">Enum.tpp</text>
</a>
</g>
</g>
<!-- Node5&#45;&gt;Node10 -->
<g id="edge9_Node000005_Node000010" class="edge">
<title>Node5&#45;&gt;Node10</title>
<g id="a_edge9_Node000005_Node000010"><a xlink:title=" ">
<path fill="none" stroke="#63b8ff" d="M2592.29,-131.94C2591.51,-122.99 2590.49,-111.16 2589.59,-100.73"/>
<polygon fill="#63b8ff" stroke="#63b8ff" points="2593.06,-100.21 2588.71,-90.54 2586.09,-100.81 2593.06,-100.21"/>
</a>
</g>
</g>
<!-- Node12 -->
<g id="Node000012" class="node">
<title>Node12</title>
<g id="a_Node000012"><a xlink:title=" ">
<polygon fill="#e0e0e0" stroke="#999999" points="896,-19 819,-19 819,0 896,0 896,-19"/>
<text text-anchor="middle" x="857.5" y="-7" font-family="Helvetica,sans-Serif" font-size="10.00">sys/socket.h</text>
</a>
</g>
</g>
<!-- Node11&#45;&gt;Node12 -->
<g id="edge11_Node000011_Node000012" class="edge">
<title>Node11&#45;&gt;Node12</title>
<g id="a_edge11_Node000011_Node000012"><a xlink:title=" ">
<path fill="none" stroke="#63b8ff" d="M1319.24,-133.3C1316.29,-132.82 1313.37,-132.39 1310.5,-132 1249.81,-123.81 802.37,-140.7 760.5,-96 748.04,-82.7 750.66,-70.34 760.5,-55 771.4,-38 790.61,-27.41 809.07,-20.85"/>
<polygon fill="#63b8ff" stroke="#63b8ff" points="810.16,-24.18 818.6,-17.78 808.01,-17.52 810.16,-24.18"/>
</a>
</g>
</g>
<!-- Node13 -->
<g id="Node000013" class="node">
<title>Node13</title>
<g id="a_Node000013"><a xlink:title=" ">
<polygon fill="#e0e0e0" stroke="#999999" points="341.5,-19 269.5,-19 269.5,0 341.5,0 341.5,-19"/>
<text text-anchor="middle" x="305.5" y="-7" font-family="Helvetica,sans-Serif" font-size="10.00">netinet/in.h</text>
</a>
</g>
</g>
<!-- Node11&#45;&gt;Node13 -->
<g id="edge12_Node000011_Node000013" class="edge">
<title>Node11&#45;&gt;Node13</title>
<g id="a_edge12_Node000011_Node000013"><a xlink:title=" ">
<path fill="none" stroke="#63b8ff" d="M1319.26,-133.19C1316.3,-132.74 1313.37,-132.34 1310.5,-132 1252.65,-125.1 302.98,-137.89 262.5,-96 249.84,-82.9 255.67,-71.89 262.5,-55 267.19,-43.41 276.5,-33.16 285.26,-25.43"/>
<polygon fill="#63b8ff" stroke="#63b8ff" points="287.5,-28.12 293.01,-19.07 283.06,-22.71 287.5,-28.12"/>
</a>
</g>
</g>
<!-- Node14 -->
<g id="Node000014" class="node">
<title>Node14</title>
<g id="a_Node000014"><a xlink:title=" ">
<polygon fill="#e0e0e0" stroke="#999999" points="215,-85 146,-85 146,-66 215,-66 215,-85"/>
<text text-anchor="middle" x="180.5" y="-73" font-family="Helvetica,sans-Serif" font-size="10.00">arpa/inet.h</text>
</a>
</g>
</g>
<!-- Node11&#45;&gt;Node14 -->
<g id="edge13_Node000011_Node000014" class="edge">
<title>Node11&#45;&gt;Node14</title>
<g id="a_edge13_Node000011_Node000014"><a xlink:title=" ">
<path fill="none" stroke="#63b8ff" d="M1319.26,-133.19C1316.3,-132.74 1313.37,-132.34 1310.5,-132 1071.82,-103.66 464.77,-145.17 229.5,-96 221.98,-94.43 214.13,-91.79 206.97,-88.96"/>
<polygon fill="#63b8ff" stroke="#63b8ff" points="208.31,-85.73 197.73,-85.06 205.58,-92.17 208.31,-85.73"/>
</a>
</g>
</g>
<!-- Node15 -->
<g id="Node000015" class="node">
<title>Node15</title>
<g id="a_Node000015"><a xlink:title=" ">
<polygon fill="#e0e0e0" stroke="#999999" points="2387,-19 2334,-19 2334,0 2387,0 2387,-19"/>
<text text-anchor="middle" x="2360.5" y="-7" font-family="Helvetica,sans-Serif" font-size="10.00">netdb.h</text>
</a>
</g>
</g>
<!-- Node11&#45;&gt;Node15 -->
<g id="edge14_Node000011_Node000015" class="edge">
<title>Node11&#45;&gt;Node15</title>
<g id="a_edge14_Node000011_Node000015"><a xlink:title=" ">
<path fill="none" stroke="#63b8ff" d="M1437.74,-144.17C1652,-137.42 2374.96,-113.38 2391.5,-96 2409.81,-76.76 2390.67,-45.88 2375.39,-26.97"/>
<polygon fill="#63b8ff" stroke="#63b8ff" points="2377.93,-24.56 2368.79,-19.21 2372.6,-29.1 2377.93,-24.56"/>
</a>
</g>
</g>
<!-- Node16 -->
<g id="Node000016" class="node">
<title>Node16</title>
<g id="a_Node000016"><a xlink:title=" ">
<polygon fill="#e0e0e0" stroke="#999999" points="537.5,-85 481.5,-85 481.5,-66 537.5,-66 537.5,-85"/>
<text text-anchor="middle" x="509.5" y="-73" font-family="Helvetica,sans-Serif" font-size="10.00">unistd.h</text>
</a>
</g>
</g>
<!-- Node11&#45;&gt;Node16 -->
<g id="edge15_Node000011_Node000016" class="edge">
<title>Node11&#45;&gt;Node16</title>
<g id="a_edge15_Node000011_Node000016"><a xlink:title=" ">
<path fill="none" stroke="#63b8ff" d="M1319.25,-133.23C1316.3,-132.78 1313.37,-132.36 1310.5,-132 1141.64,-110.78 709.44,-141.68 545.5,-96 540.54,-94.62 535.5,-92.46 530.83,-90.07"/>
<polygon fill="#63b8ff" stroke="#63b8ff" points="532.33,-86.89 521.9,-85.02 528.88,-92.99 532.33,-86.89"/>
</a>
</g>
</g>
<!-- Node17 -->
<g id="Node000017" class="node">
<title>Node17</title>
<g id="a_Node000017"><a xlink:href="_conversion_and_literals_8hpp.html" target="_top" xlink:title=" ">
<polygon fill="white" stroke="#666666" points="1622.5,-90.5 1472.5,-90.5 1472.5,-60.5 1622.5,-60.5 1622.5,-90.5"/>
<text text-anchor="start" x="1480.5" y="-78.5" font-family="Helvetica,sans-Serif" font-size="10.00">Hermes/_base/OsApi</text>
<text text-anchor="middle" x="1547.5" y="-67.5" font-family="Helvetica,sans-Serif" font-size="10.00">/ConversionAndLiterals.hpp</text>
</a>
</g>
</g>
<!-- Node11&#45;&gt;Node17 -->
<g id="edge16_Node000011_Node000017" class="edge">
<title>Node11&#45;&gt;Node17</title>
<g id="a_edge16_Node000011_Node000017"><a xlink:title=" ">
<path fill="none" stroke="#63b8ff" d="M1412.7,-131.94C1439.04,-121.1 1475.64,-106.05 1504.06,-94.37"/>
<polygon fill="#63b8ff" stroke="#63b8ff" points="1505.43,-97.58 1513.35,-90.54 1502.77,-91.11 1505.43,-97.58"/>
</a>
</g>
</g>
<!-- Node19 -->
<g id="Node000019" class="node">
<title>Node19</title>
<g id="a_Node000019"><a xlink:href="_macros_8hpp.html" target="_top" xlink:title=" ">
<polygon fill="white" stroke="#666666" points="1284.5,-90.5 1166.5,-90.5 1166.5,-60.5 1284.5,-60.5 1284.5,-90.5"/>
<text text-anchor="start" x="1174.5" y="-78.5" font-family="Helvetica,sans-Serif" font-size="10.00">Hermes/_base/OsApi</text>
<text text-anchor="middle" x="1225.5" y="-67.5" font-family="Helvetica,sans-Serif" font-size="10.00">/Macros.hpp</text>
</a>
</g>
</g>
<!-- Node11&#45;&gt;Node19 -->
<g id="edge18_Node000011_Node000019" class="edge">
<title>Node11&#45;&gt;Node19</title>
<g id="a_edge18_Node000011_Node000019"><a xlink:title=" ">
<path fill="none" stroke="#63b8ff" d="M1347.54,-131.94C1324,-121.24 1291.42,-106.44 1265.84,-94.83"/>
<polygon fill="#63b8ff" stroke="#63b8ff" points="1266.97,-91.49 1256.42,-90.54 1264.07,-97.87 1266.97,-91.49"/>
</a>
</g>
</g>
<!-- Node21 -->
<g id="Node000021" class="node">
<title>Node21</title>
<g id="a_Node000021"><a xlink:href="_address_family_enum_8hpp.html" target="_top" xlink:title=" ">
<polygon fill="white" stroke="#666666" points="945.5,-90.5 769.5,-90.5 769.5,-60.5 945.5,-60.5 945.5,-90.5"/>
<text text-anchor="start" x="777.5" y="-78.5" font-family="Helvetica,sans-Serif" font-size="10.00">Hermes/_base/OsApi</text>
<text text-anchor="middle" x="857.5" y="-67.5" font-family="Helvetica,sans-Serif" font-size="10.00">/Enums/AddressFamilyEnum.hpp</text>
</a>
</g>
</g>
<!-- Node11&#45;&gt;Node21 -->
<g id="edge21_Node000011_Node000021" class="edge">
<title>Node11&#45;&gt;Node21</title>
<g id="a_edge21_Node000011_Node000021"><a xlink:title=" ">
<path fill="none" stroke="#63b8ff" d="M1319.23,-133.42C1316.28,-132.92 1313.36,-132.44 1310.5,-132 1152.86,-107.89 1111.17,-119.9 953.5,-96 946.51,-94.94 939.25,-93.71 932,-92.39"/>
<polygon fill="#63b8ff" stroke="#63b8ff" points="932.62,-88.95 922.15,-90.55 931.34,-95.83 932.62,-88.95"/>
</a>
</g>
</g>
<!-- Node22 -->
<g id="Node000022" class="node">
<title>Node22</title>
<g id="a_Node000022"><a xlink:href="_protocol_base_type_enum_8hpp.html" target="_top" xlink:title=" ">
<polygon fill="white" stroke="#666666" points="463,-90.5 272,-90.5 272,-60.5 463,-60.5 463,-90.5"/>
<text text-anchor="start" x="280" y="-78.5" font-family="Helvetica,sans-Serif" font-size="10.00">Hermes/_base/OsApi</text>
<text text-anchor="middle" x="367.5" y="-67.5" font-family="Helvetica,sans-Serif" font-size="10.00">/Enums/ProtocolBaseTypeEnum.hpp</text>
</a>
</g>
</g>
<!-- Node11&#45;&gt;Node22 -->
<g id="edge23_Node000011_Node000022" class="edge">
<title>Node11&#45;&gt;Node22</title>
<g id="a_edge23_Node000011_Node000022"><a xlink:title=" ">
<path fill="none" stroke="#63b8ff" d="M1319.25,-133.22C1316.3,-132.77 1313.37,-132.35 1310.5,-132 940.53,-86.27 842.9,-138.14 472.5,-96 463.64,-94.99 454.4,-93.67 445.24,-92.2"/>
<polygon fill="#63b8ff" stroke="#63b8ff" points="445.79,-88.74 435.35,-90.54 444.64,-95.65 445.79,-88.74"/>
</a>
</g>
</g>
<!-- Node23 -->
<g id="Node000023" class="node">
<title>Node23</title>
<g id="a_Node000023"><a xlink:href="_socket_shutdown_enum_8hpp.html" target="_top" xlink:title=" ">
<polygon fill="white" stroke="#666666" points="1148,-90.5 963,-90.5 963,-60.5 1148,-60.5 1148,-90.5"/>
<text text-anchor="start" x="971" y="-78.5" font-family="Helvetica,sans-Serif" font-size="10.00">Hermes/_base/OsApi</text>
<text text-anchor="middle" x="1055.5" y="-67.5" font-family="Helvetica,sans-Serif" font-size="10.00">/Enums/SocketShutdownEnum.hpp</text>
</a>
</g>
</g>
<!-- Node11&#45;&gt;Node23 -->
<g id="edge25_Node000011_Node000023" class="edge">
<title>Node11&#45;&gt;Node23</title>
<g id="a_edge25_Node000011_Node000023"><a xlink:title=" ">
<path fill="none" stroke="#63b8ff" d="M1319.26,-133.25C1266.25,-121.85 1188.29,-105.07 1130.86,-92.72"/>
<polygon fill="#63b8ff" stroke="#63b8ff" points="1131.26,-89.22 1120.75,-90.54 1129.79,-96.07 1131.26,-89.22"/>
</a>
</g>
</g>
<!-- Node24 -->
<g id="Node000024" class="node">
<title>Node24</title>
<g id="a_Node000024"><a xlink:href="_socket_type_enum_8hpp.html" target="_top" xlink:title=" ">
<polygon fill="white" stroke="#666666" points="714,-90.5 555,-90.5 555,-60.5 714,-60.5 714,-90.5"/>
<text text-anchor="start" x="563" y="-78.5" font-family="Helvetica,sans-Serif" font-size="10.00">Hermes/_base/OsApi</text>
<text text-anchor="middle" x="634.5" y="-67.5" font-family="Helvetica,sans-Serif" font-size="10.00">/Enums/SocketTypeEnum.hpp</text>
</a>
</g>
</g>
<!-- Node11&#45;&gt;Node24 -->
<g id="edge27_Node000011_Node000024" class="edge">
<title>Node11&#45;&gt;Node24</title>
<g id="a_edge27_Node000011_Node000024"><a xlink:title=" ">
<path fill="none" stroke="#63b8ff" d="M1319.25,-133.29C1316.29,-132.81 1313.37,-132.38 1310.5,-132 1053.17,-97.74 984.77,-130.73 727.5,-96 720.22,-95.02 712.67,-93.79 705.15,-92.43"/>
<polygon fill="#63b8ff" stroke="#63b8ff" points="705.79,-88.99 695.31,-90.57 704.49,-95.86 705.79,-88.99"/>
</a>
</g>
</g>
<!-- Node25 -->
<g id="Node000025" class="node">
<title>Node25</title>
<g id="a_Node000025"><a xlink:href="_linux_2_encrypt_status_enum_8hpp.html" target="_top" xlink:title=" ">
<polygon fill="white" stroke="#666666" points="1454.5,-96 1302.5,-96 1302.5,-55 1454.5,-55 1454.5,-96"/>
<text text-anchor="start" x="1310.5" y="-84" font-family="Helvetica,sans-Serif" font-size="10.00">Hermes/_base/OsApi</text>
<text text-anchor="start" x="1310.5" y="-73" font-family="Helvetica,sans-Serif" font-size="10.00">/Enums/Linux/EncryptStatus</text>
<text text-anchor="middle" x="1378.5" y="-62" font-family="Helvetica,sans-Serif" font-size="10.00">Enum.hpp</text>
</a>
</g>
</g>
<!-- Node11&#45;&gt;Node25 -->
<g id="edge29_Node000011_Node000025" class="edge">
<title>Node11&#45;&gt;Node25</title>
<g id="a_edge29_Node000011_Node000025"><a xlink:title=" ">
<path fill="none" stroke="#63b8ff" d="M1378.5,-131.94C1378.5,-124.52 1378.5,-115.14 1378.5,-106.2"/>
<polygon fill="#63b8ff" stroke="#63b8ff" points="1382,-106.07 1378.5,-96.07 1375,-106.07 1382,-106.07"/>
</a>
</g>
</g>
<!-- Node26 -->
<g id="Node000026" class="node">
<title>Node26</title>
<g id="a_Node000026"><a xlink:href="_name_info_flags_8hpp.html" target="_top" xlink:title=" ">
<polygon fill="white" stroke="#666666" points="2382.5,-90.5 2238.5,-90.5 2238.5,-60.5 2382.5,-60.5 2382.5,-90.5"/>
<text text-anchor="start" x="2246.5" y="-78.5" font-family="Helvetica,sans-Serif" font-size="10.00">Hermes/_base/OsApi</text>
<text text-anchor="middle" x="2310.5" y="-67.5" font-family="Helvetica,sans-Serif" font-size="10.00">/Flags/NameInfoFlags.hpp</text>
</a>
</g>
</g>
<!-- Node11&#45;&gt;Node26 -->
<g id="edge30_Node000011_Node000026" class="edge">
<title>Node11&#45;&gt;Node26</title>
<g id="a_edge30_Node000011_Node000026"><a xlink:title=" ">
<path fill="none" stroke="#63b8ff" d="M1437.68,-146.12C1576.67,-145.63 1934.52,-139.82 2229.5,-96 2235.6,-95.09 2241.92,-93.95 2248.21,-92.67"/>
<polygon fill="#63b8ff" stroke="#63b8ff" points="2249,-96.08 2258.04,-90.56 2247.53,-89.23 2249,-96.08"/>
</a>
</g>
</g>
<!-- Node27 -->
<g id="Node000027" class="node">
<title>Node27</title>
<g id="a_Node000027"><a xlink:href="_linux_2_credential_flags_8hpp.html" target="_top" xlink:title=" ">
<polygon fill="white" stroke="#666666" points="1816.5,-90.5 1640.5,-90.5 1640.5,-60.5 1816.5,-60.5 1816.5,-90.5"/>
<text text-anchor="start" x="1648.5" y="-78.5" font-family="Helvetica,sans-Serif" font-size="10.00">Hermes/_base/OsApi</text>
<text text-anchor="middle" x="1728.5" y="-67.5" font-family="Helvetica,sans-Serif" font-size="10.00">/Flags/Linux/CredentialFlags.hpp</text>
</a>
</g>
</g>
<!-- Node11&#45;&gt;Node27 -->
<g id="edge32_Node000011_Node000027" class="edge">
<title>Node11&#45;&gt;Node27</title>
<g id="a_edge32_Node000011_Node000027"><a xlink:title=" ">
<path fill="none" stroke="#63b8ff" d="M1437.55,-134.39C1488.84,-124.29 1565.09,-109.24 1631.5,-96 1637.17,-94.87 1643.02,-93.7 1648.91,-92.52"/>
<polygon fill="#63b8ff" stroke="#63b8ff" points="1649.71,-95.93 1658.83,-90.53 1648.34,-89.07 1649.71,-95.93"/>
</a>
</g>
</g>
<!-- Node28 -->
<g id="Node000028" class="node">
<title>Node28</title>
<g id="a_Node000028"><a xlink:href="_linux_2_supported_protocols_flags_8hpp.html" target="_top" xlink:title=" ">
<polygon fill="white" stroke="#666666" points="2008,-96 1835,-96 1835,-55 2008,-55 2008,-96"/>
<text text-anchor="start" x="1843" y="-84" font-family="Helvetica,sans-Serif" font-size="10.00">Hermes/_base/OsApi</text>
<text text-anchor="start" x="1843" y="-73" font-family="Helvetica,sans-Serif" font-size="10.00">/Flags/Linux/SupportedProtocols</text>
<text text-anchor="middle" x="1921.5" y="-62" font-family="Helvetica,sans-Serif" font-size="10.00">Flags.hpp</text>
</a>
</g>
</g>
<!-- Node11&#45;&gt;Node28 -->
<g id="edge33_Node000011_Node000028" class="edge">
<title>Node11&#45;&gt;Node28</title>
<g id="a_edge33_Node000011_Node000028"><a xlink:title=" ">
<path fill="none" stroke="#63b8ff" d="M1437.66,-141.07C1521.51,-133.71 1679.91,-118.44 1824.98,-96.01"/>
<polygon fill="#63b8ff" stroke="#63b8ff" points="1825.62,-99.45 1834.96,-94.45 1824.54,-92.53 1825.62,-99.45"/>
</a>
</g>
</g>
<!-- Node29 -->
<g id="Node000029" class="node">
<title>Node29</title>
<g id="a_Node000029"><a xlink:href="_linux_2_s_channel_cred_flags_8hpp.html" target="_top" xlink:title=" ">
<polygon fill="white" stroke="#666666" points="2220.5,-90.5 2026.5,-90.5 2026.5,-60.5 2220.5,-60.5 2220.5,-90.5"/>
<text text-anchor="start" x="2034.5" y="-78.5" font-family="Helvetica,sans-Serif" font-size="10.00">Hermes/_base/OsApi</text>
<text text-anchor="middle" x="2123.5" y="-67.5" font-family="Helvetica,sans-Serif" font-size="10.00">/Flags/Linux/SChannelCredFlags.hpp</text>
</a>
</g>
</g>
<!-- Node11&#45;&gt;Node29 -->
<g id="edge34_Node000011_Node000029" class="edge">
<title>Node11&#45;&gt;Node29</title>
<g id="a_edge34_Node000011_Node000029"><a xlink:title=" ">
<path fill="none" stroke="#63b8ff" d="M1437.64,-143.38C1550.54,-137.95 1804.41,-123.56 2016.5,-96 2024.84,-94.92 2033.53,-93.62 2042.17,-92.21"/>
<polygon fill="#63b8ff" stroke="#63b8ff" points="2043,-95.62 2052.29,-90.52 2041.85,-88.72 2043,-95.62"/>
</a>
</g>
</g>
<!-- Node18 -->
<g id="Node000018" class="node">
<title>Node18</title>
<g id="a_Node000018"><a xlink:title=" ">
<polygon fill="#e0e0e0" stroke="#999999" points="1572.5,-19 1522.5,-19 1522.5,0 1572.5,0 1572.5,-19"/>
<text text-anchor="middle" x="1547.5" y="-7" font-family="Helvetica,sans-Serif" font-size="10.00">cstdint</text>
</a>
</g>
</g>
<!-- Node17&#45;&gt;Node18 -->
<g id="edge17_Node000017_Node000018" class="edge">
<title>Node17&#45;&gt;Node18</title>
<g id="a_edge17_Node000017_Node000018"><a xlink:title=" ">
<path fill="none" stroke="#63b8ff" d="M1547.5,-60.3C1547.5,-51.2 1547.5,-39.29 1547.5,-29.4"/>
<polygon fill="#63b8ff" stroke="#63b8ff" points="1551,-29.34 1547.5,-19.34 1544,-29.34 1551,-29.34"/>
</a>
</g>
</g>
<!-- Node19&#45;&gt;Node12 -->
<g id="edge20_Node000019_Node000012" class="edge">
<title>Node19&#45;&gt;Node12</title>
<g id="a_edge20_Node000019_Node000012"><a xlink:title=" ">
<path fill="none" stroke="#63b8ff" d="M1178.94,-60.47C1171.47,-58.47 1163.8,-56.57 1156.5,-55 1069.13,-36.23 965.7,-22.74 906.24,-15.81"/>
<polygon fill="#63b8ff" stroke="#63b8ff" points="906.35,-12.3 896.01,-14.64 905.55,-19.26 906.35,-12.3"/>
</a>
</g>
</g>
<!-- Node20 -->
<g id="Node000020" class="node">
<title>Node20</title>
<g id="a_Node000020"><a xlink:title=" ">
<polygon fill="#e0e0e0" stroke="#999999" points="1262,-19 1189,-19 1189,0 1262,0 1262,-19"/>
<text text-anchor="middle" x="1225.5" y="-7" font-family="Helvetica,sans-Serif" font-size="10.00">string_view</text>
</a>
</g>
</g>
<!-- Node19&#45;&gt;Node20 -->
<g id="edge19_Node000019_Node000020" class="edge">
<title>Node19&#45;&gt;Node20</title>
<g id="a_edge19_Node000019_Node000020"><a xlink:title=" ">
<path fill="none" stroke="#63b8ff" d="M1225.5,-60.3C1225.5,-51.2 1225.5,-39.29 1225.5,-29.4"/>
<polygon fill="#63b8ff" stroke="#63b8ff" points="1229,-29.34 1225.5,-19.34 1222,-29.34 1229,-29.34"/>
</a>
</g>
</g>
<!-- Node21&#45;&gt;Node12 -->
<g id="edge22_Node000021_Node000012" class="edge">
<title>Node21&#45;&gt;Node12</title>
<g id="a_edge22_Node000021_Node000012"><a xlink:title=" ">
<path fill="none" stroke="#63b8ff" d="M857.5,-60.3C857.5,-51.2 857.5,-39.29 857.5,-29.4"/>
<polygon fill="#63b8ff" stroke="#63b8ff" points="861,-29.34 857.5,-19.34 854,-29.34 861,-29.34"/>
</a>
</g>
</g>
<!-- Node22&#45;&gt;Node13 -->
<g id="edge24_Node000022_Node000013" class="edge">
<title>Node22&#45;&gt;Node13</title>
<g id="a_edge24_Node000022_Node000013"><a xlink:title=" ">
<path fill="none" stroke="#63b8ff" d="M353.74,-60.3C344.07,-50.32 331.13,-36.96 321.08,-26.59"/>
<polygon fill="#63b8ff" stroke="#63b8ff" points="323.54,-24.09 314.07,-19.34 318.51,-28.96 323.54,-24.09"/>
</a>
</g>
</g>
<!-- Node23&#45;&gt;Node12 -->
<g id="edge26_Node000023_Node000012" class="edge">
<title>Node23&#45;&gt;Node12</title>
<g id="a_edge26_Node000023_Node000012"><a xlink:title=" ">
<path fill="none" stroke="#63b8ff" d="M1012.05,-60.45C976.56,-48.98 926.99,-32.96 893.64,-22.18"/>
<polygon fill="#63b8ff" stroke="#63b8ff" points="894.44,-18.76 883.85,-19.02 892.29,-25.42 894.44,-18.76"/>
</a>
</g>
</g>
<!-- Node24&#45;&gt;Node12 -->
<g id="edge28_Node000024_Node000012" class="edge">
<title>Node24&#45;&gt;Node12</title>
<g id="a_edge28_Node000024_Node000012"><a xlink:title=" ">
<path fill="none" stroke="#63b8ff" d="M683.44,-60.45C723.75,-48.88 780.2,-32.68 817.76,-21.91"/>
<polygon fill="#63b8ff" stroke="#63b8ff" points="819.18,-25.14 827.82,-19.02 817.24,-18.41 819.18,-25.14"/>
</a>
</g>
</g>
<!-- Node26&#45;&gt;Node15 -->
<g id="edge31_Node000026_Node000015" class="edge">
<title>Node26&#45;&gt;Node15</title>
<g id="a_edge31_Node000026_Node000015"><a xlink:title=" ">
<path fill="none" stroke="#63b8ff" d="M2321.6,-60.3C2329.16,-50.61 2339.22,-37.74 2347.21,-27.51"/>
<polygon fill="#63b8ff" stroke="#63b8ff" points="2350.19,-29.38 2353.59,-19.34 2344.68,-25.07 2350.19,-29.38"/>
</a>
</g>
</g>
<!-- Node30&#45;&gt;Node7 -->
<g id="edge43_Node000030_Node000007" class="edge">
<title>Node30&#45;&gt;Node7</title>
<g id="a_edge43_Node000030_Node000007"><a xlink:title=" ">
<path fill="none" stroke="#63b8ff" d="M1213.41,-207.58C1453.44,-193.56 2179.3,-147.88 2409.5,-96 2417.41,-94.22 2425.75,-91.55 2433.41,-88.75"/>
<polygon fill="#63b8ff" stroke="#63b8ff" points="2434.91,-91.93 2442.99,-85.07 2432.4,-85.39 2434.91,-91.93"/>
</a>
</g>
</g>
<!-- Node30&#45;&gt;Node31 -->
<g id="edge36_Node000030_Node000031" class="edge">
<title>Node30&#45;&gt;Node31</title>
<g id="a_edge36_Node000030_Node000031"><a xlink:title=" ">
<path fill="none" stroke="#63b8ff" d="M1057.76,-199.17C1054.63,-198.76 1051.54,-198.36 1048.5,-198 846.27,-173.82 606.4,-158.58 487.32,-151.91"/>
<polygon fill="#63b8ff" stroke="#63b8ff" points="487.4,-148.41 477.22,-151.35 487.01,-155.4 487.4,-148.41"/>
</a>
</g>
</g>
<!-- Node34 -->
<g id="Node000034" class="node">
<title>Node34</title>
<g id="a_Node000034"><a xlink:title=" ">
<polygon fill="#e0e0e0" stroke="#999999" points="1027.5,-156.5 985.5,-156.5 985.5,-137.5 1027.5,-137.5 1027.5,-156.5"/>
<text text-anchor="middle" x="1006.5" y="-144.5" font-family="Helvetica,sans-Serif" font-size="10.00">array</text>
</a>
</g>
</g>
<!-- Node30&#45;&gt;Node34 -->
<g id="edge39_Node000030_Node000034" class="edge">
<title>Node30&#45;&gt;Node34</title>
<g id="a_edge39_Node000030_Node000034"><a xlink:title=" ">
<path fill="none" stroke="#63b8ff" d="M1107.19,-197.95C1085.07,-186.98 1054.54,-171.83 1032.92,-161.11"/>
<polygon fill="#63b8ff" stroke="#63b8ff" points="1034.18,-157.83 1023.67,-156.52 1031.07,-164.1 1034.18,-157.83"/>
</a>
</g>
</g>
<!-- Node30&#45;&gt;Node35 -->
<g id="edge40_Node000030_Node000035" class="edge">
<title>Node30&#45;&gt;Node35</title>
<g id="a_edge40_Node000030_Node000035"><a xlink:title=" ">
<path fill="none" stroke="#63b8ff" d="M1167.68,-197.84C1190.3,-187.86 1221.28,-174.17 1248.5,-162 1249.35,-161.62 1250.21,-161.23 1251.08,-160.84"/>
<polygon fill="#63b8ff" stroke="#63b8ff" points="1252.81,-163.91 1260.49,-156.61 1249.94,-157.52 1252.81,-163.91"/>
</a>
</g>
</g>
<!-- Node36 -->
<g id="Node000036" class="node">
<title>Node36</title>
<g id="a_Node000036"><a xlink:title=" ">
<polygon fill="#e0e0e0" stroke="#999999" points="1097,-156.5 1046,-156.5 1046,-137.5 1097,-137.5 1097,-156.5"/>
<text text-anchor="middle" x="1071.5" y="-144.5" font-family="Helvetica,sans-Serif" font-size="10.00">variant</text>
</a>
</g>
</g>
<!-- Node30&#45;&gt;Node36 -->
<g id="edge41_Node000030_Node000036" class="edge">
<title>Node30&#45;&gt;Node36</title>
<g id="a_edge41_Node000030_Node000036"><a xlink:title=" ">
<path fill="none" stroke="#63b8ff" d="M1121.3,-197.8C1111.32,-187.82 1097.96,-174.46 1087.59,-164.09"/>
<polygon fill="#63b8ff" stroke="#63b8ff" points="1089.89,-161.44 1080.34,-156.84 1084.94,-166.39 1089.89,-161.44"/>
</a>
</g>
</g>
<!-- Node30&#45;&gt;Node37 -->
<g id="edge42_Node000030_Node000037" class="edge">
<title>Node30&#45;&gt;Node37</title>
<g id="a_edge42_Node000030_Node000037"><a xlink:title=" ">
<path fill="none" stroke="#63b8ff" d="M1152.37,-197.8C1164.45,-187.62 1180.71,-173.93 1193.12,-163.48"/>
<polygon fill="#63b8ff" stroke="#63b8ff" points="1195.6,-165.96 1201,-156.84 1191.09,-160.61 1195.6,-165.96"/>
</a>
</g>
</g>
<!-- Node38 -->
<g id="Node000038" class="node">
<title>Node38</title>
<g id="a_Node000038"><a xlink:title=" ">
<polygon fill="#e0e0e0" stroke="#999999" points="1165.5,-156.5 1115.5,-156.5 1115.5,-137.5 1165.5,-137.5 1165.5,-156.5"/>
<text text-anchor="middle" x="1140.5" y="-144.5" font-family="Helvetica,sans-Serif" font-size="10.00">format</text>
</a>
</g>
</g>
<!-- Node30&#45;&gt;Node38 -->
<g id="edge44_Node000030_Node000038" class="edge">
<title>Node30&#45;&gt;Node38</title>
<g id="a_edge44_Node000030_Node000038"><a xlink:title=" ">
<path fill="none" stroke="#63b8ff" d="M1136.61,-197.8C1137.32,-188.7 1138.25,-176.79 1139.02,-166.9"/>
<polygon fill="#63b8ff" stroke="#63b8ff" points="1142.52,-167.09 1139.81,-156.84 1135.54,-166.54 1142.52,-167.09"/>
</a>
</g>
</g>
<!-- Node39 -->
<g id="Node000039" class="node">
<title>Node39</title>
<g id="a_Node000039"><a xlink:title=" ">
<polygon fill="#e0e0e0" stroke="#999999" points="967,-162 812,-162 812,-132 967,-132 967,-162"/>
<text text-anchor="start" x="820" y="-150" font-family="Helvetica,sans-Serif" font-size="10.00">Hermes/Endpoint/IpEndpoint</text>
<text text-anchor="middle" x="889.5" y="-139" font-family="Helvetica,sans-Serif" font-size="10.00">/IpAddress.tpp</text>
</a>
</g>
</g>
<!-- Node30&#45;&gt;Node39 -->
<g id="edge45_Node000030_Node000039" class="edge">
<title>Node30&#45;&gt;Node39</title>
<g id="a_edge45_Node000030_Node000039"><a xlink:title=" ">
<path fill="none" stroke="#63b8ff" d="M1081.51,-197.95C1043.7,-188.12 993.03,-174.93 953.23,-164.58"/>
<polygon fill="#63b8ff" stroke="#63b8ff" points="953.92,-161.14 943.36,-162.01 952.16,-167.92 953.92,-161.14"/>
</a>
</g>
</g>
<!-- Node32 -->
<g id="Node000032" class="node">
<title>Node32</title>
<g id="a_Node000032"><a xlink:title=" ">
<polygon fill="#e0e0e0" stroke="#999999" points="45,-85 0,-85 0,-66 45,-66 45,-85"/>
<text text-anchor="middle" x="22.5" y="-73" font-family="Helvetica,sans-Serif" font-size="10.00">utility</text>
</a>
</g>
</g>
<!-- Node31&#45;&gt;Node32 -->
<g id="edge37_Node000031_Node000032" class="edge">
<title>Node31&#45;&gt;Node32</title>
<g id="a_edge37_Node000031_Node000032"><a xlink:title=" ">
<path fill="none" stroke="#63b8ff" d="M347.96,-145.12C274.55,-142.3 152.07,-131.98 53.5,-96 49.65,-94.59 45.76,-92.66 42.12,-90.55"/>
<polygon fill="#63b8ff" stroke="#63b8ff" points="43.98,-87.58 33.67,-85.15 40.21,-93.48 43.98,-87.58"/>
</a>
</g>
</g>
<!-- Node33 -->
<g id="Node000033" class="node">
<title>Node33</title>
<g id="a_Node000033"><a xlink:title=" ">
<polygon fill="#e0e0e0" stroke="#999999" points="128,-85 63,-85 63,-66 128,-66 128,-85"/>
<text text-anchor="middle" x="95.5" y="-73" font-family="Helvetica,sans-Serif" font-size="10.00">functional</text>
</a>
</g>
</g>
<!-- Node31&#45;&gt;Node33 -->
<g id="edge38_Node000031_Node000033" class="edge">
<title>Node31&#45;&gt;Node33</title>
<g id="a_edge38_Node000031_Node000033"><a xlink:title=" ">
<path fill="none" stroke="#63b8ff" d="M347.74,-139.18C291.05,-132.06 206.95,-118.69 136.5,-96 131.06,-94.25 125.41,-91.92 120.11,-89.49"/>
<polygon fill="#63b8ff" stroke="#63b8ff" points="121.59,-86.32 111.07,-85.1 118.53,-92.62 121.59,-86.32"/>
</a>
</g>
</g>
<!-- Node42&#45;&gt;Node4 -->
<g id="edge52_Node000042_Node000004" class="edge">
<title>Node42&#45;&gt;Node4</title>
<g id="a_edge52_Node000042_Node000004"><a xlink:title=" ">
<path fill="none" stroke="#63b8ff" d="M2549.49,-269.45C2537.53,-267.39 2524.55,-265.38 2512.5,-264 2357.44,-246.26 1891.45,-225.13 1706.93,-217.21"/>
<polygon fill="#63b8ff" stroke="#63b8ff" points="1706.91,-213.7 1696.77,-216.77 1706.61,-220.69 1706.91,-213.7"/>
</a>
</g>
</g>
<!-- Node42&#45;&gt;Node5 -->
<g id="edge53_Node000042_Node000005" class="edge">
<title>Node42&#45;&gt;Node5</title>
<g id="a_edge53_Node000042_Node000005"><a xlink:title=" ">
<path fill="none" stroke="#63b8ff" d="M2593.5,-269.47C2593.5,-250.04 2593.5,-201.87 2593.5,-172.36"/>
<polygon fill="#63b8ff" stroke="#63b8ff" points="2597,-172.07 2593.5,-162.07 2590,-172.07 2597,-172.07"/>
</a>
</g>
</g>
<!-- Node42&#45;&gt;Node9 -->
<g id="edge55_Node000042_Node000009" class="edge">
<title>Node42&#45;&gt;Node9</title>
<g id="a_edge55_Node000042_Node000009"><a xlink:title=" ">
<path fill="none" stroke="#63b8ff" d="M2613.14,-269.4C2633.24,-260.25 2665.05,-244.81 2690.5,-228 2746.34,-191.12 2752.84,-171.98 2806.5,-132 2826.44,-117.14 2850.09,-101.51 2867.04,-90.64"/>
<polygon fill="#63b8ff" stroke="#63b8ff" points="2869.14,-93.45 2875.69,-85.12 2865.38,-87.54 2869.14,-93.45"/>
</a>
</g>
</g>
<!-- Node42&#45;&gt;Node11 -->
<g id="edge54_Node000042_Node000011" class="edge">
<title>Node42&#45;&gt;Node11</title>
<g id="a_edge54_Node000042_Node000011"><a xlink:title=" ">
<path fill="none" stroke="#63b8ff" d="M2547.32,-269.45C2535.96,-267.5 2523.81,-265.55 2512.5,-264 2110.54,-208.77 1625.09,-167.6 1447.68,-153.4"/>
<polygon fill="#63b8ff" stroke="#63b8ff" points="1447.95,-149.91 1437.7,-152.6 1447.39,-156.89 1447.95,-149.91"/>
</a>
</g>
</g>
<!-- Node43 -->
<g id="Node000043" class="node">
<title>Node43</title>
<g id="a_Node000043"><a xlink:title=" ">
<polygon fill="#e0e0e0" stroke="#999999" points="2681.5,-222.5 2621.5,-222.5 2621.5,-203.5 2681.5,-203.5 2681.5,-222.5"/>
<text text-anchor="middle" x="2651.5" y="-210.5" font-family="Helvetica,sans-Serif" font-size="10.00">concepts</text>
</a>
</g>
</g>
<!-- Node42&#45;&gt;Node43 -->
<g id="edge56_Node000042_Node000043" class="edge">
<title>Node42&#45;&gt;Node43</title>
<g id="a_edge56_Node000042_Node000043"><a xlink:title=" ">
<path fill="none" stroke="#63b8ff" d="M2601.32,-269.37C2610.35,-259.4 2625.41,-242.79 2636.67,-230.36"/>
<polygon fill="#63b8ff" stroke="#63b8ff" points="2639.31,-232.67 2643.43,-222.91 2634.12,-227.96 2639.31,-232.67"/>
</a>
</g>
</g>
<!-- Node44 -->
<g id="Node000044" class="node">
<title>Node44</title>
<g id="a_Node000044"><a xlink:title=" ">
<polygon fill="#e0e0e0" stroke="#999999" points="2565.5,-222.5 2515.5,-222.5 2515.5,-203.5 2565.5,-203.5 2565.5,-222.5"/>
<text text-anchor="middle" x="2540.5" y="-210.5" font-family="Helvetica,sans-Serif" font-size="10.00">ranges</text>
</a>
</g>
</g>
<!-- Node42&#45;&gt;Node44 -->
<g id="edge57_Node000042_Node000044" class="edge">
<title>Node42&#45;&gt;Node44</title>
<g id="a_edge57_Node000042_Node000044"><a xlink:title=" ">
<path fill="none" stroke="#63b8ff" d="M2586.35,-269.37C2578.18,-259.5 2564.61,-243.11 2554.34,-230.72"/>
<polygon fill="#63b8ff" stroke="#63b8ff" points="2556.95,-228.37 2547.87,-222.91 2551.56,-232.84 2556.95,-228.37"/>
</a>
</g>
</g>
</g>
</svg>
