<?xml version="1.0" encoding="UTF-8" standalone="no"?>
<!DOCTYPE svg PUBLIC "-//W3C//DTD SVG 1.1//EN"
 "http://www.w3.org/Graphics/SVG/1.1/DTD/svg11.dtd">
<!-- Generated by graphviz version 2.43.0 (0)
 -->
<!-- Title: include/Hermes/Socket/Sync/_base/Connection/DefaultConnectPolicy.hpp Pages: 1 -->
<svg width="3274pt" height="456pt"
 viewBox="0.00 0.00 3273.50 456.00" xmlns="http://www.w3.org/2000/svg" xmlns:xlink="http://www.w3.org/1999/xlink">
<g id="graph0" class="graph" transform="scale(1 1) rotate(0) translate(4 452)">
<title>include/Hermes/Socket/Sync/_base/Connection/DefaultConnectPolicy.hpp</title>
<!-- Node1 -->
<g id="Node000001" class="node">
<title>Node1</title>
<g id="a_Node000001"><a xlink:title=" ">
<polygon fill="#999999" stroke="#666666" points="849.5,-448 705.5,-448 705.5,-407 849.5,-407 849.5,-448"/>
<text text-anchor="start" x="713.5" y="-436" font-family="Helvetica,sans-Serif" font-size="10.00">include/Hermes/Socket</text>
<text text-anchor="start" x="713.5" y="-425" font-family="Helvetica,sans-Serif" font-size="10.00">/Sync/_base/Connection</text>
<text text-anchor="middle" x="777.5" y="-414" font-family="Helvetica,sans-Serif" font-size="10.00">/DefaultConnectPolicy.hpp</text>
</a>
</g>
</g>
<!-- Node2 -->
<g id="Node000002" class="node">
<title>Node2</title>
<g id="a_Node000002"><a xlink:href="_ip_endpoint_8hpp.html" target="_top" xlink:title=" ">
<polygon fill="white" stroke="#666666" points="602,-294 447,-294 447,-264 602,-264 602,-294"/>
<text text-anchor="start" x="455" y="-282" font-family="Helvetica,sans-Serif" font-size="10.00">Hermes/Endpoint/IpEndpoint</text>
<text text-anchor="middle" x="524.5" y="-271" font-family="Helvetica,sans-Serif" font-size="10.00">/IpEndpoint.hpp</text>
</a>
</g>
</g>
<!-- Node1&#45;&gt;Node2 -->
<g id="edge1_Node000001_Node000002" class="edge">
<title>Node1&#45;&gt;Node2</title>
<g id="a_edge1_Node000001_Node000002"><a xlink:title=" ">
<path fill="none" stroke="#63b8ff" d="M737.31,-406.88C716.8,-396.6 691.58,-383.57 669.5,-371 628.77,-347.81 583.2,-318.66 554.21,-299.7"/>
<polygon fill="#63b8ff" stroke="#63b8ff" points="556.05,-296.71 545.77,-294.15 552.21,-302.57 556.05,-296.71"/>
</a>
</g>
</g>
<!-- Node4 -->
<g id="Node000004" class="node">
<title>Node4</title>
<g id="a_Node000004"><a xlink:href="_connection_error_enum_8hpp.html" target="_top" xlink:title=" ">
<polygon fill="white" stroke="#666666" points="861,-162 694,-162 694,-132 861,-132 861,-162"/>
<text text-anchor="start" x="702" y="-150" font-family="Helvetica,sans-Serif" font-size="10.00">Hermes/_base/ConnectionError</text>
<text text-anchor="middle" x="777.5" y="-139" font-family="Helvetica,sans-Serif" font-size="10.00">Enum.hpp</text>
</a>
</g>
</g>
<!-- Node1&#45;&gt;Node4 -->
<g id="edge49_Node000001_Node000004" class="edge">
<title>Node1&#45;&gt;Node4</title>
<g id="a_edge49_Node000001_Node000004"><a xlink:title=" ">
<path fill="none" stroke="#63b8ff" d="M767.35,-406.9C749.93,-372.05 715.01,-296.49 702.5,-228 700.1,-214.88 696.21,-209.76 702.5,-198 709.39,-185.12 721.23,-174.99 733.49,-167.31"/>
<polygon fill="#63b8ff" stroke="#63b8ff" points="735.52,-170.18 742.43,-162.15 732.02,-164.12 735.52,-170.18"/>
</a>
</g>
</g>
<!-- Node40 -->
<g id="Node000040" class="node">
<title>Node40</title>
<g id="a_Node000040"><a xlink:href="__base_8hpp.html" target="_top" xlink:title=" ">
<polygon fill="white" stroke="#666666" points="943,-288.5 800,-288.5 800,-269.5 943,-269.5 943,-288.5"/>
<text text-anchor="middle" x="871.5" y="-276.5" font-family="Helvetica,sans-Serif" font-size="10.00">Hermes/Socket/_base.hpp</text>
</a>
</g>
</g>
<!-- Node1&#45;&gt;Node40 -->
<g id="edge50_Node000001_Node000040" class="edge">
<title>Node1&#45;&gt;Node40</title>
<g id="a_edge50_Node000001_Node000040"><a xlink:title=" ">
<path fill="none" stroke="#63b8ff" d="M777.08,-406.71C777.57,-385.94 781.05,-353.15 796.5,-330 807.29,-313.83 825.27,-301.58 840.92,-293.25"/>
<polygon fill="#63b8ff" stroke="#63b8ff" points="842.9,-296.18 850.28,-288.58 839.77,-289.92 842.9,-296.18"/>
</a>
</g>
</g>
<!-- Node43 -->
<g id="Node000043" class="node">
<title>Node43</title>
<g id="a_Node000043"><a xlink:href="_default_socket_data_8hpp.html" target="_top" xlink:title=" ">
<polygon fill="white" stroke="#666666" points="937.5,-365.5 805.5,-365.5 805.5,-335.5 937.5,-335.5 937.5,-365.5"/>
<text text-anchor="start" x="813.5" y="-353.5" font-family="Helvetica,sans-Serif" font-size="10.00">Hermes/Socket/Data</text>
<text text-anchor="middle" x="871.5" y="-342.5" font-family="Helvetica,sans-Serif" font-size="10.00">/DefaultSocketData.hpp</text>
</a>
</g>
</g>
<!-- Node1&#45;&gt;Node43 -->
<g id="edge57_Node000001_Node000043" class="edge">
<title>Node1&#45;&gt;Node43</title>
<g id="a_edge57_Node000001_Node000043"><a xlink:title=" ">
<path fill="none" stroke="#63b8ff" d="M802.2,-406.79C815.62,-396.08 832.2,-382.85 845.78,-372.02"/>
<polygon fill="#63b8ff" stroke="#63b8ff" points="848.16,-374.6 853.8,-365.63 843.8,-369.13 848.16,-374.6"/>
</a>
</g>
</g>
<!-- Node46 -->
<g id="Node000046" class="node">
<title>Node46</title>
<g id="a_Node000046"><a xlink:title=" ">
<polygon fill="#e0e0e0" stroke="#999999" points="1141,-371 956,-371 956,-330 1141,-330 1141,-371"/>
<text text-anchor="start" x="964" y="-359" font-family="Helvetica,sans-Serif" font-size="10.00">Hermes/Socket/Sync</text>
<text text-anchor="start" x="964" y="-348" font-family="Helvetica,sans-Serif" font-size="10.00">/_base/Connection/DefaultConnect</text>
<text text-anchor="middle" x="1048.5" y="-337" font-family="Helvetica,sans-Serif" font-size="10.00">Policy.tpp</text>
</a>
</g>
</g>
<!-- Node1&#45;&gt;Node46 -->
<g id="edge62_Node000001_Node000046" class="edge">
<title>Node1&#45;&gt;Node46</title>
<g id="a_edge62_Node000001_Node000046"><a xlink:title=" ">
<path fill="none" stroke="#63b8ff" d="M847.99,-406.99C884.71,-396.83 929.76,-384.36 967.85,-373.82"/>
<polygon fill="#63b8ff" stroke="#63b8ff" points="969.18,-377.08 977.89,-371.04 967.32,-370.34 969.18,-377.08"/>
</a>
</g>
</g>
<!-- Node3 -->
<g id="Node000003" class="node">
<title>Node3</title>
<g id="a_Node000003"><a xlink:href="_endpoint_concept_8hpp.html" target="_top" xlink:title=" ">
<polygon fill="white" stroke="#666666" points="843.5,-228 711.5,-228 711.5,-198 843.5,-198 843.5,-228"/>
<text text-anchor="start" x="719.5" y="-216" font-family="Helvetica,sans-Serif" font-size="10.00">Hermes/Endpoint/_base</text>
<text text-anchor="middle" x="777.5" y="-205" font-family="Helvetica,sans-Serif" font-size="10.00">/EndpointConcept.hpp</text>
</a>
</g>
</g>
<!-- Node2&#45;&gt;Node3 -->
<g id="edge2_Node000002_Node000003" class="edge">
<title>Node2&#45;&gt;Node3</title>
<g id="a_edge2_Node000002_Node000003"><a xlink:title=" ">
<path fill="none" stroke="#63b8ff" d="M580.02,-263.95C618.99,-254.1 671.25,-240.88 712.22,-230.51"/>
<polygon fill="#63b8ff" stroke="#63b8ff" points="713.27,-233.86 722.11,-228.01 711.55,-227.07 713.27,-233.86"/>
</a>
</g>
</g>
<!-- Node29 -->
<g id="Node000029" class="node">
<title>Node29</title>
<g id="a_Node000029"><a xlink:href="_ip_address_8hpp.html" target="_top" xlink:title=" ">
<polygon fill="white" stroke="#666666" points="411,-228 256,-228 256,-198 411,-198 411,-228"/>
<text text-anchor="start" x="264" y="-216" font-family="Helvetica,sans-Serif" font-size="10.00">Hermes/Endpoint/IpEndpoint</text>
<text text-anchor="middle" x="333.5" y="-205" font-family="Helvetica,sans-Serif" font-size="10.00">/IpAddress.hpp</text>
</a>
</g>
</g>
<!-- Node2&#45;&gt;Node29 -->
<g id="edge34_Node000002_Node000029" class="edge">
<title>Node2&#45;&gt;Node29</title>
<g id="a_edge34_Node000002_Node000029"><a xlink:title=" ">
<path fill="none" stroke="#63b8ff" d="M482.58,-263.95C453.85,-254.33 415.54,-241.49 384.96,-231.24"/>
<polygon fill="#63b8ff" stroke="#63b8ff" points="385.91,-227.87 375.32,-228.01 383.69,-234.51 385.91,-227.87"/>
</a>
</g>
</g>
<!-- Node30 -->
<g id="Node000030" class="node">
<title>Node30</title>
<g id="a_Node000030"><a xlink:href="_hash_8hpp.html" target="_top" xlink:title=" ">
<polygon fill="white" stroke="#666666" points="129,-156.5 0,-156.5 0,-137.5 129,-137.5 129,-156.5"/>
<text text-anchor="middle" x="64.5" y="-144.5" font-family="Helvetica,sans-Serif" font-size="10.00">Hermes/Utils/Hash.hpp</text>
</a>
</g>
</g>
<!-- Node2&#45;&gt;Node30 -->
<g id="edge45_Node000002_Node000030" class="edge">
<title>Node2&#45;&gt;Node30</title>
<g id="a_edge45_Node000002_Node000030"><a xlink:title=" ">
<path fill="none" stroke="#63b8ff" d="M446.88,-273.66C381.09,-268.15 285.02,-255.75 205.5,-228 159.39,-211.91 111,-180.87 84.61,-162.54"/>
<polygon fill="#63b8ff" stroke="#63b8ff" points="86.42,-159.54 76.23,-156.64 82.39,-165.26 86.42,-159.54"/>
</a>
</g>
</g>
<!-- Node34 -->
<g id="Node000034" class="node">
<title>Node34</title>
<g id="a_Node000034"><a xlink:title=" ">
<polygon fill="#e0e0e0" stroke="#999999" points="191.5,-156.5 147.5,-156.5 147.5,-137.5 191.5,-137.5 191.5,-156.5"/>
<text text-anchor="middle" x="169.5" y="-144.5" font-family="Helvetica,sans-Serif" font-size="10.00">string</text>
</a>
</g>
</g>
<!-- Node2&#45;&gt;Node34 -->
<g id="edge47_Node000002_Node000034" class="edge">
<title>Node2&#45;&gt;Node34</title>
<g id="a_edge47_Node000002_Node000034"><a xlink:title=" ">
<path fill="none" stroke="#63b8ff" d="M446.88,-276.77C388.66,-272.93 308.66,-261.25 246.5,-228 218.29,-212.91 194.3,-183.76 180.91,-165.13"/>
<polygon fill="#63b8ff" stroke="#63b8ff" points="183.64,-162.92 175.06,-156.7 177.88,-166.91 183.64,-162.92"/>
</a>
</g>
</g>
<!-- Node36 -->
<g id="Node000036" class="node">
<title>Node36</title>
<g id="a_Node000036"><a xlink:title=" ">
<polygon fill="#e0e0e0" stroke="#999999" points="675.5,-156.5 619.5,-156.5 619.5,-137.5 675.5,-137.5 675.5,-156.5"/>
<text text-anchor="middle" x="647.5" y="-144.5" font-family="Helvetica,sans-Serif" font-size="10.00">optional</text>
</a>
</g>
</g>
<!-- Node2&#45;&gt;Node36 -->
<g id="edge46_Node000002_Node000036" class="edge">
<title>Node2&#45;&gt;Node36</title>
<g id="a_edge46_Node000002_Node000036"><a xlink:title=" ">
<path fill="none" stroke="#63b8ff" d="M510.39,-263.96C495.22,-247.12 475.21,-218.6 490.5,-198 523.43,-153.63 557.11,-179.56 609.5,-162 611.4,-161.36 613.35,-160.69 615.31,-160.01"/>
<polygon fill="#63b8ff" stroke="#63b8ff" points="616.84,-163.18 625.07,-156.51 614.48,-156.59 616.84,-163.18"/>
</a>
</g>
</g>
<!-- Node39 -->
<g id="Node000039" class="node">
<title>Node39</title>
<g id="a_Node000039"><a xlink:title=" ">
<polygon fill="#e0e0e0" stroke="#999999" points="655,-228 500,-228 500,-198 655,-198 655,-228"/>
<text text-anchor="start" x="508" y="-216" font-family="Helvetica,sans-Serif" font-size="10.00">Hermes/Endpoint/IpEndpoint</text>
<text text-anchor="middle" x="577.5" y="-205" font-family="Helvetica,sans-Serif" font-size="10.00">/IpEndpoint.tpp</text>
</a>
</g>
</g>
<!-- Node2&#45;&gt;Node39 -->
<g id="edge48_Node000002_Node000039" class="edge">
<title>Node2&#45;&gt;Node39</title>
<g id="a_edge48_Node000002_Node000039"><a xlink:title=" ">
<path fill="none" stroke="#63b8ff" d="M536.26,-263.8C543.06,-255.59 551.74,-245.1 559.39,-235.87"/>
<polygon fill="#63b8ff" stroke="#63b8ff" points="562.09,-238.1 565.77,-228.16 556.7,-233.63 562.09,-238.1"/>
</a>
</g>
</g>
<!-- Node3&#45;&gt;Node4 -->
<g id="edge3_Node000003_Node000004" class="edge">
<title>Node3&#45;&gt;Node4</title>
<g id="a_edge3_Node000003_Node000004"><a xlink:title=" ">
<path fill="none" stroke="#63b8ff" d="M777.5,-197.8C777.5,-190.34 777.5,-180.99 777.5,-172.41"/>
<polygon fill="#63b8ff" stroke="#63b8ff" points="781,-172.16 777.5,-162.16 774,-172.16 781,-172.16"/>
</a>
</g>
</g>
<!-- Node10 -->
<g id="Node000010" class="node">
<title>Node10</title>
<g id="a_Node000010"><a xlink:href="_os_api_8hpp.html" target="_top" xlink:title=" ">
<polygon fill="white" stroke="#666666" points="2047.5,-162 1929.5,-162 1929.5,-132 2047.5,-132 2047.5,-162"/>
<text text-anchor="start" x="1937.5" y="-150" font-family="Helvetica,sans-Serif" font-size="10.00">Hermes/_base/OsApi</text>
<text text-anchor="middle" x="1988.5" y="-139" font-family="Helvetica,sans-Serif" font-size="10.00">/OsApi.hpp</text>
</a>
</g>
</g>
<!-- Node3&#45;&gt;Node10 -->
<g id="edge9_Node000003_Node000010" class="edge">
<title>Node3&#45;&gt;Node10</title>
<g id="a_edge9_Node000003_Node000010"><a xlink:title=" ">
<path fill="none" stroke="#63b8ff" d="M843.6,-205.22C869.99,-202.68 900.66,-199.95 928.5,-198 1301.77,-171.91 1749.95,-155.74 1919.24,-150.18"/>
<polygon fill="#63b8ff" stroke="#63b8ff" points="1919.38,-153.68 1929.26,-149.85 1919.15,-146.68 1919.38,-153.68"/>
</a>
</g>
</g>
<!-- Node5 -->
<g id="Node000005" class="node">
<title>Node5</title>
<g id="a_Node000005"><a xlink:title=" ">
<polygon fill="#e0e0e0" stroke="#999999" points="586.5,-85 524.5,-85 524.5,-66 586.5,-66 586.5,-85"/>
<text text-anchor="middle" x="555.5" y="-73" font-family="Helvetica,sans-Serif" font-size="10.00">expected</text>
</a>
</g>
</g>
<!-- Node4&#45;&gt;Node5 -->
<g id="edge4_Node000004_Node000005" class="edge">
<title>Node4&#45;&gt;Node5</title>
<g id="a_edge4_Node000004_Node000005"><a xlink:title=" ">
<path fill="none" stroke="#63b8ff" d="M715.09,-131.9C679.53,-123.11 634.44,-110.69 595.5,-96 590.57,-94.14 585.42,-91.88 580.53,-89.58"/>
<polygon fill="#63b8ff" stroke="#63b8ff" points="582.07,-86.43 571.55,-85.17 578.98,-92.72 582.07,-86.43"/>
</a>
</g>
</g>
<!-- Node6 -->
<g id="Node000006" class="node">
<title>Node6</title>
<g id="a_Node000006"><a xlink:title=" ">
<polygon fill="#e0e0e0" stroke="#999999" points="374,-85 327,-85 327,-66 374,-66 374,-85"/>
<text text-anchor="middle" x="350.5" y="-73" font-family="Helvetica,sans-Serif" font-size="10.00">vector</text>
</a>
</g>
</g>
<!-- Node4&#45;&gt;Node6 -->
<g id="edge5_Node000004_Node000006" class="edge">
<title>Node4&#45;&gt;Node6</title>
<g id="a_edge5_Node000004_Node000006"><a xlink:title=" ">
<path fill="none" stroke="#63b8ff" d="M693.9,-132.39C599.41,-117.01 450.16,-92.72 383.99,-81.95"/>
<polygon fill="#63b8ff" stroke="#63b8ff" points="384.54,-78.49 374.1,-80.34 383.41,-85.4 384.54,-78.49"/>
</a>
</g>
</g>
<!-- Node7 -->
<g id="Node000007" class="node">
<title>Node7</title>
<g id="a_Node000007"><a xlink:title=" ">
<polygon fill="#e0e0e0" stroke="#999999" points="644.5,-85 604.5,-85 604.5,-66 644.5,-66 644.5,-85"/>
<text text-anchor="middle" x="624.5" y="-73" font-family="Helvetica,sans-Serif" font-size="10.00">span</text>
</a>
</g>
</g>
<!-- Node4&#45;&gt;Node7 -->
<g id="edge6_Node000004_Node000007" class="edge">
<title>Node4&#45;&gt;Node7</title>
<g id="a_edge6_Node000004_Node000007"><a xlink:title=" ">
<path fill="none" stroke="#63b8ff" d="M736.61,-131.97C711.96,-122.91 680.26,-110.19 653.5,-96 650.5,-94.41 647.42,-92.58 644.45,-90.69"/>
<polygon fill="#63b8ff" stroke="#63b8ff" points="646.26,-87.7 636.01,-85.05 642.37,-93.52 646.26,-87.7"/>
</a>
</g>
</g>
<!-- Node8 -->
<g id="Node000008" class="node">
<title>Node8</title>
<g id="a_Node000008"><a xlink:title=" ">
<polygon fill="#e0e0e0" stroke="#999999" points="972,-85 847,-85 847,-66 972,-66 972,-85"/>
<text text-anchor="middle" x="909.5" y="-73" font-family="Helvetica,sans-Serif" font-size="10.00">stdexec/execution.hpp</text>
</a>
</g>
</g>
<!-- Node4&#45;&gt;Node8 -->
<g id="edge7_Node000004_Node000008" class="edge">
<title>Node4&#45;&gt;Node8</title>
<g id="a_edge7_Node000004_Node000008"><a xlink:title=" ">
<path fill="none" stroke="#63b8ff" d="M804.21,-131.94C827.55,-119.65 861.18,-101.94 884.12,-89.87"/>
<polygon fill="#63b8ff" stroke="#63b8ff" points="886.01,-92.82 893.23,-85.07 882.75,-86.63 886.01,-92.82"/>
</a>
</g>
</g>
<!-- Node9 -->
<g id="Node000009" class="node">
<title>Node9</title>
<g id="a_Node000009"><a xlink:title=" ">
<polygon fill="#e0e0e0" stroke="#999999" points="829,-90.5 662,-90.5 662,-60.5 829,-60.5 829,-90.5"/>
<text text-anchor="start" x="670" y="-78.5" font-family="Helvetica,sans-Serif" font-size="10.00">Hermes/_base/ConnectionError</text>
<text text-anchor="middle" x="745.5" y="-67.5" font-family="Helvetica,sans-Serif" font-size="10.00">Enum.tpp</text>
</a>
</g>
</g>
<!-- Node4&#45;&gt;Node9 -->
<g id="edge8_Node000004_Node000009" class="edge">
<title>Node4&#45;&gt;Node9</title>
<g id="a_edge8_Node000004_Node000009"><a xlink:title=" ">
<path fill="none" stroke="#63b8ff" d="M771.02,-131.94C766.77,-122.7 761.11,-110.41 756.2,-99.74"/>
<polygon fill="#63b8ff" stroke="#63b8ff" points="759.33,-98.16 751.97,-90.54 752.97,-101.09 759.33,-98.16"/>
</a>
</g>
</g>
<!-- Node11 -->
<g id="Node000011" class="node">
<title>Node11</title>
<g id="a_Node000011"><a xlink:title=" ">
<polygon fill="#e0e0e0" stroke="#999999" points="1505,-19 1428,-19 1428,0 1505,0 1505,-19"/>
<text text-anchor="middle" x="1466.5" y="-7" font-family="Helvetica,sans-Serif" font-size="10.00">sys/socket.h</text>
</a>
</g>
</g>
<!-- Node10&#45;&gt;Node11 -->
<g id="edge10_Node000010_Node000011" class="edge">
<title>Node10&#45;&gt;Node11</title>
<g id="a_edge10_Node000010_Node000011"><a xlink:title=" ">
<path fill="none" stroke="#63b8ff" d="M1929.45,-143.56C1833.77,-138.77 1649.78,-125.9 1592.5,-96 1570.74,-84.64 1575.04,-69.86 1555.5,-55 1538.1,-41.77 1516.15,-30.74 1498.4,-22.97"/>
<polygon fill="#63b8ff" stroke="#63b8ff" points="1499.6,-19.68 1489.03,-19 1496.87,-26.13 1499.6,-19.68"/>
</a>
</g>
</g>
<!-- Node12 -->
<g id="Node000012" class="node">
<title>Node12</title>
<g id="a_Node000012"><a xlink:title=" ">
<polygon fill="#e0e0e0" stroke="#999999" points="1931.5,-19 1859.5,-19 1859.5,0 1931.5,0 1931.5,-19"/>
<text text-anchor="middle" x="1895.5" y="-7" font-family="Helvetica,sans-Serif" font-size="10.00">netinet/in.h</text>
</a>
</g>
</g>
<!-- Node10&#45;&gt;Node12 -->
<g id="edge11_Node000010_Node000012" class="edge">
<title>Node10&#45;&gt;Node12</title>
<g id="a_edge11_Node000010_Node000012"><a xlink:title=" ">
<path fill="none" stroke="#63b8ff" d="M1982.13,-131.74C1973.52,-113.21 1957.11,-80.25 1938.5,-55 1930.87,-44.65 1920.97,-34.24 1912.59,-26.1"/>
<polygon fill="#63b8ff" stroke="#63b8ff" points="1914.82,-23.39 1905.15,-19.06 1910.01,-28.48 1914.82,-23.39"/>
</a>
</g>
</g>
<!-- Node13 -->
<g id="Node000013" class="node">
<title>Node13</title>
<g id="a_Node000013"><a xlink:title=" ">
<polygon fill="#e0e0e0" stroke="#999999" points="2055,-85 1986,-85 1986,-66 2055,-66 2055,-85"/>
<text text-anchor="middle" x="2020.5" y="-73" font-family="Helvetica,sans-Serif" font-size="10.00">arpa/inet.h</text>
</a>
</g>
</g>
<!-- Node10&#45;&gt;Node13 -->
<g id="edge12_Node000010_Node000013" class="edge">
<title>Node10&#45;&gt;Node13</title>
<g id="a_edge12_Node000010_Node000013"><a xlink:title=" ">
<path fill="none" stroke="#63b8ff" d="M1994.98,-131.94C1999.95,-121.14 2006.85,-106.15 2012.22,-94.48"/>
<polygon fill="#63b8ff" stroke="#63b8ff" points="2015.46,-95.81 2016.46,-85.27 2009.1,-92.89 2015.46,-95.81"/>
</a>
</g>
</g>
<!-- Node14 -->
<g id="Node000014" class="node">
<title>Node14</title>
<g id="a_Node000014"><a xlink:title=" ">
<polygon fill="#e0e0e0" stroke="#999999" points="2222,-19 2169,-19 2169,0 2222,0 2222,-19"/>
<text text-anchor="middle" x="2195.5" y="-7" font-family="Helvetica,sans-Serif" font-size="10.00">netdb.h</text>
</a>
</g>
</g>
<!-- Node10&#45;&gt;Node14 -->
<g id="edge13_Node000010_Node000014" class="edge">
<title>Node10&#45;&gt;Node14</title>
<g id="a_edge13_Node000010_Node000014"><a xlink:title=" ">
<path fill="none" stroke="#63b8ff" d="M2047.59,-141.92C2110.62,-136.19 2204.38,-123.25 2226.5,-96 2243.08,-75.58 2224.95,-45.52 2210.26,-27.02"/>
<polygon fill="#63b8ff" stroke="#63b8ff" points="2212.8,-24.6 2203.7,-19.19 2207.44,-29.1 2212.8,-24.6"/>
</a>
</g>
</g>
<!-- Node15 -->
<g id="Node000015" class="node">
<title>Node15</title>
<g id="a_Node000015"><a xlink:title=" ">
<polygon fill="#e0e0e0" stroke="#999999" points="2329.5,-85 2273.5,-85 2273.5,-66 2329.5,-66 2329.5,-85"/>
<text text-anchor="middle" x="2301.5" y="-73" font-family="Helvetica,sans-Serif" font-size="10.00">unistd.h</text>
</a>
</g>
</g>
<!-- Node10&#45;&gt;Node15 -->
<g id="edge14_Node000010_Node000015" class="edge">
<title>Node10&#45;&gt;Node15</title>
<g id="a_edge14_Node000010_Node000015"><a xlink:title=" ">
<path fill="none" stroke="#63b8ff" d="M2047.7,-139.45C2103.31,-132.27 2188.39,-118.67 2259.5,-96 2265.05,-94.23 2270.83,-91.9 2276.26,-89.47"/>
<polygon fill="#63b8ff" stroke="#63b8ff" points="2277.99,-92.52 2285.53,-85.08 2274.99,-86.19 2277.99,-92.52"/>
</a>
</g>
</g>
<!-- Node16 -->
<g id="Node000016" class="node">
<title>Node16</title>
<g id="a_Node000016"><a xlink:href="_conversion_and_literals_8hpp.html" target="_top" xlink:title=" ">
<polygon fill="white" stroke="#666666" points="2497.5,-90.5 2347.5,-90.5 2347.5,-60.5 2497.5,-60.5 2497.5,-90.5"/>
<text text-anchor="start" x="2355.5" y="-78.5" font-family="Helvetica,sans-Serif" font-size="10.00">Hermes/_base/OsApi</text>
<text text-anchor="middle" x="2422.5" y="-67.5" font-family="Helvetica,sans-Serif" font-size="10.00">/ConversionAndLiterals.hpp</text>
</a>
</g>
</g>
<!-- Node10&#45;&gt;Node16 -->
<g id="edge15_Node000010_Node000016" class="edge">
<title>Node10&#45;&gt;Node16</title>
<g id="a_edge15_Node000010_Node000016"><a xlink:title=" ">
<path fill="none" stroke="#63b8ff" d="M2047.59,-139.14C2117.37,-130.67 2236.84,-115.02 2338.5,-96 2343.83,-95 2349.34,-93.9 2354.87,-92.73"/>
<polygon fill="#63b8ff" stroke="#63b8ff" points="2355.76,-96.12 2364.8,-90.58 2354.28,-89.28 2355.76,-96.12"/>
</a>
</g>
</g>
<!-- Node18 -->
<g id="Node000018" class="node">
<title>Node18</title>
<g id="a_Node000018"><a xlink:href="_macros_8hpp.html" target="_top" xlink:title=" ">
<polygon fill="white" stroke="#666666" points="1719.5,-90.5 1601.5,-90.5 1601.5,-60.5 1719.5,-60.5 1719.5,-90.5"/>
<text text-anchor="start" x="1609.5" y="-78.5" font-family="Helvetica,sans-Serif" font-size="10.00">Hermes/_base/OsApi</text>
<text text-anchor="middle" x="1660.5" y="-67.5" font-family="Helvetica,sans-Serif" font-size="10.00">/Macros.hpp</text>
</a>
</g>
</g>
<!-- Node10&#45;&gt;Node18 -->
<g id="edge17_Node000010_Node000018" class="edge">
<title>Node10&#45;&gt;Node18</title>
<g id="a_edge17_Node000010_Node000018"><a xlink:title=" ">
<path fill="none" stroke="#63b8ff" d="M1929.31,-136.04C1876.61,-126.83 1797.56,-112.16 1729.5,-96 1725.72,-95.1 1721.85,-94.14 1717.94,-93.13"/>
<polygon fill="#63b8ff" stroke="#63b8ff" points="1718.81,-89.74 1708.25,-90.56 1717.02,-96.5 1718.81,-89.74"/>
</a>
</g>
</g>
<!-- Node20 -->
<g id="Node000020" class="node">
<title>Node20</title>
<g id="a_Node000020"><a xlink:href="_address_family_enum_8hpp.html" target="_top" xlink:title=" ">
<polygon fill="white" stroke="#666666" points="1166.5,-90.5 990.5,-90.5 990.5,-60.5 1166.5,-60.5 1166.5,-90.5"/>
<text text-anchor="start" x="998.5" y="-78.5" font-family="Helvetica,sans-Serif" font-size="10.00">Hermes/_base/OsApi</text>
<text text-anchor="middle" x="1078.5" y="-67.5" font-family="Helvetica,sans-Serif" font-size="10.00">/Enums/AddressFamilyEnum.hpp</text>
</a>
</g>
</g>
<!-- Node10&#45;&gt;Node20 -->
<g id="edge20_Node000010_Node000020" class="edge">
<title>Node10&#45;&gt;Node20</title>
<g id="a_edge20_Node000010_Node000020"><a xlink:title=" ">
<path fill="none" stroke="#63b8ff" d="M1929.32,-145.13C1794.83,-142.56 1456.12,-132.66 1175.5,-96 1167.78,-94.99 1159.74,-93.73 1151.76,-92.33"/>
<polygon fill="#63b8ff" stroke="#63b8ff" points="1152.15,-88.85 1141.69,-90.5 1150.9,-95.73 1152.15,-88.85"/>
</a>
</g>
</g>
<!-- Node21 -->
<g id="Node000021" class="node">
<title>Node21</title>
<g id="a_Node000021"><a xlink:href="_protocol_base_type_enum_8hpp.html" target="_top" xlink:title=" ">
<polygon fill="white" stroke="#666666" points="1929,-90.5 1738,-90.5 1738,-60.5 1929,-60.5 1929,-90.5"/>
<text text-anchor="start" x="1746" y="-78.5" font-family="Helvetica,sans-Serif" font-size="10.00">Hermes/_base/OsApi</text>
<text text-anchor="middle" x="1833.5" y="-67.5" font-family="Helvetica,sans-Serif" font-size="10.00">/Enums/ProtocolBaseTypeEnum.hpp</text>
</a>
</g>
</g>
<!-- Node10&#45;&gt;Node21 -->
<g id="edge22_Node000010_Node000021" class="edge">
<title>Node10&#45;&gt;Node21</title>
<g id="a_edge22_Node000010_Node000021"><a xlink:title=" ">
<path fill="none" stroke="#63b8ff" d="M1957.13,-131.94C1933.18,-121.2 1899.99,-106.31 1874.03,-94.67"/>
<polygon fill="#63b8ff" stroke="#63b8ff" points="1875.38,-91.44 1864.82,-90.54 1872.51,-97.83 1875.38,-91.44"/>
</a>
</g>
</g>
<!-- Node22 -->
<g id="Node000022" class="node">
<title>Node22</title>
<g id="a_Node000022"><a xlink:href="_socket_shutdown_enum_8hpp.html" target="_top" xlink:title=" ">
<polygon fill="white" stroke="#666666" points="1369,-90.5 1184,-90.5 1184,-60.5 1369,-60.5 1369,-90.5"/>
<text text-anchor="start" x="1192" y="-78.5" font-family="Helvetica,sans-Serif" font-size="10.00">Hermes/_base/OsApi</text>
<text text-anchor="middle" x="1276.5" y="-67.5" font-family="Helvetica,sans-Serif" font-size="10.00">/Enums/SocketShutdownEnum.hpp</text>
</a>
</g>
</g>
<!-- Node10&#45;&gt;Node22 -->
<g id="edge24_Node000010_Node000022" class="edge">
<title>Node10&#45;&gt;Node22</title>
<g id="a_edge24_Node000010_Node000022"><a xlink:title=" ">
<path fill="none" stroke="#63b8ff" d="M1929.39,-143.26C1820.18,-137.74 1579.6,-123.38 1378.5,-96 1370.63,-94.93 1362.44,-93.65 1354.28,-92.26"/>
<polygon fill="#63b8ff" stroke="#63b8ff" points="1354.82,-88.8 1344.37,-90.52 1353.61,-95.7 1354.82,-88.8"/>
</a>
</g>
</g>
<!-- Node23 -->
<g id="Node000023" class="node">
<title>Node23</title>
<g id="a_Node000023"><a xlink:href="_socket_type_enum_8hpp.html" target="_top" xlink:title=" ">
<polygon fill="white" stroke="#666666" points="1546,-90.5 1387,-90.5 1387,-60.5 1546,-60.5 1546,-90.5"/>
<text text-anchor="start" x="1395" y="-78.5" font-family="Helvetica,sans-Serif" font-size="10.00">Hermes/_base/OsApi</text>
<text text-anchor="middle" x="1466.5" y="-67.5" font-family="Helvetica,sans-Serif" font-size="10.00">/Enums/SocketTypeEnum.hpp</text>
</a>
</g>
</g>
<!-- Node10&#45;&gt;Node23 -->
<g id="edge26_Node000010_Node000023" class="edge">
<title>Node10&#45;&gt;Node23</title>
<g id="a_edge26_Node000010_Node000023"><a xlink:title=" ">
<path fill="none" stroke="#63b8ff" d="M1929.28,-140.81C1846.31,-133.15 1690.87,-117.38 1559.5,-96 1552.99,-94.94 1546.25,-93.74 1539.5,-92.46"/>
<polygon fill="#63b8ff" stroke="#63b8ff" points="1540.12,-89.01 1529.64,-90.54 1538.79,-95.89 1540.12,-89.01"/>
</a>
</g>
</g>
<!-- Node24 -->
<g id="Node000024" class="node">
<title>Node24</title>
<g id="a_Node000024"><a xlink:href="_linux_2_encrypt_status_enum_8hpp.html" target="_top" xlink:title=" ">
<polygon fill="white" stroke="#666666" points="2667.5,-96 2515.5,-96 2515.5,-55 2667.5,-55 2667.5,-96"/>
<text text-anchor="start" x="2523.5" y="-84" font-family="Helvetica,sans-Serif" font-size="10.00">Hermes/_base/OsApi</text>
<text text-anchor="start" x="2523.5" y="-73" font-family="Helvetica,sans-Serif" font-size="10.00">/Enums/Linux/EncryptStatus</text>
<text text-anchor="middle" x="2591.5" y="-62" font-family="Helvetica,sans-Serif" font-size="10.00">Enum.hpp</text>
</a>
</g>
</g>
<!-- Node10&#45;&gt;Node24 -->
<g id="edge28_Node000010_Node000024" class="edge">
<title>Node10&#45;&gt;Node24</title>
<g id="a_edge28_Node000010_Node000024"><a xlink:title=" ">
<path fill="none" stroke="#63b8ff" d="M2047.86,-142.77C2142.63,-137.07 2334.05,-123.31 2505.19,-96.11"/>
<polygon fill="#63b8ff" stroke="#63b8ff" points="2505.82,-99.55 2515.14,-94.51 2504.71,-92.64 2505.82,-99.55"/>
</a>
</g>
</g>
<!-- Node25 -->
<g id="Node000025" class="node">
<title>Node25</title>
<g id="a_Node000025"><a xlink:href="_name_info_flags_8hpp.html" target="_top" xlink:title=" ">
<polygon fill="white" stroke="#666666" points="2217.5,-90.5 2073.5,-90.5 2073.5,-60.5 2217.5,-60.5 2217.5,-90.5"/>
<text text-anchor="start" x="2081.5" y="-78.5" font-family="Helvetica,sans-Serif" font-size="10.00">Hermes/_base/OsApi</text>
<text text-anchor="middle" x="2145.5" y="-67.5" font-family="Helvetica,sans-Serif" font-size="10.00">/Flags/NameInfoFlags.hpp</text>
</a>
</g>
</g>
<!-- Node10&#45;&gt;Node25 -->
<g id="edge29_Node000010_Node000025" class="edge">
<title>Node10&#45;&gt;Node25</title>
<g id="a_edge29_Node000010_Node000025"><a xlink:title=" ">
<path fill="none" stroke="#63b8ff" d="M2020.27,-131.94C2044.53,-121.2 2078.15,-106.31 2104.45,-94.67"/>
<polygon fill="#63b8ff" stroke="#63b8ff" points="2106.05,-97.79 2113.78,-90.54 2103.22,-91.39 2106.05,-97.79"/>
</a>
</g>
</g>
<!-- Node26 -->
<g id="Node000026" class="node">
<title>Node26</title>
<g id="a_Node000026"><a xlink:href="_linux_2_credential_flags_8hpp.html" target="_top" xlink:title=" ">
<polygon fill="white" stroke="#666666" points="2861.5,-90.5 2685.5,-90.5 2685.5,-60.5 2861.5,-60.5 2861.5,-90.5"/>
<text text-anchor="start" x="2693.5" y="-78.5" font-family="Helvetica,sans-Serif" font-size="10.00">Hermes/_base/OsApi</text>
<text text-anchor="middle" x="2773.5" y="-67.5" font-family="Helvetica,sans-Serif" font-size="10.00">/Flags/Linux/CredentialFlags.hpp</text>
</a>
</g>
</g>
<!-- Node10&#45;&gt;Node26 -->
<g id="edge31_Node000010_Node000026" class="edge">
<title>Node10&#45;&gt;Node26</title>
<g id="a_edge31_Node000010_Node000026"><a xlink:title=" ">
<path fill="none" stroke="#63b8ff" d="M2047.66,-144.21C2167.04,-140.04 2445.11,-127.54 2676.5,-96 2684.04,-94.97 2691.87,-93.72 2699.68,-92.34"/>
<polygon fill="#63b8ff" stroke="#63b8ff" points="2700.31,-95.78 2709.52,-90.55 2699.05,-88.9 2700.31,-95.78"/>
</a>
</g>
</g>
<!-- Node27 -->
<g id="Node000027" class="node">
<title>Node27</title>
<g id="a_Node000027"><a xlink:href="_linux_2_supported_protocols_flags_8hpp.html" target="_top" xlink:title=" ">
<polygon fill="white" stroke="#666666" points="3053,-96 2880,-96 2880,-55 3053,-55 3053,-96"/>
<text text-anchor="start" x="2888" y="-84" font-family="Helvetica,sans-Serif" font-size="10.00">Hermes/_base/OsApi</text>
<text text-anchor="start" x="2888" y="-73" font-family="Helvetica,sans-Serif" font-size="10.00">/Flags/Linux/SupportedProtocols</text>
<text text-anchor="middle" x="2966.5" y="-62" font-family="Helvetica,sans-Serif" font-size="10.00">Flags.hpp</text>
</a>
</g>
</g>
<!-- Node10&#45;&gt;Node27 -->
<g id="edge32_Node000010_Node000027" class="edge">
<title>Node10&#45;&gt;Node27</title>
<g id="a_edge32_Node000010_Node000027"><a xlink:title=" ">
<path fill="none" stroke="#63b8ff" d="M2047.6,-145.58C2188.36,-143.94 2554.51,-135.98 2869.74,-95.98"/>
<polygon fill="#63b8ff" stroke="#63b8ff" points="2870.51,-99.41 2879.99,-94.67 2869.62,-92.47 2870.51,-99.41"/>
</a>
</g>
</g>
<!-- Node28 -->
<g id="Node000028" class="node">
<title>Node28</title>
<g id="a_Node000028"><a xlink:href="_linux_2_s_channel_cred_flags_8hpp.html" target="_top" xlink:title=" ">
<polygon fill="white" stroke="#666666" points="3265.5,-90.5 3071.5,-90.5 3071.5,-60.5 3265.5,-60.5 3265.5,-90.5"/>
<text text-anchor="start" x="3079.5" y="-78.5" font-family="Helvetica,sans-Serif" font-size="10.00">Hermes/_base/OsApi</text>
<text text-anchor="middle" x="3168.5" y="-67.5" font-family="Helvetica,sans-Serif" font-size="10.00">/Flags/Linux/SChannelCredFlags.hpp</text>
</a>
</g>
</g>
<!-- Node10&#45;&gt;Node28 -->
<g id="edge33_Node000010_Node000028" class="edge">
<title>Node10&#45;&gt;Node28</title>
<g id="a_edge33_Node000010_Node000028"><a xlink:title=" ">
<path fill="none" stroke="#63b8ff" d="M2047.52,-146.05C2209.97,-145.59 2677.24,-140.2 3062.5,-96 3071.44,-94.97 3080.77,-93.65 3090.01,-92.16"/>
<polygon fill="#63b8ff" stroke="#63b8ff" points="3090.7,-95.6 3099.99,-90.5 3089.56,-88.69 3090.7,-95.6"/>
</a>
</g>
</g>
<!-- Node17 -->
<g id="Node000017" class="node">
<title>Node17</title>
<g id="a_Node000017"><a xlink:title=" ">
<polygon fill="#e0e0e0" stroke="#999999" points="2447.5,-19 2397.5,-19 2397.5,0 2447.5,0 2447.5,-19"/>
<text text-anchor="middle" x="2422.5" y="-7" font-family="Helvetica,sans-Serif" font-size="10.00">cstdint</text>
</a>
</g>
</g>
<!-- Node16&#45;&gt;Node17 -->
<g id="edge16_Node000016_Node000017" class="edge">
<title>Node16&#45;&gt;Node17</title>
<g id="a_edge16_Node000016_Node000017"><a xlink:title=" ">
<path fill="none" stroke="#63b8ff" d="M2422.5,-60.3C2422.5,-51.2 2422.5,-39.29 2422.5,-29.4"/>
<polygon fill="#63b8ff" stroke="#63b8ff" points="2426,-29.34 2422.5,-19.34 2419,-29.34 2426,-29.34"/>
</a>
</g>
</g>
<!-- Node18&#45;&gt;Node11 -->
<g id="edge19_Node000018_Node000011" class="edge">
<title>Node18&#45;&gt;Node11</title>
<g id="a_edge19_Node000018_Node000011"><a xlink:title=" ">
<path fill="none" stroke="#63b8ff" d="M1617.93,-60.45C1583.15,-48.98 1534.59,-32.96 1501.91,-22.18"/>
<polygon fill="#63b8ff" stroke="#63b8ff" points="1502.91,-18.83 1492.32,-19.02 1500.72,-25.47 1502.91,-18.83"/>
</a>
</g>
</g>
<!-- Node19 -->
<g id="Node000019" class="node">
<title>Node19</title>
<g id="a_Node000019"><a xlink:title=" ">
<polygon fill="#e0e0e0" stroke="#999999" points="1697,-19 1624,-19 1624,0 1697,0 1697,-19"/>
<text text-anchor="middle" x="1660.5" y="-7" font-family="Helvetica,sans-Serif" font-size="10.00">string_view</text>
</a>
</g>
</g>
<!-- Node18&#45;&gt;Node19 -->
<g id="edge18_Node000018_Node000019" class="edge">
<title>Node18&#45;&gt;Node19</title>
<g id="a_edge18_Node000018_Node000019"><a xlink:title=" ">
<path fill="none" stroke="#63b8ff" d="M1660.5,-60.3C1660.5,-51.2 1660.5,-39.29 1660.5,-29.4"/>
<polygon fill="#63b8ff" stroke="#63b8ff" points="1664,-29.34 1660.5,-19.34 1657,-29.34 1664,-29.34"/>
</a>
</g>
</g>
<!-- Node20&#45;&gt;Node11 -->
<g id="edge21_Node000020_Node000011" class="edge">
<title>Node20&#45;&gt;Node11</title>
<g id="a_edge21_Node000020_Node000011"><a xlink:title=" ">
<path fill="none" stroke="#63b8ff" d="M1146.26,-60.46C1156.06,-58.55 1166.03,-56.68 1175.5,-55 1260.48,-39.97 1359.97,-25.41 1417.84,-17.23"/>
<polygon fill="#63b8ff" stroke="#63b8ff" points="1418.39,-20.69 1427.81,-15.83 1417.42,-13.76 1418.39,-20.69"/>
</a>
</g>
</g>
<!-- Node21&#45;&gt;Node12 -->
<g id="edge23_Node000021_Node000012" class="edge">
<title>Node21&#45;&gt;Node12</title>
<g id="a_edge23_Node000021_Node000012"><a xlink:title=" ">
<path fill="none" stroke="#63b8ff" d="M1847.26,-60.3C1856.93,-50.32 1869.87,-36.96 1879.92,-26.59"/>
<polygon fill="#63b8ff" stroke="#63b8ff" points="1882.49,-28.96 1886.93,-19.34 1877.46,-24.09 1882.49,-28.96"/>
</a>
</g>
</g>
<!-- Node22&#45;&gt;Node11 -->
<g id="edge25_Node000022_Node000011" class="edge">
<title>Node22&#45;&gt;Node11</title>
<g id="a_edge25_Node000022_Node000011"><a xlink:title=" ">
<path fill="none" stroke="#63b8ff" d="M1318.2,-60.45C1352.1,-49.03 1399.41,-33.1 1431.4,-22.32"/>
<polygon fill="#63b8ff" stroke="#63b8ff" points="1432.85,-25.53 1441.21,-19.02 1430.62,-18.89 1432.85,-25.53"/>
</a>
</g>
</g>
<!-- Node23&#45;&gt;Node11 -->
<g id="edge27_Node000023_Node000011" class="edge">
<title>Node23&#45;&gt;Node11</title>
<g id="a_edge27_Node000023_Node000011"><a xlink:title=" ">
<path fill="none" stroke="#63b8ff" d="M1466.5,-60.3C1466.5,-51.2 1466.5,-39.29 1466.5,-29.4"/>
<polygon fill="#63b8ff" stroke="#63b8ff" points="1470,-29.34 1466.5,-19.34 1463,-29.34 1470,-29.34"/>
</a>
</g>
</g>
<!-- Node25&#45;&gt;Node14 -->
<g id="edge30_Node000025_Node000014" class="edge">
<title>Node25&#45;&gt;Node14</title>
<g id="a_edge30_Node000025_Node000014"><a xlink:title=" ">
<path fill="none" stroke="#63b8ff" d="M2156.6,-60.3C2164.16,-50.61 2174.22,-37.74 2182.21,-27.51"/>
<polygon fill="#63b8ff" stroke="#63b8ff" points="2185.19,-29.38 2188.59,-19.34 2179.68,-25.07 2185.19,-29.38"/>
</a>
</g>
</g>
<!-- Node29&#45;&gt;Node6 -->
<g id="edge42_Node000029_Node000006" class="edge">
<title>Node29&#45;&gt;Node6</title>
<g id="a_edge42_Node000029_Node000006"><a xlink:title=" ">
<path fill="none" stroke="#63b8ff" d="M283.89,-197.82C266.41,-190.18 248.61,-178.75 238.5,-162 231.61,-150.59 231.47,-143.33 238.5,-132 255.47,-104.65 290.37,-90.36 316.73,-83.18"/>
<polygon fill="#63b8ff" stroke="#63b8ff" points="317.86,-86.51 326.71,-80.68 316.16,-79.72 317.86,-86.51"/>
</a>
</g>
</g>
<!-- Node29&#45;&gt;Node30 -->
<g id="edge35_Node000029_Node000030" class="edge">
<title>Node29&#45;&gt;Node30</title>
<g id="a_edge35_Node000029_Node000030"><a xlink:title=" ">
<path fill="none" stroke="#63b8ff" d="M274.47,-197.95C225.01,-186.19 155.41,-169.63 110.14,-158.86"/>
<polygon fill="#63b8ff" stroke="#63b8ff" points="110.84,-155.43 100.3,-156.52 109.22,-162.24 110.84,-155.43"/>
</a>
</g>
</g>
<!-- Node33 -->
<g id="Node000033" class="node">
<title>Node33</title>
<g id="a_Node000033"><a xlink:title=" ">
<polygon fill="#e0e0e0" stroke="#999999" points="289.5,-156.5 247.5,-156.5 247.5,-137.5 289.5,-137.5 289.5,-156.5"/>
<text text-anchor="middle" x="268.5" y="-144.5" font-family="Helvetica,sans-Serif" font-size="10.00">array</text>
</a>
</g>
</g>
<!-- Node29&#45;&gt;Node33 -->
<g id="edge38_Node000029_Node000033" class="edge">
<title>Node29&#45;&gt;Node33</title>
<g id="a_edge38_Node000029_Node000033"><a xlink:title=" ">
<path fill="none" stroke="#63b8ff" d="M319.07,-197.8C308.94,-187.82 295.37,-174.46 284.84,-164.09"/>
<polygon fill="#63b8ff" stroke="#63b8ff" points="287.06,-161.37 277.48,-156.84 282.15,-166.35 287.06,-161.37"/>
</a>
</g>
</g>
<!-- Node29&#45;&gt;Node34 -->
<g id="edge39_Node000029_Node000034" class="edge">
<title>Node29&#45;&gt;Node34</title>
<g id="a_edge39_Node000029_Node000034"><a xlink:title=" ">
<path fill="none" stroke="#63b8ff" d="M297.51,-197.95C268.62,-186.68 228.47,-171.01 200.88,-160.25"/>
<polygon fill="#63b8ff" stroke="#63b8ff" points="201.91,-156.89 191.33,-156.52 199.37,-163.41 201.91,-156.89"/>
</a>
</g>
</g>
<!-- Node35 -->
<g id="Node000035" class="node">
<title>Node35</title>
<g id="a_Node000035"><a xlink:title=" ">
<polygon fill="#e0e0e0" stroke="#999999" points="359,-156.5 308,-156.5 308,-137.5 359,-137.5 359,-156.5"/>
<text text-anchor="middle" x="333.5" y="-144.5" font-family="Helvetica,sans-Serif" font-size="10.00">variant</text>
</a>
</g>
</g>
<!-- Node29&#45;&gt;Node35 -->
<g id="edge40_Node000029_Node000035" class="edge">
<title>Node29&#45;&gt;Node35</title>
<g id="a_edge40_Node000029_Node000035"><a xlink:title=" ">
<path fill="none" stroke="#63b8ff" d="M333.5,-197.8C333.5,-188.7 333.5,-176.79 333.5,-166.9"/>
<polygon fill="#63b8ff" stroke="#63b8ff" points="337,-166.84 333.5,-156.84 330,-166.84 337,-166.84"/>
</a>
</g>
</g>
<!-- Node29&#45;&gt;Node36 -->
<g id="edge41_Node000029_Node000036" class="edge">
<title>Node29&#45;&gt;Node36</title>
<g id="a_edge41_Node000029_Node000036"><a xlink:title=" ">
<path fill="none" stroke="#63b8ff" d="M411.04,-201.64C466.8,-193.3 543.49,-179.99 609.5,-162 611.93,-161.34 614.43,-160.58 616.93,-159.78"/>
<polygon fill="#63b8ff" stroke="#63b8ff" points="618.1,-163.08 626.41,-156.51 615.81,-156.46 618.1,-163.08"/>
</a>
</g>
</g>
<!-- Node37 -->
<g id="Node000037" class="node">
<title>Node37</title>
<g id="a_Node000037"><a xlink:title=" ">
<polygon fill="#e0e0e0" stroke="#999999" points="427.5,-156.5 377.5,-156.5 377.5,-137.5 427.5,-137.5 427.5,-156.5"/>
<text text-anchor="middle" x="402.5" y="-144.5" font-family="Helvetica,sans-Serif" font-size="10.00">format</text>
</a>
</g>
</g>
<!-- Node29&#45;&gt;Node37 -->
<g id="edge43_Node000029_Node000037" class="edge">
<title>Node29&#45;&gt;Node37</title>
<g id="a_edge43_Node000029_Node000037"><a xlink:title=" ">
<path fill="none" stroke="#63b8ff" d="M348.81,-197.8C359.68,-187.72 374.26,-174.19 385.49,-163.78"/>
<polygon fill="#63b8ff" stroke="#63b8ff" points="388.01,-166.21 392.96,-156.84 383.25,-161.08 388.01,-166.21"/>
</a>
</g>
</g>
<!-- Node38 -->
<g id="Node000038" class="node">
<title>Node38</title>
<g id="a_Node000038"><a xlink:title=" ">
<polygon fill="#e0e0e0" stroke="#999999" points="601,-162 446,-162 446,-132 601,-132 601,-162"/>
<text text-anchor="start" x="454" y="-150" font-family="Helvetica,sans-Serif" font-size="10.00">Hermes/Endpoint/IpEndpoint</text>
<text text-anchor="middle" x="523.5" y="-139" font-family="Helvetica,sans-Serif" font-size="10.00">/IpAddress.tpp</text>
</a>
</g>
</g>
<!-- Node29&#45;&gt;Node38 -->
<g id="edge44_Node000029_Node000038" class="edge">
<title>Node29&#45;&gt;Node38</title>
<g id="a_edge44_Node000029_Node000038"><a xlink:title=" ">
<path fill="none" stroke="#63b8ff" d="M375.2,-197.95C403.78,-188.33 441.89,-175.49 472.31,-165.24"/>
<polygon fill="#63b8ff" stroke="#63b8ff" points="473.54,-168.52 481.9,-162.01 471.31,-161.89 473.54,-168.52"/>
</a>
</g>
</g>
<!-- Node31 -->
<g id="Node000031" class="node">
<title>Node31</title>
<g id="a_Node000031"><a xlink:title=" ">
<polygon fill="#e0e0e0" stroke="#999999" points="51,-85 6,-85 6,-66 51,-66 51,-85"/>
<text text-anchor="middle" x="28.5" y="-73" font-family="Helvetica,sans-Serif" font-size="10.00">utility</text>
</a>
</g>
</g>
<!-- Node30&#45;&gt;Node31 -->
<g id="edge36_Node000030_Node000031" class="edge">
<title>Node30&#45;&gt;Node31</title>
<g id="a_edge36_Node000030_Node000031"><a xlink:title=" ">
<path fill="none" stroke="#63b8ff" d="M60.09,-137.48C54.53,-126.74 44.83,-108.03 37.65,-94.16"/>
<polygon fill="#63b8ff" stroke="#63b8ff" points="40.66,-92.36 32.95,-85.09 34.44,-95.58 40.66,-92.36"/>
</a>
</g>
</g>
<!-- Node32 -->
<g id="Node000032" class="node">
<title>Node32</title>
<g id="a_Node000032"><a xlink:title=" ">
<polygon fill="#e0e0e0" stroke="#999999" points="134,-85 69,-85 69,-66 134,-66 134,-85"/>
<text text-anchor="middle" x="101.5" y="-73" font-family="Helvetica,sans-Serif" font-size="10.00">functional</text>
</a>
</g>
</g>
<!-- Node30&#45;&gt;Node32 -->
<g id="edge37_Node000030_Node000032" class="edge">
<title>Node30&#45;&gt;Node32</title>
<g id="a_edge37_Node000030_Node000032"><a xlink:title=" ">
<path fill="none" stroke="#63b8ff" d="M69.04,-137.48C74.75,-126.74 84.71,-108.03 92.1,-94.16"/>
<polygon fill="#63b8ff" stroke="#63b8ff" points="95.32,-95.56 96.93,-85.09 89.14,-92.27 95.32,-95.56"/>
</a>
</g>
</g>
<!-- Node40&#45;&gt;Node3 -->
<g id="edge51_Node000040_Node000003" class="edge">
<title>Node40&#45;&gt;Node3</title>
<g id="a_edge51_Node000040_Node000003"><a xlink:title=" ">
<path fill="none" stroke="#63b8ff" d="M858.82,-269.37C845.59,-260.36 824.39,-245.92 806.95,-234.05"/>
<polygon fill="#63b8ff" stroke="#63b8ff" points="808.47,-230.85 798.23,-228.12 804.53,-236.64 808.47,-230.85"/>
</a>
</g>
</g>
<!-- Node40&#45;&gt;Node4 -->
<g id="edge52_Node000040_Node000004" class="edge">
<title>Node40&#45;&gt;Node4</title>
<g id="a_edge52_Node000040_Node000004"><a xlink:title=" ">
<path fill="none" stroke="#63b8ff" d="M871.46,-269.47C870.99,-253.9 868.07,-220.38 852.5,-198 843.71,-185.37 830.61,-175.07 817.81,-167.17"/>
<polygon fill="#63b8ff" stroke="#63b8ff" points="819.45,-164.08 809.05,-162.08 815.94,-170.13 819.45,-164.08"/>
</a>
</g>
</g>
<!-- Node40&#45;&gt;Node8 -->
<g id="edge54_Node000040_Node000008" class="edge">
<title>Node40&#45;&gt;Node8</title>
<g id="a_edge54_Node000040_Node000008"><a xlink:title=" ">
<path fill="none" stroke="#63b8ff" d="M873.13,-269.34C878.83,-239.12 897.93,-137.85 905.93,-95.43"/>
<polygon fill="#63b8ff" stroke="#63b8ff" points="909.42,-95.83 907.83,-85.35 902.54,-94.53 909.42,-95.83"/>
</a>
</g>
</g>
<!-- Node40&#45;&gt;Node10 -->
<g id="edge53_Node000040_Node000010" class="edge">
<title>Node40&#45;&gt;Node10</title>
<g id="a_edge53_Node000040_Node000010"><a xlink:title=" ">
<path fill="none" stroke="#63b8ff" d="M902.73,-269.49C930.9,-261.11 972.94,-246.84 1006.5,-228 1025.26,-217.47 1024.37,-205.59 1044.5,-198 1125.54,-167.44 1714.72,-153.28 1918.99,-149.26"/>
<polygon fill="#63b8ff" stroke="#63b8ff" points="1919.36,-152.75 1929.29,-149.05 1919.22,-145.75 1919.36,-152.75"/>
</a>
</g>
</g>
<!-- Node41 -->
<g id="Node000041" class="node">
<title>Node41</title>
<g id="a_Node000041"><a xlink:title=" ">
<polygon fill="#e0e0e0" stroke="#999999" points="997.5,-222.5 937.5,-222.5 937.5,-203.5 997.5,-203.5 997.5,-222.5"/>
<text text-anchor="middle" x="967.5" y="-210.5" font-family="Helvetica,sans-Serif" font-size="10.00">concepts</text>
</a>
</g>
</g>
<!-- Node40&#45;&gt;Node41 -->
<g id="edge55_Node000040_Node000041" class="edge">
<title>Node40&#45;&gt;Node41</title>
<g id="a_edge55_Node000040_Node000041"><a xlink:title=" ">
<path fill="none" stroke="#63b8ff" d="M884.45,-269.37C900.19,-258.87 927,-241 945.9,-228.4"/>
<polygon fill="#63b8ff" stroke="#63b8ff" points="948.07,-231.16 954.45,-222.7 944.19,-225.33 948.07,-231.16"/>
</a>
</g>
</g>
<!-- Node42 -->
<g id="Node000042" class="node">
<title>Node42</title>
<g id="a_Node000042"><a xlink:title=" ">
<polygon fill="#e0e0e0" stroke="#999999" points="1103.5,-222.5 1053.5,-222.5 1053.5,-203.5 1103.5,-203.5 1103.5,-222.5"/>
<text text-anchor="middle" x="1078.5" y="-210.5" font-family="Helvetica,sans-Serif" font-size="10.00">ranges</text>
</a>
</g>
</g>
<!-- Node40&#45;&gt;Node42 -->
<g id="edge56_Node000040_Node000042" class="edge">
<title>Node40&#45;&gt;Node42</title>
<g id="a_edge56_Node000040_Node000042"><a xlink:title=" ">
<path fill="none" stroke="#63b8ff" d="M902.01,-269.47C935.79,-259.9 991.79,-243.65 1039.5,-228 1041.61,-227.31 1043.78,-226.58 1045.96,-225.83"/>
<polygon fill="#63b8ff" stroke="#63b8ff" points="1047.19,-229.11 1055.48,-222.5 1044.88,-222.5 1047.19,-229.11"/>
</a>
</g>
</g>
<!-- Node43&#45;&gt;Node2 -->
<g id="edge58_Node000043_Node000002" class="edge">
<title>Node43&#45;&gt;Node2</title>
<g id="a_edge58_Node000043_Node000002"><a xlink:title=" ">
<path fill="none" stroke="#63b8ff" d="M805.42,-336.26C748.23,-324.81 665.38,-308.22 604.47,-296.02"/>
<polygon fill="#63b8ff" stroke="#63b8ff" points="605,-292.55 594.51,-294.02 603.62,-299.42 605,-292.55"/>
</a>
</g>
</g>
<!-- Node43&#45;&gt;Node40 -->
<g id="edge60_Node000043_Node000040" class="edge">
<title>Node43&#45;&gt;Node40</title>
<g id="a_edge60_Node000043_Node000040"><a xlink:title=" ">
<path fill="none" stroke="#63b8ff" d="M871.5,-335.44C871.5,-324.96 871.5,-310.55 871.5,-299.05"/>
<polygon fill="#63b8ff" stroke="#63b8ff" points="875,-298.77 871.5,-288.77 868,-298.77 875,-298.77"/>
</a>
</g>
</g>
<!-- Node44 -->
<g id="Node000044" class="node">
<title>Node44</title>
<g id="a_Node000044"><a xlink:title=" ">
<polygon fill="#e0e0e0" stroke="#999999" points="1159.5,-288.5 1109.5,-288.5 1109.5,-269.5 1159.5,-269.5 1159.5,-288.5"/>
<text text-anchor="middle" x="1134.5" y="-276.5" font-family="Helvetica,sans-Serif" font-size="10.00">chrono</text>
</a>
</g>
</g>
<!-- Node43&#45;&gt;Node44 -->
<g id="edge59_Node000043_Node000044" class="edge">
<title>Node43&#45;&gt;Node44</title>
<g id="a_edge59_Node000043_Node000044"><a xlink:title=" ">
<path fill="none" stroke="#63b8ff" d="M925.85,-335.41C933.12,-333.57 940.49,-331.72 947.5,-330 1015.34,-313.32 1033.99,-315.37 1100.5,-294 1102.17,-293.46 1103.88,-292.88 1105.59,-292.27"/>
<polygon fill="#63b8ff" stroke="#63b8ff" points="1107.2,-295.4 1115.28,-288.54 1104.69,-288.86 1107.2,-295.4"/>
</a>
</g>
</g>
<!-- Node45 -->
<g id="Node000045" class="node">
<title>Node45</title>
<g id="a_Node000045"><a xlink:title=" ">
<polygon fill="#e0e0e0" stroke="#999999" points="1091.5,-294 961.5,-294 961.5,-264 1091.5,-264 1091.5,-294"/>
<text text-anchor="start" x="969.5" y="-282" font-family="Helvetica,sans-Serif" font-size="10.00">Hermes/Socket/Data</text>
<text text-anchor="middle" x="1026.5" y="-271" font-family="Helvetica,sans-Serif" font-size="10.00">/DefaultSocketData.tpp</text>
</a>
</g>
</g>
<!-- Node43&#45;&gt;Node45 -->
<g id="edge61_Node000043_Node000045" class="edge">
<title>Node43&#45;&gt;Node45</title>
<g id="a_edge61_Node000043_Node000045"><a xlink:title=" ">
<path fill="none" stroke="#63b8ff" d="M902.87,-335.44C926.82,-324.7 960.01,-309.81 985.97,-298.17"/>
<polygon fill="#63b8ff" stroke="#63b8ff" points="987.49,-301.33 995.18,-294.04 984.62,-294.94 987.49,-301.33"/>
</a>
</g>
</g>
</g>
</svg>
