<?xml version="1.0" encoding="UTF-8" standalone="no"?>
<!DOCTYPE svg PUBLIC "-//W3C//DTD SVG 1.1//EN"
 "http://www.w3.org/Graphics/SVG/1.1/DTD/svg11.dtd">
<!-- Generated by graphviz version 2.43.0 (0)
 -->
<!-- Title: include/Hermes/Socket/Data/DefaultSocketData.hpp Pages: 1 -->
<svg width="1264pt" height="412pt"
 viewBox="0.00 0.00 1264.43 412.00" xmlns="http://www.w3.org/2000/svg" xmlns:xlink="http://www.w3.org/1999/xlink">
<g id="graph0" class="graph" transform="scale(1 1) rotate(0) translate(4 408)">
<title>include/Hermes/Socket/Data/DefaultSocketData.hpp</title>
<!-- Node1 -->
<g id="Node000001" class="node">
<title>Node1</title>
<g id="a_Node000001"><a xlink:title=" ">
<polygon fill="#999999" stroke="#666666" points="724.93,-404 566.93,-404 566.93,-374 724.93,-374 724.93,-404"/>
<text text-anchor="start" x="574.93" y="-392" font-family="Helvetica,sans-Serif" font-size="10.00">include/Hermes/Socket</text>
<text text-anchor="middle" x="645.93" y="-381" font-family="Helvetica,sans-Serif" font-size="10.00">/Data/DefaultSocketData.hpp</text>
</a>
</g>
</g>
<!-- Node2 -->
<g id="Node000002" class="node">
<title>Node2</title>
<g id="a_Node000002"><a xlink:href="_default_async_accept_policy_8hpp.html" target="_top" xlink:title=" ">
<polygon fill="white" stroke="#666666" points="191.43,-261 36.43,-261 36.43,-220 191.43,-220 191.43,-261"/>
<text text-anchor="start" x="44.43" y="-249" font-family="Helvetica,sans-Serif" font-size="10.00">include/Hermes/Socket</text>
<text text-anchor="start" x="44.43" y="-238" font-family="Helvetica,sans-Serif" font-size="10.00">/Async/_base/Accept/Default</text>
<text text-anchor="middle" x="113.93" y="-227" font-family="Helvetica,sans-Serif" font-size="10.00">AsyncAcceptPolicy.hpp</text>
</a>
</g>
</g>
<!-- Node1&#45;&gt;Node2 -->
<g id="edge1_Node000001_Node000002" class="edge">
<title>Node1&#45;&gt;Node2</title>
<g id="a_edge1_Node000001_Node000002"><a xlink:title=" ">
<path fill="none" stroke="#63b8ff" d="M556.91,-385.61C481.16,-381.3 370.41,-369.57 278.93,-338 225.91,-319.7 170.99,-283.51 139.78,-261.02"/>
<polygon fill="#63b8ff" stroke="#63b8ff" points="556.73,-389.1 566.9,-386.15 557.1,-382.11 556.73,-389.1"/>
</a>
</g>
</g>
<!-- Node6 -->
<g id="Node000006" class="node">
<title>Node6</title>
<g id="a_Node000006"><a xlink:href="_default_async_connect_policy_8hpp.html" target="_top" xlink:title=" ">
<polygon fill="white" stroke="#666666" points="1256.43,-184 1083.43,-184 1083.43,-143 1256.43,-143 1256.43,-184"/>
<text text-anchor="start" x="1091.43" y="-172" font-family="Helvetica,sans-Serif" font-size="10.00">include/Hermes/Socket</text>
<text text-anchor="start" x="1091.43" y="-161" font-family="Helvetica,sans-Serif" font-size="10.00">/Async/_base/Connection</text>
<text text-anchor="middle" x="1169.93" y="-150" font-family="Helvetica,sans-Serif" font-size="10.00">/DefaultAsyncConnectPolicy.hpp</text>
</a>
</g>
</g>
<!-- Node1&#45;&gt;Node6 -->
<g id="edge6_Node000001_Node000006" class="edge">
<title>Node1&#45;&gt;Node6</title>
<g id="a_edge6_Node000001_Node000006"><a xlink:title=" ">
<path fill="none" stroke="#63b8ff" d="M735.02,-374.75C778.62,-366.75 831.39,-354.8 876.93,-338 944.65,-313.01 957.75,-297.67 1019.93,-261 1062.87,-235.68 1111.13,-204.04 1141.03,-184.04"/>
<polygon fill="#63b8ff" stroke="#63b8ff" points="734.23,-371.33 725.01,-376.55 735.47,-378.22 734.23,-371.33"/>
</a>
</g>
</g>
<!-- Node9 -->
<g id="Node000009" class="node">
<title>Node9</title>
<g id="a_Node000009"><a xlink:href="_default_async_transfer_policy_8hpp.html" target="_top" xlink:title=" ">
<polygon fill="white" stroke="#666666" points="698.43,-184 525.43,-184 525.43,-143 698.43,-143 698.43,-184"/>
<text text-anchor="start" x="533.43" y="-172" font-family="Helvetica,sans-Serif" font-size="10.00">include/Hermes/Socket</text>
<text text-anchor="start" x="533.43" y="-161" font-family="Helvetica,sans-Serif" font-size="10.00">/Async/_base/Transfer</text>
<text text-anchor="middle" x="611.93" y="-150" font-family="Helvetica,sans-Serif" font-size="10.00">/DefaultAsyncTransferPolicy.hpp</text>
</a>
</g>
</g>
<!-- Node1&#45;&gt;Node9 -->
<g id="edge10_Node000001_Node000009" class="edge">
<title>Node1&#45;&gt;Node9</title>
<g id="a_edge10_Node000001_Node000009"><a xlink:title=" ">
<path fill="none" stroke="#63b8ff" d="M638.45,-363.88C630.97,-338.55 619.88,-297.4 614.93,-261 611.34,-234.59 611.05,-203.76 611.35,-184.19"/>
<polygon fill="#63b8ff" stroke="#63b8ff" points="635.17,-365.15 641.4,-373.71 641.87,-363.13 635.17,-365.15"/>
</a>
</g>
</g>
<!-- Node10 -->
<g id="Node000010" class="node">
<title>Node10</title>
<g id="a_Node000010"><a xlink:href="_default_accept_policy_8hpp.html" target="_top" xlink:title=" ">
<polygon fill="white" stroke="#666666" points="469.93,-338 287.93,-338 287.93,-297 469.93,-297 469.93,-338"/>
<text text-anchor="start" x="295.93" y="-326" font-family="Helvetica,sans-Serif" font-size="10.00">include/Hermes/Socket</text>
<text text-anchor="start" x="295.93" y="-315" font-family="Helvetica,sans-Serif" font-size="10.00">/Sync/_base/Accept/DefaultAccept</text>
<text text-anchor="middle" x="378.93" y="-304" font-family="Helvetica,sans-Serif" font-size="10.00">Policy.hpp</text>
</a>
</g>
</g>
<!-- Node1&#45;&gt;Node10 -->
<g id="edge13_Node000001_Node000010" class="edge">
<title>Node1&#45;&gt;Node10</title>
<g id="a_edge13_Node000001_Node000010"><a xlink:title=" ">
<path fill="none" stroke="#63b8ff" d="M581.84,-371.32C543.34,-361.3 494.17,-348.5 453.87,-338.01"/>
<polygon fill="#63b8ff" stroke="#63b8ff" points="581.34,-374.8 591.9,-373.94 583.1,-368.03 581.34,-374.8"/>
</a>
</g>
</g>
<!-- Node15 -->
<g id="Node000015" class="node">
<title>Node15</title>
<g id="a_Node000015"><a xlink:href="_default_connect_policy_8hpp.html" target="_top" xlink:title=" ">
<polygon fill="white" stroke="#666666" points="867.93,-338 723.93,-338 723.93,-297 867.93,-297 867.93,-338"/>
<text text-anchor="start" x="731.93" y="-326" font-family="Helvetica,sans-Serif" font-size="10.00">include/Hermes/Socket</text>
<text text-anchor="start" x="731.93" y="-315" font-family="Helvetica,sans-Serif" font-size="10.00">/Sync/_base/Connection</text>
<text text-anchor="middle" x="795.93" y="-304" font-family="Helvetica,sans-Serif" font-size="10.00">/DefaultConnectPolicy.hpp</text>
</a>
</g>
</g>
<!-- Node1&#45;&gt;Node15 -->
<g id="edge21_Node000001_Node000015" class="edge">
<title>Node1&#45;&gt;Node15</title>
<g id="a_edge21_Node000001_Node000015"><a xlink:title=" ">
<path fill="none" stroke="#63b8ff" d="M685.55,-369.64C706.54,-359.92 732.32,-347.97 753.68,-338.07"/>
<polygon fill="#63b8ff" stroke="#63b8ff" points="683.89,-366.56 676.28,-373.94 686.83,-372.91 683.89,-366.56"/>
</a>
</g>
</g>
<!-- Node19 -->
<g id="Node000019" class="node">
<title>Node19</title>
<g id="a_Node000019"><a xlink:href="_default_transfer_policy_8hpp.html" target="_top" xlink:title=" ">
<polygon fill="white" stroke="#666666" points="767.43,-261 624.43,-261 624.43,-220 767.43,-220 767.43,-261"/>
<text text-anchor="start" x="632.43" y="-249" font-family="Helvetica,sans-Serif" font-size="10.00">include/Hermes/Socket</text>
<text text-anchor="start" x="632.43" y="-238" font-family="Helvetica,sans-Serif" font-size="10.00">/Sync/_base/Transfer</text>
<text text-anchor="middle" x="695.93" y="-227" font-family="Helvetica,sans-Serif" font-size="10.00">/DefaultTransferPolicy.hpp</text>
</a>
</g>
</g>
<!-- Node1&#45;&gt;Node19 -->
<g id="edge28_Node000001_Node000019" class="edge">
<title>Node1&#45;&gt;Node19</title>
<g id="a_edge28_Node000001_Node000019"><a xlink:title=" ">
<path fill="none" stroke="#63b8ff" d="M654,-364.34C663.77,-335.71 680.05,-288.03 689.18,-261.27"/>
<polygon fill="#63b8ff" stroke="#63b8ff" points="650.64,-363.36 650.72,-373.95 657.27,-365.62 650.64,-363.36"/>
</a>
</g>
</g>
<!-- Node3 -->
<g id="Node000003" class="node">
<title>Node3</title>
<g id="a_Node000003"><a xlink:href="_async_server_socket_8hpp.html" target="_top" xlink:title=" ">
<polygon fill="white" stroke="#666666" points="180.93,-101.5 14.93,-101.5 14.93,-71.5 180.93,-71.5 180.93,-101.5"/>
<text text-anchor="start" x="22.93" y="-89.5" font-family="Helvetica,sans-Serif" font-size="10.00">include/Hermes/Socket</text>
<text text-anchor="middle" x="97.93" y="-78.5" font-family="Helvetica,sans-Serif" font-size="10.00">/Async/AsyncServerSocket.hpp</text>
</a>
</g>
</g>
<!-- Node2&#45;&gt;Node3 -->
<g id="edge2_Node000002_Node000003" class="edge">
<title>Node2&#45;&gt;Node3</title>
<g id="a_edge2_Node000002_Node000003"><a xlink:title=" ">
<path fill="none" stroke="#63b8ff" d="M40.46,-215.11C27.11,-207.29 14.91,-197.13 6.93,-184 -2.54,-168.43 -1.99,-158.89 6.93,-143 17.71,-123.8 38.13,-110.46 56.9,-101.67"/>
<polygon fill="#63b8ff" stroke="#63b8ff" points="38.9,-218.25 49.36,-219.92 42.23,-212.09 38.9,-218.25"/>
</a>
</g>
</g>
<!-- Node5 -->
<g id="Node000005" class="node">
<title>Node5</title>
<g id="a_Node000005"><a xlink:href="_tls_async_accept_policy_8hpp.html" target="_top" xlink:title=" ">
<polygon fill="white" stroke="#666666" points="179.43,-184 16.43,-184 16.43,-143 179.43,-143 179.43,-184"/>
<text text-anchor="start" x="24.43" y="-172" font-family="Helvetica,sans-Serif" font-size="10.00">include/Hermes/Socket</text>
<text text-anchor="start" x="24.43" y="-161" font-family="Helvetica,sans-Serif" font-size="10.00">/Async/_base/Accept/TlsAsync</text>
<text text-anchor="middle" x="97.93" y="-150" font-family="Helvetica,sans-Serif" font-size="10.00">AcceptPolicy.hpp</text>
</a>
</g>
</g>
<!-- Node2&#45;&gt;Node5 -->
<g id="edge4_Node000002_Node000005" class="edge">
<title>Node2&#45;&gt;Node5</title>
<g id="a_edge4_Node000002_Node000005"><a xlink:title=" ">
<path fill="none" stroke="#63b8ff" d="M107.63,-209.98C105.78,-201.28 103.79,-191.98 102.1,-184.07"/>
<polygon fill="#63b8ff" stroke="#63b8ff" points="104.22,-210.74 109.72,-219.79 111.06,-209.28 104.22,-210.74"/>
</a>
</g>
</g>
<!-- Node4 -->
<g id="Node000004" class="node">
<title>Node4</title>
<g id="a_Node000004"><a xlink:href="_async_listener_socket_8hpp.html" target="_top" xlink:title=" ">
<polygon fill="white" stroke="#666666" points="184.43,-30 11.43,-30 11.43,0 184.43,0 184.43,-30"/>
<text text-anchor="start" x="19.43" y="-18" font-family="Helvetica,sans-Serif" font-size="10.00">include/Hermes/Socket</text>
<text text-anchor="middle" x="97.93" y="-7" font-family="Helvetica,sans-Serif" font-size="10.00">/Async/AsyncListenerSocket.hpp</text>
</a>
</g>
</g>
<!-- Node3&#45;&gt;Node4 -->
<g id="edge3_Node000003_Node000004" class="edge">
<title>Node3&#45;&gt;Node4</title>
<g id="a_edge3_Node000003_Node000004"><a xlink:title=" ">
<path fill="none" stroke="#63b8ff" d="M97.93,-61.25C97.93,-50.81 97.93,-38.99 97.93,-30.04"/>
<polygon fill="#63b8ff" stroke="#63b8ff" points="94.43,-61.44 97.93,-71.44 101.43,-61.44 94.43,-61.44"/>
</a>
</g>
</g>
<!-- Node5&#45;&gt;Node3 -->
<g id="edge5_Node000005_Node000003" class="edge">
<title>Node5&#45;&gt;Node3</title>
<g id="a_edge5_Node000005_Node000003"><a xlink:title=" ">
<path fill="none" stroke="#63b8ff" d="M97.93,-132.61C97.93,-122.01 97.93,-110.57 97.93,-101.86"/>
<polygon fill="#63b8ff" stroke="#63b8ff" points="94.43,-132.79 97.93,-142.79 101.43,-132.79 94.43,-132.79"/>
</a>
</g>
</g>
<!-- Node7 -->
<g id="Node000007" class="node">
<title>Node7</title>
<g id="a_Node000007"><a xlink:href="_async_client_socket_8hpp.html" target="_top" xlink:title=" ">
<polygon fill="white" stroke="#666666" points="1139.43,-30 976.43,-30 976.43,0 1139.43,0 1139.43,-30"/>
<text text-anchor="start" x="984.43" y="-18" font-family="Helvetica,sans-Serif" font-size="10.00">include/Hermes/Socket</text>
<text text-anchor="middle" x="1057.93" y="-7" font-family="Helvetica,sans-Serif" font-size="10.00">/Async/AsyncClientSocket.hpp</text>
</a>
</g>
</g>
<!-- Node6&#45;&gt;Node7 -->
<g id="edge7_Node000006_Node000007" class="edge">
<title>Node6&#45;&gt;Node7</title>
<g id="a_edge7_Node000006_Node000007"><a xlink:title=" ">
<path fill="none" stroke="#63b8ff" d="M1167.45,-132.75C1164.43,-112.22 1157.75,-85.25 1142.93,-66 1130.71,-50.13 1111.91,-38.32 1095.09,-30.17"/>
<polygon fill="#63b8ff" stroke="#63b8ff" points="1164,-133.34 1168.72,-142.83 1170.94,-132.47 1164,-133.34"/>
</a>
</g>
</g>
<!-- Node8 -->
<g id="Node000008" class="node">
<title>Node8</title>
<g id="a_Node000008"><a xlink:href="_tls_async_connect_policy_8hpp.html" target="_top" xlink:title=" ">
<polygon fill="white" stroke="#666666" points="1133.93,-107 981.93,-107 981.93,-66 1133.93,-66 1133.93,-107"/>
<text text-anchor="start" x="989.93" y="-95" font-family="Helvetica,sans-Serif" font-size="10.00">include/Hermes/Socket</text>
<text text-anchor="start" x="989.93" y="-84" font-family="Helvetica,sans-Serif" font-size="10.00">/Async/_base/Connection</text>
<text text-anchor="middle" x="1057.93" y="-73" font-family="Helvetica,sans-Serif" font-size="10.00">/TlsAsyncConnectPolicy.hpp</text>
</a>
</g>
</g>
<!-- Node6&#45;&gt;Node8 -->
<g id="edge8_Node000006_Node000008" class="edge">
<title>Node6&#45;&gt;Node8</title>
<g id="a_edge8_Node000006_Node000008"><a xlink:title=" ">
<path fill="none" stroke="#63b8ff" d="M1132.4,-137.37C1117.71,-127.53 1101.1,-116.41 1087.31,-107.17"/>
<polygon fill="#63b8ff" stroke="#63b8ff" points="1130.54,-140.33 1140.79,-142.99 1134.43,-134.52 1130.54,-140.33"/>
</a>
</g>
</g>
<!-- Node8&#45;&gt;Node7 -->
<g id="edge9_Node000008_Node000007" class="edge">
<title>Node8&#45;&gt;Node7</title>
<g id="a_edge9_Node000008_Node000007"><a xlink:title=" ">
<path fill="none" stroke="#63b8ff" d="M1057.93,-55.66C1057.93,-46.76 1057.93,-37.42 1057.93,-30.04"/>
<polygon fill="#63b8ff" stroke="#63b8ff" points="1054.43,-55.77 1057.93,-65.77 1061.43,-55.77 1054.43,-55.77"/>
</a>
</g>
</g>
<!-- Node9&#45;&gt;Node3 -->
<g id="edge12_Node000009_Node000003" class="edge">
<title>Node9&#45;&gt;Node3</title>
<g id="a_edge12_Node000009_Node000003"><a xlink:title=" ">
<path fill="none" stroke="#63b8ff" d="M515.45,-142.98C393.17,-122.71 263.36,-106.47 181.06,-96.84"/>
<polygon fill="#63b8ff" stroke="#63b8ff" points="514.93,-146.44 525.37,-144.63 516.08,-139.54 514.93,-146.44"/>
</a>
</g>
</g>
<!-- Node9&#45;&gt;Node7 -->
<g id="edge11_Node000009_Node000007" class="edge">
<title>Node9&#45;&gt;Node7</title>
<g id="a_edge11_Node000009_Node000007"><a xlink:title=" ">
<path fill="none" stroke="#63b8ff" d="M681.26,-139.73C774.68,-109.04 938.12,-55.36 1015.28,-30.01"/>
<polygon fill="#63b8ff" stroke="#63b8ff" points="680.02,-136.45 671.62,-142.89 682.21,-143.1 680.02,-136.45"/>
</a>
</g>
</g>
<!-- Node10&#45;&gt;Node2 -->
<g id="edge14_Node000010_Node000002" class="edge">
<title>Node10&#45;&gt;Node2</title>
<g id="a_edge14_Node000010_Node000002"><a xlink:title=" ">
<path fill="none" stroke="#63b8ff" d="M300.19,-294.21C262.95,-283.68 218.89,-271.21 182.98,-261.04"/>
<polygon fill="#63b8ff" stroke="#63b8ff" points="299.42,-297.63 309.99,-296.99 301.33,-290.9 299.42,-297.63"/>
</a>
</g>
</g>
<!-- Node11 -->
<g id="Node000011" class="node">
<title>Node11</title>
<g id="a_Node000011"><a xlink:href="_server_socket_8hpp.html" target="_top" xlink:title=" ">
<polygon fill="white" stroke="#666666" points="507.43,-178.5 376.43,-178.5 376.43,-148.5 507.43,-148.5 507.43,-178.5"/>
<text text-anchor="start" x="384.43" y="-166.5" font-family="Helvetica,sans-Serif" font-size="10.00">include/Hermes/Socket</text>
<text text-anchor="middle" x="441.93" y="-155.5" font-family="Helvetica,sans-Serif" font-size="10.00">/Sync/ServerSocket.hpp</text>
</a>
</g>
</g>
<!-- Node10&#45;&gt;Node11 -->
<g id="edge15_Node000010_Node000011" class="edge">
<title>Node10&#45;&gt;Node11</title>
<g id="a_edge15_Node000010_Node000011"><a xlink:title=" ">
<path fill="none" stroke="#63b8ff" d="M390.96,-287.48C404.47,-254.86 425.86,-203.26 436.1,-178.57"/>
<polygon fill="#63b8ff" stroke="#63b8ff" points="387.63,-286.36 387.04,-296.94 394.1,-289.04 387.63,-286.36"/>
</a>
</g>
</g>
<!-- Node13 -->
<g id="Node000013" class="node">
<title>Node13</title>
<g id="a_Node000013"><a xlink:href="_tls_accept_policy_8hpp.html" target="_top" xlink:title=" ">
<polygon fill="white" stroke="#666666" points="372.43,-261 211.43,-261 211.43,-220 372.43,-220 372.43,-261"/>
<text text-anchor="start" x="219.43" y="-249" font-family="Helvetica,sans-Serif" font-size="10.00">include/Hermes/Socket</text>
<text text-anchor="start" x="219.43" y="-238" font-family="Helvetica,sans-Serif" font-size="10.00">/Sync/_base/Accept/TlsAccept</text>
<text text-anchor="middle" x="291.93" y="-227" font-family="Helvetica,sans-Serif" font-size="10.00">Policy.hpp</text>
</a>
</g>
</g>
<!-- Node10&#45;&gt;Node13 -->
<g id="edge17_Node000010_Node000013" class="edge">
<title>Node10&#45;&gt;Node13</title>
<g id="a_edge17_Node000010_Node000013"><a xlink:title=" ">
<path fill="none" stroke="#63b8ff" d="M348.27,-290.07C337.2,-280.52 324.9,-269.93 314.63,-261.07"/>
<polygon fill="#63b8ff" stroke="#63b8ff" points="346.21,-292.92 356.07,-296.79 350.78,-287.61 346.21,-292.92"/>
</a>
</g>
</g>
<!-- Node12 -->
<g id="Node000012" class="node">
<title>Node12</title>
<g id="a_Node000012"><a xlink:href="_listener_socket_8hpp.html" target="_top" xlink:title=" ">
<polygon fill="white" stroke="#666666" points="510.93,-101.5 372.93,-101.5 372.93,-71.5 510.93,-71.5 510.93,-101.5"/>
<text text-anchor="start" x="380.93" y="-89.5" font-family="Helvetica,sans-Serif" font-size="10.00">include/Hermes/Socket</text>
<text text-anchor="middle" x="441.93" y="-78.5" font-family="Helvetica,sans-Serif" font-size="10.00">/Sync/ListenerSocket.hpp</text>
</a>
</g>
</g>
<!-- Node11&#45;&gt;Node12 -->
<g id="edge16_Node000011_Node000012" class="edge">
<title>Node11&#45;&gt;Node12</title>
<g id="a_edge16_Node000011_Node000012"><a xlink:title=" ">
<path fill="none" stroke="#63b8ff" d="M441.93,-138.04C441.93,-125.95 441.93,-111.79 441.93,-101.54"/>
<polygon fill="#63b8ff" stroke="#63b8ff" points="438.43,-138.39 441.93,-148.39 445.43,-138.39 438.43,-138.39"/>
</a>
</g>
</g>
<!-- Node13&#45;&gt;Node5 -->
<g id="edge18_Node000013_Node000005" class="edge">
<title>Node13&#45;&gt;Node5</title>
<g id="a_edge18_Node000013_Node000005"><a xlink:title=" ">
<path fill="none" stroke="#63b8ff" d="M231.83,-216.27C205.11,-205.94 173.99,-193.9 148.48,-184.04"/>
<polygon fill="#63b8ff" stroke="#63b8ff" points="230.87,-219.65 241.46,-219.99 233.4,-213.12 230.87,-219.65"/>
</a>
</g>
</g>
<!-- Node13&#45;&gt;Node11 -->
<g id="edge19_Node000013_Node000011" class="edge">
<title>Node13&#45;&gt;Node11</title>
<g id="a_edge19_Node000013_Node000011"><a xlink:title=" ">
<path fill="none" stroke="#63b8ff" d="M340,-215.46C364.24,-203.34 392.81,-189.06 413.53,-178.7"/>
<polygon fill="#63b8ff" stroke="#63b8ff" points="338.33,-212.39 330.95,-219.99 341.46,-218.65 338.33,-212.39"/>
</a>
</g>
</g>
<!-- Node14 -->
<g id="Node000014" class="node">
<title>Node14</title>
<g id="a_Node000014"><a xlink:href="_tls_accept_state_machine_8hpp.html" target="_top" xlink:title=" ">
<polygon fill="white" stroke="#666666" points="357.93,-184 197.93,-184 197.93,-143 357.93,-143 357.93,-184"/>
<text text-anchor="start" x="205.93" y="-172" font-family="Helvetica,sans-Serif" font-size="10.00">include/Hermes/Socket</text>
<text text-anchor="start" x="205.93" y="-161" font-family="Helvetica,sans-Serif" font-size="10.00">/_base/Accept/TlsAcceptState</text>
<text text-anchor="middle" x="277.93" y="-150" font-family="Helvetica,sans-Serif" font-size="10.00">Machine.hpp</text>
</a>
</g>
</g>
<!-- Node13&#45;&gt;Node14 -->
<g id="edge20_Node000013_Node000014" class="edge">
<title>Node13&#45;&gt;Node14</title>
<g id="a_edge20_Node000013_Node000014"><a xlink:title=" ">
<path fill="none" stroke="#63b8ff" d="M286.36,-209.69C284.76,-201.08 283.04,-191.9 281.58,-184.07"/>
<polygon fill="#63b8ff" stroke="#63b8ff" points="282.97,-210.61 288.25,-219.79 289.86,-209.32 282.97,-210.61"/>
</a>
</g>
</g>
<!-- Node16 -->
<g id="Node000016" class="node">
<title>Node16</title>
<g id="a_Node000016"><a xlink:href="_client_socket_8hpp.html" target="_top" xlink:title=" ">
<polygon fill="white" stroke="#666666" points="844.93,-178.5 716.93,-178.5 716.93,-148.5 844.93,-148.5 844.93,-178.5"/>
<text text-anchor="start" x="724.93" y="-166.5" font-family="Helvetica,sans-Serif" font-size="10.00">include/Hermes/Socket</text>
<text text-anchor="middle" x="780.93" y="-155.5" font-family="Helvetica,sans-Serif" font-size="10.00">/Sync/ClientSocket.hpp</text>
</a>
</g>
</g>
<!-- Node15&#45;&gt;Node16 -->
<g id="edge22_Node000015_Node000016" class="edge">
<title>Node15&#45;&gt;Node16</title>
<g id="a_edge22_Node000015_Node000016"><a xlink:title=" ">
<path fill="none" stroke="#63b8ff" d="M792.98,-286.63C789.76,-253.98 784.73,-203.05 782.32,-178.57"/>
<polygon fill="#63b8ff" stroke="#63b8ff" points="789.53,-287.33 794,-296.94 796.5,-286.64 789.53,-287.33"/>
</a>
</g>
</g>
<!-- Node17 -->
<g id="Node000017" class="node">
<title>Node17</title>
<g id="a_Node000017"><a xlink:href="_tls_connect_policy_8hpp.html" target="_top" xlink:title=" ">
<polygon fill="white" stroke="#666666" points="1010.93,-261 878.93,-261 878.93,-220 1010.93,-220 1010.93,-261"/>
<text text-anchor="start" x="886.93" y="-249" font-family="Helvetica,sans-Serif" font-size="10.00">include/Hermes/Socket</text>
<text text-anchor="start" x="886.93" y="-238" font-family="Helvetica,sans-Serif" font-size="10.00">/Sync/_base/Connection</text>
<text text-anchor="middle" x="944.93" y="-227" font-family="Helvetica,sans-Serif" font-size="10.00">/TlsConnectPolicy.hpp</text>
</a>
</g>
</g>
<!-- Node15&#45;&gt;Node17 -->
<g id="edge23_Node000015_Node000017" class="edge">
<title>Node15&#45;&gt;Node17</title>
<g id="a_edge23_Node000015_Node000017"><a xlink:title=" ">
<path fill="none" stroke="#63b8ff" d="M843.71,-292.45C863.87,-282.3 887.03,-270.64 906.1,-261.04"/>
<polygon fill="#63b8ff" stroke="#63b8ff" points="842.05,-289.37 834.69,-296.99 845.19,-295.62 842.05,-289.37"/>
</a>
</g>
</g>
<!-- Node17&#45;&gt;Node6 -->
<g id="edge24_Node000017_Node000006" class="edge">
<title>Node17&#45;&gt;Node6</title>
<g id="a_edge24_Node000017_Node000006"><a xlink:title=" ">
<path fill="none" stroke="#63b8ff" d="M1013,-216.81C1044.35,-206.36 1081.2,-194.08 1111.3,-184.04"/>
<polygon fill="#63b8ff" stroke="#63b8ff" points="1011.84,-213.51 1003.46,-219.99 1014.05,-220.15 1011.84,-213.51"/>
</a>
</g>
</g>
<!-- Node17&#45;&gt;Node8 -->
<g id="edge25_Node000017_Node000008" class="edge">
<title>Node17&#45;&gt;Node8</title>
<g id="a_edge25_Node000017_Node000008"><a xlink:title=" ">
<path fill="none" stroke="#63b8ff" d="M1001.59,-214.52C1014.53,-206.45 1027.06,-196.33 1035.93,-184 1052.39,-161.12 1056.79,-127.95 1057.82,-107.07"/>
<polygon fill="#63b8ff" stroke="#63b8ff" points="999.47,-211.71 992.61,-219.79 1003.01,-217.75 999.47,-211.71"/>
</a>
</g>
</g>
<!-- Node17&#45;&gt;Node16 -->
<g id="edge26_Node000017_Node000016" class="edge">
<title>Node17&#45;&gt;Node16</title>
<g id="a_edge26_Node000017_Node000016"><a xlink:title=" ">
<path fill="none" stroke="#63b8ff" d="M893.04,-215.77C866.29,-203.54 834.58,-189.04 811.72,-178.58"/>
<polygon fill="#63b8ff" stroke="#63b8ff" points="891.72,-219.01 902.27,-219.99 894.63,-212.65 891.72,-219.01"/>
</a>
</g>
</g>
<!-- Node18 -->
<g id="Node000018" class="node">
<title>Node18</title>
<g id="a_Node000018"><a xlink:href="_tls_connect_state_machine_8hpp.html" target="_top" xlink:title=" ">
<polygon fill="white" stroke="#666666" points="1026.43,-184 863.43,-184 863.43,-143 1026.43,-143 1026.43,-184"/>
<text text-anchor="start" x="871.43" y="-172" font-family="Helvetica,sans-Serif" font-size="10.00">include/Hermes/Socket</text>
<text text-anchor="start" x="871.43" y="-161" font-family="Helvetica,sans-Serif" font-size="10.00">/_base/Connection/TlsConnect</text>
<text text-anchor="middle" x="944.93" y="-150" font-family="Helvetica,sans-Serif" font-size="10.00">StateMachine.hpp</text>
</a>
</g>
</g>
<!-- Node17&#45;&gt;Node18 -->
<g id="edge27_Node000017_Node000018" class="edge">
<title>Node17&#45;&gt;Node18</title>
<g id="a_edge27_Node000017_Node000018"><a xlink:title=" ">
<path fill="none" stroke="#63b8ff" d="M944.93,-209.69C944.93,-201.08 944.93,-191.9 944.93,-184.07"/>
<polygon fill="#63b8ff" stroke="#63b8ff" points="941.43,-209.79 944.93,-219.79 948.43,-209.79 941.43,-209.79"/>
</a>
</g>
</g>
<!-- Node19&#45;&gt;Node11 -->
<g id="edge30_Node000019_Node000011" class="edge">
<title>Node19&#45;&gt;Node11</title>
<g id="a_edge30_Node000019_Node000011"><a xlink:title=" ">
<path fill="none" stroke="#63b8ff" d="M620.14,-217.12C577.8,-204.62 526.34,-189.42 489.62,-178.58"/>
<polygon fill="#63b8ff" stroke="#63b8ff" points="619.27,-220.52 629.86,-219.99 621.26,-213.8 619.27,-220.52"/>
</a>
</g>
</g>
<!-- Node19&#45;&gt;Node16 -->
<g id="edge29_Node000019_Node000016" class="edge">
<title>Node19&#45;&gt;Node16</title>
<g id="a_edge29_Node000019_Node000016"><a xlink:title=" ">
<path fill="none" stroke="#63b8ff" d="M725.77,-213.17C738.94,-201.55 753.91,-188.34 764.92,-178.63"/>
<polygon fill="#63b8ff" stroke="#63b8ff" points="723.44,-210.55 718.26,-219.79 728.08,-215.8 723.44,-210.55"/>
</a>
</g>
</g>
</g>
</svg>
