<?xml version="1.0" encoding="UTF-8" standalone="no"?>
<!DOCTYPE svg PUBLIC "-//W3C//DTD SVG 1.1//EN"
 "http://www.w3.org/Graphics/SVG/1.1/DTD/svg11.dtd">
<!-- Generated by graphviz version 2.43.0 (0)
 -->
<!-- Title: include/Hermes/Socket/Data/DefaultSocketData.hpp Pages: 1 -->
<svg width="3395pt" height="368pt"
 viewBox="0.00 0.00 3394.81 368.00" xmlns="http://www.w3.org/2000/svg" xmlns:xlink="http://www.w3.org/1999/xlink">
<g id="graph0" class="graph" transform="scale(1 1) rotate(0) translate(4 364)">
<title>include/Hermes/Socket/Data/DefaultSocketData.hpp</title>
<!-- Node1 -->
<g id="Node000001" class="node">
<title>Node1</title>
<g id="a_Node000001"><a xlink:title=" ">
<polygon fill="#999999" stroke="#666666" points="1027.5,-360 869.5,-360 869.5,-330 1027.5,-330 1027.5,-360"/>
<text text-anchor="start" x="877.5" y="-348" font-family="Helvetica,sans-Serif" font-size="10.00">include/Hermes/Socket</text>
<text text-anchor="middle" x="948.5" y="-337" font-family="Helvetica,sans-Serif" font-size="10.00">/Data/DefaultSocketData.hpp</text>
</a>
</g>
</g>
<!-- Node2 -->
<g id="Node000002" class="node">
<title>Node2</title>
<g id="a_Node000002"><a xlink:href="_ip_endpoint_8hpp.html" target="_top" xlink:title=" ">
<polygon fill="white" stroke="#666666" points="569,-294 414,-294 414,-264 569,-264 569,-294"/>
<text text-anchor="start" x="422" y="-282" font-family="Helvetica,sans-Serif" font-size="10.00">Hermes/Endpoint/IpEndpoint</text>
<text text-anchor="middle" x="491.5" y="-271" font-family="Helvetica,sans-Serif" font-size="10.00">/IpEndpoint.hpp</text>
</a>
</g>
</g>
<!-- Node1&#45;&gt;Node2 -->
<g id="edge1_Node000001_Node000002" class="edge">
<title>Node1&#45;&gt;Node2</title>
<g id="a_edge1_Node000001_Node000002"><a xlink:title=" ">
<path fill="none" stroke="#63b8ff" d="M869.42,-332.93C788.53,-321.6 663.16,-304.04 579.25,-292.29"/>
<polygon fill="#63b8ff" stroke="#63b8ff" points="579.62,-288.81 569.23,-290.89 578.65,-295.74 579.62,-288.81"/>
</a>
</g>
</g>
<!-- Node41 -->
<g id="Node000041" class="node">
<title>Node41</title>
<g id="a_Node000041"><a xlink:title=" ">
<polygon fill="#e0e0e0" stroke="#999999" points="1031.5,-288.5 981.5,-288.5 981.5,-269.5 1031.5,-269.5 1031.5,-288.5"/>
<text text-anchor="middle" x="1006.5" y="-276.5" font-family="Helvetica,sans-Serif" font-size="10.00">chrono</text>
</a>
</g>
</g>
<!-- Node1&#45;&gt;Node41 -->
<g id="edge50_Node000001_Node000041" class="edge">
<title>Node1&#45;&gt;Node41</title>
<g id="a_edge50_Node000001_Node000041"><a xlink:title=" ">
<path fill="none" stroke="#63b8ff" d="M961.37,-329.8C970.33,-319.92 982.29,-306.72 991.64,-296.39"/>
<polygon fill="#63b8ff" stroke="#63b8ff" points="994.36,-298.6 998.48,-288.84 989.18,-293.9 994.36,-298.6"/>
</a>
</g>
</g>
<!-- Node42 -->
<g id="Node000042" class="node">
<title>Node42</title>
<g id="a_Node000042"><a xlink:href="__base_8hpp.html" target="_top" xlink:title=" ">
<polygon fill="white" stroke="#666666" points="963,-288.5 820,-288.5 820,-269.5 963,-269.5 963,-288.5"/>
<text text-anchor="middle" x="891.5" y="-276.5" font-family="Helvetica,sans-Serif" font-size="10.00">Hermes/Socket/_base.hpp</text>
</a>
</g>
</g>
<!-- Node1&#45;&gt;Node42 -->
<g id="edge51_Node000001_Node000042" class="edge">
<title>Node1&#45;&gt;Node42</title>
<g id="a_edge51_Node000001_Node000042"><a xlink:title=" ">
<path fill="none" stroke="#63b8ff" d="M935.85,-329.8C927.05,-319.92 915.3,-306.72 906.1,-296.39"/>
<polygon fill="#63b8ff" stroke="#63b8ff" points="908.64,-293.98 899.38,-288.84 903.41,-298.64 908.64,-293.98"/>
</a>
</g>
</g>
<!-- Node45 -->
<g id="Node000045" class="node">
<title>Node45</title>
<g id="a_Node000045"><a xlink:title=" ">
<polygon fill="#e0e0e0" stroke="#999999" points="1179.5,-294 1049.5,-294 1049.5,-264 1179.5,-264 1179.5,-294"/>
<text text-anchor="start" x="1057.5" y="-282" font-family="Helvetica,sans-Serif" font-size="10.00">Hermes/Socket/Data</text>
<text text-anchor="middle" x="1114.5" y="-271" font-family="Helvetica,sans-Serif" font-size="10.00">/DefaultSocketData.tpp</text>
</a>
</g>
</g>
<!-- Node1&#45;&gt;Node45 -->
<g id="edge58_Node000001_Node000045" class="edge">
<title>Node1&#45;&gt;Node45</title>
<g id="a_edge58_Node000001_Node000045"><a xlink:title=" ">
<path fill="none" stroke="#63b8ff" d="M984.93,-329.95C1009.58,-320.45 1042.33,-307.82 1068.74,-297.64"/>
<polygon fill="#63b8ff" stroke="#63b8ff" points="1070.08,-300.88 1078.16,-294.01 1067.57,-294.34 1070.08,-300.88"/>
</a>
</g>
</g>
<!-- Node3 -->
<g id="Node000003" class="node">
<title>Node3</title>
<g id="a_Node000003"><a xlink:href="_endpoint_concept_8hpp.html" target="_top" xlink:title=" ">
<polygon fill="white" stroke="#666666" points="863.5,-228 731.5,-228 731.5,-198 863.5,-198 863.5,-228"/>
<text text-anchor="start" x="739.5" y="-216" font-family="Helvetica,sans-Serif" font-size="10.00">Hermes/Endpoint/_base</text>
<text text-anchor="middle" x="797.5" y="-205" font-family="Helvetica,sans-Serif" font-size="10.00">/EndpointConcept.hpp</text>
</a>
</g>
</g>
<!-- Node2&#45;&gt;Node3 -->
<g id="edge2_Node000002_Node000003" class="edge">
<title>Node2&#45;&gt;Node3</title>
<g id="a_edge2_Node000002_Node000003"><a xlink:title=" ">
<path fill="none" stroke="#63b8ff" d="M558.65,-263.95C606.63,-253.92 671.26,-240.4 721.19,-229.96"/>
<polygon fill="#63b8ff" stroke="#63b8ff" points="722.22,-233.32 731.29,-227.85 720.79,-226.47 722.22,-233.32"/>
</a>
</g>
</g>
<!-- Node30 -->
<g id="Node000030" class="node">
<title>Node30</title>
<g id="a_Node000030"><a xlink:href="_ip_address_8hpp.html" target="_top" xlink:title=" ">
<polygon fill="white" stroke="#666666" points="463,-228 308,-228 308,-198 463,-198 463,-228"/>
<text text-anchor="start" x="316" y="-216" font-family="Helvetica,sans-Serif" font-size="10.00">Hermes/Endpoint/IpEndpoint</text>
<text text-anchor="middle" x="385.5" y="-205" font-family="Helvetica,sans-Serif" font-size="10.00">/IpAddress.hpp</text>
</a>
</g>
</g>
<!-- Node2&#45;&gt;Node30 -->
<g id="edge35_Node000002_Node000030" class="edge">
<title>Node2&#45;&gt;Node30</title>
<g id="a_edge35_Node000002_Node000030"><a xlink:title=" ">
<path fill="none" stroke="#63b8ff" d="M468.24,-263.95C453.33,-254.95 433.77,-243.14 417.41,-233.27"/>
<polygon fill="#63b8ff" stroke="#63b8ff" points="419.08,-230.18 408.71,-228.01 415.46,-236.18 419.08,-230.18"/>
</a>
</g>
</g>
<!-- Node31 -->
<g id="Node000031" class="node">
<title>Node31</title>
<g id="a_Node000031"><a xlink:href="_hash_8hpp.html" target="_top" xlink:title=" ">
<polygon fill="white" stroke="#666666" points="129,-156.5 0,-156.5 0,-137.5 129,-137.5 129,-156.5"/>
<text text-anchor="middle" x="64.5" y="-144.5" font-family="Helvetica,sans-Serif" font-size="10.00">Hermes/Utils/Hash.hpp</text>
</a>
</g>
</g>
<!-- Node2&#45;&gt;Node31 -->
<g id="edge46_Node000002_Node000031" class="edge">
<title>Node2&#45;&gt;Node31</title>
<g id="a_edge46_Node000002_Node000031"><a xlink:title=" ">
<path fill="none" stroke="#63b8ff" d="M413.95,-267.4C363.5,-259.35 296.69,-246.47 239.5,-228 183.66,-209.97 122.05,-179.02 88.89,-161.36"/>
<polygon fill="#63b8ff" stroke="#63b8ff" points="90.4,-158.2 79.93,-156.55 87.08,-164.37 90.4,-158.2"/>
</a>
</g>
</g>
<!-- Node35 -->
<g id="Node000035" class="node">
<title>Node35</title>
<g id="a_Node000035"><a xlink:title=" ">
<polygon fill="#e0e0e0" stroke="#999999" points="191.5,-156.5 147.5,-156.5 147.5,-137.5 191.5,-137.5 191.5,-156.5"/>
<text text-anchor="middle" x="169.5" y="-144.5" font-family="Helvetica,sans-Serif" font-size="10.00">string</text>
</a>
</g>
</g>
<!-- Node2&#45;&gt;Node35 -->
<g id="edge48_Node000002_Node000035" class="edge">
<title>Node2&#45;&gt;Node35</title>
<g id="a_edge48_Node000002_Node000035"><a xlink:title=" ">
<path fill="none" stroke="#63b8ff" d="M415.99,-263.98C379.62,-255.84 335.89,-244 298.5,-228 256.85,-210.18 212.98,-180.22 188.64,-162.46"/>
<polygon fill="#63b8ff" stroke="#63b8ff" points="190.72,-159.65 180.6,-156.52 186.56,-165.28 190.72,-159.65"/>
</a>
</g>
</g>
<!-- Node37 -->
<g id="Node000037" class="node">
<title>Node37</title>
<g id="a_Node000037"><a xlink:title=" ">
<polygon fill="#e0e0e0" stroke="#999999" points="675.5,-156.5 619.5,-156.5 619.5,-137.5 675.5,-137.5 675.5,-156.5"/>
<text text-anchor="middle" x="647.5" y="-144.5" font-family="Helvetica,sans-Serif" font-size="10.00">optional</text>
</a>
</g>
</g>
<!-- Node2&#45;&gt;Node37 -->
<g id="edge47_Node000002_Node000037" class="edge">
<title>Node2&#45;&gt;Node37</title>
<g id="a_edge47_Node000002_Node000037"><a xlink:title=" ">
<path fill="none" stroke="#63b8ff" d="M491.02,-263.74C491.21,-246.15 494.17,-216.34 510.5,-198 541.64,-163.04 565.53,-178.09 609.5,-162 611.13,-161.4 612.81,-160.79 614.5,-160.17"/>
<polygon fill="#63b8ff" stroke="#63b8ff" points="616.02,-163.34 624.19,-156.6 613.6,-156.77 616.02,-163.34"/>
</a>
</g>
</g>
<!-- Node40 -->
<g id="Node000040" class="node">
<title>Node40</title>
<g id="a_Node000040"><a xlink:title=" ">
<polygon fill="#e0e0e0" stroke="#999999" points="675,-228 520,-228 520,-198 675,-198 675,-228"/>
<text text-anchor="start" x="528" y="-216" font-family="Helvetica,sans-Serif" font-size="10.00">Hermes/Endpoint/IpEndpoint</text>
<text text-anchor="middle" x="597.5" y="-205" font-family="Helvetica,sans-Serif" font-size="10.00">/IpEndpoint.tpp</text>
</a>
</g>
</g>
<!-- Node2&#45;&gt;Node40 -->
<g id="edge49_Node000002_Node000040" class="edge">
<title>Node2&#45;&gt;Node40</title>
<g id="a_edge49_Node000002_Node000040"><a xlink:title=" ">
<path fill="none" stroke="#63b8ff" d="M514.76,-263.95C529.67,-254.95 549.23,-243.14 565.59,-233.27"/>
<polygon fill="#63b8ff" stroke="#63b8ff" points="567.54,-236.18 574.29,-228.01 563.92,-230.18 567.54,-236.18"/>
</a>
</g>
</g>
<!-- Node4 -->
<g id="Node000004" class="node">
<title>Node4</title>
<g id="a_Node000004"><a xlink:href="_connection_error_enum_8hpp.html" target="_top" xlink:title=" ">
<polygon fill="white" stroke="#666666" points="898,-162 731,-162 731,-132 898,-132 898,-162"/>
<text text-anchor="start" x="739" y="-150" font-family="Helvetica,sans-Serif" font-size="10.00">Hermes/_base/ConnectionError</text>
<text text-anchor="middle" x="814.5" y="-139" font-family="Helvetica,sans-Serif" font-size="10.00">Enum.hpp</text>
</a>
</g>
</g>
<!-- Node3&#45;&gt;Node4 -->
<g id="edge3_Node000003_Node000004" class="edge">
<title>Node3&#45;&gt;Node4</title>
<g id="a_edge3_Node000003_Node000004"><a xlink:title=" ">
<path fill="none" stroke="#63b8ff" d="M801.27,-197.8C803.3,-190.17 805.85,-180.57 808.17,-171.84"/>
<polygon fill="#63b8ff" stroke="#63b8ff" points="811.55,-172.73 810.74,-162.16 804.79,-170.93 811.55,-172.73"/>
</a>
</g>
</g>
<!-- Node10 -->
<g id="Node000010" class="node">
<title>Node10</title>
<g id="a_Node000010"><a xlink:href="_os_api_8hpp.html" target="_top" xlink:title=" ">
<polygon fill="white" stroke="#666666" points="2117.5,-162 1999.5,-162 1999.5,-132 2117.5,-132 2117.5,-162"/>
<text text-anchor="start" x="2007.5" y="-150" font-family="Helvetica,sans-Serif" font-size="10.00">Hermes/_base/OsApi</text>
<text text-anchor="middle" x="2058.5" y="-139" font-family="Helvetica,sans-Serif" font-size="10.00">/OsApi.hpp</text>
</a>
</g>
</g>
<!-- Node3&#45;&gt;Node10 -->
<g id="edge9_Node000003_Node000010" class="edge">
<title>Node3&#45;&gt;Node10</title>
<g id="a_edge9_Node000003_Node000010"><a xlink:title=" ">
<path fill="none" stroke="#63b8ff" d="M863.73,-202.9C879.06,-201.04 895.33,-199.27 910.5,-198 1318.57,-163.89 1810.31,-152.33 1989.19,-149.09"/>
<polygon fill="#63b8ff" stroke="#63b8ff" points="1989.31,-152.59 1999.25,-148.91 1989.19,-145.59 1989.31,-152.59"/>
</a>
</g>
</g>
<!-- Node5 -->
<g id="Node000005" class="node">
<title>Node5</title>
<g id="a_Node000005"><a xlink:title=" ">
<polygon fill="#e0e0e0" stroke="#999999" points="977.5,-85 915.5,-85 915.5,-66 977.5,-66 977.5,-85"/>
<text text-anchor="middle" x="946.5" y="-73" font-family="Helvetica,sans-Serif" font-size="10.00">expected</text>
</a>
</g>
</g>
<!-- Node4&#45;&gt;Node5 -->
<g id="edge4_Node000004_Node000005" class="edge">
<title>Node4&#45;&gt;Node5</title>
<g id="a_edge4_Node000004_Node000005"><a xlink:title=" ">
<path fill="none" stroke="#63b8ff" d="M841.21,-131.94C864.55,-119.65 898.18,-101.94 921.12,-89.87"/>
<polygon fill="#63b8ff" stroke="#63b8ff" points="923.01,-92.82 930.23,-85.07 919.75,-86.63 923.01,-92.82"/>
</a>
</g>
</g>
<!-- Node6 -->
<g id="Node000006" class="node">
<title>Node6</title>
<g id="a_Node000006"><a xlink:title=" ">
<polygon fill="#e0e0e0" stroke="#999999" points="377,-85 330,-85 330,-66 377,-66 377,-85"/>
<text text-anchor="middle" x="353.5" y="-73" font-family="Helvetica,sans-Serif" font-size="10.00">vector</text>
</a>
</g>
</g>
<!-- Node4&#45;&gt;Node6 -->
<g id="edge5_Node000004_Node000006" class="edge">
<title>Node4&#45;&gt;Node6</title>
<g id="a_edge5_Node000004_Node000006"><a xlink:title=" ">
<path fill="none" stroke="#63b8ff" d="M730.75,-133.37C628.28,-117.93 459.58,-92.49 387.68,-81.65"/>
<polygon fill="#63b8ff" stroke="#63b8ff" points="387.8,-78.13 377.39,-80.1 386.76,-85.05 387.8,-78.13"/>
</a>
</g>
</g>
<!-- Node7 -->
<g id="Node000007" class="node">
<title>Node7</title>
<g id="a_Node000007"><a xlink:title=" ">
<polygon fill="#e0e0e0" stroke="#999999" points="713.5,-85 673.5,-85 673.5,-66 713.5,-66 713.5,-85"/>
<text text-anchor="middle" x="693.5" y="-73" font-family="Helvetica,sans-Serif" font-size="10.00">span</text>
</a>
</g>
</g>
<!-- Node4&#45;&gt;Node7 -->
<g id="edge6_Node000004_Node000007" class="edge">
<title>Node4&#45;&gt;Node7</title>
<g id="a_edge6_Node000004_Node000007"><a xlink:title=" ">
<path fill="none" stroke="#63b8ff" d="M786.36,-131.94C767.66,-122.34 742.74,-109.05 721.5,-96 718.94,-94.43 716.3,-92.72 713.71,-90.98"/>
<polygon fill="#63b8ff" stroke="#63b8ff" points="715.5,-87.97 705.29,-85.16 711.52,-93.72 715.5,-87.97"/>
</a>
</g>
</g>
<!-- Node8 -->
<g id="Node000008" class="node">
<title>Node8</title>
<g id="a_Node000008"><a xlink:title=" ">
<polygon fill="#e0e0e0" stroke="#999999" points="655,-85 530,-85 530,-66 655,-66 655,-85"/>
<text text-anchor="middle" x="592.5" y="-73" font-family="Helvetica,sans-Serif" font-size="10.00">stdexec/execution.hpp</text>
</a>
</g>
</g>
<!-- Node4&#45;&gt;Node8 -->
<g id="edge7_Node000004_Node000008" class="edge">
<title>Node4&#45;&gt;Node8</title>
<g id="a_edge7_Node000004_Node000008"><a xlink:title=" ">
<path fill="none" stroke="#63b8ff" d="M769.57,-131.94C728.4,-119.05 668.16,-100.19 629.64,-88.13"/>
<polygon fill="#63b8ff" stroke="#63b8ff" points="630.46,-84.72 619.87,-85.07 628.37,-91.4 630.46,-84.72"/>
</a>
</g>
</g>
<!-- Node9 -->
<g id="Node000009" class="node">
<title>Node9</title>
<g id="a_Node000009"><a xlink:title=" ">
<polygon fill="#e0e0e0" stroke="#999999" points="898,-90.5 731,-90.5 731,-60.5 898,-60.5 898,-90.5"/>
<text text-anchor="start" x="739" y="-78.5" font-family="Helvetica,sans-Serif" font-size="10.00">Hermes/_base/ConnectionError</text>
<text text-anchor="middle" x="814.5" y="-67.5" font-family="Helvetica,sans-Serif" font-size="10.00">Enum.tpp</text>
</a>
</g>
</g>
<!-- Node4&#45;&gt;Node9 -->
<g id="edge8_Node000004_Node000009" class="edge">
<title>Node4&#45;&gt;Node9</title>
<g id="a_edge8_Node000004_Node000009"><a xlink:title=" ">
<path fill="none" stroke="#63b8ff" d="M814.5,-131.94C814.5,-122.99 814.5,-111.16 814.5,-100.73"/>
<polygon fill="#63b8ff" stroke="#63b8ff" points="818,-100.54 814.5,-90.54 811,-100.54 818,-100.54"/>
</a>
</g>
</g>
<!-- Node11 -->
<g id="Node000011" class="node">
<title>Node11</title>
<g id="a_Node000011"><a xlink:title=" ">
<polygon fill="#e0e0e0" stroke="#999999" points="3037,-19 2960,-19 2960,0 3037,0 3037,-19"/>
<text text-anchor="middle" x="2998.5" y="-7" font-family="Helvetica,sans-Serif" font-size="10.00">sys/socket.h</text>
</a>
</g>
</g>
<!-- Node10&#45;&gt;Node11 -->
<g id="edge10_Node000010_Node000011" class="edge">
<title>Node10&#45;&gt;Node11</title>
<g id="a_edge10_Node000010_Node000011"><a xlink:title=" ">
<path fill="none" stroke="#63b8ff" d="M2117.65,-146.01C2368.47,-145.79 3333.27,-141.94 3377.5,-96 3390.14,-82.87 3389.61,-68.62 3377.5,-55 3355.91,-30.73 3145,-17.53 3047.49,-12.68"/>
<polygon fill="#63b8ff" stroke="#63b8ff" points="3047.45,-9.18 3037.29,-12.19 3047.11,-16.17 3047.45,-9.18"/>
</a>
</g>
</g>
<!-- Node12 -->
<g id="Node000012" class="node">
<title>Node12</title>
<g id="a_Node000012"><a xlink:title=" ">
<polygon fill="#e0e0e0" stroke="#999999" points="2367.5,-19 2295.5,-19 2295.5,0 2367.5,0 2367.5,-19"/>
<text text-anchor="middle" x="2331.5" y="-7" font-family="Helvetica,sans-Serif" font-size="10.00">netinet/in.h</text>
</a>
</g>
</g>
<!-- Node10&#45;&gt;Node12 -->
<g id="edge11_Node000010_Node000012" class="edge">
<title>Node10&#45;&gt;Node12</title>
<g id="a_edge11_Node000010_Node000012"><a xlink:title=" ">
<path fill="none" stroke="#63b8ff" d="M2117.62,-145.43C2199.79,-143.24 2342.12,-133.9 2374.5,-96 2386.34,-82.14 2381.33,-71.89 2374.5,-55 2369.81,-43.41 2360.5,-33.16 2351.74,-25.43"/>
<polygon fill="#63b8ff" stroke="#63b8ff" points="2353.94,-22.71 2343.99,-19.07 2349.5,-28.12 2353.94,-22.71"/>
</a>
</g>
</g>
<!-- Node13 -->
<g id="Node000013" class="node">
<title>Node13</title>
<g id="a_Node000013"><a xlink:title=" ">
<polygon fill="#e0e0e0" stroke="#999999" points="3368,-85 3299,-85 3299,-66 3368,-66 3368,-85"/>
<text text-anchor="middle" x="3333.5" y="-73" font-family="Helvetica,sans-Serif" font-size="10.00">arpa/inet.h</text>
</a>
</g>
</g>
<!-- Node10&#45;&gt;Node13 -->
<g id="edge12_Node000010_Node000013" class="edge">
<title>Node10&#45;&gt;Node13</title>
<g id="a_edge12_Node000010_Node000013"><a xlink:title=" ">
<path fill="none" stroke="#63b8ff" d="M2117.55,-144.93C2347.48,-140.6 3175.88,-123.22 3290.5,-96 3296.73,-94.52 3303.17,-92.13 3309.1,-89.51"/>
<polygon fill="#63b8ff" stroke="#63b8ff" points="3310.97,-92.5 3318.49,-85.04 3307.95,-86.18 3310.97,-92.5"/>
</a>
</g>
</g>
<!-- Node14 -->
<g id="Node000014" class="node">
<title>Node14</title>
<g id="a_Node000014"><a xlink:title=" ">
<polygon fill="#e0e0e0" stroke="#999999" points="1249,-19 1196,-19 1196,0 1249,0 1249,-19"/>
<text text-anchor="middle" x="1222.5" y="-7" font-family="Helvetica,sans-Serif" font-size="10.00">netdb.h</text>
</a>
</g>
</g>
<!-- Node10&#45;&gt;Node14 -->
<g id="edge13_Node000010_Node000014" class="edge">
<title>Node10&#45;&gt;Node14</title>
<g id="a_edge13_Node000010_Node000014"><a xlink:title=" ">
<path fill="none" stroke="#63b8ff" d="M1999.28,-143.99C1847.01,-138.49 1450.03,-121.82 1396.5,-96 1374.12,-85.21 1379.42,-68.4 1358.5,-55 1327.85,-35.37 1287.74,-23.63 1259.04,-17.18"/>
<polygon fill="#63b8ff" stroke="#63b8ff" points="1259.53,-13.71 1249.01,-15.04 1258.06,-20.55 1259.53,-13.71"/>
</a>
</g>
</g>
<!-- Node15 -->
<g id="Node000015" class="node">
<title>Node15</title>
<g id="a_Node000015"><a xlink:title=" ">
<polygon fill="#e0e0e0" stroke="#999999" points="1213.5,-85 1157.5,-85 1157.5,-66 1213.5,-66 1213.5,-85"/>
<text text-anchor="middle" x="1185.5" y="-73" font-family="Helvetica,sans-Serif" font-size="10.00">unistd.h</text>
</a>
</g>
</g>
<!-- Node10&#45;&gt;Node15 -->
<g id="edge14_Node000010_Node000015" class="edge">
<title>Node10&#45;&gt;Node15</title>
<g id="a_edge14_Node000010_Node000015"><a xlink:title=" ">
<path fill="none" stroke="#63b8ff" d="M1999.41,-145.7C1834,-144.34 1368.93,-136.9 1222.5,-96 1217.52,-94.61 1212.44,-92.48 1207.71,-90.13"/>
<polygon fill="#63b8ff" stroke="#63b8ff" points="1209.08,-86.89 1198.63,-85.18 1205.73,-93.04 1209.08,-86.89"/>
</a>
</g>
</g>
<!-- Node16 -->
<g id="Node000016" class="node">
<title>Node16</title>
<g id="a_Node000016"><a xlink:href="_types_8hpp.html" target="_top" xlink:title=" ">
<polygon fill="white" stroke="#666666" points="1349.5,-90.5 1231.5,-90.5 1231.5,-60.5 1349.5,-60.5 1349.5,-90.5"/>
<text text-anchor="start" x="1239.5" y="-78.5" font-family="Helvetica,sans-Serif" font-size="10.00">Hermes/_base/OsApi</text>
<text text-anchor="middle" x="1290.5" y="-67.5" font-family="Helvetica,sans-Serif" font-size="10.00">/Types.hpp</text>
</a>
</g>
</g>
<!-- Node10&#45;&gt;Node16 -->
<g id="edge15_Node000010_Node000016" class="edge">
<title>Node10&#45;&gt;Node16</title>
<g id="a_edge15_Node000010_Node000016"><a xlink:title=" ">
<path fill="none" stroke="#63b8ff" d="M1999.48,-145.51C1879.06,-143.68 1596.73,-135.18 1363.5,-96 1358.38,-95.14 1353.09,-94.08 1347.81,-92.9"/>
<polygon fill="#63b8ff" stroke="#63b8ff" points="1348.27,-89.41 1337.73,-90.51 1346.65,-96.22 1348.27,-89.41"/>
</a>
</g>
</g>
<!-- Node17 -->
<g id="Node000017" class="node">
<title>Node17</title>
<g id="a_Node000017"><a xlink:href="_conversion_and_literals_8hpp.html" target="_top" xlink:title=" ">
<polygon fill="white" stroke="#666666" points="2571.5,-90.5 2421.5,-90.5 2421.5,-60.5 2571.5,-60.5 2571.5,-90.5"/>
<text text-anchor="start" x="2429.5" y="-78.5" font-family="Helvetica,sans-Serif" font-size="10.00">Hermes/_base/OsApi</text>
<text text-anchor="middle" x="2496.5" y="-67.5" font-family="Helvetica,sans-Serif" font-size="10.00">/ConversionAndLiterals.hpp</text>
</a>
</g>
</g>
<!-- Node10&#45;&gt;Node17 -->
<g id="edge16_Node000010_Node000017" class="edge">
<title>Node10&#45;&gt;Node17</title>
<g id="a_edge16_Node000010_Node000017"><a xlink:title=" ">
<path fill="none" stroke="#63b8ff" d="M2117.68,-138.87C2187.28,-130.17 2306.16,-114.34 2407.5,-96 2413.28,-94.95 2419.26,-93.8 2425.26,-92.59"/>
<polygon fill="#63b8ff" stroke="#63b8ff" points="2426.25,-95.96 2435.34,-90.52 2424.84,-89.11 2426.25,-95.96"/>
</a>
</g>
</g>
<!-- Node19 -->
<g id="Node000019" class="node">
<title>Node19</title>
<g id="a_Node000019"><a xlink:href="_macros_8hpp.html" target="_top" xlink:title=" ">
<polygon fill="white" stroke="#666666" points="2707.5,-90.5 2589.5,-90.5 2589.5,-60.5 2707.5,-60.5 2707.5,-90.5"/>
<text text-anchor="start" x="2597.5" y="-78.5" font-family="Helvetica,sans-Serif" font-size="10.00">Hermes/_base/OsApi</text>
<text text-anchor="middle" x="2648.5" y="-67.5" font-family="Helvetica,sans-Serif" font-size="10.00">/Macros.hpp</text>
</a>
</g>
</g>
<!-- Node10&#45;&gt;Node19 -->
<g id="edge18_Node000010_Node000019" class="edge">
<title>Node10&#45;&gt;Node19</title>
<g id="a_edge18_Node000010_Node000019"><a xlink:title=" ">
<path fill="none" stroke="#63b8ff" d="M2117.71,-143.87C2215.03,-139.58 2414.58,-127.46 2580.5,-96 2584.89,-95.17 2589.42,-94.18 2593.94,-93.09"/>
<polygon fill="#63b8ff" stroke="#63b8ff" points="2594.96,-96.44 2603.79,-90.58 2593.24,-89.66 2594.96,-96.44"/>
</a>
</g>
</g>
<!-- Node21 -->
<g id="Node000021" class="node">
<title>Node21</title>
<g id="a_Node000021"><a xlink:href="_address_family_enum_8hpp.html" target="_top" xlink:title=" ">
<polygon fill="white" stroke="#666666" points="2901.5,-90.5 2725.5,-90.5 2725.5,-60.5 2901.5,-60.5 2901.5,-90.5"/>
<text text-anchor="start" x="2733.5" y="-78.5" font-family="Helvetica,sans-Serif" font-size="10.00">Hermes/_base/OsApi</text>
<text text-anchor="middle" x="2813.5" y="-67.5" font-family="Helvetica,sans-Serif" font-size="10.00">/Enums/AddressFamilyEnum.hpp</text>
</a>
</g>
</g>
<!-- Node10&#45;&gt;Node21 -->
<g id="edge21_Node000010_Node000021" class="edge">
<title>Node10&#45;&gt;Node21</title>
<g id="a_edge21_Node000010_Node000021"><a xlink:title=" ">
<path fill="none" stroke="#63b8ff" d="M2117.74,-143.93C2233.34,-139.36 2496.9,-126.3 2716.5,-96 2724.04,-94.96 2731.87,-93.7 2739.67,-92.32"/>
<polygon fill="#63b8ff" stroke="#63b8ff" points="2740.3,-95.76 2749.51,-90.52 2739.04,-88.87 2740.3,-95.76"/>
</a>
</g>
</g>
<!-- Node22 -->
<g id="Node000022" class="node">
<title>Node22</title>
<g id="a_Node000022"><a xlink:href="_protocol_base_type_enum_8hpp.html" target="_top" xlink:title=" ">
<polygon fill="white" stroke="#666666" points="2365,-90.5 2174,-90.5 2174,-60.5 2365,-60.5 2365,-90.5"/>
<text text-anchor="start" x="2182" y="-78.5" font-family="Helvetica,sans-Serif" font-size="10.00">Hermes/_base/OsApi</text>
<text text-anchor="middle" x="2269.5" y="-67.5" font-family="Helvetica,sans-Serif" font-size="10.00">/Enums/ProtocolBaseTypeEnum.hpp</text>
</a>
</g>
</g>
<!-- Node10&#45;&gt;Node22 -->
<g id="edge23_Node000010_Node000022" class="edge">
<title>Node10&#45;&gt;Node22</title>
<g id="a_edge23_Node000010_Node000022"><a xlink:title=" ">
<path fill="none" stroke="#63b8ff" d="M2101.2,-131.94C2134.66,-120.91 2181.37,-105.53 2217.1,-93.76"/>
<polygon fill="#63b8ff" stroke="#63b8ff" points="2218.46,-97 2226.86,-90.54 2216.27,-90.35 2218.46,-97"/>
</a>
</g>
</g>
<!-- Node23 -->
<g id="Node000023" class="node">
<title>Node23</title>
<g id="a_Node000023"><a xlink:href="_socket_shutdown_enum_8hpp.html" target="_top" xlink:title=" ">
<polygon fill="white" stroke="#666666" points="3281,-90.5 3096,-90.5 3096,-60.5 3281,-60.5 3281,-90.5"/>
<text text-anchor="start" x="3104" y="-78.5" font-family="Helvetica,sans-Serif" font-size="10.00">Hermes/_base/OsApi</text>
<text text-anchor="middle" x="3188.5" y="-67.5" font-family="Helvetica,sans-Serif" font-size="10.00">/Enums/SocketShutdownEnum.hpp</text>
</a>
</g>
</g>
<!-- Node10&#45;&gt;Node23 -->
<g id="edge25_Node000010_Node000023" class="edge">
<title>Node10&#45;&gt;Node23</title>
<g id="a_edge25_Node000010_Node000023"><a xlink:title=" ">
<path fill="none" stroke="#63b8ff" d="M2117.62,-146.06C2275.61,-145.59 2720.58,-140.11 3087.5,-96 3095.85,-95 3104.54,-93.7 3113.17,-92.26"/>
<polygon fill="#63b8ff" stroke="#63b8ff" points="3113.99,-95.67 3123.25,-90.5 3112.79,-88.77 3113.99,-95.67"/>
</a>
</g>
</g>
<!-- Node24 -->
<g id="Node000024" class="node">
<title>Node24</title>
<g id="a_Node000024"><a xlink:href="_socket_type_enum_8hpp.html" target="_top" xlink:title=" ">
<polygon fill="white" stroke="#666666" points="3078,-90.5 2919,-90.5 2919,-60.5 3078,-60.5 3078,-90.5"/>
<text text-anchor="start" x="2927" y="-78.5" font-family="Helvetica,sans-Serif" font-size="10.00">Hermes/_base/OsApi</text>
<text text-anchor="middle" x="2998.5" y="-67.5" font-family="Helvetica,sans-Serif" font-size="10.00">/Enums/SocketTypeEnum.hpp</text>
</a>
</g>
</g>
<!-- Node10&#45;&gt;Node24 -->
<g id="edge27_Node000010_Node000024" class="edge">
<title>Node10&#45;&gt;Node24</title>
<g id="a_edge27_Node000010_Node000024"><a xlink:title=" ">
<path fill="none" stroke="#63b8ff" d="M2117.7,-145.76C2256.74,-144.51 2614.79,-137.17 2910.5,-96 2917.27,-95.06 2924.29,-93.87 2931.28,-92.55"/>
<polygon fill="#63b8ff" stroke="#63b8ff" points="2932.34,-95.9 2941.46,-90.52 2930.97,-89.04 2932.34,-95.9"/>
</a>
</g>
</g>
<!-- Node25 -->
<g id="Node000025" class="node">
<title>Node25</title>
<g id="a_Node000025"><a xlink:href="_linux_2_encrypt_status_enum_8hpp.html" target="_top" xlink:title=" ">
<polygon fill="white" stroke="#666666" points="1557.5,-96 1405.5,-96 1405.5,-55 1557.5,-55 1557.5,-96"/>
<text text-anchor="start" x="1413.5" y="-84" font-family="Helvetica,sans-Serif" font-size="10.00">Hermes/_base/OsApi</text>
<text text-anchor="start" x="1413.5" y="-73" font-family="Helvetica,sans-Serif" font-size="10.00">/Enums/Linux/EncryptStatus</text>
<text text-anchor="middle" x="1481.5" y="-62" font-family="Helvetica,sans-Serif" font-size="10.00">Enum.hpp</text>
</a>
</g>
</g>
<!-- Node10&#45;&gt;Node25 -->
<g id="edge29_Node000010_Node000025" class="edge">
<title>Node10&#45;&gt;Node25</title>
<g id="a_edge29_Node000010_Node000025"><a xlink:title=" ">
<path fill="none" stroke="#63b8ff" d="M1999.49,-142.38C1908.73,-136.29 1729.29,-122.19 1567.97,-96.14"/>
<polygon fill="#63b8ff" stroke="#63b8ff" points="1568.3,-92.65 1557.87,-94.49 1567.17,-99.56 1568.3,-92.65"/>
</a>
</g>
</g>
<!-- Node26 -->
<g id="Node000026" class="node">
<title>Node26</title>
<g id="a_Node000026"><a xlink:href="_name_info_flags_8hpp.html" target="_top" xlink:title=" ">
<polygon fill="white" stroke="#666666" points="1139.5,-90.5 995.5,-90.5 995.5,-60.5 1139.5,-60.5 1139.5,-90.5"/>
<text text-anchor="start" x="1003.5" y="-78.5" font-family="Helvetica,sans-Serif" font-size="10.00">Hermes/_base/OsApi</text>
<text text-anchor="middle" x="1067.5" y="-67.5" font-family="Helvetica,sans-Serif" font-size="10.00">/Flags/NameInfoFlags.hpp</text>
</a>
</g>
</g>
<!-- Node10&#45;&gt;Node26 -->
<g id="edge30_Node000010_Node000026" class="edge">
<title>Node10&#45;&gt;Node26</title>
<g id="a_edge30_Node000010_Node000026"><a xlink:title=" ">
<path fill="none" stroke="#63b8ff" d="M1999.31,-146.45C1853.72,-146.75 1466.89,-142.68 1148.5,-96 1142.4,-95.11 1136.08,-93.97 1129.78,-92.69"/>
<polygon fill="#63b8ff" stroke="#63b8ff" points="1130.46,-89.26 1119.95,-90.59 1129,-96.1 1130.46,-89.26"/>
</a>
</g>
</g>
<!-- Node27 -->
<g id="Node000027" class="node">
<title>Node27</title>
<g id="a_Node000027"><a xlink:href="_linux_2_credential_flags_8hpp.html" target="_top" xlink:title=" ">
<polygon fill="white" stroke="#666666" points="1751.5,-90.5 1575.5,-90.5 1575.5,-60.5 1751.5,-60.5 1751.5,-90.5"/>
<text text-anchor="start" x="1583.5" y="-78.5" font-family="Helvetica,sans-Serif" font-size="10.00">Hermes/_base/OsApi</text>
<text text-anchor="middle" x="1663.5" y="-67.5" font-family="Helvetica,sans-Serif" font-size="10.00">/Flags/Linux/CredentialFlags.hpp</text>
</a>
</g>
</g>
<!-- Node10&#45;&gt;Node27 -->
<g id="edge32_Node000010_Node000027" class="edge">
<title>Node10&#45;&gt;Node27</title>
<g id="a_edge32_Node000010_Node000027"><a xlink:title=" ">
<path fill="none" stroke="#63b8ff" d="M1999.32,-136.64C1939.11,-126.99 1843.17,-111.24 1760.5,-96 1754.4,-94.88 1748.1,-93.68 1741.76,-92.46"/>
<polygon fill="#63b8ff" stroke="#63b8ff" points="1742.29,-89 1731.81,-90.52 1740.96,-95.87 1742.29,-89"/>
</a>
</g>
</g>
<!-- Node28 -->
<g id="Node000028" class="node">
<title>Node28</title>
<g id="a_Node000028"><a xlink:href="_linux_2_supported_protocols_flags_8hpp.html" target="_top" xlink:title=" ">
<polygon fill="white" stroke="#666666" points="1943,-96 1770,-96 1770,-55 1943,-55 1943,-96"/>
<text text-anchor="start" x="1778" y="-84" font-family="Helvetica,sans-Serif" font-size="10.00">Hermes/_base/OsApi</text>
<text text-anchor="start" x="1778" y="-73" font-family="Helvetica,sans-Serif" font-size="10.00">/Flags/Linux/SupportedProtocols</text>
<text text-anchor="middle" x="1856.5" y="-62" font-family="Helvetica,sans-Serif" font-size="10.00">Flags.hpp</text>
</a>
</g>
</g>
<!-- Node10&#45;&gt;Node28 -->
<g id="edge33_Node000010_Node000028" class="edge">
<title>Node10&#45;&gt;Node28</title>
<g id="a_edge33_Node000010_Node000028"><a xlink:title=" ">
<path fill="none" stroke="#63b8ff" d="M2017.62,-131.94C1990.46,-122.59 1954.17,-110.11 1922.91,-99.35"/>
<polygon fill="#63b8ff" stroke="#63b8ff" points="1923.98,-96.02 1913.39,-96.07 1921.71,-102.64 1923.98,-96.02"/>
</a>
</g>
</g>
<!-- Node29 -->
<g id="Node000029" class="node">
<title>Node29</title>
<g id="a_Node000029"><a xlink:href="_linux_2_s_channel_cred_flags_8hpp.html" target="_top" xlink:title=" ">
<polygon fill="white" stroke="#666666" points="2155.5,-90.5 1961.5,-90.5 1961.5,-60.5 2155.5,-60.5 2155.5,-90.5"/>
<text text-anchor="start" x="1969.5" y="-78.5" font-family="Helvetica,sans-Serif" font-size="10.00">Hermes/_base/OsApi</text>
<text text-anchor="middle" x="2058.5" y="-67.5" font-family="Helvetica,sans-Serif" font-size="10.00">/Flags/Linux/SChannelCredFlags.hpp</text>
</a>
</g>
</g>
<!-- Node10&#45;&gt;Node29 -->
<g id="edge34_Node000010_Node000029" class="edge">
<title>Node10&#45;&gt;Node29</title>
<g id="a_edge34_Node000010_Node000029"><a xlink:title=" ">
<path fill="none" stroke="#63b8ff" d="M2058.5,-131.94C2058.5,-122.99 2058.5,-111.16 2058.5,-100.73"/>
<polygon fill="#63b8ff" stroke="#63b8ff" points="2062,-100.54 2058.5,-90.54 2055,-100.54 2062,-100.54"/>
</a>
</g>
</g>
<!-- Node18 -->
<g id="Node000018" class="node">
<title>Node18</title>
<g id="a_Node000018"><a xlink:title=" ">
<polygon fill="#e0e0e0" stroke="#999999" points="2521.5,-19 2471.5,-19 2471.5,0 2521.5,0 2521.5,-19"/>
<text text-anchor="middle" x="2496.5" y="-7" font-family="Helvetica,sans-Serif" font-size="10.00">cstdint</text>
</a>
</g>
</g>
<!-- Node17&#45;&gt;Node18 -->
<g id="edge17_Node000017_Node000018" class="edge">
<title>Node17&#45;&gt;Node18</title>
<g id="a_edge17_Node000017_Node000018"><a xlink:title=" ">
<path fill="none" stroke="#63b8ff" d="M2496.5,-60.3C2496.5,-51.2 2496.5,-39.29 2496.5,-29.4"/>
<polygon fill="#63b8ff" stroke="#63b8ff" points="2500,-29.34 2496.5,-19.34 2493,-29.34 2500,-29.34"/>
</a>
</g>
</g>
<!-- Node19&#45;&gt;Node11 -->
<g id="edge20_Node000019_Node000011" class="edge">
<title>Node19&#45;&gt;Node11</title>
<g id="a_edge20_Node000019_Node000011"><a xlink:title=" ">
<path fill="none" stroke="#63b8ff" d="M2694.76,-60.41C2702,-58.45 2709.43,-56.57 2716.5,-55 2797.59,-37.05 2893.35,-23.53 2949.83,-16.33"/>
<polygon fill="#63b8ff" stroke="#63b8ff" points="2950.42,-19.79 2959.9,-15.06 2949.55,-12.84 2950.42,-19.79"/>
</a>
</g>
</g>
<!-- Node20 -->
<g id="Node000020" class="node">
<title>Node20</title>
<g id="a_Node000020"><a xlink:title=" ">
<polygon fill="#e0e0e0" stroke="#999999" points="2685,-19 2612,-19 2612,0 2685,0 2685,-19"/>
<text text-anchor="middle" x="2648.5" y="-7" font-family="Helvetica,sans-Serif" font-size="10.00">string_view</text>
</a>
</g>
</g>
<!-- Node19&#45;&gt;Node20 -->
<g id="edge19_Node000019_Node000020" class="edge">
<title>Node19&#45;&gt;Node20</title>
<g id="a_edge19_Node000019_Node000020"><a xlink:title=" ">
<path fill="none" stroke="#63b8ff" d="M2648.5,-60.3C2648.5,-51.2 2648.5,-39.29 2648.5,-29.4"/>
<polygon fill="#63b8ff" stroke="#63b8ff" points="2652,-29.34 2648.5,-19.34 2645,-29.34 2652,-29.34"/>
</a>
</g>
</g>
<!-- Node21&#45;&gt;Node11 -->
<g id="edge22_Node000021_Node000011" class="edge">
<title>Node21&#45;&gt;Node11</title>
<g id="a_edge22_Node000021_Node000011"><a xlink:title=" ">
<path fill="none" stroke="#63b8ff" d="M2854.1,-60.45C2887.11,-49.03 2933.17,-33.1 2964.32,-22.32"/>
<polygon fill="#63b8ff" stroke="#63b8ff" points="2965.57,-25.59 2973.88,-19.02 2963.28,-18.98 2965.57,-25.59"/>
</a>
</g>
</g>
<!-- Node22&#45;&gt;Node12 -->
<g id="edge24_Node000022_Node000012" class="edge">
<title>Node22&#45;&gt;Node12</title>
<g id="a_edge24_Node000022_Node000012"><a xlink:title=" ">
<path fill="none" stroke="#63b8ff" d="M2283.26,-60.3C2292.93,-50.32 2305.87,-36.96 2315.92,-26.59"/>
<polygon fill="#63b8ff" stroke="#63b8ff" points="2318.49,-28.96 2322.93,-19.34 2313.46,-24.09 2318.49,-28.96"/>
</a>
</g>
</g>
<!-- Node23&#45;&gt;Node11 -->
<g id="edge26_Node000023_Node000011" class="edge">
<title>Node23&#45;&gt;Node11</title>
<g id="a_edge26_Node000023_Node000011"><a xlink:title=" ">
<path fill="none" stroke="#63b8ff" d="M3146.8,-60.45C3112.9,-49.03 3065.59,-33.1 3033.6,-22.32"/>
<polygon fill="#63b8ff" stroke="#63b8ff" points="3034.38,-18.89 3023.79,-19.02 3032.15,-25.53 3034.38,-18.89"/>
</a>
</g>
</g>
<!-- Node24&#45;&gt;Node11 -->
<g id="edge28_Node000024_Node000011" class="edge">
<title>Node24&#45;&gt;Node11</title>
<g id="a_edge28_Node000024_Node000011"><a xlink:title=" ">
<path fill="none" stroke="#63b8ff" d="M2998.5,-60.3C2998.5,-51.2 2998.5,-39.29 2998.5,-29.4"/>
<polygon fill="#63b8ff" stroke="#63b8ff" points="3002,-29.34 2998.5,-19.34 2995,-29.34 3002,-29.34"/>
</a>
</g>
</g>
<!-- Node26&#45;&gt;Node14 -->
<g id="edge31_Node000026_Node000014" class="edge">
<title>Node26&#45;&gt;Node14</title>
<g id="a_edge31_Node000026_Node000014"><a xlink:title=" ">
<path fill="none" stroke="#63b8ff" d="M1101.52,-60.45C1128.7,-49.23 1166.43,-33.65 1192.5,-22.89"/>
<polygon fill="#63b8ff" stroke="#63b8ff" points="1193.96,-26.07 1201.87,-19.02 1191.29,-19.6 1193.96,-26.07"/>
</a>
</g>
</g>
<!-- Node30&#45;&gt;Node6 -->
<g id="edge43_Node000030_Node000006" class="edge">
<title>Node30&#45;&gt;Node6</title>
<g id="a_edge43_Node000030_Node000006"><a xlink:title=" ">
<path fill="none" stroke="#63b8ff" d="M307.68,-203.86C281.36,-196.96 254.59,-184.46 238.5,-162 212.82,-126.14 277.86,-98.94 320.29,-85.61"/>
<polygon fill="#63b8ff" stroke="#63b8ff" points="321.44,-88.92 330,-82.67 319.41,-82.22 321.44,-88.92"/>
</a>
</g>
</g>
<!-- Node30&#45;&gt;Node31 -->
<g id="edge36_Node000030_Node000031" class="edge">
<title>Node30&#45;&gt;Node31</title>
<g id="a_edge36_Node000030_Node000031"><a xlink:title=" ">
<path fill="none" stroke="#63b8ff" d="M315.06,-197.95C255.41,-186.06 171.24,-169.28 117.26,-158.52"/>
<polygon fill="#63b8ff" stroke="#63b8ff" points="117.71,-155.04 107.22,-156.52 116.34,-161.91 117.71,-155.04"/>
</a>
</g>
</g>
<!-- Node34 -->
<g id="Node000034" class="node">
<title>Node34</title>
<g id="a_Node000034"><a xlink:title=" ">
<polygon fill="#e0e0e0" stroke="#999999" points="531.5,-156.5 489.5,-156.5 489.5,-137.5 531.5,-137.5 531.5,-156.5"/>
<text text-anchor="middle" x="510.5" y="-144.5" font-family="Helvetica,sans-Serif" font-size="10.00">array</text>
</a>
</g>
</g>
<!-- Node30&#45;&gt;Node34 -->
<g id="edge39_Node000030_Node000034" class="edge">
<title>Node30&#45;&gt;Node34</title>
<g id="a_edge39_Node000030_Node000034"><a xlink:title=" ">
<path fill="none" stroke="#63b8ff" d="M412.93,-197.95C434.37,-186.98 463.95,-171.83 484.9,-161.11"/>
<polygon fill="#63b8ff" stroke="#63b8ff" points="486.56,-164.19 493.86,-156.52 483.37,-157.96 486.56,-164.19"/>
</a>
</g>
</g>
<!-- Node30&#45;&gt;Node35 -->
<g id="edge40_Node000030_Node000035" class="edge">
<title>Node30&#45;&gt;Node35</title>
<g id="a_edge40_Node000030_Node000035"><a xlink:title=" ">
<path fill="none" stroke="#63b8ff" d="M329.52,-197.99C293.77,-188.67 246.59,-175.66 205.5,-162 203.84,-161.45 202.14,-160.86 200.43,-160.26"/>
<polygon fill="#63b8ff" stroke="#63b8ff" points="201.29,-156.84 190.69,-156.65 198.85,-163.4 201.29,-156.84"/>
</a>
</g>
</g>
<!-- Node36 -->
<g id="Node000036" class="node">
<title>Node36</title>
<g id="a_Node000036"><a xlink:title=" ">
<polygon fill="#e0e0e0" stroke="#999999" points="601,-156.5 550,-156.5 550,-137.5 601,-137.5 601,-156.5"/>
<text text-anchor="middle" x="575.5" y="-144.5" font-family="Helvetica,sans-Serif" font-size="10.00">variant</text>
</a>
</g>
</g>
<!-- Node30&#45;&gt;Node36 -->
<g id="edge41_Node000030_Node000036" class="edge">
<title>Node30&#45;&gt;Node36</title>
<g id="a_edge41_Node000030_Node000036"><a xlink:title=" ">
<path fill="none" stroke="#63b8ff" d="M431.9,-197.94C462.84,-188.35 504.33,-175.05 540.5,-162 542.11,-161.42 543.75,-160.81 545.41,-160.19"/>
<polygon fill="#63b8ff" stroke="#63b8ff" points="546.8,-163.4 554.86,-156.53 544.27,-156.88 546.8,-163.4"/>
</a>
</g>
</g>
<!-- Node30&#45;&gt;Node37 -->
<g id="edge42_Node000030_Node000037" class="edge">
<title>Node30&#45;&gt;Node37</title>
<g id="a_edge42_Node000030_Node000037"><a xlink:title=" ">
<path fill="none" stroke="#63b8ff" d="M460.04,-197.96C503.92,-189.05 560.29,-176.49 609.5,-162 611.78,-161.33 614.11,-160.59 616.45,-159.82"/>
<polygon fill="#63b8ff" stroke="#63b8ff" points="617.68,-163.1 625.96,-156.5 615.37,-156.49 617.68,-163.1"/>
</a>
</g>
</g>
<!-- Node38 -->
<g id="Node000038" class="node">
<title>Node38</title>
<g id="a_Node000038"><a xlink:title=" ">
<polygon fill="#e0e0e0" stroke="#999999" points="297.5,-156.5 247.5,-156.5 247.5,-137.5 297.5,-137.5 297.5,-156.5"/>
<text text-anchor="middle" x="272.5" y="-144.5" font-family="Helvetica,sans-Serif" font-size="10.00">format</text>
</a>
</g>
</g>
<!-- Node30&#45;&gt;Node38 -->
<g id="edge44_Node000030_Node000038" class="edge">
<title>Node30&#45;&gt;Node38</title>
<g id="a_edge44_Node000030_Node000038"><a xlink:title=" ">
<path fill="none" stroke="#63b8ff" d="M360.7,-197.95C341.58,-187.13 315.3,-172.24 296.41,-161.54"/>
<polygon fill="#63b8ff" stroke="#63b8ff" points="297.96,-158.4 287.54,-156.52 294.51,-164.49 297.96,-158.4"/>
</a>
</g>
</g>
<!-- Node39 -->
<g id="Node000039" class="node">
<title>Node39</title>
<g id="a_Node000039"><a xlink:title=" ">
<polygon fill="#e0e0e0" stroke="#999999" points="471,-162 316,-162 316,-132 471,-132 471,-162"/>
<text text-anchor="start" x="324" y="-150" font-family="Helvetica,sans-Serif" font-size="10.00">Hermes/Endpoint/IpEndpoint</text>
<text text-anchor="middle" x="393.5" y="-139" font-family="Helvetica,sans-Serif" font-size="10.00">/IpAddress.tpp</text>
</a>
</g>
</g>
<!-- Node30&#45;&gt;Node39 -->
<g id="edge45_Node000030_Node000039" class="edge">
<title>Node30&#45;&gt;Node39</title>
<g id="a_edge45_Node000030_Node000039"><a xlink:title=" ">
<path fill="none" stroke="#63b8ff" d="M387.28,-197.8C388.22,-190.26 389.4,-180.78 390.48,-172.13"/>
<polygon fill="#63b8ff" stroke="#63b8ff" points="393.96,-172.52 391.73,-162.16 387.02,-171.65 393.96,-172.52"/>
</a>
</g>
</g>
<!-- Node32 -->
<g id="Node000032" class="node">
<title>Node32</title>
<g id="a_Node000032"><a xlink:title=" ">
<polygon fill="#e0e0e0" stroke="#999999" points="51,-85 6,-85 6,-66 51,-66 51,-85"/>
<text text-anchor="middle" x="28.5" y="-73" font-family="Helvetica,sans-Serif" font-size="10.00">utility</text>
</a>
</g>
</g>
<!-- Node31&#45;&gt;Node32 -->
<g id="edge37_Node000031_Node000032" class="edge">
<title>Node31&#45;&gt;Node32</title>
<g id="a_edge37_Node000031_Node000032"><a xlink:title=" ">
<path fill="none" stroke="#63b8ff" d="M60.09,-137.48C54.53,-126.74 44.83,-108.03 37.65,-94.16"/>
<polygon fill="#63b8ff" stroke="#63b8ff" points="40.66,-92.36 32.95,-85.09 34.44,-95.58 40.66,-92.36"/>
</a>
</g>
</g>
<!-- Node33 -->
<g id="Node000033" class="node">
<title>Node33</title>
<g id="a_Node000033"><a xlink:title=" ">
<polygon fill="#e0e0e0" stroke="#999999" points="134,-85 69,-85 69,-66 134,-66 134,-85"/>
<text text-anchor="middle" x="101.5" y="-73" font-family="Helvetica,sans-Serif" font-size="10.00">functional</text>
</a>
</g>
</g>
<!-- Node31&#45;&gt;Node33 -->
<g id="edge38_Node000031_Node000033" class="edge">
<title>Node31&#45;&gt;Node33</title>
<g id="a_edge38_Node000031_Node000033"><a xlink:title=" ">
<path fill="none" stroke="#63b8ff" d="M69.04,-137.48C74.75,-126.74 84.71,-108.03 92.1,-94.16"/>
<polygon fill="#63b8ff" stroke="#63b8ff" points="95.32,-95.56 96.93,-85.09 89.14,-92.27 95.32,-95.56"/>
</a>
</g>
</g>
<!-- Node42&#45;&gt;Node3 -->
<g id="edge52_Node000042_Node000003" class="edge">
<title>Node42&#45;&gt;Node3</title>
<g id="a_edge52_Node000042_Node000003"><a xlink:title=" ">
<path fill="none" stroke="#63b8ff" d="M878.82,-269.37C865.59,-260.36 844.39,-245.92 826.95,-234.05"/>
<polygon fill="#63b8ff" stroke="#63b8ff" points="828.47,-230.85 818.23,-228.12 824.53,-236.64 828.47,-230.85"/>
</a>
</g>
</g>
<!-- Node42&#45;&gt;Node4 -->
<g id="edge53_Node000042_Node000004" class="edge">
<title>Node42&#45;&gt;Node4</title>
<g id="a_edge53_Node000042_Node000004"><a xlink:title=" ">
<path fill="none" stroke="#63b8ff" d="M891.17,-269.41C890.23,-254.02 886.59,-221.18 872.5,-198 865.52,-186.53 855.03,-176.32 844.87,-168.17"/>
<polygon fill="#63b8ff" stroke="#63b8ff" points="846.95,-165.36 836.87,-162.09 842.71,-170.93 846.95,-165.36"/>
</a>
</g>
</g>
<!-- Node42&#45;&gt;Node8 -->
<g id="edge55_Node000042_Node000008" class="edge">
<title>Node42&#45;&gt;Node8</title>
<g id="a_edge55_Node000042_Node000008"><a xlink:title=" ">
<path fill="none" stroke="#63b8ff" d="M819.92,-271.24C786.81,-264.79 749.03,-252.26 722.5,-228 688.64,-197.03 714.15,-167.02 684.5,-132 668.34,-112.91 643.88,-98.6 624.24,-89.29"/>
<polygon fill="#63b8ff" stroke="#63b8ff" points="625.59,-86.06 615.04,-85.12 622.71,-92.44 625.59,-86.06"/>
</a>
</g>
</g>
<!-- Node42&#45;&gt;Node10 -->
<g id="edge54_Node000042_Node000010" class="edge">
<title>Node42&#45;&gt;Node10</title>
<g id="a_edge54_Node000042_Node000010"><a xlink:title=" ">
<path fill="none" stroke="#63b8ff" d="M937.68,-269.49C949.04,-267.54 961.19,-265.58 972.5,-264 1355.29,-210.53 1817.01,-168.67 1989.28,-153.83"/>
<polygon fill="#63b8ff" stroke="#63b8ff" points="1989.81,-157.29 1999.48,-152.95 1989.21,-150.32 1989.81,-157.29"/>
</a>
</g>
</g>
<!-- Node43 -->
<g id="Node000043" class="node">
<title>Node43</title>
<g id="a_Node000043"><a xlink:title=" ">
<polygon fill="#e0e0e0" stroke="#999999" points="979.5,-222.5 919.5,-222.5 919.5,-203.5 979.5,-203.5 979.5,-222.5"/>
<text text-anchor="middle" x="949.5" y="-210.5" font-family="Helvetica,sans-Serif" font-size="10.00">concepts</text>
</a>
</g>
</g>
<!-- Node42&#45;&gt;Node43 -->
<g id="edge56_Node000042_Node000043" class="edge">
<title>Node42&#45;&gt;Node43</title>
<g id="a_edge56_Node000042_Node000043"><a xlink:title=" ">
<path fill="none" stroke="#63b8ff" d="M899.32,-269.37C908.35,-259.4 923.41,-242.79 934.67,-230.36"/>
<polygon fill="#63b8ff" stroke="#63b8ff" points="937.31,-232.67 941.43,-222.91 932.12,-227.96 937.31,-232.67"/>
</a>
</g>
</g>
<!-- Node44 -->
<g id="Node000044" class="node">
<title>Node44</title>
<g id="a_Node000044"><a xlink:title=" ">
<polygon fill="#e0e0e0" stroke="#999999" points="1047.5,-222.5 997.5,-222.5 997.5,-203.5 1047.5,-203.5 1047.5,-222.5"/>
<text text-anchor="middle" x="1022.5" y="-210.5" font-family="Helvetica,sans-Serif" font-size="10.00">ranges</text>
</a>
</g>
</g>
<!-- Node42&#45;&gt;Node44 -->
<g id="edge57_Node000042_Node000044" class="edge">
<title>Node42&#45;&gt;Node44</title>
<g id="a_edge57_Node000042_Node000044"><a xlink:title=" ">
<path fill="none" stroke="#63b8ff" d="M909.17,-269.37C931.34,-258.54 969.58,-239.85 995.45,-227.22"/>
<polygon fill="#63b8ff" stroke="#63b8ff" points="997.25,-230.23 1004.69,-222.7 994.17,-223.94 997.25,-230.23"/>
</a>
</g>
</g>
</g>
</svg>
