<?xml version="1.0" encoding="UTF-8" standalone="no"?>
<!DOCTYPE svg PUBLIC "-//W3C//DTD SVG 1.1//EN"
 "http://www.w3.org/Graphics/SVG/1.1/DTD/svg11.dtd">
<!-- Generated by graphviz version 2.43.0 (0)
 -->
<!-- Title: include/Hermes/Socket/Sync/_base/Transfer/DefaultTransferPolicy.hpp Pages: 1 -->
<svg width="3202pt" height="456pt"
 viewBox="0.00 0.00 3202.00 456.00" xmlns="http://www.w3.org/2000/svg" xmlns:xlink="http://www.w3.org/1999/xlink">
<g id="graph0" class="graph" transform="scale(1 1) rotate(0) translate(4 452)">
<title>include/Hermes/Socket/Sync/_base/Transfer/DefaultTransferPolicy.hpp</title>
<!-- Node1 -->
<g id="Node000001" class="node">
<title>Node1</title>
<g id="a_Node000001"><a xlink:title=" ">
<polygon fill="#999999" stroke="#666666" points="2552,-448 2409,-448 2409,-407 2552,-407 2552,-448"/>
<text text-anchor="start" x="2417" y="-436" font-family="Helvetica,sans-Serif" font-size="10.00">include/Hermes/Socket</text>
<text text-anchor="start" x="2417" y="-425" font-family="Helvetica,sans-Serif" font-size="10.00">/Sync/_base/Transfer</text>
<text text-anchor="middle" x="2480.5" y="-414" font-family="Helvetica,sans-Serif" font-size="10.00">/DefaultTransferPolicy.hpp</text>
</a>
</g>
</g>
<!-- Node2 -->
<g id="Node000002" class="node">
<title>Node2</title>
<g id="a_Node000002"><a xlink:href="_default_socket_data_8hpp.html" target="_top" xlink:title=" ">
<polygon fill="white" stroke="#666666" points="2208.5,-365.5 2076.5,-365.5 2076.5,-335.5 2208.5,-335.5 2208.5,-365.5"/>
<text text-anchor="start" x="2084.5" y="-353.5" font-family="Helvetica,sans-Serif" font-size="10.00">Hermes/Socket/Data</text>
<text text-anchor="middle" x="2142.5" y="-342.5" font-family="Helvetica,sans-Serif" font-size="10.00">/DefaultSocketData.hpp</text>
</a>
</g>
</g>
<!-- Node1&#45;&gt;Node2 -->
<g id="edge1_Node000001_Node000002" class="edge">
<title>Node1&#45;&gt;Node2</title>
<g id="a_edge1_Node000001_Node000002"><a xlink:title=" ">
<path fill="none" stroke="#63b8ff" d="M2408.93,-411.65C2357.08,-400.76 2285.35,-385.42 2222.5,-371 2218.15,-370 2213.67,-368.96 2209.16,-367.89"/>
<polygon fill="#63b8ff" stroke="#63b8ff" points="2209.81,-364.45 2199.27,-365.54 2208.19,-371.26 2209.81,-364.45"/>
</a>
</g>
</g>
<!-- Node5 -->
<g id="Node000005" class="node">
<title>Node5</title>
<g id="a_Node000005"><a xlink:href="_connection_error_enum_8hpp.html" target="_top" xlink:title=" ">
<polygon fill="white" stroke="#666666" points="2654,-162 2487,-162 2487,-132 2654,-132 2654,-162"/>
<text text-anchor="start" x="2495" y="-150" font-family="Helvetica,sans-Serif" font-size="10.00">Hermes/_base/ConnectionError</text>
<text text-anchor="middle" x="2570.5" y="-139" font-family="Helvetica,sans-Serif" font-size="10.00">Enum.hpp</text>
</a>
</g>
</g>
<!-- Node1&#45;&gt;Node5 -->
<g id="edge61_Node000001_Node000005" class="edge">
<title>Node1&#45;&gt;Node5</title>
<g id="a_edge61_Node000001_Node000005"><a xlink:title=" ">
<path fill="none" stroke="#63b8ff" d="M2496.14,-406.7C2514.87,-381.88 2545.71,-337.32 2561.5,-294 2576.31,-253.38 2575.4,-202.21 2573.13,-172.5"/>
<polygon fill="#63b8ff" stroke="#63b8ff" points="2576.59,-171.88 2572.22,-162.22 2569.62,-172.49 2576.59,-171.88"/>
</a>
</g>
</g>
<!-- Node36 -->
<g id="Node000036" class="node">
<title>Node36</title>
<g id="a_Node000036"><a xlink:title=" ">
<polygon fill="#e0e0e0" stroke="#999999" points="1366.5,-156.5 1324.5,-156.5 1324.5,-137.5 1366.5,-137.5 1366.5,-156.5"/>
<text text-anchor="middle" x="1345.5" y="-144.5" font-family="Helvetica,sans-Serif" font-size="10.00">array</text>
</a>
</g>
</g>
<!-- Node1&#45;&gt;Node36 -->
<g id="edge63_Node000001_Node000036" class="edge">
<title>Node1&#45;&gt;Node36</title>
<g id="a_edge63_Node000001_Node000036"><a xlink:title=" ">
<path fill="none" stroke="#63b8ff" d="M2456.96,-406.95C2413.03,-371.67 2314.25,-297.9 2217.5,-264 1861.75,-139.35 1737.92,-265.66 1375.5,-162 1373.87,-161.53 1372.21,-160.99 1370.56,-160.39"/>
<polygon fill="#63b8ff" stroke="#63b8ff" points="1371.91,-157.16 1361.33,-156.52 1369.2,-163.61 1371.91,-157.16"/>
</a>
</g>
</g>
<!-- Node44 -->
<g id="Node000044" class="node">
<title>Node44</title>
<g id="a_Node000044"><a xlink:href="__base_8hpp.html" target="_top" xlink:title=" ">
<polygon fill="white" stroke="#666666" points="2552,-288.5 2409,-288.5 2409,-269.5 2552,-269.5 2552,-288.5"/>
<text text-anchor="middle" x="2480.5" y="-276.5" font-family="Helvetica,sans-Serif" font-size="10.00">Hermes/Socket/_base.hpp</text>
</a>
</g>
</g>
<!-- Node1&#45;&gt;Node44 -->
<g id="edge62_Node000001_Node000044" class="edge">
<title>Node1&#45;&gt;Node44</title>
<g id="a_edge62_Node000001_Node000044"><a xlink:title=" ">
<path fill="none" stroke="#63b8ff" d="M2480.5,-406.74C2480.5,-378.45 2480.5,-326.75 2480.5,-298.92"/>
<polygon fill="#63b8ff" stroke="#63b8ff" points="2484,-298.6 2480.5,-288.6 2477,-298.6 2484,-298.6"/>
</a>
</g>
</g>
<!-- Node48 -->
<g id="Node000048" class="node">
<title>Node48</title>
<g id="a_Node000048"><a xlink:title=" ">
<polygon fill="#e0e0e0" stroke="#999999" points="2878.5,-371 2710.5,-371 2710.5,-330 2878.5,-330 2878.5,-371"/>
<text text-anchor="start" x="2718.5" y="-359" font-family="Helvetica,sans-Serif" font-size="10.00">Hermes/Socket/Sync</text>
<text text-anchor="start" x="2718.5" y="-348" font-family="Helvetica,sans-Serif" font-size="10.00">/_base/Transfer/DefaultTransfer</text>
<text text-anchor="middle" x="2794.5" y="-337" font-family="Helvetica,sans-Serif" font-size="10.00">Policy.tpp</text>
</a>
</g>
</g>
<!-- Node1&#45;&gt;Node48 -->
<g id="edge64_Node000001_Node000048" class="edge">
<title>Node1&#45;&gt;Node48</title>
<g id="a_edge64_Node000001_Node000048"><a xlink:title=" ">
<path fill="none" stroke="#63b8ff" d="M2552.14,-409.39C2596.85,-398.71 2654.82,-384.86 2702.86,-373.39"/>
<polygon fill="#63b8ff" stroke="#63b8ff" points="2703.72,-376.78 2712.63,-371.05 2702.09,-369.97 2703.72,-376.78"/>
</a>
</g>
</g>
<!-- Node3 -->
<g id="Node000003" class="node">
<title>Node3</title>
<g id="a_Node000003"><a xlink:href="_ip_endpoint_8hpp.html" target="_top" xlink:title=" ">
<polygon fill="white" stroke="#666666" points="1284,-294 1129,-294 1129,-264 1284,-264 1284,-294"/>
<text text-anchor="start" x="1137" y="-282" font-family="Helvetica,sans-Serif" font-size="10.00">Hermes/Endpoint/IpEndpoint</text>
<text text-anchor="middle" x="1206.5" y="-271" font-family="Helvetica,sans-Serif" font-size="10.00">/IpEndpoint.hpp</text>
</a>
</g>
</g>
<!-- Node2&#45;&gt;Node3 -->
<g id="edge2_Node000002_Node000003" class="edge">
<title>Node2&#45;&gt;Node3</title>
<g id="a_edge2_Node000002_Node000003"><a xlink:title=" ">
<path fill="none" stroke="#63b8ff" d="M2076.31,-344.59C1911.03,-332.31 1480.19,-300.32 1294.15,-286.51"/>
<polygon fill="#63b8ff" stroke="#63b8ff" points="1294.36,-283.01 1284.13,-285.76 1293.84,-290 1294.36,-283.01"/>
</a>
</g>
</g>
<!-- Node43 -->
<g id="Node000043" class="node">
<title>Node43</title>
<g id="a_Node000043"><a xlink:title=" ">
<polygon fill="#e0e0e0" stroke="#999999" points="2060.5,-288.5 2010.5,-288.5 2010.5,-269.5 2060.5,-269.5 2060.5,-288.5"/>
<text text-anchor="middle" x="2035.5" y="-276.5" font-family="Helvetica,sans-Serif" font-size="10.00">chrono</text>
</a>
</g>
</g>
<!-- Node2&#45;&gt;Node43 -->
<g id="edge53_Node000002_Node000043" class="edge">
<title>Node2&#45;&gt;Node43</title>
<g id="a_edge53_Node000002_Node000043"><a xlink:title=" ">
<path fill="none" stroke="#63b8ff" d="M2120.85,-335.44C2102.27,-323.37 2075.64,-306.07 2057.08,-294.02"/>
<polygon fill="#63b8ff" stroke="#63b8ff" points="2058.98,-291.08 2048.69,-288.57 2055.17,-296.95 2058.98,-291.08"/>
</a>
</g>
</g>
<!-- Node2&#45;&gt;Node44 -->
<g id="edge54_Node000002_Node000044" class="edge">
<title>Node2&#45;&gt;Node44</title>
<g id="a_edge54_Node000002_Node000044"><a xlink:title=" ">
<path fill="none" stroke="#63b8ff" d="M2208.87,-335.85C2273.39,-322.59 2370.03,-302.72 2428.96,-290.6"/>
<polygon fill="#63b8ff" stroke="#63b8ff" points="2429.7,-294.02 2438.79,-288.58 2428.29,-287.16 2429.7,-294.02"/>
</a>
</g>
</g>
<!-- Node47 -->
<g id="Node000047" class="node">
<title>Node47</title>
<g id="a_Node000047"><a xlink:title=" ">
<polygon fill="#e0e0e0" stroke="#999999" points="2208.5,-294 2078.5,-294 2078.5,-264 2208.5,-264 2208.5,-294"/>
<text text-anchor="start" x="2086.5" y="-282" font-family="Helvetica,sans-Serif" font-size="10.00">Hermes/Socket/Data</text>
<text text-anchor="middle" x="2143.5" y="-271" font-family="Helvetica,sans-Serif" font-size="10.00">/DefaultSocketData.tpp</text>
</a>
</g>
</g>
<!-- Node2&#45;&gt;Node47 -->
<g id="edge60_Node000002_Node000047" class="edge">
<title>Node2&#45;&gt;Node47</title>
<g id="a_edge60_Node000002_Node000047"><a xlink:title=" ">
<path fill="none" stroke="#63b8ff" d="M2142.7,-335.44C2142.83,-326.49 2143,-314.66 2143.15,-304.23"/>
<polygon fill="#63b8ff" stroke="#63b8ff" points="2146.65,-304.09 2143.3,-294.04 2139.65,-303.99 2146.65,-304.09"/>
</a>
</g>
</g>
<!-- Node4 -->
<g id="Node000004" class="node">
<title>Node4</title>
<g id="a_Node000004"><a xlink:href="_endpoint_concept_8hpp.html" target="_top" xlink:title=" ">
<polygon fill="white" stroke="#666666" points="2396.5,-228 2264.5,-228 2264.5,-198 2396.5,-198 2396.5,-228"/>
<text text-anchor="start" x="2272.5" y="-216" font-family="Helvetica,sans-Serif" font-size="10.00">Hermes/Endpoint/_base</text>
<text text-anchor="middle" x="2330.5" y="-205" font-family="Helvetica,sans-Serif" font-size="10.00">/EndpointConcept.hpp</text>
</a>
</g>
</g>
<!-- Node3&#45;&gt;Node4 -->
<g id="edge3_Node000003_Node000004" class="edge">
<title>Node3&#45;&gt;Node4</title>
<g id="a_edge3_Node000003_Node000004"><a xlink:title=" ">
<path fill="none" stroke="#63b8ff" d="M1284.2,-273.58C1490.42,-261.83 2049.73,-229.99 2254.26,-218.34"/>
<polygon fill="#63b8ff" stroke="#63b8ff" points="2254.53,-221.83 2264.32,-217.77 2254.13,-214.84 2254.53,-221.83"/>
</a>
</g>
</g>
<!-- Node32 -->
<g id="Node000032" class="node">
<title>Node32</title>
<g id="a_Node000032"><a xlink:href="_ip_address_8hpp.html" target="_top" xlink:title=" ">
<polygon fill="white" stroke="#666666" points="1111,-228 956,-228 956,-198 1111,-198 1111,-228"/>
<text text-anchor="start" x="964" y="-216" font-family="Helvetica,sans-Serif" font-size="10.00">Hermes/Endpoint/IpEndpoint</text>
<text text-anchor="middle" x="1033.5" y="-205" font-family="Helvetica,sans-Serif" font-size="10.00">/IpAddress.hpp</text>
</a>
</g>
</g>
<!-- Node3&#45;&gt;Node32 -->
<g id="edge38_Node000003_Node000032" class="edge">
<title>Node3&#45;&gt;Node32</title>
<g id="a_edge38_Node000003_Node000032"><a xlink:title=" ">
<path fill="none" stroke="#63b8ff" d="M1168.53,-263.95C1142.73,-254.41 1108.41,-241.71 1080.83,-231.51"/>
<polygon fill="#63b8ff" stroke="#63b8ff" points="1081.97,-228.2 1071.38,-228.01 1079.54,-234.76 1081.97,-228.2"/>
</a>
</g>
</g>
<!-- Node33 -->
<g id="Node000033" class="node">
<title>Node33</title>
<g id="a_Node000033"><a xlink:href="_hash_8hpp.html" target="_top" xlink:title=" ">
<polygon fill="white" stroke="#666666" points="921,-156.5 792,-156.5 792,-137.5 921,-137.5 921,-156.5"/>
<text text-anchor="middle" x="856.5" y="-144.5" font-family="Helvetica,sans-Serif" font-size="10.00">Hermes/Utils/Hash.hpp</text>
</a>
</g>
</g>
<!-- Node3&#45;&gt;Node33 -->
<g id="edge49_Node000003_Node000033" class="edge">
<title>Node3&#45;&gt;Node33</title>
<g id="a_edge49_Node000003_Node000033"><a xlink:title=" ">
<path fill="none" stroke="#63b8ff" d="M1128.83,-273.9C1075.27,-268.54 1003.7,-256.22 946.5,-228 914.96,-212.44 886.01,-182.78 869.86,-164.27"/>
<polygon fill="#63b8ff" stroke="#63b8ff" points="872.52,-162 863.38,-156.65 867.19,-166.53 872.52,-162"/>
</a>
</g>
</g>
<!-- Node37 -->
<g id="Node000037" class="node">
<title>Node37</title>
<g id="a_Node000037"><a xlink:title=" ">
<polygon fill="#e0e0e0" stroke="#999999" points="773.5,-156.5 729.5,-156.5 729.5,-137.5 773.5,-137.5 773.5,-156.5"/>
<text text-anchor="middle" x="751.5" y="-144.5" font-family="Helvetica,sans-Serif" font-size="10.00">string</text>
</a>
</g>
</g>
<!-- Node3&#45;&gt;Node37 -->
<g id="edge51_Node000003_Node000037" class="edge">
<title>Node3&#45;&gt;Node37</title>
<g id="a_edge51_Node000003_Node000037"><a xlink:title=" ">
<path fill="none" stroke="#63b8ff" d="M1128.75,-272.55C1065.63,-266.42 975.02,-253.74 899.5,-228 851.31,-211.58 800.14,-180.43 772.38,-162.23"/>
<polygon fill="#63b8ff" stroke="#63b8ff" points="774.17,-159.21 763.9,-156.59 770.29,-165.04 774.17,-159.21"/>
</a>
</g>
</g>
<!-- Node39 -->
<g id="Node000039" class="node">
<title>Node39</title>
<g id="a_Node000039"><a xlink:title=" ">
<polygon fill="#e0e0e0" stroke="#999999" points="1306.5,-156.5 1250.5,-156.5 1250.5,-137.5 1306.5,-137.5 1306.5,-156.5"/>
<text text-anchor="middle" x="1278.5" y="-144.5" font-family="Helvetica,sans-Serif" font-size="10.00">optional</text>
</a>
</g>
</g>
<!-- Node3&#45;&gt;Node39 -->
<g id="edge50_Node000003_Node000039" class="edge">
<title>Node3&#45;&gt;Node39</title>
<g id="a_edge50_Node000003_Node000039"><a xlink:title=" ">
<path fill="none" stroke="#63b8ff" d="M1249.27,-263.83C1265.82,-256.01 1283.03,-244.47 1292.5,-228 1303.56,-208.77 1295.74,-182.96 1288.06,-165.92"/>
<polygon fill="#63b8ff" stroke="#63b8ff" points="1291.03,-164.01 1283.48,-156.58 1284.74,-167.1 1291.03,-164.01"/>
</a>
</g>
</g>
<!-- Node42 -->
<g id="Node000042" class="node">
<title>Node42</title>
<g id="a_Node000042"><a xlink:title=" ">
<polygon fill="#e0e0e0" stroke="#999999" points="1284,-228 1129,-228 1129,-198 1284,-198 1284,-228"/>
<text text-anchor="start" x="1137" y="-216" font-family="Helvetica,sans-Serif" font-size="10.00">Hermes/Endpoint/IpEndpoint</text>
<text text-anchor="middle" x="1206.5" y="-205" font-family="Helvetica,sans-Serif" font-size="10.00">/IpEndpoint.tpp</text>
</a>
</g>
</g>
<!-- Node3&#45;&gt;Node42 -->
<g id="edge52_Node000003_Node000042" class="edge">
<title>Node3&#45;&gt;Node42</title>
<g id="a_edge52_Node000003_Node000042"><a xlink:title=" ">
<path fill="none" stroke="#63b8ff" d="M1206.5,-263.8C1206.5,-256.34 1206.5,-246.99 1206.5,-238.41"/>
<polygon fill="#63b8ff" stroke="#63b8ff" points="1210,-238.16 1206.5,-228.16 1203,-238.16 1210,-238.16"/>
</a>
</g>
</g>
<!-- Node4&#45;&gt;Node5 -->
<g id="edge4_Node000004_Node000005" class="edge">
<title>Node4&#45;&gt;Node5</title>
<g id="a_edge4_Node000004_Node000005"><a xlink:title=" ">
<path fill="none" stroke="#63b8ff" d="M2383.17,-197.95C2419.9,-188.16 2469.08,-175.05 2507.83,-164.71"/>
<polygon fill="#63b8ff" stroke="#63b8ff" points="2509.19,-167.97 2517.95,-162.01 2507.39,-161.21 2509.19,-167.97"/>
</a>
</g>
</g>
<!-- Node13 -->
<g id="Node000013" class="node">
<title>Node13</title>
<g id="a_Node000013"><a xlink:href="_os_api_8hpp.html" target="_top" xlink:title=" ">
<polygon fill="white" stroke="#666666" points="1502.5,-162 1384.5,-162 1384.5,-132 1502.5,-132 1502.5,-162"/>
<text text-anchor="start" x="1392.5" y="-150" font-family="Helvetica,sans-Serif" font-size="10.00">Hermes/_base/OsApi</text>
<text text-anchor="middle" x="1443.5" y="-139" font-family="Helvetica,sans-Serif" font-size="10.00">/OsApi.hpp</text>
</a>
</g>
</g>
<!-- Node4&#45;&gt;Node13 -->
<g id="edge12_Node000004_Node000013" class="edge">
<title>Node4&#45;&gt;Node13</title>
<g id="a_edge12_Node000004_Node000013"><a xlink:title=" ">
<path fill="none" stroke="#63b8ff" d="M2264.23,-199.82C2259.59,-199.14 2254.98,-198.53 2250.5,-198 1978.67,-165.89 1652.73,-153.69 1512.83,-149.7"/>
<polygon fill="#63b8ff" stroke="#63b8ff" points="1512.77,-146.19 1502.68,-149.41 1512.58,-153.19 1512.77,-146.19"/>
</a>
</g>
</g>
<!-- Node6 -->
<g id="Node000006" class="node">
<title>Node6</title>
<g id="a_Node000006"><a xlink:title=" ">
<polygon fill="#e0e0e0" stroke="#999999" points="2567.5,-85 2505.5,-85 2505.5,-66 2567.5,-66 2567.5,-85"/>
<text text-anchor="middle" x="2536.5" y="-73" font-family="Helvetica,sans-Serif" font-size="10.00">expected</text>
</a>
</g>
</g>
<!-- Node5&#45;&gt;Node6 -->
<g id="edge5_Node000005_Node000006" class="edge">
<title>Node5&#45;&gt;Node6</title>
<g id="a_edge5_Node000005_Node000006"><a xlink:title=" ">
<path fill="none" stroke="#63b8ff" d="M2563.62,-131.94C2558.34,-121.14 2551,-106.15 2545.3,-94.48"/>
<polygon fill="#63b8ff" stroke="#63b8ff" points="2548.33,-92.71 2540.79,-85.27 2542.04,-95.79 2548.33,-92.71"/>
</a>
</g>
</g>
<!-- Node7 -->
<g id="Node000007" class="node">
<title>Node7</title>
<g id="a_Node000007"><a xlink:title=" ">
<polygon fill="#e0e0e0" stroke="#999999" points="2487,-85 2440,-85 2440,-66 2487,-66 2487,-85"/>
<text text-anchor="middle" x="2463.5" y="-73" font-family="Helvetica,sans-Serif" font-size="10.00">vector</text>
</a>
</g>
</g>
<!-- Node5&#45;&gt;Node7 -->
<g id="edge6_Node000005_Node000007" class="edge">
<title>Node5&#45;&gt;Node7</title>
<g id="a_edge6_Node000005_Node000007"><a xlink:title=" ">
<path fill="none" stroke="#63b8ff" d="M2548.85,-131.94C2530.27,-119.87 2503.64,-102.57 2485.08,-90.52"/>
<polygon fill="#63b8ff" stroke="#63b8ff" points="2486.98,-87.58 2476.69,-85.07 2483.17,-93.45 2486.98,-87.58"/>
</a>
</g>
</g>
<!-- Node8 -->
<g id="Node000008" class="node">
<title>Node8</title>
<g id="a_Node000008"><a xlink:title=" ">
<polygon fill="#e0e0e0" stroke="#999999" points="2625.5,-85 2585.5,-85 2585.5,-66 2625.5,-66 2625.5,-85"/>
<text text-anchor="middle" x="2605.5" y="-73" font-family="Helvetica,sans-Serif" font-size="10.00">span</text>
</a>
</g>
</g>
<!-- Node5&#45;&gt;Node8 -->
<g id="edge7_Node000005_Node000008" class="edge">
<title>Node5&#45;&gt;Node8</title>
<g id="a_edge7_Node000005_Node000008"><a xlink:title=" ">
<path fill="none" stroke="#63b8ff" d="M2577.58,-131.94C2583.02,-121.14 2590.57,-106.15 2596.45,-94.48"/>
<polygon fill="#63b8ff" stroke="#63b8ff" points="2599.71,-95.77 2601.08,-85.27 2593.46,-92.62 2599.71,-95.77"/>
</a>
</g>
</g>
<!-- Node9 -->
<g id="Node000009" class="node">
<title>Node9</title>
<g id="a_Node000009"><a xlink:title=" ">
<polygon fill="#e0e0e0" stroke="#999999" points="2713,-85 2644,-85 2644,-66 2713,-66 2713,-85"/>
<text text-anchor="middle" x="2678.5" y="-73" font-family="Helvetica,sans-Serif" font-size="10.00">type_traits</text>
</a>
</g>
</g>
<!-- Node5&#45;&gt;Node9 -->
<g id="edge8_Node000005_Node000009" class="edge">
<title>Node5&#45;&gt;Node9</title>
<g id="a_edge8_Node000005_Node000009"><a xlink:title=" ">
<path fill="none" stroke="#63b8ff" d="M2592.36,-131.94C2611.11,-119.87 2637.99,-102.57 2656.72,-90.52"/>
<polygon fill="#63b8ff" stroke="#63b8ff" points="2658.67,-93.42 2665.19,-85.07 2654.88,-87.54 2658.67,-93.42"/>
</a>
</g>
</g>
<!-- Node10 -->
<g id="Node000010" class="node">
<title>Node10</title>
<g id="a_Node000010"><a xlink:title=" ">
<polygon fill="#e0e0e0" stroke="#999999" points="3194,-85 3069,-85 3069,-66 3194,-66 3194,-85"/>
<text text-anchor="middle" x="3131.5" y="-73" font-family="Helvetica,sans-Serif" font-size="10.00">stdexec/execution.hpp</text>
</a>
</g>
</g>
<!-- Node5&#45;&gt;Node10 -->
<g id="edge9_Node000005_Node000010" class="edge">
<title>Node5&#45;&gt;Node10</title>
<g id="a_edge9_Node000005_Node000010"><a xlink:title=" ">
<path fill="none" stroke="#63b8ff" d="M2654.06,-133.66C2658.61,-133.08 2663.11,-132.52 2667.5,-132 2841.69,-111.47 2887.93,-127.35 3060.5,-96 3071.86,-93.94 3084.05,-90.9 3095.06,-87.84"/>
<polygon fill="#63b8ff" stroke="#63b8ff" points="3096.14,-91.17 3104.79,-85.04 3094.21,-84.44 3096.14,-91.17"/>
</a>
</g>
</g>
<!-- Node11 -->
<g id="Node000011" class="node">
<title>Node11</title>
<g id="a_Node000011"><a xlink:title=" ">
<polygon fill="#e0e0e0" stroke="#999999" points="2865.5,-85 2731.5,-85 2731.5,-66 2865.5,-66 2865.5,-85"/>
<text text-anchor="middle" x="2798.5" y="-73" font-family="Helvetica,sans-Serif" font-size="10.00">exec/any_sender_of.hpp</text>
</a>
</g>
</g>
<!-- Node5&#45;&gt;Node11 -->
<g id="edge10_Node000005_Node000011" class="edge">
<title>Node5&#45;&gt;Node11</title>
<g id="a_edge10_Node000005_Node000011"><a xlink:title=" ">
<path fill="none" stroke="#63b8ff" d="M2616.64,-131.94C2659.01,-119.02 2721.06,-100.11 2760.6,-88.05"/>
<polygon fill="#63b8ff" stroke="#63b8ff" points="2761.85,-91.33 2770.39,-85.07 2759.81,-84.64 2761.85,-91.33"/>
</a>
</g>
</g>
<!-- Node12 -->
<g id="Node000012" class="node">
<title>Node12</title>
<g id="a_Node000012"><a xlink:title=" ">
<polygon fill="#e0e0e0" stroke="#999999" points="3051,-90.5 2884,-90.5 2884,-60.5 3051,-60.5 3051,-90.5"/>
<text text-anchor="start" x="2892" y="-78.5" font-family="Helvetica,sans-Serif" font-size="10.00">Hermes/_base/ConnectionError</text>
<text text-anchor="middle" x="2967.5" y="-67.5" font-family="Helvetica,sans-Serif" font-size="10.00">Enum.tpp</text>
</a>
</g>
</g>
<!-- Node5&#45;&gt;Node12 -->
<g id="edge11_Node000005_Node000012" class="edge">
<title>Node5&#45;&gt;Node12</title>
<g id="a_edge11_Node000005_Node000012"><a xlink:title=" ">
<path fill="none" stroke="#63b8ff" d="M2654.22,-133.24C2715.38,-123.67 2800.24,-109.89 2874.5,-96 2880.27,-94.92 2886.22,-93.77 2892.21,-92.58"/>
<polygon fill="#63b8ff" stroke="#63b8ff" points="2893.17,-95.96 2902.28,-90.55 2891.79,-89.09 2893.17,-95.96"/>
</a>
</g>
</g>
<!-- Node14 -->
<g id="Node000014" class="node">
<title>Node14</title>
<g id="a_Node000014"><a xlink:title=" ">
<polygon fill="#e0e0e0" stroke="#999999" points="1126,-19 1049,-19 1049,0 1126,0 1126,-19"/>
<text text-anchor="middle" x="1087.5" y="-7" font-family="Helvetica,sans-Serif" font-size="10.00">sys/socket.h</text>
</a>
</g>
</g>
<!-- Node13&#45;&gt;Node14 -->
<g id="edge13_Node000013_Node000014" class="edge">
<title>Node13&#45;&gt;Node14</title>
<g id="a_edge13_Node000013_Node000014"><a xlink:title=" ">
<path fill="none" stroke="#63b8ff" d="M1502.54,-146.24C1662.58,-146.29 2095.59,-142.1 2138.5,-96 2150.91,-82.66 2151.11,-68.15 2138.5,-55 2103.43,-18.41 1338.72,-11.82 1136.3,-10.71"/>
<polygon fill="#63b8ff" stroke="#63b8ff" points="1136.27,-7.21 1126.25,-10.66 1136.24,-14.21 1136.27,-7.21"/>
</a>
</g>
</g>
<!-- Node15 -->
<g id="Node000015" class="node">
<title>Node15</title>
<g id="a_Node000015"><a xlink:title=" ">
<polygon fill="#e0e0e0" stroke="#999999" points="674.5,-19 602.5,-19 602.5,0 674.5,0 674.5,-19"/>
<text text-anchor="middle" x="638.5" y="-7" font-family="Helvetica,sans-Serif" font-size="10.00">netinet/in.h</text>
</a>
</g>
</g>
<!-- Node13&#45;&gt;Node15 -->
<g id="edge14_Node000013_Node000015" class="edge">
<title>Node13&#45;&gt;Node15</title>
<g id="a_edge14_Node000013_Node000015"><a xlink:title=" ">
<path fill="none" stroke="#63b8ff" d="M1384.25,-133.25C1381.3,-132.79 1378.37,-132.37 1375.5,-132 1296.48,-121.94 720.93,-146.71 659.5,-96 640.1,-79.98 636.96,-49.21 637.2,-29.29"/>
<polygon fill="#63b8ff" stroke="#63b8ff" points="640.7,-29.38 637.61,-19.25 633.7,-29.09 640.7,-29.38"/>
</a>
</g>
</g>
<!-- Node16 -->
<g id="Node000016" class="node">
<title>Node16</title>
<g id="a_Node000016"><a xlink:title=" ">
<polygon fill="#e0e0e0" stroke="#999999" points="2422,-85 2353,-85 2353,-66 2422,-66 2422,-85"/>
<text text-anchor="middle" x="2387.5" y="-73" font-family="Helvetica,sans-Serif" font-size="10.00">arpa/inet.h</text>
</a>
</g>
</g>
<!-- Node13&#45;&gt;Node16 -->
<g id="edge15_Node000013_Node000016" class="edge">
<title>Node13&#45;&gt;Node16</title>
<g id="a_edge15_Node000013_Node000016"><a xlink:title=" ">
<path fill="none" stroke="#63b8ff" d="M1502.66,-145.56C1676.59,-143.8 2184.07,-135.36 2344.5,-96 2350.62,-94.5 2356.94,-92.14 2362.79,-89.58"/>
<polygon fill="#63b8ff" stroke="#63b8ff" points="2364.54,-92.62 2372.08,-85.18 2361.54,-86.3 2364.54,-92.62"/>
</a>
</g>
</g>
<!-- Node17 -->
<g id="Node000017" class="node">
<title>Node17</title>
<g id="a_Node000017"><a xlink:title=" ">
<polygon fill="#e0e0e0" stroke="#999999" points="332,-19 279,-19 279,0 332,0 332,-19"/>
<text text-anchor="middle" x="305.5" y="-7" font-family="Helvetica,sans-Serif" font-size="10.00">netdb.h</text>
</a>
</g>
</g>
<!-- Node13&#45;&gt;Node17 -->
<g id="edge16_Node000013_Node000017" class="edge">
<title>Node13&#45;&gt;Node17</title>
<g id="a_edge16_Node000013_Node000017"><a xlink:title=" ">
<path fill="none" stroke="#63b8ff" d="M1384.26,-133.2C1381.3,-132.75 1378.37,-132.35 1375.5,-132 1269.09,-119.15 508.91,-140.72 411.5,-96 388.92,-85.64 392.48,-71.03 373.5,-55 359.84,-43.46 343.04,-32.44 329.55,-24.25"/>
<polygon fill="#63b8ff" stroke="#63b8ff" points="331.21,-21.17 320.82,-19.06 327.63,-27.18 331.21,-21.17"/>
</a>
</g>
</g>
<!-- Node18 -->
<g id="Node000018" class="node">
<title>Node18</title>
<g id="a_Node000018"><a xlink:title=" ">
<polygon fill="#e0e0e0" stroke="#999999" points="364.5,-85 308.5,-85 308.5,-66 364.5,-66 364.5,-85"/>
<text text-anchor="middle" x="336.5" y="-73" font-family="Helvetica,sans-Serif" font-size="10.00">unistd.h</text>
</a>
</g>
</g>
<!-- Node13&#45;&gt;Node18 -->
<g id="edge17_Node000013_Node000018" class="edge">
<title>Node13&#45;&gt;Node18</title>
<g id="a_edge17_Node000013_Node000018"><a xlink:title=" ">
<path fill="none" stroke="#63b8ff" d="M1384.26,-133.2C1381.3,-132.75 1378.37,-132.35 1375.5,-132 1155.38,-105.55 594.09,-147.7 378.5,-96 372.39,-94.53 366.1,-92.15 360.3,-89.54"/>
<polygon fill="#63b8ff" stroke="#63b8ff" points="361.66,-86.3 351.14,-85.05 358.58,-92.59 361.66,-86.3"/>
</a>
</g>
</g>
<!-- Node19 -->
<g id="Node000019" class="node">
<title>Node19</title>
<g id="a_Node000019"><a xlink:href="_conversion_and_literals_8hpp.html" target="_top" xlink:title=" ">
<polygon fill="white" stroke="#666666" points="2335.5,-90.5 2185.5,-90.5 2185.5,-60.5 2335.5,-60.5 2335.5,-90.5"/>
<text text-anchor="start" x="2193.5" y="-78.5" font-family="Helvetica,sans-Serif" font-size="10.00">Hermes/_base/OsApi</text>
<text text-anchor="middle" x="2260.5" y="-67.5" font-family="Helvetica,sans-Serif" font-size="10.00">/ConversionAndLiterals.hpp</text>
</a>
</g>
</g>
<!-- Node13&#45;&gt;Node19 -->
<g id="edge18_Node000013_Node000019" class="edge">
<title>Node13&#45;&gt;Node19</title>
<g id="a_edge18_Node000013_Node000019"><a xlink:title=" ">
<path fill="none" stroke="#63b8ff" d="M1502.79,-144.88C1627.27,-141.88 1924.76,-131.31 2171.5,-96 2178.23,-95.04 2185.22,-93.85 2192.17,-92.53"/>
<polygon fill="#63b8ff" stroke="#63b8ff" points="2193.18,-95.9 2202.32,-90.53 2191.83,-89.03 2193.18,-95.9"/>
</a>
</g>
</g>
<!-- Node21 -->
<g id="Node000021" class="node">
<title>Node21</title>
<g id="a_Node000021"><a xlink:href="_macros_8hpp.html" target="_top" xlink:title=" ">
<polygon fill="white" stroke="#666666" points="786.5,-90.5 668.5,-90.5 668.5,-60.5 786.5,-60.5 786.5,-90.5"/>
<text text-anchor="start" x="676.5" y="-78.5" font-family="Helvetica,sans-Serif" font-size="10.00">Hermes/_base/OsApi</text>
<text text-anchor="middle" x="727.5" y="-67.5" font-family="Helvetica,sans-Serif" font-size="10.00">/Macros.hpp</text>
</a>
</g>
</g>
<!-- Node13&#45;&gt;Node21 -->
<g id="edge20_Node000013_Node000021" class="edge">
<title>Node13&#45;&gt;Node21</title>
<g id="a_edge20_Node000013_Node000021"><a xlink:title=" ">
<path fill="none" stroke="#63b8ff" d="M1384.25,-133.29C1381.29,-132.82 1378.37,-132.38 1375.5,-132 1119.49,-97.87 1050.02,-139.86 795.5,-96 790.76,-95.18 785.87,-94.16 781,-93.01"/>
<polygon fill="#63b8ff" stroke="#63b8ff" points="781.62,-89.56 771.07,-90.51 779.91,-96.35 781.62,-89.56"/>
</a>
</g>
</g>
<!-- Node23 -->
<g id="Node000023" class="node">
<title>Node23</title>
<g id="a_Node000023"><a xlink:href="_address_family_enum_8hpp.html" target="_top" xlink:title=" ">
<polygon fill="white" stroke="#666666" points="1531.5,-90.5 1355.5,-90.5 1355.5,-60.5 1531.5,-60.5 1531.5,-90.5"/>
<text text-anchor="start" x="1363.5" y="-78.5" font-family="Helvetica,sans-Serif" font-size="10.00">Hermes/_base/OsApi</text>
<text text-anchor="middle" x="1443.5" y="-67.5" font-family="Helvetica,sans-Serif" font-size="10.00">/Enums/AddressFamilyEnum.hpp</text>
</a>
</g>
</g>
<!-- Node13&#45;&gt;Node23 -->
<g id="edge24_Node000013_Node000023" class="edge">
<title>Node13&#45;&gt;Node23</title>
<g id="a_edge24_Node000013_Node000023"><a xlink:title=" ">
<path fill="none" stroke="#63b8ff" d="M1443.5,-131.94C1443.5,-122.99 1443.5,-111.16 1443.5,-100.73"/>
<polygon fill="#63b8ff" stroke="#63b8ff" points="1447,-100.54 1443.5,-90.54 1440,-100.54 1447,-100.54"/>
</a>
</g>
</g>
<!-- Node24 -->
<g id="Node000024" class="node">
<title>Node24</title>
<g id="a_Node000024"><a xlink:href="_protocol_base_type_enum_8hpp.html" target="_top" xlink:title=" ">
<polygon fill="white" stroke="#666666" points="612,-90.5 421,-90.5 421,-60.5 612,-60.5 612,-90.5"/>
<text text-anchor="start" x="429" y="-78.5" font-family="Helvetica,sans-Serif" font-size="10.00">Hermes/_base/OsApi</text>
<text text-anchor="middle" x="516.5" y="-67.5" font-family="Helvetica,sans-Serif" font-size="10.00">/Enums/ProtocolBaseTypeEnum.hpp</text>
</a>
</g>
</g>
<!-- Node13&#45;&gt;Node24 -->
<g id="edge26_Node000013_Node000024" class="edge">
<title>Node13&#45;&gt;Node24</title>
<g id="a_edge26_Node000013_Node000024"><a xlink:title=" ">
<path fill="none" stroke="#63b8ff" d="M1384.25,-133.24C1381.3,-132.78 1378.37,-132.36 1375.5,-132 1044.85,-90.27 957.69,-133.16 626.5,-96 617.2,-94.96 607.5,-93.61 597.88,-92.12"/>
<polygon fill="#63b8ff" stroke="#63b8ff" points="598.33,-88.65 587.91,-90.52 597.22,-95.56 598.33,-88.65"/>
</a>
</g>
</g>
<!-- Node25 -->
<g id="Node000025" class="node">
<title>Node25</title>
<g id="a_Node000025"><a xlink:href="_socket_shutdown_enum_8hpp.html" target="_top" xlink:title=" ">
<polygon fill="white" stroke="#666666" points="990,-90.5 805,-90.5 805,-60.5 990,-60.5 990,-90.5"/>
<text text-anchor="start" x="813" y="-78.5" font-family="Helvetica,sans-Serif" font-size="10.00">Hermes/_base/OsApi</text>
<text text-anchor="middle" x="897.5" y="-67.5" font-family="Helvetica,sans-Serif" font-size="10.00">/Enums/SocketShutdownEnum.hpp</text>
</a>
</g>
</g>
<!-- Node13&#45;&gt;Node25 -->
<g id="edge28_Node000013_Node000025" class="edge">
<title>Node13&#45;&gt;Node25</title>
<g id="a_edge28_Node000013_Node000025"><a xlink:title=" ">
<path fill="none" stroke="#63b8ff" d="M1384.23,-133.4C1381.28,-132.9 1378.36,-132.43 1375.5,-132 1209.05,-106.99 1165.1,-119.98 998.5,-96 990.92,-94.91 983.04,-93.64 975.18,-92.27"/>
<polygon fill="#63b8ff" stroke="#63b8ff" points="975.72,-88.81 965.26,-90.5 974.49,-95.7 975.72,-88.81"/>
</a>
</g>
</g>
<!-- Node26 -->
<g id="Node000026" class="node">
<title>Node26</title>
<g id="a_Node000026"><a xlink:href="_socket_type_enum_8hpp.html" target="_top" xlink:title=" ">
<polygon fill="white" stroke="#666666" points="1167,-90.5 1008,-90.5 1008,-60.5 1167,-60.5 1167,-90.5"/>
<text text-anchor="start" x="1016" y="-78.5" font-family="Helvetica,sans-Serif" font-size="10.00">Hermes/_base/OsApi</text>
<text text-anchor="middle" x="1087.5" y="-67.5" font-family="Helvetica,sans-Serif" font-size="10.00">/Enums/SocketTypeEnum.hpp</text>
</a>
</g>
</g>
<!-- Node13&#45;&gt;Node26 -->
<g id="edge30_Node000013_Node000026" class="edge">
<title>Node13&#45;&gt;Node26</title>
<g id="a_edge30_Node000013_Node000026"><a xlink:title=" ">
<path fill="none" stroke="#63b8ff" d="M1384.18,-133.7C1381.25,-133.12 1378.34,-132.55 1375.5,-132 1287.25,-114.94 1264.64,-113.62 1176.5,-96 1171.17,-94.93 1165.66,-93.8 1160.13,-92.64"/>
<polygon fill="#63b8ff" stroke="#63b8ff" points="1160.67,-89.18 1150.16,-90.53 1159.22,-96.03 1160.67,-89.18"/>
</a>
</g>
</g>
<!-- Node27 -->
<g id="Node000027" class="node">
<title>Node27</title>
<g id="a_Node000027"><a xlink:title=" ">
<polygon fill="#e0e0e0" stroke="#999999" points="1337.5,-96 1185.5,-96 1185.5,-55 1337.5,-55 1337.5,-96"/>
<text text-anchor="start" x="1193.5" y="-84" font-family="Helvetica,sans-Serif" font-size="10.00">Hermes/_base/OsApi</text>
<text text-anchor="start" x="1193.5" y="-73" font-family="Helvetica,sans-Serif" font-size="10.00">/Enums/Linux/EncryptStatus</text>
<text text-anchor="middle" x="1261.5" y="-62" font-family="Helvetica,sans-Serif" font-size="10.00">Enum.hpp</text>
</a>
</g>
</g>
<!-- Node13&#45;&gt;Node27 -->
<g id="edge32_Node000013_Node000027" class="edge">
<title>Node13&#45;&gt;Node27</title>
<g id="a_edge32_Node000013_Node000027"><a xlink:title=" ">
<path fill="none" stroke="#63b8ff" d="M1406.67,-131.94C1382.51,-122.71 1350.35,-110.43 1322.43,-99.77"/>
<polygon fill="#63b8ff" stroke="#63b8ff" points="1323.35,-96.37 1312.76,-96.07 1320.85,-102.91 1323.35,-96.37"/>
</a>
</g>
</g>
<!-- Node28 -->
<g id="Node000028" class="node">
<title>Node28</title>
<g id="a_Node000028"><a xlink:href="_name_info_flags_8hpp.html" target="_top" xlink:title=" ">
<polygon fill="white" stroke="#666666" points="290.5,-90.5 146.5,-90.5 146.5,-60.5 290.5,-60.5 290.5,-90.5"/>
<text text-anchor="start" x="154.5" y="-78.5" font-family="Helvetica,sans-Serif" font-size="10.00">Hermes/_base/OsApi</text>
<text text-anchor="middle" x="218.5" y="-67.5" font-family="Helvetica,sans-Serif" font-size="10.00">/Flags/NameInfoFlags.hpp</text>
</a>
</g>
</g>
<!-- Node13&#45;&gt;Node28 -->
<g id="edge33_Node000013_Node000028" class="edge">
<title>Node13&#45;&gt;Node28</title>
<g id="a_edge33_Node000013_Node000028"><a xlink:title=" ">
<path fill="none" stroke="#63b8ff" d="M1384.26,-133.19C1381.3,-132.74 1378.37,-132.34 1375.5,-132 900.35,-75.55 773.65,-160.33 299.5,-96 293.2,-95.15 286.67,-94.01 280.18,-92.71"/>
<polygon fill="#63b8ff" stroke="#63b8ff" points="280.57,-89.22 270.06,-90.56 279.11,-96.06 280.57,-89.22"/>
</a>
</g>
</g>
<!-- Node29 -->
<g id="Node000029" class="node">
<title>Node29</title>
<g id="a_Node000029"><a xlink:title=" ">
<polygon fill="#e0e0e0" stroke="#999999" points="1725.5,-90.5 1549.5,-90.5 1549.5,-60.5 1725.5,-60.5 1725.5,-90.5"/>
<text text-anchor="start" x="1557.5" y="-78.5" font-family="Helvetica,sans-Serif" font-size="10.00">Hermes/_base/OsApi</text>
<text text-anchor="middle" x="1637.5" y="-67.5" font-family="Helvetica,sans-Serif" font-size="10.00">/Flags/Linux/CredentialFlags.hpp</text>
</a>
</g>
</g>
<!-- Node13&#45;&gt;Node29 -->
<g id="edge35_Node000013_Node000029" class="edge">
<title>Node13&#45;&gt;Node29</title>
<g id="a_edge35_Node000013_Node000029"><a xlink:title=" ">
<path fill="none" stroke="#63b8ff" d="M1482.76,-131.94C1513.26,-121.01 1555.74,-105.79 1588.48,-94.06"/>
<polygon fill="#63b8ff" stroke="#63b8ff" points="1590.07,-97.21 1598.3,-90.54 1587.71,-90.62 1590.07,-97.21"/>
</a>
</g>
</g>
<!-- Node30 -->
<g id="Node000030" class="node">
<title>Node30</title>
<g id="a_Node000030"><a xlink:title=" ">
<polygon fill="#e0e0e0" stroke="#999999" points="1917,-96 1744,-96 1744,-55 1917,-55 1917,-96"/>
<text text-anchor="start" x="1752" y="-84" font-family="Helvetica,sans-Serif" font-size="10.00">Hermes/_base/OsApi</text>
<text text-anchor="start" x="1752" y="-73" font-family="Helvetica,sans-Serif" font-size="10.00">/Flags/Linux/SupportedProtocols</text>
<text text-anchor="middle" x="1830.5" y="-62" font-family="Helvetica,sans-Serif" font-size="10.00">Flags.hpp</text>
</a>
</g>
</g>
<!-- Node13&#45;&gt;Node30 -->
<g id="edge36_Node000013_Node000030" class="edge">
<title>Node13&#45;&gt;Node30</title>
<g id="a_edge36_Node000013_Node000030"><a xlink:title=" ">
<path fill="none" stroke="#63b8ff" d="M1502.67,-136.37C1559.35,-127.03 1647.55,-112.17 1733.94,-96.08"/>
<polygon fill="#63b8ff" stroke="#63b8ff" points="1734.73,-99.49 1743.92,-94.21 1733.44,-92.61 1734.73,-99.49"/>
</a>
</g>
</g>
<!-- Node31 -->
<g id="Node000031" class="node">
<title>Node31</title>
<g id="a_Node000031"><a xlink:title=" ">
<polygon fill="#e0e0e0" stroke="#999999" points="2129.5,-90.5 1935.5,-90.5 1935.5,-60.5 2129.5,-60.5 2129.5,-90.5"/>
<text text-anchor="start" x="1943.5" y="-78.5" font-family="Helvetica,sans-Serif" font-size="10.00">Hermes/_base/OsApi</text>
<text text-anchor="middle" x="2032.5" y="-67.5" font-family="Helvetica,sans-Serif" font-size="10.00">/Flags/Linux/SChannelCredFlags.hpp</text>
</a>
</g>
</g>
<!-- Node13&#45;&gt;Node31 -->
<g id="edge37_Node000013_Node000031" class="edge">
<title>Node13&#45;&gt;Node31</title>
<g id="a_edge37_Node000013_Node000031"><a xlink:title=" ">
<path fill="none" stroke="#63b8ff" d="M1502.8,-141.38C1594.08,-133.92 1774.42,-117.83 1926.5,-96 1934.33,-94.88 1942.47,-93.59 1950.6,-92.23"/>
<polygon fill="#63b8ff" stroke="#63b8ff" points="1951.23,-95.67 1960.5,-90.53 1950.05,-88.77 1951.23,-95.67"/>
</a>
</g>
</g>
<!-- Node20 -->
<g id="Node000020" class="node">
<title>Node20</title>
<g id="a_Node000020"><a xlink:title=" ">
<polygon fill="#e0e0e0" stroke="#999999" points="2285.5,-19 2235.5,-19 2235.5,0 2285.5,0 2285.5,-19"/>
<text text-anchor="middle" x="2260.5" y="-7" font-family="Helvetica,sans-Serif" font-size="10.00">cstdint</text>
</a>
</g>
</g>
<!-- Node19&#45;&gt;Node20 -->
<g id="edge19_Node000019_Node000020" class="edge">
<title>Node19&#45;&gt;Node20</title>
<g id="a_edge19_Node000019_Node000020"><a xlink:title=" ">
<path fill="none" stroke="#63b8ff" d="M2260.5,-60.3C2260.5,-51.2 2260.5,-39.29 2260.5,-29.4"/>
<polygon fill="#63b8ff" stroke="#63b8ff" points="2264,-29.34 2260.5,-19.34 2257,-29.34 2264,-29.34"/>
</a>
</g>
</g>
<!-- Node21&#45;&gt;Node14 -->
<g id="edge22_Node000021_Node000014" class="edge">
<title>Node21&#45;&gt;Node14</title>
<g id="a_edge22_Node000021_Node000014"><a xlink:title=" ">
<path fill="none" stroke="#63b8ff" d="M773.39,-60.48C780.74,-58.48 788.3,-56.57 795.5,-55 880.33,-36.45 980.69,-22.97 1038.93,-15.97"/>
<polygon fill="#63b8ff" stroke="#63b8ff" points="1039.43,-19.44 1048.95,-14.78 1038.61,-12.48 1039.43,-19.44"/>
</a>
</g>
</g>
<!-- Node21&#45;&gt;Node15 -->
<g id="edge23_Node000021_Node000015" class="edge">
<title>Node21&#45;&gt;Node15</title>
<g id="a_edge23_Node000021_Node000015"><a xlink:title=" ">
<path fill="none" stroke="#63b8ff" d="M707.75,-60.3C693.24,-49.87 673.6,-35.74 658.94,-25.19"/>
<polygon fill="#63b8ff" stroke="#63b8ff" points="660.7,-22.16 650.54,-19.16 656.62,-27.84 660.7,-22.16"/>
</a>
</g>
</g>
<!-- Node22 -->
<g id="Node000022" class="node">
<title>Node22</title>
<g id="a_Node000022"><a xlink:title=" ">
<polygon fill="#e0e0e0" stroke="#999999" points="766,-19 693,-19 693,0 766,0 766,-19"/>
<text text-anchor="middle" x="729.5" y="-7" font-family="Helvetica,sans-Serif" font-size="10.00">string_view</text>
</a>
</g>
</g>
<!-- Node21&#45;&gt;Node22 -->
<g id="edge21_Node000021_Node000022" class="edge">
<title>Node21&#45;&gt;Node22</title>
<g id="a_edge21_Node000021_Node000022"><a xlink:title=" ">
<path fill="none" stroke="#63b8ff" d="M727.94,-60.3C728.23,-51.2 728.6,-39.29 728.91,-29.4"/>
<polygon fill="#63b8ff" stroke="#63b8ff" points="732.41,-29.45 729.22,-19.34 725.41,-29.23 732.41,-29.45"/>
</a>
</g>
</g>
<!-- Node23&#45;&gt;Node14 -->
<g id="edge25_Node000023_Node000014" class="edge">
<title>Node23&#45;&gt;Node14</title>
<g id="a_edge25_Node000023_Node000014"><a xlink:title=" ">
<path fill="none" stroke="#63b8ff" d="M1374.92,-60.46C1365.38,-58.58 1355.7,-56.72 1346.5,-55 1273.34,-41.36 1188.25,-27.04 1136.14,-18.44"/>
<polygon fill="#63b8ff" stroke="#63b8ff" points="1136.61,-14.97 1126.18,-16.8 1135.47,-21.87 1136.61,-14.97"/>
</a>
</g>
</g>
<!-- Node24&#45;&gt;Node15 -->
<g id="edge27_Node000024_Node000015" class="edge">
<title>Node24&#45;&gt;Node15</title>
<g id="a_edge27_Node000024_Node000015"><a xlink:title=" ">
<path fill="none" stroke="#63b8ff" d="M543.27,-60.45C564.1,-49.53 592.81,-34.47 613.24,-23.75"/>
<polygon fill="#63b8ff" stroke="#63b8ff" points="615.03,-26.76 622.26,-19.02 611.78,-20.56 615.03,-26.76"/>
</a>
</g>
</g>
<!-- Node25&#45;&gt;Node14 -->
<g id="edge29_Node000025_Node000014" class="edge">
<title>Node25&#45;&gt;Node14</title>
<g id="a_edge29_Node000025_Node000014"><a xlink:title=" ">
<path fill="none" stroke="#63b8ff" d="M939.2,-60.45C973.1,-49.03 1020.41,-33.1 1052.4,-22.32"/>
<polygon fill="#63b8ff" stroke="#63b8ff" points="1053.85,-25.53 1062.21,-19.02 1051.62,-18.89 1053.85,-25.53"/>
</a>
</g>
</g>
<!-- Node26&#45;&gt;Node14 -->
<g id="edge31_Node000026_Node000014" class="edge">
<title>Node26&#45;&gt;Node14</title>
<g id="a_edge31_Node000026_Node000014"><a xlink:title=" ">
<path fill="none" stroke="#63b8ff" d="M1087.5,-60.3C1087.5,-51.2 1087.5,-39.29 1087.5,-29.4"/>
<polygon fill="#63b8ff" stroke="#63b8ff" points="1091,-29.34 1087.5,-19.34 1084,-29.34 1091,-29.34"/>
</a>
</g>
</g>
<!-- Node28&#45;&gt;Node17 -->
<g id="edge34_Node000028_Node000017" class="edge">
<title>Node28&#45;&gt;Node17</title>
<g id="a_edge34_Node000028_Node000017"><a xlink:title=" ">
<path fill="none" stroke="#63b8ff" d="M237.81,-60.3C251.99,-49.87 271.19,-35.74 285.52,-25.19"/>
<polygon fill="#63b8ff" stroke="#63b8ff" points="287.75,-27.9 293.73,-19.16 283.6,-22.26 287.75,-27.9"/>
</a>
</g>
</g>
<!-- Node32&#45;&gt;Node7 -->
<g id="edge46_Node000032_Node000007" class="edge">
<title>Node32&#45;&gt;Node7</title>
<g id="a_edge46_Node000032_Node000007"><a xlink:title=" ">
<path fill="none" stroke="#63b8ff" d="M1111.27,-199.04C1114.05,-198.67 1116.8,-198.32 1119.5,-198 1700.2,-128.28 1874.94,-275.78 2431.5,-96 2435.68,-94.65 2439.88,-92.66 2443.8,-90.45"/>
<polygon fill="#63b8ff" stroke="#63b8ff" points="2445.68,-93.41 2452.29,-85.13 2441.96,-87.47 2445.68,-93.41"/>
</a>
</g>
</g>
<!-- Node32&#45;&gt;Node33 -->
<g id="edge39_Node000032_Node000033" class="edge">
<title>Node32&#45;&gt;Node33</title>
<g id="a_edge39_Node000032_Node000033"><a xlink:title=" ">
<path fill="none" stroke="#63b8ff" d="M994.66,-197.95C963.21,-186.58 919.38,-170.74 889.59,-159.96"/>
<polygon fill="#63b8ff" stroke="#63b8ff" points="890.65,-156.63 880.06,-156.52 888.27,-163.21 890.65,-156.63"/>
</a>
</g>
</g>
<!-- Node32&#45;&gt;Node36 -->
<g id="edge42_Node000032_Node000036" class="edge">
<title>Node32&#45;&gt;Node36</title>
<g id="a_edge42_Node000032_Node000036"><a xlink:title=" ">
<path fill="none" stroke="#63b8ff" d="M1111.17,-199.3C1187.81,-186.59 1296.24,-168.09 1315.5,-162 1316.9,-161.56 1318.33,-161.06 1319.75,-160.53"/>
<polygon fill="#63b8ff" stroke="#63b8ff" points="1321.13,-163.75 1328.99,-156.64 1318.42,-157.29 1321.13,-163.75"/>
</a>
</g>
</g>
<!-- Node32&#45;&gt;Node37 -->
<g id="edge43_Node000032_Node000037" class="edge">
<title>Node32&#45;&gt;Node37</title>
<g id="a_edge43_Node000032_Node000037"><a xlink:title=" ">
<path fill="none" stroke="#63b8ff" d="M955.73,-201.19C905.55,-193.08 839.3,-180.22 782.5,-162 781.06,-161.54 779.6,-161.03 778.13,-160.48"/>
<polygon fill="#63b8ff" stroke="#63b8ff" points="779.18,-157.13 768.61,-156.56 776.52,-163.61 779.18,-157.13"/>
</a>
</g>
</g>
<!-- Node38 -->
<g id="Node000038" class="node">
<title>Node38</title>
<g id="a_Node000038"><a xlink:title=" ">
<polygon fill="#e0e0e0" stroke="#999999" points="990,-156.5 939,-156.5 939,-137.5 990,-137.5 990,-156.5"/>
<text text-anchor="middle" x="964.5" y="-144.5" font-family="Helvetica,sans-Serif" font-size="10.00">variant</text>
</a>
</g>
</g>
<!-- Node32&#45;&gt;Node38 -->
<g id="edge44_Node000032_Node000038" class="edge">
<title>Node32&#45;&gt;Node38</title>
<g id="a_edge44_Node000032_Node000038"><a xlink:title=" ">
<path fill="none" stroke="#63b8ff" d="M1018.19,-197.8C1007.32,-187.72 992.74,-174.19 981.51,-163.78"/>
<polygon fill="#63b8ff" stroke="#63b8ff" points="983.75,-161.08 974.04,-156.84 978.99,-166.21 983.75,-161.08"/>
</a>
</g>
</g>
<!-- Node32&#45;&gt;Node39 -->
<g id="edge45_Node000032_Node000039" class="edge">
<title>Node32&#45;&gt;Node39</title>
<g id="a_edge45_Node000032_Node000039"><a xlink:title=" ">
<path fill="none" stroke="#63b8ff" d="M1100.22,-197.95C1141.04,-188.84 1194.16,-176.08 1240.5,-162 1242.63,-161.35 1244.82,-160.65 1247.01,-159.92"/>
<polygon fill="#63b8ff" stroke="#63b8ff" points="1248.26,-163.19 1256.54,-156.58 1245.95,-156.58 1248.26,-163.19"/>
</a>
</g>
</g>
<!-- Node40 -->
<g id="Node000040" class="node">
<title>Node40</title>
<g id="a_Node000040"><a xlink:title=" ">
<polygon fill="#e0e0e0" stroke="#999999" points="1058.5,-156.5 1008.5,-156.5 1008.5,-137.5 1058.5,-137.5 1058.5,-156.5"/>
<text text-anchor="middle" x="1033.5" y="-144.5" font-family="Helvetica,sans-Serif" font-size="10.00">format</text>
</a>
</g>
</g>
<!-- Node32&#45;&gt;Node40 -->
<g id="edge47_Node000032_Node000040" class="edge">
<title>Node32&#45;&gt;Node40</title>
<g id="a_edge47_Node000032_Node000040"><a xlink:title=" ">
<path fill="none" stroke="#63b8ff" d="M1033.5,-197.8C1033.5,-188.7 1033.5,-176.79 1033.5,-166.9"/>
<polygon fill="#63b8ff" stroke="#63b8ff" points="1037,-166.84 1033.5,-156.84 1030,-166.84 1037,-166.84"/>
</a>
</g>
</g>
<!-- Node41 -->
<g id="Node000041" class="node">
<title>Node41</title>
<g id="a_Node000041"><a xlink:title=" ">
<polygon fill="#e0e0e0" stroke="#999999" points="1232,-162 1077,-162 1077,-132 1232,-132 1232,-162"/>
<text text-anchor="start" x="1085" y="-150" font-family="Helvetica,sans-Serif" font-size="10.00">Hermes/Endpoint/IpEndpoint</text>
<text text-anchor="middle" x="1154.5" y="-139" font-family="Helvetica,sans-Serif" font-size="10.00">/IpAddress.tpp</text>
</a>
</g>
</g>
<!-- Node32&#45;&gt;Node41 -->
<g id="edge48_Node000032_Node000041" class="edge">
<title>Node32&#45;&gt;Node41</title>
<g id="a_edge48_Node000032_Node000041"><a xlink:title=" ">
<path fill="none" stroke="#63b8ff" d="M1060.05,-197.95C1077.39,-188.78 1100.23,-176.71 1119.1,-166.72"/>
<polygon fill="#63b8ff" stroke="#63b8ff" points="1120.8,-169.78 1128.01,-162.01 1117.53,-163.59 1120.8,-169.78"/>
</a>
</g>
</g>
<!-- Node34 -->
<g id="Node000034" class="node">
<title>Node34</title>
<g id="a_Node000034"><a xlink:title=" ">
<polygon fill="#e0e0e0" stroke="#999999" points="128,-85 83,-85 83,-66 128,-66 128,-85"/>
<text text-anchor="middle" x="105.5" y="-73" font-family="Helvetica,sans-Serif" font-size="10.00">utility</text>
</a>
</g>
</g>
<!-- Node33&#45;&gt;Node34 -->
<g id="edge40_Node000033_Node000034" class="edge">
<title>Node33&#45;&gt;Node34</title>
<g id="a_edge40_Node000033_Node000034"><a xlink:title=" ">
<path fill="none" stroke="#63b8ff" d="M816.71,-137.48C805.68,-135.39 793.66,-133.36 782.5,-132 640,-114.62 274.58,-138.63 137.5,-96 133.31,-94.7 129.1,-92.72 125.18,-90.53"/>
<polygon fill="#63b8ff" stroke="#63b8ff" points="127.02,-87.55 116.69,-85.2 123.3,-93.48 127.02,-87.55"/>
</a>
</g>
</g>
<!-- Node35 -->
<g id="Node000035" class="node">
<title>Node35</title>
<g id="a_Node000035"><a xlink:title=" ">
<polygon fill="#e0e0e0" stroke="#999999" points="65,-85 0,-85 0,-66 65,-66 65,-85"/>
<text text-anchor="middle" x="32.5" y="-73" font-family="Helvetica,sans-Serif" font-size="10.00">functional</text>
</a>
</g>
</g>
<!-- Node33&#45;&gt;Node35 -->
<g id="edge41_Node000033_Node000035" class="edge">
<title>Node33&#45;&gt;Node35</title>
<g id="a_edge41_Node000033_Node000035"><a xlink:title=" ">
<path fill="none" stroke="#63b8ff" d="M816.71,-137.44C805.68,-135.35 793.67,-133.33 782.5,-132 469.21,-94.59 379.42,-173.25 73.5,-96 67.77,-94.55 61.88,-92.28 56.41,-89.79"/>
<polygon fill="#63b8ff" stroke="#63b8ff" points="57.67,-86.51 47.15,-85.2 54.56,-92.78 57.67,-86.51"/>
</a>
</g>
</g>
<!-- Node44&#45;&gt;Node4 -->
<g id="edge55_Node000044_Node000004" class="edge">
<title>Node44&#45;&gt;Node4</title>
<g id="a_edge55_Node000044_Node000004"><a xlink:title=" ">
<path fill="none" stroke="#63b8ff" d="M2460.27,-269.37C2438,-259.87 2401.56,-244.32 2372.95,-232.11"/>
<polygon fill="#63b8ff" stroke="#63b8ff" points="2374.15,-228.82 2363.58,-228.12 2371.41,-235.26 2374.15,-228.82"/>
</a>
</g>
</g>
<!-- Node44&#45;&gt;Node5 -->
<g id="edge56_Node000044_Node000005" class="edge">
<title>Node44&#45;&gt;Node5</title>
<g id="a_edge56_Node000044_Node000005"><a xlink:title=" ">
<path fill="none" stroke="#63b8ff" d="M2499.77,-269.34C2516.03,-261.04 2538.65,-246.98 2551.5,-228 2562.66,-211.52 2567.3,-189.25 2569.21,-172.4"/>
<polygon fill="#63b8ff" stroke="#63b8ff" points="2572.72,-172.49 2570.11,-162.22 2565.74,-171.87 2572.72,-172.49"/>
</a>
</g>
</g>
<!-- Node44&#45;&gt;Node10 -->
<g id="edge57_Node000044_Node000010" class="edge">
<title>Node44&#45;&gt;Node10</title>
<g id="a_edge57_Node000044_Node000010"><a xlink:title=" ">
<path fill="none" stroke="#63b8ff" d="M2508.06,-269.47C2611.41,-237.48 2976.08,-124.61 3094.25,-88.03"/>
<polygon fill="#63b8ff" stroke="#63b8ff" points="3095.42,-91.33 3103.94,-85.03 3093.35,-84.65 3095.42,-91.33"/>
</a>
</g>
</g>
<!-- Node45 -->
<g id="Node000045" class="node">
<title>Node45</title>
<g id="a_Node000045"><a xlink:title=" ">
<polygon fill="#e0e0e0" stroke="#999999" points="2474.5,-222.5 2414.5,-222.5 2414.5,-203.5 2474.5,-203.5 2474.5,-222.5"/>
<text text-anchor="middle" x="2444.5" y="-210.5" font-family="Helvetica,sans-Serif" font-size="10.00">concepts</text>
</a>
</g>
</g>
<!-- Node44&#45;&gt;Node45 -->
<g id="edge58_Node000044_Node000045" class="edge">
<title>Node44&#45;&gt;Node45</title>
<g id="a_edge58_Node000044_Node000045"><a xlink:title=" ">
<path fill="none" stroke="#63b8ff" d="M2475.64,-269.37C2470.25,-259.78 2461.4,-244.05 2454.51,-231.8"/>
<polygon fill="#63b8ff" stroke="#63b8ff" points="2457.46,-229.91 2449.51,-222.91 2451.36,-233.34 2457.46,-229.91"/>
</a>
</g>
</g>
<!-- Node46 -->
<g id="Node000046" class="node">
<title>Node46</title>
<g id="a_Node000046"><a xlink:title=" ">
<polygon fill="#e0e0e0" stroke="#999999" points="2542.5,-222.5 2492.5,-222.5 2492.5,-203.5 2542.5,-203.5 2542.5,-222.5"/>
<text text-anchor="middle" x="2517.5" y="-210.5" font-family="Helvetica,sans-Serif" font-size="10.00">ranges</text>
</a>
</g>
</g>
<!-- Node44&#45;&gt;Node46 -->
<g id="edge59_Node000044_Node000046" class="edge">
<title>Node44&#45;&gt;Node46</title>
<g id="a_edge59_Node000044_Node000046"><a xlink:title=" ">
<path fill="none" stroke="#63b8ff" d="M2485.49,-269.37C2491.03,-259.78 2500.13,-244.05 2507.21,-231.8"/>
<polygon fill="#63b8ff" stroke="#63b8ff" points="2510.38,-233.31 2512.35,-222.91 2504.32,-229.81 2510.38,-233.31"/>
</a>
</g>
</g>
</g>
</svg>
