<?xml version="1.0" encoding="UTF-8" standalone="no"?>
<!DOCTYPE svg PUBLIC "-//W3C//DTD SVG 1.1//EN"
 "http://www.w3.org/Graphics/SVG/1.1/DTD/svg11.dtd">
<!-- Generated by graphviz version 2.43.0 (0)
 -->
<!-- Title: include/Hermes/Socket/Sync/_base/Transfer/DefaultTransferPolicy.hpp Pages: 1 -->
<svg width="3423pt" height="456pt"
 viewBox="0.00 0.00 3423.00 456.00" xmlns="http://www.w3.org/2000/svg" xmlns:xlink="http://www.w3.org/1999/xlink">
<g id="graph0" class="graph" transform="scale(1 1) rotate(0) translate(4 452)">
<title>include/Hermes/Socket/Sync/_base/Transfer/DefaultTransferPolicy.hpp</title>
<!-- Node1 -->
<g id="Node000001" class="node">
<title>Node1</title>
<g id="a_Node000001"><a xlink:title=" ">
<polygon fill="#999999" stroke="#666666" points="2994.5,-448 2851.5,-448 2851.5,-407 2994.5,-407 2994.5,-448"/>
<text text-anchor="start" x="2859.5" y="-436" font-family="Helvetica,sans-Serif" font-size="10.00">include/Hermes/Socket</text>
<text text-anchor="start" x="2859.5" y="-425" font-family="Helvetica,sans-Serif" font-size="10.00">/Sync/_base/Transfer</text>
<text text-anchor="middle" x="2923" y="-414" font-family="Helvetica,sans-Serif" font-size="10.00">/DefaultTransferPolicy.hpp</text>
</a>
</g>
</g>
<!-- Node2 -->
<g id="Node000002" class="node">
<title>Node2</title>
<g id="a_Node000002"><a xlink:href="_default_socket_data_8hpp.html" target="_top" xlink:title=" ">
<polygon fill="white" stroke="#666666" points="2989,-365.5 2857,-365.5 2857,-335.5 2989,-335.5 2989,-365.5"/>
<text text-anchor="start" x="2865" y="-353.5" font-family="Helvetica,sans-Serif" font-size="10.00">Hermes/Socket/Data</text>
<text text-anchor="middle" x="2923" y="-342.5" font-family="Helvetica,sans-Serif" font-size="10.00">/DefaultSocketData.hpp</text>
</a>
</g>
</g>
<!-- Node1&#45;&gt;Node2 -->
<g id="edge1_Node000001_Node000002" class="edge">
<title>Node1&#45;&gt;Node2</title>
<g id="a_edge1_Node000001_Node000002"><a xlink:title=" ">
<path fill="none" stroke="#63b8ff" d="M2923,-406.79C2923,-397.36 2923,-385.97 2923,-375.99"/>
<polygon fill="#63b8ff" stroke="#63b8ff" points="2926.5,-375.86 2923,-365.86 2919.5,-375.86 2926.5,-375.86"/>
</a>
</g>
</g>
<!-- Node5 -->
<g id="Node000005" class="node">
<title>Node5</title>
<g id="a_Node000005"><a xlink:href="_connection_error_enum_8hpp.html" target="_top" xlink:title=" ">
<polygon fill="white" stroke="#666666" points="2600.5,-162 2433.5,-162 2433.5,-132 2600.5,-132 2600.5,-162"/>
<text text-anchor="start" x="2441.5" y="-150" font-family="Helvetica,sans-Serif" font-size="10.00">Hermes/_base/ConnectionError</text>
<text text-anchor="middle" x="2517" y="-139" font-family="Helvetica,sans-Serif" font-size="10.00">Enum.hpp</text>
</a>
</g>
</g>
<!-- Node1&#45;&gt;Node5 -->
<g id="edge59_Node000001_Node000005" class="edge">
<title>Node1&#45;&gt;Node5</title>
<g id="a_edge59_Node000001_Node000005"><a xlink:title=" ">
<path fill="none" stroke="#63b8ff" d="M2893.88,-406.89C2879.56,-396.77 2862.34,-383.88 2848,-371 2813.36,-339.91 2808.41,-328.36 2777,-294 2757.57,-272.75 2714.42,-213.24 2690,-198 2665.79,-182.89 2636.84,-172.2 2609.62,-164.69"/>
<polygon fill="#63b8ff" stroke="#63b8ff" points="2610.25,-161.24 2599.68,-162.07 2608.46,-168.01 2610.25,-161.24"/>
</a>
</g>
</g>
<!-- Node34 -->
<g id="Node000034" class="node">
<title>Node34</title>
<g id="a_Node000034"><a xlink:title=" ">
<polygon fill="#e0e0e0" stroke="#999999" points="3294,-156.5 3252,-156.5 3252,-137.5 3294,-137.5 3294,-156.5"/>
<text text-anchor="middle" x="3273" y="-144.5" font-family="Helvetica,sans-Serif" font-size="10.00">array</text>
</a>
</g>
</g>
<!-- Node1&#45;&gt;Node34 -->
<g id="edge61_Node000001_Node000034" class="edge">
<title>Node1&#45;&gt;Node34</title>
<g id="a_edge61_Node000001_Node000034"><a xlink:title=" ">
<path fill="none" stroke="#63b8ff" d="M2973.05,-406.96C3025.16,-384.95 3107.23,-345.42 3166,-294 3210.22,-255.31 3246.92,-195.27 3263.5,-165.69"/>
<polygon fill="#63b8ff" stroke="#63b8ff" points="3266.75,-167.03 3268.5,-156.58 3260.62,-163.66 3266.75,-167.03"/>
</a>
</g>
</g>
<!-- Node42 -->
<g id="Node000042" class="node">
<title>Node42</title>
<g id="a_Node000042"><a xlink:href="__base_8hpp.html" target="_top" xlink:title=" ">
<polygon fill="white" stroke="#666666" points="2566.5,-288.5 2423.5,-288.5 2423.5,-269.5 2566.5,-269.5 2566.5,-288.5"/>
<text text-anchor="middle" x="2495" y="-276.5" font-family="Helvetica,sans-Serif" font-size="10.00">Hermes/Socket/_base.hpp</text>
</a>
</g>
</g>
<!-- Node1&#45;&gt;Node42 -->
<g id="edge60_Node000001_Node000042" class="edge">
<title>Node1&#45;&gt;Node42</title>
<g id="a_edge60_Node000001_Node000042"><a xlink:title=" ">
<path fill="none" stroke="#63b8ff" d="M2851.47,-412.57C2806.28,-402.9 2747,-388.61 2696,-371 2630.85,-348.51 2557.99,-312.68 2520.44,-293.37"/>
<polygon fill="#63b8ff" stroke="#63b8ff" points="2521.74,-290.11 2511.25,-288.62 2518.52,-296.32 2521.74,-290.11"/>
</a>
</g>
</g>
<!-- Node46 -->
<g id="Node000046" class="node">
<title>Node46</title>
<g id="a_Node000046"><a xlink:title=" ">
<polygon fill="#e0e0e0" stroke="#999999" points="3415,-371 3247,-371 3247,-330 3415,-330 3415,-371"/>
<text text-anchor="start" x="3255" y="-359" font-family="Helvetica,sans-Serif" font-size="10.00">Hermes/Socket/Sync</text>
<text text-anchor="start" x="3255" y="-348" font-family="Helvetica,sans-Serif" font-size="10.00">/_base/Transfer/DefaultTransfer</text>
<text text-anchor="middle" x="3331" y="-337" font-family="Helvetica,sans-Serif" font-size="10.00">Policy.tpp</text>
</a>
</g>
</g>
<!-- Node1&#45;&gt;Node46 -->
<g id="edge62_Node000001_Node000046" class="edge">
<title>Node1&#45;&gt;Node46</title>
<g id="a_edge62_Node000001_Node000046"><a xlink:title=" ">
<path fill="none" stroke="#63b8ff" d="M2994.8,-414.05C3057.67,-403.05 3151.47,-386.41 3233,-371 3234.27,-370.76 3235.55,-370.52 3236.84,-370.27"/>
<polygon fill="#63b8ff" stroke="#63b8ff" points="3237.66,-373.68 3246.82,-368.36 3236.34,-366.8 3237.66,-373.68"/>
</a>
</g>
</g>
<!-- Node3 -->
<g id="Node000003" class="node">
<title>Node3</title>
<g id="a_Node000003"><a xlink:href="_ip_endpoint_8hpp.html" target="_top" xlink:title=" ">
<polygon fill="white" stroke="#666666" points="2940.5,-294 2785.5,-294 2785.5,-264 2940.5,-264 2940.5,-294"/>
<text text-anchor="start" x="2793.5" y="-282" font-family="Helvetica,sans-Serif" font-size="10.00">Hermes/Endpoint/IpEndpoint</text>
<text text-anchor="middle" x="2863" y="-271" font-family="Helvetica,sans-Serif" font-size="10.00">/IpEndpoint.hpp</text>
</a>
</g>
</g>
<!-- Node2&#45;&gt;Node3 -->
<g id="edge2_Node000002_Node000003" class="edge">
<title>Node2&#45;&gt;Node3</title>
<g id="a_edge2_Node000002_Node000003"><a xlink:title=" ">
<path fill="none" stroke="#63b8ff" d="M2910.86,-335.44C2902.48,-325.73 2891.18,-312.65 2881.67,-301.63"/>
<polygon fill="#63b8ff" stroke="#63b8ff" points="2884.31,-299.33 2875.12,-294.04 2879.01,-303.9 2884.31,-299.33"/>
</a>
</g>
</g>
<!-- Node41 -->
<g id="Node000041" class="node">
<title>Node41</title>
<g id="a_Node000041"><a xlink:title=" ">
<polygon fill="#e0e0e0" stroke="#999999" points="3009,-288.5 2959,-288.5 2959,-269.5 3009,-269.5 3009,-288.5"/>
<text text-anchor="middle" x="2984" y="-276.5" font-family="Helvetica,sans-Serif" font-size="10.00">chrono</text>
</a>
</g>
</g>
<!-- Node2&#45;&gt;Node41 -->
<g id="edge50_Node000002_Node000041" class="edge">
<title>Node2&#45;&gt;Node41</title>
<g id="a_edge50_Node000002_Node000041"><a xlink:title=" ">
<path fill="none" stroke="#63b8ff" d="M2935.34,-335.44C2945.21,-324.2 2959.05,-308.43 2969.45,-296.58"/>
<polygon fill="#63b8ff" stroke="#63b8ff" points="2972.34,-298.59 2976.31,-288.77 2967.08,-293.97 2972.34,-298.59"/>
</a>
</g>
</g>
<!-- Node2&#45;&gt;Node42 -->
<g id="edge51_Node000002_Node000042" class="edge">
<title>Node2&#45;&gt;Node42</title>
<g id="a_edge51_Node000002_Node000042"><a xlink:title=" ">
<path fill="none" stroke="#63b8ff" d="M2856.59,-338.72C2774.86,-325.44 2637.11,-303.08 2557.3,-290.12"/>
<polygon fill="#63b8ff" stroke="#63b8ff" points="2557.82,-286.66 2547.39,-288.51 2556.7,-293.57 2557.82,-286.66"/>
</a>
</g>
</g>
<!-- Node45 -->
<g id="Node000045" class="node">
<title>Node45</title>
<g id="a_Node000045"><a xlink:title=" ">
<polygon fill="#e0e0e0" stroke="#999999" points="3157,-294 3027,-294 3027,-264 3157,-264 3157,-294"/>
<text text-anchor="start" x="3035" y="-282" font-family="Helvetica,sans-Serif" font-size="10.00">Hermes/Socket/Data</text>
<text text-anchor="middle" x="3092" y="-271" font-family="Helvetica,sans-Serif" font-size="10.00">/DefaultSocketData.tpp</text>
</a>
</g>
</g>
<!-- Node2&#45;&gt;Node45 -->
<g id="edge58_Node000002_Node000045" class="edge">
<title>Node2&#45;&gt;Node45</title>
<g id="a_edge58_Node000002_Node000045"><a xlink:title=" ">
<path fill="none" stroke="#63b8ff" d="M2957.2,-335.44C2983.54,-324.6 3020.14,-309.55 3048.56,-297.87"/>
<polygon fill="#63b8ff" stroke="#63b8ff" points="3049.93,-301.08 3057.85,-294.04 3047.27,-294.61 3049.93,-301.08"/>
</a>
</g>
</g>
<!-- Node4 -->
<g id="Node000004" class="node">
<title>Node4</title>
<g id="a_Node000004"><a xlink:href="_endpoint_concept_8hpp.html" target="_top" xlink:title=" ">
<polygon fill="white" stroke="#666666" points="2681,-228 2549,-228 2549,-198 2681,-198 2681,-228"/>
<text text-anchor="start" x="2557" y="-216" font-family="Helvetica,sans-Serif" font-size="10.00">Hermes/Endpoint/_base</text>
<text text-anchor="middle" x="2615" y="-205" font-family="Helvetica,sans-Serif" font-size="10.00">/EndpointConcept.hpp</text>
</a>
</g>
</g>
<!-- Node3&#45;&gt;Node4 -->
<g id="edge3_Node000003_Node000004" class="edge">
<title>Node3&#45;&gt;Node4</title>
<g id="a_edge3_Node000003_Node000004"><a xlink:title=" ">
<path fill="none" stroke="#63b8ff" d="M2808.58,-263.95C2770.38,-254.1 2719.15,-240.88 2678.99,-230.51"/>
<polygon fill="#63b8ff" stroke="#63b8ff" points="2679.86,-227.12 2669.3,-228.01 2678.11,-233.9 2679.86,-227.12"/>
</a>
</g>
</g>
<!-- Node30 -->
<g id="Node000030" class="node">
<title>Node30</title>
<g id="a_Node000030"><a xlink:href="_ip_address_8hpp.html" target="_top" xlink:title=" ">
<polygon fill="white" stroke="#666666" points="2940.5,-228 2785.5,-228 2785.5,-198 2940.5,-198 2940.5,-228"/>
<text text-anchor="start" x="2793.5" y="-216" font-family="Helvetica,sans-Serif" font-size="10.00">Hermes/Endpoint/IpEndpoint</text>
<text text-anchor="middle" x="2863" y="-205" font-family="Helvetica,sans-Serif" font-size="10.00">/IpAddress.hpp</text>
</a>
</g>
</g>
<!-- Node3&#45;&gt;Node30 -->
<g id="edge35_Node000003_Node000030" class="edge">
<title>Node3&#45;&gt;Node30</title>
<g id="a_edge35_Node000003_Node000030"><a xlink:title=" ">
<path fill="none" stroke="#63b8ff" d="M2863,-263.8C2863,-256.34 2863,-246.99 2863,-238.41"/>
<polygon fill="#63b8ff" stroke="#63b8ff" points="2866.5,-238.16 2863,-228.16 2859.5,-238.16 2866.5,-238.16"/>
</a>
</g>
</g>
<!-- Node31 -->
<g id="Node000031" class="node">
<title>Node31</title>
<g id="a_Node000031"><a xlink:href="_hash_8hpp.html" target="_top" xlink:title=" ">
<polygon fill="white" stroke="#666666" points="3233.5,-156.5 3104.5,-156.5 3104.5,-137.5 3233.5,-137.5 3233.5,-156.5"/>
<text text-anchor="middle" x="3169" y="-144.5" font-family="Helvetica,sans-Serif" font-size="10.00">Hermes/Utils/Hash.hpp</text>
</a>
</g>
</g>
<!-- Node3&#45;&gt;Node31 -->
<g id="edge46_Node000003_Node000031" class="edge">
<title>Node3&#45;&gt;Node31</title>
<g id="a_edge46_Node000003_Node000031"><a xlink:title=" ">
<path fill="none" stroke="#63b8ff" d="M2940.85,-265.27C3029.12,-250.8 3161.05,-229.03 3162,-228 3177.05,-211.72 3176.1,-184.8 3173.23,-166.74"/>
<polygon fill="#63b8ff" stroke="#63b8ff" points="3176.64,-165.97 3171.31,-156.81 3169.77,-167.3 3176.64,-165.97"/>
</a>
</g>
</g>
<!-- Node35 -->
<g id="Node000035" class="node">
<title>Node35</title>
<g id="a_Node000035"><a xlink:title=" ">
<polygon fill="#e0e0e0" stroke="#999999" points="2662,-156.5 2618,-156.5 2618,-137.5 2662,-137.5 2662,-156.5"/>
<text text-anchor="middle" x="2640" y="-144.5" font-family="Helvetica,sans-Serif" font-size="10.00">string</text>
</a>
</g>
</g>
<!-- Node3&#45;&gt;Node35 -->
<g id="edge48_Node000003_Node000035" class="edge">
<title>Node3&#45;&gt;Node35</title>
<g id="a_edge48_Node000003_Node000035"><a xlink:title=" ">
<path fill="none" stroke="#63b8ff" d="M2838.53,-263.79C2821.31,-253.79 2797.74,-240.09 2777,-228 2737.19,-204.8 2690.91,-177.77 2663.62,-161.81"/>
<polygon fill="#63b8ff" stroke="#63b8ff" points="2665.19,-158.68 2654.79,-156.65 2661.66,-164.72 2665.19,-158.68"/>
</a>
</g>
</g>
<!-- Node37 -->
<g id="Node000037" class="node">
<title>Node37</title>
<g id="a_Node000037"><a xlink:title=" ">
<polygon fill="#e0e0e0" stroke="#999999" points="3086,-156.5 3030,-156.5 3030,-137.5 3086,-137.5 3086,-156.5"/>
<text text-anchor="middle" x="3058" y="-144.5" font-family="Helvetica,sans-Serif" font-size="10.00">optional</text>
</a>
</g>
</g>
<!-- Node3&#45;&gt;Node37 -->
<g id="edge47_Node000003_Node000037" class="edge">
<title>Node3&#45;&gt;Node37</title>
<g id="a_edge47_Node000003_Node000037"><a xlink:title=" ">
<path fill="none" stroke="#63b8ff" d="M2889.83,-263.8C2907.32,-254.25 2930.44,-241.06 2950,-228 2968.19,-215.86 2971.48,-211.08 2989,-198 3005.24,-185.87 3023.86,-172.41 3037.66,-162.51"/>
<polygon fill="#63b8ff" stroke="#63b8ff" points="3039.86,-165.23 3045.96,-156.57 3035.79,-159.54 3039.86,-165.23"/>
</a>
</g>
</g>
<!-- Node40 -->
<g id="Node000040" class="node">
<title>Node40</title>
<g id="a_Node000040"><a xlink:title=" ">
<polygon fill="#e0e0e0" stroke="#999999" points="3152.5,-228 2997.5,-228 2997.5,-198 3152.5,-198 3152.5,-228"/>
<text text-anchor="start" x="3005.5" y="-216" font-family="Helvetica,sans-Serif" font-size="10.00">Hermes/Endpoint/IpEndpoint</text>
<text text-anchor="middle" x="3075" y="-205" font-family="Helvetica,sans-Serif" font-size="10.00">/IpEndpoint.tpp</text>
</a>
</g>
</g>
<!-- Node3&#45;&gt;Node40 -->
<g id="edge49_Node000003_Node000040" class="edge">
<title>Node3&#45;&gt;Node40</title>
<g id="a_edge49_Node000003_Node000040"><a xlink:title=" ">
<path fill="none" stroke="#63b8ff" d="M2909.52,-263.95C2941.7,-254.24 2984.67,-241.27 3018.77,-230.98"/>
<polygon fill="#63b8ff" stroke="#63b8ff" points="3020.02,-234.25 3028.58,-228.01 3018,-227.55 3020.02,-234.25"/>
</a>
</g>
</g>
<!-- Node4&#45;&gt;Node5 -->
<g id="edge4_Node000004_Node000005" class="edge">
<title>Node4&#45;&gt;Node5</title>
<g id="a_edge4_Node000004_Node000005"><a xlink:title=" ">
<path fill="none" stroke="#63b8ff" d="M2593.25,-197.8C2579.67,-188.93 2562.01,-177.39 2547.1,-167.66"/>
<polygon fill="#63b8ff" stroke="#63b8ff" points="2548.98,-164.7 2538.69,-162.16 2545.15,-170.56 2548.98,-164.7"/>
</a>
</g>
</g>
<!-- Node11 -->
<g id="Node000011" class="node">
<title>Node11</title>
<g id="a_Node000011"><a xlink:href="_os_api_8hpp.html" target="_top" xlink:title=" ">
<polygon fill="white" stroke="#666666" points="1227,-162 1109,-162 1109,-132 1227,-132 1227,-162"/>
<text text-anchor="start" x="1117" y="-150" font-family="Helvetica,sans-Serif" font-size="10.00">Hermes/_base/OsApi</text>
<text text-anchor="middle" x="1168" y="-139" font-family="Helvetica,sans-Serif" font-size="10.00">/OsApi.hpp</text>
</a>
</g>
</g>
<!-- Node4&#45;&gt;Node11 -->
<g id="edge10_Node000004_Node000011" class="edge">
<title>Node4&#45;&gt;Node11</title>
<g id="a_edge10_Node000004_Node000011"><a xlink:title=" ">
<path fill="none" stroke="#63b8ff" d="M2548.77,-202.83C2533.44,-200.98 2517.17,-199.22 2502,-198 2019.16,-159.11 1435.52,-150.4 1237.53,-148.5"/>
<polygon fill="#63b8ff" stroke="#63b8ff" points="1237.31,-145 1227.28,-148.41 1237.24,-152 1237.31,-145"/>
</a>
</g>
</g>
<!-- Node6 -->
<g id="Node000006" class="node">
<title>Node6</title>
<g id="a_Node000006"><a xlink:title=" ">
<polygon fill="#e0e0e0" stroke="#999999" points="2680,-85 2618,-85 2618,-66 2680,-66 2680,-85"/>
<text text-anchor="middle" x="2649" y="-73" font-family="Helvetica,sans-Serif" font-size="10.00">expected</text>
</a>
</g>
</g>
<!-- Node5&#45;&gt;Node6 -->
<g id="edge5_Node000005_Node000006" class="edge">
<title>Node5&#45;&gt;Node6</title>
<g id="a_edge5_Node000005_Node000006"><a xlink:title=" ">
<path fill="none" stroke="#63b8ff" d="M2543.71,-131.94C2567.05,-119.65 2600.68,-101.94 2623.62,-89.87"/>
<polygon fill="#63b8ff" stroke="#63b8ff" points="2625.51,-92.82 2632.73,-85.07 2622.25,-86.63 2625.51,-92.82"/>
</a>
</g>
</g>
<!-- Node7 -->
<g id="Node000007" class="node">
<title>Node7</title>
<g id="a_Node000007"><a xlink:title=" ">
<polygon fill="#e0e0e0" stroke="#999999" points="2845.5,-85 2798.5,-85 2798.5,-66 2845.5,-66 2845.5,-85"/>
<text text-anchor="middle" x="2822" y="-73" font-family="Helvetica,sans-Serif" font-size="10.00">vector</text>
</a>
</g>
</g>
<!-- Node5&#45;&gt;Node7 -->
<g id="edge6_Node000005_Node000007" class="edge">
<title>Node5&#45;&gt;Node7</title>
<g id="a_edge6_Node000005_Node000007"><a xlink:title=" ">
<path fill="none" stroke="#63b8ff" d="M2585.1,-131.95C2630.96,-122.3 2692.74,-108.94 2747,-96 2760.63,-92.75 2775.58,-88.91 2788.53,-85.51"/>
<polygon fill="#63b8ff" stroke="#63b8ff" points="2789.64,-88.84 2798.42,-82.89 2787.85,-82.07 2789.64,-88.84"/>
</a>
</g>
</g>
<!-- Node8 -->
<g id="Node000008" class="node">
<title>Node8</title>
<g id="a_Node000008"><a xlink:title=" ">
<polygon fill="#e0e0e0" stroke="#999999" points="2738,-85 2698,-85 2698,-66 2738,-66 2738,-85"/>
<text text-anchor="middle" x="2718" y="-73" font-family="Helvetica,sans-Serif" font-size="10.00">span</text>
</a>
</g>
</g>
<!-- Node5&#45;&gt;Node8 -->
<g id="edge7_Node000005_Node000008" class="edge">
<title>Node5&#45;&gt;Node8</title>
<g id="a_edge7_Node000005_Node000008"><a xlink:title=" ">
<path fill="none" stroke="#63b8ff" d="M2582.84,-131.94C2615.62,-123.68 2655.34,-111.74 2689,-96 2692.13,-94.54 2695.31,-92.76 2698.35,-90.87"/>
<polygon fill="#63b8ff" stroke="#63b8ff" points="2700.55,-93.61 2706.91,-85.14 2696.66,-87.8 2700.55,-93.61"/>
</a>
</g>
</g>
<!-- Node9 -->
<g id="Node000009" class="node">
<title>Node9</title>
<g id="a_Node000009"><a xlink:title=" ">
<polygon fill="#e0e0e0" stroke="#999999" points="2415.5,-85 2290.5,-85 2290.5,-66 2415.5,-66 2415.5,-85"/>
<text text-anchor="middle" x="2353" y="-73" font-family="Helvetica,sans-Serif" font-size="10.00">stdexec/execution.hpp</text>
</a>
</g>
</g>
<!-- Node5&#45;&gt;Node9 -->
<g id="edge8_Node000005_Node000009" class="edge">
<title>Node5&#45;&gt;Node9</title>
<g id="a_edge8_Node000005_Node000009"><a xlink:title=" ">
<path fill="none" stroke="#63b8ff" d="M2483.81,-131.94C2454.17,-119.38 2411.16,-101.15 2382.65,-89.07"/>
<polygon fill="#63b8ff" stroke="#63b8ff" points="2383.79,-85.75 2373.22,-85.07 2381.06,-92.19 2383.79,-85.75"/>
</a>
</g>
</g>
<!-- Node10 -->
<g id="Node000010" class="node">
<title>Node10</title>
<g id="a_Node000010"><a xlink:title=" ">
<polygon fill="#e0e0e0" stroke="#999999" points="2600.5,-90.5 2433.5,-90.5 2433.5,-60.5 2600.5,-60.5 2600.5,-90.5"/>
<text text-anchor="start" x="2441.5" y="-78.5" font-family="Helvetica,sans-Serif" font-size="10.00">Hermes/_base/ConnectionError</text>
<text text-anchor="middle" x="2517" y="-67.5" font-family="Helvetica,sans-Serif" font-size="10.00">Enum.tpp</text>
</a>
</g>
</g>
<!-- Node5&#45;&gt;Node10 -->
<g id="edge9_Node000005_Node000010" class="edge">
<title>Node5&#45;&gt;Node10</title>
<g id="a_edge9_Node000005_Node000010"><a xlink:title=" ">
<path fill="none" stroke="#63b8ff" d="M2517,-131.94C2517,-122.99 2517,-111.16 2517,-100.73"/>
<polygon fill="#63b8ff" stroke="#63b8ff" points="2520.5,-100.54 2517,-90.54 2513.5,-100.54 2520.5,-100.54"/>
</a>
</g>
</g>
<!-- Node12 -->
<g id="Node000012" class="node">
<title>Node12</title>
<g id="a_Node000012"><a xlink:title=" ">
<polygon fill="#e0e0e0" stroke="#999999" points="460.5,-19 383.5,-19 383.5,0 460.5,0 460.5,-19"/>
<text text-anchor="middle" x="422" y="-7" font-family="Helvetica,sans-Serif" font-size="10.00">sys/socket.h</text>
</a>
</g>
</g>
<!-- Node11&#45;&gt;Node12 -->
<g id="edge11_Node000011_Node000012" class="edge">
<title>Node11&#45;&gt;Node12</title>
<g id="a_edge11_Node000011_Node000012"><a xlink:title=" ">
<path fill="none" stroke="#63b8ff" d="M1108.58,-146.6C975.01,-147.09 655.29,-143.13 560,-96 538,-85.12 542.89,-69.38 523,-55 503.51,-40.92 478.87,-29.95 458.8,-22.43"/>
<polygon fill="#63b8ff" stroke="#63b8ff" points="459.95,-19.12 449.36,-19.01 457.57,-25.7 459.95,-19.12"/>
</a>
</g>
</g>
<!-- Node13 -->
<g id="Node000013" class="node">
<title>Node13</title>
<g id="a_Node000013"><a xlink:title=" ">
<polygon fill="#e0e0e0" stroke="#999999" points="1027,-19 955,-19 955,0 1027,0 1027,-19"/>
<text text-anchor="middle" x="991" y="-7" font-family="Helvetica,sans-Serif" font-size="10.00">netinet/in.h</text>
</a>
</g>
</g>
<!-- Node11&#45;&gt;Node13 -->
<g id="edge12_Node000011_Node000013" class="edge">
<title>Node11&#45;&gt;Node13</title>
<g id="a_edge12_Node000011_Node000013"><a xlink:title=" ">
<path fill="none" stroke="#63b8ff" d="M1134.4,-131.86C1115.2,-122.99 1091.2,-110.49 1072,-96 1071.06,-95.29 1029.55,-51.35 1006.33,-26.75"/>
<polygon fill="#63b8ff" stroke="#63b8ff" points="1008.65,-24.1 999.24,-19.23 1003.56,-28.91 1008.65,-24.1"/>
</a>
</g>
</g>
<!-- Node14 -->
<g id="Node000014" class="node">
<title>Node14</title>
<g id="a_Node000014"><a xlink:title=" ">
<polygon fill="#e0e0e0" stroke="#999999" points="815.5,-85 746.5,-85 746.5,-66 815.5,-66 815.5,-85"/>
<text text-anchor="middle" x="781" y="-73" font-family="Helvetica,sans-Serif" font-size="10.00">arpa/inet.h</text>
</a>
</g>
</g>
<!-- Node11&#45;&gt;Node14 -->
<g id="edge13_Node000011_Node000014" class="edge">
<title>Node11&#45;&gt;Node14</title>
<g id="a_edge13_Node000011_Node000014"><a xlink:title=" ">
<path fill="none" stroke="#63b8ff" d="M1108.8,-142.47C1039.39,-137.17 921.44,-124.55 824,-96 818.05,-94.26 811.87,-91.84 806.11,-89.31"/>
<polygon fill="#63b8ff" stroke="#63b8ff" points="807.46,-86.08 796.92,-85.02 804.5,-92.42 807.46,-86.08"/>
</a>
</g>
</g>
<!-- Node15 -->
<g id="Node000015" class="node">
<title>Node15</title>
<g id="a_Node000015"><a xlink:title=" ">
<polygon fill="#e0e0e0" stroke="#999999" points="1687.5,-19 1634.5,-19 1634.5,0 1687.5,0 1687.5,-19"/>
<text text-anchor="middle" x="1661" y="-7" font-family="Helvetica,sans-Serif" font-size="10.00">netdb.h</text>
</a>
</g>
</g>
<!-- Node11&#45;&gt;Node15 -->
<g id="edge14_Node000011_Node000015" class="edge">
<title>Node11&#45;&gt;Node15</title>
<g id="a_edge14_Node000011_Node000015"><a xlink:title=" ">
<path fill="none" stroke="#63b8ff" d="M1227.13,-144.95C1424.04,-141.19 2046.78,-126.87 2076,-96 2088.53,-82.77 2088.18,-68.55 2076,-55 2050.91,-27.08 1794.5,-15.2 1697.71,-11.69"/>
<polygon fill="#63b8ff" stroke="#63b8ff" points="1697.64,-8.18 1687.52,-11.33 1697.39,-15.18 1697.64,-8.18"/>
</a>
</g>
</g>
<!-- Node16 -->
<g id="Node000016" class="node">
<title>Node16</title>
<g id="a_Node000016"><a xlink:title=" ">
<polygon fill="#e0e0e0" stroke="#999999" points="1137,-85 1081,-85 1081,-66 1137,-66 1137,-85"/>
<text text-anchor="middle" x="1109" y="-73" font-family="Helvetica,sans-Serif" font-size="10.00">unistd.h</text>
</a>
</g>
</g>
<!-- Node11&#45;&gt;Node16 -->
<g id="edge15_Node000011_Node000016" class="edge">
<title>Node11&#45;&gt;Node16</title>
<g id="a_edge15_Node000011_Node000016"><a xlink:title=" ">
<path fill="none" stroke="#63b8ff" d="M1156.06,-131.94C1146.52,-120.7 1133.14,-104.93 1123.08,-93.08"/>
<polygon fill="#63b8ff" stroke="#63b8ff" points="1125.58,-90.63 1116.44,-85.27 1120.25,-95.16 1125.58,-90.63"/>
</a>
</g>
</g>
<!-- Node17 -->
<g id="Node000017" class="node">
<title>Node17</title>
<g id="a_Node000017"><a xlink:href="_conversion_and_literals_8hpp.html" target="_top" xlink:title=" ">
<polygon fill="white" stroke="#666666" points="2273,-90.5 2123,-90.5 2123,-60.5 2273,-60.5 2273,-90.5"/>
<text text-anchor="start" x="2131" y="-78.5" font-family="Helvetica,sans-Serif" font-size="10.00">Hermes/_base/OsApi</text>
<text text-anchor="middle" x="2198" y="-67.5" font-family="Helvetica,sans-Serif" font-size="10.00">/ConversionAndLiterals.hpp</text>
</a>
</g>
</g>
<!-- Node11&#45;&gt;Node17 -->
<g id="edge16_Node000011_Node000017" class="edge">
<title>Node11&#45;&gt;Node17</title>
<g id="a_edge16_Node000011_Node000017"><a xlink:title=" ">
<path fill="none" stroke="#63b8ff" d="M1227.22,-146.19C1376.11,-145.93 1777.86,-140.77 2109,-96 2115.85,-95.07 2122.95,-93.9 2130.01,-92.58"/>
<polygon fill="#63b8ff" stroke="#63b8ff" points="2131.17,-95.92 2140.31,-90.57 2129.83,-89.05 2131.17,-95.92"/>
</a>
</g>
</g>
<!-- Node19 -->
<g id="Node000019" class="node">
<title>Node19</title>
<g id="a_Node000019"><a xlink:href="_macros_8hpp.html" target="_top" xlink:title=" ">
<polygon fill="white" stroke="#666666" points="118,-90.5 0,-90.5 0,-60.5 118,-60.5 118,-90.5"/>
<text text-anchor="start" x="8" y="-78.5" font-family="Helvetica,sans-Serif" font-size="10.00">Hermes/_base/OsApi</text>
<text text-anchor="middle" x="59" y="-67.5" font-family="Helvetica,sans-Serif" font-size="10.00">/Macros.hpp</text>
</a>
</g>
</g>
<!-- Node11&#45;&gt;Node19 -->
<g id="edge18_Node000011_Node000019" class="edge">
<title>Node11&#45;&gt;Node19</title>
<g id="a_edge18_Node000011_Node000019"><a xlink:title=" ">
<path fill="none" stroke="#63b8ff" d="M1108.89,-144.96C917.82,-141.3 318.13,-127.56 127,-96 122.18,-95.2 117.22,-94.18 112.27,-93.03"/>
<polygon fill="#63b8ff" stroke="#63b8ff" points="112.74,-89.54 102.19,-90.5 111.04,-96.33 112.74,-89.54"/>
</a>
</g>
</g>
<!-- Node21 -->
<g id="Node000021" class="node">
<title>Node21</title>
<g id="a_Node000021"><a xlink:href="_address_family_enum_8hpp.html" target="_top" xlink:title=" ">
<polygon fill="white" stroke="#666666" points="312,-90.5 136,-90.5 136,-60.5 312,-60.5 312,-90.5"/>
<text text-anchor="start" x="144" y="-78.5" font-family="Helvetica,sans-Serif" font-size="10.00">Hermes/_base/OsApi</text>
<text text-anchor="middle" x="224" y="-67.5" font-family="Helvetica,sans-Serif" font-size="10.00">/Enums/AddressFamilyEnum.hpp</text>
</a>
</g>
</g>
<!-- Node11&#45;&gt;Node21 -->
<g id="edge21_Node000011_Node000021" class="edge">
<title>Node11&#45;&gt;Node21</title>
<g id="a_edge21_Node000011_Node000021"><a xlink:title=" ">
<path fill="none" stroke="#63b8ff" d="M1108.87,-145.39C970.4,-143.32 614.49,-134.4 320,-96 312.35,-95 304.4,-93.75 296.49,-92.36"/>
<polygon fill="#63b8ff" stroke="#63b8ff" points="297,-88.89 286.53,-90.53 295.73,-95.77 297,-88.89"/>
</a>
</g>
</g>
<!-- Node22 -->
<g id="Node000022" class="node">
<title>Node22</title>
<g id="a_Node000022"><a xlink:href="_protocol_base_type_enum_8hpp.html" target="_top" xlink:title=" ">
<polygon fill="white" stroke="#666666" points="1024.5,-90.5 833.5,-90.5 833.5,-60.5 1024.5,-60.5 1024.5,-90.5"/>
<text text-anchor="start" x="841.5" y="-78.5" font-family="Helvetica,sans-Serif" font-size="10.00">Hermes/_base/OsApi</text>
<text text-anchor="middle" x="929" y="-67.5" font-family="Helvetica,sans-Serif" font-size="10.00">/Enums/ProtocolBaseTypeEnum.hpp</text>
</a>
</g>
</g>
<!-- Node11&#45;&gt;Node22 -->
<g id="edge23_Node000011_Node000022" class="edge">
<title>Node11&#45;&gt;Node22</title>
<g id="a_edge23_Node000011_Node000022"><a xlink:title=" ">
<path fill="none" stroke="#63b8ff" d="M1119.63,-131.94C1081.33,-120.8 1027.69,-105.2 987.06,-93.38"/>
<polygon fill="#63b8ff" stroke="#63b8ff" points="987.87,-89.98 977.29,-90.54 985.92,-96.7 987.87,-89.98"/>
</a>
</g>
</g>
<!-- Node23 -->
<g id="Node000023" class="node">
<title>Node23</title>
<g id="a_Node000023"><a xlink:href="_socket_shutdown_enum_8hpp.html" target="_top" xlink:title=" ">
<polygon fill="white" stroke="#666666" points="514.5,-90.5 329.5,-90.5 329.5,-60.5 514.5,-60.5 514.5,-90.5"/>
<text text-anchor="start" x="337.5" y="-78.5" font-family="Helvetica,sans-Serif" font-size="10.00">Hermes/_base/OsApi</text>
<text text-anchor="middle" x="422" y="-67.5" font-family="Helvetica,sans-Serif" font-size="10.00">/Enums/SocketShutdownEnum.hpp</text>
</a>
</g>
</g>
<!-- Node11&#45;&gt;Node23 -->
<g id="edge25_Node000011_Node000023" class="edge">
<title>Node11&#45;&gt;Node23</title>
<g id="a_edge25_Node000011_Node000023"><a xlink:title=" ">
<path fill="none" stroke="#63b8ff" d="M1108.67,-143.43C995.41,-138.06 740.73,-123.8 528,-96 519.73,-94.92 511.13,-93.62 502.56,-92.22"/>
<polygon fill="#63b8ff" stroke="#63b8ff" points="502.98,-88.74 492.54,-90.53 501.82,-95.65 502.98,-88.74"/>
</a>
</g>
</g>
<!-- Node24 -->
<g id="Node000024" class="node">
<title>Node24</title>
<g id="a_Node000024"><a xlink:href="_socket_type_enum_8hpp.html" target="_top" xlink:title=" ">
<polygon fill="white" stroke="#666666" points="728.5,-90.5 569.5,-90.5 569.5,-60.5 728.5,-60.5 728.5,-90.5"/>
<text text-anchor="start" x="577.5" y="-78.5" font-family="Helvetica,sans-Serif" font-size="10.00">Hermes/_base/OsApi</text>
<text text-anchor="middle" x="649" y="-67.5" font-family="Helvetica,sans-Serif" font-size="10.00">/Enums/SocketTypeEnum.hpp</text>
</a>
</g>
</g>
<!-- Node11&#45;&gt;Node24 -->
<g id="edge27_Node000011_Node000024" class="edge">
<title>Node11&#45;&gt;Node24</title>
<g id="a_edge27_Node000011_Node000024"><a xlink:title=" ">
<path fill="none" stroke="#63b8ff" d="M1108.82,-141.07C1025.5,-133.69 869.04,-118.23 737,-96 730.92,-94.98 724.64,-93.81 718.34,-92.56"/>
<polygon fill="#63b8ff" stroke="#63b8ff" points="718.98,-89.12 708.48,-90.55 717.58,-95.98 718.98,-89.12"/>
</a>
</g>
</g>
<!-- Node25 -->
<g id="Node000025" class="node">
<title>Node25</title>
<g id="a_Node000025"><a xlink:href="_linux_2_encrypt_status_enum_8hpp.html" target="_top" xlink:title=" ">
<polygon fill="white" stroke="#666666" points="1469,-96 1317,-96 1317,-55 1469,-55 1469,-96"/>
<text text-anchor="start" x="1325" y="-84" font-family="Helvetica,sans-Serif" font-size="10.00">Hermes/_base/OsApi</text>
<text text-anchor="start" x="1325" y="-73" font-family="Helvetica,sans-Serif" font-size="10.00">/Enums/Linux/EncryptStatus</text>
<text text-anchor="middle" x="1393" y="-62" font-family="Helvetica,sans-Serif" font-size="10.00">Enum.hpp</text>
</a>
</g>
</g>
<!-- Node11&#45;&gt;Node25 -->
<g id="edge29_Node000011_Node000025" class="edge">
<title>Node11&#45;&gt;Node25</title>
<g id="a_edge29_Node000011_Node000025"><a xlink:title=" ">
<path fill="none" stroke="#63b8ff" d="M1213.53,-131.94C1244.05,-122.51 1284.9,-109.89 1319.92,-99.07"/>
<polygon fill="#63b8ff" stroke="#63b8ff" points="1321.11,-102.37 1329.63,-96.07 1319.04,-95.68 1321.11,-102.37"/>
</a>
</g>
</g>
<!-- Node26 -->
<g id="Node000026" class="node">
<title>Node26</title>
<g id="a_Node000026"><a xlink:href="_name_info_flags_8hpp.html" target="_top" xlink:title=" ">
<polygon fill="white" stroke="#666666" points="1299,-90.5 1155,-90.5 1155,-60.5 1299,-60.5 1299,-90.5"/>
<text text-anchor="start" x="1163" y="-78.5" font-family="Helvetica,sans-Serif" font-size="10.00">Hermes/_base/OsApi</text>
<text text-anchor="middle" x="1227" y="-67.5" font-family="Helvetica,sans-Serif" font-size="10.00">/Flags/NameInfoFlags.hpp</text>
</a>
</g>
</g>
<!-- Node11&#45;&gt;Node26 -->
<g id="edge30_Node000011_Node000026" class="edge">
<title>Node11&#45;&gt;Node26</title>
<g id="a_edge30_Node000011_Node000026"><a xlink:title=" ">
<path fill="none" stroke="#63b8ff" d="M1179.94,-131.94C1188.1,-122.33 1199.07,-109.4 1208.37,-98.45"/>
<polygon fill="#63b8ff" stroke="#63b8ff" points="1211.27,-100.43 1215.08,-90.54 1205.94,-95.9 1211.27,-100.43"/>
</a>
</g>
</g>
<!-- Node27 -->
<g id="Node000027" class="node">
<title>Node27</title>
<g id="a_Node000027"><a xlink:href="_linux_2_credential_flags_8hpp.html" target="_top" xlink:title=" ">
<polygon fill="white" stroke="#666666" points="1663,-90.5 1487,-90.5 1487,-60.5 1663,-60.5 1663,-90.5"/>
<text text-anchor="start" x="1495" y="-78.5" font-family="Helvetica,sans-Serif" font-size="10.00">Hermes/_base/OsApi</text>
<text text-anchor="middle" x="1575" y="-67.5" font-family="Helvetica,sans-Serif" font-size="10.00">/Flags/Linux/CredentialFlags.hpp</text>
</a>
</g>
</g>
<!-- Node11&#45;&gt;Node27 -->
<g id="edge32_Node000011_Node000027" class="edge">
<title>Node11&#45;&gt;Node27</title>
<g id="a_edge32_Node000011_Node000027"><a xlink:title=" ">
<path fill="none" stroke="#63b8ff" d="M1227.26,-137.14C1289.73,-127.63 1390.97,-111.76 1478,-96 1484.16,-94.89 1490.52,-93.69 1496.92,-92.47"/>
<polygon fill="#63b8ff" stroke="#63b8ff" points="1497.81,-95.86 1506.96,-90.52 1496.48,-88.99 1497.81,-95.86"/>
</a>
</g>
</g>
<!-- Node28 -->
<g id="Node000028" class="node">
<title>Node28</title>
<g id="a_Node000028"><a xlink:href="_linux_2_supported_protocols_flags_8hpp.html" target="_top" xlink:title=" ">
<polygon fill="white" stroke="#666666" points="1854.5,-96 1681.5,-96 1681.5,-55 1854.5,-55 1854.5,-96"/>
<text text-anchor="start" x="1689.5" y="-84" font-family="Helvetica,sans-Serif" font-size="10.00">Hermes/_base/OsApi</text>
<text text-anchor="start" x="1689.5" y="-73" font-family="Helvetica,sans-Serif" font-size="10.00">/Flags/Linux/SupportedProtocols</text>
<text text-anchor="middle" x="1768" y="-62" font-family="Helvetica,sans-Serif" font-size="10.00">Flags.hpp</text>
</a>
</g>
</g>
<!-- Node11&#45;&gt;Node28 -->
<g id="edge33_Node000011_Node000028" class="edge">
<title>Node11&#45;&gt;Node28</title>
<g id="a_edge33_Node000011_Node000028"><a xlink:title=" ">
<path fill="none" stroke="#63b8ff" d="M1227.21,-142.08C1319.8,-135.53 1504.62,-120.71 1671.51,-95.99"/>
<polygon fill="#63b8ff" stroke="#63b8ff" points="1672.09,-99.44 1681.46,-94.5 1671.06,-92.52 1672.09,-99.44"/>
</a>
</g>
</g>
<!-- Node29 -->
<g id="Node000029" class="node">
<title>Node29</title>
<g id="a_Node000029"><a xlink:href="_linux_2_s_channel_cred_flags_8hpp.html" target="_top" xlink:title=" ">
<polygon fill="white" stroke="#666666" points="2067,-90.5 1873,-90.5 1873,-60.5 2067,-60.5 2067,-90.5"/>
<text text-anchor="start" x="1881" y="-78.5" font-family="Helvetica,sans-Serif" font-size="10.00">Hermes/_base/OsApi</text>
<text text-anchor="middle" x="1970" y="-67.5" font-family="Helvetica,sans-Serif" font-size="10.00">/Flags/Linux/SChannelCredFlags.hpp</text>
</a>
</g>
</g>
<!-- Node11&#45;&gt;Node29 -->
<g id="edge34_Node000011_Node000029" class="edge">
<title>Node11&#45;&gt;Node29</title>
<g id="a_edge34_Node000011_Node000029"><a xlink:title=" ">
<path fill="none" stroke="#63b8ff" d="M1227.25,-143.91C1347.5,-139.18 1628.68,-125.69 1863,-96 1871.51,-94.92 1880.36,-93.61 1889.17,-92.19"/>
<polygon fill="#63b8ff" stroke="#63b8ff" points="1889.8,-95.63 1899.09,-90.54 1888.65,-88.73 1889.8,-95.63"/>
</a>
</g>
</g>
<!-- Node18 -->
<g id="Node000018" class="node">
<title>Node18</title>
<g id="a_Node000018"><a xlink:title=" ">
<polygon fill="#e0e0e0" stroke="#999999" points="2223,-19 2173,-19 2173,0 2223,0 2223,-19"/>
<text text-anchor="middle" x="2198" y="-7" font-family="Helvetica,sans-Serif" font-size="10.00">cstdint</text>
</a>
</g>
</g>
<!-- Node17&#45;&gt;Node18 -->
<g id="edge17_Node000017_Node000018" class="edge">
<title>Node17&#45;&gt;Node18</title>
<g id="a_edge17_Node000017_Node000018"><a xlink:title=" ">
<path fill="none" stroke="#63b8ff" d="M2198,-60.3C2198,-51.2 2198,-39.29 2198,-29.4"/>
<polygon fill="#63b8ff" stroke="#63b8ff" points="2201.5,-29.34 2198,-19.34 2194.5,-29.34 2201.5,-29.34"/>
</a>
</g>
</g>
<!-- Node19&#45;&gt;Node12 -->
<g id="edge20_Node000019_Node000012" class="edge">
<title>Node19&#45;&gt;Node12</title>
<g id="a_edge20_Node000019_Node000012"><a xlink:title=" ">
<path fill="none" stroke="#63b8ff" d="M104.88,-60.47C112.24,-58.47 119.8,-56.57 127,-55 212.7,-36.33 314.09,-22.89 372.93,-15.93"/>
<polygon fill="#63b8ff" stroke="#63b8ff" points="373.52,-19.38 383.05,-14.74 372.71,-12.43 373.52,-19.38"/>
</a>
</g>
</g>
<!-- Node20 -->
<g id="Node000020" class="node">
<title>Node20</title>
<g id="a_Node000020"><a xlink:title=" ">
<polygon fill="#e0e0e0" stroke="#999999" points="95.5,-19 22.5,-19 22.5,0 95.5,0 95.5,-19"/>
<text text-anchor="middle" x="59" y="-7" font-family="Helvetica,sans-Serif" font-size="10.00">string_view</text>
</a>
</g>
</g>
<!-- Node19&#45;&gt;Node20 -->
<g id="edge19_Node000019_Node000020" class="edge">
<title>Node19&#45;&gt;Node20</title>
<g id="a_edge19_Node000019_Node000020"><a xlink:title=" ">
<path fill="none" stroke="#63b8ff" d="M59,-60.3C59,-51.2 59,-39.29 59,-29.4"/>
<polygon fill="#63b8ff" stroke="#63b8ff" points="62.5,-29.34 59,-19.34 55.5,-29.34 62.5,-29.34"/>
</a>
</g>
</g>
<!-- Node21&#45;&gt;Node12 -->
<g id="edge22_Node000021_Node000012" class="edge">
<title>Node21&#45;&gt;Node12</title>
<g id="a_edge22_Node000021_Node000012"><a xlink:title=" ">
<path fill="none" stroke="#63b8ff" d="M267.45,-60.45C302.94,-48.98 352.51,-32.96 385.86,-22.18"/>
<polygon fill="#63b8ff" stroke="#63b8ff" points="387.21,-25.42 395.65,-19.02 385.06,-18.76 387.21,-25.42"/>
</a>
</g>
</g>
<!-- Node22&#45;&gt;Node13 -->
<g id="edge24_Node000022_Node000013" class="edge">
<title>Node22&#45;&gt;Node13</title>
<g id="a_edge24_Node000022_Node000013"><a xlink:title=" ">
<path fill="none" stroke="#63b8ff" d="M942.76,-60.3C952.43,-50.32 965.37,-36.96 975.42,-26.59"/>
<polygon fill="#63b8ff" stroke="#63b8ff" points="977.99,-28.96 982.43,-19.34 972.96,-24.09 977.99,-28.96"/>
</a>
</g>
</g>
<!-- Node23&#45;&gt;Node12 -->
<g id="edge26_Node000023_Node000012" class="edge">
<title>Node23&#45;&gt;Node12</title>
<g id="a_edge26_Node000023_Node000012"><a xlink:title=" ">
<path fill="none" stroke="#63b8ff" d="M422,-60.3C422,-51.2 422,-39.29 422,-29.4"/>
<polygon fill="#63b8ff" stroke="#63b8ff" points="425.5,-29.34 422,-19.34 418.5,-29.34 425.5,-29.34"/>
</a>
</g>
</g>
<!-- Node24&#45;&gt;Node12 -->
<g id="edge28_Node000024_Node000012" class="edge">
<title>Node24&#45;&gt;Node12</title>
<g id="a_edge28_Node000024_Node000012"><a xlink:title=" ">
<path fill="none" stroke="#63b8ff" d="M599.18,-60.45C557.97,-48.84 500.2,-32.55 461.96,-21.77"/>
<polygon fill="#63b8ff" stroke="#63b8ff" points="462.78,-18.36 452.21,-19.02 460.88,-25.1 462.78,-18.36"/>
</a>
</g>
</g>
<!-- Node26&#45;&gt;Node15 -->
<g id="edge31_Node000026_Node000015" class="edge">
<title>Node26&#45;&gt;Node15</title>
<g id="a_edge31_Node000026_Node000015"><a xlink:title=" ">
<path fill="none" stroke="#63b8ff" d="M1281.72,-60.46C1290.48,-58.46 1299.46,-56.56 1308,-55 1422.54,-34.06 1559.8,-19.83 1624.21,-13.78"/>
<polygon fill="#63b8ff" stroke="#63b8ff" points="1624.64,-17.26 1634.28,-12.85 1624,-10.29 1624.64,-17.26"/>
</a>
</g>
</g>
<!-- Node30&#45;&gt;Node7 -->
<g id="edge43_Node000030_Node000007" class="edge">
<title>Node30&#45;&gt;Node7</title>
<g id="a_edge43_Node000030_Node000007"><a xlink:title=" ">
<path fill="none" stroke="#63b8ff" d="M2860.59,-197.93C2857.66,-181.8 2852.19,-154.66 2845,-132 2840.94,-119.19 2835.14,-105.22 2830.38,-94.5"/>
<polygon fill="#63b8ff" stroke="#63b8ff" points="2833.55,-93.02 2826.23,-85.36 2827.18,-95.91 2833.55,-93.02"/>
</a>
</g>
</g>
<!-- Node30&#45;&gt;Node31 -->
<g id="edge36_Node000030_Node000031" class="edge">
<title>Node30&#45;&gt;Node31</title>
<g id="a_edge36_Node000030_Node000031"><a xlink:title=" ">
<path fill="none" stroke="#63b8ff" d="M2930.15,-197.95C2986.89,-186.09 3066.92,-169.35 3118.38,-158.59"/>
<polygon fill="#63b8ff" stroke="#63b8ff" points="3119.2,-161.99 3128.28,-156.52 3117.77,-155.14 3119.2,-161.99"/>
</a>
</g>
</g>
<!-- Node30&#45;&gt;Node34 -->
<g id="edge39_Node000030_Node000034" class="edge">
<title>Node30&#45;&gt;Node34</title>
<g id="a_edge39_Node000030_Node000034"><a xlink:title=" ">
<path fill="none" stroke="#63b8ff" d="M2940.72,-203.06C3043.41,-191.05 3214.69,-170.25 3243,-162 3244.45,-161.58 3245.92,-161.09 3247.38,-160.57"/>
<polygon fill="#63b8ff" stroke="#63b8ff" points="3248.95,-163.7 3256.85,-156.64 3246.27,-157.24 3248.95,-163.7"/>
</a>
</g>
</g>
<!-- Node30&#45;&gt;Node35 -->
<g id="edge40_Node000030_Node000035" class="edge">
<title>Node30&#45;&gt;Node35</title>
<g id="a_edge40_Node000030_Node000035"><a xlink:title=" ">
<path fill="none" stroke="#63b8ff" d="M2797.74,-197.91C2760.2,-189.08 2712.41,-176.62 2671,-162 2669.61,-161.51 2668.19,-160.98 2666.77,-160.42"/>
<polygon fill="#63b8ff" stroke="#63b8ff" points="2668.07,-157.17 2657.49,-156.52 2665.35,-163.63 2668.07,-157.17"/>
</a>
</g>
</g>
<!-- Node36 -->
<g id="Node000036" class="node">
<title>Node36</title>
<g id="a_Node000036"><a xlink:title=" ">
<polygon fill="#e0e0e0" stroke="#999999" points="2943.5,-156.5 2892.5,-156.5 2892.5,-137.5 2943.5,-137.5 2943.5,-156.5"/>
<text text-anchor="middle" x="2918" y="-144.5" font-family="Helvetica,sans-Serif" font-size="10.00">variant</text>
</a>
</g>
</g>
<!-- Node30&#45;&gt;Node36 -->
<g id="edge41_Node000030_Node000036" class="edge">
<title>Node30&#45;&gt;Node36</title>
<g id="a_edge41_Node000030_Node000036"><a xlink:title=" ">
<path fill="none" stroke="#63b8ff" d="M2875.21,-197.8C2883.61,-188.01 2894.81,-174.98 2903.65,-164.7"/>
<polygon fill="#63b8ff" stroke="#63b8ff" points="2906.54,-166.71 2910.4,-156.84 2901.23,-162.15 2906.54,-166.71"/>
</a>
</g>
</g>
<!-- Node30&#45;&gt;Node37 -->
<g id="edge42_Node000030_Node000037" class="edge">
<title>Node30&#45;&gt;Node37</title>
<g id="a_edge42_Node000030_Node000037"><a xlink:title=" ">
<path fill="none" stroke="#63b8ff" d="M2909.89,-197.91C2941.44,-188.24 2983.9,-174.88 3021,-162 3022.65,-161.43 3024.34,-160.83 3026.04,-160.22"/>
<polygon fill="#63b8ff" stroke="#63b8ff" points="3027.59,-163.38 3035.77,-156.64 3025.17,-156.81 3027.59,-163.38"/>
</a>
</g>
</g>
<!-- Node38 -->
<g id="Node000038" class="node">
<title>Node38</title>
<g id="a_Node000038"><a xlink:title=" ">
<polygon fill="#e0e0e0" stroke="#999999" points="3012,-156.5 2962,-156.5 2962,-137.5 3012,-137.5 3012,-156.5"/>
<text text-anchor="middle" x="2987" y="-144.5" font-family="Helvetica,sans-Serif" font-size="10.00">format</text>
</a>
</g>
</g>
<!-- Node30&#45;&gt;Node38 -->
<g id="edge44_Node000030_Node000038" class="edge">
<title>Node30&#45;&gt;Node38</title>
<g id="a_edge44_Node000030_Node000038"><a xlink:title=" ">
<path fill="none" stroke="#63b8ff" d="M2890.21,-197.95C2911.48,-186.98 2940.82,-171.83 2961.61,-161.11"/>
<polygon fill="#63b8ff" stroke="#63b8ff" points="2963.22,-164.21 2970.5,-156.52 2960.01,-157.99 2963.22,-164.21"/>
</a>
</g>
</g>
<!-- Node39 -->
<g id="Node000039" class="node">
<title>Node39</title>
<g id="a_Node000039"><a xlink:title=" ">
<polygon fill="#e0e0e0" stroke="#999999" points="2835.5,-162 2680.5,-162 2680.5,-132 2835.5,-132 2835.5,-162"/>
<text text-anchor="start" x="2688.5" y="-150" font-family="Helvetica,sans-Serif" font-size="10.00">Hermes/Endpoint/IpEndpoint</text>
<text text-anchor="middle" x="2758" y="-139" font-family="Helvetica,sans-Serif" font-size="10.00">/IpAddress.tpp</text>
</a>
</g>
</g>
<!-- Node30&#45;&gt;Node39 -->
<g id="edge45_Node000030_Node000039" class="edge">
<title>Node30&#45;&gt;Node39</title>
<g id="a_edge45_Node000030_Node000039"><a xlink:title=" ">
<path fill="none" stroke="#63b8ff" d="M2839.96,-197.95C2825.19,-188.95 2805.81,-177.14 2789.61,-167.27"/>
<polygon fill="#63b8ff" stroke="#63b8ff" points="2791.35,-164.23 2780.99,-162.01 2787.71,-170.21 2791.35,-164.23"/>
</a>
</g>
</g>
<!-- Node32 -->
<g id="Node000032" class="node">
<title>Node32</title>
<g id="a_Node000032"><a xlink:title=" ">
<polygon fill="#e0e0e0" stroke="#999999" points="3155.5,-85 3110.5,-85 3110.5,-66 3155.5,-66 3155.5,-85"/>
<text text-anchor="middle" x="3133" y="-73" font-family="Helvetica,sans-Serif" font-size="10.00">utility</text>
</a>
</g>
</g>
<!-- Node31&#45;&gt;Node32 -->
<g id="edge37_Node000031_Node000032" class="edge">
<title>Node31&#45;&gt;Node32</title>
<g id="a_edge37_Node000031_Node000032"><a xlink:title=" ">
<path fill="none" stroke="#63b8ff" d="M3164.59,-137.48C3159.03,-126.74 3149.33,-108.03 3142.15,-94.16"/>
<polygon fill="#63b8ff" stroke="#63b8ff" points="3145.16,-92.36 3137.45,-85.09 3138.94,-95.58 3145.16,-92.36"/>
</a>
</g>
</g>
<!-- Node33 -->
<g id="Node000033" class="node">
<title>Node33</title>
<g id="a_Node000033"><a xlink:title=" ">
<polygon fill="#e0e0e0" stroke="#999999" points="3238.5,-85 3173.5,-85 3173.5,-66 3238.5,-66 3238.5,-85"/>
<text text-anchor="middle" x="3206" y="-73" font-family="Helvetica,sans-Serif" font-size="10.00">functional</text>
</a>
</g>
</g>
<!-- Node31&#45;&gt;Node33 -->
<g id="edge38_Node000031_Node000033" class="edge">
<title>Node31&#45;&gt;Node33</title>
<g id="a_edge38_Node000031_Node000033"><a xlink:title=" ">
<path fill="none" stroke="#63b8ff" d="M3173.54,-137.48C3179.25,-126.74 3189.21,-108.03 3196.6,-94.16"/>
<polygon fill="#63b8ff" stroke="#63b8ff" points="3199.82,-95.56 3201.43,-85.09 3193.64,-92.27 3199.82,-95.56"/>
</a>
</g>
</g>
<!-- Node42&#45;&gt;Node4 -->
<g id="edge52_Node000042_Node000004" class="edge">
<title>Node42&#45;&gt;Node4</title>
<g id="a_edge52_Node000042_Node000004"><a xlink:title=" ">
<path fill="none" stroke="#63b8ff" d="M2511.18,-269.37C2528.61,-260.07 2556.89,-244.99 2579.54,-232.91"/>
<polygon fill="#63b8ff" stroke="#63b8ff" points="2581.36,-235.91 2588.53,-228.12 2578.06,-229.73 2581.36,-235.91"/>
</a>
</g>
</g>
<!-- Node42&#45;&gt;Node5 -->
<g id="edge53_Node000042_Node000005" class="edge">
<title>Node42&#45;&gt;Node5</title>
<g id="a_edge53_Node000042_Node000005"><a xlink:title=" ">
<path fill="none" stroke="#63b8ff" d="M2496.44,-269.47C2499.75,-249.95 2507.96,-201.45 2512.94,-171.97"/>
<polygon fill="#63b8ff" stroke="#63b8ff" points="2516.4,-172.51 2514.62,-162.07 2509.5,-171.34 2516.4,-172.51"/>
</a>
</g>
</g>
<!-- Node42&#45;&gt;Node9 -->
<g id="edge55_Node000042_Node000009" class="edge">
<title>Node42&#45;&gt;Node9</title>
<g id="a_edge55_Node000042_Node000009"><a xlink:title=" ">
<path fill="none" stroke="#63b8ff" d="M2424.45,-269.46C2398.66,-262.57 2371.93,-250.19 2356,-228 2327.31,-188.03 2338.94,-125.6 2347.29,-94.86"/>
<polygon fill="#63b8ff" stroke="#63b8ff" points="2350.7,-95.65 2350.14,-85.07 2343.98,-93.69 2350.7,-95.65"/>
</a>
</g>
</g>
<!-- Node42&#45;&gt;Node11 -->
<g id="edge54_Node000042_Node000011" class="edge">
<title>Node42&#45;&gt;Node11</title>
<g id="a_edge54_Node000042_Node000011"><a xlink:title=" ">
<path fill="none" stroke="#63b8ff" d="M2423.18,-270.96C2191.48,-248.27 1465.56,-177.15 1237.37,-154.8"/>
<polygon fill="#63b8ff" stroke="#63b8ff" points="1237.5,-151.29 1227.21,-153.8 1236.82,-158.26 1237.5,-151.29"/>
</a>
</g>
</g>
<!-- Node43 -->
<g id="Node000043" class="node">
<title>Node43</title>
<g id="a_Node000043"><a xlink:title=" ">
<polygon fill="#e0e0e0" stroke="#999999" points="2425,-222.5 2365,-222.5 2365,-203.5 2425,-203.5 2425,-222.5"/>
<text text-anchor="middle" x="2395" y="-210.5" font-family="Helvetica,sans-Serif" font-size="10.00">concepts</text>
</a>
</g>
</g>
<!-- Node42&#45;&gt;Node43 -->
<g id="edge56_Node000042_Node000043" class="edge">
<title>Node42&#45;&gt;Node43</title>
<g id="a_edge56_Node000042_Node000043"><a xlink:title=" ">
<path fill="none" stroke="#63b8ff" d="M2481.51,-269.37C2465.04,-258.82 2436.93,-240.84 2417.24,-228.23"/>
<polygon fill="#63b8ff" stroke="#63b8ff" points="2418.9,-225.14 2408.59,-222.7 2415.13,-231.04 2418.9,-225.14"/>
</a>
</g>
</g>
<!-- Node44 -->
<g id="Node000044" class="node">
<title>Node44</title>
<g id="a_Node000044"><a xlink:title=" ">
<polygon fill="#e0e0e0" stroke="#999999" points="2493,-222.5 2443,-222.5 2443,-203.5 2493,-203.5 2493,-222.5"/>
<text text-anchor="middle" x="2468" y="-210.5" font-family="Helvetica,sans-Serif" font-size="10.00">ranges</text>
</a>
</g>
</g>
<!-- Node42&#45;&gt;Node44 -->
<g id="edge57_Node000042_Node000044" class="edge">
<title>Node42&#45;&gt;Node44</title>
<g id="a_edge57_Node000042_Node000044"><a xlink:title=" ">
<path fill="none" stroke="#63b8ff" d="M2491.36,-269.37C2487.36,-259.88 2480.81,-244.36 2475.66,-232.16"/>
<polygon fill="#63b8ff" stroke="#63b8ff" points="2478.87,-230.76 2471.76,-222.91 2472.42,-233.48 2478.87,-230.76"/>
</a>
</g>
</g>
</g>
</svg>
