<?xml version="1.0" encoding="UTF-8" standalone="no"?>
<!DOCTYPE svg PUBLIC "-//W3C//DTD SVG 1.1//EN"
 "http://www.w3.org/Graphics/SVG/1.1/DTD/svg11.dtd">
<!-- Generated by graphviz version 2.43.0 (0)
 -->
<!-- Title: include/Hermes/Socket/Sync/_base/Connection/DefaultConnectPolicy.hpp Pages: 1 -->
<svg width="3352pt" height="456pt"
 viewBox="0.00 0.00 3351.85 456.00" xmlns="http://www.w3.org/2000/svg" xmlns:xlink="http://www.w3.org/1999/xlink">
<g id="graph0" class="graph" transform="scale(1 1) rotate(0) translate(4 452)">
<title>include/Hermes/Socket/Sync/_base/Connection/DefaultConnectPolicy.hpp</title>
<!-- Node1 -->
<g id="Node000001" class="node">
<title>Node1</title>
<g id="a_Node000001"><a xlink:title=" ">
<polygon fill="#999999" stroke="#666666" points="851.5,-448 707.5,-448 707.5,-407 851.5,-407 851.5,-448"/>
<text text-anchor="start" x="715.5" y="-436" font-family="Helvetica,sans-Serif" font-size="10.00">include/Hermes/Socket</text>
<text text-anchor="start" x="715.5" y="-425" font-family="Helvetica,sans-Serif" font-size="10.00">/Sync/_base/Connection</text>
<text text-anchor="middle" x="779.5" y="-414" font-family="Helvetica,sans-Serif" font-size="10.00">/DefaultConnectPolicy.hpp</text>
</a>
</g>
</g>
<!-- Node2 -->
<g id="Node000002" class="node">
<title>Node2</title>
<g id="a_Node000002"><a xlink:href="_ip_endpoint_8hpp.html" target="_top" xlink:title=" ">
<polygon fill="white" stroke="#666666" points="657,-294 502,-294 502,-264 657,-264 657,-294"/>
<text text-anchor="start" x="510" y="-282" font-family="Helvetica,sans-Serif" font-size="10.00">Hermes/Endpoint/IpEndpoint</text>
<text text-anchor="middle" x="579.5" y="-271" font-family="Helvetica,sans-Serif" font-size="10.00">/IpEndpoint.hpp</text>
</a>
</g>
</g>
<!-- Node1&#45;&gt;Node2 -->
<g id="edge1_Node000001_Node000002" class="edge">
<title>Node1&#45;&gt;Node2</title>
<g id="a_edge1_Node000001_Node000002"><a xlink:title=" ">
<path fill="none" stroke="#63b8ff" d="M734.1,-406.98C714.09,-397.43 690.79,-384.98 671.5,-371 643.36,-350.6 615.64,-321.63 598.1,-301.89"/>
<polygon fill="#63b8ff" stroke="#63b8ff" points="600.68,-299.52 591.46,-294.31 595.41,-304.14 600.68,-299.52"/>
</a>
</g>
</g>
<!-- Node4 -->
<g id="Node000004" class="node">
<title>Node4</title>
<g id="a_Node000004"><a xlink:href="_connection_error_enum_8hpp.html" target="_top" xlink:title=" ">
<polygon fill="white" stroke="#666666" points="859,-162 692,-162 692,-132 859,-132 859,-162"/>
<text text-anchor="start" x="700" y="-150" font-family="Helvetica,sans-Serif" font-size="10.00">Hermes/_base/ConnectionError</text>
<text text-anchor="middle" x="775.5" y="-139" font-family="Helvetica,sans-Serif" font-size="10.00">Enum.hpp</text>
</a>
</g>
</g>
<!-- Node1&#45;&gt;Node4 -->
<g id="edge52_Node000001_Node000004" class="edge">
<title>Node1&#45;&gt;Node4</title>
<g id="a_edge52_Node000001_Node000004"><a xlink:title=" ">
<path fill="none" stroke="#63b8ff" d="M739.6,-406.95C725.88,-398.02 712.08,-386.04 704.5,-371 669.73,-302.01 681.91,-264.35 721.5,-198 728.15,-186.86 738.02,-176.69 747.51,-168.47"/>
<polygon fill="#63b8ff" stroke="#63b8ff" points="749.82,-171.1 755.32,-162.05 745.37,-165.7 749.82,-171.1"/>
</a>
</g>
</g>
<!-- Node42 -->
<g id="Node000042" class="node">
<title>Node42</title>
<g id="a_Node000042"><a xlink:href="__base_8hpp.html" target="_top" xlink:title=" ">
<polygon fill="white" stroke="#666666" points="1073,-288.5 930,-288.5 930,-269.5 1073,-269.5 1073,-288.5"/>
<text text-anchor="middle" x="1001.5" y="-276.5" font-family="Helvetica,sans-Serif" font-size="10.00">Hermes/Socket/_base.hpp</text>
</a>
</g>
</g>
<!-- Node1&#45;&gt;Node42 -->
<g id="edge53_Node000001_Node000042" class="edge">
<title>Node1&#45;&gt;Node42</title>
<g id="a_edge53_Node000001_Node000042"><a xlink:title=" ">
<path fill="none" stroke="#63b8ff" d="M808.68,-406.96C823.01,-396.86 840.22,-383.95 854.5,-371 872.68,-354.51 871.69,-344.49 891.5,-330 914.06,-313.49 942.95,-300.62 965.46,-292.07"/>
<polygon fill="#63b8ff" stroke="#63b8ff" points="966.81,-295.3 974.99,-288.57 964.39,-288.73 966.81,-295.3"/>
</a>
</g>
</g>
<!-- Node45 -->
<g id="Node000045" class="node">
<title>Node45</title>
<g id="a_Node000045"><a xlink:href="_default_socket_data_8hpp.html" target="_top" xlink:title=" ">
<polygon fill="white" stroke="#666666" points="845.5,-365.5 713.5,-365.5 713.5,-335.5 845.5,-335.5 845.5,-365.5"/>
<text text-anchor="start" x="721.5" y="-353.5" font-family="Helvetica,sans-Serif" font-size="10.00">Hermes/Socket/Data</text>
<text text-anchor="middle" x="779.5" y="-342.5" font-family="Helvetica,sans-Serif" font-size="10.00">/DefaultSocketData.hpp</text>
</a>
</g>
</g>
<!-- Node1&#45;&gt;Node45 -->
<g id="edge59_Node000001_Node000045" class="edge">
<title>Node1&#45;&gt;Node45</title>
<g id="a_edge59_Node000001_Node000045"><a xlink:title=" ">
<path fill="none" stroke="#63b8ff" d="M779.5,-406.79C779.5,-397.36 779.5,-385.97 779.5,-375.99"/>
<polygon fill="#63b8ff" stroke="#63b8ff" points="783,-375.86 779.5,-365.86 776,-375.86 783,-375.86"/>
</a>
</g>
</g>
<!-- Node48 -->
<g id="Node000048" class="node">
<title>Node48</title>
<g id="a_Node000048"><a xlink:title=" ">
<polygon fill="#e0e0e0" stroke="#999999" points="1086,-371 901,-371 901,-330 1086,-330 1086,-371"/>
<text text-anchor="start" x="909" y="-359" font-family="Helvetica,sans-Serif" font-size="10.00">Hermes/Socket/Sync</text>
<text text-anchor="start" x="909" y="-348" font-family="Helvetica,sans-Serif" font-size="10.00">/_base/Connection/DefaultConnect</text>
<text text-anchor="middle" x="993.5" y="-337" font-family="Helvetica,sans-Serif" font-size="10.00">Policy.tpp</text>
</a>
</g>
</g>
<!-- Node1&#45;&gt;Node48 -->
<g id="edge64_Node000001_Node000048" class="edge">
<title>Node1&#45;&gt;Node48</title>
<g id="a_edge64_Node000001_Node000048"><a xlink:title=" ">
<path fill="none" stroke="#63b8ff" d="M835.17,-406.99C863.66,-397 898.52,-384.79 928.27,-374.36"/>
<polygon fill="#63b8ff" stroke="#63b8ff" points="929.46,-377.65 937.74,-371.04 927.15,-371.05 929.46,-377.65"/>
</a>
</g>
</g>
<!-- Node3 -->
<g id="Node000003" class="node">
<title>Node3</title>
<g id="a_Node000003"><a xlink:href="_endpoint_concept_8hpp.html" target="_top" xlink:title=" ">
<polygon fill="white" stroke="#666666" points="862.5,-228 730.5,-228 730.5,-198 862.5,-198 862.5,-228"/>
<text text-anchor="start" x="738.5" y="-216" font-family="Helvetica,sans-Serif" font-size="10.00">Hermes/Endpoint/_base</text>
<text text-anchor="middle" x="796.5" y="-205" font-family="Helvetica,sans-Serif" font-size="10.00">/EndpointConcept.hpp</text>
</a>
</g>
</g>
<!-- Node2&#45;&gt;Node3 -->
<g id="edge2_Node000002_Node000003" class="edge">
<title>Node2&#45;&gt;Node3</title>
<g id="a_edge2_Node000002_Node000003"><a xlink:title=" ">
<path fill="none" stroke="#63b8ff" d="M627.12,-263.95C660.19,-254.2 704.42,-241.16 739.39,-230.84"/>
<polygon fill="#63b8ff" stroke="#63b8ff" points="740.39,-234.2 748.99,-228.01 738.41,-227.48 740.39,-234.2"/>
</a>
</g>
</g>
<!-- Node31 -->
<g id="Node000031" class="node">
<title>Node31</title>
<g id="a_Node000031"><a xlink:href="_ip_address_8hpp.html" target="_top" xlink:title=" ">
<polygon fill="white" stroke="#666666" points="393,-228 238,-228 238,-198 393,-198 393,-228"/>
<text text-anchor="start" x="246" y="-216" font-family="Helvetica,sans-Serif" font-size="10.00">Hermes/Endpoint/IpEndpoint</text>
<text text-anchor="middle" x="315.5" y="-205" font-family="Helvetica,sans-Serif" font-size="10.00">/IpAddress.hpp</text>
</a>
</g>
</g>
<!-- Node2&#45;&gt;Node31 -->
<g id="edge37_Node000002_Node000031" class="edge">
<title>Node2&#45;&gt;Node31</title>
<g id="a_edge37_Node000002_Node000031"><a xlink:title=" ">
<path fill="none" stroke="#63b8ff" d="M521.56,-263.95C480.73,-254.06 425.91,-240.77 383.08,-230.38"/>
<polygon fill="#63b8ff" stroke="#63b8ff" points="383.84,-226.97 373.3,-228.01 382.19,-233.77 383.84,-226.97"/>
</a>
</g>
</g>
<!-- Node32 -->
<g id="Node000032" class="node">
<title>Node32</title>
<g id="a_Node000032"><a xlink:href="_hash_8hpp.html" target="_top" xlink:title=" ">
<polygon fill="white" stroke="#666666" points="129,-156.5 0,-156.5 0,-137.5 129,-137.5 129,-156.5"/>
<text text-anchor="middle" x="64.5" y="-144.5" font-family="Helvetica,sans-Serif" font-size="10.00">Hermes/Utils/Hash.hpp</text>
</a>
</g>
</g>
<!-- Node2&#45;&gt;Node32 -->
<g id="edge48_Node000002_Node000032" class="edge">
<title>Node2&#45;&gt;Node32</title>
<g id="a_edge48_Node000002_Node000032"><a xlink:title=" ">
<path fill="none" stroke="#63b8ff" d="M502,-273.91C429.85,-268.49 320.01,-256.07 228.5,-228 175.25,-211.66 117.79,-180.03 87.02,-161.82"/>
<polygon fill="#63b8ff" stroke="#63b8ff" points="88.74,-158.77 78.36,-156.63 85.14,-164.78 88.74,-158.77"/>
</a>
</g>
</g>
<!-- Node36 -->
<g id="Node000036" class="node">
<title>Node36</title>
<g id="a_Node000036"><a xlink:title=" ">
<polygon fill="#e0e0e0" stroke="#999999" points="674.5,-156.5 630.5,-156.5 630.5,-137.5 674.5,-137.5 674.5,-156.5"/>
<text text-anchor="middle" x="652.5" y="-144.5" font-family="Helvetica,sans-Serif" font-size="10.00">string</text>
</a>
</g>
</g>
<!-- Node2&#45;&gt;Node36 -->
<g id="edge50_Node000002_Node000036" class="edge">
<title>Node2&#45;&gt;Node36</title>
<g id="a_edge50_Node000002_Node000036"><a xlink:title=" ">
<path fill="none" stroke="#63b8ff" d="M587.45,-263.84C600.89,-239.92 628.04,-191.56 642.65,-165.53"/>
<polygon fill="#63b8ff" stroke="#63b8ff" points="645.74,-167.18 647.59,-156.75 639.64,-163.75 645.74,-167.18"/>
</a>
</g>
</g>
<!-- Node38 -->
<g id="Node000038" class="node">
<title>Node38</title>
<g id="a_Node000038"><a xlink:title=" ">
<polygon fill="#e0e0e0" stroke="#999999" points="612.5,-156.5 556.5,-156.5 556.5,-137.5 612.5,-137.5 612.5,-156.5"/>
<text text-anchor="middle" x="584.5" y="-144.5" font-family="Helvetica,sans-Serif" font-size="10.00">optional</text>
</a>
</g>
</g>
<!-- Node2&#45;&gt;Node38 -->
<g id="edge49_Node000002_Node000038" class="edge">
<title>Node2&#45;&gt;Node38</title>
<g id="a_edge49_Node000002_Node000038"><a xlink:title=" ">
<path fill="none" stroke="#63b8ff" d="M580.04,-263.84C580.95,-240.34 582.76,-193.26 583.77,-166.93"/>
<polygon fill="#63b8ff" stroke="#63b8ff" points="587.28,-166.88 584.16,-156.75 580.28,-166.61 587.28,-166.88"/>
</a>
</g>
</g>
<!-- Node41 -->
<g id="Node000041" class="node">
<title>Node41</title>
<g id="a_Node000041"><a xlink:title=" ">
<polygon fill="#e0e0e0" stroke="#999999" points="566,-228 411,-228 411,-198 566,-198 566,-228"/>
<text text-anchor="start" x="419" y="-216" font-family="Helvetica,sans-Serif" font-size="10.00">Hermes/Endpoint/IpEndpoint</text>
<text text-anchor="middle" x="488.5" y="-205" font-family="Helvetica,sans-Serif" font-size="10.00">/IpEndpoint.tpp</text>
</a>
</g>
</g>
<!-- Node2&#45;&gt;Node41 -->
<g id="edge51_Node000002_Node000041" class="edge">
<title>Node2&#45;&gt;Node41</title>
<g id="a_edge51_Node000002_Node000041"><a xlink:title=" ">
<path fill="none" stroke="#63b8ff" d="M559.3,-263.8C546.82,-255.01 530.6,-243.61 516.84,-233.93"/>
<polygon fill="#63b8ff" stroke="#63b8ff" points="518.83,-231.05 508.64,-228.16 514.81,-236.78 518.83,-231.05"/>
</a>
</g>
</g>
<!-- Node3&#45;&gt;Node4 -->
<g id="edge3_Node000003_Node000004" class="edge">
<title>Node3&#45;&gt;Node4</title>
<g id="a_edge3_Node000003_Node000004"><a xlink:title=" ">
<path fill="none" stroke="#63b8ff" d="M791.84,-197.8C789.34,-190.17 786.19,-180.57 783.32,-171.84"/>
<polygon fill="#63b8ff" stroke="#63b8ff" points="786.59,-170.57 780.15,-162.16 779.94,-172.76 786.59,-170.57"/>
</a>
</g>
</g>
<!-- Node12 -->
<g id="Node000012" class="node">
<title>Node12</title>
<g id="a_Node000012"><a xlink:href="_os_api_8hpp.html" target="_top" xlink:title=" ">
<polygon fill="white" stroke="#666666" points="2099.5,-162 1981.5,-162 1981.5,-132 2099.5,-132 2099.5,-162"/>
<text text-anchor="start" x="1989.5" y="-150" font-family="Helvetica,sans-Serif" font-size="10.00">Hermes/_base/OsApi</text>
<text text-anchor="middle" x="2040.5" y="-139" font-family="Helvetica,sans-Serif" font-size="10.00">/OsApi.hpp</text>
</a>
</g>
</g>
<!-- Node3&#45;&gt;Node12 -->
<g id="edge11_Node000003_Node000012" class="edge">
<title>Node3&#45;&gt;Node12</title>
<g id="a_edge11_Node000003_Node000012"><a xlink:title=" ">
<path fill="none" stroke="#63b8ff" d="M862.84,-207.24C903.92,-204.37 957.76,-200.75 1005.5,-198 1368.99,-177.05 1804.63,-157.97 1971.16,-150.9"/>
<polygon fill="#63b8ff" stroke="#63b8ff" points="1971.42,-154.4 1981.26,-150.48 1971.12,-147.4 1971.42,-154.4"/>
</a>
</g>
</g>
<!-- Node5 -->
<g id="Node000005" class="node">
<title>Node5</title>
<g id="a_Node000005"><a xlink:title=" ">
<polygon fill="#e0e0e0" stroke="#999999" points="628.5,-85 566.5,-85 566.5,-66 628.5,-66 628.5,-85"/>
<text text-anchor="middle" x="597.5" y="-73" font-family="Helvetica,sans-Serif" font-size="10.00">expected</text>
</a>
</g>
</g>
<!-- Node4&#45;&gt;Node5 -->
<g id="edge4_Node000004_Node000005" class="edge">
<title>Node4&#45;&gt;Node5</title>
<g id="a_edge4_Node000004_Node000005"><a xlink:title=" ">
<path fill="none" stroke="#63b8ff" d="M733.08,-131.93C705.55,-122.49 669.06,-109.37 637.5,-96 632.85,-94.03 627.97,-91.8 623.28,-89.56"/>
<polygon fill="#63b8ff" stroke="#63b8ff" points="624.58,-86.3 614.06,-85.06 621.51,-92.59 624.58,-86.3"/>
</a>
</g>
</g>
<!-- Node6 -->
<g id="Node000006" class="node">
<title>Node6</title>
<g id="a_Node000006"><a xlink:title=" ">
<polygon fill="#e0e0e0" stroke="#999999" points="299,-85 252,-85 252,-66 299,-66 299,-85"/>
<text text-anchor="middle" x="275.5" y="-73" font-family="Helvetica,sans-Serif" font-size="10.00">vector</text>
</a>
</g>
</g>
<!-- Node4&#45;&gt;Node6 -->
<g id="edge5_Node000004_Node000006" class="edge">
<title>Node4&#45;&gt;Node6</title>
<g id="a_edge5_Node000004_Node000006"><a xlink:title=" ">
<path fill="none" stroke="#63b8ff" d="M691.78,-133.13C688.99,-132.74 686.22,-132.36 683.5,-132 545.59,-113.53 509.94,-117.73 372.5,-96 351.31,-92.65 327.72,-87.93 309.1,-83.97"/>
<polygon fill="#63b8ff" stroke="#63b8ff" points="309.83,-80.55 299.32,-81.86 308.36,-87.39 309.83,-80.55"/>
</a>
</g>
</g>
<!-- Node7 -->
<g id="Node000007" class="node">
<title>Node7</title>
<g id="a_Node000007"><a xlink:title=" ">
<polygon fill="#e0e0e0" stroke="#999999" points="686.5,-85 646.5,-85 646.5,-66 686.5,-66 686.5,-85"/>
<text text-anchor="middle" x="666.5" y="-73" font-family="Helvetica,sans-Serif" font-size="10.00">span</text>
</a>
</g>
</g>
<!-- Node4&#45;&gt;Node7 -->
<g id="edge6_Node000004_Node000007" class="edge">
<title>Node4&#45;&gt;Node7</title>
<g id="a_edge6_Node000004_Node000007"><a xlink:title=" ">
<path fill="none" stroke="#63b8ff" d="M752.61,-131.98C736.55,-122.06 714.6,-108.39 695.5,-96 692.89,-94.31 690.15,-92.51 687.46,-90.71"/>
<polygon fill="#63b8ff" stroke="#63b8ff" points="689.4,-87.8 679.14,-85.14 685.5,-93.61 689.4,-87.8"/>
</a>
</g>
</g>
<!-- Node8 -->
<g id="Node000008" class="node">
<title>Node8</title>
<g id="a_Node000008"><a xlink:title=" ">
<polygon fill="#e0e0e0" stroke="#999999" points="774,-85 705,-85 705,-66 774,-66 774,-85"/>
<text text-anchor="middle" x="739.5" y="-73" font-family="Helvetica,sans-Serif" font-size="10.00">type_traits</text>
</a>
</g>
</g>
<!-- Node4&#45;&gt;Node8 -->
<g id="edge7_Node000004_Node000008" class="edge">
<title>Node4&#45;&gt;Node8</title>
<g id="a_edge7_Node000004_Node000008"><a xlink:title=" ">
<path fill="none" stroke="#63b8ff" d="M768.21,-131.94C762.62,-121.14 754.86,-106.15 748.81,-94.48"/>
<polygon fill="#63b8ff" stroke="#63b8ff" points="751.75,-92.54 744.04,-85.27 745.53,-95.76 751.75,-92.54"/>
</a>
</g>
</g>
<!-- Node9 -->
<g id="Node000009" class="node">
<title>Node9</title>
<g id="a_Node000009"><a xlink:title=" ">
<polygon fill="#e0e0e0" stroke="#999999" points="1070,-85 945,-85 945,-66 1070,-66 1070,-85"/>
<text text-anchor="middle" x="1007.5" y="-73" font-family="Helvetica,sans-Serif" font-size="10.00">stdexec/execution.hpp</text>
</a>
</g>
</g>
<!-- Node4&#45;&gt;Node9 -->
<g id="edge8_Node000004_Node000009" class="edge">
<title>Node4&#45;&gt;Node9</title>
<g id="a_edge8_Node000004_Node000009"><a xlink:title=" ">
<path fill="none" stroke="#63b8ff" d="M822.45,-131.94C865.66,-118.99 928.97,-100.03 969.2,-87.97"/>
<polygon fill="#63b8ff" stroke="#63b8ff" points="970.32,-91.29 978.9,-85.07 968.32,-84.58 970.32,-91.29"/>
</a>
</g>
</g>
<!-- Node10 -->
<g id="Node000010" class="node">
<title>Node10</title>
<g id="a_Node000010"><a xlink:title=" ">
<polygon fill="#e0e0e0" stroke="#999999" points="926.5,-85 792.5,-85 792.5,-66 926.5,-66 926.5,-85"/>
<text text-anchor="middle" x="859.5" y="-73" font-family="Helvetica,sans-Serif" font-size="10.00">exec/any_sender_of.hpp</text>
</a>
</g>
</g>
<!-- Node4&#45;&gt;Node10 -->
<g id="edge9_Node000004_Node000010" class="edge">
<title>Node4&#45;&gt;Node10</title>
<g id="a_edge9_Node000004_Node000010"><a xlink:title=" ">
<path fill="none" stroke="#63b8ff" d="M792.5,-131.94C806.6,-120.26 826.63,-103.7 841.11,-91.72"/>
<polygon fill="#63b8ff" stroke="#63b8ff" points="843.43,-94.34 848.9,-85.27 838.97,-88.95 843.43,-94.34"/>
</a>
</g>
</g>
<!-- Node11 -->
<g id="Node000011" class="node">
<title>Node11</title>
<g id="a_Node000011"><a xlink:title=" ">
<polygon fill="#e0e0e0" stroke="#999999" points="549,-90.5 382,-90.5 382,-60.5 549,-60.5 549,-90.5"/>
<text text-anchor="start" x="390" y="-78.5" font-family="Helvetica,sans-Serif" font-size="10.00">Hermes/_base/ConnectionError</text>
<text text-anchor="middle" x="465.5" y="-67.5" font-family="Helvetica,sans-Serif" font-size="10.00">Enum.tpp</text>
</a>
</g>
</g>
<!-- Node4&#45;&gt;Node11 -->
<g id="edge10_Node000004_Node000011" class="edge">
<title>Node4&#45;&gt;Node11</title>
<g id="a_edge10_Node000004_Node000011"><a xlink:title=" ">
<path fill="none" stroke="#63b8ff" d="M712.77,-131.94C662.24,-120.61 591.15,-104.67 538.15,-92.79"/>
<polygon fill="#63b8ff" stroke="#63b8ff" points="538.66,-89.32 528.14,-90.54 537.13,-96.15 538.66,-89.32"/>
</a>
</g>
</g>
<!-- Node13 -->
<g id="Node000013" class="node">
<title>Node13</title>
<g id="a_Node000013"><a xlink:title=" ">
<polygon fill="#e0e0e0" stroke="#999999" points="1715,-19 1638,-19 1638,0 1715,0 1715,-19"/>
<text text-anchor="middle" x="1676.5" y="-7" font-family="Helvetica,sans-Serif" font-size="10.00">sys/socket.h</text>
</a>
</g>
</g>
<!-- Node12&#45;&gt;Node13 -->
<g id="edge12_Node000012_Node000013" class="edge">
<title>Node12&#45;&gt;Node13</title>
<g id="a_edge12_Node000012_Node000013"><a xlink:title=" ">
<path fill="none" stroke="#63b8ff" d="M1981.47,-143.99C1862.14,-139.31 1601.25,-125.77 1574.5,-96 1562.32,-82.45 1564.52,-70.25 1574.5,-55 1586.55,-36.59 1608.06,-25.76 1628.23,-19.4"/>
<polygon fill="#63b8ff" stroke="#63b8ff" points="1629.32,-22.73 1637.98,-16.62 1627.4,-16 1629.32,-22.73"/>
</a>
</g>
</g>
<!-- Node14 -->
<g id="Node000014" class="node">
<title>Node14</title>
<g id="a_Node000014"><a xlink:title=" ">
<polygon fill="#e0e0e0" stroke="#999999" points="1416.5,-19 1344.5,-19 1344.5,0 1416.5,0 1416.5,-19"/>
<text text-anchor="middle" x="1380.5" y="-7" font-family="Helvetica,sans-Serif" font-size="10.00">netinet/in.h</text>
</a>
</g>
</g>
<!-- Node12&#45;&gt;Node14 -->
<g id="edge13_Node000012_Node000014" class="edge">
<title>Node12&#45;&gt;Node14</title>
<g id="a_edge13_Node000012_Node000014"><a xlink:title=" ">
<path fill="none" stroke="#63b8ff" d="M1981.35,-145.26C1831.39,-142.84 1445.13,-133.05 1401.5,-96 1382.41,-79.79 1379.15,-49.31 1379.28,-29.46"/>
<polygon fill="#63b8ff" stroke="#63b8ff" points="1382.79,-29.31 1379.66,-19.19 1375.8,-29.06 1382.79,-29.31"/>
</a>
</g>
</g>
<!-- Node15 -->
<g id="Node000015" class="node">
<title>Node15</title>
<g id="a_Node000015"><a xlink:title=" ">
<polygon fill="#e0e0e0" stroke="#999999" points="3326,-85 3257,-85 3257,-66 3326,-66 3326,-85"/>
<text text-anchor="middle" x="3291.5" y="-73" font-family="Helvetica,sans-Serif" font-size="10.00">arpa/inet.h</text>
</a>
</g>
</g>
<!-- Node12&#45;&gt;Node15 -->
<g id="edge14_Node000012_Node000015" class="edge">
<title>Node12&#45;&gt;Node15</title>
<g id="a_edge14_Node000012_Node000015"><a xlink:title=" ">
<path fill="none" stroke="#63b8ff" d="M2099.84,-146.47C2311.08,-147.68 3025.64,-147.78 3247.5,-96 3254.01,-94.48 3260.76,-92 3266.95,-89.32"/>
<polygon fill="#63b8ff" stroke="#63b8ff" points="3268.54,-92.44 3276.11,-85.03 3265.57,-86.1 3268.54,-92.44"/>
</a>
</g>
</g>
<!-- Node16 -->
<g id="Node000016" class="node">
<title>Node16</title>
<g id="a_Node000016"><a xlink:title=" ">
<polygon fill="#e0e0e0" stroke="#999999" points="3287,-19 3234,-19 3234,0 3287,0 3287,-19"/>
<text text-anchor="middle" x="3260.5" y="-7" font-family="Helvetica,sans-Serif" font-size="10.00">netdb.h</text>
</a>
</g>
</g>
<!-- Node12&#45;&gt;Node16 -->
<g id="edge15_Node000012_Node000016" class="edge">
<title>Node12&#45;&gt;Node16</title>
<g id="a_edge15_Node000012_Node000016"><a xlink:title=" ">
<path fill="none" stroke="#63b8ff" d="M2099.83,-145.97C2348.02,-145.56 3292.16,-141.04 3335.5,-96 3348.13,-82.87 3344.52,-70.83 3335.5,-55 3327.02,-40.11 3311.37,-29.68 3296.56,-22.69"/>
<polygon fill="#63b8ff" stroke="#63b8ff" points="3297.59,-19.32 3287.02,-18.58 3294.82,-25.75 3297.59,-19.32"/>
</a>
</g>
</g>
<!-- Node17 -->
<g id="Node000017" class="node">
<title>Node17</title>
<g id="a_Node000017"><a xlink:title=" ">
<polygon fill="#e0e0e0" stroke="#999999" points="1144.5,-85 1088.5,-85 1088.5,-66 1144.5,-66 1144.5,-85"/>
<text text-anchor="middle" x="1116.5" y="-73" font-family="Helvetica,sans-Serif" font-size="10.00">unistd.h</text>
</a>
</g>
</g>
<!-- Node12&#45;&gt;Node17 -->
<g id="edge16_Node000012_Node000017" class="edge">
<title>Node12&#45;&gt;Node17</title>
<g id="a_edge16_Node000012_Node000017"><a xlink:title=" ">
<path fill="none" stroke="#63b8ff" d="M1981.22,-145.94C1808.82,-145.24 1309.92,-139.41 1153.5,-96 1148.51,-94.62 1143.44,-92.49 1138.71,-90.15"/>
<polygon fill="#63b8ff" stroke="#63b8ff" points="1140.08,-86.91 1129.62,-85.19 1136.72,-93.05 1140.08,-86.91"/>
</a>
</g>
</g>
<!-- Node18 -->
<g id="Node000018" class="node">
<title>Node18</title>
<g id="a_Node000018"><a xlink:href="_conversion_and_literals_8hpp.html" target="_top" xlink:title=" ">
<polygon fill="white" stroke="#666666" points="3076.5,-90.5 2926.5,-90.5 2926.5,-60.5 3076.5,-60.5 3076.5,-90.5"/>
<text text-anchor="start" x="2934.5" y="-78.5" font-family="Helvetica,sans-Serif" font-size="10.00">Hermes/_base/OsApi</text>
<text text-anchor="middle" x="3001.5" y="-67.5" font-family="Helvetica,sans-Serif" font-size="10.00">/ConversionAndLiterals.hpp</text>
</a>
</g>
</g>
<!-- Node12&#45;&gt;Node18 -->
<g id="edge17_Node000012_Node000018" class="edge">
<title>Node12&#45;&gt;Node18</title>
<g id="a_edge17_Node000012_Node000018"><a xlink:title=" ">
<path fill="none" stroke="#63b8ff" d="M2099.61,-146.11C2241.45,-145.61 2612,-139.84 2917.5,-96 2923.82,-95.09 2930.37,-93.95 2936.89,-92.67"/>
<polygon fill="#63b8ff" stroke="#63b8ff" points="2938,-96.01 2947.08,-90.56 2936.58,-89.16 2938,-96.01"/>
</a>
</g>
</g>
<!-- Node20 -->
<g id="Node000020" class="node">
<title>Node20</title>
<g id="a_Node000020"><a xlink:href="_macros_8hpp.html" target="_top" xlink:title=" ">
<polygon fill="white" stroke="#666666" points="1528.5,-90.5 1410.5,-90.5 1410.5,-60.5 1528.5,-60.5 1528.5,-90.5"/>
<text text-anchor="start" x="1418.5" y="-78.5" font-family="Helvetica,sans-Serif" font-size="10.00">Hermes/_base/OsApi</text>
<text text-anchor="middle" x="1469.5" y="-67.5" font-family="Helvetica,sans-Serif" font-size="10.00">/Macros.hpp</text>
</a>
</g>
</g>
<!-- Node12&#45;&gt;Node20 -->
<g id="edge19_Node000012_Node000020" class="edge">
<title>Node12&#45;&gt;Node20</title>
<g id="a_edge19_Node000012_Node000020"><a xlink:title=" ">
<path fill="none" stroke="#63b8ff" d="M1981.42,-143.15C1887.73,-137.94 1699.57,-124.67 1542.5,-96 1537.55,-95.1 1532.44,-94.02 1527.33,-92.86"/>
<polygon fill="#63b8ff" stroke="#63b8ff" points="1528.09,-89.44 1517.55,-90.51 1526.46,-96.25 1528.09,-89.44"/>
</a>
</g>
</g>
<!-- Node22 -->
<g id="Node000022" class="node">
<title>Node22</title>
<g id="a_Node000022"><a xlink:href="_address_family_enum_8hpp.html" target="_top" xlink:title=" ">
<polygon fill="white" stroke="#666666" points="2310.5,-90.5 2134.5,-90.5 2134.5,-60.5 2310.5,-60.5 2310.5,-90.5"/>
<text text-anchor="start" x="2142.5" y="-78.5" font-family="Helvetica,sans-Serif" font-size="10.00">Hermes/_base/OsApi</text>
<text text-anchor="middle" x="2222.5" y="-67.5" font-family="Helvetica,sans-Serif" font-size="10.00">/Enums/AddressFamilyEnum.hpp</text>
</a>
</g>
</g>
<!-- Node12&#45;&gt;Node22 -->
<g id="edge23_Node000012_Node000022" class="edge">
<title>Node12&#45;&gt;Node22</title>
<g id="a_edge23_Node000012_Node000022"><a xlink:title=" ">
<path fill="none" stroke="#63b8ff" d="M2077.33,-131.94C2105.82,-121.06 2145.46,-105.92 2176.11,-94.21"/>
<polygon fill="#63b8ff" stroke="#63b8ff" points="2177.63,-97.38 2185.72,-90.54 2175.13,-90.84 2177.63,-97.38"/>
</a>
</g>
</g>
<!-- Node23 -->
<g id="Node000023" class="node">
<title>Node23</title>
<g id="a_Node000023"><a xlink:href="_protocol_base_type_enum_8hpp.html" target="_top" xlink:title=" ">
<polygon fill="white" stroke="#666666" points="1354,-90.5 1163,-90.5 1163,-60.5 1354,-60.5 1354,-90.5"/>
<text text-anchor="start" x="1171" y="-78.5" font-family="Helvetica,sans-Serif" font-size="10.00">Hermes/_base/OsApi</text>
<text text-anchor="middle" x="1258.5" y="-67.5" font-family="Helvetica,sans-Serif" font-size="10.00">/Enums/ProtocolBaseTypeEnum.hpp</text>
</a>
</g>
</g>
<!-- Node12&#45;&gt;Node23 -->
<g id="edge25_Node000012_Node000023" class="edge">
<title>Node12&#45;&gt;Node23</title>
<g id="a_edge25_Node000012_Node000023"><a xlink:title=" ">
<path fill="none" stroke="#63b8ff" d="M1981.42,-143.62C1864.19,-138.44 1593.98,-124.3 1368.5,-96 1359.83,-94.91 1350.81,-93.6 1341.82,-92.18"/>
<polygon fill="#63b8ff" stroke="#63b8ff" points="1342.15,-88.69 1331.71,-90.54 1341.02,-95.6 1342.15,-88.69"/>
</a>
</g>
</g>
<!-- Node24 -->
<g id="Node000024" class="node">
<title>Node24</title>
<g id="a_Node000024"><a xlink:href="_socket_shutdown_enum_8hpp.html" target="_top" xlink:title=" ">
<polygon fill="white" stroke="#666666" points="1769,-90.5 1584,-90.5 1584,-60.5 1769,-60.5 1769,-90.5"/>
<text text-anchor="start" x="1592" y="-78.5" font-family="Helvetica,sans-Serif" font-size="10.00">Hermes/_base/OsApi</text>
<text text-anchor="middle" x="1676.5" y="-67.5" font-family="Helvetica,sans-Serif" font-size="10.00">/Enums/SocketShutdownEnum.hpp</text>
</a>
</g>
</g>
<!-- Node12&#45;&gt;Node24 -->
<g id="edge27_Node000012_Node000024" class="edge">
<title>Node12&#45;&gt;Node24</title>
<g id="a_edge27_Node000012_Node000024"><a xlink:title=" ">
<path fill="none" stroke="#63b8ff" d="M1981.47,-134.83C1928.17,-124.73 1847.57,-109.42 1777.5,-96 1771.46,-94.84 1765.21,-93.64 1758.93,-92.43"/>
<polygon fill="#63b8ff" stroke="#63b8ff" points="1759.52,-88.98 1749.04,-90.53 1758.2,-95.86 1759.52,-88.98"/>
</a>
</g>
</g>
<!-- Node25 -->
<g id="Node000025" class="node">
<title>Node25</title>
<g id="a_Node000025"><a xlink:href="_socket_type_enum_8hpp.html" target="_top" xlink:title=" ">
<polygon fill="white" stroke="#666666" points="1946,-90.5 1787,-90.5 1787,-60.5 1946,-60.5 1946,-90.5"/>
<text text-anchor="start" x="1795" y="-78.5" font-family="Helvetica,sans-Serif" font-size="10.00">Hermes/_base/OsApi</text>
<text text-anchor="middle" x="1866.5" y="-67.5" font-family="Helvetica,sans-Serif" font-size="10.00">/Enums/SocketTypeEnum.hpp</text>
</a>
</g>
</g>
<!-- Node12&#45;&gt;Node25 -->
<g id="edge29_Node000012_Node000025" class="edge">
<title>Node12&#45;&gt;Node25</title>
<g id="a_edge29_Node000012_Node000025"><a xlink:title=" ">
<path fill="none" stroke="#63b8ff" d="M2005.29,-131.94C1978.17,-121.1 1940.49,-106.05 1911.23,-94.37"/>
<polygon fill="#63b8ff" stroke="#63b8ff" points="1912.24,-91 1901.66,-90.54 1909.65,-97.5 1912.24,-91"/>
</a>
</g>
</g>
<!-- Node26 -->
<g id="Node000026" class="node">
<title>Node26</title>
<g id="a_Node000026"><a xlink:title=" ">
<polygon fill="#e0e0e0" stroke="#999999" points="2116.5,-96 1964.5,-96 1964.5,-55 2116.5,-55 2116.5,-96"/>
<text text-anchor="start" x="1972.5" y="-84" font-family="Helvetica,sans-Serif" font-size="10.00">Hermes/_base/OsApi</text>
<text text-anchor="start" x="1972.5" y="-73" font-family="Helvetica,sans-Serif" font-size="10.00">/Enums/Linux/EncryptStatus</text>
<text text-anchor="middle" x="2040.5" y="-62" font-family="Helvetica,sans-Serif" font-size="10.00">Enum.hpp</text>
</a>
</g>
</g>
<!-- Node12&#45;&gt;Node26 -->
<g id="edge31_Node000012_Node000026" class="edge">
<title>Node12&#45;&gt;Node26</title>
<g id="a_edge31_Node000012_Node000026"><a xlink:title=" ">
<path fill="none" stroke="#63b8ff" d="M2040.5,-131.94C2040.5,-124.52 2040.5,-115.14 2040.5,-106.2"/>
<polygon fill="#63b8ff" stroke="#63b8ff" points="2044,-106.07 2040.5,-96.07 2037,-106.07 2044,-106.07"/>
</a>
</g>
</g>
<!-- Node27 -->
<g id="Node000027" class="node">
<title>Node27</title>
<g id="a_Node000027"><a xlink:href="_name_info_flags_8hpp.html" target="_top" xlink:title=" ">
<polygon fill="white" stroke="#666666" points="3238.5,-90.5 3094.5,-90.5 3094.5,-60.5 3238.5,-60.5 3238.5,-90.5"/>
<text text-anchor="start" x="3102.5" y="-78.5" font-family="Helvetica,sans-Serif" font-size="10.00">Hermes/_base/OsApi</text>
<text text-anchor="middle" x="3166.5" y="-67.5" font-family="Helvetica,sans-Serif" font-size="10.00">/Flags/NameInfoFlags.hpp</text>
</a>
</g>
</g>
<!-- Node12&#45;&gt;Node27 -->
<g id="edge32_Node000012_Node000027" class="edge">
<title>Node12&#45;&gt;Node27</title>
<g id="a_edge32_Node000012_Node000027"><a xlink:title=" ">
<path fill="none" stroke="#63b8ff" d="M2099.78,-144.63C2291.43,-139.99 2893,-123.53 3085.5,-96 3091.7,-95.11 3098.12,-93.97 3104.51,-92.68"/>
<polygon fill="#63b8ff" stroke="#63b8ff" points="3105.44,-96.06 3114.49,-90.55 3103.98,-89.21 3105.44,-96.06"/>
</a>
</g>
</g>
<!-- Node28 -->
<g id="Node000028" class="node">
<title>Node28</title>
<g id="a_Node000028"><a xlink:title=" ">
<polygon fill="#e0e0e0" stroke="#999999" points="2504.5,-90.5 2328.5,-90.5 2328.5,-60.5 2504.5,-60.5 2504.5,-90.5"/>
<text text-anchor="start" x="2336.5" y="-78.5" font-family="Helvetica,sans-Serif" font-size="10.00">Hermes/_base/OsApi</text>
<text text-anchor="middle" x="2416.5" y="-67.5" font-family="Helvetica,sans-Serif" font-size="10.00">/Flags/Linux/CredentialFlags.hpp</text>
</a>
</g>
</g>
<!-- Node12&#45;&gt;Node28 -->
<g id="edge34_Node000012_Node000028" class="edge">
<title>Node12&#45;&gt;Node28</title>
<g id="a_edge34_Node000012_Node000028"><a xlink:title=" ">
<path fill="none" stroke="#63b8ff" d="M2099.62,-135.78C2156.14,-125.92 2243.72,-110.41 2319.5,-96 2325.34,-94.89 2331.37,-93.72 2337.43,-92.54"/>
<polygon fill="#63b8ff" stroke="#63b8ff" points="2338.51,-95.89 2347.65,-90.53 2337.16,-89.02 2338.51,-95.89"/>
</a>
</g>
</g>
<!-- Node29 -->
<g id="Node000029" class="node">
<title>Node29</title>
<g id="a_Node000029"><a xlink:title=" ">
<polygon fill="#e0e0e0" stroke="#999999" points="2696,-96 2523,-96 2523,-55 2696,-55 2696,-96"/>
<text text-anchor="start" x="2531" y="-84" font-family="Helvetica,sans-Serif" font-size="10.00">Hermes/_base/OsApi</text>
<text text-anchor="start" x="2531" y="-73" font-family="Helvetica,sans-Serif" font-size="10.00">/Flags/Linux/SupportedProtocols</text>
<text text-anchor="middle" x="2609.5" y="-62" font-family="Helvetica,sans-Serif" font-size="10.00">Flags.hpp</text>
</a>
</g>
</g>
<!-- Node12&#45;&gt;Node29 -->
<g id="edge35_Node000012_Node000029" class="edge">
<title>Node12&#45;&gt;Node29</title>
<g id="a_edge35_Node000012_Node000029"><a xlink:title=" ">
<path fill="none" stroke="#63b8ff" d="M2099.73,-141.56C2187.6,-134.57 2357.86,-119.49 2512.78,-96.03"/>
<polygon fill="#63b8ff" stroke="#63b8ff" points="2513.6,-99.44 2522.96,-94.47 2512.55,-92.52 2513.6,-99.44"/>
</a>
</g>
</g>
<!-- Node30 -->
<g id="Node000030" class="node">
<title>Node30</title>
<g id="a_Node000030"><a xlink:title=" ">
<polygon fill="#e0e0e0" stroke="#999999" points="2908.5,-90.5 2714.5,-90.5 2714.5,-60.5 2908.5,-60.5 2908.5,-90.5"/>
<text text-anchor="start" x="2722.5" y="-78.5" font-family="Helvetica,sans-Serif" font-size="10.00">Hermes/_base/OsApi</text>
<text text-anchor="middle" x="2811.5" y="-67.5" font-family="Helvetica,sans-Serif" font-size="10.00">/Flags/Linux/SChannelCredFlags.hpp</text>
</a>
</g>
</g>
<!-- Node12&#45;&gt;Node30 -->
<g id="edge36_Node000012_Node000030" class="edge">
<title>Node12&#45;&gt;Node30</title>
<g id="a_edge36_Node000012_Node000030"><a xlink:title=" ">
<path fill="none" stroke="#63b8ff" d="M2099.78,-143.63C2216.12,-138.51 2482.34,-124.53 2704.5,-96 2713,-94.91 2721.86,-93.59 2730.67,-92.16"/>
<polygon fill="#63b8ff" stroke="#63b8ff" points="2731.29,-95.6 2740.58,-90.5 2730.14,-88.7 2731.29,-95.6"/>
</a>
</g>
</g>
<!-- Node19 -->
<g id="Node000019" class="node">
<title>Node19</title>
<g id="a_Node000019"><a xlink:title=" ">
<polygon fill="#e0e0e0" stroke="#999999" points="3026.5,-19 2976.5,-19 2976.5,0 3026.5,0 3026.5,-19"/>
<text text-anchor="middle" x="3001.5" y="-7" font-family="Helvetica,sans-Serif" font-size="10.00">cstdint</text>
</a>
</g>
</g>
<!-- Node18&#45;&gt;Node19 -->
<g id="edge18_Node000018_Node000019" class="edge">
<title>Node18&#45;&gt;Node19</title>
<g id="a_edge18_Node000018_Node000019"><a xlink:title=" ">
<path fill="none" stroke="#63b8ff" d="M3001.5,-60.3C3001.5,-51.2 3001.5,-39.29 3001.5,-29.4"/>
<polygon fill="#63b8ff" stroke="#63b8ff" points="3005,-29.34 3001.5,-19.34 2998,-29.34 3005,-29.34"/>
</a>
</g>
</g>
<!-- Node20&#45;&gt;Node13 -->
<g id="edge21_Node000020_Node000013" class="edge">
<title>Node20&#45;&gt;Node13</title>
<g id="a_edge21_Node000020_Node000013"><a xlink:title=" ">
<path fill="none" stroke="#63b8ff" d="M1514.93,-60.45C1552.19,-48.93 1604.3,-32.82 1639.16,-22.04"/>
<polygon fill="#63b8ff" stroke="#63b8ff" points="1640.43,-25.32 1648.95,-19.02 1638.36,-18.63 1640.43,-25.32"/>
</a>
</g>
</g>
<!-- Node20&#45;&gt;Node14 -->
<g id="edge22_Node000020_Node000014" class="edge">
<title>Node20&#45;&gt;Node14</title>
<g id="a_edge22_Node000020_Node000014"><a xlink:title=" ">
<path fill="none" stroke="#63b8ff" d="M1449.75,-60.3C1435.24,-49.87 1415.6,-35.74 1400.94,-25.19"/>
<polygon fill="#63b8ff" stroke="#63b8ff" points="1402.7,-22.16 1392.54,-19.16 1398.62,-27.84 1402.7,-22.16"/>
</a>
</g>
</g>
<!-- Node21 -->
<g id="Node000021" class="node">
<title>Node21</title>
<g id="a_Node000021"><a xlink:title=" ">
<polygon fill="#e0e0e0" stroke="#999999" points="1508,-19 1435,-19 1435,0 1508,0 1508,-19"/>
<text text-anchor="middle" x="1471.5" y="-7" font-family="Helvetica,sans-Serif" font-size="10.00">string_view</text>
</a>
</g>
</g>
<!-- Node20&#45;&gt;Node21 -->
<g id="edge20_Node000020_Node000021" class="edge">
<title>Node20&#45;&gt;Node21</title>
<g id="a_edge20_Node000020_Node000021"><a xlink:title=" ">
<path fill="none" stroke="#63b8ff" d="M1469.94,-60.3C1470.23,-51.2 1470.6,-39.29 1470.91,-29.4"/>
<polygon fill="#63b8ff" stroke="#63b8ff" points="1474.41,-29.45 1471.22,-19.34 1467.41,-29.23 1474.41,-29.45"/>
</a>
</g>
</g>
<!-- Node22&#45;&gt;Node13 -->
<g id="edge24_Node000022_Node000013" class="edge">
<title>Node22&#45;&gt;Node13</title>
<g id="a_edge24_Node000022_Node000013"><a xlink:title=" ">
<path fill="none" stroke="#63b8ff" d="M2157.44,-60.49C2146.79,-58.47 2135.86,-56.55 2125.5,-55 1980.63,-33.31 1807.82,-19.57 1725.2,-13.73"/>
<polygon fill="#63b8ff" stroke="#63b8ff" points="1725.32,-10.23 1715.1,-13.02 1724.83,-17.21 1725.32,-10.23"/>
</a>
</g>
</g>
<!-- Node23&#45;&gt;Node14 -->
<g id="edge26_Node000023_Node000014" class="edge">
<title>Node23&#45;&gt;Node14</title>
<g id="a_edge26_Node000023_Node000014"><a xlink:title=" ">
<path fill="none" stroke="#63b8ff" d="M1285.27,-60.45C1306.1,-49.53 1334.81,-34.47 1355.24,-23.75"/>
<polygon fill="#63b8ff" stroke="#63b8ff" points="1357.03,-26.76 1364.26,-19.02 1353.78,-20.56 1357.03,-26.76"/>
</a>
</g>
</g>
<!-- Node24&#45;&gt;Node13 -->
<g id="edge28_Node000024_Node000013" class="edge">
<title>Node24&#45;&gt;Node13</title>
<g id="a_edge28_Node000024_Node000013"><a xlink:title=" ">
<path fill="none" stroke="#63b8ff" d="M1676.5,-60.3C1676.5,-51.2 1676.5,-39.29 1676.5,-29.4"/>
<polygon fill="#63b8ff" stroke="#63b8ff" points="1680,-29.34 1676.5,-19.34 1673,-29.34 1680,-29.34"/>
</a>
</g>
</g>
<!-- Node25&#45;&gt;Node13 -->
<g id="edge30_Node000025_Node000013" class="edge">
<title>Node25&#45;&gt;Node13</title>
<g id="a_edge30_Node000025_Node000013"><a xlink:title=" ">
<path fill="none" stroke="#63b8ff" d="M1824.8,-60.45C1790.9,-49.03 1743.59,-33.1 1711.6,-22.32"/>
<polygon fill="#63b8ff" stroke="#63b8ff" points="1712.38,-18.89 1701.79,-19.02 1710.15,-25.53 1712.38,-18.89"/>
</a>
</g>
</g>
<!-- Node27&#45;&gt;Node16 -->
<g id="edge33_Node000027_Node000016" class="edge">
<title>Node27&#45;&gt;Node16</title>
<g id="a_edge33_Node000027_Node000016"><a xlink:title=" ">
<path fill="none" stroke="#63b8ff" d="M3187.36,-60.3C3202.82,-49.77 3223.82,-35.47 3239.35,-24.9"/>
<polygon fill="#63b8ff" stroke="#63b8ff" points="3241.49,-27.68 3247.78,-19.16 3237.55,-21.89 3241.49,-27.68"/>
</a>
</g>
</g>
<!-- Node31&#45;&gt;Node6 -->
<g id="edge45_Node000031_Node000006" class="edge">
<title>Node31&#45;&gt;Node6</title>
<g id="a_edge45_Node000031_Node000006"><a xlink:title=" ">
<path fill="none" stroke="#63b8ff" d="M283.8,-197.94C269.33,-189.72 253.63,-177.8 245.5,-162 233.79,-139.25 249.07,-110.89 261.77,-93.24"/>
<polygon fill="#63b8ff" stroke="#63b8ff" points="264.73,-95.14 268.02,-85.07 259.17,-90.89 264.73,-95.14"/>
</a>
</g>
</g>
<!-- Node31&#45;&gt;Node32 -->
<g id="edge38_Node000031_Node000032" class="edge">
<title>Node31&#45;&gt;Node32</title>
<g id="a_edge38_Node000031_Node000032"><a xlink:title=" ">
<path fill="none" stroke="#63b8ff" d="M260.42,-197.95C214.46,-186.24 149.87,-169.77 107.62,-158.99"/>
<polygon fill="#63b8ff" stroke="#63b8ff" points="108.46,-155.6 97.9,-156.52 106.73,-162.38 108.46,-155.6"/>
</a>
</g>
</g>
<!-- Node35 -->
<g id="Node000035" class="node">
<title>Node35</title>
<g id="a_Node000035"><a xlink:title=" ">
<polygon fill="#e0e0e0" stroke="#999999" points="538.5,-156.5 496.5,-156.5 496.5,-137.5 538.5,-137.5 538.5,-156.5"/>
<text text-anchor="middle" x="517.5" y="-144.5" font-family="Helvetica,sans-Serif" font-size="10.00">array</text>
</a>
</g>
</g>
<!-- Node31&#45;&gt;Node35 -->
<g id="edge41_Node000031_Node000035" class="edge">
<title>Node31&#45;&gt;Node35</title>
<g id="a_edge41_Node000031_Node000035"><a xlink:title=" ">
<path fill="none" stroke="#63b8ff" d="M370.81,-197.93C404.61,-188.82 448.5,-176.06 486.5,-162 487.72,-161.55 488.95,-161.08 490.19,-160.58"/>
<polygon fill="#63b8ff" stroke="#63b8ff" points="491.8,-163.7 499.65,-156.58 489.07,-157.25 491.8,-163.7"/>
</a>
</g>
</g>
<!-- Node31&#45;&gt;Node36 -->
<g id="edge42_Node000031_Node000036" class="edge">
<title>Node31&#45;&gt;Node36</title>
<g id="a_edge42_Node000031_Node000036"><a xlink:title=" ">
<path fill="none" stroke="#63b8ff" d="M393.28,-199.32C483.71,-184.58 620.81,-162.21 621.5,-162 623.13,-161.51 624.79,-160.95 626.45,-160.34"/>
<polygon fill="#63b8ff" stroke="#63b8ff" points="627.83,-163.56 635.75,-156.53 625.17,-157.08 627.83,-163.56"/>
</a>
</g>
</g>
<!-- Node37 -->
<g id="Node000037" class="node">
<title>Node37</title>
<g id="a_Node000037"><a xlink:title=" ">
<polygon fill="#e0e0e0" stroke="#999999" points="198,-156.5 147,-156.5 147,-137.5 198,-137.5 198,-156.5"/>
<text text-anchor="middle" x="172.5" y="-144.5" font-family="Helvetica,sans-Serif" font-size="10.00">variant</text>
</a>
</g>
</g>
<!-- Node31&#45;&gt;Node37 -->
<g id="edge43_Node000031_Node000037" class="edge">
<title>Node31&#45;&gt;Node37</title>
<g id="a_edge43_Node000031_Node000037"><a xlink:title=" ">
<path fill="none" stroke="#63b8ff" d="M284.12,-197.95C259.26,-186.83 224.84,-171.42 200.82,-160.67"/>
<polygon fill="#63b8ff" stroke="#63b8ff" points="202.09,-157.41 191.53,-156.52 199.23,-163.8 202.09,-157.41"/>
</a>
</g>
</g>
<!-- Node31&#45;&gt;Node38 -->
<g id="edge44_Node000031_Node000038" class="edge">
<title>Node31&#45;&gt;Node38</title>
<g id="a_edge44_Node000031_Node000038"><a xlink:title=" ">
<path fill="none" stroke="#63b8ff" d="M393.03,-198.3C438.46,-189.53 496.72,-176.99 547.5,-162 549.64,-161.37 551.83,-160.67 554.03,-159.94"/>
<polygon fill="#63b8ff" stroke="#63b8ff" points="555.31,-163.2 563.55,-156.55 552.96,-156.6 555.31,-163.2"/>
</a>
</g>
</g>
<!-- Node39 -->
<g id="Node000039" class="node">
<title>Node39</title>
<g id="a_Node000039"><a xlink:title=" ">
<polygon fill="#e0e0e0" stroke="#999999" points="304.5,-156.5 254.5,-156.5 254.5,-137.5 304.5,-137.5 304.5,-156.5"/>
<text text-anchor="middle" x="279.5" y="-144.5" font-family="Helvetica,sans-Serif" font-size="10.00">format</text>
</a>
</g>
</g>
<!-- Node31&#45;&gt;Node39 -->
<g id="edge46_Node000031_Node000039" class="edge">
<title>Node31&#45;&gt;Node39</title>
<g id="a_edge46_Node000031_Node000039"><a xlink:title=" ">
<path fill="none" stroke="#63b8ff" d="M307.51,-197.8C302.17,-188.31 295.11,-175.76 289.42,-165.63"/>
<polygon fill="#63b8ff" stroke="#63b8ff" points="292.43,-163.84 284.47,-156.84 286.33,-167.28 292.43,-163.84"/>
</a>
</g>
</g>
<!-- Node40 -->
<g id="Node000040" class="node">
<title>Node40</title>
<g id="a_Node000040"><a xlink:title=" ">
<polygon fill="#e0e0e0" stroke="#999999" points="478,-162 323,-162 323,-132 478,-132 478,-162"/>
<text text-anchor="start" x="331" y="-150" font-family="Helvetica,sans-Serif" font-size="10.00">Hermes/Endpoint/IpEndpoint</text>
<text text-anchor="middle" x="400.5" y="-139" font-family="Helvetica,sans-Serif" font-size="10.00">/IpAddress.tpp</text>
</a>
</g>
</g>
<!-- Node31&#45;&gt;Node40 -->
<g id="edge47_Node000031_Node000040" class="edge">
<title>Node31&#45;&gt;Node40</title>
<g id="a_edge47_Node000031_Node000040"><a xlink:title=" ">
<path fill="none" stroke="#63b8ff" d="M334.36,-197.8C345.92,-189.1 360.89,-177.82 373.67,-168.2"/>
<polygon fill="#63b8ff" stroke="#63b8ff" points="375.81,-170.98 381.69,-162.16 371.59,-165.38 375.81,-170.98"/>
</a>
</g>
</g>
<!-- Node33 -->
<g id="Node000033" class="node">
<title>Node33</title>
<g id="a_Node000033"><a xlink:title=" ">
<polygon fill="#e0e0e0" stroke="#999999" points="51,-85 6,-85 6,-66 51,-66 51,-85"/>
<text text-anchor="middle" x="28.5" y="-73" font-family="Helvetica,sans-Serif" font-size="10.00">utility</text>
</a>
</g>
</g>
<!-- Node32&#45;&gt;Node33 -->
<g id="edge39_Node000032_Node000033" class="edge">
<title>Node32&#45;&gt;Node33</title>
<g id="a_edge39_Node000032_Node000033"><a xlink:title=" ">
<path fill="none" stroke="#63b8ff" d="M60.09,-137.48C54.53,-126.74 44.83,-108.03 37.65,-94.16"/>
<polygon fill="#63b8ff" stroke="#63b8ff" points="40.66,-92.36 32.95,-85.09 34.44,-95.58 40.66,-92.36"/>
</a>
</g>
</g>
<!-- Node34 -->
<g id="Node000034" class="node">
<title>Node34</title>
<g id="a_Node000034"><a xlink:title=" ">
<polygon fill="#e0e0e0" stroke="#999999" points="134,-85 69,-85 69,-66 134,-66 134,-85"/>
<text text-anchor="middle" x="101.5" y="-73" font-family="Helvetica,sans-Serif" font-size="10.00">functional</text>
</a>
</g>
</g>
<!-- Node32&#45;&gt;Node34 -->
<g id="edge40_Node000032_Node000034" class="edge">
<title>Node32&#45;&gt;Node34</title>
<g id="a_edge40_Node000032_Node000034"><a xlink:title=" ">
<path fill="none" stroke="#63b8ff" d="M69.04,-137.48C74.75,-126.74 84.71,-108.03 92.1,-94.16"/>
<polygon fill="#63b8ff" stroke="#63b8ff" points="95.32,-95.56 96.93,-85.09 89.14,-92.27 95.32,-95.56"/>
</a>
</g>
</g>
<!-- Node42&#45;&gt;Node3 -->
<g id="edge54_Node000042_Node000003" class="edge">
<title>Node42&#45;&gt;Node3</title>
<g id="a_edge54_Node000042_Node000003"><a xlink:title=" ">
<path fill="none" stroke="#63b8ff" d="M973.85,-269.37C942.62,-259.62 891,-243.5 851.48,-231.16"/>
<polygon fill="#63b8ff" stroke="#63b8ff" points="852.3,-227.75 841.71,-228.12 850.22,-234.44 852.3,-227.75"/>
</a>
</g>
</g>
<!-- Node42&#45;&gt;Node4 -->
<g id="edge55_Node000042_Node000004" class="edge">
<title>Node42&#45;&gt;Node4</title>
<g id="a_edge55_Node000042_Node000004"><a xlink:title=" ">
<path fill="none" stroke="#63b8ff" d="M988.03,-269.27C964.63,-254.2 914.84,-222.58 871.5,-198 852.43,-187.18 830.8,-175.84 812.91,-166.7"/>
<polygon fill="#63b8ff" stroke="#63b8ff" points="814.43,-163.55 803.93,-162.13 811.26,-169.79 814.43,-163.55"/>
</a>
</g>
</g>
<!-- Node42&#45;&gt;Node9 -->
<g id="edge56_Node000042_Node000009" class="edge">
<title>Node42&#45;&gt;Node9</title>
<g id="a_edge56_Node000042_Node000009"><a xlink:title=" ">
<path fill="none" stroke="#63b8ff" d="M1001.76,-269.34C1002.66,-239.12 1005.67,-137.85 1006.94,-95.43"/>
<polygon fill="#63b8ff" stroke="#63b8ff" points="1010.44,-95.45 1007.24,-85.35 1003.44,-95.24 1010.44,-95.45"/>
</a>
</g>
</g>
<!-- Node43 -->
<g id="Node000043" class="node">
<title>Node43</title>
<g id="a_Node000043"><a xlink:title=" ">
<polygon fill="#e0e0e0" stroke="#999999" points="1142.5,-222.5 1082.5,-222.5 1082.5,-203.5 1142.5,-203.5 1142.5,-222.5"/>
<text text-anchor="middle" x="1112.5" y="-210.5" font-family="Helvetica,sans-Serif" font-size="10.00">concepts</text>
</a>
</g>
</g>
<!-- Node42&#45;&gt;Node43 -->
<g id="edge57_Node000042_Node000043" class="edge">
<title>Node42&#45;&gt;Node43</title>
<g id="a_edge57_Node000042_Node000043"><a xlink:title=" ">
<path fill="none" stroke="#63b8ff" d="M1016.47,-269.37C1035.01,-258.68 1066.81,-240.35 1088.7,-227.72"/>
<polygon fill="#63b8ff" stroke="#63b8ff" points="1090.5,-230.73 1097.41,-222.7 1087,-224.66 1090.5,-230.73"/>
</a>
</g>
</g>
<!-- Node44 -->
<g id="Node000044" class="node">
<title>Node44</title>
<g id="a_Node000044"><a xlink:title=" ">
<polygon fill="#e0e0e0" stroke="#999999" points="1064.5,-222.5 1014.5,-222.5 1014.5,-203.5 1064.5,-203.5 1064.5,-222.5"/>
<text text-anchor="middle" x="1039.5" y="-210.5" font-family="Helvetica,sans-Serif" font-size="10.00">ranges</text>
</a>
</g>
</g>
<!-- Node42&#45;&gt;Node44 -->
<g id="edge58_Node000042_Node000044" class="edge">
<title>Node42&#45;&gt;Node44</title>
<g id="a_edge58_Node000042_Node000044"><a xlink:title=" ">
<path fill="none" stroke="#63b8ff" d="M1006.62,-269.37C1012.32,-259.78 1021.66,-244.05 1028.93,-231.8"/>
<polygon fill="#63b8ff" stroke="#63b8ff" points="1032.12,-233.29 1034.21,-222.91 1026.1,-229.72 1032.12,-233.29"/>
</a>
</g>
</g>
<!-- Node45&#45;&gt;Node2 -->
<g id="edge60_Node000045_Node000002" class="edge">
<title>Node45&#45;&gt;Node2</title>
<g id="a_edge60_Node000045_Node000002"><a xlink:title=" ">
<path fill="none" stroke="#63b8ff" d="M739.03,-335.44C707.45,-324.46 663.41,-309.16 629.6,-297.41"/>
<polygon fill="#63b8ff" stroke="#63b8ff" points="630.51,-294.02 619.91,-294.04 628.21,-300.63 630.51,-294.02"/>
</a>
</g>
</g>
<!-- Node45&#45;&gt;Node42 -->
<g id="edge62_Node000045_Node000042" class="edge">
<title>Node45&#45;&gt;Node42</title>
<g id="a_edge62_Node000045_Node000042"><a xlink:title=" ">
<path fill="none" stroke="#63b8ff" d="M824.43,-335.44C865.6,-322.55 925.84,-303.69 964.36,-291.63"/>
<polygon fill="#63b8ff" stroke="#63b8ff" points="965.63,-294.9 974.13,-288.57 963.54,-288.22 965.63,-294.9"/>
</a>
</g>
</g>
<!-- Node46 -->
<g id="Node000046" class="node">
<title>Node46</title>
<g id="a_Node000046"><a xlink:title=" ">
<polygon fill="#e0e0e0" stroke="#999999" points="911.5,-288.5 861.5,-288.5 861.5,-269.5 911.5,-269.5 911.5,-288.5"/>
<text text-anchor="middle" x="886.5" y="-276.5" font-family="Helvetica,sans-Serif" font-size="10.00">chrono</text>
</a>
</g>
</g>
<!-- Node45&#45;&gt;Node46 -->
<g id="edge61_Node000045_Node000046" class="edge">
<title>Node45&#45;&gt;Node46</title>
<g id="a_edge61_Node000045_Node000046"><a xlink:title=" ">
<path fill="none" stroke="#63b8ff" d="M801.15,-335.44C819.73,-323.37 846.36,-306.07 864.92,-294.02"/>
<polygon fill="#63b8ff" stroke="#63b8ff" points="866.83,-296.95 873.31,-288.57 863.02,-291.08 866.83,-296.95"/>
</a>
</g>
</g>
<!-- Node47 -->
<g id="Node000047" class="node">
<title>Node47</title>
<g id="a_Node000047"><a xlink:title=" ">
<polygon fill="#e0e0e0" stroke="#999999" points="843.5,-294 713.5,-294 713.5,-264 843.5,-264 843.5,-294"/>
<text text-anchor="start" x="721.5" y="-282" font-family="Helvetica,sans-Serif" font-size="10.00">Hermes/Socket/Data</text>
<text text-anchor="middle" x="778.5" y="-271" font-family="Helvetica,sans-Serif" font-size="10.00">/DefaultSocketData.tpp</text>
</a>
</g>
</g>
<!-- Node45&#45;&gt;Node47 -->
<g id="edge63_Node000045_Node000047" class="edge">
<title>Node45&#45;&gt;Node47</title>
<g id="a_edge63_Node000045_Node000047"><a xlink:title=" ">
<path fill="none" stroke="#63b8ff" d="M779.3,-335.44C779.17,-326.49 779,-314.66 778.85,-304.23"/>
<polygon fill="#63b8ff" stroke="#63b8ff" points="782.35,-303.99 778.7,-294.04 775.35,-304.09 782.35,-303.99"/>
</a>
</g>
</g>
</g>
</svg>
