<?xml version="1.0" encoding="UTF-8" standalone="no"?>
<!DOCTYPE svg PUBLIC "-//W3C//DTD SVG 1.1//EN"
 "http://www.w3.org/Graphics/SVG/1.1/DTD/svg11.dtd">
<!-- Generated by graphviz version 2.43.0 (0)
 -->
<!-- Title: include/Hermes/Socket/Data/DefaultSocketData.hpp Pages: 1 -->
<svg width="3321pt" height="368pt"
 viewBox="0.00 0.00 3321.00 368.00" xmlns="http://www.w3.org/2000/svg" xmlns:xlink="http://www.w3.org/1999/xlink">
<g id="graph0" class="graph" transform="scale(1 1) rotate(0) translate(4 364)">
<title>include/Hermes/Socket/Data/DefaultSocketData.hpp</title>
<!-- Node1 -->
<g id="Node000001" class="node">
<title>Node1</title>
<g id="a_Node000001"><a xlink:title=" ">
<polygon fill="#999999" stroke="#666666" points="1027.5,-360 869.5,-360 869.5,-330 1027.5,-330 1027.5,-360"/>
<text text-anchor="start" x="877.5" y="-348" font-family="Helvetica,sans-Serif" font-size="10.00">include/Hermes/Socket</text>
<text text-anchor="middle" x="948.5" y="-337" font-family="Helvetica,sans-Serif" font-size="10.00">/Data/DefaultSocketData.hpp</text>
</a>
</g>
</g>
<!-- Node2 -->
<g id="Node000002" class="node">
<title>Node2</title>
<g id="a_Node000002"><a xlink:href="_ip_endpoint_8hpp.html" target="_top" xlink:title=" ">
<polygon fill="white" stroke="#666666" points="569,-294 414,-294 414,-264 569,-264 569,-294"/>
<text text-anchor="start" x="422" y="-282" font-family="Helvetica,sans-Serif" font-size="10.00">Hermes/Endpoint/IpEndpoint</text>
<text text-anchor="middle" x="491.5" y="-271" font-family="Helvetica,sans-Serif" font-size="10.00">/IpEndpoint.hpp</text>
</a>
</g>
</g>
<!-- Node1&#45;&gt;Node2 -->
<g id="edge1_Node000001_Node000002" class="edge">
<title>Node1&#45;&gt;Node2</title>
<g id="a_edge1_Node000001_Node000002"><a xlink:title=" ">
<path fill="none" stroke="#63b8ff" d="M869.42,-332.93C788.53,-321.6 663.16,-304.04 579.25,-292.29"/>
<polygon fill="#63b8ff" stroke="#63b8ff" points="579.62,-288.81 569.23,-290.89 578.65,-295.74 579.62,-288.81"/>
</a>
</g>
</g>
<!-- Node40 -->
<g id="Node000040" class="node">
<title>Node40</title>
<g id="a_Node000040"><a xlink:title=" ">
<polygon fill="#e0e0e0" stroke="#999999" points="1031.5,-288.5 981.5,-288.5 981.5,-269.5 1031.5,-269.5 1031.5,-288.5"/>
<text text-anchor="middle" x="1006.5" y="-276.5" font-family="Helvetica,sans-Serif" font-size="10.00">chrono</text>
</a>
</g>
</g>
<!-- Node1&#45;&gt;Node40 -->
<g id="edge49_Node000001_Node000040" class="edge">
<title>Node1&#45;&gt;Node40</title>
<g id="a_edge49_Node000001_Node000040"><a xlink:title=" ">
<path fill="none" stroke="#63b8ff" d="M961.37,-329.8C970.33,-319.92 982.29,-306.72 991.64,-296.39"/>
<polygon fill="#63b8ff" stroke="#63b8ff" points="994.36,-298.6 998.48,-288.84 989.18,-293.9 994.36,-298.6"/>
</a>
</g>
</g>
<!-- Node41 -->
<g id="Node000041" class="node">
<title>Node41</title>
<g id="a_Node000041"><a xlink:href="__base_8hpp.html" target="_top" xlink:title=" ">
<polygon fill="white" stroke="#666666" points="963,-288.5 820,-288.5 820,-269.5 963,-269.5 963,-288.5"/>
<text text-anchor="middle" x="891.5" y="-276.5" font-family="Helvetica,sans-Serif" font-size="10.00">Hermes/Socket/_base.hpp</text>
</a>
</g>
</g>
<!-- Node1&#45;&gt;Node41 -->
<g id="edge50_Node000001_Node000041" class="edge">
<title>Node1&#45;&gt;Node41</title>
<g id="a_edge50_Node000001_Node000041"><a xlink:title=" ">
<path fill="none" stroke="#63b8ff" d="M935.85,-329.8C927.05,-319.92 915.3,-306.72 906.1,-296.39"/>
<polygon fill="#63b8ff" stroke="#63b8ff" points="908.64,-293.98 899.38,-288.84 903.41,-298.64 908.64,-293.98"/>
</a>
</g>
</g>
<!-- Node44 -->
<g id="Node000044" class="node">
<title>Node44</title>
<g id="a_Node000044"><a xlink:title=" ">
<polygon fill="#e0e0e0" stroke="#999999" points="1179.5,-294 1049.5,-294 1049.5,-264 1179.5,-264 1179.5,-294"/>
<text text-anchor="start" x="1057.5" y="-282" font-family="Helvetica,sans-Serif" font-size="10.00">Hermes/Socket/Data</text>
<text text-anchor="middle" x="1114.5" y="-271" font-family="Helvetica,sans-Serif" font-size="10.00">/DefaultSocketData.tpp</text>
</a>
</g>
</g>
<!-- Node1&#45;&gt;Node44 -->
<g id="edge57_Node000001_Node000044" class="edge">
<title>Node1&#45;&gt;Node44</title>
<g id="a_edge57_Node000001_Node000044"><a xlink:title=" ">
<path fill="none" stroke="#63b8ff" d="M984.93,-329.95C1009.58,-320.45 1042.33,-307.82 1068.74,-297.64"/>
<polygon fill="#63b8ff" stroke="#63b8ff" points="1070.08,-300.88 1078.16,-294.01 1067.57,-294.34 1070.08,-300.88"/>
</a>
</g>
</g>
<!-- Node3 -->
<g id="Node000003" class="node">
<title>Node3</title>
<g id="a_Node000003"><a xlink:href="_endpoint_concept_8hpp.html" target="_top" xlink:title=" ">
<polygon fill="white" stroke="#666666" points="863.5,-228 731.5,-228 731.5,-198 863.5,-198 863.5,-228"/>
<text text-anchor="start" x="739.5" y="-216" font-family="Helvetica,sans-Serif" font-size="10.00">Hermes/Endpoint/_base</text>
<text text-anchor="middle" x="797.5" y="-205" font-family="Helvetica,sans-Serif" font-size="10.00">/EndpointConcept.hpp</text>
</a>
</g>
</g>
<!-- Node2&#45;&gt;Node3 -->
<g id="edge2_Node000002_Node000003" class="edge">
<title>Node2&#45;&gt;Node3</title>
<g id="a_edge2_Node000002_Node000003"><a xlink:title=" ">
<path fill="none" stroke="#63b8ff" d="M558.65,-263.95C606.63,-253.92 671.26,-240.4 721.19,-229.96"/>
<polygon fill="#63b8ff" stroke="#63b8ff" points="722.22,-233.32 731.29,-227.85 720.79,-226.47 722.22,-233.32"/>
</a>
</g>
</g>
<!-- Node29 -->
<g id="Node000029" class="node">
<title>Node29</title>
<g id="a_Node000029"><a xlink:href="_ip_address_8hpp.html" target="_top" xlink:title=" ">
<polygon fill="white" stroke="#666666" points="463,-228 308,-228 308,-198 463,-198 463,-228"/>
<text text-anchor="start" x="316" y="-216" font-family="Helvetica,sans-Serif" font-size="10.00">Hermes/Endpoint/IpEndpoint</text>
<text text-anchor="middle" x="385.5" y="-205" font-family="Helvetica,sans-Serif" font-size="10.00">/IpAddress.hpp</text>
</a>
</g>
</g>
<!-- Node2&#45;&gt;Node29 -->
<g id="edge34_Node000002_Node000029" class="edge">
<title>Node2&#45;&gt;Node29</title>
<g id="a_edge34_Node000002_Node000029"><a xlink:title=" ">
<path fill="none" stroke="#63b8ff" d="M468.24,-263.95C453.33,-254.95 433.77,-243.14 417.41,-233.27"/>
<polygon fill="#63b8ff" stroke="#63b8ff" points="419.08,-230.18 408.71,-228.01 415.46,-236.18 419.08,-230.18"/>
</a>
</g>
</g>
<!-- Node30 -->
<g id="Node000030" class="node">
<title>Node30</title>
<g id="a_Node000030"><a xlink:href="_hash_8hpp.html" target="_top" xlink:title=" ">
<polygon fill="white" stroke="#666666" points="129,-156.5 0,-156.5 0,-137.5 129,-137.5 129,-156.5"/>
<text text-anchor="middle" x="64.5" y="-144.5" font-family="Helvetica,sans-Serif" font-size="10.00">Hermes/Utils/Hash.hpp</text>
</a>
</g>
</g>
<!-- Node2&#45;&gt;Node30 -->
<g id="edge45_Node000002_Node000030" class="edge">
<title>Node2&#45;&gt;Node30</title>
<g id="a_edge45_Node000002_Node000030"><a xlink:title=" ">
<path fill="none" stroke="#63b8ff" d="M413.95,-267.4C363.5,-259.35 296.69,-246.47 239.5,-228 183.66,-209.97 122.05,-179.02 88.89,-161.36"/>
<polygon fill="#63b8ff" stroke="#63b8ff" points="90.4,-158.2 79.93,-156.55 87.08,-164.37 90.4,-158.2"/>
</a>
</g>
</g>
<!-- Node34 -->
<g id="Node000034" class="node">
<title>Node34</title>
<g id="a_Node000034"><a xlink:title=" ">
<polygon fill="#e0e0e0" stroke="#999999" points="191.5,-156.5 147.5,-156.5 147.5,-137.5 191.5,-137.5 191.5,-156.5"/>
<text text-anchor="middle" x="169.5" y="-144.5" font-family="Helvetica,sans-Serif" font-size="10.00">string</text>
</a>
</g>
</g>
<!-- Node2&#45;&gt;Node34 -->
<g id="edge47_Node000002_Node000034" class="edge">
<title>Node2&#45;&gt;Node34</title>
<g id="a_edge47_Node000002_Node000034"><a xlink:title=" ">
<path fill="none" stroke="#63b8ff" d="M415.99,-263.98C379.62,-255.84 335.89,-244 298.5,-228 256.85,-210.18 212.98,-180.22 188.64,-162.46"/>
<polygon fill="#63b8ff" stroke="#63b8ff" points="190.72,-159.65 180.6,-156.52 186.56,-165.28 190.72,-159.65"/>
</a>
</g>
</g>
<!-- Node36 -->
<g id="Node000036" class="node">
<title>Node36</title>
<g id="a_Node000036"><a xlink:title=" ">
<polygon fill="#e0e0e0" stroke="#999999" points="675.5,-156.5 619.5,-156.5 619.5,-137.5 675.5,-137.5 675.5,-156.5"/>
<text text-anchor="middle" x="647.5" y="-144.5" font-family="Helvetica,sans-Serif" font-size="10.00">optional</text>
</a>
</g>
</g>
<!-- Node2&#45;&gt;Node36 -->
<g id="edge46_Node000002_Node000036" class="edge">
<title>Node2&#45;&gt;Node36</title>
<g id="a_edge46_Node000002_Node000036"><a xlink:title=" ">
<path fill="none" stroke="#63b8ff" d="M491.02,-263.74C491.21,-246.15 494.17,-216.34 510.5,-198 541.64,-163.04 565.53,-178.09 609.5,-162 611.13,-161.4 612.81,-160.79 614.5,-160.17"/>
<polygon fill="#63b8ff" stroke="#63b8ff" points="616.02,-163.34 624.19,-156.6 613.6,-156.77 616.02,-163.34"/>
</a>
</g>
</g>
<!-- Node39 -->
<g id="Node000039" class="node">
<title>Node39</title>
<g id="a_Node000039"><a xlink:title=" ">
<polygon fill="#e0e0e0" stroke="#999999" points="675,-228 520,-228 520,-198 675,-198 675,-228"/>
<text text-anchor="start" x="528" y="-216" font-family="Helvetica,sans-Serif" font-size="10.00">Hermes/Endpoint/IpEndpoint</text>
<text text-anchor="middle" x="597.5" y="-205" font-family="Helvetica,sans-Serif" font-size="10.00">/IpEndpoint.tpp</text>
</a>
</g>
</g>
<!-- Node2&#45;&gt;Node39 -->
<g id="edge48_Node000002_Node000039" class="edge">
<title>Node2&#45;&gt;Node39</title>
<g id="a_edge48_Node000002_Node000039"><a xlink:title=" ">
<path fill="none" stroke="#63b8ff" d="M514.76,-263.95C529.67,-254.95 549.23,-243.14 565.59,-233.27"/>
<polygon fill="#63b8ff" stroke="#63b8ff" points="567.54,-236.18 574.29,-228.01 563.92,-230.18 567.54,-236.18"/>
</a>
</g>
</g>
<!-- Node4 -->
<g id="Node000004" class="node">
<title>Node4</title>
<g id="a_Node000004"><a xlink:href="_connection_error_enum_8hpp.html" target="_top" xlink:title=" ">
<polygon fill="white" stroke="#666666" points="898,-162 731,-162 731,-132 898,-132 898,-162"/>
<text text-anchor="start" x="739" y="-150" font-family="Helvetica,sans-Serif" font-size="10.00">Hermes/_base/ConnectionError</text>
<text text-anchor="middle" x="814.5" y="-139" font-family="Helvetica,sans-Serif" font-size="10.00">Enum.hpp</text>
</a>
</g>
</g>
<!-- Node3&#45;&gt;Node4 -->
<g id="edge3_Node000003_Node000004" class="edge">
<title>Node3&#45;&gt;Node4</title>
<g id="a_edge3_Node000003_Node000004"><a xlink:title=" ">
<path fill="none" stroke="#63b8ff" d="M801.27,-197.8C803.3,-190.17 805.85,-180.57 808.17,-171.84"/>
<polygon fill="#63b8ff" stroke="#63b8ff" points="811.55,-172.73 810.74,-162.16 804.79,-170.93 811.55,-172.73"/>
</a>
</g>
</g>
<!-- Node10 -->
<g id="Node000010" class="node">
<title>Node10</title>
<g id="a_Node000010"><a xlink:href="_os_api_8hpp.html" target="_top" xlink:title=" ">
<polygon fill="white" stroke="#666666" points="2128.5,-162 2010.5,-162 2010.5,-132 2128.5,-132 2128.5,-162"/>
<text text-anchor="start" x="2018.5" y="-150" font-family="Helvetica,sans-Serif" font-size="10.00">Hermes/_base/OsApi</text>
<text text-anchor="middle" x="2069.5" y="-139" font-family="Helvetica,sans-Serif" font-size="10.00">/OsApi.hpp</text>
</a>
</g>
</g>
<!-- Node3&#45;&gt;Node10 -->
<g id="edge9_Node000003_Node000010" class="edge">
<title>Node3&#45;&gt;Node10</title>
<g id="a_edge9_Node000003_Node000010"><a xlink:title=" ">
<path fill="none" stroke="#63b8ff" d="M863.73,-202.89C879.06,-201.04 895.33,-199.26 910.5,-198 1322.97,-163.61 1820.11,-152.21 2000.17,-149.05"/>
<polygon fill="#63b8ff" stroke="#63b8ff" points="2000.35,-152.55 2010.29,-148.88 2000.23,-145.55 2000.35,-152.55"/>
</a>
</g>
</g>
<!-- Node5 -->
<g id="Node000005" class="node">
<title>Node5</title>
<g id="a_Node000005"><a xlink:title=" ">
<polygon fill="#e0e0e0" stroke="#999999" points="776.5,-85 714.5,-85 714.5,-66 776.5,-66 776.5,-85"/>
<text text-anchor="middle" x="745.5" y="-73" font-family="Helvetica,sans-Serif" font-size="10.00">expected</text>
</a>
</g>
</g>
<!-- Node4&#45;&gt;Node5 -->
<g id="edge4_Node000004_Node000005" class="edge">
<title>Node4&#45;&gt;Node5</title>
<g id="a_edge4_Node000004_Node000005"><a xlink:title=" ">
<path fill="none" stroke="#63b8ff" d="M800.54,-131.94C789.17,-120.48 773.12,-104.32 761.28,-92.4"/>
<polygon fill="#63b8ff" stroke="#63b8ff" points="763.73,-89.9 754.2,-85.27 758.77,-94.83 763.73,-89.9"/>
</a>
</g>
</g>
<!-- Node6 -->
<g id="Node000006" class="node">
<title>Node6</title>
<g id="a_Node000006"><a xlink:title=" ">
<polygon fill="#e0e0e0" stroke="#999999" points="398,-85 351,-85 351,-66 398,-66 398,-85"/>
<text text-anchor="middle" x="374.5" y="-73" font-family="Helvetica,sans-Serif" font-size="10.00">vector</text>
</a>
</g>
</g>
<!-- Node4&#45;&gt;Node6 -->
<g id="edge5_Node000004_Node000006" class="edge">
<title>Node4&#45;&gt;Node6</title>
<g id="a_edge5_Node000004_Node000006"><a xlink:title=" ">
<path fill="none" stroke="#63b8ff" d="M730.96,-132.8C633.49,-117.41 476.95,-92.68 408.45,-81.86"/>
<polygon fill="#63b8ff" stroke="#63b8ff" points="408.65,-78.35 398.23,-80.25 407.56,-85.27 408.65,-78.35"/>
</a>
</g>
</g>
<!-- Node7 -->
<g id="Node000007" class="node">
<title>Node7</title>
<g id="a_Node000007"><a xlink:title=" ">
<polygon fill="#e0e0e0" stroke="#999999" points="834.5,-85 794.5,-85 794.5,-66 834.5,-66 834.5,-85"/>
<text text-anchor="middle" x="814.5" y="-73" font-family="Helvetica,sans-Serif" font-size="10.00">span</text>
</a>
</g>
</g>
<!-- Node4&#45;&gt;Node7 -->
<g id="edge6_Node000004_Node000007" class="edge">
<title>Node4&#45;&gt;Node7</title>
<g id="a_edge6_Node000004_Node000007"><a xlink:title=" ">
<path fill="none" stroke="#63b8ff" d="M814.5,-131.94C814.5,-121.46 814.5,-107.05 814.5,-95.55"/>
<polygon fill="#63b8ff" stroke="#63b8ff" points="818,-95.27 814.5,-85.27 811,-95.27 818,-95.27"/>
</a>
</g>
</g>
<!-- Node8 -->
<g id="Node000008" class="node">
<title>Node8</title>
<g id="a_Node000008"><a xlink:title=" ">
<polygon fill="#e0e0e0" stroke="#999999" points="696,-85 571,-85 571,-66 696,-66 696,-85"/>
<text text-anchor="middle" x="633.5" y="-73" font-family="Helvetica,sans-Serif" font-size="10.00">stdexec/execution.hpp</text>
</a>
</g>
</g>
<!-- Node4&#45;&gt;Node8 -->
<g id="edge7_Node000004_Node000008" class="edge">
<title>Node4&#45;&gt;Node8</title>
<g id="a_edge7_Node000004_Node000008"><a xlink:title=" ">
<path fill="none" stroke="#63b8ff" d="M777.87,-131.94C744.88,-119.27 696.86,-100.83 665.4,-88.75"/>
<polygon fill="#63b8ff" stroke="#63b8ff" points="666.4,-85.39 655.81,-85.07 663.89,-91.92 666.4,-85.39"/>
</a>
</g>
</g>
<!-- Node9 -->
<g id="Node000009" class="node">
<title>Node9</title>
<g id="a_Node000009"><a xlink:title=" ">
<polygon fill="#e0e0e0" stroke="#999999" points="1019,-90.5 852,-90.5 852,-60.5 1019,-60.5 1019,-90.5"/>
<text text-anchor="start" x="860" y="-78.5" font-family="Helvetica,sans-Serif" font-size="10.00">Hermes/_base/ConnectionError</text>
<text text-anchor="middle" x="935.5" y="-67.5" font-family="Helvetica,sans-Serif" font-size="10.00">Enum.tpp</text>
</a>
</g>
</g>
<!-- Node4&#45;&gt;Node9 -->
<g id="edge8_Node000004_Node000009" class="edge">
<title>Node4&#45;&gt;Node9</title>
<g id="a_edge8_Node000004_Node000009"><a xlink:title=" ">
<path fill="none" stroke="#63b8ff" d="M838.99,-131.94C857.19,-121.48 882.24,-107.09 902.25,-95.6"/>
<polygon fill="#63b8ff" stroke="#63b8ff" points="904.12,-98.56 911.05,-90.54 900.64,-92.49 904.12,-98.56"/>
</a>
</g>
</g>
<!-- Node11 -->
<g id="Node000011" class="node">
<title>Node11</title>
<g id="a_Node000011"><a xlink:title=" ">
<polygon fill="#e0e0e0" stroke="#999999" points="2883,-19 2806,-19 2806,0 2883,0 2883,-19"/>
<text text-anchor="middle" x="2844.5" y="-7" font-family="Helvetica,sans-Serif" font-size="10.00">sys/socket.h</text>
</a>
</g>
</g>
<!-- Node10&#45;&gt;Node11 -->
<g id="edge10_Node000010_Node000011" class="edge">
<title>Node10&#45;&gt;Node11</title>
<g id="a_edge10_Node000010_Node000011"><a xlink:title=" ">
<path fill="none" stroke="#63b8ff" d="M2128.68,-146.13C2297.77,-145.94 2774.24,-141.34 2826.5,-96 2845.36,-79.64 2847.41,-48.97 2846.47,-29.15"/>
<polygon fill="#63b8ff" stroke="#63b8ff" points="2849.96,-28.88 2845.7,-19.18 2842.98,-29.42 2849.96,-28.88"/>
</a>
</g>
</g>
<!-- Node12 -->
<g id="Node000012" class="node">
<title>Node12</title>
<g id="a_Node000012"><a xlink:title=" ">
<polygon fill="#e0e0e0" stroke="#999999" points="2273.5,-19 2201.5,-19 2201.5,0 2273.5,0 2273.5,-19"/>
<text text-anchor="middle" x="2237.5" y="-7" font-family="Helvetica,sans-Serif" font-size="10.00">netinet/in.h</text>
</a>
</g>
</g>
<!-- Node10&#45;&gt;Node12 -->
<g id="edge11_Node000010_Node000012" class="edge">
<title>Node10&#45;&gt;Node12</title>
<g id="a_edge11_Node000010_Node000012"><a xlink:title=" ">
<path fill="none" stroke="#63b8ff" d="M2128.64,-140.11C2184.31,-133.21 2261.85,-119.59 2280.5,-96 2291.8,-81.71 2287.33,-71.89 2280.5,-55 2275.81,-43.41 2266.5,-33.16 2257.74,-25.43"/>
<polygon fill="#63b8ff" stroke="#63b8ff" points="2259.94,-22.71 2249.99,-19.07 2255.5,-28.12 2259.94,-22.71"/>
</a>
</g>
</g>
<!-- Node13 -->
<g id="Node000013" class="node">
<title>Node13</title>
<g id="a_Node000013"><a xlink:title=" ">
<polygon fill="#e0e0e0" stroke="#999999" points="3136,-85 3067,-85 3067,-66 3136,-66 3136,-85"/>
<text text-anchor="middle" x="3101.5" y="-73" font-family="Helvetica,sans-Serif" font-size="10.00">arpa/inet.h</text>
</a>
</g>
</g>
<!-- Node10&#45;&gt;Node13 -->
<g id="edge12_Node000010_Node000013" class="edge">
<title>Node10&#45;&gt;Node13</title>
<g id="a_edge12_Node000010_Node000013"><a xlink:title=" ">
<path fill="none" stroke="#63b8ff" d="M2128.7,-145.83C2313.76,-144.85 2879.57,-138.39 3057.5,-96 3063.75,-94.51 3070.21,-92.16 3076.2,-89.59"/>
<polygon fill="#63b8ff" stroke="#63b8ff" points="3078.09,-92.57 3085.7,-85.2 3075.15,-86.22 3078.09,-92.57"/>
</a>
</g>
</g>
<!-- Node14 -->
<g id="Node000014" class="node">
<title>Node14</title>
<g id="a_Node000014"><a xlink:title=" ">
<polygon fill="#e0e0e0" stroke="#999999" points="1223,-19 1170,-19 1170,0 1223,0 1223,-19"/>
<text text-anchor="middle" x="1196.5" y="-7" font-family="Helvetica,sans-Serif" font-size="10.00">netdb.h</text>
</a>
</g>
</g>
<!-- Node10&#45;&gt;Node14 -->
<g id="edge13_Node000010_Node000014" class="edge">
<title>Node10&#45;&gt;Node14</title>
<g id="a_edge13_Node000010_Node000014"><a xlink:title=" ">
<path fill="none" stroke="#63b8ff" d="M2010.23,-144.65C1841.36,-140.47 1365.76,-126.11 1302.5,-96 1280.07,-85.32 1283.48,-71.03 1264.5,-55 1250.84,-43.46 1234.04,-32.44 1220.55,-24.25"/>
<polygon fill="#63b8ff" stroke="#63b8ff" points="1222.21,-21.17 1211.82,-19.06 1218.63,-27.18 1222.21,-21.17"/>
</a>
</g>
</g>
<!-- Node15 -->
<g id="Node000015" class="node">
<title>Node15</title>
<g id="a_Node000015"><a xlink:title=" ">
<polygon fill="#e0e0e0" stroke="#999999" points="1255.5,-85 1199.5,-85 1199.5,-66 1255.5,-66 1255.5,-85"/>
<text text-anchor="middle" x="1227.5" y="-73" font-family="Helvetica,sans-Serif" font-size="10.00">unistd.h</text>
</a>
</g>
</g>
<!-- Node10&#45;&gt;Node15 -->
<g id="edge14_Node000010_Node000015" class="edge">
<title>Node10&#45;&gt;Node15</title>
<g id="a_edge14_Node000010_Node000015"><a xlink:title=" ">
<path fill="none" stroke="#63b8ff" d="M2010.47,-145.14C1850.23,-142.36 1409.78,-131.6 1269.5,-96 1263.51,-94.48 1257.33,-92.11 1251.61,-89.55"/>
<polygon fill="#63b8ff" stroke="#63b8ff" points="1253.07,-86.37 1242.55,-85.15 1250.02,-92.67 1253.07,-86.37"/>
</a>
</g>
</g>
<!-- Node16 -->
<g id="Node000016" class="node">
<title>Node16</title>
<g id="a_Node000016"><a xlink:href="_conversion_and_literals_8hpp.html" target="_top" xlink:title=" ">
<polygon fill="white" stroke="#666666" points="2477.5,-90.5 2327.5,-90.5 2327.5,-60.5 2477.5,-60.5 2477.5,-90.5"/>
<text text-anchor="start" x="2335.5" y="-78.5" font-family="Helvetica,sans-Serif" font-size="10.00">Hermes/_base/OsApi</text>
<text text-anchor="middle" x="2402.5" y="-67.5" font-family="Helvetica,sans-Serif" font-size="10.00">/ConversionAndLiterals.hpp</text>
</a>
</g>
</g>
<!-- Node10&#45;&gt;Node16 -->
<g id="edge15_Node000010_Node000016" class="edge">
<title>Node10&#45;&gt;Node16</title>
<g id="a_edge15_Node000010_Node000016"><a xlink:title=" ">
<path fill="none" stroke="#63b8ff" d="M2128.71,-134.1C2178.15,-124.11 2250.47,-109.36 2313.5,-96 2318.5,-94.94 2323.65,-93.84 2328.84,-92.72"/>
<polygon fill="#63b8ff" stroke="#63b8ff" points="2329.8,-96.09 2338.84,-90.56 2328.32,-89.25 2329.8,-96.09"/>
</a>
</g>
</g>
<!-- Node18 -->
<g id="Node000018" class="node">
<title>Node18</title>
<g id="a_Node000018"><a xlink:href="_macros_8hpp.html" target="_top" xlink:title=" ">
<polygon fill="white" stroke="#666666" points="2613.5,-90.5 2495.5,-90.5 2495.5,-60.5 2613.5,-60.5 2613.5,-90.5"/>
<text text-anchor="start" x="2503.5" y="-78.5" font-family="Helvetica,sans-Serif" font-size="10.00">Hermes/_base/OsApi</text>
<text text-anchor="middle" x="2554.5" y="-67.5" font-family="Helvetica,sans-Serif" font-size="10.00">/Macros.hpp</text>
</a>
</g>
</g>
<!-- Node10&#45;&gt;Node18 -->
<g id="edge17_Node000010_Node000018" class="edge">
<title>Node10&#45;&gt;Node18</title>
<g id="a_edge17_Node000010_Node000018"><a xlink:title=" ">
<path fill="none" stroke="#63b8ff" d="M2128.67,-141.9C2209.93,-135.59 2360.35,-121.48 2486.5,-96 2490.81,-95.13 2495.25,-94.12 2499.7,-93.03"/>
<polygon fill="#63b8ff" stroke="#63b8ff" points="2500.58,-96.41 2509.39,-90.53 2498.84,-89.63 2500.58,-96.41"/>
</a>
</g>
</g>
<!-- Node20 -->
<g id="Node000020" class="node">
<title>Node20</title>
<g id="a_Node000020"><a xlink:href="_address_family_enum_8hpp.html" target="_top" xlink:title=" ">
<polygon fill="white" stroke="#666666" points="3048.5,-90.5 2872.5,-90.5 2872.5,-60.5 3048.5,-60.5 3048.5,-90.5"/>
<text text-anchor="start" x="2880.5" y="-78.5" font-family="Helvetica,sans-Serif" font-size="10.00">Hermes/_base/OsApi</text>
<text text-anchor="middle" x="2960.5" y="-67.5" font-family="Helvetica,sans-Serif" font-size="10.00">/Enums/AddressFamilyEnum.hpp</text>
</a>
</g>
</g>
<!-- Node10&#45;&gt;Node20 -->
<g id="edge20_Node000010_Node000020" class="edge">
<title>Node10&#45;&gt;Node20</title>
<g id="a_edge20_Node000010_Node000020"><a xlink:title=" ">
<path fill="none" stroke="#63b8ff" d="M2128.63,-144.79C2260.25,-141.54 2587.19,-130.39 2858.5,-96 2866.73,-94.96 2875.29,-93.66 2883.81,-92.23"/>
<polygon fill="#63b8ff" stroke="#63b8ff" points="2884.5,-95.66 2893.75,-90.5 2883.3,-88.77 2884.5,-95.66"/>
</a>
</g>
</g>
<!-- Node21 -->
<g id="Node000021" class="node">
<title>Node21</title>
<g id="a_Node000021"><a xlink:href="_protocol_base_type_enum_8hpp.html" target="_top" xlink:title=" ">
<polygon fill="white" stroke="#666666" points="2271,-90.5 2080,-90.5 2080,-60.5 2271,-60.5 2271,-90.5"/>
<text text-anchor="start" x="2088" y="-78.5" font-family="Helvetica,sans-Serif" font-size="10.00">Hermes/_base/OsApi</text>
<text text-anchor="middle" x="2175.5" y="-67.5" font-family="Helvetica,sans-Serif" font-size="10.00">/Enums/ProtocolBaseTypeEnum.hpp</text>
</a>
</g>
</g>
<!-- Node10&#45;&gt;Node21 -->
<g id="edge22_Node000010_Node000021" class="edge">
<title>Node10&#45;&gt;Node21</title>
<g id="a_edge22_Node000010_Node000021"><a xlink:title=" ">
<path fill="none" stroke="#63b8ff" d="M2090.95,-131.94C2106.61,-121.67 2128.05,-107.61 2145.42,-96.22"/>
<polygon fill="#63b8ff" stroke="#63b8ff" points="2147.64,-98.95 2154.08,-90.54 2143.8,-93.1 2147.64,-98.95"/>
</a>
</g>
</g>
<!-- Node22 -->
<g id="Node000022" class="node">
<title>Node22</title>
<g id="a_Node000022"><a xlink:href="_socket_shutdown_enum_8hpp.html" target="_top" xlink:title=" ">
<polygon fill="white" stroke="#666666" points="2817,-90.5 2632,-90.5 2632,-60.5 2817,-60.5 2817,-90.5"/>
<text text-anchor="start" x="2640" y="-78.5" font-family="Helvetica,sans-Serif" font-size="10.00">Hermes/_base/OsApi</text>
<text text-anchor="middle" x="2724.5" y="-67.5" font-family="Helvetica,sans-Serif" font-size="10.00">/Enums/SocketShutdownEnum.hpp</text>
</a>
</g>
</g>
<!-- Node10&#45;&gt;Node22 -->
<g id="edge24_Node000010_Node000022" class="edge">
<title>Node10&#45;&gt;Node22</title>
<g id="a_edge24_Node000010_Node000022"><a xlink:title=" ">
<path fill="none" stroke="#63b8ff" d="M2128.65,-142.58C2230.06,-136.28 2443.51,-121.14 2622.5,-96 2630.16,-94.92 2638.11,-93.66 2646.05,-92.31"/>
<polygon fill="#63b8ff" stroke="#63b8ff" points="2646.83,-95.72 2656.07,-90.54 2645.62,-88.83 2646.83,-95.72"/>
</a>
</g>
</g>
<!-- Node23 -->
<g id="Node000023" class="node">
<title>Node23</title>
<g id="a_Node000023"><a xlink:href="_socket_type_enum_8hpp.html" target="_top" xlink:title=" ">
<polygon fill="white" stroke="#666666" points="3313,-90.5 3154,-90.5 3154,-60.5 3313,-60.5 3313,-90.5"/>
<text text-anchor="start" x="3162" y="-78.5" font-family="Helvetica,sans-Serif" font-size="10.00">Hermes/_base/OsApi</text>
<text text-anchor="middle" x="3233.5" y="-67.5" font-family="Helvetica,sans-Serif" font-size="10.00">/Enums/SocketTypeEnum.hpp</text>
</a>
</g>
</g>
<!-- Node10&#45;&gt;Node23 -->
<g id="edge26_Node000010_Node000023" class="edge">
<title>Node10&#45;&gt;Node23</title>
<g id="a_edge26_Node000010_Node000023"><a xlink:title=" ">
<path fill="none" stroke="#63b8ff" d="M2128.8,-144.59C2324.18,-139.72 2946.45,-122.48 3145.5,-96 3152.54,-95.06 3159.85,-93.85 3167.11,-92.48"/>
<polygon fill="#63b8ff" stroke="#63b8ff" points="3167.82,-95.9 3176.95,-90.53 3166.46,-89.04 3167.82,-95.9"/>
</a>
</g>
</g>
<!-- Node24 -->
<g id="Node000024" class="node">
<title>Node24</title>
<g id="a_Node000024"><a xlink:href="_linux_2_encrypt_status_enum_8hpp.html" target="_top" xlink:title=" ">
<polygon fill="white" stroke="#666666" points="1463.5,-96 1311.5,-96 1311.5,-55 1463.5,-55 1463.5,-96"/>
<text text-anchor="start" x="1319.5" y="-84" font-family="Helvetica,sans-Serif" font-size="10.00">Hermes/_base/OsApi</text>
<text text-anchor="start" x="1319.5" y="-73" font-family="Helvetica,sans-Serif" font-size="10.00">/Enums/Linux/EncryptStatus</text>
<text text-anchor="middle" x="1387.5" y="-62" font-family="Helvetica,sans-Serif" font-size="10.00">Enum.hpp</text>
</a>
</g>
</g>
<!-- Node10&#45;&gt;Node24 -->
<g id="edge28_Node000010_Node000024" class="edge">
<title>Node10&#45;&gt;Node24</title>
<g id="a_edge28_Node000010_Node000024"><a xlink:title=" ">
<path fill="none" stroke="#63b8ff" d="M2010.28,-143.83C1904.39,-139.33 1675.55,-126.87 1473.75,-96.08"/>
<polygon fill="#63b8ff" stroke="#63b8ff" points="1474.27,-92.62 1463.86,-94.56 1473.21,-99.54 1474.27,-92.62"/>
</a>
</g>
</g>
<!-- Node25 -->
<g id="Node000025" class="node">
<title>Node25</title>
<g id="a_Node000025"><a xlink:href="_name_info_flags_8hpp.html" target="_top" xlink:title=" ">
<polygon fill="white" stroke="#666666" points="1181.5,-90.5 1037.5,-90.5 1037.5,-60.5 1181.5,-60.5 1181.5,-90.5"/>
<text text-anchor="start" x="1045.5" y="-78.5" font-family="Helvetica,sans-Serif" font-size="10.00">Hermes/_base/OsApi</text>
<text text-anchor="middle" x="1109.5" y="-67.5" font-family="Helvetica,sans-Serif" font-size="10.00">/Flags/NameInfoFlags.hpp</text>
</a>
</g>
</g>
<!-- Node10&#45;&gt;Node25 -->
<g id="edge29_Node000010_Node000025" class="edge">
<title>Node10&#45;&gt;Node25</title>
<g id="a_edge29_Node000010_Node000025"><a xlink:title=" ">
<path fill="none" stroke="#63b8ff" d="M2010.5,-146.28C1868.48,-146.17 1496.71,-141.19 1190.5,-96 1184.4,-95.1 1178.08,-93.96 1171.79,-92.68"/>
<polygon fill="#63b8ff" stroke="#63b8ff" points="1172.46,-89.25 1161.95,-90.57 1171,-96.09 1172.46,-89.25"/>
</a>
</g>
</g>
<!-- Node26 -->
<g id="Node000026" class="node">
<title>Node26</title>
<g id="a_Node000026"><a xlink:href="_linux_2_credential_flags_8hpp.html" target="_top" xlink:title=" ">
<polygon fill="white" stroke="#666666" points="1657.5,-90.5 1481.5,-90.5 1481.5,-60.5 1657.5,-60.5 1657.5,-90.5"/>
<text text-anchor="start" x="1489.5" y="-78.5" font-family="Helvetica,sans-Serif" font-size="10.00">Hermes/_base/OsApi</text>
<text text-anchor="middle" x="1569.5" y="-67.5" font-family="Helvetica,sans-Serif" font-size="10.00">/Flags/Linux/CredentialFlags.hpp</text>
</a>
</g>
</g>
<!-- Node10&#45;&gt;Node26 -->
<g id="edge31_Node000010_Node000026" class="edge">
<title>Node10&#45;&gt;Node26</title>
<g id="a_edge31_Node000010_Node000026"><a xlink:title=" ">
<path fill="none" stroke="#63b8ff" d="M2010.23,-140.05C1931.48,-131.83 1788.11,-115.74 1666.5,-96 1659.84,-94.92 1652.93,-93.71 1646.02,-92.44"/>
<polygon fill="#63b8ff" stroke="#63b8ff" points="1646.38,-88.94 1635.91,-90.54 1645.09,-95.82 1646.38,-88.94"/>
</a>
</g>
</g>
<!-- Node27 -->
<g id="Node000027" class="node">
<title>Node27</title>
<g id="a_Node000027"><a xlink:href="_linux_2_supported_protocols_flags_8hpp.html" target="_top" xlink:title=" ">
<polygon fill="white" stroke="#666666" points="1849,-96 1676,-96 1676,-55 1849,-55 1849,-96"/>
<text text-anchor="start" x="1684" y="-84" font-family="Helvetica,sans-Serif" font-size="10.00">Hermes/_base/OsApi</text>
<text text-anchor="start" x="1684" y="-73" font-family="Helvetica,sans-Serif" font-size="10.00">/Flags/Linux/SupportedProtocols</text>
<text text-anchor="middle" x="1762.5" y="-62" font-family="Helvetica,sans-Serif" font-size="10.00">Flags.hpp</text>
</a>
</g>
</g>
<!-- Node10&#45;&gt;Node27 -->
<g id="edge32_Node000010_Node000027" class="edge">
<title>Node10&#45;&gt;Node27</title>
<g id="a_edge32_Node000010_Node000027"><a xlink:title=" ">
<path fill="none" stroke="#63b8ff" d="M2010.31,-132.6C1967.35,-122.87 1908.29,-109.51 1858.61,-98.26"/>
<polygon fill="#63b8ff" stroke="#63b8ff" points="1859.33,-94.83 1848.81,-96.04 1857.79,-101.66 1859.33,-94.83"/>
</a>
</g>
</g>
<!-- Node28 -->
<g id="Node000028" class="node">
<title>Node28</title>
<g id="a_Node000028"><a xlink:href="_linux_2_s_channel_cred_flags_8hpp.html" target="_top" xlink:title=" ">
<polygon fill="white" stroke="#666666" points="2061.5,-90.5 1867.5,-90.5 1867.5,-60.5 2061.5,-60.5 2061.5,-90.5"/>
<text text-anchor="start" x="1875.5" y="-78.5" font-family="Helvetica,sans-Serif" font-size="10.00">Hermes/_base/OsApi</text>
<text text-anchor="middle" x="1964.5" y="-67.5" font-family="Helvetica,sans-Serif" font-size="10.00">/Flags/Linux/SChannelCredFlags.hpp</text>
</a>
</g>
</g>
<!-- Node10&#45;&gt;Node28 -->
<g id="edge33_Node000010_Node000028" class="edge">
<title>Node10&#45;&gt;Node28</title>
<g id="a_edge33_Node000010_Node000028"><a xlink:title=" ">
<path fill="none" stroke="#63b8ff" d="M2048.25,-131.94C2032.74,-121.67 2011.5,-107.61 1994.3,-96.22"/>
<polygon fill="#63b8ff" stroke="#63b8ff" points="1995.99,-93.14 1985.72,-90.54 1992.12,-98.98 1995.99,-93.14"/>
</a>
</g>
</g>
<!-- Node17 -->
<g id="Node000017" class="node">
<title>Node17</title>
<g id="a_Node000017"><a xlink:title=" ">
<polygon fill="#e0e0e0" stroke="#999999" points="2427.5,-19 2377.5,-19 2377.5,0 2427.5,0 2427.5,-19"/>
<text text-anchor="middle" x="2402.5" y="-7" font-family="Helvetica,sans-Serif" font-size="10.00">cstdint</text>
</a>
</g>
</g>
<!-- Node16&#45;&gt;Node17 -->
<g id="edge16_Node000016_Node000017" class="edge">
<title>Node16&#45;&gt;Node17</title>
<g id="a_edge16_Node000016_Node000017"><a xlink:title=" ">
<path fill="none" stroke="#63b8ff" d="M2402.5,-60.3C2402.5,-51.2 2402.5,-39.29 2402.5,-29.4"/>
<polygon fill="#63b8ff" stroke="#63b8ff" points="2406,-29.34 2402.5,-19.34 2399,-29.34 2406,-29.34"/>
</a>
</g>
</g>
<!-- Node18&#45;&gt;Node11 -->
<g id="edge19_Node000018_Node000011" class="edge">
<title>Node18&#45;&gt;Node11</title>
<g id="a_edge19_Node000018_Node000011"><a xlink:title=" ">
<path fill="none" stroke="#63b8ff" d="M2602.26,-60.49C2609.36,-58.56 2616.6,-56.67 2623.5,-55 2682.44,-40.76 2750.99,-27.46 2795.92,-19.17"/>
<polygon fill="#63b8ff" stroke="#63b8ff" points="2796.77,-22.58 2805.98,-17.33 2795.51,-15.69 2796.77,-22.58"/>
</a>
</g>
</g>
<!-- Node19 -->
<g id="Node000019" class="node">
<title>Node19</title>
<g id="a_Node000019"><a xlink:title=" ">
<polygon fill="#e0e0e0" stroke="#999999" points="2591,-19 2518,-19 2518,0 2591,0 2591,-19"/>
<text text-anchor="middle" x="2554.5" y="-7" font-family="Helvetica,sans-Serif" font-size="10.00">string_view</text>
</a>
</g>
</g>
<!-- Node18&#45;&gt;Node19 -->
<g id="edge18_Node000018_Node000019" class="edge">
<title>Node18&#45;&gt;Node19</title>
<g id="a_edge18_Node000018_Node000019"><a xlink:title=" ">
<path fill="none" stroke="#63b8ff" d="M2554.5,-60.3C2554.5,-51.2 2554.5,-39.29 2554.5,-29.4"/>
<polygon fill="#63b8ff" stroke="#63b8ff" points="2558,-29.34 2554.5,-19.34 2551,-29.34 2558,-29.34"/>
</a>
</g>
</g>
<!-- Node20&#45;&gt;Node11 -->
<g id="edge21_Node000020_Node000011" class="edge">
<title>Node20&#45;&gt;Node11</title>
<g id="a_edge21_Node000020_Node000011"><a xlink:title=" ">
<path fill="none" stroke="#63b8ff" d="M2935.04,-60.45C2915.33,-49.58 2888.19,-34.61 2868.78,-23.9"/>
<polygon fill="#63b8ff" stroke="#63b8ff" points="2870.38,-20.78 2859.94,-19.02 2867,-26.91 2870.38,-20.78"/>
</a>
</g>
</g>
<!-- Node21&#45;&gt;Node12 -->
<g id="edge23_Node000021_Node000012" class="edge">
<title>Node21&#45;&gt;Node12</title>
<g id="a_edge23_Node000021_Node000012"><a xlink:title=" ">
<path fill="none" stroke="#63b8ff" d="M2189.26,-60.3C2198.93,-50.32 2211.87,-36.96 2221.92,-26.59"/>
<polygon fill="#63b8ff" stroke="#63b8ff" points="2224.49,-28.96 2228.93,-19.34 2219.46,-24.09 2224.49,-28.96"/>
</a>
</g>
</g>
<!-- Node22&#45;&gt;Node11 -->
<g id="edge25_Node000022_Node000011" class="edge">
<title>Node22&#45;&gt;Node11</title>
<g id="a_edge25_Node000022_Node000011"><a xlink:title=" ">
<path fill="none" stroke="#63b8ff" d="M2750.83,-60.45C2771.32,-49.53 2799.56,-34.47 2819.66,-23.75"/>
<polygon fill="#63b8ff" stroke="#63b8ff" points="2821.35,-26.81 2828.53,-19.02 2818.06,-20.64 2821.35,-26.81"/>
</a>
</g>
</g>
<!-- Node23&#45;&gt;Node11 -->
<g id="edge27_Node000023_Node000011" class="edge">
<title>Node23&#45;&gt;Node11</title>
<g id="a_edge27_Node000023_Node000011"><a xlink:title=" ">
<path fill="none" stroke="#63b8ff" d="M3172.55,-60.4C3163.5,-58.48 3154.27,-56.62 3145.5,-55 3057.04,-38.68 2953.09,-24.38 2893.39,-16.64"/>
<polygon fill="#63b8ff" stroke="#63b8ff" points="2893.5,-13.12 2883.13,-15.32 2892.6,-20.07 2893.5,-13.12"/>
</a>
</g>
</g>
<!-- Node25&#45;&gt;Node14 -->
<g id="edge30_Node000025_Node000014" class="edge">
<title>Node25&#45;&gt;Node14</title>
<g id="a_edge30_Node000025_Node000014"><a xlink:title=" ">
<path fill="none" stroke="#63b8ff" d="M1128.81,-60.3C1142.99,-49.87 1162.19,-35.74 1176.52,-25.19"/>
<polygon fill="#63b8ff" stroke="#63b8ff" points="1178.75,-27.9 1184.73,-19.16 1174.6,-22.26 1178.75,-27.9"/>
</a>
</g>
</g>
<!-- Node29&#45;&gt;Node6 -->
<g id="edge42_Node000029_Node000006" class="edge">
<title>Node29&#45;&gt;Node6</title>
<g id="a_edge42_Node000029_Node000006"><a xlink:title=" ">
<path fill="none" stroke="#63b8ff" d="M307.68,-203.86C281.36,-196.96 254.59,-184.46 238.5,-162 208.71,-120.4 291.46,-94.52 340.75,-83.19"/>
<polygon fill="#63b8ff" stroke="#63b8ff" points="341.69,-86.56 350.7,-80.99 340.18,-79.73 341.69,-86.56"/>
</a>
</g>
</g>
<!-- Node29&#45;&gt;Node30 -->
<g id="edge35_Node000029_Node000030" class="edge">
<title>Node29&#45;&gt;Node30</title>
<g id="a_edge35_Node000029_Node000030"><a xlink:title=" ">
<path fill="none" stroke="#63b8ff" d="M315.06,-197.95C255.41,-186.06 171.24,-169.28 117.26,-158.52"/>
<polygon fill="#63b8ff" stroke="#63b8ff" points="117.71,-155.04 107.22,-156.52 116.34,-161.91 117.71,-155.04"/>
</a>
</g>
</g>
<!-- Node33 -->
<g id="Node000033" class="node">
<title>Node33</title>
<g id="a_Node000033"><a xlink:title=" ">
<polygon fill="#e0e0e0" stroke="#999999" points="531.5,-156.5 489.5,-156.5 489.5,-137.5 531.5,-137.5 531.5,-156.5"/>
<text text-anchor="middle" x="510.5" y="-144.5" font-family="Helvetica,sans-Serif" font-size="10.00">array</text>
</a>
</g>
</g>
<!-- Node29&#45;&gt;Node33 -->
<g id="edge38_Node000029_Node000033" class="edge">
<title>Node29&#45;&gt;Node33</title>
<g id="a_edge38_Node000029_Node000033"><a xlink:title=" ">
<path fill="none" stroke="#63b8ff" d="M412.93,-197.95C434.37,-186.98 463.95,-171.83 484.9,-161.11"/>
<polygon fill="#63b8ff" stroke="#63b8ff" points="486.56,-164.19 493.86,-156.52 483.37,-157.96 486.56,-164.19"/>
</a>
</g>
</g>
<!-- Node29&#45;&gt;Node34 -->
<g id="edge39_Node000029_Node000034" class="edge">
<title>Node29&#45;&gt;Node34</title>
<g id="a_edge39_Node000029_Node000034"><a xlink:title=" ">
<path fill="none" stroke="#63b8ff" d="M329.52,-197.99C293.77,-188.67 246.59,-175.66 205.5,-162 203.84,-161.45 202.14,-160.86 200.43,-160.26"/>
<polygon fill="#63b8ff" stroke="#63b8ff" points="201.29,-156.84 190.69,-156.65 198.85,-163.4 201.29,-156.84"/>
</a>
</g>
</g>
<!-- Node35 -->
<g id="Node000035" class="node">
<title>Node35</title>
<g id="a_Node000035"><a xlink:title=" ">
<polygon fill="#e0e0e0" stroke="#999999" points="601,-156.5 550,-156.5 550,-137.5 601,-137.5 601,-156.5"/>
<text text-anchor="middle" x="575.5" y="-144.5" font-family="Helvetica,sans-Serif" font-size="10.00">variant</text>
</a>
</g>
</g>
<!-- Node29&#45;&gt;Node35 -->
<g id="edge40_Node000029_Node000035" class="edge">
<title>Node29&#45;&gt;Node35</title>
<g id="a_edge40_Node000029_Node000035"><a xlink:title=" ">
<path fill="none" stroke="#63b8ff" d="M431.9,-197.94C462.84,-188.35 504.33,-175.05 540.5,-162 542.11,-161.42 543.75,-160.81 545.41,-160.19"/>
<polygon fill="#63b8ff" stroke="#63b8ff" points="546.8,-163.4 554.86,-156.53 544.27,-156.88 546.8,-163.4"/>
</a>
</g>
</g>
<!-- Node29&#45;&gt;Node36 -->
<g id="edge41_Node000029_Node000036" class="edge">
<title>Node29&#45;&gt;Node36</title>
<g id="a_edge41_Node000029_Node000036"><a xlink:title=" ">
<path fill="none" stroke="#63b8ff" d="M460.04,-197.96C503.92,-189.05 560.29,-176.49 609.5,-162 611.78,-161.33 614.11,-160.59 616.45,-159.82"/>
<polygon fill="#63b8ff" stroke="#63b8ff" points="617.68,-163.1 625.96,-156.5 615.37,-156.49 617.68,-163.1"/>
</a>
</g>
</g>
<!-- Node37 -->
<g id="Node000037" class="node">
<title>Node37</title>
<g id="a_Node000037"><a xlink:title=" ">
<polygon fill="#e0e0e0" stroke="#999999" points="297.5,-156.5 247.5,-156.5 247.5,-137.5 297.5,-137.5 297.5,-156.5"/>
<text text-anchor="middle" x="272.5" y="-144.5" font-family="Helvetica,sans-Serif" font-size="10.00">format</text>
</a>
</g>
</g>
<!-- Node29&#45;&gt;Node37 -->
<g id="edge43_Node000029_Node000037" class="edge">
<title>Node29&#45;&gt;Node37</title>
<g id="a_edge43_Node000029_Node000037"><a xlink:title=" ">
<path fill="none" stroke="#63b8ff" d="M360.7,-197.95C341.58,-187.13 315.3,-172.24 296.41,-161.54"/>
<polygon fill="#63b8ff" stroke="#63b8ff" points="297.96,-158.4 287.54,-156.52 294.51,-164.49 297.96,-158.4"/>
</a>
</g>
</g>
<!-- Node38 -->
<g id="Node000038" class="node">
<title>Node38</title>
<g id="a_Node000038"><a xlink:title=" ">
<polygon fill="#e0e0e0" stroke="#999999" points="471,-162 316,-162 316,-132 471,-132 471,-162"/>
<text text-anchor="start" x="324" y="-150" font-family="Helvetica,sans-Serif" font-size="10.00">Hermes/Endpoint/IpEndpoint</text>
<text text-anchor="middle" x="393.5" y="-139" font-family="Helvetica,sans-Serif" font-size="10.00">/IpAddress.tpp</text>
</a>
</g>
</g>
<!-- Node29&#45;&gt;Node38 -->
<g id="edge44_Node000029_Node000038" class="edge">
<title>Node29&#45;&gt;Node38</title>
<g id="a_edge44_Node000029_Node000038"><a xlink:title=" ">
<path fill="none" stroke="#63b8ff" d="M387.28,-197.8C388.22,-190.26 389.4,-180.78 390.48,-172.13"/>
<polygon fill="#63b8ff" stroke="#63b8ff" points="393.96,-172.52 391.73,-162.16 387.02,-171.65 393.96,-172.52"/>
</a>
</g>
</g>
<!-- Node31 -->
<g id="Node000031" class="node">
<title>Node31</title>
<g id="a_Node000031"><a xlink:title=" ">
<polygon fill="#e0e0e0" stroke="#999999" points="51,-85 6,-85 6,-66 51,-66 51,-85"/>
<text text-anchor="middle" x="28.5" y="-73" font-family="Helvetica,sans-Serif" font-size="10.00">utility</text>
</a>
</g>
</g>
<!-- Node30&#45;&gt;Node31 -->
<g id="edge36_Node000030_Node000031" class="edge">
<title>Node30&#45;&gt;Node31</title>
<g id="a_edge36_Node000030_Node000031"><a xlink:title=" ">
<path fill="none" stroke="#63b8ff" d="M60.09,-137.48C54.53,-126.74 44.83,-108.03 37.65,-94.16"/>
<polygon fill="#63b8ff" stroke="#63b8ff" points="40.66,-92.36 32.95,-85.09 34.44,-95.58 40.66,-92.36"/>
</a>
</g>
</g>
<!-- Node32 -->
<g id="Node000032" class="node">
<title>Node32</title>
<g id="a_Node000032"><a xlink:title=" ">
<polygon fill="#e0e0e0" stroke="#999999" points="134,-85 69,-85 69,-66 134,-66 134,-85"/>
<text text-anchor="middle" x="101.5" y="-73" font-family="Helvetica,sans-Serif" font-size="10.00">functional</text>
</a>
</g>
</g>
<!-- Node30&#45;&gt;Node32 -->
<g id="edge37_Node000030_Node000032" class="edge">
<title>Node30&#45;&gt;Node32</title>
<g id="a_edge37_Node000030_Node000032"><a xlink:title=" ">
<path fill="none" stroke="#63b8ff" d="M69.04,-137.48C74.75,-126.74 84.71,-108.03 92.1,-94.16"/>
<polygon fill="#63b8ff" stroke="#63b8ff" points="95.32,-95.56 96.93,-85.09 89.14,-92.27 95.32,-95.56"/>
</a>
</g>
</g>
<!-- Node41&#45;&gt;Node3 -->
<g id="edge51_Node000041_Node000003" class="edge">
<title>Node41&#45;&gt;Node3</title>
<g id="a_edge51_Node000041_Node000003"><a xlink:title=" ">
<path fill="none" stroke="#63b8ff" d="M878.82,-269.37C865.59,-260.36 844.39,-245.92 826.95,-234.05"/>
<polygon fill="#63b8ff" stroke="#63b8ff" points="828.47,-230.85 818.23,-228.12 824.53,-236.64 828.47,-230.85"/>
</a>
</g>
</g>
<!-- Node41&#45;&gt;Node4 -->
<g id="edge52_Node000041_Node000004" class="edge">
<title>Node41&#45;&gt;Node4</title>
<g id="a_edge52_Node000041_Node000004"><a xlink:title=" ">
<path fill="none" stroke="#63b8ff" d="M891.17,-269.41C890.23,-254.02 886.59,-221.18 872.5,-198 865.52,-186.53 855.03,-176.32 844.87,-168.17"/>
<polygon fill="#63b8ff" stroke="#63b8ff" points="846.95,-165.36 836.87,-162.09 842.71,-170.93 846.95,-165.36"/>
</a>
</g>
</g>
<!-- Node41&#45;&gt;Node8 -->
<g id="edge54_Node000041_Node000008" class="edge">
<title>Node41&#45;&gt;Node8</title>
<g id="a_edge54_Node000041_Node000008"><a xlink:title=" ">
<path fill="none" stroke="#63b8ff" d="M819.92,-271.24C786.81,-264.79 749.03,-252.26 722.5,-228 688.64,-197.03 708.88,-170.88 684.5,-132 675.19,-117.16 661.67,-102.66 650.89,-92.21"/>
<polygon fill="#63b8ff" stroke="#63b8ff" points="652.98,-89.36 643.3,-85.06 648.18,-94.46 652.98,-89.36"/>
</a>
</g>
</g>
<!-- Node41&#45;&gt;Node10 -->
<g id="edge53_Node000041_Node000010" class="edge">
<title>Node41&#45;&gt;Node10</title>
<g id="a_edge53_Node000041_Node000010"><a xlink:title=" ">
<path fill="none" stroke="#63b8ff" d="M937.68,-269.48C949.04,-267.53 961.19,-265.57 972.5,-264 1359.81,-210.11 1827.14,-168.39 2000.47,-153.71"/>
<polygon fill="#63b8ff" stroke="#63b8ff" points="2000.8,-157.19 2010.47,-152.87 2000.21,-150.22 2000.8,-157.19"/>
</a>
</g>
</g>
<!-- Node42 -->
<g id="Node000042" class="node">
<title>Node42</title>
<g id="a_Node000042"><a xlink:title=" ">
<polygon fill="#e0e0e0" stroke="#999999" points="979.5,-222.5 919.5,-222.5 919.5,-203.5 979.5,-203.5 979.5,-222.5"/>
<text text-anchor="middle" x="949.5" y="-210.5" font-family="Helvetica,sans-Serif" font-size="10.00">concepts</text>
</a>
</g>
</g>
<!-- Node41&#45;&gt;Node42 -->
<g id="edge55_Node000041_Node000042" class="edge">
<title>Node41&#45;&gt;Node42</title>
<g id="a_edge55_Node000041_Node000042"><a xlink:title=" ">
<path fill="none" stroke="#63b8ff" d="M899.32,-269.37C908.35,-259.4 923.41,-242.79 934.67,-230.36"/>
<polygon fill="#63b8ff" stroke="#63b8ff" points="937.31,-232.67 941.43,-222.91 932.12,-227.96 937.31,-232.67"/>
</a>
</g>
</g>
<!-- Node43 -->
<g id="Node000043" class="node">
<title>Node43</title>
<g id="a_Node000043"><a xlink:title=" ">
<polygon fill="#e0e0e0" stroke="#999999" points="1047.5,-222.5 997.5,-222.5 997.5,-203.5 1047.5,-203.5 1047.5,-222.5"/>
<text text-anchor="middle" x="1022.5" y="-210.5" font-family="Helvetica,sans-Serif" font-size="10.00">ranges</text>
</a>
</g>
</g>
<!-- Node41&#45;&gt;Node43 -->
<g id="edge56_Node000041_Node000043" class="edge">
<title>Node41&#45;&gt;Node43</title>
<g id="a_edge56_Node000041_Node000043"><a xlink:title=" ">
<path fill="none" stroke="#63b8ff" d="M909.17,-269.37C931.34,-258.54 969.58,-239.85 995.45,-227.22"/>
<polygon fill="#63b8ff" stroke="#63b8ff" points="997.25,-230.23 1004.69,-222.7 994.17,-223.94 997.25,-230.23"/>
</a>
</g>
</g>
</g>
</svg>
