<?xml version="1.0" encoding="UTF-8" standalone="no"?>
<!DOCTYPE svg PUBLIC "-//W3C//DTD SVG 1.1//EN"
 "http://www.w3.org/Graphics/SVG/1.1/DTD/svg11.dtd">
<!-- Generated by graphviz version 2.43.0 (0)
 -->
<!-- Title: include/Hermes/Socket/Sync/_base/Transfer/DefaultTransferPolicy.hpp Pages: 1 -->
<svg width="3497pt" height="456pt"
 viewBox="0.00 0.00 3497.06 456.00" xmlns="http://www.w3.org/2000/svg" xmlns:xlink="http://www.w3.org/1999/xlink">
<g id="graph0" class="graph" transform="scale(1 1) rotate(0) translate(4 452)">
<title>include/Hermes/Socket/Sync/_base/Transfer/DefaultTransferPolicy.hpp</title>
<!-- Node1 -->
<g id="Node000001" class="node">
<title>Node1</title>
<g id="a_Node000001"><a xlink:title=" ">
<polygon fill="#999999" stroke="#666666" points="3068.56,-448 2925.56,-448 2925.56,-407 3068.56,-407 3068.56,-448"/>
<text text-anchor="start" x="2933.56" y="-436" font-family="Helvetica,sans-Serif" font-size="10.00">include/Hermes/Socket</text>
<text text-anchor="start" x="2933.56" y="-425" font-family="Helvetica,sans-Serif" font-size="10.00">/Sync/_base/Transfer</text>
<text text-anchor="middle" x="2997.06" y="-414" font-family="Helvetica,sans-Serif" font-size="10.00">/DefaultTransferPolicy.hpp</text>
</a>
</g>
</g>
<!-- Node2 -->
<g id="Node000002" class="node">
<title>Node2</title>
<g id="a_Node000002"><a xlink:href="_default_socket_data_8hpp.html" target="_top" xlink:title=" ">
<polygon fill="white" stroke="#666666" points="3063.06,-365.5 2931.06,-365.5 2931.06,-335.5 3063.06,-335.5 3063.06,-365.5"/>
<text text-anchor="start" x="2939.06" y="-353.5" font-family="Helvetica,sans-Serif" font-size="10.00">Hermes/Socket/Data</text>
<text text-anchor="middle" x="2997.06" y="-342.5" font-family="Helvetica,sans-Serif" font-size="10.00">/DefaultSocketData.hpp</text>
</a>
</g>
</g>
<!-- Node1&#45;&gt;Node2 -->
<g id="edge1_Node000001_Node000002" class="edge">
<title>Node1&#45;&gt;Node2</title>
<g id="a_edge1_Node000001_Node000002"><a xlink:title=" ">
<path fill="none" stroke="#63b8ff" d="M2997.06,-406.79C2997.06,-397.36 2997.06,-385.97 2997.06,-375.99"/>
<polygon fill="#63b8ff" stroke="#63b8ff" points="3000.56,-375.86 2997.06,-365.86 2993.56,-375.86 3000.56,-375.86"/>
</a>
</g>
</g>
<!-- Node5 -->
<g id="Node000005" class="node">
<title>Node5</title>
<g id="a_Node000005"><a xlink:href="_connection_error_enum_8hpp.html" target="_top" xlink:title=" ">
<polygon fill="white" stroke="#666666" points="2674.56,-162 2507.56,-162 2507.56,-132 2674.56,-132 2674.56,-162"/>
<text text-anchor="start" x="2515.56" y="-150" font-family="Helvetica,sans-Serif" font-size="10.00">Hermes/_base/ConnectionError</text>
<text text-anchor="middle" x="2591.06" y="-139" font-family="Helvetica,sans-Serif" font-size="10.00">Enum.hpp</text>
</a>
</g>
</g>
<!-- Node1&#45;&gt;Node5 -->
<g id="edge60_Node000001_Node000005" class="edge">
<title>Node1&#45;&gt;Node5</title>
<g id="a_edge60_Node000001_Node000005"><a xlink:title=" ">
<path fill="none" stroke="#63b8ff" d="M2967.94,-406.89C2953.62,-396.77 2936.41,-383.88 2922.06,-371 2887.42,-339.91 2882.47,-328.36 2851.06,-294 2831.64,-272.75 2788.49,-213.24 2764.06,-198 2739.85,-182.89 2710.91,-172.2 2683.69,-164.69"/>
<polygon fill="#63b8ff" stroke="#63b8ff" points="2684.31,-161.24 2673.75,-162.07 2682.52,-168.01 2684.31,-161.24"/>
</a>
</g>
</g>
<!-- Node35 -->
<g id="Node000035" class="node">
<title>Node35</title>
<g id="a_Node000035"><a xlink:title=" ">
<polygon fill="#e0e0e0" stroke="#999999" points="3368.06,-156.5 3326.06,-156.5 3326.06,-137.5 3368.06,-137.5 3368.06,-156.5"/>
<text text-anchor="middle" x="3347.06" y="-144.5" font-family="Helvetica,sans-Serif" font-size="10.00">array</text>
</a>
</g>
</g>
<!-- Node1&#45;&gt;Node35 -->
<g id="edge62_Node000001_Node000035" class="edge">
<title>Node1&#45;&gt;Node35</title>
<g id="a_edge62_Node000001_Node000035"><a xlink:title=" ">
<path fill="none" stroke="#63b8ff" d="M3047.11,-406.96C3099.22,-384.95 3181.3,-345.42 3240.06,-294 3284.28,-255.31 3320.98,-195.27 3337.56,-165.69"/>
<polygon fill="#63b8ff" stroke="#63b8ff" points="3340.82,-167.03 3342.57,-156.58 3334.68,-163.66 3340.82,-167.03"/>
</a>
</g>
</g>
<!-- Node43 -->
<g id="Node000043" class="node">
<title>Node43</title>
<g id="a_Node000043"><a xlink:href="__base_8hpp.html" target="_top" xlink:title=" ">
<polygon fill="white" stroke="#666666" points="2640.56,-288.5 2497.56,-288.5 2497.56,-269.5 2640.56,-269.5 2640.56,-288.5"/>
<text text-anchor="middle" x="2569.06" y="-276.5" font-family="Helvetica,sans-Serif" font-size="10.00">Hermes/Socket/_base.hpp</text>
</a>
</g>
</g>
<!-- Node1&#45;&gt;Node43 -->
<g id="edge61_Node000001_Node000043" class="edge">
<title>Node1&#45;&gt;Node43</title>
<g id="a_edge61_Node000001_Node000043"><a xlink:title=" ">
<path fill="none" stroke="#63b8ff" d="M2925.53,-412.57C2880.34,-402.9 2821.07,-388.61 2770.06,-371 2704.92,-348.51 2632.06,-312.68 2594.51,-293.37"/>
<polygon fill="#63b8ff" stroke="#63b8ff" points="2595.81,-290.11 2585.32,-288.62 2592.59,-296.32 2595.81,-290.11"/>
</a>
</g>
</g>
<!-- Node47 -->
<g id="Node000047" class="node">
<title>Node47</title>
<g id="a_Node000047"><a xlink:title=" ">
<polygon fill="#e0e0e0" stroke="#999999" points="3489.06,-371 3321.06,-371 3321.06,-330 3489.06,-330 3489.06,-371"/>
<text text-anchor="start" x="3329.06" y="-359" font-family="Helvetica,sans-Serif" font-size="10.00">Hermes/Socket/Sync</text>
<text text-anchor="start" x="3329.06" y="-348" font-family="Helvetica,sans-Serif" font-size="10.00">/_base/Transfer/DefaultTransfer</text>
<text text-anchor="middle" x="3405.06" y="-337" font-family="Helvetica,sans-Serif" font-size="10.00">Policy.tpp</text>
</a>
</g>
</g>
<!-- Node1&#45;&gt;Node47 -->
<g id="edge63_Node000001_Node000047" class="edge">
<title>Node1&#45;&gt;Node47</title>
<g id="a_edge63_Node000001_Node000047"><a xlink:title=" ">
<path fill="none" stroke="#63b8ff" d="M3068.86,-414.05C3131.74,-403.05 3225.54,-386.41 3307.06,-371 3308.33,-370.76 3309.61,-370.52 3310.9,-370.27"/>
<polygon fill="#63b8ff" stroke="#63b8ff" points="3311.72,-373.68 3320.89,-368.36 3310.41,-366.8 3311.72,-373.68"/>
</a>
</g>
</g>
<!-- Node3 -->
<g id="Node000003" class="node">
<title>Node3</title>
<g id="a_Node000003"><a xlink:href="_ip_endpoint_8hpp.html" target="_top" xlink:title=" ">
<polygon fill="white" stroke="#666666" points="3014.56,-294 2859.56,-294 2859.56,-264 3014.56,-264 3014.56,-294"/>
<text text-anchor="start" x="2867.56" y="-282" font-family="Helvetica,sans-Serif" font-size="10.00">Hermes/Endpoint/IpEndpoint</text>
<text text-anchor="middle" x="2937.06" y="-271" font-family="Helvetica,sans-Serif" font-size="10.00">/IpEndpoint.hpp</text>
</a>
</g>
</g>
<!-- Node2&#45;&gt;Node3 -->
<g id="edge2_Node000002_Node000003" class="edge">
<title>Node2&#45;&gt;Node3</title>
<g id="a_edge2_Node000002_Node000003"><a xlink:title=" ">
<path fill="none" stroke="#63b8ff" d="M2984.92,-335.44C2976.54,-325.73 2965.25,-312.65 2955.73,-301.63"/>
<polygon fill="#63b8ff" stroke="#63b8ff" points="2958.37,-299.33 2949.19,-294.04 2953.07,-303.9 2958.37,-299.33"/>
</a>
</g>
</g>
<!-- Node42 -->
<g id="Node000042" class="node">
<title>Node42</title>
<g id="a_Node000042"><a xlink:title=" ">
<polygon fill="#e0e0e0" stroke="#999999" points="3083.06,-288.5 3033.06,-288.5 3033.06,-269.5 3083.06,-269.5 3083.06,-288.5"/>
<text text-anchor="middle" x="3058.06" y="-276.5" font-family="Helvetica,sans-Serif" font-size="10.00">chrono</text>
</a>
</g>
</g>
<!-- Node2&#45;&gt;Node42 -->
<g id="edge51_Node000002_Node000042" class="edge">
<title>Node2&#45;&gt;Node42</title>
<g id="a_edge51_Node000002_Node000042"><a xlink:title=" ">
<path fill="none" stroke="#63b8ff" d="M3009.41,-335.44C3019.27,-324.2 3033.11,-308.43 3043.51,-296.58"/>
<polygon fill="#63b8ff" stroke="#63b8ff" points="3046.4,-298.59 3050.37,-288.77 3041.14,-293.97 3046.4,-298.59"/>
</a>
</g>
</g>
<!-- Node2&#45;&gt;Node43 -->
<g id="edge52_Node000002_Node000043" class="edge">
<title>Node2&#45;&gt;Node43</title>
<g id="a_edge52_Node000002_Node000043"><a xlink:title=" ">
<path fill="none" stroke="#63b8ff" d="M2930.66,-338.72C2848.92,-325.44 2711.18,-303.08 2631.37,-290.12"/>
<polygon fill="#63b8ff" stroke="#63b8ff" points="2631.89,-286.66 2621.45,-288.51 2630.76,-293.57 2631.89,-286.66"/>
</a>
</g>
</g>
<!-- Node46 -->
<g id="Node000046" class="node">
<title>Node46</title>
<g id="a_Node000046"><a xlink:title=" ">
<polygon fill="#e0e0e0" stroke="#999999" points="3231.06,-294 3101.06,-294 3101.06,-264 3231.06,-264 3231.06,-294"/>
<text text-anchor="start" x="3109.06" y="-282" font-family="Helvetica,sans-Serif" font-size="10.00">Hermes/Socket/Data</text>
<text text-anchor="middle" x="3166.06" y="-271" font-family="Helvetica,sans-Serif" font-size="10.00">/DefaultSocketData.tpp</text>
</a>
</g>
</g>
<!-- Node2&#45;&gt;Node46 -->
<g id="edge59_Node000002_Node000046" class="edge">
<title>Node2&#45;&gt;Node46</title>
<g id="a_edge59_Node000002_Node000046"><a xlink:title=" ">
<path fill="none" stroke="#63b8ff" d="M3031.26,-335.44C3057.61,-324.6 3094.2,-309.55 3122.62,-297.87"/>
<polygon fill="#63b8ff" stroke="#63b8ff" points="3124,-301.08 3131.91,-294.04 3121.33,-294.61 3124,-301.08"/>
</a>
</g>
</g>
<!-- Node4 -->
<g id="Node000004" class="node">
<title>Node4</title>
<g id="a_Node000004"><a xlink:href="_endpoint_concept_8hpp.html" target="_top" xlink:title=" ">
<polygon fill="white" stroke="#666666" points="2755.06,-228 2623.06,-228 2623.06,-198 2755.06,-198 2755.06,-228"/>
<text text-anchor="start" x="2631.06" y="-216" font-family="Helvetica,sans-Serif" font-size="10.00">Hermes/Endpoint/_base</text>
<text text-anchor="middle" x="2689.06" y="-205" font-family="Helvetica,sans-Serif" font-size="10.00">/EndpointConcept.hpp</text>
</a>
</g>
</g>
<!-- Node3&#45;&gt;Node4 -->
<g id="edge3_Node000003_Node000004" class="edge">
<title>Node3&#45;&gt;Node4</title>
<g id="a_edge3_Node000003_Node000004"><a xlink:title=" ">
<path fill="none" stroke="#63b8ff" d="M2882.64,-263.95C2844.44,-254.1 2793.21,-240.88 2753.05,-230.51"/>
<polygon fill="#63b8ff" stroke="#63b8ff" points="2753.92,-227.12 2743.36,-228.01 2752.17,-233.9 2753.92,-227.12"/>
</a>
</g>
</g>
<!-- Node31 -->
<g id="Node000031" class="node">
<title>Node31</title>
<g id="a_Node000031"><a xlink:href="_ip_address_8hpp.html" target="_top" xlink:title=" ">
<polygon fill="white" stroke="#666666" points="3014.56,-228 2859.56,-228 2859.56,-198 3014.56,-198 3014.56,-228"/>
<text text-anchor="start" x="2867.56" y="-216" font-family="Helvetica,sans-Serif" font-size="10.00">Hermes/Endpoint/IpEndpoint</text>
<text text-anchor="middle" x="2937.06" y="-205" font-family="Helvetica,sans-Serif" font-size="10.00">/IpAddress.hpp</text>
</a>
</g>
</g>
<!-- Node3&#45;&gt;Node31 -->
<g id="edge36_Node000003_Node000031" class="edge">
<title>Node3&#45;&gt;Node31</title>
<g id="a_edge36_Node000003_Node000031"><a xlink:title=" ">
<path fill="none" stroke="#63b8ff" d="M2937.06,-263.8C2937.06,-256.34 2937.06,-246.99 2937.06,-238.41"/>
<polygon fill="#63b8ff" stroke="#63b8ff" points="2940.56,-238.16 2937.06,-228.16 2933.56,-238.16 2940.56,-238.16"/>
</a>
</g>
</g>
<!-- Node32 -->
<g id="Node000032" class="node">
<title>Node32</title>
<g id="a_Node000032"><a xlink:href="_hash_8hpp.html" target="_top" xlink:title=" ">
<polygon fill="white" stroke="#666666" points="3307.56,-156.5 3178.56,-156.5 3178.56,-137.5 3307.56,-137.5 3307.56,-156.5"/>
<text text-anchor="middle" x="3243.06" y="-144.5" font-family="Helvetica,sans-Serif" font-size="10.00">Hermes/Utils/Hash.hpp</text>
</a>
</g>
</g>
<!-- Node3&#45;&gt;Node32 -->
<g id="edge47_Node000003_Node000032" class="edge">
<title>Node3&#45;&gt;Node32</title>
<g id="a_edge47_Node000003_Node000032"><a xlink:title=" ">
<path fill="none" stroke="#63b8ff" d="M3014.91,-265.27C3103.19,-250.8 3235.11,-229.03 3236.06,-228 3251.11,-211.72 3250.17,-184.8 3247.29,-166.74"/>
<polygon fill="#63b8ff" stroke="#63b8ff" points="3250.71,-165.97 3245.38,-156.81 3243.83,-167.3 3250.71,-165.97"/>
</a>
</g>
</g>
<!-- Node36 -->
<g id="Node000036" class="node">
<title>Node36</title>
<g id="a_Node000036"><a xlink:title=" ">
<polygon fill="#e0e0e0" stroke="#999999" points="2736.06,-156.5 2692.06,-156.5 2692.06,-137.5 2736.06,-137.5 2736.06,-156.5"/>
<text text-anchor="middle" x="2714.06" y="-144.5" font-family="Helvetica,sans-Serif" font-size="10.00">string</text>
</a>
</g>
</g>
<!-- Node3&#45;&gt;Node36 -->
<g id="edge49_Node000003_Node000036" class="edge">
<title>Node3&#45;&gt;Node36</title>
<g id="a_edge49_Node000003_Node000036"><a xlink:title=" ">
<path fill="none" stroke="#63b8ff" d="M2912.59,-263.79C2895.38,-253.79 2871.8,-240.09 2851.06,-228 2811.25,-204.8 2764.97,-177.77 2737.68,-161.81"/>
<polygon fill="#63b8ff" stroke="#63b8ff" points="2739.26,-158.68 2728.86,-156.65 2735.72,-164.72 2739.26,-158.68"/>
</a>
</g>
</g>
<!-- Node38 -->
<g id="Node000038" class="node">
<title>Node38</title>
<g id="a_Node000038"><a xlink:title=" ">
<polygon fill="#e0e0e0" stroke="#999999" points="3160.06,-156.5 3104.06,-156.5 3104.06,-137.5 3160.06,-137.5 3160.06,-156.5"/>
<text text-anchor="middle" x="3132.06" y="-144.5" font-family="Helvetica,sans-Serif" font-size="10.00">optional</text>
</a>
</g>
</g>
<!-- Node3&#45;&gt;Node38 -->
<g id="edge48_Node000003_Node000038" class="edge">
<title>Node3&#45;&gt;Node38</title>
<g id="a_edge48_Node000003_Node000038"><a xlink:title=" ">
<path fill="none" stroke="#63b8ff" d="M2963.89,-263.8C2981.38,-254.25 3004.5,-241.06 3024.06,-228 3042.25,-215.86 3045.54,-211.08 3063.06,-198 3079.3,-185.87 3097.92,-172.41 3111.72,-162.51"/>
<polygon fill="#63b8ff" stroke="#63b8ff" points="3113.93,-165.23 3120.02,-156.57 3109.85,-159.54 3113.93,-165.23"/>
</a>
</g>
</g>
<!-- Node41 -->
<g id="Node000041" class="node">
<title>Node41</title>
<g id="a_Node000041"><a xlink:title=" ">
<polygon fill="#e0e0e0" stroke="#999999" points="3226.56,-228 3071.56,-228 3071.56,-198 3226.56,-198 3226.56,-228"/>
<text text-anchor="start" x="3079.56" y="-216" font-family="Helvetica,sans-Serif" font-size="10.00">Hermes/Endpoint/IpEndpoint</text>
<text text-anchor="middle" x="3149.06" y="-205" font-family="Helvetica,sans-Serif" font-size="10.00">/IpEndpoint.tpp</text>
</a>
</g>
</g>
<!-- Node3&#45;&gt;Node41 -->
<g id="edge50_Node000003_Node000041" class="edge">
<title>Node3&#45;&gt;Node41</title>
<g id="a_edge50_Node000003_Node000041"><a xlink:title=" ">
<path fill="none" stroke="#63b8ff" d="M2983.59,-263.95C3015.76,-254.24 3058.74,-241.27 3092.83,-230.98"/>
<polygon fill="#63b8ff" stroke="#63b8ff" points="3094.09,-234.25 3102.65,-228.01 3092.06,-227.55 3094.09,-234.25"/>
</a>
</g>
</g>
<!-- Node4&#45;&gt;Node5 -->
<g id="edge4_Node000004_Node000005" class="edge">
<title>Node4&#45;&gt;Node5</title>
<g id="a_edge4_Node000004_Node000005"><a xlink:title=" ">
<path fill="none" stroke="#63b8ff" d="M2667.31,-197.8C2653.74,-188.93 2636.07,-177.39 2621.16,-167.66"/>
<polygon fill="#63b8ff" stroke="#63b8ff" points="2623.04,-164.7 2612.75,-162.16 2619.21,-170.56 2623.04,-164.7"/>
</a>
</g>
</g>
<!-- Node11 -->
<g id="Node000011" class="node">
<title>Node11</title>
<g id="a_Node000011"><a xlink:href="_os_api_8hpp.html" target="_top" xlink:title=" ">
<polygon fill="white" stroke="#666666" points="1277.06,-162 1159.06,-162 1159.06,-132 1277.06,-132 1277.06,-162"/>
<text text-anchor="start" x="1167.06" y="-150" font-family="Helvetica,sans-Serif" font-size="10.00">Hermes/_base/OsApi</text>
<text text-anchor="middle" x="1218.06" y="-139" font-family="Helvetica,sans-Serif" font-size="10.00">/OsApi.hpp</text>
</a>
</g>
</g>
<!-- Node4&#45;&gt;Node11 -->
<g id="edge10_Node000004_Node000011" class="edge">
<title>Node4&#45;&gt;Node11</title>
<g id="a_edge10_Node000004_Node000011"><a xlink:title=" ">
<path fill="none" stroke="#63b8ff" d="M2622.84,-202.82C2607.5,-200.97 2591.24,-199.22 2576.06,-198 2083.14,-158.46 1487.01,-150.15 1287.13,-148.44"/>
<polygon fill="#63b8ff" stroke="#63b8ff" points="1287.1,-144.94 1277.07,-148.35 1287.04,-151.94 1287.1,-144.94"/>
</a>
</g>
</g>
<!-- Node6 -->
<g id="Node000006" class="node">
<title>Node6</title>
<g id="a_Node000006"><a xlink:title=" ">
<polygon fill="#e0e0e0" stroke="#999999" points="2622.06,-85 2560.06,-85 2560.06,-66 2622.06,-66 2622.06,-85"/>
<text text-anchor="middle" x="2591.06" y="-73" font-family="Helvetica,sans-Serif" font-size="10.00">expected</text>
</a>
</g>
</g>
<!-- Node5&#45;&gt;Node6 -->
<g id="edge5_Node000005_Node000006" class="edge">
<title>Node5&#45;&gt;Node6</title>
<g id="a_edge5_Node000005_Node000006"><a xlink:title=" ">
<path fill="none" stroke="#63b8ff" d="M2591.06,-131.94C2591.06,-121.46 2591.06,-107.05 2591.06,-95.55"/>
<polygon fill="#63b8ff" stroke="#63b8ff" points="2594.56,-95.27 2591.06,-85.27 2587.56,-95.27 2594.56,-95.27"/>
</a>
</g>
</g>
<!-- Node7 -->
<g id="Node000007" class="node">
<title>Node7</title>
<g id="a_Node000007"><a xlink:title=" ">
<polygon fill="#e0e0e0" stroke="#999999" points="2945.56,-85 2898.56,-85 2898.56,-66 2945.56,-66 2945.56,-85"/>
<text text-anchor="middle" x="2922.06" y="-73" font-family="Helvetica,sans-Serif" font-size="10.00">vector</text>
</a>
</g>
</g>
<!-- Node5&#45;&gt;Node7 -->
<g id="edge6_Node000005_Node000007" class="edge">
<title>Node5&#45;&gt;Node7</title>
<g id="a_edge6_Node000005_Node000007"><a xlink:title=" ">
<path fill="none" stroke="#63b8ff" d="M2674.87,-133.07C2744.11,-122.03 2836.72,-106.34 2873.06,-96 2879.93,-94.05 2887.15,-91.48 2893.88,-88.84"/>
<polygon fill="#63b8ff" stroke="#63b8ff" points="2895.35,-92.03 2903.29,-85.01 2892.71,-85.54 2895.35,-92.03"/>
</a>
</g>
</g>
<!-- Node8 -->
<g id="Node000008" class="node">
<title>Node8</title>
<g id="a_Node000008"><a xlink:title=" ">
<polygon fill="#e0e0e0" stroke="#999999" points="2680.06,-85 2640.06,-85 2640.06,-66 2680.06,-66 2680.06,-85"/>
<text text-anchor="middle" x="2660.06" y="-73" font-family="Helvetica,sans-Serif" font-size="10.00">span</text>
</a>
</g>
</g>
<!-- Node5&#45;&gt;Node8 -->
<g id="edge7_Node000005_Node000008" class="edge">
<title>Node5&#45;&gt;Node8</title>
<g id="a_edge7_Node000005_Node000008"><a xlink:title=" ">
<path fill="none" stroke="#63b8ff" d="M2605.03,-131.94C2616.4,-120.48 2632.45,-104.32 2644.28,-92.4"/>
<polygon fill="#63b8ff" stroke="#63b8ff" points="2646.8,-94.83 2651.36,-85.27 2641.83,-89.9 2646.8,-94.83"/>
</a>
</g>
</g>
<!-- Node9 -->
<g id="Node000009" class="node">
<title>Node9</title>
<g id="a_Node000009"><a xlink:title=" ">
<polygon fill="#e0e0e0" stroke="#999999" points="2541.56,-85 2416.56,-85 2416.56,-66 2541.56,-66 2541.56,-85"/>
<text text-anchor="middle" x="2479.06" y="-73" font-family="Helvetica,sans-Serif" font-size="10.00">stdexec/execution.hpp</text>
</a>
</g>
</g>
<!-- Node5&#45;&gt;Node9 -->
<g id="edge8_Node000005_Node000009" class="edge">
<title>Node5&#45;&gt;Node9</title>
<g id="a_edge8_Node000005_Node000009"><a xlink:title=" ">
<path fill="none" stroke="#63b8ff" d="M2568.4,-131.94C2548.86,-119.81 2520.82,-102.41 2501.39,-90.35"/>
<polygon fill="#63b8ff" stroke="#63b8ff" points="2503.21,-87.37 2492.87,-85.07 2499.52,-93.31 2503.21,-87.37"/>
</a>
</g>
</g>
<!-- Node10 -->
<g id="Node000010" class="node">
<title>Node10</title>
<g id="a_Node000010"><a xlink:title=" ">
<polygon fill="#e0e0e0" stroke="#999999" points="2864.56,-90.5 2697.56,-90.5 2697.56,-60.5 2864.56,-60.5 2864.56,-90.5"/>
<text text-anchor="start" x="2705.56" y="-78.5" font-family="Helvetica,sans-Serif" font-size="10.00">Hermes/_base/ConnectionError</text>
<text text-anchor="middle" x="2781.06" y="-67.5" font-family="Helvetica,sans-Serif" font-size="10.00">Enum.tpp</text>
</a>
</g>
</g>
<!-- Node5&#45;&gt;Node10 -->
<g id="edge9_Node000005_Node000010" class="edge">
<title>Node5&#45;&gt;Node10</title>
<g id="a_edge9_Node000005_Node000010"><a xlink:title=" ">
<path fill="none" stroke="#63b8ff" d="M2629.51,-131.94C2659.39,-121.01 2700.99,-105.79 2733.05,-94.06"/>
<polygon fill="#63b8ff" stroke="#63b8ff" points="2734.48,-97.27 2742.67,-90.54 2732.08,-90.69 2734.48,-97.27"/>
</a>
</g>
</g>
<!-- Node12 -->
<g id="Node000012" class="node">
<title>Node12</title>
<g id="a_Node000012"><a xlink:title=" ">
<polygon fill="#e0e0e0" stroke="#999999" points="348.56,-19 271.56,-19 271.56,0 348.56,0 348.56,-19"/>
<text text-anchor="middle" x="310.06" y="-7" font-family="Helvetica,sans-Serif" font-size="10.00">sys/socket.h</text>
</a>
</g>
</g>
<!-- Node11&#45;&gt;Node12 -->
<g id="edge11_Node000011_Node000012" class="edge">
<title>Node11&#45;&gt;Node12</title>
<g id="a_edge11_Node000011_Node000012"><a xlink:title=" ">
<path fill="none" stroke="#63b8ff" d="M1158.99,-145.79C922.53,-144.66 55.04,-137.67 15.06,-96 -58.28,-19.55 159.9,-10.27 261.28,-9.94"/>
<polygon fill="#63b8ff" stroke="#63b8ff" points="261.3,-13.44 271.3,-9.94 261.3,-6.44 261.3,-13.44"/>
</a>
</g>
</g>
<!-- Node13 -->
<g id="Node000013" class="node">
<title>Node13</title>
<g id="a_Node000013"><a xlink:title=" ">
<polygon fill="#e0e0e0" stroke="#999999" points="1978.06,-19 1906.06,-19 1906.06,0 1978.06,0 1978.06,-19"/>
<text text-anchor="middle" x="1942.06" y="-7" font-family="Helvetica,sans-Serif" font-size="10.00">netinet/in.h</text>
</a>
</g>
</g>
<!-- Node11&#45;&gt;Node13 -->
<g id="edge12_Node000011_Node000013" class="edge">
<title>Node11&#45;&gt;Node13</title>
<g id="a_edge12_Node000011_Node000013"><a xlink:title=" ">
<path fill="none" stroke="#63b8ff" d="M1277.3,-145.67C1507.39,-144.11 2331,-135.75 2369.06,-96 2381.66,-82.84 2381.26,-68.54 2369.06,-55 2343.92,-27.1 2093.72,-15.55 1988.4,-11.9"/>
<polygon fill="#63b8ff" stroke="#63b8ff" points="1988.49,-8.4 1978.38,-11.56 1988.25,-15.39 1988.49,-8.4"/>
</a>
</g>
</g>
<!-- Node14 -->
<g id="Node000014" class="node">
<title>Node14</title>
<g id="a_Node000014"><a xlink:title=" ">
<polygon fill="#e0e0e0" stroke="#999999" points="965.56,-85 896.56,-85 896.56,-66 965.56,-66 965.56,-85"/>
<text text-anchor="middle" x="931.06" y="-73" font-family="Helvetica,sans-Serif" font-size="10.00">arpa/inet.h</text>
</a>
</g>
</g>
<!-- Node11&#45;&gt;Node14 -->
<g id="edge13_Node000011_Node000014" class="edge">
<title>Node11&#45;&gt;Node14</title>
<g id="a_edge13_Node000011_Node000014"><a xlink:title=" ">
<path fill="none" stroke="#63b8ff" d="M1158.67,-136.45C1110.09,-127.93 1039.89,-114.04 980.06,-96 973.35,-93.98 966.27,-91.42 959.64,-88.82"/>
<polygon fill="#63b8ff" stroke="#63b8ff" points="960.92,-85.57 950.34,-85.06 958.3,-92.06 960.92,-85.57"/>
</a>
</g>
</g>
<!-- Node15 -->
<g id="Node000015" class="node">
<title>Node15</title>
<g id="a_Node000015"><a xlink:title=" ">
<polygon fill="#e0e0e0" stroke="#999999" points="926.56,-19 873.56,-19 873.56,0 926.56,0 926.56,-19"/>
<text text-anchor="middle" x="900.06" y="-7" font-family="Helvetica,sans-Serif" font-size="10.00">netdb.h</text>
</a>
</g>
</g>
<!-- Node11&#45;&gt;Node15 -->
<g id="edge14_Node000011_Node000015" class="edge">
<title>Node11&#45;&gt;Node15</title>
<g id="a_edge14_Node000011_Node000015"><a xlink:title=" ">
<path fill="none" stroke="#63b8ff" d="M1158.64,-140.53C1115.82,-134.51 1057.92,-121.97 1013.06,-96 991.3,-83.4 993.68,-70.73 974.06,-55 959.19,-43.08 940.84,-32.02 926.13,-23.91"/>
<polygon fill="#63b8ff" stroke="#63b8ff" points="927.53,-20.69 917.06,-19.03 924.21,-26.85 927.53,-20.69"/>
</a>
</g>
</g>
<!-- Node16 -->
<g id="Node000016" class="node">
<title>Node16</title>
<g id="a_Node000016"><a xlink:title=" ">
<polygon fill="#e0e0e0" stroke="#999999" points="1246.06,-85 1190.06,-85 1190.06,-66 1246.06,-66 1246.06,-85"/>
<text text-anchor="middle" x="1218.06" y="-73" font-family="Helvetica,sans-Serif" font-size="10.00">unistd.h</text>
</a>
</g>
</g>
<!-- Node11&#45;&gt;Node16 -->
<g id="edge15_Node000011_Node000016" class="edge">
<title>Node11&#45;&gt;Node16</title>
<g id="a_edge15_Node000011_Node000016"><a xlink:title=" ">
<path fill="none" stroke="#63b8ff" d="M1218.06,-131.94C1218.06,-121.46 1218.06,-107.05 1218.06,-95.55"/>
<polygon fill="#63b8ff" stroke="#63b8ff" points="1221.56,-95.27 1218.06,-85.27 1214.56,-95.27 1221.56,-95.27"/>
</a>
</g>
</g>
<!-- Node17 -->
<g id="Node000017" class="node">
<title>Node17</title>
<g id="a_Node000017"><a xlink:href="_types_8hpp.html" target="_top" xlink:title=" ">
<polygon fill="white" stroke="#666666" points="1382.06,-90.5 1264.06,-90.5 1264.06,-60.5 1382.06,-60.5 1382.06,-90.5"/>
<text text-anchor="start" x="1272.06" y="-78.5" font-family="Helvetica,sans-Serif" font-size="10.00">Hermes/_base/OsApi</text>
<text text-anchor="middle" x="1323.06" y="-67.5" font-family="Helvetica,sans-Serif" font-size="10.00">/Types.hpp</text>
</a>
</g>
</g>
<!-- Node11&#45;&gt;Node17 -->
<g id="edge16_Node000011_Node000017" class="edge">
<title>Node11&#45;&gt;Node17</title>
<g id="a_edge16_Node000011_Node000017"><a xlink:title=" ">
<path fill="none" stroke="#63b8ff" d="M1239.31,-131.94C1254.82,-121.67 1276.06,-107.61 1293.27,-96.22"/>
<polygon fill="#63b8ff" stroke="#63b8ff" points="1295.44,-98.98 1301.85,-90.54 1291.58,-93.14 1295.44,-98.98"/>
</a>
</g>
</g>
<!-- Node18 -->
<g id="Node000018" class="node">
<title>Node18</title>
<g id="a_Node000018"><a xlink:href="_conversion_and_literals_8hpp.html" target="_top" xlink:title=" ">
<polygon fill="white" stroke="#666666" points="1172.06,-90.5 1022.06,-90.5 1022.06,-60.5 1172.06,-60.5 1172.06,-90.5"/>
<text text-anchor="start" x="1030.06" y="-78.5" font-family="Helvetica,sans-Serif" font-size="10.00">Hermes/_base/OsApi</text>
<text text-anchor="middle" x="1097.06" y="-67.5" font-family="Helvetica,sans-Serif" font-size="10.00">/ConversionAndLiterals.hpp</text>
</a>
</g>
</g>
<!-- Node11&#45;&gt;Node18 -->
<g id="edge17_Node000011_Node000018" class="edge">
<title>Node11&#45;&gt;Node18</title>
<g id="a_edge17_Node000011_Node000018"><a xlink:title=" ">
<path fill="none" stroke="#63b8ff" d="M1193.58,-131.94C1175.37,-121.48 1150.33,-107.09 1130.31,-95.6"/>
<polygon fill="#63b8ff" stroke="#63b8ff" points="1131.93,-92.49 1121.51,-90.54 1128.44,-98.56 1131.93,-92.49"/>
</a>
</g>
</g>
<!-- Node20 -->
<g id="Node000020" class="node">
<title>Node20</title>
<g id="a_Node000020"><a xlink:href="_macros_8hpp.html" target="_top" xlink:title=" ">
<polygon fill="white" stroke="#666666" points="716.06,-90.5 598.06,-90.5 598.06,-60.5 716.06,-60.5 716.06,-90.5"/>
<text text-anchor="start" x="606.06" y="-78.5" font-family="Helvetica,sans-Serif" font-size="10.00">Hermes/_base/OsApi</text>
<text text-anchor="middle" x="657.06" y="-67.5" font-family="Helvetica,sans-Serif" font-size="10.00">/Macros.hpp</text>
</a>
</g>
</g>
<!-- Node11&#45;&gt;Node20 -->
<g id="edge19_Node000011_Node000020" class="edge">
<title>Node11&#45;&gt;Node20</title>
<g id="a_edge19_Node000011_Node000020"><a xlink:title=" ">
<path fill="none" stroke="#63b8ff" d="M1158.76,-143.4C1065.66,-138.56 879.87,-125.8 725.06,-96 720.67,-95.15 716.15,-94.15 711.63,-93.06"/>
<polygon fill="#63b8ff" stroke="#63b8ff" points="712.33,-89.63 701.78,-90.54 710.6,-96.41 712.33,-89.63"/>
</a>
</g>
</g>
<!-- Node22 -->
<g id="Node000022" class="node">
<title>Node22</title>
<g id="a_Node000022"><a xlink:href="_address_family_enum_8hpp.html" target="_top" xlink:title=" ">
<polygon fill="white" stroke="#666666" points="200.06,-90.5 24.06,-90.5 24.06,-60.5 200.06,-60.5 200.06,-90.5"/>
<text text-anchor="start" x="32.06" y="-78.5" font-family="Helvetica,sans-Serif" font-size="10.00">Hermes/_base/OsApi</text>
<text text-anchor="middle" x="112.06" y="-67.5" font-family="Helvetica,sans-Serif" font-size="10.00">/Enums/AddressFamilyEnum.hpp</text>
</a>
</g>
</g>
<!-- Node11&#45;&gt;Node22 -->
<g id="edge22_Node000011_Node000022" class="edge">
<title>Node11&#45;&gt;Node22</title>
<g id="a_edge22_Node000011_Node000022"><a xlink:title=" ">
<path fill="none" stroke="#63b8ff" d="M1158.88,-146.18C1002.76,-145.99 567.12,-141.09 208.06,-96 200.2,-95.01 192.03,-93.74 183.91,-92.32"/>
<polygon fill="#63b8ff" stroke="#63b8ff" points="184.53,-88.87 174.06,-90.52 183.27,-95.76 184.53,-88.87"/>
</a>
</g>
</g>
<!-- Node23 -->
<g id="Node000023" class="node">
<title>Node23</title>
<g id="a_Node000023"><a xlink:href="_protocol_base_type_enum_8hpp.html" target="_top" xlink:title=" ">
<polygon fill="white" stroke="#666666" points="1591.56,-90.5 1400.56,-90.5 1400.56,-60.5 1591.56,-60.5 1591.56,-90.5"/>
<text text-anchor="start" x="1408.56" y="-78.5" font-family="Helvetica,sans-Serif" font-size="10.00">Hermes/_base/OsApi</text>
<text text-anchor="middle" x="1496.06" y="-67.5" font-family="Helvetica,sans-Serif" font-size="10.00">/Enums/ProtocolBaseTypeEnum.hpp</text>
</a>
</g>
</g>
<!-- Node11&#45;&gt;Node23 -->
<g id="edge24_Node000011_Node000023" class="edge">
<title>Node11&#45;&gt;Node23</title>
<g id="a_edge24_Node000011_Node000023"><a xlink:title=" ">
<path fill="none" stroke="#63b8ff" d="M1274.32,-131.94C1319.35,-120.68 1382.59,-104.87 1430.02,-93.01"/>
<polygon fill="#63b8ff" stroke="#63b8ff" points="1431.04,-96.36 1439.89,-90.54 1429.34,-89.57 1431.04,-96.36"/>
</a>
</g>
</g>
<!-- Node24 -->
<g id="Node000024" class="node">
<title>Node24</title>
<g id="a_Node000024"><a xlink:href="_socket_shutdown_enum_8hpp.html" target="_top" xlink:title=" ">
<polygon fill="white" stroke="#666666" points="402.56,-90.5 217.56,-90.5 217.56,-60.5 402.56,-60.5 402.56,-90.5"/>
<text text-anchor="start" x="225.56" y="-78.5" font-family="Helvetica,sans-Serif" font-size="10.00">Hermes/_base/OsApi</text>
<text text-anchor="middle" x="310.06" y="-67.5" font-family="Helvetica,sans-Serif" font-size="10.00">/Enums/SocketShutdownEnum.hpp</text>
</a>
</g>
</g>
<!-- Node11&#45;&gt;Node24 -->
<g id="edge26_Node000011_Node000024" class="edge">
<title>Node11&#45;&gt;Node24</title>
<g id="a_edge26_Node000011_Node000024"><a xlink:title=" ">
<path fill="none" stroke="#63b8ff" d="M1158.84,-144.94C1025.04,-141.98 689.4,-131.34 411.06,-96 402.91,-94.97 394.43,-93.67 386,-92.25"/>
<polygon fill="#63b8ff" stroke="#63b8ff" points="386.6,-88.8 376.15,-90.52 385.39,-95.7 386.6,-88.8"/>
</a>
</g>
</g>
<!-- Node25 -->
<g id="Node000025" class="node">
<title>Node25</title>
<g id="a_Node000025"><a xlink:href="_socket_type_enum_8hpp.html" target="_top" xlink:title=" ">
<polygon fill="white" stroke="#666666" points="579.56,-90.5 420.56,-90.5 420.56,-60.5 579.56,-60.5 579.56,-90.5"/>
<text text-anchor="start" x="428.56" y="-78.5" font-family="Helvetica,sans-Serif" font-size="10.00">Hermes/_base/OsApi</text>
<text text-anchor="middle" x="500.06" y="-67.5" font-family="Helvetica,sans-Serif" font-size="10.00">/Enums/SocketTypeEnum.hpp</text>
</a>
</g>
</g>
<!-- Node11&#45;&gt;Node25 -->
<g id="edge28_Node000011_Node000025" class="edge">
<title>Node11&#45;&gt;Node25</title>
<g id="a_edge28_Node000011_Node000025"><a xlink:title=" ">
<path fill="none" stroke="#63b8ff" d="M1158.79,-143.98C1046.9,-139.58 797.11,-126.91 589.06,-96 582.44,-95.02 575.57,-93.82 568.73,-92.52"/>
<polygon fill="#63b8ff" stroke="#63b8ff" points="569.23,-89.05 558.74,-90.54 567.87,-95.92 569.23,-89.05"/>
</a>
</g>
</g>
<!-- Node26 -->
<g id="Node000026" class="node">
<title>Node26</title>
<g id="a_Node000026"><a xlink:href="_linux_2_encrypt_status_enum_8hpp.html" target="_top" xlink:title=" ">
<polygon fill="white" stroke="#666666" points="1762.06,-96 1610.06,-96 1610.06,-55 1762.06,-55 1762.06,-96"/>
<text text-anchor="start" x="1618.06" y="-84" font-family="Helvetica,sans-Serif" font-size="10.00">Hermes/_base/OsApi</text>
<text text-anchor="start" x="1618.06" y="-73" font-family="Helvetica,sans-Serif" font-size="10.00">/Enums/Linux/EncryptStatus</text>
<text text-anchor="middle" x="1686.06" y="-62" font-family="Helvetica,sans-Serif" font-size="10.00">Enum.hpp</text>
</a>
</g>
</g>
<!-- Node11&#45;&gt;Node26 -->
<g id="edge30_Node000011_Node000026" class="edge">
<title>Node11&#45;&gt;Node26</title>
<g id="a_edge30_Node000011_Node000026"><a xlink:title=" ">
<path fill="none" stroke="#63b8ff" d="M1277.22,-139.98C1350.46,-132.14 1479.2,-117.12 1599.57,-96"/>
<polygon fill="#63b8ff" stroke="#63b8ff" points="1600.47,-99.39 1609.7,-94.2 1599.25,-92.5 1600.47,-99.39"/>
</a>
</g>
</g>
<!-- Node27 -->
<g id="Node000027" class="node">
<title>Node27</title>
<g id="a_Node000027"><a xlink:href="_name_info_flags_8hpp.html" target="_top" xlink:title=" ">
<polygon fill="white" stroke="#666666" points="878.06,-90.5 734.06,-90.5 734.06,-60.5 878.06,-60.5 878.06,-90.5"/>
<text text-anchor="start" x="742.06" y="-78.5" font-family="Helvetica,sans-Serif" font-size="10.00">Hermes/_base/OsApi</text>
<text text-anchor="middle" x="806.06" y="-67.5" font-family="Helvetica,sans-Serif" font-size="10.00">/Flags/NameInfoFlags.hpp</text>
</a>
</g>
</g>
<!-- Node11&#45;&gt;Node27 -->
<g id="edge31_Node000011_Node000027" class="edge">
<title>Node11&#45;&gt;Node27</title>
<g id="a_edge31_Node000011_Node000027"><a xlink:title=" ">
<path fill="none" stroke="#63b8ff" d="M1158.9,-138.63C1092.48,-129.99 981.6,-114.48 887.06,-96 882.05,-95.02 876.87,-93.94 871.67,-92.8"/>
<polygon fill="#63b8ff" stroke="#63b8ff" points="872.22,-89.34 861.7,-90.56 870.69,-96.17 872.22,-89.34"/>
</a>
</g>
</g>
<!-- Node28 -->
<g id="Node000028" class="node">
<title>Node28</title>
<g id="a_Node000028"><a xlink:href="_linux_2_credential_flags_8hpp.html" target="_top" xlink:title=" ">
<polygon fill="white" stroke="#666666" points="1956.06,-90.5 1780.06,-90.5 1780.06,-60.5 1956.06,-60.5 1956.06,-90.5"/>
<text text-anchor="start" x="1788.06" y="-78.5" font-family="Helvetica,sans-Serif" font-size="10.00">Hermes/_base/OsApi</text>
<text text-anchor="middle" x="1868.06" y="-67.5" font-family="Helvetica,sans-Serif" font-size="10.00">/Flags/Linux/CredentialFlags.hpp</text>
</a>
</g>
</g>
<!-- Node11&#45;&gt;Node28 -->
<g id="edge33_Node000011_Node000028" class="edge">
<title>Node11&#45;&gt;Node28</title>
<g id="a_edge33_Node000011_Node000028"><a xlink:title=" ">
<path fill="none" stroke="#63b8ff" d="M1277.23,-142.76C1378.69,-136.73 1592.19,-121.99 1771.06,-96 1778.33,-94.94 1785.88,-93.7 1793.41,-92.35"/>
<polygon fill="#63b8ff" stroke="#63b8ff" points="1794.07,-95.79 1803.27,-90.53 1792.8,-88.9 1794.07,-95.79"/>
</a>
</g>
</g>
<!-- Node29 -->
<g id="Node000029" class="node">
<title>Node29</title>
<g id="a_Node000029"><a xlink:href="_linux_2_supported_protocols_flags_8hpp.html" target="_top" xlink:title=" ">
<polygon fill="white" stroke="#666666" points="2147.56,-96 1974.56,-96 1974.56,-55 2147.56,-55 2147.56,-96"/>
<text text-anchor="start" x="1982.56" y="-84" font-family="Helvetica,sans-Serif" font-size="10.00">Hermes/_base/OsApi</text>
<text text-anchor="start" x="1982.56" y="-73" font-family="Helvetica,sans-Serif" font-size="10.00">/Flags/Linux/SupportedProtocols</text>
<text text-anchor="middle" x="2061.06" y="-62" font-family="Helvetica,sans-Serif" font-size="10.00">Flags.hpp</text>
</a>
</g>
</g>
<!-- Node11&#45;&gt;Node29 -->
<g id="edge34_Node000011_Node000029" class="edge">
<title>Node11&#45;&gt;Node29</title>
<g id="a_edge34_Node000011_Node000029"><a xlink:title=" ">
<path fill="none" stroke="#63b8ff" d="M1277.4,-144.72C1402.57,-141.43 1702.89,-130.48 1964.47,-95.97"/>
<polygon fill="#63b8ff" stroke="#63b8ff" points="1965.1,-99.42 1974.55,-94.63 1964.17,-92.48 1965.1,-99.42"/>
</a>
</g>
</g>
<!-- Node30 -->
<g id="Node000030" class="node">
<title>Node30</title>
<g id="a_Node000030"><a xlink:href="_linux_2_s_channel_cred_flags_8hpp.html" target="_top" xlink:title=" ">
<polygon fill="white" stroke="#666666" points="2360.06,-90.5 2166.06,-90.5 2166.06,-60.5 2360.06,-60.5 2360.06,-90.5"/>
<text text-anchor="start" x="2174.06" y="-78.5" font-family="Helvetica,sans-Serif" font-size="10.00">Hermes/_base/OsApi</text>
<text text-anchor="middle" x="2263.06" y="-67.5" font-family="Helvetica,sans-Serif" font-size="10.00">/Flags/Linux/SChannelCredFlags.hpp</text>
</a>
</g>
</g>
<!-- Node11&#45;&gt;Node30 -->
<g id="edge35_Node000011_Node000030" class="edge">
<title>Node11&#45;&gt;Node30</title>
<g id="a_edge35_Node000011_Node000030"><a xlink:title=" ">
<path fill="none" stroke="#63b8ff" d="M1277.27,-145.45C1425.7,-143.51 1825.45,-134.78 2156.06,-96 2164.95,-94.96 2174.2,-93.63 2183.4,-92.17"/>
<polygon fill="#63b8ff" stroke="#63b8ff" points="2184.03,-95.61 2193.32,-90.53 2182.89,-88.71 2184.03,-95.61"/>
</a>
</g>
</g>
<!-- Node19 -->
<g id="Node000019" class="node">
<title>Node19</title>
<g id="a_Node000019"><a xlink:title=" ">
<polygon fill="#e0e0e0" stroke="#999999" points="1122.06,-19 1072.06,-19 1072.06,0 1122.06,0 1122.06,-19"/>
<text text-anchor="middle" x="1097.06" y="-7" font-family="Helvetica,sans-Serif" font-size="10.00">cstdint</text>
</a>
</g>
</g>
<!-- Node18&#45;&gt;Node19 -->
<g id="edge18_Node000018_Node000019" class="edge">
<title>Node18&#45;&gt;Node19</title>
<g id="a_edge18_Node000018_Node000019"><a xlink:title=" ">
<path fill="none" stroke="#63b8ff" d="M1097.06,-60.3C1097.06,-51.2 1097.06,-39.29 1097.06,-29.4"/>
<polygon fill="#63b8ff" stroke="#63b8ff" points="1100.56,-29.34 1097.06,-19.34 1093.56,-29.34 1100.56,-29.34"/>
</a>
</g>
</g>
<!-- Node20&#45;&gt;Node12 -->
<g id="edge21_Node000020_Node000012" class="edge">
<title>Node20&#45;&gt;Node12</title>
<g id="a_edge21_Node000020_Node000012"><a xlink:title=" ">
<path fill="none" stroke="#63b8ff" d="M610.11,-60.44C602.77,-58.47 595.23,-56.58 588.06,-55 508.53,-37.46 414.75,-23.9 358.97,-16.57"/>
<polygon fill="#63b8ff" stroke="#63b8ff" points="359.38,-13.09 349.01,-15.27 358.47,-20.04 359.38,-13.09"/>
</a>
</g>
</g>
<!-- Node21 -->
<g id="Node000021" class="node">
<title>Node21</title>
<g id="a_Node000021"><a xlink:title=" ">
<polygon fill="#e0e0e0" stroke="#999999" points="693.56,-19 620.56,-19 620.56,0 693.56,0 693.56,-19"/>
<text text-anchor="middle" x="657.06" y="-7" font-family="Helvetica,sans-Serif" font-size="10.00">string_view</text>
</a>
</g>
</g>
<!-- Node20&#45;&gt;Node21 -->
<g id="edge20_Node000020_Node000021" class="edge">
<title>Node20&#45;&gt;Node21</title>
<g id="a_edge20_Node000020_Node000021"><a xlink:title=" ">
<path fill="none" stroke="#63b8ff" d="M657.06,-60.3C657.06,-51.2 657.06,-39.29 657.06,-29.4"/>
<polygon fill="#63b8ff" stroke="#63b8ff" points="660.56,-29.34 657.06,-19.34 653.56,-29.34 660.56,-29.34"/>
</a>
</g>
</g>
<!-- Node22&#45;&gt;Node12 -->
<g id="edge23_Node000022_Node000012" class="edge">
<title>Node22&#45;&gt;Node12</title>
<g id="a_edge23_Node000022_Node000012"><a xlink:title=" ">
<path fill="none" stroke="#63b8ff" d="M155.51,-60.45C191,-48.98 240.57,-32.96 273.92,-22.18"/>
<polygon fill="#63b8ff" stroke="#63b8ff" points="275.27,-25.42 283.71,-19.02 273.12,-18.76 275.27,-25.42"/>
</a>
</g>
</g>
<!-- Node23&#45;&gt;Node13 -->
<g id="edge25_Node000023_Node000013" class="edge">
<title>Node23&#45;&gt;Node13</title>
<g id="a_edge25_Node000023_Node000013"><a xlink:title=" ">
<path fill="none" stroke="#63b8ff" d="M1568.84,-60.46C1579.63,-58.53 1590.62,-56.65 1601.06,-55 1706.16,-38.4 1830.19,-23.34 1895.86,-15.73"/>
<polygon fill="#63b8ff" stroke="#63b8ff" points="1896.35,-19.2 1905.88,-14.57 1895.55,-12.24 1896.35,-19.2"/>
</a>
</g>
</g>
<!-- Node24&#45;&gt;Node12 -->
<g id="edge27_Node000024_Node000012" class="edge">
<title>Node24&#45;&gt;Node12</title>
<g id="a_edge27_Node000024_Node000012"><a xlink:title=" ">
<path fill="none" stroke="#63b8ff" d="M310.06,-60.3C310.06,-51.2 310.06,-39.29 310.06,-29.4"/>
<polygon fill="#63b8ff" stroke="#63b8ff" points="313.56,-29.34 310.06,-19.34 306.56,-29.34 313.56,-29.34"/>
</a>
</g>
</g>
<!-- Node25&#45;&gt;Node12 -->
<g id="edge29_Node000025_Node000012" class="edge">
<title>Node25&#45;&gt;Node12</title>
<g id="a_edge29_Node000025_Node000012"><a xlink:title=" ">
<path fill="none" stroke="#63b8ff" d="M458.37,-60.45C424.46,-49.03 377.15,-33.1 345.16,-22.32"/>
<polygon fill="#63b8ff" stroke="#63b8ff" points="345.94,-18.89 335.35,-19.02 343.71,-25.53 345.94,-18.89"/>
</a>
</g>
</g>
<!-- Node27&#45;&gt;Node15 -->
<g id="edge32_Node000027_Node000015" class="edge">
<title>Node27&#45;&gt;Node15</title>
<g id="a_edge32_Node000027_Node000015"><a xlink:title=" ">
<path fill="none" stroke="#63b8ff" d="M826.92,-60.3C842.39,-49.77 863.39,-35.47 878.92,-24.9"/>
<polygon fill="#63b8ff" stroke="#63b8ff" points="881.05,-27.68 887.35,-19.16 877.11,-21.89 881.05,-27.68"/>
</a>
</g>
</g>
<!-- Node31&#45;&gt;Node7 -->
<g id="edge44_Node000031_Node000007" class="edge">
<title>Node31&#45;&gt;Node7</title>
<g id="a_edge44_Node000031_Node000007"><a xlink:title=" ">
<path fill="none" stroke="#63b8ff" d="M2935.49,-197.76C2932.76,-173.14 2927.17,-122.66 2924.14,-95.23"/>
<polygon fill="#63b8ff" stroke="#63b8ff" points="2927.59,-94.59 2923.01,-85.03 2920.63,-95.36 2927.59,-94.59"/>
</a>
</g>
</g>
<!-- Node31&#45;&gt;Node32 -->
<g id="edge37_Node000031_Node000032" class="edge">
<title>Node31&#45;&gt;Node32</title>
<g id="a_edge37_Node000031_Node000032"><a xlink:title=" ">
<path fill="none" stroke="#63b8ff" d="M3004.22,-197.95C3060.95,-186.09 3140.98,-169.35 3192.44,-158.59"/>
<polygon fill="#63b8ff" stroke="#63b8ff" points="3193.27,-161.99 3202.34,-156.52 3191.83,-155.14 3193.27,-161.99"/>
</a>
</g>
</g>
<!-- Node31&#45;&gt;Node35 -->
<g id="edge40_Node000031_Node000035" class="edge">
<title>Node31&#45;&gt;Node35</title>
<g id="a_edge40_Node000031_Node000035"><a xlink:title=" ">
<path fill="none" stroke="#63b8ff" d="M3014.78,-203.06C3117.48,-191.05 3288.76,-170.25 3317.06,-162 3318.51,-161.58 3319.98,-161.09 3321.44,-160.57"/>
<polygon fill="#63b8ff" stroke="#63b8ff" points="3323.02,-163.7 3330.91,-156.64 3320.33,-157.24 3323.02,-163.7"/>
</a>
</g>
</g>
<!-- Node31&#45;&gt;Node36 -->
<g id="edge41_Node000031_Node000036" class="edge">
<title>Node31&#45;&gt;Node36</title>
<g id="a_edge41_Node000031_Node000036"><a xlink:title=" ">
<path fill="none" stroke="#63b8ff" d="M2871.8,-197.91C2834.26,-189.08 2786.47,-176.62 2745.06,-162 2743.67,-161.51 2742.25,-160.98 2740.83,-160.42"/>
<polygon fill="#63b8ff" stroke="#63b8ff" points="2742.13,-157.17 2731.56,-156.52 2739.42,-163.63 2742.13,-157.17"/>
</a>
</g>
</g>
<!-- Node37 -->
<g id="Node000037" class="node">
<title>Node37</title>
<g id="a_Node000037"><a xlink:title=" ">
<polygon fill="#e0e0e0" stroke="#999999" points="3017.56,-156.5 2966.56,-156.5 2966.56,-137.5 3017.56,-137.5 3017.56,-156.5"/>
<text text-anchor="middle" x="2992.06" y="-144.5" font-family="Helvetica,sans-Serif" font-size="10.00">variant</text>
</a>
</g>
</g>
<!-- Node31&#45;&gt;Node37 -->
<g id="edge42_Node000031_Node000037" class="edge">
<title>Node31&#45;&gt;Node37</title>
<g id="a_edge42_Node000031_Node000037"><a xlink:title=" ">
<path fill="none" stroke="#63b8ff" d="M2949.27,-197.8C2957.68,-188.01 2968.88,-174.98 2977.71,-164.7"/>
<polygon fill="#63b8ff" stroke="#63b8ff" points="2980.6,-166.71 2984.46,-156.84 2975.29,-162.15 2980.6,-166.71"/>
</a>
</g>
</g>
<!-- Node31&#45;&gt;Node38 -->
<g id="edge43_Node000031_Node000038" class="edge">
<title>Node31&#45;&gt;Node38</title>
<g id="a_edge43_Node000031_Node000038"><a xlink:title=" ">
<path fill="none" stroke="#63b8ff" d="M2983.95,-197.91C3015.5,-188.24 3057.96,-174.88 3095.06,-162 3096.71,-161.43 3098.4,-160.83 3100.1,-160.22"/>
<polygon fill="#63b8ff" stroke="#63b8ff" points="3101.65,-163.38 3109.83,-156.64 3099.24,-156.81 3101.65,-163.38"/>
</a>
</g>
</g>
<!-- Node39 -->
<g id="Node000039" class="node">
<title>Node39</title>
<g id="a_Node000039"><a xlink:title=" ">
<polygon fill="#e0e0e0" stroke="#999999" points="3086.06,-156.5 3036.06,-156.5 3036.06,-137.5 3086.06,-137.5 3086.06,-156.5"/>
<text text-anchor="middle" x="3061.06" y="-144.5" font-family="Helvetica,sans-Serif" font-size="10.00">format</text>
</a>
</g>
</g>
<!-- Node31&#45;&gt;Node39 -->
<g id="edge45_Node000031_Node000039" class="edge">
<title>Node31&#45;&gt;Node39</title>
<g id="a_edge45_Node000031_Node000039"><a xlink:title=" ">
<path fill="none" stroke="#63b8ff" d="M2964.27,-197.95C2985.54,-186.98 3014.88,-171.83 3035.67,-161.11"/>
<polygon fill="#63b8ff" stroke="#63b8ff" points="3037.28,-164.21 3044.56,-156.52 3034.07,-157.99 3037.28,-164.21"/>
</a>
</g>
</g>
<!-- Node40 -->
<g id="Node000040" class="node">
<title>Node40</title>
<g id="a_Node000040"><a xlink:title=" ">
<polygon fill="#e0e0e0" stroke="#999999" points="2909.56,-162 2754.56,-162 2754.56,-132 2909.56,-132 2909.56,-162"/>
<text text-anchor="start" x="2762.56" y="-150" font-family="Helvetica,sans-Serif" font-size="10.00">Hermes/Endpoint/IpEndpoint</text>
<text text-anchor="middle" x="2832.06" y="-139" font-family="Helvetica,sans-Serif" font-size="10.00">/IpAddress.tpp</text>
</a>
</g>
</g>
<!-- Node31&#45;&gt;Node40 -->
<g id="edge46_Node000031_Node000040" class="edge">
<title>Node31&#45;&gt;Node40</title>
<g id="a_edge46_Node000031_Node000040"><a xlink:title=" ">
<path fill="none" stroke="#63b8ff" d="M2914.02,-197.95C2899.25,-188.95 2879.88,-177.14 2863.68,-167.27"/>
<polygon fill="#63b8ff" stroke="#63b8ff" points="2865.41,-164.23 2855.05,-162.01 2861.77,-170.21 2865.41,-164.23"/>
</a>
</g>
</g>
<!-- Node33 -->
<g id="Node000033" class="node">
<title>Node33</title>
<g id="a_Node000033"><a xlink:title=" ">
<polygon fill="#e0e0e0" stroke="#999999" points="3229.56,-85 3184.56,-85 3184.56,-66 3229.56,-66 3229.56,-85"/>
<text text-anchor="middle" x="3207.06" y="-73" font-family="Helvetica,sans-Serif" font-size="10.00">utility</text>
</a>
</g>
</g>
<!-- Node32&#45;&gt;Node33 -->
<g id="edge38_Node000032_Node000033" class="edge">
<title>Node32&#45;&gt;Node33</title>
<g id="a_edge38_Node000032_Node000033"><a xlink:title=" ">
<path fill="none" stroke="#63b8ff" d="M3238.65,-137.48C3233.09,-126.74 3223.39,-108.03 3216.21,-94.16"/>
<polygon fill="#63b8ff" stroke="#63b8ff" points="3219.22,-92.36 3211.51,-85.09 3213,-95.58 3219.22,-92.36"/>
</a>
</g>
</g>
<!-- Node34 -->
<g id="Node000034" class="node">
<title>Node34</title>
<g id="a_Node000034"><a xlink:title=" ">
<polygon fill="#e0e0e0" stroke="#999999" points="3312.56,-85 3247.56,-85 3247.56,-66 3312.56,-66 3312.56,-85"/>
<text text-anchor="middle" x="3280.06" y="-73" font-family="Helvetica,sans-Serif" font-size="10.00">functional</text>
</a>
</g>
</g>
<!-- Node32&#45;&gt;Node34 -->
<g id="edge39_Node000032_Node000034" class="edge">
<title>Node32&#45;&gt;Node34</title>
<g id="a_edge39_Node000032_Node000034"><a xlink:title=" ">
<path fill="none" stroke="#63b8ff" d="M3247.6,-137.48C3253.31,-126.74 3263.28,-108.03 3270.66,-94.16"/>
<polygon fill="#63b8ff" stroke="#63b8ff" points="3273.88,-95.56 3275.49,-85.09 3267.7,-92.27 3273.88,-95.56"/>
</a>
</g>
</g>
<!-- Node43&#45;&gt;Node4 -->
<g id="edge53_Node000043_Node000004" class="edge">
<title>Node43&#45;&gt;Node4</title>
<g id="a_edge53_Node000043_Node000004"><a xlink:title=" ">
<path fill="none" stroke="#63b8ff" d="M2585.25,-269.37C2602.68,-260.07 2630.96,-244.99 2653.6,-232.91"/>
<polygon fill="#63b8ff" stroke="#63b8ff" points="2655.42,-235.91 2662.6,-228.12 2652.13,-229.73 2655.42,-235.91"/>
</a>
</g>
</g>
<!-- Node43&#45;&gt;Node5 -->
<g id="edge54_Node000043_Node000005" class="edge">
<title>Node43&#45;&gt;Node5</title>
<g id="a_edge54_Node000043_Node000005"><a xlink:title=" ">
<path fill="none" stroke="#63b8ff" d="M2570.51,-269.47C2573.81,-249.95 2582.02,-201.45 2587.01,-171.97"/>
<polygon fill="#63b8ff" stroke="#63b8ff" points="2590.46,-172.51 2588.68,-162.07 2583.56,-171.34 2590.46,-172.51"/>
</a>
</g>
</g>
<!-- Node43&#45;&gt;Node9 -->
<g id="edge56_Node000043_Node000009" class="edge">
<title>Node43&#45;&gt;Node9</title>
<g id="a_edge56_Node000043_Node000009"><a xlink:title=" ">
<path fill="none" stroke="#63b8ff" d="M2497.56,-269.43C2471.97,-262.52 2445.62,-250.13 2430.06,-228 2399.95,-185.17 2441.22,-122.78 2464.73,-93.23"/>
<polygon fill="#63b8ff" stroke="#63b8ff" points="2467.71,-95.11 2471.35,-85.17 2462.3,-90.67 2467.71,-95.11"/>
</a>
</g>
</g>
<!-- Node43&#45;&gt;Node11 -->
<g id="edge55_Node000043_Node000011" class="edge">
<title>Node43&#45;&gt;Node11</title>
<g id="a_edge55_Node000043_Node000011"><a xlink:title=" ">
<path fill="none" stroke="#63b8ff" d="M2497.38,-271.1C2262.62,-248.51 1518.68,-176.93 1287.38,-154.67"/>
<polygon fill="#63b8ff" stroke="#63b8ff" points="1287.69,-151.18 1277.4,-153.71 1287.02,-158.15 1287.69,-151.18"/>
</a>
</g>
</g>
<!-- Node44 -->
<g id="Node000044" class="node">
<title>Node44</title>
<g id="a_Node000044"><a xlink:title=" ">
<polygon fill="#e0e0e0" stroke="#999999" points="2499.06,-222.5 2439.06,-222.5 2439.06,-203.5 2499.06,-203.5 2499.06,-222.5"/>
<text text-anchor="middle" x="2469.06" y="-210.5" font-family="Helvetica,sans-Serif" font-size="10.00">concepts</text>
</a>
</g>
</g>
<!-- Node43&#45;&gt;Node44 -->
<g id="edge57_Node000043_Node000044" class="edge">
<title>Node43&#45;&gt;Node44</title>
<g id="a_edge57_Node000043_Node000044"><a xlink:title=" ">
<path fill="none" stroke="#63b8ff" d="M2555.58,-269.37C2539.1,-258.82 2510.99,-240.84 2491.3,-228.23"/>
<polygon fill="#63b8ff" stroke="#63b8ff" points="2492.96,-225.14 2482.65,-222.7 2489.19,-231.04 2492.96,-225.14"/>
</a>
</g>
</g>
<!-- Node45 -->
<g id="Node000045" class="node">
<title>Node45</title>
<g id="a_Node000045"><a xlink:title=" ">
<polygon fill="#e0e0e0" stroke="#999999" points="2567.06,-222.5 2517.06,-222.5 2517.06,-203.5 2567.06,-203.5 2567.06,-222.5"/>
<text text-anchor="middle" x="2542.06" y="-210.5" font-family="Helvetica,sans-Serif" font-size="10.00">ranges</text>
</a>
</g>
</g>
<!-- Node43&#45;&gt;Node45 -->
<g id="edge58_Node000043_Node000045" class="edge">
<title>Node43&#45;&gt;Node45</title>
<g id="a_edge58_Node000043_Node000045"><a xlink:title=" ">
<path fill="none" stroke="#63b8ff" d="M2565.42,-269.37C2561.42,-259.88 2554.87,-244.36 2549.73,-232.16"/>
<polygon fill="#63b8ff" stroke="#63b8ff" points="2552.93,-230.76 2545.82,-222.91 2546.48,-233.48 2552.93,-230.76"/>
</a>
</g>
</g>
</g>
</svg>
