<?xml version="1.0" encoding="UTF-8" standalone="no"?>
<!DOCTYPE svg PUBLIC "-//W3C//DTD SVG 1.1//EN"
 "http://www.w3.org/Graphics/SVG/1.1/DTD/svg11.dtd">
<!-- Generated by graphviz version 2.43.0 (0)
 -->
<!-- Title: include/Hermes/Socket/Data/DefaultSocketData.hpp Pages: 1 -->
<svg width="3390pt" height="368pt"
 viewBox="0.00 0.00 3390.00 368.00" xmlns="http://www.w3.org/2000/svg" xmlns:xlink="http://www.w3.org/1999/xlink">
<g id="graph0" class="graph" transform="scale(1 1) rotate(0) translate(4 364)">
<title>include/Hermes/Socket/Data/DefaultSocketData.hpp</title>
<!-- Node1 -->
<g id="Node000001" class="node">
<title>Node1</title>
<g id="a_Node000001"><a xlink:title=" ">
<polygon fill="#999999" stroke="#666666" points="1037,-360 879,-360 879,-330 1037,-330 1037,-360"/>
<text text-anchor="start" x="887" y="-348" font-family="Helvetica,sans-Serif" font-size="10.00">include/Hermes/Socket</text>
<text text-anchor="middle" x="958" y="-337" font-family="Helvetica,sans-Serif" font-size="10.00">/Data/DefaultSocketData.hpp</text>
</a>
</g>
</g>
<!-- Node2 -->
<g id="Node000002" class="node">
<title>Node2</title>
<g id="a_Node000002"><a xlink:href="_ip_endpoint_8hpp.html" target="_top" xlink:title=" ">
<polygon fill="white" stroke="#666666" points="619.5,-294 464.5,-294 464.5,-264 619.5,-264 619.5,-294"/>
<text text-anchor="start" x="472.5" y="-282" font-family="Helvetica,sans-Serif" font-size="10.00">Hermes/Endpoint/IpEndpoint</text>
<text text-anchor="middle" x="542" y="-271" font-family="Helvetica,sans-Serif" font-size="10.00">/IpEndpoint.hpp</text>
</a>
</g>
</g>
<!-- Node1&#45;&gt;Node2 -->
<g id="edge1_Node000001_Node000002" class="edge">
<title>Node1&#45;&gt;Node2</title>
<g id="a_edge1_Node000001_Node000002"><a xlink:title=" ">
<path fill="none" stroke="#63b8ff" d="M878.77,-331.81C807.63,-320.87 703.34,-304.82 629.7,-293.49"/>
<polygon fill="#63b8ff" stroke="#63b8ff" points="629.94,-289.99 619.52,-291.93 628.87,-296.91 629.94,-289.99"/>
</a>
</g>
</g>
<!-- Node42 -->
<g id="Node000042" class="node">
<title>Node42</title>
<g id="a_Node000042"><a xlink:title=" ">
<polygon fill="#e0e0e0" stroke="#999999" points="1041,-288.5 991,-288.5 991,-269.5 1041,-269.5 1041,-288.5"/>
<text text-anchor="middle" x="1016" y="-276.5" font-family="Helvetica,sans-Serif" font-size="10.00">chrono</text>
</a>
</g>
</g>
<!-- Node1&#45;&gt;Node42 -->
<g id="edge51_Node000001_Node000042" class="edge">
<title>Node1&#45;&gt;Node42</title>
<g id="a_edge51_Node000001_Node000042"><a xlink:title=" ">
<path fill="none" stroke="#63b8ff" d="M970.87,-329.8C979.83,-319.92 991.79,-306.72 1001.14,-296.39"/>
<polygon fill="#63b8ff" stroke="#63b8ff" points="1003.86,-298.6 1007.98,-288.84 998.68,-293.9 1003.86,-298.6"/>
</a>
</g>
</g>
<!-- Node43 -->
<g id="Node000043" class="node">
<title>Node43</title>
<g id="a_Node000043"><a xlink:href="__base_8hpp.html" target="_top" xlink:title=" ">
<polygon fill="white" stroke="#666666" points="972.5,-288.5 829.5,-288.5 829.5,-269.5 972.5,-269.5 972.5,-288.5"/>
<text text-anchor="middle" x="901" y="-276.5" font-family="Helvetica,sans-Serif" font-size="10.00">Hermes/Socket/_base.hpp</text>
</a>
</g>
</g>
<!-- Node1&#45;&gt;Node43 -->
<g id="edge52_Node000001_Node000043" class="edge">
<title>Node1&#45;&gt;Node43</title>
<g id="a_edge52_Node000001_Node000043"><a xlink:title=" ">
<path fill="none" stroke="#63b8ff" d="M945.35,-329.8C936.55,-319.92 924.8,-306.72 915.6,-296.39"/>
<polygon fill="#63b8ff" stroke="#63b8ff" points="918.14,-293.98 908.88,-288.84 912.91,-298.64 918.14,-293.98"/>
</a>
</g>
</g>
<!-- Node46 -->
<g id="Node000046" class="node">
<title>Node46</title>
<g id="a_Node000046"><a xlink:title=" ">
<polygon fill="#e0e0e0" stroke="#999999" points="1189,-294 1059,-294 1059,-264 1189,-264 1189,-294"/>
<text text-anchor="start" x="1067" y="-282" font-family="Helvetica,sans-Serif" font-size="10.00">Hermes/Socket/Data</text>
<text text-anchor="middle" x="1124" y="-271" font-family="Helvetica,sans-Serif" font-size="10.00">/DefaultSocketData.tpp</text>
</a>
</g>
</g>
<!-- Node1&#45;&gt;Node46 -->
<g id="edge59_Node000001_Node000046" class="edge">
<title>Node1&#45;&gt;Node46</title>
<g id="a_edge59_Node000001_Node000046"><a xlink:title=" ">
<path fill="none" stroke="#63b8ff" d="M994.43,-329.95C1019.08,-320.45 1051.83,-307.82 1078.24,-297.64"/>
<polygon fill="#63b8ff" stroke="#63b8ff" points="1079.58,-300.88 1087.66,-294.01 1077.07,-294.34 1079.58,-300.88"/>
</a>
</g>
</g>
<!-- Node3 -->
<g id="Node000003" class="node">
<title>Node3</title>
<g id="a_Node000003"><a xlink:href="_endpoint_concept_8hpp.html" target="_top" xlink:title=" ">
<polygon fill="white" stroke="#666666" points="815,-228 683,-228 683,-198 815,-198 815,-228"/>
<text text-anchor="start" x="691" y="-216" font-family="Helvetica,sans-Serif" font-size="10.00">Hermes/Endpoint/_base</text>
<text text-anchor="middle" x="749" y="-205" font-family="Helvetica,sans-Serif" font-size="10.00">/EndpointConcept.hpp</text>
</a>
</g>
</g>
<!-- Node2&#45;&gt;Node3 -->
<g id="edge2_Node000002_Node000003" class="edge">
<title>Node2&#45;&gt;Node3</title>
<g id="a_edge2_Node000002_Node000003"><a xlink:title=" ">
<path fill="none" stroke="#63b8ff" d="M587.43,-263.95C618.84,-254.24 660.8,-241.27 694.09,-230.98"/>
<polygon fill="#63b8ff" stroke="#63b8ff" points="695.16,-234.31 703.68,-228.01 693.09,-227.62 695.16,-234.31"/>
</a>
</g>
</g>
<!-- Node31 -->
<g id="Node000031" class="node">
<title>Node31</title>
<g id="a_Node000031"><a xlink:href="_ip_address_8hpp.html" target="_top" xlink:title=" ">
<polygon fill="white" stroke="#666666" points="446.5,-228 291.5,-228 291.5,-198 446.5,-198 446.5,-228"/>
<text text-anchor="start" x="299.5" y="-216" font-family="Helvetica,sans-Serif" font-size="10.00">Hermes/Endpoint/IpEndpoint</text>
<text text-anchor="middle" x="369" y="-205" font-family="Helvetica,sans-Serif" font-size="10.00">/IpAddress.hpp</text>
</a>
</g>
</g>
<!-- Node2&#45;&gt;Node31 -->
<g id="edge36_Node000002_Node000031" class="edge">
<title>Node2&#45;&gt;Node31</title>
<g id="a_edge36_Node000002_Node000031"><a xlink:title=" ">
<path fill="none" stroke="#63b8ff" d="M504.03,-263.95C478.23,-254.41 443.91,-241.71 416.33,-231.51"/>
<polygon fill="#63b8ff" stroke="#63b8ff" points="417.47,-228.2 406.88,-228.01 415.04,-234.76 417.47,-228.2"/>
</a>
</g>
</g>
<!-- Node32 -->
<g id="Node000032" class="node">
<title>Node32</title>
<g id="a_Node000032"><a xlink:href="_hash_8hpp.html" target="_top" xlink:title=" ">
<polygon fill="white" stroke="#666666" points="191.5,-156.5 62.5,-156.5 62.5,-137.5 191.5,-137.5 191.5,-156.5"/>
<text text-anchor="middle" x="127" y="-144.5" font-family="Helvetica,sans-Serif" font-size="10.00">Hermes/Utils/Hash.hpp</text>
</a>
</g>
</g>
<!-- Node2&#45;&gt;Node32 -->
<g id="edge47_Node000002_Node000032" class="edge">
<title>Node2&#45;&gt;Node32</title>
<g id="a_edge47_Node000002_Node000032"><a xlink:title=" ">
<path fill="none" stroke="#63b8ff" d="M464.26,-268.98C411.79,-261.47 341.51,-248.6 282,-228 232.16,-210.75 178.4,-179.95 149.12,-162.01"/>
<polygon fill="#63b8ff" stroke="#63b8ff" points="150.85,-158.97 140.51,-156.68 147.16,-164.92 150.85,-158.97"/>
</a>
</g>
</g>
<!-- Node36 -->
<g id="Node000036" class="node">
<title>Node36</title>
<g id="a_Node000036"><a xlink:title=" ">
<polygon fill="#e0e0e0" stroke="#999999" points="44,-156.5 0,-156.5 0,-137.5 44,-137.5 44,-156.5"/>
<text text-anchor="middle" x="22" y="-144.5" font-family="Helvetica,sans-Serif" font-size="10.00">string</text>
</a>
</g>
</g>
<!-- Node2&#45;&gt;Node36 -->
<g id="edge49_Node000002_Node000036" class="edge">
<title>Node2&#45;&gt;Node36</title>
<g id="a_edge49_Node000002_Node000036"><a xlink:title=" ">
<path fill="none" stroke="#63b8ff" d="M464.45,-271.52C397.07,-264.64 297.33,-251.43 213,-228 151.58,-210.93 83.6,-179.12 47.63,-161.19"/>
<polygon fill="#63b8ff" stroke="#63b8ff" points="48.86,-157.89 38.36,-156.52 45.71,-164.14 48.86,-157.89"/>
</a>
</g>
</g>
<!-- Node38 -->
<g id="Node000038" class="node">
<title>Node38</title>
<g id="a_Node000038"><a xlink:title=" ">
<polygon fill="#e0e0e0" stroke="#999999" points="676,-156.5 620,-156.5 620,-137.5 676,-137.5 676,-156.5"/>
<text text-anchor="middle" x="648" y="-144.5" font-family="Helvetica,sans-Serif" font-size="10.00">optional</text>
</a>
</g>
</g>
<!-- Node2&#45;&gt;Node38 -->
<g id="edge48_Node000002_Node000038" class="edge">
<title>Node2&#45;&gt;Node38</title>
<g id="a_edge48_Node000002_Node000038"><a xlink:title=" ">
<path fill="none" stroke="#63b8ff" d="M580.23,-263.86C597.18,-255.78 615.96,-244.01 628,-228 641.48,-210.07 645.95,-184.12 647.39,-166.68"/>
<polygon fill="#63b8ff" stroke="#63b8ff" points="650.89,-166.81 647.96,-156.63 643.9,-166.41 650.89,-166.81"/>
</a>
</g>
</g>
<!-- Node41 -->
<g id="Node000041" class="node">
<title>Node41</title>
<g id="a_Node000041"><a xlink:title=" ">
<polygon fill="#e0e0e0" stroke="#999999" points="619.5,-228 464.5,-228 464.5,-198 619.5,-198 619.5,-228"/>
<text text-anchor="start" x="472.5" y="-216" font-family="Helvetica,sans-Serif" font-size="10.00">Hermes/Endpoint/IpEndpoint</text>
<text text-anchor="middle" x="542" y="-205" font-family="Helvetica,sans-Serif" font-size="10.00">/IpEndpoint.tpp</text>
</a>
</g>
</g>
<!-- Node2&#45;&gt;Node41 -->
<g id="edge50_Node000002_Node000041" class="edge">
<title>Node2&#45;&gt;Node41</title>
<g id="a_edge50_Node000002_Node000041"><a xlink:title=" ">
<path fill="none" stroke="#63b8ff" d="M542,-263.8C542,-256.34 542,-246.99 542,-238.41"/>
<polygon fill="#63b8ff" stroke="#63b8ff" points="545.5,-238.16 542,-228.16 538.5,-238.16 545.5,-238.16"/>
</a>
</g>
</g>
<!-- Node4 -->
<g id="Node000004" class="node">
<title>Node4</title>
<g id="a_Node000004"><a xlink:href="_connection_error_enum_8hpp.html" target="_top" xlink:title=" ">
<polygon fill="white" stroke="#666666" points="861.5,-162 694.5,-162 694.5,-132 861.5,-132 861.5,-162"/>
<text text-anchor="start" x="702.5" y="-150" font-family="Helvetica,sans-Serif" font-size="10.00">Hermes/_base/ConnectionError</text>
<text text-anchor="middle" x="778" y="-139" font-family="Helvetica,sans-Serif" font-size="10.00">Enum.hpp</text>
</a>
</g>
</g>
<!-- Node3&#45;&gt;Node4 -->
<g id="edge3_Node000003_Node000004" class="edge">
<title>Node3&#45;&gt;Node4</title>
<g id="a_edge3_Node000003_Node000004"><a xlink:title=" ">
<path fill="none" stroke="#63b8ff" d="M755.44,-197.8C758.97,-190.01 763.43,-180.16 767.45,-171.28"/>
<polygon fill="#63b8ff" stroke="#63b8ff" points="770.64,-172.72 771.58,-162.16 764.27,-169.83 770.64,-172.72"/>
</a>
</g>
</g>
<!-- Node12 -->
<g id="Node000012" class="node">
<title>Node12</title>
<g id="a_Node000012"><a xlink:href="_os_api_8hpp.html" target="_top" xlink:title=" ">
<polygon fill="white" stroke="#666666" points="2159,-162 2041,-162 2041,-132 2159,-132 2159,-162"/>
<text text-anchor="start" x="2049" y="-150" font-family="Helvetica,sans-Serif" font-size="10.00">Hermes/_base/OsApi</text>
<text text-anchor="middle" x="2100" y="-139" font-family="Helvetica,sans-Serif" font-size="10.00">/OsApi.hpp</text>
</a>
</g>
</g>
<!-- Node3&#45;&gt;Node12 -->
<g id="edge11_Node000003_Node000012" class="edge">
<title>Node3&#45;&gt;Node12</title>
<g id="a_edge11_Node000003_Node000012"><a xlink:title=" ">
<path fill="none" stroke="#63b8ff" d="M815.23,-202.86C830.56,-201.01 846.83,-199.24 862,-198 1306.45,-161.56 1842.93,-151.35 2030.92,-148.78"/>
<polygon fill="#63b8ff" stroke="#63b8ff" points="2030.99,-152.28 2040.94,-148.65 2030.89,-145.28 2030.99,-152.28"/>
</a>
</g>
</g>
<!-- Node5 -->
<g id="Node000005" class="node">
<title>Node5</title>
<g id="a_Node000005"><a xlink:title=" ">
<polygon fill="#e0e0e0" stroke="#999999" points="801,-85 739,-85 739,-66 801,-66 801,-85"/>
<text text-anchor="middle" x="770" y="-73" font-family="Helvetica,sans-Serif" font-size="10.00">expected</text>
</a>
</g>
</g>
<!-- Node4&#45;&gt;Node5 -->
<g id="edge4_Node000004_Node000005" class="edge">
<title>Node4&#45;&gt;Node5</title>
<g id="a_edge4_Node000004_Node000005"><a xlink:title=" ">
<path fill="none" stroke="#63b8ff" d="M776.38,-131.94C775.18,-121.46 773.52,-107.05 772.19,-95.55"/>
<polygon fill="#63b8ff" stroke="#63b8ff" points="775.63,-94.8 771.01,-85.27 768.68,-95.6 775.63,-94.8"/>
</a>
</g>
</g>
<!-- Node6 -->
<g id="Node000006" class="node">
<title>Node6</title>
<g id="a_Node000006"><a xlink:title=" ">
<polygon fill="#e0e0e0" stroke="#999999" points="383.5,-85 336.5,-85 336.5,-66 383.5,-66 383.5,-85"/>
<text text-anchor="middle" x="360" y="-73" font-family="Helvetica,sans-Serif" font-size="10.00">vector</text>
</a>
</g>
</g>
<!-- Node4&#45;&gt;Node6 -->
<g id="edge5_Node000004_Node000006" class="edge">
<title>Node4&#45;&gt;Node6</title>
<g id="a_edge5_Node000004_Node000006"><a xlink:title=" ">
<path fill="none" stroke="#63b8ff" d="M694.36,-133.3C691.2,-132.86 688.07,-132.42 685,-132 555.45,-114.27 516.78,-138.15 393,-96 388.82,-94.58 384.59,-92.58 380.61,-90.4"/>
<polygon fill="#63b8ff" stroke="#63b8ff" points="382.32,-87.35 371.95,-85.18 378.71,-93.34 382.32,-87.35"/>
</a>
</g>
</g>
<!-- Node7 -->
<g id="Node000007" class="node">
<title>Node7</title>
<g id="a_Node000007"><a xlink:title=" ">
<polygon fill="#e0e0e0" stroke="#999999" points="859,-85 819,-85 819,-66 859,-66 859,-85"/>
<text text-anchor="middle" x="839" y="-73" font-family="Helvetica,sans-Serif" font-size="10.00">span</text>
</a>
</g>
</g>
<!-- Node4&#45;&gt;Node7 -->
<g id="edge6_Node000004_Node000007" class="edge">
<title>Node4&#45;&gt;Node7</title>
<g id="a_edge6_Node000004_Node000007"><a xlink:title=" ">
<path fill="none" stroke="#63b8ff" d="M790.34,-131.94C800.21,-120.7 814.05,-104.93 824.45,-93.08"/>
<polygon fill="#63b8ff" stroke="#63b8ff" points="827.34,-95.09 831.31,-85.27 822.08,-90.47 827.34,-95.09"/>
</a>
</g>
</g>
<!-- Node8 -->
<g id="Node000008" class="node">
<title>Node8</title>
<g id="a_Node000008"><a xlink:title=" ">
<polygon fill="#e0e0e0" stroke="#999999" points="946.5,-85 877.5,-85 877.5,-66 946.5,-66 946.5,-85"/>
<text text-anchor="middle" x="912" y="-73" font-family="Helvetica,sans-Serif" font-size="10.00">type_traits</text>
</a>
</g>
</g>
<!-- Node4&#45;&gt;Node8 -->
<g id="edge7_Node000004_Node000008" class="edge">
<title>Node4&#45;&gt;Node8</title>
<g id="a_edge7_Node000004_Node000008"><a xlink:title=" ">
<path fill="none" stroke="#63b8ff" d="M805.12,-131.94C828.91,-119.59 863.26,-101.78 886.54,-89.7"/>
<polygon fill="#63b8ff" stroke="#63b8ff" points="888.22,-92.78 895.48,-85.07 884.99,-86.57 888.22,-92.78"/>
</a>
</g>
</g>
<!-- Node9 -->
<g id="Node000009" class="node">
<title>Node9</title>
<g id="a_Node000009"><a xlink:title=" ">
<polygon fill="#e0e0e0" stroke="#999999" points="1089.5,-85 964.5,-85 964.5,-66 1089.5,-66 1089.5,-85"/>
<text text-anchor="middle" x="1027" y="-73" font-family="Helvetica,sans-Serif" font-size="10.00">stdexec/execution.hpp</text>
</a>
</g>
</g>
<!-- Node4&#45;&gt;Node9 -->
<g id="edge8_Node000004_Node000009" class="edge">
<title>Node4&#45;&gt;Node9</title>
<g id="a_edge8_Node000004_Node000009"><a xlink:title=" ">
<path fill="none" stroke="#63b8ff" d="M828.39,-131.94C874.96,-118.94 943.29,-99.87 986.44,-87.82"/>
<polygon fill="#63b8ff" stroke="#63b8ff" points="987.61,-91.13 996.3,-85.07 985.73,-84.39 987.61,-91.13"/>
</a>
</g>
</g>
<!-- Node10 -->
<g id="Node000010" class="node">
<title>Node10</title>
<g id="a_Node000010"><a xlink:title=" ">
<polygon fill="#e0e0e0" stroke="#999999" points="536,-85 402,-85 402,-66 536,-66 536,-85"/>
<text text-anchor="middle" x="469" y="-73" font-family="Helvetica,sans-Serif" font-size="10.00">exec/any_sender_of.hpp</text>
</a>
</g>
</g>
<!-- Node4&#45;&gt;Node10 -->
<g id="edge9_Node000004_Node000010" class="edge">
<title>Node4&#45;&gt;Node10</title>
<g id="a_edge9_Node000004_Node000010"><a xlink:title=" ">
<path fill="none" stroke="#63b8ff" d="M709.02,-131.95C662.56,-122.3 599.97,-108.94 545,-96 533.93,-93.39 522.01,-90.42 510.96,-87.58"/>
<polygon fill="#63b8ff" stroke="#63b8ff" points="511.66,-84.15 501.1,-85.04 509.91,-90.93 511.66,-84.15"/>
</a>
</g>
</g>
<!-- Node11 -->
<g id="Node000011" class="node">
<title>Node11</title>
<g id="a_Node000011"><a xlink:title=" ">
<polygon fill="#e0e0e0" stroke="#999999" points="721.5,-90.5 554.5,-90.5 554.5,-60.5 721.5,-60.5 721.5,-90.5"/>
<text text-anchor="start" x="562.5" y="-78.5" font-family="Helvetica,sans-Serif" font-size="10.00">Hermes/_base/ConnectionError</text>
<text text-anchor="middle" x="638" y="-67.5" font-family="Helvetica,sans-Serif" font-size="10.00">Enum.tpp</text>
</a>
</g>
</g>
<!-- Node4&#45;&gt;Node11 -->
<g id="edge10_Node000004_Node000011" class="edge">
<title>Node4&#45;&gt;Node11</title>
<g id="a_edge10_Node000004_Node000011"><a xlink:title=" ">
<path fill="none" stroke="#63b8ff" d="M749.67,-131.94C728.32,-121.34 698.84,-106.7 675.53,-95.13"/>
<polygon fill="#63b8ff" stroke="#63b8ff" points="676.8,-91.86 666.29,-90.54 673.69,-98.12 676.8,-91.86"/>
</a>
</g>
</g>
<!-- Node13 -->
<g id="Node000013" class="node">
<title>Node13</title>
<g id="a_Node000013"><a xlink:title=" ">
<polygon fill="#e0e0e0" stroke="#999999" points="1408.5,-19 1331.5,-19 1331.5,0 1408.5,0 1408.5,-19"/>
<text text-anchor="middle" x="1370" y="-7" font-family="Helvetica,sans-Serif" font-size="10.00">sys/socket.h</text>
</a>
</g>
</g>
<!-- Node12&#45;&gt;Node13 -->
<g id="edge12_Node000012_Node000013" class="edge">
<title>Node12&#45;&gt;Node13</title>
<g id="a_edge12_Node000012_Node000013"><a xlink:title=" ">
<path fill="none" stroke="#63b8ff" d="M2040.71,-144.62C1855.63,-140.02 1299.28,-123.92 1273,-96 1260.51,-82.73 1263.16,-70.34 1273,-55 1283.9,-38 1303.11,-27.41 1321.57,-20.85"/>
<polygon fill="#63b8ff" stroke="#63b8ff" points="1322.66,-24.18 1331.1,-17.78 1320.51,-17.52 1322.66,-24.18"/>
</a>
</g>
</g>
<!-- Node14 -->
<g id="Node000014" class="node">
<title>Node14</title>
<g id="a_Node000014"><a xlink:title=" ">
<polygon fill="#e0e0e0" stroke="#999999" points="2136,-19 2064,-19 2064,0 2136,0 2136,-19"/>
<text text-anchor="middle" x="2100" y="-7" font-family="Helvetica,sans-Serif" font-size="10.00">netinet/in.h</text>
</a>
</g>
</g>
<!-- Node12&#45;&gt;Node14 -->
<g id="edge13_Node000012_Node000014" class="edge">
<title>Node12&#45;&gt;Node14</title>
<g id="a_edge13_Node000012_Node000014"><a xlink:title=" ">
<path fill="none" stroke="#63b8ff" d="M2116.84,-131.65C2126.2,-122.52 2136.96,-109.85 2142,-96 2148.24,-78.88 2148.73,-71.93 2142,-55 2137.48,-43.63 2128.53,-33.48 2120.04,-25.76"/>
<polygon fill="#63b8ff" stroke="#63b8ff" points="2122.11,-22.92 2112.21,-19.14 2117.59,-28.27 2122.11,-22.92"/>
</a>
</g>
</g>
<!-- Node15 -->
<g id="Node000015" class="node">
<title>Node15</title>
<g id="a_Node000015"><a xlink:title=" ">
<polygon fill="#e0e0e0" stroke="#999999" points="1924.5,-85 1855.5,-85 1855.5,-66 1924.5,-66 1924.5,-85"/>
<text text-anchor="middle" x="1890" y="-73" font-family="Helvetica,sans-Serif" font-size="10.00">arpa/inet.h</text>
</a>
</g>
</g>
<!-- Node12&#45;&gt;Node15 -->
<g id="edge14_Node000012_Node000015" class="edge">
<title>Node12&#45;&gt;Node15</title>
<g id="a_edge14_Node000012_Node000015"><a xlink:title=" ">
<path fill="none" stroke="#63b8ff" d="M2046.37,-131.93C2013.32,-122.77 1970.27,-109.96 1933,-96 1927.63,-93.99 1921.98,-91.62 1916.6,-89.24"/>
<polygon fill="#63b8ff" stroke="#63b8ff" points="1917.9,-85.98 1907.35,-85.01 1914.99,-92.35 1917.9,-85.98"/>
</a>
</g>
</g>
<!-- Node16 -->
<g id="Node000016" class="node">
<title>Node16</title>
<g id="a_Node000016"><a xlink:title=" ">
<polygon fill="#e0e0e0" stroke="#999999" points="2796.5,-19 2743.5,-19 2743.5,0 2796.5,0 2796.5,-19"/>
<text text-anchor="middle" x="2770" y="-7" font-family="Helvetica,sans-Serif" font-size="10.00">netdb.h</text>
</a>
</g>
</g>
<!-- Node12&#45;&gt;Node16 -->
<g id="edge15_Node000012_Node000016" class="edge">
<title>Node12&#45;&gt;Node16</title>
<g id="a_edge15_Node000012_Node000016"><a xlink:title=" ">
<path fill="none" stroke="#63b8ff" d="M2159.21,-145.51C2380.66,-143.38 3149.35,-133.33 3185,-96 3197.58,-82.82 3197.18,-68.55 3185,-55 3159.91,-27.08 2903.5,-15.2 2806.71,-11.69"/>
<polygon fill="#63b8ff" stroke="#63b8ff" points="2806.64,-8.18 2796.52,-11.33 2806.39,-15.18 2806.64,-8.18"/>
</a>
</g>
</g>
<!-- Node17 -->
<g id="Node000017" class="node">
<title>Node17</title>
<g id="a_Node000017"><a xlink:title=" ">
<polygon fill="#e0e0e0" stroke="#999999" points="2246,-85 2190,-85 2190,-66 2246,-66 2246,-85"/>
<text text-anchor="middle" x="2218" y="-73" font-family="Helvetica,sans-Serif" font-size="10.00">unistd.h</text>
</a>
</g>
</g>
<!-- Node12&#45;&gt;Node17 -->
<g id="edge16_Node000012_Node000017" class="edge">
<title>Node12&#45;&gt;Node17</title>
<g id="a_edge16_Node000012_Node000017"><a xlink:title=" ">
<path fill="none" stroke="#63b8ff" d="M2123.88,-131.94C2144.55,-119.76 2174.27,-102.26 2194.76,-90.19"/>
<polygon fill="#63b8ff" stroke="#63b8ff" points="2196.61,-93.16 2203.45,-85.07 2193.06,-87.13 2196.61,-93.16"/>
</a>
</g>
</g>
<!-- Node18 -->
<g id="Node000018" class="node">
<title>Node18</title>
<g id="a_Node000018"><a xlink:href="_conversion_and_literals_8hpp.html" target="_top" xlink:title=" ">
<polygon fill="white" stroke="#666666" points="3382,-90.5 3232,-90.5 3232,-60.5 3382,-60.5 3382,-90.5"/>
<text text-anchor="start" x="3240" y="-78.5" font-family="Helvetica,sans-Serif" font-size="10.00">Hermes/_base/OsApi</text>
<text text-anchor="middle" x="3307" y="-67.5" font-family="Helvetica,sans-Serif" font-size="10.00">/ConversionAndLiterals.hpp</text>
</a>
</g>
</g>
<!-- Node12&#45;&gt;Node18 -->
<g id="edge17_Node000012_Node000018" class="edge">
<title>Node12&#45;&gt;Node18</title>
<g id="a_edge17_Node000012_Node000018"><a xlink:title=" ">
<path fill="none" stroke="#63b8ff" d="M2159.16,-144.69C2359.33,-140.05 3010.3,-123.19 3218,-96 3225.12,-95.07 3232.51,-93.85 3239.85,-92.49"/>
<polygon fill="#63b8ff" stroke="#63b8ff" points="3240.66,-95.89 3249.8,-90.54 3239.32,-89.02 3240.66,-95.89"/>
</a>
</g>
</g>
<!-- Node20 -->
<g id="Node000020" class="node">
<title>Node20</title>
<g id="a_Node000020"><a xlink:href="_macros_8hpp.html" target="_top" xlink:title=" ">
<polygon fill="white" stroke="#666666" points="1226,-90.5 1108,-90.5 1108,-60.5 1226,-60.5 1226,-90.5"/>
<text text-anchor="start" x="1116" y="-78.5" font-family="Helvetica,sans-Serif" font-size="10.00">Hermes/_base/OsApi</text>
<text text-anchor="middle" x="1167" y="-67.5" font-family="Helvetica,sans-Serif" font-size="10.00">/Macros.hpp</text>
</a>
</g>
</g>
<!-- Node12&#45;&gt;Node20 -->
<g id="edge19_Node000012_Node000020" class="edge">
<title>Node12&#45;&gt;Node20</title>
<g id="a_edge19_Node000012_Node000020"><a xlink:title=" ">
<path fill="none" stroke="#63b8ff" d="M2040.9,-146.67C1900.84,-147.38 1538.08,-143.97 1240,-96 1234.66,-95.14 1229.14,-94.05 1223.65,-92.83"/>
<polygon fill="#63b8ff" stroke="#63b8ff" points="1224.36,-89.4 1213.82,-90.51 1222.75,-96.21 1224.36,-89.4"/>
</a>
</g>
</g>
<!-- Node22 -->
<g id="Node000022" class="node">
<title>Node22</title>
<g id="a_Node000022"><a xlink:href="_address_family_enum_8hpp.html" target="_top" xlink:title=" ">
<polygon fill="white" stroke="#666666" points="1458,-90.5 1282,-90.5 1282,-60.5 1458,-60.5 1458,-90.5"/>
<text text-anchor="start" x="1290" y="-78.5" font-family="Helvetica,sans-Serif" font-size="10.00">Hermes/_base/OsApi</text>
<text text-anchor="middle" x="1370" y="-67.5" font-family="Helvetica,sans-Serif" font-size="10.00">/Enums/AddressFamilyEnum.hpp</text>
</a>
</g>
</g>
<!-- Node12&#45;&gt;Node22 -->
<g id="edge22_Node000012_Node000022" class="edge">
<title>Node12&#45;&gt;Node22</title>
<g id="a_edge22_Node000012_Node000022"><a xlink:title=" ">
<path fill="none" stroke="#63b8ff" d="M2040.74,-143.74C1928.24,-138.9 1676.2,-125.53 1466,-96 1458.68,-94.97 1451.08,-93.73 1443.51,-92.38"/>
<polygon fill="#63b8ff" stroke="#63b8ff" points="1444.06,-88.92 1433.59,-90.55 1442.78,-95.81 1444.06,-88.92"/>
</a>
</g>
</g>
<!-- Node23 -->
<g id="Node000023" class="node">
<title>Node23</title>
<g id="a_Node000023"><a xlink:href="_protocol_base_type_enum_8hpp.html" target="_top" xlink:title=" ">
<polygon fill="white" stroke="#666666" points="2133.5,-90.5 1942.5,-90.5 1942.5,-60.5 2133.5,-60.5 2133.5,-90.5"/>
<text text-anchor="start" x="1950.5" y="-78.5" font-family="Helvetica,sans-Serif" font-size="10.00">Hermes/_base/OsApi</text>
<text text-anchor="middle" x="2038" y="-67.5" font-family="Helvetica,sans-Serif" font-size="10.00">/Enums/ProtocolBaseTypeEnum.hpp</text>
</a>
</g>
</g>
<!-- Node12&#45;&gt;Node23 -->
<g id="edge24_Node000012_Node000023" class="edge">
<title>Node12&#45;&gt;Node23</title>
<g id="a_edge24_Node000012_Node000023"><a xlink:title=" ">
<path fill="none" stroke="#63b8ff" d="M2087.45,-131.94C2078.8,-122.23 2067.12,-109.15 2057.29,-98.13"/>
<polygon fill="#63b8ff" stroke="#63b8ff" points="2059.8,-95.68 2050.53,-90.54 2054.57,-100.34 2059.8,-95.68"/>
</a>
</g>
</g>
<!-- Node24 -->
<g id="Node000024" class="node">
<title>Node24</title>
<g id="a_Node000024"><a xlink:href="_socket_shutdown_enum_8hpp.html" target="_top" xlink:title=" ">
<polygon fill="white" stroke="#666666" points="1837.5,-90.5 1652.5,-90.5 1652.5,-60.5 1837.5,-60.5 1837.5,-90.5"/>
<text text-anchor="start" x="1660.5" y="-78.5" font-family="Helvetica,sans-Serif" font-size="10.00">Hermes/_base/OsApi</text>
<text text-anchor="middle" x="1745" y="-67.5" font-family="Helvetica,sans-Serif" font-size="10.00">/Enums/SocketShutdownEnum.hpp</text>
</a>
</g>
</g>
<!-- Node12&#45;&gt;Node24 -->
<g id="edge26_Node000012_Node000024" class="edge">
<title>Node12&#45;&gt;Node24</title>
<g id="a_edge26_Node000012_Node000024"><a xlink:title=" ">
<path fill="none" stroke="#63b8ff" d="M2040.98,-134.45C1982.38,-122.97 1892.06,-105.29 1826.61,-92.48"/>
<polygon fill="#63b8ff" stroke="#63b8ff" points="1827.22,-89.03 1816.73,-90.54 1825.87,-95.9 1827.22,-89.03"/>
</a>
</g>
</g>
<!-- Node25 -->
<g id="Node000025" class="node">
<title>Node25</title>
<g id="a_Node000025"><a xlink:href="_socket_type_enum_8hpp.html" target="_top" xlink:title=" ">
<polygon fill="white" stroke="#666666" points="1634.5,-90.5 1475.5,-90.5 1475.5,-60.5 1634.5,-60.5 1634.5,-90.5"/>
<text text-anchor="start" x="1483.5" y="-78.5" font-family="Helvetica,sans-Serif" font-size="10.00">Hermes/_base/OsApi</text>
<text text-anchor="middle" x="1555" y="-67.5" font-family="Helvetica,sans-Serif" font-size="10.00">/Enums/SocketTypeEnum.hpp</text>
</a>
</g>
</g>
<!-- Node12&#45;&gt;Node25 -->
<g id="edge28_Node000012_Node000025" class="edge">
<title>Node12&#45;&gt;Node25</title>
<g id="a_edge28_Node000012_Node000025"><a xlink:title=" ">
<path fill="none" stroke="#63b8ff" d="M2040.92,-141.61C1953.56,-134.65 1784.95,-119.42 1643,-96 1636.82,-94.98 1630.42,-93.8 1624.02,-92.54"/>
<polygon fill="#63b8ff" stroke="#63b8ff" points="1624.5,-89.07 1614,-90.5 1623.1,-95.93 1624.5,-89.07"/>
</a>
</g>
</g>
<!-- Node26 -->
<g id="Node000026" class="node">
<title>Node26</title>
<g id="a_Node000026"><a xlink:href="_linux_2_encrypt_status_enum_8hpp.html" target="_top" xlink:title=" ">
<polygon fill="white" stroke="#666666" points="2578,-96 2426,-96 2426,-55 2578,-55 2578,-96"/>
<text text-anchor="start" x="2434" y="-84" font-family="Helvetica,sans-Serif" font-size="10.00">Hermes/_base/OsApi</text>
<text text-anchor="start" x="2434" y="-73" font-family="Helvetica,sans-Serif" font-size="10.00">/Enums/Linux/EncryptStatus</text>
<text text-anchor="middle" x="2502" y="-62" font-family="Helvetica,sans-Serif" font-size="10.00">Enum.hpp</text>
</a>
</g>
</g>
<!-- Node12&#45;&gt;Node26 -->
<g id="edge30_Node000012_Node000026" class="edge">
<title>Node12&#45;&gt;Node26</title>
<g id="a_edge30_Node000012_Node000026"><a xlink:title=" ">
<path fill="none" stroke="#63b8ff" d="M2159.22,-137.91C2220.88,-129.2 2320.47,-114.35 2415.52,-96.23"/>
<polygon fill="#63b8ff" stroke="#63b8ff" points="2416.44,-99.61 2425.6,-94.29 2415.12,-92.74 2416.44,-99.61"/>
</a>
</g>
</g>
<!-- Node27 -->
<g id="Node000027" class="node">
<title>Node27</title>
<g id="a_Node000027"><a xlink:href="_name_info_flags_8hpp.html" target="_top" xlink:title=" ">
<polygon fill="white" stroke="#666666" points="2408,-90.5 2264,-90.5 2264,-60.5 2408,-60.5 2408,-90.5"/>
<text text-anchor="start" x="2272" y="-78.5" font-family="Helvetica,sans-Serif" font-size="10.00">Hermes/_base/OsApi</text>
<text text-anchor="middle" x="2336" y="-67.5" font-family="Helvetica,sans-Serif" font-size="10.00">/Flags/NameInfoFlags.hpp</text>
</a>
</g>
</g>
<!-- Node12&#45;&gt;Node27 -->
<g id="edge31_Node000012_Node000027" class="edge">
<title>Node12&#45;&gt;Node27</title>
<g id="a_edge31_Node000012_Node000027"><a xlink:title=" ">
<path fill="none" stroke="#63b8ff" d="M2147.76,-131.94C2185.58,-120.8 2238.55,-105.2 2278.67,-93.38"/>
<polygon fill="#63b8ff" stroke="#63b8ff" points="2279.71,-96.73 2288.31,-90.54 2277.73,-90.01 2279.71,-96.73"/>
</a>
</g>
</g>
<!-- Node28 -->
<g id="Node000028" class="node">
<title>Node28</title>
<g id="a_Node000028"><a xlink:href="_linux_2_credential_flags_8hpp.html" target="_top" xlink:title=" ">
<polygon fill="white" stroke="#666666" points="2772,-90.5 2596,-90.5 2596,-60.5 2772,-60.5 2772,-90.5"/>
<text text-anchor="start" x="2604" y="-78.5" font-family="Helvetica,sans-Serif" font-size="10.00">Hermes/_base/OsApi</text>
<text text-anchor="middle" x="2684" y="-67.5" font-family="Helvetica,sans-Serif" font-size="10.00">/Flags/Linux/CredentialFlags.hpp</text>
</a>
</g>
</g>
<!-- Node12&#45;&gt;Node28 -->
<g id="edge33_Node000012_Node000028" class="edge">
<title>Node12&#45;&gt;Node28</title>
<g id="a_edge33_Node000012_Node000028"><a xlink:title=" ">
<path fill="none" stroke="#63b8ff" d="M2159.08,-141.78C2250.94,-134.79 2433.43,-119.27 2587,-96 2594.06,-94.93 2601.39,-93.69 2608.71,-92.37"/>
<polygon fill="#63b8ff" stroke="#63b8ff" points="2609.48,-95.79 2618.67,-90.52 2608.2,-88.91 2609.48,-95.79"/>
</a>
</g>
</g>
<!-- Node29 -->
<g id="Node000029" class="node">
<title>Node29</title>
<g id="a_Node000029"><a xlink:href="_linux_2_supported_protocols_flags_8hpp.html" target="_top" xlink:title=" ">
<polygon fill="white" stroke="#666666" points="2963.5,-96 2790.5,-96 2790.5,-55 2963.5,-55 2963.5,-96"/>
<text text-anchor="start" x="2798.5" y="-84" font-family="Helvetica,sans-Serif" font-size="10.00">Hermes/_base/OsApi</text>
<text text-anchor="start" x="2798.5" y="-73" font-family="Helvetica,sans-Serif" font-size="10.00">/Flags/Linux/SupportedProtocols</text>
<text text-anchor="middle" x="2877" y="-62" font-family="Helvetica,sans-Serif" font-size="10.00">Flags.hpp</text>
</a>
</g>
</g>
<!-- Node12&#45;&gt;Node29 -->
<g id="edge34_Node000012_Node000029" class="edge">
<title>Node12&#45;&gt;Node29</title>
<g id="a_edge34_Node000012_Node000029"><a xlink:title=" ">
<path fill="none" stroke="#63b8ff" d="M2159.02,-144.19C2275.77,-140.07 2544.53,-127.85 2780.34,-95.99"/>
<polygon fill="#63b8ff" stroke="#63b8ff" points="2781.05,-99.42 2790.48,-94.6 2780.1,-92.49 2781.05,-99.42"/>
</a>
</g>
</g>
<!-- Node30 -->
<g id="Node000030" class="node">
<title>Node30</title>
<g id="a_Node000030"><a xlink:href="_linux_2_s_channel_cred_flags_8hpp.html" target="_top" xlink:title=" ">
<polygon fill="white" stroke="#666666" points="3176,-90.5 2982,-90.5 2982,-60.5 3176,-60.5 3176,-90.5"/>
<text text-anchor="start" x="2990" y="-78.5" font-family="Helvetica,sans-Serif" font-size="10.00">Hermes/_base/OsApi</text>
<text text-anchor="middle" x="3079" y="-67.5" font-family="Helvetica,sans-Serif" font-size="10.00">/Flags/Linux/SChannelCredFlags.hpp</text>
</a>
</g>
</g>
<!-- Node12&#45;&gt;Node30 -->
<g id="edge35_Node000012_Node000030" class="edge">
<title>Node12&#45;&gt;Node30</title>
<g id="a_edge35_Node000012_Node000030"><a xlink:title=" ">
<path fill="none" stroke="#63b8ff" d="M2159.17,-145.11C2300.31,-142.46 2667.66,-132.32 2972,-96 2980.72,-94.96 2989.8,-93.65 2998.82,-92.21"/>
<polygon fill="#63b8ff" stroke="#63b8ff" points="2999.67,-95.62 3008.97,-90.54 2998.53,-88.71 2999.67,-95.62"/>
</a>
</g>
</g>
<!-- Node19 -->
<g id="Node000019" class="node">
<title>Node19</title>
<g id="a_Node000019"><a xlink:title=" ">
<polygon fill="#e0e0e0" stroke="#999999" points="3332,-19 3282,-19 3282,0 3332,0 3332,-19"/>
<text text-anchor="middle" x="3307" y="-7" font-family="Helvetica,sans-Serif" font-size="10.00">cstdint</text>
</a>
</g>
</g>
<!-- Node18&#45;&gt;Node19 -->
<g id="edge18_Node000018_Node000019" class="edge">
<title>Node18&#45;&gt;Node19</title>
<g id="a_edge18_Node000018_Node000019"><a xlink:title=" ">
<path fill="none" stroke="#63b8ff" d="M3307,-60.3C3307,-51.2 3307,-39.29 3307,-29.4"/>
<polygon fill="#63b8ff" stroke="#63b8ff" points="3310.5,-29.34 3307,-19.34 3303.5,-29.34 3310.5,-29.34"/>
</a>
</g>
</g>
<!-- Node20&#45;&gt;Node13 -->
<g id="edge21_Node000020_Node000013" class="edge">
<title>Node20&#45;&gt;Node13</title>
<g id="a_edge21_Node000020_Node000013"><a xlink:title=" ">
<path fill="none" stroke="#63b8ff" d="M1211.55,-60.45C1248.09,-48.93 1299.19,-32.82 1333.38,-22.04"/>
<polygon fill="#63b8ff" stroke="#63b8ff" points="1334.5,-25.36 1342.98,-19.02 1332.39,-18.69 1334.5,-25.36"/>
</a>
</g>
</g>
<!-- Node21 -->
<g id="Node000021" class="node">
<title>Node21</title>
<g id="a_Node000021"><a xlink:title=" ">
<polygon fill="#e0e0e0" stroke="#999999" points="1203.5,-19 1130.5,-19 1130.5,0 1203.5,0 1203.5,-19"/>
<text text-anchor="middle" x="1167" y="-7" font-family="Helvetica,sans-Serif" font-size="10.00">string_view</text>
</a>
</g>
</g>
<!-- Node20&#45;&gt;Node21 -->
<g id="edge20_Node000020_Node000021" class="edge">
<title>Node20&#45;&gt;Node21</title>
<g id="a_edge20_Node000020_Node000021"><a xlink:title=" ">
<path fill="none" stroke="#63b8ff" d="M1167,-60.3C1167,-51.2 1167,-39.29 1167,-29.4"/>
<polygon fill="#63b8ff" stroke="#63b8ff" points="1170.5,-29.34 1167,-19.34 1163.5,-29.34 1170.5,-29.34"/>
</a>
</g>
</g>
<!-- Node22&#45;&gt;Node13 -->
<g id="edge23_Node000022_Node000013" class="edge">
<title>Node22&#45;&gt;Node13</title>
<g id="a_edge23_Node000022_Node000013"><a xlink:title=" ">
<path fill="none" stroke="#63b8ff" d="M1370,-60.3C1370,-51.2 1370,-39.29 1370,-29.4"/>
<polygon fill="#63b8ff" stroke="#63b8ff" points="1373.5,-29.34 1370,-19.34 1366.5,-29.34 1373.5,-29.34"/>
</a>
</g>
</g>
<!-- Node23&#45;&gt;Node14 -->
<g id="edge25_Node000023_Node000014" class="edge">
<title>Node23&#45;&gt;Node14</title>
<g id="a_edge25_Node000023_Node000014"><a xlink:title=" ">
<path fill="none" stroke="#63b8ff" d="M2051.76,-60.3C2061.43,-50.32 2074.37,-36.96 2084.42,-26.59"/>
<polygon fill="#63b8ff" stroke="#63b8ff" points="2086.99,-28.96 2091.43,-19.34 2081.96,-24.09 2086.99,-28.96"/>
</a>
</g>
</g>
<!-- Node24&#45;&gt;Node13 -->
<g id="edge27_Node000024_Node000013" class="edge">
<title>Node24&#45;&gt;Node13</title>
<g id="a_edge27_Node000024_Node000013"><a xlink:title=" ">
<path fill="none" stroke="#63b8ff" d="M1672.88,-60.46C1662.85,-58.58 1652.68,-56.71 1643,-55 1564.82,-41.16 1473.74,-26.63 1419.05,-18.08"/>
<polygon fill="#63b8ff" stroke="#63b8ff" points="1419.36,-14.59 1408.94,-16.5 1418.28,-21.5 1419.36,-14.59"/>
</a>
</g>
</g>
<!-- Node25&#45;&gt;Node13 -->
<g id="edge29_Node000025_Node000013" class="edge">
<title>Node25&#45;&gt;Node13</title>
<g id="a_edge29_Node000025_Node000013"><a xlink:title=" ">
<path fill="none" stroke="#63b8ff" d="M1514.4,-60.45C1481.39,-49.03 1435.33,-33.1 1404.18,-22.32"/>
<polygon fill="#63b8ff" stroke="#63b8ff" points="1405.22,-18.98 1394.62,-19.02 1402.93,-25.59 1405.22,-18.98"/>
</a>
</g>
</g>
<!-- Node27&#45;&gt;Node16 -->
<g id="edge32_Node000027_Node000016" class="edge">
<title>Node27&#45;&gt;Node16</title>
<g id="a_edge32_Node000027_Node000016"><a xlink:title=" ">
<path fill="none" stroke="#63b8ff" d="M2390.72,-60.46C2399.48,-58.46 2408.46,-56.56 2417,-55 2531.54,-34.06 2668.8,-19.83 2733.21,-13.78"/>
<polygon fill="#63b8ff" stroke="#63b8ff" points="2733.64,-17.26 2743.28,-12.85 2733,-10.29 2733.64,-17.26"/>
</a>
</g>
</g>
<!-- Node31&#45;&gt;Node6 -->
<g id="edge44_Node000031_Node000006" class="edge">
<title>Node31&#45;&gt;Node6</title>
<g id="a_edge44_Node000031_Node000006"><a xlink:title=" ">
<path fill="none" stroke="#63b8ff" d="M444.98,-197.96C499.17,-187.17 563.84,-172.41 572,-162 580.22,-151.5 580.45,-142.32 572,-132 520.59,-69.22 468.77,-125.05 393,-96 389.06,-94.49 385.04,-92.53 381.23,-90.44"/>
<polygon fill="#63b8ff" stroke="#63b8ff" points="382.73,-87.25 372.35,-85.14 379.14,-93.26 382.73,-87.25"/>
</a>
</g>
</g>
<!-- Node31&#45;&gt;Node32 -->
<g id="edge37_Node000031_Node000032" class="edge">
<title>Node31&#45;&gt;Node32</title>
<g id="a_edge37_Node000031_Node000032"><a xlink:title=" ">
<path fill="none" stroke="#63b8ff" d="M315.89,-197.95C271.77,-186.29 209.84,-169.91 169.09,-159.13"/>
<polygon fill="#63b8ff" stroke="#63b8ff" points="169.77,-155.69 159.21,-156.52 167.98,-162.46 169.77,-155.69"/>
</a>
</g>
</g>
<!-- Node35 -->
<g id="Node000035" class="node">
<title>Node35</title>
<g id="a_Node000035"><a xlink:title=" ">
<polygon fill="#e0e0e0" stroke="#999999" points="494,-156.5 452,-156.5 452,-137.5 494,-137.5 494,-156.5"/>
<text text-anchor="middle" x="473" y="-144.5" font-family="Helvetica,sans-Serif" font-size="10.00">array</text>
</a>
</g>
</g>
<!-- Node31&#45;&gt;Node35 -->
<g id="edge40_Node000031_Node000035" class="edge">
<title>Node31&#45;&gt;Node35</title>
<g id="a_edge40_Node000031_Node000035"><a xlink:title=" ">
<path fill="none" stroke="#63b8ff" d="M391.82,-197.95C409.18,-187.27 432.94,-172.65 450.27,-161.98"/>
<polygon fill="#63b8ff" stroke="#63b8ff" points="452.48,-164.74 459.16,-156.52 448.81,-158.78 452.48,-164.74"/>
</a>
</g>
</g>
<!-- Node31&#45;&gt;Node36 -->
<g id="edge41_Node000031_Node000036" class="edge">
<title>Node31&#45;&gt;Node36</title>
<g id="a_edge41_Node000031_Node000036"><a xlink:title=" ">
<path fill="none" stroke="#63b8ff" d="M291.42,-205.56C226.65,-198.8 132.42,-185.75 53,-162 51.37,-161.51 49.71,-160.96 48.05,-160.35"/>
<polygon fill="#63b8ff" stroke="#63b8ff" points="49.32,-157.09 38.74,-156.54 46.67,-163.57 49.32,-157.09"/>
</a>
</g>
</g>
<!-- Node37 -->
<g id="Node000037" class="node">
<title>Node37</title>
<g id="a_Node000037"><a xlink:title=" ">
<polygon fill="#e0e0e0" stroke="#999999" points="563.5,-156.5 512.5,-156.5 512.5,-137.5 563.5,-137.5 563.5,-156.5"/>
<text text-anchor="middle" x="538" y="-144.5" font-family="Helvetica,sans-Serif" font-size="10.00">variant</text>
</a>
</g>
</g>
<!-- Node31&#45;&gt;Node37 -->
<g id="edge42_Node000031_Node000037" class="edge">
<title>Node31&#45;&gt;Node37</title>
<g id="a_edge42_Node000031_Node000037"><a xlink:title=" ">
<path fill="none" stroke="#63b8ff" d="M407.5,-197.9C434.33,-188.02 470.92,-174.4 503,-162 504.41,-161.45 505.85,-160.89 507.31,-160.32"/>
<polygon fill="#63b8ff" stroke="#63b8ff" points="508.92,-163.45 516.93,-156.52 506.35,-156.94 508.92,-163.45"/>
</a>
</g>
</g>
<!-- Node31&#45;&gt;Node38 -->
<g id="edge43_Node000031_Node000038" class="edge">
<title>Node31&#45;&gt;Node38</title>
<g id="a_edge43_Node000031_Node000038"><a xlink:title=" ">
<path fill="none" stroke="#63b8ff" d="M446.38,-197.98C492.95,-188.98 553.24,-176.31 606,-162 608.62,-161.29 611.32,-160.51 614.02,-159.69"/>
<polygon fill="#63b8ff" stroke="#63b8ff" points="615.24,-162.98 623.71,-156.62 613.12,-156.3 615.24,-162.98"/>
</a>
</g>
</g>
<!-- Node39 -->
<g id="Node000039" class="node">
<title>Node39</title>
<g id="a_Node000039"><a xlink:title=" ">
<polygon fill="#e0e0e0" stroke="#999999" points="260,-156.5 210,-156.5 210,-137.5 260,-137.5 260,-156.5"/>
<text text-anchor="middle" x="235" y="-144.5" font-family="Helvetica,sans-Serif" font-size="10.00">format</text>
</a>
</g>
</g>
<!-- Node31&#45;&gt;Node39 -->
<g id="edge45_Node000031_Node000039" class="edge">
<title>Node31&#45;&gt;Node39</title>
<g id="a_edge45_Node000031_Node000039"><a xlink:title=" ">
<path fill="none" stroke="#63b8ff" d="M339.59,-197.95C316.51,-186.93 284.62,-171.7 262.14,-160.96"/>
<polygon fill="#63b8ff" stroke="#63b8ff" points="263.37,-157.67 252.83,-156.52 260.35,-163.99 263.37,-157.67"/>
</a>
</g>
</g>
<!-- Node40 -->
<g id="Node000040" class="node">
<title>Node40</title>
<g id="a_Node000040"><a xlink:title=" ">
<polygon fill="#e0e0e0" stroke="#999999" points="433.5,-162 278.5,-162 278.5,-132 433.5,-132 433.5,-162"/>
<text text-anchor="start" x="286.5" y="-150" font-family="Helvetica,sans-Serif" font-size="10.00">Hermes/Endpoint/IpEndpoint</text>
<text text-anchor="middle" x="356" y="-139" font-family="Helvetica,sans-Serif" font-size="10.00">/IpAddress.tpp</text>
</a>
</g>
</g>
<!-- Node31&#45;&gt;Node40 -->
<g id="edge46_Node000031_Node000040" class="edge">
<title>Node31&#45;&gt;Node40</title>
<g id="a_edge46_Node000031_Node000040"><a xlink:title=" ">
<path fill="none" stroke="#63b8ff" d="M366.11,-197.8C364.58,-190.26 362.66,-180.78 360.9,-172.13"/>
<polygon fill="#63b8ff" stroke="#63b8ff" points="364.3,-171.27 358.88,-162.16 357.44,-172.66 364.3,-171.27"/>
</a>
</g>
</g>
<!-- Node33 -->
<g id="Node000033" class="node">
<title>Node33</title>
<g id="a_Node000033"><a xlink:title=" ">
<polygon fill="#e0e0e0" stroke="#999999" points="113.5,-85 68.5,-85 68.5,-66 113.5,-66 113.5,-85"/>
<text text-anchor="middle" x="91" y="-73" font-family="Helvetica,sans-Serif" font-size="10.00">utility</text>
</a>
</g>
</g>
<!-- Node32&#45;&gt;Node33 -->
<g id="edge38_Node000032_Node000033" class="edge">
<title>Node32&#45;&gt;Node33</title>
<g id="a_edge38_Node000032_Node000033"><a xlink:title=" ">
<path fill="none" stroke="#63b8ff" d="M122.59,-137.48C117.03,-126.74 107.33,-108.03 100.15,-94.16"/>
<polygon fill="#63b8ff" stroke="#63b8ff" points="103.16,-92.36 95.45,-85.09 96.94,-95.58 103.16,-92.36"/>
</a>
</g>
</g>
<!-- Node34 -->
<g id="Node000034" class="node">
<title>Node34</title>
<g id="a_Node000034"><a xlink:title=" ">
<polygon fill="#e0e0e0" stroke="#999999" points="196.5,-85 131.5,-85 131.5,-66 196.5,-66 196.5,-85"/>
<text text-anchor="middle" x="164" y="-73" font-family="Helvetica,sans-Serif" font-size="10.00">functional</text>
</a>
</g>
</g>
<!-- Node32&#45;&gt;Node34 -->
<g id="edge39_Node000032_Node000034" class="edge">
<title>Node32&#45;&gt;Node34</title>
<g id="a_edge39_Node000032_Node000034"><a xlink:title=" ">
<path fill="none" stroke="#63b8ff" d="M131.54,-137.48C137.25,-126.74 147.21,-108.03 154.6,-94.16"/>
<polygon fill="#63b8ff" stroke="#63b8ff" points="157.82,-95.56 159.43,-85.09 151.64,-92.27 157.82,-95.56"/>
</a>
</g>
</g>
<!-- Node43&#45;&gt;Node3 -->
<g id="edge53_Node000043_Node000003" class="edge">
<title>Node43&#45;&gt;Node3</title>
<g id="a_edge53_Node000043_Node000003"><a xlink:title=" ">
<path fill="none" stroke="#63b8ff" d="M880.5,-269.37C857.93,-259.87 821,-244.32 792.02,-232.11"/>
<polygon fill="#63b8ff" stroke="#63b8ff" points="793.1,-228.77 782.52,-228.12 790.38,-235.22 793.1,-228.77"/>
</a>
</g>
</g>
<!-- Node43&#45;&gt;Node4 -->
<g id="edge54_Node000043_Node000004" class="edge">
<title>Node43&#45;&gt;Node4</title>
<g id="a_edge54_Node000043_Node000004"><a xlink:title=" ">
<path fill="none" stroke="#63b8ff" d="M892.93,-269.47C873.97,-249.44 826.13,-198.87 798.52,-169.69"/>
<polygon fill="#63b8ff" stroke="#63b8ff" points="800.72,-166.93 791.31,-162.07 795.64,-171.74 800.72,-166.93"/>
</a>
</g>
</g>
<!-- Node43&#45;&gt;Node9 -->
<g id="edge56_Node000043_Node000009" class="edge">
<title>Node43&#45;&gt;Node9</title>
<g id="a_edge56_Node000043_Node000009"><a xlink:title=" ">
<path fill="none" stroke="#63b8ff" d="M941.05,-269.49C964.33,-262.4 992.13,-249.8 1008,-228 1037.05,-188.09 1033.89,-126.08 1030.01,-95.24"/>
<polygon fill="#63b8ff" stroke="#63b8ff" points="1033.43,-94.46 1028.55,-85.06 1026.51,-95.45 1033.43,-94.46"/>
</a>
</g>
</g>
<!-- Node43&#45;&gt;Node12 -->
<g id="edge55_Node000043_Node000012" class="edge">
<title>Node43&#45;&gt;Node12</title>
<g id="a_edge55_Node000043_Node000012"><a xlink:title=" ">
<path fill="none" stroke="#63b8ff" d="M947.18,-269.46C958.54,-267.52 970.69,-265.56 982,-264 1377.4,-209.38 1854.71,-167.99 2030.59,-153.55"/>
<polygon fill="#63b8ff" stroke="#63b8ff" points="2031.06,-157.03 2040.74,-152.72 2030.49,-150.05 2031.06,-157.03"/>
</a>
</g>
</g>
<!-- Node44 -->
<g id="Node000044" class="node">
<title>Node44</title>
<g id="a_Node000044"><a xlink:title=" ">
<polygon fill="#e0e0e0" stroke="#999999" points="931,-222.5 871,-222.5 871,-203.5 931,-203.5 931,-222.5"/>
<text text-anchor="middle" x="901" y="-210.5" font-family="Helvetica,sans-Serif" font-size="10.00">concepts</text>
</a>
</g>
</g>
<!-- Node43&#45;&gt;Node44 -->
<g id="edge57_Node000043_Node000044" class="edge">
<title>Node43&#45;&gt;Node44</title>
<g id="a_edge57_Node000043_Node000044"><a xlink:title=" ">
<path fill="none" stroke="#63b8ff" d="M901,-269.37C901,-260.16 901,-245.29 901,-233.27"/>
<polygon fill="#63b8ff" stroke="#63b8ff" points="904.5,-232.91 901,-222.91 897.5,-232.91 904.5,-232.91"/>
</a>
</g>
</g>
<!-- Node45 -->
<g id="Node000045" class="node">
<title>Node45</title>
<g id="a_Node000045"><a xlink:title=" ">
<polygon fill="#e0e0e0" stroke="#999999" points="999,-222.5 949,-222.5 949,-203.5 999,-203.5 999,-222.5"/>
<text text-anchor="middle" x="974" y="-210.5" font-family="Helvetica,sans-Serif" font-size="10.00">ranges</text>
</a>
</g>
</g>
<!-- Node43&#45;&gt;Node45 -->
<g id="edge58_Node000043_Node000045" class="edge">
<title>Node43&#45;&gt;Node45</title>
<g id="a_edge58_Node000043_Node000045"><a xlink:title=" ">
<path fill="none" stroke="#63b8ff" d="M910.85,-269.37C922.43,-259.21 941.88,-242.16 956.14,-229.65"/>
<polygon fill="#63b8ff" stroke="#63b8ff" points="958.63,-232.13 963.84,-222.91 954.02,-226.87 958.63,-232.13"/>
</a>
</g>
</g>
</g>
</svg>
