<?xml version="1.0" encoding="UTF-8" standalone="no"?>
<!DOCTYPE svg PUBLIC "-//W3C//DTD SVG 1.1//EN"
 "http://www.w3.org/Graphics/SVG/1.1/DTD/svg11.dtd">
<!-- Generated by graphviz version 2.43.0 (0)
 -->
<!-- Title: include/Hermes/Socket/Sync/_base/Accept/DefaultAcceptPolicy.hpp Pages: 1 -->
<svg width="3096pt" height="456pt"
 viewBox="0.00 0.00 3095.50 456.00" xmlns="http://www.w3.org/2000/svg" xmlns:xlink="http://www.w3.org/1999/xlink">
<g id="graph0" class="graph" transform="scale(1 1) rotate(0) translate(4 452)">
<title>include/Hermes/Socket/Sync/_base/Accept/DefaultAcceptPolicy.hpp</title>
<!-- Node1 -->
<g id="Node000001" class="node">
<title>Node1</title>
<g id="a_Node000001"><a xlink:title=" ">
<polygon fill="#999999" stroke="#666666" points="1806,-448 1624,-448 1624,-407 1806,-407 1806,-448"/>
<text text-anchor="start" x="1632" y="-436" font-family="Helvetica,sans-Serif" font-size="10.00">include/Hermes/Socket</text>
<text text-anchor="start" x="1632" y="-425" font-family="Helvetica,sans-Serif" font-size="10.00">/Sync/_base/Accept/DefaultAccept</text>
<text text-anchor="middle" x="1715" y="-414" font-family="Helvetica,sans-Serif" font-size="10.00">Policy.hpp</text>
</a>
</g>
</g>
<!-- Node2 -->
<g id="Node000002" class="node">
<title>Node2</title>
<g id="a_Node000002"><a xlink:href="_default_socket_data_8hpp.html" target="_top" xlink:title=" ">
<polygon fill="white" stroke="#666666" points="1901,-365.5 1769,-365.5 1769,-335.5 1901,-335.5 1901,-365.5"/>
<text text-anchor="start" x="1777" y="-353.5" font-family="Helvetica,sans-Serif" font-size="10.00">Hermes/Socket/Data</text>
<text text-anchor="middle" x="1835" y="-342.5" font-family="Helvetica,sans-Serif" font-size="10.00">/DefaultSocketData.hpp</text>
</a>
</g>
</g>
<!-- Node1&#45;&gt;Node2 -->
<g id="edge1_Node000001_Node000002" class="edge">
<title>Node1&#45;&gt;Node2</title>
<g id="a_edge1_Node000001_Node000002"><a xlink:title=" ">
<path fill="none" stroke="#63b8ff" d="M1746.22,-406.99C1763.84,-395.98 1785.8,-382.25 1803.48,-371.2"/>
<polygon fill="#63b8ff" stroke="#63b8ff" points="1805.66,-373.97 1812.28,-365.7 1801.95,-368.03 1805.66,-373.97"/>
</a>
</g>
</g>
<!-- Node5 -->
<g id="Node000005" class="node">
<title>Node5</title>
<g id="a_Node000005"><a xlink:href="_connection_error_enum_8hpp.html" target="_top" xlink:title=" ">
<polygon fill="white" stroke="#666666" points="520.5,-162 353.5,-162 353.5,-132 520.5,-132 520.5,-162"/>
<text text-anchor="start" x="361.5" y="-150" font-family="Helvetica,sans-Serif" font-size="10.00">Hermes/_base/ConnectionError</text>
<text text-anchor="middle" x="437" y="-139" font-family="Helvetica,sans-Serif" font-size="10.00">Enum.hpp</text>
</a>
</g>
</g>
<!-- Node1&#45;&gt;Node5 -->
<g id="edge61_Node000001_Node000005" class="edge">
<title>Node1&#45;&gt;Node5</title>
<g id="a_edge61_Node000001_Node000005"><a xlink:title=" ">
<path fill="none" stroke="#63b8ff" d="M1625.39,-406.97C1385.56,-354.71 732.29,-212.35 511.25,-164.18"/>
<polygon fill="#63b8ff" stroke="#63b8ff" points="511.88,-160.74 501.37,-162.03 510.39,-167.58 511.88,-160.74"/>
</a>
</g>
</g>
<!-- Node44 -->
<g id="Node000044" class="node">
<title>Node44</title>
<g id="a_Node000044"><a xlink:href="__base_8hpp.html" target="_top" xlink:title=" ">
<polygon fill="white" stroke="#666666" points="1690.5,-288.5 1547.5,-288.5 1547.5,-269.5 1690.5,-269.5 1690.5,-288.5"/>
<text text-anchor="middle" x="1619" y="-276.5" font-family="Helvetica,sans-Serif" font-size="10.00">Hermes/Socket/_base.hpp</text>
</a>
</g>
</g>
<!-- Node1&#45;&gt;Node44 -->
<g id="edge62_Node000001_Node000044" class="edge">
<title>Node1&#45;&gt;Node44</title>
<g id="a_edge62_Node000001_Node000044"><a xlink:title=" ">
<path fill="none" stroke="#63b8ff" d="M1702.05,-406.74C1683.1,-377.82 1648.11,-324.43 1630.2,-297.1"/>
<polygon fill="#63b8ff" stroke="#63b8ff" points="1633.04,-295.04 1624.63,-288.6 1627.19,-298.88 1633.04,-295.04"/>
</a>
</g>
</g>
<!-- Node48 -->
<g id="Node000048" class="node">
<title>Node48</title>
<g id="a_Node000048"><a xlink:title=" ">
<polygon fill="#e0e0e0" stroke="#999999" points="2075,-371 1919,-371 1919,-330 2075,-330 2075,-371"/>
<text text-anchor="start" x="1927" y="-359" font-family="Helvetica,sans-Serif" font-size="10.00">Hermes/Socket/Sync</text>
<text text-anchor="start" x="1927" y="-348" font-family="Helvetica,sans-Serif" font-size="10.00">/_base/Accept/DefaultAccept</text>
<text text-anchor="middle" x="1997" y="-337" font-family="Helvetica,sans-Serif" font-size="10.00">Policy.tpp</text>
</a>
</g>
</g>
<!-- Node1&#45;&gt;Node48 -->
<g id="edge63_Node000001_Node000048" class="edge">
<title>Node1&#45;&gt;Node48</title>
<g id="a_edge63_Node000001_Node000048"><a xlink:title=" ">
<path fill="none" stroke="#63b8ff" d="M1788.36,-406.99C1826.8,-396.77 1874.04,-384.2 1913.84,-373.62"/>
<polygon fill="#63b8ff" stroke="#63b8ff" points="1914.76,-376.99 1923.52,-371.04 1912.96,-370.23 1914.76,-376.99"/>
</a>
</g>
</g>
<!-- Node3 -->
<g id="Node000003" class="node">
<title>Node3</title>
<g id="a_Node000003"><a xlink:href="_ip_endpoint_8hpp.html" target="_top" xlink:title=" ">
<polygon fill="white" stroke="#666666" points="1937.5,-294 1782.5,-294 1782.5,-264 1937.5,-264 1937.5,-294"/>
<text text-anchor="start" x="1790.5" y="-282" font-family="Helvetica,sans-Serif" font-size="10.00">Hermes/Endpoint/IpEndpoint</text>
<text text-anchor="middle" x="1860" y="-271" font-family="Helvetica,sans-Serif" font-size="10.00">/IpEndpoint.hpp</text>
</a>
</g>
</g>
<!-- Node2&#45;&gt;Node3 -->
<g id="edge2_Node000002_Node000003" class="edge">
<title>Node2&#45;&gt;Node3</title>
<g id="a_edge2_Node000002_Node000003"><a xlink:title=" ">
<path fill="none" stroke="#63b8ff" d="M1840.06,-335.44C1843.35,-326.3 1847.71,-314.16 1851.52,-303.57"/>
<polygon fill="#63b8ff" stroke="#63b8ff" points="1854.86,-304.64 1854.95,-294.04 1848.27,-302.27 1854.86,-304.64"/>
</a>
</g>
</g>
<!-- Node43 -->
<g id="Node000043" class="node">
<title>Node43</title>
<g id="a_Node000043"><a xlink:title=" ">
<polygon fill="#e0e0e0" stroke="#999999" points="2006,-288.5 1956,-288.5 1956,-269.5 2006,-269.5 2006,-288.5"/>
<text text-anchor="middle" x="1981" y="-276.5" font-family="Helvetica,sans-Serif" font-size="10.00">chrono</text>
</a>
</g>
</g>
<!-- Node2&#45;&gt;Node43 -->
<g id="edge52_Node000002_Node000043" class="edge">
<title>Node2&#45;&gt;Node43</title>
<g id="a_edge52_Node000002_Node000043"><a xlink:title=" ">
<path fill="none" stroke="#63b8ff" d="M1864.55,-335.44C1890.7,-322.99 1928.56,-304.96 1953.94,-292.88"/>
<polygon fill="#63b8ff" stroke="#63b8ff" points="1955.48,-296.03 1963,-288.57 1952.47,-289.71 1955.48,-296.03"/>
</a>
</g>
</g>
<!-- Node2&#45;&gt;Node44 -->
<g id="edge53_Node000002_Node000044" class="edge">
<title>Node2&#45;&gt;Node44</title>
<g id="a_edge53_Node000002_Node000044"><a xlink:title=" ">
<path fill="none" stroke="#63b8ff" d="M1791.29,-335.44C1751.4,-322.6 1693.12,-303.85 1655.62,-291.78"/>
<polygon fill="#63b8ff" stroke="#63b8ff" points="1656.22,-288.3 1645.63,-288.57 1654.08,-294.96 1656.22,-288.3"/>
</a>
</g>
</g>
<!-- Node47 -->
<g id="Node000047" class="node">
<title>Node47</title>
<g id="a_Node000047"><a xlink:title=" ">
<polygon fill="#e0e0e0" stroke="#999999" points="2154,-294 2024,-294 2024,-264 2154,-264 2154,-294"/>
<text text-anchor="start" x="2032" y="-282" font-family="Helvetica,sans-Serif" font-size="10.00">Hermes/Socket/Data</text>
<text text-anchor="middle" x="2089" y="-271" font-family="Helvetica,sans-Serif" font-size="10.00">/DefaultSocketData.tpp</text>
</a>
</g>
</g>
<!-- Node2&#45;&gt;Node47 -->
<g id="edge60_Node000002_Node000047" class="edge">
<title>Node2&#45;&gt;Node47</title>
<g id="a_edge60_Node000002_Node000047"><a xlink:title=" ">
<path fill="none" stroke="#63b8ff" d="M1886.4,-335.44C1927.28,-324.25 1984.6,-308.57 2027.84,-296.73"/>
<polygon fill="#63b8ff" stroke="#63b8ff" points="2028.95,-300.06 2037.68,-294.04 2027.11,-293.31 2028.95,-300.06"/>
</a>
</g>
</g>
<!-- Node4 -->
<g id="Node000004" class="node">
<title>Node4</title>
<g id="a_Node000004"><a xlink:href="_endpoint_concept_8hpp.html" target="_top" xlink:title=" ">
<polygon fill="white" stroke="#666666" points="1808,-228 1676,-228 1676,-198 1808,-198 1808,-228"/>
<text text-anchor="start" x="1684" y="-216" font-family="Helvetica,sans-Serif" font-size="10.00">Hermes/Endpoint/_base</text>
<text text-anchor="middle" x="1742" y="-205" font-family="Helvetica,sans-Serif" font-size="10.00">/EndpointConcept.hpp</text>
</a>
</g>
</g>
<!-- Node3&#45;&gt;Node4 -->
<g id="edge3_Node000003_Node000004" class="edge">
<title>Node3&#45;&gt;Node4</title>
<g id="a_edge3_Node000003_Node000004"><a xlink:title=" ">
<path fill="none" stroke="#63b8ff" d="M1834.1,-263.95C1817.27,-254.83 1795.13,-242.82 1776.77,-232.86"/>
<polygon fill="#63b8ff" stroke="#63b8ff" points="1778.29,-229.7 1767.84,-228.01 1774.96,-235.86 1778.29,-229.7"/>
</a>
</g>
</g>
<!-- Node32 -->
<g id="Node000032" class="node">
<title>Node32</title>
<g id="a_Node000032"><a xlink:href="_ip_address_8hpp.html" target="_top" xlink:title=" ">
<polygon fill="white" stroke="#666666" points="2075.5,-228 1920.5,-228 1920.5,-198 2075.5,-198 2075.5,-228"/>
<text text-anchor="start" x="1928.5" y="-216" font-family="Helvetica,sans-Serif" font-size="10.00">Hermes/Endpoint/IpEndpoint</text>
<text text-anchor="middle" x="1998" y="-205" font-family="Helvetica,sans-Serif" font-size="10.00">/IpAddress.hpp</text>
</a>
</g>
</g>
<!-- Node3&#45;&gt;Node32 -->
<g id="edge37_Node000003_Node000032" class="edge">
<title>Node3&#45;&gt;Node32</title>
<g id="a_edge37_Node000003_Node000032"><a xlink:title=" ">
<path fill="none" stroke="#63b8ff" d="M1890.28,-263.95C1910.33,-254.66 1936.81,-242.38 1958.51,-232.32"/>
<polygon fill="#63b8ff" stroke="#63b8ff" points="1960.19,-235.39 1967.79,-228.01 1957.24,-229.04 1960.19,-235.39"/>
</a>
</g>
</g>
<!-- Node33 -->
<g id="Node000033" class="node">
<title>Node33</title>
<g id="a_Node000033"><a xlink:href="_hash_8hpp.html" target="_top" xlink:title=" ">
<polygon fill="white" stroke="#666666" points="1924.5,-156.5 1795.5,-156.5 1795.5,-137.5 1924.5,-137.5 1924.5,-156.5"/>
<text text-anchor="middle" x="1860" y="-144.5" font-family="Helvetica,sans-Serif" font-size="10.00">Hermes/Utils/Hash.hpp</text>
</a>
</g>
</g>
<!-- Node3&#45;&gt;Node33 -->
<g id="edge48_Node000003_Node000033" class="edge">
<title>Node3&#45;&gt;Node33</title>
<g id="a_edge48_Node000003_Node000033"><a xlink:title=" ">
<path fill="none" stroke="#63b8ff" d="M1860,-263.84C1860,-240.34 1860,-193.26 1860,-166.93"/>
<polygon fill="#63b8ff" stroke="#63b8ff" points="1863.5,-166.75 1860,-156.75 1856.5,-166.75 1863.5,-166.75"/>
</a>
</g>
</g>
<!-- Node37 -->
<g id="Node000037" class="node">
<title>Node37</title>
<g id="a_Node000037"><a xlink:title=" ">
<polygon fill="#e0e0e0" stroke="#999999" points="2433,-156.5 2389,-156.5 2389,-137.5 2433,-137.5 2433,-156.5"/>
<text text-anchor="middle" x="2411" y="-144.5" font-family="Helvetica,sans-Serif" font-size="10.00">string</text>
</a>
</g>
</g>
<!-- Node3&#45;&gt;Node37 -->
<g id="edge50_Node000003_Node000037" class="edge">
<title>Node3&#45;&gt;Node37</title>
<g id="a_edge50_Node000003_Node000037"><a xlink:title=" ">
<path fill="none" stroke="#63b8ff" d="M1937.76,-265.26C1940.88,-264.82 1943.97,-264.4 1947,-264 2102.04,-243.57 2150.49,-282.68 2297,-228 2335.82,-213.51 2373.76,-182.57 2394.59,-163.69"/>
<polygon fill="#63b8ff" stroke="#63b8ff" points="2397.23,-166.02 2402.19,-156.65 2392.48,-160.88 2397.23,-166.02"/>
</a>
</g>
</g>
<!-- Node39 -->
<g id="Node000039" class="node">
<title>Node39</title>
<g id="a_Node000039"><a xlink:title=" ">
<polygon fill="#e0e0e0" stroke="#999999" points="2371,-156.5 2315,-156.5 2315,-137.5 2371,-137.5 2371,-156.5"/>
<text text-anchor="middle" x="2343" y="-144.5" font-family="Helvetica,sans-Serif" font-size="10.00">optional</text>
</a>
</g>
</g>
<!-- Node3&#45;&gt;Node39 -->
<g id="edge49_Node000003_Node000039" class="edge">
<title>Node3&#45;&gt;Node39</title>
<g id="a_edge49_Node000003_Node000039"><a xlink:title=" ">
<path fill="none" stroke="#63b8ff" d="M1937.66,-264.46C1991.91,-254.3 2059.08,-240.11 2085,-228 2104.81,-218.74 2104.08,-207.03 2124,-198 2199.1,-163.96 2226.72,-184.67 2306,-162 2308.15,-161.39 2310.34,-160.7 2312.54,-159.98"/>
<polygon fill="#63b8ff" stroke="#63b8ff" points="2313.81,-163.24 2322.07,-156.61 2311.48,-156.64 2313.81,-163.24"/>
</a>
</g>
</g>
<!-- Node42 -->
<g id="Node000042" class="node">
<title>Node42</title>
<g id="a_Node000042"><a xlink:title=" ">
<polygon fill="#e0e0e0" stroke="#999999" points="2287.5,-228 2132.5,-228 2132.5,-198 2287.5,-198 2287.5,-228"/>
<text text-anchor="start" x="2140.5" y="-216" font-family="Helvetica,sans-Serif" font-size="10.00">Hermes/Endpoint/IpEndpoint</text>
<text text-anchor="middle" x="2210" y="-205" font-family="Helvetica,sans-Serif" font-size="10.00">/IpEndpoint.tpp</text>
</a>
</g>
</g>
<!-- Node3&#45;&gt;Node42 -->
<g id="edge51_Node000003_Node000042" class="edge">
<title>Node3&#45;&gt;Node42</title>
<g id="a_edge51_Node000003_Node000042"><a xlink:title=" ">
<path fill="none" stroke="#63b8ff" d="M1936.81,-263.95C1991.86,-253.89 2066.08,-240.32 2123.26,-229.86"/>
<polygon fill="#63b8ff" stroke="#63b8ff" points="2124.16,-233.25 2133.37,-228.01 2122.9,-226.37 2124.16,-233.25"/>
</a>
</g>
</g>
<!-- Node4&#45;&gt;Node5 -->
<g id="edge4_Node000004_Node000005" class="edge">
<title>Node4&#45;&gt;Node5</title>
<g id="a_edge4_Node000004_Node000005"><a xlink:title=" ">
<path fill="none" stroke="#63b8ff" d="M1675.77,-202.88C1660.44,-201.02 1644.17,-199.26 1629,-198 1220.93,-164.22 732.28,-152.79 530.85,-149.34"/>
<polygon fill="#63b8ff" stroke="#63b8ff" points="530.66,-145.84 520.6,-149.17 530.54,-152.84 530.66,-145.84"/>
</a>
</g>
</g>
<!-- Node11 -->
<g id="Node000011" class="node">
<title>Node11</title>
<g id="a_Node000011"><a xlink:href="_os_api_8hpp.html" target="_top" xlink:title=" ">
<polygon fill="white" stroke="#666666" points="1777,-162 1659,-162 1659,-132 1777,-132 1777,-162"/>
<text text-anchor="start" x="1667" y="-150" font-family="Helvetica,sans-Serif" font-size="10.00">Hermes/_base/OsApi</text>
<text text-anchor="middle" x="1718" y="-139" font-family="Helvetica,sans-Serif" font-size="10.00">/OsApi.hpp</text>
</a>
</g>
</g>
<!-- Node4&#45;&gt;Node11 -->
<g id="edge10_Node000004_Node000011" class="edge">
<title>Node4&#45;&gt;Node11</title>
<g id="a_edge10_Node000004_Node000011"><a xlink:title=" ">
<path fill="none" stroke="#63b8ff" d="M1736.67,-197.8C1733.78,-190.09 1730.14,-180.37 1726.83,-171.56"/>
<polygon fill="#63b8ff" stroke="#63b8ff" points="1730.1,-170.3 1723.31,-162.16 1723.55,-172.76 1730.1,-170.3"/>
</a>
</g>
</g>
<!-- Node6 -->
<g id="Node000006" class="node">
<title>Node6</title>
<g id="a_Node000006"><a xlink:title=" ">
<polygon fill="#e0e0e0" stroke="#999999" points="62,-85 0,-85 0,-66 62,-66 62,-85"/>
<text text-anchor="middle" x="31" y="-73" font-family="Helvetica,sans-Serif" font-size="10.00">expected</text>
</a>
</g>
</g>
<!-- Node5&#45;&gt;Node6 -->
<g id="edge5_Node000005_Node000006" class="edge">
<title>Node5&#45;&gt;Node6</title>
<g id="a_edge5_Node000005_Node000006"><a xlink:title=" ">
<path fill="none" stroke="#63b8ff" d="M353.27,-142.12C278.02,-136.87 165.2,-124.59 71,-96 65.68,-94.39 60.2,-92.14 55.06,-89.75"/>
<polygon fill="#63b8ff" stroke="#63b8ff" points="56.24,-86.43 45.73,-85.08 53.11,-92.69 56.24,-86.43"/>
</a>
</g>
</g>
<!-- Node7 -->
<g id="Node000007" class="node">
<title>Node7</title>
<g id="a_Node000007"><a xlink:title=" ">
<polygon fill="#e0e0e0" stroke="#999999" points="512.5,-85 465.5,-85 465.5,-66 512.5,-66 512.5,-85"/>
<text text-anchor="middle" x="489" y="-73" font-family="Helvetica,sans-Serif" font-size="10.00">vector</text>
</a>
</g>
</g>
<!-- Node5&#45;&gt;Node7 -->
<g id="edge6_Node000005_Node000007" class="edge">
<title>Node5&#45;&gt;Node7</title>
<g id="a_edge6_Node000005_Node000007"><a xlink:title=" ">
<path fill="none" stroke="#63b8ff" d="M447.52,-131.94C455.85,-120.81 467.5,-105.24 476.33,-93.43"/>
<polygon fill="#63b8ff" stroke="#63b8ff" points="479.25,-95.37 482.44,-85.27 473.65,-91.18 479.25,-95.37"/>
</a>
</g>
</g>
<!-- Node8 -->
<g id="Node000008" class="node">
<title>Node8</title>
<g id="a_Node000008"><a xlink:title=" ">
<polygon fill="#e0e0e0" stroke="#999999" points="120,-85 80,-85 80,-66 120,-66 120,-85"/>
<text text-anchor="middle" x="100" y="-73" font-family="Helvetica,sans-Serif" font-size="10.00">span</text>
</a>
</g>
</g>
<!-- Node5&#45;&gt;Node8 -->
<g id="edge7_Node000005_Node000008" class="edge">
<title>Node5&#45;&gt;Node8</title>
<g id="a_edge7_Node000005_Node000008"><a xlink:title=" ">
<path fill="none" stroke="#63b8ff" d="M353.31,-142.54C289.55,-137.54 200.67,-125.39 128,-96 124.66,-94.65 121.32,-92.84 118.18,-90.86"/>
<polygon fill="#63b8ff" stroke="#63b8ff" points="120.18,-87.99 109.99,-85.11 116.16,-93.72 120.18,-87.99"/>
</a>
</g>
</g>
<!-- Node9 -->
<g id="Node000009" class="node">
<title>Node9</title>
<g id="a_Node000009"><a xlink:title=" ">
<polygon fill="#e0e0e0" stroke="#999999" points="447.5,-85 322.5,-85 322.5,-66 447.5,-66 447.5,-85"/>
<text text-anchor="middle" x="385" y="-73" font-family="Helvetica,sans-Serif" font-size="10.00">stdexec/execution.hpp</text>
</a>
</g>
</g>
<!-- Node5&#45;&gt;Node9 -->
<g id="edge8_Node000005_Node000009" class="edge">
<title>Node5&#45;&gt;Node9</title>
<g id="a_edge8_Node000005_Node000009"><a xlink:title=" ">
<path fill="none" stroke="#63b8ff" d="M426.48,-131.94C418.15,-120.81 406.5,-105.24 397.67,-93.43"/>
<polygon fill="#63b8ff" stroke="#63b8ff" points="400.35,-91.18 391.56,-85.27 394.75,-95.37 400.35,-91.18"/>
</a>
</g>
</g>
<!-- Node10 -->
<g id="Node000010" class="node">
<title>Node10</title>
<g id="a_Node000010"><a xlink:title=" ">
<polygon fill="#e0e0e0" stroke="#999999" points="304.5,-90.5 137.5,-90.5 137.5,-60.5 304.5,-60.5 304.5,-90.5"/>
<text text-anchor="start" x="145.5" y="-78.5" font-family="Helvetica,sans-Serif" font-size="10.00">Hermes/_base/ConnectionError</text>
<text text-anchor="middle" x="221" y="-67.5" font-family="Helvetica,sans-Serif" font-size="10.00">Enum.tpp</text>
</a>
</g>
</g>
<!-- Node5&#45;&gt;Node10 -->
<g id="edge9_Node000005_Node000010" class="edge">
<title>Node5&#45;&gt;Node10</title>
<g id="a_edge9_Node000005_Node000010"><a xlink:title=" ">
<path fill="none" stroke="#63b8ff" d="M393.29,-131.94C358.89,-120.87 310.8,-105.4 274.17,-93.61"/>
<polygon fill="#63b8ff" stroke="#63b8ff" points="275.24,-90.27 264.65,-90.54 273.09,-96.94 275.24,-90.27"/>
</a>
</g>
</g>
<!-- Node12 -->
<g id="Node000012" class="node">
<title>Node12</title>
<g id="a_Node000012"><a xlink:title=" ">
<polygon fill="#e0e0e0" stroke="#999999" points="1661.5,-19 1584.5,-19 1584.5,0 1661.5,0 1661.5,-19"/>
<text text-anchor="middle" x="1623" y="-7" font-family="Helvetica,sans-Serif" font-size="10.00">sys/socket.h</text>
</a>
</g>
</g>
<!-- Node11&#45;&gt;Node12 -->
<g id="edge11_Node000011_Node000012" class="edge">
<title>Node11&#45;&gt;Node12</title>
<g id="a_edge11_Node000011_Node000012"><a xlink:title=" ">
<path fill="none" stroke="#63b8ff" d="M1658.68,-140.45C1552.23,-130.22 1338.81,-108.28 1328,-96 1315.96,-82.32 1316.11,-68.81 1328,-55 1359.18,-18.77 1498.74,-11.65 1574.2,-10.5"/>
<polygon fill="#63b8ff" stroke="#63b8ff" points="1574.44,-14 1584.4,-10.37 1574.36,-7 1574.44,-14"/>
</a>
</g>
</g>
<!-- Node13 -->
<g id="Node000013" class="node">
<title>Node13</title>
<g id="a_Node000013"><a xlink:title=" ">
<polygon fill="#e0e0e0" stroke="#999999" points="2157,-19 2085,-19 2085,0 2157,0 2157,-19"/>
<text text-anchor="middle" x="2121" y="-7" font-family="Helvetica,sans-Serif" font-size="10.00">netinet/in.h</text>
</a>
</g>
</g>
<!-- Node11&#45;&gt;Node13 -->
<g id="edge12_Node000011_Node000013" class="edge">
<title>Node11&#45;&gt;Node13</title>
<g id="a_edge12_Node000011_Node000013"><a xlink:title=" ">
<path fill="none" stroke="#63b8ff" d="M1777.05,-133.78C1780.41,-133.16 1783.75,-132.56 1787,-132 1898.05,-112.79 1937.85,-147.68 2038,-96 2060.35,-84.47 2059.49,-73.05 2077,-55 2086.17,-45.54 2096.53,-35.06 2104.88,-26.65"/>
<polygon fill="#63b8ff" stroke="#63b8ff" points="2107.61,-28.87 2112.18,-19.32 2102.65,-23.93 2107.61,-28.87"/>
</a>
</g>
</g>
<!-- Node14 -->
<g id="Node000014" class="node">
<title>Node14</title>
<g id="a_Node000014"><a xlink:title=" ">
<polygon fill="#e0e0e0" stroke="#999999" points="2363.5,-85 2294.5,-85 2294.5,-66 2363.5,-66 2363.5,-85"/>
<text text-anchor="middle" x="2329" y="-73" font-family="Helvetica,sans-Serif" font-size="10.00">arpa/inet.h</text>
</a>
</g>
</g>
<!-- Node11&#45;&gt;Node14 -->
<g id="edge13_Node000011_Node000014" class="edge">
<title>Node11&#45;&gt;Node14</title>
<g id="a_edge13_Node000011_Node000014"><a xlink:title=" ">
<path fill="none" stroke="#63b8ff" d="M1777.01,-133.51C1780.38,-132.96 1783.73,-132.45 1787,-132 2007.3,-101.83 2070.5,-150.77 2286,-96 2292.11,-94.45 2298.42,-92.07 2304.27,-89.5"/>
<polygon fill="#63b8ff" stroke="#63b8ff" points="2306.01,-92.55 2313.56,-85.11 2303.02,-86.22 2306.01,-92.55"/>
</a>
</g>
</g>
<!-- Node15 -->
<g id="Node000015" class="node">
<title>Node15</title>
<g id="a_Node000015"><a xlink:title=" ">
<polygon fill="#e0e0e0" stroke="#999999" points="2468.5,-19 2415.5,-19 2415.5,0 2468.5,0 2468.5,-19"/>
<text text-anchor="middle" x="2442" y="-7" font-family="Helvetica,sans-Serif" font-size="10.00">netdb.h</text>
</a>
</g>
</g>
<!-- Node11&#45;&gt;Node15 -->
<g id="edge14_Node000011_Node000015" class="edge">
<title>Node11&#45;&gt;Node15</title>
<g id="a_edge14_Node000011_Node000015"><a xlink:title=" ">
<path fill="none" stroke="#63b8ff" d="M1777,-133.47C1780.38,-132.93 1783.73,-132.43 1787,-132 1916.35,-114.99 2257.07,-155.85 2373,-96 2380.66,-92.04 2411.95,-50.99 2429.65,-27.24"/>
<polygon fill="#63b8ff" stroke="#63b8ff" points="2432.54,-29.21 2435.69,-19.1 2426.92,-25.04 2432.54,-29.21"/>
</a>
</g>
</g>
<!-- Node16 -->
<g id="Node000016" class="node">
<title>Node16</title>
<g id="a_Node000016"><a xlink:title=" ">
<polygon fill="#e0e0e0" stroke="#999999" points="2638,-85 2582,-85 2582,-66 2638,-66 2638,-85"/>
<text text-anchor="middle" x="2610" y="-73" font-family="Helvetica,sans-Serif" font-size="10.00">unistd.h</text>
</a>
</g>
</g>
<!-- Node11&#45;&gt;Node16 -->
<g id="edge15_Node000011_Node000016" class="edge">
<title>Node11&#45;&gt;Node16</title>
<g id="a_edge15_Node000011_Node000016"><a xlink:title=" ">
<path fill="none" stroke="#63b8ff" d="M1777.37,-133.35C1780.62,-132.84 1783.85,-132.39 1787,-132 1960.53,-110.55 2404.27,-141.86 2573,-96 2578.21,-94.58 2583.51,-92.35 2588.42,-89.88"/>
<polygon fill="#63b8ff" stroke="#63b8ff" points="2590.16,-92.92 2597.23,-85.03 2586.78,-86.79 2590.16,-92.92"/>
</a>
</g>
</g>
<!-- Node17 -->
<g id="Node000017" class="node">
<title>Node17</title>
<g id="a_Node000017"><a xlink:href="_types_8hpp.html" target="_top" xlink:title=" ">
<polygon fill="white" stroke="#666666" points="2774,-90.5 2656,-90.5 2656,-60.5 2774,-60.5 2774,-90.5"/>
<text text-anchor="start" x="2664" y="-78.5" font-family="Helvetica,sans-Serif" font-size="10.00">Hermes/_base/OsApi</text>
<text text-anchor="middle" x="2715" y="-67.5" font-family="Helvetica,sans-Serif" font-size="10.00">/Types.hpp</text>
</a>
</g>
</g>
<!-- Node11&#45;&gt;Node17 -->
<g id="edge16_Node000011_Node000017" class="edge">
<title>Node11&#45;&gt;Node17</title>
<g id="a_edge16_Node000011_Node000017"><a xlink:title=" ">
<path fill="none" stroke="#63b8ff" d="M1777.37,-133.33C1780.62,-132.83 1783.85,-132.38 1787,-132 2166.76,-85.82 2269.36,-157.16 2647,-96 2651.82,-95.22 2656.79,-94.21 2661.74,-93.06"/>
<polygon fill="#63b8ff" stroke="#63b8ff" points="2662.97,-96.36 2671.82,-90.54 2661.27,-89.57 2662.97,-96.36"/>
</a>
</g>
</g>
<!-- Node19 -->
<g id="Node000019" class="node">
<title>Node19</title>
<g id="a_Node000019"><a xlink:href="_conversion_and_literals_8hpp.html" target="_top" xlink:title=" ">
<polygon fill="white" stroke="#666666" points="2942,-90.5 2792,-90.5 2792,-60.5 2942,-60.5 2942,-90.5"/>
<text text-anchor="start" x="2800" y="-78.5" font-family="Helvetica,sans-Serif" font-size="10.00">Hermes/_base/OsApi</text>
<text text-anchor="middle" x="2867" y="-67.5" font-family="Helvetica,sans-Serif" font-size="10.00">/ConversionAndLiterals.hpp</text>
</a>
</g>
</g>
<!-- Node11&#45;&gt;Node19 -->
<g id="edge18_Node000011_Node000019" class="edge">
<title>Node11&#45;&gt;Node19</title>
<g id="a_edge18_Node000011_Node000019"><a xlink:title=" ">
<path fill="none" stroke="#63b8ff" d="M1777.37,-133.31C1780.62,-132.82 1783.84,-132.37 1787,-132 2226.87,-79.78 2343.9,-154.35 2783,-96 2789.68,-95.11 2796.61,-93.93 2803.49,-92.59"/>
<polygon fill="#63b8ff" stroke="#63b8ff" points="2804.42,-95.98 2813.51,-90.53 2803.01,-89.12 2804.42,-95.98"/>
</a>
</g>
</g>
<!-- Node21 -->
<g id="Node000021" class="node">
<title>Node21</title>
<g id="a_Node000021"><a xlink:href="_macros_8hpp.html" target="_top" xlink:title=" ">
<polygon fill="white" stroke="#666666" points="2029,-90.5 1911,-90.5 1911,-60.5 2029,-60.5 2029,-90.5"/>
<text text-anchor="start" x="1919" y="-78.5" font-family="Helvetica,sans-Serif" font-size="10.00">Hermes/_base/OsApi</text>
<text text-anchor="middle" x="1970" y="-67.5" font-family="Helvetica,sans-Serif" font-size="10.00">/Macros.hpp</text>
</a>
</g>
</g>
<!-- Node11&#45;&gt;Node21 -->
<g id="edge20_Node000011_Node000021" class="edge">
<title>Node11&#45;&gt;Node21</title>
<g id="a_edge20_Node000011_Node000021"><a xlink:title=" ">
<path fill="none" stroke="#63b8ff" d="M1770.4,-131.97C1807.24,-122.05 1857.68,-108.38 1902,-96 1905.13,-95.12 1908.35,-94.22 1911.59,-93.31"/>
<polygon fill="#63b8ff" stroke="#63b8ff" points="1912.7,-96.63 1921.36,-90.54 1910.79,-89.9 1912.7,-96.63"/>
</a>
</g>
</g>
<!-- Node23 -->
<g id="Node000023" class="node">
<title>Node23</title>
<g id="a_Node000023"><a xlink:href="_address_family_enum_8hpp.html" target="_top" xlink:title=" ">
<polygon fill="white" stroke="#666666" points="1513,-90.5 1337,-90.5 1337,-60.5 1513,-60.5 1513,-90.5"/>
<text text-anchor="start" x="1345" y="-78.5" font-family="Helvetica,sans-Serif" font-size="10.00">Hermes/_base/OsApi</text>
<text text-anchor="middle" x="1425" y="-67.5" font-family="Helvetica,sans-Serif" font-size="10.00">/Enums/AddressFamilyEnum.hpp</text>
</a>
</g>
</g>
<!-- Node11&#45;&gt;Node23 -->
<g id="edge23_Node000011_Node000023" class="edge">
<title>Node11&#45;&gt;Node23</title>
<g id="a_edge23_Node000011_Node000023"><a xlink:title=" ">
<path fill="none" stroke="#63b8ff" d="M1658.71,-131.94C1611.05,-120.63 1544.03,-104.74 1493.98,-92.86"/>
<polygon fill="#63b8ff" stroke="#63b8ff" points="1494.74,-89.45 1484.2,-90.54 1493.13,-96.26 1494.74,-89.45"/>
</a>
</g>
</g>
<!-- Node24 -->
<g id="Node000024" class="node">
<title>Node24</title>
<g id="a_Node000024"><a xlink:href="_protocol_base_type_enum_8hpp.html" target="_top" xlink:title=" ">
<polygon fill="white" stroke="#666666" points="2276.5,-90.5 2085.5,-90.5 2085.5,-60.5 2276.5,-60.5 2276.5,-90.5"/>
<text text-anchor="start" x="2093.5" y="-78.5" font-family="Helvetica,sans-Serif" font-size="10.00">Hermes/_base/OsApi</text>
<text text-anchor="middle" x="2181" y="-67.5" font-family="Helvetica,sans-Serif" font-size="10.00">/Enums/ProtocolBaseTypeEnum.hpp</text>
</a>
</g>
</g>
<!-- Node11&#45;&gt;Node24 -->
<g id="edge25_Node000011_Node000024" class="edge">
<title>Node11&#45;&gt;Node24</title>
<g id="a_edge25_Node000011_Node000024"><a xlink:title=" ">
<path fill="none" stroke="#63b8ff" d="M1777.04,-133.72C1780.41,-133.11 1783.74,-132.54 1787,-132 1912.54,-111.34 1945.21,-115.11 2071,-96 2078.68,-94.83 2086.66,-93.55 2094.65,-92.22"/>
<polygon fill="#63b8ff" stroke="#63b8ff" points="2095.47,-95.64 2104.74,-90.52 2094.3,-88.73 2095.47,-95.64"/>
</a>
</g>
</g>
<!-- Node25 -->
<g id="Node000025" class="node">
<title>Node25</title>
<g id="a_Node000025"><a xlink:href="_socket_shutdown_enum_8hpp.html" target="_top" xlink:title=" ">
<polygon fill="white" stroke="#666666" points="1715.5,-90.5 1530.5,-90.5 1530.5,-60.5 1715.5,-60.5 1715.5,-90.5"/>
<text text-anchor="start" x="1538.5" y="-78.5" font-family="Helvetica,sans-Serif" font-size="10.00">Hermes/_base/OsApi</text>
<text text-anchor="middle" x="1623" y="-67.5" font-family="Helvetica,sans-Serif" font-size="10.00">/Enums/SocketShutdownEnum.hpp</text>
</a>
</g>
</g>
<!-- Node11&#45;&gt;Node25 -->
<g id="edge27_Node000011_Node000025" class="edge">
<title>Node11&#45;&gt;Node25</title>
<g id="a_edge27_Node000011_Node000025"><a xlink:title=" ">
<path fill="none" stroke="#63b8ff" d="M1698.78,-131.94C1684.87,-121.76 1665.88,-107.87 1650.39,-96.54"/>
<polygon fill="#63b8ff" stroke="#63b8ff" points="1652.33,-93.62 1642.2,-90.54 1648.2,-99.27 1652.33,-93.62"/>
</a>
</g>
</g>
<!-- Node26 -->
<g id="Node000026" class="node">
<title>Node26</title>
<g id="a_Node000026"><a xlink:href="_socket_type_enum_8hpp.html" target="_top" xlink:title=" ">
<polygon fill="white" stroke="#666666" points="1892.5,-90.5 1733.5,-90.5 1733.5,-60.5 1892.5,-60.5 1892.5,-90.5"/>
<text text-anchor="start" x="1741.5" y="-78.5" font-family="Helvetica,sans-Serif" font-size="10.00">Hermes/_base/OsApi</text>
<text text-anchor="middle" x="1813" y="-67.5" font-family="Helvetica,sans-Serif" font-size="10.00">/Enums/SocketTypeEnum.hpp</text>
</a>
</g>
</g>
<!-- Node11&#45;&gt;Node26 -->
<g id="edge29_Node000011_Node000026" class="edge">
<title>Node11&#45;&gt;Node26</title>
<g id="a_edge29_Node000011_Node000026"><a xlink:title=" ">
<path fill="none" stroke="#63b8ff" d="M1737.22,-131.94C1751.13,-121.76 1770.12,-107.87 1785.61,-96.54"/>
<polygon fill="#63b8ff" stroke="#63b8ff" points="1787.8,-99.27 1793.8,-90.54 1783.67,-93.62 1787.8,-99.27"/>
</a>
</g>
</g>
<!-- Node27 -->
<g id="Node000027" class="node">
<title>Node27</title>
<g id="a_Node000027"><a xlink:href="_linux_2_encrypt_status_enum_8hpp.html" target="_top" xlink:title=" ">
<polygon fill="white" stroke="#666666" points="683,-96 531,-96 531,-55 683,-55 683,-96"/>
<text text-anchor="start" x="539" y="-84" font-family="Helvetica,sans-Serif" font-size="10.00">Hermes/_base/OsApi</text>
<text text-anchor="start" x="539" y="-73" font-family="Helvetica,sans-Serif" font-size="10.00">/Enums/Linux/EncryptStatus</text>
<text text-anchor="middle" x="607" y="-62" font-family="Helvetica,sans-Serif" font-size="10.00">Enum.hpp</text>
</a>
</g>
</g>
<!-- Node11&#45;&gt;Node27 -->
<g id="edge31_Node000011_Node000027" class="edge">
<title>Node11&#45;&gt;Node27</title>
<g id="a_edge31_Node000011_Node000027"><a xlink:title=" ">
<path fill="none" stroke="#63b8ff" d="M1658.87,-141.15C1621.62,-138.21 1572.52,-134.55 1529,-132 1160.65,-110.44 1062.76,-145.2 693.5,-96.07"/>
<polygon fill="#63b8ff" stroke="#63b8ff" points="693.71,-92.57 683.33,-94.7 692.78,-99.5 693.71,-92.57"/>
</a>
</g>
</g>
<!-- Node28 -->
<g id="Node000028" class="node">
<title>Node28</title>
<g id="a_Node000028"><a xlink:href="_name_info_flags_8hpp.html" target="_top" xlink:title=" ">
<polygon fill="white" stroke="#666666" points="2564,-90.5 2420,-90.5 2420,-60.5 2564,-60.5 2564,-90.5"/>
<text text-anchor="start" x="2428" y="-78.5" font-family="Helvetica,sans-Serif" font-size="10.00">Hermes/_base/OsApi</text>
<text text-anchor="middle" x="2492" y="-67.5" font-family="Helvetica,sans-Serif" font-size="10.00">/Flags/NameInfoFlags.hpp</text>
</a>
</g>
</g>
<!-- Node11&#45;&gt;Node28 -->
<g id="edge32_Node000011_Node000028" class="edge">
<title>Node11&#45;&gt;Node28</title>
<g id="a_edge32_Node000011_Node000028"><a xlink:title=" ">
<path fill="none" stroke="#63b8ff" d="M1777,-133.45C1780.38,-132.92 1783.73,-132.43 1787,-132 2060.28,-96.51 2133.14,-134.6 2406,-96 2412.62,-95.06 2419.48,-93.88 2426.32,-92.56"/>
<polygon fill="#63b8ff" stroke="#63b8ff" points="2427.17,-95.96 2436.27,-90.54 2425.78,-89.1 2427.17,-95.96"/>
</a>
</g>
</g>
<!-- Node29 -->
<g id="Node000029" class="node">
<title>Node29</title>
<g id="a_Node000029"><a xlink:href="_linux_2_credential_flags_8hpp.html" target="_top" xlink:title=" ">
<polygon fill="white" stroke="#666666" points="877,-90.5 701,-90.5 701,-60.5 877,-60.5 877,-90.5"/>
<text text-anchor="start" x="709" y="-78.5" font-family="Helvetica,sans-Serif" font-size="10.00">Hermes/_base/OsApi</text>
<text text-anchor="middle" x="789" y="-67.5" font-family="Helvetica,sans-Serif" font-size="10.00">/Flags/Linux/CredentialFlags.hpp</text>
</a>
</g>
</g>
<!-- Node11&#45;&gt;Node29 -->
<g id="edge34_Node000011_Node000029" class="edge">
<title>Node11&#45;&gt;Node29</title>
<g id="a_edge34_Node000011_Node000029"><a xlink:title=" ">
<path fill="none" stroke="#63b8ff" d="M1658.86,-141.35C1621.6,-138.48 1572.5,-134.83 1529,-132 1243.82,-113.44 1170.51,-131.97 887,-96 879.11,-95 870.9,-93.73 862.74,-92.32"/>
<polygon fill="#63b8ff" stroke="#63b8ff" points="863.3,-88.87 852.84,-90.55 862.06,-95.76 863.3,-88.87"/>
</a>
</g>
</g>
<!-- Node30 -->
<g id="Node000030" class="node">
<title>Node30</title>
<g id="a_Node000030"><a xlink:href="_linux_2_supported_protocols_flags_8hpp.html" target="_top" xlink:title=" ">
<polygon fill="white" stroke="#666666" points="1068.5,-96 895.5,-96 895.5,-55 1068.5,-55 1068.5,-96"/>
<text text-anchor="start" x="903.5" y="-84" font-family="Helvetica,sans-Serif" font-size="10.00">Hermes/_base/OsApi</text>
<text text-anchor="start" x="903.5" y="-73" font-family="Helvetica,sans-Serif" font-size="10.00">/Flags/Linux/SupportedProtocols</text>
<text text-anchor="middle" x="982" y="-62" font-family="Helvetica,sans-Serif" font-size="10.00">Flags.hpp</text>
</a>
</g>
</g>
<!-- Node11&#45;&gt;Node30 -->
<g id="edge35_Node000011_Node000030" class="edge">
<title>Node11&#45;&gt;Node30</title>
<g id="a_edge35_Node000011_Node000030"><a xlink:title=" ">
<path fill="none" stroke="#63b8ff" d="M1658.94,-141.58C1514.89,-130.79 1152.47,-103.46 1078.8,-95.78"/>
<polygon fill="#63b8ff" stroke="#63b8ff" points="1078.86,-92.26 1068.52,-94.58 1078.05,-99.22 1078.86,-92.26"/>
</a>
</g>
</g>
<!-- Node31 -->
<g id="Node000031" class="node">
<title>Node31</title>
<g id="a_Node000031"><a xlink:href="_linux_2_s_channel_cred_flags_8hpp.html" target="_top" xlink:title=" ">
<polygon fill="white" stroke="#666666" points="1281,-90.5 1087,-90.5 1087,-60.5 1281,-60.5 1281,-90.5"/>
<text text-anchor="start" x="1095" y="-78.5" font-family="Helvetica,sans-Serif" font-size="10.00">Hermes/_base/OsApi</text>
<text text-anchor="middle" x="1184" y="-67.5" font-family="Helvetica,sans-Serif" font-size="10.00">/Flags/Linux/SChannelCredFlags.hpp</text>
</a>
</g>
</g>
<!-- Node11&#45;&gt;Node31 -->
<g id="edge36_Node000011_Node000031" class="edge">
<title>Node11&#45;&gt;Node31</title>
<g id="a_edge36_Node000011_Node000031"><a xlink:title=" ">
<path fill="none" stroke="#63b8ff" d="M1658.66,-140.05C1576.71,-131.59 1424.32,-114.99 1295,-96 1287.09,-94.84 1278.87,-93.55 1270.65,-92.21"/>
<polygon fill="#63b8ff" stroke="#63b8ff" points="1271.08,-88.73 1260.64,-90.54 1269.93,-95.63 1271.08,-88.73"/>
</a>
</g>
</g>
<!-- Node18 -->
<g id="Node000018" class="node">
<title>Node18</title>
<g id="a_Node000018"><a xlink:title=" ">
<polygon fill="#e0e0e0" stroke="#999999" points="2752,-19 2678,-19 2678,0 2752,0 2752,-19"/>
<text text-anchor="middle" x="2715" y="-7" font-family="Helvetica,sans-Serif" font-size="10.00">WinSock2.h</text>
</a>
</g>
</g>
<!-- Node17&#45;&gt;Node18 -->
<g id="edge17_Node000017_Node000018" class="edge">
<title>Node17&#45;&gt;Node18</title>
<g id="a_edge17_Node000017_Node000018"><a xlink:title=" ">
<path fill="none" stroke="#63b8ff" d="M2715,-60.3C2715,-51.2 2715,-39.29 2715,-29.4"/>
<polygon fill="#63b8ff" stroke="#63b8ff" points="2718.5,-29.34 2715,-19.34 2711.5,-29.34 2718.5,-29.34"/>
</a>
</g>
</g>
<!-- Node20 -->
<g id="Node000020" class="node">
<title>Node20</title>
<g id="a_Node000020"><a xlink:title=" ">
<polygon fill="#e0e0e0" stroke="#999999" points="2892,-19 2842,-19 2842,0 2892,0 2892,-19"/>
<text text-anchor="middle" x="2867" y="-7" font-family="Helvetica,sans-Serif" font-size="10.00">cstdint</text>
</a>
</g>
</g>
<!-- Node19&#45;&gt;Node20 -->
<g id="edge19_Node000019_Node000020" class="edge">
<title>Node19&#45;&gt;Node20</title>
<g id="a_edge19_Node000019_Node000020"><a xlink:title=" ">
<path fill="none" stroke="#63b8ff" d="M2867,-60.3C2867,-51.2 2867,-39.29 2867,-29.4"/>
<polygon fill="#63b8ff" stroke="#63b8ff" points="2870.5,-29.34 2867,-19.34 2863.5,-29.34 2870.5,-29.34"/>
</a>
</g>
</g>
<!-- Node21&#45;&gt;Node12 -->
<g id="edge22_Node000021_Node000012" class="edge">
<title>Node21&#45;&gt;Node12</title>
<g id="a_edge22_Node000021_Node000012"><a xlink:title=" ">
<path fill="none" stroke="#63b8ff" d="M1923.74,-60.42C1916.5,-58.46 1909.07,-56.57 1902,-55 1821.99,-37.22 1727.56,-23.69 1671.62,-16.44"/>
<polygon fill="#63b8ff" stroke="#63b8ff" points="1672,-12.96 1661.64,-15.16 1671.11,-19.9 1672,-12.96"/>
</a>
</g>
</g>
<!-- Node22 -->
<g id="Node000022" class="node">
<title>Node22</title>
<g id="a_Node000022"><a xlink:title=" ">
<polygon fill="#e0e0e0" stroke="#999999" points="2006.5,-19 1933.5,-19 1933.5,0 2006.5,0 2006.5,-19"/>
<text text-anchor="middle" x="1970" y="-7" font-family="Helvetica,sans-Serif" font-size="10.00">string_view</text>
</a>
</g>
</g>
<!-- Node21&#45;&gt;Node22 -->
<g id="edge21_Node000021_Node000022" class="edge">
<title>Node21&#45;&gt;Node22</title>
<g id="a_edge21_Node000021_Node000022"><a xlink:title=" ">
<path fill="none" stroke="#63b8ff" d="M1970,-60.3C1970,-51.2 1970,-39.29 1970,-29.4"/>
<polygon fill="#63b8ff" stroke="#63b8ff" points="1973.5,-29.34 1970,-19.34 1966.5,-29.34 1973.5,-29.34"/>
</a>
</g>
</g>
<!-- Node23&#45;&gt;Node12 -->
<g id="edge24_Node000023_Node000012" class="edge">
<title>Node23&#45;&gt;Node12</title>
<g id="a_edge24_Node000023_Node000012"><a xlink:title=" ">
<path fill="none" stroke="#63b8ff" d="M1468.45,-60.45C1503.94,-48.98 1553.51,-32.96 1586.86,-22.18"/>
<polygon fill="#63b8ff" stroke="#63b8ff" points="1588.21,-25.42 1596.65,-19.02 1586.06,-18.76 1588.21,-25.42"/>
</a>
</g>
</g>
<!-- Node24&#45;&gt;Node13 -->
<g id="edge26_Node000024_Node000013" class="edge">
<title>Node24&#45;&gt;Node13</title>
<g id="a_edge26_Node000024_Node000013"><a xlink:title=" ">
<path fill="none" stroke="#63b8ff" d="M2167.68,-60.3C2158.42,-50.42 2146.05,-37.22 2136.37,-26.89"/>
<polygon fill="#63b8ff" stroke="#63b8ff" points="2138.68,-24.25 2129.29,-19.34 2133.58,-29.03 2138.68,-24.25"/>
</a>
</g>
</g>
<!-- Node25&#45;&gt;Node12 -->
<g id="edge28_Node000025_Node000012" class="edge">
<title>Node25&#45;&gt;Node12</title>
<g id="a_edge28_Node000025_Node000012"><a xlink:title=" ">
<path fill="none" stroke="#63b8ff" d="M1623,-60.3C1623,-51.2 1623,-39.29 1623,-29.4"/>
<polygon fill="#63b8ff" stroke="#63b8ff" points="1626.5,-29.34 1623,-19.34 1619.5,-29.34 1626.5,-29.34"/>
</a>
</g>
</g>
<!-- Node26&#45;&gt;Node12 -->
<g id="edge30_Node000026_Node000012" class="edge">
<title>Node26&#45;&gt;Node12</title>
<g id="a_edge30_Node000026_Node000012"><a xlink:title=" ">
<path fill="none" stroke="#63b8ff" d="M1771.3,-60.45C1737.4,-49.03 1690.09,-33.1 1658.1,-22.32"/>
<polygon fill="#63b8ff" stroke="#63b8ff" points="1658.88,-18.89 1648.29,-19.02 1656.65,-25.53 1658.88,-18.89"/>
</a>
</g>
</g>
<!-- Node28&#45;&gt;Node15 -->
<g id="edge33_Node000028_Node000015" class="edge">
<title>Node28&#45;&gt;Node15</title>
<g id="a_edge33_Node000028_Node000015"><a xlink:title=" ">
<path fill="none" stroke="#63b8ff" d="M2480.9,-60.3C2473.34,-50.61 2463.28,-37.74 2455.29,-27.51"/>
<polygon fill="#63b8ff" stroke="#63b8ff" points="2457.82,-25.07 2448.91,-19.34 2452.31,-29.38 2457.82,-25.07"/>
</a>
</g>
</g>
<!-- Node32&#45;&gt;Node7 -->
<g id="edge45_Node000032_Node000007" class="edge">
<title>Node32&#45;&gt;Node7</title>
<g id="a_edge45_Node000032_Node000007"><a xlink:title=" ">
<path fill="none" stroke="#63b8ff" d="M1920.49,-201.2C1777.98,-181.49 1479.38,-140.89 1375,-132 1185.96,-115.9 703.91,-149.88 522,-96 517.62,-94.7 513.22,-92.7 509.12,-90.46"/>
<polygon fill="#63b8ff" stroke="#63b8ff" points="510.62,-87.28 500.26,-85.04 506.96,-93.25 510.62,-87.28"/>
</a>
</g>
</g>
<!-- Node32&#45;&gt;Node33 -->
<g id="edge38_Node000032_Node000033" class="edge">
<title>Node32&#45;&gt;Node33</title>
<g id="a_edge38_Node000032_Node000033"><a xlink:title=" ">
<path fill="none" stroke="#63b8ff" d="M1967.72,-197.95C1943.83,-186.88 1910.8,-171.56 1887.64,-160.82"/>
<polygon fill="#63b8ff" stroke="#63b8ff" points="1888.91,-157.55 1878.37,-156.52 1885.96,-163.9 1888.91,-157.55"/>
</a>
</g>
</g>
<!-- Node36 -->
<g id="Node000036" class="node">
<title>Node36</title>
<g id="a_Node000036"><a xlink:title=" ">
<polygon fill="#e0e0e0" stroke="#999999" points="1985,-156.5 1943,-156.5 1943,-137.5 1985,-137.5 1985,-156.5"/>
<text text-anchor="middle" x="1964" y="-144.5" font-family="Helvetica,sans-Serif" font-size="10.00">array</text>
</a>
</g>
</g>
<!-- Node32&#45;&gt;Node36 -->
<g id="edge41_Node000032_Node000036" class="edge">
<title>Node32&#45;&gt;Node36</title>
<g id="a_edge41_Node000032_Node000036"><a xlink:title=" ">
<path fill="none" stroke="#63b8ff" d="M1990.45,-197.8C1985.47,-188.41 1978.88,-176.02 1973.53,-165.95"/>
<polygon fill="#63b8ff" stroke="#63b8ff" points="1976.48,-164.03 1968.7,-156.84 1970.3,-167.32 1976.48,-164.03"/>
</a>
</g>
</g>
<!-- Node32&#45;&gt;Node37 -->
<g id="edge42_Node000032_Node000037" class="edge">
<title>Node32&#45;&gt;Node37</title>
<g id="a_edge42_Node000032_Node000037"><a xlink:title=" ">
<path fill="none" stroke="#63b8ff" d="M2075.68,-203.07C2178.85,-191.02 2351.45,-170.12 2380,-162 2381.64,-161.53 2383.3,-160.99 2384.97,-160.4"/>
<polygon fill="#63b8ff" stroke="#63b8ff" points="2386.33,-163.63 2394.28,-156.63 2383.7,-157.14 2386.33,-163.63"/>
</a>
</g>
</g>
<!-- Node38 -->
<g id="Node000038" class="node">
<title>Node38</title>
<g id="a_Node000038"><a xlink:title=" ">
<polygon fill="#e0e0e0" stroke="#999999" points="2054.5,-156.5 2003.5,-156.5 2003.5,-137.5 2054.5,-137.5 2054.5,-156.5"/>
<text text-anchor="middle" x="2029" y="-144.5" font-family="Helvetica,sans-Serif" font-size="10.00">variant</text>
</a>
</g>
</g>
<!-- Node32&#45;&gt;Node38 -->
<g id="edge43_Node000032_Node000038" class="edge">
<title>Node32&#45;&gt;Node38</title>
<g id="a_edge43_Node000032_Node000038"><a xlink:title=" ">
<path fill="none" stroke="#63b8ff" d="M2004.88,-197.8C2009.43,-188.41 2015.43,-176.02 2020.31,-165.95"/>
<polygon fill="#63b8ff" stroke="#63b8ff" points="2023.51,-167.37 2024.72,-156.84 2017.21,-164.32 2023.51,-167.37"/>
</a>
</g>
</g>
<!-- Node32&#45;&gt;Node39 -->
<g id="edge44_Node000032_Node000039" class="edge">
<title>Node32&#45;&gt;Node39</title>
<g id="a_edge44_Node000032_Node000039"><a xlink:title=" ">
<path fill="none" stroke="#63b8ff" d="M2075.54,-199.81C2163.1,-185.99 2294.9,-164.97 2306,-162 2308.3,-161.39 2310.65,-160.68 2312.99,-159.92"/>
<polygon fill="#63b8ff" stroke="#63b8ff" points="2314.22,-163.2 2322.5,-156.59 2311.9,-156.6 2314.22,-163.2"/>
</a>
</g>
</g>
<!-- Node40 -->
<g id="Node000040" class="node">
<title>Node40</title>
<g id="a_Node000040"><a xlink:title=" ">
<polygon fill="#e0e0e0" stroke="#999999" points="2123,-156.5 2073,-156.5 2073,-137.5 2123,-137.5 2123,-156.5"/>
<text text-anchor="middle" x="2098" y="-144.5" font-family="Helvetica,sans-Serif" font-size="10.00">format</text>
</a>
</g>
</g>
<!-- Node32&#45;&gt;Node40 -->
<g id="edge46_Node000032_Node000040" class="edge">
<title>Node32&#45;&gt;Node40</title>
<g id="a_edge46_Node000032_Node000040"><a xlink:title=" ">
<path fill="none" stroke="#63b8ff" d="M2020.19,-197.8C2036.8,-187.17 2059.4,-172.7 2075.97,-162.1"/>
<polygon fill="#63b8ff" stroke="#63b8ff" points="2077.94,-165 2084.47,-156.66 2074.16,-159.1 2077.94,-165"/>
</a>
</g>
</g>
<!-- Node41 -->
<g id="Node000041" class="node">
<title>Node41</title>
<g id="a_Node000041"><a xlink:title=" ">
<polygon fill="#e0e0e0" stroke="#999999" points="2296.5,-162 2141.5,-162 2141.5,-132 2296.5,-132 2296.5,-162"/>
<text text-anchor="start" x="2149.5" y="-150" font-family="Helvetica,sans-Serif" font-size="10.00">Hermes/Endpoint/IpEndpoint</text>
<text text-anchor="middle" x="2219" y="-139" font-family="Helvetica,sans-Serif" font-size="10.00">/IpAddress.tpp</text>
</a>
</g>
</g>
<!-- Node32&#45;&gt;Node41 -->
<g id="edge47_Node000032_Node000041" class="edge">
<title>Node32&#45;&gt;Node41</title>
<g id="a_edge47_Node000032_Node000041"><a xlink:title=" ">
<path fill="none" stroke="#63b8ff" d="M2046.5,-197.95C2080.18,-188.2 2125.22,-175.16 2160.84,-164.84"/>
<polygon fill="#63b8ff" stroke="#63b8ff" points="2161.98,-168.16 2170.61,-162.01 2160.03,-161.43 2161.98,-168.16"/>
</a>
</g>
</g>
<!-- Node34 -->
<g id="Node000034" class="node">
<title>Node34</title>
<g id="a_Node000034"><a xlink:title=" ">
<polygon fill="#e0e0e0" stroke="#999999" points="3004.5,-85 2959.5,-85 2959.5,-66 3004.5,-66 3004.5,-85"/>
<text text-anchor="middle" x="2982" y="-73" font-family="Helvetica,sans-Serif" font-size="10.00">utility</text>
</a>
</g>
</g>
<!-- Node33&#45;&gt;Node34 -->
<g id="edge39_Node000033_Node000034" class="edge">
<title>Node33&#45;&gt;Node34</title>
<g id="a_edge39_Node000033_Node000034"><a xlink:title=" ">
<path fill="none" stroke="#63b8ff" d="M1899.01,-137.47C1910.25,-135.33 1922.56,-133.28 1934,-132 2158.75,-106.91 2734.85,-162.49 2951,-96 2955.05,-94.75 2959.1,-92.83 2962.87,-90.67"/>
<polygon fill="#63b8ff" stroke="#63b8ff" points="2965.03,-93.44 2971.51,-85.06 2961.21,-87.57 2965.03,-93.44"/>
</a>
</g>
</g>
<!-- Node35 -->
<g id="Node000035" class="node">
<title>Node35</title>
<g id="a_Node000035"><a xlink:title=" ">
<polygon fill="#e0e0e0" stroke="#999999" points="3087.5,-85 3022.5,-85 3022.5,-66 3087.5,-66 3087.5,-85"/>
<text text-anchor="middle" x="3055" y="-73" font-family="Helvetica,sans-Serif" font-size="10.00">functional</text>
</a>
</g>
</g>
<!-- Node33&#45;&gt;Node35 -->
<g id="edge40_Node000033_Node000035" class="edge">
<title>Node33&#45;&gt;Node35</title>
<g id="a_edge40_Node000033_Node000035"><a xlink:title=" ">
<path fill="none" stroke="#63b8ff" d="M1899,-137.46C1910.25,-135.31 1922.56,-133.26 1934,-132 2172.68,-105.6 2780.67,-152.76 3014,-96 3019.99,-94.54 3026.14,-92.16 3031.8,-89.55"/>
<polygon fill="#63b8ff" stroke="#63b8ff" points="3033.37,-92.68 3040.74,-85.07 3030.23,-86.42 3033.37,-92.68"/>
</a>
</g>
</g>
<!-- Node44&#45;&gt;Node4 -->
<g id="edge54_Node000044_Node000004" class="edge">
<title>Node44&#45;&gt;Node4</title>
<g id="a_edge54_Node000044_Node000004"><a xlink:title=" ">
<path fill="none" stroke="#63b8ff" d="M1635.59,-269.37C1653.53,-260.03 1682.7,-244.86 1705.96,-232.75"/>
<polygon fill="#63b8ff" stroke="#63b8ff" points="1707.62,-235.84 1714.87,-228.12 1704.38,-229.63 1707.62,-235.84"/>
</a>
</g>
</g>
<!-- Node44&#45;&gt;Node5 -->
<g id="edge55_Node000044_Node000005" class="edge">
<title>Node44&#45;&gt;Node5</title>
<g id="a_edge55_Node000044_Node000005"><a xlink:title=" ">
<path fill="none" stroke="#63b8ff" d="M1547.28,-270.11C1343.24,-247.67 759.52,-183.47 530.67,-158.3"/>
<polygon fill="#63b8ff" stroke="#63b8ff" points="531.02,-154.82 520.7,-157.21 530.26,-161.78 531.02,-154.82"/>
</a>
</g>
</g>
<!-- Node44&#45;&gt;Node9 -->
<g id="edge57_Node000044_Node000009" class="edge">
<title>Node44&#45;&gt;Node9</title>
<g id="a_edge57_Node000044_Node000009"><a xlink:title=" ">
<path fill="none" stroke="#63b8ff" d="M1558.5,-269.45C1351.39,-240.06 671.79,-142.36 456,-96 445.2,-93.68 433.61,-90.71 422.98,-87.78"/>
<polygon fill="#63b8ff" stroke="#63b8ff" points="423.72,-84.35 413.15,-85.02 421.83,-91.09 423.72,-84.35"/>
</a>
</g>
</g>
<!-- Node44&#45;&gt;Node11 -->
<g id="edge56_Node000044_Node000011" class="edge">
<title>Node44&#45;&gt;Node11</title>
<g id="a_edge56_Node000044_Node000011"><a xlink:title=" ">
<path fill="none" stroke="#63b8ff" d="M1623.37,-269.13C1631.09,-253.85 1648.14,-221.91 1667,-198 1674.96,-187.91 1684.83,-177.79 1693.77,-169.33"/>
<polygon fill="#63b8ff" stroke="#63b8ff" points="1696.34,-171.72 1701.3,-162.36 1691.59,-166.58 1696.34,-171.72"/>
</a>
</g>
</g>
<!-- Node45 -->
<g id="Node000045" class="node">
<title>Node45</title>
<g id="a_Node000045"><a xlink:title=" ">
<polygon fill="#e0e0e0" stroke="#999999" points="1552,-222.5 1492,-222.5 1492,-203.5 1552,-203.5 1552,-222.5"/>
<text text-anchor="middle" x="1522" y="-210.5" font-family="Helvetica,sans-Serif" font-size="10.00">concepts</text>
</a>
</g>
</g>
<!-- Node44&#45;&gt;Node45 -->
<g id="edge58_Node000044_Node000045" class="edge">
<title>Node44&#45;&gt;Node45</title>
<g id="a_edge58_Node000044_Node000045"><a xlink:title=" ">
<path fill="none" stroke="#63b8ff" d="M1605.92,-269.37C1589.94,-258.82 1562.67,-240.84 1543.57,-228.23"/>
<polygon fill="#63b8ff" stroke="#63b8ff" points="1545.46,-225.28 1535.18,-222.7 1541.6,-231.13 1545.46,-225.28"/>
</a>
</g>
</g>
<!-- Node46 -->
<g id="Node000046" class="node">
<title>Node46</title>
<g id="a_Node000046"><a xlink:title=" ">
<polygon fill="#e0e0e0" stroke="#999999" points="1620,-222.5 1570,-222.5 1570,-203.5 1620,-203.5 1620,-222.5"/>
<text text-anchor="middle" x="1595" y="-210.5" font-family="Helvetica,sans-Serif" font-size="10.00">ranges</text>
</a>
</g>
</g>
<!-- Node44&#45;&gt;Node46 -->
<g id="edge59_Node000044_Node000046" class="edge">
<title>Node44&#45;&gt;Node46</title>
<g id="a_edge59_Node000044_Node000046"><a xlink:title=" ">
<path fill="none" stroke="#63b8ff" d="M1615.76,-269.37C1612.24,-259.97 1606.5,-244.67 1601.95,-232.53"/>
<polygon fill="#63b8ff" stroke="#63b8ff" points="1605.13,-231.04 1598.34,-222.91 1598.57,-233.5 1605.13,-231.04"/>
</a>
</g>
</g>
</g>
</svg>
