<?xml version="1.0" encoding="UTF-8" standalone="no"?>
<!DOCTYPE svg PUBLIC "-//W3C//DTD SVG 1.1//EN"
 "http://www.w3.org/Graphics/SVG/1.1/DTD/svg11.dtd">
<!-- Generated by graphviz version 2.43.0 (0)
 -->
<!-- Title: include/Hermes/Socket/Data/DefaultSocketData.hpp Pages: 1 -->
<svg width="1085pt" height="412pt"
 viewBox="0.00 0.00 1085.03 412.00" xmlns="http://www.w3.org/2000/svg" xmlns:xlink="http://www.w3.org/1999/xlink">
<g id="graph0" class="graph" transform="scale(1 1) rotate(0) translate(4 408)">
<title>include/Hermes/Socket/Data/DefaultSocketData.hpp</title>
<!-- Node1 -->
<g id="Node000001" class="node">
<title>Node1</title>
<g id="a_Node000001"><a xlink:title=" ">
<polygon fill="#999999" stroke="#666666" points="550.53,-404 392.53,-404 392.53,-374 550.53,-374 550.53,-404"/>
<text text-anchor="start" x="400.53" y="-392" font-family="Helvetica,sans-Serif" font-size="10.00">include/Hermes/Socket</text>
<text text-anchor="middle" x="471.53" y="-381" font-family="Helvetica,sans-Serif" font-size="10.00">/Data/DefaultSocketData.hpp</text>
</a>
</g>
</g>
<!-- Node2 -->
<g id="Node000002" class="node">
<title>Node2</title>
<g id="a_Node000002"><a xlink:href="_default_async_accept_policy_8hpp.html" target="_top" xlink:title=" ">
<polygon fill="white" stroke="#666666" points="164.03,-261 9.03,-261 9.03,-220 164.03,-220 164.03,-261"/>
<text text-anchor="start" x="17.03" y="-249" font-family="Helvetica,sans-Serif" font-size="10.00">include/Hermes/Socket</text>
<text text-anchor="start" x="17.03" y="-238" font-family="Helvetica,sans-Serif" font-size="10.00">/Async/_base/Accept/Default</text>
<text text-anchor="middle" x="86.53" y="-227" font-family="Helvetica,sans-Serif" font-size="10.00">AsyncAcceptPolicy.hpp</text>
</a>
</g>
</g>
<!-- Node1&#45;&gt;Node2 -->
<g id="edge1_Node000001_Node000002" class="edge">
<title>Node1&#45;&gt;Node2</title>
<g id="a_edge1_Node000001_Node000002"><a xlink:title=" ">
<path fill="none" stroke="#63b8ff" d="M382.36,-379.12C309.18,-370.69 212.19,-356.56 177.53,-338 143.43,-319.74 114.9,-283.89 99.31,-261.4"/>
<polygon fill="#63b8ff" stroke="#63b8ff" points="382.19,-382.62 392.52,-380.27 382.98,-375.67 382.19,-382.62"/>
</a>
</g>
</g>
<!-- Node6 -->
<g id="Node000006" class="node">
<title>Node6</title>
<g id="a_Node000006"><a xlink:href="_default_async_connect_policy_8hpp.html" target="_top" xlink:title=" ">
<polygon fill="white" stroke="#666666" points="1077.03,-184 904.03,-184 904.03,-143 1077.03,-143 1077.03,-184"/>
<text text-anchor="start" x="912.03" y="-172" font-family="Helvetica,sans-Serif" font-size="10.00">include/Hermes/Socket</text>
<text text-anchor="start" x="912.03" y="-161" font-family="Helvetica,sans-Serif" font-size="10.00">/Async/_base/Connection</text>
<text text-anchor="middle" x="990.53" y="-150" font-family="Helvetica,sans-Serif" font-size="10.00">/DefaultAsyncConnectPolicy.hpp</text>
</a>
</g>
</g>
<!-- Node1&#45;&gt;Node6 -->
<g id="edge6_Node000001_Node000006" class="edge">
<title>Node1&#45;&gt;Node6</title>
<g id="a_edge6_Node000001_Node000006"><a xlink:title=" ">
<path fill="none" stroke="#63b8ff" d="M560.74,-375.04C604.36,-367.12 657.13,-355.15 702.53,-338 768.24,-313.19 780.3,-297.13 840.53,-261 883.15,-235.43 931.29,-203.99 961.28,-184.1"/>
<polygon fill="#63b8ff" stroke="#63b8ff" points="559.95,-371.63 550.71,-376.82 561.17,-378.52 559.95,-371.63"/>
</a>
</g>
</g>
<!-- Node9 -->
<g id="Node000009" class="node">
<title>Node9</title>
<g id="a_Node000009"><a xlink:href="_default_async_transfer_policy_8hpp.html" target="_top" xlink:title=" ">
<polygon fill="white" stroke="#666666" points="519.03,-184 346.03,-184 346.03,-143 519.03,-143 519.03,-184"/>
<text text-anchor="start" x="354.03" y="-172" font-family="Helvetica,sans-Serif" font-size="10.00">include/Hermes/Socket</text>
<text text-anchor="start" x="354.03" y="-161" font-family="Helvetica,sans-Serif" font-size="10.00">/Async/_base/Transfer</text>
<text text-anchor="middle" x="432.53" y="-150" font-family="Helvetica,sans-Serif" font-size="10.00">/DefaultAsyncTransferPolicy.hpp</text>
</a>
</g>
</g>
<!-- Node1&#45;&gt;Node9 -->
<g id="edge10_Node000001_Node000009" class="edge">
<title>Node1&#45;&gt;Node9</title>
<g id="a_edge10_Node000001_Node000009"><a xlink:title=" ">
<path fill="none" stroke="#63b8ff" d="M464.43,-363.83C457.26,-338.45 446.42,-297.26 440.53,-261 436.25,-234.62 434.2,-203.78 433.26,-184.2"/>
<polygon fill="#63b8ff" stroke="#63b8ff" points="461.14,-365.03 467.26,-373.68 467.86,-363.1 461.14,-365.03"/>
</a>
</g>
</g>
<!-- Node10 -->
<g id="Node000010" class="node">
<title>Node10</title>
<g id="a_Node000010"><a xlink:href="_default_accept_policy_8hpp.html" target="_top" xlink:title=" ">
<polygon fill="white" stroke="#666666" points="368.53,-338 186.53,-338 186.53,-297 368.53,-297 368.53,-338"/>
<text text-anchor="start" x="194.53" y="-326" font-family="Helvetica,sans-Serif" font-size="10.00">include/Hermes/Socket</text>
<text text-anchor="start" x="194.53" y="-315" font-family="Helvetica,sans-Serif" font-size="10.00">/Sync/_base/Accept/DefaultAccept</text>
<text text-anchor="middle" x="277.53" y="-304" font-family="Helvetica,sans-Serif" font-size="10.00">Policy.hpp</text>
</a>
</g>
</g>
<!-- Node1&#45;&gt;Node10 -->
<g id="edge13_Node000001_Node000010" class="edge">
<title>Node1&#45;&gt;Node10</title>
<g id="a_edge13_Node000001_Node000010"><a xlink:title=" ">
<path fill="none" stroke="#63b8ff" d="M422.83,-370.55C395.25,-360.67 360.67,-348.28 332.17,-338.07"/>
<polygon fill="#63b8ff" stroke="#63b8ff" points="421.68,-373.86 432.27,-373.94 424.04,-367.27 421.68,-373.86"/>
</a>
</g>
</g>
<!-- Node14 -->
<g id="Node000014" class="node">
<title>Node14</title>
<g id="a_Node000014"><a xlink:href="_default_connect_policy_8hpp.html" target="_top" xlink:title=" ">
<polygon fill="white" stroke="#666666" points="693.53,-338 549.53,-338 549.53,-297 693.53,-297 693.53,-338"/>
<text text-anchor="start" x="557.53" y="-326" font-family="Helvetica,sans-Serif" font-size="10.00">include/Hermes/Socket</text>
<text text-anchor="start" x="557.53" y="-315" font-family="Helvetica,sans-Serif" font-size="10.00">/Sync/_base/Connection</text>
<text text-anchor="middle" x="621.53" y="-304" font-family="Helvetica,sans-Serif" font-size="10.00">/DefaultConnectPolicy.hpp</text>
</a>
</g>
</g>
<!-- Node1&#45;&gt;Node14 -->
<g id="edge20_Node000001_Node000014" class="edge">
<title>Node1&#45;&gt;Node14</title>
<g id="a_edge20_Node000001_Node000014"><a xlink:title=" ">
<path fill="none" stroke="#63b8ff" d="M511.16,-369.64C532.15,-359.92 557.92,-347.97 579.29,-338.07"/>
<polygon fill="#63b8ff" stroke="#63b8ff" points="509.49,-366.56 501.89,-373.94 512.43,-372.91 509.49,-366.56"/>
</a>
</g>
</g>
<!-- Node18 -->
<g id="Node000018" class="node">
<title>Node18</title>
<g id="a_Node000018"><a xlink:href="_default_transfer_policy_8hpp.html" target="_top" xlink:title=" ">
<polygon fill="white" stroke="#666666" points="593.03,-261 450.03,-261 450.03,-220 593.03,-220 593.03,-261"/>
<text text-anchor="start" x="458.03" y="-249" font-family="Helvetica,sans-Serif" font-size="10.00">include/Hermes/Socket</text>
<text text-anchor="start" x="458.03" y="-238" font-family="Helvetica,sans-Serif" font-size="10.00">/Sync/_base/Transfer</text>
<text text-anchor="middle" x="521.53" y="-227" font-family="Helvetica,sans-Serif" font-size="10.00">/DefaultTransferPolicy.hpp</text>
</a>
</g>
</g>
<!-- Node1&#45;&gt;Node18 -->
<g id="edge27_Node000001_Node000018" class="edge">
<title>Node1&#45;&gt;Node18</title>
<g id="a_edge27_Node000001_Node000018"><a xlink:title=" ">
<path fill="none" stroke="#63b8ff" d="M479.61,-364.34C489.38,-335.71 505.65,-288.03 514.78,-261.27"/>
<polygon fill="#63b8ff" stroke="#63b8ff" points="476.25,-363.36 476.33,-373.95 482.87,-365.62 476.25,-363.36"/>
</a>
</g>
</g>
<!-- Node3 -->
<g id="Node000003" class="node">
<title>Node3</title>
<g id="a_Node000003"><a xlink:href="_async_server_socket_8hpp.html" target="_top" xlink:title=" ">
<polygon fill="white" stroke="#666666" points="178.53,-101.5 12.53,-101.5 12.53,-71.5 178.53,-71.5 178.53,-101.5"/>
<text text-anchor="start" x="20.53" y="-89.5" font-family="Helvetica,sans-Serif" font-size="10.00">include/Hermes/Socket</text>
<text text-anchor="middle" x="95.53" y="-78.5" font-family="Helvetica,sans-Serif" font-size="10.00">/Async/AsyncServerSocket.hpp</text>
</a>
</g>
</g>
<!-- Node2&#45;&gt;Node3 -->
<g id="edge2_Node000002_Node000003" class="edge">
<title>Node2&#45;&gt;Node3</title>
<g id="a_edge2_Node000002_Node000003"><a xlink:title=" ">
<path fill="none" stroke="#63b8ff" d="M34.84,-214.48C23.5,-206.41 12.97,-196.29 6.53,-184 -1.92,-167.86 -2.31,-158.93 6.53,-143 17.14,-123.89 37.35,-110.5 55.84,-101.67"/>
<polygon fill="#63b8ff" stroke="#63b8ff" points="32.92,-217.41 43.19,-220 36.78,-211.56 32.92,-217.41"/>
</a>
</g>
</g>
<!-- Node5 -->
<g id="Node000005" class="node">
<title>Node5</title>
<g id="a_Node000005"><a xlink:href="_tls_async_accept_policy_8hpp.html" target="_top" xlink:title=" ">
<polygon fill="white" stroke="#666666" points="179.03,-184 16.03,-184 16.03,-143 179.03,-143 179.03,-184"/>
<text text-anchor="start" x="24.03" y="-172" font-family="Helvetica,sans-Serif" font-size="10.00">include/Hermes/Socket</text>
<text text-anchor="start" x="24.03" y="-161" font-family="Helvetica,sans-Serif" font-size="10.00">/Async/_base/Accept/TlsAsync</text>
<text text-anchor="middle" x="97.53" y="-150" font-family="Helvetica,sans-Serif" font-size="10.00">AcceptPolicy.hpp</text>
</a>
</g>
</g>
<!-- Node2&#45;&gt;Node5 -->
<g id="edge4_Node000002_Node000005" class="edge">
<title>Node2&#45;&gt;Node5</title>
<g id="a_edge4_Node000002_Node000005"><a xlink:title=" ">
<path fill="none" stroke="#63b8ff" d="M90.9,-209.69C92.17,-201.08 93.52,-191.9 94.66,-184.07"/>
<polygon fill="#63b8ff" stroke="#63b8ff" points="87.41,-209.39 89.42,-219.79 94.34,-210.41 87.41,-209.39"/>
</a>
</g>
</g>
<!-- Node4 -->
<g id="Node000004" class="node">
<title>Node4</title>
<g id="a_Node000004"><a xlink:href="_async_listener_socket_8hpp.html" target="_top" xlink:title=" ">
<polygon fill="white" stroke="#666666" points="182.03,-30 9.03,-30 9.03,0 182.03,0 182.03,-30"/>
<text text-anchor="start" x="17.03" y="-18" font-family="Helvetica,sans-Serif" font-size="10.00">include/Hermes/Socket</text>
<text text-anchor="middle" x="95.53" y="-7" font-family="Helvetica,sans-Serif" font-size="10.00">/Async/AsyncListenerSocket.hpp</text>
</a>
</g>
</g>
<!-- Node3&#45;&gt;Node4 -->
<g id="edge3_Node000003_Node000004" class="edge">
<title>Node3&#45;&gt;Node4</title>
<g id="a_edge3_Node000003_Node000004"><a xlink:title=" ">
<path fill="none" stroke="#63b8ff" d="M95.53,-61.25C95.53,-50.81 95.53,-38.99 95.53,-30.04"/>
<polygon fill="#63b8ff" stroke="#63b8ff" points="92.03,-61.44 95.53,-71.44 99.03,-61.44 92.03,-61.44"/>
</a>
</g>
</g>
<!-- Node5&#45;&gt;Node3 -->
<g id="edge5_Node000005_Node000003" class="edge">
<title>Node5&#45;&gt;Node3</title>
<g id="a_edge5_Node000005_Node000003"><a xlink:title=" ">
<path fill="none" stroke="#63b8ff" d="M96.74,-132.61C96.45,-122.01 96.15,-110.57 95.92,-101.86"/>
<polygon fill="#63b8ff" stroke="#63b8ff" points="93.24,-132.89 97.01,-142.79 100.24,-132.7 93.24,-132.89"/>
</a>
</g>
</g>
<!-- Node7 -->
<g id="Node000007" class="node">
<title>Node7</title>
<g id="a_Node000007"><a xlink:href="_async_client_socket_8hpp.html" target="_top" xlink:title=" ">
<polygon fill="white" stroke="#666666" points="960.03,-30 797.03,-30 797.03,0 960.03,0 960.03,-30"/>
<text text-anchor="start" x="805.03" y="-18" font-family="Helvetica,sans-Serif" font-size="10.00">include/Hermes/Socket</text>
<text text-anchor="middle" x="878.53" y="-7" font-family="Helvetica,sans-Serif" font-size="10.00">/Async/AsyncClientSocket.hpp</text>
</a>
</g>
</g>
<!-- Node6&#45;&gt;Node7 -->
<g id="edge7_Node000006_Node000007" class="edge">
<title>Node6&#45;&gt;Node7</title>
<g id="a_edge7_Node000006_Node000007"><a xlink:title=" ">
<path fill="none" stroke="#63b8ff" d="M988.05,-132.75C985.04,-112.22 978.35,-85.25 963.53,-66 951.32,-50.13 932.51,-38.32 915.69,-30.17"/>
<polygon fill="#63b8ff" stroke="#63b8ff" points="984.6,-133.34 989.32,-142.83 991.55,-132.47 984.6,-133.34"/>
</a>
</g>
</g>
<!-- Node8 -->
<g id="Node000008" class="node">
<title>Node8</title>
<g id="a_Node000008"><a xlink:href="_tls_async_connect_policy_8hpp.html" target="_top" xlink:title=" ">
<polygon fill="white" stroke="#666666" points="954.53,-107 802.53,-107 802.53,-66 954.53,-66 954.53,-107"/>
<text text-anchor="start" x="810.53" y="-95" font-family="Helvetica,sans-Serif" font-size="10.00">include/Hermes/Socket</text>
<text text-anchor="start" x="810.53" y="-84" font-family="Helvetica,sans-Serif" font-size="10.00">/Async/_base/Connection</text>
<text text-anchor="middle" x="878.53" y="-73" font-family="Helvetica,sans-Serif" font-size="10.00">/TlsAsyncConnectPolicy.hpp</text>
</a>
</g>
</g>
<!-- Node6&#45;&gt;Node8 -->
<g id="edge8_Node000006_Node000008" class="edge">
<title>Node6&#45;&gt;Node8</title>
<g id="a_edge8_Node000006_Node000008"><a xlink:title=" ">
<path fill="none" stroke="#63b8ff" d="M953,-137.37C938.31,-127.53 921.71,-116.41 907.91,-107.17"/>
<polygon fill="#63b8ff" stroke="#63b8ff" points="951.14,-140.33 961.4,-142.99 955.04,-134.52 951.14,-140.33"/>
</a>
</g>
</g>
<!-- Node8&#45;&gt;Node7 -->
<g id="edge9_Node000008_Node000007" class="edge">
<title>Node8&#45;&gt;Node7</title>
<g id="a_edge9_Node000008_Node000007"><a xlink:title=" ">
<path fill="none" stroke="#63b8ff" d="M878.53,-55.66C878.53,-46.76 878.53,-37.42 878.53,-30.04"/>
<polygon fill="#63b8ff" stroke="#63b8ff" points="875.03,-55.77 878.53,-65.77 882.03,-55.77 875.03,-55.77"/>
</a>
</g>
</g>
<!-- Node9&#45;&gt;Node3 -->
<g id="edge12_Node000009_Node000003" class="edge">
<title>Node9&#45;&gt;Node3</title>
<g id="a_edge12_Node000009_Node000003"><a xlink:title=" ">
<path fill="none" stroke="#63b8ff" d="M335.65,-140.94C278.72,-128.27 208.4,-112.62 158.61,-101.54"/>
<polygon fill="#63b8ff" stroke="#63b8ff" points="335.23,-144.43 345.75,-143.19 336.75,-137.6 335.23,-144.43"/>
</a>
</g>
</g>
<!-- Node9&#45;&gt;Node7 -->
<g id="edge11_Node000009_Node000007" class="edge">
<title>Node9&#45;&gt;Node7</title>
<g id="a_edge11_Node000009_Node000007"><a xlink:title=" ">
<path fill="none" stroke="#63b8ff" d="M501.87,-139.73C595.28,-109.04 758.72,-55.36 835.89,-30.01"/>
<polygon fill="#63b8ff" stroke="#63b8ff" points="500.63,-136.45 492.22,-142.89 502.81,-143.1 500.63,-136.45"/>
</a>
</g>
</g>
<!-- Node10&#45;&gt;Node2 -->
<g id="edge14_Node000010_Node000002" class="edge">
<title>Node10&#45;&gt;Node2</title>
<g id="a_edge14_Node000010_Node000002"><a xlink:title=" ">
<path fill="none" stroke="#63b8ff" d="M218.37,-293.27C192.05,-282.94 161.42,-270.9 136.3,-261.04"/>
<polygon fill="#63b8ff" stroke="#63b8ff" points="217.26,-296.59 227.85,-296.99 219.82,-290.08 217.26,-296.59"/>
</a>
</g>
</g>
<!-- Node11 -->
<g id="Node000011" class="node">
<title>Node11</title>
<g id="a_Node000011"><a xlink:href="_server_socket_8hpp.html" target="_top" xlink:title=" ">
<polygon fill="white" stroke="#666666" points="328.03,-178.5 197.03,-178.5 197.03,-148.5 328.03,-148.5 328.03,-178.5"/>
<text text-anchor="start" x="205.03" y="-166.5" font-family="Helvetica,sans-Serif" font-size="10.00">include/Hermes/Socket</text>
<text text-anchor="middle" x="262.53" y="-155.5" font-family="Helvetica,sans-Serif" font-size="10.00">/Sync/ServerSocket.hpp</text>
</a>
</g>
</g>
<!-- Node10&#45;&gt;Node11 -->
<g id="edge15_Node000010_Node000011" class="edge">
<title>Node10&#45;&gt;Node11</title>
<g id="a_edge15_Node000010_Node000011"><a xlink:title=" ">
<path fill="none" stroke="#63b8ff" d="M325.12,-291.02C335.73,-282.92 345.58,-272.9 351.53,-261 359.68,-244.7 360.37,-235.93 351.53,-220 340.93,-200.89 320.71,-187.5 302.22,-178.67"/>
<polygon fill="#63b8ff" stroke="#63b8ff" points="323.05,-288.2 316.92,-296.84 327.1,-293.9 323.05,-288.2"/>
</a>
</g>
</g>
<!-- Node13 -->
<g id="Node000013" class="node">
<title>Node13</title>
<g id="a_Node000013"><a xlink:href="_tls_accept_policy_8hpp.html" target="_top" xlink:title=" ">
<polygon fill="white" stroke="#666666" points="343.03,-261 182.03,-261 182.03,-220 343.03,-220 343.03,-261"/>
<text text-anchor="start" x="190.03" y="-249" font-family="Helvetica,sans-Serif" font-size="10.00">include/Hermes/Socket</text>
<text text-anchor="start" x="190.03" y="-238" font-family="Helvetica,sans-Serif" font-size="10.00">/Sync/_base/Accept/TlsAccept</text>
<text text-anchor="middle" x="262.53" y="-227" font-family="Helvetica,sans-Serif" font-size="10.00">Policy.hpp</text>
</a>
</g>
</g>
<!-- Node10&#45;&gt;Node13 -->
<g id="edge17_Node000010_Node000013" class="edge">
<title>Node10&#45;&gt;Node13</title>
<g id="a_edge17_Node000010_Node000013"><a xlink:title=" ">
<path fill="none" stroke="#63b8ff" d="M271.63,-286.98C269.89,-278.28 268.03,-268.98 266.45,-261.07"/>
<polygon fill="#63b8ff" stroke="#63b8ff" points="268.2,-287.68 273.59,-296.79 275.06,-286.3 268.2,-287.68"/>
</a>
</g>
</g>
<!-- Node12 -->
<g id="Node000012" class="node">
<title>Node12</title>
<g id="a_Node000012"><a xlink:href="_listener_socket_8hpp.html" target="_top" xlink:title=" ">
<polygon fill="white" stroke="#666666" points="334.53,-101.5 196.53,-101.5 196.53,-71.5 334.53,-71.5 334.53,-101.5"/>
<text text-anchor="start" x="204.53" y="-89.5" font-family="Helvetica,sans-Serif" font-size="10.00">include/Hermes/Socket</text>
<text text-anchor="middle" x="265.53" y="-78.5" font-family="Helvetica,sans-Serif" font-size="10.00">/Sync/ListenerSocket.hpp</text>
</a>
</g>
</g>
<!-- Node11&#45;&gt;Node12 -->
<g id="edge16_Node000011_Node000012" class="edge">
<title>Node11&#45;&gt;Node12</title>
<g id="a_edge16_Node000011_Node000012"><a xlink:title=" ">
<path fill="none" stroke="#63b8ff" d="M263.51,-138.04C264,-125.95 264.56,-111.79 264.97,-101.54"/>
<polygon fill="#63b8ff" stroke="#63b8ff" points="260,-138.26 263.1,-148.39 266.99,-138.54 260,-138.26"/>
</a>
</g>
</g>
<!-- Node13&#45;&gt;Node5 -->
<g id="edge18_Node000013_Node000005" class="edge">
<title>Node13&#45;&gt;Node5</title>
<g id="a_edge18_Node000013_Node000005"><a xlink:title=" ">
<path fill="none" stroke="#63b8ff" d="M210.22,-215.72C187.76,-205.51 161.84,-193.73 140.53,-184.04"/>
<polygon fill="#63b8ff" stroke="#63b8ff" points="209.06,-219.04 219.61,-219.99 211.96,-212.67 209.06,-219.04"/>
</a>
</g>
</g>
<!-- Node13&#45;&gt;Node11 -->
<g id="edge19_Node000013_Node000011" class="edge">
<title>Node13&#45;&gt;Node11</title>
<g id="a_edge19_Node000013_Node000011"><a xlink:title=" ">
<path fill="none" stroke="#63b8ff" d="M262.53,-209.61C262.53,-199.01 262.53,-187.57 262.53,-178.86"/>
<polygon fill="#63b8ff" stroke="#63b8ff" points="259.03,-209.79 262.53,-219.79 266.03,-209.79 259.03,-209.79"/>
</a>
</g>
</g>
<!-- Node15 -->
<g id="Node000015" class="node">
<title>Node15</title>
<g id="a_Node000015"><a xlink:href="_client_socket_8hpp.html" target="_top" xlink:title=" ">
<polygon fill="white" stroke="#666666" points="665.53,-178.5 537.53,-178.5 537.53,-148.5 665.53,-148.5 665.53,-178.5"/>
<text text-anchor="start" x="545.53" y="-166.5" font-family="Helvetica,sans-Serif" font-size="10.00">include/Hermes/Socket</text>
<text text-anchor="middle" x="601.53" y="-155.5" font-family="Helvetica,sans-Serif" font-size="10.00">/Sync/ClientSocket.hpp</text>
</a>
</g>
</g>
<!-- Node14&#45;&gt;Node15 -->
<g id="edge21_Node000014_Node000015" class="edge">
<title>Node14&#45;&gt;Node15</title>
<g id="a_edge21_Node000014_Node000015"><a xlink:title=" ">
<path fill="none" stroke="#63b8ff" d="M617.6,-286.63C613.31,-253.98 606.6,-203.05 603.38,-178.57"/>
<polygon fill="#63b8ff" stroke="#63b8ff" points="614.18,-287.48 618.96,-296.94 621.12,-286.57 614.18,-287.48"/>
</a>
</g>
</g>
<!-- Node16 -->
<g id="Node000016" class="node">
<title>Node16</title>
<g id="a_Node000016"><a xlink:href="_tls_connect_policy_8hpp.html" target="_top" xlink:title=" ">
<polygon fill="white" stroke="#666666" points="831.53,-261 699.53,-261 699.53,-220 831.53,-220 831.53,-261"/>
<text text-anchor="start" x="707.53" y="-249" font-family="Helvetica,sans-Serif" font-size="10.00">include/Hermes/Socket</text>
<text text-anchor="start" x="707.53" y="-238" font-family="Helvetica,sans-Serif" font-size="10.00">/Sync/_base/Connection</text>
<text text-anchor="middle" x="765.53" y="-227" font-family="Helvetica,sans-Serif" font-size="10.00">/TlsConnectPolicy.hpp</text>
</a>
</g>
</g>
<!-- Node14&#45;&gt;Node16 -->
<g id="edge22_Node000014_Node000016" class="edge">
<title>Node14&#45;&gt;Node16</title>
<g id="a_edge22_Node000014_Node000016"><a xlink:title=" ">
<path fill="none" stroke="#63b8ff" d="M667.98,-292.31C687.39,-282.2 709.66,-270.6 728.01,-261.04"/>
<polygon fill="#63b8ff" stroke="#63b8ff" points="666.24,-289.27 658.99,-296.99 669.48,-295.48 666.24,-289.27"/>
</a>
</g>
</g>
<!-- Node16&#45;&gt;Node6 -->
<g id="edge23_Node000016_Node000006" class="edge">
<title>Node16&#45;&gt;Node6</title>
<g id="a_edge23_Node000016_Node000006"><a xlink:title=" ">
<path fill="none" stroke="#63b8ff" d="M833.6,-216.81C864.96,-206.36 901.8,-194.08 931.91,-184.04"/>
<polygon fill="#63b8ff" stroke="#63b8ff" points="832.44,-213.51 824.06,-219.99 834.66,-220.15 832.44,-213.51"/>
</a>
</g>
</g>
<!-- Node16&#45;&gt;Node8 -->
<g id="edge24_Node000016_Node000008" class="edge">
<title>Node16&#45;&gt;Node8</title>
<g id="a_edge24_Node000016_Node000008"><a xlink:title=" ">
<path fill="none" stroke="#63b8ff" d="M822.19,-214.52C835.13,-206.45 847.66,-196.33 856.53,-184 872.99,-161.12 877.39,-127.95 878.43,-107.07"/>
<polygon fill="#63b8ff" stroke="#63b8ff" points="820.07,-211.71 813.21,-219.79 823.61,-217.75 820.07,-211.71"/>
</a>
</g>
</g>
<!-- Node16&#45;&gt;Node15 -->
<g id="edge25_Node000016_Node000015" class="edge">
<title>Node16&#45;&gt;Node15</title>
<g id="a_edge25_Node000016_Node000015"><a xlink:title=" ">
<path fill="none" stroke="#63b8ff" d="M713.64,-215.77C686.89,-203.54 655.19,-189.04 632.33,-178.58"/>
<polygon fill="#63b8ff" stroke="#63b8ff" points="712.32,-219.01 722.87,-219.99 715.23,-212.65 712.32,-219.01"/>
</a>
</g>
</g>
<!-- Node17 -->
<g id="Node000017" class="node">
<title>Node17</title>
<g id="a_Node000017"><a xlink:href="_tls_connect_state_machine_8hpp.html" target="_top" xlink:title=" ">
<polygon fill="white" stroke="#666666" points="847.03,-184 684.03,-184 684.03,-143 847.03,-143 847.03,-184"/>
<text text-anchor="start" x="692.03" y="-172" font-family="Helvetica,sans-Serif" font-size="10.00">include/Hermes/Socket</text>
<text text-anchor="start" x="692.03" y="-161" font-family="Helvetica,sans-Serif" font-size="10.00">/_base/Connection/TlsConnect</text>
<text text-anchor="middle" x="765.53" y="-150" font-family="Helvetica,sans-Serif" font-size="10.00">StateMachine.hpp</text>
</a>
</g>
</g>
<!-- Node16&#45;&gt;Node17 -->
<g id="edge26_Node000016_Node000017" class="edge">
<title>Node16&#45;&gt;Node17</title>
<g id="a_edge26_Node000016_Node000017"><a xlink:title=" ">
<path fill="none" stroke="#63b8ff" d="M765.53,-209.69C765.53,-201.08 765.53,-191.9 765.53,-184.07"/>
<polygon fill="#63b8ff" stroke="#63b8ff" points="762.03,-209.79 765.53,-219.79 769.03,-209.79 762.03,-209.79"/>
</a>
</g>
</g>
<!-- Node18&#45;&gt;Node11 -->
<g id="edge29_Node000018_Node000011" class="edge">
<title>Node18&#45;&gt;Node11</title>
<g id="a_edge29_Node000018_Node000011"><a xlink:title=" ">
<path fill="none" stroke="#63b8ff" d="M444.52,-217.2C401.3,-204.68 348.68,-189.45 311.16,-178.58"/>
<polygon fill="#63b8ff" stroke="#63b8ff" points="443.58,-220.57 454.16,-219.99 445.53,-213.85 443.58,-220.57"/>
</a>
</g>
</g>
<!-- Node18&#45;&gt;Node15 -->
<g id="edge28_Node000018_Node000015" class="edge">
<title>Node18&#45;&gt;Node15</title>
<g id="a_edge28_Node000018_Node000015"><a xlink:title=" ">
<path fill="none" stroke="#63b8ff" d="M549.91,-212.89C562.14,-201.43 575.96,-188.48 586.21,-178.86"/>
<polygon fill="#63b8ff" stroke="#63b8ff" points="547.45,-210.4 542.55,-219.79 552.24,-215.51 547.45,-210.4"/>
</a>
</g>
</g>
</g>
</svg>
