<?xml version="1.0" encoding="UTF-8" standalone="no"?>
<!DOCTYPE svg PUBLIC "-//W3C//DTD SVG 1.1//EN"
 "http://www.w3.org/Graphics/SVG/1.1/DTD/svg11.dtd">
<!-- Generated by graphviz version 2.43.0 (0)
 -->
<!-- Title: include/Hermes/Socket/Sync/_base/Accept/DefaultAcceptPolicy.hpp Pages: 1 -->
<svg width="2961pt" height="456pt"
 viewBox="0.00 0.00 2960.50 456.00" xmlns="http://www.w3.org/2000/svg" xmlns:xlink="http://www.w3.org/1999/xlink">
<g id="graph0" class="graph" transform="scale(1 1) rotate(0) translate(4 452)">
<title>include/Hermes/Socket/Sync/_base/Accept/DefaultAcceptPolicy.hpp</title>
<!-- Node1 -->
<g id="Node000001" class="node">
<title>Node1</title>
<g id="a_Node000001"><a xlink:title=" ">
<polygon fill="#999999" stroke="#666666" points="1776,-448 1594,-448 1594,-407 1776,-407 1776,-448"/>
<text text-anchor="start" x="1602" y="-436" font-family="Helvetica,sans-Serif" font-size="10.00">include/Hermes/Socket</text>
<text text-anchor="start" x="1602" y="-425" font-family="Helvetica,sans-Serif" font-size="10.00">/Sync/_base/Accept/DefaultAccept</text>
<text text-anchor="middle" x="1685" y="-414" font-family="Helvetica,sans-Serif" font-size="10.00">Policy.hpp</text>
</a>
</g>
</g>
<!-- Node2 -->
<g id="Node000002" class="node">
<title>Node2</title>
<g id="a_Node000002"><a xlink:href="_default_socket_data_8hpp.html" target="_top" xlink:title=" ">
<polygon fill="white" stroke="#666666" points="1876,-365.5 1744,-365.5 1744,-335.5 1876,-335.5 1876,-365.5"/>
<text text-anchor="start" x="1752" y="-353.5" font-family="Helvetica,sans-Serif" font-size="10.00">Hermes/Socket/Data</text>
<text text-anchor="middle" x="1810" y="-342.5" font-family="Helvetica,sans-Serif" font-size="10.00">/DefaultSocketData.hpp</text>
</a>
</g>
</g>
<!-- Node1&#45;&gt;Node2 -->
<g id="edge1_Node000001_Node000002" class="edge">
<title>Node1&#45;&gt;Node2</title>
<g id="a_edge1_Node000001_Node000002"><a xlink:title=" ">
<path fill="none" stroke="#63b8ff" d="M1717.52,-406.99C1736.04,-395.88 1759.17,-382 1777.67,-370.9"/>
<polygon fill="#63b8ff" stroke="#63b8ff" points="1779.56,-373.85 1786.33,-365.7 1775.96,-367.84 1779.56,-373.85"/>
</a>
</g>
</g>
<!-- Node5 -->
<g id="Node000005" class="node">
<title>Node5</title>
<g id="a_Node000005"><a xlink:href="_connection_error_enum_8hpp.html" target="_top" xlink:title=" ">
<polygon fill="white" stroke="#666666" points="520.5,-162 353.5,-162 353.5,-132 520.5,-132 520.5,-162"/>
<text text-anchor="start" x="361.5" y="-150" font-family="Helvetica,sans-Serif" font-size="10.00">Hermes/_base/ConnectionError</text>
<text text-anchor="middle" x="437" y="-139" font-family="Helvetica,sans-Serif" font-size="10.00">Enum.hpp</text>
</a>
</g>
</g>
<!-- Node1&#45;&gt;Node5 -->
<g id="edge59_Node000001_Node000005" class="edge">
<title>Node1&#45;&gt;Node5</title>
<g id="a_edge59_Node000001_Node000005"><a xlink:title=" ">
<path fill="none" stroke="#63b8ff" d="M1597.24,-406.92C1362.94,-354.63 725.84,-212.46 509.79,-164.24"/>
<polygon fill="#63b8ff" stroke="#63b8ff" points="510.34,-160.78 499.82,-162.02 508.82,-167.61 510.34,-160.78"/>
</a>
</g>
</g>
<!-- Node42 -->
<g id="Node000042" class="node">
<title>Node42</title>
<g id="a_Node000042"><a xlink:href="__base_8hpp.html" target="_top" xlink:title=" ">
<polygon fill="white" stroke="#666666" points="1670.5,-288.5 1527.5,-288.5 1527.5,-269.5 1670.5,-269.5 1670.5,-288.5"/>
<text text-anchor="middle" x="1599" y="-276.5" font-family="Helvetica,sans-Serif" font-size="10.00">Hermes/Socket/_base.hpp</text>
</a>
</g>
</g>
<!-- Node1&#45;&gt;Node42 -->
<g id="edge60_Node000001_Node000042" class="edge">
<title>Node1&#45;&gt;Node42</title>
<g id="a_edge60_Node000001_Node000042"><a xlink:title=" ">
<path fill="none" stroke="#63b8ff" d="M1673.4,-406.74C1656.5,-377.94 1625.35,-324.89 1609.25,-297.46"/>
<polygon fill="#63b8ff" stroke="#63b8ff" points="1612.13,-295.45 1604.05,-288.6 1606.09,-298.99 1612.13,-295.45"/>
</a>
</g>
</g>
<!-- Node46 -->
<g id="Node000046" class="node">
<title>Node46</title>
<g id="a_Node000046"><a xlink:title=" ">
<polygon fill="#e0e0e0" stroke="#999999" points="2050,-371 1894,-371 1894,-330 2050,-330 2050,-371"/>
<text text-anchor="start" x="1902" y="-359" font-family="Helvetica,sans-Serif" font-size="10.00">Hermes/Socket/Sync</text>
<text text-anchor="start" x="1902" y="-348" font-family="Helvetica,sans-Serif" font-size="10.00">/_base/Accept/DefaultAccept</text>
<text text-anchor="middle" x="1972" y="-337" font-family="Helvetica,sans-Serif" font-size="10.00">Policy.tpp</text>
</a>
</g>
</g>
<!-- Node1&#45;&gt;Node46 -->
<g id="edge61_Node000001_Node000046" class="edge">
<title>Node1&#45;&gt;Node46</title>
<g id="a_edge61_Node000001_Node000046"><a xlink:title=" ">
<path fill="none" stroke="#63b8ff" d="M1759.66,-406.99C1798.78,-396.77 1846.86,-384.2 1887.36,-373.62"/>
<polygon fill="#63b8ff" stroke="#63b8ff" points="1888.43,-376.96 1897.22,-371.04 1886.66,-370.18 1888.43,-376.96"/>
</a>
</g>
</g>
<!-- Node3 -->
<g id="Node000003" class="node">
<title>Node3</title>
<g id="a_Node000003"><a xlink:href="_ip_endpoint_8hpp.html" target="_top" xlink:title=" ">
<polygon fill="white" stroke="#666666" points="1931.5,-294 1776.5,-294 1776.5,-264 1931.5,-264 1931.5,-294"/>
<text text-anchor="start" x="1784.5" y="-282" font-family="Helvetica,sans-Serif" font-size="10.00">Hermes/Endpoint/IpEndpoint</text>
<text text-anchor="middle" x="1854" y="-271" font-family="Helvetica,sans-Serif" font-size="10.00">/IpEndpoint.hpp</text>
</a>
</g>
</g>
<!-- Node2&#45;&gt;Node3 -->
<g id="edge2_Node000002_Node000003" class="edge">
<title>Node2&#45;&gt;Node3</title>
<g id="a_edge2_Node000002_Node000003"><a xlink:title=" ">
<path fill="none" stroke="#63b8ff" d="M1818.9,-335.44C1824.87,-326.02 1832.85,-313.41 1839.7,-302.59"/>
<polygon fill="#63b8ff" stroke="#63b8ff" points="1842.72,-304.36 1845.11,-294.04 1836.8,-300.62 1842.72,-304.36"/>
</a>
</g>
</g>
<!-- Node41 -->
<g id="Node000041" class="node">
<title>Node41</title>
<g id="a_Node000041"><a xlink:title=" ">
<polygon fill="#e0e0e0" stroke="#999999" points="2000,-288.5 1950,-288.5 1950,-269.5 2000,-269.5 2000,-288.5"/>
<text text-anchor="middle" x="1975" y="-276.5" font-family="Helvetica,sans-Serif" font-size="10.00">chrono</text>
</a>
</g>
</g>
<!-- Node2&#45;&gt;Node41 -->
<g id="edge50_Node000002_Node000041" class="edge">
<title>Node2&#45;&gt;Node41</title>
<g id="a_edge50_Node000002_Node000041"><a xlink:title=" ">
<path fill="none" stroke="#63b8ff" d="M1843.39,-335.44C1873.21,-322.88 1916.49,-304.65 1945.17,-292.57"/>
<polygon fill="#63b8ff" stroke="#63b8ff" points="1946.8,-295.68 1954.66,-288.57 1944.08,-289.22 1946.8,-295.68"/>
</a>
</g>
</g>
<!-- Node2&#45;&gt;Node42 -->
<g id="edge51_Node000002_Node000042" class="edge">
<title>Node2&#45;&gt;Node42</title>
<g id="a_edge51_Node000002_Node000042"><a xlink:title=" ">
<path fill="none" stroke="#63b8ff" d="M1767.3,-335.44C1728.34,-322.6 1671.4,-303.85 1634.77,-291.78"/>
<polygon fill="#63b8ff" stroke="#63b8ff" points="1635.6,-288.37 1625.01,-288.57 1633.41,-295.02 1635.6,-288.37"/>
</a>
</g>
</g>
<!-- Node45 -->
<g id="Node000045" class="node">
<title>Node45</title>
<g id="a_Node000045"><a xlink:title=" ">
<polygon fill="#e0e0e0" stroke="#999999" points="2148,-294 2018,-294 2018,-264 2148,-264 2148,-294"/>
<text text-anchor="start" x="2026" y="-282" font-family="Helvetica,sans-Serif" font-size="10.00">Hermes/Socket/Data</text>
<text text-anchor="middle" x="2083" y="-271" font-family="Helvetica,sans-Serif" font-size="10.00">/DefaultSocketData.tpp</text>
</a>
</g>
</g>
<!-- Node2&#45;&gt;Node45 -->
<g id="edge58_Node000002_Node000045" class="edge">
<title>Node2&#45;&gt;Node45</title>
<g id="a_edge58_Node000002_Node000045"><a xlink:title=" ">
<path fill="none" stroke="#63b8ff" d="M1864.06,-335.4C1871.1,-333.57 1878.22,-331.74 1885,-330 1928.98,-318.73 1978.5,-306.22 2017.02,-296.54"/>
<polygon fill="#63b8ff" stroke="#63b8ff" points="2018.23,-299.84 2027.07,-294.01 2016.52,-293.06 2018.23,-299.84"/>
</a>
</g>
</g>
<!-- Node4 -->
<g id="Node000004" class="node">
<title>Node4</title>
<g id="a_Node000004"><a xlink:href="_endpoint_concept_8hpp.html" target="_top" xlink:title=" ">
<polygon fill="white" stroke="#666666" points="1731,-228 1599,-228 1599,-198 1731,-198 1731,-228"/>
<text text-anchor="start" x="1607" y="-216" font-family="Helvetica,sans-Serif" font-size="10.00">Hermes/Endpoint/_base</text>
<text text-anchor="middle" x="1665" y="-205" font-family="Helvetica,sans-Serif" font-size="10.00">/EndpointConcept.hpp</text>
</a>
</g>
</g>
<!-- Node3&#45;&gt;Node4 -->
<g id="edge3_Node000003_Node000004" class="edge">
<title>Node3&#45;&gt;Node4</title>
<g id="a_edge3_Node000003_Node000004"><a xlink:title=" ">
<path fill="none" stroke="#63b8ff" d="M1812.52,-263.95C1784.09,-254.33 1746.18,-241.49 1715.92,-231.24"/>
<polygon fill="#63b8ff" stroke="#63b8ff" points="1716.97,-227.9 1706.38,-228.01 1714.73,-234.53 1716.97,-227.9"/>
</a>
</g>
</g>
<!-- Node30 -->
<g id="Node000030" class="node">
<title>Node30</title>
<g id="a_Node000030"><a xlink:href="_ip_address_8hpp.html" target="_top" xlink:title=" ">
<polygon fill="white" stroke="#666666" points="2069.5,-228 1914.5,-228 1914.5,-198 2069.5,-198 2069.5,-228"/>
<text text-anchor="start" x="1922.5" y="-216" font-family="Helvetica,sans-Serif" font-size="10.00">Hermes/Endpoint/IpEndpoint</text>
<text text-anchor="middle" x="1992" y="-205" font-family="Helvetica,sans-Serif" font-size="10.00">/IpAddress.hpp</text>
</a>
</g>
</g>
<!-- Node3&#45;&gt;Node30 -->
<g id="edge35_Node000003_Node000030" class="edge">
<title>Node3&#45;&gt;Node30</title>
<g id="a_edge35_Node000003_Node000030"><a xlink:title=" ">
<path fill="none" stroke="#63b8ff" d="M1884.28,-263.95C1904.33,-254.66 1930.81,-242.38 1952.51,-232.32"/>
<polygon fill="#63b8ff" stroke="#63b8ff" points="1954.19,-235.39 1961.79,-228.01 1951.24,-229.04 1954.19,-235.39"/>
</a>
</g>
</g>
<!-- Node31 -->
<g id="Node000031" class="node">
<title>Node31</title>
<g id="a_Node000031"><a xlink:href="_hash_8hpp.html" target="_top" xlink:title=" ">
<polygon fill="white" stroke="#666666" points="1918.5,-156.5 1789.5,-156.5 1789.5,-137.5 1918.5,-137.5 1918.5,-156.5"/>
<text text-anchor="middle" x="1854" y="-144.5" font-family="Helvetica,sans-Serif" font-size="10.00">Hermes/Utils/Hash.hpp</text>
</a>
</g>
</g>
<!-- Node3&#45;&gt;Node31 -->
<g id="edge46_Node000003_Node000031" class="edge">
<title>Node3&#45;&gt;Node31</title>
<g id="a_edge46_Node000003_Node000031"><a xlink:title=" ">
<path fill="none" stroke="#63b8ff" d="M1854,-263.84C1854,-240.34 1854,-193.26 1854,-166.93"/>
<polygon fill="#63b8ff" stroke="#63b8ff" points="1857.5,-166.75 1854,-156.75 1850.5,-166.75 1857.5,-166.75"/>
</a>
</g>
</g>
<!-- Node35 -->
<g id="Node000035" class="node">
<title>Node35</title>
<g id="a_Node000035"><a xlink:title=" ">
<polygon fill="#e0e0e0" stroke="#999999" points="2427,-156.5 2383,-156.5 2383,-137.5 2427,-137.5 2427,-156.5"/>
<text text-anchor="middle" x="2405" y="-144.5" font-family="Helvetica,sans-Serif" font-size="10.00">string</text>
</a>
</g>
</g>
<!-- Node3&#45;&gt;Node35 -->
<g id="edge48_Node000003_Node000035" class="edge">
<title>Node3&#45;&gt;Node35</title>
<g id="a_edge48_Node000003_Node000035"><a xlink:title=" ">
<path fill="none" stroke="#63b8ff" d="M1931.76,-265.26C1934.88,-264.82 1937.97,-264.4 1941,-264 2096.04,-243.57 2144.49,-282.68 2291,-228 2329.82,-213.51 2367.76,-182.57 2388.59,-163.69"/>
<polygon fill="#63b8ff" stroke="#63b8ff" points="2391.23,-166.02 2396.19,-156.65 2386.48,-160.88 2391.23,-166.02"/>
</a>
</g>
</g>
<!-- Node37 -->
<g id="Node000037" class="node">
<title>Node37</title>
<g id="a_Node000037"><a xlink:title=" ">
<polygon fill="#e0e0e0" stroke="#999999" points="2365,-156.5 2309,-156.5 2309,-137.5 2365,-137.5 2365,-156.5"/>
<text text-anchor="middle" x="2337" y="-144.5" font-family="Helvetica,sans-Serif" font-size="10.00">optional</text>
</a>
</g>
</g>
<!-- Node3&#45;&gt;Node37 -->
<g id="edge47_Node000003_Node000037" class="edge">
<title>Node3&#45;&gt;Node37</title>
<g id="a_edge47_Node000003_Node000037"><a xlink:title=" ">
<path fill="none" stroke="#63b8ff" d="M1931.66,-264.46C1985.91,-254.3 2053.08,-240.11 2079,-228 2098.81,-218.74 2098.08,-207.03 2118,-198 2193.1,-163.96 2220.72,-184.67 2300,-162 2302.15,-161.39 2304.34,-160.7 2306.54,-159.98"/>
<polygon fill="#63b8ff" stroke="#63b8ff" points="2307.81,-163.24 2316.07,-156.61 2305.48,-156.64 2307.81,-163.24"/>
</a>
</g>
</g>
<!-- Node40 -->
<g id="Node000040" class="node">
<title>Node40</title>
<g id="a_Node000040"><a xlink:title=" ">
<polygon fill="#e0e0e0" stroke="#999999" points="2281.5,-228 2126.5,-228 2126.5,-198 2281.5,-198 2281.5,-228"/>
<text text-anchor="start" x="2134.5" y="-216" font-family="Helvetica,sans-Serif" font-size="10.00">Hermes/Endpoint/IpEndpoint</text>
<text text-anchor="middle" x="2204" y="-205" font-family="Helvetica,sans-Serif" font-size="10.00">/IpEndpoint.tpp</text>
</a>
</g>
</g>
<!-- Node3&#45;&gt;Node40 -->
<g id="edge49_Node000003_Node000040" class="edge">
<title>Node3&#45;&gt;Node40</title>
<g id="a_edge49_Node000003_Node000040"><a xlink:title=" ">
<path fill="none" stroke="#63b8ff" d="M1930.81,-263.95C1985.86,-253.89 2060.08,-240.32 2117.26,-229.86"/>
<polygon fill="#63b8ff" stroke="#63b8ff" points="2118.16,-233.25 2127.37,-228.01 2116.9,-226.37 2118.16,-233.25"/>
</a>
</g>
</g>
<!-- Node4&#45;&gt;Node5 -->
<g id="edge4_Node000004_Node000005" class="edge">
<title>Node4&#45;&gt;Node5</title>
<g id="a_edge4_Node000004_Node000005"><a xlink:title=" ">
<path fill="none" stroke="#63b8ff" d="M1598.82,-199.12C1595.85,-198.71 1592.9,-198.33 1590,-198 1198.19,-153.16 727.28,-147.72 530.53,-147.59"/>
<polygon fill="#63b8ff" stroke="#63b8ff" points="530.51,-144.09 520.51,-147.59 530.51,-151.09 530.51,-144.09"/>
</a>
</g>
</g>
<!-- Node11 -->
<g id="Node000011" class="node">
<title>Node11</title>
<g id="a_Node000011"><a xlink:href="_os_api_8hpp.html" target="_top" xlink:title=" ">
<polygon fill="white" stroke="#666666" points="1771,-162 1653,-162 1653,-132 1771,-132 1771,-162"/>
<text text-anchor="start" x="1661" y="-150" font-family="Helvetica,sans-Serif" font-size="10.00">Hermes/_base/OsApi</text>
<text text-anchor="middle" x="1712" y="-139" font-family="Helvetica,sans-Serif" font-size="10.00">/OsApi.hpp</text>
</a>
</g>
</g>
<!-- Node4&#45;&gt;Node11 -->
<g id="edge10_Node000004_Node000011" class="edge">
<title>Node4&#45;&gt;Node11</title>
<g id="a_edge10_Node000004_Node000011"><a xlink:title=" ">
<path fill="none" stroke="#63b8ff" d="M1675.43,-197.8C1681.33,-189.76 1688.85,-179.53 1695.53,-170.43"/>
<polygon fill="#63b8ff" stroke="#63b8ff" points="1698.5,-172.3 1701.6,-162.16 1692.86,-168.15 1698.5,-172.3"/>
</a>
</g>
</g>
<!-- Node6 -->
<g id="Node000006" class="node">
<title>Node6</title>
<g id="a_Node000006"><a xlink:title=" ">
<polygon fill="#e0e0e0" stroke="#999999" points="304,-85 242,-85 242,-66 304,-66 304,-85"/>
<text text-anchor="middle" x="273" y="-73" font-family="Helvetica,sans-Serif" font-size="10.00">expected</text>
</a>
</g>
</g>
<!-- Node5&#45;&gt;Node6 -->
<g id="edge5_Node000005_Node000006" class="edge">
<title>Node5&#45;&gt;Node6</title>
<g id="a_edge5_Node000005_Node000006"><a xlink:title=" ">
<path fill="none" stroke="#63b8ff" d="M400.09,-131.9C375.28,-122.23 341.95,-108.87 313,-96 308.47,-93.99 303.7,-91.76 299.1,-89.55"/>
<polygon fill="#63b8ff" stroke="#63b8ff" points="300.53,-86.35 290,-85.12 297.46,-92.64 300.53,-86.35"/>
</a>
</g>
</g>
<!-- Node7 -->
<g id="Node000007" class="node">
<title>Node7</title>
<g id="a_Node000007"><a xlink:title=" ">
<polygon fill="#e0e0e0" stroke="#999999" points="512.5,-85 465.5,-85 465.5,-66 512.5,-66 512.5,-85"/>
<text text-anchor="middle" x="489" y="-73" font-family="Helvetica,sans-Serif" font-size="10.00">vector</text>
</a>
</g>
</g>
<!-- Node5&#45;&gt;Node7 -->
<g id="edge6_Node000005_Node000007" class="edge">
<title>Node5&#45;&gt;Node7</title>
<g id="a_edge6_Node000005_Node000007"><a xlink:title=" ">
<path fill="none" stroke="#63b8ff" d="M447.52,-131.94C455.85,-120.81 467.5,-105.24 476.33,-93.43"/>
<polygon fill="#63b8ff" stroke="#63b8ff" points="479.25,-95.37 482.44,-85.27 473.65,-91.18 479.25,-95.37"/>
</a>
</g>
</g>
<!-- Node8 -->
<g id="Node000008" class="node">
<title>Node8</title>
<g id="a_Node000008"><a xlink:title=" ">
<polygon fill="#e0e0e0" stroke="#999999" points="40,-85 0,-85 0,-66 40,-66 40,-85"/>
<text text-anchor="middle" x="20" y="-73" font-family="Helvetica,sans-Serif" font-size="10.00">span</text>
</a>
</g>
</g>
<!-- Node5&#45;&gt;Node8 -->
<g id="edge7_Node000005_Node000008" class="edge">
<title>Node5&#45;&gt;Node8</title>
<g id="a_edge7_Node000005_Node000008"><a xlink:title=" ">
<path fill="none" stroke="#63b8ff" d="M353.08,-139.91C255.82,-132.04 102,-116.83 48,-96 44.64,-94.7 41.29,-92.92 38.14,-90.96"/>
<polygon fill="#63b8ff" stroke="#63b8ff" points="40.15,-88.09 29.95,-85.2 36.12,-93.81 40.15,-88.09"/>
</a>
</g>
</g>
<!-- Node9 -->
<g id="Node000009" class="node">
<title>Node9</title>
<g id="a_Node000009"><a xlink:title=" ">
<polygon fill="#e0e0e0" stroke="#999999" points="447.5,-85 322.5,-85 322.5,-66 447.5,-66 447.5,-85"/>
<text text-anchor="middle" x="385" y="-73" font-family="Helvetica,sans-Serif" font-size="10.00">stdexec/execution.hpp</text>
</a>
</g>
</g>
<!-- Node5&#45;&gt;Node9 -->
<g id="edge8_Node000005_Node000009" class="edge">
<title>Node5&#45;&gt;Node9</title>
<g id="a_edge8_Node000005_Node000009"><a xlink:title=" ">
<path fill="none" stroke="#63b8ff" d="M426.48,-131.94C418.15,-120.81 406.5,-105.24 397.67,-93.43"/>
<polygon fill="#63b8ff" stroke="#63b8ff" points="400.35,-91.18 391.56,-85.27 394.75,-95.37 400.35,-91.18"/>
</a>
</g>
</g>
<!-- Node10 -->
<g id="Node000010" class="node">
<title>Node10</title>
<g id="a_Node000010"><a xlink:title=" ">
<polygon fill="#e0e0e0" stroke="#999999" points="224.5,-90.5 57.5,-90.5 57.5,-60.5 224.5,-60.5 224.5,-90.5"/>
<text text-anchor="start" x="65.5" y="-78.5" font-family="Helvetica,sans-Serif" font-size="10.00">Hermes/_base/ConnectionError</text>
<text text-anchor="middle" x="141" y="-67.5" font-family="Helvetica,sans-Serif" font-size="10.00">Enum.tpp</text>
</a>
</g>
</g>
<!-- Node5&#45;&gt;Node10 -->
<g id="edge9_Node000005_Node000010" class="edge">
<title>Node5&#45;&gt;Node10</title>
<g id="a_edge9_Node000005_Node000010"><a xlink:title=" ">
<path fill="none" stroke="#63b8ff" d="M377.1,-131.94C328.95,-120.63 261.25,-104.74 210.69,-92.86"/>
<polygon fill="#63b8ff" stroke="#63b8ff" points="211.35,-89.42 200.81,-90.54 209.75,-96.24 211.35,-89.42"/>
</a>
</g>
</g>
<!-- Node12 -->
<g id="Node000012" class="node">
<title>Node12</title>
<g id="a_Node000012"><a xlink:title=" ">
<polygon fill="#e0e0e0" stroke="#999999" points="1643.5,-19 1566.5,-19 1566.5,0 1643.5,0 1643.5,-19"/>
<text text-anchor="middle" x="1605" y="-7" font-family="Helvetica,sans-Serif" font-size="10.00">sys/socket.h</text>
</a>
</g>
</g>
<!-- Node11&#45;&gt;Node12 -->
<g id="edge11_Node000011_Node000012" class="edge">
<title>Node11&#45;&gt;Node12</title>
<g id="a_edge11_Node000011_Node000012"><a xlink:title=" ">
<path fill="none" stroke="#63b8ff" d="M1712.85,-131.83C1713.27,-112.49 1711.28,-77.67 1694,-55 1682.53,-39.95 1664.59,-29.64 1647.81,-22.76"/>
<polygon fill="#63b8ff" stroke="#63b8ff" points="1648.72,-19.36 1638.12,-19.09 1646.24,-25.9 1648.72,-19.36"/>
</a>
</g>
</g>
<!-- Node13 -->
<g id="Node000013" class="node">
<title>Node13</title>
<g id="a_Node000013"><a xlink:title=" ">
<polygon fill="#e0e0e0" stroke="#999999" points="2070,-19 1998,-19 1998,0 2070,0 2070,-19"/>
<text text-anchor="middle" x="2034" y="-7" font-family="Helvetica,sans-Serif" font-size="10.00">netinet/in.h</text>
</a>
</g>
</g>
<!-- Node11&#45;&gt;Node13 -->
<g id="edge12_Node000011_Node000013" class="edge">
<title>Node11&#45;&gt;Node13</title>
<g id="a_edge12_Node000011_Node000013"><a xlink:title=" ">
<path fill="none" stroke="#63b8ff" d="M1771.04,-133.7C1774.4,-133.1 1777.74,-132.53 1781,-132 1846.41,-121.4 2033.06,-145.6 2077,-96 2089.08,-82.36 2083.83,-71.89 2077,-55 2072.31,-43.41 2063,-33.16 2054.24,-25.43"/>
<polygon fill="#63b8ff" stroke="#63b8ff" points="2056.44,-22.71 2046.49,-19.07 2052,-28.12 2056.44,-22.71"/>
</a>
</g>
</g>
<!-- Node14 -->
<g id="Node000014" class="node">
<title>Node14</title>
<g id="a_Node000014"><a xlink:title=" ">
<polygon fill="#e0e0e0" stroke="#999999" points="2193.5,-85 2124.5,-85 2124.5,-66 2193.5,-66 2193.5,-85"/>
<text text-anchor="middle" x="2159" y="-73" font-family="Helvetica,sans-Serif" font-size="10.00">arpa/inet.h</text>
</a>
</g>
</g>
<!-- Node11&#45;&gt;Node14 -->
<g id="edge13_Node000011_Node000014" class="edge">
<title>Node11&#45;&gt;Node14</title>
<g id="a_edge13_Node000011_Node000014"><a xlink:title=" ">
<path fill="none" stroke="#63b8ff" d="M1771.03,-133.65C1774.4,-133.06 1777.74,-132.51 1781,-132 1926.34,-109.35 1967.26,-131.52 2110,-96 2117.04,-94.25 2124.42,-91.71 2131.26,-89.04"/>
<polygon fill="#63b8ff" stroke="#63b8ff" points="2132.87,-92.17 2140.77,-85.12 2130.2,-85.69 2132.87,-92.17"/>
</a>
</g>
</g>
<!-- Node15 -->
<g id="Node000015" class="node">
<title>Node15</title>
<g id="a_Node000015"><a xlink:title=" ">
<polygon fill="#e0e0e0" stroke="#999999" points="2360.5,-19 2307.5,-19 2307.5,0 2360.5,0 2360.5,-19"/>
<text text-anchor="middle" x="2334" y="-7" font-family="Helvetica,sans-Serif" font-size="10.00">netdb.h</text>
</a>
</g>
</g>
<!-- Node11&#45;&gt;Node15 -->
<g id="edge14_Node000011_Node000015" class="edge">
<title>Node11&#45;&gt;Node15</title>
<g id="a_edge14_Node000011_Node000015"><a xlink:title=" ">
<path fill="none" stroke="#63b8ff" d="M1771,-133.47C1774.38,-132.93 1777.73,-132.43 1781,-132 1845.46,-123.52 2320.47,-143.36 2365,-96 2383.2,-76.65 2364.09,-45.81 2348.85,-26.93"/>
<polygon fill="#63b8ff" stroke="#63b8ff" points="2351.41,-24.54 2342.27,-19.19 2346.08,-29.08 2351.41,-24.54"/>
</a>
</g>
</g>
<!-- Node16 -->
<g id="Node000016" class="node">
<title>Node16</title>
<g id="a_Node000016"><a xlink:title=" ">
<polygon fill="#e0e0e0" stroke="#999999" points="2468,-85 2412,-85 2412,-66 2468,-66 2468,-85"/>
<text text-anchor="middle" x="2440" y="-73" font-family="Helvetica,sans-Serif" font-size="10.00">unistd.h</text>
</a>
</g>
</g>
<!-- Node11&#45;&gt;Node16 -->
<g id="edge15_Node000011_Node000016" class="edge">
<title>Node11&#45;&gt;Node16</title>
<g id="a_edge15_Node000011_Node000016"><a xlink:title=" ">
<path fill="none" stroke="#63b8ff" d="M1771,-133.46C1774.38,-132.92 1777.73,-132.43 1781,-132 2053.4,-96.6 2131.61,-163.02 2398,-96 2403.99,-94.49 2410.17,-92.13 2415.89,-89.57"/>
<polygon fill="#63b8ff" stroke="#63b8ff" points="2417.48,-92.68 2424.95,-85.17 2414.43,-86.38 2417.48,-92.68"/>
</a>
</g>
</g>
<!-- Node17 -->
<g id="Node000017" class="node">
<title>Node17</title>
<g id="a_Node000017"><a xlink:href="_conversion_and_literals_8hpp.html" target="_top" xlink:title=" ">
<polygon fill="white" stroke="#666666" points="2636,-90.5 2486,-90.5 2486,-60.5 2636,-60.5 2636,-90.5"/>
<text text-anchor="start" x="2494" y="-78.5" font-family="Helvetica,sans-Serif" font-size="10.00">Hermes/_base/OsApi</text>
<text text-anchor="middle" x="2561" y="-67.5" font-family="Helvetica,sans-Serif" font-size="10.00">/ConversionAndLiterals.hpp</text>
</a>
</g>
</g>
<!-- Node11&#45;&gt;Node17 -->
<g id="edge16_Node000011_Node000017" class="edge">
<title>Node11&#45;&gt;Node17</title>
<g id="a_edge16_Node000011_Node000017"><a xlink:title=" ">
<path fill="none" stroke="#63b8ff" d="M1771.37,-133.37C1774.62,-132.86 1777.85,-132.4 1781,-132 2088.29,-93.1 2170.28,-139.19 2477,-96 2483.57,-95.07 2490.39,-93.88 2497.17,-92.55"/>
<polygon fill="#63b8ff" stroke="#63b8ff" points="2497.96,-95.96 2507.04,-90.5 2496.54,-89.11 2497.96,-95.96"/>
</a>
</g>
</g>
<!-- Node19 -->
<g id="Node000019" class="node">
<title>Node19</title>
<g id="a_Node000019"><a xlink:href="_macros_8hpp.html" target="_top" xlink:title=" ">
<polygon fill="white" stroke="#666666" points="1858,-90.5 1740,-90.5 1740,-60.5 1858,-60.5 1858,-90.5"/>
<text text-anchor="start" x="1748" y="-78.5" font-family="Helvetica,sans-Serif" font-size="10.00">Hermes/_base/OsApi</text>
<text text-anchor="middle" x="1799" y="-67.5" font-family="Helvetica,sans-Serif" font-size="10.00">/Macros.hpp</text>
</a>
</g>
</g>
<!-- Node11&#45;&gt;Node19 -->
<g id="edge18_Node000011_Node000019" class="edge">
<title>Node11&#45;&gt;Node19</title>
<g id="a_edge18_Node000011_Node000019"><a xlink:title=" ">
<path fill="none" stroke="#63b8ff" d="M1729.61,-131.94C1742.22,-121.86 1759.41,-108.13 1773.52,-96.85"/>
<polygon fill="#63b8ff" stroke="#63b8ff" points="1775.79,-99.52 1781.42,-90.54 1771.42,-94.05 1775.79,-99.52"/>
</a>
</g>
</g>
<!-- Node21 -->
<g id="Node000021" class="node">
<title>Node21</title>
<g id="a_Node000021"><a xlink:href="_address_family_enum_8hpp.html" target="_top" xlink:title=" ">
<polygon fill="white" stroke="#666666" points="1305,-90.5 1129,-90.5 1129,-60.5 1305,-60.5 1305,-90.5"/>
<text text-anchor="start" x="1137" y="-78.5" font-family="Helvetica,sans-Serif" font-size="10.00">Hermes/_base/OsApi</text>
<text text-anchor="middle" x="1217" y="-67.5" font-family="Helvetica,sans-Serif" font-size="10.00">/Enums/AddressFamilyEnum.hpp</text>
</a>
</g>
</g>
<!-- Node11&#45;&gt;Node21 -->
<g id="edge21_Node000011_Node000021" class="edge">
<title>Node11&#45;&gt;Node21</title>
<g id="a_edge21_Node000011_Node000021"><a xlink:title=" ">
<path fill="none" stroke="#63b8ff" d="M1652.8,-139.94C1574.89,-131.64 1433.77,-115.53 1314,-96 1307.34,-94.91 1300.43,-93.7 1293.52,-92.43"/>
<polygon fill="#63b8ff" stroke="#63b8ff" points="1293.89,-88.93 1283.41,-90.52 1292.59,-95.81 1293.89,-88.93"/>
</a>
</g>
</g>
<!-- Node22 -->
<g id="Node000022" class="node">
<title>Node22</title>
<g id="a_Node000022"><a xlink:href="_protocol_base_type_enum_8hpp.html" target="_top" xlink:title=" ">
<polygon fill="white" stroke="#666666" points="2067.5,-90.5 1876.5,-90.5 1876.5,-60.5 2067.5,-60.5 2067.5,-90.5"/>
<text text-anchor="start" x="1884.5" y="-78.5" font-family="Helvetica,sans-Serif" font-size="10.00">Hermes/_base/OsApi</text>
<text text-anchor="middle" x="1972" y="-67.5" font-family="Helvetica,sans-Serif" font-size="10.00">/Enums/ProtocolBaseTypeEnum.hpp</text>
</a>
</g>
</g>
<!-- Node11&#45;&gt;Node22 -->
<g id="edge23_Node000011_Node000022" class="edge">
<title>Node11&#45;&gt;Node22</title>
<g id="a_edge23_Node000011_Node000022"><a xlink:title=" ">
<path fill="none" stroke="#63b8ff" d="M1764.61,-131.94C1806.55,-120.73 1865.38,-105 1909.68,-93.16"/>
<polygon fill="#63b8ff" stroke="#63b8ff" points="1910.71,-96.51 1919.46,-90.54 1908.9,-89.74 1910.71,-96.51"/>
</a>
</g>
</g>
<!-- Node23 -->
<g id="Node000023" class="node">
<title>Node23</title>
<g id="a_Node000023"><a xlink:href="_socket_shutdown_enum_8hpp.html" target="_top" xlink:title=" ">
<polygon fill="white" stroke="#666666" points="1507.5,-90.5 1322.5,-90.5 1322.5,-60.5 1507.5,-60.5 1507.5,-90.5"/>
<text text-anchor="start" x="1330.5" y="-78.5" font-family="Helvetica,sans-Serif" font-size="10.00">Hermes/_base/OsApi</text>
<text text-anchor="middle" x="1415" y="-67.5" font-family="Helvetica,sans-Serif" font-size="10.00">/Enums/SocketShutdownEnum.hpp</text>
</a>
</g>
</g>
<!-- Node11&#45;&gt;Node23 -->
<g id="edge25_Node000011_Node000023" class="edge">
<title>Node11&#45;&gt;Node23</title>
<g id="a_edge25_Node000011_Node000023"><a xlink:title=" ">
<path fill="none" stroke="#63b8ff" d="M1652.97,-132.19C1604.6,-120.87 1536.03,-104.82 1484.92,-92.86"/>
<polygon fill="#63b8ff" stroke="#63b8ff" points="1485.47,-89.4 1474.94,-90.53 1483.88,-96.21 1485.47,-89.4"/>
</a>
</g>
</g>
<!-- Node24 -->
<g id="Node000024" class="node">
<title>Node24</title>
<g id="a_Node000024"><a xlink:href="_socket_type_enum_8hpp.html" target="_top" xlink:title=" ">
<polygon fill="white" stroke="#666666" points="1684.5,-90.5 1525.5,-90.5 1525.5,-60.5 1684.5,-60.5 1684.5,-90.5"/>
<text text-anchor="start" x="1533.5" y="-78.5" font-family="Helvetica,sans-Serif" font-size="10.00">Hermes/_base/OsApi</text>
<text text-anchor="middle" x="1605" y="-67.5" font-family="Helvetica,sans-Serif" font-size="10.00">/Enums/SocketTypeEnum.hpp</text>
</a>
</g>
</g>
<!-- Node11&#45;&gt;Node24 -->
<g id="edge27_Node000011_Node000024" class="edge">
<title>Node11&#45;&gt;Node24</title>
<g id="a_edge27_Node000011_Node000024"><a xlink:title=" ">
<path fill="none" stroke="#63b8ff" d="M1690.35,-131.94C1674.54,-121.67 1652.9,-107.61 1635.36,-96.22"/>
<polygon fill="#63b8ff" stroke="#63b8ff" points="1636.91,-93.06 1626.62,-90.54 1633.1,-98.93 1636.91,-93.06"/>
</a>
</g>
</g>
<!-- Node25 -->
<g id="Node000025" class="node">
<title>Node25</title>
<g id="a_Node000025"><a xlink:href="_linux_2_encrypt_status_enum_8hpp.html" target="_top" xlink:title=" ">
<polygon fill="white" stroke="#666666" points="2806,-96 2654,-96 2654,-55 2806,-55 2806,-96"/>
<text text-anchor="start" x="2662" y="-84" font-family="Helvetica,sans-Serif" font-size="10.00">Hermes/_base/OsApi</text>
<text text-anchor="start" x="2662" y="-73" font-family="Helvetica,sans-Serif" font-size="10.00">/Enums/Linux/EncryptStatus</text>
<text text-anchor="middle" x="2730" y="-62" font-family="Helvetica,sans-Serif" font-size="10.00">Enum.hpp</text>
</a>
</g>
</g>
<!-- Node11&#45;&gt;Node25 -->
<g id="edge29_Node000011_Node000025" class="edge">
<title>Node11&#45;&gt;Node25</title>
<g id="a_edge29_Node000011_Node000025"><a xlink:title=" ">
<path fill="none" stroke="#63b8ff" d="M1771.37,-133.33C1774.62,-132.83 1777.85,-132.38 1781,-132 2159.27,-86.04 2262.33,-146.14 2643.74,-96.03"/>
<polygon fill="#63b8ff" stroke="#63b8ff" points="2644.21,-99.5 2653.67,-94.71 2643.29,-92.56 2644.21,-99.5"/>
</a>
</g>
</g>
<!-- Node26 -->
<g id="Node000026" class="node">
<title>Node26</title>
<g id="a_Node000026"><a xlink:href="_name_info_flags_8hpp.html" target="_top" xlink:title=" ">
<polygon fill="white" stroke="#666666" points="2356,-90.5 2212,-90.5 2212,-60.5 2356,-60.5 2356,-90.5"/>
<text text-anchor="start" x="2220" y="-78.5" font-family="Helvetica,sans-Serif" font-size="10.00">Hermes/_base/OsApi</text>
<text text-anchor="middle" x="2284" y="-67.5" font-family="Helvetica,sans-Serif" font-size="10.00">/Flags/NameInfoFlags.hpp</text>
</a>
</g>
</g>
<!-- Node11&#45;&gt;Node26 -->
<g id="edge30_Node000011_Node000026" class="edge">
<title>Node11&#45;&gt;Node26</title>
<g id="a_edge30_Node000011_Node000026"><a xlink:title=" ">
<path fill="none" stroke="#63b8ff" d="M1771.02,-133.56C1774.39,-133 1777.73,-132.47 1781,-132 1967.33,-105.24 2017.19,-126.11 2203,-96 2208.76,-95.07 2214.72,-93.94 2220.67,-92.71"/>
<polygon fill="#63b8ff" stroke="#63b8ff" points="2221.61,-96.09 2230.64,-90.55 2220.13,-89.25 2221.61,-96.09"/>
</a>
</g>
</g>
<!-- Node27 -->
<g id="Node000027" class="node">
<title>Node27</title>
<g id="a_Node000027"><a xlink:href="_linux_2_credential_flags_8hpp.html" target="_top" xlink:title=" ">
<polygon fill="white" stroke="#666666" points="707,-90.5 531,-90.5 531,-60.5 707,-60.5 707,-90.5"/>
<text text-anchor="start" x="539" y="-78.5" font-family="Helvetica,sans-Serif" font-size="10.00">Hermes/_base/OsApi</text>
<text text-anchor="middle" x="619" y="-67.5" font-family="Helvetica,sans-Serif" font-size="10.00">/Flags/Linux/CredentialFlags.hpp</text>
</a>
</g>
</g>
<!-- Node11&#45;&gt;Node27 -->
<g id="edge32_Node000011_Node000027" class="edge">
<title>Node11&#45;&gt;Node27</title>
<g id="a_edge32_Node000011_Node000027"><a xlink:title=" ">
<path fill="none" stroke="#63b8ff" d="M1652.9,-141.76C1610.61,-138.8 1552.32,-134.88 1501,-132 1152.74,-112.45 1063.25,-138.16 717,-96 708.98,-95.02 700.64,-93.76 692.35,-92.34"/>
<polygon fill="#63b8ff" stroke="#63b8ff" points="692.76,-88.86 682.3,-90.54 691.53,-95.75 692.76,-88.86"/>
</a>
</g>
</g>
<!-- Node28 -->
<g id="Node000028" class="node">
<title>Node28</title>
<g id="a_Node000028"><a xlink:href="_linux_2_supported_protocols_flags_8hpp.html" target="_top" xlink:title=" ">
<polygon fill="white" stroke="#666666" points="898.5,-96 725.5,-96 725.5,-55 898.5,-55 898.5,-96"/>
<text text-anchor="start" x="733.5" y="-84" font-family="Helvetica,sans-Serif" font-size="10.00">Hermes/_base/OsApi</text>
<text text-anchor="start" x="733.5" y="-73" font-family="Helvetica,sans-Serif" font-size="10.00">/Flags/Linux/SupportedProtocols</text>
<text text-anchor="middle" x="812" y="-62" font-family="Helvetica,sans-Serif" font-size="10.00">Flags.hpp</text>
</a>
</g>
</g>
<!-- Node11&#45;&gt;Node28 -->
<g id="edge33_Node000011_Node000028" class="edge">
<title>Node11&#45;&gt;Node28</title>
<g id="a_edge33_Node000011_Node000028"><a xlink:title=" ">
<path fill="none" stroke="#63b8ff" d="M1652.89,-141.99C1610.59,-139.14 1552.29,-135.26 1501,-132 1240.84,-115.47 1171.55,-129.99 908.75,-95.99"/>
<polygon fill="#63b8ff" stroke="#63b8ff" points="908.88,-92.48 898.51,-94.65 907.98,-99.42 908.88,-92.48"/>
</a>
</g>
</g>
<!-- Node29 -->
<g id="Node000029" class="node">
<title>Node29</title>
<g id="a_Node000029"><a xlink:href="_linux_2_s_channel_cred_flags_8hpp.html" target="_top" xlink:title=" ">
<polygon fill="white" stroke="#666666" points="1111,-90.5 917,-90.5 917,-60.5 1111,-60.5 1111,-90.5"/>
<text text-anchor="start" x="925" y="-78.5" font-family="Helvetica,sans-Serif" font-size="10.00">Hermes/_base/OsApi</text>
<text text-anchor="middle" x="1014" y="-67.5" font-family="Helvetica,sans-Serif" font-size="10.00">/Flags/Linux/SChannelCredFlags.hpp</text>
</a>
</g>
</g>
<!-- Node11&#45;&gt;Node29 -->
<g id="edge34_Node000011_Node000029" class="edge">
<title>Node11&#45;&gt;Node29</title>
<g id="a_edge34_Node000011_Node000029"><a xlink:title=" ">
<path fill="none" stroke="#63b8ff" d="M1652.64,-141.73C1523.78,-132.33 1221.85,-109.64 1120,-96 1111.8,-94.9 1103.27,-93.6 1094.78,-92.2"/>
<polygon fill="#63b8ff" stroke="#63b8ff" points="1095.28,-88.74 1084.83,-90.52 1094.11,-95.64 1095.28,-88.74"/>
</a>
</g>
</g>
<!-- Node18 -->
<g id="Node000018" class="node">
<title>Node18</title>
<g id="a_Node000018"><a xlink:title=" ">
<polygon fill="#e0e0e0" stroke="#999999" points="2586,-19 2536,-19 2536,0 2586,0 2586,-19"/>
<text text-anchor="middle" x="2561" y="-7" font-family="Helvetica,sans-Serif" font-size="10.00">cstdint</text>
</a>
</g>
</g>
<!-- Node17&#45;&gt;Node18 -->
<g id="edge17_Node000017_Node000018" class="edge">
<title>Node17&#45;&gt;Node18</title>
<g id="a_edge17_Node000017_Node000018"><a xlink:title=" ">
<path fill="none" stroke="#63b8ff" d="M2561,-60.3C2561,-51.2 2561,-39.29 2561,-29.4"/>
<polygon fill="#63b8ff" stroke="#63b8ff" points="2564.5,-29.34 2561,-19.34 2557.5,-29.34 2564.5,-29.34"/>
</a>
</g>
</g>
<!-- Node19&#45;&gt;Node12 -->
<g id="edge20_Node000019_Node000012" class="edge">
<title>Node19&#45;&gt;Node12</title>
<g id="a_edge20_Node000019_Node000012"><a xlink:title=" ">
<path fill="none" stroke="#63b8ff" d="M1756.43,-60.45C1721.65,-48.98 1673.09,-32.96 1640.41,-22.18"/>
<polygon fill="#63b8ff" stroke="#63b8ff" points="1641.41,-18.83 1630.82,-19.02 1639.22,-25.47 1641.41,-18.83"/>
</a>
</g>
</g>
<!-- Node20 -->
<g id="Node000020" class="node">
<title>Node20</title>
<g id="a_Node000020"><a xlink:title=" ">
<polygon fill="#e0e0e0" stroke="#999999" points="1835.5,-19 1762.5,-19 1762.5,0 1835.5,0 1835.5,-19"/>
<text text-anchor="middle" x="1799" y="-7" font-family="Helvetica,sans-Serif" font-size="10.00">string_view</text>
</a>
</g>
</g>
<!-- Node19&#45;&gt;Node20 -->
<g id="edge19_Node000019_Node000020" class="edge">
<title>Node19&#45;&gt;Node20</title>
<g id="a_edge19_Node000019_Node000020"><a xlink:title=" ">
<path fill="none" stroke="#63b8ff" d="M1799,-60.3C1799,-51.2 1799,-39.29 1799,-29.4"/>
<polygon fill="#63b8ff" stroke="#63b8ff" points="1802.5,-29.34 1799,-19.34 1795.5,-29.34 1802.5,-29.34"/>
</a>
</g>
</g>
<!-- Node21&#45;&gt;Node12 -->
<g id="edge22_Node000021_Node000012" class="edge">
<title>Node21&#45;&gt;Node12</title>
<g id="a_edge22_Node000021_Node000012"><a xlink:title=" ">
<path fill="none" stroke="#63b8ff" d="M1284.76,-60.46C1294.56,-58.55 1304.53,-56.68 1314,-55 1398.98,-39.97 1498.47,-25.41 1556.34,-17.23"/>
<polygon fill="#63b8ff" stroke="#63b8ff" points="1556.89,-20.69 1566.31,-15.83 1555.92,-13.76 1556.89,-20.69"/>
</a>
</g>
</g>
<!-- Node22&#45;&gt;Node13 -->
<g id="edge24_Node000022_Node000013" class="edge">
<title>Node22&#45;&gt;Node13</title>
<g id="a_edge24_Node000022_Node000013"><a xlink:title=" ">
<path fill="none" stroke="#63b8ff" d="M1985.76,-60.3C1995.43,-50.32 2008.37,-36.96 2018.42,-26.59"/>
<polygon fill="#63b8ff" stroke="#63b8ff" points="2020.99,-28.96 2025.43,-19.34 2015.96,-24.09 2020.99,-28.96"/>
</a>
</g>
</g>
<!-- Node23&#45;&gt;Node12 -->
<g id="edge26_Node000023_Node000012" class="edge">
<title>Node23&#45;&gt;Node12</title>
<g id="a_edge26_Node000023_Node000012"><a xlink:title=" ">
<path fill="none" stroke="#63b8ff" d="M1456.7,-60.45C1490.6,-49.03 1537.91,-33.1 1569.9,-22.32"/>
<polygon fill="#63b8ff" stroke="#63b8ff" points="1571.35,-25.53 1579.71,-19.02 1569.12,-18.89 1571.35,-25.53"/>
</a>
</g>
</g>
<!-- Node24&#45;&gt;Node12 -->
<g id="edge28_Node000024_Node000012" class="edge">
<title>Node24&#45;&gt;Node12</title>
<g id="a_edge28_Node000024_Node000012"><a xlink:title=" ">
<path fill="none" stroke="#63b8ff" d="M1605,-60.3C1605,-51.2 1605,-39.29 1605,-29.4"/>
<polygon fill="#63b8ff" stroke="#63b8ff" points="1608.5,-29.34 1605,-19.34 1601.5,-29.34 1608.5,-29.34"/>
</a>
</g>
</g>
<!-- Node26&#45;&gt;Node15 -->
<g id="edge31_Node000026_Node000015" class="edge">
<title>Node26&#45;&gt;Node15</title>
<g id="a_edge31_Node000026_Node000015"><a xlink:title=" ">
<path fill="none" stroke="#63b8ff" d="M2295.1,-60.3C2302.66,-50.61 2312.72,-37.74 2320.71,-27.51"/>
<polygon fill="#63b8ff" stroke="#63b8ff" points="2323.69,-29.38 2327.09,-19.34 2318.18,-25.07 2323.69,-29.38"/>
</a>
</g>
</g>
<!-- Node30&#45;&gt;Node7 -->
<g id="edge43_Node000030_Node000007" class="edge">
<title>Node30&#45;&gt;Node7</title>
<g id="a_edge43_Node000030_Node000007"><a xlink:title=" ">
<path fill="none" stroke="#63b8ff" d="M1914.27,-200.75C1790.18,-183.22 1539.56,-149.58 1326,-132 1147.76,-117.32 693.42,-147.01 522,-96 517.62,-94.7 513.22,-92.69 509.12,-90.45"/>
<polygon fill="#63b8ff" stroke="#63b8ff" points="510.62,-87.27 500.26,-85.03 506.97,-93.24 510.62,-87.27"/>
</a>
</g>
</g>
<!-- Node30&#45;&gt;Node31 -->
<g id="edge36_Node000030_Node000031" class="edge">
<title>Node30&#45;&gt;Node31</title>
<g id="a_edge36_Node000030_Node000031"><a xlink:title=" ">
<path fill="none" stroke="#63b8ff" d="M1961.72,-197.95C1937.83,-186.88 1904.8,-171.56 1881.64,-160.82"/>
<polygon fill="#63b8ff" stroke="#63b8ff" points="1882.91,-157.55 1872.37,-156.52 1879.96,-163.9 1882.91,-157.55"/>
</a>
</g>
</g>
<!-- Node34 -->
<g id="Node000034" class="node">
<title>Node34</title>
<g id="a_Node000034"><a xlink:title=" ">
<polygon fill="#e0e0e0" stroke="#999999" points="1979,-156.5 1937,-156.5 1937,-137.5 1979,-137.5 1979,-156.5"/>
<text text-anchor="middle" x="1958" y="-144.5" font-family="Helvetica,sans-Serif" font-size="10.00">array</text>
</a>
</g>
</g>
<!-- Node30&#45;&gt;Node34 -->
<g id="edge39_Node000030_Node000034" class="edge">
<title>Node30&#45;&gt;Node34</title>
<g id="a_edge39_Node000030_Node000034"><a xlink:title=" ">
<path fill="none" stroke="#63b8ff" d="M1984.45,-197.8C1979.47,-188.41 1972.88,-176.02 1967.53,-165.95"/>
<polygon fill="#63b8ff" stroke="#63b8ff" points="1970.48,-164.03 1962.7,-156.84 1964.3,-167.32 1970.48,-164.03"/>
</a>
</g>
</g>
<!-- Node30&#45;&gt;Node35 -->
<g id="edge40_Node000030_Node000035" class="edge">
<title>Node30&#45;&gt;Node35</title>
<g id="a_edge40_Node000030_Node000035"><a xlink:title=" ">
<path fill="none" stroke="#63b8ff" d="M2069.68,-203.07C2172.85,-191.02 2345.45,-170.12 2374,-162 2375.64,-161.53 2377.3,-160.99 2378.97,-160.4"/>
<polygon fill="#63b8ff" stroke="#63b8ff" points="2380.33,-163.63 2388.28,-156.63 2377.7,-157.14 2380.33,-163.63"/>
</a>
</g>
</g>
<!-- Node36 -->
<g id="Node000036" class="node">
<title>Node36</title>
<g id="a_Node000036"><a xlink:title=" ">
<polygon fill="#e0e0e0" stroke="#999999" points="2048.5,-156.5 1997.5,-156.5 1997.5,-137.5 2048.5,-137.5 2048.5,-156.5"/>
<text text-anchor="middle" x="2023" y="-144.5" font-family="Helvetica,sans-Serif" font-size="10.00">variant</text>
</a>
</g>
</g>
<!-- Node30&#45;&gt;Node36 -->
<g id="edge41_Node000030_Node000036" class="edge">
<title>Node30&#45;&gt;Node36</title>
<g id="a_edge41_Node000030_Node000036"><a xlink:title=" ">
<path fill="none" stroke="#63b8ff" d="M1998.88,-197.8C2003.43,-188.41 2009.43,-176.02 2014.31,-165.95"/>
<polygon fill="#63b8ff" stroke="#63b8ff" points="2017.51,-167.37 2018.72,-156.84 2011.21,-164.32 2017.51,-167.37"/>
</a>
</g>
</g>
<!-- Node30&#45;&gt;Node37 -->
<g id="edge42_Node000030_Node000037" class="edge">
<title>Node30&#45;&gt;Node37</title>
<g id="a_edge42_Node000030_Node000037"><a xlink:title=" ">
<path fill="none" stroke="#63b8ff" d="M2069.54,-199.81C2157.1,-185.99 2288.9,-164.97 2300,-162 2302.3,-161.39 2304.65,-160.68 2306.99,-159.92"/>
<polygon fill="#63b8ff" stroke="#63b8ff" points="2308.22,-163.2 2316.5,-156.59 2305.9,-156.6 2308.22,-163.2"/>
</a>
</g>
</g>
<!-- Node38 -->
<g id="Node000038" class="node">
<title>Node38</title>
<g id="a_Node000038"><a xlink:title=" ">
<polygon fill="#e0e0e0" stroke="#999999" points="2117,-156.5 2067,-156.5 2067,-137.5 2117,-137.5 2117,-156.5"/>
<text text-anchor="middle" x="2092" y="-144.5" font-family="Helvetica,sans-Serif" font-size="10.00">format</text>
</a>
</g>
</g>
<!-- Node30&#45;&gt;Node38 -->
<g id="edge44_Node000030_Node000038" class="edge">
<title>Node30&#45;&gt;Node38</title>
<g id="a_edge44_Node000030_Node000038"><a xlink:title=" ">
<path fill="none" stroke="#63b8ff" d="M2014.19,-197.8C2030.8,-187.17 2053.4,-172.7 2069.97,-162.1"/>
<polygon fill="#63b8ff" stroke="#63b8ff" points="2071.94,-165 2078.47,-156.66 2068.16,-159.1 2071.94,-165"/>
</a>
</g>
</g>
<!-- Node39 -->
<g id="Node000039" class="node">
<title>Node39</title>
<g id="a_Node000039"><a xlink:title=" ">
<polygon fill="#e0e0e0" stroke="#999999" points="2290.5,-162 2135.5,-162 2135.5,-132 2290.5,-132 2290.5,-162"/>
<text text-anchor="start" x="2143.5" y="-150" font-family="Helvetica,sans-Serif" font-size="10.00">Hermes/Endpoint/IpEndpoint</text>
<text text-anchor="middle" x="2213" y="-139" font-family="Helvetica,sans-Serif" font-size="10.00">/IpAddress.tpp</text>
</a>
</g>
</g>
<!-- Node30&#45;&gt;Node39 -->
<g id="edge45_Node000030_Node000039" class="edge">
<title>Node30&#45;&gt;Node39</title>
<g id="a_edge45_Node000030_Node000039"><a xlink:title=" ">
<path fill="none" stroke="#63b8ff" d="M2040.5,-197.95C2074.18,-188.2 2119.22,-175.16 2154.84,-164.84"/>
<polygon fill="#63b8ff" stroke="#63b8ff" points="2155.98,-168.16 2164.61,-162.01 2154.03,-161.43 2155.98,-168.16"/>
</a>
</g>
</g>
<!-- Node32 -->
<g id="Node000032" class="node">
<title>Node32</title>
<g id="a_Node000032"><a xlink:title=" ">
<polygon fill="#e0e0e0" stroke="#999999" points="2952.5,-85 2907.5,-85 2907.5,-66 2952.5,-66 2952.5,-85"/>
<text text-anchor="middle" x="2930" y="-73" font-family="Helvetica,sans-Serif" font-size="10.00">utility</text>
</a>
</g>
</g>
<!-- Node31&#45;&gt;Node32 -->
<g id="edge37_Node000031_Node000032" class="edge">
<title>Node31&#45;&gt;Node32</title>
<g id="a_edge37_Node000031_Node000032"><a xlink:title=" ">
<path fill="none" stroke="#63b8ff" d="M1893.01,-137.49C1904.25,-135.34 1916.57,-133.29 1928,-132 2142.57,-107.86 2692.67,-159.66 2899,-96 2903.05,-94.75 2907.1,-92.83 2910.87,-90.67"/>
<polygon fill="#63b8ff" stroke="#63b8ff" points="2913.02,-93.44 2919.5,-85.06 2909.21,-87.57 2913.02,-93.44"/>
</a>
</g>
</g>
<!-- Node33 -->
<g id="Node000033" class="node">
<title>Node33</title>
<g id="a_Node000033"><a xlink:title=" ">
<polygon fill="#e0e0e0" stroke="#999999" points="2889.5,-85 2824.5,-85 2824.5,-66 2889.5,-66 2889.5,-85"/>
<text text-anchor="middle" x="2857" y="-73" font-family="Helvetica,sans-Serif" font-size="10.00">functional</text>
</a>
</g>
</g>
<!-- Node31&#45;&gt;Node33 -->
<g id="edge38_Node000031_Node000033" class="edge">
<title>Node31&#45;&gt;Node33</title>
<g id="a_edge38_Node000031_Node000033"><a xlink:title=" ">
<path fill="none" stroke="#63b8ff" d="M1893.39,-137.44C1904.53,-135.32 1916.7,-133.29 1928,-132 2124,-109.6 2623.27,-142.44 2815,-96 2821.11,-94.52 2827.4,-92.13 2833.2,-89.52"/>
<polygon fill="#63b8ff" stroke="#63b8ff" points="2834.91,-92.57 2842.36,-85.04 2831.84,-86.28 2834.91,-92.57"/>
</a>
</g>
</g>
<!-- Node42&#45;&gt;Node4 -->
<g id="edge52_Node000042_Node000004" class="edge">
<title>Node42&#45;&gt;Node4</title>
<g id="a_edge52_Node000042_Node000004"><a xlink:title=" ">
<path fill="none" stroke="#63b8ff" d="M1607.9,-269.37C1616.85,-260.69 1630.99,-246.98 1642.97,-235.37"/>
<polygon fill="#63b8ff" stroke="#63b8ff" points="1645.7,-237.59 1650.44,-228.12 1640.83,-232.56 1645.7,-237.59"/>
</a>
</g>
</g>
<!-- Node42&#45;&gt;Node5 -->
<g id="edge53_Node000042_Node000005" class="edge">
<title>Node42&#45;&gt;Node5</title>
<g id="a_edge53_Node000042_Node000005"><a xlink:title=" ">
<path fill="none" stroke="#63b8ff" d="M1527.19,-269.97C1325.93,-247.45 756.4,-183.73 530.75,-158.49"/>
<polygon fill="#63b8ff" stroke="#63b8ff" points="530.92,-154.99 520.6,-157.35 530.14,-161.94 530.92,-154.99"/>
</a>
</g>
</g>
<!-- Node42&#45;&gt;Node9 -->
<g id="edge55_Node000042_Node000009" class="edge">
<title>Node42&#45;&gt;Node9</title>
<g id="a_edge55_Node000042_Node000009"><a xlink:title=" ">
<path fill="none" stroke="#63b8ff" d="M1539.89,-269.47C1336.78,-240.02 668.23,-141.9 456,-96 445.21,-93.67 433.61,-90.69 422.99,-87.76"/>
<polygon fill="#63b8ff" stroke="#63b8ff" points="423.73,-84.34 413.15,-85 421.83,-91.07 423.73,-84.34"/>
</a>
</g>
</g>
<!-- Node42&#45;&gt;Node11 -->
<g id="edge54_Node000042_Node000011" class="edge">
<title>Node42&#45;&gt;Node11</title>
<g id="a_edge54_Node000042_Node000011"><a xlink:title=" ">
<path fill="none" stroke="#63b8ff" d="M1670.77,-269.88C1696.96,-263.04 1724.04,-250.59 1740,-228 1752.29,-210.6 1741.73,-187.3 1730.23,-170.33"/>
<polygon fill="#63b8ff" stroke="#63b8ff" points="1732.95,-168.13 1724.24,-162.1 1727.29,-172.25 1732.95,-168.13"/>
</a>
</g>
</g>
<!-- Node43 -->
<g id="Node000043" class="node">
<title>Node43</title>
<g id="a_Node000043"><a xlink:title=" ">
<polygon fill="#e0e0e0" stroke="#999999" points="1513,-222.5 1453,-222.5 1453,-203.5 1513,-203.5 1513,-222.5"/>
<text text-anchor="middle" x="1483" y="-210.5" font-family="Helvetica,sans-Serif" font-size="10.00">concepts</text>
</a>
</g>
</g>
<!-- Node42&#45;&gt;Node43 -->
<g id="edge56_Node000042_Node000043" class="edge">
<title>Node42&#45;&gt;Node43</title>
<g id="a_edge56_Node000042_Node000043"><a xlink:title=" ">
<path fill="none" stroke="#63b8ff" d="M1583.36,-269.37C1563.9,-258.63 1530.45,-240.18 1507.56,-227.55"/>
<polygon fill="#63b8ff" stroke="#63b8ff" points="1509.21,-224.47 1498.77,-222.7 1505.83,-230.59 1509.21,-224.47"/>
</a>
</g>
</g>
<!-- Node44 -->
<g id="Node000044" class="node">
<title>Node44</title>
<g id="a_Node000044"><a xlink:title=" ">
<polygon fill="#e0e0e0" stroke="#999999" points="1581,-222.5 1531,-222.5 1531,-203.5 1581,-203.5 1581,-222.5"/>
<text text-anchor="middle" x="1556" y="-210.5" font-family="Helvetica,sans-Serif" font-size="10.00">ranges</text>
</a>
</g>
</g>
<!-- Node42&#45;&gt;Node44 -->
<g id="edge57_Node000042_Node000044" class="edge">
<title>Node42&#45;&gt;Node44</title>
<g id="a_edge57_Node000042_Node000044"><a xlink:title=" ">
<path fill="none" stroke="#63b8ff" d="M1593.2,-269.37C1586.7,-259.69 1575.98,-243.74 1567.72,-231.44"/>
<polygon fill="#63b8ff" stroke="#63b8ff" points="1570.47,-229.25 1561.98,-222.91 1564.65,-233.16 1570.47,-229.25"/>
</a>
</g>
</g>
</g>
</svg>
