<?xml version="1.0" encoding="UTF-8" standalone="no"?>
<!DOCTYPE svg PUBLIC "-//W3C//DTD SVG 1.1//EN"
 "http://www.w3.org/Graphics/SVG/1.1/DTD/svg11.dtd">
<!-- Generated by graphviz version 2.43.0 (0)
 -->
<!-- Title: include/Hermes/Socket/Sync/_base/Accept/DefaultAcceptPolicy.hpp Pages: 1 -->
<svg width="3202pt" height="456pt"
 viewBox="0.00 0.00 3202.00 456.00" xmlns="http://www.w3.org/2000/svg" xmlns:xlink="http://www.w3.org/1999/xlink">
<g id="graph0" class="graph" transform="scale(1 1) rotate(0) translate(4 452)">
<title>include/Hermes/Socket/Sync/_base/Accept/DefaultAcceptPolicy.hpp</title>
<!-- Node1 -->
<g id="Node000001" class="node">
<title>Node1</title>
<g id="a_Node000001"><a xlink:title=" ">
<polygon fill="#999999" stroke="#666666" points="2256.5,-448 2074.5,-448 2074.5,-407 2256.5,-407 2256.5,-448"/>
<text text-anchor="start" x="2082.5" y="-436" font-family="Helvetica,sans-Serif" font-size="10.00">include/Hermes/Socket</text>
<text text-anchor="start" x="2082.5" y="-425" font-family="Helvetica,sans-Serif" font-size="10.00">/Sync/_base/Accept/DefaultAccept</text>
<text text-anchor="middle" x="2165.5" y="-414" font-family="Helvetica,sans-Serif" font-size="10.00">Policy.hpp</text>
</a>
</g>
</g>
<!-- Node2 -->
<g id="Node000002" class="node">
<title>Node2</title>
<g id="a_Node000002"><a xlink:href="_default_socket_data_8hpp.html" target="_top" xlink:title=" ">
<polygon fill="white" stroke="#666666" points="1778.5,-365.5 1646.5,-365.5 1646.5,-335.5 1778.5,-335.5 1778.5,-365.5"/>
<text text-anchor="start" x="1654.5" y="-353.5" font-family="Helvetica,sans-Serif" font-size="10.00">Hermes/Socket/Data</text>
<text text-anchor="middle" x="1712.5" y="-342.5" font-family="Helvetica,sans-Serif" font-size="10.00">/DefaultSocketData.hpp</text>
</a>
</g>
</g>
<!-- Node1&#45;&gt;Node2 -->
<g id="edge1_Node000001_Node000002" class="edge">
<title>Node1&#45;&gt;Node2</title>
<g id="a_edge1_Node000001_Node000002"><a xlink:title=" ">
<path fill="none" stroke="#63b8ff" d="M2074.37,-411.41C1990.55,-397.53 1867.66,-377.19 1788.86,-364.14"/>
<polygon fill="#63b8ff" stroke="#63b8ff" points="1788.96,-360.61 1778.53,-362.43 1787.82,-367.52 1788.96,-360.61"/>
</a>
</g>
</g>
<!-- Node5 -->
<g id="Node000005" class="node">
<title>Node5</title>
<g id="a_Node000005"><a xlink:href="_connection_error_enum_8hpp.html" target="_top" xlink:title=" ">
<polygon fill="white" stroke="#666666" points="2654,-162 2487,-162 2487,-132 2654,-132 2654,-162"/>
<text text-anchor="start" x="2495" y="-150" font-family="Helvetica,sans-Serif" font-size="10.00">Hermes/_base/ConnectionError</text>
<text text-anchor="middle" x="2570.5" y="-139" font-family="Helvetica,sans-Serif" font-size="10.00">Enum.hpp</text>
</a>
</g>
</g>
<!-- Node1&#45;&gt;Node5 -->
<g id="edge61_Node000001_Node000005" class="edge">
<title>Node1&#45;&gt;Node5</title>
<g id="a_edge61_Node000001_Node000005"><a xlink:title=" ">
<path fill="none" stroke="#63b8ff" d="M2171.15,-406.9C2178.12,-385.69 2191.78,-351.94 2213.5,-330 2299.17,-243.48 2434.56,-190.2 2511.64,-165.14"/>
<polygon fill="#63b8ff" stroke="#63b8ff" points="2512.75,-168.46 2521.2,-162.08 2510.61,-161.8 2512.75,-168.46"/>
</a>
</g>
</g>
<!-- Node44 -->
<g id="Node000044" class="node">
<title>Node44</title>
<g id="a_Node000044"><a xlink:href="__base_8hpp.html" target="_top" xlink:title=" ">
<polygon fill="white" stroke="#666666" points="2150,-288.5 2007,-288.5 2007,-269.5 2150,-269.5 2150,-288.5"/>
<text text-anchor="middle" x="2078.5" y="-276.5" font-family="Helvetica,sans-Serif" font-size="10.00">Hermes/Socket/_base.hpp</text>
</a>
</g>
</g>
<!-- Node1&#45;&gt;Node44 -->
<g id="edge62_Node000001_Node000044" class="edge">
<title>Node1&#45;&gt;Node44</title>
<g id="a_edge62_Node000001_Node000044"><a xlink:title=" ">
<path fill="none" stroke="#63b8ff" d="M2153.77,-406.74C2136.67,-377.94 2105.16,-324.89 2088.87,-297.46"/>
<polygon fill="#63b8ff" stroke="#63b8ff" points="2091.72,-295.41 2083.61,-288.6 2085.7,-298.98 2091.72,-295.41"/>
</a>
</g>
</g>
<!-- Node48 -->
<g id="Node000048" class="node">
<title>Node48</title>
<g id="a_Node000048"><a xlink:title=" ">
<polygon fill="#e0e0e0" stroke="#999999" points="2378.5,-371 2222.5,-371 2222.5,-330 2378.5,-330 2378.5,-371"/>
<text text-anchor="start" x="2230.5" y="-359" font-family="Helvetica,sans-Serif" font-size="10.00">Hermes/Socket/Sync</text>
<text text-anchor="start" x="2230.5" y="-348" font-family="Helvetica,sans-Serif" font-size="10.00">/_base/Accept/DefaultAccept</text>
<text text-anchor="middle" x="2300.5" y="-337" font-family="Helvetica,sans-Serif" font-size="10.00">Policy.tpp</text>
</a>
</g>
</g>
<!-- Node1&#45;&gt;Node48 -->
<g id="edge63_Node000001_Node000048" class="edge">
<title>Node1&#45;&gt;Node48</title>
<g id="a_edge63_Node000001_Node000048"><a xlink:title=" ">
<path fill="none" stroke="#63b8ff" d="M2200.62,-406.99C2217.52,-397.6 2237.96,-386.24 2255.94,-376.25"/>
<polygon fill="#63b8ff" stroke="#63b8ff" points="2258.05,-379.09 2265.09,-371.17 2254.65,-372.97 2258.05,-379.09"/>
</a>
</g>
</g>
<!-- Node3 -->
<g id="Node000003" class="node">
<title>Node3</title>
<g id="a_Node000003"><a xlink:href="_ip_endpoint_8hpp.html" target="_top" xlink:title=" ">
<polygon fill="white" stroke="#666666" points="1469,-294 1314,-294 1314,-264 1469,-264 1469,-294"/>
<text text-anchor="start" x="1322" y="-282" font-family="Helvetica,sans-Serif" font-size="10.00">Hermes/Endpoint/IpEndpoint</text>
<text text-anchor="middle" x="1391.5" y="-271" font-family="Helvetica,sans-Serif" font-size="10.00">/IpEndpoint.hpp</text>
</a>
</g>
</g>
<!-- Node2&#45;&gt;Node3 -->
<g id="edge2_Node000002_Node000003" class="edge">
<title>Node2&#45;&gt;Node3</title>
<g id="a_edge2_Node000002_Node000003"><a xlink:title=" ">
<path fill="none" stroke="#63b8ff" d="M1647.54,-335.44C1595.11,-324.08 1521.3,-308.1 1466.39,-296.21"/>
<polygon fill="#63b8ff" stroke="#63b8ff" points="1466.88,-292.74 1456.36,-294.04 1465.4,-299.58 1466.88,-292.74"/>
</a>
</g>
</g>
<!-- Node43 -->
<g id="Node000043" class="node">
<title>Node43</title>
<g id="a_Node000043"><a xlink:title=" ">
<polygon fill="#e0e0e0" stroke="#999999" points="1737.5,-288.5 1687.5,-288.5 1687.5,-269.5 1737.5,-269.5 1737.5,-288.5"/>
<text text-anchor="middle" x="1712.5" y="-276.5" font-family="Helvetica,sans-Serif" font-size="10.00">chrono</text>
</a>
</g>
</g>
<!-- Node2&#45;&gt;Node43 -->
<g id="edge53_Node000002_Node000043" class="edge">
<title>Node2&#45;&gt;Node43</title>
<g id="a_edge53_Node000002_Node000043"><a xlink:title=" ">
<path fill="none" stroke="#63b8ff" d="M1712.5,-335.44C1712.5,-324.96 1712.5,-310.55 1712.5,-299.05"/>
<polygon fill="#63b8ff" stroke="#63b8ff" points="1716,-298.77 1712.5,-288.77 1709,-298.77 1716,-298.77"/>
</a>
</g>
</g>
<!-- Node2&#45;&gt;Node44 -->
<g id="edge54_Node000002_Node000044" class="edge">
<title>Node2&#45;&gt;Node44</title>
<g id="a_edge54_Node000002_Node000044"><a xlink:title=" ">
<path fill="none" stroke="#63b8ff" d="M1778.78,-336.91C1848.78,-323.62 1957.89,-302.9 2023.36,-290.47"/>
<polygon fill="#63b8ff" stroke="#63b8ff" points="2024.31,-293.85 2033.48,-288.55 2023,-286.98 2024.31,-293.85"/>
</a>
</g>
</g>
<!-- Node47 -->
<g id="Node000047" class="node">
<title>Node47</title>
<g id="a_Node000047"><a xlink:title=" ">
<polygon fill="#e0e0e0" stroke="#999999" points="1295.5,-294 1165.5,-294 1165.5,-264 1295.5,-264 1295.5,-294"/>
<text text-anchor="start" x="1173.5" y="-282" font-family="Helvetica,sans-Serif" font-size="10.00">Hermes/Socket/Data</text>
<text text-anchor="middle" x="1230.5" y="-271" font-family="Helvetica,sans-Serif" font-size="10.00">/DefaultSocketData.tpp</text>
</a>
</g>
</g>
<!-- Node2&#45;&gt;Node47 -->
<g id="edge60_Node000002_Node000047" class="edge">
<title>Node2&#45;&gt;Node47</title>
<g id="a_edge60_Node000002_Node000047"><a xlink:title=" ">
<path fill="none" stroke="#63b8ff" d="M1646.27,-341.56C1567.56,-331.89 1432.01,-314.47 1306.05,-294.2"/>
<polygon fill="#63b8ff" stroke="#63b8ff" points="1306.27,-290.69 1295.84,-292.55 1305.15,-297.6 1306.27,-290.69"/>
</a>
</g>
</g>
<!-- Node4 -->
<g id="Node000004" class="node">
<title>Node4</title>
<g id="a_Node000004"><a xlink:href="_endpoint_concept_8hpp.html" target="_top" xlink:title=" ">
<polygon fill="white" stroke="#666666" points="1793.5,-228 1661.5,-228 1661.5,-198 1793.5,-198 1793.5,-228"/>
<text text-anchor="start" x="1669.5" y="-216" font-family="Helvetica,sans-Serif" font-size="10.00">Hermes/Endpoint/_base</text>
<text text-anchor="middle" x="1727.5" y="-205" font-family="Helvetica,sans-Serif" font-size="10.00">/EndpointConcept.hpp</text>
</a>
</g>
</g>
<!-- Node3&#45;&gt;Node4 -->
<g id="edge3_Node000003_Node000004" class="edge">
<title>Node3&#45;&gt;Node4</title>
<g id="a_edge3_Node000003_Node000004"><a xlink:title=" ">
<path fill="none" stroke="#63b8ff" d="M1465.24,-263.95C1520.34,-253.46 1595.45,-239.15 1651.17,-228.54"/>
<polygon fill="#63b8ff" stroke="#63b8ff" points="1652.17,-231.91 1661.33,-226.6 1650.86,-225.04 1652.17,-231.91"/>
</a>
</g>
</g>
<!-- Node32 -->
<g id="Node000032" class="node">
<title>Node32</title>
<g id="a_Node000032"><a xlink:href="_ip_address_8hpp.html" target="_top" xlink:title=" ">
<polygon fill="white" stroke="#666666" points="1243,-228 1088,-228 1088,-198 1243,-198 1243,-228"/>
<text text-anchor="start" x="1096" y="-216" font-family="Helvetica,sans-Serif" font-size="10.00">Hermes/Endpoint/IpEndpoint</text>
<text text-anchor="middle" x="1165.5" y="-205" font-family="Helvetica,sans-Serif" font-size="10.00">/IpAddress.hpp</text>
</a>
</g>
</g>
<!-- Node3&#45;&gt;Node32 -->
<g id="edge38_Node000003_Node000032" class="edge">
<title>Node3&#45;&gt;Node32</title>
<g id="a_edge38_Node000003_Node000032"><a xlink:title=" ">
<path fill="none" stroke="#63b8ff" d="M1341.9,-263.95C1307.46,-254.2 1261.4,-241.16 1224.98,-230.84"/>
<polygon fill="#63b8ff" stroke="#63b8ff" points="1225.56,-227.37 1214.98,-228.01 1223.65,-234.1 1225.56,-227.37"/>
</a>
</g>
</g>
<!-- Node33 -->
<g id="Node000033" class="node">
<title>Node33</title>
<g id="a_Node000033"><a xlink:href="_hash_8hpp.html" target="_top" xlink:title=" ">
<polygon fill="white" stroke="#666666" points="509,-156.5 380,-156.5 380,-137.5 509,-137.5 509,-156.5"/>
<text text-anchor="middle" x="444.5" y="-144.5" font-family="Helvetica,sans-Serif" font-size="10.00">Hermes/Utils/Hash.hpp</text>
</a>
</g>
</g>
<!-- Node3&#45;&gt;Node33 -->
<g id="edge49_Node000003_Node000033" class="edge">
<title>Node3&#45;&gt;Node33</title>
<g id="a_edge49_Node000003_Node000033"><a xlink:title=" ">
<path fill="none" stroke="#63b8ff" d="M1313.74,-265.32C1310.62,-264.86 1307.53,-264.42 1304.5,-264 1169.31,-245.15 1134.84,-245.74 999.5,-228 822.48,-204.8 614.26,-173.78 510.39,-158.06"/>
<polygon fill="#63b8ff" stroke="#63b8ff" points="510.78,-154.58 500.37,-156.54 509.73,-161.5 510.78,-154.58"/>
</a>
</g>
</g>
<!-- Node37 -->
<g id="Node000037" class="node">
<title>Node37</title>
<g id="a_Node000037"><a xlink:title=" ">
<polygon fill="#e0e0e0" stroke="#999999" points="920.5,-156.5 876.5,-156.5 876.5,-137.5 920.5,-137.5 920.5,-156.5"/>
<text text-anchor="middle" x="898.5" y="-144.5" font-family="Helvetica,sans-Serif" font-size="10.00">string</text>
</a>
</g>
</g>
<!-- Node3&#45;&gt;Node37 -->
<g id="edge51_Node000003_Node000037" class="edge">
<title>Node3&#45;&gt;Node37</title>
<g id="a_edge51_Node000003_Node000037"><a xlink:title=" ">
<path fill="none" stroke="#63b8ff" d="M1313.71,-265.48C1310.6,-264.98 1307.52,-264.48 1304.5,-264 1204.07,-247.92 1176.04,-256.84 1078.5,-228 1020.89,-210.97 957.59,-179.64 923.54,-161.66"/>
<polygon fill="#63b8ff" stroke="#63b8ff" points="924.81,-158.37 914.34,-156.75 921.51,-164.55 924.81,-158.37"/>
</a>
</g>
</g>
<!-- Node39 -->
<g id="Node000039" class="node">
<title>Node39</title>
<g id="a_Node000039"><a xlink:title=" ">
<polygon fill="#e0e0e0" stroke="#999999" points="1366.5,-156.5 1310.5,-156.5 1310.5,-137.5 1366.5,-137.5 1366.5,-156.5"/>
<text text-anchor="middle" x="1338.5" y="-144.5" font-family="Helvetica,sans-Serif" font-size="10.00">optional</text>
</a>
</g>
</g>
<!-- Node3&#45;&gt;Node39 -->
<g id="edge50_Node000003_Node000039" class="edge">
<title>Node3&#45;&gt;Node39</title>
<g id="a_edge50_Node000003_Node000039"><a xlink:title=" ">
<path fill="none" stroke="#63b8ff" d="M1404.98,-263.9C1418.94,-247.49 1437.09,-219.88 1424.5,-198 1418.06,-186.8 1389.77,-171.61 1367.37,-160.92"/>
<polygon fill="#63b8ff" stroke="#63b8ff" points="1368.75,-157.71 1358.21,-156.64 1365.79,-164.05 1368.75,-157.71"/>
</a>
</g>
</g>
<!-- Node42 -->
<g id="Node000042" class="node">
<title>Node42</title>
<g id="a_Node000042"><a xlink:title=" ">
<polygon fill="#e0e0e0" stroke="#999999" points="1416,-228 1261,-228 1261,-198 1416,-198 1416,-228"/>
<text text-anchor="start" x="1269" y="-216" font-family="Helvetica,sans-Serif" font-size="10.00">Hermes/Endpoint/IpEndpoint</text>
<text text-anchor="middle" x="1338.5" y="-205" font-family="Helvetica,sans-Serif" font-size="10.00">/IpEndpoint.tpp</text>
</a>
</g>
</g>
<!-- Node3&#45;&gt;Node42 -->
<g id="edge52_Node000003_Node000042" class="edge">
<title>Node3&#45;&gt;Node42</title>
<g id="a_edge52_Node000003_Node000042"><a xlink:title=" ">
<path fill="none" stroke="#63b8ff" d="M1379.74,-263.8C1372.94,-255.59 1364.26,-245.1 1356.61,-235.87"/>
<polygon fill="#63b8ff" stroke="#63b8ff" points="1359.3,-233.63 1350.23,-228.16 1353.91,-238.1 1359.3,-233.63"/>
</a>
</g>
</g>
<!-- Node4&#45;&gt;Node5 -->
<g id="edge4_Node000004_Node000005" class="edge">
<title>Node4&#45;&gt;Node5</title>
<g id="a_edge4_Node000004_Node000005"><a xlink:title=" ">
<path fill="none" stroke="#63b8ff" d="M1793.65,-206.98C1942.64,-195.67 2304.87,-168.17 2476.87,-155.11"/>
<polygon fill="#63b8ff" stroke="#63b8ff" points="2477.21,-158.59 2486.92,-154.35 2476.68,-151.61 2477.21,-158.59"/>
</a>
</g>
</g>
<!-- Node13 -->
<g id="Node000013" class="node">
<title>Node13</title>
<g id="a_Node000013"><a xlink:href="_os_api_8hpp.html" target="_top" xlink:title=" ">
<polygon fill="white" stroke="#666666" points="1502.5,-162 1384.5,-162 1384.5,-132 1502.5,-132 1502.5,-162"/>
<text text-anchor="start" x="1392.5" y="-150" font-family="Helvetica,sans-Serif" font-size="10.00">Hermes/_base/OsApi</text>
<text text-anchor="middle" x="1443.5" y="-139" font-family="Helvetica,sans-Serif" font-size="10.00">/OsApi.hpp</text>
</a>
</g>
</g>
<!-- Node4&#45;&gt;Node13 -->
<g id="edge12_Node000004_Node000013" class="edge">
<title>Node4&#45;&gt;Node13</title>
<g id="a_edge12_Node000004_Node000013"><a xlink:title=" ">
<path fill="none" stroke="#63b8ff" d="M1665.17,-197.95C1620.15,-187.81 1559.32,-174.1 1512.77,-163.61"/>
<polygon fill="#63b8ff" stroke="#63b8ff" points="1513.29,-160.14 1502.77,-161.36 1511.75,-166.97 1513.29,-160.14"/>
</a>
</g>
</g>
<!-- Node6 -->
<g id="Node000006" class="node">
<title>Node6</title>
<g id="a_Node000006"><a xlink:title=" ">
<polygon fill="#e0e0e0" stroke="#999999" points="2567.5,-85 2505.5,-85 2505.5,-66 2567.5,-66 2567.5,-85"/>
<text text-anchor="middle" x="2536.5" y="-73" font-family="Helvetica,sans-Serif" font-size="10.00">expected</text>
</a>
</g>
</g>
<!-- Node5&#45;&gt;Node6 -->
<g id="edge5_Node000005_Node000006" class="edge">
<title>Node5&#45;&gt;Node6</title>
<g id="a_edge5_Node000005_Node000006"><a xlink:title=" ">
<path fill="none" stroke="#63b8ff" d="M2563.62,-131.94C2558.34,-121.14 2551,-106.15 2545.3,-94.48"/>
<polygon fill="#63b8ff" stroke="#63b8ff" points="2548.33,-92.71 2540.79,-85.27 2542.04,-95.79 2548.33,-92.71"/>
</a>
</g>
</g>
<!-- Node7 -->
<g id="Node000007" class="node">
<title>Node7</title>
<g id="a_Node000007"><a xlink:title=" ">
<polygon fill="#e0e0e0" stroke="#999999" points="2487,-85 2440,-85 2440,-66 2487,-66 2487,-85"/>
<text text-anchor="middle" x="2463.5" y="-73" font-family="Helvetica,sans-Serif" font-size="10.00">vector</text>
</a>
</g>
</g>
<!-- Node5&#45;&gt;Node7 -->
<g id="edge6_Node000005_Node000007" class="edge">
<title>Node5&#45;&gt;Node7</title>
<g id="a_edge6_Node000005_Node000007"><a xlink:title=" ">
<path fill="none" stroke="#63b8ff" d="M2548.85,-131.94C2530.27,-119.87 2503.64,-102.57 2485.08,-90.52"/>
<polygon fill="#63b8ff" stroke="#63b8ff" points="2486.98,-87.58 2476.69,-85.07 2483.17,-93.45 2486.98,-87.58"/>
</a>
</g>
</g>
<!-- Node8 -->
<g id="Node000008" class="node">
<title>Node8</title>
<g id="a_Node000008"><a xlink:title=" ">
<polygon fill="#e0e0e0" stroke="#999999" points="2625.5,-85 2585.5,-85 2585.5,-66 2625.5,-66 2625.5,-85"/>
<text text-anchor="middle" x="2605.5" y="-73" font-family="Helvetica,sans-Serif" font-size="10.00">span</text>
</a>
</g>
</g>
<!-- Node5&#45;&gt;Node8 -->
<g id="edge7_Node000005_Node000008" class="edge">
<title>Node5&#45;&gt;Node8</title>
<g id="a_edge7_Node000005_Node000008"><a xlink:title=" ">
<path fill="none" stroke="#63b8ff" d="M2577.58,-131.94C2583.02,-121.14 2590.57,-106.15 2596.45,-94.48"/>
<polygon fill="#63b8ff" stroke="#63b8ff" points="2599.71,-95.77 2601.08,-85.27 2593.46,-92.62 2599.71,-95.77"/>
</a>
</g>
</g>
<!-- Node9 -->
<g id="Node000009" class="node">
<title>Node9</title>
<g id="a_Node000009"><a xlink:title=" ">
<polygon fill="#e0e0e0" stroke="#999999" points="2713,-85 2644,-85 2644,-66 2713,-66 2713,-85"/>
<text text-anchor="middle" x="2678.5" y="-73" font-family="Helvetica,sans-Serif" font-size="10.00">type_traits</text>
</a>
</g>
</g>
<!-- Node5&#45;&gt;Node9 -->
<g id="edge8_Node000005_Node000009" class="edge">
<title>Node5&#45;&gt;Node9</title>
<g id="a_edge8_Node000005_Node000009"><a xlink:title=" ">
<path fill="none" stroke="#63b8ff" d="M2592.36,-131.94C2611.11,-119.87 2637.99,-102.57 2656.72,-90.52"/>
<polygon fill="#63b8ff" stroke="#63b8ff" points="2658.67,-93.42 2665.19,-85.07 2654.88,-87.54 2658.67,-93.42"/>
</a>
</g>
</g>
<!-- Node10 -->
<g id="Node000010" class="node">
<title>Node10</title>
<g id="a_Node000010"><a xlink:title=" ">
<polygon fill="#e0e0e0" stroke="#999999" points="3194,-85 3069,-85 3069,-66 3194,-66 3194,-85"/>
<text text-anchor="middle" x="3131.5" y="-73" font-family="Helvetica,sans-Serif" font-size="10.00">stdexec/execution.hpp</text>
</a>
</g>
</g>
<!-- Node5&#45;&gt;Node10 -->
<g id="edge9_Node000005_Node000010" class="edge">
<title>Node5&#45;&gt;Node10</title>
<g id="a_edge9_Node000005_Node000010"><a xlink:title=" ">
<path fill="none" stroke="#63b8ff" d="M2654.34,-141.7C2752.39,-135.69 2919.29,-122.41 3060.5,-96 3071.76,-93.9 3083.83,-90.88 3094.77,-87.84"/>
<polygon fill="#63b8ff" stroke="#63b8ff" points="3095.79,-91.19 3104.44,-85.07 3093.86,-84.46 3095.79,-91.19"/>
</a>
</g>
</g>
<!-- Node11 -->
<g id="Node000011" class="node">
<title>Node11</title>
<g id="a_Node000011"><a xlink:title=" ">
<polygon fill="#e0e0e0" stroke="#999999" points="2865.5,-85 2731.5,-85 2731.5,-66 2865.5,-66 2865.5,-85"/>
<text text-anchor="middle" x="2798.5" y="-73" font-family="Helvetica,sans-Serif" font-size="10.00">exec/any_sender_of.hpp</text>
</a>
</g>
</g>
<!-- Node5&#45;&gt;Node11 -->
<g id="edge10_Node000005_Node000011" class="edge">
<title>Node5&#45;&gt;Node11</title>
<g id="a_edge10_Node000005_Node000011"><a xlink:title=" ">
<path fill="none" stroke="#63b8ff" d="M2616.64,-131.94C2659.01,-119.02 2721.06,-100.11 2760.6,-88.05"/>
<polygon fill="#63b8ff" stroke="#63b8ff" points="2761.85,-91.33 2770.39,-85.07 2759.81,-84.64 2761.85,-91.33"/>
</a>
</g>
</g>
<!-- Node12 -->
<g id="Node000012" class="node">
<title>Node12</title>
<g id="a_Node000012"><a xlink:title=" ">
<polygon fill="#e0e0e0" stroke="#999999" points="3051,-90.5 2884,-90.5 2884,-60.5 3051,-60.5 3051,-90.5"/>
<text text-anchor="start" x="2892" y="-78.5" font-family="Helvetica,sans-Serif" font-size="10.00">Hermes/_base/ConnectionError</text>
<text text-anchor="middle" x="2967.5" y="-67.5" font-family="Helvetica,sans-Serif" font-size="10.00">Enum.tpp</text>
</a>
</g>
</g>
<!-- Node5&#45;&gt;Node12 -->
<g id="edge11_Node000005_Node000012" class="edge">
<title>Node5&#45;&gt;Node12</title>
<g id="a_edge11_Node000005_Node000012"><a xlink:title=" ">
<path fill="none" stroke="#63b8ff" d="M2654.22,-133.24C2715.38,-123.67 2800.24,-109.89 2874.5,-96 2880.27,-94.92 2886.22,-93.77 2892.21,-92.58"/>
<polygon fill="#63b8ff" stroke="#63b8ff" points="2893.17,-95.96 2902.28,-90.55 2891.79,-89.09 2893.17,-95.96"/>
</a>
</g>
</g>
<!-- Node14 -->
<g id="Node000014" class="node">
<title>Node14</title>
<g id="a_Node000014"><a xlink:title=" ">
<polygon fill="#e0e0e0" stroke="#999999" points="1126,-19 1049,-19 1049,0 1126,0 1126,-19"/>
<text text-anchor="middle" x="1087.5" y="-7" font-family="Helvetica,sans-Serif" font-size="10.00">sys/socket.h</text>
</a>
</g>
</g>
<!-- Node13&#45;&gt;Node14 -->
<g id="edge13_Node000013_Node000014" class="edge">
<title>Node13&#45;&gt;Node14</title>
<g id="a_edge13_Node000013_Node000014"><a xlink:title=" ">
<path fill="none" stroke="#63b8ff" d="M1502.54,-146.24C1662.58,-146.29 2095.59,-142.1 2138.5,-96 2150.91,-82.66 2151.11,-68.15 2138.5,-55 2103.43,-18.41 1338.72,-11.82 1136.3,-10.71"/>
<polygon fill="#63b8ff" stroke="#63b8ff" points="1136.27,-7.21 1126.25,-10.66 1136.24,-14.21 1136.27,-7.21"/>
</a>
</g>
</g>
<!-- Node15 -->
<g id="Node000015" class="node">
<title>Node15</title>
<g id="a_Node000015"><a xlink:title=" ">
<polygon fill="#e0e0e0" stroke="#999999" points="674.5,-19 602.5,-19 602.5,0 674.5,0 674.5,-19"/>
<text text-anchor="middle" x="638.5" y="-7" font-family="Helvetica,sans-Serif" font-size="10.00">netinet/in.h</text>
</a>
</g>
</g>
<!-- Node13&#45;&gt;Node15 -->
<g id="edge14_Node000013_Node000015" class="edge">
<title>Node13&#45;&gt;Node15</title>
<g id="a_edge14_Node000013_Node000015"><a xlink:title=" ">
<path fill="none" stroke="#63b8ff" d="M1384.25,-133.25C1381.3,-132.79 1378.37,-132.37 1375.5,-132 1296.48,-121.94 720.93,-146.71 659.5,-96 640.1,-79.98 636.96,-49.21 637.2,-29.29"/>
<polygon fill="#63b8ff" stroke="#63b8ff" points="640.7,-29.38 637.61,-19.25 633.7,-29.09 640.7,-29.38"/>
</a>
</g>
</g>
<!-- Node16 -->
<g id="Node000016" class="node">
<title>Node16</title>
<g id="a_Node000016"><a xlink:title=" ">
<polygon fill="#e0e0e0" stroke="#999999" points="2422,-85 2353,-85 2353,-66 2422,-66 2422,-85"/>
<text text-anchor="middle" x="2387.5" y="-73" font-family="Helvetica,sans-Serif" font-size="10.00">arpa/inet.h</text>
</a>
</g>
</g>
<!-- Node13&#45;&gt;Node16 -->
<g id="edge15_Node000013_Node000016" class="edge">
<title>Node13&#45;&gt;Node16</title>
<g id="a_edge15_Node000013_Node000016"><a xlink:title=" ">
<path fill="none" stroke="#63b8ff" d="M1502.66,-145.56C1676.59,-143.8 2184.07,-135.36 2344.5,-96 2350.62,-94.5 2356.94,-92.14 2362.79,-89.58"/>
<polygon fill="#63b8ff" stroke="#63b8ff" points="2364.54,-92.62 2372.08,-85.18 2361.54,-86.3 2364.54,-92.62"/>
</a>
</g>
</g>
<!-- Node17 -->
<g id="Node000017" class="node">
<title>Node17</title>
<g id="a_Node000017"><a xlink:title=" ">
<polygon fill="#e0e0e0" stroke="#999999" points="332,-19 279,-19 279,0 332,0 332,-19"/>
<text text-anchor="middle" x="305.5" y="-7" font-family="Helvetica,sans-Serif" font-size="10.00">netdb.h</text>
</a>
</g>
</g>
<!-- Node13&#45;&gt;Node17 -->
<g id="edge16_Node000013_Node000017" class="edge">
<title>Node13&#45;&gt;Node17</title>
<g id="a_edge16_Node000013_Node000017"><a xlink:title=" ">
<path fill="none" stroke="#63b8ff" d="M1384.26,-133.2C1381.3,-132.75 1378.37,-132.35 1375.5,-132 1269.09,-119.15 508.91,-140.72 411.5,-96 388.92,-85.64 392.48,-71.03 373.5,-55 359.84,-43.46 343.04,-32.44 329.55,-24.25"/>
<polygon fill="#63b8ff" stroke="#63b8ff" points="331.21,-21.17 320.82,-19.06 327.63,-27.18 331.21,-21.17"/>
</a>
</g>
</g>
<!-- Node18 -->
<g id="Node000018" class="node">
<title>Node18</title>
<g id="a_Node000018"><a xlink:title=" ">
<polygon fill="#e0e0e0" stroke="#999999" points="364.5,-85 308.5,-85 308.5,-66 364.5,-66 364.5,-85"/>
<text text-anchor="middle" x="336.5" y="-73" font-family="Helvetica,sans-Serif" font-size="10.00">unistd.h</text>
</a>
</g>
</g>
<!-- Node13&#45;&gt;Node18 -->
<g id="edge17_Node000013_Node000018" class="edge">
<title>Node13&#45;&gt;Node18</title>
<g id="a_edge17_Node000013_Node000018"><a xlink:title=" ">
<path fill="none" stroke="#63b8ff" d="M1384.26,-133.2C1381.3,-132.75 1378.37,-132.35 1375.5,-132 1155.38,-105.55 594.09,-147.7 378.5,-96 372.39,-94.53 366.1,-92.15 360.3,-89.54"/>
<polygon fill="#63b8ff" stroke="#63b8ff" points="361.66,-86.3 351.14,-85.05 358.58,-92.59 361.66,-86.3"/>
</a>
</g>
</g>
<!-- Node19 -->
<g id="Node000019" class="node">
<title>Node19</title>
<g id="a_Node000019"><a xlink:href="_conversion_and_literals_8hpp.html" target="_top" xlink:title=" ">
<polygon fill="white" stroke="#666666" points="2335.5,-90.5 2185.5,-90.5 2185.5,-60.5 2335.5,-60.5 2335.5,-90.5"/>
<text text-anchor="start" x="2193.5" y="-78.5" font-family="Helvetica,sans-Serif" font-size="10.00">Hermes/_base/OsApi</text>
<text text-anchor="middle" x="2260.5" y="-67.5" font-family="Helvetica,sans-Serif" font-size="10.00">/ConversionAndLiterals.hpp</text>
</a>
</g>
</g>
<!-- Node13&#45;&gt;Node19 -->
<g id="edge18_Node000013_Node000019" class="edge">
<title>Node13&#45;&gt;Node19</title>
<g id="a_edge18_Node000013_Node000019"><a xlink:title=" ">
<path fill="none" stroke="#63b8ff" d="M1502.79,-144.88C1627.27,-141.88 1924.76,-131.31 2171.5,-96 2178.23,-95.04 2185.22,-93.85 2192.17,-92.53"/>
<polygon fill="#63b8ff" stroke="#63b8ff" points="2193.18,-95.9 2202.32,-90.53 2191.83,-89.03 2193.18,-95.9"/>
</a>
</g>
</g>
<!-- Node21 -->
<g id="Node000021" class="node">
<title>Node21</title>
<g id="a_Node000021"><a xlink:href="_macros_8hpp.html" target="_top" xlink:title=" ">
<polygon fill="white" stroke="#666666" points="786.5,-90.5 668.5,-90.5 668.5,-60.5 786.5,-60.5 786.5,-90.5"/>
<text text-anchor="start" x="676.5" y="-78.5" font-family="Helvetica,sans-Serif" font-size="10.00">Hermes/_base/OsApi</text>
<text text-anchor="middle" x="727.5" y="-67.5" font-family="Helvetica,sans-Serif" font-size="10.00">/Macros.hpp</text>
</a>
</g>
</g>
<!-- Node13&#45;&gt;Node21 -->
<g id="edge20_Node000013_Node000021" class="edge">
<title>Node13&#45;&gt;Node21</title>
<g id="a_edge20_Node000013_Node000021"><a xlink:title=" ">
<path fill="none" stroke="#63b8ff" d="M1384.25,-133.29C1381.29,-132.82 1378.37,-132.38 1375.5,-132 1119.49,-97.87 1050.02,-139.86 795.5,-96 790.76,-95.18 785.87,-94.16 781,-93.01"/>
<polygon fill="#63b8ff" stroke="#63b8ff" points="781.62,-89.56 771.07,-90.51 779.91,-96.35 781.62,-89.56"/>
</a>
</g>
</g>
<!-- Node23 -->
<g id="Node000023" class="node">
<title>Node23</title>
<g id="a_Node000023"><a xlink:href="_address_family_enum_8hpp.html" target="_top" xlink:title=" ">
<polygon fill="white" stroke="#666666" points="1531.5,-90.5 1355.5,-90.5 1355.5,-60.5 1531.5,-60.5 1531.5,-90.5"/>
<text text-anchor="start" x="1363.5" y="-78.5" font-family="Helvetica,sans-Serif" font-size="10.00">Hermes/_base/OsApi</text>
<text text-anchor="middle" x="1443.5" y="-67.5" font-family="Helvetica,sans-Serif" font-size="10.00">/Enums/AddressFamilyEnum.hpp</text>
</a>
</g>
</g>
<!-- Node13&#45;&gt;Node23 -->
<g id="edge24_Node000013_Node000023" class="edge">
<title>Node13&#45;&gt;Node23</title>
<g id="a_edge24_Node000013_Node000023"><a xlink:title=" ">
<path fill="none" stroke="#63b8ff" d="M1443.5,-131.94C1443.5,-122.99 1443.5,-111.16 1443.5,-100.73"/>
<polygon fill="#63b8ff" stroke="#63b8ff" points="1447,-100.54 1443.5,-90.54 1440,-100.54 1447,-100.54"/>
</a>
</g>
</g>
<!-- Node24 -->
<g id="Node000024" class="node">
<title>Node24</title>
<g id="a_Node000024"><a xlink:href="_protocol_base_type_enum_8hpp.html" target="_top" xlink:title=" ">
<polygon fill="white" stroke="#666666" points="612,-90.5 421,-90.5 421,-60.5 612,-60.5 612,-90.5"/>
<text text-anchor="start" x="429" y="-78.5" font-family="Helvetica,sans-Serif" font-size="10.00">Hermes/_base/OsApi</text>
<text text-anchor="middle" x="516.5" y="-67.5" font-family="Helvetica,sans-Serif" font-size="10.00">/Enums/ProtocolBaseTypeEnum.hpp</text>
</a>
</g>
</g>
<!-- Node13&#45;&gt;Node24 -->
<g id="edge26_Node000013_Node000024" class="edge">
<title>Node13&#45;&gt;Node24</title>
<g id="a_edge26_Node000013_Node000024"><a xlink:title=" ">
<path fill="none" stroke="#63b8ff" d="M1384.25,-133.24C1381.3,-132.78 1378.37,-132.36 1375.5,-132 1044.85,-90.27 957.69,-133.16 626.5,-96 617.2,-94.96 607.5,-93.61 597.88,-92.12"/>
<polygon fill="#63b8ff" stroke="#63b8ff" points="598.33,-88.65 587.91,-90.52 597.22,-95.56 598.33,-88.65"/>
</a>
</g>
</g>
<!-- Node25 -->
<g id="Node000025" class="node">
<title>Node25</title>
<g id="a_Node000025"><a xlink:href="_socket_shutdown_enum_8hpp.html" target="_top" xlink:title=" ">
<polygon fill="white" stroke="#666666" points="990,-90.5 805,-90.5 805,-60.5 990,-60.5 990,-90.5"/>
<text text-anchor="start" x="813" y="-78.5" font-family="Helvetica,sans-Serif" font-size="10.00">Hermes/_base/OsApi</text>
<text text-anchor="middle" x="897.5" y="-67.5" font-family="Helvetica,sans-Serif" font-size="10.00">/Enums/SocketShutdownEnum.hpp</text>
</a>
</g>
</g>
<!-- Node13&#45;&gt;Node25 -->
<g id="edge28_Node000013_Node000025" class="edge">
<title>Node13&#45;&gt;Node25</title>
<g id="a_edge28_Node000013_Node000025"><a xlink:title=" ">
<path fill="none" stroke="#63b8ff" d="M1384.23,-133.4C1381.28,-132.9 1378.36,-132.43 1375.5,-132 1209.05,-106.99 1165.1,-119.98 998.5,-96 990.92,-94.91 983.04,-93.64 975.18,-92.27"/>
<polygon fill="#63b8ff" stroke="#63b8ff" points="975.72,-88.81 965.26,-90.5 974.49,-95.7 975.72,-88.81"/>
</a>
</g>
</g>
<!-- Node26 -->
<g id="Node000026" class="node">
<title>Node26</title>
<g id="a_Node000026"><a xlink:href="_socket_type_enum_8hpp.html" target="_top" xlink:title=" ">
<polygon fill="white" stroke="#666666" points="1167,-90.5 1008,-90.5 1008,-60.5 1167,-60.5 1167,-90.5"/>
<text text-anchor="start" x="1016" y="-78.5" font-family="Helvetica,sans-Serif" font-size="10.00">Hermes/_base/OsApi</text>
<text text-anchor="middle" x="1087.5" y="-67.5" font-family="Helvetica,sans-Serif" font-size="10.00">/Enums/SocketTypeEnum.hpp</text>
</a>
</g>
</g>
<!-- Node13&#45;&gt;Node26 -->
<g id="edge30_Node000013_Node000026" class="edge">
<title>Node13&#45;&gt;Node26</title>
<g id="a_edge30_Node000013_Node000026"><a xlink:title=" ">
<path fill="none" stroke="#63b8ff" d="M1384.18,-133.7C1381.25,-133.12 1378.34,-132.55 1375.5,-132 1287.25,-114.94 1264.64,-113.62 1176.5,-96 1171.17,-94.93 1165.66,-93.8 1160.13,-92.64"/>
<polygon fill="#63b8ff" stroke="#63b8ff" points="1160.67,-89.18 1150.16,-90.53 1159.22,-96.03 1160.67,-89.18"/>
</a>
</g>
</g>
<!-- Node27 -->
<g id="Node000027" class="node">
<title>Node27</title>
<g id="a_Node000027"><a xlink:title=" ">
<polygon fill="#e0e0e0" stroke="#999999" points="1337.5,-96 1185.5,-96 1185.5,-55 1337.5,-55 1337.5,-96"/>
<text text-anchor="start" x="1193.5" y="-84" font-family="Helvetica,sans-Serif" font-size="10.00">Hermes/_base/OsApi</text>
<text text-anchor="start" x="1193.5" y="-73" font-family="Helvetica,sans-Serif" font-size="10.00">/Enums/Linux/EncryptStatus</text>
<text text-anchor="middle" x="1261.5" y="-62" font-family="Helvetica,sans-Serif" font-size="10.00">Enum.hpp</text>
</a>
</g>
</g>
<!-- Node13&#45;&gt;Node27 -->
<g id="edge32_Node000013_Node000027" class="edge">
<title>Node13&#45;&gt;Node27</title>
<g id="a_edge32_Node000013_Node000027"><a xlink:title=" ">
<path fill="none" stroke="#63b8ff" d="M1406.67,-131.94C1382.51,-122.71 1350.35,-110.43 1322.43,-99.77"/>
<polygon fill="#63b8ff" stroke="#63b8ff" points="1323.35,-96.37 1312.76,-96.07 1320.85,-102.91 1323.35,-96.37"/>
</a>
</g>
</g>
<!-- Node28 -->
<g id="Node000028" class="node">
<title>Node28</title>
<g id="a_Node000028"><a xlink:href="_name_info_flags_8hpp.html" target="_top" xlink:title=" ">
<polygon fill="white" stroke="#666666" points="290.5,-90.5 146.5,-90.5 146.5,-60.5 290.5,-60.5 290.5,-90.5"/>
<text text-anchor="start" x="154.5" y="-78.5" font-family="Helvetica,sans-Serif" font-size="10.00">Hermes/_base/OsApi</text>
<text text-anchor="middle" x="218.5" y="-67.5" font-family="Helvetica,sans-Serif" font-size="10.00">/Flags/NameInfoFlags.hpp</text>
</a>
</g>
</g>
<!-- Node13&#45;&gt;Node28 -->
<g id="edge33_Node000013_Node000028" class="edge">
<title>Node13&#45;&gt;Node28</title>
<g id="a_edge33_Node000013_Node000028"><a xlink:title=" ">
<path fill="none" stroke="#63b8ff" d="M1384.26,-133.19C1381.3,-132.74 1378.37,-132.34 1375.5,-132 900.35,-75.55 773.65,-160.33 299.5,-96 293.2,-95.15 286.67,-94.01 280.18,-92.71"/>
<polygon fill="#63b8ff" stroke="#63b8ff" points="280.57,-89.22 270.06,-90.56 279.11,-96.06 280.57,-89.22"/>
</a>
</g>
</g>
<!-- Node29 -->
<g id="Node000029" class="node">
<title>Node29</title>
<g id="a_Node000029"><a xlink:title=" ">
<polygon fill="#e0e0e0" stroke="#999999" points="1725.5,-90.5 1549.5,-90.5 1549.5,-60.5 1725.5,-60.5 1725.5,-90.5"/>
<text text-anchor="start" x="1557.5" y="-78.5" font-family="Helvetica,sans-Serif" font-size="10.00">Hermes/_base/OsApi</text>
<text text-anchor="middle" x="1637.5" y="-67.5" font-family="Helvetica,sans-Serif" font-size="10.00">/Flags/Linux/CredentialFlags.hpp</text>
</a>
</g>
</g>
<!-- Node13&#45;&gt;Node29 -->
<g id="edge35_Node000013_Node000029" class="edge">
<title>Node13&#45;&gt;Node29</title>
<g id="a_edge35_Node000013_Node000029"><a xlink:title=" ">
<path fill="none" stroke="#63b8ff" d="M1482.76,-131.94C1513.26,-121.01 1555.74,-105.79 1588.48,-94.06"/>
<polygon fill="#63b8ff" stroke="#63b8ff" points="1590.07,-97.21 1598.3,-90.54 1587.71,-90.62 1590.07,-97.21"/>
</a>
</g>
</g>
<!-- Node30 -->
<g id="Node000030" class="node">
<title>Node30</title>
<g id="a_Node000030"><a xlink:title=" ">
<polygon fill="#e0e0e0" stroke="#999999" points="1917,-96 1744,-96 1744,-55 1917,-55 1917,-96"/>
<text text-anchor="start" x="1752" y="-84" font-family="Helvetica,sans-Serif" font-size="10.00">Hermes/_base/OsApi</text>
<text text-anchor="start" x="1752" y="-73" font-family="Helvetica,sans-Serif" font-size="10.00">/Flags/Linux/SupportedProtocols</text>
<text text-anchor="middle" x="1830.5" y="-62" font-family="Helvetica,sans-Serif" font-size="10.00">Flags.hpp</text>
</a>
</g>
</g>
<!-- Node13&#45;&gt;Node30 -->
<g id="edge36_Node000013_Node000030" class="edge">
<title>Node13&#45;&gt;Node30</title>
<g id="a_edge36_Node000013_Node000030"><a xlink:title=" ">
<path fill="none" stroke="#63b8ff" d="M1502.67,-136.37C1559.35,-127.03 1647.55,-112.17 1733.94,-96.08"/>
<polygon fill="#63b8ff" stroke="#63b8ff" points="1734.73,-99.49 1743.92,-94.21 1733.44,-92.61 1734.73,-99.49"/>
</a>
</g>
</g>
<!-- Node31 -->
<g id="Node000031" class="node">
<title>Node31</title>
<g id="a_Node000031"><a xlink:title=" ">
<polygon fill="#e0e0e0" stroke="#999999" points="2129.5,-90.5 1935.5,-90.5 1935.5,-60.5 2129.5,-60.5 2129.5,-90.5"/>
<text text-anchor="start" x="1943.5" y="-78.5" font-family="Helvetica,sans-Serif" font-size="10.00">Hermes/_base/OsApi</text>
<text text-anchor="middle" x="2032.5" y="-67.5" font-family="Helvetica,sans-Serif" font-size="10.00">/Flags/Linux/SChannelCredFlags.hpp</text>
</a>
</g>
</g>
<!-- Node13&#45;&gt;Node31 -->
<g id="edge37_Node000013_Node000031" class="edge">
<title>Node13&#45;&gt;Node31</title>
<g id="a_edge37_Node000013_Node000031"><a xlink:title=" ">
<path fill="none" stroke="#63b8ff" d="M1502.8,-141.38C1594.08,-133.92 1774.42,-117.83 1926.5,-96 1934.33,-94.88 1942.47,-93.59 1950.6,-92.23"/>
<polygon fill="#63b8ff" stroke="#63b8ff" points="1951.23,-95.67 1960.5,-90.53 1950.05,-88.77 1951.23,-95.67"/>
</a>
</g>
</g>
<!-- Node20 -->
<g id="Node000020" class="node">
<title>Node20</title>
<g id="a_Node000020"><a xlink:title=" ">
<polygon fill="#e0e0e0" stroke="#999999" points="2285.5,-19 2235.5,-19 2235.5,0 2285.5,0 2285.5,-19"/>
<text text-anchor="middle" x="2260.5" y="-7" font-family="Helvetica,sans-Serif" font-size="10.00">cstdint</text>
</a>
</g>
</g>
<!-- Node19&#45;&gt;Node20 -->
<g id="edge19_Node000019_Node000020" class="edge">
<title>Node19&#45;&gt;Node20</title>
<g id="a_edge19_Node000019_Node000020"><a xlink:title=" ">
<path fill="none" stroke="#63b8ff" d="M2260.5,-60.3C2260.5,-51.2 2260.5,-39.29 2260.5,-29.4"/>
<polygon fill="#63b8ff" stroke="#63b8ff" points="2264,-29.34 2260.5,-19.34 2257,-29.34 2264,-29.34"/>
</a>
</g>
</g>
<!-- Node21&#45;&gt;Node14 -->
<g id="edge22_Node000021_Node000014" class="edge">
<title>Node21&#45;&gt;Node14</title>
<g id="a_edge22_Node000021_Node000014"><a xlink:title=" ">
<path fill="none" stroke="#63b8ff" d="M773.39,-60.48C780.74,-58.48 788.3,-56.57 795.5,-55 880.33,-36.45 980.69,-22.97 1038.93,-15.97"/>
<polygon fill="#63b8ff" stroke="#63b8ff" points="1039.43,-19.44 1048.95,-14.78 1038.61,-12.48 1039.43,-19.44"/>
</a>
</g>
</g>
<!-- Node21&#45;&gt;Node15 -->
<g id="edge23_Node000021_Node000015" class="edge">
<title>Node21&#45;&gt;Node15</title>
<g id="a_edge23_Node000021_Node000015"><a xlink:title=" ">
<path fill="none" stroke="#63b8ff" d="M707.75,-60.3C693.24,-49.87 673.6,-35.74 658.94,-25.19"/>
<polygon fill="#63b8ff" stroke="#63b8ff" points="660.7,-22.16 650.54,-19.16 656.62,-27.84 660.7,-22.16"/>
</a>
</g>
</g>
<!-- Node22 -->
<g id="Node000022" class="node">
<title>Node22</title>
<g id="a_Node000022"><a xlink:title=" ">
<polygon fill="#e0e0e0" stroke="#999999" points="766,-19 693,-19 693,0 766,0 766,-19"/>
<text text-anchor="middle" x="729.5" y="-7" font-family="Helvetica,sans-Serif" font-size="10.00">string_view</text>
</a>
</g>
</g>
<!-- Node21&#45;&gt;Node22 -->
<g id="edge21_Node000021_Node000022" class="edge">
<title>Node21&#45;&gt;Node22</title>
<g id="a_edge21_Node000021_Node000022"><a xlink:title=" ">
<path fill="none" stroke="#63b8ff" d="M727.94,-60.3C728.23,-51.2 728.6,-39.29 728.91,-29.4"/>
<polygon fill="#63b8ff" stroke="#63b8ff" points="732.41,-29.45 729.22,-19.34 725.41,-29.23 732.41,-29.45"/>
</a>
</g>
</g>
<!-- Node23&#45;&gt;Node14 -->
<g id="edge25_Node000023_Node000014" class="edge">
<title>Node23&#45;&gt;Node14</title>
<g id="a_edge25_Node000023_Node000014"><a xlink:title=" ">
<path fill="none" stroke="#63b8ff" d="M1374.92,-60.46C1365.38,-58.58 1355.7,-56.72 1346.5,-55 1273.34,-41.36 1188.25,-27.04 1136.14,-18.44"/>
<polygon fill="#63b8ff" stroke="#63b8ff" points="1136.61,-14.97 1126.18,-16.8 1135.47,-21.87 1136.61,-14.97"/>
</a>
</g>
</g>
<!-- Node24&#45;&gt;Node15 -->
<g id="edge27_Node000024_Node000015" class="edge">
<title>Node24&#45;&gt;Node15</title>
<g id="a_edge27_Node000024_Node000015"><a xlink:title=" ">
<path fill="none" stroke="#63b8ff" d="M543.27,-60.45C564.1,-49.53 592.81,-34.47 613.24,-23.75"/>
<polygon fill="#63b8ff" stroke="#63b8ff" points="615.03,-26.76 622.26,-19.02 611.78,-20.56 615.03,-26.76"/>
</a>
</g>
</g>
<!-- Node25&#45;&gt;Node14 -->
<g id="edge29_Node000025_Node000014" class="edge">
<title>Node25&#45;&gt;Node14</title>
<g id="a_edge29_Node000025_Node000014"><a xlink:title=" ">
<path fill="none" stroke="#63b8ff" d="M939.2,-60.45C973.1,-49.03 1020.41,-33.1 1052.4,-22.32"/>
<polygon fill="#63b8ff" stroke="#63b8ff" points="1053.85,-25.53 1062.21,-19.02 1051.62,-18.89 1053.85,-25.53"/>
</a>
</g>
</g>
<!-- Node26&#45;&gt;Node14 -->
<g id="edge31_Node000026_Node000014" class="edge">
<title>Node26&#45;&gt;Node14</title>
<g id="a_edge31_Node000026_Node000014"><a xlink:title=" ">
<path fill="none" stroke="#63b8ff" d="M1087.5,-60.3C1087.5,-51.2 1087.5,-39.29 1087.5,-29.4"/>
<polygon fill="#63b8ff" stroke="#63b8ff" points="1091,-29.34 1087.5,-19.34 1084,-29.34 1091,-29.34"/>
</a>
</g>
</g>
<!-- Node28&#45;&gt;Node17 -->
<g id="edge34_Node000028_Node000017" class="edge">
<title>Node28&#45;&gt;Node17</title>
<g id="a_edge34_Node000028_Node000017"><a xlink:title=" ">
<path fill="none" stroke="#63b8ff" d="M237.81,-60.3C251.99,-49.87 271.19,-35.74 285.52,-25.19"/>
<polygon fill="#63b8ff" stroke="#63b8ff" points="287.75,-27.9 293.73,-19.16 283.6,-22.26 287.75,-27.9"/>
</a>
</g>
</g>
<!-- Node32&#45;&gt;Node7 -->
<g id="edge46_Node000032_Node000007" class="edge">
<title>Node32&#45;&gt;Node7</title>
<g id="a_edge46_Node000032_Node000007"><a xlink:title=" ">
<path fill="none" stroke="#63b8ff" d="M1243.28,-199.07C1246.05,-198.69 1248.8,-198.34 1251.5,-198 1773.87,-133 1931.29,-259.97 2431.5,-96 2435.67,-94.63 2439.87,-92.63 2443.79,-90.42"/>
<polygon fill="#63b8ff" stroke="#63b8ff" points="2445.66,-93.38 2452.28,-85.1 2441.95,-87.44 2445.66,-93.38"/>
</a>
</g>
</g>
<!-- Node32&#45;&gt;Node33 -->
<g id="edge39_Node000032_Node000033" class="edge">
<title>Node32&#45;&gt;Node33</title>
<g id="a_edge39_Node000032_Node000033"><a xlink:title=" ">
<path fill="none" stroke="#63b8ff" d="M1088,-205.12C948.46,-192.73 656.73,-166.84 519.24,-154.63"/>
<polygon fill="#63b8ff" stroke="#63b8ff" points="519.48,-151.14 509.21,-153.74 518.86,-158.11 519.48,-151.14"/>
</a>
</g>
</g>
<!-- Node36 -->
<g id="Node000036" class="node">
<title>Node36</title>
<g id="a_Node000036"><a xlink:title=" ">
<polygon fill="#e0e0e0" stroke="#999999" points="1154.5,-156.5 1112.5,-156.5 1112.5,-137.5 1154.5,-137.5 1154.5,-156.5"/>
<text text-anchor="middle" x="1133.5" y="-144.5" font-family="Helvetica,sans-Serif" font-size="10.00">array</text>
</a>
</g>
</g>
<!-- Node32&#45;&gt;Node36 -->
<g id="edge42_Node000032_Node000036" class="edge">
<title>Node32&#45;&gt;Node36</title>
<g id="a_edge42_Node000032_Node000036"><a xlink:title=" ">
<path fill="none" stroke="#63b8ff" d="M1158.4,-197.8C1153.7,-188.41 1147.51,-176.02 1142.47,-165.95"/>
<polygon fill="#63b8ff" stroke="#63b8ff" points="1145.52,-164.22 1137.92,-156.84 1139.26,-167.35 1145.52,-164.22"/>
</a>
</g>
</g>
<!-- Node32&#45;&gt;Node37 -->
<g id="edge43_Node000032_Node000037" class="edge">
<title>Node32&#45;&gt;Node37</title>
<g id="a_edge43_Node000032_Node000037"><a xlink:title=" ">
<path fill="none" stroke="#63b8ff" d="M1087.87,-199.9C1041.29,-191.57 981.24,-178.95 929.5,-162 928.06,-161.53 926.6,-161.01 925.14,-160.46"/>
<polygon fill="#63b8ff" stroke="#63b8ff" points="926.2,-157.11 915.62,-156.52 923.52,-163.58 926.2,-157.11"/>
</a>
</g>
</g>
<!-- Node38 -->
<g id="Node000038" class="node">
<title>Node38</title>
<g id="a_Node000038"><a xlink:title=" ">
<polygon fill="#e0e0e0" stroke="#999999" points="1224,-156.5 1173,-156.5 1173,-137.5 1224,-137.5 1224,-156.5"/>
<text text-anchor="middle" x="1198.5" y="-144.5" font-family="Helvetica,sans-Serif" font-size="10.00">variant</text>
</a>
</g>
</g>
<!-- Node32&#45;&gt;Node38 -->
<g id="edge44_Node000032_Node000038" class="edge">
<title>Node32&#45;&gt;Node38</title>
<g id="a_edge44_Node000032_Node000038"><a xlink:title=" ">
<path fill="none" stroke="#63b8ff" d="M1172.82,-197.8C1177.67,-188.41 1184.05,-176.02 1189.25,-165.95"/>
<polygon fill="#63b8ff" stroke="#63b8ff" points="1192.47,-167.34 1193.94,-156.84 1186.25,-164.13 1192.47,-167.34"/>
</a>
</g>
</g>
<!-- Node32&#45;&gt;Node39 -->
<g id="edge45_Node000032_Node000039" class="edge">
<title>Node32&#45;&gt;Node39</title>
<g id="a_edge45_Node000032_Node000039"><a xlink:title=" ">
<path fill="none" stroke="#63b8ff" d="M1203.93,-197.98C1231.19,-188.01 1268.62,-174.26 1301.5,-162 1303.09,-161.41 1304.72,-160.8 1306.37,-160.18"/>
<polygon fill="#63b8ff" stroke="#63b8ff" points="1307.69,-163.42 1315.81,-156.62 1305.22,-156.87 1307.69,-163.42"/>
</a>
</g>
</g>
<!-- Node40 -->
<g id="Node000040" class="node">
<title>Node40</title>
<g id="a_Node000040"><a xlink:title=" ">
<polygon fill="#e0e0e0" stroke="#999999" points="1292.5,-156.5 1242.5,-156.5 1242.5,-137.5 1292.5,-137.5 1292.5,-156.5"/>
<text text-anchor="middle" x="1267.5" y="-144.5" font-family="Helvetica,sans-Serif" font-size="10.00">format</text>
</a>
</g>
</g>
<!-- Node32&#45;&gt;Node40 -->
<g id="edge47_Node000032_Node000040" class="edge">
<title>Node32&#45;&gt;Node40</title>
<g id="a_edge47_Node000032_Node000040"><a xlink:title=" ">
<path fill="none" stroke="#63b8ff" d="M1187.88,-197.95C1204.91,-187.27 1228.21,-172.65 1245.21,-161.98"/>
<polygon fill="#63b8ff" stroke="#63b8ff" points="1247.32,-164.8 1253.93,-156.52 1243.59,-158.87 1247.32,-164.8"/>
</a>
</g>
</g>
<!-- Node41 -->
<g id="Node000041" class="node">
<title>Node41</title>
<g id="a_Node000041"><a xlink:title=" ">
<polygon fill="#e0e0e0" stroke="#999999" points="1094,-162 939,-162 939,-132 1094,-132 1094,-162"/>
<text text-anchor="start" x="947" y="-150" font-family="Helvetica,sans-Serif" font-size="10.00">Hermes/Endpoint/IpEndpoint</text>
<text text-anchor="middle" x="1016.5" y="-139" font-family="Helvetica,sans-Serif" font-size="10.00">/IpAddress.tpp</text>
</a>
</g>
</g>
<!-- Node32&#45;&gt;Node41 -->
<g id="edge48_Node000032_Node000041" class="edge">
<title>Node32&#45;&gt;Node41</title>
<g id="a_edge48_Node000032_Node000041"><a xlink:title=" ">
<path fill="none" stroke="#63b8ff" d="M1132.8,-197.95C1110.97,-188.58 1082.05,-176.16 1058.51,-166.05"/>
<polygon fill="#63b8ff" stroke="#63b8ff" points="1059.69,-162.74 1049.12,-162.01 1056.93,-169.17 1059.69,-162.74"/>
</a>
</g>
</g>
<!-- Node34 -->
<g id="Node000034" class="node">
<title>Node34</title>
<g id="a_Node000034"><a xlink:title=" ">
<polygon fill="#e0e0e0" stroke="#999999" points="45,-85 0,-85 0,-66 45,-66 45,-85"/>
<text text-anchor="middle" x="22.5" y="-73" font-family="Helvetica,sans-Serif" font-size="10.00">utility</text>
</a>
</g>
</g>
<!-- Node33&#45;&gt;Node34 -->
<g id="edge40_Node000033_Node000034" class="edge">
<title>Node33&#45;&gt;Node34</title>
<g id="a_edge40_Node000033_Node000034"><a xlink:title=" ">
<path fill="none" stroke="#63b8ff" d="M379.89,-146.18C300.7,-144.52 163.49,-135.45 53.5,-96 49.64,-94.61 45.75,-92.69 42.1,-90.58"/>
<polygon fill="#63b8ff" stroke="#63b8ff" points="43.97,-87.62 33.66,-85.18 40.2,-93.52 43.97,-87.62"/>
</a>
</g>
</g>
<!-- Node35 -->
<g id="Node000035" class="node">
<title>Node35</title>
<g id="a_Node000035"><a xlink:title=" ">
<polygon fill="#e0e0e0" stroke="#999999" points="128,-85 63,-85 63,-66 128,-66 128,-85"/>
<text text-anchor="middle" x="95.5" y="-73" font-family="Helvetica,sans-Serif" font-size="10.00">functional</text>
</a>
</g>
</g>
<!-- Node33&#45;&gt;Node35 -->
<g id="edge41_Node000033_Node000035" class="edge">
<title>Node33&#45;&gt;Node35</title>
<g id="a_edge41_Node000033_Node000035"><a xlink:title=" ">
<path fill="none" stroke="#63b8ff" d="M379.83,-140.64C316.89,-134.23 219.06,-121.06 137.5,-96 131.93,-94.29 126.14,-91.98 120.71,-89.56"/>
<polygon fill="#63b8ff" stroke="#63b8ff" points="121.98,-86.28 111.45,-85.16 118.98,-92.61 121.98,-86.28"/>
</a>
</g>
</g>
<!-- Node44&#45;&gt;Node4 -->
<g id="edge55_Node000044_Node000004" class="edge">
<title>Node44&#45;&gt;Node4</title>
<g id="a_edge55_Node000044_Node000004"><a xlink:title=" ">
<path fill="none" stroke="#63b8ff" d="M2031.53,-269.44C1973.22,-258.8 1873,-240.53 1803.65,-227.89"/>
<polygon fill="#63b8ff" stroke="#63b8ff" points="1804.12,-224.41 1793.65,-226.06 1802.86,-231.3 1804.12,-224.41"/>
</a>
</g>
</g>
<!-- Node44&#45;&gt;Node5 -->
<g id="edge56_Node000044_Node000005" class="edge">
<title>Node44&#45;&gt;Node5</title>
<g id="a_edge56_Node000044_Node000005"><a xlink:title=" ">
<path fill="none" stroke="#63b8ff" d="M2077.64,-269.41C2076.52,-252.8 2076.71,-216.29 2097.5,-198 2125.32,-173.52 2346.71,-158.79 2476.51,-152.17"/>
<polygon fill="#63b8ff" stroke="#63b8ff" points="2477.04,-155.65 2486.85,-151.65 2476.69,-148.65 2477.04,-155.65"/>
</a>
</g>
</g>
<!-- Node44&#45;&gt;Node10 -->
<g id="edge57_Node000044_Node000010" class="edge">
<title>Node44&#45;&gt;Node10</title>
<g id="a_edge57_Node000044_Node000010"><a xlink:title=" ">
<path fill="none" stroke="#63b8ff" d="M2133.67,-269.46C2283.5,-245.9 2710.26,-176.4 3060.5,-96 3071.07,-93.57 3082.44,-90.61 3092.91,-87.74"/>
<polygon fill="#63b8ff" stroke="#63b8ff" points="3093.93,-91.09 3102.62,-85.03 3092.05,-84.34 3093.93,-91.09"/>
</a>
</g>
</g>
<!-- Node45 -->
<g id="Node000045" class="node">
<title>Node45</title>
<g id="a_Node000045"><a xlink:title=" ">
<polygon fill="#e0e0e0" stroke="#999999" points="2166.5,-222.5 2106.5,-222.5 2106.5,-203.5 2166.5,-203.5 2166.5,-222.5"/>
<text text-anchor="middle" x="2136.5" y="-210.5" font-family="Helvetica,sans-Serif" font-size="10.00">concepts</text>
</a>
</g>
</g>
<!-- Node44&#45;&gt;Node45 -->
<g id="edge58_Node000044_Node000045" class="edge">
<title>Node44&#45;&gt;Node45</title>
<g id="a_edge58_Node000044_Node000045"><a xlink:title=" ">
<path fill="none" stroke="#63b8ff" d="M2086.32,-269.37C2095.35,-259.4 2110.41,-242.79 2121.67,-230.36"/>
<polygon fill="#63b8ff" stroke="#63b8ff" points="2124.31,-232.67 2128.43,-222.91 2119.12,-227.96 2124.31,-232.67"/>
</a>
</g>
</g>
<!-- Node46 -->
<g id="Node000046" class="node">
<title>Node46</title>
<g id="a_Node000046"><a xlink:title=" ">
<polygon fill="#e0e0e0" stroke="#999999" points="2050.5,-222.5 2000.5,-222.5 2000.5,-203.5 2050.5,-203.5 2050.5,-222.5"/>
<text text-anchor="middle" x="2025.5" y="-210.5" font-family="Helvetica,sans-Serif" font-size="10.00">ranges</text>
</a>
</g>
</g>
<!-- Node44&#45;&gt;Node46 -->
<g id="edge59_Node000044_Node000046" class="edge">
<title>Node44&#45;&gt;Node46</title>
<g id="a_edge59_Node000044_Node000046"><a xlink:title=" ">
<path fill="none" stroke="#63b8ff" d="M2071.35,-269.37C2063.18,-259.5 2049.61,-243.11 2039.34,-230.72"/>
<polygon fill="#63b8ff" stroke="#63b8ff" points="2041.95,-228.37 2032.87,-222.91 2036.56,-232.84 2041.95,-228.37"/>
</a>
</g>
</g>
</g>
</svg>
