<?xml version="1.0" encoding="UTF-8" standalone="no"?>
<!DOCTYPE svg PUBLIC "-//W3C//DTD SVG 1.1//EN"
 "http://www.w3.org/Graphics/SVG/1.1/DTD/svg11.dtd">
<!-- Generated by graphviz version 2.43.0 (0)
 -->
<!-- Title: include/Hermes/Socket/Sync/_base/Accept/DefaultAcceptPolicy.hpp Pages: 1 -->
<svg width="3200pt" height="456pt"
 viewBox="0.00 0.00 3200.00 456.00" xmlns="http://www.w3.org/2000/svg" xmlns:xlink="http://www.w3.org/1999/xlink">
<g id="graph0" class="graph" transform="scale(1 1) rotate(0) translate(4 452)">
<title>include/Hermes/Socket/Sync/_base/Accept/DefaultAcceptPolicy.hpp</title>
<!-- Node1 -->
<g id="Node000001" class="node">
<title>Node1</title>
<g id="a_Node000001"><a xlink:title=" ">
<polygon fill="#999999" stroke="#666666" points="1826.5,-448 1644.5,-448 1644.5,-407 1826.5,-407 1826.5,-448"/>
<text text-anchor="start" x="1652.5" y="-436" font-family="Helvetica,sans-Serif" font-size="10.00">include/Hermes/Socket</text>
<text text-anchor="start" x="1652.5" y="-425" font-family="Helvetica,sans-Serif" font-size="10.00">/Sync/_base/Accept/DefaultAccept</text>
<text text-anchor="middle" x="1735.5" y="-414" font-family="Helvetica,sans-Serif" font-size="10.00">Policy.hpp</text>
</a>
</g>
</g>
<!-- Node2 -->
<g id="Node000002" class="node">
<title>Node2</title>
<g id="a_Node000002"><a xlink:href="_default_socket_data_8hpp.html" target="_top" xlink:title=" ">
<polygon fill="white" stroke="#666666" points="1926.5,-365.5 1794.5,-365.5 1794.5,-335.5 1926.5,-335.5 1926.5,-365.5"/>
<text text-anchor="start" x="1802.5" y="-353.5" font-family="Helvetica,sans-Serif" font-size="10.00">Hermes/Socket/Data</text>
<text text-anchor="middle" x="1860.5" y="-342.5" font-family="Helvetica,sans-Serif" font-size="10.00">/DefaultSocketData.hpp</text>
</a>
</g>
</g>
<!-- Node1&#45;&gt;Node2 -->
<g id="edge1_Node000001_Node000002" class="edge">
<title>Node1&#45;&gt;Node2</title>
<g id="a_edge1_Node000001_Node000002"><a xlink:title=" ">
<path fill="none" stroke="#63b8ff" d="M1768.02,-406.99C1786.54,-395.88 1809.67,-382 1828.17,-370.9"/>
<polygon fill="#63b8ff" stroke="#63b8ff" points="1830.06,-373.85 1836.83,-365.7 1826.46,-367.84 1830.06,-373.85"/>
</a>
</g>
</g>
<!-- Node5 -->
<g id="Node000005" class="node">
<title>Node5</title>
<g id="a_Node000005"><a xlink:href="_connection_error_enum_8hpp.html" target="_top" xlink:title=" ">
<polygon fill="white" stroke="#666666" points="659,-162 492,-162 492,-132 659,-132 659,-162"/>
<text text-anchor="start" x="500" y="-150" font-family="Helvetica,sans-Serif" font-size="10.00">Hermes/_base/ConnectionError</text>
<text text-anchor="middle" x="575.5" y="-139" font-family="Helvetica,sans-Serif" font-size="10.00">Enum.hpp</text>
</a>
</g>
</g>
<!-- Node1&#45;&gt;Node5 -->
<g id="edge61_Node000001_Node000005" class="edge">
<title>Node1&#45;&gt;Node5</title>
<g id="a_edge61_Node000001_Node000005"><a xlink:title=" ">
<path fill="none" stroke="#63b8ff" d="M1653.93,-406.92C1436.37,-354.68 845.15,-212.74 643.75,-164.39"/>
<polygon fill="#63b8ff" stroke="#63b8ff" points="644.43,-160.95 633.89,-162.02 642.8,-167.76 644.43,-160.95"/>
</a>
</g>
</g>
<!-- Node44 -->
<g id="Node000044" class="node">
<title>Node44</title>
<g id="a_Node000044"><a xlink:href="__base_8hpp.html" target="_top" xlink:title=" ">
<polygon fill="white" stroke="#666666" points="1721,-288.5 1578,-288.5 1578,-269.5 1721,-269.5 1721,-288.5"/>
<text text-anchor="middle" x="1649.5" y="-276.5" font-family="Helvetica,sans-Serif" font-size="10.00">Hermes/Socket/_base.hpp</text>
</a>
</g>
</g>
<!-- Node1&#45;&gt;Node44 -->
<g id="edge62_Node000001_Node000044" class="edge">
<title>Node1&#45;&gt;Node44</title>
<g id="a_edge62_Node000001_Node000044"><a xlink:title=" ">
<path fill="none" stroke="#63b8ff" d="M1723.9,-406.74C1707,-377.94 1675.85,-324.89 1659.75,-297.46"/>
<polygon fill="#63b8ff" stroke="#63b8ff" points="1662.63,-295.45 1654.55,-288.6 1656.59,-298.99 1662.63,-295.45"/>
</a>
</g>
</g>
<!-- Node48 -->
<g id="Node000048" class="node">
<title>Node48</title>
<g id="a_Node000048"><a xlink:title=" ">
<polygon fill="#e0e0e0" stroke="#999999" points="2100.5,-371 1944.5,-371 1944.5,-330 2100.5,-330 2100.5,-371"/>
<text text-anchor="start" x="1952.5" y="-359" font-family="Helvetica,sans-Serif" font-size="10.00">Hermes/Socket/Sync</text>
<text text-anchor="start" x="1952.5" y="-348" font-family="Helvetica,sans-Serif" font-size="10.00">/_base/Accept/DefaultAccept</text>
<text text-anchor="middle" x="2022.5" y="-337" font-family="Helvetica,sans-Serif" font-size="10.00">Policy.tpp</text>
</a>
</g>
</g>
<!-- Node1&#45;&gt;Node48 -->
<g id="edge63_Node000001_Node000048" class="edge">
<title>Node1&#45;&gt;Node48</title>
<g id="a_edge63_Node000001_Node000048"><a xlink:title=" ">
<path fill="none" stroke="#63b8ff" d="M1810.16,-406.99C1849.28,-396.77 1897.36,-384.2 1937.86,-373.62"/>
<polygon fill="#63b8ff" stroke="#63b8ff" points="1938.93,-376.96 1947.72,-371.04 1937.16,-370.18 1938.93,-376.96"/>
</a>
</g>
</g>
<!-- Node3 -->
<g id="Node000003" class="node">
<title>Node3</title>
<g id="a_Node000003"><a xlink:href="_ip_endpoint_8hpp.html" target="_top" xlink:title=" ">
<polygon fill="white" stroke="#666666" points="1982,-294 1827,-294 1827,-264 1982,-264 1982,-294"/>
<text text-anchor="start" x="1835" y="-282" font-family="Helvetica,sans-Serif" font-size="10.00">Hermes/Endpoint/IpEndpoint</text>
<text text-anchor="middle" x="1904.5" y="-271" font-family="Helvetica,sans-Serif" font-size="10.00">/IpEndpoint.hpp</text>
</a>
</g>
</g>
<!-- Node2&#45;&gt;Node3 -->
<g id="edge2_Node000002_Node000003" class="edge">
<title>Node2&#45;&gt;Node3</title>
<g id="a_edge2_Node000002_Node000003"><a xlink:title=" ">
<path fill="none" stroke="#63b8ff" d="M1869.4,-335.44C1875.37,-326.02 1883.35,-313.41 1890.2,-302.59"/>
<polygon fill="#63b8ff" stroke="#63b8ff" points="1893.22,-304.36 1895.61,-294.04 1887.3,-300.62 1893.22,-304.36"/>
</a>
</g>
</g>
<!-- Node43 -->
<g id="Node000043" class="node">
<title>Node43</title>
<g id="a_Node000043"><a xlink:title=" ">
<polygon fill="#e0e0e0" stroke="#999999" points="2050.5,-288.5 2000.5,-288.5 2000.5,-269.5 2050.5,-269.5 2050.5,-288.5"/>
<text text-anchor="middle" x="2025.5" y="-276.5" font-family="Helvetica,sans-Serif" font-size="10.00">chrono</text>
</a>
</g>
</g>
<!-- Node2&#45;&gt;Node43 -->
<g id="edge52_Node000002_Node000043" class="edge">
<title>Node2&#45;&gt;Node43</title>
<g id="a_edge52_Node000002_Node000043"><a xlink:title=" ">
<path fill="none" stroke="#63b8ff" d="M1893.89,-335.44C1923.71,-322.88 1966.99,-304.65 1995.67,-292.57"/>
<polygon fill="#63b8ff" stroke="#63b8ff" points="1997.3,-295.68 2005.16,-288.57 1994.58,-289.22 1997.3,-295.68"/>
</a>
</g>
</g>
<!-- Node2&#45;&gt;Node44 -->
<g id="edge53_Node000002_Node000044" class="edge">
<title>Node2&#45;&gt;Node44</title>
<g id="a_edge53_Node000002_Node000044"><a xlink:title=" ">
<path fill="none" stroke="#63b8ff" d="M1817.8,-335.44C1778.84,-322.6 1721.9,-303.85 1685.27,-291.78"/>
<polygon fill="#63b8ff" stroke="#63b8ff" points="1686.1,-288.37 1675.51,-288.57 1683.91,-295.02 1686.1,-288.37"/>
</a>
</g>
</g>
<!-- Node47 -->
<g id="Node000047" class="node">
<title>Node47</title>
<g id="a_Node000047"><a xlink:title=" ">
<polygon fill="#e0e0e0" stroke="#999999" points="2198.5,-294 2068.5,-294 2068.5,-264 2198.5,-264 2198.5,-294"/>
<text text-anchor="start" x="2076.5" y="-282" font-family="Helvetica,sans-Serif" font-size="10.00">Hermes/Socket/Data</text>
<text text-anchor="middle" x="2133.5" y="-271" font-family="Helvetica,sans-Serif" font-size="10.00">/DefaultSocketData.tpp</text>
</a>
</g>
</g>
<!-- Node2&#45;&gt;Node47 -->
<g id="edge60_Node000002_Node000047" class="edge">
<title>Node2&#45;&gt;Node47</title>
<g id="a_edge60_Node000002_Node000047"><a xlink:title=" ">
<path fill="none" stroke="#63b8ff" d="M1914.56,-335.4C1921.6,-333.57 1928.72,-331.74 1935.5,-330 1979.48,-318.73 2029,-306.22 2067.52,-296.54"/>
<polygon fill="#63b8ff" stroke="#63b8ff" points="2068.73,-299.84 2077.57,-294.01 2067.02,-293.06 2068.73,-299.84"/>
</a>
</g>
</g>
<!-- Node4 -->
<g id="Node000004" class="node">
<title>Node4</title>
<g id="a_Node000004"><a xlink:href="_endpoint_concept_8hpp.html" target="_top" xlink:title=" ">
<polygon fill="white" stroke="#666666" points="1781.5,-228 1649.5,-228 1649.5,-198 1781.5,-198 1781.5,-228"/>
<text text-anchor="start" x="1657.5" y="-216" font-family="Helvetica,sans-Serif" font-size="10.00">Hermes/Endpoint/_base</text>
<text text-anchor="middle" x="1715.5" y="-205" font-family="Helvetica,sans-Serif" font-size="10.00">/EndpointConcept.hpp</text>
</a>
</g>
</g>
<!-- Node3&#45;&gt;Node4 -->
<g id="edge3_Node000003_Node000004" class="edge">
<title>Node3&#45;&gt;Node4</title>
<g id="a_edge3_Node000003_Node000004"><a xlink:title=" ">
<path fill="none" stroke="#63b8ff" d="M1863.02,-263.95C1834.59,-254.33 1796.68,-241.49 1766.42,-231.24"/>
<polygon fill="#63b8ff" stroke="#63b8ff" points="1767.47,-227.9 1756.88,-228.01 1765.23,-234.53 1767.47,-227.9"/>
</a>
</g>
</g>
<!-- Node32 -->
<g id="Node000032" class="node">
<title>Node32</title>
<g id="a_Node000032"><a xlink:href="_ip_address_8hpp.html" target="_top" xlink:title=" ">
<polygon fill="white" stroke="#666666" points="2120,-228 1965,-228 1965,-198 2120,-198 2120,-228"/>
<text text-anchor="start" x="1973" y="-216" font-family="Helvetica,sans-Serif" font-size="10.00">Hermes/Endpoint/IpEndpoint</text>
<text text-anchor="middle" x="2042.5" y="-205" font-family="Helvetica,sans-Serif" font-size="10.00">/IpAddress.hpp</text>
</a>
</g>
</g>
<!-- Node3&#45;&gt;Node32 -->
<g id="edge37_Node000003_Node000032" class="edge">
<title>Node3&#45;&gt;Node32</title>
<g id="a_edge37_Node000003_Node000032"><a xlink:title=" ">
<path fill="none" stroke="#63b8ff" d="M1934.78,-263.95C1954.83,-254.66 1981.31,-242.38 2003.01,-232.32"/>
<polygon fill="#63b8ff" stroke="#63b8ff" points="2004.69,-235.39 2012.29,-228.01 2001.74,-229.04 2004.69,-235.39"/>
</a>
</g>
</g>
<!-- Node33 -->
<g id="Node000033" class="node">
<title>Node33</title>
<g id="a_Node000033"><a xlink:href="_hash_8hpp.html" target="_top" xlink:title=" ">
<polygon fill="white" stroke="#666666" points="1969,-156.5 1840,-156.5 1840,-137.5 1969,-137.5 1969,-156.5"/>
<text text-anchor="middle" x="1904.5" y="-144.5" font-family="Helvetica,sans-Serif" font-size="10.00">Hermes/Utils/Hash.hpp</text>
</a>
</g>
</g>
<!-- Node3&#45;&gt;Node33 -->
<g id="edge48_Node000003_Node000033" class="edge">
<title>Node3&#45;&gt;Node33</title>
<g id="a_edge48_Node000003_Node000033"><a xlink:title=" ">
<path fill="none" stroke="#63b8ff" d="M1904.5,-263.84C1904.5,-240.34 1904.5,-193.26 1904.5,-166.93"/>
<polygon fill="#63b8ff" stroke="#63b8ff" points="1908,-166.75 1904.5,-156.75 1901,-166.75 1908,-166.75"/>
</a>
</g>
</g>
<!-- Node37 -->
<g id="Node000037" class="node">
<title>Node37</title>
<g id="a_Node000037"><a xlink:title=" ">
<polygon fill="#e0e0e0" stroke="#999999" points="2477.5,-156.5 2433.5,-156.5 2433.5,-137.5 2477.5,-137.5 2477.5,-156.5"/>
<text text-anchor="middle" x="2455.5" y="-144.5" font-family="Helvetica,sans-Serif" font-size="10.00">string</text>
</a>
</g>
</g>
<!-- Node3&#45;&gt;Node37 -->
<g id="edge50_Node000003_Node000037" class="edge">
<title>Node3&#45;&gt;Node37</title>
<g id="a_edge50_Node000003_Node000037"><a xlink:title=" ">
<path fill="none" stroke="#63b8ff" d="M1982.26,-265.26C1985.38,-264.82 1988.47,-264.4 1991.5,-264 2146.54,-243.57 2194.99,-282.68 2341.5,-228 2380.32,-213.51 2418.26,-182.57 2439.09,-163.69"/>
<polygon fill="#63b8ff" stroke="#63b8ff" points="2441.73,-166.02 2446.69,-156.65 2436.98,-160.88 2441.73,-166.02"/>
</a>
</g>
</g>
<!-- Node39 -->
<g id="Node000039" class="node">
<title>Node39</title>
<g id="a_Node000039"><a xlink:title=" ">
<polygon fill="#e0e0e0" stroke="#999999" points="2415.5,-156.5 2359.5,-156.5 2359.5,-137.5 2415.5,-137.5 2415.5,-156.5"/>
<text text-anchor="middle" x="2387.5" y="-144.5" font-family="Helvetica,sans-Serif" font-size="10.00">optional</text>
</a>
</g>
</g>
<!-- Node3&#45;&gt;Node39 -->
<g id="edge49_Node000003_Node000039" class="edge">
<title>Node3&#45;&gt;Node39</title>
<g id="a_edge49_Node000003_Node000039"><a xlink:title=" ">
<path fill="none" stroke="#63b8ff" d="M1982.16,-264.46C2036.41,-254.3 2103.58,-240.11 2129.5,-228 2149.31,-218.74 2148.58,-207.03 2168.5,-198 2243.6,-163.96 2271.22,-184.67 2350.5,-162 2352.65,-161.39 2354.84,-160.7 2357.04,-159.98"/>
<polygon fill="#63b8ff" stroke="#63b8ff" points="2358.31,-163.24 2366.57,-156.61 2355.98,-156.64 2358.31,-163.24"/>
</a>
</g>
</g>
<!-- Node42 -->
<g id="Node000042" class="node">
<title>Node42</title>
<g id="a_Node000042"><a xlink:title=" ">
<polygon fill="#e0e0e0" stroke="#999999" points="2332,-228 2177,-228 2177,-198 2332,-198 2332,-228"/>
<text text-anchor="start" x="2185" y="-216" font-family="Helvetica,sans-Serif" font-size="10.00">Hermes/Endpoint/IpEndpoint</text>
<text text-anchor="middle" x="2254.5" y="-205" font-family="Helvetica,sans-Serif" font-size="10.00">/IpEndpoint.tpp</text>
</a>
</g>
</g>
<!-- Node3&#45;&gt;Node42 -->
<g id="edge51_Node000003_Node000042" class="edge">
<title>Node3&#45;&gt;Node42</title>
<g id="a_edge51_Node000003_Node000042"><a xlink:title=" ">
<path fill="none" stroke="#63b8ff" d="M1981.31,-263.95C2036.36,-253.89 2110.58,-240.32 2167.76,-229.86"/>
<polygon fill="#63b8ff" stroke="#63b8ff" points="2168.66,-233.25 2177.87,-228.01 2167.4,-226.37 2168.66,-233.25"/>
</a>
</g>
</g>
<!-- Node4&#45;&gt;Node5 -->
<g id="edge4_Node000004_Node000005" class="edge">
<title>Node4&#45;&gt;Node5</title>
<g id="a_edge4_Node000004_Node000005"><a xlink:title=" ">
<path fill="none" stroke="#63b8ff" d="M1649.32,-199.14C1646.35,-198.72 1643.39,-198.34 1640.5,-198 1283.26,-156.47 854.8,-149.18 669.02,-148.08"/>
<polygon fill="#63b8ff" stroke="#63b8ff" points="669.03,-144.58 659.01,-148.02 668.99,-151.58 669.03,-144.58"/>
</a>
</g>
</g>
<!-- Node13 -->
<g id="Node000013" class="node">
<title>Node13</title>
<g id="a_Node000013"><a xlink:href="_os_api_8hpp.html" target="_top" xlink:title=" ">
<polygon fill="white" stroke="#666666" points="1821.5,-162 1703.5,-162 1703.5,-132 1821.5,-132 1821.5,-162"/>
<text text-anchor="start" x="1711.5" y="-150" font-family="Helvetica,sans-Serif" font-size="10.00">Hermes/_base/OsApi</text>
<text text-anchor="middle" x="1762.5" y="-139" font-family="Helvetica,sans-Serif" font-size="10.00">/OsApi.hpp</text>
</a>
</g>
</g>
<!-- Node4&#45;&gt;Node13 -->
<g id="edge12_Node000004_Node000013" class="edge">
<title>Node4&#45;&gt;Node13</title>
<g id="a_edge12_Node000004_Node000013"><a xlink:title=" ">
<path fill="none" stroke="#63b8ff" d="M1725.93,-197.8C1731.83,-189.76 1739.35,-179.53 1746.03,-170.43"/>
<polygon fill="#63b8ff" stroke="#63b8ff" points="1749,-172.3 1752.1,-162.16 1743.36,-168.15 1749,-172.3"/>
</a>
</g>
</g>
<!-- Node6 -->
<g id="Node000006" class="node">
<title>Node6</title>
<g id="a_Node000006"><a xlink:title=" ">
<polygon fill="#e0e0e0" stroke="#999999" points="486.5,-85 424.5,-85 424.5,-66 486.5,-66 486.5,-85"/>
<text text-anchor="middle" x="455.5" y="-73" font-family="Helvetica,sans-Serif" font-size="10.00">expected</text>
</a>
</g>
</g>
<!-- Node5&#45;&gt;Node6 -->
<g id="edge5_Node000005_Node000006" class="edge">
<title>Node5&#45;&gt;Node6</title>
<g id="a_edge5_Node000005_Node000006"><a xlink:title=" ">
<path fill="none" stroke="#63b8ff" d="M551.22,-131.94C530.19,-119.76 499.97,-102.26 479.14,-90.19"/>
<polygon fill="#63b8ff" stroke="#63b8ff" points="480.7,-87.05 470.29,-85.07 477.19,-93.11 480.7,-87.05"/>
</a>
</g>
</g>
<!-- Node7 -->
<g id="Node000007" class="node">
<title>Node7</title>
<g id="a_Node000007"><a xlink:title=" ">
<polygon fill="#e0e0e0" stroke="#999999" points="753,-85 706,-85 706,-66 753,-66 753,-85"/>
<text text-anchor="middle" x="729.5" y="-73" font-family="Helvetica,sans-Serif" font-size="10.00">vector</text>
</a>
</g>
</g>
<!-- Node5&#45;&gt;Node7 -->
<g id="edge6_Node000005_Node000007" class="edge">
<title>Node5&#45;&gt;Node7</title>
<g id="a_edge6_Node000005_Node000007"><a xlink:title=" ">
<path fill="none" stroke="#63b8ff" d="M613.45,-131.92C637.61,-122.56 669.35,-109.55 696.5,-96 699.98,-94.26 703.59,-92.3 707.09,-90.31"/>
<polygon fill="#63b8ff" stroke="#63b8ff" points="709.09,-93.2 715.93,-85.1 705.54,-87.16 709.09,-93.2"/>
</a>
</g>
</g>
<!-- Node8 -->
<g id="Node000008" class="node">
<title>Node8</title>
<g id="a_Node000008"><a xlink:title=" ">
<polygon fill="#e0e0e0" stroke="#999999" points="544.5,-85 504.5,-85 504.5,-66 544.5,-66 544.5,-85"/>
<text text-anchor="middle" x="524.5" y="-73" font-family="Helvetica,sans-Serif" font-size="10.00">span</text>
</a>
</g>
</g>
<!-- Node5&#45;&gt;Node8 -->
<g id="edge7_Node000005_Node000008" class="edge">
<title>Node5&#45;&gt;Node8</title>
<g id="a_edge7_Node000005_Node000008"><a xlink:title=" ">
<path fill="none" stroke="#63b8ff" d="M565.18,-131.94C557.02,-120.81 545.59,-105.24 536.92,-93.43"/>
<polygon fill="#63b8ff" stroke="#63b8ff" points="539.67,-91.26 530.93,-85.27 534.03,-95.4 539.67,-91.26"/>
</a>
</g>
</g>
<!-- Node9 -->
<g id="Node000009" class="node">
<title>Node9</title>
<g id="a_Node000009"><a xlink:title=" ">
<polygon fill="#e0e0e0" stroke="#999999" points="69,-85 0,-85 0,-66 69,-66 69,-85"/>
<text text-anchor="middle" x="34.5" y="-73" font-family="Helvetica,sans-Serif" font-size="10.00">type_traits</text>
</a>
</g>
</g>
<!-- Node5&#45;&gt;Node9 -->
<g id="edge8_Node000005_Node000009" class="edge">
<title>Node5&#45;&gt;Node9</title>
<g id="a_edge8_Node000005_Node000009"><a xlink:title=" ">
<path fill="none" stroke="#63b8ff" d="M491.85,-145.6C391.9,-143.3 220.39,-133.55 78.5,-96 72.39,-94.38 66.06,-92.02 60.16,-89.5"/>
<polygon fill="#63b8ff" stroke="#63b8ff" points="61.31,-86.17 50.76,-85.19 58.4,-92.54 61.31,-86.17"/>
</a>
</g>
</g>
<!-- Node10 -->
<g id="Node000010" class="node">
<title>Node10</title>
<g id="a_Node000010"><a xlink:title=" ">
<polygon fill="#e0e0e0" stroke="#999999" points="688,-85 563,-85 563,-66 688,-66 688,-85"/>
<text text-anchor="middle" x="625.5" y="-73" font-family="Helvetica,sans-Serif" font-size="10.00">stdexec/execution.hpp</text>
</a>
</g>
</g>
<!-- Node5&#45;&gt;Node10 -->
<g id="edge9_Node000005_Node000010" class="edge">
<title>Node5&#45;&gt;Node10</title>
<g id="a_edge9_Node000005_Node000010"><a xlink:title=" ">
<path fill="none" stroke="#63b8ff" d="M585.62,-131.94C593.62,-120.81 604.83,-105.24 613.32,-93.43"/>
<polygon fill="#63b8ff" stroke="#63b8ff" points="616.19,-95.43 619.19,-85.27 610.51,-91.34 616.19,-95.43"/>
</a>
</g>
</g>
<!-- Node11 -->
<g id="Node000011" class="node">
<title>Node11</title>
<g id="a_Node000011"><a xlink:title=" ">
<polygon fill="#e0e0e0" stroke="#999999" points="221.5,-85 87.5,-85 87.5,-66 221.5,-66 221.5,-85"/>
<text text-anchor="middle" x="154.5" y="-73" font-family="Helvetica,sans-Serif" font-size="10.00">exec/any_sender_of.hpp</text>
</a>
</g>
</g>
<!-- Node5&#45;&gt;Node11 -->
<g id="edge10_Node000005_Node000011" class="edge">
<title>Node5&#45;&gt;Node11</title>
<g id="a_edge10_Node000005_Node000011"><a xlink:title=" ">
<path fill="none" stroke="#63b8ff" d="M491.77,-136.42C421.63,-127.78 319.07,-113.73 230.5,-96 218.72,-93.64 206.04,-90.6 194.48,-87.61"/>
<polygon fill="#63b8ff" stroke="#63b8ff" points="195.22,-84.19 184.65,-85.03 193.44,-90.96 195.22,-84.19"/>
</a>
</g>
</g>
<!-- Node12 -->
<g id="Node000012" class="node">
<title>Node12</title>
<g id="a_Node000012"><a xlink:title=" ">
<polygon fill="#e0e0e0" stroke="#999999" points="407,-90.5 240,-90.5 240,-60.5 407,-60.5 407,-90.5"/>
<text text-anchor="start" x="248" y="-78.5" font-family="Helvetica,sans-Serif" font-size="10.00">Hermes/_base/ConnectionError</text>
<text text-anchor="middle" x="323.5" y="-67.5" font-family="Helvetica,sans-Serif" font-size="10.00">Enum.tpp</text>
</a>
</g>
</g>
<!-- Node5&#45;&gt;Node12 -->
<g id="edge11_Node000005_Node000012" class="edge">
<title>Node5&#45;&gt;Node12</title>
<g id="a_edge11_Node000005_Node000012"><a xlink:title=" ">
<path fill="none" stroke="#63b8ff" d="M524.5,-131.94C483.94,-120.75 427.08,-105.07 384.18,-93.23"/>
<polygon fill="#63b8ff" stroke="#63b8ff" points="384.99,-89.83 374.42,-90.54 383.13,-96.58 384.99,-89.83"/>
</a>
</g>
</g>
<!-- Node14 -->
<g id="Node000014" class="node">
<title>Node14</title>
<g id="a_Node000014"><a xlink:title=" ">
<polygon fill="#e0e0e0" stroke="#999999" points="1112,-19 1035,-19 1035,0 1112,0 1112,-19"/>
<text text-anchor="middle" x="1073.5" y="-7" font-family="Helvetica,sans-Serif" font-size="10.00">sys/socket.h</text>
</a>
</g>
</g>
<!-- Node13&#45;&gt;Node14 -->
<g id="edge13_Node000013_Node000014" class="edge">
<title>Node13&#45;&gt;Node14</title>
<g id="a_edge13_Node000013_Node000014"><a xlink:title=" ">
<path fill="none" stroke="#63b8ff" d="M1703.31,-142.77C1521.45,-132.77 982.72,-102.63 976.5,-96 964.03,-82.71 966.66,-70.34 976.5,-55 987.4,-38 1006.61,-27.41 1025.07,-20.85"/>
<polygon fill="#63b8ff" stroke="#63b8ff" points="1026.16,-24.18 1034.6,-17.78 1024.01,-17.52 1026.16,-24.18"/>
</a>
</g>
</g>
<!-- Node15 -->
<g id="Node000015" class="node">
<title>Node15</title>
<g id="a_Node000015"><a xlink:title=" ">
<polygon fill="#e0e0e0" stroke="#999999" points="1755.5,-19 1683.5,-19 1683.5,0 1755.5,0 1755.5,-19"/>
<text text-anchor="middle" x="1719.5" y="-7" font-family="Helvetica,sans-Serif" font-size="10.00">netinet/in.h</text>
</a>
</g>
</g>
<!-- Node13&#45;&gt;Node15 -->
<g id="edge14_Node000013_Node000015" class="edge">
<title>Node13&#45;&gt;Node15</title>
<g id="a_edge14_Node000013_Node000015"><a xlink:title=" ">
<path fill="none" stroke="#63b8ff" d="M1780.13,-131.81C1789.93,-122.74 1801.19,-110.06 1806.5,-96 1812.93,-78.95 1816.01,-70.54 1806.5,-55 1797.1,-39.64 1780.54,-29.36 1764.36,-22.6"/>
<polygon fill="#63b8ff" stroke="#63b8ff" points="1765.54,-19.3 1754.94,-19.01 1763.04,-25.84 1765.54,-19.3"/>
</a>
</g>
</g>
<!-- Node16 -->
<g id="Node000016" class="node">
<title>Node16</title>
<g id="a_Node000016"><a xlink:title=" ">
<polygon fill="#e0e0e0" stroke="#999999" points="1797,-85 1728,-85 1728,-66 1797,-66 1797,-85"/>
<text text-anchor="middle" x="1762.5" y="-73" font-family="Helvetica,sans-Serif" font-size="10.00">arpa/inet.h</text>
</a>
</g>
</g>
<!-- Node13&#45;&gt;Node16 -->
<g id="edge15_Node000013_Node000016" class="edge">
<title>Node13&#45;&gt;Node16</title>
<g id="a_edge15_Node000013_Node000016"><a xlink:title=" ">
<path fill="none" stroke="#63b8ff" d="M1762.5,-131.94C1762.5,-121.46 1762.5,-107.05 1762.5,-95.55"/>
<polygon fill="#63b8ff" stroke="#63b8ff" points="1766,-95.27 1762.5,-85.27 1759,-95.27 1766,-95.27"/>
</a>
</g>
</g>
<!-- Node17 -->
<g id="Node000017" class="node">
<title>Node17</title>
<g id="a_Node000017"><a xlink:title=" ">
<polygon fill="#e0e0e0" stroke="#999999" points="2628,-19 2575,-19 2575,0 2628,0 2628,-19"/>
<text text-anchor="middle" x="2601.5" y="-7" font-family="Helvetica,sans-Serif" font-size="10.00">netdb.h</text>
</a>
</g>
</g>
<!-- Node13&#45;&gt;Node17 -->
<g id="edge16_Node000013_Node000017" class="edge">
<title>Node13&#45;&gt;Node17</title>
<g id="a_edge16_Node000013_Node000017"><a xlink:title=" ">
<path fill="none" stroke="#63b8ff" d="M1821.86,-133.29C1825.12,-132.8 1828.34,-132.37 1831.5,-132 1896.93,-124.42 2970.64,-143.27 3016.5,-96 3029.19,-82.92 3028.68,-68.55 3016.5,-55 2991.41,-27.08 2735,-15.2 2638.21,-11.69"/>
<polygon fill="#63b8ff" stroke="#63b8ff" points="2638.14,-8.18 2628.02,-11.33 2637.89,-15.18 2638.14,-8.18"/>
</a>
</g>
</g>
<!-- Node18 -->
<g id="Node000018" class="node">
<title>Node18</title>
<g id="a_Node000018"><a xlink:title=" ">
<polygon fill="#e0e0e0" stroke="#999999" points="2077.5,-85 2021.5,-85 2021.5,-66 2077.5,-66 2077.5,-85"/>
<text text-anchor="middle" x="2049.5" y="-73" font-family="Helvetica,sans-Serif" font-size="10.00">unistd.h</text>
</a>
</g>
</g>
<!-- Node13&#45;&gt;Node18 -->
<g id="edge17_Node000013_Node000018" class="edge">
<title>Node13&#45;&gt;Node18</title>
<g id="a_edge17_Node000013_Node000018"><a xlink:title=" ">
<path fill="none" stroke="#63b8ff" d="M1821.59,-133.99C1824.94,-133.32 1828.26,-132.65 1831.5,-132 1911.91,-115.85 1935.19,-123.41 2012.5,-96 2017.21,-94.33 2022.07,-92.15 2026.65,-89.85"/>
<polygon fill="#63b8ff" stroke="#63b8ff" points="2028.37,-92.9 2035.53,-85.09 2025.06,-86.73 2028.37,-92.9"/>
</a>
</g>
</g>
<!-- Node19 -->
<g id="Node000019" class="node">
<title>Node19</title>
<g id="a_Node000019"><a xlink:href="_conversion_and_literals_8hpp.html" target="_top" xlink:title=" ">
<polygon fill="white" stroke="#666666" points="2003.5,-90.5 1853.5,-90.5 1853.5,-60.5 2003.5,-60.5 2003.5,-90.5"/>
<text text-anchor="start" x="1861.5" y="-78.5" font-family="Helvetica,sans-Serif" font-size="10.00">Hermes/_base/OsApi</text>
<text text-anchor="middle" x="1928.5" y="-67.5" font-family="Helvetica,sans-Serif" font-size="10.00">/ConversionAndLiterals.hpp</text>
</a>
</g>
</g>
<!-- Node13&#45;&gt;Node19 -->
<g id="edge18_Node000013_Node000019" class="edge">
<title>Node13&#45;&gt;Node19</title>
<g id="a_edge18_Node000013_Node000019"><a xlink:title=" ">
<path fill="none" stroke="#63b8ff" d="M1796.09,-131.94C1821.86,-121.15 1857.6,-106.18 1885.46,-94.52"/>
<polygon fill="#63b8ff" stroke="#63b8ff" points="1887.08,-97.63 1894.96,-90.54 1884.38,-91.18 1887.08,-97.63"/>
</a>
</g>
</g>
<!-- Node21 -->
<g id="Node000021" class="node">
<title>Node21</title>
<g id="a_Node000021"><a xlink:href="_macros_8hpp.html" target="_top" xlink:title=" ">
<polygon fill="white" stroke="#666666" points="1500.5,-90.5 1382.5,-90.5 1382.5,-60.5 1500.5,-60.5 1500.5,-90.5"/>
<text text-anchor="start" x="1390.5" y="-78.5" font-family="Helvetica,sans-Serif" font-size="10.00">Hermes/_base/OsApi</text>
<text text-anchor="middle" x="1441.5" y="-67.5" font-family="Helvetica,sans-Serif" font-size="10.00">/Macros.hpp</text>
</a>
</g>
</g>
<!-- Node13&#45;&gt;Node21 -->
<g id="edge20_Node000013_Node000021" class="edge">
<title>Node13&#45;&gt;Node21</title>
<g id="a_edge20_Node000013_Node000021"><a xlink:title=" ">
<path fill="none" stroke="#63b8ff" d="M1703.4,-135.65C1652.15,-126.34 1576.1,-111.75 1510.5,-96 1506.73,-95.09 1502.85,-94.12 1498.95,-93.11"/>
<polygon fill="#63b8ff" stroke="#63b8ff" points="1499.82,-89.72 1489.25,-90.53 1498.02,-96.48 1499.82,-89.72"/>
</a>
</g>
</g>
<!-- Node23 -->
<g id="Node000023" class="node">
<title>Node23</title>
<g id="a_Node000023"><a xlink:href="_address_family_enum_8hpp.html" target="_top" xlink:title=" ">
<polygon fill="white" stroke="#666666" points="1161.5,-90.5 985.5,-90.5 985.5,-60.5 1161.5,-60.5 1161.5,-90.5"/>
<text text-anchor="start" x="993.5" y="-78.5" font-family="Helvetica,sans-Serif" font-size="10.00">Hermes/_base/OsApi</text>
<text text-anchor="middle" x="1073.5" y="-67.5" font-family="Helvetica,sans-Serif" font-size="10.00">/Enums/AddressFamilyEnum.hpp</text>
</a>
</g>
</g>
<!-- Node13&#45;&gt;Node23 -->
<g id="edge23_Node000013_Node000023" class="edge">
<title>Node13&#45;&gt;Node23</title>
<g id="a_edge23_Node000013_Node000023"><a xlink:title=" ">
<path fill="none" stroke="#63b8ff" d="M1703.43,-143.25C1596.64,-137.78 1364.52,-123.6 1170.5,-96 1163.17,-94.96 1155.56,-93.71 1147.96,-92.36"/>
<polygon fill="#63b8ff" stroke="#63b8ff" points="1148.49,-88.9 1138.02,-90.54 1147.23,-95.79 1148.49,-88.9"/>
</a>
</g>
</g>
<!-- Node24 -->
<g id="Node000024" class="node">
<title>Node24</title>
<g id="a_Node000024"><a xlink:href="_protocol_base_type_enum_8hpp.html" target="_top" xlink:title=" ">
<polygon fill="white" stroke="#666666" points="1710,-90.5 1519,-90.5 1519,-60.5 1710,-60.5 1710,-90.5"/>
<text text-anchor="start" x="1527" y="-78.5" font-family="Helvetica,sans-Serif" font-size="10.00">Hermes/_base/OsApi</text>
<text text-anchor="middle" x="1614.5" y="-67.5" font-family="Helvetica,sans-Serif" font-size="10.00">/Enums/ProtocolBaseTypeEnum.hpp</text>
</a>
</g>
</g>
<!-- Node13&#45;&gt;Node24 -->
<g id="edge25_Node000013_Node000024" class="edge">
<title>Node13&#45;&gt;Node24</title>
<g id="a_edge25_Node000013_Node000024"><a xlink:title=" ">
<path fill="none" stroke="#63b8ff" d="M1732.55,-131.94C1709.78,-121.24 1678.27,-106.44 1653.52,-94.83"/>
<polygon fill="#63b8ff" stroke="#63b8ff" points="1654.94,-91.63 1644.41,-90.54 1651.97,-97.96 1654.94,-91.63"/>
</a>
</g>
</g>
<!-- Node25 -->
<g id="Node000025" class="node">
<title>Node25</title>
<g id="a_Node000025"><a xlink:href="_socket_shutdown_enum_8hpp.html" target="_top" xlink:title=" ">
<polygon fill="white" stroke="#666666" points="1364,-90.5 1179,-90.5 1179,-60.5 1364,-60.5 1364,-90.5"/>
<text text-anchor="start" x="1187" y="-78.5" font-family="Helvetica,sans-Serif" font-size="10.00">Hermes/_base/OsApi</text>
<text text-anchor="middle" x="1271.5" y="-67.5" font-family="Helvetica,sans-Serif" font-size="10.00">/Enums/SocketShutdownEnum.hpp</text>
</a>
</g>
</g>
<!-- Node13&#45;&gt;Node25 -->
<g id="edge27_Node000013_Node000025" class="edge">
<title>Node13&#45;&gt;Node25</title>
<g id="a_edge27_Node000013_Node000025"><a xlink:title=" ">
<path fill="none" stroke="#63b8ff" d="M1703.36,-139.54C1626.97,-130.93 1489.99,-114.6 1373.5,-96 1366.46,-94.88 1359.17,-93.63 1351.86,-92.34"/>
<polygon fill="#63b8ff" stroke="#63b8ff" points="1352.37,-88.87 1341.91,-90.54 1351.13,-95.76 1352.37,-88.87"/>
</a>
</g>
</g>
<!-- Node26 -->
<g id="Node000026" class="node">
<title>Node26</title>
<g id="a_Node000026"><a xlink:href="_socket_type_enum_8hpp.html" target="_top" xlink:title=" ">
<polygon fill="white" stroke="#666666" points="930,-90.5 771,-90.5 771,-60.5 930,-60.5 930,-90.5"/>
<text text-anchor="start" x="779" y="-78.5" font-family="Helvetica,sans-Serif" font-size="10.00">Hermes/_base/OsApi</text>
<text text-anchor="middle" x="850.5" y="-67.5" font-family="Helvetica,sans-Serif" font-size="10.00">/Enums/SocketTypeEnum.hpp</text>
</a>
</g>
</g>
<!-- Node13&#45;&gt;Node26 -->
<g id="edge29_Node000013_Node000026" class="edge">
<title>Node13&#45;&gt;Node26</title>
<g id="a_edge29_Node000013_Node000026"><a xlink:title=" ">
<path fill="none" stroke="#63b8ff" d="M1703.32,-142.89C1527.87,-133.59 1018.1,-106.04 943.5,-96 936.22,-95.02 928.67,-93.79 921.15,-92.43"/>
<polygon fill="#63b8ff" stroke="#63b8ff" points="921.79,-88.99 911.31,-90.58 920.49,-95.87 921.79,-88.99"/>
</a>
</g>
</g>
<!-- Node27 -->
<g id="Node000027" class="node">
<title>Node27</title>
<g id="a_Node000027"><a xlink:href="_linux_2_encrypt_status_enum_8hpp.html" target="_top" xlink:title=" ">
<polygon fill="white" stroke="#666666" points="2409.5,-96 2257.5,-96 2257.5,-55 2409.5,-55 2409.5,-96"/>
<text text-anchor="start" x="2265.5" y="-84" font-family="Helvetica,sans-Serif" font-size="10.00">Hermes/_base/OsApi</text>
<text text-anchor="start" x="2265.5" y="-73" font-family="Helvetica,sans-Serif" font-size="10.00">/Enums/Linux/EncryptStatus</text>
<text text-anchor="middle" x="2333.5" y="-62" font-family="Helvetica,sans-Serif" font-size="10.00">Enum.hpp</text>
</a>
</g>
</g>
<!-- Node13&#45;&gt;Node27 -->
<g id="edge31_Node000013_Node000027" class="edge">
<title>Node13&#45;&gt;Node27</title>
<g id="a_edge31_Node000013_Node000027"><a xlink:title=" ">
<path fill="none" stroke="#63b8ff" d="M1821.52,-133.56C1824.89,-133 1828.23,-132.47 1831.5,-132 2012.38,-105.93 2062.96,-124.2 2247.13,-96.1"/>
<polygon fill="#63b8ff" stroke="#63b8ff" points="2247.8,-99.54 2257.14,-94.55 2246.72,-92.62 2247.8,-99.54"/>
</a>
</g>
</g>
<!-- Node28 -->
<g id="Node000028" class="node">
<title>Node28</title>
<g id="a_Node000028"><a xlink:href="_name_info_flags_8hpp.html" target="_top" xlink:title=" ">
<polygon fill="white" stroke="#666666" points="2239.5,-90.5 2095.5,-90.5 2095.5,-60.5 2239.5,-60.5 2239.5,-90.5"/>
<text text-anchor="start" x="2103.5" y="-78.5" font-family="Helvetica,sans-Serif" font-size="10.00">Hermes/_base/OsApi</text>
<text text-anchor="middle" x="2167.5" y="-67.5" font-family="Helvetica,sans-Serif" font-size="10.00">/Flags/NameInfoFlags.hpp</text>
</a>
</g>
</g>
<!-- Node13&#45;&gt;Node28 -->
<g id="edge32_Node000013_Node000028" class="edge">
<title>Node13&#45;&gt;Node28</title>
<g id="a_edge32_Node000013_Node000028"><a xlink:title=" ">
<path fill="none" stroke="#63b8ff" d="M1821.55,-133.78C1824.91,-133.16 1828.25,-132.56 1831.5,-132 1944.3,-112.61 1974.06,-117.42 2086.5,-96 2091.61,-95.03 2096.88,-93.94 2102.17,-92.8"/>
<polygon fill="#63b8ff" stroke="#63b8ff" points="2103.32,-96.13 2112.32,-90.53 2101.79,-89.29 2103.32,-96.13"/>
</a>
</g>
</g>
<!-- Node29 -->
<g id="Node000029" class="node">
<title>Node29</title>
<g id="a_Node000029"><a xlink:href="_linux_2_credential_flags_8hpp.html" target="_top" xlink:title=" ">
<polygon fill="white" stroke="#666666" points="2603.5,-90.5 2427.5,-90.5 2427.5,-60.5 2603.5,-60.5 2603.5,-90.5"/>
<text text-anchor="start" x="2435.5" y="-78.5" font-family="Helvetica,sans-Serif" font-size="10.00">Hermes/_base/OsApi</text>
<text text-anchor="middle" x="2515.5" y="-67.5" font-family="Helvetica,sans-Serif" font-size="10.00">/Flags/Linux/CredentialFlags.hpp</text>
</a>
</g>
</g>
<!-- Node13&#45;&gt;Node29 -->
<g id="edge34_Node000013_Node000029" class="edge">
<title>Node13&#45;&gt;Node29</title>
<g id="a_edge34_Node000013_Node000029"><a xlink:title=" ">
<path fill="none" stroke="#63b8ff" d="M1821.5,-133.47C1824.88,-132.93 1828.23,-132.43 1831.5,-132 2090.65,-97.93 2159.32,-129.84 2418.5,-96 2426.22,-94.99 2434.26,-93.73 2442.24,-92.33"/>
<polygon fill="#63b8ff" stroke="#63b8ff" points="2443.1,-95.73 2452.31,-90.5 2441.85,-88.85 2443.1,-95.73"/>
</a>
</g>
</g>
<!-- Node30 -->
<g id="Node000030" class="node">
<title>Node30</title>
<g id="a_Node000030"><a xlink:href="_linux_2_supported_protocols_flags_8hpp.html" target="_top" xlink:title=" ">
<polygon fill="white" stroke="#666666" points="2795,-96 2622,-96 2622,-55 2795,-55 2795,-96"/>
<text text-anchor="start" x="2630" y="-84" font-family="Helvetica,sans-Serif" font-size="10.00">Hermes/_base/OsApi</text>
<text text-anchor="start" x="2630" y="-73" font-family="Helvetica,sans-Serif" font-size="10.00">/Flags/Linux/SupportedProtocols</text>
<text text-anchor="middle" x="2708.5" y="-62" font-family="Helvetica,sans-Serif" font-size="10.00">Flags.hpp</text>
</a>
</g>
</g>
<!-- Node13&#45;&gt;Node30 -->
<g id="edge35_Node000013_Node000030" class="edge">
<title>Node13&#45;&gt;Node30</title>
<g id="a_edge35_Node000013_Node000030"><a xlink:title=" ">
<path fill="none" stroke="#63b8ff" d="M1821.87,-133.35C1825.12,-132.85 1828.35,-132.39 1831.5,-132 2173.07,-89.73 2265.89,-137.78 2611.94,-95.94"/>
<polygon fill="#63b8ff" stroke="#63b8ff" points="2612.49,-99.4 2621.99,-94.71 2611.64,-92.45 2612.49,-99.4"/>
</a>
</g>
</g>
<!-- Node31 -->
<g id="Node000031" class="node">
<title>Node31</title>
<g id="a_Node000031"><a xlink:href="_linux_2_s_channel_cred_flags_8hpp.html" target="_top" xlink:title=" ">
<polygon fill="white" stroke="#666666" points="3007.5,-90.5 2813.5,-90.5 2813.5,-60.5 3007.5,-60.5 3007.5,-90.5"/>
<text text-anchor="start" x="2821.5" y="-78.5" font-family="Helvetica,sans-Serif" font-size="10.00">Hermes/_base/OsApi</text>
<text text-anchor="middle" x="2910.5" y="-67.5" font-family="Helvetica,sans-Serif" font-size="10.00">/Flags/Linux/SChannelCredFlags.hpp</text>
</a>
</g>
</g>
<!-- Node13&#45;&gt;Node31 -->
<g id="edge36_Node000013_Node000031" class="edge">
<title>Node13&#45;&gt;Node31</title>
<g id="a_edge36_Node000013_Node000031"><a xlink:title=" ">
<path fill="none" stroke="#63b8ff" d="M1821.87,-133.31C1825.12,-132.82 1828.34,-132.38 1831.5,-132 2261.2,-80.81 2374.35,-143.27 2804.5,-96 2813.58,-95 2823.06,-93.67 2832.45,-92.18"/>
<polygon fill="#63b8ff" stroke="#63b8ff" points="2833.28,-95.59 2842.57,-90.5 2832.14,-88.68 2833.28,-95.59"/>
</a>
</g>
</g>
<!-- Node20 -->
<g id="Node000020" class="node">
<title>Node20</title>
<g id="a_Node000020"><a xlink:title=" ">
<polygon fill="#e0e0e0" stroke="#999999" points="1953.5,-19 1903.5,-19 1903.5,0 1953.5,0 1953.5,-19"/>
<text text-anchor="middle" x="1928.5" y="-7" font-family="Helvetica,sans-Serif" font-size="10.00">cstdint</text>
</a>
</g>
</g>
<!-- Node19&#45;&gt;Node20 -->
<g id="edge19_Node000019_Node000020" class="edge">
<title>Node19&#45;&gt;Node20</title>
<g id="a_edge19_Node000019_Node000020"><a xlink:title=" ">
<path fill="none" stroke="#63b8ff" d="M1928.5,-60.3C1928.5,-51.2 1928.5,-39.29 1928.5,-29.4"/>
<polygon fill="#63b8ff" stroke="#63b8ff" points="1932,-29.34 1928.5,-19.34 1925,-29.34 1932,-29.34"/>
</a>
</g>
</g>
<!-- Node21&#45;&gt;Node14 -->
<g id="edge22_Node000021_Node000014" class="edge">
<title>Node21&#45;&gt;Node14</title>
<g id="a_edge22_Node000021_Node000014"><a xlink:title=" ">
<path fill="none" stroke="#63b8ff" d="M1395.62,-60.45C1388.26,-58.46 1380.7,-56.56 1373.5,-55 1285.88,-36.02 1182.09,-22.6 1122.41,-15.74"/>
<polygon fill="#63b8ff" stroke="#63b8ff" points="1122.48,-12.23 1112.15,-14.58 1121.69,-19.19 1122.48,-12.23"/>
</a>
</g>
</g>
<!-- Node22 -->
<g id="Node000022" class="node">
<title>Node22</title>
<g id="a_Node000022"><a xlink:title=" ">
<polygon fill="#e0e0e0" stroke="#999999" points="1478,-19 1405,-19 1405,0 1478,0 1478,-19"/>
<text text-anchor="middle" x="1441.5" y="-7" font-family="Helvetica,sans-Serif" font-size="10.00">string_view</text>
</a>
</g>
</g>
<!-- Node21&#45;&gt;Node22 -->
<g id="edge21_Node000021_Node000022" class="edge">
<title>Node21&#45;&gt;Node22</title>
<g id="a_edge21_Node000021_Node000022"><a xlink:title=" ">
<path fill="none" stroke="#63b8ff" d="M1441.5,-60.3C1441.5,-51.2 1441.5,-39.29 1441.5,-29.4"/>
<polygon fill="#63b8ff" stroke="#63b8ff" points="1445,-29.34 1441.5,-19.34 1438,-29.34 1445,-29.34"/>
</a>
</g>
</g>
<!-- Node23&#45;&gt;Node14 -->
<g id="edge24_Node000023_Node000014" class="edge">
<title>Node23&#45;&gt;Node14</title>
<g id="a_edge24_Node000023_Node000014"><a xlink:title=" ">
<path fill="none" stroke="#63b8ff" d="M1073.5,-60.3C1073.5,-51.2 1073.5,-39.29 1073.5,-29.4"/>
<polygon fill="#63b8ff" stroke="#63b8ff" points="1077,-29.34 1073.5,-19.34 1070,-29.34 1077,-29.34"/>
</a>
</g>
</g>
<!-- Node24&#45;&gt;Node15 -->
<g id="edge26_Node000024_Node000015" class="edge">
<title>Node24&#45;&gt;Node15</title>
<g id="a_edge26_Node000024_Node000015"><a xlink:title=" ">
<path fill="none" stroke="#63b8ff" d="M1637.54,-60.45C1655.06,-49.77 1679.06,-35.15 1696.56,-24.48"/>
<polygon fill="#63b8ff" stroke="#63b8ff" points="1698.81,-27.21 1705.53,-19.02 1695.17,-21.23 1698.81,-27.21"/>
</a>
</g>
</g>
<!-- Node25&#45;&gt;Node14 -->
<g id="edge28_Node000025_Node000014" class="edge">
<title>Node25&#45;&gt;Node14</title>
<g id="a_edge28_Node000025_Node000014"><a xlink:title=" ">
<path fill="none" stroke="#63b8ff" d="M1228.05,-60.45C1192.56,-48.98 1142.99,-32.96 1109.64,-22.18"/>
<polygon fill="#63b8ff" stroke="#63b8ff" points="1110.44,-18.76 1099.85,-19.02 1108.29,-25.42 1110.44,-18.76"/>
</a>
</g>
</g>
<!-- Node26&#45;&gt;Node14 -->
<g id="edge30_Node000026_Node000014" class="edge">
<title>Node26&#45;&gt;Node14</title>
<g id="a_edge30_Node000026_Node000014"><a xlink:title=" ">
<path fill="none" stroke="#63b8ff" d="M899.44,-60.45C939.75,-48.88 996.2,-32.68 1033.76,-21.91"/>
<polygon fill="#63b8ff" stroke="#63b8ff" points="1035.18,-25.14 1043.82,-19.02 1033.24,-18.41 1035.18,-25.14"/>
</a>
</g>
</g>
<!-- Node28&#45;&gt;Node17 -->
<g id="edge33_Node000028_Node000017" class="edge">
<title>Node28&#45;&gt;Node17</title>
<g id="a_edge33_Node000028_Node000017"><a xlink:title=" ">
<path fill="none" stroke="#63b8ff" d="M2222.22,-60.46C2230.98,-58.46 2239.96,-56.56 2248.5,-55 2363.04,-34.06 2500.3,-19.83 2564.71,-13.78"/>
<polygon fill="#63b8ff" stroke="#63b8ff" points="2565.14,-17.26 2574.78,-12.85 2564.5,-10.29 2565.14,-17.26"/>
</a>
</g>
</g>
<!-- Node32&#45;&gt;Node7 -->
<g id="edge45_Node000032_Node000007" class="edge">
<title>Node32&#45;&gt;Node7</title>
<g id="a_edge45_Node000032_Node000007"><a xlink:title=" ">
<path fill="none" stroke="#63b8ff" d="M1964.91,-200.91C1842.32,-183.76 1596.19,-150.82 1386.5,-132 1248.16,-119.59 895.37,-136.47 762.5,-96 758.2,-94.69 753.88,-92.72 749.84,-90.52"/>
<polygon fill="#63b8ff" stroke="#63b8ff" points="751.44,-87.4 741.08,-85.19 747.8,-93.38 751.44,-87.4"/>
</a>
</g>
</g>
<!-- Node32&#45;&gt;Node33 -->
<g id="edge38_Node000032_Node000033" class="edge">
<title>Node32&#45;&gt;Node33</title>
<g id="a_edge38_Node000032_Node000033"><a xlink:title=" ">
<path fill="none" stroke="#63b8ff" d="M2012.22,-197.95C1988.33,-186.88 1955.3,-171.56 1932.14,-160.82"/>
<polygon fill="#63b8ff" stroke="#63b8ff" points="1933.41,-157.55 1922.87,-156.52 1930.46,-163.9 1933.41,-157.55"/>
</a>
</g>
</g>
<!-- Node36 -->
<g id="Node000036" class="node">
<title>Node36</title>
<g id="a_Node000036"><a xlink:title=" ">
<polygon fill="#e0e0e0" stroke="#999999" points="2029.5,-156.5 1987.5,-156.5 1987.5,-137.5 2029.5,-137.5 2029.5,-156.5"/>
<text text-anchor="middle" x="2008.5" y="-144.5" font-family="Helvetica,sans-Serif" font-size="10.00">array</text>
</a>
</g>
</g>
<!-- Node32&#45;&gt;Node36 -->
<g id="edge41_Node000032_Node000036" class="edge">
<title>Node32&#45;&gt;Node36</title>
<g id="a_edge41_Node000032_Node000036"><a xlink:title=" ">
<path fill="none" stroke="#63b8ff" d="M2034.95,-197.8C2029.97,-188.41 2023.38,-176.02 2018.03,-165.95"/>
<polygon fill="#63b8ff" stroke="#63b8ff" points="2020.98,-164.03 2013.2,-156.84 2014.8,-167.32 2020.98,-164.03"/>
</a>
</g>
</g>
<!-- Node32&#45;&gt;Node37 -->
<g id="edge42_Node000032_Node000037" class="edge">
<title>Node32&#45;&gt;Node37</title>
<g id="a_edge42_Node000032_Node000037"><a xlink:title=" ">
<path fill="none" stroke="#63b8ff" d="M2120.18,-203.07C2223.35,-191.02 2395.95,-170.12 2424.5,-162 2426.14,-161.53 2427.8,-160.99 2429.47,-160.4"/>
<polygon fill="#63b8ff" stroke="#63b8ff" points="2430.83,-163.63 2438.78,-156.63 2428.2,-157.14 2430.83,-163.63"/>
</a>
</g>
</g>
<!-- Node38 -->
<g id="Node000038" class="node">
<title>Node38</title>
<g id="a_Node000038"><a xlink:title=" ">
<polygon fill="#e0e0e0" stroke="#999999" points="2099,-156.5 2048,-156.5 2048,-137.5 2099,-137.5 2099,-156.5"/>
<text text-anchor="middle" x="2073.5" y="-144.5" font-family="Helvetica,sans-Serif" font-size="10.00">variant</text>
</a>
</g>
</g>
<!-- Node32&#45;&gt;Node38 -->
<g id="edge43_Node000032_Node000038" class="edge">
<title>Node32&#45;&gt;Node38</title>
<g id="a_edge43_Node000032_Node000038"><a xlink:title=" ">
<path fill="none" stroke="#63b8ff" d="M2049.38,-197.8C2053.93,-188.41 2059.93,-176.02 2064.81,-165.95"/>
<polygon fill="#63b8ff" stroke="#63b8ff" points="2068.01,-167.37 2069.22,-156.84 2061.71,-164.32 2068.01,-167.37"/>
</a>
</g>
</g>
<!-- Node32&#45;&gt;Node39 -->
<g id="edge44_Node000032_Node000039" class="edge">
<title>Node32&#45;&gt;Node39</title>
<g id="a_edge44_Node000032_Node000039"><a xlink:title=" ">
<path fill="none" stroke="#63b8ff" d="M2120.04,-199.81C2207.6,-185.99 2339.4,-164.97 2350.5,-162 2352.8,-161.39 2355.15,-160.68 2357.49,-159.92"/>
<polygon fill="#63b8ff" stroke="#63b8ff" points="2358.72,-163.2 2367,-156.59 2356.4,-156.6 2358.72,-163.2"/>
</a>
</g>
</g>
<!-- Node40 -->
<g id="Node000040" class="node">
<title>Node40</title>
<g id="a_Node000040"><a xlink:title=" ">
<polygon fill="#e0e0e0" stroke="#999999" points="2167.5,-156.5 2117.5,-156.5 2117.5,-137.5 2167.5,-137.5 2167.5,-156.5"/>
<text text-anchor="middle" x="2142.5" y="-144.5" font-family="Helvetica,sans-Serif" font-size="10.00">format</text>
</a>
</g>
</g>
<!-- Node32&#45;&gt;Node40 -->
<g id="edge46_Node000032_Node000040" class="edge">
<title>Node32&#45;&gt;Node40</title>
<g id="a_edge46_Node000032_Node000040"><a xlink:title=" ">
<path fill="none" stroke="#63b8ff" d="M2064.69,-197.8C2081.3,-187.17 2103.9,-172.7 2120.47,-162.1"/>
<polygon fill="#63b8ff" stroke="#63b8ff" points="2122.44,-165 2128.97,-156.66 2118.66,-159.1 2122.44,-165"/>
</a>
</g>
</g>
<!-- Node41 -->
<g id="Node000041" class="node">
<title>Node41</title>
<g id="a_Node000041"><a xlink:title=" ">
<polygon fill="#e0e0e0" stroke="#999999" points="2341,-162 2186,-162 2186,-132 2341,-132 2341,-162"/>
<text text-anchor="start" x="2194" y="-150" font-family="Helvetica,sans-Serif" font-size="10.00">Hermes/Endpoint/IpEndpoint</text>
<text text-anchor="middle" x="2263.5" y="-139" font-family="Helvetica,sans-Serif" font-size="10.00">/IpAddress.tpp</text>
</a>
</g>
</g>
<!-- Node32&#45;&gt;Node41 -->
<g id="edge47_Node000032_Node000041" class="edge">
<title>Node32&#45;&gt;Node41</title>
<g id="a_edge47_Node000032_Node000041"><a xlink:title=" ">
<path fill="none" stroke="#63b8ff" d="M2091,-197.95C2124.68,-188.2 2169.72,-175.16 2205.34,-164.84"/>
<polygon fill="#63b8ff" stroke="#63b8ff" points="2206.48,-168.16 2215.11,-162.01 2204.53,-161.43 2206.48,-168.16"/>
</a>
</g>
</g>
<!-- Node34 -->
<g id="Node000034" class="node">
<title>Node34</title>
<g id="a_Node000034"><a xlink:title=" ">
<polygon fill="#e0e0e0" stroke="#999999" points="3192,-85 3147,-85 3147,-66 3192,-66 3192,-85"/>
<text text-anchor="middle" x="3169.5" y="-73" font-family="Helvetica,sans-Serif" font-size="10.00">utility</text>
</a>
</g>
</g>
<!-- Node33&#45;&gt;Node34 -->
<g id="edge39_Node000033_Node000034" class="edge">
<title>Node33&#45;&gt;Node34</title>
<g id="a_edge39_Node000033_Node000034"><a xlink:title=" ">
<path fill="none" stroke="#63b8ff" d="M1943.5,-137.44C1954.74,-135.3 1967.06,-133.25 1978.5,-132 2106.69,-117.97 3015.17,-133.65 3138.5,-96 3142.56,-94.76 3146.61,-92.84 3150.37,-90.69"/>
<polygon fill="#63b8ff" stroke="#63b8ff" points="3152.53,-93.46 3159.01,-85.07 3148.72,-87.59 3152.53,-93.46"/>
</a>
</g>
</g>
<!-- Node35 -->
<g id="Node000035" class="node">
<title>Node35</title>
<g id="a_Node000035"><a xlink:title=" ">
<polygon fill="#e0e0e0" stroke="#999999" points="3129,-85 3064,-85 3064,-66 3129,-66 3129,-85"/>
<text text-anchor="middle" x="3096.5" y="-73" font-family="Helvetica,sans-Serif" font-size="10.00">functional</text>
</a>
</g>
</g>
<!-- Node33&#45;&gt;Node35 -->
<g id="edge40_Node000033_Node000035" class="edge">
<title>Node33&#45;&gt;Node35</title>
<g id="a_edge40_Node000033_Node000035"><a xlink:title=" ">
<path fill="none" stroke="#63b8ff" d="M1943.5,-137.46C1954.75,-135.32 1967.06,-133.27 1978.5,-132 2215.19,-105.79 2816.77,-146.44 3049.5,-96 3056.58,-94.47 3063.94,-91.92 3070.68,-89.16"/>
<polygon fill="#63b8ff" stroke="#63b8ff" points="3072.26,-92.29 3080.01,-85.06 3069.44,-85.88 3072.26,-92.29"/>
</a>
</g>
</g>
<!-- Node44&#45;&gt;Node4 -->
<g id="edge54_Node000044_Node000004" class="edge">
<title>Node44&#45;&gt;Node4</title>
<g id="a_edge54_Node000044_Node000004"><a xlink:title=" ">
<path fill="none" stroke="#63b8ff" d="M1658.4,-269.37C1667.35,-260.69 1681.49,-246.98 1693.47,-235.37"/>
<polygon fill="#63b8ff" stroke="#63b8ff" points="1696.2,-237.59 1700.94,-228.12 1691.33,-232.56 1696.2,-237.59"/>
</a>
</g>
</g>
<!-- Node44&#45;&gt;Node5 -->
<g id="edge55_Node000044_Node000005" class="edge">
<title>Node44&#45;&gt;Node5</title>
<g id="a_edge55_Node000044_Node000005"><a xlink:title=" ">
<path fill="none" stroke="#63b8ff" d="M1579.03,-269.47C1391.7,-246.79 881.23,-185.01 669.49,-159.38"/>
<polygon fill="#63b8ff" stroke="#63b8ff" points="669.68,-155.87 659.33,-158.15 668.83,-162.82 669.68,-155.87"/>
</a>
</g>
</g>
<!-- Node44&#45;&gt;Node10 -->
<g id="edge57_Node000044_Node000010" class="edge">
<title>Node44&#45;&gt;Node10</title>
<g id="a_edge57_Node000044_Node000010"><a xlink:title=" ">
<path fill="none" stroke="#63b8ff" d="M1597.02,-269.48C1452.6,-245.72 1037.35,-175.22 696.5,-96 686.03,-93.57 674.77,-90.63 664.38,-87.78"/>
<polygon fill="#63b8ff" stroke="#63b8ff" points="665.3,-84.4 654.73,-85.09 663.42,-91.14 665.3,-84.4"/>
</a>
</g>
</g>
<!-- Node44&#45;&gt;Node13 -->
<g id="edge56_Node000044_Node000013" class="edge">
<title>Node44&#45;&gt;Node13</title>
<g id="a_edge56_Node000044_Node000013"><a xlink:title=" ">
<path fill="none" stroke="#63b8ff" d="M1721.27,-269.88C1747.46,-263.04 1774.54,-250.59 1790.5,-228 1802.79,-210.6 1792.23,-187.3 1780.73,-170.33"/>
<polygon fill="#63b8ff" stroke="#63b8ff" points="1783.45,-168.13 1774.74,-162.1 1777.79,-172.25 1783.45,-168.13"/>
</a>
</g>
</g>
<!-- Node45 -->
<g id="Node000045" class="node">
<title>Node45</title>
<g id="a_Node000045"><a xlink:title=" ">
<polygon fill="#e0e0e0" stroke="#999999" points="1563.5,-222.5 1503.5,-222.5 1503.5,-203.5 1563.5,-203.5 1563.5,-222.5"/>
<text text-anchor="middle" x="1533.5" y="-210.5" font-family="Helvetica,sans-Serif" font-size="10.00">concepts</text>
</a>
</g>
</g>
<!-- Node44&#45;&gt;Node45 -->
<g id="edge58_Node000044_Node000045" class="edge">
<title>Node44&#45;&gt;Node45</title>
<g id="a_edge58_Node000044_Node000045"><a xlink:title=" ">
<path fill="none" stroke="#63b8ff" d="M1633.86,-269.37C1614.4,-258.63 1580.95,-240.18 1558.06,-227.55"/>
<polygon fill="#63b8ff" stroke="#63b8ff" points="1559.71,-224.47 1549.27,-222.7 1556.33,-230.59 1559.71,-224.47"/>
</a>
</g>
</g>
<!-- Node46 -->
<g id="Node000046" class="node">
<title>Node46</title>
<g id="a_Node000046"><a xlink:title=" ">
<polygon fill="#e0e0e0" stroke="#999999" points="1631.5,-222.5 1581.5,-222.5 1581.5,-203.5 1631.5,-203.5 1631.5,-222.5"/>
<text text-anchor="middle" x="1606.5" y="-210.5" font-family="Helvetica,sans-Serif" font-size="10.00">ranges</text>
</a>
</g>
</g>
<!-- Node44&#45;&gt;Node46 -->
<g id="edge59_Node000044_Node000046" class="edge">
<title>Node44&#45;&gt;Node46</title>
<g id="a_edge59_Node000044_Node000046"><a xlink:title=" ">
<path fill="none" stroke="#63b8ff" d="M1643.7,-269.37C1637.2,-259.69 1626.48,-243.74 1618.22,-231.44"/>
<polygon fill="#63b8ff" stroke="#63b8ff" points="1620.97,-229.25 1612.48,-222.91 1615.15,-233.16 1620.97,-229.25"/>
</a>
</g>
</g>
</g>
</svg>
