<?xml version="1.0" encoding="UTF-8" standalone="no"?>
<!DOCTYPE svg PUBLIC "-//W3C//DTD SVG 1.1//EN"
 "http://www.w3.org/Graphics/SVG/1.1/DTD/svg11.dtd">
<!-- Generated by graphviz version 2.43.0 (0)
 -->
<!-- Title: include/Hermes/Socket/Sync/_base/Connection/DefaultConnectPolicy.hpp Pages: 1 -->
<svg width="3333pt" height="456pt"
 viewBox="0.00 0.00 3332.50 456.00" xmlns="http://www.w3.org/2000/svg" xmlns:xlink="http://www.w3.org/1999/xlink">
<g id="graph0" class="graph" transform="scale(1 1) rotate(0) translate(4 452)">
<title>include/Hermes/Socket/Sync/_base/Connection/DefaultConnectPolicy.hpp</title>
<!-- Node1 -->
<g id="Node000001" class="node">
<title>Node1</title>
<g id="a_Node000001"><a xlink:title=" ">
<polygon fill="#999999" stroke="#666666" points="853.5,-448 709.5,-448 709.5,-407 853.5,-407 853.5,-448"/>
<text text-anchor="start" x="717.5" y="-436" font-family="Helvetica,sans-Serif" font-size="10.00">include/Hermes/Socket</text>
<text text-anchor="start" x="717.5" y="-425" font-family="Helvetica,sans-Serif" font-size="10.00">/Sync/_base/Connection</text>
<text text-anchor="middle" x="781.5" y="-414" font-family="Helvetica,sans-Serif" font-size="10.00">/DefaultConnectPolicy.hpp</text>
</a>
</g>
</g>
<!-- Node2 -->
<g id="Node000002" class="node">
<title>Node2</title>
<g id="a_Node000002"><a xlink:href="_ip_endpoint_8hpp.html" target="_top" xlink:title=" ">
<polygon fill="white" stroke="#666666" points="662,-294 507,-294 507,-264 662,-264 662,-294"/>
<text text-anchor="start" x="515" y="-282" font-family="Helvetica,sans-Serif" font-size="10.00">Hermes/Endpoint/IpEndpoint</text>
<text text-anchor="middle" x="584.5" y="-271" font-family="Helvetica,sans-Serif" font-size="10.00">/IpEndpoint.hpp</text>
</a>
</g>
</g>
<!-- Node1&#45;&gt;Node2 -->
<g id="edge1_Node000001_Node000002" class="edge">
<title>Node1&#45;&gt;Node2</title>
<g id="a_edge1_Node000001_Node000002"><a xlink:title=" ">
<path fill="none" stroke="#63b8ff" d="M754.93,-406.74C717.44,-378.86 649.37,-328.24 611.59,-300.15"/>
<polygon fill="#63b8ff" stroke="#63b8ff" points="613.68,-297.34 603.57,-294.18 609.5,-302.96 613.68,-297.34"/>
</a>
</g>
</g>
<!-- Node4 -->
<g id="Node000004" class="node">
<title>Node4</title>
<g id="a_Node000004"><a xlink:href="_connection_error_enum_8hpp.html" target="_top" xlink:title=" ">
<polygon fill="white" stroke="#666666" points="865,-162 698,-162 698,-132 865,-132 865,-162"/>
<text text-anchor="start" x="706" y="-150" font-family="Helvetica,sans-Serif" font-size="10.00">Hermes/_base/ConnectionError</text>
<text text-anchor="middle" x="781.5" y="-139" font-family="Helvetica,sans-Serif" font-size="10.00">Enum.hpp</text>
</a>
</g>
</g>
<!-- Node1&#45;&gt;Node4 -->
<g id="edge51_Node000001_Node000004" class="edge">
<title>Node1&#45;&gt;Node4</title>
<g id="a_edge51_Node000001_Node000004"><a xlink:title=" ">
<path fill="none" stroke="#63b8ff" d="M781.5,-406.92C781.5,-357.22 781.5,-226.34 781.5,-172.09"/>
<polygon fill="#63b8ff" stroke="#63b8ff" points="785,-172.02 781.5,-162.02 778,-172.02 785,-172.02"/>
</a>
</g>
</g>
<!-- Node42 -->
<g id="Node000042" class="node">
<title>Node42</title>
<g id="a_Node000042"><a xlink:href="__base_8hpp.html" target="_top" xlink:title=" ">
<polygon fill="white" stroke="#666666" points="947,-288.5 804,-288.5 804,-269.5 947,-269.5 947,-288.5"/>
<text text-anchor="middle" x="875.5" y="-276.5" font-family="Helvetica,sans-Serif" font-size="10.00">Hermes/Socket/_base.hpp</text>
</a>
</g>
</g>
<!-- Node1&#45;&gt;Node42 -->
<g id="edge52_Node000001_Node000042" class="edge">
<title>Node1&#45;&gt;Node42</title>
<g id="a_edge52_Node000001_Node000042"><a xlink:title=" ">
<path fill="none" stroke="#63b8ff" d="M781.08,-406.71C781.57,-385.94 785.05,-353.15 800.5,-330 811.29,-313.83 829.27,-301.58 844.92,-293.25"/>
<polygon fill="#63b8ff" stroke="#63b8ff" points="846.9,-296.18 854.28,-288.58 843.77,-289.92 846.9,-296.18"/>
</a>
</g>
</g>
<!-- Node45 -->
<g id="Node000045" class="node">
<title>Node45</title>
<g id="a_Node000045"><a xlink:href="_default_socket_data_8hpp.html" target="_top" xlink:title=" ">
<polygon fill="white" stroke="#666666" points="941.5,-365.5 809.5,-365.5 809.5,-335.5 941.5,-335.5 941.5,-365.5"/>
<text text-anchor="start" x="817.5" y="-353.5" font-family="Helvetica,sans-Serif" font-size="10.00">Hermes/Socket/Data</text>
<text text-anchor="middle" x="875.5" y="-342.5" font-family="Helvetica,sans-Serif" font-size="10.00">/DefaultSocketData.hpp</text>
</a>
</g>
</g>
<!-- Node1&#45;&gt;Node45 -->
<g id="edge59_Node000001_Node000045" class="edge">
<title>Node1&#45;&gt;Node45</title>
<g id="a_edge59_Node000001_Node000045"><a xlink:title=" ">
<path fill="none" stroke="#63b8ff" d="M806.2,-406.79C819.62,-396.08 836.2,-382.85 849.78,-372.02"/>
<polygon fill="#63b8ff" stroke="#63b8ff" points="852.16,-374.6 857.8,-365.63 847.8,-369.13 852.16,-374.6"/>
</a>
</g>
</g>
<!-- Node48 -->
<g id="Node000048" class="node">
<title>Node48</title>
<g id="a_Node000048"><a xlink:title=" ">
<polygon fill="#e0e0e0" stroke="#999999" points="1145,-371 960,-371 960,-330 1145,-330 1145,-371"/>
<text text-anchor="start" x="968" y="-359" font-family="Helvetica,sans-Serif" font-size="10.00">Hermes/Socket/Sync</text>
<text text-anchor="start" x="968" y="-348" font-family="Helvetica,sans-Serif" font-size="10.00">/_base/Connection/DefaultConnect</text>
<text text-anchor="middle" x="1052.5" y="-337" font-family="Helvetica,sans-Serif" font-size="10.00">Policy.tpp</text>
</a>
</g>
</g>
<!-- Node1&#45;&gt;Node48 -->
<g id="edge64_Node000001_Node000048" class="edge">
<title>Node1&#45;&gt;Node48</title>
<g id="a_edge64_Node000001_Node000048"><a xlink:title=" ">
<path fill="none" stroke="#63b8ff" d="M851.99,-406.99C888.71,-396.83 933.76,-384.36 971.85,-373.82"/>
<polygon fill="#63b8ff" stroke="#63b8ff" points="973.18,-377.08 981.89,-371.04 971.32,-370.34 973.18,-377.08"/>
</a>
</g>
</g>
<!-- Node3 -->
<g id="Node000003" class="node">
<title>Node3</title>
<g id="a_Node000003"><a xlink:href="_endpoint_concept_8hpp.html" target="_top" xlink:title=" ">
<polygon fill="white" stroke="#666666" points="941.5,-228 809.5,-228 809.5,-198 941.5,-198 941.5,-228"/>
<text text-anchor="start" x="817.5" y="-216" font-family="Helvetica,sans-Serif" font-size="10.00">Hermes/Endpoint/_base</text>
<text text-anchor="middle" x="875.5" y="-205" font-family="Helvetica,sans-Serif" font-size="10.00">/EndpointConcept.hpp</text>
</a>
</g>
</g>
<!-- Node2&#45;&gt;Node3 -->
<g id="edge2_Node000002_Node000003" class="edge">
<title>Node2&#45;&gt;Node3</title>
<g id="a_edge2_Node000002_Node000003"><a xlink:title=" ">
<path fill="none" stroke="#63b8ff" d="M648.36,-263.95C693.66,-253.99 754.56,-240.6 801.9,-230.19"/>
<polygon fill="#63b8ff" stroke="#63b8ff" points="802.77,-233.58 811.79,-228.01 801.27,-226.74 802.77,-233.58"/>
</a>
</g>
</g>
<!-- Node31 -->
<g id="Node000031" class="node">
<title>Node31</title>
<g id="a_Node000031"><a xlink:href="_ip_address_8hpp.html" target="_top" xlink:title=" ">
<polygon fill="white" stroke="#666666" points="415,-228 260,-228 260,-198 415,-198 415,-228"/>
<text text-anchor="start" x="268" y="-216" font-family="Helvetica,sans-Serif" font-size="10.00">Hermes/Endpoint/IpEndpoint</text>
<text text-anchor="middle" x="337.5" y="-205" font-family="Helvetica,sans-Serif" font-size="10.00">/IpAddress.hpp</text>
</a>
</g>
</g>
<!-- Node2&#45;&gt;Node31 -->
<g id="edge36_Node000002_Node000031" class="edge">
<title>Node2&#45;&gt;Node31</title>
<g id="a_edge36_Node000002_Node000031"><a xlink:title=" ">
<path fill="none" stroke="#63b8ff" d="M530.29,-263.95C492.33,-254.12 441.45,-240.93 401.49,-230.58"/>
<polygon fill="#63b8ff" stroke="#63b8ff" points="402.14,-227.13 391.58,-228.01 400.38,-233.91 402.14,-227.13"/>
</a>
</g>
</g>
<!-- Node32 -->
<g id="Node000032" class="node">
<title>Node32</title>
<g id="a_Node000032"><a xlink:href="_hash_8hpp.html" target="_top" xlink:title=" ">
<polygon fill="white" stroke="#666666" points="133,-156.5 4,-156.5 4,-137.5 133,-137.5 133,-156.5"/>
<text text-anchor="middle" x="68.5" y="-144.5" font-family="Helvetica,sans-Serif" font-size="10.00">Hermes/Utils/Hash.hpp</text>
</a>
</g>
</g>
<!-- Node2&#45;&gt;Node32 -->
<g id="edge47_Node000002_Node000032" class="edge">
<title>Node2&#45;&gt;Node32</title>
<g id="a_edge47_Node000002_Node000032"><a xlink:title=" ">
<path fill="none" stroke="#63b8ff" d="M506.92,-276.37C429.48,-272.74 308.01,-261.61 208.5,-228 162.47,-212.46 114.51,-181.22 88.39,-162.72"/>
<polygon fill="#63b8ff" stroke="#63b8ff" points="90.26,-159.75 80.1,-156.75 86.17,-165.43 90.26,-159.75"/>
</a>
</g>
</g>
<!-- Node36 -->
<g id="Node000036" class="node">
<title>Node36</title>
<g id="a_Node000036"><a xlink:title=" ">
<polygon fill="#e0e0e0" stroke="#999999" points="195.5,-156.5 151.5,-156.5 151.5,-137.5 195.5,-137.5 195.5,-156.5"/>
<text text-anchor="middle" x="173.5" y="-144.5" font-family="Helvetica,sans-Serif" font-size="10.00">string</text>
</a>
</g>
</g>
<!-- Node2&#45;&gt;Node36 -->
<g id="edge49_Node000002_Node000036" class="edge">
<title>Node2&#45;&gt;Node36</title>
<g id="a_edge49_Node000002_Node000036"><a xlink:title=" ">
<path fill="none" stroke="#63b8ff" d="M506.86,-272.18C422.5,-264.85 293.94,-250.42 250.5,-228 221.93,-213.25 197.9,-183.75 184.62,-164.99"/>
<polygon fill="#63b8ff" stroke="#63b8ff" points="187.37,-162.81 178.84,-156.52 181.59,-166.76 187.37,-162.81"/>
</a>
</g>
</g>
<!-- Node38 -->
<g id="Node000038" class="node">
<title>Node38</title>
<g id="a_Node000038"><a xlink:title=" ">
<polygon fill="#e0e0e0" stroke="#999999" points="679.5,-156.5 623.5,-156.5 623.5,-137.5 679.5,-137.5 679.5,-156.5"/>
<text text-anchor="middle" x="651.5" y="-144.5" font-family="Helvetica,sans-Serif" font-size="10.00">optional</text>
</a>
</g>
</g>
<!-- Node2&#45;&gt;Node38 -->
<g id="edge48_Node000002_Node000038" class="edge">
<title>Node2&#45;&gt;Node38</title>
<g id="a_edge48_Node000002_Node000038"><a xlink:title=" ">
<path fill="none" stroke="#63b8ff" d="M570.47,-263.78C555.95,-247.26 537.13,-219.54 550.5,-198 554.65,-191.31 593.54,-173.25 621.82,-160.78"/>
<polygon fill="#63b8ff" stroke="#63b8ff" points="623.55,-163.84 631.31,-156.63 620.74,-157.43 623.55,-163.84"/>
</a>
</g>
</g>
<!-- Node41 -->
<g id="Node000041" class="node">
<title>Node41</title>
<g id="a_Node000041"><a xlink:title=" ">
<polygon fill="#e0e0e0" stroke="#999999" points="715,-228 560,-228 560,-198 715,-198 715,-228"/>
<text text-anchor="start" x="568" y="-216" font-family="Helvetica,sans-Serif" font-size="10.00">Hermes/Endpoint/IpEndpoint</text>
<text text-anchor="middle" x="637.5" y="-205" font-family="Helvetica,sans-Serif" font-size="10.00">/IpEndpoint.tpp</text>
</a>
</g>
</g>
<!-- Node2&#45;&gt;Node41 -->
<g id="edge50_Node000002_Node000041" class="edge">
<title>Node2&#45;&gt;Node41</title>
<g id="a_edge50_Node000002_Node000041"><a xlink:title=" ">
<path fill="none" stroke="#63b8ff" d="M596.26,-263.8C603.06,-255.59 611.74,-245.1 619.39,-235.87"/>
<polygon fill="#63b8ff" stroke="#63b8ff" points="622.09,-238.1 625.77,-228.16 616.7,-233.63 622.09,-238.1"/>
</a>
</g>
</g>
<!-- Node3&#45;&gt;Node4 -->
<g id="edge3_Node000003_Node000004" class="edge">
<title>Node3&#45;&gt;Node4</title>
<g id="a_edge3_Node000003_Node000004"><a xlink:title=" ">
<path fill="none" stroke="#63b8ff" d="M854.64,-197.8C841.74,-189.01 824.99,-177.61 810.77,-167.93"/>
<polygon fill="#63b8ff" stroke="#63b8ff" points="812.54,-164.9 802.3,-162.16 808.6,-170.69 812.54,-164.9"/>
</a>
</g>
</g>
<!-- Node12 -->
<g id="Node000012" class="node">
<title>Node12</title>
<g id="a_Node000012"><a xlink:href="_os_api_8hpp.html" target="_top" xlink:title=" ">
<polygon fill="white" stroke="#666666" points="1877.5,-162 1759.5,-162 1759.5,-132 1877.5,-132 1877.5,-162"/>
<text text-anchor="start" x="1767.5" y="-150" font-family="Helvetica,sans-Serif" font-size="10.00">Hermes/_base/OsApi</text>
<text text-anchor="middle" x="1818.5" y="-139" font-family="Helvetica,sans-Serif" font-size="10.00">/OsApi.hpp</text>
</a>
</g>
</g>
<!-- Node3&#45;&gt;Node12 -->
<g id="edge11_Node000003_Node000012" class="edge">
<title>Node3&#45;&gt;Node12</title>
<g id="a_edge11_Node000003_Node000012"><a xlink:title=" ">
<path fill="none" stroke="#63b8ff" d="M941.75,-203.08C957.08,-201.22 973.34,-199.39 988.5,-198 1269.86,-172.12 1606.16,-156.59 1748.93,-150.71"/>
<polygon fill="#63b8ff" stroke="#63b8ff" points="1749.43,-154.19 1759.28,-150.28 1749.14,-147.19 1749.43,-154.19"/>
</a>
</g>
</g>
<!-- Node5 -->
<g id="Node000005" class="node">
<title>Node5</title>
<g id="a_Node000005"><a xlink:title=" ">
<polygon fill="#e0e0e0" stroke="#999999" points="405.5,-85 343.5,-85 343.5,-66 405.5,-66 405.5,-85"/>
<text text-anchor="middle" x="374.5" y="-73" font-family="Helvetica,sans-Serif" font-size="10.00">expected</text>
</a>
</g>
</g>
<!-- Node4&#45;&gt;Node5 -->
<g id="edge4_Node000004_Node000005" class="edge">
<title>Node4&#45;&gt;Node5</title>
<g id="a_edge4_Node000004_Node000005"><a xlink:title=" ">
<path fill="none" stroke="#63b8ff" d="M697.86,-133.33C694.7,-132.88 691.57,-132.43 688.5,-132 566.88,-114.86 532.12,-131.37 414.5,-96 409.18,-94.4 403.69,-92.16 398.55,-89.77"/>
<polygon fill="#63b8ff" stroke="#63b8ff" points="399.74,-86.45 389.23,-85.1 396.61,-92.71 399.74,-86.45"/>
</a>
</g>
</g>
<!-- Node6 -->
<g id="Node000006" class="node">
<title>Node6</title>
<g id="a_Node000006"><a xlink:title=" ">
<polygon fill="#e0e0e0" stroke="#999999" points="286,-85 239,-85 239,-66 286,-66 286,-85"/>
<text text-anchor="middle" x="262.5" y="-73" font-family="Helvetica,sans-Serif" font-size="10.00">vector</text>
</a>
</g>
</g>
<!-- Node4&#45;&gt;Node6 -->
<g id="edge5_Node000004_Node000006" class="edge">
<title>Node4&#45;&gt;Node6</title>
<g id="a_edge5_Node000004_Node000006"><a xlink:title=" ">
<path fill="none" stroke="#63b8ff" d="M697.87,-133.22C694.71,-132.8 691.58,-132.39 688.5,-132 531.6,-112.22 490.01,-124.77 334.5,-96 321.77,-93.64 307.99,-90.15 295.94,-86.77"/>
<polygon fill="#63b8ff" stroke="#63b8ff" points="296.85,-83.4 286.28,-83.99 294.91,-90.12 296.85,-83.4"/>
</a>
</g>
</g>
<!-- Node7 -->
<g id="Node000007" class="node">
<title>Node7</title>
<g id="a_Node000007"><a xlink:title=" ">
<polygon fill="#e0e0e0" stroke="#999999" points="463.5,-85 423.5,-85 423.5,-66 463.5,-66 463.5,-85"/>
<text text-anchor="middle" x="443.5" y="-73" font-family="Helvetica,sans-Serif" font-size="10.00">span</text>
</a>
</g>
</g>
<!-- Node4&#45;&gt;Node7 -->
<g id="edge6_Node000004_Node000007" class="edge">
<title>Node4&#45;&gt;Node7</title>
<g id="a_edge6_Node000004_Node000007"><a xlink:title=" ">
<path fill="none" stroke="#63b8ff" d="M697.67,-133.34C609.8,-119.94 482.99,-100.14 472.5,-96 469.07,-94.64 465.63,-92.83 462.38,-90.85"/>
<polygon fill="#63b8ff" stroke="#63b8ff" points="464.13,-87.81 453.89,-85.1 460.2,-93.61 464.13,-87.81"/>
</a>
</g>
</g>
<!-- Node8 -->
<g id="Node000008" class="node">
<title>Node8</title>
<g id="a_Node000008"><a xlink:title=" ">
<polygon fill="#e0e0e0" stroke="#999999" points="551,-85 482,-85 482,-66 551,-66 551,-85"/>
<text text-anchor="middle" x="516.5" y="-73" font-family="Helvetica,sans-Serif" font-size="10.00">type_traits</text>
</a>
</g>
</g>
<!-- Node4&#45;&gt;Node8 -->
<g id="edge7_Node000004_Node000008" class="edge">
<title>Node4&#45;&gt;Node8</title>
<g id="a_edge7_Node000004_Node000008"><a xlink:title=" ">
<path fill="none" stroke="#63b8ff" d="M702.24,-131.96C659.67,-123.45 606.62,-111.27 560.5,-96 554.71,-94.08 548.64,-91.67 542.92,-89.2"/>
<polygon fill="#63b8ff" stroke="#63b8ff" points="544.3,-85.99 533.75,-85.08 541.43,-92.37 544.3,-85.99"/>
</a>
</g>
</g>
<!-- Node9 -->
<g id="Node000009" class="node">
<title>Node9</title>
<g id="a_Node000009"><a xlink:title=" ">
<polygon fill="#e0e0e0" stroke="#999999" points="1032,-85 907,-85 907,-66 1032,-66 1032,-85"/>
<text text-anchor="middle" x="969.5" y="-73" font-family="Helvetica,sans-Serif" font-size="10.00">stdexec/execution.hpp</text>
</a>
</g>
</g>
<!-- Node4&#45;&gt;Node9 -->
<g id="edge8_Node000004_Node000009" class="edge">
<title>Node4&#45;&gt;Node9</title>
<g id="a_edge8_Node000004_Node000009"><a xlink:title=" ">
<path fill="none" stroke="#63b8ff" d="M819.54,-131.94C853.97,-119.21 904.13,-100.67 936.79,-88.59"/>
<polygon fill="#63b8ff" stroke="#63b8ff" points="938.16,-91.82 946.32,-85.07 935.73,-85.25 938.16,-91.82"/>
</a>
</g>
</g>
<!-- Node10 -->
<g id="Node000010" class="node">
<title>Node10</title>
<g id="a_Node000010"><a xlink:title=" ">
<polygon fill="#e0e0e0" stroke="#999999" points="703.5,-85 569.5,-85 569.5,-66 703.5,-66 703.5,-85"/>
<text text-anchor="middle" x="636.5" y="-73" font-family="Helvetica,sans-Serif" font-size="10.00">exec/any_sender_of.hpp</text>
</a>
</g>
</g>
<!-- Node4&#45;&gt;Node10 -->
<g id="edge9_Node000004_Node000010" class="edge">
<title>Node4&#45;&gt;Node10</title>
<g id="a_edge9_Node000004_Node000010"><a xlink:title=" ">
<path fill="none" stroke="#63b8ff" d="M752.16,-131.94C726.3,-119.54 688.91,-101.62 663.71,-89.54"/>
<polygon fill="#63b8ff" stroke="#63b8ff" points="664.91,-86.23 654.38,-85.07 661.88,-92.55 664.91,-86.23"/>
</a>
</g>
</g>
<!-- Node11 -->
<g id="Node000011" class="node">
<title>Node11</title>
<g id="a_Node000011"><a xlink:title=" ">
<polygon fill="#e0e0e0" stroke="#999999" points="889,-90.5 722,-90.5 722,-60.5 889,-60.5 889,-90.5"/>
<text text-anchor="start" x="730" y="-78.5" font-family="Helvetica,sans-Serif" font-size="10.00">Hermes/_base/ConnectionError</text>
<text text-anchor="middle" x="805.5" y="-67.5" font-family="Helvetica,sans-Serif" font-size="10.00">Enum.tpp</text>
</a>
</g>
</g>
<!-- Node4&#45;&gt;Node11 -->
<g id="edge10_Node000004_Node000011" class="edge">
<title>Node4&#45;&gt;Node11</title>
<g id="a_edge10_Node000004_Node000011"><a xlink:title=" ">
<path fill="none" stroke="#63b8ff" d="M786.36,-131.94C789.51,-122.8 793.7,-110.66 797.36,-100.07"/>
<polygon fill="#63b8ff" stroke="#63b8ff" points="800.69,-101.14 800.65,-90.54 794.08,-98.85 800.69,-101.14"/>
</a>
</g>
</g>
<!-- Node13 -->
<g id="Node000013" class="node">
<title>Node13</title>
<g id="a_Node000013"><a xlink:title=" ">
<polygon fill="#e0e0e0" stroke="#999999" points="2936,-19 2859,-19 2859,0 2936,0 2936,-19"/>
<text text-anchor="middle" x="2897.5" y="-7" font-family="Helvetica,sans-Serif" font-size="10.00">sys/socket.h</text>
</a>
</g>
</g>
<!-- Node12&#45;&gt;Node13 -->
<g id="edge12_Node000012_Node000013" class="edge">
<title>Node12&#45;&gt;Node13</title>
<g id="a_edge12_Node000012_Node000013"><a xlink:title=" ">
<path fill="none" stroke="#63b8ff" d="M1877.66,-145.48C2072.13,-143.43 2683.83,-133.97 2763.5,-96 2785.66,-85.44 2780.72,-69.53 2800.5,-55 2819.28,-41.21 2843.02,-30.23 2862.31,-22.63"/>
<polygon fill="#63b8ff" stroke="#63b8ff" points="2863.56,-25.9 2871.66,-19.07 2861.07,-19.35 2863.56,-25.9"/>
</a>
</g>
</g>
<!-- Node14 -->
<g id="Node000014" class="node">
<title>Node14</title>
<g id="a_Node000014"><a xlink:title=" ">
<polygon fill="#e0e0e0" stroke="#999999" points="1243.5,-19 1171.5,-19 1171.5,0 1243.5,0 1243.5,-19"/>
<text text-anchor="middle" x="1207.5" y="-7" font-family="Helvetica,sans-Serif" font-size="10.00">netinet/in.h</text>
</a>
</g>
</g>
<!-- Node12&#45;&gt;Node14 -->
<g id="edge13_Node000012_Node000014" class="edge">
<title>Node12&#45;&gt;Node14</title>
<g id="a_edge13_Node000012_Node000014"><a xlink:title=" ">
<path fill="none" stroke="#63b8ff" d="M1759.27,-145.57C1639.07,-143.87 1371.02,-135.61 1289.5,-96 1266.88,-85.01 1267.9,-73.15 1250.5,-55 1241.37,-45.48 1231.11,-34.86 1222.9,-26.38"/>
<polygon fill="#63b8ff" stroke="#63b8ff" points="1225.24,-23.76 1215.76,-19.01 1220.21,-28.63 1225.24,-23.76"/>
</a>
</g>
</g>
<!-- Node15 -->
<g id="Node000015" class="node">
<title>Node15</title>
<g id="a_Node000015"><a xlink:title=" ">
<polygon fill="#e0e0e0" stroke="#999999" points="1367,-85 1298,-85 1298,-66 1367,-66 1367,-85"/>
<text text-anchor="middle" x="1332.5" y="-73" font-family="Helvetica,sans-Serif" font-size="10.00">arpa/inet.h</text>
</a>
</g>
</g>
<!-- Node12&#45;&gt;Node15 -->
<g id="edge14_Node000012_Node000015" class="edge">
<title>Node12&#45;&gt;Node15</title>
<g id="a_edge14_Node000012_Node000015"><a xlink:title=" ">
<path fill="none" stroke="#63b8ff" d="M1759.16,-144.99C1673.31,-142.25 1510.1,-132.24 1376.5,-96 1370.4,-94.35 1364.07,-91.97 1358.17,-89.44"/>
<polygon fill="#63b8ff" stroke="#63b8ff" points="1359.33,-86.12 1348.78,-85.14 1356.41,-92.48 1359.33,-86.12"/>
</a>
</g>
</g>
<!-- Node16 -->
<g id="Node000016" class="node">
<title>Node16</title>
<g id="a_Node000016"><a xlink:title=" ">
<polygon fill="#e0e0e0" stroke="#999999" points="1534,-19 1481,-19 1481,0 1534,0 1534,-19"/>
<text text-anchor="middle" x="1507.5" y="-7" font-family="Helvetica,sans-Serif" font-size="10.00">netdb.h</text>
</a>
</g>
</g>
<!-- Node12&#45;&gt;Node16 -->
<g id="edge15_Node000012_Node000016" class="edge">
<title>Node12&#45;&gt;Node16</title>
<g id="a_edge15_Node000012_Node000016"><a xlink:title=" ">
<path fill="none" stroke="#63b8ff" d="M1759.46,-144.82C1707.78,-141.33 1632.44,-130.13 1576.5,-96 1562.12,-87.23 1534.73,-49.85 1519.13,-27.52"/>
<polygon fill="#63b8ff" stroke="#63b8ff" points="1521.99,-25.5 1513.42,-19.26 1516.23,-29.48 1521.99,-25.5"/>
</a>
</g>
</g>
<!-- Node17 -->
<g id="Node000017" class="node">
<title>Node17</title>
<g id="a_Node000017"><a xlink:title=" ">
<polygon fill="#e0e0e0" stroke="#999999" points="1641.5,-85 1585.5,-85 1585.5,-66 1641.5,-66 1641.5,-85"/>
<text text-anchor="middle" x="1613.5" y="-73" font-family="Helvetica,sans-Serif" font-size="10.00">unistd.h</text>
</a>
</g>
</g>
<!-- Node12&#45;&gt;Node17 -->
<g id="edge16_Node000012_Node000017" class="edge">
<title>Node12&#45;&gt;Node17</title>
<g id="a_edge16_Node000012_Node000017"><a xlink:title=" ">
<path fill="none" stroke="#63b8ff" d="M1761.16,-131.93C1728.24,-123.11 1686.43,-110.65 1650.5,-96 1646.15,-94.22 1641.63,-92.1 1637.31,-89.92"/>
<polygon fill="#63b8ff" stroke="#63b8ff" points="1638.78,-86.74 1628.3,-85.15 1635.51,-92.92 1638.78,-86.74"/>
</a>
</g>
</g>
<!-- Node18 -->
<g id="Node000018" class="node">
<title>Node18</title>
<g id="a_Node000018"><a xlink:href="_conversion_and_literals_8hpp.html" target="_top" xlink:title=" ">
<polygon fill="white" stroke="#666666" points="1809.5,-90.5 1659.5,-90.5 1659.5,-60.5 1809.5,-60.5 1809.5,-90.5"/>
<text text-anchor="start" x="1667.5" y="-78.5" font-family="Helvetica,sans-Serif" font-size="10.00">Hermes/_base/OsApi</text>
<text text-anchor="middle" x="1734.5" y="-67.5" font-family="Helvetica,sans-Serif" font-size="10.00">/ConversionAndLiterals.hpp</text>
</a>
</g>
</g>
<!-- Node12&#45;&gt;Node18 -->
<g id="edge17_Node000012_Node000018" class="edge">
<title>Node12&#45;&gt;Node18</title>
<g id="a_edge17_Node000012_Node000018"><a xlink:title=" ">
<path fill="none" stroke="#63b8ff" d="M1801.5,-131.94C1789.43,-121.95 1773.03,-108.38 1759.48,-97.17"/>
<polygon fill="#63b8ff" stroke="#63b8ff" points="1761.41,-94.22 1751.47,-90.54 1756.95,-99.61 1761.41,-94.22"/>
</a>
</g>
</g>
<!-- Node20 -->
<g id="Node000020" class="node">
<title>Node20</title>
<g id="a_Node000020"><a xlink:href="_macros_8hpp.html" target="_top" xlink:title=" ">
<polygon fill="white" stroke="#666666" points="3324.5,-90.5 3206.5,-90.5 3206.5,-60.5 3324.5,-60.5 3324.5,-90.5"/>
<text text-anchor="start" x="3214.5" y="-78.5" font-family="Helvetica,sans-Serif" font-size="10.00">Hermes/_base/OsApi</text>
<text text-anchor="middle" x="3265.5" y="-67.5" font-family="Helvetica,sans-Serif" font-size="10.00">/Macros.hpp</text>
</a>
</g>
</g>
<!-- Node12&#45;&gt;Node20 -->
<g id="edge19_Node000012_Node000020" class="edge">
<title>Node12&#45;&gt;Node20</title>
<g id="a_edge19_Node000012_Node000020"><a xlink:title=" ">
<path fill="none" stroke="#63b8ff" d="M1877.59,-145.77C2106.82,-144.56 2937.4,-137.38 3197.5,-96 3202.33,-95.23 3207.29,-94.23 3212.24,-93.09"/>
<polygon fill="#63b8ff" stroke="#63b8ff" points="3213.47,-96.39 3222.32,-90.58 3211.77,-89.6 3213.47,-96.39"/>
</a>
</g>
</g>
<!-- Node22 -->
<g id="Node000022" class="node">
<title>Node22</title>
<g id="a_Node000022"><a xlink:href="_address_family_enum_8hpp.html" target="_top" xlink:title=" ">
<polygon fill="white" stroke="#666666" points="2985.5,-90.5 2809.5,-90.5 2809.5,-60.5 2985.5,-60.5 2985.5,-90.5"/>
<text text-anchor="start" x="2817.5" y="-78.5" font-family="Helvetica,sans-Serif" font-size="10.00">Hermes/_base/OsApi</text>
<text text-anchor="middle" x="2897.5" y="-67.5" font-family="Helvetica,sans-Serif" font-size="10.00">/Enums/AddressFamilyEnum.hpp</text>
</a>
</g>
</g>
<!-- Node12&#45;&gt;Node22 -->
<g id="edge22_Node000012_Node000022" class="edge">
<title>Node12&#45;&gt;Node22</title>
<g id="a_edge22_Node000012_Node000022"><a xlink:title=" ">
<path fill="none" stroke="#63b8ff" d="M1877.66,-145.8C2030.25,-144.69 2449.41,-137.74 2795.5,-96 2803.86,-94.99 2812.57,-93.7 2821.22,-92.27"/>
<polygon fill="#63b8ff" stroke="#63b8ff" points="2822.06,-95.67 2831.32,-90.52 2820.87,-88.78 2822.06,-95.67"/>
</a>
</g>
</g>
<!-- Node23 -->
<g id="Node000023" class="node">
<title>Node23</title>
<g id="a_Node000023"><a xlink:href="_protocol_base_type_enum_8hpp.html" target="_top" xlink:title=" ">
<polygon fill="white" stroke="#666666" points="1241,-90.5 1050,-90.5 1050,-60.5 1241,-60.5 1241,-90.5"/>
<text text-anchor="start" x="1058" y="-78.5" font-family="Helvetica,sans-Serif" font-size="10.00">Hermes/_base/OsApi</text>
<text text-anchor="middle" x="1145.5" y="-67.5" font-family="Helvetica,sans-Serif" font-size="10.00">/Enums/ProtocolBaseTypeEnum.hpp</text>
</a>
</g>
</g>
<!-- Node12&#45;&gt;Node23 -->
<g id="edge24_Node000012_Node000023" class="edge">
<title>Node12&#45;&gt;Node23</title>
<g id="a_edge24_Node000012_Node000023"><a xlink:title=" ">
<path fill="none" stroke="#63b8ff" d="M1759.14,-142.43C1656.28,-135.87 1438.37,-120.28 1255.5,-96 1247.14,-94.89 1238.45,-93.59 1229.77,-92.21"/>
<polygon fill="#63b8ff" stroke="#63b8ff" points="1230.06,-88.71 1219.62,-90.55 1228.92,-95.62 1230.06,-88.71"/>
</a>
</g>
</g>
<!-- Node24 -->
<g id="Node000024" class="node">
<title>Node24</title>
<g id="a_Node000024"><a xlink:href="_socket_shutdown_enum_8hpp.html" target="_top" xlink:title=" ">
<polygon fill="white" stroke="#666666" points="3188,-90.5 3003,-90.5 3003,-60.5 3188,-60.5 3188,-90.5"/>
<text text-anchor="start" x="3011" y="-78.5" font-family="Helvetica,sans-Serif" font-size="10.00">Hermes/_base/OsApi</text>
<text text-anchor="middle" x="3095.5" y="-67.5" font-family="Helvetica,sans-Serif" font-size="10.00">/Enums/SocketShutdownEnum.hpp</text>
</a>
</g>
</g>
<!-- Node12&#45;&gt;Node24 -->
<g id="edge26_Node000012_Node000024" class="edge">
<title>Node12&#45;&gt;Node24</title>
<g id="a_edge26_Node000012_Node000024"><a xlink:title=" ">
<path fill="none" stroke="#63b8ff" d="M1877.79,-146.57C2050.6,-147.59 2568.53,-145.9 2994.5,-96 3003.01,-95 3011.87,-93.7 3020.66,-92.23"/>
<polygon fill="#63b8ff" stroke="#63b8ff" points="3021.27,-95.68 3030.52,-90.51 3020.07,-88.78 3021.27,-95.68"/>
</a>
</g>
</g>
<!-- Node25 -->
<g id="Node000025" class="node">
<title>Node25</title>
<g id="a_Node000025"><a xlink:href="_socket_type_enum_8hpp.html" target="_top" xlink:title=" ">
<polygon fill="white" stroke="#666666" points="2754,-90.5 2595,-90.5 2595,-60.5 2754,-60.5 2754,-90.5"/>
<text text-anchor="start" x="2603" y="-78.5" font-family="Helvetica,sans-Serif" font-size="10.00">Hermes/_base/OsApi</text>
<text text-anchor="middle" x="2674.5" y="-67.5" font-family="Helvetica,sans-Serif" font-size="10.00">/Enums/SocketTypeEnum.hpp</text>
</a>
</g>
</g>
<!-- Node12&#45;&gt;Node25 -->
<g id="edge28_Node000012_Node000025" class="edge">
<title>Node12&#45;&gt;Node25</title>
<g id="a_edge28_Node000012_Node000025"><a xlink:title=" ">
<path fill="none" stroke="#63b8ff" d="M1877.59,-145.23C2006.8,-142.87 2323.93,-133.41 2586.5,-96 2593.16,-95.05 2600.07,-93.87 2606.95,-92.56"/>
<polygon fill="#63b8ff" stroke="#63b8ff" points="2607.86,-95.95 2616.98,-90.57 2606.49,-89.09 2607.86,-95.95"/>
</a>
</g>
</g>
<!-- Node26 -->
<g id="Node000026" class="node">
<title>Node26</title>
<g id="a_Node000026"><a xlink:href="_linux_2_encrypt_status_enum_8hpp.html" target="_top" xlink:title=" ">
<polygon fill="white" stroke="#666666" points="1979.5,-96 1827.5,-96 1827.5,-55 1979.5,-55 1979.5,-96"/>
<text text-anchor="start" x="1835.5" y="-84" font-family="Helvetica,sans-Serif" font-size="10.00">Hermes/_base/OsApi</text>
<text text-anchor="start" x="1835.5" y="-73" font-family="Helvetica,sans-Serif" font-size="10.00">/Enums/Linux/EncryptStatus</text>
<text text-anchor="middle" x="1903.5" y="-62" font-family="Helvetica,sans-Serif" font-size="10.00">Enum.hpp</text>
</a>
</g>
</g>
<!-- Node12&#45;&gt;Node26 -->
<g id="edge30_Node000012_Node000026" class="edge">
<title>Node12&#45;&gt;Node26</title>
<g id="a_edge30_Node000012_Node000026"><a xlink:title=" ">
<path fill="none" stroke="#63b8ff" d="M1835.7,-131.94C1846.05,-123.48 1859.54,-112.44 1871.76,-102.45"/>
<polygon fill="#63b8ff" stroke="#63b8ff" points="1874.04,-105.11 1879.56,-96.07 1869.6,-99.69 1874.04,-105.11"/>
</a>
</g>
</g>
<!-- Node27 -->
<g id="Node000027" class="node">
<title>Node27</title>
<g id="a_Node000027"><a xlink:href="_name_info_flags_8hpp.html" target="_top" xlink:title=" ">
<polygon fill="white" stroke="#666666" points="1529.5,-90.5 1385.5,-90.5 1385.5,-60.5 1529.5,-60.5 1529.5,-90.5"/>
<text text-anchor="start" x="1393.5" y="-78.5" font-family="Helvetica,sans-Serif" font-size="10.00">Hermes/_base/OsApi</text>
<text text-anchor="middle" x="1457.5" y="-67.5" font-family="Helvetica,sans-Serif" font-size="10.00">/Flags/NameInfoFlags.hpp</text>
</a>
</g>
</g>
<!-- Node12&#45;&gt;Node27 -->
<g id="edge31_Node000012_Node000027" class="edge">
<title>Node12&#45;&gt;Node27</title>
<g id="a_edge31_Node000012_Node000027"><a xlink:title=" ">
<path fill="none" stroke="#63b8ff" d="M1759.35,-136C1703.56,-126.4 1617.67,-111.14 1543.5,-96 1538.47,-94.97 1533.29,-93.88 1528.07,-92.76"/>
<polygon fill="#63b8ff" stroke="#63b8ff" points="1528.56,-89.28 1518.04,-90.57 1527.06,-96.12 1528.56,-89.28"/>
</a>
</g>
</g>
<!-- Node28 -->
<g id="Node000028" class="node">
<title>Node28</title>
<g id="a_Node000028"><a xlink:href="_linux_2_credential_flags_8hpp.html" target="_top" xlink:title=" ">
<polygon fill="white" stroke="#666666" points="2173.5,-90.5 1997.5,-90.5 1997.5,-60.5 2173.5,-60.5 2173.5,-90.5"/>
<text text-anchor="start" x="2005.5" y="-78.5" font-family="Helvetica,sans-Serif" font-size="10.00">Hermes/_base/OsApi</text>
<text text-anchor="middle" x="2085.5" y="-67.5" font-family="Helvetica,sans-Serif" font-size="10.00">/Flags/Linux/CredentialFlags.hpp</text>
</a>
</g>
</g>
<!-- Node12&#45;&gt;Node28 -->
<g id="edge33_Node000012_Node000028" class="edge">
<title>Node12&#45;&gt;Node28</title>
<g id="a_edge33_Node000012_Node000028"><a xlink:title=" ">
<path fill="none" stroke="#63b8ff" d="M1872.53,-131.94C1915.69,-120.7 1976.27,-104.93 2021.78,-93.09"/>
<polygon fill="#63b8ff" stroke="#63b8ff" points="2022.75,-96.45 2031.55,-90.54 2020.99,-89.68 2022.75,-96.45"/>
</a>
</g>
</g>
<!-- Node29 -->
<g id="Node000029" class="node">
<title>Node29</title>
<g id="a_Node000029"><a xlink:href="_linux_2_supported_protocols_flags_8hpp.html" target="_top" xlink:title=" ">
<polygon fill="white" stroke="#666666" points="2365,-96 2192,-96 2192,-55 2365,-55 2365,-96"/>
<text text-anchor="start" x="2200" y="-84" font-family="Helvetica,sans-Serif" font-size="10.00">Hermes/_base/OsApi</text>
<text text-anchor="start" x="2200" y="-73" font-family="Helvetica,sans-Serif" font-size="10.00">/Flags/Linux/SupportedProtocols</text>
<text text-anchor="middle" x="2278.5" y="-62" font-family="Helvetica,sans-Serif" font-size="10.00">Flags.hpp</text>
</a>
</g>
</g>
<!-- Node12&#45;&gt;Node29 -->
<g id="edge34_Node000012_Node000029" class="edge">
<title>Node12&#45;&gt;Node29</title>
<g id="a_edge34_Node000012_Node000029"><a xlink:title=" ">
<path fill="none" stroke="#63b8ff" d="M1877.62,-139.06C1947.74,-130.56 2068.36,-115.11 2182.02,-96.03"/>
<polygon fill="#63b8ff" stroke="#63b8ff" points="2182.66,-99.47 2191.94,-94.35 2181.5,-92.56 2182.66,-99.47"/>
</a>
</g>
</g>
<!-- Node30 -->
<g id="Node000030" class="node">
<title>Node30</title>
<g id="a_Node000030"><a xlink:href="_linux_2_s_channel_cred_flags_8hpp.html" target="_top" xlink:title=" ">
<polygon fill="white" stroke="#666666" points="2577.5,-90.5 2383.5,-90.5 2383.5,-60.5 2577.5,-60.5 2577.5,-90.5"/>
<text text-anchor="start" x="2391.5" y="-78.5" font-family="Helvetica,sans-Serif" font-size="10.00">Hermes/_base/OsApi</text>
<text text-anchor="middle" x="2480.5" y="-67.5" font-family="Helvetica,sans-Serif" font-size="10.00">/Flags/Linux/SChannelCredFlags.hpp</text>
</a>
</g>
</g>
<!-- Node12&#45;&gt;Node30 -->
<g id="edge35_Node000012_Node000030" class="edge">
<title>Node12&#45;&gt;Node30</title>
<g id="a_edge35_Node000012_Node000030"><a xlink:title=" ">
<path fill="none" stroke="#63b8ff" d="M1877.54,-142.49C1979.31,-136.03 2194.21,-120.64 2374.5,-96 2382.63,-94.89 2391.08,-93.59 2399.51,-92.19"/>
<polygon fill="#63b8ff" stroke="#63b8ff" points="2400.1,-95.64 2409.37,-90.52 2398.93,-88.74 2400.1,-95.64"/>
</a>
</g>
</g>
<!-- Node19 -->
<g id="Node000019" class="node">
<title>Node19</title>
<g id="a_Node000019"><a xlink:title=" ">
<polygon fill="#e0e0e0" stroke="#999999" points="1759.5,-19 1709.5,-19 1709.5,0 1759.5,0 1759.5,-19"/>
<text text-anchor="middle" x="1734.5" y="-7" font-family="Helvetica,sans-Serif" font-size="10.00">cstdint</text>
</a>
</g>
</g>
<!-- Node18&#45;&gt;Node19 -->
<g id="edge18_Node000018_Node000019" class="edge">
<title>Node18&#45;&gt;Node19</title>
<g id="a_edge18_Node000018_Node000019"><a xlink:title=" ">
<path fill="none" stroke="#63b8ff" d="M1734.5,-60.3C1734.5,-51.2 1734.5,-39.29 1734.5,-29.4"/>
<polygon fill="#63b8ff" stroke="#63b8ff" points="1738,-29.34 1734.5,-19.34 1731,-29.34 1738,-29.34"/>
</a>
</g>
</g>
<!-- Node20&#45;&gt;Node13 -->
<g id="edge21_Node000020_Node000013" class="edge">
<title>Node20&#45;&gt;Node13</title>
<g id="a_edge21_Node000020_Node000013"><a xlink:title=" ">
<path fill="none" stroke="#63b8ff" d="M3219.62,-60.45C3212.26,-58.46 3204.7,-56.56 3197.5,-55 3109.88,-36.02 3006.09,-22.6 2946.41,-15.74"/>
<polygon fill="#63b8ff" stroke="#63b8ff" points="2946.48,-12.23 2936.15,-14.58 2945.69,-19.19 2946.48,-12.23"/>
</a>
</g>
</g>
<!-- Node21 -->
<g id="Node000021" class="node">
<title>Node21</title>
<g id="a_Node000021"><a xlink:title=" ">
<polygon fill="#e0e0e0" stroke="#999999" points="3302,-19 3229,-19 3229,0 3302,0 3302,-19"/>
<text text-anchor="middle" x="3265.5" y="-7" font-family="Helvetica,sans-Serif" font-size="10.00">string_view</text>
</a>
</g>
</g>
<!-- Node20&#45;&gt;Node21 -->
<g id="edge20_Node000020_Node000021" class="edge">
<title>Node20&#45;&gt;Node21</title>
<g id="a_edge20_Node000020_Node000021"><a xlink:title=" ">
<path fill="none" stroke="#63b8ff" d="M3265.5,-60.3C3265.5,-51.2 3265.5,-39.29 3265.5,-29.4"/>
<polygon fill="#63b8ff" stroke="#63b8ff" points="3269,-29.34 3265.5,-19.34 3262,-29.34 3269,-29.34"/>
</a>
</g>
</g>
<!-- Node22&#45;&gt;Node13 -->
<g id="edge23_Node000022_Node000013" class="edge">
<title>Node22&#45;&gt;Node13</title>
<g id="a_edge23_Node000022_Node000013"><a xlink:title=" ">
<path fill="none" stroke="#63b8ff" d="M2897.5,-60.3C2897.5,-51.2 2897.5,-39.29 2897.5,-29.4"/>
<polygon fill="#63b8ff" stroke="#63b8ff" points="2901,-29.34 2897.5,-19.34 2894,-29.34 2901,-29.34"/>
</a>
</g>
</g>
<!-- Node23&#45;&gt;Node14 -->
<g id="edge25_Node000023_Node000014" class="edge">
<title>Node23&#45;&gt;Node14</title>
<g id="a_edge25_Node000023_Node000014"><a xlink:title=" ">
<path fill="none" stroke="#63b8ff" d="M1159.26,-60.3C1168.93,-50.32 1181.87,-36.96 1191.92,-26.59"/>
<polygon fill="#63b8ff" stroke="#63b8ff" points="1194.49,-28.96 1198.93,-19.34 1189.46,-24.09 1194.49,-28.96"/>
</a>
</g>
</g>
<!-- Node24&#45;&gt;Node13 -->
<g id="edge27_Node000024_Node000013" class="edge">
<title>Node24&#45;&gt;Node13</title>
<g id="a_edge27_Node000024_Node000013"><a xlink:title=" ">
<path fill="none" stroke="#63b8ff" d="M3052.05,-60.45C3016.56,-48.98 2966.99,-32.96 2933.64,-22.18"/>
<polygon fill="#63b8ff" stroke="#63b8ff" points="2934.44,-18.76 2923.85,-19.02 2932.29,-25.42 2934.44,-18.76"/>
</a>
</g>
</g>
<!-- Node25&#45;&gt;Node13 -->
<g id="edge29_Node000025_Node000013" class="edge">
<title>Node25&#45;&gt;Node13</title>
<g id="a_edge29_Node000025_Node000013"><a xlink:title=" ">
<path fill="none" stroke="#63b8ff" d="M2723.44,-60.45C2763.75,-48.88 2820.2,-32.68 2857.76,-21.91"/>
<polygon fill="#63b8ff" stroke="#63b8ff" points="2859.18,-25.14 2867.82,-19.02 2857.24,-18.41 2859.18,-25.14"/>
</a>
</g>
</g>
<!-- Node27&#45;&gt;Node16 -->
<g id="edge32_Node000027_Node000016" class="edge">
<title>Node27&#45;&gt;Node16</title>
<g id="a_edge32_Node000027_Node000016"><a xlink:title=" ">
<path fill="none" stroke="#63b8ff" d="M1468.6,-60.3C1476.16,-50.61 1486.22,-37.74 1494.21,-27.51"/>
<polygon fill="#63b8ff" stroke="#63b8ff" points="1497.19,-29.38 1500.59,-19.34 1491.68,-25.07 1497.19,-29.38"/>
</a>
</g>
</g>
<!-- Node31&#45;&gt;Node6 -->
<g id="edge44_Node000031_Node000006" class="edge">
<title>Node31&#45;&gt;Node6</title>
<g id="a_edge44_Node000031_Node000006"><a xlink:title=" ">
<path fill="none" stroke="#63b8ff" d="M287.89,-197.82C270.41,-190.18 252.61,-178.75 242.5,-162 229.74,-140.86 241.14,-112.24 251.23,-94.07"/>
<polygon fill="#63b8ff" stroke="#63b8ff" points="254.42,-95.54 256.54,-85.16 248.41,-91.96 254.42,-95.54"/>
</a>
</g>
</g>
<!-- Node31&#45;&gt;Node32 -->
<g id="edge37_Node000031_Node000032" class="edge">
<title>Node31&#45;&gt;Node32</title>
<g id="a_edge37_Node000031_Node000032"><a xlink:title=" ">
<path fill="none" stroke="#63b8ff" d="M278.47,-197.95C229.01,-186.19 159.41,-169.63 114.14,-158.86"/>
<polygon fill="#63b8ff" stroke="#63b8ff" points="114.84,-155.43 104.3,-156.52 113.22,-162.24 114.84,-155.43"/>
</a>
</g>
</g>
<!-- Node35 -->
<g id="Node000035" class="node">
<title>Node35</title>
<g id="a_Node000035"><a xlink:title=" ">
<polygon fill="#e0e0e0" stroke="#999999" points="293.5,-156.5 251.5,-156.5 251.5,-137.5 293.5,-137.5 293.5,-156.5"/>
<text text-anchor="middle" x="272.5" y="-144.5" font-family="Helvetica,sans-Serif" font-size="10.00">array</text>
</a>
</g>
</g>
<!-- Node31&#45;&gt;Node35 -->
<g id="edge40_Node000031_Node000035" class="edge">
<title>Node31&#45;&gt;Node35</title>
<g id="a_edge40_Node000031_Node000035"><a xlink:title=" ">
<path fill="none" stroke="#63b8ff" d="M323.07,-197.8C312.94,-187.82 299.37,-174.46 288.84,-164.09"/>
<polygon fill="#63b8ff" stroke="#63b8ff" points="291.06,-161.37 281.48,-156.84 286.15,-166.35 291.06,-161.37"/>
</a>
</g>
</g>
<!-- Node31&#45;&gt;Node36 -->
<g id="edge41_Node000031_Node000036" class="edge">
<title>Node31&#45;&gt;Node36</title>
<g id="a_edge41_Node000031_Node000036"><a xlink:title=" ">
<path fill="none" stroke="#63b8ff" d="M301.51,-197.95C272.62,-186.68 232.47,-171.01 204.88,-160.25"/>
<polygon fill="#63b8ff" stroke="#63b8ff" points="205.91,-156.89 195.33,-156.52 203.37,-163.41 205.91,-156.89"/>
</a>
</g>
</g>
<!-- Node37 -->
<g id="Node000037" class="node">
<title>Node37</title>
<g id="a_Node000037"><a xlink:title=" ">
<polygon fill="#e0e0e0" stroke="#999999" points="363,-156.5 312,-156.5 312,-137.5 363,-137.5 363,-156.5"/>
<text text-anchor="middle" x="337.5" y="-144.5" font-family="Helvetica,sans-Serif" font-size="10.00">variant</text>
</a>
</g>
</g>
<!-- Node31&#45;&gt;Node37 -->
<g id="edge42_Node000031_Node000037" class="edge">
<title>Node31&#45;&gt;Node37</title>
<g id="a_edge42_Node000031_Node000037"><a xlink:title=" ">
<path fill="none" stroke="#63b8ff" d="M337.5,-197.8C337.5,-188.7 337.5,-176.79 337.5,-166.9"/>
<polygon fill="#63b8ff" stroke="#63b8ff" points="341,-166.84 337.5,-156.84 334,-166.84 341,-166.84"/>
</a>
</g>
</g>
<!-- Node31&#45;&gt;Node38 -->
<g id="edge43_Node000031_Node000038" class="edge">
<title>Node31&#45;&gt;Node38</title>
<g id="a_edge43_Node000031_Node000038"><a xlink:title=" ">
<path fill="none" stroke="#63b8ff" d="M415.04,-201.64C470.8,-193.3 547.49,-179.99 613.5,-162 615.93,-161.34 618.43,-160.58 620.93,-159.78"/>
<polygon fill="#63b8ff" stroke="#63b8ff" points="622.1,-163.08 630.41,-156.51 619.81,-156.46 622.1,-163.08"/>
</a>
</g>
</g>
<!-- Node39 -->
<g id="Node000039" class="node">
<title>Node39</title>
<g id="a_Node000039"><a xlink:title=" ">
<polygon fill="#e0e0e0" stroke="#999999" points="431.5,-156.5 381.5,-156.5 381.5,-137.5 431.5,-137.5 431.5,-156.5"/>
<text text-anchor="middle" x="406.5" y="-144.5" font-family="Helvetica,sans-Serif" font-size="10.00">format</text>
</a>
</g>
</g>
<!-- Node31&#45;&gt;Node39 -->
<g id="edge45_Node000031_Node000039" class="edge">
<title>Node31&#45;&gt;Node39</title>
<g id="a_edge45_Node000031_Node000039"><a xlink:title=" ">
<path fill="none" stroke="#63b8ff" d="M352.81,-197.8C363.68,-187.72 378.26,-174.19 389.49,-163.78"/>
<polygon fill="#63b8ff" stroke="#63b8ff" points="392.01,-166.21 396.96,-156.84 387.25,-161.08 392.01,-166.21"/>
</a>
</g>
</g>
<!-- Node40 -->
<g id="Node000040" class="node">
<title>Node40</title>
<g id="a_Node000040"><a xlink:title=" ">
<polygon fill="#e0e0e0" stroke="#999999" points="605,-162 450,-162 450,-132 605,-132 605,-162"/>
<text text-anchor="start" x="458" y="-150" font-family="Helvetica,sans-Serif" font-size="10.00">Hermes/Endpoint/IpEndpoint</text>
<text text-anchor="middle" x="527.5" y="-139" font-family="Helvetica,sans-Serif" font-size="10.00">/IpAddress.tpp</text>
</a>
</g>
</g>
<!-- Node31&#45;&gt;Node40 -->
<g id="edge46_Node000031_Node000040" class="edge">
<title>Node31&#45;&gt;Node40</title>
<g id="a_edge46_Node000031_Node000040"><a xlink:title=" ">
<path fill="none" stroke="#63b8ff" d="M379.2,-197.95C407.78,-188.33 445.89,-175.49 476.31,-165.24"/>
<polygon fill="#63b8ff" stroke="#63b8ff" points="477.54,-168.52 485.9,-162.01 475.31,-161.89 477.54,-168.52"/>
</a>
</g>
</g>
<!-- Node33 -->
<g id="Node000033" class="node">
<title>Node33</title>
<g id="a_Node000033"><a xlink:title=" ">
<polygon fill="#e0e0e0" stroke="#999999" points="128,-85 83,-85 83,-66 128,-66 128,-85"/>
<text text-anchor="middle" x="105.5" y="-73" font-family="Helvetica,sans-Serif" font-size="10.00">utility</text>
</a>
</g>
</g>
<!-- Node32&#45;&gt;Node33 -->
<g id="edge38_Node000032_Node000033" class="edge">
<title>Node32&#45;&gt;Node33</title>
<g id="a_edge38_Node000032_Node000033"><a xlink:title=" ">
<path fill="none" stroke="#63b8ff" d="M73.04,-137.48C78.75,-126.74 88.71,-108.03 96.1,-94.16"/>
<polygon fill="#63b8ff" stroke="#63b8ff" points="99.32,-95.56 100.93,-85.09 93.14,-92.27 99.32,-95.56"/>
</a>
</g>
</g>
<!-- Node34 -->
<g id="Node000034" class="node">
<title>Node34</title>
<g id="a_Node000034"><a xlink:title=" ">
<polygon fill="#e0e0e0" stroke="#999999" points="65,-85 0,-85 0,-66 65,-66 65,-85"/>
<text text-anchor="middle" x="32.5" y="-73" font-family="Helvetica,sans-Serif" font-size="10.00">functional</text>
</a>
</g>
</g>
<!-- Node32&#45;&gt;Node34 -->
<g id="edge39_Node000032_Node000034" class="edge">
<title>Node32&#45;&gt;Node34</title>
<g id="a_edge39_Node000032_Node000034"><a xlink:title=" ">
<path fill="none" stroke="#63b8ff" d="M64.09,-137.48C58.53,-126.74 48.83,-108.03 41.65,-94.16"/>
<polygon fill="#63b8ff" stroke="#63b8ff" points="44.66,-92.36 36.95,-85.09 38.44,-95.58 44.66,-92.36"/>
</a>
</g>
</g>
<!-- Node42&#45;&gt;Node3 -->
<g id="edge53_Node000042_Node000003" class="edge">
<title>Node42&#45;&gt;Node3</title>
<g id="a_edge53_Node000042_Node000003"><a xlink:title=" ">
<path fill="none" stroke="#63b8ff" d="M875.5,-269.37C875.5,-261.49 875.5,-249.45 875.5,-238.6"/>
<polygon fill="#63b8ff" stroke="#63b8ff" points="879,-238.36 875.5,-228.36 872,-238.36 879,-238.36"/>
</a>
</g>
</g>
<!-- Node42&#45;&gt;Node4 -->
<g id="edge54_Node000042_Node000004" class="edge">
<title>Node42&#45;&gt;Node4</title>
<g id="a_edge54_Node000042_Node000004"><a xlink:title=" ">
<path fill="none" stroke="#63b8ff" d="M854.81,-269.45C837.67,-261.31 814,-247.4 800.5,-228 789.13,-211.66 784.51,-189.38 782.66,-172.49"/>
<polygon fill="#63b8ff" stroke="#63b8ff" points="786.12,-171.95 781.8,-162.28 779.15,-172.53 786.12,-171.95"/>
</a>
</g>
</g>
<!-- Node42&#45;&gt;Node9 -->
<g id="edge56_Node000042_Node000009" class="edge">
<title>Node42&#45;&gt;Node9</title>
<g id="a_edge56_Node000042_Node000009"><a xlink:title=" ">
<path fill="none" stroke="#63b8ff" d="M897.43,-269.49C914.84,-261.52 938.24,-247.83 950.5,-228 976.34,-186.22 974.72,-125.53 971.86,-95.21"/>
<polygon fill="#63b8ff" stroke="#63b8ff" points="975.33,-94.74 970.76,-85.18 968.37,-95.5 975.33,-94.74"/>
</a>
</g>
</g>
<!-- Node42&#45;&gt;Node12 -->
<g id="edge55_Node000042_Node000012" class="edge">
<title>Node42&#45;&gt;Node12</title>
<g id="a_edge55_Node000042_Node000012"><a xlink:title=" ">
<path fill="none" stroke="#63b8ff" d="M916.01,-269.45C963.86,-258.99 1040.27,-241.07 1066.5,-228 1085.76,-218.41 1084.43,-205.76 1104.5,-198 1220.76,-153.03 1593.37,-147.84 1749.08,-147.69"/>
<polygon fill="#63b8ff" stroke="#63b8ff" points="1749.47,-151.19 1759.47,-147.69 1749.47,-144.19 1749.47,-151.19"/>
</a>
</g>
</g>
<!-- Node43 -->
<g id="Node000043" class="node">
<title>Node43</title>
<g id="a_Node000043"><a xlink:title=" ">
<polygon fill="#e0e0e0" stroke="#999999" points="1057.5,-222.5 997.5,-222.5 997.5,-203.5 1057.5,-203.5 1057.5,-222.5"/>
<text text-anchor="middle" x="1027.5" y="-210.5" font-family="Helvetica,sans-Serif" font-size="10.00">concepts</text>
</a>
</g>
</g>
<!-- Node42&#45;&gt;Node43 -->
<g id="edge57_Node000042_Node000043" class="edge">
<title>Node42&#45;&gt;Node43</title>
<g id="a_edge57_Node000042_Node000043"><a xlink:title=" ">
<path fill="none" stroke="#63b8ff" d="M896,-269.37C922.06,-258.39 967.28,-239.36 997.29,-226.72"/>
<polygon fill="#63b8ff" stroke="#63b8ff" points="998.98,-229.81 1006.84,-222.7 996.27,-223.35 998.98,-229.81"/>
</a>
</g>
</g>
<!-- Node44 -->
<g id="Node000044" class="node">
<title>Node44</title>
<g id="a_Node000044"><a xlink:title=" ">
<polygon fill="#e0e0e0" stroke="#999999" points="1163.5,-222.5 1113.5,-222.5 1113.5,-203.5 1163.5,-203.5 1163.5,-222.5"/>
<text text-anchor="middle" x="1138.5" y="-210.5" font-family="Helvetica,sans-Serif" font-size="10.00">ranges</text>
</a>
</g>
</g>
<!-- Node42&#45;&gt;Node44 -->
<g id="edge58_Node000042_Node000044" class="edge">
<title>Node42&#45;&gt;Node44</title>
<g id="a_edge58_Node000042_Node000044"><a xlink:title=" ">
<path fill="none" stroke="#63b8ff" d="M921.83,-269.42C967.43,-260.56 1038.84,-245.58 1099.5,-228 1101.77,-227.34 1104.11,-226.62 1106.45,-225.86"/>
<polygon fill="#63b8ff" stroke="#63b8ff" points="1107.63,-229.16 1115.97,-222.63 1105.38,-222.53 1107.63,-229.16"/>
</a>
</g>
</g>
<!-- Node45&#45;&gt;Node2 -->
<g id="edge60_Node000045_Node000002" class="edge">
<title>Node45&#45;&gt;Node2</title>
<g id="a_edge60_Node000045_Node000002"><a xlink:title=" ">
<path fill="none" stroke="#63b8ff" d="M816.61,-335.44C769.38,-324.15 703,-308.3 653.32,-296.44"/>
<polygon fill="#63b8ff" stroke="#63b8ff" points="653.84,-292.96 643.3,-294.04 652.21,-299.77 653.84,-292.96"/>
</a>
</g>
</g>
<!-- Node45&#45;&gt;Node42 -->
<g id="edge62_Node000045_Node000042" class="edge">
<title>Node45&#45;&gt;Node42</title>
<g id="a_edge62_Node000045_Node000042"><a xlink:title=" ">
<path fill="none" stroke="#63b8ff" d="M875.5,-335.44C875.5,-324.96 875.5,-310.55 875.5,-299.05"/>
<polygon fill="#63b8ff" stroke="#63b8ff" points="879,-298.77 875.5,-288.77 872,-298.77 879,-298.77"/>
</a>
</g>
</g>
<!-- Node46 -->
<g id="Node000046" class="node">
<title>Node46</title>
<g id="a_Node000046"><a xlink:title=" ">
<polygon fill="#e0e0e0" stroke="#999999" points="1163.5,-288.5 1113.5,-288.5 1113.5,-269.5 1163.5,-269.5 1163.5,-288.5"/>
<text text-anchor="middle" x="1138.5" y="-276.5" font-family="Helvetica,sans-Serif" font-size="10.00">chrono</text>
</a>
</g>
</g>
<!-- Node45&#45;&gt;Node46 -->
<g id="edge61_Node000045_Node000046" class="edge">
<title>Node45&#45;&gt;Node46</title>
<g id="a_edge61_Node000045_Node000046"><a xlink:title=" ">
<path fill="none" stroke="#63b8ff" d="M929.85,-335.41C937.12,-333.57 944.49,-331.72 951.5,-330 1019.34,-313.32 1037.99,-315.37 1104.5,-294 1106.17,-293.46 1107.88,-292.88 1109.59,-292.27"/>
<polygon fill="#63b8ff" stroke="#63b8ff" points="1111.2,-295.4 1119.28,-288.54 1108.69,-288.86 1111.2,-295.4"/>
</a>
</g>
</g>
<!-- Node47 -->
<g id="Node000047" class="node">
<title>Node47</title>
<g id="a_Node000047"><a xlink:title=" ">
<polygon fill="#e0e0e0" stroke="#999999" points="1095.5,-294 965.5,-294 965.5,-264 1095.5,-264 1095.5,-294"/>
<text text-anchor="start" x="973.5" y="-282" font-family="Helvetica,sans-Serif" font-size="10.00">Hermes/Socket/Data</text>
<text text-anchor="middle" x="1030.5" y="-271" font-family="Helvetica,sans-Serif" font-size="10.00">/DefaultSocketData.tpp</text>
</a>
</g>
</g>
<!-- Node45&#45;&gt;Node47 -->
<g id="edge63_Node000045_Node000047" class="edge">
<title>Node45&#45;&gt;Node47</title>
<g id="a_edge63_Node000045_Node000047"><a xlink:title=" ">
<path fill="none" stroke="#63b8ff" d="M906.87,-335.44C930.82,-324.7 964.01,-309.81 989.97,-298.17"/>
<polygon fill="#63b8ff" stroke="#63b8ff" points="991.49,-301.33 999.18,-294.04 988.62,-294.94 991.49,-301.33"/>
</a>
</g>
</g>
</g>
</svg>
