<?xml version="1.0" encoding="UTF-8" standalone="no"?>
<!DOCTYPE svg PUBLIC "-//W3C//DTD SVG 1.1//EN"
 "http://www.w3.org/Graphics/SVG/1.1/DTD/svg11.dtd">
<!-- Generated by graphviz version 2.43.0 (0)
 -->
<!-- Title: include/Hermes/Socket/_base/Accept/DefaultAcceptPolicy.hpp Pages: 1 -->
<svg width="238pt" height="247pt"
 viewBox="0.00 0.00 237.50 247.00" xmlns="http://www.w3.org/2000/svg" xmlns:xlink="http://www.w3.org/1999/xlink">
<g id="graph0" class="graph" transform="scale(1 1) rotate(0) translate(4 243)">
<title>include/Hermes/Socket/_base/Accept/DefaultAcceptPolicy.hpp</title>
<!-- Node1 -->
<g id="Node000001" class="node">
<title>Node1</title>
<g id="a_Node000001"><a xlink:title=" ">
<polygon fill="#999999" stroke="#666666" points="156,-239 0,-239 0,-198 156,-198 156,-239"/>
<text text-anchor="start" x="8" y="-227" font-family="Helvetica,sans-Serif" font-size="10.00">include/Hermes/Socket</text>
<text text-anchor="start" x="8" y="-216" font-family="Helvetica,sans-Serif" font-size="10.00">/_base/Accept/DefaultAccept</text>
<text text-anchor="middle" x="78" y="-205" font-family="Helvetica,sans-Serif" font-size="10.00">Policy.hpp</text>
</a>
</g>
</g>
<!-- Node2 -->
<g id="Node000002" class="node">
<title>Node2</title>
<g id="a_Node000002"><a xlink:href="_server_socket_8hpp.html" target="_top" xlink:title=" ">
<polygon fill="white" stroke="#666666" points="142,-96 14,-96 14,-66 142,-66 142,-96"/>
<text text-anchor="start" x="22" y="-84" font-family="Helvetica,sans-Serif" font-size="10.00">include/Hermes/Socket</text>
<text text-anchor="middle" x="78" y="-73" font-family="Helvetica,sans-Serif" font-size="10.00">/ServerSocket.hpp</text>
</a>
</g>
</g>
<!-- Node1&#45;&gt;Node2 -->
<g id="edge1_Node000001_Node000002" class="edge">
<title>Node1&#45;&gt;Node2</title>
<g id="a_edge1_Node000001_Node000002"><a xlink:title=" ">
<path fill="none" stroke="#63b8ff" d="M52.41,-190.03C46.14,-181.65 40.29,-171.98 37,-162 32.83,-149.34 32.51,-144.55 37,-132 41.99,-118.05 52.73,-105.19 61.97,-96.01"/>
<polygon fill="#63b8ff" stroke="#63b8ff" points="49.77,-192.33 58.74,-197.96 55.23,-187.96 49.77,-192.33"/>
</a>
</g>
</g>
<!-- Node4 -->
<g id="Node000004" class="node">
<title>Node4</title>
<g id="a_Node000004"><a xlink:href="_tls_accept_policy_8hpp.html" target="_top" xlink:title=" ">
<polygon fill="white" stroke="#666666" points="229.5,-162 46.5,-162 46.5,-132 229.5,-132 229.5,-162"/>
<text text-anchor="start" x="54.5" y="-150" font-family="Helvetica,sans-Serif" font-size="10.00">include/Hermes/Socket</text>
<text text-anchor="middle" x="138" y="-139" font-family="Helvetica,sans-Serif" font-size="10.00">/_base/Accept/TlsAcceptPolicy.hpp</text>
</a>
</g>
</g>
<!-- Node1&#45;&gt;Node4 -->
<g id="edge3_Node000001_Node000004" class="edge">
<title>Node1&#45;&gt;Node4</title>
<g id="a_edge3_Node000001_Node000004"><a xlink:title=" ">
<path fill="none" stroke="#63b8ff" d="M101.76,-189.98C110.03,-180.4 118.96,-170.06 125.88,-162.04"/>
<polygon fill="#63b8ff" stroke="#63b8ff" points="98.92,-187.91 95.03,-197.77 104.22,-192.49 98.92,-187.91"/>
</a>
</g>
</g>
<!-- Node3 -->
<g id="Node000003" class="node">
<title>Node3</title>
<g id="a_Node000003"><a xlink:href="_listener_socket_8hpp.html" target="_top" xlink:title=" ">
<polygon fill="white" stroke="#666666" points="142,-30 14,-30 14,0 142,0 142,-30"/>
<text text-anchor="start" x="22" y="-18" font-family="Helvetica,sans-Serif" font-size="10.00">include/Hermes/Socket</text>
<text text-anchor="middle" x="78" y="-7" font-family="Helvetica,sans-Serif" font-size="10.00">/ListenerSocket.hpp</text>
</a>
</g>
</g>
<!-- Node2&#45;&gt;Node3 -->
<g id="edge2_Node000002_Node000003" class="edge">
<title>Node2&#45;&gt;Node3</title>
<g id="a_edge2_Node000002_Node000003"><a xlink:title=" ">
<path fill="none" stroke="#63b8ff" d="M78,-55.54C78,-46.96 78,-37.61 78,-30.16"/>
<polygon fill="#63b8ff" stroke="#63b8ff" points="74.5,-55.8 78,-65.8 81.5,-55.8 74.5,-55.8"/>
</a>
</g>
</g>
<!-- Node4&#45;&gt;Node2 -->
<g id="edge4_Node000004_Node000002" class="edge">
<title>Node4&#45;&gt;Node2</title>
<g id="a_edge4_Node000004_Node000002"><a xlink:title=" ">
<path fill="none" stroke="#63b8ff" d="M117.72,-124.37C108.99,-115.06 99.04,-104.44 91.28,-96.16"/>
<polygon fill="#63b8ff" stroke="#63b8ff" points="115.29,-126.89 124.68,-131.8 120.4,-122.11 115.29,-126.89"/>
</a>
</g>
</g>
</g>
</svg>
