<?xml version="1.0" encoding="UTF-8" standalone="no"?>
<!DOCTYPE svg PUBLIC "-//W3C//DTD SVG 1.1//EN"
 "http://www.w3.org/Graphics/SVG/1.1/DTD/svg11.dtd">
<!-- Generated by graphviz version 2.43.0 (0)
 -->
<!-- Title: include/Hermes/Socket/Data/DefaultSocketData.hpp Pages: 1 -->
<svg width="1273pt" height="412pt"
 viewBox="0.00 0.00 1272.92 412.00" xmlns="http://www.w3.org/2000/svg" xmlns:xlink="http://www.w3.org/1999/xlink">
<g id="graph0" class="graph" transform="scale(1 1) rotate(0) translate(4 408)">
<title>include/Hermes/Socket/Data/DefaultSocketData.hpp</title>
<!-- Node1 -->
<g id="Node000001" class="node">
<title>Node1</title>
<g id="a_Node000001"><a xlink:title=" ">
<polygon fill="#999999" stroke="#666666" points="644.42,-404 486.42,-404 486.42,-374 644.42,-374 644.42,-404"/>
<text text-anchor="start" x="494.42" y="-392" font-family="Helvetica,sans-Serif" font-size="10.00">include/Hermes/Socket</text>
<text text-anchor="middle" x="565.42" y="-381" font-family="Helvetica,sans-Serif" font-size="10.00">/Data/DefaultSocketData.hpp</text>
</a>
</g>
</g>
<!-- Node2 -->
<g id="Node000002" class="node">
<title>Node2</title>
<g id="a_Node000002"><a xlink:href="_default_async_accept_policy_8hpp.html" target="_top" xlink:title=" ">
<polygon fill="white" stroke="#666666" points="377.92,-261 222.92,-261 222.92,-220 377.92,-220 377.92,-261"/>
<text text-anchor="start" x="230.92" y="-249" font-family="Helvetica,sans-Serif" font-size="10.00">include/Hermes/Socket</text>
<text text-anchor="start" x="230.92" y="-238" font-family="Helvetica,sans-Serif" font-size="10.00">/Async/_base/Accept/Default</text>
<text text-anchor="middle" x="300.42" y="-227" font-family="Helvetica,sans-Serif" font-size="10.00">AsyncAcceptPolicy.hpp</text>
</a>
</g>
</g>
<!-- Node1&#45;&gt;Node2 -->
<g id="edge1_Node000001_Node000002" class="edge">
<title>Node1&#45;&gt;Node2</title>
<g id="a_edge1_Node000001_Node000002"><a xlink:title=" ">
<path fill="none" stroke="#63b8ff" d="M476.18,-371.78C448.07,-364.22 417.77,-353.38 392.42,-338 359.37,-317.95 330.29,-282.99 314.06,-261.11"/>
<polygon fill="#63b8ff" stroke="#63b8ff" points="475.46,-375.21 486.02,-374.32 477.21,-368.43 475.46,-375.21"/>
</a>
</g>
</g>
<!-- Node6 -->
<g id="Node000006" class="node">
<title>Node6</title>
<g id="a_Node000006"><a xlink:href="_default_async_connect_policy_8hpp.html" target="_top" xlink:title=" ">
<polygon fill="white" stroke="#666666" points="898.92,-184 725.92,-184 725.92,-143 898.92,-143 898.92,-184"/>
<text text-anchor="start" x="733.92" y="-172" font-family="Helvetica,sans-Serif" font-size="10.00">include/Hermes/Socket</text>
<text text-anchor="start" x="733.92" y="-161" font-family="Helvetica,sans-Serif" font-size="10.00">/Async/_base/Connection</text>
<text text-anchor="middle" x="812.42" y="-150" font-family="Helvetica,sans-Serif" font-size="10.00">/DefaultAsyncConnectPolicy.hpp</text>
</a>
</g>
</g>
<!-- Node1&#45;&gt;Node6 -->
<g id="edge5_Node000001_Node000006" class="edge">
<title>Node1&#45;&gt;Node6</title>
<g id="a_edge5_Node000001_Node000006"><a xlink:title=" ">
<path fill="none" stroke="#63b8ff" d="M578.38,-364.85C582.95,-356.46 588.04,-346.87 592.42,-338 617.87,-286.45 602.76,-258.54 645.42,-220 659.19,-207.56 697.51,-194.42 733.97,-184.06"/>
<polygon fill="#63b8ff" stroke="#63b8ff" points="575.26,-363.26 573.5,-373.7 581.39,-366.63 575.26,-363.26"/>
</a>
</g>
</g>
<!-- Node9 -->
<g id="Node000009" class="node">
<title>Node9</title>
<g id="a_Node000009"><a xlink:href="_default_async_transfer_policy_8hpp.html" target="_top" xlink:title=" ">
<polygon fill="white" stroke="#666666" points="201.92,-261 28.92,-261 28.92,-220 201.92,-220 201.92,-261"/>
<text text-anchor="start" x="36.92" y="-249" font-family="Helvetica,sans-Serif" font-size="10.00">include/Hermes/Socket</text>
<text text-anchor="start" x="36.92" y="-238" font-family="Helvetica,sans-Serif" font-size="10.00">/Async/_base/Transfer</text>
<text text-anchor="middle" x="115.42" y="-227" font-family="Helvetica,sans-Serif" font-size="10.00">/DefaultAsyncTransferPolicy.hpp</text>
</a>
</g>
</g>
<!-- Node1&#45;&gt;Node9 -->
<g id="edge9_Node000001_Node000009" class="edge">
<title>Node1&#45;&gt;Node9</title>
<g id="a_edge9_Node000001_Node000009"><a xlink:title=" ">
<path fill="none" stroke="#63b8ff" d="M476.39,-372.05C434.89,-363.62 385.14,-352.08 341.42,-338 274.21,-316.35 199.45,-282.36 154.99,-261.04"/>
<polygon fill="#63b8ff" stroke="#63b8ff" points="475.71,-375.48 486.21,-374.01 477.09,-368.62 475.71,-375.48"/>
</a>
</g>
</g>
<!-- Node10 -->
<g id="Node000010" class="node">
<title>Node10</title>
<g id="a_Node000010"><a xlink:href="_default_accept_policy_8hpp.html" target="_top" xlink:title=" ">
<polygon fill="white" stroke="#666666" points="583.42,-338 401.42,-338 401.42,-297 583.42,-297 583.42,-338"/>
<text text-anchor="start" x="409.42" y="-326" font-family="Helvetica,sans-Serif" font-size="10.00">include/Hermes/Socket</text>
<text text-anchor="start" x="409.42" y="-315" font-family="Helvetica,sans-Serif" font-size="10.00">/Sync/_base/Accept/DefaultAccept</text>
<text text-anchor="middle" x="492.42" y="-304" font-family="Helvetica,sans-Serif" font-size="10.00">Policy.hpp</text>
</a>
</g>
</g>
<!-- Node1&#45;&gt;Node10 -->
<g id="edge12_Node000001_Node000010" class="edge">
<title>Node1&#45;&gt;Node10</title>
<g id="a_edge12_Node000001_Node000010"><a xlink:title=" ">
<path fill="none" stroke="#63b8ff" d="M543.32,-366.96C533.68,-357.78 522.44,-347.08 512.98,-338.07"/>
<polygon fill="#63b8ff" stroke="#63b8ff" points="540.99,-369.58 550.65,-373.94 545.82,-364.51 540.99,-369.58"/>
</a>
</g>
</g>
<!-- Node15 -->
<g id="Node000015" class="node">
<title>Node15</title>
<g id="a_Node000015"><a xlink:href="_default_connect_policy_8hpp.html" target="_top" xlink:title=" ">
<polygon fill="white" stroke="#666666" points="998.42,-338 854.42,-338 854.42,-297 998.42,-297 998.42,-338"/>
<text text-anchor="start" x="862.42" y="-326" font-family="Helvetica,sans-Serif" font-size="10.00">include/Hermes/Socket</text>
<text text-anchor="start" x="862.42" y="-315" font-family="Helvetica,sans-Serif" font-size="10.00">/Sync/_base/Connection</text>
<text text-anchor="middle" x="926.42" y="-304" font-family="Helvetica,sans-Serif" font-size="10.00">/DefaultConnectPolicy.hpp</text>
</a>
</g>
</g>
<!-- Node1&#45;&gt;Node15 -->
<g id="edge20_Node000001_Node000015" class="edge">
<title>Node1&#45;&gt;Node15</title>
<g id="a_edge20_Node000001_Node000015"><a xlink:title=" ">
<path fill="none" stroke="#63b8ff" d="M648.65,-371.98C710.87,-360 795.06,-343.79 854.4,-332.37"/>
<polygon fill="#63b8ff" stroke="#63b8ff" points="647.63,-368.61 638.47,-373.94 648.96,-375.48 647.63,-368.61"/>
</a>
</g>
</g>
<!-- Node19 -->
<g id="Node000019" class="node">
<title>Node19</title>
<g id="a_Node000019"><a xlink:href="_default_transfer_policy_8hpp.html" target="_top" xlink:title=" ">
<polygon fill="white" stroke="#666666" points="796.92,-261 653.92,-261 653.92,-220 796.92,-220 796.92,-261"/>
<text text-anchor="start" x="661.92" y="-249" font-family="Helvetica,sans-Serif" font-size="10.00">include/Hermes/Socket</text>
<text text-anchor="start" x="661.92" y="-238" font-family="Helvetica,sans-Serif" font-size="10.00">/Sync/_base/Transfer</text>
<text text-anchor="middle" x="725.42" y="-227" font-family="Helvetica,sans-Serif" font-size="10.00">/DefaultTransferPolicy.hpp</text>
</a>
</g>
</g>
<!-- Node1&#45;&gt;Node19 -->
<g id="edge27_Node000001_Node000019" class="edge">
<title>Node1&#45;&gt;Node19</title>
<g id="a_edge27_Node000001_Node000019"><a xlink:title=" ">
<path fill="none" stroke="#63b8ff" d="M597.98,-368.5C611.37,-359.86 626.69,-349.14 639.42,-338 666.79,-314.07 693.96,-281.78 710.22,-261.3"/>
<polygon fill="#63b8ff" stroke="#63b8ff" points="596.08,-365.56 589.5,-373.87 599.82,-371.48 596.08,-365.56"/>
</a>
</g>
</g>
<!-- Node3 -->
<g id="Node000003" class="node">
<title>Node3</title>
<g id="a_Node000003"><a xlink:href="_async_server_socket_8hpp.html" target="_top" xlink:title=" ">
<polygon fill="white" stroke="#666666" points="198.42,-178.5 32.42,-178.5 32.42,-148.5 198.42,-148.5 198.42,-178.5"/>
<text text-anchor="start" x="40.42" y="-166.5" font-family="Helvetica,sans-Serif" font-size="10.00">include/Hermes/Socket</text>
<text text-anchor="middle" x="115.42" y="-155.5" font-family="Helvetica,sans-Serif" font-size="10.00">/Async/AsyncServerSocket.hpp</text>
</a>
</g>
</g>
<!-- Node2&#45;&gt;Node3 -->
<g id="edge2_Node000002_Node000003" class="edge">
<title>Node2&#45;&gt;Node3</title>
<g id="a_edge2_Node000002_Node000003"><a xlink:title=" ">
<path fill="none" stroke="#63b8ff" d="M242.67,-216.09C212.34,-203.79 176.17,-189.13 150.16,-178.58"/>
<polygon fill="#63b8ff" stroke="#63b8ff" points="241.71,-219.48 252.3,-219.99 244.34,-212.99 241.71,-219.48"/>
</a>
</g>
</g>
<!-- Node5 -->
<g id="Node000005" class="node">
<title>Node5</title>
<g id="a_Node000005"><a xlink:href="_tls_async_accept_policy_8hpp.html" target="_top" xlink:title=" ">
<polygon fill="white" stroke="#666666" points="379.92,-184 216.92,-184 216.92,-143 379.92,-143 379.92,-184"/>
<text text-anchor="start" x="224.92" y="-172" font-family="Helvetica,sans-Serif" font-size="10.00">include/Hermes/Socket</text>
<text text-anchor="start" x="224.92" y="-161" font-family="Helvetica,sans-Serif" font-size="10.00">/Async/_base/Accept/TlsAsync</text>
<text text-anchor="middle" x="298.42" y="-150" font-family="Helvetica,sans-Serif" font-size="10.00">AcceptPolicy.hpp</text>
</a>
</g>
</g>
<!-- Node2&#45;&gt;Node5 -->
<g id="edge4_Node000002_Node000005" class="edge">
<title>Node2&#45;&gt;Node5</title>
<g id="a_edge4_Node000002_Node000005"><a xlink:title=" ">
<path fill="none" stroke="#63b8ff" d="M299.63,-209.69C299.4,-201.08 299.15,-191.9 298.94,-184.07"/>
<polygon fill="#63b8ff" stroke="#63b8ff" points="296.13,-209.89 299.89,-219.79 303.13,-209.7 296.13,-209.89"/>
</a>
</g>
</g>
<!-- Node4 -->
<g id="Node000004" class="node">
<title>Node4</title>
<g id="a_Node000004"><a xlink:href="_async_listener_socket_8hpp.html" target="_top" xlink:title=" ">
<polygon fill="white" stroke="#666666" points="205.92,-101.5 32.92,-101.5 32.92,-71.5 205.92,-71.5 205.92,-101.5"/>
<text text-anchor="start" x="40.92" y="-89.5" font-family="Helvetica,sans-Serif" font-size="10.00">include/Hermes/Socket</text>
<text text-anchor="middle" x="119.42" y="-78.5" font-family="Helvetica,sans-Serif" font-size="10.00">/Async/AsyncListenerSocket.hpp</text>
</a>
</g>
</g>
<!-- Node3&#45;&gt;Node4 -->
<g id="edge3_Node000003_Node000004" class="edge">
<title>Node3&#45;&gt;Node4</title>
<g id="a_edge3_Node000003_Node000004"><a xlink:title=" ">
<path fill="none" stroke="#63b8ff" d="M116.72,-138.04C117.37,-125.95 118.12,-111.79 118.67,-101.54"/>
<polygon fill="#63b8ff" stroke="#63b8ff" points="113.21,-138.22 116.17,-148.39 120.2,-138.59 113.21,-138.22"/>
</a>
</g>
</g>
<!-- Node7 -->
<g id="Node000007" class="node">
<title>Node7</title>
<g id="a_Node000007"><a xlink:href="_async_client_socket_8hpp.html" target="_top" xlink:title=" ">
<polygon fill="white" stroke="#666666" points="856.92,-30 693.92,-30 693.92,0 856.92,0 856.92,-30"/>
<text text-anchor="start" x="701.92" y="-18" font-family="Helvetica,sans-Serif" font-size="10.00">include/Hermes/Socket</text>
<text text-anchor="middle" x="775.42" y="-7" font-family="Helvetica,sans-Serif" font-size="10.00">/Async/AsyncClientSocket.hpp</text>
</a>
</g>
</g>
<!-- Node6&#45;&gt;Node7 -->
<g id="edge6_Node000006_Node000007" class="edge">
<title>Node6&#45;&gt;Node7</title>
<g id="a_edge6_Node000006_Node000007"><a xlink:title=" ">
<path fill="none" stroke="#63b8ff" d="M802.24,-133.14C799.52,-124.75 796.7,-115.56 794.42,-107 787.29,-80.17 781.17,-48.31 777.91,-30.3"/>
<polygon fill="#63b8ff" stroke="#63b8ff" points="799.01,-134.49 805.48,-142.88 805.65,-132.28 799.01,-134.49"/>
</a>
</g>
</g>
<!-- Node8 -->
<g id="Node000008" class="node">
<title>Node8</title>
<g id="a_Node000008"><a xlink:href="_tls_async_connect_policy_8hpp.html" target="_top" xlink:title=" ">
<polygon fill="white" stroke="#666666" points="955.42,-107 803.42,-107 803.42,-66 955.42,-66 955.42,-107"/>
<text text-anchor="start" x="811.42" y="-95" font-family="Helvetica,sans-Serif" font-size="10.00">include/Hermes/Socket</text>
<text text-anchor="start" x="811.42" y="-84" font-family="Helvetica,sans-Serif" font-size="10.00">/Async/_base/Connection</text>
<text text-anchor="middle" x="879.42" y="-73" font-family="Helvetica,sans-Serif" font-size="10.00">/TlsAsyncConnectPolicy.hpp</text>
</a>
</g>
</g>
<!-- Node6&#45;&gt;Node8 -->
<g id="edge7_Node000006_Node000008" class="edge">
<title>Node6&#45;&gt;Node8</title>
<g id="a_edge7_Node000006_Node000008"><a xlink:title=" ">
<path fill="none" stroke="#63b8ff" d="M836.78,-135.23C845.11,-125.91 854.26,-115.67 861.93,-107.07"/>
<polygon fill="#63b8ff" stroke="#63b8ff" points="834.08,-133.01 830.02,-142.79 839.3,-137.67 834.08,-133.01"/>
</a>
</g>
</g>
<!-- Node8&#45;&gt;Node7 -->
<g id="edge8_Node000008_Node000007" class="edge">
<title>Node8&#45;&gt;Node7</title>
<g id="a_edge8_Node000008_Node000007"><a xlink:title=" ">
<path fill="none" stroke="#63b8ff" d="M841.49,-60.15C826.33,-50.02 809.44,-38.74 796.54,-30.11"/>
<polygon fill="#63b8ff" stroke="#63b8ff" points="839.91,-63.31 850.17,-65.96 843.8,-57.49 839.91,-63.31"/>
</a>
</g>
</g>
<!-- Node9&#45;&gt;Node3 -->
<g id="edge11_Node000009_Node000003" class="edge">
<title>Node9&#45;&gt;Node3</title>
<g id="a_edge11_Node000009_Node000003"><a xlink:title=" ">
<path fill="none" stroke="#63b8ff" d="M115.42,-209.61C115.42,-199.01 115.42,-187.57 115.42,-178.86"/>
<polygon fill="#63b8ff" stroke="#63b8ff" points="111.92,-209.79 115.42,-219.79 118.92,-209.79 111.92,-209.79"/>
</a>
</g>
</g>
<!-- Node9&#45;&gt;Node7 -->
<g id="edge10_Node000009_Node000007" class="edge">
<title>Node9&#45;&gt;Node7</title>
<g id="a_edge10_Node000009_Node000007"><a xlink:title=" ">
<path fill="none" stroke="#63b8ff" d="M54.21,-214.69C41.91,-206.77 30.57,-196.67 23.42,-184 -2.36,-138.33 -12.41,-104.29 23.42,-66 68.46,-17.87 508.49,-14.53 693.81,-15.29"/>
<polygon fill="#63b8ff" stroke="#63b8ff" points="52.46,-217.73 62.85,-219.83 56.05,-211.71 52.46,-217.73"/>
</a>
</g>
</g>
<!-- Node10&#45;&gt;Node2 -->
<g id="edge13_Node000010_Node000002" class="edge">
<title>Node10&#45;&gt;Node2</title>
<g id="a_edge13_Node000010_Node000002"><a xlink:title=" ">
<path fill="none" stroke="#63b8ff" d="M432.95,-293.27C406.49,-282.94 375.69,-270.9 350.45,-261.04"/>
<polygon fill="#63b8ff" stroke="#63b8ff" points="431.89,-296.61 442.48,-296.99 434.43,-290.09 431.89,-296.61"/>
</a>
</g>
</g>
<!-- Node11 -->
<g id="Node000011" class="node">
<title>Node11</title>
<g id="a_Node000011"><a xlink:href="_server_socket_8hpp.html" target="_top" xlink:title=" ">
<polygon fill="white" stroke="#666666" points="707.92,-178.5 576.92,-178.5 576.92,-148.5 707.92,-148.5 707.92,-178.5"/>
<text text-anchor="start" x="584.92" y="-166.5" font-family="Helvetica,sans-Serif" font-size="10.00">include/Hermes/Socket</text>
<text text-anchor="middle" x="642.42" y="-155.5" font-family="Helvetica,sans-Serif" font-size="10.00">/Sync/ServerSocket.hpp</text>
</a>
</g>
</g>
<!-- Node10&#45;&gt;Node11 -->
<g id="edge14_Node000010_Node000011" class="edge">
<title>Node10&#45;&gt;Node11</title>
<g id="a_edge14_Node000010_Node000011"><a xlink:title=" ">
<path fill="none" stroke="#63b8ff" d="M531.59,-291.14C543.97,-282.3 557.31,-271.85 568.42,-261 595.3,-234.74 620.58,-198.34 633.48,-178.6"/>
<polygon fill="#63b8ff" stroke="#63b8ff" points="529.41,-288.4 523.21,-297 533.42,-294.14 529.41,-288.4"/>
</a>
</g>
</g>
<!-- Node13 -->
<g id="Node000013" class="node">
<title>Node13</title>
<g id="a_Node000013"><a xlink:href="_tls_accept_policy_8hpp.html" target="_top" xlink:title=" ">
<polygon fill="white" stroke="#666666" points="558.92,-261 397.92,-261 397.92,-220 558.92,-220 558.92,-261"/>
<text text-anchor="start" x="405.92" y="-249" font-family="Helvetica,sans-Serif" font-size="10.00">include/Hermes/Socket</text>
<text text-anchor="start" x="405.92" y="-238" font-family="Helvetica,sans-Serif" font-size="10.00">/Sync/_base/Accept/TlsAccept</text>
<text text-anchor="middle" x="478.42" y="-227" font-family="Helvetica,sans-Serif" font-size="10.00">Policy.hpp</text>
</a>
</g>
</g>
<!-- Node10&#45;&gt;Node13 -->
<g id="edge16_Node000010_Node000013" class="edge">
<title>Node10&#45;&gt;Node13</title>
<g id="a_edge16_Node000010_Node000013"><a xlink:title=" ">
<path fill="none" stroke="#63b8ff" d="M486.86,-286.69C485.25,-278.08 483.53,-268.9 482.07,-261.07"/>
<polygon fill="#63b8ff" stroke="#63b8ff" points="483.47,-287.61 488.74,-296.79 490.35,-286.32 483.47,-287.61"/>
</a>
</g>
</g>
<!-- Node12 -->
<g id="Node000012" class="node">
<title>Node12</title>
<g id="a_Node000012"><a xlink:href="_listener_socket_8hpp.html" target="_top" xlink:title=" ">
<polygon fill="white" stroke="#666666" points="711.42,-101.5 573.42,-101.5 573.42,-71.5 711.42,-71.5 711.42,-101.5"/>
<text text-anchor="start" x="581.42" y="-89.5" font-family="Helvetica,sans-Serif" font-size="10.00">include/Hermes/Socket</text>
<text text-anchor="middle" x="642.42" y="-78.5" font-family="Helvetica,sans-Serif" font-size="10.00">/Sync/ListenerSocket.hpp</text>
</a>
</g>
</g>
<!-- Node11&#45;&gt;Node12 -->
<g id="edge15_Node000011_Node000012" class="edge">
<title>Node11&#45;&gt;Node12</title>
<g id="a_edge15_Node000011_Node000012"><a xlink:title=" ">
<path fill="none" stroke="#63b8ff" d="M642.42,-138.04C642.42,-125.95 642.42,-111.79 642.42,-101.54"/>
<polygon fill="#63b8ff" stroke="#63b8ff" points="638.92,-138.39 642.42,-148.39 645.92,-138.39 638.92,-138.39"/>
</a>
</g>
</g>
<!-- Node13&#45;&gt;Node5 -->
<g id="edge17_Node000013_Node000005" class="edge">
<title>Node13&#45;&gt;Node5</title>
<g id="a_edge17_Node000013_Node000005"><a xlink:title=" ">
<path fill="none" stroke="#63b8ff" d="M422.34,-216.13C397.61,-205.83 368.89,-193.86 345.32,-184.04"/>
<polygon fill="#63b8ff" stroke="#63b8ff" points="421.02,-219.37 431.6,-219.99 423.71,-212.91 421.02,-219.37"/>
</a>
</g>
</g>
<!-- Node13&#45;&gt;Node11 -->
<g id="edge18_Node000013_Node000011" class="edge">
<title>Node13&#45;&gt;Node11</title>
<g id="a_edge18_Node000013_Node000011"><a xlink:title=" ">
<path fill="none" stroke="#63b8ff" d="M530.31,-215.77C557.06,-203.54 588.77,-189.04 611.63,-178.58"/>
<polygon fill="#63b8ff" stroke="#63b8ff" points="528.72,-212.65 521.08,-219.99 531.63,-219.01 528.72,-212.65"/>
</a>
</g>
</g>
<!-- Node14 -->
<g id="Node000014" class="node">
<title>Node14</title>
<g id="a_Node000014"><a xlink:href="_tls_accept_state_machine_8hpp.html" target="_top" xlink:title=" ">
<polygon fill="white" stroke="#666666" points="558.42,-184 398.42,-184 398.42,-143 558.42,-143 558.42,-184"/>
<text text-anchor="start" x="406.42" y="-172" font-family="Helvetica,sans-Serif" font-size="10.00">include/Hermes/Socket</text>
<text text-anchor="start" x="406.42" y="-161" font-family="Helvetica,sans-Serif" font-size="10.00">/_base/Accept/TlsAcceptState</text>
<text text-anchor="middle" x="478.42" y="-150" font-family="Helvetica,sans-Serif" font-size="10.00">Machine.hpp</text>
</a>
</g>
</g>
<!-- Node13&#45;&gt;Node14 -->
<g id="edge19_Node000013_Node000014" class="edge">
<title>Node13&#45;&gt;Node14</title>
<g id="a_edge19_Node000013_Node000014"><a xlink:title=" ">
<path fill="none" stroke="#63b8ff" d="M478.42,-209.69C478.42,-201.08 478.42,-191.9 478.42,-184.07"/>
<polygon fill="#63b8ff" stroke="#63b8ff" points="474.92,-209.79 478.42,-219.79 481.92,-209.79 474.92,-209.79"/>
</a>
</g>
</g>
<!-- Node16 -->
<g id="Node000016" class="node">
<title>Node16</title>
<g id="a_Node000016"><a xlink:href="_client_socket_8hpp.html" target="_top" xlink:title=" ">
<polygon fill="white" stroke="#666666" points="1083.42,-178.5 955.42,-178.5 955.42,-148.5 1083.42,-148.5 1083.42,-178.5"/>
<text text-anchor="start" x="963.42" y="-166.5" font-family="Helvetica,sans-Serif" font-size="10.00">include/Hermes/Socket</text>
<text text-anchor="middle" x="1019.42" y="-155.5" font-family="Helvetica,sans-Serif" font-size="10.00">/Sync/ClientSocket.hpp</text>
</a>
</g>
</g>
<!-- Node15&#45;&gt;Node16 -->
<g id="edge21_Node000015_Node000016" class="edge">
<title>Node15&#45;&gt;Node16</title>
<g id="a_edge21_Node000015_Node000016"><a xlink:title=" ">
<path fill="none" stroke="#63b8ff" d="M972.23,-290.99C983.33,-282.77 994.09,-272.71 1001.42,-261 1017.51,-235.28 1019.93,-198.67 1019.91,-178.75"/>
<polygon fill="#63b8ff" stroke="#63b8ff" points="969.93,-288.33 963.72,-296.91 973.93,-294.07 969.93,-288.33"/>
</a>
</g>
</g>
<!-- Node17 -->
<g id="Node000017" class="node">
<title>Node17</title>
<g id="a_Node000017"><a xlink:href="_tls_connect_policy_8hpp.html" target="_top" xlink:title=" ">
<polygon fill="white" stroke="#666666" points="992.42,-261 860.42,-261 860.42,-220 992.42,-220 992.42,-261"/>
<text text-anchor="start" x="868.42" y="-249" font-family="Helvetica,sans-Serif" font-size="10.00">include/Hermes/Socket</text>
<text text-anchor="start" x="868.42" y="-238" font-family="Helvetica,sans-Serif" font-size="10.00">/Sync/_base/Connection</text>
<text text-anchor="middle" x="926.42" y="-227" font-family="Helvetica,sans-Serif" font-size="10.00">/TlsConnectPolicy.hpp</text>
</a>
</g>
</g>
<!-- Node15&#45;&gt;Node17 -->
<g id="edge22_Node000015_Node000017" class="edge">
<title>Node15&#45;&gt;Node17</title>
<g id="a_edge22_Node000015_Node000017"><a xlink:title=" ">
<path fill="none" stroke="#63b8ff" d="M926.42,-286.69C926.42,-278.08 926.42,-268.9 926.42,-261.07"/>
<polygon fill="#63b8ff" stroke="#63b8ff" points="922.92,-286.79 926.42,-296.79 929.92,-286.79 922.92,-286.79"/>
</a>
</g>
</g>
<!-- Node17&#45;&gt;Node6 -->
<g id="edge23_Node000017_Node000006" class="edge">
<title>Node17&#45;&gt;Node6</title>
<g id="a_edge23_Node000017_Node000006"><a xlink:title=" ">
<path fill="none" stroke="#63b8ff" d="M888.22,-214.37C873.26,-204.53 856.36,-193.41 842.32,-184.17"/>
<polygon fill="#63b8ff" stroke="#63b8ff" points="886.49,-217.42 896.77,-219.99 890.34,-211.57 886.49,-217.42"/>
</a>
</g>
</g>
<!-- Node17&#45;&gt;Node8 -->
<g id="edge24_Node000017_Node000008" class="edge">
<title>Node17&#45;&gt;Node8</title>
<g id="a_edge24_Node000017_Node000008"><a xlink:title=" ">
<path fill="none" stroke="#63b8ff" d="M923.2,-209.78C920.53,-190.39 915.94,-164.74 908.42,-143 904.12,-130.57 897.41,-117.49 891.52,-107.15"/>
<polygon fill="#63b8ff" stroke="#63b8ff" points="919.74,-210.36 924.48,-219.84 926.69,-209.48 919.74,-210.36"/>
</a>
</g>
</g>
<!-- Node17&#45;&gt;Node16 -->
<g id="edge25_Node000017_Node000016" class="edge">
<title>Node17&#45;&gt;Node16</title>
<g id="a_edge25_Node000017_Node000016"><a xlink:title=" ">
<path fill="none" stroke="#63b8ff" d="M958.67,-213.5C973.18,-201.79 989.74,-188.44 1001.9,-178.63"/>
<polygon fill="#63b8ff" stroke="#63b8ff" points="956.44,-210.79 950.86,-219.79 960.84,-216.24 956.44,-210.79"/>
</a>
</g>
</g>
<!-- Node18 -->
<g id="Node000018" class="node">
<title>Node18</title>
<g id="a_Node000018"><a xlink:href="_tls_connect_state_machine_8hpp.html" target="_top" xlink:title=" ">
<polygon fill="white" stroke="#666666" points="1264.92,-184 1101.92,-184 1101.92,-143 1264.92,-143 1264.92,-184"/>
<text text-anchor="start" x="1109.92" y="-172" font-family="Helvetica,sans-Serif" font-size="10.00">include/Hermes/Socket</text>
<text text-anchor="start" x="1109.92" y="-161" font-family="Helvetica,sans-Serif" font-size="10.00">/_base/Connection/TlsConnect</text>
<text text-anchor="middle" x="1183.42" y="-150" font-family="Helvetica,sans-Serif" font-size="10.00">StateMachine.hpp</text>
</a>
</g>
</g>
<!-- Node17&#45;&gt;Node18 -->
<g id="edge26_Node000017_Node000018" class="edge">
<title>Node17&#45;&gt;Node18</title>
<g id="a_edge26_Node000017_Node000018"><a xlink:title=" ">
<path fill="none" stroke="#63b8ff" d="M1002.62,-217.26C1038.81,-206.7 1081.66,-194.2 1116.57,-184.01"/>
<polygon fill="#63b8ff" stroke="#63b8ff" points="1001.22,-214.02 992.6,-220.19 1003.18,-220.74 1001.22,-214.02"/>
</a>
</g>
</g>
<!-- Node19&#45;&gt;Node11 -->
<g id="edge29_Node000019_Node000011" class="edge">
<title>Node19&#45;&gt;Node11</title>
<g id="a_edge29_Node000019_Node000011"><a xlink:title=" ">
<path fill="none" stroke="#63b8ff" d="M695.92,-212.84C683.14,-201.3 668.71,-188.25 658.05,-178.63"/>
<polygon fill="#63b8ff" stroke="#63b8ff" points="693.85,-215.69 703.61,-219.79 698.54,-210.49 693.85,-215.69"/>
</a>
</g>
</g>
<!-- Node19&#45;&gt;Node16 -->
<g id="edge28_Node000019_Node000016" class="edge">
<title>Node19&#45;&gt;Node16</title>
<g id="a_edge28_Node000019_Node000016"><a xlink:title=" ">
<path fill="none" stroke="#63b8ff" d="M806.81,-218.74C856.94,-205.95 919.88,-189.89 964.22,-178.58"/>
<polygon fill="#63b8ff" stroke="#63b8ff" points="805.79,-215.39 796.97,-221.25 807.52,-222.17 805.79,-215.39"/>
</a>
</g>
</g>
</g>
</svg>
