<?xml version="1.0" encoding="UTF-8" standalone="no"?>
<!DOCTYPE svg PUBLIC "-//W3C//DTD SVG 1.1//EN"
 "http://www.w3.org/Graphics/SVG/1.1/DTD/svg11.dtd">
<!-- Generated by graphviz version 2.43.0 (0)
 -->
<!-- Title: include/Hermes/Socket/Data/DefaultSocketData.hpp Pages: 1 -->
<svg width="3414pt" height="368pt"
 viewBox="0.00 0.00 3413.50 368.00" xmlns="http://www.w3.org/2000/svg" xmlns:xlink="http://www.w3.org/1999/xlink">
<g id="graph0" class="graph" transform="scale(1 1) rotate(0) translate(4 364)">
<title>include/Hermes/Socket/Data/DefaultSocketData.hpp</title>
<!-- Node1 -->
<g id="Node000001" class="node">
<title>Node1</title>
<g id="a_Node000001"><a xlink:title=" ">
<polygon fill="#999999" stroke="#666666" points="1027.5,-360 869.5,-360 869.5,-330 1027.5,-330 1027.5,-360"/>
<text text-anchor="start" x="877.5" y="-348" font-family="Helvetica,sans-Serif" font-size="10.00">include/Hermes/Socket</text>
<text text-anchor="middle" x="948.5" y="-337" font-family="Helvetica,sans-Serif" font-size="10.00">/Data/DefaultSocketData.hpp</text>
</a>
</g>
</g>
<!-- Node2 -->
<g id="Node000002" class="node">
<title>Node2</title>
<g id="a_Node000002"><a xlink:href="_ip_endpoint_8hpp.html" target="_top" xlink:title=" ">
<polygon fill="white" stroke="#666666" points="569,-294 414,-294 414,-264 569,-264 569,-294"/>
<text text-anchor="start" x="422" y="-282" font-family="Helvetica,sans-Serif" font-size="10.00">Hermes/Endpoint/IpEndpoint</text>
<text text-anchor="middle" x="491.5" y="-271" font-family="Helvetica,sans-Serif" font-size="10.00">/IpEndpoint.hpp</text>
</a>
</g>
</g>
<!-- Node1&#45;&gt;Node2 -->
<g id="edge1_Node000001_Node000002" class="edge">
<title>Node1&#45;&gt;Node2</title>
<g id="a_edge1_Node000001_Node000002"><a xlink:title=" ">
<path fill="none" stroke="#63b8ff" d="M869.42,-332.93C788.53,-321.6 663.16,-304.04 579.25,-292.29"/>
<polygon fill="#63b8ff" stroke="#63b8ff" points="579.62,-288.81 569.23,-290.89 578.65,-295.74 579.62,-288.81"/>
</a>
</g>
</g>
<!-- Node42 -->
<g id="Node000042" class="node">
<title>Node42</title>
<g id="a_Node000042"><a xlink:title=" ">
<polygon fill="#e0e0e0" stroke="#999999" points="1031.5,-288.5 981.5,-288.5 981.5,-269.5 1031.5,-269.5 1031.5,-288.5"/>
<text text-anchor="middle" x="1006.5" y="-276.5" font-family="Helvetica,sans-Serif" font-size="10.00">chrono</text>
</a>
</g>
</g>
<!-- Node1&#45;&gt;Node42 -->
<g id="edge51_Node000001_Node000042" class="edge">
<title>Node1&#45;&gt;Node42</title>
<g id="a_edge51_Node000001_Node000042"><a xlink:title=" ">
<path fill="none" stroke="#63b8ff" d="M961.37,-329.8C970.33,-319.92 982.29,-306.72 991.64,-296.39"/>
<polygon fill="#63b8ff" stroke="#63b8ff" points="994.36,-298.6 998.48,-288.84 989.18,-293.9 994.36,-298.6"/>
</a>
</g>
</g>
<!-- Node43 -->
<g id="Node000043" class="node">
<title>Node43</title>
<g id="a_Node000043"><a xlink:href="__base_8hpp.html" target="_top" xlink:title=" ">
<polygon fill="white" stroke="#666666" points="963,-288.5 820,-288.5 820,-269.5 963,-269.5 963,-288.5"/>
<text text-anchor="middle" x="891.5" y="-276.5" font-family="Helvetica,sans-Serif" font-size="10.00">Hermes/Socket/_base.hpp</text>
</a>
</g>
</g>
<!-- Node1&#45;&gt;Node43 -->
<g id="edge52_Node000001_Node000043" class="edge">
<title>Node1&#45;&gt;Node43</title>
<g id="a_edge52_Node000001_Node000043"><a xlink:title=" ">
<path fill="none" stroke="#63b8ff" d="M935.85,-329.8C927.05,-319.92 915.3,-306.72 906.1,-296.39"/>
<polygon fill="#63b8ff" stroke="#63b8ff" points="908.64,-293.98 899.38,-288.84 903.41,-298.64 908.64,-293.98"/>
</a>
</g>
</g>
<!-- Node46 -->
<g id="Node000046" class="node">
<title>Node46</title>
<g id="a_Node000046"><a xlink:title=" ">
<polygon fill="#e0e0e0" stroke="#999999" points="1179.5,-294 1049.5,-294 1049.5,-264 1179.5,-264 1179.5,-294"/>
<text text-anchor="start" x="1057.5" y="-282" font-family="Helvetica,sans-Serif" font-size="10.00">Hermes/Socket/Data</text>
<text text-anchor="middle" x="1114.5" y="-271" font-family="Helvetica,sans-Serif" font-size="10.00">/DefaultSocketData.tpp</text>
</a>
</g>
</g>
<!-- Node1&#45;&gt;Node46 -->
<g id="edge59_Node000001_Node000046" class="edge">
<title>Node1&#45;&gt;Node46</title>
<g id="a_edge59_Node000001_Node000046"><a xlink:title=" ">
<path fill="none" stroke="#63b8ff" d="M984.93,-329.95C1009.58,-320.45 1042.33,-307.82 1068.74,-297.64"/>
<polygon fill="#63b8ff" stroke="#63b8ff" points="1070.08,-300.88 1078.16,-294.01 1067.57,-294.34 1070.08,-300.88"/>
</a>
</g>
</g>
<!-- Node3 -->
<g id="Node000003" class="node">
<title>Node3</title>
<g id="a_Node000003"><a xlink:href="_endpoint_concept_8hpp.html" target="_top" xlink:title=" ">
<polygon fill="white" stroke="#666666" points="863.5,-228 731.5,-228 731.5,-198 863.5,-198 863.5,-228"/>
<text text-anchor="start" x="739.5" y="-216" font-family="Helvetica,sans-Serif" font-size="10.00">Hermes/Endpoint/_base</text>
<text text-anchor="middle" x="797.5" y="-205" font-family="Helvetica,sans-Serif" font-size="10.00">/EndpointConcept.hpp</text>
</a>
</g>
</g>
<!-- Node2&#45;&gt;Node3 -->
<g id="edge2_Node000002_Node000003" class="edge">
<title>Node2&#45;&gt;Node3</title>
<g id="a_edge2_Node000002_Node000003"><a xlink:title=" ">
<path fill="none" stroke="#63b8ff" d="M558.65,-263.95C606.63,-253.92 671.26,-240.4 721.19,-229.96"/>
<polygon fill="#63b8ff" stroke="#63b8ff" points="722.22,-233.32 731.29,-227.85 720.79,-226.47 722.22,-233.32"/>
</a>
</g>
</g>
<!-- Node31 -->
<g id="Node000031" class="node">
<title>Node31</title>
<g id="a_Node000031"><a xlink:href="_ip_address_8hpp.html" target="_top" xlink:title=" ">
<polygon fill="white" stroke="#666666" points="463,-228 308,-228 308,-198 463,-198 463,-228"/>
<text text-anchor="start" x="316" y="-216" font-family="Helvetica,sans-Serif" font-size="10.00">Hermes/Endpoint/IpEndpoint</text>
<text text-anchor="middle" x="385.5" y="-205" font-family="Helvetica,sans-Serif" font-size="10.00">/IpAddress.hpp</text>
</a>
</g>
</g>
<!-- Node2&#45;&gt;Node31 -->
<g id="edge36_Node000002_Node000031" class="edge">
<title>Node2&#45;&gt;Node31</title>
<g id="a_edge36_Node000002_Node000031"><a xlink:title=" ">
<path fill="none" stroke="#63b8ff" d="M468.24,-263.95C453.33,-254.95 433.77,-243.14 417.41,-233.27"/>
<polygon fill="#63b8ff" stroke="#63b8ff" points="419.08,-230.18 408.71,-228.01 415.46,-236.18 419.08,-230.18"/>
</a>
</g>
</g>
<!-- Node32 -->
<g id="Node000032" class="node">
<title>Node32</title>
<g id="a_Node000032"><a xlink:href="_hash_8hpp.html" target="_top" xlink:title=" ">
<polygon fill="white" stroke="#666666" points="129,-156.5 0,-156.5 0,-137.5 129,-137.5 129,-156.5"/>
<text text-anchor="middle" x="64.5" y="-144.5" font-family="Helvetica,sans-Serif" font-size="10.00">Hermes/Utils/Hash.hpp</text>
</a>
</g>
</g>
<!-- Node2&#45;&gt;Node32 -->
<g id="edge47_Node000002_Node000032" class="edge">
<title>Node2&#45;&gt;Node32</title>
<g id="a_edge47_Node000002_Node000032"><a xlink:title=" ">
<path fill="none" stroke="#63b8ff" d="M413.95,-267.4C363.5,-259.35 296.69,-246.47 239.5,-228 183.66,-209.97 122.05,-179.02 88.89,-161.36"/>
<polygon fill="#63b8ff" stroke="#63b8ff" points="90.4,-158.2 79.93,-156.55 87.08,-164.37 90.4,-158.2"/>
</a>
</g>
</g>
<!-- Node36 -->
<g id="Node000036" class="node">
<title>Node36</title>
<g id="a_Node000036"><a xlink:title=" ">
<polygon fill="#e0e0e0" stroke="#999999" points="191.5,-156.5 147.5,-156.5 147.5,-137.5 191.5,-137.5 191.5,-156.5"/>
<text text-anchor="middle" x="169.5" y="-144.5" font-family="Helvetica,sans-Serif" font-size="10.00">string</text>
</a>
</g>
</g>
<!-- Node2&#45;&gt;Node36 -->
<g id="edge49_Node000002_Node000036" class="edge">
<title>Node2&#45;&gt;Node36</title>
<g id="a_edge49_Node000002_Node000036"><a xlink:title=" ">
<path fill="none" stroke="#63b8ff" d="M415.99,-263.98C379.62,-255.84 335.89,-244 298.5,-228 256.85,-210.18 212.98,-180.22 188.64,-162.46"/>
<polygon fill="#63b8ff" stroke="#63b8ff" points="190.72,-159.65 180.6,-156.52 186.56,-165.28 190.72,-159.65"/>
</a>
</g>
</g>
<!-- Node38 -->
<g id="Node000038" class="node">
<title>Node38</title>
<g id="a_Node000038"><a xlink:title=" ">
<polygon fill="#e0e0e0" stroke="#999999" points="675.5,-156.5 619.5,-156.5 619.5,-137.5 675.5,-137.5 675.5,-156.5"/>
<text text-anchor="middle" x="647.5" y="-144.5" font-family="Helvetica,sans-Serif" font-size="10.00">optional</text>
</a>
</g>
</g>
<!-- Node2&#45;&gt;Node38 -->
<g id="edge48_Node000002_Node000038" class="edge">
<title>Node2&#45;&gt;Node38</title>
<g id="a_edge48_Node000002_Node000038"><a xlink:title=" ">
<path fill="none" stroke="#63b8ff" d="M491.02,-263.74C491.21,-246.15 494.17,-216.34 510.5,-198 541.64,-163.04 565.53,-178.09 609.5,-162 611.13,-161.4 612.81,-160.79 614.5,-160.17"/>
<polygon fill="#63b8ff" stroke="#63b8ff" points="616.02,-163.34 624.19,-156.6 613.6,-156.77 616.02,-163.34"/>
</a>
</g>
</g>
<!-- Node41 -->
<g id="Node000041" class="node">
<title>Node41</title>
<g id="a_Node000041"><a xlink:title=" ">
<polygon fill="#e0e0e0" stroke="#999999" points="675,-228 520,-228 520,-198 675,-198 675,-228"/>
<text text-anchor="start" x="528" y="-216" font-family="Helvetica,sans-Serif" font-size="10.00">Hermes/Endpoint/IpEndpoint</text>
<text text-anchor="middle" x="597.5" y="-205" font-family="Helvetica,sans-Serif" font-size="10.00">/IpEndpoint.tpp</text>
</a>
</g>
</g>
<!-- Node2&#45;&gt;Node41 -->
<g id="edge50_Node000002_Node000041" class="edge">
<title>Node2&#45;&gt;Node41</title>
<g id="a_edge50_Node000002_Node000041"><a xlink:title=" ">
<path fill="none" stroke="#63b8ff" d="M514.76,-263.95C529.67,-254.95 549.23,-243.14 565.59,-233.27"/>
<polygon fill="#63b8ff" stroke="#63b8ff" points="567.54,-236.18 574.29,-228.01 563.92,-230.18 567.54,-236.18"/>
</a>
</g>
</g>
<!-- Node4 -->
<g id="Node000004" class="node">
<title>Node4</title>
<g id="a_Node000004"><a xlink:href="_connection_error_enum_8hpp.html" target="_top" xlink:title=" ">
<polygon fill="white" stroke="#666666" points="898,-162 731,-162 731,-132 898,-132 898,-162"/>
<text text-anchor="start" x="739" y="-150" font-family="Helvetica,sans-Serif" font-size="10.00">Hermes/_base/ConnectionError</text>
<text text-anchor="middle" x="814.5" y="-139" font-family="Helvetica,sans-Serif" font-size="10.00">Enum.hpp</text>
</a>
</g>
</g>
<!-- Node3&#45;&gt;Node4 -->
<g id="edge3_Node000003_Node000004" class="edge">
<title>Node3&#45;&gt;Node4</title>
<g id="a_edge3_Node000003_Node000004"><a xlink:title=" ">
<path fill="none" stroke="#63b8ff" d="M801.27,-197.8C803.3,-190.17 805.85,-180.57 808.17,-171.84"/>
<polygon fill="#63b8ff" stroke="#63b8ff" points="811.55,-172.73 810.74,-162.16 804.79,-170.93 811.55,-172.73"/>
</a>
</g>
</g>
<!-- Node10 -->
<g id="Node000010" class="node">
<title>Node10</title>
<g id="a_Node000010"><a xlink:href="_os_api_8hpp.html" target="_top" xlink:title=" ">
<polygon fill="white" stroke="#666666" points="2019.5,-162 1901.5,-162 1901.5,-132 2019.5,-132 2019.5,-162"/>
<text text-anchor="start" x="1909.5" y="-150" font-family="Helvetica,sans-Serif" font-size="10.00">Hermes/_base/OsApi</text>
<text text-anchor="middle" x="1960.5" y="-139" font-family="Helvetica,sans-Serif" font-size="10.00">/OsApi.hpp</text>
</a>
</g>
</g>
<!-- Node3&#45;&gt;Node10 -->
<g id="edge9_Node000003_Node000010" class="edge">
<title>Node3&#45;&gt;Node10</title>
<g id="a_edge9_Node000003_Node000010"><a xlink:title=" ">
<path fill="none" stroke="#63b8ff" d="M863.74,-202.94C879.07,-201.08 895.33,-199.3 910.5,-198 1279.4,-166.41 1723.04,-153.49 1891.28,-149.48"/>
<polygon fill="#63b8ff" stroke="#63b8ff" points="1891.57,-152.98 1901.48,-149.24 1891.4,-145.98 1891.57,-152.98"/>
</a>
</g>
</g>
<!-- Node5 -->
<g id="Node000005" class="node">
<title>Node5</title>
<g id="a_Node000005"><a xlink:title=" ">
<polygon fill="#e0e0e0" stroke="#999999" points="977.5,-85 915.5,-85 915.5,-66 977.5,-66 977.5,-85"/>
<text text-anchor="middle" x="946.5" y="-73" font-family="Helvetica,sans-Serif" font-size="10.00">expected</text>
</a>
</g>
</g>
<!-- Node4&#45;&gt;Node5 -->
<g id="edge4_Node000004_Node000005" class="edge">
<title>Node4&#45;&gt;Node5</title>
<g id="a_edge4_Node000004_Node000005"><a xlink:title=" ">
<path fill="none" stroke="#63b8ff" d="M841.21,-131.94C864.55,-119.65 898.18,-101.94 921.12,-89.87"/>
<polygon fill="#63b8ff" stroke="#63b8ff" points="923.01,-92.82 930.23,-85.07 919.75,-86.63 923.01,-92.82"/>
</a>
</g>
</g>
<!-- Node6 -->
<g id="Node000006" class="node">
<title>Node6</title>
<g id="a_Node000006"><a xlink:title=" ">
<polygon fill="#e0e0e0" stroke="#999999" points="377,-85 330,-85 330,-66 377,-66 377,-85"/>
<text text-anchor="middle" x="353.5" y="-73" font-family="Helvetica,sans-Serif" font-size="10.00">vector</text>
</a>
</g>
</g>
<!-- Node4&#45;&gt;Node6 -->
<g id="edge5_Node000004_Node000006" class="edge">
<title>Node4&#45;&gt;Node6</title>
<g id="a_edge5_Node000004_Node000006"><a xlink:title=" ">
<path fill="none" stroke="#63b8ff" d="M730.75,-133.37C628.28,-117.93 459.58,-92.49 387.68,-81.65"/>
<polygon fill="#63b8ff" stroke="#63b8ff" points="387.8,-78.13 377.39,-80.1 386.76,-85.05 387.8,-78.13"/>
</a>
</g>
</g>
<!-- Node7 -->
<g id="Node000007" class="node">
<title>Node7</title>
<g id="a_Node000007"><a xlink:title=" ">
<polygon fill="#e0e0e0" stroke="#999999" points="713.5,-85 673.5,-85 673.5,-66 713.5,-66 713.5,-85"/>
<text text-anchor="middle" x="693.5" y="-73" font-family="Helvetica,sans-Serif" font-size="10.00">span</text>
</a>
</g>
</g>
<!-- Node4&#45;&gt;Node7 -->
<g id="edge6_Node000004_Node000007" class="edge">
<title>Node4&#45;&gt;Node7</title>
<g id="a_edge6_Node000004_Node000007"><a xlink:title=" ">
<path fill="none" stroke="#63b8ff" d="M786.36,-131.94C767.66,-122.34 742.74,-109.05 721.5,-96 718.94,-94.43 716.3,-92.72 713.71,-90.98"/>
<polygon fill="#63b8ff" stroke="#63b8ff" points="715.5,-87.97 705.29,-85.16 711.52,-93.72 715.5,-87.97"/>
</a>
</g>
</g>
<!-- Node8 -->
<g id="Node000008" class="node">
<title>Node8</title>
<g id="a_Node000008"><a xlink:title=" ">
<polygon fill="#e0e0e0" stroke="#999999" points="655,-85 530,-85 530,-66 655,-66 655,-85"/>
<text text-anchor="middle" x="592.5" y="-73" font-family="Helvetica,sans-Serif" font-size="10.00">stdexec/execution.hpp</text>
</a>
</g>
</g>
<!-- Node4&#45;&gt;Node8 -->
<g id="edge7_Node000004_Node000008" class="edge">
<title>Node4&#45;&gt;Node8</title>
<g id="a_edge7_Node000004_Node000008"><a xlink:title=" ">
<path fill="none" stroke="#63b8ff" d="M769.57,-131.94C728.4,-119.05 668.16,-100.19 629.64,-88.13"/>
<polygon fill="#63b8ff" stroke="#63b8ff" points="630.46,-84.72 619.87,-85.07 628.37,-91.4 630.46,-84.72"/>
</a>
</g>
</g>
<!-- Node9 -->
<g id="Node000009" class="node">
<title>Node9</title>
<g id="a_Node000009"><a xlink:title=" ">
<polygon fill="#e0e0e0" stroke="#999999" points="898,-90.5 731,-90.5 731,-60.5 898,-60.5 898,-90.5"/>
<text text-anchor="start" x="739" y="-78.5" font-family="Helvetica,sans-Serif" font-size="10.00">Hermes/_base/ConnectionError</text>
<text text-anchor="middle" x="814.5" y="-67.5" font-family="Helvetica,sans-Serif" font-size="10.00">Enum.tpp</text>
</a>
</g>
</g>
<!-- Node4&#45;&gt;Node9 -->
<g id="edge8_Node000004_Node000009" class="edge">
<title>Node4&#45;&gt;Node9</title>
<g id="a_edge8_Node000004_Node000009"><a xlink:title=" ">
<path fill="none" stroke="#63b8ff" d="M814.5,-131.94C814.5,-122.99 814.5,-111.16 814.5,-100.73"/>
<polygon fill="#63b8ff" stroke="#63b8ff" points="818,-100.54 814.5,-90.54 811,-100.54 818,-100.54"/>
</a>
</g>
</g>
<!-- Node11 -->
<g id="Node000011" class="node">
<title>Node11</title>
<g id="a_Node000011"><a xlink:title=" ">
<polygon fill="#e0e0e0" stroke="#999999" points="2956,-19 2879,-19 2879,0 2956,0 2956,-19"/>
<text text-anchor="middle" x="2917.5" y="-7" font-family="Helvetica,sans-Serif" font-size="10.00">sys/socket.h</text>
</a>
</g>
</g>
<!-- Node10&#45;&gt;Node11 -->
<g id="edge10_Node000010_Node000011" class="edge">
<title>Node10&#45;&gt;Node11</title>
<g id="a_edge10_Node000010_Node000011"><a xlink:title=" ">
<path fill="none" stroke="#63b8ff" d="M2019.65,-144.98C2196.82,-141.57 2715.22,-128.87 2783.5,-96 2805.62,-85.35 2800.72,-69.53 2820.5,-55 2839.28,-41.21 2863.02,-30.23 2882.31,-22.63"/>
<polygon fill="#63b8ff" stroke="#63b8ff" points="2883.56,-25.9 2891.66,-19.07 2881.07,-19.35 2883.56,-25.9"/>
</a>
</g>
</g>
<!-- Node12 -->
<g id="Node000012" class="node">
<title>Node12</title>
<g id="a_Node000012"><a xlink:title=" ">
<polygon fill="#e0e0e0" stroke="#999999" points="1369.5,-19 1297.5,-19 1297.5,0 1369.5,0 1369.5,-19"/>
<text text-anchor="middle" x="1333.5" y="-7" font-family="Helvetica,sans-Serif" font-size="10.00">netinet/in.h</text>
</a>
</g>
</g>
<!-- Node10&#45;&gt;Node12 -->
<g id="edge11_Node000010_Node000012" class="edge">
<title>Node10&#45;&gt;Node12</title>
<g id="a_edge11_Node000010_Node000012"><a xlink:title=" ">
<path fill="none" stroke="#63b8ff" d="M1901.48,-146.01C1746.86,-145.43 1339.06,-139.74 1298.5,-96 1280.07,-76.13 1301.22,-45.23 1317.73,-26.53"/>
<polygon fill="#63b8ff" stroke="#63b8ff" points="1320.38,-28.82 1324.61,-19.1 1315.25,-24.06 1320.38,-28.82"/>
</a>
</g>
</g>
<!-- Node13 -->
<g id="Node000013" class="node">
<title>Node13</title>
<g id="a_Node000013"><a xlink:title=" ">
<polygon fill="#e0e0e0" stroke="#999999" points="3269,-85 3200,-85 3200,-66 3269,-66 3269,-85"/>
<text text-anchor="middle" x="3234.5" y="-73" font-family="Helvetica,sans-Serif" font-size="10.00">arpa/inet.h</text>
</a>
</g>
</g>
<!-- Node10&#45;&gt;Node13 -->
<g id="edge12_Node000010_Node000013" class="edge">
<title>Node10&#45;&gt;Node13</title>
<g id="a_edge12_Node000010_Node000013"><a xlink:title=" ">
<path fill="none" stroke="#63b8ff" d="M2019.5,-144.93C2249.24,-140.59 3076.98,-123.2 3191.5,-96 3197.73,-94.52 3204.17,-92.13 3210.1,-89.51"/>
<polygon fill="#63b8ff" stroke="#63b8ff" points="3211.97,-92.5 3219.49,-85.04 3208.95,-86.18 3211.97,-92.5"/>
</a>
</g>
</g>
<!-- Node14 -->
<g id="Node000014" class="node">
<title>Node14</title>
<g id="a_Node000014"><a xlink:title=" ">
<polygon fill="#e0e0e0" stroke="#999999" points="1214,-19 1161,-19 1161,0 1214,0 1214,-19"/>
<text text-anchor="middle" x="1187.5" y="-7" font-family="Helvetica,sans-Serif" font-size="10.00">netdb.h</text>
</a>
</g>
</g>
<!-- Node10&#45;&gt;Node14 -->
<g id="edge13_Node000010_Node000014" class="edge">
<title>Node10&#45;&gt;Node14</title>
<g id="a_edge13_Node000010_Node000014"><a xlink:title=" ">
<path fill="none" stroke="#63b8ff" d="M1901.37,-146.28C1758.42,-146.23 1397.79,-141.44 1287.5,-96 1250.91,-80.93 1218.04,-47.1 1200.62,-26.8"/>
<polygon fill="#63b8ff" stroke="#63b8ff" points="1203.23,-24.46 1194.13,-19.02 1197.85,-28.95 1203.23,-24.46"/>
</a>
</g>
</g>
<!-- Node15 -->
<g id="Node000015" class="node">
<title>Node15</title>
<g id="a_Node000015"><a xlink:title=" ">
<polygon fill="#e0e0e0" stroke="#999999" points="1213.5,-85 1157.5,-85 1157.5,-66 1213.5,-66 1213.5,-85"/>
<text text-anchor="middle" x="1185.5" y="-73" font-family="Helvetica,sans-Serif" font-size="10.00">unistd.h</text>
</a>
</g>
</g>
<!-- Node10&#45;&gt;Node15 -->
<g id="edge14_Node000010_Node000015" class="edge">
<title>Node10&#45;&gt;Node15</title>
<g id="a_edge14_Node000010_Node000015"><a xlink:title=" ">
<path fill="none" stroke="#63b8ff" d="M1901.28,-144.74C1750.4,-141.1 1354.52,-128.62 1227.5,-96 1221.51,-94.46 1215.34,-92.09 1209.62,-89.52"/>
<polygon fill="#63b8ff" stroke="#63b8ff" points="1211.08,-86.34 1200.55,-85.13 1208.03,-92.64 1211.08,-86.34"/>
</a>
</g>
</g>
<!-- Node16 -->
<g id="Node000016" class="node">
<title>Node16</title>
<g id="a_Node000016"><a xlink:href="_types_8hpp.html" target="_top" xlink:title=" ">
<polygon fill="white" stroke="#666666" points="2403.5,-90.5 2285.5,-90.5 2285.5,-60.5 2403.5,-60.5 2403.5,-90.5"/>
<text text-anchor="start" x="2293.5" y="-78.5" font-family="Helvetica,sans-Serif" font-size="10.00">Hermes/_base/OsApi</text>
<text text-anchor="middle" x="2344.5" y="-67.5" font-family="Helvetica,sans-Serif" font-size="10.00">/Types.hpp</text>
</a>
</g>
</g>
<!-- Node10&#45;&gt;Node16 -->
<g id="edge15_Node000010_Node000016" class="edge">
<title>Node10&#45;&gt;Node16</title>
<g id="a_edge15_Node000010_Node000016"><a xlink:title=" ">
<path fill="none" stroke="#63b8ff" d="M2019.53,-138.75C2083.11,-130.44 2187.08,-115.44 2275.5,-96 2279.53,-95.11 2283.68,-94.13 2287.85,-93.09"/>
<polygon fill="#63b8ff" stroke="#63b8ff" points="2288.75,-96.47 2297.55,-90.57 2286.99,-89.69 2288.75,-96.47"/>
</a>
</g>
</g>
<!-- Node18 -->
<g id="Node000018" class="node">
<title>Node18</title>
<g id="a_Node000018"><a xlink:href="_conversion_and_literals_8hpp.html" target="_top" xlink:title=" ">
<polygon fill="white" stroke="#666666" points="2571.5,-90.5 2421.5,-90.5 2421.5,-60.5 2571.5,-60.5 2571.5,-90.5"/>
<text text-anchor="start" x="2429.5" y="-78.5" font-family="Helvetica,sans-Serif" font-size="10.00">Hermes/_base/OsApi</text>
<text text-anchor="middle" x="2496.5" y="-67.5" font-family="Helvetica,sans-Serif" font-size="10.00">/ConversionAndLiterals.hpp</text>
</a>
</g>
</g>
<!-- Node10&#45;&gt;Node18 -->
<g id="edge17_Node000010_Node000018" class="edge">
<title>Node10&#45;&gt;Node18</title>
<g id="a_edge17_Node000010_Node000018"><a xlink:title=" ">
<path fill="none" stroke="#63b8ff" d="M2019.68,-141.69C2106.33,-134.88 2272.61,-119.89 2412.5,-96 2418.27,-95.02 2424.23,-93.88 2430.2,-92.65"/>
<polygon fill="#63b8ff" stroke="#63b8ff" points="2431.15,-96.03 2440.2,-90.53 2429.7,-89.18 2431.15,-96.03"/>
</a>
</g>
</g>
<!-- Node20 -->
<g id="Node000020" class="node">
<title>Node20</title>
<g id="a_Node000020"><a xlink:href="_macros_8hpp.html" target="_top" xlink:title=" ">
<polygon fill="white" stroke="#666666" points="3405.5,-90.5 3287.5,-90.5 3287.5,-60.5 3405.5,-60.5 3405.5,-90.5"/>
<text text-anchor="start" x="3295.5" y="-78.5" font-family="Helvetica,sans-Serif" font-size="10.00">Hermes/_base/OsApi</text>
<text text-anchor="middle" x="3346.5" y="-67.5" font-family="Helvetica,sans-Serif" font-size="10.00">/Macros.hpp</text>
</a>
</g>
</g>
<!-- Node10&#45;&gt;Node20 -->
<g id="edge19_Node000010_Node000020" class="edge">
<title>Node10&#45;&gt;Node20</title>
<g id="a_edge19_Node000010_Node000020"><a xlink:title=" ">
<path fill="none" stroke="#63b8ff" d="M2019.62,-145.65C2242.38,-144.04 3030.91,-135.6 3278.5,-96 3283.32,-95.23 3288.29,-94.23 3293.24,-93.08"/>
<polygon fill="#63b8ff" stroke="#63b8ff" points="3294.47,-96.38 3303.32,-90.57 3292.77,-89.59 3294.47,-96.38"/>
</a>
</g>
</g>
<!-- Node22 -->
<g id="Node000022" class="node">
<title>Node22</title>
<g id="a_Node000022"><a xlink:href="_address_family_enum_8hpp.html" target="_top" xlink:title=" ">
<polygon fill="white" stroke="#666666" points="3005.5,-90.5 2829.5,-90.5 2829.5,-60.5 3005.5,-60.5 3005.5,-90.5"/>
<text text-anchor="start" x="2837.5" y="-78.5" font-family="Helvetica,sans-Serif" font-size="10.00">Hermes/_base/OsApi</text>
<text text-anchor="middle" x="2917.5" y="-67.5" font-family="Helvetica,sans-Serif" font-size="10.00">/Enums/AddressFamilyEnum.hpp</text>
</a>
</g>
</g>
<!-- Node10&#45;&gt;Node22 -->
<g id="edge22_Node000010_Node000022" class="edge">
<title>Node10&#45;&gt;Node22</title>
<g id="a_edge22_Node000010_Node000022"><a xlink:title=" ">
<path fill="none" stroke="#63b8ff" d="M2019.57,-145.2C2158.75,-142.72 2517.99,-132.98 2815.5,-96 2823.79,-94.97 2832.43,-93.67 2841.01,-92.24"/>
<polygon fill="#63b8ff" stroke="#63b8ff" points="2841.78,-95.66 2851.03,-90.5 2840.58,-88.76 2841.78,-95.66"/>
</a>
</g>
</g>
<!-- Node23 -->
<g id="Node000023" class="node">
<title>Node23</title>
<g id="a_Node000023"><a xlink:href="_protocol_base_type_enum_8hpp.html" target="_top" xlink:title=" ">
<polygon fill="white" stroke="#666666" points="2267,-90.5 2076,-90.5 2076,-60.5 2267,-60.5 2267,-90.5"/>
<text text-anchor="start" x="2084" y="-78.5" font-family="Helvetica,sans-Serif" font-size="10.00">Hermes/_base/OsApi</text>
<text text-anchor="middle" x="2171.5" y="-67.5" font-family="Helvetica,sans-Serif" font-size="10.00">/Enums/ProtocolBaseTypeEnum.hpp</text>
</a>
</g>
</g>
<!-- Node10&#45;&gt;Node23 -->
<g id="edge24_Node000010_Node000023" class="edge">
<title>Node10&#45;&gt;Node23</title>
<g id="a_edge24_Node000010_Node000023"><a xlink:title=" ">
<path fill="none" stroke="#63b8ff" d="M2003.2,-131.94C2036.66,-120.91 2083.37,-105.53 2119.1,-93.76"/>
<polygon fill="#63b8ff" stroke="#63b8ff" points="2120.46,-97 2128.86,-90.54 2118.27,-90.35 2120.46,-97"/>
</a>
</g>
</g>
<!-- Node24 -->
<g id="Node000024" class="node">
<title>Node24</title>
<g id="a_Node000024"><a xlink:href="_socket_shutdown_enum_8hpp.html" target="_top" xlink:title=" ">
<polygon fill="white" stroke="#666666" points="2774,-90.5 2589,-90.5 2589,-60.5 2774,-60.5 2774,-90.5"/>
<text text-anchor="start" x="2597" y="-78.5" font-family="Helvetica,sans-Serif" font-size="10.00">Hermes/_base/OsApi</text>
<text text-anchor="middle" x="2681.5" y="-67.5" font-family="Helvetica,sans-Serif" font-size="10.00">/Enums/SocketShutdownEnum.hpp</text>
</a>
</g>
</g>
<!-- Node10&#45;&gt;Node24 -->
<g id="edge26_Node000010_Node000024" class="edge">
<title>Node10&#45;&gt;Node24</title>
<g id="a_edge26_Node000010_Node000024"><a xlink:title=" ">
<path fill="none" stroke="#63b8ff" d="M2019.72,-143.4C2130.31,-138.07 2375.6,-123.96 2580.5,-96 2588.21,-94.95 2596.23,-93.69 2604.22,-92.32"/>
<polygon fill="#63b8ff" stroke="#63b8ff" points="2605.06,-95.73 2614.3,-90.54 2603.85,-88.83 2605.06,-95.73"/>
</a>
</g>
</g>
<!-- Node25 -->
<g id="Node000025" class="node">
<title>Node25</title>
<g id="a_Node000025"><a xlink:href="_socket_type_enum_8hpp.html" target="_top" xlink:title=" ">
<polygon fill="white" stroke="#666666" points="3182,-90.5 3023,-90.5 3023,-60.5 3182,-60.5 3182,-90.5"/>
<text text-anchor="start" x="3031" y="-78.5" font-family="Helvetica,sans-Serif" font-size="10.00">Hermes/_base/OsApi</text>
<text text-anchor="middle" x="3102.5" y="-67.5" font-family="Helvetica,sans-Serif" font-size="10.00">/Enums/SocketTypeEnum.hpp</text>
</a>
</g>
</g>
<!-- Node10&#45;&gt;Node25 -->
<g id="edge28_Node000010_Node000025" class="edge">
<title>Node10&#45;&gt;Node25</title>
<g id="a_edge28_Node000010_Node000025"><a xlink:title=" ">
<path fill="none" stroke="#63b8ff" d="M2019.67,-146.72C2180.38,-147.91 2638.17,-146.25 3014.5,-96 3021.54,-95.06 3028.85,-93.84 3036.11,-92.47"/>
<polygon fill="#63b8ff" stroke="#63b8ff" points="3036.82,-95.9 3045.95,-90.52 3035.46,-89.03 3036.82,-95.9"/>
</a>
</g>
</g>
<!-- Node26 -->
<g id="Node000026" class="node">
<title>Node26</title>
<g id="a_Node000026"><a xlink:href="_linux_2_encrypt_status_enum_8hpp.html" target="_top" xlink:title=" ">
<polygon fill="white" stroke="#666666" points="1459.5,-96 1307.5,-96 1307.5,-55 1459.5,-55 1459.5,-96"/>
<text text-anchor="start" x="1315.5" y="-84" font-family="Helvetica,sans-Serif" font-size="10.00">Hermes/_base/OsApi</text>
<text text-anchor="start" x="1315.5" y="-73" font-family="Helvetica,sans-Serif" font-size="10.00">/Enums/Linux/EncryptStatus</text>
<text text-anchor="middle" x="1383.5" y="-62" font-family="Helvetica,sans-Serif" font-size="10.00">Enum.hpp</text>
</a>
</g>
</g>
<!-- Node10&#45;&gt;Node26 -->
<g id="edge30_Node000010_Node000026" class="edge">
<title>Node10&#45;&gt;Node26</title>
<g id="a_edge30_Node000010_Node000026"><a xlink:title=" ">
<path fill="none" stroke="#63b8ff" d="M1901.49,-142.38C1810.73,-136.29 1631.29,-122.19 1469.97,-96.14"/>
<polygon fill="#63b8ff" stroke="#63b8ff" points="1470.3,-92.65 1459.87,-94.49 1469.17,-99.56 1470.3,-92.65"/>
</a>
</g>
</g>
<!-- Node27 -->
<g id="Node000027" class="node">
<title>Node27</title>
<g id="a_Node000027"><a xlink:href="_name_info_flags_8hpp.html" target="_top" xlink:title=" ">
<polygon fill="white" stroke="#666666" points="1139.5,-90.5 995.5,-90.5 995.5,-60.5 1139.5,-60.5 1139.5,-90.5"/>
<text text-anchor="start" x="1003.5" y="-78.5" font-family="Helvetica,sans-Serif" font-size="10.00">Hermes/_base/OsApi</text>
<text text-anchor="middle" x="1067.5" y="-67.5" font-family="Helvetica,sans-Serif" font-size="10.00">/Flags/NameInfoFlags.hpp</text>
</a>
</g>
</g>
<!-- Node10&#45;&gt;Node27 -->
<g id="edge31_Node000010_Node000027" class="edge">
<title>Node10&#45;&gt;Node27</title>
<g id="a_edge31_Node000010_Node000027"><a xlink:title=" ">
<path fill="none" stroke="#63b8ff" d="M1901.29,-145.89C1766.75,-144.86 1428.03,-137.92 1148.5,-96 1142.4,-95.08 1136.08,-93.93 1129.79,-92.65"/>
<polygon fill="#63b8ff" stroke="#63b8ff" points="1130.47,-89.22 1119.96,-90.54 1129,-96.06 1130.47,-89.22"/>
</a>
</g>
</g>
<!-- Node28 -->
<g id="Node000028" class="node">
<title>Node28</title>
<g id="a_Node000028"><a xlink:href="_linux_2_credential_flags_8hpp.html" target="_top" xlink:title=" ">
<polygon fill="white" stroke="#666666" points="1653.5,-90.5 1477.5,-90.5 1477.5,-60.5 1653.5,-60.5 1653.5,-90.5"/>
<text text-anchor="start" x="1485.5" y="-78.5" font-family="Helvetica,sans-Serif" font-size="10.00">Hermes/_base/OsApi</text>
<text text-anchor="middle" x="1565.5" y="-67.5" font-family="Helvetica,sans-Serif" font-size="10.00">/Flags/Linux/CredentialFlags.hpp</text>
</a>
</g>
</g>
<!-- Node10&#45;&gt;Node28 -->
<g id="edge33_Node000010_Node000028" class="edge">
<title>Node10&#45;&gt;Node28</title>
<g id="a_edge33_Node000010_Node000028"><a xlink:title=" ">
<path fill="none" stroke="#63b8ff" d="M1901.32,-136.64C1841.11,-126.99 1745.17,-111.24 1662.5,-96 1656.4,-94.88 1650.1,-93.68 1643.76,-92.46"/>
<polygon fill="#63b8ff" stroke="#63b8ff" points="1644.29,-89 1633.81,-90.52 1642.96,-95.87 1644.29,-89"/>
</a>
</g>
</g>
<!-- Node29 -->
<g id="Node000029" class="node">
<title>Node29</title>
<g id="a_Node000029"><a xlink:href="_linux_2_supported_protocols_flags_8hpp.html" target="_top" xlink:title=" ">
<polygon fill="white" stroke="#666666" points="1845,-96 1672,-96 1672,-55 1845,-55 1845,-96"/>
<text text-anchor="start" x="1680" y="-84" font-family="Helvetica,sans-Serif" font-size="10.00">Hermes/_base/OsApi</text>
<text text-anchor="start" x="1680" y="-73" font-family="Helvetica,sans-Serif" font-size="10.00">/Flags/Linux/SupportedProtocols</text>
<text text-anchor="middle" x="1758.5" y="-62" font-family="Helvetica,sans-Serif" font-size="10.00">Flags.hpp</text>
</a>
</g>
</g>
<!-- Node10&#45;&gt;Node29 -->
<g id="edge34_Node000010_Node000029" class="edge">
<title>Node10&#45;&gt;Node29</title>
<g id="a_edge34_Node000010_Node000029"><a xlink:title=" ">
<path fill="none" stroke="#63b8ff" d="M1919.62,-131.94C1892.46,-122.59 1856.17,-110.11 1824.91,-99.35"/>
<polygon fill="#63b8ff" stroke="#63b8ff" points="1825.98,-96.02 1815.39,-96.07 1823.71,-102.64 1825.98,-96.02"/>
</a>
</g>
</g>
<!-- Node30 -->
<g id="Node000030" class="node">
<title>Node30</title>
<g id="a_Node000030"><a xlink:href="_linux_2_s_channel_cred_flags_8hpp.html" target="_top" xlink:title=" ">
<polygon fill="white" stroke="#666666" points="2057.5,-90.5 1863.5,-90.5 1863.5,-60.5 2057.5,-60.5 2057.5,-90.5"/>
<text text-anchor="start" x="1871.5" y="-78.5" font-family="Helvetica,sans-Serif" font-size="10.00">Hermes/_base/OsApi</text>
<text text-anchor="middle" x="1960.5" y="-67.5" font-family="Helvetica,sans-Serif" font-size="10.00">/Flags/Linux/SChannelCredFlags.hpp</text>
</a>
</g>
</g>
<!-- Node10&#45;&gt;Node30 -->
<g id="edge35_Node000010_Node000030" class="edge">
<title>Node10&#45;&gt;Node30</title>
<g id="a_edge35_Node000010_Node000030"><a xlink:title=" ">
<path fill="none" stroke="#63b8ff" d="M1960.5,-131.94C1960.5,-122.99 1960.5,-111.16 1960.5,-100.73"/>
<polygon fill="#63b8ff" stroke="#63b8ff" points="1964,-100.54 1960.5,-90.54 1957,-100.54 1964,-100.54"/>
</a>
</g>
</g>
<!-- Node17 -->
<g id="Node000017" class="node">
<title>Node17</title>
<g id="a_Node000017"><a xlink:title=" ">
<polygon fill="#e0e0e0" stroke="#999999" points="2381.5,-19 2307.5,-19 2307.5,0 2381.5,0 2381.5,-19"/>
<text text-anchor="middle" x="2344.5" y="-7" font-family="Helvetica,sans-Serif" font-size="10.00">WinSock2.h</text>
</a>
</g>
</g>
<!-- Node16&#45;&gt;Node17 -->
<g id="edge16_Node000016_Node000017" class="edge">
<title>Node16&#45;&gt;Node17</title>
<g id="a_edge16_Node000016_Node000017"><a xlink:title=" ">
<path fill="none" stroke="#63b8ff" d="M2344.5,-60.3C2344.5,-51.2 2344.5,-39.29 2344.5,-29.4"/>
<polygon fill="#63b8ff" stroke="#63b8ff" points="2348,-29.34 2344.5,-19.34 2341,-29.34 2348,-29.34"/>
</a>
</g>
</g>
<!-- Node19 -->
<g id="Node000019" class="node">
<title>Node19</title>
<g id="a_Node000019"><a xlink:title=" ">
<polygon fill="#e0e0e0" stroke="#999999" points="2521.5,-19 2471.5,-19 2471.5,0 2521.5,0 2521.5,-19"/>
<text text-anchor="middle" x="2496.5" y="-7" font-family="Helvetica,sans-Serif" font-size="10.00">cstdint</text>
</a>
</g>
</g>
<!-- Node18&#45;&gt;Node19 -->
<g id="edge18_Node000018_Node000019" class="edge">
<title>Node18&#45;&gt;Node19</title>
<g id="a_edge18_Node000018_Node000019"><a xlink:title=" ">
<path fill="none" stroke="#63b8ff" d="M2496.5,-60.3C2496.5,-51.2 2496.5,-39.29 2496.5,-29.4"/>
<polygon fill="#63b8ff" stroke="#63b8ff" points="2500,-29.34 2496.5,-19.34 2493,-29.34 2500,-29.34"/>
</a>
</g>
</g>
<!-- Node20&#45;&gt;Node11 -->
<g id="edge21_Node000020_Node000011" class="edge">
<title>Node20&#45;&gt;Node11</title>
<g id="a_edge21_Node000020_Node000011"><a xlink:title=" ">
<path fill="none" stroke="#63b8ff" d="M3301.39,-60.5C3293.8,-58.45 3285.96,-56.52 3278.5,-55 3168,-32.49 3035.99,-19.73 2966.26,-14.07"/>
<polygon fill="#63b8ff" stroke="#63b8ff" points="2966.27,-10.56 2956.02,-13.26 2965.71,-17.54 2966.27,-10.56"/>
</a>
</g>
</g>
<!-- Node21 -->
<g id="Node000021" class="node">
<title>Node21</title>
<g id="a_Node000021"><a xlink:title=" ">
<polygon fill="#e0e0e0" stroke="#999999" points="3383,-19 3310,-19 3310,0 3383,0 3383,-19"/>
<text text-anchor="middle" x="3346.5" y="-7" font-family="Helvetica,sans-Serif" font-size="10.00">string_view</text>
</a>
</g>
</g>
<!-- Node20&#45;&gt;Node21 -->
<g id="edge20_Node000020_Node000021" class="edge">
<title>Node20&#45;&gt;Node21</title>
<g id="a_edge20_Node000020_Node000021"><a xlink:title=" ">
<path fill="none" stroke="#63b8ff" d="M3346.5,-60.3C3346.5,-51.2 3346.5,-39.29 3346.5,-29.4"/>
<polygon fill="#63b8ff" stroke="#63b8ff" points="3350,-29.34 3346.5,-19.34 3343,-29.34 3350,-29.34"/>
</a>
</g>
</g>
<!-- Node22&#45;&gt;Node11 -->
<g id="edge23_Node000022_Node000011" class="edge">
<title>Node22&#45;&gt;Node11</title>
<g id="a_edge23_Node000022_Node000011"><a xlink:title=" ">
<path fill="none" stroke="#63b8ff" d="M2917.5,-60.3C2917.5,-51.2 2917.5,-39.29 2917.5,-29.4"/>
<polygon fill="#63b8ff" stroke="#63b8ff" points="2921,-29.34 2917.5,-19.34 2914,-29.34 2921,-29.34"/>
</a>
</g>
</g>
<!-- Node23&#45;&gt;Node12 -->
<g id="edge25_Node000023_Node000012" class="edge">
<title>Node23&#45;&gt;Node12</title>
<g id="a_edge25_Node000023_Node000012"><a xlink:title=" ">
<path fill="none" stroke="#63b8ff" d="M2102.78,-60.49C2090.73,-58.39 2078.28,-56.45 2066.5,-55 1808.5,-23.33 1496.52,-13.88 1380.19,-11.34"/>
<polygon fill="#63b8ff" stroke="#63b8ff" points="1379.94,-7.84 1369.87,-11.13 1379.8,-14.84 1379.94,-7.84"/>
</a>
</g>
</g>
<!-- Node24&#45;&gt;Node11 -->
<g id="edge27_Node000024_Node000011" class="edge">
<title>Node24&#45;&gt;Node11</title>
<g id="a_edge27_Node000024_Node000011"><a xlink:title=" ">
<path fill="none" stroke="#63b8ff" d="M2733.29,-60.45C2776.23,-48.81 2836.46,-32.48 2876.2,-21.7"/>
<polygon fill="#63b8ff" stroke="#63b8ff" points="2877.36,-25.01 2886.09,-19.02 2875.52,-18.26 2877.36,-25.01"/>
</a>
</g>
</g>
<!-- Node25&#45;&gt;Node11 -->
<g id="edge29_Node000025_Node000011" class="edge">
<title>Node25&#45;&gt;Node11</title>
<g id="a_edge29_Node000025_Node000011"><a xlink:title=" ">
<path fill="none" stroke="#63b8ff" d="M3061.9,-60.45C3028.89,-49.03 2982.83,-33.1 2951.68,-22.32"/>
<polygon fill="#63b8ff" stroke="#63b8ff" points="2952.72,-18.98 2942.12,-19.02 2950.43,-25.59 2952.72,-18.98"/>
</a>
</g>
</g>
<!-- Node27&#45;&gt;Node14 -->
<g id="edge32_Node000027_Node000014" class="edge">
<title>Node27&#45;&gt;Node14</title>
<g id="a_edge32_Node000027_Node000014"><a xlink:title=" ">
<path fill="none" stroke="#63b8ff" d="M1093.83,-60.45C1114.32,-49.53 1142.56,-34.47 1162.66,-23.75"/>
<polygon fill="#63b8ff" stroke="#63b8ff" points="1164.35,-26.81 1171.53,-19.02 1161.06,-20.64 1164.35,-26.81"/>
</a>
</g>
</g>
<!-- Node31&#45;&gt;Node6 -->
<g id="edge44_Node000031_Node000006" class="edge">
<title>Node31&#45;&gt;Node6</title>
<g id="a_edge44_Node000031_Node000006"><a xlink:title=" ">
<path fill="none" stroke="#63b8ff" d="M307.68,-203.86C281.36,-196.96 254.59,-184.46 238.5,-162 212.82,-126.14 277.86,-98.94 320.29,-85.61"/>
<polygon fill="#63b8ff" stroke="#63b8ff" points="321.44,-88.92 330,-82.67 319.41,-82.22 321.44,-88.92"/>
</a>
</g>
</g>
<!-- Node31&#45;&gt;Node32 -->
<g id="edge37_Node000031_Node000032" class="edge">
<title>Node31&#45;&gt;Node32</title>
<g id="a_edge37_Node000031_Node000032"><a xlink:title=" ">
<path fill="none" stroke="#63b8ff" d="M315.06,-197.95C255.41,-186.06 171.24,-169.28 117.26,-158.52"/>
<polygon fill="#63b8ff" stroke="#63b8ff" points="117.71,-155.04 107.22,-156.52 116.34,-161.91 117.71,-155.04"/>
</a>
</g>
</g>
<!-- Node35 -->
<g id="Node000035" class="node">
<title>Node35</title>
<g id="a_Node000035"><a xlink:title=" ">
<polygon fill="#e0e0e0" stroke="#999999" points="531.5,-156.5 489.5,-156.5 489.5,-137.5 531.5,-137.5 531.5,-156.5"/>
<text text-anchor="middle" x="510.5" y="-144.5" font-family="Helvetica,sans-Serif" font-size="10.00">array</text>
</a>
</g>
</g>
<!-- Node31&#45;&gt;Node35 -->
<g id="edge40_Node000031_Node000035" class="edge">
<title>Node31&#45;&gt;Node35</title>
<g id="a_edge40_Node000031_Node000035"><a xlink:title=" ">
<path fill="none" stroke="#63b8ff" d="M412.93,-197.95C434.37,-186.98 463.95,-171.83 484.9,-161.11"/>
<polygon fill="#63b8ff" stroke="#63b8ff" points="486.56,-164.19 493.86,-156.52 483.37,-157.96 486.56,-164.19"/>
</a>
</g>
</g>
<!-- Node31&#45;&gt;Node36 -->
<g id="edge41_Node000031_Node000036" class="edge">
<title>Node31&#45;&gt;Node36</title>
<g id="a_edge41_Node000031_Node000036"><a xlink:title=" ">
<path fill="none" stroke="#63b8ff" d="M329.52,-197.99C293.77,-188.67 246.59,-175.66 205.5,-162 203.84,-161.45 202.14,-160.86 200.43,-160.26"/>
<polygon fill="#63b8ff" stroke="#63b8ff" points="201.29,-156.84 190.69,-156.65 198.85,-163.4 201.29,-156.84"/>
</a>
</g>
</g>
<!-- Node37 -->
<g id="Node000037" class="node">
<title>Node37</title>
<g id="a_Node000037"><a xlink:title=" ">
<polygon fill="#e0e0e0" stroke="#999999" points="601,-156.5 550,-156.5 550,-137.5 601,-137.5 601,-156.5"/>
<text text-anchor="middle" x="575.5" y="-144.5" font-family="Helvetica,sans-Serif" font-size="10.00">variant</text>
</a>
</g>
</g>
<!-- Node31&#45;&gt;Node37 -->
<g id="edge42_Node000031_Node000037" class="edge">
<title>Node31&#45;&gt;Node37</title>
<g id="a_edge42_Node000031_Node000037"><a xlink:title=" ">
<path fill="none" stroke="#63b8ff" d="M431.9,-197.94C462.84,-188.35 504.33,-175.05 540.5,-162 542.11,-161.42 543.75,-160.81 545.41,-160.19"/>
<polygon fill="#63b8ff" stroke="#63b8ff" points="546.8,-163.4 554.86,-156.53 544.27,-156.88 546.8,-163.4"/>
</a>
</g>
</g>
<!-- Node31&#45;&gt;Node38 -->
<g id="edge43_Node000031_Node000038" class="edge">
<title>Node31&#45;&gt;Node38</title>
<g id="a_edge43_Node000031_Node000038"><a xlink:title=" ">
<path fill="none" stroke="#63b8ff" d="M460.04,-197.96C503.92,-189.05 560.29,-176.49 609.5,-162 611.78,-161.33 614.11,-160.59 616.45,-159.82"/>
<polygon fill="#63b8ff" stroke="#63b8ff" points="617.68,-163.1 625.96,-156.5 615.37,-156.49 617.68,-163.1"/>
</a>
</g>
</g>
<!-- Node39 -->
<g id="Node000039" class="node">
<title>Node39</title>
<g id="a_Node000039"><a xlink:title=" ">
<polygon fill="#e0e0e0" stroke="#999999" points="297.5,-156.5 247.5,-156.5 247.5,-137.5 297.5,-137.5 297.5,-156.5"/>
<text text-anchor="middle" x="272.5" y="-144.5" font-family="Helvetica,sans-Serif" font-size="10.00">format</text>
</a>
</g>
</g>
<!-- Node31&#45;&gt;Node39 -->
<g id="edge45_Node000031_Node000039" class="edge">
<title>Node31&#45;&gt;Node39</title>
<g id="a_edge45_Node000031_Node000039"><a xlink:title=" ">
<path fill="none" stroke="#63b8ff" d="M360.7,-197.95C341.58,-187.13 315.3,-172.24 296.41,-161.54"/>
<polygon fill="#63b8ff" stroke="#63b8ff" points="297.96,-158.4 287.54,-156.52 294.51,-164.49 297.96,-158.4"/>
</a>
</g>
</g>
<!-- Node40 -->
<g id="Node000040" class="node">
<title>Node40</title>
<g id="a_Node000040"><a xlink:title=" ">
<polygon fill="#e0e0e0" stroke="#999999" points="471,-162 316,-162 316,-132 471,-132 471,-162"/>
<text text-anchor="start" x="324" y="-150" font-family="Helvetica,sans-Serif" font-size="10.00">Hermes/Endpoint/IpEndpoint</text>
<text text-anchor="middle" x="393.5" y="-139" font-family="Helvetica,sans-Serif" font-size="10.00">/IpAddress.tpp</text>
</a>
</g>
</g>
<!-- Node31&#45;&gt;Node40 -->
<g id="edge46_Node000031_Node000040" class="edge">
<title>Node31&#45;&gt;Node40</title>
<g id="a_edge46_Node000031_Node000040"><a xlink:title=" ">
<path fill="none" stroke="#63b8ff" d="M387.28,-197.8C388.22,-190.26 389.4,-180.78 390.48,-172.13"/>
<polygon fill="#63b8ff" stroke="#63b8ff" points="393.96,-172.52 391.73,-162.16 387.02,-171.65 393.96,-172.52"/>
</a>
</g>
</g>
<!-- Node33 -->
<g id="Node000033" class="node">
<title>Node33</title>
<g id="a_Node000033"><a xlink:title=" ">
<polygon fill="#e0e0e0" stroke="#999999" points="51,-85 6,-85 6,-66 51,-66 51,-85"/>
<text text-anchor="middle" x="28.5" y="-73" font-family="Helvetica,sans-Serif" font-size="10.00">utility</text>
</a>
</g>
</g>
<!-- Node32&#45;&gt;Node33 -->
<g id="edge38_Node000032_Node000033" class="edge">
<title>Node32&#45;&gt;Node33</title>
<g id="a_edge38_Node000032_Node000033"><a xlink:title=" ">
<path fill="none" stroke="#63b8ff" d="M60.09,-137.48C54.53,-126.74 44.83,-108.03 37.65,-94.16"/>
<polygon fill="#63b8ff" stroke="#63b8ff" points="40.66,-92.36 32.95,-85.09 34.44,-95.58 40.66,-92.36"/>
</a>
</g>
</g>
<!-- Node34 -->
<g id="Node000034" class="node">
<title>Node34</title>
<g id="a_Node000034"><a xlink:title=" ">
<polygon fill="#e0e0e0" stroke="#999999" points="134,-85 69,-85 69,-66 134,-66 134,-85"/>
<text text-anchor="middle" x="101.5" y="-73" font-family="Helvetica,sans-Serif" font-size="10.00">functional</text>
</a>
</g>
</g>
<!-- Node32&#45;&gt;Node34 -->
<g id="edge39_Node000032_Node000034" class="edge">
<title>Node32&#45;&gt;Node34</title>
<g id="a_edge39_Node000032_Node000034"><a xlink:title=" ">
<path fill="none" stroke="#63b8ff" d="M69.04,-137.48C74.75,-126.74 84.71,-108.03 92.1,-94.16"/>
<polygon fill="#63b8ff" stroke="#63b8ff" points="95.32,-95.56 96.93,-85.09 89.14,-92.27 95.32,-95.56"/>
</a>
</g>
</g>
<!-- Node43&#45;&gt;Node3 -->
<g id="edge53_Node000043_Node000003" class="edge">
<title>Node43&#45;&gt;Node3</title>
<g id="a_edge53_Node000043_Node000003"><a xlink:title=" ">
<path fill="none" stroke="#63b8ff" d="M878.82,-269.37C865.59,-260.36 844.39,-245.92 826.95,-234.05"/>
<polygon fill="#63b8ff" stroke="#63b8ff" points="828.47,-230.85 818.23,-228.12 824.53,-236.64 828.47,-230.85"/>
</a>
</g>
</g>
<!-- Node43&#45;&gt;Node4 -->
<g id="edge54_Node000043_Node000004" class="edge">
<title>Node43&#45;&gt;Node4</title>
<g id="a_edge54_Node000043_Node000004"><a xlink:title=" ">
<path fill="none" stroke="#63b8ff" d="M891.17,-269.41C890.23,-254.02 886.59,-221.18 872.5,-198 865.52,-186.53 855.03,-176.32 844.87,-168.17"/>
<polygon fill="#63b8ff" stroke="#63b8ff" points="846.95,-165.36 836.87,-162.09 842.71,-170.93 846.95,-165.36"/>
</a>
</g>
</g>
<!-- Node43&#45;&gt;Node8 -->
<g id="edge56_Node000043_Node000008" class="edge">
<title>Node43&#45;&gt;Node8</title>
<g id="a_edge56_Node000043_Node000008"><a xlink:title=" ">
<path fill="none" stroke="#63b8ff" d="M819.92,-271.24C786.81,-264.79 749.03,-252.26 722.5,-228 688.64,-197.03 714.15,-167.02 684.5,-132 668.34,-112.91 643.88,-98.6 624.24,-89.29"/>
<polygon fill="#63b8ff" stroke="#63b8ff" points="625.59,-86.06 615.04,-85.12 622.71,-92.44 625.59,-86.06"/>
</a>
</g>
</g>
<!-- Node43&#45;&gt;Node10 -->
<g id="edge55_Node000043_Node000010" class="edge">
<title>Node43&#45;&gt;Node10</title>
<g id="a_edge55_Node000043_Node000010"><a xlink:title=" ">
<path fill="none" stroke="#63b8ff" d="M938.12,-269.5C949.36,-267.57 961.34,-265.62 972.5,-264 1316.19,-214.16 1729.54,-171.05 1891.06,-154.84"/>
<polygon fill="#63b8ff" stroke="#63b8ff" points="1891.73,-158.29 1901.33,-153.81 1891.03,-151.33 1891.73,-158.29"/>
</a>
</g>
</g>
<!-- Node44 -->
<g id="Node000044" class="node">
<title>Node44</title>
<g id="a_Node000044"><a xlink:title=" ">
<polygon fill="#e0e0e0" stroke="#999999" points="979.5,-222.5 919.5,-222.5 919.5,-203.5 979.5,-203.5 979.5,-222.5"/>
<text text-anchor="middle" x="949.5" y="-210.5" font-family="Helvetica,sans-Serif" font-size="10.00">concepts</text>
</a>
</g>
</g>
<!-- Node43&#45;&gt;Node44 -->
<g id="edge57_Node000043_Node000044" class="edge">
<title>Node43&#45;&gt;Node44</title>
<g id="a_edge57_Node000043_Node000044"><a xlink:title=" ">
<path fill="none" stroke="#63b8ff" d="M899.32,-269.37C908.35,-259.4 923.41,-242.79 934.67,-230.36"/>
<polygon fill="#63b8ff" stroke="#63b8ff" points="937.31,-232.67 941.43,-222.91 932.12,-227.96 937.31,-232.67"/>
</a>
</g>
</g>
<!-- Node45 -->
<g id="Node000045" class="node">
<title>Node45</title>
<g id="a_Node000045"><a xlink:title=" ">
<polygon fill="#e0e0e0" stroke="#999999" points="1047.5,-222.5 997.5,-222.5 997.5,-203.5 1047.5,-203.5 1047.5,-222.5"/>
<text text-anchor="middle" x="1022.5" y="-210.5" font-family="Helvetica,sans-Serif" font-size="10.00">ranges</text>
</a>
</g>
</g>
<!-- Node43&#45;&gt;Node45 -->
<g id="edge58_Node000043_Node000045" class="edge">
<title>Node43&#45;&gt;Node45</title>
<g id="a_edge58_Node000043_Node000045"><a xlink:title=" ">
<path fill="none" stroke="#63b8ff" d="M909.17,-269.37C931.34,-258.54 969.58,-239.85 995.45,-227.22"/>
<polygon fill="#63b8ff" stroke="#63b8ff" points="997.25,-230.23 1004.69,-222.7 994.17,-223.94 997.25,-230.23"/>
</a>
</g>
</g>
</g>
</svg>
