<?xml version="1.0" encoding="UTF-8" standalone="no"?>
<!DOCTYPE svg PUBLIC "-//W3C//DTD SVG 1.1//EN"
 "http://www.w3.org/Graphics/SVG/1.1/DTD/svg11.dtd">
<!-- Generated by graphviz version 2.43.0 (0)
 -->
<!-- Title: include/Hermes/Socket/Async/_base/Transfer/DefaultAsyncTransferPolicy.hpp Pages: 1 -->
<svg width="3117pt" height="456pt"
 viewBox="0.00 0.00 3116.50 456.00" xmlns="http://www.w3.org/2000/svg" xmlns:xlink="http://www.w3.org/1999/xlink">
<g id="graph0" class="graph" transform="scale(1 1) rotate(0) translate(4 452)">
<title>include/Hermes/Socket/Async/_base/Transfer/DefaultAsyncTransferPolicy.hpp</title>
<!-- Node1 -->
<g id="Node000001" class="node">
<title>Node1</title>
<g id="a_Node000001"><a xlink:title=" ">
<polygon fill="#999999" stroke="#666666" points="2576,-448 2403,-448 2403,-407 2576,-407 2576,-448"/>
<text text-anchor="start" x="2411" y="-436" font-family="Helvetica,sans-Serif" font-size="10.00">include/Hermes/Socket</text>
<text text-anchor="start" x="2411" y="-425" font-family="Helvetica,sans-Serif" font-size="10.00">/Async/_base/Transfer</text>
<text text-anchor="middle" x="2489.5" y="-414" font-family="Helvetica,sans-Serif" font-size="10.00">/DefaultAsyncTransferPolicy.hpp</text>
</a>
</g>
</g>
<!-- Node2 -->
<g id="Node000002" class="node">
<title>Node2</title>
<g id="a_Node000002"><a xlink:href="_default_socket_data_8hpp.html" target="_top" xlink:title=" ">
<polygon fill="white" stroke="#666666" points="2555.5,-365.5 2423.5,-365.5 2423.5,-335.5 2555.5,-335.5 2555.5,-365.5"/>
<text text-anchor="start" x="2431.5" y="-353.5" font-family="Helvetica,sans-Serif" font-size="10.00">Hermes/Socket/Data</text>
<text text-anchor="middle" x="2489.5" y="-342.5" font-family="Helvetica,sans-Serif" font-size="10.00">/DefaultSocketData.hpp</text>
</a>
</g>
</g>
<!-- Node1&#45;&gt;Node2 -->
<g id="edge1_Node000001_Node000002" class="edge">
<title>Node1&#45;&gt;Node2</title>
<g id="a_edge1_Node000001_Node000002"><a xlink:title=" ">
<path fill="none" stroke="#63b8ff" d="M2489.5,-406.79C2489.5,-397.36 2489.5,-385.97 2489.5,-375.99"/>
<polygon fill="#63b8ff" stroke="#63b8ff" points="2493,-375.86 2489.5,-365.86 2486,-375.86 2493,-375.86"/>
</a>
</g>
</g>
<!-- Node8 -->
<g id="Node000008" class="node">
<title>Node8</title>
<g id="a_Node000008"><a xlink:title=" ">
<polygon fill="#e0e0e0" stroke="#999999" points="2942.5,-85 2902.5,-85 2902.5,-66 2942.5,-66 2942.5,-85"/>
<text text-anchor="middle" x="2922.5" y="-73" font-family="Helvetica,sans-Serif" font-size="10.00">span</text>
</a>
</g>
</g>
<!-- Node1&#45;&gt;Node8 -->
<g id="edge62_Node000001_Node000008" class="edge">
<title>Node1&#45;&gt;Node8</title>
<g id="a_edge62_Node000001_Node000008"><a xlink:title=" ">
<path fill="none" stroke="#63b8ff" d="M2576.08,-415.11C2702.44,-396.04 2922.5,-352.42 2922.5,-280 2922.5,-280 2922.5,-280 2922.5,-212 2922.5,-170.38 2922.5,-121.58 2922.5,-95.39"/>
<polygon fill="#63b8ff" stroke="#63b8ff" points="2926,-95.06 2922.5,-85.06 2919,-95.06 2926,-95.06"/>
</a>
</g>
</g>
<!-- Node9 -->
<g id="Node000009" class="node">
<title>Node9</title>
<g id="a_Node000009"><a xlink:title=" ">
<polygon fill="#e0e0e0" stroke="#999999" points="125,-85 0,-85 0,-66 125,-66 125,-85"/>
<text text-anchor="middle" x="62.5" y="-73" font-family="Helvetica,sans-Serif" font-size="10.00">stdexec/execution.hpp</text>
</a>
</g>
</g>
<!-- Node1&#45;&gt;Node9 -->
<g id="edge61_Node000001_Node000009" class="edge">
<title>Node1&#45;&gt;Node9</title>
<g id="a_edge61_Node000001_Node000009"><a xlink:title=" ">
<path fill="none" stroke="#63b8ff" d="M2403,-425.18C2002.83,-418.52 350.5,-384.69 350.5,-280 350.5,-280 350.5,-280 350.5,-212 350.5,-184.17 172.15,-116.23 96.15,-88.54"/>
<polygon fill="#63b8ff" stroke="#63b8ff" points="97.15,-85.18 86.56,-85.06 94.77,-91.76 97.15,-85.18"/>
</a>
</g>
</g>
<!-- Node43 -->
<g id="Node000043" class="node">
<title>Node43</title>
<g id="a_Node000043"><a xlink:href="__base_8hpp.html" target="_top" xlink:title=" ">
<polygon fill="white" stroke="#666666" points="2186,-288.5 2043,-288.5 2043,-269.5 2186,-269.5 2186,-288.5"/>
<text text-anchor="middle" x="2114.5" y="-276.5" font-family="Helvetica,sans-Serif" font-size="10.00">Hermes/Socket/_base.hpp</text>
</a>
</g>
</g>
<!-- Node1&#45;&gt;Node43 -->
<g id="edge60_Node000001_Node000043" class="edge">
<title>Node1&#45;&gt;Node43</title>
<g id="a_edge60_Node000001_Node000043"><a xlink:title=" ">
<path fill="none" stroke="#63b8ff" d="M2439.31,-406.89C2360.72,-376.19 2210.88,-317.65 2145.88,-292.26"/>
<polygon fill="#63b8ff" stroke="#63b8ff" points="2147.15,-289 2136.56,-288.62 2144.6,-295.52 2147.15,-289"/>
</a>
</g>
</g>
<!-- Node47 -->
<g id="Node000047" class="node">
<title>Node47</title>
<g id="a_Node000047"><a xlink:title=" ">
<polygon fill="#e0e0e0" stroke="#999999" points="3108.5,-371 2950.5,-371 2950.5,-330 3108.5,-330 3108.5,-371"/>
<text text-anchor="start" x="2958.5" y="-359" font-family="Helvetica,sans-Serif" font-size="10.00">Hermes/Socket/Async</text>
<text text-anchor="start" x="2958.5" y="-348" font-family="Helvetica,sans-Serif" font-size="10.00">/_base/Transfer/DefaultAsync</text>
<text text-anchor="middle" x="3029.5" y="-337" font-family="Helvetica,sans-Serif" font-size="10.00">TransferPolicy.tpp</text>
</a>
</g>
</g>
<!-- Node1&#45;&gt;Node47 -->
<g id="edge63_Node000001_Node000047" class="edge">
<title>Node1&#45;&gt;Node47</title>
<g id="a_edge63_Node000001_Node000047"><a xlink:title=" ">
<path fill="none" stroke="#63b8ff" d="M2576.34,-417.88C2666.63,-408.41 2811.92,-391.76 2936.5,-371 2937.78,-370.79 2939.07,-370.57 2940.37,-370.34"/>
<polygon fill="#63b8ff" stroke="#63b8ff" points="2941.21,-373.75 2950.44,-368.54 2939.98,-366.86 2941.21,-373.75"/>
</a>
</g>
</g>
<!-- Node3 -->
<g id="Node000003" class="node">
<title>Node3</title>
<g id="a_Node000003"><a xlink:href="_ip_endpoint_8hpp.html" target="_top" xlink:title=" ">
<polygon fill="white" stroke="#666666" points="2487,-294 2332,-294 2332,-264 2487,-264 2487,-294"/>
<text text-anchor="start" x="2340" y="-282" font-family="Helvetica,sans-Serif" font-size="10.00">Hermes/Endpoint/IpEndpoint</text>
<text text-anchor="middle" x="2409.5" y="-271" font-family="Helvetica,sans-Serif" font-size="10.00">/IpEndpoint.hpp</text>
</a>
</g>
</g>
<!-- Node2&#45;&gt;Node3 -->
<g id="edge2_Node000002_Node000003" class="edge">
<title>Node2&#45;&gt;Node3</title>
<g id="a_edge2_Node000002_Node000003"><a xlink:title=" ">
<path fill="none" stroke="#63b8ff" d="M2473.31,-335.44C2461.82,-325.45 2446.2,-311.88 2433.29,-300.67"/>
<polygon fill="#63b8ff" stroke="#63b8ff" points="2435.51,-297.96 2425.67,-294.04 2430.92,-303.24 2435.51,-297.96"/>
</a>
</g>
</g>
<!-- Node42 -->
<g id="Node000042" class="node">
<title>Node42</title>
<g id="a_Node000042"><a xlink:title=" ">
<polygon fill="#e0e0e0" stroke="#999999" points="2703.5,-288.5 2653.5,-288.5 2653.5,-269.5 2703.5,-269.5 2703.5,-288.5"/>
<text text-anchor="middle" x="2678.5" y="-276.5" font-family="Helvetica,sans-Serif" font-size="10.00">chrono</text>
</a>
</g>
</g>
<!-- Node2&#45;&gt;Node42 -->
<g id="edge51_Node000002_Node000042" class="edge">
<title>Node2&#45;&gt;Node42</title>
<g id="a_edge51_Node000002_Node000042"><a xlink:title=" ">
<path fill="none" stroke="#63b8ff" d="M2530.49,-335.41C2561.84,-324.49 2606.09,-308.78 2644.5,-294 2645.88,-293.47 2647.28,-292.92 2648.7,-292.36"/>
<polygon fill="#63b8ff" stroke="#63b8ff" points="2650.09,-295.57 2658.07,-288.6 2647.48,-289.08 2650.09,-295.57"/>
</a>
</g>
</g>
<!-- Node2&#45;&gt;Node43 -->
<g id="edge52_Node000002_Node000043" class="edge">
<title>Node2&#45;&gt;Node43</title>
<g id="a_edge52_Node000002_Node000043"><a xlink:title=" ">
<path fill="none" stroke="#63b8ff" d="M2423.32,-337.23C2351.52,-323.93 2238.13,-302.91 2170.56,-290.39"/>
<polygon fill="#63b8ff" stroke="#63b8ff" points="2171,-286.91 2160.53,-288.53 2169.72,-293.79 2171,-286.91"/>
</a>
</g>
</g>
<!-- Node46 -->
<g id="Node000046" class="node">
<title>Node46</title>
<g id="a_Node000046"><a xlink:title=" ">
<polygon fill="#e0e0e0" stroke="#999999" points="2635.5,-294 2505.5,-294 2505.5,-264 2635.5,-264 2635.5,-294"/>
<text text-anchor="start" x="2513.5" y="-282" font-family="Helvetica,sans-Serif" font-size="10.00">Hermes/Socket/Data</text>
<text text-anchor="middle" x="2570.5" y="-271" font-family="Helvetica,sans-Serif" font-size="10.00">/DefaultSocketData.tpp</text>
</a>
</g>
</g>
<!-- Node2&#45;&gt;Node46 -->
<g id="edge59_Node000002_Node000046" class="edge">
<title>Node2&#45;&gt;Node46</title>
<g id="a_edge59_Node000002_Node000046"><a xlink:title=" ">
<path fill="none" stroke="#63b8ff" d="M2505.89,-335.44C2517.53,-325.45 2533.34,-311.88 2546.41,-300.67"/>
<polygon fill="#63b8ff" stroke="#63b8ff" points="2548.82,-303.21 2554.13,-294.04 2544.26,-297.9 2548.82,-303.21"/>
</a>
</g>
</g>
<!-- Node4 -->
<g id="Node000004" class="node">
<title>Node4</title>
<g id="a_Node000004"><a xlink:href="_endpoint_concept_8hpp.html" target="_top" xlink:title=" ">
<polygon fill="white" stroke="#666666" points="2237.5,-228 2105.5,-228 2105.5,-198 2237.5,-198 2237.5,-228"/>
<text text-anchor="start" x="2113.5" y="-216" font-family="Helvetica,sans-Serif" font-size="10.00">Hermes/Endpoint/_base</text>
<text text-anchor="middle" x="2171.5" y="-205" font-family="Helvetica,sans-Serif" font-size="10.00">/EndpointConcept.hpp</text>
</a>
</g>
</g>
<!-- Node3&#45;&gt;Node4 -->
<g id="edge3_Node000003_Node000004" class="edge">
<title>Node3&#45;&gt;Node4</title>
<g id="a_edge3_Node000003_Node000004"><a xlink:title=" ">
<path fill="none" stroke="#63b8ff" d="M2357.27,-263.95C2320.84,-254.16 2272.07,-241.05 2233.65,-230.71"/>
<polygon fill="#63b8ff" stroke="#63b8ff" points="2234.17,-227.23 2223.61,-228.01 2232.36,-233.99 2234.17,-227.23"/>
</a>
</g>
</g>
<!-- Node31 -->
<g id="Node000031" class="node">
<title>Node31</title>
<g id="a_Node000031"><a xlink:href="_ip_address_8hpp.html" target="_top" xlink:title=" ">
<polygon fill="white" stroke="#666666" points="2699,-228 2544,-228 2544,-198 2699,-198 2699,-228"/>
<text text-anchor="start" x="2552" y="-216" font-family="Helvetica,sans-Serif" font-size="10.00">Hermes/Endpoint/IpEndpoint</text>
<text text-anchor="middle" x="2621.5" y="-205" font-family="Helvetica,sans-Serif" font-size="10.00">/IpAddress.hpp</text>
</a>
</g>
</g>
<!-- Node3&#45;&gt;Node31 -->
<g id="edge36_Node000003_Node000031" class="edge">
<title>Node3&#45;&gt;Node31</title>
<g id="a_edge36_Node000003_Node000031"><a xlink:title=" ">
<path fill="none" stroke="#63b8ff" d="M2456.02,-263.95C2488.2,-254.24 2531.17,-241.27 2565.27,-230.98"/>
<polygon fill="#63b8ff" stroke="#63b8ff" points="2566.52,-234.25 2575.08,-228.01 2564.5,-227.55 2566.52,-234.25"/>
</a>
</g>
</g>
<!-- Node32 -->
<g id="Node000032" class="node">
<title>Node32</title>
<g id="a_Node000032"><a xlink:href="_hash_8hpp.html" target="_top" xlink:title=" ">
<polygon fill="white" stroke="#666666" points="3080,-156.5 2951,-156.5 2951,-137.5 3080,-137.5 3080,-156.5"/>
<text text-anchor="middle" x="3015.5" y="-144.5" font-family="Helvetica,sans-Serif" font-size="10.00">Hermes/Utils/Hash.hpp</text>
</a>
</g>
</g>
<!-- Node3&#45;&gt;Node32 -->
<g id="edge47_Node000003_Node000032" class="edge">
<title>Node3&#45;&gt;Node32</title>
<g id="a_edge47_Node000003_Node000032"><a xlink:title=" ">
<path fill="none" stroke="#63b8ff" d="M2487.2,-265.38C2568.48,-252.11 2687.2,-232.55 2708.5,-228 2805.55,-207.28 2918.07,-176.1 2976.21,-159.44"/>
<polygon fill="#63b8ff" stroke="#63b8ff" points="2977.43,-162.73 2986.07,-156.61 2975.5,-156.01 2977.43,-162.73"/>
</a>
</g>
</g>
<!-- Node36 -->
<g id="Node000036" class="node">
<title>Node36</title>
<g id="a_Node000036"><a xlink:title=" ">
<polygon fill="#e0e0e0" stroke="#999999" points="2484.5,-156.5 2440.5,-156.5 2440.5,-137.5 2484.5,-137.5 2484.5,-156.5"/>
<text text-anchor="middle" x="2462.5" y="-144.5" font-family="Helvetica,sans-Serif" font-size="10.00">string</text>
</a>
</g>
</g>
<!-- Node3&#45;&gt;Node36 -->
<g id="edge49_Node000003_Node000036" class="edge">
<title>Node3&#45;&gt;Node36</title>
<g id="a_edge49_Node000003_Node000036"><a xlink:title=" ">
<path fill="none" stroke="#63b8ff" d="M2452.75,-263.95C2469.49,-256.15 2486.9,-244.59 2496.5,-228 2508.6,-207.09 2492.27,-181.05 2478.34,-164.47"/>
<polygon fill="#63b8ff" stroke="#63b8ff" points="2480.7,-161.86 2471.43,-156.74 2475.48,-166.53 2480.7,-161.86"/>
</a>
</g>
</g>
<!-- Node38 -->
<g id="Node000038" class="node">
<title>Node38</title>
<g id="a_Node000038"><a xlink:title=" ">
<polygon fill="#e0e0e0" stroke="#999999" points="2422.5,-156.5 2366.5,-156.5 2366.5,-137.5 2422.5,-137.5 2422.5,-156.5"/>
<text text-anchor="middle" x="2394.5" y="-144.5" font-family="Helvetica,sans-Serif" font-size="10.00">optional</text>
</a>
</g>
</g>
<!-- Node3&#45;&gt;Node38 -->
<g id="edge48_Node000003_Node000038" class="edge">
<title>Node3&#45;&gt;Node38</title>
<g id="a_edge48_Node000003_Node000038"><a xlink:title=" ">
<path fill="none" stroke="#63b8ff" d="M2366.73,-263.83C2350.18,-256.01 2332.97,-244.47 2323.5,-228 2316.85,-216.44 2317.36,-209.84 2323.5,-198 2332.01,-181.6 2348.65,-169.44 2363.68,-161.22"/>
<polygon fill="#63b8ff" stroke="#63b8ff" points="2365.41,-164.27 2372.74,-156.61 2362.24,-158.03 2365.41,-164.27"/>
</a>
</g>
</g>
<!-- Node41 -->
<g id="Node000041" class="node">
<title>Node41</title>
<g id="a_Node000041"><a xlink:title=" ">
<polygon fill="#e0e0e0" stroke="#999999" points="2487,-228 2332,-228 2332,-198 2487,-198 2487,-228"/>
<text text-anchor="start" x="2340" y="-216" font-family="Helvetica,sans-Serif" font-size="10.00">Hermes/Endpoint/IpEndpoint</text>
<text text-anchor="middle" x="2409.5" y="-205" font-family="Helvetica,sans-Serif" font-size="10.00">/IpEndpoint.tpp</text>
</a>
</g>
</g>
<!-- Node3&#45;&gt;Node41 -->
<g id="edge50_Node000003_Node000041" class="edge">
<title>Node3&#45;&gt;Node41</title>
<g id="a_edge50_Node000003_Node000041"><a xlink:title=" ">
<path fill="none" stroke="#63b8ff" d="M2409.5,-263.8C2409.5,-256.34 2409.5,-246.99 2409.5,-238.41"/>
<polygon fill="#63b8ff" stroke="#63b8ff" points="2413,-238.16 2409.5,-228.16 2406,-238.16 2413,-238.16"/>
</a>
</g>
</g>
<!-- Node5 -->
<g id="Node000005" class="node">
<title>Node5</title>
<g id="a_Node000005"><a xlink:href="_connection_error_enum_8hpp.html" target="_top" xlink:title=" ">
<polygon fill="white" stroke="#666666" points="2349,-162 2182,-162 2182,-132 2349,-132 2349,-162"/>
<text text-anchor="start" x="2190" y="-150" font-family="Helvetica,sans-Serif" font-size="10.00">Hermes/_base/ConnectionError</text>
<text text-anchor="middle" x="2265.5" y="-139" font-family="Helvetica,sans-Serif" font-size="10.00">Enum.hpp</text>
</a>
</g>
</g>
<!-- Node4&#45;&gt;Node5 -->
<g id="edge4_Node000004_Node000005" class="edge">
<title>Node4&#45;&gt;Node5</title>
<g id="a_edge4_Node000004_Node000005"><a xlink:title=" ">
<path fill="none" stroke="#63b8ff" d="M2192.36,-197.8C2205.26,-189.01 2222.01,-177.61 2236.23,-167.93"/>
<polygon fill="#63b8ff" stroke="#63b8ff" points="2238.4,-170.69 2244.7,-162.16 2234.46,-164.9 2238.4,-170.69"/>
</a>
</g>
</g>
<!-- Node11 -->
<g id="Node000011" class="node">
<title>Node11</title>
<g id="a_Node000011"><a xlink:href="_os_api_8hpp.html" target="_top" xlink:title=" ">
<polygon fill="white" stroke="#666666" points="1396.5,-162 1278.5,-162 1278.5,-132 1396.5,-132 1396.5,-162"/>
<text text-anchor="start" x="1286.5" y="-150" font-family="Helvetica,sans-Serif" font-size="10.00">Hermes/_base/OsApi</text>
<text text-anchor="middle" x="1337.5" y="-139" font-family="Helvetica,sans-Serif" font-size="10.00">/OsApi.hpp</text>
</a>
</g>
</g>
<!-- Node4&#45;&gt;Node11 -->
<g id="edge10_Node000004_Node000011" class="edge">
<title>Node4&#45;&gt;Node11</title>
<g id="a_edge10_Node000004_Node000011"><a xlink:title=" ">
<path fill="none" stroke="#63b8ff" d="M2105.31,-199.2C2102.34,-198.77 2099.39,-198.36 2096.5,-198 1843.66,-166.19 1540.73,-153.92 1406.89,-149.82"/>
<polygon fill="#63b8ff" stroke="#63b8ff" points="1406.88,-146.31 1396.78,-149.51 1406.67,-153.31 1406.88,-146.31"/>
</a>
</g>
</g>
<!-- Node6 -->
<g id="Node000006" class="node">
<title>Node6</title>
<g id="a_Node000006"><a xlink:title=" ">
<polygon fill="#e0e0e0" stroke="#999999" points="2818.5,-85 2756.5,-85 2756.5,-66 2818.5,-66 2818.5,-85"/>
<text text-anchor="middle" x="2787.5" y="-73" font-family="Helvetica,sans-Serif" font-size="10.00">expected</text>
</a>
</g>
</g>
<!-- Node5&#45;&gt;Node6 -->
<g id="edge5_Node000005_Node000006" class="edge">
<title>Node5&#45;&gt;Node6</title>
<g id="a_edge5_Node000005_Node000006"><a xlink:title=" ">
<path fill="none" stroke="#63b8ff" d="M2349.21,-133.05C2352,-132.68 2354.77,-132.33 2357.5,-132 2530.73,-110.86 2580.67,-143.85 2748.5,-96 2753.82,-94.48 2759.29,-92.24 2764.38,-89.81"/>
<polygon fill="#63b8ff" stroke="#63b8ff" points="2766.3,-92.76 2773.57,-85.05 2763.08,-86.54 2766.3,-92.76"/>
</a>
</g>
</g>
<!-- Node7 -->
<g id="Node000007" class="node">
<title>Node7</title>
<g id="a_Node000007"><a xlink:title=" ">
<polygon fill="#e0e0e0" stroke="#999999" points="2884,-85 2837,-85 2837,-66 2884,-66 2884,-85"/>
<text text-anchor="middle" x="2860.5" y="-73" font-family="Helvetica,sans-Serif" font-size="10.00">vector</text>
</a>
</g>
</g>
<!-- Node5&#45;&gt;Node7 -->
<g id="edge6_Node000005_Node000007" class="edge">
<title>Node5&#45;&gt;Node7</title>
<g id="a_edge6_Node000005_Node000007"><a xlink:title=" ">
<path fill="none" stroke="#63b8ff" d="M2349.2,-132.99C2352,-132.64 2354.77,-132.31 2357.5,-132 2565.65,-108.22 2627.67,-158.93 2827.5,-96 2831.78,-94.65 2836.1,-92.66 2840.14,-90.45"/>
<polygon fill="#63b8ff" stroke="#63b8ff" points="2842.17,-93.31 2848.9,-85.13 2838.54,-87.33 2842.17,-93.31"/>
</a>
</g>
</g>
<!-- Node5&#45;&gt;Node8 -->
<g id="edge7_Node000005_Node000008" class="edge">
<title>Node5&#45;&gt;Node8</title>
<g id="a_edge7_Node000005_Node000008"><a xlink:title=" ">
<path fill="none" stroke="#63b8ff" d="M2349.2,-132.96C2352,-132.62 2354.77,-132.3 2357.5,-132 2476.17,-119.01 2780.54,-134.63 2893.5,-96 2897.16,-94.75 2900.8,-92.91 2904.19,-90.86"/>
<polygon fill="#63b8ff" stroke="#63b8ff" points="2906.21,-93.71 2912.47,-85.17 2902.25,-87.94 2906.21,-93.71"/>
</a>
</g>
</g>
<!-- Node5&#45;&gt;Node9 -->
<g id="edge8_Node000005_Node000009" class="edge">
<title>Node5&#45;&gt;Node9</title>
<g id="a_edge8_Node000005_Node000009"><a xlink:title=" ">
<path fill="none" stroke="#63b8ff" d="M2181.95,-144.6C1800.37,-138.15 237.33,-110.91 134.5,-96 122.41,-94.25 109.45,-91.14 97.9,-87.91"/>
<polygon fill="#63b8ff" stroke="#63b8ff" points="98.76,-84.51 88.18,-85.07 96.8,-91.23 98.76,-84.51"/>
</a>
</g>
</g>
<!-- Node10 -->
<g id="Node000010" class="node">
<title>Node10</title>
<g id="a_Node000010"><a xlink:title=" ">
<polygon fill="#e0e0e0" stroke="#999999" points="2739,-90.5 2572,-90.5 2572,-60.5 2739,-60.5 2739,-90.5"/>
<text text-anchor="start" x="2580" y="-78.5" font-family="Helvetica,sans-Serif" font-size="10.00">Hermes/_base/ConnectionError</text>
<text text-anchor="middle" x="2655.5" y="-67.5" font-family="Helvetica,sans-Serif" font-size="10.00">Enum.tpp</text>
</a>
</g>
</g>
<!-- Node5&#45;&gt;Node10 -->
<g id="edge9_Node000005_Node000010" class="edge">
<title>Node5&#45;&gt;Node10</title>
<g id="a_edge9_Node000005_Node000010"><a xlink:title=" ">
<path fill="none" stroke="#63b8ff" d="M2349.19,-132.82C2408.78,-123.22 2490.7,-109.57 2562.5,-96 2568.26,-94.91 2574.22,-93.75 2580.2,-92.55"/>
<polygon fill="#63b8ff" stroke="#63b8ff" points="2581.16,-95.93 2590.27,-90.52 2579.78,-89.07 2581.16,-95.93"/>
</a>
</g>
</g>
<!-- Node12 -->
<g id="Node000012" class="node">
<title>Node12</title>
<g id="a_Node000012"><a xlink:title=" ">
<polygon fill="#e0e0e0" stroke="#999999" points="2339,-19 2262,-19 2262,0 2339,0 2339,-19"/>
<text text-anchor="middle" x="2300.5" y="-7" font-family="Helvetica,sans-Serif" font-size="10.00">sys/socket.h</text>
</a>
</g>
</g>
<!-- Node11&#45;&gt;Node12 -->
<g id="edge11_Node000011_Node000012" class="edge">
<title>Node11&#45;&gt;Node12</title>
<g id="a_edge11_Node000011_Node000012"><a xlink:title=" ">
<path fill="none" stroke="#63b8ff" d="M1396.7,-145.42C1613.62,-142.99 2354.09,-132.09 2388.5,-96 2401.08,-82.81 2398.04,-70.52 2388.5,-55 2379.05,-39.64 2362.48,-29.39 2346.25,-22.64"/>
<polygon fill="#63b8ff" stroke="#63b8ff" points="2347.38,-19.32 2336.79,-19.06 2344.9,-25.87 2347.38,-19.32"/>
</a>
</g>
</g>
<!-- Node13 -->
<g id="Node000013" class="node">
<title>Node13</title>
<g id="a_Node000013"><a xlink:title=" ">
<polygon fill="#e0e0e0" stroke="#999999" points="662.5,-19 590.5,-19 590.5,0 662.5,0 662.5,-19"/>
<text text-anchor="middle" x="626.5" y="-7" font-family="Helvetica,sans-Serif" font-size="10.00">netinet/in.h</text>
</a>
</g>
</g>
<!-- Node11&#45;&gt;Node13 -->
<g id="edge12_Node000011_Node000013" class="edge">
<title>Node11&#45;&gt;Node13</title>
<g id="a_edge12_Node000011_Node000013"><a xlink:title=" ">
<path fill="none" stroke="#63b8ff" d="M1278.34,-143.37C1095.85,-135.1 553.13,-109.45 540.5,-96 528.02,-82.72 531.03,-70.57 540.5,-55 549.69,-39.9 565.84,-29.69 581.69,-22.91"/>
<polygon fill="#63b8ff" stroke="#63b8ff" points="583.4,-26 591.45,-19.12 580.86,-19.48 583.4,-26"/>
</a>
</g>
</g>
<!-- Node14 -->
<g id="Node000014" class="node">
<title>Node14</title>
<g id="a_Node000014"><a xlink:title=" ">
<polygon fill="#e0e0e0" stroke="#999999" points="619,-85 550,-85 550,-66 619,-66 619,-85"/>
<text text-anchor="middle" x="584.5" y="-73" font-family="Helvetica,sans-Serif" font-size="10.00">arpa/inet.h</text>
</a>
</g>
</g>
<!-- Node11&#45;&gt;Node14 -->
<g id="edge13_Node000011_Node000014" class="edge">
<title>Node11&#45;&gt;Node14</title>
<g id="a_edge13_Node000011_Node000014"><a xlink:title=" ">
<path fill="none" stroke="#63b8ff" d="M1278.26,-143.03C1119.05,-134.9 689.75,-111.76 627.5,-96 621.39,-94.45 615.07,-92.08 609.22,-89.51"/>
<polygon fill="#63b8ff" stroke="#63b8ff" points="610.48,-86.23 599.94,-85.12 607.48,-92.56 610.48,-86.23"/>
</a>
</g>
</g>
<!-- Node15 -->
<g id="Node000015" class="node">
<title>Node15</title>
<g id="a_Node000015"><a xlink:title=" ">
<polygon fill="#e0e0e0" stroke="#999999" points="292,-19 239,-19 239,0 292,0 292,-19"/>
<text text-anchor="middle" x="265.5" y="-7" font-family="Helvetica,sans-Serif" font-size="10.00">netdb.h</text>
</a>
</g>
</g>
<!-- Node11&#45;&gt;Node15 -->
<g id="edge14_Node000011_Node000015" class="edge">
<title>Node11&#45;&gt;Node15</title>
<g id="a_edge14_Node000011_Node000015"><a xlink:title=" ">
<path fill="none" stroke="#63b8ff" d="M1278.43,-143.71C1066.49,-135.39 355.65,-106.76 334.5,-96 326.81,-92.09 295.54,-51.01 277.85,-27.25"/>
<polygon fill="#63b8ff" stroke="#63b8ff" points="280.58,-25.05 271.81,-19.1 274.95,-29.22 280.58,-25.05"/>
</a>
</g>
</g>
<!-- Node16 -->
<g id="Node000016" class="node">
<title>Node16</title>
<g id="a_Node000016"><a xlink:title=" ">
<polygon fill="#e0e0e0" stroke="#999999" points="1096.5,-85 1040.5,-85 1040.5,-66 1096.5,-66 1096.5,-85"/>
<text text-anchor="middle" x="1068.5" y="-73" font-family="Helvetica,sans-Serif" font-size="10.00">unistd.h</text>
</a>
</g>
</g>
<!-- Node11&#45;&gt;Node16 -->
<g id="edge15_Node000011_Node000016" class="edge">
<title>Node11&#45;&gt;Node16</title>
<g id="a_edge15_Node000011_Node000016"><a xlink:title=" ">
<path fill="none" stroke="#63b8ff" d="M1278.1,-137.78C1230.47,-130.11 1162.42,-116.69 1105.5,-96 1100.8,-94.29 1095.95,-92.09 1091.37,-89.79"/>
<polygon fill="#63b8ff" stroke="#63b8ff" points="1092.96,-86.67 1082.49,-85.04 1089.66,-92.84 1092.96,-86.67"/>
</a>
</g>
</g>
<!-- Node17 -->
<g id="Node000017" class="node">
<title>Node17</title>
<g id="a_Node000017"><a xlink:href="_types_8hpp.html" target="_top" xlink:title=" ">
<polygon fill="white" stroke="#666666" points="1232.5,-90.5 1114.5,-90.5 1114.5,-60.5 1232.5,-60.5 1232.5,-90.5"/>
<text text-anchor="start" x="1122.5" y="-78.5" font-family="Helvetica,sans-Serif" font-size="10.00">Hermes/_base/OsApi</text>
<text text-anchor="middle" x="1173.5" y="-67.5" font-family="Helvetica,sans-Serif" font-size="10.00">/Types.hpp</text>
</a>
</g>
</g>
<!-- Node11&#45;&gt;Node17 -->
<g id="edge16_Node000011_Node000017" class="edge">
<title>Node11&#45;&gt;Node17</title>
<g id="a_edge16_Node000011_Node000017"><a xlink:title=" ">
<path fill="none" stroke="#63b8ff" d="M1304.31,-131.94C1278.86,-121.15 1243.54,-106.18 1216.02,-94.52"/>
<polygon fill="#63b8ff" stroke="#63b8ff" points="1217.21,-91.22 1206.64,-90.54 1214.48,-97.67 1217.21,-91.22"/>
</a>
</g>
</g>
<!-- Node18 -->
<g id="Node000018" class="node">
<title>Node18</title>
<g id="a_Node000018"><a xlink:href="_conversion_and_literals_8hpp.html" target="_top" xlink:title=" ">
<polygon fill="white" stroke="#666666" points="493.5,-90.5 343.5,-90.5 343.5,-60.5 493.5,-60.5 493.5,-90.5"/>
<text text-anchor="start" x="351.5" y="-78.5" font-family="Helvetica,sans-Serif" font-size="10.00">Hermes/_base/OsApi</text>
<text text-anchor="middle" x="418.5" y="-67.5" font-family="Helvetica,sans-Serif" font-size="10.00">/ConversionAndLiterals.hpp</text>
</a>
</g>
</g>
<!-- Node11&#45;&gt;Node18 -->
<g id="edge17_Node000011_Node000018" class="edge">
<title>Node11&#45;&gt;Node18</title>
<g id="a_edge17_Node000011_Node000018"><a xlink:title=" ">
<path fill="none" stroke="#63b8ff" d="M1278.37,-143.64C1114.48,-136.89 656.74,-116.72 507.5,-96 500.66,-95.05 493.56,-93.86 486.49,-92.53"/>
<polygon fill="#63b8ff" stroke="#63b8ff" points="486.68,-89 476.19,-90.51 485.33,-95.87 486.68,-89"/>
</a>
</g>
</g>
<!-- Node20 -->
<g id="Node000020" class="node">
<title>Node20</title>
<g id="a_Node000020"><a xlink:href="_macros_8hpp.html" target="_top" xlink:title=" ">
<polygon fill="white" stroke="#666666" points="2553.5,-90.5 2435.5,-90.5 2435.5,-60.5 2553.5,-60.5 2553.5,-90.5"/>
<text text-anchor="start" x="2443.5" y="-78.5" font-family="Helvetica,sans-Serif" font-size="10.00">Hermes/_base/OsApi</text>
<text text-anchor="middle" x="2494.5" y="-67.5" font-family="Helvetica,sans-Serif" font-size="10.00">/Macros.hpp</text>
</a>
</g>
</g>
<!-- Node11&#45;&gt;Node20 -->
<g id="edge19_Node000011_Node000020" class="edge">
<title>Node11&#45;&gt;Node20</title>
<g id="a_edge19_Node000011_Node000020"><a xlink:title=" ">
<path fill="none" stroke="#63b8ff" d="M1396.61,-144.95C1592.81,-141.19 2221.36,-126.98 2421.5,-96 2426.85,-95.17 2432.37,-94.11 2437.86,-92.9"/>
<polygon fill="#63b8ff" stroke="#63b8ff" points="2438.76,-96.28 2447.69,-90.59 2437.16,-89.47 2438.76,-96.28"/>
</a>
</g>
</g>
<!-- Node22 -->
<g id="Node000022" class="node">
<title>Node22</title>
<g id="a_Node000022"><a xlink:href="_address_family_enum_8hpp.html" target="_top" xlink:title=" ">
<polygon fill="white" stroke="#666666" points="1022.5,-90.5 846.5,-90.5 846.5,-60.5 1022.5,-60.5 1022.5,-90.5"/>
<text text-anchor="start" x="854.5" y="-78.5" font-family="Helvetica,sans-Serif" font-size="10.00">Hermes/_base/OsApi</text>
<text text-anchor="middle" x="934.5" y="-67.5" font-family="Helvetica,sans-Serif" font-size="10.00">/Enums/AddressFamilyEnum.hpp</text>
</a>
</g>
</g>
<!-- Node11&#45;&gt;Node22 -->
<g id="edge22_Node000011_Node000022" class="edge">
<title>Node11&#45;&gt;Node22</title>
<g id="a_edge22_Node000011_Node000022"><a xlink:title=" ">
<path fill="none" stroke="#63b8ff" d="M1278.44,-137C1216.73,-127.45 1117.16,-111.6 1031.5,-96 1025.35,-94.88 1018.98,-93.68 1012.58,-92.45"/>
<polygon fill="#63b8ff" stroke="#63b8ff" points="1013.02,-88.97 1002.54,-90.5 1011.69,-95.85 1013.02,-88.97"/>
</a>
</g>
</g>
<!-- Node23 -->
<g id="Node000023" class="node">
<title>Node23</title>
<g id="a_Node000023"><a xlink:href="_protocol_base_type_enum_8hpp.html" target="_top" xlink:title=" ">
<polygon fill="white" stroke="#666666" points="828,-90.5 637,-90.5 637,-60.5 828,-60.5 828,-90.5"/>
<text text-anchor="start" x="645" y="-78.5" font-family="Helvetica,sans-Serif" font-size="10.00">Hermes/_base/OsApi</text>
<text text-anchor="middle" x="732.5" y="-67.5" font-family="Helvetica,sans-Serif" font-size="10.00">/Enums/ProtocolBaseTypeEnum.hpp</text>
</a>
</g>
</g>
<!-- Node11&#45;&gt;Node23 -->
<g id="edge24_Node000011_Node000023" class="edge">
<title>Node11&#45;&gt;Node23</title>
<g id="a_edge24_Node000011_Node000023"><a xlink:title=" ">
<path fill="none" stroke="#63b8ff" d="M1278.42,-141.71C1184.68,-134.53 996.2,-118.63 837.5,-96 829.67,-94.88 821.53,-93.6 813.41,-92.23"/>
<polygon fill="#63b8ff" stroke="#63b8ff" points="813.98,-88.78 803.53,-90.53 812.79,-95.67 813.98,-88.78"/>
</a>
</g>
</g>
<!-- Node24 -->
<g id="Node000024" class="node">
<title>Node24</title>
<g id="a_Node000024"><a xlink:href="_socket_shutdown_enum_8hpp.html" target="_top" xlink:title=" ">
<polygon fill="white" stroke="#666666" points="1627,-90.5 1442,-90.5 1442,-60.5 1627,-60.5 1627,-90.5"/>
<text text-anchor="start" x="1450" y="-78.5" font-family="Helvetica,sans-Serif" font-size="10.00">Hermes/_base/OsApi</text>
<text text-anchor="middle" x="1534.5" y="-67.5" font-family="Helvetica,sans-Serif" font-size="10.00">/Enums/SocketShutdownEnum.hpp</text>
</a>
</g>
</g>
<!-- Node11&#45;&gt;Node24 -->
<g id="edge26_Node000011_Node000024" class="edge">
<title>Node11&#45;&gt;Node24</title>
<g id="a_edge26_Node000011_Node000024"><a xlink:title=" ">
<path fill="none" stroke="#63b8ff" d="M1377.37,-131.94C1408.47,-120.96 1451.85,-105.66 1485.15,-93.91"/>
<polygon fill="#63b8ff" stroke="#63b8ff" points="1486.43,-97.17 1494.69,-90.54 1484.1,-90.57 1486.43,-97.17"/>
</a>
</g>
</g>
<!-- Node25 -->
<g id="Node000025" class="node">
<title>Node25</title>
<g id="a_Node000025"><a xlink:href="_socket_type_enum_8hpp.html" target="_top" xlink:title=" ">
<polygon fill="white" stroke="#666666" points="2380,-90.5 2221,-90.5 2221,-60.5 2380,-60.5 2380,-90.5"/>
<text text-anchor="start" x="2229" y="-78.5" font-family="Helvetica,sans-Serif" font-size="10.00">Hermes/_base/OsApi</text>
<text text-anchor="middle" x="2300.5" y="-67.5" font-family="Helvetica,sans-Serif" font-size="10.00">/Enums/SocketTypeEnum.hpp</text>
</a>
</g>
</g>
<!-- Node11&#45;&gt;Node25 -->
<g id="edge28_Node000011_Node000025" class="edge">
<title>Node11&#45;&gt;Node25</title>
<g id="a_edge28_Node000011_Node000025"><a xlink:title=" ">
<path fill="none" stroke="#63b8ff" d="M1396.71,-145.89C1538.35,-144.93 1907.67,-138.2 2212.5,-96 2219.27,-95.06 2226.29,-93.88 2233.28,-92.56"/>
<polygon fill="#63b8ff" stroke="#63b8ff" points="2234.34,-95.92 2243.46,-90.54 2232.97,-89.05 2234.34,-95.92"/>
</a>
</g>
</g>
<!-- Node26 -->
<g id="Node000026" class="node">
<title>Node26</title>
<g id="a_Node000026"><a xlink:href="_linux_2_encrypt_status_enum_8hpp.html" target="_top" xlink:title=" ">
<polygon fill="white" stroke="#666666" points="1797.5,-96 1645.5,-96 1645.5,-55 1797.5,-55 1797.5,-96"/>
<text text-anchor="start" x="1653.5" y="-84" font-family="Helvetica,sans-Serif" font-size="10.00">Hermes/_base/OsApi</text>
<text text-anchor="start" x="1653.5" y="-73" font-family="Helvetica,sans-Serif" font-size="10.00">/Enums/Linux/EncryptStatus</text>
<text text-anchor="middle" x="1721.5" y="-62" font-family="Helvetica,sans-Serif" font-size="10.00">Enum.hpp</text>
</a>
</g>
</g>
<!-- Node11&#45;&gt;Node26 -->
<g id="edge30_Node000011_Node000026" class="edge">
<title>Node11&#45;&gt;Node26</title>
<g id="a_edge30_Node000011_Node000026"><a xlink:title=" ">
<path fill="none" stroke="#63b8ff" d="M1396.77,-137.07C1454.85,-128.09 1546.13,-113.37 1635.12,-96.02"/>
<polygon fill="#63b8ff" stroke="#63b8ff" points="1635.98,-99.42 1645.12,-94.06 1634.63,-92.55 1635.98,-99.42"/>
</a>
</g>
</g>
<!-- Node27 -->
<g id="Node000027" class="node">
<title>Node27</title>
<g id="a_Node000027"><a xlink:href="_name_info_flags_8hpp.html" target="_top" xlink:title=" ">
<polygon fill="white" stroke="#666666" points="287.5,-90.5 143.5,-90.5 143.5,-60.5 287.5,-60.5 287.5,-90.5"/>
<text text-anchor="start" x="151.5" y="-78.5" font-family="Helvetica,sans-Serif" font-size="10.00">Hermes/_base/OsApi</text>
<text text-anchor="middle" x="215.5" y="-67.5" font-family="Helvetica,sans-Serif" font-size="10.00">/Flags/NameInfoFlags.hpp</text>
</a>
</g>
</g>
<!-- Node11&#45;&gt;Node27 -->
<g id="edge31_Node000011_Node000027" class="edge">
<title>Node11&#45;&gt;Node27</title>
<g id="a_edge31_Node000011_Node000027"><a xlink:title=" ">
<path fill="none" stroke="#63b8ff" d="M1278.37,-143.75C1073.04,-135.86 398.12,-109.18 301.5,-96 294.77,-95.08 287.8,-93.9 280.86,-92.57"/>
<polygon fill="#63b8ff" stroke="#63b8ff" points="281.25,-89.07 270.75,-90.52 279.86,-95.93 281.25,-89.07"/>
</a>
</g>
</g>
<!-- Node28 -->
<g id="Node000028" class="node">
<title>Node28</title>
<g id="a_Node000028"><a xlink:href="_linux_2_credential_flags_8hpp.html" target="_top" xlink:title=" ">
<polygon fill="white" stroke="#666666" points="2203.5,-90.5 2027.5,-90.5 2027.5,-60.5 2203.5,-60.5 2203.5,-90.5"/>
<text text-anchor="start" x="2035.5" y="-78.5" font-family="Helvetica,sans-Serif" font-size="10.00">Hermes/_base/OsApi</text>
<text text-anchor="middle" x="2115.5" y="-67.5" font-family="Helvetica,sans-Serif" font-size="10.00">/Flags/Linux/CredentialFlags.hpp</text>
</a>
</g>
</g>
<!-- Node11&#45;&gt;Node28 -->
<g id="edge33_Node000011_Node000028" class="edge">
<title>Node11&#45;&gt;Node28</title>
<g id="a_edge33_Node000011_Node000028"><a xlink:title=" ">
<path fill="none" stroke="#63b8ff" d="M1396.51,-144.15C1514.93,-139.9 1789.76,-127.26 2018.5,-96 2026.04,-94.97 2033.87,-93.71 2041.67,-92.34"/>
<polygon fill="#63b8ff" stroke="#63b8ff" points="2042.31,-95.78 2051.51,-90.54 2041.05,-88.89 2042.31,-95.78"/>
</a>
</g>
</g>
<!-- Node29 -->
<g id="Node000029" class="node">
<title>Node29</title>
<g id="a_Node000029"><a xlink:href="_linux_2_supported_protocols_flags_8hpp.html" target="_top" xlink:title=" ">
<polygon fill="white" stroke="#666666" points="1424,-96 1251,-96 1251,-55 1424,-55 1424,-96"/>
<text text-anchor="start" x="1259" y="-84" font-family="Helvetica,sans-Serif" font-size="10.00">Hermes/_base/OsApi</text>
<text text-anchor="start" x="1259" y="-73" font-family="Helvetica,sans-Serif" font-size="10.00">/Flags/Linux/SupportedProtocols</text>
<text text-anchor="middle" x="1337.5" y="-62" font-family="Helvetica,sans-Serif" font-size="10.00">Flags.hpp</text>
</a>
</g>
</g>
<!-- Node11&#45;&gt;Node29 -->
<g id="edge34_Node000011_Node000029" class="edge">
<title>Node11&#45;&gt;Node29</title>
<g id="a_edge34_Node000011_Node000029"><a xlink:title=" ">
<path fill="none" stroke="#63b8ff" d="M1337.5,-131.94C1337.5,-124.52 1337.5,-115.14 1337.5,-106.2"/>
<polygon fill="#63b8ff" stroke="#63b8ff" points="1341,-106.07 1337.5,-96.07 1334,-106.07 1341,-106.07"/>
</a>
</g>
</g>
<!-- Node30 -->
<g id="Node000030" class="node">
<title>Node30</title>
<g id="a_Node000030"><a xlink:href="_linux_2_s_channel_cred_flags_8hpp.html" target="_top" xlink:title=" ">
<polygon fill="white" stroke="#666666" points="2009.5,-90.5 1815.5,-90.5 1815.5,-60.5 2009.5,-60.5 2009.5,-90.5"/>
<text text-anchor="start" x="1823.5" y="-78.5" font-family="Helvetica,sans-Serif" font-size="10.00">Hermes/_base/OsApi</text>
<text text-anchor="middle" x="1912.5" y="-67.5" font-family="Helvetica,sans-Serif" font-size="10.00">/Flags/Linux/SChannelCredFlags.hpp</text>
</a>
</g>
</g>
<!-- Node11&#45;&gt;Node30 -->
<g id="edge35_Node000011_Node000030" class="edge">
<title>Node11&#45;&gt;Node30</title>
<g id="a_edge35_Node000011_Node000030"><a xlink:title=" ">
<path fill="none" stroke="#63b8ff" d="M1396.54,-141.15C1485.63,-133.51 1659.62,-117.31 1806.5,-96 1814.33,-94.86 1822.47,-93.57 1830.6,-92.2"/>
<polygon fill="#63b8ff" stroke="#63b8ff" points="1831.23,-95.65 1840.49,-90.5 1830.04,-88.75 1831.23,-95.65"/>
</a>
</g>
</g>
<!-- Node19 -->
<g id="Node000019" class="node">
<title>Node19</title>
<g id="a_Node000019"><a xlink:title=" ">
<polygon fill="#e0e0e0" stroke="#999999" points="443.5,-19 393.5,-19 393.5,0 443.5,0 443.5,-19"/>
<text text-anchor="middle" x="418.5" y="-7" font-family="Helvetica,sans-Serif" font-size="10.00">cstdint</text>
</a>
</g>
</g>
<!-- Node18&#45;&gt;Node19 -->
<g id="edge18_Node000018_Node000019" class="edge">
<title>Node18&#45;&gt;Node19</title>
<g id="a_edge18_Node000018_Node000019"><a xlink:title=" ">
<path fill="none" stroke="#63b8ff" d="M418.5,-60.3C418.5,-51.2 418.5,-39.29 418.5,-29.4"/>
<polygon fill="#63b8ff" stroke="#63b8ff" points="422,-29.34 418.5,-19.34 415,-29.34 422,-29.34"/>
</a>
</g>
</g>
<!-- Node20&#45;&gt;Node12 -->
<g id="edge21_Node000020_Node000012" class="edge">
<title>Node20&#45;&gt;Node12</title>
<g id="a_edge21_Node000020_Node000012"><a xlink:title=" ">
<path fill="none" stroke="#63b8ff" d="M2451.93,-60.45C2417.15,-48.98 2368.59,-32.96 2335.91,-22.18"/>
<polygon fill="#63b8ff" stroke="#63b8ff" points="2336.91,-18.83 2326.32,-19.02 2334.72,-25.47 2336.91,-18.83"/>
</a>
</g>
</g>
<!-- Node21 -->
<g id="Node000021" class="node">
<title>Node21</title>
<g id="a_Node000021"><a xlink:title=" ">
<polygon fill="#e0e0e0" stroke="#999999" points="2531,-19 2458,-19 2458,0 2531,0 2531,-19"/>
<text text-anchor="middle" x="2494.5" y="-7" font-family="Helvetica,sans-Serif" font-size="10.00">string_view</text>
</a>
</g>
</g>
<!-- Node20&#45;&gt;Node21 -->
<g id="edge20_Node000020_Node000021" class="edge">
<title>Node20&#45;&gt;Node21</title>
<g id="a_edge20_Node000020_Node000021"><a xlink:title=" ">
<path fill="none" stroke="#63b8ff" d="M2494.5,-60.3C2494.5,-51.2 2494.5,-39.29 2494.5,-29.4"/>
<polygon fill="#63b8ff" stroke="#63b8ff" points="2498,-29.34 2494.5,-19.34 2491,-29.34 2498,-29.34"/>
</a>
</g>
</g>
<!-- Node22&#45;&gt;Node12 -->
<g id="edge23_Node000022_Node000012" class="edge">
<title>Node22&#45;&gt;Node12</title>
<g id="a_edge23_Node000022_Node000012"><a xlink:title=" ">
<path fill="none" stroke="#63b8ff" d="M996.35,-60.5C1007.98,-58.31 1020.07,-56.34 1031.5,-55 1274.41,-26.52 2049.61,-13.98 2251.86,-11.14"/>
<polygon fill="#63b8ff" stroke="#63b8ff" points="2251.93,-14.64 2261.88,-11 2251.84,-7.64 2251.93,-14.64"/>
</a>
</g>
</g>
<!-- Node23&#45;&gt;Node13 -->
<g id="edge25_Node000023_Node000013" class="edge">
<title>Node23&#45;&gt;Node13</title>
<g id="a_edge25_Node000023_Node000013"><a xlink:title=" ">
<path fill="none" stroke="#63b8ff" d="M709.24,-60.45C691.39,-49.68 666.88,-34.88 649.17,-24.19"/>
<polygon fill="#63b8ff" stroke="#63b8ff" points="650.98,-21.19 640.61,-19.02 647.36,-27.18 650.98,-21.19"/>
</a>
</g>
</g>
<!-- Node24&#45;&gt;Node12 -->
<g id="edge27_Node000024_Node000012" class="edge">
<title>Node24&#45;&gt;Node12</title>
<g id="a_edge27_Node000024_Node000012"><a xlink:title=" ">
<path fill="none" stroke="#63b8ff" d="M1601.52,-60.48C1613.15,-58.4 1625.15,-56.46 1636.5,-55 1865.46,-25.55 2141.5,-14.96 2251.66,-11.73"/>
<polygon fill="#63b8ff" stroke="#63b8ff" points="2251.9,-15.23 2261.79,-11.44 2251.7,-8.23 2251.9,-15.23"/>
</a>
</g>
</g>
<!-- Node25&#45;&gt;Node12 -->
<g id="edge29_Node000025_Node000012" class="edge">
<title>Node25&#45;&gt;Node12</title>
<g id="a_edge29_Node000025_Node000012"><a xlink:title=" ">
<path fill="none" stroke="#63b8ff" d="M2300.5,-60.3C2300.5,-51.2 2300.5,-39.29 2300.5,-29.4"/>
<polygon fill="#63b8ff" stroke="#63b8ff" points="2304,-29.34 2300.5,-19.34 2297,-29.34 2304,-29.34"/>
</a>
</g>
</g>
<!-- Node27&#45;&gt;Node15 -->
<g id="edge32_Node000027_Node000015" class="edge">
<title>Node27&#45;&gt;Node15</title>
<g id="a_edge32_Node000027_Node000015"><a xlink:title=" ">
<path fill="none" stroke="#63b8ff" d="M226.6,-60.3C234.16,-50.61 244.22,-37.74 252.21,-27.51"/>
<polygon fill="#63b8ff" stroke="#63b8ff" points="255.19,-29.38 258.59,-19.34 249.68,-25.07 255.19,-29.38"/>
</a>
</g>
</g>
<!-- Node31&#45;&gt;Node7 -->
<g id="edge44_Node000031_Node000007" class="edge">
<title>Node31&#45;&gt;Node7</title>
<g id="a_edge44_Node000031_Node000007"><a xlink:title=" ">
<path fill="none" stroke="#63b8ff" d="M2585.6,-197.9C2552.01,-182.7 2510.12,-157.28 2532.5,-132 2576.28,-82.55 2764.97,-117.25 2827.5,-96 2831.68,-94.58 2835.91,-92.58 2839.89,-90.41"/>
<polygon fill="#63b8ff" stroke="#63b8ff" points="2841.79,-93.35 2848.55,-85.19 2838.18,-87.35 2841.79,-93.35"/>
</a>
</g>
</g>
<!-- Node31&#45;&gt;Node32 -->
<g id="edge37_Node000031_Node000032" class="edge">
<title>Node31&#45;&gt;Node32</title>
<g id="a_edge37_Node000031_Node000032"><a xlink:title=" ">
<path fill="none" stroke="#63b8ff" d="M2699.34,-199.36C2773.58,-187.3 2883.97,-169.37 2952.74,-158.19"/>
<polygon fill="#63b8ff" stroke="#63b8ff" points="2953.68,-161.59 2962.99,-156.53 2952.56,-154.68 2953.68,-161.59"/>
</a>
</g>
</g>
<!-- Node35 -->
<g id="Node000035" class="node">
<title>Node35</title>
<g id="a_Node000035"><a xlink:title=" ">
<polygon fill="#e0e0e0" stroke="#999999" points="2756.5,-156.5 2714.5,-156.5 2714.5,-137.5 2756.5,-137.5 2756.5,-156.5"/>
<text text-anchor="middle" x="2735.5" y="-144.5" font-family="Helvetica,sans-Serif" font-size="10.00">array</text>
</a>
</g>
</g>
<!-- Node31&#45;&gt;Node35 -->
<g id="edge40_Node000031_Node000035" class="edge">
<title>Node31&#45;&gt;Node35</title>
<g id="a_edge40_Node000031_Node000035"><a xlink:title=" ">
<path fill="none" stroke="#63b8ff" d="M2646.52,-197.95C2665.81,-187.13 2692.32,-172.24 2711.38,-161.54"/>
<polygon fill="#63b8ff" stroke="#63b8ff" points="2713.32,-164.46 2720.33,-156.52 2709.9,-158.36 2713.32,-164.46"/>
</a>
</g>
</g>
<!-- Node31&#45;&gt;Node36 -->
<g id="edge41_Node000031_Node000036" class="edge">
<title>Node31&#45;&gt;Node36</title>
<g id="a_edge41_Node000031_Node000036"><a xlink:title=" ">
<path fill="none" stroke="#63b8ff" d="M2586.61,-197.95C2558.72,-186.73 2520.01,-171.15 2493.27,-160.39"/>
<polygon fill="#63b8ff" stroke="#63b8ff" points="2494.24,-157 2483.66,-156.52 2491.63,-163.5 2494.24,-157"/>
</a>
</g>
</g>
<!-- Node37 -->
<g id="Node000037" class="node">
<title>Node37</title>
<g id="a_Node000037"><a xlink:title=" ">
<polygon fill="#e0e0e0" stroke="#999999" points="2826,-156.5 2775,-156.5 2775,-137.5 2826,-137.5 2826,-156.5"/>
<text text-anchor="middle" x="2800.5" y="-144.5" font-family="Helvetica,sans-Serif" font-size="10.00">variant</text>
</a>
</g>
</g>
<!-- Node31&#45;&gt;Node37 -->
<g id="edge42_Node000031_Node000037" class="edge">
<title>Node31&#45;&gt;Node37</title>
<g id="a_edge42_Node000031_Node000037"><a xlink:title=" ">
<path fill="none" stroke="#63b8ff" d="M2663.59,-197.96C2692.4,-188.21 2731.41,-174.73 2765.5,-162 2766.92,-161.47 2768.37,-160.92 2769.82,-160.36"/>
<polygon fill="#63b8ff" stroke="#63b8ff" points="2771.42,-163.5 2779.46,-156.6 2768.87,-156.98 2771.42,-163.5"/>
</a>
</g>
</g>
<!-- Node31&#45;&gt;Node38 -->
<g id="edge43_Node000031_Node000038" class="edge">
<title>Node31&#45;&gt;Node38</title>
<g id="a_edge43_Node000031_Node000038"><a xlink:title=" ">
<path fill="none" stroke="#63b8ff" d="M2561.56,-197.93C2523.93,-188.68 2474.55,-175.77 2431.5,-162 2429.59,-161.39 2427.63,-160.73 2425.66,-160.05"/>
<polygon fill="#63b8ff" stroke="#63b8ff" points="2426.48,-156.63 2415.89,-156.53 2424.11,-163.21 2426.48,-156.63"/>
</a>
</g>
</g>
<!-- Node39 -->
<g id="Node000039" class="node">
<title>Node39</title>
<g id="a_Node000039"><a xlink:title=" ">
<polygon fill="#e0e0e0" stroke="#999999" points="2894.5,-156.5 2844.5,-156.5 2844.5,-137.5 2894.5,-137.5 2894.5,-156.5"/>
<text text-anchor="middle" x="2869.5" y="-144.5" font-family="Helvetica,sans-Serif" font-size="10.00">format</text>
</a>
</g>
</g>
<!-- Node31&#45;&gt;Node39 -->
<g id="edge45_Node000031_Node000039" class="edge">
<title>Node31&#45;&gt;Node39</title>
<g id="a_edge45_Node000031_Node000039"><a xlink:title=" ">
<path fill="none" stroke="#63b8ff" d="M2694.6,-197.97C2736.33,-189.21 2789.36,-176.78 2835.5,-162 2837.17,-161.46 2838.88,-160.88 2840.59,-160.27"/>
<polygon fill="#63b8ff" stroke="#63b8ff" points="2842.2,-163.4 2850.28,-156.54 2839.69,-156.86 2842.2,-163.4"/>
</a>
</g>
</g>
<!-- Node40 -->
<g id="Node000040" class="node">
<title>Node40</title>
<g id="a_Node000040"><a xlink:title=" ">
<polygon fill="#e0e0e0" stroke="#999999" points="2696,-162 2541,-162 2541,-132 2696,-132 2696,-162"/>
<text text-anchor="start" x="2549" y="-150" font-family="Helvetica,sans-Serif" font-size="10.00">Hermes/Endpoint/IpEndpoint</text>
<text text-anchor="middle" x="2618.5" y="-139" font-family="Helvetica,sans-Serif" font-size="10.00">/IpAddress.tpp</text>
</a>
</g>
</g>
<!-- Node31&#45;&gt;Node40 -->
<g id="edge46_Node000031_Node000040" class="edge">
<title>Node31&#45;&gt;Node40</title>
<g id="a_edge46_Node000031_Node000040"><a xlink:title=" ">
<path fill="none" stroke="#63b8ff" d="M2620.83,-197.8C2620.48,-190.34 2620.05,-180.99 2619.64,-172.41"/>
<polygon fill="#63b8ff" stroke="#63b8ff" points="2623.13,-171.99 2619.16,-162.16 2616.14,-172.32 2623.13,-171.99"/>
</a>
</g>
</g>
<!-- Node33 -->
<g id="Node000033" class="node">
<title>Node33</title>
<g id="a_Node000033"><a xlink:title=" ">
<polygon fill="#e0e0e0" stroke="#999999" points="3100,-85 3055,-85 3055,-66 3100,-66 3100,-85"/>
<text text-anchor="middle" x="3077.5" y="-73" font-family="Helvetica,sans-Serif" font-size="10.00">utility</text>
</a>
</g>
</g>
<!-- Node32&#45;&gt;Node33 -->
<g id="edge38_Node000032_Node000033" class="edge">
<title>Node32&#45;&gt;Node33</title>
<g id="a_edge38_Node000032_Node000033"><a xlink:title=" ">
<path fill="none" stroke="#63b8ff" d="M3023.1,-137.48C3033.05,-126.33 3050.68,-106.56 3063.17,-92.56"/>
<polygon fill="#63b8ff" stroke="#63b8ff" points="3065.79,-94.88 3069.84,-85.09 3060.57,-90.22 3065.79,-94.88"/>
</a>
</g>
</g>
<!-- Node34 -->
<g id="Node000034" class="node">
<title>Node34</title>
<g id="a_Node000034"><a xlink:title=" ">
<polygon fill="#e0e0e0" stroke="#999999" points="3037,-85 2972,-85 2972,-66 3037,-66 3037,-85"/>
<text text-anchor="middle" x="3004.5" y="-73" font-family="Helvetica,sans-Serif" font-size="10.00">functional</text>
</a>
</g>
</g>
<!-- Node32&#45;&gt;Node34 -->
<g id="edge39_Node000032_Node000034" class="edge">
<title>Node32&#45;&gt;Node34</title>
<g id="a_edge39_Node000032_Node000034"><a xlink:title=" ">
<path fill="none" stroke="#63b8ff" d="M3014.15,-137.48C3012.5,-127.06 3009.66,-109.11 3007.49,-95.38"/>
<polygon fill="#63b8ff" stroke="#63b8ff" points="3010.88,-94.42 3005.86,-85.09 3003.97,-95.52 3010.88,-94.42"/>
</a>
</g>
</g>
<!-- Node43&#45;&gt;Node4 -->
<g id="edge53_Node000043_Node000004" class="edge">
<title>Node43&#45;&gt;Node4</title>
<g id="a_edge53_Node000043_Node000004"><a xlink:title=" ">
<path fill="none" stroke="#63b8ff" d="M2122.19,-269.37C2129.79,-260.83 2141.74,-247.41 2151.98,-235.92"/>
<polygon fill="#63b8ff" stroke="#63b8ff" points="2154.67,-238.16 2158.71,-228.36 2149.45,-233.5 2154.67,-238.16"/>
</a>
</g>
</g>
<!-- Node43&#45;&gt;Node5 -->
<g id="edge54_Node000043_Node000005" class="edge">
<title>Node43&#45;&gt;Node5</title>
<g id="a_edge54_Node000043_Node000005"><a xlink:title=" ">
<path fill="none" stroke="#63b8ff" d="M2169.91,-269.45C2196.62,-262.56 2227.01,-250.18 2246.5,-228 2259.92,-212.73 2264.29,-189.68 2265.52,-172.24"/>
<polygon fill="#63b8ff" stroke="#63b8ff" points="2269.02,-172.37 2265.94,-162.23 2262.03,-172.08 2269.02,-172.37"/>
</a>
</g>
</g>
<!-- Node43&#45;&gt;Node9 -->
<g id="edge56_Node000043_Node000009" class="edge">
<title>Node43&#45;&gt;Node9</title>
<g id="a_edge56_Node000043_Node000009"><a xlink:title=" ">
<path fill="none" stroke="#63b8ff" d="M2042.9,-273.09C1733.91,-251.63 513.2,-164.16 134.5,-96 122.99,-93.93 110.63,-90.89 99.46,-87.82"/>
<polygon fill="#63b8ff" stroke="#63b8ff" points="100.17,-84.39 89.6,-85.03 98.27,-91.12 100.17,-84.39"/>
</a>
</g>
</g>
<!-- Node43&#45;&gt;Node11 -->
<g id="edge55_Node000043_Node000011" class="edge">
<title>Node43&#45;&gt;Node11</title>
<g id="a_edge55_Node000043_Node000011"><a xlink:title=" ">
<path fill="none" stroke="#63b8ff" d="M2095.51,-269.42C2075.71,-260.17 2044.06,-244.54 2018.5,-228 2000.43,-216.31 2000.54,-205.84 1980.5,-198 1877.53,-157.71 1550.7,-149.83 1406.73,-148.33"/>
<polygon fill="#63b8ff" stroke="#63b8ff" points="1406.72,-144.83 1396.69,-148.23 1406.65,-151.83 1406.72,-144.83"/>
</a>
</g>
</g>
<!-- Node44 -->
<g id="Node000044" class="node">
<title>Node44</title>
<g id="a_Node000044"><a xlink:title=" ">
<polygon fill="#e0e0e0" stroke="#999999" points="2087.5,-222.5 2027.5,-222.5 2027.5,-203.5 2087.5,-203.5 2087.5,-222.5"/>
<text text-anchor="middle" x="2057.5" y="-210.5" font-family="Helvetica,sans-Serif" font-size="10.00">concepts</text>
</a>
</g>
</g>
<!-- Node43&#45;&gt;Node44 -->
<g id="edge57_Node000043_Node000044" class="edge">
<title>Node43&#45;&gt;Node44</title>
<g id="a_edge57_Node000043_Node000044"><a xlink:title=" ">
<path fill="none" stroke="#63b8ff" d="M2106.81,-269.37C2098.02,-259.5 2083.43,-243.11 2072.39,-230.72"/>
<polygon fill="#63b8ff" stroke="#63b8ff" points="2074.7,-228.05 2065.43,-222.91 2069.47,-232.7 2074.7,-228.05"/>
</a>
</g>
</g>
<!-- Node45 -->
<g id="Node000045" class="node">
<title>Node45</title>
<g id="a_Node000045"><a xlink:title=" ">
<polygon fill="#e0e0e0" stroke="#999999" points="1971.5,-222.5 1921.5,-222.5 1921.5,-203.5 1971.5,-203.5 1971.5,-222.5"/>
<text text-anchor="middle" x="1946.5" y="-210.5" font-family="Helvetica,sans-Serif" font-size="10.00">ranges</text>
</a>
</g>
</g>
<!-- Node43&#45;&gt;Node45 -->
<g id="edge58_Node000043_Node000045" class="edge">
<title>Node43&#45;&gt;Node45</title>
<g id="a_edge58_Node000043_Node000045"><a xlink:title=" ">
<path fill="none" stroke="#63b8ff" d="M2091.84,-269.37C2062.7,-258.27 2011.91,-238.92 1978.75,-226.28"/>
<polygon fill="#63b8ff" stroke="#63b8ff" points="1979.66,-222.89 1969.07,-222.6 1977.16,-229.43 1979.66,-222.89"/>
</a>
</g>
</g>
</g>
</svg>
