<?xml version="1.0" encoding="UTF-8" standalone="no"?>
<!DOCTYPE svg PUBLIC "-//W3C//DTD SVG 1.1//EN"
 "http://www.w3.org/Graphics/SVG/1.1/DTD/svg11.dtd">
<!-- Generated by graphviz version 2.43.0 (0)
 -->
<!-- Title: include/Hermes/Endpoint/_base/EndpointConcept.hpp Pages: 1 -->
<svg width="1830pt" height="489pt"
 viewBox="0.00 0.00 1830.00 489.00" xmlns="http://www.w3.org/2000/svg" xmlns:xlink="http://www.w3.org/1999/xlink">
<g id="graph0" class="graph" transform="scale(1 1) rotate(0) translate(4 485)">
<title>include/Hermes/Endpoint/_base/EndpointConcept.hpp</title>
<!-- Node1 -->
<g id="Node000001" class="node">
<title>Node1</title>
<g id="a_Node000001"><a xlink:title=" ">
<polygon fill="#999999" stroke="#666666" points="861,-481 706,-481 706,-451 861,-451 861,-481"/>
<text text-anchor="start" x="714" y="-469" font-family="Helvetica,sans-Serif" font-size="10.00">include/Hermes/Endpoint</text>
<text text-anchor="middle" x="783.5" y="-458" font-family="Helvetica,sans-Serif" font-size="10.00">/_base/EndpointConcept.hpp</text>
</a>
</g>
</g>
<!-- Node2 -->
<g id="Node000002" class="node">
<title>Node2</title>
<g id="a_Node000002"><a xlink:href="_ip_endpoint_8hpp.html" target="_top" xlink:title=" ">
<polygon fill="white" stroke="#666666" points="693,-415 546,-415 546,-385 693,-385 693,-415"/>
<text text-anchor="start" x="554" y="-403" font-family="Helvetica,sans-Serif" font-size="10.00">include/Hermes/Endpoint</text>
<text text-anchor="middle" x="619.5" y="-392" font-family="Helvetica,sans-Serif" font-size="10.00">/IpEndpoint/IpEndpoint.hpp</text>
</a>
</g>
</g>
<!-- Node1&#45;&gt;Node2 -->
<g id="edge1_Node000001_Node000002" class="edge">
<title>Node1&#45;&gt;Node2</title>
<g id="a_edge1_Node000001_Node000002"><a xlink:title=" ">
<path fill="none" stroke="#63b8ff" d="M737.86,-447.19C711.82,-437.02 679.64,-424.47 655.41,-415.01"/>
<polygon fill="#63b8ff" stroke="#63b8ff" points="736.93,-450.58 747.51,-450.95 739.47,-444.06 736.93,-450.58"/>
</a>
</g>
</g>
<!-- Node25 -->
<g id="Node000025" class="node">
<title>Node25</title>
<g id="a_Node000025"><a xlink:href="__base_8hpp.html" target="_top" xlink:title=" ">
<polygon fill="white" stroke="#666666" points="1030.5,-415 902.5,-415 902.5,-385 1030.5,-385 1030.5,-415"/>
<text text-anchor="start" x="910.5" y="-403" font-family="Helvetica,sans-Serif" font-size="10.00">include/Hermes/Socket</text>
<text text-anchor="middle" x="966.5" y="-392" font-family="Helvetica,sans-Serif" font-size="10.00">/_base.hpp</text>
</a>
</g>
</g>
<!-- Node1&#45;&gt;Node25 -->
<g id="edge38_Node000001_Node000025" class="edge">
<title>Node1&#45;&gt;Node25</title>
<g id="a_edge38_Node000001_Node000025"><a xlink:title=" ">
<path fill="none" stroke="#63b8ff" d="M833.29,-447.59C862.54,-437.36 899.05,-424.59 926.44,-415.01"/>
<polygon fill="#63b8ff" stroke="#63b8ff" points="831.95,-444.35 823.66,-450.95 834.26,-450.96 831.95,-444.35"/>
</a>
</g>
</g>
<!-- Node3 -->
<g id="Node000003" class="node">
<title>Node3</title>
<g id="a_Node000003"><a xlink:href="_default_socket_data_8hpp.html" target="_top" xlink:title=" ">
<polygon fill="white" stroke="#666666" points="919.5,-343.5 761.5,-343.5 761.5,-313.5 919.5,-313.5 919.5,-343.5"/>
<text text-anchor="start" x="769.5" y="-331.5" font-family="Helvetica,sans-Serif" font-size="10.00">include/Hermes/Socket</text>
<text text-anchor="middle" x="840.5" y="-320.5" font-family="Helvetica,sans-Serif" font-size="10.00">/Data/DefaultSocketData.hpp</text>
</a>
</g>
</g>
<!-- Node2&#45;&gt;Node3 -->
<g id="edge2_Node000002_Node000003" class="edge">
<title>Node2&#45;&gt;Node3</title>
<g id="a_edge2_Node000002_Node000003"><a xlink:title=" ">
<path fill="none" stroke="#63b8ff" d="M673.98,-381.87C711.47,-370.08 760.67,-354.61 795.85,-343.54"/>
<polygon fill="#63b8ff" stroke="#63b8ff" points="672.72,-378.6 664.23,-384.94 674.82,-385.27 672.72,-378.6"/>
</a>
</g>
</g>
<!-- Node17 -->
<g id="Node000017" class="node">
<title>Node17</title>
<g id="a_Node000017"><a xlink:href="_default_connect_policy_8hpp.html" target="_top" xlink:title=" ">
<polygon fill="white" stroke="#666666" points="719.5,-272 575.5,-272 575.5,-231 719.5,-231 719.5,-272"/>
<text text-anchor="start" x="583.5" y="-260" font-family="Helvetica,sans-Serif" font-size="10.00">include/Hermes/Socket</text>
<text text-anchor="start" x="583.5" y="-249" font-family="Helvetica,sans-Serif" font-size="10.00">/Sync/_base/Connection</text>
<text text-anchor="middle" x="647.5" y="-238" font-family="Helvetica,sans-Serif" font-size="10.00">/DefaultConnectPolicy.hpp</text>
</a>
</g>
</g>
<!-- Node2&#45;&gt;Node17 -->
<g id="edge36_Node000002_Node000017" class="edge">
<title>Node2&#45;&gt;Node17</title>
<g id="a_edge36_Node000002_Node000017"><a xlink:title=" ">
<path fill="none" stroke="#63b8ff" d="M624.1,-374.96C629.58,-346.3 638.63,-298.92 643.72,-272.27"/>
<polygon fill="#63b8ff" stroke="#63b8ff" points="620.63,-374.47 622.19,-384.95 627.5,-375.79 620.63,-374.47"/>
</a>
</g>
</g>
<!-- Node19 -->
<g id="Node000019" class="node">
<title>Node19</title>
<g id="a_Node000019"><a xlink:href="_tls_connect_policy_8hpp.html" target="_top" xlink:title=" ">
<polygon fill="white" stroke="#666666" points="391.5,-195 259.5,-195 259.5,-154 391.5,-154 391.5,-195"/>
<text text-anchor="start" x="267.5" y="-183" font-family="Helvetica,sans-Serif" font-size="10.00">include/Hermes/Socket</text>
<text text-anchor="start" x="267.5" y="-172" font-family="Helvetica,sans-Serif" font-size="10.00">/Sync/_base/Connection</text>
<text text-anchor="middle" x="325.5" y="-161" font-family="Helvetica,sans-Serif" font-size="10.00">/TlsConnectPolicy.hpp</text>
</a>
</g>
</g>
<!-- Node2&#45;&gt;Node19 -->
<g id="edge37_Node000002_Node000019" class="edge">
<title>Node2&#45;&gt;Node19</title>
<g id="a_edge37_Node000002_Node000019"><a xlink:title=" ">
<path fill="none" stroke="#63b8ff" d="M535.93,-398.13C379.81,-395.64 56.54,-386.01 22.5,-349 -11.17,-312.39 59.3,-235.58 65.5,-231 95.77,-208.66 192.9,-192.27 259.48,-183.31"/>
<polygon fill="#63b8ff" stroke="#63b8ff" points="535.91,-401.63 545.96,-398.29 536.02,-394.63 535.91,-401.63"/>
</a>
</g>
</g>
<!-- Node22 -->
<g id="Node000022" class="node">
<title>Node22</title>
<g id="a_Node000022"><a xlink:href="_tls_socket_data_8hpp.html" target="_top" xlink:title=" ">
<polygon fill="white" stroke="#666666" points="460,-343.5 323,-343.5 323,-313.5 460,-313.5 460,-343.5"/>
<text text-anchor="start" x="331" y="-331.5" font-family="Helvetica,sans-Serif" font-size="10.00">include/Hermes/Socket</text>
<text text-anchor="middle" x="391.5" y="-320.5" font-family="Helvetica,sans-Serif" font-size="10.00">/Data/TlsSocketData.hpp</text>
</a>
</g>
</g>
<!-- Node2&#45;&gt;Node22 -->
<g id="edge29_Node000002_Node000022" class="edge">
<title>Node2&#45;&gt;Node22</title>
<g id="a_edge29_Node000002_Node000022"><a xlink:title=" ">
<path fill="none" stroke="#63b8ff" d="M563.8,-382.02C525.05,-370.21 474.02,-354.65 437.57,-343.54"/>
<polygon fill="#63b8ff" stroke="#63b8ff" points="562.78,-385.37 573.36,-384.94 564.82,-378.67 562.78,-385.37"/>
</a>
</g>
</g>
<!-- Node4 -->
<g id="Node000004" class="node">
<title>Node4</title>
<g id="a_Node000004"><a xlink:href="_default_async_accept_policy_8hpp.html" target="_top" xlink:title=" ">
<polygon fill="white" stroke="#666666" points="1348,-195 1193,-195 1193,-154 1348,-154 1348,-195"/>
<text text-anchor="start" x="1201" y="-183" font-family="Helvetica,sans-Serif" font-size="10.00">include/Hermes/Socket</text>
<text text-anchor="start" x="1201" y="-172" font-family="Helvetica,sans-Serif" font-size="10.00">/Async/_base/Accept/Default</text>
<text text-anchor="middle" x="1270.5" y="-161" font-family="Helvetica,sans-Serif" font-size="10.00">AsyncAcceptPolicy.hpp</text>
</a>
</g>
</g>
<!-- Node3&#45;&gt;Node4 -->
<g id="edge3_Node000003_Node000004" class="edge">
<title>Node3&#45;&gt;Node4</title>
<g id="a_edge3_Node000003_Node000004"><a xlink:title=" ">
<path fill="none" stroke="#63b8ff" d="M929.98,-322C1022.65,-314.89 1160.03,-299.95 1204.5,-272 1233.55,-253.75 1253.01,-217.54 1262.88,-195.04"/>
<polygon fill="#63b8ff" stroke="#63b8ff" points="929.46,-318.53 919.75,-322.77 929.98,-325.51 929.46,-318.53"/>
</a>
</g>
</g>
<!-- Node8 -->
<g id="Node000008" class="node">
<title>Node8</title>
<g id="a_Node000008"><a xlink:href="_default_async_connect_policy_8hpp.html" target="_top" xlink:title=" ">
<polygon fill="white" stroke="#666666" points="662,-118 489,-118 489,-77 662,-77 662,-118"/>
<text text-anchor="start" x="497" y="-106" font-family="Helvetica,sans-Serif" font-size="10.00">include/Hermes/Socket</text>
<text text-anchor="start" x="497" y="-95" font-family="Helvetica,sans-Serif" font-size="10.00">/Async/_base/Connection</text>
<text text-anchor="middle" x="575.5" y="-84" font-family="Helvetica,sans-Serif" font-size="10.00">/DefaultAsyncConnectPolicy.hpp</text>
</a>
</g>
</g>
<!-- Node3&#45;&gt;Node8 -->
<g id="edge7_Node000003_Node000008" class="edge">
<title>Node3&#45;&gt;Node8</title>
<g id="a_edge7_Node000003_Node000008"><a xlink:title=" ">
<path fill="none" stroke="#63b8ff" d="M811.3,-307.46C797.29,-297.38 780.53,-284.64 766.5,-272 748.05,-255.37 749.13,-244.84 728.5,-231 690.67,-205.61 667.41,-224.29 632.5,-195 607.76,-174.24 591.14,-139.83 582.51,-118.2"/>
<polygon fill="#63b8ff" stroke="#63b8ff" points="809.45,-310.43 819.63,-313.37 813.5,-304.72 809.45,-310.43"/>
</a>
</g>
</g>
<!-- Node11 -->
<g id="Node000011" class="node">
<title>Node11</title>
<g id="a_Node000011"><a xlink:href="_default_async_transfer_policy_8hpp.html" target="_top" xlink:title=" ">
<polygon fill="white" stroke="#666666" points="1723,-195 1550,-195 1550,-154 1723,-154 1723,-195"/>
<text text-anchor="start" x="1558" y="-183" font-family="Helvetica,sans-Serif" font-size="10.00">include/Hermes/Socket</text>
<text text-anchor="start" x="1558" y="-172" font-family="Helvetica,sans-Serif" font-size="10.00">/Async/_base/Transfer</text>
<text text-anchor="middle" x="1636.5" y="-161" font-family="Helvetica,sans-Serif" font-size="10.00">/DefaultAsyncTransferPolicy.hpp</text>
</a>
</g>
</g>
<!-- Node3&#45;&gt;Node11 -->
<g id="edge10_Node000003_Node000011" class="edge">
<title>Node3&#45;&gt;Node11</title>
<g id="a_edge10_Node000003_Node000011"><a xlink:title=" ">
<path fill="none" stroke="#63b8ff" d="M929.95,-317.6C1010.89,-308.04 1133.18,-292.06 1238.5,-272 1353.75,-250.05 1485.77,-216.31 1565.07,-195.09"/>
<polygon fill="#63b8ff" stroke="#63b8ff" points="929.32,-314.15 919.8,-318.79 930.14,-321.1 929.32,-314.15"/>
</a>
</g>
</g>
<!-- Node12 -->
<g id="Node000012" class="node">
<title>Node12</title>
<g id="a_Node000012"><a xlink:href="_default_accept_policy_8hpp.html" target="_top" xlink:title=" ">
<polygon fill="white" stroke="#666666" points="1195.5,-272 1013.5,-272 1013.5,-231 1195.5,-231 1195.5,-272"/>
<text text-anchor="start" x="1021.5" y="-260" font-family="Helvetica,sans-Serif" font-size="10.00">include/Hermes/Socket</text>
<text text-anchor="start" x="1021.5" y="-249" font-family="Helvetica,sans-Serif" font-size="10.00">/Sync/_base/Accept/DefaultAccept</text>
<text text-anchor="middle" x="1104.5" y="-238" font-family="Helvetica,sans-Serif" font-size="10.00">Policy.hpp</text>
</a>
</g>
</g>
<!-- Node3&#45;&gt;Node12 -->
<g id="edge13_Node000003_Node000012" class="edge">
<title>Node3&#45;&gt;Node12</title>
<g id="a_edge13_Node000003_Node000012"><a xlink:title=" ">
<path fill="none" stroke="#63b8ff" d="M899.53,-310.73C939.79,-299.3 993.25,-284.11 1035.49,-272.11"/>
<polygon fill="#63b8ff" stroke="#63b8ff" points="898.51,-307.38 889.85,-313.48 900.43,-314.11 898.51,-307.38"/>
</a>
</g>
</g>
<!-- Node3&#45;&gt;Node17 -->
<g id="edge20_Node000003_Node000017" class="edge">
<title>Node3&#45;&gt;Node17</title>
<g id="a_edge20_Node000003_Node000017"><a xlink:title=" ">
<path fill="none" stroke="#63b8ff" d="M794.68,-309.69C765.54,-298.37 727.81,-283.71 697.84,-272.06"/>
<polygon fill="#63b8ff" stroke="#63b8ff" points="793.61,-313.03 804.2,-313.39 796.15,-306.51 793.61,-313.03"/>
</a>
</g>
</g>
<!-- Node21 -->
<g id="Node000021" class="node">
<title>Node21</title>
<g id="a_Node000021"><a xlink:href="_default_transfer_policy_8hpp.html" target="_top" xlink:title=" ">
<polygon fill="white" stroke="#666666" points="919,-272 776,-272 776,-231 919,-231 919,-272"/>
<text text-anchor="start" x="784" y="-260" font-family="Helvetica,sans-Serif" font-size="10.00">include/Hermes/Socket</text>
<text text-anchor="start" x="784" y="-249" font-family="Helvetica,sans-Serif" font-size="10.00">/Sync/_base/Transfer</text>
<text text-anchor="middle" x="847.5" y="-238" font-family="Helvetica,sans-Serif" font-size="10.00">/DefaultTransferPolicy.hpp</text>
</a>
</g>
</g>
<!-- Node3&#45;&gt;Node21 -->
<g id="edge26_Node000003_Node000021" class="edge">
<title>Node3&#45;&gt;Node21</title>
<g id="a_edge26_Node000003_Node000021"><a xlink:title=" ">
<path fill="none" stroke="#63b8ff" d="M842.77,-303.23C843.71,-293.2 844.78,-281.71 845.67,-272.2"/>
<polygon fill="#63b8ff" stroke="#63b8ff" points="839.27,-303.11 841.82,-313.39 846.24,-303.76 839.27,-303.11"/>
</a>
</g>
</g>
<!-- Node5 -->
<g id="Node000005" class="node">
<title>Node5</title>
<g id="a_Node000005"><a xlink:href="_async_server_socket_8hpp.html" target="_top" xlink:title=" ">
<polygon fill="white" stroke="#666666" points="1741.5,-112.5 1575.5,-112.5 1575.5,-82.5 1741.5,-82.5 1741.5,-112.5"/>
<text text-anchor="start" x="1583.5" y="-100.5" font-family="Helvetica,sans-Serif" font-size="10.00">include/Hermes/Socket</text>
<text text-anchor="middle" x="1658.5" y="-89.5" font-family="Helvetica,sans-Serif" font-size="10.00">/Async/AsyncServerSocket.hpp</text>
</a>
</g>
</g>
<!-- Node4&#45;&gt;Node5 -->
<g id="edge4_Node000004_Node000005" class="edge">
<title>Node4&#45;&gt;Node5</title>
<g id="a_edge4_Node000004_Node000005"><a xlink:title=" ">
<path fill="none" stroke="#63b8ff" d="M1358.47,-153.63C1437.86,-137.47 1518.56,-122.83 1576.94,-112.55"/>
<polygon fill="#63b8ff" stroke="#63b8ff" points="1357.38,-150.28 1348.29,-155.71 1358.79,-157.14 1357.38,-150.28"/>
</a>
</g>
</g>
<!-- Node7 -->
<g id="Node000007" class="node">
<title>Node7</title>
<g id="a_Node000007"><a xlink:href="_tls_async_accept_policy_8hpp.html" target="_top" xlink:title=" ">
<polygon fill="white" stroke="#666666" points="1159,-118 996,-118 996,-77 1159,-77 1159,-118"/>
<text text-anchor="start" x="1004" y="-106" font-family="Helvetica,sans-Serif" font-size="10.00">include/Hermes/Socket</text>
<text text-anchor="start" x="1004" y="-95" font-family="Helvetica,sans-Serif" font-size="10.00">/Async/_base/Accept/TlsAsync</text>
<text text-anchor="middle" x="1077.5" y="-84" font-family="Helvetica,sans-Serif" font-size="10.00">AcceptPolicy.hpp</text>
</a>
</g>
</g>
<!-- Node4&#45;&gt;Node7 -->
<g id="edge6_Node000004_Node000007" class="edge">
<title>Node4&#45;&gt;Node7</title>
<g id="a_edge6_Node000004_Node000007"><a xlink:title=" ">
<path fill="none" stroke="#63b8ff" d="M1210.72,-150.27C1184.13,-139.94 1153.17,-127.9 1127.79,-118.04"/>
<polygon fill="#63b8ff" stroke="#63b8ff" points="1209.71,-153.63 1220.3,-153.99 1212.25,-147.11 1209.71,-153.63"/>
</a>
</g>
</g>
<!-- Node6 -->
<g id="Node000006" class="node">
<title>Node6</title>
<g id="a_Node000006"><a xlink:href="_async_listener_socket_8hpp.html" target="_top" xlink:title=" ">
<polygon fill="white" stroke="#666666" points="1822,-35.5 1649,-35.5 1649,-5.5 1822,-5.5 1822,-35.5"/>
<text text-anchor="start" x="1657" y="-23.5" font-family="Helvetica,sans-Serif" font-size="10.00">include/Hermes/Socket</text>
<text text-anchor="middle" x="1735.5" y="-12.5" font-family="Helvetica,sans-Serif" font-size="10.00">/Async/AsyncListenerSocket.hpp</text>
</a>
</g>
</g>
<!-- Node5&#45;&gt;Node6 -->
<g id="edge5_Node000005_Node000006" class="edge">
<title>Node5&#45;&gt;Node6</title>
<g id="a_edge5_Node000005_Node000006"><a xlink:title=" ">
<path fill="none" stroke="#63b8ff" d="M1680.25,-75.32C1693.32,-62.58 1709.6,-46.74 1721.09,-35.54"/>
<polygon fill="#63b8ff" stroke="#63b8ff" points="1677.71,-72.91 1672.99,-82.39 1682.59,-77.92 1677.71,-72.91"/>
</a>
</g>
</g>
<!-- Node9 -->
<g id="Node000009" class="node">
<title>Node9</title>
<g id="a_Node000009"><a xlink:href="_async_client_socket_8hpp.html" target="_top" xlink:title=" ">
<polygon fill="white" stroke="#666666" points="1083,-35.5 920,-35.5 920,-5.5 1083,-5.5 1083,-35.5"/>
<text text-anchor="start" x="928" y="-23.5" font-family="Helvetica,sans-Serif" font-size="10.00">include/Hermes/Socket</text>
<text text-anchor="middle" x="1001.5" y="-12.5" font-family="Helvetica,sans-Serif" font-size="10.00">/Async/AsyncClientSocket.hpp</text>
</a>
</g>
</g>
<!-- Node8&#45;&gt;Node9 -->
<g id="edge8_Node000008_Node000009" class="edge">
<title>Node8&#45;&gt;Node9</title>
<g id="a_edge8_Node000008_Node000009"><a xlink:title=" ">
<path fill="none" stroke="#63b8ff" d="M672.21,-79.48C747.6,-66.2 851.04,-47.99 921.74,-35.54"/>
<polygon fill="#63b8ff" stroke="#63b8ff" points="671.47,-76.05 662.23,-81.23 672.68,-82.95 671.47,-76.05"/>
</a>
</g>
</g>
<!-- Node10 -->
<g id="Node000010" class="node">
<title>Node10</title>
<g id="a_Node000010"><a xlink:href="_tls_async_connect_policy_8hpp.html" target="_top" xlink:title=" ">
<polygon fill="white" stroke="#666666" points="335.5,-41 183.5,-41 183.5,0 335.5,0 335.5,-41"/>
<text text-anchor="start" x="191.5" y="-29" font-family="Helvetica,sans-Serif" font-size="10.00">include/Hermes/Socket</text>
<text text-anchor="start" x="191.5" y="-18" font-family="Helvetica,sans-Serif" font-size="10.00">/Async/_base/Connection</text>
<text text-anchor="middle" x="259.5" y="-7" font-family="Helvetica,sans-Serif" font-size="10.00">/TlsAsyncConnectPolicy.hpp</text>
</a>
</g>
</g>
<!-- Node8&#45;&gt;Node10 -->
<g id="edge9_Node000008_Node000010" class="edge">
<title>Node8&#45;&gt;Node10</title>
<g id="a_edge9_Node000008_Node000010"><a xlink:title=" ">
<path fill="none" stroke="#63b8ff" d="M483.44,-74.65C436.48,-63.5 380.06,-50.11 335.6,-39.56"/>
<polygon fill="#63b8ff" stroke="#63b8ff" points="482.77,-78.09 493.3,-76.99 484.38,-71.28 482.77,-78.09"/>
</a>
</g>
</g>
<!-- Node11&#45;&gt;Node5 -->
<g id="edge12_Node000011_Node000005" class="edge">
<title>Node11&#45;&gt;Node5</title>
<g id="a_edge12_Node000011_Node000005"><a xlink:title=" ">
<path fill="none" stroke="#63b8ff" d="M1645.17,-143.94C1648.31,-133.25 1651.71,-121.66 1654.29,-112.86"/>
<polygon fill="#63b8ff" stroke="#63b8ff" points="1641.74,-143.21 1642.28,-153.79 1648.46,-145.18 1641.74,-143.21"/>
</a>
</g>
</g>
<!-- Node11&#45;&gt;Node9 -->
<g id="edge11_Node000011_Node000009" class="edge">
<title>Node11&#45;&gt;Node9</title>
<g id="a_edge11_Node000011_Node000009"><a xlink:title=" ">
<path fill="none" stroke="#63b8ff" d="M1585.52,-149.8C1535.97,-127.71 1458.08,-95.49 1387.5,-77 1284.35,-49.97 1162.02,-35.19 1083.15,-27.82"/>
<polygon fill="#63b8ff" stroke="#63b8ff" points="1584.18,-153.03 1594.74,-153.93 1587.05,-146.64 1584.18,-153.03"/>
</a>
</g>
</g>
<!-- Node12&#45;&gt;Node4 -->
<g id="edge14_Node000012_Node000004" class="edge">
<title>Node12&#45;&gt;Node4</title>
<g id="a_edge14_Node000012_Node000004"><a xlink:title=" ">
<path fill="none" stroke="#63b8ff" d="M1156.83,-226.86C1179.49,-216.62 1205.71,-204.77 1227.25,-195.04"/>
<polygon fill="#63b8ff" stroke="#63b8ff" points="1155.36,-223.68 1147.69,-230.99 1158.24,-230.06 1155.36,-223.68"/>
</a>
</g>
</g>
<!-- Node13 -->
<g id="Node000013" class="node">
<title>Node13</title>
<g id="a_Node000013"><a xlink:href="_server_socket_8hpp.html" target="_top" xlink:title=" ">
<polygon fill="white" stroke="#666666" points="957,-189.5 826,-189.5 826,-159.5 957,-159.5 957,-189.5"/>
<text text-anchor="start" x="834" y="-177.5" font-family="Helvetica,sans-Serif" font-size="10.00">include/Hermes/Socket</text>
<text text-anchor="middle" x="891.5" y="-166.5" font-family="Helvetica,sans-Serif" font-size="10.00">/Sync/ServerSocket.hpp</text>
</a>
</g>
</g>
<!-- Node12&#45;&gt;Node13 -->
<g id="edge15_Node000012_Node000013" class="edge">
<title>Node12&#45;&gt;Node13</title>
<g id="a_edge15_Node000012_Node000013"><a xlink:title=" ">
<path fill="none" stroke="#63b8ff" d="M1039.37,-227.57C1004.17,-215.17 961.83,-200.26 931.5,-189.58"/>
<polygon fill="#63b8ff" stroke="#63b8ff" points="1038.5,-230.97 1049.1,-230.99 1040.83,-224.37 1038.5,-230.97"/>
</a>
</g>
</g>
<!-- Node15 -->
<g id="Node000015" class="node">
<title>Node15</title>
<g id="a_Node000015"><a xlink:href="_tls_accept_policy_8hpp.html" target="_top" xlink:title=" ">
<polygon fill="white" stroke="#666666" points="1175,-195 1014,-195 1014,-154 1175,-154 1175,-195"/>
<text text-anchor="start" x="1022" y="-183" font-family="Helvetica,sans-Serif" font-size="10.00">include/Hermes/Socket</text>
<text text-anchor="start" x="1022" y="-172" font-family="Helvetica,sans-Serif" font-size="10.00">/Sync/_base/Accept/TlsAccept</text>
<text text-anchor="middle" x="1094.5" y="-161" font-family="Helvetica,sans-Serif" font-size="10.00">Policy.hpp</text>
</a>
</g>
</g>
<!-- Node12&#45;&gt;Node15 -->
<g id="edge17_Node000012_Node000015" class="edge">
<title>Node12&#45;&gt;Node15</title>
<g id="a_edge17_Node000012_Node000015"><a xlink:title=" ">
<path fill="none" stroke="#63b8ff" d="M1100.53,-220.69C1099.38,-212.08 1098.16,-202.9 1097.11,-195.07"/>
<polygon fill="#63b8ff" stroke="#63b8ff" points="1097.09,-221.34 1101.88,-230.79 1104.02,-220.42 1097.09,-221.34"/>
</a>
</g>
</g>
<!-- Node14 -->
<g id="Node000014" class="node">
<title>Node14</title>
<g id="a_Node000014"><a xlink:href="_listener_socket_8hpp.html" target="_top" xlink:title=" ">
<polygon fill="white" stroke="#666666" points="960.5,-112.5 822.5,-112.5 822.5,-82.5 960.5,-82.5 960.5,-112.5"/>
<text text-anchor="start" x="830.5" y="-100.5" font-family="Helvetica,sans-Serif" font-size="10.00">include/Hermes/Socket</text>
<text text-anchor="middle" x="891.5" y="-89.5" font-family="Helvetica,sans-Serif" font-size="10.00">/Sync/ListenerSocket.hpp</text>
</a>
</g>
</g>
<!-- Node13&#45;&gt;Node14 -->
<g id="edge16_Node000013_Node000014" class="edge">
<title>Node13&#45;&gt;Node14</title>
<g id="a_edge16_Node000013_Node000014"><a xlink:title=" ">
<path fill="none" stroke="#63b8ff" d="M891.5,-149.04C891.5,-136.95 891.5,-122.79 891.5,-112.54"/>
<polygon fill="#63b8ff" stroke="#63b8ff" points="888,-149.39 891.5,-159.39 895,-149.39 888,-149.39"/>
</a>
</g>
</g>
<!-- Node15&#45;&gt;Node7 -->
<g id="edge18_Node000015_Node000007" class="edge">
<title>Node15&#45;&gt;Node7</title>
<g id="a_edge18_Node000015_Node000007"><a xlink:title=" ">
<path fill="none" stroke="#63b8ff" d="M1087.81,-143.98C1085.84,-135.28 1083.73,-125.98 1081.94,-118.07"/>
<polygon fill="#63b8ff" stroke="#63b8ff" points="1084.41,-144.82 1090.04,-153.79 1091.24,-143.27 1084.41,-144.82"/>
</a>
</g>
</g>
<!-- Node16 -->
<g id="Node000016" class="node">
<title>Node16</title>
<g id="a_Node000016"><a xlink:href="_tls_accept_state_machine_8hpp.html" target="_top" xlink:title=" ">
<polygon fill="white" stroke="#666666" points="1378.5,-118 1218.5,-118 1218.5,-77 1378.5,-77 1378.5,-118"/>
<text text-anchor="start" x="1226.5" y="-106" font-family="Helvetica,sans-Serif" font-size="10.00">include/Hermes/Socket</text>
<text text-anchor="start" x="1226.5" y="-95" font-family="Helvetica,sans-Serif" font-size="10.00">/_base/Accept/TlsAcceptState</text>
<text text-anchor="middle" x="1298.5" y="-84" font-family="Helvetica,sans-Serif" font-size="10.00">Machine.hpp</text>
</a>
</g>
</g>
<!-- Node15&#45;&gt;Node16 -->
<g id="edge19_Node000015_Node000016" class="edge">
<title>Node15&#45;&gt;Node16</title>
<g id="a_edge19_Node000015_Node000016"><a xlink:title=" ">
<path fill="none" stroke="#63b8ff" d="M1156.96,-150.54C1185.23,-140.15 1218.29,-127.99 1245.35,-118.04"/>
<polygon fill="#63b8ff" stroke="#63b8ff" points="1155.75,-147.25 1147.57,-153.99 1158.16,-153.82 1155.75,-147.25"/>
</a>
</g>
</g>
<!-- Node18 -->
<g id="Node000018" class="node">
<title>Node18</title>
<g id="a_Node000018"><a xlink:href="_client_socket_8hpp.html" target="_top" xlink:title=" ">
<polygon fill="white" stroke="#666666" points="769.5,-189.5 641.5,-189.5 641.5,-159.5 769.5,-159.5 769.5,-189.5"/>
<text text-anchor="start" x="649.5" y="-177.5" font-family="Helvetica,sans-Serif" font-size="10.00">include/Hermes/Socket</text>
<text text-anchor="middle" x="705.5" y="-166.5" font-family="Helvetica,sans-Serif" font-size="10.00">/Sync/ClientSocket.hpp</text>
</a>
</g>
</g>
<!-- Node17&#45;&gt;Node18 -->
<g id="edge21_Node000017_Node000018" class="edge">
<title>Node17&#45;&gt;Node18</title>
<g id="a_edge21_Node000017_Node000018"><a xlink:title=" ">
<path fill="none" stroke="#63b8ff" d="M669.09,-222.59C677.7,-211.46 687.24,-199.12 694.4,-189.86"/>
<polygon fill="#63b8ff" stroke="#63b8ff" points="666.09,-220.74 662.74,-230.79 671.63,-225.03 666.09,-220.74"/>
</a>
</g>
</g>
<!-- Node17&#45;&gt;Node19 -->
<g id="edge22_Node000017_Node000019" class="edge">
<title>Node17&#45;&gt;Node19</title>
<g id="a_edge22_Node000017_Node000019"><a xlink:title=" ">
<path fill="none" stroke="#63b8ff" d="M565.17,-230.7C500.83,-215.57 437.61,-201.05 391.52,-190.52"/>
<polygon fill="#63b8ff" stroke="#63b8ff" points="564.55,-234.15 575.09,-233.03 566.16,-227.33 564.55,-234.15"/>
</a>
</g>
</g>
<!-- Node19&#45;&gt;Node8 -->
<g id="edge23_Node000019_Node000008" class="edge">
<title>Node19&#45;&gt;Node8</title>
<g id="a_edge23_Node000019_Node000008"><a xlink:title=" ">
<path fill="none" stroke="#63b8ff" d="M400.24,-151.08C435.27,-140.57 476.63,-128.16 510.36,-118.04"/>
<polygon fill="#63b8ff" stroke="#63b8ff" points="399.11,-147.76 390.54,-153.99 401.12,-154.47 399.11,-147.76"/>
</a>
</g>
</g>
<!-- Node19&#45;&gt;Node10 -->
<g id="edge24_Node000019_Node000010" class="edge">
<title>Node19&#45;&gt;Node10</title>
<g id="a_edge24_Node000019_Node000010"><a xlink:title=" ">
<path fill="none" stroke="#63b8ff" d="M343.11,-144.95C353.02,-124.93 361.27,-98.08 349.5,-77 340.83,-61.45 325.8,-49.72 310.49,-41.14"/>
<polygon fill="#63b8ff" stroke="#63b8ff" points="339.96,-143.43 338.35,-153.9 346.14,-146.72 339.96,-143.43"/>
</a>
</g>
</g>
<!-- Node20 -->
<g id="Node000020" class="node">
<title>Node20</title>
<g id="a_Node000020"><a xlink:href="_tls_connect_state_machine_8hpp.html" target="_top" xlink:title=" ">
<polygon fill="white" stroke="#666666" points="341,-118 178,-118 178,-77 341,-77 341,-118"/>
<text text-anchor="start" x="186" y="-106" font-family="Helvetica,sans-Serif" font-size="10.00">include/Hermes/Socket</text>
<text text-anchor="start" x="186" y="-95" font-family="Helvetica,sans-Serif" font-size="10.00">/_base/Connection/TlsConnect</text>
<text text-anchor="middle" x="259.5" y="-84" font-family="Helvetica,sans-Serif" font-size="10.00">StateMachine.hpp</text>
</a>
</g>
</g>
<!-- Node19&#45;&gt;Node20 -->
<g id="edge25_Node000019_Node000020" class="edge">
<title>Node19&#45;&gt;Node20</title>
<g id="a_edge25_Node000019_Node000020"><a xlink:title=" ">
<path fill="none" stroke="#63b8ff" d="M301.51,-146.23C293.3,-136.91 284.29,-126.67 276.73,-118.07"/>
<polygon fill="#63b8ff" stroke="#63b8ff" points="298.93,-148.6 308.16,-153.79 304.18,-143.98 298.93,-148.6"/>
</a>
</g>
</g>
<!-- Node21&#45;&gt;Node13 -->
<g id="edge28_Node000021_Node000013" class="edge">
<title>Node21&#45;&gt;Node13</title>
<g id="a_edge28_Node000021_Node000013"><a xlink:title=" ">
<path fill="none" stroke="#63b8ff" d="M864.26,-221.93C870.69,-210.97 877.76,-198.93 883.08,-189.86"/>
<polygon fill="#63b8ff" stroke="#63b8ff" points="861.11,-220.4 859.06,-230.79 867.14,-223.94 861.11,-220.4"/>
</a>
</g>
</g>
<!-- Node21&#45;&gt;Node18 -->
<g id="edge27_Node000021_Node000018" class="edge">
<title>Node21&#45;&gt;Node18</title>
<g id="a_edge27_Node000021_Node000018"><a xlink:title=" ">
<path fill="none" stroke="#63b8ff" d="M801.69,-226.3C778.81,-214.22 751.91,-200.01 732.39,-189.7"/>
<polygon fill="#63b8ff" stroke="#63b8ff" points="800.09,-229.41 810.57,-230.99 803.36,-223.23 800.09,-229.41"/>
</a>
</g>
</g>
<!-- Node22&#45;&gt;Node7 -->
<g id="edge30_Node000022_Node000007" class="edge">
<title>Node22&#45;&gt;Node7</title>
<g id="a_edge30_Node000022_Node000007"><a xlink:title=" ">
<path fill="none" stroke="#63b8ff" d="M384.56,-303.63C379.94,-282.46 377.19,-251.76 392.5,-231 470.04,-125.84 840.17,-136.56 969.5,-118 978.09,-116.77 987.03,-115.36 995.93,-113.87"/>
<polygon fill="#63b8ff" stroke="#63b8ff" points="381.19,-304.58 386.98,-313.45 387.99,-302.91 381.19,-304.58"/>
</a>
</g>
</g>
<!-- Node22&#45;&gt;Node10 -->
<g id="edge31_Node000022_Node000010" class="edge">
<title>Node22&#45;&gt;Node10</title>
<g id="a_edge31_Node000022_Node000010"><a xlink:title=" ">
<path fill="none" stroke="#63b8ff" d="M364.71,-306.87C310.09,-264.16 189.28,-166.01 168.5,-118 161.27,-101.28 159.58,-92.89 168.5,-77 177.29,-61.35 192.48,-49.59 207.97,-41.02"/>
<polygon fill="#63b8ff" stroke="#63b8ff" points="362.84,-309.86 372.88,-313.24 367.14,-304.33 362.84,-309.86"/>
</a>
</g>
</g>
<!-- Node22&#45;&gt;Node15 -->
<g id="edge33_Node000022_Node000015" class="edge">
<title>Node22&#45;&gt;Node15</title>
<g id="a_edge33_Node000022_Node000015"><a xlink:title=" ">
<path fill="none" stroke="#63b8ff" d="M391.51,-303.16C392.96,-280.64 398.98,-248.14 420.5,-231 467.98,-193.2 905.17,-201.54 965.5,-195 981.15,-193.3 997.81,-191.09 1013.78,-188.77"/>
<polygon fill="#63b8ff" stroke="#63b8ff" points="388.01,-303.17 391.12,-313.3 395.01,-303.44 388.01,-303.17"/>
</a>
</g>
</g>
<!-- Node22&#45;&gt;Node19 -->
<g id="edge34_Node000022_Node000019" class="edge">
<title>Node22&#45;&gt;Node19</title>
<g id="a_edge34_Node000022_Node000019"><a xlink:title=" ">
<path fill="none" stroke="#63b8ff" d="M371.66,-305.59C363.77,-295.89 355.23,-283.97 349.5,-272 337.52,-246.92 331.12,-215.22 328.02,-195.14"/>
<polygon fill="#63b8ff" stroke="#63b8ff" points="369.21,-308.12 378.34,-313.49 374.56,-303.6 369.21,-308.12"/>
</a>
</g>
</g>
<!-- Node23 -->
<g id="Node000023" class="node">
<title>Node23</title>
<g id="a_Node000023"><a xlink:href="_tls_async_transfer_policy_8hpp.html" target="_top" xlink:title=" ">
<polygon fill="white" stroke="#666666" points="259,-272 108,-272 108,-231 259,-231 259,-272"/>
<text text-anchor="start" x="116" y="-260" font-family="Helvetica,sans-Serif" font-size="10.00">include/Hermes/Socket</text>
<text text-anchor="start" x="116" y="-249" font-family="Helvetica,sans-Serif" font-size="10.00">/Async/_base/Transfer</text>
<text text-anchor="middle" x="183.5" y="-238" font-family="Helvetica,sans-Serif" font-size="10.00">/TlsAsyncTransferPolicy.hpp</text>
</a>
</g>
</g>
<!-- Node22&#45;&gt;Node23 -->
<g id="edge32_Node000022_Node000023" class="edge">
<title>Node22&#45;&gt;Node23</title>
<g id="a_edge32_Node000022_Node000023"><a xlink:title=" ">
<path fill="none" stroke="#63b8ff" d="M342.93,-309.99C311.43,-298.63 270.33,-283.81 237.76,-272.06"/>
<polygon fill="#63b8ff" stroke="#63b8ff" points="341.79,-313.29 352.38,-313.39 344.16,-306.71 341.79,-313.29"/>
</a>
</g>
</g>
<!-- Node24 -->
<g id="Node000024" class="node">
<title>Node24</title>
<g id="a_Node000024"><a xlink:href="_tls_transfer_policy_8hpp.html" target="_top" xlink:title=" ">
<polygon fill="white" stroke="#666666" points="557.5,-272 429.5,-272 429.5,-231 557.5,-231 557.5,-272"/>
<text text-anchor="start" x="437.5" y="-260" font-family="Helvetica,sans-Serif" font-size="10.00">include/Hermes/Socket</text>
<text text-anchor="start" x="437.5" y="-249" font-family="Helvetica,sans-Serif" font-size="10.00">/Sync/_base/Transfer</text>
<text text-anchor="middle" x="493.5" y="-238" font-family="Helvetica,sans-Serif" font-size="10.00">/TlsTransferPolicy.hpp</text>
</a>
</g>
</g>
<!-- Node22&#45;&gt;Node24 -->
<g id="edge35_Node000022_Node000024" class="edge">
<title>Node22&#45;&gt;Node24</title>
<g id="a_edge35_Node000022_Node000024"><a xlink:title=" ">
<path fill="none" stroke="#63b8ff" d="M418.97,-307.31C433.78,-296.41 451.99,-283.02 466.71,-272.2"/>
<polygon fill="#63b8ff" stroke="#63b8ff" points="416.67,-304.65 410.69,-313.39 420.82,-310.29 416.67,-304.65"/>
</a>
</g>
</g>
<!-- Node25&#45;&gt;Node3 -->
<g id="edge47_Node000025_Node000003" class="edge">
<title>Node25&#45;&gt;Node3</title>
<g id="a_edge47_Node000025_Node000003"><a xlink:title=" ">
<path fill="none" stroke="#63b8ff" d="M932.12,-380.03C911.23,-368.51 885,-354.04 865.96,-343.54"/>
<polygon fill="#63b8ff" stroke="#63b8ff" points="930.56,-383.17 941.01,-384.94 933.94,-377.04 930.56,-383.17"/>
</a>
</g>
</g>
<!-- Node25&#45;&gt;Node4 -->
<g id="edge41_Node000025_Node000004" class="edge">
<title>Node25&#45;&gt;Node4</title>
<g id="a_edge41_Node000025_Node000004"><a xlink:title=" ">
<path fill="none" stroke="#63b8ff" d="M1040.94,-391.42C1079.37,-384.78 1125.58,-372.33 1161.5,-349 1219.08,-311.61 1251.8,-231.98 1264.41,-195.06"/>
<polygon fill="#63b8ff" stroke="#63b8ff" points="1040.15,-388 1030.84,-393.07 1041.28,-394.91 1040.15,-388"/>
</a>
</g>
</g>
<!-- Node25&#45;&gt;Node5 -->
<g id="edge40_Node000025_Node000005" class="edge">
<title>Node25&#45;&gt;Node5</title>
<g id="a_edge40_Node000025_Node000005"><a xlink:title=" ">
<path fill="none" stroke="#63b8ff" d="M1040.85,-399.39C1221.01,-399.6 1669.66,-395.41 1717.5,-349 1779.9,-288.48 1771.38,-231.75 1732.5,-154 1723.38,-135.76 1705.1,-121.96 1688.99,-112.68"/>
<polygon fill="#63b8ff" stroke="#63b8ff" points="1040.67,-395.89 1030.67,-399.38 1040.66,-402.89 1040.67,-395.89"/>
</a>
</g>
</g>
<!-- Node25&#45;&gt;Node6 -->
<g id="edge39_Node000025_Node000006" class="edge">
<title>Node25&#45;&gt;Node6</title>
<g id="a_edge39_Node000025_Node000006"><a xlink:title=" ">
<path fill="none" stroke="#63b8ff" d="M1040.86,-398.5C1224.56,-396.67 1689.15,-388.18 1746.5,-349 1785.58,-322.31 1791.5,-299.82 1791.5,-252.5 1791.5,-252.5 1791.5,-252.5 1791.5,-173.5 1791.5,-119.79 1760.33,-61.61 1744.5,-35.53"/>
<polygon fill="#63b8ff" stroke="#63b8ff" points="1040.72,-395 1030.75,-398.6 1040.78,-402 1040.72,-395"/>
</a>
</g>
</g>
<!-- Node25&#45;&gt;Node7 -->
<g id="edge42_Node000025_Node000007" class="edge">
<title>Node25&#45;&gt;Node7</title>
<g id="a_edge42_Node000025_Node000007"><a xlink:title=" ">
<path fill="none" stroke="#63b8ff" d="M964.55,-374.77C961.98,-328.41 961.98,-225.38 1004.5,-154 1013.22,-139.37 1027.41,-127.27 1040.96,-118.15"/>
<polygon fill="#63b8ff" stroke="#63b8ff" points="961.06,-375.04 965.2,-384.79 968.05,-374.58 961.06,-375.04"/>
</a>
</g>
</g>
<!-- Node25&#45;&gt;Node8 -->
<g id="edge43_Node000025_Node000008" class="edge">
<title>Node25&#45;&gt;Node8</title>
<g id="a_edge43_Node000025_Node000008"><a xlink:title=" ">
<path fill="none" stroke="#63b8ff" d="M963.83,-374.85C958.79,-333.57 946.65,-251.86 927.5,-231 892.43,-192.79 860.21,-222.92 816.5,-195 795.57,-181.62 799.75,-166.88 778.5,-154 743.36,-132.69 699.9,-119.39 662.22,-111.18"/>
<polygon fill="#63b8ff" stroke="#63b8ff" points="960.36,-375.36 965.01,-384.88 967.32,-374.54 960.36,-375.36"/>
</a>
</g>
</g>
<!-- Node25&#45;&gt;Node10 -->
<g id="edge44_Node000025_Node000010" class="edge">
<title>Node25&#45;&gt;Node10</title>
<g id="a_edge44_Node000025_Node000010"><a xlink:title=" ">
<path fill="none" stroke="#63b8ff" d="M892.07,-395.06C669.2,-383.25 22.5,-349 22.5,-349 -10.51,-320.35 3.5,-296.21 3.5,-252.5 3.5,-252.5 3.5,-252.5 3.5,-173.5 3.5,-88.99 107.93,-50.43 183.39,-33.59"/>
<polygon fill="#63b8ff" stroke="#63b8ff" points="892.19,-398.57 902.36,-395.6 892.56,-391.58 892.19,-398.57"/>
</a>
</g>
</g>
<!-- Node25&#45;&gt;Node11 -->
<g id="edge45_Node000025_Node000011" class="edge">
<title>Node25&#45;&gt;Node11</title>
<g id="a_edge45_Node000025_Node000011"><a xlink:title=" ">
<path fill="none" stroke="#63b8ff" d="M1040.91,-399.51C1217.87,-399.96 1652.43,-396.19 1696.5,-349 1737.94,-304.62 1684.48,-230.22 1654.42,-195.05"/>
<polygon fill="#63b8ff" stroke="#63b8ff" points="1040.66,-396.01 1030.64,-399.48 1040.63,-403.01 1040.66,-396.01"/>
</a>
</g>
</g>
<!-- Node25&#45;&gt;Node12 -->
<g id="edge49_Node000025_Node000012" class="edge">
<title>Node25&#45;&gt;Node12</title>
<g id="a_edge49_Node000025_Node000012"><a xlink:title=" ">
<path fill="none" stroke="#63b8ff" d="M986.7,-377.56C1013.38,-349.24 1060.01,-299.74 1085.88,-272.27"/>
<polygon fill="#63b8ff" stroke="#63b8ff" points="984.05,-375.27 979.74,-384.95 989.14,-380.07 984.05,-375.27"/>
</a>
</g>
</g>
<!-- Node25&#45;&gt;Node15 -->
<g id="edge50_Node000025_Node000015" class="edge">
<title>Node25&#45;&gt;Node15</title>
<g id="a_edge50_Node000025_Node000015"><a xlink:title=" ">
<path fill="none" stroke="#63b8ff" d="M1038.95,-381.95C1095,-364.54 1168.88,-331.39 1204.5,-272 1213.88,-256.37 1214.06,-246.52 1204.5,-231 1194.64,-214.97 1178.56,-203.4 1161.7,-195.12"/>
<polygon fill="#63b8ff" stroke="#63b8ff" points="1037.63,-378.7 1029.06,-384.92 1039.64,-385.4 1037.63,-378.7"/>
</a>
</g>
</g>
<!-- Node25&#45;&gt;Node17 -->
<g id="edge51_Node000025_Node000017" class="edge">
<title>Node25&#45;&gt;Node17</title>
<g id="a_edge51_Node000025_Node000017"><a xlink:title=" ">
<path fill="none" stroke="#63b8ff" d="M892.25,-393.34C846.44,-387.3 787.81,-374.81 741.5,-349 707.19,-329.87 677.43,-294.29 661.02,-272.09"/>
<polygon fill="#63b8ff" stroke="#63b8ff" points="892.05,-396.84 902.41,-394.6 892.92,-389.9 892.05,-396.84"/>
</a>
</g>
</g>
<!-- Node25&#45;&gt;Node19 -->
<g id="edge52_Node000025_Node000019" class="edge">
<title>Node25&#45;&gt;Node19</title>
<g id="a_edge52_Node000025_Node000019"><a xlink:title=" ">
<path fill="none" stroke="#63b8ff" d="M892.39,-394.65C710.52,-383.86 255.92,-356.26 241.5,-349 220.11,-338.22 226.37,-321.39 206.5,-308 164.55,-279.73 128.09,-313.05 98.5,-272 54.56,-211.03 177.55,-188.3 259.25,-180.04"/>
<polygon fill="#63b8ff" stroke="#63b8ff" points="892.21,-398.14 902.4,-395.24 892.63,-391.15 892.21,-398.14"/>
</a>
</g>
</g>
<!-- Node25&#45;&gt;Node21 -->
<g id="edge53_Node000025_Node000021" class="edge">
<title>Node25&#45;&gt;Node21</title>
<g id="a_edge53_Node000025_Node000021"><a xlink:title=" ">
<path fill="none" stroke="#63b8ff" d="M892.21,-391.42C837.56,-384.13 769.89,-370.91 752.5,-349 741.18,-334.72 743.43,-323.8 752.5,-308 761.54,-292.26 776.95,-280.56 792.76,-272.07"/>
<polygon fill="#63b8ff" stroke="#63b8ff" points="891.88,-394.9 902.25,-392.71 892.78,-387.96 891.88,-394.9"/>
</a>
</g>
</g>
<!-- Node25&#45;&gt;Node22 -->
<g id="edge48_Node000025_Node000022" class="edge">
<title>Node25&#45;&gt;Node22</title>
<g id="a_edge48_Node000025_Node000022"><a xlink:title=" ">
<path fill="none" stroke="#63b8ff" d="M892.29,-390.03C780.18,-376.48 569.2,-350.98 460.35,-337.82"/>
<polygon fill="#63b8ff" stroke="#63b8ff" points="892.15,-393.54 902.5,-391.26 892.99,-386.59 892.15,-393.54"/>
</a>
</g>
</g>
<!-- Node25&#45;&gt;Node23 -->
<g id="edge46_Node000025_Node000023" class="edge">
<title>Node25&#45;&gt;Node23</title>
<g id="a_edge46_Node000025_Node000023"><a xlink:title=" ">
<path fill="none" stroke="#63b8ff" d="M892.23,-394.42C726.77,-384.07 340.24,-358.99 313.5,-349 268.74,-332.28 226.1,-295.21 202.51,-272.19"/>
<polygon fill="#63b8ff" stroke="#63b8ff" points="892.13,-397.92 902.33,-395.05 892.57,-390.93 892.13,-397.92"/>
</a>
</g>
</g>
<!-- Node25&#45;&gt;Node24 -->
<g id="edge54_Node000025_Node000024" class="edge">
<title>Node25&#45;&gt;Node24</title>
<g id="a_edge54_Node000025_Node000024"><a xlink:title=" ">
<path fill="none" stroke="#63b8ff" d="M892.33,-391.31C835.74,-384.09 756.39,-371.02 689.5,-349 629.16,-329.13 563.87,-293.95 525.95,-272"/>
<polygon fill="#63b8ff" stroke="#63b8ff" points="891.92,-394.79 902.27,-392.55 892.78,-387.84 891.92,-394.79"/>
</a>
</g>
</g>
<!-- Node26 -->
<g id="Node000026" class="node">
<title>Node26</title>
<g id="a_Node000026"><a xlink:href="_i_tls_accept_state_machine_8hpp.html" target="_top" xlink:title=" ">
<polygon fill="white" stroke="#666666" points="1529,-195 1366,-195 1366,-154 1529,-154 1529,-195"/>
<text text-anchor="start" x="1374" y="-183" font-family="Helvetica,sans-Serif" font-size="10.00">include/Hermes/Socket</text>
<text text-anchor="start" x="1374" y="-172" font-family="Helvetica,sans-Serif" font-size="10.00">/_base/Accept/ITlsAcceptState</text>
<text text-anchor="middle" x="1447.5" y="-161" font-family="Helvetica,sans-Serif" font-size="10.00">Machine.hpp</text>
</a>
</g>
</g>
<!-- Node25&#45;&gt;Node26 -->
<g id="edge55_Node000025_Node000026" class="edge">
<title>Node25&#45;&gt;Node26</title>
<g id="a_edge55_Node000025_Node000026"><a xlink:title=" ">
<path fill="none" stroke="#63b8ff" d="M1040.83,-390.49C1087.28,-383.35 1147.54,-370.71 1197.5,-349 1290.54,-308.57 1384.64,-231.19 1425.89,-195.03"/>
<polygon fill="#63b8ff" stroke="#63b8ff" points="1040.22,-387.04 1030.84,-391.97 1041.24,-393.96 1040.22,-387.04"/>
</a>
</g>
</g>
<!-- Node27 -->
<g id="Node000027" class="node">
<title>Node27</title>
<g id="a_Node000027"><a xlink:href="_i_tls_connect_state_machine_8hpp.html" target="_top" xlink:title=" ">
<polygon fill="white" stroke="#666666" points="197.5,-349 31.5,-349 31.5,-308 197.5,-308 197.5,-349"/>
<text text-anchor="start" x="39.5" y="-337" font-family="Helvetica,sans-Serif" font-size="10.00">include/Hermes/Socket</text>
<text text-anchor="start" x="39.5" y="-326" font-family="Helvetica,sans-Serif" font-size="10.00">/_base/Connection/ITlsConnect</text>
<text text-anchor="middle" x="114.5" y="-315" font-family="Helvetica,sans-Serif" font-size="10.00">StateMachine.hpp</text>
</a>
</g>
</g>
<!-- Node25&#45;&gt;Node27 -->
<g id="edge57_Node000025_Node000027" class="edge">
<title>Node25&#45;&gt;Node27</title>
<g id="a_edge57_Node000025_Node000027"><a xlink:title=" ">
<path fill="none" stroke="#63b8ff" d="M892.43,-394.65C715.44,-384.19 277.73,-357.81 211.5,-349 206.99,-348.4 202.37,-347.71 197.72,-346.97"/>
<polygon fill="#63b8ff" stroke="#63b8ff" points="892.25,-398.15 902.44,-395.25 892.67,-391.16 892.25,-398.15"/>
</a>
</g>
</g>
<!-- Node28 -->
<g id="Node000028" class="node">
<title>Node28</title>
<g id="a_Node000028"><a xlink:href="_i_tls_transfer_state_machine_8hpp.html" target="_top" xlink:title=" ">
<polygon fill="white" stroke="#666666" points="1688,-349 1539,-349 1539,-308 1688,-308 1688,-349"/>
<text text-anchor="start" x="1547" y="-337" font-family="Helvetica,sans-Serif" font-size="10.00">include/Hermes/Socket</text>
<text text-anchor="start" x="1547" y="-326" font-family="Helvetica,sans-Serif" font-size="10.00">/_base/Transfer/ITlsTransfer</text>
<text text-anchor="middle" x="1613.5" y="-315" font-family="Helvetica,sans-Serif" font-size="10.00">StateMachine.hpp</text>
</a>
</g>
</g>
<!-- Node25&#45;&gt;Node28 -->
<g id="edge59_Node000025_Node000028" class="edge">
<title>Node25&#45;&gt;Node28</title>
<g id="a_edge59_Node000025_Node000028"><a xlink:title=" ">
<path fill="none" stroke="#63b8ff" d="M1040.76,-395.71C1148.85,-390.18 1355.61,-376.77 1529.5,-349 1532.61,-348.5 1535.77,-347.96 1538.96,-347.37"/>
<polygon fill="#63b8ff" stroke="#63b8ff" points="1040.42,-392.22 1030.61,-396.22 1040.77,-399.21 1040.42,-392.22"/>
</a>
</g>
</g>
<!-- Node29 -->
<g id="Node000029" class="node">
<title>Node29</title>
<g id="a_Node000029"><a xlink:href="_tls_transfer_state_machine_8hpp.html" target="_top" xlink:title=" ">
<polygon fill="white" stroke="#666666" points="1648.5,-272 1502.5,-272 1502.5,-231 1648.5,-231 1648.5,-272"/>
<text text-anchor="start" x="1510.5" y="-260" font-family="Helvetica,sans-Serif" font-size="10.00">include/Hermes/Socket</text>
<text text-anchor="start" x="1510.5" y="-249" font-family="Helvetica,sans-Serif" font-size="10.00">/_base/Transfer/TlsTransfer</text>
<text text-anchor="middle" x="1575.5" y="-238" font-family="Helvetica,sans-Serif" font-size="10.00">StateMachine.hpp</text>
</a>
</g>
</g>
<!-- Node25&#45;&gt;Node29 -->
<g id="edge61_Node000025_Node000029" class="edge">
<title>Node25&#45;&gt;Node29</title>
<g id="a_edge61_Node000025_Node000029"><a xlink:title=" ">
<path fill="none" stroke="#63b8ff" d="M1040.78,-394.79C1136.37,-388.43 1296.45,-374.35 1349.5,-349 1373.33,-337.62 1369.69,-321.3 1392.5,-308 1426.2,-288.35 1467.52,-275.04 1502.36,-266.4"/>
<polygon fill="#63b8ff" stroke="#63b8ff" points="1040.35,-391.31 1030.6,-395.45 1040.8,-398.29 1040.35,-391.31"/>
</a>
</g>
</g>
<!-- Node30 -->
<g id="Node000030" class="node">
<title>Node30</title>
<g id="a_Node000030"><a xlink:href="_to_bytes_8hpp.html" target="_top" xlink:title=" ">
<polygon fill="white" stroke="#666666" points="1521,-343.5 1402,-343.5 1402,-313.5 1521,-313.5 1521,-343.5"/>
<text text-anchor="start" x="1410" y="-331.5" font-family="Helvetica,sans-Serif" font-size="10.00">include/Hermes/Utils</text>
<text text-anchor="middle" x="1461.5" y="-320.5" font-family="Helvetica,sans-Serif" font-size="10.00">/ToBytes.hpp</text>
</a>
</g>
</g>
<!-- Node25&#45;&gt;Node30 -->
<g id="edge62_Node000025_Node000030" class="edge">
<title>Node25&#45;&gt;Node30</title>
<g id="a_edge62_Node000025_Node000030"><a xlink:title=" ">
<path fill="none" stroke="#63b8ff" d="M1040.78,-393.33C1125.27,-386.16 1267.12,-371.89 1387.5,-349 1395.47,-347.49 1403.83,-345.59 1411.96,-343.57"/>
<polygon fill="#63b8ff" stroke="#63b8ff" points="1040.44,-389.85 1030.76,-394.17 1041.02,-396.82 1040.44,-389.85"/>
</a>
</g>
</g>
<!-- Node26&#45;&gt;Node16 -->
<g id="edge56_Node000026_Node000016" class="edge">
<title>Node26&#45;&gt;Node16</title>
<g id="a_edge56_Node000026_Node000016"><a xlink:title=" ">
<path fill="none" stroke="#63b8ff" d="M1399.72,-149.45C1379.57,-139.3 1356.4,-127.64 1337.33,-118.04"/>
<polygon fill="#63b8ff" stroke="#63b8ff" points="1398.24,-152.62 1408.75,-153.99 1401.39,-146.37 1398.24,-152.62"/>
</a>
</g>
</g>
<!-- Node27&#45;&gt;Node20 -->
<g id="edge58_Node000027_Node000020" class="edge">
<title>Node27&#45;&gt;Node20</title>
<g id="a_edge58_Node000027_Node000020"><a xlink:title=" ">
<path fill="none" stroke="#63b8ff" d="M83.88,-300.63C76.43,-292.28 69.47,-282.49 65.5,-272 59.06,-254.96 57,-247.11 65.5,-231 94.93,-175.28 159.5,-138.55 206.07,-118.19"/>
<polygon fill="#63b8ff" stroke="#63b8ff" points="81.35,-303.05 90.79,-307.87 86.41,-298.21 81.35,-303.05"/>
</a>
</g>
</g>
<!-- Node28&#45;&gt;Node29 -->
<g id="edge60_Node000028_Node000029" class="edge">
<title>Node28&#45;&gt;Node29</title>
<g id="a_edge60_Node000028_Node000029"><a xlink:title=" ">
<path fill="none" stroke="#63b8ff" d="M1598.98,-298.83C1594.45,-289.89 1589.56,-280.24 1585.42,-272.07"/>
<polygon fill="#63b8ff" stroke="#63b8ff" points="1595.88,-300.46 1603.52,-307.79 1602.12,-297.29 1595.88,-300.46"/>
</a>
</g>
</g>
</g>
</svg>
