<?xml version="1.0" encoding="UTF-8" standalone="no"?>
<!DOCTYPE svg PUBLIC "-//W3C//DTD SVG 1.1//EN"
 "http://www.w3.org/Graphics/SVG/1.1/DTD/svg11.dtd">
<!-- Generated by graphviz version 2.43.0 (0)
 -->
<!-- Title: include/Hermes/Endpoint/_base/EndpointConcept.hpp Pages: 1 -->
<svg width="2952pt" height="236pt"
 viewBox="0.00 0.00 2952.00 236.00" xmlns="http://www.w3.org/2000/svg" xmlns:xlink="http://www.w3.org/1999/xlink">
<g id="graph0" class="graph" transform="scale(1 1) rotate(0) translate(4 232)">
<title>include/Hermes/Endpoint/_base/EndpointConcept.hpp</title>
<!-- Node1 -->
<g id="Node000001" class="node">
<title>Node1</title>
<g id="a_Node000001"><a xlink:title=" ">
<polygon fill="#999999" stroke="#666666" points="1082.5,-228 927.5,-228 927.5,-198 1082.5,-198 1082.5,-228"/>
<text text-anchor="start" x="935.5" y="-216" font-family="Helvetica,sans-Serif" font-size="10.00">include/Hermes/Endpoint</text>
<text text-anchor="middle" x="1005" y="-205" font-family="Helvetica,sans-Serif" font-size="10.00">/_base/EndpointConcept.hpp</text>
</a>
</g>
</g>
<!-- Node2 -->
<g id="Node000002" class="node">
<title>Node2</title>
<g id="a_Node000002"><a xlink:href="_connection_error_enum_8hpp.html" target="_top" xlink:title=" ">
<polygon fill="white" stroke="#666666" points="434.5,-162 267.5,-162 267.5,-132 434.5,-132 434.5,-162"/>
<text text-anchor="start" x="275.5" y="-150" font-family="Helvetica,sans-Serif" font-size="10.00">Hermes/_base/ConnectionError</text>
<text text-anchor="middle" x="351" y="-139" font-family="Helvetica,sans-Serif" font-size="10.00">Enum.hpp</text>
</a>
</g>
</g>
<!-- Node1&#45;&gt;Node2 -->
<g id="edge1_Node000001_Node000002" class="edge">
<title>Node1&#45;&gt;Node2</title>
<g id="a_edge1_Node000001_Node000002"><a xlink:title=" ">
<path fill="none" stroke="#63b8ff" d="M927.41,-204.41C806.84,-192.61 574.88,-169.91 444.99,-157.2"/>
<polygon fill="#63b8ff" stroke="#63b8ff" points="444.96,-153.68 434.67,-156.19 444.28,-160.65 444.96,-153.68"/>
</a>
</g>
</g>
<!-- Node8 -->
<g id="Node000008" class="node">
<title>Node8</title>
<g id="a_Node000008"><a xlink:href="_os_api_8hpp.html" target="_top" xlink:title=" ">
<polygon fill="white" stroke="#666666" points="1771,-162 1653,-162 1653,-132 1771,-132 1771,-162"/>
<text text-anchor="start" x="1661" y="-150" font-family="Helvetica,sans-Serif" font-size="10.00">Hermes/_base/OsApi</text>
<text text-anchor="middle" x="1712" y="-139" font-family="Helvetica,sans-Serif" font-size="10.00">/OsApi.hpp</text>
</a>
</g>
</g>
<!-- Node1&#45;&gt;Node8 -->
<g id="edge7_Node000001_Node000008" class="edge">
<title>Node1&#45;&gt;Node8</title>
<g id="a_edge7_Node000001_Node000008"><a xlink:title=" ">
<path fill="none" stroke="#63b8ff" d="M1082.68,-204.97C1221.48,-192.4 1509.89,-166.3 1642.53,-154.29"/>
<polygon fill="#63b8ff" stroke="#63b8ff" points="1642.93,-157.77 1652.57,-153.38 1642.29,-150.8 1642.93,-157.77"/>
</a>
</g>
</g>
<!-- Node3 -->
<g id="Node000003" class="node">
<title>Node3</title>
<g id="a_Node000003"><a xlink:title=" ">
<polygon fill="#e0e0e0" stroke="#999999" points="448,-85 386,-85 386,-66 448,-66 448,-85"/>
<text text-anchor="middle" x="417" y="-73" font-family="Helvetica,sans-Serif" font-size="10.00">expected</text>
</a>
</g>
</g>
<!-- Node2&#45;&gt;Node3 -->
<g id="edge2_Node000002_Node000003" class="edge">
<title>Node2&#45;&gt;Node3</title>
<g id="a_edge2_Node000002_Node000003"><a xlink:title=" ">
<path fill="none" stroke="#63b8ff" d="M364.36,-131.94C375.13,-120.59 390.29,-104.62 401.58,-92.74"/>
<polygon fill="#63b8ff" stroke="#63b8ff" points="404.33,-94.93 408.67,-85.27 399.25,-90.11 404.33,-94.93"/>
</a>
</g>
</g>
<!-- Node4 -->
<g id="Node000004" class="node">
<title>Node4</title>
<g id="a_Node000004"><a xlink:title=" ">
<polygon fill="#e0e0e0" stroke="#999999" points="513.5,-85 466.5,-85 466.5,-66 513.5,-66 513.5,-85"/>
<text text-anchor="middle" x="490" y="-73" font-family="Helvetica,sans-Serif" font-size="10.00">vector</text>
</a>
</g>
</g>
<!-- Node2&#45;&gt;Node4 -->
<g id="edge3_Node000002_Node000004" class="edge">
<title>Node2&#45;&gt;Node4</title>
<g id="a_edge3_Node000002_Node000004"><a xlink:title=" ">
<path fill="none" stroke="#63b8ff" d="M382.92,-131.88C404.16,-122.26 432.55,-108.96 457,-96 460.37,-94.21 463.89,-92.25 467.32,-90.27"/>
<polygon fill="#63b8ff" stroke="#63b8ff" points="469.19,-93.23 476.03,-85.14 465.64,-87.2 469.19,-93.23"/>
</a>
</g>
</g>
<!-- Node5 -->
<g id="Node000005" class="node">
<title>Node5</title>
<g id="a_Node000005"><a xlink:title=" ">
<polygon fill="#e0e0e0" stroke="#999999" points="40,-85 0,-85 0,-66 40,-66 40,-85"/>
<text text-anchor="middle" x="20" y="-73" font-family="Helvetica,sans-Serif" font-size="10.00">span</text>
</a>
</g>
</g>
<!-- Node2&#45;&gt;Node5 -->
<g id="edge4_Node000002_Node000005" class="edge">
<title>Node2&#45;&gt;Node5</title>
<g id="a_edge4_Node000002_Node000005"><a xlink:title=" ">
<path fill="none" stroke="#63b8ff" d="M267.38,-141.74C205.29,-136.32 119.51,-124 49,-96 45.57,-94.64 42.13,-92.82 38.88,-90.84"/>
<polygon fill="#63b8ff" stroke="#63b8ff" points="40.64,-87.8 30.4,-85.09 36.71,-93.6 40.64,-87.8"/>
</a>
</g>
</g>
<!-- Node6 -->
<g id="Node000006" class="node">
<title>Node6</title>
<g id="a_Node000006"><a xlink:title=" ">
<polygon fill="#e0e0e0" stroke="#999999" points="183.5,-85 58.5,-85 58.5,-66 183.5,-66 183.5,-85"/>
<text text-anchor="middle" x="121" y="-73" font-family="Helvetica,sans-Serif" font-size="10.00">stdexec/execution.hpp</text>
</a>
</g>
</g>
<!-- Node2&#45;&gt;Node6 -->
<g id="edge5_Node000002_Node000006" class="edge">
<title>Node2&#45;&gt;Node6</title>
<g id="a_edge5_Node000002_Node000006"><a xlink:title=" ">
<path fill="none" stroke="#63b8ff" d="M304.46,-131.94C261.62,-118.99 198.86,-100.03 158.97,-87.97"/>
<polygon fill="#63b8ff" stroke="#63b8ff" points="159.94,-84.61 149.35,-85.07 157.91,-91.31 159.94,-84.61"/>
</a>
</g>
</g>
<!-- Node7 -->
<g id="Node000007" class="node">
<title>Node7</title>
<g id="a_Node000007"><a xlink:title=" ">
<polygon fill="#e0e0e0" stroke="#999999" points="368.5,-90.5 201.5,-90.5 201.5,-60.5 368.5,-60.5 368.5,-90.5"/>
<text text-anchor="start" x="209.5" y="-78.5" font-family="Helvetica,sans-Serif" font-size="10.00">Hermes/_base/ConnectionError</text>
<text text-anchor="middle" x="285" y="-67.5" font-family="Helvetica,sans-Serif" font-size="10.00">Enum.tpp</text>
</a>
</g>
</g>
<!-- Node2&#45;&gt;Node7 -->
<g id="edge6_Node000002_Node000007" class="edge">
<title>Node2&#45;&gt;Node7</title>
<g id="a_edge6_Node000002_Node000007"><a xlink:title=" ">
<path fill="none" stroke="#63b8ff" d="M337.64,-131.94C328.34,-122.14 315.76,-108.89 305.23,-97.81"/>
<polygon fill="#63b8ff" stroke="#63b8ff" points="307.76,-95.38 298.34,-90.54 302.68,-100.2 307.76,-95.38"/>
</a>
</g>
</g>
<!-- Node9 -->
<g id="Node000009" class="node">
<title>Node9</title>
<g id="a_Node000009"><a xlink:title=" ">
<polygon fill="#e0e0e0" stroke="#999999" points="1030.5,-19 953.5,-19 953.5,0 1030.5,0 1030.5,-19"/>
<text text-anchor="middle" x="992" y="-7" font-family="Helvetica,sans-Serif" font-size="10.00">sys/socket.h</text>
</a>
</g>
</g>
<!-- Node8&#45;&gt;Node9 -->
<g id="edge8_Node000008_Node000009" class="edge">
<title>Node8&#45;&gt;Node9</title>
<g id="a_edge8_Node000008_Node000009"><a xlink:title=" ">
<path fill="none" stroke="#63b8ff" d="M1652.75,-144.6C1468.46,-139.95 916.1,-123.74 890,-96 877.51,-82.73 880.02,-70.25 890,-55 902.05,-36.59 923.56,-25.76 943.73,-19.4"/>
<polygon fill="#63b8ff" stroke="#63b8ff" points="944.82,-22.73 953.48,-16.62 942.9,-16 944.82,-22.73"/>
</a>
</g>
</g>
<!-- Node10 -->
<g id="Node000010" class="node">
<title>Node10</title>
<g id="a_Node000010"><a xlink:title=" ">
<polygon fill="#e0e0e0" stroke="#999999" points="2161,-19 2089,-19 2089,0 2161,0 2161,-19"/>
<text text-anchor="middle" x="2125" y="-7" font-family="Helvetica,sans-Serif" font-size="10.00">netinet/in.h</text>
</a>
</g>
</g>
<!-- Node8&#45;&gt;Node10 -->
<g id="edge9_Node000008_Node000010" class="edge">
<title>Node8&#45;&gt;Node10</title>
<g id="a_edge9_Node000008_Node000010"><a xlink:title=" ">
<path fill="none" stroke="#63b8ff" d="M1721.15,-131.76C1736.34,-108.56 1766.73,-64.29 1783,-55 1832.39,-26.8 1996.81,-15.95 2078.34,-12.23"/>
<polygon fill="#63b8ff" stroke="#63b8ff" points="2078.96,-15.7 2088.8,-11.77 2078.66,-8.71 2078.96,-15.7"/>
</a>
</g>
</g>
<!-- Node11 -->
<g id="Node000011" class="node">
<title>Node11</title>
<g id="a_Node000011"><a xlink:title=" ">
<polygon fill="#e0e0e0" stroke="#999999" points="2831.5,-85 2762.5,-85 2762.5,-66 2831.5,-66 2831.5,-85"/>
<text text-anchor="middle" x="2797" y="-73" font-family="Helvetica,sans-Serif" font-size="10.00">arpa/inet.h</text>
</a>
</g>
</g>
<!-- Node8&#45;&gt;Node11 -->
<g id="edge10_Node000008_Node000011" class="edge">
<title>Node8&#45;&gt;Node11</title>
<g id="a_edge10_Node000008_Node000011"><a xlink:title=" ">
<path fill="none" stroke="#63b8ff" d="M1771.32,-146.01C1963.04,-145.59 2564.5,-140.65 2753,-96 2759.51,-94.46 2766.25,-91.97 2772.44,-89.29"/>
<polygon fill="#63b8ff" stroke="#63b8ff" points="2774.03,-92.41 2781.61,-85 2771.07,-86.07 2774.03,-92.41"/>
</a>
</g>
</g>
<!-- Node12 -->
<g id="Node000012" class="node">
<title>Node12</title>
<g id="a_Node000012"><a xlink:title=" ">
<polygon fill="#e0e0e0" stroke="#999999" points="2792.5,-19 2739.5,-19 2739.5,0 2792.5,0 2792.5,-19"/>
<text text-anchor="middle" x="2766" y="-7" font-family="Helvetica,sans-Serif" font-size="10.00">netdb.h</text>
</a>
</g>
</g>
<!-- Node8&#45;&gt;Node12 -->
<g id="edge11_Node000008_Node000012" class="edge">
<title>Node8&#45;&gt;Node12</title>
<g id="a_edge11_Node000008_Node000012"><a xlink:title=" ">
<path fill="none" stroke="#63b8ff" d="M1771.26,-145.62C1998.55,-143.87 2803.74,-134.94 2841,-96 2853.6,-82.83 2850.02,-70.83 2841,-55 2832.52,-40.11 2816.87,-29.68 2802.06,-22.69"/>
<polygon fill="#63b8ff" stroke="#63b8ff" points="2803.09,-19.32 2792.52,-18.58 2800.32,-25.75 2803.09,-19.32"/>
</a>
</g>
</g>
<!-- Node13 -->
<g id="Node000013" class="node">
<title>Node13</title>
<g id="a_Node000013"><a xlink:title=" ">
<polygon fill="#e0e0e0" stroke="#999999" points="2944,-85 2888,-85 2888,-66 2944,-66 2944,-85"/>
<text text-anchor="middle" x="2916" y="-73" font-family="Helvetica,sans-Serif" font-size="10.00">unistd.h</text>
</a>
</g>
</g>
<!-- Node8&#45;&gt;Node13 -->
<g id="edge12_Node000008_Node000013" class="edge">
<title>Node8&#45;&gt;Node13</title>
<g id="a_edge12_Node000008_Node000013"><a xlink:title=" ">
<path fill="none" stroke="#63b8ff" d="M1771.29,-146.49C1977.38,-147.72 2661.62,-147.71 2874,-96 2880.1,-94.51 2886.4,-92.12 2892.19,-89.51"/>
<polygon fill="#63b8ff" stroke="#63b8ff" points="2893.91,-92.56 2901.36,-85.03 2890.84,-86.27 2893.91,-92.56"/>
</a>
</g>
</g>
<!-- Node14 -->
<g id="Node000014" class="node">
<title>Node14</title>
<g id="a_Node000014"><a xlink:href="_types_8hpp.html" target="_top" xlink:title=" ">
<polygon fill="white" stroke="#666666" points="650,-90.5 532,-90.5 532,-60.5 650,-60.5 650,-90.5"/>
<text text-anchor="start" x="540" y="-78.5" font-family="Helvetica,sans-Serif" font-size="10.00">Hermes/_base/OsApi</text>
<text text-anchor="middle" x="591" y="-67.5" font-family="Helvetica,sans-Serif" font-size="10.00">/Types.hpp</text>
</a>
</g>
</g>
<!-- Node8&#45;&gt;Node14 -->
<g id="edge13_Node000008_Node000014" class="edge">
<title>Node8&#45;&gt;Node14</title>
<g id="a_edge13_Node000008_Node000014"><a xlink:title=" ">
<path fill="none" stroke="#63b8ff" d="M1652.89,-144.99C1460.35,-141.44 852.56,-127.9 659,-96 654.18,-95.21 649.21,-94.19 644.27,-93.03"/>
<polygon fill="#63b8ff" stroke="#63b8ff" points="644.74,-89.54 634.19,-90.5 643.04,-96.33 644.74,-89.54"/>
</a>
</g>
</g>
<!-- Node15 -->
<g id="Node000015" class="node">
<title>Node15</title>
<g id="a_Node000015"><a xlink:href="_conversion_and_literals_8hpp.html" target="_top" xlink:title=" ">
<polygon fill="white" stroke="#666666" points="1566,-90.5 1416,-90.5 1416,-60.5 1566,-60.5 1566,-90.5"/>
<text text-anchor="start" x="1424" y="-78.5" font-family="Helvetica,sans-Serif" font-size="10.00">Hermes/_base/OsApi</text>
<text text-anchor="middle" x="1491" y="-67.5" font-family="Helvetica,sans-Serif" font-size="10.00">/ConversionAndLiterals.hpp</text>
</a>
</g>
</g>
<!-- Node8&#45;&gt;Node15 -->
<g id="edge14_Node000008_Node000015" class="edge">
<title>Node8&#45;&gt;Node15</title>
<g id="a_edge14_Node000008_Node000015"><a xlink:title=" ">
<path fill="none" stroke="#63b8ff" d="M1667.28,-131.94C1632.08,-120.87 1582.88,-105.4 1545.4,-93.61"/>
<polygon fill="#63b8ff" stroke="#63b8ff" points="1546.25,-90.2 1535.66,-90.54 1544.15,-96.88 1546.25,-90.2"/>
</a>
</g>
</g>
<!-- Node17 -->
<g id="Node000017" class="node">
<title>Node17</title>
<g id="a_Node000017"><a xlink:href="_macros_8hpp.html" target="_top" xlink:title=" ">
<polygon fill="white" stroke="#666666" points="1398,-90.5 1280,-90.5 1280,-60.5 1398,-60.5 1398,-90.5"/>
<text text-anchor="start" x="1288" y="-78.5" font-family="Helvetica,sans-Serif" font-size="10.00">Hermes/_base/OsApi</text>
<text text-anchor="middle" x="1339" y="-67.5" font-family="Helvetica,sans-Serif" font-size="10.00">/Macros.hpp</text>
</a>
</g>
</g>
<!-- Node8&#45;&gt;Node17 -->
<g id="edge16_Node000008_Node000017" class="edge">
<title>Node8&#45;&gt;Node17</title>
<g id="a_edge16_Node000008_Node000017"><a xlink:title=" ">
<path fill="none" stroke="#63b8ff" d="M1652.85,-138.39C1591.12,-129.96 1491.68,-115.02 1407,-96 1403.13,-95.13 1399.16,-94.17 1395.17,-93.16"/>
<polygon fill="#63b8ff" stroke="#63b8ff" points="1395.83,-89.71 1385.27,-90.55 1394.05,-96.48 1395.83,-89.71"/>
</a>
</g>
</g>
<!-- Node19 -->
<g id="Node000019" class="node">
<title>Node19</title>
<g id="a_Node000019"><a xlink:href="_address_family_enum_8hpp.html" target="_top" xlink:title=" ">
<polygon fill="white" stroke="#666666" points="844,-90.5 668,-90.5 668,-60.5 844,-60.5 844,-90.5"/>
<text text-anchor="start" x="676" y="-78.5" font-family="Helvetica,sans-Serif" font-size="10.00">Hermes/_base/OsApi</text>
<text text-anchor="middle" x="756" y="-67.5" font-family="Helvetica,sans-Serif" font-size="10.00">/Enums/AddressFamilyEnum.hpp</text>
</a>
</g>
</g>
<!-- Node8&#45;&gt;Node19 -->
<g id="edge19_Node000008_Node000019" class="edge">
<title>Node8&#45;&gt;Node19</title>
<g id="a_edge19_Node000008_Node000019"><a xlink:title=" ">
<path fill="none" stroke="#63b8ff" d="M1652.74,-145.19C1513.54,-142.7 1154.98,-132.92 858,-96 849.71,-94.97 841.07,-93.67 832.49,-92.24"/>
<polygon fill="#63b8ff" stroke="#63b8ff" points="832.92,-88.76 822.47,-90.5 831.72,-95.66 832.92,-88.76"/>
</a>
</g>
</g>
<!-- Node20 -->
<g id="Node000020" class="node">
<title>Node20</title>
<g id="a_Node000020"><a xlink:href="_protocol_base_type_enum_8hpp.html" target="_top" xlink:title=" ">
<polygon fill="white" stroke="#666666" points="2581.5,-90.5 2390.5,-90.5 2390.5,-60.5 2581.5,-60.5 2581.5,-90.5"/>
<text text-anchor="start" x="2398.5" y="-78.5" font-family="Helvetica,sans-Serif" font-size="10.00">Hermes/_base/OsApi</text>
<text text-anchor="middle" x="2486" y="-67.5" font-family="Helvetica,sans-Serif" font-size="10.00">/Enums/ProtocolBaseTypeEnum.hpp</text>
</a>
</g>
</g>
<!-- Node8&#45;&gt;Node20 -->
<g id="edge21_Node000008_Node000020" class="edge">
<title>Node8&#45;&gt;Node20</title>
<g id="a_edge21_Node000008_Node000020"><a xlink:title=" ">
<path fill="none" stroke="#63b8ff" d="M1771.28,-143.74C1888.27,-138.81 2156.93,-125.09 2381,-96 2389.26,-94.93 2397.85,-93.63 2406.41,-92.22"/>
<polygon fill="#63b8ff" stroke="#63b8ff" points="2407.14,-95.65 2416.42,-90.52 2405.97,-88.75 2407.14,-95.65"/>
</a>
</g>
</g>
<!-- Node21 -->
<g id="Node000021" class="node">
<title>Node21</title>
<g id="a_Node000021"><a xlink:href="_socket_shutdown_enum_8hpp.html" target="_top" xlink:title=" ">
<polygon fill="white" stroke="#666666" points="1084.5,-90.5 899.5,-90.5 899.5,-60.5 1084.5,-60.5 1084.5,-90.5"/>
<text text-anchor="start" x="907.5" y="-78.5" font-family="Helvetica,sans-Serif" font-size="10.00">Hermes/_base/OsApi</text>
<text text-anchor="middle" x="992" y="-67.5" font-family="Helvetica,sans-Serif" font-size="10.00">/Enums/SocketShutdownEnum.hpp</text>
</a>
</g>
</g>
<!-- Node8&#45;&gt;Node21 -->
<g id="edge23_Node000008_Node000021" class="edge">
<title>Node8&#45;&gt;Node21</title>
<g id="a_edge23_Node000008_Node000021"><a xlink:title=" ">
<path fill="none" stroke="#63b8ff" d="M1652.88,-143.4C1542.46,-138.05 1297.57,-123.92 1093,-96 1085.29,-94.95 1077.27,-93.69 1069.28,-92.32"/>
<polygon fill="#63b8ff" stroke="#63b8ff" points="1069.65,-88.83 1059.2,-90.54 1068.44,-95.73 1069.65,-88.83"/>
</a>
</g>
</g>
<!-- Node22 -->
<g id="Node000022" class="node">
<title>Node22</title>
<g id="a_Node000022"><a xlink:href="_socket_type_enum_8hpp.html" target="_top" xlink:title=" ">
<polygon fill="white" stroke="#666666" points="1261.5,-90.5 1102.5,-90.5 1102.5,-60.5 1261.5,-60.5 1261.5,-90.5"/>
<text text-anchor="start" x="1110.5" y="-78.5" font-family="Helvetica,sans-Serif" font-size="10.00">Hermes/_base/OsApi</text>
<text text-anchor="middle" x="1182" y="-67.5" font-family="Helvetica,sans-Serif" font-size="10.00">/Enums/SocketTypeEnum.hpp</text>
</a>
</g>
</g>
<!-- Node8&#45;&gt;Node22 -->
<g id="edge25_Node000008_Node000022" class="edge">
<title>Node8&#45;&gt;Node22</title>
<g id="a_edge25_Node000008_Node000022"><a xlink:title=" ">
<path fill="none" stroke="#63b8ff" d="M1652.88,-141.24C1568.01,-133.97 1406.88,-118.53 1271,-96 1264.86,-94.98 1258.5,-93.81 1252.13,-92.57"/>
<polygon fill="#63b8ff" stroke="#63b8ff" points="1252.65,-89.1 1242.16,-90.56 1251.27,-95.97 1252.65,-89.1"/>
</a>
</g>
</g>
<!-- Node23 -->
<g id="Node000023" class="node">
<title>Node23</title>
<g id="a_Node000023"><a xlink:href="_linux_2_encrypt_status_enum_8hpp.html" target="_top" xlink:title=" ">
<polygon fill="white" stroke="#666666" points="1736,-96 1584,-96 1584,-55 1736,-55 1736,-96"/>
<text text-anchor="start" x="1592" y="-84" font-family="Helvetica,sans-Serif" font-size="10.00">Hermes/_base/OsApi</text>
<text text-anchor="start" x="1592" y="-73" font-family="Helvetica,sans-Serif" font-size="10.00">/Enums/Linux/EncryptStatus</text>
<text text-anchor="middle" x="1660" y="-62" font-family="Helvetica,sans-Serif" font-size="10.00">Enum.hpp</text>
</a>
</g>
</g>
<!-- Node8&#45;&gt;Node23 -->
<g id="edge27_Node000008_Node000023" class="edge">
<title>Node8&#45;&gt;Node23</title>
<g id="a_edge27_Node000008_Node000023"><a xlink:title=" ">
<path fill="none" stroke="#63b8ff" d="M1701.48,-131.94C1695.51,-123.96 1687.83,-113.7 1680.71,-104.17"/>
<polygon fill="#63b8ff" stroke="#63b8ff" points="1683.44,-101.98 1674.64,-96.07 1677.83,-106.18 1683.44,-101.98"/>
</a>
</g>
</g>
<!-- Node24 -->
<g id="Node000024" class="node">
<title>Node24</title>
<g id="a_Node000024"><a xlink:href="_name_info_flags_8hpp.html" target="_top" xlink:title=" ">
<polygon fill="white" stroke="#666666" points="2744,-90.5 2600,-90.5 2600,-60.5 2744,-60.5 2744,-90.5"/>
<text text-anchor="start" x="2608" y="-78.5" font-family="Helvetica,sans-Serif" font-size="10.00">Hermes/_base/OsApi</text>
<text text-anchor="middle" x="2672" y="-67.5" font-family="Helvetica,sans-Serif" font-size="10.00">/Flags/NameInfoFlags.hpp</text>
</a>
</g>
</g>
<!-- Node8&#45;&gt;Node24 -->
<g id="edge28_Node000008_Node000024" class="edge">
<title>Node8&#45;&gt;Node24</title>
<g id="a_edge28_Node000008_Node000024"><a xlink:title=" ">
<path fill="none" stroke="#63b8ff" d="M1771,-146.28C1913.02,-146.17 2284.79,-141.19 2591,-96 2597.1,-95.1 2603.42,-93.96 2609.71,-92.68"/>
<polygon fill="#63b8ff" stroke="#63b8ff" points="2610.5,-96.09 2619.55,-90.57 2609.04,-89.25 2610.5,-96.09"/>
</a>
</g>
</g>
<!-- Node25 -->
<g id="Node000025" class="node">
<title>Node25</title>
<g id="a_Node000025"><a xlink:href="_linux_2_credential_flags_8hpp.html" target="_top" xlink:title=" ">
<polygon fill="white" stroke="#666666" points="1968,-90.5 1792,-90.5 1792,-60.5 1968,-60.5 1968,-90.5"/>
<text text-anchor="start" x="1800" y="-78.5" font-family="Helvetica,sans-Serif" font-size="10.00">Hermes/_base/OsApi</text>
<text text-anchor="middle" x="1880" y="-67.5" font-family="Helvetica,sans-Serif" font-size="10.00">/Flags/Linux/CredentialFlags.hpp</text>
</a>
</g>
</g>
<!-- Node8&#45;&gt;Node25 -->
<g id="edge30_Node000008_Node000025" class="edge">
<title>Node8&#45;&gt;Node25</title>
<g id="a_edge30_Node000008_Node000025"><a xlink:title=" ">
<path fill="none" stroke="#63b8ff" d="M1746,-131.94C1772.18,-121.1 1808.57,-106.05 1836.81,-94.37"/>
<polygon fill="#63b8ff" stroke="#63b8ff" points="1838.15,-97.6 1846.05,-90.54 1835.47,-91.13 1838.15,-97.6"/>
</a>
</g>
</g>
<!-- Node26 -->
<g id="Node000026" class="node">
<title>Node26</title>
<g id="a_Node000026"><a xlink:href="_linux_2_supported_protocols_flags_8hpp.html" target="_top" xlink:title=" ">
<polygon fill="white" stroke="#666666" points="2159.5,-96 1986.5,-96 1986.5,-55 2159.5,-55 2159.5,-96"/>
<text text-anchor="start" x="1994.5" y="-84" font-family="Helvetica,sans-Serif" font-size="10.00">Hermes/_base/OsApi</text>
<text text-anchor="start" x="1994.5" y="-73" font-family="Helvetica,sans-Serif" font-size="10.00">/Flags/Linux/SupportedProtocols</text>
<text text-anchor="middle" x="2073" y="-62" font-family="Helvetica,sans-Serif" font-size="10.00">Flags.hpp</text>
</a>
</g>
</g>
<!-- Node8&#45;&gt;Node26 -->
<g id="edge31_Node000008_Node000026" class="edge">
<title>Node8&#45;&gt;Node26</title>
<g id="a_edge31_Node000008_Node000026"><a xlink:title=" ">
<path fill="none" stroke="#63b8ff" d="M1771.25,-135.06C1822.78,-125.5 1899.73,-111.08 1976.55,-96.08"/>
<polygon fill="#63b8ff" stroke="#63b8ff" points="1977.26,-99.5 1986.4,-94.15 1975.92,-92.63 1977.26,-99.5"/>
</a>
</g>
</g>
<!-- Node27 -->
<g id="Node000027" class="node">
<title>Node27</title>
<g id="a_Node000027"><a xlink:href="_linux_2_s_channel_cred_flags_8hpp.html" target="_top" xlink:title=" ">
<polygon fill="white" stroke="#666666" points="2372,-90.5 2178,-90.5 2178,-60.5 2372,-60.5 2372,-90.5"/>
<text text-anchor="start" x="2186" y="-78.5" font-family="Helvetica,sans-Serif" font-size="10.00">Hermes/_base/OsApi</text>
<text text-anchor="middle" x="2275" y="-67.5" font-family="Helvetica,sans-Serif" font-size="10.00">/Flags/Linux/SChannelCredFlags.hpp</text>
</a>
</g>
</g>
<!-- Node8&#45;&gt;Node27 -->
<g id="edge32_Node000008_Node000027" class="edge">
<title>Node8&#45;&gt;Node27</title>
<g id="a_edge32_Node000008_Node000027"><a xlink:title=" ">
<path fill="none" stroke="#63b8ff" d="M1771.33,-140.9C1858.67,-133.08 2026.85,-116.82 2169,-96 2176.68,-94.87 2184.66,-93.6 2192.63,-92.26"/>
<polygon fill="#63b8ff" stroke="#63b8ff" points="2193.44,-95.67 2202.7,-90.53 2192.25,-88.77 2193.44,-95.67"/>
</a>
</g>
</g>
<!-- Node16 -->
<g id="Node000016" class="node">
<title>Node16</title>
<g id="a_Node000016"><a xlink:title=" ">
<polygon fill="#e0e0e0" stroke="#999999" points="1516,-19 1466,-19 1466,0 1516,0 1516,-19"/>
<text text-anchor="middle" x="1491" y="-7" font-family="Helvetica,sans-Serif" font-size="10.00">cstdint</text>
</a>
</g>
</g>
<!-- Node15&#45;&gt;Node16 -->
<g id="edge15_Node000015_Node000016" class="edge">
<title>Node15&#45;&gt;Node16</title>
<g id="a_edge15_Node000015_Node000016"><a xlink:title=" ">
<path fill="none" stroke="#63b8ff" d="M1491,-60.3C1491,-51.2 1491,-39.29 1491,-29.4"/>
<polygon fill="#63b8ff" stroke="#63b8ff" points="1494.5,-29.34 1491,-19.34 1487.5,-29.34 1494.5,-29.34"/>
</a>
</g>
</g>
<!-- Node17&#45;&gt;Node9 -->
<g id="edge18_Node000017_Node000009" class="edge">
<title>Node17&#45;&gt;Node9</title>
<g id="a_edge18_Node000017_Node000009"><a xlink:title=" ">
<path fill="none" stroke="#63b8ff" d="M1292.05,-60.44C1284.7,-58.47 1277.17,-56.58 1270,-55 1190.47,-37.46 1096.69,-23.9 1040.91,-16.57"/>
<polygon fill="#63b8ff" stroke="#63b8ff" points="1041.31,-13.09 1030.95,-15.27 1040.41,-20.04 1041.31,-13.09"/>
</a>
</g>
</g>
<!-- Node18 -->
<g id="Node000018" class="node">
<title>Node18</title>
<g id="a_Node000018"><a xlink:title=" ">
<polygon fill="#e0e0e0" stroke="#999999" points="1375.5,-19 1302.5,-19 1302.5,0 1375.5,0 1375.5,-19"/>
<text text-anchor="middle" x="1339" y="-7" font-family="Helvetica,sans-Serif" font-size="10.00">string_view</text>
</a>
</g>
</g>
<!-- Node17&#45;&gt;Node18 -->
<g id="edge17_Node000017_Node000018" class="edge">
<title>Node17&#45;&gt;Node18</title>
<g id="a_edge17_Node000017_Node000018"><a xlink:title=" ">
<path fill="none" stroke="#63b8ff" d="M1339,-60.3C1339,-51.2 1339,-39.29 1339,-29.4"/>
<polygon fill="#63b8ff" stroke="#63b8ff" points="1342.5,-29.34 1339,-19.34 1335.5,-29.34 1342.5,-29.34"/>
</a>
</g>
</g>
<!-- Node19&#45;&gt;Node9 -->
<g id="edge20_Node000019_Node000009" class="edge">
<title>Node19&#45;&gt;Node9</title>
<g id="a_edge20_Node000019_Node000009"><a xlink:title=" ">
<path fill="none" stroke="#63b8ff" d="M807.79,-60.45C850.73,-48.81 910.96,-32.48 950.7,-21.7"/>
<polygon fill="#63b8ff" stroke="#63b8ff" points="951.86,-25.01 960.59,-19.02 950.02,-18.26 951.86,-25.01"/>
</a>
</g>
</g>
<!-- Node20&#45;&gt;Node10 -->
<g id="edge22_Node000020_Node000010" class="edge">
<title>Node20&#45;&gt;Node10</title>
<g id="a_edge22_Node000020_Node000010"><a xlink:title=" ">
<path fill="none" stroke="#63b8ff" d="M2411.17,-60.49C2401.03,-58.63 2390.76,-56.76 2381,-55 2307.69,-41.82 2222.44,-27.13 2171.16,-18.36"/>
<polygon fill="#63b8ff" stroke="#63b8ff" points="2171.51,-14.87 2161.06,-16.63 2170.33,-21.77 2171.51,-14.87"/>
</a>
</g>
</g>
<!-- Node21&#45;&gt;Node9 -->
<g id="edge24_Node000021_Node000009" class="edge">
<title>Node21&#45;&gt;Node9</title>
<g id="a_edge24_Node000021_Node000009"><a xlink:title=" ">
<path fill="none" stroke="#63b8ff" d="M992,-60.3C992,-51.2 992,-39.29 992,-29.4"/>
<polygon fill="#63b8ff" stroke="#63b8ff" points="995.5,-29.34 992,-19.34 988.5,-29.34 995.5,-29.34"/>
</a>
</g>
</g>
<!-- Node22&#45;&gt;Node9 -->
<g id="edge26_Node000022_Node000009" class="edge">
<title>Node22&#45;&gt;Node9</title>
<g id="a_edge26_Node000022_Node000009"><a xlink:title=" ">
<path fill="none" stroke="#63b8ff" d="M1140.3,-60.45C1106.4,-49.03 1059.09,-33.1 1027.1,-22.32"/>
<polygon fill="#63b8ff" stroke="#63b8ff" points="1027.88,-18.89 1017.29,-19.02 1025.65,-25.53 1027.88,-18.89"/>
</a>
</g>
</g>
<!-- Node24&#45;&gt;Node12 -->
<g id="edge29_Node000024_Node000012" class="edge">
<title>Node24&#45;&gt;Node12</title>
<g id="a_edge29_Node000024_Node000012"><a xlink:title=" ">
<path fill="none" stroke="#63b8ff" d="M2692.86,-60.3C2708.32,-49.77 2729.32,-35.47 2744.85,-24.9"/>
<polygon fill="#63b8ff" stroke="#63b8ff" points="2746.99,-27.68 2753.28,-19.16 2743.05,-21.89 2746.99,-27.68"/>
</a>
</g>
</g>
</g>
</svg>
