<?xml version="1.0" encoding="UTF-8" standalone="no"?>
<!DOCTYPE svg PUBLIC "-//W3C//DTD SVG 1.1//EN"
 "http://www.w3.org/Graphics/SVG/1.1/DTD/svg11.dtd">
<!-- Generated by graphviz version 2.43.0 (0)
 -->
<!-- Title: include/Hermes/Endpoint/_base/EndpointConcept.hpp Pages: 1 -->
<svg width="4102pt" height="236pt"
 viewBox="0.00 0.00 4102.00 236.00" xmlns="http://www.w3.org/2000/svg" xmlns:xlink="http://www.w3.org/1999/xlink">
<g id="graph0" class="graph" transform="scale(1 1) rotate(0) translate(4 232)">
<title>include/Hermes/Endpoint/_base/EndpointConcept.hpp</title>
<!-- Node1 -->
<g id="Node000001" class="node">
<title>Node1</title>
<g id="a_Node000001"><a xlink:title=" ">
<polygon fill="#999999" stroke="#666666" points="1353.5,-228 1198.5,-228 1198.5,-198 1353.5,-198 1353.5,-228"/>
<text text-anchor="start" x="1206.5" y="-216" font-family="Helvetica,sans-Serif" font-size="10.00">include/Hermes/Endpoint</text>
<text text-anchor="middle" x="1276" y="-205" font-family="Helvetica,sans-Serif" font-size="10.00">/_base/EndpointConcept.hpp</text>
</a>
</g>
</g>
<!-- Node2 -->
<g id="Node000002" class="node">
<title>Node2</title>
<g id="a_Node000002"><a xlink:href="_connection_error_enum_8hpp.html" target="_top" xlink:title=" ">
<polygon fill="white" stroke="#666666" points="380.5,-162 213.5,-162 213.5,-132 380.5,-132 380.5,-162"/>
<text text-anchor="start" x="221.5" y="-150" font-family="Helvetica,sans-Serif" font-size="10.00">Hermes/_base/ConnectionError</text>
<text text-anchor="middle" x="297" y="-139" font-family="Helvetica,sans-Serif" font-size="10.00">Enum.hpp</text>
</a>
</g>
</g>
<!-- Node1&#45;&gt;Node2 -->
<g id="edge1_Node000001_Node000002" class="edge">
<title>Node1&#45;&gt;Node2</title>
<g id="a_edge1_Node000001_Node000002"><a xlink:title=" ">
<path fill="none" stroke="#63b8ff" d="M1198.36,-206.92C1020.31,-195.28 583.12,-166.7 390.6,-154.12"/>
<polygon fill="#63b8ff" stroke="#63b8ff" points="390.71,-150.62 380.5,-153.46 390.25,-157.6 390.71,-150.62"/>
</a>
</g>
</g>
<!-- Node10 -->
<g id="Node000010" class="node">
<title>Node10</title>
<g id="a_Node000010"><a xlink:href="_win_api_8hpp.html" target="_top" xlink:title=" ">
<polygon fill="white" stroke="#666666" points="2420,-162 2296,-162 2296,-132 2420,-132 2420,-162"/>
<text text-anchor="start" x="2304" y="-150" font-family="Helvetica,sans-Serif" font-size="10.00">Hermes/_base/WinApi</text>
<text text-anchor="middle" x="2358" y="-139" font-family="Helvetica,sans-Serif" font-size="10.00">/WinApi.hpp</text>
</a>
</g>
</g>
<!-- Node1&#45;&gt;Node10 -->
<g id="edge9_Node000001_Node000010" class="edge">
<title>Node1&#45;&gt;Node10</title>
<g id="a_edge9_Node000001_Node000010"><a xlink:title=" ">
<path fill="none" stroke="#63b8ff" d="M1353.81,-207.4C1555.06,-195.49 2090.57,-163.82 2285.63,-152.28"/>
<polygon fill="#63b8ff" stroke="#63b8ff" points="2286,-155.77 2295.77,-151.68 2285.58,-148.78 2286,-155.77"/>
</a>
</g>
</g>
<!-- Node3 -->
<g id="Node000003" class="node">
<title>Node3</title>
<g id="a_Node000003"><a xlink:title=" ">
<polygon fill="#e0e0e0" stroke="#999999" points="62,-85 0,-85 0,-66 62,-66 62,-85"/>
<text text-anchor="middle" x="31" y="-73" font-family="Helvetica,sans-Serif" font-size="10.00">expected</text>
</a>
</g>
</g>
<!-- Node2&#45;&gt;Node3 -->
<g id="edge2_Node000002_Node000003" class="edge">
<title>Node2&#45;&gt;Node3</title>
<g id="a_edge2_Node000002_Node000003"><a xlink:title=" ">
<path fill="none" stroke="#63b8ff" d="M213.31,-132.36C170.13,-124.11 117,-112.05 71,-96 65.93,-94.23 60.67,-91.99 55.69,-89.66"/>
<polygon fill="#63b8ff" stroke="#63b8ff" points="57.11,-86.45 46.59,-85.17 54.01,-92.73 57.11,-86.45"/>
</a>
</g>
</g>
<!-- Node4 -->
<g id="Node000004" class="node">
<title>Node4</title>
<g id="a_Node000004"><a xlink:title=" ">
<polygon fill="#e0e0e0" stroke="#999999" points="127.5,-85 80.5,-85 80.5,-66 127.5,-66 127.5,-85"/>
<text text-anchor="middle" x="104" y="-73" font-family="Helvetica,sans-Serif" font-size="10.00">vector</text>
</a>
</g>
</g>
<!-- Node2&#45;&gt;Node4 -->
<g id="edge3_Node000002_Node000004" class="edge">
<title>Node2&#45;&gt;Node4</title>
<g id="a_edge3_Node000002_Node000004"><a xlink:title=" ">
<path fill="none" stroke="#63b8ff" d="M241.05,-131.94C209.79,-123.24 170.51,-110.9 137,-96 133.28,-94.34 129.44,-92.36 125.77,-90.31"/>
<polygon fill="#63b8ff" stroke="#63b8ff" points="127.5,-87.27 117.11,-85.19 123.94,-93.3 127.5,-87.27"/>
</a>
</g>
</g>
<!-- Node5 -->
<g id="Node000005" class="node">
<title>Node5</title>
<g id="a_Node000005"><a xlink:title=" ">
<polygon fill="#e0e0e0" stroke="#999999" points="186,-85 146,-85 146,-66 186,-66 186,-85"/>
<text text-anchor="middle" x="166" y="-73" font-family="Helvetica,sans-Serif" font-size="10.00">span</text>
</a>
</g>
</g>
<!-- Node2&#45;&gt;Node5 -->
<g id="edge4_Node000002_Node000005" class="edge">
<title>Node2&#45;&gt;Node5</title>
<g id="a_edge4_Node000002_Node000005"><a xlink:title=" ">
<path fill="none" stroke="#63b8ff" d="M265.63,-131.97C245.16,-122.49 218.05,-109.32 195,-96 192.11,-94.33 189.12,-92.48 186.22,-90.6"/>
<polygon fill="#63b8ff" stroke="#63b8ff" points="188.16,-87.69 177.9,-85.04 184.26,-93.51 188.16,-87.69"/>
</a>
</g>
</g>
<!-- Node6 -->
<g id="Node000006" class="node">
<title>Node6</title>
<g id="a_Node000006"><a xlink:title=" ">
<polygon fill="#e0e0e0" stroke="#999999" points="273.5,-85 204.5,-85 204.5,-66 273.5,-66 273.5,-85"/>
<text text-anchor="middle" x="239" y="-73" font-family="Helvetica,sans-Serif" font-size="10.00">type_traits</text>
</a>
</g>
</g>
<!-- Node2&#45;&gt;Node6 -->
<g id="edge5_Node000002_Node000006" class="edge">
<title>Node2&#45;&gt;Node6</title>
<g id="a_edge5_Node000002_Node000006"><a xlink:title=" ">
<path fill="none" stroke="#63b8ff" d="M285.26,-131.94C275.89,-120.7 262.73,-104.93 252.84,-93.08"/>
<polygon fill="#63b8ff" stroke="#63b8ff" points="255.41,-90.7 246.32,-85.27 250.04,-95.19 255.41,-90.7"/>
</a>
</g>
</g>
<!-- Node7 -->
<g id="Node000007" class="node">
<title>Node7</title>
<g id="a_Node000007"><a xlink:title=" ">
<polygon fill="#e0e0e0" stroke="#999999" points="416.5,-85 291.5,-85 291.5,-66 416.5,-66 416.5,-85"/>
<text text-anchor="middle" x="354" y="-73" font-family="Helvetica,sans-Serif" font-size="10.00">stdexec/execution.hpp</text>
</a>
</g>
</g>
<!-- Node2&#45;&gt;Node7 -->
<g id="edge6_Node000002_Node000007" class="edge">
<title>Node2&#45;&gt;Node7</title>
<g id="a_edge6_Node000002_Node000007"><a xlink:title=" ">
<path fill="none" stroke="#63b8ff" d="M308.53,-131.94C317.75,-120.7 330.68,-104.93 340.4,-93.08"/>
<polygon fill="#63b8ff" stroke="#63b8ff" points="343.17,-95.22 346.81,-85.27 337.76,-90.78 343.17,-95.22"/>
</a>
</g>
</g>
<!-- Node8 -->
<g id="Node000008" class="node">
<title>Node8</title>
<g id="a_Node000008"><a xlink:title=" ">
<polygon fill="#e0e0e0" stroke="#999999" points="569,-85 435,-85 435,-66 569,-66 569,-85"/>
<text text-anchor="middle" x="502" y="-73" font-family="Helvetica,sans-Serif" font-size="10.00">exec/any_sender_of.hpp</text>
</a>
</g>
</g>
<!-- Node2&#45;&gt;Node8 -->
<g id="edge7_Node000002_Node000008" class="edge">
<title>Node2&#45;&gt;Node8</title>
<g id="a_edge7_Node000002_Node000008"><a xlink:title=" ">
<path fill="none" stroke="#63b8ff" d="M338.48,-131.94C376.34,-119.1 431.66,-100.35 467.24,-88.28"/>
<polygon fill="#63b8ff" stroke="#63b8ff" points="468.38,-91.59 476.73,-85.07 466.13,-84.96 468.38,-91.59"/>
</a>
</g>
</g>
<!-- Node9 -->
<g id="Node000009" class="node">
<title>Node9</title>
<g id="a_Node000009"><a xlink:title=" ">
<polygon fill="#e0e0e0" stroke="#999999" points="754.5,-90.5 587.5,-90.5 587.5,-60.5 754.5,-60.5 754.5,-90.5"/>
<text text-anchor="start" x="595.5" y="-78.5" font-family="Helvetica,sans-Serif" font-size="10.00">Hermes/_base/ConnectionError</text>
<text text-anchor="middle" x="671" y="-67.5" font-family="Helvetica,sans-Serif" font-size="10.00">Enum.tpp</text>
</a>
</g>
</g>
<!-- Node2&#45;&gt;Node9 -->
<g id="edge8_Node000002_Node000009" class="edge">
<title>Node2&#45;&gt;Node9</title>
<g id="a_edge8_Node000002_Node000009"><a xlink:title=" ">
<path fill="none" stroke="#63b8ff" d="M379.81,-131.95C435.84,-122.28 511.48,-108.89 578,-96 583.65,-94.9 589.5,-93.74 595.37,-92.56"/>
<polygon fill="#63b8ff" stroke="#63b8ff" points="596.16,-95.97 605.26,-90.55 594.76,-89.11 596.16,-95.97"/>
</a>
</g>
</g>
<!-- Node11 -->
<g id="Node000011" class="node">
<title>Node11</title>
<g id="a_Node000011"><a xlink:title=" ">
<polygon fill="#e0e0e0" stroke="#999999" points="2194.5,-85 2125.5,-85 2125.5,-66 2194.5,-66 2194.5,-85"/>
<text text-anchor="middle" x="2160" y="-73" font-family="Helvetica,sans-Serif" font-size="10.00">ws2tcpip.h</text>
</a>
</g>
</g>
<!-- Node10&#45;&gt;Node11 -->
<g id="edge10_Node000010_Node000011" class="edge">
<title>Node10&#45;&gt;Node11</title>
<g id="a_edge10_Node000010_Node000011"><a xlink:title=" ">
<path fill="none" stroke="#63b8ff" d="M2314.1,-131.97C2284.3,-122.28 2244.1,-108.86 2209,-96 2202.91,-93.77 2196.43,-91.28 2190.25,-88.84"/>
<polygon fill="#63b8ff" stroke="#63b8ff" points="2191.47,-85.56 2180.89,-85.11 2188.88,-92.06 2191.47,-85.56"/>
</a>
</g>
</g>
<!-- Node12 -->
<g id="Node000012" class="node">
<title>Node12</title>
<g id="a_Node000012"><a xlink:title=" ">
<polygon fill="#e0e0e0" stroke="#999999" points="2258.5,-19 2187.5,-19 2187.5,0 2258.5,0 2258.5,-19"/>
<text text-anchor="middle" x="2223" y="-7" font-family="Helvetica,sans-Serif" font-size="10.00">winsock2.h</text>
</a>
</g>
</g>
<!-- Node10&#45;&gt;Node12 -->
<g id="edge11_Node000010_Node000012" class="edge">
<title>Node10&#45;&gt;Node12</title>
<g id="a_edge11_Node000010_Node000012"><a xlink:title=" ">
<path fill="none" stroke="#63b8ff" d="M2297.45,-131.97C2277.15,-124.45 2256.12,-113.06 2242,-96 2226.35,-77.09 2222.88,-48.03 2222.46,-29.15"/>
<polygon fill="#63b8ff" stroke="#63b8ff" points="2225.96,-29.13 2222.49,-19.12 2218.96,-29.1 2225.96,-29.13"/>
</a>
</g>
</g>
<!-- Node13 -->
<g id="Node000013" class="node">
<title>Node13</title>
<g id="a_Node000013"><a xlink:title=" ">
<polygon fill="#e0e0e0" stroke="#999999" points="2538.5,-19 2469.5,-19 2469.5,0 2538.5,0 2538.5,-19"/>
<text text-anchor="middle" x="2504" y="-7" font-family="Helvetica,sans-Serif" font-size="10.00">schannel.h</text>
</a>
</g>
</g>
<!-- Node10&#45;&gt;Node13 -->
<g id="edge12_Node000010_Node000013" class="edge">
<title>Node10&#45;&gt;Node13</title>
<g id="a_edge12_Node000010_Node000013"><a xlink:title=" ">
<path fill="none" stroke="#63b8ff" d="M2365.23,-131.85C2375.65,-112.53 2396.47,-77.74 2422,-55 2436.97,-41.67 2456.62,-30.83 2472.93,-23.19"/>
<polygon fill="#63b8ff" stroke="#63b8ff" points="2474.41,-26.36 2482.09,-19.07 2471.53,-19.98 2474.41,-26.36"/>
</a>
</g>
</g>
<!-- Node14 -->
<g id="Node000014" class="node">
<title>Node14</title>
<g id="a_Node000014"><a xlink:title=" ">
<polygon fill="#e0e0e0" stroke="#999999" points="3400.5,-19 3355.5,-19 3355.5,0 3400.5,0 3400.5,-19"/>
<text text-anchor="middle" x="3378" y="-7" font-family="Helvetica,sans-Serif" font-size="10.00">sspi.h</text>
</a>
</g>
</g>
<!-- Node10&#45;&gt;Node14 -->
<g id="edge13_Node000010_Node000014" class="edge">
<title>Node10&#45;&gt;Node14</title>
<g id="a_edge13_Node000010_Node000014"><a xlink:title=" ">
<path fill="none" stroke="#63b8ff" d="M2420.03,-146.55C2556.95,-146.87 2880.55,-142.53 2978,-96 3000.7,-85.16 2994.54,-66.31 3017,-55 3074.23,-26.18 3267.61,-15.09 3345.3,-11.73"/>
<polygon fill="#63b8ff" stroke="#63b8ff" points="3345.62,-15.22 3355.46,-11.3 3345.33,-8.22 3345.62,-15.22"/>
</a>
</g>
</g>
<!-- Node15 -->
<g id="Node000015" class="node">
<title>Node15</title>
<g id="a_Node000015"><a xlink:href="_conversion_and_literals_8hpp.html" target="_top" xlink:title=" ">
<polygon fill="white" stroke="#666666" points="922,-90.5 772,-90.5 772,-60.5 922,-60.5 922,-90.5"/>
<text text-anchor="start" x="780" y="-78.5" font-family="Helvetica,sans-Serif" font-size="10.00">Hermes/_base/WinApi</text>
<text text-anchor="middle" x="847" y="-67.5" font-family="Helvetica,sans-Serif" font-size="10.00">/ConversionAndLiterals.hpp</text>
</a>
</g>
</g>
<!-- Node10&#45;&gt;Node15 -->
<g id="edge14_Node000010_Node000015" class="edge">
<title>Node10&#45;&gt;Node15</title>
<g id="a_edge14_Node000010_Node000015"><a xlink:title=" ">
<path fill="none" stroke="#63b8ff" d="M2295.69,-145.42C2057,-142.94 1200.71,-131.69 931,-96 924.32,-95.12 917.39,-93.94 910.51,-92.6"/>
<polygon fill="#63b8ff" stroke="#63b8ff" points="910.99,-89.13 900.49,-90.54 909.58,-95.98 910.99,-89.13"/>
</a>
</g>
</g>
<!-- Node17 -->
<g id="Node000017" class="node">
<title>Node17</title>
<g id="a_Node000017"><a xlink:href="_macros_8hpp.html" target="_top" xlink:title=" ">
<polygon fill="white" stroke="#666666" points="2375,-90.5 2251,-90.5 2251,-60.5 2375,-60.5 2375,-90.5"/>
<text text-anchor="start" x="2259" y="-78.5" font-family="Helvetica,sans-Serif" font-size="10.00">Hermes/_base/WinApi</text>
<text text-anchor="middle" x="2313" y="-67.5" font-family="Helvetica,sans-Serif" font-size="10.00">/Macros.hpp</text>
</a>
</g>
</g>
<!-- Node10&#45;&gt;Node17 -->
<g id="edge16_Node000010_Node000017" class="edge">
<title>Node10&#45;&gt;Node17</title>
<g id="a_edge16_Node000010_Node000017"><a xlink:title=" ">
<path fill="none" stroke="#63b8ff" d="M2348.89,-131.94C2342.79,-122.52 2334.63,-109.91 2327.63,-99.09"/>
<polygon fill="#63b8ff" stroke="#63b8ff" points="2330.47,-97.04 2322.09,-90.54 2324.59,-100.84 2330.47,-97.04"/>
</a>
</g>
</g>
<!-- Node19 -->
<g id="Node000019" class="node">
<title>Node19</title>
<g id="a_Node000019"><a xlink:href="_address_family_enum_8hpp.html" target="_top" xlink:title=" ">
<polygon fill="white" stroke="#666666" points="1116,-90.5 940,-90.5 940,-60.5 1116,-60.5 1116,-90.5"/>
<text text-anchor="start" x="948" y="-78.5" font-family="Helvetica,sans-Serif" font-size="10.00">Hermes/_base/WinApi</text>
<text text-anchor="middle" x="1028" y="-67.5" font-family="Helvetica,sans-Serif" font-size="10.00">/Enums/AddressFamilyEnum.hpp</text>
</a>
</g>
</g>
<!-- Node10&#45;&gt;Node19 -->
<g id="edge21_Node000010_Node000019" class="edge">
<title>Node10&#45;&gt;Node19</title>
<g id="a_edge21_Node000010_Node000019"><a xlink:title=" ">
<path fill="none" stroke="#63b8ff" d="M2295.82,-144.78C2078.75,-140.31 1355.39,-123.65 1125,-96 1117,-95.04 1108.67,-93.78 1100.41,-92.35"/>
<polygon fill="#63b8ff" stroke="#63b8ff" points="1100.84,-88.88 1090.38,-90.55 1099.6,-95.76 1100.84,-88.88"/>
</a>
</g>
</g>
<!-- Node21 -->
<g id="Node000021" class="node">
<title>Node21</title>
<g id="a_Node000021"><a xlink:href="_condition_function_enum_8hpp.html" target="_top" xlink:title=" ">
<polygon fill="white" stroke="#666666" points="1713,-90.5 1521,-90.5 1521,-60.5 1713,-60.5 1713,-90.5"/>
<text text-anchor="start" x="1529" y="-78.5" font-family="Helvetica,sans-Serif" font-size="10.00">Hermes/_base/WinApi</text>
<text text-anchor="middle" x="1617" y="-67.5" font-family="Helvetica,sans-Serif" font-size="10.00">/Enums/ConditionFunctionEnum.hpp</text>
</a>
</g>
</g>
<!-- Node10&#45;&gt;Node21 -->
<g id="edge23_Node000010_Node000021" class="edge">
<title>Node10&#45;&gt;Node21</title>
<g id="a_edge23_Node000010_Node000021"><a xlink:title=" ">
<path fill="none" stroke="#63b8ff" d="M2295.93,-143.29C2181.88,-137.83 1931.46,-123.61 1722,-96 1713.81,-94.92 1705.29,-93.63 1696.8,-92.22"/>
<polygon fill="#63b8ff" stroke="#63b8ff" points="1697.32,-88.76 1686.87,-90.53 1696.14,-95.66 1697.32,-88.76"/>
</a>
</g>
</g>
<!-- Node23 -->
<g id="Node000023" class="node">
<title>Node23</title>
<g id="a_Node000023"><a xlink:href="_encrypt_status_enum_8hpp.html" target="_top" xlink:title=" ">
<polygon fill="white" stroke="#666666" points="2107,-90.5 1935,-90.5 1935,-60.5 2107,-60.5 2107,-90.5"/>
<text text-anchor="start" x="1943" y="-78.5" font-family="Helvetica,sans-Serif" font-size="10.00">Hermes/_base/WinApi</text>
<text text-anchor="middle" x="2021" y="-67.5" font-family="Helvetica,sans-Serif" font-size="10.00">/Enums/EncryptStatusEnum.hpp</text>
</a>
</g>
</g>
<!-- Node10&#45;&gt;Node23 -->
<g id="edge25_Node000010_Node000023" class="edge">
<title>Node10&#45;&gt;Node23</title>
<g id="a_edge25_Node000010_Node000023"><a xlink:title=" ">
<path fill="none" stroke="#63b8ff" d="M2295.8,-133.17C2240.33,-121.73 2158.9,-104.94 2099.08,-92.6"/>
<polygon fill="#63b8ff" stroke="#63b8ff" points="2099.42,-89.1 2088.92,-90.51 2098.01,-95.95 2099.42,-89.1"/>
</a>
</g>
</g>
<!-- Node25 -->
<g id="Node000025" class="node">
<title>Node25</title>
<g id="a_Node000025"><a xlink:href="_protocol_base_type_enum_8hpp.html" target="_top" xlink:title=" ">
<polygon fill="white" stroke="#666666" points="1325.5,-90.5 1134.5,-90.5 1134.5,-60.5 1325.5,-60.5 1325.5,-90.5"/>
<text text-anchor="start" x="1142.5" y="-78.5" font-family="Helvetica,sans-Serif" font-size="10.00">Hermes/_base/WinApi</text>
<text text-anchor="middle" x="1230" y="-67.5" font-family="Helvetica,sans-Serif" font-size="10.00">/Enums/ProtocolBaseTypeEnum.hpp</text>
</a>
</g>
</g>
<!-- Node10&#45;&gt;Node25 -->
<g id="edge27_Node000010_Node000025" class="edge">
<title>Node10&#45;&gt;Node25</title>
<g id="a_edge27_Node000010_Node000025"><a xlink:title=" ">
<path fill="none" stroke="#63b8ff" d="M2295.71,-145.91C2135.56,-145.05 1696.6,-138.64 1334,-96 1325.38,-94.99 1316.41,-93.68 1307.5,-92.23"/>
<polygon fill="#63b8ff" stroke="#63b8ff" points="1307.93,-88.76 1297.49,-90.54 1306.76,-95.66 1307.93,-88.76"/>
</a>
</g>
</g>
<!-- Node26 -->
<g id="Node000026" class="node">
<title>Node26</title>
<g id="a_Node000026"><a xlink:href="_s_ch_cred_enum_8hpp.html" target="_top" xlink:title=" ">
<polygon fill="white" stroke="#666666" points="2577,-90.5 2431,-90.5 2431,-60.5 2577,-60.5 2577,-90.5"/>
<text text-anchor="start" x="2439" y="-78.5" font-family="Helvetica,sans-Serif" font-size="10.00">Hermes/_base/WinApi</text>
<text text-anchor="middle" x="2504" y="-67.5" font-family="Helvetica,sans-Serif" font-size="10.00">/Enums/SChCredEnum.hpp</text>
</a>
</g>
</g>
<!-- Node10&#45;&gt;Node26 -->
<g id="edge29_Node000010_Node000026" class="edge">
<title>Node10&#45;&gt;Node26</title>
<g id="a_edge29_Node000010_Node000026"><a xlink:title=" ">
<path fill="none" stroke="#63b8ff" d="M2387.55,-131.94C2409.91,-121.29 2440.82,-106.57 2465.18,-94.98"/>
<polygon fill="#63b8ff" stroke="#63b8ff" points="2466.97,-98 2474.5,-90.54 2463.97,-91.68 2466.97,-98"/>
</a>
</g>
</g>
<!-- Node27 -->
<g id="Node000027" class="node">
<title>Node27</title>
<g id="a_Node000027"><a xlink:href="_security_buffer_enum_8hpp.html" target="_top" xlink:title=" ">
<polygon fill="white" stroke="#666666" points="3198.5,-90.5 3025.5,-90.5 3025.5,-60.5 3198.5,-60.5 3198.5,-90.5"/>
<text text-anchor="start" x="3033.5" y="-78.5" font-family="Helvetica,sans-Serif" font-size="10.00">Hermes/_base/WinApi</text>
<text text-anchor="middle" x="3112" y="-67.5" font-family="Helvetica,sans-Serif" font-size="10.00">/Enums/SecurityBufferEnum.hpp</text>
</a>
</g>
</g>
<!-- Node10&#45;&gt;Node27 -->
<g id="edge31_Node000010_Node000027" class="edge">
<title>Node10&#45;&gt;Node27</title>
<g id="a_edge31_Node000010_Node000027"><a xlink:title=" ">
<path fill="none" stroke="#63b8ff" d="M2420.37,-143.6C2536.86,-138.59 2795.2,-125 3011,-96 3018.86,-94.94 3027.04,-93.67 3035.19,-92.28"/>
<polygon fill="#63b8ff" stroke="#63b8ff" points="3035.84,-95.72 3045.08,-90.53 3034.63,-88.82 3035.84,-95.72"/>
</a>
</g>
</g>
<!-- Node28 -->
<g id="Node000028" class="node">
<title>Node28</title>
<g id="a_Node000028"><a xlink:href="_socket_shutdown_enum_8hpp.html" target="_top" xlink:title=" ">
<polygon fill="white" stroke="#666666" points="1916.5,-90.5 1731.5,-90.5 1731.5,-60.5 1916.5,-60.5 1916.5,-90.5"/>
<text text-anchor="start" x="1739.5" y="-78.5" font-family="Helvetica,sans-Serif" font-size="10.00">Hermes/_base/WinApi</text>
<text text-anchor="middle" x="1824" y="-67.5" font-family="Helvetica,sans-Serif" font-size="10.00">/Enums/SocketShutdownEnum.hpp</text>
</a>
</g>
</g>
<!-- Node10&#45;&gt;Node28 -->
<g id="edge33_Node000010_Node000028" class="edge">
<title>Node10&#45;&gt;Node28</title>
<g id="a_edge33_Node000010_Node000028"><a xlink:title=" ">
<path fill="none" stroke="#63b8ff" d="M2295.93,-140.27C2211.84,-132.17 2057.16,-116.1 1926,-96 1918.69,-94.88 1911.1,-93.62 1903.52,-92.29"/>
<polygon fill="#63b8ff" stroke="#63b8ff" points="1904.02,-88.82 1893.56,-90.51 1902.79,-95.71 1904.02,-88.82"/>
</a>
</g>
</g>
<!-- Node29 -->
<g id="Node000029" class="node">
<title>Node29</title>
<g id="a_Node000029"><a xlink:href="_socket_type_enum_8hpp.html" target="_top" xlink:title=" ">
<polygon fill="white" stroke="#666666" points="1502.5,-90.5 1343.5,-90.5 1343.5,-60.5 1502.5,-60.5 1502.5,-90.5"/>
<text text-anchor="start" x="1351.5" y="-78.5" font-family="Helvetica,sans-Serif" font-size="10.00">Hermes/_base/WinApi</text>
<text text-anchor="middle" x="1423" y="-67.5" font-family="Helvetica,sans-Serif" font-size="10.00">/Enums/SocketTypeEnum.hpp</text>
</a>
</g>
</g>
<!-- Node10&#45;&gt;Node29 -->
<g id="edge35_Node000010_Node000029" class="edge">
<title>Node10&#45;&gt;Node29</title>
<g id="a_edge35_Node000010_Node000029"><a xlink:title=" ">
<path fill="none" stroke="#63b8ff" d="M2295.85,-145.65C2155.44,-144.14 1803.31,-136.27 1512,-96 1505.16,-95.05 1498.06,-93.86 1490.99,-92.54"/>
<polygon fill="#63b8ff" stroke="#63b8ff" points="1491.18,-89.01 1480.69,-90.52 1489.83,-95.88 1491.18,-89.01"/>
</a>
</g>
</g>
<!-- Node30 -->
<g id="Node000030" class="node">
<title>Node30</title>
<g id="a_Node000030"><a xlink:href="_credential_flags_8hpp.html" target="_top" xlink:title=" ">
<polygon fill="white" stroke="#666666" points="3363,-90.5 3217,-90.5 3217,-60.5 3363,-60.5 3363,-90.5"/>
<text text-anchor="start" x="3225" y="-78.5" font-family="Helvetica,sans-Serif" font-size="10.00">Hermes/_base/WinApi</text>
<text text-anchor="middle" x="3290" y="-67.5" font-family="Helvetica,sans-Serif" font-size="10.00">/Flags/CredentialFlags.hpp</text>
</a>
</g>
</g>
<!-- Node10&#45;&gt;Node30 -->
<g id="edge37_Node000010_Node000030" class="edge">
<title>Node10&#45;&gt;Node30</title>
<g id="a_edge37_Node000010_Node000030"><a xlink:title=" ">
<path fill="none" stroke="#63b8ff" d="M2420.24,-146.05C2561.23,-145.35 2915.5,-139.04 3208,-96 3214.18,-95.09 3220.57,-93.94 3226.94,-92.66"/>
<polygon fill="#63b8ff" stroke="#63b8ff" points="3227.83,-96.05 3236.89,-90.55 3226.38,-89.2 3227.83,-96.05"/>
</a>
</g>
</g>
<!-- Node31 -->
<g id="Node000031" class="node">
<title>Node31</title>
<g id="a_Node000031"><a xlink:href="_supported_protocols_flags_8hpp.html" target="_top" xlink:title=" ">
<polygon fill="white" stroke="#666666" points="2786.5,-90.5 2595.5,-90.5 2595.5,-60.5 2786.5,-60.5 2786.5,-90.5"/>
<text text-anchor="start" x="2603.5" y="-78.5" font-family="Helvetica,sans-Serif" font-size="10.00">Hermes/_base/WinApi</text>
<text text-anchor="middle" x="2691" y="-67.5" font-family="Helvetica,sans-Serif" font-size="10.00">/Flags/SupportedProtocolsFlags.hpp</text>
</a>
</g>
</g>
<!-- Node10&#45;&gt;Node31 -->
<g id="edge39_Node000010_Node000031" class="edge">
<title>Node10&#45;&gt;Node31</title>
<g id="a_edge39_Node000010_Node000031"><a xlink:title=" ">
<path fill="none" stroke="#63b8ff" d="M2420.24,-133.01C2475.05,-121.57 2555.08,-104.87 2613.93,-92.59"/>
<polygon fill="#63b8ff" stroke="#63b8ff" points="2614.84,-95.97 2623.92,-90.5 2613.41,-89.12 2614.84,-95.97"/>
</a>
</g>
</g>
<!-- Node32 -->
<g id="Node000032" class="node">
<title>Node32</title>
<g id="a_Node000032"><a xlink:href="_initialize_security_context_flags_8hpp.html" target="_top" xlink:title=" ">
<polygon fill="white" stroke="#666666" points="3550.5,-96 3381.5,-96 3381.5,-55 3550.5,-55 3550.5,-96"/>
<text text-anchor="start" x="3389.5" y="-84" font-family="Helvetica,sans-Serif" font-size="10.00">Hermes/_base/WinApi</text>
<text text-anchor="start" x="3389.5" y="-73" font-family="Helvetica,sans-Serif" font-size="10.00">/Flags/InitializeSecurityContext</text>
<text text-anchor="middle" x="3466" y="-62" font-family="Helvetica,sans-Serif" font-size="10.00">Flags.hpp</text>
</a>
</g>
</g>
<!-- Node10&#45;&gt;Node32 -->
<g id="edge41_Node000010_Node000032" class="edge">
<title>Node10&#45;&gt;Node32</title>
<g id="a_edge41_Node000010_Node000032"><a xlink:title=" ">
<path fill="none" stroke="#63b8ff" d="M2420.02,-146.28C2577.53,-146.28 3005.75,-141.81 3371.32,-95.97"/>
<polygon fill="#63b8ff" stroke="#63b8ff" points="3371.82,-99.43 3381.3,-94.7 3370.94,-92.49 3371.82,-99.43"/>
</a>
</g>
</g>
<!-- Node33 -->
<g id="Node000033" class="node">
<title>Node33</title>
<g id="a_Node000033"><a xlink:href="_initialize_security_context_return_flags_8hpp.html" target="_top" xlink:title=" ">
<polygon fill="white" stroke="#666666" points="3737.5,-96 3568.5,-96 3568.5,-55 3737.5,-55 3737.5,-96"/>
<text text-anchor="start" x="3576.5" y="-84" font-family="Helvetica,sans-Serif" font-size="10.00">Hermes/_base/WinApi</text>
<text text-anchor="start" x="3576.5" y="-73" font-family="Helvetica,sans-Serif" font-size="10.00">/Flags/InitializeSecurityContext</text>
<text text-anchor="middle" x="3653" y="-62" font-family="Helvetica,sans-Serif" font-size="10.00">ReturnFlags.hpp</text>
</a>
</g>
</g>
<!-- Node10&#45;&gt;Node33 -->
<g id="edge43_Node000010_Node000033" class="edge">
<title>Node10&#45;&gt;Node33</title>
<g id="a_edge43_Node000010_Node000033"><a xlink:title=" ">
<path fill="none" stroke="#63b8ff" d="M2420.1,-144.77C2630.5,-140.4 3316.24,-124.41 3558.3,-96.07"/>
<polygon fill="#63b8ff" stroke="#63b8ff" points="3558.95,-99.52 3568.45,-94.85 3558.1,-92.57 3558.95,-99.52"/>
</a>
</g>
</g>
<!-- Node34 -->
<g id="Node000034" class="node">
<title>Node34</title>
<g id="a_Node000034"><a xlink:href="_accept_security_context_flags_8hpp.html" target="_top" xlink:title=" ">
<polygon fill="white" stroke="#666666" points="3916,-96 3756,-96 3756,-55 3916,-55 3916,-96"/>
<text text-anchor="start" x="3764" y="-84" font-family="Helvetica,sans-Serif" font-size="10.00">Hermes/_base/WinApi</text>
<text text-anchor="start" x="3764" y="-73" font-family="Helvetica,sans-Serif" font-size="10.00">/Flags/AcceptSecurityContext</text>
<text text-anchor="middle" x="3836" y="-62" font-family="Helvetica,sans-Serif" font-size="10.00">Flags.hpp</text>
</a>
</g>
</g>
<!-- Node10&#45;&gt;Node34 -->
<g id="edge45_Node000010_Node000034" class="edge">
<title>Node10&#45;&gt;Node34</title>
<g id="a_edge45_Node000010_Node000034"><a xlink:title=" ">
<path fill="none" stroke="#63b8ff" d="M2420.23,-145.25C2651.86,-142.21 3464.69,-129.48 3745.42,-96.05"/>
<polygon fill="#63b8ff" stroke="#63b8ff" points="3746.08,-99.49 3755.58,-94.8 3745.23,-92.54 3746.08,-99.49"/>
</a>
</g>
</g>
<!-- Node35 -->
<g id="Node000035" class="node">
<title>Node35</title>
<g id="a_Node000035"><a xlink:href="_accept_security_context_return_flags_8hpp.html" target="_top" xlink:title=" ">
<polygon fill="white" stroke="#666666" points="4094,-96 3934,-96 3934,-55 4094,-55 4094,-96"/>
<text text-anchor="start" x="3942" y="-84" font-family="Helvetica,sans-Serif" font-size="10.00">Hermes/_base/WinApi</text>
<text text-anchor="start" x="3942" y="-73" font-family="Helvetica,sans-Serif" font-size="10.00">/Flags/AcceptSecurityContext</text>
<text text-anchor="middle" x="4014" y="-62" font-family="Helvetica,sans-Serif" font-size="10.00">ReturnFlags.hpp</text>
</a>
</g>
</g>
<!-- Node10&#45;&gt;Node35 -->
<g id="edge47_Node000010_Node000035" class="edge">
<title>Node10&#45;&gt;Node35</title>
<g id="a_edge47_Node000010_Node000035"><a xlink:title=" ">
<path fill="none" stroke="#63b8ff" d="M2420.26,-145.54C2670.7,-143.46 3605.81,-133.4 3923.46,-96.04"/>
<polygon fill="#63b8ff" stroke="#63b8ff" points="3924.08,-99.49 3933.58,-94.81 3923.24,-92.54 3924.08,-99.49"/>
</a>
</g>
</g>
<!-- Node36 -->
<g id="Node000036" class="node">
<title>Node36</title>
<g id="a_Node000036"><a xlink:href="_s_channel_cred_flags_8hpp.html" target="_top" xlink:title=" ">
<polygon fill="white" stroke="#666666" points="2969,-90.5 2805,-90.5 2805,-60.5 2969,-60.5 2969,-90.5"/>
<text text-anchor="start" x="2813" y="-78.5" font-family="Helvetica,sans-Serif" font-size="10.00">Hermes/_base/WinApi</text>
<text text-anchor="middle" x="2887" y="-67.5" font-family="Helvetica,sans-Serif" font-size="10.00">/Flags/SChannelCredFlags.hpp</text>
</a>
</g>
</g>
<!-- Node10&#45;&gt;Node36 -->
<g id="edge49_Node000010_Node000036" class="edge">
<title>Node10&#45;&gt;Node36</title>
<g id="a_edge49_Node000010_Node000036"><a xlink:title=" ">
<path fill="none" stroke="#63b8ff" d="M2420.28,-140.82C2505.45,-133.29 2662.88,-117.81 2796,-96 2802.28,-94.97 2808.78,-93.8 2815.28,-92.55"/>
<polygon fill="#63b8ff" stroke="#63b8ff" points="2816.35,-95.91 2825.48,-90.53 2814.99,-89.04 2816.35,-95.91"/>
</a>
</g>
</g>
<!-- Node16 -->
<g id="Node000016" class="node">
<title>Node16</title>
<g id="a_Node000016"><a xlink:title=" ">
<polygon fill="#e0e0e0" stroke="#999999" points="872,-19 822,-19 822,0 872,0 872,-19"/>
<text text-anchor="middle" x="847" y="-7" font-family="Helvetica,sans-Serif" font-size="10.00">cstdint</text>
</a>
</g>
</g>
<!-- Node15&#45;&gt;Node16 -->
<g id="edge15_Node000015_Node000016" class="edge">
<title>Node15&#45;&gt;Node16</title>
<g id="a_edge15_Node000015_Node000016"><a xlink:title=" ">
<path fill="none" stroke="#63b8ff" d="M847,-60.3C847,-51.2 847,-39.29 847,-29.4"/>
<polygon fill="#63b8ff" stroke="#63b8ff" points="850.5,-29.34 847,-19.34 843.5,-29.34 850.5,-29.34"/>
</a>
</g>
</g>
<!-- Node17&#45;&gt;Node12 -->
<g id="edge18_Node000017_Node000012" class="edge">
<title>Node17&#45;&gt;Node12</title>
<g id="a_edge18_Node000017_Node000012"><a xlink:title=" ">
<path fill="none" stroke="#63b8ff" d="M2293.03,-60.3C2278.36,-49.87 2258.49,-35.74 2243.66,-25.19"/>
<polygon fill="#63b8ff" stroke="#63b8ff" points="2245.35,-22.1 2235.18,-19.16 2241.3,-27.81 2245.35,-22.1"/>
</a>
</g>
</g>
<!-- Node17&#45;&gt;Node13 -->
<g id="edge19_Node000017_Node000013" class="edge">
<title>Node17&#45;&gt;Node13</title>
<g id="a_edge19_Node000017_Node000013"><a xlink:title=" ">
<path fill="none" stroke="#63b8ff" d="M2354.92,-60.45C2389,-49.03 2436.55,-33.1 2468.72,-22.32"/>
<polygon fill="#63b8ff" stroke="#63b8ff" points="2470.21,-25.51 2478.58,-19.02 2467.99,-18.88 2470.21,-25.51"/>
</a>
</g>
</g>
<!-- Node17&#45;&gt;Node14 -->
<g id="edge20_Node000017_Node000014" class="edge">
<title>Node17&#45;&gt;Node14</title>
<g id="a_edge20_Node000017_Node000014"><a xlink:title=" ">
<path fill="none" stroke="#63b8ff" d="M2375.05,-61.96C2390.34,-59.26 2406.72,-56.72 2422,-55 2782.22,-14.57 3222.78,-10.73 3345.13,-10.48"/>
<polygon fill="#63b8ff" stroke="#63b8ff" points="3345.34,-13.98 3355.33,-10.47 3345.33,-6.98 3345.34,-13.98"/>
</a>
</g>
</g>
<!-- Node18 -->
<g id="Node000018" class="node">
<title>Node18</title>
<g id="a_Node000018"><a xlink:title=" ">
<polygon fill="#e0e0e0" stroke="#999999" points="2349.5,-19 2276.5,-19 2276.5,0 2349.5,0 2349.5,-19"/>
<text text-anchor="middle" x="2313" y="-7" font-family="Helvetica,sans-Serif" font-size="10.00">string_view</text>
</a>
</g>
</g>
<!-- Node17&#45;&gt;Node18 -->
<g id="edge17_Node000017_Node000018" class="edge">
<title>Node17&#45;&gt;Node18</title>
<g id="a_edge17_Node000017_Node000018"><a xlink:title=" ">
<path fill="none" stroke="#63b8ff" d="M2313,-60.3C2313,-51.2 2313,-39.29 2313,-29.4"/>
<polygon fill="#63b8ff" stroke="#63b8ff" points="2316.5,-29.34 2313,-19.34 2309.5,-29.34 2316.5,-29.34"/>
</a>
</g>
</g>
<!-- Node20 -->
<g id="Node000020" class="node">
<title>Node20</title>
<g id="a_Node000020"><a xlink:title=" ">
<polygon fill="#e0e0e0" stroke="#999999" points="1159,-19 1099,-19 1099,0 1159,0 1159,-19"/>
<text text-anchor="middle" x="1129" y="-7" font-family="Helvetica,sans-Serif" font-size="10.00">ws2def.h</text>
</a>
</g>
</g>
<!-- Node19&#45;&gt;Node20 -->
<g id="edge22_Node000019_Node000020" class="edge">
<title>Node19&#45;&gt;Node20</title>
<g id="a_edge22_Node000019_Node000020"><a xlink:title=" ">
<path fill="none" stroke="#63b8ff" d="M1050.42,-60.3C1067.19,-49.67 1090.01,-35.2 1106.75,-24.6"/>
<polygon fill="#63b8ff" stroke="#63b8ff" points="1108.76,-27.47 1115.34,-19.16 1105.02,-21.55 1108.76,-27.47"/>
</a>
</g>
</g>
<!-- Node22 -->
<g id="Node000022" class="node">
<title>Node22</title>
<g id="a_Node000022"><a xlink:title=" ">
<polygon fill="#e0e0e0" stroke="#999999" points="1654,-19 1580,-19 1580,0 1654,0 1654,-19"/>
<text text-anchor="middle" x="1617" y="-7" font-family="Helvetica,sans-Serif" font-size="10.00">WinSock2.h</text>
</a>
</g>
</g>
<!-- Node21&#45;&gt;Node22 -->
<g id="edge24_Node000021_Node000022" class="edge">
<title>Node21&#45;&gt;Node22</title>
<g id="a_edge24_Node000021_Node000022"><a xlink:title=" ">
<path fill="none" stroke="#63b8ff" d="M1617,-60.3C1617,-51.2 1617,-39.29 1617,-29.4"/>
<polygon fill="#63b8ff" stroke="#63b8ff" points="1620.5,-29.34 1617,-19.34 1613.5,-29.34 1620.5,-29.34"/>
</a>
</g>
</g>
<!-- Node24 -->
<g id="Node000024" class="node">
<title>Node24</title>
<g id="a_Node000024"><a xlink:title=" ">
<polygon fill="#e0e0e0" stroke="#999999" points="2053.5,-19 1988.5,-19 1988.5,0 2053.5,0 2053.5,-19"/>
<text text-anchor="middle" x="2021" y="-7" font-family="Helvetica,sans-Serif" font-size="10.00">winerror.h</text>
</a>
</g>
</g>
<!-- Node23&#45;&gt;Node24 -->
<g id="edge26_Node000023_Node000024" class="edge">
<title>Node23&#45;&gt;Node24</title>
<g id="a_edge26_Node000023_Node000024"><a xlink:title=" ">
<path fill="none" stroke="#63b8ff" d="M2021,-60.3C2021,-51.2 2021,-39.29 2021,-29.4"/>
<polygon fill="#63b8ff" stroke="#63b8ff" points="2024.5,-29.34 2021,-19.34 2017.5,-29.34 2024.5,-29.34"/>
</a>
</g>
</g>
<!-- Node25&#45;&gt;Node20 -->
<g id="edge28_Node000025_Node000020" class="edge">
<title>Node25&#45;&gt;Node20</title>
<g id="a_edge28_Node000025_Node000020"><a xlink:title=" ">
<path fill="none" stroke="#63b8ff" d="M1207.58,-60.3C1190.81,-49.67 1167.99,-35.2 1151.25,-24.6"/>
<polygon fill="#63b8ff" stroke="#63b8ff" points="1152.98,-21.55 1142.66,-19.16 1149.24,-27.47 1152.98,-21.55"/>
</a>
</g>
</g>
<!-- Node26&#45;&gt;Node13 -->
<g id="edge30_Node000026_Node000013" class="edge">
<title>Node26&#45;&gt;Node13</title>
<g id="a_edge30_Node000026_Node000013"><a xlink:title=" ">
<path fill="none" stroke="#63b8ff" d="M2504,-60.3C2504,-51.2 2504,-39.29 2504,-29.4"/>
<polygon fill="#63b8ff" stroke="#63b8ff" points="2507.5,-29.34 2504,-19.34 2500.5,-29.34 2507.5,-29.34"/>
</a>
</g>
</g>
<!-- Node27&#45;&gt;Node14 -->
<g id="edge32_Node000027_Node000014" class="edge">
<title>Node27&#45;&gt;Node14</title>
<g id="a_edge32_Node000027_Node000014"><a xlink:title=" ">
<path fill="none" stroke="#63b8ff" d="M3170.37,-60.45C3224.18,-47.51 3302.07,-28.77 3345.54,-18.31"/>
<polygon fill="#63b8ff" stroke="#63b8ff" points="3346.4,-21.7 3355.3,-15.96 3344.76,-14.9 3346.4,-21.7"/>
</a>
</g>
</g>
<!-- Node28&#45;&gt;Node22 -->
<g id="edge34_Node000028_Node000022" class="edge">
<title>Node28&#45;&gt;Node22</title>
<g id="a_edge34_Node000028_Node000022"><a xlink:title=" ">
<path fill="none" stroke="#63b8ff" d="M1778.57,-60.45C1741.31,-48.93 1689.2,-32.82 1654.34,-22.04"/>
<polygon fill="#63b8ff" stroke="#63b8ff" points="1655.14,-18.63 1644.55,-19.02 1653.07,-25.32 1655.14,-18.63"/>
</a>
</g>
</g>
<!-- Node29&#45;&gt;Node22 -->
<g id="edge36_Node000029_Node000022" class="edge">
<title>Node29&#45;&gt;Node22</title>
<g id="a_edge36_Node000029_Node000022"><a xlink:title=" ">
<path fill="none" stroke="#63b8ff" d="M1465.57,-60.45C1500.35,-48.98 1548.91,-32.96 1581.59,-22.18"/>
<polygon fill="#63b8ff" stroke="#63b8ff" points="1582.78,-25.47 1591.18,-19.02 1580.59,-18.83 1582.78,-25.47"/>
</a>
</g>
</g>
<!-- Node30&#45;&gt;Node14 -->
<g id="edge38_Node000030_Node000014" class="edge">
<title>Node30&#45;&gt;Node14</title>
<g id="a_edge38_Node000030_Node000014"><a xlink:title=" ">
<path fill="none" stroke="#63b8ff" d="M3309.53,-60.3C3323.87,-49.87 3343.3,-35.74 3357.79,-25.19"/>
<polygon fill="#63b8ff" stroke="#63b8ff" points="3360.07,-27.87 3366.09,-19.16 3355.95,-22.21 3360.07,-27.87"/>
</a>
</g>
</g>
<!-- Node31&#45;&gt;Node13 -->
<g id="edge40_Node000031_Node000013" class="edge">
<title>Node31&#45;&gt;Node13</title>
<g id="a_edge40_Node000031_Node000013"><a xlink:title=" ">
<path fill="none" stroke="#63b8ff" d="M2649.96,-60.45C2616.59,-49.03 2570.03,-33.1 2538.54,-22.32"/>
<polygon fill="#63b8ff" stroke="#63b8ff" points="2539.48,-18.94 2528.89,-19.02 2537.21,-25.57 2539.48,-18.94"/>
</a>
</g>
</g>
<!-- Node32&#45;&gt;Node14 -->
<g id="edge42_Node000032_Node000014" class="edge">
<title>Node32&#45;&gt;Node14</title>
<g id="a_edge42_Node000032_Node000014"><a xlink:title=" ">
<path fill="none" stroke="#63b8ff" d="M3439.12,-54.95C3425.94,-45.37 3410.34,-34.02 3398.19,-25.19"/>
<polygon fill="#63b8ff" stroke="#63b8ff" points="3400.19,-22.31 3390.05,-19.26 3396.07,-27.97 3400.19,-22.31"/>
</a>
</g>
</g>
<!-- Node33&#45;&gt;Node14 -->
<g id="edge44_Node000033_Node000014" class="edge">
<title>Node33&#45;&gt;Node14</title>
<g id="a_edge44_Node000033_Node000014"><a xlink:title=" ">
<path fill="none" stroke="#63b8ff" d="M3569,-54.95C3515.72,-42.55 3449.75,-27.2 3410.93,-18.16"/>
<polygon fill="#63b8ff" stroke="#63b8ff" points="3411.27,-14.65 3400.73,-15.79 3409.68,-21.47 3411.27,-14.65"/>
</a>
</g>
</g>
<!-- Node34&#45;&gt;Node14 -->
<g id="edge46_Node000034_Node000014" class="edge">
<title>Node34&#45;&gt;Node14</title>
<g id="a_edge46_Node000034_Node000014"><a xlink:title=" ">
<path fill="none" stroke="#63b8ff" d="M3755.54,-56.51C3752.66,-55.98 3749.81,-55.48 3747,-55 3623.46,-34.07 3475.02,-19.29 3410.54,-13.37"/>
<polygon fill="#63b8ff" stroke="#63b8ff" points="3410.85,-9.88 3400.57,-12.46 3410.21,-16.85 3410.85,-9.88"/>
</a>
</g>
</g>
<!-- Node35&#45;&gt;Node14 -->
<g id="edge48_Node000035_Node000014" class="edge">
<title>Node35&#45;&gt;Node14</title>
<g id="a_edge48_Node000035_Node000014"><a xlink:title=" ">
<path fill="none" stroke="#63b8ff" d="M3933.56,-56.37C3930.68,-55.88 3927.82,-55.42 3925,-55 3731.16,-26.02 3495.66,-14.88 3410.6,-11.62"/>
<polygon fill="#63b8ff" stroke="#63b8ff" points="3410.65,-8.12 3400.53,-11.25 3410.39,-15.12 3410.65,-8.12"/>
</a>
</g>
</g>
<!-- Node36&#45;&gt;Node13 -->
<g id="edge50_Node000036_Node000013" class="edge">
<title>Node36&#45;&gt;Node13</title>
<g id="a_edge50_Node000036_Node000013"><a xlink:title=" ">
<path fill="none" stroke="#63b8ff" d="M2823.95,-60.48C2814.6,-58.55 2805.06,-56.66 2796,-55 2708.86,-39.04 2606.36,-24.36 2548.91,-16.49"/>
<polygon fill="#63b8ff" stroke="#63b8ff" points="2549.1,-12.99 2538.72,-15.11 2548.16,-19.92 2549.1,-12.99"/>
</a>
</g>
</g>
</g>
</svg>
