<?xml version="1.0" encoding="UTF-8" standalone="no"?>
<!DOCTYPE svg PUBLIC "-//W3C//DTD SVG 1.1//EN"
 "http://www.w3.org/Graphics/SVG/1.1/DTD/svg11.dtd">
<!-- Generated by graphviz version 2.43.0 (0)
 -->
<!-- Title: include/Hermes/Endpoint/_base/EndpointConcept.hpp Pages: 1 -->
<svg width="1663pt" height="555pt"
 viewBox="0.00 0.00 1662.50 555.00" xmlns="http://www.w3.org/2000/svg" xmlns:xlink="http://www.w3.org/1999/xlink">
<g id="graph0" class="graph" transform="scale(1 1) rotate(0) translate(4 551)">
<title>include/Hermes/Endpoint/_base/EndpointConcept.hpp</title>
<!-- Node1 -->
<g id="Node000001" class="node">
<title>Node1</title>
<g id="a_Node000001"><a xlink:title=" ">
<polygon fill="#999999" stroke="#666666" points="790,-547 635,-547 635,-517 790,-517 790,-547"/>
<text text-anchor="start" x="643" y="-535" font-family="Helvetica,sans-Serif" font-size="10.00">include/Hermes/Endpoint</text>
<text text-anchor="middle" x="712.5" y="-524" font-family="Helvetica,sans-Serif" font-size="10.00">/_base/EndpointConcept.hpp</text>
</a>
</g>
</g>
<!-- Node2 -->
<g id="Node000002" class="node">
<title>Node2</title>
<g id="a_Node000002"><a xlink:href="_ip_endpoint_8hpp.html" target="_top" xlink:title=" ">
<polygon fill="white" stroke="#666666" points="607,-481 460,-481 460,-451 607,-451 607,-481"/>
<text text-anchor="start" x="468" y="-469" font-family="Helvetica,sans-Serif" font-size="10.00">include/Hermes/Endpoint</text>
<text text-anchor="middle" x="533.5" y="-458" font-family="Helvetica,sans-Serif" font-size="10.00">/IpEndpoint/IpEndpoint.hpp</text>
</a>
</g>
</g>
<!-- Node1&#45;&gt;Node2 -->
<g id="edge1_Node000001_Node000002" class="edge">
<title>Node1&#45;&gt;Node2</title>
<g id="a_edge1_Node000001_Node000002"><a xlink:title=" ">
<path fill="none" stroke="#63b8ff" d="M663.43,-513.46C634.88,-503.25 599.37,-490.55 572.69,-481.01"/>
<polygon fill="#63b8ff" stroke="#63b8ff" points="662.62,-516.88 673.22,-516.95 664.98,-510.29 662.62,-516.88"/>
</a>
</g>
</g>
<!-- Node24 -->
<g id="Node000024" class="node">
<title>Node24</title>
<g id="a_Node000024"><a xlink:href="__base_8hpp.html" target="_top" xlink:title=" ">
<polygon fill="white" stroke="#666666" points="975.5,-481 847.5,-481 847.5,-451 975.5,-451 975.5,-481"/>
<text text-anchor="start" x="855.5" y="-469" font-family="Helvetica,sans-Serif" font-size="10.00">include/Hermes/Socket</text>
<text text-anchor="middle" x="911.5" y="-458" font-family="Helvetica,sans-Serif" font-size="10.00">/_base.hpp</text>
</a>
</g>
</g>
<!-- Node1&#45;&gt;Node24 -->
<g id="edge45_Node000001_Node000024" class="edge">
<title>Node1&#45;&gt;Node24</title>
<g id="a_edge45_Node000001_Node000024"><a xlink:title=" ">
<path fill="none" stroke="#63b8ff" d="M765.81,-513.86C797.76,-503.58 837.88,-490.68 867.93,-481.01"/>
<polygon fill="#63b8ff" stroke="#63b8ff" points="764.62,-510.56 756.17,-516.95 766.76,-517.23 764.62,-510.56"/>
</a>
</g>
</g>
<!-- Node3 -->
<g id="Node000003" class="node">
<title>Node3</title>
<g id="a_Node000003"><a xlink:href="_default_socket_data_8hpp.html" target="_top" xlink:title=" ">
<polygon fill="white" stroke="#666666" points="612.5,-409.5 454.5,-409.5 454.5,-379.5 612.5,-379.5 612.5,-409.5"/>
<text text-anchor="start" x="462.5" y="-397.5" font-family="Helvetica,sans-Serif" font-size="10.00">include/Hermes/Socket</text>
<text text-anchor="middle" x="533.5" y="-386.5" font-family="Helvetica,sans-Serif" font-size="10.00">/Data/DefaultSocketData.hpp</text>
</a>
</g>
</g>
<!-- Node2&#45;&gt;Node3 -->
<g id="edge2_Node000002_Node000003" class="edge">
<title>Node2&#45;&gt;Node3</title>
<g id="a_edge2_Node000002_Node000003"><a xlink:title=" ">
<path fill="none" stroke="#63b8ff" d="M533.5,-440.75C533.5,-430.31 533.5,-418.49 533.5,-409.54"/>
<polygon fill="#63b8ff" stroke="#63b8ff" points="530,-440.94 533.5,-450.94 537,-440.94 530,-440.94"/>
</a>
</g>
</g>
<!-- Node16 -->
<g id="Node000016" class="node">
<title>Node16</title>
<g id="a_Node000016"><a xlink:href="_default_connect_policy_8hpp.html" target="_top" xlink:title=" ">
<polygon fill="white" stroke="#666666" points="317.5,-338 173.5,-338 173.5,-297 317.5,-297 317.5,-338"/>
<text text-anchor="start" x="181.5" y="-326" font-family="Helvetica,sans-Serif" font-size="10.00">include/Hermes/Socket</text>
<text text-anchor="start" x="181.5" y="-315" font-family="Helvetica,sans-Serif" font-size="10.00">/Sync/_base/Connection</text>
<text text-anchor="middle" x="245.5" y="-304" font-family="Helvetica,sans-Serif" font-size="10.00">/DefaultConnectPolicy.hpp</text>
</a>
</g>
</g>
<!-- Node2&#45;&gt;Node16 -->
<g id="edge43_Node000002_Node000016" class="edge">
<title>Node2&#45;&gt;Node16</title>
<g id="a_edge43_Node000002_Node000016"><a xlink:title=" ">
<path fill="none" stroke="#63b8ff" d="M449.58,-464.85C359.03,-462.68 223.33,-452.97 190.5,-415 169.94,-391.23 197.86,-358.6 220.86,-338.04"/>
<polygon fill="#63b8ff" stroke="#63b8ff" points="449.77,-468.35 459.84,-465.06 449.92,-461.35 449.77,-468.35"/>
</a>
</g>
</g>
<!-- Node18 -->
<g id="Node000018" class="node">
<title>Node18</title>
<g id="a_Node000018"><a xlink:href="_tls_connect_policy_8hpp.html" target="_top" xlink:title=" ">
<polygon fill="white" stroke="#666666" points="267.5,-261 135.5,-261 135.5,-220 267.5,-220 267.5,-261"/>
<text text-anchor="start" x="143.5" y="-249" font-family="Helvetica,sans-Serif" font-size="10.00">include/Hermes/Socket</text>
<text text-anchor="start" x="143.5" y="-238" font-family="Helvetica,sans-Serif" font-size="10.00">/Sync/_base/Connection</text>
<text text-anchor="middle" x="201.5" y="-227" font-family="Helvetica,sans-Serif" font-size="10.00">/TlsConnectPolicy.hpp</text>
</a>
</g>
</g>
<!-- Node2&#45;&gt;Node18 -->
<g id="edge44_Node000002_Node000018" class="edge">
<title>Node2&#45;&gt;Node18</title>
<g id="a_edge44_Node000002_Node000018"><a xlink:title=" ">
<path fill="none" stroke="#63b8ff" d="M449.57,-461.26C359.26,-455.83 222.77,-443.15 179.5,-415 132.04,-384.12 106.86,-347.98 131.5,-297 138.65,-282.2 151.88,-270.14 164.93,-261.09"/>
<polygon fill="#63b8ff" stroke="#63b8ff" points="449.61,-464.76 459.8,-461.85 450.02,-457.78 449.61,-464.76"/>
</a>
</g>
</g>
<!-- Node21 -->
<g id="Node000021" class="node">
<title>Node21</title>
<g id="a_Node000021"><a xlink:href="_tls_socket_data_8hpp.html" target="_top" xlink:title=" ">
<polygon fill="white" stroke="#666666" points="818,-332.5 681,-332.5 681,-302.5 818,-302.5 818,-332.5"/>
<text text-anchor="start" x="689" y="-320.5" font-family="Helvetica,sans-Serif" font-size="10.00">include/Hermes/Socket</text>
<text text-anchor="middle" x="749.5" y="-309.5" font-family="Helvetica,sans-Serif" font-size="10.00">/Data/TlsSocketData.hpp</text>
</a>
</g>
</g>
<!-- Node2&#45;&gt;Node21 -->
<g id="edge32_Node000002_Node000021" class="edge">
<title>Node2&#45;&gt;Node21</title>
<g id="a_edge32_Node000002_Node000021"><a xlink:title=" ">
<path fill="none" stroke="#63b8ff" d="M569.37,-445.99C585.58,-437.06 604.8,-425.97 621.5,-415 662.67,-387.95 708.1,-352.17 732.22,-332.67"/>
<polygon fill="#63b8ff" stroke="#63b8ff" points="567.32,-443.13 560.22,-450.99 570.67,-449.27 567.32,-443.13"/>
</a>
</g>
</g>
<!-- Node4 -->
<g id="Node000004" class="node">
<title>Node4</title>
<g id="a_Node000004"><a xlink:href="_default_async_accept_policy_8hpp.html" target="_top" xlink:title=" ">
<polygon fill="white" stroke="#666666" points="1403,-261 1248,-261 1248,-220 1403,-220 1403,-261"/>
<text text-anchor="start" x="1256" y="-249" font-family="Helvetica,sans-Serif" font-size="10.00">include/Hermes/Socket</text>
<text text-anchor="start" x="1256" y="-238" font-family="Helvetica,sans-Serif" font-size="10.00">/Async/_base/Accept/Default</text>
<text text-anchor="middle" x="1325.5" y="-227" font-family="Helvetica,sans-Serif" font-size="10.00">AsyncAcceptPolicy.hpp</text>
</a>
</g>
</g>
<!-- Node3&#45;&gt;Node4 -->
<g id="edge3_Node000003_Node000004" class="edge">
<title>Node3&#45;&gt;Node4</title>
<g id="a_edge3_Node000003_Node000004"><a xlink:title=" ">
<path fill="none" stroke="#63b8ff" d="M622.83,-384.77C768.77,-370.42 1044.31,-342.95 1065.5,-338 1076.08,-335.53 1200.99,-288.57 1273.76,-261.08"/>
<polygon fill="#63b8ff" stroke="#63b8ff" points="622.17,-381.32 612.56,-385.78 622.85,-388.28 622.17,-381.32"/>
</a>
</g>
</g>
<!-- Node8 -->
<g id="Node000008" class="node">
<title>Node8</title>
<g id="a_Node000008"><a xlink:href="_default_async_connect_policy_8hpp.html" target="_top" xlink:title=" ">
<polygon fill="white" stroke="#666666" points="173,-184 0,-184 0,-143 173,-143 173,-184"/>
<text text-anchor="start" x="8" y="-172" font-family="Helvetica,sans-Serif" font-size="10.00">include/Hermes/Socket</text>
<text text-anchor="start" x="8" y="-161" font-family="Helvetica,sans-Serif" font-size="10.00">/Async/_base/Connection</text>
<text text-anchor="middle" x="86.5" y="-150" font-family="Helvetica,sans-Serif" font-size="10.00">/DefaultAsyncConnectPolicy.hpp</text>
</a>
</g>
</g>
<!-- Node3&#45;&gt;Node8 -->
<g id="edge8_Node000003_Node000008" class="edge">
<title>Node3&#45;&gt;Node8</title>
<g id="a_edge8_Node000003_Node000008"><a xlink:title=" ">
<path fill="none" stroke="#63b8ff" d="M443.96,-379.57C431.71,-377.69 419.3,-375.79 407.5,-374 353.53,-365.83 208.62,-370.15 164.5,-338 112.99,-300.46 94.81,-220.91 88.99,-184.03"/>
<polygon fill="#63b8ff" stroke="#63b8ff" points="443.78,-383.08 454.2,-381.15 444.85,-376.17 443.78,-383.08"/>
</a>
</g>
</g>
<!-- Node11 -->
<g id="Node000011" class="node">
<title>Node11</title>
<g id="a_Node000011"><a xlink:href="_default_async_transfer_policy_8hpp.html" target="_top" xlink:title=" ">
<polygon fill="white" stroke="#666666" points="1111,-184 938,-184 938,-143 1111,-143 1111,-184"/>
<text text-anchor="start" x="946" y="-172" font-family="Helvetica,sans-Serif" font-size="10.00">include/Hermes/Socket</text>
<text text-anchor="start" x="946" y="-161" font-family="Helvetica,sans-Serif" font-size="10.00">/Async/_base/Transfer</text>
<text text-anchor="middle" x="1024.5" y="-150" font-family="Helvetica,sans-Serif" font-size="10.00">/DefaultAsyncTransferPolicy.hpp</text>
</a>
</g>
</g>
<!-- Node3&#45;&gt;Node11 -->
<g id="edge12_Node000003_Node000011" class="edge">
<title>Node3&#45;&gt;Node11</title>
<g id="a_edge12_Node000003_Node000011"><a xlink:title=" ">
<path fill="none" stroke="#63b8ff" d="M533.79,-368.73C535.69,-330.31 545.42,-256.95 590.5,-220 642.26,-177.58 823.15,-192.78 889.5,-184 905.11,-181.93 921.72,-179.62 937.76,-177.34"/>
<polygon fill="#63b8ff" stroke="#63b8ff" points="530.28,-368.9 533.43,-379.02 537.28,-369.15 530.28,-368.9"/>
</a>
</g>
</g>
<!-- Node12 -->
<g id="Node000012" class="node">
<title>Node12</title>
<g id="a_Node000012"><a xlink:href="_default_accept_policy_8hpp.html" target="_top" xlink:title=" ">
<polygon fill="white" stroke="#666666" points="1056.5,-338 874.5,-338 874.5,-297 1056.5,-297 1056.5,-338"/>
<text text-anchor="start" x="882.5" y="-326" font-family="Helvetica,sans-Serif" font-size="10.00">include/Hermes/Socket</text>
<text text-anchor="start" x="882.5" y="-315" font-family="Helvetica,sans-Serif" font-size="10.00">/Sync/_base/Accept/DefaultAccept</text>
<text text-anchor="middle" x="965.5" y="-304" font-family="Helvetica,sans-Serif" font-size="10.00">Policy.hpp</text>
</a>
</g>
</g>
<!-- Node3&#45;&gt;Node12 -->
<g id="edge15_Node000003_Node000012" class="edge">
<title>Node3&#45;&gt;Node12</title>
<g id="a_edge15_Node000003_Node000012"><a xlink:title=" ">
<path fill="none" stroke="#63b8ff" d="M622.91,-377.98C696.5,-365.2 800.38,-347.17 874.42,-334.31"/>
<polygon fill="#63b8ff" stroke="#63b8ff" points="621.99,-374.58 612.74,-379.74 623.19,-381.48 621.99,-374.58"/>
</a>
</g>
</g>
<!-- Node3&#45;&gt;Node16 -->
<g id="edge22_Node000003_Node000016" class="edge">
<title>Node3&#45;&gt;Node16</title>
<g id="a_edge22_Node000003_Node000016"><a xlink:title=" ">
<path fill="none" stroke="#63b8ff" d="M469.73,-376.89C424.71,-365.17 364.31,-349.44 317.55,-337.26"/>
<polygon fill="#63b8ff" stroke="#63b8ff" points="469.11,-380.35 479.67,-379.48 470.87,-373.57 469.11,-380.35"/>
</a>
</g>
</g>
<!-- Node20 -->
<g id="Node000020" class="node">
<title>Node20</title>
<g id="a_Node000020"><a xlink:href="_default_transfer_policy_8hpp.html" target="_top" xlink:title=" ">
<polygon fill="white" stroke="#666666" points="505,-261 362,-261 362,-220 505,-220 505,-261"/>
<text text-anchor="start" x="370" y="-249" font-family="Helvetica,sans-Serif" font-size="10.00">include/Hermes/Socket</text>
<text text-anchor="start" x="370" y="-238" font-family="Helvetica,sans-Serif" font-size="10.00">/Sync/_base/Transfer</text>
<text text-anchor="middle" x="433.5" y="-227" font-family="Helvetica,sans-Serif" font-size="10.00">/DefaultTransferPolicy.hpp</text>
</a>
</g>
</g>
<!-- Node3&#45;&gt;Node20 -->
<g id="edge29_Node000003_Node000020" class="edge">
<title>Node3&#45;&gt;Node20</title>
<g id="a_edge29_Node000003_Node000020"><a xlink:title=" ">
<path fill="none" stroke="#63b8ff" d="M518.71,-371.01C499.15,-341.29 465.02,-289.41 446.45,-261.18"/>
<polygon fill="#63b8ff" stroke="#63b8ff" points="515.85,-373.04 524.27,-379.47 521.7,-369.19 515.85,-373.04"/>
</a>
</g>
</g>
<!-- Node5 -->
<g id="Node000005" class="node">
<title>Node5</title>
<g id="a_Node000005"><a xlink:href="_async_server_socket_8hpp.html" target="_top" xlink:title=" ">
<polygon fill="white" stroke="#666666" points="1387.5,-101.5 1221.5,-101.5 1221.5,-71.5 1387.5,-71.5 1387.5,-101.5"/>
<text text-anchor="start" x="1229.5" y="-89.5" font-family="Helvetica,sans-Serif" font-size="10.00">include/Hermes/Socket</text>
<text text-anchor="middle" x="1304.5" y="-78.5" font-family="Helvetica,sans-Serif" font-size="10.00">/Async/AsyncServerSocket.hpp</text>
</a>
</g>
</g>
<!-- Node4&#45;&gt;Node5 -->
<g id="edge4_Node000004_Node000005" class="edge">
<title>Node4&#45;&gt;Node5</title>
<g id="a_edge4_Node000004_Node000005"><a xlink:title=" ">
<path fill="none" stroke="#63b8ff" d="M1336.1,-210.19C1341.57,-190.83 1345.87,-165.06 1339.5,-143 1335.07,-127.68 1325.02,-112.52 1316.82,-101.92"/>
<polygon fill="#63b8ff" stroke="#63b8ff" points="1332.7,-209.36 1333.1,-219.94 1339.39,-211.42 1332.7,-209.36"/>
</a>
</g>
</g>
<!-- Node7 -->
<g id="Node000007" class="node">
<title>Node7</title>
<g id="a_Node000007"><a xlink:href="_tls_async_accept_policy_8hpp.html" target="_top" xlink:title=" ">
<polygon fill="white" stroke="#666666" points="1331,-184 1168,-184 1168,-143 1331,-143 1331,-184"/>
<text text-anchor="start" x="1176" y="-172" font-family="Helvetica,sans-Serif" font-size="10.00">include/Hermes/Socket</text>
<text text-anchor="start" x="1176" y="-161" font-family="Helvetica,sans-Serif" font-size="10.00">/Async/_base/Accept/TlsAsync</text>
<text text-anchor="middle" x="1249.5" y="-150" font-family="Helvetica,sans-Serif" font-size="10.00">AcceptPolicy.hpp</text>
</a>
</g>
</g>
<!-- Node4&#45;&gt;Node7 -->
<g id="edge6_Node000004_Node000007" class="edge">
<title>Node4&#45;&gt;Node7</title>
<g id="a_edge6_Node000004_Node000007"><a xlink:title=" ">
<path fill="none" stroke="#63b8ff" d="M1298.15,-212.51C1288.63,-203.11 1278.13,-192.76 1269.33,-184.07"/>
<polygon fill="#63b8ff" stroke="#63b8ff" points="1295.96,-215.26 1305.53,-219.79 1300.87,-210.28 1295.96,-215.26"/>
</a>
</g>
</g>
<!-- Node6 -->
<g id="Node000006" class="node">
<title>Node6</title>
<g id="a_Node000006"><a xlink:href="_async_listener_socket_8hpp.html" target="_top" xlink:title=" ">
<polygon fill="white" stroke="#666666" points="1592,-30 1419,-30 1419,0 1592,0 1592,-30"/>
<text text-anchor="start" x="1427" y="-18" font-family="Helvetica,sans-Serif" font-size="10.00">include/Hermes/Socket</text>
<text text-anchor="middle" x="1505.5" y="-7" font-family="Helvetica,sans-Serif" font-size="10.00">/Async/AsyncListenerSocket.hpp</text>
</a>
</g>
</g>
<!-- Node5&#45;&gt;Node6 -->
<g id="edge5_Node000005_Node000006" class="edge">
<title>Node5&#45;&gt;Node6</title>
<g id="a_edge5_Node000005_Node000006"><a xlink:title=" ">
<path fill="none" stroke="#63b8ff" d="M1354.92,-68.07C1388.91,-56.31 1433.16,-41.01 1464.89,-30.04"/>
<polygon fill="#63b8ff" stroke="#63b8ff" points="1353.48,-64.86 1345.18,-71.44 1355.77,-71.48 1353.48,-64.86"/>
</a>
</g>
</g>
<!-- Node7&#45;&gt;Node5 -->
<g id="edge7_Node000007_Node000005" class="edge">
<title>Node7&#45;&gt;Node5</title>
<g id="a_edge7_Node000007_Node000005"><a xlink:title=" ">
<path fill="none" stroke="#63b8ff" d="M1269.97,-134.59C1278.13,-123.46 1287.18,-111.12 1293.97,-101.86"/>
<polygon fill="#63b8ff" stroke="#63b8ff" points="1267.04,-132.66 1263.95,-142.79 1272.69,-136.8 1267.04,-132.66"/>
</a>
</g>
</g>
<!-- Node9 -->
<g id="Node000009" class="node">
<title>Node9</title>
<g id="a_Node000009"><a xlink:href="_async_client_socket_8hpp.html" target="_top" xlink:title=" ">
<polygon fill="white" stroke="#666666" points="839,-30 676,-30 676,0 839,0 839,-30"/>
<text text-anchor="start" x="684" y="-18" font-family="Helvetica,sans-Serif" font-size="10.00">include/Hermes/Socket</text>
<text text-anchor="middle" x="757.5" y="-7" font-family="Helvetica,sans-Serif" font-size="10.00">/Async/AsyncClientSocket.hpp</text>
</a>
</g>
</g>
<!-- Node8&#45;&gt;Node9 -->
<g id="edge9_Node000008_Node000009" class="edge">
<title>Node8&#45;&gt;Node9</title>
<g id="a_edge9_Node000008_Node000009"><a xlink:title=" ">
<path fill="none" stroke="#63b8ff" d="M172.28,-140.38C253.07,-119.88 377.61,-89.16 486.5,-66 549.79,-52.54 621.85,-39.34 675.74,-29.89"/>
<polygon fill="#63b8ff" stroke="#63b8ff" points="170.99,-137.1 162.16,-142.95 172.71,-143.88 170.99,-137.1"/>
</a>
</g>
</g>
<!-- Node10 -->
<g id="Node000010" class="node">
<title>Node10</title>
<g id="a_Node000010"><a xlink:href="_tls_async_connect_policy_8hpp.html" target="_top" xlink:title=" ">
<polygon fill="white" stroke="#666666" points="647.5,-107 495.5,-107 495.5,-66 647.5,-66 647.5,-107"/>
<text text-anchor="start" x="503.5" y="-95" font-family="Helvetica,sans-Serif" font-size="10.00">include/Hermes/Socket</text>
<text text-anchor="start" x="503.5" y="-84" font-family="Helvetica,sans-Serif" font-size="10.00">/Async/_base/Connection</text>
<text text-anchor="middle" x="571.5" y="-73" font-family="Helvetica,sans-Serif" font-size="10.00">/TlsAsyncConnectPolicy.hpp</text>
</a>
</g>
</g>
<!-- Node8&#45;&gt;Node10 -->
<g id="edge10_Node000008_Node000010" class="edge">
<title>Node8&#45;&gt;Node10</title>
<g id="a_edge10_Node000008_Node000010"><a xlink:title=" ">
<path fill="none" stroke="#63b8ff" d="M183.09,-143.75C184.57,-143.5 186.04,-143.25 187.5,-143 293.94,-125.04 417.59,-107.82 495.2,-97.45"/>
<polygon fill="#63b8ff" stroke="#63b8ff" points="182.47,-140.31 173.23,-145.48 183.68,-147.2 182.47,-140.31"/>
</a>
</g>
</g>
<!-- Node10&#45;&gt;Node9 -->
<g id="edge11_Node000010_Node000009" class="edge">
<title>Node10&#45;&gt;Node9</title>
<g id="a_edge11_Node000010_Node000009"><a xlink:title=" ">
<path fill="none" stroke="#63b8ff" d="M633.35,-62.39C662.03,-51.67 695.19,-39.28 720.02,-30"/>
<polygon fill="#63b8ff" stroke="#63b8ff" points="631.95,-59.18 623.81,-65.96 634.4,-65.73 631.95,-59.18"/>
</a>
</g>
</g>
<!-- Node11&#45;&gt;Node5 -->
<g id="edge14_Node000011_Node000005" class="edge">
<title>Node11&#45;&gt;Node5</title>
<g id="a_edge14_Node000011_Node000005"><a xlink:title=" ">
<path fill="none" stroke="#63b8ff" d="M1107.16,-140.36C1154,-127.81 1211.19,-112.49 1251.93,-101.58"/>
<polygon fill="#63b8ff" stroke="#63b8ff" points="1106.09,-137.02 1097.34,-142.99 1107.9,-143.78 1106.09,-137.02"/>
</a>
</g>
</g>
<!-- Node11&#45;&gt;Node9 -->
<g id="edge13_Node000011_Node000009" class="edge">
<title>Node11&#45;&gt;Node9</title>
<g id="a_edge13_Node000011_Node000009"><a xlink:title=" ">
<path fill="none" stroke="#63b8ff" d="M1001.99,-134.76C983.11,-113.18 954.34,-83.97 923.5,-66 895.02,-49.41 860.54,-37.86 830.39,-30.08"/>
<polygon fill="#63b8ff" stroke="#63b8ff" points="999.56,-137.31 1008.73,-142.62 1004.87,-132.75 999.56,-137.31"/>
</a>
</g>
</g>
<!-- Node12&#45;&gt;Node4 -->
<g id="edge16_Node000012_Node000004" class="edge">
<title>Node12&#45;&gt;Node4</title>
<g id="a_edge16_Node000012_Node000004"><a xlink:title=" ">
<path fill="none" stroke="#63b8ff" d="M1066.63,-295.43C1124,-283.48 1194.7,-268.75 1247.71,-257.71"/>
<polygon fill="#63b8ff" stroke="#63b8ff" points="1065.88,-292.01 1056.81,-297.48 1067.31,-298.86 1065.88,-292.01"/>
</a>
</g>
</g>
<!-- Node13 -->
<g id="Node000013" class="node">
<title>Node13</title>
<g id="a_Node000013"><a xlink:href="_server_socket_8hpp.html" target="_top" xlink:title=" ">
<polygon fill="white" stroke="#666666" points="881,-178.5 750,-178.5 750,-148.5 881,-148.5 881,-178.5"/>
<text text-anchor="start" x="758" y="-166.5" font-family="Helvetica,sans-Serif" font-size="10.00">include/Hermes/Socket</text>
<text text-anchor="middle" x="815.5" y="-155.5" font-family="Helvetica,sans-Serif" font-size="10.00">/Sync/ServerSocket.hpp</text>
</a>
</g>
</g>
<!-- Node12&#45;&gt;Node13 -->
<g id="edge17_Node000012_Node000013" class="edge">
<title>Node12&#45;&gt;Node13</title>
<g id="a_edge17_Node000012_Node000013"><a xlink:title=" ">
<path fill="none" stroke="#63b8ff" d="M965.52,-286.64C964.04,-265.83 958.92,-238.58 943.5,-220 926.79,-199.87 901.4,-186.85 877.62,-178.52"/>
<polygon fill="#63b8ff" stroke="#63b8ff" points="962.04,-287.03 966,-296.86 969.03,-286.7 962.04,-287.03"/>
</a>
</g>
</g>
<!-- Node15 -->
<g id="Node000015" class="node">
<title>Node15</title>
<g id="a_Node000015"><a xlink:href="_tls_accept_policy_8hpp.html" target="_top" xlink:title=" ">
<polygon fill="white" stroke="#666666" points="1191,-261 1030,-261 1030,-220 1191,-220 1191,-261"/>
<text text-anchor="start" x="1038" y="-249" font-family="Helvetica,sans-Serif" font-size="10.00">include/Hermes/Socket</text>
<text text-anchor="start" x="1038" y="-238" font-family="Helvetica,sans-Serif" font-size="10.00">/Sync/_base/Accept/TlsAccept</text>
<text text-anchor="middle" x="1110.5" y="-227" font-family="Helvetica,sans-Serif" font-size="10.00">Policy.hpp</text>
</a>
</g>
</g>
<!-- Node12&#45;&gt;Node15 -->
<g id="edge19_Node000012_Node000015" class="edge">
<title>Node12&#45;&gt;Node15</title>
<g id="a_edge19_Node000012_Node000015"><a xlink:title=" ">
<path fill="none" stroke="#63b8ff" d="M1012.26,-292.31C1031.82,-282.2 1054.24,-270.6 1072.72,-261.04"/>
<polygon fill="#63b8ff" stroke="#63b8ff" points="1010.49,-289.29 1003.22,-296.99 1013.71,-295.5 1010.49,-289.29"/>
</a>
</g>
</g>
<!-- Node14 -->
<g id="Node000014" class="node">
<title>Node14</title>
<g id="a_Node000014"><a xlink:href="_listener_socket_8hpp.html" target="_top" xlink:title=" ">
<polygon fill="white" stroke="#666666" points="881.5,-101.5 743.5,-101.5 743.5,-71.5 881.5,-71.5 881.5,-101.5"/>
<text text-anchor="start" x="751.5" y="-89.5" font-family="Helvetica,sans-Serif" font-size="10.00">include/Hermes/Socket</text>
<text text-anchor="middle" x="812.5" y="-78.5" font-family="Helvetica,sans-Serif" font-size="10.00">/Sync/ListenerSocket.hpp</text>
</a>
</g>
</g>
<!-- Node13&#45;&gt;Node14 -->
<g id="edge18_Node000013_Node000014" class="edge">
<title>Node13&#45;&gt;Node14</title>
<g id="a_edge18_Node000013_Node000014"><a xlink:title=" ">
<path fill="none" stroke="#63b8ff" d="M814.52,-138.04C814.04,-125.95 813.47,-111.79 813.06,-101.54"/>
<polygon fill="#63b8ff" stroke="#63b8ff" points="811.04,-138.54 814.94,-148.39 818.03,-138.26 811.04,-138.54"/>
</a>
</g>
</g>
<!-- Node15&#45;&gt;Node7 -->
<g id="edge20_Node000015_Node000007" class="edge">
<title>Node15&#45;&gt;Node7</title>
<g id="a_edge20_Node000015_Node000007"><a xlink:title=" ">
<path fill="none" stroke="#63b8ff" d="M1155.55,-215.19C1174.15,-205.15 1195.44,-193.67 1213.04,-184.17"/>
<polygon fill="#63b8ff" stroke="#63b8ff" points="1153.8,-212.16 1146.66,-219.99 1157.12,-218.32 1153.8,-212.16"/>
</a>
</g>
</g>
<!-- Node15&#45;&gt;Node13 -->
<g id="edge21_Node000015_Node000013" class="edge">
<title>Node15&#45;&gt;Node13</title>
<g id="a_edge21_Node000015_Node000013"><a xlink:title=" ">
<path fill="none" stroke="#63b8ff" d="M1024.03,-217.52C974.56,-204.94 913.98,-189.54 870.89,-178.58"/>
<polygon fill="#63b8ff" stroke="#63b8ff" points="1023.21,-220.92 1033.76,-219.99 1024.93,-214.13 1023.21,-220.92"/>
</a>
</g>
</g>
<!-- Node17 -->
<g id="Node000017" class="node">
<title>Node17</title>
<g id="a_Node000017"><a xlink:href="_client_socket_8hpp.html" target="_top" xlink:title=" ">
<polygon fill="white" stroke="#666666" points="539.5,-178.5 411.5,-178.5 411.5,-148.5 539.5,-148.5 539.5,-178.5"/>
<text text-anchor="start" x="419.5" y="-166.5" font-family="Helvetica,sans-Serif" font-size="10.00">include/Hermes/Socket</text>
<text text-anchor="middle" x="475.5" y="-155.5" font-family="Helvetica,sans-Serif" font-size="10.00">/Sync/ClientSocket.hpp</text>
</a>
</g>
</g>
<!-- Node16&#45;&gt;Node17 -->
<g id="edge23_Node000016_Node000017" class="edge">
<title>Node16&#45;&gt;Node17</title>
<g id="a_edge23_Node000016_Node000017"><a xlink:title=" ">
<path fill="none" stroke="#63b8ff" d="M270.83,-289.45C291.4,-268.58 321.91,-239.99 352.5,-220 378.78,-202.83 411.25,-188.42 436.23,-178.6"/>
<polygon fill="#63b8ff" stroke="#63b8ff" points="268.18,-287.16 263.72,-296.76 273.2,-292.04 268.18,-287.16"/>
</a>
</g>
</g>
<!-- Node16&#45;&gt;Node18 -->
<g id="edge24_Node000016_Node000018" class="edge">
<title>Node16&#45;&gt;Node18</title>
<g id="a_edge24_Node000016_Node000018"><a xlink:title=" ">
<path fill="none" stroke="#63b8ff" d="M228.84,-288.11C223.55,-279.09 217.82,-269.33 212.98,-261.07"/>
<polygon fill="#63b8ff" stroke="#63b8ff" points="225.86,-289.94 233.94,-296.79 231.9,-286.4 225.86,-289.94"/>
</a>
</g>
</g>
<!-- Node18&#45;&gt;Node8 -->
<g id="edge25_Node000018_Node000008" class="edge">
<title>Node18&#45;&gt;Node8</title>
<g id="a_edge25_Node000018_Node000008"><a xlink:title=" ">
<path fill="none" stroke="#63b8ff" d="M162.97,-214.37C147.88,-204.53 130.83,-193.41 116.66,-184.17"/>
<polygon fill="#63b8ff" stroke="#63b8ff" points="161.3,-217.46 171.59,-219.99 165.12,-211.6 161.3,-217.46"/>
</a>
</g>
</g>
<!-- Node18&#45;&gt;Node10 -->
<g id="edge26_Node000018_Node000010" class="edge">
<title>Node18&#45;&gt;Node10</title>
<g id="a_edge26_Node000018_Node000010"><a xlink:title=" ">
<path fill="none" stroke="#63b8ff" d="M199.06,-209.53C199.05,-188.01 202.93,-159.92 220.5,-143 258.72,-106.19 404.03,-93.79 495.27,-89.62"/>
<polygon fill="#63b8ff" stroke="#63b8ff" points="195.57,-209.89 199.35,-219.79 202.56,-209.7 195.57,-209.89"/>
</a>
</g>
</g>
<!-- Node18&#45;&gt;Node17 -->
<g id="edge27_Node000018_Node000017" class="edge">
<title>Node18&#45;&gt;Node17</title>
<g id="a_edge27_Node000018_Node000017"><a xlink:title=" ">
<path fill="none" stroke="#63b8ff" d="M277.59,-218.67C324.22,-205.91 382.67,-189.91 423.93,-178.62"/>
<polygon fill="#63b8ff" stroke="#63b8ff" points="276.55,-215.33 267.83,-221.34 278.4,-222.08 276.55,-215.33"/>
</a>
</g>
</g>
<!-- Node19 -->
<g id="Node000019" class="node">
<title>Node19</title>
<g id="a_Node000019"><a xlink:href="_tls_connect_state_machine_8hpp.html" target="_top" xlink:title=" ">
<polygon fill="white" stroke="#666666" points="393,-184 230,-184 230,-143 393,-143 393,-184"/>
<text text-anchor="start" x="238" y="-172" font-family="Helvetica,sans-Serif" font-size="10.00">include/Hermes/Socket</text>
<text text-anchor="start" x="238" y="-161" font-family="Helvetica,sans-Serif" font-size="10.00">/_base/Connection/TlsConnect</text>
<text text-anchor="middle" x="311.5" y="-150" font-family="Helvetica,sans-Serif" font-size="10.00">StateMachine.hpp</text>
</a>
</g>
</g>
<!-- Node18&#45;&gt;Node19 -->
<g id="edge28_Node000018_Node000019" class="edge">
<title>Node18&#45;&gt;Node19</title>
<g id="a_edge28_Node000018_Node000019"><a xlink:title=" ">
<path fill="none" stroke="#63b8ff" d="M238.76,-214.09C253.1,-204.32 269.22,-193.32 282.65,-184.17"/>
<polygon fill="#63b8ff" stroke="#63b8ff" points="236.4,-211.47 230.11,-219.99 240.35,-217.25 236.4,-211.47"/>
</a>
</g>
</g>
<!-- Node20&#45;&gt;Node13 -->
<g id="edge31_Node000020_Node000013" class="edge">
<title>Node20&#45;&gt;Node13</title>
<g id="a_edge31_Node000020_Node000013"><a xlink:title=" ">
<path fill="none" stroke="#63b8ff" d="M515.11,-220.92C516.58,-220.61 518.05,-220.3 519.5,-220 598.47,-203.65 689.74,-186.85 749.82,-176.08"/>
<polygon fill="#63b8ff" stroke="#63b8ff" points="514.3,-217.51 505.25,-223.02 515.76,-224.36 514.3,-217.51"/>
</a>
</g>
</g>
<!-- Node20&#45;&gt;Node17 -->
<g id="edge30_Node000020_Node000017" class="edge">
<title>Node20&#45;&gt;Node17</title>
<g id="a_edge30_Node000020_Node000017"><a xlink:title=" ">
<path fill="none" stroke="#63b8ff" d="M449.5,-210.93C455.63,-199.97 462.38,-187.93 467.46,-178.86"/>
<polygon fill="#63b8ff" stroke="#63b8ff" points="446.37,-209.36 444.54,-219.79 452.47,-212.78 446.37,-209.36"/>
</a>
</g>
</g>
<!-- Node21&#45;&gt;Node7 -->
<g id="edge33_Node000021_Node000007" class="edge">
<title>Node21&#45;&gt;Node7</title>
<g id="a_edge33_Node000021_Node000007"><a xlink:title=" ">
<path fill="none" stroke="#63b8ff" d="M820.66,-299.98C857.89,-290.38 903.84,-277.02 943.5,-261 979.45,-246.48 984.26,-233.79 1020.5,-220 1047.31,-209.8 1113.48,-194.12 1167.83,-182.02"/>
<polygon fill="#63b8ff" stroke="#63b8ff" points="819.73,-296.61 810.9,-302.46 821.46,-303.39 819.73,-296.61"/>
</a>
</g>
</g>
<!-- Node21&#45;&gt;Node10 -->
<g id="edge34_Node000021_Node000010" class="edge">
<title>Node21&#45;&gt;Node10</title>
<g id="a_edge34_Node000021_Node000010"><a xlink:title=" ">
<path fill="none" stroke="#63b8ff" d="M751.07,-292.28C751.32,-271.76 749.04,-242.21 736.5,-220 707.23,-168.18 648.93,-128.88 610.06,-107.01"/>
<polygon fill="#63b8ff" stroke="#63b8ff" points="747.57,-292.27 750.74,-302.38 754.56,-292.5 747.57,-292.27"/>
</a>
</g>
</g>
<!-- Node21&#45;&gt;Node15 -->
<g id="edge38_Node000021_Node000015" class="edge">
<title>Node21&#45;&gt;Node15</title>
<g id="a_edge38_Node000021_Node000015"><a xlink:title=" ">
<path fill="none" stroke="#63b8ff" d="M827.12,-300.37C886.89,-287.96 969.25,-270.85 1029.78,-258.27"/>
<polygon fill="#63b8ff" stroke="#63b8ff" points="826.06,-297.02 816.98,-302.48 827.48,-303.87 826.06,-297.02"/>
</a>
</g>
</g>
<!-- Node21&#45;&gt;Node18 -->
<g id="edge39_Node000021_Node000018" class="edge">
<title>Node21&#45;&gt;Node18</title>
<g id="a_edge39_Node000021_Node000018"><a xlink:title=" ">
<path fill="none" stroke="#63b8ff" d="M670.7,-305.72C562.24,-290.87 368.89,-264.41 267.58,-250.54"/>
<polygon fill="#63b8ff" stroke="#63b8ff" points="670.54,-309.23 680.93,-307.12 671.49,-302.29 670.54,-309.23"/>
</a>
</g>
</g>
<!-- Node22 -->
<g id="Node000022" class="node">
<title>Node22</title>
<g id="a_Node000022"><a xlink:href="_tls_async_transfer_policy_8hpp.html" target="_top" xlink:title=" ">
<polygon fill="white" stroke="#666666" points="935,-261 784,-261 784,-220 935,-220 935,-261"/>
<text text-anchor="start" x="792" y="-249" font-family="Helvetica,sans-Serif" font-size="10.00">include/Hermes/Socket</text>
<text text-anchor="start" x="792" y="-238" font-family="Helvetica,sans-Serif" font-size="10.00">/Async/_base/Transfer</text>
<text text-anchor="middle" x="859.5" y="-227" font-family="Helvetica,sans-Serif" font-size="10.00">/TlsAsyncTransferPolicy.hpp</text>
</a>
</g>
</g>
<!-- Node21&#45;&gt;Node22 -->
<g id="edge35_Node000021_Node000022" class="edge">
<title>Node21&#45;&gt;Node22</title>
<g id="a_edge35_Node000021_Node000022"><a xlink:title=" ">
<path fill="none" stroke="#63b8ff" d="M778.67,-296.61C794.73,-285.66 814.59,-272.12 830.6,-261.2"/>
<polygon fill="#63b8ff" stroke="#63b8ff" points="776.48,-293.87 770.19,-302.39 780.42,-299.65 776.48,-293.87"/>
</a>
</g>
</g>
<!-- Node23 -->
<g id="Node000023" class="node">
<title>Node23</title>
<g id="a_Node000023"><a xlink:href="_tls_transfer_policy_8hpp.html" target="_top" xlink:title=" ">
<polygon fill="white" stroke="#666666" points="727.5,-261 599.5,-261 599.5,-220 727.5,-220 727.5,-261"/>
<text text-anchor="start" x="607.5" y="-249" font-family="Helvetica,sans-Serif" font-size="10.00">include/Hermes/Socket</text>
<text text-anchor="start" x="607.5" y="-238" font-family="Helvetica,sans-Serif" font-size="10.00">/Sync/_base/Transfer</text>
<text text-anchor="middle" x="663.5" y="-227" font-family="Helvetica,sans-Serif" font-size="10.00">/TlsTransferPolicy.hpp</text>
</a>
</g>
</g>
<!-- Node21&#45;&gt;Node23 -->
<g id="edge40_Node000021_Node000023" class="edge">
<title>Node21&#45;&gt;Node23</title>
<g id="a_edge40_Node000021_Node000023"><a xlink:title=" ">
<path fill="none" stroke="#63b8ff" d="M725.64,-295.69C713.28,-284.91 698.27,-271.82 686.09,-261.2"/>
<polygon fill="#63b8ff" stroke="#63b8ff" points="723.49,-298.46 733.32,-302.39 728.09,-293.18 723.49,-298.46"/>
</a>
</g>
</g>
<!-- Node22&#45;&gt;Node5 -->
<g id="edge37_Node000022_Node000005" class="edge">
<title>Node22&#45;&gt;Node5</title>
<g id="a_edge37_Node000022_Node000005"><a xlink:title=" ">
<path fill="none" stroke="#63b8ff" d="M945.12,-226.82C1008.95,-216.34 1089.97,-200.53 1119.5,-184 1141.44,-171.71 1137.56,-156.93 1158.5,-143 1186.61,-124.31 1221.91,-110.67 1250.76,-101.59"/>
<polygon fill="#63b8ff" stroke="#63b8ff" points="944.34,-223.4 935.03,-228.46 945.46,-230.31 944.34,-223.4"/>
</a>
</g>
</g>
<!-- Node22&#45;&gt;Node9 -->
<g id="edge36_Node000022_Node000009" class="edge">
<title>Node22&#45;&gt;Node9</title>
<g id="a_edge36_Node000022_Node000009"><a xlink:title=" ">
<path fill="none" stroke="#63b8ff" d="M878.15,-211.25C882.76,-202.83 887.07,-193.34 889.5,-184 902.69,-133.24 920.36,-109.12 890.5,-66 878.35,-48.46 859.23,-37.06 839.23,-29.66"/>
<polygon fill="#63b8ff" stroke="#63b8ff" points="875.11,-209.52 873.11,-219.92 881.16,-213.04 875.11,-209.52"/>
</a>
</g>
</g>
<!-- Node23&#45;&gt;Node13 -->
<g id="edge42_Node000023_Node000013" class="edge">
<title>Node23&#45;&gt;Node13</title>
<g id="a_edge42_Node000023_Node000013"><a xlink:title=" ">
<path fill="none" stroke="#63b8ff" d="M712.21,-215.46C736.78,-203.34 765.73,-189.06 786.72,-178.7"/>
<polygon fill="#63b8ff" stroke="#63b8ff" points="710.46,-212.43 703.04,-219.99 713.56,-218.7 710.46,-212.43"/>
</a>
</g>
</g>
<!-- Node23&#45;&gt;Node17 -->
<g id="edge41_Node000023_Node000017" class="edge">
<title>Node23&#45;&gt;Node17</title>
<g id="a_edge41_Node000023_Node000017"><a xlink:title=" ">
<path fill="none" stroke="#63b8ff" d="M605.22,-216.25C574.31,-203.92 537.35,-189.17 510.8,-178.58"/>
<polygon fill="#63b8ff" stroke="#63b8ff" points="604.01,-219.54 614.6,-219.99 606.6,-213.03 604.01,-219.54"/>
</a>
</g>
</g>
<!-- Node24&#45;&gt;Node3 -->
<g id="edge54_Node000024_Node000003" class="edge">
<title>Node24&#45;&gt;Node3</title>
<g id="a_edge54_Node000024_Node000003"><a xlink:title=" ">
<path fill="none" stroke="#63b8ff" d="M837.33,-452.68C779.74,-442.94 697.93,-428.75 626.5,-415 617.59,-413.28 608.22,-411.41 598.99,-409.51"/>
<polygon fill="#63b8ff" stroke="#63b8ff" points="836.99,-456.17 847.44,-454.38 838.16,-449.27 836.99,-456.17"/>
</a>
</g>
</g>
<!-- Node24&#45;&gt;Node4 -->
<g id="edge48_Node000024_Node000004" class="edge">
<title>Node24&#45;&gt;Node4</title>
<g id="a_edge48_Node000024_Node000004"><a xlink:title=" ">
<path fill="none" stroke="#63b8ff" d="M985.87,-464.42C1140.61,-462.43 1485.87,-453.67 1521.5,-415 1557.04,-376.43 1553.13,-338.83 1521.5,-297 1506.84,-277.61 1451.38,-263.03 1403.18,-253.7"/>
<polygon fill="#63b8ff" stroke="#63b8ff" points="985.47,-460.92 975.51,-464.54 985.56,-467.92 985.47,-460.92"/>
</a>
</g>
</g>
<!-- Node24&#45;&gt;Node5 -->
<g id="edge47_Node000024_Node000005" class="edge">
<title>Node24&#45;&gt;Node5</title>
<g id="a_edge47_Node000024_Node000005"><a xlink:title=" ">
<path fill="none" stroke="#63b8ff" d="M985.95,-463.29C1146.96,-459.01 1516.96,-445.91 1564.5,-415 1605.35,-388.44 1616.5,-367.22 1616.5,-318.5 1616.5,-318.5 1616.5,-318.5 1616.5,-239.5 1616.5,-137.52 1480.13,-103.95 1387.7,-92.9"/>
<polygon fill="#63b8ff" stroke="#63b8ff" points="985.55,-459.79 975.65,-463.55 985.74,-466.79 985.55,-459.79"/>
</a>
</g>
</g>
<!-- Node24&#45;&gt;Node6 -->
<g id="edge46_Node000024_Node000006" class="edge">
<title>Node24&#45;&gt;Node6</title>
<g id="a_edge46_Node000024_Node000006"><a xlink:title=" ">
<path fill="none" stroke="#63b8ff" d="M985.85,-463.48C1152.93,-459.52 1547.54,-446.87 1598.5,-415 1640.54,-388.71 1654.5,-368.09 1654.5,-318.5 1654.5,-318.5 1654.5,-318.5 1654.5,-162.5 1654.5,-97.56 1581.65,-51.81 1537.83,-30.16"/>
<polygon fill="#63b8ff" stroke="#63b8ff" points="985.57,-459.99 975.66,-463.72 985.74,-466.99 985.57,-459.99"/>
</a>
</g>
</g>
<!-- Node24&#45;&gt;Node7 -->
<g id="edge49_Node000024_Node000007" class="edge">
<title>Node24&#45;&gt;Node7</title>
<g id="a_edge49_Node000024_Node000007"><a xlink:title=" ">
<path fill="none" stroke="#63b8ff" d="M985.77,-464.68C1145.25,-463.22 1509.11,-455.45 1546.5,-415 1555.8,-404.94 1561.4,-324.17 1545.5,-297 1501.49,-221.8 1402.53,-189.1 1331.13,-175"/>
<polygon fill="#63b8ff" stroke="#63b8ff" points="985.53,-461.18 975.56,-464.77 985.59,-468.18 985.53,-461.18"/>
</a>
</g>
</g>
<!-- Node24&#45;&gt;Node8 -->
<g id="edge50_Node000024_Node000008" class="edge">
<title>Node24&#45;&gt;Node8</title>
<g id="a_edge50_Node000024_Node000008"><a xlink:title=" ">
<path fill="none" stroke="#63b8ff" d="M837.03,-460.98C650.76,-450.79 178.46,-424.13 164.5,-415 86.36,-363.89 83.35,-234 85.25,-184.28"/>
<polygon fill="#63b8ff" stroke="#63b8ff" points="837.11,-464.49 847.29,-461.54 837.49,-457.5 837.11,-464.49"/>
</a>
</g>
</g>
<!-- Node24&#45;&gt;Node10 -->
<g id="edge51_Node000024_Node000010" class="edge">
<title>Node24&#45;&gt;Node10</title>
<g id="a_edge51_Node000024_Node000010"><a xlink:title=" ">
<path fill="none" stroke="#63b8ff" d="M837.45,-453.22C804.55,-445.72 766.37,-433.76 735.5,-415 655.17,-366.17 629.88,-346.37 590.5,-261 566.7,-209.41 567.57,-140.32 569.74,-107.04"/>
<polygon fill="#63b8ff" stroke="#63b8ff" points="836.96,-456.7 847.48,-455.41 838.45,-449.86 836.96,-456.7"/>
</a>
</g>
</g>
<!-- Node24&#45;&gt;Node11 -->
<g id="edge52_Node000024_Node000011" class="edge">
<title>Node24&#45;&gt;Node11</title>
<g id="a_edge52_Node000024_Node000011"><a xlink:title=" ">
<path fill="none" stroke="#63b8ff" d="M963.04,-447.35C1033.05,-420.11 1154.6,-360.32 1199.5,-261 1207.01,-244.4 1210.26,-234.7 1199.5,-220 1178.98,-191.97 1144.21,-177.74 1111.04,-170.65"/>
<polygon fill="#63b8ff" stroke="#63b8ff" points="961.62,-444.15 953.52,-450.98 964.11,-450.69 961.62,-444.15"/>
</a>
</g>
</g>
<!-- Node24&#45;&gt;Node12 -->
<g id="edge56_Node000024_Node000012" class="edge">
<title>Node24&#45;&gt;Node12</title>
<g id="a_edge56_Node000024_Node000012"><a xlink:title=" ">
<path fill="none" stroke="#63b8ff" d="M928.85,-442.57C934.56,-434.29 940.47,-424.57 944.5,-415 955.15,-389.72 960.69,-358.34 963.35,-338.37"/>
<polygon fill="#63b8ff" stroke="#63b8ff" points="925.83,-440.77 922.83,-450.93 931.52,-444.86 925.83,-440.77"/>
</a>
</g>
</g>
<!-- Node24&#45;&gt;Node15 -->
<g id="edge57_Node000024_Node000015" class="edge">
<title>Node24&#45;&gt;Node15</title>
<g id="a_edge57_Node000024_Node000015"><a xlink:title=" ">
<path fill="none" stroke="#63b8ff" d="M942.91,-445.31C976.79,-422.8 1030.55,-383.15 1065.5,-338 1083.94,-314.17 1097.14,-281.57 1104.3,-261.02"/>
<polygon fill="#63b8ff" stroke="#63b8ff" points="940.78,-442.53 934.34,-450.93 944.62,-448.38 940.78,-442.53"/>
</a>
</g>
</g>
<!-- Node24&#45;&gt;Node16 -->
<g id="edge58_Node000024_Node000016" class="edge">
<title>Node24&#45;&gt;Node16</title>
<g id="a_edge58_Node000024_Node000016"><a xlink:title=" ">
<path fill="none" stroke="#63b8ff" d="M837.1,-460.92C661.25,-451.1 233.86,-426.14 223.5,-415 204.07,-394.11 219.09,-359.74 232.05,-338.15"/>
<polygon fill="#63b8ff" stroke="#63b8ff" points="837.12,-464.42 847.3,-461.49 837.51,-457.44 837.12,-464.42"/>
</a>
</g>
</g>
<!-- Node24&#45;&gt;Node18 -->
<g id="edge59_Node000024_Node000018" class="edge">
<title>Node24&#45;&gt;Node18</title>
<g id="a_edge59_Node000024_Node000018"><a xlink:title=" ">
<path fill="none" stroke="#63b8ff" d="M837.08,-461.54C662.03,-453.15 236.86,-431.23 210.5,-415 162.56,-385.49 148.19,-350.87 164.5,-297 168.46,-283.92 176.63,-271.11 184.29,-261.09"/>
<polygon fill="#63b8ff" stroke="#63b8ff" points="837.08,-465.04 847.24,-462.02 837.42,-458.05 837.08,-465.04"/>
</a>
</g>
</g>
<!-- Node24&#45;&gt;Node20 -->
<g id="edge60_Node000024_Node000020" class="edge">
<title>Node24&#45;&gt;Node20</title>
<g id="a_edge60_Node000024_Node000020"><a xlink:title=" ">
<path fill="none" stroke="#63b8ff" d="M836.84,-462.16C712.06,-456.67 472.09,-442.61 445.5,-415 405.4,-373.35 418.58,-296.93 427.76,-261.06"/>
<polygon fill="#63b8ff" stroke="#63b8ff" points="836.95,-465.67 847.09,-462.6 837.25,-458.68 836.95,-465.67"/>
</a>
</g>
</g>
<!-- Node24&#45;&gt;Node21 -->
<g id="edge55_Node000024_Node000021" class="edge">
<title>Node24&#45;&gt;Node21</title>
<g id="a_edge55_Node000024_Node000021"><a xlink:title=" ">
<path fill="none" stroke="#63b8ff" d="M906.36,-440.93C900.96,-420.81 890.66,-392.51 872.5,-374 853.3,-354.44 825.96,-341.16 801.93,-332.51"/>
<polygon fill="#63b8ff" stroke="#63b8ff" points="903.02,-442.01 908.81,-450.89 909.82,-440.34 903.02,-442.01"/>
</a>
</g>
</g>
<!-- Node24&#45;&gt;Node22 -->
<g id="edge53_Node000024_Node000022" class="edge">
<title>Node24&#45;&gt;Node22</title>
<g id="a_edge53_Node000024_Node000022"><a xlink:title=" ">
<path fill="none" stroke="#63b8ff" d="M912.29,-440.78C912,-421.76 909.51,-395.05 899.5,-374 890.05,-354.13 874.26,-358.19 865.5,-338 854.74,-313.21 855.14,-281.43 856.92,-261.26"/>
<polygon fill="#63b8ff" stroke="#63b8ff" points="908.79,-440.98 912.25,-451 915.79,-441.01 908.79,-440.98"/>
</a>
</g>
</g>
<!-- Node24&#45;&gt;Node23 -->
<g id="edge61_Node000024_Node000023" class="edge">
<title>Node24&#45;&gt;Node23</title>
<g id="a_edge61_Node000024_Node000023"><a xlink:title=" ">
<path fill="none" stroke="#63b8ff" d="M837.3,-454.19C804.19,-446.87 765.9,-434.79 735.5,-415 698.21,-390.72 688.34,-379.19 671.5,-338 661.26,-312.95 660.73,-281.24 661.76,-261.15"/>
<polygon fill="#63b8ff" stroke="#63b8ff" points="836.88,-457.68 847.39,-456.31 838.32,-450.83 836.88,-457.68"/>
</a>
</g>
</g>
<!-- Node25 -->
<g id="Node000025" class="node">
<title>Node25</title>
<g id="a_Node000025"><a xlink:href="_i_tls_accept_state_machine_8hpp.html" target="_top" xlink:title=" ">
<polygon fill="white" stroke="#666666" points="1308,-415 1145,-415 1145,-374 1308,-374 1308,-415"/>
<text text-anchor="start" x="1153" y="-403" font-family="Helvetica,sans-Serif" font-size="10.00">include/Hermes/Socket</text>
<text text-anchor="start" x="1153" y="-392" font-family="Helvetica,sans-Serif" font-size="10.00">/_base/Accept/ITlsAcceptState</text>
<text text-anchor="middle" x="1226.5" y="-381" font-family="Helvetica,sans-Serif" font-size="10.00">Machine.hpp</text>
</a>
</g>
</g>
<!-- Node24&#45;&gt;Node25 -->
<g id="edge62_Node000024_Node000025" class="edge">
<title>Node24&#45;&gt;Node25</title>
<g id="a_edge62_Node000024_Node000025"><a xlink:title=" ">
<path fill="none" stroke="#63b8ff" d="M985.23,-448.73C1033.09,-438.17 1095.51,-424.4 1144.87,-413.51"/>
<polygon fill="#63b8ff" stroke="#63b8ff" points="984.26,-445.36 975.24,-450.94 985.76,-452.2 984.26,-445.36"/>
</a>
</g>
</g>
<!-- Node27 -->
<g id="Node000027" class="node">
<title>Node27</title>
<g id="a_Node000027"><a xlink:href="_i_tls_connect_state_machine_8hpp.html" target="_top" xlink:title=" ">
<polygon fill="white" stroke="#666666" points="398.5,-415 232.5,-415 232.5,-374 398.5,-374 398.5,-415"/>
<text text-anchor="start" x="240.5" y="-403" font-family="Helvetica,sans-Serif" font-size="10.00">include/Hermes/Socket</text>
<text text-anchor="start" x="240.5" y="-392" font-family="Helvetica,sans-Serif" font-size="10.00">/_base/Connection/ITlsConnect</text>
<text text-anchor="middle" x="315.5" y="-381" font-family="Helvetica,sans-Serif" font-size="10.00">StateMachine.hpp</text>
</a>
</g>
</g>
<!-- Node24&#45;&gt;Node27 -->
<g id="edge64_Node000024_Node000027" class="edge">
<title>Node24&#45;&gt;Node27</title>
<g id="a_edge64_Node000024_Node000027"><a xlink:title=" ">
<path fill="none" stroke="#63b8ff" d="M837.38,-459.87C739.67,-452.58 562.6,-437.55 412.5,-415 408,-414.32 403.39,-413.58 398.74,-412.79"/>
<polygon fill="#63b8ff" stroke="#63b8ff" points="837.21,-463.36 847.45,-460.61 837.73,-456.38 837.21,-463.36"/>
</a>
</g>
</g>
<!-- Node28 -->
<g id="Node000028" class="node">
<title>Node28</title>
<g id="a_Node000028"><a xlink:href="_i_tls_transfer_state_machine_8hpp.html" target="_top" xlink:title=" ">
<polygon fill="white" stroke="#666666" points="1513,-415 1364,-415 1364,-374 1513,-374 1513,-415"/>
<text text-anchor="start" x="1372" y="-403" font-family="Helvetica,sans-Serif" font-size="10.00">include/Hermes/Socket</text>
<text text-anchor="start" x="1372" y="-392" font-family="Helvetica,sans-Serif" font-size="10.00">/_base/Transfer/ITlsTransfer</text>
<text text-anchor="middle" x="1438.5" y="-381" font-family="Helvetica,sans-Serif" font-size="10.00">StateMachine.hpp</text>
</a>
</g>
</g>
<!-- Node24&#45;&gt;Node28 -->
<g id="edge66_Node000024_Node000028" class="edge">
<title>Node24&#45;&gt;Node28</title>
<g id="a_edge66_Node000024_Node000028"><a xlink:title=" ">
<path fill="none" stroke="#63b8ff" d="M985.88,-458.92C1073.46,-451.21 1223.14,-436.3 1350.5,-415 1354.82,-414.28 1359.25,-413.48 1363.71,-412.63"/>
<polygon fill="#63b8ff" stroke="#63b8ff" points="985.43,-455.45 975.77,-459.8 986.04,-462.42 985.43,-455.45"/>
</a>
</g>
</g>
<!-- Node29 -->
<g id="Node000029" class="node">
<title>Node29</title>
<g id="a_Node000029"><a xlink:href="_tls_transfer_state_machine_8hpp.html" target="_top" xlink:title=" ">
<polygon fill="white" stroke="#666666" points="1512.5,-338 1366.5,-338 1366.5,-297 1512.5,-297 1512.5,-338"/>
<text text-anchor="start" x="1374.5" y="-326" font-family="Helvetica,sans-Serif" font-size="10.00">include/Hermes/Socket</text>
<text text-anchor="start" x="1374.5" y="-315" font-family="Helvetica,sans-Serif" font-size="10.00">/_base/Transfer/TlsTransfer</text>
<text text-anchor="middle" x="1439.5" y="-304" font-family="Helvetica,sans-Serif" font-size="10.00">StateMachine.hpp</text>
</a>
</g>
</g>
<!-- Node24&#45;&gt;Node29 -->
<g id="edge68_Node000024_Node000029" class="edge">
<title>Node24&#45;&gt;Node29</title>
<g id="a_edge68_Node000024_Node000029"><a xlink:title=" ">
<path fill="none" stroke="#63b8ff" d="M985.89,-461.79C1086.6,-456.44 1260.22,-443.35 1316.5,-415 1338.96,-403.69 1336.22,-390.15 1355.5,-374 1371.18,-360.87 1390.07,-348.15 1405.97,-338.21"/>
<polygon fill="#63b8ff" stroke="#63b8ff" points="985.58,-458.3 975.77,-462.32 985.94,-465.3 985.58,-458.3"/>
</a>
</g>
</g>
<!-- Node30 -->
<g id="Node000030" class="node">
<title>Node30</title>
<g id="a_Node000030"><a xlink:href="_to_bytes_8hpp.html" target="_top" xlink:title=" ">
<polygon fill="white" stroke="#666666" points="864,-409.5 745,-409.5 745,-379.5 864,-379.5 864,-409.5"/>
<text text-anchor="start" x="753" y="-397.5" font-family="Helvetica,sans-Serif" font-size="10.00">include/Hermes/Utils</text>
<text text-anchor="middle" x="804.5" y="-386.5" font-family="Helvetica,sans-Serif" font-size="10.00">/ToBytes.hpp</text>
</a>
</g>
</g>
<!-- Node24&#45;&gt;Node30 -->
<g id="edge69_Node000024_Node000030" class="edge">
<title>Node24&#45;&gt;Node30</title>
<g id="a_edge69_Node000024_Node000030"><a xlink:title=" ">
<path fill="none" stroke="#63b8ff" d="M881.1,-445.25C863.56,-433.86 841.92,-419.81 826.12,-409.54"/>
<polygon fill="#63b8ff" stroke="#63b8ff" points="879.55,-448.42 889.85,-450.94 883.37,-442.55 879.55,-448.42"/>
</a>
</g>
</g>
<!-- Node26 -->
<g id="Node000026" class="node">
<title>Node26</title>
<g id="a_Node000026"><a xlink:href="_tls_accept_state_machine_8hpp.html" target="_top" xlink:title=" ">
<polygon fill="white" stroke="#666666" points="1348.5,-338 1188.5,-338 1188.5,-297 1348.5,-297 1348.5,-338"/>
<text text-anchor="start" x="1196.5" y="-326" font-family="Helvetica,sans-Serif" font-size="10.00">include/Hermes/Socket</text>
<text text-anchor="start" x="1196.5" y="-315" font-family="Helvetica,sans-Serif" font-size="10.00">/_base/Accept/TlsAcceptState</text>
<text text-anchor="middle" x="1268.5" y="-304" font-family="Helvetica,sans-Serif" font-size="10.00">Machine.hpp</text>
</a>
</g>
</g>
<!-- Node25&#45;&gt;Node26 -->
<g id="edge63_Node000025_Node000026" class="edge">
<title>Node25&#45;&gt;Node26</title>
<g id="a_edge63_Node000025_Node000026"><a xlink:title=" ">
<path fill="none" stroke="#63b8ff" d="M1242.56,-364.83C1247.56,-355.89 1252.97,-346.24 1257.54,-338.07"/>
<polygon fill="#63b8ff" stroke="#63b8ff" points="1239.37,-363.36 1237.54,-373.79 1245.47,-366.78 1239.37,-363.36"/>
</a>
</g>
</g>
<!-- Node27&#45;&gt;Node19 -->
<g id="edge65_Node000027_Node000019" class="edge">
<title>Node27&#45;&gt;Node19</title>
<g id="a_edge65_Node000027_Node000019"><a xlink:title=" ">
<path fill="none" stroke="#63b8ff" d="M322.49,-363.84C324.15,-355.53 325.67,-346.45 326.5,-338 331.98,-282.18 321.64,-216.16 315.53,-184.03"/>
<polygon fill="#63b8ff" stroke="#63b8ff" points="319.02,-363.35 320.37,-373.86 325.86,-364.8 319.02,-363.35"/>
</a>
</g>
</g>
<!-- Node28&#45;&gt;Node29 -->
<g id="edge67_Node000028_Node000029" class="edge">
<title>Node28&#45;&gt;Node29</title>
<g id="a_edge67_Node000028_Node000029"><a xlink:title=" ">
<path fill="none" stroke="#63b8ff" d="M1438.9,-363.69C1439.01,-355.08 1439.13,-345.9 1439.24,-338.07"/>
<polygon fill="#63b8ff" stroke="#63b8ff" points="1435.4,-363.75 1438.76,-373.79 1442.4,-363.84 1435.4,-363.75"/>
</a>
</g>
</g>
</g>
</svg>
