<?xml version="1.0" encoding="UTF-8" standalone="no"?>
<!DOCTYPE svg PUBLIC "-//W3C//DTD SVG 1.1//EN"
 "http://www.w3.org/Graphics/SVG/1.1/DTD/svg11.dtd">
<!-- Generated by graphviz version 2.43.0 (0)
 -->
<!-- Title: include/Hermes/Endpoint/_base/EndpointConcept.hpp Pages: 1 -->
<svg width="4015pt" height="236pt"
 viewBox="0.00 0.00 4014.50 236.00" xmlns="http://www.w3.org/2000/svg" xmlns:xlink="http://www.w3.org/1999/xlink">
<g id="graph0" class="graph" transform="scale(1 1) rotate(0) translate(4 232)">
<title>include/Hermes/Endpoint/_base/EndpointConcept.hpp</title>
<!-- Node1 -->
<g id="Node000001" class="node">
<title>Node1</title>
<g id="a_Node000001"><a xlink:title=" ">
<polygon fill="#999999" stroke="#666666" points="1337.5,-228 1182.5,-228 1182.5,-198 1337.5,-198 1337.5,-228"/>
<text text-anchor="start" x="1190.5" y="-216" font-family="Helvetica,sans-Serif" font-size="10.00">include/Hermes/Endpoint</text>
<text text-anchor="middle" x="1260" y="-205" font-family="Helvetica,sans-Serif" font-size="10.00">/_base/EndpointConcept.hpp</text>
</a>
</g>
</g>
<!-- Node2 -->
<g id="Node000002" class="node">
<title>Node2</title>
<g id="a_Node000002"><a xlink:href="_connection_error_enum_8hpp.html" target="_top" xlink:title=" ">
<polygon fill="white" stroke="#666666" points="350.5,-162 183.5,-162 183.5,-132 350.5,-132 350.5,-162"/>
<text text-anchor="start" x="191.5" y="-150" font-family="Helvetica,sans-Serif" font-size="10.00">Hermes/_base/ConnectionError</text>
<text text-anchor="middle" x="267" y="-139" font-family="Helvetica,sans-Serif" font-size="10.00">Enum.hpp</text>
</a>
</g>
</g>
<!-- Node1&#45;&gt;Node2 -->
<g id="edge1_Node000001_Node000002" class="edge">
<title>Node1&#45;&gt;Node2</title>
<g id="a_edge1_Node000001_Node000002"><a xlink:title=" ">
<path fill="none" stroke="#63b8ff" d="M1182.49,-207C1002.34,-195.39 555.91,-166.62 360.79,-154.04"/>
<polygon fill="#63b8ff" stroke="#63b8ff" points="360.76,-150.54 350.56,-153.39 360.31,-157.52 360.76,-150.54"/>
</a>
</g>
</g>
<!-- Node9 -->
<g id="Node000009" class="node">
<title>Node9</title>
<g id="a_Node000009"><a xlink:href="_win_api_8hpp.html" target="_top" xlink:title=" ">
<polygon fill="white" stroke="#666666" points="2378,-162 2254,-162 2254,-132 2378,-132 2378,-162"/>
<text text-anchor="start" x="2262" y="-150" font-family="Helvetica,sans-Serif" font-size="10.00">Hermes/_base/WinApi</text>
<text text-anchor="middle" x="2316" y="-139" font-family="Helvetica,sans-Serif" font-size="10.00">/WinApi.hpp</text>
</a>
</g>
</g>
<!-- Node1&#45;&gt;Node9 -->
<g id="edge8_Node000001_Node000009" class="edge">
<title>Node1&#45;&gt;Node9</title>
<g id="a_edge8_Node000001_Node000009"><a xlink:title=" ">
<path fill="none" stroke="#63b8ff" d="M1337.65,-207.29C1534.79,-195.35 2052.52,-163.97 2243.71,-152.38"/>
<polygon fill="#63b8ff" stroke="#63b8ff" points="2244.15,-155.86 2253.92,-151.76 2243.73,-148.87 2244.15,-155.86"/>
</a>
</g>
</g>
<!-- Node3 -->
<g id="Node000003" class="node">
<title>Node3</title>
<g id="a_Node000003"><a xlink:title=" ">
<polygon fill="#e0e0e0" stroke="#999999" points="62,-85 0,-85 0,-66 62,-66 62,-85"/>
<text text-anchor="middle" x="31" y="-73" font-family="Helvetica,sans-Serif" font-size="10.00">expected</text>
</a>
</g>
</g>
<!-- Node2&#45;&gt;Node3 -->
<g id="edge2_Node000002_Node000003" class="edge">
<title>Node2&#45;&gt;Node3</title>
<g id="a_edge2_Node000002_Node000003"><a xlink:title=" ">
<path fill="none" stroke="#63b8ff" d="M197.47,-131.9C159.52,-123.3 112.05,-111.06 71,-96 65.96,-94.15 60.71,-91.87 55.74,-89.53"/>
<polygon fill="#63b8ff" stroke="#63b8ff" points="57.15,-86.32 46.64,-85.04 54.06,-92.6 57.15,-86.32"/>
</a>
</g>
</g>
<!-- Node4 -->
<g id="Node000004" class="node">
<title>Node4</title>
<g id="a_Node000004"><a xlink:title=" ">
<polygon fill="#e0e0e0" stroke="#999999" points="127.5,-85 80.5,-85 80.5,-66 127.5,-66 127.5,-85"/>
<text text-anchor="middle" x="104" y="-73" font-family="Helvetica,sans-Serif" font-size="10.00">vector</text>
</a>
</g>
</g>
<!-- Node2&#45;&gt;Node4 -->
<g id="edge3_Node000002_Node000004" class="edge">
<title>Node2&#45;&gt;Node4</title>
<g id="a_edge3_Node000002_Node000004"><a xlink:title=" ">
<path fill="none" stroke="#63b8ff" d="M225.27,-131.95C199.4,-122.76 165.74,-109.9 137,-96 133.5,-94.31 129.88,-92.37 126.37,-90.39"/>
<polygon fill="#63b8ff" stroke="#63b8ff" points="127.92,-87.24 117.53,-85.18 124.37,-93.27 127.92,-87.24"/>
</a>
</g>
</g>
<!-- Node5 -->
<g id="Node000005" class="node">
<title>Node5</title>
<g id="a_Node000005"><a xlink:title=" ">
<polygon fill="#e0e0e0" stroke="#999999" points="186,-85 146,-85 146,-66 186,-66 186,-85"/>
<text text-anchor="middle" x="166" y="-73" font-family="Helvetica,sans-Serif" font-size="10.00">span</text>
</a>
</g>
</g>
<!-- Node2&#45;&gt;Node5 -->
<g id="edge4_Node000002_Node000005" class="edge">
<title>Node2&#45;&gt;Node5</title>
<g id="a_edge4_Node000002_Node000005"><a xlink:title=" ">
<path fill="none" stroke="#63b8ff" d="M246.56,-131.94C229.18,-119.98 204.34,-102.88 186.85,-90.85"/>
<polygon fill="#63b8ff" stroke="#63b8ff" points="188.67,-87.85 178.45,-85.07 184.71,-93.62 188.67,-87.85"/>
</a>
</g>
</g>
<!-- Node6 -->
<g id="Node000006" class="node">
<title>Node6</title>
<g id="a_Node000006"><a xlink:title=" ">
<polygon fill="#e0e0e0" stroke="#999999" points="329.5,-85 204.5,-85 204.5,-66 329.5,-66 329.5,-85"/>
<text text-anchor="middle" x="267" y="-73" font-family="Helvetica,sans-Serif" font-size="10.00">stdexec/execution.hpp</text>
</a>
</g>
</g>
<!-- Node2&#45;&gt;Node6 -->
<g id="edge5_Node000002_Node000006" class="edge">
<title>Node2&#45;&gt;Node6</title>
<g id="a_edge5_Node000002_Node000006"><a xlink:title=" ">
<path fill="none" stroke="#63b8ff" d="M267,-131.94C267,-121.46 267,-107.05 267,-95.55"/>
<polygon fill="#63b8ff" stroke="#63b8ff" points="270.5,-95.27 267,-85.27 263.5,-95.27 270.5,-95.27"/>
</a>
</g>
</g>
<!-- Node7 -->
<g id="Node000007" class="node">
<title>Node7</title>
<g id="a_Node000007"><a xlink:title=" ">
<polygon fill="#e0e0e0" stroke="#999999" points="482,-85 348,-85 348,-66 482,-66 482,-85"/>
<text text-anchor="middle" x="415" y="-73" font-family="Helvetica,sans-Serif" font-size="10.00">exec/any_sender_of.hpp</text>
</a>
</g>
</g>
<!-- Node2&#45;&gt;Node7 -->
<g id="edge6_Node000002_Node000007" class="edge">
<title>Node2&#45;&gt;Node7</title>
<g id="a_edge6_Node000002_Node000007"><a xlink:title=" ">
<path fill="none" stroke="#63b8ff" d="M296.95,-131.94C323.46,-119.49 361.84,-101.46 387.57,-89.38"/>
<polygon fill="#63b8ff" stroke="#63b8ff" points="389.19,-92.49 396.75,-85.07 386.22,-86.15 389.19,-92.49"/>
</a>
</g>
</g>
<!-- Node8 -->
<g id="Node000008" class="node">
<title>Node8</title>
<g id="a_Node000008"><a xlink:title=" ">
<polygon fill="#e0e0e0" stroke="#999999" points="667.5,-90.5 500.5,-90.5 500.5,-60.5 667.5,-60.5 667.5,-90.5"/>
<text text-anchor="start" x="508.5" y="-78.5" font-family="Helvetica,sans-Serif" font-size="10.00">Hermes/_base/ConnectionError</text>
<text text-anchor="middle" x="584" y="-67.5" font-family="Helvetica,sans-Serif" font-size="10.00">Enum.tpp</text>
</a>
</g>
</g>
<!-- Node2&#45;&gt;Node8 -->
<g id="edge7_Node000002_Node000008" class="edge">
<title>Node2&#45;&gt;Node8</title>
<g id="a_edge7_Node000002_Node000008"><a xlink:title=" ">
<path fill="none" stroke="#63b8ff" d="M331.15,-131.94C382.93,-120.58 455.82,-104.6 510.05,-92.71"/>
<polygon fill="#63b8ff" stroke="#63b8ff" points="510.93,-96.1 519.95,-90.54 509.43,-89.27 510.93,-96.1"/>
</a>
</g>
</g>
<!-- Node10 -->
<g id="Node000010" class="node">
<title>Node10</title>
<g id="a_Node000010"><a xlink:title=" ">
<polygon fill="#e0e0e0" stroke="#999999" points="2287.5,-85 2218.5,-85 2218.5,-66 2287.5,-66 2287.5,-85"/>
<text text-anchor="middle" x="2253" y="-73" font-family="Helvetica,sans-Serif" font-size="10.00">ws2tcpip.h</text>
</a>
</g>
</g>
<!-- Node9&#45;&gt;Node10 -->
<g id="edge9_Node000009_Node000010" class="edge">
<title>Node9&#45;&gt;Node10</title>
<g id="a_edge9_Node000009_Node000010"><a xlink:title=" ">
<path fill="none" stroke="#63b8ff" d="M2303.25,-131.94C2292.97,-120.59 2278.49,-104.62 2267.72,-92.74"/>
<polygon fill="#63b8ff" stroke="#63b8ff" points="2270.26,-90.33 2260.95,-85.27 2265.07,-95.03 2270.26,-90.33"/>
</a>
</g>
</g>
<!-- Node11 -->
<g id="Node000011" class="node">
<title>Node11</title>
<g id="a_Node000011"><a xlink:title=" ">
<polygon fill="#e0e0e0" stroke="#999999" points="2083.5,-19 2012.5,-19 2012.5,0 2083.5,0 2083.5,-19"/>
<text text-anchor="middle" x="2048" y="-7" font-family="Helvetica,sans-Serif" font-size="10.00">winsock2.h</text>
</a>
</g>
</g>
<!-- Node9&#45;&gt;Node11 -->
<g id="edge10_Node000009_Node000011" class="edge">
<title>Node9&#45;&gt;Node11</title>
<g id="a_edge10_Node000009_Node000011"><a xlink:title=" ">
<path fill="none" stroke="#63b8ff" d="M2253.83,-141.19C2188.91,-134.87 2092.98,-121.46 2067,-96 2049.29,-78.65 2046.43,-48.73 2046.69,-29.28"/>
<polygon fill="#63b8ff" stroke="#63b8ff" points="2050.19,-29.35 2047.11,-19.22 2043.2,-29.06 2050.19,-29.35"/>
</a>
</g>
</g>
<!-- Node12 -->
<g id="Node000012" class="node">
<title>Node12</title>
<g id="a_Node000012"><a xlink:title=" ">
<polygon fill="#e0e0e0" stroke="#999999" points="2600.5,-19 2531.5,-19 2531.5,0 2600.5,0 2600.5,-19"/>
<text text-anchor="middle" x="2566" y="-7" font-family="Helvetica,sans-Serif" font-size="10.00">schannel.h</text>
</a>
</g>
</g>
<!-- Node9&#45;&gt;Node12 -->
<g id="edge11_Node000009_Node000012" class="edge">
<title>Node9&#45;&gt;Node12</title>
<g id="a_edge11_Node000009_Node000012"><a xlink:title=" ">
<path fill="none" stroke="#63b8ff" d="M2378.08,-144.82C2512.61,-141.62 2821.53,-130.54 2853,-96 2923.11,-19.06 2708.03,-10.17 2610.95,-9.95"/>
<polygon fill="#63b8ff" stroke="#63b8ff" points="2610.82,-6.45 2600.82,-9.96 2610.83,-13.45 2610.82,-6.45"/>
</a>
</g>
</g>
<!-- Node13 -->
<g id="Node000013" class="node">
<title>Node13</title>
<g id="a_Node000013"><a xlink:title=" ">
<polygon fill="#e0e0e0" stroke="#999999" points="3421.5,-19 3376.5,-19 3376.5,0 3421.5,0 3421.5,-19"/>
<text text-anchor="middle" x="3399" y="-7" font-family="Helvetica,sans-Serif" font-size="10.00">sspi.h</text>
</a>
</g>
</g>
<!-- Node9&#45;&gt;Node13 -->
<g id="edge12_Node000009_Node000013" class="edge">
<title>Node9&#45;&gt;Node13</title>
<g id="a_edge12_Node000009_Node000013"><a xlink:title=" ">
<path fill="none" stroke="#63b8ff" d="M2378.19,-145.57C2607.9,-143.67 3397.3,-134.37 3434,-96 3452.73,-76.41 3431.48,-45.43 3414.87,-26.63"/>
<polygon fill="#63b8ff" stroke="#63b8ff" points="3417.31,-24.11 3407.95,-19.16 3412.18,-28.87 3417.31,-24.11"/>
</a>
</g>
</g>
<!-- Node14 -->
<g id="Node000014" class="node">
<title>Node14</title>
<g id="a_Node000014"><a xlink:href="_conversion_and_literals_8hpp.html" target="_top" xlink:title=" ">
<polygon fill="white" stroke="#666666" points="835,-90.5 685,-90.5 685,-60.5 835,-60.5 835,-90.5"/>
<text text-anchor="start" x="693" y="-78.5" font-family="Helvetica,sans-Serif" font-size="10.00">Hermes/_base/WinApi</text>
<text text-anchor="middle" x="760" y="-67.5" font-family="Helvetica,sans-Serif" font-size="10.00">/ConversionAndLiterals.hpp</text>
</a>
</g>
</g>
<!-- Node9&#45;&gt;Node14 -->
<g id="edge13_Node000009_Node000014" class="edge">
<title>Node9&#45;&gt;Node14</title>
<g id="a_edge13_Node000009_Node000014"><a xlink:title=" ">
<path fill="none" stroke="#63b8ff" d="M2253.82,-145.5C2010.55,-143.27 1123.02,-132.77 844,-96 837.32,-95.12 830.39,-93.95 823.51,-92.61"/>
<polygon fill="#63b8ff" stroke="#63b8ff" points="823.99,-89.14 813.49,-90.55 822.58,-95.99 823.99,-89.14"/>
</a>
</g>
</g>
<!-- Node16 -->
<g id="Node000016" class="node">
<title>Node16</title>
<g id="a_Node000016"><a xlink:href="_macros_8hpp.html" target="_top" xlink:title=" ">
<polygon fill="white" stroke="#666666" points="2200,-90.5 2076,-90.5 2076,-60.5 2200,-60.5 2200,-90.5"/>
<text text-anchor="start" x="2084" y="-78.5" font-family="Helvetica,sans-Serif" font-size="10.00">Hermes/_base/WinApi</text>
<text text-anchor="middle" x="2138" y="-67.5" font-family="Helvetica,sans-Serif" font-size="10.00">/Macros.hpp</text>
</a>
</g>
</g>
<!-- Node9&#45;&gt;Node16 -->
<g id="edge15_Node000009_Node000016" class="edge">
<title>Node9&#45;&gt;Node16</title>
<g id="a_edge15_Node000009_Node000016"><a xlink:title=" ">
<path fill="none" stroke="#63b8ff" d="M2279.98,-131.94C2252.11,-121.06 2213.35,-105.92 2183.37,-94.21"/>
<polygon fill="#63b8ff" stroke="#63b8ff" points="2184.56,-90.92 2173.97,-90.54 2182.01,-97.44 2184.56,-90.92"/>
</a>
</g>
</g>
<!-- Node18 -->
<g id="Node000018" class="node">
<title>Node18</title>
<g id="a_Node000018"><a xlink:href="_address_family_enum_8hpp.html" target="_top" xlink:title=" ">
<polygon fill="white" stroke="#666666" points="1239,-90.5 1063,-90.5 1063,-60.5 1239,-60.5 1239,-90.5"/>
<text text-anchor="start" x="1071" y="-78.5" font-family="Helvetica,sans-Serif" font-size="10.00">Hermes/_base/WinApi</text>
<text text-anchor="middle" x="1151" y="-67.5" font-family="Helvetica,sans-Serif" font-size="10.00">/Enums/AddressFamilyEnum.hpp</text>
</a>
</g>
</g>
<!-- Node9&#45;&gt;Node18 -->
<g id="edge20_Node000009_Node000018" class="edge">
<title>Node9&#45;&gt;Node18</title>
<g id="a_edge20_Node000009_Node000018"><a xlink:title=" ">
<path fill="none" stroke="#63b8ff" d="M2253.96,-146.42C2089.24,-146.82 1627.51,-143.26 1247,-96 1239.14,-95.02 1230.96,-93.76 1222.85,-92.34"/>
<polygon fill="#63b8ff" stroke="#63b8ff" points="1223.46,-88.89 1213,-90.54 1222.21,-95.78 1223.46,-88.89"/>
</a>
</g>
</g>
<!-- Node20 -->
<g id="Node000020" class="node">
<title>Node20</title>
<g id="a_Node000020"><a xlink:href="_condition_function_enum_8hpp.html" target="_top" xlink:title=" ">
<polygon fill="white" stroke="#666666" points="1626,-90.5 1434,-90.5 1434,-60.5 1626,-60.5 1626,-90.5"/>
<text text-anchor="start" x="1442" y="-78.5" font-family="Helvetica,sans-Serif" font-size="10.00">Hermes/_base/WinApi</text>
<text text-anchor="middle" x="1530" y="-67.5" font-family="Helvetica,sans-Serif" font-size="10.00">/Enums/ConditionFunctionEnum.hpp</text>
</a>
</g>
</g>
<!-- Node9&#45;&gt;Node20 -->
<g id="edge22_Node000009_Node000020" class="edge">
<title>Node9&#45;&gt;Node20</title>
<g id="a_edge22_Node000009_Node000020"><a xlink:title=" ">
<path fill="none" stroke="#63b8ff" d="M2253.8,-143.73C2133.75,-138.84 1861.91,-125.31 1635,-96 1626.74,-94.93 1618.15,-93.64 1609.59,-92.23"/>
<polygon fill="#63b8ff" stroke="#63b8ff" points="1610.03,-88.76 1599.58,-90.54 1608.86,-95.66 1610.03,-88.76"/>
</a>
</g>
</g>
<!-- Node22 -->
<g id="Node000022" class="node">
<title>Node22</title>
<g id="a_Node000022"><a xlink:href="_encrypt_status_enum_8hpp.html" target="_top" xlink:title=" ">
<polygon fill="white" stroke="#666666" points="2020,-90.5 1848,-90.5 1848,-60.5 2020,-60.5 2020,-90.5"/>
<text text-anchor="start" x="1856" y="-78.5" font-family="Helvetica,sans-Serif" font-size="10.00">Hermes/_base/WinApi</text>
<text text-anchor="middle" x="1934" y="-67.5" font-family="Helvetica,sans-Serif" font-size="10.00">/Enums/EncryptStatusEnum.hpp</text>
</a>
</g>
</g>
<!-- Node9&#45;&gt;Node22 -->
<g id="edge24_Node000009_Node000022" class="edge">
<title>Node9&#45;&gt;Node22</title>
<g id="a_edge24_Node000009_Node000022"><a xlink:title=" ">
<path fill="none" stroke="#63b8ff" d="M2253.78,-135.28C2196.6,-125.36 2109.52,-110.06 2034,-96 2027.89,-94.86 2021.58,-93.67 2015.24,-92.46"/>
<polygon fill="#63b8ff" stroke="#63b8ff" points="2015.74,-88.99 2005.26,-90.55 2014.42,-95.87 2015.74,-88.99"/>
</a>
</g>
</g>
<!-- Node24 -->
<g id="Node000024" class="node">
<title>Node24</title>
<g id="a_Node000024"><a xlink:href="_protocol_base_type_enum_8hpp.html" target="_top" xlink:title=" ">
<polygon fill="white" stroke="#666666" points="1044.5,-90.5 853.5,-90.5 853.5,-60.5 1044.5,-60.5 1044.5,-90.5"/>
<text text-anchor="start" x="861.5" y="-78.5" font-family="Helvetica,sans-Serif" font-size="10.00">Hermes/_base/WinApi</text>
<text text-anchor="middle" x="949" y="-67.5" font-family="Helvetica,sans-Serif" font-size="10.00">/Enums/ProtocolBaseTypeEnum.hpp</text>
</a>
</g>
</g>
<!-- Node9&#45;&gt;Node24 -->
<g id="edge26_Node000009_Node000024" class="edge">
<title>Node9&#45;&gt;Node24</title>
<g id="a_edge26_Node000009_Node000024"><a xlink:title=" ">
<path fill="none" stroke="#63b8ff" d="M2253.9,-144.73C2033.67,-140.02 1290.56,-122.51 1054,-96 1045.07,-95 1035.76,-93.68 1026.53,-92.19"/>
<polygon fill="#63b8ff" stroke="#63b8ff" points="1027.01,-88.73 1016.57,-90.53 1025.85,-95.63 1027.01,-88.73"/>
</a>
</g>
</g>
<!-- Node25 -->
<g id="Node000025" class="node">
<title>Node25</title>
<g id="a_Node000025"><a xlink:href="_s_ch_cred_enum_8hpp.html" target="_top" xlink:title=" ">
<polygon fill="white" stroke="#666666" points="2452,-90.5 2306,-90.5 2306,-60.5 2452,-60.5 2452,-90.5"/>
<text text-anchor="start" x="2314" y="-78.5" font-family="Helvetica,sans-Serif" font-size="10.00">Hermes/_base/WinApi</text>
<text text-anchor="middle" x="2379" y="-67.5" font-family="Helvetica,sans-Serif" font-size="10.00">/Enums/SChCredEnum.hpp</text>
</a>
</g>
</g>
<!-- Node9&#45;&gt;Node25 -->
<g id="edge28_Node000009_Node000025" class="edge">
<title>Node9&#45;&gt;Node25</title>
<g id="a_edge28_Node000009_Node000025"><a xlink:title=" ">
<path fill="none" stroke="#63b8ff" d="M2328.75,-131.94C2337.54,-122.23 2349.41,-109.15 2359.4,-98.13"/>
<polygon fill="#63b8ff" stroke="#63b8ff" points="2362.15,-100.3 2366.27,-90.54 2356.96,-95.6 2362.15,-100.3"/>
</a>
</g>
</g>
<!-- Node26 -->
<g id="Node000026" class="node">
<title>Node26</title>
<g id="a_Node000026"><a xlink:href="_security_buffer_enum_8hpp.html" target="_top" xlink:title=" ">
<polygon fill="white" stroke="#666666" points="3654.5,-90.5 3481.5,-90.5 3481.5,-60.5 3654.5,-60.5 3654.5,-90.5"/>
<text text-anchor="start" x="3489.5" y="-78.5" font-family="Helvetica,sans-Serif" font-size="10.00">Hermes/_base/WinApi</text>
<text text-anchor="middle" x="3568" y="-67.5" font-family="Helvetica,sans-Serif" font-size="10.00">/Enums/SecurityBufferEnum.hpp</text>
</a>
</g>
</g>
<!-- Node9&#45;&gt;Node26 -->
<g id="edge30_Node000009_Node000026" class="edge">
<title>Node9&#45;&gt;Node26</title>
<g id="a_edge30_Node000009_Node000026"><a xlink:title=" ">
<path fill="none" stroke="#63b8ff" d="M2378.02,-146.51C2551.01,-147.24 3053.32,-144.65 3467,-96 3475.51,-95 3484.37,-93.69 3493.16,-92.22"/>
<polygon fill="#63b8ff" stroke="#63b8ff" points="3493.77,-95.67 3503.02,-90.5 3492.57,-88.77 3493.77,-95.67"/>
</a>
</g>
</g>
<!-- Node27 -->
<g id="Node000027" class="node">
<title>Node27</title>
<g id="a_Node000027"><a xlink:href="_socket_shutdown_enum_8hpp.html" target="_top" xlink:title=" ">
<polygon fill="white" stroke="#666666" points="1829.5,-90.5 1644.5,-90.5 1644.5,-60.5 1829.5,-60.5 1829.5,-90.5"/>
<text text-anchor="start" x="1652.5" y="-78.5" font-family="Helvetica,sans-Serif" font-size="10.00">Hermes/_base/WinApi</text>
<text text-anchor="middle" x="1737" y="-67.5" font-family="Helvetica,sans-Serif" font-size="10.00">/Enums/SocketShutdownEnum.hpp</text>
</a>
</g>
</g>
<!-- Node9&#45;&gt;Node27 -->
<g id="edge32_Node000009_Node000027" class="edge">
<title>Node9&#45;&gt;Node27</title>
<g id="a_edge32_Node000009_Node000027"><a xlink:title=" ">
<path fill="none" stroke="#63b8ff" d="M2253.66,-141.16C2162.37,-133.68 1987.06,-117.87 1839,-96 1831.48,-94.89 1823.66,-93.61 1815.86,-92.26"/>
<polygon fill="#63b8ff" stroke="#63b8ff" points="1816.46,-88.81 1806,-90.51 1815.23,-95.7 1816.46,-88.81"/>
</a>
</g>
</g>
<!-- Node28 -->
<g id="Node000028" class="node">
<title>Node28</title>
<g id="a_Node000028"><a xlink:href="_socket_type_enum_8hpp.html" target="_top" xlink:title=" ">
<polygon fill="white" stroke="#666666" points="1415.5,-90.5 1256.5,-90.5 1256.5,-60.5 1415.5,-60.5 1415.5,-90.5"/>
<text text-anchor="start" x="1264.5" y="-78.5" font-family="Helvetica,sans-Serif" font-size="10.00">Hermes/_base/WinApi</text>
<text text-anchor="middle" x="1336" y="-67.5" font-family="Helvetica,sans-Serif" font-size="10.00">/Enums/SocketTypeEnum.hpp</text>
</a>
</g>
</g>
<!-- Node9&#45;&gt;Node28 -->
<g id="edge34_Node000009_Node000028" class="edge">
<title>Node9&#45;&gt;Node28</title>
<g id="a_edge34_Node000009_Node000028"><a xlink:title=" ">
<path fill="none" stroke="#63b8ff" d="M2253.83,-145.91C2108.24,-144.97 1734.12,-138.26 1425,-96 1418.16,-95.06 1411.06,-93.88 1403.99,-92.56"/>
<polygon fill="#63b8ff" stroke="#63b8ff" points="1404.18,-89.03 1393.69,-90.54 1402.83,-95.9 1404.18,-89.03"/>
</a>
</g>
</g>
<!-- Node29 -->
<g id="Node000029" class="node">
<title>Node29</title>
<g id="a_Node000029"><a xlink:href="_credential_flags_8hpp.html" target="_top" xlink:title=" ">
<polygon fill="white" stroke="#666666" points="3819,-90.5 3673,-90.5 3673,-60.5 3819,-60.5 3819,-90.5"/>
<text text-anchor="start" x="3681" y="-78.5" font-family="Helvetica,sans-Serif" font-size="10.00">Hermes/_base/WinApi</text>
<text text-anchor="middle" x="3746" y="-67.5" font-family="Helvetica,sans-Serif" font-size="10.00">/Flags/CredentialFlags.hpp</text>
</a>
</g>
</g>
<!-- Node9&#45;&gt;Node29 -->
<g id="edge36_Node000009_Node000029" class="edge">
<title>Node9&#45;&gt;Node29</title>
<g id="a_edge36_Node000009_Node000029"><a xlink:title=" ">
<path fill="none" stroke="#63b8ff" d="M2378.38,-145.31C2608.64,-142.52 3410.63,-130.48 3664,-96 3670.38,-95.13 3676.98,-93.99 3683.55,-92.69"/>
<polygon fill="#63b8ff" stroke="#63b8ff" points="3684.73,-96.01 3693.8,-90.53 3683.29,-89.16 3684.73,-96.01"/>
</a>
</g>
</g>
<!-- Node30 -->
<g id="Node000030" class="node">
<title>Node30</title>
<g id="a_Node000030"><a xlink:href="_supported_protocols_flags_8hpp.html" target="_top" xlink:title=" ">
<polygon fill="white" stroke="#666666" points="2661.5,-90.5 2470.5,-90.5 2470.5,-60.5 2661.5,-60.5 2661.5,-90.5"/>
<text text-anchor="start" x="2478.5" y="-78.5" font-family="Helvetica,sans-Serif" font-size="10.00">Hermes/_base/WinApi</text>
<text text-anchor="middle" x="2566" y="-67.5" font-family="Helvetica,sans-Serif" font-size="10.00">/Flags/SupportedProtocolsFlags.hpp</text>
</a>
</g>
</g>
<!-- Node9&#45;&gt;Node30 -->
<g id="edge38_Node000009_Node000030" class="edge">
<title>Node9&#45;&gt;Node30</title>
<g id="a_edge38_Node000009_Node000030"><a xlink:title=" ">
<path fill="none" stroke="#63b8ff" d="M2366.59,-131.94C2406.83,-120.75 2463.24,-105.07 2505.8,-93.23"/>
<polygon fill="#63b8ff" stroke="#63b8ff" points="2506.79,-96.59 2515.48,-90.54 2504.91,-89.85 2506.79,-96.59"/>
</a>
</g>
</g>
<!-- Node31 -->
<g id="Node000031" class="node">
<title>Node31</title>
<g id="a_Node000031"><a xlink:href="_initialize_security_context_flags_8hpp.html" target="_top" xlink:title=" ">
<polygon fill="white" stroke="#666666" points="4006.5,-96 3837.5,-96 3837.5,-55 4006.5,-55 4006.5,-96"/>
<text text-anchor="start" x="3845.5" y="-84" font-family="Helvetica,sans-Serif" font-size="10.00">Hermes/_base/WinApi</text>
<text text-anchor="start" x="3845.5" y="-73" font-family="Helvetica,sans-Serif" font-size="10.00">/Flags/InitializeSecurityContext</text>
<text text-anchor="middle" x="3922" y="-62" font-family="Helvetica,sans-Serif" font-size="10.00">Flags.hpp</text>
</a>
</g>
</g>
<!-- Node9&#45;&gt;Node31 -->
<g id="edge40_Node000009_Node000031" class="edge">
<title>Node9&#45;&gt;Node31</title>
<g id="a_edge40_Node000009_Node000031"><a xlink:title=" ">
<path fill="none" stroke="#63b8ff" d="M2378.15,-145.37C2622.71,-142.66 3519.85,-130.61 3827.07,-95.96"/>
<polygon fill="#63b8ff" stroke="#63b8ff" points="3827.78,-99.4 3837.31,-94.77 3826.97,-92.44 3827.78,-99.4"/>
</a>
</g>
</g>
<!-- Node32 -->
<g id="Node000032" class="node">
<title>Node32</title>
<g id="a_Node000032"><a xlink:href="_initialize_security_context_return_flags_8hpp.html" target="_top" xlink:title=" ">
<polygon fill="white" stroke="#666666" points="3068.5,-96 2899.5,-96 2899.5,-55 3068.5,-55 3068.5,-96"/>
<text text-anchor="start" x="2907.5" y="-84" font-family="Helvetica,sans-Serif" font-size="10.00">Hermes/_base/WinApi</text>
<text text-anchor="start" x="2907.5" y="-73" font-family="Helvetica,sans-Serif" font-size="10.00">/Flags/InitializeSecurityContext</text>
<text text-anchor="middle" x="2984" y="-62" font-family="Helvetica,sans-Serif" font-size="10.00">ReturnFlags.hpp</text>
</a>
</g>
</g>
<!-- Node9&#45;&gt;Node32 -->
<g id="edge42_Node000009_Node000032" class="edge">
<title>Node9&#45;&gt;Node32</title>
<g id="a_edge42_Node000009_Node000032"><a xlink:title=" ">
<path fill="none" stroke="#63b8ff" d="M2378.25,-142.76C2483.31,-136.81 2702.35,-122.25 2886,-96 2887.09,-95.84 2888.2,-95.68 2889.3,-95.52"/>
<polygon fill="#63b8ff" stroke="#63b8ff" points="2890.04,-98.95 2899.37,-93.94 2888.95,-92.03 2890.04,-98.95"/>
</a>
</g>
</g>
<!-- Node33 -->
<g id="Node000033" class="node">
<title>Node33</title>
<g id="a_Node000033"><a xlink:href="_accept_security_context_flags_8hpp.html" target="_top" xlink:title=" ">
<polygon fill="white" stroke="#666666" points="3247,-96 3087,-96 3087,-55 3247,-55 3247,-96"/>
<text text-anchor="start" x="3095" y="-84" font-family="Helvetica,sans-Serif" font-size="10.00">Hermes/_base/WinApi</text>
<text text-anchor="start" x="3095" y="-73" font-family="Helvetica,sans-Serif" font-size="10.00">/Flags/AcceptSecurityContext</text>
<text text-anchor="middle" x="3167" y="-62" font-family="Helvetica,sans-Serif" font-size="10.00">Flags.hpp</text>
</a>
</g>
</g>
<!-- Node9&#45;&gt;Node33 -->
<g id="edge44_Node000009_Node000033" class="edge">
<title>Node9&#45;&gt;Node33</title>
<g id="a_edge44_Node000009_Node000033"><a xlink:title=" ">
<path fill="none" stroke="#63b8ff" d="M2378.06,-145.08C2506.7,-142.49 2811.85,-132.81 3076.38,-96.12"/>
<polygon fill="#63b8ff" stroke="#63b8ff" points="3077.15,-99.55 3086.57,-94.69 3076.18,-92.61 3077.15,-99.55"/>
</a>
</g>
</g>
<!-- Node34 -->
<g id="Node000034" class="node">
<title>Node34</title>
<g id="a_Node000034"><a xlink:href="_accept_security_context_return_flags_8hpp.html" target="_top" xlink:title=" ">
<polygon fill="white" stroke="#666666" points="3425,-96 3265,-96 3265,-55 3425,-55 3425,-96"/>
<text text-anchor="start" x="3273" y="-84" font-family="Helvetica,sans-Serif" font-size="10.00">Hermes/_base/WinApi</text>
<text text-anchor="start" x="3273" y="-73" font-family="Helvetica,sans-Serif" font-size="10.00">/Flags/AcceptSecurityContext</text>
<text text-anchor="middle" x="3345" y="-62" font-family="Helvetica,sans-Serif" font-size="10.00">ReturnFlags.hpp</text>
</a>
</g>
</g>
<!-- Node9&#45;&gt;Node34 -->
<g id="edge46_Node000009_Node000034" class="edge">
<title>Node9&#45;&gt;Node34</title>
<g id="a_edge46_Node000009_Node000034"><a xlink:title=" ">
<path fill="none" stroke="#63b8ff" d="M2378.19,-146.17C2527.74,-145.85 2919.3,-140.54 3254.18,-96.13"/>
<polygon fill="#63b8ff" stroke="#63b8ff" points="3255.13,-99.53 3264.57,-94.73 3254.2,-92.59 3255.13,-99.53"/>
</a>
</g>
</g>
<!-- Node35 -->
<g id="Node000035" class="node">
<title>Node35</title>
<g id="a_Node000035"><a xlink:href="_s_channel_cred_flags_8hpp.html" target="_top" xlink:title=" ">
<polygon fill="white" stroke="#666666" points="2844,-90.5 2680,-90.5 2680,-60.5 2844,-60.5 2844,-90.5"/>
<text text-anchor="start" x="2688" y="-78.5" font-family="Helvetica,sans-Serif" font-size="10.00">Hermes/_base/WinApi</text>
<text text-anchor="middle" x="2762" y="-67.5" font-family="Helvetica,sans-Serif" font-size="10.00">/Flags/SChannelCredFlags.hpp</text>
</a>
</g>
</g>
<!-- Node9&#45;&gt;Node35 -->
<g id="edge48_Node000009_Node000035" class="edge">
<title>Node9&#45;&gt;Node35</title>
<g id="a_edge48_Node000009_Node000035"><a xlink:title=" ">
<path fill="none" stroke="#63b8ff" d="M2378.1,-138.61C2449.13,-129.85 2568.81,-114.12 2671,-96 2677.06,-94.93 2683.32,-93.74 2689.6,-92.5"/>
<polygon fill="#63b8ff" stroke="#63b8ff" points="2690.34,-95.92 2699.46,-90.51 2688.96,-89.06 2690.34,-95.92"/>
</a>
</g>
</g>
<!-- Node15 -->
<g id="Node000015" class="node">
<title>Node15</title>
<g id="a_Node000015"><a xlink:title=" ">
<polygon fill="#e0e0e0" stroke="#999999" points="785,-19 735,-19 735,0 785,0 785,-19"/>
<text text-anchor="middle" x="760" y="-7" font-family="Helvetica,sans-Serif" font-size="10.00">cstdint</text>
</a>
</g>
</g>
<!-- Node14&#45;&gt;Node15 -->
<g id="edge14_Node000014_Node000015" class="edge">
<title>Node14&#45;&gt;Node15</title>
<g id="a_edge14_Node000014_Node000015"><a xlink:title=" ">
<path fill="none" stroke="#63b8ff" d="M760,-60.3C760,-51.2 760,-39.29 760,-29.4"/>
<polygon fill="#63b8ff" stroke="#63b8ff" points="763.5,-29.34 760,-19.34 756.5,-29.34 763.5,-29.34"/>
</a>
</g>
</g>
<!-- Node16&#45;&gt;Node11 -->
<g id="edge17_Node000016_Node000011" class="edge">
<title>Node16&#45;&gt;Node11</title>
<g id="a_edge17_Node000016_Node000011"><a xlink:title=" ">
<path fill="none" stroke="#63b8ff" d="M2118.03,-60.3C2103.36,-49.87 2083.49,-35.74 2068.66,-25.19"/>
<polygon fill="#63b8ff" stroke="#63b8ff" points="2070.35,-22.1 2060.18,-19.16 2066.3,-27.81 2070.35,-22.1"/>
</a>
</g>
</g>
<!-- Node16&#45;&gt;Node12 -->
<g id="edge18_Node000016_Node000012" class="edge">
<title>Node16&#45;&gt;Node12</title>
<g id="a_edge18_Node000016_Node000012"><a xlink:title=" ">
<path fill="none" stroke="#63b8ff" d="M2186.19,-60.45C2194.1,-58.43 2202.25,-56.53 2210,-55 2320.8,-33.18 2453.21,-19.95 2521.06,-14.08"/>
<polygon fill="#63b8ff" stroke="#63b8ff" points="2521.71,-17.54 2531.38,-13.2 2521.12,-10.57 2521.71,-17.54"/>
</a>
</g>
</g>
<!-- Node16&#45;&gt;Node13 -->
<g id="edge19_Node000016_Node000013" class="edge">
<title>Node16&#45;&gt;Node13</title>
<g id="a_edge19_Node000016_Node000013"><a xlink:title=" ">
<path fill="none" stroke="#63b8ff" d="M2183.76,-60.44C2192.4,-58.26 2201.42,-56.3 2210,-55 2442.05,-19.7 3199.12,-12.01 3366.18,-10.72"/>
<polygon fill="#63b8ff" stroke="#63b8ff" points="3366.35,-14.22 3376.32,-10.65 3366.3,-7.22 3366.35,-14.22"/>
</a>
</g>
</g>
<!-- Node17 -->
<g id="Node000017" class="node">
<title>Node17</title>
<g id="a_Node000017"><a xlink:title=" ">
<polygon fill="#e0e0e0" stroke="#999999" points="2174.5,-19 2101.5,-19 2101.5,0 2174.5,0 2174.5,-19"/>
<text text-anchor="middle" x="2138" y="-7" font-family="Helvetica,sans-Serif" font-size="10.00">string_view</text>
</a>
</g>
</g>
<!-- Node16&#45;&gt;Node17 -->
<g id="edge16_Node000016_Node000017" class="edge">
<title>Node16&#45;&gt;Node17</title>
<g id="a_edge16_Node000016_Node000017"><a xlink:title=" ">
<path fill="none" stroke="#63b8ff" d="M2138,-60.3C2138,-51.2 2138,-39.29 2138,-29.4"/>
<polygon fill="#63b8ff" stroke="#63b8ff" points="2141.5,-29.34 2138,-19.34 2134.5,-29.34 2141.5,-29.34"/>
</a>
</g>
</g>
<!-- Node19 -->
<g id="Node000019" class="node">
<title>Node19</title>
<g id="a_Node000019"><a xlink:title=" ">
<polygon fill="#e0e0e0" stroke="#999999" points="1080,-19 1020,-19 1020,0 1080,0 1080,-19"/>
<text text-anchor="middle" x="1050" y="-7" font-family="Helvetica,sans-Serif" font-size="10.00">ws2def.h</text>
</a>
</g>
</g>
<!-- Node18&#45;&gt;Node19 -->
<g id="edge21_Node000018_Node000019" class="edge">
<title>Node18&#45;&gt;Node19</title>
<g id="a_edge21_Node000018_Node000019"><a xlink:title=" ">
<path fill="none" stroke="#63b8ff" d="M1128.58,-60.3C1111.81,-49.67 1088.99,-35.2 1072.25,-24.6"/>
<polygon fill="#63b8ff" stroke="#63b8ff" points="1073.98,-21.55 1063.66,-19.16 1070.24,-27.47 1073.98,-21.55"/>
</a>
</g>
</g>
<!-- Node21 -->
<g id="Node000021" class="node">
<title>Node21</title>
<g id="a_Node000021"><a xlink:title=" ">
<polygon fill="#e0e0e0" stroke="#999999" points="1567,-19 1493,-19 1493,0 1567,0 1567,-19"/>
<text text-anchor="middle" x="1530" y="-7" font-family="Helvetica,sans-Serif" font-size="10.00">WinSock2.h</text>
</a>
</g>
</g>
<!-- Node20&#45;&gt;Node21 -->
<g id="edge23_Node000020_Node000021" class="edge">
<title>Node20&#45;&gt;Node21</title>
<g id="a_edge23_Node000020_Node000021"><a xlink:title=" ">
<path fill="none" stroke="#63b8ff" d="M1530,-60.3C1530,-51.2 1530,-39.29 1530,-29.4"/>
<polygon fill="#63b8ff" stroke="#63b8ff" points="1533.5,-29.34 1530,-19.34 1526.5,-29.34 1533.5,-29.34"/>
</a>
</g>
</g>
<!-- Node23 -->
<g id="Node000023" class="node">
<title>Node23</title>
<g id="a_Node000023"><a xlink:title=" ">
<polygon fill="#e0e0e0" stroke="#999999" points="1966.5,-19 1901.5,-19 1901.5,0 1966.5,0 1966.5,-19"/>
<text text-anchor="middle" x="1934" y="-7" font-family="Helvetica,sans-Serif" font-size="10.00">winerror.h</text>
</a>
</g>
</g>
<!-- Node22&#45;&gt;Node23 -->
<g id="edge25_Node000022_Node000023" class="edge">
<title>Node22&#45;&gt;Node23</title>
<g id="a_edge25_Node000022_Node000023"><a xlink:title=" ">
<path fill="none" stroke="#63b8ff" d="M1934,-60.3C1934,-51.2 1934,-39.29 1934,-29.4"/>
<polygon fill="#63b8ff" stroke="#63b8ff" points="1937.5,-29.34 1934,-19.34 1930.5,-29.34 1937.5,-29.34"/>
</a>
</g>
</g>
<!-- Node24&#45;&gt;Node19 -->
<g id="edge27_Node000024_Node000019" class="edge">
<title>Node24&#45;&gt;Node19</title>
<g id="a_edge27_Node000024_Node000019"><a xlink:title=" ">
<path fill="none" stroke="#63b8ff" d="M971.42,-60.3C988.19,-49.67 1011.01,-35.2 1027.75,-24.6"/>
<polygon fill="#63b8ff" stroke="#63b8ff" points="1029.76,-27.47 1036.34,-19.16 1026.02,-21.55 1029.76,-27.47"/>
</a>
</g>
</g>
<!-- Node25&#45;&gt;Node12 -->
<g id="edge29_Node000025_Node000012" class="edge">
<title>Node25&#45;&gt;Node12</title>
<g id="a_edge29_Node000025_Node000012"><a xlink:title=" ">
<path fill="none" stroke="#63b8ff" d="M2420.04,-60.45C2453.41,-49.03 2499.97,-33.1 2531.46,-22.32"/>
<polygon fill="#63b8ff" stroke="#63b8ff" points="2532.79,-25.57 2541.11,-19.02 2530.52,-18.94 2532.79,-25.57"/>
</a>
</g>
</g>
<!-- Node26&#45;&gt;Node13 -->
<g id="edge31_Node000026_Node000013" class="edge">
<title>Node26&#45;&gt;Node13</title>
<g id="a_edge31_Node000026_Node000013"><a xlink:title=" ">
<path fill="none" stroke="#63b8ff" d="M3530.91,-60.45C3501.01,-49.13 3459.4,-33.38 3430.96,-22.6"/>
<polygon fill="#63b8ff" stroke="#63b8ff" points="3432.08,-19.29 3421.49,-19.02 3429.6,-25.83 3432.08,-19.29"/>
</a>
</g>
</g>
<!-- Node27&#45;&gt;Node21 -->
<g id="edge33_Node000027_Node000021" class="edge">
<title>Node27&#45;&gt;Node21</title>
<g id="a_edge33_Node000027_Node000021"><a xlink:title=" ">
<path fill="none" stroke="#63b8ff" d="M1691.57,-60.45C1654.31,-48.93 1602.2,-32.82 1567.34,-22.04"/>
<polygon fill="#63b8ff" stroke="#63b8ff" points="1568.14,-18.63 1557.55,-19.02 1566.07,-25.32 1568.14,-18.63"/>
</a>
</g>
</g>
<!-- Node28&#45;&gt;Node21 -->
<g id="edge35_Node000028_Node000021" class="edge">
<title>Node28&#45;&gt;Node21</title>
<g id="a_edge35_Node000028_Node000021"><a xlink:title=" ">
<path fill="none" stroke="#63b8ff" d="M1378.57,-60.45C1413.35,-48.98 1461.91,-32.96 1494.59,-22.18"/>
<polygon fill="#63b8ff" stroke="#63b8ff" points="1495.78,-25.47 1504.18,-19.02 1493.59,-18.83 1495.78,-25.47"/>
</a>
</g>
</g>
<!-- Node29&#45;&gt;Node13 -->
<g id="edge37_Node000029_Node000013" class="edge">
<title>Node29&#45;&gt;Node13</title>
<g id="a_edge37_Node000029_Node000013"><a xlink:title=" ">
<path fill="none" stroke="#63b8ff" d="M3689.2,-60.47C3680.77,-58.54 3672.17,-56.66 3664,-55 3580.76,-38.13 3481.9,-22.75 3431.73,-15.27"/>
<polygon fill="#63b8ff" stroke="#63b8ff" points="3432.19,-11.8 3421.78,-13.8 3431.16,-18.73 3432.19,-11.8"/>
</a>
</g>
</g>
<!-- Node30&#45;&gt;Node12 -->
<g id="edge39_Node000030_Node000012" class="edge">
<title>Node30&#45;&gt;Node12</title>
<g id="a_edge39_Node000030_Node000012"><a xlink:title=" ">
<path fill="none" stroke="#63b8ff" d="M2566,-60.3C2566,-51.2 2566,-39.29 2566,-29.4"/>
<polygon fill="#63b8ff" stroke="#63b8ff" points="2569.5,-29.34 2566,-19.34 2562.5,-29.34 2569.5,-29.34"/>
</a>
</g>
</g>
<!-- Node31&#45;&gt;Node13 -->
<g id="edge41_Node000031_Node000013" class="edge">
<title>Node31&#45;&gt;Node13</title>
<g id="a_edge41_Node000031_Node000013"><a xlink:title=" ">
<path fill="none" stroke="#63b8ff" d="M3837.27,-56.51C3834.14,-55.98 3831.05,-55.47 3828,-55 3681.26,-32.23 3504.41,-18.03 3432.17,-12.79"/>
<polygon fill="#63b8ff" stroke="#63b8ff" points="3432.12,-9.28 3421.89,-12.05 3431.62,-16.26 3432.12,-9.28"/>
</a>
</g>
</g>
<!-- Node32&#45;&gt;Node13 -->
<g id="edge43_Node000032_Node000013" class="edge">
<title>Node32&#45;&gt;Node13</title>
<g id="a_edge43_Node000032_Node000013"><a xlink:title=" ">
<path fill="none" stroke="#63b8ff" d="M3068.5,-56.69C3071.7,-56.11 3074.88,-55.54 3078,-55 3182.91,-36.87 3308.11,-21.23 3366.28,-14.3"/>
<polygon fill="#63b8ff" stroke="#63b8ff" points="3366.83,-17.76 3376.35,-13.11 3366.01,-10.81 3366.83,-17.76"/>
</a>
</g>
</g>
<!-- Node33&#45;&gt;Node13 -->
<g id="edge45_Node000033_Node000013" class="edge">
<title>Node33&#45;&gt;Node13</title>
<g id="a_edge45_Node000033_Node000013"><a xlink:title=" ">
<path fill="none" stroke="#63b8ff" d="M3237.87,-54.95C3280.67,-43.14 3333.2,-28.65 3366.39,-19.5"/>
<polygon fill="#63b8ff" stroke="#63b8ff" points="3367.74,-22.75 3376.45,-16.72 3365.88,-16.01 3367.74,-22.75"/>
</a>
</g>
</g>
<!-- Node34&#45;&gt;Node13 -->
<g id="edge47_Node000034_Node000013" class="edge">
<title>Node34&#45;&gt;Node13</title>
<g id="a_edge47_Node000034_Node000013"><a xlink:title=" ">
<path fill="none" stroke="#63b8ff" d="M3361.5,-54.95C3369.03,-46.02 3377.86,-35.55 3385.06,-27.02"/>
<polygon fill="#63b8ff" stroke="#63b8ff" points="3387.83,-29.16 3391.61,-19.26 3382.48,-24.65 3387.83,-29.16"/>
</a>
</g>
</g>
<!-- Node35&#45;&gt;Node12 -->
<g id="edge49_Node000035_Node000012" class="edge">
<title>Node35&#45;&gt;Node12</title>
<g id="a_edge49_Node000035_Node000012"><a xlink:title=" ">
<path fill="none" stroke="#63b8ff" d="M2718.99,-60.45C2683.86,-48.98 2634.79,-32.96 2601.78,-22.18"/>
<polygon fill="#63b8ff" stroke="#63b8ff" points="2602.68,-18.79 2592.08,-19.02 2600.5,-25.45 2602.68,-18.79"/>
</a>
</g>
</g>
</g>
</svg>
