<?xml version="1.0" encoding="UTF-8" standalone="no"?>
<!DOCTYPE svg PUBLIC "-//W3C//DTD SVG 1.1//EN"
 "http://www.w3.org/Graphics/SVG/1.1/DTD/svg11.dtd">
<!-- Generated by graphviz version 2.43.0 (0)
 -->
<!-- Title: include/Hermes/Endpoint/_base/EndpointConcept.hpp Pages: 1 -->
<svg width="3055pt" height="236pt"
 viewBox="0.00 0.00 3055.00 236.00" xmlns="http://www.w3.org/2000/svg" xmlns:xlink="http://www.w3.org/1999/xlink">
<g id="graph0" class="graph" transform="scale(1 1) rotate(0) translate(4 232)">
<title>include/Hermes/Endpoint/_base/EndpointConcept.hpp</title>
<!-- Node1 -->
<g id="Node000001" class="node">
<title>Node1</title>
<g id="a_Node000001"><a xlink:title=" ">
<polygon fill="#999999" stroke="#666666" points="1098.5,-228 943.5,-228 943.5,-198 1098.5,-198 1098.5,-228"/>
<text text-anchor="start" x="951.5" y="-216" font-family="Helvetica,sans-Serif" font-size="10.00">include/Hermes/Endpoint</text>
<text text-anchor="middle" x="1021" y="-205" font-family="Helvetica,sans-Serif" font-size="10.00">/_base/EndpointConcept.hpp</text>
</a>
</g>
</g>
<!-- Node2 -->
<g id="Node000002" class="node">
<title>Node2</title>
<g id="a_Node000002"><a xlink:href="_connection_error_enum_8hpp.html" target="_top" xlink:title=" ">
<polygon fill="white" stroke="#666666" points="380.5,-162 213.5,-162 213.5,-132 380.5,-132 380.5,-162"/>
<text text-anchor="start" x="221.5" y="-150" font-family="Helvetica,sans-Serif" font-size="10.00">Hermes/_base/ConnectionError</text>
<text text-anchor="middle" x="297" y="-139" font-family="Helvetica,sans-Serif" font-size="10.00">Enum.hpp</text>
</a>
</g>
</g>
<!-- Node1&#45;&gt;Node2 -->
<g id="edge1_Node000001_Node000002" class="edge">
<title>Node1&#45;&gt;Node2</title>
<g id="a_edge1_Node000001_Node000002"><a xlink:title=" ">
<path fill="none" stroke="#63b8ff" d="M943.18,-205.12C809.16,-193.27 535.34,-169.07 390.94,-156.3"/>
<polygon fill="#63b8ff" stroke="#63b8ff" points="391.04,-152.8 380.77,-155.41 390.42,-159.77 391.04,-152.8"/>
</a>
</g>
</g>
<!-- Node10 -->
<g id="Node000010" class="node">
<title>Node10</title>
<g id="a_Node000010"><a xlink:href="_os_api_8hpp.html" target="_top" xlink:title=" ">
<polygon fill="white" stroke="#666666" points="1861,-162 1743,-162 1743,-132 1861,-132 1861,-162"/>
<text text-anchor="start" x="1751" y="-150" font-family="Helvetica,sans-Serif" font-size="10.00">Hermes/_base/OsApi</text>
<text text-anchor="middle" x="1802" y="-139" font-family="Helvetica,sans-Serif" font-size="10.00">/OsApi.hpp</text>
</a>
</g>
</g>
<!-- Node1&#45;&gt;Node10 -->
<g id="edge9_Node000001_Node000010" class="edge">
<title>Node1&#45;&gt;Node10</title>
<g id="a_edge9_Node000001_Node000010"><a xlink:title=" ">
<path fill="none" stroke="#63b8ff" d="M1098.74,-205.63C1251.25,-193.13 1587.41,-165.58 1732.78,-153.67"/>
<polygon fill="#63b8ff" stroke="#63b8ff" points="1733.23,-157.15 1742.91,-152.84 1732.66,-150.17 1733.23,-157.15"/>
</a>
</g>
</g>
<!-- Node3 -->
<g id="Node000003" class="node">
<title>Node3</title>
<g id="a_Node000003"><a xlink:title=" ">
<polygon fill="#e0e0e0" stroke="#999999" points="62,-85 0,-85 0,-66 62,-66 62,-85"/>
<text text-anchor="middle" x="31" y="-73" font-family="Helvetica,sans-Serif" font-size="10.00">expected</text>
</a>
</g>
</g>
<!-- Node2&#45;&gt;Node3 -->
<g id="edge2_Node000002_Node000003" class="edge">
<title>Node2&#45;&gt;Node3</title>
<g id="a_edge2_Node000002_Node000003"><a xlink:title=" ">
<path fill="none" stroke="#63b8ff" d="M213.31,-132.36C170.13,-124.11 117,-112.05 71,-96 65.93,-94.23 60.67,-91.99 55.69,-89.66"/>
<polygon fill="#63b8ff" stroke="#63b8ff" points="57.11,-86.45 46.59,-85.17 54.01,-92.73 57.11,-86.45"/>
</a>
</g>
</g>
<!-- Node4 -->
<g id="Node000004" class="node">
<title>Node4</title>
<g id="a_Node000004"><a xlink:title=" ">
<polygon fill="#e0e0e0" stroke="#999999" points="127.5,-85 80.5,-85 80.5,-66 127.5,-66 127.5,-85"/>
<text text-anchor="middle" x="104" y="-73" font-family="Helvetica,sans-Serif" font-size="10.00">vector</text>
</a>
</g>
</g>
<!-- Node2&#45;&gt;Node4 -->
<g id="edge3_Node000002_Node000004" class="edge">
<title>Node2&#45;&gt;Node4</title>
<g id="a_edge3_Node000002_Node000004"><a xlink:title=" ">
<path fill="none" stroke="#63b8ff" d="M241.05,-131.94C209.79,-123.24 170.51,-110.9 137,-96 133.28,-94.34 129.44,-92.36 125.77,-90.31"/>
<polygon fill="#63b8ff" stroke="#63b8ff" points="127.5,-87.27 117.11,-85.19 123.94,-93.3 127.5,-87.27"/>
</a>
</g>
</g>
<!-- Node5 -->
<g id="Node000005" class="node">
<title>Node5</title>
<g id="a_Node000005"><a xlink:title=" ">
<polygon fill="#e0e0e0" stroke="#999999" points="186,-85 146,-85 146,-66 186,-66 186,-85"/>
<text text-anchor="middle" x="166" y="-73" font-family="Helvetica,sans-Serif" font-size="10.00">span</text>
</a>
</g>
</g>
<!-- Node2&#45;&gt;Node5 -->
<g id="edge4_Node000002_Node000005" class="edge">
<title>Node2&#45;&gt;Node5</title>
<g id="a_edge4_Node000002_Node000005"><a xlink:title=" ">
<path fill="none" stroke="#63b8ff" d="M265.63,-131.97C245.16,-122.49 218.05,-109.32 195,-96 192.11,-94.33 189.12,-92.48 186.22,-90.6"/>
<polygon fill="#63b8ff" stroke="#63b8ff" points="188.16,-87.69 177.9,-85.04 184.26,-93.51 188.16,-87.69"/>
</a>
</g>
</g>
<!-- Node6 -->
<g id="Node000006" class="node">
<title>Node6</title>
<g id="a_Node000006"><a xlink:title=" ">
<polygon fill="#e0e0e0" stroke="#999999" points="273.5,-85 204.5,-85 204.5,-66 273.5,-66 273.5,-85"/>
<text text-anchor="middle" x="239" y="-73" font-family="Helvetica,sans-Serif" font-size="10.00">type_traits</text>
</a>
</g>
</g>
<!-- Node2&#45;&gt;Node6 -->
<g id="edge5_Node000002_Node000006" class="edge">
<title>Node2&#45;&gt;Node6</title>
<g id="a_edge5_Node000002_Node000006"><a xlink:title=" ">
<path fill="none" stroke="#63b8ff" d="M285.26,-131.94C275.89,-120.7 262.73,-104.93 252.84,-93.08"/>
<polygon fill="#63b8ff" stroke="#63b8ff" points="255.41,-90.7 246.32,-85.27 250.04,-95.19 255.41,-90.7"/>
</a>
</g>
</g>
<!-- Node7 -->
<g id="Node000007" class="node">
<title>Node7</title>
<g id="a_Node000007"><a xlink:title=" ">
<polygon fill="#e0e0e0" stroke="#999999" points="416.5,-85 291.5,-85 291.5,-66 416.5,-66 416.5,-85"/>
<text text-anchor="middle" x="354" y="-73" font-family="Helvetica,sans-Serif" font-size="10.00">stdexec/execution.hpp</text>
</a>
</g>
</g>
<!-- Node2&#45;&gt;Node7 -->
<g id="edge6_Node000002_Node000007" class="edge">
<title>Node2&#45;&gt;Node7</title>
<g id="a_edge6_Node000002_Node000007"><a xlink:title=" ">
<path fill="none" stroke="#63b8ff" d="M308.53,-131.94C317.75,-120.7 330.68,-104.93 340.4,-93.08"/>
<polygon fill="#63b8ff" stroke="#63b8ff" points="343.17,-95.22 346.81,-85.27 337.76,-90.78 343.17,-95.22"/>
</a>
</g>
</g>
<!-- Node8 -->
<g id="Node000008" class="node">
<title>Node8</title>
<g id="a_Node000008"><a xlink:title=" ">
<polygon fill="#e0e0e0" stroke="#999999" points="569,-85 435,-85 435,-66 569,-66 569,-85"/>
<text text-anchor="middle" x="502" y="-73" font-family="Helvetica,sans-Serif" font-size="10.00">exec/any_sender_of.hpp</text>
</a>
</g>
</g>
<!-- Node2&#45;&gt;Node8 -->
<g id="edge7_Node000002_Node000008" class="edge">
<title>Node2&#45;&gt;Node8</title>
<g id="a_edge7_Node000002_Node000008"><a xlink:title=" ">
<path fill="none" stroke="#63b8ff" d="M338.48,-131.94C376.34,-119.1 431.66,-100.35 467.24,-88.28"/>
<polygon fill="#63b8ff" stroke="#63b8ff" points="468.38,-91.59 476.73,-85.07 466.13,-84.96 468.38,-91.59"/>
</a>
</g>
</g>
<!-- Node9 -->
<g id="Node000009" class="node">
<title>Node9</title>
<g id="a_Node000009"><a xlink:title=" ">
<polygon fill="#e0e0e0" stroke="#999999" points="754.5,-90.5 587.5,-90.5 587.5,-60.5 754.5,-60.5 754.5,-90.5"/>
<text text-anchor="start" x="595.5" y="-78.5" font-family="Helvetica,sans-Serif" font-size="10.00">Hermes/_base/ConnectionError</text>
<text text-anchor="middle" x="671" y="-67.5" font-family="Helvetica,sans-Serif" font-size="10.00">Enum.tpp</text>
</a>
</g>
</g>
<!-- Node2&#45;&gt;Node9 -->
<g id="edge8_Node000002_Node000009" class="edge">
<title>Node2&#45;&gt;Node9</title>
<g id="a_edge8_Node000002_Node000009"><a xlink:title=" ">
<path fill="none" stroke="#63b8ff" d="M379.81,-131.95C435.84,-122.28 511.48,-108.89 578,-96 583.65,-94.9 589.5,-93.74 595.37,-92.56"/>
<polygon fill="#63b8ff" stroke="#63b8ff" points="596.16,-95.97 605.26,-90.55 594.76,-89.11 596.16,-95.97"/>
</a>
</g>
</g>
<!-- Node11 -->
<g id="Node000011" class="node">
<title>Node11</title>
<g id="a_Node000011"><a xlink:title=" ">
<polygon fill="#e0e0e0" stroke="#999999" points="1134.5,-19 1057.5,-19 1057.5,0 1134.5,0 1134.5,-19"/>
<text text-anchor="middle" x="1096" y="-7" font-family="Helvetica,sans-Serif" font-size="10.00">sys/socket.h</text>
</a>
</g>
</g>
<!-- Node10&#45;&gt;Node11 -->
<g id="edge10_Node000010_Node000011" class="edge">
<title>Node10&#45;&gt;Node11</title>
<g id="a_edge10_Node000010_Node000011"><a xlink:title=" ">
<path fill="none" stroke="#63b8ff" d="M1742.74,-145.27C1532.56,-142.39 833.59,-130.26 801,-96 727.98,-19.24 945.98,-10.13 1047.27,-9.9"/>
<polygon fill="#63b8ff" stroke="#63b8ff" points="1047.27,-13.4 1057.27,-9.9 1047.28,-6.4 1047.27,-13.4"/>
</a>
</g>
</g>
<!-- Node12 -->
<g id="Node000012" class="node">
<title>Node12</title>
<g id="a_Node000012"><a xlink:title=" ">
<polygon fill="#e0e0e0" stroke="#999999" points="1568,-19 1496,-19 1496,0 1568,0 1568,-19"/>
<text text-anchor="middle" x="1532" y="-7" font-family="Helvetica,sans-Serif" font-size="10.00">netinet/in.h</text>
</a>
</g>
</g>
<!-- Node10&#45;&gt;Node12 -->
<g id="edge11_Node000010_Node000012" class="edge">
<title>Node10&#45;&gt;Node12</title>
<g id="a_edge11_Node000010_Node000012"><a xlink:title=" ">
<path fill="none" stroke="#63b8ff" d="M1742.89,-141.81C1676.85,-135.88 1575.69,-122.66 1549,-96 1531.55,-78.57 1529.43,-48.67 1530.19,-29.25"/>
<polygon fill="#63b8ff" stroke="#63b8ff" points="1533.69,-29.41 1530.88,-19.2 1526.7,-28.93 1533.69,-29.41"/>
</a>
</g>
</g>
<!-- Node13 -->
<g id="Node000013" class="node">
<title>Node13</title>
<g id="a_Node000013"><a xlink:title=" ">
<polygon fill="#e0e0e0" stroke="#999999" points="1836.5,-85 1767.5,-85 1767.5,-66 1836.5,-66 1836.5,-85"/>
<text text-anchor="middle" x="1802" y="-73" font-family="Helvetica,sans-Serif" font-size="10.00">arpa/inet.h</text>
</a>
</g>
</g>
<!-- Node10&#45;&gt;Node13 -->
<g id="edge12_Node000010_Node000013" class="edge">
<title>Node10&#45;&gt;Node13</title>
<g id="a_edge12_Node000010_Node000013"><a xlink:title=" ">
<path fill="none" stroke="#63b8ff" d="M1802,-131.94C1802,-121.46 1802,-107.05 1802,-95.55"/>
<polygon fill="#63b8ff" stroke="#63b8ff" points="1805.5,-95.27 1802,-85.27 1798.5,-95.27 1805.5,-95.27"/>
</a>
</g>
</g>
<!-- Node14 -->
<g id="Node000014" class="node">
<title>Node14</title>
<g id="a_Node000014"><a xlink:title=" ">
<polygon fill="#e0e0e0" stroke="#999999" points="1941.5,-19 1888.5,-19 1888.5,0 1941.5,0 1941.5,-19"/>
<text text-anchor="middle" x="1915" y="-7" font-family="Helvetica,sans-Serif" font-size="10.00">netdb.h</text>
</a>
</g>
</g>
<!-- Node10&#45;&gt;Node14 -->
<g id="edge13_Node000010_Node000014" class="edge">
<title>Node10&#45;&gt;Node14</title>
<g id="a_edge13_Node000010_Node000014"><a xlink:title=" ">
<path fill="none" stroke="#63b8ff" d="M1814.51,-131.64C1823.14,-121.69 1834.84,-108.1 1845,-96 1864.95,-72.22 1887.65,-44.35 1901.65,-27.05"/>
<polygon fill="#63b8ff" stroke="#63b8ff" points="1904.55,-29.03 1908.11,-19.05 1899.1,-24.63 1904.55,-29.03"/>
</a>
</g>
</g>
<!-- Node15 -->
<g id="Node000015" class="node">
<title>Node15</title>
<g id="a_Node000015"><a xlink:title=" ">
<polygon fill="#e0e0e0" stroke="#999999" points="2111,-85 2055,-85 2055,-66 2111,-66 2111,-85"/>
<text text-anchor="middle" x="2083" y="-73" font-family="Helvetica,sans-Serif" font-size="10.00">unistd.h</text>
</a>
</g>
</g>
<!-- Node10&#45;&gt;Node15 -->
<g id="edge14_Node000010_Node000015" class="edge">
<title>Node10&#45;&gt;Node15</title>
<g id="a_edge14_Node000010_Node000015"><a xlink:title=" ">
<path fill="none" stroke="#63b8ff" d="M1861.45,-138.62C1911.65,-131.26 1984.93,-117.85 2046,-96 2050.71,-94.32 2055.56,-92.13 2060.14,-89.82"/>
<polygon fill="#63b8ff" stroke="#63b8ff" points="2061.86,-92.88 2069.02,-85.07 2058.55,-86.7 2061.86,-92.88"/>
</a>
</g>
</g>
<!-- Node16 -->
<g id="Node000016" class="node">
<title>Node16</title>
<g id="a_Node000016"><a xlink:href="_conversion_and_literals_8hpp.html" target="_top" xlink:title=" ">
<polygon fill="white" stroke="#666666" points="2279,-90.5 2129,-90.5 2129,-60.5 2279,-60.5 2279,-90.5"/>
<text text-anchor="start" x="2137" y="-78.5" font-family="Helvetica,sans-Serif" font-size="10.00">Hermes/_base/OsApi</text>
<text text-anchor="middle" x="2204" y="-67.5" font-family="Helvetica,sans-Serif" font-size="10.00">/ConversionAndLiterals.hpp</text>
</a>
</g>
</g>
<!-- Node10&#45;&gt;Node16 -->
<g id="edge15_Node000010_Node000016" class="edge">
<title>Node10&#45;&gt;Node16</title>
<g id="a_edge15_Node000010_Node000016"><a xlink:title=" ">
<path fill="none" stroke="#63b8ff" d="M1861.12,-138.01C1925.15,-129.05 2030.17,-113.47 2120,-96 2125.1,-95.01 2130.37,-93.93 2135.66,-92.8"/>
<polygon fill="#63b8ff" stroke="#63b8ff" points="2136.8,-96.13 2145.82,-90.58 2135.31,-89.29 2136.8,-96.13"/>
</a>
</g>
</g>
<!-- Node18 -->
<g id="Node000018" class="node">
<title>Node18</title>
<g id="a_Node000018"><a xlink:href="_macros_8hpp.html" target="_top" xlink:title=" ">
<polygon fill="white" stroke="#666666" points="1502,-90.5 1384,-90.5 1384,-60.5 1502,-60.5 1502,-90.5"/>
<text text-anchor="start" x="1392" y="-78.5" font-family="Helvetica,sans-Serif" font-size="10.00">Hermes/_base/OsApi</text>
<text text-anchor="middle" x="1443" y="-67.5" font-family="Helvetica,sans-Serif" font-size="10.00">/Macros.hpp</text>
</a>
</g>
</g>
<!-- Node10&#45;&gt;Node18 -->
<g id="edge17_Node000010_Node000018" class="edge">
<title>Node10&#45;&gt;Node18</title>
<g id="a_edge17_Node000010_Node000018"><a xlink:title=" ">
<path fill="none" stroke="#63b8ff" d="M1742.82,-137.21C1684.77,-128.22 1593.9,-113.18 1516,-96 1511.7,-95.05 1507.28,-94.02 1502.84,-92.94"/>
<polygon fill="#63b8ff" stroke="#63b8ff" points="1503.67,-89.54 1493.12,-90.51 1501.98,-96.33 1503.67,-89.54"/>
</a>
</g>
</g>
<!-- Node20 -->
<g id="Node000020" class="node">
<title>Node20</title>
<g id="a_Node000020"><a xlink:href="_address_family_enum_8hpp.html" target="_top" xlink:title=" ">
<polygon fill="white" stroke="#666666" points="986,-90.5 810,-90.5 810,-60.5 986,-60.5 986,-90.5"/>
<text text-anchor="start" x="818" y="-78.5" font-family="Helvetica,sans-Serif" font-size="10.00">Hermes/_base/OsApi</text>
<text text-anchor="middle" x="898" y="-67.5" font-family="Helvetica,sans-Serif" font-size="10.00">/Enums/AddressFamilyEnum.hpp</text>
</a>
</g>
</g>
<!-- Node10&#45;&gt;Node20 -->
<g id="edge21_Node000010_Node000020" class="edge">
<title>Node10&#45;&gt;Node20</title>
<g id="a_edge21_Node000010_Node000020"><a xlink:title=" ">
<path fill="none" stroke="#63b8ff" d="M1742.93,-145.14C1609.09,-142.59 1272.68,-132.75 994,-96 986.35,-94.99 978.4,-93.73 970.5,-92.33"/>
<polygon fill="#63b8ff" stroke="#63b8ff" points="971,-88.87 960.53,-90.5 969.74,-95.75 971,-88.87"/>
</a>
</g>
</g>
<!-- Node21 -->
<g id="Node000021" class="node">
<title>Node21</title>
<g id="a_Node000021"><a xlink:href="_protocol_base_type_enum_8hpp.html" target="_top" xlink:title=" ">
<polygon fill="white" stroke="#666666" points="1749.5,-90.5 1558.5,-90.5 1558.5,-60.5 1749.5,-60.5 1749.5,-90.5"/>
<text text-anchor="start" x="1566.5" y="-78.5" font-family="Helvetica,sans-Serif" font-size="10.00">Hermes/_base/OsApi</text>
<text text-anchor="middle" x="1654" y="-67.5" font-family="Helvetica,sans-Serif" font-size="10.00">/Enums/ProtocolBaseTypeEnum.hpp</text>
</a>
</g>
</g>
<!-- Node10&#45;&gt;Node21 -->
<g id="edge23_Node000010_Node000021" class="edge">
<title>Node10&#45;&gt;Node21</title>
<g id="a_edge23_Node000010_Node000021"><a xlink:title=" ">
<path fill="none" stroke="#63b8ff" d="M1772.05,-131.94C1749.28,-121.24 1717.77,-106.44 1693.02,-94.83"/>
<polygon fill="#63b8ff" stroke="#63b8ff" points="1694.44,-91.63 1683.91,-90.54 1691.47,-97.96 1694.44,-91.63"/>
</a>
</g>
</g>
<!-- Node22 -->
<g id="Node000022" class="node">
<title>Node22</title>
<g id="a_Node000022"><a xlink:href="_socket_shutdown_enum_8hpp.html" target="_top" xlink:title=" ">
<polygon fill="white" stroke="#666666" points="1188.5,-90.5 1003.5,-90.5 1003.5,-60.5 1188.5,-60.5 1188.5,-90.5"/>
<text text-anchor="start" x="1011.5" y="-78.5" font-family="Helvetica,sans-Serif" font-size="10.00">Hermes/_base/OsApi</text>
<text text-anchor="middle" x="1096" y="-67.5" font-family="Helvetica,sans-Serif" font-size="10.00">/Enums/SocketShutdownEnum.hpp</text>
</a>
</g>
</g>
<!-- Node10&#45;&gt;Node22 -->
<g id="edge25_Node000010_Node000022" class="edge">
<title>Node10&#45;&gt;Node22</title>
<g id="a_edge25_Node000010_Node000022"><a xlink:title=" ">
<path fill="none" stroke="#63b8ff" d="M1742.94,-143.25C1634.42,-137.71 1396.16,-123.37 1197,-96 1189.29,-94.94 1181.27,-93.68 1173.28,-92.31"/>
<polygon fill="#63b8ff" stroke="#63b8ff" points="1173.66,-88.82 1163.2,-90.53 1172.44,-95.71 1173.66,-88.82"/>
</a>
</g>
</g>
<!-- Node23 -->
<g id="Node000023" class="node">
<title>Node23</title>
<g id="a_Node000023"><a xlink:href="_socket_type_enum_8hpp.html" target="_top" xlink:title=" ">
<polygon fill="white" stroke="#666666" points="1365.5,-90.5 1206.5,-90.5 1206.5,-60.5 1365.5,-60.5 1365.5,-90.5"/>
<text text-anchor="start" x="1214.5" y="-78.5" font-family="Helvetica,sans-Serif" font-size="10.00">Hermes/_base/OsApi</text>
<text text-anchor="middle" x="1286" y="-67.5" font-family="Helvetica,sans-Serif" font-size="10.00">/Enums/SocketTypeEnum.hpp</text>
</a>
</g>
</g>
<!-- Node10&#45;&gt;Node23 -->
<g id="edge27_Node000010_Node000023" class="edge">
<title>Node10&#45;&gt;Node23</title>
<g id="a_edge27_Node000010_Node000023"><a xlink:title=" ">
<path fill="none" stroke="#63b8ff" d="M1742.68,-140.93C1659.97,-133.43 1505.48,-117.88 1375,-96 1368.86,-94.97 1362.5,-93.8 1356.14,-92.55"/>
<polygon fill="#63b8ff" stroke="#63b8ff" points="1356.66,-89.08 1346.16,-90.53 1355.27,-95.94 1356.66,-89.08"/>
</a>
</g>
</g>
<!-- Node24 -->
<g id="Node000024" class="node">
<title>Node24</title>
<g id="a_Node000024"><a xlink:title=" ">
<polygon fill="#e0e0e0" stroke="#999999" points="2449,-96 2297,-96 2297,-55 2449,-55 2449,-96"/>
<text text-anchor="start" x="2305" y="-84" font-family="Helvetica,sans-Serif" font-size="10.00">Hermes/_base/OsApi</text>
<text text-anchor="start" x="2305" y="-73" font-family="Helvetica,sans-Serif" font-size="10.00">/Enums/Linux/EncryptStatus</text>
<text text-anchor="middle" x="2373" y="-62" font-family="Helvetica,sans-Serif" font-size="10.00">Enum.hpp</text>
</a>
</g>
</g>
<!-- Node10&#45;&gt;Node24 -->
<g id="edge29_Node000010_Node000024" class="edge">
<title>Node10&#45;&gt;Node24</title>
<g id="a_edge29_Node000010_Node000024"><a xlink:title=" ">
<path fill="none" stroke="#63b8ff" d="M1861.04,-142.28C1950.93,-136.09 2127.63,-121.91 2286.67,-96.12"/>
<polygon fill="#63b8ff" stroke="#63b8ff" points="2287.33,-99.56 2296.63,-94.49 2286.2,-92.65 2287.33,-99.56"/>
</a>
</g>
</g>
<!-- Node25 -->
<g id="Node000025" class="node">
<title>Node25</title>
<g id="a_Node000025"><a xlink:href="_name_info_flags_8hpp.html" target="_top" xlink:title=" ">
<polygon fill="white" stroke="#666666" points="2037,-90.5 1893,-90.5 1893,-60.5 2037,-60.5 2037,-90.5"/>
<text text-anchor="start" x="1901" y="-78.5" font-family="Helvetica,sans-Serif" font-size="10.00">Hermes/_base/OsApi</text>
<text text-anchor="middle" x="1965" y="-67.5" font-family="Helvetica,sans-Serif" font-size="10.00">/Flags/NameInfoFlags.hpp</text>
</a>
</g>
</g>
<!-- Node10&#45;&gt;Node25 -->
<g id="edge30_Node000010_Node000025" class="edge">
<title>Node10&#45;&gt;Node25</title>
<g id="a_edge30_Node000010_Node000025"><a xlink:title=" ">
<path fill="none" stroke="#63b8ff" d="M1834.99,-131.94C1860.28,-121.15 1895.38,-106.18 1922.74,-94.52"/>
<polygon fill="#63b8ff" stroke="#63b8ff" points="1924.24,-97.69 1932.06,-90.54 1921.49,-91.25 1924.24,-97.69"/>
</a>
</g>
</g>
<!-- Node26 -->
<g id="Node000026" class="node">
<title>Node26</title>
<g id="a_Node000026"><a xlink:title=" ">
<polygon fill="#e0e0e0" stroke="#999999" points="2643,-90.5 2467,-90.5 2467,-60.5 2643,-60.5 2643,-90.5"/>
<text text-anchor="start" x="2475" y="-78.5" font-family="Helvetica,sans-Serif" font-size="10.00">Hermes/_base/OsApi</text>
<text text-anchor="middle" x="2555" y="-67.5" font-family="Helvetica,sans-Serif" font-size="10.00">/Flags/Linux/CredentialFlags.hpp</text>
</a>
</g>
</g>
<!-- Node10&#45;&gt;Node26 -->
<g id="edge32_Node000010_Node000026" class="edge">
<title>Node10&#45;&gt;Node26</title>
<g id="a_edge32_Node000010_Node000026"><a xlink:title=" ">
<path fill="none" stroke="#63b8ff" d="M1861.06,-143.92C1976.31,-139.33 2239.06,-126.23 2458,-96 2465.54,-94.96 2473.37,-93.69 2481.17,-92.31"/>
<polygon fill="#63b8ff" stroke="#63b8ff" points="2481.8,-95.76 2491.01,-90.51 2480.54,-88.87 2481.8,-95.76"/>
</a>
</g>
</g>
<!-- Node27 -->
<g id="Node000027" class="node">
<title>Node27</title>
<g id="a_Node000027"><a xlink:title=" ">
<polygon fill="#e0e0e0" stroke="#999999" points="2834.5,-96 2661.5,-96 2661.5,-55 2834.5,-55 2834.5,-96"/>
<text text-anchor="start" x="2669.5" y="-84" font-family="Helvetica,sans-Serif" font-size="10.00">Hermes/_base/OsApi</text>
<text text-anchor="start" x="2669.5" y="-73" font-family="Helvetica,sans-Serif" font-size="10.00">/Flags/Linux/SupportedProtocols</text>
<text text-anchor="middle" x="2748" y="-62" font-family="Helvetica,sans-Serif" font-size="10.00">Flags.hpp</text>
</a>
</g>
</g>
<!-- Node10&#45;&gt;Node27 -->
<g id="edge33_Node000010_Node000027" class="edge">
<title>Node10&#45;&gt;Node27</title>
<g id="a_edge33_Node000010_Node000027"><a xlink:title=" ">
<path fill="none" stroke="#63b8ff" d="M1861.01,-145.4C1998.07,-143.39 2348.64,-134.69 2651.2,-95.99"/>
<polygon fill="#63b8ff" stroke="#63b8ff" points="2652.02,-99.41 2661.49,-94.66 2651.12,-92.47 2652.02,-99.41"/>
</a>
</g>
</g>
<!-- Node28 -->
<g id="Node000028" class="node">
<title>Node28</title>
<g id="a_Node000028"><a xlink:title=" ">
<polygon fill="#e0e0e0" stroke="#999999" points="3047,-90.5 2853,-90.5 2853,-60.5 3047,-60.5 3047,-90.5"/>
<text text-anchor="start" x="2861" y="-78.5" font-family="Helvetica,sans-Serif" font-size="10.00">Hermes/_base/OsApi</text>
<text text-anchor="middle" x="2950" y="-67.5" font-family="Helvetica,sans-Serif" font-size="10.00">/Flags/Linux/SChannelCredFlags.hpp</text>
</a>
</g>
</g>
<!-- Node10&#45;&gt;Node28 -->
<g id="edge34_Node000010_Node000028" class="edge">
<title>Node10&#45;&gt;Node28</title>
<g id="a_edge34_Node000010_Node000028"><a xlink:title=" ">
<path fill="none" stroke="#63b8ff" d="M1861.27,-145.93C2020.69,-145.14 2471.8,-138.97 2844,-96 2852.87,-94.98 2862.12,-93.66 2871.3,-92.19"/>
<polygon fill="#63b8ff" stroke="#63b8ff" points="2871.92,-95.63 2881.21,-90.54 2870.77,-88.73 2871.92,-95.63"/>
</a>
</g>
</g>
<!-- Node17 -->
<g id="Node000017" class="node">
<title>Node17</title>
<g id="a_Node000017"><a xlink:title=" ">
<polygon fill="#e0e0e0" stroke="#999999" points="2229,-19 2179,-19 2179,0 2229,0 2229,-19"/>
<text text-anchor="middle" x="2204" y="-7" font-family="Helvetica,sans-Serif" font-size="10.00">cstdint</text>
</a>
</g>
</g>
<!-- Node16&#45;&gt;Node17 -->
<g id="edge16_Node000016_Node000017" class="edge">
<title>Node16&#45;&gt;Node17</title>
<g id="a_edge16_Node000016_Node000017"><a xlink:title=" ">
<path fill="none" stroke="#63b8ff" d="M2204,-60.3C2204,-51.2 2204,-39.29 2204,-29.4"/>
<polygon fill="#63b8ff" stroke="#63b8ff" points="2207.5,-29.34 2204,-19.34 2200.5,-29.34 2207.5,-29.34"/>
</a>
</g>
</g>
<!-- Node18&#45;&gt;Node11 -->
<g id="edge19_Node000018_Node000011" class="edge">
<title>Node18&#45;&gt;Node11</title>
<g id="a_edge19_Node000018_Node000011"><a xlink:title=" ">
<path fill="none" stroke="#63b8ff" d="M1396.05,-60.44C1388.7,-58.47 1381.17,-56.58 1374,-55 1294.47,-37.46 1200.69,-23.9 1144.91,-16.57"/>
<polygon fill="#63b8ff" stroke="#63b8ff" points="1145.31,-13.09 1134.95,-15.27 1144.41,-20.04 1145.31,-13.09"/>
</a>
</g>
</g>
<!-- Node18&#45;&gt;Node12 -->
<g id="edge20_Node000018_Node000012" class="edge">
<title>Node18&#45;&gt;Node12</title>
<g id="a_edge20_Node000018_Node000012"><a xlink:title=" ">
<path fill="none" stroke="#63b8ff" d="M1462.75,-60.3C1477.26,-49.87 1496.9,-35.74 1511.56,-25.19"/>
<polygon fill="#63b8ff" stroke="#63b8ff" points="1513.88,-27.84 1519.96,-19.16 1509.8,-22.16 1513.88,-27.84"/>
</a>
</g>
</g>
<!-- Node19 -->
<g id="Node000019" class="node">
<title>Node19</title>
<g id="a_Node000019"><a xlink:title=" ">
<polygon fill="#e0e0e0" stroke="#999999" points="1477.5,-19 1404.5,-19 1404.5,0 1477.5,0 1477.5,-19"/>
<text text-anchor="middle" x="1441" y="-7" font-family="Helvetica,sans-Serif" font-size="10.00">string_view</text>
</a>
</g>
</g>
<!-- Node18&#45;&gt;Node19 -->
<g id="edge18_Node000018_Node000019" class="edge">
<title>Node18&#45;&gt;Node19</title>
<g id="a_edge18_Node000018_Node000019"><a xlink:title=" ">
<path fill="none" stroke="#63b8ff" d="M1442.56,-60.3C1442.27,-51.2 1441.9,-39.29 1441.59,-29.4"/>
<polygon fill="#63b8ff" stroke="#63b8ff" points="1445.09,-29.23 1441.28,-19.34 1438.09,-29.45 1445.09,-29.23"/>
</a>
</g>
</g>
<!-- Node20&#45;&gt;Node11 -->
<g id="edge22_Node000020_Node000011" class="edge">
<title>Node20&#45;&gt;Node11</title>
<g id="a_edge22_Node000020_Node000011"><a xlink:title=" ">
<path fill="none" stroke="#63b8ff" d="M941.45,-60.45C976.94,-48.98 1026.51,-32.96 1059.86,-22.18"/>
<polygon fill="#63b8ff" stroke="#63b8ff" points="1061.21,-25.42 1069.65,-19.02 1059.06,-18.76 1061.21,-25.42"/>
</a>
</g>
</g>
<!-- Node21&#45;&gt;Node12 -->
<g id="edge24_Node000021_Node000012" class="edge">
<title>Node21&#45;&gt;Node12</title>
<g id="a_edge24_Node000021_Node000012"><a xlink:title=" ">
<path fill="none" stroke="#63b8ff" d="M1627.23,-60.45C1606.4,-49.53 1577.69,-34.47 1557.26,-23.75"/>
<polygon fill="#63b8ff" stroke="#63b8ff" points="1558.72,-20.56 1548.24,-19.02 1555.47,-26.76 1558.72,-20.56"/>
</a>
</g>
</g>
<!-- Node22&#45;&gt;Node11 -->
<g id="edge26_Node000022_Node000011" class="edge">
<title>Node22&#45;&gt;Node11</title>
<g id="a_edge26_Node000022_Node000011"><a xlink:title=" ">
<path fill="none" stroke="#63b8ff" d="M1096,-60.3C1096,-51.2 1096,-39.29 1096,-29.4"/>
<polygon fill="#63b8ff" stroke="#63b8ff" points="1099.5,-29.34 1096,-19.34 1092.5,-29.34 1099.5,-29.34"/>
</a>
</g>
</g>
<!-- Node23&#45;&gt;Node11 -->
<g id="edge28_Node000023_Node000011" class="edge">
<title>Node23&#45;&gt;Node11</title>
<g id="a_edge28_Node000023_Node000011"><a xlink:title=" ">
<path fill="none" stroke="#63b8ff" d="M1244.3,-60.45C1210.4,-49.03 1163.09,-33.1 1131.1,-22.32"/>
<polygon fill="#63b8ff" stroke="#63b8ff" points="1131.88,-18.89 1121.29,-19.02 1129.65,-25.53 1131.88,-18.89"/>
</a>
</g>
</g>
<!-- Node25&#45;&gt;Node14 -->
<g id="edge31_Node000025_Node000014" class="edge">
<title>Node25&#45;&gt;Node14</title>
<g id="a_edge31_Node000025_Node000014"><a xlink:title=" ">
<path fill="none" stroke="#63b8ff" d="M1953.9,-60.3C1946.34,-50.61 1936.28,-37.74 1928.29,-27.51"/>
<polygon fill="#63b8ff" stroke="#63b8ff" points="1930.82,-25.07 1921.91,-19.34 1925.31,-29.38 1930.82,-25.07"/>
</a>
</g>
</g>
</g>
</svg>
