<?xml version="1.0" encoding="UTF-8" standalone="no"?>
<!DOCTYPE svg PUBLIC "-//W3C//DTD SVG 1.1//EN"
 "http://www.w3.org/Graphics/SVG/1.1/DTD/svg11.dtd">
<!-- Generated by graphviz version 2.43.0 (0)
 -->
<!-- Title: include/Hermes/Endpoint/_base/EndpointConcept.hpp Pages: 1 -->
<svg width="1193pt" height="544pt"
 viewBox="0.00 0.00 1192.50 544.00" xmlns="http://www.w3.org/2000/svg" xmlns:xlink="http://www.w3.org/1999/xlink">
<g id="graph0" class="graph" transform="scale(1 1) rotate(0) translate(4 540)">
<title>include/Hermes/Endpoint/_base/EndpointConcept.hpp</title>
<!-- Node1 -->
<g id="Node000001" class="node">
<title>Node1</title>
<g id="a_Node000001"><a xlink:title=" ">
<polygon fill="#999999" stroke="#666666" points="578,-536 423,-536 423,-506 578,-506 578,-536"/>
<text text-anchor="start" x="431" y="-524" font-family="Helvetica,sans-Serif" font-size="10.00">include/Hermes/Endpoint</text>
<text text-anchor="middle" x="500.5" y="-513" font-family="Helvetica,sans-Serif" font-size="10.00">/_base/EndpointConcept.hpp</text>
</a>
</g>
</g>
<!-- Node2 -->
<g id="Node000002" class="node">
<title>Node2</title>
<g id="a_Node000002"><a xlink:href="_ip_endpoint_8hpp.html" target="_top" xlink:title=" ">
<polygon fill="white" stroke="#666666" points="496,-470 349,-470 349,-440 496,-440 496,-470"/>
<text text-anchor="start" x="357" y="-458" font-family="Helvetica,sans-Serif" font-size="10.00">include/Hermes/Endpoint</text>
<text text-anchor="middle" x="422.5" y="-447" font-family="Helvetica,sans-Serif" font-size="10.00">/IpEndpoint/IpEndpoint.hpp</text>
</a>
</g>
</g>
<!-- Node1&#45;&gt;Node2 -->
<g id="edge1_Node000001_Node000002" class="edge">
<title>Node1&#45;&gt;Node2</title>
<g id="a_edge1_Node000001_Node000002"><a xlink:title=" ">
<path fill="none" stroke="#63b8ff" d="M475.15,-499.2C463.57,-489.7 450.15,-478.69 439.76,-470.16"/>
<polygon fill="#63b8ff" stroke="#63b8ff" points="473.24,-502.16 483.19,-505.8 477.68,-496.75 473.24,-502.16"/>
</a>
</g>
</g>
<!-- Node21 -->
<g id="Node000021" class="node">
<title>Node21</title>
<g id="a_Node000021"><a xlink:href="__base_8hpp.html" target="_top" xlink:title=" ">
<polygon fill="white" stroke="#666666" points="680.5,-470 552.5,-470 552.5,-440 680.5,-440 680.5,-470"/>
<text text-anchor="start" x="560.5" y="-458" font-family="Helvetica,sans-Serif" font-size="10.00">include/Hermes/Socket</text>
<text text-anchor="middle" x="616.5" y="-447" font-family="Helvetica,sans-Serif" font-size="10.00">/_base.hpp</text>
</a>
</g>
</g>
<!-- Node1&#45;&gt;Node21 -->
<g id="edge35_Node000001_Node000021" class="edge">
<title>Node1&#45;&gt;Node21</title>
<g id="a_edge35_Node000001_Node000021"><a xlink:title=" ">
<path fill="none" stroke="#63b8ff" d="M534.99,-500.97C553,-491.03 574.65,-479.09 591.1,-470.01"/>
<polygon fill="#63b8ff" stroke="#63b8ff" points="533.02,-498.06 525.96,-505.95 536.4,-504.19 533.02,-498.06"/>
</a>
</g>
</g>
<!-- Node3 -->
<g id="Node000003" class="node">
<title>Node3</title>
<g id="a_Node000003"><a xlink:href="_default_socket_data_8hpp.html" target="_top" xlink:title=" ">
<polygon fill="white" stroke="#666666" points="501.5,-404 343.5,-404 343.5,-374 501.5,-374 501.5,-404"/>
<text text-anchor="start" x="351.5" y="-392" font-family="Helvetica,sans-Serif" font-size="10.00">include/Hermes/Socket</text>
<text text-anchor="middle" x="422.5" y="-381" font-family="Helvetica,sans-Serif" font-size="10.00">/Data/DefaultSocketData.hpp</text>
</a>
</g>
</g>
<!-- Node2&#45;&gt;Node3 -->
<g id="edge2_Node000002_Node000003" class="edge">
<title>Node2&#45;&gt;Node3</title>
<g id="a_edge2_Node000002_Node000003"><a xlink:title=" ">
<path fill="none" stroke="#63b8ff" d="M422.5,-429.54C422.5,-420.96 422.5,-411.61 422.5,-404.16"/>
<polygon fill="#63b8ff" stroke="#63b8ff" points="419,-429.8 422.5,-439.8 426,-429.8 419,-429.8"/>
</a>
</g>
</g>
<!-- Node18 -->
<g id="Node000018" class="node">
<title>Node18</title>
<g id="a_Node000018"><a xlink:href="_tls_socket_data_8hpp.html" target="_top" xlink:title=" ">
<polygon fill="white" stroke="#666666" points="719,-332.5 582,-332.5 582,-302.5 719,-302.5 719,-332.5"/>
<text text-anchor="start" x="590" y="-320.5" font-family="Helvetica,sans-Serif" font-size="10.00">include/Hermes/Socket</text>
<text text-anchor="middle" x="650.5" y="-309.5" font-family="Helvetica,sans-Serif" font-size="10.00">/Data/TlsSocketData.hpp</text>
</a>
</g>
</g>
<!-- Node2&#45;&gt;Node18 -->
<g id="edge25_Node000002_Node000018" class="edge">
<title>Node2&#45;&gt;Node18</title>
<g id="a_edge25_Node000002_Node000018"><a xlink:title=" ">
<path fill="none" stroke="#63b8ff" d="M377.89,-435.62C347.09,-420.31 314.92,-397.31 334.5,-374 336.5,-371.62 489.34,-345.58 581.7,-330.03"/>
<polygon fill="#63b8ff" stroke="#63b8ff" points="376.39,-438.78 386.92,-439.92 379.4,-432.46 376.39,-438.78"/>
</a>
</g>
</g>
<!-- Node4 -->
<g id="Node000004" class="node">
<title>Node4</title>
<g id="a_Node000004"><a xlink:href="_default_async_connect_policy_8hpp.html" target="_top" xlink:title=" ">
<polygon fill="white" stroke="#666666" points="501,-184 328,-184 328,-143 501,-143 501,-184"/>
<text text-anchor="start" x="336" y="-172" font-family="Helvetica,sans-Serif" font-size="10.00">include/Hermes/Socket</text>
<text text-anchor="start" x="336" y="-161" font-family="Helvetica,sans-Serif" font-size="10.00">/Async/_base/Connection</text>
<text text-anchor="middle" x="414.5" y="-150" font-family="Helvetica,sans-Serif" font-size="10.00">/DefaultAsyncConnectPolicy.hpp</text>
</a>
</g>
</g>
<!-- Node3&#45;&gt;Node4 -->
<g id="edge3_Node000003_Node000004" class="edge">
<title>Node3&#45;&gt;Node4</title>
<g id="a_edge3_Node000003_Node000004"><a xlink:title=" ">
<path fill="none" stroke="#63b8ff" d="M394.4,-367.32C385.68,-359.25 377.15,-349.23 372.5,-338 350.38,-284.6 382.78,-216.92 402,-184.11"/>
<polygon fill="#63b8ff" stroke="#63b8ff" points="392.15,-370 402.01,-373.89 396.73,-364.71 392.15,-370"/>
</a>
</g>
</g>
<!-- Node7 -->
<g id="Node000007" class="node">
<title>Node7</title>
<g id="a_Node000007"><a xlink:href="_default_async_transfer_policy_8hpp.html" target="_top" xlink:title=" ">
<polygon fill="white" stroke="#666666" points="173,-338 0,-338 0,-297 173,-297 173,-338"/>
<text text-anchor="start" x="8" y="-326" font-family="Helvetica,sans-Serif" font-size="10.00">include/Hermes/Socket</text>
<text text-anchor="start" x="8" y="-315" font-family="Helvetica,sans-Serif" font-size="10.00">/Async/_base/Transfer</text>
<text text-anchor="middle" x="86.5" y="-304" font-family="Helvetica,sans-Serif" font-size="10.00">/DefaultAsyncTransferPolicy.hpp</text>
</a>
</g>
</g>
<!-- Node3&#45;&gt;Node7 -->
<g id="edge7_Node000003_Node000007" class="edge">
<title>Node3&#45;&gt;Node7</title>
<g id="a_edge7_Node000003_Node000007"><a xlink:title=" ">
<path fill="none" stroke="#63b8ff" d="M344.48,-371.86C293.25,-361.26 226.18,-347.39 173.26,-336.45"/>
<polygon fill="#63b8ff" stroke="#63b8ff" points="344,-375.34 354.51,-373.94 345.42,-368.48 344,-375.34"/>
</a>
</g>
</g>
<!-- Node10 -->
<g id="Node000010" class="node">
<title>Node10</title>
<g id="a_Node000010"><a xlink:href="_default_accept_policy_8hpp.html" target="_top" xlink:title=" ">
<polygon fill="white" stroke="#666666" points="1118.5,-338 936.5,-338 936.5,-297 1118.5,-297 1118.5,-338"/>
<text text-anchor="start" x="944.5" y="-326" font-family="Helvetica,sans-Serif" font-size="10.00">include/Hermes/Socket</text>
<text text-anchor="start" x="944.5" y="-315" font-family="Helvetica,sans-Serif" font-size="10.00">/Sync/_base/Accept/DefaultAccept</text>
<text text-anchor="middle" x="1027.5" y="-304" font-family="Helvetica,sans-Serif" font-size="10.00">Policy.hpp</text>
</a>
</g>
</g>
<!-- Node3&#45;&gt;Node10 -->
<g id="edge11_Node000003_Node000010" class="edge">
<title>Node3&#45;&gt;Node10</title>
<g id="a_edge11_Node000003_Node000010"><a xlink:title=" ">
<path fill="none" stroke="#63b8ff" d="M511.55,-379.37C605.59,-370.04 758.14,-354.31 889.5,-338 904.63,-336.12 920.67,-333.99 936.25,-331.84"/>
<polygon fill="#63b8ff" stroke="#63b8ff" points="511.11,-375.89 501.5,-380.36 511.8,-382.86 511.11,-375.89"/>
</a>
</g>
</g>
<!-- Node14 -->
<g id="Node000014" class="node">
<title>Node14</title>
<g id="a_Node000014"><a xlink:href="_default_connect_policy_8hpp.html" target="_top" xlink:title=" ">
<polygon fill="white" stroke="#666666" points="525.5,-338 381.5,-338 381.5,-297 525.5,-297 525.5,-338"/>
<text text-anchor="start" x="389.5" y="-326" font-family="Helvetica,sans-Serif" font-size="10.00">include/Hermes/Socket</text>
<text text-anchor="start" x="389.5" y="-315" font-family="Helvetica,sans-Serif" font-size="10.00">/Sync/_base/Connection</text>
<text text-anchor="middle" x="453.5" y="-304" font-family="Helvetica,sans-Serif" font-size="10.00">/DefaultConnectPolicy.hpp</text>
</a>
</g>
</g>
<!-- Node3&#45;&gt;Node14 -->
<g id="edge16_Node000003_Node000014" class="edge">
<title>Node3&#45;&gt;Node14</title>
<g id="a_edge16_Node000003_Node000014"><a xlink:title=" ">
<path fill="none" stroke="#63b8ff" d="M432.87,-364.75C436.73,-356.1 441.07,-346.37 444.77,-338.07"/>
<polygon fill="#63b8ff" stroke="#63b8ff" points="429.65,-363.38 428.77,-373.94 436.04,-366.23 429.65,-363.38"/>
</a>
</g>
</g>
<!-- Node17 -->
<g id="Node000017" class="node">
<title>Node17</title>
<g id="a_Node000017"><a xlink:href="_default_transfer_policy_8hpp.html" target="_top" xlink:title=" ">
<polygon fill="white" stroke="#666666" points="880,-338 737,-338 737,-297 880,-297 880,-338"/>
<text text-anchor="start" x="745" y="-326" font-family="Helvetica,sans-Serif" font-size="10.00">include/Hermes/Socket</text>
<text text-anchor="start" x="745" y="-315" font-family="Helvetica,sans-Serif" font-size="10.00">/Sync/_base/Transfer</text>
<text text-anchor="middle" x="808.5" y="-304" font-family="Helvetica,sans-Serif" font-size="10.00">/DefaultTransferPolicy.hpp</text>
</a>
</g>
</g>
<!-- Node3&#45;&gt;Node17 -->
<g id="edge22_Node000003_Node000017" class="edge">
<title>Node3&#45;&gt;Node17</title>
<g id="a_edge22_Node000003_Node000017"><a xlink:title=" ">
<path fill="none" stroke="#63b8ff" d="M511.75,-375.27C572.97,-366.09 655.92,-352.75 728.5,-338 731.16,-337.46 733.87,-336.89 736.6,-336.3"/>
<polygon fill="#63b8ff" stroke="#63b8ff" points="511.11,-371.83 501.74,-376.77 512.15,-378.75 511.11,-371.83"/>
</a>
</g>
</g>
<!-- Node5 -->
<g id="Node000005" class="node">
<title>Node5</title>
<g id="a_Node000005"><a xlink:href="_async_client_socket_8hpp.html" target="_top" xlink:title=" ">
<polygon fill="white" stroke="#666666" points="438,-30 275,-30 275,0 438,0 438,-30"/>
<text text-anchor="start" x="283" y="-18" font-family="Helvetica,sans-Serif" font-size="10.00">include/Hermes/Socket</text>
<text text-anchor="middle" x="356.5" y="-7" font-family="Helvetica,sans-Serif" font-size="10.00">/Async/AsyncClientSocket.hpp</text>
</a>
</g>
</g>
<!-- Node4&#45;&gt;Node5 -->
<g id="edge4_Node000004_Node000005" class="edge">
<title>Node4&#45;&gt;Node5</title>
<g id="a_edge4_Node000004_Node000005"><a xlink:title=" ">
<path fill="none" stroke="#63b8ff" d="M402.92,-133.26C390.56,-102.04 371.5,-53.89 362.11,-30.18"/>
<polygon fill="#63b8ff" stroke="#63b8ff" points="399.74,-134.73 406.68,-142.74 406.25,-132.16 399.74,-134.73"/>
</a>
</g>
</g>
<!-- Node6 -->
<g id="Node000006" class="node">
<title>Node6</title>
<g id="a_Node000006"><a xlink:href="_tls_async_connect_policy_8hpp.html" target="_top" xlink:title=" ">
<polygon fill="white" stroke="#666666" points="623.5,-107 471.5,-107 471.5,-66 623.5,-66 623.5,-107"/>
<text text-anchor="start" x="479.5" y="-95" font-family="Helvetica,sans-Serif" font-size="10.00">include/Hermes/Socket</text>
<text text-anchor="start" x="479.5" y="-84" font-family="Helvetica,sans-Serif" font-size="10.00">/Async/_base/Connection</text>
<text text-anchor="middle" x="547.5" y="-73" font-family="Helvetica,sans-Serif" font-size="10.00">/TlsAsyncConnectPolicy.hpp</text>
</a>
</g>
</g>
<!-- Node4&#45;&gt;Node6 -->
<g id="edge5_Node000004_Node000006" class="edge">
<title>Node4&#45;&gt;Node6</title>
<g id="a_edge5_Node000004_Node000006"><a xlink:title=" ">
<path fill="none" stroke="#63b8ff" d="M458.09,-137.92C475.78,-127.95 495.93,-116.58 512.61,-107.17"/>
<polygon fill="#63b8ff" stroke="#63b8ff" points="456.09,-135.03 449.1,-142.99 459.53,-141.13 456.09,-135.03"/>
</a>
</g>
</g>
<!-- Node6&#45;&gt;Node5 -->
<g id="edge6_Node000006_Node000005" class="edge">
<title>Node6&#45;&gt;Node5</title>
<g id="a_edge6_Node000006_Node000005"><a xlink:title=" ">
<path fill="none" stroke="#63b8ff" d="M484.38,-62.53C454.83,-51.78 420.59,-39.32 394.99,-30"/>
<polygon fill="#63b8ff" stroke="#63b8ff" points="483.19,-65.82 493.79,-65.96 485.59,-59.25 483.19,-65.82"/>
</a>
</g>
</g>
<!-- Node7&#45;&gt;Node5 -->
<g id="edge8_Node000007_Node000005" class="edge">
<title>Node7&#45;&gt;Node5</title>
<g id="a_edge8_Node000007_Node000005"><a xlink:title=" ">
<path fill="none" stroke="#63b8ff" d="M75.99,-286.94C59.78,-235.5 35.73,-129.01 88.5,-66 112.01,-37.92 205.03,-25.52 274.93,-20.1"/>
<polygon fill="#63b8ff" stroke="#63b8ff" points="72.76,-288.34 79.2,-296.75 79.42,-286.16 72.76,-288.34"/>
</a>
</g>
</g>
<!-- Node8 -->
<g id="Node000008" class="node">
<title>Node8</title>
<g id="a_Node000008"><a xlink:href="_async_server_socket_8hpp.html" target="_top" xlink:title=" ">
<polygon fill="white" stroke="#666666" points="267.5,-178.5 101.5,-178.5 101.5,-148.5 267.5,-148.5 267.5,-178.5"/>
<text text-anchor="start" x="109.5" y="-166.5" font-family="Helvetica,sans-Serif" font-size="10.00">include/Hermes/Socket</text>
<text text-anchor="middle" x="184.5" y="-155.5" font-family="Helvetica,sans-Serif" font-size="10.00">/Async/AsyncServerSocket.hpp</text>
</a>
</g>
</g>
<!-- Node7&#45;&gt;Node8 -->
<g id="edge9_Node000007_Node000008" class="edge">
<title>Node7&#45;&gt;Node8</title>
<g id="a_edge9_Node000007_Node000008"><a xlink:title=" ">
<path fill="none" stroke="#63b8ff" d="M95.16,-287.04C101.85,-267.06 112.37,-240.65 126.5,-220 137.44,-204.01 153.6,-189.03 166.09,-178.66"/>
<polygon fill="#63b8ff" stroke="#63b8ff" points="91.74,-286.24 92.01,-296.83 98.4,-288.38 91.74,-286.24"/>
</a>
</g>
</g>
<!-- Node9 -->
<g id="Node000009" class="node">
<title>Node9</title>
<g id="a_Node000009"><a xlink:href="_async_listener_socket_8hpp.html" target="_top" xlink:title=" ">
<polygon fill="white" stroke="#666666" points="271,-101.5 98,-101.5 98,-71.5 271,-71.5 271,-101.5"/>
<text text-anchor="start" x="106" y="-89.5" font-family="Helvetica,sans-Serif" font-size="10.00">include/Hermes/Socket</text>
<text text-anchor="middle" x="184.5" y="-78.5" font-family="Helvetica,sans-Serif" font-size="10.00">/Async/AsyncListenerSocket.hpp</text>
</a>
</g>
</g>
<!-- Node8&#45;&gt;Node9 -->
<g id="edge10_Node000008_Node000009" class="edge">
<title>Node8&#45;&gt;Node9</title>
<g id="a_edge10_Node000008_Node000009"><a xlink:title=" ">
<path fill="none" stroke="#63b8ff" d="M184.5,-138.04C184.5,-125.95 184.5,-111.79 184.5,-101.54"/>
<polygon fill="#63b8ff" stroke="#63b8ff" points="181,-138.39 184.5,-148.39 188,-138.39 181,-138.39"/>
</a>
</g>
</g>
<!-- Node11 -->
<g id="Node000011" class="node">
<title>Node11</title>
<g id="a_Node000011"><a xlink:href="_server_socket_8hpp.html" target="_top" xlink:title=" ">
<polygon fill="white" stroke="#666666" points="965,-178.5 834,-178.5 834,-148.5 965,-148.5 965,-178.5"/>
<text text-anchor="start" x="842" y="-166.5" font-family="Helvetica,sans-Serif" font-size="10.00">include/Hermes/Socket</text>
<text text-anchor="middle" x="899.5" y="-155.5" font-family="Helvetica,sans-Serif" font-size="10.00">/Sync/ServerSocket.hpp</text>
</a>
</g>
</g>
<!-- Node10&#45;&gt;Node11 -->
<g id="edge12_Node000010_Node000011" class="edge">
<title>Node10&#45;&gt;Node11</title>
<g id="a_edge12_Node000010_Node000011"><a xlink:title=" ">
<path fill="none" stroke="#63b8ff" d="M1058.7,-289.7C1078.21,-269.66 1096.79,-242.04 1080.5,-220 1054.22,-184.45 1005.59,-170.94 965.35,-166.12"/>
<polygon fill="#63b8ff" stroke="#63b8ff" points="1056.23,-287.22 1051.54,-296.72 1061.13,-292.22 1056.23,-287.22"/>
</a>
</g>
</g>
<!-- Node13 -->
<g id="Node000013" class="node">
<title>Node13</title>
<g id="a_Node000013"><a xlink:href="_tls_accept_policy_8hpp.html" target="_top" xlink:title=" ">
<polygon fill="white" stroke="#666666" points="1071,-261 910,-261 910,-220 1071,-220 1071,-261"/>
<text text-anchor="start" x="918" y="-249" font-family="Helvetica,sans-Serif" font-size="10.00">include/Hermes/Socket</text>
<text text-anchor="start" x="918" y="-238" font-family="Helvetica,sans-Serif" font-size="10.00">/Sync/_base/Accept/TlsAccept</text>
<text text-anchor="middle" x="990.5" y="-227" font-family="Helvetica,sans-Serif" font-size="10.00">Policy.hpp</text>
</a>
</g>
</g>
<!-- Node10&#45;&gt;Node13 -->
<g id="edge14_Node000010_Node000013" class="edge">
<title>Node10&#45;&gt;Node13</title>
<g id="a_edge14_Node000010_Node000013"><a xlink:title=" ">
<path fill="none" stroke="#63b8ff" d="M1013.22,-287.55C1008.84,-278.69 1004.14,-269.15 1000.16,-261.07"/>
<polygon fill="#63b8ff" stroke="#63b8ff" points="1010.22,-289.38 1017.78,-296.79 1016.49,-286.28 1010.22,-289.38"/>
</a>
</g>
</g>
<!-- Node12 -->
<g id="Node000012" class="node">
<title>Node12</title>
<g id="a_Node000012"><a xlink:href="_listener_socket_8hpp.html" target="_top" xlink:title=" ">
<polygon fill="white" stroke="#666666" points="968.5,-101.5 830.5,-101.5 830.5,-71.5 968.5,-71.5 968.5,-101.5"/>
<text text-anchor="start" x="838.5" y="-89.5" font-family="Helvetica,sans-Serif" font-size="10.00">include/Hermes/Socket</text>
<text text-anchor="middle" x="899.5" y="-78.5" font-family="Helvetica,sans-Serif" font-size="10.00">/Sync/ListenerSocket.hpp</text>
</a>
</g>
</g>
<!-- Node11&#45;&gt;Node12 -->
<g id="edge13_Node000011_Node000012" class="edge">
<title>Node11&#45;&gt;Node12</title>
<g id="a_edge13_Node000011_Node000012"><a xlink:title=" ">
<path fill="none" stroke="#63b8ff" d="M899.5,-138.04C899.5,-125.95 899.5,-111.79 899.5,-101.54"/>
<polygon fill="#63b8ff" stroke="#63b8ff" points="896,-138.39 899.5,-148.39 903,-138.39 896,-138.39"/>
</a>
</g>
</g>
<!-- Node13&#45;&gt;Node11 -->
<g id="edge15_Node000013_Node000011" class="edge">
<title>Node13&#45;&gt;Node11</title>
<g id="a_edge15_Node000013_Node000011"><a xlink:title=" ">
<path fill="none" stroke="#63b8ff" d="M958.55,-213.17C944.45,-201.55 928.43,-188.34 916.64,-178.63"/>
<polygon fill="#63b8ff" stroke="#63b8ff" points="956.65,-216.14 966.59,-219.79 961.1,-210.73 956.65,-216.14"/>
</a>
</g>
</g>
<!-- Node15 -->
<g id="Node000015" class="node">
<title>Node15</title>
<g id="a_Node000015"><a xlink:href="_client_socket_8hpp.html" target="_top" xlink:title=" ">
<polygon fill="white" stroke="#666666" points="797.5,-178.5 669.5,-178.5 669.5,-148.5 797.5,-148.5 797.5,-178.5"/>
<text text-anchor="start" x="677.5" y="-166.5" font-family="Helvetica,sans-Serif" font-size="10.00">include/Hermes/Socket</text>
<text text-anchor="middle" x="733.5" y="-155.5" font-family="Helvetica,sans-Serif" font-size="10.00">/Sync/ClientSocket.hpp</text>
</a>
</g>
</g>
<!-- Node14&#45;&gt;Node15 -->
<g id="edge17_Node000014_Node000015" class="edge">
<title>Node14&#45;&gt;Node15</title>
<g id="a_edge17_Node000014_Node000015"><a xlink:title=" ">
<path fill="none" stroke="#63b8ff" d="M451.32,-286.8C451.45,-265.41 455.38,-237.38 472.5,-220 499.48,-192.61 601.21,-177.4 669.41,-170.1"/>
<polygon fill="#63b8ff" stroke="#63b8ff" points="447.83,-287.06 451.54,-296.99 454.83,-286.91 447.83,-287.06"/>
</a>
</g>
</g>
<!-- Node16 -->
<g id="Node000016" class="node">
<title>Node16</title>
<g id="a_Node000016"><a xlink:href="_tls_connect_policy_8hpp.html" target="_top" xlink:title=" ">
<polygon fill="white" stroke="#666666" points="613.5,-261 481.5,-261 481.5,-220 613.5,-220 613.5,-261"/>
<text text-anchor="start" x="489.5" y="-249" font-family="Helvetica,sans-Serif" font-size="10.00">include/Hermes/Socket</text>
<text text-anchor="start" x="489.5" y="-238" font-family="Helvetica,sans-Serif" font-size="10.00">/Sync/_base/Connection</text>
<text text-anchor="middle" x="547.5" y="-227" font-family="Helvetica,sans-Serif" font-size="10.00">/TlsConnectPolicy.hpp</text>
</a>
</g>
</g>
<!-- Node14&#45;&gt;Node16 -->
<g id="edge18_Node000014_Node000016" class="edge">
<title>Node14&#45;&gt;Node16</title>
<g id="a_edge18_Node000014_Node000016"><a xlink:title=" ">
<path fill="none" stroke="#63b8ff" d="M486.28,-290.35C498.33,-280.73 511.76,-270.01 522.97,-261.07"/>
<polygon fill="#63b8ff" stroke="#63b8ff" points="483.83,-287.82 478.2,-296.79 488.2,-293.29 483.83,-287.82"/>
</a>
</g>
</g>
<!-- Node16&#45;&gt;Node4 -->
<g id="edge19_Node000016_Node000004" class="edge">
<title>Node16&#45;&gt;Node4</title>
<g id="a_edge19_Node000016_Node000004"><a xlink:title=" ">
<path fill="none" stroke="#63b8ff" d="M503.91,-214.92C486.22,-204.95 466.07,-193.58 449.39,-184.17"/>
<polygon fill="#63b8ff" stroke="#63b8ff" points="502.47,-218.13 512.9,-219.99 505.91,-212.03 502.47,-218.13"/>
</a>
</g>
</g>
<!-- Node16&#45;&gt;Node6 -->
<g id="edge20_Node000016_Node000006" class="edge">
<title>Node16&#45;&gt;Node6</title>
<g id="a_edge20_Node000016_Node000006"><a xlink:title=" ">
<path fill="none" stroke="#63b8ff" d="M547.5,-209.58C547.5,-179.36 547.5,-133.53 547.5,-107.47"/>
<polygon fill="#63b8ff" stroke="#63b8ff" points="544,-209.94 547.5,-219.94 551,-209.94 544,-209.94"/>
</a>
</g>
</g>
<!-- Node16&#45;&gt;Node15 -->
<g id="edge21_Node000016_Node000015" class="edge">
<title>Node16&#45;&gt;Node15</title>
<g id="a_edge21_Node000016_Node000015"><a xlink:title=" ">
<path fill="none" stroke="#63b8ff" d="M605.16,-216.25C635.74,-203.92 672.31,-189.17 698.58,-178.58"/>
<polygon fill="#63b8ff" stroke="#63b8ff" points="603.85,-213 595.88,-219.99 606.47,-219.5 603.85,-213"/>
</a>
</g>
</g>
<!-- Node17&#45;&gt;Node11 -->
<g id="edge24_Node000017_Node000011" class="edge">
<title>Node17&#45;&gt;Node11</title>
<g id="a_edge24_Node000017_Node000011"><a xlink:title=" ">
<path fill="none" stroke="#63b8ff" d="M838.81,-289.75C847.28,-281.19 855.95,-271.25 862.5,-261 879.61,-234.24 890.75,-198.36 895.99,-178.75"/>
<polygon fill="#63b8ff" stroke="#63b8ff" points="836.19,-287.42 831.48,-296.9 841.08,-292.43 836.19,-287.42"/>
</a>
</g>
</g>
<!-- Node17&#45;&gt;Node15 -->
<g id="edge23_Node000017_Node000015" class="edge">
<title>Node17&#45;&gt;Node15</title>
<g id="a_edge23_Node000017_Node000015"><a xlink:title=" ">
<path fill="none" stroke="#63b8ff" d="M747.29,-291.69C734.99,-283.77 723.65,-273.67 716.5,-261 701.61,-234.63 715.65,-198.28 725.58,-178.57"/>
<polygon fill="#63b8ff" stroke="#63b8ff" points="745.54,-294.73 755.93,-296.83 749.13,-288.71 745.54,-294.73"/>
</a>
</g>
</g>
<!-- Node18&#45;&gt;Node6 -->
<g id="edge26_Node000018_Node000006" class="edge">
<title>Node18&#45;&gt;Node6</title>
<g id="a_edge26_Node000018_Node000006"><a xlink:title=" ">
<path fill="none" stroke="#63b8ff" d="M645.22,-292.65C640.44,-272.79 632.6,-243.98 622.5,-220 604.85,-178.1 577.06,-132.69 560.72,-107.4"/>
<polygon fill="#63b8ff" stroke="#63b8ff" points="641.82,-293.46 647.5,-302.41 648.64,-291.87 641.82,-293.46"/>
</a>
</g>
</g>
<!-- Node18&#45;&gt;Node13 -->
<g id="edge30_Node000018_Node000013" class="edge">
<title>Node18&#45;&gt;Node13</title>
<g id="a_edge30_Node000018_Node000013"><a xlink:title=" ">
<path fill="none" stroke="#63b8ff" d="M715.84,-299.98C720.12,-298.96 724.37,-297.95 728.5,-297 789.09,-283.01 857.89,-268.49 909.78,-257.81"/>
<polygon fill="#63b8ff" stroke="#63b8ff" points="714.73,-296.65 705.83,-302.4 716.38,-303.45 714.73,-296.65"/>
</a>
</g>
</g>
<!-- Node18&#45;&gt;Node16 -->
<g id="edge31_Node000018_Node000016" class="edge">
<title>Node18&#45;&gt;Node16</title>
<g id="a_edge31_Node000018_Node000016"><a xlink:title=" ">
<path fill="none" stroke="#63b8ff" d="M622.77,-296.31C607.81,-285.41 589.42,-272.02 574.56,-261.2"/>
<polygon fill="#63b8ff" stroke="#63b8ff" points="620.98,-299.34 631.13,-302.39 625.1,-293.68 620.98,-299.34"/>
</a>
</g>
</g>
<!-- Node19 -->
<g id="Node000019" class="node">
<title>Node19</title>
<g id="a_Node000019"><a xlink:href="_tls_async_transfer_policy_8hpp.html" target="_top" xlink:title=" ">
<polygon fill="white" stroke="#666666" points="287,-261 136,-261 136,-220 287,-220 287,-261"/>
<text text-anchor="start" x="144" y="-249" font-family="Helvetica,sans-Serif" font-size="10.00">include/Hermes/Socket</text>
<text text-anchor="start" x="144" y="-238" font-family="Helvetica,sans-Serif" font-size="10.00">/Async/_base/Transfer</text>
<text text-anchor="middle" x="211.5" y="-227" font-family="Helvetica,sans-Serif" font-size="10.00">/TlsAsyncTransferPolicy.hpp</text>
</a>
</g>
</g>
<!-- Node18&#45;&gt;Node19 -->
<g id="edge27_Node000018_Node000019" class="edge">
<title>Node18&#45;&gt;Node19</title>
<g id="a_edge27_Node000018_Node000019"><a xlink:title=" ">
<path fill="none" stroke="#63b8ff" d="M571.82,-303.06C491.24,-289.29 366.86,-268.04 287.34,-254.46"/>
<polygon fill="#63b8ff" stroke="#63b8ff" points="571.46,-306.55 581.91,-304.78 572.64,-299.65 571.46,-306.55"/>
</a>
</g>
</g>
<!-- Node20 -->
<g id="Node000020" class="node">
<title>Node20</title>
<g id="a_Node000020"><a xlink:href="_tls_transfer_policy_8hpp.html" target="_top" xlink:title=" ">
<polygon fill="white" stroke="#666666" points="853.5,-261 725.5,-261 725.5,-220 853.5,-220 853.5,-261"/>
<text text-anchor="start" x="733.5" y="-249" font-family="Helvetica,sans-Serif" font-size="10.00">include/Hermes/Socket</text>
<text text-anchor="start" x="733.5" y="-238" font-family="Helvetica,sans-Serif" font-size="10.00">/Sync/_base/Transfer</text>
<text text-anchor="middle" x="789.5" y="-227" font-family="Helvetica,sans-Serif" font-size="10.00">/TlsTransferPolicy.hpp</text>
</a>
</g>
</g>
<!-- Node18&#45;&gt;Node20 -->
<g id="edge32_Node000018_Node000020" class="edge">
<title>Node18&#45;&gt;Node20</title>
<g id="a_edge32_Node000018_Node000020"><a xlink:title=" ">
<path fill="none" stroke="#63b8ff" d="M685.72,-297.5C706.37,-286.35 732.41,-272.3 753.24,-261.06"/>
<polygon fill="#63b8ff" stroke="#63b8ff" points="683.78,-294.56 676.64,-302.39 687.11,-300.72 683.78,-294.56"/>
</a>
</g>
</g>
<!-- Node19&#45;&gt;Node5 -->
<g id="edge28_Node000019_Node000005" class="edge">
<title>Node19&#45;&gt;Node5</title>
<g id="a_edge28_Node000019_Node000005"><a xlink:title=" ">
<path fill="none" stroke="#63b8ff" d="M247.55,-213.33C257.75,-204.77 268.31,-194.68 276.5,-184 315.43,-133.24 341.99,-60.5 352.04,-30.15"/>
<polygon fill="#63b8ff" stroke="#63b8ff" points="245.05,-210.85 239.48,-219.86 249.46,-216.29 245.05,-210.85"/>
</a>
</g>
</g>
<!-- Node19&#45;&gt;Node8 -->
<g id="edge29_Node000019_Node000008" class="edge">
<title>Node19&#45;&gt;Node8</title>
<g id="a_edge29_Node000019_Node000008"><a xlink:title=" ">
<path fill="none" stroke="#63b8ff" d="M200.98,-210.27C197.1,-199.49 192.87,-187.75 189.67,-178.86"/>
<polygon fill="#63b8ff" stroke="#63b8ff" points="197.73,-211.57 204.41,-219.79 204.31,-209.2 197.73,-211.57"/>
</a>
</g>
</g>
<!-- Node20&#45;&gt;Node11 -->
<g id="edge34_Node000020_Node000011" class="edge">
<title>Node20&#45;&gt;Node11</title>
<g id="a_edge34_Node000020_Node000011"><a xlink:title=" ">
<path fill="none" stroke="#63b8ff" d="M826.41,-214.34C843.82,-202.47 863.95,-188.74 878.67,-178.7"/>
<polygon fill="#63b8ff" stroke="#63b8ff" points="824.4,-211.47 818.11,-219.99 828.35,-217.25 824.4,-211.47"/>
</a>
</g>
</g>
<!-- Node20&#45;&gt;Node15 -->
<g id="edge33_Node000020_Node000015" class="edge">
<title>Node20&#45;&gt;Node15</title>
<g id="a_edge33_Node000020_Node000015"><a xlink:title=" ">
<path fill="none" stroke="#63b8ff" d="M768.66,-211.59C760.35,-200.46 751.13,-188.12 744.22,-178.86"/>
<polygon fill="#63b8ff" stroke="#63b8ff" points="766,-213.88 774.79,-219.79 771.61,-209.69 766,-213.88"/>
</a>
</g>
</g>
<!-- Node21&#45;&gt;Node3 -->
<g id="edge40_Node000021_Node000003" class="edge">
<title>Node21&#45;&gt;Node3</title>
<g id="a_edge40_Node000021_Node000003"><a xlink:title=" ">
<path fill="none" stroke="#63b8ff" d="M564.13,-436.72C533.04,-426.47 494.14,-413.63 464.97,-404.01"/>
<polygon fill="#63b8ff" stroke="#63b8ff" points="563.33,-440.15 573.93,-439.95 565.53,-433.5 563.33,-440.15"/>
</a>
</g>
</g>
<!-- Node21&#45;&gt;Node4 -->
<g id="edge36_Node000021_Node000004" class="edge">
<title>Node21&#45;&gt;Node4</title>
<g id="a_edge36_Node000021_Node000004"><a xlink:title=" ">
<path fill="none" stroke="#63b8ff" d="M542.26,-443.24C460.99,-431.1 341.22,-412.02 334.5,-404 307.84,-372.19 272.08,-411.08 366.5,-220 373.1,-206.64 383.7,-193.9 393.25,-184"/>
<polygon fill="#63b8ff" stroke="#63b8ff" points="542.06,-446.75 552.46,-444.76 543.09,-439.82 542.06,-446.75"/>
</a>
</g>
</g>
<!-- Node21&#45;&gt;Node6 -->
<g id="edge37_Node000021_Node000006" class="edge">
<title>Node21&#45;&gt;Node6</title>
<g id="a_edge37_Node000021_Node000006"><a xlink:title=" ">
<path fill="none" stroke="#63b8ff" d="M690.87,-451.74C844.89,-445.02 1184.5,-418.84 1184.5,-318.5 1184.5,-318.5 1184.5,-318.5 1184.5,-239.5 1184.5,-136.78 1073.22,-171.39 974.5,-143 854.88,-108.6 710.23,-95.47 623.72,-90.49"/>
<polygon fill="#63b8ff" stroke="#63b8ff" points="690.4,-448.25 680.55,-452.17 690.69,-455.25 690.4,-448.25"/>
</a>
</g>
</g>
<!-- Node21&#45;&gt;Node7 -->
<g id="edge38_Node000021_Node000007" class="edge">
<title>Node21&#45;&gt;Node7</title>
<g id="a_edge38_Node000021_Node000007"><a xlink:title=" ">
<path fill="none" stroke="#63b8ff" d="M541.87,-444.09C463.46,-433.34 345.51,-416.08 301.5,-404 239.13,-386.88 170.18,-357.47 127.58,-338.01"/>
<polygon fill="#63b8ff" stroke="#63b8ff" points="541.8,-447.62 552.18,-445.5 542.75,-440.68 541.8,-447.62"/>
</a>
</g>
</g>
<!-- Node21&#45;&gt;Node10 -->
<g id="edge42_Node000021_Node000010" class="edge">
<title>Node21&#45;&gt;Node10</title>
<g id="a_edge42_Node000021_Node000010"><a xlink:title=" ">
<path fill="none" stroke="#63b8ff" d="M690.79,-452.52C754.73,-448.81 848.17,-437.43 922.5,-404 957.23,-388.38 990.05,-358.29 1009.47,-338.3"/>
<polygon fill="#63b8ff" stroke="#63b8ff" points="690.58,-449.03 680.78,-453.06 690.96,-456.02 690.58,-449.03"/>
</a>
</g>
</g>
<!-- Node21&#45;&gt;Node13 -->
<g id="edge43_Node000021_Node000013" class="edge">
<title>Node21&#45;&gt;Node13</title>
<g id="a_edge43_Node000021_Node000013"><a xlink:title=" ">
<path fill="none" stroke="#63b8ff" d="M690.97,-449.1C820.65,-438.75 1078.8,-409.45 1127.5,-338 1137.76,-322.94 1137.68,-312.11 1127.5,-297 1114.38,-277.53 1093.14,-264.88 1071.25,-256.68"/>
<polygon fill="#63b8ff" stroke="#63b8ff" points="690.42,-445.63 680.72,-449.9 690.96,-452.61 690.42,-445.63"/>
</a>
</g>
</g>
<!-- Node21&#45;&gt;Node14 -->
<g id="edge44_Node000021_Node000014" class="edge">
<title>Node21&#45;&gt;Node14</title>
<g id="a_edge44_Node000021_Node000014"><a xlink:title=" ">
<path fill="none" stroke="#63b8ff" d="M590.54,-433.74C579.1,-424.73 565.55,-413.93 553.5,-404 526.53,-381.78 496.08,-355.58 475.94,-338.09"/>
<polygon fill="#63b8ff" stroke="#63b8ff" points="588.41,-436.52 598.44,-439.95 592.74,-431.02 588.41,-436.52"/>
</a>
</g>
</g>
<!-- Node21&#45;&gt;Node16 -->
<g id="edge45_Node000021_Node000016" class="edge">
<title>Node21&#45;&gt;Node16</title>
<g id="a_edge45_Node000021_Node000016"><a xlink:title=" ">
<path fill="none" stroke="#63b8ff" d="M601.32,-431C596.38,-422.74 591.21,-413.2 587.5,-404 567.5,-354.42 555.59,-292.17 550.47,-261.07"/>
<polygon fill="#63b8ff" stroke="#63b8ff" points="598.47,-433.04 606.72,-439.68 604.42,-429.34 598.47,-433.04"/>
</a>
</g>
</g>
<!-- Node21&#45;&gt;Node17 -->
<g id="edge46_Node000021_Node000017" class="edge">
<title>Node21&#45;&gt;Node17</title>
<g id="a_edge46_Node000021_Node000017"><a xlink:title=" ">
<path fill="none" stroke="#63b8ff" d="M677.42,-436.53C698.63,-428.68 721.79,-417.96 740.5,-404 764.67,-385.96 785.05,-357.35 797.02,-338.26"/>
<polygon fill="#63b8ff" stroke="#63b8ff" points="676.08,-433.29 667.83,-439.94 678.43,-439.89 676.08,-433.29"/>
</a>
</g>
</g>
<!-- Node21&#45;&gt;Node18 -->
<g id="edge41_Node000021_Node000018" class="edge">
<title>Node21&#45;&gt;Node18</title>
<g id="a_edge41_Node000021_Node000018"><a xlink:title=" ">
<path fill="none" stroke="#63b8ff" d="M685.95,-435.77C701.17,-428.43 715.42,-418.2 724.5,-404 742.05,-376.54 705.72,-348.74 678.01,-332.59"/>
<polygon fill="#63b8ff" stroke="#63b8ff" points="684.13,-432.75 676.39,-439.98 686.96,-439.16 684.13,-432.75"/>
</a>
</g>
</g>
<!-- Node21&#45;&gt;Node19 -->
<g id="edge39_Node000021_Node000019" class="edge">
<title>Node21&#45;&gt;Node19</title>
<g id="a_edge39_Node000021_Node000019"><a xlink:title=" ">
<path fill="none" stroke="#63b8ff" d="M542.23,-443.88C452.23,-431.37 311.32,-410.88 301.5,-404 251.19,-368.74 225.92,-295.98 216.28,-261.05"/>
<polygon fill="#63b8ff" stroke="#63b8ff" points="542.01,-447.38 552.39,-445.29 542.97,-440.45 542.01,-447.38"/>
</a>
</g>
</g>
<!-- Node21&#45;&gt;Node20 -->
<g id="edge47_Node000021_Node000020" class="edge">
<title>Node21&#45;&gt;Node20</title>
<g id="a_edge47_Node000021_Node000020"><a xlink:title=" ">
<path fill="none" stroke="#63b8ff" d="M690.46,-446.3C756.38,-434.96 848.56,-406.97 889.5,-338 898.8,-322.33 898.74,-312.7 889.5,-297 880.18,-281.17 864.54,-269.54 848.37,-261.13"/>
<polygon fill="#63b8ff" stroke="#63b8ff" points="689.84,-442.85 680.53,-447.91 690.96,-449.76 689.84,-442.85"/>
</a>
</g>
</g>
<!-- Node22 -->
<g id="Node000022" class="node">
<title>Node22</title>
<g id="a_Node000022"><a xlink:href="_to_bytes_8hpp.html" target="_top" xlink:title=" ">
<polygon fill="white" stroke="#666666" points="715,-404 596,-404 596,-374 715,-374 715,-404"/>
<text text-anchor="start" x="604" y="-392" font-family="Helvetica,sans-Serif" font-size="10.00">include/Hermes/Utils</text>
<text text-anchor="middle" x="655.5" y="-381" font-family="Helvetica,sans-Serif" font-size="10.00">/ToBytes.hpp</text>
</a>
</g>
</g>
<!-- Node21&#45;&gt;Node22 -->
<g id="edge48_Node000021_Node000022" class="edge">
<title>Node21&#45;&gt;Node22</title>
<g id="a_edge48_Node000021_Node000022"><a xlink:title=" ">
<path fill="none" stroke="#63b8ff" d="M630.37,-431.24C635.87,-422.21 642.03,-412.11 646.87,-404.16"/>
<polygon fill="#63b8ff" stroke="#63b8ff" points="627.37,-429.44 625.16,-439.8 633.35,-433.08 627.37,-429.44"/>
</a>
</g>
</g>
</g>
</svg>
