<?xml version="1.0" encoding="UTF-8" standalone="no"?>
<!DOCTYPE svg PUBLIC "-//W3C//DTD SVG 1.1//EN"
 "http://www.w3.org/Graphics/SVG/1.1/DTD/svg11.dtd">
<!-- Generated by graphviz version 2.43.0 (0)
 -->
<!-- Title: include/Hermes/Endpoint/_base/EndpointConcept.hpp Pages: 1 -->
<svg width="870pt" height="467pt"
 viewBox="0.00 0.00 870.00 467.00" xmlns="http://www.w3.org/2000/svg" xmlns:xlink="http://www.w3.org/1999/xlink">
<g id="graph0" class="graph" transform="scale(1 1) rotate(0) translate(4 463)">
<title>include/Hermes/Endpoint/_base/EndpointConcept.hpp</title>
<!-- Node1 -->
<g id="Node000001" class="node">
<title>Node1</title>
<g id="a_Node000001"><a xlink:title=" ">
<polygon fill="#999999" stroke="#666666" points="475.5,-459 320.5,-459 320.5,-429 475.5,-429 475.5,-459"/>
<text text-anchor="start" x="328.5" y="-447" font-family="Helvetica,sans-Serif" font-size="10.00">include/Hermes/Endpoint</text>
<text text-anchor="middle" x="398" y="-436" font-family="Helvetica,sans-Serif" font-size="10.00">/_base/EndpointConcept.hpp</text>
</a>
</g>
</g>
<!-- Node2 -->
<g id="Node000002" class="node">
<title>Node2</title>
<g id="a_Node000002"><a xlink:href="_ip_endpoint_8hpp.html" target="_top" xlink:title=" ">
<polygon fill="white" stroke="#666666" points="393.5,-393 246.5,-393 246.5,-363 393.5,-363 393.5,-393"/>
<text text-anchor="start" x="254.5" y="-381" font-family="Helvetica,sans-Serif" font-size="10.00">include/Hermes/Endpoint</text>
<text text-anchor="middle" x="320" y="-370" font-family="Helvetica,sans-Serif" font-size="10.00">/IpEndpoint/IpEndpoint.hpp</text>
</a>
</g>
</g>
<!-- Node1&#45;&gt;Node2 -->
<g id="edge1_Node000001_Node000002" class="edge">
<title>Node1&#45;&gt;Node2</title>
<g id="a_edge1_Node000001_Node000002"><a xlink:title=" ">
<path fill="none" stroke="#63b8ff" d="M372.65,-422.2C361.07,-412.7 347.65,-401.69 337.26,-393.16"/>
<polygon fill="#63b8ff" stroke="#63b8ff" points="370.74,-425.16 380.69,-428.8 375.18,-419.75 370.74,-425.16"/>
</a>
</g>
</g>
<!-- Node14 -->
<g id="Node000014" class="node">
<title>Node14</title>
<g id="a_Node000014"><a xlink:href="__base_8hpp.html" target="_top" xlink:title=" ">
<polygon fill="white" stroke="#666666" points="540,-393 412,-393 412,-363 540,-363 540,-393"/>
<text text-anchor="start" x="420" y="-381" font-family="Helvetica,sans-Serif" font-size="10.00">include/Hermes/Socket</text>
<text text-anchor="middle" x="476" y="-370" font-family="Helvetica,sans-Serif" font-size="10.00">/_base.hpp</text>
</a>
</g>
</g>
<!-- Node1&#45;&gt;Node14 -->
<g id="edge21_Node000001_Node000014" class="edge">
<title>Node1&#45;&gt;Node14</title>
<g id="a_edge21_Node000001_Node000014"><a xlink:title=" ">
<path fill="none" stroke="#63b8ff" d="M423.35,-422.2C434.93,-412.7 448.35,-401.69 458.74,-393.16"/>
<polygon fill="#63b8ff" stroke="#63b8ff" points="420.82,-419.75 415.31,-428.8 425.26,-425.16 420.82,-419.75"/>
</a>
</g>
</g>
<!-- Node3 -->
<g id="Node000003" class="node">
<title>Node3</title>
<g id="a_Node000003"><a xlink:href="_default_socket_data_8hpp.html" target="_top" xlink:title=" ">
<polygon fill="white" stroke="#666666" points="448,-327 276,-327 276,-286 448,-286 448,-327"/>
<text text-anchor="start" x="284" y="-315" font-family="Helvetica,sans-Serif" font-size="10.00">include/Hermes/Socket</text>
<text text-anchor="start" x="284" y="-304" font-family="Helvetica,sans-Serif" font-size="10.00">/Sync/_base/Data/DefaultSocket</text>
<text text-anchor="middle" x="362" y="-293" font-family="Helvetica,sans-Serif" font-size="10.00">Data.hpp</text>
</a>
</g>
</g>
<!-- Node2&#45;&gt;Node3 -->
<g id="edge2_Node000002_Node000003" class="edge">
<title>Node2&#45;&gt;Node3</title>
<g id="a_edge2_Node000002_Node000003"><a xlink:title=" ">
<path fill="none" stroke="#63b8ff" d="M333.71,-354.31C339.03,-345.52 345.05,-335.55 350.17,-327.07"/>
<polygon fill="#63b8ff" stroke="#63b8ff" points="330.68,-352.57 328.5,-362.94 336.67,-356.19 330.68,-352.57"/>
</a>
</g>
</g>
<!-- Node12 -->
<g id="Node000012" class="node">
<title>Node12</title>
<g id="a_Node000012"><a xlink:href="_tls_socket_data_8hpp.html" target="_top" xlink:title=" ">
<polygon fill="white" stroke="#666666" points="432,-244.5 238,-244.5 238,-214.5 432,-214.5 432,-244.5"/>
<text text-anchor="start" x="246" y="-232.5" font-family="Helvetica,sans-Serif" font-size="10.00">include/Hermes/Socket</text>
<text text-anchor="middle" x="335" y="-221.5" font-family="Helvetica,sans-Serif" font-size="10.00">/Sync/_base/Data/TlsSocketData.hpp</text>
</a>
</g>
</g>
<!-- Node2&#45;&gt;Node12 -->
<g id="edge15_Node000002_Node000012" class="edge">
<title>Node2&#45;&gt;Node12</title>
<g id="a_edge15_Node000002_Node000012"><a xlink:title=" ">
<path fill="none" stroke="#63b8ff" d="M268.3,-358.25C254.75,-350.71 241.77,-340.51 234,-327 224.91,-311.21 224.72,-301.68 234,-286 245.66,-266.28 267.1,-253.1 287.23,-244.55"/>
<polygon fill="#63b8ff" stroke="#63b8ff" points="266.74,-361.38 277.23,-362.83 269.93,-355.15 266.74,-361.38"/>
</a>
</g>
</g>
<!-- Node4 -->
<g id="Node000004" class="node">
<title>Node4</title>
<g id="a_Node000004"><a xlink:href="_default_accept_policy_8hpp.html" target="_top" xlink:title=" ">
<polygon fill="white" stroke="#666666" points="182,-250 0,-250 0,-209 182,-209 182,-250"/>
<text text-anchor="start" x="8" y="-238" font-family="Helvetica,sans-Serif" font-size="10.00">include/Hermes/Socket</text>
<text text-anchor="start" x="8" y="-227" font-family="Helvetica,sans-Serif" font-size="10.00">/Sync/_base/Accept/DefaultAccept</text>
<text text-anchor="middle" x="91" y="-216" font-family="Helvetica,sans-Serif" font-size="10.00">Policy.hpp</text>
</a>
</g>
</g>
<!-- Node3&#45;&gt;Node4 -->
<g id="edge3_Node000003_Node000004" class="edge">
<title>Node3&#45;&gt;Node4</title>
<g id="a_edge3_Node000003_Node000004"><a xlink:title=" ">
<path fill="none" stroke="#63b8ff" d="M281.47,-283.21C243.4,-272.68 198.34,-260.21 161.61,-250.04"/>
<polygon fill="#63b8ff" stroke="#63b8ff" points="280.93,-286.7 291.51,-285.99 282.8,-279.95 280.93,-286.7"/>
</a>
</g>
</g>
<!-- Node8 -->
<g id="Node000008" class="node">
<title>Node8</title>
<g id="a_Node000008"><a xlink:href="_default_connect_policy_8hpp.html" target="_top" xlink:title=" ">
<polygon fill="white" stroke="#666666" points="862,-250 718,-250 718,-209 862,-209 862,-250"/>
<text text-anchor="start" x="726" y="-238" font-family="Helvetica,sans-Serif" font-size="10.00">include/Hermes/Socket</text>
<text text-anchor="start" x="726" y="-227" font-family="Helvetica,sans-Serif" font-size="10.00">/Sync/_base/Connection</text>
<text text-anchor="middle" x="790" y="-216" font-family="Helvetica,sans-Serif" font-size="10.00">/DefaultConnectPolicy.hpp</text>
</a>
</g>
</g>
<!-- Node3&#45;&gt;Node8 -->
<g id="edge8_Node000003_Node000008" class="edge">
<title>Node3&#45;&gt;Node8</title>
<g id="a_edge8_Node000003_Node000008"><a xlink:title=" ">
<path fill="none" stroke="#63b8ff" d="M458.03,-288.67C536.77,-274.87 646.51,-255.64 717.9,-243.14"/>
<polygon fill="#63b8ff" stroke="#63b8ff" points="457.34,-285.24 448.1,-290.41 458.55,-292.13 457.34,-285.24"/>
</a>
</g>
</g>
<!-- Node11 -->
<g id="Node000011" class="node">
<title>Node11</title>
<g id="a_Node000011"><a xlink:href="_default_transfer_policy_8hpp.html" target="_top" xlink:title=" ">
<polygon fill="white" stroke="#666666" points="604.5,-173 461.5,-173 461.5,-132 604.5,-132 604.5,-173"/>
<text text-anchor="start" x="469.5" y="-161" font-family="Helvetica,sans-Serif" font-size="10.00">include/Hermes/Socket</text>
<text text-anchor="start" x="469.5" y="-150" font-family="Helvetica,sans-Serif" font-size="10.00">/Sync/_base/Transfer</text>
<text text-anchor="middle" x="533" y="-139" font-family="Helvetica,sans-Serif" font-size="10.00">/DefaultTransferPolicy.hpp</text>
</a>
</g>
</g>
<!-- Node3&#45;&gt;Node11 -->
<g id="edge12_Node000003_Node000011" class="edge">
<title>Node3&#45;&gt;Node11</title>
<g id="a_edge12_Node000003_Node000011"><a xlink:title=" ">
<path fill="none" stroke="#63b8ff" d="M401.39,-280.09C414.41,-271.1 428.7,-260.59 441,-250 469.42,-225.53 498.71,-193.39 516.39,-173.08"/>
<polygon fill="#63b8ff" stroke="#63b8ff" points="399.36,-277.24 393.05,-285.75 403.29,-283.03 399.36,-277.24"/>
</a>
</g>
</g>
<!-- Node5 -->
<g id="Node000005" class="node">
<title>Node5</title>
<g id="a_Node000005"><a xlink:href="_server_socket_8hpp.html" target="_top" xlink:title=" ">
<polygon fill="white" stroke="#666666" points="359.5,-96 228.5,-96 228.5,-66 359.5,-66 359.5,-96"/>
<text text-anchor="start" x="236.5" y="-84" font-family="Helvetica,sans-Serif" font-size="10.00">include/Hermes/Socket</text>
<text text-anchor="middle" x="294" y="-73" font-family="Helvetica,sans-Serif" font-size="10.00">/Sync/ServerSocket.hpp</text>
</a>
</g>
</g>
<!-- Node4&#45;&gt;Node5 -->
<g id="edge4_Node000004_Node000005" class="edge">
<title>Node4&#45;&gt;Node5</title>
<g id="a_edge4_Node000004_Node000005"><a xlink:title=" ">
<path fill="none" stroke="#63b8ff" d="M92.96,-198.51C95.92,-177.23 103.21,-149.44 121,-132 149.36,-104.21 192.15,-91.68 228.09,-86.12"/>
<polygon fill="#63b8ff" stroke="#63b8ff" points="89.46,-198.33 91.8,-208.66 96.42,-199.13 89.46,-198.33"/>
</a>
</g>
</g>
<!-- Node7 -->
<g id="Node000007" class="node">
<title>Node7</title>
<g id="a_Node000007"><a xlink:href="_tls_accept_policy_8hpp.html" target="_top" xlink:title=" ">
<polygon fill="white" stroke="#666666" points="291.5,-173 130.5,-173 130.5,-132 291.5,-132 291.5,-173"/>
<text text-anchor="start" x="138.5" y="-161" font-family="Helvetica,sans-Serif" font-size="10.00">include/Hermes/Socket</text>
<text text-anchor="start" x="138.5" y="-150" font-family="Helvetica,sans-Serif" font-size="10.00">/Sync/_base/Accept/TlsAccept</text>
<text text-anchor="middle" x="211" y="-139" font-family="Helvetica,sans-Serif" font-size="10.00">Policy.hpp</text>
</a>
</g>
</g>
<!-- Node4&#45;&gt;Node7 -->
<g id="edge6_Node000004_Node000007" class="edge">
<title>Node4&#45;&gt;Node7</title>
<g id="a_edge6_Node000004_Node000007"><a xlink:title=" ">
<path fill="none" stroke="#63b8ff" d="M130.77,-203.64C146.62,-193.74 164.61,-182.5 179.52,-173.17"/>
<polygon fill="#63b8ff" stroke="#63b8ff" points="128.84,-200.72 122.22,-208.99 132.55,-206.66 128.84,-200.72"/>
</a>
</g>
</g>
<!-- Node6 -->
<g id="Node000006" class="node">
<title>Node6</title>
<g id="a_Node000006"><a xlink:href="_listener_socket_8hpp.html" target="_top" xlink:title=" ">
<polygon fill="white" stroke="#666666" points="363,-30 225,-30 225,0 363,0 363,-30"/>
<text text-anchor="start" x="233" y="-18" font-family="Helvetica,sans-Serif" font-size="10.00">include/Hermes/Socket</text>
<text text-anchor="middle" x="294" y="-7" font-family="Helvetica,sans-Serif" font-size="10.00">/Sync/ListenerSocket.hpp</text>
</a>
</g>
</g>
<!-- Node5&#45;&gt;Node6 -->
<g id="edge5_Node000005_Node000006" class="edge">
<title>Node5&#45;&gt;Node6</title>
<g id="a_edge5_Node000005_Node000006"><a xlink:title=" ">
<path fill="none" stroke="#63b8ff" d="M294,-55.54C294,-46.96 294,-37.61 294,-30.16"/>
<polygon fill="#63b8ff" stroke="#63b8ff" points="290.5,-55.8 294,-65.8 297.5,-55.8 290.5,-55.8"/>
</a>
</g>
</g>
<!-- Node7&#45;&gt;Node5 -->
<g id="edge7_Node000007_Node000005" class="edge">
<title>Node7&#45;&gt;Node5</title>
<g id="a_edge7_Node000007_Node000005"><a xlink:title=" ">
<path fill="none" stroke="#63b8ff" d="M242.5,-125.12C254.31,-115.23 267.27,-104.38 277.23,-96.04"/>
<polygon fill="#63b8ff" stroke="#63b8ff" points="239.98,-122.67 234.56,-131.77 244.48,-128.03 239.98,-122.67"/>
</a>
</g>
</g>
<!-- Node9 -->
<g id="Node000009" class="node">
<title>Node9</title>
<g id="a_Node000009"><a xlink:href="_client_socket_8hpp.html" target="_top" xlink:title=" ">
<polygon fill="white" stroke="#666666" points="675,-96 547,-96 547,-66 675,-66 675,-96"/>
<text text-anchor="start" x="555" y="-84" font-family="Helvetica,sans-Serif" font-size="10.00">include/Hermes/Socket</text>
<text text-anchor="middle" x="611" y="-73" font-family="Helvetica,sans-Serif" font-size="10.00">/Sync/ClientSocket.hpp</text>
</a>
</g>
</g>
<!-- Node8&#45;&gt;Node9 -->
<g id="edge9_Node000008_Node000009" class="edge">
<title>Node8&#45;&gt;Node9</title>
<g id="a_edge9_Node000008_Node000009"><a xlink:title=" ">
<path fill="none" stroke="#63b8ff" d="M789.56,-198.78C787.69,-177.63 781.85,-149.9 765,-132 741.78,-107.34 706.3,-94.81 675.25,-88.47"/>
<polygon fill="#63b8ff" stroke="#63b8ff" points="786.08,-199.1 790.2,-208.86 793.06,-198.66 786.08,-199.1"/>
</a>
</g>
</g>
<!-- Node10 -->
<g id="Node000010" class="node">
<title>Node10</title>
<g id="a_Node000010"><a xlink:href="_tls_connect_policy_8hpp.html" target="_top" xlink:title=" ">
<polygon fill="white" stroke="#666666" points="756,-173 624,-173 624,-132 756,-132 756,-173"/>
<text text-anchor="start" x="632" y="-161" font-family="Helvetica,sans-Serif" font-size="10.00">include/Hermes/Socket</text>
<text text-anchor="start" x="632" y="-150" font-family="Helvetica,sans-Serif" font-size="10.00">/Sync/_base/Connection</text>
<text text-anchor="middle" x="690" y="-139" font-family="Helvetica,sans-Serif" font-size="10.00">/TlsConnectPolicy.hpp</text>
</a>
</g>
</g>
<!-- Node8&#45;&gt;Node10 -->
<g id="edge10_Node000008_Node000010" class="edge">
<title>Node8&#45;&gt;Node10</title>
<g id="a_edge10_Node000008_Node000010"><a xlink:title=" ">
<path fill="none" stroke="#63b8ff" d="M755.75,-202.82C742.82,-193.11 728.32,-182.24 716.23,-173.17"/>
<polygon fill="#63b8ff" stroke="#63b8ff" points="753.89,-205.79 763.99,-208.99 758.09,-200.19 753.89,-205.79"/>
</a>
</g>
</g>
<!-- Node10&#45;&gt;Node9 -->
<g id="edge11_Node000010_Node000009" class="edge">
<title>Node10&#45;&gt;Node9</title>
<g id="a_edge11_Node000010_Node000009"><a xlink:title=" ">
<path fill="none" stroke="#63b8ff" d="M660.01,-125.12C648.77,-115.23 636.44,-104.38 626.96,-96.04"/>
<polygon fill="#63b8ff" stroke="#63b8ff" points="657.75,-127.79 667.57,-131.77 662.38,-122.54 657.75,-127.79"/>
</a>
</g>
</g>
<!-- Node11&#45;&gt;Node5 -->
<g id="edge14_Node000011_Node000005" class="edge">
<title>Node11&#45;&gt;Node5</title>
<g id="a_edge14_Node000011_Node000005"><a xlink:title=" ">
<path fill="none" stroke="#63b8ff" d="M455.93,-129.09C418.53,-118.21 374.76,-105.48 342.16,-96"/>
<polygon fill="#63b8ff" stroke="#63b8ff" points="455.21,-132.52 465.79,-131.96 457.16,-125.8 455.21,-132.52"/>
</a>
</g>
</g>
<!-- Node11&#45;&gt;Node9 -->
<g id="edge13_Node000011_Node000009" class="edge">
<title>Node11&#45;&gt;Node9</title>
<g id="a_edge13_Node000011_Node000009"><a xlink:title=" ">
<path fill="none" stroke="#63b8ff" d="M562.93,-124.83C573.94,-115.02 585.97,-104.3 595.24,-96.04"/>
<polygon fill="#63b8ff" stroke="#63b8ff" points="560.28,-122.5 555.14,-131.77 564.94,-127.73 560.28,-122.5"/>
</a>
</g>
</g>
<!-- Node12&#45;&gt;Node7 -->
<g id="edge16_Node000012_Node000007" class="edge">
<title>Node12&#45;&gt;Node7</title>
<g id="a_edge16_Node000012_Node000007"><a xlink:title=" ">
<path fill="none" stroke="#63b8ff" d="M303.12,-209.22C284.85,-198.16 261.96,-184.32 243.58,-173.2"/>
<polygon fill="#63b8ff" stroke="#63b8ff" points="301.31,-212.21 311.68,-214.39 304.93,-206.22 301.31,-212.21"/>
</a>
</g>
</g>
<!-- Node12&#45;&gt;Node10 -->
<g id="edge17_Node000012_Node000010" class="edge">
<title>Node12&#45;&gt;Node10</title>
<g id="a_edge17_Node000012_Node000010"><a xlink:title=" ">
<path fill="none" stroke="#63b8ff" d="M421.42,-212.57C476.66,-202.08 549.74,-187.62 614,-173 617.19,-172.27 620.45,-171.51 623.73,-170.73"/>
<polygon fill="#63b8ff" stroke="#63b8ff" points="420.5,-209.19 411.32,-214.49 421.8,-216.07 420.5,-209.19"/>
</a>
</g>
</g>
<!-- Node13 -->
<g id="Node000013" class="node">
<title>Node13</title>
<g id="a_Node000013"><a xlink:href="_tls_transfer_policy_8hpp.html" target="_top" xlink:title=" ">
<polygon fill="white" stroke="#666666" points="441,-173 313,-173 313,-132 441,-132 441,-173"/>
<text text-anchor="start" x="321" y="-161" font-family="Helvetica,sans-Serif" font-size="10.00">include/Hermes/Socket</text>
<text text-anchor="start" x="321" y="-150" font-family="Helvetica,sans-Serif" font-size="10.00">/Sync/_base/Transfer</text>
<text text-anchor="middle" x="377" y="-139" font-family="Helvetica,sans-Serif" font-size="10.00">/TlsTransferPolicy.hpp</text>
</a>
</g>
</g>
<!-- Node12&#45;&gt;Node13 -->
<g id="edge18_Node000012_Node000013" class="edge">
<title>Node12&#45;&gt;Node13</title>
<g id="a_edge18_Node000012_Node000013"><a xlink:title=" ">
<path fill="none" stroke="#63b8ff" d="M347.88,-205.51C353.66,-195.18 360.42,-183.11 365.97,-173.2"/>
<polygon fill="#63b8ff" stroke="#63b8ff" points="344.73,-203.96 342.9,-214.39 350.84,-207.38 344.73,-203.96"/>
</a>
</g>
</g>
<!-- Node13&#45;&gt;Node5 -->
<g id="edge20_Node000013_Node000005" class="edge">
<title>Node13&#45;&gt;Node5</title>
<g id="a_edge20_Node000013_Node000005"><a xlink:title=" ">
<path fill="none" stroke="#63b8ff" d="M345.5,-125.12C333.69,-115.23 320.73,-104.38 310.77,-96.04"/>
<polygon fill="#63b8ff" stroke="#63b8ff" points="343.52,-128.03 353.44,-131.77 348.02,-122.67 343.52,-128.03"/>
</a>
</g>
</g>
<!-- Node13&#45;&gt;Node9 -->
<g id="edge19_Node000013_Node000009" class="edge">
<title>Node13&#45;&gt;Node9</title>
<g id="a_edge19_Node000013_Node000009"><a xlink:title=" ">
<path fill="none" stroke="#63b8ff" d="M450.96,-129.53C487.8,-118.59 531.27,-105.68 563.59,-96.08"/>
<polygon fill="#63b8ff" stroke="#63b8ff" points="449.84,-126.21 441.25,-132.42 451.83,-132.92 449.84,-126.21"/>
</a>
</g>
</g>
<!-- Node14&#45;&gt;Node3 -->
<g id="edge26_Node000014_Node000003" class="edge">
<title>Node14&#45;&gt;Node3</title>
<g id="a_edge26_Node000014_Node000003"><a xlink:title=" ">
<path fill="none" stroke="#63b8ff" d="M444.15,-357.58C428.53,-348.06 409.76,-336.62 394.11,-327.07"/>
<polygon fill="#63b8ff" stroke="#63b8ff" points="442.57,-360.72 452.93,-362.94 446.21,-354.74 442.57,-360.72"/>
</a>
</g>
</g>
<!-- Node14&#45;&gt;Node4 -->
<g id="edge22_Node000014_Node000004" class="edge">
<title>Node14&#45;&gt;Node4</title>
<g id="a_edge22_Node000014_Node000004"><a xlink:title=" ">
<path fill="none" stroke="#63b8ff" d="M401.82,-362.89C308.94,-347.64 276.91,-366.85 196,-327 158.69,-308.62 125.13,-272.8 106.46,-250.35"/>
<polygon fill="#63b8ff" stroke="#63b8ff" points="401.47,-366.38 411.92,-364.65 402.66,-359.49 401.47,-366.38"/>
</a>
</g>
</g>
<!-- Node14&#45;&gt;Node7 -->
<g id="edge23_Node000014_Node000007" class="edge">
<title>Node14&#45;&gt;Node7</title>
<g id="a_edge23_Node000014_Node000007"><a xlink:title=" ">
<path fill="none" stroke="#63b8ff" d="M401.65,-361.89C340.03,-349.08 261.62,-332.02 256,-327 211.42,-287.22 208.4,-209.52 209.67,-173.15"/>
<polygon fill="#63b8ff" stroke="#63b8ff" points="401.27,-365.38 411.77,-363.98 402.69,-358.53 401.27,-365.38"/>
</a>
</g>
</g>
<!-- Node14&#45;&gt;Node8 -->
<g id="edge24_Node000014_Node000008" class="edge">
<title>Node14&#45;&gt;Node8</title>
<g id="a_edge24_Node000014_Node000008"><a xlink:title=" ">
<path fill="none" stroke="#63b8ff" d="M550.14,-372.43C596.93,-366.82 657.16,-354.41 704,-327 736.54,-307.96 763.41,-272.35 778.04,-250.12"/>
<polygon fill="#63b8ff" stroke="#63b8ff" points="549.61,-368.97 540.06,-373.56 550.39,-375.92 549.61,-368.97"/>
</a>
</g>
</g>
<!-- Node14&#45;&gt;Node10 -->
<g id="edge25_Node000014_Node000010" class="edge">
<title>Node14&#45;&gt;Node10</title>
<g id="a_edge25_Node000014_Node000010"><a xlink:title=" ">
<path fill="none" stroke="#63b8ff" d="M550.41,-373.12C585.79,-367.42 625.95,-354.69 652,-327 692.35,-284.1 693.64,-208.64 691.7,-173.08"/>
<polygon fill="#63b8ff" stroke="#63b8ff" points="549.48,-369.72 540.09,-374.61 550.48,-376.65 549.48,-369.72"/>
</a>
</g>
</g>
<!-- Node14&#45;&gt;Node11 -->
<g id="edge28_Node000014_Node000011" class="edge">
<title>Node14&#45;&gt;Node11</title>
<g id="a_edge28_Node000014_Node000011"><a xlink:title=" ">
<path fill="none" stroke="#63b8ff" d="M550.18,-372.09C580.96,-365.95 613.88,-353.15 633,-327 671.37,-274.51 600.32,-206.13 559.24,-173.08"/>
<polygon fill="#63b8ff" stroke="#63b8ff" points="549.51,-368.66 540.28,-373.86 550.74,-375.55 549.51,-368.66"/>
</a>
</g>
</g>
<!-- Node14&#45;&gt;Node12 -->
<g id="edge27_Node000014_Node000012" class="edge">
<title>Node14&#45;&gt;Node12</title>
<g id="a_edge27_Node000014_Node000012"><a xlink:title=" ">
<path fill="none" stroke="#63b8ff" d="M401.85,-361.52C343.53,-348.99 271.37,-332.54 267,-327 255.71,-312.69 259.19,-302.46 267,-286 275.49,-268.1 292.9,-254.07 307.97,-244.59"/>
<polygon fill="#63b8ff" stroke="#63b8ff" points="401.31,-364.98 411.82,-363.65 402.77,-358.14 401.31,-364.98"/>
</a>
</g>
</g>
<!-- Node14&#45;&gt;Node13 -->
<g id="edge29_Node000014_Node000013" class="edge">
<title>Node14&#45;&gt;Node13</title>
<g id="a_edge29_Node000014_Node000013"><a xlink:title=" ">
<path fill="none" stroke="#63b8ff" d="M475.73,-352.84C474.33,-318.56 467.95,-254.9 441,-209 432.73,-194.92 419.6,-182.62 407.38,-173.2"/>
<polygon fill="#63b8ff" stroke="#63b8ff" points="472.23,-352.98 476.02,-362.87 479.23,-352.77 472.23,-352.98"/>
</a>
</g>
</g>
<!-- Node15 -->
<g id="Node000015" class="node">
<title>Node15</title>
<g id="a_Node000015"><a xlink:href="_to_bytes_8hpp.html" target="_top" xlink:title=" ">
<polygon fill="white" stroke="#666666" points="623.5,-321.5 504.5,-321.5 504.5,-291.5 623.5,-291.5 623.5,-321.5"/>
<text text-anchor="start" x="512.5" y="-309.5" font-family="Helvetica,sans-Serif" font-size="10.00">include/Hermes/Utils</text>
<text text-anchor="middle" x="564" y="-298.5" font-family="Helvetica,sans-Serif" font-size="10.00">/ToBytes.hpp</text>
</a>
</g>
</g>
<!-- Node14&#45;&gt;Node15 -->
<g id="edge30_Node000014_Node000015" class="edge">
<title>Node14&#45;&gt;Node15</title>
<g id="a_edge30_Node000014_Node000015"><a xlink:title=" ">
<path fill="none" stroke="#63b8ff" d="M501.8,-356.63C516.08,-345.35 533.46,-331.62 546.22,-321.54"/>
<polygon fill="#63b8ff" stroke="#63b8ff" points="499.49,-353.99 493.81,-362.94 503.83,-359.48 499.49,-353.99"/>
</a>
</g>
</g>
</g>
</svg>
