<?xml version="1.0" encoding="UTF-8" standalone="no"?>
<!DOCTYPE svg PUBLIC "-//W3C//DTD SVG 1.1//EN"
 "http://www.w3.org/Graphics/SVG/1.1/DTD/svg11.dtd">
<!-- Generated by graphviz version 2.43.0 (0)
 -->
<!-- Title: include/Hermes/Endpoint/_base/EndpointConcept.hpp Pages: 1 -->
<svg width="1694pt" height="555pt"
 viewBox="0.00 0.00 1694.00 555.00" xmlns="http://www.w3.org/2000/svg" xmlns:xlink="http://www.w3.org/1999/xlink">
<g id="graph0" class="graph" transform="scale(1 1) rotate(0) translate(4 551)">
<title>include/Hermes/Endpoint/_base/EndpointConcept.hpp</title>
<!-- Node1 -->
<g id="Node000001" class="node">
<title>Node1</title>
<g id="a_Node000001"><a xlink:title=" ">
<polygon fill="#999999" stroke="#666666" points="740,-547 585,-547 585,-517 740,-517 740,-547"/>
<text text-anchor="start" x="593" y="-535" font-family="Helvetica,sans-Serif" font-size="10.00">include/Hermes/Endpoint</text>
<text text-anchor="middle" x="662.5" y="-524" font-family="Helvetica,sans-Serif" font-size="10.00">/_base/EndpointConcept.hpp</text>
</a>
</g>
</g>
<!-- Node2 -->
<g id="Node000002" class="node">
<title>Node2</title>
<g id="a_Node000002"><a xlink:href="_ip_endpoint_8hpp.html" target="_top" xlink:title=" ">
<polygon fill="white" stroke="#666666" points="585,-481 438,-481 438,-451 585,-451 585,-481"/>
<text text-anchor="start" x="446" y="-469" font-family="Helvetica,sans-Serif" font-size="10.00">include/Hermes/Endpoint</text>
<text text-anchor="middle" x="511.5" y="-458" font-family="Helvetica,sans-Serif" font-size="10.00">/IpEndpoint/IpEndpoint.hpp</text>
</a>
</g>
</g>
<!-- Node1&#45;&gt;Node2 -->
<g id="edge1_Node000001_Node000002" class="edge">
<title>Node1&#45;&gt;Node2</title>
<g id="a_edge1_Node000001_Node000002"><a xlink:title=" ">
<path fill="none" stroke="#63b8ff" d="M619.84,-512.92C595.97,-502.8 566.67,-490.38 544.56,-481.01"/>
<polygon fill="#63b8ff" stroke="#63b8ff" points="618.79,-516.28 629.36,-516.95 621.52,-509.83 618.79,-516.28"/>
</a>
</g>
</g>
<!-- Node25 -->
<g id="Node000025" class="node">
<title>Node25</title>
<g id="a_Node000025"><a xlink:href="__base_8hpp.html" target="_top" xlink:title=" ">
<polygon fill="white" stroke="#666666" points="921.5,-481 793.5,-481 793.5,-451 921.5,-451 921.5,-481"/>
<text text-anchor="start" x="801.5" y="-469" font-family="Helvetica,sans-Serif" font-size="10.00">include/Hermes/Socket</text>
<text text-anchor="middle" x="857.5" y="-458" font-family="Helvetica,sans-Serif" font-size="10.00">/_base.hpp</text>
</a>
</g>
</g>
<!-- Node1&#45;&gt;Node25 -->
<g id="edge46_Node000001_Node000025" class="edge">
<title>Node1&#45;&gt;Node25</title>
<g id="a_edge46_Node000001_Node000025"><a xlink:title=" ">
<path fill="none" stroke="#63b8ff" d="M715.14,-513.72C746.39,-503.47 785.49,-490.63 814.81,-481.01"/>
<polygon fill="#63b8ff" stroke="#63b8ff" points="713.7,-510.51 705.29,-516.95 715.89,-517.16 713.7,-510.51"/>
</a>
</g>
</g>
<!-- Node3 -->
<g id="Node000003" class="node">
<title>Node3</title>
<g id="a_Node000003"><a xlink:href="_default_socket_data_8hpp.html" target="_top" xlink:title=" ">
<polygon fill="white" stroke="#666666" points="697.5,-409.5 539.5,-409.5 539.5,-379.5 697.5,-379.5 697.5,-409.5"/>
<text text-anchor="start" x="547.5" y="-397.5" font-family="Helvetica,sans-Serif" font-size="10.00">include/Hermes/Socket</text>
<text text-anchor="middle" x="618.5" y="-386.5" font-family="Helvetica,sans-Serif" font-size="10.00">/Data/DefaultSocketData.hpp</text>
</a>
</g>
</g>
<!-- Node2&#45;&gt;Node3 -->
<g id="edge2_Node000002_Node000003" class="edge">
<title>Node2&#45;&gt;Node3</title>
<g id="a_edge2_Node000002_Node000003"><a xlink:title=" ">
<path fill="none" stroke="#63b8ff" d="M541.9,-445.25C559.44,-433.86 581.08,-419.81 596.88,-409.54"/>
<polygon fill="#63b8ff" stroke="#63b8ff" points="539.63,-442.55 533.15,-450.94 543.45,-448.42 539.63,-442.55"/>
</a>
</g>
</g>
<!-- Node17 -->
<g id="Node000017" class="node">
<title>Node17</title>
<g id="a_Node000017"><a xlink:href="_default_connect_policy_8hpp.html" target="_top" xlink:title=" ">
<polygon fill="white" stroke="#666666" points="309.5,-338 165.5,-338 165.5,-297 309.5,-297 309.5,-338"/>
<text text-anchor="start" x="173.5" y="-326" font-family="Helvetica,sans-Serif" font-size="10.00">include/Hermes/Socket</text>
<text text-anchor="start" x="173.5" y="-315" font-family="Helvetica,sans-Serif" font-size="10.00">/Sync/_base/Connection</text>
<text text-anchor="middle" x="237.5" y="-304" font-family="Helvetica,sans-Serif" font-size="10.00">/DefaultConnectPolicy.hpp</text>
</a>
</g>
</g>
<!-- Node2&#45;&gt;Node17 -->
<g id="edge44_Node000002_Node000017" class="edge">
<title>Node2&#45;&gt;Node17</title>
<g id="a_edge44_Node000002_Node000017"><a xlink:title=" ">
<path fill="none" stroke="#63b8ff" d="M427.84,-463.4C345.6,-459.85 228.33,-448.81 199.5,-415 180.34,-392.53 201.33,-359.24 218.88,-338.22"/>
<polygon fill="#63b8ff" stroke="#63b8ff" points="427.81,-466.91 437.94,-463.81 428.09,-459.91 427.81,-466.91"/>
</a>
</g>
</g>
<!-- Node19 -->
<g id="Node000019" class="node">
<title>Node19</title>
<g id="a_Node000019"><a xlink:href="_tls_connect_policy_8hpp.html" target="_top" xlink:title=" ">
<polygon fill="white" stroke="#666666" points="309.5,-261 177.5,-261 177.5,-220 309.5,-220 309.5,-261"/>
<text text-anchor="start" x="185.5" y="-249" font-family="Helvetica,sans-Serif" font-size="10.00">include/Hermes/Socket</text>
<text text-anchor="start" x="185.5" y="-238" font-family="Helvetica,sans-Serif" font-size="10.00">/Sync/_base/Connection</text>
<text text-anchor="middle" x="243.5" y="-227" font-family="Helvetica,sans-Serif" font-size="10.00">/TlsConnectPolicy.hpp</text>
</a>
</g>
</g>
<!-- Node2&#45;&gt;Node19 -->
<g id="edge45_Node000002_Node000019" class="edge">
<title>Node2&#45;&gt;Node19</title>
<g id="a_edge45_Node000002_Node000019"><a xlink:title=" ">
<path fill="none" stroke="#63b8ff" d="M427.42,-459.99C319.37,-452.67 143.24,-437.45 123.5,-415 88.87,-375.62 95.25,-341.19 123.5,-297 135.74,-277.85 156.46,-265.22 177.27,-256.92"/>
<polygon fill="#63b8ff" stroke="#63b8ff" points="427.45,-463.5 437.66,-460.67 427.91,-456.51 427.45,-463.5"/>
</a>
</g>
</g>
<!-- Node22 -->
<g id="Node000022" class="node">
<title>Node22</title>
<g id="a_Node000022"><a xlink:href="_tls_socket_data_8hpp.html" target="_top" xlink:title=" ">
<polygon fill="white" stroke="#666666" points="758,-332.5 621,-332.5 621,-302.5 758,-302.5 758,-332.5"/>
<text text-anchor="start" x="629" y="-320.5" font-family="Helvetica,sans-Serif" font-size="10.00">include/Hermes/Socket</text>
<text text-anchor="middle" x="689.5" y="-309.5" font-family="Helvetica,sans-Serif" font-size="10.00">/Data/TlsSocketData.hpp</text>
</a>
</g>
</g>
<!-- Node2&#45;&gt;Node22 -->
<g id="edge33_Node000002_Node000022" class="edge">
<title>Node2&#45;&gt;Node22</title>
<g id="a_edge33_Node000002_Node000022"><a xlink:title=" ">
<path fill="none" stroke="#63b8ff" d="M510.36,-440.55C510.74,-420.38 514.51,-392.22 530.5,-374 553.36,-347.96 589.12,-334.14 620.95,-326.8"/>
<polygon fill="#63b8ff" stroke="#63b8ff" points="506.86,-440.84 510.44,-450.82 513.86,-440.79 506.86,-440.84"/>
</a>
</g>
</g>
<!-- Node4 -->
<g id="Node000004" class="node">
<title>Node4</title>
<g id="a_Node000004"><a xlink:href="_default_async_accept_policy_8hpp.html" target="_top" xlink:title=" ">
<polygon fill="white" stroke="#666666" points="1444,-261 1289,-261 1289,-220 1444,-220 1444,-261"/>
<text text-anchor="start" x="1297" y="-249" font-family="Helvetica,sans-Serif" font-size="10.00">include/Hermes/Socket</text>
<text text-anchor="start" x="1297" y="-238" font-family="Helvetica,sans-Serif" font-size="10.00">/Async/_base/Accept/Default</text>
<text text-anchor="middle" x="1366.5" y="-227" font-family="Helvetica,sans-Serif" font-size="10.00">AsyncAcceptPolicy.hpp</text>
</a>
</g>
</g>
<!-- Node3&#45;&gt;Node4 -->
<g id="edge3_Node000003_Node000004" class="edge">
<title>Node3&#45;&gt;Node4</title>
<g id="a_edge3_Node000003_Node000004"><a xlink:title=" ">
<path fill="none" stroke="#63b8ff" d="M707.93,-378.82C720.2,-377.05 732.65,-375.39 744.5,-374 944.66,-350.57 1003.85,-397.15 1196.5,-338 1225.13,-329.21 1295.09,-286.67 1335.78,-261.1"/>
<polygon fill="#63b8ff" stroke="#63b8ff" points="707.08,-375.41 697.69,-380.33 708.09,-382.34 707.08,-375.41"/>
</a>
</g>
</g>
<!-- Node8 -->
<g id="Node000008" class="node">
<title>Node8</title>
<g id="a_Node000008"><a xlink:href="_default_async_connect_policy_8hpp.html" target="_top" xlink:title=" ">
<polygon fill="white" stroke="#666666" points="173,-184 0,-184 0,-143 173,-143 173,-184"/>
<text text-anchor="start" x="8" y="-172" font-family="Helvetica,sans-Serif" font-size="10.00">include/Hermes/Socket</text>
<text text-anchor="start" x="8" y="-161" font-family="Helvetica,sans-Serif" font-size="10.00">/Async/_base/Connection</text>
<text text-anchor="middle" x="86.5" y="-150" font-family="Helvetica,sans-Serif" font-size="10.00">/DefaultAsyncConnectPolicy.hpp</text>
</a>
</g>
</g>
<!-- Node3&#45;&gt;Node8 -->
<g id="edge8_Node000003_Node000008" class="edge">
<title>Node3&#45;&gt;Node8</title>
<g id="a_edge8_Node000003_Node000008"><a xlink:title=" ">
<path fill="none" stroke="#63b8ff" d="M568.55,-376.15C509.29,-355.87 407.33,-321.91 318.5,-297 252.49,-278.49 226.91,-296.89 168.5,-261 137.03,-241.66 111.55,-206.15 97.75,-184.01"/>
<polygon fill="#63b8ff" stroke="#63b8ff" points="567.44,-379.47 578.04,-379.41 569.71,-372.85 567.44,-379.47"/>
</a>
</g>
</g>
<!-- Node11 -->
<g id="Node000011" class="node">
<title>Node11</title>
<g id="a_Node000011"><a xlink:href="_default_async_transfer_policy_8hpp.html" target="_top" xlink:title=" ">
<polygon fill="white" stroke="#666666" points="949,-338 776,-338 776,-297 949,-297 949,-338"/>
<text text-anchor="start" x="784" y="-326" font-family="Helvetica,sans-Serif" font-size="10.00">include/Hermes/Socket</text>
<text text-anchor="start" x="784" y="-315" font-family="Helvetica,sans-Serif" font-size="10.00">/Async/_base/Transfer</text>
<text text-anchor="middle" x="862.5" y="-304" font-family="Helvetica,sans-Serif" font-size="10.00">/DefaultAsyncTransferPolicy.hpp</text>
</a>
</g>
</g>
<!-- Node3&#45;&gt;Node11 -->
<g id="edge12_Node000003_Node000011" class="edge">
<title>Node3&#45;&gt;Node11</title>
<g id="a_edge12_Node000003_Node000011"><a xlink:title=" ">
<path fill="none" stroke="#63b8ff" d="M673.76,-376.51C710.89,-365.1 759.92,-350.03 798.71,-338.11"/>
<polygon fill="#63b8ff" stroke="#63b8ff" points="672.64,-373.2 664.11,-379.48 674.7,-379.89 672.64,-373.2"/>
</a>
</g>
</g>
<!-- Node12 -->
<g id="Node000012" class="node">
<title>Node12</title>
<g id="a_Node000012"><a xlink:href="_default_accept_policy_8hpp.html" target="_top" xlink:title=" ">
<polygon fill="white" stroke="#666666" points="1187.5,-338 1005.5,-338 1005.5,-297 1187.5,-297 1187.5,-338"/>
<text text-anchor="start" x="1013.5" y="-326" font-family="Helvetica,sans-Serif" font-size="10.00">include/Hermes/Socket</text>
<text text-anchor="start" x="1013.5" y="-315" font-family="Helvetica,sans-Serif" font-size="10.00">/Sync/_base/Accept/DefaultAccept</text>
<text text-anchor="middle" x="1096.5" y="-304" font-family="Helvetica,sans-Serif" font-size="10.00">Policy.hpp</text>
</a>
</g>
</g>
<!-- Node3&#45;&gt;Node12 -->
<g id="edge15_Node000003_Node000012" class="edge">
<title>Node3&#45;&gt;Node12</title>
<g id="a_edge15_Node000003_Node000012"><a xlink:title=" ">
<path fill="none" stroke="#63b8ff" d="M707.58,-379.52C792.48,-366.2 919.71,-346.24 1005.3,-332.81"/>
<polygon fill="#63b8ff" stroke="#63b8ff" points="707.04,-376.07 697.7,-381.07 708.12,-382.98 707.04,-376.07"/>
</a>
</g>
</g>
<!-- Node3&#45;&gt;Node17 -->
<g id="edge23_Node000003_Node000017" class="edge">
<title>Node3&#45;&gt;Node17</title>
<g id="a_edge23_Node000003_Node000017"><a xlink:title=" ">
<path fill="none" stroke="#63b8ff" d="M537.11,-377.48C469.59,-364.19 374.49,-345.47 309.66,-332.7"/>
<polygon fill="#63b8ff" stroke="#63b8ff" points="536.8,-380.98 547.28,-379.48 538.15,-374.12 536.8,-380.98"/>
</a>
</g>
</g>
<!-- Node21 -->
<g id="Node000021" class="node">
<title>Node21</title>
<g id="a_Node000021"><a xlink:href="_default_transfer_policy_8hpp.html" target="_top" xlink:title=" ">
<polygon fill="white" stroke="#666666" points="585,-261 442,-261 442,-220 585,-220 585,-261"/>
<text text-anchor="start" x="450" y="-249" font-family="Helvetica,sans-Serif" font-size="10.00">include/Hermes/Socket</text>
<text text-anchor="start" x="450" y="-238" font-family="Helvetica,sans-Serif" font-size="10.00">/Sync/_base/Transfer</text>
<text text-anchor="middle" x="513.5" y="-227" font-family="Helvetica,sans-Serif" font-size="10.00">/DefaultTransferPolicy.hpp</text>
</a>
</g>
</g>
<!-- Node3&#45;&gt;Node21 -->
<g id="edge30_Node000003_Node000021" class="edge">
<title>Node3&#45;&gt;Node21</title>
<g id="a_edge30_Node000003_Node000021"><a xlink:title=" ">
<path fill="none" stroke="#63b8ff" d="M602.17,-371.18C594.85,-361.1 586.17,-349 578.5,-338 560.14,-311.65 539.51,-280.81 526.52,-261.22"/>
<polygon fill="#63b8ff" stroke="#63b8ff" points="599.47,-373.42 608.18,-379.45 605.13,-369.3 599.47,-373.42"/>
</a>
</g>
</g>
<!-- Node5 -->
<g id="Node000005" class="node">
<title>Node5</title>
<g id="a_Node000005"><a xlink:href="_async_server_socket_8hpp.html" target="_top" xlink:title=" ">
<polygon fill="white" stroke="#666666" points="1237.5,-101.5 1071.5,-101.5 1071.5,-71.5 1237.5,-71.5 1237.5,-101.5"/>
<text text-anchor="start" x="1079.5" y="-89.5" font-family="Helvetica,sans-Serif" font-size="10.00">include/Hermes/Socket</text>
<text text-anchor="middle" x="1154.5" y="-78.5" font-family="Helvetica,sans-Serif" font-size="10.00">/Async/AsyncServerSocket.hpp</text>
</a>
</g>
</g>
<!-- Node4&#45;&gt;Node5 -->
<g id="edge4_Node000004_Node000005" class="edge">
<title>Node4&#45;&gt;Node5</title>
<g id="a_edge4_Node000004_Node000005"><a xlink:title=" ">
<path fill="none" stroke="#63b8ff" d="M1429.4,-214.69C1441.82,-206.79 1453.25,-196.7 1460.5,-184 1469.53,-168.17 1472.18,-156.99 1460.5,-143 1432.6,-109.59 1318.44,-96.25 1237.76,-90.95"/>
<polygon fill="#63b8ff" stroke="#63b8ff" points="1427.53,-211.73 1420.68,-219.81 1431.08,-217.76 1427.53,-211.73"/>
</a>
</g>
</g>
<!-- Node7 -->
<g id="Node000007" class="node">
<title>Node7</title>
<g id="a_Node000007"><a xlink:href="_tls_async_accept_policy_8hpp.html" target="_top" xlink:title=" ">
<polygon fill="white" stroke="#666666" points="1273,-184 1110,-184 1110,-143 1273,-143 1273,-184"/>
<text text-anchor="start" x="1118" y="-172" font-family="Helvetica,sans-Serif" font-size="10.00">include/Hermes/Socket</text>
<text text-anchor="start" x="1118" y="-161" font-family="Helvetica,sans-Serif" font-size="10.00">/Async/_base/Accept/TlsAsync</text>
<text text-anchor="middle" x="1191.5" y="-150" font-family="Helvetica,sans-Serif" font-size="10.00">AcceptPolicy.hpp</text>
</a>
</g>
</g>
<!-- Node4&#45;&gt;Node7 -->
<g id="edge6_Node000004_Node000007" class="edge">
<title>Node4&#45;&gt;Node7</title>
<g id="a_edge6_Node000004_Node000007"><a xlink:title=" ">
<path fill="none" stroke="#63b8ff" d="M1311.66,-216C1287.69,-205.72 1259.91,-193.82 1237.1,-184.04"/>
<polygon fill="#63b8ff" stroke="#63b8ff" points="1310.41,-219.27 1320.98,-219.99 1313.16,-212.83 1310.41,-219.27"/>
</a>
</g>
</g>
<!-- Node6 -->
<g id="Node000006" class="node">
<title>Node6</title>
<g id="a_Node000006"><a xlink:href="_async_listener_socket_8hpp.html" target="_top" xlink:title=" ">
<polygon fill="white" stroke="#666666" points="1241,-30 1068,-30 1068,0 1241,0 1241,-30"/>
<text text-anchor="start" x="1076" y="-18" font-family="Helvetica,sans-Serif" font-size="10.00">include/Hermes/Socket</text>
<text text-anchor="middle" x="1154.5" y="-7" font-family="Helvetica,sans-Serif" font-size="10.00">/Async/AsyncListenerSocket.hpp</text>
</a>
</g>
</g>
<!-- Node5&#45;&gt;Node6 -->
<g id="edge5_Node000005_Node000006" class="edge">
<title>Node5&#45;&gt;Node6</title>
<g id="a_edge5_Node000005_Node000006"><a xlink:title=" ">
<path fill="none" stroke="#63b8ff" d="M1154.5,-61.25C1154.5,-50.81 1154.5,-38.99 1154.5,-30.04"/>
<polygon fill="#63b8ff" stroke="#63b8ff" points="1151,-61.44 1154.5,-71.44 1158,-61.44 1151,-61.44"/>
</a>
</g>
</g>
<!-- Node7&#45;&gt;Node5 -->
<g id="edge7_Node000007_Node000005" class="edge">
<title>Node7&#45;&gt;Node5</title>
<g id="a_edge7_Node000007_Node000005"><a xlink:title=" ">
<path fill="none" stroke="#63b8ff" d="M1177.24,-133.6C1171.88,-122.73 1166.02,-110.84 1161.58,-101.86"/>
<polygon fill="#63b8ff" stroke="#63b8ff" points="1174.22,-135.38 1181.78,-142.79 1180.49,-132.28 1174.22,-135.38"/>
</a>
</g>
</g>
<!-- Node9 -->
<g id="Node000009" class="node">
<title>Node9</title>
<g id="a_Node000009"><a xlink:href="_async_client_socket_8hpp.html" target="_top" xlink:title=" ">
<polygon fill="white" stroke="#666666" points="691,-30 528,-30 528,0 691,0 691,-30"/>
<text text-anchor="start" x="536" y="-18" font-family="Helvetica,sans-Serif" font-size="10.00">include/Hermes/Socket</text>
<text text-anchor="middle" x="609.5" y="-7" font-family="Helvetica,sans-Serif" font-size="10.00">/Async/AsyncClientSocket.hpp</text>
</a>
</g>
</g>
<!-- Node8&#45;&gt;Node9 -->
<g id="edge9_Node000008_Node000009" class="edge">
<title>Node8&#45;&gt;Node9</title>
<g id="a_edge9_Node000008_Node000009"><a xlink:title=" ">
<path fill="none" stroke="#63b8ff" d="M139.21,-138.82C189.14,-117.2 266.67,-85.69 336.5,-66 399.8,-48.16 473.22,-35.12 527.96,-26.85"/>
<polygon fill="#63b8ff" stroke="#63b8ff" points="137.68,-135.67 129.91,-142.87 140.48,-142.09 137.68,-135.67"/>
</a>
</g>
</g>
<!-- Node10 -->
<g id="Node000010" class="node">
<title>Node10</title>
<g id="a_Node000010"><a xlink:href="_tls_async_connect_policy_8hpp.html" target="_top" xlink:title=" ">
<polygon fill="white" stroke="#666666" points="497.5,-107 345.5,-107 345.5,-66 497.5,-66 497.5,-107"/>
<text text-anchor="start" x="353.5" y="-95" font-family="Helvetica,sans-Serif" font-size="10.00">include/Hermes/Socket</text>
<text text-anchor="start" x="353.5" y="-84" font-family="Helvetica,sans-Serif" font-size="10.00">/Async/_base/Connection</text>
<text text-anchor="middle" x="421.5" y="-73" font-family="Helvetica,sans-Serif" font-size="10.00">/TlsAsyncConnectPolicy.hpp</text>
</a>
</g>
</g>
<!-- Node8&#45;&gt;Node10 -->
<g id="edge10_Node000008_Node000010" class="edge">
<title>Node8&#45;&gt;Node10</title>
<g id="a_edge10_Node000008_Node000010"><a xlink:title=" ">
<path fill="none" stroke="#63b8ff" d="M183.04,-140.89C234.65,-129.33 297.29,-115.31 345.42,-104.53"/>
<polygon fill="#63b8ff" stroke="#63b8ff" points="182.2,-137.49 173.21,-143.09 183.73,-144.32 182.2,-137.49"/>
</a>
</g>
</g>
<!-- Node10&#45;&gt;Node9 -->
<g id="edge11_Node000010_Node000009" class="edge">
<title>Node10&#45;&gt;Node9</title>
<g id="a_edge11_Node000010_Node000009"><a xlink:title=" ">
<path fill="none" stroke="#63b8ff" d="M484.01,-62.39C513.01,-51.67 546.52,-39.28 571.62,-30"/>
<polygon fill="#63b8ff" stroke="#63b8ff" points="482.53,-59.21 474.37,-65.96 484.96,-65.77 482.53,-59.21"/>
</a>
</g>
</g>
<!-- Node11&#45;&gt;Node5 -->
<g id="edge14_Node000011_Node000005" class="edge">
<title>Node11&#45;&gt;Node5</title>
<g id="a_edge14_Node000011_Node000005"><a xlink:title=" ">
<path fill="none" stroke="#63b8ff" d="M926.47,-293.04C946.24,-284.4 967.53,-273.59 985.5,-261 986.07,-260.6 1100.51,-143 1140.72,-101.66"/>
<polygon fill="#63b8ff" stroke="#63b8ff" points="925.04,-289.85 917.21,-296.98 927.78,-296.29 925.04,-289.85"/>
</a>
</g>
</g>
<!-- Node11&#45;&gt;Node9 -->
<g id="edge13_Node000011_Node000009" class="edge">
<title>Node11&#45;&gt;Node9</title>
<g id="a_edge13_Node000011_Node000009"><a xlink:title=" ">
<path fill="none" stroke="#63b8ff" d="M839.3,-288.95C786.93,-226.74 660.99,-77.16 621.53,-30.29"/>
<polygon fill="#63b8ff" stroke="#63b8ff" points="836.78,-291.39 845.9,-296.78 842.14,-286.88 836.78,-291.39"/>
</a>
</g>
</g>
<!-- Node12&#45;&gt;Node4 -->
<g id="edge16_Node000012_Node000004" class="edge">
<title>Node12&#45;&gt;Node4</title>
<g id="a_edge16_Node000012_Node000004"><a xlink:title=" ">
<path fill="none" stroke="#63b8ff" d="M1176.73,-294.21C1214.67,-283.68 1259.56,-271.21 1296.15,-261.04"/>
<polygon fill="#63b8ff" stroke="#63b8ff" points="1175.43,-290.94 1166.73,-296.99 1177.31,-297.69 1175.43,-290.94"/>
</a>
</g>
</g>
<!-- Node13 -->
<g id="Node000013" class="node">
<title>Node13</title>
<g id="a_Node000013"><a xlink:href="_server_socket_8hpp.html" target="_top" xlink:title=" ">
<polygon fill="white" stroke="#666666" points="1010,-178.5 879,-178.5 879,-148.5 1010,-148.5 1010,-178.5"/>
<text text-anchor="start" x="887" y="-166.5" font-family="Helvetica,sans-Serif" font-size="10.00">include/Hermes/Socket</text>
<text text-anchor="middle" x="944.5" y="-155.5" font-family="Helvetica,sans-Serif" font-size="10.00">/Sync/ServerSocket.hpp</text>
</a>
</g>
</g>
<!-- Node12&#45;&gt;Node13 -->
<g id="edge17_Node000012_Node000013" class="edge">
<title>Node12&#45;&gt;Node13</title>
<g id="a_edge17_Node000012_Node000013"><a xlink:title=" ">
<path fill="none" stroke="#63b8ff" d="M1069.56,-289.56C1037.1,-257.1 983.79,-203.79 958.57,-178.57"/>
<polygon fill="#63b8ff" stroke="#63b8ff" points="1067.39,-292.34 1076.94,-296.94 1072.34,-287.39 1067.39,-292.34"/>
</a>
</g>
</g>
<!-- Node15 -->
<g id="Node000015" class="node">
<title>Node15</title>
<g id="a_Node000015"><a xlink:href="_tls_accept_policy_8hpp.html" target="_top" xlink:title=" ">
<polygon fill="white" stroke="#666666" points="1271,-261 1110,-261 1110,-220 1271,-220 1271,-261"/>
<text text-anchor="start" x="1118" y="-249" font-family="Helvetica,sans-Serif" font-size="10.00">include/Hermes/Socket</text>
<text text-anchor="start" x="1118" y="-238" font-family="Helvetica,sans-Serif" font-size="10.00">/Sync/_base/Accept/TlsAccept</text>
<text text-anchor="middle" x="1190.5" y="-227" font-family="Helvetica,sans-Serif" font-size="10.00">Policy.hpp</text>
</a>
</g>
</g>
<!-- Node12&#45;&gt;Node15 -->
<g id="edge19_Node000012_Node000015" class="edge">
<title>Node12&#45;&gt;Node15</title>
<g id="a_edge19_Node000012_Node000015"><a xlink:title=" ">
<path fill="none" stroke="#63b8ff" d="M1129.28,-290.35C1141.33,-280.73 1154.76,-270.01 1165.97,-261.07"/>
<polygon fill="#63b8ff" stroke="#63b8ff" points="1126.83,-287.82 1121.2,-296.79 1131.2,-293.29 1126.83,-287.82"/>
</a>
</g>
</g>
<!-- Node14 -->
<g id="Node000014" class="node">
<title>Node14</title>
<g id="a_Node000014"><a xlink:href="_listener_socket_8hpp.html" target="_top" xlink:title=" ">
<polygon fill="white" stroke="#666666" points="1013.5,-101.5 875.5,-101.5 875.5,-71.5 1013.5,-71.5 1013.5,-101.5"/>
<text text-anchor="start" x="883.5" y="-89.5" font-family="Helvetica,sans-Serif" font-size="10.00">include/Hermes/Socket</text>
<text text-anchor="middle" x="944.5" y="-78.5" font-family="Helvetica,sans-Serif" font-size="10.00">/Sync/ListenerSocket.hpp</text>
</a>
</g>
</g>
<!-- Node13&#45;&gt;Node14 -->
<g id="edge18_Node000013_Node000014" class="edge">
<title>Node13&#45;&gt;Node14</title>
<g id="a_edge18_Node000013_Node000014"><a xlink:title=" ">
<path fill="none" stroke="#63b8ff" d="M944.5,-138.04C944.5,-125.95 944.5,-111.79 944.5,-101.54"/>
<polygon fill="#63b8ff" stroke="#63b8ff" points="941,-138.39 944.5,-148.39 948,-138.39 941,-138.39"/>
</a>
</g>
</g>
<!-- Node15&#45;&gt;Node7 -->
<g id="edge20_Node000015_Node000007" class="edge">
<title>Node15&#45;&gt;Node7</title>
<g id="a_edge20_Node000015_Node000007"><a xlink:title=" ">
<path fill="none" stroke="#63b8ff" d="M1190.9,-209.69C1191.01,-201.08 1191.13,-191.9 1191.24,-184.07"/>
<polygon fill="#63b8ff" stroke="#63b8ff" points="1187.4,-209.75 1190.76,-219.79 1194.4,-209.84 1187.4,-209.75"/>
</a>
</g>
</g>
<!-- Node15&#45;&gt;Node13 -->
<g id="edge21_Node000015_Node000013" class="edge">
<title>Node15&#45;&gt;Node13</title>
<g id="a_edge21_Node000015_Node000013"><a xlink:title=" ">
<path fill="none" stroke="#63b8ff" d="M1116.84,-217.04C1075.88,-204.56 1026.18,-189.4 990.69,-178.58"/>
<polygon fill="#63b8ff" stroke="#63b8ff" points="1115.92,-220.42 1126.51,-219.99 1117.96,-213.73 1115.92,-220.42"/>
</a>
</g>
</g>
<!-- Node16 -->
<g id="Node000016" class="node">
<title>Node16</title>
<g id="a_Node000016"><a xlink:href="_tls_accept_state_machine_8hpp.html" target="_top" xlink:title=" ">
<polygon fill="white" stroke="#666666" points="1451.5,-184 1291.5,-184 1291.5,-143 1451.5,-143 1451.5,-184"/>
<text text-anchor="start" x="1299.5" y="-172" font-family="Helvetica,sans-Serif" font-size="10.00">include/Hermes/Socket</text>
<text text-anchor="start" x="1299.5" y="-161" font-family="Helvetica,sans-Serif" font-size="10.00">/_base/Accept/TlsAcceptState</text>
<text text-anchor="middle" x="1371.5" y="-150" font-family="Helvetica,sans-Serif" font-size="10.00">Machine.hpp</text>
</a>
</g>
</g>
<!-- Node15&#45;&gt;Node16 -->
<g id="edge22_Node000015_Node000016" class="edge">
<title>Node15&#45;&gt;Node16</title>
<g id="a_edge22_Node000015_Node000016"><a xlink:title=" ">
<path fill="none" stroke="#63b8ff" d="M1246.9,-216.13C1271.76,-205.83 1300.64,-193.86 1324.34,-184.04"/>
<polygon fill="#63b8ff" stroke="#63b8ff" points="1245.48,-212.93 1237.58,-219.99 1248.16,-219.4 1245.48,-212.93"/>
</a>
</g>
</g>
<!-- Node18 -->
<g id="Node000018" class="node">
<title>Node18</title>
<g id="a_Node000018"><a xlink:href="_client_socket_8hpp.html" target="_top" xlink:title=" ">
<polygon fill="white" stroke="#666666" points="577.5,-178.5 449.5,-178.5 449.5,-148.5 577.5,-148.5 577.5,-178.5"/>
<text text-anchor="start" x="457.5" y="-166.5" font-family="Helvetica,sans-Serif" font-size="10.00">include/Hermes/Socket</text>
<text text-anchor="middle" x="513.5" y="-155.5" font-family="Helvetica,sans-Serif" font-size="10.00">/Sync/ClientSocket.hpp</text>
</a>
</g>
</g>
<!-- Node17&#45;&gt;Node18 -->
<g id="edge24_Node000017_Node000018" class="edge">
<title>Node17&#45;&gt;Node18</title>
<g id="a_edge24_Node000017_Node000018"><a xlink:title=" ">
<path fill="none" stroke="#63b8ff" d="M282.01,-291.98C340.42,-259.82 441,-204.43 487.96,-178.57"/>
<polygon fill="#63b8ff" stroke="#63b8ff" points="280.09,-289.05 273.02,-296.94 283.47,-295.18 280.09,-289.05"/>
</a>
</g>
</g>
<!-- Node17&#45;&gt;Node19 -->
<g id="edge25_Node000017_Node000019" class="edge">
<title>Node17&#45;&gt;Node19</title>
<g id="a_edge25_Node000017_Node000019"><a xlink:title=" ">
<path fill="none" stroke="#63b8ff" d="M239.88,-286.69C240.57,-278.08 241.31,-268.9 241.93,-261.07"/>
<polygon fill="#63b8ff" stroke="#63b8ff" points="236.39,-286.55 239.08,-296.79 243.36,-287.11 236.39,-286.55"/>
</a>
</g>
</g>
<!-- Node19&#45;&gt;Node8 -->
<g id="edge26_Node000019_Node000008" class="edge">
<title>Node19&#45;&gt;Node8</title>
<g id="a_edge26_Node000019_Node000008"><a xlink:title=" ">
<path fill="none" stroke="#63b8ff" d="M193.44,-215.59C172.13,-205.41 147.6,-193.69 127.41,-184.04"/>
<polygon fill="#63b8ff" stroke="#63b8ff" points="192.13,-218.84 202.66,-219.99 195.15,-212.52 192.13,-218.84"/>
</a>
</g>
</g>
<!-- Node19&#45;&gt;Node10 -->
<g id="edge27_Node000019_Node000010" class="edge">
<title>Node19&#45;&gt;Node10</title>
<g id="a_edge27_Node000019_Node000010"><a xlink:title=" ">
<path fill="none" stroke="#63b8ff" d="M225.12,-210.81C214.41,-190.11 205.66,-162.49 220.5,-143 235.93,-122.73 295.15,-107.97 345.35,-98.79"/>
<polygon fill="#63b8ff" stroke="#63b8ff" points="222.18,-212.73 230.09,-219.78 228.3,-209.33 222.18,-212.73"/>
</a>
</g>
</g>
<!-- Node19&#45;&gt;Node18 -->
<g id="edge28_Node000019_Node000018" class="edge">
<title>Node19&#45;&gt;Node18</title>
<g id="a_edge28_Node000019_Node000018"><a xlink:title=" ">
<path fill="none" stroke="#63b8ff" d="M319.46,-218.4C365.34,-205.66 422.56,-189.76 462.94,-178.54"/>
<polygon fill="#63b8ff" stroke="#63b8ff" points="318.25,-215.1 309.55,-221.15 320.12,-221.85 318.25,-215.1"/>
</a>
</g>
</g>
<!-- Node20 -->
<g id="Node000020" class="node">
<title>Node20</title>
<g id="a_Node000020"><a xlink:href="_tls_connect_state_machine_8hpp.html" target="_top" xlink:title=" ">
<polygon fill="white" stroke="#666666" points="393,-184 230,-184 230,-143 393,-143 393,-184"/>
<text text-anchor="start" x="238" y="-172" font-family="Helvetica,sans-Serif" font-size="10.00">include/Hermes/Socket</text>
<text text-anchor="start" x="238" y="-161" font-family="Helvetica,sans-Serif" font-size="10.00">/_base/Connection/TlsConnect</text>
<text text-anchor="middle" x="311.5" y="-150" font-family="Helvetica,sans-Serif" font-size="10.00">StateMachine.hpp</text>
</a>
</g>
</g>
<!-- Node19&#45;&gt;Node20 -->
<g id="edge29_Node000019_Node000020" class="edge">
<title>Node19&#45;&gt;Node20</title>
<g id="a_edge29_Node000019_Node000020"><a xlink:title=" ">
<path fill="none" stroke="#63b8ff" d="M268.22,-212.23C276.68,-202.91 285.96,-192.67 293.75,-184.07"/>
<polygon fill="#63b8ff" stroke="#63b8ff" points="265.49,-210.04 261.37,-219.79 270.68,-214.74 265.49,-210.04"/>
</a>
</g>
</g>
<!-- Node21&#45;&gt;Node13 -->
<g id="edge32_Node000021_Node000013" class="edge">
<title>Node21&#45;&gt;Node13</title>
<g id="a_edge32_Node000021_Node000013"><a xlink:title=" ">
<path fill="none" stroke="#63b8ff" d="M595.53,-219.87C700.16,-199.3 810.41,-182.9 878.75,-173.34"/>
<polygon fill="#63b8ff" stroke="#63b8ff" points="594.55,-216.5 585.42,-221.87 595.91,-223.36 594.55,-216.5"/>
</a>
</g>
</g>
<!-- Node21&#45;&gt;Node18 -->
<g id="edge31_Node000021_Node000018" class="edge">
<title>Node21&#45;&gt;Node18</title>
<g id="a_edge31_Node000021_Node000018"><a xlink:title=" ">
<path fill="none" stroke="#63b8ff" d="M513.5,-209.61C513.5,-199.01 513.5,-187.57 513.5,-178.86"/>
<polygon fill="#63b8ff" stroke="#63b8ff" points="510,-209.79 513.5,-219.79 517,-209.79 510,-209.79"/>
</a>
</g>
</g>
<!-- Node22&#45;&gt;Node7 -->
<g id="edge34_Node000022_Node000007" class="edge">
<title>Node22&#45;&gt;Node7</title>
<g id="a_edge34_Node000022_Node000007"><a xlink:title=" ">
<path fill="none" stroke="#63b8ff" d="M752.25,-300.14C757.06,-299.03 761.85,-297.97 766.5,-297 863.06,-276.87 891.28,-290.2 985.5,-261 1048.69,-241.42 1117.38,-206.15 1157.32,-184.1"/>
<polygon fill="#63b8ff" stroke="#63b8ff" points="751.31,-296.77 742.38,-302.48 752.92,-303.58 751.31,-296.77"/>
</a>
</g>
</g>
<!-- Node22&#45;&gt;Node10 -->
<g id="edge35_Node000022_Node000010" class="edge">
<title>Node22&#45;&gt;Node10</title>
<g id="a_edge35_Node000022_Node000010"><a xlink:title=" ">
<path fill="none" stroke="#63b8ff" d="M715.97,-295.32C725.62,-285.95 735.4,-274.08 740.5,-261 747.12,-244.02 750.08,-235.5 740.5,-220 689.27,-137.1 574.54,-106.06 497.57,-94.44"/>
<polygon fill="#63b8ff" stroke="#63b8ff" points="713.38,-292.95 708.35,-302.28 718.1,-298.12 713.38,-292.95"/>
</a>
</g>
</g>
<!-- Node22&#45;&gt;Node15 -->
<g id="edge39_Node000022_Node000015" class="edge">
<title>Node22&#45;&gt;Node15</title>
<g id="a_edge39_Node000022_Node000015"><a xlink:title=" ">
<path fill="none" stroke="#63b8ff" d="M751.32,-300.17C756.44,-299.02 761.55,-297.95 766.5,-297 830.39,-284.77 1005.51,-263.28 1109.63,-250.93"/>
<polygon fill="#63b8ff" stroke="#63b8ff" points="750.45,-296.78 741.5,-302.45 752.03,-303.6 750.45,-296.78"/>
</a>
</g>
</g>
<!-- Node22&#45;&gt;Node19 -->
<g id="edge40_Node000022_Node000019" class="edge">
<title>Node22&#45;&gt;Node19</title>
<g id="a_edge40_Node000022_Node000019"><a xlink:title=" ">
<path fill="none" stroke="#63b8ff" d="M610.87,-303.28C525.33,-288.89 390.07,-266.15 309.74,-252.64"/>
<polygon fill="#63b8ff" stroke="#63b8ff" points="610.35,-306.74 620.79,-304.95 611.51,-299.84 610.35,-306.74"/>
</a>
</g>
</g>
<!-- Node23 -->
<g id="Node000023" class="node">
<title>Node23</title>
<g id="a_Node000023"><a xlink:href="_tls_async_transfer_policy_8hpp.html" target="_top" xlink:title=" ">
<polygon fill="white" stroke="#666666" points="977,-261 826,-261 826,-220 977,-220 977,-261"/>
<text text-anchor="start" x="834" y="-249" font-family="Helvetica,sans-Serif" font-size="10.00">include/Hermes/Socket</text>
<text text-anchor="start" x="834" y="-238" font-family="Helvetica,sans-Serif" font-size="10.00">/Async/_base/Transfer</text>
<text text-anchor="middle" x="901.5" y="-227" font-family="Helvetica,sans-Serif" font-size="10.00">/TlsAsyncTransferPolicy.hpp</text>
</a>
</g>
</g>
<!-- Node22&#45;&gt;Node23 -->
<g id="edge36_Node000022_Node000023" class="edge">
<title>Node22&#45;&gt;Node23</title>
<g id="a_edge36_Node000022_Node000023"><a xlink:title=" ">
<path fill="none" stroke="#63b8ff" d="M739.01,-298.99C771.12,-287.63 813,-272.81 846.2,-261.06"/>
<polygon fill="#63b8ff" stroke="#63b8ff" points="737.64,-295.76 729.38,-302.39 739.97,-302.36 737.64,-295.76"/>
</a>
</g>
</g>
<!-- Node24 -->
<g id="Node000024" class="node">
<title>Node24</title>
<g id="a_Node000024"><a xlink:href="_tls_transfer_policy_8hpp.html" target="_top" xlink:title=" ">
<polygon fill="white" stroke="#666666" points="731.5,-261 603.5,-261 603.5,-220 731.5,-220 731.5,-261"/>
<text text-anchor="start" x="611.5" y="-249" font-family="Helvetica,sans-Serif" font-size="10.00">include/Hermes/Socket</text>
<text text-anchor="start" x="611.5" y="-238" font-family="Helvetica,sans-Serif" font-size="10.00">/Sync/_base/Transfer</text>
<text text-anchor="middle" x="667.5" y="-227" font-family="Helvetica,sans-Serif" font-size="10.00">/TlsTransferPolicy.hpp</text>
</a>
</g>
</g>
<!-- Node22&#45;&gt;Node24 -->
<g id="edge41_Node000022_Node000024" class="edge">
<title>Node22&#45;&gt;Node24</title>
<g id="a_edge41_Node000022_Node000024"><a xlink:title=" ">
<path fill="none" stroke="#63b8ff" d="M682.48,-292.55C679.51,-282.44 676.1,-270.81 673.28,-261.2"/>
<polygon fill="#63b8ff" stroke="#63b8ff" points="679.19,-293.78 685.36,-302.39 685.91,-291.81 679.19,-293.78"/>
</a>
</g>
</g>
<!-- Node23&#45;&gt;Node5 -->
<g id="edge38_Node000023_Node000005" class="edge">
<title>Node23&#45;&gt;Node5</title>
<g id="a_edge38_Node000023_Node000005"><a xlink:title=" ">
<path fill="none" stroke="#63b8ff" d="M959.01,-215.75C978.47,-206.8 999.95,-195.88 1018.5,-184 1042.41,-168.68 1044.59,-159.78 1067.5,-143 1088.17,-127.86 1112.89,-112.32 1130.69,-101.54"/>
<polygon fill="#63b8ff" stroke="#63b8ff" points="957.31,-212.67 949.64,-219.98 960.19,-219.05 957.31,-212.67"/>
</a>
</g>
</g>
<!-- Node23&#45;&gt;Node9 -->
<g id="edge37_Node000023_Node000009" class="edge">
<title>Node23&#45;&gt;Node9</title>
<g id="a_edge37_Node000023_Node000009"><a xlink:title=" ">
<path fill="none" stroke="#63b8ff" d="M884.58,-210.99C879.6,-202.38 874.23,-192.86 869.5,-184 842,-132.44 857,-102.67 811.5,-66 777.74,-38.8 731.25,-26.11 691.38,-20.31"/>
<polygon fill="#63b8ff" stroke="#63b8ff" points="881.71,-213.02 889.78,-219.9 887.76,-209.5 881.71,-213.02"/>
</a>
</g>
</g>
<!-- Node24&#45;&gt;Node13 -->
<g id="edge43_Node000024_Node000013" class="edge">
<title>Node24&#45;&gt;Node13</title>
<g id="a_edge43_Node000024_Node000013"><a xlink:title=" ">
<path fill="none" stroke="#63b8ff" d="M741.41,-219.49C789.13,-206.57 850.03,-190.08 892.64,-178.54"/>
<polygon fill="#63b8ff" stroke="#63b8ff" points="740.48,-216.11 731.75,-222.1 742.31,-222.87 740.48,-216.11"/>
</a>
</g>
</g>
<!-- Node24&#45;&gt;Node18 -->
<g id="edge42_Node000024_Node000018" class="edge">
<title>Node24&#45;&gt;Node18</title>
<g id="a_edge42_Node000024_Node000018"><a xlink:title=" ">
<path fill="none" stroke="#63b8ff" d="M618.15,-215.46C593.26,-203.34 563.92,-189.06 542.66,-178.7"/>
<polygon fill="#63b8ff" stroke="#63b8ff" points="616.92,-218.76 627.44,-219.99 619.98,-212.47 616.92,-218.76"/>
</a>
</g>
</g>
<!-- Node25&#45;&gt;Node3 -->
<g id="edge53_Node000025_Node000003" class="edge">
<title>Node25&#45;&gt;Node3</title>
<g id="a_edge53_Node000025_Node000003"><a xlink:title=" ">
<path fill="none" stroke="#63b8ff" d="M799.36,-448.09C758.72,-436.28 705.08,-420.68 666.79,-409.54"/>
<polygon fill="#63b8ff" stroke="#63b8ff" points="798.56,-451.5 809.13,-450.94 800.51,-444.78 798.56,-451.5"/>
</a>
</g>
</g>
<!-- Node25&#45;&gt;Node4 -->
<g id="edge47_Node000025_Node000004" class="edge">
<title>Node25&#45;&gt;Node4</title>
<g id="a_edge47_Node000025_Node000004"><a xlink:title=" ">
<path fill="none" stroke="#63b8ff" d="M931.98,-464.5C1088.31,-462.68 1439.32,-454.23 1475.5,-415 1485.09,-404.6 1490.94,-323.54 1474.5,-297 1464.57,-280.96 1448.38,-269.35 1431.52,-261.04"/>
<polygon fill="#63b8ff" stroke="#63b8ff" points="931.47,-461.01 921.51,-464.62 931.55,-468.01 931.47,-461.01"/>
</a>
</g>
</g>
<!-- Node25&#45;&gt;Node7 -->
<g id="edge48_Node000025_Node000007" class="edge">
<title>Node25&#45;&gt;Node7</title>
<g id="a_edge48_Node000025_Node000007"><a xlink:title=" ">
<path fill="none" stroke="#63b8ff" d="M931.5,-462.09C992.86,-457.44 1081.26,-445.51 1152.5,-415 1233.07,-380.49 1231.36,-334.65 1310.5,-297 1369.68,-268.84 1413.21,-312.69 1453.5,-261 1542.07,-147.37 1414.16,-211.97 1282.5,-184 1279.5,-183.36 1276.44,-182.71 1273.35,-182.05"/>
<polygon fill="#63b8ff" stroke="#63b8ff" points="931.24,-458.6 921.51,-462.8 931.73,-465.58 931.24,-458.6"/>
</a>
</g>
</g>
<!-- Node25&#45;&gt;Node8 -->
<g id="edge49_Node000025_Node000008" class="edge">
<title>Node25&#45;&gt;Node8</title>
<g id="a_edge49_Node000025_Node000008"><a xlink:title=" ">
<path fill="none" stroke="#63b8ff" d="M783.23,-460.78C606.07,-450.57 172.52,-424.68 160.5,-415 88.43,-357 84.23,-232.37 85.5,-184.13"/>
<polygon fill="#63b8ff" stroke="#63b8ff" points="783.06,-464.28 793.25,-461.36 783.47,-457.29 783.06,-464.28"/>
</a>
</g>
</g>
<!-- Node25&#45;&gt;Node10 -->
<g id="edge50_Node000025_Node000010" class="edge">
<title>Node25&#45;&gt;Node10</title>
<g id="a_edge50_Node000025_Node000010"><a xlink:title=" ">
<path fill="none" stroke="#63b8ff" d="M783.18,-462.65C692.94,-458.43 547.44,-446.77 504.5,-415 404.78,-341.21 413.18,-165.81 419.11,-107.06"/>
<polygon fill="#63b8ff" stroke="#63b8ff" points="783.22,-466.16 793.36,-463.11 783.53,-459.17 783.22,-466.16"/>
</a>
</g>
</g>
<!-- Node25&#45;&gt;Node11 -->
<g id="edge51_Node000025_Node000011" class="edge">
<title>Node25&#45;&gt;Node11</title>
<g id="a_edge51_Node000025_Node000011"><a xlink:title=" ">
<path fill="none" stroke="#63b8ff" d="M890.41,-444.82C900.37,-436.88 910.09,-426.8 915.5,-415 923.09,-398.43 922.28,-390.91 915.5,-374 909.9,-360.03 898.92,-347.57 888.39,-338.02"/>
<polygon fill="#63b8ff" stroke="#63b8ff" points="888.04,-442.23 882.08,-450.99 892.2,-447.85 888.04,-442.23"/>
</a>
</g>
</g>
<!-- Node25&#45;&gt;Node12 -->
<g id="edge55_Node000025_Node000012" class="edge">
<title>Node25&#45;&gt;Node12</title>
<g id="a_edge55_Node000025_Node000012"><a xlink:title=" ">
<path fill="none" stroke="#63b8ff" d="M918.56,-447.77C942.28,-439.68 969.08,-428.75 991.5,-415 1026.32,-393.64 1059.88,-359.73 1079.33,-338.32"/>
<polygon fill="#63b8ff" stroke="#63b8ff" points="917.34,-444.49 908.95,-450.95 919.54,-451.13 917.34,-444.49"/>
</a>
</g>
</g>
<!-- Node25&#45;&gt;Node15 -->
<g id="edge56_Node000025_Node000015" class="edge">
<title>Node25&#45;&gt;Node15</title>
<g id="a_edge56_Node000025_Node000015"><a xlink:title=" ">
<path fill="none" stroke="#63b8ff" d="M931.73,-461.73C1013.32,-453.6 1140.27,-426.52 1196.5,-338 1211.17,-314.9 1204.73,-282.1 1198.11,-261.31"/>
<polygon fill="#63b8ff" stroke="#63b8ff" points="931.15,-458.27 921.51,-462.67 931.79,-465.24 931.15,-458.27"/>
</a>
</g>
</g>
<!-- Node25&#45;&gt;Node17 -->
<g id="edge57_Node000025_Node000017" class="edge">
<title>Node25&#45;&gt;Node17</title>
<g id="a_edge57_Node000025_Node000017"><a xlink:title=" ">
<path fill="none" stroke="#63b8ff" d="M783.24,-460.37C619.62,-450 241.75,-425.02 232.5,-415 213.61,-394.54 221.32,-360.04 229.08,-338.31"/>
<polygon fill="#63b8ff" stroke="#63b8ff" points="783.03,-463.86 793.23,-461 783.47,-456.88 783.03,-463.86"/>
</a>
</g>
</g>
<!-- Node25&#45;&gt;Node19 -->
<g id="edge58_Node000025_Node000019" class="edge">
<title>Node25&#45;&gt;Node19</title>
<g id="a_edge58_Node000025_Node000019"><a xlink:title=" ">
<path fill="none" stroke="#63b8ff" d="M782.81,-460.76C619.29,-451.27 242.1,-428.1 217.5,-415 165.39,-387.25 128.12,-348.77 156.5,-297 164.94,-281.6 179.67,-269.86 194.63,-261.23"/>
<polygon fill="#63b8ff" stroke="#63b8ff" points="783.09,-464.29 793.27,-461.37 783.49,-457.3 783.09,-464.29"/>
</a>
</g>
</g>
<!-- Node25&#45;&gt;Node21 -->
<g id="edge59_Node000025_Node000021" class="edge">
<title>Node25&#45;&gt;Node21</title>
<g id="a_edge59_Node000025_Node000021"><a xlink:title=" ">
<path fill="none" stroke="#63b8ff" d="M783.08,-463.87C697.39,-460.87 564.09,-450.46 530.5,-415 490.74,-373.03 500.85,-297.11 508.54,-261.26"/>
<polygon fill="#63b8ff" stroke="#63b8ff" points="783.18,-467.37 793.28,-464.2 783.4,-460.37 783.18,-467.37"/>
</a>
</g>
</g>
<!-- Node25&#45;&gt;Node22 -->
<g id="edge54_Node000025_Node000022" class="edge">
<title>Node25&#45;&gt;Node22</title>
<g id="a_edge54_Node000025_Node000022"><a xlink:title=" ">
<path fill="none" stroke="#63b8ff" d="M873.37,-442.29C885.05,-422.51 896.5,-393.95 881.5,-374 877.21,-368.3 799.16,-347.01 743.91,-332.52"/>
<polygon fill="#63b8ff" stroke="#63b8ff" points="870.28,-440.63 867.91,-450.95 876.2,-444.36 870.28,-440.63"/>
</a>
</g>
</g>
<!-- Node25&#45;&gt;Node23 -->
<g id="edge52_Node000025_Node000023" class="edge">
<title>Node25&#45;&gt;Node23</title>
<g id="a_edge52_Node000025_Node000023"><a xlink:title=" ">
<path fill="none" stroke="#63b8ff" d="M896.61,-445.81C909.56,-437.82 923.06,-427.47 932.5,-415 954.23,-386.32 951.88,-373.54 957.5,-338 960.35,-320 964.51,-313.82 957.5,-297 951.65,-282.98 940.35,-270.68 929.42,-261.25"/>
<polygon fill="#63b8ff" stroke="#63b8ff" points="894.65,-442.89 887.78,-450.96 898.18,-448.94 894.65,-442.89"/>
</a>
</g>
</g>
<!-- Node25&#45;&gt;Node24 -->
<g id="edge60_Node000025_Node000024" class="edge">
<title>Node25&#45;&gt;Node24</title>
<g id="a_edge60_Node000025_Node000024"><a xlink:title=" ">
<path fill="none" stroke="#63b8ff" d="M805.74,-447.27C785.64,-439.09 763.04,-428.23 744.5,-415 724.28,-400.56 727.11,-387.88 706.5,-374 669.05,-348.77 637.15,-375.16 611.5,-338 601.15,-323 604.49,-313.82 611.5,-297 617.35,-282.98 628.65,-270.68 639.58,-261.25"/>
<polygon fill="#63b8ff" stroke="#63b8ff" points="804.49,-450.54 815.08,-450.95 807.06,-444.03 804.49,-450.54"/>
</a>
</g>
</g>
<!-- Node26 -->
<g id="Node000026" class="node">
<title>Node26</title>
<g id="a_Node000026"><a xlink:href="_i_tls_accept_state_machine_8hpp.html" target="_top" xlink:title=" ">
<polygon fill="white" stroke="#666666" points="1686,-415 1523,-415 1523,-374 1686,-374 1686,-415"/>
<text text-anchor="start" x="1531" y="-403" font-family="Helvetica,sans-Serif" font-size="10.00">include/Hermes/Socket</text>
<text text-anchor="start" x="1531" y="-392" font-family="Helvetica,sans-Serif" font-size="10.00">/_base/Accept/ITlsAcceptState</text>
<text text-anchor="middle" x="1604.5" y="-381" font-family="Helvetica,sans-Serif" font-size="10.00">Machine.hpp</text>
</a>
</g>
</g>
<!-- Node25&#45;&gt;Node26 -->
<g id="edge61_Node000025_Node000026" class="edge">
<title>Node25&#45;&gt;Node26</title>
<g id="a_edge61_Node000025_Node000026"><a xlink:title=" ">
<path fill="none" stroke="#63b8ff" d="M931.81,-462.29C1053.04,-457.19 1300.69,-443.97 1508.5,-415 1513.22,-414.34 1518.05,-413.6 1522.92,-412.79"/>
<polygon fill="#63b8ff" stroke="#63b8ff" points="931.39,-458.8 921.54,-462.71 931.68,-465.79 931.39,-458.8"/>
</a>
</g>
</g>
<!-- Node27 -->
<g id="Node000027" class="node">
<title>Node27</title>
<g id="a_Node000027"><a xlink:href="_i_tls_connect_state_machine_8hpp.html" target="_top" xlink:title=" ">
<polygon fill="white" stroke="#666666" points="407.5,-415 241.5,-415 241.5,-374 407.5,-374 407.5,-415"/>
<text text-anchor="start" x="249.5" y="-403" font-family="Helvetica,sans-Serif" font-size="10.00">include/Hermes/Socket</text>
<text text-anchor="start" x="249.5" y="-392" font-family="Helvetica,sans-Serif" font-size="10.00">/_base/Connection/ITlsConnect</text>
<text text-anchor="middle" x="324.5" y="-381" font-family="Helvetica,sans-Serif" font-size="10.00">StateMachine.hpp</text>
</a>
</g>
</g>
<!-- Node25&#45;&gt;Node27 -->
<g id="edge63_Node000025_Node000027" class="edge">
<title>Node25&#45;&gt;Node27</title>
<g id="a_edge63_Node000025_Node000027"><a xlink:title=" ">
<path fill="none" stroke="#63b8ff" d="M783.33,-458.41C696.36,-450.25 548.01,-434.93 421.5,-415 417,-414.29 412.4,-413.52 407.76,-412.71"/>
<polygon fill="#63b8ff" stroke="#63b8ff" points="783.08,-461.91 793.37,-459.35 783.73,-454.94 783.08,-461.91"/>
</a>
</g>
</g>
<!-- Node28 -->
<g id="Node000028" class="node">
<title>Node28</title>
<g id="a_Node000028"><a xlink:href="_i_tls_transfer_state_machine_8hpp.html" target="_top" xlink:title=" ">
<polygon fill="white" stroke="#666666" points="1467,-415 1318,-415 1318,-374 1467,-374 1467,-415"/>
<text text-anchor="start" x="1326" y="-403" font-family="Helvetica,sans-Serif" font-size="10.00">include/Hermes/Socket</text>
<text text-anchor="start" x="1326" y="-392" font-family="Helvetica,sans-Serif" font-size="10.00">/_base/Transfer/ITlsTransfer</text>
<text text-anchor="middle" x="1392.5" y="-381" font-family="Helvetica,sans-Serif" font-size="10.00">StateMachine.hpp</text>
</a>
</g>
</g>
<!-- Node25&#45;&gt;Node28 -->
<g id="edge65_Node000025_Node000028" class="edge">
<title>Node25&#45;&gt;Node28</title>
<g id="a_edge65_Node000025_Node000028"><a xlink:title=" ">
<path fill="none" stroke="#63b8ff" d="M931.82,-459.13C1020.8,-451.54 1174.14,-436.67 1304.5,-415 1308.82,-414.28 1313.25,-413.49 1317.71,-412.64"/>
<polygon fill="#63b8ff" stroke="#63b8ff" points="931.5,-455.64 921.83,-459.98 932.09,-462.62 931.5,-455.64"/>
</a>
</g>
</g>
<!-- Node29 -->
<g id="Node000029" class="node">
<title>Node29</title>
<g id="a_Node000029"><a xlink:href="_tls_transfer_state_machine_8hpp.html" target="_top" xlink:title=" ">
<polygon fill="white" stroke="#666666" points="1465.5,-338 1319.5,-338 1319.5,-297 1465.5,-297 1465.5,-338"/>
<text text-anchor="start" x="1327.5" y="-326" font-family="Helvetica,sans-Serif" font-size="10.00">include/Hermes/Socket</text>
<text text-anchor="start" x="1327.5" y="-315" font-family="Helvetica,sans-Serif" font-size="10.00">/_base/Transfer/TlsTransfer</text>
<text text-anchor="middle" x="1392.5" y="-304" font-family="Helvetica,sans-Serif" font-size="10.00">StateMachine.hpp</text>
</a>
</g>
</g>
<!-- Node25&#45;&gt;Node29 -->
<g id="edge67_Node000025_Node000029" class="edge">
<title>Node25&#45;&gt;Node29</title>
<g id="a_edge67_Node000025_Node000029"><a xlink:title=" ">
<path fill="none" stroke="#63b8ff" d="M932.01,-461.49C1033.43,-455.78 1208.9,-442.23 1266.5,-415 1290.37,-403.71 1288.89,-390.51 1309.5,-374 1325.6,-361.1 1344.66,-348.2 1360.46,-338.09"/>
<polygon fill="#63b8ff" stroke="#63b8ff" points="931.63,-458.01 921.83,-462.06 932.01,-465 931.63,-458.01"/>
</a>
</g>
</g>
<!-- Node30 -->
<g id="Node000030" class="node">
<title>Node30</title>
<g id="a_Node000030"><a xlink:href="_to_bytes_8hpp.html" target="_top" xlink:title=" ">
<polygon fill="white" stroke="#666666" points="873,-409.5 754,-409.5 754,-379.5 873,-379.5 873,-409.5"/>
<text text-anchor="start" x="762" y="-397.5" font-family="Helvetica,sans-Serif" font-size="10.00">include/Hermes/Utils</text>
<text text-anchor="middle" x="813.5" y="-386.5" font-family="Helvetica,sans-Serif" font-size="10.00">/ToBytes.hpp</text>
</a>
</g>
</g>
<!-- Node25&#45;&gt;Node30 -->
<g id="edge68_Node000025_Node000030" class="edge">
<title>Node25&#45;&gt;Node30</title>
<g id="a_edge68_Node000025_Node000030"><a xlink:title=" ">
<path fill="none" stroke="#63b8ff" d="M843.18,-442.38C836.33,-431.57 828.35,-418.96 822.39,-409.54"/>
<polygon fill="#63b8ff" stroke="#63b8ff" points="840.29,-444.36 848.6,-450.94 846.2,-440.61 840.29,-444.36"/>
</a>
</g>
</g>
<!-- Node26&#45;&gt;Node16 -->
<g id="edge62_Node000026_Node000016" class="edge">
<title>Node26&#45;&gt;Node16</title>
<g id="a_edge62_Node000026_Node000016"><a xlink:title=" ">
<path fill="none" stroke="#63b8ff" d="M1590.85,-364.51C1571.94,-326.98 1534.62,-261.49 1486.5,-220 1469.04,-204.94 1446.79,-192.96 1426.52,-184.04"/>
<polygon fill="#63b8ff" stroke="#63b8ff" points="1587.9,-366.45 1595.47,-373.86 1594.18,-363.35 1587.9,-366.45"/>
</a>
</g>
</g>
<!-- Node27&#45;&gt;Node20 -->
<g id="edge64_Node000027_Node000020" class="edge">
<title>Node27&#45;&gt;Node20</title>
<g id="a_edge64_Node000027_Node000020"><a xlink:title=" ">
<path fill="none" stroke="#63b8ff" d="M324.29,-363.6C323.86,-328.99 322.53,-270.29 318.5,-220 317.55,-208.09 315.89,-194.82 314.43,-184.23"/>
<polygon fill="#63b8ff" stroke="#63b8ff" points="320.79,-363.99 324.4,-373.95 327.79,-363.92 320.79,-363.99"/>
</a>
</g>
</g>
<!-- Node28&#45;&gt;Node29 -->
<g id="edge66_Node000028_Node000029" class="edge">
<title>Node28&#45;&gt;Node29</title>
<g id="a_edge66_Node000028_Node000029"><a xlink:title=" ">
<path fill="none" stroke="#63b8ff" d="M1392.5,-363.69C1392.5,-355.08 1392.5,-345.9 1392.5,-338.07"/>
<polygon fill="#63b8ff" stroke="#63b8ff" points="1389,-363.79 1392.5,-373.79 1396,-363.79 1389,-363.79"/>
</a>
</g>
</g>
</g>
</svg>
