<?xml version="1.0" encoding="UTF-8" standalone="no"?>
<!DOCTYPE svg PUBLIC "-//W3C//DTD SVG 1.1//EN"
 "http://www.w3.org/Graphics/SVG/1.1/DTD/svg11.dtd">
<!-- Generated by graphviz version 2.43.0 (0)
 -->
<!-- Title: include/Hermes/Endpoint/_base/EndpointConcept.hpp Pages: 1 -->
<svg width="1751pt" height="555pt"
 viewBox="0.00 0.00 1750.50 555.00" xmlns="http://www.w3.org/2000/svg" xmlns:xlink="http://www.w3.org/1999/xlink">
<g id="graph0" class="graph" transform="scale(1 1) rotate(0) translate(4 551)">
<title>include/Hermes/Endpoint/_base/EndpointConcept.hpp</title>
<!-- Node1 -->
<g id="Node000001" class="node">
<title>Node1</title>
<g id="a_Node000001"><a xlink:title=" ">
<polygon fill="#999999" stroke="#666666" points="810,-547 655,-547 655,-517 810,-517 810,-547"/>
<text text-anchor="start" x="663" y="-535" font-family="Helvetica,sans-Serif" font-size="10.00">include/Hermes/Endpoint</text>
<text text-anchor="middle" x="732.5" y="-524" font-family="Helvetica,sans-Serif" font-size="10.00">/_base/EndpointConcept.hpp</text>
</a>
</g>
</g>
<!-- Node2 -->
<g id="Node000002" class="node">
<title>Node2</title>
<g id="a_Node000002"><a xlink:href="_ip_endpoint_8hpp.html" target="_top" xlink:title=" ">
<polygon fill="white" stroke="#666666" points="573,-481 426,-481 426,-451 573,-451 573,-481"/>
<text text-anchor="start" x="434" y="-469" font-family="Helvetica,sans-Serif" font-size="10.00">include/Hermes/Endpoint</text>
<text text-anchor="middle" x="499.5" y="-458" font-family="Helvetica,sans-Serif" font-size="10.00">/IpEndpoint/IpEndpoint.hpp</text>
</a>
</g>
</g>
<!-- Node1&#45;&gt;Node2 -->
<g id="edge1_Node000001_Node000002" class="edge">
<title>Node1&#45;&gt;Node2</title>
<g id="a_edge1_Node000001_Node000002"><a xlink:title=" ">
<path fill="none" stroke="#63b8ff" d="M671.53,-514.25C633.89,-503.91 586.15,-490.8 550.51,-481.01"/>
<polygon fill="#63b8ff" stroke="#63b8ff" points="670.8,-517.68 681.37,-516.95 672.65,-510.93 670.8,-517.68"/>
</a>
</g>
</g>
<!-- Node25 -->
<g id="Node000025" class="node">
<title>Node25</title>
<g id="a_Node000025"><a xlink:href="__base_8hpp.html" target="_top" xlink:title=" ">
<polygon fill="white" stroke="#666666" points="1048.5,-481 920.5,-481 920.5,-451 1048.5,-451 1048.5,-481"/>
<text text-anchor="start" x="928.5" y="-469" font-family="Helvetica,sans-Serif" font-size="10.00">include/Hermes/Socket</text>
<text text-anchor="middle" x="984.5" y="-458" font-family="Helvetica,sans-Serif" font-size="10.00">/_base.hpp</text>
</a>
</g>
</g>
<!-- Node1&#45;&gt;Node25 -->
<g id="edge43_Node000001_Node000025" class="edge">
<title>Node1&#45;&gt;Node25</title>
<g id="a_edge43_Node000001_Node000025"><a xlink:title=" ">
<path fill="none" stroke="#63b8ff" d="M797.66,-514.45C838.49,-504.08 890.54,-490.86 929.33,-481.01"/>
<polygon fill="#63b8ff" stroke="#63b8ff" points="796.63,-511.1 787.8,-516.95 798.36,-517.89 796.63,-511.1"/>
</a>
</g>
</g>
<!-- Node3 -->
<g id="Node000003" class="node">
<title>Node3</title>
<g id="a_Node000003"><a xlink:href="_default_socket_data_8hpp.html" target="_top" xlink:title=" ">
<polygon fill="white" stroke="#666666" points="799.5,-409.5 641.5,-409.5 641.5,-379.5 799.5,-379.5 799.5,-409.5"/>
<text text-anchor="start" x="649.5" y="-397.5" font-family="Helvetica,sans-Serif" font-size="10.00">include/Hermes/Socket</text>
<text text-anchor="middle" x="720.5" y="-386.5" font-family="Helvetica,sans-Serif" font-size="10.00">/Data/DefaultSocketData.hpp</text>
</a>
</g>
</g>
<!-- Node2&#45;&gt;Node3 -->
<g id="edge2_Node000002_Node000003" class="edge">
<title>Node2&#45;&gt;Node3</title>
<g id="a_edge2_Node000002_Node000003"><a xlink:title=" ">
<path fill="none" stroke="#63b8ff" d="M553.98,-447.87C591.47,-436.08 640.66,-420.61 675.84,-409.54"/>
<polygon fill="#63b8ff" stroke="#63b8ff" points="552.71,-444.6 544.22,-450.94 554.81,-451.27 552.71,-444.6"/>
</a>
</g>
</g>
<!-- Node17 -->
<g id="Node000017" class="node">
<title>Node17</title>
<g id="a_Node000017"><a xlink:href="_default_connect_policy_8hpp.html" target="_top" xlink:title=" ">
<polygon fill="white" stroke="#666666" points="537.5,-338 393.5,-338 393.5,-297 537.5,-297 537.5,-338"/>
<text text-anchor="start" x="401.5" y="-326" font-family="Helvetica,sans-Serif" font-size="10.00">include/Hermes/Socket</text>
<text text-anchor="start" x="401.5" y="-315" font-family="Helvetica,sans-Serif" font-size="10.00">/Sync/_base/Connection</text>
<text text-anchor="middle" x="465.5" y="-304" font-family="Helvetica,sans-Serif" font-size="10.00">/DefaultConnectPolicy.hpp</text>
</a>
</g>
</g>
<!-- Node2&#45;&gt;Node17 -->
<g id="edge41_Node000002_Node000017" class="edge">
<title>Node2&#45;&gt;Node17</title>
<g id="a_edge41_Node000002_Node000017"><a xlink:title=" ">
<path fill="none" stroke="#63b8ff" d="M492.4,-440.94C490.08,-432.74 487.57,-423.5 485.5,-415 479.07,-388.57 472.91,-357.74 469.17,-338.18"/>
<polygon fill="#63b8ff" stroke="#63b8ff" points="489.06,-441.99 495.19,-450.63 495.79,-440.05 489.06,-441.99"/>
</a>
</g>
</g>
<!-- Node19 -->
<g id="Node000019" class="node">
<title>Node19</title>
<g id="a_Node000019"><a xlink:href="_tls_connect_policy_8hpp.html" target="_top" xlink:title=" ">
<polygon fill="white" stroke="#666666" points="437.5,-261 305.5,-261 305.5,-220 437.5,-220 437.5,-261"/>
<text text-anchor="start" x="313.5" y="-249" font-family="Helvetica,sans-Serif" font-size="10.00">include/Hermes/Socket</text>
<text text-anchor="start" x="313.5" y="-238" font-family="Helvetica,sans-Serif" font-size="10.00">/Sync/_base/Connection</text>
<text text-anchor="middle" x="371.5" y="-227" font-family="Helvetica,sans-Serif" font-size="10.00">/TlsConnectPolicy.hpp</text>
</a>
</g>
</g>
<!-- Node2&#45;&gt;Node19 -->
<g id="edge42_Node000002_Node000019" class="edge">
<title>Node2&#45;&gt;Node19</title>
<g id="a_edge42_Node000002_Node000019"><a xlink:title=" ">
<path fill="none" stroke="#63b8ff" d="M415.87,-461.52C342.94,-456.51 245.08,-444.38 220.5,-415 173.09,-358.34 273.06,-292.97 332.16,-261.06"/>
<polygon fill="#63b8ff" stroke="#63b8ff" points="415.77,-465.02 425.98,-462.18 416.23,-458.03 415.77,-465.02"/>
</a>
</g>
</g>
<!-- Node22 -->
<g id="Node000022" class="node">
<title>Node22</title>
<g id="a_Node000022"><a xlink:href="_tls_socket_data_8hpp.html" target="_top" xlink:title=" ">
<polygon fill="white" stroke="#666666" points="892,-332.5 755,-332.5 755,-302.5 892,-302.5 892,-332.5"/>
<text text-anchor="start" x="763" y="-320.5" font-family="Helvetica,sans-Serif" font-size="10.00">include/Hermes/Socket</text>
<text text-anchor="middle" x="823.5" y="-309.5" font-family="Helvetica,sans-Serif" font-size="10.00">/Data/TlsSocketData.hpp</text>
</a>
</g>
</g>
<!-- Node2&#45;&gt;Node22 -->
<g id="edge31_Node000002_Node000022" class="edge">
<title>Node2&#45;&gt;Node22</title>
<g id="a_edge31_Node000002_Node000022"><a xlink:title=" ">
<path fill="none" stroke="#63b8ff" d="M524.54,-444.25C550.23,-423.86 592.05,-393.12 632.5,-374 656.54,-362.64 720.78,-344.86 768.15,-332.5"/>
<polygon fill="#63b8ff" stroke="#63b8ff" points="522.08,-441.74 516.48,-450.73 526.46,-447.19 522.08,-441.74"/>
</a>
</g>
</g>
<!-- Node4 -->
<g id="Node000004" class="node">
<title>Node4</title>
<g id="a_Node000004"><a xlink:href="_default_async_accept_policy_8hpp.html" target="_top" xlink:title=" ">
<polygon fill="white" stroke="#666666" points="1276,-261 1121,-261 1121,-220 1276,-220 1276,-261"/>
<text text-anchor="start" x="1129" y="-249" font-family="Helvetica,sans-Serif" font-size="10.00">include/Hermes/Socket</text>
<text text-anchor="start" x="1129" y="-238" font-family="Helvetica,sans-Serif" font-size="10.00">/Async/_base/Accept/Default</text>
<text text-anchor="middle" x="1198.5" y="-227" font-family="Helvetica,sans-Serif" font-size="10.00">AsyncAcceptPolicy.hpp</text>
</a>
</g>
</g>
<!-- Node3&#45;&gt;Node4 -->
<g id="edge3_Node000003_Node000004" class="edge">
<title>Node3&#45;&gt;Node4</title>
<g id="a_edge3_Node000003_Node000004"><a xlink:title=" ">
<path fill="none" stroke="#63b8ff" d="M789.52,-377.45C795.92,-376.19 802.32,-375.02 808.5,-374 881.51,-361.98 1077.02,-377.63 1139.5,-338 1167.53,-320.23 1184.26,-283.86 1192.4,-261.2"/>
<polygon fill="#63b8ff" stroke="#63b8ff" points="788.6,-374.07 779.5,-379.49 789.99,-380.93 788.6,-374.07"/>
</a>
</g>
</g>
<!-- Node8 -->
<g id="Node000008" class="node">
<title>Node8</title>
<g id="a_Node000008"><a xlink:href="_default_async_connect_policy_8hpp.html" target="_top" xlink:title=" ">
<polygon fill="white" stroke="#666666" points="173,-184 0,-184 0,-143 173,-143 173,-184"/>
<text text-anchor="start" x="8" y="-172" font-family="Helvetica,sans-Serif" font-size="10.00">include/Hermes/Socket</text>
<text text-anchor="start" x="8" y="-161" font-family="Helvetica,sans-Serif" font-size="10.00">/Async/_base/Connection</text>
<text text-anchor="middle" x="86.5" y="-150" font-family="Helvetica,sans-Serif" font-size="10.00">/DefaultAsyncConnectPolicy.hpp</text>
</a>
</g>
</g>
<!-- Node3&#45;&gt;Node8 -->
<g id="edge7_Node000003_Node000008" class="edge">
<title>Node3&#45;&gt;Node8</title>
<g id="a_edge7_Node000003_Node000008"><a xlink:title=" ">
<path fill="none" stroke="#63b8ff" d="M631.43,-387.64C562.4,-381 465.23,-367.05 384.5,-338 276.07,-298.97 162.21,-220.54 112.39,-184.03"/>
<polygon fill="#63b8ff" stroke="#63b8ff" points="631.12,-391.12 641.4,-388.56 631.77,-384.15 631.12,-391.12"/>
</a>
</g>
</g>
<!-- Node11 -->
<g id="Node000011" class="node">
<title>Node11</title>
<g id="a_Node000011"><a xlink:href="_default_async_transfer_policy_8hpp.html" target="_top" xlink:title=" ">
<polygon fill="white" stroke="#666666" points="1474,-338 1301,-338 1301,-297 1474,-297 1474,-338"/>
<text text-anchor="start" x="1309" y="-326" font-family="Helvetica,sans-Serif" font-size="10.00">include/Hermes/Socket</text>
<text text-anchor="start" x="1309" y="-315" font-family="Helvetica,sans-Serif" font-size="10.00">/Async/_base/Transfer</text>
<text text-anchor="middle" x="1387.5" y="-304" font-family="Helvetica,sans-Serif" font-size="10.00">/DefaultAsyncTransferPolicy.hpp</text>
</a>
</g>
</g>
<!-- Node3&#45;&gt;Node11 -->
<g id="edge11_Node000003_Node000011" class="edge">
<title>Node3&#45;&gt;Node11</title>
<g id="a_edge11_Node000003_Node000011"><a xlink:title=" ">
<path fill="none" stroke="#63b8ff" d="M789.19,-377.43C795.7,-376.17 802.21,-374.99 808.5,-374 832.41,-370.22 1145.34,-340.97 1300.91,-326.52"/>
<polygon fill="#63b8ff" stroke="#63b8ff" points="788.12,-374.08 779.01,-379.49 789.5,-380.94 788.12,-374.08"/>
</a>
</g>
</g>
<!-- Node12 -->
<g id="Node000012" class="node">
<title>Node12</title>
<g id="a_Node000012"><a xlink:href="_default_accept_policy_8hpp.html" target="_top" xlink:title=" ">
<polygon fill="white" stroke="#666666" points="1130.5,-338 948.5,-338 948.5,-297 1130.5,-297 1130.5,-338"/>
<text text-anchor="start" x="956.5" y="-326" font-family="Helvetica,sans-Serif" font-size="10.00">include/Hermes/Socket</text>
<text text-anchor="start" x="956.5" y="-315" font-family="Helvetica,sans-Serif" font-size="10.00">/Sync/_base/Accept/DefaultAccept</text>
<text text-anchor="middle" x="1039.5" y="-304" font-family="Helvetica,sans-Serif" font-size="10.00">Policy.hpp</text>
</a>
</g>
</g>
<!-- Node3&#45;&gt;Node12 -->
<g id="edge14_Node000003_Node000012" class="edge">
<title>Node3&#45;&gt;Node12</title>
<g id="a_edge14_Node000003_Node000012"><a xlink:title=" ">
<path fill="none" stroke="#63b8ff" d="M789.99,-377.16C838.93,-365.65 904.69,-350.2 956.4,-338.04"/>
<polygon fill="#63b8ff" stroke="#63b8ff" points="789.06,-373.79 780.13,-379.48 790.66,-380.6 789.06,-373.79"/>
</a>
</g>
</g>
<!-- Node3&#45;&gt;Node17 -->
<g id="edge21_Node000003_Node000017" class="edge">
<title>Node3&#45;&gt;Node17</title>
<g id="a_edge21_Node000003_Node000017"><a xlink:title=" ">
<path fill="none" stroke="#63b8ff" d="M662.75,-376.51C623.95,-365.1 572.7,-350.03 532.17,-338.11"/>
<polygon fill="#63b8ff" stroke="#63b8ff" points="662.25,-380.02 672.84,-379.48 664.23,-373.3 662.25,-380.02"/>
</a>
</g>
</g>
<!-- Node21 -->
<g id="Node000021" class="node">
<title>Node21</title>
<g id="a_Node000021"><a xlink:href="_default_transfer_policy_8hpp.html" target="_top" xlink:title=" ">
<polygon fill="white" stroke="#666666" points="737,-338 594,-338 594,-297 737,-297 737,-338"/>
<text text-anchor="start" x="602" y="-326" font-family="Helvetica,sans-Serif" font-size="10.00">include/Hermes/Socket</text>
<text text-anchor="start" x="602" y="-315" font-family="Helvetica,sans-Serif" font-size="10.00">/Sync/_base/Transfer</text>
<text text-anchor="middle" x="665.5" y="-304" font-family="Helvetica,sans-Serif" font-size="10.00">/DefaultTransferPolicy.hpp</text>
</a>
</g>
</g>
<!-- Node3&#45;&gt;Node21 -->
<g id="edge28_Node000003_Node000021" class="edge">
<title>Node3&#45;&gt;Node21</title>
<g id="a_edge28_Node000003_Node000021"><a xlink:title=" ">
<path fill="none" stroke="#63b8ff" d="M704.1,-371.14C696.43,-360.67 687.36,-348.31 679.95,-338.2"/>
<polygon fill="#63b8ff" stroke="#63b8ff" points="701.42,-373.4 710.15,-379.39 707.06,-369.26 701.42,-373.4"/>
</a>
</g>
</g>
<!-- Node5 -->
<g id="Node000005" class="node">
<title>Node5</title>
<g id="a_Node000005"><a xlink:href="_async_server_socket_8hpp.html" target="_top" xlink:title=" ">
<polygon fill="white" stroke="#666666" points="1633.5,-178.5 1467.5,-178.5 1467.5,-148.5 1633.5,-148.5 1633.5,-178.5"/>
<text text-anchor="start" x="1475.5" y="-166.5" font-family="Helvetica,sans-Serif" font-size="10.00">include/Hermes/Socket</text>
<text text-anchor="middle" x="1550.5" y="-155.5" font-family="Helvetica,sans-Serif" font-size="10.00">/Async/AsyncServerSocket.hpp</text>
</a>
</g>
</g>
<!-- Node4&#45;&gt;Node5 -->
<g id="edge4_Node000004_Node000005" class="edge">
<title>Node4&#45;&gt;Node5</title>
<g id="a_edge4_Node000004_Node000005"><a xlink:title=" ">
<path fill="none" stroke="#63b8ff" d="M1286.26,-220.8C1347.72,-207.71 1428.54,-190.49 1484.54,-178.55"/>
<polygon fill="#63b8ff" stroke="#63b8ff" points="1285.23,-217.44 1276.18,-222.95 1286.69,-224.29 1285.23,-217.44"/>
</a>
</g>
</g>
<!-- Node7 -->
<g id="Node000007" class="node">
<title>Node7</title>
<g id="a_Node000007"><a xlink:href="_tls_async_accept_policy_8hpp.html" target="_top" xlink:title=" ">
<polygon fill="white" stroke="#666666" points="1067,-184 904,-184 904,-143 1067,-143 1067,-184"/>
<text text-anchor="start" x="912" y="-172" font-family="Helvetica,sans-Serif" font-size="10.00">include/Hermes/Socket</text>
<text text-anchor="start" x="912" y="-161" font-family="Helvetica,sans-Serif" font-size="10.00">/Async/_base/Accept/TlsAsync</text>
<text text-anchor="middle" x="985.5" y="-150" font-family="Helvetica,sans-Serif" font-size="10.00">AcceptPolicy.hpp</text>
</a>
</g>
</g>
<!-- Node4&#45;&gt;Node7 -->
<g id="edge6_Node000004_Node000007" class="edge">
<title>Node4&#45;&gt;Node7</title>
<g id="a_edge6_Node000004_Node000007"><a xlink:title=" ">
<path fill="none" stroke="#63b8ff" d="M1133.29,-216.54C1103.78,-206.15 1069.25,-193.99 1041,-184.04"/>
<polygon fill="#63b8ff" stroke="#63b8ff" points="1132.5,-219.97 1143.09,-219.99 1134.82,-213.37 1132.5,-219.97"/>
</a>
</g>
</g>
<!-- Node6 -->
<g id="Node000006" class="node">
<title>Node6</title>
<g id="a_Node000006"><a xlink:href="_async_listener_socket_8hpp.html" target="_top" xlink:title=" ">
<polygon fill="white" stroke="#666666" points="1733,-101.5 1560,-101.5 1560,-71.5 1733,-71.5 1733,-101.5"/>
<text text-anchor="start" x="1568" y="-89.5" font-family="Helvetica,sans-Serif" font-size="10.00">include/Hermes/Socket</text>
<text text-anchor="middle" x="1646.5" y="-78.5" font-family="Helvetica,sans-Serif" font-size="10.00">/Async/AsyncListenerSocket.hpp</text>
</a>
</g>
</g>
<!-- Node5&#45;&gt;Node6 -->
<g id="edge5_Node000005_Node000006" class="edge">
<title>Node5&#45;&gt;Node6</title>
<g id="a_edge5_Node000005_Node000006"><a xlink:title=" ">
<path fill="none" stroke="#63b8ff" d="M1576.71,-142.03C1593.15,-129.18 1613.93,-112.94 1628.52,-101.54"/>
<polygon fill="#63b8ff" stroke="#63b8ff" points="1574.28,-139.48 1568.56,-148.39 1578.59,-144.99 1574.28,-139.48"/>
</a>
</g>
</g>
<!-- Node9 -->
<g id="Node000009" class="node">
<title>Node9</title>
<g id="a_Node000009"><a xlink:href="_async_client_socket_8hpp.html" target="_top" xlink:title=" ">
<polygon fill="white" stroke="#666666" points="963,-30 800,-30 800,0 963,0 963,-30"/>
<text text-anchor="start" x="808" y="-18" font-family="Helvetica,sans-Serif" font-size="10.00">include/Hermes/Socket</text>
<text text-anchor="middle" x="881.5" y="-7" font-family="Helvetica,sans-Serif" font-size="10.00">/Async/AsyncClientSocket.hpp</text>
</a>
</g>
</g>
<!-- Node8&#45;&gt;Node9 -->
<g id="edge8_Node000008_Node000009" class="edge">
<title>Node8&#45;&gt;Node9</title>
<g id="a_edge8_Node000008_Node000009"><a xlink:title=" ">
<path fill="none" stroke="#63b8ff" d="M136.17,-138.6C185.71,-115.9 264.58,-82.83 336.5,-66 497.71,-28.27 691.96,-18.74 799.58,-16.5"/>
<polygon fill="#63b8ff" stroke="#63b8ff" points="134.58,-135.48 126.97,-142.85 137.52,-141.83 134.58,-135.48"/>
</a>
</g>
</g>
<!-- Node10 -->
<g id="Node000010" class="node">
<title>Node10</title>
<g id="a_Node000010"><a xlink:href="_tls_async_connect_policy_8hpp.html" target="_top" xlink:title=" ">
<polygon fill="white" stroke="#666666" points="497.5,-107 345.5,-107 345.5,-66 497.5,-66 497.5,-107"/>
<text text-anchor="start" x="353.5" y="-95" font-family="Helvetica,sans-Serif" font-size="10.00">include/Hermes/Socket</text>
<text text-anchor="start" x="353.5" y="-84" font-family="Helvetica,sans-Serif" font-size="10.00">/Async/_base/Connection</text>
<text text-anchor="middle" x="421.5" y="-73" font-family="Helvetica,sans-Serif" font-size="10.00">/TlsAsyncConnectPolicy.hpp</text>
</a>
</g>
</g>
<!-- Node8&#45;&gt;Node10 -->
<g id="edge9_Node000008_Node000010" class="edge">
<title>Node8&#45;&gt;Node10</title>
<g id="a_edge9_Node000008_Node000010"><a xlink:title=" ">
<path fill="none" stroke="#63b8ff" d="M183.04,-140.89C234.65,-129.33 297.29,-115.31 345.42,-104.53"/>
<polygon fill="#63b8ff" stroke="#63b8ff" points="182.2,-137.49 173.21,-143.09 183.73,-144.32 182.2,-137.49"/>
</a>
</g>
</g>
<!-- Node10&#45;&gt;Node9 -->
<g id="edge10_Node000010_Node000009" class="edge">
<title>Node10&#45;&gt;Node9</title>
<g id="a_edge10_Node000010_Node000009"><a xlink:title=" ">
<path fill="none" stroke="#63b8ff" d="M507.71,-72.47C591.41,-59.83 717.53,-40.77 799.7,-28.36"/>
<polygon fill="#63b8ff" stroke="#63b8ff" points="507.08,-69.03 497.72,-73.98 508.13,-75.95 507.08,-69.03"/>
</a>
</g>
</g>
<!-- Node11&#45;&gt;Node5 -->
<g id="edge13_Node000011_Node000005" class="edge">
<title>Node11&#45;&gt;Node5</title>
<g id="a_edge13_Node000011_Node000005"><a xlink:title=" ">
<path fill="none" stroke="#63b8ff" d="M1483.45,-294.51C1501.2,-286.54 1518.05,-275.71 1530.5,-261 1550.4,-237.49 1552.2,-199.34 1551.52,-178.75"/>
<polygon fill="#63b8ff" stroke="#63b8ff" points="1481.97,-291.33 1474.1,-298.42 1484.67,-297.79 1481.97,-291.33"/>
</a>
</g>
</g>
<!-- Node11&#45;&gt;Node9 -->
<g id="edge12_Node000011_Node000009" class="edge">
<title>Node11&#45;&gt;Node9</title>
<g id="a_edge12_Node000011_Node000009"><a xlink:title=" ">
<path fill="none" stroke="#63b8ff" d="M1373.97,-287.74C1369.94,-279.15 1365.53,-269.7 1361.5,-261 1337.27,-208.66 1351.02,-180.84 1307.5,-143 1209.66,-57.93 1056.77,-29.82 963.22,-20.55"/>
<polygon fill="#63b8ff" stroke="#63b8ff" points="1370.9,-289.43 1378.31,-297 1377.23,-286.46 1370.9,-289.43"/>
</a>
</g>
</g>
<!-- Node12&#45;&gt;Node4 -->
<g id="edge15_Node000012_Node000004" class="edge">
<title>Node12&#45;&gt;Node4</title>
<g id="a_edge15_Node000012_Node000004"><a xlink:title=" ">
<path fill="none" stroke="#63b8ff" d="M1089.91,-292.72C1111.55,-282.51 1136.53,-270.73 1157.07,-261.04"/>
<polygon fill="#63b8ff" stroke="#63b8ff" points="1088.41,-289.56 1080.86,-296.99 1091.4,-295.89 1088.41,-289.56"/>
</a>
</g>
</g>
<!-- Node13 -->
<g id="Node000013" class="node">
<title>Node13</title>
<g id="a_Node000013"><a xlink:href="_server_socket_8hpp.html" target="_top" xlink:title=" ">
<polygon fill="white" stroke="#666666" points="809,-255.5 678,-255.5 678,-225.5 809,-225.5 809,-255.5"/>
<text text-anchor="start" x="686" y="-243.5" font-family="Helvetica,sans-Serif" font-size="10.00">include/Hermes/Socket</text>
<text text-anchor="middle" x="743.5" y="-232.5" font-family="Helvetica,sans-Serif" font-size="10.00">/Sync/ServerSocket.hpp</text>
</a>
</g>
</g>
<!-- Node12&#45;&gt;Node13 -->
<g id="edge16_Node000012_Node000013" class="edge">
<title>Node12&#45;&gt;Node13</title>
<g id="a_edge16_Node000012_Node000013"><a xlink:title=" ">
<path fill="none" stroke="#63b8ff" d="M952.73,-294.52C903.1,-281.94 842.32,-266.54 799.08,-255.58"/>
<polygon fill="#63b8ff" stroke="#63b8ff" points="951.95,-297.93 962.5,-296.99 953.67,-291.14 951.95,-297.93"/>
</a>
</g>
</g>
<!-- Node15 -->
<g id="Node000015" class="node">
<title>Node15</title>
<g id="a_Node000015"><a xlink:href="_tls_accept_policy_8hpp.html" target="_top" xlink:title=" ">
<polygon fill="white" stroke="#666666" points="1103,-261 942,-261 942,-220 1103,-220 1103,-261"/>
<text text-anchor="start" x="950" y="-249" font-family="Helvetica,sans-Serif" font-size="10.00">include/Hermes/Socket</text>
<text text-anchor="start" x="950" y="-238" font-family="Helvetica,sans-Serif" font-size="10.00">/Sync/_base/Accept/TlsAccept</text>
<text text-anchor="middle" x="1022.5" y="-227" font-family="Helvetica,sans-Serif" font-size="10.00">Policy.hpp</text>
</a>
</g>
</g>
<!-- Node12&#45;&gt;Node15 -->
<g id="edge18_Node000012_Node000015" class="edge">
<title>Node12&#45;&gt;Node15</title>
<g id="a_edge18_Node000012_Node000015"><a xlink:title=" ">
<path fill="none" stroke="#63b8ff" d="M1032.81,-286.98C1030.84,-278.28 1028.73,-268.98 1026.94,-261.07"/>
<polygon fill="#63b8ff" stroke="#63b8ff" points="1029.41,-287.82 1035.03,-296.79 1036.24,-286.27 1029.41,-287.82"/>
</a>
</g>
</g>
<!-- Node14 -->
<g id="Node000014" class="node">
<title>Node14</title>
<g id="a_Node000014"><a xlink:href="_listener_socket_8hpp.html" target="_top" xlink:title=" ">
<polygon fill="white" stroke="#666666" points="809.5,-178.5 671.5,-178.5 671.5,-148.5 809.5,-148.5 809.5,-178.5"/>
<text text-anchor="start" x="679.5" y="-166.5" font-family="Helvetica,sans-Serif" font-size="10.00">include/Hermes/Socket</text>
<text text-anchor="middle" x="740.5" y="-155.5" font-family="Helvetica,sans-Serif" font-size="10.00">/Sync/ListenerSocket.hpp</text>
</a>
</g>
</g>
<!-- Node13&#45;&gt;Node14 -->
<g id="edge17_Node000013_Node000014" class="edge">
<title>Node13&#45;&gt;Node14</title>
<g id="a_edge17_Node000013_Node000014"><a xlink:title=" ">
<path fill="none" stroke="#63b8ff" d="M742.52,-215.04C742.04,-202.95 741.47,-188.79 741.06,-178.54"/>
<polygon fill="#63b8ff" stroke="#63b8ff" points="739.04,-215.54 742.94,-225.39 746.03,-215.26 739.04,-215.54"/>
</a>
</g>
</g>
<!-- Node15&#45;&gt;Node7 -->
<g id="edge19_Node000015_Node000007" class="edge">
<title>Node15&#45;&gt;Node7</title>
<g id="a_edge19_Node000015_Node000007"><a xlink:title=" ">
<path fill="none" stroke="#63b8ff" d="M1008.22,-210.55C1003.84,-201.69 999.14,-192.15 995.16,-184.07"/>
<polygon fill="#63b8ff" stroke="#63b8ff" points="1005.22,-212.38 1012.78,-219.79 1011.49,-209.28 1005.22,-212.38"/>
</a>
</g>
</g>
<!-- Node16 -->
<g id="Node000016" class="node">
<title>Node16</title>
<g id="a_Node000016"><a xlink:href="_tls_accept_state_machine_8hpp.html" target="_top" xlink:title=" ">
<polygon fill="white" stroke="#666666" points="1298.5,-184 1138.5,-184 1138.5,-143 1298.5,-143 1298.5,-184"/>
<text text-anchor="start" x="1146.5" y="-172" font-family="Helvetica,sans-Serif" font-size="10.00">include/Hermes/Socket</text>
<text text-anchor="start" x="1146.5" y="-161" font-family="Helvetica,sans-Serif" font-size="10.00">/_base/Accept/TlsAcceptState</text>
<text text-anchor="middle" x="1218.5" y="-150" font-family="Helvetica,sans-Serif" font-size="10.00">Machine.hpp</text>
</a>
</g>
</g>
<!-- Node15&#45;&gt;Node16 -->
<g id="edge20_Node000015_Node000016" class="edge">
<title>Node15&#45;&gt;Node16</title>
<g id="a_edge20_Node000015_Node000016"><a xlink:title=" ">
<path fill="none" stroke="#63b8ff" d="M1082.86,-216.4C1109.94,-206.04 1141.54,-193.95 1167.43,-184.04"/>
<polygon fill="#63b8ff" stroke="#63b8ff" points="1081.57,-213.15 1073.49,-219.99 1084.08,-219.69 1081.57,-213.15"/>
</a>
</g>
</g>
<!-- Node18 -->
<g id="Node000018" class="node">
<title>Node18</title>
<g id="a_Node000018"><a xlink:href="_client_socket_8hpp.html" target="_top" xlink:title=" ">
<polygon fill="white" stroke="#666666" points="577.5,-178.5 449.5,-178.5 449.5,-148.5 577.5,-148.5 577.5,-178.5"/>
<text text-anchor="start" x="457.5" y="-166.5" font-family="Helvetica,sans-Serif" font-size="10.00">include/Hermes/Socket</text>
<text text-anchor="middle" x="513.5" y="-155.5" font-family="Helvetica,sans-Serif" font-size="10.00">/Sync/ClientSocket.hpp</text>
</a>
</g>
</g>
<!-- Node17&#45;&gt;Node18 -->
<g id="edge22_Node000017_Node000018" class="edge">
<title>Node17&#45;&gt;Node18</title>
<g id="a_edge22_Node000017_Node000018"><a xlink:title=" ">
<path fill="none" stroke="#63b8ff" d="M471.59,-286.64C475.85,-267.39 482.08,-241.94 489.5,-220 494.34,-205.68 501.33,-189.91 506.52,-178.85"/>
<polygon fill="#63b8ff" stroke="#63b8ff" points="468.13,-286.12 469.44,-296.64 474.97,-287.6 468.13,-286.12"/>
</a>
</g>
</g>
<!-- Node17&#45;&gt;Node19 -->
<g id="edge23_Node000017_Node000019" class="edge">
<title>Node17&#45;&gt;Node19</title>
<g id="a_edge23_Node000017_Node000019"><a xlink:title=" ">
<path fill="none" stroke="#63b8ff" d="M432.72,-290.35C420.67,-280.73 407.24,-270.01 396.03,-261.07"/>
<polygon fill="#63b8ff" stroke="#63b8ff" points="430.8,-293.29 440.8,-296.79 435.17,-287.82 430.8,-293.29"/>
</a>
</g>
</g>
<!-- Node19&#45;&gt;Node8 -->
<g id="edge24_Node000019_Node000008" class="edge">
<title>Node19&#45;&gt;Node8</title>
<g id="a_edge24_Node000019_Node000008"><a xlink:title=" ">
<path fill="none" stroke="#63b8ff" d="M295.56,-219.52C253.82,-208.53 202.25,-194.96 160.78,-184.05"/>
<polygon fill="#63b8ff" stroke="#63b8ff" points="294.84,-222.94 305.4,-222.1 296.62,-216.18 294.84,-222.94"/>
</a>
</g>
</g>
<!-- Node19&#45;&gt;Node10 -->
<g id="edge25_Node000019_Node000010" class="edge">
<title>Node19&#45;&gt;Node10</title>
<g id="a_edge25_Node000019_Node000010"><a xlink:title=" ">
<path fill="none" stroke="#63b8ff" d="M388.9,-211.11C393.53,-202.63 398.16,-193.14 401.5,-184 410.89,-158.28 416.35,-127.02 419.13,-107.18"/>
<polygon fill="#63b8ff" stroke="#63b8ff" points="385.82,-209.44 383.94,-219.86 391.91,-212.89 385.82,-209.44"/>
</a>
</g>
</g>
<!-- Node19&#45;&gt;Node18 -->
<g id="edge26_Node000019_Node000018" class="edge">
<title>Node19&#45;&gt;Node18</title>
<g id="a_edge26_Node000019_Node000018"><a xlink:title=" ">
<path fill="none" stroke="#63b8ff" d="M417.31,-215.3C440.2,-203.22 467.09,-189.01 486.61,-178.7"/>
<polygon fill="#63b8ff" stroke="#63b8ff" points="415.65,-212.23 408.44,-219.99 418.92,-218.41 415.65,-212.23"/>
</a>
</g>
</g>
<!-- Node20 -->
<g id="Node000020" class="node">
<title>Node20</title>
<g id="a_Node000020"><a xlink:href="_tls_connect_state_machine_8hpp.html" target="_top" xlink:title=" ">
<polygon fill="white" stroke="#666666" points="393,-184 230,-184 230,-143 393,-143 393,-184"/>
<text text-anchor="start" x="238" y="-172" font-family="Helvetica,sans-Serif" font-size="10.00">include/Hermes/Socket</text>
<text text-anchor="start" x="238" y="-161" font-family="Helvetica,sans-Serif" font-size="10.00">/_base/Connection/TlsConnect</text>
<text text-anchor="middle" x="311.5" y="-150" font-family="Helvetica,sans-Serif" font-size="10.00">StateMachine.hpp</text>
</a>
</g>
</g>
<!-- Node19&#45;&gt;Node20 -->
<g id="edge27_Node000019_Node000020" class="edge">
<title>Node19&#45;&gt;Node20</title>
<g id="a_edge27_Node000019_Node000020"><a xlink:title=" ">
<path fill="none" stroke="#63b8ff" d="M349.46,-211.95C342.06,-202.7 333.97,-192.58 327.16,-184.07"/>
<polygon fill="#63b8ff" stroke="#63b8ff" points="346.76,-214.17 355.74,-219.79 352.22,-209.8 346.76,-214.17"/>
</a>
</g>
</g>
<!-- Node21&#45;&gt;Node13 -->
<g id="edge30_Node000021_Node000013" class="edge">
<title>Node21&#45;&gt;Node13</title>
<g id="a_edge30_Node000021_Node000013"><a xlink:title=" ">
<path fill="none" stroke="#63b8ff" d="M693.51,-289.57C705.35,-278.18 718.66,-265.39 728.56,-255.86"/>
<polygon fill="#63b8ff" stroke="#63b8ff" points="690.78,-287.34 685.99,-296.79 695.63,-292.39 690.78,-287.34"/>
</a>
</g>
</g>
<!-- Node21&#45;&gt;Node18 -->
<g id="edge29_Node000021_Node000018" class="edge">
<title>Node21&#45;&gt;Node18</title>
<g id="a_edge29_Node000021_Node000018"><a xlink:title=" ">
<path fill="none" stroke="#63b8ff" d="M584.01,-301.85C560.68,-293.66 537.52,-280.89 522.5,-261 504.25,-236.83 507.21,-198.94 510.58,-178.57"/>
<polygon fill="#63b8ff" stroke="#63b8ff" points="583.05,-305.22 593.64,-304.98 585.21,-298.56 583.05,-305.22"/>
</a>
</g>
</g>
<!-- Node22&#45;&gt;Node7 -->
<g id="edge32_Node000022_Node000007" class="edge">
<title>Node22&#45;&gt;Node7</title>
<g id="a_edge32_Node000022_Node000007"><a xlink:title=" ">
<path fill="none" stroke="#63b8ff" d="M838.22,-293.7C852.33,-272.95 875.05,-242.26 899.5,-220 914.48,-206.36 933.17,-193.87 949.3,-184.2"/>
<polygon fill="#63b8ff" stroke="#63b8ff" points="835.19,-291.94 832.55,-302.2 841.01,-295.83 835.19,-291.94"/>
</a>
</g>
</g>
<!-- Node22&#45;&gt;Node10 -->
<g id="edge33_Node000022_Node000010" class="edge">
<title>Node22&#45;&gt;Node10</title>
<g id="a_edge33_Node000022_Node000010"><a xlink:title=" ">
<path fill="none" stroke="#63b8ff" d="M831.5,-292.21C842.04,-255.04 855.28,-184.07 818.5,-143 777.12,-96.79 600.89,-88.03 497.66,-86.96"/>
<polygon fill="#63b8ff" stroke="#63b8ff" points="828.03,-291.58 828.5,-302.16 834.73,-293.6 828.03,-291.58"/>
</a>
</g>
</g>
<!-- Node22&#45;&gt;Node15 -->
<g id="edge37_Node000022_Node000015" class="edge">
<title>Node22&#45;&gt;Node15</title>
<g id="a_edge37_Node000022_Node000015"><a xlink:title=" ">
<path fill="none" stroke="#63b8ff" d="M870.36,-298.84C900.45,-287.5 939.56,-272.76 970.59,-261.06"/>
<polygon fill="#63b8ff" stroke="#63b8ff" points="869.05,-295.59 860.93,-302.39 871.52,-302.14 869.05,-295.59"/>
</a>
</g>
</g>
<!-- Node22&#45;&gt;Node19 -->
<g id="edge38_Node000022_Node000019" class="edge">
<title>Node22&#45;&gt;Node19</title>
<g id="a_edge38_Node000022_Node000019"><a xlink:title=" ">
<path fill="none" stroke="#63b8ff" d="M760.59,-300.21C755.5,-299.07 750.42,-297.98 745.5,-297 688.04,-285.58 528.88,-263.1 437.78,-250.54"/>
<polygon fill="#63b8ff" stroke="#63b8ff" points="759.84,-303.63 770.37,-302.48 761.42,-296.81 759.84,-303.63"/>
</a>
</g>
</g>
<!-- Node23 -->
<g id="Node000023" class="node">
<title>Node23</title>
<g id="a_Node000023"><a xlink:href="_tls_async_transfer_policy_8hpp.html" target="_top" xlink:title=" ">
<polygon fill="white" stroke="#666666" points="1522,-261 1371,-261 1371,-220 1522,-220 1522,-261"/>
<text text-anchor="start" x="1379" y="-249" font-family="Helvetica,sans-Serif" font-size="10.00">include/Hermes/Socket</text>
<text text-anchor="start" x="1379" y="-238" font-family="Helvetica,sans-Serif" font-size="10.00">/Async/_base/Transfer</text>
<text text-anchor="middle" x="1446.5" y="-227" font-family="Helvetica,sans-Serif" font-size="10.00">/TlsAsyncTransferPolicy.hpp</text>
</a>
</g>
</g>
<!-- Node22&#45;&gt;Node23 -->
<g id="edge34_Node000022_Node000023" class="edge">
<title>Node22&#45;&gt;Node23</title>
<g id="a_edge34_Node000022_Node000023"><a xlink:title=" ">
<path fill="none" stroke="#63b8ff" d="M902.04,-302.61C914.55,-300.6 927.37,-298.65 939.5,-297 1092.26,-276.21 1131.3,-278.21 1284.5,-261 1312.65,-257.84 1343.53,-254.17 1370.71,-250.87"/>
<polygon fill="#63b8ff" stroke="#63b8ff" points="901.4,-299.17 892.09,-304.24 902.52,-306.08 901.4,-299.17"/>
</a>
</g>
</g>
<!-- Node24 -->
<g id="Node000024" class="node">
<title>Node24</title>
<g id="a_Node000024"><a xlink:href="_tls_transfer_policy_8hpp.html" target="_top" xlink:title=" ">
<polygon fill="white" stroke="#666666" points="659.5,-261 531.5,-261 531.5,-220 659.5,-220 659.5,-261"/>
<text text-anchor="start" x="539.5" y="-249" font-family="Helvetica,sans-Serif" font-size="10.00">include/Hermes/Socket</text>
<text text-anchor="start" x="539.5" y="-238" font-family="Helvetica,sans-Serif" font-size="10.00">/Sync/_base/Transfer</text>
<text text-anchor="middle" x="595.5" y="-227" font-family="Helvetica,sans-Serif" font-size="10.00">/TlsTransferPolicy.hpp</text>
</a>
</g>
</g>
<!-- Node22&#45;&gt;Node24 -->
<g id="edge39_Node000022_Node000024" class="edge">
<title>Node22&#45;&gt;Node24</title>
<g id="a_edge39_Node000022_Node000024"><a xlink:title=" ">
<path fill="none" stroke="#63b8ff" d="M770.98,-299.22C736.39,-287.85 691.04,-272.93 655.11,-261.11"/>
<polygon fill="#63b8ff" stroke="#63b8ff" points="770.29,-302.68 780.88,-302.48 772.48,-296.03 770.29,-302.68"/>
</a>
</g>
</g>
<!-- Node23&#45;&gt;Node5 -->
<g id="edge36_Node000023_Node000005" class="edge">
<title>Node23&#45;&gt;Node5</title>
<g id="a_edge36_Node000023_Node000005"><a xlink:title=" ">
<path fill="none" stroke="#63b8ff" d="M1481.84,-214.01C1498.2,-202.22 1517.02,-188.65 1530.81,-178.7"/>
<polygon fill="#63b8ff" stroke="#63b8ff" points="1479.62,-211.3 1473.55,-219.99 1483.71,-216.98 1479.62,-211.3"/>
</a>
</g>
</g>
<!-- Node23&#45;&gt;Node9 -->
<g id="edge35_Node000023_Node000009" class="edge">
<title>Node23&#45;&gt;Node9</title>
<g id="a_edge35_Node000023_Node000009"><a xlink:title=" ">
<path fill="none" stroke="#63b8ff" d="M1440.28,-209.91C1430.19,-169.96 1406.17,-99.87 1356.5,-66 1294.42,-23.66 1082.14,-16.21 963.47,-15.47"/>
<polygon fill="#63b8ff" stroke="#63b8ff" points="1436.93,-210.94 1442.66,-219.85 1443.74,-209.31 1436.93,-210.94"/>
</a>
</g>
</g>
<!-- Node24&#45;&gt;Node18 -->
<g id="edge40_Node000024_Node000018" class="edge">
<title>Node24&#45;&gt;Node18</title>
<g id="a_edge40_Node000024_Node000018"><a xlink:title=" ">
<path fill="none" stroke="#63b8ff" d="M566.36,-212.84C553.73,-201.3 539.47,-188.25 528.94,-178.63"/>
<polygon fill="#63b8ff" stroke="#63b8ff" points="564.21,-215.63 573.96,-219.79 568.94,-210.46 564.21,-215.63"/>
</a>
</g>
</g>
<!-- Node25&#45;&gt;Node3 -->
<g id="edge52_Node000025_Node000003" class="edge">
<title>Node25&#45;&gt;Node3</title>
<g id="a_edge52_Node000025_Node000003"><a xlink:title=" ">
<path fill="none" stroke="#63b8ff" d="M921.13,-448.32C876.14,-436.47 816.41,-420.75 773.84,-409.54"/>
<polygon fill="#63b8ff" stroke="#63b8ff" points="920.51,-451.77 931.08,-450.94 922.3,-445.01 920.51,-451.77"/>
</a>
</g>
</g>
<!-- Node25&#45;&gt;Node4 -->
<g id="edge46_Node000025_Node000004" class="edge">
<title>Node25&#45;&gt;Node4</title>
<g id="a_edge46_Node000025_Node000004"><a xlink:title=" ">
<path fill="none" stroke="#63b8ff" d="M1049.3,-447.47C1069.72,-439.8 1091.4,-429.22 1108.5,-415 1158.46,-373.45 1184.04,-296.98 1193.75,-261.08"/>
<polygon fill="#63b8ff" stroke="#63b8ff" points="1047.95,-444.24 1039.71,-450.9 1050.31,-450.83 1047.95,-444.24"/>
</a>
</g>
</g>
<!-- Node25&#45;&gt;Node5 -->
<g id="edge45_Node000025_Node000005" class="edge">
<title>Node25&#45;&gt;Node5</title>
<g id="a_edge45_Node000025_Node000005"><a xlink:title=" ">
<path fill="none" stroke="#63b8ff" d="M1058.85,-465.17C1228.24,-464.79 1631.39,-459.21 1672.5,-415 1741.68,-340.61 1615.27,-219.7 1567.6,-178.65"/>
<polygon fill="#63b8ff" stroke="#63b8ff" points="1058.76,-461.67 1048.77,-465.19 1058.78,-468.67 1058.76,-461.67"/>
</a>
</g>
</g>
<!-- Node25&#45;&gt;Node6 -->
<g id="edge44_Node000025_Node000006" class="edge">
<title>Node25&#45;&gt;Node6</title>
<g id="a_edge44_Node000025_Node000006"><a xlink:title=" ">
<path fill="none" stroke="#63b8ff" d="M1058.84,-463.94C1230.47,-460.9 1643.68,-449.99 1695.5,-415 1735.04,-388.3 1742.5,-366.21 1742.5,-318.5 1742.5,-318.5 1742.5,-318.5 1742.5,-239.5 1742.5,-180.82 1690.73,-126.35 1663.22,-101.56"/>
<polygon fill="#63b8ff" stroke="#63b8ff" points="1058.57,-460.44 1048.63,-464.11 1058.69,-467.44 1058.57,-460.44"/>
</a>
</g>
</g>
<!-- Node25&#45;&gt;Node7 -->
<g id="edge47_Node000025_Node000007" class="edge">
<title>Node25&#45;&gt;Node7</title>
<g id="a_edge47_Node000025_Node000007"><a xlink:title=" ">
<path fill="none" stroke="#63b8ff" d="M985.2,-440.5C984.84,-421.52 982.3,-395 972.5,-374 963.32,-354.33 948.28,-357.85 939.5,-338 918.26,-289.95 912.96,-268.77 932.5,-220 938.1,-206.03 949.08,-193.57 959.61,-184.02"/>
<polygon fill="#63b8ff" stroke="#63b8ff" points="981.7,-440.71 985.2,-450.71 988.7,-440.71 981.7,-440.71"/>
</a>
</g>
</g>
<!-- Node25&#45;&gt;Node8 -->
<g id="edge48_Node000025_Node000008" class="edge">
<title>Node25&#45;&gt;Node8</title>
<g id="a_edge48_Node000025_Node000008"><a xlink:title=" ">
<path fill="none" stroke="#63b8ff" d="M910.38,-462.48C718.16,-455.67 216.54,-435.96 187.5,-415 109.74,-358.89 91.76,-232.57 87.68,-184.02"/>
<polygon fill="#63b8ff" stroke="#63b8ff" points="910.28,-465.98 920.39,-462.83 910.52,-458.98 910.28,-465.98"/>
</a>
</g>
</g>
<!-- Node25&#45;&gt;Node10 -->
<g id="edge49_Node000025_Node000010" class="edge">
<title>Node25&#45;&gt;Node10</title>
<g id="a_edge49_Node000025_Node000010"><a xlink:title=" ">
<path fill="none" stroke="#63b8ff" d="M910.29,-462.57C723.36,-456.13 246.16,-437.55 220.5,-415 187.66,-386.15 201.5,-362.21 201.5,-318.5 201.5,-318.5 201.5,-318.5 201.5,-239.5 201.5,-195.79 190.77,-175.05 220.5,-143 237.7,-124.46 296.02,-109.62 345.44,-99.97"/>
<polygon fill="#63b8ff" stroke="#63b8ff" points="910.19,-466.07 920.3,-462.91 910.43,-459.07 910.19,-466.07"/>
</a>
</g>
</g>
<!-- Node25&#45;&gt;Node11 -->
<g id="edge50_Node000025_Node000011" class="edge">
<title>Node25&#45;&gt;Node11</title>
<g id="a_edge50_Node000025_Node000011"><a xlink:title=" ">
<path fill="none" stroke="#63b8ff" d="M1058.9,-461.42C1173.39,-455.15 1381.99,-440.35 1404.5,-415 1423.25,-393.88 1410.54,-359.58 1399.28,-338.07"/>
<polygon fill="#63b8ff" stroke="#63b8ff" points="1058.59,-457.93 1048.79,-461.97 1058.97,-464.92 1058.59,-457.93"/>
</a>
</g>
</g>
<!-- Node25&#45;&gt;Node12 -->
<g id="edge54_Node000025_Node000012" class="edge">
<title>Node25&#45;&gt;Node12</title>
<g id="a_edge54_Node000025_Node000012"><a xlink:title=" ">
<path fill="none" stroke="#63b8ff" d="M1001.8,-442.55C1007.5,-434.26 1013.42,-424.55 1017.5,-415 1028.3,-389.72 1034.19,-358.34 1037.1,-338.37"/>
<polygon fill="#63b8ff" stroke="#63b8ff" points="998.78,-440.75 995.79,-450.92 1004.47,-444.83 998.78,-440.75"/>
</a>
</g>
</g>
<!-- Node25&#45;&gt;Node15 -->
<g id="edge55_Node000025_Node000015" class="edge">
<title>Node25&#45;&gt;Node15</title>
<g id="a_edge55_Node000025_Node000015"><a xlink:title=" ">
<path fill="none" stroke="#63b8ff" d="M1023.53,-446.02C1061.13,-425.32 1115.69,-388.29 1139.5,-338 1147.3,-321.53 1149.24,-312.4 1139.5,-297 1129.29,-280.85 1112.96,-269.31 1095.7,-261.09"/>
<polygon fill="#63b8ff" stroke="#63b8ff" points="1021.53,-443.12 1014.37,-450.93 1024.84,-449.29 1021.53,-443.12"/>
</a>
</g>
</g>
<!-- Node25&#45;&gt;Node17 -->
<g id="edge56_Node000025_Node000017" class="edge">
<title>Node25&#45;&gt;Node17</title>
<g id="a_edge56_Node000025_Node000017"><a xlink:title=" ">
<path fill="none" stroke="#63b8ff" d="M910.2,-462.08C805.67,-456.97 621.27,-444.08 561.5,-415 525.59,-397.53 495.25,-361.07 478.78,-338.31"/>
<polygon fill="#63b8ff" stroke="#63b8ff" points="910.22,-465.58 920.37,-462.56 910.55,-458.59 910.22,-465.58"/>
</a>
</g>
</g>
<!-- Node25&#45;&gt;Node19 -->
<g id="edge57_Node000025_Node000019" class="edge">
<title>Node25&#45;&gt;Node19</title>
<g id="a_edge57_Node000025_Node000019"><a xlink:title=" ">
<path fill="none" stroke="#63b8ff" d="M910.2,-461.41C794.83,-455.14 578.31,-440.38 505.5,-415 445.31,-394.02 418.84,-391.7 384.5,-338 369.65,-314.79 368.44,-282.01 369.52,-261.26"/>
<polygon fill="#63b8ff" stroke="#63b8ff" points="910.19,-464.92 920.36,-461.96 910.56,-457.93 910.19,-464.92"/>
</a>
</g>
</g>
<!-- Node25&#45;&gt;Node21 -->
<g id="edge58_Node000025_Node000021" class="edge">
<title>Node25&#45;&gt;Node21</title>
<g id="a_edge58_Node000025_Node000021"><a xlink:title=" ">
<path fill="none" stroke="#63b8ff" d="M910.09,-465.38C817.63,-464.08 667.7,-455.55 632.5,-415 613.35,-392.94 632.59,-359.23 648.7,-338.05"/>
<polygon fill="#63b8ff" stroke="#63b8ff" points="910.2,-468.88 920.24,-465.5 910.28,-461.88 910.2,-468.88"/>
</a>
</g>
</g>
<!-- Node25&#45;&gt;Node22 -->
<g id="edge53_Node000025_Node000022" class="edge">
<title>Node25&#45;&gt;Node22</title>
<g id="a_edge53_Node000025_Node000022"><a xlink:title=" ">
<path fill="none" stroke="#63b8ff" d="M979.35,-440.95C973.94,-420.84 963.64,-392.54 945.5,-374 926.46,-354.54 899.34,-341.27 875.51,-332.61"/>
<polygon fill="#63b8ff" stroke="#63b8ff" points="976.01,-442.03 981.8,-450.9 982.8,-440.35 976.01,-442.03"/>
</a>
</g>
</g>
<!-- Node25&#45;&gt;Node23 -->
<g id="edge51_Node000025_Node000023" class="edge">
<title>Node25&#45;&gt;Node23</title>
<g id="a_edge51_Node000025_Node000023"><a xlink:title=" ">
<path fill="none" stroke="#63b8ff" d="M1058.8,-464.95C1223.56,-464.07 1608.15,-457.43 1647.5,-415 1683.16,-376.55 1679.27,-338.73 1647.5,-297 1632.01,-276.66 1572.42,-261.87 1522.12,-252.69"/>
<polygon fill="#63b8ff" stroke="#63b8ff" points="1058.73,-461.45 1048.75,-465 1058.76,-468.45 1058.73,-461.45"/>
</a>
</g>
</g>
<!-- Node25&#45;&gt;Node24 -->
<g id="edge59_Node000025_Node000024" class="edge">
<title>Node25&#45;&gt;Node24</title>
<g id="a_edge59_Node000025_Node000024"><a xlink:title=" ">
<path fill="none" stroke="#63b8ff" d="M909.97,-462.91C817.39,-458.95 666.16,-447.55 621.5,-415 577.08,-382.63 579.13,-351.7 584.5,-297 585.68,-284.98 588.27,-271.69 590.63,-261.14"/>
<polygon fill="#63b8ff" stroke="#63b8ff" points="910,-466.42 920.13,-463.33 910.28,-459.42 910,-466.42"/>
</a>
</g>
</g>
<!-- Node26 -->
<g id="Node000026" class="node">
<title>Node26</title>
<g id="a_Node000026"><a xlink:href="_i_tls_accept_state_machine_8hpp.html" target="_top" xlink:title=" ">
<polygon fill="white" stroke="#666666" points="1396,-415 1233,-415 1233,-374 1396,-374 1396,-415"/>
<text text-anchor="start" x="1241" y="-403" font-family="Helvetica,sans-Serif" font-size="10.00">include/Hermes/Socket</text>
<text text-anchor="start" x="1241" y="-392" font-family="Helvetica,sans-Serif" font-size="10.00">/_base/Accept/ITlsAcceptState</text>
<text text-anchor="middle" x="1314.5" y="-381" font-family="Helvetica,sans-Serif" font-size="10.00">Machine.hpp</text>
</a>
</g>
</g>
<!-- Node25&#45;&gt;Node26 -->
<g id="edge60_Node000025_Node000026" class="edge">
<title>Node25&#45;&gt;Node26</title>
<g id="a_edge60_Node000025_Node000026"><a xlink:title=" ">
<path fill="none" stroke="#63b8ff" d="M1058.63,-449.39C1110.37,-438.49 1179.45,-423.94 1232.79,-412.71"/>
<polygon fill="#63b8ff" stroke="#63b8ff" points="1057.58,-446.03 1048.52,-451.52 1059.03,-452.88 1057.58,-446.03"/>
</a>
</g>
</g>
<!-- Node27 -->
<g id="Node000027" class="node">
<title>Node27</title>
<g id="a_Node000027"><a xlink:href="_i_tls_connect_state_machine_8hpp.html" target="_top" xlink:title=" ">
<polygon fill="white" stroke="#666666" points="395.5,-415 229.5,-415 229.5,-374 395.5,-374 395.5,-415"/>
<text text-anchor="start" x="237.5" y="-403" font-family="Helvetica,sans-Serif" font-size="10.00">include/Hermes/Socket</text>
<text text-anchor="start" x="237.5" y="-392" font-family="Helvetica,sans-Serif" font-size="10.00">/_base/Connection/ITlsConnect</text>
<text text-anchor="middle" x="312.5" y="-381" font-family="Helvetica,sans-Serif" font-size="10.00">StateMachine.hpp</text>
</a>
</g>
</g>
<!-- Node25&#45;&gt;Node27 -->
<g id="edge62_Node000025_Node000027" class="edge">
<title>Node25&#45;&gt;Node27</title>
<g id="a_edge62_Node000025_Node000027"><a xlink:title=" ">
<path fill="none" stroke="#63b8ff" d="M910.11,-461.19C800.22,-454.96 588.22,-440.65 409.5,-415 404.99,-414.35 400.38,-413.63 395.73,-412.86"/>
<polygon fill="#63b8ff" stroke="#63b8ff" points="910.24,-464.7 920.42,-461.77 910.63,-457.72 910.24,-464.7"/>
</a>
</g>
</g>
<!-- Node28 -->
<g id="Node000028" class="node">
<title>Node28</title>
<g id="a_Node000028"><a xlink:href="_i_tls_transfer_state_machine_8hpp.html" target="_top" xlink:title=" ">
<polygon fill="white" stroke="#666666" points="1639,-415 1490,-415 1490,-374 1639,-374 1639,-415"/>
<text text-anchor="start" x="1498" y="-403" font-family="Helvetica,sans-Serif" font-size="10.00">include/Hermes/Socket</text>
<text text-anchor="start" x="1498" y="-392" font-family="Helvetica,sans-Serif" font-size="10.00">/_base/Transfer/ITlsTransfer</text>
<text text-anchor="middle" x="1564.5" y="-381" font-family="Helvetica,sans-Serif" font-size="10.00">StateMachine.hpp</text>
</a>
</g>
</g>
<!-- Node25&#45;&gt;Node28 -->
<g id="edge64_Node000025_Node000028" class="edge">
<title>Node25&#45;&gt;Node28</title>
<g id="a_edge64_Node000025_Node000028"><a xlink:title=" ">
<path fill="none" stroke="#63b8ff" d="M1059.15,-460.14C1155.86,-453.22 1329.49,-438.67 1476.5,-415 1480.83,-414.3 1485.26,-413.53 1489.72,-412.69"/>
<polygon fill="#63b8ff" stroke="#63b8ff" points="1058.62,-456.67 1048.89,-460.87 1059.11,-463.65 1058.62,-456.67"/>
</a>
</g>
</g>
<!-- Node29 -->
<g id="Node000029" class="node">
<title>Node29</title>
<g id="a_Node000029"><a xlink:href="_tls_transfer_state_machine_8hpp.html" target="_top" xlink:title=" ">
<polygon fill="white" stroke="#666666" points="1638.5,-338 1492.5,-338 1492.5,-297 1638.5,-297 1638.5,-338"/>
<text text-anchor="start" x="1500.5" y="-326" font-family="Helvetica,sans-Serif" font-size="10.00">include/Hermes/Socket</text>
<text text-anchor="start" x="1500.5" y="-315" font-family="Helvetica,sans-Serif" font-size="10.00">/_base/Transfer/TlsTransfer</text>
<text text-anchor="middle" x="1565.5" y="-304" font-family="Helvetica,sans-Serif" font-size="10.00">StateMachine.hpp</text>
</a>
</g>
</g>
<!-- Node25&#45;&gt;Node29 -->
<g id="edge66_Node000025_Node000029" class="edge">
<title>Node25&#45;&gt;Node29</title>
<g id="a_edge66_Node000025_Node000029"><a xlink:title=" ">
<path fill="none" stroke="#63b8ff" d="M1058.91,-461C1166.22,-454.48 1358.67,-439.73 1423.5,-415 1453,-403.75 1455.44,-391.81 1481.5,-374 1499.25,-361.87 1519.33,-348.58 1535.41,-338.05"/>
<polygon fill="#63b8ff" stroke="#63b8ff" points="1058.57,-457.51 1048.8,-461.61 1058.99,-464.5 1058.57,-457.51"/>
</a>
</g>
</g>
<!-- Node30 -->
<g id="Node000030" class="node">
<title>Node30</title>
<g id="a_Node000030"><a xlink:href="_to_bytes_8hpp.html" target="_top" xlink:title=" ">
<polygon fill="white" stroke="#666666" points="937,-409.5 818,-409.5 818,-379.5 937,-379.5 937,-409.5"/>
<text text-anchor="start" x="826" y="-397.5" font-family="Helvetica,sans-Serif" font-size="10.00">include/Hermes/Utils</text>
<text text-anchor="middle" x="877.5" y="-386.5" font-family="Helvetica,sans-Serif" font-size="10.00">/ToBytes.hpp</text>
</a>
</g>
</g>
<!-- Node25&#45;&gt;Node30 -->
<g id="edge67_Node000025_Node000030" class="edge">
<title>Node25&#45;&gt;Node30</title>
<g id="a_edge67_Node000025_Node000030"><a xlink:title=" ">
<path fill="none" stroke="#63b8ff" d="M954.1,-445.25C936.56,-433.86 914.92,-419.81 899.12,-409.54"/>
<polygon fill="#63b8ff" stroke="#63b8ff" points="952.55,-448.42 962.85,-450.94 956.37,-442.55 952.55,-448.42"/>
</a>
</g>
</g>
<!-- Node26&#45;&gt;Node16 -->
<g id="edge61_Node000026_Node000016" class="edge">
<title>Node26&#45;&gt;Node16</title>
<g id="a_edge61_Node000026_Node000016"><a xlink:title=" ">
<path fill="none" stroke="#63b8ff" d="M1300.41,-364.63C1296.89,-356.23 1293.55,-346.91 1291.5,-338 1279.72,-286.8 1308.08,-266.95 1284.5,-220 1277.24,-205.55 1264.36,-193.42 1251.9,-184.21"/>
<polygon fill="#63b8ff" stroke="#63b8ff" points="1297.3,-366.26 1304.54,-373.99 1303.7,-363.43 1297.3,-366.26"/>
</a>
</g>
</g>
<!-- Node27&#45;&gt;Node20 -->
<g id="edge63_Node000027_Node000020" class="edge">
<title>Node27&#45;&gt;Node20</title>
<g id="a_edge63_Node000027_Node000020"><a xlink:title=" ">
<path fill="none" stroke="#63b8ff" d="M305.77,-364.02C298.8,-329.43 289.81,-270.41 296.5,-220 298.12,-207.83 301.64,-194.54 304.87,-184.02"/>
<polygon fill="#63b8ff" stroke="#63b8ff" points="302.37,-364.86 307.85,-373.93 309.22,-363.42 302.37,-364.86"/>
</a>
</g>
</g>
<!-- Node28&#45;&gt;Node29 -->
<g id="edge65_Node000028_Node000029" class="edge">
<title>Node28&#45;&gt;Node29</title>
<g id="a_edge65_Node000028_Node000029"><a xlink:title=" ">
<path fill="none" stroke="#63b8ff" d="M1564.9,-363.69C1565.01,-355.08 1565.13,-345.9 1565.24,-338.07"/>
<polygon fill="#63b8ff" stroke="#63b8ff" points="1561.4,-363.75 1564.76,-373.79 1568.4,-363.84 1561.4,-363.75"/>
</a>
</g>
</g>
</g>
</svg>
