<?xml version="1.0" encoding="UTF-8" standalone="no"?>
<!DOCTYPE svg PUBLIC "-//W3C//DTD SVG 1.1//EN"
 "http://www.w3.org/Graphics/SVG/1.1/DTD/svg11.dtd">
<!-- Generated by graphviz version 2.43.0 (0)
 -->
<!-- Title: include/Hermes/Endpoint/_base/EndpointConcept.hpp Pages: 1 -->
<svg width="4169pt" height="236pt"
 viewBox="0.00 0.00 4168.50 236.00" xmlns="http://www.w3.org/2000/svg" xmlns:xlink="http://www.w3.org/1999/xlink">
<g id="graph0" class="graph" transform="scale(1 1) rotate(0) translate(4 232)">
<title>include/Hermes/Endpoint/_base/EndpointConcept.hpp</title>
<!-- Node1 -->
<g id="Node000001" class="node">
<title>Node1</title>
<g id="a_Node000001"><a xlink:title=" ">
<polygon fill="#999999" stroke="#666666" points="1445.5,-228 1290.5,-228 1290.5,-198 1445.5,-198 1445.5,-228"/>
<text text-anchor="start" x="1298.5" y="-216" font-family="Helvetica,sans-Serif" font-size="10.00">include/Hermes/Endpoint</text>
<text text-anchor="middle" x="1368" y="-205" font-family="Helvetica,sans-Serif" font-size="10.00">/_base/EndpointConcept.hpp</text>
</a>
</g>
</g>
<!-- Node2 -->
<g id="Node000002" class="node">
<title>Node2</title>
<g id="a_Node000002"><a xlink:href="_connection_error_enum_8hpp.html" target="_top" xlink:title=" ">
<polygon fill="white" stroke="#666666" points="524.5,-162 357.5,-162 357.5,-132 524.5,-132 524.5,-162"/>
<text text-anchor="start" x="365.5" y="-150" font-family="Helvetica,sans-Serif" font-size="10.00">Hermes/_base/ConnectionError</text>
<text text-anchor="middle" x="441" y="-139" font-family="Helvetica,sans-Serif" font-size="10.00">Enum.hpp</text>
</a>
</g>
</g>
<!-- Node1&#45;&gt;Node2 -->
<g id="edge1_Node000001_Node000002" class="edge">
<title>Node1&#45;&gt;Node2</title>
<g id="a_edge1_Node000001_Node000002"><a xlink:title=" ">
<path fill="none" stroke="#63b8ff" d="M1290.16,-206.63C1120.56,-194.92 718.24,-167.14 534.92,-154.48"/>
<polygon fill="#63b8ff" stroke="#63b8ff" points="534.98,-150.98 524.76,-153.78 534.5,-157.96 534.98,-150.98"/>
</a>
</g>
</g>
<!-- Node10 -->
<g id="Node000010" class="node">
<title>Node10</title>
<g id="a_Node000010"><a xlink:href="_win_api_8hpp.html" target="_top" xlink:title=" ">
<polygon fill="white" stroke="#666666" points="2442,-162 2318,-162 2318,-132 2442,-132 2442,-162"/>
<text text-anchor="start" x="2326" y="-150" font-family="Helvetica,sans-Serif" font-size="10.00">Hermes/_base/WinApi</text>
<text text-anchor="middle" x="2380" y="-139" font-family="Helvetica,sans-Serif" font-size="10.00">/WinApi.hpp</text>
</a>
</g>
</g>
<!-- Node1&#45;&gt;Node10 -->
<g id="edge9_Node000001_Node000010" class="edge">
<title>Node1&#45;&gt;Node10</title>
<g id="a_edge9_Node000001_Node000010"><a xlink:title=" ">
<path fill="none" stroke="#63b8ff" d="M1445.73,-207.08C1636.06,-195.05 2123.34,-164.23 2307.79,-152.57"/>
<polygon fill="#63b8ff" stroke="#63b8ff" points="2308.16,-156.05 2317.92,-151.93 2307.72,-149.06 2308.16,-156.05"/>
</a>
</g>
</g>
<!-- Node3 -->
<g id="Node000003" class="node">
<title>Node3</title>
<g id="a_Node000003"><a xlink:title=" ">
<polygon fill="#e0e0e0" stroke="#999999" points="688,-85 626,-85 626,-66 688,-66 688,-85"/>
<text text-anchor="middle" x="657" y="-73" font-family="Helvetica,sans-Serif" font-size="10.00">expected</text>
</a>
</g>
</g>
<!-- Node2&#45;&gt;Node3 -->
<g id="edge2_Node000002_Node000003" class="edge">
<title>Node2&#45;&gt;Node3</title>
<g id="a_edge2_Node000002_Node000003"><a xlink:title=" ">
<path fill="none" stroke="#63b8ff" d="M500.11,-131.99C534.68,-123.12 578.87,-110.58 617,-96 621.93,-94.12 627.07,-91.85 631.96,-89.54"/>
<polygon fill="#63b8ff" stroke="#63b8ff" points="633.51,-92.68 640.94,-85.14 630.42,-86.4 633.51,-92.68"/>
</a>
</g>
</g>
<!-- Node4 -->
<g id="Node000004" class="node">
<title>Node4</title>
<g id="a_Node000004"><a xlink:title=" ">
<polygon fill="#e0e0e0" stroke="#999999" points="753.5,-85 706.5,-85 706.5,-66 753.5,-66 753.5,-85"/>
<text text-anchor="middle" x="730" y="-73" font-family="Helvetica,sans-Serif" font-size="10.00">vector</text>
</a>
</g>
</g>
<!-- Node2&#45;&gt;Node4 -->
<g id="edge3_Node000002_Node000004" class="edge">
<title>Node2&#45;&gt;Node4</title>
<g id="a_edge3_Node000002_Node000004"><a xlink:title=" ">
<path fill="none" stroke="#63b8ff" d="M524.55,-137C575.56,-129.73 641.44,-117.12 697,-96 700.95,-94.5 704.96,-92.55 708.77,-90.45"/>
<polygon fill="#63b8ff" stroke="#63b8ff" points="710.86,-93.28 717.66,-85.16 707.28,-87.27 710.86,-93.28"/>
</a>
</g>
</g>
<!-- Node5 -->
<g id="Node000005" class="node">
<title>Node5</title>
<g id="a_Node000005"><a xlink:title=" ">
<polygon fill="#e0e0e0" stroke="#999999" points="40,-85 0,-85 0,-66 40,-66 40,-85"/>
<text text-anchor="middle" x="20" y="-73" font-family="Helvetica,sans-Serif" font-size="10.00">span</text>
</a>
</g>
</g>
<!-- Node2&#45;&gt;Node5 -->
<g id="edge4_Node000002_Node000005" class="edge">
<title>Node2&#45;&gt;Node5</title>
<g id="a_edge4_Node000002_Node000005"><a xlink:title=" ">
<path fill="none" stroke="#63b8ff" d="M357.26,-146.39C276.01,-144.24 150.47,-134.13 49,-96 45.54,-94.7 42.09,-92.92 38.84,-90.96"/>
<polygon fill="#63b8ff" stroke="#63b8ff" points="40.59,-87.92 30.35,-85.2 36.66,-93.71 40.59,-87.92"/>
</a>
</g>
</g>
<!-- Node6 -->
<g id="Node000006" class="node">
<title>Node6</title>
<g id="a_Node000006"><a xlink:title=" ">
<polygon fill="#e0e0e0" stroke="#999999" points="127.5,-85 58.5,-85 58.5,-66 127.5,-66 127.5,-85"/>
<text text-anchor="middle" x="93" y="-73" font-family="Helvetica,sans-Serif" font-size="10.00">type_traits</text>
</a>
</g>
</g>
<!-- Node2&#45;&gt;Node6 -->
<g id="edge5_Node000002_Node000006" class="edge">
<title>Node2&#45;&gt;Node6</title>
<g id="a_edge5_Node000002_Node000006"><a xlink:title=" ">
<path fill="none" stroke="#63b8ff" d="M357.46,-138.3C295.39,-131.15 209.18,-118.17 136,-96 130.17,-94.23 124.1,-91.85 118.42,-89.36"/>
<polygon fill="#63b8ff" stroke="#63b8ff" points="119.89,-86.18 109.35,-85.14 116.95,-92.53 119.89,-86.18"/>
</a>
</g>
</g>
<!-- Node7 -->
<g id="Node000007" class="node">
<title>Node7</title>
<g id="a_Node000007"><a xlink:title=" ">
<polygon fill="#e0e0e0" stroke="#999999" points="270.5,-85 145.5,-85 145.5,-66 270.5,-66 270.5,-85"/>
<text text-anchor="middle" x="208" y="-73" font-family="Helvetica,sans-Serif" font-size="10.00">stdexec/execution.hpp</text>
</a>
</g>
</g>
<!-- Node2&#45;&gt;Node7 -->
<g id="edge6_Node000002_Node000007" class="edge">
<title>Node2&#45;&gt;Node7</title>
<g id="a_edge6_Node000002_Node000007"><a xlink:title=" ">
<path fill="none" stroke="#63b8ff" d="M393.85,-131.94C350.45,-118.99 286.87,-100.03 246.47,-87.97"/>
<polygon fill="#63b8ff" stroke="#63b8ff" points="247.31,-84.57 236.72,-85.07 245.31,-91.28 247.31,-84.57"/>
</a>
</g>
</g>
<!-- Node8 -->
<g id="Node000008" class="node">
<title>Node8</title>
<g id="a_Node000008"><a xlink:title=" ">
<polygon fill="#e0e0e0" stroke="#999999" points="423,-85 289,-85 289,-66 423,-66 423,-85"/>
<text text-anchor="middle" x="356" y="-73" font-family="Helvetica,sans-Serif" font-size="10.00">exec/any_sender_of.hpp</text>
</a>
</g>
</g>
<!-- Node2&#45;&gt;Node8 -->
<g id="edge7_Node000002_Node000008" class="edge">
<title>Node2&#45;&gt;Node8</title>
<g id="a_edge7_Node000002_Node000008"><a xlink:title=" ">
<path fill="none" stroke="#63b8ff" d="M423.8,-131.94C409.52,-120.26 389.26,-103.7 374.61,-91.72"/>
<polygon fill="#63b8ff" stroke="#63b8ff" points="376.68,-88.89 366.72,-85.27 372.25,-94.31 376.68,-88.89"/>
</a>
</g>
</g>
<!-- Node9 -->
<g id="Node000009" class="node">
<title>Node9</title>
<g id="a_Node000009"><a xlink:title=" ">
<polygon fill="#e0e0e0" stroke="#999999" points="608.5,-90.5 441.5,-90.5 441.5,-60.5 608.5,-60.5 608.5,-90.5"/>
<text text-anchor="start" x="449.5" y="-78.5" font-family="Helvetica,sans-Serif" font-size="10.00">Hermes/_base/ConnectionError</text>
<text text-anchor="middle" x="525" y="-67.5" font-family="Helvetica,sans-Serif" font-size="10.00">Enum.tpp</text>
</a>
</g>
</g>
<!-- Node2&#45;&gt;Node9 -->
<g id="edge8_Node000002_Node000009" class="edge">
<title>Node2&#45;&gt;Node9</title>
<g id="a_edge8_Node000002_Node000009"><a xlink:title=" ">
<path fill="none" stroke="#63b8ff" d="M458,-131.94C470.07,-121.95 486.47,-108.38 500.02,-97.17"/>
<polygon fill="#63b8ff" stroke="#63b8ff" points="502.55,-99.61 508.03,-90.54 498.09,-94.22 502.55,-99.61"/>
</a>
</g>
</g>
<!-- Node11 -->
<g id="Node000011" class="node">
<title>Node11</title>
<g id="a_Node000011"><a xlink:title=" ">
<polygon fill="#e0e0e0" stroke="#999999" points="2261.5,-85 2192.5,-85 2192.5,-66 2261.5,-66 2261.5,-85"/>
<text text-anchor="middle" x="2227" y="-73" font-family="Helvetica,sans-Serif" font-size="10.00">ws2tcpip.h</text>
</a>
</g>
</g>
<!-- Node10&#45;&gt;Node11 -->
<g id="edge10_Node000010_Node000011" class="edge">
<title>Node10&#45;&gt;Node11</title>
<g id="a_edge10_Node000010_Node000011"><a xlink:title=" ">
<path fill="none" stroke="#63b8ff" d="M2349.04,-131.94C2321.51,-119.43 2281.61,-101.31 2255.01,-89.22"/>
<polygon fill="#63b8ff" stroke="#63b8ff" points="2256.41,-86.02 2245.86,-85.07 2253.52,-92.39 2256.41,-86.02"/>
</a>
</g>
</g>
<!-- Node12 -->
<g id="Node000012" class="node">
<title>Node12</title>
<g id="a_Node000012"><a xlink:title=" ">
<polygon fill="#e0e0e0" stroke="#999999" points="2325.5,-19 2254.5,-19 2254.5,0 2325.5,0 2325.5,-19"/>
<text text-anchor="middle" x="2290" y="-7" font-family="Helvetica,sans-Serif" font-size="10.00">winsock2.h</text>
</a>
</g>
</g>
<!-- Node10&#45;&gt;Node12 -->
<g id="edge11_Node000010_Node000012" class="edge">
<title>Node10&#45;&gt;Node12</title>
<g id="a_edge11_Node000010_Node000012"><a xlink:title=" ">
<path fill="none" stroke="#63b8ff" d="M2350.39,-131.82C2335.8,-123.38 2319.2,-111.3 2309,-96 2295.59,-75.88 2291.51,-47.77 2290.34,-29.36"/>
<polygon fill="#63b8ff" stroke="#63b8ff" points="2293.84,-29.15 2289.93,-19.3 2286.84,-29.44 2293.84,-29.15"/>
</a>
</g>
</g>
<!-- Node13 -->
<g id="Node000013" class="node">
<title>Node13</title>
<g id="a_Node000013"><a xlink:title=" ">
<polygon fill="#e0e0e0" stroke="#999999" points="822,-85 772,-85 772,-66 822,-66 822,-85"/>
<text text-anchor="middle" x="797" y="-73" font-family="Helvetica,sans-Serif" font-size="10.00">ntdef.h</text>
</a>
</g>
</g>
<!-- Node10&#45;&gt;Node13 -->
<g id="edge12_Node000010_Node000013" class="edge">
<title>Node10&#45;&gt;Node13</title>
<g id="a_edge12_Node000010_Node000013"><a xlink:title=" ">
<path fill="none" stroke="#63b8ff" d="M2317.98,-145.77C2047.19,-144.52 975.55,-137.02 831,-96 826.38,-94.69 821.73,-92.62 817.41,-90.31"/>
<polygon fill="#63b8ff" stroke="#63b8ff" points="819.01,-87.19 808.63,-85.07 815.42,-93.2 819.01,-87.19"/>
</a>
</g>
</g>
<!-- Node14 -->
<g id="Node000014" class="node">
<title>Node14</title>
<g id="a_Node000014"><a xlink:title=" ">
<polygon fill="#e0e0e0" stroke="#999999" points="2786.5,-19 2717.5,-19 2717.5,0 2786.5,0 2786.5,-19"/>
<text text-anchor="middle" x="2752" y="-7" font-family="Helvetica,sans-Serif" font-size="10.00">schannel.h</text>
</a>
</g>
</g>
<!-- Node10&#45;&gt;Node14 -->
<g id="edge13_Node000010_Node000014" class="edge">
<title>Node10&#45;&gt;Node14</title>
<g id="a_edge13_Node000010_Node000014"><a xlink:title=" ">
<path fill="none" stroke="#63b8ff" d="M2442.31,-143.81C2562.46,-138.95 2816.7,-125.29 2843,-96 2855.17,-82.44 2852.65,-70.46 2843,-55 2832.63,-38.38 2814.06,-27.8 2796.38,-21.15"/>
<polygon fill="#63b8ff" stroke="#63b8ff" points="2797.31,-17.77 2786.72,-17.85 2795.05,-24.39 2797.31,-17.77"/>
</a>
</g>
</g>
<!-- Node15 -->
<g id="Node000015" class="node">
<title>Node15</title>
<g id="a_Node000015"><a xlink:title=" ">
<polygon fill="#e0e0e0" stroke="#999999" points="3603.5,-19 3558.5,-19 3558.5,0 3603.5,0 3603.5,-19"/>
<text text-anchor="middle" x="3581" y="-7" font-family="Helvetica,sans-Serif" font-size="10.00">sspi.h</text>
</a>
</g>
</g>
<!-- Node10&#45;&gt;Node15 -->
<g id="edge14_Node000010_Node000015" class="edge">
<title>Node10&#45;&gt;Node15</title>
<g id="a_edge14_Node000010_Node000015"><a xlink:title=" ">
<path fill="none" stroke="#63b8ff" d="M2442.17,-146.39C2725.98,-147.89 3887.07,-150.65 3940,-96 3952.68,-82.91 3952.07,-68.65 3940,-55 3918.54,-30.71 3698.27,-16.66 3613.76,-12.13"/>
<polygon fill="#63b8ff" stroke="#63b8ff" points="3613.86,-8.63 3603.69,-11.6 3613.49,-15.62 3613.86,-8.63"/>
</a>
</g>
</g>
<!-- Node16 -->
<g id="Node000016" class="node">
<title>Node16</title>
<g id="a_Node000016"><a xlink:href="_conversion_and_literals_8hpp.html" target="_top" xlink:title=" ">
<polygon fill="white" stroke="#666666" points="990,-90.5 840,-90.5 840,-60.5 990,-60.5 990,-90.5"/>
<text text-anchor="start" x="848" y="-78.5" font-family="Helvetica,sans-Serif" font-size="10.00">Hermes/_base/WinApi</text>
<text text-anchor="middle" x="915" y="-67.5" font-family="Helvetica,sans-Serif" font-size="10.00">/ConversionAndLiterals.hpp</text>
</a>
</g>
</g>
<!-- Node10&#45;&gt;Node16 -->
<g id="edge15_Node000010_Node000016" class="edge">
<title>Node10&#45;&gt;Node16</title>
<g id="a_edge15_Node000010_Node000016"><a xlink:title=" ">
<path fill="none" stroke="#63b8ff" d="M2317.71,-145.33C2083.99,-142.58 1259.27,-130.59 999,-96 992.32,-95.11 985.39,-93.93 978.51,-92.59"/>
<polygon fill="#63b8ff" stroke="#63b8ff" points="978.99,-89.12 968.49,-90.53 977.58,-95.98 978.99,-89.12"/>
</a>
</g>
</g>
<!-- Node18 -->
<g id="Node000018" class="node">
<title>Node18</title>
<g id="a_Node000018"><a xlink:href="_macros_8hpp.html" target="_top" xlink:title=" ">
<polygon fill="white" stroke="#666666" points="2442,-90.5 2318,-90.5 2318,-60.5 2442,-60.5 2442,-90.5"/>
<text text-anchor="start" x="2326" y="-78.5" font-family="Helvetica,sans-Serif" font-size="10.00">Hermes/_base/WinApi</text>
<text text-anchor="middle" x="2380" y="-67.5" font-family="Helvetica,sans-Serif" font-size="10.00">/Macros.hpp</text>
</a>
</g>
</g>
<!-- Node10&#45;&gt;Node18 -->
<g id="edge17_Node000010_Node000018" class="edge">
<title>Node10&#45;&gt;Node18</title>
<g id="a_edge17_Node000010_Node000018"><a xlink:title=" ">
<path fill="none" stroke="#63b8ff" d="M2380,-131.94C2380,-122.99 2380,-111.16 2380,-100.73"/>
<polygon fill="#63b8ff" stroke="#63b8ff" points="2383.5,-100.54 2380,-90.54 2376.5,-100.54 2383.5,-100.54"/>
</a>
</g>
</g>
<!-- Node20 -->
<g id="Node000020" class="node">
<title>Node20</title>
<g id="a_Node000020"><a xlink:href="_address_family_enum_8hpp.html" target="_top" xlink:title=" ">
<polygon fill="white" stroke="#666666" points="1184,-90.5 1008,-90.5 1008,-60.5 1184,-60.5 1184,-90.5"/>
<text text-anchor="start" x="1016" y="-78.5" font-family="Helvetica,sans-Serif" font-size="10.00">Hermes/_base/WinApi</text>
<text text-anchor="middle" x="1096" y="-67.5" font-family="Helvetica,sans-Serif" font-size="10.00">/Enums/AddressFamilyEnum.hpp</text>
</a>
</g>
</g>
<!-- Node10&#45;&gt;Node20 -->
<g id="edge22_Node000010_Node000020" class="edge">
<title>Node10&#45;&gt;Node20</title>
<g id="a_edge22_Node000010_Node000020"><a xlink:title=" ">
<path fill="none" stroke="#63b8ff" d="M2317.95,-144.67C2106.35,-139.93 1414.02,-122.71 1193,-96 1185,-95.03 1176.67,-93.77 1168.41,-92.34"/>
<polygon fill="#63b8ff" stroke="#63b8ff" points="1168.85,-88.86 1158.38,-90.53 1167.6,-95.75 1168.85,-88.86"/>
</a>
</g>
</g>
<!-- Node22 -->
<g id="Node000022" class="node">
<title>Node22</title>
<g id="a_Node000022"><a xlink:href="_condition_function_enum_8hpp.html" target="_top" xlink:title=" ">
<polygon fill="white" stroke="#666666" points="1984,-90.5 1792,-90.5 1792,-60.5 1984,-60.5 1984,-90.5"/>
<text text-anchor="start" x="1800" y="-78.5" font-family="Helvetica,sans-Serif" font-size="10.00">Hermes/_base/WinApi</text>
<text text-anchor="middle" x="1888" y="-67.5" font-family="Helvetica,sans-Serif" font-size="10.00">/Enums/ConditionFunctionEnum.hpp</text>
</a>
</g>
</g>
<!-- Node10&#45;&gt;Node22 -->
<g id="edge24_Node000010_Node000022" class="edge">
<title>Node10&#45;&gt;Node22</title>
<g id="a_edge24_Node000010_Node000022"><a xlink:title=" ">
<path fill="none" stroke="#63b8ff" d="M2317.85,-139.04C2241.27,-130.22 2107.27,-113.98 1993,-96 1985.68,-94.85 1978.08,-93.58 1970.47,-92.26"/>
<polygon fill="#63b8ff" stroke="#63b8ff" points="1970.95,-88.79 1960.49,-90.5 1969.73,-95.68 1970.95,-88.79"/>
</a>
</g>
</g>
<!-- Node24 -->
<g id="Node000024" class="node">
<title>Node24</title>
<g id="a_Node000024"><a xlink:href="_encrypt_status_enum_8hpp.html" target="_top" xlink:title=" ">
<polygon fill="white" stroke="#666666" points="2174,-90.5 2002,-90.5 2002,-60.5 2174,-60.5 2174,-90.5"/>
<text text-anchor="start" x="2010" y="-78.5" font-family="Helvetica,sans-Serif" font-size="10.00">Hermes/_base/WinApi</text>
<text text-anchor="middle" x="2088" y="-67.5" font-family="Helvetica,sans-Serif" font-size="10.00">/Enums/EncryptStatusEnum.hpp</text>
</a>
</g>
</g>
<!-- Node10&#45;&gt;Node24 -->
<g id="edge26_Node000010_Node000024" class="edge">
<title>Node10&#45;&gt;Node24</title>
<g id="a_edge26_Node000010_Node000024"><a xlink:title=" ">
<path fill="none" stroke="#63b8ff" d="M2320.91,-131.94C2273.42,-120.63 2206.63,-104.74 2156.74,-92.86"/>
<polygon fill="#63b8ff" stroke="#63b8ff" points="2157.54,-89.45 2147,-90.54 2155.92,-96.26 2157.54,-89.45"/>
</a>
</g>
</g>
<!-- Node26 -->
<g id="Node000026" class="node">
<title>Node26</title>
<g id="a_Node000026"><a xlink:href="_protocol_base_type_enum_8hpp.html" target="_top" xlink:title=" ">
<polygon fill="white" stroke="#666666" points="1393.5,-90.5 1202.5,-90.5 1202.5,-60.5 1393.5,-60.5 1393.5,-90.5"/>
<text text-anchor="start" x="1210.5" y="-78.5" font-family="Helvetica,sans-Serif" font-size="10.00">Hermes/_base/WinApi</text>
<text text-anchor="middle" x="1298" y="-67.5" font-family="Helvetica,sans-Serif" font-size="10.00">/Enums/ProtocolBaseTypeEnum.hpp</text>
</a>
</g>
</g>
<!-- Node10&#45;&gt;Node26 -->
<g id="edge28_Node000010_Node000026" class="edge">
<title>Node10&#45;&gt;Node26</title>
<g id="a_edge28_Node000010_Node000026"><a xlink:title=" ">
<path fill="none" stroke="#63b8ff" d="M2317.97,-145.71C2162.95,-144.37 1746.41,-136.9 1402,-96 1393.38,-94.98 1384.41,-93.67 1375.5,-92.21"/>
<polygon fill="#63b8ff" stroke="#63b8ff" points="1375.93,-88.74 1365.49,-90.52 1374.76,-95.64 1375.93,-88.74"/>
</a>
</g>
</g>
<!-- Node27 -->
<g id="Node000027" class="node">
<title>Node27</title>
<g id="a_Node000027"><a xlink:href="_s_ch_cred_enum_8hpp.html" target="_top" xlink:title=" ">
<polygon fill="white" stroke="#666666" points="3036,-90.5 2890,-90.5 2890,-60.5 3036,-60.5 3036,-90.5"/>
<text text-anchor="start" x="2898" y="-78.5" font-family="Helvetica,sans-Serif" font-size="10.00">Hermes/_base/WinApi</text>
<text text-anchor="middle" x="2963" y="-67.5" font-family="Helvetica,sans-Serif" font-size="10.00">/Enums/SChCredEnum.hpp</text>
</a>
</g>
</g>
<!-- Node10&#45;&gt;Node27 -->
<g id="edge30_Node000010_Node000027" class="edge">
<title>Node10&#45;&gt;Node27</title>
<g id="a_edge30_Node000010_Node000027"><a xlink:title=" ">
<path fill="none" stroke="#63b8ff" d="M2442.17,-142.14C2536.43,-135.74 2720.93,-121.1 2876,-96 2882.12,-95.01 2888.45,-93.85 2894.78,-92.6"/>
<polygon fill="#63b8ff" stroke="#63b8ff" points="2895.59,-96.01 2904.69,-90.58 2894.19,-89.15 2895.59,-96.01"/>
</a>
</g>
</g>
<!-- Node28 -->
<g id="Node000028" class="node">
<title>Node28</title>
<g id="a_Node000028"><a xlink:href="_security_buffer_enum_8hpp.html" target="_top" xlink:title=" ">
<polygon fill="white" stroke="#666666" points="4160.5,-90.5 3987.5,-90.5 3987.5,-60.5 4160.5,-60.5 4160.5,-90.5"/>
<text text-anchor="start" x="3995.5" y="-78.5" font-family="Helvetica,sans-Serif" font-size="10.00">Hermes/_base/WinApi</text>
<text text-anchor="middle" x="4074" y="-67.5" font-family="Helvetica,sans-Serif" font-size="10.00">/Enums/SecurityBufferEnum.hpp</text>
</a>
</g>
</g>
<!-- Node10&#45;&gt;Node28 -->
<g id="edge32_Node000010_Node000028" class="edge">
<title>Node10&#45;&gt;Node28</title>
<g id="a_edge32_Node000010_Node000028"><a xlink:title=" ">
<path fill="none" stroke="#63b8ff" d="M2442.4,-145.37C2698.34,-142.58 3668.44,-129.96 3973,-96 3981.64,-95.04 3990.65,-93.73 3999.57,-92.26"/>
<polygon fill="#63b8ff" stroke="#63b8ff" points="4000.32,-95.68 4009.58,-90.52 3999.13,-88.78 4000.32,-95.68"/>
</a>
</g>
</g>
<!-- Node29 -->
<g id="Node000029" class="node">
<title>Node29</title>
<g id="a_Node000029"><a xlink:href="_socket_shutdown_enum_8hpp.html" target="_top" xlink:title=" ">
<polygon fill="white" stroke="#666666" points="1596.5,-90.5 1411.5,-90.5 1411.5,-60.5 1596.5,-60.5 1596.5,-90.5"/>
<text text-anchor="start" x="1419.5" y="-78.5" font-family="Helvetica,sans-Serif" font-size="10.00">Hermes/_base/WinApi</text>
<text text-anchor="middle" x="1504" y="-67.5" font-family="Helvetica,sans-Serif" font-size="10.00">/Enums/SocketShutdownEnum.hpp</text>
</a>
</g>
</g>
<!-- Node10&#45;&gt;Node29 -->
<g id="edge34_Node000010_Node000029" class="edge">
<title>Node10&#45;&gt;Node29</title>
<g id="a_edge34_Node000010_Node000029"><a xlink:title=" ">
<path fill="none" stroke="#63b8ff" d="M2317.96,-144.65C2186.18,-141.21 1868.79,-129.84 1605,-96 1597,-94.97 1588.69,-93.7 1580.41,-92.31"/>
<polygon fill="#63b8ff" stroke="#63b8ff" points="1580.81,-88.82 1570.36,-90.55 1579.61,-95.72 1580.81,-88.82"/>
</a>
</g>
</g>
<!-- Node30 -->
<g id="Node000030" class="node">
<title>Node30</title>
<g id="a_Node000030"><a xlink:href="_socket_type_enum_8hpp.html" target="_top" xlink:title=" ">
<polygon fill="white" stroke="#666666" points="1773.5,-90.5 1614.5,-90.5 1614.5,-60.5 1773.5,-60.5 1773.5,-90.5"/>
<text text-anchor="start" x="1622.5" y="-78.5" font-family="Helvetica,sans-Serif" font-size="10.00">Hermes/_base/WinApi</text>
<text text-anchor="middle" x="1694" y="-67.5" font-family="Helvetica,sans-Serif" font-size="10.00">/Enums/SocketTypeEnum.hpp</text>
</a>
</g>
</g>
<!-- Node10&#45;&gt;Node30 -->
<g id="edge36_Node000010_Node000030" class="edge">
<title>Node10&#45;&gt;Node30</title>
<g id="a_edge36_Node000010_Node000030"><a xlink:title=" ">
<path fill="none" stroke="#63b8ff" d="M2317.81,-143.5C2208.91,-138.52 1976.87,-125.23 1783,-96 1776.38,-95 1769.51,-93.8 1762.67,-92.49"/>
<polygon fill="#63b8ff" stroke="#63b8ff" points="1763.17,-89.02 1752.68,-90.51 1761.81,-95.89 1763.17,-89.02"/>
</a>
</g>
</g>
<!-- Node31 -->
<g id="Node000031" class="node">
<title>Node31</title>
<g id="a_Node000031"><a xlink:href="_credential_flags_8hpp.html" target="_top" xlink:title=" ">
<polygon fill="white" stroke="#666666" points="3200,-90.5 3054,-90.5 3054,-60.5 3200,-60.5 3200,-90.5"/>
<text text-anchor="start" x="3062" y="-78.5" font-family="Helvetica,sans-Serif" font-size="10.00">Hermes/_base/WinApi</text>
<text text-anchor="middle" x="3127" y="-67.5" font-family="Helvetica,sans-Serif" font-size="10.00">/Flags/CredentialFlags.hpp</text>
</a>
</g>
</g>
<!-- Node10&#45;&gt;Node31 -->
<g id="edge38_Node000010_Node000031" class="edge">
<title>Node10&#45;&gt;Node31</title>
<g id="a_edge38_Node000010_Node000031"><a xlink:title=" ">
<path fill="none" stroke="#63b8ff" d="M2442.26,-144.6C2560.42,-141.23 2825.06,-130.2 3045,-96 3051.07,-95.06 3057.36,-93.9 3063.63,-92.62"/>
<polygon fill="#63b8ff" stroke="#63b8ff" points="3064.38,-96.04 3073.43,-90.52 3062.92,-89.19 3064.38,-96.04"/>
</a>
</g>
</g>
<!-- Node32 -->
<g id="Node000032" class="node">
<title>Node32</title>
<g id="a_Node000032"><a xlink:href="_supported_protocols_flags_8hpp.html" target="_top" xlink:title=" ">
<polygon fill="white" stroke="#666666" points="2651.5,-90.5 2460.5,-90.5 2460.5,-60.5 2651.5,-60.5 2651.5,-90.5"/>
<text text-anchor="start" x="2468.5" y="-78.5" font-family="Helvetica,sans-Serif" font-size="10.00">Hermes/_base/WinApi</text>
<text text-anchor="middle" x="2556" y="-67.5" font-family="Helvetica,sans-Serif" font-size="10.00">/Flags/SupportedProtocolsFlags.hpp</text>
</a>
</g>
</g>
<!-- Node10&#45;&gt;Node32 -->
<g id="edge40_Node000010_Node000032" class="edge">
<title>Node10&#45;&gt;Node32</title>
<g id="a_edge40_Node000010_Node000032"><a xlink:title=" ">
<path fill="none" stroke="#63b8ff" d="M2415.62,-131.94C2443.05,-121.1 2481.16,-106.05 2510.76,-94.37"/>
<polygon fill="#63b8ff" stroke="#63b8ff" points="2512.42,-97.47 2520.44,-90.54 2509.85,-90.96 2512.42,-97.47"/>
</a>
</g>
</g>
<!-- Node33 -->
<g id="Node000033" class="node">
<title>Node33</title>
<g id="a_Node000033"><a xlink:href="_initialize_security_context_flags_8hpp.html" target="_top" xlink:title=" ">
<polygon fill="white" stroke="#666666" points="3387.5,-96 3218.5,-96 3218.5,-55 3387.5,-55 3387.5,-96"/>
<text text-anchor="start" x="3226.5" y="-84" font-family="Helvetica,sans-Serif" font-size="10.00">Hermes/_base/WinApi</text>
<text text-anchor="start" x="3226.5" y="-73" font-family="Helvetica,sans-Serif" font-size="10.00">/Flags/InitializeSecurityContext</text>
<text text-anchor="middle" x="3303" y="-62" font-family="Helvetica,sans-Serif" font-size="10.00">Flags.hpp</text>
</a>
</g>
</g>
<!-- Node10&#45;&gt;Node33 -->
<g id="edge42_Node000010_Node000033" class="edge">
<title>Node10&#45;&gt;Node33</title>
<g id="a_edge42_Node000010_Node000033"><a xlink:title=" ">
<path fill="none" stroke="#63b8ff" d="M2442.17,-145.31C2578.99,-143.13 2916.53,-134.13 3208.37,-95.97"/>
<polygon fill="#63b8ff" stroke="#63b8ff" points="3208.84,-99.44 3218.29,-94.66 3207.92,-92.5 3208.84,-99.44"/>
</a>
</g>
</g>
<!-- Node34 -->
<g id="Node000034" class="node">
<title>Node34</title>
<g id="a_Node000034"><a xlink:href="_initialize_security_context_return_flags_8hpp.html" target="_top" xlink:title=" ">
<polygon fill="white" stroke="#666666" points="3574.5,-96 3405.5,-96 3405.5,-55 3574.5,-55 3574.5,-96"/>
<text text-anchor="start" x="3413.5" y="-84" font-family="Helvetica,sans-Serif" font-size="10.00">Hermes/_base/WinApi</text>
<text text-anchor="start" x="3413.5" y="-73" font-family="Helvetica,sans-Serif" font-size="10.00">/Flags/InitializeSecurityContext</text>
<text text-anchor="middle" x="3490" y="-62" font-family="Helvetica,sans-Serif" font-size="10.00">ReturnFlags.hpp</text>
</a>
</g>
</g>
<!-- Node10&#45;&gt;Node34 -->
<g id="edge44_Node000010_Node000034" class="edge">
<title>Node10&#45;&gt;Node34</title>
<g id="a_edge44_Node000010_Node000034"><a xlink:title=" ">
<path fill="none" stroke="#63b8ff" d="M2442.21,-146.34C2600.2,-146.48 3029.72,-142.3 3395.46,-96.09"/>
<polygon fill="#63b8ff" stroke="#63b8ff" points="3395.97,-99.56 3405.45,-94.82 3395.09,-92.61 3395.97,-99.56"/>
</a>
</g>
</g>
<!-- Node35 -->
<g id="Node000035" class="node">
<title>Node35</title>
<g id="a_Node000035"><a xlink:href="_accept_security_context_flags_8hpp.html" target="_top" xlink:title=" ">
<polygon fill="white" stroke="#666666" points="3753,-96 3593,-96 3593,-55 3753,-55 3753,-96"/>
<text text-anchor="start" x="3601" y="-84" font-family="Helvetica,sans-Serif" font-size="10.00">Hermes/_base/WinApi</text>
<text text-anchor="start" x="3601" y="-73" font-family="Helvetica,sans-Serif" font-size="10.00">/Flags/AcceptSecurityContext</text>
<text text-anchor="middle" x="3673" y="-62" font-family="Helvetica,sans-Serif" font-size="10.00">Flags.hpp</text>
</a>
</g>
</g>
<!-- Node10&#45;&gt;Node35 -->
<g id="edge46_Node000010_Node000035" class="edge">
<title>Node10&#45;&gt;Node35</title>
<g id="a_edge46_Node000010_Node000035"><a xlink:title=" ">
<path fill="none" stroke="#63b8ff" d="M2442.21,-144.85C2652.99,-140.73 3339.96,-125.43 3582.41,-96.05"/>
<polygon fill="#63b8ff" stroke="#63b8ff" points="3583.09,-99.49 3592.58,-94.78 3582.22,-92.55 3583.09,-99.49"/>
</a>
</g>
</g>
<!-- Node36 -->
<g id="Node000036" class="node">
<title>Node36</title>
<g id="a_Node000036"><a xlink:href="_accept_security_context_return_flags_8hpp.html" target="_top" xlink:title=" ">
<polygon fill="white" stroke="#666666" points="3931,-96 3771,-96 3771,-55 3931,-55 3931,-96"/>
<text text-anchor="start" x="3779" y="-84" font-family="Helvetica,sans-Serif" font-size="10.00">Hermes/_base/WinApi</text>
<text text-anchor="start" x="3779" y="-73" font-family="Helvetica,sans-Serif" font-size="10.00">/Flags/AcceptSecurityContext</text>
<text text-anchor="middle" x="3851" y="-62" font-family="Helvetica,sans-Serif" font-size="10.00">ReturnFlags.hpp</text>
</a>
</g>
</g>
<!-- Node10&#45;&gt;Node36 -->
<g id="edge48_Node000010_Node000036" class="edge">
<title>Node10&#45;&gt;Node36</title>
<g id="a_edge48_Node000010_Node000036"><a xlink:title=" ">
<path fill="none" stroke="#63b8ff" d="M2442.32,-145.23C2673.31,-142.16 3481.28,-129.32 3760.48,-96.04"/>
<polygon fill="#63b8ff" stroke="#63b8ff" points="3761.08,-99.49 3770.58,-94.8 3760.23,-92.54 3761.08,-99.49"/>
</a>
</g>
</g>
<!-- Node37 -->
<g id="Node000037" class="node">
<title>Node37</title>
<g id="a_Node000037"><a xlink:href="_s_channel_cred_flags_8hpp.html" target="_top" xlink:title=" ">
<polygon fill="white" stroke="#666666" points="2834,-90.5 2670,-90.5 2670,-60.5 2834,-60.5 2834,-90.5"/>
<text text-anchor="start" x="2678" y="-78.5" font-family="Helvetica,sans-Serif" font-size="10.00">Hermes/_base/WinApi</text>
<text text-anchor="middle" x="2752" y="-67.5" font-family="Helvetica,sans-Serif" font-size="10.00">/Flags/SChannelCredFlags.hpp</text>
</a>
</g>
</g>
<!-- Node10&#45;&gt;Node37 -->
<g id="edge50_Node000010_Node000037" class="edge">
<title>Node10&#45;&gt;Node37</title>
<g id="a_edge50_Node000010_Node000037"><a xlink:title=" ">
<path fill="none" stroke="#63b8ff" d="M2442.06,-135.6C2499.08,-125.89 2585.87,-110.73 2661,-96 2666.45,-94.93 2672.08,-93.8 2677.74,-92.64"/>
<polygon fill="#63b8ff" stroke="#63b8ff" points="2678.84,-95.98 2687.92,-90.52 2677.42,-89.13 2678.84,-95.98"/>
</a>
</g>
</g>
<!-- Node17 -->
<g id="Node000017" class="node">
<title>Node17</title>
<g id="a_Node000017"><a xlink:title=" ">
<polygon fill="#e0e0e0" stroke="#999999" points="940,-19 890,-19 890,0 940,0 940,-19"/>
<text text-anchor="middle" x="915" y="-7" font-family="Helvetica,sans-Serif" font-size="10.00">cstdint</text>
</a>
</g>
</g>
<!-- Node16&#45;&gt;Node17 -->
<g id="edge16_Node000016_Node000017" class="edge">
<title>Node16&#45;&gt;Node17</title>
<g id="a_edge16_Node000016_Node000017"><a xlink:title=" ">
<path fill="none" stroke="#63b8ff" d="M915,-60.3C915,-51.2 915,-39.29 915,-29.4"/>
<polygon fill="#63b8ff" stroke="#63b8ff" points="918.5,-29.34 915,-19.34 911.5,-29.34 918.5,-29.34"/>
</a>
</g>
</g>
<!-- Node18&#45;&gt;Node12 -->
<g id="edge19_Node000018_Node000012" class="edge">
<title>Node18&#45;&gt;Node12</title>
<g id="a_edge19_Node000018_Node000012"><a xlink:title=" ">
<path fill="none" stroke="#63b8ff" d="M2360.03,-60.3C2345.36,-49.87 2325.49,-35.74 2310.66,-25.19"/>
<polygon fill="#63b8ff" stroke="#63b8ff" points="2312.35,-22.1 2302.18,-19.16 2308.3,-27.81 2312.35,-22.1"/>
</a>
</g>
</g>
<!-- Node18&#45;&gt;Node14 -->
<g id="edge20_Node000018_Node000014" class="edge">
<title>Node18&#45;&gt;Node14</title>
<g id="a_edge20_Node000018_Node000014"><a xlink:title=" ">
<path fill="none" stroke="#63b8ff" d="M2429,-60.4C2436.66,-58.44 2444.52,-56.56 2452,-55 2541.71,-36.27 2648.11,-22.44 2707.03,-15.5"/>
<polygon fill="#63b8ff" stroke="#63b8ff" points="2707.59,-18.96 2717.12,-14.33 2706.78,-12.01 2707.59,-18.96"/>
</a>
</g>
</g>
<!-- Node18&#45;&gt;Node15 -->
<g id="edge21_Node000018_Node000015" class="edge">
<title>Node18&#45;&gt;Node15</title>
<g id="a_edge21_Node000018_Node000015"><a xlink:title=" ">
<path fill="none" stroke="#63b8ff" d="M2425.76,-60.46C2434.4,-58.27 2443.42,-56.31 2452,-55 2671.4,-21.41 3385.14,-12.43 3547.8,-10.8"/>
<polygon fill="#63b8ff" stroke="#63b8ff" points="3548.16,-14.3 3558.12,-10.7 3548.09,-7.3 3548.16,-14.3"/>
</a>
</g>
</g>
<!-- Node19 -->
<g id="Node000019" class="node">
<title>Node19</title>
<g id="a_Node000019"><a xlink:title=" ">
<polygon fill="#e0e0e0" stroke="#999999" points="2416.5,-19 2343.5,-19 2343.5,0 2416.5,0 2416.5,-19"/>
<text text-anchor="middle" x="2380" y="-7" font-family="Helvetica,sans-Serif" font-size="10.00">string_view</text>
</a>
</g>
</g>
<!-- Node18&#45;&gt;Node19 -->
<g id="edge18_Node000018_Node000019" class="edge">
<title>Node18&#45;&gt;Node19</title>
<g id="a_edge18_Node000018_Node000019"><a xlink:title=" ">
<path fill="none" stroke="#63b8ff" d="M2380,-60.3C2380,-51.2 2380,-39.29 2380,-29.4"/>
<polygon fill="#63b8ff" stroke="#63b8ff" points="2383.5,-29.34 2380,-19.34 2376.5,-29.34 2383.5,-29.34"/>
</a>
</g>
</g>
<!-- Node21 -->
<g id="Node000021" class="node">
<title>Node21</title>
<g id="a_Node000021"><a xlink:title=" ">
<polygon fill="#e0e0e0" stroke="#999999" points="1227,-19 1167,-19 1167,0 1227,0 1227,-19"/>
<text text-anchor="middle" x="1197" y="-7" font-family="Helvetica,sans-Serif" font-size="10.00">ws2def.h</text>
</a>
</g>
</g>
<!-- Node20&#45;&gt;Node21 -->
<g id="edge23_Node000020_Node000021" class="edge">
<title>Node20&#45;&gt;Node21</title>
<g id="a_edge23_Node000020_Node000021"><a xlink:title=" ">
<path fill="none" stroke="#63b8ff" d="M1118.42,-60.3C1135.19,-49.67 1158.01,-35.2 1174.75,-24.6"/>
<polygon fill="#63b8ff" stroke="#63b8ff" points="1176.76,-27.47 1183.34,-19.16 1173.02,-21.55 1176.76,-27.47"/>
</a>
</g>
</g>
<!-- Node23 -->
<g id="Node000023" class="node">
<title>Node23</title>
<g id="a_Node000023"><a xlink:title=" ">
<polygon fill="#e0e0e0" stroke="#999999" points="1731,-19 1657,-19 1657,0 1731,0 1731,-19"/>
<text text-anchor="middle" x="1694" y="-7" font-family="Helvetica,sans-Serif" font-size="10.00">WinSock2.h</text>
</a>
</g>
</g>
<!-- Node22&#45;&gt;Node23 -->
<g id="edge25_Node000022_Node000023" class="edge">
<title>Node22&#45;&gt;Node23</title>
<g id="a_edge25_Node000022_Node000023"><a xlink:title=" ">
<path fill="none" stroke="#63b8ff" d="M1845.43,-60.45C1810.65,-48.98 1762.09,-32.96 1729.41,-22.18"/>
<polygon fill="#63b8ff" stroke="#63b8ff" points="1730.41,-18.83 1719.82,-19.02 1728.22,-25.47 1730.41,-18.83"/>
</a>
</g>
</g>
<!-- Node25 -->
<g id="Node000025" class="node">
<title>Node25</title>
<g id="a_Node000025"><a xlink:title=" ">
<polygon fill="#e0e0e0" stroke="#999999" points="2120.5,-19 2055.5,-19 2055.5,0 2120.5,0 2120.5,-19"/>
<text text-anchor="middle" x="2088" y="-7" font-family="Helvetica,sans-Serif" font-size="10.00">winerror.h</text>
</a>
</g>
</g>
<!-- Node24&#45;&gt;Node25 -->
<g id="edge27_Node000024_Node000025" class="edge">
<title>Node24&#45;&gt;Node25</title>
<g id="a_edge27_Node000024_Node000025"><a xlink:title=" ">
<path fill="none" stroke="#63b8ff" d="M2088,-60.3C2088,-51.2 2088,-39.29 2088,-29.4"/>
<polygon fill="#63b8ff" stroke="#63b8ff" points="2091.5,-29.34 2088,-19.34 2084.5,-29.34 2091.5,-29.34"/>
</a>
</g>
</g>
<!-- Node26&#45;&gt;Node21 -->
<g id="edge29_Node000026_Node000021" class="edge">
<title>Node26&#45;&gt;Node21</title>
<g id="a_edge29_Node000026_Node000021"><a xlink:title=" ">
<path fill="none" stroke="#63b8ff" d="M1275.58,-60.3C1258.81,-49.67 1235.99,-35.2 1219.25,-24.6"/>
<polygon fill="#63b8ff" stroke="#63b8ff" points="1220.98,-21.55 1210.66,-19.16 1217.24,-27.47 1220.98,-21.55"/>
</a>
</g>
</g>
<!-- Node27&#45;&gt;Node14 -->
<g id="edge31_Node000027_Node000014" class="edge">
<title>Node27&#45;&gt;Node14</title>
<g id="a_edge31_Node000027_Node000014"><a xlink:title=" ">
<path fill="none" stroke="#63b8ff" d="M2916.7,-60.45C2878.71,-48.93 2825.6,-32.82 2790.06,-22.04"/>
<polygon fill="#63b8ff" stroke="#63b8ff" points="2790.67,-18.57 2780.08,-19.02 2788.63,-25.27 2790.67,-18.57"/>
</a>
</g>
</g>
<!-- Node28&#45;&gt;Node15 -->
<g id="edge33_Node000028_Node000015" class="edge">
<title>Node28&#45;&gt;Node15</title>
<g id="a_edge33_Node000028_Node000015"><a xlink:title=" ">
<path fill="none" stroke="#63b8ff" d="M4005.12,-60.46C3994.39,-58.49 3983.42,-56.59 3973,-55 3840.29,-34.69 3680.99,-19.39 3613.62,-13.34"/>
<polygon fill="#63b8ff" stroke="#63b8ff" points="3613.89,-9.85 3603.62,-12.45 3613.27,-16.82 3613.89,-9.85"/>
</a>
</g>
</g>
<!-- Node29&#45;&gt;Node23 -->
<g id="edge35_Node000029_Node000023" class="edge">
<title>Node29&#45;&gt;Node23</title>
<g id="a_edge35_Node000029_Node000023"><a xlink:title=" ">
<path fill="none" stroke="#63b8ff" d="M1545.7,-60.45C1579.6,-49.03 1626.91,-33.1 1658.9,-22.32"/>
<polygon fill="#63b8ff" stroke="#63b8ff" points="1660.35,-25.53 1668.71,-19.02 1658.12,-18.89 1660.35,-25.53"/>
</a>
</g>
</g>
<!-- Node30&#45;&gt;Node23 -->
<g id="edge37_Node000030_Node000023" class="edge">
<title>Node30&#45;&gt;Node23</title>
<g id="a_edge37_Node000030_Node000023"><a xlink:title=" ">
<path fill="none" stroke="#63b8ff" d="M1694,-60.3C1694,-51.2 1694,-39.29 1694,-29.4"/>
<polygon fill="#63b8ff" stroke="#63b8ff" points="1697.5,-29.34 1694,-19.34 1690.5,-29.34 1697.5,-29.34"/>
</a>
</g>
</g>
<!-- Node31&#45;&gt;Node15 -->
<g id="edge39_Node000031_Node000015" class="edge">
<title>Node31&#45;&gt;Node15</title>
<g id="a_edge39_Node000031_Node000015"><a xlink:title=" ">
<path fill="none" stroke="#63b8ff" d="M3183.08,-60.43C3192.05,-58.44 3201.25,-56.55 3210,-55 3334.05,-33.06 3483.38,-18.8 3548.25,-13.19"/>
<polygon fill="#63b8ff" stroke="#63b8ff" points="3548.62,-16.67 3558.29,-12.34 3548.02,-9.7 3548.62,-16.67"/>
</a>
</g>
</g>
<!-- Node32&#45;&gt;Node14 -->
<g id="edge41_Node000032_Node000014" class="edge">
<title>Node32&#45;&gt;Node14</title>
<g id="a_edge41_Node000032_Node000014"><a xlink:title=" ">
<path fill="none" stroke="#63b8ff" d="M2599.01,-60.45C2634.14,-48.98 2683.21,-32.96 2716.22,-22.18"/>
<polygon fill="#63b8ff" stroke="#63b8ff" points="2717.5,-25.45 2725.92,-19.02 2715.32,-18.79 2717.5,-25.45"/>
</a>
</g>
</g>
<!-- Node33&#45;&gt;Node15 -->
<g id="edge43_Node000033_Node000015" class="edge">
<title>Node33&#45;&gt;Node15</title>
<g id="a_edge43_Node000033_Node000015"><a xlink:title=" ">
<path fill="none" stroke="#63b8ff" d="M3387.54,-55.04C3441.8,-42.55 3509.2,-27.03 3548.44,-18"/>
<polygon fill="#63b8ff" stroke="#63b8ff" points="3549.29,-21.39 3558.25,-15.74 3547.72,-14.57 3549.29,-21.39"/>
</a>
</g>
</g>
<!-- Node34&#45;&gt;Node15 -->
<g id="edge45_Node000034_Node000015" class="edge">
<title>Node34&#45;&gt;Node15</title>
<g id="a_edge45_Node000034_Node000015"><a xlink:title=" ">
<path fill="none" stroke="#63b8ff" d="M3517.8,-54.95C3531.42,-45.37 3547.56,-34.02 3560.12,-25.19"/>
<polygon fill="#63b8ff" stroke="#63b8ff" points="3562.38,-27.88 3568.54,-19.26 3558.35,-22.15 3562.38,-27.88"/>
</a>
</g>
</g>
<!-- Node35&#45;&gt;Node15 -->
<g id="edge47_Node000035_Node000015" class="edge">
<title>Node35&#45;&gt;Node15</title>
<g id="a_edge47_Node000035_Node000015"><a xlink:title=" ">
<path fill="none" stroke="#63b8ff" d="M3644.9,-54.95C3631.12,-45.37 3614.81,-34.02 3602.11,-25.19"/>
<polygon fill="#63b8ff" stroke="#63b8ff" points="3603.8,-22.1 3593.59,-19.26 3599.8,-27.84 3603.8,-22.1"/>
</a>
</g>
</g>
<!-- Node36&#45;&gt;Node15 -->
<g id="edge49_Node000036_Node000015" class="edge">
<title>Node36&#45;&gt;Node15</title>
<g id="a_edge49_Node000036_Node000015"><a xlink:title=" ">
<path fill="none" stroke="#63b8ff" d="M3770.72,-55.47C3718.29,-43.04 3652.61,-27.47 3613.88,-18.29"/>
<polygon fill="#63b8ff" stroke="#63b8ff" points="3614.25,-14.78 3603.71,-15.88 3612.63,-21.59 3614.25,-14.78"/>
</a>
</g>
</g>
<!-- Node37&#45;&gt;Node14 -->
<g id="edge51_Node000037_Node000014" class="edge">
<title>Node37&#45;&gt;Node14</title>
<g id="a_edge51_Node000037_Node000014"><a xlink:title=" ">
<path fill="none" stroke="#63b8ff" d="M2752,-60.3C2752,-51.2 2752,-39.29 2752,-29.4"/>
<polygon fill="#63b8ff" stroke="#63b8ff" points="2755.5,-29.34 2752,-19.34 2748.5,-29.34 2755.5,-29.34"/>
</a>
</g>
</g>
</g>
</svg>
