<?xml version="1.0" encoding="UTF-8" standalone="no"?>
<!DOCTYPE svg PUBLIC "-//W3C//DTD SVG 1.1//EN"
 "http://www.w3.org/Graphics/SVG/1.1/DTD/svg11.dtd">
<!-- Generated by graphviz version 2.43.0 (0)
 -->
<!-- Title: include/Hermes/Endpoint/_base/EndpointConcept.hpp Pages: 1 -->
<svg width="2816pt" height="236pt"
 viewBox="0.00 0.00 2815.50 236.00" xmlns="http://www.w3.org/2000/svg" xmlns:xlink="http://www.w3.org/1999/xlink">
<g id="graph0" class="graph" transform="scale(1 1) rotate(0) translate(4 232)">
<title>include/Hermes/Endpoint/_base/EndpointConcept.hpp</title>
<!-- Node1 -->
<g id="Node000001" class="node">
<title>Node1</title>
<g id="a_Node000001"><a xlink:title=" ">
<polygon fill="#999999" stroke="#666666" points="1027,-228 872,-228 872,-198 1027,-198 1027,-228"/>
<text text-anchor="start" x="880" y="-216" font-family="Helvetica,sans-Serif" font-size="10.00">include/Hermes/Endpoint</text>
<text text-anchor="middle" x="949.5" y="-205" font-family="Helvetica,sans-Serif" font-size="10.00">/_base/EndpointConcept.hpp</text>
</a>
</g>
</g>
<!-- Node2 -->
<g id="Node000002" class="node">
<title>Node2</title>
<g id="a_Node000002"><a xlink:href="_connection_error_enum_8hpp.html" target="_top" xlink:title=" ">
<polygon fill="white" stroke="#666666" points="352,-162 185,-162 185,-132 352,-132 352,-162"/>
<text text-anchor="start" x="193" y="-150" font-family="Helvetica,sans-Serif" font-size="10.00">Hermes/_base/ConnectionError</text>
<text text-anchor="middle" x="268.5" y="-139" font-family="Helvetica,sans-Serif" font-size="10.00">Enum.hpp</text>
</a>
</g>
</g>
<!-- Node1&#45;&gt;Node2 -->
<g id="edge1_Node000001_Node000002" class="edge">
<title>Node1&#45;&gt;Node2</title>
<g id="a_edge1_Node000001_Node000002"><a xlink:title=" ">
<path fill="none" stroke="#63b8ff" d="M871.71,-204.69C745.86,-192.86 498.06,-169.57 362.52,-156.84"/>
<polygon fill="#63b8ff" stroke="#63b8ff" points="362.45,-153.31 352.16,-155.86 361.79,-160.28 362.45,-153.31"/>
</a>
</g>
</g>
<!-- Node8 -->
<g id="Node000008" class="node">
<title>Node8</title>
<g id="a_Node000008"><a xlink:href="_os_api_8hpp.html" target="_top" xlink:title=" ">
<polygon fill="white" stroke="#666666" points="1772.5,-162 1654.5,-162 1654.5,-132 1772.5,-132 1772.5,-162"/>
<text text-anchor="start" x="1662.5" y="-150" font-family="Helvetica,sans-Serif" font-size="10.00">Hermes/_base/OsApi</text>
<text text-anchor="middle" x="1713.5" y="-139" font-family="Helvetica,sans-Serif" font-size="10.00">/OsApi.hpp</text>
</a>
</g>
</g>
<!-- Node1&#45;&gt;Node8 -->
<g id="edge7_Node000001_Node000008" class="edge">
<title>Node1&#45;&gt;Node8</title>
<g id="a_edge7_Node000001_Node000008"><a xlink:title=" ">
<path fill="none" stroke="#63b8ff" d="M1027.32,-205.48C1176.65,-192.97 1501.25,-165.78 1643.89,-153.83"/>
<polygon fill="#63b8ff" stroke="#63b8ff" points="1644.58,-157.29 1654.26,-152.96 1644,-150.31 1644.58,-157.29"/>
</a>
</g>
</g>
<!-- Node3 -->
<g id="Node000003" class="node">
<title>Node3</title>
<g id="a_Node000003"><a xlink:title=" ">
<polygon fill="#e0e0e0" stroke="#999999" points="513.5,-85 451.5,-85 451.5,-66 513.5,-66 513.5,-85"/>
<text text-anchor="middle" x="482.5" y="-73" font-family="Helvetica,sans-Serif" font-size="10.00">expected</text>
</a>
</g>
</g>
<!-- Node2&#45;&gt;Node3 -->
<g id="edge2_Node000002_Node000003" class="edge">
<title>Node2&#45;&gt;Node3</title>
<g id="a_edge2_Node000002_Node000003"><a xlink:title=" ">
<path fill="none" stroke="#63b8ff" d="M326.93,-131.92C361.1,-123.02 404.8,-110.48 442.5,-96 447.42,-94.11 452.56,-91.84 457.46,-89.53"/>
<polygon fill="#63b8ff" stroke="#63b8ff" points="459,-92.67 466.44,-85.12 455.92,-86.39 459,-92.67"/>
</a>
</g>
</g>
<!-- Node4 -->
<g id="Node000004" class="node">
<title>Node4</title>
<g id="a_Node000004"><a xlink:title=" ">
<polygon fill="#e0e0e0" stroke="#999999" points="47,-85 0,-85 0,-66 47,-66 47,-85"/>
<text text-anchor="middle" x="23.5" y="-73" font-family="Helvetica,sans-Serif" font-size="10.00">vector</text>
</a>
</g>
</g>
<!-- Node2&#45;&gt;Node4 -->
<g id="edge3_Node000002_Node000004" class="edge">
<title>Node2&#45;&gt;Node4</title>
<g id="a_edge3_Node000002_Node000004"><a xlink:title=" ">
<path fill="none" stroke="#63b8ff" d="M184.92,-132.35C145.15,-124.33 97.46,-112.49 56.5,-96 52.58,-94.42 48.58,-92.43 44.78,-90.33"/>
<polygon fill="#63b8ff" stroke="#63b8ff" points="46.27,-87.14 35.89,-85.03 42.69,-93.16 46.27,-87.14"/>
</a>
</g>
</g>
<!-- Node5 -->
<g id="Node000005" class="node">
<title>Node5</title>
<g id="a_Node000005"><a xlink:title=" ">
<polygon fill="#e0e0e0" stroke="#999999" points="105.5,-85 65.5,-85 65.5,-66 105.5,-66 105.5,-85"/>
<text text-anchor="middle" x="85.5" y="-73" font-family="Helvetica,sans-Serif" font-size="10.00">span</text>
</a>
</g>
</g>
<!-- Node2&#45;&gt;Node5 -->
<g id="edge4_Node000002_Node000005" class="edge">
<title>Node2&#45;&gt;Node5</title>
<g id="a_edge4_Node000002_Node000005"><a xlink:title=" ">
<path fill="none" stroke="#63b8ff" d="M212.89,-132C182.95,-123.46 145.84,-111.25 114.5,-96 111.39,-94.49 108.23,-92.68 105.19,-90.79"/>
<polygon fill="#63b8ff" stroke="#63b8ff" points="106.88,-87.71 96.63,-85.05 102.99,-93.52 106.88,-87.71"/>
</a>
</g>
</g>
<!-- Node6 -->
<g id="Node000006" class="node">
<title>Node6</title>
<g id="a_Node000006"><a xlink:title=" ">
<polygon fill="#e0e0e0" stroke="#999999" points="249,-85 124,-85 124,-66 249,-66 249,-85"/>
<text text-anchor="middle" x="186.5" y="-73" font-family="Helvetica,sans-Serif" font-size="10.00">stdexec/execution.hpp</text>
</a>
</g>
</g>
<!-- Node2&#45;&gt;Node6 -->
<g id="edge5_Node000002_Node000006" class="edge">
<title>Node2&#45;&gt;Node6</title>
<g id="a_edge5_Node000002_Node000006"><a xlink:title=" ">
<path fill="none" stroke="#63b8ff" d="M251.91,-131.94C238.26,-120.37 218.96,-104.01 204.85,-92.06"/>
<polygon fill="#63b8ff" stroke="#63b8ff" points="206.74,-89.06 196.84,-85.27 202.21,-94.4 206.74,-89.06"/>
</a>
</g>
</g>
<!-- Node7 -->
<g id="Node000007" class="node">
<title>Node7</title>
<g id="a_Node000007"><a xlink:title=" ">
<polygon fill="#e0e0e0" stroke="#999999" points="434,-90.5 267,-90.5 267,-60.5 434,-60.5 434,-90.5"/>
<text text-anchor="start" x="275" y="-78.5" font-family="Helvetica,sans-Serif" font-size="10.00">Hermes/_base/ConnectionError</text>
<text text-anchor="middle" x="350.5" y="-67.5" font-family="Helvetica,sans-Serif" font-size="10.00">Enum.tpp</text>
</a>
</g>
</g>
<!-- Node2&#45;&gt;Node7 -->
<g id="edge6_Node000002_Node000007" class="edge">
<title>Node2&#45;&gt;Node7</title>
<g id="a_edge6_Node000002_Node000007"><a xlink:title=" ">
<path fill="none" stroke="#63b8ff" d="M285.09,-131.94C296.88,-121.95 312.88,-108.38 326.11,-97.17"/>
<polygon fill="#63b8ff" stroke="#63b8ff" points="328.57,-99.68 333.93,-90.54 324.04,-94.34 328.57,-99.68"/>
</a>
</g>
</g>
<!-- Node9 -->
<g id="Node000009" class="node">
<title>Node9</title>
<g id="a_Node000009"><a xlink:title=" ">
<polygon fill="#e0e0e0" stroke="#999999" points="951,-19 874,-19 874,0 951,0 951,-19"/>
<text text-anchor="middle" x="912.5" y="-7" font-family="Helvetica,sans-Serif" font-size="10.00">sys/socket.h</text>
</a>
</g>
</g>
<!-- Node8&#45;&gt;Node9 -->
<g id="edge8_Node000008_Node000009" class="edge">
<title>Node8&#45;&gt;Node9</title>
<g id="a_edge8_Node000008_Node000009"><a xlink:title=" ">
<path fill="none" stroke="#63b8ff" d="M1654.46,-146.27C1481.52,-146.5 984.82,-143.03 930.5,-96 911.62,-79.66 909.58,-48.98 910.53,-29.16"/>
<polygon fill="#63b8ff" stroke="#63b8ff" points="914.02,-29.42 911.3,-19.18 907.04,-28.88 914.02,-29.42"/>
</a>
</g>
</g>
<!-- Node10 -->
<g id="Node000010" class="node">
<title>Node10</title>
<g id="a_Node000010"><a xlink:title=" ">
<polygon fill="#e0e0e0" stroke="#999999" points="2088.5,-19 2016.5,-19 2016.5,0 2088.5,0 2088.5,-19"/>
<text text-anchor="middle" x="2052.5" y="-7" font-family="Helvetica,sans-Serif" font-size="10.00">netinet/in.h</text>
</a>
</g>
</g>
<!-- Node8&#45;&gt;Node10 -->
<g id="edge9_Node000008_Node000010" class="edge">
<title>Node8&#45;&gt;Node10</title>
<g id="a_edge9_Node000008_Node000010"><a xlink:title=" ">
<path fill="none" stroke="#63b8ff" d="M1772.64,-146.29C1934.05,-146.49 2373.03,-142.67 2416.5,-96 2428.92,-82.67 2428.58,-68.64 2416.5,-55 2395.76,-31.57 2192.14,-17.88 2098.81,-12.79"/>
<polygon fill="#63b8ff" stroke="#63b8ff" points="2098.96,-9.29 2088.79,-12.25 2098.59,-16.28 2098.96,-9.29"/>
</a>
</g>
</g>
<!-- Node11 -->
<g id="Node000011" class="node">
<title>Node11</title>
<g id="a_Node000011"><a xlink:title=" ">
<polygon fill="#e0e0e0" stroke="#999999" points="2571,-85 2502,-85 2502,-66 2571,-66 2571,-85"/>
<text text-anchor="middle" x="2536.5" y="-73" font-family="Helvetica,sans-Serif" font-size="10.00">arpa/inet.h</text>
</a>
</g>
</g>
<!-- Node8&#45;&gt;Node11 -->
<g id="edge10_Node000008_Node000011" class="edge">
<title>Node8&#45;&gt;Node11</title>
<g id="a_edge10_Node000008_Node000011"><a xlink:title=" ">
<path fill="none" stroke="#63b8ff" d="M1772.77,-144.57C1929.39,-140.42 2351.54,-126.64 2487.5,-96 2494.7,-94.38 2502.23,-91.84 2509.16,-89.13"/>
<polygon fill="#63b8ff" stroke="#63b8ff" points="2510.9,-92.2 2518.78,-85.12 2508.2,-85.74 2510.9,-92.2"/>
</a>
</g>
</g>
<!-- Node12 -->
<g id="Node000012" class="node">
<title>Node12</title>
<g id="a_Node000012"><a xlink:title=" ">
<polygon fill="#e0e0e0" stroke="#999999" points="2594,-19 2541,-19 2541,0 2594,0 2594,-19"/>
<text text-anchor="middle" x="2567.5" y="-7" font-family="Helvetica,sans-Serif" font-size="10.00">netdb.h</text>
</a>
</g>
</g>
<!-- Node8&#45;&gt;Node12 -->
<g id="edge11_Node000008_Node000012" class="edge">
<title>Node8&#45;&gt;Node12</title>
<g id="a_edge11_Node000008_Node000012"><a xlink:title=" ">
<path fill="none" stroke="#63b8ff" d="M1772.68,-145.92C1922.39,-145.09 2312.96,-138.76 2434.5,-96 2464.62,-85.4 2466.69,-72.35 2493.5,-55 2510.02,-44.31 2529.05,-32.88 2543.68,-24.29"/>
<polygon fill="#63b8ff" stroke="#63b8ff" points="2545.71,-27.15 2552.58,-19.08 2542.18,-21.11 2545.71,-27.15"/>
</a>
</g>
</g>
<!-- Node13 -->
<g id="Node000013" class="node">
<title>Node13</title>
<g id="a_Node000013"><a xlink:title=" ">
<polygon fill="#e0e0e0" stroke="#999999" points="2807.5,-85 2751.5,-85 2751.5,-66 2807.5,-66 2807.5,-85"/>
<text text-anchor="middle" x="2779.5" y="-73" font-family="Helvetica,sans-Serif" font-size="10.00">unistd.h</text>
</a>
</g>
</g>
<!-- Node8&#45;&gt;Node13 -->
<g id="edge12_Node000008_Node000013" class="edge">
<title>Node8&#45;&gt;Node13</title>
<g id="a_edge12_Node000008_Node000013"><a xlink:title=" ">
<path fill="none" stroke="#63b8ff" d="M1772.6,-146.48C1962.87,-147.49 2557.89,-146.45 2742.5,-96 2747.71,-94.58 2753.01,-92.34 2757.91,-89.87"/>
<polygon fill="#63b8ff" stroke="#63b8ff" points="2759.66,-92.91 2766.72,-85.02 2756.28,-86.78 2759.66,-92.91"/>
</a>
</g>
</g>
<!-- Node14 -->
<g id="Node000014" class="node">
<title>Node14</title>
<g id="a_Node000014"><a xlink:href="_conversion_and_literals_8hpp.html" target="_top" xlink:title=" ">
<polygon fill="white" stroke="#666666" points="1429.5,-90.5 1279.5,-90.5 1279.5,-60.5 1429.5,-60.5 1429.5,-90.5"/>
<text text-anchor="start" x="1287.5" y="-78.5" font-family="Helvetica,sans-Serif" font-size="10.00">Hermes/_base/OsApi</text>
<text text-anchor="middle" x="1354.5" y="-67.5" font-family="Helvetica,sans-Serif" font-size="10.00">/ConversionAndLiterals.hpp</text>
</a>
</g>
</g>
<!-- Node8&#45;&gt;Node14 -->
<g id="edge13_Node000008_Node000014" class="edge">
<title>Node8&#45;&gt;Node14</title>
<g id="a_edge13_Node000008_Node000014"><a xlink:title=" ">
<path fill="none" stroke="#63b8ff" d="M1654.33,-136.09C1598.53,-126.55 1512.63,-111.33 1438.5,-96 1433.59,-94.98 1428.52,-93.9 1423.42,-92.78"/>
<polygon fill="#63b8ff" stroke="#63b8ff" points="1424.14,-89.36 1413.62,-90.6 1422.62,-96.19 1424.14,-89.36"/>
</a>
</g>
</g>
<!-- Node16 -->
<g id="Node000016" class="node">
<title>Node16</title>
<g id="a_Node000016"><a xlink:href="_macros_8hpp.html" target="_top" xlink:title=" ">
<polygon fill="white" stroke="#666666" points="1261.5,-90.5 1143.5,-90.5 1143.5,-60.5 1261.5,-60.5 1261.5,-90.5"/>
<text text-anchor="start" x="1151.5" y="-78.5" font-family="Helvetica,sans-Serif" font-size="10.00">Hermes/_base/OsApi</text>
<text text-anchor="middle" x="1202.5" y="-67.5" font-family="Helvetica,sans-Serif" font-size="10.00">/Macros.hpp</text>
</a>
</g>
</g>
<!-- Node8&#45;&gt;Node16 -->
<g id="edge15_Node000008_Node000016" class="edge">
<title>Node8&#45;&gt;Node16</title>
<g id="a_edge15_Node000008_Node000016"><a xlink:title=" ">
<path fill="none" stroke="#63b8ff" d="M1654.26,-142.47C1568.83,-136.66 1406.39,-122.96 1270.5,-96 1266.18,-95.14 1261.74,-94.14 1257.29,-93.06"/>
<polygon fill="#63b8ff" stroke="#63b8ff" points="1258.15,-89.67 1247.6,-90.57 1256.41,-96.45 1258.15,-89.67"/>
</a>
</g>
</g>
<!-- Node18 -->
<g id="Node000018" class="node">
<title>Node18</title>
<g id="a_Node000018"><a xlink:href="_address_family_enum_8hpp.html" target="_top" xlink:title=" ">
<polygon fill="white" stroke="#666666" points="884.5,-90.5 708.5,-90.5 708.5,-60.5 884.5,-60.5 884.5,-90.5"/>
<text text-anchor="start" x="716.5" y="-78.5" font-family="Helvetica,sans-Serif" font-size="10.00">Hermes/_base/OsApi</text>
<text text-anchor="middle" x="796.5" y="-67.5" font-family="Helvetica,sans-Serif" font-size="10.00">/Enums/AddressFamilyEnum.hpp</text>
</a>
</g>
</g>
<!-- Node8&#45;&gt;Node18 -->
<g id="edge18_Node000008_Node000018" class="edge">
<title>Node8&#45;&gt;Node18</title>
<g id="a_edge18_Node000008_Node000018"><a xlink:title=" ">
<path fill="none" stroke="#63b8ff" d="M1654.45,-144.96C1519.85,-142.02 1180.15,-131.42 898.5,-96 890.27,-94.97 881.71,-93.67 873.19,-92.25"/>
<polygon fill="#63b8ff" stroke="#63b8ff" points="873.69,-88.78 863.24,-90.52 872.5,-95.68 873.69,-88.78"/>
</a>
</g>
</g>
<!-- Node19 -->
<g id="Node000019" class="node">
<title>Node19</title>
<g id="a_Node000019"><a xlink:href="_protocol_base_type_enum_8hpp.html" target="_top" xlink:title=" ">
<polygon fill="white" stroke="#666666" points="1809,-90.5 1618,-90.5 1618,-60.5 1809,-60.5 1809,-90.5"/>
<text text-anchor="start" x="1626" y="-78.5" font-family="Helvetica,sans-Serif" font-size="10.00">Hermes/_base/OsApi</text>
<text text-anchor="middle" x="1713.5" y="-67.5" font-family="Helvetica,sans-Serif" font-size="10.00">/Enums/ProtocolBaseTypeEnum.hpp</text>
</a>
</g>
</g>
<!-- Node8&#45;&gt;Node19 -->
<g id="edge20_Node000008_Node000019" class="edge">
<title>Node8&#45;&gt;Node19</title>
<g id="a_edge20_Node000008_Node000019"><a xlink:title=" ">
<path fill="none" stroke="#63b8ff" d="M1713.5,-131.94C1713.5,-122.99 1713.5,-111.16 1713.5,-100.73"/>
<polygon fill="#63b8ff" stroke="#63b8ff" points="1717,-100.54 1713.5,-90.54 1710,-100.54 1717,-100.54"/>
</a>
</g>
</g>
<!-- Node20 -->
<g id="Node000020" class="node">
<title>Node20</title>
<g id="a_Node000020"><a xlink:href="_socket_shutdown_enum_8hpp.html" target="_top" xlink:title=" ">
<polygon fill="white" stroke="#666666" points="1125,-90.5 940,-90.5 940,-60.5 1125,-60.5 1125,-90.5"/>
<text text-anchor="start" x="948" y="-78.5" font-family="Helvetica,sans-Serif" font-size="10.00">Hermes/_base/OsApi</text>
<text text-anchor="middle" x="1032.5" y="-67.5" font-family="Helvetica,sans-Serif" font-size="10.00">/Enums/SocketShutdownEnum.hpp</text>
</a>
</g>
</g>
<!-- Node8&#45;&gt;Node20 -->
<g id="edge22_Node000008_Node000020" class="edge">
<title>Node8&#45;&gt;Node20</title>
<g id="a_edge22_Node000008_Node000020"><a xlink:title=" ">
<path fill="none" stroke="#63b8ff" d="M1654.1,-142.89C1548.96,-136.94 1323.39,-122.14 1134.5,-96 1126.78,-94.93 1118.75,-93.67 1110.75,-92.3"/>
<polygon fill="#63b8ff" stroke="#63b8ff" points="1111.1,-88.81 1100.65,-90.53 1109.89,-95.71 1111.1,-88.81"/>
</a>
</g>
</g>
<!-- Node21 -->
<g id="Node000021" class="node">
<title>Node21</title>
<g id="a_Node000021"><a xlink:href="_socket_type_enum_8hpp.html" target="_top" xlink:title=" ">
<polygon fill="white" stroke="#666666" points="691,-90.5 532,-90.5 532,-60.5 691,-60.5 691,-90.5"/>
<text text-anchor="start" x="540" y="-78.5" font-family="Helvetica,sans-Serif" font-size="10.00">Hermes/_base/OsApi</text>
<text text-anchor="middle" x="611.5" y="-67.5" font-family="Helvetica,sans-Serif" font-size="10.00">/Enums/SocketTypeEnum.hpp</text>
</a>
</g>
</g>
<!-- Node8&#45;&gt;Node21 -->
<g id="edge24_Node000008_Node000021" class="edge">
<title>Node8&#45;&gt;Node21</title>
<g id="a_edge24_Node000008_Node000021"><a xlink:title=" ">
<path fill="none" stroke="#63b8ff" d="M1654.32,-146.56C1497.71,-147.28 1059.78,-144.45 699.5,-96 692.46,-95.05 685.16,-93.83 677.9,-92.46"/>
<polygon fill="#63b8ff" stroke="#63b8ff" points="678.54,-89.02 668.05,-90.51 677.18,-95.88 678.54,-89.02"/>
</a>
</g>
</g>
<!-- Node22 -->
<g id="Node000022" class="node">
<title>Node22</title>
<g id="a_Node000022"><a xlink:href="_linux_2_encrypt_status_enum_8hpp.html" target="_top" xlink:title=" ">
<polygon fill="white" stroke="#666666" points="1599.5,-96 1447.5,-96 1447.5,-55 1599.5,-55 1599.5,-96"/>
<text text-anchor="start" x="1455.5" y="-84" font-family="Helvetica,sans-Serif" font-size="10.00">Hermes/_base/OsApi</text>
<text text-anchor="start" x="1455.5" y="-73" font-family="Helvetica,sans-Serif" font-size="10.00">/Enums/Linux/EncryptStatus</text>
<text text-anchor="middle" x="1523.5" y="-62" font-family="Helvetica,sans-Serif" font-size="10.00">Enum.hpp</text>
</a>
</g>
</g>
<!-- Node8&#45;&gt;Node22 -->
<g id="edge26_Node000008_Node000022" class="edge">
<title>Node8&#45;&gt;Node22</title>
<g id="a_edge26_Node000008_Node000022"><a xlink:title=" ">
<path fill="none" stroke="#63b8ff" d="M1675.05,-131.94C1649.72,-122.67 1615.96,-110.32 1586.73,-99.63"/>
<polygon fill="#63b8ff" stroke="#63b8ff" points="1587.6,-96.22 1577.01,-96.07 1585.2,-102.8 1587.6,-96.22"/>
</a>
</g>
</g>
<!-- Node23 -->
<g id="Node000023" class="node">
<title>Node23</title>
<g id="a_Node000023"><a xlink:href="_name_info_flags_8hpp.html" target="_top" xlink:title=" ">
<polygon fill="white" stroke="#666666" points="2733.5,-90.5 2589.5,-90.5 2589.5,-60.5 2733.5,-60.5 2733.5,-90.5"/>
<text text-anchor="start" x="2597.5" y="-78.5" font-family="Helvetica,sans-Serif" font-size="10.00">Hermes/_base/OsApi</text>
<text text-anchor="middle" x="2661.5" y="-67.5" font-family="Helvetica,sans-Serif" font-size="10.00">/Flags/NameInfoFlags.hpp</text>
</a>
</g>
</g>
<!-- Node8&#45;&gt;Node23 -->
<g id="edge27_Node000008_Node000023" class="edge">
<title>Node8&#45;&gt;Node23</title>
<g id="a_edge27_Node000008_Node000023"><a xlink:title=" ">
<path fill="none" stroke="#63b8ff" d="M1772.74,-146.22C1913.59,-145.94 2279.22,-140.59 2580.5,-96 2586.6,-95.1 2592.92,-93.95 2599.21,-92.67"/>
<polygon fill="#63b8ff" stroke="#63b8ff" points="2600,-96.09 2609.05,-90.57 2598.53,-89.24 2600,-96.09"/>
</a>
</g>
</g>
<!-- Node24 -->
<g id="Node000024" class="node">
<title>Node24</title>
<g id="a_Node000024"><a xlink:href="_linux_2_credential_flags_8hpp.html" target="_top" xlink:title=" ">
<polygon fill="white" stroke="#666666" points="2003.5,-90.5 1827.5,-90.5 1827.5,-60.5 2003.5,-60.5 2003.5,-90.5"/>
<text text-anchor="start" x="1835.5" y="-78.5" font-family="Helvetica,sans-Serif" font-size="10.00">Hermes/_base/OsApi</text>
<text text-anchor="middle" x="1915.5" y="-67.5" font-family="Helvetica,sans-Serif" font-size="10.00">/Flags/Linux/CredentialFlags.hpp</text>
</a>
</g>
</g>
<!-- Node8&#45;&gt;Node24 -->
<g id="edge29_Node000008_Node000024" class="edge">
<title>Node8&#45;&gt;Node24</title>
<g id="a_edge29_Node000008_Node000024"><a xlink:title=" ">
<path fill="none" stroke="#63b8ff" d="M1754.38,-131.94C1786.28,-120.96 1830.75,-105.66 1864.9,-93.91"/>
<polygon fill="#63b8ff" stroke="#63b8ff" points="1866.37,-97.11 1874.68,-90.54 1864.09,-90.49 1866.37,-97.11"/>
</a>
</g>
</g>
<!-- Node25 -->
<g id="Node000025" class="node">
<title>Node25</title>
<g id="a_Node000025"><a xlink:href="_linux_2_supported_protocols_flags_8hpp.html" target="_top" xlink:title=" ">
<polygon fill="white" stroke="#666666" points="2195,-96 2022,-96 2022,-55 2195,-55 2195,-96"/>
<text text-anchor="start" x="2030" y="-84" font-family="Helvetica,sans-Serif" font-size="10.00">Hermes/_base/OsApi</text>
<text text-anchor="start" x="2030" y="-73" font-family="Helvetica,sans-Serif" font-size="10.00">/Flags/Linux/SupportedProtocols</text>
<text text-anchor="middle" x="2108.5" y="-62" font-family="Helvetica,sans-Serif" font-size="10.00">Flags.hpp</text>
</a>
</g>
</g>
<!-- Node8&#45;&gt;Node25 -->
<g id="edge30_Node000008_Node000025" class="edge">
<title>Node8&#45;&gt;Node25</title>
<g id="a_edge30_Node000008_Node000025"><a xlink:title=" ">
<path fill="none" stroke="#63b8ff" d="M1772.61,-136.74C1830.82,-127.47 1922.52,-112.51 2011.88,-96.08"/>
<polygon fill="#63b8ff" stroke="#63b8ff" points="2012.72,-99.49 2021.92,-94.23 2011.45,-92.6 2012.72,-99.49"/>
</a>
</g>
</g>
<!-- Node26 -->
<g id="Node000026" class="node">
<title>Node26</title>
<g id="a_Node000026"><a xlink:href="_linux_2_s_channel_cred_flags_8hpp.html" target="_top" xlink:title=" ">
<polygon fill="white" stroke="#666666" points="2407.5,-90.5 2213.5,-90.5 2213.5,-60.5 2407.5,-60.5 2407.5,-90.5"/>
<text text-anchor="start" x="2221.5" y="-78.5" font-family="Helvetica,sans-Serif" font-size="10.00">Hermes/_base/OsApi</text>
<text text-anchor="middle" x="2310.5" y="-67.5" font-family="Helvetica,sans-Serif" font-size="10.00">/Flags/Linux/SChannelCredFlags.hpp</text>
</a>
</g>
</g>
<!-- Node8&#45;&gt;Node26 -->
<g id="edge31_Node000008_Node000026" class="edge">
<title>Node8&#45;&gt;Node26</title>
<g id="a_edge31_Node000008_Node000026"><a xlink:title=" ">
<path fill="none" stroke="#63b8ff" d="M1772.64,-141.52C1865.07,-134.18 2049.27,-118.15 2204.5,-96 2212.4,-94.87 2220.61,-93.58 2228.81,-92.21"/>
<polygon fill="#63b8ff" stroke="#63b8ff" points="2229.52,-95.64 2238.78,-90.5 2228.34,-88.74 2229.52,-95.64"/>
</a>
</g>
</g>
<!-- Node15 -->
<g id="Node000015" class="node">
<title>Node15</title>
<g id="a_Node000015"><a xlink:title=" ">
<polygon fill="#e0e0e0" stroke="#999999" points="1379.5,-19 1329.5,-19 1329.5,0 1379.5,0 1379.5,-19"/>
<text text-anchor="middle" x="1354.5" y="-7" font-family="Helvetica,sans-Serif" font-size="10.00">cstdint</text>
</a>
</g>
</g>
<!-- Node14&#45;&gt;Node15 -->
<g id="edge14_Node000014_Node000015" class="edge">
<title>Node14&#45;&gt;Node15</title>
<g id="a_edge14_Node000014_Node000015"><a xlink:title=" ">
<path fill="none" stroke="#63b8ff" d="M1354.5,-60.3C1354.5,-51.2 1354.5,-39.29 1354.5,-29.4"/>
<polygon fill="#63b8ff" stroke="#63b8ff" points="1358,-29.34 1354.5,-19.34 1351,-29.34 1358,-29.34"/>
</a>
</g>
</g>
<!-- Node16&#45;&gt;Node9 -->
<g id="edge17_Node000016_Node000009" class="edge">
<title>Node16&#45;&gt;Node9</title>
<g id="a_edge17_Node000016_Node000009"><a xlink:title=" ">
<path fill="none" stroke="#63b8ff" d="M1154.74,-60.49C1147.64,-58.56 1140.4,-56.67 1133.5,-55 1074.56,-40.76 1006.01,-27.46 961.08,-19.17"/>
<polygon fill="#63b8ff" stroke="#63b8ff" points="961.49,-15.69 951.02,-17.33 960.23,-22.58 961.49,-15.69"/>
</a>
</g>
</g>
<!-- Node17 -->
<g id="Node000017" class="node">
<title>Node17</title>
<g id="a_Node000017"><a xlink:title=" ">
<polygon fill="#e0e0e0" stroke="#999999" points="1239,-19 1166,-19 1166,0 1239,0 1239,-19"/>
<text text-anchor="middle" x="1202.5" y="-7" font-family="Helvetica,sans-Serif" font-size="10.00">string_view</text>
</a>
</g>
</g>
<!-- Node16&#45;&gt;Node17 -->
<g id="edge16_Node000016_Node000017" class="edge">
<title>Node16&#45;&gt;Node17</title>
<g id="a_edge16_Node000016_Node000017"><a xlink:title=" ">
<path fill="none" stroke="#63b8ff" d="M1202.5,-60.3C1202.5,-51.2 1202.5,-39.29 1202.5,-29.4"/>
<polygon fill="#63b8ff" stroke="#63b8ff" points="1206,-29.34 1202.5,-19.34 1199,-29.34 1206,-29.34"/>
</a>
</g>
</g>
<!-- Node18&#45;&gt;Node9 -->
<g id="edge19_Node000018_Node000009" class="edge">
<title>Node18&#45;&gt;Node9</title>
<g id="a_edge19_Node000018_Node000009"><a xlink:title=" ">
<path fill="none" stroke="#63b8ff" d="M821.96,-60.45C841.67,-49.58 868.81,-34.61 888.22,-23.9"/>
<polygon fill="#63b8ff" stroke="#63b8ff" points="890,-26.91 897.06,-19.02 886.62,-20.78 890,-26.91"/>
</a>
</g>
</g>
<!-- Node19&#45;&gt;Node10 -->
<g id="edge21_Node000019_Node000010" class="edge">
<title>Node19&#45;&gt;Node10</title>
<g id="a_edge21_Node000019_Node000010"><a xlink:title=" ">
<path fill="none" stroke="#63b8ff" d="M1787.89,-60.45C1854.5,-47.88 1950.07,-29.84 2006.27,-19.23"/>
<polygon fill="#63b8ff" stroke="#63b8ff" points="2007.11,-22.63 2016.29,-17.34 2005.81,-15.75 2007.11,-22.63"/>
</a>
</g>
</g>
<!-- Node20&#45;&gt;Node9 -->
<g id="edge23_Node000020_Node000009" class="edge">
<title>Node20&#45;&gt;Node9</title>
<g id="a_edge23_Node000020_Node000009"><a xlink:title=" ">
<path fill="none" stroke="#63b8ff" d="M1006.17,-60.45C985.68,-49.53 957.44,-34.47 937.34,-23.75"/>
<polygon fill="#63b8ff" stroke="#63b8ff" points="938.94,-20.64 928.47,-19.02 935.65,-26.81 938.94,-20.64"/>
</a>
</g>
</g>
<!-- Node21&#45;&gt;Node9 -->
<g id="edge25_Node000021_Node000009" class="edge">
<title>Node21&#45;&gt;Node9</title>
<g id="a_edge25_Node000021_Node000009"><a xlink:title=" ">
<path fill="none" stroke="#63b8ff" d="M674.45,-60.45C682.87,-58.6 691.39,-56.75 699.5,-55 755.91,-42.86 820.84,-29.36 864.04,-20.45"/>
<polygon fill="#63b8ff" stroke="#63b8ff" points="864.9,-23.85 873.99,-18.4 863.49,-16.99 864.9,-23.85"/>
</a>
</g>
</g>
<!-- Node23&#45;&gt;Node12 -->
<g id="edge28_Node000023_Node000012" class="edge">
<title>Node23&#45;&gt;Node12</title>
<g id="a_edge28_Node000023_Node000012"><a xlink:title=" ">
<path fill="none" stroke="#63b8ff" d="M2640.64,-60.3C2625.18,-49.77 2604.18,-35.47 2588.65,-24.9"/>
<polygon fill="#63b8ff" stroke="#63b8ff" points="2590.45,-21.89 2580.22,-19.16 2586.51,-27.68 2590.45,-21.89"/>
</a>
</g>
</g>
</g>
</svg>
