<?xml version="1.0" encoding="UTF-8" standalone="no"?>
<!DOCTYPE svg PUBLIC "-//W3C//DTD SVG 1.1//EN"
 "http://www.w3.org/Graphics/SVG/1.1/DTD/svg11.dtd">
<!-- Generated by graphviz version 2.43.0 (0)
 -->
<!-- Title: include/Hermes/Endpoint/_base/EndpointConcept.hpp Pages: 1 -->
<svg width="2951pt" height="236pt"
 viewBox="0.00 0.00 2951.00 236.00" xmlns="http://www.w3.org/2000/svg" xmlns:xlink="http://www.w3.org/1999/xlink">
<g id="graph0" class="graph" transform="scale(1 1) rotate(0) translate(4 232)">
<title>include/Hermes/Endpoint/_base/EndpointConcept.hpp</title>
<!-- Node1 -->
<g id="Node000001" class="node">
<title>Node1</title>
<g id="a_Node000001"><a xlink:title=" ">
<polygon fill="#999999" stroke="#666666" points="1082.5,-228 927.5,-228 927.5,-198 1082.5,-198 1082.5,-228"/>
<text text-anchor="start" x="935.5" y="-216" font-family="Helvetica,sans-Serif" font-size="10.00">include/Hermes/Endpoint</text>
<text text-anchor="middle" x="1005" y="-205" font-family="Helvetica,sans-Serif" font-size="10.00">/_base/EndpointConcept.hpp</text>
</a>
</g>
</g>
<!-- Node2 -->
<g id="Node000002" class="node">
<title>Node2</title>
<g id="a_Node000002"><a xlink:href="_connection_error_enum_8hpp.html" target="_top" xlink:title=" ">
<polygon fill="white" stroke="#666666" points="434.5,-162 267.5,-162 267.5,-132 434.5,-132 434.5,-162"/>
<text text-anchor="start" x="275.5" y="-150" font-family="Helvetica,sans-Serif" font-size="10.00">Hermes/_base/ConnectionError</text>
<text text-anchor="middle" x="351" y="-139" font-family="Helvetica,sans-Serif" font-size="10.00">Enum.hpp</text>
</a>
</g>
</g>
<!-- Node1&#45;&gt;Node2 -->
<g id="edge1_Node000001_Node000002" class="edge">
<title>Node1&#45;&gt;Node2</title>
<g id="a_edge1_Node000001_Node000002"><a xlink:title=" ">
<path fill="none" stroke="#63b8ff" d="M927.41,-204.41C806.84,-192.61 574.88,-169.91 444.99,-157.2"/>
<polygon fill="#63b8ff" stroke="#63b8ff" points="444.96,-153.68 434.67,-156.19 444.28,-160.65 444.96,-153.68"/>
</a>
</g>
</g>
<!-- Node8 -->
<g id="Node000008" class="node">
<title>Node8</title>
<g id="a_Node000008"><a xlink:href="_os_api_8hpp.html" target="_top" xlink:title=" ">
<polygon fill="white" stroke="#666666" points="1770,-162 1652,-162 1652,-132 1770,-132 1770,-162"/>
<text text-anchor="start" x="1660" y="-150" font-family="Helvetica,sans-Serif" font-size="10.00">Hermes/_base/OsApi</text>
<text text-anchor="middle" x="1711" y="-139" font-family="Helvetica,sans-Serif" font-size="10.00">/OsApi.hpp</text>
</a>
</g>
</g>
<!-- Node1&#45;&gt;Node8 -->
<g id="edge7_Node000001_Node000008" class="edge">
<title>Node1&#45;&gt;Node8</title>
<g id="a_edge7_Node000001_Node000008"><a xlink:title=" ">
<path fill="none" stroke="#63b8ff" d="M1082.57,-204.97C1221.17,-192.4 1509.18,-166.3 1641.62,-154.29"/>
<polygon fill="#63b8ff" stroke="#63b8ff" points="1642.01,-157.77 1651.65,-153.38 1641.38,-150.8 1642.01,-157.77"/>
</a>
</g>
</g>
<!-- Node3 -->
<g id="Node000003" class="node">
<title>Node3</title>
<g id="a_Node000003"><a xlink:title=" ">
<polygon fill="#e0e0e0" stroke="#999999" points="448,-85 386,-85 386,-66 448,-66 448,-85"/>
<text text-anchor="middle" x="417" y="-73" font-family="Helvetica,sans-Serif" font-size="10.00">expected</text>
</a>
</g>
</g>
<!-- Node2&#45;&gt;Node3 -->
<g id="edge2_Node000002_Node000003" class="edge">
<title>Node2&#45;&gt;Node3</title>
<g id="a_edge2_Node000002_Node000003"><a xlink:title=" ">
<path fill="none" stroke="#63b8ff" d="M364.36,-131.94C375.13,-120.59 390.29,-104.62 401.58,-92.74"/>
<polygon fill="#63b8ff" stroke="#63b8ff" points="404.33,-94.93 408.67,-85.27 399.25,-90.11 404.33,-94.93"/>
</a>
</g>
</g>
<!-- Node4 -->
<g id="Node000004" class="node">
<title>Node4</title>
<g id="a_Node000004"><a xlink:title=" ">
<polygon fill="#e0e0e0" stroke="#999999" points="513.5,-85 466.5,-85 466.5,-66 513.5,-66 513.5,-85"/>
<text text-anchor="middle" x="490" y="-73" font-family="Helvetica,sans-Serif" font-size="10.00">vector</text>
</a>
</g>
</g>
<!-- Node2&#45;&gt;Node4 -->
<g id="edge3_Node000002_Node000004" class="edge">
<title>Node2&#45;&gt;Node4</title>
<g id="a_edge3_Node000002_Node000004"><a xlink:title=" ">
<path fill="none" stroke="#63b8ff" d="M382.92,-131.88C404.16,-122.26 432.55,-108.96 457,-96 460.37,-94.21 463.89,-92.25 467.32,-90.27"/>
<polygon fill="#63b8ff" stroke="#63b8ff" points="469.19,-93.23 476.03,-85.14 465.64,-87.2 469.19,-93.23"/>
</a>
</g>
</g>
<!-- Node5 -->
<g id="Node000005" class="node">
<title>Node5</title>
<g id="a_Node000005"><a xlink:title=" ">
<polygon fill="#e0e0e0" stroke="#999999" points="40,-85 0,-85 0,-66 40,-66 40,-85"/>
<text text-anchor="middle" x="20" y="-73" font-family="Helvetica,sans-Serif" font-size="10.00">span</text>
</a>
</g>
</g>
<!-- Node2&#45;&gt;Node5 -->
<g id="edge4_Node000002_Node000005" class="edge">
<title>Node2&#45;&gt;Node5</title>
<g id="a_edge4_Node000002_Node000005"><a xlink:title=" ">
<path fill="none" stroke="#63b8ff" d="M267.38,-141.74C205.29,-136.32 119.51,-124 49,-96 45.57,-94.64 42.13,-92.82 38.88,-90.84"/>
<polygon fill="#63b8ff" stroke="#63b8ff" points="40.64,-87.8 30.4,-85.09 36.71,-93.6 40.64,-87.8"/>
</a>
</g>
</g>
<!-- Node6 -->
<g id="Node000006" class="node">
<title>Node6</title>
<g id="a_Node000006"><a xlink:title=" ">
<polygon fill="#e0e0e0" stroke="#999999" points="183.5,-85 58.5,-85 58.5,-66 183.5,-66 183.5,-85"/>
<text text-anchor="middle" x="121" y="-73" font-family="Helvetica,sans-Serif" font-size="10.00">stdexec/execution.hpp</text>
</a>
</g>
</g>
<!-- Node2&#45;&gt;Node6 -->
<g id="edge5_Node000002_Node000006" class="edge">
<title>Node2&#45;&gt;Node6</title>
<g id="a_edge5_Node000002_Node000006"><a xlink:title=" ">
<path fill="none" stroke="#63b8ff" d="M304.46,-131.94C261.62,-118.99 198.86,-100.03 158.97,-87.97"/>
<polygon fill="#63b8ff" stroke="#63b8ff" points="159.94,-84.61 149.35,-85.07 157.91,-91.31 159.94,-84.61"/>
</a>
</g>
</g>
<!-- Node7 -->
<g id="Node000007" class="node">
<title>Node7</title>
<g id="a_Node000007"><a xlink:title=" ">
<polygon fill="#e0e0e0" stroke="#999999" points="368.5,-90.5 201.5,-90.5 201.5,-60.5 368.5,-60.5 368.5,-90.5"/>
<text text-anchor="start" x="209.5" y="-78.5" font-family="Helvetica,sans-Serif" font-size="10.00">Hermes/_base/ConnectionError</text>
<text text-anchor="middle" x="285" y="-67.5" font-family="Helvetica,sans-Serif" font-size="10.00">Enum.tpp</text>
</a>
</g>
</g>
<!-- Node2&#45;&gt;Node7 -->
<g id="edge6_Node000002_Node000007" class="edge">
<title>Node2&#45;&gt;Node7</title>
<g id="a_edge6_Node000002_Node000007"><a xlink:title=" ">
<path fill="none" stroke="#63b8ff" d="M337.64,-131.94C328.34,-122.14 315.76,-108.89 305.23,-97.81"/>
<polygon fill="#63b8ff" stroke="#63b8ff" points="307.76,-95.38 298.34,-90.54 302.68,-100.2 307.76,-95.38"/>
</a>
</g>
</g>
<!-- Node9 -->
<g id="Node000009" class="node">
<title>Node9</title>
<g id="a_Node000009"><a xlink:title=" ">
<polygon fill="#e0e0e0" stroke="#999999" points="976.5,-19 899.5,-19 899.5,0 976.5,0 976.5,-19"/>
<text text-anchor="middle" x="938" y="-7" font-family="Helvetica,sans-Serif" font-size="10.00">sys/socket.h</text>
</a>
</g>
</g>
<!-- Node8&#45;&gt;Node9 -->
<g id="edge8_Node000008_Node000009" class="edge">
<title>Node8&#45;&gt;Node9</title>
<g id="a_edge8_Node000008_Node000009"><a xlink:title=" ">
<path fill="none" stroke="#63b8ff" d="M1651.98,-146.12C1483.33,-145.9 1008.12,-141.23 956,-96 937.14,-79.63 935.09,-48.96 936.03,-29.15"/>
<polygon fill="#63b8ff" stroke="#63b8ff" points="939.52,-29.42 936.8,-19.18 932.54,-28.88 939.52,-29.42"/>
</a>
</g>
</g>
<!-- Node10 -->
<g id="Node000010" class="node">
<title>Node10</title>
<g id="a_Node000010"><a xlink:title=" ">
<polygon fill="#e0e0e0" stroke="#999999" points="2160,-19 2088,-19 2088,0 2160,0 2160,-19"/>
<text text-anchor="middle" x="2124" y="-7" font-family="Helvetica,sans-Serif" font-size="10.00">netinet/in.h</text>
</a>
</g>
</g>
<!-- Node8&#45;&gt;Node10 -->
<g id="edge9_Node000008_Node000010" class="edge">
<title>Node8&#45;&gt;Node10</title>
<g id="a_edge9_Node000008_Node000010"><a xlink:title=" ">
<path fill="none" stroke="#63b8ff" d="M1720.15,-131.76C1735.34,-108.56 1765.73,-64.29 1782,-55 1831.39,-26.8 1995.81,-15.95 2077.34,-12.23"/>
<polygon fill="#63b8ff" stroke="#63b8ff" points="2077.96,-15.7 2087.8,-11.77 2077.66,-8.71 2077.96,-15.7"/>
</a>
</g>
</g>
<!-- Node11 -->
<g id="Node000011" class="node">
<title>Node11</title>
<g id="a_Node000011"><a xlink:title=" ">
<polygon fill="#e0e0e0" stroke="#999999" points="2830.5,-85 2761.5,-85 2761.5,-66 2830.5,-66 2830.5,-85"/>
<text text-anchor="middle" x="2796" y="-73" font-family="Helvetica,sans-Serif" font-size="10.00">arpa/inet.h</text>
</a>
</g>
</g>
<!-- Node8&#45;&gt;Node11 -->
<g id="edge10_Node000008_Node000011" class="edge">
<title>Node8&#45;&gt;Node11</title>
<g id="a_edge10_Node000008_Node000011"><a xlink:title=" ">
<path fill="none" stroke="#63b8ff" d="M1770.32,-146.01C1962.04,-145.59 2563.5,-140.65 2752,-96 2758.51,-94.46 2765.25,-91.97 2771.44,-89.29"/>
<polygon fill="#63b8ff" stroke="#63b8ff" points="2773.03,-92.41 2780.61,-85 2770.07,-86.07 2773.03,-92.41"/>
</a>
</g>
</g>
<!-- Node12 -->
<g id="Node000012" class="node">
<title>Node12</title>
<g id="a_Node000012"><a xlink:title=" ">
<polygon fill="#e0e0e0" stroke="#999999" points="2791.5,-19 2738.5,-19 2738.5,0 2791.5,0 2791.5,-19"/>
<text text-anchor="middle" x="2765" y="-7" font-family="Helvetica,sans-Serif" font-size="10.00">netdb.h</text>
</a>
</g>
</g>
<!-- Node8&#45;&gt;Node12 -->
<g id="edge11_Node000008_Node000012" class="edge">
<title>Node8&#45;&gt;Node12</title>
<g id="a_edge11_Node000008_Node000012"><a xlink:title=" ">
<path fill="none" stroke="#63b8ff" d="M1770.26,-145.62C1997.55,-143.87 2802.74,-134.94 2840,-96 2852.6,-82.83 2849.02,-70.83 2840,-55 2831.52,-40.11 2815.87,-29.68 2801.06,-22.69"/>
<polygon fill="#63b8ff" stroke="#63b8ff" points="2802.09,-19.32 2791.52,-18.58 2799.32,-25.75 2802.09,-19.32"/>
</a>
</g>
</g>
<!-- Node13 -->
<g id="Node000013" class="node">
<title>Node13</title>
<g id="a_Node000013"><a xlink:title=" ">
<polygon fill="#e0e0e0" stroke="#999999" points="2943,-85 2887,-85 2887,-66 2943,-66 2943,-85"/>
<text text-anchor="middle" x="2915" y="-73" font-family="Helvetica,sans-Serif" font-size="10.00">unistd.h</text>
</a>
</g>
</g>
<!-- Node8&#45;&gt;Node13 -->
<g id="edge12_Node000008_Node000013" class="edge">
<title>Node8&#45;&gt;Node13</title>
<g id="a_edge12_Node000008_Node000013"><a xlink:title=" ">
<path fill="none" stroke="#63b8ff" d="M1770.29,-146.49C1976.38,-147.72 2660.62,-147.71 2873,-96 2879.1,-94.51 2885.4,-92.12 2891.19,-89.51"/>
<polygon fill="#63b8ff" stroke="#63b8ff" points="2892.91,-92.56 2900.36,-85.03 2889.84,-86.27 2892.91,-92.56"/>
</a>
</g>
</g>
<!-- Node14 -->
<g id="Node000014" class="node">
<title>Node14</title>
<g id="a_Node000014"><a xlink:href="_types_8hpp.html" target="_top" xlink:title=" ">
<polygon fill="white" stroke="#666666" points="1397,-90.5 1279,-90.5 1279,-60.5 1397,-60.5 1397,-90.5"/>
<text text-anchor="start" x="1287" y="-78.5" font-family="Helvetica,sans-Serif" font-size="10.00">Hermes/_base/OsApi</text>
<text text-anchor="middle" x="1338" y="-67.5" font-family="Helvetica,sans-Serif" font-size="10.00">/Types.hpp</text>
</a>
</g>
</g>
<!-- Node8&#45;&gt;Node14 -->
<g id="edge13_Node000008_Node000014" class="edge">
<title>Node8&#45;&gt;Node14</title>
<g id="a_edge13_Node000008_Node000014"><a xlink:title=" ">
<path fill="none" stroke="#63b8ff" d="M1651.85,-138.39C1590.12,-129.96 1490.68,-115.02 1406,-96 1402.13,-95.13 1398.16,-94.17 1394.17,-93.16"/>
<polygon fill="#63b8ff" stroke="#63b8ff" points="1394.83,-89.71 1384.27,-90.55 1393.05,-96.48 1394.83,-89.71"/>
</a>
</g>
</g>
<!-- Node16 -->
<g id="Node000016" class="node">
<title>Node16</title>
<g id="a_Node000016"><a xlink:href="_conversion_and_literals_8hpp.html" target="_top" xlink:title=" ">
<polygon fill="white" stroke="#666666" points="1565,-90.5 1415,-90.5 1415,-60.5 1565,-60.5 1565,-90.5"/>
<text text-anchor="start" x="1423" y="-78.5" font-family="Helvetica,sans-Serif" font-size="10.00">Hermes/_base/OsApi</text>
<text text-anchor="middle" x="1490" y="-67.5" font-family="Helvetica,sans-Serif" font-size="10.00">/ConversionAndLiterals.hpp</text>
</a>
</g>
</g>
<!-- Node8&#45;&gt;Node16 -->
<g id="edge15_Node000008_Node000016" class="edge">
<title>Node8&#45;&gt;Node16</title>
<g id="a_edge15_Node000008_Node000016"><a xlink:title=" ">
<path fill="none" stroke="#63b8ff" d="M1666.28,-131.94C1631.08,-120.87 1581.88,-105.4 1544.4,-93.61"/>
<polygon fill="#63b8ff" stroke="#63b8ff" points="1545.25,-90.2 1534.66,-90.54 1543.15,-96.88 1545.25,-90.2"/>
</a>
</g>
</g>
<!-- Node18 -->
<g id="Node000018" class="node">
<title>Node18</title>
<g id="a_Node000018"><a xlink:href="_macros_8hpp.html" target="_top" xlink:title=" ">
<polygon fill="white" stroke="#666666" points="1261,-90.5 1143,-90.5 1143,-60.5 1261,-60.5 1261,-90.5"/>
<text text-anchor="start" x="1151" y="-78.5" font-family="Helvetica,sans-Serif" font-size="10.00">Hermes/_base/OsApi</text>
<text text-anchor="middle" x="1202" y="-67.5" font-family="Helvetica,sans-Serif" font-size="10.00">/Macros.hpp</text>
</a>
</g>
</g>
<!-- Node8&#45;&gt;Node18 -->
<g id="edge17_Node000008_Node000018" class="edge">
<title>Node8&#45;&gt;Node18</title>
<g id="a_edge17_Node000008_Node000018"><a xlink:title=" ">
<path fill="none" stroke="#63b8ff" d="M1651.67,-142.42C1566.54,-136.57 1405.09,-122.83 1270,-96 1265.68,-95.14 1261.24,-94.14 1256.79,-93.06"/>
<polygon fill="#63b8ff" stroke="#63b8ff" points="1257.66,-89.67 1247.1,-90.57 1255.91,-96.44 1257.66,-89.67"/>
</a>
</g>
</g>
<!-- Node20 -->
<g id="Node000020" class="node">
<title>Node20</title>
<g id="a_Node000020"><a xlink:href="_address_family_enum_8hpp.html" target="_top" xlink:title=" ">
<polygon fill="white" stroke="#666666" points="708,-90.5 532,-90.5 532,-60.5 708,-60.5 708,-90.5"/>
<text text-anchor="start" x="540" y="-78.5" font-family="Helvetica,sans-Serif" font-size="10.00">Hermes/_base/OsApi</text>
<text text-anchor="middle" x="620" y="-67.5" font-family="Helvetica,sans-Serif" font-size="10.00">/Enums/AddressFamilyEnum.hpp</text>
</a>
</g>
</g>
<!-- Node8&#45;&gt;Node20 -->
<g id="edge20_Node000008_Node000020" class="edge">
<title>Node8&#45;&gt;Node20</title>
<g id="a_edge20_Node000008_Node000020"><a xlink:title=" ">
<path fill="none" stroke="#63b8ff" d="M1651.85,-146.12C1497.33,-145.76 1069.08,-140.47 716,-96 708.14,-95.01 699.97,-93.74 691.85,-92.31"/>
<polygon fill="#63b8ff" stroke="#63b8ff" points="692.47,-88.87 682,-90.51 691.21,-95.75 692.47,-88.87"/>
</a>
</g>
</g>
<!-- Node21 -->
<g id="Node000021" class="node">
<title>Node21</title>
<g id="a_Node000021"><a xlink:href="_protocol_base_type_enum_8hpp.html" target="_top" xlink:title=" ">
<polygon fill="white" stroke="#666666" points="2580.5,-90.5 2389.5,-90.5 2389.5,-60.5 2580.5,-60.5 2580.5,-90.5"/>
<text text-anchor="start" x="2397.5" y="-78.5" font-family="Helvetica,sans-Serif" font-size="10.00">Hermes/_base/OsApi</text>
<text text-anchor="middle" x="2485" y="-67.5" font-family="Helvetica,sans-Serif" font-size="10.00">/Enums/ProtocolBaseTypeEnum.hpp</text>
</a>
</g>
</g>
<!-- Node8&#45;&gt;Node21 -->
<g id="edge22_Node000008_Node000021" class="edge">
<title>Node8&#45;&gt;Node21</title>
<g id="a_edge22_Node000008_Node000021"><a xlink:title=" ">
<path fill="none" stroke="#63b8ff" d="M1770.28,-143.74C1887.27,-138.81 2155.93,-125.09 2380,-96 2388.26,-94.93 2396.85,-93.63 2405.41,-92.22"/>
<polygon fill="#63b8ff" stroke="#63b8ff" points="2406.14,-95.65 2415.42,-90.52 2404.97,-88.75 2406.14,-95.65"/>
</a>
</g>
</g>
<!-- Node22 -->
<g id="Node000022" class="node">
<title>Node22</title>
<g id="a_Node000022"><a xlink:href="_socket_shutdown_enum_8hpp.html" target="_top" xlink:title=" ">
<polygon fill="white" stroke="#666666" points="910.5,-90.5 725.5,-90.5 725.5,-60.5 910.5,-60.5 910.5,-90.5"/>
<text text-anchor="start" x="733.5" y="-78.5" font-family="Helvetica,sans-Serif" font-size="10.00">Hermes/_base/OsApi</text>
<text text-anchor="middle" x="818" y="-67.5" font-family="Helvetica,sans-Serif" font-size="10.00">/Enums/SocketShutdownEnum.hpp</text>
</a>
</g>
</g>
<!-- Node8&#45;&gt;Node22 -->
<g id="edge24_Node000008_Node000022" class="edge">
<title>Node8&#45;&gt;Node22</title>
<g id="a_edge24_Node000008_Node000022"><a xlink:title=" ">
<path fill="none" stroke="#63b8ff" d="M1651.54,-144.63C1519.97,-141.06 1194.4,-129.34 924,-96 915.43,-94.94 906.51,-93.63 897.64,-92.2"/>
<polygon fill="#63b8ff" stroke="#63b8ff" points="898.11,-88.73 887.67,-90.53 896.95,-95.63 898.11,-88.73"/>
</a>
</g>
</g>
<!-- Node23 -->
<g id="Node000023" class="node">
<title>Node23</title>
<g id="a_Node000023"><a xlink:href="_socket_type_enum_8hpp.html" target="_top" xlink:title=" ">
<polygon fill="white" stroke="#666666" points="1124.5,-90.5 965.5,-90.5 965.5,-60.5 1124.5,-60.5 1124.5,-90.5"/>
<text text-anchor="start" x="973.5" y="-78.5" font-family="Helvetica,sans-Serif" font-size="10.00">Hermes/_base/OsApi</text>
<text text-anchor="middle" x="1045" y="-67.5" font-family="Helvetica,sans-Serif" font-size="10.00">/Enums/SocketTypeEnum.hpp</text>
</a>
</g>
</g>
<!-- Node8&#45;&gt;Node23 -->
<g id="edge26_Node000008_Node000023" class="edge">
<title>Node8&#45;&gt;Node23</title>
<g id="a_edge26_Node000008_Node000023"><a xlink:title=" ">
<path fill="none" stroke="#63b8ff" d="M1651.73,-143.4C1546.84,-138.22 1321.87,-124.6 1134,-96 1127.49,-95.01 1120.74,-93.82 1114,-92.53"/>
<polygon fill="#63b8ff" stroke="#63b8ff" points="1114.65,-89.1 1104.16,-90.58 1113.29,-95.96 1114.65,-89.1"/>
</a>
</g>
</g>
<!-- Node24 -->
<g id="Node000024" class="node">
<title>Node24</title>
<g id="a_Node000024"><a xlink:href="_linux_2_encrypt_status_enum_8hpp.html" target="_top" xlink:title=" ">
<polygon fill="white" stroke="#666666" points="1735,-96 1583,-96 1583,-55 1735,-55 1735,-96"/>
<text text-anchor="start" x="1591" y="-84" font-family="Helvetica,sans-Serif" font-size="10.00">Hermes/_base/OsApi</text>
<text text-anchor="start" x="1591" y="-73" font-family="Helvetica,sans-Serif" font-size="10.00">/Enums/Linux/EncryptStatus</text>
<text text-anchor="middle" x="1659" y="-62" font-family="Helvetica,sans-Serif" font-size="10.00">Enum.hpp</text>
</a>
</g>
</g>
<!-- Node8&#45;&gt;Node24 -->
<g id="edge28_Node000008_Node000024" class="edge">
<title>Node8&#45;&gt;Node24</title>
<g id="a_edge28_Node000008_Node000024"><a xlink:title=" ">
<path fill="none" stroke="#63b8ff" d="M1700.48,-131.94C1694.51,-123.96 1686.83,-113.7 1679.71,-104.17"/>
<polygon fill="#63b8ff" stroke="#63b8ff" points="1682.44,-101.98 1673.64,-96.07 1676.83,-106.18 1682.44,-101.98"/>
</a>
</g>
</g>
<!-- Node25 -->
<g id="Node000025" class="node">
<title>Node25</title>
<g id="a_Node000025"><a xlink:href="_name_info_flags_8hpp.html" target="_top" xlink:title=" ">
<polygon fill="white" stroke="#666666" points="2743,-90.5 2599,-90.5 2599,-60.5 2743,-60.5 2743,-90.5"/>
<text text-anchor="start" x="2607" y="-78.5" font-family="Helvetica,sans-Serif" font-size="10.00">Hermes/_base/OsApi</text>
<text text-anchor="middle" x="2671" y="-67.5" font-family="Helvetica,sans-Serif" font-size="10.00">/Flags/NameInfoFlags.hpp</text>
</a>
</g>
</g>
<!-- Node8&#45;&gt;Node25 -->
<g id="edge29_Node000008_Node000025" class="edge">
<title>Node8&#45;&gt;Node25</title>
<g id="a_edge29_Node000008_Node000025"><a xlink:title=" ">
<path fill="none" stroke="#63b8ff" d="M1770,-146.28C1912.02,-146.17 2283.79,-141.19 2590,-96 2596.1,-95.1 2602.42,-93.96 2608.71,-92.68"/>
<polygon fill="#63b8ff" stroke="#63b8ff" points="2609.5,-96.09 2618.55,-90.57 2608.04,-89.25 2609.5,-96.09"/>
</a>
</g>
</g>
<!-- Node26 -->
<g id="Node000026" class="node">
<title>Node26</title>
<g id="a_Node000026"><a xlink:href="_linux_2_credential_flags_8hpp.html" target="_top" xlink:title=" ">
<polygon fill="white" stroke="#666666" points="1967,-90.5 1791,-90.5 1791,-60.5 1967,-60.5 1967,-90.5"/>
<text text-anchor="start" x="1799" y="-78.5" font-family="Helvetica,sans-Serif" font-size="10.00">Hermes/_base/OsApi</text>
<text text-anchor="middle" x="1879" y="-67.5" font-family="Helvetica,sans-Serif" font-size="10.00">/Flags/Linux/CredentialFlags.hpp</text>
</a>
</g>
</g>
<!-- Node8&#45;&gt;Node26 -->
<g id="edge31_Node000008_Node000026" class="edge">
<title>Node8&#45;&gt;Node26</title>
<g id="a_edge31_Node000008_Node000026"><a xlink:title=" ">
<path fill="none" stroke="#63b8ff" d="M1745,-131.94C1771.18,-121.1 1807.57,-106.05 1835.81,-94.37"/>
<polygon fill="#63b8ff" stroke="#63b8ff" points="1837.15,-97.6 1845.05,-90.54 1834.47,-91.13 1837.15,-97.6"/>
</a>
</g>
</g>
<!-- Node27 -->
<g id="Node000027" class="node">
<title>Node27</title>
<g id="a_Node000027"><a xlink:href="_linux_2_supported_protocols_flags_8hpp.html" target="_top" xlink:title=" ">
<polygon fill="white" stroke="#666666" points="2158.5,-96 1985.5,-96 1985.5,-55 2158.5,-55 2158.5,-96"/>
<text text-anchor="start" x="1993.5" y="-84" font-family="Helvetica,sans-Serif" font-size="10.00">Hermes/_base/OsApi</text>
<text text-anchor="start" x="1993.5" y="-73" font-family="Helvetica,sans-Serif" font-size="10.00">/Flags/Linux/SupportedProtocols</text>
<text text-anchor="middle" x="2072" y="-62" font-family="Helvetica,sans-Serif" font-size="10.00">Flags.hpp</text>
</a>
</g>
</g>
<!-- Node8&#45;&gt;Node27 -->
<g id="edge32_Node000008_Node000027" class="edge">
<title>Node8&#45;&gt;Node27</title>
<g id="a_edge32_Node000008_Node000027"><a xlink:title=" ">
<path fill="none" stroke="#63b8ff" d="M1770.25,-135.06C1821.78,-125.5 1898.73,-111.08 1975.55,-96.08"/>
<polygon fill="#63b8ff" stroke="#63b8ff" points="1976.26,-99.5 1985.4,-94.15 1974.92,-92.63 1976.26,-99.5"/>
</a>
</g>
</g>
<!-- Node28 -->
<g id="Node000028" class="node">
<title>Node28</title>
<g id="a_Node000028"><a xlink:href="_linux_2_s_channel_cred_flags_8hpp.html" target="_top" xlink:title=" ">
<polygon fill="white" stroke="#666666" points="2371,-90.5 2177,-90.5 2177,-60.5 2371,-60.5 2371,-90.5"/>
<text text-anchor="start" x="2185" y="-78.5" font-family="Helvetica,sans-Serif" font-size="10.00">Hermes/_base/OsApi</text>
<text text-anchor="middle" x="2274" y="-67.5" font-family="Helvetica,sans-Serif" font-size="10.00">/Flags/Linux/SChannelCredFlags.hpp</text>
</a>
</g>
</g>
<!-- Node8&#45;&gt;Node28 -->
<g id="edge33_Node000008_Node000028" class="edge">
<title>Node8&#45;&gt;Node28</title>
<g id="a_edge33_Node000008_Node000028"><a xlink:title=" ">
<path fill="none" stroke="#63b8ff" d="M1770.33,-140.9C1857.67,-133.08 2025.85,-116.82 2168,-96 2175.68,-94.87 2183.66,-93.6 2191.63,-92.26"/>
<polygon fill="#63b8ff" stroke="#63b8ff" points="2192.44,-95.67 2201.7,-90.53 2191.25,-88.77 2192.44,-95.67"/>
</a>
</g>
</g>
<!-- Node15 -->
<g id="Node000015" class="node">
<title>Node15</title>
<g id="a_Node000015"><a xlink:title=" ">
<polygon fill="#e0e0e0" stroke="#999999" points="1375,-19 1301,-19 1301,0 1375,0 1375,-19"/>
<text text-anchor="middle" x="1338" y="-7" font-family="Helvetica,sans-Serif" font-size="10.00">WinSock2.h</text>
</a>
</g>
</g>
<!-- Node14&#45;&gt;Node15 -->
<g id="edge14_Node000014_Node000015" class="edge">
<title>Node14&#45;&gt;Node15</title>
<g id="a_edge14_Node000014_Node000015"><a xlink:title=" ">
<path fill="none" stroke="#63b8ff" d="M1338,-60.3C1338,-51.2 1338,-39.29 1338,-29.4"/>
<polygon fill="#63b8ff" stroke="#63b8ff" points="1341.5,-29.34 1338,-19.34 1334.5,-29.34 1341.5,-29.34"/>
</a>
</g>
</g>
<!-- Node17 -->
<g id="Node000017" class="node">
<title>Node17</title>
<g id="a_Node000017"><a xlink:title=" ">
<polygon fill="#e0e0e0" stroke="#999999" points="1515,-19 1465,-19 1465,0 1515,0 1515,-19"/>
<text text-anchor="middle" x="1490" y="-7" font-family="Helvetica,sans-Serif" font-size="10.00">cstdint</text>
</a>
</g>
</g>
<!-- Node16&#45;&gt;Node17 -->
<g id="edge16_Node000016_Node000017" class="edge">
<title>Node16&#45;&gt;Node17</title>
<g id="a_edge16_Node000016_Node000017"><a xlink:title=" ">
<path fill="none" stroke="#63b8ff" d="M1490,-60.3C1490,-51.2 1490,-39.29 1490,-29.4"/>
<polygon fill="#63b8ff" stroke="#63b8ff" points="1493.5,-29.34 1490,-19.34 1486.5,-29.34 1493.5,-29.34"/>
</a>
</g>
</g>
<!-- Node18&#45;&gt;Node9 -->
<g id="edge19_Node000018_Node000009" class="edge">
<title>Node18&#45;&gt;Node9</title>
<g id="a_edge19_Node000018_Node000009"><a xlink:title=" ">
<path fill="none" stroke="#63b8ff" d="M1153.46,-60.44C1146.6,-58.56 1139.63,-56.69 1133,-55 1083.32,-42.32 1026.08,-29.46 986.53,-20.85"/>
<polygon fill="#63b8ff" stroke="#63b8ff" points="987.13,-17.4 976.62,-18.7 985.65,-24.24 987.13,-17.4"/>
</a>
</g>
</g>
<!-- Node19 -->
<g id="Node000019" class="node">
<title>Node19</title>
<g id="a_Node000019"><a xlink:title=" ">
<polygon fill="#e0e0e0" stroke="#999999" points="1238.5,-19 1165.5,-19 1165.5,0 1238.5,0 1238.5,-19"/>
<text text-anchor="middle" x="1202" y="-7" font-family="Helvetica,sans-Serif" font-size="10.00">string_view</text>
</a>
</g>
</g>
<!-- Node18&#45;&gt;Node19 -->
<g id="edge18_Node000018_Node000019" class="edge">
<title>Node18&#45;&gt;Node19</title>
<g id="a_edge18_Node000018_Node000019"><a xlink:title=" ">
<path fill="none" stroke="#63b8ff" d="M1202,-60.3C1202,-51.2 1202,-39.29 1202,-29.4"/>
<polygon fill="#63b8ff" stroke="#63b8ff" points="1205.5,-29.34 1202,-19.34 1198.5,-29.34 1205.5,-29.34"/>
</a>
</g>
</g>
<!-- Node20&#45;&gt;Node9 -->
<g id="edge21_Node000020_Node000009" class="edge">
<title>Node20&#45;&gt;Node9</title>
<g id="a_edge21_Node000020_Node000009"><a xlink:title=" ">
<path fill="none" stroke="#63b8ff" d="M688.95,-60.47C698.05,-58.63 707.25,-56.77 716,-55 775.7,-42.95 844.45,-29.19 889.43,-20.2"/>
<polygon fill="#63b8ff" stroke="#63b8ff" points="890.37,-23.58 899.49,-18.19 889,-16.72 890.37,-23.58"/>
</a>
</g>
</g>
<!-- Node21&#45;&gt;Node10 -->
<g id="edge23_Node000021_Node000010" class="edge">
<title>Node21&#45;&gt;Node10</title>
<g id="a_edge23_Node000021_Node000010"><a xlink:title=" ">
<path fill="none" stroke="#63b8ff" d="M2410.17,-60.49C2400.03,-58.63 2389.76,-56.76 2380,-55 2306.69,-41.82 2221.44,-27.13 2170.16,-18.36"/>
<polygon fill="#63b8ff" stroke="#63b8ff" points="2170.51,-14.87 2160.06,-16.63 2169.33,-21.77 2170.51,-14.87"/>
</a>
</g>
</g>
<!-- Node22&#45;&gt;Node9 -->
<g id="edge25_Node000022_Node000009" class="edge">
<title>Node22&#45;&gt;Node9</title>
<g id="a_edge25_Node000022_Node000009"><a xlink:title=" ">
<path fill="none" stroke="#63b8ff" d="M844.33,-60.45C864.82,-49.53 893.06,-34.47 913.16,-23.75"/>
<polygon fill="#63b8ff" stroke="#63b8ff" points="914.85,-26.81 922.03,-19.02 911.56,-20.64 914.85,-26.81"/>
</a>
</g>
</g>
<!-- Node23&#45;&gt;Node9 -->
<g id="edge27_Node000023_Node000009" class="edge">
<title>Node23&#45;&gt;Node9</title>
<g id="a_edge27_Node000023_Node000009"><a xlink:title=" ">
<path fill="none" stroke="#63b8ff" d="M1021.52,-60.45C1003.5,-49.68 978.76,-34.88 960.89,-24.19"/>
<polygon fill="#63b8ff" stroke="#63b8ff" points="962.62,-21.15 952.24,-19.02 959.03,-27.15 962.62,-21.15"/>
</a>
</g>
</g>
<!-- Node25&#45;&gt;Node12 -->
<g id="edge30_Node000025_Node000012" class="edge">
<title>Node25&#45;&gt;Node12</title>
<g id="a_edge30_Node000025_Node000012"><a xlink:title=" ">
<path fill="none" stroke="#63b8ff" d="M2691.86,-60.3C2707.32,-49.77 2728.32,-35.47 2743.85,-24.9"/>
<polygon fill="#63b8ff" stroke="#63b8ff" points="2745.99,-27.68 2752.28,-19.16 2742.05,-21.89 2745.99,-27.68"/>
</a>
</g>
</g>
</g>
</svg>
