<?xml version="1.0" encoding="UTF-8" standalone="no"?>
<!DOCTYPE svg PUBLIC "-//W3C//DTD SVG 1.1//EN"
 "http://www.w3.org/Graphics/SVG/1.1/DTD/svg11.dtd">
<!-- Generated by graphviz version 2.43.0 (0)
 -->
<!-- Title: include/Hermes/Endpoint/_base/EndpointConcept.hpp Pages: 1 -->
<svg width="903pt" height="456pt"
 viewBox="0.00 0.00 902.50 456.00" xmlns="http://www.w3.org/2000/svg" xmlns:xlink="http://www.w3.org/1999/xlink">
<g id="graph0" class="graph" transform="scale(1 1) rotate(0) translate(4 452)">
<title>include/Hermes/Endpoint/_base/EndpointConcept.hpp</title>
<!-- Node1 -->
<g id="Node000001" class="node">
<title>Node1</title>
<g id="a_Node000001"><a xlink:title=" ">
<polygon fill="#999999" stroke="#666666" points="467.5,-448 312.5,-448 312.5,-418 467.5,-418 467.5,-448"/>
<text text-anchor="start" x="320.5" y="-436" font-family="Helvetica,sans-Serif" font-size="10.00">include/Hermes/Endpoint</text>
<text text-anchor="middle" x="390" y="-425" font-family="Helvetica,sans-Serif" font-size="10.00">/_base/EndpointConcept.hpp</text>
</a>
</g>
</g>
<!-- Node2 -->
<g id="Node000002" class="node">
<title>Node2</title>
<g id="a_Node000002"><a xlink:href="_ip_endpoint_8hpp.html" target="_top" xlink:title=" ">
<polygon fill="white" stroke="#666666" points="385.5,-382 238.5,-382 238.5,-352 385.5,-352 385.5,-382"/>
<text text-anchor="start" x="246.5" y="-370" font-family="Helvetica,sans-Serif" font-size="10.00">include/Hermes/Endpoint</text>
<text text-anchor="middle" x="312" y="-359" font-family="Helvetica,sans-Serif" font-size="10.00">/IpEndpoint/IpEndpoint.hpp</text>
</a>
</g>
</g>
<!-- Node1&#45;&gt;Node2 -->
<g id="edge1_Node000001_Node000002" class="edge">
<title>Node1&#45;&gt;Node2</title>
<g id="a_edge1_Node000001_Node000002"><a xlink:title=" ">
<path fill="none" stroke="#63b8ff" d="M364.65,-411.2C353.07,-401.7 339.65,-390.69 329.26,-382.16"/>
<polygon fill="#63b8ff" stroke="#63b8ff" points="362.74,-414.16 372.69,-417.8 367.18,-408.75 362.74,-414.16"/>
</a>
</g>
</g>
<!-- Node14 -->
<g id="Node000014" class="node">
<title>Node14</title>
<g id="a_Node000014"><a xlink:href="__base_8hpp.html" target="_top" xlink:title=" ">
<polygon fill="white" stroke="#666666" points="532,-382 404,-382 404,-352 532,-352 532,-382"/>
<text text-anchor="start" x="412" y="-370" font-family="Helvetica,sans-Serif" font-size="10.00">include/Hermes/Socket</text>
<text text-anchor="middle" x="468" y="-359" font-family="Helvetica,sans-Serif" font-size="10.00">/_base/_base.hpp</text>
</a>
</g>
</g>
<!-- Node1&#45;&gt;Node14 -->
<g id="edge21_Node000001_Node000014" class="edge">
<title>Node1&#45;&gt;Node14</title>
<g id="a_edge21_Node000001_Node000014"><a xlink:title=" ">
<path fill="none" stroke="#63b8ff" d="M415.35,-411.2C426.93,-401.7 440.35,-390.69 450.74,-382.16"/>
<polygon fill="#63b8ff" stroke="#63b8ff" points="412.82,-408.75 407.31,-417.8 417.26,-414.16 412.82,-408.75"/>
</a>
</g>
</g>
<!-- Node3 -->
<g id="Node000003" class="node">
<title>Node3</title>
<g id="a_Node000003"><a xlink:href="_default_socket_data_8hpp.html" target="_top" xlink:title=" ">
<polygon fill="white" stroke="#666666" points="440,-316 250,-316 250,-286 440,-286 440,-316"/>
<text text-anchor="start" x="258" y="-304" font-family="Helvetica,sans-Serif" font-size="10.00">include/Hermes/Socket</text>
<text text-anchor="middle" x="345" y="-293" font-family="Helvetica,sans-Serif" font-size="10.00">/_base/Data/DefaultSocketData.hpp</text>
</a>
</g>
</g>
<!-- Node2&#45;&gt;Node3 -->
<g id="edge2_Node000002_Node000003" class="edge">
<title>Node2&#45;&gt;Node3</title>
<g id="a_edge2_Node000002_Node000003"><a xlink:title=" ">
<path fill="none" stroke="#63b8ff" d="M324.02,-342.68C328.61,-333.79 333.68,-323.95 337.7,-316.16"/>
<polygon fill="#63b8ff" stroke="#63b8ff" points="320.8,-341.3 319.32,-351.8 327.02,-344.51 320.8,-341.3"/>
</a>
</g>
</g>
<!-- Node12 -->
<g id="Node000012" class="node">
<title>Node12</title>
<g id="a_Node000012"><a xlink:href="_tls_socket_data_8hpp.html" target="_top" xlink:title=" ">
<polygon fill="white" stroke="#666666" points="380,-244.5 212,-244.5 212,-214.5 380,-214.5 380,-244.5"/>
<text text-anchor="start" x="220" y="-232.5" font-family="Helvetica,sans-Serif" font-size="10.00">include/Hermes/Socket</text>
<text text-anchor="middle" x="296" y="-221.5" font-family="Helvetica,sans-Serif" font-size="10.00">/_base/Data/TlsSocketData.hpp</text>
</a>
</g>
</g>
<!-- Node2&#45;&gt;Node12 -->
<g id="edge15_Node000002_Node000012" class="edge">
<title>Node2&#45;&gt;Node12</title>
<g id="a_edge15_Node000002_Node000012"><a xlink:title=" ">
<path fill="none" stroke="#63b8ff" d="M245.96,-347.71C230.97,-340.34 216.88,-330.11 208,-316 189.52,-286.61 230.25,-259.98 262.28,-244.52"/>
<polygon fill="#63b8ff" stroke="#63b8ff" points="244.81,-351.03 255.36,-351.93 247.68,-344.64 244.81,-351.03"/>
</a>
</g>
</g>
<!-- Node4 -->
<g id="Node000004" class="node">
<title>Node4</title>
<g id="a_Node000004"><a xlink:href="_default_accept_policy_8hpp.html" target="_top" xlink:title=" ">
<polygon fill="white" stroke="#666666" points="156,-250 0,-250 0,-209 156,-209 156,-250"/>
<text text-anchor="start" x="8" y="-238" font-family="Helvetica,sans-Serif" font-size="10.00">include/Hermes/Socket</text>
<text text-anchor="start" x="8" y="-227" font-family="Helvetica,sans-Serif" font-size="10.00">/_base/Accept/DefaultAccept</text>
<text text-anchor="middle" x="78" y="-216" font-family="Helvetica,sans-Serif" font-size="10.00">Policy.hpp</text>
</a>
</g>
</g>
<!-- Node3&#45;&gt;Node4 -->
<g id="edge3_Node000003_Node000004" class="edge">
<title>Node3&#45;&gt;Node4</title>
<g id="a_edge3_Node000003_Node000004"><a xlink:title=" ">
<path fill="none" stroke="#63b8ff" d="M280.92,-283.32C242.41,-273.3 193.24,-260.5 152.94,-250.01"/>
<polygon fill="#63b8ff" stroke="#63b8ff" points="280.41,-286.8 290.97,-285.94 282.17,-280.03 280.41,-286.8"/>
</a>
</g>
</g>
<!-- Node8 -->
<g id="Node000008" class="node">
<title>Node8</title>
<g id="a_Node000008"><a xlink:href="_default_connect_policy_8hpp.html" target="_top" xlink:title=" ">
<polygon fill="white" stroke="#666666" points="894.5,-250 709.5,-250 709.5,-209 894.5,-209 894.5,-250"/>
<text text-anchor="start" x="717.5" y="-238" font-family="Helvetica,sans-Serif" font-size="10.00">include/Hermes/Socket</text>
<text text-anchor="start" x="717.5" y="-227" font-family="Helvetica,sans-Serif" font-size="10.00">/_base/Connection/DefaultConnect</text>
<text text-anchor="middle" x="802" y="-216" font-family="Helvetica,sans-Serif" font-size="10.00">Policy.hpp</text>
</a>
</g>
</g>
<!-- Node3&#45;&gt;Node8 -->
<g id="edge8_Node000003_Node000008" class="edge">
<title>Node3&#45;&gt;Node8</title>
<g id="a_edge8_Node000003_Node000008"><a xlink:title=" ">
<path fill="none" stroke="#63b8ff" d="M447.11,-284.47C525.59,-272.54 633.09,-256.19 709.15,-244.62"/>
<polygon fill="#63b8ff" stroke="#63b8ff" points="446.57,-281.01 437.21,-285.98 447.62,-287.93 446.57,-281.01"/>
</a>
</g>
</g>
<!-- Node11 -->
<g id="Node000011" class="node">
<title>Node11</title>
<g id="a_Node000011"><a xlink:href="_default_transfer_policy_8hpp.html" target="_top" xlink:title=" ">
<polygon fill="white" stroke="#666666" points="609,-173 441,-173 441,-132 609,-132 609,-173"/>
<text text-anchor="start" x="449" y="-161" font-family="Helvetica,sans-Serif" font-size="10.00">include/Hermes/Socket</text>
<text text-anchor="start" x="449" y="-150" font-family="Helvetica,sans-Serif" font-size="10.00">/_base/Transfer/DefaultTransfer</text>
<text text-anchor="middle" x="525" y="-139" font-family="Helvetica,sans-Serif" font-size="10.00">Policy.hpp</text>
</a>
</g>
</g>
<!-- Node3&#45;&gt;Node11 -->
<g id="edge12_Node000003_Node000011" class="edge">
<title>Node3&#45;&gt;Node11</title>
<g id="a_edge12_Node000003_Node000011"><a xlink:title=" ">
<path fill="none" stroke="#63b8ff" d="M370.04,-279.62C404.71,-251.41 466.9,-200.79 501.01,-173.03"/>
<polygon fill="#63b8ff" stroke="#63b8ff" points="367.81,-276.93 362.26,-285.95 372.22,-282.36 367.81,-276.93"/>
</a>
</g>
</g>
<!-- Node5 -->
<g id="Node000005" class="node">
<title>Node5</title>
<g id="a_Node000005"><a xlink:href="_server_socket_8hpp.html" target="_top" xlink:title=" ">
<polygon fill="white" stroke="#666666" points="323,-96 195,-96 195,-66 323,-66 323,-96"/>
<text text-anchor="start" x="203" y="-84" font-family="Helvetica,sans-Serif" font-size="10.00">include/Hermes/Socket</text>
<text text-anchor="middle" x="259" y="-73" font-family="Helvetica,sans-Serif" font-size="10.00">/ServerSocket.hpp</text>
</a>
</g>
</g>
<!-- Node4&#45;&gt;Node5 -->
<g id="edge4_Node000004_Node000005" class="edge">
<title>Node4&#45;&gt;Node5</title>
<g id="a_edge4_Node000004_Node000005"><a xlink:title=" ">
<path fill="none" stroke="#63b8ff" d="M64.32,-199.61C56.66,-178.75 51.28,-151.02 66,-132 81.84,-111.54 145,-97.92 194.81,-90.14"/>
<polygon fill="#63b8ff" stroke="#63b8ff" points="61.09,-200.96 68.07,-208.94 67.59,-198.35 61.09,-200.96"/>
</a>
</g>
</g>
<!-- Node7 -->
<g id="Node000007" class="node">
<title>Node7</title>
<g id="a_Node000007"><a xlink:href="_tls_accept_policy_8hpp.html" target="_top" xlink:title=" ">
<polygon fill="white" stroke="#666666" points="258.5,-167.5 75.5,-167.5 75.5,-137.5 258.5,-137.5 258.5,-167.5"/>
<text text-anchor="start" x="83.5" y="-155.5" font-family="Helvetica,sans-Serif" font-size="10.00">include/Hermes/Socket</text>
<text text-anchor="middle" x="167" y="-144.5" font-family="Helvetica,sans-Serif" font-size="10.00">/_base/Accept/TlsAcceptPolicy.hpp</text>
</a>
</g>
</g>
<!-- Node4&#45;&gt;Node7 -->
<g id="edge6_Node000004_Node000007" class="edge">
<title>Node4&#45;&gt;Node7</title>
<g id="a_edge6_Node000004_Node000007"><a xlink:title=" ">
<path fill="none" stroke="#63b8ff" d="M109.24,-202.17C123.04,-190.55 138.7,-177.34 150.24,-167.63"/>
<polygon fill="#63b8ff" stroke="#63b8ff" points="106.78,-199.67 101.38,-208.79 111.29,-205.03 106.78,-199.67"/>
</a>
</g>
</g>
<!-- Node6 -->
<g id="Node000006" class="node">
<title>Node6</title>
<g id="a_Node000006"><a xlink:href="_listener_socket_8hpp.html" target="_top" xlink:title=" ">
<polygon fill="white" stroke="#666666" points="323,-30 195,-30 195,0 323,0 323,-30"/>
<text text-anchor="start" x="203" y="-18" font-family="Helvetica,sans-Serif" font-size="10.00">include/Hermes/Socket</text>
<text text-anchor="middle" x="259" y="-7" font-family="Helvetica,sans-Serif" font-size="10.00">/ListenerSocket.hpp</text>
</a>
</g>
</g>
<!-- Node5&#45;&gt;Node6 -->
<g id="edge5_Node000005_Node000006" class="edge">
<title>Node5&#45;&gt;Node6</title>
<g id="a_edge5_Node000005_Node000006"><a xlink:title=" ">
<path fill="none" stroke="#63b8ff" d="M259,-55.54C259,-46.96 259,-37.61 259,-30.16"/>
<polygon fill="#63b8ff" stroke="#63b8ff" points="255.5,-55.8 259,-65.8 262.5,-55.8 255.5,-55.8"/>
</a>
</g>
</g>
<!-- Node7&#45;&gt;Node5 -->
<g id="edge7_Node000007_Node000005" class="edge">
<title>Node7&#45;&gt;Node5</title>
<g id="a_edge7_Node000007_Node000005"><a xlink:title=" ">
<path fill="none" stroke="#63b8ff" d="M193.97,-131.13C208.9,-119.85 227.07,-106.12 240.41,-96.04"/>
<polygon fill="#63b8ff" stroke="#63b8ff" points="191.49,-128.62 185.62,-137.44 195.71,-134.2 191.49,-128.62"/>
</a>
</g>
</g>
<!-- Node9 -->
<g id="Node000009" class="node">
<title>Node9</title>
<g id="a_Node000009"><a xlink:href="_client_socket_8hpp.html" target="_top" xlink:title=" ">
<polygon fill="white" stroke="#666666" points="681,-96 553,-96 553,-66 681,-66 681,-96"/>
<text text-anchor="start" x="561" y="-84" font-family="Helvetica,sans-Serif" font-size="10.00">include/Hermes/Socket</text>
<text text-anchor="middle" x="617" y="-73" font-family="Helvetica,sans-Serif" font-size="10.00">/ClientSocket.hpp</text>
</a>
</g>
</g>
<!-- Node8&#45;&gt;Node9 -->
<g id="edge9_Node000008_Node000009" class="edge">
<title>Node8&#45;&gt;Node9</title>
<g id="a_edge9_Node000008_Node000009"><a xlink:title=" ">
<path fill="none" stroke="#63b8ff" d="M809.94,-198.92C813.66,-178.07 814.55,-150.65 800,-132 785.21,-113.04 727.77,-99.45 681.14,-91.26"/>
<polygon fill="#63b8ff" stroke="#63b8ff" points="806.48,-198.35 807.87,-208.85 813.33,-199.78 806.48,-198.35"/>
</a>
</g>
</g>
<!-- Node10 -->
<g id="Node000010" class="node">
<title>Node10</title>
<g id="a_Node000010"><a xlink:href="_tls_connect_policy_8hpp.html" target="_top" xlink:title=" ">
<polygon fill="white" stroke="#666666" points="790.5,-173 627.5,-173 627.5,-132 790.5,-132 790.5,-173"/>
<text text-anchor="start" x="635.5" y="-161" font-family="Helvetica,sans-Serif" font-size="10.00">include/Hermes/Socket</text>
<text text-anchor="start" x="635.5" y="-150" font-family="Helvetica,sans-Serif" font-size="10.00">/_base/Connection/TlsConnect</text>
<text text-anchor="middle" x="709" y="-139" font-family="Helvetica,sans-Serif" font-size="10.00">Policy.hpp</text>
</a>
</g>
</g>
<!-- Node8&#45;&gt;Node10 -->
<g id="edge10_Node000008_Node000010" class="edge">
<title>Node8&#45;&gt;Node10</title>
<g id="a_edge10_Node000008_Node000010"><a xlink:title=" ">
<path fill="none" stroke="#63b8ff" d="M769.57,-202.35C757.65,-192.73 744.36,-182.01 733.27,-173.07"/>
<polygon fill="#63b8ff" stroke="#63b8ff" points="767.58,-205.24 777.57,-208.79 771.98,-199.79 767.58,-205.24"/>
</a>
</g>
</g>
<!-- Node10&#45;&gt;Node9 -->
<g id="edge11_Node000010_Node000009" class="edge">
<title>Node10&#45;&gt;Node9</title>
<g id="a_edge11_Node000010_Node000009"><a xlink:title=" ">
<path fill="none" stroke="#63b8ff" d="M674.83,-125.69C661.54,-115.65 646.84,-104.54 635.58,-96.04"/>
<polygon fill="#63b8ff" stroke="#63b8ff" points="672.79,-128.53 682.88,-131.77 677.01,-122.95 672.79,-128.53"/>
</a>
</g>
</g>
<!-- Node11&#45;&gt;Node5 -->
<g id="edge14_Node000011_Node000005" class="edge">
<title>Node11&#45;&gt;Node5</title>
<g id="a_edge14_Node000011_Node000005"><a xlink:title=" ">
<path fill="none" stroke="#63b8ff" d="M440.28,-129.37C398.43,-118.43 349.19,-105.56 312.6,-96"/>
<polygon fill="#63b8ff" stroke="#63b8ff" points="439.64,-132.81 450.2,-131.96 441.41,-126.04 439.64,-132.81"/>
</a>
</g>
</g>
<!-- Node11&#45;&gt;Node9 -->
<g id="edge13_Node000011_Node000009" class="edge">
<title>Node11&#45;&gt;Node9</title>
<g id="a_edge13_Node000011_Node000009"><a xlink:title=" ">
<path fill="none" stroke="#63b8ff" d="M559.17,-125.69C572.46,-115.65 587.16,-104.54 598.42,-96.04"/>
<polygon fill="#63b8ff" stroke="#63b8ff" points="556.99,-122.95 551.12,-131.77 561.21,-128.53 556.99,-122.95"/>
</a>
</g>
</g>
<!-- Node12&#45;&gt;Node7 -->
<g id="edge16_Node000012_Node000007" class="edge">
<title>Node12&#45;&gt;Node7</title>
<g id="a_edge16_Node000012_Node000007"><a xlink:title=" ">
<path fill="none" stroke="#63b8ff" d="M262.9,-209.25C240.49,-196.23 211.39,-179.31 191.16,-167.54"/>
<polygon fill="#63b8ff" stroke="#63b8ff" points="261.33,-212.39 271.74,-214.39 264.85,-206.34 261.33,-212.39"/>
</a>
</g>
</g>
<!-- Node12&#45;&gt;Node10 -->
<g id="edge17_Node000012_Node000010" class="edge">
<title>Node12&#45;&gt;Node10</title>
<g id="a_edge17_Node000012_Node000010"><a xlink:title=" ">
<path fill="none" stroke="#63b8ff" d="M390.36,-213.27C454.64,-202.64 541.61,-187.76 618,-173 621.01,-172.42 624.08,-171.81 627.18,-171.2"/>
<polygon fill="#63b8ff" stroke="#63b8ff" points="389.54,-209.86 380.24,-214.94 390.68,-216.76 389.54,-209.86"/>
</a>
</g>
</g>
<!-- Node13 -->
<g id="Node000013" class="node">
<title>Node13</title>
<g id="a_Node000013"><a xlink:href="_tls_transfer_policy_8hpp.html" target="_top" xlink:title=" ">
<polygon fill="white" stroke="#666666" points="423,-173 277,-173 277,-132 423,-132 423,-173"/>
<text text-anchor="start" x="285" y="-161" font-family="Helvetica,sans-Serif" font-size="10.00">include/Hermes/Socket</text>
<text text-anchor="start" x="285" y="-150" font-family="Helvetica,sans-Serif" font-size="10.00">/_base/Transfer/TlsTransfer</text>
<text text-anchor="middle" x="350" y="-139" font-family="Helvetica,sans-Serif" font-size="10.00">Policy.hpp</text>
</a>
</g>
</g>
<!-- Node12&#45;&gt;Node13 -->
<g id="edge18_Node000012_Node000013" class="edge">
<title>Node12&#45;&gt;Node13</title>
<g id="a_edge18_Node000012_Node000013"><a xlink:title=" ">
<path fill="none" stroke="#63b8ff" d="M312.1,-206.14C319.64,-195.67 328.53,-183.31 335.81,-173.2"/>
<polygon fill="#63b8ff" stroke="#63b8ff" points="309.16,-204.23 306.16,-214.39 314.84,-208.32 309.16,-204.23"/>
</a>
</g>
</g>
<!-- Node13&#45;&gt;Node5 -->
<g id="edge20_Node000013_Node000005" class="edge">
<title>Node13&#45;&gt;Node5</title>
<g id="a_edge20_Node000013_Node000005"><a xlink:title=" ">
<path fill="none" stroke="#63b8ff" d="M316.21,-125.69C303.06,-115.65 288.51,-104.54 277.38,-96.04"/>
<polygon fill="#63b8ff" stroke="#63b8ff" points="314.09,-128.48 324.17,-131.77 318.34,-122.92 314.09,-128.48"/>
</a>
</g>
</g>
<!-- Node13&#45;&gt;Node9 -->
<g id="edge19_Node000013_Node000009" class="edge">
<title>Node13&#45;&gt;Node9</title>
<g id="a_edge19_Node000013_Node000009"><a xlink:title=" ">
<path fill="none" stroke="#63b8ff" d="M433.05,-129.88C475.37,-118.87 525.63,-105.78 562.91,-96.08"/>
<polygon fill="#63b8ff" stroke="#63b8ff" points="432.11,-126.51 423.31,-132.42 433.87,-133.28 432.11,-126.51"/>
</a>
</g>
</g>
<!-- Node14&#45;&gt;Node3 -->
<g id="edge26_Node000014_Node000003" class="edge">
<title>Node14&#45;&gt;Node3</title>
<g id="a_edge26_Node000014_Node000003"><a xlink:title=" ">
<path fill="none" stroke="#63b8ff" d="M431.95,-347.24C412.75,-337.25 389.54,-325.18 371.93,-316.01"/>
<polygon fill="#63b8ff" stroke="#63b8ff" points="430.52,-350.44 441.01,-351.95 433.75,-344.23 430.52,-350.44"/>
</a>
</g>
</g>
<!-- Node14&#45;&gt;Node4 -->
<g id="edge22_Node000014_Node000004" class="edge">
<title>Node14&#45;&gt;Node4</title>
<g id="a_edge22_Node000014_Node000004"><a xlink:title=" ">
<path fill="none" stroke="#63b8ff" d="M393.95,-351.93C293.06,-336.01 258.18,-359 170,-316 138.25,-300.52 109.84,-270.39 93.26,-250.35"/>
<polygon fill="#63b8ff" stroke="#63b8ff" points="393.49,-355.4 403.93,-353.6 394.64,-348.5 393.49,-355.4"/>
</a>
</g>
</g>
<!-- Node14&#45;&gt;Node7 -->
<g id="edge23_Node000014_Node000007" class="edge">
<title>Node14&#45;&gt;Node7</title>
<g id="a_edge23_Node000014_Node000007"><a xlink:title=" ">
<path fill="none" stroke="#63b8ff" d="M393.95,-351.14C325.95,-337.37 235.24,-318.63 232,-316 184.85,-277.66 171.7,-200.04 168.2,-167.92"/>
<polygon fill="#63b8ff" stroke="#63b8ff" points="393.3,-354.58 403.8,-353.13 394.69,-347.72 393.3,-354.58"/>
</a>
</g>
</g>
<!-- Node14&#45;&gt;Node8 -->
<g id="edge24_Node000014_Node000008" class="edge">
<title>Node14&#45;&gt;Node8</title>
<g id="a_edge24_Node000014_Node000008"><a xlink:title=" ">
<path fill="none" stroke="#63b8ff" d="M541.92,-358.57C587.98,-351.85 647.49,-339.27 696,-316 730.32,-299.53 763.4,-269.96 783.22,-250.28"/>
<polygon fill="#63b8ff" stroke="#63b8ff" points="541.43,-355.11 532.01,-359.96 542.4,-362.04 541.43,-355.11"/>
</a>
</g>
</g>
<!-- Node14&#45;&gt;Node10 -->
<g id="edge25_Node000014_Node000010" class="edge">
<title>Node14&#45;&gt;Node10</title>
<g id="a_edge25_Node000014_Node000010"><a xlink:title=" ">
<path fill="none" stroke="#63b8ff" d="M542.14,-359.93C576.68,-353.65 616.19,-341.07 644,-316 686.66,-277.55 701.76,-207.3 706.74,-173.17"/>
<polygon fill="#63b8ff" stroke="#63b8ff" points="541.36,-356.51 532.07,-361.61 542.51,-363.42 541.36,-356.51"/>
</a>
</g>
</g>
<!-- Node14&#45;&gt;Node11 -->
<g id="edge28_Node000014_Node000011" class="edge">
<title>Node14&#45;&gt;Node11</title>
<g id="a_edge28_Node000014_Node000011"><a xlink:title=" ">
<path fill="none" stroke="#63b8ff" d="M542.18,-361.09C572.96,-354.95 605.88,-342.15 625,-316 660.97,-266.79 593.57,-204.37 552.82,-173.15"/>
<polygon fill="#63b8ff" stroke="#63b8ff" points="541.51,-357.66 532.28,-362.86 542.74,-364.55 541.51,-357.66"/>
</a>
</g>
</g>
<!-- Node14&#45;&gt;Node12 -->
<g id="edge27_Node000014_Node000012" class="edge">
<title>Node14&#45;&gt;Node12</title>
<g id="a_edge27_Node000014_Node000012"><a xlink:title=" ">
<path fill="none" stroke="#63b8ff" d="M394.05,-350.84C328.75,-337.29 243.49,-319.09 241,-316 222.09,-292.48 252.98,-262.23 275.58,-244.74"/>
<polygon fill="#63b8ff" stroke="#63b8ff" points="393.43,-354.29 403.93,-352.89 394.85,-347.44 393.43,-354.29"/>
</a>
</g>
</g>
<!-- Node14&#45;&gt;Node13 -->
<g id="edge29_Node000014_Node000013" class="edge">
<title>Node14&#45;&gt;Node13</title>
<g id="a_edge29_Node000014_Node000013"><a xlink:title=" ">
<path fill="none" stroke="#63b8ff" d="M464.84,-341.52C462.11,-325.22 457.25,-303.65 449,-286 428.32,-241.78 391.45,-197.86 369.01,-173.34"/>
<polygon fill="#63b8ff" stroke="#63b8ff" points="461.45,-342.48 466.41,-351.84 468.37,-341.43 461.45,-342.48"/>
</a>
</g>
</g>
<!-- Node15 -->
<g id="Node000015" class="node">
<title>Node15</title>
<g id="a_Node000015"><a xlink:href="_to_bytes_8hpp.html" target="_top" xlink:title=" ">
<polygon fill="white" stroke="#666666" points="615.5,-316 496.5,-316 496.5,-286 615.5,-286 615.5,-316"/>
<text text-anchor="start" x="504.5" y="-304" font-family="Helvetica,sans-Serif" font-size="10.00">include/Hermes/Utils</text>
<text text-anchor="middle" x="556" y="-293" font-family="Helvetica,sans-Serif" font-size="10.00">/ToBytes.hpp</text>
</a>
</g>
</g>
<!-- Node14&#45;&gt;Node15 -->
<g id="edge30_Node000014_Node000015" class="edge">
<title>Node14&#45;&gt;Node15</title>
<g id="a_edge30_Node000014_Node000015"><a xlink:title=" ">
<path fill="none" stroke="#63b8ff" d="M495.84,-345.75C509.07,-336.13 524.57,-324.86 536.52,-316.16"/>
<polygon fill="#63b8ff" stroke="#63b8ff" points="493.56,-343.08 487.53,-351.8 497.68,-348.75 493.56,-343.08"/>
</a>
</g>
</g>
</g>
</svg>
