<?xml version="1.0" encoding="UTF-8" standalone="no"?>
<!DOCTYPE svg PUBLIC "-//W3C//DTD SVG 1.1//EN"
 "http://www.w3.org/Graphics/SVG/1.1/DTD/svg11.dtd">
<!-- Generated by graphviz version 2.43.0 (0)
 -->
<!-- Title: include/Hermes/Endpoint/_base/EndpointConcept.hpp Pages: 1 -->
<svg width="1784pt" height="555pt"
 viewBox="0.00 0.00 1783.98 555.00" xmlns="http://www.w3.org/2000/svg" xmlns:xlink="http://www.w3.org/1999/xlink">
<g id="graph0" class="graph" transform="scale(1 1) rotate(0) translate(4 551)">
<title>include/Hermes/Endpoint/_base/EndpointConcept.hpp</title>
<!-- Node1 -->
<g id="Node000001" class="node">
<title>Node1</title>
<g id="a_Node000001"><a xlink:title=" ">
<polygon fill="#999999" stroke="#666666" points="710,-547 555,-547 555,-517 710,-517 710,-547"/>
<text text-anchor="start" x="563" y="-535" font-family="Helvetica,sans-Serif" font-size="10.00">include/Hermes/Endpoint</text>
<text text-anchor="middle" x="632.5" y="-524" font-family="Helvetica,sans-Serif" font-size="10.00">/_base/EndpointConcept.hpp</text>
</a>
</g>
</g>
<!-- Node2 -->
<g id="Node000002" class="node">
<title>Node2</title>
<g id="a_Node000002"><a xlink:href="_ip_endpoint_8hpp.html" target="_top" xlink:title=" ">
<polygon fill="white" stroke="#666666" points="495,-481 348,-481 348,-451 495,-451 495,-481"/>
<text text-anchor="start" x="356" y="-469" font-family="Helvetica,sans-Serif" font-size="10.00">include/Hermes/Endpoint</text>
<text text-anchor="middle" x="421.5" y="-458" font-family="Helvetica,sans-Serif" font-size="10.00">/IpEndpoint/IpEndpoint.hpp</text>
</a>
</g>
</g>
<!-- Node1&#45;&gt;Node2 -->
<g id="edge1_Node000001_Node000002" class="edge">
<title>Node1&#45;&gt;Node2</title>
<g id="a_edge1_Node000001_Node000002"><a xlink:title=" ">
<path fill="none" stroke="#63b8ff" d="M576.42,-513.99C542.47,-503.69 499.69,-490.72 467.7,-481.01"/>
<polygon fill="#63b8ff" stroke="#63b8ff" points="575.61,-517.4 586.2,-516.95 577.64,-510.7 575.61,-517.4"/>
</a>
</g>
</g>
<!-- Node25 -->
<g id="Node000025" class="node">
<title>Node25</title>
<g id="a_Node000025"><a xlink:href="__base_8hpp.html" target="_top" xlink:title=" ">
<polygon fill="white" stroke="#666666" points="993.5,-481 865.5,-481 865.5,-451 993.5,-451 993.5,-481"/>
<text text-anchor="start" x="873.5" y="-469" font-family="Helvetica,sans-Serif" font-size="10.00">include/Hermes/Socket</text>
<text text-anchor="middle" x="929.5" y="-458" font-family="Helvetica,sans-Serif" font-size="10.00">/_base.hpp</text>
</a>
</g>
</g>
<!-- Node1&#45;&gt;Node25 -->
<g id="edge45_Node000001_Node000025" class="edge">
<title>Node1&#45;&gt;Node25</title>
<g id="a_edge45_Node000001_Node000025"><a xlink:title=" ">
<path fill="none" stroke="#63b8ff" d="M707.54,-514.83C756.28,-504.33 819.12,-490.78 865.5,-480.79"/>
<polygon fill="#63b8ff" stroke="#63b8ff" points="706.72,-511.43 697.68,-516.95 708.19,-518.27 706.72,-511.43"/>
</a>
</g>
</g>
<!-- Node3 -->
<g id="Node000003" class="node">
<title>Node3</title>
<g id="a_Node000003"><a xlink:href="_default_socket_data_8hpp.html" target="_top" xlink:title=" ">
<polygon fill="white" stroke="#666666" points="683.5,-409.5 525.5,-409.5 525.5,-379.5 683.5,-379.5 683.5,-409.5"/>
<text text-anchor="start" x="533.5" y="-397.5" font-family="Helvetica,sans-Serif" font-size="10.00">include/Hermes/Socket</text>
<text text-anchor="middle" x="604.5" y="-386.5" font-family="Helvetica,sans-Serif" font-size="10.00">/Data/DefaultSocketData.hpp</text>
</a>
</g>
</g>
<!-- Node2&#45;&gt;Node3 -->
<g id="edge2_Node000002_Node000003" class="edge">
<title>Node2&#45;&gt;Node3</title>
<g id="a_edge2_Node000002_Node000003"><a xlink:title=" ">
<path fill="none" stroke="#63b8ff" d="M468.2,-447.26C499.04,-435.55 538.89,-420.42 567.52,-409.54"/>
<polygon fill="#63b8ff" stroke="#63b8ff" points="466.64,-444.11 458.53,-450.94 469.12,-450.66 466.64,-444.11"/>
</a>
</g>
</g>
<!-- Node17 -->
<g id="Node000017" class="node">
<title>Node17</title>
<g id="a_Node000017"><a xlink:href="_default_connect_policy_8hpp.html" target="_top" xlink:title=" ">
<polygon fill="white" stroke="#666666" points="321.5,-338 177.5,-338 177.5,-297 321.5,-297 321.5,-338"/>
<text text-anchor="start" x="185.5" y="-326" font-family="Helvetica,sans-Serif" font-size="10.00">include/Hermes/Socket</text>
<text text-anchor="start" x="185.5" y="-315" font-family="Helvetica,sans-Serif" font-size="10.00">/Sync/_base/Connection</text>
<text text-anchor="middle" x="249.5" y="-304" font-family="Helvetica,sans-Serif" font-size="10.00">/DefaultConnectPolicy.hpp</text>
</a>
</g>
</g>
<!-- Node2&#45;&gt;Node17 -->
<g id="edge43_Node000002_Node000017" class="edge">
<title>Node2&#45;&gt;Node17</title>
<g id="a_edge43_Node000002_Node000017"><a xlink:title=" ">
<path fill="none" stroke="#63b8ff" d="M337.49,-458.24C277.66,-451.48 204.6,-438.57 185.5,-415 174.03,-400.84 177.93,-390.58 185.5,-374 192.1,-359.55 204.52,-347.41 216.67,-338.21"/>
<polygon fill="#63b8ff" stroke="#63b8ff" points="337.41,-461.75 347.73,-459.35 338.16,-454.79 337.41,-461.75"/>
</a>
</g>
</g>
<!-- Node19 -->
<g id="Node000019" class="node">
<title>Node19</title>
<g id="a_Node000019"><a xlink:href="_tls_connect_policy_8hpp.html" target="_top" xlink:title=" ">
<polygon fill="white" stroke="#666666" points="309.5,-261 177.5,-261 177.5,-220 309.5,-220 309.5,-261"/>
<text text-anchor="start" x="185.5" y="-249" font-family="Helvetica,sans-Serif" font-size="10.00">include/Hermes/Socket</text>
<text text-anchor="start" x="185.5" y="-238" font-family="Helvetica,sans-Serif" font-size="10.00">/Sync/_base/Connection</text>
<text text-anchor="middle" x="243.5" y="-227" font-family="Helvetica,sans-Serif" font-size="10.00">/TlsConnectPolicy.hpp</text>
</a>
</g>
</g>
<!-- Node2&#45;&gt;Node19 -->
<g id="edge44_Node000002_Node000019" class="edge">
<title>Node2&#45;&gt;Node19</title>
<g id="a_edge44_Node000002_Node000019"><a xlink:title=" ">
<path fill="none" stroke="#63b8ff" d="M337.67,-462.78C254.74,-455.26 134.95,-428.42 97.5,-338 90.53,-321.16 87.15,-312 97.5,-297 115.59,-270.77 147.83,-256.93 177.42,-249.63"/>
<polygon fill="#63b8ff" stroke="#63b8ff" points="337.59,-466.29 347.84,-463.62 338.17,-459.31 337.59,-466.29"/>
</a>
</g>
</g>
<!-- Node22 -->
<g id="Node000022" class="node">
<title>Node22</title>
<g id="a_Node000022"><a xlink:href="_tls_socket_data_8hpp.html" target="_top" xlink:title=" ">
<polygon fill="white" stroke="#666666" points="739,-332.5 602,-332.5 602,-302.5 739,-302.5 739,-332.5"/>
<text text-anchor="start" x="610" y="-320.5" font-family="Helvetica,sans-Serif" font-size="10.00">include/Hermes/Socket</text>
<text text-anchor="middle" x="670.5" y="-309.5" font-family="Helvetica,sans-Serif" font-size="10.00">/Data/TlsSocketData.hpp</text>
</a>
</g>
</g>
<!-- Node2&#45;&gt;Node22 -->
<g id="edge32_Node000002_Node000022" class="edge">
<title>Node2&#45;&gt;Node22</title>
<g id="a_edge32_Node000002_Node000022"><a xlink:title=" ">
<path fill="none" stroke="#63b8ff" d="M439.65,-442.96C457.4,-422.63 486.13,-392.82 516.5,-374 546.69,-355.28 584.12,-341.61 614.51,-332.52"/>
<polygon fill="#63b8ff" stroke="#63b8ff" points="436.81,-440.9 432.96,-450.77 442.12,-445.45 436.81,-440.9"/>
</a>
</g>
</g>
<!-- Node4 -->
<g id="Node000004" class="node">
<title>Node4</title>
<g id="a_Node000004"><a xlink:href="_default_async_accept_policy_8hpp.html" target="_top" xlink:title=" ">
<polygon fill="white" stroke="#666666" points="1444,-261 1289,-261 1289,-220 1444,-220 1444,-261"/>
<text text-anchor="start" x="1297" y="-249" font-family="Helvetica,sans-Serif" font-size="10.00">include/Hermes/Socket</text>
<text text-anchor="start" x="1297" y="-238" font-family="Helvetica,sans-Serif" font-size="10.00">/Async/_base/Accept/Default</text>
<text text-anchor="middle" x="1366.5" y="-227" font-family="Helvetica,sans-Serif" font-size="10.00">AsyncAcceptPolicy.hpp</text>
</a>
</g>
</g>
<!-- Node3&#45;&gt;Node4 -->
<g id="edge3_Node000003_Node000004" class="edge">
<title>Node3&#45;&gt;Node4</title>
<g id="a_edge3_Node000003_Node000004"><a xlink:title=" ">
<path fill="none" stroke="#63b8ff" d="M693.72,-388.94C831.45,-381.21 1089.17,-363.81 1177.5,-338 1179.51,-337.41 1273.67,-289.15 1328.31,-261.11"/>
<polygon fill="#63b8ff" stroke="#63b8ff" points="693.4,-385.45 683.61,-389.5 693.79,-392.44 693.4,-385.45"/>
</a>
</g>
</g>
<!-- Node8 -->
<g id="Node000008" class="node">
<title>Node8</title>
<g id="a_Node000008"><a xlink:href="_default_async_connect_policy_8hpp.html" target="_top" xlink:title=" ">
<polygon fill="white" stroke="#666666" points="173,-184 0,-184 0,-143 173,-143 173,-184"/>
<text text-anchor="start" x="8" y="-172" font-family="Helvetica,sans-Serif" font-size="10.00">include/Hermes/Socket</text>
<text text-anchor="start" x="8" y="-161" font-family="Helvetica,sans-Serif" font-size="10.00">/Async/_base/Connection</text>
<text text-anchor="middle" x="86.5" y="-150" font-family="Helvetica,sans-Serif" font-size="10.00">/DefaultAsyncConnectPolicy.hpp</text>
</a>
</g>
</g>
<!-- Node3&#45;&gt;Node8 -->
<g id="edge7_Node000003_Node000008" class="edge">
<title>Node3&#45;&gt;Node8</title>
<g id="a_edge7_Node000003_Node000008"><a xlink:title=" ">
<path fill="none" stroke="#63b8ff" d="M515.09,-384.33C391.6,-371.35 182.37,-348.07 168.5,-338 116.6,-300.32 96.39,-221.21 89.55,-184.27"/>
<polygon fill="#63b8ff" stroke="#63b8ff" points="514.98,-387.84 525.29,-385.4 515.71,-380.88 514.98,-387.84"/>
</a>
</g>
</g>
<!-- Node11 -->
<g id="Node000011" class="node">
<title>Node11</title>
<g id="a_Node000011"><a xlink:href="_default_async_transfer_policy_8hpp.html" target="_top" xlink:title=" ">
<polygon fill="white" stroke="#666666" points="930,-338 757,-338 757,-297 930,-297 930,-338"/>
<text text-anchor="start" x="765" y="-326" font-family="Helvetica,sans-Serif" font-size="10.00">include/Hermes/Socket</text>
<text text-anchor="start" x="765" y="-315" font-family="Helvetica,sans-Serif" font-size="10.00">/Async/_base/Transfer</text>
<text text-anchor="middle" x="843.5" y="-304" font-family="Helvetica,sans-Serif" font-size="10.00">/DefaultAsyncTransferPolicy.hpp</text>
</a>
</g>
</g>
<!-- Node3&#45;&gt;Node11 -->
<g id="edge11_Node000003_Node000011" class="edge">
<title>Node3&#45;&gt;Node11</title>
<g id="a_edge11_Node000003_Node000011"><a xlink:title=" ">
<path fill="none" stroke="#63b8ff" d="M659.09,-376.37C695.4,-364.97 743.19,-349.98 781.02,-338.11"/>
<polygon fill="#63b8ff" stroke="#63b8ff" points="657.67,-373.15 649.17,-379.48 659.76,-379.83 657.67,-373.15"/>
</a>
</g>
</g>
<!-- Node12 -->
<g id="Node000012" class="node">
<title>Node12</title>
<g id="a_Node000012"><a xlink:href="_default_accept_policy_8hpp.html" target="_top" xlink:title=" ">
<polygon fill="white" stroke="#666666" points="1168.5,-338 986.5,-338 986.5,-297 1168.5,-297 1168.5,-338"/>
<text text-anchor="start" x="994.5" y="-326" font-family="Helvetica,sans-Serif" font-size="10.00">include/Hermes/Socket</text>
<text text-anchor="start" x="994.5" y="-315" font-family="Helvetica,sans-Serif" font-size="10.00">/Sync/_base/Accept/DefaultAccept</text>
<text text-anchor="middle" x="1077.5" y="-304" font-family="Helvetica,sans-Serif" font-size="10.00">Policy.hpp</text>
</a>
</g>
</g>
<!-- Node3&#45;&gt;Node12 -->
<g id="edge14_Node000003_Node000012" class="edge">
<title>Node3&#45;&gt;Node12</title>
<g id="a_edge14_Node000003_Node000012"><a xlink:title=" ">
<path fill="none" stroke="#63b8ff" d="M693.67,-379.36C777.37,-366.09 901.98,-346.33 986.33,-332.96"/>
<polygon fill="#63b8ff" stroke="#63b8ff" points="693,-375.92 683.67,-380.95 694.09,-382.84 693,-375.92"/>
</a>
</g>
</g>
<!-- Node3&#45;&gt;Node17 -->
<g id="edge22_Node000003_Node000017" class="edge">
<title>Node3&#45;&gt;Node17</title>
<g id="a_edge22_Node000003_Node000017"><a xlink:title=" ">
<path fill="none" stroke="#63b8ff" d="M528.16,-377.37C466.96,-364.44 381.69,-346.43 321.63,-333.74"/>
<polygon fill="#63b8ff" stroke="#63b8ff" points="527.64,-380.84 538.14,-379.48 529.08,-373.99 527.64,-380.84"/>
</a>
</g>
</g>
<!-- Node21 -->
<g id="Node000021" class="node">
<title>Node21</title>
<g id="a_Node000021"><a xlink:href="_default_transfer_policy_8hpp.html" target="_top" xlink:title=" ">
<polygon fill="white" stroke="#666666" points="585,-261 442,-261 442,-220 585,-220 585,-261"/>
<text text-anchor="start" x="450" y="-249" font-family="Helvetica,sans-Serif" font-size="10.00">include/Hermes/Socket</text>
<text text-anchor="start" x="450" y="-238" font-family="Helvetica,sans-Serif" font-size="10.00">/Sync/_base/Transfer</text>
<text text-anchor="middle" x="513.5" y="-227" font-family="Helvetica,sans-Serif" font-size="10.00">/DefaultTransferPolicy.hpp</text>
</a>
</g>
</g>
<!-- Node3&#45;&gt;Node21 -->
<g id="edge29_Node000003_Node000021" class="edge">
<title>Node3&#45;&gt;Node21</title>
<g id="a_edge29_Node000003_Node000021"><a xlink:title=" ">
<path fill="none" stroke="#63b8ff" d="M584.6,-371.44C576.28,-361.61 566.85,-349.64 559.5,-338 543.55,-312.73 529.47,-281.08 521.21,-261.07"/>
<polygon fill="#63b8ff" stroke="#63b8ff" points="582.08,-373.88 591.27,-379.15 587.37,-369.29 582.08,-373.88"/>
</a>
</g>
</g>
<!-- Node5 -->
<g id="Node000005" class="node">
<title>Node5</title>
<g id="a_Node000005"><a xlink:href="_async_server_socket_8hpp.html" target="_top" xlink:title=" ">
<polygon fill="white" stroke="#666666" points="1456.5,-178.5 1290.5,-178.5 1290.5,-148.5 1456.5,-148.5 1456.5,-178.5"/>
<text text-anchor="start" x="1298.5" y="-166.5" font-family="Helvetica,sans-Serif" font-size="10.00">include/Hermes/Socket</text>
<text text-anchor="middle" x="1373.5" y="-155.5" font-family="Helvetica,sans-Serif" font-size="10.00">/Async/AsyncServerSocket.hpp</text>
</a>
</g>
</g>
<!-- Node4&#45;&gt;Node5 -->
<g id="edge4_Node000004_Node000005" class="edge">
<title>Node4&#45;&gt;Node5</title>
<g id="a_edge4_Node000004_Node000005"><a xlink:title=" ">
<path fill="none" stroke="#63b8ff" d="M1369.29,-209.61C1370.28,-199.01 1371.35,-187.57 1372.16,-178.86"/>
<polygon fill="#63b8ff" stroke="#63b8ff" points="1365.78,-209.51 1368.34,-219.79 1372.75,-210.16 1365.78,-209.51"/>
</a>
</g>
</g>
<!-- Node7 -->
<g id="Node000007" class="node">
<title>Node7</title>
<g id="a_Node000007"><a xlink:href="_tls_async_accept_policy_8hpp.html" target="_top" xlink:title=" ">
<polygon fill="white" stroke="#666666" points="1272,-184 1109,-184 1109,-143 1272,-143 1272,-184"/>
<text text-anchor="start" x="1117" y="-172" font-family="Helvetica,sans-Serif" font-size="10.00">include/Hermes/Socket</text>
<text text-anchor="start" x="1117" y="-161" font-family="Helvetica,sans-Serif" font-size="10.00">/Async/_base/Accept/TlsAsync</text>
<text text-anchor="middle" x="1190.5" y="-150" font-family="Helvetica,sans-Serif" font-size="10.00">AcceptPolicy.hpp</text>
</a>
</g>
</g>
<!-- Node4&#45;&gt;Node7 -->
<g id="edge6_Node000004_Node000007" class="edge">
<title>Node4&#45;&gt;Node7</title>
<g id="a_edge6_Node000004_Node000007"><a xlink:title=" ">
<path fill="none" stroke="#63b8ff" d="M1311.34,-216C1287.24,-205.72 1259.3,-193.82 1236.36,-184.04"/>
<polygon fill="#63b8ff" stroke="#63b8ff" points="1310.15,-219.29 1320.72,-219.99 1312.89,-212.85 1310.15,-219.29"/>
</a>
</g>
</g>
<!-- Node6 -->
<g id="Node000006" class="node">
<title>Node6</title>
<g id="a_Node000006"><a xlink:href="_async_listener_socket_8hpp.html" target="_top" xlink:title=" ">
<polygon fill="white" stroke="#666666" points="1659,-101.5 1486,-101.5 1486,-71.5 1659,-71.5 1659,-101.5"/>
<text text-anchor="start" x="1494" y="-89.5" font-family="Helvetica,sans-Serif" font-size="10.00">include/Hermes/Socket</text>
<text text-anchor="middle" x="1572.5" y="-78.5" font-family="Helvetica,sans-Serif" font-size="10.00">/Async/AsyncListenerSocket.hpp</text>
</a>
</g>
</g>
<!-- Node5&#45;&gt;Node6 -->
<g id="edge5_Node000005_Node000006" class="edge">
<title>Node5&#45;&gt;Node6</title>
<g id="a_edge5_Node000005_Node000006"><a xlink:title=" ">
<path fill="none" stroke="#63b8ff" d="M1420.47,-144.8C1455.52,-131.59 1502.77,-113.78 1535.24,-101.54"/>
<polygon fill="#63b8ff" stroke="#63b8ff" points="1419.05,-141.59 1410.93,-148.39 1421.52,-148.14 1419.05,-141.59"/>
</a>
</g>
</g>
<!-- Node9 -->
<g id="Node000009" class="node">
<title>Node9</title>
<g id="a_Node000009"><a xlink:href="_async_client_socket_8hpp.html" target="_top" xlink:title=" ">
<polygon fill="white" stroke="#666666" points="691,-30 528,-30 528,0 691,0 691,-30"/>
<text text-anchor="start" x="536" y="-18" font-family="Helvetica,sans-Serif" font-size="10.00">include/Hermes/Socket</text>
<text text-anchor="middle" x="609.5" y="-7" font-family="Helvetica,sans-Serif" font-size="10.00">/Async/AsyncClientSocket.hpp</text>
</a>
</g>
</g>
<!-- Node8&#45;&gt;Node9 -->
<g id="edge8_Node000008_Node000009" class="edge">
<title>Node8&#45;&gt;Node9</title>
<g id="a_edge8_Node000008_Node000009"><a xlink:title=" ">
<path fill="none" stroke="#63b8ff" d="M139.21,-138.82C189.14,-117.2 266.67,-85.69 336.5,-66 399.8,-48.16 473.22,-35.12 527.96,-26.85"/>
<polygon fill="#63b8ff" stroke="#63b8ff" points="137.68,-135.67 129.91,-142.87 140.48,-142.09 137.68,-135.67"/>
</a>
</g>
</g>
<!-- Node10 -->
<g id="Node000010" class="node">
<title>Node10</title>
<g id="a_Node000010"><a xlink:href="_tls_async_connect_policy_8hpp.html" target="_top" xlink:title=" ">
<polygon fill="white" stroke="#666666" points="497.5,-107 345.5,-107 345.5,-66 497.5,-66 497.5,-107"/>
<text text-anchor="start" x="353.5" y="-95" font-family="Helvetica,sans-Serif" font-size="10.00">include/Hermes/Socket</text>
<text text-anchor="start" x="353.5" y="-84" font-family="Helvetica,sans-Serif" font-size="10.00">/Async/_base/Connection</text>
<text text-anchor="middle" x="421.5" y="-73" font-family="Helvetica,sans-Serif" font-size="10.00">/TlsAsyncConnectPolicy.hpp</text>
</a>
</g>
</g>
<!-- Node8&#45;&gt;Node10 -->
<g id="edge9_Node000008_Node000010" class="edge">
<title>Node8&#45;&gt;Node10</title>
<g id="a_edge9_Node000008_Node000010"><a xlink:title=" ">
<path fill="none" stroke="#63b8ff" d="M183.04,-140.89C234.65,-129.33 297.29,-115.31 345.42,-104.53"/>
<polygon fill="#63b8ff" stroke="#63b8ff" points="182.2,-137.49 173.21,-143.09 183.73,-144.32 182.2,-137.49"/>
</a>
</g>
</g>
<!-- Node10&#45;&gt;Node9 -->
<g id="edge10_Node000010_Node000009" class="edge">
<title>Node10&#45;&gt;Node9</title>
<g id="a_edge10_Node000010_Node000009"><a xlink:title=" ">
<path fill="none" stroke="#63b8ff" d="M484.01,-62.39C513.01,-51.67 546.52,-39.28 571.62,-30"/>
<polygon fill="#63b8ff" stroke="#63b8ff" points="482.53,-59.21 474.37,-65.96 484.96,-65.77 482.53,-59.21"/>
</a>
</g>
</g>
<!-- Node11&#45;&gt;Node5 -->
<g id="edge13_Node000011_Node000005" class="edge">
<title>Node11&#45;&gt;Node5</title>
<g id="a_edge13_Node000011_Node000005"><a xlink:title=" ">
<path fill="none" stroke="#63b8ff" d="M927.96,-294.07C958.51,-285.01 992.99,-273.69 1023.5,-261 1059.3,-246.11 1063.99,-233.05 1100.5,-220 1177.32,-192.54 1200.58,-200.37 1280.5,-184 1289.07,-182.25 1298.07,-180.38 1306.97,-178.53"/>
<polygon fill="#63b8ff" stroke="#63b8ff" points="926.8,-290.76 918.19,-296.93 928.77,-297.48 926.8,-290.76"/>
</a>
</g>
</g>
<!-- Node11&#45;&gt;Node9 -->
<g id="edge12_Node000011_Node000009" class="edge">
<title>Node11&#45;&gt;Node9</title>
<g id="a_edge12_Node000011_Node000009"><a xlink:title=" ">
<path fill="none" stroke="#63b8ff" d="M821.75,-288.57C773.13,-226.13 657.05,-77.06 620.63,-30.29"/>
<polygon fill="#63b8ff" stroke="#63b8ff" points="819.24,-291.04 828.15,-296.78 824.76,-286.74 819.24,-291.04"/>
</a>
</g>
</g>
<!-- Node12&#45;&gt;Node4 -->
<g id="edge15_Node000012_Node000004" class="edge">
<title>Node12&#45;&gt;Node4</title>
<g id="a_edge15_Node000012_Node000004"><a xlink:title=" ">
<path fill="none" stroke="#63b8ff" d="M1162.6,-294.42C1203.37,-283.84 1251.78,-271.27 1291.2,-261.04"/>
<polygon fill="#63b8ff" stroke="#63b8ff" points="1161.48,-291.09 1152.68,-296.99 1163.24,-297.87 1161.48,-291.09"/>
</a>
</g>
</g>
<!-- Node13 -->
<g id="Node000013" class="node">
<title>Node13</title>
<g id="a_Node000013"><a xlink:href="_server_socket_8hpp.html" target="_top" xlink:title=" ">
<polygon fill="white" stroke="#666666" points="1068,-178.5 937,-178.5 937,-148.5 1068,-148.5 1068,-178.5"/>
<text text-anchor="start" x="945" y="-166.5" font-family="Helvetica,sans-Serif" font-size="10.00">include/Hermes/Socket</text>
<text text-anchor="middle" x="1002.5" y="-155.5" font-family="Helvetica,sans-Serif" font-size="10.00">/Sync/ServerSocket.hpp</text>
</a>
</g>
</g>
<!-- Node12&#45;&gt;Node13 -->
<g id="edge16_Node000012_Node000013" class="edge">
<title>Node12&#45;&gt;Node13</title>
<g id="a_edge16_Node000012_Node000013"><a xlink:title=" ">
<path fill="none" stroke="#63b8ff" d="M1063.39,-287.9C1047.31,-255.31 1021.68,-203.37 1009.44,-178.57"/>
<polygon fill="#63b8ff" stroke="#63b8ff" points="1060.28,-289.52 1067.85,-296.94 1066.56,-286.42 1060.28,-289.52"/>
</a>
</g>
</g>
<!-- Node15 -->
<g id="Node000015" class="node">
<title>Node15</title>
<g id="a_Node000015"><a xlink:href="_tls_accept_policy_8hpp.html" target="_top" xlink:title=" ">
<polygon fill="white" stroke="#666666" points="1271,-261 1110,-261 1110,-220 1271,-220 1271,-261"/>
<text text-anchor="start" x="1118" y="-249" font-family="Helvetica,sans-Serif" font-size="10.00">include/Hermes/Socket</text>
<text text-anchor="start" x="1118" y="-238" font-family="Helvetica,sans-Serif" font-size="10.00">/Sync/_base/Accept/TlsAccept</text>
<text text-anchor="middle" x="1190.5" y="-227" font-family="Helvetica,sans-Serif" font-size="10.00">Policy.hpp</text>
</a>
</g>
</g>
<!-- Node12&#45;&gt;Node15 -->
<g id="edge18_Node000012_Node000015" class="edge">
<title>Node12&#45;&gt;Node15</title>
<g id="a_edge18_Node000012_Node000015"><a xlink:title=" ">
<path fill="none" stroke="#63b8ff" d="M1115.36,-291.37C1130.19,-281.53 1146.94,-270.41 1160.86,-261.17"/>
<polygon fill="#63b8ff" stroke="#63b8ff" points="1113.29,-288.54 1106.89,-296.99 1117.16,-294.38 1113.29,-288.54"/>
</a>
</g>
</g>
<!-- Node14 -->
<g id="Node000014" class="node">
<title>Node14</title>
<g id="a_Node000014"><a xlink:href="_listener_socket_8hpp.html" target="_top" xlink:title=" ">
<polygon fill="white" stroke="#666666" points="1071.5,-101.5 933.5,-101.5 933.5,-71.5 1071.5,-71.5 1071.5,-101.5"/>
<text text-anchor="start" x="941.5" y="-89.5" font-family="Helvetica,sans-Serif" font-size="10.00">include/Hermes/Socket</text>
<text text-anchor="middle" x="1002.5" y="-78.5" font-family="Helvetica,sans-Serif" font-size="10.00">/Sync/ListenerSocket.hpp</text>
</a>
</g>
</g>
<!-- Node13&#45;&gt;Node14 -->
<g id="edge17_Node000013_Node000014" class="edge">
<title>Node13&#45;&gt;Node14</title>
<g id="a_edge17_Node000013_Node000014"><a xlink:title=" ">
<path fill="none" stroke="#63b8ff" d="M1002.5,-138.04C1002.5,-125.95 1002.5,-111.79 1002.5,-101.54"/>
<polygon fill="#63b8ff" stroke="#63b8ff" points="999,-138.39 1002.5,-148.39 1006,-138.39 999,-138.39"/>
</a>
</g>
</g>
<!-- Node15&#45;&gt;Node7 -->
<g id="edge19_Node000015_Node000007" class="edge">
<title>Node15&#45;&gt;Node7</title>
<g id="a_edge19_Node000015_Node000007"><a xlink:title=" ">
<path fill="none" stroke="#63b8ff" d="M1190.5,-209.69C1190.5,-201.08 1190.5,-191.9 1190.5,-184.07"/>
<polygon fill="#63b8ff" stroke="#63b8ff" points="1187,-209.79 1190.5,-219.79 1194,-209.79 1187,-209.79"/>
</a>
</g>
</g>
<!-- Node15&#45;&gt;Node13 -->
<g id="edge20_Node000015_Node000013" class="edge">
<title>Node15&#45;&gt;Node13</title>
<g id="a_edge20_Node000015_Node000013"><a xlink:title=" ">
<path fill="none" stroke="#63b8ff" d="M1132.22,-216.25C1101.31,-203.92 1064.35,-189.17 1037.8,-178.58"/>
<polygon fill="#63b8ff" stroke="#63b8ff" points="1131.01,-219.54 1141.6,-219.99 1133.6,-213.03 1131.01,-219.54"/>
</a>
</g>
</g>
<!-- Node16 -->
<g id="Node000016" class="node">
<title>Node16</title>
<g id="a_Node000016"><a xlink:href="_tls_accept_state_machine_8hpp.html" target="_top" xlink:title=" ">
<polygon fill="white" stroke="#666666" points="1670.5,-184 1510.5,-184 1510.5,-143 1670.5,-143 1670.5,-184"/>
<text text-anchor="start" x="1518.5" y="-172" font-family="Helvetica,sans-Serif" font-size="10.00">include/Hermes/Socket</text>
<text text-anchor="start" x="1518.5" y="-161" font-family="Helvetica,sans-Serif" font-size="10.00">/_base/Accept/TlsAcceptState</text>
<text text-anchor="middle" x="1590.5" y="-150" font-family="Helvetica,sans-Serif" font-size="10.00">Machine.hpp</text>
</a>
</g>
</g>
<!-- Node15&#45;&gt;Node16 -->
<g id="edge21_Node000015_Node000016" class="edge">
<title>Node15&#45;&gt;Node16</title>
<g id="a_edge21_Node000015_Node000016"><a xlink:title=" ">
<path fill="none" stroke="#63b8ff" d="M1280.93,-219.75C1364.57,-203.25 1449.93,-188.24 1510.44,-177.9"/>
<polygon fill="#63b8ff" stroke="#63b8ff" points="1280.13,-216.34 1271,-221.71 1281.49,-223.2 1280.13,-216.34"/>
</a>
</g>
</g>
<!-- Node18 -->
<g id="Node000018" class="node">
<title>Node18</title>
<g id="a_Node000018"><a xlink:href="_client_socket_8hpp.html" target="_top" xlink:title=" ">
<polygon fill="white" stroke="#666666" points="577.5,-178.5 449.5,-178.5 449.5,-148.5 577.5,-148.5 577.5,-178.5"/>
<text text-anchor="start" x="457.5" y="-166.5" font-family="Helvetica,sans-Serif" font-size="10.00">include/Hermes/Socket</text>
<text text-anchor="middle" x="513.5" y="-155.5" font-family="Helvetica,sans-Serif" font-size="10.00">/Sync/ClientSocket.hpp</text>
</a>
</g>
</g>
<!-- Node17&#45;&gt;Node18 -->
<g id="edge23_Node000017_Node000018" class="edge">
<title>Node17&#45;&gt;Node18</title>
<g id="a_edge23_Node000017_Node000018"><a xlink:title=" ">
<path fill="none" stroke="#63b8ff" d="M292.42,-291.79C348.34,-259.59 444.24,-204.38 489.07,-178.57"/>
<polygon fill="#63b8ff" stroke="#63b8ff" points="290.39,-288.92 283.47,-296.94 293.89,-294.98 290.39,-288.92"/>
</a>
</g>
</g>
<!-- Node17&#45;&gt;Node19 -->
<g id="edge24_Node000017_Node000019" class="edge">
<title>Node17&#45;&gt;Node19</title>
<g id="a_edge24_Node000017_Node000019"><a xlink:title=" ">
<path fill="none" stroke="#63b8ff" d="M247.12,-286.69C246.43,-278.08 245.69,-268.9 245.07,-261.07"/>
<polygon fill="#63b8ff" stroke="#63b8ff" points="243.64,-287.11 247.92,-296.79 250.61,-286.55 243.64,-287.11"/>
</a>
</g>
</g>
<!-- Node19&#45;&gt;Node8 -->
<g id="edge25_Node000019_Node000008" class="edge">
<title>Node19&#45;&gt;Node8</title>
<g id="a_edge25_Node000019_Node000008"><a xlink:title=" ">
<path fill="none" stroke="#63b8ff" d="M193.44,-215.59C172.13,-205.41 147.6,-193.69 127.41,-184.04"/>
<polygon fill="#63b8ff" stroke="#63b8ff" points="192.13,-218.84 202.66,-219.99 195.15,-212.52 192.13,-218.84"/>
</a>
</g>
</g>
<!-- Node19&#45;&gt;Node10 -->
<g id="edge26_Node000019_Node000010" class="edge">
<title>Node19&#45;&gt;Node10</title>
<g id="a_edge26_Node000019_Node000010"><a xlink:title=" ">
<path fill="none" stroke="#63b8ff" d="M225.12,-210.81C214.41,-190.11 205.66,-162.49 220.5,-143 235.93,-122.73 295.15,-107.97 345.35,-98.79"/>
<polygon fill="#63b8ff" stroke="#63b8ff" points="222.18,-212.73 230.09,-219.78 228.3,-209.33 222.18,-212.73"/>
</a>
</g>
</g>
<!-- Node19&#45;&gt;Node18 -->
<g id="edge27_Node000019_Node000018" class="edge">
<title>Node19&#45;&gt;Node18</title>
<g id="a_edge27_Node000019_Node000018"><a xlink:title=" ">
<path fill="none" stroke="#63b8ff" d="M319.46,-218.4C365.34,-205.66 422.56,-189.76 462.94,-178.54"/>
<polygon fill="#63b8ff" stroke="#63b8ff" points="318.25,-215.1 309.55,-221.15 320.12,-221.85 318.25,-215.1"/>
</a>
</g>
</g>
<!-- Node20 -->
<g id="Node000020" class="node">
<title>Node20</title>
<g id="a_Node000020"><a xlink:href="_tls_connect_state_machine_8hpp.html" target="_top" xlink:title=" ">
<polygon fill="white" stroke="#666666" points="393,-184 230,-184 230,-143 393,-143 393,-184"/>
<text text-anchor="start" x="238" y="-172" font-family="Helvetica,sans-Serif" font-size="10.00">include/Hermes/Socket</text>
<text text-anchor="start" x="238" y="-161" font-family="Helvetica,sans-Serif" font-size="10.00">/_base/Connection/TlsConnect</text>
<text text-anchor="middle" x="311.5" y="-150" font-family="Helvetica,sans-Serif" font-size="10.00">StateMachine.hpp</text>
</a>
</g>
</g>
<!-- Node19&#45;&gt;Node20 -->
<g id="edge28_Node000019_Node000020" class="edge">
<title>Node19&#45;&gt;Node20</title>
<g id="a_edge28_Node000019_Node000020"><a xlink:title=" ">
<path fill="none" stroke="#63b8ff" d="M268.22,-212.23C276.68,-202.91 285.96,-192.67 293.75,-184.07"/>
<polygon fill="#63b8ff" stroke="#63b8ff" points="265.49,-210.04 261.37,-219.79 270.68,-214.74 265.49,-210.04"/>
</a>
</g>
</g>
<!-- Node21&#45;&gt;Node13 -->
<g id="edge31_Node000021_Node000013" class="edge">
<title>Node21&#45;&gt;Node13</title>
<g id="a_edge31_Node000021_Node000013"><a xlink:title=" ">
<path fill="none" stroke="#63b8ff" d="M595.26,-219.95C721.61,-196.59 857.96,-180.07 936.81,-171.37"/>
<polygon fill="#63b8ff" stroke="#63b8ff" points="594.6,-216.51 585.41,-221.79 595.88,-223.4 594.6,-216.51"/>
</a>
</g>
</g>
<!-- Node21&#45;&gt;Node18 -->
<g id="edge30_Node000021_Node000018" class="edge">
<title>Node21&#45;&gt;Node18</title>
<g id="a_edge30_Node000021_Node000018"><a xlink:title=" ">
<path fill="none" stroke="#63b8ff" d="M513.5,-209.61C513.5,-199.01 513.5,-187.57 513.5,-178.86"/>
<polygon fill="#63b8ff" stroke="#63b8ff" points="510,-209.79 513.5,-219.79 517,-209.79 510,-209.79"/>
</a>
</g>
</g>
<!-- Node22&#45;&gt;Node7 -->
<g id="edge33_Node000022_Node000007" class="edge">
<title>Node22&#45;&gt;Node7</title>
<g id="a_edge33_Node000022_Node000007"><a xlink:title=" ">
<path fill="none" stroke="#63b8ff" d="M706.04,-297.48C757.3,-270.11 846.73,-222.59 854.5,-220 949.32,-188.38 977.9,-200.43 1076.5,-184 1087,-182.25 1098.03,-180.39 1108.94,-178.54"/>
<polygon fill="#63b8ff" stroke="#63b8ff" points="704.12,-294.54 696.95,-302.34 707.42,-300.72 704.12,-294.54"/>
</a>
</g>
</g>
<!-- Node22&#45;&gt;Node10 -->
<g id="edge34_Node000022_Node000010" class="edge">
<title>Node22&#45;&gt;Node10</title>
<g id="a_edge34_Node000022_Node000010"><a xlink:title=" ">
<path fill="none" stroke="#63b8ff" d="M707.13,-296.87C720.16,-287.82 733.36,-275.78 740.5,-261 748.43,-244.59 750.08,-235.5 740.5,-220 689.27,-137.1 574.54,-106.06 497.57,-94.44"/>
<polygon fill="#63b8ff" stroke="#63b8ff" points="705.14,-293.99 698.66,-302.37 708.95,-299.86 705.14,-293.99"/>
</a>
</g>
</g>
<!-- Node22&#45;&gt;Node15 -->
<g id="edge38_Node000022_Node000015" class="edge">
<title>Node22&#45;&gt;Node15</title>
<g id="a_edge38_Node000022_Node000015"><a xlink:title=" ">
<path fill="none" stroke="#63b8ff" d="M732.32,-300.14C737.44,-299 742.55,-297.93 747.5,-297 782.16,-290.47 991.44,-265.17 1109.54,-251.09"/>
<polygon fill="#63b8ff" stroke="#63b8ff" points="731.45,-296.75 722.5,-302.41 733.03,-303.57 731.45,-296.75"/>
</a>
</g>
</g>
<!-- Node22&#45;&gt;Node19 -->
<g id="edge39_Node000022_Node000019" class="edge">
<title>Node22&#45;&gt;Node19</title>
<g id="a_edge39_Node000022_Node000019"><a xlink:title=" ">
<path fill="none" stroke="#63b8ff" d="M591.75,-302.67C510.74,-288.44 385.96,-266.52 309.83,-253.15"/>
<polygon fill="#63b8ff" stroke="#63b8ff" points="591.44,-306.17 601.9,-304.45 592.65,-299.27 591.44,-306.17"/>
</a>
</g>
</g>
<!-- Node23 -->
<g id="Node000023" class="node">
<title>Node23</title>
<g id="a_Node000023"><a xlink:href="_tls_async_transfer_policy_8hpp.html" target="_top" xlink:title=" ">
<polygon fill="white" stroke="#666666" points="1015,-261 864,-261 864,-220 1015,-220 1015,-261"/>
<text text-anchor="start" x="872" y="-249" font-family="Helvetica,sans-Serif" font-size="10.00">include/Hermes/Socket</text>
<text text-anchor="start" x="872" y="-238" font-family="Helvetica,sans-Serif" font-size="10.00">/Async/_base/Transfer</text>
<text text-anchor="middle" x="939.5" y="-227" font-family="Helvetica,sans-Serif" font-size="10.00">/TlsAsyncTransferPolicy.hpp</text>
</a>
</g>
</g>
<!-- Node22&#45;&gt;Node23 -->
<g id="edge35_Node000022_Node000023" class="edge">
<title>Node22&#45;&gt;Node23</title>
<g id="a_edge35_Node000022_Node000023"><a xlink:title=" ">
<path fill="none" stroke="#63b8ff" d="M730.66,-299.73C771.76,-288.27 826.36,-273.04 869.43,-261.04"/>
<polygon fill="#63b8ff" stroke="#63b8ff" points="729.47,-296.42 720.78,-302.48 731.35,-303.17 729.47,-296.42"/>
</a>
</g>
</g>
<!-- Node24 -->
<g id="Node000024" class="node">
<title>Node24</title>
<g id="a_Node000024"><a xlink:href="_tls_transfer_policy_8hpp.html" target="_top" xlink:title=" ">
<polygon fill="white" stroke="#666666" points="731.5,-261 603.5,-261 603.5,-220 731.5,-220 731.5,-261"/>
<text text-anchor="start" x="611.5" y="-249" font-family="Helvetica,sans-Serif" font-size="10.00">include/Hermes/Socket</text>
<text text-anchor="start" x="611.5" y="-238" font-family="Helvetica,sans-Serif" font-size="10.00">/Sync/_base/Transfer</text>
<text text-anchor="middle" x="667.5" y="-227" font-family="Helvetica,sans-Serif" font-size="10.00">/TlsTransferPolicy.hpp</text>
</a>
</g>
</g>
<!-- Node22&#45;&gt;Node24 -->
<g id="edge40_Node000022_Node000024" class="edge">
<title>Node22&#45;&gt;Node24</title>
<g id="a_edge40_Node000022_Node000024"><a xlink:title=" ">
<path fill="none" stroke="#63b8ff" d="M669.53,-292.23C669.13,-282.2 668.67,-270.71 668.29,-261.2"/>
<polygon fill="#63b8ff" stroke="#63b8ff" points="666.04,-292.54 669.94,-302.39 673.03,-292.26 666.04,-292.54"/>
</a>
</g>
</g>
<!-- Node23&#45;&gt;Node5 -->
<g id="edge37_Node000023_Node000005" class="edge">
<title>Node23&#45;&gt;Node5</title>
<g id="a_edge37_Node000023_Node000005"><a xlink:title=" ">
<path fill="none" stroke="#63b8ff" d="M1025.04,-220.82C1026.54,-220.54 1028.02,-220.27 1029.5,-220 1140.42,-200.06 1169.52,-203.57 1280.5,-184 1289.84,-182.35 1299.68,-180.46 1309.32,-178.52"/>
<polygon fill="#63b8ff" stroke="#63b8ff" points="1024.21,-217.41 1015.04,-222.73 1025.52,-224.29 1024.21,-217.41"/>
</a>
</g>
</g>
<!-- Node23&#45;&gt;Node9 -->
<g id="edge36_Node000023_Node000009" class="edge">
<title>Node23&#45;&gt;Node9</title>
<g id="a_edge36_Node000023_Node000009"><a xlink:title=" ">
<path fill="none" stroke="#63b8ff" d="M926.19,-210.64C906.69,-171.65 866.59,-102.8 811.5,-66 776.05,-42.32 730.36,-29.85 691.41,-23.28"/>
<polygon fill="#63b8ff" stroke="#63b8ff" points="923.17,-212.43 930.71,-219.88 929.46,-209.35 923.17,-212.43"/>
</a>
</g>
</g>
<!-- Node24&#45;&gt;Node13 -->
<g id="edge42_Node000024_Node000013" class="edge">
<title>Node24&#45;&gt;Node13</title>
<g id="a_edge42_Node000024_Node000013"><a xlink:title=" ">
<path fill="none" stroke="#63b8ff" d="M741.78,-222.87C801.27,-209.55 883.78,-191.08 939.94,-178.51"/>
<polygon fill="#63b8ff" stroke="#63b8ff" points="740.69,-219.53 731.69,-225.13 742.22,-226.36 740.69,-219.53"/>
</a>
</g>
</g>
<!-- Node24&#45;&gt;Node18 -->
<g id="edge41_Node000024_Node000018" class="edge">
<title>Node24&#45;&gt;Node18</title>
<g id="a_edge41_Node000024_Node000018"><a xlink:title=" ">
<path fill="none" stroke="#63b8ff" d="M618.15,-215.46C593.26,-203.34 563.92,-189.06 542.66,-178.7"/>
<polygon fill="#63b8ff" stroke="#63b8ff" points="616.92,-218.76 627.44,-219.99 619.98,-212.47 616.92,-218.76"/>
</a>
</g>
</g>
<!-- Node25&#45;&gt;Node3 -->
<g id="edge54_Node000025_Node000003" class="edge">
<title>Node25&#45;&gt;Node3</title>
<g id="a_edge54_Node000025_Node000003"><a xlink:title=" ">
<path fill="none" stroke="#63b8ff" d="M855.45,-449.17C799.58,-437.22 723.63,-420.98 669.97,-409.5"/>
<polygon fill="#63b8ff" stroke="#63b8ff" points="854.78,-452.6 865.29,-451.27 856.24,-445.76 854.78,-452.6"/>
</a>
</g>
</g>
<!-- Node25&#45;&gt;Node4 -->
<g id="edge48_Node000025_Node000004" class="edge">
<title>Node25&#45;&gt;Node4</title>
<g id="a_edge48_Node000025_Node000004"><a xlink:title=" ">
<path fill="none" stroke="#63b8ff" d="M1003.65,-460.95C1055.58,-455.61 1125.27,-443.31 1180.5,-415 1219.41,-395.06 1309.4,-302.18 1348.17,-261.11"/>
<polygon fill="#63b8ff" stroke="#63b8ff" points="1003.13,-457.48 993.51,-461.92 1003.8,-464.45 1003.13,-457.48"/>
</a>
</g>
</g>
<!-- Node25&#45;&gt;Node5 -->
<g id="edge47_Node000025_Node000005" class="edge">
<title>Node25&#45;&gt;Node5</title>
<g id="a_edge47_Node000025_Node000005"><a xlink:title=" ">
<path fill="none" stroke="#63b8ff" d="M1004,-464.35C1157.63,-462.24 1498.3,-453.24 1533.5,-415 1594.57,-348.66 1542.48,-282.51 1477.5,-220 1458.62,-201.84 1432.62,-187.96 1411.34,-178.63"/>
<polygon fill="#63b8ff" stroke="#63b8ff" points="1003.66,-460.85 993.71,-464.49 1003.75,-467.85 1003.66,-460.85"/>
</a>
</g>
</g>
<!-- Node25&#45;&gt;Node6 -->
<g id="edge46_Node000025_Node000006" class="edge">
<title>Node25&#45;&gt;Node6</title>
<g id="a_edge46_Node000025_Node000006"><a xlink:title=" ">
<path fill="none" stroke="#63b8ff" d="M1003.61,-465.58C1195.55,-466.37 1697.79,-463.72 1753.5,-415 1786.41,-386.23 1772.5,-362.21 1772.5,-318.5 1772.5,-318.5 1772.5,-318.5 1772.5,-239.5 1772.5,-164.38 1681.95,-121.53 1622.71,-101.54"/>
<polygon fill="#63b8ff" stroke="#63b8ff" points="1003.63,-462.08 993.61,-465.53 1003.59,-469.08 1003.63,-462.08"/>
</a>
</g>
</g>
<!-- Node25&#45;&gt;Node7 -->
<g id="edge49_Node000025_Node000007" class="edge">
<title>Node25&#45;&gt;Node7</title>
<g id="a_edge49_Node000025_Node000007"><a xlink:title=" ">
<path fill="none" stroke="#63b8ff" d="M1004,-463.06C1064.81,-458.97 1151.63,-447.32 1220.5,-415 1257.03,-397.86 1323.79,-317.57 1358.5,-297 1397.35,-273.99 1427.85,-298.16 1453.5,-261 1533.56,-145.05 1377.47,-204.33 1281.5,-184 1278.5,-183.36 1275.44,-182.71 1272.35,-182.06"/>
<polygon fill="#63b8ff" stroke="#63b8ff" points="1003.48,-459.58 993.71,-463.69 1003.91,-466.57 1003.48,-459.58"/>
</a>
</g>
</g>
<!-- Node25&#45;&gt;Node8 -->
<g id="edge50_Node000025_Node000008" class="edge">
<title>Node25&#45;&gt;Node8</title>
<g id="a_edge50_Node000025_Node000008"><a xlink:title=" ">
<path fill="none" stroke="#63b8ff" d="M855.27,-462.23C668.25,-454.99 190.61,-434.65 162.5,-415 86.14,-361.62 83.34,-233.1 85.26,-184.01"/>
<polygon fill="#63b8ff" stroke="#63b8ff" points="855.16,-465.73 865.29,-462.62 855.43,-458.74 855.16,-465.73"/>
</a>
</g>
</g>
<!-- Node25&#45;&gt;Node10 -->
<g id="edge51_Node000025_Node000010" class="edge">
<title>Node25&#45;&gt;Node10</title>
<g id="a_edge51_Node000025_Node000010"><a xlink:title=" ">
<path fill="none" stroke="#63b8ff" d="M855.09,-465.52C745.47,-464.81 547.58,-457.45 492.5,-415 395.27,-340.07 410.08,-166.17 418.3,-107.35"/>
<polygon fill="#63b8ff" stroke="#63b8ff" points="855.4,-469.02 865.42,-465.57 855.43,-462.02 855.4,-469.02"/>
</a>
</g>
</g>
<!-- Node25&#45;&gt;Node11 -->
<g id="edge52_Node000025_Node000011" class="edge">
<title>Node25&#45;&gt;Node11</title>
<g id="a_edge52_Node000025_Node000011"><a xlink:title=" ">
<path fill="none" stroke="#63b8ff" d="M916.05,-442.09C899.3,-413.55 870.95,-365.27 855.11,-338.27"/>
<polygon fill="#63b8ff" stroke="#63b8ff" points="913.17,-444.1 921.25,-450.95 919.21,-440.56 913.17,-444.1"/>
</a>
</g>
</g>
<!-- Node25&#45;&gt;Node12 -->
<g id="edge56_Node000025_Node000012" class="edge">
<title>Node25&#45;&gt;Node12</title>
<g id="a_edge56_Node000025_Node000012"><a xlink:title=" ">
<path fill="none" stroke="#63b8ff" d="M949.04,-443.33C966.16,-424.58 991.92,-396.95 1015.5,-374 1028.13,-361.71 1042.8,-348.53 1054.7,-338.1"/>
<polygon fill="#63b8ff" stroke="#63b8ff" points="946.4,-441.02 942.26,-450.78 951.58,-445.73 946.4,-441.02"/>
</a>
</g>
</g>
<!-- Node25&#45;&gt;Node15 -->
<g id="edge57_Node000025_Node000015" class="edge">
<title>Node25&#45;&gt;Node15</title>
<g id="a_edge57_Node000025_Node000015"><a xlink:title=" ">
<path fill="none" stroke="#63b8ff" d="M1003.64,-456.35C1059.77,-448.37 1130.81,-434.75 1152.5,-415 1196.27,-375.14 1195.76,-297.47 1192.77,-261.13"/>
<polygon fill="#63b8ff" stroke="#63b8ff" points="1003.12,-452.88 993.7,-457.72 1004.08,-459.82 1003.12,-452.88"/>
</a>
</g>
</g>
<!-- Node25&#45;&gt;Node17 -->
<g id="edge58_Node000025_Node000017" class="edge">
<title>Node25&#45;&gt;Node17</title>
<g id="a_edge58_Node000025_Node000017"><a xlink:title=" ">
<path fill="none" stroke="#63b8ff" d="M855.21,-462.48C677.32,-456.07 239.98,-438.04 218.5,-415 198.7,-393.76 217.3,-359.81 233.03,-338.36"/>
<polygon fill="#63b8ff" stroke="#63b8ff" points="855.16,-465.98 865.28,-462.84 855.41,-458.98 855.16,-465.98"/>
</a>
</g>
</g>
<!-- Node25&#45;&gt;Node19 -->
<g id="edge59_Node000025_Node000019" class="edge">
<title>Node25&#45;&gt;Node19</title>
<g id="a_edge59_Node000025_Node000019"><a xlink:title=" ">
<path fill="none" stroke="#63b8ff" d="M855.2,-461.85C676.07,-453.99 233.14,-432.86 206.5,-415 160.74,-384.31 143.7,-346.2 168.5,-297 176.08,-281.96 189.88,-269.98 203.6,-261.05"/>
<polygon fill="#63b8ff" stroke="#63b8ff" points="855.19,-465.35 865.33,-462.29 855.5,-458.36 855.19,-465.35"/>
</a>
</g>
</g>
<!-- Node25&#45;&gt;Node21 -->
<g id="edge60_Node000025_Node000021" class="edge">
<title>Node25&#45;&gt;Node21</title>
<g id="a_edge60_Node000025_Node000021"><a xlink:title=" ">
<path fill="none" stroke="#63b8ff" d="M855.16,-461.22C742.38,-454.71 538.75,-439.67 516.5,-415 477.97,-372.27 495.26,-296.72 506.53,-261.11"/>
<polygon fill="#63b8ff" stroke="#63b8ff" points="855.27,-464.73 865.45,-461.8 855.66,-457.74 855.27,-464.73"/>
</a>
</g>
</g>
<!-- Node25&#45;&gt;Node22 -->
<g id="edge55_Node000025_Node000022" class="edge">
<title>Node25&#45;&gt;Node22</title>
<g id="a_edge55_Node000025_Node000022"><a xlink:title=" ">
<path fill="none" stroke="#63b8ff" d="M895.69,-445.88C842.84,-415.98 741.9,-358.89 695.26,-332.5"/>
<polygon fill="#63b8ff" stroke="#63b8ff" points="894.24,-449.08 904.67,-450.95 897.69,-442.98 894.24,-449.08"/>
</a>
</g>
</g>
<!-- Node25&#45;&gt;Node23 -->
<g id="edge53_Node000025_Node000023" class="edge">
<title>Node25&#45;&gt;Node23</title>
<g id="a_edge53_Node000025_Node000023"><a xlink:title=" ">
<path fill="none" stroke="#63b8ff" d="M931.66,-440.69C933.83,-415.14 937.05,-373.78 938.5,-338 939.58,-311.38 939.7,-280.6 939.64,-261.1"/>
<polygon fill="#63b8ff" stroke="#63b8ff" points="928.15,-440.66 930.78,-450.92 935.12,-441.26 928.15,-440.66"/>
</a>
</g>
</g>
<!-- Node25&#45;&gt;Node24 -->
<g id="edge61_Node000025_Node000024" class="edge">
<title>Node25&#45;&gt;Node24</title>
<g id="a_edge61_Node000025_Node000024"><a xlink:title=" ">
<path fill="none" stroke="#63b8ff" d="M862.63,-448.14C832.42,-439.64 796.61,-428.29 765.5,-415 731.28,-400.38 726.34,-389.47 692.5,-374 649.54,-354.37 619.66,-376.65 592.5,-338 582.02,-323.09 584.3,-313.27 592.5,-297 600.08,-281.96 613.88,-269.98 627.6,-261.05"/>
<polygon fill="#63b8ff" stroke="#63b8ff" points="862.07,-451.62 872.64,-450.92 863.94,-444.88 862.07,-451.62"/>
</a>
</g>
</g>
<!-- Node26 -->
<g id="Node000026" class="node">
<title>Node26</title>
<g id="a_Node000026"><a xlink:href="_i_tls_accept_state_machine_8hpp.html" target="_top" xlink:title=" ">
<polygon fill="white" stroke="#666666" points="1744,-415 1581,-415 1581,-374 1744,-374 1744,-415"/>
<text text-anchor="start" x="1589" y="-403" font-family="Helvetica,sans-Serif" font-size="10.00">include/Hermes/Socket</text>
<text text-anchor="start" x="1589" y="-392" font-family="Helvetica,sans-Serif" font-size="10.00">/_base/Accept/ITlsAcceptState</text>
<text text-anchor="middle" x="1662.5" y="-381" font-family="Helvetica,sans-Serif" font-size="10.00">Machine.hpp</text>
</a>
</g>
</g>
<!-- Node25&#45;&gt;Node26 -->
<g id="edge62_Node000025_Node000026" class="edge">
<title>Node25&#45;&gt;Node26</title>
<g id="a_edge62_Node000025_Node000026"><a xlink:title=" ">
<path fill="none" stroke="#63b8ff" d="M1003.62,-462.12C1122.74,-456.83 1363.95,-443.41 1566.5,-415 1571.22,-414.34 1576.05,-413.59 1580.92,-412.78"/>
<polygon fill="#63b8ff" stroke="#63b8ff" points="1003.36,-458.63 993.52,-462.56 1003.67,-465.62 1003.36,-458.63"/>
</a>
</g>
</g>
<!-- Node27 -->
<g id="Node000027" class="node">
<title>Node27</title>
<g id="a_Node000027"><a xlink:href="_i_tls_connect_state_machine_8hpp.html" target="_top" xlink:title=" ">
<polygon fill="white" stroke="#666666" points="393.5,-415 227.5,-415 227.5,-374 393.5,-374 393.5,-415"/>
<text text-anchor="start" x="235.5" y="-403" font-family="Helvetica,sans-Serif" font-size="10.00">include/Hermes/Socket</text>
<text text-anchor="start" x="235.5" y="-392" font-family="Helvetica,sans-Serif" font-size="10.00">/_base/Connection/ITlsConnect</text>
<text text-anchor="middle" x="310.5" y="-381" font-family="Helvetica,sans-Serif" font-size="10.00">StateMachine.hpp</text>
</a>
</g>
</g>
<!-- Node25&#45;&gt;Node27 -->
<g id="edge64_Node000025_Node000027" class="edge">
<title>Node25&#45;&gt;Node27</title>
<g id="a_edge64_Node000025_Node000027"><a xlink:title=" ">
<path fill="none" stroke="#63b8ff" d="M855.11,-458.26C760,-449.42 590.29,-432.93 445.5,-415 428.7,-412.92 410.75,-410.48 393.61,-408.04"/>
<polygon fill="#63b8ff" stroke="#63b8ff" points="854.93,-461.76 865.21,-459.19 855.57,-454.79 854.93,-461.76"/>
</a>
</g>
</g>
<!-- Node28 -->
<g id="Node000028" class="node">
<title>Node28</title>
<g id="a_Node000028"><a xlink:href="_i_tls_transfer_state_machine_8hpp.html" target="_top" xlink:title=" ">
<polygon fill="white" stroke="#666666" points="1525,-415 1376,-415 1376,-374 1525,-374 1525,-415"/>
<text text-anchor="start" x="1384" y="-403" font-family="Helvetica,sans-Serif" font-size="10.00">include/Hermes/Socket</text>
<text text-anchor="start" x="1384" y="-392" font-family="Helvetica,sans-Serif" font-size="10.00">/_base/Transfer/ITlsTransfer</text>
<text text-anchor="middle" x="1450.5" y="-381" font-family="Helvetica,sans-Serif" font-size="10.00">StateMachine.hpp</text>
</a>
</g>
</g>
<!-- Node25&#45;&gt;Node28 -->
<g id="edge66_Node000025_Node000028" class="edge">
<title>Node25&#45;&gt;Node28</title>
<g id="a_edge66_Node000025_Node000028"><a xlink:title=" ">
<path fill="none" stroke="#63b8ff" d="M1003.6,-458.79C1090.08,-450.99 1237.24,-436.05 1362.5,-415 1366.82,-414.27 1371.25,-413.47 1375.71,-412.62"/>
<polygon fill="#63b8ff" stroke="#63b8ff" points="1003.27,-455.3 993.62,-459.68 1003.89,-462.27 1003.27,-455.3"/>
</a>
</g>
</g>
<!-- Node29 -->
<g id="Node000029" class="node">
<title>Node29</title>
<g id="a_Node000029"><a xlink:href="_tls_transfer_state_machine_8hpp.html" target="_top" xlink:title=" ">
<polygon fill="white" stroke="#666666" points="1513.5,-338 1367.5,-338 1367.5,-297 1513.5,-297 1513.5,-338"/>
<text text-anchor="start" x="1375.5" y="-326" font-family="Helvetica,sans-Serif" font-size="10.00">include/Hermes/Socket</text>
<text text-anchor="start" x="1375.5" y="-315" font-family="Helvetica,sans-Serif" font-size="10.00">/_base/Transfer/TlsTransfer</text>
<text text-anchor="middle" x="1440.5" y="-304" font-family="Helvetica,sans-Serif" font-size="10.00">StateMachine.hpp</text>
</a>
</g>
</g>
<!-- Node25&#45;&gt;Node29 -->
<g id="edge68_Node000025_Node000029" class="edge">
<title>Node25&#45;&gt;Node29</title>
<g id="a_edge68_Node000025_Node000029"><a xlink:title=" ">
<path fill="none" stroke="#63b8ff" d="M1003.77,-461.13C1102.06,-455.07 1269.33,-441.23 1324.5,-415 1348.35,-403.66 1347.4,-391.13 1367.5,-374 1382.16,-361.5 1399.27,-348.42 1413.24,-338.1"/>
<polygon fill="#63b8ff" stroke="#63b8ff" points="1003.38,-457.65 993.6,-461.75 1003.8,-464.64 1003.38,-457.65"/>
</a>
</g>
</g>
<!-- Node30 -->
<g id="Node000030" class="node">
<title>Node30</title>
<g id="a_Node000030"><a xlink:href="_to_bytes_8hpp.html" target="_top" xlink:title=" ">
<polygon fill="white" stroke="#666666" points="1144,-409.5 1025,-409.5 1025,-379.5 1144,-379.5 1144,-409.5"/>
<text text-anchor="start" x="1033" y="-397.5" font-family="Helvetica,sans-Serif" font-size="10.00">include/Hermes/Utils</text>
<text text-anchor="middle" x="1084.5" y="-386.5" font-family="Helvetica,sans-Serif" font-size="10.00">/ToBytes.hpp</text>
</a>
</g>
</g>
<!-- Node25&#45;&gt;Node30 -->
<g id="edge69_Node000025_Node000030" class="edge">
<title>Node25&#45;&gt;Node30</title>
<g id="a_edge69_Node000025_Node000030"><a xlink:title=" ">
<path fill="none" stroke="#63b8ff" d="M970.08,-446.81C996.05,-435.16 1029.24,-420.28 1053.18,-409.54"/>
<polygon fill="#63b8ff" stroke="#63b8ff" points="968.56,-443.65 960.87,-450.94 971.42,-450.04 968.56,-443.65"/>
</a>
</g>
</g>
<!-- Node26&#45;&gt;Node16 -->
<g id="edge63_Node000026_Node000016" class="edge">
<title>Node26&#45;&gt;Node16</title>
<g id="a_edge63_Node000026_Node000016"><a xlink:title=" ">
<path fill="none" stroke="#63b8ff" d="M1653.33,-364.32C1638.45,-317 1609.44,-224.74 1596.73,-184.3"/>
<polygon fill="#63b8ff" stroke="#63b8ff" points="1650.02,-365.49 1656.36,-373.98 1656.7,-363.39 1650.02,-365.49"/>
</a>
</g>
</g>
<!-- Node27&#45;&gt;Node20 -->
<g id="edge65_Node000027_Node000020" class="edge">
<title>Node27&#45;&gt;Node20</title>
<g id="a_edge65_Node000027_Node000020"><a xlink:title=" ">
<path fill="none" stroke="#63b8ff" d="M323.06,-364.55C326.12,-356.14 328.95,-346.85 330.5,-338 340.17,-282.63 325.85,-216.4 317.23,-184.13"/>
<polygon fill="#63b8ff" stroke="#63b8ff" points="319.78,-363.33 319.44,-373.92 326.31,-365.86 319.78,-363.33"/>
</a>
</g>
</g>
<!-- Node28&#45;&gt;Node29 -->
<g id="edge67_Node000028_Node000029" class="edge">
<title>Node28&#45;&gt;Node29</title>
<g id="a_edge67_Node000028_Node000029"><a xlink:title=" ">
<path fill="none" stroke="#63b8ff" d="M1446.53,-363.69C1445.38,-355.08 1444.15,-345.9 1443.11,-338.07"/>
<polygon fill="#63b8ff" stroke="#63b8ff" points="1443.08,-364.34 1447.87,-373.79 1450.02,-363.42 1443.08,-364.34"/>
</a>
</g>
</g>
</g>
</svg>
