<?xml version="1.0" encoding="UTF-8" standalone="no"?>
<!DOCTYPE svg PUBLIC "-//W3C//DTD SVG 1.1//EN"
 "http://www.w3.org/Graphics/SVG/1.1/DTD/svg11.dtd">
<!-- Generated by graphviz version 2.43.0 (0)
 -->
<!-- Title: include/Hermes/Socket/Async/_base/ExecutionContext/FastIoExecutionContext.hpp Pages: 1 -->
<svg width="2405pt" height="258pt"
 viewBox="0.00 0.00 2404.92 258.00" xmlns="http://www.w3.org/2000/svg" xmlns:xlink="http://www.w3.org/1999/xlink">
<g id="graph0" class="graph" transform="scale(1 1) rotate(0) translate(4 254)">
<title>include/Hermes/Socket/Async/_base/ExecutionContext/FastIoExecutionContext.hpp</title>
<!-- Node1 -->
<g id="Node000001" class="node">
<title>Node1</title>
<g id="a_Node000001"><a xlink:title=" ">
<polygon fill="#999999" stroke="#666666" points="1299.42,-250 1130.42,-250 1130.42,-209 1299.42,-209 1299.42,-250"/>
<text text-anchor="start" x="1138.42" y="-238" font-family="Helvetica,sans-Serif" font-size="10.00">include/Hermes/Socket</text>
<text text-anchor="start" x="1138.42" y="-227" font-family="Helvetica,sans-Serif" font-size="10.00">/Async/_base/ExecutionContext</text>
<text text-anchor="middle" x="1214.92" y="-216" font-family="Helvetica,sans-Serif" font-size="10.00">/FastIoExecutionContext.hpp</text>
</a>
</g>
</g>
<!-- Node2 -->
<g id="Node000002" class="node">
<title>Node2</title>
<g id="a_Node000002"><a xlink:href="_os_api_8hpp.html" target="_top" xlink:title=" ">
<polygon fill="white" stroke="#666666" points="1137.92,-167.5 1019.92,-167.5 1019.92,-137.5 1137.92,-137.5 1137.92,-167.5"/>
<text text-anchor="start" x="1027.92" y="-155.5" font-family="Helvetica,sans-Serif" font-size="10.00">Hermes/_base/OsApi</text>
<text text-anchor="middle" x="1078.92" y="-144.5" font-family="Helvetica,sans-Serif" font-size="10.00">/OsApi.hpp</text>
</a>
</g>
</g>
<!-- Node1&#45;&gt;Node2 -->
<g id="edge1_Node000001_Node000002" class="edge">
<title>Node1&#45;&gt;Node2</title>
<g id="a_edge1_Node000001_Node000002"><a xlink:title=" ">
<path fill="none" stroke="#63b8ff" d="M1179.55,-208.99C1159.21,-197.77 1133.76,-183.74 1113.55,-172.6"/>
<polygon fill="#63b8ff" stroke="#63b8ff" points="1115.12,-169.46 1104.67,-167.7 1111.74,-175.59 1115.12,-169.46"/>
</a>
</g>
</g>
<!-- Node23 -->
<g id="Node000023" class="node">
<title>Node23</title>
<g id="a_Node000023"><a xlink:title=" ">
<polygon fill="#e0e0e0" stroke="#999999" points="1203.92,-162 1155.92,-162 1155.92,-143 1203.92,-143 1203.92,-162"/>
<text text-anchor="middle" x="1179.92" y="-150" font-family="Helvetica,sans-Serif" font-size="10.00">thread</text>
</a>
</g>
</g>
<!-- Node1&#45;&gt;Node23 -->
<g id="edge28_Node000001_Node000023" class="edge">
<title>Node1&#45;&gt;Node23</title>
<g id="a_edge28_Node000001_Node000023"><a xlink:title=" ">
<path fill="none" stroke="#63b8ff" d="M1205.73,-208.79C1200.33,-197.23 1193.56,-182.73 1188.31,-171.48"/>
<polygon fill="#63b8ff" stroke="#63b8ff" points="1191.4,-169.82 1184,-162.24 1185.06,-172.78 1191.4,-169.82"/>
</a>
</g>
</g>
<!-- Node24 -->
<g id="Node000024" class="node">
<title>Node24</title>
<g id="a_Node000024"><a xlink:title=" ">
<polygon fill="#e0e0e0" stroke="#999999" points="1279.92,-162 1221.92,-162 1221.92,-143 1279.92,-143 1279.92,-162"/>
<text text-anchor="middle" x="1250.92" y="-150" font-family="Helvetica,sans-Serif" font-size="10.00">memory</text>
</a>
</g>
</g>
<!-- Node1&#45;&gt;Node24 -->
<g id="edge29_Node000001_Node000024" class="edge">
<title>Node1&#45;&gt;Node24</title>
<g id="a_edge29_Node000001_Node000024"><a xlink:title=" ">
<path fill="none" stroke="#63b8ff" d="M1224.38,-208.79C1229.93,-197.23 1236.89,-182.73 1242.29,-171.48"/>
<polygon fill="#63b8ff" stroke="#63b8ff" points="1245.56,-172.77 1246.73,-162.24 1239.25,-169.74 1245.56,-172.77"/>
</a>
</g>
</g>
<!-- Node25 -->
<g id="Node000025" class="node">
<title>Node25</title>
<g id="a_Node000025"><a xlink:title=" ">
<polygon fill="#e0e0e0" stroke="#999999" points="1449.92,-173 1297.92,-173 1297.92,-132 1449.92,-132 1449.92,-173"/>
<text text-anchor="start" x="1305.92" y="-161" font-family="Helvetica,sans-Serif" font-size="10.00">Hermes/Socket/Async</text>
<text text-anchor="start" x="1305.92" y="-150" font-family="Helvetica,sans-Serif" font-size="10.00">/_base/ExecutionContext</text>
<text text-anchor="middle" x="1373.92" y="-139" font-family="Helvetica,sans-Serif" font-size="10.00">/FastIoExecutionContext.tpp</text>
</a>
</g>
</g>
<!-- Node1&#45;&gt;Node25 -->
<g id="edge30_Node000001_Node000025" class="edge">
<title>Node1&#45;&gt;Node25</title>
<g id="a_edge30_Node000001_Node000025"><a xlink:title=" ">
<path fill="none" stroke="#63b8ff" d="M1256.28,-208.99C1276.81,-199.31 1301.79,-187.52 1323.44,-177.31"/>
<polygon fill="#63b8ff" stroke="#63b8ff" points="1324.94,-180.47 1332.49,-173.04 1321.96,-174.14 1324.94,-180.47"/>
</a>
</g>
</g>
<!-- Node3 -->
<g id="Node000003" class="node">
<title>Node3</title>
<g id="a_Node000003"><a xlink:title=" ">
<polygon fill="#e0e0e0" stroke="#999999" points="348.42,-19 271.42,-19 271.42,0 348.42,0 348.42,-19"/>
<text text-anchor="middle" x="309.92" y="-7" font-family="Helvetica,sans-Serif" font-size="10.00">sys/socket.h</text>
</a>
</g>
</g>
<!-- Node2&#45;&gt;Node3 -->
<g id="edge2_Node000002_Node000003" class="edge">
<title>Node2&#45;&gt;Node3</title>
<g id="a_edge2_Node000002_Node000003"><a xlink:title=" ">
<path fill="none" stroke="#63b8ff" d="M1019.73,-150.64C801.08,-147.18 49.72,-132.66 14.92,-96 -58.01,-19.16 159.94,-10.09 261.2,-9.88"/>
<polygon fill="#63b8ff" stroke="#63b8ff" points="261.2,-13.38 271.21,-9.89 261.21,-6.38 261.2,-13.38"/>
</a>
</g>
</g>
<!-- Node4 -->
<g id="Node000004" class="node">
<title>Node4</title>
<g id="a_Node000004"><a xlink:title=" ">
<polygon fill="#e0e0e0" stroke="#999999" points="843.92,-19 771.92,-19 771.92,0 843.92,0 843.92,-19"/>
<text text-anchor="middle" x="807.92" y="-7" font-family="Helvetica,sans-Serif" font-size="10.00">netinet/in.h</text>
</a>
</g>
</g>
<!-- Node2&#45;&gt;Node4 -->
<g id="edge3_Node000002_Node000004" class="edge">
<title>Node2&#45;&gt;Node4</title>
<g id="a_edge3_Node000002_Node000004"><a xlink:title=" ">
<path fill="none" stroke="#63b8ff" d="M1019.74,-149.85C937.49,-146.17 795.07,-134.28 762.92,-96 751.2,-82.04 755.9,-71.82 762.92,-55 767.78,-43.36 777.34,-33.2 786.4,-25.55"/>
<polygon fill="#63b8ff" stroke="#63b8ff" points="788.72,-28.17 794.43,-19.25 784.4,-22.67 788.72,-28.17"/>
</a>
</g>
</g>
<!-- Node5 -->
<g id="Node000005" class="node">
<title>Node5</title>
<g id="a_Node000005"><a xlink:title=" ">
<polygon fill="#e0e0e0" stroke="#999999" points="1050.42,-85 981.42,-85 981.42,-66 1050.42,-66 1050.42,-85"/>
<text text-anchor="middle" x="1015.92" y="-73" font-family="Helvetica,sans-Serif" font-size="10.00">arpa/inet.h</text>
</a>
</g>
</g>
<!-- Node2&#45;&gt;Node5 -->
<g id="edge4_Node000002_Node000005" class="edge">
<title>Node2&#45;&gt;Node5</title>
<g id="a_edge4_Node000002_Node000005"><a xlink:title=" ">
<path fill="none" stroke="#63b8ff" d="M1067.07,-137.39C1056.55,-124.86 1041.15,-106.53 1030,-93.26"/>
<polygon fill="#63b8ff" stroke="#63b8ff" points="1032.49,-90.78 1023.38,-85.37 1027.13,-95.28 1032.49,-90.78"/>
</a>
</g>
</g>
<!-- Node6 -->
<g id="Node000006" class="node">
<title>Node6</title>
<g id="a_Node000006"><a xlink:title=" ">
<polygon fill="#e0e0e0" stroke="#999999" points="1155.42,-19 1102.42,-19 1102.42,0 1155.42,0 1155.42,-19"/>
<text text-anchor="middle" x="1128.92" y="-7" font-family="Helvetica,sans-Serif" font-size="10.00">netdb.h</text>
</a>
</g>
</g>
<!-- Node2&#45;&gt;Node6 -->
<g id="edge5_Node000002_Node000006" class="edge">
<title>Node2&#45;&gt;Node6</title>
<g id="a_edge5_Node000002_Node000006"><a xlink:title=" ">
<path fill="none" stroke="#63b8ff" d="M1079.89,-137.22C1081.6,-117.9 1086.18,-82.66 1097.92,-55 1102.15,-45.05 1108.82,-35.08 1114.89,-27.1"/>
<polygon fill="#63b8ff" stroke="#63b8ff" points="1117.81,-29.05 1121.33,-19.05 1112.35,-24.67 1117.81,-29.05"/>
</a>
</g>
</g>
<!-- Node7 -->
<g id="Node000007" class="node">
<title>Node7</title>
<g id="a_Node000007"><a xlink:title=" ">
<polygon fill="#e0e0e0" stroke="#999999" points="1324.92,-85 1268.92,-85 1268.92,-66 1324.92,-66 1324.92,-85"/>
<text text-anchor="middle" x="1296.92" y="-73" font-family="Helvetica,sans-Serif" font-size="10.00">unistd.h</text>
</a>
</g>
</g>
<!-- Node2&#45;&gt;Node7 -->
<g id="edge6_Node000002_Node000007" class="edge">
<title>Node2&#45;&gt;Node7</title>
<g id="a_edge6_Node000002_Node000007"><a xlink:title=" ">
<path fill="none" stroke="#63b8ff" d="M1126.52,-137.41C1175.82,-122.73 1247.39,-101.17 1259.92,-96 1264.27,-94.21 1268.78,-92.07 1273.1,-89.89"/>
<polygon fill="#63b8ff" stroke="#63b8ff" points="1274.9,-92.89 1282.11,-85.12 1271.63,-86.71 1274.9,-92.89"/>
</a>
</g>
</g>
<!-- Node8 -->
<g id="Node000008" class="node">
<title>Node8</title>
<g id="a_Node000008"><a xlink:href="_types_8hpp.html" target="_top" xlink:title=" ">
<polygon fill="white" stroke="#666666" points="1460.92,-90.5 1342.92,-90.5 1342.92,-60.5 1460.92,-60.5 1460.92,-90.5"/>
<text text-anchor="start" x="1350.92" y="-78.5" font-family="Helvetica,sans-Serif" font-size="10.00">Hermes/_base/OsApi</text>
<text text-anchor="middle" x="1401.92" y="-67.5" font-family="Helvetica,sans-Serif" font-size="10.00">/Types.hpp</text>
</a>
</g>
</g>
<!-- Node2&#45;&gt;Node8 -->
<g id="edge7_Node000002_Node000008" class="edge">
<title>Node2&#45;&gt;Node8</title>
<g id="a_edge7_Node000002_Node000008"><a xlink:title=" ">
<path fill="none" stroke="#63b8ff" d="M1125.97,-137.42C1132.97,-135.5 1140.11,-133.63 1146.92,-132 1229.24,-112.32 1251.61,-115.68 1333.92,-96 1337.54,-95.14 1341.25,-94.2 1344.99,-93.23"/>
<polygon fill="#63b8ff" stroke="#63b8ff" points="1346.12,-96.55 1354.88,-90.58 1344.31,-89.79 1346.12,-96.55"/>
</a>
</g>
</g>
<!-- Node10 -->
<g id="Node000010" class="node">
<title>Node10</title>
<g id="a_Node000010"><a xlink:href="_conversion_and_literals_8hpp.html" target="_top" xlink:title=" ">
<polygon fill="white" stroke="#666666" points="1628.92,-90.5 1478.92,-90.5 1478.92,-60.5 1628.92,-60.5 1628.92,-90.5"/>
<text text-anchor="start" x="1486.92" y="-78.5" font-family="Helvetica,sans-Serif" font-size="10.00">Hermes/_base/OsApi</text>
<text text-anchor="middle" x="1553.92" y="-67.5" font-family="Helvetica,sans-Serif" font-size="10.00">/ConversionAndLiterals.hpp</text>
</a>
</g>
</g>
<!-- Node2&#45;&gt;Node10 -->
<g id="edge9_Node000002_Node000010" class="edge">
<title>Node2&#45;&gt;Node10</title>
<g id="a_edge9_Node000002_Node000010"><a xlink:title=" ">
<path fill="none" stroke="#63b8ff" d="M1124.02,-137.42C1131.61,-135.38 1139.45,-133.48 1146.92,-132 1288.63,-103.99 1327.55,-120.37 1469.92,-96 1475.69,-95.01 1481.65,-93.87 1487.62,-92.65"/>
<polygon fill="#63b8ff" stroke="#63b8ff" points="1488.57,-96.02 1497.63,-90.52 1487.12,-89.18 1488.57,-96.02"/>
</a>
</g>
</g>
<!-- Node12 -->
<g id="Node000012" class="node">
<title>Node12</title>
<g id="a_Node000012"><a xlink:href="_macros_8hpp.html" target="_top" xlink:title=" ">
<polygon fill="white" stroke="#666666" points="715.92,-90.5 597.92,-90.5 597.92,-60.5 715.92,-60.5 715.92,-90.5"/>
<text text-anchor="start" x="605.92" y="-78.5" font-family="Helvetica,sans-Serif" font-size="10.00">Hermes/_base/OsApi</text>
<text text-anchor="middle" x="656.92" y="-67.5" font-family="Helvetica,sans-Serif" font-size="10.00">/Macros.hpp</text>
</a>
</g>
</g>
<!-- Node2&#45;&gt;Node12 -->
<g id="edge11_Node000002_Node000012" class="edge">
<title>Node2&#45;&gt;Node12</title>
<g id="a_edge11_Node000002_Node000012"><a xlink:title=" ">
<path fill="none" stroke="#63b8ff" d="M1019.92,-144.01C950.25,-134.73 831.04,-117.49 729.92,-96 725.55,-95.07 721.04,-94.04 716.52,-92.96"/>
<polygon fill="#63b8ff" stroke="#63b8ff" points="717.18,-89.52 706.63,-90.51 715.5,-96.31 717.18,-89.52"/>
</a>
</g>
</g>
<!-- Node14 -->
<g id="Node000014" class="node">
<title>Node14</title>
<g id="a_Node000014"><a xlink:href="_address_family_enum_8hpp.html" target="_top" xlink:title=" ">
<polygon fill="white" stroke="#666666" points="199.92,-90.5 23.92,-90.5 23.92,-60.5 199.92,-60.5 199.92,-90.5"/>
<text text-anchor="start" x="31.92" y="-78.5" font-family="Helvetica,sans-Serif" font-size="10.00">Hermes/_base/OsApi</text>
<text text-anchor="middle" x="111.92" y="-67.5" font-family="Helvetica,sans-Serif" font-size="10.00">/Enums/AddressFamilyEnum.hpp</text>
</a>
</g>
</g>
<!-- Node2&#45;&gt;Node14 -->
<g id="edge14_Node000002_Node000014" class="edge">
<title>Node2&#45;&gt;Node14</title>
<g id="a_edge14_Node000002_Node000014"><a xlink:title=" ">
<path fill="none" stroke="#63b8ff" d="M1019.77,-150.52C878.68,-147.57 511.52,-136.31 207.92,-96 200.34,-94.99 192.45,-93.74 184.6,-92.35"/>
<polygon fill="#63b8ff" stroke="#63b8ff" points="185.18,-88.9 174.71,-90.54 183.92,-95.78 185.18,-88.9"/>
</a>
</g>
</g>
<!-- Node15 -->
<g id="Node000015" class="node">
<title>Node15</title>
<g id="a_Node000015"><a xlink:href="_protocol_base_type_enum_8hpp.html" target="_top" xlink:title=" ">
<polygon fill="white" stroke="#666666" points="963.42,-90.5 772.42,-90.5 772.42,-60.5 963.42,-60.5 963.42,-90.5"/>
<text text-anchor="start" x="780.42" y="-78.5" font-family="Helvetica,sans-Serif" font-size="10.00">Hermes/_base/OsApi</text>
<text text-anchor="middle" x="867.92" y="-67.5" font-family="Helvetica,sans-Serif" font-size="10.00">/Enums/ProtocolBaseTypeEnum.hpp</text>
</a>
</g>
</g>
<!-- Node2&#45;&gt;Node15 -->
<g id="edge16_Node000002_Node000015" class="edge">
<title>Node2&#45;&gt;Node15</title>
<g id="a_edge16_Node000002_Node000015"><a xlink:title=" ">
<path fill="none" stroke="#63b8ff" d="M1039.23,-137.39C1004.61,-125.08 954.23,-107.18 917.06,-93.97"/>
<polygon fill="#63b8ff" stroke="#63b8ff" points="918.03,-90.6 907.43,-90.54 915.68,-97.19 918.03,-90.6"/>
</a>
</g>
</g>
<!-- Node16 -->
<g id="Node000016" class="node">
<title>Node16</title>
<g id="a_Node000016"><a xlink:href="_socket_shutdown_enum_8hpp.html" target="_top" xlink:title=" ">
<polygon fill="white" stroke="#666666" points="402.42,-90.5 217.42,-90.5 217.42,-60.5 402.42,-60.5 402.42,-90.5"/>
<text text-anchor="start" x="225.42" y="-78.5" font-family="Helvetica,sans-Serif" font-size="10.00">Hermes/_base/OsApi</text>
<text text-anchor="middle" x="309.92" y="-67.5" font-family="Helvetica,sans-Serif" font-size="10.00">/Enums/SocketShutdownEnum.hpp</text>
</a>
</g>
</g>
<!-- Node2&#45;&gt;Node16 -->
<g id="edge18_Node000002_Node000016" class="edge">
<title>Node2&#45;&gt;Node16</title>
<g id="a_edge18_Node000002_Node000016"><a xlink:title=" ">
<path fill="none" stroke="#63b8ff" d="M1019.71,-148.73C902.87,-142.79 634.57,-126.79 410.92,-96 403.21,-94.94 395.2,-93.67 387.21,-92.3"/>
<polygon fill="#63b8ff" stroke="#63b8ff" points="387.58,-88.82 377.12,-90.52 386.36,-95.71 387.58,-88.82"/>
</a>
</g>
</g>
<!-- Node17 -->
<g id="Node000017" class="node">
<title>Node17</title>
<g id="a_Node000017"><a xlink:href="_socket_type_enum_8hpp.html" target="_top" xlink:title=" ">
<polygon fill="white" stroke="#666666" points="579.42,-90.5 420.42,-90.5 420.42,-60.5 579.42,-60.5 579.42,-90.5"/>
<text text-anchor="start" x="428.42" y="-78.5" font-family="Helvetica,sans-Serif" font-size="10.00">Hermes/_base/OsApi</text>
<text text-anchor="middle" x="499.92" y="-67.5" font-family="Helvetica,sans-Serif" font-size="10.00">/Enums/SocketTypeEnum.hpp</text>
</a>
</g>
</g>
<!-- Node2&#45;&gt;Node17 -->
<g id="edge20_Node000002_Node000017" class="edge">
<title>Node2&#45;&gt;Node17</title>
<g id="a_edge20_Node000002_Node000017"><a xlink:title=" ">
<path fill="none" stroke="#63b8ff" d="M1019.82,-146.78C927.46,-138.97 743.49,-121.62 588.92,-96 582.78,-94.98 576.42,-93.82 570.05,-92.57"/>
<polygon fill="#63b8ff" stroke="#63b8ff" points="570.58,-89.11 560.08,-90.56 569.19,-95.97 570.58,-89.11"/>
</a>
</g>
</g>
<!-- Node18 -->
<g id="Node000018" class="node">
<title>Node18</title>
<g id="a_Node000018"><a xlink:href="_linux_2_encrypt_status_enum_8hpp.html" target="_top" xlink:title=" ">
<polygon fill="white" stroke="#666666" points="1798.92,-96 1646.92,-96 1646.92,-55 1798.92,-55 1798.92,-96"/>
<text text-anchor="start" x="1654.92" y="-84" font-family="Helvetica,sans-Serif" font-size="10.00">Hermes/_base/OsApi</text>
<text text-anchor="start" x="1654.92" y="-73" font-family="Helvetica,sans-Serif" font-size="10.00">/Enums/Linux/EncryptStatus</text>
<text text-anchor="middle" x="1722.92" y="-62" font-family="Helvetica,sans-Serif" font-size="10.00">Enum.hpp</text>
</a>
</g>
</g>
<!-- Node2&#45;&gt;Node18 -->
<g id="edge22_Node000002_Node000018" class="edge">
<title>Node2&#45;&gt;Node18</title>
<g id="a_edge22_Node000002_Node000018"><a xlink:title=" ">
<path fill="none" stroke="#63b8ff" d="M1122.87,-137.47C1130.81,-135.35 1139.06,-133.4 1146.92,-132 1359.08,-94.22 1419.72,-127.52 1636.47,-96.09"/>
<polygon fill="#63b8ff" stroke="#63b8ff" points="1637.19,-99.52 1646.57,-94.59 1636.17,-92.59 1637.19,-99.52"/>
</a>
</g>
</g>
<!-- Node19 -->
<g id="Node000019" class="node">
<title>Node19</title>
<g id="a_Node000019"><a xlink:href="_name_info_flags_8hpp.html" target="_top" xlink:title=" ">
<polygon fill="white" stroke="#666666" points="1250.92,-90.5 1106.92,-90.5 1106.92,-60.5 1250.92,-60.5 1250.92,-90.5"/>
<text text-anchor="start" x="1114.92" y="-78.5" font-family="Helvetica,sans-Serif" font-size="10.00">Hermes/_base/OsApi</text>
<text text-anchor="middle" x="1178.92" y="-67.5" font-family="Helvetica,sans-Serif" font-size="10.00">/Flags/NameInfoFlags.hpp</text>
</a>
</g>
</g>
<!-- Node2&#45;&gt;Node19 -->
<g id="edge23_Node000002_Node000019" class="edge">
<title>Node2&#45;&gt;Node19</title>
<g id="a_edge23_Node000002_Node000019"><a xlink:title=" ">
<path fill="none" stroke="#63b8ff" d="M1097.73,-137.39C1113.1,-125.87 1135,-109.44 1152.19,-96.55"/>
<polygon fill="#63b8ff" stroke="#63b8ff" points="1154.3,-99.34 1160.2,-90.54 1150.1,-93.74 1154.3,-99.34"/>
</a>
</g>
</g>
<!-- Node20 -->
<g id="Node000020" class="node">
<title>Node20</title>
<g id="a_Node000020"><a xlink:href="_linux_2_credential_flags_8hpp.html" target="_top" xlink:title=" ">
<polygon fill="white" stroke="#666666" points="1992.92,-90.5 1816.92,-90.5 1816.92,-60.5 1992.92,-60.5 1992.92,-90.5"/>
<text text-anchor="start" x="1824.92" y="-78.5" font-family="Helvetica,sans-Serif" font-size="10.00">Hermes/_base/OsApi</text>
<text text-anchor="middle" x="1904.92" y="-67.5" font-family="Helvetica,sans-Serif" font-size="10.00">/Flags/Linux/CredentialFlags.hpp</text>
</a>
</g>
</g>
<!-- Node2&#45;&gt;Node20 -->
<g id="edge25_Node000002_Node000020" class="edge">
<title>Node2&#45;&gt;Node20</title>
<g id="a_edge25_Node000002_Node000020"><a xlink:title=" ">
<path fill="none" stroke="#63b8ff" d="M1122.48,-137.44C1130.54,-135.29 1138.93,-133.35 1146.92,-132 1437.05,-83.14 1516.06,-133.09 1807.92,-96 1815.8,-95 1823.99,-93.72 1832.13,-92.31"/>
<polygon fill="#63b8ff" stroke="#63b8ff" points="1832.79,-95.74 1842,-90.52 1831.54,-88.86 1832.79,-95.74"/>
</a>
</g>
</g>
<!-- Node21 -->
<g id="Node000021" class="node">
<title>Node21</title>
<g id="a_Node000021"><a xlink:href="_linux_2_supported_protocols_flags_8hpp.html" target="_top" xlink:title=" ">
<polygon fill="white" stroke="#666666" points="2184.42,-96 2011.42,-96 2011.42,-55 2184.42,-55 2184.42,-96"/>
<text text-anchor="start" x="2019.42" y="-84" font-family="Helvetica,sans-Serif" font-size="10.00">Hermes/_base/OsApi</text>
<text text-anchor="start" x="2019.42" y="-73" font-family="Helvetica,sans-Serif" font-size="10.00">/Flags/Linux/SupportedProtocols</text>
<text text-anchor="middle" x="2097.92" y="-62" font-family="Helvetica,sans-Serif" font-size="10.00">Flags.hpp</text>
</a>
</g>
</g>
<!-- Node2&#45;&gt;Node21 -->
<g id="edge26_Node000002_Node000021" class="edge">
<title>Node2&#45;&gt;Node21</title>
<g id="a_edge26_Node000002_Node000021"><a xlink:title=" ">
<path fill="none" stroke="#63b8ff" d="M1122.11,-137.46C1130.27,-135.28 1138.8,-133.32 1146.92,-132 1519.06,-71.69 1622.56,-140.76 2001.28,-95.95"/>
<polygon fill="#63b8ff" stroke="#63b8ff" points="2001.91,-99.4 2011.42,-94.73 2001.07,-92.45 2001.91,-99.4"/>
</a>
</g>
</g>
<!-- Node22 -->
<g id="Node000022" class="node">
<title>Node22</title>
<g id="a_Node000022"><a xlink:href="_linux_2_s_channel_cred_flags_8hpp.html" target="_top" xlink:title=" ">
<polygon fill="white" stroke="#666666" points="2396.92,-90.5 2202.92,-90.5 2202.92,-60.5 2396.92,-60.5 2396.92,-90.5"/>
<text text-anchor="start" x="2210.92" y="-78.5" font-family="Helvetica,sans-Serif" font-size="10.00">Hermes/_base/OsApi</text>
<text text-anchor="middle" x="2299.92" y="-67.5" font-family="Helvetica,sans-Serif" font-size="10.00">/Flags/Linux/SChannelCredFlags.hpp</text>
</a>
</g>
</g>
<!-- Node2&#45;&gt;Node22 -->
<g id="edge27_Node000002_Node000022" class="edge">
<title>Node2&#45;&gt;Node22</title>
<g id="a_edge27_Node000002_Node000022"><a xlink:title=" ">
<path fill="none" stroke="#63b8ff" d="M1122.1,-137.41C1130.26,-135.23 1138.79,-133.29 1146.92,-132 1606.82,-59.28 1731.03,-146.26 2193.92,-96 2203.01,-95.01 2212.48,-93.69 2221.87,-92.2"/>
<polygon fill="#63b8ff" stroke="#63b8ff" points="2222.7,-95.61 2232,-90.53 2221.56,-88.71 2222.7,-95.61"/>
</a>
</g>
</g>
<!-- Node9 -->
<g id="Node000009" class="node">
<title>Node9</title>
<g id="a_Node000009"><a xlink:title=" ">
<polygon fill="#e0e0e0" stroke="#999999" points="1438.92,-19 1364.92,-19 1364.92,0 1438.92,0 1438.92,-19"/>
<text text-anchor="middle" x="1401.92" y="-7" font-family="Helvetica,sans-Serif" font-size="10.00">WinSock2.h</text>
</a>
</g>
</g>
<!-- Node8&#45;&gt;Node9 -->
<g id="edge8_Node000008_Node000009" class="edge">
<title>Node8&#45;&gt;Node9</title>
<g id="a_edge8_Node000008_Node000009"><a xlink:title=" ">
<path fill="none" stroke="#63b8ff" d="M1401.92,-60.3C1401.92,-51.2 1401.92,-39.29 1401.92,-29.4"/>
<polygon fill="#63b8ff" stroke="#63b8ff" points="1405.42,-29.34 1401.92,-19.34 1398.42,-29.34 1405.42,-29.34"/>
</a>
</g>
</g>
<!-- Node11 -->
<g id="Node000011" class="node">
<title>Node11</title>
<g id="a_Node000011"><a xlink:title=" ">
<polygon fill="#e0e0e0" stroke="#999999" points="1578.92,-19 1528.92,-19 1528.92,0 1578.92,0 1578.92,-19"/>
<text text-anchor="middle" x="1553.92" y="-7" font-family="Helvetica,sans-Serif" font-size="10.00">cstdint</text>
</a>
</g>
</g>
<!-- Node10&#45;&gt;Node11 -->
<g id="edge10_Node000010_Node000011" class="edge">
<title>Node10&#45;&gt;Node11</title>
<g id="a_edge10_Node000010_Node000011"><a xlink:title=" ">
<path fill="none" stroke="#63b8ff" d="M1553.92,-60.3C1553.92,-51.2 1553.92,-39.29 1553.92,-29.4"/>
<polygon fill="#63b8ff" stroke="#63b8ff" points="1557.42,-29.34 1553.92,-19.34 1550.42,-29.34 1557.42,-29.34"/>
</a>
</g>
</g>
<!-- Node12&#45;&gt;Node3 -->
<g id="edge13_Node000012_Node000003" class="edge">
<title>Node12&#45;&gt;Node3</title>
<g id="a_edge13_Node000012_Node000003"><a xlink:title=" ">
<path fill="none" stroke="#63b8ff" d="M609.97,-60.44C602.63,-58.47 595.09,-56.58 587.92,-55 508.39,-37.46 414.61,-23.9 358.83,-16.57"/>
<polygon fill="#63b8ff" stroke="#63b8ff" points="359.24,-13.09 348.87,-15.27 358.33,-20.04 359.24,-13.09"/>
</a>
</g>
</g>
<!-- Node13 -->
<g id="Node000013" class="node">
<title>Node13</title>
<g id="a_Node000013"><a xlink:title=" ">
<polygon fill="#e0e0e0" stroke="#999999" points="693.42,-19 620.42,-19 620.42,0 693.42,0 693.42,-19"/>
<text text-anchor="middle" x="656.92" y="-7" font-family="Helvetica,sans-Serif" font-size="10.00">string_view</text>
</a>
</g>
</g>
<!-- Node12&#45;&gt;Node13 -->
<g id="edge12_Node000012_Node000013" class="edge">
<title>Node12&#45;&gt;Node13</title>
<g id="a_edge12_Node000012_Node000013"><a xlink:title=" ">
<path fill="none" stroke="#63b8ff" d="M656.92,-60.3C656.92,-51.2 656.92,-39.29 656.92,-29.4"/>
<polygon fill="#63b8ff" stroke="#63b8ff" points="660.42,-29.34 656.92,-19.34 653.42,-29.34 660.42,-29.34"/>
</a>
</g>
</g>
<!-- Node14&#45;&gt;Node3 -->
<g id="edge15_Node000014_Node000003" class="edge">
<title>Node14&#45;&gt;Node3</title>
<g id="a_edge15_Node000014_Node000003"><a xlink:title=" ">
<path fill="none" stroke="#63b8ff" d="M155.37,-60.45C190.86,-48.98 240.43,-32.96 273.78,-22.18"/>
<polygon fill="#63b8ff" stroke="#63b8ff" points="275.13,-25.42 283.57,-19.02 272.98,-18.76 275.13,-25.42"/>
</a>
</g>
</g>
<!-- Node15&#45;&gt;Node4 -->
<g id="edge17_Node000015_Node000004" class="edge">
<title>Node15&#45;&gt;Node4</title>
<g id="a_edge17_Node000015_Node000004"><a xlink:title=" ">
<path fill="none" stroke="#63b8ff" d="M854.61,-60.3C845.34,-50.42 832.97,-37.22 823.29,-26.89"/>
<polygon fill="#63b8ff" stroke="#63b8ff" points="825.61,-24.25 816.21,-19.34 820.5,-29.03 825.61,-24.25"/>
</a>
</g>
</g>
<!-- Node16&#45;&gt;Node3 -->
<g id="edge19_Node000016_Node000003" class="edge">
<title>Node16&#45;&gt;Node3</title>
<g id="a_edge19_Node000016_Node000003"><a xlink:title=" ">
<path fill="none" stroke="#63b8ff" d="M309.92,-60.3C309.92,-51.2 309.92,-39.29 309.92,-29.4"/>
<polygon fill="#63b8ff" stroke="#63b8ff" points="313.42,-29.34 309.92,-19.34 306.42,-29.34 313.42,-29.34"/>
</a>
</g>
</g>
<!-- Node17&#45;&gt;Node3 -->
<g id="edge21_Node000017_Node000003" class="edge">
<title>Node17&#45;&gt;Node3</title>
<g id="a_edge21_Node000017_Node000003"><a xlink:title=" ">
<path fill="none" stroke="#63b8ff" d="M458.23,-60.45C424.32,-49.03 377.01,-33.1 345.02,-22.32"/>
<polygon fill="#63b8ff" stroke="#63b8ff" points="345.8,-18.89 335.21,-19.02 343.57,-25.53 345.8,-18.89"/>
</a>
</g>
</g>
<!-- Node19&#45;&gt;Node6 -->
<g id="edge24_Node000019_Node000006" class="edge">
<title>Node19&#45;&gt;Node6</title>
<g id="a_edge24_Node000019_Node000006"><a xlink:title=" ">
<path fill="none" stroke="#63b8ff" d="M1167.83,-60.3C1160.26,-50.61 1150.2,-37.74 1142.21,-27.51"/>
<polygon fill="#63b8ff" stroke="#63b8ff" points="1144.75,-25.07 1135.83,-19.34 1139.23,-29.38 1144.75,-25.07"/>
</a>
</g>
</g>
</g>
</svg>
