<?xml version="1.0" encoding="UTF-8" standalone="no"?>
<!DOCTYPE svg PUBLIC "-//W3C//DTD SVG 1.1//EN"
 "http://www.w3.org/Graphics/SVG/1.1/DTD/svg11.dtd">
<!-- Generated by graphviz version 2.43.0 (0)
 -->
<!-- Title: include/Hermes/Socket/Async/_base/ExecutionContext/FastIoExecutionContext.hpp Pages: 1 -->
<svg width="2261pt" height="258pt"
 viewBox="0.00 0.00 2260.61 258.00" xmlns="http://www.w3.org/2000/svg" xmlns:xlink="http://www.w3.org/1999/xlink">
<g id="graph0" class="graph" transform="scale(1 1) rotate(0) translate(4 254)">
<title>include/Hermes/Socket/Async/_base/ExecutionContext/FastIoExecutionContext.hpp</title>
<!-- Node1 -->
<g id="Node000001" class="node">
<title>Node1</title>
<g id="a_Node000001"><a xlink:title=" ">
<polygon fill="#999999" stroke="#666666" points="1193.11,-250 1024.11,-250 1024.11,-209 1193.11,-209 1193.11,-250"/>
<text text-anchor="start" x="1032.11" y="-238" font-family="Helvetica,sans-Serif" font-size="10.00">include/Hermes/Socket</text>
<text text-anchor="start" x="1032.11" y="-227" font-family="Helvetica,sans-Serif" font-size="10.00">/Async/_base/ExecutionContext</text>
<text text-anchor="middle" x="1108.61" y="-216" font-family="Helvetica,sans-Serif" font-size="10.00">/FastIoExecutionContext.hpp</text>
</a>
</g>
</g>
<!-- Node2 -->
<g id="Node000002" class="node">
<title>Node2</title>
<g id="a_Node000002"><a xlink:href="_os_api_8hpp.html" target="_top" xlink:title=" ">
<polygon fill="white" stroke="#666666" points="1031.61,-167.5 913.61,-167.5 913.61,-137.5 1031.61,-137.5 1031.61,-167.5"/>
<text text-anchor="start" x="921.61" y="-155.5" font-family="Helvetica,sans-Serif" font-size="10.00">Hermes/_base/OsApi</text>
<text text-anchor="middle" x="972.61" y="-144.5" font-family="Helvetica,sans-Serif" font-size="10.00">/OsApi.hpp</text>
</a>
</g>
</g>
<!-- Node1&#45;&gt;Node2 -->
<g id="edge1_Node000001_Node000002" class="edge">
<title>Node1&#45;&gt;Node2</title>
<g id="a_edge1_Node000001_Node000002"><a xlink:title=" ">
<path fill="none" stroke="#63b8ff" d="M1073.23,-208.99C1052.89,-197.77 1027.45,-183.74 1007.24,-172.6"/>
<polygon fill="#63b8ff" stroke="#63b8ff" points="1008.8,-169.46 998.36,-167.7 1005.42,-175.59 1008.8,-169.46"/>
</a>
</g>
</g>
<!-- Node21 -->
<g id="Node000021" class="node">
<title>Node21</title>
<g id="a_Node000021"><a xlink:title=" ">
<polygon fill="#e0e0e0" stroke="#999999" points="1097.61,-162 1049.61,-162 1049.61,-143 1097.61,-143 1097.61,-162"/>
<text text-anchor="middle" x="1073.61" y="-150" font-family="Helvetica,sans-Serif" font-size="10.00">thread</text>
</a>
</g>
</g>
<!-- Node1&#45;&gt;Node21 -->
<g id="edge26_Node000001_Node000021" class="edge">
<title>Node1&#45;&gt;Node21</title>
<g id="a_edge26_Node000001_Node000021"><a xlink:title=" ">
<path fill="none" stroke="#63b8ff" d="M1099.41,-208.79C1094.01,-197.23 1087.25,-182.73 1082,-171.48"/>
<polygon fill="#63b8ff" stroke="#63b8ff" points="1085.08,-169.82 1077.68,-162.24 1078.74,-172.78 1085.08,-169.82"/>
</a>
</g>
</g>
<!-- Node22 -->
<g id="Node000022" class="node">
<title>Node22</title>
<g id="a_Node000022"><a xlink:title=" ">
<polygon fill="#e0e0e0" stroke="#999999" points="1173.61,-162 1115.61,-162 1115.61,-143 1173.61,-143 1173.61,-162"/>
<text text-anchor="middle" x="1144.61" y="-150" font-family="Helvetica,sans-Serif" font-size="10.00">memory</text>
</a>
</g>
</g>
<!-- Node1&#45;&gt;Node22 -->
<g id="edge27_Node000001_Node000022" class="edge">
<title>Node1&#45;&gt;Node22</title>
<g id="a_edge27_Node000001_Node000022"><a xlink:title=" ">
<path fill="none" stroke="#63b8ff" d="M1118.07,-208.79C1123.62,-197.23 1130.58,-182.73 1135.98,-171.48"/>
<polygon fill="#63b8ff" stroke="#63b8ff" points="1139.24,-172.77 1140.41,-162.24 1132.93,-169.74 1139.24,-172.77"/>
</a>
</g>
</g>
<!-- Node23 -->
<g id="Node000023" class="node">
<title>Node23</title>
<g id="a_Node000023"><a xlink:title=" ">
<polygon fill="#e0e0e0" stroke="#999999" points="1343.61,-173 1191.61,-173 1191.61,-132 1343.61,-132 1343.61,-173"/>
<text text-anchor="start" x="1199.61" y="-161" font-family="Helvetica,sans-Serif" font-size="10.00">Hermes/Socket/Async</text>
<text text-anchor="start" x="1199.61" y="-150" font-family="Helvetica,sans-Serif" font-size="10.00">/_base/ExecutionContext</text>
<text text-anchor="middle" x="1267.61" y="-139" font-family="Helvetica,sans-Serif" font-size="10.00">/FastIoExecutionContext.tpp</text>
</a>
</g>
</g>
<!-- Node1&#45;&gt;Node23 -->
<g id="edge28_Node000001_Node000023" class="edge">
<title>Node1&#45;&gt;Node23</title>
<g id="a_edge28_Node000001_Node000023"><a xlink:title=" ">
<path fill="none" stroke="#63b8ff" d="M1149.97,-208.99C1170.5,-199.31 1195.48,-187.52 1217.13,-177.31"/>
<polygon fill="#63b8ff" stroke="#63b8ff" points="1218.63,-180.47 1226.18,-173.04 1215.64,-174.14 1218.63,-180.47"/>
</a>
</g>
</g>
<!-- Node3 -->
<g id="Node000003" class="node">
<title>Node3</title>
<g id="a_Node000003"><a xlink:title=" ">
<polygon fill="#e0e0e0" stroke="#999999" points="728.11,-19 651.11,-19 651.11,0 728.11,0 728.11,-19"/>
<text text-anchor="middle" x="689.61" y="-7" font-family="Helvetica,sans-Serif" font-size="10.00">sys/socket.h</text>
</a>
</g>
</g>
<!-- Node2&#45;&gt;Node3 -->
<g id="edge2_Node000002_Node000003" class="edge">
<title>Node2&#45;&gt;Node3</title>
<g id="a_edge2_Node000002_Node000003"><a xlink:title=" ">
<path fill="none" stroke="#63b8ff" d="M913.56,-151.86C817.35,-151.03 633.38,-143.16 592.61,-96 580.69,-82.22 582.77,-70.34 592.61,-55 603.51,-38 622.71,-27.41 641.17,-20.85"/>
<polygon fill="#63b8ff" stroke="#63b8ff" points="642.27,-24.18 650.71,-17.78 640.12,-17.52 642.27,-24.18"/>
</a>
</g>
</g>
<!-- Node4 -->
<g id="Node000004" class="node">
<title>Node4</title>
<g id="a_Node000004"><a xlink:title=" ">
<polygon fill="#e0e0e0" stroke="#999999" points="86.61,-19 14.61,-19 14.61,0 86.61,0 86.61,-19"/>
<text text-anchor="middle" x="50.61" y="-7" font-family="Helvetica,sans-Serif" font-size="10.00">netinet/in.h</text>
</a>
</g>
</g>
<!-- Node2&#45;&gt;Node4 -->
<g id="edge3_Node000002_Node000004" class="edge">
<title>Node2&#45;&gt;Node4</title>
<g id="a_edge3_Node000002_Node000004"><a xlink:title=" ">
<path fill="none" stroke="#63b8ff" d="M913.36,-150.31C708.18,-145.9 38.8,-129.04 7.61,-96 -4.9,-82.75 0.78,-71.89 7.61,-55 12.29,-43.41 21.6,-33.16 30.37,-25.43"/>
<polygon fill="#63b8ff" stroke="#63b8ff" points="32.6,-28.12 38.11,-19.07 28.16,-22.71 32.6,-28.12"/>
</a>
</g>
</g>
<!-- Node5 -->
<g id="Node000005" class="node">
<title>Node5</title>
<g id="a_Node000005"><a xlink:title=" ">
<polygon fill="#e0e0e0" stroke="#999999" points="295.11,-85 226.11,-85 226.11,-66 295.11,-66 295.11,-85"/>
<text text-anchor="middle" x="260.61" y="-73" font-family="Helvetica,sans-Serif" font-size="10.00">arpa/inet.h</text>
</a>
</g>
</g>
<!-- Node2&#45;&gt;Node5 -->
<g id="edge4_Node000002_Node000005" class="edge">
<title>Node2&#45;&gt;Node5</title>
<g id="a_edge4_Node000002_Node000005"><a xlink:title=" ">
<path fill="none" stroke="#63b8ff" d="M913.44,-149.19C772.12,-143.24 418.17,-125.77 303.61,-96 297.51,-94.41 291.19,-92.02 285.35,-89.45"/>
<polygon fill="#63b8ff" stroke="#63b8ff" points="286.6,-86.17 276.06,-85.07 283.61,-92.5 286.6,-86.17"/>
</a>
</g>
</g>
<!-- Node6 -->
<g id="Node000006" class="node">
<title>Node6</title>
<g id="a_Node000006"><a xlink:title=" ">
<polygon fill="#e0e0e0" stroke="#999999" points="1221.11,-19 1168.11,-19 1168.11,0 1221.11,0 1221.11,-19"/>
<text text-anchor="middle" x="1194.61" y="-7" font-family="Helvetica,sans-Serif" font-size="10.00">netdb.h</text>
</a>
</g>
</g>
<!-- Node2&#45;&gt;Node6 -->
<g id="edge5_Node000002_Node000006" class="edge">
<title>Node2&#45;&gt;Node6</title>
<g id="a_edge5_Node000002_Node000006"><a xlink:title=" ">
<path fill="none" stroke="#63b8ff" d="M1019.95,-137.4C1058.13,-125.48 1108.24,-108.39 1125.61,-96 1139.26,-86.26 1166.72,-49.55 1182.57,-27.52"/>
<polygon fill="#63b8ff" stroke="#63b8ff" points="1185.62,-29.27 1188.58,-19.1 1179.92,-25.21 1185.62,-29.27"/>
</a>
</g>
</g>
<!-- Node7 -->
<g id="Node000007" class="node">
<title>Node7</title>
<g id="a_Node000007"><a xlink:title=" ">
<polygon fill="#e0e0e0" stroke="#999999" points="545.61,-85 489.61,-85 489.61,-66 545.61,-66 545.61,-85"/>
<text text-anchor="middle" x="517.61" y="-73" font-family="Helvetica,sans-Serif" font-size="10.00">unistd.h</text>
</a>
</g>
</g>
<!-- Node2&#45;&gt;Node7 -->
<g id="edge6_Node000002_Node000007" class="edge">
<title>Node2&#45;&gt;Node7</title>
<g id="a_edge6_Node000002_Node000007"><a xlink:title=" ">
<path fill="none" stroke="#63b8ff" d="M913.32,-149.12C832.05,-144.61 682.18,-131.79 559.61,-96 553.92,-94.34 548.02,-92.02 542.5,-89.55"/>
<polygon fill="#63b8ff" stroke="#63b8ff" points="543.66,-86.22 533.12,-85.07 540.64,-92.54 543.66,-86.22"/>
</a>
</g>
</g>
<!-- Node8 -->
<g id="Node000008" class="node">
<title>Node8</title>
<g id="a_Node000008"><a xlink:href="_conversion_and_literals_8hpp.html" target="_top" xlink:title=" ">
<polygon fill="white" stroke="#666666" points="1654.61,-90.5 1504.61,-90.5 1504.61,-60.5 1654.61,-60.5 1654.61,-90.5"/>
<text text-anchor="start" x="1512.61" y="-78.5" font-family="Helvetica,sans-Serif" font-size="10.00">Hermes/_base/OsApi</text>
<text text-anchor="middle" x="1579.61" y="-67.5" font-family="Helvetica,sans-Serif" font-size="10.00">/ConversionAndLiterals.hpp</text>
</a>
</g>
</g>
<!-- Node2&#45;&gt;Node8 -->
<g id="edge7_Node000002_Node000008" class="edge">
<title>Node2&#45;&gt;Node8</title>
<g id="a_edge7_Node000002_Node000008"><a xlink:title=" ">
<path fill="none" stroke="#63b8ff" d="M1016.93,-137.41C1024.76,-135.32 1032.87,-133.4 1040.61,-132 1240.22,-95.86 1295.14,-127.02 1495.61,-96 1501.72,-95.05 1508.06,-93.9 1514.37,-92.64"/>
<polygon fill="#63b8ff" stroke="#63b8ff" points="1515.18,-96.05 1524.26,-90.58 1513.75,-89.2 1515.18,-96.05"/>
</a>
</g>
</g>
<!-- Node10 -->
<g id="Node000010" class="node">
<title>Node10</title>
<g id="a_Node000010"><a xlink:href="_macros_8hpp.html" target="_top" xlink:title=" ">
<polygon fill="white" stroke="#666666" points="1116.61,-90.5 998.61,-90.5 998.61,-60.5 1116.61,-60.5 1116.61,-90.5"/>
<text text-anchor="start" x="1006.61" y="-78.5" font-family="Helvetica,sans-Serif" font-size="10.00">Hermes/_base/OsApi</text>
<text text-anchor="middle" x="1057.61" y="-67.5" font-family="Helvetica,sans-Serif" font-size="10.00">/Macros.hpp</text>
</a>
</g>
</g>
<!-- Node2&#45;&gt;Node10 -->
<g id="edge9_Node000002_Node000010" class="edge">
<title>Node2&#45;&gt;Node10</title>
<g id="a_edge9_Node000002_Node000010"><a xlink:title=" ">
<path fill="none" stroke="#63b8ff" d="M988.59,-137.39C1001.42,-126.08 1019.6,-110.04 1034.08,-97.26"/>
<polygon fill="#63b8ff" stroke="#63b8ff" points="1036.51,-99.78 1041.69,-90.54 1031.88,-94.54 1036.51,-99.78"/>
</a>
</g>
</g>
<!-- Node12 -->
<g id="Node000012" class="node">
<title>Node12</title>
<g id="a_Node000012"><a xlink:href="_address_family_enum_8hpp.html" target="_top" xlink:title=" ">
<polygon fill="white" stroke="#666666" points="777.61,-90.5 601.61,-90.5 601.61,-60.5 777.61,-60.5 777.61,-90.5"/>
<text text-anchor="start" x="609.61" y="-78.5" font-family="Helvetica,sans-Serif" font-size="10.00">Hermes/_base/OsApi</text>
<text text-anchor="middle" x="689.61" y="-67.5" font-family="Helvetica,sans-Serif" font-size="10.00">/Enums/AddressFamilyEnum.hpp</text>
</a>
</g>
</g>
<!-- Node2&#45;&gt;Node12 -->
<g id="edge12_Node000002_Node000012" class="edge">
<title>Node2&#45;&gt;Node12</title>
<g id="a_edge12_Node000002_Node000012"><a xlink:title=" ">
<path fill="none" stroke="#63b8ff" d="M919.71,-137.48C872.31,-124.92 802.73,-106.48 752.5,-93.17"/>
<polygon fill="#63b8ff" stroke="#63b8ff" points="753.29,-89.76 742.73,-90.58 751.5,-96.52 753.29,-89.76"/>
</a>
</g>
</g>
<!-- Node13 -->
<g id="Node000013" class="node">
<title>Node13</title>
<g id="a_Node000013"><a xlink:href="_protocol_base_type_enum_8hpp.html" target="_top" xlink:title=" ">
<polygon fill="white" stroke="#666666" points="208.11,-90.5 17.11,-90.5 17.11,-60.5 208.11,-60.5 208.11,-90.5"/>
<text text-anchor="start" x="25.11" y="-78.5" font-family="Helvetica,sans-Serif" font-size="10.00">Hermes/_base/OsApi</text>
<text text-anchor="middle" x="112.61" y="-67.5" font-family="Helvetica,sans-Serif" font-size="10.00">/Enums/ProtocolBaseTypeEnum.hpp</text>
</a>
</g>
</g>
<!-- Node2&#45;&gt;Node13 -->
<g id="edge14_Node000002_Node000013" class="edge">
<title>Node2&#45;&gt;Node13</title>
<g id="a_edge14_Node000002_Node000013"><a xlink:title=" ">
<path fill="none" stroke="#63b8ff" d="M913.56,-149.42C785.94,-144.43 475.01,-129.6 216.61,-96 208.42,-94.94 199.91,-93.64 191.43,-92.24"/>
<polygon fill="#63b8ff" stroke="#63b8ff" points="191.97,-88.78 181.52,-90.54 190.79,-95.68 191.97,-88.78"/>
</a>
</g>
</g>
<!-- Node14 -->
<g id="Node000014" class="node">
<title>Node14</title>
<g id="a_Node000014"><a xlink:href="_socket_shutdown_enum_8hpp.html" target="_top" xlink:title=" ">
<polygon fill="white" stroke="#666666" points="980.11,-90.5 795.11,-90.5 795.11,-60.5 980.11,-60.5 980.11,-90.5"/>
<text text-anchor="start" x="803.11" y="-78.5" font-family="Helvetica,sans-Serif" font-size="10.00">Hermes/_base/OsApi</text>
<text text-anchor="middle" x="887.61" y="-67.5" font-family="Helvetica,sans-Serif" font-size="10.00">/Enums/SocketShutdownEnum.hpp</text>
</a>
</g>
</g>
<!-- Node2&#45;&gt;Node14 -->
<g id="edge16_Node000002_Node000014" class="edge">
<title>Node2&#45;&gt;Node14</title>
<g id="a_edge16_Node000002_Node000014"><a xlink:title=" ">
<path fill="none" stroke="#63b8ff" d="M956.62,-137.39C943.8,-126.08 925.61,-110.04 911.13,-97.26"/>
<polygon fill="#63b8ff" stroke="#63b8ff" points="913.34,-94.54 903.52,-90.54 908.71,-99.78 913.34,-94.54"/>
</a>
</g>
</g>
<!-- Node15 -->
<g id="Node000015" class="node">
<title>Node15</title>
<g id="a_Node000015"><a xlink:href="_socket_type_enum_8hpp.html" target="_top" xlink:title=" ">
<polygon fill="white" stroke="#666666" points="472.11,-90.5 313.11,-90.5 313.11,-60.5 472.11,-60.5 472.11,-90.5"/>
<text text-anchor="start" x="321.11" y="-78.5" font-family="Helvetica,sans-Serif" font-size="10.00">Hermes/_base/OsApi</text>
<text text-anchor="middle" x="392.61" y="-67.5" font-family="Helvetica,sans-Serif" font-size="10.00">/Enums/SocketTypeEnum.hpp</text>
</a>
</g>
</g>
<!-- Node2&#45;&gt;Node15 -->
<g id="edge18_Node000002_Node000015" class="edge">
<title>Node2&#45;&gt;Node15</title>
<g id="a_edge18_Node000002_Node000015"><a xlink:title=" ">
<path fill="none" stroke="#63b8ff" d="M913.25,-146.85C820.51,-139.11 635.77,-121.87 480.61,-96 474.53,-94.99 468.24,-93.82 461.95,-92.58"/>
<polygon fill="#63b8ff" stroke="#63b8ff" points="462.58,-89.14 452.08,-90.57 461.19,-96 462.58,-89.14"/>
</a>
</g>
</g>
<!-- Node16 -->
<g id="Node000016" class="node">
<title>Node16</title>
<g id="a_Node000016"><a xlink:href="_linux_2_encrypt_status_enum_8hpp.html" target="_top" xlink:title=" ">
<polygon fill="white" stroke="#666666" points="1486.61,-96 1334.61,-96 1334.61,-55 1486.61,-55 1486.61,-96"/>
<text text-anchor="start" x="1342.61" y="-84" font-family="Helvetica,sans-Serif" font-size="10.00">Hermes/_base/OsApi</text>
<text text-anchor="start" x="1342.61" y="-73" font-family="Helvetica,sans-Serif" font-size="10.00">/Enums/Linux/EncryptStatus</text>
<text text-anchor="middle" x="1410.61" y="-62" font-family="Helvetica,sans-Serif" font-size="10.00">Enum.hpp</text>
</a>
</g>
</g>
<!-- Node2&#45;&gt;Node16 -->
<g id="edge20_Node000002_Node000016" class="edge">
<title>Node2&#45;&gt;Node16</title>
<g id="a_edge20_Node000002_Node000016"><a xlink:title=" ">
<path fill="none" stroke="#63b8ff" d="M1018.09,-137.42C1025.57,-135.4 1033.27,-133.51 1040.61,-132 1162.5,-106.98 1198.1,-117.72 1324.18,-96.15"/>
<polygon fill="#63b8ff" stroke="#63b8ff" points="1324.98,-99.57 1334.22,-94.4 1323.77,-92.67 1324.98,-99.57"/>
</a>
</g>
</g>
<!-- Node17 -->
<g id="Node000017" class="node">
<title>Node17</title>
<g id="a_Node000017"><a xlink:href="_name_info_flags_8hpp.html" target="_top" xlink:title=" ">
<polygon fill="white" stroke="#666666" points="1316.61,-90.5 1172.61,-90.5 1172.61,-60.5 1316.61,-60.5 1316.61,-90.5"/>
<text text-anchor="start" x="1180.61" y="-78.5" font-family="Helvetica,sans-Serif" font-size="10.00">Hermes/_base/OsApi</text>
<text text-anchor="middle" x="1244.61" y="-67.5" font-family="Helvetica,sans-Serif" font-size="10.00">/Flags/NameInfoFlags.hpp</text>
</a>
</g>
</g>
<!-- Node2&#45;&gt;Node17 -->
<g id="edge21_Node000002_Node000017" class="edge">
<title>Node2&#45;&gt;Node17</title>
<g id="a_edge21_Node000002_Node000017"><a xlink:title=" ">
<path fill="none" stroke="#63b8ff" d="M1021.24,-137.47C1027.75,-135.61 1034.34,-133.75 1040.61,-132 1088.12,-118.72 1141.98,-104.09 1182.42,-93.18"/>
<polygon fill="#63b8ff" stroke="#63b8ff" points="1183.4,-96.54 1192.14,-90.56 1181.58,-89.78 1183.4,-96.54"/>
</a>
</g>
</g>
<!-- Node18 -->
<g id="Node000018" class="node">
<title>Node18</title>
<g id="a_Node000018"><a xlink:href="_linux_2_credential_flags_8hpp.html" target="_top" xlink:title=" ">
<polygon fill="white" stroke="#666666" points="1848.61,-90.5 1672.61,-90.5 1672.61,-60.5 1848.61,-60.5 1848.61,-90.5"/>
<text text-anchor="start" x="1680.61" y="-78.5" font-family="Helvetica,sans-Serif" font-size="10.00">Hermes/_base/OsApi</text>
<text text-anchor="middle" x="1760.61" y="-67.5" font-family="Helvetica,sans-Serif" font-size="10.00">/Flags/Linux/CredentialFlags.hpp</text>
</a>
</g>
</g>
<!-- Node2&#45;&gt;Node18 -->
<g id="edge23_Node000002_Node000018" class="edge">
<title>Node2&#45;&gt;Node18</title>
<g id="a_edge23_Node000002_Node000018"><a xlink:title=" ">
<path fill="none" stroke="#63b8ff" d="M1016.17,-137.47C1024.23,-135.31 1032.62,-133.36 1040.61,-132 1314.03,-85.49 1388.53,-131.42 1663.61,-96 1671.33,-95.01 1679.37,-93.75 1687.35,-92.36"/>
<polygon fill="#63b8ff" stroke="#63b8ff" points="1688.21,-95.76 1697.42,-90.53 1686.96,-88.87 1688.21,-95.76"/>
</a>
</g>
</g>
<!-- Node19 -->
<g id="Node000019" class="node">
<title>Node19</title>
<g id="a_Node000019"><a xlink:href="_linux_2_supported_protocols_flags_8hpp.html" target="_top" xlink:title=" ">
<polygon fill="white" stroke="#666666" points="2040.11,-96 1867.11,-96 1867.11,-55 2040.11,-55 2040.11,-96"/>
<text text-anchor="start" x="1875.11" y="-84" font-family="Helvetica,sans-Serif" font-size="10.00">Hermes/_base/OsApi</text>
<text text-anchor="start" x="1875.11" y="-73" font-family="Helvetica,sans-Serif" font-size="10.00">/Flags/Linux/SupportedProtocols</text>
<text text-anchor="middle" x="1953.61" y="-62" font-family="Helvetica,sans-Serif" font-size="10.00">Flags.hpp</text>
</a>
</g>
</g>
<!-- Node2&#45;&gt;Node19 -->
<g id="edge24_Node000002_Node000019" class="edge">
<title>Node2&#45;&gt;Node19</title>
<g id="a_edge24_Node000002_Node000019"><a xlink:title=" ">
<path fill="none" stroke="#63b8ff" d="M1015.79,-137.47C1023.96,-135.29 1032.49,-133.32 1040.61,-132 1396.09,-74.03 1495.07,-139.11 1857.13,-95.93"/>
<polygon fill="#63b8ff" stroke="#63b8ff" points="1857.6,-99.4 1867.1,-94.72 1856.75,-92.45 1857.6,-99.4"/>
</a>
</g>
</g>
<!-- Node20 -->
<g id="Node000020" class="node">
<title>Node20</title>
<g id="a_Node000020"><a xlink:href="_linux_2_s_channel_cred_flags_8hpp.html" target="_top" xlink:title=" ">
<polygon fill="white" stroke="#666666" points="2252.61,-90.5 2058.61,-90.5 2058.61,-60.5 2252.61,-60.5 2252.61,-90.5"/>
<text text-anchor="start" x="2066.61" y="-78.5" font-family="Helvetica,sans-Serif" font-size="10.00">Hermes/_base/OsApi</text>
<text text-anchor="middle" x="2155.61" y="-67.5" font-family="Helvetica,sans-Serif" font-size="10.00">/Flags/Linux/SChannelCredFlags.hpp</text>
</a>
</g>
</g>
<!-- Node2&#45;&gt;Node20 -->
<g id="edge25_Node000002_Node000020" class="edge">
<title>Node2&#45;&gt;Node20</title>
<g id="a_edge25_Node000002_Node000020"><a xlink:title=" ">
<path fill="none" stroke="#63b8ff" d="M1015.78,-137.42C1023.95,-135.24 1032.48,-133.29 1040.61,-132 1483.78,-61.63 1603.53,-144.72 2049.61,-96 2058.69,-95.01 2068.17,-93.68 2077.55,-92.19"/>
<polygon fill="#63b8ff" stroke="#63b8ff" points="2078.39,-95.6 2087.68,-90.52 2077.25,-88.7 2078.39,-95.6"/>
</a>
</g>
</g>
<!-- Node9 -->
<g id="Node000009" class="node">
<title>Node9</title>
<g id="a_Node000009"><a xlink:title=" ">
<polygon fill="#e0e0e0" stroke="#999999" points="1604.61,-19 1554.61,-19 1554.61,0 1604.61,0 1604.61,-19"/>
<text text-anchor="middle" x="1579.61" y="-7" font-family="Helvetica,sans-Serif" font-size="10.00">cstdint</text>
</a>
</g>
</g>
<!-- Node8&#45;&gt;Node9 -->
<g id="edge8_Node000008_Node000009" class="edge">
<title>Node8&#45;&gt;Node9</title>
<g id="a_edge8_Node000008_Node000009"><a xlink:title=" ">
<path fill="none" stroke="#63b8ff" d="M1579.61,-60.3C1579.61,-51.2 1579.61,-39.29 1579.61,-29.4"/>
<polygon fill="#63b8ff" stroke="#63b8ff" points="1583.11,-29.34 1579.61,-19.34 1576.11,-29.34 1583.11,-29.34"/>
</a>
</g>
</g>
<!-- Node10&#45;&gt;Node3 -->
<g id="edge11_Node000010_Node000003" class="edge">
<title>Node10&#45;&gt;Node3</title>
<g id="a_edge11_Node000010_Node000003"><a xlink:title=" ">
<path fill="none" stroke="#63b8ff" d="M1011.04,-60.47C1003.58,-58.47 995.91,-56.57 988.61,-55 901.24,-36.23 797.81,-22.74 738.34,-15.81"/>
<polygon fill="#63b8ff" stroke="#63b8ff" points="738.45,-12.3 728.12,-14.64 737.65,-19.26 738.45,-12.3"/>
</a>
</g>
</g>
<!-- Node11 -->
<g id="Node000011" class="node">
<title>Node11</title>
<g id="a_Node000011"><a xlink:title=" ">
<polygon fill="#e0e0e0" stroke="#999999" points="1094.11,-19 1021.11,-19 1021.11,0 1094.11,0 1094.11,-19"/>
<text text-anchor="middle" x="1057.61" y="-7" font-family="Helvetica,sans-Serif" font-size="10.00">string_view</text>
</a>
</g>
</g>
<!-- Node10&#45;&gt;Node11 -->
<g id="edge10_Node000010_Node000011" class="edge">
<title>Node10&#45;&gt;Node11</title>
<g id="a_edge10_Node000010_Node000011"><a xlink:title=" ">
<path fill="none" stroke="#63b8ff" d="M1057.61,-60.3C1057.61,-51.2 1057.61,-39.29 1057.61,-29.4"/>
<polygon fill="#63b8ff" stroke="#63b8ff" points="1061.11,-29.34 1057.61,-19.34 1054.11,-29.34 1061.11,-29.34"/>
</a>
</g>
</g>
<!-- Node12&#45;&gt;Node3 -->
<g id="edge13_Node000012_Node000003" class="edge">
<title>Node12&#45;&gt;Node3</title>
<g id="a_edge13_Node000012_Node000003"><a xlink:title=" ">
<path fill="none" stroke="#63b8ff" d="M689.61,-60.3C689.61,-51.2 689.61,-39.29 689.61,-29.4"/>
<polygon fill="#63b8ff" stroke="#63b8ff" points="693.11,-29.34 689.61,-19.34 686.11,-29.34 693.11,-29.34"/>
</a>
</g>
</g>
<!-- Node13&#45;&gt;Node4 -->
<g id="edge15_Node000013_Node000004" class="edge">
<title>Node13&#45;&gt;Node4</title>
<g id="a_edge15_Node000013_Node000004"><a xlink:title=" ">
<path fill="none" stroke="#63b8ff" d="M98.85,-60.3C89.18,-50.32 76.24,-36.96 66.19,-26.59"/>
<polygon fill="#63b8ff" stroke="#63b8ff" points="68.65,-24.09 59.17,-19.34 63.62,-28.96 68.65,-24.09"/>
</a>
</g>
</g>
<!-- Node14&#45;&gt;Node3 -->
<g id="edge17_Node000014_Node000003" class="edge">
<title>Node14&#45;&gt;Node3</title>
<g id="a_edge17_Node000014_Node000003"><a xlink:title=" ">
<path fill="none" stroke="#63b8ff" d="M844.16,-60.45C808.67,-48.98 759.1,-32.96 725.75,-22.18"/>
<polygon fill="#63b8ff" stroke="#63b8ff" points="726.55,-18.76 715.96,-19.02 724.4,-25.42 726.55,-18.76"/>
</a>
</g>
</g>
<!-- Node15&#45;&gt;Node3 -->
<g id="edge19_Node000015_Node000003" class="edge">
<title>Node15&#45;&gt;Node3</title>
<g id="a_edge19_Node000015_Node000003"><a xlink:title=" ">
<path fill="none" stroke="#63b8ff" d="M455.56,-60.48C463.98,-58.63 472.5,-56.76 480.61,-55 535.53,-43.07 598.65,-29.67 641.02,-20.73"/>
<polygon fill="#63b8ff" stroke="#63b8ff" points="642,-24.1 651.07,-18.61 640.56,-17.25 642,-24.1"/>
</a>
</g>
</g>
<!-- Node17&#45;&gt;Node6 -->
<g id="edge22_Node000017_Node000006" class="edge">
<title>Node17&#45;&gt;Node6</title>
<g id="a_edge22_Node000017_Node000006"><a xlink:title=" ">
<path fill="none" stroke="#63b8ff" d="M1233.51,-60.3C1225.94,-50.61 1215.89,-37.74 1207.9,-27.51"/>
<polygon fill="#63b8ff" stroke="#63b8ff" points="1210.43,-25.07 1201.52,-19.34 1204.91,-29.38 1210.43,-25.07"/>
</a>
</g>
</g>
</g>
</svg>
