<?xml version="1.0" encoding="UTF-8" standalone="no"?>
<!DOCTYPE svg PUBLIC "-//W3C//DTD SVG 1.1//EN"
 "http://www.w3.org/Graphics/SVG/1.1/DTD/svg11.dtd">
<!-- Generated by graphviz version 2.43.0 (0)
 -->
<!-- Title: include/Hermes/Socket/Async/_base/ExecutionContext/FastIoExecutionContext.hpp Pages: 1 -->
<svg width="2420pt" height="258pt"
 viewBox="0.00 0.00 2419.50 258.00" xmlns="http://www.w3.org/2000/svg" xmlns:xlink="http://www.w3.org/1999/xlink">
<g id="graph0" class="graph" transform="scale(1 1) rotate(0) translate(4 254)">
<title>include/Hermes/Socket/Async/_base/ExecutionContext/FastIoExecutionContext.hpp</title>
<!-- Node1 -->
<g id="Node000001" class="node">
<title>Node1</title>
<g id="a_Node000001"><a xlink:title=" ">
<polygon fill="#999999" stroke="#666666" points="1280,-250 1111,-250 1111,-209 1280,-209 1280,-250"/>
<text text-anchor="start" x="1119" y="-238" font-family="Helvetica,sans-Serif" font-size="10.00">include/Hermes/Socket</text>
<text text-anchor="start" x="1119" y="-227" font-family="Helvetica,sans-Serif" font-size="10.00">/Async/_base/ExecutionContext</text>
<text text-anchor="middle" x="1195.5" y="-216" font-family="Helvetica,sans-Serif" font-size="10.00">/FastIoExecutionContext.hpp</text>
</a>
</g>
</g>
<!-- Node2 -->
<g id="Node000002" class="node">
<title>Node2</title>
<g id="a_Node000002"><a xlink:href="_os_api_8hpp.html" target="_top" xlink:title=" ">
<polygon fill="white" stroke="#666666" points="1118.5,-167.5 1000.5,-167.5 1000.5,-137.5 1118.5,-137.5 1118.5,-167.5"/>
<text text-anchor="start" x="1008.5" y="-155.5" font-family="Helvetica,sans-Serif" font-size="10.00">Hermes/_base/OsApi</text>
<text text-anchor="middle" x="1059.5" y="-144.5" font-family="Helvetica,sans-Serif" font-size="10.00">/OsApi.hpp</text>
</a>
</g>
</g>
<!-- Node1&#45;&gt;Node2 -->
<g id="edge1_Node000001_Node000002" class="edge">
<title>Node1&#45;&gt;Node2</title>
<g id="a_edge1_Node000001_Node000002"><a xlink:title=" ">
<path fill="none" stroke="#63b8ff" d="M1160.12,-208.99C1139.78,-197.77 1114.34,-183.74 1094.13,-172.6"/>
<polygon fill="#63b8ff" stroke="#63b8ff" points="1095.7,-169.46 1085.25,-167.7 1092.32,-175.59 1095.7,-169.46"/>
</a>
</g>
</g>
<!-- Node22 -->
<g id="Node000022" class="node">
<title>Node22</title>
<g id="a_Node000022"><a xlink:title=" ">
<polygon fill="#e0e0e0" stroke="#999999" points="1184.5,-162 1136.5,-162 1136.5,-143 1184.5,-143 1184.5,-162"/>
<text text-anchor="middle" x="1160.5" y="-150" font-family="Helvetica,sans-Serif" font-size="10.00">thread</text>
</a>
</g>
</g>
<!-- Node1&#45;&gt;Node22 -->
<g id="edge27_Node000001_Node000022" class="edge">
<title>Node1&#45;&gt;Node22</title>
<g id="a_edge27_Node000001_Node000022"><a xlink:title=" ">
<path fill="none" stroke="#63b8ff" d="M1186.3,-208.79C1180.91,-197.23 1174.14,-182.73 1168.89,-171.48"/>
<polygon fill="#63b8ff" stroke="#63b8ff" points="1171.98,-169.82 1164.58,-162.24 1165.63,-172.78 1171.98,-169.82"/>
</a>
</g>
</g>
<!-- Node23 -->
<g id="Node000023" class="node">
<title>Node23</title>
<g id="a_Node000023"><a xlink:title=" ">
<polygon fill="#e0e0e0" stroke="#999999" points="1260.5,-162 1202.5,-162 1202.5,-143 1260.5,-143 1260.5,-162"/>
<text text-anchor="middle" x="1231.5" y="-150" font-family="Helvetica,sans-Serif" font-size="10.00">memory</text>
</a>
</g>
</g>
<!-- Node1&#45;&gt;Node23 -->
<g id="edge28_Node000001_Node000023" class="edge">
<title>Node1&#45;&gt;Node23</title>
<g id="a_edge28_Node000001_Node000023"><a xlink:title=" ">
<path fill="none" stroke="#63b8ff" d="M1204.96,-208.79C1210.51,-197.23 1217.47,-182.73 1222.87,-171.48"/>
<polygon fill="#63b8ff" stroke="#63b8ff" points="1226.13,-172.77 1227.31,-162.24 1219.82,-169.74 1226.13,-172.77"/>
</a>
</g>
</g>
<!-- Node24 -->
<g id="Node000024" class="node">
<title>Node24</title>
<g id="a_Node000024"><a xlink:title=" ">
<polygon fill="#e0e0e0" stroke="#999999" points="1430.5,-173 1278.5,-173 1278.5,-132 1430.5,-132 1430.5,-173"/>
<text text-anchor="start" x="1286.5" y="-161" font-family="Helvetica,sans-Serif" font-size="10.00">Hermes/Socket/Async</text>
<text text-anchor="start" x="1286.5" y="-150" font-family="Helvetica,sans-Serif" font-size="10.00">/_base/ExecutionContext</text>
<text text-anchor="middle" x="1354.5" y="-139" font-family="Helvetica,sans-Serif" font-size="10.00">/FastIoExecutionContext.tpp</text>
</a>
</g>
</g>
<!-- Node1&#45;&gt;Node24 -->
<g id="edge29_Node000001_Node000024" class="edge">
<title>Node1&#45;&gt;Node24</title>
<g id="a_edge29_Node000001_Node000024"><a xlink:title=" ">
<path fill="none" stroke="#63b8ff" d="M1236.86,-208.99C1257.39,-199.31 1282.37,-187.52 1304.02,-177.31"/>
<polygon fill="#63b8ff" stroke="#63b8ff" points="1305.52,-180.47 1313.07,-173.04 1302.53,-174.14 1305.52,-180.47"/>
</a>
</g>
</g>
<!-- Node3 -->
<g id="Node000003" class="node">
<title>Node3</title>
<g id="a_Node000003"><a xlink:title=" ">
<polygon fill="#e0e0e0" stroke="#999999" points="908,-19 831,-19 831,0 908,0 908,-19"/>
<text text-anchor="middle" x="869.5" y="-7" font-family="Helvetica,sans-Serif" font-size="10.00">sys/socket.h</text>
</a>
</g>
</g>
<!-- Node2&#45;&gt;Node3 -->
<g id="edge2_Node000002_Node000003" class="edge">
<title>Node2&#45;&gt;Node3</title>
<g id="a_edge2_Node000002_Node000003"><a xlink:title=" ">
<path fill="none" stroke="#63b8ff" d="M1000.44,-151.26C840.36,-150 407.25,-142.3 364.5,-96 352.14,-82.61 352.19,-68.44 364.5,-55 394.93,-21.77 699.82,-13.23 820.6,-11.14"/>
<polygon fill="#63b8ff" stroke="#63b8ff" points="820.74,-14.64 830.68,-10.97 820.62,-7.64 820.74,-14.64"/>
</a>
</g>
</g>
<!-- Node4 -->
<g id="Node000004" class="node">
<title>Node4</title>
<g id="a_Node000004"><a xlink:title=" ">
<polygon fill="#e0e0e0" stroke="#999999" points="193.5,-19 121.5,-19 121.5,0 193.5,0 193.5,-19"/>
<text text-anchor="middle" x="157.5" y="-7" font-family="Helvetica,sans-Serif" font-size="10.00">netinet/in.h</text>
</a>
</g>
</g>
<!-- Node2&#45;&gt;Node4 -->
<g id="edge3_Node000002_Node000004" class="edge">
<title>Node2&#45;&gt;Node4</title>
<g id="a_edge3_Node000002_Node000004"><a xlink:title=" ">
<path fill="none" stroke="#63b8ff" d="M1000.21,-149.98C823.25,-145.09 306.88,-128.19 238.5,-96 237.97,-95.75 196.27,-51.6 172.92,-26.85"/>
<polygon fill="#63b8ff" stroke="#63b8ff" points="175.2,-24.17 165.79,-19.29 170.11,-28.97 175.2,-24.17"/>
</a>
</g>
</g>
<!-- Node5 -->
<g id="Node000005" class="node">
<title>Node5</title>
<g id="a_Node000005"><a xlink:title=" ">
<polygon fill="#e0e0e0" stroke="#999999" points="317,-85 248,-85 248,-66 317,-66 317,-85"/>
<text text-anchor="middle" x="282.5" y="-73" font-family="Helvetica,sans-Serif" font-size="10.00">arpa/inet.h</text>
</a>
</g>
</g>
<!-- Node2&#45;&gt;Node5 -->
<g id="edge4_Node000002_Node000005" class="edge">
<title>Node2&#45;&gt;Node5</title>
<g id="a_edge4_Node000002_Node000005"><a xlink:title=" ">
<path fill="none" stroke="#63b8ff" d="M1000.23,-149.29C850.19,-143.33 458.31,-125.35 331.5,-96 324.31,-94.34 316.79,-91.79 309.86,-89.07"/>
<polygon fill="#63b8ff" stroke="#63b8ff" points="310.81,-85.68 300.23,-85.07 308.12,-92.14 310.81,-85.68"/>
</a>
</g>
</g>
<!-- Node6 -->
<g id="Node000006" class="node">
<title>Node6</title>
<g id="a_Node000006"><a xlink:title=" ">
<polygon fill="#e0e0e0" stroke="#999999" points="1442,-19 1389,-19 1389,0 1442,0 1442,-19"/>
<text text-anchor="middle" x="1415.5" y="-7" font-family="Helvetica,sans-Serif" font-size="10.00">netdb.h</text>
</a>
</g>
</g>
<!-- Node2&#45;&gt;Node6 -->
<g id="edge5_Node000002_Node000006" class="edge">
<title>Node2&#45;&gt;Node6</title>
<g id="a_edge5_Node000002_Node000006"><a xlink:title=" ">
<path fill="none" stroke="#63b8ff" d="M1104.6,-137.43C1112.19,-135.39 1120.03,-133.48 1127.5,-132 1197.48,-118.12 1398.97,-149.2 1446.5,-96 1464.2,-76.19 1445.25,-45.49 1430.17,-26.77"/>
<polygon fill="#63b8ff" stroke="#63b8ff" points="1432.8,-24.46 1423.67,-19.1 1427.46,-28.99 1432.8,-24.46"/>
</a>
</g>
</g>
<!-- Node7 -->
<g id="Node000007" class="node">
<title>Node7</title>
<g id="a_Node000007"><a xlink:title=" ">
<polygon fill="#e0e0e0" stroke="#999999" points="429.5,-85 373.5,-85 373.5,-66 429.5,-66 429.5,-85"/>
<text text-anchor="middle" x="401.5" y="-73" font-family="Helvetica,sans-Serif" font-size="10.00">unistd.h</text>
</a>
</g>
</g>
<!-- Node2&#45;&gt;Node7 -->
<g id="edge6_Node000002_Node000007" class="edge">
<title>Node2&#45;&gt;Node7</title>
<g id="a_edge6_Node000002_Node000007"><a xlink:title=" ">
<path fill="none" stroke="#63b8ff" d="M1000.27,-149.18C866.16,-143.45 542.83,-126.8 438.5,-96 433.54,-94.54 428.47,-92.38 423.74,-90.02"/>
<polygon fill="#63b8ff" stroke="#63b8ff" points="425.11,-86.78 414.66,-85.07 421.77,-92.93 425.11,-86.78"/>
</a>
</g>
</g>
<!-- Node8 -->
<g id="Node000008" class="node">
<title>Node8</title>
<g id="a_Node000008"><a xlink:href="_types_8hpp.html" target="_top" xlink:title=" ">
<polygon fill="white" stroke="#666666" points="565.5,-90.5 447.5,-90.5 447.5,-60.5 565.5,-60.5 565.5,-90.5"/>
<text text-anchor="start" x="455.5" y="-78.5" font-family="Helvetica,sans-Serif" font-size="10.00">Hermes/_base/OsApi</text>
<text text-anchor="middle" x="506.5" y="-67.5" font-family="Helvetica,sans-Serif" font-size="10.00">/Types.hpp</text>
</a>
</g>
</g>
<!-- Node2&#45;&gt;Node8 -->
<g id="edge7_Node000002_Node000008" class="edge">
<title>Node2&#45;&gt;Node8</title>
<g id="a_edge7_Node000002_Node000008"><a xlink:title=" ">
<path fill="none" stroke="#63b8ff" d="M1000.41,-147.9C908.59,-141.6 726.4,-126.25 574.5,-96 570.18,-95.14 565.74,-94.14 561.3,-93.05"/>
<polygon fill="#63b8ff" stroke="#63b8ff" points="562.16,-89.66 551.6,-90.56 560.41,-96.44 562.16,-89.66"/>
</a>
</g>
</g>
<!-- Node9 -->
<g id="Node000009" class="node">
<title>Node9</title>
<g id="a_Node000009"><a xlink:href="_conversion_and_literals_8hpp.html" target="_top" xlink:title=" ">
<polygon fill="white" stroke="#666666" points="1813.5,-90.5 1663.5,-90.5 1663.5,-60.5 1813.5,-60.5 1813.5,-90.5"/>
<text text-anchor="start" x="1671.5" y="-78.5" font-family="Helvetica,sans-Serif" font-size="10.00">Hermes/_base/OsApi</text>
<text text-anchor="middle" x="1738.5" y="-67.5" font-family="Helvetica,sans-Serif" font-size="10.00">/ConversionAndLiterals.hpp</text>
</a>
</g>
</g>
<!-- Node2&#45;&gt;Node9 -->
<g id="edge8_Node000002_Node000009" class="edge">
<title>Node2&#45;&gt;Node9</title>
<g id="a_edge8_Node000002_Node000009"><a xlink:title=" ">
<path fill="none" stroke="#63b8ff" d="M1103.44,-137.44C1111.38,-135.32 1119.64,-133.38 1127.5,-132 1358.73,-91.42 1422.3,-130.65 1654.5,-96 1660.72,-95.07 1667.16,-93.92 1673.58,-92.65"/>
<polygon fill="#63b8ff" stroke="#63b8ff" points="1674.54,-96.03 1683.62,-90.57 1673.11,-89.17 1674.54,-96.03"/>
</a>
</g>
</g>
<!-- Node11 -->
<g id="Node000011" class="node">
<title>Node11</title>
<g id="a_Node000011"><a xlink:href="_macros_8hpp.html" target="_top" xlink:title=" ">
<polygon fill="white" stroke="#666666" points="1275.5,-90.5 1157.5,-90.5 1157.5,-60.5 1275.5,-60.5 1275.5,-90.5"/>
<text text-anchor="start" x="1165.5" y="-78.5" font-family="Helvetica,sans-Serif" font-size="10.00">Hermes/_base/OsApi</text>
<text text-anchor="middle" x="1216.5" y="-67.5" font-family="Helvetica,sans-Serif" font-size="10.00">/Macros.hpp</text>
</a>
</g>
</g>
<!-- Node2&#45;&gt;Node11 -->
<g id="edge10_Node000002_Node000011" class="edge">
<title>Node2&#45;&gt;Node11</title>
<g id="a_edge10_Node000002_Node000011"><a xlink:title=" ">
<path fill="none" stroke="#63b8ff" d="M1089.03,-137.39C1114.14,-125.4 1150.38,-108.09 1177.8,-94.99"/>
<polygon fill="#63b8ff" stroke="#63b8ff" points="1179.59,-98.01 1187.1,-90.54 1176.57,-91.7 1179.59,-98.01"/>
</a>
</g>
</g>
<!-- Node13 -->
<g id="Node000013" class="node">
<title>Node13</title>
<g id="a_Node000013"><a xlink:href="_address_family_enum_8hpp.html" target="_top" xlink:title=" ">
<polygon fill="white" stroke="#666666" points="759.5,-90.5 583.5,-90.5 583.5,-60.5 759.5,-60.5 759.5,-90.5"/>
<text text-anchor="start" x="591.5" y="-78.5" font-family="Helvetica,sans-Serif" font-size="10.00">Hermes/_base/OsApi</text>
<text text-anchor="middle" x="671.5" y="-67.5" font-family="Helvetica,sans-Serif" font-size="10.00">/Enums/AddressFamilyEnum.hpp</text>
</a>
</g>
</g>
<!-- Node2&#45;&gt;Node13 -->
<g id="edge13_Node000002_Node000013" class="edge">
<title>Node2&#45;&gt;Node13</title>
<g id="a_edge13_Node000002_Node000013"><a xlink:title=" ">
<path fill="none" stroke="#63b8ff" d="M1000.46,-140.5C941.44,-129.46 848.13,-111.85 767.5,-96 761.78,-94.88 755.87,-93.7 749.93,-92.51"/>
<polygon fill="#63b8ff" stroke="#63b8ff" points="750.41,-89.04 739.92,-90.51 749.03,-95.9 750.41,-89.04"/>
</a>
</g>
</g>
<!-- Node14 -->
<g id="Node000014" class="node">
<title>Node14</title>
<g id="a_Node000014"><a xlink:href="_protocol_base_type_enum_8hpp.html" target="_top" xlink:title=" ">
<polygon fill="white" stroke="#666666" points="191,-90.5 0,-90.5 0,-60.5 191,-60.5 191,-90.5"/>
<text text-anchor="start" x="8" y="-78.5" font-family="Helvetica,sans-Serif" font-size="10.00">Hermes/_base/OsApi</text>
<text text-anchor="middle" x="95.5" y="-67.5" font-family="Helvetica,sans-Serif" font-size="10.00">/Enums/ProtocolBaseTypeEnum.hpp</text>
</a>
</g>
</g>
<!-- Node2&#45;&gt;Node14 -->
<g id="edge15_Node000002_Node000014" class="edge">
<title>Node2&#45;&gt;Node14</title>
<g id="a_edge15_Node000002_Node000014"><a xlink:title=" ">
<path fill="none" stroke="#63b8ff" d="M1000.28,-149.9C861.14,-145.67 502.72,-131.89 205.5,-96 196.59,-94.92 187.31,-93.6 178.08,-92.15"/>
<polygon fill="#63b8ff" stroke="#63b8ff" points="178.54,-88.68 168.11,-90.54 177.42,-95.59 178.54,-88.68"/>
</a>
</g>
</g>
<!-- Node15 -->
<g id="Node000015" class="node">
<title>Node15</title>
<g id="a_Node000015"><a xlink:href="_socket_shutdown_enum_8hpp.html" target="_top" xlink:title=" ">
<polygon fill="white" stroke="#666666" points="962,-90.5 777,-90.5 777,-60.5 962,-60.5 962,-90.5"/>
<text text-anchor="start" x="785" y="-78.5" font-family="Helvetica,sans-Serif" font-size="10.00">Hermes/_base/OsApi</text>
<text text-anchor="middle" x="869.5" y="-67.5" font-family="Helvetica,sans-Serif" font-size="10.00">/Enums/SocketShutdownEnum.hpp</text>
</a>
</g>
</g>
<!-- Node2&#45;&gt;Node15 -->
<g id="edge17_Node000002_Node000015" class="edge">
<title>Node2&#45;&gt;Node15</title>
<g id="a_edge17_Node000002_Node000015"><a xlink:title=" ">
<path fill="none" stroke="#63b8ff" d="M1023.76,-137.39C992.85,-125.19 947.99,-107.48 914.6,-94.3"/>
<polygon fill="#63b8ff" stroke="#63b8ff" points="915.66,-90.96 905.08,-90.54 913.09,-97.47 915.66,-90.96"/>
</a>
</g>
</g>
<!-- Node16 -->
<g id="Node000016" class="node">
<title>Node16</title>
<g id="a_Node000016"><a xlink:href="_socket_type_enum_8hpp.html" target="_top" xlink:title=" ">
<polygon fill="white" stroke="#666666" points="1139,-90.5 980,-90.5 980,-60.5 1139,-60.5 1139,-90.5"/>
<text text-anchor="start" x="988" y="-78.5" font-family="Helvetica,sans-Serif" font-size="10.00">Hermes/_base/OsApi</text>
<text text-anchor="middle" x="1059.5" y="-67.5" font-family="Helvetica,sans-Serif" font-size="10.00">/Enums/SocketTypeEnum.hpp</text>
</a>
</g>
</g>
<!-- Node2&#45;&gt;Node16 -->
<g id="edge19_Node000002_Node000016" class="edge">
<title>Node2&#45;&gt;Node16</title>
<g id="a_edge19_Node000002_Node000016"><a xlink:title=" ">
<path fill="none" stroke="#63b8ff" d="M1059.5,-137.39C1059.5,-127.13 1059.5,-112.97 1059.5,-100.88"/>
<polygon fill="#63b8ff" stroke="#63b8ff" points="1063,-100.54 1059.5,-90.54 1056,-100.54 1063,-100.54"/>
</a>
</g>
</g>
<!-- Node17 -->
<g id="Node000017" class="node">
<title>Node17</title>
<g id="a_Node000017"><a xlink:href="_linux_2_encrypt_status_enum_8hpp.html" target="_top" xlink:title=" ">
<polygon fill="white" stroke="#666666" points="1645.5,-96 1493.5,-96 1493.5,-55 1645.5,-55 1645.5,-96"/>
<text text-anchor="start" x="1501.5" y="-84" font-family="Helvetica,sans-Serif" font-size="10.00">Hermes/_base/OsApi</text>
<text text-anchor="start" x="1501.5" y="-73" font-family="Helvetica,sans-Serif" font-size="10.00">/Enums/Linux/EncryptStatus</text>
<text text-anchor="middle" x="1569.5" y="-62" font-family="Helvetica,sans-Serif" font-size="10.00">Enum.hpp</text>
</a>
</g>
</g>
<!-- Node2&#45;&gt;Node17 -->
<g id="edge21_Node000002_Node000017" class="edge">
<title>Node2&#45;&gt;Node17</title>
<g id="a_edge21_Node000002_Node000017"><a xlink:title=" ">
<path fill="none" stroke="#63b8ff" d="M1104.22,-137.46C1111.93,-135.39 1119.9,-133.47 1127.5,-132 1281.91,-102.21 1324.19,-120.69 1479.5,-96 1480.61,-95.82 1481.72,-95.64 1482.84,-95.46"/>
<polygon fill="#63b8ff" stroke="#63b8ff" points="1483.77,-98.85 1493.01,-93.68 1482.56,-91.95 1483.77,-98.85"/>
</a>
</g>
</g>
<!-- Node18 -->
<g id="Node000018" class="node">
<title>Node18</title>
<g id="a_Node000018"><a xlink:href="_name_info_flags_8hpp.html" target="_top" xlink:title=" ">
<polygon fill="white" stroke="#666666" points="1437.5,-90.5 1293.5,-90.5 1293.5,-60.5 1437.5,-60.5 1437.5,-90.5"/>
<text text-anchor="start" x="1301.5" y="-78.5" font-family="Helvetica,sans-Serif" font-size="10.00">Hermes/_base/OsApi</text>
<text text-anchor="middle" x="1365.5" y="-67.5" font-family="Helvetica,sans-Serif" font-size="10.00">/Flags/NameInfoFlags.hpp</text>
</a>
</g>
</g>
<!-- Node2&#45;&gt;Node18 -->
<g id="edge22_Node000002_Node000018" class="edge">
<title>Node2&#45;&gt;Node18</title>
<g id="a_edge22_Node000002_Node000018"><a xlink:title=" ">
<path fill="none" stroke="#63b8ff" d="M1107.34,-137.43C1114.09,-135.55 1120.96,-133.69 1127.5,-132 1196.82,-114.13 1214.81,-112.38 1284.5,-96 1288.81,-94.99 1293.26,-93.94 1297.73,-92.87"/>
<polygon fill="#63b8ff" stroke="#63b8ff" points="1298.64,-96.25 1307.56,-90.53 1297.02,-89.44 1298.64,-96.25"/>
</a>
</g>
</g>
<!-- Node19 -->
<g id="Node000019" class="node">
<title>Node19</title>
<g id="a_Node000019"><a xlink:href="_linux_2_credential_flags_8hpp.html" target="_top" xlink:title=" ">
<polygon fill="white" stroke="#666666" points="2007.5,-90.5 1831.5,-90.5 1831.5,-60.5 2007.5,-60.5 2007.5,-90.5"/>
<text text-anchor="start" x="1839.5" y="-78.5" font-family="Helvetica,sans-Serif" font-size="10.00">Hermes/_base/OsApi</text>
<text text-anchor="middle" x="1919.5" y="-67.5" font-family="Helvetica,sans-Serif" font-size="10.00">/Flags/Linux/CredentialFlags.hpp</text>
</a>
</g>
</g>
<!-- Node2&#45;&gt;Node19 -->
<g id="edge24_Node000002_Node000019" class="edge">
<title>Node2&#45;&gt;Node19</title>
<g id="a_edge24_Node000002_Node000019"><a xlink:title=" ">
<path fill="none" stroke="#63b8ff" d="M1103.06,-137.43C1111.11,-135.28 1119.51,-133.34 1127.5,-132 1432.58,-81.04 1515.61,-134.58 1822.5,-96 1830.38,-95.01 1838.57,-93.74 1846.71,-92.33"/>
<polygon fill="#63b8ff" stroke="#63b8ff" points="1847.37,-95.77 1856.58,-90.54 1846.12,-88.88 1847.37,-95.77"/>
</a>
</g>
</g>
<!-- Node20 -->
<g id="Node000020" class="node">
<title>Node20</title>
<g id="a_Node000020"><a xlink:href="_linux_2_supported_protocols_flags_8hpp.html" target="_top" xlink:title=" ">
<polygon fill="white" stroke="#666666" points="2199,-96 2026,-96 2026,-55 2199,-55 2199,-96"/>
<text text-anchor="start" x="2034" y="-84" font-family="Helvetica,sans-Serif" font-size="10.00">Hermes/_base/OsApi</text>
<text text-anchor="start" x="2034" y="-73" font-family="Helvetica,sans-Serif" font-size="10.00">/Flags/Linux/SupportedProtocols</text>
<text text-anchor="middle" x="2112.5" y="-62" font-family="Helvetica,sans-Serif" font-size="10.00">Flags.hpp</text>
</a>
</g>
</g>
<!-- Node2&#45;&gt;Node20 -->
<g id="edge25_Node000002_Node000020" class="edge">
<title>Node2&#45;&gt;Node20</title>
<g id="a_edge25_Node000002_Node000020"><a xlink:title=" ">
<path fill="none" stroke="#63b8ff" d="M1102.68,-137.45C1110.85,-135.27 1119.38,-133.31 1127.5,-132 1514.65,-69.57 1622.15,-142.28 2016.05,-95.92"/>
<polygon fill="#63b8ff" stroke="#63b8ff" points="2016.48,-99.4 2026,-94.73 2015.65,-92.44 2016.48,-99.4"/>
</a>
</g>
</g>
<!-- Node21 -->
<g id="Node000021" class="node">
<title>Node21</title>
<g id="a_Node000021"><a xlink:href="_linux_2_s_channel_cred_flags_8hpp.html" target="_top" xlink:title=" ">
<polygon fill="white" stroke="#666666" points="2411.5,-90.5 2217.5,-90.5 2217.5,-60.5 2411.5,-60.5 2411.5,-90.5"/>
<text text-anchor="start" x="2225.5" y="-78.5" font-family="Helvetica,sans-Serif" font-size="10.00">Hermes/_base/OsApi</text>
<text text-anchor="middle" x="2314.5" y="-67.5" font-family="Helvetica,sans-Serif" font-size="10.00">/Flags/Linux/SChannelCredFlags.hpp</text>
</a>
</g>
</g>
<!-- Node2&#45;&gt;Node21 -->
<g id="edge26_Node000002_Node000021" class="edge">
<title>Node2&#45;&gt;Node21</title>
<g id="a_edge26_Node000002_Node000021"><a xlink:title=" ">
<path fill="none" stroke="#63b8ff" d="M1102.31,-137.5C1110.59,-135.28 1119.25,-133.3 1127.5,-132 1602.35,-57.18 1730.57,-147.63 2208.5,-96 2217.59,-95.02 2227.06,-93.7 2236.45,-92.21"/>
<polygon fill="#63b8ff" stroke="#63b8ff" points="2237.28,-95.62 2246.58,-90.54 2236.14,-88.72 2237.28,-95.62"/>
</a>
</g>
</g>
<!-- Node10 -->
<g id="Node000010" class="node">
<title>Node10</title>
<g id="a_Node000010"><a xlink:title=" ">
<polygon fill="#e0e0e0" stroke="#999999" points="1763.5,-19 1713.5,-19 1713.5,0 1763.5,0 1763.5,-19"/>
<text text-anchor="middle" x="1738.5" y="-7" font-family="Helvetica,sans-Serif" font-size="10.00">cstdint</text>
</a>
</g>
</g>
<!-- Node9&#45;&gt;Node10 -->
<g id="edge9_Node000009_Node000010" class="edge">
<title>Node9&#45;&gt;Node10</title>
<g id="a_edge9_Node000009_Node000010"><a xlink:title=" ">
<path fill="none" stroke="#63b8ff" d="M1738.5,-60.3C1738.5,-51.2 1738.5,-39.29 1738.5,-29.4"/>
<polygon fill="#63b8ff" stroke="#63b8ff" points="1742,-29.34 1738.5,-19.34 1735,-29.34 1742,-29.34"/>
</a>
</g>
</g>
<!-- Node11&#45;&gt;Node3 -->
<g id="edge12_Node000011_Node000003" class="edge">
<title>Node11&#45;&gt;Node3</title>
<g id="a_edge12_Node000011_Node000003"><a xlink:title=" ">
<path fill="none" stroke="#63b8ff" d="M1169.55,-60.44C1162.2,-58.47 1154.67,-56.58 1147.5,-55 1067.97,-37.46 974.19,-23.9 918.41,-16.57"/>
<polygon fill="#63b8ff" stroke="#63b8ff" points="918.81,-13.09 908.45,-15.27 917.91,-20.04 918.81,-13.09"/>
</a>
</g>
</g>
<!-- Node12 -->
<g id="Node000012" class="node">
<title>Node12</title>
<g id="a_Node000012"><a xlink:title=" ">
<polygon fill="#e0e0e0" stroke="#999999" points="1253,-19 1180,-19 1180,0 1253,0 1253,-19"/>
<text text-anchor="middle" x="1216.5" y="-7" font-family="Helvetica,sans-Serif" font-size="10.00">string_view</text>
</a>
</g>
</g>
<!-- Node11&#45;&gt;Node12 -->
<g id="edge11_Node000011_Node000012" class="edge">
<title>Node11&#45;&gt;Node12</title>
<g id="a_edge11_Node000011_Node000012"><a xlink:title=" ">
<path fill="none" stroke="#63b8ff" d="M1216.5,-60.3C1216.5,-51.2 1216.5,-39.29 1216.5,-29.4"/>
<polygon fill="#63b8ff" stroke="#63b8ff" points="1220,-29.34 1216.5,-19.34 1213,-29.34 1220,-29.34"/>
</a>
</g>
</g>
<!-- Node13&#45;&gt;Node3 -->
<g id="edge14_Node000013_Node000003" class="edge">
<title>Node13&#45;&gt;Node3</title>
<g id="a_edge14_Node000013_Node000003"><a xlink:title=" ">
<path fill="none" stroke="#63b8ff" d="M714.95,-60.45C750.44,-48.98 800.01,-32.96 833.36,-22.18"/>
<polygon fill="#63b8ff" stroke="#63b8ff" points="834.71,-25.42 843.15,-19.02 832.56,-18.76 834.71,-25.42"/>
</a>
</g>
</g>
<!-- Node14&#45;&gt;Node4 -->
<g id="edge16_Node000014_Node000004" class="edge">
<title>Node14&#45;&gt;Node4</title>
<g id="a_edge16_Node000014_Node000004"><a xlink:title=" ">
<path fill="none" stroke="#63b8ff" d="M109.26,-60.3C118.93,-50.32 131.87,-36.96 141.92,-26.59"/>
<polygon fill="#63b8ff" stroke="#63b8ff" points="144.49,-28.96 148.93,-19.34 139.46,-24.09 144.49,-28.96"/>
</a>
</g>
</g>
<!-- Node15&#45;&gt;Node3 -->
<g id="edge18_Node000015_Node000003" class="edge">
<title>Node15&#45;&gt;Node3</title>
<g id="a_edge18_Node000015_Node000003"><a xlink:title=" ">
<path fill="none" stroke="#63b8ff" d="M869.5,-60.3C869.5,-51.2 869.5,-39.29 869.5,-29.4"/>
<polygon fill="#63b8ff" stroke="#63b8ff" points="873,-29.34 869.5,-19.34 866,-29.34 873,-29.34"/>
</a>
</g>
</g>
<!-- Node16&#45;&gt;Node3 -->
<g id="edge20_Node000016_Node000003" class="edge">
<title>Node16&#45;&gt;Node3</title>
<g id="a_edge20_Node000016_Node000003"><a xlink:title=" ">
<path fill="none" stroke="#63b8ff" d="M1017.8,-60.45C983.9,-49.03 936.59,-33.1 904.6,-22.32"/>
<polygon fill="#63b8ff" stroke="#63b8ff" points="905.38,-18.89 894.79,-19.02 903.15,-25.53 905.38,-18.89"/>
</a>
</g>
</g>
<!-- Node18&#45;&gt;Node6 -->
<g id="edge23_Node000018_Node000006" class="edge">
<title>Node18&#45;&gt;Node6</title>
<g id="a_edge23_Node000018_Node000006"><a xlink:title=" ">
<path fill="none" stroke="#63b8ff" d="M1376.6,-60.3C1384.16,-50.61 1394.22,-37.74 1402.21,-27.51"/>
<polygon fill="#63b8ff" stroke="#63b8ff" points="1405.19,-29.38 1408.59,-19.34 1399.68,-25.07 1405.19,-29.38"/>
</a>
</g>
</g>
</g>
</svg>
