<?xml version="1.0" encoding="UTF-8" standalone="no"?>
<!DOCTYPE svg PUBLIC "-//W3C//DTD SVG 1.1//EN"
 "http://www.w3.org/Graphics/SVG/1.1/DTD/svg11.dtd">
<!-- Generated by graphviz version 2.43.0 (0)
 -->
<!-- Title: include/Hermes/Socket/Async/_base/ExecutionContext/FastIoExecutionContext.hpp Pages: 1 -->
<svg width="3330pt" height="258pt"
 viewBox="0.00 0.00 3329.50 258.00" xmlns="http://www.w3.org/2000/svg" xmlns:xlink="http://www.w3.org/1999/xlink">
<g id="graph0" class="graph" transform="scale(1 1) rotate(0) translate(4 254)">
<title>include/Hermes/Socket/Async/_base/ExecutionContext/FastIoExecutionContext.hpp</title>
<!-- Node1 -->
<g id="Node000001" class="node">
<title>Node1</title>
<g id="a_Node000001"><a xlink:title=" ">
<polygon fill="#999999" stroke="#666666" points="1529,-250 1360,-250 1360,-209 1529,-209 1529,-250"/>
<text text-anchor="start" x="1368" y="-238" font-family="Helvetica,sans-Serif" font-size="10.00">include/Hermes/Socket</text>
<text text-anchor="start" x="1368" y="-227" font-family="Helvetica,sans-Serif" font-size="10.00">/Async/_base/ExecutionContext</text>
<text text-anchor="middle" x="1444.5" y="-216" font-family="Helvetica,sans-Serif" font-size="10.00">/FastIoExecutionContext.hpp</text>
</a>
</g>
</g>
<!-- Node2 -->
<g id="Node000002" class="node">
<title>Node2</title>
<g id="a_Node000002"><a xlink:href="_win_api_8hpp.html" target="_top" xlink:title=" ">
<polygon fill="white" stroke="#666666" points="1402.5,-167.5 1278.5,-167.5 1278.5,-137.5 1402.5,-137.5 1402.5,-167.5"/>
<text text-anchor="start" x="1286.5" y="-155.5" font-family="Helvetica,sans-Serif" font-size="10.00">Hermes/_base/WinApi</text>
<text text-anchor="middle" x="1340.5" y="-144.5" font-family="Helvetica,sans-Serif" font-size="10.00">/WinApi.hpp</text>
</a>
</g>
</g>
<!-- Node1&#45;&gt;Node2 -->
<g id="edge1_Node000001_Node000002" class="edge">
<title>Node1&#45;&gt;Node2</title>
<g id="a_edge1_Node000001_Node000002"><a xlink:title=" ">
<path fill="none" stroke="#63b8ff" d="M1417.45,-208.99C1402.45,-198.18 1383.84,-184.75 1368.67,-173.81"/>
<polygon fill="#63b8ff" stroke="#63b8ff" points="1370.35,-170.71 1360.19,-167.7 1366.25,-176.39 1370.35,-170.71"/>
</a>
</g>
</g>
<!-- Node29 -->
<g id="Node000029" class="node">
<title>Node29</title>
<g id="a_Node000029"><a xlink:title=" ">
<polygon fill="#e0e0e0" stroke="#999999" points="1468.5,-162 1420.5,-162 1420.5,-143 1468.5,-143 1468.5,-162"/>
<text text-anchor="middle" x="1444.5" y="-150" font-family="Helvetica,sans-Serif" font-size="10.00">thread</text>
</a>
</g>
</g>
<!-- Node1&#45;&gt;Node29 -->
<g id="edge43_Node000001_Node000029" class="edge">
<title>Node1&#45;&gt;Node29</title>
<g id="a_edge43_Node000001_Node000029"><a xlink:title=" ">
<path fill="none" stroke="#63b8ff" d="M1444.5,-208.79C1444.5,-197.59 1444.5,-183.61 1444.5,-172.52"/>
<polygon fill="#63b8ff" stroke="#63b8ff" points="1448,-172.24 1444.5,-162.24 1441,-172.24 1448,-172.24"/>
</a>
</g>
</g>
<!-- Node30 -->
<g id="Node000030" class="node">
<title>Node30</title>
<g id="a_Node000030"><a xlink:title=" ">
<polygon fill="#e0e0e0" stroke="#999999" points="1638.5,-173 1486.5,-173 1486.5,-132 1638.5,-132 1638.5,-173"/>
<text text-anchor="start" x="1494.5" y="-161" font-family="Helvetica,sans-Serif" font-size="10.00">Hermes/Socket/Async</text>
<text text-anchor="start" x="1494.5" y="-150" font-family="Helvetica,sans-Serif" font-size="10.00">/_base/ExecutionContext</text>
<text text-anchor="middle" x="1562.5" y="-139" font-family="Helvetica,sans-Serif" font-size="10.00">/FastIoExecutionContext.tpp</text>
</a>
</g>
</g>
<!-- Node1&#45;&gt;Node30 -->
<g id="edge44_Node000001_Node000030" class="edge">
<title>Node1&#45;&gt;Node30</title>
<g id="a_edge44_Node000001_Node000030"><a xlink:title=" ">
<path fill="none" stroke="#63b8ff" d="M1475.2,-208.99C1489.69,-199.77 1507.18,-188.66 1522.69,-178.81"/>
<polygon fill="#63b8ff" stroke="#63b8ff" points="1524.99,-181.49 1531.55,-173.17 1521.23,-175.58 1524.99,-181.49"/>
</a>
</g>
</g>
<!-- Node3 -->
<g id="Node000003" class="node">
<title>Node3</title>
<g id="a_Node000003"><a xlink:title=" ">
<polygon fill="#e0e0e0" stroke="#999999" points="69,-85 0,-85 0,-66 69,-66 69,-85"/>
<text text-anchor="middle" x="34.5" y="-73" font-family="Helvetica,sans-Serif" font-size="10.00">ws2tcpip.h</text>
</a>
</g>
</g>
<!-- Node2&#45;&gt;Node3 -->
<g id="edge2_Node000002_Node000003" class="edge">
<title>Node2&#45;&gt;Node3</title>
<g id="a_edge2_Node000002_Node000003"><a xlink:title=" ">
<path fill="none" stroke="#63b8ff" d="M1278.38,-151.49C1058.14,-151.04 315.36,-145.77 83.5,-96 75.99,-94.39 68.14,-91.74 60.98,-88.91"/>
<polygon fill="#63b8ff" stroke="#63b8ff" points="62.32,-85.67 51.74,-85.01 59.6,-92.12 62.32,-85.67"/>
</a>
</g>
</g>
<!-- Node4 -->
<g id="Node000004" class="node">
<title>Node4</title>
<g id="a_Node000004"><a xlink:title=" ">
<polygon fill="#e0e0e0" stroke="#999999" points="250,-19 179,-19 179,0 250,0 250,-19"/>
<text text-anchor="middle" x="214.5" y="-7" font-family="Helvetica,sans-Serif" font-size="10.00">winsock2.h</text>
</a>
</g>
</g>
<!-- Node2&#45;&gt;Node4 -->
<g id="edge3_Node000002_Node000004" class="edge">
<title>Node2&#45;&gt;Node4</title>
<g id="a_edge3_Node000002_Node000004"><a xlink:title=" ">
<path fill="none" stroke="#63b8ff" d="M1278.34,-151.04C1034.81,-148.92 156.99,-138.36 116.5,-96 103.91,-82.83 106.63,-70.32 116.5,-55 128.19,-36.86 149.27,-26.03 168.9,-19.61"/>
<polygon fill="#63b8ff" stroke="#63b8ff" points="170.08,-22.91 178.67,-16.71 168.09,-16.2 170.08,-22.91"/>
</a>
</g>
</g>
<!-- Node5 -->
<g id="Node000005" class="node">
<title>Node5</title>
<g id="a_Node000005"><a xlink:title=" ">
<polygon fill="#e0e0e0" stroke="#999999" points="453,-19 384,-19 384,0 453,0 453,-19"/>
<text text-anchor="middle" x="418.5" y="-7" font-family="Helvetica,sans-Serif" font-size="10.00">schannel.h</text>
</a>
</g>
</g>
<!-- Node2&#45;&gt;Node5 -->
<g id="edge4_Node000002_Node000005" class="edge">
<title>Node2&#45;&gt;Node5</title>
<g id="a_edge4_Node000002_Node000005"><a xlink:title=" ">
<path fill="none" stroke="#63b8ff" d="M1278.49,-150.39C1064.6,-146.28 368.97,-130.32 336.5,-96 323.98,-82.76 327.18,-70.66 336.5,-55 345.42,-40.02 361.34,-29.76 376.79,-22.91"/>
<polygon fill="#63b8ff" stroke="#63b8ff" points="378.33,-26.07 386.29,-19.08 375.7,-19.58 378.33,-26.07"/>
</a>
</g>
</g>
<!-- Node6 -->
<g id="Node000006" class="node">
<title>Node6</title>
<g id="a_Node000006"><a xlink:title=" ">
<polygon fill="#e0e0e0" stroke="#999999" points="1275,-19 1230,-19 1230,0 1275,0 1275,-19"/>
<text text-anchor="middle" x="1252.5" y="-7" font-family="Helvetica,sans-Serif" font-size="10.00">sspi.h</text>
</a>
</g>
</g>
<!-- Node2&#45;&gt;Node6 -->
<g id="edge5_Node000002_Node000006" class="edge">
<title>Node2&#45;&gt;Node6</title>
<g id="a_edge5_Node000002_Node000006"><a xlink:title=" ">
<path fill="none" stroke="#63b8ff" d="M1278.1,-148.32C1160.54,-141.68 915.76,-124.56 890.5,-96 878.43,-82.35 878.43,-68.65 890.5,-55 912.18,-30.5 1134.77,-16.55 1219.76,-12.09"/>
<polygon fill="#63b8ff" stroke="#63b8ff" points="1220.08,-15.58 1229.88,-11.57 1219.72,-8.59 1220.08,-15.58"/>
</a>
</g>
</g>
<!-- Node7 -->
<g id="Node000007" class="node">
<title>Node7</title>
<g id="a_Node000007"><a xlink:href="_conversion_and_literals_8hpp.html" target="_top" xlink:title=" ">
<polygon fill="white" stroke="#666666" points="2136.5,-90.5 1986.5,-90.5 1986.5,-60.5 2136.5,-60.5 2136.5,-90.5"/>
<text text-anchor="start" x="1994.5" y="-78.5" font-family="Helvetica,sans-Serif" font-size="10.00">Hermes/_base/WinApi</text>
<text text-anchor="middle" x="2061.5" y="-67.5" font-family="Helvetica,sans-Serif" font-size="10.00">/ConversionAndLiterals.hpp</text>
</a>
</g>
</g>
<!-- Node2&#45;&gt;Node7 -->
<g id="edge6_Node000002_Node000007" class="edge">
<title>Node2&#45;&gt;Node7</title>
<g id="a_edge6_Node000002_Node000007"><a xlink:title=" ">
<path fill="none" stroke="#63b8ff" d="M1386.41,-137.42C1394.69,-135.3 1403.31,-133.37 1411.5,-132 1660.11,-90.4 1728.11,-132.62 1977.5,-96 1983.82,-95.07 1990.36,-93.91 1996.88,-92.62"/>
<polygon fill="#63b8ff" stroke="#63b8ff" points="1998,-95.97 2007.07,-90.51 1996.57,-89.11 1998,-95.97"/>
</a>
</g>
</g>
<!-- Node9 -->
<g id="Node000009" class="node">
<title>Node9</title>
<g id="a_Node000009"><a xlink:href="_macros_8hpp.html" target="_top" xlink:title=" ">
<polygon fill="white" stroke="#666666" points="843.5,-90.5 719.5,-90.5 719.5,-60.5 843.5,-60.5 843.5,-90.5"/>
<text text-anchor="start" x="727.5" y="-78.5" font-family="Helvetica,sans-Serif" font-size="10.00">Hermes/_base/WinApi</text>
<text text-anchor="middle" x="781.5" y="-67.5" font-family="Helvetica,sans-Serif" font-size="10.00">/Macros.hpp</text>
</a>
</g>
</g>
<!-- Node2&#45;&gt;Node9 -->
<g id="edge8_Node000002_Node000009" class="edge">
<title>Node2&#45;&gt;Node9</title>
<g id="a_edge8_Node000002_Node000009"><a xlink:title=" ">
<path fill="none" stroke="#63b8ff" d="M1278.34,-147.09C1185.98,-139.93 1007.31,-123.69 857.5,-96 852.52,-95.08 847.39,-94.02 842.24,-92.87"/>
<polygon fill="#63b8ff" stroke="#63b8ff" points="842.92,-89.43 832.39,-90.58 841.34,-96.25 842.92,-89.43"/>
</a>
</g>
</g>
<!-- Node11 -->
<g id="Node000011" class="node">
<title>Node11</title>
<g id="a_Node000011"><a xlink:href="_address_family_enum_8hpp.html" target="_top" xlink:title=" ">
<polygon fill="white" stroke="#666666" points="2540.5,-90.5 2364.5,-90.5 2364.5,-60.5 2540.5,-60.5 2540.5,-90.5"/>
<text text-anchor="start" x="2372.5" y="-78.5" font-family="Helvetica,sans-Serif" font-size="10.00">Hermes/_base/WinApi</text>
<text text-anchor="middle" x="2452.5" y="-67.5" font-family="Helvetica,sans-Serif" font-size="10.00">/Enums/AddressFamilyEnum.hpp</text>
</a>
</g>
</g>
<!-- Node2&#45;&gt;Node11 -->
<g id="edge13_Node000002_Node000011" class="edge">
<title>Node2&#45;&gt;Node11</title>
<g id="a_edge13_Node000002_Node000011"><a xlink:title=" ">
<path fill="none" stroke="#63b8ff" d="M1385.62,-137.44C1394.14,-135.26 1403.04,-133.31 1411.5,-132 1826.01,-68.04 1937.97,-145.08 2354.5,-96 2362.73,-95.03 2371.31,-93.74 2379.81,-92.29"/>
<polygon fill="#63b8ff" stroke="#63b8ff" points="2380.51,-95.72 2389.74,-90.52 2379.28,-88.83 2380.51,-95.72"/>
</a>
</g>
</g>
<!-- Node13 -->
<g id="Node000013" class="node">
<title>Node13</title>
<g id="a_Node000013"><a xlink:href="_condition_function_enum_8hpp.html" target="_top" xlink:title=" ">
<polygon fill="white" stroke="#666666" points="2750.5,-90.5 2558.5,-90.5 2558.5,-60.5 2750.5,-60.5 2750.5,-90.5"/>
<text text-anchor="start" x="2566.5" y="-78.5" font-family="Helvetica,sans-Serif" font-size="10.00">Hermes/_base/WinApi</text>
<text text-anchor="middle" x="2654.5" y="-67.5" font-family="Helvetica,sans-Serif" font-size="10.00">/Enums/ConditionFunctionEnum.hpp</text>
</a>
</g>
</g>
<!-- Node2&#45;&gt;Node13 -->
<g id="edge15_Node000002_Node000013" class="edge">
<title>Node2&#45;&gt;Node13</title>
<g id="a_edge15_Node000002_Node000013"><a xlink:title=" ">
<path fill="none" stroke="#63b8ff" d="M1385.23,-137.5C1393.87,-135.28 1402.91,-133.3 1411.5,-132 1911.86,-56.46 2046.4,-150.36 2549.5,-96 2558.57,-95.02 2568.03,-93.7 2577.4,-92.2"/>
<polygon fill="#63b8ff" stroke="#63b8ff" points="2578.22,-95.61 2587.51,-90.51 2577.07,-88.7 2578.22,-95.61"/>
</a>
</g>
</g>
<!-- Node15 -->
<g id="Node000015" class="node">
<title>Node15</title>
<g id="a_Node000015"><a xlink:href="_encrypt_status_enum_8hpp.html" target="_top" xlink:title=" ">
<polygon fill="white" stroke="#666666" points="3321.5,-90.5 3149.5,-90.5 3149.5,-60.5 3321.5,-60.5 3321.5,-90.5"/>
<text text-anchor="start" x="3157.5" y="-78.5" font-family="Helvetica,sans-Serif" font-size="10.00">Hermes/_base/WinApi</text>
<text text-anchor="middle" x="3235.5" y="-67.5" font-family="Helvetica,sans-Serif" font-size="10.00">/Enums/EncryptStatusEnum.hpp</text>
</a>
</g>
</g>
<!-- Node2&#45;&gt;Node15 -->
<g id="edge17_Node000002_Node000015" class="edge">
<title>Node2&#45;&gt;Node15</title>
<g id="a_edge17_Node000002_Node000015"><a xlink:title=" ">
<path fill="none" stroke="#63b8ff" d="M1385.22,-137.42C1393.86,-135.21 1402.9,-133.25 1411.5,-132 1791.58,-76.72 2757.76,-138.4 3139.5,-96 3147.76,-95.08 3156.37,-93.8 3164.89,-92.34"/>
<polygon fill="#63b8ff" stroke="#63b8ff" points="3165.6,-95.76 3174.82,-90.54 3164.35,-88.88 3165.6,-95.76"/>
</a>
</g>
</g>
<!-- Node17 -->
<g id="Node000017" class="node">
<title>Node17</title>
<g id="a_Node000017"><a xlink:href="_protocol_base_type_enum_8hpp.html" target="_top" xlink:title=" ">
<polygon fill="white" stroke="#666666" points="2346,-90.5 2155,-90.5 2155,-60.5 2346,-60.5 2346,-90.5"/>
<text text-anchor="start" x="2163" y="-78.5" font-family="Helvetica,sans-Serif" font-size="10.00">Hermes/_base/WinApi</text>
<text text-anchor="middle" x="2250.5" y="-67.5" font-family="Helvetica,sans-Serif" font-size="10.00">/Enums/ProtocolBaseTypeEnum.hpp</text>
</a>
</g>
</g>
<!-- Node2&#45;&gt;Node17 -->
<g id="edge19_Node000002_Node000017" class="edge">
<title>Node2&#45;&gt;Node17</title>
<g id="a_edge19_Node000002_Node000017"><a xlink:title=" ">
<path fill="none" stroke="#63b8ff" d="M1386.01,-137.42C1394.41,-135.27 1403.17,-133.33 1411.5,-132 1734.02,-80.44 1821.09,-133.9 2145.5,-96 2154.2,-94.98 2163.26,-93.68 2172.25,-92.23"/>
<polygon fill="#63b8ff" stroke="#63b8ff" points="2173.08,-95.64 2182.36,-90.53 2171.92,-88.73 2173.08,-95.64"/>
</a>
</g>
</g>
<!-- Node18 -->
<g id="Node000018" class="node">
<title>Node18</title>
<g id="a_Node000018"><a xlink:href="_s_ch_cred_enum_8hpp.html" target="_top" xlink:title=" ">
<polygon fill="white" stroke="#666666" points="491.5,-90.5 345.5,-90.5 345.5,-60.5 491.5,-60.5 491.5,-90.5"/>
<text text-anchor="start" x="353.5" y="-78.5" font-family="Helvetica,sans-Serif" font-size="10.00">Hermes/_base/WinApi</text>
<text text-anchor="middle" x="418.5" y="-67.5" font-family="Helvetica,sans-Serif" font-size="10.00">/Enums/SChCredEnum.hpp</text>
</a>
</g>
</g>
<!-- Node2&#45;&gt;Node18 -->
<g id="edge21_Node000002_Node000018" class="edge">
<title>Node2&#45;&gt;Node18</title>
<g id="a_edge21_Node000002_Node000018"><a xlink:title=" ">
<path fill="none" stroke="#63b8ff" d="M1278.47,-150.95C1138.77,-148.93 789.17,-139.55 500.5,-96 494.42,-95.08 488.13,-93.94 481.86,-92.68"/>
<polygon fill="#63b8ff" stroke="#63b8ff" points="482.57,-89.25 472.06,-90.6 481.12,-96.1 482.57,-89.25"/>
</a>
</g>
</g>
<!-- Node19 -->
<g id="Node000019" class="node">
<title>Node19</title>
<g id="a_Node000019"><a xlink:href="_security_buffer_enum_8hpp.html" target="_top" xlink:title=" ">
<polygon fill="white" stroke="#666666" points="1073,-90.5 900,-90.5 900,-60.5 1073,-60.5 1073,-90.5"/>
<text text-anchor="start" x="908" y="-78.5" font-family="Helvetica,sans-Serif" font-size="10.00">Hermes/_base/WinApi</text>
<text text-anchor="middle" x="986.5" y="-67.5" font-family="Helvetica,sans-Serif" font-size="10.00">/Enums/SecurityBufferEnum.hpp</text>
</a>
</g>
</g>
<!-- Node2&#45;&gt;Node19 -->
<g id="edge23_Node000002_Node000019" class="edge">
<title>Node2&#45;&gt;Node19</title>
<g id="a_edge23_Node000002_Node000019"><a xlink:title=" ">
<path fill="none" stroke="#63b8ff" d="M1278.43,-138.35C1218.39,-125.63 1127.26,-106.32 1062.81,-92.67"/>
<polygon fill="#63b8ff" stroke="#63b8ff" points="1063.22,-89.18 1052.71,-90.53 1061.76,-96.02 1063.22,-89.18"/>
</a>
</g>
</g>
<!-- Node20 -->
<g id="Node000020" class="node">
<title>Node20</title>
<g id="a_Node000020"><a xlink:href="_socket_shutdown_enum_8hpp.html" target="_top" xlink:title=" ">
<polygon fill="white" stroke="#666666" points="2954,-90.5 2769,-90.5 2769,-60.5 2954,-60.5 2954,-90.5"/>
<text text-anchor="start" x="2777" y="-78.5" font-family="Helvetica,sans-Serif" font-size="10.00">Hermes/_base/WinApi</text>
<text text-anchor="middle" x="2861.5" y="-67.5" font-family="Helvetica,sans-Serif" font-size="10.00">/Enums/SocketShutdownEnum.hpp</text>
</a>
</g>
</g>
<!-- Node2&#45;&gt;Node20 -->
<g id="edge25_Node000002_Node000020" class="edge">
<title>Node2&#45;&gt;Node20</title>
<g id="a_edge25_Node000002_Node000020"><a xlink:title=" ">
<path fill="none" stroke="#63b8ff" d="M1385.22,-137.46C1393.86,-135.25 1402.9,-133.28 1411.5,-132 2004.33,-44 2163.65,-160.48 2759.5,-96 2768.39,-95.04 2777.65,-93.72 2786.82,-92.21"/>
<polygon fill="#63b8ff" stroke="#63b8ff" points="2787.45,-95.66 2796.71,-90.52 2786.27,-88.76 2787.45,-95.66"/>
</a>
</g>
</g>
<!-- Node21 -->
<g id="Node000021" class="node">
<title>Node21</title>
<g id="a_Node000021"><a xlink:href="_socket_type_enum_8hpp.html" target="_top" xlink:title=" ">
<polygon fill="white" stroke="#666666" points="3131,-90.5 2972,-90.5 2972,-60.5 3131,-60.5 3131,-90.5"/>
<text text-anchor="start" x="2980" y="-78.5" font-family="Helvetica,sans-Serif" font-size="10.00">Hermes/_base/WinApi</text>
<text text-anchor="middle" x="3051.5" y="-67.5" font-family="Helvetica,sans-Serif" font-size="10.00">/Enums/SocketTypeEnum.hpp</text>
</a>
</g>
</g>
<!-- Node2&#45;&gt;Node21 -->
<g id="edge27_Node000002_Node000021" class="edge">
<title>Node2&#45;&gt;Node21</title>
<g id="a_edge27_Node000002_Node000021"><a xlink:title=" ">
<path fill="none" stroke="#63b8ff" d="M1385.22,-137.44C1393.86,-135.23 1402.9,-133.26 1411.5,-132 1752.61,-81.97 2620.2,-137.08 2962.5,-96 2969.93,-95.11 2977.64,-93.88 2985.29,-92.47"/>
<polygon fill="#63b8ff" stroke="#63b8ff" points="2986.13,-95.88 2995.28,-90.53 2984.8,-89 2986.13,-95.88"/>
</a>
</g>
</g>
<!-- Node22 -->
<g id="Node000022" class="node">
<title>Node22</title>
<g id="a_Node000022"><a xlink:href="_credential_flags_8hpp.html" target="_top" xlink:title=" ">
<polygon fill="white" stroke="#666666" points="1237.5,-90.5 1091.5,-90.5 1091.5,-60.5 1237.5,-60.5 1237.5,-90.5"/>
<text text-anchor="start" x="1099.5" y="-78.5" font-family="Helvetica,sans-Serif" font-size="10.00">Hermes/_base/WinApi</text>
<text text-anchor="middle" x="1164.5" y="-67.5" font-family="Helvetica,sans-Serif" font-size="10.00">/Flags/CredentialFlags.hpp</text>
</a>
</g>
</g>
<!-- Node2&#45;&gt;Node22 -->
<g id="edge29_Node000002_Node000022" class="edge">
<title>Node2&#45;&gt;Node22</title>
<g id="a_edge29_Node000002_Node000022"><a xlink:title=" ">
<path fill="none" stroke="#63b8ff" d="M1307.4,-137.39C1278.88,-125.24 1237.56,-107.63 1206.68,-94.47"/>
<polygon fill="#63b8ff" stroke="#63b8ff" points="1208.03,-91.24 1197.46,-90.54 1205.28,-97.68 1208.03,-91.24"/>
</a>
</g>
</g>
<!-- Node23 -->
<g id="Node000023" class="node">
<title>Node23</title>
<g id="a_Node000023"><a xlink:href="_supported_protocols_flags_8hpp.html" target="_top" xlink:title=" ">
<polygon fill="white" stroke="#666666" points="701,-90.5 510,-90.5 510,-60.5 701,-60.5 701,-90.5"/>
<text text-anchor="start" x="518" y="-78.5" font-family="Helvetica,sans-Serif" font-size="10.00">Hermes/_base/WinApi</text>
<text text-anchor="middle" x="605.5" y="-67.5" font-family="Helvetica,sans-Serif" font-size="10.00">/Flags/SupportedProtocolsFlags.hpp</text>
</a>
</g>
</g>
<!-- Node2&#45;&gt;Node23 -->
<g id="edge31_Node000002_Node000023" class="edge">
<title>Node2&#45;&gt;Node23</title>
<g id="a_edge31_Node000002_Node000023"><a xlink:title=" ">
<path fill="none" stroke="#63b8ff" d="M1278.13,-147.99C1164.76,-141.17 917.47,-124.27 710.5,-96 702.53,-94.91 694.25,-93.63 685.99,-92.26"/>
<polygon fill="#63b8ff" stroke="#63b8ff" points="686.4,-88.78 675.95,-90.54 685.22,-95.68 686.4,-88.78"/>
</a>
</g>
</g>
<!-- Node24 -->
<g id="Node000024" class="node">
<title>Node24</title>
<g id="a_Node000024"><a xlink:href="_initialize_security_context_flags_8hpp.html" target="_top" xlink:title=" ">
<polygon fill="white" stroke="#666666" points="1425,-96 1256,-96 1256,-55 1425,-55 1425,-96"/>
<text text-anchor="start" x="1264" y="-84" font-family="Helvetica,sans-Serif" font-size="10.00">Hermes/_base/WinApi</text>
<text text-anchor="start" x="1264" y="-73" font-family="Helvetica,sans-Serif" font-size="10.00">/Flags/InitializeSecurityContext</text>
<text text-anchor="middle" x="1340.5" y="-62" font-family="Helvetica,sans-Serif" font-size="10.00">Flags.hpp</text>
</a>
</g>
</g>
<!-- Node2&#45;&gt;Node24 -->
<g id="edge33_Node000002_Node000024" class="edge">
<title>Node2&#45;&gt;Node24</title>
<g id="a_edge33_Node000002_Node000024"><a xlink:title=" ">
<path fill="none" stroke="#63b8ff" d="M1340.5,-137.39C1340.5,-128.67 1340.5,-117.14 1340.5,-106.46"/>
<polygon fill="#63b8ff" stroke="#63b8ff" points="1344,-106.2 1340.5,-96.2 1337,-106.2 1344,-106.2"/>
</a>
</g>
</g>
<!-- Node25 -->
<g id="Node000025" class="node">
<title>Node25</title>
<g id="a_Node000025"><a xlink:href="_initialize_security_context_return_flags_8hpp.html" target="_top" xlink:title=" ">
<polygon fill="white" stroke="#666666" points="1612,-96 1443,-96 1443,-55 1612,-55 1612,-96"/>
<text text-anchor="start" x="1451" y="-84" font-family="Helvetica,sans-Serif" font-size="10.00">Hermes/_base/WinApi</text>
<text text-anchor="start" x="1451" y="-73" font-family="Helvetica,sans-Serif" font-size="10.00">/Flags/InitializeSecurityContext</text>
<text text-anchor="middle" x="1527.5" y="-62" font-family="Helvetica,sans-Serif" font-size="10.00">ReturnFlags.hpp</text>
</a>
</g>
</g>
<!-- Node2&#45;&gt;Node25 -->
<g id="edge35_Node000002_Node000025" class="edge">
<title>Node2&#45;&gt;Node25</title>
<g id="a_edge35_Node000002_Node000025"><a xlink:title=" ">
<path fill="none" stroke="#63b8ff" d="M1375.67,-137.39C1402.04,-126.82 1438.71,-112.11 1469.41,-99.8"/>
<polygon fill="#63b8ff" stroke="#63b8ff" points="1470.75,-103.03 1478.72,-96.06 1468.14,-96.54 1470.75,-103.03"/>
</a>
</g>
</g>
<!-- Node26 -->
<g id="Node000026" class="node">
<title>Node26</title>
<g id="a_Node000026"><a xlink:href="_accept_security_context_flags_8hpp.html" target="_top" xlink:title=" ">
<polygon fill="white" stroke="#666666" points="1790.5,-96 1630.5,-96 1630.5,-55 1790.5,-55 1790.5,-96"/>
<text text-anchor="start" x="1638.5" y="-84" font-family="Helvetica,sans-Serif" font-size="10.00">Hermes/_base/WinApi</text>
<text text-anchor="start" x="1638.5" y="-73" font-family="Helvetica,sans-Serif" font-size="10.00">/Flags/AcceptSecurityContext</text>
<text text-anchor="middle" x="1710.5" y="-62" font-family="Helvetica,sans-Serif" font-size="10.00">Flags.hpp</text>
</a>
</g>
</g>
<!-- Node2&#45;&gt;Node26 -->
<g id="edge37_Node000002_Node000026" class="edge">
<title>Node2&#45;&gt;Node26</title>
<g id="a_edge37_Node000002_Node000026"><a xlink:title=" ">
<path fill="none" stroke="#63b8ff" d="M1389.23,-137.44C1396.66,-135.5 1404.26,-133.61 1411.5,-132 1500.44,-112.17 1526.27,-113.84 1620.15,-96.01"/>
<polygon fill="#63b8ff" stroke="#63b8ff" points="1620.91,-99.43 1630.06,-94.11 1619.58,-92.56 1620.91,-99.43"/>
</a>
</g>
</g>
<!-- Node27 -->
<g id="Node000027" class="node">
<title>Node27</title>
<g id="a_Node000027"><a xlink:href="_accept_security_context_return_flags_8hpp.html" target="_top" xlink:title=" ">
<polygon fill="white" stroke="#666666" points="1968.5,-96 1808.5,-96 1808.5,-55 1968.5,-55 1968.5,-96"/>
<text text-anchor="start" x="1816.5" y="-84" font-family="Helvetica,sans-Serif" font-size="10.00">Hermes/_base/WinApi</text>
<text text-anchor="start" x="1816.5" y="-73" font-family="Helvetica,sans-Serif" font-size="10.00">/Flags/AcceptSecurityContext</text>
<text text-anchor="middle" x="1888.5" y="-62" font-family="Helvetica,sans-Serif" font-size="10.00">ReturnFlags.hpp</text>
</a>
</g>
</g>
<!-- Node2&#45;&gt;Node27 -->
<g id="edge39_Node000002_Node000027" class="edge">
<title>Node2&#45;&gt;Node27</title>
<g id="a_edge39_Node000002_Node000027"><a xlink:title=" ">
<path fill="none" stroke="#63b8ff" d="M1387.21,-137.42C1395.25,-135.36 1403.58,-133.44 1411.5,-132 1578.63,-101.54 1626.55,-121.78 1797.93,-96.14"/>
<polygon fill="#63b8ff" stroke="#63b8ff" points="1798.7,-99.56 1808.05,-94.59 1797.64,-92.64 1798.7,-99.56"/>
</a>
</g>
</g>
<!-- Node28 -->
<g id="Node000028" class="node">
<title>Node28</title>
<g id="a_Node000028"><a xlink:href="_s_channel_cred_flags_8hpp.html" target="_top" xlink:title=" ">
<polygon fill="white" stroke="#666666" points="289.5,-90.5 125.5,-90.5 125.5,-60.5 289.5,-60.5 289.5,-90.5"/>
<text text-anchor="start" x="133.5" y="-78.5" font-family="Helvetica,sans-Serif" font-size="10.00">Hermes/_base/WinApi</text>
<text text-anchor="middle" x="207.5" y="-67.5" font-family="Helvetica,sans-Serif" font-size="10.00">/Flags/SChannelCredFlags.hpp</text>
</a>
</g>
</g>
<!-- Node2&#45;&gt;Node28 -->
<g id="edge41_Node000002_Node000028" class="edge">
<title>Node2&#45;&gt;Node28</title>
<g id="a_edge41_Node000002_Node000028"><a xlink:title=" ">
<path fill="none" stroke="#63b8ff" d="M1278.26,-151.35C1116.72,-150.27 671.02,-142.9 303.5,-96 295.79,-95.02 287.77,-93.76 279.8,-92.37"/>
<polygon fill="#63b8ff" stroke="#63b8ff" points="280.23,-88.89 269.76,-90.53 278.97,-95.77 280.23,-88.89"/>
</a>
</g>
</g>
<!-- Node8 -->
<g id="Node000008" class="node">
<title>Node8</title>
<g id="a_Node000008"><a xlink:title=" ">
<polygon fill="#e0e0e0" stroke="#999999" points="2086.5,-19 2036.5,-19 2036.5,0 2086.5,0 2086.5,-19"/>
<text text-anchor="middle" x="2061.5" y="-7" font-family="Helvetica,sans-Serif" font-size="10.00">cstdint</text>
</a>
</g>
</g>
<!-- Node7&#45;&gt;Node8 -->
<g id="edge7_Node000007_Node000008" class="edge">
<title>Node7&#45;&gt;Node8</title>
<g id="a_edge7_Node000007_Node000008"><a xlink:title=" ">
<path fill="none" stroke="#63b8ff" d="M2061.5,-60.3C2061.5,-51.2 2061.5,-39.29 2061.5,-29.4"/>
<polygon fill="#63b8ff" stroke="#63b8ff" points="2065,-29.34 2061.5,-19.34 2058,-29.34 2065,-29.34"/>
</a>
</g>
</g>
<!-- Node9&#45;&gt;Node4 -->
<g id="edge10_Node000009_Node000004" class="edge">
<title>Node9&#45;&gt;Node4</title>
<g id="a_edge10_Node000009_Node000004"><a xlink:title=" ">
<path fill="none" stroke="#63b8ff" d="M734.13,-60.41C725.97,-58.35 717.53,-56.44 709.5,-55 623.81,-39.67 365.67,-20.86 260.18,-13.58"/>
<polygon fill="#63b8ff" stroke="#63b8ff" points="260.37,-10.08 250.16,-12.89 259.89,-17.07 260.37,-10.08"/>
</a>
</g>
</g>
<!-- Node9&#45;&gt;Node5 -->
<g id="edge11_Node000009_Node000005" class="edge">
<title>Node9&#45;&gt;Node5</title>
<g id="a_edge11_Node000009_Node000005"><a xlink:title=" ">
<path fill="none" stroke="#63b8ff" d="M732.49,-60.43C724.83,-58.47 716.98,-56.58 709.5,-55 623.12,-36.76 520.81,-22.87 463.4,-15.77"/>
<polygon fill="#63b8ff" stroke="#63b8ff" points="463.57,-12.26 453.22,-14.52 462.72,-19.21 463.57,-12.26"/>
</a>
</g>
</g>
<!-- Node9&#45;&gt;Node6 -->
<g id="edge12_Node000009_Node000006" class="edge">
<title>Node9&#45;&gt;Node6</title>
<g id="a_edge12_Node000009_Node000006"><a xlink:title=" ">
<path fill="none" stroke="#63b8ff" d="M832.39,-60.41C840.73,-58.39 849.33,-56.5 857.5,-55 990.54,-30.56 1151.42,-17.46 1219.51,-12.66"/>
<polygon fill="#63b8ff" stroke="#63b8ff" points="1219.89,-16.14 1229.63,-11.96 1219.41,-9.16 1219.89,-16.14"/>
</a>
</g>
</g>
<!-- Node10 -->
<g id="Node000010" class="node">
<title>Node10</title>
<g id="a_Node000010"><a xlink:title=" ">
<polygon fill="#e0e0e0" stroke="#999999" points="818,-19 745,-19 745,0 818,0 818,-19"/>
<text text-anchor="middle" x="781.5" y="-7" font-family="Helvetica,sans-Serif" font-size="10.00">string_view</text>
</a>
</g>
</g>
<!-- Node9&#45;&gt;Node10 -->
<g id="edge9_Node000009_Node000010" class="edge">
<title>Node9&#45;&gt;Node10</title>
<g id="a_edge9_Node000009_Node000010"><a xlink:title=" ">
<path fill="none" stroke="#63b8ff" d="M781.5,-60.3C781.5,-51.2 781.5,-39.29 781.5,-29.4"/>
<polygon fill="#63b8ff" stroke="#63b8ff" points="785,-29.34 781.5,-19.34 778,-29.34 785,-29.34"/>
</a>
</g>
</g>
<!-- Node12 -->
<g id="Node000012" class="node">
<title>Node12</title>
<g id="a_Node000012"><a xlink:title=" ">
<polygon fill="#e0e0e0" stroke="#999999" points="2381.5,-19 2321.5,-19 2321.5,0 2381.5,0 2381.5,-19"/>
<text text-anchor="middle" x="2351.5" y="-7" font-family="Helvetica,sans-Serif" font-size="10.00">ws2def.h</text>
</a>
</g>
</g>
<!-- Node11&#45;&gt;Node12 -->
<g id="edge14_Node000011_Node000012" class="edge">
<title>Node11&#45;&gt;Node12</title>
<g id="a_edge14_Node000011_Node000012"><a xlink:title=" ">
<path fill="none" stroke="#63b8ff" d="M2430.08,-60.3C2413.31,-49.67 2390.49,-35.2 2373.75,-24.6"/>
<polygon fill="#63b8ff" stroke="#63b8ff" points="2375.48,-21.55 2365.16,-19.16 2371.74,-27.47 2375.48,-21.55"/>
</a>
</g>
</g>
<!-- Node14 -->
<g id="Node000014" class="node">
<title>Node14</title>
<g id="a_Node000014"><a xlink:title=" ">
<polygon fill="#e0e0e0" stroke="#999999" points="2898.5,-19 2824.5,-19 2824.5,0 2898.5,0 2898.5,-19"/>
<text text-anchor="middle" x="2861.5" y="-7" font-family="Helvetica,sans-Serif" font-size="10.00">WinSock2.h</text>
</a>
</g>
</g>
<!-- Node13&#45;&gt;Node14 -->
<g id="edge16_Node000013_Node000014" class="edge">
<title>Node13&#45;&gt;Node14</title>
<g id="a_edge16_Node000013_Node000014"><a xlink:title=" ">
<path fill="none" stroke="#63b8ff" d="M2699.93,-60.45C2737.19,-48.93 2789.3,-32.82 2824.16,-22.04"/>
<polygon fill="#63b8ff" stroke="#63b8ff" points="2825.43,-25.32 2833.95,-19.02 2823.36,-18.63 2825.43,-25.32"/>
</a>
</g>
</g>
<!-- Node16 -->
<g id="Node000016" class="node">
<title>Node16</title>
<g id="a_Node000016"><a xlink:title=" ">
<polygon fill="#e0e0e0" stroke="#999999" points="3268,-19 3203,-19 3203,0 3268,0 3268,-19"/>
<text text-anchor="middle" x="3235.5" y="-7" font-family="Helvetica,sans-Serif" font-size="10.00">winerror.h</text>
</a>
</g>
</g>
<!-- Node15&#45;&gt;Node16 -->
<g id="edge18_Node000015_Node000016" class="edge">
<title>Node15&#45;&gt;Node16</title>
<g id="a_edge18_Node000015_Node000016"><a xlink:title=" ">
<path fill="none" stroke="#63b8ff" d="M3235.5,-60.3C3235.5,-51.2 3235.5,-39.29 3235.5,-29.4"/>
<polygon fill="#63b8ff" stroke="#63b8ff" points="3239,-29.34 3235.5,-19.34 3232,-29.34 3239,-29.34"/>
</a>
</g>
</g>
<!-- Node17&#45;&gt;Node12 -->
<g id="edge20_Node000017_Node000012" class="edge">
<title>Node17&#45;&gt;Node12</title>
<g id="a_edge20_Node000017_Node000012"><a xlink:title=" ">
<path fill="none" stroke="#63b8ff" d="M2272.92,-60.3C2289.69,-49.67 2312.51,-35.2 2329.25,-24.6"/>
<polygon fill="#63b8ff" stroke="#63b8ff" points="2331.26,-27.47 2337.84,-19.16 2327.52,-21.55 2331.26,-27.47"/>
</a>
</g>
</g>
<!-- Node18&#45;&gt;Node5 -->
<g id="edge22_Node000018_Node000005" class="edge">
<title>Node18&#45;&gt;Node5</title>
<g id="a_edge22_Node000018_Node000005"><a xlink:title=" ">
<path fill="none" stroke="#63b8ff" d="M418.5,-60.3C418.5,-51.2 418.5,-39.29 418.5,-29.4"/>
<polygon fill="#63b8ff" stroke="#63b8ff" points="422,-29.34 418.5,-19.34 415,-29.34 422,-29.34"/>
</a>
</g>
</g>
<!-- Node19&#45;&gt;Node6 -->
<g id="edge24_Node000019_Node000006" class="edge">
<title>Node19&#45;&gt;Node6</title>
<g id="a_edge24_Node000019_Node000006"><a xlink:title=" ">
<path fill="none" stroke="#63b8ff" d="M1044.87,-60.45C1098.68,-47.51 1176.57,-28.77 1220.04,-18.31"/>
<polygon fill="#63b8ff" stroke="#63b8ff" points="1220.9,-21.7 1229.8,-15.96 1219.26,-14.9 1220.9,-21.7"/>
</a>
</g>
</g>
<!-- Node20&#45;&gt;Node14 -->
<g id="edge26_Node000020_Node000014" class="edge">
<title>Node20&#45;&gt;Node14</title>
<g id="a_edge26_Node000020_Node000014"><a xlink:title=" ">
<path fill="none" stroke="#63b8ff" d="M2861.5,-60.3C2861.5,-51.2 2861.5,-39.29 2861.5,-29.4"/>
<polygon fill="#63b8ff" stroke="#63b8ff" points="2865,-29.34 2861.5,-19.34 2858,-29.34 2865,-29.34"/>
</a>
</g>
</g>
<!-- Node21&#45;&gt;Node14 -->
<g id="edge28_Node000021_Node000014" class="edge">
<title>Node21&#45;&gt;Node14</title>
<g id="a_edge28_Node000021_Node000014"><a xlink:title=" ">
<path fill="none" stroke="#63b8ff" d="M3009.8,-60.45C2975.9,-49.03 2928.59,-33.1 2896.6,-22.32"/>
<polygon fill="#63b8ff" stroke="#63b8ff" points="2897.38,-18.89 2886.79,-19.02 2895.15,-25.53 2897.38,-18.89"/>
</a>
</g>
</g>
<!-- Node22&#45;&gt;Node6 -->
<g id="edge30_Node000022_Node000006" class="edge">
<title>Node22&#45;&gt;Node6</title>
<g id="a_edge30_Node000022_Node000006"><a xlink:title=" ">
<path fill="none" stroke="#63b8ff" d="M1184.03,-60.3C1198.37,-49.87 1217.8,-35.74 1232.29,-25.19"/>
<polygon fill="#63b8ff" stroke="#63b8ff" points="1234.57,-27.87 1240.59,-19.16 1230.45,-22.21 1234.57,-27.87"/>
</a>
</g>
</g>
<!-- Node23&#45;&gt;Node5 -->
<g id="edge32_Node000023_Node000005" class="edge">
<title>Node23&#45;&gt;Node5</title>
<g id="a_edge32_Node000023_Node000005"><a xlink:title=" ">
<path fill="none" stroke="#63b8ff" d="M564.46,-60.45C531.09,-49.03 484.53,-33.1 453.04,-22.32"/>
<polygon fill="#63b8ff" stroke="#63b8ff" points="453.98,-18.94 443.39,-19.02 451.71,-25.57 453.98,-18.94"/>
</a>
</g>
</g>
<!-- Node24&#45;&gt;Node6 -->
<g id="edge34_Node000024_Node000006" class="edge">
<title>Node24&#45;&gt;Node6</title>
<g id="a_edge34_Node000024_Node000006"><a xlink:title=" ">
<path fill="none" stroke="#63b8ff" d="M1313.62,-54.95C1300.44,-45.37 1284.84,-34.02 1272.69,-25.19"/>
<polygon fill="#63b8ff" stroke="#63b8ff" points="1274.69,-22.31 1264.55,-19.26 1270.57,-27.97 1274.69,-22.31"/>
</a>
</g>
</g>
<!-- Node25&#45;&gt;Node6 -->
<g id="edge36_Node000025_Node000006" class="edge">
<title>Node25&#45;&gt;Node6</title>
<g id="a_edge36_Node000025_Node000006"><a xlink:title=" ">
<path fill="none" stroke="#63b8ff" d="M1443.5,-54.95C1390.22,-42.55 1324.25,-27.2 1285.43,-18.16"/>
<polygon fill="#63b8ff" stroke="#63b8ff" points="1285.77,-14.65 1275.23,-15.79 1284.18,-21.47 1285.77,-14.65"/>
</a>
</g>
</g>
<!-- Node26&#45;&gt;Node6 -->
<g id="edge38_Node000026_Node000006" class="edge">
<title>Node26&#45;&gt;Node6</title>
<g id="a_edge38_Node000026_Node000006"><a xlink:title=" ">
<path fill="none" stroke="#63b8ff" d="M1630.1,-56.69C1626.86,-56.1 1623.65,-55.53 1620.5,-55 1497.52,-34.29 1349.85,-19.43 1285.35,-13.44"/>
<polygon fill="#63b8ff" stroke="#63b8ff" points="1285.29,-9.92 1275.01,-12.49 1284.64,-16.89 1285.29,-9.92"/>
</a>
</g>
</g>
<!-- Node27&#45;&gt;Node6 -->
<g id="edge40_Node000027_Node000006" class="edge">
<title>Node27&#45;&gt;Node6</title>
<g id="a_edge40_Node000027_Node000006"><a xlink:title=" ">
<path fill="none" stroke="#63b8ff" d="M1808.06,-56.37C1805.18,-55.88 1802.32,-55.42 1799.5,-55 1605.66,-26.02 1370.16,-14.88 1285.1,-11.62"/>
<polygon fill="#63b8ff" stroke="#63b8ff" points="1285.15,-8.12 1275.03,-11.25 1284.89,-15.12 1285.15,-8.12"/>
</a>
</g>
</g>
<!-- Node28&#45;&gt;Node5 -->
<g id="edge42_Node000028_Node000005" class="edge">
<title>Node28&#45;&gt;Node5</title>
<g id="a_edge42_Node000028_Node000005"><a xlink:title=" ">
<path fill="none" stroke="#63b8ff" d="M253.8,-60.45C291.79,-48.93 344.9,-32.82 380.44,-22.04"/>
<polygon fill="#63b8ff" stroke="#63b8ff" points="381.87,-25.27 390.42,-19.02 379.83,-18.57 381.87,-25.27"/>
</a>
</g>
</g>
</g>
</svg>
