<?xml version="1.0" encoding="UTF-8" standalone="no"?>
<!DOCTYPE svg PUBLIC "-//W3C//DTD SVG 1.1//EN"
 "http://www.w3.org/Graphics/SVG/1.1/DTD/svg11.dtd">
<!-- Generated by graphviz version 2.43.0 (0)
 -->
<!-- Title: include/Hermes/Socket/Async/_base/ExecutionContext/FastIoExecutionContext.hpp Pages: 1 -->
<svg width="2262pt" height="258pt"
 viewBox="0.00 0.00 2261.61 258.00" xmlns="http://www.w3.org/2000/svg" xmlns:xlink="http://www.w3.org/1999/xlink">
<g id="graph0" class="graph" transform="scale(1 1) rotate(0) translate(4 254)">
<title>include/Hermes/Socket/Async/_base/ExecutionContext/FastIoExecutionContext.hpp</title>
<!-- Node1 -->
<g id="Node000001" class="node">
<title>Node1</title>
<g id="a_Node000001"><a xlink:title=" ">
<polygon fill="#999999" stroke="#666666" points="1146.11,-250 977.11,-250 977.11,-209 1146.11,-209 1146.11,-250"/>
<text text-anchor="start" x="985.11" y="-238" font-family="Helvetica,sans-Serif" font-size="10.00">include/Hermes/Socket</text>
<text text-anchor="start" x="985.11" y="-227" font-family="Helvetica,sans-Serif" font-size="10.00">/Async/_base/ExecutionContext</text>
<text text-anchor="middle" x="1061.61" y="-216" font-family="Helvetica,sans-Serif" font-size="10.00">/FastIoExecutionContext.hpp</text>
</a>
</g>
</g>
<!-- Node2 -->
<g id="Node000002" class="node">
<title>Node2</title>
<g id="a_Node000002"><a xlink:href="_os_api_8hpp.html" target="_top" xlink:title=" ">
<polygon fill="white" stroke="#666666" points="984.61,-167.5 866.61,-167.5 866.61,-137.5 984.61,-137.5 984.61,-167.5"/>
<text text-anchor="start" x="874.61" y="-155.5" font-family="Helvetica,sans-Serif" font-size="10.00">Hermes/_base/OsApi</text>
<text text-anchor="middle" x="925.61" y="-144.5" font-family="Helvetica,sans-Serif" font-size="10.00">/OsApi.hpp</text>
</a>
</g>
</g>
<!-- Node1&#45;&gt;Node2 -->
<g id="edge1_Node000001_Node000002" class="edge">
<title>Node1&#45;&gt;Node2</title>
<g id="a_edge1_Node000001_Node000002"><a xlink:title=" ">
<path fill="none" stroke="#63b8ff" d="M1026.23,-208.99C1005.89,-197.77 980.45,-183.74 960.24,-172.6"/>
<polygon fill="#63b8ff" stroke="#63b8ff" points="961.8,-169.46 951.36,-167.7 958.42,-175.59 961.8,-169.46"/>
</a>
</g>
</g>
<!-- Node21 -->
<g id="Node000021" class="node">
<title>Node21</title>
<g id="a_Node000021"><a xlink:title=" ">
<polygon fill="#e0e0e0" stroke="#999999" points="1050.61,-162 1002.61,-162 1002.61,-143 1050.61,-143 1050.61,-162"/>
<text text-anchor="middle" x="1026.61" y="-150" font-family="Helvetica,sans-Serif" font-size="10.00">thread</text>
</a>
</g>
</g>
<!-- Node1&#45;&gt;Node21 -->
<g id="edge27_Node000001_Node000021" class="edge">
<title>Node1&#45;&gt;Node21</title>
<g id="a_edge27_Node000001_Node000021"><a xlink:title=" ">
<path fill="none" stroke="#63b8ff" d="M1052.41,-208.79C1047.02,-197.23 1040.25,-182.73 1035,-171.48"/>
<polygon fill="#63b8ff" stroke="#63b8ff" points="1038.09,-169.82 1030.69,-162.24 1031.74,-172.78 1038.09,-169.82"/>
</a>
</g>
</g>
<!-- Node22 -->
<g id="Node000022" class="node">
<title>Node22</title>
<g id="a_Node000022"><a xlink:title=" ">
<polygon fill="#e0e0e0" stroke="#999999" points="1126.61,-162 1068.61,-162 1068.61,-143 1126.61,-143 1126.61,-162"/>
<text text-anchor="middle" x="1097.61" y="-150" font-family="Helvetica,sans-Serif" font-size="10.00">memory</text>
</a>
</g>
</g>
<!-- Node1&#45;&gt;Node22 -->
<g id="edge28_Node000001_Node000022" class="edge">
<title>Node1&#45;&gt;Node22</title>
<g id="a_edge28_Node000001_Node000022"><a xlink:title=" ">
<path fill="none" stroke="#63b8ff" d="M1071.07,-208.79C1076.62,-197.23 1083.58,-182.73 1088.98,-171.48"/>
<polygon fill="#63b8ff" stroke="#63b8ff" points="1092.24,-172.77 1093.42,-162.24 1085.93,-169.74 1092.24,-172.77"/>
</a>
</g>
</g>
<!-- Node23 -->
<g id="Node000023" class="node">
<title>Node23</title>
<g id="a_Node000023"><a xlink:title=" ">
<polygon fill="#e0e0e0" stroke="#999999" points="1296.61,-173 1144.61,-173 1144.61,-132 1296.61,-132 1296.61,-173"/>
<text text-anchor="start" x="1152.61" y="-161" font-family="Helvetica,sans-Serif" font-size="10.00">Hermes/Socket/Async</text>
<text text-anchor="start" x="1152.61" y="-150" font-family="Helvetica,sans-Serif" font-size="10.00">/_base/ExecutionContext</text>
<text text-anchor="middle" x="1220.61" y="-139" font-family="Helvetica,sans-Serif" font-size="10.00">/FastIoExecutionContext.tpp</text>
</a>
</g>
</g>
<!-- Node1&#45;&gt;Node23 -->
<g id="edge29_Node000001_Node000023" class="edge">
<title>Node1&#45;&gt;Node23</title>
<g id="a_edge29_Node000001_Node000023"><a xlink:title=" ">
<path fill="none" stroke="#63b8ff" d="M1102.97,-208.99C1123.5,-199.31 1148.48,-187.52 1170.13,-177.31"/>
<polygon fill="#63b8ff" stroke="#63b8ff" points="1171.63,-180.47 1179.18,-173.04 1168.64,-174.14 1171.63,-180.47"/>
</a>
</g>
</g>
<!-- Node3 -->
<g id="Node000003" class="node">
<title>Node3</title>
<g id="a_Node000003"><a xlink:title=" ">
<polygon fill="#e0e0e0" stroke="#999999" points="749.11,-19 672.11,-19 672.11,0 749.11,0 749.11,-19"/>
<text text-anchor="middle" x="710.61" y="-7" font-family="Helvetica,sans-Serif" font-size="10.00">sys/socket.h</text>
</a>
</g>
</g>
<!-- Node2&#45;&gt;Node3 -->
<g id="edge2_Node000002_Node000003" class="edge">
<title>Node2&#45;&gt;Node3</title>
<g id="a_edge2_Node000002_Node000003"><a xlink:title=" ">
<path fill="none" stroke="#63b8ff" d="M866.42,-150.23C822.62,-146.05 764.69,-133.16 729.61,-96 712.67,-78.06 709.57,-48.52 709.57,-29.29"/>
<polygon fill="#63b8ff" stroke="#63b8ff" points="713.08,-29.17 709.86,-19.08 706.08,-28.97 713.08,-29.17"/>
</a>
</g>
</g>
<!-- Node4 -->
<g id="Node000004" class="node">
<title>Node4</title>
<g id="a_Node000004"><a xlink:title=" ">
<polygon fill="#e0e0e0" stroke="#999999" points="149.61,-19 77.61,-19 77.61,0 149.61,0 149.61,-19"/>
<text text-anchor="middle" x="113.61" y="-7" font-family="Helvetica,sans-Serif" font-size="10.00">netinet/in.h</text>
</a>
</g>
</g>
<!-- Node2&#45;&gt;Node4 -->
<g id="edge3_Node000002_Node000004" class="edge">
<title>Node2&#45;&gt;Node4</title>
<g id="a_edge3_Node000002_Node000004"><a xlink:title=" ">
<path fill="none" stroke="#63b8ff" d="M866.57,-150.13C668.46,-145.25 38.07,-127.3 8.61,-96 -3.88,-82.73 -1.45,-70.19 8.61,-55 21.79,-35.1 45.83,-24.08 67.59,-17.98"/>
<polygon fill="#63b8ff" stroke="#63b8ff" points="68.54,-21.35 77.38,-15.51 66.83,-14.56 68.54,-21.35"/>
</a>
</g>
</g>
<!-- Node5 -->
<g id="Node000005" class="node">
<title>Node5</title>
<g id="a_Node000005"><a xlink:title=" ">
<polygon fill="#e0e0e0" stroke="#999999" points="296.11,-85 227.11,-85 227.11,-66 296.11,-66 296.11,-85"/>
<text text-anchor="middle" x="261.61" y="-73" font-family="Helvetica,sans-Serif" font-size="10.00">arpa/inet.h</text>
</a>
</g>
</g>
<!-- Node2&#45;&gt;Node5 -->
<g id="edge4_Node000002_Node000005" class="edge">
<title>Node2&#45;&gt;Node5</title>
<g id="a_edge4_Node000002_Node000005"><a xlink:title=" ">
<path fill="none" stroke="#63b8ff" d="M866.36,-148.67C732.6,-141.88 410.69,-123.19 305.61,-96 299.39,-94.39 292.94,-91.99 286.95,-89.42"/>
<polygon fill="#63b8ff" stroke="#63b8ff" points="288,-86.04 277.45,-85.04 285.07,-92.4 288,-86.04"/>
</a>
</g>
</g>
<!-- Node6 -->
<g id="Node000006" class="node">
<title>Node6</title>
<g id="a_Node000006"><a xlink:title=" ">
<polygon fill="#e0e0e0" stroke="#999999" points="1284.11,-19 1231.11,-19 1231.11,0 1284.11,0 1284.11,-19"/>
<text text-anchor="middle" x="1257.61" y="-7" font-family="Helvetica,sans-Serif" font-size="10.00">netdb.h</text>
</a>
</g>
</g>
<!-- Node2&#45;&gt;Node6 -->
<g id="edge5_Node000002_Node000006" class="edge">
<title>Node2&#45;&gt;Node6</title>
<g id="a_edge5_Node000002_Node000006"><a xlink:title=" ">
<path fill="none" stroke="#63b8ff" d="M970.72,-137.49C978.31,-135.44 986.15,-133.52 993.61,-132 1058.33,-118.86 1244.83,-145.45 1288.61,-96 1306.22,-76.11 1287.29,-45.44 1272.25,-26.74"/>
<polygon fill="#63b8ff" stroke="#63b8ff" points="1274.89,-24.45 1265.76,-19.08 1269.55,-28.97 1274.89,-24.45"/>
</a>
</g>
</g>
<!-- Node7 -->
<g id="Node000007" class="node">
<title>Node7</title>
<g id="a_Node000007"><a xlink:title=" ">
<polygon fill="#e0e0e0" stroke="#999999" points="506.61,-85 450.61,-85 450.61,-66 506.61,-66 506.61,-85"/>
<text text-anchor="middle" x="478.61" y="-73" font-family="Helvetica,sans-Serif" font-size="10.00">unistd.h</text>
</a>
</g>
</g>
<!-- Node2&#45;&gt;Node7 -->
<g id="edge6_Node000002_Node000007" class="edge">
<title>Node2&#45;&gt;Node7</title>
<g id="a_edge6_Node000002_Node000007"><a xlink:title=" ">
<path fill="none" stroke="#63b8ff" d="M866.27,-150.17C785.01,-146.86 635.43,-135.41 514.61,-96 510,-94.5 505.29,-92.41 500.86,-90.16"/>
<polygon fill="#63b8ff" stroke="#63b8ff" points="502.21,-86.9 491.76,-85.12 498.82,-93.03 502.21,-86.9"/>
</a>
</g>
</g>
<!-- Node8 -->
<g id="Node000008" class="node">
<title>Node8</title>
<g id="a_Node000008"><a xlink:href="_conversion_and_literals_8hpp.html" target="_top" xlink:title=" ">
<polygon fill="white" stroke="#666666" points="1655.61,-90.5 1505.61,-90.5 1505.61,-60.5 1655.61,-60.5 1655.61,-90.5"/>
<text text-anchor="start" x="1513.61" y="-78.5" font-family="Helvetica,sans-Serif" font-size="10.00">Hermes/_base/OsApi</text>
<text text-anchor="middle" x="1580.61" y="-67.5" font-family="Helvetica,sans-Serif" font-size="10.00">/ConversionAndLiterals.hpp</text>
</a>
</g>
</g>
<!-- Node2&#45;&gt;Node8 -->
<g id="edge7_Node000002_Node000008" class="edge">
<title>Node2&#45;&gt;Node8</title>
<g id="a_edge7_Node000002_Node000008"><a xlink:title=" ">
<path fill="none" stroke="#63b8ff" d="M969.56,-137.46C977.5,-135.34 985.75,-133.39 993.61,-132 1214.3,-92.9 1274.99,-129.44 1496.61,-96 1502.83,-95.06 1509.26,-93.91 1515.68,-92.63"/>
<polygon fill="#63b8ff" stroke="#63b8ff" points="1516.64,-96.01 1525.72,-90.54 1515.22,-89.15 1516.64,-96.01"/>
</a>
</g>
</g>
<!-- Node10 -->
<g id="Node000010" class="node">
<title>Node10</title>
<g id="a_Node000010"><a xlink:href="_macros_8hpp.html" target="_top" xlink:title=" ">
<polygon fill="white" stroke="#666666" points="432.61,-90.5 314.61,-90.5 314.61,-60.5 432.61,-60.5 432.61,-90.5"/>
<text text-anchor="start" x="322.61" y="-78.5" font-family="Helvetica,sans-Serif" font-size="10.00">Hermes/_base/OsApi</text>
<text text-anchor="middle" x="373.61" y="-67.5" font-family="Helvetica,sans-Serif" font-size="10.00">/Macros.hpp</text>
</a>
</g>
</g>
<!-- Node2&#45;&gt;Node10 -->
<g id="edge9_Node000002_Node000010" class="edge">
<title>Node2&#45;&gt;Node10</title>
<g id="a_edge9_Node000002_Node000010"><a xlink:title=" ">
<path fill="none" stroke="#63b8ff" d="M866.26,-147.86C774.51,-141.53 592.99,-126.17 441.61,-96 437.29,-95.14 432.85,-94.14 428.4,-93.05"/>
<polygon fill="#63b8ff" stroke="#63b8ff" points="429.27,-89.66 418.71,-90.56 427.52,-96.44 429.27,-89.66"/>
</a>
</g>
</g>
<!-- Node12 -->
<g id="Node000012" class="node">
<title>Node12</title>
<g id="a_Node000012"><a xlink:href="_address_family_enum_8hpp.html" target="_top" xlink:title=" ">
<polygon fill="white" stroke="#666666" points="914.61,-90.5 738.61,-90.5 738.61,-60.5 914.61,-60.5 914.61,-90.5"/>
<text text-anchor="start" x="746.61" y="-78.5" font-family="Helvetica,sans-Serif" font-size="10.00">Hermes/_base/OsApi</text>
<text text-anchor="middle" x="826.61" y="-67.5" font-family="Helvetica,sans-Serif" font-size="10.00">/Enums/AddressFamilyEnum.hpp</text>
</a>
</g>
</g>
<!-- Node2&#45;&gt;Node12 -->
<g id="edge13_Node000002_Node000012" class="edge">
<title>Node2&#45;&gt;Node12</title>
<g id="a_edge13_Node000002_Node000012"><a xlink:title=" ">
<path fill="none" stroke="#63b8ff" d="M906.99,-137.39C891.92,-125.97 870.48,-109.74 853.54,-96.9"/>
<polygon fill="#63b8ff" stroke="#63b8ff" points="855.23,-93.79 845.15,-90.54 851,-99.37 855.23,-93.79"/>
</a>
</g>
</g>
<!-- Node13 -->
<g id="Node000013" class="node">
<title>Node13</title>
<g id="a_Node000013"><a xlink:href="_protocol_base_type_enum_8hpp.html" target="_top" xlink:title=" ">
<polygon fill="white" stroke="#666666" points="209.11,-90.5 18.11,-90.5 18.11,-60.5 209.11,-60.5 209.11,-90.5"/>
<text text-anchor="start" x="26.11" y="-78.5" font-family="Helvetica,sans-Serif" font-size="10.00">Hermes/_base/OsApi</text>
<text text-anchor="middle" x="113.61" y="-67.5" font-family="Helvetica,sans-Serif" font-size="10.00">/Enums/ProtocolBaseTypeEnum.hpp</text>
</a>
</g>
</g>
<!-- Node2&#45;&gt;Node13 -->
<g id="edge15_Node000002_Node000013" class="edge">
<title>Node2&#45;&gt;Node13</title>
<g id="a_edge15_Node000002_Node000013"><a xlink:title=" ">
<path fill="none" stroke="#63b8ff" d="M866.18,-148.99C744.19,-143.38 456.86,-127.71 217.61,-96 209.58,-94.94 201.24,-93.66 192.92,-92.28"/>
<polygon fill="#63b8ff" stroke="#63b8ff" points="193.26,-88.78 182.81,-90.54 192.08,-95.68 193.26,-88.78"/>
</a>
</g>
</g>
<!-- Node14 -->
<g id="Node000014" class="node">
<title>Node14</title>
<g id="a_Node000014"><a xlink:href="_socket_shutdown_enum_8hpp.html" target="_top" xlink:title=" ">
<polygon fill="white" stroke="#666666" points="1117.11,-90.5 932.11,-90.5 932.11,-60.5 1117.11,-60.5 1117.11,-90.5"/>
<text text-anchor="start" x="940.11" y="-78.5" font-family="Helvetica,sans-Serif" font-size="10.00">Hermes/_base/OsApi</text>
<text text-anchor="middle" x="1024.61" y="-67.5" font-family="Helvetica,sans-Serif" font-size="10.00">/Enums/SocketShutdownEnum.hpp</text>
</a>
</g>
</g>
<!-- Node2&#45;&gt;Node14 -->
<g id="edge17_Node000002_Node000014" class="edge">
<title>Node2&#45;&gt;Node14</title>
<g id="a_edge17_Node000002_Node000014"><a xlink:title=" ">
<path fill="none" stroke="#63b8ff" d="M944.23,-137.39C959.3,-125.97 980.73,-109.74 997.68,-96.9"/>
<polygon fill="#63b8ff" stroke="#63b8ff" points="1000.21,-99.37 1006.07,-90.54 995.99,-93.79 1000.21,-99.37"/>
</a>
</g>
</g>
<!-- Node15 -->
<g id="Node000015" class="node">
<title>Node15</title>
<g id="a_Node000015"><a xlink:href="_socket_type_enum_8hpp.html" target="_top" xlink:title=" ">
<polygon fill="white" stroke="#666666" points="683.11,-90.5 524.11,-90.5 524.11,-60.5 683.11,-60.5 683.11,-90.5"/>
<text text-anchor="start" x="532.11" y="-78.5" font-family="Helvetica,sans-Serif" font-size="10.00">Hermes/_base/OsApi</text>
<text text-anchor="middle" x="603.61" y="-67.5" font-family="Helvetica,sans-Serif" font-size="10.00">/Enums/SocketTypeEnum.hpp</text>
</a>
</g>
</g>
<!-- Node2&#45;&gt;Node15 -->
<g id="edge19_Node000002_Node000015" class="edge">
<title>Node2&#45;&gt;Node15</title>
<g id="a_edge19_Node000002_Node000015"><a xlink:title=" ">
<path fill="none" stroke="#63b8ff" d="M866.55,-137.74C812.14,-125.07 731.35,-106.25 673.7,-92.82"/>
<polygon fill="#63b8ff" stroke="#63b8ff" points="674.47,-89.41 663.93,-90.55 672.88,-96.23 674.47,-89.41"/>
</a>
</g>
</g>
<!-- Node16 -->
<g id="Node000016" class="node">
<title>Node16</title>
<g id="a_Node000016"><a xlink:title=" ">
<polygon fill="#e0e0e0" stroke="#999999" points="1487.61,-96 1335.61,-96 1335.61,-55 1487.61,-55 1487.61,-96"/>
<text text-anchor="start" x="1343.61" y="-84" font-family="Helvetica,sans-Serif" font-size="10.00">Hermes/_base/OsApi</text>
<text text-anchor="start" x="1343.61" y="-73" font-family="Helvetica,sans-Serif" font-size="10.00">/Enums/Linux/EncryptStatus</text>
<text text-anchor="middle" x="1411.61" y="-62" font-family="Helvetica,sans-Serif" font-size="10.00">Enum.hpp</text>
</a>
</g>
</g>
<!-- Node2&#45;&gt;Node16 -->
<g id="edge21_Node000002_Node000016" class="edge">
<title>Node2&#45;&gt;Node16</title>
<g id="a_edge21_Node000002_Node000016"><a xlink:title=" ">
<path fill="none" stroke="#63b8ff" d="M970.7,-137.41C978.3,-135.37 986.14,-133.47 993.61,-132 1137.5,-103.69 1176.86,-119.56 1321.61,-96 1322.9,-95.79 1324.19,-95.57 1325.5,-95.35"/>
<polygon fill="#63b8ff" stroke="#63b8ff" points="1326.38,-98.75 1335.61,-93.55 1325.15,-91.86 1326.38,-98.75"/>
</a>
</g>
</g>
<!-- Node17 -->
<g id="Node000017" class="node">
<title>Node17</title>
<g id="a_Node000017"><a xlink:href="_name_info_flags_8hpp.html" target="_top" xlink:title=" ">
<polygon fill="white" stroke="#666666" points="1279.61,-90.5 1135.61,-90.5 1135.61,-60.5 1279.61,-60.5 1279.61,-90.5"/>
<text text-anchor="start" x="1143.61" y="-78.5" font-family="Helvetica,sans-Serif" font-size="10.00">Hermes/_base/OsApi</text>
<text text-anchor="middle" x="1207.61" y="-67.5" font-family="Helvetica,sans-Serif" font-size="10.00">/Flags/NameInfoFlags.hpp</text>
</a>
</g>
</g>
<!-- Node2&#45;&gt;Node17 -->
<g id="edge22_Node000002_Node000017" class="edge">
<title>Node2&#45;&gt;Node17</title>
<g id="a_edge22_Node000002_Node000017"><a xlink:title=" ">
<path fill="none" stroke="#63b8ff" d="M973.86,-137.5C980.49,-135.62 987.21,-133.75 993.61,-132 1043.14,-118.48 1099.34,-103.93 1141.72,-93.13"/>
<polygon fill="#63b8ff" stroke="#63b8ff" points="1142.81,-96.46 1151.63,-90.6 1141.08,-89.68 1142.81,-96.46"/>
</a>
</g>
</g>
<!-- Node18 -->
<g id="Node000018" class="node">
<title>Node18</title>
<g id="a_Node000018"><a xlink:title=" ">
<polygon fill="#e0e0e0" stroke="#999999" points="1849.61,-90.5 1673.61,-90.5 1673.61,-60.5 1849.61,-60.5 1849.61,-90.5"/>
<text text-anchor="start" x="1681.61" y="-78.5" font-family="Helvetica,sans-Serif" font-size="10.00">Hermes/_base/OsApi</text>
<text text-anchor="middle" x="1761.61" y="-67.5" font-family="Helvetica,sans-Serif" font-size="10.00">/Flags/Linux/CredentialFlags.hpp</text>
</a>
</g>
</g>
<!-- Node2&#45;&gt;Node18 -->
<g id="edge24_Node000002_Node000018" class="edge">
<title>Node2&#45;&gt;Node18</title>
<g id="a_edge24_Node000002_Node000018"><a xlink:title=" ">
<path fill="none" stroke="#63b8ff" d="M969.17,-137.44C977.22,-135.29 985.61,-133.34 993.61,-132 1288.13,-82.52 1368.32,-133.53 1664.61,-96 1672.48,-95 1680.68,-93.73 1688.81,-92.31"/>
<polygon fill="#63b8ff" stroke="#63b8ff" points="1689.48,-95.75 1698.69,-90.52 1688.23,-88.86 1689.48,-95.75"/>
</a>
</g>
</g>
<!-- Node19 -->
<g id="Node000019" class="node">
<title>Node19</title>
<g id="a_Node000019"><a xlink:title=" ">
<polygon fill="#e0e0e0" stroke="#999999" points="2041.11,-96 1868.11,-96 1868.11,-55 2041.11,-55 2041.11,-96"/>
<text text-anchor="start" x="1876.11" y="-84" font-family="Helvetica,sans-Serif" font-size="10.00">Hermes/_base/OsApi</text>
<text text-anchor="start" x="1876.11" y="-73" font-family="Helvetica,sans-Serif" font-size="10.00">/Flags/Linux/SupportedProtocols</text>
<text text-anchor="middle" x="1954.61" y="-62" font-family="Helvetica,sans-Serif" font-size="10.00">Flags.hpp</text>
</a>
</g>
</g>
<!-- Node2&#45;&gt;Node19 -->
<g id="edge25_Node000002_Node000019" class="edge">
<title>Node2&#45;&gt;Node19</title>
<g id="a_edge25_Node000002_Node000019"><a xlink:title=" ">
<path fill="none" stroke="#63b8ff" d="M968.79,-137.46C976.96,-135.28 985.49,-133.31 993.61,-132 1370.2,-71.06 1474.86,-141.22 1858.13,-95.93"/>
<polygon fill="#63b8ff" stroke="#63b8ff" points="1858.59,-99.4 1868.1,-94.73 1857.76,-92.45 1858.59,-99.4"/>
</a>
</g>
</g>
<!-- Node20 -->
<g id="Node000020" class="node">
<title>Node20</title>
<g id="a_Node000020"><a xlink:title=" ">
<polygon fill="#e0e0e0" stroke="#999999" points="2253.61,-90.5 2059.61,-90.5 2059.61,-60.5 2253.61,-60.5 2253.61,-90.5"/>
<text text-anchor="start" x="2067.61" y="-78.5" font-family="Helvetica,sans-Serif" font-size="10.00">Hermes/_base/OsApi</text>
<text text-anchor="middle" x="2156.61" y="-67.5" font-family="Helvetica,sans-Serif" font-size="10.00">/Flags/Linux/SChannelCredFlags.hpp</text>
</a>
</g>
</g>
<!-- Node2&#45;&gt;Node20 -->
<g id="edge26_Node000002_Node000020" class="edge">
<title>Node2&#45;&gt;Node20</title>
<g id="a_edge26_Node000002_Node000020"><a xlink:title=" ">
<path fill="none" stroke="#63b8ff" d="M968.78,-137.41C976.95,-135.23 985.48,-133.28 993.61,-132 1457.9,-58.66 1583.3,-146.66 2050.61,-96 2059.69,-95.02 2069.17,-93.7 2078.56,-92.21"/>
<polygon fill="#63b8ff" stroke="#63b8ff" points="2079.39,-95.62 2088.69,-90.53 2078.25,-88.71 2079.39,-95.62"/>
</a>
</g>
</g>
<!-- Node9 -->
<g id="Node000009" class="node">
<title>Node9</title>
<g id="a_Node000009"><a xlink:title=" ">
<polygon fill="#e0e0e0" stroke="#999999" points="1605.61,-19 1555.61,-19 1555.61,0 1605.61,0 1605.61,-19"/>
<text text-anchor="middle" x="1580.61" y="-7" font-family="Helvetica,sans-Serif" font-size="10.00">cstdint</text>
</a>
</g>
</g>
<!-- Node8&#45;&gt;Node9 -->
<g id="edge8_Node000008_Node000009" class="edge">
<title>Node8&#45;&gt;Node9</title>
<g id="a_edge8_Node000008_Node000009"><a xlink:title=" ">
<path fill="none" stroke="#63b8ff" d="M1580.61,-60.3C1580.61,-51.2 1580.61,-39.29 1580.61,-29.4"/>
<polygon fill="#63b8ff" stroke="#63b8ff" points="1584.11,-29.34 1580.61,-19.34 1577.11,-29.34 1584.11,-29.34"/>
</a>
</g>
</g>
<!-- Node10&#45;&gt;Node3 -->
<g id="edge11_Node000010_Node000003" class="edge">
<title>Node10&#45;&gt;Node3</title>
<g id="a_edge11_Node000010_Node000003"><a xlink:title=" ">
<path fill="none" stroke="#63b8ff" d="M419.88,-60.46C427.12,-58.49 434.54,-56.59 441.61,-55 517.96,-37.8 607.9,-24.25 662.02,-16.82"/>
<polygon fill="#63b8ff" stroke="#63b8ff" points="662.59,-20.27 672.03,-15.46 661.65,-13.34 662.59,-20.27"/>
</a>
</g>
</g>
<!-- Node10&#45;&gt;Node4 -->
<g id="edge12_Node000010_Node000004" class="edge">
<title>Node10&#45;&gt;Node4</title>
<g id="a_edge12_Node000010_Node000004"><a xlink:title=" ">
<path fill="none" stroke="#63b8ff" d="M325.06,-60.47C318.2,-58.58 311.24,-56.71 304.61,-55 255.27,-42.29 198.36,-29.23 159.58,-20.58"/>
<polygon fill="#63b8ff" stroke="#63b8ff" points="160.16,-17.12 149.64,-18.37 158.64,-23.96 160.16,-17.12"/>
</a>
</g>
</g>
<!-- Node11 -->
<g id="Node000011" class="node">
<title>Node11</title>
<g id="a_Node000011"><a xlink:title=" ">
<polygon fill="#e0e0e0" stroke="#999999" points="410.11,-19 337.11,-19 337.11,0 410.11,0 410.11,-19"/>
<text text-anchor="middle" x="373.61" y="-7" font-family="Helvetica,sans-Serif" font-size="10.00">string_view</text>
</a>
</g>
</g>
<!-- Node10&#45;&gt;Node11 -->
<g id="edge10_Node000010_Node000011" class="edge">
<title>Node10&#45;&gt;Node11</title>
<g id="a_edge10_Node000010_Node000011"><a xlink:title=" ">
<path fill="none" stroke="#63b8ff" d="M373.61,-60.3C373.61,-51.2 373.61,-39.29 373.61,-29.4"/>
<polygon fill="#63b8ff" stroke="#63b8ff" points="377.11,-29.34 373.61,-19.34 370.11,-29.34 377.11,-29.34"/>
</a>
</g>
</g>
<!-- Node12&#45;&gt;Node3 -->
<g id="edge14_Node000012_Node000003" class="edge">
<title>Node12&#45;&gt;Node3</title>
<g id="a_edge14_Node000012_Node000003"><a xlink:title=" ">
<path fill="none" stroke="#63b8ff" d="M801.15,-60.45C781.44,-49.58 754.3,-34.61 734.89,-23.9"/>
<polygon fill="#63b8ff" stroke="#63b8ff" points="736.49,-20.78 726.05,-19.02 733.11,-26.91 736.49,-20.78"/>
</a>
</g>
</g>
<!-- Node13&#45;&gt;Node4 -->
<g id="edge16_Node000013_Node000004" class="edge">
<title>Node13&#45;&gt;Node4</title>
<g id="a_edge16_Node000013_Node000004"><a xlink:title=" ">
<path fill="none" stroke="#63b8ff" d="M113.61,-60.3C113.61,-51.2 113.61,-39.29 113.61,-29.4"/>
<polygon fill="#63b8ff" stroke="#63b8ff" points="117.11,-29.34 113.61,-19.34 110.11,-29.34 117.11,-29.34"/>
</a>
</g>
</g>
<!-- Node14&#45;&gt;Node3 -->
<g id="edge18_Node000014_Node000003" class="edge">
<title>Node14&#45;&gt;Node3</title>
<g id="a_edge18_Node000014_Node000003"><a xlink:title=" ">
<path fill="none" stroke="#63b8ff" d="M955.7,-60.45C896.29,-48.35 812.01,-31.17 759.37,-20.44"/>
<polygon fill="#63b8ff" stroke="#63b8ff" points="759.77,-16.95 749.27,-18.38 758.37,-23.81 759.77,-16.95"/>
</a>
</g>
</g>
<!-- Node15&#45;&gt;Node3 -->
<g id="edge20_Node000015_Node000003" class="edge">
<title>Node15&#45;&gt;Node3</title>
<g id="a_edge20_Node000015_Node000003"><a xlink:title=" ">
<path fill="none" stroke="#63b8ff" d="M627.09,-60.45C645.11,-49.68 669.85,-34.88 687.72,-24.19"/>
<polygon fill="#63b8ff" stroke="#63b8ff" points="689.58,-27.15 696.37,-19.02 685.99,-21.15 689.58,-27.15"/>
</a>
</g>
</g>
<!-- Node17&#45;&gt;Node6 -->
<g id="edge23_Node000017_Node000006" class="edge">
<title>Node17&#45;&gt;Node6</title>
<g id="a_edge23_Node000017_Node000006"><a xlink:title=" ">
<path fill="none" stroke="#63b8ff" d="M1218.71,-60.3C1226.27,-50.61 1236.33,-37.74 1244.32,-27.51"/>
<polygon fill="#63b8ff" stroke="#63b8ff" points="1247.3,-29.38 1250.7,-19.34 1241.78,-25.07 1247.3,-29.38"/>
</a>
</g>
</g>
</g>
</svg>
