<?xml version="1.0" encoding="UTF-8" standalone="no"?>
<!DOCTYPE svg PUBLIC "-//W3C//DTD SVG 1.1//EN"
 "http://www.w3.org/Graphics/SVG/1.1/DTD/svg11.dtd">
<!-- Generated by graphviz version 2.43.0 (0)
 -->
<!-- Title: include/Hermes/Socket/Async/_base/ExecutionContext/FastIoExecutionContext.hpp Pages: 1 -->
<svg width="3398pt" height="258pt"
 viewBox="0.00 0.00 3397.50 258.00" xmlns="http://www.w3.org/2000/svg" xmlns:xlink="http://www.w3.org/1999/xlink">
<g id="graph0" class="graph" transform="scale(1 1) rotate(0) translate(4 254)">
<title>include/Hermes/Socket/Async/_base/ExecutionContext/FastIoExecutionContext.hpp</title>
<!-- Node1 -->
<g id="Node000001" class="node">
<title>Node1</title>
<g id="a_Node000001"><a xlink:title=" ">
<polygon fill="#999999" stroke="#666666" points="1737,-250 1568,-250 1568,-209 1737,-209 1737,-250"/>
<text text-anchor="start" x="1576" y="-238" font-family="Helvetica,sans-Serif" font-size="10.00">include/Hermes/Socket</text>
<text text-anchor="start" x="1576" y="-227" font-family="Helvetica,sans-Serif" font-size="10.00">/Async/_base/ExecutionContext</text>
<text text-anchor="middle" x="1652.5" y="-216" font-family="Helvetica,sans-Serif" font-size="10.00">/FastIoExecutionContext.hpp</text>
</a>
</g>
</g>
<!-- Node2 -->
<g id="Node000002" class="node">
<title>Node2</title>
<g id="a_Node000002"><a xlink:href="_win_api_8hpp.html" target="_top" xlink:title=" ">
<polygon fill="white" stroke="#666666" points="1610.5,-167.5 1486.5,-167.5 1486.5,-137.5 1610.5,-137.5 1610.5,-167.5"/>
<text text-anchor="start" x="1494.5" y="-155.5" font-family="Helvetica,sans-Serif" font-size="10.00">Hermes/_base/WinApi</text>
<text text-anchor="middle" x="1548.5" y="-144.5" font-family="Helvetica,sans-Serif" font-size="10.00">/WinApi.hpp</text>
</a>
</g>
</g>
<!-- Node1&#45;&gt;Node2 -->
<g id="edge1_Node000001_Node000002" class="edge">
<title>Node1&#45;&gt;Node2</title>
<g id="a_edge1_Node000001_Node000002"><a xlink:title=" ">
<path fill="none" stroke="#63b8ff" d="M1625.45,-208.99C1610.45,-198.18 1591.84,-184.75 1576.67,-173.81"/>
<polygon fill="#63b8ff" stroke="#63b8ff" points="1578.35,-170.71 1568.19,-167.7 1574.25,-176.39 1578.35,-170.71"/>
</a>
</g>
</g>
<!-- Node30 -->
<g id="Node000030" class="node">
<title>Node30</title>
<g id="a_Node000030"><a xlink:title=" ">
<polygon fill="#e0e0e0" stroke="#999999" points="1676.5,-162 1628.5,-162 1628.5,-143 1676.5,-143 1676.5,-162"/>
<text text-anchor="middle" x="1652.5" y="-150" font-family="Helvetica,sans-Serif" font-size="10.00">thread</text>
</a>
</g>
</g>
<!-- Node1&#45;&gt;Node30 -->
<g id="edge44_Node000001_Node000030" class="edge">
<title>Node1&#45;&gt;Node30</title>
<g id="a_edge44_Node000001_Node000030"><a xlink:title=" ">
<path fill="none" stroke="#63b8ff" d="M1652.5,-208.79C1652.5,-197.59 1652.5,-183.61 1652.5,-172.52"/>
<polygon fill="#63b8ff" stroke="#63b8ff" points="1656,-172.24 1652.5,-162.24 1649,-172.24 1656,-172.24"/>
</a>
</g>
</g>
<!-- Node31 -->
<g id="Node000031" class="node">
<title>Node31</title>
<g id="a_Node000031"><a xlink:title=" ">
<polygon fill="#e0e0e0" stroke="#999999" points="1846.5,-173 1694.5,-173 1694.5,-132 1846.5,-132 1846.5,-173"/>
<text text-anchor="start" x="1702.5" y="-161" font-family="Helvetica,sans-Serif" font-size="10.00">Hermes/Socket/Async</text>
<text text-anchor="start" x="1702.5" y="-150" font-family="Helvetica,sans-Serif" font-size="10.00">/_base/ExecutionContext</text>
<text text-anchor="middle" x="1770.5" y="-139" font-family="Helvetica,sans-Serif" font-size="10.00">/FastIoExecutionContext.tpp</text>
</a>
</g>
</g>
<!-- Node1&#45;&gt;Node31 -->
<g id="edge45_Node000001_Node000031" class="edge">
<title>Node1&#45;&gt;Node31</title>
<g id="a_edge45_Node000001_Node000031"><a xlink:title=" ">
<path fill="none" stroke="#63b8ff" d="M1683.2,-208.99C1697.69,-199.77 1715.18,-188.66 1730.69,-178.81"/>
<polygon fill="#63b8ff" stroke="#63b8ff" points="1732.99,-181.49 1739.55,-173.17 1729.23,-175.58 1732.99,-181.49"/>
</a>
</g>
</g>
<!-- Node3 -->
<g id="Node000003" class="node">
<title>Node3</title>
<g id="a_Node000003"><a xlink:title=" ">
<polygon fill="#e0e0e0" stroke="#999999" points="69,-85 0,-85 0,-66 69,-66 69,-85"/>
<text text-anchor="middle" x="34.5" y="-73" font-family="Helvetica,sans-Serif" font-size="10.00">ws2tcpip.h</text>
</a>
</g>
</g>
<!-- Node2&#45;&gt;Node3 -->
<g id="edge2_Node000002_Node000003" class="edge">
<title>Node2&#45;&gt;Node3</title>
<g id="a_edge2_Node000002_Node000003"><a xlink:title=" ">
<path fill="none" stroke="#63b8ff" d="M1486.4,-151.95C1243.49,-153.27 357.58,-153.93 83.5,-96 75.99,-94.41 68.14,-91.77 60.98,-88.94"/>
<polygon fill="#63b8ff" stroke="#63b8ff" points="62.31,-85.7 51.74,-85.04 59.59,-92.15 62.31,-85.7"/>
</a>
</g>
</g>
<!-- Node4 -->
<g id="Node000004" class="node">
<title>Node4</title>
<g id="a_Node000004"><a xlink:title=" ">
<polygon fill="#e0e0e0" stroke="#999999" points="304,-19 233,-19 233,0 304,0 304,-19"/>
<text text-anchor="middle" x="268.5" y="-7" font-family="Helvetica,sans-Serif" font-size="10.00">winsock2.h</text>
</a>
</g>
</g>
<!-- Node2&#45;&gt;Node4 -->
<g id="edge3_Node000002_Node000004" class="edge">
<title>Node2&#45;&gt;Node4</title>
<g id="a_edge3_Node000002_Node000004"><a xlink:title=" ">
<path fill="none" stroke="#63b8ff" d="M1486.1,-151.46C1216.68,-151 164.61,-146.01 116.5,-96 103.87,-82.87 105.57,-69.58 116.5,-55 129.35,-37.84 182.94,-25.08 222.87,-17.72"/>
<polygon fill="#63b8ff" stroke="#63b8ff" points="223.72,-21.12 232.95,-15.92 222.49,-14.23 223.72,-21.12"/>
</a>
</g>
</g>
<!-- Node5 -->
<g id="Node000005" class="node">
<title>Node5</title>
<g id="a_Node000005"><a xlink:title=" ">
<polygon fill="#e0e0e0" stroke="#999999" points="2036.5,-85 1986.5,-85 1986.5,-66 2036.5,-66 2036.5,-85"/>
<text text-anchor="middle" x="2011.5" y="-73" font-family="Helvetica,sans-Serif" font-size="10.00">ntdef.h</text>
</a>
</g>
</g>
<!-- Node2&#45;&gt;Node5 -->
<g id="edge4_Node000002_Node000005" class="edge">
<title>Node2&#45;&gt;Node5</title>
<g id="a_edge4_Node000002_Node000005"><a xlink:title=" ">
<path fill="none" stroke="#63b8ff" d="M1595.22,-137.48C1603.26,-135.4 1611.58,-133.47 1619.5,-132 1776.71,-102.72 1825.23,-144.86 1977.5,-96 1982,-94.56 1986.55,-92.47 1990.8,-90.18"/>
<polygon fill="#63b8ff" stroke="#63b8ff" points="1992.66,-93.15 1999.49,-85.05 1989.1,-87.12 1992.66,-93.15"/>
</a>
</g>
</g>
<!-- Node6 -->
<g id="Node000006" class="node">
<title>Node6</title>
<g id="a_Node000006"><a xlink:title=" ">
<polygon fill="#e0e0e0" stroke="#999999" points="562,-19 493,-19 493,0 562,0 562,-19"/>
<text text-anchor="middle" x="527.5" y="-7" font-family="Helvetica,sans-Serif" font-size="10.00">schannel.h</text>
</a>
</g>
</g>
<!-- Node2&#45;&gt;Node6 -->
<g id="edge5_Node000002_Node000006" class="edge">
<title>Node2&#45;&gt;Node6</title>
<g id="a_edge5_Node000002_Node000006"><a xlink:title=" ">
<path fill="none" stroke="#63b8ff" d="M1486.49,-150.11C1273.44,-145.09 582.43,-126.49 546.5,-96 527.42,-79.8 525.02,-49.09 525.74,-29.22"/>
<polygon fill="#63b8ff" stroke="#63b8ff" points="529.23,-29.42 526.4,-19.21 522.25,-28.96 529.23,-29.42"/>
</a>
</g>
</g>
<!-- Node7 -->
<g id="Node000007" class="node">
<title>Node7</title>
<g id="a_Node000007"><a xlink:title=" ">
<polygon fill="#e0e0e0" stroke="#999999" points="1428,-19 1383,-19 1383,0 1428,0 1428,-19"/>
<text text-anchor="middle" x="1405.5" y="-7" font-family="Helvetica,sans-Serif" font-size="10.00">sspi.h</text>
</a>
</g>
</g>
<!-- Node2&#45;&gt;Node7 -->
<g id="edge6_Node000002_Node000007" class="edge">
<title>Node2&#45;&gt;Node7</title>
<g id="a_edge6_Node000002_Node000007"><a xlink:title=" ">
<path fill="none" stroke="#63b8ff" d="M1561.42,-137.39C1578.2,-117.31 1603.13,-80.14 1583.5,-55 1565.81,-32.35 1484.62,-19.52 1438.24,-13.92"/>
<polygon fill="#63b8ff" stroke="#63b8ff" points="1438.42,-10.42 1428.08,-12.74 1437.61,-17.37 1438.42,-10.42"/>
</a>
</g>
</g>
<!-- Node8 -->
<g id="Node000008" class="node">
<title>Node8</title>
<g id="a_Node000008"><a xlink:href="_conversion_and_literals_8hpp.html" target="_top" xlink:title=" ">
<polygon fill="white" stroke="#666666" points="2204.5,-90.5 2054.5,-90.5 2054.5,-60.5 2204.5,-60.5 2204.5,-90.5"/>
<text text-anchor="start" x="2062.5" y="-78.5" font-family="Helvetica,sans-Serif" font-size="10.00">Hermes/_base/WinApi</text>
<text text-anchor="middle" x="2129.5" y="-67.5" font-family="Helvetica,sans-Serif" font-size="10.00">/ConversionAndLiterals.hpp</text>
</a>
</g>
</g>
<!-- Node2&#45;&gt;Node8 -->
<g id="edge7_Node000002_Node000008" class="edge">
<title>Node2&#45;&gt;Node8</title>
<g id="a_edge7_Node000002_Node000008"><a xlink:title=" ">
<path fill="none" stroke="#63b8ff" d="M1594.81,-137.47C1602.98,-135.37 1611.45,-133.43 1619.5,-132 1806.57,-98.7 1857.81,-125.56 2045.5,-96 2051.61,-95.04 2057.94,-93.88 2064.26,-92.61"/>
<polygon fill="#63b8ff" stroke="#63b8ff" points="2065.07,-96.01 2074.14,-90.54 2063.64,-89.16 2065.07,-96.01"/>
</a>
</g>
</g>
<!-- Node10 -->
<g id="Node000010" class="node">
<title>Node10</title>
<g id="a_Node000010"><a xlink:href="_macros_8hpp.html" target="_top" xlink:title=" ">
<polygon fill="white" stroke="#666666" points="843.5,-90.5 719.5,-90.5 719.5,-60.5 843.5,-60.5 843.5,-90.5"/>
<text text-anchor="start" x="727.5" y="-78.5" font-family="Helvetica,sans-Serif" font-size="10.00">Hermes/_base/WinApi</text>
<text text-anchor="middle" x="781.5" y="-67.5" font-family="Helvetica,sans-Serif" font-size="10.00">/Macros.hpp</text>
</a>
</g>
</g>
<!-- Node2&#45;&gt;Node10 -->
<g id="edge9_Node000002_Node000010" class="edge">
<title>Node2&#45;&gt;Node10</title>
<g id="a_edge9_Node000002_Node000010"><a xlink:title=" ">
<path fill="none" stroke="#63b8ff" d="M1486.09,-150.46C1363.67,-147.54 1083.82,-136.61 852.5,-96 847.72,-95.16 842.79,-94.14 837.86,-93.01"/>
<polygon fill="#63b8ff" stroke="#63b8ff" points="838.35,-89.53 827.81,-90.57 836.7,-96.33 838.35,-89.53"/>
</a>
</g>
</g>
<!-- Node12 -->
<g id="Node000012" class="node">
<title>Node12</title>
<g id="a_Node000012"><a xlink:href="_address_family_enum_8hpp.html" target="_top" xlink:title=" ">
<polygon fill="white" stroke="#666666" points="2398.5,-90.5 2222.5,-90.5 2222.5,-60.5 2398.5,-60.5 2398.5,-90.5"/>
<text text-anchor="start" x="2230.5" y="-78.5" font-family="Helvetica,sans-Serif" font-size="10.00">Hermes/_base/WinApi</text>
<text text-anchor="middle" x="2310.5" y="-67.5" font-family="Helvetica,sans-Serif" font-size="10.00">/Enums/AddressFamilyEnum.hpp</text>
</a>
</g>
</g>
<!-- Node2&#45;&gt;Node12 -->
<g id="edge14_Node000002_Node000012" class="edge">
<title>Node2&#45;&gt;Node12</title>
<g id="a_edge14_Node000002_Node000012"><a xlink:title=" ">
<path fill="none" stroke="#63b8ff" d="M1594.4,-137.4C1602.69,-135.28 1611.3,-133.36 1619.5,-132 1880.42,-88.74 1951.23,-130.14 2213.5,-96 2221.22,-94.99 2229.26,-93.73 2237.25,-92.34"/>
<polygon fill="#63b8ff" stroke="#63b8ff" points="2238.1,-95.74 2247.31,-90.51 2236.85,-88.85 2238.1,-95.74"/>
</a>
</g>
</g>
<!-- Node14 -->
<g id="Node000014" class="node">
<title>Node14</title>
<g id="a_Node000014"><a xlink:href="_condition_function_enum_8hpp.html" target="_top" xlink:title=" ">
<polygon fill="white" stroke="#666666" points="2818.5,-90.5 2626.5,-90.5 2626.5,-60.5 2818.5,-60.5 2818.5,-90.5"/>
<text text-anchor="start" x="2634.5" y="-78.5" font-family="Helvetica,sans-Serif" font-size="10.00">Hermes/_base/WinApi</text>
<text text-anchor="middle" x="2722.5" y="-67.5" font-family="Helvetica,sans-Serif" font-size="10.00">/Enums/ConditionFunctionEnum.hpp</text>
</a>
</g>
</g>
<!-- Node2&#45;&gt;Node14 -->
<g id="edge16_Node000002_Node000014" class="edge">
<title>Node2&#45;&gt;Node14</title>
<g id="a_edge16_Node000002_Node000014"><a xlink:title=" ">
<path fill="none" stroke="#63b8ff" d="M1593.61,-137.43C1602.14,-135.25 1611.03,-133.3 1619.5,-132 2057.78,-64.83 2175.73,-144.24 2616.5,-96 2625.58,-95.01 2635.06,-93.68 2644.45,-92.19"/>
<polygon fill="#63b8ff" stroke="#63b8ff" points="2645.28,-95.6 2654.58,-90.51 2644.14,-88.69 2645.28,-95.6"/>
</a>
</g>
</g>
<!-- Node16 -->
<g id="Node000016" class="node">
<title>Node16</title>
<g id="a_Node000016"><a xlink:href="_encrypt_status_enum_8hpp.html" target="_top" xlink:title=" ">
<polygon fill="white" stroke="#666666" points="3389.5,-90.5 3217.5,-90.5 3217.5,-60.5 3389.5,-60.5 3389.5,-90.5"/>
<text text-anchor="start" x="3225.5" y="-78.5" font-family="Helvetica,sans-Serif" font-size="10.00">Hermes/_base/WinApi</text>
<text text-anchor="middle" x="3303.5" y="-67.5" font-family="Helvetica,sans-Serif" font-size="10.00">/Enums/EncryptStatusEnum.hpp</text>
</a>
</g>
</g>
<!-- Node2&#45;&gt;Node16 -->
<g id="edge18_Node000002_Node000016" class="edge">
<title>Node2&#45;&gt;Node16</title>
<g id="a_edge18_Node000002_Node000016"><a xlink:title=" ">
<path fill="none" stroke="#63b8ff" d="M1593.22,-137.43C1601.86,-135.23 1610.9,-133.26 1619.5,-132 1968.76,-80.87 2856.71,-135.29 3207.5,-96 3215.76,-95.07 3224.37,-93.79 3232.88,-92.32"/>
<polygon fill="#63b8ff" stroke="#63b8ff" points="3233.6,-95.75 3242.82,-90.52 3232.35,-88.86 3233.6,-95.75"/>
</a>
</g>
</g>
<!-- Node18 -->
<g id="Node000018" class="node">
<title>Node18</title>
<g id="a_Node000018"><a xlink:href="_protocol_base_type_enum_8hpp.html" target="_top" xlink:title=" ">
<polygon fill="white" stroke="#666666" points="2608,-90.5 2417,-90.5 2417,-60.5 2608,-60.5 2608,-90.5"/>
<text text-anchor="start" x="2425" y="-78.5" font-family="Helvetica,sans-Serif" font-size="10.00">Hermes/_base/WinApi</text>
<text text-anchor="middle" x="2512.5" y="-67.5" font-family="Helvetica,sans-Serif" font-size="10.00">/Enums/ProtocolBaseTypeEnum.hpp</text>
</a>
</g>
</g>
<!-- Node2&#45;&gt;Node18 -->
<g id="edge20_Node000002_Node000018" class="edge">
<title>Node2&#45;&gt;Node18</title>
<g id="a_edge20_Node000002_Node000018"><a xlink:title=" ">
<path fill="none" stroke="#63b8ff" d="M1593.62,-137.5C1602.15,-135.31 1611.04,-133.34 1619.5,-132 1965.78,-77.24 2059.21,-136.1 2407.5,-96 2416.36,-94.98 2425.6,-93.65 2434.76,-92.17"/>
<polygon fill="#63b8ff" stroke="#63b8ff" points="2435.36,-95.62 2444.65,-90.52 2434.2,-88.72 2435.36,-95.62"/>
</a>
</g>
</g>
<!-- Node19 -->
<g id="Node000019" class="node">
<title>Node19</title>
<g id="a_Node000019"><a xlink:href="_s_ch_cred_enum_8hpp.html" target="_top" xlink:title=" ">
<polygon fill="white" stroke="#666666" points="701.5,-90.5 555.5,-90.5 555.5,-60.5 701.5,-60.5 701.5,-90.5"/>
<text text-anchor="start" x="563.5" y="-78.5" font-family="Helvetica,sans-Serif" font-size="10.00">Hermes/_base/WinApi</text>
<text text-anchor="middle" x="628.5" y="-67.5" font-family="Helvetica,sans-Serif" font-size="10.00">/Enums/SChCredEnum.hpp</text>
</a>
</g>
</g>
<!-- Node2&#45;&gt;Node19 -->
<g id="edge22_Node000002_Node000019" class="edge">
<title>Node2&#45;&gt;Node19</title>
<g id="a_edge22_Node000002_Node000019"><a xlink:title=" ">
<path fill="none" stroke="#63b8ff" d="M1486.35,-150.93C1346.82,-148.88 998.3,-139.44 710.5,-96 704.42,-95.08 698.13,-93.94 691.86,-92.67"/>
<polygon fill="#63b8ff" stroke="#63b8ff" points="692.57,-89.25 682.06,-90.59 691.12,-96.09 692.57,-89.25"/>
</a>
</g>
</g>
<!-- Node20 -->
<g id="Node000020" class="node">
<title>Node20</title>
<g id="a_Node000020"><a xlink:href="_security_buffer_enum_8hpp.html" target="_top" xlink:title=" ">
<polygon fill="white" stroke="#666666" points="1804,-90.5 1631,-90.5 1631,-60.5 1804,-60.5 1804,-90.5"/>
<text text-anchor="start" x="1639" y="-78.5" font-family="Helvetica,sans-Serif" font-size="10.00">Hermes/_base/WinApi</text>
<text text-anchor="middle" x="1717.5" y="-67.5" font-family="Helvetica,sans-Serif" font-size="10.00">/Enums/SecurityBufferEnum.hpp</text>
</a>
</g>
</g>
<!-- Node2&#45;&gt;Node20 -->
<g id="edge24_Node000002_Node000020" class="edge">
<title>Node2&#45;&gt;Node20</title>
<g id="a_edge24_Node000002_Node000020"><a xlink:title=" ">
<path fill="none" stroke="#63b8ff" d="M1580.29,-137.39C1607.55,-125.29 1647.01,-107.78 1676.62,-94.64"/>
<polygon fill="#63b8ff" stroke="#63b8ff" points="1678.13,-97.8 1685.85,-90.54 1675.29,-91.4 1678.13,-97.8"/>
</a>
</g>
</g>
<!-- Node21 -->
<g id="Node000021" class="node">
<title>Node21</title>
<g id="a_Node000021"><a xlink:href="_socket_shutdown_enum_8hpp.html" target="_top" xlink:title=" ">
<polygon fill="white" stroke="#666666" points="3022,-90.5 2837,-90.5 2837,-60.5 3022,-60.5 3022,-90.5"/>
<text text-anchor="start" x="2845" y="-78.5" font-family="Helvetica,sans-Serif" font-size="10.00">Hermes/_base/WinApi</text>
<text text-anchor="middle" x="2929.5" y="-67.5" font-family="Helvetica,sans-Serif" font-size="10.00">/Enums/SocketShutdownEnum.hpp</text>
</a>
</g>
</g>
<!-- Node2&#45;&gt;Node21 -->
<g id="edge26_Node000002_Node000021" class="edge">
<title>Node2&#45;&gt;Node21</title>
<g id="a_edge26_Node000002_Node000021"><a xlink:title=" ">
<path fill="none" stroke="#63b8ff" d="M1593.22,-137.48C1601.86,-135.27 1610.9,-133.29 1619.5,-132 2150.68,-52.31 2293.58,-154.62 2827.5,-96 2836.22,-95.04 2845.32,-93.74 2854.33,-92.27"/>
<polygon fill="#63b8ff" stroke="#63b8ff" points="2855.17,-95.67 2864.44,-90.54 2853.99,-88.78 2855.17,-95.67"/>
</a>
</g>
</g>
<!-- Node22 -->
<g id="Node000022" class="node">
<title>Node22</title>
<g id="a_Node000022"><a xlink:href="_socket_type_enum_8hpp.html" target="_top" xlink:title=" ">
<polygon fill="white" stroke="#666666" points="3199,-90.5 3040,-90.5 3040,-60.5 3199,-60.5 3199,-90.5"/>
<text text-anchor="start" x="3048" y="-78.5" font-family="Helvetica,sans-Serif" font-size="10.00">Hermes/_base/WinApi</text>
<text text-anchor="middle" x="3119.5" y="-67.5" font-family="Helvetica,sans-Serif" font-size="10.00">/Enums/SocketTypeEnum.hpp</text>
</a>
</g>
</g>
<!-- Node2&#45;&gt;Node22 -->
<g id="edge28_Node000002_Node000022" class="edge">
<title>Node2&#45;&gt;Node22</title>
<g id="a_edge28_Node000002_Node000022"><a xlink:title=" ">
<path fill="none" stroke="#63b8ff" d="M1593.22,-137.45C1601.86,-135.24 1610.9,-133.27 1619.5,-132 2240.07,-40.26 2407.74,-171.47 3030.5,-96 3037.92,-95.1 3045.64,-93.87 3053.29,-92.46"/>
<polygon fill="#63b8ff" stroke="#63b8ff" points="3054.13,-95.86 3063.28,-90.51 3052.79,-88.99 3054.13,-95.86"/>
</a>
</g>
</g>
<!-- Node23 -->
<g id="Node000023" class="node">
<title>Node23</title>
<g id="a_Node000023"><a xlink:href="_credential_flags_8hpp.html" target="_top" xlink:title=" ">
<polygon fill="white" stroke="#666666" points="1968.5,-90.5 1822.5,-90.5 1822.5,-60.5 1968.5,-60.5 1968.5,-90.5"/>
<text text-anchor="start" x="1830.5" y="-78.5" font-family="Helvetica,sans-Serif" font-size="10.00">Hermes/_base/WinApi</text>
<text text-anchor="middle" x="1895.5" y="-67.5" font-family="Helvetica,sans-Serif" font-size="10.00">/Flags/CredentialFlags.hpp</text>
</a>
</g>
</g>
<!-- Node2&#45;&gt;Node23 -->
<g id="edge30_Node000002_Node000023" class="edge">
<title>Node2&#45;&gt;Node23</title>
<g id="a_edge30_Node000002_Node000023"><a xlink:title=" ">
<path fill="none" stroke="#63b8ff" d="M1597.64,-137.43C1604.94,-135.51 1612.4,-133.63 1619.5,-132 1704.53,-112.43 1727.12,-113.98 1812.5,-96 1817.23,-95 1822.1,-93.94 1827.01,-92.85"/>
<polygon fill="#63b8ff" stroke="#63b8ff" points="1828.09,-96.2 1837.08,-90.58 1826.56,-89.37 1828.09,-96.2"/>
</a>
</g>
</g>
<!-- Node24 -->
<g id="Node000024" class="node">
<title>Node24</title>
<g id="a_Node000024"><a xlink:href="_supported_protocols_flags_8hpp.html" target="_top" xlink:title=" ">
<polygon fill="white" stroke="#666666" points="317,-90.5 126,-90.5 126,-60.5 317,-60.5 317,-90.5"/>
<text text-anchor="start" x="134" y="-78.5" font-family="Helvetica,sans-Serif" font-size="10.00">Hermes/_base/WinApi</text>
<text text-anchor="middle" x="221.5" y="-67.5" font-family="Helvetica,sans-Serif" font-size="10.00">/Flags/SupportedProtocolsFlags.hpp</text>
</a>
</g>
</g>
<!-- Node2&#45;&gt;Node24 -->
<g id="edge32_Node000002_Node000024" class="edge">
<title>Node2&#45;&gt;Node24</title>
<g id="a_edge32_Node000002_Node000024"><a xlink:title=" ">
<path fill="none" stroke="#63b8ff" d="M1486.27,-151.7C1306.1,-151.64 768.77,-146.86 326.5,-96 317.64,-94.98 308.4,-93.66 299.24,-92.18"/>
<polygon fill="#63b8ff" stroke="#63b8ff" points="299.8,-88.72 289.35,-90.52 298.64,-95.62 299.8,-88.72"/>
</a>
</g>
</g>
<!-- Node25 -->
<g id="Node000025" class="node">
<title>Node25</title>
<g id="a_Node000025"><a xlink:href="_initialize_security_context_flags_8hpp.html" target="_top" xlink:title=" ">
<polygon fill="white" stroke="#666666" points="1031,-96 862,-96 862,-55 1031,-55 1031,-96"/>
<text text-anchor="start" x="870" y="-84" font-family="Helvetica,sans-Serif" font-size="10.00">Hermes/_base/WinApi</text>
<text text-anchor="start" x="870" y="-73" font-family="Helvetica,sans-Serif" font-size="10.00">/Flags/InitializeSecurityContext</text>
<text text-anchor="middle" x="946.5" y="-62" font-family="Helvetica,sans-Serif" font-size="10.00">Flags.hpp</text>
</a>
</g>
</g>
<!-- Node2&#45;&gt;Node25 -->
<g id="edge34_Node000002_Node000025" class="edge">
<title>Node2&#45;&gt;Node25</title>
<g id="a_edge34_Node000002_Node000025"><a xlink:title=" ">
<path fill="none" stroke="#63b8ff" d="M1486.34,-146.7C1392.06,-138.98 1207.12,-122.14 1040.99,-96.17"/>
<polygon fill="#63b8ff" stroke="#63b8ff" points="1041.51,-92.7 1031.08,-94.6 1040.41,-99.62 1041.51,-92.7"/>
</a>
</g>
</g>
<!-- Node26 -->
<g id="Node000026" class="node">
<title>Node26</title>
<g id="a_Node000026"><a xlink:href="_initialize_security_context_return_flags_8hpp.html" target="_top" xlink:title=" ">
<polygon fill="white" stroke="#666666" points="1218,-96 1049,-96 1049,-55 1218,-55 1218,-96"/>
<text text-anchor="start" x="1057" y="-84" font-family="Helvetica,sans-Serif" font-size="10.00">Hermes/_base/WinApi</text>
<text text-anchor="start" x="1057" y="-73" font-family="Helvetica,sans-Serif" font-size="10.00">/Flags/InitializeSecurityContext</text>
<text text-anchor="middle" x="1133.5" y="-62" font-family="Helvetica,sans-Serif" font-size="10.00">ReturnFlags.hpp</text>
</a>
</g>
</g>
<!-- Node2&#45;&gt;Node26 -->
<g id="edge36_Node000002_Node000026" class="edge">
<title>Node2&#45;&gt;Node26</title>
<g id="a_edge36_Node000002_Node000026"><a xlink:title=" ">
<path fill="none" stroke="#63b8ff" d="M1486.25,-141.37C1423.65,-131.04 1324.11,-114.22 1227.92,-96.05"/>
<polygon fill="#63b8ff" stroke="#63b8ff" points="1228.5,-92.6 1218.02,-94.17 1227.2,-99.47 1228.5,-92.6"/>
</a>
</g>
</g>
<!-- Node27 -->
<g id="Node000027" class="node">
<title>Node27</title>
<g id="a_Node000027"><a xlink:href="_accept_security_context_flags_8hpp.html" target="_top" xlink:title=" ">
<polygon fill="white" stroke="#666666" points="1396.5,-96 1236.5,-96 1236.5,-55 1396.5,-55 1396.5,-96"/>
<text text-anchor="start" x="1244.5" y="-84" font-family="Helvetica,sans-Serif" font-size="10.00">Hermes/_base/WinApi</text>
<text text-anchor="start" x="1244.5" y="-73" font-family="Helvetica,sans-Serif" font-size="10.00">/Flags/AcceptSecurityContext</text>
<text text-anchor="middle" x="1316.5" y="-62" font-family="Helvetica,sans-Serif" font-size="10.00">Flags.hpp</text>
</a>
</g>
</g>
<!-- Node2&#45;&gt;Node27 -->
<g id="edge38_Node000002_Node000027" class="edge">
<title>Node2&#45;&gt;Node27</title>
<g id="a_edge38_Node000002_Node000027"><a xlink:title=" ">
<path fill="none" stroke="#63b8ff" d="M1505.13,-137.48C1471.89,-126.73 1425.32,-111.68 1386.77,-99.22"/>
<polygon fill="#63b8ff" stroke="#63b8ff" points="1387.74,-95.85 1377.15,-96.11 1385.59,-102.51 1387.74,-95.85"/>
</a>
</g>
</g>
<!-- Node28 -->
<g id="Node000028" class="node">
<title>Node28</title>
<g id="a_Node000028"><a xlink:href="_accept_security_context_return_flags_8hpp.html" target="_top" xlink:title=" ">
<polygon fill="white" stroke="#666666" points="1574.5,-96 1414.5,-96 1414.5,-55 1574.5,-55 1574.5,-96"/>
<text text-anchor="start" x="1422.5" y="-84" font-family="Helvetica,sans-Serif" font-size="10.00">Hermes/_base/WinApi</text>
<text text-anchor="start" x="1422.5" y="-73" font-family="Helvetica,sans-Serif" font-size="10.00">/Flags/AcceptSecurityContext</text>
<text text-anchor="middle" x="1494.5" y="-62" font-family="Helvetica,sans-Serif" font-size="10.00">ReturnFlags.hpp</text>
</a>
</g>
</g>
<!-- Node2&#45;&gt;Node28 -->
<g id="edge40_Node000002_Node000028" class="edge">
<title>Node2&#45;&gt;Node28</title>
<g id="a_edge40_Node000002_Node000028"><a xlink:title=" ">
<path fill="none" stroke="#63b8ff" d="M1538.34,-137.39C1531.67,-128.13 1522.72,-115.69 1514.64,-104.47"/>
<polygon fill="#63b8ff" stroke="#63b8ff" points="1517.37,-102.27 1508.69,-96.2 1511.69,-106.36 1517.37,-102.27"/>
</a>
</g>
</g>
<!-- Node29 -->
<g id="Node000029" class="node">
<title>Node29</title>
<g id="a_Node000029"><a xlink:href="_s_channel_cred_flags_8hpp.html" target="_top" xlink:title=" ">
<polygon fill="white" stroke="#666666" points="499.5,-90.5 335.5,-90.5 335.5,-60.5 499.5,-60.5 499.5,-90.5"/>
<text text-anchor="start" x="343.5" y="-78.5" font-family="Helvetica,sans-Serif" font-size="10.00">Hermes/_base/WinApi</text>
<text text-anchor="middle" x="417.5" y="-67.5" font-family="Helvetica,sans-Serif" font-size="10.00">/Flags/SChannelCredFlags.hpp</text>
</a>
</g>
</g>
<!-- Node2&#45;&gt;Node29 -->
<g id="edge42_Node000002_Node000029" class="edge">
<title>Node2&#45;&gt;Node29</title>
<g id="a_edge42_Node000002_Node000029"><a xlink:title=" ">
<path fill="none" stroke="#63b8ff" d="M1486.38,-151.34C1325.15,-150.24 880.31,-142.83 513.5,-96 505.79,-95.02 497.77,-93.76 489.8,-92.36"/>
<polygon fill="#63b8ff" stroke="#63b8ff" points="490.23,-88.88 479.76,-90.53 488.97,-95.77 490.23,-88.88"/>
</a>
</g>
</g>
<!-- Node9 -->
<g id="Node000009" class="node">
<title>Node9</title>
<g id="a_Node000009"><a xlink:title=" ">
<polygon fill="#e0e0e0" stroke="#999999" points="2154.5,-19 2104.5,-19 2104.5,0 2154.5,0 2154.5,-19"/>
<text text-anchor="middle" x="2129.5" y="-7" font-family="Helvetica,sans-Serif" font-size="10.00">cstdint</text>
</a>
</g>
</g>
<!-- Node8&#45;&gt;Node9 -->
<g id="edge8_Node000008_Node000009" class="edge">
<title>Node8&#45;&gt;Node9</title>
<g id="a_edge8_Node000008_Node000009"><a xlink:title=" ">
<path fill="none" stroke="#63b8ff" d="M2129.5,-60.3C2129.5,-51.2 2129.5,-39.29 2129.5,-29.4"/>
<polygon fill="#63b8ff" stroke="#63b8ff" points="2133,-29.34 2129.5,-19.34 2126,-29.34 2133,-29.34"/>
</a>
</g>
</g>
<!-- Node10&#45;&gt;Node4 -->
<g id="edge11_Node000010_Node000004" class="edge">
<title>Node10&#45;&gt;Node4</title>
<g id="a_edge11_Node000010_Node000004"><a xlink:title=" ">
<path fill="none" stroke="#63b8ff" d="M734.78,-60.48C726.74,-58.4 718.42,-56.47 710.5,-55 567.37,-28.34 394.99,-16.8 314.32,-12.58"/>
<polygon fill="#63b8ff" stroke="#63b8ff" points="314.19,-9.07 304.02,-12.05 313.83,-16.06 314.19,-9.07"/>
</a>
</g>
</g>
<!-- Node10&#45;&gt;Node6 -->
<g id="edge12_Node000010_Node000006" class="edge">
<title>Node10&#45;&gt;Node6</title>
<g id="a_edge12_Node000010_Node000006"><a xlink:title=" ">
<path fill="none" stroke="#63b8ff" d="M731.13,-60.47C724.2,-58.6 717.18,-56.73 710.5,-55 663.48,-42.83 609.42,-29.8 572.31,-21.01"/>
<polygon fill="#63b8ff" stroke="#63b8ff" points="572.86,-17.54 562.32,-18.64 571.24,-24.35 572.86,-17.54"/>
</a>
</g>
</g>
<!-- Node10&#45;&gt;Node7 -->
<g id="edge13_Node000010_Node000007" class="edge">
<title>Node10&#45;&gt;Node7</title>
<g id="a_edge13_Node000010_Node000007"><a xlink:title=" ">
<path fill="none" stroke="#63b8ff" d="M827.81,-60.44C835.98,-58.35 844.44,-56.42 852.5,-55 1047.86,-20.63 1286.78,-12.76 1372.74,-11"/>
<polygon fill="#63b8ff" stroke="#63b8ff" points="1372.99,-14.49 1382.92,-10.8 1372.86,-7.49 1372.99,-14.49"/>
</a>
</g>
</g>
<!-- Node11 -->
<g id="Node000011" class="node">
<title>Node11</title>
<g id="a_Node000011"><a xlink:title=" ">
<polygon fill="#e0e0e0" stroke="#999999" points="818,-19 745,-19 745,0 818,0 818,-19"/>
<text text-anchor="middle" x="781.5" y="-7" font-family="Helvetica,sans-Serif" font-size="10.00">string_view</text>
</a>
</g>
</g>
<!-- Node10&#45;&gt;Node11 -->
<g id="edge10_Node000010_Node000011" class="edge">
<title>Node10&#45;&gt;Node11</title>
<g id="a_edge10_Node000010_Node000011"><a xlink:title=" ">
<path fill="none" stroke="#63b8ff" d="M781.5,-60.3C781.5,-51.2 781.5,-39.29 781.5,-29.4"/>
<polygon fill="#63b8ff" stroke="#63b8ff" points="785,-29.34 781.5,-19.34 778,-29.34 785,-29.34"/>
</a>
</g>
</g>
<!-- Node13 -->
<g id="Node000013" class="node">
<title>Node13</title>
<g id="a_Node000013"><a xlink:title=" ">
<polygon fill="#e0e0e0" stroke="#999999" points="2441.5,-19 2381.5,-19 2381.5,0 2441.5,0 2441.5,-19"/>
<text text-anchor="middle" x="2411.5" y="-7" font-family="Helvetica,sans-Serif" font-size="10.00">ws2def.h</text>
</a>
</g>
</g>
<!-- Node12&#45;&gt;Node13 -->
<g id="edge15_Node000012_Node000013" class="edge">
<title>Node12&#45;&gt;Node13</title>
<g id="a_edge15_Node000012_Node000013"><a xlink:title=" ">
<path fill="none" stroke="#63b8ff" d="M2332.92,-60.3C2349.69,-49.67 2372.51,-35.2 2389.25,-24.6"/>
<polygon fill="#63b8ff" stroke="#63b8ff" points="2391.26,-27.47 2397.84,-19.16 2387.52,-21.55 2391.26,-27.47"/>
</a>
</g>
</g>
<!-- Node15 -->
<g id="Node000015" class="node">
<title>Node15</title>
<g id="a_Node000015"><a xlink:title=" ">
<polygon fill="#e0e0e0" stroke="#999999" points="2966.5,-19 2892.5,-19 2892.5,0 2966.5,0 2966.5,-19"/>
<text text-anchor="middle" x="2929.5" y="-7" font-family="Helvetica,sans-Serif" font-size="10.00">WinSock2.h</text>
</a>
</g>
</g>
<!-- Node14&#45;&gt;Node15 -->
<g id="edge17_Node000014_Node000015" class="edge">
<title>Node14&#45;&gt;Node15</title>
<g id="a_edge17_Node000014_Node000015"><a xlink:title=" ">
<path fill="none" stroke="#63b8ff" d="M2767.93,-60.45C2805.19,-48.93 2857.3,-32.82 2892.16,-22.04"/>
<polygon fill="#63b8ff" stroke="#63b8ff" points="2893.43,-25.32 2901.95,-19.02 2891.36,-18.63 2893.43,-25.32"/>
</a>
</g>
</g>
<!-- Node17 -->
<g id="Node000017" class="node">
<title>Node17</title>
<g id="a_Node000017"><a xlink:title=" ">
<polygon fill="#e0e0e0" stroke="#999999" points="3336,-19 3271,-19 3271,0 3336,0 3336,-19"/>
<text text-anchor="middle" x="3303.5" y="-7" font-family="Helvetica,sans-Serif" font-size="10.00">winerror.h</text>
</a>
</g>
</g>
<!-- Node16&#45;&gt;Node17 -->
<g id="edge19_Node000016_Node000017" class="edge">
<title>Node16&#45;&gt;Node17</title>
<g id="a_edge19_Node000016_Node000017"><a xlink:title=" ">
<path fill="none" stroke="#63b8ff" d="M3303.5,-60.3C3303.5,-51.2 3303.5,-39.29 3303.5,-29.4"/>
<polygon fill="#63b8ff" stroke="#63b8ff" points="3307,-29.34 3303.5,-19.34 3300,-29.34 3307,-29.34"/>
</a>
</g>
</g>
<!-- Node18&#45;&gt;Node13 -->
<g id="edge21_Node000018_Node000013" class="edge">
<title>Node18&#45;&gt;Node13</title>
<g id="a_edge21_Node000018_Node000013"><a xlink:title=" ">
<path fill="none" stroke="#63b8ff" d="M2490.08,-60.3C2473.31,-49.67 2450.49,-35.2 2433.75,-24.6"/>
<polygon fill="#63b8ff" stroke="#63b8ff" points="2435.48,-21.55 2425.16,-19.16 2431.74,-27.47 2435.48,-21.55"/>
</a>
</g>
</g>
<!-- Node19&#45;&gt;Node6 -->
<g id="edge23_Node000019_Node000006" class="edge">
<title>Node19&#45;&gt;Node6</title>
<g id="a_edge23_Node000019_Node000006"><a xlink:title=" ">
<path fill="none" stroke="#63b8ff" d="M606.08,-60.3C589.31,-49.67 566.49,-35.2 549.75,-24.6"/>
<polygon fill="#63b8ff" stroke="#63b8ff" points="551.48,-21.55 541.16,-19.16 547.74,-27.47 551.48,-21.55"/>
</a>
</g>
</g>
<!-- Node20&#45;&gt;Node7 -->
<g id="edge25_Node000020_Node000007" class="edge">
<title>Node20&#45;&gt;Node7</title>
<g id="a_edge25_Node000020_Node000007"><a xlink:title=" ">
<path fill="none" stroke="#63b8ff" d="M1649.03,-60.45C1583.55,-47.02 1487.65,-27.35 1437.99,-17.16"/>
<polygon fill="#63b8ff" stroke="#63b8ff" points="1438.62,-13.72 1428.12,-15.14 1437.22,-20.58 1438.62,-13.72"/>
</a>
</g>
</g>
<!-- Node21&#45;&gt;Node15 -->
<g id="edge27_Node000021_Node000015" class="edge">
<title>Node21&#45;&gt;Node15</title>
<g id="a_edge27_Node000021_Node000015"><a xlink:title=" ">
<path fill="none" stroke="#63b8ff" d="M2929.5,-60.3C2929.5,-51.2 2929.5,-39.29 2929.5,-29.4"/>
<polygon fill="#63b8ff" stroke="#63b8ff" points="2933,-29.34 2929.5,-19.34 2926,-29.34 2933,-29.34"/>
</a>
</g>
</g>
<!-- Node22&#45;&gt;Node15 -->
<g id="edge29_Node000022_Node000015" class="edge">
<title>Node22&#45;&gt;Node15</title>
<g id="a_edge29_Node000022_Node000015"><a xlink:title=" ">
<path fill="none" stroke="#63b8ff" d="M3077.8,-60.45C3043.9,-49.03 2996.59,-33.1 2964.6,-22.32"/>
<polygon fill="#63b8ff" stroke="#63b8ff" points="2965.38,-18.89 2954.79,-19.02 2963.15,-25.53 2965.38,-18.89"/>
</a>
</g>
</g>
<!-- Node23&#45;&gt;Node7 -->
<g id="edge31_Node000023_Node000007" class="edge">
<title>Node23&#45;&gt;Node7</title>
<g id="a_edge31_Node000023_Node000007"><a xlink:title=" ">
<path fill="none" stroke="#63b8ff" d="M1839.88,-60.45C1830.77,-58.43 1821.4,-56.53 1812.5,-55 1674.51,-31.34 1507.93,-17.74 1438.44,-12.73"/>
<polygon fill="#63b8ff" stroke="#63b8ff" points="1438.36,-9.22 1428.14,-12 1437.86,-16.2 1438.36,-9.22"/>
</a>
</g>
</g>
<!-- Node24&#45;&gt;Node6 -->
<g id="edge33_Node000024_Node000006" class="edge">
<title>Node24&#45;&gt;Node6</title>
<g id="a_edge33_Node000024_Node000006"><a xlink:title=" ">
<path fill="none" stroke="#63b8ff" d="M288.65,-60.45C347.58,-48.13 431.62,-30.55 482.7,-19.87"/>
<polygon fill="#63b8ff" stroke="#63b8ff" points="483.7,-23.24 492.77,-17.76 482.26,-16.39 483.7,-23.24"/>
</a>
</g>
</g>
<!-- Node25&#45;&gt;Node7 -->
<g id="edge35_Node000025_Node000007" class="edge">
<title>Node25&#45;&gt;Node7</title>
<g id="a_edge35_Node000025_Node000007"><a xlink:title=" ">
<path fill="none" stroke="#63b8ff" d="M1031.09,-56.44C1033.92,-55.94 1036.73,-55.46 1039.5,-55 1161.58,-34.82 1307.99,-19.74 1372.37,-13.57"/>
<polygon fill="#63b8ff" stroke="#63b8ff" points="1373.08,-17.02 1382.7,-12.59 1372.42,-10.05 1373.08,-17.02"/>
</a>
</g>
</g>
<!-- Node26&#45;&gt;Node7 -->
<g id="edge37_Node000026_Node000007" class="edge">
<title>Node26&#45;&gt;Node7</title>
<g id="a_edge37_Node000026_Node000007"><a xlink:title=" ">
<path fill="none" stroke="#63b8ff" d="M1216.59,-54.95C1269.14,-42.58 1334.18,-27.28 1372.62,-18.24"/>
<polygon fill="#63b8ff" stroke="#63b8ff" points="1373.79,-21.56 1382.72,-15.86 1372.18,-14.74 1373.79,-21.56"/>
</a>
</g>
</g>
<!-- Node27&#45;&gt;Node7 -->
<g id="edge39_Node000027_Node000007" class="edge">
<title>Node27&#45;&gt;Node7</title>
<g id="a_edge39_Node000027_Node000007"><a xlink:title=" ">
<path fill="none" stroke="#63b8ff" d="M1343.69,-54.95C1357.01,-45.37 1372.8,-34.02 1385.08,-25.19"/>
<polygon fill="#63b8ff" stroke="#63b8ff" points="1387.24,-27.94 1393.32,-19.26 1383.16,-22.26 1387.24,-27.94"/>
</a>
</g>
</g>
<!-- Node28&#45;&gt;Node7 -->
<g id="edge41_Node000028_Node000007" class="edge">
<title>Node28&#45;&gt;Node7</title>
<g id="a_edge41_Node000028_Node000007"><a xlink:title=" ">
<path fill="none" stroke="#63b8ff" d="M1467.31,-54.95C1453.99,-45.37 1438.2,-34.02 1425.92,-25.19"/>
<polygon fill="#63b8ff" stroke="#63b8ff" points="1427.84,-22.26 1417.68,-19.26 1423.76,-27.94 1427.84,-22.26"/>
</a>
</g>
</g>
<!-- Node29&#45;&gt;Node6 -->
<g id="edge43_Node000029_Node000006" class="edge">
<title>Node29&#45;&gt;Node6</title>
<g id="a_edge43_Node000029_Node000006"><a xlink:title=" ">
<path fill="none" stroke="#63b8ff" d="M441.64,-60.45C460.17,-49.68 485.6,-34.88 503.97,-24.19"/>
<polygon fill="#63b8ff" stroke="#63b8ff" points="505.98,-27.07 512.86,-19.02 502.46,-21.02 505.98,-27.07"/>
</a>
</g>
</g>
</g>
</svg>
