<?xml version="1.0" encoding="UTF-8" standalone="no"?>
<!DOCTYPE svg PUBLIC "-//W3C//DTD SVG 1.1//EN"
 "http://www.w3.org/Graphics/SVG/1.1/DTD/svg11.dtd">
<!-- Generated by graphviz version 2.43.0 (0)
 -->
<!-- Title: include/Hermes/Utils/Hash.hpp Pages: 1 -->
<svg width="660pt" height="533pt"
 viewBox="0.00 0.00 659.62 533.00" xmlns="http://www.w3.org/2000/svg" xmlns:xlink="http://www.w3.org/1999/xlink">
<g id="graph0" class="graph" transform="scale(1 1) rotate(0) translate(4 529)">
<title>include/Hermes/Utils/Hash.hpp</title>
<!-- Node1 -->
<g id="Node000001" class="node">
<title>Node1</title>
<g id="a_Node000001"><a xlink:title=" ">
<polygon fill="#999999" stroke="#666666" points="380.54,-525 261.54,-525 261.54,-495 380.54,-495 380.54,-525"/>
<text text-anchor="start" x="269.54" y="-513" font-family="Helvetica,sans-Serif" font-size="10.00">include/Hermes/Utils</text>
<text text-anchor="middle" x="321.04" y="-502" font-family="Helvetica,sans-Serif" font-size="10.00">/Hash.hpp</text>
</a>
</g>
</g>
<!-- Node2 -->
<g id="Node000002" class="node">
<title>Node2</title>
<g id="a_Node000002"><a xlink:href="_ip_address_8hpp.html" target="_top" xlink:title=" ">
<polygon fill="white" stroke="#666666" points="442.54,-459 299.54,-459 299.54,-429 442.54,-429 442.54,-459"/>
<text text-anchor="start" x="307.54" y="-447" font-family="Helvetica,sans-Serif" font-size="10.00">include/Hermes/Endpoint</text>
<text text-anchor="middle" x="371.04" y="-436" font-family="Helvetica,sans-Serif" font-size="10.00">/IpEndpoint/IpAddress.hpp</text>
</a>
</g>
</g>
<!-- Node1&#45;&gt;Node2 -->
<g id="edge1_Node000001_Node000002" class="edge">
<title>Node1&#45;&gt;Node2</title>
<g id="a_edge1_Node000001_Node000002"><a xlink:title=" ">
<path fill="none" stroke="#63b8ff" d="M338.38,-486.81C345.54,-477.64 353.64,-467.28 359.97,-459.16"/>
<polygon fill="#63b8ff" stroke="#63b8ff" points="335.53,-484.76 332.14,-494.8 341.05,-489.07 335.53,-484.76"/>
</a>
</g>
</g>
<!-- Node3 -->
<g id="Node000003" class="node">
<title>Node3</title>
<g id="a_Node000003"><a xlink:href="_ip_endpoint_8hpp.html" target="_top" xlink:title=" ">
<polygon fill="white" stroke="#666666" points="394.54,-393 247.54,-393 247.54,-363 394.54,-363 394.54,-393"/>
<text text-anchor="start" x="255.54" y="-381" font-family="Helvetica,sans-Serif" font-size="10.00">include/Hermes/Endpoint</text>
<text text-anchor="middle" x="321.04" y="-370" font-family="Helvetica,sans-Serif" font-size="10.00">/IpEndpoint/IpEndpoint.hpp</text>
</a>
</g>
</g>
<!-- Node1&#45;&gt;Node3 -->
<g id="edge22_Node000001_Node000003" class="edge">
<title>Node1&#45;&gt;Node3</title>
<g id="a_edge22_Node000001_Node000003"><a xlink:title=" ">
<path fill="none" stroke="#63b8ff" d="M303.39,-486.47C298.01,-478.29 292.79,-468.67 290.04,-459 286.39,-446.18 286.39,-441.82 290.04,-429 293.79,-415.84 302.11,-402.76 309.18,-393.28"/>
<polygon fill="#63b8ff" stroke="#63b8ff" points="300.57,-488.55 309.18,-494.72 306.3,-484.53 300.57,-488.55"/>
</a>
</g>
</g>
<!-- Node2&#45;&gt;Node3 -->
<g id="edge2_Node000002_Node000003" class="edge">
<title>Node2&#45;&gt;Node3</title>
<g id="a_edge2_Node000002_Node000003"><a xlink:title=" ">
<path fill="none" stroke="#63b8ff" d="M353.7,-420.81C346.54,-411.64 338.44,-401.28 332.1,-393.16"/>
<polygon fill="#63b8ff" stroke="#63b8ff" points="351.03,-423.07 359.94,-428.8 356.54,-418.76 351.03,-423.07"/>
</a>
</g>
</g>
<!-- Node4 -->
<g id="Node000004" class="node">
<title>Node4</title>
<g id="a_Node000004"><a xlink:href="_default_socket_data_8hpp.html" target="_top" xlink:title=" ">
<polygon fill="white" stroke="#666666" points="467.04,-327 295.04,-327 295.04,-286 467.04,-286 467.04,-327"/>
<text text-anchor="start" x="303.04" y="-315" font-family="Helvetica,sans-Serif" font-size="10.00">include/Hermes/Socket</text>
<text text-anchor="start" x="303.04" y="-304" font-family="Helvetica,sans-Serif" font-size="10.00">/Sync/_base/Data/DefaultSocket</text>
<text text-anchor="middle" x="381.04" y="-293" font-family="Helvetica,sans-Serif" font-size="10.00">Data.hpp</text>
</a>
</g>
</g>
<!-- Node3&#45;&gt;Node4 -->
<g id="edge3_Node000003_Node000004" class="edge">
<title>Node3&#45;&gt;Node4</title>
<g id="a_edge3_Node000003_Node000004"><a xlink:title=" ">
<path fill="none" stroke="#63b8ff" d="M339.91,-355.14C347.68,-346.15 356.6,-335.81 364.14,-327.07"/>
<polygon fill="#63b8ff" stroke="#63b8ff" points="337.07,-353.08 333.18,-362.94 342.37,-357.65 337.07,-353.08"/>
</a>
</g>
</g>
<!-- Node13 -->
<g id="Node000013" class="node">
<title>Node13</title>
<g id="a_Node000013"><a xlink:href="_tls_socket_data_8hpp.html" target="_top" xlink:title=" ">
<polygon fill="white" stroke="#666666" points="356.04,-244.5 162.04,-244.5 162.04,-214.5 356.04,-214.5 356.04,-244.5"/>
<text text-anchor="start" x="170.04" y="-232.5" font-family="Helvetica,sans-Serif" font-size="10.00">include/Hermes/Socket</text>
<text text-anchor="middle" x="259.04" y="-221.5" font-family="Helvetica,sans-Serif" font-size="10.00">/Sync/_base/Data/TlsSocketData.hpp</text>
</a>
</g>
</g>
<!-- Node3&#45;&gt;Node13 -->
<g id="edge16_Node000003_Node000013" class="edge">
<title>Node3&#45;&gt;Node13</title>
<g id="a_edge16_Node000003_Node000013"><a xlink:title=" ">
<path fill="none" stroke="#63b8ff" d="M303.11,-354.83C297.02,-346.49 290.61,-336.67 286.04,-327 272.95,-299.32 265.1,-264.09 261.47,-244.77"/>
<polygon fill="#63b8ff" stroke="#63b8ff" points="300.41,-357.07 309.24,-362.93 305.99,-352.84 300.41,-357.07"/>
</a>
</g>
</g>
<!-- Node5 -->
<g id="Node000005" class="node">
<title>Node5</title>
<g id="a_Node000005"><a xlink:href="_default_accept_policy_8hpp.html" target="_top" xlink:title=" ">
<polygon fill="white" stroke="#666666" points="645.04,-250 463.04,-250 463.04,-209 645.04,-209 645.04,-250"/>
<text text-anchor="start" x="471.04" y="-238" font-family="Helvetica,sans-Serif" font-size="10.00">include/Hermes/Socket</text>
<text text-anchor="start" x="471.04" y="-227" font-family="Helvetica,sans-Serif" font-size="10.00">/Sync/_base/Accept/DefaultAccept</text>
<text text-anchor="middle" x="554.04" y="-216" font-family="Helvetica,sans-Serif" font-size="10.00">Policy.hpp</text>
</a>
</g>
</g>
<!-- Node4&#45;&gt;Node5 -->
<g id="edge4_Node000004_Node000005" class="edge">
<title>Node4&#45;&gt;Node5</title>
<g id="a_edge4_Node000004_Node000005"><a xlink:title=" ">
<path fill="none" stroke="#63b8ff" d="M435.26,-282C458.95,-271.72 486.41,-259.82 508.96,-250.04"/>
<polygon fill="#63b8ff" stroke="#63b8ff" points="433.82,-278.8 426.04,-285.99 436.61,-285.22 433.82,-278.8"/>
</a>
</g>
</g>
<!-- Node9 -->
<g id="Node000009" class="node">
<title>Node9</title>
<g id="a_Node000009"><a xlink:href="_default_connect_policy_8hpp.html" target="_top" xlink:title=" ">
<polygon fill="white" stroke="#666666" points="144.04,-250 0.04,-250 0.04,-209 144.04,-209 144.04,-250"/>
<text text-anchor="start" x="8.04" y="-238" font-family="Helvetica,sans-Serif" font-size="10.00">include/Hermes/Socket</text>
<text text-anchor="start" x="8.04" y="-227" font-family="Helvetica,sans-Serif" font-size="10.00">/Sync/_base/Connection</text>
<text text-anchor="middle" x="72.04" y="-216" font-family="Helvetica,sans-Serif" font-size="10.00">/DefaultConnectPolicy.hpp</text>
</a>
</g>
</g>
<!-- Node4&#45;&gt;Node9 -->
<g id="edge9_Node000004_Node000009" class="edge">
<title>Node4&#45;&gt;Node9</title>
<g id="a_edge9_Node000004_Node000009"><a xlink:title=" ">
<path fill="none" stroke="#63b8ff" d="M290.84,-283.61C244.13,-272.27 187.88,-258.62 144.1,-247.99"/>
<polygon fill="#63b8ff" stroke="#63b8ff" points="290.12,-287.03 300.66,-285.99 291.77,-280.23 290.12,-287.03"/>
</a>
</g>
</g>
<!-- Node12 -->
<g id="Node000012" class="node">
<title>Node12</title>
<g id="a_Node000012"><a xlink:href="_default_transfer_policy_8hpp.html" target="_top" xlink:title=" ">
<polygon fill="white" stroke="#666666" points="455.54,-173 312.54,-173 312.54,-132 455.54,-132 455.54,-173"/>
<text text-anchor="start" x="320.54" y="-161" font-family="Helvetica,sans-Serif" font-size="10.00">include/Hermes/Socket</text>
<text text-anchor="start" x="320.54" y="-150" font-family="Helvetica,sans-Serif" font-size="10.00">/Sync/_base/Transfer</text>
<text text-anchor="middle" x="384.04" y="-139" font-family="Helvetica,sans-Serif" font-size="10.00">/DefaultTransferPolicy.hpp</text>
</a>
</g>
</g>
<!-- Node4&#45;&gt;Node12 -->
<g id="edge13_Node000004_Node000012" class="edge">
<title>Node4&#45;&gt;Node12</title>
<g id="a_edge13_Node000004_Node000012"><a xlink:title=" ">
<path fill="none" stroke="#63b8ff" d="M381.63,-275.58C382.23,-245.36 383.13,-199.53 383.65,-173.47"/>
<polygon fill="#63b8ff" stroke="#63b8ff" points="378.12,-275.87 381.43,-285.94 385.12,-276.01 378.12,-275.87"/>
</a>
</g>
</g>
<!-- Node6 -->
<g id="Node000006" class="node">
<title>Node6</title>
<g id="a_Node000006"><a xlink:href="_server_socket_8hpp.html" target="_top" xlink:title=" ">
<polygon fill="white" stroke="#666666" points="534.54,-96 403.54,-96 403.54,-66 534.54,-66 534.54,-96"/>
<text text-anchor="start" x="411.54" y="-84" font-family="Helvetica,sans-Serif" font-size="10.00">include/Hermes/Socket</text>
<text text-anchor="middle" x="469.04" y="-73" font-family="Helvetica,sans-Serif" font-size="10.00">/Sync/ServerSocket.hpp</text>
</a>
</g>
</g>
<!-- Node5&#45;&gt;Node6 -->
<g id="edge5_Node000005_Node000006" class="edge">
<title>Node5&#45;&gt;Node6</title>
<g id="a_edge5_Node000005_Node000006"><a xlink:title=" ">
<path fill="none" stroke="#63b8ff" d="M613.92,-203.47C625.96,-195.55 637.06,-185.51 644.04,-173 652.92,-157.09 655.01,-146.55 644.04,-132 630.58,-114.15 578.53,-100.76 534.67,-92.35"/>
<polygon fill="#63b8ff" stroke="#63b8ff" points="611.76,-200.68 605.02,-208.86 615.39,-206.67 611.76,-200.68"/>
</a>
</g>
</g>
<!-- Node8 -->
<g id="Node000008" class="node">
<title>Node8</title>
<g id="a_Node000008"><a xlink:href="_tls_accept_policy_8hpp.html" target="_top" xlink:title=" ">
<polygon fill="white" stroke="#666666" points="634.54,-173 473.54,-173 473.54,-132 634.54,-132 634.54,-173"/>
<text text-anchor="start" x="481.54" y="-161" font-family="Helvetica,sans-Serif" font-size="10.00">include/Hermes/Socket</text>
<text text-anchor="start" x="481.54" y="-150" font-family="Helvetica,sans-Serif" font-size="10.00">/Sync/_base/Accept/TlsAccept</text>
<text text-anchor="middle" x="554.04" y="-139" font-family="Helvetica,sans-Serif" font-size="10.00">Policy.hpp</text>
</a>
</g>
</g>
<!-- Node5&#45;&gt;Node8 -->
<g id="edge7_Node000005_Node000008" class="edge">
<title>Node5&#45;&gt;Node8</title>
<g id="a_edge7_Node000005_Node000008"><a xlink:title=" ">
<path fill="none" stroke="#63b8ff" d="M554.04,-198.69C554.04,-190.08 554.04,-180.9 554.04,-173.07"/>
<polygon fill="#63b8ff" stroke="#63b8ff" points="550.54,-198.79 554.04,-208.79 557.54,-198.79 550.54,-198.79"/>
</a>
</g>
</g>
<!-- Node7 -->
<g id="Node000007" class="node">
<title>Node7</title>
<g id="a_Node000007"><a xlink:href="_listener_socket_8hpp.html" target="_top" xlink:title=" ">
<polygon fill="white" stroke="#666666" points="538.04,-30 400.04,-30 400.04,0 538.04,0 538.04,-30"/>
<text text-anchor="start" x="408.04" y="-18" font-family="Helvetica,sans-Serif" font-size="10.00">include/Hermes/Socket</text>
<text text-anchor="middle" x="469.04" y="-7" font-family="Helvetica,sans-Serif" font-size="10.00">/Sync/ListenerSocket.hpp</text>
</a>
</g>
</g>
<!-- Node6&#45;&gt;Node7 -->
<g id="edge6_Node000006_Node000007" class="edge">
<title>Node6&#45;&gt;Node7</title>
<g id="a_edge6_Node000006_Node000007"><a xlink:title=" ">
<path fill="none" stroke="#63b8ff" d="M469.04,-55.54C469.04,-46.96 469.04,-37.61 469.04,-30.16"/>
<polygon fill="#63b8ff" stroke="#63b8ff" points="465.54,-55.8 469.04,-65.8 472.54,-55.8 465.54,-55.8"/>
</a>
</g>
</g>
<!-- Node8&#45;&gt;Node6 -->
<g id="edge8_Node000008_Node000006" class="edge">
<title>Node8&#45;&gt;Node6</title>
<g id="a_edge8_Node000008_Node000006"><a xlink:title=" ">
<path fill="none" stroke="#63b8ff" d="M522.12,-125.41C509.94,-115.44 496.51,-104.46 486.21,-96.04"/>
<polygon fill="#63b8ff" stroke="#63b8ff" points="519.95,-128.15 529.91,-131.77 524.38,-122.73 519.95,-128.15"/>
</a>
</g>
</g>
<!-- Node10 -->
<g id="Node000010" class="node">
<title>Node10</title>
<g id="a_Node000010"><a xlink:href="_client_socket_8hpp.html" target="_top" xlink:title=" ">
<polygon fill="white" stroke="#666666" points="220.04,-96 92.04,-96 92.04,-66 220.04,-66 220.04,-96"/>
<text text-anchor="start" x="100.04" y="-84" font-family="Helvetica,sans-Serif" font-size="10.00">include/Hermes/Socket</text>
<text text-anchor="middle" x="156.04" y="-73" font-family="Helvetica,sans-Serif" font-size="10.00">/Sync/ClientSocket.hpp</text>
</a>
</g>
</g>
<!-- Node9&#45;&gt;Node10 -->
<g id="edge10_Node000009_Node000010" class="edge">
<title>Node9&#45;&gt;Node10</title>
<g id="a_edge10_Node000009_Node000010"><a xlink:title=" ">
<path fill="none" stroke="#63b8ff" d="M30.64,-202.44C21.13,-194.27 12.28,-184.37 7.04,-173 -0.59,-156.45 -3.6,-146.79 7.04,-132 26.4,-105.09 60.94,-92.46 91.9,-86.62"/>
<polygon fill="#63b8ff" stroke="#63b8ff" points="28.71,-205.39 38.71,-208.89 33.08,-199.92 28.71,-205.39"/>
</a>
</g>
</g>
<!-- Node11 -->
<g id="Node000011" class="node">
<title>Node11</title>
<g id="a_Node000011"><a xlink:href="_tls_connect_policy_8hpp.html" target="_top" xlink:title=" ">
<polygon fill="white" stroke="#666666" points="148.04,-173 16.04,-173 16.04,-132 148.04,-132 148.04,-173"/>
<text text-anchor="start" x="24.04" y="-161" font-family="Helvetica,sans-Serif" font-size="10.00">include/Hermes/Socket</text>
<text text-anchor="start" x="24.04" y="-150" font-family="Helvetica,sans-Serif" font-size="10.00">/Sync/_base/Connection</text>
<text text-anchor="middle" x="82.04" y="-139" font-family="Helvetica,sans-Serif" font-size="10.00">/TlsConnectPolicy.hpp</text>
</a>
</g>
</g>
<!-- Node9&#45;&gt;Node11 -->
<g id="edge11_Node000009_Node000011" class="edge">
<title>Node9&#45;&gt;Node11</title>
<g id="a_edge11_Node000009_Node000011"><a xlink:title=" ">
<path fill="none" stroke="#63b8ff" d="M76.01,-198.69C77.16,-190.08 78.39,-180.9 79.43,-173.07"/>
<polygon fill="#63b8ff" stroke="#63b8ff" points="72.52,-198.42 74.67,-208.79 79.46,-199.34 72.52,-198.42"/>
</a>
</g>
</g>
<!-- Node11&#45;&gt;Node10 -->
<g id="edge12_Node000011_Node000010" class="edge">
<title>Node11&#45;&gt;Node10</title>
<g id="a_edge12_Node000011_Node000010"><a xlink:title=" ">
<path fill="none" stroke="#63b8ff" d="M110.43,-124.83C120.88,-115.02 132.29,-104.3 141.09,-96.04"/>
<polygon fill="#63b8ff" stroke="#63b8ff" points="107.94,-122.37 103.05,-131.77 112.73,-127.48 107.94,-122.37"/>
</a>
</g>
</g>
<!-- Node12&#45;&gt;Node6 -->
<g id="edge15_Node000012_Node000006" class="edge">
<title>Node12&#45;&gt;Node6</title>
<g id="a_edge15_Node000012_Node000006"><a xlink:title=" ">
<path fill="none" stroke="#63b8ff" d="M415.95,-125.41C428.14,-115.44 441.57,-104.46 451.87,-96.04"/>
<polygon fill="#63b8ff" stroke="#63b8ff" points="413.7,-122.73 408.17,-131.77 418.13,-128.15 413.7,-122.73"/>
</a>
</g>
</g>
<!-- Node12&#45;&gt;Node10 -->
<g id="edge14_Node000012_Node000010" class="edge">
<title>Node12&#45;&gt;Node10</title>
<g id="a_edge14_Node000012_Node000010"><a xlink:title=" ">
<path fill="none" stroke="#63b8ff" d="M310.06,-128.95C274.48,-118.1 232.95,-105.44 201.98,-96"/>
<polygon fill="#63b8ff" stroke="#63b8ff" points="309.34,-132.39 319.92,-131.96 311.38,-125.69 309.34,-132.39"/>
</a>
</g>
</g>
<!-- Node13&#45;&gt;Node8 -->
<g id="edge17_Node000013_Node000008" class="edge">
<title>Node13&#45;&gt;Node8</title>
<g id="a_edge17_Node000013_Node000008"><a xlink:title=" ">
<path fill="none" stroke="#63b8ff" d="M324.16,-211.94C369.32,-200.46 429.67,-185.12 477.19,-173.04"/>
<polygon fill="#63b8ff" stroke="#63b8ff" points="323.01,-208.62 314.18,-214.48 324.73,-215.41 323.01,-208.62"/>
</a>
</g>
</g>
<!-- Node13&#45;&gt;Node11 -->
<g id="edge18_Node000013_Node000011" class="edge">
<title>Node13&#45;&gt;Node11</title>
<g id="a_edge18_Node000013_Node000011"><a xlink:title=" ">
<path fill="none" stroke="#63b8ff" d="M216.31,-210.4C189.69,-199.12 155.45,-184.61 128.21,-173.06"/>
<polygon fill="#63b8ff" stroke="#63b8ff" points="215.17,-213.71 225.75,-214.39 217.9,-207.27 215.17,-213.71"/>
</a>
</g>
</g>
<!-- Node14 -->
<g id="Node000014" class="node">
<title>Node14</title>
<g id="a_Node000014"><a xlink:href="_tls_transfer_policy_8hpp.html" target="_top" xlink:title=" ">
<polygon fill="white" stroke="#666666" points="294.04,-173 166.04,-173 166.04,-132 294.04,-132 294.04,-173"/>
<text text-anchor="start" x="174.04" y="-161" font-family="Helvetica,sans-Serif" font-size="10.00">include/Hermes/Socket</text>
<text text-anchor="start" x="174.04" y="-150" font-family="Helvetica,sans-Serif" font-size="10.00">/Sync/_base/Transfer</text>
<text text-anchor="middle" x="230.04" y="-139" font-family="Helvetica,sans-Serif" font-size="10.00">/TlsTransferPolicy.hpp</text>
</a>
</g>
</g>
<!-- Node13&#45;&gt;Node14 -->
<g id="edge19_Node000013_Node000014" class="edge">
<title>Node13&#45;&gt;Node14</title>
<g id="a_edge19_Node000013_Node000014"><a xlink:title=" ">
<path fill="none" stroke="#63b8ff" d="M249.9,-204.87C245.96,-194.69 241.41,-182.91 237.66,-173.2"/>
<polygon fill="#63b8ff" stroke="#63b8ff" points="246.71,-206.33 253.58,-214.39 253.24,-203.8 246.71,-206.33"/>
</a>
</g>
</g>
<!-- Node14&#45;&gt;Node6 -->
<g id="edge21_Node000014_Node000006" class="edge">
<title>Node14&#45;&gt;Node6</title>
<g id="a_edge21_Node000014_Node000006"><a xlink:title=" ">
<path fill="none" stroke="#63b8ff" d="M304.09,-129.97C342.08,-118.92 387.28,-105.78 420.75,-96.04"/>
<polygon fill="#63b8ff" stroke="#63b8ff" points="302.71,-126.72 294.09,-132.88 304.67,-133.44 302.71,-126.72"/>
</a>
</g>
</g>
<!-- Node14&#45;&gt;Node10 -->
<g id="edge20_Node000014_Node000010" class="edge">
<title>Node14&#45;&gt;Node10</title>
<g id="a_edge20_Node000014_Node000010"><a xlink:title=" ">
<path fill="none" stroke="#63b8ff" d="M201.65,-124.83C191.2,-115.02 179.78,-104.3 170.99,-96.04"/>
<polygon fill="#63b8ff" stroke="#63b8ff" points="199.35,-127.48 209.03,-131.77 204.14,-122.37 199.35,-127.48"/>
</a>
</g>
</g>
</g>
</svg>
