<?xml version="1.0" encoding="UTF-8" standalone="no"?>
<!DOCTYPE svg PUBLIC "-//W3C//DTD SVG 1.1//EN"
 "http://www.w3.org/Graphics/SVG/1.1/DTD/svg11.dtd">
<!-- Generated by graphviz version 2.43.0 (0)
 -->
<!-- Title: include/Hermes/Utils/Hash.hpp Pages: 1 -->
<svg width="757pt" height="522pt"
 viewBox="0.00 0.00 757.40 522.00" xmlns="http://www.w3.org/2000/svg" xmlns:xlink="http://www.w3.org/1999/xlink">
<g id="graph0" class="graph" transform="scale(1 1) rotate(0) translate(4 518)">
<title>include/Hermes/Utils/Hash.hpp</title>
<!-- Node1 -->
<g id="Node000001" class="node">
<title>Node1</title>
<g id="a_Node000001"><a xlink:title=" ">
<polygon fill="#999999" stroke="#666666" points="419.1,-514 300.1,-514 300.1,-484 419.1,-484 419.1,-514"/>
<text text-anchor="start" x="308.1" y="-502" font-family="Helvetica,sans-Serif" font-size="10.00">include/Hermes/Utils</text>
<text text-anchor="middle" x="359.6" y="-491" font-family="Helvetica,sans-Serif" font-size="10.00">/Hash.hpp</text>
</a>
</g>
</g>
<!-- Node2 -->
<g id="Node000002" class="node">
<title>Node2</title>
<g id="a_Node000002"><a xlink:href="_ip_address_8hpp.html" target="_top" xlink:title=" ">
<polygon fill="white" stroke="#666666" points="481.1,-448 338.1,-448 338.1,-418 481.1,-418 481.1,-448"/>
<text text-anchor="start" x="346.1" y="-436" font-family="Helvetica,sans-Serif" font-size="10.00">include/Hermes/Endpoint</text>
<text text-anchor="middle" x="409.6" y="-425" font-family="Helvetica,sans-Serif" font-size="10.00">/IpEndpoint/IpAddress.hpp</text>
</a>
</g>
</g>
<!-- Node1&#45;&gt;Node2 -->
<g id="edge1_Node000001_Node000002" class="edge">
<title>Node1&#45;&gt;Node2</title>
<g id="a_edge1_Node000001_Node000002"><a xlink:title=" ">
<path fill="none" stroke="#63b8ff" d="M376.94,-475.81C384.11,-466.64 392.2,-456.28 398.54,-448.16"/>
<polygon fill="#63b8ff" stroke="#63b8ff" points="374.1,-473.76 370.7,-483.8 379.61,-478.07 374.1,-473.76"/>
</a>
</g>
</g>
<!-- Node3 -->
<g id="Node000003" class="node">
<title>Node3</title>
<g id="a_Node000003"><a xlink:href="_ip_endpoint_8hpp.html" target="_top" xlink:title=" ">
<polygon fill="white" stroke="#666666" points="433.1,-382 286.1,-382 286.1,-352 433.1,-352 433.1,-382"/>
<text text-anchor="start" x="294.1" y="-370" font-family="Helvetica,sans-Serif" font-size="10.00">include/Hermes/Endpoint</text>
<text text-anchor="middle" x="359.6" y="-359" font-family="Helvetica,sans-Serif" font-size="10.00">/IpEndpoint/IpEndpoint.hpp</text>
</a>
</g>
</g>
<!-- Node1&#45;&gt;Node3 -->
<g id="edge22_Node000001_Node000003" class="edge">
<title>Node1&#45;&gt;Node3</title>
<g id="a_edge22_Node000001_Node000003"><a xlink:title=" ">
<path fill="none" stroke="#63b8ff" d="M341.95,-475.47C336.57,-467.29 331.36,-457.67 328.6,-448 324.95,-435.18 324.95,-430.82 328.6,-418 332.35,-404.84 340.67,-391.76 347.75,-382.28"/>
<polygon fill="#63b8ff" stroke="#63b8ff" points="339.14,-477.55 347.75,-483.72 344.86,-473.53 339.14,-477.55"/>
</a>
</g>
</g>
<!-- Node2&#45;&gt;Node3 -->
<g id="edge2_Node000002_Node000003" class="edge">
<title>Node2&#45;&gt;Node3</title>
<g id="a_edge2_Node000002_Node000003"><a xlink:title=" ">
<path fill="none" stroke="#63b8ff" d="M392.26,-409.81C385.1,-400.64 377.01,-390.28 370.67,-382.16"/>
<polygon fill="#63b8ff" stroke="#63b8ff" points="389.59,-412.07 398.51,-417.8 395.11,-407.76 389.59,-412.07"/>
</a>
</g>
</g>
<!-- Node4 -->
<g id="Node000004" class="node">
<title>Node4</title>
<g id="a_Node000004"><a xlink:href="_default_socket_data_8hpp.html" target="_top" xlink:title=" ">
<polygon fill="white" stroke="#666666" points="524.6,-316 334.6,-316 334.6,-286 524.6,-286 524.6,-316"/>
<text text-anchor="start" x="342.6" y="-304" font-family="Helvetica,sans-Serif" font-size="10.00">include/Hermes/Socket</text>
<text text-anchor="middle" x="429.6" y="-293" font-family="Helvetica,sans-Serif" font-size="10.00">/_base/Data/DefaultSocketData.hpp</text>
</a>
</g>
</g>
<!-- Node3&#45;&gt;Node4 -->
<g id="edge3_Node000003_Node000004" class="edge">
<title>Node3&#45;&gt;Node4</title>
<g id="a_edge3_Node000003_Node000004"><a xlink:title=" ">
<path fill="none" stroke="#63b8ff" d="M382.65,-344.92C392.98,-335.49 404.88,-324.61 414.11,-316.16"/>
<polygon fill="#63b8ff" stroke="#63b8ff" points="380.16,-342.47 375.14,-351.8 384.88,-347.63 380.16,-342.47"/>
</a>
</g>
</g>
<!-- Node13 -->
<g id="Node000013" class="node">
<title>Node13</title>
<g id="a_Node000013"><a xlink:href="_tls_socket_data_8hpp.html" target="_top" xlink:title=" ">
<polygon fill="white" stroke="#666666" points="380.6,-244.5 212.6,-244.5 212.6,-214.5 380.6,-214.5 380.6,-244.5"/>
<text text-anchor="start" x="220.6" y="-232.5" font-family="Helvetica,sans-Serif" font-size="10.00">include/Hermes/Socket</text>
<text text-anchor="middle" x="296.6" y="-221.5" font-family="Helvetica,sans-Serif" font-size="10.00">/_base/Data/TlsSocketData.hpp</text>
</a>
</g>
</g>
<!-- Node3&#45;&gt;Node13 -->
<g id="edge16_Node000003_Node000013" class="edge">
<title>Node3&#45;&gt;Node13</title>
<g id="a_edge16_Node000003_Node000013"><a xlink:title=" ">
<path fill="none" stroke="#63b8ff" d="M342.49,-343.63C336.61,-335.26 330.33,-325.48 325.6,-316 313.65,-292.01 304.73,-261.92 300.12,-244.58"/>
<polygon fill="#63b8ff" stroke="#63b8ff" points="339.69,-345.72 348.39,-351.76 345.35,-341.61 339.69,-345.72"/>
</a>
</g>
</g>
<!-- Node5 -->
<g id="Node000005" class="node">
<title>Node5</title>
<g id="a_Node000005"><a xlink:href="_default_accept_policy_8hpp.html" target="_top" xlink:title=" ">
<polygon fill="white" stroke="#666666" points="718.6,-250 562.6,-250 562.6,-209 718.6,-209 718.6,-250"/>
<text text-anchor="start" x="570.6" y="-238" font-family="Helvetica,sans-Serif" font-size="10.00">include/Hermes/Socket</text>
<text text-anchor="start" x="570.6" y="-227" font-family="Helvetica,sans-Serif" font-size="10.00">/_base/Accept/DefaultAccept</text>
<text text-anchor="middle" x="640.6" y="-216" font-family="Helvetica,sans-Serif" font-size="10.00">Policy.hpp</text>
</a>
</g>
</g>
<!-- Node4&#45;&gt;Node5 -->
<g id="edge4_Node000004_Node000005" class="edge">
<title>Node4&#45;&gt;Node5</title>
<g id="a_edge4_Node000004_Node000005"><a xlink:title=" ">
<path fill="none" stroke="#63b8ff" d="M482.18,-282.68C512.24,-272.78 550.04,-260.33 581.18,-250.07"/>
<polygon fill="#63b8ff" stroke="#63b8ff" points="480.7,-279.48 472.3,-285.94 482.89,-286.13 480.7,-279.48"/>
</a>
</g>
</g>
<!-- Node9 -->
<g id="Node000009" class="node">
<title>Node9</title>
<g id="a_Node000009"><a xlink:href="_default_connect_policy_8hpp.html" target="_top" xlink:title=" ">
<polygon fill="white" stroke="#666666" points="191.1,-250 6.1,-250 6.1,-209 191.1,-209 191.1,-250"/>
<text text-anchor="start" x="14.1" y="-238" font-family="Helvetica,sans-Serif" font-size="10.00">include/Hermes/Socket</text>
<text text-anchor="start" x="14.1" y="-227" font-family="Helvetica,sans-Serif" font-size="10.00">/_base/Connection/DefaultConnect</text>
<text text-anchor="middle" x="98.6" y="-216" font-family="Helvetica,sans-Serif" font-size="10.00">Policy.hpp</text>
</a>
</g>
</g>
<!-- Node4&#45;&gt;Node9 -->
<g id="edge9_Node000004_Node000009" class="edge">
<title>Node4&#45;&gt;Node9</title>
<g id="a_edge9_Node000004_Node000009"><a xlink:title=" ">
<path fill="none" stroke="#63b8ff" d="M352.56,-283.82C304.39,-273.71 242.05,-260.62 191.2,-249.94"/>
<polygon fill="#63b8ff" stroke="#63b8ff" points="352.11,-287.31 362.62,-285.94 353.55,-280.46 352.11,-287.31"/>
</a>
</g>
</g>
<!-- Node12 -->
<g id="Node000012" class="node">
<title>Node12</title>
<g id="a_Node000012"><a xlink:href="_default_transfer_policy_8hpp.html" target="_top" xlink:title=" ">
<polygon fill="white" stroke="#666666" points="530.6,-173 362.6,-173 362.6,-132 530.6,-132 530.6,-173"/>
<text text-anchor="start" x="370.6" y="-161" font-family="Helvetica,sans-Serif" font-size="10.00">include/Hermes/Socket</text>
<text text-anchor="start" x="370.6" y="-150" font-family="Helvetica,sans-Serif" font-size="10.00">/_base/Transfer/DefaultTransfer</text>
<text text-anchor="middle" x="446.6" y="-139" font-family="Helvetica,sans-Serif" font-size="10.00">Policy.hpp</text>
</a>
</g>
</g>
<!-- Node4&#45;&gt;Node12 -->
<g id="edge13_Node000004_Node000012" class="edge">
<title>Node4&#45;&gt;Node12</title>
<g id="a_edge13_Node000004_Node000012"><a xlink:title=" ">
<path fill="none" stroke="#63b8ff" d="M432.39,-275.96C435.72,-247.3 441.22,-199.92 444.31,-173.27"/>
<polygon fill="#63b8ff" stroke="#63b8ff" points="428.91,-275.62 431.23,-285.95 435.86,-276.42 428.91,-275.62"/>
</a>
</g>
</g>
<!-- Node6 -->
<g id="Node000006" class="node">
<title>Node6</title>
<g id="a_Node000006"><a xlink:href="_server_socket_8hpp.html" target="_top" xlink:title=" ">
<polygon fill="white" stroke="#666666" points="607.6,-96 479.6,-96 479.6,-66 607.6,-66 607.6,-96"/>
<text text-anchor="start" x="487.6" y="-84" font-family="Helvetica,sans-Serif" font-size="10.00">include/Hermes/Socket</text>
<text text-anchor="middle" x="543.6" y="-73" font-family="Helvetica,sans-Serif" font-size="10.00">/ServerSocket.hpp</text>
</a>
</g>
</g>
<!-- Node5&#45;&gt;Node6 -->
<g id="edge5_Node000005_Node000006" class="edge">
<title>Node5&#45;&gt;Node6</title>
<g id="a_edge5_Node000005_Node000006"><a xlink:title=" ">
<path fill="none" stroke="#63b8ff" d="M709.14,-203.92C722.08,-196.07 733.95,-185.94 741.6,-173 750.88,-157.32 752.8,-146.38 741.6,-132 725.13,-110.85 659,-97.24 607.65,-89.64"/>
<polygon fill="#63b8ff" stroke="#63b8ff" points="707.07,-201.06 700.04,-208.99 710.48,-207.18 707.07,-201.06"/>
</a>
</g>
</g>
<!-- Node8 -->
<g id="Node000008" class="node">
<title>Node8</title>
<g id="a_Node000008"><a xlink:href="_tls_accept_policy_8hpp.html" target="_top" xlink:title=" ">
<polygon fill="white" stroke="#666666" points="732.1,-167.5 549.1,-167.5 549.1,-137.5 732.1,-137.5 732.1,-167.5"/>
<text text-anchor="start" x="557.1" y="-155.5" font-family="Helvetica,sans-Serif" font-size="10.00">include/Hermes/Socket</text>
<text text-anchor="middle" x="640.6" y="-144.5" font-family="Helvetica,sans-Serif" font-size="10.00">/_base/Accept/TlsAcceptPolicy.hpp</text>
</a>
</g>
</g>
<!-- Node5&#45;&gt;Node8 -->
<g id="edge7_Node000005_Node000008" class="edge">
<title>Node5&#45;&gt;Node8</title>
<g id="a_edge7_Node000005_Node000008"><a xlink:title=" ">
<path fill="none" stroke="#63b8ff" d="M640.6,-198.61C640.6,-188.01 640.6,-176.57 640.6,-167.86"/>
<polygon fill="#63b8ff" stroke="#63b8ff" points="637.1,-198.79 640.6,-208.79 644.1,-198.79 637.1,-198.79"/>
</a>
</g>
</g>
<!-- Node7 -->
<g id="Node000007" class="node">
<title>Node7</title>
<g id="a_Node000007"><a xlink:href="_listener_socket_8hpp.html" target="_top" xlink:title=" ">
<polygon fill="white" stroke="#666666" points="607.6,-30 479.6,-30 479.6,0 607.6,0 607.6,-30"/>
<text text-anchor="start" x="487.6" y="-18" font-family="Helvetica,sans-Serif" font-size="10.00">include/Hermes/Socket</text>
<text text-anchor="middle" x="543.6" y="-7" font-family="Helvetica,sans-Serif" font-size="10.00">/ListenerSocket.hpp</text>
</a>
</g>
</g>
<!-- Node6&#45;&gt;Node7 -->
<g id="edge6_Node000006_Node000007" class="edge">
<title>Node6&#45;&gt;Node7</title>
<g id="a_edge6_Node000006_Node000007"><a xlink:title=" ">
<path fill="none" stroke="#63b8ff" d="M543.6,-55.54C543.6,-46.96 543.6,-37.61 543.6,-30.16"/>
<polygon fill="#63b8ff" stroke="#63b8ff" points="540.1,-55.8 543.6,-65.8 547.1,-55.8 540.1,-55.8"/>
</a>
</g>
</g>
<!-- Node8&#45;&gt;Node6 -->
<g id="edge8_Node000008_Node000006" class="edge">
<title>Node8&#45;&gt;Node6</title>
<g id="a_edge8_Node000008_Node000006"><a xlink:title=" ">
<path fill="none" stroke="#63b8ff" d="M612.61,-131.44C596.78,-120.1 577.4,-106.21 563.2,-96.04"/>
<polygon fill="#63b8ff" stroke="#63b8ff" points="610.81,-134.46 620.97,-137.44 614.88,-128.77 610.81,-134.46"/>
</a>
</g>
</g>
<!-- Node10 -->
<g id="Node000010" class="node">
<title>Node10</title>
<g id="a_Node000010"><a xlink:href="_client_socket_8hpp.html" target="_top" xlink:title=" ">
<polygon fill="white" stroke="#666666" points="249.6,-96 121.6,-96 121.6,-66 249.6,-66 249.6,-96"/>
<text text-anchor="start" x="129.6" y="-84" font-family="Helvetica,sans-Serif" font-size="10.00">include/Hermes/Socket</text>
<text text-anchor="middle" x="185.6" y="-73" font-family="Helvetica,sans-Serif" font-size="10.00">/ClientSocket.hpp</text>
</a>
</g>
</g>
<!-- Node9&#45;&gt;Node10 -->
<g id="edge10_Node000009_Node000010" class="edge">
<title>Node9&#45;&gt;Node10</title>
<g id="a_edge10_Node000009_Node000010"><a xlink:title=" ">
<path fill="none" stroke="#63b8ff" d="M38.43,-203.82C26.11,-195.86 14.74,-185.72 7.6,-173 -1.32,-157.11 -3.4,-146.52 7.6,-132 21.56,-113.58 76.14,-100.06 121.22,-91.76"/>
<polygon fill="#63b8ff" stroke="#63b8ff" points="36.69,-206.86 47.07,-208.98 40.28,-200.85 36.69,-206.86"/>
</a>
</g>
</g>
<!-- Node11 -->
<g id="Node000011" class="node">
<title>Node11</title>
<g id="a_Node000011"><a xlink:href="_tls_connect_policy_8hpp.html" target="_top" xlink:title=" ">
<polygon fill="white" stroke="#666666" points="180.1,-173 17.1,-173 17.1,-132 180.1,-132 180.1,-173"/>
<text text-anchor="start" x="25.1" y="-161" font-family="Helvetica,sans-Serif" font-size="10.00">include/Hermes/Socket</text>
<text text-anchor="start" x="25.1" y="-150" font-family="Helvetica,sans-Serif" font-size="10.00">/_base/Connection/TlsConnect</text>
<text text-anchor="middle" x="98.6" y="-139" font-family="Helvetica,sans-Serif" font-size="10.00">Policy.hpp</text>
</a>
</g>
</g>
<!-- Node9&#45;&gt;Node11 -->
<g id="edge11_Node000009_Node000011" class="edge">
<title>Node9&#45;&gt;Node11</title>
<g id="a_edge11_Node000009_Node000011"><a xlink:title=" ">
<path fill="none" stroke="#63b8ff" d="M98.6,-198.69C98.6,-190.08 98.6,-180.9 98.6,-173.07"/>
<polygon fill="#63b8ff" stroke="#63b8ff" points="95.1,-198.79 98.6,-208.79 102.1,-198.79 95.1,-198.79"/>
</a>
</g>
</g>
<!-- Node11&#45;&gt;Node10 -->
<g id="edge12_Node000011_Node000010" class="edge">
<title>Node11&#45;&gt;Node10</title>
<g id="a_edge12_Node000011_Node000010"><a xlink:title=" ">
<path fill="none" stroke="#63b8ff" d="M131.27,-125.41C143.74,-115.44 157.49,-104.46 168.03,-96.04"/>
<polygon fill="#63b8ff" stroke="#63b8ff" points="128.93,-122.79 123.3,-131.77 133.3,-128.26 128.93,-122.79"/>
</a>
</g>
</g>
<!-- Node12&#45;&gt;Node6 -->
<g id="edge15_Node000012_Node000006" class="edge">
<title>Node12&#45;&gt;Node6</title>
<g id="a_edge15_Node000012_Node000006"><a xlink:title=" ">
<path fill="none" stroke="#63b8ff" d="M482.38,-125.87C496.41,-115.81 511.98,-104.66 523.91,-96.11"/>
<polygon fill="#63b8ff" stroke="#63b8ff" points="479.97,-123.29 473.88,-131.96 484.05,-128.98 479.97,-123.29"/>
</a>
</g>
</g>
<!-- Node12&#45;&gt;Node10 -->
<g id="edge14_Node000012_Node000010" class="edge">
<title>Node12&#45;&gt;Node10</title>
<g id="a_edge14_Node000012_Node000010"><a xlink:title=" ">
<path fill="none" stroke="#63b8ff" d="M363.48,-129.37C322.41,-118.43 274.1,-105.56 238.19,-96"/>
<polygon fill="#63b8ff" stroke="#63b8ff" points="362.64,-132.76 373.21,-131.96 364.44,-126 362.64,-132.76"/>
</a>
</g>
</g>
<!-- Node13&#45;&gt;Node8 -->
<g id="edge17_Node000013_Node000008" class="edge">
<title>Node13&#45;&gt;Node8</title>
<g id="a_edge17_Node000013_Node000008"><a xlink:title=" ">
<path fill="none" stroke="#63b8ff" d="M370.89,-212.3C432.1,-198.96 518.03,-180.22 576.33,-167.51"/>
<polygon fill="#63b8ff" stroke="#63b8ff" points="369.93,-208.93 360.9,-214.48 371.42,-215.77 369.93,-208.93"/>
</a>
</g>
</g>
<!-- Node13&#45;&gt;Node11 -->
<g id="edge18_Node000013_Node000011" class="edge">
<title>Node13&#45;&gt;Node11</title>
<g id="a_edge18_Node000013_Node000011"><a xlink:title=" ">
<path fill="none" stroke="#63b8ff" d="M249.98,-210.84C220.04,-199.5 181.12,-184.76 150.25,-173.06"/>
<polygon fill="#63b8ff" stroke="#63b8ff" points="248.77,-214.12 259.36,-214.39 251.25,-207.58 248.77,-214.12"/>
</a>
</g>
</g>
<!-- Node14 -->
<g id="Node000014" class="node">
<title>Node14</title>
<g id="a_Node000014"><a xlink:href="_tls_transfer_policy_8hpp.html" target="_top" xlink:title=" ">
<polygon fill="white" stroke="#666666" points="344.6,-173 198.6,-173 198.6,-132 344.6,-132 344.6,-173"/>
<text text-anchor="start" x="206.6" y="-161" font-family="Helvetica,sans-Serif" font-size="10.00">include/Hermes/Socket</text>
<text text-anchor="start" x="206.6" y="-150" font-family="Helvetica,sans-Serif" font-size="10.00">/_base/Transfer/TlsTransfer</text>
<text text-anchor="middle" x="271.6" y="-139" font-family="Helvetica,sans-Serif" font-size="10.00">Policy.hpp</text>
</a>
</g>
</g>
<!-- Node13&#45;&gt;Node14 -->
<g id="edge19_Node000013_Node000014" class="edge">
<title>Node13&#45;&gt;Node14</title>
<g id="a_edge19_Node000013_Node000014"><a xlink:title=" ">
<path fill="none" stroke="#63b8ff" d="M288.73,-204.87C285.33,-194.69 281.41,-182.91 278.17,-173.2"/>
<polygon fill="#63b8ff" stroke="#63b8ff" points="285.42,-206.01 291.9,-214.39 292.06,-203.8 285.42,-206.01"/>
</a>
</g>
</g>
<!-- Node14&#45;&gt;Node6 -->
<g id="edge21_Node000014_Node000006" class="edge">
<title>Node14&#45;&gt;Node6</title>
<g id="a_edge21_Node000014_Node000006"><a xlink:title=" ">
<path fill="none" stroke="#63b8ff" d="M354.58,-130.3C398.14,-119.17 450.3,-105.84 488.78,-96.01"/>
<polygon fill="#63b8ff" stroke="#63b8ff" points="353.67,-126.92 344.85,-132.78 355.41,-133.7 353.67,-126.92"/>
</a>
</g>
</g>
<!-- Node14&#45;&gt;Node10 -->
<g id="edge20_Node000014_Node000010" class="edge">
<title>Node14&#45;&gt;Node10</title>
<g id="a_edge20_Node000014_Node000010"><a xlink:title=" ">
<path fill="none" stroke="#63b8ff" d="M239.31,-125.41C226.98,-115.44 213.4,-104.46 202.97,-96.04"/>
<polygon fill="#63b8ff" stroke="#63b8ff" points="237.21,-128.21 247.19,-131.77 241.61,-122.76 237.21,-128.21"/>
</a>
</g>
</g>
</g>
</svg>
