<?xml version="1.0" encoding="UTF-8" standalone="no"?>
<!DOCTYPE svg PUBLIC "-//W3C//DTD SVG 1.1//EN"
 "http://www.w3.org/Graphics/SVG/1.1/DTD/svg11.dtd">
<!-- Generated by graphviz version 2.43.0 (0)
 -->
<!-- Title: include/Hermes/Socket/_base/Accept/ITlsAcceptStateMachine.hpp Pages: 1 -->
<svg width="2982pt" height="368pt"
 viewBox="0.00 0.00 2981.91 368.00" xmlns="http://www.w3.org/2000/svg" xmlns:xlink="http://www.w3.org/1999/xlink">
<g id="graph0" class="graph" transform="scale(1 1) rotate(0) translate(4 364)">
<title>include/Hermes/Socket/_base/Accept/ITlsAcceptStateMachine.hpp</title>
<!-- Node1 -->
<g id="Node000001" class="node">
<title>Node1</title>
<g id="a_Node000001"><a xlink:title=" ">
<polygon fill="#999999" stroke="#666666" points="694.5,-360 531.5,-360 531.5,-319 694.5,-319 694.5,-360"/>
<text text-anchor="start" x="539.5" y="-348" font-family="Helvetica,sans-Serif" font-size="10.00">include/Hermes/Socket</text>
<text text-anchor="start" x="539.5" y="-337" font-family="Helvetica,sans-Serif" font-size="10.00">/_base/Accept/ITlsAcceptState</text>
<text text-anchor="middle" x="613" y="-326" font-family="Helvetica,sans-Serif" font-size="10.00">Machine.hpp</text>
</a>
</g>
</g>
<!-- Node2 -->
<g id="Node000002" class="node">
<title>Node2</title>
<g id="a_Node000002"><a xlink:href="__base_8hpp.html" target="_top" xlink:title=" ">
<polygon fill="white" stroke="#666666" points="684.5,-283 541.5,-283 541.5,-264 684.5,-264 684.5,-283"/>
<text text-anchor="middle" x="613" y="-271" font-family="Helvetica,sans-Serif" font-size="10.00">Hermes/Socket/_base.hpp</text>
</a>
</g>
</g>
<!-- Node1&#45;&gt;Node2 -->
<g id="edge1_Node000001_Node000002" class="edge">
<title>Node1&#45;&gt;Node2</title>
<g id="a_edge1_Node000001_Node000002"><a xlink:title=" ">
<path fill="none" stroke="#63b8ff" d="M613,-318.95C613,-310.85 613,-301.5 613,-293.47"/>
<polygon fill="#63b8ff" stroke="#63b8ff" points="616.5,-293.26 613,-283.26 609.5,-293.26 616.5,-293.26"/>
</a>
</g>
</g>
<!-- Node7 -->
<g id="Node000007" class="node">
<title>Node7</title>
<g id="a_Node000007"><a xlink:title=" ">
<polygon fill="#e0e0e0" stroke="#999999" points="370,-85 330,-85 330,-66 370,-66 370,-85"/>
<text text-anchor="middle" x="350" y="-73" font-family="Helvetica,sans-Serif" font-size="10.00">span</text>
</a>
</g>
</g>
<!-- Node1&#45;&gt;Node7 -->
<g id="edge41_Node000001_Node000007" class="edge">
<title>Node1&#45;&gt;Node7</title>
<g id="a_edge41_Node000001_Node000007"><a xlink:title=" ">
<path fill="none" stroke="#63b8ff" d="M560.73,-319C518.97,-301.05 461.57,-270.7 425,-228 395.15,-193.15 408.29,-172.65 387,-132 379.94,-118.51 370.37,-104.24 362.73,-93.54"/>
<polygon fill="#63b8ff" stroke="#63b8ff" points="365.35,-91.19 356.63,-85.18 359.69,-95.32 365.35,-91.19"/>
</a>
</g>
</g>
<!-- Node19 -->
<g id="Node000019" class="node">
<title>Node19</title>
<g id="a_Node000019"><a xlink:title=" ">
<polygon fill="#e0e0e0" stroke="#999999" points="2560,-19 2510,-19 2510,0 2560,0 2560,-19"/>
<text text-anchor="middle" x="2535" y="-7" font-family="Helvetica,sans-Serif" font-size="10.00">cstdint</text>
</a>
</g>
</g>
<!-- Node1&#45;&gt;Node19 -->
<g id="edge42_Node000001_Node000019" class="edge">
<title>Node1&#45;&gt;Node19</title>
<g id="a_edge42_Node000001_Node000019"><a xlink:title=" ">
<path fill="none" stroke="#63b8ff" d="M694.51,-338.55C1109.82,-338.27 2971,-330.55 2971,-214 2971,-214 2971,-214 2971,-146 2971,-104.68 2982.63,-82.73 2952,-55 2923.9,-29.57 2665.7,-16.07 2570.25,-11.92"/>
<polygon fill="#63b8ff" stroke="#63b8ff" points="2570.37,-8.42 2560.23,-11.49 2570.07,-15.41 2570.37,-8.42"/>
</a>
</g>
</g>
<!-- Node3 -->
<g id="Node000003" class="node">
<title>Node3</title>
<g id="a_Node000003"><a xlink:href="_endpoint_concept_8hpp.html" target="_top" xlink:title=" ">
<polygon fill="white" stroke="#666666" points="566,-228 434,-228 434,-198 566,-198 566,-228"/>
<text text-anchor="start" x="442" y="-216" font-family="Helvetica,sans-Serif" font-size="10.00">Hermes/Endpoint/_base</text>
<text text-anchor="middle" x="500" y="-205" font-family="Helvetica,sans-Serif" font-size="10.00">/EndpointConcept.hpp</text>
</a>
</g>
</g>
<!-- Node2&#45;&gt;Node3 -->
<g id="edge2_Node000002_Node000003" class="edge">
<title>Node2&#45;&gt;Node3</title>
<g id="a_edge2_Node000002_Node000003"><a xlink:title=" ">
<path fill="none" stroke="#63b8ff" d="M596.33,-263.87C580.57,-255.71 556.4,-243.2 536.21,-232.75"/>
<polygon fill="#63b8ff" stroke="#63b8ff" points="537.75,-229.6 527.26,-228.11 534.54,-235.82 537.75,-229.6"/>
</a>
</g>
</g>
<!-- Node4 -->
<g id="Node000004" class="node">
<title>Node4</title>
<g id="a_Node000004"><a xlink:href="_connection_error_enum_8hpp.html" target="_top" xlink:title=" ">
<polygon fill="white" stroke="#666666" points="378.5,-162 211.5,-162 211.5,-132 378.5,-132 378.5,-162"/>
<text text-anchor="start" x="219.5" y="-150" font-family="Helvetica,sans-Serif" font-size="10.00">Hermes/_base/ConnectionError</text>
<text text-anchor="middle" x="295" y="-139" font-family="Helvetica,sans-Serif" font-size="10.00">Enum.hpp</text>
</a>
</g>
</g>
<!-- Node2&#45;&gt;Node4 -->
<g id="edge36_Node000002_Node000004" class="edge">
<title>Node2&#45;&gt;Node4</title>
<g id="a_edge36_Node000002_Node000004"><a xlink:title=" ">
<path fill="none" stroke="#63b8ff" d="M556.42,-263.97C518.32,-257.07 467.46,-245.56 425,-228 387.1,-212.33 347.52,-186.37 322.13,-168.29"/>
<polygon fill="#63b8ff" stroke="#63b8ff" points="323.93,-165.27 313.77,-162.25 319.83,-170.94 323.93,-165.27"/>
</a>
</g>
</g>
<!-- Node8 -->
<g id="Node000008" class="node">
<title>Node8</title>
<g id="a_Node000008"><a xlink:title=" ">
<polygon fill="#e0e0e0" stroke="#999999" points="513.5,-85 388.5,-85 388.5,-66 513.5,-66 513.5,-85"/>
<text text-anchor="middle" x="451" y="-73" font-family="Helvetica,sans-Serif" font-size="10.00">stdexec/execution.hpp</text>
</a>
</g>
</g>
<!-- Node2&#45;&gt;Node8 -->
<g id="edge38_Node000002_Node000008" class="edge">
<title>Node2&#45;&gt;Node8</title>
<g id="a_edge38_Node000002_Node000008"><a xlink:title=" ">
<path fill="none" stroke="#63b8ff" d="M609.62,-263.72C603.8,-249.23 590.99,-219.76 575,-198 543.42,-155.01 496.23,-113.39 470.12,-91.79"/>
<polygon fill="#63b8ff" stroke="#63b8ff" points="472.08,-88.88 462.12,-85.26 467.65,-94.3 472.08,-88.88"/>
</a>
</g>
</g>
<!-- Node10 -->
<g id="Node000010" class="node">
<title>Node10</title>
<g id="a_Node000010"><a xlink:href="_os_api_8hpp.html" target="_top" xlink:title=" ">
<polygon fill="white" stroke="#666666" points="1621,-162 1503,-162 1503,-132 1621,-132 1621,-162"/>
<text text-anchor="start" x="1511" y="-150" font-family="Helvetica,sans-Serif" font-size="10.00">Hermes/_base/OsApi</text>
<text text-anchor="middle" x="1562" y="-139" font-family="Helvetica,sans-Serif" font-size="10.00">/OsApi.hpp</text>
</a>
</g>
</g>
<!-- Node2&#45;&gt;Node10 -->
<g id="edge37_Node000002_Node000010" class="edge">
<title>Node2&#45;&gt;Node10</title>
<g id="a_edge37_Node000002_Node000010"><a xlink:title=" ">
<path fill="none" stroke="#63b8ff" d="M614.56,-263.71C617.94,-247.51 627.64,-213.21 651,-198 720.89,-152.51 1292.26,-148.03 1492.77,-147.87"/>
<polygon fill="#63b8ff" stroke="#63b8ff" points="1492.89,-151.37 1502.89,-147.86 1492.89,-144.37 1492.89,-151.37"/>
</a>
</g>
</g>
<!-- Node31 -->
<g id="Node000031" class="node">
<title>Node31</title>
<g id="a_Node000031"><a xlink:title=" ">
<polygon fill="#e0e0e0" stroke="#999999" points="720,-222.5 660,-222.5 660,-203.5 720,-203.5 720,-222.5"/>
<text text-anchor="middle" x="690" y="-210.5" font-family="Helvetica,sans-Serif" font-size="10.00">concepts</text>
</a>
</g>
</g>
<!-- Node2&#45;&gt;Node31 -->
<g id="edge39_Node000002_Node000031" class="edge">
<title>Node2&#45;&gt;Node31</title>
<g id="a_edge39_Node000002_Node000031"><a xlink:title=" ">
<path fill="none" stroke="#63b8ff" d="M624.36,-263.87C636.42,-254.71 655.7,-240.06 670.25,-229.01"/>
<polygon fill="#63b8ff" stroke="#63b8ff" points="672.75,-231.5 678.59,-222.67 668.51,-225.93 672.75,-231.5"/>
</a>
</g>
</g>
<!-- Node32 -->
<g id="Node000032" class="node">
<title>Node32</title>
<g id="a_Node000032"><a xlink:title=" ">
<polygon fill="#e0e0e0" stroke="#999999" points="788,-222.5 738,-222.5 738,-203.5 788,-203.5 788,-222.5"/>
<text text-anchor="middle" x="763" y="-210.5" font-family="Helvetica,sans-Serif" font-size="10.00">ranges</text>
</a>
</g>
</g>
<!-- Node2&#45;&gt;Node32 -->
<g id="edge40_Node000002_Node000032" class="edge">
<title>Node2&#45;&gt;Node32</title>
<g id="a_edge40_Node000002_Node000032"><a xlink:title=" ">
<path fill="none" stroke="#63b8ff" d="M635.74,-263.96C659.17,-255.12 696.73,-240.83 729,-228 730.37,-227.45 731.77,-226.89 733.19,-226.32"/>
<polygon fill="#63b8ff" stroke="#63b8ff" points="734.59,-229.53 742.54,-222.52 731.95,-223.05 734.59,-229.53"/>
</a>
</g>
</g>
<!-- Node3&#45;&gt;Node4 -->
<g id="edge3_Node000003_Node000004" class="edge">
<title>Node3&#45;&gt;Node4</title>
<g id="a_edge3_Node000003_Node000004"><a xlink:title=" ">
<path fill="none" stroke="#63b8ff" d="M455.01,-197.95C424.04,-188.28 382.7,-175.38 349.8,-165.11"/>
<polygon fill="#63b8ff" stroke="#63b8ff" points="350.47,-161.65 339.88,-162.01 348.39,-168.33 350.47,-161.65"/>
</a>
</g>
</g>
<!-- Node3&#45;&gt;Node10 -->
<g id="edge9_Node000003_Node000010" class="edge">
<title>Node3&#45;&gt;Node10</title>
<g id="a_edge9_Node000003_Node000010"><a xlink:title=" ">
<path fill="none" stroke="#63b8ff" d="M566.08,-203.39C582.98,-201.4 601.15,-199.44 618,-198 944.49,-170.02 1335.93,-155.27 1492.4,-150.13"/>
<polygon fill="#63b8ff" stroke="#63b8ff" points="1492.93,-153.62 1502.81,-149.79 1492.7,-146.62 1492.93,-153.62"/>
</a>
</g>
</g>
<!-- Node5 -->
<g id="Node000005" class="node">
<title>Node5</title>
<g id="a_Node000005"><a xlink:title=" ">
<polygon fill="#e0e0e0" stroke="#999999" points="62,-85 0,-85 0,-66 62,-66 62,-85"/>
<text text-anchor="middle" x="31" y="-73" font-family="Helvetica,sans-Serif" font-size="10.00">expected</text>
</a>
</g>
</g>
<!-- Node4&#45;&gt;Node5 -->
<g id="edge4_Node000004_Node000005" class="edge">
<title>Node4&#45;&gt;Node5</title>
<g id="a_edge4_Node000004_Node000005"><a xlink:title=" ">
<path fill="none" stroke="#63b8ff" d="M211.26,-132.13C168.61,-123.87 116.32,-111.86 71,-96 65.93,-94.23 60.67,-91.98 55.69,-89.65"/>
<polygon fill="#63b8ff" stroke="#63b8ff" points="57.11,-86.44 46.59,-85.16 54.01,-92.72 57.11,-86.44"/>
</a>
</g>
</g>
<!-- Node6 -->
<g id="Node000006" class="node">
<title>Node6</title>
<g id="a_Node000006"><a xlink:title=" ">
<polygon fill="#e0e0e0" stroke="#999999" points="127.5,-85 80.5,-85 80.5,-66 127.5,-66 127.5,-85"/>
<text text-anchor="middle" x="104" y="-73" font-family="Helvetica,sans-Serif" font-size="10.00">vector</text>
</a>
</g>
</g>
<!-- Node4&#45;&gt;Node6 -->
<g id="edge5_Node000004_Node000006" class="edge">
<title>Node4&#45;&gt;Node6</title>
<g id="a_edge5_Node000004_Node000006"><a xlink:title=" ">
<path fill="none" stroke="#63b8ff" d="M238.95,-131.97C207.93,-123.32 169.07,-111.01 136,-96 132.41,-94.37 128.73,-92.42 125.2,-90.4"/>
<polygon fill="#63b8ff" stroke="#63b8ff" points="126.74,-87.23 116.38,-85.01 123.09,-93.21 126.74,-87.23"/>
</a>
</g>
</g>
<!-- Node4&#45;&gt;Node7 -->
<g id="edge6_Node000004_Node000007" class="edge">
<title>Node4&#45;&gt;Node7</title>
<g id="a_edge6_Node000004_Node000007"><a xlink:title=" ">
<path fill="none" stroke="#63b8ff" d="M306.13,-131.94C314.93,-120.81 327.26,-105.24 336.6,-93.43"/>
<polygon fill="#63b8ff" stroke="#63b8ff" points="339.6,-95.28 343.06,-85.27 334.11,-90.94 339.6,-95.28"/>
</a>
</g>
</g>
<!-- Node4&#45;&gt;Node8 -->
<g id="edge7_Node000004_Node000008" class="edge">
<title>Node4&#45;&gt;Node8</title>
<g id="a_edge7_Node000004_Node000008"><a xlink:title=" ">
<path fill="none" stroke="#63b8ff" d="M326.57,-131.94C354.64,-119.43 395.32,-101.31 422.44,-89.22"/>
<polygon fill="#63b8ff" stroke="#63b8ff" points="424.06,-92.33 431.77,-85.07 421.21,-85.94 424.06,-92.33"/>
</a>
</g>
</g>
<!-- Node9 -->
<g id="Node000009" class="node">
<title>Node9</title>
<g id="a_Node000009"><a xlink:title=" ">
<polygon fill="#e0e0e0" stroke="#999999" points="312.5,-90.5 145.5,-90.5 145.5,-60.5 312.5,-60.5 312.5,-90.5"/>
<text text-anchor="start" x="153.5" y="-78.5" font-family="Helvetica,sans-Serif" font-size="10.00">Hermes/_base/ConnectionError</text>
<text text-anchor="middle" x="229" y="-67.5" font-family="Helvetica,sans-Serif" font-size="10.00">Enum.tpp</text>
</a>
</g>
</g>
<!-- Node4&#45;&gt;Node9 -->
<g id="edge8_Node000004_Node000009" class="edge">
<title>Node4&#45;&gt;Node9</title>
<g id="a_edge8_Node000004_Node000009"><a xlink:title=" ">
<path fill="none" stroke="#63b8ff" d="M281.64,-131.94C272.34,-122.14 259.76,-108.89 249.23,-97.81"/>
<polygon fill="#63b8ff" stroke="#63b8ff" points="251.76,-95.38 242.34,-90.54 246.68,-100.2 251.76,-95.38"/>
</a>
</g>
</g>
<!-- Node11 -->
<g id="Node000011" class="node">
<title>Node11</title>
<g id="a_Node000011"><a xlink:title=" ">
<polygon fill="#e0e0e0" stroke="#999999" points="894.5,-19 817.5,-19 817.5,0 894.5,0 894.5,-19"/>
<text text-anchor="middle" x="856" y="-7" font-family="Helvetica,sans-Serif" font-size="10.00">sys/socket.h</text>
</a>
</g>
</g>
<!-- Node10&#45;&gt;Node11 -->
<g id="edge10_Node000010_Node000011" class="edge">
<title>Node10&#45;&gt;Node11</title>
<g id="a_edge10_Node000010_Node000011"><a xlink:title=" ">
<path fill="none" stroke="#63b8ff" d="M1502.74,-145.27C1292.56,-142.39 593.59,-130.26 561,-96 487.98,-19.24 705.98,-10.13 807.27,-9.9"/>
<polygon fill="#63b8ff" stroke="#63b8ff" points="807.27,-13.4 817.27,-9.9 807.28,-6.4 807.27,-13.4"/>
</a>
</g>
</g>
<!-- Node12 -->
<g id="Node000012" class="node">
<title>Node12</title>
<g id="a_Node000012"><a xlink:title=" ">
<polygon fill="#e0e0e0" stroke="#999999" points="1390,-19 1318,-19 1318,0 1390,0 1390,-19"/>
<text text-anchor="middle" x="1354" y="-7" font-family="Helvetica,sans-Serif" font-size="10.00">netinet/in.h</text>
</a>
</g>
</g>
<!-- Node10&#45;&gt;Node12 -->
<g id="edge11_Node000010_Node000012" class="edge">
<title>Node10&#45;&gt;Node12</title>
<g id="a_edge11_Node000010_Node000012"><a xlink:title=" ">
<path fill="none" stroke="#63b8ff" d="M1502.76,-142.69C1436.08,-137.59 1333.92,-125.13 1310,-96 1298.44,-81.92 1303.07,-71.85 1310,-55 1314.81,-43.31 1324.33,-33.05 1333.3,-25.34"/>
<polygon fill="#63b8ff" stroke="#63b8ff" points="1335.6,-27.98 1341.22,-19 1331.23,-22.51 1335.6,-27.98"/>
</a>
</g>
</g>
<!-- Node13 -->
<g id="Node000013" class="node">
<title>Node13</title>
<g id="a_Node000013"><a xlink:title=" ">
<polygon fill="#e0e0e0" stroke="#999999" points="1596.5,-85 1527.5,-85 1527.5,-66 1596.5,-66 1596.5,-85"/>
<text text-anchor="middle" x="1562" y="-73" font-family="Helvetica,sans-Serif" font-size="10.00">arpa/inet.h</text>
</a>
</g>
</g>
<!-- Node10&#45;&gt;Node13 -->
<g id="edge12_Node000010_Node000013" class="edge">
<title>Node10&#45;&gt;Node13</title>
<g id="a_edge12_Node000010_Node000013"><a xlink:title=" ">
<path fill="none" stroke="#63b8ff" d="M1562,-131.94C1562,-121.46 1562,-107.05 1562,-95.55"/>
<polygon fill="#63b8ff" stroke="#63b8ff" points="1565.5,-95.27 1562,-85.27 1558.5,-95.27 1565.5,-95.27"/>
</a>
</g>
</g>
<!-- Node14 -->
<g id="Node000014" class="node">
<title>Node14</title>
<g id="a_Node000014"><a xlink:title=" ">
<polygon fill="#e0e0e0" stroke="#999999" points="1701.5,-19 1648.5,-19 1648.5,0 1701.5,0 1701.5,-19"/>
<text text-anchor="middle" x="1675" y="-7" font-family="Helvetica,sans-Serif" font-size="10.00">netdb.h</text>
</a>
</g>
</g>
<!-- Node10&#45;&gt;Node14 -->
<g id="edge13_Node000010_Node000014" class="edge">
<title>Node10&#45;&gt;Node14</title>
<g id="a_edge13_Node000010_Node000014"><a xlink:title=" ">
<path fill="none" stroke="#63b8ff" d="M1574.87,-131.7C1583.73,-121.78 1595.72,-108.2 1606,-96 1625.89,-72.4 1648.2,-44.48 1661.93,-27.13"/>
<polygon fill="#63b8ff" stroke="#63b8ff" points="1664.82,-29.11 1668.26,-19.09 1659.32,-24.78 1664.82,-29.11"/>
</a>
</g>
</g>
<!-- Node15 -->
<g id="Node000015" class="node">
<title>Node15</title>
<g id="a_Node000015"><a xlink:title=" ">
<polygon fill="#e0e0e0" stroke="#999999" points="1871,-85 1815,-85 1815,-66 1871,-66 1871,-85"/>
<text text-anchor="middle" x="1843" y="-73" font-family="Helvetica,sans-Serif" font-size="10.00">unistd.h</text>
</a>
</g>
</g>
<!-- Node10&#45;&gt;Node15 -->
<g id="edge14_Node000010_Node000015" class="edge">
<title>Node10&#45;&gt;Node15</title>
<g id="a_edge14_Node000010_Node000015"><a xlink:title=" ">
<path fill="none" stroke="#63b8ff" d="M1621.45,-138.62C1671.65,-131.26 1744.93,-117.85 1806,-96 1810.71,-94.32 1815.56,-92.13 1820.14,-89.82"/>
<polygon fill="#63b8ff" stroke="#63b8ff" points="1821.86,-92.88 1829.02,-85.07 1818.55,-86.7 1821.86,-92.88"/>
</a>
</g>
</g>
<!-- Node16 -->
<g id="Node000016" class="node">
<title>Node16</title>
<g id="a_Node000016"><a xlink:href="_types_8hpp.html" target="_top" xlink:title=" ">
<polygon fill="white" stroke="#666666" points="2007,-90.5 1889,-90.5 1889,-60.5 2007,-60.5 2007,-90.5"/>
<text text-anchor="start" x="1897" y="-78.5" font-family="Helvetica,sans-Serif" font-size="10.00">Hermes/_base/OsApi</text>
<text text-anchor="middle" x="1948" y="-67.5" font-family="Helvetica,sans-Serif" font-size="10.00">/Types.hpp</text>
</a>
</g>
</g>
<!-- Node10&#45;&gt;Node16 -->
<g id="edge15_Node000010_Node000016" class="edge">
<title>Node10&#45;&gt;Node16</title>
<g id="a_edge15_Node000010_Node000016"><a xlink:title=" ">
<path fill="none" stroke="#63b8ff" d="M1621.02,-138.94C1685.17,-130.74 1790.51,-115.79 1880,-96 1883.87,-95.14 1887.84,-94.19 1891.83,-93.19"/>
<polygon fill="#63b8ff" stroke="#63b8ff" points="1892.95,-96.51 1901.74,-90.59 1891.18,-89.74 1892.95,-96.51"/>
</a>
</g>
</g>
<!-- Node18 -->
<g id="Node000018" class="node">
<title>Node18</title>
<g id="a_Node000018"><a xlink:href="_conversion_and_literals_8hpp.html" target="_top" xlink:title=" ">
<polygon fill="white" stroke="#666666" points="2175,-90.5 2025,-90.5 2025,-60.5 2175,-60.5 2175,-90.5"/>
<text text-anchor="start" x="2033" y="-78.5" font-family="Helvetica,sans-Serif" font-size="10.00">Hermes/_base/OsApi</text>
<text text-anchor="middle" x="2100" y="-67.5" font-family="Helvetica,sans-Serif" font-size="10.00">/ConversionAndLiterals.hpp</text>
</a>
</g>
</g>
<!-- Node10&#45;&gt;Node18 -->
<g id="edge17_Node000010_Node000018" class="edge">
<title>Node10&#45;&gt;Node18</title>
<g id="a_edge17_Node000010_Node000018"><a xlink:title=" ">
<path fill="none" stroke="#63b8ff" d="M1621.08,-141.74C1708.01,-134.96 1875.3,-119.99 2016,-96 2021.77,-95.02 2027.73,-93.88 2033.7,-92.66"/>
<polygon fill="#63b8ff" stroke="#63b8ff" points="2034.65,-96.03 2043.71,-90.53 2033.2,-89.19 2034.65,-96.03"/>
</a>
</g>
</g>
<!-- Node20 -->
<g id="Node000020" class="node">
<title>Node20</title>
<g id="a_Node000020"><a xlink:href="_macros_8hpp.html" target="_top" xlink:title=" ">
<polygon fill="white" stroke="#666666" points="1262,-90.5 1144,-90.5 1144,-60.5 1262,-60.5 1262,-90.5"/>
<text text-anchor="start" x="1152" y="-78.5" font-family="Helvetica,sans-Serif" font-size="10.00">Hermes/_base/OsApi</text>
<text text-anchor="middle" x="1203" y="-67.5" font-family="Helvetica,sans-Serif" font-size="10.00">/Macros.hpp</text>
</a>
</g>
</g>
<!-- Node10&#45;&gt;Node20 -->
<g id="edge19_Node000010_Node000020" class="edge">
<title>Node10&#45;&gt;Node20</title>
<g id="a_edge19_Node000010_Node000020"><a xlink:title=" ">
<path fill="none" stroke="#63b8ff" d="M1502.82,-137.21C1444.77,-128.22 1353.9,-113.18 1276,-96 1271.7,-95.05 1267.28,-94.02 1262.84,-92.94"/>
<polygon fill="#63b8ff" stroke="#63b8ff" points="1263.67,-89.54 1253.12,-90.51 1261.98,-96.33 1263.67,-89.54"/>
</a>
</g>
</g>
<!-- Node22 -->
<g id="Node000022" class="node">
<title>Node22</title>
<g id="a_Node000022"><a xlink:href="_address_family_enum_8hpp.html" target="_top" xlink:title=" ">
<polygon fill="white" stroke="#666666" points="746,-90.5 570,-90.5 570,-60.5 746,-60.5 746,-90.5"/>
<text text-anchor="start" x="578" y="-78.5" font-family="Helvetica,sans-Serif" font-size="10.00">Hermes/_base/OsApi</text>
<text text-anchor="middle" x="658" y="-67.5" font-family="Helvetica,sans-Serif" font-size="10.00">/Enums/AddressFamilyEnum.hpp</text>
</a>
</g>
</g>
<!-- Node10&#45;&gt;Node22 -->
<g id="edge22_Node000010_Node000022" class="edge">
<title>Node10&#45;&gt;Node22</title>
<g id="a_edge22_Node000010_Node000022"><a xlink:title=" ">
<path fill="none" stroke="#63b8ff" d="M1502.76,-145.09C1368.92,-142.44 1033.2,-132.41 755,-96 747.34,-95 739.37,-93.74 731.44,-92.36"/>
<polygon fill="#63b8ff" stroke="#63b8ff" points="731.91,-88.89 721.45,-90.55 730.66,-95.78 731.91,-88.89"/>
</a>
</g>
</g>
<!-- Node23 -->
<g id="Node000023" class="node">
<title>Node23</title>
<g id="a_Node000023"><a xlink:href="_protocol_base_type_enum_8hpp.html" target="_top" xlink:title=" ">
<polygon fill="white" stroke="#666666" points="1509.5,-90.5 1318.5,-90.5 1318.5,-60.5 1509.5,-60.5 1509.5,-90.5"/>
<text text-anchor="start" x="1326.5" y="-78.5" font-family="Helvetica,sans-Serif" font-size="10.00">Hermes/_base/OsApi</text>
<text text-anchor="middle" x="1414" y="-67.5" font-family="Helvetica,sans-Serif" font-size="10.00">/Enums/ProtocolBaseTypeEnum.hpp</text>
</a>
</g>
</g>
<!-- Node10&#45;&gt;Node23 -->
<g id="edge24_Node000010_Node000023" class="edge">
<title>Node10&#45;&gt;Node23</title>
<g id="a_edge24_Node000010_Node000023"><a xlink:title=" ">
<path fill="none" stroke="#63b8ff" d="M1532.05,-131.94C1509.28,-121.24 1477.77,-106.44 1453.02,-94.83"/>
<polygon fill="#63b8ff" stroke="#63b8ff" points="1454.44,-91.63 1443.91,-90.54 1451.47,-97.96 1454.44,-91.63"/>
</a>
</g>
</g>
<!-- Node24 -->
<g id="Node000024" class="node">
<title>Node24</title>
<g id="a_Node000024"><a xlink:href="_socket_shutdown_enum_8hpp.html" target="_top" xlink:title=" ">
<polygon fill="white" stroke="#666666" points="948.5,-90.5 763.5,-90.5 763.5,-60.5 948.5,-60.5 948.5,-90.5"/>
<text text-anchor="start" x="771.5" y="-78.5" font-family="Helvetica,sans-Serif" font-size="10.00">Hermes/_base/OsApi</text>
<text text-anchor="middle" x="856" y="-67.5" font-family="Helvetica,sans-Serif" font-size="10.00">/Enums/SocketShutdownEnum.hpp</text>
</a>
</g>
</g>
<!-- Node10&#45;&gt;Node24 -->
<g id="edge26_Node000010_Node000024" class="edge">
<title>Node10&#45;&gt;Node24</title>
<g id="a_edge26_Node000010_Node000024"><a xlink:title=" ">
<path fill="none" stroke="#63b8ff" d="M1502.62,-143.18C1394.09,-137.57 1156.6,-123.13 958,-96 950.13,-94.92 941.94,-93.64 933.78,-92.25"/>
<polygon fill="#63b8ff" stroke="#63b8ff" points="934.32,-88.8 923.87,-90.52 933.11,-95.69 934.32,-88.8"/>
</a>
</g>
</g>
<!-- Node25 -->
<g id="Node000025" class="node">
<title>Node25</title>
<g id="a_Node000025"><a xlink:href="_socket_type_enum_8hpp.html" target="_top" xlink:title=" ">
<polygon fill="white" stroke="#666666" points="1125.5,-90.5 966.5,-90.5 966.5,-60.5 1125.5,-60.5 1125.5,-90.5"/>
<text text-anchor="start" x="974.5" y="-78.5" font-family="Helvetica,sans-Serif" font-size="10.00">Hermes/_base/OsApi</text>
<text text-anchor="middle" x="1046" y="-67.5" font-family="Helvetica,sans-Serif" font-size="10.00">/Enums/SocketTypeEnum.hpp</text>
</a>
</g>
</g>
<!-- Node10&#45;&gt;Node25 -->
<g id="edge28_Node000010_Node000025" class="edge">
<title>Node10&#45;&gt;Node25</title>
<g id="a_edge28_Node000010_Node000025"><a xlink:title=" ">
<path fill="none" stroke="#63b8ff" d="M1502.68,-140.93C1419.97,-133.43 1265.48,-117.88 1135,-96 1128.86,-94.97 1122.5,-93.8 1116.14,-92.55"/>
<polygon fill="#63b8ff" stroke="#63b8ff" points="1116.66,-89.08 1106.16,-90.53 1115.27,-95.94 1116.66,-89.08"/>
</a>
</g>
</g>
<!-- Node26 -->
<g id="Node000026" class="node">
<title>Node26</title>
<g id="a_Node000026"><a xlink:href="_linux_2_encrypt_status_enum_8hpp.html" target="_top" xlink:title=" ">
<polygon fill="white" stroke="#666666" points="2345,-96 2193,-96 2193,-55 2345,-55 2345,-96"/>
<text text-anchor="start" x="2201" y="-84" font-family="Helvetica,sans-Serif" font-size="10.00">Hermes/_base/OsApi</text>
<text text-anchor="start" x="2201" y="-73" font-family="Helvetica,sans-Serif" font-size="10.00">/Enums/Linux/EncryptStatus</text>
<text text-anchor="middle" x="2269" y="-62" font-family="Helvetica,sans-Serif" font-size="10.00">Enum.hpp</text>
</a>
</g>
</g>
<!-- Node10&#45;&gt;Node26 -->
<g id="edge30_Node000010_Node000026" class="edge">
<title>Node10&#45;&gt;Node26</title>
<g id="a_edge30_Node000010_Node000026"><a xlink:title=" ">
<path fill="none" stroke="#63b8ff" d="M1621.07,-144.11C1730.25,-139.99 1971.01,-128.01 2182.59,-96.1"/>
<polygon fill="#63b8ff" stroke="#63b8ff" points="2183.29,-99.54 2192.65,-94.57 2182.23,-92.62 2183.29,-99.54"/>
</a>
</g>
</g>
<!-- Node27 -->
<g id="Node000027" class="node">
<title>Node27</title>
<g id="a_Node000027"><a xlink:href="_name_info_flags_8hpp.html" target="_top" xlink:title=" ">
<polygon fill="white" stroke="#666666" points="1797,-90.5 1653,-90.5 1653,-60.5 1797,-60.5 1797,-90.5"/>
<text text-anchor="start" x="1661" y="-78.5" font-family="Helvetica,sans-Serif" font-size="10.00">Hermes/_base/OsApi</text>
<text text-anchor="middle" x="1725" y="-67.5" font-family="Helvetica,sans-Serif" font-size="10.00">/Flags/NameInfoFlags.hpp</text>
</a>
</g>
</g>
<!-- Node10&#45;&gt;Node27 -->
<g id="edge31_Node000010_Node000027" class="edge">
<title>Node10&#45;&gt;Node27</title>
<g id="a_edge31_Node000010_Node000027"><a xlink:title=" ">
<path fill="none" stroke="#63b8ff" d="M1594.99,-131.94C1620.28,-121.15 1655.38,-106.18 1682.74,-94.52"/>
<polygon fill="#63b8ff" stroke="#63b8ff" points="1684.24,-97.69 1692.06,-90.54 1681.49,-91.25 1684.24,-97.69"/>
</a>
</g>
</g>
<!-- Node28 -->
<g id="Node000028" class="node">
<title>Node28</title>
<g id="a_Node000028"><a xlink:href="_linux_2_credential_flags_8hpp.html" target="_top" xlink:title=" ">
<polygon fill="white" stroke="#666666" points="2539,-90.5 2363,-90.5 2363,-60.5 2539,-60.5 2539,-90.5"/>
<text text-anchor="start" x="2371" y="-78.5" font-family="Helvetica,sans-Serif" font-size="10.00">Hermes/_base/OsApi</text>
<text text-anchor="middle" x="2451" y="-67.5" font-family="Helvetica,sans-Serif" font-size="10.00">/Flags/Linux/CredentialFlags.hpp</text>
</a>
</g>
</g>
<!-- Node10&#45;&gt;Node28 -->
<g id="edge33_Node000010_Node000028" class="edge">
<title>Node10&#45;&gt;Node28</title>
<g id="a_edge33_Node000010_Node000028"><a xlink:title=" ">
<path fill="none" stroke="#63b8ff" d="M1621.38,-144.99C1753.55,-142.15 2081.83,-131.78 2354,-96 2361.66,-94.99 2369.63,-93.74 2377.56,-92.35"/>
<polygon fill="#63b8ff" stroke="#63b8ff" points="2378.34,-95.77 2387.55,-90.54 2377.08,-88.88 2378.34,-95.77"/>
</a>
</g>
</g>
<!-- Node29 -->
<g id="Node000029" class="node">
<title>Node29</title>
<g id="a_Node000029"><a xlink:href="_linux_2_supported_protocols_flags_8hpp.html" target="_top" xlink:title=" ">
<polygon fill="white" stroke="#666666" points="2730.5,-96 2557.5,-96 2557.5,-55 2730.5,-55 2730.5,-96"/>
<text text-anchor="start" x="2565.5" y="-84" font-family="Helvetica,sans-Serif" font-size="10.00">Hermes/_base/OsApi</text>
<text text-anchor="start" x="2565.5" y="-73" font-family="Helvetica,sans-Serif" font-size="10.00">/Flags/Linux/SupportedProtocols</text>
<text text-anchor="middle" x="2644" y="-62" font-family="Helvetica,sans-Serif" font-size="10.00">Flags.hpp</text>
</a>
</g>
</g>
<!-- Node10&#45;&gt;Node29 -->
<g id="edge34_Node000010_Node000029" class="edge">
<title>Node10&#45;&gt;Node29</title>
<g id="a_edge34_Node000010_Node000029"><a xlink:title=" ">
<path fill="none" stroke="#63b8ff" d="M1621.17,-146.08C1773.34,-145.62 2190.7,-140.2 2547.48,-95.95"/>
<polygon fill="#63b8ff" stroke="#63b8ff" points="2548,-99.41 2557.49,-94.69 2547.13,-92.46 2548,-99.41"/>
</a>
</g>
</g>
<!-- Node30 -->
<g id="Node000030" class="node">
<title>Node30</title>
<g id="a_Node000030"><a xlink:href="_linux_2_s_channel_cred_flags_8hpp.html" target="_top" xlink:title=" ">
<polygon fill="white" stroke="#666666" points="2943,-90.5 2749,-90.5 2749,-60.5 2943,-60.5 2943,-90.5"/>
<text text-anchor="start" x="2757" y="-78.5" font-family="Helvetica,sans-Serif" font-size="10.00">Hermes/_base/OsApi</text>
<text text-anchor="middle" x="2846" y="-67.5" font-family="Helvetica,sans-Serif" font-size="10.00">/Flags/Linux/SChannelCredFlags.hpp</text>
</a>
</g>
</g>
<!-- Node10&#45;&gt;Node30 -->
<g id="edge35_Node000010_Node000030" class="edge">
<title>Node10&#45;&gt;Node30</title>
<g id="a_edge35_Node000010_Node000030"><a xlink:title=" ">
<path fill="none" stroke="#63b8ff" d="M1621.06,-146.4C1793.8,-146.94 2312.84,-144.12 2740,-96 2748.94,-94.99 2758.27,-93.68 2767.52,-92.2"/>
<polygon fill="#63b8ff" stroke="#63b8ff" points="2768.21,-95.63 2777.5,-90.54 2767.06,-88.73 2768.21,-95.63"/>
</a>
</g>
</g>
<!-- Node17 -->
<g id="Node000017" class="node">
<title>Node17</title>
<g id="a_Node000017"><a xlink:title=" ">
<polygon fill="#e0e0e0" stroke="#999999" points="1985,-19 1911,-19 1911,0 1985,0 1985,-19"/>
<text text-anchor="middle" x="1948" y="-7" font-family="Helvetica,sans-Serif" font-size="10.00">WinSock2.h</text>
</a>
</g>
</g>
<!-- Node16&#45;&gt;Node17 -->
<g id="edge16_Node000016_Node000017" class="edge">
<title>Node16&#45;&gt;Node17</title>
<g id="a_edge16_Node000016_Node000017"><a xlink:title=" ">
<path fill="none" stroke="#63b8ff" d="M1948,-60.3C1948,-51.2 1948,-39.29 1948,-29.4"/>
<polygon fill="#63b8ff" stroke="#63b8ff" points="1951.5,-29.34 1948,-19.34 1944.5,-29.34 1951.5,-29.34"/>
</a>
</g>
</g>
<!-- Node18&#45;&gt;Node19 -->
<g id="edge18_Node000018_Node000019" class="edge">
<title>Node18&#45;&gt;Node19</title>
<g id="a_edge18_Node000018_Node000019"><a xlink:title=" ">
<path fill="none" stroke="#63b8ff" d="M2156.77,-60.49C2165.85,-58.49 2175.16,-56.58 2184,-55 2298.6,-34.49 2435.91,-19.96 2499.48,-13.79"/>
<polygon fill="#63b8ff" stroke="#63b8ff" points="2500.13,-17.25 2509.76,-12.81 2499.47,-10.28 2500.13,-17.25"/>
</a>
</g>
</g>
<!-- Node20&#45;&gt;Node11 -->
<g id="edge21_Node000020_Node000011" class="edge">
<title>Node20&#45;&gt;Node11</title>
<g id="a_edge21_Node000020_Node000011"><a xlink:title=" ">
<path fill="none" stroke="#63b8ff" d="M1156.74,-60.42C1149.5,-58.46 1142.07,-56.57 1135,-55 1054.99,-37.22 960.56,-23.69 904.62,-16.44"/>
<polygon fill="#63b8ff" stroke="#63b8ff" points="905,-12.96 894.64,-15.16 904.11,-19.9 905,-12.96"/>
</a>
</g>
</g>
<!-- Node21 -->
<g id="Node000021" class="node">
<title>Node21</title>
<g id="a_Node000021"><a xlink:title=" ">
<polygon fill="#e0e0e0" stroke="#999999" points="1239.5,-19 1166.5,-19 1166.5,0 1239.5,0 1239.5,-19"/>
<text text-anchor="middle" x="1203" y="-7" font-family="Helvetica,sans-Serif" font-size="10.00">string_view</text>
</a>
</g>
</g>
<!-- Node20&#45;&gt;Node21 -->
<g id="edge20_Node000020_Node000021" class="edge">
<title>Node20&#45;&gt;Node21</title>
<g id="a_edge20_Node000020_Node000021"><a xlink:title=" ">
<path fill="none" stroke="#63b8ff" d="M1203,-60.3C1203,-51.2 1203,-39.29 1203,-29.4"/>
<polygon fill="#63b8ff" stroke="#63b8ff" points="1206.5,-29.34 1203,-19.34 1199.5,-29.34 1206.5,-29.34"/>
</a>
</g>
</g>
<!-- Node22&#45;&gt;Node11 -->
<g id="edge23_Node000022_Node000011" class="edge">
<title>Node22&#45;&gt;Node11</title>
<g id="a_edge23_Node000022_Node000011"><a xlink:title=" ">
<path fill="none" stroke="#63b8ff" d="M701.45,-60.45C736.94,-48.98 786.51,-32.96 819.86,-22.18"/>
<polygon fill="#63b8ff" stroke="#63b8ff" points="821.21,-25.42 829.65,-19.02 819.06,-18.76 821.21,-25.42"/>
</a>
</g>
</g>
<!-- Node23&#45;&gt;Node12 -->
<g id="edge25_Node000023_Node000012" class="edge">
<title>Node23&#45;&gt;Node12</title>
<g id="a_edge25_Node000023_Node000012"><a xlink:title=" ">
<path fill="none" stroke="#63b8ff" d="M1400.68,-60.3C1391.42,-50.42 1379.05,-37.22 1369.37,-26.89"/>
<polygon fill="#63b8ff" stroke="#63b8ff" points="1371.68,-24.25 1362.29,-19.34 1366.58,-29.03 1371.68,-24.25"/>
</a>
</g>
</g>
<!-- Node24&#45;&gt;Node11 -->
<g id="edge27_Node000024_Node000011" class="edge">
<title>Node24&#45;&gt;Node11</title>
<g id="a_edge27_Node000024_Node000011"><a xlink:title=" ">
<path fill="none" stroke="#63b8ff" d="M856,-60.3C856,-51.2 856,-39.29 856,-29.4"/>
<polygon fill="#63b8ff" stroke="#63b8ff" points="859.5,-29.34 856,-19.34 852.5,-29.34 859.5,-29.34"/>
</a>
</g>
</g>
<!-- Node25&#45;&gt;Node11 -->
<g id="edge29_Node000025_Node000011" class="edge">
<title>Node25&#45;&gt;Node11</title>
<g id="a_edge29_Node000025_Node000011"><a xlink:title=" ">
<path fill="none" stroke="#63b8ff" d="M1004.3,-60.45C970.4,-49.03 923.09,-33.1 891.1,-22.32"/>
<polygon fill="#63b8ff" stroke="#63b8ff" points="891.88,-18.89 881.29,-19.02 889.65,-25.53 891.88,-18.89"/>
</a>
</g>
</g>
<!-- Node27&#45;&gt;Node14 -->
<g id="edge32_Node000027_Node000014" class="edge">
<title>Node27&#45;&gt;Node14</title>
<g id="a_edge32_Node000027_Node000014"><a xlink:title=" ">
<path fill="none" stroke="#63b8ff" d="M1713.9,-60.3C1706.34,-50.61 1696.28,-37.74 1688.29,-27.51"/>
<polygon fill="#63b8ff" stroke="#63b8ff" points="1690.82,-25.07 1681.91,-19.34 1685.31,-29.38 1690.82,-25.07"/>
</a>
</g>
</g>
</g>
</svg>
