<?xml version="1.0" encoding="UTF-8" standalone="no"?>
<!DOCTYPE svg PUBLIC "-//W3C//DTD SVG 1.1//EN"
 "http://www.w3.org/Graphics/SVG/1.1/DTD/svg11.dtd">
<!-- Generated by graphviz version 2.43.0 (0)
 -->
<!-- Title: include/Hermes/Socket/_base/Connection/ITlsConnectStateMachine.hpp Pages: 1 -->
<svg width="4138pt" height="368pt"
 viewBox="0.00 0.00 4138.00 368.00" xmlns="http://www.w3.org/2000/svg" xmlns:xlink="http://www.w3.org/1999/xlink">
<g id="graph0" class="graph" transform="scale(1 1) rotate(0) translate(4 364)">
<title>include/Hermes/Socket/_base/Connection/ITlsConnectStateMachine.hpp</title>
<!-- Node1 -->
<g id="Node000001" class="node">
<title>Node1</title>
<g id="a_Node000001"><a xlink:title=" ">
<polygon fill="#999999" stroke="#666666" points="3473.5,-360 3307.5,-360 3307.5,-319 3473.5,-319 3473.5,-360"/>
<text text-anchor="start" x="3315.5" y="-348" font-family="Helvetica,sans-Serif" font-size="10.00">include/Hermes/Socket</text>
<text text-anchor="start" x="3315.5" y="-337" font-family="Helvetica,sans-Serif" font-size="10.00">/_base/Connection/ITlsConnect</text>
<text text-anchor="middle" x="3390.5" y="-326" font-family="Helvetica,sans-Serif" font-size="10.00">StateMachine.hpp</text>
</a>
</g>
</g>
<!-- Node2 -->
<g id="Node000002" class="node">
<title>Node2</title>
<g id="a_Node000002"><a xlink:href="__base_8hpp.html" target="_top" xlink:title=" ">
<polygon fill="white" stroke="#666666" points="3706,-283 3563,-283 3563,-264 3706,-264 3706,-283"/>
<text text-anchor="middle" x="3634.5" y="-271" font-family="Helvetica,sans-Serif" font-size="10.00">Hermes/Socket/_base.hpp</text>
</a>
</g>
</g>
<!-- Node1&#45;&gt;Node2 -->
<g id="edge1_Node000001_Node000002" class="edge">
<title>Node1&#45;&gt;Node2</title>
<g id="a_edge1_Node000001_Node000002"><a xlink:title=" ">
<path fill="none" stroke="#63b8ff" d="M3465.03,-318.95C3506.74,-308.01 3557.23,-294.77 3592.19,-285.6"/>
<polygon fill="#63b8ff" stroke="#63b8ff" points="3593.28,-288.93 3602.06,-283.01 3591.5,-282.16 3593.28,-288.93"/>
</a>
</g>
</g>
<!-- Node7 -->
<g id="Node000007" class="node">
<title>Node7</title>
<g id="a_Node000007"><a xlink:title=" ">
<polygon fill="#e0e0e0" stroke="#999999" points="3416.5,-85 3376.5,-85 3376.5,-66 3416.5,-66 3416.5,-85"/>
<text text-anchor="middle" x="3396.5" y="-73" font-family="Helvetica,sans-Serif" font-size="10.00">span</text>
</a>
</g>
</g>
<!-- Node1&#45;&gt;Node7 -->
<g id="edge57_Node000001_Node000007" class="edge">
<title>Node1&#45;&gt;Node7</title>
<g id="a_edge57_Node000001_Node000007"><a xlink:title=" ">
<path fill="none" stroke="#63b8ff" d="M3390.95,-318.81C3392.07,-269.99 3394.96,-143.88 3396.06,-95.65"/>
<polygon fill="#63b8ff" stroke="#63b8ff" points="3399.57,-95.47 3396.3,-85.39 3392.57,-95.31 3399.57,-95.47"/>
</a>
</g>
</g>
<!-- Node18 -->
<g id="Node000018" class="node">
<title>Node18</title>
<g id="a_Node000018"><a xlink:title=" ">
<polygon fill="#e0e0e0" stroke="#999999" points="3321.5,-19 3271.5,-19 3271.5,0 3321.5,0 3321.5,-19"/>
<text text-anchor="middle" x="3296.5" y="-7" font-family="Helvetica,sans-Serif" font-size="10.00">cstdint</text>
</a>
</g>
</g>
<!-- Node1&#45;&gt;Node18 -->
<g id="edge58_Node000001_Node000018" class="edge">
<title>Node1&#45;&gt;Node18</title>
<g id="a_edge58_Node000001_Node000018"><a xlink:title=" ">
<path fill="none" stroke="#63b8ff" d="M3379.46,-318.92C3367.02,-294.96 3348.5,-252.78 3348.5,-214 3348.5,-214 3348.5,-214 3348.5,-146 3348.5,-104.68 3346.42,-92.69 3329.5,-55 3324.99,-44.95 3317.9,-34.98 3311.46,-27.04"/>
<polygon fill="#63b8ff" stroke="#63b8ff" points="3314.01,-24.64 3304.86,-19.3 3308.68,-29.18 3314.01,-24.64"/>
</a>
</g>
</g>
<!-- Node3 -->
<g id="Node000003" class="node">
<title>Node3</title>
<g id="a_Node000003"><a xlink:href="_endpoint_concept_8hpp.html" target="_top" xlink:title=" ">
<polygon fill="white" stroke="#666666" points="3550.5,-228 3418.5,-228 3418.5,-198 3550.5,-198 3550.5,-228"/>
<text text-anchor="start" x="3426.5" y="-216" font-family="Helvetica,sans-Serif" font-size="10.00">Hermes/Endpoint/_base</text>
<text text-anchor="middle" x="3484.5" y="-205" font-family="Helvetica,sans-Serif" font-size="10.00">/EndpointConcept.hpp</text>
</a>
</g>
</g>
<!-- Node2&#45;&gt;Node3 -->
<g id="edge2_Node000002_Node000003" class="edge">
<title>Node2&#45;&gt;Node3</title>
<g id="a_edge2_Node000002_Node000003"><a xlink:title=" ">
<path fill="none" stroke="#63b8ff" d="M3612.69,-263.99C3591.1,-255.57 3557.4,-242.43 3529.97,-231.73"/>
<polygon fill="#63b8ff" stroke="#63b8ff" points="3531.15,-228.44 3520.56,-228.06 3528.61,-234.96 3531.15,-228.44"/>
</a>
</g>
</g>
<!-- Node4 -->
<g id="Node000004" class="node">
<title>Node4</title>
<g id="a_Node000004"><a xlink:href="_connection_error_enum_8hpp.html" target="_top" xlink:title=" ">
<polygon fill="white" stroke="#666666" points="3738,-162 3571,-162 3571,-132 3738,-132 3738,-162"/>
<text text-anchor="start" x="3579" y="-150" font-family="Helvetica,sans-Serif" font-size="10.00">Hermes/_base/ConnectionError</text>
<text text-anchor="middle" x="3654.5" y="-139" font-family="Helvetica,sans-Serif" font-size="10.00">Enum.hpp</text>
</a>
</g>
</g>
<!-- Node2&#45;&gt;Node4 -->
<g id="edge53_Node000002_Node000004" class="edge">
<title>Node2&#45;&gt;Node4</title>
<g id="a_edge53_Node000002_Node000004"><a xlink:title=" ">
<path fill="none" stroke="#63b8ff" d="M3660.01,-263.9C3676.19,-256.96 3695.85,-245.44 3705.5,-228 3711.96,-216.33 3710.66,-210.29 3705.5,-198 3700.75,-186.68 3692.04,-176.64 3683.15,-168.58"/>
<polygon fill="#63b8ff" stroke="#63b8ff" points="3685.29,-165.8 3675.39,-162.03 3680.77,-171.15 3685.29,-165.8"/>
</a>
</g>
</g>
<!-- Node9 -->
<g id="Node000009" class="node">
<title>Node9</title>
<g id="a_Node000009"><a xlink:title=" ">
<polygon fill="#e0e0e0" stroke="#999999" points="4130,-85 4005,-85 4005,-66 4130,-66 4130,-85"/>
<text text-anchor="middle" x="4067.5" y="-73" font-family="Helvetica,sans-Serif" font-size="10.00">stdexec/execution.hpp</text>
</a>
</g>
</g>
<!-- Node2&#45;&gt;Node9 -->
<g id="edge54_Node000002_Node000009" class="edge">
<title>Node2&#45;&gt;Node9</title>
<g id="a_edge54_Node000002_Node000009"><a xlink:title=" ">
<path fill="none" stroke="#63b8ff" d="M3653.38,-263.95C3721.89,-232.94 3957.61,-126.24 4039.34,-89.25"/>
<polygon fill="#63b8ff" stroke="#63b8ff" points="4040.85,-92.41 4048.52,-85.09 4037.96,-86.03 4040.85,-92.41"/>
</a>
</g>
</g>
<!-- Node39 -->
<g id="Node000039" class="node">
<title>Node39</title>
<g id="a_Node000039"><a xlink:title=" ">
<polygon fill="#e0e0e0" stroke="#999999" points="3628.5,-222.5 3568.5,-222.5 3568.5,-203.5 3628.5,-203.5 3628.5,-222.5"/>
<text text-anchor="middle" x="3598.5" y="-210.5" font-family="Helvetica,sans-Serif" font-size="10.00">concepts</text>
</a>
</g>
</g>
<!-- Node2&#45;&gt;Node39 -->
<g id="edge55_Node000002_Node000039" class="edge">
<title>Node2&#45;&gt;Node39</title>
<g id="a_edge55_Node000002_Node000039"><a xlink:title=" ">
<path fill="none" stroke="#63b8ff" d="M3629.19,-263.87C3623.92,-255.31 3615.71,-241.97 3609.11,-231.24"/>
<polygon fill="#63b8ff" stroke="#63b8ff" points="3612.06,-229.35 3603.83,-222.67 3606.09,-233.02 3612.06,-229.35"/>
</a>
</g>
</g>
<!-- Node40 -->
<g id="Node000040" class="node">
<title>Node40</title>
<g id="a_Node000040"><a xlink:title=" ">
<polygon fill="#e0e0e0" stroke="#999999" points="3696.5,-222.5 3646.5,-222.5 3646.5,-203.5 3696.5,-203.5 3696.5,-222.5"/>
<text text-anchor="middle" x="3671.5" y="-210.5" font-family="Helvetica,sans-Serif" font-size="10.00">ranges</text>
</a>
</g>
</g>
<!-- Node2&#45;&gt;Node40 -->
<g id="edge56_Node000002_Node000040" class="edge">
<title>Node2&#45;&gt;Node40</title>
<g id="a_edge56_Node000002_Node000040"><a xlink:title=" ">
<path fill="none" stroke="#63b8ff" d="M3639.96,-263.87C3645.37,-255.31 3653.81,-241.97 3660.6,-231.24"/>
<polygon fill="#63b8ff" stroke="#63b8ff" points="3663.63,-232.99 3666.02,-222.67 3657.71,-229.25 3663.63,-232.99"/>
</a>
</g>
</g>
<!-- Node3&#45;&gt;Node4 -->
<g id="edge3_Node000003_Node000004" class="edge">
<title>Node3&#45;&gt;Node4</title>
<g id="a_edge3_Node000003_Node000004"><a xlink:title=" ">
<path fill="none" stroke="#63b8ff" d="M3521.81,-197.95C3547.05,-188.45 3580.59,-175.82 3607.64,-165.64"/>
<polygon fill="#63b8ff" stroke="#63b8ff" points="3609.15,-168.81 3617.28,-162.01 3606.69,-162.26 3609.15,-168.81"/>
</a>
</g>
</g>
<!-- Node12 -->
<g id="Node000012" class="node">
<title>Node12</title>
<g id="a_Node000012"><a xlink:href="_win_api_8hpp.html" target="_top" xlink:title=" ">
<polygon fill="white" stroke="#666666" points="1879.5,-162 1755.5,-162 1755.5,-132 1879.5,-132 1879.5,-162"/>
<text text-anchor="start" x="1763.5" y="-150" font-family="Helvetica,sans-Serif" font-size="10.00">Hermes/_base/WinApi</text>
<text text-anchor="middle" x="1817.5" y="-139" font-family="Helvetica,sans-Serif" font-size="10.00">/WinApi.hpp</text>
</a>
</g>
</g>
<!-- Node3&#45;&gt;Node12 -->
<g id="edge11_Node000003_Node000012" class="edge">
<title>Node3&#45;&gt;Node12</title>
<g id="a_edge11_Node000003_Node000012"><a xlink:title=" ">
<path fill="none" stroke="#63b8ff" d="M3418.38,-209.46C3153.02,-199.27 2166.41,-161.4 1889.93,-150.78"/>
<polygon fill="#63b8ff" stroke="#63b8ff" points="1889.75,-147.27 1879.62,-150.39 1889.48,-154.27 1889.75,-147.27"/>
</a>
</g>
</g>
<!-- Node5 -->
<g id="Node000005" class="node">
<title>Node5</title>
<g id="a_Node000005"><a xlink:title=" ">
<polygon fill="#e0e0e0" stroke="#999999" points="3986.5,-85 3924.5,-85 3924.5,-66 3986.5,-66 3986.5,-85"/>
<text text-anchor="middle" x="3955.5" y="-73" font-family="Helvetica,sans-Serif" font-size="10.00">expected</text>
</a>
</g>
</g>
<!-- Node4&#45;&gt;Node5 -->
<g id="edge4_Node000004_Node000005" class="edge">
<title>Node4&#45;&gt;Node5</title>
<g id="a_edge4_Node000004_Node000005"><a xlink:title=" ">
<path fill="none" stroke="#63b8ff" d="M3738.04,-132.62C3801.82,-121.92 3884.09,-106.96 3916.5,-96 3921.57,-94.29 3926.81,-92.03 3931.75,-89.67"/>
<polygon fill="#63b8ff" stroke="#63b8ff" points="3933.41,-92.75 3940.73,-85.09 3930.23,-86.51 3933.41,-92.75"/>
</a>
</g>
</g>
<!-- Node6 -->
<g id="Node000006" class="node">
<title>Node6</title>
<g id="a_Node000006"><a xlink:title=" ">
<polygon fill="#e0e0e0" stroke="#999999" points="3482,-85 3435,-85 3435,-66 3482,-66 3482,-85"/>
<text text-anchor="middle" x="3458.5" y="-73" font-family="Helvetica,sans-Serif" font-size="10.00">vector</text>
</a>
</g>
</g>
<!-- Node4&#45;&gt;Node6 -->
<g id="edge5_Node000004_Node000006" class="edge">
<title>Node4&#45;&gt;Node6</title>
<g id="a_edge5_Node000004_Node000006"><a xlink:title=" ">
<path fill="none" stroke="#63b8ff" d="M3597.11,-131.96C3565.32,-123.31 3525.48,-111 3491.5,-96 3487.7,-94.32 3483.8,-92.31 3480.07,-90.22"/>
<polygon fill="#63b8ff" stroke="#63b8ff" points="3481.68,-87.1 3471.29,-85.02 3478.11,-93.13 3481.68,-87.1"/>
</a>
</g>
</g>
<!-- Node4&#45;&gt;Node7 -->
<g id="edge6_Node000004_Node000007" class="edge">
<title>Node4&#45;&gt;Node7</title>
<g id="a_edge6_Node000004_Node000007"><a xlink:title=" ">
<path fill="none" stroke="#63b8ff" d="M3570.79,-135.06C3526.69,-127.48 3472.39,-115.19 3426.5,-96 3422.97,-94.52 3419.4,-92.63 3416.01,-90.6"/>
<polygon fill="#63b8ff" stroke="#63b8ff" points="3417.92,-87.67 3407.64,-85.12 3414.09,-93.52 3417.92,-87.67"/>
</a>
</g>
</g>
<!-- Node8 -->
<g id="Node000008" class="node">
<title>Node8</title>
<g id="a_Node000008"><a xlink:title=" ">
<polygon fill="#e0e0e0" stroke="#999999" points="3569,-85 3500,-85 3500,-66 3569,-66 3569,-85"/>
<text text-anchor="middle" x="3534.5" y="-73" font-family="Helvetica,sans-Serif" font-size="10.00">type_traits</text>
</a>
</g>
</g>
<!-- Node4&#45;&gt;Node8 -->
<g id="edge7_Node000004_Node000008" class="edge">
<title>Node4&#45;&gt;Node8</title>
<g id="a_edge7_Node000004_Node000008"><a xlink:title=" ">
<path fill="none" stroke="#63b8ff" d="M3630.22,-131.94C3609.19,-119.76 3578.97,-102.26 3558.14,-90.19"/>
<polygon fill="#63b8ff" stroke="#63b8ff" points="3559.7,-87.05 3549.29,-85.07 3556.19,-93.11 3559.7,-87.05"/>
</a>
</g>
</g>
<!-- Node4&#45;&gt;Node9 -->
<g id="edge8_Node000004_Node000009" class="edge">
<title>Node4&#45;&gt;Node9</title>
<g id="a_edge8_Node000004_Node000009"><a xlink:title=" ">
<path fill="none" stroke="#63b8ff" d="M3738.17,-133.99C3835.04,-120.04 3982.98,-98.6 3995.5,-96 4006.57,-93.7 4018.46,-90.7 4029.32,-87.75"/>
<polygon fill="#63b8ff" stroke="#63b8ff" points="4030.26,-91.12 4038.96,-85.07 4028.39,-84.37 4030.26,-91.12"/>
</a>
</g>
</g>
<!-- Node10 -->
<g id="Node000010" class="node">
<title>Node10</title>
<g id="a_Node000010"><a xlink:title=" ">
<polygon fill="#e0e0e0" stroke="#999999" points="3721.5,-85 3587.5,-85 3587.5,-66 3721.5,-66 3721.5,-85"/>
<text text-anchor="middle" x="3654.5" y="-73" font-family="Helvetica,sans-Serif" font-size="10.00">exec/any_sender_of.hpp</text>
</a>
</g>
</g>
<!-- Node4&#45;&gt;Node10 -->
<g id="edge9_Node000004_Node000010" class="edge">
<title>Node4&#45;&gt;Node10</title>
<g id="a_edge9_Node000004_Node000010"><a xlink:title=" ">
<path fill="none" stroke="#63b8ff" d="M3654.5,-131.94C3654.5,-121.46 3654.5,-107.05 3654.5,-95.55"/>
<polygon fill="#63b8ff" stroke="#63b8ff" points="3658,-95.27 3654.5,-85.27 3651,-95.27 3658,-95.27"/>
</a>
</g>
</g>
<!-- Node11 -->
<g id="Node000011" class="node">
<title>Node11</title>
<g id="a_Node000011"><a xlink:title=" ">
<polygon fill="#e0e0e0" stroke="#999999" points="3907,-90.5 3740,-90.5 3740,-60.5 3907,-60.5 3907,-90.5"/>
<text text-anchor="start" x="3748" y="-78.5" font-family="Helvetica,sans-Serif" font-size="10.00">Hermes/_base/ConnectionError</text>
<text text-anchor="middle" x="3823.5" y="-67.5" font-family="Helvetica,sans-Serif" font-size="10.00">Enum.tpp</text>
</a>
</g>
</g>
<!-- Node4&#45;&gt;Node11 -->
<g id="edge10_Node000004_Node000011" class="edge">
<title>Node4&#45;&gt;Node11</title>
<g id="a_edge10_Node000004_Node000011"><a xlink:title=" ">
<path fill="none" stroke="#63b8ff" d="M3688.7,-131.94C3715.04,-121.1 3751.64,-106.05 3780.06,-94.37"/>
<polygon fill="#63b8ff" stroke="#63b8ff" points="3781.43,-97.58 3789.35,-90.54 3778.77,-91.11 3781.43,-97.58"/>
</a>
</g>
</g>
<!-- Node13 -->
<g id="Node000013" class="node">
<title>Node13</title>
<g id="a_Node000013"><a xlink:title=" ">
<polygon fill="#e0e0e0" stroke="#999999" points="3153,-85 3084,-85 3084,-66 3153,-66 3153,-85"/>
<text text-anchor="middle" x="3118.5" y="-73" font-family="Helvetica,sans-Serif" font-size="10.00">ws2tcpip.h</text>
</a>
</g>
</g>
<!-- Node12&#45;&gt;Node13 -->
<g id="edge12_Node000012_Node000013" class="edge">
<title>Node12&#45;&gt;Node13</title>
<g id="a_edge12_Node000012_Node000013"><a xlink:title=" ">
<path fill="none" stroke="#63b8ff" d="M1879.74,-146.29C2099.57,-146.87 2838.63,-145.05 3069.5,-96 3077.01,-94.4 3084.86,-91.76 3092.02,-88.93"/>
<polygon fill="#63b8ff" stroke="#63b8ff" points="3093.41,-92.14 3101.26,-85.03 3090.69,-85.69 3093.41,-92.14"/>
</a>
</g>
</g>
<!-- Node14 -->
<g id="Node000014" class="node">
<title>Node14</title>
<g id="a_Node000014"><a xlink:title=" ">
<polygon fill="#e0e0e0" stroke="#999999" points="1230,-19 1159,-19 1159,0 1230,0 1230,-19"/>
<text text-anchor="middle" x="1194.5" y="-7" font-family="Helvetica,sans-Serif" font-size="10.00">winsock2.h</text>
</a>
</g>
</g>
<!-- Node12&#45;&gt;Node14 -->
<g id="edge13_Node000012_Node000014" class="edge">
<title>Node12&#45;&gt;Node14</title>
<g id="a_edge13_Node000012_Node000014"><a xlink:title=" ">
<path fill="none" stroke="#63b8ff" d="M1755.46,-144.97C1609.52,-141.96 1253.71,-131.08 1213.5,-96 1194.73,-79.62 1192.2,-49.19 1192.82,-29.4"/>
<polygon fill="#63b8ff" stroke="#63b8ff" points="1196.32,-29.35 1193.44,-19.16 1189.34,-28.93 1196.32,-29.35"/>
</a>
</g>
</g>
<!-- Node15 -->
<g id="Node000015" class="node">
<title>Node15</title>
<g id="a_Node000015"><a xlink:title=" ">
<polygon fill="#e0e0e0" stroke="#999999" points="1691,-19 1622,-19 1622,0 1691,0 1691,-19"/>
<text text-anchor="middle" x="1656.5" y="-7" font-family="Helvetica,sans-Serif" font-size="10.00">schannel.h</text>
</a>
</g>
</g>
<!-- Node12&#45;&gt;Node15 -->
<g id="edge14_Node000012_Node000015" class="edge">
<title>Node12&#45;&gt;Node15</title>
<g id="a_edge14_Node000012_Node000015"><a xlink:title=" ">
<path fill="none" stroke="#63b8ff" d="M1807.88,-131.94C1792.3,-109.45 1761.86,-66.73 1747.5,-55 1730.72,-41.29 1709.02,-30.47 1691.02,-22.94"/>
<polygon fill="#63b8ff" stroke="#63b8ff" points="1692.04,-19.57 1681.45,-19.09 1689.42,-26.07 1692.04,-19.57"/>
</a>
</g>
</g>
<!-- Node16 -->
<g id="Node000016" class="node">
<title>Node16</title>
<g id="a_Node000016"><a xlink:title=" ">
<polygon fill="#e0e0e0" stroke="#999999" points="2508,-19 2463,-19 2463,0 2508,0 2508,-19"/>
<text text-anchor="middle" x="2485.5" y="-7" font-family="Helvetica,sans-Serif" font-size="10.00">sspi.h</text>
</a>
</g>
</g>
<!-- Node12&#45;&gt;Node16 -->
<g id="edge15_Node000012_Node000016" class="edge">
<title>Node12&#45;&gt;Node16</title>
<g id="a_edge15_Node000012_Node000016"><a xlink:title=" ">
<path fill="none" stroke="#63b8ff" d="M1879.82,-145.81C2122.91,-144.76 2996.12,-138.07 3036.5,-96 3049.12,-82.85 3048.86,-68.39 3036.5,-55 3001.28,-16.82 2631.49,-11.39 2518.27,-10.62"/>
<polygon fill="#63b8ff" stroke="#63b8ff" points="2518.15,-7.12 2508.13,-10.56 2518.11,-14.12 2518.15,-7.12"/>
</a>
</g>
</g>
<!-- Node17 -->
<g id="Node000017" class="node">
<title>Node17</title>
<g id="a_Node000017"><a xlink:href="_conversion_and_literals_8hpp.html" target="_top" xlink:title=" ">
<polygon fill="white" stroke="#666666" points="3320.5,-90.5 3170.5,-90.5 3170.5,-60.5 3320.5,-60.5 3320.5,-90.5"/>
<text text-anchor="start" x="3178.5" y="-78.5" font-family="Helvetica,sans-Serif" font-size="10.00">Hermes/_base/WinApi</text>
<text text-anchor="middle" x="3245.5" y="-67.5" font-family="Helvetica,sans-Serif" font-size="10.00">/ConversionAndLiterals.hpp</text>
</a>
</g>
</g>
<!-- Node12&#45;&gt;Node17 -->
<g id="edge16_Node000012_Node000017" class="edge">
<title>Node12&#45;&gt;Node17</title>
<g id="a_edge16_Node000012_Node000017"><a xlink:title=" ">
<path fill="none" stroke="#63b8ff" d="M1879.73,-145.29C2109.48,-142.4 2909.65,-130.08 3162.5,-96 3169.1,-95.11 3175.95,-93.93 3182.75,-92.59"/>
<polygon fill="#63b8ff" stroke="#63b8ff" points="3183.58,-95.99 3192.65,-90.53 3182.15,-89.14 3183.58,-95.99"/>
</a>
</g>
</g>
<!-- Node19 -->
<g id="Node000019" class="node">
<title>Node19</title>
<g id="a_Node000019"><a xlink:href="_macros_8hpp.html" target="_top" xlink:title=" ">
<polygon fill="white" stroke="#666666" points="1346.5,-90.5 1222.5,-90.5 1222.5,-60.5 1346.5,-60.5 1346.5,-90.5"/>
<text text-anchor="start" x="1230.5" y="-78.5" font-family="Helvetica,sans-Serif" font-size="10.00">Hermes/_base/WinApi</text>
<text text-anchor="middle" x="1284.5" y="-67.5" font-family="Helvetica,sans-Serif" font-size="10.00">/Macros.hpp</text>
</a>
</g>
</g>
<!-- Node12&#45;&gt;Node19 -->
<g id="edge18_Node000012_Node000019" class="edge">
<title>Node12&#45;&gt;Node19</title>
<g id="a_edge18_Node000012_Node000019"><a xlink:title=" ">
<path fill="none" stroke="#63b8ff" d="M1755.16,-142.34C1666.13,-136.42 1497.71,-122.61 1356.5,-96 1351.82,-95.12 1346.99,-94.08 1342.16,-92.96"/>
<polygon fill="#63b8ff" stroke="#63b8ff" points="1342.83,-89.53 1332.28,-90.56 1341.17,-96.33 1342.83,-89.53"/>
</a>
</g>
</g>
<!-- Node21 -->
<g id="Node000021" class="node">
<title>Node21</title>
<g id="a_Node000021"><a xlink:href="_address_family_enum_8hpp.html" target="_top" xlink:title=" ">
<polygon fill="white" stroke="#666666" points="956.5,-90.5 780.5,-90.5 780.5,-60.5 956.5,-60.5 956.5,-90.5"/>
<text text-anchor="start" x="788.5" y="-78.5" font-family="Helvetica,sans-Serif" font-size="10.00">Hermes/_base/WinApi</text>
<text text-anchor="middle" x="868.5" y="-67.5" font-family="Helvetica,sans-Serif" font-size="10.00">/Enums/AddressFamilyEnum.hpp</text>
</a>
</g>
</g>
<!-- Node12&#45;&gt;Node21 -->
<g id="edge23_Node000012_Node000021" class="edge">
<title>Node12&#45;&gt;Node21</title>
<g id="a_edge23_Node000012_Node000021"><a xlink:title=" ">
<path fill="none" stroke="#63b8ff" d="M1755.3,-145.27C1614.36,-142.99 1260.09,-133.65 966.5,-96 958.61,-94.99 950.4,-93.71 942.24,-92.3"/>
<polygon fill="#63b8ff" stroke="#63b8ff" points="942.8,-88.85 932.34,-90.52 941.56,-95.74 942.8,-88.85"/>
</a>
</g>
</g>
<!-- Node23 -->
<g id="Node000023" class="node">
<title>Node23</title>
<g id="a_Node000023"><a xlink:href="_condition_function_enum_8hpp.html" target="_top" xlink:title=" ">
<polygon fill="white" stroke="#666666" points="572.5,-90.5 380.5,-90.5 380.5,-60.5 572.5,-60.5 572.5,-90.5"/>
<text text-anchor="start" x="388.5" y="-78.5" font-family="Helvetica,sans-Serif" font-size="10.00">Hermes/_base/WinApi</text>
<text text-anchor="middle" x="476.5" y="-67.5" font-family="Helvetica,sans-Serif" font-size="10.00">/Enums/ConditionFunctionEnum.hpp</text>
</a>
</g>
</g>
<!-- Node12&#45;&gt;Node23 -->
<g id="edge25_Node000012_Node000023" class="edge">
<title>Node12&#45;&gt;Node23</title>
<g id="a_edge25_Node000012_Node000023"><a xlink:title=" ">
<path fill="none" stroke="#63b8ff" d="M1755.21,-146.62C1573.63,-147.76 1029.4,-146.39 581.5,-96 572.57,-95 563.26,-93.67 554.03,-92.19"/>
<polygon fill="#63b8ff" stroke="#63b8ff" points="554.51,-88.72 544.07,-90.52 553.35,-95.62 554.51,-88.72"/>
</a>
</g>
</g>
<!-- Node25 -->
<g id="Node000025" class="node">
<title>Node25</title>
<g id="a_Node000025"><a xlink:href="_encrypt_status_enum_8hpp.html" target="_top" xlink:title=" ">
<polygon fill="white" stroke="#666666" points="762.5,-90.5 590.5,-90.5 590.5,-60.5 762.5,-60.5 762.5,-90.5"/>
<text text-anchor="start" x="598.5" y="-78.5" font-family="Helvetica,sans-Serif" font-size="10.00">Hermes/_base/WinApi</text>
<text text-anchor="middle" x="676.5" y="-67.5" font-family="Helvetica,sans-Serif" font-size="10.00">/Enums/EncryptStatusEnum.hpp</text>
</a>
</g>
</g>
<!-- Node12&#45;&gt;Node25 -->
<g id="edge27_Node000012_Node000025" class="edge">
<title>Node12&#45;&gt;Node25</title>
<g id="a_edge27_Node000012_Node000025"><a xlink:title=" ">
<path fill="none" stroke="#63b8ff" d="M1755.32,-146.37C1592.87,-146.62 1142.64,-142.68 771.5,-96 763.81,-95.03 755.81,-93.78 747.86,-92.38"/>
<polygon fill="#63b8ff" stroke="#63b8ff" points="748.32,-88.91 737.85,-90.54 747.05,-95.79 748.32,-88.91"/>
</a>
</g>
</g>
<!-- Node27 -->
<g id="Node000027" class="node">
<title>Node27</title>
<g id="a_Node000027"><a xlink:href="_protocol_base_type_enum_8hpp.html" target="_top" xlink:title=" ">
<polygon fill="white" stroke="#666666" points="1166,-90.5 975,-90.5 975,-60.5 1166,-60.5 1166,-90.5"/>
<text text-anchor="start" x="983" y="-78.5" font-family="Helvetica,sans-Serif" font-size="10.00">Hermes/_base/WinApi</text>
<text text-anchor="middle" x="1070.5" y="-67.5" font-family="Helvetica,sans-Serif" font-size="10.00">/Enums/ProtocolBaseTypeEnum.hpp</text>
</a>
</g>
</g>
<!-- Node12&#45;&gt;Node27 -->
<g id="edge29_Node000012_Node000027" class="edge">
<title>Node12&#45;&gt;Node27</title>
<g id="a_edge29_Node000012_Node000027"><a xlink:title=" ">
<path fill="none" stroke="#63b8ff" d="M1755.36,-143.13C1641.16,-137.41 1390.4,-122.78 1180.5,-96 1171.83,-94.89 1162.81,-93.57 1153.83,-92.15"/>
<polygon fill="#63b8ff" stroke="#63b8ff" points="1154.15,-88.66 1143.72,-90.5 1153.03,-95.56 1154.15,-88.66"/>
</a>
</g>
</g>
<!-- Node28 -->
<g id="Node000028" class="node">
<title>Node28</title>
<g id="a_Node000028"><a xlink:href="_s_ch_cred_enum_8hpp.html" target="_top" xlink:title=" ">
<polygon fill="white" stroke="#666666" points="1940.5,-90.5 1794.5,-90.5 1794.5,-60.5 1940.5,-60.5 1940.5,-90.5"/>
<text text-anchor="start" x="1802.5" y="-78.5" font-family="Helvetica,sans-Serif" font-size="10.00">Hermes/_base/WinApi</text>
<text text-anchor="middle" x="1867.5" y="-67.5" font-family="Helvetica,sans-Serif" font-size="10.00">/Enums/SChCredEnum.hpp</text>
</a>
</g>
</g>
<!-- Node12&#45;&gt;Node28 -->
<g id="edge31_Node000012_Node000028" class="edge">
<title>Node12&#45;&gt;Node28</title>
<g id="a_edge31_Node000012_Node000028"><a xlink:title=" ">
<path fill="none" stroke="#63b8ff" d="M1827.62,-131.94C1834.46,-122.42 1843.65,-109.65 1851.48,-98.77"/>
<polygon fill="#63b8ff" stroke="#63b8ff" points="1854.4,-100.71 1857.4,-90.54 1848.72,-96.62 1854.4,-100.71"/>
</a>
</g>
</g>
<!-- Node29 -->
<g id="Node000029" class="node">
<title>Node29</title>
<g id="a_Node000029"><a xlink:href="_security_buffer_enum_8hpp.html" target="_top" xlink:title=" ">
<polygon fill="white" stroke="#666666" points="3027,-90.5 2854,-90.5 2854,-60.5 3027,-60.5 3027,-90.5"/>
<text text-anchor="start" x="2862" y="-78.5" font-family="Helvetica,sans-Serif" font-size="10.00">Hermes/_base/WinApi</text>
<text text-anchor="middle" x="2940.5" y="-67.5" font-family="Helvetica,sans-Serif" font-size="10.00">/Enums/SecurityBufferEnum.hpp</text>
</a>
</g>
</g>
<!-- Node12&#45;&gt;Node29 -->
<g id="edge33_Node000012_Node000029" class="edge">
<title>Node12&#45;&gt;Node29</title>
<g id="a_edge33_Node000012_Node000029"><a xlink:title=" ">
<path fill="none" stroke="#63b8ff" d="M1879.72,-146.25C2040.18,-146.18 2480.95,-141.51 2844.5,-96 2852.36,-95.02 2860.53,-93.75 2868.65,-92.32"/>
<polygon fill="#63b8ff" stroke="#63b8ff" points="2869.29,-95.77 2878.5,-90.53 2868.03,-88.88 2869.29,-95.77"/>
</a>
</g>
</g>
<!-- Node30 -->
<g id="Node000030" class="node">
<title>Node30</title>
<g id="a_Node000030"><a xlink:href="_socket_shutdown_enum_8hpp.html" target="_top" xlink:title=" ">
<polygon fill="white" stroke="#666666" points="185,-90.5 0,-90.5 0,-60.5 185,-60.5 185,-90.5"/>
<text text-anchor="start" x="8" y="-78.5" font-family="Helvetica,sans-Serif" font-size="10.00">Hermes/_base/WinApi</text>
<text text-anchor="middle" x="92.5" y="-67.5" font-family="Helvetica,sans-Serif" font-size="10.00">/Enums/SocketShutdownEnum.hpp</text>
</a>
</g>
</g>
<!-- Node12&#45;&gt;Node30 -->
<g id="edge35_Node000012_Node000030" class="edge">
<title>Node12&#45;&gt;Node30</title>
<g id="a_edge35_Node000012_Node000030"><a xlink:title=" ">
<path fill="none" stroke="#63b8ff" d="M1755.2,-145.42C1496.31,-142.78 504.51,-130.59 193.5,-96 184.86,-95.04 175.85,-93.74 166.93,-92.26"/>
<polygon fill="#63b8ff" stroke="#63b8ff" points="167.37,-88.79 156.92,-90.53 166.18,-95.68 167.37,-88.79"/>
</a>
</g>
</g>
<!-- Node31 -->
<g id="Node000031" class="node">
<title>Node31</title>
<g id="a_Node000031"><a xlink:href="_socket_type_enum_8hpp.html" target="_top" xlink:title=" ">
<polygon fill="white" stroke="#666666" points="362,-90.5 203,-90.5 203,-60.5 362,-60.5 362,-90.5"/>
<text text-anchor="start" x="211" y="-78.5" font-family="Helvetica,sans-Serif" font-size="10.00">Hermes/_base/WinApi</text>
<text text-anchor="middle" x="282.5" y="-67.5" font-family="Helvetica,sans-Serif" font-size="10.00">/Enums/SocketTypeEnum.hpp</text>
</a>
</g>
</g>
<!-- Node12&#45;&gt;Node31 -->
<g id="edge37_Node000012_Node000031" class="edge">
<title>Node12&#45;&gt;Node31</title>
<g id="a_edge37_Node000012_Node000031"><a xlink:title=" ">
<path fill="none" stroke="#63b8ff" d="M1755.2,-145.35C1514.53,-142.6 645.34,-130.45 371.5,-96 364.19,-95.08 356.59,-93.85 349.05,-92.45"/>
<polygon fill="#63b8ff" stroke="#63b8ff" points="349.69,-89.01 339.21,-90.53 348.35,-95.88 349.69,-89.01"/>
</a>
</g>
</g>
<!-- Node32 -->
<g id="Node000032" class="node">
<title>Node32</title>
<g id="a_Node000032"><a xlink:href="_credential_flags_8hpp.html" target="_top" xlink:title=" ">
<polygon fill="white" stroke="#666666" points="2104.5,-90.5 1958.5,-90.5 1958.5,-60.5 2104.5,-60.5 2104.5,-90.5"/>
<text text-anchor="start" x="1966.5" y="-78.5" font-family="Helvetica,sans-Serif" font-size="10.00">Hermes/_base/WinApi</text>
<text text-anchor="middle" x="2031.5" y="-67.5" font-family="Helvetica,sans-Serif" font-size="10.00">/Flags/CredentialFlags.hpp</text>
</a>
</g>
</g>
<!-- Node12&#45;&gt;Node32 -->
<g id="edge39_Node000012_Node000032" class="edge">
<title>Node12&#45;&gt;Node32</title>
<g id="a_edge39_Node000012_Node000032"><a xlink:title=" ">
<path fill="none" stroke="#63b8ff" d="M1860.81,-131.94C1894.74,-120.91 1942.12,-105.53 1978.35,-93.76"/>
<polygon fill="#63b8ff" stroke="#63b8ff" points="1979.83,-96.96 1988.26,-90.54 1977.67,-90.3 1979.83,-96.96"/>
</a>
</g>
</g>
<!-- Node33 -->
<g id="Node000033" class="node">
<title>Node33</title>
<g id="a_Node000033"><a xlink:href="_supported_protocols_flags_8hpp.html" target="_top" xlink:title=" ">
<polygon fill="white" stroke="#666666" points="1556,-90.5 1365,-90.5 1365,-60.5 1556,-60.5 1556,-90.5"/>
<text text-anchor="start" x="1373" y="-78.5" font-family="Helvetica,sans-Serif" font-size="10.00">Hermes/_base/WinApi</text>
<text text-anchor="middle" x="1460.5" y="-67.5" font-family="Helvetica,sans-Serif" font-size="10.00">/Flags/SupportedProtocolsFlags.hpp</text>
</a>
</g>
</g>
<!-- Node12&#45;&gt;Node33 -->
<g id="edge41_Node000012_Node000033" class="edge">
<title>Node12&#45;&gt;Node33</title>
<g id="a_edge41_Node000012_Node000033"><a xlink:title=" ">
<path fill="none" stroke="#63b8ff" d="M1755.32,-133.89C1696.44,-122.43 1607.65,-105.15 1542.9,-92.54"/>
<polygon fill="#63b8ff" stroke="#63b8ff" points="1543.21,-89.04 1532.72,-90.56 1541.87,-95.91 1543.21,-89.04"/>
</a>
</g>
</g>
<!-- Node34 -->
<g id="Node000034" class="node">
<title>Node34</title>
<g id="a_Node000034"><a xlink:href="_initialize_security_context_flags_8hpp.html" target="_top" xlink:title=" ">
<polygon fill="white" stroke="#666666" points="2292,-96 2123,-96 2123,-55 2292,-55 2292,-96"/>
<text text-anchor="start" x="2131" y="-84" font-family="Helvetica,sans-Serif" font-size="10.00">Hermes/_base/WinApi</text>
<text text-anchor="start" x="2131" y="-73" font-family="Helvetica,sans-Serif" font-size="10.00">/Flags/InitializeSecurityContext</text>
<text text-anchor="middle" x="2207.5" y="-62" font-family="Helvetica,sans-Serif" font-size="10.00">Flags.hpp</text>
</a>
</g>
</g>
<!-- Node12&#45;&gt;Node34 -->
<g id="edge43_Node000012_Node000034" class="edge">
<title>Node12&#45;&gt;Node34</title>
<g id="a_edge43_Node000012_Node000034"><a xlink:title=" ">
<path fill="none" stroke="#63b8ff" d="M1879.7,-136.18C1937.45,-126.91 2026.08,-112.29 2112.95,-96.07"/>
<polygon fill="#63b8ff" stroke="#63b8ff" points="2113.8,-99.47 2122.98,-94.19 2112.5,-92.59 2113.8,-99.47"/>
</a>
</g>
</g>
<!-- Node35 -->
<g id="Node000035" class="node">
<title>Node35</title>
<g id="a_Node000035"><a xlink:href="_initialize_security_context_return_flags_8hpp.html" target="_top" xlink:title=" ">
<polygon fill="white" stroke="#666666" points="2479,-96 2310,-96 2310,-55 2479,-55 2479,-96"/>
<text text-anchor="start" x="2318" y="-84" font-family="Helvetica,sans-Serif" font-size="10.00">Hermes/_base/WinApi</text>
<text text-anchor="start" x="2318" y="-73" font-family="Helvetica,sans-Serif" font-size="10.00">/Flags/InitializeSecurityContext</text>
<text text-anchor="middle" x="2394.5" y="-62" font-family="Helvetica,sans-Serif" font-size="10.00">ReturnFlags.hpp</text>
</a>
</g>
</g>
<!-- Node12&#45;&gt;Node35 -->
<g id="edge45_Node000012_Node000035" class="edge">
<title>Node12&#45;&gt;Node35</title>
<g id="a_edge45_Node000012_Node000035"><a xlink:title=" ">
<path fill="none" stroke="#63b8ff" d="M1879.65,-141.65C1970.04,-134.87 2143.2,-120.16 2299.64,-96.21"/>
<polygon fill="#63b8ff" stroke="#63b8ff" points="2300.57,-99.61 2309.92,-94.62 2299.5,-92.69 2300.57,-99.61"/>
</a>
</g>
</g>
<!-- Node36 -->
<g id="Node000036" class="node">
<title>Node36</title>
<g id="a_Node000036"><a xlink:href="_accept_security_context_flags_8hpp.html" target="_top" xlink:title=" ">
<polygon fill="white" stroke="#666666" points="2657.5,-96 2497.5,-96 2497.5,-55 2657.5,-55 2657.5,-96"/>
<text text-anchor="start" x="2505.5" y="-84" font-family="Helvetica,sans-Serif" font-size="10.00">Hermes/_base/WinApi</text>
<text text-anchor="start" x="2505.5" y="-73" font-family="Helvetica,sans-Serif" font-size="10.00">/Flags/AcceptSecurityContext</text>
<text text-anchor="middle" x="2577.5" y="-62" font-family="Helvetica,sans-Serif" font-size="10.00">Flags.hpp</text>
</a>
</g>
</g>
<!-- Node12&#45;&gt;Node36 -->
<g id="edge47_Node000012_Node000036" class="edge">
<title>Node12&#45;&gt;Node36</title>
<g id="a_edge47_Node000012_Node000036"><a xlink:title=" ">
<path fill="none" stroke="#63b8ff" d="M1879.8,-144.3C1996.97,-140.45 2258.19,-128.85 2486.89,-96.13"/>
<polygon fill="#63b8ff" stroke="#63b8ff" points="2487.67,-99.55 2497.06,-94.66 2486.67,-92.63 2487.67,-99.55"/>
</a>
</g>
</g>
<!-- Node37 -->
<g id="Node000037" class="node">
<title>Node37</title>
<g id="a_Node000037"><a xlink:href="_accept_security_context_return_flags_8hpp.html" target="_top" xlink:title=" ">
<polygon fill="white" stroke="#666666" points="2835.5,-96 2675.5,-96 2675.5,-55 2835.5,-55 2835.5,-96"/>
<text text-anchor="start" x="2683.5" y="-84" font-family="Helvetica,sans-Serif" font-size="10.00">Hermes/_base/WinApi</text>
<text text-anchor="start" x="2683.5" y="-73" font-family="Helvetica,sans-Serif" font-size="10.00">/Flags/AcceptSecurityContext</text>
<text text-anchor="middle" x="2755.5" y="-62" font-family="Helvetica,sans-Serif" font-size="10.00">ReturnFlags.hpp</text>
</a>
</g>
</g>
<!-- Node12&#45;&gt;Node37 -->
<g id="edge49_Node000012_Node000037" class="edge">
<title>Node12&#45;&gt;Node37</title>
<g id="a_edge49_Node000012_Node000037"><a xlink:title=" ">
<path fill="none" stroke="#63b8ff" d="M1879.61,-145.67C2018.75,-144.21 2366.06,-136.58 2664.91,-96.11"/>
<polygon fill="#63b8ff" stroke="#63b8ff" points="2665.64,-99.54 2675.07,-94.71 2664.69,-92.6 2665.64,-99.54"/>
</a>
</g>
</g>
<!-- Node38 -->
<g id="Node000038" class="node">
<title>Node38</title>
<g id="a_Node000038"><a xlink:href="_s_channel_cred_flags_8hpp.html" target="_top" xlink:title=" ">
<polygon fill="white" stroke="#666666" points="1738.5,-90.5 1574.5,-90.5 1574.5,-60.5 1738.5,-60.5 1738.5,-90.5"/>
<text text-anchor="start" x="1582.5" y="-78.5" font-family="Helvetica,sans-Serif" font-size="10.00">Hermes/_base/WinApi</text>
<text text-anchor="middle" x="1656.5" y="-67.5" font-family="Helvetica,sans-Serif" font-size="10.00">/Flags/SChannelCredFlags.hpp</text>
</a>
</g>
</g>
<!-- Node12&#45;&gt;Node38 -->
<g id="edge51_Node000012_Node000038" class="edge">
<title>Node12&#45;&gt;Node38</title>
<g id="a_edge51_Node000012_Node000038"><a xlink:title=" ">
<path fill="none" stroke="#63b8ff" d="M1784.92,-131.94C1759.93,-121.15 1725.26,-106.18 1698.24,-94.52"/>
<polygon fill="#63b8ff" stroke="#63b8ff" points="1699.6,-91.29 1689.03,-90.54 1696.83,-97.72 1699.6,-91.29"/>
</a>
</g>
</g>
<!-- Node17&#45;&gt;Node18 -->
<g id="edge17_Node000017_Node000018" class="edge">
<title>Node17&#45;&gt;Node18</title>
<g id="a_edge17_Node000017_Node000018"><a xlink:title=" ">
<path fill="none" stroke="#63b8ff" d="M3256.82,-60.3C3264.61,-50.51 3275,-37.48 3283.19,-27.2"/>
<polygon fill="#63b8ff" stroke="#63b8ff" points="3285.96,-29.35 3289.45,-19.34 3280.48,-24.98 3285.96,-29.35"/>
</a>
</g>
</g>
<!-- Node19&#45;&gt;Node14 -->
<g id="edge20_Node000019_Node000014" class="edge">
<title>Node19&#45;&gt;Node14</title>
<g id="a_edge20_Node000019_Node000014"><a xlink:title=" ">
<path fill="none" stroke="#63b8ff" d="M1264.53,-60.3C1249.86,-49.87 1229.99,-35.74 1215.16,-25.19"/>
<polygon fill="#63b8ff" stroke="#63b8ff" points="1216.85,-22.1 1206.68,-19.16 1212.8,-27.81 1216.85,-22.1"/>
</a>
</g>
</g>
<!-- Node19&#45;&gt;Node15 -->
<g id="edge21_Node000019_Node000015" class="edge">
<title>Node19&#45;&gt;Node15</title>
<g id="a_edge21_Node000019_Node000015"><a xlink:title=" ">
<path fill="none" stroke="#63b8ff" d="M1333.5,-60.4C1341.16,-58.44 1349.02,-56.56 1356.5,-55 1446.21,-36.27 1552.61,-22.44 1611.53,-15.5"/>
<polygon fill="#63b8ff" stroke="#63b8ff" points="1612.09,-18.96 1621.62,-14.33 1611.28,-12.01 1612.09,-18.96"/>
</a>
</g>
</g>
<!-- Node19&#45;&gt;Node16 -->
<g id="edge22_Node000019_Node000016" class="edge">
<title>Node19&#45;&gt;Node16</title>
<g id="a_edge22_Node000019_Node000016"><a xlink:title=" ">
<path fill="none" stroke="#63b8ff" d="M1330.26,-60.46C1338.9,-58.27 1347.92,-56.31 1356.5,-55 1575.9,-21.41 2289.64,-12.43 2452.3,-10.8"/>
<polygon fill="#63b8ff" stroke="#63b8ff" points="2452.66,-14.3 2462.62,-10.7 2452.59,-7.3 2452.66,-14.3"/>
</a>
</g>
</g>
<!-- Node20 -->
<g id="Node000020" class="node">
<title>Node20</title>
<g id="a_Node000020"><a xlink:title=" ">
<polygon fill="#e0e0e0" stroke="#999999" points="1321,-19 1248,-19 1248,0 1321,0 1321,-19"/>
<text text-anchor="middle" x="1284.5" y="-7" font-family="Helvetica,sans-Serif" font-size="10.00">string_view</text>
</a>
</g>
</g>
<!-- Node19&#45;&gt;Node20 -->
<g id="edge19_Node000019_Node000020" class="edge">
<title>Node19&#45;&gt;Node20</title>
<g id="a_edge19_Node000019_Node000020"><a xlink:title=" ">
<path fill="none" stroke="#63b8ff" d="M1284.5,-60.3C1284.5,-51.2 1284.5,-39.29 1284.5,-29.4"/>
<polygon fill="#63b8ff" stroke="#63b8ff" points="1288,-29.34 1284.5,-19.34 1281,-29.34 1288,-29.34"/>
</a>
</g>
</g>
<!-- Node22 -->
<g id="Node000022" class="node">
<title>Node22</title>
<g id="a_Node000022"><a xlink:title=" ">
<polygon fill="#e0e0e0" stroke="#999999" points="999.5,-19 939.5,-19 939.5,0 999.5,0 999.5,-19"/>
<text text-anchor="middle" x="969.5" y="-7" font-family="Helvetica,sans-Serif" font-size="10.00">ws2def.h</text>
</a>
</g>
</g>
<!-- Node21&#45;&gt;Node22 -->
<g id="edge24_Node000021_Node000022" class="edge">
<title>Node21&#45;&gt;Node22</title>
<g id="a_edge24_Node000021_Node000022"><a xlink:title=" ">
<path fill="none" stroke="#63b8ff" d="M890.92,-60.3C907.69,-49.67 930.51,-35.2 947.25,-24.6"/>
<polygon fill="#63b8ff" stroke="#63b8ff" points="949.26,-27.47 955.84,-19.16 945.52,-21.55 949.26,-27.47"/>
</a>
</g>
</g>
<!-- Node24 -->
<g id="Node000024" class="node">
<title>Node24</title>
<g id="a_Node000024"><a xlink:title=" ">
<polygon fill="#e0e0e0" stroke="#999999" points="319.5,-19 245.5,-19 245.5,0 319.5,0 319.5,-19"/>
<text text-anchor="middle" x="282.5" y="-7" font-family="Helvetica,sans-Serif" font-size="10.00">WinSock2.h</text>
</a>
</g>
</g>
<!-- Node23&#45;&gt;Node24 -->
<g id="edge26_Node000023_Node000024" class="edge">
<title>Node23&#45;&gt;Node24</title>
<g id="a_edge26_Node000023_Node000024"><a xlink:title=" ">
<path fill="none" stroke="#63b8ff" d="M433.93,-60.45C399.15,-48.98 350.59,-32.96 317.91,-22.18"/>
<polygon fill="#63b8ff" stroke="#63b8ff" points="318.91,-18.83 308.32,-19.02 316.72,-25.47 318.91,-18.83"/>
</a>
</g>
</g>
<!-- Node26 -->
<g id="Node000026" class="node">
<title>Node26</title>
<g id="a_Node000026"><a xlink:title=" ">
<polygon fill="#e0e0e0" stroke="#999999" points="709,-19 644,-19 644,0 709,0 709,-19"/>
<text text-anchor="middle" x="676.5" y="-7" font-family="Helvetica,sans-Serif" font-size="10.00">winerror.h</text>
</a>
</g>
</g>
<!-- Node25&#45;&gt;Node26 -->
<g id="edge28_Node000025_Node000026" class="edge">
<title>Node25&#45;&gt;Node26</title>
<g id="a_edge28_Node000025_Node000026"><a xlink:title=" ">
<path fill="none" stroke="#63b8ff" d="M676.5,-60.3C676.5,-51.2 676.5,-39.29 676.5,-29.4"/>
<polygon fill="#63b8ff" stroke="#63b8ff" points="680,-29.34 676.5,-19.34 673,-29.34 680,-29.34"/>
</a>
</g>
</g>
<!-- Node27&#45;&gt;Node22 -->
<g id="edge30_Node000027_Node000022" class="edge">
<title>Node27&#45;&gt;Node22</title>
<g id="a_edge30_Node000027_Node000022"><a xlink:title=" ">
<path fill="none" stroke="#63b8ff" d="M1048.08,-60.3C1031.31,-49.67 1008.49,-35.2 991.75,-24.6"/>
<polygon fill="#63b8ff" stroke="#63b8ff" points="993.48,-21.55 983.16,-19.16 989.74,-27.47 993.48,-21.55"/>
</a>
</g>
</g>
<!-- Node28&#45;&gt;Node15 -->
<g id="edge32_Node000028_Node000015" class="edge">
<title>Node28&#45;&gt;Node15</title>
<g id="a_edge32_Node000028_Node000015"><a xlink:title=" ">
<path fill="none" stroke="#63b8ff" d="M1821.2,-60.45C1783.21,-48.93 1730.1,-32.82 1694.56,-22.04"/>
<polygon fill="#63b8ff" stroke="#63b8ff" points="1695.17,-18.57 1684.58,-19.02 1693.13,-25.27 1695.17,-18.57"/>
</a>
</g>
</g>
<!-- Node29&#45;&gt;Node16 -->
<g id="edge34_Node000029_Node000016" class="edge">
<title>Node29&#45;&gt;Node16</title>
<g id="a_edge34_Node000029_Node000016"><a xlink:title=" ">
<path fill="none" stroke="#63b8ff" d="M2874.78,-60.45C2864.66,-58.49 2854.32,-56.6 2844.5,-55 2724.97,-35.48 2581.81,-20.12 2518.44,-13.73"/>
<polygon fill="#63b8ff" stroke="#63b8ff" points="2518.57,-10.22 2508.27,-12.71 2517.87,-17.19 2518.57,-10.22"/>
</a>
</g>
</g>
<!-- Node30&#45;&gt;Node24 -->
<g id="edge36_Node000030_Node000024" class="edge">
<title>Node30&#45;&gt;Node24</title>
<g id="a_edge36_Node000030_Node000024"><a xlink:title=" ">
<path fill="none" stroke="#63b8ff" d="M134.2,-60.45C168.1,-49.03 215.41,-33.1 247.4,-22.32"/>
<polygon fill="#63b8ff" stroke="#63b8ff" points="248.85,-25.53 257.21,-19.02 246.62,-18.89 248.85,-25.53"/>
</a>
</g>
</g>
<!-- Node31&#45;&gt;Node24 -->
<g id="edge38_Node000031_Node000024" class="edge">
<title>Node31&#45;&gt;Node24</title>
<g id="a_edge38_Node000031_Node000024"><a xlink:title=" ">
<path fill="none" stroke="#63b8ff" d="M282.5,-60.3C282.5,-51.2 282.5,-39.29 282.5,-29.4"/>
<polygon fill="#63b8ff" stroke="#63b8ff" points="286,-29.34 282.5,-19.34 279,-29.34 286,-29.34"/>
</a>
</g>
</g>
<!-- Node32&#45;&gt;Node16 -->
<g id="edge40_Node000032_Node000016" class="edge">
<title>Node32&#45;&gt;Node16</title>
<g id="a_edge40_Node000032_Node000016"><a xlink:title=" ">
<path fill="none" stroke="#63b8ff" d="M2087.58,-60.43C2096.55,-58.44 2105.75,-56.55 2114.5,-55 2238.55,-33.06 2387.88,-18.8 2452.75,-13.19"/>
<polygon fill="#63b8ff" stroke="#63b8ff" points="2453.12,-16.67 2462.79,-12.34 2452.52,-9.7 2453.12,-16.67"/>
</a>
</g>
</g>
<!-- Node33&#45;&gt;Node15 -->
<g id="edge42_Node000033_Node000015" class="edge">
<title>Node33&#45;&gt;Node15</title>
<g id="a_edge42_Node000033_Node000015"><a xlink:title=" ">
<path fill="none" stroke="#63b8ff" d="M1503.51,-60.45C1538.64,-48.98 1587.71,-32.96 1620.72,-22.18"/>
<polygon fill="#63b8ff" stroke="#63b8ff" points="1622,-25.45 1630.42,-19.02 1619.82,-18.79 1622,-25.45"/>
</a>
</g>
</g>
<!-- Node34&#45;&gt;Node16 -->
<g id="edge44_Node000034_Node000016" class="edge">
<title>Node34&#45;&gt;Node16</title>
<g id="a_edge44_Node000034_Node000016"><a xlink:title=" ">
<path fill="none" stroke="#63b8ff" d="M2292.04,-55.04C2346.3,-42.55 2413.7,-27.03 2452.94,-18"/>
<polygon fill="#63b8ff" stroke="#63b8ff" points="2453.79,-21.39 2462.75,-15.74 2452.22,-14.57 2453.79,-21.39"/>
</a>
</g>
</g>
<!-- Node35&#45;&gt;Node16 -->
<g id="edge46_Node000035_Node000016" class="edge">
<title>Node35&#45;&gt;Node16</title>
<g id="a_edge46_Node000035_Node000016"><a xlink:title=" ">
<path fill="none" stroke="#63b8ff" d="M2422.3,-54.95C2435.92,-45.37 2452.06,-34.02 2464.62,-25.19"/>
<polygon fill="#63b8ff" stroke="#63b8ff" points="2466.88,-27.88 2473.04,-19.26 2462.85,-22.15 2466.88,-27.88"/>
</a>
</g>
</g>
<!-- Node36&#45;&gt;Node16 -->
<g id="edge48_Node000036_Node000016" class="edge">
<title>Node36&#45;&gt;Node16</title>
<g id="a_edge48_Node000036_Node000016"><a xlink:title=" ">
<path fill="none" stroke="#63b8ff" d="M2549.4,-54.95C2535.62,-45.37 2519.31,-34.02 2506.61,-25.19"/>
<polygon fill="#63b8ff" stroke="#63b8ff" points="2508.3,-22.1 2498.09,-19.26 2504.3,-27.84 2508.3,-22.1"/>
</a>
</g>
</g>
<!-- Node37&#45;&gt;Node16 -->
<g id="edge50_Node000037_Node000016" class="edge">
<title>Node37&#45;&gt;Node16</title>
<g id="a_edge50_Node000037_Node000016"><a xlink:title=" ">
<path fill="none" stroke="#63b8ff" d="M2675.22,-55.47C2622.79,-43.04 2557.11,-27.47 2518.38,-18.29"/>
<polygon fill="#63b8ff" stroke="#63b8ff" points="2518.75,-14.78 2508.21,-15.88 2517.13,-21.59 2518.75,-14.78"/>
</a>
</g>
</g>
<!-- Node38&#45;&gt;Node15 -->
<g id="edge52_Node000038_Node000015" class="edge">
<title>Node38&#45;&gt;Node15</title>
<g id="a_edge52_Node000038_Node000015"><a xlink:title=" ">
<path fill="none" stroke="#63b8ff" d="M1656.5,-60.3C1656.5,-51.2 1656.5,-39.29 1656.5,-29.4"/>
<polygon fill="#63b8ff" stroke="#63b8ff" points="1660,-29.34 1656.5,-19.34 1653,-29.34 1660,-29.34"/>
</a>
</g>
</g>
</g>
</svg>
