<?xml version="1.0" encoding="UTF-8" standalone="no"?>
<!DOCTYPE svg PUBLIC "-//W3C//DTD SVG 1.1//EN"
 "http://www.w3.org/Graphics/SVG/1.1/DTD/svg11.dtd">
<!-- Generated by graphviz version 2.43.0 (0)
 -->
<!-- Title: include/Hermes/Socket/_base/Connection/ITlsConnectStateMachine.hpp Pages: 1 -->
<svg width="4196pt" height="368pt"
 viewBox="0.00 0.00 4196.41 368.00" xmlns="http://www.w3.org/2000/svg" xmlns:xlink="http://www.w3.org/1999/xlink">
<g id="graph0" class="graph" transform="scale(1 1) rotate(0) translate(4 364)">
<title>include/Hermes/Socket/_base/Connection/ITlsConnectStateMachine.hpp</title>
<!-- Node1 -->
<g id="Node000001" class="node">
<title>Node1</title>
<g id="a_Node000001"><a xlink:title=" ">
<polygon fill="#999999" stroke="#666666" points="3800.5,-360 3634.5,-360 3634.5,-319 3800.5,-319 3800.5,-360"/>
<text text-anchor="start" x="3642.5" y="-348" font-family="Helvetica,sans-Serif" font-size="10.00">include/Hermes/Socket</text>
<text text-anchor="start" x="3642.5" y="-337" font-family="Helvetica,sans-Serif" font-size="10.00">/_base/Connection/ITlsConnect</text>
<text text-anchor="middle" x="3717.5" y="-326" font-family="Helvetica,sans-Serif" font-size="10.00">StateMachine.hpp</text>
</a>
</g>
</g>
<!-- Node2 -->
<g id="Node000002" class="node">
<title>Node2</title>
<g id="a_Node000002"><a xlink:href="__base_8hpp.html" target="_top" xlink:title=" ">
<polygon fill="white" stroke="#666666" points="3789,-283 3646,-283 3646,-264 3789,-264 3789,-283"/>
<text text-anchor="middle" x="3717.5" y="-271" font-family="Helvetica,sans-Serif" font-size="10.00">Hermes/Socket/_base.hpp</text>
</a>
</g>
</g>
<!-- Node1&#45;&gt;Node2 -->
<g id="edge1_Node000001_Node000002" class="edge">
<title>Node1&#45;&gt;Node2</title>
<g id="a_edge1_Node000001_Node000002"><a xlink:title=" ">
<path fill="none" stroke="#63b8ff" d="M3717.5,-318.95C3717.5,-310.85 3717.5,-301.5 3717.5,-293.47"/>
<polygon fill="#63b8ff" stroke="#63b8ff" points="3721,-293.26 3717.5,-283.26 3714,-293.26 3721,-293.26"/>
</a>
</g>
</g>
<!-- Node7 -->
<g id="Node000007" class="node">
<title>Node7</title>
<g id="a_Node000007"><a xlink:title=" ">
<polygon fill="#e0e0e0" stroke="#999999" points="3444.5,-85 3404.5,-85 3404.5,-66 3444.5,-66 3444.5,-85"/>
<text text-anchor="middle" x="3424.5" y="-73" font-family="Helvetica,sans-Serif" font-size="10.00">span</text>
</a>
</g>
</g>
<!-- Node1&#45;&gt;Node7 -->
<g id="edge58_Node000001_Node000007" class="edge">
<title>Node1&#45;&gt;Node7</title>
<g id="a_edge58_Node000001_Node000007"><a xlink:title=" ">
<path fill="none" stroke="#63b8ff" d="M3661.24,-318.86C3615.96,-300.83 3552.93,-270.44 3509.5,-228 3468.98,-188.4 3442.16,-125.34 3430.75,-94.57"/>
<polygon fill="#63b8ff" stroke="#63b8ff" points="3434.03,-93.36 3427.36,-85.13 3427.44,-95.72 3434.03,-93.36"/>
</a>
</g>
</g>
<!-- Node19 -->
<g id="Node000019" class="node">
<title>Node19</title>
<g id="a_Node000019"><a xlink:title=" ">
<polygon fill="#e0e0e0" stroke="#999999" points="3773.5,-19 3723.5,-19 3723.5,0 3773.5,0 3773.5,-19"/>
<text text-anchor="middle" x="3748.5" y="-7" font-family="Helvetica,sans-Serif" font-size="10.00">cstdint</text>
</a>
</g>
</g>
<!-- Node1&#45;&gt;Node19 -->
<g id="edge59_Node000001_Node000019" class="edge">
<title>Node1&#45;&gt;Node19</title>
<g id="a_edge59_Node000001_Node000019"><a xlink:title=" ">
<path fill="none" stroke="#63b8ff" d="M3800.63,-333.42C3935.11,-322.89 4185.5,-292.72 4185.5,-214 4185.5,-214 4185.5,-214 4185.5,-146 4185.5,-104.68 4197.14,-82.72 4166.5,-55 4138.33,-29.51 3879.52,-16.05 3783.84,-11.91"/>
<polygon fill="#63b8ff" stroke="#63b8ff" points="3783.93,-8.41 3773.79,-11.48 3783.63,-15.4 3783.93,-8.41"/>
</a>
</g>
</g>
<!-- Node3 -->
<g id="Node000003" class="node">
<title>Node3</title>
<g id="a_Node000003"><a xlink:href="_endpoint_concept_8hpp.html" target="_top" xlink:title=" ">
<polygon fill="white" stroke="#666666" points="3669.5,-228 3537.5,-228 3537.5,-198 3669.5,-198 3669.5,-228"/>
<text text-anchor="start" x="3545.5" y="-216" font-family="Helvetica,sans-Serif" font-size="10.00">Hermes/Endpoint/_base</text>
<text text-anchor="middle" x="3603.5" y="-205" font-family="Helvetica,sans-Serif" font-size="10.00">/EndpointConcept.hpp</text>
</a>
</g>
</g>
<!-- Node2&#45;&gt;Node3 -->
<g id="edge2_Node000002_Node000003" class="edge">
<title>Node2&#45;&gt;Node3</title>
<g id="a_edge2_Node000002_Node000003"><a xlink:title=" ">
<path fill="none" stroke="#63b8ff" d="M3700.68,-263.87C3684.78,-255.71 3660.4,-243.2 3640.03,-232.75"/>
<polygon fill="#63b8ff" stroke="#63b8ff" points="3641.5,-229.57 3631.01,-228.11 3638.3,-235.79 3641.5,-229.57"/>
</a>
</g>
</g>
<!-- Node4 -->
<g id="Node000004" class="node">
<title>Node4</title>
<g id="a_Node000004"><a xlink:href="_connection_error_enum_8hpp.html" target="_top" xlink:title=" ">
<polygon fill="white" stroke="#666666" points="3905,-162 3738,-162 3738,-132 3905,-132 3905,-162"/>
<text text-anchor="start" x="3746" y="-150" font-family="Helvetica,sans-Serif" font-size="10.00">Hermes/_base/ConnectionError</text>
<text text-anchor="middle" x="3821.5" y="-139" font-family="Helvetica,sans-Serif" font-size="10.00">Enum.hpp</text>
</a>
</g>
</g>
<!-- Node2&#45;&gt;Node4 -->
<g id="edge54_Node000002_Node000004" class="edge">
<title>Node2&#45;&gt;Node4</title>
<g id="a_edge54_Node000002_Node000004"><a xlink:title=" ">
<path fill="none" stroke="#63b8ff" d="M3768.83,-263.98C3789.75,-257.7 3811.94,-246.83 3824.5,-228 3835.42,-211.63 3833.34,-188.89 3829.3,-171.84"/>
<polygon fill="#63b8ff" stroke="#63b8ff" points="3832.65,-170.79 3826.63,-162.06 3825.89,-172.63 3832.65,-170.79"/>
</a>
</g>
</g>
<!-- Node9 -->
<g id="Node000009" class="node">
<title>Node9</title>
<g id="a_Node000009"><a xlink:title=" ">
<polygon fill="#e0e0e0" stroke="#999999" points="3588,-85 3463,-85 3463,-66 3588,-66 3588,-85"/>
<text text-anchor="middle" x="3525.5" y="-73" font-family="Helvetica,sans-Serif" font-size="10.00">stdexec/execution.hpp</text>
</a>
</g>
</g>
<!-- Node2&#45;&gt;Node9 -->
<g id="edge55_Node000002_Node000009" class="edge">
<title>Node2&#45;&gt;Node9</title>
<g id="a_edge55_Node000002_Node000009"><a xlink:title=" ">
<path fill="none" stroke="#63b8ff" d="M3645.89,-264.75C3598.86,-258.02 3543.38,-246.42 3528.5,-228 3497.44,-189.56 3510.35,-125.96 3519.42,-94.82"/>
<polygon fill="#63b8ff" stroke="#63b8ff" points="3522.77,-95.84 3522.39,-85.25 3516.08,-93.77 3522.77,-95.84"/>
</a>
</g>
</g>
<!-- Node40 -->
<g id="Node000040" class="node">
<title>Node40</title>
<g id="a_Node000040"><a xlink:title=" ">
<polygon fill="#e0e0e0" stroke="#999999" points="3747.5,-222.5 3687.5,-222.5 3687.5,-203.5 3747.5,-203.5 3747.5,-222.5"/>
<text text-anchor="middle" x="3717.5" y="-210.5" font-family="Helvetica,sans-Serif" font-size="10.00">concepts</text>
</a>
</g>
</g>
<!-- Node2&#45;&gt;Node40 -->
<g id="edge56_Node000002_Node000040" class="edge">
<title>Node2&#45;&gt;Node40</title>
<g id="a_edge56_Node000002_Node000040"><a xlink:title=" ">
<path fill="none" stroke="#63b8ff" d="M3717.5,-263.87C3717.5,-255.75 3717.5,-243.31 3717.5,-232.89"/>
<polygon fill="#63b8ff" stroke="#63b8ff" points="3721,-232.67 3717.5,-222.67 3714,-232.67 3721,-232.67"/>
</a>
</g>
</g>
<!-- Node41 -->
<g id="Node000041" class="node">
<title>Node41</title>
<g id="a_Node000041"><a xlink:title=" ">
<polygon fill="#e0e0e0" stroke="#999999" points="3815.5,-222.5 3765.5,-222.5 3765.5,-203.5 3815.5,-203.5 3815.5,-222.5"/>
<text text-anchor="middle" x="3790.5" y="-210.5" font-family="Helvetica,sans-Serif" font-size="10.00">ranges</text>
</a>
</g>
</g>
<!-- Node2&#45;&gt;Node41 -->
<g id="edge57_Node000002_Node000041" class="edge">
<title>Node2&#45;&gt;Node41</title>
<g id="a_edge57_Node000002_Node000041"><a xlink:title=" ">
<path fill="none" stroke="#63b8ff" d="M3728.27,-263.87C3739.7,-254.71 3757.98,-240.06 3771.78,-229.01"/>
<polygon fill="#63b8ff" stroke="#63b8ff" points="3774.07,-231.65 3779.68,-222.67 3769.69,-226.19 3774.07,-231.65"/>
</a>
</g>
</g>
<!-- Node3&#45;&gt;Node4 -->
<g id="edge3_Node000003_Node000004" class="edge">
<title>Node3&#45;&gt;Node4</title>
<g id="a_edge3_Node000003_Node000004"><a xlink:title=" ">
<path fill="none" stroke="#63b8ff" d="M3651.34,-197.95C3684.56,-188.2 3729,-175.16 3764.13,-164.84"/>
<polygon fill="#63b8ff" stroke="#63b8ff" points="3765.16,-168.19 3773.77,-162.01 3763.19,-161.47 3765.16,-168.19"/>
</a>
</g>
</g>
<!-- Node12 -->
<g id="Node000012" class="node">
<title>Node12</title>
<g id="a_Node000012"><a xlink:href="_win_api_8hpp.html" target="_top" xlink:title=" ">
<polygon fill="white" stroke="#666666" points="1787.5,-162 1663.5,-162 1663.5,-132 1787.5,-132 1787.5,-162"/>
<text text-anchor="start" x="1671.5" y="-150" font-family="Helvetica,sans-Serif" font-size="10.00">Hermes/_base/WinApi</text>
<text text-anchor="middle" x="1725.5" y="-139" font-family="Helvetica,sans-Serif" font-size="10.00">/WinApi.hpp</text>
</a>
</g>
</g>
<!-- Node3&#45;&gt;Node12 -->
<g id="edge11_Node000003_Node000012" class="edge">
<title>Node3&#45;&gt;Node12</title>
<g id="a_edge11_Node000003_Node000012"><a xlink:title=" ">
<path fill="none" stroke="#63b8ff" d="M3537.49,-209.75C3248.94,-199.92 2099.51,-160.75 1798.15,-150.48"/>
<polygon fill="#63b8ff" stroke="#63b8ff" points="1797.9,-146.97 1787.79,-150.12 1797.67,-153.96 1797.9,-146.97"/>
</a>
</g>
</g>
<!-- Node5 -->
<g id="Node000005" class="node">
<title>Node5</title>
<g id="a_Node000005"><a xlink:title=" ">
<polygon fill="#e0e0e0" stroke="#999999" points="3852.5,-85 3790.5,-85 3790.5,-66 3852.5,-66 3852.5,-85"/>
<text text-anchor="middle" x="3821.5" y="-73" font-family="Helvetica,sans-Serif" font-size="10.00">expected</text>
</a>
</g>
</g>
<!-- Node4&#45;&gt;Node5 -->
<g id="edge4_Node000004_Node000005" class="edge">
<title>Node4&#45;&gt;Node5</title>
<g id="a_edge4_Node000004_Node000005"><a xlink:title=" ">
<path fill="none" stroke="#63b8ff" d="M3821.5,-131.94C3821.5,-121.46 3821.5,-107.05 3821.5,-95.55"/>
<polygon fill="#63b8ff" stroke="#63b8ff" points="3825,-95.27 3821.5,-85.27 3818,-95.27 3825,-95.27"/>
</a>
</g>
</g>
<!-- Node6 -->
<g id="Node000006" class="node">
<title>Node6</title>
<g id="a_Node000006"><a xlink:title=" ">
<polygon fill="#e0e0e0" stroke="#999999" points="3918,-85 3871,-85 3871,-66 3918,-66 3918,-85"/>
<text text-anchor="middle" x="3894.5" y="-73" font-family="Helvetica,sans-Serif" font-size="10.00">vector</text>
</a>
</g>
</g>
<!-- Node4&#45;&gt;Node6 -->
<g id="edge5_Node000004_Node000006" class="edge">
<title>Node4&#45;&gt;Node6</title>
<g id="a_edge5_Node000004_Node000006"><a xlink:title=" ">
<path fill="none" stroke="#63b8ff" d="M3836.27,-131.94C3848.3,-120.48 3865.28,-104.32 3877.8,-92.4"/>
<polygon fill="#63b8ff" stroke="#63b8ff" points="3880.46,-94.7 3885.29,-85.27 3875.64,-89.63 3880.46,-94.7"/>
</a>
</g>
</g>
<!-- Node4&#45;&gt;Node7 -->
<g id="edge6_Node000004_Node000007" class="edge">
<title>Node4&#45;&gt;Node7</title>
<g id="a_edge6_Node000004_Node000007"><a xlink:title=" ">
<path fill="none" stroke="#63b8ff" d="M3737.72,-144.96C3661.65,-141.63 3547.47,-130.56 3454.5,-96 3450.85,-94.64 3447.19,-92.78 3443.74,-90.74"/>
<polygon fill="#63b8ff" stroke="#63b8ff" points="3445.54,-87.74 3435.26,-85.16 3441.69,-93.59 3445.54,-87.74"/>
</a>
</g>
</g>
<!-- Node8 -->
<g id="Node000008" class="node">
<title>Node8</title>
<g id="a_Node000008"><a xlink:title=" ">
<polygon fill="#e0e0e0" stroke="#999999" points="4005,-85 3936,-85 3936,-66 4005,-66 4005,-85"/>
<text text-anchor="middle" x="3970.5" y="-73" font-family="Helvetica,sans-Serif" font-size="10.00">type_traits</text>
</a>
</g>
</g>
<!-- Node4&#45;&gt;Node8 -->
<g id="edge7_Node000004_Node000008" class="edge">
<title>Node4&#45;&gt;Node8</title>
<g id="a_edge7_Node000004_Node000008"><a xlink:title=" ">
<path fill="none" stroke="#63b8ff" d="M3851.65,-131.94C3878.34,-119.49 3916.98,-101.46 3942.88,-89.38"/>
<polygon fill="#63b8ff" stroke="#63b8ff" points="3944.55,-92.47 3952.13,-85.07 3941.59,-86.12 3944.55,-92.47"/>
</a>
</g>
</g>
<!-- Node4&#45;&gt;Node9 -->
<g id="edge8_Node000004_Node000009" class="edge">
<title>Node4&#45;&gt;Node9</title>
<g id="a_edge8_Node000004_Node000009"><a xlink:title=" ">
<path fill="none" stroke="#63b8ff" d="M3754.67,-131.9C3710.04,-122.29 3650.11,-108.99 3597.5,-96 3587.11,-93.44 3575.94,-90.5 3565.56,-87.69"/>
<polygon fill="#63b8ff" stroke="#63b8ff" points="3566.47,-84.31 3555.9,-85.06 3564.63,-91.07 3566.47,-84.31"/>
</a>
</g>
</g>
<!-- Node10 -->
<g id="Node000010" class="node">
<title>Node10</title>
<g id="a_Node000010"><a xlink:title=" ">
<polygon fill="#e0e0e0" stroke="#999999" points="4157.5,-85 4023.5,-85 4023.5,-66 4157.5,-66 4157.5,-85"/>
<text text-anchor="middle" x="4090.5" y="-73" font-family="Helvetica,sans-Serif" font-size="10.00">exec/any_sender_of.hpp</text>
</a>
</g>
</g>
<!-- Node4&#45;&gt;Node10 -->
<g id="edge9_Node000004_Node000010" class="edge">
<title>Node4&#45;&gt;Node10</title>
<g id="a_edge9_Node000004_Node000010"><a xlink:title=" ">
<path fill="none" stroke="#63b8ff" d="M3875.94,-131.94C3926.57,-118.85 4001,-99.62 4047.56,-87.59"/>
<polygon fill="#63b8ff" stroke="#63b8ff" points="4048.53,-90.96 4057.34,-85.07 4046.78,-84.18 4048.53,-90.96"/>
</a>
</g>
</g>
<!-- Node11 -->
<g id="Node000011" class="node">
<title>Node11</title>
<g id="a_Node000011"><a xlink:title=" ">
<polygon fill="#e0e0e0" stroke="#999999" points="3773,-90.5 3606,-90.5 3606,-60.5 3773,-60.5 3773,-90.5"/>
<text text-anchor="start" x="3614" y="-78.5" font-family="Helvetica,sans-Serif" font-size="10.00">Hermes/_base/ConnectionError</text>
<text text-anchor="middle" x="3689.5" y="-67.5" font-family="Helvetica,sans-Serif" font-size="10.00">Enum.tpp</text>
</a>
</g>
</g>
<!-- Node4&#45;&gt;Node11 -->
<g id="edge10_Node000004_Node000011" class="edge">
<title>Node4&#45;&gt;Node11</title>
<g id="a_edge10_Node000004_Node000011"><a xlink:title=" ">
<path fill="none" stroke="#63b8ff" d="M3794.79,-131.94C3774.75,-121.38 3747.11,-106.83 3725.18,-95.29"/>
<polygon fill="#63b8ff" stroke="#63b8ff" points="3726.65,-92.11 3716.17,-90.54 3723.39,-98.3 3726.65,-92.11"/>
</a>
</g>
</g>
<!-- Node13 -->
<g id="Node000013" class="node">
<title>Node13</title>
<g id="a_Node000013"><a xlink:title=" ">
<polygon fill="#e0e0e0" stroke="#999999" points="69,-85 0,-85 0,-66 69,-66 69,-85"/>
<text text-anchor="middle" x="34.5" y="-73" font-family="Helvetica,sans-Serif" font-size="10.00">ws2tcpip.h</text>
</a>
</g>
</g>
<!-- Node12&#45;&gt;Node13 -->
<g id="edge12_Node000012_Node000013" class="edge">
<title>Node12&#45;&gt;Node13</title>
<g id="a_edge12_Node000012_Node000013"><a xlink:title=" ">
<path fill="none" stroke="#63b8ff" d="M1663.42,-145.56C1382.12,-143.38 233.91,-132.3 77.5,-96 71.26,-94.55 64.82,-92.17 58.89,-89.56"/>
<polygon fill="#63b8ff" stroke="#63b8ff" points="60.04,-86.23 49.5,-85.08 57.02,-92.55 60.04,-86.23"/>
</a>
</g>
</g>
<!-- Node14 -->
<g id="Node000014" class="node">
<title>Node14</title>
<g id="a_Node000014"><a xlink:title=" ">
<polygon fill="#e0e0e0" stroke="#999999" points="913,-19 842,-19 842,0 913,0 913,-19"/>
<text text-anchor="middle" x="877.5" y="-7" font-family="Helvetica,sans-Serif" font-size="10.00">winsock2.h</text>
</a>
</g>
</g>
<!-- Node12&#45;&gt;Node14 -->
<g id="edge13_Node000012_Node000014" class="edge">
<title>Node12&#45;&gt;Node14</title>
<g id="a_edge13_Node000012_Node000014"><a xlink:title=" ">
<path fill="none" stroke="#63b8ff" d="M1663.35,-146.48C1480.64,-147.32 954.4,-145.39 896.5,-96 877.46,-79.76 875.05,-49.05 875.75,-29.2"/>
<polygon fill="#63b8ff" stroke="#63b8ff" points="879.25,-29.41 876.41,-19.2 872.26,-28.95 879.25,-29.41"/>
</a>
</g>
</g>
<!-- Node15 -->
<g id="Node000015" class="node">
<title>Node15</title>
<g id="a_Node000015"><a xlink:title=" ">
<polygon fill="#e0e0e0" stroke="#999999" points="1877.5,-85 1827.5,-85 1827.5,-66 1877.5,-66 1877.5,-85"/>
<text text-anchor="middle" x="1852.5" y="-73" font-family="Helvetica,sans-Serif" font-size="10.00">ntdef.h</text>
</a>
</g>
</g>
<!-- Node12&#45;&gt;Node15 -->
<g id="edge14_Node000012_Node000015" class="edge">
<title>Node12&#45;&gt;Node15</title>
<g id="a_edge14_Node000012_Node000015"><a xlink:title=" ">
<path fill="none" stroke="#63b8ff" d="M1752.82,-131.88C1771.68,-122.04 1797.25,-108.48 1819.5,-96 1822.67,-94.22 1825.99,-92.31 1829.26,-90.41"/>
<polygon fill="#63b8ff" stroke="#63b8ff" points="1831.29,-93.28 1838.12,-85.18 1827.73,-87.25 1831.29,-93.28"/>
</a>
</g>
</g>
<!-- Node16 -->
<g id="Node000016" class="node">
<title>Node16</title>
<g id="a_Node000016"><a xlink:title=" ">
<polygon fill="#e0e0e0" stroke="#999999" points="1342,-19 1273,-19 1273,0 1342,0 1342,-19"/>
<text text-anchor="middle" x="1307.5" y="-7" font-family="Helvetica,sans-Serif" font-size="10.00">schannel.h</text>
</a>
</g>
</g>
<!-- Node12&#45;&gt;Node16 -->
<g id="edge15_Node000012_Node000016" class="edge">
<title>Node12&#45;&gt;Node16</title>
<g id="a_edge15_Node000012_Node000016"><a xlink:title=" ">
<path fill="none" stroke="#63b8ff" d="M1693.36,-131.97C1674.67,-123.05 1651.21,-110.47 1632.5,-96 1612.85,-80.8 1616.44,-66.66 1594.5,-55 1553.42,-33.16 1422.45,-19.69 1352.52,-13.86"/>
<polygon fill="#63b8ff" stroke="#63b8ff" points="1352.5,-10.35 1342.25,-13.03 1351.93,-17.33 1352.5,-10.35"/>
</a>
</g>
</g>
<!-- Node17 -->
<g id="Node000017" class="node">
<title>Node17</title>
<g id="a_Node000017"><a xlink:title=" ">
<polygon fill="#e0e0e0" stroke="#999999" points="2268,-19 2223,-19 2223,0 2268,0 2268,-19"/>
<text text-anchor="middle" x="2245.5" y="-7" font-family="Helvetica,sans-Serif" font-size="10.00">sspi.h</text>
</a>
</g>
</g>
<!-- Node12&#45;&gt;Node17 -->
<g id="edge16_Node000012_Node000017" class="edge">
<title>Node12&#45;&gt;Node17</title>
<g id="a_edge16_Node000012_Node000017"><a xlink:title=" ">
<path fill="none" stroke="#63b8ff" d="M1787.5,-146.34C1952.16,-146.59 2390.86,-142.83 2434.5,-96 2446.92,-82.67 2445.81,-69.29 2434.5,-55 2415.34,-30.81 2326.93,-18.46 2278.12,-13.39"/>
<polygon fill="#63b8ff" stroke="#63b8ff" points="2278.35,-9.89 2268.05,-12.39 2277.66,-16.86 2278.35,-9.89"/>
</a>
</g>
</g>
<!-- Node18 -->
<g id="Node000018" class="node">
<title>Node18</title>
<g id="a_Node000018"><a xlink:href="_conversion_and_literals_8hpp.html" target="_top" xlink:title=" ">
<polygon fill="white" stroke="#666666" points="3386.5,-90.5 3236.5,-90.5 3236.5,-60.5 3386.5,-60.5 3386.5,-90.5"/>
<text text-anchor="start" x="3244.5" y="-78.5" font-family="Helvetica,sans-Serif" font-size="10.00">Hermes/_base/WinApi</text>
<text text-anchor="middle" x="3311.5" y="-67.5" font-family="Helvetica,sans-Serif" font-size="10.00">/ConversionAndLiterals.hpp</text>
</a>
</g>
</g>
<!-- Node12&#45;&gt;Node18 -->
<g id="edge17_Node000012_Node000018" class="edge">
<title>Node12&#45;&gt;Node18</title>
<g id="a_edge17_Node000012_Node000018"><a xlink:title=" ">
<path fill="none" stroke="#63b8ff" d="M1787.69,-145.54C2034.09,-143.49 2942.3,-133.49 3227.5,-96 3234.18,-95.12 3241.11,-93.95 3247.99,-92.61"/>
<polygon fill="#63b8ff" stroke="#63b8ff" points="3248.92,-96 3258.01,-90.55 3247.51,-89.14 3248.92,-96"/>
</a>
</g>
</g>
<!-- Node20 -->
<g id="Node000020" class="node">
<title>Node20</title>
<g id="a_Node000020"><a xlink:href="_macros_8hpp.html" target="_top" xlink:title=" ">
<polygon fill="white" stroke="#666666" points="1029.5,-90.5 905.5,-90.5 905.5,-60.5 1029.5,-60.5 1029.5,-90.5"/>
<text text-anchor="start" x="913.5" y="-78.5" font-family="Helvetica,sans-Serif" font-size="10.00">Hermes/_base/WinApi</text>
<text text-anchor="middle" x="967.5" y="-67.5" font-family="Helvetica,sans-Serif" font-size="10.00">/Macros.hpp</text>
</a>
</g>
</g>
<!-- Node12&#45;&gt;Node20 -->
<g id="edge19_Node000012_Node000020" class="edge">
<title>Node12&#45;&gt;Node20</title>
<g id="a_edge19_Node000012_Node000020"><a xlink:title=" ">
<path fill="none" stroke="#63b8ff" d="M1663.43,-145.53C1542.35,-143.72 1266.55,-135.23 1038.5,-96 1033.51,-95.14 1028.36,-94.08 1023.23,-92.9"/>
<polygon fill="#63b8ff" stroke="#63b8ff" points="1023.96,-89.48 1013.42,-90.51 1022.31,-96.28 1023.96,-89.48"/>
</a>
</g>
</g>
<!-- Node22 -->
<g id="Node000022" class="node">
<title>Node22</title>
<g id="a_Node000022"><a xlink:href="_address_family_enum_8hpp.html" target="_top" xlink:title=" ">
<polygon fill="white" stroke="#666666" points="3218.5,-90.5 3042.5,-90.5 3042.5,-60.5 3218.5,-60.5 3218.5,-90.5"/>
<text text-anchor="start" x="3050.5" y="-78.5" font-family="Helvetica,sans-Serif" font-size="10.00">Hermes/_base/WinApi</text>
<text text-anchor="middle" x="3130.5" y="-67.5" font-family="Helvetica,sans-Serif" font-size="10.00">/Enums/AddressFamilyEnum.hpp</text>
</a>
</g>
</g>
<!-- Node12&#45;&gt;Node22 -->
<g id="edge24_Node000012_Node000022" class="edge">
<title>Node12&#45;&gt;Node22</title>
<g id="a_edge24_Node000012_Node000022"><a xlink:title=" ">
<path fill="none" stroke="#63b8ff" d="M1787.53,-144.95C2012.86,-140.92 2787.67,-125.22 3033.5,-96 3041.56,-95.04 3049.96,-93.77 3058.28,-92.34"/>
<polygon fill="#63b8ff" stroke="#63b8ff" points="3059.16,-95.74 3068.38,-90.52 3057.92,-88.85 3059.16,-95.74"/>
</a>
</g>
</g>
<!-- Node24 -->
<g id="Node000024" class="node">
<title>Node24</title>
<g id="a_Node000024"><a xlink:href="_condition_function_enum_8hpp.html" target="_top" xlink:title=" ">
<polygon fill="white" stroke="#666666" points="659.5,-90.5 467.5,-90.5 467.5,-60.5 659.5,-60.5 659.5,-90.5"/>
<text text-anchor="start" x="475.5" y="-78.5" font-family="Helvetica,sans-Serif" font-size="10.00">Hermes/_base/WinApi</text>
<text text-anchor="middle" x="563.5" y="-67.5" font-family="Helvetica,sans-Serif" font-size="10.00">/Enums/ConditionFunctionEnum.hpp</text>
</a>
</g>
</g>
<!-- Node12&#45;&gt;Node24 -->
<g id="edge26_Node000012_Node000024" class="edge">
<title>Node12&#45;&gt;Node24</title>
<g id="a_edge26_Node000012_Node000024"><a xlink:title=" ">
<path fill="none" stroke="#63b8ff" d="M1663.31,-146.01C1499.78,-145.4 1044.43,-139.59 668.5,-96 659.8,-94.99 650.74,-93.69 641.74,-92.24"/>
<polygon fill="#63b8ff" stroke="#63b8ff" points="642.08,-88.75 631.64,-90.55 640.92,-95.65 642.08,-88.75"/>
</a>
</g>
</g>
<!-- Node26 -->
<g id="Node000026" class="node">
<title>Node26</title>
<g id="a_Node000026"><a xlink:href="_encrypt_status_enum_8hpp.html" target="_top" xlink:title=" ">
<polygon fill="white" stroke="#666666" points="849.5,-90.5 677.5,-90.5 677.5,-60.5 849.5,-60.5 849.5,-90.5"/>
<text text-anchor="start" x="685.5" y="-78.5" font-family="Helvetica,sans-Serif" font-size="10.00">Hermes/_base/WinApi</text>
<text text-anchor="middle" x="763.5" y="-67.5" font-family="Helvetica,sans-Serif" font-size="10.00">/Enums/EncryptStatusEnum.hpp</text>
</a>
</g>
</g>
<!-- Node12&#45;&gt;Node26 -->
<g id="edge28_Node000012_Node000026" class="edge">
<title>Node12&#45;&gt;Node26</title>
<g id="a_edge28_Node000012_Node000026"><a xlink:title=" ">
<path fill="none" stroke="#63b8ff" d="M1663.3,-145.26C1521.11,-142.94 1161.52,-133.53 863.5,-96 855.45,-94.99 847.08,-93.71 838.76,-92.3"/>
<polygon fill="#63b8ff" stroke="#63b8ff" points="839.11,-88.81 828.65,-90.52 837.89,-95.7 839.11,-88.81"/>
</a>
</g>
</g>
<!-- Node28 -->
<g id="Node000028" class="node">
<title>Node28</title>
<g id="a_Node000028"><a xlink:href="_protocol_base_type_enum_8hpp.html" target="_top" xlink:title=" ">
<polygon fill="white" stroke="#666666" points="3024,-90.5 2833,-90.5 2833,-60.5 3024,-60.5 3024,-90.5"/>
<text text-anchor="start" x="2841" y="-78.5" font-family="Helvetica,sans-Serif" font-size="10.00">Hermes/_base/WinApi</text>
<text text-anchor="middle" x="2928.5" y="-67.5" font-family="Helvetica,sans-Serif" font-size="10.00">/Enums/ProtocolBaseTypeEnum.hpp</text>
</a>
</g>
</g>
<!-- Node12&#45;&gt;Node28 -->
<g id="edge30_Node000012_Node000028" class="edge">
<title>Node12&#45;&gt;Node28</title>
<g id="a_edge30_Node000012_Node000028"><a xlink:title=" ">
<path fill="none" stroke="#63b8ff" d="M1787.71,-146.21C1955.6,-146.12 2431.77,-141.53 2824.5,-96 2833.18,-94.99 2842.23,-93.69 2851.21,-92.23"/>
<polygon fill="#63b8ff" stroke="#63b8ff" points="2852.02,-95.64 2861.3,-90.52 2850.85,-88.74 2852.02,-95.64"/>
</a>
</g>
</g>
<!-- Node29 -->
<g id="Node000029" class="node">
<title>Node29</title>
<g id="a_Node000029"><a xlink:href="_s_ch_cred_enum_8hpp.html" target="_top" xlink:title=" ">
<polygon fill="white" stroke="#666666" points="1193.5,-90.5 1047.5,-90.5 1047.5,-60.5 1193.5,-60.5 1193.5,-90.5"/>
<text text-anchor="start" x="1055.5" y="-78.5" font-family="Helvetica,sans-Serif" font-size="10.00">Hermes/_base/WinApi</text>
<text text-anchor="middle" x="1120.5" y="-67.5" font-family="Helvetica,sans-Serif" font-size="10.00">/Enums/SChCredEnum.hpp</text>
</a>
</g>
</g>
<!-- Node12&#45;&gt;Node29 -->
<g id="edge32_Node000012_Node000029" class="edge">
<title>Node12&#45;&gt;Node29</title>
<g id="a_edge32_Node000012_Node000029"><a xlink:title=" ">
<path fill="none" stroke="#63b8ff" d="M1663.28,-142.77C1565.07,-137.06 1368.34,-123.13 1203.5,-96 1197.7,-95.05 1191.7,-93.92 1185.7,-92.69"/>
<polygon fill="#63b8ff" stroke="#63b8ff" points="1186.16,-89.21 1175.65,-90.55 1184.71,-96.06 1186.16,-89.21"/>
</a>
</g>
</g>
<!-- Node30 -->
<g id="Node000030" class="node">
<title>Node30</title>
<g id="a_Node000030"><a xlink:href="_security_buffer_enum_8hpp.html" target="_top" xlink:title=" ">
<polygon fill="white" stroke="#666666" points="2425,-90.5 2252,-90.5 2252,-60.5 2425,-60.5 2425,-90.5"/>
<text text-anchor="start" x="2260" y="-78.5" font-family="Helvetica,sans-Serif" font-size="10.00">Hermes/_base/WinApi</text>
<text text-anchor="middle" x="2338.5" y="-67.5" font-family="Helvetica,sans-Serif" font-size="10.00">/Enums/SecurityBufferEnum.hpp</text>
</a>
</g>
</g>
<!-- Node12&#45;&gt;Node30 -->
<g id="edge34_Node000012_Node000030" class="edge">
<title>Node12&#45;&gt;Node30</title>
<g id="a_edge34_Node000012_Node000030"><a xlink:title=" ">
<path fill="none" stroke="#63b8ff" d="M1787.83,-142.07C1885.23,-135.47 2079.29,-120.4 2242.5,-96 2249.55,-94.95 2256.87,-93.71 2264.18,-92.39"/>
<polygon fill="#63b8ff" stroke="#63b8ff" points="2264.93,-95.81 2274.11,-90.54 2263.64,-88.93 2264.93,-95.81"/>
</a>
</g>
</g>
<!-- Node31 -->
<g id="Node000031" class="node">
<title>Node31</title>
<g id="a_Node000031"><a xlink:href="_socket_shutdown_enum_8hpp.html" target="_top" xlink:title=" ">
<polygon fill="white" stroke="#666666" points="272,-90.5 87,-90.5 87,-60.5 272,-60.5 272,-90.5"/>
<text text-anchor="start" x="95" y="-78.5" font-family="Helvetica,sans-Serif" font-size="10.00">Hermes/_base/WinApi</text>
<text text-anchor="middle" x="179.5" y="-67.5" font-family="Helvetica,sans-Serif" font-size="10.00">/Enums/SocketShutdownEnum.hpp</text>
</a>
</g>
</g>
<!-- Node12&#45;&gt;Node31 -->
<g id="edge36_Node000012_Node000031" class="edge">
<title>Node12&#45;&gt;Node31</title>
<g id="a_edge36_Node000012_Node000031"><a xlink:title=" ">
<path fill="none" stroke="#63b8ff" d="M1663.27,-145.14C1422.86,-141.62 554.56,-127.01 280.5,-96 271.93,-95.03 262.99,-93.73 254.14,-92.26"/>
<polygon fill="#63b8ff" stroke="#63b8ff" points="254.65,-88.8 244.2,-90.54 253.45,-95.7 254.65,-88.8"/>
</a>
</g>
</g>
<!-- Node32 -->
<g id="Node000032" class="node">
<title>Node32</title>
<g id="a_Node000032"><a xlink:href="_socket_type_enum_8hpp.html" target="_top" xlink:title=" ">
<polygon fill="white" stroke="#666666" points="449,-90.5 290,-90.5 290,-60.5 449,-60.5 449,-90.5"/>
<text text-anchor="start" x="298" y="-78.5" font-family="Helvetica,sans-Serif" font-size="10.00">Hermes/_base/WinApi</text>
<text text-anchor="middle" x="369.5" y="-67.5" font-family="Helvetica,sans-Serif" font-size="10.00">/Enums/SocketTypeEnum.hpp</text>
</a>
</g>
</g>
<!-- Node12&#45;&gt;Node32 -->
<g id="edge38_Node000012_Node000032" class="edge">
<title>Node12&#45;&gt;Node32</title>
<g id="a_edge38_Node000012_Node000032"><a xlink:title=" ">
<path fill="none" stroke="#63b8ff" d="M1663.12,-144.99C1441.91,-141.2 695.54,-126.4 458.5,-96 451.38,-95.09 443.99,-93.88 436.65,-92.52"/>
<polygon fill="#63b8ff" stroke="#63b8ff" points="437.18,-89.06 426.69,-90.59 435.84,-95.93 437.18,-89.06"/>
</a>
</g>
</g>
<!-- Node33 -->
<g id="Node000033" class="node">
<title>Node33</title>
<g id="a_Node000033"><a xlink:href="_credential_flags_8hpp.html" target="_top" xlink:title=" ">
<polygon fill="white" stroke="#666666" points="2627.5,-90.5 2481.5,-90.5 2481.5,-60.5 2627.5,-60.5 2627.5,-90.5"/>
<text text-anchor="start" x="2489.5" y="-78.5" font-family="Helvetica,sans-Serif" font-size="10.00">Hermes/_base/WinApi</text>
<text text-anchor="middle" x="2554.5" y="-67.5" font-family="Helvetica,sans-Serif" font-size="10.00">/Flags/CredentialFlags.hpp</text>
</a>
</g>
</g>
<!-- Node12&#45;&gt;Node33 -->
<g id="edge40_Node000012_Node000033" class="edge">
<title>Node12&#45;&gt;Node33</title>
<g id="a_edge40_Node000012_Node000033"><a xlink:title=" ">
<path fill="none" stroke="#63b8ff" d="M1787.89,-145.02C1915.93,-142.29 2217.38,-132.24 2467.5,-96 2474.09,-95.05 2480.92,-93.86 2487.72,-92.55"/>
<polygon fill="#63b8ff" stroke="#63b8ff" points="2488.53,-95.96 2497.64,-90.56 2487.14,-89.1 2488.53,-95.96"/>
</a>
</g>
</g>
<!-- Node34 -->
<g id="Node000034" class="node">
<title>Node34</title>
<g id="a_Node000034"><a xlink:href="_supported_protocols_flags_8hpp.html" target="_top" xlink:title=" ">
<polygon fill="white" stroke="#666666" points="1403,-90.5 1212,-90.5 1212,-60.5 1403,-60.5 1403,-90.5"/>
<text text-anchor="start" x="1220" y="-78.5" font-family="Helvetica,sans-Serif" font-size="10.00">Hermes/_base/WinApi</text>
<text text-anchor="middle" x="1307.5" y="-67.5" font-family="Helvetica,sans-Serif" font-size="10.00">/Flags/SupportedProtocolsFlags.hpp</text>
</a>
</g>
</g>
<!-- Node12&#45;&gt;Node34 -->
<g id="edge42_Node000012_Node000034" class="edge">
<title>Node12&#45;&gt;Node34</title>
<g id="a_edge42_Node000012_Node000034"><a xlink:title=" ">
<path fill="none" stroke="#63b8ff" d="M1663.36,-136.55C1600.15,-126.82 1499.4,-111.01 1412.5,-96 1405.81,-94.84 1398.89,-93.62 1391.93,-92.37"/>
<polygon fill="#63b8ff" stroke="#63b8ff" points="1392.21,-88.86 1381.74,-90.53 1390.96,-95.75 1392.21,-88.86"/>
</a>
</g>
</g>
<!-- Node35 -->
<g id="Node000035" class="node">
<title>Node35</title>
<g id="a_Node000035"><a xlink:href="_initialize_security_context_flags_8hpp.html" target="_top" xlink:title=" ">
<polygon fill="white" stroke="#666666" points="2815,-96 2646,-96 2646,-55 2815,-55 2815,-96"/>
<text text-anchor="start" x="2654" y="-84" font-family="Helvetica,sans-Serif" font-size="10.00">Hermes/_base/WinApi</text>
<text text-anchor="start" x="2654" y="-73" font-family="Helvetica,sans-Serif" font-size="10.00">/Flags/InitializeSecurityContext</text>
<text text-anchor="middle" x="2730.5" y="-62" font-family="Helvetica,sans-Serif" font-size="10.00">Flags.hpp</text>
</a>
</g>
</g>
<!-- Node12&#45;&gt;Node35 -->
<g id="edge44_Node000012_Node000035" class="edge">
<title>Node12&#45;&gt;Node35</title>
<g id="a_edge44_Node000012_Node000035"><a xlink:title=" ">
<path fill="none" stroke="#63b8ff" d="M1787.65,-145.79C1933.93,-144.6 2311.38,-137.53 2635.73,-95.98"/>
<polygon fill="#63b8ff" stroke="#63b8ff" points="2636.33,-99.43 2645.8,-94.68 2635.43,-92.49 2636.33,-99.43"/>
</a>
</g>
</g>
<!-- Node36 -->
<g id="Node000036" class="node">
<title>Node36</title>
<g id="a_Node000036"><a xlink:href="_initialize_security_context_return_flags_8hpp.html" target="_top" xlink:title=" ">
<polygon fill="white" stroke="#666666" points="1810,-96 1641,-96 1641,-55 1810,-55 1810,-96"/>
<text text-anchor="start" x="1649" y="-84" font-family="Helvetica,sans-Serif" font-size="10.00">Hermes/_base/WinApi</text>
<text text-anchor="start" x="1649" y="-73" font-family="Helvetica,sans-Serif" font-size="10.00">/Flags/InitializeSecurityContext</text>
<text text-anchor="middle" x="1725.5" y="-62" font-family="Helvetica,sans-Serif" font-size="10.00">ReturnFlags.hpp</text>
</a>
</g>
</g>
<!-- Node12&#45;&gt;Node36 -->
<g id="edge46_Node000012_Node000036" class="edge">
<title>Node12&#45;&gt;Node36</title>
<g id="a_edge46_Node000012_Node000036"><a xlink:title=" ">
<path fill="none" stroke="#63b8ff" d="M1725.5,-131.94C1725.5,-124.52 1725.5,-115.14 1725.5,-106.2"/>
<polygon fill="#63b8ff" stroke="#63b8ff" points="1729,-106.07 1725.5,-96.07 1722,-106.07 1729,-106.07"/>
</a>
</g>
</g>
<!-- Node37 -->
<g id="Node000037" class="node">
<title>Node37</title>
<g id="a_Node000037"><a xlink:href="_accept_security_context_flags_8hpp.html" target="_top" xlink:title=" ">
<polygon fill="white" stroke="#666666" points="2055.5,-96 1895.5,-96 1895.5,-55 2055.5,-55 2055.5,-96"/>
<text text-anchor="start" x="1903.5" y="-84" font-family="Helvetica,sans-Serif" font-size="10.00">Hermes/_base/WinApi</text>
<text text-anchor="start" x="1903.5" y="-73" font-family="Helvetica,sans-Serif" font-size="10.00">/Flags/AcceptSecurityContext</text>
<text text-anchor="middle" x="1975.5" y="-62" font-family="Helvetica,sans-Serif" font-size="10.00">Flags.hpp</text>
</a>
</g>
</g>
<!-- Node12&#45;&gt;Node37 -->
<g id="edge48_Node000012_Node000037" class="edge">
<title>Node12&#45;&gt;Node37</title>
<g id="a_edge48_Node000012_Node000037"><a xlink:title=" ">
<path fill="none" stroke="#63b8ff" d="M1776.09,-131.94C1810.29,-122.43 1856.17,-109.67 1895.3,-98.8"/>
<polygon fill="#63b8ff" stroke="#63b8ff" points="1896.39,-102.12 1905.09,-96.07 1894.52,-95.38 1896.39,-102.12"/>
</a>
</g>
</g>
<!-- Node38 -->
<g id="Node000038" class="node">
<title>Node38</title>
<g id="a_Node000038"><a xlink:href="_accept_security_context_return_flags_8hpp.html" target="_top" xlink:title=" ">
<polygon fill="white" stroke="#666666" points="2233.5,-96 2073.5,-96 2073.5,-55 2233.5,-55 2233.5,-96"/>
<text text-anchor="start" x="2081.5" y="-84" font-family="Helvetica,sans-Serif" font-size="10.00">Hermes/_base/WinApi</text>
<text text-anchor="start" x="2081.5" y="-73" font-family="Helvetica,sans-Serif" font-size="10.00">/Flags/AcceptSecurityContext</text>
<text text-anchor="middle" x="2153.5" y="-62" font-family="Helvetica,sans-Serif" font-size="10.00">ReturnFlags.hpp</text>
</a>
</g>
</g>
<!-- Node12&#45;&gt;Node38 -->
<g id="edge50_Node000012_Node000038" class="edge">
<title>Node12&#45;&gt;Node38</title>
<g id="a_edge50_Node000012_Node000038"><a xlink:title=" ">
<path fill="none" stroke="#63b8ff" d="M1787.57,-138.16C1853.58,-129.52 1961.25,-114.59 2063.61,-96.1"/>
<polygon fill="#63b8ff" stroke="#63b8ff" points="2064.29,-99.54 2073.5,-94.3 2063.03,-92.65 2064.29,-99.54"/>
</a>
</g>
</g>
<!-- Node39 -->
<g id="Node000039" class="node">
<title>Node39</title>
<g id="a_Node000039"><a xlink:href="_s_channel_cred_flags_8hpp.html" target="_top" xlink:title=" ">
<polygon fill="white" stroke="#666666" points="1585.5,-90.5 1421.5,-90.5 1421.5,-60.5 1585.5,-60.5 1585.5,-90.5"/>
<text text-anchor="start" x="1429.5" y="-78.5" font-family="Helvetica,sans-Serif" font-size="10.00">Hermes/_base/WinApi</text>
<text text-anchor="middle" x="1503.5" y="-67.5" font-family="Helvetica,sans-Serif" font-size="10.00">/Flags/SChannelCredFlags.hpp</text>
</a>
</g>
</g>
<!-- Node12&#45;&gt;Node39 -->
<g id="edge52_Node000012_Node000039" class="edge">
<title>Node12&#45;&gt;Node39</title>
<g id="a_edge52_Node000012_Node000039"><a xlink:title=" ">
<path fill="none" stroke="#63b8ff" d="M1680.57,-131.94C1645.22,-120.87 1595.8,-105.4 1558.15,-93.61"/>
<polygon fill="#63b8ff" stroke="#63b8ff" points="1558.95,-90.19 1548.36,-90.54 1556.86,-96.87 1558.95,-90.19"/>
</a>
</g>
</g>
<!-- Node18&#45;&gt;Node19 -->
<g id="edge18_Node000018_Node000019" class="edge">
<title>Node18&#45;&gt;Node19</title>
<g id="a_edge18_Node000018_Node000019"><a xlink:title=" ">
<path fill="none" stroke="#63b8ff" d="M3368.27,-60.49C3377.35,-58.49 3386.66,-56.58 3395.5,-55 3510.75,-34.41 3648.84,-19.92 3712.78,-13.78"/>
<polygon fill="#63b8ff" stroke="#63b8ff" points="3713.49,-17.23 3723.11,-12.8 3712.82,-10.26 3713.49,-17.23"/>
</a>
</g>
</g>
<!-- Node20&#45;&gt;Node14 -->
<g id="edge21_Node000020_Node000014" class="edge">
<title>Node20&#45;&gt;Node14</title>
<g id="a_edge21_Node000020_Node000014"><a xlink:title=" ">
<path fill="none" stroke="#63b8ff" d="M947.53,-60.3C932.86,-49.87 912.99,-35.74 898.16,-25.19"/>
<polygon fill="#63b8ff" stroke="#63b8ff" points="899.85,-22.1 889.68,-19.16 895.8,-27.81 899.85,-22.1"/>
</a>
</g>
</g>
<!-- Node20&#45;&gt;Node16 -->
<g id="edge22_Node000020_Node000016" class="edge">
<title>Node20&#45;&gt;Node16</title>
<g id="a_edge22_Node000020_Node000016"><a xlink:title=" ">
<path fill="none" stroke="#63b8ff" d="M1016.22,-60.4C1023.65,-58.46 1031.26,-56.59 1038.5,-55 1116.74,-37.83 1209.08,-23.92 1262.69,-16.46"/>
<polygon fill="#63b8ff" stroke="#63b8ff" points="1263.46,-19.88 1272.89,-15.05 1262.5,-12.95 1263.46,-19.88"/>
</a>
</g>
</g>
<!-- Node20&#45;&gt;Node17 -->
<g id="edge23_Node000020_Node000017" class="edge">
<title>Node20&#45;&gt;Node17</title>
<g id="a_edge23_Node000020_Node000017"><a xlink:title=" ">
<path fill="none" stroke="#63b8ff" d="M1012.61,-60.43C1021.14,-58.26 1030.03,-56.3 1038.5,-55 1274.26,-18.78 2044.24,-11.79 2212.73,-10.68"/>
<polygon fill="#63b8ff" stroke="#63b8ff" points="2212.97,-14.18 2222.95,-10.62 2212.92,-7.18 2212.97,-14.18"/>
</a>
</g>
</g>
<!-- Node21 -->
<g id="Node000021" class="node">
<title>Node21</title>
<g id="a_Node000021"><a xlink:title=" ">
<polygon fill="#e0e0e0" stroke="#999999" points="1004,-19 931,-19 931,0 1004,0 1004,-19"/>
<text text-anchor="middle" x="967.5" y="-7" font-family="Helvetica,sans-Serif" font-size="10.00">string_view</text>
</a>
</g>
</g>
<!-- Node20&#45;&gt;Node21 -->
<g id="edge20_Node000020_Node000021" class="edge">
<title>Node20&#45;&gt;Node21</title>
<g id="a_edge20_Node000020_Node000021"><a xlink:title=" ">
<path fill="none" stroke="#63b8ff" d="M967.5,-60.3C967.5,-51.2 967.5,-39.29 967.5,-29.4"/>
<polygon fill="#63b8ff" stroke="#63b8ff" points="971,-29.34 967.5,-19.34 964,-29.34 971,-29.34"/>
</a>
</g>
</g>
<!-- Node23 -->
<g id="Node000023" class="node">
<title>Node23</title>
<g id="a_Node000023"><a xlink:title=" ">
<polygon fill="#e0e0e0" stroke="#999999" points="3059.5,-19 2999.5,-19 2999.5,0 3059.5,0 3059.5,-19"/>
<text text-anchor="middle" x="3029.5" y="-7" font-family="Helvetica,sans-Serif" font-size="10.00">ws2def.h</text>
</a>
</g>
</g>
<!-- Node22&#45;&gt;Node23 -->
<g id="edge25_Node000022_Node000023" class="edge">
<title>Node22&#45;&gt;Node23</title>
<g id="a_edge25_Node000022_Node000023"><a xlink:title=" ">
<path fill="none" stroke="#63b8ff" d="M3108.08,-60.3C3091.31,-49.67 3068.49,-35.2 3051.75,-24.6"/>
<polygon fill="#63b8ff" stroke="#63b8ff" points="3053.48,-21.55 3043.16,-19.16 3049.74,-27.47 3053.48,-21.55"/>
</a>
</g>
</g>
<!-- Node25 -->
<g id="Node000025" class="node">
<title>Node25</title>
<g id="a_Node000025"><a xlink:title=" ">
<polygon fill="#e0e0e0" stroke="#999999" points="406.5,-19 332.5,-19 332.5,0 406.5,0 406.5,-19"/>
<text text-anchor="middle" x="369.5" y="-7" font-family="Helvetica,sans-Serif" font-size="10.00">WinSock2.h</text>
</a>
</g>
</g>
<!-- Node24&#45;&gt;Node25 -->
<g id="edge27_Node000024_Node000025" class="edge">
<title>Node24&#45;&gt;Node25</title>
<g id="a_edge27_Node000024_Node000025"><a xlink:title=" ">
<path fill="none" stroke="#63b8ff" d="M520.93,-60.45C486.15,-48.98 437.59,-32.96 404.91,-22.18"/>
<polygon fill="#63b8ff" stroke="#63b8ff" points="405.91,-18.83 395.32,-19.02 403.72,-25.47 405.91,-18.83"/>
</a>
</g>
</g>
<!-- Node27 -->
<g id="Node000027" class="node">
<title>Node27</title>
<g id="a_Node000027"><a xlink:title=" ">
<polygon fill="#e0e0e0" stroke="#999999" points="796,-19 731,-19 731,0 796,0 796,-19"/>
<text text-anchor="middle" x="763.5" y="-7" font-family="Helvetica,sans-Serif" font-size="10.00">winerror.h</text>
</a>
</g>
</g>
<!-- Node26&#45;&gt;Node27 -->
<g id="edge29_Node000026_Node000027" class="edge">
<title>Node26&#45;&gt;Node27</title>
<g id="a_edge29_Node000026_Node000027"><a xlink:title=" ">
<path fill="none" stroke="#63b8ff" d="M763.5,-60.3C763.5,-51.2 763.5,-39.29 763.5,-29.4"/>
<polygon fill="#63b8ff" stroke="#63b8ff" points="767,-29.34 763.5,-19.34 760,-29.34 767,-29.34"/>
</a>
</g>
</g>
<!-- Node28&#45;&gt;Node23 -->
<g id="edge31_Node000028_Node000023" class="edge">
<title>Node28&#45;&gt;Node23</title>
<g id="a_edge31_Node000028_Node000023"><a xlink:title=" ">
<path fill="none" stroke="#63b8ff" d="M2950.92,-60.3C2967.69,-49.67 2990.51,-35.2 3007.25,-24.6"/>
<polygon fill="#63b8ff" stroke="#63b8ff" points="3009.26,-27.47 3015.84,-19.16 3005.52,-21.55 3009.26,-27.47"/>
</a>
</g>
</g>
<!-- Node29&#45;&gt;Node16 -->
<g id="edge33_Node000029_Node000016" class="edge">
<title>Node29&#45;&gt;Node16</title>
<g id="a_edge33_Node000029_Node000016"><a xlink:title=" ">
<path fill="none" stroke="#63b8ff" d="M1161.54,-60.45C1194.91,-49.03 1241.47,-33.1 1272.96,-22.32"/>
<polygon fill="#63b8ff" stroke="#63b8ff" points="1274.29,-25.57 1282.61,-19.02 1272.02,-18.94 1274.29,-25.57"/>
</a>
</g>
</g>
<!-- Node30&#45;&gt;Node17 -->
<g id="edge35_Node000030_Node000017" class="edge">
<title>Node30&#45;&gt;Node17</title>
<g id="a_edge35_Node000030_Node000017"><a xlink:title=" ">
<path fill="none" stroke="#63b8ff" d="M2317.86,-60.3C2302.56,-49.77 2281.79,-35.47 2266.42,-24.9"/>
<polygon fill="#63b8ff" stroke="#63b8ff" points="2268.3,-21.94 2258.08,-19.16 2264.34,-27.71 2268.3,-21.94"/>
</a>
</g>
</g>
<!-- Node31&#45;&gt;Node25 -->
<g id="edge37_Node000031_Node000025" class="edge">
<title>Node31&#45;&gt;Node25</title>
<g id="a_edge37_Node000031_Node000025"><a xlink:title=" ">
<path fill="none" stroke="#63b8ff" d="M221.2,-60.45C255.1,-49.03 302.41,-33.1 334.4,-22.32"/>
<polygon fill="#63b8ff" stroke="#63b8ff" points="335.85,-25.53 344.21,-19.02 333.62,-18.89 335.85,-25.53"/>
</a>
</g>
</g>
<!-- Node32&#45;&gt;Node25 -->
<g id="edge39_Node000032_Node000025" class="edge">
<title>Node32&#45;&gt;Node25</title>
<g id="a_edge39_Node000032_Node000025"><a xlink:title=" ">
<path fill="none" stroke="#63b8ff" d="M369.5,-60.3C369.5,-51.2 369.5,-39.29 369.5,-29.4"/>
<polygon fill="#63b8ff" stroke="#63b8ff" points="373,-29.34 369.5,-19.34 366,-29.34 373,-29.34"/>
</a>
</g>
</g>
<!-- Node33&#45;&gt;Node17 -->
<g id="edge41_Node000033_Node000017" class="edge">
<title>Node33&#45;&gt;Node17</title>
<g id="a_edge41_Node000033_Node000017"><a xlink:title=" ">
<path fill="none" stroke="#63b8ff" d="M2492.75,-60.48C2484.27,-58.61 2475.68,-56.74 2467.5,-55 2400.36,-40.75 2321.54,-25.24 2278.2,-16.81"/>
<polygon fill="#63b8ff" stroke="#63b8ff" points="2278.71,-13.35 2268.23,-14.88 2277.38,-20.22 2278.71,-13.35"/>
</a>
</g>
</g>
<!-- Node34&#45;&gt;Node16 -->
<g id="edge43_Node000034_Node000016" class="edge">
<title>Node34&#45;&gt;Node16</title>
<g id="a_edge43_Node000034_Node000016"><a xlink:title=" ">
<path fill="none" stroke="#63b8ff" d="M1307.5,-60.3C1307.5,-51.2 1307.5,-39.29 1307.5,-29.4"/>
<polygon fill="#63b8ff" stroke="#63b8ff" points="1311,-29.34 1307.5,-19.34 1304,-29.34 1311,-29.34"/>
</a>
</g>
</g>
<!-- Node35&#45;&gt;Node17 -->
<g id="edge45_Node000035_Node000017" class="edge">
<title>Node35&#45;&gt;Node17</title>
<g id="a_edge45_Node000035_Node000017"><a xlink:title=" ">
<path fill="none" stroke="#63b8ff" d="M2645.76,-56.55C2642.64,-56.01 2639.54,-55.49 2636.5,-55 2504.27,-33.81 2345.3,-18.98 2278.06,-13.19"/>
<polygon fill="#63b8ff" stroke="#63b8ff" points="2278.34,-9.7 2268.08,-12.34 2277.74,-16.68 2278.34,-9.7"/>
</a>
</g>
</g>
<!-- Node36&#45;&gt;Node17 -->
<g id="edge47_Node000036_Node000017" class="edge">
<title>Node36&#45;&gt;Node17</title>
<g id="a_edge47_Node000036_Node000017"><a xlink:title=" ">
<path fill="none" stroke="#63b8ff" d="M1810.08,-56.38C1812.92,-55.9 1815.73,-55.43 1818.5,-55 1964.54,-32.14 2140.57,-17.99 2212.48,-12.78"/>
<polygon fill="#63b8ff" stroke="#63b8ff" points="2212.99,-16.25 2222.71,-12.05 2212.49,-9.27 2212.99,-16.25"/>
</a>
</g>
</g>
<!-- Node37&#45;&gt;Node17 -->
<g id="edge49_Node000037_Node000017" class="edge">
<title>Node37&#45;&gt;Node17</title>
<g id="a_edge49_Node000037_Node000017"><a xlink:title=" ">
<path fill="none" stroke="#63b8ff" d="M2055.78,-55.47C2108.21,-43.04 2173.89,-27.47 2212.62,-18.29"/>
<polygon fill="#63b8ff" stroke="#63b8ff" points="2213.87,-21.59 2222.79,-15.88 2212.25,-14.78 2213.87,-21.59"/>
</a>
</g>
</g>
<!-- Node38&#45;&gt;Node17 -->
<g id="edge51_Node000038_Node000017" class="edge">
<title>Node38&#45;&gt;Node17</title>
<g id="a_edge51_Node000038_Node000017"><a xlink:title=" ">
<path fill="none" stroke="#63b8ff" d="M2181.6,-54.95C2195.38,-45.37 2211.69,-34.02 2224.39,-25.19"/>
<polygon fill="#63b8ff" stroke="#63b8ff" points="2226.7,-27.84 2232.91,-19.26 2222.7,-22.1 2226.7,-27.84"/>
</a>
</g>
</g>
<!-- Node39&#45;&gt;Node16 -->
<g id="edge53_Node000039_Node000016" class="edge">
<title>Node39&#45;&gt;Node16</title>
<g id="a_edge53_Node000039_Node000016"><a xlink:title=" ">
<path fill="none" stroke="#63b8ff" d="M1460.49,-60.45C1425.36,-48.98 1376.29,-32.96 1343.28,-22.18"/>
<polygon fill="#63b8ff" stroke="#63b8ff" points="1344.18,-18.79 1333.58,-19.02 1342,-25.45 1344.18,-18.79"/>
</a>
</g>
</g>
</g>
</svg>
