<?xml version="1.0" encoding="UTF-8" standalone="no"?>
<!DOCTYPE svg PUBLIC "-//W3C//DTD SVG 1.1//EN"
 "http://www.w3.org/Graphics/SVG/1.1/DTD/svg11.dtd">
<!-- Generated by graphviz version 2.43.0 (0)
 -->
<!-- Title: include/Hermes/Socket/_base/Transfer/ITlsTransferStateMachine.hpp Pages: 1 -->
<svg width="2989pt" height="368pt"
 viewBox="0.00 0.00 2988.50 368.00" xmlns="http://www.w3.org/2000/svg" xmlns:xlink="http://www.w3.org/1999/xlink">
<g id="graph0" class="graph" transform="scale(1 1) rotate(0) translate(4 364)">
<title>include/Hermes/Socket/_base/Transfer/ITlsTransferStateMachine.hpp</title>
<!-- Node1 -->
<g id="Node000001" class="node">
<title>Node1</title>
<g id="a_Node000001"><a xlink:title=" ">
<polygon fill="#999999" stroke="#666666" points="2455,-360 2306,-360 2306,-319 2455,-319 2455,-360"/>
<text text-anchor="start" x="2314" y="-348" font-family="Helvetica,sans-Serif" font-size="10.00">include/Hermes/Socket</text>
<text text-anchor="start" x="2314" y="-337" font-family="Helvetica,sans-Serif" font-size="10.00">/_base/Transfer/ITlsTransfer</text>
<text text-anchor="middle" x="2380.5" y="-326" font-family="Helvetica,sans-Serif" font-size="10.00">StateMachine.hpp</text>
</a>
</g>
</g>
<!-- Node2 -->
<g id="Node000002" class="node">
<title>Node2</title>
<g id="a_Node000002"><a xlink:href="__base_8hpp.html" target="_top" xlink:title=" ">
<polygon fill="white" stroke="#666666" points="2452,-283 2309,-283 2309,-264 2452,-264 2452,-283"/>
<text text-anchor="middle" x="2380.5" y="-271" font-family="Helvetica,sans-Serif" font-size="10.00">Hermes/Socket/_base.hpp</text>
</a>
</g>
</g>
<!-- Node1&#45;&gt;Node2 -->
<g id="edge1_Node000001_Node000002" class="edge">
<title>Node1&#45;&gt;Node2</title>
<g id="a_edge1_Node000001_Node000002"><a xlink:title=" ">
<path fill="none" stroke="#63b8ff" d="M2380.5,-318.95C2380.5,-310.85 2380.5,-301.5 2380.5,-293.47"/>
<polygon fill="#63b8ff" stroke="#63b8ff" points="2384,-293.26 2380.5,-283.26 2377,-293.26 2384,-293.26"/>
</a>
</g>
</g>
<!-- Node7 -->
<g id="Node000007" class="node">
<title>Node7</title>
<g id="a_Node000007"><a xlink:title=" ">
<polygon fill="#e0e0e0" stroke="#999999" points="2980.5,-85 2940.5,-85 2940.5,-66 2980.5,-66 2980.5,-85"/>
<text text-anchor="middle" x="2960.5" y="-73" font-family="Helvetica,sans-Serif" font-size="10.00">span</text>
</a>
</g>
</g>
<!-- Node1&#45;&gt;Node7 -->
<g id="edge40_Node000001_Node000007" class="edge">
<title>Node1&#45;&gt;Node7</title>
<g id="a_edge40_Node000001_Node000007"><a xlink:title=" ">
<path fill="none" stroke="#63b8ff" d="M2426.28,-318.9C2501.58,-286.59 2656.24,-219.96 2786.5,-162 2851.19,-133.22 2869.69,-130.54 2931.5,-96 2934.41,-94.37 2937.41,-92.54 2940.33,-90.68"/>
<polygon fill="#63b8ff" stroke="#63b8ff" points="2942.28,-93.58 2948.65,-85.12 2938.39,-87.76 2942.28,-93.58"/>
</a>
</g>
</g>
<!-- Node18 -->
<g id="Node000018" class="node">
<title>Node18</title>
<g id="a_Node000018"><a xlink:title=" ">
<polygon fill="#e0e0e0" stroke="#999999" points="313.5,-19 263.5,-19 263.5,0 313.5,0 313.5,-19"/>
<text text-anchor="middle" x="288.5" y="-7" font-family="Helvetica,sans-Serif" font-size="10.00">cstdint</text>
</a>
</g>
</g>
<!-- Node1&#45;&gt;Node18 -->
<g id="edge41_Node000001_Node000018" class="edge">
<title>Node1&#45;&gt;Node18</title>
<g id="a_edge41_Node000001_Node000018"><a xlink:title=" ">
<path fill="none" stroke="#63b8ff" d="M2305.8,-338.19C1925.19,-336.11 219.5,-320.84 219.5,-214 219.5,-214 219.5,-214 219.5,-146 219.5,-98.74 253.24,-51.32 273.53,-27.07"/>
<polygon fill="#63b8ff" stroke="#63b8ff" points="276.42,-29.08 280.31,-19.23 271.13,-24.5 276.42,-29.08"/>
</a>
</g>
</g>
<!-- Node3 -->
<g id="Node000003" class="node">
<title>Node3</title>
<g id="a_Node000003"><a xlink:href="_endpoint_concept_8hpp.html" target="_top" xlink:title=" ">
<polygon fill="white" stroke="#666666" points="2501.5,-228 2369.5,-228 2369.5,-198 2501.5,-198 2501.5,-228"/>
<text text-anchor="start" x="2377.5" y="-216" font-family="Helvetica,sans-Serif" font-size="10.00">Hermes/Endpoint/_base</text>
<text text-anchor="middle" x="2435.5" y="-205" font-family="Helvetica,sans-Serif" font-size="10.00">/EndpointConcept.hpp</text>
</a>
</g>
</g>
<!-- Node2&#45;&gt;Node3 -->
<g id="edge2_Node000002_Node000003" class="edge">
<title>Node2&#45;&gt;Node3</title>
<g id="a_edge2_Node000002_Node000003"><a xlink:title=" ">
<path fill="none" stroke="#63b8ff" d="M2388.62,-263.87C2395.59,-256.44 2405.96,-245.42 2415.18,-235.62"/>
<polygon fill="#63b8ff" stroke="#63b8ff" points="2417.93,-237.8 2422.23,-228.11 2412.83,-233 2417.93,-237.8"/>
</a>
</g>
</g>
<!-- Node4 -->
<g id="Node000004" class="node">
<title>Node4</title>
<g id="a_Node000004"><a xlink:href="_connection_error_enum_8hpp.html" target="_top" xlink:title=" ">
<polygon fill="white" stroke="#666666" points="2777,-162 2610,-162 2610,-132 2777,-132 2777,-162"/>
<text text-anchor="start" x="2618" y="-150" font-family="Helvetica,sans-Serif" font-size="10.00">Hermes/_base/ConnectionError</text>
<text text-anchor="middle" x="2693.5" y="-139" font-family="Helvetica,sans-Serif" font-size="10.00">Enum.hpp</text>
</a>
</g>
</g>
<!-- Node2&#45;&gt;Node4 -->
<g id="edge35_Node000002_Node000004" class="edge">
<title>Node2&#45;&gt;Node4</title>
<g id="a_edge35_Node000002_Node000004"><a xlink:title=" ">
<path fill="none" stroke="#63b8ff" d="M2421.51,-263.98C2454.98,-256.4 2503.15,-244.03 2543.5,-228 2586.25,-211.01 2632.55,-185.05 2662.23,-167.34"/>
<polygon fill="#63b8ff" stroke="#63b8ff" points="2664.13,-170.29 2670.89,-162.13 2660.51,-164.29 2664.13,-170.29"/>
</a>
</g>
</g>
<!-- Node8 -->
<g id="Node000008" class="node">
<title>Node8</title>
<g id="a_Node000008"><a xlink:title=" ">
<polygon fill="#e0e0e0" stroke="#999999" points="2592,-85 2467,-85 2467,-66 2592,-66 2592,-85"/>
<text text-anchor="middle" x="2529.5" y="-73" font-family="Helvetica,sans-Serif" font-size="10.00">stdexec/execution.hpp</text>
</a>
</g>
</g>
<!-- Node2&#45;&gt;Node8 -->
<g id="edge37_Node000002_Node000008" class="edge">
<title>Node2&#45;&gt;Node8</title>
<g id="a_edge37_Node000002_Node000008"><a xlink:title=" ">
<path fill="none" stroke="#63b8ff" d="M2448.7,-263.96C2471.62,-257.67 2495.22,-246.78 2510.5,-228 2541.79,-189.54 2537.5,-126.41 2532.92,-95.19"/>
<polygon fill="#63b8ff" stroke="#63b8ff" points="2536.36,-94.53 2531.28,-85.23 2529.45,-95.67 2536.36,-94.53"/>
</a>
</g>
</g>
<!-- Node10 -->
<g id="Node000010" class="node">
<title>Node10</title>
<g id="a_Node000010"><a xlink:href="_os_api_8hpp.html" target="_top" xlink:title=" ">
<polygon fill="white" stroke="#666666" points="1315.5,-162 1197.5,-162 1197.5,-132 1315.5,-132 1315.5,-162"/>
<text text-anchor="start" x="1205.5" y="-150" font-family="Helvetica,sans-Serif" font-size="10.00">Hermes/_base/OsApi</text>
<text text-anchor="middle" x="1256.5" y="-139" font-family="Helvetica,sans-Serif" font-size="10.00">/OsApi.hpp</text>
</a>
</g>
</g>
<!-- Node2&#45;&gt;Node10 -->
<g id="edge36_Node000002_Node000010" class="edge">
<title>Node2&#45;&gt;Node10</title>
<g id="a_edge36_Node000002_Node000010"><a xlink:title=" ">
<path fill="none" stroke="#63b8ff" d="M2308.91,-264.57C2105.6,-242.05 1526.53,-177.91 1325.92,-155.69"/>
<polygon fill="#63b8ff" stroke="#63b8ff" points="1326.13,-152.19 1315.81,-154.57 1325.36,-159.15 1326.13,-152.19"/>
</a>
</g>
</g>
<!-- Node30 -->
<g id="Node000030" class="node">
<title>Node30</title>
<g id="a_Node000030"><a xlink:title=" ">
<polygon fill="#e0e0e0" stroke="#999999" points="2283.5,-222.5 2223.5,-222.5 2223.5,-203.5 2283.5,-203.5 2283.5,-222.5"/>
<text text-anchor="middle" x="2253.5" y="-210.5" font-family="Helvetica,sans-Serif" font-size="10.00">concepts</text>
</a>
</g>
</g>
<!-- Node2&#45;&gt;Node30 -->
<g id="edge38_Node000002_Node000030" class="edge">
<title>Node2&#45;&gt;Node30</title>
<g id="a_edge38_Node000002_Node000030"><a xlink:title=" ">
<path fill="none" stroke="#63b8ff" d="M2362.03,-263.99C2340.78,-254.2 2305.65,-238.02 2281.13,-226.73"/>
<polygon fill="#63b8ff" stroke="#63b8ff" points="2282.54,-223.52 2271.99,-222.52 2279.61,-229.88 2282.54,-223.52"/>
</a>
</g>
</g>
<!-- Node31 -->
<g id="Node000031" class="node">
<title>Node31</title>
<g id="a_Node000031"><a xlink:title=" ">
<polygon fill="#e0e0e0" stroke="#999999" points="2351.5,-222.5 2301.5,-222.5 2301.5,-203.5 2351.5,-203.5 2351.5,-222.5"/>
<text text-anchor="middle" x="2326.5" y="-210.5" font-family="Helvetica,sans-Serif" font-size="10.00">ranges</text>
</a>
</g>
</g>
<!-- Node2&#45;&gt;Node31 -->
<g id="edge39_Node000002_Node000031" class="edge">
<title>Node2&#45;&gt;Node31</title>
<g id="a_edge39_Node000002_Node000031"><a xlink:title=" ">
<path fill="none" stroke="#63b8ff" d="M2372.53,-263.87C2364.4,-255.05 2351.57,-241.16 2341.52,-230.27"/>
<polygon fill="#63b8ff" stroke="#63b8ff" points="2343.86,-227.64 2334.5,-222.67 2338.71,-232.39 2343.86,-227.64"/>
</a>
</g>
</g>
<!-- Node3&#45;&gt;Node4 -->
<g id="edge3_Node000003_Node000004" class="edge">
<title>Node3&#45;&gt;Node4</title>
<g id="a_edge3_Node000003_Node000004"><a xlink:title=" ">
<path fill="none" stroke="#63b8ff" d="M2492.12,-197.95C2531.94,-188.08 2585.37,-174.82 2627.19,-164.45"/>
<polygon fill="#63b8ff" stroke="#63b8ff" points="2628.15,-167.82 2637.01,-162.01 2626.46,-161.02 2628.15,-167.82"/>
</a>
</g>
</g>
<!-- Node3&#45;&gt;Node10 -->
<g id="edge9_Node000003_Node000010" class="edge">
<title>Node3&#45;&gt;Node10</title>
<g id="a_edge9_Node000003_Node000010"><a xlink:title=" ">
<path fill="none" stroke="#63b8ff" d="M2369.32,-199.13C2366.35,-198.71 2363.39,-198.33 2360.5,-198 1971.1,-153.06 1500.08,-148 1325.74,-147.8"/>
<polygon fill="#63b8ff" stroke="#63b8ff" points="1325.68,-144.3 1315.67,-147.79 1325.67,-151.3 1325.68,-144.3"/>
</a>
</g>
</g>
<!-- Node5 -->
<g id="Node000005" class="node">
<title>Node5</title>
<g id="a_Node000005"><a xlink:title=" ">
<polygon fill="#e0e0e0" stroke="#999999" points="2856.5,-85 2794.5,-85 2794.5,-66 2856.5,-66 2856.5,-85"/>
<text text-anchor="middle" x="2825.5" y="-73" font-family="Helvetica,sans-Serif" font-size="10.00">expected</text>
</a>
</g>
</g>
<!-- Node4&#45;&gt;Node5 -->
<g id="edge4_Node000004_Node000005" class="edge">
<title>Node4&#45;&gt;Node5</title>
<g id="a_edge4_Node000004_Node000005"><a xlink:title=" ">
<path fill="none" stroke="#63b8ff" d="M2720.21,-131.94C2743.55,-119.65 2777.18,-101.94 2800.12,-89.87"/>
<polygon fill="#63b8ff" stroke="#63b8ff" points="2802.01,-92.82 2809.23,-85.07 2798.75,-86.63 2802.01,-92.82"/>
</a>
</g>
</g>
<!-- Node6 -->
<g id="Node000006" class="node">
<title>Node6</title>
<g id="a_Node000006"><a xlink:title=" ">
<polygon fill="#e0e0e0" stroke="#999999" points="2922,-85 2875,-85 2875,-66 2922,-66 2922,-85"/>
<text text-anchor="middle" x="2898.5" y="-73" font-family="Helvetica,sans-Serif" font-size="10.00">vector</text>
</a>
</g>
</g>
<!-- Node4&#45;&gt;Node6 -->
<g id="edge5_Node000004_Node000006" class="edge">
<title>Node4&#45;&gt;Node6</title>
<g id="a_edge5_Node000004_Node000006"><a xlink:title=" ">
<path fill="none" stroke="#63b8ff" d="M2755.71,-131.94C2788.98,-123.42 2830.25,-111.25 2865.5,-96 2869.31,-94.35 2873.22,-92.35 2876.96,-90.27"/>
<polygon fill="#63b8ff" stroke="#63b8ff" points="2878.91,-93.17 2885.73,-85.06 2875.34,-87.15 2878.91,-93.17"/>
</a>
</g>
</g>
<!-- Node4&#45;&gt;Node7 -->
<g id="edge6_Node000004_Node000007" class="edge">
<title>Node4&#45;&gt;Node7</title>
<g id="a_edge6_Node000004_Node000007"><a xlink:title=" ">
<path fill="none" stroke="#63b8ff" d="M2777.1,-136.47C2823.84,-129.18 2882.39,-116.73 2931.5,-96 2934.84,-94.59 2938.21,-92.77 2941.4,-90.82"/>
<polygon fill="#63b8ff" stroke="#63b8ff" points="2943.45,-93.65 2949.78,-85.16 2939.54,-87.85 2943.45,-93.65"/>
</a>
</g>
</g>
<!-- Node4&#45;&gt;Node8 -->
<g id="edge7_Node000004_Node000008" class="edge">
<title>Node4&#45;&gt;Node8</title>
<g id="a_edge7_Node000004_Node000008"><a xlink:title=" ">
<path fill="none" stroke="#63b8ff" d="M2660.31,-131.94C2630.67,-119.38 2587.66,-101.15 2559.15,-89.07"/>
<polygon fill="#63b8ff" stroke="#63b8ff" points="2560.29,-85.75 2549.72,-85.07 2557.56,-92.19 2560.29,-85.75"/>
</a>
</g>
</g>
<!-- Node9 -->
<g id="Node000009" class="node">
<title>Node9</title>
<g id="a_Node000009"><a xlink:title=" ">
<polygon fill="#e0e0e0" stroke="#999999" points="2777,-90.5 2610,-90.5 2610,-60.5 2777,-60.5 2777,-90.5"/>
<text text-anchor="start" x="2618" y="-78.5" font-family="Helvetica,sans-Serif" font-size="10.00">Hermes/_base/ConnectionError</text>
<text text-anchor="middle" x="2693.5" y="-67.5" font-family="Helvetica,sans-Serif" font-size="10.00">Enum.tpp</text>
</a>
</g>
</g>
<!-- Node4&#45;&gt;Node9 -->
<g id="edge8_Node000004_Node000009" class="edge">
<title>Node4&#45;&gt;Node9</title>
<g id="a_edge8_Node000004_Node000009"><a xlink:title=" ">
<path fill="none" stroke="#63b8ff" d="M2693.5,-131.94C2693.5,-122.99 2693.5,-111.16 2693.5,-100.73"/>
<polygon fill="#63b8ff" stroke="#63b8ff" points="2697,-100.54 2693.5,-90.54 2690,-100.54 2697,-100.54"/>
</a>
</g>
</g>
<!-- Node11 -->
<g id="Node000011" class="node">
<title>Node11</title>
<g id="a_Node000011"><a xlink:title=" ">
<polygon fill="#e0e0e0" stroke="#999999" points="1179,-19 1102,-19 1102,0 1179,0 1179,-19"/>
<text text-anchor="middle" x="1140.5" y="-7" font-family="Helvetica,sans-Serif" font-size="10.00">sys/socket.h</text>
</a>
</g>
</g>
<!-- Node10&#45;&gt;Node11 -->
<g id="edge10_Node000010_Node000011" class="edge">
<title>Node10&#45;&gt;Node11</title>
<g id="a_edge10_Node000010_Node000011"><a xlink:title=" ">
<path fill="none" stroke="#63b8ff" d="M1210.25,-131.87C1191.92,-124.06 1172.22,-112.51 1159.5,-96 1144.58,-76.65 1140.91,-47.92 1140.24,-29.19"/>
<polygon fill="#63b8ff" stroke="#63b8ff" points="1143.73,-28.97 1140.13,-19 1136.74,-29.04 1143.73,-28.97"/>
</a>
</g>
</g>
<!-- Node12 -->
<g id="Node000012" class="node">
<title>Node12</title>
<g id="a_Node000012"><a xlink:title=" ">
<polygon fill="#e0e0e0" stroke="#999999" points="223.5,-19 151.5,-19 151.5,0 223.5,0 223.5,-19"/>
<text text-anchor="middle" x="187.5" y="-7" font-family="Helvetica,sans-Serif" font-size="10.00">netinet/in.h</text>
</a>
</g>
</g>
<!-- Node10&#45;&gt;Node12 -->
<g id="edge11_Node000010_Node000012" class="edge">
<title>Node10&#45;&gt;Node12</title>
<g id="a_edge11_Node000010_Node000012"><a xlink:title=" ">
<path fill="none" stroke="#63b8ff" d="M1197.35,-145.38C998.34,-142.97 360.79,-132.45 276.5,-96 242.73,-81.4 214.22,-47.92 199.11,-27.46"/>
<polygon fill="#63b8ff" stroke="#63b8ff" points="201.8,-25.19 193.14,-19.08 196.1,-29.26 201.8,-25.19"/>
</a>
</g>
</g>
<!-- Node13 -->
<g id="Node000013" class="node">
<title>Node13</title>
<g id="a_Node000013"><a xlink:title=" ">
<polygon fill="#e0e0e0" stroke="#999999" points="355,-85 286,-85 286,-66 355,-66 355,-85"/>
<text text-anchor="middle" x="320.5" y="-73" font-family="Helvetica,sans-Serif" font-size="10.00">arpa/inet.h</text>
</a>
</g>
</g>
<!-- Node10&#45;&gt;Node13 -->
<g id="edge12_Node000010_Node000013" class="edge">
<title>Node10&#45;&gt;Node13</title>
<g id="a_edge12_Node000010_Node000013"><a xlink:title=" ">
<path fill="none" stroke="#63b8ff" d="M1197.25,-145.52C1024.29,-143.67 522.31,-135 363.5,-96 357.38,-94.5 351.06,-92.14 345.21,-89.57"/>
<polygon fill="#63b8ff" stroke="#63b8ff" points="346.46,-86.29 335.93,-85.18 343.46,-92.62 346.46,-86.29"/>
</a>
</g>
</g>
<!-- Node14 -->
<g id="Node000014" class="node">
<title>Node14</title>
<g id="a_Node000014"><a xlink:title=" ">
<polygon fill="#e0e0e0" stroke="#999999" points="1969,-19 1916,-19 1916,0 1969,0 1969,-19"/>
<text text-anchor="middle" x="1942.5" y="-7" font-family="Helvetica,sans-Serif" font-size="10.00">netdb.h</text>
</a>
</g>
</g>
<!-- Node10&#45;&gt;Node14 -->
<g id="edge13_Node000010_Node000014" class="edge">
<title>Node10&#45;&gt;Node14</title>
<g id="a_edge13_Node000010_Node000014"><a xlink:title=" ">
<path fill="none" stroke="#63b8ff" d="M1315.52,-143.17C1364.84,-138.58 1435.56,-126.69 1489.5,-96 1511.09,-83.71 1505.29,-66.14 1527.5,-55 1593.39,-21.94 1816.72,-13.32 1905.58,-11.18"/>
<polygon fill="#63b8ff" stroke="#63b8ff" points="1905.82,-14.67 1915.73,-10.94 1905.66,-7.67 1905.82,-14.67"/>
</a>
</g>
</g>
<!-- Node15 -->
<g id="Node000015" class="node">
<title>Node15</title>
<g id="a_Node000015"><a xlink:title=" ">
<polygon fill="#e0e0e0" stroke="#999999" points="596.5,-85 540.5,-85 540.5,-66 596.5,-66 596.5,-85"/>
<text text-anchor="middle" x="568.5" y="-73" font-family="Helvetica,sans-Serif" font-size="10.00">unistd.h</text>
</a>
</g>
</g>
<!-- Node10&#45;&gt;Node15 -->
<g id="edge14_Node000010_Node000015" class="edge">
<title>Node10&#45;&gt;Node15</title>
<g id="a_edge14_Node000010_Node000015"><a xlink:title=" ">
<path fill="none" stroke="#63b8ff" d="M1197.28,-144.52C1058.5,-140.57 715.71,-127.79 605.5,-96 600.53,-94.57 595.46,-92.42 590.73,-90.07"/>
<polygon fill="#63b8ff" stroke="#63b8ff" points="592.1,-86.83 581.64,-85.12 588.75,-92.98 592.1,-86.83"/>
</a>
</g>
</g>
<!-- Node16 -->
<g id="Node000016" class="node">
<title>Node16</title>
<g id="a_Node000016"><a xlink:href="_types_8hpp.html" target="_top" xlink:title=" ">
<polygon fill="white" stroke="#666666" points="732.5,-90.5 614.5,-90.5 614.5,-60.5 732.5,-60.5 732.5,-90.5"/>
<text text-anchor="start" x="622.5" y="-78.5" font-family="Helvetica,sans-Serif" font-size="10.00">Hermes/_base/OsApi</text>
<text text-anchor="middle" x="673.5" y="-67.5" font-family="Helvetica,sans-Serif" font-size="10.00">/Types.hpp</text>
</a>
</g>
</g>
<!-- Node10&#45;&gt;Node16 -->
<g id="edge15_Node000010_Node000016" class="edge">
<title>Node10&#45;&gt;Node16</title>
<g id="a_edge15_Node000010_Node000016"><a xlink:title=" ">
<path fill="none" stroke="#63b8ff" d="M1197.31,-143.76C1101.01,-139.34 904.76,-127.06 741.5,-96 737.11,-95.16 732.59,-94.17 728.06,-93.08"/>
<polygon fill="#63b8ff" stroke="#63b8ff" points="728.77,-89.65 718.21,-90.57 727.04,-96.43 728.77,-89.65"/>
</a>
</g>
</g>
<!-- Node17 -->
<g id="Node000017" class="node">
<title>Node17</title>
<g id="a_Node000017"><a xlink:href="_conversion_and_literals_8hpp.html" target="_top" xlink:title=" ">
<polygon fill="white" stroke="#666666" points="522.5,-90.5 372.5,-90.5 372.5,-60.5 522.5,-60.5 522.5,-90.5"/>
<text text-anchor="start" x="380.5" y="-78.5" font-family="Helvetica,sans-Serif" font-size="10.00">Hermes/_base/OsApi</text>
<text text-anchor="middle" x="447.5" y="-67.5" font-family="Helvetica,sans-Serif" font-size="10.00">/ConversionAndLiterals.hpp</text>
</a>
</g>
</g>
<!-- Node10&#45;&gt;Node17 -->
<g id="edge16_Node000010_Node000017" class="edge">
<title>Node10&#45;&gt;Node17</title>
<g id="a_edge16_Node000010_Node000017"><a xlink:title=" ">
<path fill="none" stroke="#63b8ff" d="M1197.42,-145.11C1073.38,-142.53 777,-132.72 531.5,-96 525.28,-95.07 518.84,-93.92 512.42,-92.65"/>
<polygon fill="#63b8ff" stroke="#63b8ff" points="512.89,-89.17 502.38,-90.56 511.46,-96.02 512.89,-89.17"/>
</a>
</g>
</g>
<!-- Node19 -->
<g id="Node000019" class="node">
<title>Node19</title>
<g id="a_Node000019"><a xlink:href="_macros_8hpp.html" target="_top" xlink:title=" ">
<polygon fill="white" stroke="#666666" points="1480.5,-90.5 1362.5,-90.5 1362.5,-60.5 1480.5,-60.5 1480.5,-90.5"/>
<text text-anchor="start" x="1370.5" y="-78.5" font-family="Helvetica,sans-Serif" font-size="10.00">Hermes/_base/OsApi</text>
<text text-anchor="middle" x="1421.5" y="-67.5" font-family="Helvetica,sans-Serif" font-size="10.00">/Macros.hpp</text>
</a>
</g>
</g>
<!-- Node10&#45;&gt;Node19 -->
<g id="edge18_Node000010_Node000019" class="edge">
<title>Node10&#45;&gt;Node19</title>
<g id="a_edge18_Node000010_Node000019"><a xlink:title=" ">
<path fill="none" stroke="#63b8ff" d="M1289.89,-131.94C1315.5,-121.15 1351.03,-106.18 1378.72,-94.52"/>
<polygon fill="#63b8ff" stroke="#63b8ff" points="1380.3,-97.65 1388.16,-90.54 1377.58,-91.2 1380.3,-97.65"/>
</a>
</g>
</g>
<!-- Node21 -->
<g id="Node000021" class="node">
<title>Node21</title>
<g id="a_Node000021"><a xlink:href="_address_family_enum_8hpp.html" target="_top" xlink:title=" ">
<polygon fill="white" stroke="#666666" points="1344.5,-90.5 1168.5,-90.5 1168.5,-60.5 1344.5,-60.5 1344.5,-90.5"/>
<text text-anchor="start" x="1176.5" y="-78.5" font-family="Helvetica,sans-Serif" font-size="10.00">Hermes/_base/OsApi</text>
<text text-anchor="middle" x="1256.5" y="-67.5" font-family="Helvetica,sans-Serif" font-size="10.00">/Enums/AddressFamilyEnum.hpp</text>
</a>
</g>
</g>
<!-- Node10&#45;&gt;Node21 -->
<g id="edge21_Node000010_Node000021" class="edge">
<title>Node10&#45;&gt;Node21</title>
<g id="a_edge21_Node000010_Node000021"><a xlink:title=" ">
<path fill="none" stroke="#63b8ff" d="M1256.5,-131.94C1256.5,-122.99 1256.5,-111.16 1256.5,-100.73"/>
<polygon fill="#63b8ff" stroke="#63b8ff" points="1260,-100.54 1256.5,-90.54 1253,-100.54 1260,-100.54"/>
</a>
</g>
</g>
<!-- Node22 -->
<g id="Node000022" class="node">
<title>Node22</title>
<g id="a_Node000022"><a xlink:href="_protocol_base_type_enum_8hpp.html" target="_top" xlink:title=" ">
<polygon fill="white" stroke="#666666" points="191,-90.5 0,-90.5 0,-60.5 191,-60.5 191,-90.5"/>
<text text-anchor="start" x="8" y="-78.5" font-family="Helvetica,sans-Serif" font-size="10.00">Hermes/_base/OsApi</text>
<text text-anchor="middle" x="95.5" y="-67.5" font-family="Helvetica,sans-Serif" font-size="10.00">/Enums/ProtocolBaseTypeEnum.hpp</text>
</a>
</g>
</g>
<!-- Node10&#45;&gt;Node22 -->
<g id="edge23_Node000010_Node000022" class="edge">
<title>Node10&#45;&gt;Node22</title>
<g id="a_edge23_Node000010_Node000022"><a xlink:title=" ">
<path fill="none" stroke="#63b8ff" d="M1197.29,-144.77C1041.08,-141.15 604.98,-128.68 243.5,-96 229.9,-94.77 215.62,-93.22 201.53,-91.53"/>
<polygon fill="#63b8ff" stroke="#63b8ff" points="201.66,-88.02 191.31,-90.28 200.81,-94.97 201.66,-88.02"/>
</a>
</g>
</g>
<!-- Node23 -->
<g id="Node000023" class="node">
<title>Node23</title>
<g id="a_Node000023"><a xlink:href="_socket_shutdown_enum_8hpp.html" target="_top" xlink:title=" ">
<polygon fill="white" stroke="#666666" points="936,-90.5 751,-90.5 751,-60.5 936,-60.5 936,-90.5"/>
<text text-anchor="start" x="759" y="-78.5" font-family="Helvetica,sans-Serif" font-size="10.00">Hermes/_base/OsApi</text>
<text text-anchor="middle" x="843.5" y="-67.5" font-family="Helvetica,sans-Serif" font-size="10.00">/Enums/SocketShutdownEnum.hpp</text>
</a>
</g>
</g>
<!-- Node10&#45;&gt;Node23 -->
<g id="edge25_Node000010_Node000023" class="edge">
<title>Node10&#45;&gt;Node23</title>
<g id="a_edge25_Node000010_Node000023"><a xlink:title=" ">
<path fill="none" stroke="#63b8ff" d="M1197.46,-137.11C1134.65,-127.52 1032.42,-111.53 944.5,-96 938,-94.85 931.27,-93.63 924.52,-92.38"/>
<polygon fill="#63b8ff" stroke="#63b8ff" points="925.1,-88.93 914.63,-90.53 923.81,-95.81 925.1,-88.93"/>
</a>
</g>
</g>
<!-- Node24 -->
<g id="Node000024" class="node">
<title>Node24</title>
<g id="a_Node000024"><a xlink:href="_socket_type_enum_8hpp.html" target="_top" xlink:title=" ">
<polygon fill="white" stroke="#666666" points="1113,-90.5 954,-90.5 954,-60.5 1113,-60.5 1113,-90.5"/>
<text text-anchor="start" x="962" y="-78.5" font-family="Helvetica,sans-Serif" font-size="10.00">Hermes/_base/OsApi</text>
<text text-anchor="middle" x="1033.5" y="-67.5" font-family="Helvetica,sans-Serif" font-size="10.00">/Enums/SocketTypeEnum.hpp</text>
</a>
</g>
</g>
<!-- Node10&#45;&gt;Node24 -->
<g id="edge27_Node000010_Node000024" class="edge">
<title>Node10&#45;&gt;Node24</title>
<g id="a_edge27_Node000010_Node000024"><a xlink:title=" ">
<path fill="none" stroke="#63b8ff" d="M1211.37,-131.94C1175.86,-120.87 1126.22,-105.4 1088.4,-93.61"/>
<polygon fill="#63b8ff" stroke="#63b8ff" points="1089.15,-90.18 1078.56,-90.54 1087.07,-96.86 1089.15,-90.18"/>
</a>
</g>
</g>
<!-- Node25 -->
<g id="Node000025" class="node">
<title>Node25</title>
<g id="a_Node000025"><a xlink:href="_linux_2_encrypt_status_enum_8hpp.html" target="_top" xlink:title=" ">
<polygon fill="white" stroke="#666666" points="1688.5,-96 1536.5,-96 1536.5,-55 1688.5,-55 1688.5,-96"/>
<text text-anchor="start" x="1544.5" y="-84" font-family="Helvetica,sans-Serif" font-size="10.00">Hermes/_base/OsApi</text>
<text text-anchor="start" x="1544.5" y="-73" font-family="Helvetica,sans-Serif" font-size="10.00">/Enums/Linux/EncryptStatus</text>
<text text-anchor="middle" x="1612.5" y="-62" font-family="Helvetica,sans-Serif" font-size="10.00">Enum.hpp</text>
</a>
</g>
</g>
<!-- Node10&#45;&gt;Node25 -->
<g id="edge29_Node000010_Node000025" class="edge">
<title>Node10&#45;&gt;Node25</title>
<g id="a_edge29_Node000010_Node000025"><a xlink:title=" ">
<path fill="none" stroke="#63b8ff" d="M1315.75,-135.35C1369.72,-125.53 1451.57,-110.35 1522.5,-96 1523.78,-95.74 1525.07,-95.48 1526.36,-95.21"/>
<polygon fill="#63b8ff" stroke="#63b8ff" points="1527.34,-98.59 1536.42,-93.14 1525.92,-91.73 1527.34,-98.59"/>
</a>
</g>
</g>
<!-- Node26 -->
<g id="Node000026" class="node">
<title>Node26</title>
<g id="a_Node000026"><a xlink:href="_name_info_flags_8hpp.html" target="_top" xlink:title=" ">
<polygon fill="white" stroke="#666666" points="2448.5,-90.5 2304.5,-90.5 2304.5,-60.5 2448.5,-60.5 2448.5,-90.5"/>
<text text-anchor="start" x="2312.5" y="-78.5" font-family="Helvetica,sans-Serif" font-size="10.00">Hermes/_base/OsApi</text>
<text text-anchor="middle" x="2376.5" y="-67.5" font-family="Helvetica,sans-Serif" font-size="10.00">/Flags/NameInfoFlags.hpp</text>
</a>
</g>
</g>
<!-- Node10&#45;&gt;Node26 -->
<g id="edge30_Node000010_Node000026" class="edge">
<title>Node10&#45;&gt;Node26</title>
<g id="a_edge30_Node000010_Node000026"><a xlink:title=" ">
<path fill="none" stroke="#63b8ff" d="M1315.78,-144.61C1506.69,-139.92 2104.22,-123.38 2295.5,-96 2301.7,-95.11 2308.12,-93.97 2314.51,-92.68"/>
<polygon fill="#63b8ff" stroke="#63b8ff" points="2315.44,-96.06 2324.49,-90.54 2313.98,-89.21 2315.44,-96.06"/>
</a>
</g>
</g>
<!-- Node27 -->
<g id="Node000027" class="node">
<title>Node27</title>
<g id="a_Node000027"><a xlink:href="_linux_2_credential_flags_8hpp.html" target="_top" xlink:title=" ">
<polygon fill="white" stroke="#666666" points="1882.5,-90.5 1706.5,-90.5 1706.5,-60.5 1882.5,-60.5 1882.5,-90.5"/>
<text text-anchor="start" x="1714.5" y="-78.5" font-family="Helvetica,sans-Serif" font-size="10.00">Hermes/_base/OsApi</text>
<text text-anchor="middle" x="1794.5" y="-67.5" font-family="Helvetica,sans-Serif" font-size="10.00">/Flags/Linux/CredentialFlags.hpp</text>
</a>
</g>
</g>
<!-- Node10&#45;&gt;Node27 -->
<g id="edge32_Node000010_Node000027" class="edge">
<title>Node10&#45;&gt;Node27</title>
<g id="a_edge32_Node000010_Node000027"><a xlink:title=" ">
<path fill="none" stroke="#63b8ff" d="M1315.56,-140.92C1400.38,-133.26 1561.43,-117.35 1697.5,-96 1704.28,-94.94 1711.31,-93.73 1718.35,-92.45"/>
<polygon fill="#63b8ff" stroke="#63b8ff" points="1719.44,-95.8 1728.63,-90.53 1718.16,-88.92 1719.44,-95.8"/>
</a>
</g>
</g>
<!-- Node28 -->
<g id="Node000028" class="node">
<title>Node28</title>
<g id="a_Node000028"><a xlink:href="_linux_2_supported_protocols_flags_8hpp.html" target="_top" xlink:title=" ">
<polygon fill="white" stroke="#666666" points="2074,-96 1901,-96 1901,-55 2074,-55 2074,-96"/>
<text text-anchor="start" x="1909" y="-84" font-family="Helvetica,sans-Serif" font-size="10.00">Hermes/_base/OsApi</text>
<text text-anchor="start" x="1909" y="-73" font-family="Helvetica,sans-Serif" font-size="10.00">/Flags/Linux/SupportedProtocols</text>
<text text-anchor="middle" x="1987.5" y="-62" font-family="Helvetica,sans-Serif" font-size="10.00">Flags.hpp</text>
</a>
</g>
</g>
<!-- Node10&#45;&gt;Node28 -->
<g id="edge33_Node000010_Node000028" class="edge">
<title>Node10&#45;&gt;Node28</title>
<g id="a_edge33_Node000010_Node000028"><a xlink:title=" ">
<path fill="none" stroke="#63b8ff" d="M1315.85,-143.74C1426.82,-138.99 1673.36,-125.96 1890.96,-95.97"/>
<polygon fill="#63b8ff" stroke="#63b8ff" points="1891.56,-99.43 1900.98,-94.58 1890.59,-92.49 1891.56,-99.43"/>
</a>
</g>
</g>
<!-- Node29 -->
<g id="Node000029" class="node">
<title>Node29</title>
<g id="a_Node000029"><a xlink:href="_linux_2_s_channel_cred_flags_8hpp.html" target="_top" xlink:title=" ">
<polygon fill="white" stroke="#666666" points="2286.5,-90.5 2092.5,-90.5 2092.5,-60.5 2286.5,-60.5 2286.5,-90.5"/>
<text text-anchor="start" x="2100.5" y="-78.5" font-family="Helvetica,sans-Serif" font-size="10.00">Hermes/_base/OsApi</text>
<text text-anchor="middle" x="2189.5" y="-67.5" font-family="Helvetica,sans-Serif" font-size="10.00">/Flags/Linux/SChannelCredFlags.hpp</text>
</a>
</g>
</g>
<!-- Node10&#45;&gt;Node29 -->
<g id="edge34_Node000010_Node000029" class="edge">
<title>Node10&#45;&gt;Node29</title>
<g id="a_edge34_Node000010_Node000029"><a xlink:title=" ">
<path fill="none" stroke="#63b8ff" d="M1315.63,-144.89C1451.65,-141.8 1797.04,-130.88 2083.5,-96 2092.14,-94.95 2101.13,-93.64 2110.07,-92.19"/>
<polygon fill="#63b8ff" stroke="#63b8ff" points="2110.84,-95.61 2120.12,-90.51 2109.68,-88.71 2110.84,-95.61"/>
</a>
</g>
</g>
<!-- Node17&#45;&gt;Node18 -->
<g id="edge17_Node000017_Node000018" class="edge">
<title>Node17&#45;&gt;Node18</title>
<g id="a_edge17_Node000017_Node000018"><a xlink:title=" ">
<path fill="none" stroke="#63b8ff" d="M412.61,-60.45C384.72,-49.23 346.01,-33.65 319.27,-22.89"/>
<polygon fill="#63b8ff" stroke="#63b8ff" points="320.24,-19.5 309.66,-19.02 317.63,-26 320.24,-19.5"/>
</a>
</g>
</g>
<!-- Node19&#45;&gt;Node11 -->
<g id="edge20_Node000019_Node000011" class="edge">
<title>Node19&#45;&gt;Node11</title>
<g id="a_edge20_Node000019_Node000011"><a xlink:title=" ">
<path fill="none" stroke="#63b8ff" d="M1374.06,-60.42C1367.19,-58.51 1360.18,-56.65 1353.5,-55 1297.48,-41.14 1232.48,-27.97 1189.16,-19.61"/>
<polygon fill="#63b8ff" stroke="#63b8ff" points="1189.65,-16.14 1179.17,-17.69 1188.33,-23.02 1189.65,-16.14"/>
</a>
</g>
</g>
<!-- Node20 -->
<g id="Node000020" class="node">
<title>Node20</title>
<g id="a_Node000020"><a xlink:title=" ">
<polygon fill="#e0e0e0" stroke="#999999" points="1458,-19 1385,-19 1385,0 1458,0 1458,-19"/>
<text text-anchor="middle" x="1421.5" y="-7" font-family="Helvetica,sans-Serif" font-size="10.00">string_view</text>
</a>
</g>
</g>
<!-- Node19&#45;&gt;Node20 -->
<g id="edge19_Node000019_Node000020" class="edge">
<title>Node19&#45;&gt;Node20</title>
<g id="a_edge19_Node000019_Node000020"><a xlink:title=" ">
<path fill="none" stroke="#63b8ff" d="M1421.5,-60.3C1421.5,-51.2 1421.5,-39.29 1421.5,-29.4"/>
<polygon fill="#63b8ff" stroke="#63b8ff" points="1425,-29.34 1421.5,-19.34 1418,-29.34 1425,-29.34"/>
</a>
</g>
</g>
<!-- Node21&#45;&gt;Node11 -->
<g id="edge22_Node000021_Node000011" class="edge">
<title>Node21&#45;&gt;Node11</title>
<g id="a_edge22_Node000021_Node000011"><a xlink:title=" ">
<path fill="none" stroke="#63b8ff" d="M1231.04,-60.45C1211.33,-49.58 1184.19,-34.61 1164.78,-23.9"/>
<polygon fill="#63b8ff" stroke="#63b8ff" points="1166.38,-20.78 1155.94,-19.02 1163,-26.91 1166.38,-20.78"/>
</a>
</g>
</g>
<!-- Node22&#45;&gt;Node12 -->
<g id="edge24_Node000022_Node000012" class="edge">
<title>Node22&#45;&gt;Node12</title>
<g id="a_edge24_Node000022_Node000012"><a xlink:title=" ">
<path fill="none" stroke="#63b8ff" d="M115.92,-60.3C131.05,-49.77 151.6,-35.47 166.8,-24.9"/>
<polygon fill="#63b8ff" stroke="#63b8ff" points="168.84,-27.74 175.05,-19.16 164.85,-22 168.84,-27.74"/>
</a>
</g>
</g>
<!-- Node23&#45;&gt;Node11 -->
<g id="edge26_Node000023_Node000011" class="edge">
<title>Node23&#45;&gt;Node11</title>
<g id="a_edge26_Node000023_Node000011"><a xlink:title=" ">
<path fill="none" stroke="#63b8ff" d="M908.68,-60.45C963.95,-48.54 1042,-31.73 1091.92,-20.97"/>
<polygon fill="#63b8ff" stroke="#63b8ff" points="1092.79,-24.36 1101.83,-18.83 1091.31,-17.52 1092.79,-24.36"/>
</a>
</g>
</g>
<!-- Node24&#45;&gt;Node11 -->
<g id="edge28_Node000024_Node000011" class="edge">
<title>Node24&#45;&gt;Node11</title>
<g id="a_edge28_Node000024_Node000011"><a xlink:title=" ">
<path fill="none" stroke="#63b8ff" d="M1056.98,-60.45C1075,-49.68 1099.74,-34.88 1117.61,-24.19"/>
<polygon fill="#63b8ff" stroke="#63b8ff" points="1119.47,-27.15 1126.26,-19.02 1115.88,-21.15 1119.47,-27.15"/>
</a>
</g>
</g>
<!-- Node26&#45;&gt;Node14 -->
<g id="edge31_Node000026_Node000014" class="edge">
<title>Node26&#45;&gt;Node14</title>
<g id="a_edge31_Node000026_Node000014"><a xlink:title=" ">
<path fill="none" stroke="#63b8ff" d="M2321.78,-60.46C2313.02,-58.46 2304.04,-56.56 2295.5,-55 2180.96,-34.06 2043.7,-19.83 1979.29,-13.78"/>
<polygon fill="#63b8ff" stroke="#63b8ff" points="1979.5,-10.29 1969.22,-12.85 1978.86,-17.26 1979.5,-10.29"/>
</a>
</g>
</g>
</g>
</svg>
