<?xml version="1.0" encoding="UTF-8" standalone="no"?>
<!DOCTYPE svg PUBLIC "-//W3C//DTD SVG 1.1//EN"
 "http://www.w3.org/Graphics/SVG/1.1/DTD/svg11.dtd">
<!-- Generated by graphviz version 2.43.0 (0)
 -->
<!-- Title: include/Hermes/Socket/_base/Connection/ITlsConnectStateMachine.hpp Pages: 1 -->
<svg width="2855pt" height="368pt"
 viewBox="0.00 0.00 2854.64 368.00" xmlns="http://www.w3.org/2000/svg" xmlns:xlink="http://www.w3.org/1999/xlink">
<g id="graph0" class="graph" transform="scale(1 1) rotate(0) translate(4 364)">
<title>include/Hermes/Socket/_base/Connection/ITlsConnectStateMachine.hpp</title>
<!-- Node1 -->
<g id="Node000001" class="node">
<title>Node1</title>
<g id="a_Node000001"><a xlink:title=" ">
<polygon fill="#999999" stroke="#666666" points="2846.64,-360 2680.64,-360 2680.64,-319 2846.64,-319 2846.64,-360"/>
<text text-anchor="start" x="2688.64" y="-348" font-family="Helvetica,sans-Serif" font-size="10.00">include/Hermes/Socket</text>
<text text-anchor="start" x="2688.64" y="-337" font-family="Helvetica,sans-Serif" font-size="10.00">/_base/Connection/ITlsConnect</text>
<text text-anchor="middle" x="2763.64" y="-326" font-family="Helvetica,sans-Serif" font-size="10.00">StateMachine.hpp</text>
</a>
</g>
</g>
<!-- Node2 -->
<g id="Node000002" class="node">
<title>Node2</title>
<g id="a_Node000002"><a xlink:href="__base_8hpp.html" target="_top" xlink:title=" ">
<polygon fill="white" stroke="#666666" points="2478.14,-283 2335.14,-283 2335.14,-264 2478.14,-264 2478.14,-283"/>
<text text-anchor="middle" x="2406.64" y="-271" font-family="Helvetica,sans-Serif" font-size="10.00">Hermes/Socket/_base.hpp</text>
</a>
</g>
</g>
<!-- Node1&#45;&gt;Node2 -->
<g id="edge1_Node000001_Node000002" class="edge">
<title>Node1&#45;&gt;Node2</title>
<g id="a_edge1_Node000001_Node000002"><a xlink:title=" ">
<path fill="none" stroke="#63b8ff" d="M2680.39,-323.58C2614.01,-311.68 2522.79,-295.32 2464.26,-284.83"/>
<polygon fill="#63b8ff" stroke="#63b8ff" points="2464.55,-281.33 2454.09,-283.01 2463.31,-288.22 2464.55,-281.33"/>
</a>
</g>
</g>
<!-- Node7 -->
<g id="Node000007" class="node">
<title>Node7</title>
<g id="a_Node000007"><a xlink:title=" ">
<polygon fill="#e0e0e0" stroke="#999999" points="2783.64,-85 2743.64,-85 2743.64,-66 2783.64,-66 2783.64,-85"/>
<text text-anchor="middle" x="2763.64" y="-73" font-family="Helvetica,sans-Serif" font-size="10.00">span</text>
</a>
</g>
</g>
<!-- Node1&#45;&gt;Node7 -->
<g id="edge39_Node000001_Node000007" class="edge">
<title>Node1&#45;&gt;Node7</title>
<g id="a_edge39_Node000001_Node000007"><a xlink:title=" ">
<path fill="none" stroke="#63b8ff" d="M2763.64,-318.81C2763.64,-269.99 2763.64,-143.88 2763.64,-95.65"/>
<polygon fill="#63b8ff" stroke="#63b8ff" points="2767.14,-95.39 2763.64,-85.39 2760.14,-95.39 2767.14,-95.39"/>
</a>
</g>
</g>
<!-- Node17 -->
<g id="Node000017" class="node">
<title>Node17</title>
<g id="a_Node000017"><a xlink:title=" ">
<polygon fill="#e0e0e0" stroke="#999999" points="2220.64,-19 2170.64,-19 2170.64,0 2220.64,0 2220.64,-19"/>
<text text-anchor="middle" x="2195.64" y="-7" font-family="Helvetica,sans-Serif" font-size="10.00">cstdint</text>
</a>
</g>
</g>
<!-- Node1&#45;&gt;Node17 -->
<g id="edge40_Node000001_Node000017" class="edge">
<title>Node1&#45;&gt;Node17</title>
<g id="a_edge40_Node000001_Node000017"><a xlink:title=" ">
<path fill="none" stroke="#63b8ff" d="M2776.5,-318.7C2790.72,-294.87 2811.64,-253.15 2811.64,-214 2811.64,-214 2811.64,-214 2811.64,-146 2811.64,-104.68 2823.71,-82.23 2792.64,-55 2750.34,-17.93 2352.73,-11.73 2230.93,-10.7"/>
<polygon fill="#63b8ff" stroke="#63b8ff" points="2230.7,-7.2 2220.67,-10.62 2230.64,-14.2 2230.7,-7.2"/>
</a>
</g>
</g>
<!-- Node3 -->
<g id="Node000003" class="node">
<title>Node3</title>
<g id="a_Node000003"><a xlink:href="_endpoint_concept_8hpp.html" target="_top" xlink:title=" ">
<polygon fill="white" stroke="#666666" points="2581.64,-228 2449.64,-228 2449.64,-198 2581.64,-198 2581.64,-228"/>
<text text-anchor="start" x="2457.64" y="-216" font-family="Helvetica,sans-Serif" font-size="10.00">Hermes/Endpoint/_base</text>
<text text-anchor="middle" x="2515.64" y="-205" font-family="Helvetica,sans-Serif" font-size="10.00">/EndpointConcept.hpp</text>
</a>
</g>
</g>
<!-- Node2&#45;&gt;Node3 -->
<g id="edge2_Node000002_Node000003" class="edge">
<title>Node2&#45;&gt;Node3</title>
<g id="a_edge2_Node000002_Node000003"><a xlink:title=" ">
<path fill="none" stroke="#63b8ff" d="M2422.72,-263.87C2437.86,-255.75 2461.03,-243.31 2480.45,-232.89"/>
<polygon fill="#63b8ff" stroke="#63b8ff" points="2482.19,-235.93 2489.34,-228.11 2478.88,-229.76 2482.19,-235.93"/>
</a>
</g>
</g>
<!-- Node4 -->
<g id="Node000004" class="node">
<title>Node4</title>
<g id="a_Node000004"><a xlink:href="_connection_error_enum_8hpp.html" target="_top" xlink:title=" ">
<polygon fill="white" stroke="#666666" points="2646.14,-162 2479.14,-162 2479.14,-132 2646.14,-132 2646.14,-162"/>
<text text-anchor="start" x="2487.14" y="-150" font-family="Helvetica,sans-Serif" font-size="10.00">Hermes/_base/ConnectionError</text>
<text text-anchor="middle" x="2562.64" y="-139" font-family="Helvetica,sans-Serif" font-size="10.00">Enum.hpp</text>
</a>
</g>
</g>
<!-- Node2&#45;&gt;Node4 -->
<g id="edge34_Node000002_Node000004" class="edge">
<title>Node2&#45;&gt;Node4</title>
<g id="a_edge34_Node000002_Node000004"><a xlink:title=" ">
<path fill="none" stroke="#63b8ff" d="M2478.45,-264.28C2523.86,-257.44 2576.57,-245.89 2590.64,-228 2603.89,-211.16 2593.01,-187.59 2581.16,-170.4"/>
<polygon fill="#63b8ff" stroke="#63b8ff" points="2583.76,-168.03 2575,-162.06 2578.13,-172.18 2583.76,-168.03"/>
</a>
</g>
</g>
<!-- Node8 -->
<g id="Node000008" class="node">
<title>Node8</title>
<g id="a_Node000008"><a xlink:title=" ">
<polygon fill="#e0e0e0" stroke="#999999" points="2396.14,-85 2271.14,-85 2271.14,-66 2396.14,-66 2396.14,-85"/>
<text text-anchor="middle" x="2333.64" y="-73" font-family="Helvetica,sans-Serif" font-size="10.00">stdexec/execution.hpp</text>
</a>
</g>
</g>
<!-- Node2&#45;&gt;Node8 -->
<g id="edge36_Node000002_Node000008" class="edge">
<title>Node2&#45;&gt;Node8</title>
<g id="a_edge36_Node000002_Node000008"><a xlink:title=" ">
<path fill="none" stroke="#63b8ff" d="M2350.93,-264C2329.65,-257.74 2307.45,-246.87 2294.64,-228 2265.88,-185.62 2300.66,-123.46 2320.97,-93.67"/>
<polygon fill="#63b8ff" stroke="#63b8ff" points="2324.04,-95.38 2326.96,-85.2 2318.33,-91.34 2324.04,-95.38"/>
</a>
</g>
</g>
<!-- Node10 -->
<g id="Node000010" class="node">
<title>Node10</title>
<g id="a_Node000010"><a xlink:href="_os_api_8hpp.html" target="_top" xlink:title=" ">
<polygon fill="white" stroke="#666666" points="1161.64,-162 1043.64,-162 1043.64,-132 1161.64,-132 1161.64,-162"/>
<text text-anchor="start" x="1051.64" y="-150" font-family="Helvetica,sans-Serif" font-size="10.00">Hermes/_base/OsApi</text>
<text text-anchor="middle" x="1102.64" y="-139" font-family="Helvetica,sans-Serif" font-size="10.00">/OsApi.hpp</text>
</a>
</g>
</g>
<!-- Node2&#45;&gt;Node10 -->
<g id="edge35_Node000002_Node000010" class="edge">
<title>Node2&#45;&gt;Node10</title>
<g id="a_edge35_Node000002_Node000010"><a xlink:title=" ">
<path fill="none" stroke="#63b8ff" d="M2334.67,-265.63C2105.8,-243.78 1396.57,-176.06 1171.75,-154.6"/>
<polygon fill="#63b8ff" stroke="#63b8ff" points="1172.02,-151.11 1161.73,-153.64 1171.35,-158.08 1172.02,-151.11"/>
</a>
</g>
</g>
<!-- Node29 -->
<g id="Node000029" class="node">
<title>Node29</title>
<g id="a_Node000029"><a xlink:title=" ">
<polygon fill="#e0e0e0" stroke="#999999" points="2363.64,-222.5 2303.64,-222.5 2303.64,-203.5 2363.64,-203.5 2363.64,-222.5"/>
<text text-anchor="middle" x="2333.64" y="-210.5" font-family="Helvetica,sans-Serif" font-size="10.00">concepts</text>
</a>
</g>
</g>
<!-- Node2&#45;&gt;Node29 -->
<g id="edge37_Node000002_Node000029" class="edge">
<title>Node2&#45;&gt;Node29</title>
<g id="a_edge37_Node000002_Node000029"><a xlink:title=" ">
<path fill="none" stroke="#63b8ff" d="M2395.87,-263.87C2384.44,-254.71 2366.16,-240.06 2352.37,-229.01"/>
<polygon fill="#63b8ff" stroke="#63b8ff" points="2354.45,-226.19 2344.46,-222.67 2350.07,-231.65 2354.45,-226.19"/>
</a>
</g>
</g>
<!-- Node30 -->
<g id="Node000030" class="node">
<title>Node30</title>
<g id="a_Node000030"><a xlink:title=" ">
<polygon fill="#e0e0e0" stroke="#999999" points="2431.64,-222.5 2381.64,-222.5 2381.64,-203.5 2431.64,-203.5 2431.64,-222.5"/>
<text text-anchor="middle" x="2406.64" y="-210.5" font-family="Helvetica,sans-Serif" font-size="10.00">ranges</text>
</a>
</g>
</g>
<!-- Node2&#45;&gt;Node30 -->
<g id="edge38_Node000002_Node000030" class="edge">
<title>Node2&#45;&gt;Node30</title>
<g id="a_edge38_Node000002_Node000030"><a xlink:title=" ">
<path fill="none" stroke="#63b8ff" d="M2406.64,-263.87C2406.64,-255.75 2406.64,-243.31 2406.64,-232.89"/>
<polygon fill="#63b8ff" stroke="#63b8ff" points="2410.14,-232.67 2406.64,-222.67 2403.14,-232.67 2410.14,-232.67"/>
</a>
</g>
</g>
<!-- Node3&#45;&gt;Node4 -->
<g id="edge3_Node000003_Node000004" class="edge">
<title>Node3&#45;&gt;Node4</title>
<g id="a_edge3_Node000003_Node000004"><a xlink:title=" ">
<path fill="none" stroke="#63b8ff" d="M2526.07,-197.8C2531.97,-189.76 2539.49,-179.53 2546.17,-170.43"/>
<polygon fill="#63b8ff" stroke="#63b8ff" points="2549.14,-172.3 2552.24,-162.16 2543.5,-168.15 2549.14,-172.3"/>
</a>
</g>
</g>
<!-- Node3&#45;&gt;Node10 -->
<g id="edge9_Node000003_Node000010" class="edge">
<title>Node3&#45;&gt;Node10</title>
<g id="a_edge9_Node000003_Node000010"><a xlink:title=" ">
<path fill="none" stroke="#63b8ff" d="M2449.47,-199.1C2446.49,-198.69 2443.54,-198.32 2440.64,-198 2191.09,-170.2 1409.85,-153.71 1172.03,-149.24"/>
<polygon fill="#63b8ff" stroke="#63b8ff" points="1171.85,-145.74 1161.79,-149.05 1171.72,-152.74 1171.85,-145.74"/>
</a>
</g>
</g>
<!-- Node5 -->
<g id="Node000005" class="node">
<title>Node5</title>
<g id="a_Node000005"><a xlink:title=" ">
<polygon fill="#e0e0e0" stroke="#999999" points="2725.64,-85 2663.64,-85 2663.64,-66 2725.64,-66 2725.64,-85"/>
<text text-anchor="middle" x="2694.64" y="-73" font-family="Helvetica,sans-Serif" font-size="10.00">expected</text>
</a>
</g>
</g>
<!-- Node4&#45;&gt;Node5 -->
<g id="edge4_Node000004_Node000005" class="edge">
<title>Node4&#45;&gt;Node5</title>
<g id="a_edge4_Node000004_Node000005"><a xlink:title=" ">
<path fill="none" stroke="#63b8ff" d="M2589.35,-131.94C2612.69,-119.65 2646.32,-101.94 2669.26,-89.87"/>
<polygon fill="#63b8ff" stroke="#63b8ff" points="2671.15,-92.82 2678.37,-85.07 2667.89,-86.63 2671.15,-92.82"/>
</a>
</g>
</g>
<!-- Node6 -->
<g id="Node000006" class="node">
<title>Node6</title>
<g id="a_Node000006"><a xlink:title=" ">
<polygon fill="#e0e0e0" stroke="#999999" points="2461.14,-85 2414.14,-85 2414.14,-66 2461.14,-66 2461.14,-85"/>
<text text-anchor="middle" x="2437.64" y="-73" font-family="Helvetica,sans-Serif" font-size="10.00">vector</text>
</a>
</g>
</g>
<!-- Node4&#45;&gt;Node6 -->
<g id="edge5_Node000004_Node000006" class="edge">
<title>Node4&#45;&gt;Node6</title>
<g id="a_edge5_Node000004_Node000006"><a xlink:title=" ">
<path fill="none" stroke="#63b8ff" d="M2535.93,-131.81C2517.49,-121.94 2492.46,-108.37 2470.64,-96 2467.48,-94.21 2464.16,-92.29 2460.9,-90.38"/>
<polygon fill="#63b8ff" stroke="#63b8ff" points="2462.42,-87.22 2452.03,-85.16 2458.87,-93.25 2462.42,-87.22"/>
</a>
</g>
</g>
<!-- Node4&#45;&gt;Node7 -->
<g id="edge6_Node000004_Node000007" class="edge">
<title>Node4&#45;&gt;Node7</title>
<g id="a_edge6_Node000004_Node000007"><a xlink:title=" ">
<path fill="none" stroke="#63b8ff" d="M2628.48,-131.94C2661.26,-123.68 2700.98,-111.74 2734.64,-96 2737.77,-94.54 2740.95,-92.76 2743.99,-90.87"/>
<polygon fill="#63b8ff" stroke="#63b8ff" points="2746.19,-93.61 2752.55,-85.14 2742.3,-87.8 2746.19,-93.61"/>
</a>
</g>
</g>
<!-- Node4&#45;&gt;Node8 -->
<g id="edge7_Node000004_Node000008" class="edge">
<title>Node4&#45;&gt;Node8</title>
<g id="a_edge7_Node000004_Node000008"><a xlink:title=" ">
<path fill="none" stroke="#63b8ff" d="M2516.3,-131.94C2473.65,-118.99 2411.16,-100.03 2371.45,-87.97"/>
<polygon fill="#63b8ff" stroke="#63b8ff" points="2372.46,-84.62 2361.87,-85.07 2370.42,-91.32 2372.46,-84.62"/>
</a>
</g>
</g>
<!-- Node9 -->
<g id="Node000009" class="node">
<title>Node9</title>
<g id="a_Node000009"><a xlink:title=" ">
<polygon fill="#e0e0e0" stroke="#999999" points="2646.14,-90.5 2479.14,-90.5 2479.14,-60.5 2646.14,-60.5 2646.14,-90.5"/>
<text text-anchor="start" x="2487.14" y="-78.5" font-family="Helvetica,sans-Serif" font-size="10.00">Hermes/_base/ConnectionError</text>
<text text-anchor="middle" x="2562.64" y="-67.5" font-family="Helvetica,sans-Serif" font-size="10.00">Enum.tpp</text>
</a>
</g>
</g>
<!-- Node4&#45;&gt;Node9 -->
<g id="edge8_Node000004_Node000009" class="edge">
<title>Node4&#45;&gt;Node9</title>
<g id="a_edge8_Node000004_Node000009"><a xlink:title=" ">
<path fill="none" stroke="#63b8ff" d="M2562.64,-131.94C2562.64,-122.99 2562.64,-111.16 2562.64,-100.73"/>
<polygon fill="#63b8ff" stroke="#63b8ff" points="2566.14,-100.54 2562.64,-90.54 2559.14,-100.54 2566.14,-100.54"/>
</a>
</g>
</g>
<!-- Node11 -->
<g id="Node000011" class="node">
<title>Node11</title>
<g id="a_Node000011"><a xlink:title=" ">
<polygon fill="#e0e0e0" stroke="#999999" points="903.14,-19 826.14,-19 826.14,0 903.14,0 903.14,-19"/>
<text text-anchor="middle" x="864.64" y="-7" font-family="Helvetica,sans-Serif" font-size="10.00">sys/socket.h</text>
</a>
</g>
</g>
<!-- Node10&#45;&gt;Node11 -->
<g id="edge10_Node000010_Node000011" class="edge">
<title>Node10&#45;&gt;Node11</title>
<g id="a_edge10_Node000010_Node000011"><a xlink:title=" ">
<path fill="none" stroke="#63b8ff" d="M1060.87,-131.99C1038.84,-123.49 1012.02,-111.31 990.64,-96 970.44,-81.53 972.48,-69.95 952.64,-55 935.34,-41.96 913.63,-30.94 896.11,-23.12"/>
<polygon fill="#63b8ff" stroke="#63b8ff" points="897.43,-19.88 886.86,-19.12 894.65,-26.3 897.43,-19.88"/>
</a>
</g>
</g>
<!-- Node12 -->
<g id="Node000012" class="node">
<title>Node12</title>
<g id="a_Node000012"><a xlink:title=" ">
<polygon fill="#e0e0e0" stroke="#999999" points="86.64,-19 14.64,-19 14.64,0 86.64,0 86.64,-19"/>
<text text-anchor="middle" x="50.64" y="-7" font-family="Helvetica,sans-Serif" font-size="10.00">netinet/in.h</text>
</a>
</g>
</g>
<!-- Node10&#45;&gt;Node12 -->
<g id="edge11_Node000010_Node000012" class="edge">
<title>Node10&#45;&gt;Node12</title>
<g id="a_edge11_Node000010_Node000012"><a xlink:title=" ">
<path fill="none" stroke="#63b8ff" d="M1043.27,-145.53C820.28,-143.49 43.65,-133.69 7.64,-96 -4.95,-82.82 0.81,-71.89 7.64,-55 12.33,-43.41 21.64,-33.16 30.4,-25.43"/>
<polygon fill="#63b8ff" stroke="#63b8ff" points="32.64,-28.12 38.15,-19.07 28.2,-22.71 32.64,-28.12"/>
</a>
</g>
</g>
<!-- Node13 -->
<g id="Node000013" class="node">
<title>Node13</title>
<g id="a_Node000013"><a xlink:title=" ">
<polygon fill="#e0e0e0" stroke="#999999" points="295.14,-85 226.14,-85 226.14,-66 295.14,-66 295.14,-85"/>
<text text-anchor="middle" x="260.64" y="-73" font-family="Helvetica,sans-Serif" font-size="10.00">arpa/inet.h</text>
</a>
</g>
</g>
<!-- Node10&#45;&gt;Node13 -->
<g id="edge12_Node000010_Node000013" class="edge">
<title>Node10&#45;&gt;Node13</title>
<g id="a_edge12_Node000010_Node000013"><a xlink:title=" ">
<path fill="none" stroke="#63b8ff" d="M1043.5,-145C883.51,-141.86 444.79,-130.28 304.64,-96 298.4,-94.47 291.94,-92.11 285.96,-89.54"/>
<polygon fill="#63b8ff" stroke="#63b8ff" points="287,-86.17 276.45,-85.15 284.06,-92.52 287,-86.17"/>
</a>
</g>
</g>
<!-- Node14 -->
<g id="Node000014" class="node">
<title>Node14</title>
<g id="a_Node000014"><a xlink:title=" ">
<polygon fill="#e0e0e0" stroke="#999999" points="1222.14,-19 1169.14,-19 1169.14,0 1222.14,0 1222.14,-19"/>
<text text-anchor="middle" x="1195.64" y="-7" font-family="Helvetica,sans-Serif" font-size="10.00">netdb.h</text>
</a>
</g>
</g>
<!-- Node10&#45;&gt;Node14 -->
<g id="edge13_Node000010_Node000014" class="edge">
<title>Node10&#45;&gt;Node14</title>
<g id="a_edge13_Node000010_Node000014"><a xlink:title=" ">
<path fill="none" stroke="#63b8ff" d="M1112.26,-131.78C1124.41,-113.85 1145.99,-82.08 1164.64,-55 1170.93,-45.87 1177.99,-35.73 1183.78,-27.44"/>
<polygon fill="#63b8ff" stroke="#63b8ff" points="1186.81,-29.21 1189.67,-19.01 1181.07,-25.2 1186.81,-29.21"/>
</a>
</g>
</g>
<!-- Node15 -->
<g id="Node000015" class="node">
<title>Node15</title>
<g id="a_Node000015"><a xlink:title=" ">
<polygon fill="#e0e0e0" stroke="#999999" points="563.64,-85 507.64,-85 507.64,-66 563.64,-66 563.64,-85"/>
<text text-anchor="middle" x="535.64" y="-73" font-family="Helvetica,sans-Serif" font-size="10.00">unistd.h</text>
</a>
</g>
</g>
<!-- Node10&#45;&gt;Node15 -->
<g id="edge14_Node000010_Node000015" class="edge">
<title>Node10&#45;&gt;Node15</title>
<g id="a_edge14_Node000010_Node000015"><a xlink:title=" ">
<path fill="none" stroke="#63b8ff" d="M1043.25,-143.31C924.01,-137.43 659.44,-121.86 572.64,-96 567.68,-94.52 562.62,-92.36 557.89,-90"/>
<polygon fill="#63b8ff" stroke="#63b8ff" points="559.26,-86.76 548.8,-85.06 555.91,-92.91 559.26,-86.76"/>
</a>
</g>
</g>
<!-- Node16 -->
<g id="Node000016" class="node">
<title>Node16</title>
<g id="a_Node000016"><a xlink:href="_conversion_and_literals_8hpp.html" target="_top" xlink:title=" ">
<polygon fill="white" stroke="#666666" points="1655.64,-90.5 1505.64,-90.5 1505.64,-60.5 1655.64,-60.5 1655.64,-90.5"/>
<text text-anchor="start" x="1513.64" y="-78.5" font-family="Helvetica,sans-Serif" font-size="10.00">Hermes/_base/OsApi</text>
<text text-anchor="middle" x="1580.64" y="-67.5" font-family="Helvetica,sans-Serif" font-size="10.00">/ConversionAndLiterals.hpp</text>
</a>
</g>
</g>
<!-- Node10&#45;&gt;Node16 -->
<g id="edge15_Node000010_Node000016" class="edge">
<title>Node10&#45;&gt;Node16</title>
<g id="a_edge15_Node000010_Node000016"><a xlink:title=" ">
<path fill="none" stroke="#63b8ff" d="M1161.67,-140.4C1238.97,-132.64 1378.54,-117.14 1496.64,-96 1502.31,-94.99 1508.16,-93.84 1514.03,-92.62"/>
<polygon fill="#63b8ff" stroke="#63b8ff" points="1514.83,-96.02 1523.87,-90.5 1513.36,-89.18 1514.83,-96.02"/>
</a>
</g>
</g>
<!-- Node18 -->
<g id="Node000018" class="node">
<title>Node18</title>
<g id="a_Node000018"><a xlink:href="_macros_8hpp.html" target="_top" xlink:title=" ">
<polygon fill="white" stroke="#666666" points="1117.64,-90.5 999.64,-90.5 999.64,-60.5 1117.64,-60.5 1117.64,-90.5"/>
<text text-anchor="start" x="1007.64" y="-78.5" font-family="Helvetica,sans-Serif" font-size="10.00">Hermes/_base/OsApi</text>
<text text-anchor="middle" x="1058.64" y="-67.5" font-family="Helvetica,sans-Serif" font-size="10.00">/Macros.hpp</text>
</a>
</g>
</g>
<!-- Node10&#45;&gt;Node18 -->
<g id="edge17_Node000010_Node000018" class="edge">
<title>Node10&#45;&gt;Node18</title>
<g id="a_edge17_Node000010_Node000018"><a xlink:title=" ">
<path fill="none" stroke="#63b8ff" d="M1093.74,-131.94C1087.77,-122.52 1079.79,-109.91 1072.95,-99.09"/>
<polygon fill="#63b8ff" stroke="#63b8ff" points="1075.84,-97.12 1067.53,-90.54 1069.92,-100.86 1075.84,-97.12"/>
</a>
</g>
</g>
<!-- Node20 -->
<g id="Node000020" class="node">
<title>Node20</title>
<g id="a_Node000020"><a xlink:href="_address_family_enum_8hpp.html" target="_top" xlink:title=" ">
<polygon fill="white" stroke="#666666" points="489.64,-90.5 313.64,-90.5 313.64,-60.5 489.64,-60.5 489.64,-90.5"/>
<text text-anchor="start" x="321.64" y="-78.5" font-family="Helvetica,sans-Serif" font-size="10.00">Hermes/_base/OsApi</text>
<text text-anchor="middle" x="401.64" y="-67.5" font-family="Helvetica,sans-Serif" font-size="10.00">/Enums/AddressFamilyEnum.hpp</text>
</a>
</g>
</g>
<!-- Node10&#45;&gt;Node20 -->
<g id="edge20_Node000010_Node000020" class="edge">
<title>Node10&#45;&gt;Node20</title>
<g id="a_edge20_Node000010_Node000020"><a xlink:title=" ">
<path fill="none" stroke="#63b8ff" d="M1043.23,-143.37C934.66,-138.05 697.11,-124.07 498.64,-96 491.25,-94.95 483.57,-93.7 475.92,-92.34"/>
<polygon fill="#63b8ff" stroke="#63b8ff" points="476.37,-88.87 465.9,-90.5 475.1,-95.75 476.37,-88.87"/>
</a>
</g>
</g>
<!-- Node21 -->
<g id="Node000021" class="node">
<title>Node21</title>
<g id="a_Node000021"><a xlink:href="_protocol_base_type_enum_8hpp.html" target="_top" xlink:title=" ">
<polygon fill="white" stroke="#666666" points="208.14,-90.5 17.14,-90.5 17.14,-60.5 208.14,-60.5 208.14,-90.5"/>
<text text-anchor="start" x="25.14" y="-78.5" font-family="Helvetica,sans-Serif" font-size="10.00">Hermes/_base/OsApi</text>
<text text-anchor="middle" x="112.64" y="-67.5" font-family="Helvetica,sans-Serif" font-size="10.00">/Enums/ProtocolBaseTypeEnum.hpp</text>
</a>
</g>
</g>
<!-- Node10&#45;&gt;Node21 -->
<g id="edge22_Node000010_Node000021" class="edge">
<title>Node10&#45;&gt;Node21</title>
<g id="a_edge22_Node000010_Node000021"><a xlink:title=" ">
<path fill="none" stroke="#63b8ff" d="M1043.57,-145.29C900.92,-143.02 526.54,-133.64 216.64,-96 208.1,-94.96 199.19,-93.65 190.35,-92.2"/>
<polygon fill="#63b8ff" stroke="#63b8ff" points="190.86,-88.74 180.42,-90.51 189.69,-95.64 190.86,-88.74"/>
</a>
</g>
</g>
<!-- Node22 -->
<g id="Node000022" class="node">
<title>Node22</title>
<g id="a_Node000022"><a xlink:href="_socket_shutdown_enum_8hpp.html" target="_top" xlink:title=" ">
<polygon fill="white" stroke="#666666" points="767.14,-90.5 582.14,-90.5 582.14,-60.5 767.14,-60.5 767.14,-90.5"/>
<text text-anchor="start" x="590.14" y="-78.5" font-family="Helvetica,sans-Serif" font-size="10.00">Hermes/_base/OsApi</text>
<text text-anchor="middle" x="674.64" y="-67.5" font-family="Helvetica,sans-Serif" font-size="10.00">/Enums/SocketShutdownEnum.hpp</text>
</a>
</g>
</g>
<!-- Node10&#45;&gt;Node22 -->
<g id="edge24_Node000010_Node000022" class="edge">
<title>Node10&#45;&gt;Node22</title>
<g id="a_edge24_Node000010_Node000022"><a xlink:title=" ">
<path fill="none" stroke="#63b8ff" d="M1043.46,-137.66C977.87,-128.25 869.02,-112.15 775.64,-96 769.08,-94.87 762.29,-93.65 755.47,-92.39"/>
<polygon fill="#63b8ff" stroke="#63b8ff" points="755.96,-88.93 745.49,-90.54 754.68,-95.81 755.96,-88.93"/>
</a>
</g>
</g>
<!-- Node23 -->
<g id="Node000023" class="node">
<title>Node23</title>
<g id="a_Node000023"><a xlink:href="_socket_type_enum_8hpp.html" target="_top" xlink:title=" ">
<polygon fill="white" stroke="#666666" points="944.14,-90.5 785.14,-90.5 785.14,-60.5 944.14,-60.5 944.14,-90.5"/>
<text text-anchor="start" x="793.14" y="-78.5" font-family="Helvetica,sans-Serif" font-size="10.00">Hermes/_base/OsApi</text>
<text text-anchor="middle" x="864.64" y="-67.5" font-family="Helvetica,sans-Serif" font-size="10.00">/Enums/SocketTypeEnum.hpp</text>
</a>
</g>
</g>
<!-- Node10&#45;&gt;Node23 -->
<g id="edge26_Node000010_Node000023" class="edge">
<title>Node10&#45;&gt;Node23</title>
<g id="a_edge26_Node000010_Node000023"><a xlink:title=" ">
<path fill="none" stroke="#63b8ff" d="M1054.48,-131.94C1016.33,-120.8 962.92,-105.2 922.46,-93.38"/>
<polygon fill="#63b8ff" stroke="#63b8ff" points="923.31,-89.99 912.73,-90.54 921.35,-96.71 923.31,-89.99"/>
</a>
</g>
</g>
<!-- Node24 -->
<g id="Node000024" class="node">
<title>Node24</title>
<g id="a_Node000024"><a xlink:href="_linux_2_encrypt_status_enum_8hpp.html" target="_top" xlink:title=" ">
<polygon fill="white" stroke="#666666" points="1487.64,-96 1335.64,-96 1335.64,-55 1487.64,-55 1487.64,-96"/>
<text text-anchor="start" x="1343.64" y="-84" font-family="Helvetica,sans-Serif" font-size="10.00">Hermes/_base/OsApi</text>
<text text-anchor="start" x="1343.64" y="-73" font-family="Helvetica,sans-Serif" font-size="10.00">/Enums/Linux/EncryptStatus</text>
<text text-anchor="middle" x="1411.64" y="-62" font-family="Helvetica,sans-Serif" font-size="10.00">Enum.hpp</text>
</a>
</g>
</g>
<!-- Node10&#45;&gt;Node24 -->
<g id="edge28_Node000010_Node000024" class="edge">
<title>Node10&#45;&gt;Node24</title>
<g id="a_edge28_Node000010_Node000024"><a xlink:title=" ">
<path fill="none" stroke="#63b8ff" d="M1162.09,-132.83C1204.95,-123.31 1264.46,-110.05 1325.4,-96.28"/>
<polygon fill="#63b8ff" stroke="#63b8ff" points="1326.21,-99.68 1335.19,-94.06 1324.66,-92.85 1326.21,-99.68"/>
</a>
</g>
</g>
<!-- Node25 -->
<g id="Node000025" class="node">
<title>Node25</title>
<g id="a_Node000025"><a xlink:href="_name_info_flags_8hpp.html" target="_top" xlink:title=" ">
<polygon fill="white" stroke="#666666" points="1317.64,-90.5 1173.64,-90.5 1173.64,-60.5 1317.64,-60.5 1317.64,-90.5"/>
<text text-anchor="start" x="1181.64" y="-78.5" font-family="Helvetica,sans-Serif" font-size="10.00">Hermes/_base/OsApi</text>
<text text-anchor="middle" x="1245.64" y="-67.5" font-family="Helvetica,sans-Serif" font-size="10.00">/Flags/NameInfoFlags.hpp</text>
</a>
</g>
</g>
<!-- Node10&#45;&gt;Node25 -->
<g id="edge29_Node000010_Node000025" class="edge">
<title>Node10&#45;&gt;Node25</title>
<g id="a_edge29_Node000010_Node000025"><a xlink:title=" ">
<path fill="none" stroke="#63b8ff" d="M1131.58,-131.94C1153.48,-121.29 1183.76,-106.57 1207.62,-94.98"/>
<polygon fill="#63b8ff" stroke="#63b8ff" points="1209.28,-98.06 1216.75,-90.54 1206.22,-91.77 1209.28,-98.06"/>
</a>
</g>
</g>
<!-- Node26 -->
<g id="Node000026" class="node">
<title>Node26</title>
<g id="a_Node000026"><a xlink:href="_linux_2_credential_flags_8hpp.html" target="_top" xlink:title=" ">
<polygon fill="white" stroke="#666666" points="1849.64,-90.5 1673.64,-90.5 1673.64,-60.5 1849.64,-60.5 1849.64,-90.5"/>
<text text-anchor="start" x="1681.64" y="-78.5" font-family="Helvetica,sans-Serif" font-size="10.00">Hermes/_base/OsApi</text>
<text text-anchor="middle" x="1761.64" y="-67.5" font-family="Helvetica,sans-Serif" font-size="10.00">/Flags/Linux/CredentialFlags.hpp</text>
</a>
</g>
</g>
<!-- Node10&#45;&gt;Node26 -->
<g id="edge31_Node000010_Node000026" class="edge">
<title>Node10&#45;&gt;Node26</title>
<g id="a_edge31_Node000010_Node000026"><a xlink:title=" ">
<path fill="none" stroke="#63b8ff" d="M1161.95,-142.87C1264.72,-136.96 1482.38,-122.35 1664.64,-96 1671.91,-94.95 1679.46,-93.71 1686.99,-92.36"/>
<polygon fill="#63b8ff" stroke="#63b8ff" points="1687.65,-95.8 1696.85,-90.55 1686.38,-88.91 1687.65,-95.8"/>
</a>
</g>
</g>
<!-- Node27 -->
<g id="Node000027" class="node">
<title>Node27</title>
<g id="a_Node000027"><a xlink:href="_linux_2_supported_protocols_flags_8hpp.html" target="_top" xlink:title=" ">
<polygon fill="white" stroke="#666666" points="2041.14,-96 1868.14,-96 1868.14,-55 2041.14,-55 2041.14,-96"/>
<text text-anchor="start" x="1876.14" y="-84" font-family="Helvetica,sans-Serif" font-size="10.00">Hermes/_base/OsApi</text>
<text text-anchor="start" x="1876.14" y="-73" font-family="Helvetica,sans-Serif" font-size="10.00">/Flags/Linux/SupportedProtocols</text>
<text text-anchor="middle" x="1954.64" y="-62" font-family="Helvetica,sans-Serif" font-size="10.00">Flags.hpp</text>
</a>
</g>
</g>
<!-- Node10&#45;&gt;Node27 -->
<g id="edge32_Node000010_Node000027" class="edge">
<title>Node10&#45;&gt;Node27</title>
<g id="a_edge32_Node000010_Node000027"><a xlink:title=" ">
<path fill="none" stroke="#63b8ff" d="M1161.72,-144.79C1287.81,-141.63 1592.64,-130.87 1857.91,-95.99"/>
<polygon fill="#63b8ff" stroke="#63b8ff" points="1858.67,-99.42 1868.12,-94.63 1857.75,-92.48 1858.67,-99.42"/>
</a>
</g>
</g>
<!-- Node28 -->
<g id="Node000028" class="node">
<title>Node28</title>
<g id="a_Node000028"><a xlink:href="_linux_2_s_channel_cred_flags_8hpp.html" target="_top" xlink:title=" ">
<polygon fill="white" stroke="#666666" points="2253.64,-90.5 2059.64,-90.5 2059.64,-60.5 2253.64,-60.5 2253.64,-90.5"/>
<text text-anchor="start" x="2067.64" y="-78.5" font-family="Helvetica,sans-Serif" font-size="10.00">Hermes/_base/OsApi</text>
<text text-anchor="middle" x="2156.64" y="-67.5" font-family="Helvetica,sans-Serif" font-size="10.00">/Flags/Linux/SChannelCredFlags.hpp</text>
</a>
</g>
</g>
<!-- Node10&#45;&gt;Node28 -->
<g id="edge33_Node000010_Node000028" class="edge">
<title>Node10&#45;&gt;Node28</title>
<g id="a_edge33_Node000010_Node000028"><a xlink:title=" ">
<path fill="none" stroke="#63b8ff" d="M1161.66,-145.53C1311.02,-143.78 1715.92,-135.45 2050.64,-96 2059.35,-94.97 2068.42,-93.67 2077.43,-92.22"/>
<polygon fill="#63b8ff" stroke="#63b8ff" points="2078.27,-95.63 2087.56,-90.54 2077.12,-88.73 2078.27,-95.63"/>
</a>
</g>
</g>
<!-- Node16&#45;&gt;Node17 -->
<g id="edge16_Node000016_Node000017" class="edge">
<title>Node16&#45;&gt;Node17</title>
<g id="a_edge16_Node000016_Node000017"><a xlink:title=" ">
<path fill="none" stroke="#63b8ff" d="M1636,-60.46C1645.5,-58.39 1655.32,-56.46 1664.64,-55 1850,-25.87 2074.96,-14.97 2160.42,-11.69"/>
<polygon fill="#63b8ff" stroke="#63b8ff" points="2160.74,-15.18 2170.61,-11.31 2160.48,-8.19 2160.74,-15.18"/>
</a>
</g>
</g>
<!-- Node18&#45;&gt;Node11 -->
<g id="edge19_Node000018_Node000011" class="edge">
<title>Node18&#45;&gt;Node11</title>
<g id="a_edge19_Node000018_Node000011"><a xlink:title=" ">
<path fill="none" stroke="#63b8ff" d="M1016.07,-60.45C981.3,-48.98 932.73,-32.96 900.06,-22.18"/>
<polygon fill="#63b8ff" stroke="#63b8ff" points="901.05,-18.83 890.46,-19.02 898.86,-25.47 901.05,-18.83"/>
</a>
</g>
</g>
<!-- Node19 -->
<g id="Node000019" class="node">
<title>Node19</title>
<g id="a_Node000019"><a xlink:title=" ">
<polygon fill="#e0e0e0" stroke="#999999" points="1095.14,-19 1022.14,-19 1022.14,0 1095.14,0 1095.14,-19"/>
<text text-anchor="middle" x="1058.64" y="-7" font-family="Helvetica,sans-Serif" font-size="10.00">string_view</text>
</a>
</g>
</g>
<!-- Node18&#45;&gt;Node19 -->
<g id="edge18_Node000018_Node000019" class="edge">
<title>Node18&#45;&gt;Node19</title>
<g id="a_edge18_Node000018_Node000019"><a xlink:title=" ">
<path fill="none" stroke="#63b8ff" d="M1058.64,-60.3C1058.64,-51.2 1058.64,-39.29 1058.64,-29.4"/>
<polygon fill="#63b8ff" stroke="#63b8ff" points="1062.14,-29.34 1058.64,-19.34 1055.14,-29.34 1062.14,-29.34"/>
</a>
</g>
</g>
<!-- Node20&#45;&gt;Node11 -->
<g id="edge21_Node000020_Node000011" class="edge">
<title>Node20&#45;&gt;Node11</title>
<g id="a_edge21_Node000020_Node000011"><a xlink:title=" ">
<path fill="none" stroke="#63b8ff" d="M467.78,-60.49C478.09,-58.52 488.64,-56.61 498.64,-55 611.65,-36.8 745.36,-22.31 815.71,-15.23"/>
<polygon fill="#63b8ff" stroke="#63b8ff" points="816.43,-18.68 826.04,-14.2 815.74,-11.71 816.43,-18.68"/>
</a>
</g>
</g>
<!-- Node21&#45;&gt;Node12 -->
<g id="edge23_Node000021_Node000012" class="edge">
<title>Node21&#45;&gt;Node12</title>
<g id="a_edge23_Node000021_Node000012"><a xlink:title=" ">
<path fill="none" stroke="#63b8ff" d="M98.88,-60.3C89.22,-50.32 76.27,-36.96 66.22,-26.59"/>
<polygon fill="#63b8ff" stroke="#63b8ff" points="68.68,-24.09 59.21,-19.34 63.65,-28.96 68.68,-24.09"/>
</a>
</g>
</g>
<!-- Node22&#45;&gt;Node11 -->
<g id="edge25_Node000022_Node000011" class="edge">
<title>Node22&#45;&gt;Node11</title>
<g id="a_edge25_Node000022_Node000011"><a xlink:title=" ">
<path fill="none" stroke="#63b8ff" d="M716.34,-60.45C750.25,-49.03 797.55,-33.1 829.54,-22.32"/>
<polygon fill="#63b8ff" stroke="#63b8ff" points="831,-25.53 839.36,-19.02 828.76,-18.89 831,-25.53"/>
</a>
</g>
</g>
<!-- Node23&#45;&gt;Node11 -->
<g id="edge27_Node000023_Node000011" class="edge">
<title>Node23&#45;&gt;Node11</title>
<g id="a_edge27_Node000023_Node000011"><a xlink:title=" ">
<path fill="none" stroke="#63b8ff" d="M864.64,-60.3C864.64,-51.2 864.64,-39.29 864.64,-29.4"/>
<polygon fill="#63b8ff" stroke="#63b8ff" points="868.14,-29.34 864.64,-19.34 861.14,-29.34 868.14,-29.34"/>
</a>
</g>
</g>
<!-- Node25&#45;&gt;Node14 -->
<g id="edge30_Node000025_Node000014" class="edge">
<title>Node25&#45;&gt;Node14</title>
<g id="a_edge30_Node000025_Node000014"><a xlink:title=" ">
<path fill="none" stroke="#63b8ff" d="M1234.54,-60.3C1226.98,-50.61 1216.92,-37.74 1208.93,-27.51"/>
<polygon fill="#63b8ff" stroke="#63b8ff" points="1211.47,-25.07 1202.55,-19.34 1205.95,-29.38 1211.47,-25.07"/>
</a>
</g>
</g>
</g>
</svg>
