<?xml version="1.0" encoding="UTF-8" standalone="no"?>
<!DOCTYPE svg PUBLIC "-//W3C//DTD SVG 1.1//EN"
 "http://www.w3.org/Graphics/SVG/1.1/DTD/svg11.dtd">
<!-- Generated by graphviz version 2.43.0 (0)
 -->
<!-- Title: include/Hermes/Socket/_base/Connection/ITlsConnectStateMachine.hpp Pages: 1 -->
<svg width="3081pt" height="368pt"
 viewBox="0.00 0.00 3081.00 368.00" xmlns="http://www.w3.org/2000/svg" xmlns:xlink="http://www.w3.org/1999/xlink">
<g id="graph0" class="graph" transform="scale(1 1) rotate(0) translate(4 364)">
<title>include/Hermes/Socket/_base/Connection/ITlsConnectStateMachine.hpp</title>
<!-- Node1 -->
<g id="Node000001" class="node">
<title>Node1</title>
<g id="a_Node000001"><a xlink:title=" ">
<polygon fill="#999999" stroke="#666666" points="425,-360 259,-360 259,-319 425,-319 425,-360"/>
<text text-anchor="start" x="267" y="-348" font-family="Helvetica,sans-Serif" font-size="10.00">include/Hermes/Socket</text>
<text text-anchor="start" x="267" y="-337" font-family="Helvetica,sans-Serif" font-size="10.00">/_base/Connection/ITlsConnect</text>
<text text-anchor="middle" x="342" y="-326" font-family="Helvetica,sans-Serif" font-size="10.00">StateMachine.hpp</text>
</a>
</g>
</g>
<!-- Node2 -->
<g id="Node000002" class="node">
<title>Node2</title>
<g id="a_Node000002"><a xlink:href="__base_8hpp.html" target="_top" xlink:title=" ">
<polygon fill="white" stroke="#666666" points="413.5,-283 270.5,-283 270.5,-264 413.5,-264 413.5,-283"/>
<text text-anchor="middle" x="342" y="-271" font-family="Helvetica,sans-Serif" font-size="10.00">Hermes/Socket/_base.hpp</text>
</a>
</g>
</g>
<!-- Node1&#45;&gt;Node2 -->
<g id="edge1_Node000001_Node000002" class="edge">
<title>Node1&#45;&gt;Node2</title>
<g id="a_edge1_Node000001_Node000002"><a xlink:title=" ">
<path fill="none" stroke="#63b8ff" d="M342,-318.95C342,-310.85 342,-301.5 342,-293.47"/>
<polygon fill="#63b8ff" stroke="#63b8ff" points="345.5,-293.26 342,-283.26 338.5,-293.26 345.5,-293.26"/>
</a>
</g>
</g>
<!-- Node7 -->
<g id="Node000007" class="node">
<title>Node7</title>
<g id="a_Node000007"><a xlink:title=" ">
<polygon fill="#e0e0e0" stroke="#999999" points="40,-85 0,-85 0,-66 40,-66 40,-85"/>
<text text-anchor="middle" x="20" y="-73" font-family="Helvetica,sans-Serif" font-size="10.00">span</text>
</a>
</g>
</g>
<!-- Node1&#45;&gt;Node7 -->
<g id="edge41_Node000001_Node000007" class="edge">
<title>Node1&#45;&gt;Node7</title>
<g id="a_edge41_Node000001_Node000007"><a xlink:title=" ">
<path fill="none" stroke="#63b8ff" d="M311.9,-318.86C296.44,-308.53 277.45,-295.45 261,-283 173.17,-216.55 75.57,-127.98 37,-92.34"/>
<polygon fill="#63b8ff" stroke="#63b8ff" points="39.01,-89.42 29.3,-85.19 34.25,-94.56 39.01,-89.42"/>
</a>
</g>
</g>
<!-- Node19 -->
<g id="Node000019" class="node">
<title>Node19</title>
<g id="a_Node000019"><a xlink:title=" ">
<polygon fill="#e0e0e0" stroke="#999999" points="3046,-19 2996,-19 2996,0 3046,0 3046,-19"/>
<text text-anchor="middle" x="3021" y="-7" font-family="Helvetica,sans-Serif" font-size="10.00">cstdint</text>
</a>
</g>
</g>
<!-- Node1&#45;&gt;Node19 -->
<g id="edge42_Node000001_Node000019" class="edge">
<title>Node1&#45;&gt;Node19</title>
<g id="a_edge42_Node000001_Node000019"><a xlink:title=" ">
<path fill="none" stroke="#63b8ff" d="M425.22,-336.93C882.92,-328.05 3073,-282 3073,-214 3073,-214 3073,-214 3073,-146 3073,-104.68 3070.92,-92.69 3054,-55 3049.49,-44.95 3042.4,-34.98 3035.96,-27.04"/>
<polygon fill="#63b8ff" stroke="#63b8ff" points="3038.51,-24.64 3029.36,-19.3 3033.18,-29.18 3038.51,-24.64"/>
</a>
</g>
</g>
<!-- Node3 -->
<g id="Node000003" class="node">
<title>Node3</title>
<g id="a_Node000003"><a xlink:href="_endpoint_concept_8hpp.html" target="_top" xlink:title=" ">
<polygon fill="white" stroke="#666666" points="555,-228 423,-228 423,-198 555,-198 555,-228"/>
<text text-anchor="start" x="431" y="-216" font-family="Helvetica,sans-Serif" font-size="10.00">Hermes/Endpoint/_base</text>
<text text-anchor="middle" x="489" y="-205" font-family="Helvetica,sans-Serif" font-size="10.00">/EndpointConcept.hpp</text>
</a>
</g>
</g>
<!-- Node2&#45;&gt;Node3 -->
<g id="edge2_Node000002_Node000003" class="edge">
<title>Node2&#45;&gt;Node3</title>
<g id="a_edge2_Node000002_Node000003"><a xlink:title=" ">
<path fill="none" stroke="#63b8ff" d="M363.38,-263.99C384.44,-255.61 417.27,-242.55 444.08,-231.87"/>
<polygon fill="#63b8ff" stroke="#63b8ff" points="445.66,-235.01 453.66,-228.06 443.07,-228.51 445.66,-235.01"/>
</a>
</g>
</g>
<!-- Node4 -->
<g id="Node000004" class="node">
<title>Node4</title>
<g id="a_Node000004"><a xlink:href="_connection_error_enum_8hpp.html" target="_top" xlink:title=" ">
<polygon fill="white" stroke="#666666" points="500.5,-162 333.5,-162 333.5,-132 500.5,-132 500.5,-162"/>
<text text-anchor="start" x="341.5" y="-150" font-family="Helvetica,sans-Serif" font-size="10.00">Hermes/_base/ConnectionError</text>
<text text-anchor="middle" x="417" y="-139" font-family="Helvetica,sans-Serif" font-size="10.00">Enum.hpp</text>
</a>
</g>
</g>
<!-- Node2&#45;&gt;Node4 -->
<g id="edge37_Node000002_Node000004" class="edge">
<title>Node2&#45;&gt;Node4</title>
<g id="a_edge37_Node000002_Node000004"><a xlink:title=" ">
<path fill="none" stroke="#63b8ff" d="M349.26,-263.97C356.49,-255.25 367.7,-241.16 376,-228 387.59,-209.64 398.69,-187.61 406.41,-171.32"/>
<polygon fill="#63b8ff" stroke="#63b8ff" points="409.7,-172.54 410.76,-162 403.36,-169.58 409.7,-172.54"/>
</a>
</g>
</g>
<!-- Node9 -->
<g id="Node000009" class="node">
<title>Node9</title>
<g id="a_Node000009"><a xlink:title=" ">
<polygon fill="#e0e0e0" stroke="#999999" points="183.5,-85 58.5,-85 58.5,-66 183.5,-66 183.5,-85"/>
<text text-anchor="middle" x="121" y="-73" font-family="Helvetica,sans-Serif" font-size="10.00">stdexec/execution.hpp</text>
</a>
</g>
</g>
<!-- Node2&#45;&gt;Node9 -->
<g id="edge38_Node000002_Node000009" class="edge">
<title>Node2&#45;&gt;Node9</title>
<g id="a_edge38_Node000002_Node000009"><a xlink:title=" ">
<path fill="none" stroke="#63b8ff" d="M306.29,-263.95C282.86,-257.06 252.52,-245.57 230,-228 181.8,-190.39 145.44,-125.93 129.65,-94.62"/>
<polygon fill="#63b8ff" stroke="#63b8ff" points="132.65,-92.79 125.1,-85.36 126.37,-95.88 132.65,-92.79"/>
</a>
</g>
</g>
<!-- Node31 -->
<g id="Node000031" class="node">
<title>Node31</title>
<g id="a_Node000031"><a xlink:title=" ">
<polygon fill="#e0e0e0" stroke="#999999" points="299,-222.5 239,-222.5 239,-203.5 299,-203.5 299,-222.5"/>
<text text-anchor="middle" x="269" y="-210.5" font-family="Helvetica,sans-Serif" font-size="10.00">concepts</text>
</a>
</g>
</g>
<!-- Node2&#45;&gt;Node31 -->
<g id="edge39_Node000002_Node000031" class="edge">
<title>Node2&#45;&gt;Node31</title>
<g id="a_edge39_Node000002_Node000031"><a xlink:title=" ">
<path fill="none" stroke="#63b8ff" d="M331.23,-263.87C319.8,-254.71 301.52,-240.06 287.72,-229.01"/>
<polygon fill="#63b8ff" stroke="#63b8ff" points="289.81,-226.19 279.82,-222.67 285.43,-231.65 289.81,-226.19"/>
</a>
</g>
</g>
<!-- Node32 -->
<g id="Node000032" class="node">
<title>Node32</title>
<g id="a_Node000032"><a xlink:title=" ">
<polygon fill="#e0e0e0" stroke="#999999" points="367,-222.5 317,-222.5 317,-203.5 367,-203.5 367,-222.5"/>
<text text-anchor="middle" x="342" y="-210.5" font-family="Helvetica,sans-Serif" font-size="10.00">ranges</text>
</a>
</g>
</g>
<!-- Node2&#45;&gt;Node32 -->
<g id="edge40_Node000002_Node000032" class="edge">
<title>Node2&#45;&gt;Node32</title>
<g id="a_edge40_Node000002_Node000032"><a xlink:title=" ">
<path fill="none" stroke="#63b8ff" d="M342,-263.87C342,-255.75 342,-243.31 342,-232.89"/>
<polygon fill="#63b8ff" stroke="#63b8ff" points="345.5,-232.67 342,-222.67 338.5,-232.67 345.5,-232.67"/>
</a>
</g>
</g>
<!-- Node3&#45;&gt;Node4 -->
<g id="edge3_Node000003_Node000004" class="edge">
<title>Node3&#45;&gt;Node4</title>
<g id="a_edge3_Node000003_Node000004"><a xlink:title=" ">
<path fill="none" stroke="#63b8ff" d="M473.02,-197.8C463.51,-189.34 451.27,-178.46 440.66,-169.03"/>
<polygon fill="#63b8ff" stroke="#63b8ff" points="442.73,-166.19 432.93,-162.16 438.08,-171.42 442.73,-166.19"/>
</a>
</g>
</g>
<!-- Node12 -->
<g id="Node000012" class="node">
<title>Node12</title>
<g id="a_Node000012"><a xlink:href="_os_api_8hpp.html" target="_top" xlink:title=" ">
<polygon fill="white" stroke="#666666" points="1882,-162 1764,-162 1764,-132 1882,-132 1882,-162"/>
<text text-anchor="start" x="1772" y="-150" font-family="Helvetica,sans-Serif" font-size="10.00">Hermes/_base/OsApi</text>
<text text-anchor="middle" x="1823" y="-139" font-family="Helvetica,sans-Serif" font-size="10.00">/OsApi.hpp</text>
</a>
</g>
</g>
<!-- Node3&#45;&gt;Node12 -->
<g id="edge11_Node000003_Node000012" class="edge">
<title>Node3&#45;&gt;Node12</title>
<g id="a_edge11_Node000003_Node000012"><a xlink:title=" ">
<path fill="none" stroke="#63b8ff" d="M555.15,-208.83C781.29,-197.98 1522.3,-162.43 1753.48,-151.34"/>
<polygon fill="#63b8ff" stroke="#63b8ff" points="1753.95,-154.82 1763.77,-150.84 1753.61,-147.82 1753.95,-154.82"/>
</a>
</g>
</g>
<!-- Node5 -->
<g id="Node000005" class="node">
<title>Node5</title>
<g id="a_Node000005"><a xlink:title=" ">
<polygon fill="#e0e0e0" stroke="#999999" points="448,-85 386,-85 386,-66 448,-66 448,-85"/>
<text text-anchor="middle" x="417" y="-73" font-family="Helvetica,sans-Serif" font-size="10.00">expected</text>
</a>
</g>
</g>
<!-- Node4&#45;&gt;Node5 -->
<g id="edge4_Node000004_Node000005" class="edge">
<title>Node4&#45;&gt;Node5</title>
<g id="a_edge4_Node000004_Node000005"><a xlink:title=" ">
<path fill="none" stroke="#63b8ff" d="M417,-131.94C417,-121.46 417,-107.05 417,-95.55"/>
<polygon fill="#63b8ff" stroke="#63b8ff" points="420.5,-95.27 417,-85.27 413.5,-95.27 420.5,-95.27"/>
</a>
</g>
</g>
<!-- Node6 -->
<g id="Node000006" class="node">
<title>Node6</title>
<g id="a_Node000006"><a xlink:title=" ">
<polygon fill="#e0e0e0" stroke="#999999" points="513.5,-85 466.5,-85 466.5,-66 513.5,-66 513.5,-85"/>
<text text-anchor="middle" x="490" y="-73" font-family="Helvetica,sans-Serif" font-size="10.00">vector</text>
</a>
</g>
</g>
<!-- Node4&#45;&gt;Node6 -->
<g id="edge5_Node000004_Node000006" class="edge">
<title>Node4&#45;&gt;Node6</title>
<g id="a_edge5_Node000004_Node000006"><a xlink:title=" ">
<path fill="none" stroke="#63b8ff" d="M431.77,-131.94C443.8,-120.48 460.78,-104.32 473.3,-92.4"/>
<polygon fill="#63b8ff" stroke="#63b8ff" points="475.96,-94.7 480.79,-85.27 471.14,-89.63 475.96,-94.7"/>
</a>
</g>
</g>
<!-- Node4&#45;&gt;Node7 -->
<g id="edge6_Node000004_Node000007" class="edge">
<title>Node4&#45;&gt;Node7</title>
<g id="a_edge6_Node000004_Node000007"><a xlink:title=" ">
<path fill="none" stroke="#63b8ff" d="M333.23,-145.36C256.87,-142.3 142.11,-131.42 49,-96 45.55,-94.69 42.1,-92.9 38.85,-90.93"/>
<polygon fill="#63b8ff" stroke="#63b8ff" points="40.6,-87.89 30.36,-85.17 36.67,-93.68 40.6,-87.89"/>
</a>
</g>
</g>
<!-- Node8 -->
<g id="Node000008" class="node">
<title>Node8</title>
<g id="a_Node000008"><a xlink:title=" ">
<polygon fill="#e0e0e0" stroke="#999999" points="600.5,-85 531.5,-85 531.5,-66 600.5,-66 600.5,-85"/>
<text text-anchor="middle" x="566" y="-73" font-family="Helvetica,sans-Serif" font-size="10.00">type_traits</text>
</a>
</g>
</g>
<!-- Node4&#45;&gt;Node8 -->
<g id="edge7_Node000004_Node000008" class="edge">
<title>Node4&#45;&gt;Node8</title>
<g id="a_edge7_Node000004_Node000008"><a xlink:title=" ">
<path fill="none" stroke="#63b8ff" d="M447.15,-131.94C473.84,-119.49 512.48,-101.46 538.38,-89.38"/>
<polygon fill="#63b8ff" stroke="#63b8ff" points="540.05,-92.47 547.63,-85.07 537.09,-86.12 540.05,-92.47"/>
</a>
</g>
</g>
<!-- Node4&#45;&gt;Node9 -->
<g id="edge8_Node000004_Node000009" class="edge">
<title>Node4&#45;&gt;Node9</title>
<g id="a_edge8_Node000004_Node000009"><a xlink:title=" ">
<path fill="none" stroke="#63b8ff" d="M349.85,-131.98C305.02,-122.4 244.82,-109.11 192,-96 181.86,-93.48 170.95,-90.58 160.81,-87.8"/>
<polygon fill="#63b8ff" stroke="#63b8ff" points="161.54,-84.38 150.97,-85.08 159.67,-91.12 161.54,-84.38"/>
</a>
</g>
</g>
<!-- Node10 -->
<g id="Node000010" class="node">
<title>Node10</title>
<g id="a_Node000010"><a xlink:title=" ">
<polygon fill="#e0e0e0" stroke="#999999" points="753,-85 619,-85 619,-66 753,-66 753,-85"/>
<text text-anchor="middle" x="686" y="-73" font-family="Helvetica,sans-Serif" font-size="10.00">exec/any_sender_of.hpp</text>
</a>
</g>
</g>
<!-- Node4&#45;&gt;Node10 -->
<g id="edge9_Node000004_Node000010" class="edge">
<title>Node4&#45;&gt;Node10</title>
<g id="a_edge9_Node000004_Node000010"><a xlink:title=" ">
<path fill="none" stroke="#63b8ff" d="M471.44,-131.94C522.07,-118.85 596.5,-99.62 643.06,-87.59"/>
<polygon fill="#63b8ff" stroke="#63b8ff" points="644.03,-90.96 652.84,-85.07 642.28,-84.18 644.03,-90.96"/>
</a>
</g>
</g>
<!-- Node11 -->
<g id="Node000011" class="node">
<title>Node11</title>
<g id="a_Node000011"><a xlink:title=" ">
<polygon fill="#e0e0e0" stroke="#999999" points="368.5,-90.5 201.5,-90.5 201.5,-60.5 368.5,-60.5 368.5,-90.5"/>
<text text-anchor="start" x="209.5" y="-78.5" font-family="Helvetica,sans-Serif" font-size="10.00">Hermes/_base/ConnectionError</text>
<text text-anchor="middle" x="285" y="-67.5" font-family="Helvetica,sans-Serif" font-size="10.00">Enum.tpp</text>
</a>
</g>
</g>
<!-- Node4&#45;&gt;Node11 -->
<g id="edge10_Node000004_Node000011" class="edge">
<title>Node4&#45;&gt;Node11</title>
<g id="a_edge10_Node000004_Node000011"><a xlink:title=" ">
<path fill="none" stroke="#63b8ff" d="M390.29,-131.94C370.25,-121.38 342.61,-106.83 320.68,-95.29"/>
<polygon fill="#63b8ff" stroke="#63b8ff" points="322.15,-92.11 311.67,-90.54 318.89,-98.3 322.15,-92.11"/>
</a>
</g>
</g>
<!-- Node13 -->
<g id="Node000013" class="node">
<title>Node13</title>
<g id="a_Node000013"><a xlink:title=" ">
<polygon fill="#e0e0e0" stroke="#999999" points="2175.5,-19 2098.5,-19 2098.5,0 2175.5,0 2175.5,-19"/>
<text text-anchor="middle" x="2137" y="-7" font-family="Helvetica,sans-Serif" font-size="10.00">sys/socket.h</text>
</a>
</g>
</g>
<!-- Node12&#45;&gt;Node13 -->
<g id="edge12_Node000012_Node000013" class="edge">
<title>Node12&#45;&gt;Node13</title>
<g id="a_edge12_Node000012_Node000013"><a xlink:title=" ">
<path fill="none" stroke="#63b8ff" d="M1821.45,-131.98C1820.07,-111.84 1820.89,-74.96 1842,-55 1876.6,-22.29 2013.65,-13.61 2088.16,-11.32"/>
<polygon fill="#63b8ff" stroke="#63b8ff" points="2088.34,-14.81 2098.24,-11.03 2088.15,-7.82 2088.34,-14.81"/>
</a>
</g>
</g>
<!-- Node14 -->
<g id="Node000014" class="node">
<title>Node14</title>
<g id="a_Node000014"><a xlink:title=" ">
<polygon fill="#e0e0e0" stroke="#999999" points="2609,-19 2537,-19 2537,0 2609,0 2609,-19"/>
<text text-anchor="middle" x="2573" y="-7" font-family="Helvetica,sans-Serif" font-size="10.00">netinet/in.h</text>
</a>
</g>
</g>
<!-- Node12&#45;&gt;Node14 -->
<g id="edge13_Node000012_Node000014" class="edge">
<title>Node12&#45;&gt;Node14</title>
<g id="a_edge13_Node000012_Node000014"><a xlink:title=" ">
<path fill="none" stroke="#63b8ff" d="M1882.27,-145.88C2046.94,-145 2501.24,-138.69 2552,-96 2571.26,-79.81 2574.43,-49.09 2574.24,-29.22"/>
<polygon fill="#63b8ff" stroke="#63b8ff" points="2577.74,-29.07 2573.86,-19.21 2570.75,-29.34 2577.74,-29.07"/>
</a>
</g>
</g>
<!-- Node15 -->
<g id="Node000015" class="node">
<title>Node15</title>
<g id="a_Node000015"><a xlink:title=" ">
<polygon fill="#e0e0e0" stroke="#999999" points="2877.5,-85 2808.5,-85 2808.5,-66 2877.5,-66 2877.5,-85"/>
<text text-anchor="middle" x="2843" y="-73" font-family="Helvetica,sans-Serif" font-size="10.00">arpa/inet.h</text>
</a>
</g>
</g>
<!-- Node12&#45;&gt;Node15 -->
<g id="edge14_Node000012_Node000015" class="edge">
<title>Node12&#45;&gt;Node15</title>
<g id="a_edge14_Node000012_Node000015"><a xlink:title=" ">
<path fill="none" stroke="#63b8ff" d="M1882.13,-145.79C2065.6,-144.68 2623.44,-137.88 2799,-96 2805.25,-94.51 2811.71,-92.16 2817.7,-89.59"/>
<polygon fill="#63b8ff" stroke="#63b8ff" points="2819.59,-92.57 2827.2,-85.19 2816.65,-86.22 2819.59,-92.57"/>
</a>
</g>
</g>
<!-- Node16 -->
<g id="Node000016" class="node">
<title>Node16</title>
<g id="a_Node000016"><a xlink:title=" ">
<polygon fill="#e0e0e0" stroke="#999999" points="857.5,-19 804.5,-19 804.5,0 857.5,0 857.5,-19"/>
<text text-anchor="middle" x="831" y="-7" font-family="Helvetica,sans-Serif" font-size="10.00">netdb.h</text>
</a>
</g>
</g>
<!-- Node12&#45;&gt;Node16 -->
<g id="edge15_Node000012_Node000016" class="edge">
<title>Node12&#45;&gt;Node16</title>
<g id="a_edge15_Node000012_Node000016"><a xlink:title=" ">
<path fill="none" stroke="#63b8ff" d="M1763.91,-145.34C1550.93,-142.66 833.4,-131.07 800,-96 781.68,-76.76 800.83,-45.89 816.11,-26.97"/>
<polygon fill="#63b8ff" stroke="#63b8ff" points="818.9,-29.1 822.71,-19.21 813.56,-24.56 818.9,-29.1"/>
</a>
</g>
</g>
<!-- Node17 -->
<g id="Node000017" class="node">
<title>Node17</title>
<g id="a_Node000017"><a xlink:title=" ">
<polygon fill="#e0e0e0" stroke="#999999" points="1027,-85 971,-85 971,-66 1027,-66 1027,-85"/>
<text text-anchor="middle" x="999" y="-73" font-family="Helvetica,sans-Serif" font-size="10.00">unistd.h</text>
</a>
</g>
</g>
<!-- Node12&#45;&gt;Node17 -->
<g id="edge16_Node000012_Node000017" class="edge">
<title>Node12&#45;&gt;Node17</title>
<g id="a_edge16_Node000012_Node000017"><a xlink:title=" ">
<path fill="none" stroke="#63b8ff" d="M1763.97,-145.44C1605.38,-143.44 1172.82,-134.49 1036,-96 1031.02,-94.6 1025.95,-92.47 1021.22,-90.12"/>
<polygon fill="#63b8ff" stroke="#63b8ff" points="1022.59,-86.88 1012.13,-85.16 1019.23,-93.03 1022.59,-86.88"/>
</a>
</g>
</g>
<!-- Node18 -->
<g id="Node000018" class="node">
<title>Node18</title>
<g id="a_Node000018"><a xlink:href="_conversion_and_literals_8hpp.html" target="_top" xlink:title=" ">
<polygon fill="white" stroke="#666666" points="3045,-90.5 2895,-90.5 2895,-60.5 3045,-60.5 3045,-90.5"/>
<text text-anchor="start" x="2903" y="-78.5" font-family="Helvetica,sans-Serif" font-size="10.00">Hermes/_base/OsApi</text>
<text text-anchor="middle" x="2970" y="-67.5" font-family="Helvetica,sans-Serif" font-size="10.00">/ConversionAndLiterals.hpp</text>
</a>
</g>
</g>
<!-- Node12&#45;&gt;Node18 -->
<g id="edge17_Node000012_Node000018" class="edge">
<title>Node12&#45;&gt;Node18</title>
<g id="a_edge17_Node000012_Node000018"><a xlink:title=" ">
<path fill="none" stroke="#63b8ff" d="M1882.27,-144.63C2076.07,-139.91 2689.72,-123.17 2886,-96 2892.58,-95.09 2899.39,-93.91 2906.17,-92.58"/>
<polygon fill="#63b8ff" stroke="#63b8ff" points="2906.96,-95.99 2916.05,-90.54 2905.54,-89.14 2906.96,-95.99"/>
</a>
</g>
</g>
<!-- Node20 -->
<g id="Node000020" class="node">
<title>Node20</title>
<g id="a_Node000020"><a xlink:href="_macros_8hpp.html" target="_top" xlink:title=" ">
<polygon fill="white" stroke="#666666" points="2543,-90.5 2425,-90.5 2425,-60.5 2543,-60.5 2543,-90.5"/>
<text text-anchor="start" x="2433" y="-78.5" font-family="Helvetica,sans-Serif" font-size="10.00">Hermes/_base/OsApi</text>
<text text-anchor="middle" x="2484" y="-67.5" font-family="Helvetica,sans-Serif" font-size="10.00">/Macros.hpp</text>
</a>
</g>
</g>
<!-- Node12&#45;&gt;Node20 -->
<g id="edge19_Node000012_Node000020" class="edge">
<title>Node12&#45;&gt;Node20</title>
<g id="a_edge19_Node000012_Node000020"><a xlink:title=" ">
<path fill="none" stroke="#63b8ff" d="M1882.31,-144.73C1989.48,-141.62 2222.19,-131.05 2415,-96 2419.65,-95.15 2424.45,-94.13 2429.23,-93"/>
<polygon fill="#63b8ff" stroke="#63b8ff" points="2430.16,-96.37 2439.01,-90.55 2428.46,-89.58 2430.16,-96.37"/>
</a>
</g>
</g>
<!-- Node22 -->
<g id="Node000022" class="node">
<title>Node22</title>
<g id="a_Node000022"><a xlink:href="_address_family_enum_8hpp.html" target="_top" xlink:title=" ">
<polygon fill="white" stroke="#666666" points="2027,-90.5 1851,-90.5 1851,-60.5 2027,-60.5 2027,-90.5"/>
<text text-anchor="start" x="1859" y="-78.5" font-family="Helvetica,sans-Serif" font-size="10.00">Hermes/_base/OsApi</text>
<text text-anchor="middle" x="1939" y="-67.5" font-family="Helvetica,sans-Serif" font-size="10.00">/Enums/AddressFamilyEnum.hpp</text>
</a>
</g>
</g>
<!-- Node12&#45;&gt;Node22 -->
<g id="edge23_Node000012_Node000022" class="edge">
<title>Node12&#45;&gt;Node22</title>
<g id="a_edge23_Node000012_Node000022"><a xlink:title=" ">
<path fill="none" stroke="#63b8ff" d="M1846.47,-131.94C1863.85,-121.53 1887.72,-107.22 1906.87,-95.75"/>
<polygon fill="#63b8ff" stroke="#63b8ff" points="1908.78,-98.69 1915.56,-90.54 1905.18,-92.68 1908.78,-98.69"/>
</a>
</g>
</g>
<!-- Node23 -->
<g id="Node000023" class="node">
<title>Node23</title>
<g id="a_Node000023"><a xlink:href="_protocol_base_type_enum_8hpp.html" target="_top" xlink:title=" ">
<polygon fill="white" stroke="#666666" points="2790.5,-90.5 2599.5,-90.5 2599.5,-60.5 2790.5,-60.5 2790.5,-90.5"/>
<text text-anchor="start" x="2607.5" y="-78.5" font-family="Helvetica,sans-Serif" font-size="10.00">Hermes/_base/OsApi</text>
<text text-anchor="middle" x="2695" y="-67.5" font-family="Helvetica,sans-Serif" font-size="10.00">/Enums/ProtocolBaseTypeEnum.hpp</text>
</a>
</g>
</g>
<!-- Node12&#45;&gt;Node23 -->
<g id="edge25_Node000012_Node000023" class="edge">
<title>Node12&#45;&gt;Node23</title>
<g id="a_edge25_Node000012_Node000023"><a xlink:title=" ">
<path fill="none" stroke="#63b8ff" d="M1882,-144.34C2010.29,-140.24 2324.07,-127.59 2585,-96 2593.91,-94.92 2603.19,-93.6 2612.42,-92.15"/>
<polygon fill="#63b8ff" stroke="#63b8ff" points="2613.08,-95.59 2622.39,-90.53 2611.96,-88.68 2613.08,-95.59"/>
</a>
</g>
</g>
<!-- Node24 -->
<g id="Node000024" class="node">
<title>Node24</title>
<g id="a_Node000024"><a xlink:href="_socket_shutdown_enum_8hpp.html" target="_top" xlink:title=" ">
<polygon fill="white" stroke="#666666" points="2229.5,-90.5 2044.5,-90.5 2044.5,-60.5 2229.5,-60.5 2229.5,-90.5"/>
<text text-anchor="start" x="2052.5" y="-78.5" font-family="Helvetica,sans-Serif" font-size="10.00">Hermes/_base/OsApi</text>
<text text-anchor="middle" x="2137" y="-67.5" font-family="Helvetica,sans-Serif" font-size="10.00">/Enums/SocketShutdownEnum.hpp</text>
</a>
</g>
</g>
<!-- Node12&#45;&gt;Node24 -->
<g id="edge27_Node000012_Node000024" class="edge">
<title>Node12&#45;&gt;Node24</title>
<g id="a_edge27_Node000012_Node000024"><a xlink:title=" ">
<path fill="none" stroke="#63b8ff" d="M1882.06,-132.93C1933.49,-121.54 2008.26,-105 2063.54,-92.76"/>
<polygon fill="#63b8ff" stroke="#63b8ff" points="2064.61,-96.11 2073.62,-90.53 2063.1,-89.27 2064.61,-96.11"/>
</a>
</g>
</g>
<!-- Node25 -->
<g id="Node000025" class="node">
<title>Node25</title>
<g id="a_Node000025"><a xlink:href="_socket_type_enum_8hpp.html" target="_top" xlink:title=" ">
<polygon fill="white" stroke="#666666" points="2406.5,-90.5 2247.5,-90.5 2247.5,-60.5 2406.5,-60.5 2406.5,-90.5"/>
<text text-anchor="start" x="2255.5" y="-78.5" font-family="Helvetica,sans-Serif" font-size="10.00">Hermes/_base/OsApi</text>
<text text-anchor="middle" x="2327" y="-67.5" font-family="Helvetica,sans-Serif" font-size="10.00">/Enums/SocketTypeEnum.hpp</text>
</a>
</g>
</g>
<!-- Node12&#45;&gt;Node25 -->
<g id="edge29_Node000012_Node000025" class="edge">
<title>Node12&#45;&gt;Node25</title>
<g id="a_edge29_Node000012_Node000025"><a xlink:title=" ">
<path fill="none" stroke="#63b8ff" d="M1882.02,-140.69C1962.72,-133.01 2111.89,-117.36 2238,-96 2244.14,-94.96 2250.5,-93.78 2256.86,-92.52"/>
<polygon fill="#63b8ff" stroke="#63b8ff" points="2257.73,-95.92 2266.83,-90.5 2256.33,-89.06 2257.73,-95.92"/>
</a>
</g>
</g>
<!-- Node26 -->
<g id="Node000026" class="node">
<title>Node26</title>
<g id="a_Node000026"><a xlink:title=" ">
<polygon fill="#e0e0e0" stroke="#999999" points="1197,-96 1045,-96 1045,-55 1197,-55 1197,-96"/>
<text text-anchor="start" x="1053" y="-84" font-family="Helvetica,sans-Serif" font-size="10.00">Hermes/_base/OsApi</text>
<text text-anchor="start" x="1053" y="-73" font-family="Helvetica,sans-Serif" font-size="10.00">/Enums/Linux/EncryptStatus</text>
<text text-anchor="middle" x="1121" y="-62" font-family="Helvetica,sans-Serif" font-size="10.00">Enum.hpp</text>
</a>
</g>
</g>
<!-- Node12&#45;&gt;Node26 -->
<g id="edge31_Node000012_Node000026" class="edge">
<title>Node12&#45;&gt;Node26</title>
<g id="a_edge31_Node000012_Node000026"><a xlink:title=" ">
<path fill="none" stroke="#63b8ff" d="M1763.97,-144.06C1655.47,-139.87 1417,-127.79 1207.32,-96.09"/>
<polygon fill="#63b8ff" stroke="#63b8ff" points="1207.77,-92.62 1197.35,-94.57 1206.71,-99.54 1207.77,-92.62"/>
</a>
</g>
</g>
<!-- Node27 -->
<g id="Node000027" class="node">
<title>Node27</title>
<g id="a_Node000027"><a xlink:href="_name_info_flags_8hpp.html" target="_top" xlink:title=" ">
<polygon fill="white" stroke="#666666" points="953,-90.5 809,-90.5 809,-60.5 953,-60.5 953,-90.5"/>
<text text-anchor="start" x="817" y="-78.5" font-family="Helvetica,sans-Serif" font-size="10.00">Hermes/_base/OsApi</text>
<text text-anchor="middle" x="881" y="-67.5" font-family="Helvetica,sans-Serif" font-size="10.00">/Flags/NameInfoFlags.hpp</text>
</a>
</g>
</g>
<!-- Node12&#45;&gt;Node27 -->
<g id="edge32_Node000012_Node000027" class="edge">
<title>Node12&#45;&gt;Node27</title>
<g id="a_edge32_Node000012_Node000027"><a xlink:title=" ">
<path fill="none" stroke="#63b8ff" d="M1763.91,-146.18C1623.85,-145.83 1261,-140.31 962,-96 955.9,-95.1 949.58,-93.95 943.29,-92.67"/>
<polygon fill="#63b8ff" stroke="#63b8ff" points="943.97,-89.24 933.45,-90.57 942.5,-96.08 943.97,-89.24"/>
</a>
</g>
</g>
<!-- Node28 -->
<g id="Node000028" class="node">
<title>Node28</title>
<g id="a_Node000028"><a xlink:title=" ">
<polygon fill="#e0e0e0" stroke="#999999" points="1391,-90.5 1215,-90.5 1215,-60.5 1391,-60.5 1391,-90.5"/>
<text text-anchor="start" x="1223" y="-78.5" font-family="Helvetica,sans-Serif" font-size="10.00">Hermes/_base/OsApi</text>
<text text-anchor="middle" x="1303" y="-67.5" font-family="Helvetica,sans-Serif" font-size="10.00">/Flags/Linux/CredentialFlags.hpp</text>
</a>
</g>
</g>
<!-- Node12&#45;&gt;Node28 -->
<g id="edge34_Node000012_Node000028" class="edge">
<title>Node12&#45;&gt;Node28</title>
<g id="a_edge34_Node000012_Node000028"><a xlink:title=" ">
<path fill="none" stroke="#63b8ff" d="M1763.94,-140.54C1681.99,-132.61 1529.26,-116.6 1400,-96 1393.28,-94.93 1386.31,-93.72 1379.33,-92.45"/>
<polygon fill="#63b8ff" stroke="#63b8ff" points="1379.61,-88.94 1369.14,-90.54 1378.32,-95.82 1379.61,-88.94"/>
</a>
</g>
</g>
<!-- Node29 -->
<g id="Node000029" class="node">
<title>Node29</title>
<g id="a_Node000029"><a xlink:title=" ">
<polygon fill="#e0e0e0" stroke="#999999" points="1582.5,-96 1409.5,-96 1409.5,-55 1582.5,-55 1582.5,-96"/>
<text text-anchor="start" x="1417.5" y="-84" font-family="Helvetica,sans-Serif" font-size="10.00">Hermes/_base/OsApi</text>
<text text-anchor="start" x="1417.5" y="-73" font-family="Helvetica,sans-Serif" font-size="10.00">/Flags/Linux/SupportedProtocols</text>
<text text-anchor="middle" x="1496" y="-62" font-family="Helvetica,sans-Serif" font-size="10.00">Flags.hpp</text>
</a>
</g>
</g>
<!-- Node12&#45;&gt;Node29 -->
<g id="edge35_Node000012_Node000029" class="edge">
<title>Node12&#45;&gt;Node29</title>
<g id="a_edge35_Node000012_Node000029"><a xlink:title=" ">
<path fill="none" stroke="#63b8ff" d="M1763.78,-133.41C1716.12,-123.28 1648.17,-108.84 1592.65,-97.04"/>
<polygon fill="#63b8ff" stroke="#63b8ff" points="1593.3,-93.6 1582.79,-94.95 1591.84,-100.45 1593.3,-93.6"/>
</a>
</g>
</g>
<!-- Node30 -->
<g id="Node000030" class="node">
<title>Node30</title>
<g id="a_Node000030"><a xlink:title=" ">
<polygon fill="#e0e0e0" stroke="#999999" points="1795,-90.5 1601,-90.5 1601,-60.5 1795,-60.5 1795,-90.5"/>
<text text-anchor="start" x="1609" y="-78.5" font-family="Helvetica,sans-Serif" font-size="10.00">Hermes/_base/OsApi</text>
<text text-anchor="middle" x="1698" y="-67.5" font-family="Helvetica,sans-Serif" font-size="10.00">/Flags/Linux/SChannelCredFlags.hpp</text>
</a>
</g>
</g>
<!-- Node12&#45;&gt;Node30 -->
<g id="edge36_Node000012_Node000030" class="edge">
<title>Node12&#45;&gt;Node30</title>
<g id="a_edge36_Node000012_Node000030"><a xlink:title=" ">
<path fill="none" stroke="#63b8ff" d="M1797.7,-131.94C1778.81,-121.43 1752.79,-106.96 1732.07,-95.44"/>
<polygon fill="#63b8ff" stroke="#63b8ff" points="1733.7,-92.34 1723.26,-90.54 1730.3,-98.46 1733.7,-92.34"/>
</a>
</g>
</g>
<!-- Node18&#45;&gt;Node19 -->
<g id="edge18_Node000018_Node000019" class="edge">
<title>Node18&#45;&gt;Node19</title>
<g id="a_edge18_Node000018_Node000019"><a xlink:title=" ">
<path fill="none" stroke="#63b8ff" d="M2981.32,-60.3C2989.11,-50.51 2999.5,-37.48 3007.69,-27.2"/>
<polygon fill="#63b8ff" stroke="#63b8ff" points="3010.46,-29.35 3013.95,-19.34 3004.98,-24.98 3010.46,-29.35"/>
</a>
</g>
</g>
<!-- Node20&#45;&gt;Node13 -->
<g id="edge21_Node000020_Node000013" class="edge">
<title>Node20&#45;&gt;Node13</title>
<g id="a_edge21_Node000020_Node000013"><a xlink:title=" ">
<path fill="none" stroke="#63b8ff" d="M2437.05,-60.44C2429.7,-58.47 2422.17,-56.58 2415,-55 2335.47,-37.46 2241.69,-23.9 2185.91,-16.57"/>
<polygon fill="#63b8ff" stroke="#63b8ff" points="2186.31,-13.09 2175.95,-15.27 2185.41,-20.04 2186.31,-13.09"/>
</a>
</g>
</g>
<!-- Node20&#45;&gt;Node14 -->
<g id="edge22_Node000020_Node000014" class="edge">
<title>Node20&#45;&gt;Node14</title>
<g id="a_edge22_Node000020_Node000014"><a xlink:title=" ">
<path fill="none" stroke="#63b8ff" d="M2503.75,-60.3C2518.26,-49.87 2537.9,-35.74 2552.56,-25.19"/>
<polygon fill="#63b8ff" stroke="#63b8ff" points="2554.88,-27.84 2560.96,-19.16 2550.8,-22.16 2554.88,-27.84"/>
</a>
</g>
</g>
<!-- Node21 -->
<g id="Node000021" class="node">
<title>Node21</title>
<g id="a_Node000021"><a xlink:title=" ">
<polygon fill="#e0e0e0" stroke="#999999" points="2518.5,-19 2445.5,-19 2445.5,0 2518.5,0 2518.5,-19"/>
<text text-anchor="middle" x="2482" y="-7" font-family="Helvetica,sans-Serif" font-size="10.00">string_view</text>
</a>
</g>
</g>
<!-- Node20&#45;&gt;Node21 -->
<g id="edge20_Node000020_Node000021" class="edge">
<title>Node20&#45;&gt;Node21</title>
<g id="a_edge20_Node000020_Node000021"><a xlink:title=" ">
<path fill="none" stroke="#63b8ff" d="M2483.56,-60.3C2483.27,-51.2 2482.9,-39.29 2482.59,-29.4"/>
<polygon fill="#63b8ff" stroke="#63b8ff" points="2486.09,-29.23 2482.28,-19.34 2479.09,-29.45 2486.09,-29.23"/>
</a>
</g>
</g>
<!-- Node22&#45;&gt;Node13 -->
<g id="edge24_Node000022_Node000013" class="edge">
<title>Node22&#45;&gt;Node13</title>
<g id="a_edge24_Node000022_Node000013"><a xlink:title=" ">
<path fill="none" stroke="#63b8ff" d="M1982.45,-60.45C2017.94,-48.98 2067.51,-32.96 2100.86,-22.18"/>
<polygon fill="#63b8ff" stroke="#63b8ff" points="2102.21,-25.42 2110.65,-19.02 2100.06,-18.76 2102.21,-25.42"/>
</a>
</g>
</g>
<!-- Node23&#45;&gt;Node14 -->
<g id="edge26_Node000023_Node000014" class="edge">
<title>Node23&#45;&gt;Node14</title>
<g id="a_edge26_Node000023_Node000014"><a xlink:title=" ">
<path fill="none" stroke="#63b8ff" d="M2668.23,-60.45C2647.4,-49.53 2618.69,-34.47 2598.26,-23.75"/>
<polygon fill="#63b8ff" stroke="#63b8ff" points="2599.72,-20.56 2589.24,-19.02 2596.47,-26.76 2599.72,-20.56"/>
</a>
</g>
</g>
<!-- Node24&#45;&gt;Node13 -->
<g id="edge28_Node000024_Node000013" class="edge">
<title>Node24&#45;&gt;Node13</title>
<g id="a_edge28_Node000024_Node000013"><a xlink:title=" ">
<path fill="none" stroke="#63b8ff" d="M2137,-60.3C2137,-51.2 2137,-39.29 2137,-29.4"/>
<polygon fill="#63b8ff" stroke="#63b8ff" points="2140.5,-29.34 2137,-19.34 2133.5,-29.34 2140.5,-29.34"/>
</a>
</g>
</g>
<!-- Node25&#45;&gt;Node13 -->
<g id="edge30_Node000025_Node000013" class="edge">
<title>Node25&#45;&gt;Node13</title>
<g id="a_edge30_Node000025_Node000013"><a xlink:title=" ">
<path fill="none" stroke="#63b8ff" d="M2285.3,-60.45C2251.4,-49.03 2204.09,-33.1 2172.1,-22.32"/>
<polygon fill="#63b8ff" stroke="#63b8ff" points="2172.88,-18.89 2162.29,-19.02 2170.65,-25.53 2172.88,-18.89"/>
</a>
</g>
</g>
<!-- Node27&#45;&gt;Node16 -->
<g id="edge33_Node000027_Node000016" class="edge">
<title>Node27&#45;&gt;Node16</title>
<g id="a_edge33_Node000027_Node000016"><a xlink:title=" ">
<path fill="none" stroke="#63b8ff" d="M869.9,-60.3C862.34,-50.61 852.28,-37.74 844.29,-27.51"/>
<polygon fill="#63b8ff" stroke="#63b8ff" points="846.82,-25.07 837.91,-19.34 841.31,-29.38 846.82,-25.07"/>
</a>
</g>
</g>
</g>
</svg>
