<?xml version="1.0" encoding="UTF-8" standalone="no"?>
<!DOCTYPE svg PUBLIC "-//W3C//DTD SVG 1.1//EN"
 "http://www.w3.org/Graphics/SVG/1.1/DTD/svg11.dtd">
<!-- Generated by graphviz version 2.43.0 (0)
 -->
<!-- Title: include/Hermes/Socket/_base/Accept/ITlsAcceptStateMachine.hpp Pages: 1 -->
<svg width="3086pt" height="368pt"
 viewBox="0.00 0.00 3085.91 368.00" xmlns="http://www.w3.org/2000/svg" xmlns:xlink="http://www.w3.org/1999/xlink">
<g id="graph0" class="graph" transform="scale(1 1) rotate(0) translate(4 364)">
<title>include/Hermes/Socket/_base/Accept/ITlsAcceptStateMachine.hpp</title>
<!-- Node1 -->
<g id="Node000001" class="node">
<title>Node1</title>
<g id="a_Node000001"><a xlink:title=" ">
<polygon fill="#999999" stroke="#666666" points="791.5,-360 628.5,-360 628.5,-319 791.5,-319 791.5,-360"/>
<text text-anchor="start" x="636.5" y="-348" font-family="Helvetica,sans-Serif" font-size="10.00">include/Hermes/Socket</text>
<text text-anchor="start" x="636.5" y="-337" font-family="Helvetica,sans-Serif" font-size="10.00">/_base/Accept/ITlsAcceptState</text>
<text text-anchor="middle" x="710" y="-326" font-family="Helvetica,sans-Serif" font-size="10.00">Machine.hpp</text>
</a>
</g>
</g>
<!-- Node2 -->
<g id="Node000002" class="node">
<title>Node2</title>
<g id="a_Node000002"><a xlink:href="__base_8hpp.html" target="_top" xlink:title=" ">
<polygon fill="white" stroke="#666666" points="781.5,-283 638.5,-283 638.5,-264 781.5,-264 781.5,-283"/>
<text text-anchor="middle" x="710" y="-271" font-family="Helvetica,sans-Serif" font-size="10.00">Hermes/Socket/_base.hpp</text>
</a>
</g>
</g>
<!-- Node1&#45;&gt;Node2 -->
<g id="edge1_Node000001_Node000002" class="edge">
<title>Node1&#45;&gt;Node2</title>
<g id="a_edge1_Node000001_Node000002"><a xlink:title=" ">
<path fill="none" stroke="#63b8ff" d="M710,-318.95C710,-310.85 710,-301.5 710,-293.47"/>
<polygon fill="#63b8ff" stroke="#63b8ff" points="713.5,-293.26 710,-283.26 706.5,-293.26 713.5,-293.26"/>
</a>
</g>
</g>
<!-- Node7 -->
<g id="Node000007" class="node">
<title>Node7</title>
<g id="a_Node000007"><a xlink:title=" ">
<polygon fill="#e0e0e0" stroke="#999999" points="40,-85 0,-85 0,-66 40,-66 40,-85"/>
<text text-anchor="middle" x="20" y="-73" font-family="Helvetica,sans-Serif" font-size="10.00">span</text>
</a>
</g>
</g>
<!-- Node1&#45;&gt;Node7 -->
<g id="edge41_Node000001_Node000007" class="edge">
<title>Node1&#45;&gt;Node7</title>
<g id="a_edge41_Node000001_Node000007"><a xlink:title=" ">
<path fill="none" stroke="#63b8ff" d="M640.16,-318.94C517,-283.14 254.79,-201 49,-96 45.97,-94.46 42.88,-92.65 39.9,-90.78"/>
<polygon fill="#63b8ff" stroke="#63b8ff" points="41.72,-87.78 31.46,-85.14 37.83,-93.6 41.72,-87.78"/>
</a>
</g>
</g>
<!-- Node19 -->
<g id="Node000019" class="node">
<title>Node19</title>
<g id="a_Node000019"><a xlink:title=" ">
<polygon fill="#e0e0e0" stroke="#999999" points="2664,-19 2614,-19 2614,0 2664,0 2664,-19"/>
<text text-anchor="middle" x="2639" y="-7" font-family="Helvetica,sans-Serif" font-size="10.00">cstdint</text>
</a>
</g>
</g>
<!-- Node1&#45;&gt;Node19 -->
<g id="edge42_Node000001_Node000019" class="edge">
<title>Node1&#45;&gt;Node19</title>
<g id="a_edge42_Node000001_Node000019"><a xlink:title=" ">
<path fill="none" stroke="#63b8ff" d="M791.75,-338.56C1208.3,-338.35 3075,-330.89 3075,-214 3075,-214 3075,-214 3075,-146 3075,-104.68 3086.63,-82.73 3056,-55 3027.9,-29.57 2769.7,-16.07 2674.25,-11.92"/>
<polygon fill="#63b8ff" stroke="#63b8ff" points="2674.37,-8.42 2664.23,-11.49 2674.07,-15.41 2674.37,-8.42"/>
</a>
</g>
</g>
<!-- Node3 -->
<g id="Node000003" class="node">
<title>Node3</title>
<g id="a_Node000003"><a xlink:href="_endpoint_concept_8hpp.html" target="_top" xlink:title=" ">
<polygon fill="white" stroke="#666666" points="663,-228 531,-228 531,-198 663,-198 663,-228"/>
<text text-anchor="start" x="539" y="-216" font-family="Helvetica,sans-Serif" font-size="10.00">Hermes/Endpoint/_base</text>
<text text-anchor="middle" x="597" y="-205" font-family="Helvetica,sans-Serif" font-size="10.00">/EndpointConcept.hpp</text>
</a>
</g>
</g>
<!-- Node2&#45;&gt;Node3 -->
<g id="edge2_Node000002_Node000003" class="edge">
<title>Node2&#45;&gt;Node3</title>
<g id="a_edge2_Node000002_Node000003"><a xlink:title=" ">
<path fill="none" stroke="#63b8ff" d="M693.33,-263.87C677.57,-255.71 653.4,-243.2 633.21,-232.75"/>
<polygon fill="#63b8ff" stroke="#63b8ff" points="634.75,-229.6 624.26,-228.11 631.54,-235.82 634.75,-229.6"/>
</a>
</g>
</g>
<!-- Node4 -->
<g id="Node000004" class="node">
<title>Node4</title>
<g id="a_Node000004"><a xlink:href="_connection_error_enum_8hpp.html" target="_top" xlink:title=" ">
<polygon fill="white" stroke="#666666" points="441.5,-162 274.5,-162 274.5,-132 441.5,-132 441.5,-162"/>
<text text-anchor="start" x="282.5" y="-150" font-family="Helvetica,sans-Serif" font-size="10.00">Hermes/_base/ConnectionError</text>
<text text-anchor="middle" x="358" y="-139" font-family="Helvetica,sans-Serif" font-size="10.00">Enum.hpp</text>
</a>
</g>
</g>
<!-- Node2&#45;&gt;Node4 -->
<g id="edge36_Node000002_Node000004" class="edge">
<title>Node2&#45;&gt;Node4</title>
<g id="a_edge36_Node000002_Node000004"><a xlink:title=" ">
<path fill="none" stroke="#63b8ff" d="M660.84,-263.96C622.4,-256.55 567.96,-244.42 522,-228 475.16,-211.27 424.09,-184.97 391.59,-167.13"/>
<polygon fill="#63b8ff" stroke="#63b8ff" points="392.98,-163.9 382.54,-162.11 389.59,-170.02 392.98,-163.9"/>
</a>
</g>
</g>
<!-- Node9 -->
<g id="Node000009" class="node">
<title>Node9</title>
<g id="a_Node000009"><a xlink:title=" ">
<polygon fill="#e0e0e0" stroke="#999999" points="753.5,-85 628.5,-85 628.5,-66 753.5,-66 753.5,-85"/>
<text text-anchor="middle" x="691" y="-73" font-family="Helvetica,sans-Serif" font-size="10.00">stdexec/execution.hpp</text>
</a>
</g>
</g>
<!-- Node2&#45;&gt;Node9 -->
<g id="edge38_Node000002_Node000009" class="edge">
<title>Node2&#45;&gt;Node9</title>
<g id="a_edge38_Node000002_Node000009"><a xlink:title=" ">
<path fill="none" stroke="#63b8ff" d="M709.16,-263.83C706.28,-234.16 696.8,-136.35 692.8,-95.1"/>
<polygon fill="#63b8ff" stroke="#63b8ff" points="696.28,-94.69 691.83,-85.07 689.31,-95.37 696.28,-94.69"/>
</a>
</g>
</g>
<!-- Node12 -->
<g id="Node000012" class="node">
<title>Node12</title>
<g id="a_Node000012"><a xlink:href="_os_api_8hpp.html" target="_top" xlink:title=" ">
<polygon fill="white" stroke="#666666" points="1787,-162 1669,-162 1669,-132 1787,-132 1787,-162"/>
<text text-anchor="start" x="1677" y="-150" font-family="Helvetica,sans-Serif" font-size="10.00">Hermes/_base/OsApi</text>
<text text-anchor="middle" x="1728" y="-139" font-family="Helvetica,sans-Serif" font-size="10.00">/OsApi.hpp</text>
</a>
</g>
</g>
<!-- Node2&#45;&gt;Node12 -->
<g id="edge37_Node000002_Node000012" class="edge">
<title>Node2&#45;&gt;Node12</title>
<g id="a_edge37_Node000002_Node000012"><a xlink:title=" ">
<path fill="none" stroke="#63b8ff" d="M711.55,-263.7C714.93,-247.49 724.61,-213.16 748,-198 823.87,-148.83 1447.73,-146.82 1658.63,-147.57"/>
<polygon fill="#63b8ff" stroke="#63b8ff" points="1658.65,-151.07 1668.66,-147.61 1658.67,-144.07 1658.65,-151.07"/>
</a>
</g>
</g>
<!-- Node31 -->
<g id="Node000031" class="node">
<title>Node31</title>
<g id="a_Node000031"><a xlink:title=" ">
<polygon fill="#e0e0e0" stroke="#999999" points="817,-222.5 757,-222.5 757,-203.5 817,-203.5 817,-222.5"/>
<text text-anchor="middle" x="787" y="-210.5" font-family="Helvetica,sans-Serif" font-size="10.00">concepts</text>
</a>
</g>
</g>
<!-- Node2&#45;&gt;Node31 -->
<g id="edge39_Node000002_Node000031" class="edge">
<title>Node2&#45;&gt;Node31</title>
<g id="a_edge39_Node000002_Node000031"><a xlink:title=" ">
<path fill="none" stroke="#63b8ff" d="M721.36,-263.87C733.42,-254.71 752.7,-240.06 767.25,-229.01"/>
<polygon fill="#63b8ff" stroke="#63b8ff" points="769.75,-231.5 775.59,-222.67 765.51,-225.93 769.75,-231.5"/>
</a>
</g>
</g>
<!-- Node32 -->
<g id="Node000032" class="node">
<title>Node32</title>
<g id="a_Node000032"><a xlink:title=" ">
<polygon fill="#e0e0e0" stroke="#999999" points="885,-222.5 835,-222.5 835,-203.5 885,-203.5 885,-222.5"/>
<text text-anchor="middle" x="860" y="-210.5" font-family="Helvetica,sans-Serif" font-size="10.00">ranges</text>
</a>
</g>
</g>
<!-- Node2&#45;&gt;Node32 -->
<g id="edge40_Node000002_Node000032" class="edge">
<title>Node2&#45;&gt;Node32</title>
<g id="a_edge40_Node000002_Node000032"><a xlink:title=" ">
<path fill="none" stroke="#63b8ff" d="M732.74,-263.96C756.17,-255.12 793.73,-240.83 826,-228 827.37,-227.45 828.77,-226.89 830.19,-226.32"/>
<polygon fill="#63b8ff" stroke="#63b8ff" points="831.59,-229.53 839.54,-222.52 828.95,-223.05 831.59,-229.53"/>
</a>
</g>
</g>
<!-- Node3&#45;&gt;Node4 -->
<g id="edge3_Node000003_Node000004" class="edge">
<title>Node3&#45;&gt;Node4</title>
<g id="a_edge3_Node000003_Node000004"><a xlink:title=" ">
<path fill="none" stroke="#63b8ff" d="M544.55,-197.95C507.97,-188.16 459,-175.05 420.41,-164.71"/>
<polygon fill="#63b8ff" stroke="#63b8ff" points="420.89,-161.22 410.33,-162.01 419.08,-167.98 420.89,-161.22"/>
</a>
</g>
</g>
<!-- Node3&#45;&gt;Node12 -->
<g id="edge11_Node000003_Node000012" class="edge">
<title>Node3&#45;&gt;Node12</title>
<g id="a_edge11_Node000003_Node000012"><a xlink:title=" ">
<path fill="none" stroke="#63b8ff" d="M663.07,-203.35C679.98,-201.36 698.14,-199.41 715,-198 1068.91,-168.31 1493.96,-154.37 1658.37,-149.79"/>
<polygon fill="#63b8ff" stroke="#63b8ff" points="1658.92,-153.27 1668.82,-149.5 1658.72,-146.28 1658.92,-153.27"/>
</a>
</g>
</g>
<!-- Node5 -->
<g id="Node000005" class="node">
<title>Node5</title>
<g id="a_Node000005"><a xlink:title=" ">
<polygon fill="#e0e0e0" stroke="#999999" points="120,-85 58,-85 58,-66 120,-66 120,-85"/>
<text text-anchor="middle" x="89" y="-73" font-family="Helvetica,sans-Serif" font-size="10.00">expected</text>
</a>
</g>
</g>
<!-- Node4&#45;&gt;Node5 -->
<g id="edge4_Node000004_Node000005" class="edge">
<title>Node4&#45;&gt;Node5</title>
<g id="a_edge4_Node000004_Node000005"><a xlink:title=" ">
<path fill="none" stroke="#63b8ff" d="M274.27,-132.68C230.33,-124.46 175.99,-112.32 129,-96 123.93,-94.24 118.67,-92 113.69,-89.67"/>
<polygon fill="#63b8ff" stroke="#63b8ff" points="115.11,-86.46 104.59,-85.18 112.01,-92.74 115.11,-86.46"/>
</a>
</g>
</g>
<!-- Node6 -->
<g id="Node000006" class="node">
<title>Node6</title>
<g id="a_Node000006"><a xlink:title=" ">
<polygon fill="#e0e0e0" stroke="#999999" points="185.5,-85 138.5,-85 138.5,-66 185.5,-66 185.5,-85"/>
<text text-anchor="middle" x="162" y="-73" font-family="Helvetica,sans-Serif" font-size="10.00">vector</text>
</a>
</g>
</g>
<!-- Node4&#45;&gt;Node6 -->
<g id="edge5_Node000004_Node000006" class="edge">
<title>Node4&#45;&gt;Node6</title>
<g id="a_edge5_Node000004_Node000006"><a xlink:title=" ">
<path fill="none" stroke="#63b8ff" d="M299.4,-131.98C267.53,-123.41 227.81,-111.17 194,-96 190.4,-94.39 186.72,-92.45 183.19,-90.42"/>
<polygon fill="#63b8ff" stroke="#63b8ff" points="184.73,-87.26 174.37,-85.04 181.08,-93.24 184.73,-87.26"/>
</a>
</g>
</g>
<!-- Node4&#45;&gt;Node7 -->
<g id="edge6_Node000004_Node000007" class="edge">
<title>Node4&#45;&gt;Node7</title>
<g id="a_edge6_Node000004_Node000007"><a xlink:title=" ">
<path fill="none" stroke="#63b8ff" d="M274.44,-142.2C210.76,-137.02 121.91,-124.8 49,-96 45.57,-94.64 42.13,-92.83 38.88,-90.85"/>
<polygon fill="#63b8ff" stroke="#63b8ff" points="40.63,-87.81 30.39,-85.1 36.7,-93.61 40.63,-87.81"/>
</a>
</g>
</g>
<!-- Node8 -->
<g id="Node000008" class="node">
<title>Node8</title>
<g id="a_Node000008"><a xlink:title=" ">
<polygon fill="#e0e0e0" stroke="#999999" points="272.5,-85 203.5,-85 203.5,-66 272.5,-66 272.5,-85"/>
<text text-anchor="middle" x="238" y="-73" font-family="Helvetica,sans-Serif" font-size="10.00">type_traits</text>
</a>
</g>
</g>
<!-- Node4&#45;&gt;Node8 -->
<g id="edge7_Node000004_Node000008" class="edge">
<title>Node4&#45;&gt;Node8</title>
<g id="a_edge7_Node000004_Node000008"><a xlink:title=" ">
<path fill="none" stroke="#63b8ff" d="M333.72,-131.94C312.69,-119.76 282.47,-102.26 261.64,-90.19"/>
<polygon fill="#63b8ff" stroke="#63b8ff" points="263.2,-87.05 252.79,-85.07 259.69,-93.11 263.2,-87.05"/>
</a>
</g>
</g>
<!-- Node4&#45;&gt;Node9 -->
<g id="edge8_Node000004_Node000009" class="edge">
<title>Node4&#45;&gt;Node9</title>
<g id="a_edge8_Node000004_Node000009"><a xlink:title=" ">
<path fill="none" stroke="#63b8ff" d="M439.74,-131.97C491.36,-122.71 559.32,-109.78 619,-96 629.61,-93.55 641.03,-90.6 651.57,-87.75"/>
<polygon fill="#63b8ff" stroke="#63b8ff" points="652.63,-91.09 661.35,-85.07 650.78,-84.34 652.63,-91.09"/>
</a>
</g>
</g>
<!-- Node10 -->
<g id="Node000010" class="node">
<title>Node10</title>
<g id="a_Node000010"><a xlink:title=" ">
<polygon fill="#e0e0e0" stroke="#999999" points="425,-85 291,-85 291,-66 425,-66 425,-85"/>
<text text-anchor="middle" x="358" y="-73" font-family="Helvetica,sans-Serif" font-size="10.00">exec/any_sender_of.hpp</text>
</a>
</g>
</g>
<!-- Node4&#45;&gt;Node10 -->
<g id="edge9_Node000004_Node000010" class="edge">
<title>Node4&#45;&gt;Node10</title>
<g id="a_edge9_Node000004_Node000010"><a xlink:title=" ">
<path fill="none" stroke="#63b8ff" d="M358,-131.94C358,-121.46 358,-107.05 358,-95.55"/>
<polygon fill="#63b8ff" stroke="#63b8ff" points="361.5,-95.27 358,-85.27 354.5,-95.27 361.5,-95.27"/>
</a>
</g>
</g>
<!-- Node11 -->
<g id="Node000011" class="node">
<title>Node11</title>
<g id="a_Node000011"><a xlink:title=" ">
<polygon fill="#e0e0e0" stroke="#999999" points="610.5,-90.5 443.5,-90.5 443.5,-60.5 610.5,-60.5 610.5,-90.5"/>
<text text-anchor="start" x="451.5" y="-78.5" font-family="Helvetica,sans-Serif" font-size="10.00">Hermes/_base/ConnectionError</text>
<text text-anchor="middle" x="527" y="-67.5" font-family="Helvetica,sans-Serif" font-size="10.00">Enum.tpp</text>
</a>
</g>
</g>
<!-- Node4&#45;&gt;Node11 -->
<g id="edge10_Node000004_Node000011" class="edge">
<title>Node4&#45;&gt;Node11</title>
<g id="a_edge10_Node000004_Node000011"><a xlink:title=" ">
<path fill="none" stroke="#63b8ff" d="M392.2,-131.94C418.54,-121.1 455.14,-106.05 483.56,-94.37"/>
<polygon fill="#63b8ff" stroke="#63b8ff" points="484.93,-97.58 492.85,-90.54 482.27,-91.11 484.93,-97.58"/>
</a>
</g>
</g>
<!-- Node13 -->
<g id="Node000013" class="node">
<title>Node13</title>
<g id="a_Node000013"><a xlink:title=" ">
<polygon fill="#e0e0e0" stroke="#999999" points="1134.5,-19 1057.5,-19 1057.5,0 1134.5,0 1134.5,-19"/>
<text text-anchor="middle" x="1096" y="-7" font-family="Helvetica,sans-Serif" font-size="10.00">sys/socket.h</text>
</a>
</g>
</g>
<!-- Node12&#45;&gt;Node13 -->
<g id="edge12_Node000012_Node000013" class="edge">
<title>Node12&#45;&gt;Node13</title>
<g id="a_edge12_Node000012_Node000013"><a xlink:title=" ">
<path fill="none" stroke="#63b8ff" d="M1668.68,-145.02C1468.82,-141.43 830.9,-127.55 801,-96 728.13,-19.1 946.05,-10.06 1047.29,-9.87"/>
<polygon fill="#63b8ff" stroke="#63b8ff" points="1047.29,-13.37 1057.29,-9.88 1047.3,-6.37 1047.29,-13.37"/>
</a>
</g>
</g>
<!-- Node14 -->
<g id="Node000014" class="node">
<title>Node14</title>
<g id="a_Node000014"><a xlink:title=" ">
<polygon fill="#e0e0e0" stroke="#999999" points="1630,-19 1558,-19 1558,0 1630,0 1630,-19"/>
<text text-anchor="middle" x="1594" y="-7" font-family="Helvetica,sans-Serif" font-size="10.00">netinet/in.h</text>
</a>
</g>
</g>
<!-- Node12&#45;&gt;Node14 -->
<g id="edge13_Node000012_Node000014" class="edge">
<title>Node12&#45;&gt;Node14</title>
<g id="a_edge13_Node000012_Node000014"><a xlink:title=" ">
<path fill="none" stroke="#63b8ff" d="M1668.74,-137.17C1622.76,-128.96 1564.49,-115.12 1550,-96 1538.99,-81.48 1543.07,-71.85 1550,-55 1554.81,-43.31 1564.33,-33.05 1573.3,-25.34"/>
<polygon fill="#63b8ff" stroke="#63b8ff" points="1575.6,-27.98 1581.22,-19 1571.23,-22.51 1575.6,-27.98"/>
</a>
</g>
</g>
<!-- Node15 -->
<g id="Node000015" class="node">
<title>Node15</title>
<g id="a_Node000015"><a xlink:title=" ">
<polygon fill="#e0e0e0" stroke="#999999" points="1836.5,-85 1767.5,-85 1767.5,-66 1836.5,-66 1836.5,-85"/>
<text text-anchor="middle" x="1802" y="-73" font-family="Helvetica,sans-Serif" font-size="10.00">arpa/inet.h</text>
</a>
</g>
</g>
<!-- Node12&#45;&gt;Node15 -->
<g id="edge14_Node000012_Node000015" class="edge">
<title>Node12&#45;&gt;Node15</title>
<g id="a_edge14_Node000012_Node000015"><a xlink:title=" ">
<path fill="none" stroke="#63b8ff" d="M1742.98,-131.94C1755.17,-120.48 1772.38,-104.32 1785.08,-92.4"/>
<polygon fill="#63b8ff" stroke="#63b8ff" points="1787.77,-94.66 1792.67,-85.27 1782.98,-89.56 1787.77,-94.66"/>
</a>
</g>
</g>
<!-- Node16 -->
<g id="Node000016" class="node">
<title>Node16</title>
<g id="a_Node000016"><a xlink:title=" ">
<polygon fill="#e0e0e0" stroke="#999999" points="1941.5,-19 1888.5,-19 1888.5,0 1941.5,0 1941.5,-19"/>
<text text-anchor="middle" x="1915" y="-7" font-family="Helvetica,sans-Serif" font-size="10.00">netdb.h</text>
</a>
</g>
</g>
<!-- Node12&#45;&gt;Node16 -->
<g id="edge15_Node000012_Node000016" class="edge">
<title>Node12&#45;&gt;Node16</title>
<g id="a_edge15_Node000012_Node000016"><a xlink:title=" ">
<path fill="none" stroke="#63b8ff" d="M1775.34,-131.96C1798.11,-123.77 1824.95,-111.88 1846,-96 1859.39,-85.9 1886.95,-49.32 1902.89,-27.42"/>
<polygon fill="#63b8ff" stroke="#63b8ff" points="1905.92,-29.2 1908.93,-19.05 1900.24,-25.1 1905.92,-29.2"/>
</a>
</g>
</g>
<!-- Node17 -->
<g id="Node000017" class="node">
<title>Node17</title>
<g id="a_Node000017"><a xlink:title=" ">
<polygon fill="#e0e0e0" stroke="#999999" points="2111,-85 2055,-85 2055,-66 2111,-66 2111,-85"/>
<text text-anchor="middle" x="2083" y="-73" font-family="Helvetica,sans-Serif" font-size="10.00">unistd.h</text>
</a>
</g>
</g>
<!-- Node12&#45;&gt;Node17 -->
<g id="edge16_Node000012_Node000017" class="edge">
<title>Node12&#45;&gt;Node17</title>
<g id="a_edge16_Node000012_Node000017"><a xlink:title=" ">
<path fill="none" stroke="#63b8ff" d="M1787.1,-142.53C1852,-137.39 1958.62,-125.01 2046,-96 2050.83,-94.4 2055.79,-92.21 2060.44,-89.88"/>
<polygon fill="#63b8ff" stroke="#63b8ff" points="2062.28,-92.86 2069.43,-85.04 2058.96,-86.7 2062.28,-92.86"/>
</a>
</g>
</g>
<!-- Node18 -->
<g id="Node000018" class="node">
<title>Node18</title>
<g id="a_Node000018"><a xlink:href="_conversion_and_literals_8hpp.html" target="_top" xlink:title=" ">
<polygon fill="white" stroke="#666666" points="2279,-90.5 2129,-90.5 2129,-60.5 2279,-60.5 2279,-90.5"/>
<text text-anchor="start" x="2137" y="-78.5" font-family="Helvetica,sans-Serif" font-size="10.00">Hermes/_base/OsApi</text>
<text text-anchor="middle" x="2204" y="-67.5" font-family="Helvetica,sans-Serif" font-size="10.00">/ConversionAndLiterals.hpp</text>
</a>
</g>
</g>
<!-- Node12&#45;&gt;Node18 -->
<g id="edge17_Node000012_Node000018" class="edge">
<title>Node12&#45;&gt;Node18</title>
<g id="a_edge17_Node000012_Node000018"><a xlink:title=" ">
<path fill="none" stroke="#63b8ff" d="M1787.06,-140.35C1864.03,-132.56 2002.67,-117.05 2120,-96 2125.43,-95.03 2131.05,-93.93 2136.67,-92.76"/>
<polygon fill="#63b8ff" stroke="#63b8ff" points="2137.73,-96.11 2146.77,-90.6 2136.26,-89.27 2137.73,-96.11"/>
</a>
</g>
</g>
<!-- Node20 -->
<g id="Node000020" class="node">
<title>Node20</title>
<g id="a_Node000020"><a xlink:href="_macros_8hpp.html" target="_top" xlink:title=" ">
<polygon fill="white" stroke="#666666" points="1502,-90.5 1384,-90.5 1384,-60.5 1502,-60.5 1502,-90.5"/>
<text text-anchor="start" x="1392" y="-78.5" font-family="Helvetica,sans-Serif" font-size="10.00">Hermes/_base/OsApi</text>
<text text-anchor="middle" x="1443" y="-67.5" font-family="Helvetica,sans-Serif" font-size="10.00">/Macros.hpp</text>
</a>
</g>
</g>
<!-- Node12&#45;&gt;Node20 -->
<g id="edge19_Node000012_Node000020" class="edge">
<title>Node12&#45;&gt;Node20</title>
<g id="a_edge19_Node000012_Node000020"><a xlink:title=" ">
<path fill="none" stroke="#63b8ff" d="M1668.94,-132.56C1626.35,-122.75 1567.53,-108.96 1516,-96 1512.24,-95.06 1508.38,-94.07 1504.49,-93.06"/>
<polygon fill="#63b8ff" stroke="#63b8ff" points="1505.35,-89.67 1494.79,-90.54 1503.59,-96.45 1505.35,-89.67"/>
</a>
</g>
</g>
<!-- Node22 -->
<g id="Node000022" class="node">
<title>Node22</title>
<g id="a_Node000022"><a xlink:href="_address_family_enum_8hpp.html" target="_top" xlink:title=" ">
<polygon fill="white" stroke="#666666" points="986,-90.5 810,-90.5 810,-60.5 986,-60.5 986,-90.5"/>
<text text-anchor="start" x="818" y="-78.5" font-family="Helvetica,sans-Serif" font-size="10.00">Hermes/_base/OsApi</text>
<text text-anchor="middle" x="898" y="-67.5" font-family="Helvetica,sans-Serif" font-size="10.00">/Enums/AddressFamilyEnum.hpp</text>
</a>
</g>
</g>
<!-- Node12&#45;&gt;Node22 -->
<g id="edge22_Node000012_Node000022" class="edge">
<title>Node12&#45;&gt;Node22</title>
<g id="a_edge22_Node000012_Node000022"><a xlink:title=" ">
<path fill="none" stroke="#63b8ff" d="M1668.83,-144.58C1543.86,-141 1244.05,-129.38 995,-96 987.4,-94.98 979.5,-93.72 971.63,-92.34"/>
<polygon fill="#63b8ff" stroke="#63b8ff" points="972.18,-88.89 961.72,-90.54 970.93,-95.77 972.18,-88.89"/>
</a>
</g>
</g>
<!-- Node23 -->
<g id="Node000023" class="node">
<title>Node23</title>
<g id="a_Node000023"><a xlink:href="_protocol_base_type_enum_8hpp.html" target="_top" xlink:title=" ">
<polygon fill="white" stroke="#666666" points="1749.5,-90.5 1558.5,-90.5 1558.5,-60.5 1749.5,-60.5 1749.5,-90.5"/>
<text text-anchor="start" x="1566.5" y="-78.5" font-family="Helvetica,sans-Serif" font-size="10.00">Hermes/_base/OsApi</text>
<text text-anchor="middle" x="1654" y="-67.5" font-family="Helvetica,sans-Serif" font-size="10.00">/Enums/ProtocolBaseTypeEnum.hpp</text>
</a>
</g>
</g>
<!-- Node12&#45;&gt;Node23 -->
<g id="edge24_Node000012_Node000023" class="edge">
<title>Node12&#45;&gt;Node23</title>
<g id="a_edge24_Node000012_Node000023"><a xlink:title=" ">
<path fill="none" stroke="#63b8ff" d="M1713.02,-131.94C1702.49,-122.04 1688.22,-108.64 1676.34,-97.49"/>
<polygon fill="#63b8ff" stroke="#63b8ff" points="1678.64,-94.84 1668.95,-90.54 1673.85,-99.94 1678.64,-94.84"/>
</a>
</g>
</g>
<!-- Node24 -->
<g id="Node000024" class="node">
<title>Node24</title>
<g id="a_Node000024"><a xlink:href="_socket_shutdown_enum_8hpp.html" target="_top" xlink:title=" ">
<polygon fill="white" stroke="#666666" points="1188.5,-90.5 1003.5,-90.5 1003.5,-60.5 1188.5,-60.5 1188.5,-90.5"/>
<text text-anchor="start" x="1011.5" y="-78.5" font-family="Helvetica,sans-Serif" font-size="10.00">Hermes/_base/OsApi</text>
<text text-anchor="middle" x="1096" y="-67.5" font-family="Helvetica,sans-Serif" font-size="10.00">/Enums/SocketShutdownEnum.hpp</text>
</a>
</g>
</g>
<!-- Node12&#45;&gt;Node24 -->
<g id="edge26_Node000012_Node000024" class="edge">
<title>Node12&#45;&gt;Node24</title>
<g id="a_edge26_Node000012_Node000024"><a xlink:title=" ">
<path fill="none" stroke="#63b8ff" d="M1668.96,-142.27C1570.85,-135.65 1368.19,-120.24 1198,-96 1190.34,-94.91 1182.39,-93.64 1174.45,-92.27"/>
<polygon fill="#63b8ff" stroke="#63b8ff" points="1174.89,-88.8 1164.43,-90.51 1173.67,-95.69 1174.89,-88.8"/>
</a>
</g>
</g>
<!-- Node25 -->
<g id="Node000025" class="node">
<title>Node25</title>
<g id="a_Node000025"><a xlink:href="_socket_type_enum_8hpp.html" target="_top" xlink:title=" ">
<polygon fill="white" stroke="#666666" points="1365.5,-90.5 1206.5,-90.5 1206.5,-60.5 1365.5,-60.5 1365.5,-90.5"/>
<text text-anchor="start" x="1214.5" y="-78.5" font-family="Helvetica,sans-Serif" font-size="10.00">Hermes/_base/OsApi</text>
<text text-anchor="middle" x="1286" y="-67.5" font-family="Helvetica,sans-Serif" font-size="10.00">/Enums/SocketTypeEnum.hpp</text>
</a>
</g>
</g>
<!-- Node12&#45;&gt;Node25 -->
<g id="edge28_Node000012_Node000025" class="edge">
<title>Node12&#45;&gt;Node25</title>
<g id="a_edge28_Node000012_Node000025"><a xlink:title=" ">
<path fill="none" stroke="#63b8ff" d="M1668.76,-138.99C1598.45,-130.35 1477.8,-114.51 1375,-96 1369.22,-94.96 1363.24,-93.81 1357.24,-92.6"/>
<polygon fill="#63b8ff" stroke="#63b8ff" points="1357.66,-89.12 1347.16,-90.53 1356.25,-95.97 1357.66,-89.12"/>
</a>
</g>
</g>
<!-- Node26 -->
<g id="Node000026" class="node">
<title>Node26</title>
<g id="a_Node000026"><a xlink:href="_linux_2_encrypt_status_enum_8hpp.html" target="_top" xlink:title=" ">
<polygon fill="white" stroke="#666666" points="2449,-96 2297,-96 2297,-55 2449,-55 2449,-96"/>
<text text-anchor="start" x="2305" y="-84" font-family="Helvetica,sans-Serif" font-size="10.00">Hermes/_base/OsApi</text>
<text text-anchor="start" x="2305" y="-73" font-family="Helvetica,sans-Serif" font-size="10.00">/Enums/Linux/EncryptStatus</text>
<text text-anchor="middle" x="2373" y="-62" font-family="Helvetica,sans-Serif" font-size="10.00">Enum.hpp</text>
</a>
</g>
</g>
<!-- Node12&#45;&gt;Node26 -->
<g id="edge30_Node000012_Node000026" class="edge">
<title>Node12&#45;&gt;Node26</title>
<g id="a_edge30_Node000012_Node000026"><a xlink:title=" ">
<path fill="none" stroke="#63b8ff" d="M1787.18,-143.37C1887.9,-138.33 2099.16,-125.21 2286.6,-96.11"/>
<polygon fill="#63b8ff" stroke="#63b8ff" points="2287.31,-99.55 2296.64,-94.54 2286.22,-92.63 2287.31,-99.55"/>
</a>
</g>
</g>
<!-- Node27 -->
<g id="Node000027" class="node">
<title>Node27</title>
<g id="a_Node000027"><a xlink:href="_name_info_flags_8hpp.html" target="_top" xlink:title=" ">
<polygon fill="white" stroke="#666666" points="2037,-90.5 1893,-90.5 1893,-60.5 2037,-60.5 2037,-90.5"/>
<text text-anchor="start" x="1901" y="-78.5" font-family="Helvetica,sans-Serif" font-size="10.00">Hermes/_base/OsApi</text>
<text text-anchor="middle" x="1965" y="-67.5" font-family="Helvetica,sans-Serif" font-size="10.00">/Flags/NameInfoFlags.hpp</text>
</a>
</g>
</g>
<!-- Node12&#45;&gt;Node27 -->
<g id="edge31_Node000012_Node000027" class="edge">
<title>Node12&#45;&gt;Node27</title>
<g id="a_edge31_Node000012_Node000027"><a xlink:title=" ">
<path fill="none" stroke="#63b8ff" d="M1775.96,-131.94C1813.95,-120.8 1867.14,-105.2 1907.42,-93.38"/>
<polygon fill="#63b8ff" stroke="#63b8ff" points="1908.5,-96.72 1917.11,-90.54 1906.53,-90 1908.5,-96.72"/>
</a>
</g>
</g>
<!-- Node28 -->
<g id="Node000028" class="node">
<title>Node28</title>
<g id="a_Node000028"><a xlink:href="_linux_2_credential_flags_8hpp.html" target="_top" xlink:title=" ">
<polygon fill="white" stroke="#666666" points="2643,-90.5 2467,-90.5 2467,-60.5 2643,-60.5 2643,-90.5"/>
<text text-anchor="start" x="2475" y="-78.5" font-family="Helvetica,sans-Serif" font-size="10.00">Hermes/_base/OsApi</text>
<text text-anchor="middle" x="2555" y="-67.5" font-family="Helvetica,sans-Serif" font-size="10.00">/Flags/Linux/CredentialFlags.hpp</text>
</a>
</g>
</g>
<!-- Node12&#45;&gt;Node28 -->
<g id="edge33_Node000012_Node000028" class="edge">
<title>Node12&#45;&gt;Node28</title>
<g id="a_edge33_Node000012_Node000028"><a xlink:title=" ">
<path fill="none" stroke="#63b8ff" d="M1787.4,-144.55C1912.14,-140.92 2210.28,-129.24 2458,-96 2465.6,-94.98 2473.5,-93.72 2481.37,-92.34"/>
<polygon fill="#63b8ff" stroke="#63b8ff" points="2482.07,-95.77 2491.28,-90.54 2480.82,-88.88 2482.07,-95.77"/>
</a>
</g>
</g>
<!-- Node29 -->
<g id="Node000029" class="node">
<title>Node29</title>
<g id="a_Node000029"><a xlink:href="_linux_2_supported_protocols_flags_8hpp.html" target="_top" xlink:title=" ">
<polygon fill="white" stroke="#666666" points="2834.5,-96 2661.5,-96 2661.5,-55 2834.5,-55 2834.5,-96"/>
<text text-anchor="start" x="2669.5" y="-84" font-family="Helvetica,sans-Serif" font-size="10.00">Hermes/_base/OsApi</text>
<text text-anchor="start" x="2669.5" y="-73" font-family="Helvetica,sans-Serif" font-size="10.00">/Flags/Linux/SupportedProtocols</text>
<text text-anchor="middle" x="2748" y="-62" font-family="Helvetica,sans-Serif" font-size="10.00">Flags.hpp</text>
</a>
</g>
</g>
<!-- Node12&#45;&gt;Node29 -->
<g id="edge34_Node000012_Node000029" class="edge">
<title>Node12&#45;&gt;Node29</title>
<g id="a_edge34_Node000012_Node000029"><a xlink:title=" ">
<path fill="none" stroke="#63b8ff" d="M1787.19,-145.79C1932.65,-144.64 2319.28,-137.68 2651.19,-95.99"/>
<polygon fill="#63b8ff" stroke="#63b8ff" points="2652.01,-99.41 2661.49,-94.68 2651.13,-92.47 2652.01,-99.41"/>
</a>
</g>
</g>
<!-- Node30 -->
<g id="Node000030" class="node">
<title>Node30</title>
<g id="a_Node000030"><a xlink:href="_linux_2_s_channel_cred_flags_8hpp.html" target="_top" xlink:title=" ">
<polygon fill="white" stroke="#666666" points="3047,-90.5 2853,-90.5 2853,-60.5 3047,-60.5 3047,-90.5"/>
<text text-anchor="start" x="2861" y="-78.5" font-family="Helvetica,sans-Serif" font-size="10.00">Hermes/_base/OsApi</text>
<text text-anchor="middle" x="2950" y="-67.5" font-family="Helvetica,sans-Serif" font-size="10.00">/Flags/Linux/SChannelCredFlags.hpp</text>
</a>
</g>
</g>
<!-- Node12&#45;&gt;Node30 -->
<g id="edge35_Node000012_Node000030" class="edge">
<title>Node12&#45;&gt;Node30</title>
<g id="a_edge35_Node000012_Node000030"><a xlink:title=" ">
<path fill="none" stroke="#63b8ff" d="M1787.21,-146.2C1954.04,-146.15 2441.98,-141.77 2844,-96 2852.94,-94.98 2862.27,-93.66 2871.51,-92.18"/>
<polygon fill="#63b8ff" stroke="#63b8ff" points="2872.21,-95.61 2881.5,-90.52 2871.06,-88.71 2872.21,-95.61"/>
</a>
</g>
</g>
<!-- Node18&#45;&gt;Node19 -->
<g id="edge18_Node000018_Node000019" class="edge">
<title>Node18&#45;&gt;Node19</title>
<g id="a_edge18_Node000018_Node000019"><a xlink:title=" ">
<path fill="none" stroke="#63b8ff" d="M2260.77,-60.49C2269.85,-58.49 2279.16,-56.58 2288,-55 2402.6,-34.49 2539.91,-19.96 2603.48,-13.79"/>
<polygon fill="#63b8ff" stroke="#63b8ff" points="2604.13,-17.25 2613.76,-12.81 2603.47,-10.28 2604.13,-17.25"/>
</a>
</g>
</g>
<!-- Node20&#45;&gt;Node13 -->
<g id="edge21_Node000020_Node000013" class="edge">
<title>Node20&#45;&gt;Node13</title>
<g id="a_edge21_Node000020_Node000013"><a xlink:title=" ">
<path fill="none" stroke="#63b8ff" d="M1396.74,-60.42C1389.5,-58.46 1382.07,-56.57 1375,-55 1294.99,-37.22 1200.56,-23.69 1144.62,-16.44"/>
<polygon fill="#63b8ff" stroke="#63b8ff" points="1145,-12.96 1134.64,-15.16 1144.11,-19.9 1145,-12.96"/>
</a>
</g>
</g>
<!-- Node21 -->
<g id="Node000021" class="node">
<title>Node21</title>
<g id="a_Node000021"><a xlink:title=" ">
<polygon fill="#e0e0e0" stroke="#999999" points="1479.5,-19 1406.5,-19 1406.5,0 1479.5,0 1479.5,-19"/>
<text text-anchor="middle" x="1443" y="-7" font-family="Helvetica,sans-Serif" font-size="10.00">string_view</text>
</a>
</g>
</g>
<!-- Node20&#45;&gt;Node21 -->
<g id="edge20_Node000020_Node000021" class="edge">
<title>Node20&#45;&gt;Node21</title>
<g id="a_edge20_Node000020_Node000021"><a xlink:title=" ">
<path fill="none" stroke="#63b8ff" d="M1443,-60.3C1443,-51.2 1443,-39.29 1443,-29.4"/>
<polygon fill="#63b8ff" stroke="#63b8ff" points="1446.5,-29.34 1443,-19.34 1439.5,-29.34 1446.5,-29.34"/>
</a>
</g>
</g>
<!-- Node22&#45;&gt;Node13 -->
<g id="edge23_Node000022_Node000013" class="edge">
<title>Node22&#45;&gt;Node13</title>
<g id="a_edge23_Node000022_Node000013"><a xlink:title=" ">
<path fill="none" stroke="#63b8ff" d="M941.45,-60.45C976.94,-48.98 1026.51,-32.96 1059.86,-22.18"/>
<polygon fill="#63b8ff" stroke="#63b8ff" points="1061.21,-25.42 1069.65,-19.02 1059.06,-18.76 1061.21,-25.42"/>
</a>
</g>
</g>
<!-- Node23&#45;&gt;Node14 -->
<g id="edge25_Node000023_Node000014" class="edge">
<title>Node23&#45;&gt;Node14</title>
<g id="a_edge25_Node000023_Node000014"><a xlink:title=" ">
<path fill="none" stroke="#63b8ff" d="M1640.68,-60.3C1631.42,-50.42 1619.05,-37.22 1609.37,-26.89"/>
<polygon fill="#63b8ff" stroke="#63b8ff" points="1611.68,-24.25 1602.29,-19.34 1606.58,-29.03 1611.68,-24.25"/>
</a>
</g>
</g>
<!-- Node24&#45;&gt;Node13 -->
<g id="edge27_Node000024_Node000013" class="edge">
<title>Node24&#45;&gt;Node13</title>
<g id="a_edge27_Node000024_Node000013"><a xlink:title=" ">
<path fill="none" stroke="#63b8ff" d="M1096,-60.3C1096,-51.2 1096,-39.29 1096,-29.4"/>
<polygon fill="#63b8ff" stroke="#63b8ff" points="1099.5,-29.34 1096,-19.34 1092.5,-29.34 1099.5,-29.34"/>
</a>
</g>
</g>
<!-- Node25&#45;&gt;Node13 -->
<g id="edge29_Node000025_Node000013" class="edge">
<title>Node25&#45;&gt;Node13</title>
<g id="a_edge29_Node000025_Node000013"><a xlink:title=" ">
<path fill="none" stroke="#63b8ff" d="M1244.3,-60.45C1210.4,-49.03 1163.09,-33.1 1131.1,-22.32"/>
<polygon fill="#63b8ff" stroke="#63b8ff" points="1131.88,-18.89 1121.29,-19.02 1129.65,-25.53 1131.88,-18.89"/>
</a>
</g>
</g>
<!-- Node27&#45;&gt;Node16 -->
<g id="edge32_Node000027_Node000016" class="edge">
<title>Node27&#45;&gt;Node16</title>
<g id="a_edge32_Node000027_Node000016"><a xlink:title=" ">
<path fill="none" stroke="#63b8ff" d="M1953.9,-60.3C1946.34,-50.61 1936.28,-37.74 1928.29,-27.51"/>
<polygon fill="#63b8ff" stroke="#63b8ff" points="1930.82,-25.07 1921.91,-19.34 1925.31,-29.38 1930.82,-25.07"/>
</a>
</g>
</g>
</g>
</svg>
