<?xml version="1.0" encoding="UTF-8" standalone="no"?>
<!DOCTYPE svg PUBLIC "-//W3C//DTD SVG 1.1//EN"
 "http://www.w3.org/Graphics/SVG/1.1/DTD/svg11.dtd">
<!-- Generated by graphviz version 2.43.0 (0)
 -->
<!-- Title: include/Hermes/Endpoint/IpEndpoint/IpEndpoint.hpp Pages: 1 -->
<svg width="4545pt" height="302pt"
 viewBox="0.00 0.00 4544.50 302.00" xmlns="http://www.w3.org/2000/svg" xmlns:xlink="http://www.w3.org/1999/xlink">
<g id="graph0" class="graph" transform="scale(1 1) rotate(0) translate(4 298)">
<title>include/Hermes/Endpoint/IpEndpoint/IpEndpoint.hpp</title>
<!-- Node1 -->
<g id="Node000001" class="node">
<title>Node1</title>
<g id="a_Node000001"><a xlink:title=" ">
<polygon fill="#999999" stroke="#666666" points="4123,-294 3976,-294 3976,-264 4123,-264 4123,-294"/>
<text text-anchor="start" x="3984" y="-282" font-family="Helvetica,sans-Serif" font-size="10.00">include/Hermes/Endpoint</text>
<text text-anchor="middle" x="4049.5" y="-271" font-family="Helvetica,sans-Serif" font-size="10.00">/IpEndpoint/IpEndpoint.hpp</text>
</a>
</g>
</g>
<!-- Node2 -->
<g id="Node000002" class="node">
<title>Node2</title>
<g id="a_Node000002"><a xlink:href="_endpoint_concept_8hpp.html" target="_top" xlink:title=" ">
<polygon fill="white" stroke="#666666" points="3825.5,-228 3693.5,-228 3693.5,-198 3825.5,-198 3825.5,-228"/>
<text text-anchor="start" x="3701.5" y="-216" font-family="Helvetica,sans-Serif" font-size="10.00">Hermes/Endpoint/_base</text>
<text text-anchor="middle" x="3759.5" y="-205" font-family="Helvetica,sans-Serif" font-size="10.00">/EndpointConcept.hpp</text>
</a>
</g>
</g>
<!-- Node1&#45;&gt;Node2 -->
<g id="edge1_Node000001_Node000002" class="edge">
<title>Node1&#45;&gt;Node2</title>
<g id="a_edge1_Node000001_Node000002"><a xlink:title=" ">
<path fill="none" stroke="#63b8ff" d="M3985.86,-263.95C3940.72,-253.99 3880.02,-240.6 3832.84,-230.19"/>
<polygon fill="#63b8ff" stroke="#63b8ff" points="3833.51,-226.75 3822.99,-228.01 3832,-233.59 3833.51,-226.75"/>
</a>
</g>
</g>
<!-- Node38 -->
<g id="Node000038" class="node">
<title>Node38</title>
<g id="a_Node000038"><a xlink:href="_ip_address_8hpp.html" target="_top" xlink:title=" ">
<polygon fill="white" stroke="#666666" points="4198,-228 4043,-228 4043,-198 4198,-198 4198,-228"/>
<text text-anchor="start" x="4051" y="-216" font-family="Helvetica,sans-Serif" font-size="10.00">Hermes/Endpoint/IpEndpoint</text>
<text text-anchor="middle" x="4120.5" y="-205" font-family="Helvetica,sans-Serif" font-size="10.00">/IpAddress.hpp</text>
</a>
</g>
</g>
<!-- Node1&#45;&gt;Node38 -->
<g id="edge52_Node000001_Node000038" class="edge">
<title>Node1&#45;&gt;Node38</title>
<g id="a_edge52_Node000001_Node000038"><a xlink:title=" ">
<path fill="none" stroke="#63b8ff" d="M4065.26,-263.8C4074.63,-255.34 4086.7,-244.46 4097.17,-235.03"/>
<polygon fill="#63b8ff" stroke="#63b8ff" points="4099.7,-237.46 4104.79,-228.16 4095.02,-232.26 4099.7,-237.46"/>
</a>
</g>
</g>
<!-- Node39 -->
<g id="Node000039" class="node">
<title>Node39</title>
<g id="a_Node000039"><a xlink:href="_hash_8hpp.html" target="_top" xlink:title=" ">
<polygon fill="white" stroke="#666666" points="4052,-156.5 3923,-156.5 3923,-137.5 4052,-137.5 4052,-156.5"/>
<text text-anchor="middle" x="3987.5" y="-144.5" font-family="Helvetica,sans-Serif" font-size="10.00">Hermes/Utils/Hash.hpp</text>
</a>
</g>
</g>
<!-- Node1&#45;&gt;Node39 -->
<g id="edge62_Node000001_Node000039" class="edge">
<title>Node1&#45;&gt;Node39</title>
<g id="a_edge62_Node000001_Node000039"><a xlink:title=" ">
<path fill="none" stroke="#63b8ff" d="M4042.75,-263.84C4031.39,-240.02 4008.48,-191.99 3996.03,-165.88"/>
<polygon fill="#63b8ff" stroke="#63b8ff" points="3999.14,-164.27 3991.67,-156.75 3992.82,-167.28 3999.14,-164.27"/>
</a>
</g>
</g>
<!-- Node42 -->
<g id="Node000042" class="node">
<title>Node42</title>
<g id="a_Node000042"><a xlink:title=" ">
<polygon fill="#e0e0e0" stroke="#999999" points="3904.5,-156.5 3860.5,-156.5 3860.5,-137.5 3904.5,-137.5 3904.5,-156.5"/>
<text text-anchor="middle" x="3882.5" y="-144.5" font-family="Helvetica,sans-Serif" font-size="10.00">string</text>
</a>
</g>
</g>
<!-- Node1&#45;&gt;Node42 -->
<g id="edge64_Node000001_Node000042" class="edge">
<title>Node1&#45;&gt;Node42</title>
<g id="a_edge64_Node000001_Node000042"><a xlink:title=" ">
<path fill="none" stroke="#63b8ff" d="M4031.31,-263.84C3999.63,-239.18 3934.6,-188.56 3902.01,-163.19"/>
<polygon fill="#63b8ff" stroke="#63b8ff" points="3903.78,-160.13 3893.74,-156.75 3899.48,-165.65 3903.78,-160.13"/>
</a>
</g>
</g>
<!-- Node44 -->
<g id="Node000044" class="node">
<title>Node44</title>
<g id="a_Node000044"><a xlink:title=" ">
<polygon fill="#e0e0e0" stroke="#999999" points="4536.5,-156.5 4480.5,-156.5 4480.5,-137.5 4536.5,-137.5 4536.5,-156.5"/>
<text text-anchor="middle" x="4508.5" y="-144.5" font-family="Helvetica,sans-Serif" font-size="10.00">optional</text>
</a>
</g>
</g>
<!-- Node1&#45;&gt;Node44 -->
<g id="edge63_Node000001_Node000044" class="edge">
<title>Node1&#45;&gt;Node44</title>
<g id="a_edge63_Node000001_Node000044"><a xlink:title=" ">
<path fill="none" stroke="#63b8ff" d="M4110.74,-263.98C4140.87,-255.76 4177.15,-243.84 4207.5,-228 4226.89,-217.88 4226.42,-206.66 4246.5,-198 4339.49,-157.89 4373.64,-188.05 4471.5,-162 4473.8,-161.39 4476.15,-160.69 4478.5,-159.93"/>
<polygon fill="#63b8ff" stroke="#63b8ff" points="4479.72,-163.21 4488,-156.6 4477.4,-156.6 4479.72,-163.21"/>
</a>
</g>
</g>
<!-- Node47 -->
<g id="Node000047" class="node">
<title>Node47</title>
<g id="a_Node000047"><a xlink:title=" ">
<polygon fill="#e0e0e0" stroke="#999999" points="4410,-228 4255,-228 4255,-198 4410,-198 4410,-228"/>
<text text-anchor="start" x="4263" y="-216" font-family="Helvetica,sans-Serif" font-size="10.00">Hermes/Endpoint/IpEndpoint</text>
<text text-anchor="middle" x="4332.5" y="-205" font-family="Helvetica,sans-Serif" font-size="10.00">/IpEndpoint.tpp</text>
</a>
</g>
</g>
<!-- Node1&#45;&gt;Node47 -->
<g id="edge65_Node000001_Node000047" class="edge">
<title>Node1&#45;&gt;Node47</title>
<g id="a_edge65_Node000001_Node000047"><a xlink:title=" ">
<path fill="none" stroke="#63b8ff" d="M4111.61,-263.95C4155.56,-254.01 4214.64,-240.65 4260.64,-230.25"/>
<polygon fill="#63b8ff" stroke="#63b8ff" points="4261.56,-233.63 4270.54,-228.01 4260.01,-226.8 4261.56,-233.63"/>
</a>
</g>
</g>
<!-- Node3 -->
<g id="Node000003" class="node">
<title>Node3</title>
<g id="a_Node000003"><a xlink:href="_connection_error_enum_8hpp.html" target="_top" xlink:title=" ">
<polygon fill="white" stroke="#666666" points="3843,-162 3676,-162 3676,-132 3843,-132 3843,-162"/>
<text text-anchor="start" x="3684" y="-150" font-family="Helvetica,sans-Serif" font-size="10.00">Hermes/_base/ConnectionError</text>
<text text-anchor="middle" x="3759.5" y="-139" font-family="Helvetica,sans-Serif" font-size="10.00">Enum.hpp</text>
</a>
</g>
</g>
<!-- Node2&#45;&gt;Node3 -->
<g id="edge2_Node000002_Node000003" class="edge">
<title>Node2&#45;&gt;Node3</title>
<g id="a_edge2_Node000002_Node000003"><a xlink:title=" ">
<path fill="none" stroke="#63b8ff" d="M3759.5,-197.8C3759.5,-190.34 3759.5,-180.99 3759.5,-172.41"/>
<polygon fill="#63b8ff" stroke="#63b8ff" points="3763,-172.16 3759.5,-162.16 3756,-172.16 3763,-172.16"/>
</a>
</g>
</g>
<!-- Node11 -->
<g id="Node000011" class="node">
<title>Node11</title>
<g id="a_Node000011"><a xlink:href="_win_api_8hpp.html" target="_top" xlink:title=" ">
<polygon fill="white" stroke="#666666" points="1953.5,-162 1829.5,-162 1829.5,-132 1953.5,-132 1953.5,-162"/>
<text text-anchor="start" x="1837.5" y="-150" font-family="Helvetica,sans-Serif" font-size="10.00">Hermes/_base/WinApi</text>
<text text-anchor="middle" x="1891.5" y="-139" font-family="Helvetica,sans-Serif" font-size="10.00">/WinApi.hpp</text>
</a>
</g>
</g>
<!-- Node2&#45;&gt;Node11 -->
<g id="edge10_Node000002_Node000011" class="edge">
<title>Node2&#45;&gt;Node11</title>
<g id="a_edge10_Node000002_Node000011"><a xlink:title=" ">
<path fill="none" stroke="#63b8ff" d="M3693.29,-209.73C3405.52,-199.87 2264.41,-160.78 1964.19,-150.49"/>
<polygon fill="#63b8ff" stroke="#63b8ff" points="1963.98,-146.98 1953.87,-150.14 1963.74,-153.98 1963.98,-146.98"/>
</a>
</g>
</g>
<!-- Node4 -->
<g id="Node000004" class="node">
<title>Node4</title>
<g id="a_Node000004"><a xlink:title=" ">
<polygon fill="#e0e0e0" stroke="#999999" points="3736.5,-85 3674.5,-85 3674.5,-66 3736.5,-66 3736.5,-85"/>
<text text-anchor="middle" x="3705.5" y="-73" font-family="Helvetica,sans-Serif" font-size="10.00">expected</text>
</a>
</g>
</g>
<!-- Node3&#45;&gt;Node4 -->
<g id="edge3_Node000003_Node000004" class="edge">
<title>Node3&#45;&gt;Node4</title>
<g id="a_edge3_Node000003_Node000004"><a xlink:title=" ">
<path fill="none" stroke="#63b8ff" d="M3748.57,-131.94C3739.93,-120.81 3727.83,-105.24 3718.65,-93.43"/>
<polygon fill="#63b8ff" stroke="#63b8ff" points="3721.21,-91.02 3712.31,-85.27 3715.68,-95.31 3721.21,-91.02"/>
</a>
</g>
</g>
<!-- Node5 -->
<g id="Node000005" class="node">
<title>Node5</title>
<g id="a_Node000005"><a xlink:title=" ">
<polygon fill="#e0e0e0" stroke="#999999" points="4090,-85 4043,-85 4043,-66 4090,-66 4090,-85"/>
<text text-anchor="middle" x="4066.5" y="-73" font-family="Helvetica,sans-Serif" font-size="10.00">vector</text>
</a>
</g>
</g>
<!-- Node3&#45;&gt;Node5 -->
<g id="edge4_Node000003_Node000005" class="edge">
<title>Node3&#45;&gt;Node5</title>
<g id="a_edge4_Node000003_Node000005"><a xlink:title=" ">
<path fill="none" stroke="#63b8ff" d="M3843.08,-132.39C3917.3,-120.04 4016.7,-102.77 4034.5,-96 4038.42,-94.51 4042.4,-92.53 4046.16,-90.4"/>
<polygon fill="#63b8ff" stroke="#63b8ff" points="4048.22,-93.24 4054.88,-85.01 4044.54,-87.29 4048.22,-93.24"/>
</a>
</g>
</g>
<!-- Node6 -->
<g id="Node000006" class="node">
<title>Node6</title>
<g id="a_Node000006"><a xlink:title=" ">
<polygon fill="#e0e0e0" stroke="#999999" points="3794.5,-85 3754.5,-85 3754.5,-66 3794.5,-66 3794.5,-85"/>
<text text-anchor="middle" x="3774.5" y="-73" font-family="Helvetica,sans-Serif" font-size="10.00">span</text>
</a>
</g>
</g>
<!-- Node3&#45;&gt;Node6 -->
<g id="edge5_Node000003_Node000006" class="edge">
<title>Node3&#45;&gt;Node6</title>
<g id="a_edge5_Node000003_Node000006"><a xlink:title=" ">
<path fill="none" stroke="#63b8ff" d="M3762.54,-131.94C3764.82,-121.36 3767.97,-106.75 3770.47,-95.19"/>
<polygon fill="#63b8ff" stroke="#63b8ff" points="3773.92,-95.78 3772.61,-85.27 3767.08,-94.3 3773.92,-95.78"/>
</a>
</g>
</g>
<!-- Node7 -->
<g id="Node000007" class="node">
<title>Node7</title>
<g id="a_Node000007"><a xlink:title=" ">
<polygon fill="#e0e0e0" stroke="#999999" points="3882,-85 3813,-85 3813,-66 3882,-66 3882,-85"/>
<text text-anchor="middle" x="3847.5" y="-73" font-family="Helvetica,sans-Serif" font-size="10.00">type_traits</text>
</a>
</g>
</g>
<!-- Node3&#45;&gt;Node7 -->
<g id="edge6_Node000003_Node000007" class="edge">
<title>Node3&#45;&gt;Node7</title>
<g id="a_edge6_Node000003_Node000007"><a xlink:title=" ">
<path fill="none" stroke="#63b8ff" d="M3777.31,-131.94C3792.09,-120.26 3813.06,-103.7 3828.23,-91.72"/>
<polygon fill="#63b8ff" stroke="#63b8ff" points="3830.72,-94.21 3836.4,-85.27 3826.38,-88.72 3830.72,-94.21"/>
</a>
</g>
</g>
<!-- Node8 -->
<g id="Node000008" class="node">
<title>Node8</title>
<g id="a_Node000008"><a xlink:title=" ">
<polygon fill="#e0e0e0" stroke="#999999" points="4025,-85 3900,-85 3900,-66 4025,-66 4025,-85"/>
<text text-anchor="middle" x="3962.5" y="-73" font-family="Helvetica,sans-Serif" font-size="10.00">stdexec/execution.hpp</text>
</a>
</g>
</g>
<!-- Node3&#45;&gt;Node8 -->
<g id="edge7_Node000003_Node000008" class="edge">
<title>Node3&#45;&gt;Node8</title>
<g id="a_edge7_Node000003_Node000008"><a xlink:title=" ">
<path fill="none" stroke="#63b8ff" d="M3800.58,-131.94C3837.91,-119.16 3892.38,-100.51 3927.63,-88.44"/>
<polygon fill="#63b8ff" stroke="#63b8ff" points="3929.15,-91.62 3937.47,-85.07 3926.88,-85 3929.15,-91.62"/>
</a>
</g>
</g>
<!-- Node9 -->
<g id="Node000009" class="node">
<title>Node9</title>
<g id="a_Node000009"><a xlink:title=" ">
<polygon fill="#e0e0e0" stroke="#999999" points="3471.5,-85 3337.5,-85 3337.5,-66 3471.5,-66 3471.5,-85"/>
<text text-anchor="middle" x="3404.5" y="-73" font-family="Helvetica,sans-Serif" font-size="10.00">exec/any_sender_of.hpp</text>
</a>
</g>
</g>
<!-- Node3&#45;&gt;Node9 -->
<g id="edge8_Node000003_Node000009" class="edge">
<title>Node3&#45;&gt;Node9</title>
<g id="a_edge8_Node000003_Node000009"><a xlink:title=" ">
<path fill="none" stroke="#63b8ff" d="M3675.87,-132.53C3620.52,-123.23 3546.45,-110.05 3481.5,-96 3469.93,-93.5 3457.46,-90.48 3445.99,-87.58"/>
<polygon fill="#63b8ff" stroke="#63b8ff" points="3446.78,-84.16 3436.23,-85.07 3445.04,-90.94 3446.78,-84.16"/>
</a>
</g>
</g>
<!-- Node10 -->
<g id="Node000010" class="node">
<title>Node10</title>
<g id="a_Node000010"><a xlink:title=" ">
<polygon fill="#e0e0e0" stroke="#999999" points="3657,-90.5 3490,-90.5 3490,-60.5 3657,-60.5 3657,-90.5"/>
<text text-anchor="start" x="3498" y="-78.5" font-family="Helvetica,sans-Serif" font-size="10.00">Hermes/_base/ConnectionError</text>
<text text-anchor="middle" x="3573.5" y="-67.5" font-family="Helvetica,sans-Serif" font-size="10.00">Enum.tpp</text>
</a>
</g>
</g>
<!-- Node3&#45;&gt;Node10 -->
<g id="edge9_Node000003_Node000010" class="edge">
<title>Node3&#45;&gt;Node10</title>
<g id="a_edge9_Node000003_Node000010"><a xlink:title=" ">
<path fill="none" stroke="#63b8ff" d="M3721.86,-131.94C3692.62,-121.01 3651.89,-105.79 3620.5,-94.06"/>
<polygon fill="#63b8ff" stroke="#63b8ff" points="3621.68,-90.77 3611.08,-90.54 3619.23,-97.32 3621.68,-90.77"/>
</a>
</g>
</g>
<!-- Node12 -->
<g id="Node000012" class="node">
<title>Node12</title>
<g id="a_Node000012"><a xlink:title=" ">
<polygon fill="#e0e0e0" stroke="#999999" points="2142,-85 2073,-85 2073,-66 2142,-66 2142,-85"/>
<text text-anchor="middle" x="2107.5" y="-73" font-family="Helvetica,sans-Serif" font-size="10.00">ws2tcpip.h</text>
</a>
</g>
</g>
<!-- Node11&#45;&gt;Node12 -->
<g id="edge11_Node000011_Node000012" class="edge">
<title>Node11&#45;&gt;Node12</title>
<g id="a_edge11_Node000011_Node000012"><a xlink:title=" ">
<path fill="none" stroke="#63b8ff" d="M1947.87,-131.92C1982.02,-122.84 2026.22,-110.13 2064.5,-96 2069.88,-94.01 2075.54,-91.66 2080.91,-89.28"/>
<polygon fill="#63b8ff" stroke="#63b8ff" points="2082.52,-92.39 2090.17,-85.05 2079.61,-86.02 2082.52,-92.39"/>
</a>
</g>
</g>
<!-- Node13 -->
<g id="Node000013" class="node">
<title>Node13</title>
<g id="a_Node000013"><a xlink:title=" ">
<polygon fill="#e0e0e0" stroke="#999999" points="2609,-19 2538,-19 2538,0 2609,0 2609,-19"/>
<text text-anchor="middle" x="2573.5" y="-7" font-family="Helvetica,sans-Serif" font-size="10.00">winsock2.h</text>
</a>
</g>
</g>
<!-- Node11&#45;&gt;Node13 -->
<g id="edge12_Node000011_Node000013" class="edge">
<title>Node11&#45;&gt;Node13</title>
<g id="a_edge12_Node000011_Node000013"><a xlink:title=" ">
<path fill="none" stroke="#63b8ff" d="M1953.77,-145.46C2110.07,-143.52 2509.7,-134.8 2554.5,-96 2573.33,-79.69 2575.84,-49.24 2575.21,-29.42"/>
<polygon fill="#63b8ff" stroke="#63b8ff" points="2578.68,-28.94 2574.57,-19.17 2571.7,-29.37 2578.68,-28.94"/>
</a>
</g>
</g>
<!-- Node14 -->
<g id="Node000014" class="node">
<title>Node14</title>
<g id="a_Node000014"><a xlink:title=" ">
<polygon fill="#e0e0e0" stroke="#999999" points="3038,-19 2969,-19 2969,0 3038,0 3038,-19"/>
<text text-anchor="middle" x="3003.5" y="-7" font-family="Helvetica,sans-Serif" font-size="10.00">schannel.h</text>
</a>
</g>
</g>
<!-- Node11&#45;&gt;Node14 -->
<g id="edge13_Node000011_Node000014" class="edge">
<title>Node11&#45;&gt;Node14</title>
<g id="a_edge13_Node000011_Node000014"><a xlink:title=" ">
<path fill="none" stroke="#63b8ff" d="M1953.79,-146.15C2219.11,-146.51 3243.51,-144.7 3290.5,-96 3362.86,-21.01 3145.95,-11.03 3048.4,-10.24"/>
<polygon fill="#63b8ff" stroke="#63b8ff" points="3048.25,-6.74 3038.24,-10.18 3048.22,-13.74 3048.25,-6.74"/>
</a>
</g>
</g>
<!-- Node15 -->
<g id="Node000015" class="node">
<title>Node15</title>
<g id="a_Node000015"><a xlink:title=" ">
<polygon fill="#e0e0e0" stroke="#999999" points="1321,-19 1276,-19 1276,0 1321,0 1321,-19"/>
<text text-anchor="middle" x="1298.5" y="-7" font-family="Helvetica,sans-Serif" font-size="10.00">sspi.h</text>
</a>
</g>
</g>
<!-- Node11&#45;&gt;Node15 -->
<g id="edge14_Node000011_Node000015" class="edge">
<title>Node11&#45;&gt;Node15</title>
<g id="a_edge14_Node000011_Node000015"><a xlink:title=" ">
<path fill="none" stroke="#63b8ff" d="M1829.35,-142.85C1736.82,-137.31 1568.01,-123.69 1514.5,-96 1492.44,-84.58 1497.88,-67.65 1476.5,-55 1430.71,-27.91 1368.91,-17.23 1331.47,-13.07"/>
<polygon fill="#63b8ff" stroke="#63b8ff" points="1331.44,-9.55 1321.14,-12.03 1330.73,-16.52 1331.44,-9.55"/>
</a>
</g>
</g>
<!-- Node16 -->
<g id="Node000016" class="node">
<title>Node16</title>
<g id="a_Node000016"><a xlink:href="_conversion_and_literals_8hpp.html" target="_top" xlink:title=" ">
<polygon fill="white" stroke="#666666" points="2055.5,-90.5 1905.5,-90.5 1905.5,-60.5 2055.5,-60.5 2055.5,-90.5"/>
<text text-anchor="start" x="1913.5" y="-78.5" font-family="Helvetica,sans-Serif" font-size="10.00">Hermes/_base/WinApi</text>
<text text-anchor="middle" x="1980.5" y="-67.5" font-family="Helvetica,sans-Serif" font-size="10.00">/ConversionAndLiterals.hpp</text>
</a>
</g>
</g>
<!-- Node11&#45;&gt;Node16 -->
<g id="edge15_Node000011_Node000016" class="edge">
<title>Node11&#45;&gt;Node16</title>
<g id="a_edge15_Node000011_Node000016"><a xlink:title=" ">
<path fill="none" stroke="#63b8ff" d="M1909.51,-131.94C1922.42,-121.86 1940,-108.13 1954.44,-96.85"/>
<polygon fill="#63b8ff" stroke="#63b8ff" points="1956.79,-99.46 1962.52,-90.54 1952.48,-93.94 1956.79,-99.46"/>
</a>
</g>
</g>
<!-- Node18 -->
<g id="Node000018" class="node">
<title>Node18</title>
<g id="a_Node000018"><a xlink:href="_macros_8hpp.html" target="_top" xlink:title=" ">
<polygon fill="white" stroke="#666666" points="2725.5,-90.5 2601.5,-90.5 2601.5,-60.5 2725.5,-60.5 2725.5,-90.5"/>
<text text-anchor="start" x="2609.5" y="-78.5" font-family="Helvetica,sans-Serif" font-size="10.00">Hermes/_base/WinApi</text>
<text text-anchor="middle" x="2663.5" y="-67.5" font-family="Helvetica,sans-Serif" font-size="10.00">/Macros.hpp</text>
</a>
</g>
</g>
<!-- Node11&#45;&gt;Node18 -->
<g id="edge17_Node000011_Node000018" class="edge">
<title>Node11&#45;&gt;Node18</title>
<g id="a_edge17_Node000011_Node000018"><a xlink:title=" ">
<path fill="none" stroke="#63b8ff" d="M1953.85,-145.26C2076.17,-142.99 2355.83,-133.73 2587.5,-96 2592.88,-95.12 2598.43,-94.05 2603.97,-92.85"/>
<polygon fill="#63b8ff" stroke="#63b8ff" points="2604.92,-96.22 2613.9,-90.59 2603.37,-89.4 2604.92,-96.22"/>
</a>
</g>
</g>
<!-- Node20 -->
<g id="Node000020" class="node">
<title>Node20</title>
<g id="a_Node000020"><a xlink:href="_address_family_enum_8hpp.html" target="_top" xlink:title=" ">
<polygon fill="white" stroke="#666666" points="2545.5,-90.5 2369.5,-90.5 2369.5,-60.5 2545.5,-60.5 2545.5,-90.5"/>
<text text-anchor="start" x="2377.5" y="-78.5" font-family="Helvetica,sans-Serif" font-size="10.00">Hermes/_base/WinApi</text>
<text text-anchor="middle" x="2457.5" y="-67.5" font-family="Helvetica,sans-Serif" font-size="10.00">/Enums/AddressFamilyEnum.hpp</text>
</a>
</g>
</g>
<!-- Node11&#45;&gt;Node20 -->
<g id="edge22_Node000011_Node000020" class="edge">
<title>Node11&#45;&gt;Node20</title>
<g id="a_edge22_Node000011_Node000020"><a xlink:title=" ">
<path fill="none" stroke="#63b8ff" d="M1953.57,-141.22C2043.57,-133.87 2215.42,-118.27 2360.5,-96 2367.5,-94.93 2374.77,-93.69 2382.03,-92.37"/>
<polygon fill="#63b8ff" stroke="#63b8ff" points="2382.71,-95.81 2391.9,-90.54 2381.43,-88.93 2382.71,-95.81"/>
</a>
</g>
</g>
<!-- Node22 -->
<g id="Node000022" class="node">
<title>Node22</title>
<g id="a_Node000022"><a xlink:href="_condition_function_enum_8hpp.html" target="_top" xlink:title=" ">
<polygon fill="white" stroke="#666666" points="572.5,-90.5 380.5,-90.5 380.5,-60.5 572.5,-60.5 572.5,-90.5"/>
<text text-anchor="start" x="388.5" y="-78.5" font-family="Helvetica,sans-Serif" font-size="10.00">Hermes/_base/WinApi</text>
<text text-anchor="middle" x="476.5" y="-67.5" font-family="Helvetica,sans-Serif" font-size="10.00">/Enums/ConditionFunctionEnum.hpp</text>
</a>
</g>
</g>
<!-- Node11&#45;&gt;Node22 -->
<g id="edge24_Node000011_Node000022" class="edge">
<title>Node11&#45;&gt;Node22</title>
<g id="a_edge24_Node000011_Node000022"><a xlink:title=" ">
<path fill="none" stroke="#63b8ff" d="M1829.39,-144.83C1603.76,-140.39 827.91,-123.44 581.5,-96 572.57,-95.01 563.26,-93.69 554.03,-92.21"/>
<polygon fill="#63b8ff" stroke="#63b8ff" points="554.5,-88.74 544.06,-90.54 553.35,-95.64 554.5,-88.74"/>
</a>
</g>
</g>
<!-- Node24 -->
<g id="Node000024" class="node">
<title>Node24</title>
<g id="a_Node000024"><a xlink:href="_encrypt_status_enum_8hpp.html" target="_top" xlink:title=" ">
<polygon fill="white" stroke="#666666" points="1887.5,-90.5 1715.5,-90.5 1715.5,-60.5 1887.5,-60.5 1887.5,-90.5"/>
<text text-anchor="start" x="1723.5" y="-78.5" font-family="Helvetica,sans-Serif" font-size="10.00">Hermes/_base/WinApi</text>
<text text-anchor="middle" x="1801.5" y="-67.5" font-family="Helvetica,sans-Serif" font-size="10.00">/Enums/EncryptStatusEnum.hpp</text>
</a>
</g>
</g>
<!-- Node11&#45;&gt;Node24 -->
<g id="edge26_Node000011_Node000024" class="edge">
<title>Node11&#45;&gt;Node24</title>
<g id="a_edge26_Node000011_Node000024"><a xlink:title=" ">
<path fill="none" stroke="#63b8ff" d="M1873.29,-131.94C1860.23,-121.86 1842.45,-108.13 1827.85,-96.85"/>
<polygon fill="#63b8ff" stroke="#63b8ff" points="1829.74,-93.89 1819.69,-90.54 1825.46,-99.43 1829.74,-93.89"/>
</a>
</g>
</g>
<!-- Node26 -->
<g id="Node000026" class="node">
<title>Node26</title>
<g id="a_Node000026"><a xlink:href="_protocol_base_type_enum_8hpp.html" target="_top" xlink:title=" ">
<polygon fill="white" stroke="#666666" points="2351,-90.5 2160,-90.5 2160,-60.5 2351,-60.5 2351,-90.5"/>
<text text-anchor="start" x="2168" y="-78.5" font-family="Helvetica,sans-Serif" font-size="10.00">Hermes/_base/WinApi</text>
<text text-anchor="middle" x="2255.5" y="-67.5" font-family="Helvetica,sans-Serif" font-size="10.00">/Enums/ProtocolBaseTypeEnum.hpp</text>
</a>
</g>
</g>
<!-- Node11&#45;&gt;Node26 -->
<g id="edge28_Node000011_Node000026" class="edge">
<title>Node11&#45;&gt;Node26</title>
<g id="a_edge28_Node000011_Node000026"><a xlink:title=" ">
<path fill="none" stroke="#63b8ff" d="M1953.66,-134.13C2013.82,-122.64 2105.44,-105.15 2171.95,-92.45"/>
<polygon fill="#63b8ff" stroke="#63b8ff" points="2172.82,-95.85 2181.99,-90.54 2171.51,-88.97 2172.82,-95.85"/>
</a>
</g>
</g>
<!-- Node27 -->
<g id="Node000027" class="node">
<title>Node27</title>
<g id="a_Node000027"><a xlink:href="_s_ch_cred_enum_8hpp.html" target="_top" xlink:title=" ">
<polygon fill="white" stroke="#666666" points="2889.5,-90.5 2743.5,-90.5 2743.5,-60.5 2889.5,-60.5 2889.5,-90.5"/>
<text text-anchor="start" x="2751.5" y="-78.5" font-family="Helvetica,sans-Serif" font-size="10.00">Hermes/_base/WinApi</text>
<text text-anchor="middle" x="2816.5" y="-67.5" font-family="Helvetica,sans-Serif" font-size="10.00">/Enums/SChCredEnum.hpp</text>
</a>
</g>
</g>
<!-- Node11&#45;&gt;Node27 -->
<g id="edge30_Node000011_Node000027" class="edge">
<title>Node11&#45;&gt;Node27</title>
<g id="a_edge30_Node000011_Node000027"><a xlink:title=" ">
<path fill="none" stroke="#63b8ff" d="M1953.75,-146C2093.94,-145.21 2444.77,-138.71 2734.5,-96 2740.68,-95.09 2747.07,-93.94 2753.44,-92.66"/>
<polygon fill="#63b8ff" stroke="#63b8ff" points="2754.33,-96.05 2763.39,-90.55 2752.88,-89.2 2754.33,-96.05"/>
</a>
</g>
</g>
<!-- Node28 -->
<g id="Node000028" class="node">
<title>Node28</title>
<g id="a_Node000028"><a xlink:href="_security_buffer_enum_8hpp.html" target="_top" xlink:title=" ">
<polygon fill="white" stroke="#666666" points="1697,-90.5 1524,-90.5 1524,-60.5 1697,-60.5 1697,-90.5"/>
<text text-anchor="start" x="1532" y="-78.5" font-family="Helvetica,sans-Serif" font-size="10.00">Hermes/_base/WinApi</text>
<text text-anchor="middle" x="1610.5" y="-67.5" font-family="Helvetica,sans-Serif" font-size="10.00">/Enums/SecurityBufferEnum.hpp</text>
</a>
</g>
</g>
<!-- Node11&#45;&gt;Node28 -->
<g id="edge32_Node000011_Node000028" class="edge">
<title>Node11&#45;&gt;Node28</title>
<g id="a_edge32_Node000011_Node000028"><a xlink:title=" ">
<path fill="none" stroke="#63b8ff" d="M1834.64,-131.94C1789.12,-120.68 1725.19,-104.87 1677.25,-93.01"/>
<polygon fill="#63b8ff" stroke="#63b8ff" points="1677.83,-89.55 1667.28,-90.54 1676.15,-96.34 1677.83,-89.55"/>
</a>
</g>
</g>
<!-- Node29 -->
<g id="Node000029" class="node">
<title>Node29</title>
<g id="a_Node000029"><a xlink:href="_socket_shutdown_enum_8hpp.html" target="_top" xlink:title=" ">
<polygon fill="white" stroke="#666666" points="185,-90.5 0,-90.5 0,-60.5 185,-60.5 185,-90.5"/>
<text text-anchor="start" x="8" y="-78.5" font-family="Helvetica,sans-Serif" font-size="10.00">Hermes/_base/WinApi</text>
<text text-anchor="middle" x="92.5" y="-67.5" font-family="Helvetica,sans-Serif" font-size="10.00">/Enums/SocketShutdownEnum.hpp</text>
</a>
</g>
</g>
<!-- Node11&#45;&gt;Node29 -->
<g id="edge34_Node000011_Node000029" class="edge">
<title>Node11&#45;&gt;Node29</title>
<g id="a_edge34_Node000011_Node000029"><a xlink:title=" ">
<path fill="none" stroke="#63b8ff" d="M1829.08,-145.51C1562.7,-143.22 519.8,-132.06 193.5,-96 184.86,-95.04 175.85,-93.75 166.93,-92.27"/>
<polygon fill="#63b8ff" stroke="#63b8ff" points="167.37,-88.8 156.92,-90.54 166.18,-95.7 167.37,-88.8"/>
</a>
</g>
</g>
<!-- Node30 -->
<g id="Node000030" class="node">
<title>Node30</title>
<g id="a_Node000030"><a xlink:href="_socket_type_enum_8hpp.html" target="_top" xlink:title=" ">
<polygon fill="white" stroke="#666666" points="362,-90.5 203,-90.5 203,-60.5 362,-60.5 362,-90.5"/>
<text text-anchor="start" x="211" y="-78.5" font-family="Helvetica,sans-Serif" font-size="10.00">Hermes/_base/WinApi</text>
<text text-anchor="middle" x="282.5" y="-67.5" font-family="Helvetica,sans-Serif" font-size="10.00">/Enums/SocketTypeEnum.hpp</text>
</a>
</g>
</g>
<!-- Node11&#45;&gt;Node30 -->
<g id="edge36_Node000011_Node000030" class="edge">
<title>Node11&#45;&gt;Node30</title>
<g id="a_edge36_Node000011_Node000030"><a xlink:title=" ">
<path fill="none" stroke="#63b8ff" d="M1829.43,-145.47C1581.36,-143.13 660.68,-132.13 371.5,-96 364.19,-95.09 356.59,-93.86 349.05,-92.46"/>
<polygon fill="#63b8ff" stroke="#63b8ff" points="349.69,-89.02 339.21,-90.54 348.35,-95.89 349.69,-89.02"/>
</a>
</g>
</g>
<!-- Node31 -->
<g id="Node000031" class="node">
<title>Node31</title>
<g id="a_Node000031"><a xlink:href="_credential_flags_8hpp.html" target="_top" xlink:title=" ">
<polygon fill="white" stroke="#666666" points="736.5,-90.5 590.5,-90.5 590.5,-60.5 736.5,-60.5 736.5,-90.5"/>
<text text-anchor="start" x="598.5" y="-78.5" font-family="Helvetica,sans-Serif" font-size="10.00">Hermes/_base/WinApi</text>
<text text-anchor="middle" x="663.5" y="-67.5" font-family="Helvetica,sans-Serif" font-size="10.00">/Flags/CredentialFlags.hpp</text>
</a>
</g>
</g>
<!-- Node11&#45;&gt;Node31 -->
<g id="edge38_Node000011_Node000031" class="edge">
<title>Node11&#45;&gt;Node31</title>
<g id="a_edge38_Node000011_Node000031"><a xlink:title=" ">
<path fill="none" stroke="#63b8ff" d="M1829.41,-144.85C1622.51,-140.75 957.66,-125.58 745.5,-96 739.22,-95.12 732.72,-93.99 726.25,-92.7"/>
<polygon fill="#63b8ff" stroke="#63b8ff" points="726.66,-89.21 716.15,-90.58 725.22,-96.06 726.66,-89.21"/>
</a>
</g>
</g>
<!-- Node32 -->
<g id="Node000032" class="node">
<title>Node32</title>
<g id="a_Node000032"><a xlink:href="_supported_protocols_flags_8hpp.html" target="_top" xlink:title=" ">
<polygon fill="white" stroke="#666666" points="3099,-90.5 2908,-90.5 2908,-60.5 3099,-60.5 3099,-90.5"/>
<text text-anchor="start" x="2916" y="-78.5" font-family="Helvetica,sans-Serif" font-size="10.00">Hermes/_base/WinApi</text>
<text text-anchor="middle" x="3003.5" y="-67.5" font-family="Helvetica,sans-Serif" font-size="10.00">/Flags/SupportedProtocolsFlags.hpp</text>
</a>
</g>
</g>
<!-- Node11&#45;&gt;Node32 -->
<g id="edge40_Node000011_Node000032" class="edge">
<title>Node11&#45;&gt;Node32</title>
<g id="a_edge40_Node000011_Node000032"><a xlink:title=" ">
<path fill="none" stroke="#63b8ff" d="M1953.62,-145.8C2111.81,-144.68 2542.54,-137.7 2898.5,-96 2907.2,-94.98 2916.26,-93.67 2925.25,-92.22"/>
<polygon fill="#63b8ff" stroke="#63b8ff" points="2926.08,-95.63 2935.36,-90.53 2924.92,-88.73 2926.08,-95.63"/>
</a>
</g>
</g>
<!-- Node33 -->
<g id="Node000033" class="node">
<title>Node33</title>
<g id="a_Node000033"><a xlink:href="_initialize_security_context_flags_8hpp.html" target="_top" xlink:title=" ">
<polygon fill="white" stroke="#666666" points="924,-96 755,-96 755,-55 924,-55 924,-96"/>
<text text-anchor="start" x="763" y="-84" font-family="Helvetica,sans-Serif" font-size="10.00">Hermes/_base/WinApi</text>
<text text-anchor="start" x="763" y="-73" font-family="Helvetica,sans-Serif" font-size="10.00">/Flags/InitializeSecurityContext</text>
<text text-anchor="middle" x="839.5" y="-62" font-family="Helvetica,sans-Serif" font-size="10.00">Flags.hpp</text>
</a>
</g>
</g>
<!-- Node11&#45;&gt;Node33 -->
<g id="edge42_Node000011_Node000033" class="edge">
<title>Node11&#45;&gt;Node33</title>
<g id="a_edge42_Node000011_Node000033"><a xlink:title=" ">
<path fill="none" stroke="#63b8ff" d="M1829.49,-146.08C1677.98,-145.55 1276.87,-139.89 934.17,-96.11"/>
<polygon fill="#63b8ff" stroke="#63b8ff" points="934.42,-92.62 924.05,-94.81 933.52,-99.56 934.42,-92.62"/>
</a>
</g>
</g>
<!-- Node34 -->
<g id="Node000034" class="node">
<title>Node34</title>
<g id="a_Node000034"><a xlink:href="_initialize_security_context_return_flags_8hpp.html" target="_top" xlink:title=" ">
<polygon fill="white" stroke="#666666" points="1111,-96 942,-96 942,-55 1111,-55 1111,-96"/>
<text text-anchor="start" x="950" y="-84" font-family="Helvetica,sans-Serif" font-size="10.00">Hermes/_base/WinApi</text>
<text text-anchor="start" x="950" y="-73" font-family="Helvetica,sans-Serif" font-size="10.00">/Flags/InitializeSecurityContext</text>
<text text-anchor="middle" x="1026.5" y="-62" font-family="Helvetica,sans-Serif" font-size="10.00">ReturnFlags.hpp</text>
</a>
</g>
</g>
<!-- Node11&#45;&gt;Node34 -->
<g id="edge44_Node000011_Node000034" class="edge">
<title>Node11&#45;&gt;Node34</title>
<g id="a_edge44_Node000011_Node000034"><a xlink:title=" ">
<path fill="none" stroke="#63b8ff" d="M1829.25,-144.91C1699.37,-142 1390.03,-131.73 1121.16,-95.98"/>
<polygon fill="#63b8ff" stroke="#63b8ff" points="1121.59,-92.5 1111.21,-94.64 1120.65,-99.44 1121.59,-92.5"/>
</a>
</g>
</g>
<!-- Node35 -->
<g id="Node000035" class="node">
<title>Node35</title>
<g id="a_Node000035"><a xlink:href="_accept_security_context_flags_8hpp.html" target="_top" xlink:title=" ">
<polygon fill="white" stroke="#666666" points="1289.5,-96 1129.5,-96 1129.5,-55 1289.5,-55 1289.5,-96"/>
<text text-anchor="start" x="1137.5" y="-84" font-family="Helvetica,sans-Serif" font-size="10.00">Hermes/_base/WinApi</text>
<text text-anchor="start" x="1137.5" y="-73" font-family="Helvetica,sans-Serif" font-size="10.00">/Flags/AcceptSecurityContext</text>
<text text-anchor="middle" x="1209.5" y="-62" font-family="Helvetica,sans-Serif" font-size="10.00">Flags.hpp</text>
</a>
</g>
</g>
<!-- Node11&#45;&gt;Node35 -->
<g id="edge46_Node000011_Node000035" class="edge">
<title>Node11&#45;&gt;Node35</title>
<g id="a_edge46_Node000011_Node000035"><a xlink:title=" ">
<path fill="none" stroke="#63b8ff" d="M1829.29,-143.45C1722.75,-138.5 1498.42,-125.49 1299.97,-96.12"/>
<polygon fill="#63b8ff" stroke="#63b8ff" points="1300.35,-92.64 1289.94,-94.62 1299.31,-99.56 1300.35,-92.64"/>
</a>
</g>
</g>
<!-- Node36 -->
<g id="Node000036" class="node">
<title>Node36</title>
<g id="a_Node000036"><a xlink:href="_accept_security_context_return_flags_8hpp.html" target="_top" xlink:title=" ">
<polygon fill="white" stroke="#666666" points="1467.5,-96 1307.5,-96 1307.5,-55 1467.5,-55 1467.5,-96"/>
<text text-anchor="start" x="1315.5" y="-84" font-family="Helvetica,sans-Serif" font-size="10.00">Hermes/_base/WinApi</text>
<text text-anchor="start" x="1315.5" y="-73" font-family="Helvetica,sans-Serif" font-size="10.00">/Flags/AcceptSecurityContext</text>
<text text-anchor="middle" x="1387.5" y="-62" font-family="Helvetica,sans-Serif" font-size="10.00">ReturnFlags.hpp</text>
</a>
</g>
</g>
<!-- Node11&#45;&gt;Node36 -->
<g id="edge48_Node000011_Node000036" class="edge">
<title>Node11&#45;&gt;Node36</title>
<g id="a_edge48_Node000011_Node000036"><a xlink:title=" ">
<path fill="none" stroke="#63b8ff" d="M1829.45,-140.06C1748.95,-131.98 1604.27,-116.18 1481.5,-96 1480.23,-95.79 1478.95,-95.58 1477.66,-95.36"/>
<polygon fill="#63b8ff" stroke="#63b8ff" points="1478.13,-91.89 1467.67,-93.6 1476.91,-98.78 1478.13,-91.89"/>
</a>
</g>
</g>
<!-- Node37 -->
<g id="Node000037" class="node">
<title>Node37</title>
<g id="a_Node000037"><a xlink:href="_s_channel_cred_flags_8hpp.html" target="_top" xlink:title=" ">
<polygon fill="white" stroke="#666666" points="3281.5,-90.5 3117.5,-90.5 3117.5,-60.5 3281.5,-60.5 3281.5,-90.5"/>
<text text-anchor="start" x="3125.5" y="-78.5" font-family="Helvetica,sans-Serif" font-size="10.00">Hermes/_base/WinApi</text>
<text text-anchor="middle" x="3199.5" y="-67.5" font-family="Helvetica,sans-Serif" font-size="10.00">/Flags/SChannelCredFlags.hpp</text>
</a>
</g>
</g>
<!-- Node11&#45;&gt;Node37 -->
<g id="edge50_Node000011_Node000037" class="edge">
<title>Node11&#45;&gt;Node37</title>
<g id="a_edge50_Node000011_Node000037"><a xlink:title=" ">
<path fill="none" stroke="#63b8ff" d="M1953.63,-144.84C2168.83,-140.62 2881.54,-124.77 3108.5,-96 3115.86,-95.07 3123.5,-93.84 3131.09,-92.46"/>
<polygon fill="#63b8ff" stroke="#63b8ff" points="3131.84,-95.88 3141.01,-90.56 3130.53,-89 3131.84,-95.88"/>
</a>
</g>
</g>
<!-- Node17 -->
<g id="Node000017" class="node">
<title>Node17</title>
<g id="a_Node000017"><a xlink:title=" ">
<polygon fill="#e0e0e0" stroke="#999999" points="2005.5,-19 1955.5,-19 1955.5,0 2005.5,0 2005.5,-19"/>
<text text-anchor="middle" x="1980.5" y="-7" font-family="Helvetica,sans-Serif" font-size="10.00">cstdint</text>
</a>
</g>
</g>
<!-- Node16&#45;&gt;Node17 -->
<g id="edge16_Node000016_Node000017" class="edge">
<title>Node16&#45;&gt;Node17</title>
<g id="a_edge16_Node000016_Node000017"><a xlink:title=" ">
<path fill="none" stroke="#63b8ff" d="M1980.5,-60.3C1980.5,-51.2 1980.5,-39.29 1980.5,-29.4"/>
<polygon fill="#63b8ff" stroke="#63b8ff" points="1984,-29.34 1980.5,-19.34 1977,-29.34 1984,-29.34"/>
</a>
</g>
</g>
<!-- Node18&#45;&gt;Node13 -->
<g id="edge19_Node000018_Node000013" class="edge">
<title>Node18&#45;&gt;Node13</title>
<g id="a_edge19_Node000018_Node000013"><a xlink:title=" ">
<path fill="none" stroke="#63b8ff" d="M2643.53,-60.3C2628.86,-49.87 2608.99,-35.74 2594.16,-25.19"/>
<polygon fill="#63b8ff" stroke="#63b8ff" points="2595.85,-22.1 2585.68,-19.16 2591.8,-27.81 2595.85,-22.1"/>
</a>
</g>
</g>
<!-- Node18&#45;&gt;Node14 -->
<g id="edge20_Node000018_Node000014" class="edge">
<title>Node18&#45;&gt;Node14</title>
<g id="a_edge20_Node000018_Node000014"><a xlink:title=" ">
<path fill="none" stroke="#63b8ff" d="M2712.22,-60.4C2719.65,-58.46 2727.26,-56.59 2734.5,-55 2812.74,-37.83 2905.08,-23.92 2958.69,-16.46"/>
<polygon fill="#63b8ff" stroke="#63b8ff" points="2959.46,-19.88 2968.89,-15.05 2958.5,-12.95 2959.46,-19.88"/>
</a>
</g>
</g>
<!-- Node18&#45;&gt;Node15 -->
<g id="edge21_Node000018_Node000015" class="edge">
<title>Node18&#45;&gt;Node15</title>
<g id="a_edge21_Node000018_Node000015"><a xlink:title=" ">
<path fill="none" stroke="#63b8ff" d="M2601.47,-61.83C2586.17,-59.15 2569.79,-56.63 2554.5,-55 2307.19,-28.63 1504.28,-13.94 1331.47,-11.04"/>
<polygon fill="#63b8ff" stroke="#63b8ff" points="1331.51,-7.54 1321.45,-10.87 1331.39,-14.53 1331.51,-7.54"/>
</a>
</g>
</g>
<!-- Node19 -->
<g id="Node000019" class="node">
<title>Node19</title>
<g id="a_Node000019"><a xlink:title=" ">
<polygon fill="#e0e0e0" stroke="#999999" points="2700,-19 2627,-19 2627,0 2700,0 2700,-19"/>
<text text-anchor="middle" x="2663.5" y="-7" font-family="Helvetica,sans-Serif" font-size="10.00">string_view</text>
</a>
</g>
</g>
<!-- Node18&#45;&gt;Node19 -->
<g id="edge18_Node000018_Node000019" class="edge">
<title>Node18&#45;&gt;Node19</title>
<g id="a_edge18_Node000018_Node000019"><a xlink:title=" ">
<path fill="none" stroke="#63b8ff" d="M2663.5,-60.3C2663.5,-51.2 2663.5,-39.29 2663.5,-29.4"/>
<polygon fill="#63b8ff" stroke="#63b8ff" points="2667,-29.34 2663.5,-19.34 2660,-29.34 2667,-29.34"/>
</a>
</g>
</g>
<!-- Node21 -->
<g id="Node000021" class="node">
<title>Node21</title>
<g id="a_Node000021"><a xlink:title=" ">
<polygon fill="#e0e0e0" stroke="#999999" points="2386.5,-19 2326.5,-19 2326.5,0 2386.5,0 2386.5,-19"/>
<text text-anchor="middle" x="2356.5" y="-7" font-family="Helvetica,sans-Serif" font-size="10.00">ws2def.h</text>
</a>
</g>
</g>
<!-- Node20&#45;&gt;Node21 -->
<g id="edge23_Node000020_Node000021" class="edge">
<title>Node20&#45;&gt;Node21</title>
<g id="a_edge23_Node000020_Node000021"><a xlink:title=" ">
<path fill="none" stroke="#63b8ff" d="M2435.08,-60.3C2418.31,-49.67 2395.49,-35.2 2378.75,-24.6"/>
<polygon fill="#63b8ff" stroke="#63b8ff" points="2380.48,-21.55 2370.16,-19.16 2376.74,-27.47 2380.48,-21.55"/>
</a>
</g>
</g>
<!-- Node23 -->
<g id="Node000023" class="node">
<title>Node23</title>
<g id="a_Node000023"><a xlink:title=" ">
<polygon fill="#e0e0e0" stroke="#999999" points="319.5,-19 245.5,-19 245.5,0 319.5,0 319.5,-19"/>
<text text-anchor="middle" x="282.5" y="-7" font-family="Helvetica,sans-Serif" font-size="10.00">WinSock2.h</text>
</a>
</g>
</g>
<!-- Node22&#45;&gt;Node23 -->
<g id="edge25_Node000022_Node000023" class="edge">
<title>Node22&#45;&gt;Node23</title>
<g id="a_edge25_Node000022_Node000023"><a xlink:title=" ">
<path fill="none" stroke="#63b8ff" d="M433.93,-60.45C399.15,-48.98 350.59,-32.96 317.91,-22.18"/>
<polygon fill="#63b8ff" stroke="#63b8ff" points="318.91,-18.83 308.32,-19.02 316.72,-25.47 318.91,-18.83"/>
</a>
</g>
</g>
<!-- Node25 -->
<g id="Node000025" class="node">
<title>Node25</title>
<g id="a_Node000025"><a xlink:title=" ">
<polygon fill="#e0e0e0" stroke="#999999" points="1834,-19 1769,-19 1769,0 1834,0 1834,-19"/>
<text text-anchor="middle" x="1801.5" y="-7" font-family="Helvetica,sans-Serif" font-size="10.00">winerror.h</text>
</a>
</g>
</g>
<!-- Node24&#45;&gt;Node25 -->
<g id="edge27_Node000024_Node000025" class="edge">
<title>Node24&#45;&gt;Node25</title>
<g id="a_edge27_Node000024_Node000025"><a xlink:title=" ">
<path fill="none" stroke="#63b8ff" d="M1801.5,-60.3C1801.5,-51.2 1801.5,-39.29 1801.5,-29.4"/>
<polygon fill="#63b8ff" stroke="#63b8ff" points="1805,-29.34 1801.5,-19.34 1798,-29.34 1805,-29.34"/>
</a>
</g>
</g>
<!-- Node26&#45;&gt;Node21 -->
<g id="edge29_Node000026_Node000021" class="edge">
<title>Node26&#45;&gt;Node21</title>
<g id="a_edge29_Node000026_Node000021"><a xlink:title=" ">
<path fill="none" stroke="#63b8ff" d="M2277.92,-60.3C2294.69,-49.67 2317.51,-35.2 2334.25,-24.6"/>
<polygon fill="#63b8ff" stroke="#63b8ff" points="2336.26,-27.47 2342.84,-19.16 2332.52,-21.55 2336.26,-27.47"/>
</a>
</g>
</g>
<!-- Node27&#45;&gt;Node14 -->
<g id="edge31_Node000027_Node000014" class="edge">
<title>Node27&#45;&gt;Node14</title>
<g id="a_edge31_Node000027_Node000014"><a xlink:title=" ">
<path fill="none" stroke="#63b8ff" d="M2857.54,-60.45C2890.91,-49.03 2937.47,-33.1 2968.96,-22.32"/>
<polygon fill="#63b8ff" stroke="#63b8ff" points="2970.29,-25.57 2978.61,-19.02 2968.02,-18.94 2970.29,-25.57"/>
</a>
</g>
</g>
<!-- Node28&#45;&gt;Node15 -->
<g id="edge33_Node000028_Node000015" class="edge">
<title>Node28&#45;&gt;Node15</title>
<g id="a_edge33_Node000028_Node000015"><a xlink:title=" ">
<path fill="none" stroke="#63b8ff" d="M1542.03,-60.45C1476.55,-47.02 1380.65,-27.35 1330.99,-17.16"/>
<polygon fill="#63b8ff" stroke="#63b8ff" points="1331.62,-13.72 1321.12,-15.14 1330.22,-20.58 1331.62,-13.72"/>
</a>
</g>
</g>
<!-- Node29&#45;&gt;Node23 -->
<g id="edge35_Node000029_Node000023" class="edge">
<title>Node29&#45;&gt;Node23</title>
<g id="a_edge35_Node000029_Node000023"><a xlink:title=" ">
<path fill="none" stroke="#63b8ff" d="M134.2,-60.45C168.1,-49.03 215.41,-33.1 247.4,-22.32"/>
<polygon fill="#63b8ff" stroke="#63b8ff" points="248.85,-25.53 257.21,-19.02 246.62,-18.89 248.85,-25.53"/>
</a>
</g>
</g>
<!-- Node30&#45;&gt;Node23 -->
<g id="edge37_Node000030_Node000023" class="edge">
<title>Node30&#45;&gt;Node23</title>
<g id="a_edge37_Node000030_Node000023"><a xlink:title=" ">
<path fill="none" stroke="#63b8ff" d="M282.5,-60.3C282.5,-51.2 282.5,-39.29 282.5,-29.4"/>
<polygon fill="#63b8ff" stroke="#63b8ff" points="286,-29.34 282.5,-19.34 279,-29.34 286,-29.34"/>
</a>
</g>
</g>
<!-- Node31&#45;&gt;Node15 -->
<g id="edge39_Node000031_Node000015" class="edge">
<title>Node31&#45;&gt;Node15</title>
<g id="a_edge39_Node000031_Node000015"><a xlink:title=" ">
<path fill="none" stroke="#63b8ff" d="M717.52,-60.42C726.8,-58.35 736.39,-56.44 745.5,-55 941.42,-24.01 1180,-14.08 1265.81,-11.38"/>
<polygon fill="#63b8ff" stroke="#63b8ff" points="1266.08,-14.88 1275.97,-11.08 1265.87,-7.88 1266.08,-14.88"/>
</a>
</g>
</g>
<!-- Node32&#45;&gt;Node14 -->
<g id="edge41_Node000032_Node000014" class="edge">
<title>Node32&#45;&gt;Node14</title>
<g id="a_edge41_Node000032_Node000014"><a xlink:title=" ">
<path fill="none" stroke="#63b8ff" d="M3003.5,-60.3C3003.5,-51.2 3003.5,-39.29 3003.5,-29.4"/>
<polygon fill="#63b8ff" stroke="#63b8ff" points="3007,-29.34 3003.5,-19.34 3000,-29.34 3007,-29.34"/>
</a>
</g>
</g>
<!-- Node33&#45;&gt;Node15 -->
<g id="edge43_Node000033_Node000015" class="edge">
<title>Node33&#45;&gt;Node15</title>
<g id="a_edge43_Node000033_Node000015"><a xlink:title=" ">
<path fill="none" stroke="#63b8ff" d="M924.09,-56.44C926.92,-55.94 929.73,-55.46 932.5,-55 1054.58,-34.82 1200.99,-19.74 1265.37,-13.57"/>
<polygon fill="#63b8ff" stroke="#63b8ff" points="1266.08,-17.02 1275.7,-12.59 1265.42,-10.05 1266.08,-17.02"/>
</a>
</g>
</g>
<!-- Node34&#45;&gt;Node15 -->
<g id="edge45_Node000034_Node000015" class="edge">
<title>Node34&#45;&gt;Node15</title>
<g id="a_edge45_Node000034_Node000015"><a xlink:title=" ">
<path fill="none" stroke="#63b8ff" d="M1109.59,-54.95C1162.14,-42.58 1227.18,-27.28 1265.62,-18.24"/>
<polygon fill="#63b8ff" stroke="#63b8ff" points="1266.79,-21.56 1275.72,-15.86 1265.18,-14.74 1266.79,-21.56"/>
</a>
</g>
</g>
<!-- Node35&#45;&gt;Node15 -->
<g id="edge47_Node000035_Node000015" class="edge">
<title>Node35&#45;&gt;Node15</title>
<g id="a_edge47_Node000035_Node000015"><a xlink:title=" ">
<path fill="none" stroke="#63b8ff" d="M1236.69,-54.95C1250.01,-45.37 1265.8,-34.02 1278.08,-25.19"/>
<polygon fill="#63b8ff" stroke="#63b8ff" points="1280.24,-27.94 1286.32,-19.26 1276.16,-22.26 1280.24,-27.94"/>
</a>
</g>
</g>
<!-- Node36&#45;&gt;Node15 -->
<g id="edge49_Node000036_Node000015" class="edge">
<title>Node36&#45;&gt;Node15</title>
<g id="a_edge49_Node000036_Node000015"><a xlink:title=" ">
<path fill="none" stroke="#63b8ff" d="M1360.31,-54.95C1346.99,-45.37 1331.2,-34.02 1318.92,-25.19"/>
<polygon fill="#63b8ff" stroke="#63b8ff" points="1320.84,-22.26 1310.68,-19.26 1316.76,-27.94 1320.84,-22.26"/>
</a>
</g>
</g>
<!-- Node37&#45;&gt;Node14 -->
<g id="edge51_Node000037_Node000014" class="edge">
<title>Node37&#45;&gt;Node14</title>
<g id="a_edge51_Node000037_Node000014"><a xlink:title=" ">
<path fill="none" stroke="#63b8ff" d="M3156.49,-60.45C3121.36,-48.98 3072.29,-32.96 3039.28,-22.18"/>
<polygon fill="#63b8ff" stroke="#63b8ff" points="3040.18,-18.79 3029.58,-19.02 3038,-25.45 3040.18,-18.79"/>
</a>
</g>
</g>
<!-- Node38&#45;&gt;Node5 -->
<g id="edge59_Node000038_Node000005" class="edge">
<title>Node38&#45;&gt;Node5</title>
<g id="a_edge59_Node000038_Node000005"><a xlink:title=" ">
<path fill="none" stroke="#63b8ff" d="M4114.32,-197.61C4110.08,-187.64 4104.36,-174.05 4099.5,-162 4090.14,-138.78 4079.82,-111.8 4073.26,-94.46"/>
<polygon fill="#63b8ff" stroke="#63b8ff" points="4076.5,-93.15 4069.7,-85.03 4069.95,-95.62 4076.5,-93.15"/>
</a>
</g>
</g>
<!-- Node38&#45;&gt;Node39 -->
<g id="edge53_Node000038_Node000039" class="edge">
<title>Node38&#45;&gt;Node39</title>
<g id="a_edge53_Node000038_Node000039"><a xlink:title=" ">
<path fill="none" stroke="#63b8ff" d="M4091.31,-197.95C4068.4,-186.93 4036.75,-171.7 4014.43,-160.96"/>
<polygon fill="#63b8ff" stroke="#63b8ff" points="4015.73,-157.7 4005.2,-156.52 4012.69,-164.01 4015.73,-157.7"/>
</a>
</g>
</g>
<!-- Node41 -->
<g id="Node000041" class="node">
<title>Node41</title>
<g id="a_Node000041"><a xlink:title=" ">
<polygon fill="#e0e0e0" stroke="#999999" points="4150.5,-156.5 4108.5,-156.5 4108.5,-137.5 4150.5,-137.5 4150.5,-156.5"/>
<text text-anchor="middle" x="4129.5" y="-144.5" font-family="Helvetica,sans-Serif" font-size="10.00">array</text>
</a>
</g>
</g>
<!-- Node38&#45;&gt;Node41 -->
<g id="edge55_Node000038_Node000041" class="edge">
<title>Node38&#45;&gt;Node41</title>
<g id="a_edge55_Node000038_Node000041"><a xlink:title=" ">
<path fill="none" stroke="#63b8ff" d="M4122.5,-197.8C4123.78,-188.7 4125.45,-176.79 4126.84,-166.9"/>
<polygon fill="#63b8ff" stroke="#63b8ff" points="4130.33,-167.23 4128.26,-156.84 4123.4,-166.26 4130.33,-167.23"/>
</a>
</g>
</g>
<!-- Node38&#45;&gt;Node42 -->
<g id="edge56_Node000038_Node000042" class="edge">
<title>Node38&#45;&gt;Node42</title>
<g id="a_edge56_Node000038_Node000042"><a xlink:title=" ">
<path fill="none" stroke="#63b8ff" d="M4049.55,-197.98C4009.43,-189.26 3958.61,-176.88 3914.5,-162 3913.06,-161.52 3911.6,-160.99 3910.14,-160.44"/>
<polygon fill="#63b8ff" stroke="#63b8ff" points="3911.14,-157.07 3900.56,-156.55 3908.51,-163.56 3911.14,-157.07"/>
</a>
</g>
</g>
<!-- Node43 -->
<g id="Node000043" class="node">
<title>Node43</title>
<g id="a_Node000043"><a xlink:title=" ">
<polygon fill="#e0e0e0" stroke="#999999" points="4220,-156.5 4169,-156.5 4169,-137.5 4220,-137.5 4220,-156.5"/>
<text text-anchor="middle" x="4194.5" y="-144.5" font-family="Helvetica,sans-Serif" font-size="10.00">variant</text>
</a>
</g>
</g>
<!-- Node38&#45;&gt;Node43 -->
<g id="edge57_Node000038_Node000043" class="edge">
<title>Node38&#45;&gt;Node43</title>
<g id="a_edge57_Node000038_Node000043"><a xlink:title=" ">
<path fill="none" stroke="#63b8ff" d="M4136.92,-197.8C4148.69,-187.62 4164.52,-173.93 4176.6,-163.48"/>
<polygon fill="#63b8ff" stroke="#63b8ff" points="4179,-166.03 4184.27,-156.84 4174.42,-160.74 4179,-166.03"/>
</a>
</g>
</g>
<!-- Node38&#45;&gt;Node44 -->
<g id="edge58_Node000038_Node000044" class="edge">
<title>Node38&#45;&gt;Node44</title>
<g id="a_edge58_Node000038_Node000044"><a xlink:title=" ">
<path fill="none" stroke="#63b8ff" d="M4198.29,-200.09C4203.1,-199.38 4207.86,-198.67 4212.5,-198 4327.51,-181.26 4358.89,-190.74 4471.5,-162 4473.95,-161.38 4476.45,-160.64 4478.95,-159.84"/>
<polygon fill="#63b8ff" stroke="#63b8ff" points="4480.12,-163.14 4488.41,-156.53 4477.81,-156.53 4480.12,-163.14"/>
</a>
</g>
</g>
<!-- Node45 -->
<g id="Node000045" class="node">
<title>Node45</title>
<g id="a_Node000045"><a xlink:title=" ">
<polygon fill="#e0e0e0" stroke="#999999" points="4288.5,-156.5 4238.5,-156.5 4238.5,-137.5 4288.5,-137.5 4288.5,-156.5"/>
<text text-anchor="middle" x="4263.5" y="-144.5" font-family="Helvetica,sans-Serif" font-size="10.00">format</text>
</a>
</g>
</g>
<!-- Node38&#45;&gt;Node45 -->
<g id="edge60_Node000038_Node000045" class="edge">
<title>Node38&#45;&gt;Node45</title>
<g id="a_edge60_Node000038_Node000045"><a xlink:title=" ">
<path fill="none" stroke="#63b8ff" d="M4151.88,-197.95C4176.74,-186.83 4211.16,-171.42 4235.18,-160.67"/>
<polygon fill="#63b8ff" stroke="#63b8ff" points="4236.77,-163.8 4244.47,-156.52 4233.91,-157.41 4236.77,-163.8"/>
</a>
</g>
</g>
<!-- Node46 -->
<g id="Node000046" class="node">
<title>Node46</title>
<g id="a_Node000046"><a xlink:title=" ">
<polygon fill="#e0e0e0" stroke="#999999" points="4462,-162 4307,-162 4307,-132 4462,-132 4462,-162"/>
<text text-anchor="start" x="4315" y="-150" font-family="Helvetica,sans-Serif" font-size="10.00">Hermes/Endpoint/IpEndpoint</text>
<text text-anchor="middle" x="4384.5" y="-139" font-family="Helvetica,sans-Serif" font-size="10.00">/IpAddress.tpp</text>
</a>
</g>
</g>
<!-- Node38&#45;&gt;Node46 -->
<g id="edge61_Node000038_Node000046" class="edge">
<title>Node38&#45;&gt;Node46</title>
<g id="a_edge61_Node000038_Node000046"><a xlink:title=" ">
<path fill="none" stroke="#63b8ff" d="M4178.44,-197.95C4219.27,-188.06 4274.09,-174.77 4316.92,-164.38"/>
<polygon fill="#63b8ff" stroke="#63b8ff" points="4317.81,-167.77 4326.7,-162.01 4316.16,-160.97 4317.81,-167.77"/>
</a>
</g>
</g>
<!-- Node40 -->
<g id="Node000040" class="node">
<title>Node40</title>
<g id="a_Node000040"><a xlink:title=" ">
<polygon fill="#e0e0e0" stroke="#999999" points="4153,-85 4108,-85 4108,-66 4153,-66 4153,-85"/>
<text text-anchor="middle" x="4130.5" y="-73" font-family="Helvetica,sans-Serif" font-size="10.00">utility</text>
</a>
</g>
</g>
<!-- Node39&#45;&gt;Node40 -->
<g id="edge54_Node000039_Node000040" class="edge">
<title>Node39&#45;&gt;Node40</title>
<g id="a_edge54_Node000039_Node000040"><a xlink:title=" ">
<path fill="none" stroke="#63b8ff" d="M4008.98,-137.47C4031.85,-128.15 4068.89,-112.36 4099.5,-96 4102.68,-94.3 4105.97,-92.4 4109.17,-90.46"/>
<polygon fill="#63b8ff" stroke="#63b8ff" points="4111.15,-93.35 4117.77,-85.08 4107.44,-87.42 4111.15,-93.35"/>
</a>
</g>
</g>
</g>
</svg>
