<?xml version="1.0" encoding="UTF-8" standalone="no"?>
<!DOCTYPE svg PUBLIC "-//W3C//DTD SVG 1.1//EN"
 "http://www.w3.org/Graphics/SVG/1.1/DTD/svg11.dtd">
<!-- Generated by graphviz version 2.43.0 (0)
 -->
<!-- Title: include/Hermes/Endpoint/IpEndpoint/IpEndpoint.hpp Pages: 1 -->
<svg width="4446pt" height="302pt"
 viewBox="0.00 0.00 4445.50 302.00" xmlns="http://www.w3.org/2000/svg" xmlns:xlink="http://www.w3.org/1999/xlink">
<g id="graph0" class="graph" transform="scale(1 1) rotate(0) translate(4 298)">
<title>include/Hermes/Endpoint/IpEndpoint/IpEndpoint.hpp</title>
<!-- Node1 -->
<g id="Node000001" class="node">
<title>Node1</title>
<g id="a_Node000001"><a xlink:title=" ">
<polygon fill="#999999" stroke="#666666" points="4024,-294 3877,-294 3877,-264 4024,-264 4024,-294"/>
<text text-anchor="start" x="3885" y="-282" font-family="Helvetica,sans-Serif" font-size="10.00">include/Hermes/Endpoint</text>
<text text-anchor="middle" x="3950.5" y="-271" font-family="Helvetica,sans-Serif" font-size="10.00">/IpEndpoint/IpEndpoint.hpp</text>
</a>
</g>
</g>
<!-- Node2 -->
<g id="Node000002" class="node">
<title>Node2</title>
<g id="a_Node000002"><a xlink:href="_endpoint_concept_8hpp.html" target="_top" xlink:title=" ">
<polygon fill="white" stroke="#666666" points="3699.5,-228 3567.5,-228 3567.5,-198 3699.5,-198 3699.5,-228"/>
<text text-anchor="start" x="3575.5" y="-216" font-family="Helvetica,sans-Serif" font-size="10.00">Hermes/Endpoint/_base</text>
<text text-anchor="middle" x="3633.5" y="-205" font-family="Helvetica,sans-Serif" font-size="10.00">/EndpointConcept.hpp</text>
</a>
</g>
</g>
<!-- Node1&#45;&gt;Node2 -->
<g id="edge1_Node000001_Node000002" class="edge">
<title>Node1&#45;&gt;Node2</title>
<g id="a_edge1_Node000001_Node000002"><a xlink:title=" ">
<path fill="none" stroke="#63b8ff" d="M3880.93,-263.95C3830.25,-253.72 3761.63,-239.87 3709.51,-229.35"/>
<polygon fill="#63b8ff" stroke="#63b8ff" points="3710.15,-225.9 3699.65,-227.36 3708.76,-232.77 3710.15,-225.9"/>
</a>
</g>
</g>
<!-- Node37 -->
<g id="Node000037" class="node">
<title>Node37</title>
<g id="a_Node000037"><a xlink:href="_ip_address_8hpp.html" target="_top" xlink:title=" ">
<polygon fill="white" stroke="#666666" points="4099,-228 3944,-228 3944,-198 4099,-198 4099,-228"/>
<text text-anchor="start" x="3952" y="-216" font-family="Helvetica,sans-Serif" font-size="10.00">Hermes/Endpoint/IpEndpoint</text>
<text text-anchor="middle" x="4021.5" y="-205" font-family="Helvetica,sans-Serif" font-size="10.00">/IpAddress.hpp</text>
</a>
</g>
</g>
<!-- Node1&#45;&gt;Node37 -->
<g id="edge51_Node000001_Node000037" class="edge">
<title>Node1&#45;&gt;Node37</title>
<g id="a_edge51_Node000001_Node000037"><a xlink:title=" ">
<path fill="none" stroke="#63b8ff" d="M3966.26,-263.8C3975.63,-255.34 3987.7,-244.46 3998.17,-235.03"/>
<polygon fill="#63b8ff" stroke="#63b8ff" points="4000.7,-237.46 4005.79,-228.16 3996.02,-232.26 4000.7,-237.46"/>
</a>
</g>
</g>
<!-- Node38 -->
<g id="Node000038" class="node">
<title>Node38</title>
<g id="a_Node000038"><a xlink:href="_hash_8hpp.html" target="_top" xlink:title=" ">
<polygon fill="white" stroke="#666666" points="3953,-156.5 3824,-156.5 3824,-137.5 3953,-137.5 3953,-156.5"/>
<text text-anchor="middle" x="3888.5" y="-144.5" font-family="Helvetica,sans-Serif" font-size="10.00">Hermes/Utils/Hash.hpp</text>
</a>
</g>
</g>
<!-- Node1&#45;&gt;Node38 -->
<g id="edge61_Node000001_Node000038" class="edge">
<title>Node1&#45;&gt;Node38</title>
<g id="a_edge61_Node000001_Node000038"><a xlink:title=" ">
<path fill="none" stroke="#63b8ff" d="M3943.75,-263.84C3932.39,-240.02 3909.48,-191.99 3897.03,-165.88"/>
<polygon fill="#63b8ff" stroke="#63b8ff" points="3900.14,-164.27 3892.67,-156.75 3893.82,-167.28 3900.14,-164.27"/>
</a>
</g>
</g>
<!-- Node41 -->
<g id="Node000041" class="node">
<title>Node41</title>
<g id="a_Node000041"><a xlink:title=" ">
<polygon fill="#e0e0e0" stroke="#999999" points="3805.5,-156.5 3761.5,-156.5 3761.5,-137.5 3805.5,-137.5 3805.5,-156.5"/>
<text text-anchor="middle" x="3783.5" y="-144.5" font-family="Helvetica,sans-Serif" font-size="10.00">string</text>
</a>
</g>
</g>
<!-- Node1&#45;&gt;Node41 -->
<g id="edge63_Node000001_Node000041" class="edge">
<title>Node1&#45;&gt;Node41</title>
<g id="a_edge63_Node000001_Node000041"><a xlink:title=" ">
<path fill="none" stroke="#63b8ff" d="M3932.31,-263.84C3900.63,-239.18 3835.6,-188.56 3803.01,-163.19"/>
<polygon fill="#63b8ff" stroke="#63b8ff" points="3804.78,-160.13 3794.74,-156.75 3800.48,-165.65 3804.78,-160.13"/>
</a>
</g>
</g>
<!-- Node43 -->
<g id="Node000043" class="node">
<title>Node43</title>
<g id="a_Node000043"><a xlink:title=" ">
<polygon fill="#e0e0e0" stroke="#999999" points="4437.5,-156.5 4381.5,-156.5 4381.5,-137.5 4437.5,-137.5 4437.5,-156.5"/>
<text text-anchor="middle" x="4409.5" y="-144.5" font-family="Helvetica,sans-Serif" font-size="10.00">optional</text>
</a>
</g>
</g>
<!-- Node1&#45;&gt;Node43 -->
<g id="edge62_Node000001_Node000043" class="edge">
<title>Node1&#45;&gt;Node43</title>
<g id="a_edge62_Node000001_Node000043"><a xlink:title=" ">
<path fill="none" stroke="#63b8ff" d="M4011.74,-263.98C4041.87,-255.76 4078.15,-243.84 4108.5,-228 4127.89,-217.88 4127.42,-206.66 4147.5,-198 4240.49,-157.89 4274.64,-188.05 4372.5,-162 4374.8,-161.39 4377.15,-160.69 4379.5,-159.93"/>
<polygon fill="#63b8ff" stroke="#63b8ff" points="4380.72,-163.21 4389,-156.6 4378.4,-156.6 4380.72,-163.21"/>
</a>
</g>
</g>
<!-- Node46 -->
<g id="Node000046" class="node">
<title>Node46</title>
<g id="a_Node000046"><a xlink:title=" ">
<polygon fill="#e0e0e0" stroke="#999999" points="4311,-228 4156,-228 4156,-198 4311,-198 4311,-228"/>
<text text-anchor="start" x="4164" y="-216" font-family="Helvetica,sans-Serif" font-size="10.00">Hermes/Endpoint/IpEndpoint</text>
<text text-anchor="middle" x="4233.5" y="-205" font-family="Helvetica,sans-Serif" font-size="10.00">/IpEndpoint.tpp</text>
</a>
</g>
</g>
<!-- Node1&#45;&gt;Node46 -->
<g id="edge64_Node000001_Node000046" class="edge">
<title>Node1&#45;&gt;Node46</title>
<g id="a_edge64_Node000001_Node000046"><a xlink:title=" ">
<path fill="none" stroke="#63b8ff" d="M4012.61,-263.95C4056.56,-254.01 4115.64,-240.65 4161.64,-230.25"/>
<polygon fill="#63b8ff" stroke="#63b8ff" points="4162.56,-233.63 4171.54,-228.01 4161.01,-226.8 4162.56,-233.63"/>
</a>
</g>
</g>
<!-- Node3 -->
<g id="Node000003" class="node">
<title>Node3</title>
<g id="a_Node000003"><a xlink:href="_connection_error_enum_8hpp.html" target="_top" xlink:title=" ">
<polygon fill="white" stroke="#666666" points="3717,-162 3550,-162 3550,-132 3717,-132 3717,-162"/>
<text text-anchor="start" x="3558" y="-150" font-family="Helvetica,sans-Serif" font-size="10.00">Hermes/_base/ConnectionError</text>
<text text-anchor="middle" x="3633.5" y="-139" font-family="Helvetica,sans-Serif" font-size="10.00">Enum.hpp</text>
</a>
</g>
</g>
<!-- Node2&#45;&gt;Node3 -->
<g id="edge2_Node000002_Node000003" class="edge">
<title>Node2&#45;&gt;Node3</title>
<g id="a_edge2_Node000002_Node000003"><a xlink:title=" ">
<path fill="none" stroke="#63b8ff" d="M3633.5,-197.8C3633.5,-190.34 3633.5,-180.99 3633.5,-172.41"/>
<polygon fill="#63b8ff" stroke="#63b8ff" points="3637,-172.16 3633.5,-162.16 3630,-172.16 3637,-172.16"/>
</a>
</g>
</g>
<!-- Node10 -->
<g id="Node000010" class="node">
<title>Node10</title>
<g id="a_Node000010"><a xlink:href="_win_api_8hpp.html" target="_top" xlink:title=" ">
<polygon fill="white" stroke="#666666" points="1953.5,-162 1829.5,-162 1829.5,-132 1953.5,-132 1953.5,-162"/>
<text text-anchor="start" x="1837.5" y="-150" font-family="Helvetica,sans-Serif" font-size="10.00">Hermes/_base/WinApi</text>
<text text-anchor="middle" x="1891.5" y="-139" font-family="Helvetica,sans-Serif" font-size="10.00">/WinApi.hpp</text>
</a>
</g>
</g>
<!-- Node2&#45;&gt;Node10 -->
<g id="edge9_Node000002_Node000010" class="edge">
<title>Node2&#45;&gt;Node10</title>
<g id="a_edge9_Node000002_Node000010"><a xlink:title=" ">
<path fill="none" stroke="#63b8ff" d="M3567.34,-209.57C3293.39,-199.5 2248.98,-161.13 1963.81,-150.66"/>
<polygon fill="#63b8ff" stroke="#63b8ff" points="1963.71,-147.15 1953.59,-150.28 1963.46,-154.15 1963.71,-147.15"/>
</a>
</g>
</g>
<!-- Node4 -->
<g id="Node000004" class="node">
<title>Node4</title>
<g id="a_Node000004"><a xlink:title=" ">
<polygon fill="#e0e0e0" stroke="#999999" points="3939.5,-85 3877.5,-85 3877.5,-66 3939.5,-66 3939.5,-85"/>
<text text-anchor="middle" x="3908.5" y="-73" font-family="Helvetica,sans-Serif" font-size="10.00">expected</text>
</a>
</g>
</g>
<!-- Node3&#45;&gt;Node4 -->
<g id="edge3_Node000003_Node000004" class="edge">
<title>Node3&#45;&gt;Node4</title>
<g id="a_edge3_Node000003_Node000004"><a xlink:title=" ">
<path fill="none" stroke="#63b8ff" d="M3717.1,-133.64C3762.88,-125.55 3820.18,-113.24 3869.5,-96 3874.55,-94.23 3879.79,-91.96 3884.72,-89.59"/>
<polygon fill="#63b8ff" stroke="#63b8ff" points="3886.38,-92.67 3893.7,-85.02 3883.2,-86.43 3886.38,-92.67"/>
</a>
</g>
</g>
<!-- Node5 -->
<g id="Node000005" class="node">
<title>Node5</title>
<g id="a_Node000005"><a xlink:title=" ">
<polygon fill="#e0e0e0" stroke="#999999" points="4005,-85 3958,-85 3958,-66 4005,-66 4005,-85"/>
<text text-anchor="middle" x="3981.5" y="-73" font-family="Helvetica,sans-Serif" font-size="10.00">vector</text>
</a>
</g>
</g>
<!-- Node3&#45;&gt;Node5 -->
<g id="edge4_Node000003_Node000005" class="edge">
<title>Node3&#45;&gt;Node5</title>
<g id="a_edge4_Node000003_Node000005"><a xlink:title=" ">
<path fill="none" stroke="#63b8ff" d="M3717.06,-136.33C3795.6,-126.59 3907.08,-110.91 3948.5,-96 3952.66,-94.5 3956.88,-92.47 3960.85,-90.28"/>
<polygon fill="#63b8ff" stroke="#63b8ff" points="3962.75,-93.23 3969.51,-85.07 3959.14,-87.23 3962.75,-93.23"/>
</a>
</g>
</g>
<!-- Node6 -->
<g id="Node000006" class="node">
<title>Node6</title>
<g id="a_Node000006"><a xlink:title=" ">
<polygon fill="#e0e0e0" stroke="#999999" points="3378.5,-85 3338.5,-85 3338.5,-66 3378.5,-66 3378.5,-85"/>
<text text-anchor="middle" x="3358.5" y="-73" font-family="Helvetica,sans-Serif" font-size="10.00">span</text>
</a>
</g>
</g>
<!-- Node3&#45;&gt;Node6 -->
<g id="edge5_Node000003_Node000006" class="edge">
<title>Node3&#45;&gt;Node6</title>
<g id="a_edge5_Node000003_Node000006"><a xlink:title=" ">
<path fill="none" stroke="#63b8ff" d="M3549.85,-136.84C3501.41,-129.62 3440.02,-117.11 3388.5,-96 3384.96,-94.55 3381.38,-92.67 3378,-90.64"/>
<polygon fill="#63b8ff" stroke="#63b8ff" points="3379.91,-87.71 3369.62,-85.17 3376.07,-93.57 3379.91,-87.71"/>
</a>
</g>
</g>
<!-- Node7 -->
<g id="Node000007" class="node">
<title>Node7</title>
<g id="a_Node000007"><a xlink:title=" ">
<polygon fill="#e0e0e0" stroke="#999999" points="3522,-85 3397,-85 3397,-66 3522,-66 3522,-85"/>
<text text-anchor="middle" x="3459.5" y="-73" font-family="Helvetica,sans-Serif" font-size="10.00">stdexec/execution.hpp</text>
</a>
</g>
</g>
<!-- Node3&#45;&gt;Node7 -->
<g id="edge6_Node000003_Node000007" class="edge">
<title>Node3&#45;&gt;Node7</title>
<g id="a_edge6_Node000003_Node000007"><a xlink:title=" ">
<path fill="none" stroke="#63b8ff" d="M3598.29,-131.94C3566.71,-119.32 3520.81,-100.99 3490.56,-88.91"/>
<polygon fill="#63b8ff" stroke="#63b8ff" points="3491.54,-85.53 3480.95,-85.07 3488.94,-92.03 3491.54,-85.53"/>
</a>
</g>
</g>
<!-- Node8 -->
<g id="Node000008" class="node">
<title>Node8</title>
<g id="a_Node000008"><a xlink:title=" ">
<polygon fill="#e0e0e0" stroke="#999999" points="3674.5,-85 3540.5,-85 3540.5,-66 3674.5,-66 3674.5,-85"/>
<text text-anchor="middle" x="3607.5" y="-73" font-family="Helvetica,sans-Serif" font-size="10.00">exec/any_sender_of.hpp</text>
</a>
</g>
</g>
<!-- Node3&#45;&gt;Node8 -->
<g id="edge7_Node000003_Node000008" class="edge">
<title>Node3&#45;&gt;Node8</title>
<g id="a_edge7_Node000003_Node000008"><a xlink:title=" ">
<path fill="none" stroke="#63b8ff" d="M3628.24,-131.94C3624.24,-121.25 3618.7,-106.45 3614.36,-94.83"/>
<polygon fill="#63b8ff" stroke="#63b8ff" points="3617.56,-93.41 3610.78,-85.27 3611.01,-95.86 3617.56,-93.41"/>
</a>
</g>
</g>
<!-- Node9 -->
<g id="Node000009" class="node">
<title>Node9</title>
<g id="a_Node000009"><a xlink:title=" ">
<polygon fill="#e0e0e0" stroke="#999999" points="3860,-90.5 3693,-90.5 3693,-60.5 3860,-60.5 3860,-90.5"/>
<text text-anchor="start" x="3701" y="-78.5" font-family="Helvetica,sans-Serif" font-size="10.00">Hermes/_base/ConnectionError</text>
<text text-anchor="middle" x="3776.5" y="-67.5" font-family="Helvetica,sans-Serif" font-size="10.00">Enum.tpp</text>
</a>
</g>
</g>
<!-- Node3&#45;&gt;Node9 -->
<g id="edge8_Node000003_Node000009" class="edge">
<title>Node3&#45;&gt;Node9</title>
<g id="a_edge8_Node000003_Node000009"><a xlink:title=" ">
<path fill="none" stroke="#63b8ff" d="M3662.44,-131.94C3684.34,-121.29 3714.62,-106.57 3738.48,-94.98"/>
<polygon fill="#63b8ff" stroke="#63b8ff" points="3740.14,-98.06 3747.6,-90.54 3737.08,-91.77 3740.14,-98.06"/>
</a>
</g>
</g>
<!-- Node11 -->
<g id="Node000011" class="node">
<title>Node11</title>
<g id="a_Node000011"><a xlink:title=" ">
<polygon fill="#e0e0e0" stroke="#999999" points="2337,-85 2268,-85 2268,-66 2337,-66 2337,-85"/>
<text text-anchor="middle" x="2302.5" y="-73" font-family="Helvetica,sans-Serif" font-size="10.00">ws2tcpip.h</text>
</a>
</g>
</g>
<!-- Node10&#45;&gt;Node11 -->
<g id="edge10_Node000010_Node000011" class="edge">
<title>Node10&#45;&gt;Node11</title>
<g id="a_edge10_Node000010_Node000011"><a xlink:title=" ">
<path fill="none" stroke="#63b8ff" d="M1953.62,-142.87C2027.5,-137.94 2153.95,-125.64 2258.5,-96 2264.58,-94.28 2270.9,-91.87 2276.8,-89.34"/>
<polygon fill="#63b8ff" stroke="#63b8ff" points="2278.55,-92.38 2286.2,-85.05 2275.65,-86.01 2278.55,-92.38"/>
</a>
</g>
</g>
<!-- Node12 -->
<g id="Node000012" class="node">
<title>Node12</title>
<g id="a_Node000012"><a xlink:title=" ">
<polygon fill="#e0e0e0" stroke="#999999" points="2610,-19 2539,-19 2539,0 2610,0 2610,-19"/>
<text text-anchor="middle" x="2574.5" y="-7" font-family="Helvetica,sans-Serif" font-size="10.00">winsock2.h</text>
</a>
</g>
</g>
<!-- Node10&#45;&gt;Node12 -->
<g id="edge11_Node000010_Node000012" class="edge">
<title>Node10&#45;&gt;Node12</title>
<g id="a_edge11_Node000010_Node000012"><a xlink:title=" ">
<path fill="none" stroke="#63b8ff" d="M1953.58,-145.47C2109.92,-143.56 2510.6,-134.88 2555.5,-96 2574.33,-79.69 2576.84,-49.24 2576.21,-29.42"/>
<polygon fill="#63b8ff" stroke="#63b8ff" points="2579.69,-28.94 2575.57,-19.17 2572.7,-29.37 2579.69,-28.94"/>
</a>
</g>
</g>
<!-- Node13 -->
<g id="Node000013" class="node">
<title>Node13</title>
<g id="a_Node000013"><a xlink:title=" ">
<polygon fill="#e0e0e0" stroke="#999999" points="3071,-19 3002,-19 3002,0 3071,0 3071,-19"/>
<text text-anchor="middle" x="3036.5" y="-7" font-family="Helvetica,sans-Serif" font-size="10.00">schannel.h</text>
</a>
</g>
</g>
<!-- Node10&#45;&gt;Node13 -->
<g id="edge12_Node000010_Node000013" class="edge">
<title>Node10&#45;&gt;Node13</title>
<g id="a_edge12_Node000010_Node000013"><a xlink:title=" ">
<path fill="none" stroke="#63b8ff" d="M1953.85,-145.85C2199.16,-144.94 3086.5,-138.69 3127.5,-96 3140.12,-82.86 3137.15,-70.46 3127.5,-55 3117.13,-38.38 3098.56,-27.8 3080.88,-21.15"/>
<polygon fill="#63b8ff" stroke="#63b8ff" points="3081.81,-17.77 3071.22,-17.85 3079.55,-24.39 3081.81,-17.77"/>
</a>
</g>
</g>
<!-- Node14 -->
<g id="Node000014" class="node">
<title>Node14</title>
<g id="a_Node000014"><a xlink:title=" ">
<polygon fill="#e0e0e0" stroke="#999999" points="1185,-19 1140,-19 1140,0 1185,0 1185,-19"/>
<text text-anchor="middle" x="1162.5" y="-7" font-family="Helvetica,sans-Serif" font-size="10.00">sspi.h</text>
</a>
</g>
</g>
<!-- Node10&#45;&gt;Node14 -->
<g id="edge13_Node000010_Node000014" class="edge">
<title>Node10&#45;&gt;Node14</title>
<g id="a_edge13_Node000010_Node000014"><a xlink:title=" ">
<path fill="none" stroke="#63b8ff" d="M1829.47,-145.92C1580.07,-145.3 661.84,-140.04 619.5,-96 606.87,-82.86 607.15,-68.4 619.5,-55 654.15,-17.39 1017.8,-11.57 1129.83,-10.67"/>
<polygon fill="#63b8ff" stroke="#63b8ff" points="1129.9,-14.16 1139.87,-10.59 1129.84,-7.17 1129.9,-14.16"/>
</a>
</g>
</g>
<!-- Node15 -->
<g id="Node000015" class="node">
<title>Node15</title>
<g id="a_Node000015"><a xlink:href="_conversion_and_literals_8hpp.html" target="_top" xlink:title=" ">
<polygon fill="white" stroke="#666666" points="2055.5,-90.5 1905.5,-90.5 1905.5,-60.5 2055.5,-60.5 2055.5,-90.5"/>
<text text-anchor="start" x="1913.5" y="-78.5" font-family="Helvetica,sans-Serif" font-size="10.00">Hermes/_base/WinApi</text>
<text text-anchor="middle" x="1980.5" y="-67.5" font-family="Helvetica,sans-Serif" font-size="10.00">/ConversionAndLiterals.hpp</text>
</a>
</g>
</g>
<!-- Node10&#45;&gt;Node15 -->
<g id="edge14_Node000010_Node000015" class="edge">
<title>Node10&#45;&gt;Node15</title>
<g id="a_edge14_Node000010_Node000015"><a xlink:title=" ">
<path fill="none" stroke="#63b8ff" d="M1909.51,-131.94C1922.42,-121.86 1940,-108.13 1954.44,-96.85"/>
<polygon fill="#63b8ff" stroke="#63b8ff" points="1956.79,-99.46 1962.52,-90.54 1952.48,-93.94 1956.79,-99.46"/>
</a>
</g>
</g>
<!-- Node17 -->
<g id="Node000017" class="node">
<title>Node17</title>
<g id="a_Node000017"><a xlink:href="_macros_8hpp.html" target="_top" xlink:title=" ">
<polygon fill="white" stroke="#666666" points="2726.5,-90.5 2602.5,-90.5 2602.5,-60.5 2726.5,-60.5 2726.5,-90.5"/>
<text text-anchor="start" x="2610.5" y="-78.5" font-family="Helvetica,sans-Serif" font-size="10.00">Hermes/_base/WinApi</text>
<text text-anchor="middle" x="2664.5" y="-67.5" font-family="Helvetica,sans-Serif" font-size="10.00">/Macros.hpp</text>
</a>
</g>
</g>
<!-- Node10&#45;&gt;Node17 -->
<g id="edge16_Node000010_Node000017" class="edge">
<title>Node10&#45;&gt;Node17</title>
<g id="a_edge16_Node000010_Node000017"><a xlink:title=" ">
<path fill="none" stroke="#63b8ff" d="M1953.94,-145.27C2076.43,-143.01 2356.5,-133.77 2588.5,-96 2593.88,-95.12 2599.43,-94.05 2604.97,-92.85"/>
<polygon fill="#63b8ff" stroke="#63b8ff" points="2605.92,-96.22 2614.9,-90.59 2604.37,-89.4 2605.92,-96.22"/>
</a>
</g>
</g>
<!-- Node19 -->
<g id="Node000019" class="node">
<title>Node19</title>
<g id="a_Node000019"><a xlink:href="_address_family_enum_8hpp.html" target="_top" xlink:title=" ">
<polygon fill="white" stroke="#666666" points="2249.5,-90.5 2073.5,-90.5 2073.5,-60.5 2249.5,-60.5 2249.5,-90.5"/>
<text text-anchor="start" x="2081.5" y="-78.5" font-family="Helvetica,sans-Serif" font-size="10.00">Hermes/_base/WinApi</text>
<text text-anchor="middle" x="2161.5" y="-67.5" font-family="Helvetica,sans-Serif" font-size="10.00">/Enums/AddressFamilyEnum.hpp</text>
</a>
</g>
</g>
<!-- Node10&#45;&gt;Node19 -->
<g id="edge21_Node000010_Node000019" class="edge">
<title>Node10&#45;&gt;Node19</title>
<g id="a_edge21_Node000010_Node000019"><a xlink:title=" ">
<path fill="none" stroke="#63b8ff" d="M1946.14,-131.94C1989.78,-120.7 2051.04,-104.93 2097.07,-93.09"/>
<polygon fill="#63b8ff" stroke="#63b8ff" points="2098.13,-96.43 2106.94,-90.54 2096.39,-89.65 2098.13,-96.43"/>
</a>
</g>
</g>
<!-- Node21 -->
<g id="Node000021" class="node">
<title>Node21</title>
<g id="a_Node000021"><a xlink:href="_condition_function_enum_8hpp.html" target="_top" xlink:title=" ">
<polygon fill="white" stroke="#666666" points="369.5,-90.5 177.5,-90.5 177.5,-60.5 369.5,-60.5 369.5,-90.5"/>
<text text-anchor="start" x="185.5" y="-78.5" font-family="Helvetica,sans-Serif" font-size="10.00">Hermes/_base/WinApi</text>
<text text-anchor="middle" x="273.5" y="-67.5" font-family="Helvetica,sans-Serif" font-size="10.00">/Enums/ConditionFunctionEnum.hpp</text>
</a>
</g>
</g>
<!-- Node10&#45;&gt;Node21 -->
<g id="edge23_Node000010_Node000021" class="edge">
<title>Node10&#45;&gt;Node21</title>
<g id="a_edge23_Node000010_Node000021"><a xlink:title=" ">
<path fill="none" stroke="#63b8ff" d="M1829.32,-145.2C1581.9,-141.8 666.72,-127.35 378.5,-96 369.5,-95.02 360.11,-93.71 350.81,-92.22"/>
<polygon fill="#63b8ff" stroke="#63b8ff" points="351.22,-88.74 340.78,-90.54 350.06,-95.64 351.22,-88.74"/>
</a>
</g>
</g>
<!-- Node23 -->
<g id="Node000023" class="node">
<title>Node23</title>
<g id="a_Node000023"><a xlink:href="_encrypt_status_enum_8hpp.html" target="_top" xlink:title=" ">
<polygon fill="white" stroke="#666666" points="1887.5,-90.5 1715.5,-90.5 1715.5,-60.5 1887.5,-60.5 1887.5,-90.5"/>
<text text-anchor="start" x="1723.5" y="-78.5" font-family="Helvetica,sans-Serif" font-size="10.00">Hermes/_base/WinApi</text>
<text text-anchor="middle" x="1801.5" y="-67.5" font-family="Helvetica,sans-Serif" font-size="10.00">/Enums/EncryptStatusEnum.hpp</text>
</a>
</g>
</g>
<!-- Node10&#45;&gt;Node23 -->
<g id="edge25_Node000010_Node000023" class="edge">
<title>Node10&#45;&gt;Node23</title>
<g id="a_edge25_Node000010_Node000023"><a xlink:title=" ">
<path fill="none" stroke="#63b8ff" d="M1873.29,-131.94C1860.23,-121.86 1842.45,-108.13 1827.85,-96.85"/>
<polygon fill="#63b8ff" stroke="#63b8ff" points="1829.74,-93.89 1819.69,-90.54 1825.46,-99.43 1829.74,-93.89"/>
</a>
</g>
</g>
<!-- Node25 -->
<g id="Node000025" class="node">
<title>Node25</title>
<g id="a_Node000025"><a xlink:href="_protocol_base_type_enum_8hpp.html" target="_top" xlink:title=" ">
<polygon fill="white" stroke="#666666" points="2546,-90.5 2355,-90.5 2355,-60.5 2546,-60.5 2546,-90.5"/>
<text text-anchor="start" x="2363" y="-78.5" font-family="Helvetica,sans-Serif" font-size="10.00">Hermes/_base/WinApi</text>
<text text-anchor="middle" x="2450.5" y="-67.5" font-family="Helvetica,sans-Serif" font-size="10.00">/Enums/ProtocolBaseTypeEnum.hpp</text>
</a>
</g>
</g>
<!-- Node10&#45;&gt;Node25 -->
<g id="edge27_Node000010_Node000025" class="edge">
<title>Node10&#45;&gt;Node25</title>
<g id="a_edge27_Node000010_Node000025"><a xlink:title=" ">
<path fill="none" stroke="#63b8ff" d="M1953.51,-140.69C2041.26,-132.83 2206.58,-116.77 2346.5,-96 2354.04,-94.88 2361.86,-93.61 2369.69,-92.27"/>
<polygon fill="#63b8ff" stroke="#63b8ff" points="2370.32,-95.71 2379.57,-90.54 2369.12,-88.82 2370.32,-95.71"/>
</a>
</g>
</g>
<!-- Node26 -->
<g id="Node000026" class="node">
<title>Node26</title>
<g id="a_Node000026"><a xlink:href="_s_ch_cred_enum_8hpp.html" target="_top" xlink:title=" ">
<polygon fill="white" stroke="#666666" points="3320.5,-90.5 3174.5,-90.5 3174.5,-60.5 3320.5,-60.5 3320.5,-90.5"/>
<text text-anchor="start" x="3182.5" y="-78.5" font-family="Helvetica,sans-Serif" font-size="10.00">Hermes/_base/WinApi</text>
<text text-anchor="middle" x="3247.5" y="-67.5" font-family="Helvetica,sans-Serif" font-size="10.00">/Enums/SChCredEnum.hpp</text>
</a>
</g>
</g>
<!-- Node10&#45;&gt;Node26 -->
<g id="edge29_Node000010_Node000026" class="edge">
<title>Node10&#45;&gt;Node26</title>
<g id="a_edge29_Node000010_Node000026"><a xlink:title=" ">
<path fill="none" stroke="#63b8ff" d="M1953.6,-145.04C2174.7,-141.4 2923.02,-127.03 3160.5,-96 3167.31,-95.11 3174.36,-93.94 3181.38,-92.62"/>
<polygon fill="#63b8ff" stroke="#63b8ff" points="3182.48,-95.97 3191.61,-90.59 3181.12,-89.11 3182.48,-95.97"/>
</a>
</g>
</g>
<!-- Node27 -->
<g id="Node000027" class="node">
<title>Node27</title>
<g id="a_Node000027"><a xlink:href="_security_buffer_enum_8hpp.html" target="_top" xlink:title=" ">
<polygon fill="white" stroke="#666666" points="802,-90.5 629,-90.5 629,-60.5 802,-60.5 802,-90.5"/>
<text text-anchor="start" x="637" y="-78.5" font-family="Helvetica,sans-Serif" font-size="10.00">Hermes/_base/WinApi</text>
<text text-anchor="middle" x="715.5" y="-67.5" font-family="Helvetica,sans-Serif" font-size="10.00">/Enums/SecurityBufferEnum.hpp</text>
</a>
</g>
</g>
<!-- Node10&#45;&gt;Node27 -->
<g id="edge31_Node000010_Node000027" class="edge">
<title>Node10&#45;&gt;Node27</title>
<g id="a_edge31_Node000010_Node000027"><a xlink:title=" ">
<path fill="none" stroke="#63b8ff" d="M1829.42,-146.46C1663.54,-146.98 1196.39,-143.71 811.5,-96 803.64,-95.03 795.46,-93.76 787.35,-92.34"/>
<polygon fill="#63b8ff" stroke="#63b8ff" points="787.96,-88.9 777.5,-90.55 786.71,-95.78 787.96,-88.9"/>
</a>
</g>
</g>
<!-- Node28 -->
<g id="Node000028" class="node">
<title>Node28</title>
<g id="a_Node000028"><a xlink:href="_socket_shutdown_enum_8hpp.html" target="_top" xlink:title=" ">
<polygon fill="white" stroke="#666666" points="573,-90.5 388,-90.5 388,-60.5 573,-60.5 573,-90.5"/>
<text text-anchor="start" x="396" y="-78.5" font-family="Helvetica,sans-Serif" font-size="10.00">Hermes/_base/WinApi</text>
<text text-anchor="middle" x="480.5" y="-67.5" font-family="Helvetica,sans-Serif" font-size="10.00">/Enums/SocketShutdownEnum.hpp</text>
</a>
</g>
</g>
<!-- Node10&#45;&gt;Node28 -->
<g id="edge33_Node000010_Node000028" class="edge">
<title>Node10&#45;&gt;Node28</title>
<g id="a_edge33_Node000010_Node000028"><a xlink:title=" ">
<path fill="none" stroke="#63b8ff" d="M1829.24,-144.8C1603.98,-140.28 831.86,-123.13 586.5,-96 577.49,-95 568.08,-93.69 558.77,-92.2"/>
<polygon fill="#63b8ff" stroke="#63b8ff" points="559.15,-88.72 548.71,-90.54 558.01,-95.62 559.15,-88.72"/>
</a>
</g>
</g>
<!-- Node29 -->
<g id="Node000029" class="node">
<title>Node29</title>
<g id="a_Node000029"><a xlink:href="_socket_type_enum_8hpp.html" target="_top" xlink:title=" ">
<polygon fill="white" stroke="#666666" points="159,-90.5 0,-90.5 0,-60.5 159,-60.5 159,-90.5"/>
<text text-anchor="start" x="8" y="-78.5" font-family="Helvetica,sans-Serif" font-size="10.00">Hermes/_base/WinApi</text>
<text text-anchor="middle" x="79.5" y="-67.5" font-family="Helvetica,sans-Serif" font-size="10.00">/Enums/SocketTypeEnum.hpp</text>
</a>
</g>
</g>
<!-- Node10&#45;&gt;Node29 -->
<g id="edge35_Node000010_Node000029" class="edge">
<title>Node10&#45;&gt;Node29</title>
<g id="a_edge35_Node000010_Node000029"><a xlink:title=" ">
<path fill="none" stroke="#63b8ff" d="M1829.5,-145.75C1561.3,-144.44 499.68,-136.72 168.5,-96 161.19,-95.1 153.59,-93.88 146.05,-92.49"/>
<polygon fill="#63b8ff" stroke="#63b8ff" points="146.69,-89.05 136.2,-90.58 145.35,-95.92 146.69,-89.05"/>
</a>
</g>
</g>
<!-- Node30 -->
<g id="Node000030" class="node">
<title>Node30</title>
<g id="a_Node000030"><a xlink:href="_credential_flags_8hpp.html" target="_top" xlink:title=" ">
<polygon fill="white" stroke="#666666" points="966.5,-90.5 820.5,-90.5 820.5,-60.5 966.5,-60.5 966.5,-90.5"/>
<text text-anchor="start" x="828.5" y="-78.5" font-family="Helvetica,sans-Serif" font-size="10.00">Hermes/_base/WinApi</text>
<text text-anchor="middle" x="893.5" y="-67.5" font-family="Helvetica,sans-Serif" font-size="10.00">/Flags/CredentialFlags.hpp</text>
</a>
</g>
</g>
<!-- Node10&#45;&gt;Node30 -->
<g id="edge37_Node000010_Node000030" class="edge">
<title>Node10&#45;&gt;Node30</title>
<g id="a_edge37_Node000010_Node000030"><a xlink:title=" ">
<path fill="none" stroke="#63b8ff" d="M1829.47,-146.43C1681.09,-146.62 1294.28,-142.22 975.5,-96 969.32,-95.1 962.93,-93.97 956.56,-92.69"/>
<polygon fill="#63b8ff" stroke="#63b8ff" points="957.11,-89.23 946.61,-90.59 955.67,-96.08 957.11,-89.23"/>
</a>
</g>
</g>
<!-- Node31 -->
<g id="Node000031" class="node">
<title>Node31</title>
<g id="a_Node000031"><a xlink:href="_supported_protocols_flags_8hpp.html" target="_top" xlink:title=" ">
<polygon fill="white" stroke="#666666" points="2936,-90.5 2745,-90.5 2745,-60.5 2936,-60.5 2936,-90.5"/>
<text text-anchor="start" x="2753" y="-78.5" font-family="Helvetica,sans-Serif" font-size="10.00">Hermes/_base/WinApi</text>
<text text-anchor="middle" x="2840.5" y="-67.5" font-family="Helvetica,sans-Serif" font-size="10.00">/Flags/SupportedProtocolsFlags.hpp</text>
</a>
</g>
</g>
<!-- Node10&#45;&gt;Node31 -->
<g id="edge39_Node000010_Node000031" class="edge">
<title>Node10&#45;&gt;Node31</title>
<g id="a_edge39_Node000010_Node000031"><a xlink:title=" ">
<path fill="none" stroke="#63b8ff" d="M1953.68,-144.96C2093.75,-142.04 2444.46,-131.51 2735.5,-96 2744.06,-94.96 2752.97,-93.65 2761.83,-92.21"/>
<polygon fill="#63b8ff" stroke="#63b8ff" points="2762.5,-95.64 2771.78,-90.53 2761.34,-88.74 2762.5,-95.64"/>
</a>
</g>
</g>
<!-- Node32 -->
<g id="Node000032" class="node">
<title>Node32</title>
<g id="a_Node000032"><a xlink:href="_initialize_security_context_flags_8hpp.html" target="_top" xlink:title=" ">
<polygon fill="white" stroke="#666666" points="1154,-96 985,-96 985,-55 1154,-55 1154,-96"/>
<text text-anchor="start" x="993" y="-84" font-family="Helvetica,sans-Serif" font-size="10.00">Hermes/_base/WinApi</text>
<text text-anchor="start" x="993" y="-73" font-family="Helvetica,sans-Serif" font-size="10.00">/Flags/InitializeSecurityContext</text>
<text text-anchor="middle" x="1069.5" y="-62" font-family="Helvetica,sans-Serif" font-size="10.00">Flags.hpp</text>
</a>
</g>
</g>
<!-- Node10&#45;&gt;Node32 -->
<g id="edge41_Node000010_Node000032" class="edge">
<title>Node10&#45;&gt;Node32</title>
<g id="a_edge41_Node000010_Node000032"><a xlink:title=" ">
<path fill="none" stroke="#63b8ff" d="M1829.28,-144.63C1704.67,-141.25 1415.61,-130.27 1164.12,-96.13"/>
<polygon fill="#63b8ff" stroke="#63b8ff" points="1164.44,-92.64 1154.06,-94.75 1163.49,-99.58 1164.44,-92.64"/>
</a>
</g>
</g>
<!-- Node33 -->
<g id="Node000033" class="node">
<title>Node33</title>
<g id="a_Node000033"><a xlink:href="_initialize_security_context_return_flags_8hpp.html" target="_top" xlink:title=" ">
<polygon fill="white" stroke="#666666" points="1341,-96 1172,-96 1172,-55 1341,-55 1341,-96"/>
<text text-anchor="start" x="1180" y="-84" font-family="Helvetica,sans-Serif" font-size="10.00">Hermes/_base/WinApi</text>
<text text-anchor="start" x="1180" y="-73" font-family="Helvetica,sans-Serif" font-size="10.00">/Flags/InitializeSecurityContext</text>
<text text-anchor="middle" x="1256.5" y="-62" font-family="Helvetica,sans-Serif" font-size="10.00">ReturnFlags.hpp</text>
</a>
</g>
</g>
<!-- Node10&#45;&gt;Node33 -->
<g id="edge43_Node000010_Node000033" class="edge">
<title>Node10&#45;&gt;Node33</title>
<g id="a_edge43_Node000010_Node000033"><a xlink:title=" ">
<path fill="none" stroke="#63b8ff" d="M1829.16,-142.52C1730.07,-136.49 1530.43,-122.3 1351.36,-96.03"/>
<polygon fill="#63b8ff" stroke="#63b8ff" points="1351.63,-92.54 1341.22,-94.53 1350.6,-99.46 1351.63,-92.54"/>
</a>
</g>
</g>
<!-- Node34 -->
<g id="Node000034" class="node">
<title>Node34</title>
<g id="a_Node000034"><a xlink:href="_accept_security_context_flags_8hpp.html" target="_top" xlink:title=" ">
<polygon fill="white" stroke="#666666" points="1519.5,-96 1359.5,-96 1359.5,-55 1519.5,-55 1519.5,-96"/>
<text text-anchor="start" x="1367.5" y="-84" font-family="Helvetica,sans-Serif" font-size="10.00">Hermes/_base/WinApi</text>
<text text-anchor="start" x="1367.5" y="-73" font-family="Helvetica,sans-Serif" font-size="10.00">/Flags/AcceptSecurityContext</text>
<text text-anchor="middle" x="1439.5" y="-62" font-family="Helvetica,sans-Serif" font-size="10.00">Flags.hpp</text>
</a>
</g>
</g>
<!-- Node10&#45;&gt;Node34 -->
<g id="edge45_Node000010_Node000034" class="edge">
<title>Node10&#45;&gt;Node34</title>
<g id="a_edge45_Node000010_Node000034"><a xlink:title=" ">
<path fill="none" stroke="#63b8ff" d="M1829.28,-138.94C1758.92,-130.62 1640.74,-115.63 1529.98,-96.2"/>
<polygon fill="#63b8ff" stroke="#63b8ff" points="1530.43,-92.73 1519.97,-94.43 1529.21,-99.62 1530.43,-92.73"/>
</a>
</g>
</g>
<!-- Node35 -->
<g id="Node000035" class="node">
<title>Node35</title>
<g id="a_Node000035"><a xlink:href="_accept_security_context_return_flags_8hpp.html" target="_top" xlink:title=" ">
<polygon fill="white" stroke="#666666" points="1697.5,-96 1537.5,-96 1537.5,-55 1697.5,-55 1697.5,-96"/>
<text text-anchor="start" x="1545.5" y="-84" font-family="Helvetica,sans-Serif" font-size="10.00">Hermes/_base/WinApi</text>
<text text-anchor="start" x="1545.5" y="-73" font-family="Helvetica,sans-Serif" font-size="10.00">/Flags/AcceptSecurityContext</text>
<text text-anchor="middle" x="1617.5" y="-62" font-family="Helvetica,sans-Serif" font-size="10.00">ReturnFlags.hpp</text>
</a>
</g>
</g>
<!-- Node10&#45;&gt;Node35 -->
<g id="edge47_Node000010_Node000035" class="edge">
<title>Node10&#45;&gt;Node35</title>
<g id="a_edge47_Node000010_Node000035"><a xlink:title=" ">
<path fill="none" stroke="#63b8ff" d="M1836.05,-131.94C1798.26,-122.35 1747.45,-109.46 1704.33,-98.53"/>
<polygon fill="#63b8ff" stroke="#63b8ff" points="1704.96,-95.07 1694.41,-96.01 1703.24,-101.86 1704.96,-95.07"/>
</a>
</g>
</g>
<!-- Node36 -->
<g id="Node000036" class="node">
<title>Node36</title>
<g id="a_Node000036"><a xlink:href="_s_channel_cred_flags_8hpp.html" target="_top" xlink:title=" ">
<polygon fill="white" stroke="#666666" points="3118.5,-90.5 2954.5,-90.5 2954.5,-60.5 3118.5,-60.5 3118.5,-90.5"/>
<text text-anchor="start" x="2962.5" y="-78.5" font-family="Helvetica,sans-Serif" font-size="10.00">Hermes/_base/WinApi</text>
<text text-anchor="middle" x="3036.5" y="-67.5" font-family="Helvetica,sans-Serif" font-size="10.00">/Flags/SChannelCredFlags.hpp</text>
</a>
</g>
</g>
<!-- Node10&#45;&gt;Node36 -->
<g id="edge49_Node000010_Node000036" class="edge">
<title>Node10&#45;&gt;Node36</title>
<g id="a_edge49_Node000010_Node000036"><a xlink:title=" ">
<path fill="none" stroke="#63b8ff" d="M1953.59,-146.59C2116.83,-147.38 2571.27,-144.64 2945.5,-96 2952.85,-95.04 2960.49,-93.8 2968.08,-92.41"/>
<polygon fill="#63b8ff" stroke="#63b8ff" points="2968.84,-95.83 2978,-90.51 2967.52,-88.96 2968.84,-95.83"/>
</a>
</g>
</g>
<!-- Node16 -->
<g id="Node000016" class="node">
<title>Node16</title>
<g id="a_Node000016"><a xlink:title=" ">
<polygon fill="#e0e0e0" stroke="#999999" points="2005.5,-19 1955.5,-19 1955.5,0 2005.5,0 2005.5,-19"/>
<text text-anchor="middle" x="1980.5" y="-7" font-family="Helvetica,sans-Serif" font-size="10.00">cstdint</text>
</a>
</g>
</g>
<!-- Node15&#45;&gt;Node16 -->
<g id="edge15_Node000015_Node000016" class="edge">
<title>Node15&#45;&gt;Node16</title>
<g id="a_edge15_Node000015_Node000016"><a xlink:title=" ">
<path fill="none" stroke="#63b8ff" d="M1980.5,-60.3C1980.5,-51.2 1980.5,-39.29 1980.5,-29.4"/>
<polygon fill="#63b8ff" stroke="#63b8ff" points="1984,-29.34 1980.5,-19.34 1977,-29.34 1984,-29.34"/>
</a>
</g>
</g>
<!-- Node17&#45;&gt;Node12 -->
<g id="edge18_Node000017_Node000012" class="edge">
<title>Node17&#45;&gt;Node12</title>
<g id="a_edge18_Node000017_Node000012"><a xlink:title=" ">
<path fill="none" stroke="#63b8ff" d="M2644.53,-60.3C2629.86,-49.87 2609.99,-35.74 2595.16,-25.19"/>
<polygon fill="#63b8ff" stroke="#63b8ff" points="2596.85,-22.1 2586.68,-19.16 2592.8,-27.81 2596.85,-22.1"/>
</a>
</g>
</g>
<!-- Node17&#45;&gt;Node13 -->
<g id="edge19_Node000017_Node000013" class="edge">
<title>Node17&#45;&gt;Node13</title>
<g id="a_edge19_Node000017_Node000013"><a xlink:title=" ">
<path fill="none" stroke="#63b8ff" d="M2713.5,-60.4C2721.16,-58.44 2729.02,-56.56 2736.5,-55 2826.21,-36.27 2932.61,-22.44 2991.53,-15.5"/>
<polygon fill="#63b8ff" stroke="#63b8ff" points="2992.09,-18.96 3001.62,-14.33 2991.28,-12.01 2992.09,-18.96"/>
</a>
</g>
</g>
<!-- Node17&#45;&gt;Node14 -->
<g id="edge20_Node000017_Node000014" class="edge">
<title>Node17&#45;&gt;Node14</title>
<g id="a_edge20_Node000017_Node000014"><a xlink:title=" ">
<path fill="none" stroke="#63b8ff" d="M2602.47,-61.8C2587.18,-59.11 2570.8,-56.6 2555.5,-55 2279.45,-26.05 1379.35,-13.25 1195.48,-10.9"/>
<polygon fill="#63b8ff" stroke="#63b8ff" points="1195.4,-7.4 1185.36,-10.78 1195.31,-14.4 1195.4,-7.4"/>
</a>
</g>
</g>
<!-- Node18 -->
<g id="Node000018" class="node">
<title>Node18</title>
<g id="a_Node000018"><a xlink:title=" ">
<polygon fill="#e0e0e0" stroke="#999999" points="2701,-19 2628,-19 2628,0 2701,0 2701,-19"/>
<text text-anchor="middle" x="2664.5" y="-7" font-family="Helvetica,sans-Serif" font-size="10.00">string_view</text>
</a>
</g>
</g>
<!-- Node17&#45;&gt;Node18 -->
<g id="edge17_Node000017_Node000018" class="edge">
<title>Node17&#45;&gt;Node18</title>
<g id="a_edge17_Node000017_Node000018"><a xlink:title=" ">
<path fill="none" stroke="#63b8ff" d="M2664.5,-60.3C2664.5,-51.2 2664.5,-39.29 2664.5,-29.4"/>
<polygon fill="#63b8ff" stroke="#63b8ff" points="2668,-29.34 2664.5,-19.34 2661,-29.34 2668,-29.34"/>
</a>
</g>
</g>
<!-- Node20 -->
<g id="Node000020" class="node">
<title>Node20</title>
<g id="a_Node000020"><a xlink:title=" ">
<polygon fill="#e0e0e0" stroke="#999999" points="2335.5,-19 2275.5,-19 2275.5,0 2335.5,0 2335.5,-19"/>
<text text-anchor="middle" x="2305.5" y="-7" font-family="Helvetica,sans-Serif" font-size="10.00">ws2def.h</text>
</a>
</g>
</g>
<!-- Node19&#45;&gt;Node20 -->
<g id="edge22_Node000019_Node000020" class="edge">
<title>Node19&#45;&gt;Node20</title>
<g id="a_edge22_Node000019_Node000020"><a xlink:title=" ">
<path fill="none" stroke="#63b8ff" d="M2193.1,-60.45C2218.13,-49.33 2252.8,-33.92 2276.99,-23.17"/>
<polygon fill="#63b8ff" stroke="#63b8ff" points="2278.62,-26.28 2286.34,-19.02 2275.78,-19.88 2278.62,-26.28"/>
</a>
</g>
</g>
<!-- Node22 -->
<g id="Node000022" class="node">
<title>Node22</title>
<g id="a_Node000022"><a xlink:title=" ">
<polygon fill="#e0e0e0" stroke="#999999" points="310.5,-19 236.5,-19 236.5,0 310.5,0 310.5,-19"/>
<text text-anchor="middle" x="273.5" y="-7" font-family="Helvetica,sans-Serif" font-size="10.00">WinSock2.h</text>
</a>
</g>
</g>
<!-- Node21&#45;&gt;Node22 -->
<g id="edge24_Node000021_Node000022" class="edge">
<title>Node21&#45;&gt;Node22</title>
<g id="a_edge24_Node000021_Node000022"><a xlink:title=" ">
<path fill="none" stroke="#63b8ff" d="M273.5,-60.3C273.5,-51.2 273.5,-39.29 273.5,-29.4"/>
<polygon fill="#63b8ff" stroke="#63b8ff" points="277,-29.34 273.5,-19.34 270,-29.34 277,-29.34"/>
</a>
</g>
</g>
<!-- Node24 -->
<g id="Node000024" class="node">
<title>Node24</title>
<g id="a_Node000024"><a xlink:title=" ">
<polygon fill="#e0e0e0" stroke="#999999" points="1834,-19 1769,-19 1769,0 1834,0 1834,-19"/>
<text text-anchor="middle" x="1801.5" y="-7" font-family="Helvetica,sans-Serif" font-size="10.00">winerror.h</text>
</a>
</g>
</g>
<!-- Node23&#45;&gt;Node24 -->
<g id="edge26_Node000023_Node000024" class="edge">
<title>Node23&#45;&gt;Node24</title>
<g id="a_edge26_Node000023_Node000024"><a xlink:title=" ">
<path fill="none" stroke="#63b8ff" d="M1801.5,-60.3C1801.5,-51.2 1801.5,-39.29 1801.5,-29.4"/>
<polygon fill="#63b8ff" stroke="#63b8ff" points="1805,-29.34 1801.5,-19.34 1798,-29.34 1805,-29.34"/>
</a>
</g>
</g>
<!-- Node25&#45;&gt;Node20 -->
<g id="edge28_Node000025_Node000020" class="edge">
<title>Node25&#45;&gt;Node20</title>
<g id="a_edge28_Node000025_Node000020"><a xlink:title=" ">
<path fill="none" stroke="#63b8ff" d="M2418.68,-60.45C2393.47,-49.33 2358.57,-33.92 2334.21,-23.17"/>
<polygon fill="#63b8ff" stroke="#63b8ff" points="2335.36,-19.85 2324.8,-19.02 2332.53,-26.26 2335.36,-19.85"/>
</a>
</g>
</g>
<!-- Node26&#45;&gt;Node13 -->
<g id="edge30_Node000026_Node000013" class="edge">
<title>Node26&#45;&gt;Node13</title>
<g id="a_edge30_Node000026_Node000013"><a xlink:title=" ">
<path fill="none" stroke="#63b8ff" d="M3201.2,-60.45C3163.21,-48.93 3110.1,-32.82 3074.56,-22.04"/>
<polygon fill="#63b8ff" stroke="#63b8ff" points="3075.17,-18.57 3064.58,-19.02 3073.13,-25.27 3075.17,-18.57"/>
</a>
</g>
</g>
<!-- Node27&#45;&gt;Node14 -->
<g id="edge32_Node000027_Node000014" class="edge">
<title>Node27&#45;&gt;Node14</title>
<g id="a_edge32_Node000027_Node000014"><a xlink:title=" ">
<path fill="none" stroke="#63b8ff" d="M781.22,-60.48C791.34,-58.51 801.68,-56.62 811.5,-55 928.09,-35.79 1067.66,-20.32 1129.84,-13.82"/>
<polygon fill="#63b8ff" stroke="#63b8ff" points="1130.25,-17.3 1139.83,-12.78 1129.52,-10.34 1130.25,-17.3"/>
</a>
</g>
</g>
<!-- Node28&#45;&gt;Node22 -->
<g id="edge34_Node000028_Node000022" class="edge">
<title>Node28&#45;&gt;Node22</title>
<g id="a_edge34_Node000028_Node000022"><a xlink:title=" ">
<path fill="none" stroke="#63b8ff" d="M435.07,-60.45C397.81,-48.93 345.7,-32.82 310.84,-22.04"/>
<polygon fill="#63b8ff" stroke="#63b8ff" points="311.64,-18.63 301.05,-19.02 309.57,-25.32 311.64,-18.63"/>
</a>
</g>
</g>
<!-- Node29&#45;&gt;Node22 -->
<g id="edge36_Node000029_Node000022" class="edge">
<title>Node29&#45;&gt;Node22</title>
<g id="a_edge36_Node000029_Node000022"><a xlink:title=" ">
<path fill="none" stroke="#63b8ff" d="M122.07,-60.45C156.85,-48.98 205.41,-32.96 238.09,-22.18"/>
<polygon fill="#63b8ff" stroke="#63b8ff" points="239.28,-25.47 247.68,-19.02 237.09,-18.83 239.28,-25.47"/>
</a>
</g>
</g>
<!-- Node30&#45;&gt;Node14 -->
<g id="edge38_Node000030_Node000014" class="edge">
<title>Node30&#45;&gt;Node14</title>
<g id="a_edge38_Node000030_Node000014"><a xlink:title=" ">
<path fill="none" stroke="#63b8ff" d="M952.53,-60.45C1007.08,-47.48 1086.12,-28.67 1130.02,-18.23"/>
<polygon fill="#63b8ff" stroke="#63b8ff" points="1130.95,-21.6 1139.87,-15.88 1129.33,-14.79 1130.95,-21.6"/>
</a>
</g>
</g>
<!-- Node31&#45;&gt;Node13 -->
<g id="edge40_Node000031_Node000013" class="edge">
<title>Node31&#45;&gt;Node13</title>
<g id="a_edge40_Node000031_Node000013"><a xlink:title=" ">
<path fill="none" stroke="#63b8ff" d="M2883.51,-60.45C2918.64,-48.98 2967.71,-32.96 3000.72,-22.18"/>
<polygon fill="#63b8ff" stroke="#63b8ff" points="3002,-25.45 3010.42,-19.02 2999.82,-18.79 3002,-25.45"/>
</a>
</g>
</g>
<!-- Node32&#45;&gt;Node14 -->
<g id="edge42_Node000032_Node000014" class="edge">
<title>Node32&#45;&gt;Node14</title>
<g id="a_edge42_Node000032_Node000014"><a xlink:title=" ">
<path fill="none" stroke="#63b8ff" d="M1097.91,-54.95C1111.84,-45.37 1128.33,-34.02 1141.16,-25.19"/>
<polygon fill="#63b8ff" stroke="#63b8ff" points="1143.52,-27.81 1149.77,-19.26 1139.55,-22.05 1143.52,-27.81"/>
</a>
</g>
</g>
<!-- Node33&#45;&gt;Node14 -->
<g id="edge44_Node000033_Node000014" class="edge">
<title>Node33&#45;&gt;Node14</title>
<g id="a_edge44_Node000033_Node000014"><a xlink:title=" ">
<path fill="none" stroke="#63b8ff" d="M1227.79,-54.95C1213.57,-45.27 1196.72,-33.8 1183.69,-24.93"/>
<polygon fill="#63b8ff" stroke="#63b8ff" points="1185.6,-22 1175.37,-19.26 1181.66,-27.78 1185.6,-22"/>
</a>
</g>
</g>
<!-- Node34&#45;&gt;Node14 -->
<g id="edge46_Node000034_Node000014" class="edge">
<title>Node34&#45;&gt;Node14</title>
<g id="a_edge46_Node000034_Node000014"><a xlink:title=" ">
<path fill="none" stroke="#63b8ff" d="M1359.38,-55.99C1304.7,-43.36 1235.16,-27.29 1195.05,-18.02"/>
<polygon fill="#63b8ff" stroke="#63b8ff" points="1195.81,-14.6 1185.28,-15.76 1194.23,-21.42 1195.81,-14.6"/>
</a>
</g>
</g>
<!-- Node35&#45;&gt;Node14 -->
<g id="edge48_Node000035_Node000014" class="edge">
<title>Node35&#45;&gt;Node14</title>
<g id="a_edge48_Node000035_Node000014"><a xlink:title=" ">
<path fill="none" stroke="#63b8ff" d="M1537.04,-56.51C1534.16,-55.98 1531.31,-55.48 1528.5,-55 1406.51,-34.27 1260.05,-19.47 1195.64,-13.47"/>
<polygon fill="#63b8ff" stroke="#63b8ff" points="1195.59,-9.95 1185.31,-12.52 1194.95,-16.92 1195.59,-9.95"/>
</a>
</g>
</g>
<!-- Node36&#45;&gt;Node13 -->
<g id="edge50_Node000036_Node000013" class="edge">
<title>Node36&#45;&gt;Node13</title>
<g id="a_edge50_Node000036_Node000013"><a xlink:title=" ">
<path fill="none" stroke="#63b8ff" d="M3036.5,-60.3C3036.5,-51.2 3036.5,-39.29 3036.5,-29.4"/>
<polygon fill="#63b8ff" stroke="#63b8ff" points="3040,-29.34 3036.5,-19.34 3033,-29.34 3040,-29.34"/>
</a>
</g>
</g>
<!-- Node37&#45;&gt;Node5 -->
<g id="edge58_Node000037_Node000005" class="edge">
<title>Node37&#45;&gt;Node5</title>
<g id="a_edge58_Node000037_Node000005"><a xlink:title=" ">
<path fill="none" stroke="#63b8ff" d="M4014.74,-197.82C4010.24,-187.94 4004.44,-174.38 4000.5,-162 3993.31,-139.42 3987.83,-112.64 3984.65,-95.15"/>
<polygon fill="#63b8ff" stroke="#63b8ff" points="3988.07,-94.37 3982.89,-85.13 3981.17,-95.58 3988.07,-94.37"/>
</a>
</g>
</g>
<!-- Node37&#45;&gt;Node38 -->
<g id="edge52_Node000037_Node000038" class="edge">
<title>Node37&#45;&gt;Node38</title>
<g id="a_edge52_Node000037_Node000038"><a xlink:title=" ">
<path fill="none" stroke="#63b8ff" d="M3992.31,-197.95C3969.4,-186.93 3937.75,-171.7 3915.43,-160.96"/>
<polygon fill="#63b8ff" stroke="#63b8ff" points="3916.73,-157.7 3906.2,-156.52 3913.69,-164.01 3916.73,-157.7"/>
</a>
</g>
</g>
<!-- Node40 -->
<g id="Node000040" class="node">
<title>Node40</title>
<g id="a_Node000040"><a xlink:title=" ">
<polygon fill="#e0e0e0" stroke="#999999" points="4051.5,-156.5 4009.5,-156.5 4009.5,-137.5 4051.5,-137.5 4051.5,-156.5"/>
<text text-anchor="middle" x="4030.5" y="-144.5" font-family="Helvetica,sans-Serif" font-size="10.00">array</text>
</a>
</g>
</g>
<!-- Node37&#45;&gt;Node40 -->
<g id="edge54_Node000037_Node000040" class="edge">
<title>Node37&#45;&gt;Node40</title>
<g id="a_edge54_Node000037_Node000040"><a xlink:title=" ">
<path fill="none" stroke="#63b8ff" d="M4023.5,-197.8C4024.78,-188.7 4026.45,-176.79 4027.84,-166.9"/>
<polygon fill="#63b8ff" stroke="#63b8ff" points="4031.33,-167.23 4029.26,-156.84 4024.4,-166.26 4031.33,-167.23"/>
</a>
</g>
</g>
<!-- Node37&#45;&gt;Node41 -->
<g id="edge55_Node000037_Node000041" class="edge">
<title>Node37&#45;&gt;Node41</title>
<g id="a_edge55_Node000037_Node000041"><a xlink:title=" ">
<path fill="none" stroke="#63b8ff" d="M3950.55,-197.98C3910.43,-189.26 3859.61,-176.88 3815.5,-162 3814.06,-161.52 3812.6,-160.99 3811.14,-160.44"/>
<polygon fill="#63b8ff" stroke="#63b8ff" points="3812.14,-157.07 3801.56,-156.55 3809.51,-163.56 3812.14,-157.07"/>
</a>
</g>
</g>
<!-- Node42 -->
<g id="Node000042" class="node">
<title>Node42</title>
<g id="a_Node000042"><a xlink:title=" ">
<polygon fill="#e0e0e0" stroke="#999999" points="4121,-156.5 4070,-156.5 4070,-137.5 4121,-137.5 4121,-156.5"/>
<text text-anchor="middle" x="4095.5" y="-144.5" font-family="Helvetica,sans-Serif" font-size="10.00">variant</text>
</a>
</g>
</g>
<!-- Node37&#45;&gt;Node42 -->
<g id="edge56_Node000037_Node000042" class="edge">
<title>Node37&#45;&gt;Node42</title>
<g id="a_edge56_Node000037_Node000042"><a xlink:title=" ">
<path fill="none" stroke="#63b8ff" d="M4037.92,-197.8C4049.69,-187.62 4065.52,-173.93 4077.6,-163.48"/>
<polygon fill="#63b8ff" stroke="#63b8ff" points="4080,-166.03 4085.27,-156.84 4075.42,-160.74 4080,-166.03"/>
</a>
</g>
</g>
<!-- Node37&#45;&gt;Node43 -->
<g id="edge57_Node000037_Node000043" class="edge">
<title>Node37&#45;&gt;Node43</title>
<g id="a_edge57_Node000037_Node000043"><a xlink:title=" ">
<path fill="none" stroke="#63b8ff" d="M4099.29,-200.09C4104.1,-199.38 4108.86,-198.67 4113.5,-198 4228.51,-181.26 4259.89,-190.74 4372.5,-162 4374.95,-161.38 4377.45,-160.64 4379.95,-159.84"/>
<polygon fill="#63b8ff" stroke="#63b8ff" points="4381.12,-163.14 4389.41,-156.53 4378.81,-156.53 4381.12,-163.14"/>
</a>
</g>
</g>
<!-- Node44 -->
<g id="Node000044" class="node">
<title>Node44</title>
<g id="a_Node000044"><a xlink:title=" ">
<polygon fill="#e0e0e0" stroke="#999999" points="4189.5,-156.5 4139.5,-156.5 4139.5,-137.5 4189.5,-137.5 4189.5,-156.5"/>
<text text-anchor="middle" x="4164.5" y="-144.5" font-family="Helvetica,sans-Serif" font-size="10.00">format</text>
</a>
</g>
</g>
<!-- Node37&#45;&gt;Node44 -->
<g id="edge59_Node000037_Node000044" class="edge">
<title>Node37&#45;&gt;Node44</title>
<g id="a_edge59_Node000037_Node000044"><a xlink:title=" ">
<path fill="none" stroke="#63b8ff" d="M4052.88,-197.95C4077.74,-186.83 4112.16,-171.42 4136.18,-160.67"/>
<polygon fill="#63b8ff" stroke="#63b8ff" points="4137.77,-163.8 4145.47,-156.52 4134.91,-157.41 4137.77,-163.8"/>
</a>
</g>
</g>
<!-- Node45 -->
<g id="Node000045" class="node">
<title>Node45</title>
<g id="a_Node000045"><a xlink:title=" ">
<polygon fill="#e0e0e0" stroke="#999999" points="4363,-162 4208,-162 4208,-132 4363,-132 4363,-162"/>
<text text-anchor="start" x="4216" y="-150" font-family="Helvetica,sans-Serif" font-size="10.00">Hermes/Endpoint/IpEndpoint</text>
<text text-anchor="middle" x="4285.5" y="-139" font-family="Helvetica,sans-Serif" font-size="10.00">/IpAddress.tpp</text>
</a>
</g>
</g>
<!-- Node37&#45;&gt;Node45 -->
<g id="edge60_Node000037_Node000045" class="edge">
<title>Node37&#45;&gt;Node45</title>
<g id="a_edge60_Node000037_Node000045"><a xlink:title=" ">
<path fill="none" stroke="#63b8ff" d="M4079.44,-197.95C4120.27,-188.06 4175.09,-174.77 4217.92,-164.38"/>
<polygon fill="#63b8ff" stroke="#63b8ff" points="4218.81,-167.77 4227.7,-162.01 4217.16,-160.97 4218.81,-167.77"/>
</a>
</g>
</g>
<!-- Node39 -->
<g id="Node000039" class="node">
<title>Node39</title>
<g id="a_Node000039"><a xlink:title=" ">
<polygon fill="#e0e0e0" stroke="#999999" points="4068,-85 4023,-85 4023,-66 4068,-66 4068,-85"/>
<text text-anchor="middle" x="4045.5" y="-73" font-family="Helvetica,sans-Serif" font-size="10.00">utility</text>
</a>
</g>
</g>
<!-- Node38&#45;&gt;Node39 -->
<g id="edge53_Node000038_Node000039" class="edge">
<title>Node38&#45;&gt;Node39</title>
<g id="a_edge53_Node000038_Node000039"><a xlink:title=" ">
<path fill="none" stroke="#63b8ff" d="M3914.2,-137.37C3940.1,-128.31 3980.92,-113.04 4014.5,-96 4017.77,-94.34 4021.15,-92.43 4024.41,-90.48"/>
<polygon fill="#63b8ff" stroke="#63b8ff" points="4026.52,-93.29 4033.14,-85.01 4022.81,-87.36 4026.52,-93.29"/>
</a>
</g>
</g>
</g>
</svg>
