<?xml version="1.0" encoding="UTF-8" standalone="no"?>
<!DOCTYPE svg PUBLIC "-//W3C//DTD SVG 1.1//EN"
 "http://www.w3.org/Graphics/SVG/1.1/DTD/svg11.dtd">
<!-- Generated by graphviz version 2.43.0 (0)
 -->
<!-- Title: include/Hermes/Endpoint/IpEndpoint/IpEndpoint.hpp Pages: 1 -->
<svg width="1377pt" height="478pt"
 viewBox="0.00 0.00 1376.50 478.00" xmlns="http://www.w3.org/2000/svg" xmlns:xlink="http://www.w3.org/1999/xlink">
<g id="graph0" class="graph" transform="scale(1 1) rotate(0) translate(4 474)">
<title>include/Hermes/Endpoint/IpEndpoint/IpEndpoint.hpp</title>
<!-- Node1 -->
<g id="Node000001" class="node">
<title>Node1</title>
<g id="a_Node000001"><a xlink:title=" ">
<polygon fill="#999999" stroke="#666666" points="1187.5,-470 1040.5,-470 1040.5,-440 1187.5,-440 1187.5,-470"/>
<text text-anchor="start" x="1048.5" y="-458" font-family="Helvetica,sans-Serif" font-size="10.00">include/Hermes/Endpoint</text>
<text text-anchor="middle" x="1114" y="-447" font-family="Helvetica,sans-Serif" font-size="10.00">/IpEndpoint/IpEndpoint.hpp</text>
</a>
</g>
</g>
<!-- Node2 -->
<g id="Node000002" class="node">
<title>Node2</title>
<g id="a_Node000002"><a xlink:href="_default_socket_data_8hpp.html" target="_top" xlink:title=" ">
<polygon fill="white" stroke="#666666" points="836,-404 678,-404 678,-374 836,-374 836,-404"/>
<text text-anchor="start" x="686" y="-392" font-family="Helvetica,sans-Serif" font-size="10.00">include/Hermes/Socket</text>
<text text-anchor="middle" x="757" y="-381" font-family="Helvetica,sans-Serif" font-size="10.00">/Data/DefaultSocketData.hpp</text>
</a>
</g>
</g>
<!-- Node1&#45;&gt;Node2 -->
<g id="edge1_Node000001_Node000002" class="edge">
<title>Node1&#45;&gt;Node2</title>
<g id="a_edge1_Node000001_Node000002"><a xlink:title=" ">
<path fill="none" stroke="#63b8ff" d="M1030.44,-439.02C971.52,-428.46 893.13,-414.4 835.39,-404.05"/>
<polygon fill="#63b8ff" stroke="#63b8ff" points="1030,-442.5 1040.46,-440.82 1031.24,-435.61 1030,-442.5"/>
</a>
</g>
</g>
<!-- Node16 -->
<g id="Node000016" class="node">
<title>Node16</title>
<g id="a_Node000016"><a xlink:href="_default_connect_policy_8hpp.html" target="_top" xlink:title=" ">
<polygon fill="white" stroke="#666666" points="1246,-338 1102,-338 1102,-297 1246,-297 1246,-338"/>
<text text-anchor="start" x="1110" y="-326" font-family="Helvetica,sans-Serif" font-size="10.00">include/Hermes/Socket</text>
<text text-anchor="start" x="1110" y="-315" font-family="Helvetica,sans-Serif" font-size="10.00">/Sync/_base/Connection</text>
<text text-anchor="middle" x="1174" y="-304" font-family="Helvetica,sans-Serif" font-size="10.00">/DefaultConnectPolicy.hpp</text>
</a>
</g>
</g>
<!-- Node1&#45;&gt;Node16 -->
<g id="edge40_Node000001_Node000016" class="edge">
<title>Node1&#45;&gt;Node16</title>
<g id="a_edge40_Node000001_Node000016"><a xlink:title=" ">
<path fill="none" stroke="#63b8ff" d="M1124.37,-430.58C1135.93,-404.48 1154.42,-362.71 1165.27,-338.21"/>
<polygon fill="#63b8ff" stroke="#63b8ff" points="1121.16,-429.19 1120.31,-439.76 1127.56,-432.03 1121.16,-429.19"/>
</a>
</g>
</g>
<!-- Node18 -->
<g id="Node000018" class="node">
<title>Node18</title>
<g id="a_Node000018"><a xlink:href="_tls_connect_policy_8hpp.html" target="_top" xlink:title=" ">
<polygon fill="white" stroke="#666666" points="1337,-261 1205,-261 1205,-220 1337,-220 1337,-261"/>
<text text-anchor="start" x="1213" y="-249" font-family="Helvetica,sans-Serif" font-size="10.00">include/Hermes/Socket</text>
<text text-anchor="start" x="1213" y="-238" font-family="Helvetica,sans-Serif" font-size="10.00">/Sync/_base/Connection</text>
<text text-anchor="middle" x="1271" y="-227" font-family="Helvetica,sans-Serif" font-size="10.00">/TlsConnectPolicy.hpp</text>
</a>
</g>
</g>
<!-- Node1&#45;&gt;Node18 -->
<g id="edge41_Node000001_Node000018" class="edge">
<title>Node1&#45;&gt;Node18</title>
<g id="a_edge41_Node000001_Node000018"><a xlink:title=" ">
<path fill="none" stroke="#63b8ff" d="M1149.65,-434.8C1182.6,-415.06 1230.09,-381.17 1255,-338 1268.75,-314.17 1271.5,-281.86 1271.67,-261.34"/>
<polygon fill="#63b8ff" stroke="#63b8ff" points="1147.65,-431.91 1140.78,-439.98 1151.18,-437.96 1147.65,-431.91"/>
</a>
</g>
</g>
<!-- Node21 -->
<g id="Node000021" class="node">
<title>Node21</title>
<g id="a_Node000021"><a xlink:href="_tls_socket_data_8hpp.html" target="_top" xlink:title=" ">
<polygon fill="white" stroke="#666666" points="1083.5,-332.5 946.5,-332.5 946.5,-302.5 1083.5,-302.5 1083.5,-332.5"/>
<text text-anchor="start" x="954.5" y="-320.5" font-family="Helvetica,sans-Serif" font-size="10.00">include/Hermes/Socket</text>
<text text-anchor="middle" x="1015" y="-309.5" font-family="Helvetica,sans-Serif" font-size="10.00">/Data/TlsSocketData.hpp</text>
</a>
</g>
</g>
<!-- Node1&#45;&gt;Node21 -->
<g id="edge30_Node000001_Node000021" class="edge">
<title>Node1&#45;&gt;Node21</title>
<g id="a_edge30_Node000001_Node000021"><a xlink:title=" ">
<path fill="none" stroke="#63b8ff" d="M1097.44,-431.33C1076.86,-403.17 1042.38,-355.97 1025.27,-332.55"/>
<polygon fill="#63b8ff" stroke="#63b8ff" points="1094.87,-433.75 1103.59,-439.76 1100.52,-429.62 1094.87,-433.75"/>
</a>
</g>
</g>
<!-- Node3 -->
<g id="Node000003" class="node">
<title>Node3</title>
<g id="a_Node000003"><a xlink:href="_default_async_accept_policy_8hpp.html" target="_top" xlink:title=" ">
<polygon fill="white" stroke="#666666" points="489.5,-261 334.5,-261 334.5,-220 489.5,-220 489.5,-261"/>
<text text-anchor="start" x="342.5" y="-249" font-family="Helvetica,sans-Serif" font-size="10.00">include/Hermes/Socket</text>
<text text-anchor="start" x="342.5" y="-238" font-family="Helvetica,sans-Serif" font-size="10.00">/Async/_base/Accept/Default</text>
<text text-anchor="middle" x="412" y="-227" font-family="Helvetica,sans-Serif" font-size="10.00">AsyncAcceptPolicy.hpp</text>
</a>
</g>
</g>
<!-- Node2&#45;&gt;Node3 -->
<g id="edge2_Node000002_Node000003" class="edge">
<title>Node2&#45;&gt;Node3</title>
<g id="a_edge2_Node000002_Node000003"><a xlink:title=" ">
<path fill="none" stroke="#63b8ff" d="M714.36,-369.89C649.14,-342.2 525.15,-289.55 457.99,-261.03"/>
<polygon fill="#63b8ff" stroke="#63b8ff" points="713.35,-373.27 723.92,-373.95 716.08,-366.82 713.35,-373.27"/>
</a>
</g>
</g>
<!-- Node7 -->
<g id="Node000007" class="node">
<title>Node7</title>
<g id="a_Node000007"><a xlink:href="_default_async_connect_policy_8hpp.html" target="_top" xlink:title=" ">
<polygon fill="white" stroke="#666666" points="958.5,-184 785.5,-184 785.5,-143 958.5,-143 958.5,-184"/>
<text text-anchor="start" x="793.5" y="-172" font-family="Helvetica,sans-Serif" font-size="10.00">include/Hermes/Socket</text>
<text text-anchor="start" x="793.5" y="-161" font-family="Helvetica,sans-Serif" font-size="10.00">/Async/_base/Connection</text>
<text text-anchor="middle" x="872" y="-150" font-family="Helvetica,sans-Serif" font-size="10.00">/DefaultAsyncConnectPolicy.hpp</text>
</a>
</g>
</g>
<!-- Node2&#45;&gt;Node7 -->
<g id="edge6_Node000002_Node000007" class="edge">
<title>Node2&#45;&gt;Node7</title>
<g id="a_edge6_Node000002_Node000007"><a xlink:title=" ">
<path fill="none" stroke="#63b8ff" d="M755.94,-363.61C756.41,-343.29 760.38,-314.87 777,-297 815.2,-255.91 864.46,-305.98 898,-261 915.01,-238.19 899.56,-205 886.25,-184.09"/>
<polygon fill="#63b8ff" stroke="#63b8ff" points="752.44,-363.69 755.98,-373.68 759.44,-363.66 752.44,-363.69"/>
</a>
</g>
</g>
<!-- Node10 -->
<g id="Node000010" class="node">
<title>Node10</title>
<g id="a_Node000010"><a xlink:href="_default_async_transfer_policy_8hpp.html" target="_top" xlink:title=" ">
<polygon fill="white" stroke="#666666" points="719.5,-261 546.5,-261 546.5,-220 719.5,-220 719.5,-261"/>
<text text-anchor="start" x="554.5" y="-249" font-family="Helvetica,sans-Serif" font-size="10.00">include/Hermes/Socket</text>
<text text-anchor="start" x="554.5" y="-238" font-family="Helvetica,sans-Serif" font-size="10.00">/Async/_base/Transfer</text>
<text text-anchor="middle" x="633" y="-227" font-family="Helvetica,sans-Serif" font-size="10.00">/DefaultAsyncTransferPolicy.hpp</text>
</a>
</g>
</g>
<!-- Node2&#45;&gt;Node10 -->
<g id="edge10_Node000002_Node000010" class="edge">
<title>Node2&#45;&gt;Node10</title>
<g id="a_edge10_Node000002_Node000010"><a xlink:title=" ">
<path fill="none" stroke="#63b8ff" d="M738.55,-366.2C714.52,-337.82 672.88,-288.62 649.74,-261.27"/>
<polygon fill="#63b8ff" stroke="#63b8ff" points="735.98,-368.58 745.11,-373.95 741.32,-364.06 735.98,-368.58"/>
</a>
</g>
</g>
<!-- Node11 -->
<g id="Node000011" class="node">
<title>Node11</title>
<g id="a_Node000011"><a xlink:href="_default_accept_policy_8hpp.html" target="_top" xlink:title=" ">
<polygon fill="white" stroke="#666666" points="429,-338 247,-338 247,-297 429,-297 429,-338"/>
<text text-anchor="start" x="255" y="-326" font-family="Helvetica,sans-Serif" font-size="10.00">include/Hermes/Socket</text>
<text text-anchor="start" x="255" y="-315" font-family="Helvetica,sans-Serif" font-size="10.00">/Sync/_base/Accept/DefaultAccept</text>
<text text-anchor="middle" x="338" y="-304" font-family="Helvetica,sans-Serif" font-size="10.00">Policy.hpp</text>
</a>
</g>
</g>
<!-- Node2&#45;&gt;Node11 -->
<g id="edge13_Node000002_Node000011" class="edge">
<title>Node2&#45;&gt;Node11</title>
<g id="a_edge13_Node000002_Node000011"><a xlink:title=" ">
<path fill="none" stroke="#63b8ff" d="M667.54,-373.16C597.36,-361.52 500.04,-345.38 429.37,-333.66"/>
<polygon fill="#63b8ff" stroke="#63b8ff" points="667.26,-376.66 677.7,-374.85 668.4,-369.76 667.26,-376.66"/>
</a>
</g>
</g>
<!-- Node2&#45;&gt;Node16 -->
<g id="edge20_Node000002_Node000016" class="edge">
<title>Node2&#45;&gt;Node16</title>
<g id="a_edge20_Node000002_Node000016"><a xlink:title=" ">
<path fill="none" stroke="#63b8ff" d="M846.32,-376.9C914.24,-367.93 1009.85,-354.16 1093,-338 1095.84,-337.45 1098.73,-336.86 1101.65,-336.25"/>
<polygon fill="#63b8ff" stroke="#63b8ff" points="845.55,-373.47 836.09,-378.24 846.46,-380.41 845.55,-373.47"/>
</a>
</g>
</g>
<!-- Node20 -->
<g id="Node000020" class="node">
<title>Node20</title>
<g id="a_Node000020"><a xlink:href="_default_transfer_policy_8hpp.html" target="_top" xlink:title=" ">
<polygon fill="white" stroke="#666666" points="928.5,-338 785.5,-338 785.5,-297 928.5,-297 928.5,-338"/>
<text text-anchor="start" x="793.5" y="-326" font-family="Helvetica,sans-Serif" font-size="10.00">include/Hermes/Socket</text>
<text text-anchor="start" x="793.5" y="-315" font-family="Helvetica,sans-Serif" font-size="10.00">/Sync/_base/Transfer</text>
<text text-anchor="middle" x="857" y="-304" font-family="Helvetica,sans-Serif" font-size="10.00">/DefaultTransferPolicy.hpp</text>
</a>
</g>
</g>
<!-- Node2&#45;&gt;Node20 -->
<g id="edge27_Node000002_Node000020" class="edge">
<title>Node2&#45;&gt;Node20</title>
<g id="a_edge27_Node000002_Node000020"><a xlink:title=" ">
<path fill="none" stroke="#63b8ff" d="M785.71,-368.04C799.26,-358.63 815.36,-347.44 828.84,-338.07"/>
<polygon fill="#63b8ff" stroke="#63b8ff" points="783.45,-365.35 777.24,-373.94 787.45,-371.1 783.45,-365.35"/>
</a>
</g>
</g>
<!-- Node4 -->
<g id="Node000004" class="node">
<title>Node4</title>
<g id="a_Node000004"><a xlink:href="_async_server_socket_8hpp.html" target="_top" xlink:title=" ">
<polygon fill="white" stroke="#666666" points="689,-178.5 523,-178.5 523,-148.5 689,-148.5 689,-178.5"/>
<text text-anchor="start" x="531" y="-166.5" font-family="Helvetica,sans-Serif" font-size="10.00">include/Hermes/Socket</text>
<text text-anchor="middle" x="606" y="-155.5" font-family="Helvetica,sans-Serif" font-size="10.00">/Async/AsyncServerSocket.hpp</text>
</a>
</g>
</g>
<!-- Node3&#45;&gt;Node4 -->
<g id="edge3_Node000003_Node000004" class="edge">
<title>Node3&#45;&gt;Node4</title>
<g id="a_edge3_Node000003_Node000004"><a xlink:title=" ">
<path fill="none" stroke="#63b8ff" d="M472.14,-216.25C504.04,-203.92 542.18,-189.17 569.57,-178.58"/>
<polygon fill="#63b8ff" stroke="#63b8ff" points="470.53,-213.12 462.46,-219.99 473.05,-219.65 470.53,-213.12"/>
</a>
</g>
</g>
<!-- Node6 -->
<g id="Node000006" class="node">
<title>Node6</title>
<g id="a_Node000006"><a xlink:href="_tls_async_accept_policy_8hpp.html" target="_top" xlink:title=" ">
<polygon fill="white" stroke="#666666" points="497.5,-184 334.5,-184 334.5,-143 497.5,-143 497.5,-184"/>
<text text-anchor="start" x="342.5" y="-172" font-family="Helvetica,sans-Serif" font-size="10.00">include/Hermes/Socket</text>
<text text-anchor="start" x="342.5" y="-161" font-family="Helvetica,sans-Serif" font-size="10.00">/Async/_base/Accept/TlsAsync</text>
<text text-anchor="middle" x="416" y="-150" font-family="Helvetica,sans-Serif" font-size="10.00">AcceptPolicy.hpp</text>
</a>
</g>
</g>
<!-- Node3&#45;&gt;Node6 -->
<g id="edge5_Node000003_Node000006" class="edge">
<title>Node3&#45;&gt;Node6</title>
<g id="a_edge5_Node000003_Node000006"><a xlink:title=" ">
<path fill="none" stroke="#63b8ff" d="M413.59,-209.69C414.05,-201.08 414.54,-191.9 414.96,-184.07"/>
<polygon fill="#63b8ff" stroke="#63b8ff" points="410.09,-209.62 413.05,-219.79 417.08,-210 410.09,-209.62"/>
</a>
</g>
</g>
<!-- Node5 -->
<g id="Node000005" class="node">
<title>Node5</title>
<g id="a_Node000005"><a xlink:href="_async_listener_socket_8hpp.html" target="_top" xlink:title=" ">
<polygon fill="white" stroke="#666666" points="690.5,-101.5 517.5,-101.5 517.5,-71.5 690.5,-71.5 690.5,-101.5"/>
<text text-anchor="start" x="525.5" y="-89.5" font-family="Helvetica,sans-Serif" font-size="10.00">include/Hermes/Socket</text>
<text text-anchor="middle" x="604" y="-78.5" font-family="Helvetica,sans-Serif" font-size="10.00">/Async/AsyncListenerSocket.hpp</text>
</a>
</g>
</g>
<!-- Node4&#45;&gt;Node5 -->
<g id="edge4_Node000004_Node000005" class="edge">
<title>Node4&#45;&gt;Node5</title>
<g id="a_edge4_Node000004_Node000005"><a xlink:title=" ">
<path fill="none" stroke="#63b8ff" d="M605.35,-138.04C605.03,-125.95 604.65,-111.79 604.37,-101.54"/>
<polygon fill="#63b8ff" stroke="#63b8ff" points="601.86,-138.49 605.62,-148.39 608.86,-138.3 601.86,-138.49"/>
</a>
</g>
</g>
<!-- Node8 -->
<g id="Node000008" class="node">
<title>Node8</title>
<g id="a_Node000008"><a xlink:href="_async_client_socket_8hpp.html" target="_top" xlink:title=" ">
<polygon fill="white" stroke="#666666" points="857.5,-30 694.5,-30 694.5,0 857.5,0 857.5,-30"/>
<text text-anchor="start" x="702.5" y="-18" font-family="Helvetica,sans-Serif" font-size="10.00">include/Hermes/Socket</text>
<text text-anchor="middle" x="776" y="-7" font-family="Helvetica,sans-Serif" font-size="10.00">/Async/AsyncClientSocket.hpp</text>
</a>
</g>
</g>
<!-- Node7&#45;&gt;Node8 -->
<g id="edge7_Node000007_Node000008" class="edge">
<title>Node7&#45;&gt;Node8</title>
<g id="a_edge7_Node000007_Node000008"><a xlink:title=" ">
<path fill="none" stroke="#63b8ff" d="M853.37,-134.06C832.93,-102.88 800.96,-54.09 785.29,-30.18"/>
<polygon fill="#63b8ff" stroke="#63b8ff" points="850.64,-136.3 859.05,-142.74 856.5,-132.46 850.64,-136.3"/>
</a>
</g>
</g>
<!-- Node9 -->
<g id="Node000009" class="node">
<title>Node9</title>
<g id="a_Node000009"><a xlink:href="_tls_async_connect_policy_8hpp.html" target="_top" xlink:title=" ">
<polygon fill="white" stroke="#666666" points="1038,-107 886,-107 886,-66 1038,-66 1038,-107"/>
<text text-anchor="start" x="894" y="-95" font-family="Helvetica,sans-Serif" font-size="10.00">include/Hermes/Socket</text>
<text text-anchor="start" x="894" y="-84" font-family="Helvetica,sans-Serif" font-size="10.00">/Async/_base/Connection</text>
<text text-anchor="middle" x="962" y="-73" font-family="Helvetica,sans-Serif" font-size="10.00">/TlsAsyncConnectPolicy.hpp</text>
</a>
</g>
</g>
<!-- Node7&#45;&gt;Node9 -->
<g id="edge8_Node000007_Node000009" class="edge">
<title>Node7&#45;&gt;Node9</title>
<g id="a_edge8_Node000007_Node000009"><a xlink:title=" ">
<path fill="none" stroke="#63b8ff" d="M903.38,-136.35C914.92,-126.73 927.78,-116.01 938.51,-107.07"/>
<polygon fill="#63b8ff" stroke="#63b8ff" points="901.09,-133.7 895.65,-142.79 905.57,-139.08 901.09,-133.7"/>
</a>
</g>
</g>
<!-- Node9&#45;&gt;Node8 -->
<g id="edge9_Node000009_Node000008" class="edge">
<title>Node9&#45;&gt;Node8</title>
<g id="a_edge9_Node000009_Node000008"><a xlink:title=" ">
<path fill="none" stroke="#63b8ff" d="M900.15,-62.39C871.47,-51.67 838.31,-39.28 813.48,-30"/>
<polygon fill="#63b8ff" stroke="#63b8ff" points="899.1,-65.73 909.69,-65.96 901.55,-59.18 899.1,-65.73"/>
</a>
</g>
</g>
<!-- Node10&#45;&gt;Node4 -->
<g id="edge12_Node000010_Node000004" class="edge">
<title>Node10&#45;&gt;Node4</title>
<g id="a_edge12_Node000010_Node000004"><a xlink:title=" ">
<path fill="none" stroke="#63b8ff" d="M622.48,-210.27C618.6,-199.49 614.37,-187.75 611.17,-178.86"/>
<polygon fill="#63b8ff" stroke="#63b8ff" points="619.23,-211.57 625.91,-219.79 625.81,-209.2 619.23,-211.57"/>
</a>
</g>
</g>
<!-- Node10&#45;&gt;Node8 -->
<g id="edge11_Node000010_Node000008" class="edge">
<title>Node10&#45;&gt;Node8</title>
<g id="a_edge11_Node000010_Node000008"><a xlink:title=" ">
<path fill="none" stroke="#63b8ff" d="M669.11,-213.38C679.32,-204.82 689.86,-194.72 698,-184 736.5,-133.29 762.11,-60.52 771.73,-30.15"/>
<polygon fill="#63b8ff" stroke="#63b8ff" points="666.62,-210.9 661.04,-219.91 671.02,-216.34 666.62,-210.9"/>
</a>
</g>
</g>
<!-- Node11&#45;&gt;Node3 -->
<g id="edge14_Node000011_Node000003" class="edge">
<title>Node11&#45;&gt;Node3</title>
<g id="a_edge14_Node000011_Node000003"><a xlink:title=" ">
<path fill="none" stroke="#63b8ff" d="M364.63,-289.51C373.9,-280.11 384.12,-269.76 392.69,-261.07"/>
<polygon fill="#63b8ff" stroke="#63b8ff" points="361.97,-287.22 357.44,-296.79 366.96,-292.13 361.97,-287.22"/>
</a>
</g>
</g>
<!-- Node12 -->
<g id="Node000012" class="node">
<title>Node12</title>
<g id="a_Node000012"><a xlink:href="_server_socket_8hpp.html" target="_top" xlink:title=" ">
<polygon fill="white" stroke="#666666" points="137.5,-255.5 6.5,-255.5 6.5,-225.5 137.5,-225.5 137.5,-255.5"/>
<text text-anchor="start" x="14.5" y="-243.5" font-family="Helvetica,sans-Serif" font-size="10.00">include/Hermes/Socket</text>
<text text-anchor="middle" x="72" y="-232.5" font-family="Helvetica,sans-Serif" font-size="10.00">/Sync/ServerSocket.hpp</text>
</a>
</g>
</g>
<!-- Node11&#45;&gt;Node12 -->
<g id="edge15_Node000011_Node000012" class="edge">
<title>Node11&#45;&gt;Node12</title>
<g id="a_edge15_Node000011_Node000012"><a xlink:title=" ">
<path fill="none" stroke="#63b8ff" d="M258.91,-294.2C214.52,-281.68 160.48,-266.45 121.95,-255.58"/>
<polygon fill="#63b8ff" stroke="#63b8ff" points="258.23,-297.65 268.81,-296.99 260.13,-290.91 258.23,-297.65"/>
</a>
</g>
</g>
<!-- Node14 -->
<g id="Node000014" class="node">
<title>Node14</title>
<g id="a_Node000014"><a xlink:href="_tls_accept_policy_8hpp.html" target="_top" xlink:title=" ">
<polygon fill="white" stroke="#666666" points="316.5,-261 155.5,-261 155.5,-220 316.5,-220 316.5,-261"/>
<text text-anchor="start" x="163.5" y="-249" font-family="Helvetica,sans-Serif" font-size="10.00">include/Hermes/Socket</text>
<text text-anchor="start" x="163.5" y="-238" font-family="Helvetica,sans-Serif" font-size="10.00">/Sync/_base/Accept/TlsAccept</text>
<text text-anchor="middle" x="236" y="-227" font-family="Helvetica,sans-Serif" font-size="10.00">Policy.hpp</text>
</a>
</g>
</g>
<!-- Node11&#45;&gt;Node14 -->
<g id="edge17_Node000011_Node000014" class="edge">
<title>Node11&#45;&gt;Node14</title>
<g id="a_edge17_Node000011_Node000014"><a xlink:title=" ">
<path fill="none" stroke="#63b8ff" d="M303.07,-290.82C289.88,-281.11 275.08,-270.24 262.75,-261.17"/>
<polygon fill="#63b8ff" stroke="#63b8ff" points="301.34,-293.89 311.47,-296.99 305.48,-288.25 301.34,-293.89"/>
</a>
</g>
</g>
<!-- Node13 -->
<g id="Node000013" class="node">
<title>Node13</title>
<g id="a_Node000013"><a xlink:href="_listener_socket_8hpp.html" target="_top" xlink:title=" ">
<polygon fill="white" stroke="#666666" points="138,-178.5 0,-178.5 0,-148.5 138,-148.5 138,-178.5"/>
<text text-anchor="start" x="8" y="-166.5" font-family="Helvetica,sans-Serif" font-size="10.00">include/Hermes/Socket</text>
<text text-anchor="middle" x="69" y="-155.5" font-family="Helvetica,sans-Serif" font-size="10.00">/Sync/ListenerSocket.hpp</text>
</a>
</g>
</g>
<!-- Node12&#45;&gt;Node13 -->
<g id="edge16_Node000012_Node000013" class="edge">
<title>Node12&#45;&gt;Node13</title>
<g id="a_edge16_Node000012_Node000013"><a xlink:title=" ">
<path fill="none" stroke="#63b8ff" d="M71.02,-215.04C70.54,-202.95 69.97,-188.79 69.56,-178.54"/>
<polygon fill="#63b8ff" stroke="#63b8ff" points="67.54,-215.54 71.44,-225.39 74.53,-215.26 67.54,-215.54"/>
</a>
</g>
</g>
<!-- Node14&#45;&gt;Node6 -->
<g id="edge18_Node000014_Node000006" class="edge">
<title>Node14&#45;&gt;Node6</title>
<g id="a_edge18_Node000014_Node000006"><a xlink:title=" ">
<path fill="none" stroke="#63b8ff" d="M292.08,-216.13C316.81,-205.83 345.53,-193.86 369.1,-184.04"/>
<polygon fill="#63b8ff" stroke="#63b8ff" points="290.71,-212.91 282.82,-219.99 293.4,-219.37 290.71,-212.91"/>
</a>
</g>
</g>
<!-- Node15 -->
<g id="Node000015" class="node">
<title>Node15</title>
<g id="a_Node000015"><a xlink:href="_tls_accept_state_machine_8hpp.html" target="_top" xlink:title=" ">
<polygon fill="white" stroke="#666666" points="316,-184 156,-184 156,-143 316,-143 316,-184"/>
<text text-anchor="start" x="164" y="-172" font-family="Helvetica,sans-Serif" font-size="10.00">include/Hermes/Socket</text>
<text text-anchor="start" x="164" y="-161" font-family="Helvetica,sans-Serif" font-size="10.00">/_base/Accept/TlsAcceptState</text>
<text text-anchor="middle" x="236" y="-150" font-family="Helvetica,sans-Serif" font-size="10.00">Machine.hpp</text>
</a>
</g>
</g>
<!-- Node14&#45;&gt;Node15 -->
<g id="edge19_Node000014_Node000015" class="edge">
<title>Node14&#45;&gt;Node15</title>
<g id="a_edge19_Node000014_Node000015"><a xlink:title=" ">
<path fill="none" stroke="#63b8ff" d="M236,-209.69C236,-201.08 236,-191.9 236,-184.07"/>
<polygon fill="#63b8ff" stroke="#63b8ff" points="232.5,-209.79 236,-219.79 239.5,-209.79 232.5,-209.79"/>
</a>
</g>
</g>
<!-- Node17 -->
<g id="Node000017" class="node">
<title>Node17</title>
<g id="a_Node000017"><a xlink:href="_client_socket_8hpp.html" target="_top" xlink:title=" ">
<polygon fill="white" stroke="#666666" points="1149,-178.5 1021,-178.5 1021,-148.5 1149,-148.5 1149,-178.5"/>
<text text-anchor="start" x="1029" y="-166.5" font-family="Helvetica,sans-Serif" font-size="10.00">include/Hermes/Socket</text>
<text text-anchor="middle" x="1085" y="-155.5" font-family="Helvetica,sans-Serif" font-size="10.00">/Sync/ClientSocket.hpp</text>
</a>
</g>
</g>
<!-- Node16&#45;&gt;Node17 -->
<g id="edge21_Node000016_Node000017" class="edge">
<title>Node16&#45;&gt;Node17</title>
<g id="a_edge21_Node000016_Node000017"><a xlink:title=" ">
<path fill="none" stroke="#63b8ff" d="M1174.65,-286.76C1173.81,-266.61 1170.11,-240.09 1158,-220 1147.31,-202.28 1128.66,-188.24 1112.88,-178.72"/>
<polygon fill="#63b8ff" stroke="#63b8ff" points="1171.16,-287.01 1174.86,-296.93 1178.15,-286.86 1171.16,-287.01"/>
</a>
</g>
</g>
<!-- Node16&#45;&gt;Node18 -->
<g id="edge22_Node000016_Node000018" class="edge">
<title>Node16&#45;&gt;Node18</title>
<g id="a_edge22_Node000016_Node000018"><a xlink:title=" ">
<path fill="none" stroke="#63b8ff" d="M1207.22,-290.82C1219.77,-281.11 1233.83,-270.24 1245.56,-261.17"/>
<polygon fill="#63b8ff" stroke="#63b8ff" points="1205,-288.1 1199.23,-296.99 1209.28,-293.64 1205,-288.1"/>
</a>
</g>
</g>
<!-- Node18&#45;&gt;Node7 -->
<g id="edge23_Node000018_Node000007" class="edge">
<title>Node18&#45;&gt;Node7</title>
<g id="a_edge23_Node000018_Node000007"><a xlink:title=" ">
<path fill="none" stroke="#63b8ff" d="M1194.54,-225.13C1127.15,-212.46 1029.04,-194.02 958.75,-180.81"/>
<polygon fill="#63b8ff" stroke="#63b8ff" points="1194.19,-228.62 1204.67,-227.03 1195.48,-221.74 1194.19,-228.62"/>
</a>
</g>
</g>
<!-- Node18&#45;&gt;Node9 -->
<g id="edge24_Node000018_Node000009" class="edge">
<title>Node18&#45;&gt;Node9</title>
<g id="a_edge24_Node000018_Node000009"><a xlink:title=" ">
<path fill="none" stroke="#63b8ff" d="M1234.48,-213.99C1222.22,-204.94 1208.7,-194.41 1197,-184 1178.21,-167.29 1179.53,-156 1158,-143 1121.67,-121.07 1076.33,-107.5 1038.41,-99.28"/>
<polygon fill="#63b8ff" stroke="#63b8ff" points="1232.58,-216.94 1242.73,-220 1236.71,-211.28 1232.58,-216.94"/>
</a>
</g>
</g>
<!-- Node18&#45;&gt;Node17 -->
<g id="edge25_Node000018_Node000017" class="edge">
<title>Node18&#45;&gt;Node17</title>
<g id="a_edge25_Node000018_Node000017"><a xlink:title=" ">
<path fill="none" stroke="#63b8ff" d="M1213.34,-216.25C1182.76,-203.92 1146.19,-189.17 1119.92,-178.58"/>
<polygon fill="#63b8ff" stroke="#63b8ff" points="1212.03,-219.5 1222.62,-219.99 1214.65,-213 1212.03,-219.5"/>
</a>
</g>
</g>
<!-- Node19 -->
<g id="Node000019" class="node">
<title>Node19</title>
<g id="a_Node000019"><a xlink:href="_tls_connect_state_machine_8hpp.html" target="_top" xlink:title=" ">
<polygon fill="white" stroke="#666666" points="1368.5,-184 1205.5,-184 1205.5,-143 1368.5,-143 1368.5,-184"/>
<text text-anchor="start" x="1213.5" y="-172" font-family="Helvetica,sans-Serif" font-size="10.00">include/Hermes/Socket</text>
<text text-anchor="start" x="1213.5" y="-161" font-family="Helvetica,sans-Serif" font-size="10.00">/_base/Connection/TlsConnect</text>
<text text-anchor="middle" x="1287" y="-150" font-family="Helvetica,sans-Serif" font-size="10.00">StateMachine.hpp</text>
</a>
</g>
</g>
<!-- Node18&#45;&gt;Node19 -->
<g id="edge26_Node000018_Node000019" class="edge">
<title>Node18&#45;&gt;Node19</title>
<g id="a_edge26_Node000018_Node000019"><a xlink:title=" ">
<path fill="none" stroke="#63b8ff" d="M1277.3,-209.98C1279.15,-201.28 1281.14,-191.98 1282.82,-184.07"/>
<polygon fill="#63b8ff" stroke="#63b8ff" points="1273.87,-209.28 1275.2,-219.79 1280.71,-210.74 1273.87,-209.28"/>
</a>
</g>
</g>
<!-- Node20&#45;&gt;Node12 -->
<g id="edge29_Node000020_Node000012" class="edge">
<title>Node20&#45;&gt;Node12</title>
<g id="a_edge29_Node000020_Node000012"><a xlink:title=" ">
<path fill="none" stroke="#63b8ff" d="M775.23,-314.88C642.38,-311.19 371.75,-299.24 146,-261 137.62,-259.58 128.8,-257.65 120.29,-255.56"/>
<polygon fill="#63b8ff" stroke="#63b8ff" points="775.24,-318.38 785.33,-315.16 775.43,-311.39 775.24,-318.38"/>
</a>
</g>
</g>
<!-- Node20&#45;&gt;Node17 -->
<g id="edge28_Node000020_Node000017" class="edge">
<title>Node20&#45;&gt;Node17</title>
<g id="a_edge28_Node000020_Node000017"><a xlink:title=" ">
<path fill="none" stroke="#63b8ff" d="M894.67,-291.39C943.05,-259.14 1025.34,-204.27 1063.9,-178.57"/>
<polygon fill="#63b8ff" stroke="#63b8ff" points="892.72,-288.48 886.34,-296.94 896.6,-294.3 892.72,-288.48"/>
</a>
</g>
</g>
<!-- Node21&#45;&gt;Node6 -->
<g id="edge31_Node000021_Node000006" class="edge">
<title>Node21&#45;&gt;Node6</title>
<g id="a_edge31_Node000021_Node000006"><a xlink:title=" ">
<path fill="none" stroke="#63b8ff" d="M954.4,-300.2C948.88,-299 943.35,-297.91 938,-297 849.8,-281.97 617.56,-299.91 537,-261 514.35,-250.06 517.19,-236.25 498,-220 482.52,-206.89 463.89,-194.07 448.3,-184.07"/>
<polygon fill="#63b8ff" stroke="#63b8ff" points="953.77,-303.65 964.3,-302.45 955.32,-296.82 953.77,-303.65"/>
</a>
</g>
</g>
<!-- Node21&#45;&gt;Node9 -->
<g id="edge32_Node000021_Node000009" class="edge">
<title>Node21&#45;&gt;Node9</title>
<g id="a_edge32_Node000021_Node000009"><a xlink:title=" ">
<path fill="none" stroke="#63b8ff" d="M1009.39,-292.27C998.84,-246.69 976.24,-149.02 966.55,-107.18"/>
<polygon fill="#63b8ff" stroke="#63b8ff" points="1006.02,-293.22 1011.68,-302.18 1012.84,-291.64 1006.02,-293.22"/>
</a>
</g>
</g>
<!-- Node21&#45;&gt;Node14 -->
<g id="edge36_Node000021_Node000014" class="edge">
<title>Node21&#45;&gt;Node14</title>
<g id="a_edge36_Node000021_Node000014"><a xlink:title=" ">
<path fill="none" stroke="#63b8ff" d="M955.39,-300.22C949.54,-298.98 943.67,-297.88 938,-297 668.29,-255.31 595.35,-298.32 325,-261 322.34,-260.63 319.63,-260.23 316.91,-259.79"/>
<polygon fill="#63b8ff" stroke="#63b8ff" points="954.64,-303.64 965.16,-302.42 956.17,-296.81 954.64,-303.64"/>
</a>
</g>
</g>
<!-- Node21&#45;&gt;Node18 -->
<g id="edge37_Node000021_Node000018" class="edge">
<title>Node21&#45;&gt;Node18</title>
<g id="a_edge37_Node000021_Node000018"><a xlink:title=" ">
<path fill="none" stroke="#63b8ff" d="M1072.52,-299.65C1111.68,-288.18 1163.63,-272.96 1204.56,-260.97"/>
<polygon fill="#63b8ff" stroke="#63b8ff" points="1071.46,-296.31 1062.85,-302.48 1073.43,-303.03 1071.46,-296.31"/>
</a>
</g>
</g>
<!-- Node22 -->
<g id="Node000022" class="node">
<title>Node22</title>
<g id="a_Node000022"><a xlink:href="_tls_async_transfer_policy_8hpp.html" target="_top" xlink:title=" ">
<polygon fill="white" stroke="#666666" points="888.5,-261 737.5,-261 737.5,-220 888.5,-220 888.5,-261"/>
<text text-anchor="start" x="745.5" y="-249" font-family="Helvetica,sans-Serif" font-size="10.00">include/Hermes/Socket</text>
<text text-anchor="start" x="745.5" y="-238" font-family="Helvetica,sans-Serif" font-size="10.00">/Async/_base/Transfer</text>
<text text-anchor="middle" x="813" y="-227" font-family="Helvetica,sans-Serif" font-size="10.00">/TlsAsyncTransferPolicy.hpp</text>
</a>
</g>
</g>
<!-- Node21&#45;&gt;Node22 -->
<g id="edge33_Node000021_Node000022" class="edge">
<title>Node21&#45;&gt;Node22</title>
<g id="a_edge33_Node000021_Node000022"><a xlink:title=" ">
<path fill="none" stroke="#63b8ff" d="M967.43,-298.84C936.89,-287.5 897.19,-272.76 865.69,-261.06"/>
<polygon fill="#63b8ff" stroke="#63b8ff" points="966.41,-302.19 977.01,-302.39 968.85,-295.63 966.41,-302.19"/>
</a>
</g>
</g>
<!-- Node23 -->
<g id="Node000023" class="node">
<title>Node23</title>
<g id="a_Node000023"><a xlink:href="_tls_transfer_policy_8hpp.html" target="_top" xlink:title=" ">
<polygon fill="white" stroke="#666666" points="1149,-261 1021,-261 1021,-220 1149,-220 1149,-261"/>
<text text-anchor="start" x="1029" y="-249" font-family="Helvetica,sans-Serif" font-size="10.00">include/Hermes/Socket</text>
<text text-anchor="start" x="1029" y="-238" font-family="Helvetica,sans-Serif" font-size="10.00">/Sync/_base/Transfer</text>
<text text-anchor="middle" x="1085" y="-227" font-family="Helvetica,sans-Serif" font-size="10.00">/TlsTransferPolicy.hpp</text>
</a>
</g>
</g>
<!-- Node21&#45;&gt;Node23 -->
<g id="edge38_Node000021_Node000023" class="edge">
<title>Node21&#45;&gt;Node23</title>
<g id="a_edge38_Node000021_Node000023"><a xlink:title=" ">
<path fill="none" stroke="#63b8ff" d="M1035,-295.07C1044.95,-284.41 1056.89,-271.62 1066.61,-261.2"/>
<polygon fill="#63b8ff" stroke="#63b8ff" points="1032.43,-292.69 1028.17,-302.39 1037.55,-297.47 1032.43,-292.69"/>
</a>
</g>
</g>
<!-- Node22&#45;&gt;Node4 -->
<g id="edge35_Node000022_Node000004" class="edge">
<title>Node22&#45;&gt;Node4</title>
<g id="a_edge35_Node000022_Node000004"><a xlink:title=" ">
<path fill="none" stroke="#63b8ff" d="M749.7,-216.57C715.5,-204.17 674.35,-189.26 644.87,-178.58"/>
<polygon fill="#63b8ff" stroke="#63b8ff" points="748.56,-219.87 759.15,-219.99 750.94,-213.29 748.56,-219.87"/>
</a>
</g>
</g>
<!-- Node22&#45;&gt;Node8 -->
<g id="edge34_Node000022_Node000008" class="edge">
<title>Node22&#45;&gt;Node8</title>
<g id="a_edge34_Node000022_Node000008"><a xlink:title=" ">
<path fill="none" stroke="#63b8ff" d="M790.5,-211.55C785.01,-203.17 779.88,-193.64 777,-184 760.62,-129.23 768.73,-59.85 773.44,-30.33"/>
<polygon fill="#63b8ff" stroke="#63b8ff" points="787.68,-213.63 796.28,-219.82 793.42,-209.62 787.68,-213.63"/>
</a>
</g>
</g>
<!-- Node23&#45;&gt;Node17 -->
<g id="edge39_Node000023_Node000017" class="edge">
<title>Node23&#45;&gt;Node17</title>
<g id="a_edge39_Node000023_Node000017"><a xlink:title=" ">
<path fill="none" stroke="#63b8ff" d="M1085,-209.61C1085,-199.01 1085,-187.57 1085,-178.86"/>
<polygon fill="#63b8ff" stroke="#63b8ff" points="1081.5,-209.79 1085,-219.79 1088.5,-209.79 1081.5,-209.79"/>
</a>
</g>
</g>
</g>
</svg>
