<?xml version="1.0" encoding="UTF-8" standalone="no"?>
<!DOCTYPE svg PUBLIC "-//W3C//DTD SVG 1.1//EN"
 "http://www.w3.org/Graphics/SVG/1.1/DTD/svg11.dtd">
<!-- Generated by graphviz version 2.43.0 (0)
 -->
<!-- Title: include/Hermes/Endpoint/IpEndpoint/IpEndpoint.hpp Pages: 1 -->
<svg width="3394pt" height="302pt"
 viewBox="0.00 0.00 3393.89 302.00" xmlns="http://www.w3.org/2000/svg" xmlns:xlink="http://www.w3.org/1999/xlink">
<g id="graph0" class="graph" transform="scale(1 1) rotate(0) translate(4 298)">
<title>include/Hermes/Endpoint/IpEndpoint/IpEndpoint.hpp</title>
<!-- Node1 -->
<g id="Node000001" class="node">
<title>Node1</title>
<g id="a_Node000001"><a xlink:title=" ">
<polygon fill="#999999" stroke="#666666" points="3002.39,-294 2855.39,-294 2855.39,-264 3002.39,-264 3002.39,-294"/>
<text text-anchor="start" x="2863.39" y="-282" font-family="Helvetica,sans-Serif" font-size="10.00">include/Hermes/Endpoint</text>
<text text-anchor="middle" x="2928.89" y="-271" font-family="Helvetica,sans-Serif" font-size="10.00">/IpEndpoint/IpEndpoint.hpp</text>
</a>
</g>
</g>
<!-- Node2 -->
<g id="Node000002" class="node">
<title>Node2</title>
<g id="a_Node000002"><a xlink:href="_endpoint_concept_8hpp.html" target="_top" xlink:title=" ">
<polygon fill="white" stroke="#666666" points="2623.89,-228 2491.89,-228 2491.89,-198 2623.89,-198 2623.89,-228"/>
<text text-anchor="start" x="2499.89" y="-216" font-family="Helvetica,sans-Serif" font-size="10.00">Hermes/Endpoint/_base</text>
<text text-anchor="middle" x="2557.89" y="-205" font-family="Helvetica,sans-Serif" font-size="10.00">/EndpointConcept.hpp</text>
</a>
</g>
</g>
<!-- Node1&#45;&gt;Node2 -->
<g id="edge1_Node000001_Node000002" class="edge">
<title>Node1&#45;&gt;Node2</title>
<g id="a_edge1_Node000001_Node000002"><a xlink:title=" ">
<path fill="none" stroke="#63b8ff" d="M2855.15,-265.28C2791.16,-254.24 2698.89,-238.32 2634.17,-227.16"/>
<polygon fill="#63b8ff" stroke="#63b8ff" points="2634.47,-223.66 2624.02,-225.41 2633.28,-230.56 2634.47,-223.66"/>
</a>
</g>
</g>
<!-- Node28 -->
<g id="Node000028" class="node">
<title>Node28</title>
<g id="a_Node000028"><a xlink:href="_ip_address_8hpp.html" target="_top" xlink:title=" ">
<polygon fill="white" stroke="#666666" points="3059.39,-228 2904.39,-228 2904.39,-198 3059.39,-198 3059.39,-228"/>
<text text-anchor="start" x="2912.39" y="-216" font-family="Helvetica,sans-Serif" font-size="10.00">Hermes/Endpoint/IpEndpoint</text>
<text text-anchor="middle" x="2981.89" y="-205" font-family="Helvetica,sans-Serif" font-size="10.00">/IpAddress.hpp</text>
</a>
</g>
</g>
<!-- Node1&#45;&gt;Node28 -->
<g id="edge33_Node000001_Node000028" class="edge">
<title>Node1&#45;&gt;Node28</title>
<g id="a_edge33_Node000001_Node000028"><a xlink:title=" ">
<path fill="none" stroke="#63b8ff" d="M2940.65,-263.8C2947.44,-255.59 2956.13,-245.1 2963.78,-235.87"/>
<polygon fill="#63b8ff" stroke="#63b8ff" points="2966.48,-238.1 2970.16,-228.16 2961.08,-233.63 2966.48,-238.1"/>
</a>
</g>
</g>
<!-- Node29 -->
<g id="Node000029" class="node">
<title>Node29</title>
<g id="a_Node000029"><a xlink:href="_hash_8hpp.html" target="_top" xlink:title=" ">
<polygon fill="white" stroke="#666666" points="2839.39,-156.5 2710.39,-156.5 2710.39,-137.5 2839.39,-137.5 2839.39,-156.5"/>
<text text-anchor="middle" x="2774.89" y="-144.5" font-family="Helvetica,sans-Serif" font-size="10.00">Hermes/Utils/Hash.hpp</text>
</a>
</g>
</g>
<!-- Node1&#45;&gt;Node29 -->
<g id="edge44_Node000001_Node000029" class="edge">
<title>Node1&#45;&gt;Node29</title>
<g id="a_edge44_Node000001_Node000029"><a xlink:title=" ">
<path fill="none" stroke="#63b8ff" d="M2912.11,-263.84C2883.02,-239.28 2823.44,-188.99 2793.27,-163.52"/>
<polygon fill="#63b8ff" stroke="#63b8ff" points="2795.15,-160.52 2785.25,-156.75 2790.63,-165.87 2795.15,-160.52"/>
</a>
</g>
</g>
<!-- Node33 -->
<g id="Node000033" class="node">
<title>Node33</title>
<g id="a_Node000033"><a xlink:title=" ">
<polygon fill="#e0e0e0" stroke="#999999" points="2901.89,-156.5 2857.89,-156.5 2857.89,-137.5 2901.89,-137.5 2901.89,-156.5"/>
<text text-anchor="middle" x="2879.89" y="-144.5" font-family="Helvetica,sans-Serif" font-size="10.00">string</text>
</a>
</g>
</g>
<!-- Node1&#45;&gt;Node33 -->
<g id="edge46_Node000001_Node000033" class="edge">
<title>Node1&#45;&gt;Node33</title>
<g id="a_edge46_Node000001_Node000033"><a xlink:title=" ">
<path fill="none" stroke="#63b8ff" d="M2917.48,-263.96C2910.25,-254.37 2901.27,-241.08 2895.89,-228 2887.65,-207.99 2883.55,-183.38 2881.58,-166.78"/>
<polygon fill="#63b8ff" stroke="#63b8ff" points="2885.05,-166.31 2880.53,-156.72 2878.09,-167.03 2885.05,-166.31"/>
</a>
</g>
</g>
<!-- Node35 -->
<g id="Node000035" class="node">
<title>Node35</title>
<g id="a_Node000035"><a xlink:title=" ">
<polygon fill="#e0e0e0" stroke="#999999" points="3385.89,-156.5 3329.89,-156.5 3329.89,-137.5 3385.89,-137.5 3385.89,-156.5"/>
<text text-anchor="middle" x="3357.89" y="-144.5" font-family="Helvetica,sans-Serif" font-size="10.00">optional</text>
</a>
</g>
</g>
<!-- Node1&#45;&gt;Node35 -->
<g id="edge45_Node000001_Node000035" class="edge">
<title>Node1&#45;&gt;Node35</title>
<g id="a_edge45_Node000001_Node000035"><a xlink:title=" ">
<path fill="none" stroke="#63b8ff" d="M2980.09,-263.95C3007.34,-255.44 3040.91,-243.26 3068.89,-228 3088.09,-217.53 3087.85,-206.75 3107.89,-198 3195.88,-159.59 3228.22,-187.11 3320.89,-162 3323.18,-161.38 3325.53,-160.67 3327.88,-159.91"/>
<polygon fill="#63b8ff" stroke="#63b8ff" points="3329.1,-163.19 3337.38,-156.57 3326.78,-156.58 3329.1,-163.19"/>
</a>
</g>
</g>
<!-- Node38 -->
<g id="Node000038" class="node">
<title>Node38</title>
<g id="a_Node000038"><a xlink:title=" ">
<polygon fill="#e0e0e0" stroke="#999999" points="3271.39,-228 3116.39,-228 3116.39,-198 3271.39,-198 3271.39,-228"/>
<text text-anchor="start" x="3124.39" y="-216" font-family="Helvetica,sans-Serif" font-size="10.00">Hermes/Endpoint/IpEndpoint</text>
<text text-anchor="middle" x="3193.89" y="-205" font-family="Helvetica,sans-Serif" font-size="10.00">/IpEndpoint.tpp</text>
</a>
</g>
</g>
<!-- Node1&#45;&gt;Node38 -->
<g id="edge47_Node000001_Node000038" class="edge">
<title>Node1&#45;&gt;Node38</title>
<g id="a_edge47_Node000001_Node000038"><a xlink:title=" ">
<path fill="none" stroke="#63b8ff" d="M2987.04,-263.95C3028.03,-254.06 3083.06,-240.77 3126.05,-230.38"/>
<polygon fill="#63b8ff" stroke="#63b8ff" points="3126.97,-233.76 3135.87,-228.01 3125.33,-226.96 3126.97,-233.76"/>
</a>
</g>
</g>
<!-- Node3 -->
<g id="Node000003" class="node">
<title>Node3</title>
<g id="a_Node000003"><a xlink:href="_connection_error_enum_8hpp.html" target="_top" xlink:title=" ">
<polygon fill="white" stroke="#666666" points="2641.39,-162 2474.39,-162 2474.39,-132 2641.39,-132 2641.39,-162"/>
<text text-anchor="start" x="2482.39" y="-150" font-family="Helvetica,sans-Serif" font-size="10.00">Hermes/_base/ConnectionError</text>
<text text-anchor="middle" x="2557.89" y="-139" font-family="Helvetica,sans-Serif" font-size="10.00">Enum.hpp</text>
</a>
</g>
</g>
<!-- Node2&#45;&gt;Node3 -->
<g id="edge2_Node000002_Node000003" class="edge">
<title>Node2&#45;&gt;Node3</title>
<g id="a_edge2_Node000002_Node000003"><a xlink:title=" ">
<path fill="none" stroke="#63b8ff" d="M2557.89,-197.8C2557.89,-190.34 2557.89,-180.99 2557.89,-172.41"/>
<polygon fill="#63b8ff" stroke="#63b8ff" points="2561.39,-172.16 2557.89,-162.16 2554.39,-172.16 2561.39,-172.16"/>
</a>
</g>
</g>
<!-- Node9 -->
<g id="Node000009" class="node">
<title>Node9</title>
<g id="a_Node000009"><a xlink:href="_os_api_8hpp.html" target="_top" xlink:title=" ">
<polygon fill="white" stroke="#666666" points="1041.89,-162 923.89,-162 923.89,-132 1041.89,-132 1041.89,-162"/>
<text text-anchor="start" x="931.89" y="-150" font-family="Helvetica,sans-Serif" font-size="10.00">Hermes/_base/OsApi</text>
<text text-anchor="middle" x="982.89" y="-139" font-family="Helvetica,sans-Serif" font-size="10.00">/OsApi.hpp</text>
</a>
</g>
</g>
<!-- Node2&#45;&gt;Node9 -->
<g id="edge8_Node000002_Node000009" class="edge">
<title>Node2&#45;&gt;Node9</title>
<g id="a_edge8_Node000002_Node000009"><a xlink:title=" ">
<path fill="none" stroke="#63b8ff" d="M2491.72,-209.31C2235.91,-198.92 1312.98,-161.41 1052.04,-150.81"/>
<polygon fill="#63b8ff" stroke="#63b8ff" points="1052.08,-147.31 1041.94,-150.4 1051.79,-154.3 1052.08,-147.31"/>
</a>
</g>
</g>
<!-- Node4 -->
<g id="Node000004" class="node">
<title>Node4</title>
<g id="a_Node000004"><a xlink:title=" ">
<polygon fill="#e0e0e0" stroke="#999999" points="2720.89,-85 2658.89,-85 2658.89,-66 2720.89,-66 2720.89,-85"/>
<text text-anchor="middle" x="2689.89" y="-73" font-family="Helvetica,sans-Serif" font-size="10.00">expected</text>
</a>
</g>
</g>
<!-- Node3&#45;&gt;Node4 -->
<g id="edge3_Node000003_Node000004" class="edge">
<title>Node3&#45;&gt;Node4</title>
<g id="a_edge3_Node000003_Node000004"><a xlink:title=" ">
<path fill="none" stroke="#63b8ff" d="M2584.6,-131.94C2607.93,-119.65 2641.57,-101.94 2664.5,-89.87"/>
<polygon fill="#63b8ff" stroke="#63b8ff" points="2666.4,-92.82 2673.62,-85.07 2663.14,-86.63 2666.4,-92.82"/>
</a>
</g>
</g>
<!-- Node5 -->
<g id="Node000005" class="node">
<title>Node5</title>
<g id="a_Node000005"><a xlink:title=" ">
<polygon fill="#e0e0e0" stroke="#999999" points="2786.39,-85 2739.39,-85 2739.39,-66 2786.39,-66 2786.39,-85"/>
<text text-anchor="middle" x="2762.89" y="-73" font-family="Helvetica,sans-Serif" font-size="10.00">vector</text>
</a>
</g>
</g>
<!-- Node3&#45;&gt;Node5 -->
<g id="edge4_Node000003_Node000005" class="edge">
<title>Node3&#45;&gt;Node5</title>
<g id="a_edge4_Node000003_Node000005"><a xlink:title=" ">
<path fill="none" stroke="#63b8ff" d="M2620.09,-131.94C2653.37,-123.42 2694.64,-111.25 2729.89,-96 2733.7,-94.35 2737.61,-92.35 2741.34,-90.27"/>
<polygon fill="#63b8ff" stroke="#63b8ff" points="2743.3,-93.17 2750.12,-85.06 2739.73,-87.15 2743.3,-93.17"/>
</a>
</g>
</g>
<!-- Node6 -->
<g id="Node000006" class="node">
<title>Node6</title>
<g id="a_Node000006"><a xlink:title=" ">
<polygon fill="#e0e0e0" stroke="#999999" points="2312.89,-85 2272.89,-85 2272.89,-66 2312.89,-66 2312.89,-85"/>
<text text-anchor="middle" x="2292.89" y="-73" font-family="Helvetica,sans-Serif" font-size="10.00">span</text>
</a>
</g>
</g>
<!-- Node3&#45;&gt;Node6 -->
<g id="edge5_Node000003_Node000006" class="edge">
<title>Node3&#45;&gt;Node6</title>
<g id="a_edge5_Node000003_Node000006"><a xlink:title=" ">
<path fill="none" stroke="#63b8ff" d="M2474.37,-135.85C2428.44,-128.41 2371.15,-116.01 2322.89,-96 2319.35,-94.53 2315.78,-92.64 2312.39,-90.62"/>
<polygon fill="#63b8ff" stroke="#63b8ff" points="2314.3,-87.69 2304.02,-85.14 2310.47,-93.54 2314.3,-87.69"/>
</a>
</g>
</g>
<!-- Node7 -->
<g id="Node000007" class="node">
<title>Node7</title>
<g id="a_Node000007"><a xlink:title=" ">
<polygon fill="#e0e0e0" stroke="#999999" points="2456.39,-85 2331.39,-85 2331.39,-66 2456.39,-66 2456.39,-85"/>
<text text-anchor="middle" x="2393.89" y="-73" font-family="Helvetica,sans-Serif" font-size="10.00">stdexec/execution.hpp</text>
</a>
</g>
</g>
<!-- Node3&#45;&gt;Node7 -->
<g id="edge6_Node000003_Node000007" class="edge">
<title>Node3&#45;&gt;Node7</title>
<g id="a_edge6_Node000003_Node000007"><a xlink:title=" ">
<path fill="none" stroke="#63b8ff" d="M2524.7,-131.94C2495.06,-119.38 2452.05,-101.15 2423.54,-89.07"/>
<polygon fill="#63b8ff" stroke="#63b8ff" points="2424.68,-85.75 2414.11,-85.07 2421.95,-92.19 2424.68,-85.75"/>
</a>
</g>
</g>
<!-- Node8 -->
<g id="Node000008" class="node">
<title>Node8</title>
<g id="a_Node000008"><a xlink:title=" ">
<polygon fill="#e0e0e0" stroke="#999999" points="2641.39,-90.5 2474.39,-90.5 2474.39,-60.5 2641.39,-60.5 2641.39,-90.5"/>
<text text-anchor="start" x="2482.39" y="-78.5" font-family="Helvetica,sans-Serif" font-size="10.00">Hermes/_base/ConnectionError</text>
<text text-anchor="middle" x="2557.89" y="-67.5" font-family="Helvetica,sans-Serif" font-size="10.00">Enum.tpp</text>
</a>
</g>
</g>
<!-- Node3&#45;&gt;Node8 -->
<g id="edge7_Node000003_Node000008" class="edge">
<title>Node3&#45;&gt;Node8</title>
<g id="a_edge7_Node000003_Node000008"><a xlink:title=" ">
<path fill="none" stroke="#63b8ff" d="M2557.89,-131.94C2557.89,-122.99 2557.89,-111.16 2557.89,-100.73"/>
<polygon fill="#63b8ff" stroke="#63b8ff" points="2561.39,-100.54 2557.89,-90.54 2554.39,-100.54 2561.39,-100.54"/>
</a>
</g>
</g>
<!-- Node10 -->
<g id="Node000010" class="node">
<title>Node10</title>
<g id="a_Node000010"><a xlink:title=" ">
<polygon fill="#e0e0e0" stroke="#999999" points="798.39,-19 721.39,-19 721.39,0 798.39,0 798.39,-19"/>
<text text-anchor="middle" x="759.89" y="-7" font-family="Helvetica,sans-Serif" font-size="10.00">sys/socket.h</text>
</a>
</g>
</g>
<!-- Node9&#45;&gt;Node10 -->
<g id="edge9_Node000009_Node000010" class="edge">
<title>Node9&#45;&gt;Node10</title>
<g id="a_edge9_Node000009_Node000010"><a xlink:title=" ">
<path fill="none" stroke="#63b8ff" d="M948.41,-131.79C929.07,-122.97 905.05,-110.55 885.89,-96 866.1,-80.97 867.73,-69.95 847.89,-55 830.58,-41.96 808.88,-30.94 791.36,-23.12"/>
<polygon fill="#63b8ff" stroke="#63b8ff" points="792.67,-19.88 782.11,-19.12 789.89,-26.3 792.67,-19.88"/>
</a>
</g>
</g>
<!-- Node11 -->
<g id="Node000011" class="node">
<title>Node11</title>
<g id="a_Node000011"><a xlink:title=" ">
<polygon fill="#e0e0e0" stroke="#999999" points="1535.89,-19 1463.89,-19 1463.89,0 1535.89,0 1535.89,-19"/>
<text text-anchor="middle" x="1499.89" y="-7" font-family="Helvetica,sans-Serif" font-size="10.00">netinet/in.h</text>
</a>
</g>
</g>
<!-- Node9&#45;&gt;Node11 -->
<g id="edge10_Node000009_Node000011" class="edge">
<title>Node9&#45;&gt;Node11</title>
<g id="a_edge10_Node000009_Node000011"><a xlink:title=" ">
<path fill="none" stroke="#63b8ff" d="M1042.04,-145.88C1193.93,-144.97 1588.55,-138.5 1627.89,-96 1640.27,-82.63 1638.45,-69.85 1627.89,-55 1609.49,-29.13 1574.93,-18.17 1546.35,-13.59"/>
<polygon fill="#63b8ff" stroke="#63b8ff" points="1546.52,-10.08 1536.14,-12.17 1545.56,-17.01 1546.52,-10.08"/>
</a>
</g>
</g>
<!-- Node12 -->
<g id="Node000012" class="node">
<title>Node12</title>
<g id="a_Node000012"><a xlink:title=" ">
<polygon fill="#e0e0e0" stroke="#999999" points="248.39,-85 179.39,-85 179.39,-66 248.39,-66 248.39,-85"/>
<text text-anchor="middle" x="213.89" y="-73" font-family="Helvetica,sans-Serif" font-size="10.00">arpa/inet.h</text>
</a>
</g>
</g>
<!-- Node9&#45;&gt;Node12 -->
<g id="edge11_Node000009_Node000012" class="edge">
<title>Node9&#45;&gt;Node12</title>
<g id="a_edge11_Node000009_Node000012"><a xlink:title=" ">
<path fill="none" stroke="#63b8ff" d="M923.8,-144.56C774.23,-140.51 383.64,-127.18 257.89,-96 251.65,-94.45 245.2,-92.08 239.21,-89.51"/>
<polygon fill="#63b8ff" stroke="#63b8ff" points="240.25,-86.14 229.71,-85.12 237.32,-92.49 240.25,-86.14"/>
</a>
</g>
</g>
<!-- Node13 -->
<g id="Node000013" class="node">
<title>Node13</title>
<g id="a_Node000013"><a xlink:title=" ">
<polygon fill="#e0e0e0" stroke="#999999" points="65.39,-19 12.39,-19 12.39,0 65.39,0 65.39,-19"/>
<text text-anchor="middle" x="38.89" y="-7" font-family="Helvetica,sans-Serif" font-size="10.00">netdb.h</text>
</a>
</g>
</g>
<!-- Node9&#45;&gt;Node13 -->
<g id="edge12_Node000009_Node000013" class="edge">
<title>Node9&#45;&gt;Node13</title>
<g id="a_edge12_Node000009_Node000013"><a xlink:title=" ">
<path fill="none" stroke="#63b8ff" d="M923.75,-145.19C717.31,-142.07 39.54,-129.31 7.89,-96 -10.41,-76.74 8.73,-45.87 24,-26.97"/>
<polygon fill="#63b8ff" stroke="#63b8ff" points="26.79,-29.09 30.6,-19.21 21.46,-24.56 26.79,-29.09"/>
</a>
</g>
</g>
<!-- Node14 -->
<g id="Node000014" class="node">
<title>Node14</title>
<g id="a_Node000014"><a xlink:title=" ">
<polygon fill="#e0e0e0" stroke="#999999" points="458.89,-85 402.89,-85 402.89,-66 458.89,-66 458.89,-85"/>
<text text-anchor="middle" x="430.89" y="-73" font-family="Helvetica,sans-Serif" font-size="10.00">unistd.h</text>
</a>
</g>
</g>
<!-- Node9&#45;&gt;Node14 -->
<g id="edge13_Node000009_Node000014" class="edge">
<title>Node9&#45;&gt;Node14</title>
<g id="a_edge13_Node000009_Node000014"><a xlink:title=" ">
<path fill="none" stroke="#63b8ff" d="M923.84,-143.14C807.34,-137.02 551.9,-121.15 467.89,-96 462.93,-94.52 457.87,-92.35 453.14,-89.99"/>
<polygon fill="#63b8ff" stroke="#63b8ff" points="454.51,-86.75 444.05,-85.05 451.16,-92.9 454.51,-86.75"/>
</a>
</g>
</g>
<!-- Node15 -->
<g id="Node000015" class="node">
<title>Node15</title>
<g id="a_Node000015"><a xlink:href="_conversion_and_literals_8hpp.html" target="_top" xlink:title=" ">
<polygon fill="white" stroke="#666666" points="1238.89,-90.5 1088.89,-90.5 1088.89,-60.5 1238.89,-60.5 1238.89,-90.5"/>
<text text-anchor="start" x="1096.89" y="-78.5" font-family="Helvetica,sans-Serif" font-size="10.00">Hermes/_base/OsApi</text>
<text text-anchor="middle" x="1163.89" y="-67.5" font-family="Helvetica,sans-Serif" font-size="10.00">/ConversionAndLiterals.hpp</text>
</a>
</g>
</g>
<!-- Node9&#45;&gt;Node15 -->
<g id="edge14_Node000009_Node000015" class="edge">
<title>Node9&#45;&gt;Node15</title>
<g id="a_edge14_Node000009_Node000015"><a xlink:title=" ">
<path fill="none" stroke="#63b8ff" d="M1019.52,-131.94C1047.85,-121.06 1087.27,-105.92 1117.75,-94.21"/>
<polygon fill="#63b8ff" stroke="#63b8ff" points="1119.23,-97.4 1127.31,-90.54 1116.72,-90.86 1119.23,-97.4"/>
</a>
</g>
</g>
<!-- Node17 -->
<g id="Node000017" class="node">
<title>Node17</title>
<g id="a_Node000017"><a xlink:href="_macros_8hpp.html" target="_top" xlink:title=" ">
<polygon fill="white" stroke="#666666" points="384.89,-90.5 266.89,-90.5 266.89,-60.5 384.89,-60.5 384.89,-90.5"/>
<text text-anchor="start" x="274.89" y="-78.5" font-family="Helvetica,sans-Serif" font-size="10.00">Hermes/_base/OsApi</text>
<text text-anchor="middle" x="325.89" y="-67.5" font-family="Helvetica,sans-Serif" font-size="10.00">/Macros.hpp</text>
</a>
</g>
</g>
<!-- Node9&#45;&gt;Node17 -->
<g id="edge16_Node000009_Node000017" class="edge">
<title>Node9&#45;&gt;Node17</title>
<g id="a_edge16_Node000009_Node000017"><a xlink:title=" ">
<path fill="none" stroke="#63b8ff" d="M923.87,-144.78C817.21,-141.74 585.66,-131.29 393.89,-96 389.42,-95.18 384.82,-94.19 380.23,-93.09"/>
<polygon fill="#63b8ff" stroke="#63b8ff" points="380.77,-89.62 370.22,-90.55 379.05,-96.4 380.77,-89.62"/>
</a>
</g>
</g>
<!-- Node19 -->
<g id="Node000019" class="node">
<title>Node19</title>
<g id="a_Node000019"><a xlink:href="_address_family_enum_8hpp.html" target="_top" xlink:title=" ">
<polygon fill="white" stroke="#666666" points="1070.89,-90.5 894.89,-90.5 894.89,-60.5 1070.89,-60.5 1070.89,-90.5"/>
<text text-anchor="start" x="902.89" y="-78.5" font-family="Helvetica,sans-Serif" font-size="10.00">Hermes/_base/OsApi</text>
<text text-anchor="middle" x="982.89" y="-67.5" font-family="Helvetica,sans-Serif" font-size="10.00">/Enums/AddressFamilyEnum.hpp</text>
</a>
</g>
</g>
<!-- Node9&#45;&gt;Node19 -->
<g id="edge19_Node000009_Node000019" class="edge">
<title>Node9&#45;&gt;Node19</title>
<g id="a_edge19_Node000009_Node000019"><a xlink:title=" ">
<path fill="none" stroke="#63b8ff" d="M982.89,-131.94C982.89,-122.99 982.89,-111.16 982.89,-100.73"/>
<polygon fill="#63b8ff" stroke="#63b8ff" points="986.39,-100.54 982.89,-90.54 979.39,-100.54 986.39,-100.54"/>
</a>
</g>
</g>
<!-- Node20 -->
<g id="Node000020" class="node">
<title>Node20</title>
<g id="a_Node000020"><a xlink:href="_protocol_base_type_enum_8hpp.html" target="_top" xlink:title=" ">
<polygon fill="white" stroke="#666666" points="1448.39,-90.5 1257.39,-90.5 1257.39,-60.5 1448.39,-60.5 1448.39,-90.5"/>
<text text-anchor="start" x="1265.39" y="-78.5" font-family="Helvetica,sans-Serif" font-size="10.00">Hermes/_base/OsApi</text>
<text text-anchor="middle" x="1352.89" y="-67.5" font-family="Helvetica,sans-Serif" font-size="10.00">/Enums/ProtocolBaseTypeEnum.hpp</text>
</a>
</g>
</g>
<!-- Node9&#45;&gt;Node20 -->
<g id="edge21_Node000009_Node000020" class="edge">
<title>Node9&#45;&gt;Node20</title>
<g id="a_edge21_Node000009_Node000020"><a xlink:title=" ">
<path fill="none" stroke="#63b8ff" d="M1041.92,-134.91C1102.99,-123.44 1198.91,-105.42 1268.08,-92.43"/>
<polygon fill="#63b8ff" stroke="#63b8ff" points="1268.9,-95.84 1278.08,-90.55 1267.61,-88.96 1268.9,-95.84"/>
</a>
</g>
</g>
<!-- Node21 -->
<g id="Node000021" class="node">
<title>Node21</title>
<g id="a_Node000021"><a xlink:href="_socket_shutdown_enum_8hpp.html" target="_top" xlink:title=" ">
<polygon fill="white" stroke="#666666" points="662.39,-90.5 477.39,-90.5 477.39,-60.5 662.39,-60.5 662.39,-90.5"/>
<text text-anchor="start" x="485.39" y="-78.5" font-family="Helvetica,sans-Serif" font-size="10.00">Hermes/_base/OsApi</text>
<text text-anchor="middle" x="569.89" y="-67.5" font-family="Helvetica,sans-Serif" font-size="10.00">/Enums/SocketShutdownEnum.hpp</text>
</a>
</g>
</g>
<!-- Node9&#45;&gt;Node21 -->
<g id="edge23_Node000009_Node000021" class="edge">
<title>Node9&#45;&gt;Node21</title>
<g id="a_edge23_Node000009_Node000021"><a xlink:title=" ">
<path fill="none" stroke="#63b8ff" d="M923.85,-137.11C861.04,-127.52 758.81,-111.53 670.89,-96 664.39,-94.85 657.66,-93.63 650.91,-92.38"/>
<polygon fill="#63b8ff" stroke="#63b8ff" points="651.49,-88.93 641.02,-90.53 650.2,-95.81 651.49,-88.93"/>
</a>
</g>
</g>
<!-- Node22 -->
<g id="Node000022" class="node">
<title>Node22</title>
<g id="a_Node000022"><a xlink:href="_socket_type_enum_8hpp.html" target="_top" xlink:title=" ">
<polygon fill="white" stroke="#666666" points="839.39,-90.5 680.39,-90.5 680.39,-60.5 839.39,-60.5 839.39,-90.5"/>
<text text-anchor="start" x="688.39" y="-78.5" font-family="Helvetica,sans-Serif" font-size="10.00">Hermes/_base/OsApi</text>
<text text-anchor="middle" x="759.89" y="-67.5" font-family="Helvetica,sans-Serif" font-size="10.00">/Enums/SocketTypeEnum.hpp</text>
</a>
</g>
</g>
<!-- Node9&#45;&gt;Node22 -->
<g id="edge25_Node000009_Node000022" class="edge">
<title>Node9&#45;&gt;Node22</title>
<g id="a_edge25_Node000009_Node000022"><a xlink:title=" ">
<path fill="none" stroke="#63b8ff" d="M937.76,-131.94C902.24,-120.87 852.6,-105.4 814.79,-93.61"/>
<polygon fill="#63b8ff" stroke="#63b8ff" points="815.54,-90.18 804.95,-90.54 813.45,-96.86 815.54,-90.18"/>
</a>
</g>
</g>
<!-- Node23 -->
<g id="Node000023" class="node">
<title>Node23</title>
<g id="a_Node000023"><a xlink:href="_linux_2_encrypt_status_enum_8hpp.html" target="_top" xlink:title=" ">
<polygon fill="white" stroke="#666666" points="1618.89,-96 1466.89,-96 1466.89,-55 1618.89,-55 1618.89,-96"/>
<text text-anchor="start" x="1474.89" y="-84" font-family="Helvetica,sans-Serif" font-size="10.00">Hermes/_base/OsApi</text>
<text text-anchor="start" x="1474.89" y="-73" font-family="Helvetica,sans-Serif" font-size="10.00">/Enums/Linux/EncryptStatus</text>
<text text-anchor="middle" x="1542.89" y="-62" font-family="Helvetica,sans-Serif" font-size="10.00">Enum.hpp</text>
</a>
</g>
</g>
<!-- Node9&#45;&gt;Node23 -->
<g id="edge27_Node000009_Node000023" class="edge">
<title>Node9&#45;&gt;Node23</title>
<g id="a_edge27_Node000009_Node000023"><a xlink:title=" ">
<path fill="none" stroke="#63b8ff" d="M1042.07,-142.08C1130.3,-135.72 1301.67,-121.41 1456.36,-96.16"/>
<polygon fill="#63b8ff" stroke="#63b8ff" points="1457.22,-99.56 1466.52,-94.48 1456.08,-92.65 1457.22,-99.56"/>
</a>
</g>
</g>
<!-- Node24 -->
<g id="Node000024" class="node">
<title>Node24</title>
<g id="a_Node000024"><a xlink:href="_name_info_flags_8hpp.html" target="_top" xlink:title=" ">
<polygon fill="white" stroke="#666666" points="160.89,-90.5 16.89,-90.5 16.89,-60.5 160.89,-60.5 160.89,-90.5"/>
<text text-anchor="start" x="24.89" y="-78.5" font-family="Helvetica,sans-Serif" font-size="10.00">Hermes/_base/OsApi</text>
<text text-anchor="middle" x="88.89" y="-67.5" font-family="Helvetica,sans-Serif" font-size="10.00">/Flags/NameInfoFlags.hpp</text>
</a>
</g>
</g>
<!-- Node9&#45;&gt;Node24 -->
<g id="edge28_Node000009_Node000024" class="edge">
<title>Node9&#45;&gt;Node24</title>
<g id="a_edge28_Node000009_Node000024"><a xlink:title=" ">
<path fill="none" stroke="#63b8ff" d="M923.86,-145.89C789.32,-144.88 449.94,-137.99 169.89,-96 163.79,-95.09 157.47,-93.93 151.18,-92.65"/>
<polygon fill="#63b8ff" stroke="#63b8ff" points="151.86,-89.22 141.35,-90.54 150.39,-96.06 151.86,-89.22"/>
</a>
</g>
</g>
<!-- Node25 -->
<g id="Node000025" class="node">
<title>Node25</title>
<g id="a_Node000025"><a xlink:href="_linux_2_credential_flags_8hpp.html" target="_top" xlink:title=" ">
<polygon fill="white" stroke="#666666" points="1850.89,-90.5 1674.89,-90.5 1674.89,-60.5 1850.89,-60.5 1850.89,-90.5"/>
<text text-anchor="start" x="1682.89" y="-78.5" font-family="Helvetica,sans-Serif" font-size="10.00">Hermes/_base/OsApi</text>
<text text-anchor="middle" x="1762.89" y="-67.5" font-family="Helvetica,sans-Serif" font-size="10.00">/Flags/Linux/CredentialFlags.hpp</text>
</a>
</g>
</g>
<!-- Node9&#45;&gt;Node25 -->
<g id="edge30_Node000009_Node000025" class="edge">
<title>Node9&#45;&gt;Node25</title>
<g id="a_edge30_Node000009_Node000025"><a xlink:title=" ">
<path fill="none" stroke="#63b8ff" d="M1042.07,-143.93C1160.17,-139.3 1433.3,-126.05 1660.89,-96 1668.89,-94.94 1677.22,-93.66 1685.51,-92.26"/>
<polygon fill="#63b8ff" stroke="#63b8ff" points="1686.33,-95.67 1695.58,-90.5 1685.13,-88.77 1686.33,-95.67"/>
</a>
</g>
</g>
<!-- Node26 -->
<g id="Node000026" class="node">
<title>Node26</title>
<g id="a_Node000026"><a xlink:href="_linux_2_supported_protocols_flags_8hpp.html" target="_top" xlink:title=" ">
<polygon fill="white" stroke="#666666" points="2042.39,-96 1869.39,-96 1869.39,-55 2042.39,-55 2042.39,-96"/>
<text text-anchor="start" x="1877.39" y="-84" font-family="Helvetica,sans-Serif" font-size="10.00">Hermes/_base/OsApi</text>
<text text-anchor="start" x="1877.39" y="-73" font-family="Helvetica,sans-Serif" font-size="10.00">/Flags/Linux/SupportedProtocols</text>
<text text-anchor="middle" x="1955.89" y="-62" font-family="Helvetica,sans-Serif" font-size="10.00">Flags.hpp</text>
</a>
</g>
</g>
<!-- Node9&#45;&gt;Node26 -->
<g id="edge31_Node000009_Node000026" class="edge">
<title>Node9&#45;&gt;Node26</title>
<g id="a_edge31_Node000009_Node000026"><a xlink:title=" ">
<path fill="none" stroke="#63b8ff" d="M1041.92,-145.55C1182.07,-143.86 1545.88,-135.78 1859.19,-95.97"/>
<polygon fill="#63b8ff" stroke="#63b8ff" points="1859.9,-99.41 1869.38,-94.67 1859.01,-92.47 1859.9,-99.41"/>
</a>
</g>
</g>
<!-- Node27 -->
<g id="Node000027" class="node">
<title>Node27</title>
<g id="a_Node000027"><a xlink:href="_linux_2_s_channel_cred_flags_8hpp.html" target="_top" xlink:title=" ">
<polygon fill="white" stroke="#666666" points="2254.89,-90.5 2060.89,-90.5 2060.89,-60.5 2254.89,-60.5 2254.89,-90.5"/>
<text text-anchor="start" x="2068.89" y="-78.5" font-family="Helvetica,sans-Serif" font-size="10.00">Hermes/_base/OsApi</text>
<text text-anchor="middle" x="2157.89" y="-67.5" font-family="Helvetica,sans-Serif" font-size="10.00">/Flags/Linux/SChannelCredFlags.hpp</text>
</a>
</g>
</g>
<!-- Node9&#45;&gt;Node27 -->
<g id="edge32_Node000009_Node000027" class="edge">
<title>Node9&#45;&gt;Node27</title>
<g id="a_edge32_Node000009_Node000027"><a xlink:title=" ">
<path fill="none" stroke="#63b8ff" d="M1041.92,-146.03C1203.89,-145.52 1668.65,-140.01 2051.89,-96 2060.83,-94.97 2070.15,-93.64 2079.4,-92.16"/>
<polygon fill="#63b8ff" stroke="#63b8ff" points="2080.09,-95.59 2089.38,-90.5 2078.94,-88.69 2080.09,-95.59"/>
</a>
</g>
</g>
<!-- Node16 -->
<g id="Node000016" class="node">
<title>Node16</title>
<g id="a_Node000016"><a xlink:title=" ">
<polygon fill="#e0e0e0" stroke="#999999" points="1188.89,-19 1138.89,-19 1138.89,0 1188.89,0 1188.89,-19"/>
<text text-anchor="middle" x="1163.89" y="-7" font-family="Helvetica,sans-Serif" font-size="10.00">cstdint</text>
</a>
</g>
</g>
<!-- Node15&#45;&gt;Node16 -->
<g id="edge15_Node000015_Node000016" class="edge">
<title>Node15&#45;&gt;Node16</title>
<g id="a_edge15_Node000015_Node000016"><a xlink:title=" ">
<path fill="none" stroke="#63b8ff" d="M1163.89,-60.3C1163.89,-51.2 1163.89,-39.29 1163.89,-29.4"/>
<polygon fill="#63b8ff" stroke="#63b8ff" points="1167.39,-29.34 1163.89,-19.34 1160.39,-29.34 1167.39,-29.34"/>
</a>
</g>
</g>
<!-- Node17&#45;&gt;Node10 -->
<g id="edge18_Node000017_Node000010" class="edge">
<title>Node17&#45;&gt;Node10</title>
<g id="a_edge18_Node000017_Node000010"><a xlink:title=" ">
<path fill="none" stroke="#63b8ff" d="M371,-60.49C378.59,-58.44 386.43,-56.51 393.89,-55 506.21,-32.21 640.46,-19.53 711.02,-13.97"/>
<polygon fill="#63b8ff" stroke="#63b8ff" points="711.67,-17.43 721.37,-13.17 711.13,-10.45 711.67,-17.43"/>
</a>
</g>
</g>
<!-- Node18 -->
<g id="Node000018" class="node">
<title>Node18</title>
<g id="a_Node000018"><a xlink:title=" ">
<polygon fill="#e0e0e0" stroke="#999999" points="362.39,-19 289.39,-19 289.39,0 362.39,0 362.39,-19"/>
<text text-anchor="middle" x="325.89" y="-7" font-family="Helvetica,sans-Serif" font-size="10.00">string_view</text>
</a>
</g>
</g>
<!-- Node17&#45;&gt;Node18 -->
<g id="edge17_Node000017_Node000018" class="edge">
<title>Node17&#45;&gt;Node18</title>
<g id="a_edge17_Node000017_Node000018"><a xlink:title=" ">
<path fill="none" stroke="#63b8ff" d="M325.89,-60.3C325.89,-51.2 325.89,-39.29 325.89,-29.4"/>
<polygon fill="#63b8ff" stroke="#63b8ff" points="329.39,-29.34 325.89,-19.34 322.39,-29.34 329.39,-29.34"/>
</a>
</g>
</g>
<!-- Node19&#45;&gt;Node10 -->
<g id="edge20_Node000019_Node000010" class="edge">
<title>Node19&#45;&gt;Node10</title>
<g id="a_edge20_Node000019_Node000010"><a xlink:title=" ">
<path fill="none" stroke="#63b8ff" d="M933.95,-60.45C893.64,-48.88 837.19,-32.68 799.63,-21.91"/>
<polygon fill="#63b8ff" stroke="#63b8ff" points="800.14,-18.41 789.57,-19.02 798.21,-25.14 800.14,-18.41"/>
</a>
</g>
</g>
<!-- Node20&#45;&gt;Node11 -->
<g id="edge22_Node000020_Node000011" class="edge">
<title>Node20&#45;&gt;Node11</title>
<g id="a_edge22_Node000020_Node000011"><a xlink:title=" ">
<path fill="none" stroke="#63b8ff" d="M1385.15,-60.45C1410.81,-49.28 1446.4,-33.79 1471.11,-23.03"/>
<polygon fill="#63b8ff" stroke="#63b8ff" points="1472.55,-26.22 1480.32,-19.02 1469.76,-19.8 1472.55,-26.22"/>
</a>
</g>
</g>
<!-- Node21&#45;&gt;Node10 -->
<g id="edge24_Node000021_Node000010" class="edge">
<title>Node21&#45;&gt;Node10</title>
<g id="a_edge24_Node000021_Node000010"><a xlink:title=" ">
<path fill="none" stroke="#63b8ff" d="M611.58,-60.45C645.49,-49.03 692.8,-33.1 724.79,-22.32"/>
<polygon fill="#63b8ff" stroke="#63b8ff" points="726.24,-25.53 734.6,-19.02 724.01,-18.89 726.24,-25.53"/>
</a>
</g>
</g>
<!-- Node22&#45;&gt;Node10 -->
<g id="edge26_Node000022_Node000010" class="edge">
<title>Node22&#45;&gt;Node10</title>
<g id="a_edge26_Node000022_Node000010"><a xlink:title=" ">
<path fill="none" stroke="#63b8ff" d="M759.89,-60.3C759.89,-51.2 759.89,-39.29 759.89,-29.4"/>
<polygon fill="#63b8ff" stroke="#63b8ff" points="763.39,-29.34 759.89,-19.34 756.39,-29.34 763.39,-29.34"/>
</a>
</g>
</g>
<!-- Node24&#45;&gt;Node13 -->
<g id="edge29_Node000024_Node000013" class="edge">
<title>Node24&#45;&gt;Node13</title>
<g id="a_edge29_Node000024_Node000013"><a xlink:title=" ">
<path fill="none" stroke="#63b8ff" d="M77.79,-60.3C70.23,-50.61 60.17,-37.74 52.18,-27.51"/>
<polygon fill="#63b8ff" stroke="#63b8ff" points="54.71,-25.07 45.8,-19.34 49.2,-29.38 54.71,-25.07"/>
</a>
</g>
</g>
<!-- Node28&#45;&gt;Node5 -->
<g id="edge41_Node000028_Node000005" class="edge">
<title>Node28&#45;&gt;Node5</title>
<g id="a_edge41_Node000028_Node000005"><a xlink:title=" ">
<path fill="none" stroke="#63b8ff" d="M2972.84,-197.73C2960.8,-179.85 2937.86,-149.45 2910.89,-132 2865.92,-102.91 2844.82,-117.77 2795.89,-96 2792.16,-94.34 2788.33,-92.36 2784.66,-90.31"/>
<polygon fill="#63b8ff" stroke="#63b8ff" points="2786.39,-87.27 2776,-85.19 2782.83,-93.29 2786.39,-87.27"/>
</a>
</g>
</g>
<!-- Node28&#45;&gt;Node29 -->
<g id="edge34_Node000028_Node000029" class="edge">
<title>Node28&#45;&gt;Node29</title>
<g id="a_edge34_Node000028_Node000029"><a xlink:title=" ">
<path fill="none" stroke="#63b8ff" d="M2936.46,-197.95C2899.2,-186.43 2847.09,-170.32 2812.23,-159.54"/>
<polygon fill="#63b8ff" stroke="#63b8ff" points="2813.02,-156.13 2802.44,-156.52 2810.96,-162.82 2813.02,-156.13"/>
</a>
</g>
</g>
<!-- Node32 -->
<g id="Node000032" class="node">
<title>Node32</title>
<g id="a_Node000032"><a xlink:title=" ">
<polygon fill="#e0e0e0" stroke="#999999" points="2999.89,-156.5 2957.89,-156.5 2957.89,-137.5 2999.89,-137.5 2999.89,-156.5"/>
<text text-anchor="middle" x="2978.89" y="-144.5" font-family="Helvetica,sans-Serif" font-size="10.00">array</text>
</a>
</g>
</g>
<!-- Node28&#45;&gt;Node32 -->
<g id="edge37_Node000028_Node000032" class="edge">
<title>Node28&#45;&gt;Node32</title>
<g id="a_edge37_Node000028_Node000032"><a xlink:title=" ">
<path fill="none" stroke="#63b8ff" d="M2981.22,-197.8C2980.8,-188.7 2980.24,-176.79 2979.77,-166.9"/>
<polygon fill="#63b8ff" stroke="#63b8ff" points="2983.27,-166.67 2979.3,-156.84 2976.27,-167 2983.27,-166.67"/>
</a>
</g>
</g>
<!-- Node28&#45;&gt;Node33 -->
<g id="edge38_Node000028_Node000033" class="edge">
<title>Node28&#45;&gt;Node33</title>
<g id="a_edge38_Node000028_Node000033"><a xlink:title=" ">
<path fill="none" stroke="#63b8ff" d="M2959.5,-197.95C2942.48,-187.27 2919.17,-172.65 2902.18,-161.98"/>
<polygon fill="#63b8ff" stroke="#63b8ff" points="2903.79,-158.87 2893.46,-156.52 2900.07,-164.8 2903.79,-158.87"/>
</a>
</g>
</g>
<!-- Node34 -->
<g id="Node000034" class="node">
<title>Node34</title>
<g id="a_Node000034"><a xlink:title=" ">
<polygon fill="#e0e0e0" stroke="#999999" points="3069.39,-156.5 3018.39,-156.5 3018.39,-137.5 3069.39,-137.5 3069.39,-156.5"/>
<text text-anchor="middle" x="3043.89" y="-144.5" font-family="Helvetica,sans-Serif" font-size="10.00">variant</text>
</a>
</g>
</g>
<!-- Node28&#45;&gt;Node34 -->
<g id="edge39_Node000028_Node000034" class="edge">
<title>Node28&#45;&gt;Node34</title>
<g id="a_edge39_Node000028_Node000034"><a xlink:title=" ">
<path fill="none" stroke="#63b8ff" d="M2995.65,-197.8C3005.31,-187.82 3018.26,-174.46 3028.3,-164.09"/>
<polygon fill="#63b8ff" stroke="#63b8ff" points="3030.88,-166.46 3035.32,-156.84 3025.85,-161.59 3030.88,-166.46"/>
</a>
</g>
</g>
<!-- Node28&#45;&gt;Node35 -->
<g id="edge40_Node000028_Node000035" class="edge">
<title>Node28&#45;&gt;Node35</title>
<g id="a_edge40_Node000028_Node000035"><a xlink:title=" ">
<path fill="none" stroke="#63b8ff" d="M3059.68,-200.13C3064.49,-199.4 3069.25,-198.69 3073.89,-198 3183.61,-181.66 3213.49,-189.79 3320.89,-162 3323.33,-161.37 3325.84,-160.63 3328.33,-159.83"/>
<polygon fill="#63b8ff" stroke="#63b8ff" points="3329.51,-163.12 3337.79,-156.51 3327.19,-156.52 3329.51,-163.12"/>
</a>
</g>
</g>
<!-- Node36 -->
<g id="Node000036" class="node">
<title>Node36</title>
<g id="a_Node000036"><a xlink:title=" ">
<polygon fill="#e0e0e0" stroke="#999999" points="3137.89,-156.5 3087.89,-156.5 3087.89,-137.5 3137.89,-137.5 3137.89,-156.5"/>
<text text-anchor="middle" x="3112.89" y="-144.5" font-family="Helvetica,sans-Serif" font-size="10.00">format</text>
</a>
</g>
</g>
<!-- Node28&#45;&gt;Node36 -->
<g id="edge42_Node000028_Node000036" class="edge">
<title>Node28&#45;&gt;Node36</title>
<g id="a_edge42_Node000028_Node000036"><a xlink:title=" ">
<path fill="none" stroke="#63b8ff" d="M3010.64,-197.95C3033.21,-186.93 3064.38,-171.7 3086.36,-160.96"/>
<polygon fill="#63b8ff" stroke="#63b8ff" points="3088.01,-164.05 3095.45,-156.52 3084.93,-157.76 3088.01,-164.05"/>
</a>
</g>
</g>
<!-- Node37 -->
<g id="Node000037" class="node">
<title>Node37</title>
<g id="a_Node000037"><a xlink:title=" ">
<polygon fill="#e0e0e0" stroke="#999999" points="3311.39,-162 3156.39,-162 3156.39,-132 3311.39,-132 3311.39,-162"/>
<text text-anchor="start" x="3164.39" y="-150" font-family="Helvetica,sans-Serif" font-size="10.00">Hermes/Endpoint/IpEndpoint</text>
<text text-anchor="middle" x="3233.89" y="-139" font-family="Helvetica,sans-Serif" font-size="10.00">/IpAddress.tpp</text>
</a>
</g>
</g>
<!-- Node28&#45;&gt;Node37 -->
<g id="edge43_Node000028_Node000037" class="edge">
<title>Node28&#45;&gt;Node37</title>
<g id="a_edge43_Node000028_Node000037"><a xlink:title=" ">
<path fill="none" stroke="#63b8ff" d="M3037.19,-197.95C3076.01,-188.1 3128.06,-174.88 3168.86,-164.51"/>
<polygon fill="#63b8ff" stroke="#63b8ff" points="3169.88,-167.87 3178.71,-162.01 3168.16,-161.08 3169.88,-167.87"/>
</a>
</g>
</g>
<!-- Node30 -->
<g id="Node000030" class="node">
<title>Node30</title>
<g id="a_Node000030"><a xlink:title=" ">
<polygon fill="#e0e0e0" stroke="#999999" points="2849.39,-85 2804.39,-85 2804.39,-66 2849.39,-66 2849.39,-85"/>
<text text-anchor="middle" x="2826.89" y="-73" font-family="Helvetica,sans-Serif" font-size="10.00">utility</text>
</a>
</g>
</g>
<!-- Node29&#45;&gt;Node30 -->
<g id="edge35_Node000029_Node000030" class="edge">
<title>Node29&#45;&gt;Node30</title>
<g id="a_edge35_Node000029_Node000030"><a xlink:title=" ">
<path fill="none" stroke="#63b8ff" d="M2781.26,-137.48C2789.45,-126.54 2803.84,-107.3 2814.28,-93.35"/>
<polygon fill="#63b8ff" stroke="#63b8ff" points="2817.27,-95.2 2820.46,-85.09 2811.67,-91 2817.27,-95.2"/>
</a>
</g>
</g>
<!-- Node31 -->
<g id="Node000031" class="node">
<title>Node31</title>
<g id="a_Node000031"><a xlink:title=" ">
<polygon fill="#e0e0e0" stroke="#999999" points="2932.39,-85 2867.39,-85 2867.39,-66 2932.39,-66 2932.39,-85"/>
<text text-anchor="middle" x="2899.89" y="-73" font-family="Helvetica,sans-Serif" font-size="10.00">functional</text>
</a>
</g>
</g>
<!-- Node29&#45;&gt;Node31 -->
<g id="edge36_Node000029_Node000031" class="edge">
<title>Node29&#45;&gt;Node31</title>
<g id="a_edge36_Node000029_Node000031"><a xlink:title=" ">
<path fill="none" stroke="#63b8ff" d="M2790.22,-137.48C2811.49,-125.65 2850.19,-104.13 2875.47,-90.08"/>
<polygon fill="#63b8ff" stroke="#63b8ff" points="2877.4,-93.01 2884.44,-85.09 2873.99,-86.89 2877.4,-93.01"/>
</a>
</g>
</g>
</g>
</svg>
