<?xml version="1.0" encoding="UTF-8" standalone="no"?>
<!DOCTYPE svg PUBLIC "-//W3C//DTD SVG 1.1//EN"
 "http://www.w3.org/Graphics/SVG/1.1/DTD/svg11.dtd">
<!-- Generated by graphviz version 2.43.0 (0)
 -->
<!-- Title: include/Hermes/Endpoint/IpEndpoint/IpAddress.hpp Pages: 1 -->
<svg width="711pt" height="159pt"
 viewBox="0.00 0.00 711.00 159.00" xmlns="http://www.w3.org/2000/svg" xmlns:xlink="http://www.w3.org/1999/xlink">
<g id="graph0" class="graph" transform="scale(1 1) rotate(0) translate(4 155)">
<title>include/Hermes/Endpoint/IpEndpoint/IpAddress.hpp</title>
<!-- Node1 -->
<g id="Node000001" class="node">
<title>Node1</title>
<g id="a_Node000001"><a xlink:title=" ">
<polygon fill="#999999" stroke="#666666" points="403,-151 260,-151 260,-121 403,-121 403,-151"/>
<text text-anchor="start" x="268" y="-139" font-family="Helvetica,sans-Serif" font-size="10.00">include/Hermes/Endpoint</text>
<text text-anchor="middle" x="331.5" y="-128" font-family="Helvetica,sans-Serif" font-size="10.00">/IpEndpoint/IpAddress.hpp</text>
</a>
</g>
</g>
<!-- Node2 -->
<g id="Node000002" class="node">
<title>Node2</title>
<g id="a_Node000002"><a xlink:href="_hash_8hpp.html" target="_top" xlink:title=" ">
<polygon fill="white" stroke="#666666" points="129,-79.5 0,-79.5 0,-60.5 129,-60.5 129,-79.5"/>
<text text-anchor="middle" x="64.5" y="-67.5" font-family="Helvetica,sans-Serif" font-size="10.00">Hermes/Utils/Hash.hpp</text>
</a>
</g>
</g>
<!-- Node1&#45;&gt;Node2 -->
<g id="edge1_Node000001_Node000002" class="edge">
<title>Node1&#45;&gt;Node2</title>
<g id="a_edge1_Node000001_Node000002"><a xlink:title=" ">
<path fill="none" stroke="#63b8ff" d="M272.91,-120.95C223.81,-109.19 154.74,-92.63 109.8,-81.86"/>
<polygon fill="#63b8ff" stroke="#63b8ff" points="110.57,-78.44 100.03,-79.52 108.94,-85.25 110.57,-78.44"/>
</a>
</g>
</g>
<!-- Node4 -->
<g id="Node000004" class="node">
<title>Node4</title>
<g id="a_Node000004"><a xlink:title=" ">
<polygon fill="#e0e0e0" stroke="#999999" points="189.5,-79.5 147.5,-79.5 147.5,-60.5 189.5,-60.5 189.5,-79.5"/>
<text text-anchor="middle" x="168.5" y="-67.5" font-family="Helvetica,sans-Serif" font-size="10.00">array</text>
</a>
</g>
</g>
<!-- Node1&#45;&gt;Node4 -->
<g id="edge3_Node000001_Node000004" class="edge">
<title>Node1&#45;&gt;Node4</title>
<g id="a_edge3_Node000001_Node000004"><a xlink:title=" ">
<path fill="none" stroke="#63b8ff" d="M291.61,-120.91C265.03,-111.3 229.42,-98.01 198.5,-85 197.49,-84.58 196.47,-84.14 195.44,-83.69"/>
<polygon fill="#63b8ff" stroke="#63b8ff" points="196.72,-80.43 186.17,-79.52 193.85,-86.81 196.72,-80.43"/>
</a>
</g>
</g>
<!-- Node5 -->
<g id="Node000005" class="node">
<title>Node5</title>
<g id="a_Node000005"><a xlink:title=" ">
<polygon fill="#e0e0e0" stroke="#999999" points="251.5,-79.5 207.5,-79.5 207.5,-60.5 251.5,-60.5 251.5,-79.5"/>
<text text-anchor="middle" x="229.5" y="-67.5" font-family="Helvetica,sans-Serif" font-size="10.00">string</text>
</a>
</g>
</g>
<!-- Node1&#45;&gt;Node5 -->
<g id="edge4_Node000001_Node000005" class="edge">
<title>Node1&#45;&gt;Node5</title>
<g id="a_edge4_Node000001_Node000005"><a xlink:title=" ">
<path fill="none" stroke="#63b8ff" d="M309.12,-120.95C292.09,-110.27 268.79,-95.65 251.79,-84.98"/>
<polygon fill="#63b8ff" stroke="#63b8ff" points="253.41,-81.87 243.07,-79.52 249.68,-87.8 253.41,-81.87"/>
</a>
</g>
</g>
<!-- Node6 -->
<g id="Node000006" class="node">
<title>Node6</title>
<g id="a_Node000006"><a xlink:title=" ">
<polygon fill="#e0e0e0" stroke="#999999" points="321,-79.5 270,-79.5 270,-60.5 321,-60.5 321,-79.5"/>
<text text-anchor="middle" x="295.5" y="-67.5" font-family="Helvetica,sans-Serif" font-size="10.00">variant</text>
</a>
</g>
</g>
<!-- Node1&#45;&gt;Node6 -->
<g id="edge5_Node000001_Node000006" class="edge">
<title>Node1&#45;&gt;Node6</title>
<g id="a_edge5_Node000001_Node000006"><a xlink:title=" ">
<path fill="none" stroke="#63b8ff" d="M323.51,-120.8C318.17,-111.31 311.11,-98.76 305.42,-88.63"/>
<polygon fill="#63b8ff" stroke="#63b8ff" points="308.43,-86.84 300.47,-79.84 302.33,-90.28 308.43,-86.84"/>
</a>
</g>
</g>
<!-- Node7 -->
<g id="Node000007" class="node">
<title>Node7</title>
<g id="a_Node000007"><a xlink:title=" ">
<polygon fill="#e0e0e0" stroke="#999999" points="395.5,-79.5 339.5,-79.5 339.5,-60.5 395.5,-60.5 395.5,-79.5"/>
<text text-anchor="middle" x="367.5" y="-67.5" font-family="Helvetica,sans-Serif" font-size="10.00">optional</text>
</a>
</g>
</g>
<!-- Node1&#45;&gt;Node7 -->
<g id="edge6_Node000001_Node000007" class="edge">
<title>Node1&#45;&gt;Node7</title>
<g id="a_edge6_Node000001_Node000007"><a xlink:title=" ">
<path fill="none" stroke="#63b8ff" d="M339.49,-120.8C344.83,-111.31 351.89,-98.76 357.58,-88.63"/>
<polygon fill="#63b8ff" stroke="#63b8ff" points="360.67,-90.28 362.53,-79.84 354.57,-86.84 360.67,-90.28"/>
</a>
</g>
</g>
<!-- Node8 -->
<g id="Node000008" class="node">
<title>Node8</title>
<g id="a_Node000008"><a xlink:title=" ">
<polygon fill="#e0e0e0" stroke="#999999" points="461,-79.5 414,-79.5 414,-60.5 461,-60.5 461,-79.5"/>
<text text-anchor="middle" x="437.5" y="-67.5" font-family="Helvetica,sans-Serif" font-size="10.00">vector</text>
</a>
</g>
</g>
<!-- Node1&#45;&gt;Node8 -->
<g id="edge7_Node000001_Node000008" class="edge">
<title>Node1&#45;&gt;Node8</title>
<g id="a_edge7_Node000001_Node000008"><a xlink:title=" ">
<path fill="none" stroke="#63b8ff" d="M354.76,-120.95C372.61,-110.18 397.12,-95.38 414.83,-84.69"/>
<polygon fill="#63b8ff" stroke="#63b8ff" points="416.64,-87.68 423.39,-79.52 413.02,-81.69 416.64,-87.68"/>
</a>
</g>
</g>
<!-- Node9 -->
<g id="Node000009" class="node">
<title>Node9</title>
<g id="a_Node000009"><a xlink:title=" ">
<polygon fill="#e0e0e0" stroke="#999999" points="529.5,-79.5 479.5,-79.5 479.5,-60.5 529.5,-60.5 529.5,-79.5"/>
<text text-anchor="middle" x="504.5" y="-67.5" font-family="Helvetica,sans-Serif" font-size="10.00">format</text>
</a>
</g>
</g>
<!-- Node1&#45;&gt;Node9 -->
<g id="edge8_Node000001_Node000009" class="edge">
<title>Node1&#45;&gt;Node9</title>
<g id="a_edge8_Node000001_Node000009"><a xlink:title=" ">
<path fill="none" stroke="#63b8ff" d="M372.13,-120.93C399.94,-111.17 437.6,-97.68 470.5,-85 471.88,-84.47 473.28,-83.92 474.7,-83.36"/>
<polygon fill="#63b8ff" stroke="#63b8ff" points="476.09,-86.57 484.06,-79.59 473.48,-80.08 476.09,-86.57"/>
</a>
</g>
</g>
<!-- Node10 -->
<g id="Node000010" class="node">
<title>Node10</title>
<g id="a_Node000010"><a xlink:title=" ">
<polygon fill="#e0e0e0" stroke="#999999" points="703,-85 548,-85 548,-55 703,-55 703,-85"/>
<text text-anchor="start" x="556" y="-73" font-family="Helvetica,sans-Serif" font-size="10.00">Hermes/Endpoint/IpEndpoint</text>
<text text-anchor="middle" x="625.5" y="-62" font-family="Helvetica,sans-Serif" font-size="10.00">/IpAddress.tpp</text>
</a>
</g>
</g>
<!-- Node1&#45;&gt;Node10 -->
<g id="edge9_Node000001_Node000010" class="edge">
<title>Node1&#45;&gt;Node10</title>
<g id="a_edge9_Node000001_Node000010"><a xlink:title=" ">
<path fill="none" stroke="#63b8ff" d="M396.02,-120.95C441.78,-110.99 503.32,-97.6 551.14,-87.19"/>
<polygon fill="#63b8ff" stroke="#63b8ff" points="552.1,-90.56 561.13,-85.01 550.62,-83.72 552.1,-90.56"/>
</a>
</g>
</g>
<!-- Node3 -->
<g id="Node000003" class="node">
<title>Node3</title>
<g id="a_Node000003"><a xlink:title=" ">
<polygon fill="#e0e0e0" stroke="#999999" points="87,-19 42,-19 42,0 87,0 87,-19"/>
<text text-anchor="middle" x="64.5" y="-7" font-family="Helvetica,sans-Serif" font-size="10.00">utility</text>
</a>
</g>
</g>
<!-- Node2&#45;&gt;Node3 -->
<g id="edge2_Node000002_Node000003" class="edge">
<title>Node2&#45;&gt;Node3</title>
<g id="a_edge2_Node000002_Node000003"><a xlink:title=" ">
<path fill="none" stroke="#63b8ff" d="M64.5,-60.37C64.5,-52.25 64.5,-39.81 64.5,-29.39"/>
<polygon fill="#63b8ff" stroke="#63b8ff" points="68,-29.17 64.5,-19.17 61,-29.17 68,-29.17"/>
</a>
</g>
</g>
</g>
</svg>
