<?xml version="1.0" encoding="UTF-8" standalone="no"?>
<!DOCTYPE svg PUBLIC "-//W3C//DTD SVG 1.1//EN"
 "http://www.w3.org/Graphics/SVG/1.1/DTD/svg11.dtd">
<!-- Generated by graphviz version 2.43.0 (0)
 -->
<!-- Title: include/Hermes/Endpoint/IpEndpoint/IpEndpoint.hpp Pages: 1 -->
<svg width="1493pt" height="478pt"
 viewBox="0.00 0.00 1493.00 478.00" xmlns="http://www.w3.org/2000/svg" xmlns:xlink="http://www.w3.org/1999/xlink">
<g id="graph0" class="graph" transform="scale(1 1) rotate(0) translate(4 474)">
<title>include/Hermes/Endpoint/IpEndpoint/IpEndpoint.hpp</title>
<!-- Node1 -->
<g id="Node000001" class="node">
<title>Node1</title>
<g id="a_Node000001"><a xlink:title=" ">
<polygon fill="#999999" stroke="#666666" points="1130,-470 983,-470 983,-440 1130,-440 1130,-470"/>
<text text-anchor="start" x="991" y="-458" font-family="Helvetica,sans-Serif" font-size="10.00">include/Hermes/Endpoint</text>
<text text-anchor="middle" x="1056.5" y="-447" font-family="Helvetica,sans-Serif" font-size="10.00">/IpEndpoint/IpEndpoint.hpp</text>
</a>
</g>
</g>
<!-- Node2 -->
<g id="Node000002" class="node">
<title>Node2</title>
<g id="a_Node000002"><a xlink:href="_default_socket_data_8hpp.html" target="_top" xlink:title=" ">
<polygon fill="white" stroke="#666666" points="1082.5,-404 924.5,-404 924.5,-374 1082.5,-374 1082.5,-404"/>
<text text-anchor="start" x="932.5" y="-392" font-family="Helvetica,sans-Serif" font-size="10.00">include/Hermes/Socket</text>
<text text-anchor="middle" x="1003.5" y="-381" font-family="Helvetica,sans-Serif" font-size="10.00">/Data/DefaultSocketData.hpp</text>
</a>
</g>
</g>
<!-- Node1&#45;&gt;Node2 -->
<g id="edge1_Node000001_Node000002" class="edge">
<title>Node1&#45;&gt;Node2</title>
<g id="a_edge1_Node000001_Node000002"><a xlink:title=" ">
<path fill="none" stroke="#63b8ff" d="M1038.35,-432.09C1030.7,-422.85 1022.02,-412.36 1015.23,-404.16"/>
<polygon fill="#63b8ff" stroke="#63b8ff" points="1035.66,-434.33 1044.74,-439.8 1041.06,-429.86 1035.66,-434.33"/>
</a>
</g>
</g>
<!-- Node16 -->
<g id="Node000016" class="node">
<title>Node16</title>
<g id="a_Node000016"><a xlink:href="_default_connect_policy_8hpp.html" target="_top" xlink:title=" ">
<polygon fill="white" stroke="#666666" points="1182.5,-338 1038.5,-338 1038.5,-297 1182.5,-297 1182.5,-338"/>
<text text-anchor="start" x="1046.5" y="-326" font-family="Helvetica,sans-Serif" font-size="10.00">include/Hermes/Socket</text>
<text text-anchor="start" x="1046.5" y="-315" font-family="Helvetica,sans-Serif" font-size="10.00">/Sync/_base/Connection</text>
<text text-anchor="middle" x="1110.5" y="-304" font-family="Helvetica,sans-Serif" font-size="10.00">/DefaultConnectPolicy.hpp</text>
</a>
</g>
</g>
<!-- Node1&#45;&gt;Node16 -->
<g id="edge43_Node000001_Node000016" class="edge">
<title>Node1&#45;&gt;Node16</title>
<g id="a_edge43_Node000001_Node000016"><a xlink:title=" ">
<path fill="none" stroke="#63b8ff" d="M1074.99,-431.6C1081.02,-423.34 1087.25,-413.64 1091.5,-404 1100.94,-382.57 1105.89,-355.98 1108.35,-338.2"/>
<polygon fill="#63b8ff" stroke="#63b8ff" points="1072.16,-429.54 1068.87,-439.61 1077.72,-433.79 1072.16,-429.54"/>
</a>
</g>
</g>
<!-- Node18 -->
<g id="Node000018" class="node">
<title>Node18</title>
<g id="a_Node000018"><a xlink:href="_tls_connect_policy_8hpp.html" target="_top" xlink:title=" ">
<polygon fill="white" stroke="#666666" points="1270.5,-261 1138.5,-261 1138.5,-220 1270.5,-220 1270.5,-261"/>
<text text-anchor="start" x="1146.5" y="-249" font-family="Helvetica,sans-Serif" font-size="10.00">include/Hermes/Socket</text>
<text text-anchor="start" x="1146.5" y="-238" font-family="Helvetica,sans-Serif" font-size="10.00">/Sync/_base/Connection</text>
<text text-anchor="middle" x="1204.5" y="-227" font-family="Helvetica,sans-Serif" font-size="10.00">/TlsConnectPolicy.hpp</text>
</a>
</g>
</g>
<!-- Node1&#45;&gt;Node18 -->
<g id="edge44_Node000001_Node000018" class="edge">
<title>Node1&#45;&gt;Node18</title>
<g id="a_edge44_Node000001_Node000018"><a xlink:title=" ">
<path fill="none" stroke="#63b8ff" d="M1090.66,-434.76C1122.43,-414.9 1168.25,-380.82 1191.5,-338 1204.57,-313.93 1206.3,-281.68 1205.81,-261.24"/>
<polygon fill="#63b8ff" stroke="#63b8ff" points="1088.81,-431.78 1082.1,-439.98 1092.46,-437.76 1088.81,-431.78"/>
</a>
</g>
</g>
<!-- Node21 -->
<g id="Node000021" class="node">
<title>Node21</title>
<g id="a_Node000021"><a xlink:href="_tls_socket_data_8hpp.html" target="_top" xlink:title=" ">
<polygon fill="white" stroke="#666666" points="887,-332.5 750,-332.5 750,-302.5 887,-302.5 887,-332.5"/>
<text text-anchor="start" x="758" y="-320.5" font-family="Helvetica,sans-Serif" font-size="10.00">include/Hermes/Socket</text>
<text text-anchor="middle" x="818.5" y="-309.5" font-family="Helvetica,sans-Serif" font-size="10.00">/Data/TlsSocketData.hpp</text>
</a>
</g>
</g>
<!-- Node1&#45;&gt;Node21 -->
<g id="edge32_Node000001_Node000021" class="edge">
<title>Node1&#45;&gt;Node21</title>
<g id="a_edge32_Node000001_Node000021"><a xlink:title=" ">
<path fill="none" stroke="#63b8ff" d="M992.09,-436.88C967.22,-428.82 939.12,-417.89 915.5,-404 881.64,-384.09 848.74,-351.44 831.32,-332.78"/>
<polygon fill="#63b8ff" stroke="#63b8ff" points="991.22,-440.27 1001.81,-439.93 993.32,-433.59 991.22,-440.27"/>
</a>
</g>
</g>
<!-- Node3 -->
<g id="Node000003" class="node">
<title>Node3</title>
<g id="a_Node000003"><a xlink:href="_default_async_accept_policy_8hpp.html" target="_top" xlink:title=" ">
<polygon fill="white" stroke="#666666" points="402,-261 247,-261 247,-220 402,-220 402,-261"/>
<text text-anchor="start" x="255" y="-249" font-family="Helvetica,sans-Serif" font-size="10.00">include/Hermes/Socket</text>
<text text-anchor="start" x="255" y="-238" font-family="Helvetica,sans-Serif" font-size="10.00">/Async/_base/Accept/Default</text>
<text text-anchor="middle" x="324.5" y="-227" font-family="Helvetica,sans-Serif" font-size="10.00">AsyncAcceptPolicy.hpp</text>
</a>
</g>
</g>
<!-- Node2&#45;&gt;Node3 -->
<g id="edge2_Node000002_Node000003" class="edge">
<title>Node2&#45;&gt;Node3</title>
<g id="a_edge2_Node000002_Node000003"><a xlink:title=" ">
<path fill="none" stroke="#63b8ff" d="M914.33,-383.03C793.11,-375.58 583,-360 509.5,-338 450.68,-320.39 388.65,-283.8 353.44,-261.08"/>
<polygon fill="#63b8ff" stroke="#63b8ff" points="914.14,-386.52 924.33,-383.64 914.57,-379.54 914.14,-386.52"/>
</a>
</g>
</g>
<!-- Node7 -->
<g id="Node000007" class="node">
<title>Node7</title>
<g id="a_Node000007"><a xlink:href="_default_async_connect_policy_8hpp.html" target="_top" xlink:title=" ">
<polygon fill="white" stroke="#666666" points="1485,-184 1312,-184 1312,-143 1485,-143 1485,-184"/>
<text text-anchor="start" x="1320" y="-172" font-family="Helvetica,sans-Serif" font-size="10.00">include/Hermes/Socket</text>
<text text-anchor="start" x="1320" y="-161" font-family="Helvetica,sans-Serif" font-size="10.00">/Async/_base/Connection</text>
<text text-anchor="middle" x="1398.5" y="-150" font-family="Helvetica,sans-Serif" font-size="10.00">/DefaultAsyncConnectPolicy.hpp</text>
</a>
</g>
</g>
<!-- Node2&#45;&gt;Node7 -->
<g id="edge7_Node000002_Node000007" class="edge">
<title>Node2&#45;&gt;Node7</title>
<g id="a_edge7_Node000002_Node000007"><a xlink:title=" ">
<path fill="none" stroke="#63b8ff" d="M1092.6,-372.71C1124.9,-365.02 1160.94,-353.86 1191.5,-338 1271.2,-296.63 1347.49,-220.07 1380.88,-184.11"/>
<polygon fill="#63b8ff" stroke="#63b8ff" points="1091.66,-369.33 1082.7,-374.98 1093.23,-376.15 1091.66,-369.33"/>
</a>
</g>
</g>
<!-- Node10 -->
<g id="Node000010" class="node">
<title>Node10</title>
<g id="a_Node000010"><a xlink:href="_default_async_transfer_policy_8hpp.html" target="_top" xlink:title=" ">
<polygon fill="white" stroke="#666666" points="173,-184 0,-184 0,-143 173,-143 173,-184"/>
<text text-anchor="start" x="8" y="-172" font-family="Helvetica,sans-Serif" font-size="10.00">include/Hermes/Socket</text>
<text text-anchor="start" x="8" y="-161" font-family="Helvetica,sans-Serif" font-size="10.00">/Async/_base/Transfer</text>
<text text-anchor="middle" x="86.5" y="-150" font-family="Helvetica,sans-Serif" font-size="10.00">/DefaultAsyncTransferPolicy.hpp</text>
</a>
</g>
</g>
<!-- Node2&#45;&gt;Node10 -->
<g id="edge11_Node000002_Node000010" class="edge">
<title>Node2&#45;&gt;Node10</title>
<g id="a_edge11_Node000002_Node000010"><a xlink:title=" ">
<path fill="none" stroke="#63b8ff" d="M913.91,-384.03C772.68,-377.17 504.86,-361.53 412.5,-338 291.35,-307.14 165.61,-222.62 112.57,-184.1"/>
<polygon fill="#63b8ff" stroke="#63b8ff" points="914.11,-387.55 924.27,-384.53 914.45,-380.56 914.11,-387.55"/>
</a>
</g>
</g>
<!-- Node11 -->
<g id="Node000011" class="node">
<title>Node11</title>
<g id="a_Node000011"><a xlink:href="_default_accept_policy_8hpp.html" target="_top" xlink:title=" ">
<polygon fill="white" stroke="#666666" points="700.5,-338 518.5,-338 518.5,-297 700.5,-297 700.5,-338"/>
<text text-anchor="start" x="526.5" y="-326" font-family="Helvetica,sans-Serif" font-size="10.00">include/Hermes/Socket</text>
<text text-anchor="start" x="526.5" y="-315" font-family="Helvetica,sans-Serif" font-size="10.00">/Sync/_base/Accept/DefaultAccept</text>
<text text-anchor="middle" x="609.5" y="-304" font-family="Helvetica,sans-Serif" font-size="10.00">Policy.hpp</text>
</a>
</g>
</g>
<!-- Node2&#45;&gt;Node11 -->
<g id="edge14_Node000002_Node000011" class="edge">
<title>Node2&#45;&gt;Node11</title>
<g id="a_edge14_Node000002_Node000011"><a xlink:title=" ">
<path fill="none" stroke="#63b8ff" d="M914.2,-372.25C850.43,-361 764.91,-345.91 700.71,-334.59"/>
<polygon fill="#63b8ff" stroke="#63b8ff" points="913.79,-375.73 924.24,-374.02 915,-368.84 913.79,-375.73"/>
</a>
</g>
</g>
<!-- Node2&#45;&gt;Node16 -->
<g id="edge22_Node000002_Node000016" class="edge">
<title>Node2&#45;&gt;Node16</title>
<g id="a_edge22_Node000002_Node000016"><a xlink:title=" ">
<path fill="none" stroke="#63b8ff" d="M1033.81,-368.31C1048.39,-358.84 1065.81,-347.53 1080.37,-338.07"/>
<polygon fill="#63b8ff" stroke="#63b8ff" points="1031.63,-365.55 1025.15,-373.94 1035.45,-371.42 1031.63,-365.55"/>
</a>
</g>
</g>
<!-- Node20 -->
<g id="Node000020" class="node">
<title>Node20</title>
<g id="a_Node000020"><a xlink:href="_default_transfer_policy_8hpp.html" target="_top" xlink:title=" ">
<polygon fill="white" stroke="#666666" points="1082,-261 939,-261 939,-220 1082,-220 1082,-261"/>
<text text-anchor="start" x="947" y="-249" font-family="Helvetica,sans-Serif" font-size="10.00">include/Hermes/Socket</text>
<text text-anchor="start" x="947" y="-238" font-family="Helvetica,sans-Serif" font-size="10.00">/Sync/_base/Transfer</text>
<text text-anchor="middle" x="1010.5" y="-227" font-family="Helvetica,sans-Serif" font-size="10.00">/DefaultTransferPolicy.hpp</text>
</a>
</g>
</g>
<!-- Node2&#45;&gt;Node20 -->
<g id="edge29_Node000002_Node000020" class="edge">
<title>Node2&#45;&gt;Node20</title>
<g id="a_edge29_Node000002_Node000020"><a xlink:title=" ">
<path fill="none" stroke="#63b8ff" d="M1004.65,-363.96C1006.02,-335.3 1008.28,-287.92 1009.56,-261.27"/>
<polygon fill="#63b8ff" stroke="#63b8ff" points="1001.15,-363.8 1004.17,-373.95 1008.14,-364.13 1001.15,-363.8"/>
</a>
</g>
</g>
<!-- Node4 -->
<g id="Node000004" class="node">
<title>Node4</title>
<g id="a_Node000004"><a xlink:href="_async_server_socket_8hpp.html" target="_top" xlink:title=" ">
<polygon fill="white" stroke="#666666" points="339.5,-101.5 173.5,-101.5 173.5,-71.5 339.5,-71.5 339.5,-101.5"/>
<text text-anchor="start" x="181.5" y="-89.5" font-family="Helvetica,sans-Serif" font-size="10.00">include/Hermes/Socket</text>
<text text-anchor="middle" x="256.5" y="-78.5" font-family="Helvetica,sans-Serif" font-size="10.00">/Async/AsyncServerSocket.hpp</text>
</a>
</g>
</g>
<!-- Node3&#45;&gt;Node4 -->
<g id="edge3_Node000003_Node000004" class="edge">
<title>Node3&#45;&gt;Node4</title>
<g id="a_edge3_Node000003_Node000004"><a xlink:title=" ">
<path fill="none" stroke="#63b8ff" d="M253.7,-215.13C240.48,-207.28 228.36,-197.1 220.5,-184 204.22,-156.86 227.66,-121.12 243.68,-101.64"/>
<polygon fill="#63b8ff" stroke="#63b8ff" points="252.07,-218.22 262.52,-219.96 255.43,-212.08 252.07,-218.22"/>
</a>
</g>
</g>
<!-- Node6 -->
<g id="Node000006" class="node">
<title>Node6</title>
<g id="a_Node000006"><a xlink:href="_tls_async_accept_policy_8hpp.html" target="_top" xlink:title=" ">
<polygon fill="white" stroke="#666666" points="393,-184 230,-184 230,-143 393,-143 393,-184"/>
<text text-anchor="start" x="238" y="-172" font-family="Helvetica,sans-Serif" font-size="10.00">include/Hermes/Socket</text>
<text text-anchor="start" x="238" y="-161" font-family="Helvetica,sans-Serif" font-size="10.00">/Async/_base/Accept/TlsAsync</text>
<text text-anchor="middle" x="311.5" y="-150" font-family="Helvetica,sans-Serif" font-size="10.00">AcceptPolicy.hpp</text>
</a>
</g>
</g>
<!-- Node3&#45;&gt;Node6 -->
<g id="edge5_Node000003_Node000006" class="edge">
<title>Node3&#45;&gt;Node6</title>
<g id="a_edge5_Node000003_Node000006"><a xlink:title=" ">
<path fill="none" stroke="#63b8ff" d="M319.33,-209.69C317.84,-201.08 316.25,-191.9 314.89,-184.07"/>
<polygon fill="#63b8ff" stroke="#63b8ff" points="315.93,-210.54 321.08,-219.79 322.83,-209.34 315.93,-210.54"/>
</a>
</g>
</g>
<!-- Node5 -->
<g id="Node000005" class="node">
<title>Node5</title>
<g id="a_Node000005"><a xlink:href="_async_listener_socket_8hpp.html" target="_top" xlink:title=" ">
<polygon fill="white" stroke="#666666" points="343,-30 170,-30 170,0 343,0 343,-30"/>
<text text-anchor="start" x="178" y="-18" font-family="Helvetica,sans-Serif" font-size="10.00">include/Hermes/Socket</text>
<text text-anchor="middle" x="256.5" y="-7" font-family="Helvetica,sans-Serif" font-size="10.00">/Async/AsyncListenerSocket.hpp</text>
</a>
</g>
</g>
<!-- Node4&#45;&gt;Node5 -->
<g id="edge4_Node000004_Node000005" class="edge">
<title>Node4&#45;&gt;Node5</title>
<g id="a_edge4_Node000004_Node000005"><a xlink:title=" ">
<path fill="none" stroke="#63b8ff" d="M256.5,-61.25C256.5,-50.81 256.5,-38.99 256.5,-30.04"/>
<polygon fill="#63b8ff" stroke="#63b8ff" points="253,-61.44 256.5,-71.44 260,-61.44 253,-61.44"/>
</a>
</g>
</g>
<!-- Node6&#45;&gt;Node4 -->
<g id="edge6_Node000006_Node000004" class="edge">
<title>Node6&#45;&gt;Node4</title>
<g id="a_edge6_Node000006_Node000004"><a xlink:title=" ">
<path fill="none" stroke="#63b8ff" d="M291.03,-134.59C282.87,-123.46 273.82,-111.12 267.03,-101.86"/>
<polygon fill="#63b8ff" stroke="#63b8ff" points="288.31,-136.8 297.05,-142.79 293.96,-132.66 288.31,-136.8"/>
</a>
</g>
</g>
<!-- Node8 -->
<g id="Node000008" class="node">
<title>Node8</title>
<g id="a_Node000008"><a xlink:href="_async_client_socket_8hpp.html" target="_top" xlink:title=" ">
<polygon fill="white" stroke="#666666" points="939,-30 776,-30 776,0 939,0 939,-30"/>
<text text-anchor="start" x="784" y="-18" font-family="Helvetica,sans-Serif" font-size="10.00">include/Hermes/Socket</text>
<text text-anchor="middle" x="857.5" y="-7" font-family="Helvetica,sans-Serif" font-size="10.00">/Async/AsyncClientSocket.hpp</text>
</a>
</g>
</g>
<!-- Node7&#45;&gt;Node8 -->
<g id="edge8_Node000007_Node000008" class="edge">
<title>Node7&#45;&gt;Node8</title>
<g id="a_edge8_Node000007_Node000008"><a xlink:title=" ">
<path fill="none" stroke="#63b8ff" d="M1341.77,-139.1C1287.91,-117.61 1204.3,-86.15 1129.5,-66 1066.45,-49.02 993.62,-35.97 939.2,-27.46"/>
<polygon fill="#63b8ff" stroke="#63b8ff" points="1340.56,-142.38 1351.14,-142.85 1343.16,-135.88 1340.56,-142.38"/>
</a>
</g>
</g>
<!-- Node9 -->
<g id="Node000009" class="node">
<title>Node9</title>
<g id="a_Node000009"><a xlink:href="_tls_async_connect_policy_8hpp.html" target="_top" xlink:title=" ">
<polygon fill="white" stroke="#666666" points="1120.5,-107 968.5,-107 968.5,-66 1120.5,-66 1120.5,-107"/>
<text text-anchor="start" x="976.5" y="-95" font-family="Helvetica,sans-Serif" font-size="10.00">include/Hermes/Socket</text>
<text text-anchor="start" x="976.5" y="-84" font-family="Helvetica,sans-Serif" font-size="10.00">/Async/_base/Connection</text>
<text text-anchor="middle" x="1044.5" y="-73" font-family="Helvetica,sans-Serif" font-size="10.00">/TlsAsyncConnectPolicy.hpp</text>
</a>
</g>
</g>
<!-- Node7&#45;&gt;Node9 -->
<g id="edge9_Node000007_Node000009" class="edge">
<title>Node7&#45;&gt;Node9</title>
<g id="a_edge9_Node000007_Node000009"><a xlink:title=" ">
<path fill="none" stroke="#63b8ff" d="M1301.79,-142.01C1244.75,-129.93 1173.6,-114.85 1120.59,-103.62"/>
<polygon fill="#63b8ff" stroke="#63b8ff" points="1301.39,-145.5 1311.9,-144.15 1302.84,-138.66 1301.39,-145.5"/>
</a>
</g>
</g>
<!-- Node9&#45;&gt;Node8 -->
<g id="edge10_Node000009_Node000008" class="edge">
<title>Node9&#45;&gt;Node8</title>
<g id="a_edge10_Node000009_Node000008"><a xlink:title=" ">
<path fill="none" stroke="#63b8ff" d="M982.32,-62.39C953.48,-51.67 920.14,-39.28 895.18,-30"/>
<polygon fill="#63b8ff" stroke="#63b8ff" points="981.32,-65.75 991.91,-65.96 983.76,-59.19 981.32,-65.75"/>
</a>
</g>
</g>
<!-- Node10&#45;&gt;Node4 -->
<g id="edge13_Node000010_Node000004" class="edge">
<title>Node10&#45;&gt;Node4</title>
<g id="a_edge13_Node000010_Node000004"><a xlink:title=" ">
<path fill="none" stroke="#63b8ff" d="M139.93,-138.93C167.73,-126.66 200.78,-112.08 224.58,-101.58"/>
<polygon fill="#63b8ff" stroke="#63b8ff" points="138.46,-135.75 130.72,-142.99 141.28,-142.16 138.46,-135.75"/>
</a>
</g>
</g>
<!-- Node10&#45;&gt;Node8 -->
<g id="edge12_Node000010_Node000008" class="edge">
<title>Node10&#45;&gt;Node8</title>
<g id="a_edge12_Node000010_Node000008"><a xlink:title=" ">
<path fill="none" stroke="#63b8ff" d="M100.97,-134C114.18,-111.29 135.97,-80.91 164.5,-66 217.49,-38.31 604.01,-23.52 775.7,-18.26"/>
<polygon fill="#63b8ff" stroke="#63b8ff" points="97.82,-132.45 96,-142.89 103.94,-135.86 97.82,-132.45"/>
</a>
</g>
</g>
<!-- Node11&#45;&gt;Node3 -->
<g id="edge15_Node000011_Node000003" class="edge">
<title>Node11&#45;&gt;Node3</title>
<g id="a_edge15_Node000011_Node000003"><a xlink:title=" ">
<path fill="none" stroke="#63b8ff" d="M525.58,-294.42C485.37,-283.84 437.63,-271.27 398.76,-261.04"/>
<polygon fill="#63b8ff" stroke="#63b8ff" points="524.8,-297.83 535.36,-296.99 526.58,-291.06 524.8,-297.83"/>
</a>
</g>
</g>
<!-- Node12 -->
<g id="Node000012" class="node">
<title>Node12</title>
<g id="a_Node000012"><a xlink:href="_server_socket_8hpp.html" target="_top" xlink:title=" ">
<polygon fill="white" stroke="#666666" points="890,-178.5 759,-178.5 759,-148.5 890,-148.5 890,-178.5"/>
<text text-anchor="start" x="767" y="-166.5" font-family="Helvetica,sans-Serif" font-size="10.00">include/Hermes/Socket</text>
<text text-anchor="middle" x="824.5" y="-155.5" font-family="Helvetica,sans-Serif" font-size="10.00">/Sync/ServerSocket.hpp</text>
</a>
</g>
</g>
<!-- Node11&#45;&gt;Node12 -->
<g id="edge16_Node000011_Node000012" class="edge">
<title>Node11&#45;&gt;Node12</title>
<g id="a_edge16_Node000011_Node000012"><a xlink:title=" ">
<path fill="none" stroke="#63b8ff" d="M645.56,-290.84C672.95,-271.37 711.57,-243.96 745.5,-220 765.49,-205.89 788.38,-189.82 804.35,-178.62"/>
<polygon fill="#63b8ff" stroke="#63b8ff" points="643.21,-288.22 637.08,-296.87 647.26,-293.93 643.21,-288.22"/>
</a>
</g>
</g>
<!-- Node14 -->
<g id="Node000014" class="node">
<title>Node14</title>
<g id="a_Node000014"><a xlink:href="_tls_accept_policy_8hpp.html" target="_top" xlink:title=" ">
<polygon fill="white" stroke="#666666" points="660,-261 499,-261 499,-220 660,-220 660,-261"/>
<text text-anchor="start" x="507" y="-249" font-family="Helvetica,sans-Serif" font-size="10.00">include/Hermes/Socket</text>
<text text-anchor="start" x="507" y="-238" font-family="Helvetica,sans-Serif" font-size="10.00">/Sync/_base/Accept/TlsAccept</text>
<text text-anchor="middle" x="579.5" y="-227" font-family="Helvetica,sans-Serif" font-size="10.00">Policy.hpp</text>
</a>
</g>
</g>
<!-- Node11&#45;&gt;Node14 -->
<g id="edge18_Node000011_Node000014" class="edge">
<title>Node11&#45;&gt;Node14</title>
<g id="a_edge18_Node000011_Node000014"><a xlink:title=" ">
<path fill="none" stroke="#63b8ff" d="M597.8,-287.26C594.29,-278.48 590.53,-269.07 587.33,-261.07"/>
<polygon fill="#63b8ff" stroke="#63b8ff" points="594.65,-288.81 601.62,-296.79 601.15,-286.21 594.65,-288.81"/>
</a>
</g>
</g>
<!-- Node13 -->
<g id="Node000013" class="node">
<title>Node13</title>
<g id="a_Node000013"><a xlink:href="_listener_socket_8hpp.html" target="_top" xlink:title=" ">
<polygon fill="white" stroke="#666666" points="893.5,-101.5 755.5,-101.5 755.5,-71.5 893.5,-71.5 893.5,-101.5"/>
<text text-anchor="start" x="763.5" y="-89.5" font-family="Helvetica,sans-Serif" font-size="10.00">include/Hermes/Socket</text>
<text text-anchor="middle" x="824.5" y="-78.5" font-family="Helvetica,sans-Serif" font-size="10.00">/Sync/ListenerSocket.hpp</text>
</a>
</g>
</g>
<!-- Node12&#45;&gt;Node13 -->
<g id="edge17_Node000012_Node000013" class="edge">
<title>Node12&#45;&gt;Node13</title>
<g id="a_edge17_Node000012_Node000013"><a xlink:title=" ">
<path fill="none" stroke="#63b8ff" d="M824.5,-138.04C824.5,-125.95 824.5,-111.79 824.5,-101.54"/>
<polygon fill="#63b8ff" stroke="#63b8ff" points="821,-138.39 824.5,-148.39 828,-138.39 821,-138.39"/>
</a>
</g>
</g>
<!-- Node14&#45;&gt;Node6 -->
<g id="edge19_Node000014_Node000006" class="edge">
<title>Node14&#45;&gt;Node6</title>
<g id="a_edge19_Node000014_Node000006"><a xlink:title=" ">
<path fill="none" stroke="#63b8ff" d="M499.87,-217.21C462.21,-206.68 417.65,-194.21 381.33,-184.04"/>
<polygon fill="#63b8ff" stroke="#63b8ff" points="499.21,-220.67 509.79,-219.99 501.1,-213.92 499.21,-220.67"/>
</a>
</g>
</g>
<!-- Node14&#45;&gt;Node12 -->
<g id="edge20_Node000014_Node000012" class="edge">
<title>Node14&#45;&gt;Node12</title>
<g id="a_edge20_Node000014_Node000012"><a xlink:title=" ">
<path fill="none" stroke="#63b8ff" d="M652.86,-217.04C693.65,-204.56 743.16,-189.4 778.5,-178.58"/>
<polygon fill="#63b8ff" stroke="#63b8ff" points="651.77,-213.72 643.23,-219.99 653.82,-220.41 651.77,-213.72"/>
</a>
</g>
</g>
<!-- Node15 -->
<g id="Node000015" class="node">
<title>Node15</title>
<g id="a_Node000015"><a xlink:href="_tls_accept_state_machine_8hpp.html" target="_top" xlink:title=" ">
<polygon fill="white" stroke="#666666" points="571.5,-184 411.5,-184 411.5,-143 571.5,-143 571.5,-184"/>
<text text-anchor="start" x="419.5" y="-172" font-family="Helvetica,sans-Serif" font-size="10.00">include/Hermes/Socket</text>
<text text-anchor="start" x="419.5" y="-161" font-family="Helvetica,sans-Serif" font-size="10.00">/_base/Accept/TlsAcceptState</text>
<text text-anchor="middle" x="491.5" y="-150" font-family="Helvetica,sans-Serif" font-size="10.00">Machine.hpp</text>
</a>
</g>
</g>
<!-- Node14&#45;&gt;Node15 -->
<g id="edge21_Node000014_Node000015" class="edge">
<title>Node14&#45;&gt;Node15</title>
<g id="a_edge21_Node000014_Node000015"><a xlink:title=" ">
<path fill="none" stroke="#63b8ff" d="M548.49,-213.07C537.29,-203.52 524.85,-192.93 514.47,-184.07"/>
<polygon fill="#63b8ff" stroke="#63b8ff" points="546.5,-215.97 556.38,-219.79 551.04,-210.64 546.5,-215.97"/>
</a>
</g>
</g>
<!-- Node17 -->
<g id="Node000017" class="node">
<title>Node17</title>
<g id="a_Node000017"><a xlink:href="_client_socket_8hpp.html" target="_top" xlink:title=" ">
<polygon fill="white" stroke="#666666" points="1074.5,-178.5 946.5,-178.5 946.5,-148.5 1074.5,-148.5 1074.5,-178.5"/>
<text text-anchor="start" x="954.5" y="-166.5" font-family="Helvetica,sans-Serif" font-size="10.00">include/Hermes/Socket</text>
<text text-anchor="middle" x="1010.5" y="-155.5" font-family="Helvetica,sans-Serif" font-size="10.00">/Sync/ClientSocket.hpp</text>
</a>
</g>
</g>
<!-- Node16&#45;&gt;Node17 -->
<g id="edge23_Node000016_Node000017" class="edge">
<title>Node16&#45;&gt;Node17</title>
<g id="a_edge23_Node000016_Node000017"><a xlink:title=" ">
<path fill="none" stroke="#63b8ff" d="M1110.38,-286.51C1108.98,-266.25 1104.47,-239.71 1091.5,-220 1079.5,-201.78 1059.25,-187.9 1042,-178.58"/>
<polygon fill="#63b8ff" stroke="#63b8ff" points="1106.89,-286.93 1110.86,-296.75 1113.88,-286.6 1106.89,-286.93"/>
</a>
</g>
</g>
<!-- Node16&#45;&gt;Node18 -->
<g id="edge24_Node000016_Node000018" class="edge">
<title>Node16&#45;&gt;Node18</title>
<g id="a_edge24_Node000016_Node000018"><a xlink:title=" ">
<path fill="none" stroke="#63b8ff" d="M1143.28,-290.35C1155.33,-280.73 1168.76,-270.01 1179.97,-261.07"/>
<polygon fill="#63b8ff" stroke="#63b8ff" points="1140.83,-287.82 1135.2,-296.79 1145.2,-293.29 1140.83,-287.82"/>
</a>
</g>
</g>
<!-- Node18&#45;&gt;Node7 -->
<g id="edge25_Node000018_Node000007" class="edge">
<title>Node18&#45;&gt;Node7</title>
<g id="a_edge25_Node000018_Node000007"><a xlink:title=" ">
<path fill="none" stroke="#63b8ff" d="M1264.59,-216.27C1291.32,-205.94 1322.44,-193.9 1347.95,-184.04"/>
<polygon fill="#63b8ff" stroke="#63b8ff" points="1263.03,-213.12 1254.96,-219.99 1265.55,-219.65 1263.03,-213.12"/>
</a>
</g>
</g>
<!-- Node18&#45;&gt;Node9 -->
<g id="edge26_Node000018_Node000009" class="edge">
<title>Node18&#45;&gt;Node9</title>
<g id="a_edge26_Node000018_Node000009"><a xlink:title=" ">
<path fill="none" stroke="#63b8ff" d="M1162.33,-214.41C1148.97,-205.57 1134.55,-195.07 1122.5,-184 1096.64,-160.25 1072.09,-127.62 1057.66,-107.05"/>
<polygon fill="#63b8ff" stroke="#63b8ff" points="1160.63,-217.48 1170.93,-219.96 1164.43,-211.6 1160.63,-217.48"/>
</a>
</g>
</g>
<!-- Node18&#45;&gt;Node17 -->
<g id="edge27_Node000018_Node000017" class="edge">
<title>Node18&#45;&gt;Node17</title>
<g id="a_edge27_Node000018_Node000017"><a xlink:title=" ">
<path fill="none" stroke="#63b8ff" d="M1144.36,-216.25C1112.46,-203.92 1074.32,-189.17 1046.93,-178.58"/>
<polygon fill="#63b8ff" stroke="#63b8ff" points="1143.45,-219.65 1154.04,-219.99 1145.97,-213.12 1143.45,-219.65"/>
</a>
</g>
</g>
<!-- Node19 -->
<g id="Node000019" class="node">
<title>Node19</title>
<g id="a_Node000019"><a xlink:href="_tls_connect_state_machine_8hpp.html" target="_top" xlink:title=" ">
<polygon fill="white" stroke="#666666" points="1294,-184 1131,-184 1131,-143 1294,-143 1294,-184"/>
<text text-anchor="start" x="1139" y="-172" font-family="Helvetica,sans-Serif" font-size="10.00">include/Hermes/Socket</text>
<text text-anchor="start" x="1139" y="-161" font-family="Helvetica,sans-Serif" font-size="10.00">/_base/Connection/TlsConnect</text>
<text text-anchor="middle" x="1212.5" y="-150" font-family="Helvetica,sans-Serif" font-size="10.00">StateMachine.hpp</text>
</a>
</g>
</g>
<!-- Node18&#45;&gt;Node19 -->
<g id="edge28_Node000018_Node000019" class="edge">
<title>Node18&#45;&gt;Node19</title>
<g id="a_edge28_Node000018_Node000019"><a xlink:title=" ">
<path fill="none" stroke="#63b8ff" d="M1207.68,-209.69C1208.6,-201.08 1209.58,-191.9 1210.41,-184.07"/>
<polygon fill="#63b8ff" stroke="#63b8ff" points="1204.18,-209.48 1206.6,-219.79 1211.14,-210.22 1204.18,-209.48"/>
</a>
</g>
</g>
<!-- Node20&#45;&gt;Node12 -->
<g id="edge31_Node000020_Node000012" class="edge">
<title>Node20&#45;&gt;Node12</title>
<g id="a_edge31_Node000020_Node000012"><a xlink:title=" ">
<path fill="none" stroke="#63b8ff" d="M952.84,-216.25C922.26,-203.92 885.69,-189.17 859.42,-178.58"/>
<polygon fill="#63b8ff" stroke="#63b8ff" points="951.53,-219.5 962.12,-219.99 954.15,-213 951.53,-219.5"/>
</a>
</g>
</g>
<!-- Node20&#45;&gt;Node17 -->
<g id="edge30_Node000020_Node000017" class="edge">
<title>Node20&#45;&gt;Node17</title>
<g id="a_edge30_Node000020_Node000017"><a xlink:title=" ">
<path fill="none" stroke="#63b8ff" d="M1010.5,-209.61C1010.5,-199.01 1010.5,-187.57 1010.5,-178.86"/>
<polygon fill="#63b8ff" stroke="#63b8ff" points="1007,-209.79 1010.5,-219.79 1014,-209.79 1007,-209.79"/>
</a>
</g>
</g>
<!-- Node21&#45;&gt;Node6 -->
<g id="edge33_Node000021_Node000006" class="edge">
<title>Node21&#45;&gt;Node6</title>
<g id="a_edge33_Node000021_Node000006"><a xlink:title=" ">
<path fill="none" stroke="#63b8ff" d="M739.79,-302.28C729.6,-300.48 719.31,-298.68 709.5,-297 611.84,-280.28 583.25,-293.06 489.5,-261 474.62,-255.91 393.52,-210.76 346.08,-184.06"/>
<polygon fill="#63b8ff" stroke="#63b8ff" points="739.46,-305.77 749.92,-304.07 740.68,-298.88 739.46,-305.77"/>
</a>
</g>
</g>
<!-- Node21&#45;&gt;Node9 -->
<g id="edge34_Node000021_Node000009" class="edge">
<title>Node21&#45;&gt;Node9</title>
<g id="a_edge34_Node000021_Node000009"><a xlink:title=" ">
<path fill="none" stroke="#63b8ff" d="M852.39,-296.56C866.01,-287.18 880.96,-274.97 891.5,-261 925.4,-216.06 899.88,-184.87 937.5,-143 951.42,-127.51 970.68,-115.68 989.03,-107"/>
<polygon fill="#63b8ff" stroke="#63b8ff" points="850.1,-293.87 843.68,-302.3 853.96,-299.72 850.1,-293.87"/>
</a>
</g>
</g>
<!-- Node21&#45;&gt;Node14 -->
<g id="edge38_Node000021_Node000014" class="edge">
<title>Node21&#45;&gt;Node14</title>
<g id="a_edge38_Node000021_Node000014"><a xlink:title=" ">
<path fill="none" stroke="#63b8ff" d="M763.91,-299.37C727.6,-287.97 679.81,-272.98 641.98,-261.11"/>
<polygon fill="#63b8ff" stroke="#63b8ff" points="763.24,-302.83 773.83,-302.48 765.33,-296.15 763.24,-302.83"/>
</a>
</g>
</g>
<!-- Node21&#45;&gt;Node18 -->
<g id="edge39_Node000021_Node000018" class="edge">
<title>Node21&#45;&gt;Node18</title>
<g id="a_edge39_Node000021_Node000018"><a xlink:title=" ">
<path fill="none" stroke="#63b8ff" d="M897.29,-301.19C968.25,-287.4 1071.36,-267.37 1138.19,-254.38"/>
<polygon fill="#63b8ff" stroke="#63b8ff" points="896.21,-297.83 887.06,-303.18 897.55,-304.71 896.21,-297.83"/>
</a>
</g>
</g>
<!-- Node22 -->
<g id="Node000022" class="node">
<title>Node22</title>
<g id="a_Node000022"><a xlink:href="_tls_async_transfer_policy_8hpp.html" target="_top" xlink:title=" ">
<polygon fill="white" stroke="#666666" points="741,-184 590,-184 590,-143 741,-143 741,-184"/>
<text text-anchor="start" x="598" y="-172" font-family="Helvetica,sans-Serif" font-size="10.00">include/Hermes/Socket</text>
<text text-anchor="start" x="598" y="-161" font-family="Helvetica,sans-Serif" font-size="10.00">/Async/_base/Transfer</text>
<text text-anchor="middle" x="665.5" y="-150" font-family="Helvetica,sans-Serif" font-size="10.00">/TlsAsyncTransferPolicy.hpp</text>
</a>
</g>
</g>
<!-- Node21&#45;&gt;Node22 -->
<g id="edge35_Node000021_Node000022" class="edge">
<title>Node21&#45;&gt;Node22</title>
<g id="a_edge35_Node000021_Node000022"><a xlink:title=" ">
<path fill="none" stroke="#63b8ff" d="M789.12,-296.52C775.28,-286.54 758.92,-273.87 745.5,-261 720.05,-236.6 694.78,-204.44 679.64,-184.11"/>
<polygon fill="#63b8ff" stroke="#63b8ff" points="787.17,-299.43 797.35,-302.37 791.22,-293.73 787.17,-299.43"/>
</a>
</g>
</g>
<!-- Node23 -->
<g id="Node000023" class="node">
<title>Node23</title>
<g id="a_Node000023"><a xlink:href="_tls_transfer_policy_8hpp.html" target="_top" xlink:title=" ">
<polygon fill="white" stroke="#666666" points="882.5,-261 754.5,-261 754.5,-220 882.5,-220 882.5,-261"/>
<text text-anchor="start" x="762.5" y="-249" font-family="Helvetica,sans-Serif" font-size="10.00">include/Hermes/Socket</text>
<text text-anchor="start" x="762.5" y="-238" font-family="Helvetica,sans-Serif" font-size="10.00">/Sync/_base/Transfer</text>
<text text-anchor="middle" x="818.5" y="-227" font-family="Helvetica,sans-Serif" font-size="10.00">/TlsTransferPolicy.hpp</text>
</a>
</g>
</g>
<!-- Node21&#45;&gt;Node23 -->
<g id="edge40_Node000021_Node000023" class="edge">
<title>Node21&#45;&gt;Node23</title>
<g id="a_edge40_Node000021_Node000023"><a xlink:title=" ">
<path fill="none" stroke="#63b8ff" d="M818.5,-292.23C818.5,-282.2 818.5,-270.71 818.5,-261.2"/>
<polygon fill="#63b8ff" stroke="#63b8ff" points="815,-292.39 818.5,-302.39 822,-292.39 815,-292.39"/>
</a>
</g>
</g>
<!-- Node22&#45;&gt;Node4 -->
<g id="edge37_Node000022_Node000004" class="edge">
<title>Node22&#45;&gt;Node4</title>
<g id="a_edge37_Node000022_Node000004"><a xlink:title=" ">
<path fill="none" stroke="#63b8ff" d="M579.71,-142.89C492.2,-125.54 402.86,-110.57 339.64,-100.43"/>
<polygon fill="#63b8ff" stroke="#63b8ff" points="579.05,-146.33 589.55,-144.85 580.42,-139.47 579.05,-146.33"/>
</a>
</g>
</g>
<!-- Node22&#45;&gt;Node8 -->
<g id="edge36_Node000022_Node000008" class="edge">
<title>Node22&#45;&gt;Node8</title>
<g id="a_edge36_Node000022_Node000008"><a xlink:title=" ">
<path fill="none" stroke="#63b8ff" d="M683.71,-134.61C698.58,-113.56 721.21,-85.14 746.5,-66 766.98,-50.5 793.02,-38.45 814.73,-30.07"/>
<polygon fill="#63b8ff" stroke="#63b8ff" points="680.82,-132.63 678.02,-142.84 686.58,-136.61 680.82,-132.63"/>
</a>
</g>
</g>
<!-- Node23&#45;&gt;Node12 -->
<g id="edge42_Node000023_Node000012" class="edge">
<title>Node23&#45;&gt;Node12</title>
<g id="a_edge42_Node000023_Node000012"><a xlink:title=" ">
<path fill="none" stroke="#63b8ff" d="M820.89,-209.61C821.74,-199.01 822.65,-187.57 823.35,-178.86"/>
<polygon fill="#63b8ff" stroke="#63b8ff" points="817.39,-209.55 820.08,-219.79 824.36,-210.11 817.39,-209.55"/>
</a>
</g>
</g>
<!-- Node23&#45;&gt;Node17 -->
<g id="edge41_Node000023_Node000017" class="edge">
<title>Node23&#45;&gt;Node17</title>
<g id="a_edge41_Node000023_Node000017"><a xlink:title=" ">
<path fill="none" stroke="#63b8ff" d="M878.02,-216.25C909.59,-203.92 947.34,-189.17 974.45,-178.58"/>
<polygon fill="#63b8ff" stroke="#63b8ff" points="876.49,-213.09 868.44,-219.99 879.03,-219.61 876.49,-213.09"/>
</a>
</g>
</g>
</g>
</svg>
