<?xml version="1.0" encoding="UTF-8" standalone="no"?>
<!DOCTYPE svg PUBLIC "-//W3C//DTD SVG 1.1//EN"
 "http://www.w3.org/Graphics/SVG/1.1/DTD/svg11.dtd">
<!-- Generated by graphviz version 2.43.0 (0)
 -->
<!-- Title: include/Hermes/Endpoint/IpEndpoint/IpEndpoint.hpp Pages: 1 -->
<svg width="1140pt" height="478pt"
 viewBox="0.00 0.00 1139.98 478.00" xmlns="http://www.w3.org/2000/svg" xmlns:xlink="http://www.w3.org/1999/xlink">
<g id="graph0" class="graph" transform="scale(1 1) rotate(0) translate(4 474)">
<title>include/Hermes/Endpoint/IpEndpoint/IpEndpoint.hpp</title>
<!-- Node1 -->
<g id="Node000001" class="node">
<title>Node1</title>
<g id="a_Node000001"><a xlink:title=" ">
<polygon fill="#999999" stroke="#666666" points="639,-470 492,-470 492,-440 639,-440 639,-470"/>
<text text-anchor="start" x="500" y="-458" font-family="Helvetica,sans-Serif" font-size="10.00">include/Hermes/Endpoint</text>
<text text-anchor="middle" x="565.5" y="-447" font-family="Helvetica,sans-Serif" font-size="10.00">/IpEndpoint/IpEndpoint.hpp</text>
</a>
</g>
</g>
<!-- Node2 -->
<g id="Node000002" class="node">
<title>Node2</title>
<g id="a_Node000002"><a xlink:href="_default_socket_data_8hpp.html" target="_top" xlink:title=" ">
<polygon fill="white" stroke="#666666" points="591.5,-404 433.5,-404 433.5,-374 591.5,-374 591.5,-404"/>
<text text-anchor="start" x="441.5" y="-392" font-family="Helvetica,sans-Serif" font-size="10.00">include/Hermes/Socket</text>
<text text-anchor="middle" x="512.5" y="-381" font-family="Helvetica,sans-Serif" font-size="10.00">/Data/DefaultSocketData.hpp</text>
</a>
</g>
</g>
<!-- Node1&#45;&gt;Node2 -->
<g id="edge1_Node000001_Node000002" class="edge">
<title>Node1&#45;&gt;Node2</title>
<g id="a_edge1_Node000001_Node000002"><a xlink:title=" ">
<path fill="none" stroke="#63b8ff" d="M547.35,-432.09C539.7,-422.85 531.02,-412.36 524.23,-404.16"/>
<polygon fill="#63b8ff" stroke="#63b8ff" points="544.66,-434.33 553.74,-439.8 550.06,-429.86 544.66,-434.33"/>
</a>
</g>
</g>
<!-- Node17 -->
<g id="Node000017" class="node">
<title>Node17</title>
<g id="a_Node000017"><a xlink:href="_tls_socket_data_8hpp.html" target="_top" xlink:title=" ">
<polygon fill="white" stroke="#666666" points="714,-332.5 577,-332.5 577,-302.5 714,-302.5 714,-332.5"/>
<text text-anchor="start" x="585" y="-320.5" font-family="Helvetica,sans-Serif" font-size="10.00">include/Hermes/Socket</text>
<text text-anchor="middle" x="645.5" y="-309.5" font-family="Helvetica,sans-Serif" font-size="10.00">/Data/TlsSocketData.hpp</text>
</a>
</g>
</g>
<!-- Node1&#45;&gt;Node17 -->
<g id="edge24_Node000001_Node000017" class="edge">
<title>Node1&#45;&gt;Node17</title>
<g id="a_edge24_Node000001_Node000017"><a xlink:title=" ">
<path fill="none" stroke="#63b8ff" d="M582.08,-431.61C588.12,-423.12 594.85,-413.27 600.5,-404 615.35,-379.65 630.32,-349.94 638.7,-332.72"/>
<polygon fill="#63b8ff" stroke="#63b8ff" points="579.12,-429.73 576.1,-439.88 584.79,-433.82 579.12,-429.73"/>
</a>
</g>
</g>
<!-- Node3 -->
<g id="Node000003" class="node">
<title>Node3</title>
<g id="a_Node000003"><a xlink:href="_default_async_connect_policy_8hpp.html" target="_top" xlink:title=" ">
<polygon fill="white" stroke="#666666" points="460,-184 287,-184 287,-143 460,-143 460,-184"/>
<text text-anchor="start" x="295" y="-172" font-family="Helvetica,sans-Serif" font-size="10.00">include/Hermes/Socket</text>
<text text-anchor="start" x="295" y="-161" font-family="Helvetica,sans-Serif" font-size="10.00">/Async/_base/Connection</text>
<text text-anchor="middle" x="373.5" y="-150" font-family="Helvetica,sans-Serif" font-size="10.00">/DefaultAsyncConnectPolicy.hpp</text>
</a>
</g>
</g>
<!-- Node2&#45;&gt;Node3 -->
<g id="edge2_Node000002_Node000003" class="edge">
<title>Node2&#45;&gt;Node3</title>
<g id="a_edge2_Node000002_Node000003"><a xlink:title=" ">
<path fill="none" stroke="#63b8ff" d="M448.4,-369.84C432.24,-362.4 416.4,-352.1 405.5,-338 370,-292.08 369.52,-219.07 371.67,-184.24"/>
<polygon fill="#63b8ff" stroke="#63b8ff" points="447.35,-373.19 457.92,-373.9 450.1,-366.75 447.35,-373.19"/>
</a>
</g>
</g>
<!-- Node6 -->
<g id="Node000006" class="node">
<title>Node6</title>
<g id="a_Node000006"><a xlink:href="_default_async_transfer_policy_8hpp.html" target="_top" xlink:title=" ">
<polygon fill="white" stroke="#666666" points="173,-261 0,-261 0,-220 173,-220 173,-261"/>
<text text-anchor="start" x="8" y="-249" font-family="Helvetica,sans-Serif" font-size="10.00">include/Hermes/Socket</text>
<text text-anchor="start" x="8" y="-238" font-family="Helvetica,sans-Serif" font-size="10.00">/Async/_base/Transfer</text>
<text text-anchor="middle" x="86.5" y="-227" font-family="Helvetica,sans-Serif" font-size="10.00">/DefaultAsyncTransferPolicy.hpp</text>
</a>
</g>
</g>
<!-- Node2&#45;&gt;Node6 -->
<g id="edge6_Node000002_Node000006" class="edge">
<title>Node2&#45;&gt;Node6</title>
<g id="a_edge6_Node000002_Node000006"><a xlink:title=" ">
<path fill="none" stroke="#63b8ff" d="M461.31,-370.66C433.05,-361.07 397.32,-348.91 365.5,-338 288.3,-311.52 199.18,-280.64 142.85,-261.08"/>
<polygon fill="#63b8ff" stroke="#63b8ff" points="460.38,-374.04 470.98,-373.94 462.63,-367.41 460.38,-374.04"/>
</a>
</g>
</g>
<!-- Node9 -->
<g id="Node000009" class="node">
<title>Node9</title>
<g id="a_Node000009"><a xlink:href="_default_accept_policy_8hpp.html" target="_top" xlink:title=" ">
<polygon fill="white" stroke="#666666" points="1125.5,-338 943.5,-338 943.5,-297 1125.5,-297 1125.5,-338"/>
<text text-anchor="start" x="951.5" y="-326" font-family="Helvetica,sans-Serif" font-size="10.00">include/Hermes/Socket</text>
<text text-anchor="start" x="951.5" y="-315" font-family="Helvetica,sans-Serif" font-size="10.00">/Sync/_base/Accept/DefaultAccept</text>
<text text-anchor="middle" x="1034.5" y="-304" font-family="Helvetica,sans-Serif" font-size="10.00">Policy.hpp</text>
</a>
</g>
</g>
<!-- Node2&#45;&gt;Node9 -->
<g id="edge10_Node000002_Node000009" class="edge">
<title>Node2&#45;&gt;Node9</title>
<g id="a_edge10_Node000002_Node000009"><a xlink:title=" ">
<path fill="none" stroke="#63b8ff" d="M601.98,-376.09C697.34,-363.39 847.53,-343.39 943.48,-330.62"/>
<polygon fill="#63b8ff" stroke="#63b8ff" points="601.23,-372.66 591.78,-377.44 602.16,-379.59 601.23,-372.66"/>
</a>
</g>
</g>
<!-- Node13 -->
<g id="Node000013" class="node">
<title>Node13</title>
<g id="a_Node000013"><a xlink:href="_default_connect_policy_8hpp.html" target="_top" xlink:title=" ">
<polygon fill="white" stroke="#666666" points="558.5,-338 414.5,-338 414.5,-297 558.5,-297 558.5,-338"/>
<text text-anchor="start" x="422.5" y="-326" font-family="Helvetica,sans-Serif" font-size="10.00">include/Hermes/Socket</text>
<text text-anchor="start" x="422.5" y="-315" font-family="Helvetica,sans-Serif" font-size="10.00">/Sync/_base/Connection</text>
<text text-anchor="middle" x="486.5" y="-304" font-family="Helvetica,sans-Serif" font-size="10.00">/DefaultConnectPolicy.hpp</text>
</a>
</g>
</g>
<!-- Node2&#45;&gt;Node13 -->
<g id="edge15_Node000002_Node000013" class="edge">
<title>Node2&#45;&gt;Node13</title>
<g id="a_edge15_Node000002_Node000013"><a xlink:title=" ">
<path fill="none" stroke="#63b8ff" d="M503.7,-364.47C500.49,-355.89 496.89,-346.28 493.82,-338.07"/>
<polygon fill="#63b8ff" stroke="#63b8ff" points="500.46,-365.8 507.24,-373.94 507.01,-363.34 500.46,-365.8"/>
</a>
</g>
</g>
<!-- Node16 -->
<g id="Node000016" class="node">
<title>Node16</title>
<g id="a_Node000016"><a xlink:href="_default_transfer_policy_8hpp.html" target="_top" xlink:title=" ">
<polygon fill="white" stroke="#666666" points="936,-261 793,-261 793,-220 936,-220 936,-261"/>
<text text-anchor="start" x="801" y="-249" font-family="Helvetica,sans-Serif" font-size="10.00">include/Hermes/Socket</text>
<text text-anchor="start" x="801" y="-238" font-family="Helvetica,sans-Serif" font-size="10.00">/Sync/_base/Transfer</text>
<text text-anchor="middle" x="864.5" y="-227" font-family="Helvetica,sans-Serif" font-size="10.00">/DefaultTransferPolicy.hpp</text>
</a>
</g>
</g>
<!-- Node2&#45;&gt;Node16 -->
<g id="edge21_Node000002_Node000016" class="edge">
<title>Node2&#45;&gt;Node16</title>
<g id="a_edge21_Node000002_Node000016"><a xlink:title=" ">
<path fill="none" stroke="#63b8ff" d="M601.8,-374.38C640.29,-366.61 685.18,-354.95 723.5,-338 768.8,-317.96 815,-283 841.65,-261.12"/>
<polygon fill="#63b8ff" stroke="#63b8ff" points="600.78,-371.01 591.64,-376.37 602.13,-377.88 600.78,-371.01"/>
</a>
</g>
</g>
<!-- Node4 -->
<g id="Node000004" class="node">
<title>Node4</title>
<g id="a_Node000004"><a xlink:href="_async_client_socket_8hpp.html" target="_top" xlink:title=" ">
<polygon fill="white" stroke="#666666" points="397,-30 234,-30 234,0 397,0 397,-30"/>
<text text-anchor="start" x="242" y="-18" font-family="Helvetica,sans-Serif" font-size="10.00">include/Hermes/Socket</text>
<text text-anchor="middle" x="315.5" y="-7" font-family="Helvetica,sans-Serif" font-size="10.00">/Async/AsyncClientSocket.hpp</text>
</a>
</g>
</g>
<!-- Node3&#45;&gt;Node4 -->
<g id="edge3_Node000003_Node000004" class="edge">
<title>Node3&#45;&gt;Node4</title>
<g id="a_edge3_Node000003_Node000004"><a xlink:title=" ">
<path fill="none" stroke="#63b8ff" d="M361.92,-133.26C349.56,-102.04 330.5,-53.89 321.11,-30.18"/>
<polygon fill="#63b8ff" stroke="#63b8ff" points="358.74,-134.73 365.68,-142.74 365.25,-132.16 358.74,-134.73"/>
</a>
</g>
</g>
<!-- Node5 -->
<g id="Node000005" class="node">
<title>Node5</title>
<g id="a_Node000005"><a xlink:href="_tls_async_connect_policy_8hpp.html" target="_top" xlink:title=" ">
<polygon fill="white" stroke="#666666" points="544.5,-107 392.5,-107 392.5,-66 544.5,-66 544.5,-107"/>
<text text-anchor="start" x="400.5" y="-95" font-family="Helvetica,sans-Serif" font-size="10.00">include/Hermes/Socket</text>
<text text-anchor="start" x="400.5" y="-84" font-family="Helvetica,sans-Serif" font-size="10.00">/Async/_base/Connection</text>
<text text-anchor="middle" x="468.5" y="-73" font-family="Helvetica,sans-Serif" font-size="10.00">/TlsAsyncConnectPolicy.hpp</text>
</a>
</g>
</g>
<!-- Node3&#45;&gt;Node5 -->
<g id="edge4_Node000003_Node000005" class="edge">
<title>Node3&#45;&gt;Node5</title>
<g id="a_edge4_Node000003_Node000005"><a xlink:title=" ">
<path fill="none" stroke="#63b8ff" d="M406.63,-136.35C418.81,-126.73 432.38,-116.01 443.71,-107.07"/>
<polygon fill="#63b8ff" stroke="#63b8ff" points="404.14,-133.85 398.46,-142.79 408.48,-139.35 404.14,-133.85"/>
</a>
</g>
</g>
<!-- Node5&#45;&gt;Node4 -->
<g id="edge5_Node000005_Node000004" class="edge">
<title>Node5&#45;&gt;Node4</title>
<g id="a_edge5_Node000005_Node000004"><a xlink:title=" ">
<path fill="none" stroke="#63b8ff" d="M416.12,-61.71C392.97,-51.19 366.53,-39.18 346.57,-30.11"/>
<polygon fill="#63b8ff" stroke="#63b8ff" points="414.92,-65.01 425.47,-65.96 417.82,-58.63 414.92,-65.01"/>
</a>
</g>
</g>
<!-- Node6&#45;&gt;Node4 -->
<g id="edge7_Node000006_Node000004" class="edge">
<title>Node6&#45;&gt;Node4</title>
<g id="a_edge7_Node000006_Node000004"><a xlink:title=" ">
<path fill="none" stroke="#63b8ff" d="M65.04,-211.6C59.65,-203.17 54.54,-193.59 51.5,-184 35.63,-133.98 13.97,-106.36 47.5,-66 70.9,-37.83 163.94,-25.45 233.88,-20.06"/>
<polygon fill="#63b8ff" stroke="#63b8ff" points="62.17,-213.61 70.68,-219.93 67.97,-209.69 62.17,-213.61"/>
</a>
</g>
</g>
<!-- Node7 -->
<g id="Node000007" class="node">
<title>Node7</title>
<g id="a_Node000007"><a xlink:href="_async_server_socket_8hpp.html" target="_top" xlink:title=" ">
<polygon fill="white" stroke="#666666" points="226.5,-178.5 60.5,-178.5 60.5,-148.5 226.5,-148.5 226.5,-178.5"/>
<text text-anchor="start" x="68.5" y="-166.5" font-family="Helvetica,sans-Serif" font-size="10.00">include/Hermes/Socket</text>
<text text-anchor="middle" x="143.5" y="-155.5" font-family="Helvetica,sans-Serif" font-size="10.00">/Async/AsyncServerSocket.hpp</text>
</a>
</g>
</g>
<!-- Node6&#45;&gt;Node7 -->
<g id="edge8_Node000006_Node000007" class="edge">
<title>Node6&#45;&gt;Node7</title>
<g id="a_edge8_Node000006_Node000007"><a xlink:title=" ">
<path fill="none" stroke="#63b8ff" d="M107.71,-211.59C116.17,-200.46 125.55,-188.12 132.59,-178.86"/>
<polygon fill="#63b8ff" stroke="#63b8ff" points="104.74,-209.72 101.48,-219.79 110.31,-213.95 104.74,-209.72"/>
</a>
</g>
</g>
<!-- Node8 -->
<g id="Node000008" class="node">
<title>Node8</title>
<g id="a_Node000008"><a xlink:href="_async_listener_socket_8hpp.html" target="_top" xlink:title=" ">
<polygon fill="white" stroke="#666666" points="230,-101.5 57,-101.5 57,-71.5 230,-71.5 230,-101.5"/>
<text text-anchor="start" x="65" y="-89.5" font-family="Helvetica,sans-Serif" font-size="10.00">include/Hermes/Socket</text>
<text text-anchor="middle" x="143.5" y="-78.5" font-family="Helvetica,sans-Serif" font-size="10.00">/Async/AsyncListenerSocket.hpp</text>
</a>
</g>
</g>
<!-- Node7&#45;&gt;Node8 -->
<g id="edge9_Node000007_Node000008" class="edge">
<title>Node7&#45;&gt;Node8</title>
<g id="a_edge9_Node000007_Node000008"><a xlink:title=" ">
<path fill="none" stroke="#63b8ff" d="M143.5,-138.04C143.5,-125.95 143.5,-111.79 143.5,-101.54"/>
<polygon fill="#63b8ff" stroke="#63b8ff" points="140,-138.39 143.5,-148.39 147,-138.39 140,-138.39"/>
</a>
</g>
</g>
<!-- Node10 -->
<g id="Node000010" class="node">
<title>Node10</title>
<g id="a_Node000010"><a xlink:href="_server_socket_8hpp.html" target="_top" xlink:title=" ">
<polygon fill="white" stroke="#666666" points="1015,-178.5 884,-178.5 884,-148.5 1015,-148.5 1015,-178.5"/>
<text text-anchor="start" x="892" y="-166.5" font-family="Helvetica,sans-Serif" font-size="10.00">include/Hermes/Socket</text>
<text text-anchor="middle" x="949.5" y="-155.5" font-family="Helvetica,sans-Serif" font-size="10.00">/Sync/ServerSocket.hpp</text>
</a>
</g>
</g>
<!-- Node9&#45;&gt;Node10 -->
<g id="edge11_Node000009_Node000010" class="edge">
<title>Node9&#45;&gt;Node10</title>
<g id="a_edge11_Node000009_Node000010"><a xlink:title=" ">
<path fill="none" stroke="#63b8ff" d="M1094.38,-291.47C1106.42,-283.55 1117.52,-273.51 1124.5,-261 1133.38,-245.09 1135.26,-234.7 1124.5,-220 1099.65,-186.05 1053.9,-172.36 1015.41,-167.05"/>
<polygon fill="#63b8ff" stroke="#63b8ff" points="1092.22,-288.68 1085.48,-296.86 1095.85,-294.67 1092.22,-288.68"/>
</a>
</g>
</g>
<!-- Node12 -->
<g id="Node000012" class="node">
<title>Node12</title>
<g id="a_Node000012"><a xlink:href="_tls_accept_policy_8hpp.html" target="_top" xlink:title=" ">
<polygon fill="white" stroke="#666666" points="1115,-261 954,-261 954,-220 1115,-220 1115,-261"/>
<text text-anchor="start" x="962" y="-249" font-family="Helvetica,sans-Serif" font-size="10.00">include/Hermes/Socket</text>
<text text-anchor="start" x="962" y="-238" font-family="Helvetica,sans-Serif" font-size="10.00">/Sync/_base/Accept/TlsAccept</text>
<text text-anchor="middle" x="1034.5" y="-227" font-family="Helvetica,sans-Serif" font-size="10.00">Policy.hpp</text>
</a>
</g>
</g>
<!-- Node9&#45;&gt;Node12 -->
<g id="edge13_Node000009_Node000012" class="edge">
<title>Node9&#45;&gt;Node12</title>
<g id="a_edge13_Node000009_Node000012"><a xlink:title=" ">
<path fill="none" stroke="#63b8ff" d="M1034.5,-286.69C1034.5,-278.08 1034.5,-268.9 1034.5,-261.07"/>
<polygon fill="#63b8ff" stroke="#63b8ff" points="1031,-286.79 1034.5,-296.79 1038,-286.79 1031,-286.79"/>
</a>
</g>
</g>
<!-- Node11 -->
<g id="Node000011" class="node">
<title>Node11</title>
<g id="a_Node000011"><a xlink:href="_listener_socket_8hpp.html" target="_top" xlink:title=" ">
<polygon fill="white" stroke="#666666" points="1018.5,-101.5 880.5,-101.5 880.5,-71.5 1018.5,-71.5 1018.5,-101.5"/>
<text text-anchor="start" x="888.5" y="-89.5" font-family="Helvetica,sans-Serif" font-size="10.00">include/Hermes/Socket</text>
<text text-anchor="middle" x="949.5" y="-78.5" font-family="Helvetica,sans-Serif" font-size="10.00">/Sync/ListenerSocket.hpp</text>
</a>
</g>
</g>
<!-- Node10&#45;&gt;Node11 -->
<g id="edge12_Node000010_Node000011" class="edge">
<title>Node10&#45;&gt;Node11</title>
<g id="a_edge12_Node000010_Node000011"><a xlink:title=" ">
<path fill="none" stroke="#63b8ff" d="M949.5,-138.04C949.5,-125.95 949.5,-111.79 949.5,-101.54"/>
<polygon fill="#63b8ff" stroke="#63b8ff" points="946,-138.39 949.5,-148.39 953,-138.39 946,-138.39"/>
</a>
</g>
</g>
<!-- Node12&#45;&gt;Node10 -->
<g id="edge14_Node000012_Node000010" class="edge">
<title>Node12&#45;&gt;Node10</title>
<g id="a_edge14_Node000012_Node000010"><a xlink:title=" ">
<path fill="none" stroke="#63b8ff" d="M1004.66,-213.17C991.48,-201.55 976.52,-188.34 965.51,-178.63"/>
<polygon fill="#63b8ff" stroke="#63b8ff" points="1002.35,-215.8 1012.17,-219.79 1006.98,-210.55 1002.35,-215.8"/>
</a>
</g>
</g>
<!-- Node14 -->
<g id="Node000014" class="node">
<title>Node14</title>
<g id="a_Node000014"><a xlink:href="_client_socket_8hpp.html" target="_top" xlink:title=" ">
<polygon fill="white" stroke="#666666" points="644.5,-178.5 516.5,-178.5 516.5,-148.5 644.5,-148.5 644.5,-178.5"/>
<text text-anchor="start" x="524.5" y="-166.5" font-family="Helvetica,sans-Serif" font-size="10.00">include/Hermes/Socket</text>
<text text-anchor="middle" x="580.5" y="-155.5" font-family="Helvetica,sans-Serif" font-size="10.00">/Sync/ClientSocket.hpp</text>
</a>
</g>
</g>
<!-- Node13&#45;&gt;Node14 -->
<g id="edge16_Node000013_Node000014" class="edge">
<title>Node13&#45;&gt;Node14</title>
<g id="a_edge16_Node000013_Node000014"><a xlink:title=" ">
<path fill="none" stroke="#63b8ff" d="M532.23,-290.94C543.33,-282.73 554.12,-272.67 561.5,-261 577.75,-235.31 580.59,-198.69 580.81,-178.76"/>
<polygon fill="#63b8ff" stroke="#63b8ff" points="529.93,-288.28 523.73,-296.87 533.93,-294.02 529.93,-288.28"/>
</a>
</g>
</g>
<!-- Node15 -->
<g id="Node000015" class="node">
<title>Node15</title>
<g id="a_Node000015"><a xlink:href="_tls_connect_policy_8hpp.html" target="_top" xlink:title=" ">
<polygon fill="white" stroke="#666666" points="552.5,-261 420.5,-261 420.5,-220 552.5,-220 552.5,-261"/>
<text text-anchor="start" x="428.5" y="-249" font-family="Helvetica,sans-Serif" font-size="10.00">include/Hermes/Socket</text>
<text text-anchor="start" x="428.5" y="-238" font-family="Helvetica,sans-Serif" font-size="10.00">/Sync/_base/Connection</text>
<text text-anchor="middle" x="486.5" y="-227" font-family="Helvetica,sans-Serif" font-size="10.00">/TlsConnectPolicy.hpp</text>
</a>
</g>
</g>
<!-- Node13&#45;&gt;Node15 -->
<g id="edge17_Node000013_Node000015" class="edge">
<title>Node13&#45;&gt;Node15</title>
<g id="a_edge17_Node000013_Node000015"><a xlink:title=" ">
<path fill="none" stroke="#63b8ff" d="M486.5,-286.69C486.5,-278.08 486.5,-268.9 486.5,-261.07"/>
<polygon fill="#63b8ff" stroke="#63b8ff" points="483,-286.79 486.5,-296.79 490,-286.79 483,-286.79"/>
</a>
</g>
</g>
<!-- Node15&#45;&gt;Node3 -->
<g id="edge18_Node000015_Node000003" class="edge">
<title>Node15&#45;&gt;Node3</title>
<g id="a_edge18_Node000015_Node000003"><a xlink:title=" ">
<path fill="none" stroke="#63b8ff" d="M448.64,-214.37C433.81,-204.53 417.06,-193.41 403.14,-184.17"/>
<polygon fill="#63b8ff" stroke="#63b8ff" points="446.84,-217.38 457.11,-219.99 450.71,-211.54 446.84,-217.38"/>
</a>
</g>
</g>
<!-- Node15&#45;&gt;Node5 -->
<g id="edge19_Node000015_Node000005" class="edge">
<title>Node15&#45;&gt;Node5</title>
<g id="a_edge19_Node000015_Node000005"><a xlink:title=" ">
<path fill="none" stroke="#63b8ff" d="M483,-209.98C479.43,-179.76 473.96,-133.64 470.86,-107.47"/>
<polygon fill="#63b8ff" stroke="#63b8ff" points="479.53,-210.42 484.18,-219.94 486.48,-209.6 479.53,-210.42"/>
</a>
</g>
</g>
<!-- Node15&#45;&gt;Node14 -->
<g id="edge20_Node000015_Node000014" class="edge">
<title>Node15&#45;&gt;Node14</title>
<g id="a_edge20_Node000015_Node000014"><a xlink:title=" ">
<path fill="none" stroke="#63b8ff" d="M519.09,-213.5C533.76,-201.79 550.5,-188.44 562.8,-178.63"/>
<polygon fill="#63b8ff" stroke="#63b8ff" points="516.83,-210.82 511.2,-219.79 521.2,-216.29 516.83,-210.82"/>
</a>
</g>
</g>
<!-- Node16&#45;&gt;Node10 -->
<g id="edge23_Node000016_Node000010" class="edge">
<title>Node16&#45;&gt;Node10</title>
<g id="a_edge23_Node000016_Node000010"><a xlink:title=" ">
<path fill="none" stroke="#63b8ff" d="M894.34,-213.17C907.52,-201.55 922.48,-188.34 933.49,-178.63"/>
<polygon fill="#63b8ff" stroke="#63b8ff" points="892.02,-210.55 886.83,-219.79 896.65,-215.8 892.02,-210.55"/>
</a>
</g>
</g>
<!-- Node16&#45;&gt;Node14 -->
<g id="edge22_Node000016_Node000014" class="edge">
<title>Node16&#45;&gt;Node14</title>
<g id="a_edge22_Node000016_Node000014"><a xlink:title=" ">
<path fill="none" stroke="#63b8ff" d="M783.09,-218C735.12,-205.33 675.79,-189.66 633.76,-178.57"/>
<polygon fill="#63b8ff" stroke="#63b8ff" points="782.27,-221.4 792.83,-220.57 784.06,-214.64 782.27,-221.4"/>
</a>
</g>
</g>
<!-- Node17&#45;&gt;Node5 -->
<g id="edge25_Node000017_Node000005" class="edge">
<title>Node17&#45;&gt;Node5</title>
<g id="a_edge25_Node000017_Node000005"><a xlink:title=" ">
<path fill="none" stroke="#63b8ff" d="M641.24,-292.29C639.74,-282.59 638.24,-271.3 637.5,-261 636.2,-242.82 633.72,-237.83 637.5,-220 644.76,-185.81 674.36,-171.04 653.5,-143 640.04,-124.91 589.66,-110.51 544.86,-100.91"/>
<polygon fill="#63b8ff" stroke="#63b8ff" points="637.83,-293.11 642.9,-302.42 644.74,-291.98 637.83,-293.11"/>
</a>
</g>
</g>
<!-- Node17&#45;&gt;Node12 -->
<g id="edge29_Node000017_Node000012" class="edge">
<title>Node17&#45;&gt;Node12</title>
<g id="a_edge29_Node000017_Node000012"><a xlink:title=" ">
<path fill="none" stroke="#63b8ff" d="M724.01,-302.7C784.62,-291.87 870.5,-276.15 945.5,-261 948.29,-260.44 951.13,-259.86 953.99,-259.26"/>
<polygon fill="#63b8ff" stroke="#63b8ff" points="723.36,-299.26 714.13,-304.46 724.59,-306.15 723.36,-299.26"/>
</a>
</g>
</g>
<!-- Node17&#45;&gt;Node15 -->
<g id="edge30_Node000017_Node000015" class="edge">
<title>Node17&#45;&gt;Node15</title>
<g id="a_edge30_Node000017_Node000015"><a xlink:title=" ">
<path fill="none" stroke="#63b8ff" d="M606.49,-298.1C582.67,-286.86 552.23,-272.5 527.97,-261.06"/>
<polygon fill="#63b8ff" stroke="#63b8ff" points="605.06,-301.29 615.59,-302.39 608.04,-294.96 605.06,-301.29"/>
</a>
</g>
</g>
<!-- Node18 -->
<g id="Node000018" class="node">
<title>Node18</title>
<g id="a_Node000018"><a xlink:href="_tls_async_transfer_policy_8hpp.html" target="_top" xlink:title=" ">
<polygon fill="white" stroke="#666666" points="342,-261 191,-261 191,-220 342,-220 342,-261"/>
<text text-anchor="start" x="199" y="-249" font-family="Helvetica,sans-Serif" font-size="10.00">include/Hermes/Socket</text>
<text text-anchor="start" x="199" y="-238" font-family="Helvetica,sans-Serif" font-size="10.00">/Async/_base/Transfer</text>
<text text-anchor="middle" x="266.5" y="-227" font-family="Helvetica,sans-Serif" font-size="10.00">/TlsAsyncTransferPolicy.hpp</text>
</a>
</g>
</g>
<!-- Node17&#45;&gt;Node18 -->
<g id="edge26_Node000017_Node000018" class="edge">
<title>Node17&#45;&gt;Node18</title>
<g id="a_edge26_Node000017_Node000018"><a xlink:title=" ">
<path fill="none" stroke="#63b8ff" d="M581.04,-300.05C576.46,-298.99 571.92,-297.96 567.5,-297 491.16,-280.44 403.25,-264.6 342.22,-254.11"/>
<polygon fill="#63b8ff" stroke="#63b8ff" points="580.51,-303.52 591.05,-302.43 582.13,-296.71 580.51,-303.52"/>
</a>
</g>
</g>
<!-- Node19 -->
<g id="Node000019" class="node">
<title>Node19</title>
<g id="a_Node000019"><a xlink:href="_tls_transfer_policy_8hpp.html" target="_top" xlink:title=" ">
<polygon fill="white" stroke="#666666" points="774.5,-261 646.5,-261 646.5,-220 774.5,-220 774.5,-261"/>
<text text-anchor="start" x="654.5" y="-249" font-family="Helvetica,sans-Serif" font-size="10.00">include/Hermes/Socket</text>
<text text-anchor="start" x="654.5" y="-238" font-family="Helvetica,sans-Serif" font-size="10.00">/Sync/_base/Transfer</text>
<text text-anchor="middle" x="710.5" y="-227" font-family="Helvetica,sans-Serif" font-size="10.00">/TlsTransferPolicy.hpp</text>
</a>
</g>
</g>
<!-- Node17&#45;&gt;Node19 -->
<g id="edge31_Node000017_Node000019" class="edge">
<title>Node17&#45;&gt;Node19</title>
<g id="a_edge31_Node000017_Node000019"><a xlink:title=" ">
<path fill="none" stroke="#63b8ff" d="M664.34,-294.76C673.52,-284.17 684.49,-271.52 693.42,-261.2"/>
<polygon fill="#63b8ff" stroke="#63b8ff" points="661.63,-292.54 657.73,-302.39 666.92,-297.13 661.63,-292.54"/>
</a>
</g>
</g>
<!-- Node18&#45;&gt;Node4 -->
<g id="edge27_Node000018_Node000004" class="edge">
<title>Node18&#45;&gt;Node4</title>
<g id="a_edge27_Node000018_Node000004"><a xlink:title=" ">
<path fill="none" stroke="#63b8ff" d="M268.54,-209.52C270.18,-190.36 272.98,-165.06 277.5,-143 286.05,-101.29 302.09,-53.54 310.32,-30.26"/>
<polygon fill="#63b8ff" stroke="#63b8ff" points="265.03,-209.5 267.72,-219.75 272.01,-210.06 265.03,-209.5"/>
</a>
</g>
</g>
<!-- Node18&#45;&gt;Node7 -->
<g id="edge28_Node000018_Node000007" class="edge">
<title>Node18&#45;&gt;Node7</title>
<g id="a_edge28_Node000018_Node000007"><a xlink:title=" ">
<path fill="none" stroke="#63b8ff" d="M225.76,-214.66C206.17,-202.71 183.4,-188.83 166.79,-178.7"/>
<polygon fill="#63b8ff" stroke="#63b8ff" points="224.14,-217.77 234.5,-219.99 227.79,-211.8 224.14,-217.77"/>
</a>
</g>
</g>
<!-- Node19&#45;&gt;Node10 -->
<g id="edge33_Node000019_Node000010" class="edge">
<title>Node19&#45;&gt;Node10</title>
<g id="a_edge33_Node000019_Node000010"><a xlink:title=" ">
<path fill="none" stroke="#63b8ff" d="M782.32,-216.96C822.06,-204.49 870.22,-189.38 904.62,-178.58"/>
<polygon fill="#63b8ff" stroke="#63b8ff" points="781.16,-213.66 772.67,-219.99 783.26,-220.34 781.16,-213.66"/>
</a>
</g>
</g>
<!-- Node19&#45;&gt;Node14 -->
<g id="edge32_Node000019_Node000014" class="edge">
<title>Node19&#45;&gt;Node14</title>
<g id="a_edge32_Node000019_Node000014"><a xlink:title=" ">
<path fill="none" stroke="#63b8ff" d="M668,-214.98C647.17,-202.97 622.83,-188.92 605.11,-178.7"/>
<polygon fill="#63b8ff" stroke="#63b8ff" points="666.27,-218.02 676.68,-219.99 669.77,-211.96 666.27,-218.02"/>
</a>
</g>
</g>
</g>
</svg>
