<?xml version="1.0" encoding="UTF-8" standalone="no"?>
<!DOCTYPE svg PUBLIC "-//W3C//DTD SVG 1.1//EN"
 "http://www.w3.org/Graphics/SVG/1.1/DTD/svg11.dtd">
<!-- Generated by graphviz version 2.43.0 (0)
 -->
<!-- Title: include/Hermes/Endpoint/IpEndpoint/IpEndpoint.hpp Pages: 1 -->
<svg width="3628pt" height="302pt"
 viewBox="0.00 0.00 3627.50 302.00" xmlns="http://www.w3.org/2000/svg" xmlns:xlink="http://www.w3.org/1999/xlink">
<g id="graph0" class="graph" transform="scale(1 1) rotate(0) translate(4 298)">
<title>include/Hermes/Endpoint/IpEndpoint/IpEndpoint.hpp</title>
<!-- Node1 -->
<g id="Node000001" class="node">
<title>Node1</title>
<g id="a_Node000001"><a xlink:title=" ">
<polygon fill="#999999" stroke="#666666" points="3234,-294 3087,-294 3087,-264 3234,-264 3234,-294"/>
<text text-anchor="start" x="3095" y="-282" font-family="Helvetica,sans-Serif" font-size="10.00">include/Hermes/Endpoint</text>
<text text-anchor="middle" x="3160.5" y="-271" font-family="Helvetica,sans-Serif" font-size="10.00">/IpEndpoint/IpEndpoint.hpp</text>
</a>
</g>
</g>
<!-- Node2 -->
<g id="Node000002" class="node">
<title>Node2</title>
<g id="a_Node000002"><a xlink:href="_endpoint_concept_8hpp.html" target="_top" xlink:title=" ">
<polygon fill="white" stroke="#666666" points="2714.5,-228 2582.5,-228 2582.5,-198 2714.5,-198 2714.5,-228"/>
<text text-anchor="start" x="2590.5" y="-216" font-family="Helvetica,sans-Serif" font-size="10.00">Hermes/Endpoint/_base</text>
<text text-anchor="middle" x="2648.5" y="-205" font-family="Helvetica,sans-Serif" font-size="10.00">/EndpointConcept.hpp</text>
</a>
</g>
</g>
<!-- Node1&#45;&gt;Node2 -->
<g id="edge1_Node000001_Node000002" class="edge">
<title>Node1&#45;&gt;Node2</title>
<g id="a_edge1_Node000001_Node000002"><a xlink:title=" ">
<path fill="none" stroke="#63b8ff" d="M3086.87,-268.8C2990.52,-256.75 2822.49,-235.75 2724.83,-223.54"/>
<polygon fill="#63b8ff" stroke="#63b8ff" points="2725.09,-220.05 2714.73,-222.28 2724.22,-226.99 2725.09,-220.05"/>
</a>
</g>
</g>
<!-- Node30 -->
<g id="Node000030" class="node">
<title>Node30</title>
<g id="a_Node000030"><a xlink:href="_ip_address_8hpp.html" target="_top" xlink:title=" ">
<polygon fill="white" stroke="#666666" points="3291,-228 3136,-228 3136,-198 3291,-198 3291,-228"/>
<text text-anchor="start" x="3144" y="-216" font-family="Helvetica,sans-Serif" font-size="10.00">Hermes/Endpoint/IpEndpoint</text>
<text text-anchor="middle" x="3213.5" y="-205" font-family="Helvetica,sans-Serif" font-size="10.00">/IpAddress.hpp</text>
</a>
</g>
</g>
<!-- Node1&#45;&gt;Node30 -->
<g id="edge36_Node000001_Node000030" class="edge">
<title>Node1&#45;&gt;Node30</title>
<g id="a_edge36_Node000001_Node000030"><a xlink:title=" ">
<path fill="none" stroke="#63b8ff" d="M3172.26,-263.8C3179.06,-255.59 3187.74,-245.1 3195.39,-235.87"/>
<polygon fill="#63b8ff" stroke="#63b8ff" points="3198.09,-238.1 3201.77,-228.16 3192.7,-233.63 3198.09,-238.1"/>
</a>
</g>
</g>
<!-- Node31 -->
<g id="Node000031" class="node">
<title>Node31</title>
<g id="a_Node000031"><a xlink:href="_hash_8hpp.html" target="_top" xlink:title=" ">
<polygon fill="white" stroke="#666666" points="3173,-156.5 3044,-156.5 3044,-137.5 3173,-137.5 3173,-156.5"/>
<text text-anchor="middle" x="3108.5" y="-144.5" font-family="Helvetica,sans-Serif" font-size="10.00">Hermes/Utils/Hash.hpp</text>
</a>
</g>
</g>
<!-- Node1&#45;&gt;Node31 -->
<g id="edge47_Node000001_Node000031" class="edge">
<title>Node1&#45;&gt;Node31</title>
<g id="a_edge47_Node000001_Node000031"><a xlink:title=" ">
<path fill="none" stroke="#63b8ff" d="M3149.25,-263.9C3142.08,-254.28 3133.12,-240.98 3127.5,-228 3118.84,-207.99 3113.75,-183.37 3111.05,-166.78"/>
<polygon fill="#63b8ff" stroke="#63b8ff" points="3114.49,-166.1 3109.55,-156.72 3107.57,-167.13 3114.49,-166.1"/>
</a>
</g>
</g>
<!-- Node35 -->
<g id="Node000035" class="node">
<title>Node35</title>
<g id="a_Node000035"><a xlink:title=" ">
<polygon fill="#e0e0e0" stroke="#999999" points="2987.5,-156.5 2943.5,-156.5 2943.5,-137.5 2987.5,-137.5 2987.5,-156.5"/>
<text text-anchor="middle" x="2965.5" y="-144.5" font-family="Helvetica,sans-Serif" font-size="10.00">string</text>
</a>
</g>
</g>
<!-- Node1&#45;&gt;Node35 -->
<g id="edge49_Node000001_Node000035" class="edge">
<title>Node1&#45;&gt;Node35</title>
<g id="a_edge49_Node000001_Node000035"><a xlink:title=" ">
<path fill="none" stroke="#63b8ff" d="M3139.26,-263.84C3101.95,-238.97 3025.03,-187.69 2987.32,-162.55"/>
<polygon fill="#63b8ff" stroke="#63b8ff" points="2988.88,-159.38 2978.62,-156.75 2985,-165.21 2988.88,-159.38"/>
</a>
</g>
</g>
<!-- Node37 -->
<g id="Node000037" class="node">
<title>Node37</title>
<g id="a_Node000037"><a xlink:title=" ">
<polygon fill="#e0e0e0" stroke="#999999" points="3619.5,-156.5 3563.5,-156.5 3563.5,-137.5 3619.5,-137.5 3619.5,-156.5"/>
<text text-anchor="middle" x="3591.5" y="-144.5" font-family="Helvetica,sans-Serif" font-size="10.00">optional</text>
</a>
</g>
</g>
<!-- Node1&#45;&gt;Node37 -->
<g id="edge48_Node000001_Node000037" class="edge">
<title>Node1&#45;&gt;Node37</title>
<g id="a_edge48_Node000001_Node000037"><a xlink:title=" ">
<path fill="none" stroke="#63b8ff" d="M3211.7,-263.95C3238.95,-255.44 3272.52,-243.26 3300.5,-228 3319.7,-217.53 3319.45,-206.73 3339.5,-198 3428.33,-159.31 3460.97,-187.26 3554.5,-162 3556.79,-161.38 3559.14,-160.67 3561.49,-159.91"/>
<polygon fill="#63b8ff" stroke="#63b8ff" points="3562.72,-163.19 3570.99,-156.58 3560.4,-156.59 3562.72,-163.19"/>
</a>
</g>
</g>
<!-- Node40 -->
<g id="Node000040" class="node">
<title>Node40</title>
<g id="a_Node000040"><a xlink:title=" ">
<polygon fill="#e0e0e0" stroke="#999999" points="3503,-228 3348,-228 3348,-198 3503,-198 3503,-228"/>
<text text-anchor="start" x="3356" y="-216" font-family="Helvetica,sans-Serif" font-size="10.00">Hermes/Endpoint/IpEndpoint</text>
<text text-anchor="middle" x="3425.5" y="-205" font-family="Helvetica,sans-Serif" font-size="10.00">/IpEndpoint.tpp</text>
</a>
</g>
</g>
<!-- Node1&#45;&gt;Node40 -->
<g id="edge50_Node000001_Node000040" class="edge">
<title>Node1&#45;&gt;Node40</title>
<g id="a_edge50_Node000001_Node000040"><a xlink:title=" ">
<path fill="none" stroke="#63b8ff" d="M3218.66,-263.95C3259.65,-254.06 3314.67,-240.77 3357.66,-230.38"/>
<polygon fill="#63b8ff" stroke="#63b8ff" points="3358.58,-233.76 3367.48,-228.01 3356.94,-226.96 3358.58,-233.76"/>
</a>
</g>
</g>
<!-- Node3 -->
<g id="Node000003" class="node">
<title>Node3</title>
<g id="a_Node000003"><a xlink:href="_connection_error_enum_8hpp.html" target="_top" xlink:title=" ">
<polygon fill="white" stroke="#666666" points="2732,-162 2565,-162 2565,-132 2732,-132 2732,-162"/>
<text text-anchor="start" x="2573" y="-150" font-family="Helvetica,sans-Serif" font-size="10.00">Hermes/_base/ConnectionError</text>
<text text-anchor="middle" x="2648.5" y="-139" font-family="Helvetica,sans-Serif" font-size="10.00">Enum.hpp</text>
</a>
</g>
</g>
<!-- Node2&#45;&gt;Node3 -->
<g id="edge2_Node000002_Node000003" class="edge">
<title>Node2&#45;&gt;Node3</title>
<g id="a_edge2_Node000002_Node000003"><a xlink:title=" ">
<path fill="none" stroke="#63b8ff" d="M2648.5,-197.8C2648.5,-190.34 2648.5,-180.99 2648.5,-172.41"/>
<polygon fill="#63b8ff" stroke="#63b8ff" points="2652,-172.16 2648.5,-162.16 2645,-172.16 2652,-172.16"/>
</a>
</g>
</g>
<!-- Node11 -->
<g id="Node000011" class="node">
<title>Node11</title>
<g id="a_Node000011"><a xlink:href="_os_api_8hpp.html" target="_top" xlink:title=" ">
<polygon fill="white" stroke="#666666" points="1302.5,-162 1184.5,-162 1184.5,-132 1302.5,-132 1302.5,-162"/>
<text text-anchor="start" x="1192.5" y="-150" font-family="Helvetica,sans-Serif" font-size="10.00">Hermes/_base/OsApi</text>
<text text-anchor="middle" x="1243.5" y="-139" font-family="Helvetica,sans-Serif" font-size="10.00">/OsApi.hpp</text>
</a>
</g>
</g>
<!-- Node2&#45;&gt;Node11 -->
<g id="edge10_Node000002_Node000011" class="edge">
<title>Node2&#45;&gt;Node11</title>
<g id="a_edge10_Node000002_Node000011"><a xlink:title=" ">
<path fill="none" stroke="#63b8ff" d="M2582.15,-208.98C2346.74,-198.25 1552.84,-162.09 1312.81,-151.16"/>
<polygon fill="#63b8ff" stroke="#63b8ff" points="1312.96,-147.66 1302.82,-150.7 1312.65,-154.65 1312.96,-147.66"/>
</a>
</g>
</g>
<!-- Node4 -->
<g id="Node000004" class="node">
<title>Node4</title>
<g id="a_Node000004"><a xlink:title=" ">
<polygon fill="#e0e0e0" stroke="#999999" points="2537.5,-85 2475.5,-85 2475.5,-66 2537.5,-66 2537.5,-85"/>
<text text-anchor="middle" x="2506.5" y="-73" font-family="Helvetica,sans-Serif" font-size="10.00">expected</text>
</a>
</g>
</g>
<!-- Node3&#45;&gt;Node4 -->
<g id="edge3_Node000003_Node000004" class="edge">
<title>Node3&#45;&gt;Node4</title>
<g id="a_edge3_Node000003_Node000004"><a xlink:title=" ">
<path fill="none" stroke="#63b8ff" d="M2619.76,-131.94C2594.44,-119.54 2557.83,-101.62 2533.15,-89.54"/>
<polygon fill="#63b8ff" stroke="#63b8ff" points="2534.53,-86.32 2524.01,-85.07 2531.45,-92.61 2534.53,-86.32"/>
</a>
</g>
</g>
<!-- Node5 -->
<g id="Node000005" class="node">
<title>Node5</title>
<g id="a_Node000005"><a xlink:title=" ">
<polygon fill="#e0e0e0" stroke="#999999" points="3044,-85 2997,-85 2997,-66 3044,-66 3044,-85"/>
<text text-anchor="middle" x="3020.5" y="-73" font-family="Helvetica,sans-Serif" font-size="10.00">vector</text>
</a>
</g>
</g>
<!-- Node3&#45;&gt;Node5 -->
<g id="edge4_Node000003_Node000005" class="edge">
<title>Node3&#45;&gt;Node5</title>
<g id="a_edge4_Node000003_Node000005"><a xlink:title=" ">
<path fill="none" stroke="#63b8ff" d="M2732.16,-142.64C2802.13,-137.73 2903.65,-125.67 2987.5,-96 2991.66,-94.53 2995.89,-92.51 2999.86,-90.32"/>
<polygon fill="#63b8ff" stroke="#63b8ff" points="3001.76,-93.26 3008.52,-85.11 2998.15,-87.26 3001.76,-93.26"/>
</a>
</g>
</g>
<!-- Node6 -->
<g id="Node000006" class="node">
<title>Node6</title>
<g id="a_Node000006"><a xlink:title=" ">
<polygon fill="#e0e0e0" stroke="#999999" points="2595.5,-85 2555.5,-85 2555.5,-66 2595.5,-66 2595.5,-85"/>
<text text-anchor="middle" x="2575.5" y="-73" font-family="Helvetica,sans-Serif" font-size="10.00">span</text>
</a>
</g>
</g>
<!-- Node3&#45;&gt;Node6 -->
<g id="edge5_Node000003_Node000006" class="edge">
<title>Node3&#45;&gt;Node6</title>
<g id="a_edge5_Node000003_Node000006"><a xlink:title=" ">
<path fill="none" stroke="#63b8ff" d="M2633.73,-131.94C2621.7,-120.48 2604.72,-104.32 2592.2,-92.4"/>
<polygon fill="#63b8ff" stroke="#63b8ff" points="2594.36,-89.63 2584.71,-85.27 2589.54,-94.7 2594.36,-89.63"/>
</a>
</g>
</g>
<!-- Node7 -->
<g id="Node000007" class="node">
<title>Node7</title>
<g id="a_Node000007"><a xlink:title=" ">
<polygon fill="#e0e0e0" stroke="#999999" points="2683,-85 2614,-85 2614,-66 2683,-66 2683,-85"/>
<text text-anchor="middle" x="2648.5" y="-73" font-family="Helvetica,sans-Serif" font-size="10.00">type_traits</text>
</a>
</g>
</g>
<!-- Node3&#45;&gt;Node7 -->
<g id="edge6_Node000003_Node000007" class="edge">
<title>Node3&#45;&gt;Node7</title>
<g id="a_edge6_Node000003_Node000007"><a xlink:title=" ">
<path fill="none" stroke="#63b8ff" d="M2648.5,-131.94C2648.5,-121.46 2648.5,-107.05 2648.5,-95.55"/>
<polygon fill="#63b8ff" stroke="#63b8ff" points="2652,-95.27 2648.5,-85.27 2645,-95.27 2652,-95.27"/>
</a>
</g>
</g>
<!-- Node8 -->
<g id="Node000008" class="node">
<title>Node8</title>
<g id="a_Node000008"><a xlink:title=" ">
<polygon fill="#e0e0e0" stroke="#999999" points="2826,-85 2701,-85 2701,-66 2826,-66 2826,-85"/>
<text text-anchor="middle" x="2763.5" y="-73" font-family="Helvetica,sans-Serif" font-size="10.00">stdexec/execution.hpp</text>
</a>
</g>
</g>
<!-- Node3&#45;&gt;Node8 -->
<g id="edge7_Node000003_Node000008" class="edge">
<title>Node3&#45;&gt;Node8</title>
<g id="a_edge7_Node000003_Node000008"><a xlink:title=" ">
<path fill="none" stroke="#63b8ff" d="M2671.77,-131.94C2691.83,-119.81 2720.62,-102.41 2740.58,-90.35"/>
<polygon fill="#63b8ff" stroke="#63b8ff" points="2742.57,-93.24 2749.32,-85.07 2738.95,-87.24 2742.57,-93.24"/>
</a>
</g>
</g>
<!-- Node9 -->
<g id="Node000009" class="node">
<title>Node9</title>
<g id="a_Node000009"><a xlink:title=" ">
<polygon fill="#e0e0e0" stroke="#999999" points="2978.5,-85 2844.5,-85 2844.5,-66 2978.5,-66 2978.5,-85"/>
<text text-anchor="middle" x="2911.5" y="-73" font-family="Helvetica,sans-Serif" font-size="10.00">exec/any_sender_of.hpp</text>
</a>
</g>
</g>
<!-- Node3&#45;&gt;Node9 -->
<g id="edge8_Node000003_Node000009" class="edge">
<title>Node3&#45;&gt;Node9</title>
<g id="a_edge8_Node000003_Node000009"><a xlink:title=" ">
<path fill="none" stroke="#63b8ff" d="M2701.72,-131.94C2751.12,-118.88 2823.69,-99.7 2869.23,-87.67"/>
<polygon fill="#63b8ff" stroke="#63b8ff" points="2870.3,-91.01 2879.08,-85.07 2868.52,-84.24 2870.3,-91.01"/>
</a>
</g>
</g>
<!-- Node10 -->
<g id="Node000010" class="node">
<title>Node10</title>
<g id="a_Node000010"><a xlink:title=" ">
<polygon fill="#e0e0e0" stroke="#999999" points="2458,-90.5 2291,-90.5 2291,-60.5 2458,-60.5 2458,-90.5"/>
<text text-anchor="start" x="2299" y="-78.5" font-family="Helvetica,sans-Serif" font-size="10.00">Hermes/_base/ConnectionError</text>
<text text-anchor="middle" x="2374.5" y="-67.5" font-family="Helvetica,sans-Serif" font-size="10.00">Enum.tpp</text>
</a>
</g>
</g>
<!-- Node3&#45;&gt;Node10 -->
<g id="edge9_Node000003_Node000010" class="edge">
<title>Node3&#45;&gt;Node10</title>
<g id="a_edge9_Node000003_Node000010"><a xlink:title=" ">
<path fill="none" stroke="#63b8ff" d="M2593.05,-131.94C2548.67,-120.68 2486.34,-104.87 2439.59,-93.01"/>
<polygon fill="#63b8ff" stroke="#63b8ff" points="2440.42,-89.61 2429.87,-90.54 2438.7,-96.39 2440.42,-89.61"/>
</a>
</g>
</g>
<!-- Node12 -->
<g id="Node000012" class="node">
<title>Node12</title>
<g id="a_Node000012"><a xlink:title=" ">
<polygon fill="#e0e0e0" stroke="#999999" points="687,-19 610,-19 610,0 687,0 687,-19"/>
<text text-anchor="middle" x="648.5" y="-7" font-family="Helvetica,sans-Serif" font-size="10.00">sys/socket.h</text>
</a>
</g>
</g>
<!-- Node11&#45;&gt;Node12 -->
<g id="edge11_Node000011_Node000012" class="edge">
<title>Node11&#45;&gt;Node12</title>
<g id="a_edge11_Node000011_Node000012"><a xlink:title=" ">
<path fill="none" stroke="#63b8ff" d="M1184.34,-146.69C1123.06,-145 1026.25,-135.47 953.5,-96 931.66,-84.15 937.37,-66.79 915.5,-55 878.64,-35.14 763.7,-21.36 697.26,-14.83"/>
<polygon fill="#63b8ff" stroke="#63b8ff" points="697.32,-11.32 687.03,-13.84 696.65,-18.28 697.32,-11.32"/>
</a>
</g>
</g>
<!-- Node13 -->
<g id="Node000013" class="node">
<title>Node13</title>
<g id="a_Node000013"><a xlink:title=" ">
<polygon fill="#e0e0e0" stroke="#999999" points="253.5,-19 181.5,-19 181.5,0 253.5,0 253.5,-19"/>
<text text-anchor="middle" x="217.5" y="-7" font-family="Helvetica,sans-Serif" font-size="10.00">netinet/in.h</text>
</a>
</g>
</g>
<!-- Node11&#45;&gt;Node13 -->
<g id="edge12_Node000011_Node000013" class="edge">
<title>Node11&#45;&gt;Node13</title>
<g id="a_edge12_Node000011_Node000013"><a xlink:title=" ">
<path fill="none" stroke="#63b8ff" d="M1184.27,-144.99C974.16,-141.17 275.11,-126.21 238.5,-96 219.09,-79.99 215.96,-49.22 216.2,-29.29"/>
<polygon fill="#63b8ff" stroke="#63b8ff" points="219.7,-29.38 216.61,-19.25 212.7,-29.09 219.7,-29.38"/>
</a>
</g>
</g>
<!-- Node14 -->
<g id="Node000014" class="node">
<title>Node14</title>
<g id="a_Node000014"><a xlink:title=" ">
<polygon fill="#e0e0e0" stroke="#999999" points="1999,-85 1930,-85 1930,-66 1999,-66 1999,-85"/>
<text text-anchor="middle" x="1964.5" y="-73" font-family="Helvetica,sans-Serif" font-size="10.00">arpa/inet.h</text>
</a>
</g>
</g>
<!-- Node11&#45;&gt;Node14 -->
<g id="edge13_Node000011_Node000014" class="edge">
<title>Node11&#45;&gt;Node14</title>
<g id="a_edge13_Node000011_Node000014"><a xlink:title=" ">
<path fill="none" stroke="#63b8ff" d="M1302.67,-144.3C1445.34,-139.77 1805.13,-125.67 1921.5,-96 1927.61,-94.44 1933.92,-92.06 1939.77,-89.49"/>
<polygon fill="#63b8ff" stroke="#63b8ff" points="1941.51,-92.54 1949.06,-85.1 1938.52,-86.21 1941.51,-92.54"/>
</a>
</g>
</g>
<!-- Node15 -->
<g id="Node000015" class="node">
<title>Node15</title>
<g id="a_Node000015"><a xlink:title=" ">
<polygon fill="#e0e0e0" stroke="#999999" points="2203,-19 2150,-19 2150,0 2203,0 2203,-19"/>
<text text-anchor="middle" x="2176.5" y="-7" font-family="Helvetica,sans-Serif" font-size="10.00">netdb.h</text>
</a>
</g>
</g>
<!-- Node11&#45;&gt;Node15 -->
<g id="edge14_Node000011_Node000015" class="edge">
<title>Node11&#45;&gt;Node15</title>
<g id="a_edge14_Node000011_Node000015"><a xlink:title=" ">
<path fill="none" stroke="#63b8ff" d="M1302.76,-145.27C1512.94,-142.39 2211.91,-130.26 2244.5,-96 2257.06,-82.8 2253.17,-71.03 2244.5,-55 2236.92,-40.98 2222.8,-30.67 2209.37,-23.53"/>
<polygon fill="#63b8ff" stroke="#63b8ff" points="2210.8,-20.33 2200.28,-19.08 2207.73,-26.62 2210.8,-20.33"/>
</a>
</g>
</g>
<!-- Node16 -->
<g id="Node000016" class="node">
<title>Node16</title>
<g id="a_Node000016"><a xlink:title=" ">
<polygon fill="#e0e0e0" stroke="#999999" points="2235.5,-85 2179.5,-85 2179.5,-66 2235.5,-66 2235.5,-85"/>
<text text-anchor="middle" x="2207.5" y="-73" font-family="Helvetica,sans-Serif" font-size="10.00">unistd.h</text>
</a>
</g>
</g>
<!-- Node11&#45;&gt;Node16 -->
<g id="edge15_Node000011_Node000016" class="edge">
<title>Node11&#45;&gt;Node16</title>
<g id="a_edge15_Node000011_Node000016"><a xlink:title=" ">
<path fill="none" stroke="#63b8ff" d="M1302.59,-146.11C1480.03,-145.91 2006.11,-141.4 2170.5,-96 2175.49,-94.62 2180.56,-92.5 2185.29,-90.16"/>
<polygon fill="#63b8ff" stroke="#63b8ff" points="2187.28,-93.06 2194.38,-85.2 2183.92,-86.92 2187.28,-93.06"/>
</a>
</g>
</g>
<!-- Node17 -->
<g id="Node000017" class="node">
<title>Node17</title>
<g id="a_Node000017"><a xlink:href="_conversion_and_literals_8hpp.html" target="_top" xlink:title=" ">
<polygon fill="white" stroke="#666666" points="1912.5,-90.5 1762.5,-90.5 1762.5,-60.5 1912.5,-60.5 1912.5,-90.5"/>
<text text-anchor="start" x="1770.5" y="-78.5" font-family="Helvetica,sans-Serif" font-size="10.00">Hermes/_base/OsApi</text>
<text text-anchor="middle" x="1837.5" y="-67.5" font-family="Helvetica,sans-Serif" font-size="10.00">/ConversionAndLiterals.hpp</text>
</a>
</g>
</g>
<!-- Node11&#45;&gt;Node17 -->
<g id="edge16_Node000011_Node000017" class="edge">
<title>Node11&#45;&gt;Node17</title>
<g id="a_edge16_Node000011_Node000017"><a xlink:title=" ">
<path fill="none" stroke="#63b8ff" d="M1302.72,-142.71C1398.12,-136.84 1591.53,-122.62 1753.5,-96 1759.37,-95.04 1765.44,-93.9 1771.5,-92.67"/>
<polygon fill="#63b8ff" stroke="#63b8ff" points="1772.61,-96.02 1781.67,-90.53 1771.17,-89.17 1772.61,-96.02"/>
</a>
</g>
</g>
<!-- Node19 -->
<g id="Node000019" class="node">
<title>Node19</title>
<g id="a_Node000019"><a xlink:href="_macros_8hpp.html" target="_top" xlink:title=" ">
<polygon fill="white" stroke="#666666" points="365.5,-90.5 247.5,-90.5 247.5,-60.5 365.5,-60.5 365.5,-90.5"/>
<text text-anchor="start" x="255.5" y="-78.5" font-family="Helvetica,sans-Serif" font-size="10.00">Hermes/_base/OsApi</text>
<text text-anchor="middle" x="306.5" y="-67.5" font-family="Helvetica,sans-Serif" font-size="10.00">/Macros.hpp</text>
</a>
</g>
</g>
<!-- Node11&#45;&gt;Node19 -->
<g id="edge18_Node000011_Node000019" class="edge">
<title>Node11&#45;&gt;Node19</title>
<g id="a_edge18_Node000011_Node000019"><a xlink:title=" ">
<path fill="none" stroke="#63b8ff" d="M1184.26,-144.3C1014.9,-139.18 530.84,-122.57 374.5,-96 369.76,-95.19 364.87,-94.18 360,-93.03"/>
<polygon fill="#63b8ff" stroke="#63b8ff" points="360.62,-89.58 350.07,-90.54 358.91,-96.37 360.62,-89.58"/>
</a>
</g>
</g>
<!-- Node21 -->
<g id="Node000021" class="node">
<title>Node21</title>
<g id="a_Node000021"><a xlink:href="_address_family_enum_8hpp.html" target="_top" xlink:title=" ">
<polygon fill="white" stroke="#666666" points="736.5,-90.5 560.5,-90.5 560.5,-60.5 736.5,-60.5 736.5,-90.5"/>
<text text-anchor="start" x="568.5" y="-78.5" font-family="Helvetica,sans-Serif" font-size="10.00">Hermes/_base/OsApi</text>
<text text-anchor="middle" x="648.5" y="-67.5" font-family="Helvetica,sans-Serif" font-size="10.00">/Enums/AddressFamilyEnum.hpp</text>
</a>
</g>
</g>
<!-- Node11&#45;&gt;Node21 -->
<g id="edge22_Node000011_Node000021" class="edge">
<title>Node11&#45;&gt;Node21</title>
<g id="a_edge22_Node000011_Node000021"><a xlink:title=" ">
<path fill="none" stroke="#63b8ff" d="M1184.24,-141.94C1090.68,-135.12 903.18,-119.71 745.5,-96 738.43,-94.94 731.1,-93.71 723.78,-92.39"/>
<polygon fill="#63b8ff" stroke="#63b8ff" points="724.3,-88.92 713.83,-90.54 723.02,-95.81 724.3,-88.92"/>
</a>
</g>
</g>
<!-- Node22 -->
<g id="Node000022" class="node">
<title>Node22</title>
<g id="a_Node000022"><a xlink:href="_protocol_base_type_enum_8hpp.html" target="_top" xlink:title=" ">
<polygon fill="white" stroke="#666666" points="191,-90.5 0,-90.5 0,-60.5 191,-60.5 191,-90.5"/>
<text text-anchor="start" x="8" y="-78.5" font-family="Helvetica,sans-Serif" font-size="10.00">Hermes/_base/OsApi</text>
<text text-anchor="middle" x="95.5" y="-67.5" font-family="Helvetica,sans-Serif" font-size="10.00">/Enums/ProtocolBaseTypeEnum.hpp</text>
</a>
</g>
</g>
<!-- Node11&#45;&gt;Node22 -->
<g id="edge24_Node000011_Node000022" class="edge">
<title>Node11&#45;&gt;Node22</title>
<g id="a_edge24_Node000011_Node000022"><a xlink:title=" ">
<path fill="none" stroke="#63b8ff" d="M1184.48,-145.78C1025.7,-144.63 576.41,-137.64 205.5,-96 196.2,-94.96 186.5,-93.61 176.88,-92.12"/>
<polygon fill="#63b8ff" stroke="#63b8ff" points="177.33,-88.65 166.91,-90.52 176.22,-95.56 177.33,-88.65"/>
</a>
</g>
</g>
<!-- Node23 -->
<g id="Node000023" class="node">
<title>Node23</title>
<g id="a_Node000023"><a xlink:href="_socket_shutdown_enum_8hpp.html" target="_top" xlink:title=" ">
<polygon fill="white" stroke="#666666" points="1745,-90.5 1560,-90.5 1560,-60.5 1745,-60.5 1745,-90.5"/>
<text text-anchor="start" x="1568" y="-78.5" font-family="Helvetica,sans-Serif" font-size="10.00">Hermes/_base/OsApi</text>
<text text-anchor="middle" x="1652.5" y="-67.5" font-family="Helvetica,sans-Serif" font-size="10.00">/Enums/SocketShutdownEnum.hpp</text>
</a>
</g>
</g>
<!-- Node11&#45;&gt;Node23 -->
<g id="edge26_Node000011_Node000023" class="edge">
<title>Node11&#45;&gt;Node23</title>
<g id="a_edge26_Node000011_Node000023"><a xlink:title=" ">
<path fill="none" stroke="#63b8ff" d="M1302.63,-136.94C1364.71,-127.3 1465.09,-111.35 1551.5,-96 1558,-94.85 1564.72,-93.62 1571.48,-92.36"/>
<polygon fill="#63b8ff" stroke="#63b8ff" points="1572.18,-95.79 1581.37,-90.51 1570.89,-88.91 1572.18,-95.79"/>
</a>
</g>
</g>
<!-- Node24 -->
<g id="Node000024" class="node">
<title>Node24</title>
<g id="a_Node000024"><a xlink:href="_socket_type_enum_8hpp.html" target="_top" xlink:title=" ">
<polygon fill="white" stroke="#666666" points="543,-90.5 384,-90.5 384,-60.5 543,-60.5 543,-90.5"/>
<text text-anchor="start" x="392" y="-78.5" font-family="Helvetica,sans-Serif" font-size="10.00">Hermes/_base/OsApi</text>
<text text-anchor="middle" x="463.5" y="-67.5" font-family="Helvetica,sans-Serif" font-size="10.00">/Enums/SocketTypeEnum.hpp</text>
</a>
</g>
</g>
<!-- Node11&#45;&gt;Node24 -->
<g id="edge28_Node000011_Node000024" class="edge">
<title>Node11&#45;&gt;Node24</title>
<g id="a_edge28_Node000011_Node000024"><a xlink:title=" ">
<path fill="none" stroke="#63b8ff" d="M1184.4,-144.63C1064.49,-141.22 784.21,-130 551.5,-96 544.84,-95.03 537.94,-93.83 531.06,-92.51"/>
<polygon fill="#63b8ff" stroke="#63b8ff" points="531.52,-89.04 521.03,-90.51 530.15,-95.9 531.52,-89.04"/>
</a>
</g>
</g>
<!-- Node25 -->
<g id="Node000025" class="node">
<title>Node25</title>
<g id="a_Node000025"><a xlink:title=" ">
<polygon fill="#e0e0e0" stroke="#999999" points="906.5,-96 754.5,-96 754.5,-55 906.5,-55 906.5,-96"/>
<text text-anchor="start" x="762.5" y="-84" font-family="Helvetica,sans-Serif" font-size="10.00">Hermes/_base/OsApi</text>
<text text-anchor="start" x="762.5" y="-73" font-family="Helvetica,sans-Serif" font-size="10.00">/Enums/Linux/EncryptStatus</text>
<text text-anchor="middle" x="830.5" y="-62" font-family="Helvetica,sans-Serif" font-size="10.00">Enum.hpp</text>
</a>
</g>
</g>
<!-- Node11&#45;&gt;Node25 -->
<g id="edge30_Node000011_Node000025" class="edge">
<title>Node11&#45;&gt;Node25</title>
<g id="a_edge30_Node000011_Node000025"><a xlink:title=" ">
<path fill="none" stroke="#63b8ff" d="M1184.38,-137.93C1119.48,-128.82 1012.28,-113.03 920.5,-96 919.22,-95.76 917.93,-95.52 916.63,-95.27"/>
<polygon fill="#63b8ff" stroke="#63b8ff" points="917.03,-91.79 906.54,-93.31 915.69,-98.66 917.03,-91.79"/>
</a>
</g>
</g>
<!-- Node26 -->
<g id="Node000026" class="node">
<title>Node26</title>
<g id="a_Node000026"><a xlink:href="_name_info_flags_8hpp.html" target="_top" xlink:title=" ">
<polygon fill="white" stroke="#666666" points="2161.5,-90.5 2017.5,-90.5 2017.5,-60.5 2161.5,-60.5 2161.5,-90.5"/>
<text text-anchor="start" x="2025.5" y="-78.5" font-family="Helvetica,sans-Serif" font-size="10.00">Hermes/_base/OsApi</text>
<text text-anchor="middle" x="2089.5" y="-67.5" font-family="Helvetica,sans-Serif" font-size="10.00">/Flags/NameInfoFlags.hpp</text>
</a>
</g>
</g>
<!-- Node11&#45;&gt;Node26 -->
<g id="edge31_Node000011_Node000026" class="edge">
<title>Node11&#45;&gt;Node26</title>
<g id="a_edge31_Node000011_Node000026"><a xlink:title=" ">
<path fill="none" stroke="#63b8ff" d="M1302.9,-145.56C1432.02,-143.87 1747.63,-135.63 2008.5,-96 2014.6,-95.07 2020.92,-93.91 2027.21,-92.63"/>
<polygon fill="#63b8ff" stroke="#63b8ff" points="2028,-96.04 2037.04,-90.51 2026.52,-89.19 2028,-96.04"/>
</a>
</g>
</g>
<!-- Node27 -->
<g id="Node000027" class="node">
<title>Node27</title>
<g id="a_Node000027"><a xlink:title=" ">
<polygon fill="#e0e0e0" stroke="#999999" points="1138.5,-90.5 962.5,-90.5 962.5,-60.5 1138.5,-60.5 1138.5,-90.5"/>
<text text-anchor="start" x="970.5" y="-78.5" font-family="Helvetica,sans-Serif" font-size="10.00">Hermes/_base/OsApi</text>
<text text-anchor="middle" x="1050.5" y="-67.5" font-family="Helvetica,sans-Serif" font-size="10.00">/Flags/Linux/CredentialFlags.hpp</text>
</a>
</g>
</g>
<!-- Node11&#45;&gt;Node27 -->
<g id="edge33_Node000011_Node000027" class="edge">
<title>Node11&#45;&gt;Node27</title>
<g id="a_edge33_Node000011_Node000027"><a xlink:title=" ">
<path fill="none" stroke="#63b8ff" d="M1204.44,-131.94C1174.1,-121.01 1131.84,-105.79 1099.27,-94.06"/>
<polygon fill="#63b8ff" stroke="#63b8ff" points="1100.09,-90.64 1089.5,-90.54 1097.72,-97.22 1100.09,-90.64"/>
</a>
</g>
</g>
<!-- Node28 -->
<g id="Node000028" class="node">
<title>Node28</title>
<g id="a_Node000028"><a xlink:title=" ">
<polygon fill="#e0e0e0" stroke="#999999" points="1330,-96 1157,-96 1157,-55 1330,-55 1330,-96"/>
<text text-anchor="start" x="1165" y="-84" font-family="Helvetica,sans-Serif" font-size="10.00">Hermes/_base/OsApi</text>
<text text-anchor="start" x="1165" y="-73" font-family="Helvetica,sans-Serif" font-size="10.00">/Flags/Linux/SupportedProtocols</text>
<text text-anchor="middle" x="1243.5" y="-62" font-family="Helvetica,sans-Serif" font-size="10.00">Flags.hpp</text>
</a>
</g>
</g>
<!-- Node11&#45;&gt;Node28 -->
<g id="edge34_Node000011_Node000028" class="edge">
<title>Node11&#45;&gt;Node28</title>
<g id="a_edge34_Node000011_Node000028"><a xlink:title=" ">
<path fill="none" stroke="#63b8ff" d="M1243.5,-131.94C1243.5,-124.52 1243.5,-115.14 1243.5,-106.2"/>
<polygon fill="#63b8ff" stroke="#63b8ff" points="1247,-106.07 1243.5,-96.07 1240,-106.07 1247,-106.07"/>
</a>
</g>
</g>
<!-- Node29 -->
<g id="Node000029" class="node">
<title>Node29</title>
<g id="a_Node000029"><a xlink:title=" ">
<polygon fill="#e0e0e0" stroke="#999999" points="1542.5,-90.5 1348.5,-90.5 1348.5,-60.5 1542.5,-60.5 1542.5,-90.5"/>
<text text-anchor="start" x="1356.5" y="-78.5" font-family="Helvetica,sans-Serif" font-size="10.00">Hermes/_base/OsApi</text>
<text text-anchor="middle" x="1445.5" y="-67.5" font-family="Helvetica,sans-Serif" font-size="10.00">/Flags/Linux/SChannelCredFlags.hpp</text>
</a>
</g>
</g>
<!-- Node11&#45;&gt;Node29 -->
<g id="edge35_Node000011_Node000029" class="edge">
<title>Node11&#45;&gt;Node29</title>
<g id="a_edge35_Node000011_Node000029"><a xlink:title=" ">
<path fill="none" stroke="#63b8ff" d="M1284.38,-131.94C1316.28,-120.96 1360.75,-105.66 1394.9,-93.91"/>
<polygon fill="#63b8ff" stroke="#63b8ff" points="1396.37,-97.11 1404.68,-90.54 1394.09,-90.49 1396.37,-97.11"/>
</a>
</g>
</g>
<!-- Node18 -->
<g id="Node000018" class="node">
<title>Node18</title>
<g id="a_Node000018"><a xlink:title=" ">
<polygon fill="#e0e0e0" stroke="#999999" points="1862.5,-19 1812.5,-19 1812.5,0 1862.5,0 1862.5,-19"/>
<text text-anchor="middle" x="1837.5" y="-7" font-family="Helvetica,sans-Serif" font-size="10.00">cstdint</text>
</a>
</g>
</g>
<!-- Node17&#45;&gt;Node18 -->
<g id="edge17_Node000017_Node000018" class="edge">
<title>Node17&#45;&gt;Node18</title>
<g id="a_edge17_Node000017_Node000018"><a xlink:title=" ">
<path fill="none" stroke="#63b8ff" d="M1837.5,-60.3C1837.5,-51.2 1837.5,-39.29 1837.5,-29.4"/>
<polygon fill="#63b8ff" stroke="#63b8ff" points="1841,-29.34 1837.5,-19.34 1834,-29.34 1841,-29.34"/>
</a>
</g>
</g>
<!-- Node19&#45;&gt;Node12 -->
<g id="edge20_Node000019_Node000012" class="edge">
<title>Node19&#45;&gt;Node12</title>
<g id="a_edge20_Node000019_Node000012"><a xlink:title=" ">
<path fill="none" stroke="#63b8ff" d="M352.77,-60.44C360.01,-58.47 367.43,-56.58 374.5,-55 452.48,-37.55 544.39,-24.04 599.48,-16.68"/>
<polygon fill="#63b8ff" stroke="#63b8ff" points="600.2,-20.12 609.65,-15.34 599.28,-13.18 600.2,-20.12"/>
</a>
</g>
</g>
<!-- Node19&#45;&gt;Node13 -->
<g id="edge21_Node000019_Node000013" class="edge">
<title>Node19&#45;&gt;Node13</title>
<g id="a_edge21_Node000019_Node000013"><a xlink:title=" ">
<path fill="none" stroke="#63b8ff" d="M286.75,-60.3C272.24,-49.87 252.6,-35.74 237.94,-25.19"/>
<polygon fill="#63b8ff" stroke="#63b8ff" points="239.7,-22.16 229.54,-19.16 235.62,-27.84 239.7,-22.16"/>
</a>
</g>
</g>
<!-- Node20 -->
<g id="Node000020" class="node">
<title>Node20</title>
<g id="a_Node000020"><a xlink:title=" ">
<polygon fill="#e0e0e0" stroke="#999999" points="345,-19 272,-19 272,0 345,0 345,-19"/>
<text text-anchor="middle" x="308.5" y="-7" font-family="Helvetica,sans-Serif" font-size="10.00">string_view</text>
</a>
</g>
</g>
<!-- Node19&#45;&gt;Node20 -->
<g id="edge19_Node000019_Node000020" class="edge">
<title>Node19&#45;&gt;Node20</title>
<g id="a_edge19_Node000019_Node000020"><a xlink:title=" ">
<path fill="none" stroke="#63b8ff" d="M306.94,-60.3C307.23,-51.2 307.6,-39.29 307.91,-29.4"/>
<polygon fill="#63b8ff" stroke="#63b8ff" points="311.41,-29.45 308.22,-19.34 304.41,-29.23 311.41,-29.45"/>
</a>
</g>
</g>
<!-- Node21&#45;&gt;Node12 -->
<g id="edge23_Node000021_Node000012" class="edge">
<title>Node21&#45;&gt;Node12</title>
<g id="a_edge23_Node000021_Node000012"><a xlink:title=" ">
<path fill="none" stroke="#63b8ff" d="M648.5,-60.3C648.5,-51.2 648.5,-39.29 648.5,-29.4"/>
<polygon fill="#63b8ff" stroke="#63b8ff" points="652,-29.34 648.5,-19.34 645,-29.34 652,-29.34"/>
</a>
</g>
</g>
<!-- Node22&#45;&gt;Node13 -->
<g id="edge25_Node000022_Node000013" class="edge">
<title>Node22&#45;&gt;Node13</title>
<g id="a_edge25_Node000022_Node000013"><a xlink:title=" ">
<path fill="none" stroke="#63b8ff" d="M122.27,-60.45C143.1,-49.53 171.81,-34.47 192.24,-23.75"/>
<polygon fill="#63b8ff" stroke="#63b8ff" points="194.03,-26.76 201.26,-19.02 190.78,-20.56 194.03,-26.76"/>
</a>
</g>
</g>
<!-- Node23&#45;&gt;Node12 -->
<g id="edge27_Node000023_Node000012" class="edge">
<title>Node23&#45;&gt;Node12</title>
<g id="a_edge27_Node000023_Node000012"><a xlink:title=" ">
<path fill="none" stroke="#63b8ff" d="M1586.97,-60.45C1575.21,-58.33 1563.02,-56.39 1551.5,-55 1227.24,-15.91 833.53,-10.97 697.49,-10.48"/>
<polygon fill="#63b8ff" stroke="#63b8ff" points="697.4,-6.98 687.39,-10.46 697.38,-13.98 697.4,-6.98"/>
</a>
</g>
</g>
<!-- Node24&#45;&gt;Node12 -->
<g id="edge29_Node000024_Node000012" class="edge">
<title>Node24&#45;&gt;Node12</title>
<g id="a_edge29_Node000024_Node000012"><a xlink:title=" ">
<path fill="none" stroke="#63b8ff" d="M504.1,-60.45C537.11,-49.03 583.17,-33.1 614.32,-22.32"/>
<polygon fill="#63b8ff" stroke="#63b8ff" points="615.57,-25.59 623.88,-19.02 613.28,-18.98 615.57,-25.59"/>
</a>
</g>
</g>
<!-- Node26&#45;&gt;Node15 -->
<g id="edge32_Node000026_Node000015" class="edge">
<title>Node26&#45;&gt;Node15</title>
<g id="a_edge32_Node000026_Node000015"><a xlink:title=" ">
<path fill="none" stroke="#63b8ff" d="M2108.81,-60.3C2122.99,-49.87 2142.19,-35.74 2156.52,-25.19"/>
<polygon fill="#63b8ff" stroke="#63b8ff" points="2158.75,-27.9 2164.73,-19.16 2154.6,-22.26 2158.75,-27.9"/>
</a>
</g>
</g>
<!-- Node30&#45;&gt;Node5 -->
<g id="edge44_Node000030_Node000005" class="edge">
<title>Node30&#45;&gt;Node5</title>
<g id="a_edge44_Node000030_Node000005"><a xlink:title=" ">
<path fill="none" stroke="#63b8ff" d="M3135.79,-208.49C3100.37,-202.8 3060.8,-189.97 3035.5,-162 3019.1,-143.87 3017.46,-114.38 3018.46,-95.21"/>
<polygon fill="#63b8ff" stroke="#63b8ff" points="3021.97,-95.29 3019.29,-85.04 3014.99,-94.72 3021.97,-95.29"/>
</a>
</g>
</g>
<!-- Node30&#45;&gt;Node31 -->
<g id="edge37_Node000030_Node000031" class="edge">
<title>Node30&#45;&gt;Node31</title>
<g id="a_edge37_Node000030_Node000031"><a xlink:title=" ">
<path fill="none" stroke="#63b8ff" d="M3190.46,-197.95C3172.94,-187.27 3148.94,-172.65 3131.44,-161.98"/>
<polygon fill="#63b8ff" stroke="#63b8ff" points="3132.83,-158.73 3122.47,-156.52 3129.19,-164.71 3132.83,-158.73"/>
</a>
</g>
</g>
<!-- Node34 -->
<g id="Node000034" class="node">
<title>Node34</title>
<g id="a_Node000034"><a xlink:title=" ">
<polygon fill="#e0e0e0" stroke="#999999" points="3233.5,-156.5 3191.5,-156.5 3191.5,-137.5 3233.5,-137.5 3233.5,-156.5"/>
<text text-anchor="middle" x="3212.5" y="-144.5" font-family="Helvetica,sans-Serif" font-size="10.00">array</text>
</a>
</g>
</g>
<!-- Node30&#45;&gt;Node34 -->
<g id="edge40_Node000030_Node000034" class="edge">
<title>Node30&#45;&gt;Node34</title>
<g id="a_edge40_Node000030_Node000034"><a xlink:title=" ">
<path fill="none" stroke="#63b8ff" d="M3213.28,-197.8C3213.14,-188.7 3212.95,-176.79 3212.8,-166.9"/>
<polygon fill="#63b8ff" stroke="#63b8ff" points="3216.29,-166.79 3212.64,-156.84 3209.29,-166.9 3216.29,-166.79"/>
</a>
</g>
</g>
<!-- Node30&#45;&gt;Node35 -->
<g id="edge41_Node000030_Node000035" class="edge">
<title>Node30&#45;&gt;Node35</title>
<g id="a_edge41_Node000030_Node000035"><a xlink:title=" ">
<path fill="none" stroke="#63b8ff" d="M3143.14,-197.98C3101.55,-189.06 3048.08,-176.47 3001.5,-162 2999.63,-161.42 2997.71,-160.79 2995.79,-160.12"/>
<polygon fill="#63b8ff" stroke="#63b8ff" points="2996.86,-156.79 2986.27,-156.64 2994.46,-163.36 2996.86,-156.79"/>
</a>
</g>
</g>
<!-- Node36 -->
<g id="Node000036" class="node">
<title>Node36</title>
<g id="a_Node000036"><a xlink:title=" ">
<polygon fill="#e0e0e0" stroke="#999999" points="3303,-156.5 3252,-156.5 3252,-137.5 3303,-137.5 3303,-156.5"/>
<text text-anchor="middle" x="3277.5" y="-144.5" font-family="Helvetica,sans-Serif" font-size="10.00">variant</text>
</a>
</g>
</g>
<!-- Node30&#45;&gt;Node36 -->
<g id="edge42_Node000030_Node000036" class="edge">
<title>Node30&#45;&gt;Node36</title>
<g id="a_edge42_Node000030_Node000036"><a xlink:title=" ">
<path fill="none" stroke="#63b8ff" d="M3227.7,-197.8C3237.68,-187.82 3251.04,-174.46 3261.41,-164.09"/>
<polygon fill="#63b8ff" stroke="#63b8ff" points="3264.06,-166.39 3268.66,-156.84 3259.11,-161.44 3264.06,-166.39"/>
</a>
</g>
</g>
<!-- Node30&#45;&gt;Node37 -->
<g id="edge43_Node000030_Node000037" class="edge">
<title>Node30&#45;&gt;Node37</title>
<g id="a_edge43_Node000030_Node000037"><a xlink:title=" ">
<path fill="none" stroke="#63b8ff" d="M3291.29,-200.12C3296.1,-199.4 3300.87,-198.69 3305.5,-198 3416.11,-181.59 3446.23,-189.95 3554.5,-162 3556.94,-161.37 3559.45,-160.63 3561.95,-159.83"/>
<polygon fill="#63b8ff" stroke="#63b8ff" points="3563.12,-163.13 3571.4,-156.51 3560.81,-156.52 3563.12,-163.13"/>
</a>
</g>
</g>
<!-- Node38 -->
<g id="Node000038" class="node">
<title>Node38</title>
<g id="a_Node000038"><a xlink:title=" ">
<polygon fill="#e0e0e0" stroke="#999999" points="3371.5,-156.5 3321.5,-156.5 3321.5,-137.5 3371.5,-137.5 3371.5,-156.5"/>
<text text-anchor="middle" x="3346.5" y="-144.5" font-family="Helvetica,sans-Serif" font-size="10.00">format</text>
</a>
</g>
</g>
<!-- Node30&#45;&gt;Node38 -->
<g id="edge45_Node000030_Node000038" class="edge">
<title>Node30&#45;&gt;Node38</title>
<g id="a_edge45_Node000030_Node000038"><a xlink:title=" ">
<path fill="none" stroke="#63b8ff" d="M3242.69,-197.95C3265.6,-186.93 3297.25,-171.7 3319.57,-160.96"/>
<polygon fill="#63b8ff" stroke="#63b8ff" points="3321.31,-164.01 3328.8,-156.52 3318.27,-157.7 3321.31,-164.01"/>
</a>
</g>
</g>
<!-- Node39 -->
<g id="Node000039" class="node">
<title>Node39</title>
<g id="a_Node000039"><a xlink:title=" ">
<polygon fill="#e0e0e0" stroke="#999999" points="3545,-162 3390,-162 3390,-132 3545,-132 3545,-162"/>
<text text-anchor="start" x="3398" y="-150" font-family="Helvetica,sans-Serif" font-size="10.00">Hermes/Endpoint/IpEndpoint</text>
<text text-anchor="middle" x="3467.5" y="-139" font-family="Helvetica,sans-Serif" font-size="10.00">/IpAddress.tpp</text>
</a>
</g>
</g>
<!-- Node30&#45;&gt;Node39 -->
<g id="edge46_Node000030_Node000039" class="edge">
<title>Node30&#45;&gt;Node39</title>
<g id="a_edge46_Node000030_Node000039"><a xlink:title=" ">
<path fill="none" stroke="#63b8ff" d="M3269.24,-197.95C3308.37,-188.1 3360.83,-174.88 3401.96,-164.51"/>
<polygon fill="#63b8ff" stroke="#63b8ff" points="3403.05,-167.85 3411.89,-162.01 3401.34,-161.06 3403.05,-167.85"/>
</a>
</g>
</g>
<!-- Node32 -->
<g id="Node000032" class="node">
<title>Node32</title>
<g id="a_Node000032"><a xlink:title=" ">
<polygon fill="#e0e0e0" stroke="#999999" points="3199,-85 3154,-85 3154,-66 3199,-66 3199,-85"/>
<text text-anchor="middle" x="3176.5" y="-73" font-family="Helvetica,sans-Serif" font-size="10.00">utility</text>
</a>
</g>
</g>
<!-- Node31&#45;&gt;Node32 -->
<g id="edge38_Node000031_Node000032" class="edge">
<title>Node31&#45;&gt;Node32</title>
<g id="a_edge38_Node000031_Node000032"><a xlink:title=" ">
<path fill="none" stroke="#63b8ff" d="M3116.84,-137.48C3127.75,-126.33 3147.09,-106.56 3160.79,-92.56"/>
<polygon fill="#63b8ff" stroke="#63b8ff" points="3163.6,-94.69 3168.09,-85.09 3158.6,-89.79 3163.6,-94.69"/>
</a>
</g>
</g>
<!-- Node33 -->
<g id="Node000033" class="node">
<title>Node33</title>
<g id="a_Node000033"><a xlink:title=" ">
<polygon fill="#e0e0e0" stroke="#999999" points="3136,-85 3071,-85 3071,-66 3136,-66 3136,-85"/>
<text text-anchor="middle" x="3103.5" y="-73" font-family="Helvetica,sans-Serif" font-size="10.00">functional</text>
</a>
</g>
</g>
<!-- Node31&#45;&gt;Node33 -->
<g id="edge39_Node000031_Node000033" class="edge">
<title>Node31&#45;&gt;Node33</title>
<g id="a_edge39_Node000031_Node000033"><a xlink:title=" ">
<path fill="none" stroke="#63b8ff" d="M3107.89,-137.48C3107.14,-127.06 3105.85,-109.11 3104.86,-95.38"/>
<polygon fill="#63b8ff" stroke="#63b8ff" points="3108.33,-94.81 3104.12,-85.09 3101.34,-95.32 3108.33,-94.81"/>
</a>
</g>
</g>
</g>
</svg>
