<?xml version="1.0" encoding="UTF-8" standalone="no"?>
<!DOCTYPE svg PUBLIC "-//W3C//DTD SVG 1.1//EN"
 "http://www.w3.org/Graphics/SVG/1.1/DTD/svg11.dtd">
<!-- Generated by graphviz version 2.43.0 (0)
 -->
<!-- Title: include/Hermes/Endpoint/IpEndpoint/IpEndpoint.hpp Pages: 1 -->
<svg width="3646pt" height="302pt"
 viewBox="0.00 0.00 3646.00 302.00" xmlns="http://www.w3.org/2000/svg" xmlns:xlink="http://www.w3.org/1999/xlink">
<g id="graph0" class="graph" transform="scale(1 1) rotate(0) translate(4 298)">
<title>include/Hermes/Endpoint/IpEndpoint/IpEndpoint.hpp</title>
<!-- Node1 -->
<g id="Node000001" class="node">
<title>Node1</title>
<g id="a_Node000001"><a xlink:title=" ">
<polygon fill="#999999" stroke="#666666" points="3254.5,-294 3107.5,-294 3107.5,-264 3254.5,-264 3254.5,-294"/>
<text text-anchor="start" x="3115.5" y="-282" font-family="Helvetica,sans-Serif" font-size="10.00">include/Hermes/Endpoint</text>
<text text-anchor="middle" x="3181" y="-271" font-family="Helvetica,sans-Serif" font-size="10.00">/IpEndpoint/IpEndpoint.hpp</text>
</a>
</g>
</g>
<!-- Node2 -->
<g id="Node000002" class="node">
<title>Node2</title>
<g id="a_Node000002"><a xlink:href="_endpoint_concept_8hpp.html" target="_top" xlink:title=" ">
<polygon fill="white" stroke="#666666" points="2869,-228 2737,-228 2737,-198 2869,-198 2869,-228"/>
<text text-anchor="start" x="2745" y="-216" font-family="Helvetica,sans-Serif" font-size="10.00">Hermes/Endpoint/_base</text>
<text text-anchor="middle" x="2803" y="-205" font-family="Helvetica,sans-Serif" font-size="10.00">/EndpointConcept.hpp</text>
</a>
</g>
</g>
<!-- Node1&#45;&gt;Node2 -->
<g id="edge1_Node000001_Node000002" class="edge">
<title>Node1&#45;&gt;Node2</title>
<g id="a_edge1_Node000001_Node000002"><a xlink:title=" ">
<path fill="none" stroke="#63b8ff" d="M3107.22,-265.51C3041.42,-254.37 2945.48,-238.12 2879,-226.87"/>
<polygon fill="#63b8ff" stroke="#63b8ff" points="2879.45,-223.39 2869.01,-225.18 2878.28,-230.3 2879.45,-223.39"/>
</a>
</g>
</g>
<!-- Node30 -->
<g id="Node000030" class="node">
<title>Node30</title>
<g id="a_Node000030"><a xlink:href="_ip_address_8hpp.html" target="_top" xlink:title=" ">
<polygon fill="white" stroke="#666666" points="3311.5,-228 3156.5,-228 3156.5,-198 3311.5,-198 3311.5,-228"/>
<text text-anchor="start" x="3164.5" y="-216" font-family="Helvetica,sans-Serif" font-size="10.00">Hermes/Endpoint/IpEndpoint</text>
<text text-anchor="middle" x="3234" y="-205" font-family="Helvetica,sans-Serif" font-size="10.00">/IpAddress.hpp</text>
</a>
</g>
</g>
<!-- Node1&#45;&gt;Node30 -->
<g id="edge35_Node000001_Node000030" class="edge">
<title>Node1&#45;&gt;Node30</title>
<g id="a_edge35_Node000001_Node000030"><a xlink:title=" ">
<path fill="none" stroke="#63b8ff" d="M3192.76,-263.8C3199.56,-255.59 3208.24,-245.1 3215.89,-235.87"/>
<polygon fill="#63b8ff" stroke="#63b8ff" points="3218.59,-238.1 3222.27,-228.16 3213.2,-233.63 3218.59,-238.1"/>
</a>
</g>
</g>
<!-- Node31 -->
<g id="Node000031" class="node">
<title>Node31</title>
<g id="a_Node000031"><a xlink:href="_hash_8hpp.html" target="_top" xlink:title=" ">
<polygon fill="white" stroke="#666666" points="3091.5,-156.5 2962.5,-156.5 2962.5,-137.5 3091.5,-137.5 3091.5,-156.5"/>
<text text-anchor="middle" x="3027" y="-144.5" font-family="Helvetica,sans-Serif" font-size="10.00">Hermes/Utils/Hash.hpp</text>
</a>
</g>
</g>
<!-- Node1&#45;&gt;Node31 -->
<g id="edge46_Node000001_Node000031" class="edge">
<title>Node1&#45;&gt;Node31</title>
<g id="a_edge46_Node000001_Node000031"><a xlink:title=" ">
<path fill="none" stroke="#63b8ff" d="M3164.23,-263.84C3135.14,-239.28 3075.55,-188.99 3045.38,-163.52"/>
<polygon fill="#63b8ff" stroke="#63b8ff" points="3047.26,-160.52 3037.36,-156.75 3042.75,-165.87 3047.26,-160.52"/>
</a>
</g>
</g>
<!-- Node35 -->
<g id="Node000035" class="node">
<title>Node35</title>
<g id="a_Node000035"><a xlink:title=" ">
<polygon fill="#e0e0e0" stroke="#999999" points="3154,-156.5 3110,-156.5 3110,-137.5 3154,-137.5 3154,-156.5"/>
<text text-anchor="middle" x="3132" y="-144.5" font-family="Helvetica,sans-Serif" font-size="10.00">string</text>
</a>
</g>
</g>
<!-- Node1&#45;&gt;Node35 -->
<g id="edge48_Node000001_Node000035" class="edge">
<title>Node1&#45;&gt;Node35</title>
<g id="a_edge48_Node000001_Node000035"><a xlink:title=" ">
<path fill="none" stroke="#63b8ff" d="M3169.59,-263.96C3162.36,-254.37 3153.38,-241.08 3148,-228 3139.77,-207.99 3135.66,-183.38 3133.69,-166.78"/>
<polygon fill="#63b8ff" stroke="#63b8ff" points="3137.16,-166.31 3132.64,-156.72 3130.2,-167.03 3137.16,-166.31"/>
</a>
</g>
</g>
<!-- Node37 -->
<g id="Node000037" class="node">
<title>Node37</title>
<g id="a_Node000037"><a xlink:title=" ">
<polygon fill="#e0e0e0" stroke="#999999" points="3638,-156.5 3582,-156.5 3582,-137.5 3638,-137.5 3638,-156.5"/>
<text text-anchor="middle" x="3610" y="-144.5" font-family="Helvetica,sans-Serif" font-size="10.00">optional</text>
</a>
</g>
</g>
<!-- Node1&#45;&gt;Node37 -->
<g id="edge47_Node000001_Node000037" class="edge">
<title>Node1&#45;&gt;Node37</title>
<g id="a_edge47_Node000001_Node000037"><a xlink:title=" ">
<path fill="none" stroke="#63b8ff" d="M3232.2,-263.95C3259.45,-255.44 3293.02,-243.26 3321,-228 3340.2,-217.53 3339.96,-206.75 3360,-198 3447.99,-159.59 3480.33,-187.11 3573,-162 3575.29,-161.38 3577.64,-160.67 3579.99,-159.91"/>
<polygon fill="#63b8ff" stroke="#63b8ff" points="3581.22,-163.19 3589.49,-156.57 3578.9,-156.58 3581.22,-163.19"/>
</a>
</g>
</g>
<!-- Node40 -->
<g id="Node000040" class="node">
<title>Node40</title>
<g id="a_Node000040"><a xlink:title=" ">
<polygon fill="#e0e0e0" stroke="#999999" points="3523.5,-228 3368.5,-228 3368.5,-198 3523.5,-198 3523.5,-228"/>
<text text-anchor="start" x="3376.5" y="-216" font-family="Helvetica,sans-Serif" font-size="10.00">Hermes/Endpoint/IpEndpoint</text>
<text text-anchor="middle" x="3446" y="-205" font-family="Helvetica,sans-Serif" font-size="10.00">/IpEndpoint.tpp</text>
</a>
</g>
</g>
<!-- Node1&#45;&gt;Node40 -->
<g id="edge49_Node000001_Node000040" class="edge">
<title>Node1&#45;&gt;Node40</title>
<g id="a_edge49_Node000001_Node000040"><a xlink:title=" ">
<path fill="none" stroke="#63b8ff" d="M3239.16,-263.95C3280.15,-254.06 3335.17,-240.77 3378.16,-230.38"/>
<polygon fill="#63b8ff" stroke="#63b8ff" points="3379.08,-233.76 3387.98,-228.01 3377.44,-226.96 3379.08,-233.76"/>
</a>
</g>
</g>
<!-- Node3 -->
<g id="Node000003" class="node">
<title>Node3</title>
<g id="a_Node000003"><a xlink:href="_connection_error_enum_8hpp.html" target="_top" xlink:title=" ">
<polygon fill="white" stroke="#666666" points="2886.5,-162 2719.5,-162 2719.5,-132 2886.5,-132 2886.5,-162"/>
<text text-anchor="start" x="2727.5" y="-150" font-family="Helvetica,sans-Serif" font-size="10.00">Hermes/_base/ConnectionError</text>
<text text-anchor="middle" x="2803" y="-139" font-family="Helvetica,sans-Serif" font-size="10.00">Enum.hpp</text>
</a>
</g>
</g>
<!-- Node2&#45;&gt;Node3 -->
<g id="edge2_Node000002_Node000003" class="edge">
<title>Node2&#45;&gt;Node3</title>
<g id="a_edge2_Node000002_Node000003"><a xlink:title=" ">
<path fill="none" stroke="#63b8ff" d="M2803,-197.8C2803,-190.34 2803,-180.99 2803,-172.41"/>
<polygon fill="#63b8ff" stroke="#63b8ff" points="2806.5,-172.16 2803,-162.16 2799.5,-172.16 2806.5,-172.16"/>
</a>
</g>
</g>
<!-- Node11 -->
<g id="Node000011" class="node">
<title>Node11</title>
<g id="a_Node000011"><a xlink:href="_os_api_8hpp.html" target="_top" xlink:title=" ">
<polygon fill="white" stroke="#666666" points="1228,-162 1110,-162 1110,-132 1228,-132 1228,-162"/>
<text text-anchor="start" x="1118" y="-150" font-family="Helvetica,sans-Serif" font-size="10.00">Hermes/_base/OsApi</text>
<text text-anchor="middle" x="1169" y="-139" font-family="Helvetica,sans-Serif" font-size="10.00">/OsApi.hpp</text>
</a>
</g>
</g>
<!-- Node2&#45;&gt;Node11 -->
<g id="edge10_Node000002_Node000011" class="edge">
<title>Node2&#45;&gt;Node11</title>
<g id="a_edge10_Node000002_Node000011"><a xlink:title=" ">
<path fill="none" stroke="#63b8ff" d="M2736.92,-209.41C2474.44,-199.13 1506.73,-161.23 1238.39,-150.72"/>
<polygon fill="#63b8ff" stroke="#63b8ff" points="1238.15,-147.21 1228.02,-150.31 1237.87,-154.2 1238.15,-147.21"/>
</a>
</g>
</g>
<!-- Node4 -->
<g id="Node000004" class="node">
<title>Node4</title>
<g id="a_Node000004"><a xlink:title=" ">
<polygon fill="#e0e0e0" stroke="#999999" points="2834,-85 2772,-85 2772,-66 2834,-66 2834,-85"/>
<text text-anchor="middle" x="2803" y="-73" font-family="Helvetica,sans-Serif" font-size="10.00">expected</text>
</a>
</g>
</g>
<!-- Node3&#45;&gt;Node4 -->
<g id="edge3_Node000003_Node000004" class="edge">
<title>Node3&#45;&gt;Node4</title>
<g id="a_edge3_Node000003_Node000004"><a xlink:title=" ">
<path fill="none" stroke="#63b8ff" d="M2803,-131.94C2803,-121.46 2803,-107.05 2803,-95.55"/>
<polygon fill="#63b8ff" stroke="#63b8ff" points="2806.5,-95.27 2803,-85.27 2799.5,-95.27 2806.5,-95.27"/>
</a>
</g>
</g>
<!-- Node5 -->
<g id="Node000005" class="node">
<title>Node5</title>
<g id="a_Node000005"><a xlink:title=" ">
<polygon fill="#e0e0e0" stroke="#999999" points="3044.5,-85 2997.5,-85 2997.5,-66 3044.5,-66 3044.5,-85"/>
<text text-anchor="middle" x="3021" y="-73" font-family="Helvetica,sans-Serif" font-size="10.00">vector</text>
</a>
</g>
</g>
<!-- Node3&#45;&gt;Node5 -->
<g id="edge4_Node000003_Node000005" class="edge">
<title>Node3&#45;&gt;Node5</title>
<g id="a_edge4_Node000003_Node000005"><a xlink:title=" ">
<path fill="none" stroke="#63b8ff" d="M2873.93,-131.94C2909.31,-123.68 2952.27,-111.74 2989,-96 2992.62,-94.45 2996.32,-92.54 2999.86,-90.53"/>
<polygon fill="#63b8ff" stroke="#63b8ff" points="3001.96,-93.34 3008.68,-85.15 2998.32,-87.37 3001.96,-93.34"/>
</a>
</g>
</g>
<!-- Node6 -->
<g id="Node000006" class="node">
<title>Node6</title>
<g id="a_Node000006"><a xlink:title=" ">
<polygon fill="#e0e0e0" stroke="#999999" points="2892,-85 2852,-85 2852,-66 2892,-66 2892,-85"/>
<text text-anchor="middle" x="2872" y="-73" font-family="Helvetica,sans-Serif" font-size="10.00">span</text>
</a>
</g>
</g>
<!-- Node3&#45;&gt;Node6 -->
<g id="edge5_Node000003_Node000006" class="edge">
<title>Node3&#45;&gt;Node6</title>
<g id="a_edge5_Node000003_Node000006"><a xlink:title=" ">
<path fill="none" stroke="#63b8ff" d="M2816.96,-131.94C2828.33,-120.48 2844.38,-104.32 2856.22,-92.4"/>
<polygon fill="#63b8ff" stroke="#63b8ff" points="2858.73,-94.83 2863.3,-85.27 2853.77,-89.9 2858.73,-94.83"/>
</a>
</g>
</g>
<!-- Node7 -->
<g id="Node000007" class="node">
<title>Node7</title>
<g id="a_Node000007"><a xlink:title=" ">
<polygon fill="#e0e0e0" stroke="#999999" points="2979.5,-85 2910.5,-85 2910.5,-66 2979.5,-66 2979.5,-85"/>
<text text-anchor="middle" x="2945" y="-73" font-family="Helvetica,sans-Serif" font-size="10.00">type_traits</text>
</a>
</g>
</g>
<!-- Node3&#45;&gt;Node7 -->
<g id="edge6_Node000003_Node000007" class="edge">
<title>Node3&#45;&gt;Node7</title>
<g id="a_edge6_Node000003_Node000007"><a xlink:title=" ">
<path fill="none" stroke="#63b8ff" d="M2831.74,-131.94C2857.06,-119.54 2893.67,-101.62 2918.35,-89.54"/>
<polygon fill="#63b8ff" stroke="#63b8ff" points="2920.05,-92.61 2927.49,-85.07 2916.97,-86.32 2920.05,-92.61"/>
</a>
</g>
</g>
<!-- Node8 -->
<g id="Node000008" class="node">
<title>Node8</title>
<g id="a_Node000008"><a xlink:title=" ">
<polygon fill="#e0e0e0" stroke="#999999" points="2416.5,-85 2291.5,-85 2291.5,-66 2416.5,-66 2416.5,-85"/>
<text text-anchor="middle" x="2354" y="-73" font-family="Helvetica,sans-Serif" font-size="10.00">stdexec/execution.hpp</text>
</a>
</g>
</g>
<!-- Node3&#45;&gt;Node8 -->
<g id="edge7_Node000003_Node000008" class="edge">
<title>Node3&#45;&gt;Node8</title>
<g id="a_edge7_Node000003_Node000008"><a xlink:title=" ">
<path fill="none" stroke="#63b8ff" d="M2719.37,-138.12C2642.62,-130.14 2526.01,-116.08 2426,-96 2414.82,-93.76 2402.81,-90.75 2391.87,-87.77"/>
<polygon fill="#63b8ff" stroke="#63b8ff" points="2392.75,-84.38 2382.18,-85.06 2390.87,-91.12 2392.75,-84.38"/>
</a>
</g>
</g>
<!-- Node9 -->
<g id="Node000009" class="node">
<title>Node9</title>
<g id="a_Node000009"><a xlink:title=" ">
<polygon fill="#e0e0e0" stroke="#999999" points="2569,-85 2435,-85 2435,-66 2569,-66 2569,-85"/>
<text text-anchor="middle" x="2502" y="-73" font-family="Helvetica,sans-Serif" font-size="10.00">exec/any_sender_of.hpp</text>
</a>
</g>
</g>
<!-- Node3&#45;&gt;Node9 -->
<g id="edge8_Node000003_Node000009" class="edge">
<title>Node3&#45;&gt;Node9</title>
<g id="a_edge8_Node000003_Node000009"><a xlink:title=" ">
<path fill="none" stroke="#63b8ff" d="M2737.71,-131.94C2692.96,-122.18 2632.3,-108.69 2579,-96 2567.91,-93.36 2555.95,-90.39 2544.84,-87.58"/>
<polygon fill="#63b8ff" stroke="#63b8ff" points="2545.48,-84.13 2534.92,-85.06 2543.75,-90.91 2545.48,-84.13"/>
</a>
</g>
</g>
<!-- Node10 -->
<g id="Node000010" class="node">
<title>Node10</title>
<g id="a_Node000010"><a xlink:title=" ">
<polygon fill="#e0e0e0" stroke="#999999" points="2754.5,-90.5 2587.5,-90.5 2587.5,-60.5 2754.5,-60.5 2754.5,-90.5"/>
<text text-anchor="start" x="2595.5" y="-78.5" font-family="Helvetica,sans-Serif" font-size="10.00">Hermes/_base/ConnectionError</text>
<text text-anchor="middle" x="2671" y="-67.5" font-family="Helvetica,sans-Serif" font-size="10.00">Enum.tpp</text>
</a>
</g>
</g>
<!-- Node3&#45;&gt;Node10 -->
<g id="edge9_Node000003_Node000010" class="edge">
<title>Node3&#45;&gt;Node10</title>
<g id="a_edge9_Node000003_Node000010"><a xlink:title=" ">
<path fill="none" stroke="#63b8ff" d="M2776.29,-131.94C2756.25,-121.38 2728.61,-106.83 2706.68,-95.29"/>
<polygon fill="#63b8ff" stroke="#63b8ff" points="2708.15,-92.11 2697.67,-90.54 2704.89,-98.3 2708.15,-92.11"/>
</a>
</g>
</g>
<!-- Node12 -->
<g id="Node000012" class="node">
<title>Node12</title>
<g id="a_Node000012"><a xlink:title=" ">
<polygon fill="#e0e0e0" stroke="#999999" points="588.5,-19 511.5,-19 511.5,0 588.5,0 588.5,-19"/>
<text text-anchor="middle" x="550" y="-7" font-family="Helvetica,sans-Serif" font-size="10.00">sys/socket.h</text>
</a>
</g>
</g>
<!-- Node11&#45;&gt;Node12 -->
<g id="edge11_Node000011_Node000012" class="edge">
<title>Node11&#45;&gt;Node12</title>
<g id="a_edge11_Node000011_Node000012"><a xlink:title=" ">
<path fill="none" stroke="#63b8ff" d="M1109.84,-145.18C995.93,-142.76 750.79,-133.26 676,-96 653.76,-84.92 657.84,-69.95 638,-55 620.7,-41.96 598.99,-30.94 581.47,-23.12"/>
<polygon fill="#63b8ff" stroke="#63b8ff" points="582.79,-19.88 572.22,-19.12 580.01,-26.3 582.79,-19.88"/>
</a>
</g>
</g>
<!-- Node13 -->
<g id="Node000013" class="node">
<title>Node13</title>
<g id="a_Node000013"><a xlink:title=" ">
<polygon fill="#e0e0e0" stroke="#999999" points="2108,-19 2036,-19 2036,0 2108,0 2108,-19"/>
<text text-anchor="middle" x="2072" y="-7" font-family="Helvetica,sans-Serif" font-size="10.00">netinet/in.h</text>
</a>
</g>
</g>
<!-- Node11&#45;&gt;Node13 -->
<g id="edge12_Node000011_Node000013" class="edge">
<title>Node11&#45;&gt;Node13</title>
<g id="a_edge12_Node000011_Node000013"><a xlink:title=" ">
<path fill="none" stroke="#63b8ff" d="M1228.26,-144.68C1398.91,-140.52 1883.43,-126.18 1948,-96 1970.78,-85.35 1966.92,-70.15 1987,-55 2003.9,-42.25 2024.96,-31.2 2041.89,-23.29"/>
<polygon fill="#63b8ff" stroke="#63b8ff" points="2043.66,-26.33 2051.32,-19.02 2040.77,-19.96 2043.66,-26.33"/>
</a>
</g>
</g>
<!-- Node14 -->
<g id="Node000014" class="node">
<title>Node14</title>
<g id="a_Node000014"><a xlink:title=" ">
<polygon fill="#e0e0e0" stroke="#999999" points="2064.5,-85 1995.5,-85 1995.5,-66 2064.5,-66 2064.5,-85"/>
<text text-anchor="middle" x="2030" y="-73" font-family="Helvetica,sans-Serif" font-size="10.00">arpa/inet.h</text>
</a>
</g>
</g>
<!-- Node11&#45;&gt;Node14 -->
<g id="edge13_Node000011_Node000014" class="edge">
<title>Node11&#45;&gt;Node14</title>
<g id="a_edge13_Node000011_Node000014"><a xlink:title=" ">
<path fill="none" stroke="#63b8ff" d="M1228.23,-144.78C1390.13,-141.07 1837.48,-128.11 1981,-96 1988.2,-94.39 1995.73,-91.86 2002.66,-89.15"/>
<polygon fill="#63b8ff" stroke="#63b8ff" points="2004.4,-92.21 2012.28,-85.13 2001.71,-85.75 2004.4,-92.21"/>
</a>
</g>
</g>
<!-- Node15 -->
<g id="Node000015" class="node">
<title>Node15</title>
<g id="a_Node000015"><a xlink:title=" ">
<polygon fill="#e0e0e0" stroke="#999999" points="1544.5,-19 1491.5,-19 1491.5,0 1544.5,0 1544.5,-19"/>
<text text-anchor="middle" x="1518" y="-7" font-family="Helvetica,sans-Serif" font-size="10.00">netdb.h</text>
</a>
</g>
</g>
<!-- Node11&#45;&gt;Node15 -->
<g id="edge14_Node000011_Node000015" class="edge">
<title>Node11&#45;&gt;Node15</title>
<g id="a_edge14_Node000011_Node000015"><a xlink:title=" ">
<path fill="none" stroke="#63b8ff" d="M1167.41,-131.93C1165.98,-111.74 1166.73,-74.79 1188,-55 1229.88,-16.02 1404.29,-10.72 1481.24,-10.31"/>
<polygon fill="#63b8ff" stroke="#63b8ff" points="1481.44,-13.81 1491.43,-10.29 1481.42,-6.81 1481.44,-13.81"/>
</a>
</g>
</g>
<!-- Node16 -->
<g id="Node000016" class="node">
<title>Node16</title>
<g id="a_Node000016"><a xlink:title=" ">
<polygon fill="#e0e0e0" stroke="#999999" points="56,-85 0,-85 0,-66 56,-66 56,-85"/>
<text text-anchor="middle" x="28" y="-73" font-family="Helvetica,sans-Serif" font-size="10.00">unistd.h</text>
</a>
</g>
</g>
<!-- Node11&#45;&gt;Node16 -->
<g id="edge15_Node000011_Node000016" class="edge">
<title>Node11&#45;&gt;Node16</title>
<g id="a_edge15_Node000011_Node000016"><a xlink:title=" ">
<path fill="none" stroke="#63b8ff" d="M1109.92,-144.83C895.53,-140.39 165.91,-123.4 65,-96 59.79,-94.59 54.49,-92.35 49.58,-89.88"/>
<polygon fill="#63b8ff" stroke="#63b8ff" points="51.22,-86.79 40.77,-85.03 47.84,-92.92 51.22,-86.79"/>
</a>
</g>
</g>
<!-- Node17 -->
<g id="Node000017" class="node">
<title>Node17</title>
<g id="a_Node000017"><a xlink:href="_conversion_and_literals_8hpp.html" target="_top" xlink:title=" ">
<polygon fill="white" stroke="#666666" points="971,-90.5 821,-90.5 821,-60.5 971,-60.5 971,-90.5"/>
<text text-anchor="start" x="829" y="-78.5" font-family="Helvetica,sans-Serif" font-size="10.00">Hermes/_base/OsApi</text>
<text text-anchor="middle" x="896" y="-67.5" font-family="Helvetica,sans-Serif" font-size="10.00">/ConversionAndLiterals.hpp</text>
</a>
</g>
</g>
<!-- Node11&#45;&gt;Node17 -->
<g id="edge16_Node000011_Node000017" class="edge">
<title>Node11&#45;&gt;Node17</title>
<g id="a_edge16_Node000011_Node000017"><a xlink:title=" ">
<path fill="none" stroke="#63b8ff" d="M1113.75,-131.94C1069.54,-120.68 1007.43,-104.87 960.85,-93.01"/>
<polygon fill="#63b8ff" stroke="#63b8ff" points="961.72,-89.62 951.16,-90.54 959.99,-96.4 961.72,-89.62"/>
</a>
</g>
</g>
<!-- Node19 -->
<g id="Node000019" class="node">
<title>Node19</title>
<g id="a_Node000019"><a xlink:href="_macros_8hpp.html" target="_top" xlink:title=" ">
<polygon fill="white" stroke="#666666" points="803,-90.5 685,-90.5 685,-60.5 803,-60.5 803,-90.5"/>
<text text-anchor="start" x="693" y="-78.5" font-family="Helvetica,sans-Serif" font-size="10.00">Hermes/_base/OsApi</text>
<text text-anchor="middle" x="744" y="-67.5" font-family="Helvetica,sans-Serif" font-size="10.00">/Macros.hpp</text>
</a>
</g>
</g>
<!-- Node11&#45;&gt;Node19 -->
<g id="edge18_Node000011_Node000019" class="edge">
<title>Node11&#45;&gt;Node19</title>
<g id="a_edge18_Node000011_Node000019"><a xlink:title=" ">
<path fill="none" stroke="#63b8ff" d="M1109.81,-140.28C1038.63,-132.81 915.77,-118.03 812,-96 807.95,-95.14 803.78,-94.17 799.6,-93.13"/>
<polygon fill="#63b8ff" stroke="#63b8ff" points="800.43,-89.73 789.87,-90.6 798.67,-96.5 800.43,-89.73"/>
</a>
</g>
</g>
<!-- Node21 -->
<g id="Node000021" class="node">
<title>Node21</title>
<g id="a_Node000021"><a xlink:href="_address_family_enum_8hpp.html" target="_top" xlink:title=" ">
<polygon fill="white" stroke="#666666" points="250,-90.5 74,-90.5 74,-60.5 250,-60.5 250,-90.5"/>
<text text-anchor="start" x="82" y="-78.5" font-family="Helvetica,sans-Serif" font-size="10.00">Hermes/_base/OsApi</text>
<text text-anchor="middle" x="162" y="-67.5" font-family="Helvetica,sans-Serif" font-size="10.00">/Enums/AddressFamilyEnum.hpp</text>
</a>
</g>
</g>
<!-- Node11&#45;&gt;Node21 -->
<g id="edge21_Node000011_Node000021" class="edge">
<title>Node11&#45;&gt;Node21</title>
<g id="a_edge21_Node000011_Node000021"><a xlink:title=" ">
<path fill="none" stroke="#63b8ff" d="M1109.84,-145.73C964.32,-144.41 577.52,-137 258,-96 250.29,-95.01 242.27,-93.75 234.31,-92.35"/>
<polygon fill="#63b8ff" stroke="#63b8ff" points="234.73,-88.87 224.27,-90.52 233.47,-95.76 234.73,-88.87"/>
</a>
</g>
</g>
<!-- Node22 -->
<g id="Node000022" class="node">
<title>Node22</title>
<g id="a_Node000022"><a xlink:href="_protocol_base_type_enum_8hpp.html" target="_top" xlink:title=" ">
<polygon fill="white" stroke="#666666" points="2273.5,-90.5 2082.5,-90.5 2082.5,-60.5 2273.5,-60.5 2273.5,-90.5"/>
<text text-anchor="start" x="2090.5" y="-78.5" font-family="Helvetica,sans-Serif" font-size="10.00">Hermes/_base/OsApi</text>
<text text-anchor="middle" x="2178" y="-67.5" font-family="Helvetica,sans-Serif" font-size="10.00">/Enums/ProtocolBaseTypeEnum.hpp</text>
</a>
</g>
</g>
<!-- Node11&#45;&gt;Node22 -->
<g id="edge23_Node000011_Node000022" class="edge">
<title>Node11&#45;&gt;Node22</title>
<g id="a_edge23_Node000011_Node000022"><a xlink:title=" ">
<path fill="none" stroke="#63b8ff" d="M1228.26,-145.39C1373.15,-143.32 1756.68,-134.35 2074,-96 2082.55,-94.97 2091.45,-93.66 2100.29,-92.21"/>
<polygon fill="#63b8ff" stroke="#63b8ff" points="2100.95,-95.65 2110.23,-90.52 2099.78,-88.75 2100.95,-95.65"/>
</a>
</g>
</g>
<!-- Node23 -->
<g id="Node000023" class="node">
<title>Node23</title>
<g id="a_Node000023"><a xlink:href="_socket_shutdown_enum_8hpp.html" target="_top" xlink:title=" ">
<polygon fill="white" stroke="#666666" points="452.5,-90.5 267.5,-90.5 267.5,-60.5 452.5,-60.5 452.5,-90.5"/>
<text text-anchor="start" x="275.5" y="-78.5" font-family="Helvetica,sans-Serif" font-size="10.00">Hermes/_base/OsApi</text>
<text text-anchor="middle" x="360" y="-67.5" font-family="Helvetica,sans-Serif" font-size="10.00">/Enums/SocketShutdownEnum.hpp</text>
</a>
</g>
</g>
<!-- Node11&#45;&gt;Node23 -->
<g id="edge25_Node000011_Node000023" class="edge">
<title>Node11&#45;&gt;Node23</title>
<g id="a_edge25_Node000011_Node000023"><a xlink:title=" ">
<path fill="none" stroke="#63b8ff" d="M1109.55,-144.22C987.53,-140.02 700.15,-127.42 461,-96 453.07,-94.96 444.82,-93.68 436.61,-92.29"/>
<polygon fill="#63b8ff" stroke="#63b8ff" points="437.09,-88.82 426.64,-90.54 435.88,-95.72 437.09,-88.82"/>
</a>
</g>
</g>
<!-- Node24 -->
<g id="Node000024" class="node">
<title>Node24</title>
<g id="a_Node000024"><a xlink:href="_socket_type_enum_8hpp.html" target="_top" xlink:title=" ">
<polygon fill="white" stroke="#666666" points="629.5,-90.5 470.5,-90.5 470.5,-60.5 629.5,-60.5 629.5,-90.5"/>
<text text-anchor="start" x="478.5" y="-78.5" font-family="Helvetica,sans-Serif" font-size="10.00">Hermes/_base/OsApi</text>
<text text-anchor="middle" x="550" y="-67.5" font-family="Helvetica,sans-Serif" font-size="10.00">/Enums/SocketTypeEnum.hpp</text>
</a>
</g>
</g>
<!-- Node11&#45;&gt;Node24 -->
<g id="edge27_Node000011_Node000024" class="edge">
<title>Node11&#45;&gt;Node24</title>
<g id="a_edge27_Node000011_Node000024"><a xlink:title=" ">
<path fill="none" stroke="#63b8ff" d="M1109.97,-142.55C1012.38,-136.37 811.46,-121.59 643,-96 636.26,-94.98 629.27,-93.78 622.3,-92.48"/>
<polygon fill="#63b8ff" stroke="#63b8ff" points="622.59,-88.97 612.11,-90.53 621.27,-95.85 622.59,-88.97"/>
</a>
</g>
</g>
<!-- Node25 -->
<g id="Node000025" class="node">
<title>Node25</title>
<g id="a_Node000025"><a xlink:href="_linux_2_encrypt_status_enum_8hpp.html" target="_top" xlink:title=" ">
<polygon fill="white" stroke="#666666" points="1141,-96 989,-96 989,-55 1141,-55 1141,-96"/>
<text text-anchor="start" x="997" y="-84" font-family="Helvetica,sans-Serif" font-size="10.00">Hermes/_base/OsApi</text>
<text text-anchor="start" x="997" y="-73" font-family="Helvetica,sans-Serif" font-size="10.00">/Enums/Linux/EncryptStatus</text>
<text text-anchor="middle" x="1065" y="-62" font-family="Helvetica,sans-Serif" font-size="10.00">Enum.hpp</text>
</a>
</g>
</g>
<!-- Node11&#45;&gt;Node25 -->
<g id="edge29_Node000011_Node000025" class="edge">
<title>Node11&#45;&gt;Node25</title>
<g id="a_edge29_Node000011_Node000025"><a xlink:title=" ">
<path fill="none" stroke="#63b8ff" d="M1147.95,-131.94C1135.05,-123.31 1118.16,-112.02 1102.98,-101.88"/>
<polygon fill="#63b8ff" stroke="#63b8ff" points="1104.55,-98.72 1094.29,-96.07 1100.66,-104.54 1104.55,-98.72"/>
</a>
</g>
</g>
<!-- Node26 -->
<g id="Node000026" class="node">
<title>Node26</title>
<g id="a_Node000026"><a xlink:href="_name_info_flags_8hpp.html" target="_top" xlink:title=" ">
<polygon fill="white" stroke="#666666" points="1939,-90.5 1795,-90.5 1795,-60.5 1939,-60.5 1939,-90.5"/>
<text text-anchor="start" x="1803" y="-78.5" font-family="Helvetica,sans-Serif" font-size="10.00">Hermes/_base/OsApi</text>
<text text-anchor="middle" x="1867" y="-67.5" font-family="Helvetica,sans-Serif" font-size="10.00">/Flags/NameInfoFlags.hpp</text>
</a>
</g>
</g>
<!-- Node11&#45;&gt;Node26 -->
<g id="edge30_Node000011_Node000026" class="edge">
<title>Node11&#45;&gt;Node26</title>
<g id="a_edge30_Node000011_Node000026"><a xlink:title=" ">
<path fill="none" stroke="#63b8ff" d="M1228.06,-144.27C1338.34,-140.35 1582.78,-128.49 1786,-96 1791.76,-95.08 1797.72,-93.96 1803.68,-92.74"/>
<polygon fill="#63b8ff" stroke="#63b8ff" points="1804.61,-96.12 1813.65,-90.59 1803.13,-89.27 1804.61,-96.12"/>
</a>
</g>
</g>
<!-- Node27 -->
<g id="Node000027" class="node">
<title>Node27</title>
<g id="a_Node000027"><a xlink:href="_linux_2_credential_flags_8hpp.html" target="_top" xlink:title=" ">
<polygon fill="white" stroke="#666666" points="1373,-90.5 1197,-90.5 1197,-60.5 1373,-60.5 1373,-90.5"/>
<text text-anchor="start" x="1205" y="-78.5" font-family="Helvetica,sans-Serif" font-size="10.00">Hermes/_base/OsApi</text>
<text text-anchor="middle" x="1285" y="-67.5" font-family="Helvetica,sans-Serif" font-size="10.00">/Flags/Linux/CredentialFlags.hpp</text>
</a>
</g>
</g>
<!-- Node11&#45;&gt;Node27 -->
<g id="edge32_Node000011_Node000027" class="edge">
<title>Node11&#45;&gt;Node27</title>
<g id="a_edge32_Node000011_Node000027"><a xlink:title=" ">
<path fill="none" stroke="#63b8ff" d="M1192.47,-131.94C1209.85,-121.53 1233.72,-107.22 1252.87,-95.75"/>
<polygon fill="#63b8ff" stroke="#63b8ff" points="1254.78,-98.69 1261.56,-90.54 1251.18,-92.68 1254.78,-98.69"/>
</a>
</g>
</g>
<!-- Node28 -->
<g id="Node000028" class="node">
<title>Node28</title>
<g id="a_Node000028"><a xlink:href="_linux_2_supported_protocols_flags_8hpp.html" target="_top" xlink:title=" ">
<polygon fill="white" stroke="#666666" points="1564.5,-96 1391.5,-96 1391.5,-55 1564.5,-55 1564.5,-96"/>
<text text-anchor="start" x="1399.5" y="-84" font-family="Helvetica,sans-Serif" font-size="10.00">Hermes/_base/OsApi</text>
<text text-anchor="start" x="1399.5" y="-73" font-family="Helvetica,sans-Serif" font-size="10.00">/Flags/Linux/SupportedProtocols</text>
<text text-anchor="middle" x="1478" y="-62" font-family="Helvetica,sans-Serif" font-size="10.00">Flags.hpp</text>
</a>
</g>
</g>
<!-- Node11&#45;&gt;Node28 -->
<g id="edge33_Node000011_Node000028" class="edge">
<title>Node11&#45;&gt;Node28</title>
<g id="a_edge33_Node000011_Node000028"><a xlink:title=" ">
<path fill="none" stroke="#63b8ff" d="M1228.21,-132.68C1271.5,-122.95 1331.17,-109.53 1381.33,-98.24"/>
<polygon fill="#63b8ff" stroke="#63b8ff" points="1382.24,-101.63 1391.23,-96.02 1380.7,-94.8 1382.24,-101.63"/>
</a>
</g>
</g>
<!-- Node29 -->
<g id="Node000029" class="node">
<title>Node29</title>
<g id="a_Node000029"><a xlink:href="_linux_2_s_channel_cred_flags_8hpp.html" target="_top" xlink:title=" ">
<polygon fill="white" stroke="#666666" points="1777,-90.5 1583,-90.5 1583,-60.5 1777,-60.5 1777,-90.5"/>
<text text-anchor="start" x="1591" y="-78.5" font-family="Helvetica,sans-Serif" font-size="10.00">Hermes/_base/OsApi</text>
<text text-anchor="middle" x="1680" y="-67.5" font-family="Helvetica,sans-Serif" font-size="10.00">/Flags/Linux/SChannelCredFlags.hpp</text>
</a>
</g>
</g>
<!-- Node11&#45;&gt;Node29 -->
<g id="edge34_Node000011_Node000029" class="edge">
<title>Node11&#45;&gt;Node29</title>
<g id="a_edge34_Node000011_Node000029"><a xlink:title=" ">
<path fill="none" stroke="#63b8ff" d="M1228.17,-139.8C1307.2,-131.27 1451.46,-114.82 1574,-96 1581.39,-94.86 1589.06,-93.61 1596.74,-92.3"/>
<polygon fill="#63b8ff" stroke="#63b8ff" points="1597.57,-95.71 1606.82,-90.54 1596.37,-88.81 1597.57,-95.71"/>
</a>
</g>
</g>
<!-- Node18 -->
<g id="Node000018" class="node">
<title>Node18</title>
<g id="a_Node000018"><a xlink:title=" ">
<polygon fill="#e0e0e0" stroke="#999999" points="921,-19 871,-19 871,0 921,0 921,-19"/>
<text text-anchor="middle" x="896" y="-7" font-family="Helvetica,sans-Serif" font-size="10.00">cstdint</text>
</a>
</g>
</g>
<!-- Node17&#45;&gt;Node18 -->
<g id="edge17_Node000017_Node000018" class="edge">
<title>Node17&#45;&gt;Node18</title>
<g id="a_edge17_Node000017_Node000018"><a xlink:title=" ">
<path fill="none" stroke="#63b8ff" d="M896,-60.3C896,-51.2 896,-39.29 896,-29.4"/>
<polygon fill="#63b8ff" stroke="#63b8ff" points="899.5,-29.34 896,-19.34 892.5,-29.34 899.5,-29.34"/>
</a>
</g>
</g>
<!-- Node19&#45;&gt;Node12 -->
<g id="edge20_Node000019_Node000012" class="edge">
<title>Node19&#45;&gt;Node12</title>
<g id="a_edge20_Node000019_Node000012"><a xlink:title=" ">
<path fill="none" stroke="#63b8ff" d="M701.43,-60.45C666.65,-48.98 618.09,-32.96 585.41,-22.18"/>
<polygon fill="#63b8ff" stroke="#63b8ff" points="586.41,-18.83 575.82,-19.02 584.22,-25.47 586.41,-18.83"/>
</a>
</g>
</g>
<!-- Node20 -->
<g id="Node000020" class="node">
<title>Node20</title>
<g id="a_Node000020"><a xlink:title=" ">
<polygon fill="#e0e0e0" stroke="#999999" points="780.5,-19 707.5,-19 707.5,0 780.5,0 780.5,-19"/>
<text text-anchor="middle" x="744" y="-7" font-family="Helvetica,sans-Serif" font-size="10.00">string_view</text>
</a>
</g>
</g>
<!-- Node19&#45;&gt;Node20 -->
<g id="edge19_Node000019_Node000020" class="edge">
<title>Node19&#45;&gt;Node20</title>
<g id="a_edge19_Node000019_Node000020"><a xlink:title=" ">
<path fill="none" stroke="#63b8ff" d="M744,-60.3C744,-51.2 744,-39.29 744,-29.4"/>
<polygon fill="#63b8ff" stroke="#63b8ff" points="747.5,-29.34 744,-19.34 740.5,-29.34 747.5,-29.34"/>
</a>
</g>
</g>
<!-- Node21&#45;&gt;Node12 -->
<g id="edge22_Node000021_Node000012" class="edge">
<title>Node21&#45;&gt;Node12</title>
<g id="a_edge22_Node000021_Node000012"><a xlink:title=" ">
<path fill="none" stroke="#63b8ff" d="M228.8,-60.49C238.58,-58.57 248.54,-56.68 258,-55 343.26,-39.85 443.09,-25.33 501.17,-17.19"/>
<polygon fill="#63b8ff" stroke="#63b8ff" points="501.75,-20.65 511.17,-15.8 500.78,-13.71 501.75,-20.65"/>
</a>
</g>
</g>
<!-- Node22&#45;&gt;Node13 -->
<g id="edge24_Node000022_Node000013" class="edge">
<title>Node22&#45;&gt;Node13</title>
<g id="a_edge24_Node000022_Node000013"><a xlink:title=" ">
<path fill="none" stroke="#63b8ff" d="M2154.74,-60.45C2136.89,-49.68 2112.38,-34.88 2094.67,-24.19"/>
<polygon fill="#63b8ff" stroke="#63b8ff" points="2096.48,-21.19 2086.11,-19.02 2092.86,-27.18 2096.48,-21.19"/>
</a>
</g>
</g>
<!-- Node23&#45;&gt;Node12 -->
<g id="edge26_Node000023_Node000012" class="edge">
<title>Node23&#45;&gt;Node12</title>
<g id="a_edge26_Node000023_Node000012"><a xlink:title=" ">
<path fill="none" stroke="#63b8ff" d="M401.7,-60.45C435.6,-49.03 482.91,-33.1 514.9,-22.32"/>
<polygon fill="#63b8ff" stroke="#63b8ff" points="516.35,-25.53 524.71,-19.02 514.12,-18.89 516.35,-25.53"/>
</a>
</g>
</g>
<!-- Node24&#45;&gt;Node12 -->
<g id="edge28_Node000024_Node000012" class="edge">
<title>Node24&#45;&gt;Node12</title>
<g id="a_edge28_Node000024_Node000012"><a xlink:title=" ">
<path fill="none" stroke="#63b8ff" d="M550,-60.3C550,-51.2 550,-39.29 550,-29.4"/>
<polygon fill="#63b8ff" stroke="#63b8ff" points="553.5,-29.34 550,-19.34 546.5,-29.34 553.5,-29.34"/>
</a>
</g>
</g>
<!-- Node26&#45;&gt;Node15 -->
<g id="edge31_Node000026_Node000015" class="edge">
<title>Node26&#45;&gt;Node15</title>
<g id="a_edge31_Node000026_Node000015"><a xlink:title=" ">
<path fill="none" stroke="#63b8ff" d="M1810.91,-60.44C1802.58,-58.52 1794.08,-56.64 1786,-55 1703.84,-38.31 1606.57,-23.34 1554.78,-15.75"/>
<polygon fill="#63b8ff" stroke="#63b8ff" points="1555.14,-12.27 1544.74,-14.29 1554.13,-19.2 1555.14,-12.27"/>
</a>
</g>
</g>
<!-- Node30&#45;&gt;Node5 -->
<g id="edge43_Node000030_Node000005" class="edge">
<title>Node30&#45;&gt;Node5</title>
<g id="a_edge43_Node000030_Node000005"><a xlink:title=" ">
<path fill="none" stroke="#63b8ff" d="M3224.91,-197.79C3212.83,-179.98 3189.84,-149.66 3163,-132 3120.38,-103.96 3100.45,-117.1 3054,-96 3050.29,-94.31 3046.46,-92.32 3042.79,-90.26"/>
<polygon fill="#63b8ff" stroke="#63b8ff" points="3044.53,-87.22 3034.14,-85.14 3040.96,-93.24 3044.53,-87.22"/>
</a>
</g>
</g>
<!-- Node30&#45;&gt;Node31 -->
<g id="edge36_Node000030_Node000031" class="edge">
<title>Node30&#45;&gt;Node31</title>
<g id="a_edge36_Node000030_Node000031"><a xlink:title=" ">
<path fill="none" stroke="#63b8ff" d="M3188.57,-197.95C3151.31,-186.43 3099.2,-170.32 3064.34,-159.54"/>
<polygon fill="#63b8ff" stroke="#63b8ff" points="3065.14,-156.13 3054.55,-156.52 3063.07,-162.82 3065.14,-156.13"/>
</a>
</g>
</g>
<!-- Node34 -->
<g id="Node000034" class="node">
<title>Node34</title>
<g id="a_Node000034"><a xlink:title=" ">
<polygon fill="#e0e0e0" stroke="#999999" points="3252,-156.5 3210,-156.5 3210,-137.5 3252,-137.5 3252,-156.5"/>
<text text-anchor="middle" x="3231" y="-144.5" font-family="Helvetica,sans-Serif" font-size="10.00">array</text>
</a>
</g>
</g>
<!-- Node30&#45;&gt;Node34 -->
<g id="edge39_Node000030_Node000034" class="edge">
<title>Node30&#45;&gt;Node34</title>
<g id="a_edge39_Node000030_Node000034"><a xlink:title=" ">
<path fill="none" stroke="#63b8ff" d="M3233.33,-197.8C3232.91,-188.7 3232.35,-176.79 3231.89,-166.9"/>
<polygon fill="#63b8ff" stroke="#63b8ff" points="3235.38,-166.67 3231.41,-156.84 3228.39,-167 3235.38,-166.67"/>
</a>
</g>
</g>
<!-- Node30&#45;&gt;Node35 -->
<g id="edge40_Node000030_Node000035" class="edge">
<title>Node30&#45;&gt;Node35</title>
<g id="a_edge40_Node000030_Node000035"><a xlink:title=" ">
<path fill="none" stroke="#63b8ff" d="M3211.62,-197.95C3194.59,-187.27 3171.29,-172.65 3154.29,-161.98"/>
<polygon fill="#63b8ff" stroke="#63b8ff" points="3155.91,-158.87 3145.57,-156.52 3152.18,-164.8 3155.91,-158.87"/>
</a>
</g>
</g>
<!-- Node36 -->
<g id="Node000036" class="node">
<title>Node36</title>
<g id="a_Node000036"><a xlink:title=" ">
<polygon fill="#e0e0e0" stroke="#999999" points="3321.5,-156.5 3270.5,-156.5 3270.5,-137.5 3321.5,-137.5 3321.5,-156.5"/>
<text text-anchor="middle" x="3296" y="-144.5" font-family="Helvetica,sans-Serif" font-size="10.00">variant</text>
</a>
</g>
</g>
<!-- Node30&#45;&gt;Node36 -->
<g id="edge41_Node000030_Node000036" class="edge">
<title>Node30&#45;&gt;Node36</title>
<g id="a_edge41_Node000030_Node000036"><a xlink:title=" ">
<path fill="none" stroke="#63b8ff" d="M3247.76,-197.8C3257.43,-187.82 3270.37,-174.46 3280.42,-164.09"/>
<polygon fill="#63b8ff" stroke="#63b8ff" points="3282.99,-166.46 3287.43,-156.84 3277.96,-161.59 3282.99,-166.46"/>
</a>
</g>
</g>
<!-- Node30&#45;&gt;Node37 -->
<g id="edge42_Node000030_Node000037" class="edge">
<title>Node30&#45;&gt;Node37</title>
<g id="a_edge42_Node000030_Node000037"><a xlink:title=" ">
<path fill="none" stroke="#63b8ff" d="M3311.79,-200.13C3316.6,-199.4 3321.37,-198.69 3326,-198 3435.73,-181.66 3465.6,-189.79 3573,-162 3575.44,-161.37 3577.95,-160.63 3580.45,-159.83"/>
<polygon fill="#63b8ff" stroke="#63b8ff" points="3581.62,-163.12 3589.9,-156.51 3579.31,-156.52 3581.62,-163.12"/>
</a>
</g>
</g>
<!-- Node38 -->
<g id="Node000038" class="node">
<title>Node38</title>
<g id="a_Node000038"><a xlink:title=" ">
<polygon fill="#e0e0e0" stroke="#999999" points="3390,-156.5 3340,-156.5 3340,-137.5 3390,-137.5 3390,-156.5"/>
<text text-anchor="middle" x="3365" y="-144.5" font-family="Helvetica,sans-Serif" font-size="10.00">format</text>
</a>
</g>
</g>
<!-- Node30&#45;&gt;Node38 -->
<g id="edge44_Node000030_Node000038" class="edge">
<title>Node30&#45;&gt;Node38</title>
<g id="a_edge44_Node000030_Node000038"><a xlink:title=" ">
<path fill="none" stroke="#63b8ff" d="M3262.75,-197.95C3285.32,-186.93 3316.49,-171.7 3338.47,-160.96"/>
<polygon fill="#63b8ff" stroke="#63b8ff" points="3340.12,-164.05 3347.57,-156.52 3337.04,-157.76 3340.12,-164.05"/>
</a>
</g>
</g>
<!-- Node39 -->
<g id="Node000039" class="node">
<title>Node39</title>
<g id="a_Node000039"><a xlink:title=" ">
<polygon fill="#e0e0e0" stroke="#999999" points="3563.5,-162 3408.5,-162 3408.5,-132 3563.5,-132 3563.5,-162"/>
<text text-anchor="start" x="3416.5" y="-150" font-family="Helvetica,sans-Serif" font-size="10.00">Hermes/Endpoint/IpEndpoint</text>
<text text-anchor="middle" x="3486" y="-139" font-family="Helvetica,sans-Serif" font-size="10.00">/IpAddress.tpp</text>
</a>
</g>
</g>
<!-- Node30&#45;&gt;Node39 -->
<g id="edge45_Node000030_Node000039" class="edge">
<title>Node30&#45;&gt;Node39</title>
<g id="a_edge45_Node000030_Node000039"><a xlink:title=" ">
<path fill="none" stroke="#63b8ff" d="M3289.3,-197.95C3328.12,-188.1 3380.17,-174.88 3420.98,-164.51"/>
<polygon fill="#63b8ff" stroke="#63b8ff" points="3422,-167.87 3430.83,-162.01 3420.27,-161.08 3422,-167.87"/>
</a>
</g>
</g>
<!-- Node32 -->
<g id="Node000032" class="node">
<title>Node32</title>
<g id="a_Node000032"><a xlink:title=" ">
<polygon fill="#e0e0e0" stroke="#999999" points="3107.5,-85 3062.5,-85 3062.5,-66 3107.5,-66 3107.5,-85"/>
<text text-anchor="middle" x="3085" y="-73" font-family="Helvetica,sans-Serif" font-size="10.00">utility</text>
</a>
</g>
</g>
<!-- Node31&#45;&gt;Node32 -->
<g id="edge37_Node000031_Node000032" class="edge">
<title>Node31&#45;&gt;Node32</title>
<g id="a_edge37_Node000031_Node000032"><a xlink:title=" ">
<path fill="none" stroke="#63b8ff" d="M3034.11,-137.48C3043.33,-126.43 3059.6,-106.93 3071.27,-92.96"/>
<polygon fill="#63b8ff" stroke="#63b8ff" points="3074.11,-95.01 3077.83,-85.09 3068.74,-90.53 3074.11,-95.01"/>
</a>
</g>
</g>
<!-- Node33 -->
<g id="Node000033" class="node">
<title>Node33</title>
<g id="a_Node000033"><a xlink:title=" ">
<polygon fill="#e0e0e0" stroke="#999999" points="3190.5,-85 3125.5,-85 3125.5,-66 3190.5,-66 3190.5,-85"/>
<text text-anchor="middle" x="3158" y="-73" font-family="Helvetica,sans-Serif" font-size="10.00">functional</text>
</a>
</g>
</g>
<!-- Node31&#45;&gt;Node33 -->
<g id="edge38_Node000031_Node000033" class="edge">
<title>Node31&#45;&gt;Node33</title>
<g id="a_edge38_Node000031_Node000033"><a xlink:title=" ">
<path fill="none" stroke="#63b8ff" d="M3043.06,-137.48C3065.46,-125.6 3106.28,-103.94 3132.76,-89.89"/>
<polygon fill="#63b8ff" stroke="#63b8ff" points="3134.61,-92.87 3141.81,-85.09 3131.33,-86.69 3134.61,-92.87"/>
</a>
</g>
</g>
</g>
</svg>
