<?xml version="1.0" encoding="UTF-8" standalone="no"?>
<!DOCTYPE svg PUBLIC "-//W3C//DTD SVG 1.1//EN"
 "http://www.w3.org/Graphics/SVG/1.1/DTD/svg11.dtd">
<!-- Generated by graphviz version 2.43.0 (0)
 -->
<!-- Title: include/Hermes/Endpoint/IpEndpoint/IpEndpoint.hpp Pages: 1 -->
<svg width="3507pt" height="302pt"
 viewBox="0.00 0.00 3507.00 302.00" xmlns="http://www.w3.org/2000/svg" xmlns:xlink="http://www.w3.org/1999/xlink">
<g id="graph0" class="graph" transform="scale(1 1) rotate(0) translate(4 298)">
<title>include/Hermes/Endpoint/IpEndpoint/IpEndpoint.hpp</title>
<!-- Node1 -->
<g id="Node000001" class="node">
<title>Node1</title>
<g id="a_Node000001"><a xlink:title=" ">
<polygon fill="#999999" stroke="#666666" points="3115.5,-294 2968.5,-294 2968.5,-264 3115.5,-264 3115.5,-294"/>
<text text-anchor="start" x="2976.5" y="-282" font-family="Helvetica,sans-Serif" font-size="10.00">include/Hermes/Endpoint</text>
<text text-anchor="middle" x="3042" y="-271" font-family="Helvetica,sans-Serif" font-size="10.00">/IpEndpoint/IpEndpoint.hpp</text>
</a>
</g>
</g>
<!-- Node2 -->
<g id="Node000002" class="node">
<title>Node2</title>
<g id="a_Node000002"><a xlink:href="_endpoint_concept_8hpp.html" target="_top" xlink:title=" ">
<polygon fill="white" stroke="#666666" points="2695,-228 2563,-228 2563,-198 2695,-198 2695,-228"/>
<text text-anchor="start" x="2571" y="-216" font-family="Helvetica,sans-Serif" font-size="10.00">Hermes/Endpoint/_base</text>
<text text-anchor="middle" x="2629" y="-205" font-family="Helvetica,sans-Serif" font-size="10.00">/EndpointConcept.hpp</text>
</a>
</g>
</g>
<!-- Node1&#45;&gt;Node2 -->
<g id="edge1_Node000001_Node000002" class="edge">
<title>Node1&#45;&gt;Node2</title>
<g id="a_edge1_Node000001_Node000002"><a xlink:title=" ">
<path fill="none" stroke="#63b8ff" d="M2968.16,-266.56C2894.04,-255.07 2780.37,-237.46 2705.36,-225.83"/>
<polygon fill="#63b8ff" stroke="#63b8ff" points="2705.46,-222.31 2695.04,-224.23 2704.39,-229.22 2705.46,-222.31"/>
</a>
</g>
</g>
<!-- Node30 -->
<g id="Node000030" class="node">
<title>Node30</title>
<g id="a_Node000030"><a xlink:href="_ip_address_8hpp.html" target="_top" xlink:title=" ">
<polygon fill="white" stroke="#666666" points="3172.5,-228 3017.5,-228 3017.5,-198 3172.5,-198 3172.5,-228"/>
<text text-anchor="start" x="3025.5" y="-216" font-family="Helvetica,sans-Serif" font-size="10.00">Hermes/Endpoint/IpEndpoint</text>
<text text-anchor="middle" x="3095" y="-205" font-family="Helvetica,sans-Serif" font-size="10.00">/IpAddress.hpp</text>
</a>
</g>
</g>
<!-- Node1&#45;&gt;Node30 -->
<g id="edge35_Node000001_Node000030" class="edge">
<title>Node1&#45;&gt;Node30</title>
<g id="a_edge35_Node000001_Node000030"><a xlink:title=" ">
<path fill="none" stroke="#63b8ff" d="M3053.76,-263.8C3060.56,-255.59 3069.24,-245.1 3076.89,-235.87"/>
<polygon fill="#63b8ff" stroke="#63b8ff" points="3079.59,-238.1 3083.27,-228.16 3074.2,-233.63 3079.59,-238.1"/>
</a>
</g>
</g>
<!-- Node31 -->
<g id="Node000031" class="node">
<title>Node31</title>
<g id="a_Node000031"><a xlink:href="_hash_8hpp.html" target="_top" xlink:title=" ">
<polygon fill="white" stroke="#666666" points="2952.5,-156.5 2823.5,-156.5 2823.5,-137.5 2952.5,-137.5 2952.5,-156.5"/>
<text text-anchor="middle" x="2888" y="-144.5" font-family="Helvetica,sans-Serif" font-size="10.00">Hermes/Utils/Hash.hpp</text>
</a>
</g>
</g>
<!-- Node1&#45;&gt;Node31 -->
<g id="edge46_Node000001_Node000031" class="edge">
<title>Node1&#45;&gt;Node31</title>
<g id="a_edge46_Node000001_Node000031"><a xlink:title=" ">
<path fill="none" stroke="#63b8ff" d="M3025.23,-263.84C2996.14,-239.28 2936.55,-188.99 2906.38,-163.52"/>
<polygon fill="#63b8ff" stroke="#63b8ff" points="2908.26,-160.52 2898.36,-156.75 2903.75,-165.87 2908.26,-160.52"/>
</a>
</g>
</g>
<!-- Node35 -->
<g id="Node000035" class="node">
<title>Node35</title>
<g id="a_Node000035"><a xlink:title=" ">
<polygon fill="#e0e0e0" stroke="#999999" points="3015,-156.5 2971,-156.5 2971,-137.5 3015,-137.5 3015,-156.5"/>
<text text-anchor="middle" x="2993" y="-144.5" font-family="Helvetica,sans-Serif" font-size="10.00">string</text>
</a>
</g>
</g>
<!-- Node1&#45;&gt;Node35 -->
<g id="edge48_Node000001_Node000035" class="edge">
<title>Node1&#45;&gt;Node35</title>
<g id="a_edge48_Node000001_Node000035"><a xlink:title=" ">
<path fill="none" stroke="#63b8ff" d="M3030.59,-263.96C3023.36,-254.37 3014.38,-241.08 3009,-228 3000.77,-207.99 2996.66,-183.38 2994.69,-166.78"/>
<polygon fill="#63b8ff" stroke="#63b8ff" points="2998.16,-166.31 2993.64,-156.72 2991.2,-167.03 2998.16,-166.31"/>
</a>
</g>
</g>
<!-- Node37 -->
<g id="Node000037" class="node">
<title>Node37</title>
<g id="a_Node000037"><a xlink:title=" ">
<polygon fill="#e0e0e0" stroke="#999999" points="3499,-156.5 3443,-156.5 3443,-137.5 3499,-137.5 3499,-156.5"/>
<text text-anchor="middle" x="3471" y="-144.5" font-family="Helvetica,sans-Serif" font-size="10.00">optional</text>
</a>
</g>
</g>
<!-- Node1&#45;&gt;Node37 -->
<g id="edge47_Node000001_Node000037" class="edge">
<title>Node1&#45;&gt;Node37</title>
<g id="a_edge47_Node000001_Node000037"><a xlink:title=" ">
<path fill="none" stroke="#63b8ff" d="M3093.2,-263.95C3120.45,-255.44 3154.02,-243.26 3182,-228 3201.2,-217.53 3200.96,-206.75 3221,-198 3308.99,-159.59 3341.33,-187.11 3434,-162 3436.29,-161.38 3438.64,-160.67 3440.99,-159.91"/>
<polygon fill="#63b8ff" stroke="#63b8ff" points="3442.22,-163.19 3450.49,-156.57 3439.9,-156.58 3442.22,-163.19"/>
</a>
</g>
</g>
<!-- Node40 -->
<g id="Node000040" class="node">
<title>Node40</title>
<g id="a_Node000040"><a xlink:title=" ">
<polygon fill="#e0e0e0" stroke="#999999" points="3384.5,-228 3229.5,-228 3229.5,-198 3384.5,-198 3384.5,-228"/>
<text text-anchor="start" x="3237.5" y="-216" font-family="Helvetica,sans-Serif" font-size="10.00">Hermes/Endpoint/IpEndpoint</text>
<text text-anchor="middle" x="3307" y="-205" font-family="Helvetica,sans-Serif" font-size="10.00">/IpEndpoint.tpp</text>
</a>
</g>
</g>
<!-- Node1&#45;&gt;Node40 -->
<g id="edge49_Node000001_Node000040" class="edge">
<title>Node1&#45;&gt;Node40</title>
<g id="a_edge49_Node000001_Node000040"><a xlink:title=" ">
<path fill="none" stroke="#63b8ff" d="M3100.16,-263.95C3141.15,-254.06 3196.17,-240.77 3239.16,-230.38"/>
<polygon fill="#63b8ff" stroke="#63b8ff" points="3240.08,-233.76 3248.98,-228.01 3238.44,-226.96 3240.08,-233.76"/>
</a>
</g>
</g>
<!-- Node3 -->
<g id="Node000003" class="node">
<title>Node3</title>
<g id="a_Node000003"><a xlink:href="_connection_error_enum_8hpp.html" target="_top" xlink:title=" ">
<polygon fill="white" stroke="#666666" points="2712.5,-162 2545.5,-162 2545.5,-132 2712.5,-132 2712.5,-162"/>
<text text-anchor="start" x="2553.5" y="-150" font-family="Helvetica,sans-Serif" font-size="10.00">Hermes/_base/ConnectionError</text>
<text text-anchor="middle" x="2629" y="-139" font-family="Helvetica,sans-Serif" font-size="10.00">Enum.hpp</text>
</a>
</g>
</g>
<!-- Node2&#45;&gt;Node3 -->
<g id="edge2_Node000002_Node000003" class="edge">
<title>Node2&#45;&gt;Node3</title>
<g id="a_edge2_Node000002_Node000003"><a xlink:title=" ">
<path fill="none" stroke="#63b8ff" d="M2629,-197.8C2629,-190.34 2629,-180.99 2629,-172.41"/>
<polygon fill="#63b8ff" stroke="#63b8ff" points="2632.5,-172.16 2629,-162.16 2625.5,-172.16 2632.5,-172.16"/>
</a>
</g>
</g>
<!-- Node9 -->
<g id="Node000009" class="node">
<title>Node9</title>
<g id="a_Node000009"><a xlink:href="_os_api_8hpp.html" target="_top" xlink:title=" ">
<polygon fill="white" stroke="#666666" points="1268,-162 1150,-162 1150,-132 1268,-132 1268,-162"/>
<text text-anchor="start" x="1158" y="-150" font-family="Helvetica,sans-Serif" font-size="10.00">Hermes/_base/OsApi</text>
<text text-anchor="middle" x="1209" y="-139" font-family="Helvetica,sans-Serif" font-size="10.00">/OsApi.hpp</text>
</a>
</g>
</g>
<!-- Node2&#45;&gt;Node9 -->
<g id="edge8_Node000002_Node000009" class="edge">
<title>Node2&#45;&gt;Node9</title>
<g id="a_edge8_Node000002_Node000009"><a xlink:title=" ">
<path fill="none" stroke="#63b8ff" d="M2562.89,-209.02C2325.93,-198.34 1520.46,-162.04 1278.37,-151.13"/>
<polygon fill="#63b8ff" stroke="#63b8ff" points="1278.44,-147.63 1268.29,-150.67 1278.13,-154.62 1278.44,-147.63"/>
</a>
</g>
</g>
<!-- Node4 -->
<g id="Node000004" class="node">
<title>Node4</title>
<g id="a_Node000004"><a xlink:title=" ">
<polygon fill="#e0e0e0" stroke="#999999" points="2490,-85 2428,-85 2428,-66 2490,-66 2490,-85"/>
<text text-anchor="middle" x="2459" y="-73" font-family="Helvetica,sans-Serif" font-size="10.00">expected</text>
</a>
</g>
</g>
<!-- Node3&#45;&gt;Node4 -->
<g id="edge3_Node000003_Node000004" class="edge">
<title>Node3&#45;&gt;Node4</title>
<g id="a_edge3_Node000003_Node000004"><a xlink:title=" ">
<path fill="none" stroke="#63b8ff" d="M2589.96,-131.99C2563.96,-122.41 2529.16,-109.12 2499,-96 2494.46,-94.02 2489.68,-91.81 2485.07,-89.61"/>
<polygon fill="#63b8ff" stroke="#63b8ff" points="2486.5,-86.41 2475.98,-85.18 2483.43,-92.71 2486.5,-86.41"/>
</a>
</g>
</g>
<!-- Node5 -->
<g id="Node000005" class="node">
<title>Node5</title>
<g id="a_Node000005"><a xlink:title=" ">
<polygon fill="#e0e0e0" stroke="#999999" points="2941.5,-85 2894.5,-85 2894.5,-66 2941.5,-66 2941.5,-85"/>
<text text-anchor="middle" x="2918" y="-73" font-family="Helvetica,sans-Serif" font-size="10.00">vector</text>
</a>
</g>
</g>
<!-- Node3&#45;&gt;Node5 -->
<g id="edge4_Node000003_Node000005" class="edge">
<title>Node3&#45;&gt;Node5</title>
<g id="a_edge4_Node000003_Node000005"><a xlink:title=" ">
<path fill="none" stroke="#63b8ff" d="M2712.69,-137.35C2763.98,-130.2 2830.27,-117.6 2886,-96 2889.85,-94.51 2893.75,-92.56 2897.45,-90.47"/>
<polygon fill="#63b8ff" stroke="#63b8ff" points="2899.39,-93.39 2906.07,-85.17 2895.72,-87.43 2899.39,-93.39"/>
</a>
</g>
</g>
<!-- Node6 -->
<g id="Node000006" class="node">
<title>Node6</title>
<g id="a_Node000006"><a xlink:title=" ">
<polygon fill="#e0e0e0" stroke="#999999" points="2548,-85 2508,-85 2508,-66 2548,-66 2548,-85"/>
<text text-anchor="middle" x="2528" y="-73" font-family="Helvetica,sans-Serif" font-size="10.00">span</text>
</a>
</g>
</g>
<!-- Node3&#45;&gt;Node6 -->
<g id="edge5_Node000003_Node000006" class="edge">
<title>Node3&#45;&gt;Node6</title>
<g id="a_edge5_Node000003_Node000006"><a xlink:title=" ">
<path fill="none" stroke="#63b8ff" d="M2608.56,-131.94C2591.18,-119.98 2566.34,-102.88 2548.85,-90.85"/>
<polygon fill="#63b8ff" stroke="#63b8ff" points="2550.67,-87.85 2540.45,-85.07 2546.71,-93.62 2550.67,-87.85"/>
</a>
</g>
</g>
<!-- Node7 -->
<g id="Node000007" class="node">
<title>Node7</title>
<g id="a_Node000007"><a xlink:title=" ">
<polygon fill="#e0e0e0" stroke="#999999" points="2691.5,-85 2566.5,-85 2566.5,-66 2691.5,-66 2691.5,-85"/>
<text text-anchor="middle" x="2629" y="-73" font-family="Helvetica,sans-Serif" font-size="10.00">stdexec/execution.hpp</text>
</a>
</g>
</g>
<!-- Node3&#45;&gt;Node7 -->
<g id="edge6_Node000003_Node000007" class="edge">
<title>Node3&#45;&gt;Node7</title>
<g id="a_edge6_Node000003_Node000007"><a xlink:title=" ">
<path fill="none" stroke="#63b8ff" d="M2629,-131.94C2629,-121.46 2629,-107.05 2629,-95.55"/>
<polygon fill="#63b8ff" stroke="#63b8ff" points="2632.5,-95.27 2629,-85.27 2625.5,-95.27 2632.5,-95.27"/>
</a>
</g>
</g>
<!-- Node8 -->
<g id="Node000008" class="node">
<title>Node8</title>
<g id="a_Node000008"><a xlink:title=" ">
<polygon fill="#e0e0e0" stroke="#999999" points="2876.5,-90.5 2709.5,-90.5 2709.5,-60.5 2876.5,-60.5 2876.5,-90.5"/>
<text text-anchor="start" x="2717.5" y="-78.5" font-family="Helvetica,sans-Serif" font-size="10.00">Hermes/_base/ConnectionError</text>
<text text-anchor="middle" x="2793" y="-67.5" font-family="Helvetica,sans-Serif" font-size="10.00">Enum.tpp</text>
</a>
</g>
</g>
<!-- Node3&#45;&gt;Node8 -->
<g id="edge7_Node000003_Node000008" class="edge">
<title>Node3&#45;&gt;Node8</title>
<g id="a_edge7_Node000003_Node000008"><a xlink:title=" ">
<path fill="none" stroke="#63b8ff" d="M2662.19,-131.94C2687.64,-121.15 2722.96,-106.18 2750.48,-94.52"/>
<polygon fill="#63b8ff" stroke="#63b8ff" points="2752.02,-97.67 2759.86,-90.54 2749.29,-91.22 2752.02,-97.67"/>
</a>
</g>
</g>
<!-- Node10 -->
<g id="Node000010" class="node">
<title>Node10</title>
<g id="a_Node000010"><a xlink:title=" ">
<polygon fill="#e0e0e0" stroke="#999999" points="979.5,-19 902.5,-19 902.5,0 979.5,0 979.5,-19"/>
<text text-anchor="middle" x="941" y="-7" font-family="Helvetica,sans-Serif" font-size="10.00">sys/socket.h</text>
</a>
</g>
</g>
<!-- Node9&#45;&gt;Node10 -->
<g id="edge9_Node000009_Node000010" class="edge">
<title>Node9&#45;&gt;Node10</title>
<g id="a_edge9_Node000009_Node000010"><a xlink:title=" ">
<path fill="none" stroke="#63b8ff" d="M1149.88,-146.67C1058.59,-146.3 889.89,-139.56 852,-96 840.04,-82.25 842.42,-70.5 852,-55 861.49,-39.64 878.06,-29.41 894.35,-22.68"/>
<polygon fill="#63b8ff" stroke="#63b8ff" points="895.73,-25.9 903.85,-19.1 893.26,-19.35 895.73,-25.9"/>
</a>
</g>
</g>
<!-- Node11 -->
<g id="Node000011" class="node">
<title>Node11</title>
<g id="a_Node000011"><a xlink:title=" ">
<polygon fill="#e0e0e0" stroke="#999999" points="406,-19 334,-19 334,0 406,0 406,-19"/>
<text text-anchor="middle" x="370" y="-7" font-family="Helvetica,sans-Serif" font-size="10.00">netinet/in.h</text>
</a>
</g>
</g>
<!-- Node9&#45;&gt;Node11 -->
<g id="edge10_Node000009_Node000011" class="edge">
<title>Node9&#45;&gt;Node11</title>
<g id="a_edge10_Node000009_Node000011"><a xlink:title=" ">
<path fill="none" stroke="#63b8ff" d="M1149.85,-144.57C982.47,-140.19 513.59,-125.4 451,-96 450.47,-95.75 408.77,-51.6 385.42,-26.85"/>
<polygon fill="#63b8ff" stroke="#63b8ff" points="387.7,-24.17 378.29,-19.29 382.61,-28.97 387.7,-24.17"/>
</a>
</g>
</g>
<!-- Node12 -->
<g id="Node000012" class="node">
<title>Node12</title>
<g id="a_Node000012"><a xlink:title=" ">
<polygon fill="#e0e0e0" stroke="#999999" points="529.5,-85 460.5,-85 460.5,-66 529.5,-66 529.5,-85"/>
<text text-anchor="middle" x="495" y="-73" font-family="Helvetica,sans-Serif" font-size="10.00">arpa/inet.h</text>
</a>
</g>
</g>
<!-- Node9&#45;&gt;Node12 -->
<g id="edge11_Node000009_Node000012" class="edge">
<title>Node9&#45;&gt;Node12</title>
<g id="a_edge11_Node000009_Node000012"><a xlink:title=" ">
<path fill="none" stroke="#63b8ff" d="M1149.92,-144.25C1008.37,-139.62 653.02,-125.38 538,-96 531.89,-94.44 525.58,-92.06 519.73,-89.49"/>
<polygon fill="#63b8ff" stroke="#63b8ff" points="520.98,-86.21 510.44,-85.1 517.99,-92.54 520.98,-86.21"/>
</a>
</g>
</g>
<!-- Node13 -->
<g id="Node000013" class="node">
<title>Node13</title>
<g id="a_Node000013"><a xlink:title=" ">
<polygon fill="#e0e0e0" stroke="#999999" points="1590.5,-19 1537.5,-19 1537.5,0 1590.5,0 1590.5,-19"/>
<text text-anchor="middle" x="1564" y="-7" font-family="Helvetica,sans-Serif" font-size="10.00">netdb.h</text>
</a>
</g>
</g>
<!-- Node9&#45;&gt;Node13 -->
<g id="edge12_Node000009_Node000013" class="edge">
<title>Node9&#45;&gt;Node13</title>
<g id="a_edge12_Node000009_Node000013"><a xlink:title=" ">
<path fill="none" stroke="#63b8ff" d="M1268.16,-140.59C1340.37,-133.14 1457.49,-118.1 1495,-96 1509.59,-87.4 1537.13,-49.61 1552.64,-27.25"/>
<polygon fill="#63b8ff" stroke="#63b8ff" points="1555.53,-29.23 1558.3,-19 1549.76,-25.27 1555.53,-29.23"/>
</a>
</g>
</g>
<!-- Node14 -->
<g id="Node000014" class="node">
<title>Node14</title>
<g id="a_Node000014"><a xlink:title=" ">
<polygon fill="#e0e0e0" stroke="#999999" points="806,-85 750,-85 750,-66 806,-66 806,-85"/>
<text text-anchor="middle" x="778" y="-73" font-family="Helvetica,sans-Serif" font-size="10.00">unistd.h</text>
</a>
</g>
</g>
<!-- Node9&#45;&gt;Node14 -->
<g id="edge13_Node000009_Node000014" class="edge">
<title>Node9&#45;&gt;Node14</title>
<g id="a_edge13_Node000009_Node000014"><a xlink:title=" ">
<path fill="none" stroke="#63b8ff" d="M1149.87,-144.02C1072.63,-140.17 933.82,-128.88 820,-96 814.3,-94.35 808.4,-92.04 802.89,-89.58"/>
<polygon fill="#63b8ff" stroke="#63b8ff" points="804.04,-86.25 793.51,-85.09 801.03,-92.56 804.04,-86.25"/>
</a>
</g>
</g>
<!-- Node15 -->
<g id="Node000015" class="node">
<title>Node15</title>
<g id="a_Node000015"><a xlink:href="_types_8hpp.html" target="_top" xlink:title=" ">
<polygon fill="white" stroke="#666666" points="1486,-90.5 1368,-90.5 1368,-60.5 1486,-60.5 1486,-90.5"/>
<text text-anchor="start" x="1376" y="-78.5" font-family="Helvetica,sans-Serif" font-size="10.00">Hermes/_base/OsApi</text>
<text text-anchor="middle" x="1427" y="-67.5" font-family="Helvetica,sans-Serif" font-size="10.00">/Types.hpp</text>
</a>
</g>
</g>
<!-- Node9&#45;&gt;Node15 -->
<g id="edge14_Node000009_Node000015" class="edge">
<title>Node9&#45;&gt;Node15</title>
<g id="a_edge14_Node000009_Node000015"><a xlink:title=" ">
<path fill="none" stroke="#63b8ff" d="M1253.12,-131.94C1287.83,-120.87 1336.36,-105.4 1373.33,-93.61"/>
<polygon fill="#63b8ff" stroke="#63b8ff" points="1374.49,-96.92 1382.95,-90.54 1372.36,-90.25 1374.49,-96.92"/>
</a>
</g>
</g>
<!-- Node17 -->
<g id="Node000017" class="node">
<title>Node17</title>
<g id="a_Node000017"><a xlink:href="_conversion_and_literals_8hpp.html" target="_top" xlink:title=" ">
<polygon fill="white" stroke="#666666" points="2024,-90.5 1874,-90.5 1874,-60.5 2024,-60.5 2024,-90.5"/>
<text text-anchor="start" x="1882" y="-78.5" font-family="Helvetica,sans-Serif" font-size="10.00">Hermes/_base/OsApi</text>
<text text-anchor="middle" x="1949" y="-67.5" font-family="Helvetica,sans-Serif" font-size="10.00">/ConversionAndLiterals.hpp</text>
</a>
</g>
</g>
<!-- Node9&#45;&gt;Node17 -->
<g id="edge16_Node000009_Node000017" class="edge">
<title>Node9&#45;&gt;Node17</title>
<g id="a_edge16_Node000009_Node000017"><a xlink:title=" ">
<path fill="none" stroke="#63b8ff" d="M1268.15,-144.5C1383.54,-140.92 1646.54,-129.48 1865,-96 1871.22,-95.05 1877.65,-93.88 1884.07,-92.6"/>
<polygon fill="#63b8ff" stroke="#63b8ff" points="1885.03,-95.97 1894.11,-90.5 1883.6,-89.12 1885.03,-95.97"/>
</a>
</g>
</g>
<!-- Node19 -->
<g id="Node000019" class="node">
<title>Node19</title>
<g id="a_Node000019"><a xlink:href="_macros_8hpp.html" target="_top" xlink:title=" ">
<polygon fill="white" stroke="#666666" points="1350,-90.5 1232,-90.5 1232,-60.5 1350,-60.5 1350,-90.5"/>
<text text-anchor="start" x="1240" y="-78.5" font-family="Helvetica,sans-Serif" font-size="10.00">Hermes/_base/OsApi</text>
<text text-anchor="middle" x="1291" y="-67.5" font-family="Helvetica,sans-Serif" font-size="10.00">/Macros.hpp</text>
</a>
</g>
</g>
<!-- Node9&#45;&gt;Node19 -->
<g id="edge18_Node000009_Node000019" class="edge">
<title>Node9&#45;&gt;Node19</title>
<g id="a_edge18_Node000009_Node000019"><a xlink:title=" ">
<path fill="none" stroke="#63b8ff" d="M1225.59,-131.94C1237.38,-121.95 1253.38,-108.38 1266.61,-97.17"/>
<polygon fill="#63b8ff" stroke="#63b8ff" points="1269.07,-99.68 1274.43,-90.54 1264.54,-94.34 1269.07,-99.68"/>
</a>
</g>
</g>
<!-- Node21 -->
<g id="Node000021" class="node">
<title>Node21</title>
<g id="a_Node000021"><a xlink:href="_address_family_enum_8hpp.html" target="_top" xlink:title=" ">
<polygon fill="white" stroke="#666666" points="1214,-90.5 1038,-90.5 1038,-60.5 1214,-60.5 1214,-90.5"/>
<text text-anchor="start" x="1046" y="-78.5" font-family="Helvetica,sans-Serif" font-size="10.00">Hermes/_base/OsApi</text>
<text text-anchor="middle" x="1126" y="-67.5" font-family="Helvetica,sans-Serif" font-size="10.00">/Enums/AddressFamilyEnum.hpp</text>
</a>
</g>
</g>
<!-- Node9&#45;&gt;Node21 -->
<g id="edge21_Node000009_Node000021" class="edge">
<title>Node9&#45;&gt;Node21</title>
<g id="a_edge21_Node000009_Node000021"><a xlink:title=" ">
<path fill="none" stroke="#63b8ff" d="M1192.2,-131.94C1180.28,-121.95 1164.07,-108.38 1150.68,-97.17"/>
<polygon fill="#63b8ff" stroke="#63b8ff" points="1152.69,-94.28 1142.77,-90.54 1148.19,-99.65 1152.69,-94.28"/>
</a>
</g>
</g>
<!-- Node22 -->
<g id="Node000022" class="node">
<title>Node22</title>
<g id="a_Node000022"><a xlink:href="_protocol_base_type_enum_8hpp.html" target="_top" xlink:title=" ">
<polygon fill="white" stroke="#666666" points="403.5,-90.5 212.5,-90.5 212.5,-60.5 403.5,-60.5 403.5,-90.5"/>
<text text-anchor="start" x="220.5" y="-78.5" font-family="Helvetica,sans-Serif" font-size="10.00">Hermes/_base/OsApi</text>
<text text-anchor="middle" x="308" y="-67.5" font-family="Helvetica,sans-Serif" font-size="10.00">/Enums/ProtocolBaseTypeEnum.hpp</text>
</a>
</g>
</g>
<!-- Node9&#45;&gt;Node22 -->
<g id="edge23_Node000009_Node000022" class="edge">
<title>Node9&#45;&gt;Node22</title>
<g id="a_edge23_Node000009_Node000022"><a xlink:title=" ">
<path fill="none" stroke="#63b8ff" d="M1149.75,-144.53C1017.87,-140.75 690.22,-128.63 418,-96 409.02,-94.92 399.66,-93.59 390.36,-92.13"/>
<polygon fill="#63b8ff" stroke="#63b8ff" points="390.74,-88.65 380.31,-90.51 389.62,-95.56 390.74,-88.65"/>
</a>
</g>
</g>
<!-- Node23 -->
<g id="Node000023" class="node">
<title>Node23</title>
<g id="a_Node000023"><a xlink:href="_socket_shutdown_enum_8hpp.html" target="_top" xlink:title=" ">
<polygon fill="white" stroke="#666666" points="732.5,-90.5 547.5,-90.5 547.5,-60.5 732.5,-60.5 732.5,-90.5"/>
<text text-anchor="start" x="555.5" y="-78.5" font-family="Helvetica,sans-Serif" font-size="10.00">Hermes/_base/OsApi</text>
<text text-anchor="middle" x="640" y="-67.5" font-family="Helvetica,sans-Serif" font-size="10.00">/Enums/SocketShutdownEnum.hpp</text>
</a>
</g>
</g>
<!-- Node9&#45;&gt;Node23 -->
<g id="edge25_Node000009_Node000023" class="edge">
<title>Node9&#45;&gt;Node23</title>
<g id="a_edge25_Node000009_Node000023"><a xlink:title=" ">
<path fill="none" stroke="#63b8ff" d="M1149.69,-141.28C1060.66,-133.82 887.27,-117.89 741,-96 733.69,-94.91 726.11,-93.66 718.53,-92.33"/>
<polygon fill="#63b8ff" stroke="#63b8ff" points="719.05,-88.87 708.59,-90.55 717.82,-95.76 719.05,-88.87"/>
</a>
</g>
</g>
<!-- Node24 -->
<g id="Node000024" class="node">
<title>Node24</title>
<g id="a_Node000024"><a xlink:href="_socket_type_enum_8hpp.html" target="_top" xlink:title=" ">
<polygon fill="white" stroke="#666666" points="1020.5,-90.5 861.5,-90.5 861.5,-60.5 1020.5,-60.5 1020.5,-90.5"/>
<text text-anchor="start" x="869.5" y="-78.5" font-family="Helvetica,sans-Serif" font-size="10.00">Hermes/_base/OsApi</text>
<text text-anchor="middle" x="941" y="-67.5" font-family="Helvetica,sans-Serif" font-size="10.00">/Enums/SocketTypeEnum.hpp</text>
</a>
</g>
</g>
<!-- Node9&#45;&gt;Node24 -->
<g id="edge27_Node000009_Node000024" class="edge">
<title>Node9&#45;&gt;Node24</title>
<g id="a_edge27_Node000009_Node000024"><a xlink:title=" ">
<path fill="none" stroke="#63b8ff" d="M1154.77,-131.94C1111.45,-120.7 1050.64,-104.93 1004.95,-93.09"/>
<polygon fill="#63b8ff" stroke="#63b8ff" points="1005.71,-89.67 995.15,-90.54 1003.95,-96.44 1005.71,-89.67"/>
</a>
</g>
</g>
<!-- Node25 -->
<g id="Node000025" class="node">
<title>Node25</title>
<g id="a_Node000025"><a xlink:href="_linux_2_encrypt_status_enum_8hpp.html" target="_top" xlink:title=" ">
<polygon fill="white" stroke="#666666" points="1856,-96 1704,-96 1704,-55 1856,-55 1856,-96"/>
<text text-anchor="start" x="1712" y="-84" font-family="Helvetica,sans-Serif" font-size="10.00">Hermes/_base/OsApi</text>
<text text-anchor="start" x="1712" y="-73" font-family="Helvetica,sans-Serif" font-size="10.00">/Enums/Linux/EncryptStatus</text>
<text text-anchor="middle" x="1780" y="-62" font-family="Helvetica,sans-Serif" font-size="10.00">Enum.hpp</text>
</a>
</g>
</g>
<!-- Node9&#45;&gt;Node25 -->
<g id="edge29_Node000009_Node000025" class="edge">
<title>Node9&#45;&gt;Node25</title>
<g id="a_edge29_Node000009_Node000025"><a xlink:title=" ">
<path fill="none" stroke="#63b8ff" d="M1268.04,-142.28C1357.93,-136.09 1534.63,-121.91 1693.67,-96.12"/>
<polygon fill="#63b8ff" stroke="#63b8ff" points="1694.33,-99.56 1703.63,-94.49 1693.2,-92.65 1694.33,-99.56"/>
</a>
</g>
</g>
<!-- Node26 -->
<g id="Node000026" class="node">
<title>Node26</title>
<g id="a_Node000026"><a xlink:href="_name_info_flags_8hpp.html" target="_top" xlink:title=" ">
<polygon fill="white" stroke="#666666" points="1686,-90.5 1542,-90.5 1542,-60.5 1686,-60.5 1686,-90.5"/>
<text text-anchor="start" x="1550" y="-78.5" font-family="Helvetica,sans-Serif" font-size="10.00">Hermes/_base/OsApi</text>
<text text-anchor="middle" x="1614" y="-67.5" font-family="Helvetica,sans-Serif" font-size="10.00">/Flags/NameInfoFlags.hpp</text>
</a>
</g>
</g>
<!-- Node9&#45;&gt;Node26 -->
<g id="edge30_Node000009_Node000026" class="edge">
<title>Node9&#45;&gt;Node26</title>
<g id="a_edge30_Node000009_Node000026"><a xlink:title=" ">
<path fill="none" stroke="#63b8ff" d="M1268,-137.97C1332.18,-128.95 1437.71,-113.29 1528,-96 1533.36,-94.97 1538.89,-93.86 1544.44,-92.69"/>
<polygon fill="#63b8ff" stroke="#63b8ff" points="1545.38,-96.07 1554.43,-90.55 1543.92,-89.22 1545.38,-96.07"/>
</a>
</g>
</g>
<!-- Node27 -->
<g id="Node000027" class="node">
<title>Node27</title>
<g id="a_Node000027"><a xlink:href="_linux_2_credential_flags_8hpp.html" target="_top" xlink:title=" ">
<polygon fill="white" stroke="#666666" points="2218,-90.5 2042,-90.5 2042,-60.5 2218,-60.5 2218,-90.5"/>
<text text-anchor="start" x="2050" y="-78.5" font-family="Helvetica,sans-Serif" font-size="10.00">Hermes/_base/OsApi</text>
<text text-anchor="middle" x="2130" y="-67.5" font-family="Helvetica,sans-Serif" font-size="10.00">/Flags/Linux/CredentialFlags.hpp</text>
</a>
</g>
</g>
<!-- Node9&#45;&gt;Node27 -->
<g id="edge32_Node000009_Node000027" class="edge">
<title>Node9&#45;&gt;Node27</title>
<g id="a_edge32_Node000009_Node000027"><a xlink:title=" ">
<path fill="none" stroke="#63b8ff" d="M1268.22,-145.2C1404,-142.76 1748.05,-133.11 2033,-96 2040.72,-94.99 2048.76,-93.73 2056.75,-92.34"/>
<polygon fill="#63b8ff" stroke="#63b8ff" points="2057.6,-95.74 2066.81,-90.51 2056.35,-88.85 2057.6,-95.74"/>
</a>
</g>
</g>
<!-- Node28 -->
<g id="Node000028" class="node">
<title>Node28</title>
<g id="a_Node000028"><a xlink:href="_linux_2_supported_protocols_flags_8hpp.html" target="_top" xlink:title=" ">
<polygon fill="white" stroke="#666666" points="2409.5,-96 2236.5,-96 2236.5,-55 2409.5,-55 2409.5,-96"/>
<text text-anchor="start" x="2244.5" y="-84" font-family="Helvetica,sans-Serif" font-size="10.00">Hermes/_base/OsApi</text>
<text text-anchor="start" x="2244.5" y="-73" font-family="Helvetica,sans-Serif" font-size="10.00">/Flags/Linux/SupportedProtocols</text>
<text text-anchor="middle" x="2323" y="-62" font-family="Helvetica,sans-Serif" font-size="10.00">Flags.hpp</text>
</a>
</g>
</g>
<!-- Node9&#45;&gt;Node28 -->
<g id="edge33_Node000009_Node000028" class="edge">
<title>Node9&#45;&gt;Node28</title>
<g id="a_edge33_Node000009_Node000028"><a xlink:title=" ">
<path fill="none" stroke="#63b8ff" d="M1268.08,-146.21C1423.53,-146.11 1856.74,-141.52 2226.4,-95.95"/>
<polygon fill="#63b8ff" stroke="#63b8ff" points="2227,-99.41 2236.49,-94.7 2226.14,-92.46 2227,-99.41"/>
</a>
</g>
</g>
<!-- Node29 -->
<g id="Node000029" class="node">
<title>Node29</title>
<g id="a_Node000029"><a xlink:href="_linux_2_s_channel_cred_flags_8hpp.html" target="_top" xlink:title=" ">
<polygon fill="white" stroke="#666666" points="194,-90.5 0,-90.5 0,-60.5 194,-60.5 194,-90.5"/>
<text text-anchor="start" x="8" y="-78.5" font-family="Helvetica,sans-Serif" font-size="10.00">Hermes/_base/OsApi</text>
<text text-anchor="middle" x="97" y="-67.5" font-family="Helvetica,sans-Serif" font-size="10.00">/Flags/Linux/SChannelCredFlags.hpp</text>
</a>
</g>
</g>
<!-- Node9&#45;&gt;Node29 -->
<g id="edge34_Node000009_Node000029" class="edge">
<title>Node9&#45;&gt;Node29</title>
<g id="a_edge34_Node000009_Node000029"><a xlink:title=" ">
<path fill="none" stroke="#63b8ff" d="M1149.81,-145.79C994.18,-144.63 560.82,-137.62 203,-96 194.13,-94.97 184.88,-93.64 175.7,-92.17"/>
<polygon fill="#63b8ff" stroke="#63b8ff" points="176.23,-88.71 165.79,-90.52 175.08,-95.62 176.23,-88.71"/>
</a>
</g>
</g>
<!-- Node16 -->
<g id="Node000016" class="node">
<title>Node16</title>
<g id="a_Node000016"><a xlink:title=" ">
<polygon fill="#e0e0e0" stroke="#999999" points="1464,-19 1390,-19 1390,0 1464,0 1464,-19"/>
<text text-anchor="middle" x="1427" y="-7" font-family="Helvetica,sans-Serif" font-size="10.00">WinSock2.h</text>
</a>
</g>
</g>
<!-- Node15&#45;&gt;Node16 -->
<g id="edge15_Node000015_Node000016" class="edge">
<title>Node15&#45;&gt;Node16</title>
<g id="a_edge15_Node000015_Node000016"><a xlink:title=" ">
<path fill="none" stroke="#63b8ff" d="M1427,-60.3C1427,-51.2 1427,-39.29 1427,-29.4"/>
<polygon fill="#63b8ff" stroke="#63b8ff" points="1430.5,-29.34 1427,-19.34 1423.5,-29.34 1430.5,-29.34"/>
</a>
</g>
</g>
<!-- Node18 -->
<g id="Node000018" class="node">
<title>Node18</title>
<g id="a_Node000018"><a xlink:title=" ">
<polygon fill="#e0e0e0" stroke="#999999" points="1974,-19 1924,-19 1924,0 1974,0 1974,-19"/>
<text text-anchor="middle" x="1949" y="-7" font-family="Helvetica,sans-Serif" font-size="10.00">cstdint</text>
</a>
</g>
</g>
<!-- Node17&#45;&gt;Node18 -->
<g id="edge17_Node000017_Node000018" class="edge">
<title>Node17&#45;&gt;Node18</title>
<g id="a_edge17_Node000017_Node000018"><a xlink:title=" ">
<path fill="none" stroke="#63b8ff" d="M1949,-60.3C1949,-51.2 1949,-39.29 1949,-29.4"/>
<polygon fill="#63b8ff" stroke="#63b8ff" points="1952.5,-29.34 1949,-19.34 1945.5,-29.34 1952.5,-29.34"/>
</a>
</g>
</g>
<!-- Node19&#45;&gt;Node10 -->
<g id="edge20_Node000019_Node000010" class="edge">
<title>Node19&#45;&gt;Node10</title>
<g id="a_edge20_Node000019_Node000010"><a xlink:title=" ">
<path fill="none" stroke="#63b8ff" d="M1244.74,-60.41C1237.5,-58.45 1230.07,-56.57 1223,-55 1141.91,-37.05 1046.15,-23.53 989.67,-16.33"/>
<polygon fill="#63b8ff" stroke="#63b8ff" points="989.95,-12.84 979.6,-15.06 989.08,-19.79 989.95,-12.84"/>
</a>
</g>
</g>
<!-- Node20 -->
<g id="Node000020" class="node">
<title>Node20</title>
<g id="a_Node000020"><a xlink:title=" ">
<polygon fill="#e0e0e0" stroke="#999999" points="1327.5,-19 1254.5,-19 1254.5,0 1327.5,0 1327.5,-19"/>
<text text-anchor="middle" x="1291" y="-7" font-family="Helvetica,sans-Serif" font-size="10.00">string_view</text>
</a>
</g>
</g>
<!-- Node19&#45;&gt;Node20 -->
<g id="edge19_Node000019_Node000020" class="edge">
<title>Node19&#45;&gt;Node20</title>
<g id="a_edge19_Node000019_Node000020"><a xlink:title=" ">
<path fill="none" stroke="#63b8ff" d="M1291,-60.3C1291,-51.2 1291,-39.29 1291,-29.4"/>
<polygon fill="#63b8ff" stroke="#63b8ff" points="1294.5,-29.34 1291,-19.34 1287.5,-29.34 1294.5,-29.34"/>
</a>
</g>
</g>
<!-- Node21&#45;&gt;Node10 -->
<g id="edge22_Node000021_Node000010" class="edge">
<title>Node21&#45;&gt;Node10</title>
<g id="a_edge22_Node000021_Node000010"><a xlink:title=" ">
<path fill="none" stroke="#63b8ff" d="M1085.4,-60.45C1052.39,-49.03 1006.33,-33.1 975.18,-22.32"/>
<polygon fill="#63b8ff" stroke="#63b8ff" points="976.22,-18.98 965.62,-19.02 973.93,-25.59 976.22,-18.98"/>
</a>
</g>
</g>
<!-- Node22&#45;&gt;Node11 -->
<g id="edge24_Node000022_Node000011" class="edge">
<title>Node22&#45;&gt;Node11</title>
<g id="a_edge24_Node000022_Node000011"><a xlink:title=" ">
<path fill="none" stroke="#63b8ff" d="M321.76,-60.3C331.43,-50.32 344.37,-36.96 354.42,-26.59"/>
<polygon fill="#63b8ff" stroke="#63b8ff" points="356.99,-28.96 361.43,-19.34 351.96,-24.09 356.99,-28.96"/>
</a>
</g>
</g>
<!-- Node23&#45;&gt;Node10 -->
<g id="edge26_Node000023_Node000010" class="edge">
<title>Node23&#45;&gt;Node10</title>
<g id="a_edge26_Node000023_Node000010"><a xlink:title=" ">
<path fill="none" stroke="#63b8ff" d="M706.06,-60.45C762.24,-48.51 841.63,-31.63 892.21,-20.87"/>
<polygon fill="#63b8ff" stroke="#63b8ff" points="893.18,-24.25 902.24,-18.74 891.73,-17.4 893.18,-24.25"/>
</a>
</g>
</g>
<!-- Node24&#45;&gt;Node10 -->
<g id="edge28_Node000024_Node000010" class="edge">
<title>Node24&#45;&gt;Node10</title>
<g id="a_edge28_Node000024_Node000010"><a xlink:title=" ">
<path fill="none" stroke="#63b8ff" d="M941,-60.3C941,-51.2 941,-39.29 941,-29.4"/>
<polygon fill="#63b8ff" stroke="#63b8ff" points="944.5,-29.34 941,-19.34 937.5,-29.34 944.5,-29.34"/>
</a>
</g>
</g>
<!-- Node26&#45;&gt;Node13 -->
<g id="edge31_Node000026_Node000013" class="edge">
<title>Node26&#45;&gt;Node13</title>
<g id="a_edge31_Node000026_Node000013"><a xlink:title=" ">
<path fill="none" stroke="#63b8ff" d="M1602.9,-60.3C1595.34,-50.61 1585.28,-37.74 1577.29,-27.51"/>
<polygon fill="#63b8ff" stroke="#63b8ff" points="1579.82,-25.07 1570.91,-19.34 1574.31,-29.38 1579.82,-25.07"/>
</a>
</g>
</g>
<!-- Node30&#45;&gt;Node5 -->
<g id="edge43_Node000030_Node000005" class="edge">
<title>Node30&#45;&gt;Node5</title>
<g id="a_edge43_Node000030_Node000005"><a xlink:title=" ">
<path fill="none" stroke="#63b8ff" d="M3085.07,-197.77C3072.45,-180.48 3049.25,-151.26 3024,-132 2995.24,-110.06 2982.82,-113.21 2951,-96 2947.64,-94.18 2944.13,-92.2 2940.71,-90.22"/>
<polygon fill="#63b8ff" stroke="#63b8ff" points="2942.39,-87.15 2932,-85.09 2938.84,-93.18 2942.39,-87.15"/>
</a>
</g>
</g>
<!-- Node30&#45;&gt;Node31 -->
<g id="edge36_Node000030_Node000031" class="edge">
<title>Node30&#45;&gt;Node31</title>
<g id="a_edge36_Node000030_Node000031"><a xlink:title=" ">
<path fill="none" stroke="#63b8ff" d="M3049.57,-197.95C3012.31,-186.43 2960.2,-170.32 2925.34,-159.54"/>
<polygon fill="#63b8ff" stroke="#63b8ff" points="2926.14,-156.13 2915.55,-156.52 2924.07,-162.82 2926.14,-156.13"/>
</a>
</g>
</g>
<!-- Node34 -->
<g id="Node000034" class="node">
<title>Node34</title>
<g id="a_Node000034"><a xlink:title=" ">
<polygon fill="#e0e0e0" stroke="#999999" points="3113,-156.5 3071,-156.5 3071,-137.5 3113,-137.5 3113,-156.5"/>
<text text-anchor="middle" x="3092" y="-144.5" font-family="Helvetica,sans-Serif" font-size="10.00">array</text>
</a>
</g>
</g>
<!-- Node30&#45;&gt;Node34 -->
<g id="edge39_Node000030_Node000034" class="edge">
<title>Node30&#45;&gt;Node34</title>
<g id="a_edge39_Node000030_Node000034"><a xlink:title=" ">
<path fill="none" stroke="#63b8ff" d="M3094.33,-197.8C3093.91,-188.7 3093.35,-176.79 3092.89,-166.9"/>
<polygon fill="#63b8ff" stroke="#63b8ff" points="3096.38,-166.67 3092.41,-156.84 3089.39,-167 3096.38,-166.67"/>
</a>
</g>
</g>
<!-- Node30&#45;&gt;Node35 -->
<g id="edge40_Node000030_Node000035" class="edge">
<title>Node30&#45;&gt;Node35</title>
<g id="a_edge40_Node000030_Node000035"><a xlink:title=" ">
<path fill="none" stroke="#63b8ff" d="M3072.62,-197.95C3055.59,-187.27 3032.29,-172.65 3015.29,-161.98"/>
<polygon fill="#63b8ff" stroke="#63b8ff" points="3016.91,-158.87 3006.57,-156.52 3013.18,-164.8 3016.91,-158.87"/>
</a>
</g>
</g>
<!-- Node36 -->
<g id="Node000036" class="node">
<title>Node36</title>
<g id="a_Node000036"><a xlink:title=" ">
<polygon fill="#e0e0e0" stroke="#999999" points="3182.5,-156.5 3131.5,-156.5 3131.5,-137.5 3182.5,-137.5 3182.5,-156.5"/>
<text text-anchor="middle" x="3157" y="-144.5" font-family="Helvetica,sans-Serif" font-size="10.00">variant</text>
</a>
</g>
</g>
<!-- Node30&#45;&gt;Node36 -->
<g id="edge41_Node000030_Node000036" class="edge">
<title>Node30&#45;&gt;Node36</title>
<g id="a_edge41_Node000030_Node000036"><a xlink:title=" ">
<path fill="none" stroke="#63b8ff" d="M3108.76,-197.8C3118.43,-187.82 3131.37,-174.46 3141.42,-164.09"/>
<polygon fill="#63b8ff" stroke="#63b8ff" points="3143.99,-166.46 3148.43,-156.84 3138.96,-161.59 3143.99,-166.46"/>
</a>
</g>
</g>
<!-- Node30&#45;&gt;Node37 -->
<g id="edge42_Node000030_Node000037" class="edge">
<title>Node30&#45;&gt;Node37</title>
<g id="a_edge42_Node000030_Node000037"><a xlink:title=" ">
<path fill="none" stroke="#63b8ff" d="M3172.79,-200.13C3177.6,-199.4 3182.37,-198.69 3187,-198 3296.73,-181.66 3326.6,-189.79 3434,-162 3436.44,-161.37 3438.95,-160.63 3441.45,-159.83"/>
<polygon fill="#63b8ff" stroke="#63b8ff" points="3442.62,-163.12 3450.9,-156.51 3440.31,-156.52 3442.62,-163.12"/>
</a>
</g>
</g>
<!-- Node38 -->
<g id="Node000038" class="node">
<title>Node38</title>
<g id="a_Node000038"><a xlink:title=" ">
<polygon fill="#e0e0e0" stroke="#999999" points="3251,-156.5 3201,-156.5 3201,-137.5 3251,-137.5 3251,-156.5"/>
<text text-anchor="middle" x="3226" y="-144.5" font-family="Helvetica,sans-Serif" font-size="10.00">format</text>
</a>
</g>
</g>
<!-- Node30&#45;&gt;Node38 -->
<g id="edge44_Node000030_Node000038" class="edge">
<title>Node30&#45;&gt;Node38</title>
<g id="a_edge44_Node000030_Node000038"><a xlink:title=" ">
<path fill="none" stroke="#63b8ff" d="M3123.75,-197.95C3146.32,-186.93 3177.49,-171.7 3199.47,-160.96"/>
<polygon fill="#63b8ff" stroke="#63b8ff" points="3201.12,-164.05 3208.57,-156.52 3198.04,-157.76 3201.12,-164.05"/>
</a>
</g>
</g>
<!-- Node39 -->
<g id="Node000039" class="node">
<title>Node39</title>
<g id="a_Node000039"><a xlink:title=" ">
<polygon fill="#e0e0e0" stroke="#999999" points="3424.5,-162 3269.5,-162 3269.5,-132 3424.5,-132 3424.5,-162"/>
<text text-anchor="start" x="3277.5" y="-150" font-family="Helvetica,sans-Serif" font-size="10.00">Hermes/Endpoint/IpEndpoint</text>
<text text-anchor="middle" x="3347" y="-139" font-family="Helvetica,sans-Serif" font-size="10.00">/IpAddress.tpp</text>
</a>
</g>
</g>
<!-- Node30&#45;&gt;Node39 -->
<g id="edge45_Node000030_Node000039" class="edge">
<title>Node30&#45;&gt;Node39</title>
<g id="a_edge45_Node000030_Node000039"><a xlink:title=" ">
<path fill="none" stroke="#63b8ff" d="M3150.3,-197.95C3189.12,-188.1 3241.17,-174.88 3281.98,-164.51"/>
<polygon fill="#63b8ff" stroke="#63b8ff" points="3283,-167.87 3291.83,-162.01 3281.27,-161.08 3283,-167.87"/>
</a>
</g>
</g>
<!-- Node32 -->
<g id="Node000032" class="node">
<title>Node32</title>
<g id="a_Node000032"><a xlink:title=" ">
<polygon fill="#e0e0e0" stroke="#999999" points="3004.5,-85 2959.5,-85 2959.5,-66 3004.5,-66 3004.5,-85"/>
<text text-anchor="middle" x="2982" y="-73" font-family="Helvetica,sans-Serif" font-size="10.00">utility</text>
</a>
</g>
</g>
<!-- Node31&#45;&gt;Node32 -->
<g id="edge37_Node000031_Node000032" class="edge">
<title>Node31&#45;&gt;Node32</title>
<g id="a_edge37_Node000031_Node000032"><a xlink:title=" ">
<path fill="none" stroke="#63b8ff" d="M2899.53,-137.48C2915.1,-125.96 2943.1,-105.26 2962.11,-91.21"/>
<polygon fill="#63b8ff" stroke="#63b8ff" points="2964.42,-93.85 2970.38,-85.09 2960.26,-88.22 2964.42,-93.85"/>
</a>
</g>
</g>
<!-- Node33 -->
<g id="Node000033" class="node">
<title>Node33</title>
<g id="a_Node000033"><a xlink:title=" ">
<polygon fill="#e0e0e0" stroke="#999999" points="3087.5,-85 3022.5,-85 3022.5,-66 3087.5,-66 3087.5,-85"/>
<text text-anchor="middle" x="3055" y="-73" font-family="Helvetica,sans-Serif" font-size="10.00">functional</text>
</a>
</g>
</g>
<!-- Node31&#45;&gt;Node33 -->
<g id="edge38_Node000031_Node000033" class="edge">
<title>Node31&#45;&gt;Node33</title>
<g id="a_edge38_Node000031_Node000033"><a xlink:title=" ">
<path fill="none" stroke="#63b8ff" d="M2910.95,-137.42C2936.35,-127.8 2978.4,-111.51 3014,-96 3018.63,-93.98 3023.52,-91.75 3028.24,-89.54"/>
<polygon fill="#63b8ff" stroke="#63b8ff" points="3030.03,-92.56 3037.56,-85.11 3027.03,-86.24 3030.03,-92.56"/>
</a>
</g>
</g>
</g>
</svg>
