<?xml version="1.0" encoding="UTF-8" standalone="no"?>
<!DOCTYPE svg PUBLIC "-//W3C//DTD SVG 1.1//EN"
 "http://www.w3.org/Graphics/SVG/1.1/DTD/svg11.dtd">
<!-- Generated by graphviz version 2.43.0 (0)
 -->
<!-- Title: include/Hermes/Endpoint/IpEndpoint/IpAddress.hpp Pages: 1 -->
<svg width="1466pt" height="544pt"
 viewBox="0.00 0.00 1466.09 544.00" xmlns="http://www.w3.org/2000/svg" xmlns:xlink="http://www.w3.org/1999/xlink">
<g id="graph0" class="graph" transform="scale(1 1) rotate(0) translate(4 540)">
<title>include/Hermes/Endpoint/IpEndpoint/IpAddress.hpp</title>
<!-- Node1 -->
<g id="Node000001" class="node">
<title>Node1</title>
<g id="a_Node000001"><a xlink:title=" ">
<polygon fill="#999999" stroke="#666666" points="1187,-536 1044,-536 1044,-506 1187,-506 1187,-536"/>
<text text-anchor="start" x="1052" y="-524" font-family="Helvetica,sans-Serif" font-size="10.00">include/Hermes/Endpoint</text>
<text text-anchor="middle" x="1115.5" y="-513" font-family="Helvetica,sans-Serif" font-size="10.00">/IpEndpoint/IpAddress.hpp</text>
</a>
</g>
</g>
<!-- Node2 -->
<g id="Node000002" class="node">
<title>Node2</title>
<g id="a_Node000002"><a xlink:href="_ip_endpoint_8hpp.html" target="_top" xlink:title=" ">
<polygon fill="white" stroke="#666666" points="1189,-470 1042,-470 1042,-440 1189,-440 1189,-470"/>
<text text-anchor="start" x="1050" y="-458" font-family="Helvetica,sans-Serif" font-size="10.00">include/Hermes/Endpoint</text>
<text text-anchor="middle" x="1115.5" y="-447" font-family="Helvetica,sans-Serif" font-size="10.00">/IpEndpoint/IpEndpoint.hpp</text>
</a>
</g>
</g>
<!-- Node1&#45;&gt;Node2 -->
<g id="edge1_Node000001_Node000002" class="edge">
<title>Node1&#45;&gt;Node2</title>
<g id="a_edge1_Node000001_Node000002"><a xlink:title=" ">
<path fill="none" stroke="#63b8ff" d="M1115.5,-495.54C1115.5,-486.96 1115.5,-477.61 1115.5,-470.16"/>
<polygon fill="#63b8ff" stroke="#63b8ff" points="1112,-495.8 1115.5,-505.8 1119,-495.8 1112,-495.8"/>
</a>
</g>
</g>
<!-- Node3 -->
<g id="Node000003" class="node">
<title>Node3</title>
<g id="a_Node000003"><a xlink:href="_default_socket_data_8hpp.html" target="_top" xlink:title=" ">
<polygon fill="white" stroke="#666666" points="1125.5,-404 967.5,-404 967.5,-374 1125.5,-374 1125.5,-404"/>
<text text-anchor="start" x="975.5" y="-392" font-family="Helvetica,sans-Serif" font-size="10.00">include/Hermes/Socket</text>
<text text-anchor="middle" x="1046.5" y="-381" font-family="Helvetica,sans-Serif" font-size="10.00">/Data/DefaultSocketData.hpp</text>
</a>
</g>
</g>
<!-- Node2&#45;&gt;Node3 -->
<g id="edge2_Node000002_Node000003" class="edge">
<title>Node2&#45;&gt;Node3</title>
<g id="a_edge2_Node000002_Node000003"><a xlink:title=" ">
<path fill="none" stroke="#63b8ff" d="M1092.78,-432.92C1082.6,-423.49 1070.87,-412.61 1061.77,-404.16"/>
<polygon fill="#63b8ff" stroke="#63b8ff" points="1090.47,-435.56 1100.19,-439.8 1095.24,-430.43 1090.47,-435.56"/>
</a>
</g>
</g>
<!-- Node17 -->
<g id="Node000017" class="node">
<title>Node17</title>
<g id="a_Node000017"><a xlink:href="_default_connect_policy_8hpp.html" target="_top" xlink:title=" ">
<polygon fill="white" stroke="#666666" points="1256.5,-338 1112.5,-338 1112.5,-297 1256.5,-297 1256.5,-338"/>
<text text-anchor="start" x="1120.5" y="-326" font-family="Helvetica,sans-Serif" font-size="10.00">include/Hermes/Socket</text>
<text text-anchor="start" x="1120.5" y="-315" font-family="Helvetica,sans-Serif" font-size="10.00">/Sync/_base/Connection</text>
<text text-anchor="middle" x="1184.5" y="-304" font-family="Helvetica,sans-Serif" font-size="10.00">/DefaultConnectPolicy.hpp</text>
</a>
</g>
</g>
<!-- Node2&#45;&gt;Node17 -->
<g id="edge43_Node000002_Node000017" class="edge">
<title>Node2&#45;&gt;Node17</title>
<g id="a_edge43_Node000002_Node000017"><a xlink:title=" ">
<path fill="none" stroke="#63b8ff" d="M1127.42,-430.58C1140.72,-404.48 1161.99,-362.71 1174.46,-338.21"/>
<polygon fill="#63b8ff" stroke="#63b8ff" points="1124.17,-429.26 1122.75,-439.76 1130.41,-432.43 1124.17,-429.26"/>
</a>
</g>
</g>
<!-- Node19 -->
<g id="Node000019" class="node">
<title>Node19</title>
<g id="a_Node000019"><a xlink:href="_tls_connect_policy_8hpp.html" target="_top" xlink:title=" ">
<polygon fill="white" stroke="#666666" points="1344.5,-261 1212.5,-261 1212.5,-220 1344.5,-220 1344.5,-261"/>
<text text-anchor="start" x="1220.5" y="-249" font-family="Helvetica,sans-Serif" font-size="10.00">include/Hermes/Socket</text>
<text text-anchor="start" x="1220.5" y="-238" font-family="Helvetica,sans-Serif" font-size="10.00">/Sync/_base/Connection</text>
<text text-anchor="middle" x="1278.5" y="-227" font-family="Helvetica,sans-Serif" font-size="10.00">/TlsConnectPolicy.hpp</text>
</a>
</g>
</g>
<!-- Node2&#45;&gt;Node19 -->
<g id="edge44_Node000002_Node000019" class="edge">
<title>Node2&#45;&gt;Node19</title>
<g id="a_edge44_Node000002_Node000019"><a xlink:title=" ">
<path fill="none" stroke="#63b8ff" d="M1154.5,-435.11C1189.72,-415.85 1239.83,-382.5 1265.5,-338 1279.27,-314.13 1280.77,-281.54 1280.05,-261"/>
<polygon fill="#63b8ff" stroke="#63b8ff" points="1152.62,-432.14 1145.44,-439.93 1155.91,-438.32 1152.62,-432.14"/>
</a>
</g>
</g>
<!-- Node22 -->
<g id="Node000022" class="node">
<title>Node22</title>
<g id="a_Node000022"><a xlink:href="_tls_socket_data_8hpp.html" target="_top" xlink:title=" ">
<polygon fill="white" stroke="#666666" points="760,-332.5 623,-332.5 623,-302.5 760,-302.5 760,-332.5"/>
<text text-anchor="start" x="631" y="-320.5" font-family="Helvetica,sans-Serif" font-size="10.00">include/Hermes/Socket</text>
<text text-anchor="middle" x="691.5" y="-309.5" font-family="Helvetica,sans-Serif" font-size="10.00">/Data/TlsSocketData.hpp</text>
</a>
</g>
</g>
<!-- Node2&#45;&gt;Node22 -->
<g id="edge32_Node000002_Node000022" class="edge">
<title>Node2&#45;&gt;Node22</title>
<g id="a_edge32_Node000002_Node000022"><a xlink:title=" ">
<path fill="none" stroke="#63b8ff" d="M1061.63,-436.87C1031.33,-427.22 992.8,-414.95 958.5,-404 879.91,-378.9 788.34,-349.56 735.43,-332.59"/>
<polygon fill="#63b8ff" stroke="#63b8ff" points="1060.58,-440.21 1071.17,-439.9 1062.7,-433.53 1060.58,-440.21"/>
</a>
</g>
</g>
<!-- Node4 -->
<g id="Node000004" class="node">
<title>Node4</title>
<g id="a_Node000004"><a xlink:href="_default_async_accept_policy_8hpp.html" target="_top" xlink:title=" ">
<polygon fill="white" stroke="#666666" points="593,-261 438,-261 438,-220 593,-220 593,-261"/>
<text text-anchor="start" x="446" y="-249" font-family="Helvetica,sans-Serif" font-size="10.00">include/Hermes/Socket</text>
<text text-anchor="start" x="446" y="-238" font-family="Helvetica,sans-Serif" font-size="10.00">/Async/_base/Accept/Default</text>
<text text-anchor="middle" x="515.5" y="-227" font-family="Helvetica,sans-Serif" font-size="10.00">AsyncAcceptPolicy.hpp</text>
</a>
</g>
</g>
<!-- Node3&#45;&gt;Node4 -->
<g id="edge3_Node000003_Node000004" class="edge">
<title>Node3&#45;&gt;Node4</title>
<g id="a_edge3_Node000003_Node000004"><a xlink:title=" ">
<path fill="none" stroke="#63b8ff" d="M957.29,-377.29C915.01,-369.94 864.66,-357.8 822.5,-338 795.54,-325.34 796.51,-309.54 769.5,-297 700.24,-264.84 676.07,-277.44 601.5,-261 598.81,-260.41 596.07,-259.8 593.31,-259.19"/>
<polygon fill="#63b8ff" stroke="#63b8ff" points="956.85,-380.76 967.29,-378.97 958.01,-373.86 956.85,-380.76"/>
</a>
</g>
</g>
<!-- Node8 -->
<g id="Node000008" class="node">
<title>Node8</title>
<g id="a_Node000008"><a xlink:href="_default_async_connect_policy_8hpp.html" target="_top" xlink:title=" ">
<polygon fill="white" stroke="#666666" points="1259,-184 1086,-184 1086,-143 1259,-143 1259,-184"/>
<text text-anchor="start" x="1094" y="-172" font-family="Helvetica,sans-Serif" font-size="10.00">include/Hermes/Socket</text>
<text text-anchor="start" x="1094" y="-161" font-family="Helvetica,sans-Serif" font-size="10.00">/Async/_base/Connection</text>
<text text-anchor="middle" x="1172.5" y="-150" font-family="Helvetica,sans-Serif" font-size="10.00">/DefaultAsyncConnectPolicy.hpp</text>
</a>
</g>
</g>
<!-- Node3&#45;&gt;Node8 -->
<g id="edge7_Node000003_Node000008" class="edge">
<title>Node3&#45;&gt;Node8</title>
<g id="a_edge7_Node000003_Node000008"><a xlink:title=" ">
<path fill="none" stroke="#63b8ff" d="M1060.58,-365.13C1072.01,-346.65 1088.61,-320.04 1103.5,-297 1113.94,-280.85 1118.08,-277.76 1127.5,-261 1141.99,-235.22 1155.95,-203.97 1164.38,-184.16"/>
<polygon fill="#63b8ff" stroke="#63b8ff" points="1057.54,-363.39 1055.26,-373.73 1063.49,-367.07 1057.54,-363.39"/>
</a>
</g>
</g>
<!-- Node11 -->
<g id="Node000011" class="node">
<title>Node11</title>
<g id="a_Node000011"><a xlink:href="_default_async_transfer_policy_8hpp.html" target="_top" xlink:title=" ">
<polygon fill="white" stroke="#666666" points="381,-261 208,-261 208,-220 381,-220 381,-261"/>
<text text-anchor="start" x="216" y="-249" font-family="Helvetica,sans-Serif" font-size="10.00">include/Hermes/Socket</text>
<text text-anchor="start" x="216" y="-238" font-family="Helvetica,sans-Serif" font-size="10.00">/Async/_base/Transfer</text>
<text text-anchor="middle" x="294.5" y="-227" font-family="Helvetica,sans-Serif" font-size="10.00">/DefaultAsyncTransferPolicy.hpp</text>
</a>
</g>
</g>
<!-- Node3&#45;&gt;Node11 -->
<g id="edge11_Node000003_Node000011" class="edge">
<title>Node3&#45;&gt;Node11</title>
<g id="a_edge11_Node000003_Node000011"><a xlink:title=" ">
<path fill="none" stroke="#63b8ff" d="M956.98,-382.36C868.9,-375.7 730.93,-362.34 613.5,-338 518.6,-318.33 411.32,-283.09 348.49,-261.07"/>
<polygon fill="#63b8ff" stroke="#63b8ff" points="956.98,-385.86 967.21,-383.11 957.49,-378.88 956.98,-385.86"/>
</a>
</g>
</g>
<!-- Node12 -->
<g id="Node000012" class="node">
<title>Node12</title>
<g id="a_Node000012"><a xlink:href="_default_accept_policy_8hpp.html" target="_top" xlink:title=" ">
<polygon fill="white" stroke="#666666" points="1013.5,-338 831.5,-338 831.5,-297 1013.5,-297 1013.5,-338"/>
<text text-anchor="start" x="839.5" y="-326" font-family="Helvetica,sans-Serif" font-size="10.00">include/Hermes/Socket</text>
<text text-anchor="start" x="839.5" y="-315" font-family="Helvetica,sans-Serif" font-size="10.00">/Sync/_base/Accept/DefaultAccept</text>
<text text-anchor="middle" x="922.5" y="-304" font-family="Helvetica,sans-Serif" font-size="10.00">Policy.hpp</text>
</a>
</g>
</g>
<!-- Node3&#45;&gt;Node12 -->
<g id="edge14_Node000003_Node000012" class="edge">
<title>Node3&#45;&gt;Node12</title>
<g id="a_edge14_Node000003_Node000012"><a xlink:title=" ">
<path fill="none" stroke="#63b8ff" d="M1012.33,-368.85C995.24,-359.27 974.61,-347.71 957.42,-338.07"/>
<polygon fill="#63b8ff" stroke="#63b8ff" points="1010.97,-372.1 1021.41,-373.94 1014.39,-365.99 1010.97,-372.1"/>
</a>
</g>
</g>
<!-- Node3&#45;&gt;Node17 -->
<g id="edge22_Node000003_Node000017" class="edge">
<title>Node3&#45;&gt;Node17</title>
<g id="a_edge22_Node000003_Node000017"><a xlink:title=" ">
<path fill="none" stroke="#63b8ff" d="M1083.48,-369.38C1102.69,-359.7 1126.16,-347.88 1145.63,-338.07"/>
<polygon fill="#63b8ff" stroke="#63b8ff" points="1081.78,-366.31 1074.43,-373.94 1084.93,-372.56 1081.78,-366.31"/>
</a>
</g>
</g>
<!-- Node21 -->
<g id="Node000021" class="node">
<title>Node21</title>
<g id="a_Node000021"><a xlink:href="_default_transfer_policy_8hpp.html" target="_top" xlink:title=" ">
<polygon fill="white" stroke="#666666" points="1118,-261 975,-261 975,-220 1118,-220 1118,-261"/>
<text text-anchor="start" x="983" y="-249" font-family="Helvetica,sans-Serif" font-size="10.00">include/Hermes/Socket</text>
<text text-anchor="start" x="983" y="-238" font-family="Helvetica,sans-Serif" font-size="10.00">/Sync/_base/Transfer</text>
<text text-anchor="middle" x="1046.5" y="-227" font-family="Helvetica,sans-Serif" font-size="10.00">/DefaultTransferPolicy.hpp</text>
</a>
</g>
</g>
<!-- Node3&#45;&gt;Node21 -->
<g id="edge29_Node000003_Node000021" class="edge">
<title>Node3&#45;&gt;Node21</title>
<g id="a_edge29_Node000003_Node000021"><a xlink:title=" ">
<path fill="none" stroke="#63b8ff" d="M1046.5,-363.58C1046.5,-334.88 1046.5,-287.8 1046.5,-261.27"/>
<polygon fill="#63b8ff" stroke="#63b8ff" points="1043,-363.95 1046.5,-373.95 1050,-363.95 1043,-363.95"/>
</a>
</g>
</g>
<!-- Node5 -->
<g id="Node000005" class="node">
<title>Node5</title>
<g id="a_Node000005"><a xlink:href="_async_server_socket_8hpp.html" target="_top" xlink:title=" ">
<polygon fill="white" stroke="#666666" points="411.5,-178.5 245.5,-178.5 245.5,-148.5 411.5,-148.5 411.5,-178.5"/>
<text text-anchor="start" x="253.5" y="-166.5" font-family="Helvetica,sans-Serif" font-size="10.00">include/Hermes/Socket</text>
<text text-anchor="middle" x="328.5" y="-155.5" font-family="Helvetica,sans-Serif" font-size="10.00">/Async/AsyncServerSocket.hpp</text>
</a>
</g>
</g>
<!-- Node4&#45;&gt;Node5 -->
<g id="edge4_Node000004_Node000005" class="edge">
<title>Node4&#45;&gt;Node5</title>
<g id="a_edge4_Node000004_Node000005"><a xlink:title=" ">
<path fill="none" stroke="#63b8ff" d="M457.53,-216.25C426.78,-203.92 390.02,-189.17 363.61,-178.58"/>
<polygon fill="#63b8ff" stroke="#63b8ff" points="456.27,-219.52 466.86,-219.99 458.88,-213.02 456.27,-219.52"/>
</a>
</g>
</g>
<!-- Node7 -->
<g id="Node000007" class="node">
<title>Node7</title>
<g id="a_Node000007"><a xlink:href="_tls_async_accept_policy_8hpp.html" target="_top" xlink:title=" ">
<polygon fill="white" stroke="#666666" points="593,-184 430,-184 430,-143 593,-143 593,-184"/>
<text text-anchor="start" x="438" y="-172" font-family="Helvetica,sans-Serif" font-size="10.00">include/Hermes/Socket</text>
<text text-anchor="start" x="438" y="-161" font-family="Helvetica,sans-Serif" font-size="10.00">/Async/_base/Accept/TlsAsync</text>
<text text-anchor="middle" x="511.5" y="-150" font-family="Helvetica,sans-Serif" font-size="10.00">AcceptPolicy.hpp</text>
</a>
</g>
</g>
<!-- Node4&#45;&gt;Node7 -->
<g id="edge6_Node000004_Node000007" class="edge">
<title>Node4&#45;&gt;Node7</title>
<g id="a_edge6_Node000004_Node000007"><a xlink:title=" ">
<path fill="none" stroke="#63b8ff" d="M513.91,-209.69C513.45,-201.08 512.96,-191.9 512.54,-184.07"/>
<polygon fill="#63b8ff" stroke="#63b8ff" points="510.42,-210 514.45,-219.79 517.41,-209.62 510.42,-210"/>
</a>
</g>
</g>
<!-- Node6 -->
<g id="Node000006" class="node">
<title>Node6</title>
<g id="a_Node000006"><a xlink:href="_async_listener_socket_8hpp.html" target="_top" xlink:title=" ">
<polygon fill="white" stroke="#666666" points="419,-101.5 246,-101.5 246,-71.5 419,-71.5 419,-101.5"/>
<text text-anchor="start" x="254" y="-89.5" font-family="Helvetica,sans-Serif" font-size="10.00">include/Hermes/Socket</text>
<text text-anchor="middle" x="332.5" y="-78.5" font-family="Helvetica,sans-Serif" font-size="10.00">/Async/AsyncListenerSocket.hpp</text>
</a>
</g>
</g>
<!-- Node5&#45;&gt;Node6 -->
<g id="edge5_Node000005_Node000006" class="edge">
<title>Node5&#45;&gt;Node6</title>
<g id="a_edge5_Node000005_Node000006"><a xlink:title=" ">
<path fill="none" stroke="#63b8ff" d="M329.8,-138.04C330.45,-125.95 331.2,-111.79 331.75,-101.54"/>
<polygon fill="#63b8ff" stroke="#63b8ff" points="326.29,-138.22 329.25,-148.39 333.28,-138.59 326.29,-138.22"/>
</a>
</g>
</g>
<!-- Node9 -->
<g id="Node000009" class="node">
<title>Node9</title>
<g id="a_Node000009"><a xlink:href="_async_client_socket_8hpp.html" target="_top" xlink:title=" ">
<polygon fill="white" stroke="#666666" points="712,-30 549,-30 549,0 712,0 712,-30"/>
<text text-anchor="start" x="557" y="-18" font-family="Helvetica,sans-Serif" font-size="10.00">include/Hermes/Socket</text>
<text text-anchor="middle" x="630.5" y="-7" font-family="Helvetica,sans-Serif" font-size="10.00">/Async/AsyncClientSocket.hpp</text>
</a>
</g>
</g>
<!-- Node8&#45;&gt;Node9 -->
<g id="edge8_Node000008_Node000009" class="edge">
<title>Node8&#45;&gt;Node9</title>
<g id="a_edge8_Node000008_Node000009"><a xlink:title=" ">
<path fill="none" stroke="#63b8ff" d="M1167.2,-132.98C1161.58,-110.8 1150.34,-81.64 1128.5,-66 1095.45,-42.33 844.64,-26.55 712.07,-19.77"/>
<polygon fill="#63b8ff" stroke="#63b8ff" points="1163.83,-133.95 1169.47,-142.92 1170.66,-132.39 1163.83,-133.95"/>
</a>
</g>
</g>
<!-- Node10 -->
<g id="Node000010" class="node">
<title>Node10</title>
<g id="a_Node000010"><a xlink:href="_tls_async_connect_policy_8hpp.html" target="_top" xlink:title=" ">
<polygon fill="white" stroke="#666666" points="1119.5,-107 967.5,-107 967.5,-66 1119.5,-66 1119.5,-107"/>
<text text-anchor="start" x="975.5" y="-95" font-family="Helvetica,sans-Serif" font-size="10.00">include/Hermes/Socket</text>
<text text-anchor="start" x="975.5" y="-84" font-family="Helvetica,sans-Serif" font-size="10.00">/Async/_base/Connection</text>
<text text-anchor="middle" x="1043.5" y="-73" font-family="Helvetica,sans-Serif" font-size="10.00">/TlsAsyncConnectPolicy.hpp</text>
</a>
</g>
</g>
<!-- Node8&#45;&gt;Node10 -->
<g id="edge9_Node000008_Node000010" class="edge">
<title>Node8&#45;&gt;Node10</title>
<g id="a_edge9_Node000008_Node000010"><a xlink:title=" ">
<path fill="none" stroke="#63b8ff" d="M1130.22,-137.92C1113.07,-127.95 1093.52,-116.58 1077.34,-107.17"/>
<polygon fill="#63b8ff" stroke="#63b8ff" points="1128.54,-140.99 1138.94,-142.99 1132.06,-134.94 1128.54,-140.99"/>
</a>
</g>
</g>
<!-- Node10&#45;&gt;Node9 -->
<g id="edge10_Node000010_Node000009" class="edge">
<title>Node10&#45;&gt;Node9</title>
<g id="a_edge10_Node000010_Node000009"><a xlink:title=" ">
<path fill="none" stroke="#63b8ff" d="M957.57,-70.17C949.44,-68.74 941.31,-67.34 933.5,-66 858.61,-53.18 773.21,-39.14 712.21,-29.21"/>
<polygon fill="#63b8ff" stroke="#63b8ff" points="957.03,-73.62 967.48,-71.9 958.24,-66.73 957.03,-73.62"/>
</a>
</g>
</g>
<!-- Node11&#45;&gt;Node5 -->
<g id="edge13_Node000011_Node000005" class="edge">
<title>Node11&#45;&gt;Node5</title>
<g id="a_edge13_Node000011_Node000005"><a xlink:title=" ">
<path fill="none" stroke="#63b8ff" d="M307.6,-210.6C312.53,-199.73 317.92,-187.84 321.99,-178.86"/>
<polygon fill="#63b8ff" stroke="#63b8ff" points="304.37,-209.24 303.43,-219.79 310.75,-212.13 304.37,-209.24"/>
</a>
</g>
</g>
<!-- Node11&#45;&gt;Node9 -->
<g id="edge12_Node000011_Node000009" class="edge">
<title>Node11&#45;&gt;Node9</title>
<g id="a_edge12_Node000011_Node000009"><a xlink:title=" ">
<path fill="none" stroke="#63b8ff" d="M257.92,-213.12C249.27,-204.87 241.2,-195 236.5,-184 215.9,-135.77 201.83,-105.35 236.5,-66 256.78,-42.98 439.34,-27.8 548.71,-20.69"/>
<polygon fill="#63b8ff" stroke="#63b8ff" points="255.81,-215.92 265.61,-219.95 260.45,-210.69 255.81,-215.92"/>
</a>
</g>
</g>
<!-- Node12&#45;&gt;Node4 -->
<g id="edge15_Node000012_Node000004" class="edge">
<title>Node12&#45;&gt;Node4</title>
<g id="a_edge15_Node000012_Node000004"><a xlink:title=" ">
<path fill="none" stroke="#63b8ff" d="M821.05,-299.23C735.24,-284.58 622.91,-265.27 601.5,-261 598.8,-260.46 596.05,-259.9 593.28,-259.33"/>
<polygon fill="#63b8ff" stroke="#63b8ff" points="820.66,-302.71 831.11,-300.95 821.84,-295.81 820.66,-302.71"/>
</a>
</g>
</g>
<!-- Node13 -->
<g id="Node000013" class="node">
<title>Node13</title>
<g id="a_Node000013"><a xlink:href="_server_socket_8hpp.html" target="_top" xlink:title=" ">
<polygon fill="white" stroke="#666666" points="921,-178.5 790,-178.5 790,-148.5 921,-148.5 921,-178.5"/>
<text text-anchor="start" x="798" y="-166.5" font-family="Helvetica,sans-Serif" font-size="10.00">include/Hermes/Socket</text>
<text text-anchor="middle" x="855.5" y="-155.5" font-family="Helvetica,sans-Serif" font-size="10.00">/Sync/ServerSocket.hpp</text>
</a>
</g>
</g>
<!-- Node12&#45;&gt;Node13 -->
<g id="edge16_Node000012_Node000013" class="edge">
<title>Node12&#45;&gt;Node13</title>
<g id="a_edge16_Node000012_Node000013"><a xlink:title=" ">
<path fill="none" stroke="#63b8ff" d="M931.22,-287.11C935.47,-267.18 937.71,-240.77 927.5,-220 918.58,-201.87 900.58,-188 884.81,-178.65"/>
<polygon fill="#63b8ff" stroke="#63b8ff" points="927.81,-286.35 928.88,-296.89 934.62,-287.98 927.81,-286.35"/>
</a>
</g>
</g>
<!-- Node15 -->
<g id="Node000015" class="node">
<title>Node15</title>
<g id="a_Node000015"><a xlink:href="_tls_accept_policy_8hpp.html" target="_top" xlink:title=" ">
<polygon fill="white" stroke="#666666" points="772,-261 611,-261 611,-220 772,-220 772,-261"/>
<text text-anchor="start" x="619" y="-249" font-family="Helvetica,sans-Serif" font-size="10.00">include/Hermes/Socket</text>
<text text-anchor="start" x="619" y="-238" font-family="Helvetica,sans-Serif" font-size="10.00">/Sync/_base/Accept/TlsAccept</text>
<text text-anchor="middle" x="691.5" y="-227" font-family="Helvetica,sans-Serif" font-size="10.00">Policy.hpp</text>
</a>
</g>
</g>
<!-- Node12&#45;&gt;Node15 -->
<g id="edge18_Node000012_Node000015" class="edge">
<title>Node12&#45;&gt;Node15</title>
<g id="a_edge18_Node000012_Node000015"><a xlink:title=" ">
<path fill="none" stroke="#63b8ff" d="M852.61,-293.81C820.42,-283.36 782.6,-271.08 751.69,-261.04"/>
<polygon fill="#63b8ff" stroke="#63b8ff" points="851.82,-297.23 862.41,-296.99 853.98,-290.57 851.82,-297.23"/>
</a>
</g>
</g>
<!-- Node14 -->
<g id="Node000014" class="node">
<title>Node14</title>
<g id="a_Node000014"><a xlink:href="_listener_socket_8hpp.html" target="_top" xlink:title=" ">
<polygon fill="white" stroke="#666666" points="924.5,-101.5 786.5,-101.5 786.5,-71.5 924.5,-71.5 924.5,-101.5"/>
<text text-anchor="start" x="794.5" y="-89.5" font-family="Helvetica,sans-Serif" font-size="10.00">include/Hermes/Socket</text>
<text text-anchor="middle" x="855.5" y="-78.5" font-family="Helvetica,sans-Serif" font-size="10.00">/Sync/ListenerSocket.hpp</text>
</a>
</g>
</g>
<!-- Node13&#45;&gt;Node14 -->
<g id="edge17_Node000013_Node000014" class="edge">
<title>Node13&#45;&gt;Node14</title>
<g id="a_edge17_Node000013_Node000014"><a xlink:title=" ">
<path fill="none" stroke="#63b8ff" d="M855.5,-138.04C855.5,-125.95 855.5,-111.79 855.5,-101.54"/>
<polygon fill="#63b8ff" stroke="#63b8ff" points="852,-138.39 855.5,-148.39 859,-138.39 852,-138.39"/>
</a>
</g>
</g>
<!-- Node15&#45;&gt;Node7 -->
<g id="edge19_Node000015_Node000007" class="edge">
<title>Node15&#45;&gt;Node7</title>
<g id="a_edge19_Node000015_Node000007"><a xlink:title=" ">
<path fill="none" stroke="#63b8ff" d="M635.42,-216.13C610.69,-205.83 581.97,-193.86 558.4,-184.04"/>
<polygon fill="#63b8ff" stroke="#63b8ff" points="634.1,-219.37 644.68,-219.99 636.79,-212.91 634.1,-219.37"/>
</a>
</g>
</g>
<!-- Node15&#45;&gt;Node13 -->
<g id="edge20_Node000015_Node000013" class="edge">
<title>Node15&#45;&gt;Node13</title>
<g id="a_edge20_Node000015_Node000013"><a xlink:title=" ">
<path fill="none" stroke="#63b8ff" d="M743.39,-215.77C770.14,-203.54 801.85,-189.04 824.71,-178.58"/>
<polygon fill="#63b8ff" stroke="#63b8ff" points="741.8,-212.65 734.16,-219.99 744.71,-219.01 741.8,-212.65"/>
</a>
</g>
</g>
<!-- Node16 -->
<g id="Node000016" class="node">
<title>Node16</title>
<g id="a_Node000016"><a xlink:href="_tls_accept_state_machine_8hpp.html" target="_top" xlink:title=" ">
<polygon fill="white" stroke="#666666" points="771.5,-184 611.5,-184 611.5,-143 771.5,-143 771.5,-184"/>
<text text-anchor="start" x="619.5" y="-172" font-family="Helvetica,sans-Serif" font-size="10.00">include/Hermes/Socket</text>
<text text-anchor="start" x="619.5" y="-161" font-family="Helvetica,sans-Serif" font-size="10.00">/_base/Accept/TlsAcceptState</text>
<text text-anchor="middle" x="691.5" y="-150" font-family="Helvetica,sans-Serif" font-size="10.00">Machine.hpp</text>
</a>
</g>
</g>
<!-- Node15&#45;&gt;Node16 -->
<g id="edge21_Node000015_Node000016" class="edge">
<title>Node15&#45;&gt;Node16</title>
<g id="a_edge21_Node000015_Node000016"><a xlink:title=" ">
<path fill="none" stroke="#63b8ff" d="M691.5,-209.69C691.5,-201.08 691.5,-191.9 691.5,-184.07"/>
<polygon fill="#63b8ff" stroke="#63b8ff" points="688,-209.79 691.5,-219.79 695,-209.79 688,-209.79"/>
</a>
</g>
</g>
<!-- Node18 -->
<g id="Node000018" class="node">
<title>Node18</title>
<g id="a_Node000018"><a xlink:href="_client_socket_8hpp.html" target="_top" xlink:title=" ">
<polygon fill="white" stroke="#666666" points="1067.5,-178.5 939.5,-178.5 939.5,-148.5 1067.5,-148.5 1067.5,-178.5"/>
<text text-anchor="start" x="947.5" y="-166.5" font-family="Helvetica,sans-Serif" font-size="10.00">include/Hermes/Socket</text>
<text text-anchor="middle" x="1003.5" y="-155.5" font-family="Helvetica,sans-Serif" font-size="10.00">/Sync/ClientSocket.hpp</text>
</a>
</g>
</g>
<!-- Node17&#45;&gt;Node18 -->
<g id="edge23_Node000017_Node000018" class="edge">
<title>Node17&#45;&gt;Node18</title>
<g id="a_edge23_Node000017_Node000018"><a xlink:title=" ">
<path fill="none" stroke="#63b8ff" d="M1173,-287.28C1163.49,-266.26 1148.17,-238.46 1127.5,-220 1106.13,-200.91 1077.11,-187.44 1052.52,-178.55"/>
<polygon fill="#63b8ff" stroke="#63b8ff" points="1169.9,-288.91 1177.09,-296.7 1176.32,-286.13 1169.9,-288.91"/>
</a>
</g>
</g>
<!-- Node17&#45;&gt;Node19 -->
<g id="edge24_Node000017_Node000019" class="edge">
<title>Node17&#45;&gt;Node19</title>
<g id="a_edge24_Node000017_Node000019"><a xlink:title=" ">
<path fill="none" stroke="#63b8ff" d="M1217.28,-290.35C1229.33,-280.73 1242.76,-270.01 1253.97,-261.07"/>
<polygon fill="#63b8ff" stroke="#63b8ff" points="1214.83,-287.82 1209.2,-296.79 1219.2,-293.29 1214.83,-287.82"/>
</a>
</g>
</g>
<!-- Node19&#45;&gt;Node8 -->
<g id="edge25_Node000019_Node000008" class="edge">
<title>Node19&#45;&gt;Node8</title>
<g id="a_edge25_Node000019_Node000008"><a xlink:title=" ">
<path fill="none" stroke="#63b8ff" d="M1242.59,-214.09C1228.78,-204.32 1213.24,-193.32 1200.3,-184.17"/>
<polygon fill="#63b8ff" stroke="#63b8ff" points="1240.74,-217.07 1250.93,-219.99 1244.78,-211.36 1240.74,-217.07"/>
</a>
</g>
</g>
<!-- Node19&#45;&gt;Node10 -->
<g id="edge26_Node000019_Node000010" class="edge">
<title>Node19&#45;&gt;Node10</title>
<g id="a_edge26_Node000019_Node000010"><a xlink:title=" ">
<path fill="none" stroke="#63b8ff" d="M1354.84,-234.53C1389.62,-227.99 1427.79,-213.87 1449.5,-184 1460.21,-169.26 1461.48,-156.73 1449.5,-143 1428.19,-118.58 1231.45,-100.8 1119.87,-92.58"/>
<polygon fill="#63b8ff" stroke="#63b8ff" points="1353.94,-231.13 1344.66,-236.25 1355.1,-238.04 1353.94,-231.13"/>
</a>
</g>
</g>
<!-- Node19&#45;&gt;Node18 -->
<g id="edge27_Node000019_Node000018" class="edge">
<title>Node19&#45;&gt;Node18</title>
<g id="a_edge27_Node000019_Node000018"><a xlink:title=" ">
<path fill="none" stroke="#63b8ff" d="M1202.45,-218.76C1155.48,-205.95 1096.47,-189.86 1054.95,-178.53"/>
<polygon fill="#63b8ff" stroke="#63b8ff" points="1201.71,-222.19 1212.28,-221.44 1203.55,-215.43 1201.71,-222.19"/>
</a>
</g>
</g>
<!-- Node20 -->
<g id="Node000020" class="node">
<title>Node20</title>
<g id="a_Node000020"><a xlink:href="_tls_connect_state_machine_8hpp.html" target="_top" xlink:title=" ">
<polygon fill="white" stroke="#666666" points="1440,-184 1277,-184 1277,-143 1440,-143 1440,-184"/>
<text text-anchor="start" x="1285" y="-172" font-family="Helvetica,sans-Serif" font-size="10.00">include/Hermes/Socket</text>
<text text-anchor="start" x="1285" y="-161" font-family="Helvetica,sans-Serif" font-size="10.00">/_base/Connection/TlsConnect</text>
<text text-anchor="middle" x="1358.5" y="-150" font-family="Helvetica,sans-Serif" font-size="10.00">StateMachine.hpp</text>
</a>
</g>
</g>
<!-- Node19&#45;&gt;Node20 -->
<g id="edge28_Node000019_Node000020" class="edge">
<title>Node19&#45;&gt;Node20</title>
<g id="a_edge28_Node000019_Node000020"><a xlink:title=" ">
<path fill="none" stroke="#63b8ff" d="M1306.99,-212.79C1317.09,-203.32 1328.27,-192.84 1337.62,-184.07"/>
<polygon fill="#63b8ff" stroke="#63b8ff" points="1304.42,-210.4 1299.52,-219.79 1309.21,-215.51 1304.42,-210.4"/>
</a>
</g>
</g>
<!-- Node21&#45;&gt;Node13 -->
<g id="edge31_Node000021_Node000013" class="edge">
<title>Node21&#45;&gt;Node13</title>
<g id="a_edge31_Node000021_Node000013"><a xlink:title=" ">
<path fill="none" stroke="#63b8ff" d="M987.29,-216.25C955.88,-203.92 918.33,-189.17 891.36,-178.58"/>
<polygon fill="#63b8ff" stroke="#63b8ff" points="986.23,-219.59 996.82,-219.99 988.79,-213.08 986.23,-219.59"/>
</a>
</g>
</g>
<!-- Node21&#45;&gt;Node18 -->
<g id="edge30_Node000021_Node000018" class="edge">
<title>Node21&#45;&gt;Node18</title>
<g id="a_edge30_Node000021_Node000018"><a xlink:title=" ">
<path fill="none" stroke="#63b8ff" d="M1030.12,-210.93C1023.84,-199.97 1016.94,-187.93 1011.73,-178.86"/>
<polygon fill="#63b8ff" stroke="#63b8ff" points="1027.19,-212.86 1035.2,-219.79 1033.26,-209.38 1027.19,-212.86"/>
</a>
</g>
</g>
<!-- Node22&#45;&gt;Node7 -->
<g id="edge33_Node000022_Node000007" class="edge">
<title>Node22&#45;&gt;Node7</title>
<g id="a_edge33_Node000022_Node000007"><a xlink:title=" ">
<path fill="none" stroke="#63b8ff" d="M612.74,-310.63C543.88,-303.67 451.4,-289.24 428.5,-261 417.02,-246.85 419.91,-236.07 428.5,-220 436.67,-204.71 451.12,-192.9 465.7,-184.18"/>
<polygon fill="#63b8ff" stroke="#63b8ff" points="612.42,-314.12 622.72,-311.6 613.1,-307.15 612.42,-314.12"/>
</a>
</g>
</g>
<!-- Node22&#45;&gt;Node10 -->
<g id="edge34_Node000022_Node000010" class="edge">
<title>Node22&#45;&gt;Node10</title>
<g id="a_edge34_Node000022_Node000010"><a xlink:title=" ">
<path fill="none" stroke="#63b8ff" d="M612.57,-313.28C480.29,-307.06 225.56,-291.28 198.5,-261 186.36,-247.41 194.36,-237.75 198.5,-220 207.17,-182.84 204.62,-163.98 236.5,-143 301.28,-100.37 856.45,-115.78 933.5,-107 944.48,-105.75 956.03,-104.09 967.34,-102.26"/>
<polygon fill="#63b8ff" stroke="#63b8ff" points="612.51,-316.78 622.66,-313.75 612.83,-309.79 612.51,-316.78"/>
</a>
</g>
</g>
<!-- Node22&#45;&gt;Node15 -->
<g id="edge38_Node000022_Node000015" class="edge">
<title>Node22&#45;&gt;Node15</title>
<g id="a_edge38_Node000022_Node000015"><a xlink:title=" ">
<path fill="none" stroke="#63b8ff" d="M691.5,-292.23C691.5,-282.2 691.5,-270.71 691.5,-261.2"/>
<polygon fill="#63b8ff" stroke="#63b8ff" points="688,-292.39 691.5,-302.39 695,-292.39 688,-292.39"/>
</a>
</g>
</g>
<!-- Node22&#45;&gt;Node19 -->
<g id="edge39_Node000022_Node000019" class="edge">
<title>Node22&#45;&gt;Node19</title>
<g id="a_edge39_Node000022_Node000019"><a xlink:title=" ">
<path fill="none" stroke="#63b8ff" d="M770.14,-304.4C787.38,-301.86 805.54,-299.26 822.5,-297 957.8,-278.95 992.03,-277.74 1127.5,-261 1155.31,-257.56 1185.98,-253.63 1212.37,-250.2"/>
<polygon fill="#63b8ff" stroke="#63b8ff" points="769.49,-300.96 760.11,-305.89 770.52,-307.88 769.49,-300.96"/>
</a>
</g>
</g>
<!-- Node23 -->
<g id="Node000023" class="node">
<title>Node23</title>
<g id="a_Node000023"><a xlink:href="_tls_async_transfer_policy_8hpp.html" target="_top" xlink:title=" ">
<polygon fill="white" stroke="#666666" points="151,-261 0,-261 0,-220 151,-220 151,-261"/>
<text text-anchor="start" x="8" y="-249" font-family="Helvetica,sans-Serif" font-size="10.00">include/Hermes/Socket</text>
<text text-anchor="start" x="8" y="-238" font-family="Helvetica,sans-Serif" font-size="10.00">/Async/_base/Transfer</text>
<text text-anchor="middle" x="75.5" y="-227" font-family="Helvetica,sans-Serif" font-size="10.00">/TlsAsyncTransferPolicy.hpp</text>
</a>
</g>
</g>
<!-- Node22&#45;&gt;Node23 -->
<g id="edge35_Node000022_Node000023" class="edge">
<title>Node22&#45;&gt;Node23</title>
<g id="a_edge35_Node000022_Node000023"><a xlink:title=" ">
<path fill="none" stroke="#63b8ff" d="M612.65,-310.86C509.47,-302.86 323.22,-286.33 165.5,-261 160.76,-260.24 155.9,-259.39 151.01,-258.48"/>
<polygon fill="#63b8ff" stroke="#63b8ff" points="612.44,-314.35 622.68,-311.63 612.98,-307.37 612.44,-314.35"/>
</a>
</g>
</g>
<!-- Node24 -->
<g id="Node000024" class="node">
<title>Node24</title>
<g id="a_Node000024"><a xlink:href="_tls_transfer_policy_8hpp.html" target="_top" xlink:title=" ">
<polygon fill="white" stroke="#666666" points="918.5,-261 790.5,-261 790.5,-220 918.5,-220 918.5,-261"/>
<text text-anchor="start" x="798.5" y="-249" font-family="Helvetica,sans-Serif" font-size="10.00">include/Hermes/Socket</text>
<text text-anchor="start" x="798.5" y="-238" font-family="Helvetica,sans-Serif" font-size="10.00">/Sync/_base/Transfer</text>
<text text-anchor="middle" x="854.5" y="-227" font-family="Helvetica,sans-Serif" font-size="10.00">/TlsTransferPolicy.hpp</text>
</a>
</g>
</g>
<!-- Node22&#45;&gt;Node24 -->
<g id="edge40_Node000022_Node000024" class="edge">
<title>Node22&#45;&gt;Node24</title>
<g id="a_edge40_Node000022_Node000024"><a xlink:title=" ">
<path fill="none" stroke="#63b8ff" d="M731.49,-298.1C755.92,-286.86 787.12,-272.5 811.98,-261.06"/>
<polygon fill="#63b8ff" stroke="#63b8ff" points="729.78,-295.03 722.16,-302.39 732.71,-301.39 729.78,-295.03"/>
</a>
</g>
</g>
<!-- Node23&#45;&gt;Node5 -->
<g id="edge37_Node000023_Node000005" class="edge">
<title>Node23&#45;&gt;Node5</title>
<g id="a_edge37_Node000023_Node000005"><a xlink:title=" ">
<path fill="none" stroke="#63b8ff" d="M150.99,-217.12C193.16,-204.62 244.42,-189.42 281,-178.58"/>
<polygon fill="#63b8ff" stroke="#63b8ff" points="149.91,-213.79 141.31,-219.99 151.89,-220.5 149.91,-213.79"/>
</a>
</g>
</g>
<!-- Node23&#45;&gt;Node9 -->
<g id="edge36_Node000023_Node000009" class="edge">
<title>Node23&#45;&gt;Node9</title>
<g id="a_edge36_Node000023_Node000009"><a xlink:title=" ">
<path fill="none" stroke="#63b8ff" d="M89.07,-210.75C109.62,-170.77 152.68,-99.52 212.5,-66 268.37,-34.7 443.64,-22.82 548.65,-18.44"/>
<polygon fill="#63b8ff" stroke="#63b8ff" points="85.92,-209.22 84.57,-219.73 92.18,-212.36 85.92,-209.22"/>
</a>
</g>
</g>
<!-- Node24&#45;&gt;Node13 -->
<g id="edge42_Node000024_Node000013" class="edge">
<title>Node24&#45;&gt;Node13</title>
<g id="a_edge42_Node000024_Node000013"><a xlink:title=" ">
<path fill="none" stroke="#63b8ff" d="M854.9,-209.61C855.04,-199.01 855.19,-187.57 855.31,-178.86"/>
<polygon fill="#63b8ff" stroke="#63b8ff" points="851.4,-209.75 854.76,-219.79 858.4,-209.84 851.4,-209.75"/>
</a>
</g>
</g>
<!-- Node24&#45;&gt;Node18 -->
<g id="edge41_Node000024_Node000018" class="edge">
<title>Node24&#45;&gt;Node18</title>
<g id="a_edge41_Node000024_Node000018"><a xlink:title=" ">
<path fill="none" stroke="#63b8ff" d="M902.25,-215.46C926.33,-203.34 954.71,-189.06 975.29,-178.7"/>
<polygon fill="#63b8ff" stroke="#63b8ff" points="900.62,-212.37 893.26,-219.99 903.76,-218.62 900.62,-212.37"/>
</a>
</g>
</g>
</g>
</svg>
