<?xml version="1.0" encoding="UTF-8" standalone="no"?>
<!DOCTYPE svg PUBLIC "-//W3C//DTD SVG 1.1//EN"
 "http://www.w3.org/Graphics/SVG/1.1/DTD/svg11.dtd">
<!-- Generated by graphviz version 2.43.0 (0)
 -->
<!-- Title: include/Hermes/Endpoint/IpEndpoint/IpEndpoint.hpp Pages: 1 -->
<svg width="1408pt" height="412pt"
 viewBox="0.00 0.00 1408.00 412.00" xmlns="http://www.w3.org/2000/svg" xmlns:xlink="http://www.w3.org/1999/xlink">
<g id="graph0" class="graph" transform="scale(1 1) rotate(0) translate(4 408)">
<title>include/Hermes/Endpoint/IpEndpoint/IpEndpoint.hpp</title>
<!-- Node1 -->
<g id="Node000001" class="node">
<title>Node1</title>
<g id="a_Node000001"><a xlink:title=" ">
<polygon fill="#999999" stroke="#666666" points="951,-404 804,-404 804,-374 951,-374 951,-404"/>
<text text-anchor="start" x="812" y="-392" font-family="Helvetica,sans-Serif" font-size="10.00">include/Hermes/Endpoint</text>
<text text-anchor="middle" x="877.5" y="-381" font-family="Helvetica,sans-Serif" font-size="10.00">/IpEndpoint/IpEndpoint.hpp</text>
</a>
</g>
</g>
<!-- Node2 -->
<g id="Node000002" class="node">
<title>Node2</title>
<g id="a_Node000002"><a xlink:href="_default_socket_data_8hpp.html" target="_top" xlink:title=" ">
<polygon fill="white" stroke="#666666" points="681.5,-338 523.5,-338 523.5,-308 681.5,-308 681.5,-338"/>
<text text-anchor="start" x="531.5" y="-326" font-family="Helvetica,sans-Serif" font-size="10.00">include/Hermes/Socket</text>
<text text-anchor="middle" x="602.5" y="-315" font-family="Helvetica,sans-Serif" font-size="10.00">/Data/DefaultSocketData.hpp</text>
</a>
</g>
</g>
<!-- Node1&#45;&gt;Node2 -->
<g id="edge1_Node000001_Node000002" class="edge">
<title>Node1&#45;&gt;Node2</title>
<g id="a_edge1_Node000001_Node000002"><a xlink:title=" ">
<path fill="none" stroke="#63b8ff" d="M807.24,-371.65C762.56,-361.25 705.3,-347.93 662.71,-338.01"/>
<polygon fill="#63b8ff" stroke="#63b8ff" points="806.62,-375.1 817.15,-373.95 808.2,-368.28 806.62,-375.1"/>
</a>
</g>
</g>
<!-- Node16 -->
<g id="Node000016" class="node">
<title>Node16</title>
<g id="a_Node000016"><a xlink:href="_default_connect_policy_8hpp.html" target="_top" xlink:title=" ">
<polygon fill="white" stroke="#666666" points="874.5,-272 730.5,-272 730.5,-231 874.5,-231 874.5,-272"/>
<text text-anchor="start" x="738.5" y="-260" font-family="Helvetica,sans-Serif" font-size="10.00">include/Hermes/Socket</text>
<text text-anchor="start" x="738.5" y="-249" font-family="Helvetica,sans-Serif" font-size="10.00">/Sync/_base/Connection</text>
<text text-anchor="middle" x="802.5" y="-238" font-family="Helvetica,sans-Serif" font-size="10.00">/DefaultConnectPolicy.hpp</text>
</a>
</g>
</g>
<!-- Node1&#45;&gt;Node16 -->
<g id="edge35_Node000001_Node000016" class="edge">
<title>Node1&#45;&gt;Node16</title>
<g id="a_edge35_Node000001_Node000016"><a xlink:title=" ">
<path fill="none" stroke="#63b8ff" d="M864.73,-364.93C850.29,-338.84 827.03,-296.82 813.41,-272.21"/>
<polygon fill="#63b8ff" stroke="#63b8ff" points="861.71,-366.7 869.62,-373.76 867.83,-363.31 861.71,-366.7"/>
</a>
</g>
</g>
<!-- Node18 -->
<g id="Node000018" class="node">
<title>Node18</title>
<g id="a_Node000018"><a xlink:href="_tls_connect_policy_8hpp.html" target="_top" xlink:title=" ">
<polygon fill="white" stroke="#666666" points="1046.5,-195 914.5,-195 914.5,-154 1046.5,-154 1046.5,-195"/>
<text text-anchor="start" x="922.5" y="-183" font-family="Helvetica,sans-Serif" font-size="10.00">include/Hermes/Socket</text>
<text text-anchor="start" x="922.5" y="-172" font-family="Helvetica,sans-Serif" font-size="10.00">/Sync/_base/Connection</text>
<text text-anchor="middle" x="980.5" y="-161" font-family="Helvetica,sans-Serif" font-size="10.00">/TlsConnectPolicy.hpp</text>
</a>
</g>
</g>
<!-- Node1&#45;&gt;Node18 -->
<g id="edge36_Node000001_Node000018" class="edge">
<title>Node1&#45;&gt;Node18</title>
<g id="a_edge36_Node000001_Node000018"><a xlink:title=" ">
<path fill="none" stroke="#63b8ff" d="M880.44,-363.66C885.21,-331.37 896.82,-273.52 922.5,-231 930.71,-217.4 943.11,-204.91 954.34,-195.23"/>
<polygon fill="#63b8ff" stroke="#63b8ff" points="876.98,-363.18 879.08,-373.57 883.91,-364.14 876.98,-363.18"/>
</a>
</g>
</g>
<!-- Node21 -->
<g id="Node000021" class="node">
<title>Node21</title>
<g id="a_Node000021"><a xlink:href="_tls_socket_data_8hpp.html" target="_top" xlink:title=" ">
<polygon fill="white" stroke="#666666" points="1068,-266.5 931,-266.5 931,-236.5 1068,-236.5 1068,-266.5"/>
<text text-anchor="start" x="939" y="-254.5" font-family="Helvetica,sans-Serif" font-size="10.00">include/Hermes/Socket</text>
<text text-anchor="middle" x="999.5" y="-243.5" font-family="Helvetica,sans-Serif" font-size="10.00">/Data/TlsSocketData.hpp</text>
</a>
</g>
</g>
<!-- Node1&#45;&gt;Node21 -->
<g id="edge28_Node000001_Node000021" class="edge">
<title>Node1&#45;&gt;Node21</title>
<g id="a_edge28_Node000001_Node000021"><a xlink:title=" ">
<path fill="none" stroke="#63b8ff" d="M897.25,-366.06C922.53,-337.99 965.58,-290.17 986.85,-266.55"/>
<polygon fill="#63b8ff" stroke="#63b8ff" points="894.42,-363.98 890.33,-373.76 899.62,-368.67 894.42,-363.98"/>
</a>
</g>
</g>
<!-- Node3 -->
<g id="Node000003" class="node">
<title>Node3</title>
<g id="a_Node000003"><a xlink:href="_default_async_accept_policy_8hpp.html" target="_top" xlink:title=" ">
<polygon fill="white" stroke="#666666" points="346,-195 191,-195 191,-154 346,-154 346,-195"/>
<text text-anchor="start" x="199" y="-183" font-family="Helvetica,sans-Serif" font-size="10.00">include/Hermes/Socket</text>
<text text-anchor="start" x="199" y="-172" font-family="Helvetica,sans-Serif" font-size="10.00">/Async/_base/Accept/Default</text>
<text text-anchor="middle" x="268.5" y="-161" font-family="Helvetica,sans-Serif" font-size="10.00">AsyncAcceptPolicy.hpp</text>
</a>
</g>
</g>
<!-- Node2&#45;&gt;Node3 -->
<g id="edge2_Node000002_Node000003" class="edge">
<title>Node2&#45;&gt;Node3</title>
<g id="a_edge2_Node000002_Node000003"><a xlink:title=" ">
<path fill="none" stroke="#63b8ff" d="M513.23,-314.51C442.83,-307.08 351.67,-293.65 321.5,-272 295.41,-253.28 280.74,-217.57 273.73,-195.23"/>
<polygon fill="#63b8ff" stroke="#63b8ff" points="513.15,-318.02 523.45,-315.56 513.86,-311.05 513.15,-318.02"/>
</a>
</g>
</g>
<!-- Node7 -->
<g id="Node000007" class="node">
<title>Node7</title>
<g id="a_Node000007"><a xlink:href="_default_async_connect_policy_8hpp.html" target="_top" xlink:title=" ">
<polygon fill="white" stroke="#666666" points="973,-118 800,-118 800,-77 973,-77 973,-118"/>
<text text-anchor="start" x="808" y="-106" font-family="Helvetica,sans-Serif" font-size="10.00">include/Hermes/Socket</text>
<text text-anchor="start" x="808" y="-95" font-family="Helvetica,sans-Serif" font-size="10.00">/Async/_base/Connection</text>
<text text-anchor="middle" x="886.5" y="-84" font-family="Helvetica,sans-Serif" font-size="10.00">/DefaultAsyncConnectPolicy.hpp</text>
</a>
</g>
</g>
<!-- Node2&#45;&gt;Node7 -->
<g id="edge6_Node000002_Node000007" class="edge">
<title>Node2&#45;&gt;Node7</title>
<g id="a_edge6_Node000002_Node000007"><a xlink:title=" ">
<path fill="none" stroke="#63b8ff" d="M645.38,-303.04C659.17,-295.15 673.47,-284.8 683.5,-272 717.48,-228.63 682.79,-193.21 721.5,-154 734.19,-141.15 770.98,-128.2 806.61,-118.05"/>
<polygon fill="#63b8ff" stroke="#63b8ff" points="643.57,-300.04 636.44,-307.88 646.9,-306.2 643.57,-300.04"/>
</a>
</g>
</g>
<!-- Node10 -->
<g id="Node000010" class="node">
<title>Node10</title>
<g id="a_Node000010"><a xlink:href="_default_async_transfer_policy_8hpp.html" target="_top" xlink:title=" ">
<polygon fill="white" stroke="#666666" points="173,-195 0,-195 0,-154 173,-154 173,-195"/>
<text text-anchor="start" x="8" y="-183" font-family="Helvetica,sans-Serif" font-size="10.00">include/Hermes/Socket</text>
<text text-anchor="start" x="8" y="-172" font-family="Helvetica,sans-Serif" font-size="10.00">/Async/_base/Transfer</text>
<text text-anchor="middle" x="86.5" y="-161" font-family="Helvetica,sans-Serif" font-size="10.00">/DefaultAsyncTransferPolicy.hpp</text>
</a>
</g>
</g>
<!-- Node2&#45;&gt;Node10 -->
<g id="edge9_Node000002_Node000010" class="edge">
<title>Node2&#45;&gt;Node10</title>
<g id="a_edge9_Node000002_Node000010"><a xlink:title=" ">
<path fill="none" stroke="#63b8ff" d="M513.36,-314.91C449.17,-308.13 361.1,-295.34 286.5,-272 224.69,-252.66 157.87,-217.14 119.24,-195.01"/>
<polygon fill="#63b8ff" stroke="#63b8ff" points="513.14,-318.41 523.45,-315.95 513.86,-311.45 513.14,-318.41"/>
</a>
</g>
</g>
<!-- Node11 -->
<g id="Node000011" class="node">
<title>Node11</title>
<g id="a_Node000011"><a xlink:href="_default_accept_policy_8hpp.html" target="_top" xlink:title=" ">
<polygon fill="white" stroke="#666666" points="512.5,-272 330.5,-272 330.5,-231 512.5,-231 512.5,-272"/>
<text text-anchor="start" x="338.5" y="-260" font-family="Helvetica,sans-Serif" font-size="10.00">include/Hermes/Socket</text>
<text text-anchor="start" x="338.5" y="-249" font-family="Helvetica,sans-Serif" font-size="10.00">/Sync/_base/Accept/DefaultAccept</text>
<text text-anchor="middle" x="421.5" y="-238" font-family="Helvetica,sans-Serif" font-size="10.00">Policy.hpp</text>
</a>
</g>
</g>
<!-- Node2&#45;&gt;Node11 -->
<g id="edge12_Node000002_Node000011" class="edge">
<title>Node2&#45;&gt;Node11</title>
<g id="a_edge12_Node000002_Node000011"><a xlink:title=" ">
<path fill="none" stroke="#63b8ff" d="M556.39,-304.29C530.77,-294.46 498.84,-282.2 472.48,-272.07"/>
<polygon fill="#63b8ff" stroke="#63b8ff" points="555.28,-307.62 565.87,-307.94 557.79,-301.08 555.28,-307.62"/>
</a>
</g>
</g>
<!-- Node2&#45;&gt;Node16 -->
<g id="edge19_Node000002_Node000016" class="edge">
<title>Node2&#45;&gt;Node16</title>
<g id="a_edge19_Node000002_Node000016"><a xlink:title=" ">
<path fill="none" stroke="#63b8ff" d="M652.71,-304.55C681.14,-294.67 716.79,-282.28 746.17,-272.07"/>
<polygon fill="#63b8ff" stroke="#63b8ff" points="651.27,-301.35 642.97,-307.94 653.57,-307.96 651.27,-301.35"/>
</a>
</g>
</g>
<!-- Node20 -->
<g id="Node000020" class="node">
<title>Node20</title>
<g id="a_Node000020"><a xlink:href="_default_transfer_policy_8hpp.html" target="_top" xlink:title=" ">
<polygon fill="white" stroke="#666666" points="674,-272 531,-272 531,-231 674,-231 674,-272"/>
<text text-anchor="start" x="539" y="-260" font-family="Helvetica,sans-Serif" font-size="10.00">include/Hermes/Socket</text>
<text text-anchor="start" x="539" y="-249" font-family="Helvetica,sans-Serif" font-size="10.00">/Sync/_base/Transfer</text>
<text text-anchor="middle" x="602.5" y="-238" font-family="Helvetica,sans-Serif" font-size="10.00">/DefaultTransferPolicy.hpp</text>
</a>
</g>
</g>
<!-- Node2&#45;&gt;Node20 -->
<g id="edge25_Node000002_Node000020" class="edge">
<title>Node2&#45;&gt;Node20</title>
<g id="a_edge25_Node000002_Node000020"><a xlink:title=" ">
<path fill="none" stroke="#63b8ff" d="M602.5,-297.91C602.5,-289.47 602.5,-280.1 602.5,-272.07"/>
<polygon fill="#63b8ff" stroke="#63b8ff" points="599,-297.94 602.5,-307.94 606,-297.94 599,-297.94"/>
</a>
</g>
</g>
<!-- Node4 -->
<g id="Node000004" class="node">
<title>Node4</title>
<g id="a_Node000004"><a xlink:href="_async_server_socket_8hpp.html" target="_top" xlink:title=" ">
<polygon fill="white" stroke="#666666" points="265.5,-112.5 99.5,-112.5 99.5,-82.5 265.5,-82.5 265.5,-112.5"/>
<text text-anchor="start" x="107.5" y="-100.5" font-family="Helvetica,sans-Serif" font-size="10.00">include/Hermes/Socket</text>
<text text-anchor="middle" x="182.5" y="-89.5" font-family="Helvetica,sans-Serif" font-size="10.00">/Async/AsyncServerSocket.hpp</text>
</a>
</g>
</g>
<!-- Node3&#45;&gt;Node4 -->
<g id="edge3_Node000003_Node000004" class="edge">
<title>Node3&#45;&gt;Node4</title>
<g id="a_edge3_Node000003_Node000004"><a xlink:title=" ">
<path fill="none" stroke="#63b8ff" d="M238.31,-147.17C224.98,-135.55 209.84,-122.34 198.7,-112.63"/>
<polygon fill="#63b8ff" stroke="#63b8ff" points="236.07,-149.86 245.9,-153.79 240.67,-144.58 236.07,-149.86"/>
</a>
</g>
</g>
<!-- Node6 -->
<g id="Node000006" class="node">
<title>Node6</title>
<g id="a_Node000006"><a xlink:href="_tls_async_accept_policy_8hpp.html" target="_top" xlink:title=" ">
<polygon fill="white" stroke="#666666" points="603,-118 440,-118 440,-77 603,-77 603,-118"/>
<text text-anchor="start" x="448" y="-106" font-family="Helvetica,sans-Serif" font-size="10.00">include/Hermes/Socket</text>
<text text-anchor="start" x="448" y="-95" font-family="Helvetica,sans-Serif" font-size="10.00">/Async/_base/Accept/TlsAsync</text>
<text text-anchor="middle" x="521.5" y="-84" font-family="Helvetica,sans-Serif" font-size="10.00">AcceptPolicy.hpp</text>
</a>
</g>
</g>
<!-- Node3&#45;&gt;Node6 -->
<g id="edge5_Node000003_Node000006" class="edge">
<title>Node3&#45;&gt;Node6</title>
<g id="a_edge5_Node000003_Node000006"><a xlink:title=" ">
<path fill="none" stroke="#63b8ff" d="M344.13,-151.08C379.58,-140.57 421.44,-128.16 455.58,-118.04"/>
<polygon fill="#63b8ff" stroke="#63b8ff" points="342.91,-147.79 334.31,-153.99 344.89,-154.5 342.91,-147.79"/>
</a>
</g>
</g>
<!-- Node5 -->
<g id="Node000005" class="node">
<title>Node5</title>
<g id="a_Node000005"><a xlink:href="_async_listener_socket_8hpp.html" target="_top" xlink:title=" ">
<polygon fill="white" stroke="#666666" points="269,-35.5 96,-35.5 96,-5.5 269,-5.5 269,-35.5"/>
<text text-anchor="start" x="104" y="-23.5" font-family="Helvetica,sans-Serif" font-size="10.00">include/Hermes/Socket</text>
<text text-anchor="middle" x="182.5" y="-12.5" font-family="Helvetica,sans-Serif" font-size="10.00">/Async/AsyncListenerSocket.hpp</text>
</a>
</g>
</g>
<!-- Node4&#45;&gt;Node5 -->
<g id="edge4_Node000004_Node000005" class="edge">
<title>Node4&#45;&gt;Node5</title>
<g id="a_edge4_Node000004_Node000005"><a xlink:title=" ">
<path fill="none" stroke="#63b8ff" d="M182.5,-72.04C182.5,-59.95 182.5,-45.79 182.5,-35.54"/>
<polygon fill="#63b8ff" stroke="#63b8ff" points="179,-72.39 182.5,-82.39 186,-72.39 179,-72.39"/>
</a>
</g>
</g>
<!-- Node8 -->
<g id="Node000008" class="node">
<title>Node8</title>
<g id="a_Node000008"><a xlink:href="_async_client_socket_8hpp.html" target="_top" xlink:title=" ">
<polygon fill="white" stroke="#666666" points="709,-35.5 546,-35.5 546,-5.5 709,-5.5 709,-35.5"/>
<text text-anchor="start" x="554" y="-23.5" font-family="Helvetica,sans-Serif" font-size="10.00">include/Hermes/Socket</text>
<text text-anchor="middle" x="627.5" y="-12.5" font-family="Helvetica,sans-Serif" font-size="10.00">/Async/AsyncClientSocket.hpp</text>
</a>
</g>
</g>
<!-- Node7&#45;&gt;Node8 -->
<g id="edge7_Node000007_Node000008" class="edge">
<title>Node7&#45;&gt;Node8</title>
<g id="a_edge7_Node000007_Node000008"><a xlink:title=" ">
<path fill="none" stroke="#63b8ff" d="M809.49,-74.2C766.27,-61.68 713.65,-46.45 676.13,-35.58"/>
<polygon fill="#63b8ff" stroke="#63b8ff" points="808.55,-77.57 819.13,-76.99 810.5,-70.85 808.55,-77.57"/>
</a>
</g>
</g>
<!-- Node9 -->
<g id="Node000009" class="node">
<title>Node9</title>
<g id="a_Node000009"><a xlink:href="_tls_async_connect_policy_8hpp.html" target="_top" xlink:title=" ">
<polygon fill="white" stroke="#666666" points="1258.5,-41 1106.5,-41 1106.5,0 1258.5,0 1258.5,-41"/>
<text text-anchor="start" x="1114.5" y="-29" font-family="Helvetica,sans-Serif" font-size="10.00">include/Hermes/Socket</text>
<text text-anchor="start" x="1114.5" y="-18" font-family="Helvetica,sans-Serif" font-size="10.00">/Async/_base/Connection</text>
<text text-anchor="middle" x="1182.5" y="-7" font-family="Helvetica,sans-Serif" font-size="10.00">/TlsAsyncConnectPolicy.hpp</text>
</a>
</g>
</g>
<!-- Node7&#45;&gt;Node9 -->
<g id="edge8_Node000007_Node000009" class="edge">
<title>Node7&#45;&gt;Node9</title>
<g id="a_edge8_Node000007_Node000009"><a xlink:title=" ">
<path fill="none" stroke="#63b8ff" d="M973.21,-74.53C1015.41,-63.84 1065.7,-51.09 1106.4,-40.78"/>
<polygon fill="#63b8ff" stroke="#63b8ff" points="972.33,-71.14 963.5,-76.99 974.05,-77.93 972.33,-71.14"/>
</a>
</g>
</g>
<!-- Node10&#45;&gt;Node4 -->
<g id="edge11_Node000010_Node000004" class="edge">
<title>Node10&#45;&gt;Node4</title>
<g id="a_edge11_Node000010_Node000004"><a xlink:title=" ">
<path fill="none" stroke="#63b8ff" d="M119.54,-147.69C134.54,-135.97 151.71,-122.56 164.32,-112.7"/>
<polygon fill="#63b8ff" stroke="#63b8ff" points="117.2,-145.08 111.47,-153.99 121.51,-150.59 117.2,-145.08"/>
</a>
</g>
</g>
<!-- Node10&#45;&gt;Node8 -->
<g id="edge10_Node000010_Node000008" class="edge">
<title>Node10&#45;&gt;Node8</title>
<g id="a_edge10_Node000010_Node000008"><a xlink:title=" ">
<path fill="none" stroke="#63b8ff" d="M78.52,-143.75C74.75,-122.4 74.11,-94.43 90.5,-77 105.89,-60.63 399.5,-37.65 545.91,-27.14"/>
<polygon fill="#63b8ff" stroke="#63b8ff" points="75.11,-144.54 80.57,-153.62 81.97,-143.12 75.11,-144.54"/>
</a>
</g>
</g>
<!-- Node11&#45;&gt;Node3 -->
<g id="edge13_Node000011_Node000003" class="edge">
<title>Node11&#45;&gt;Node3</title>
<g id="a_edge13_Node000011_Node000003"><a xlink:title=" ">
<path fill="none" stroke="#63b8ff" d="M372.71,-226.59C351.95,-216.41 328.04,-204.69 308.37,-195.04"/>
<polygon fill="#63b8ff" stroke="#63b8ff" points="371.18,-229.73 381.7,-230.99 374.26,-223.45 371.18,-229.73"/>
</a>
</g>
</g>
<!-- Node12 -->
<g id="Node000012" class="node">
<title>Node12</title>
<g id="a_Node000012"><a xlink:href="_server_socket_8hpp.html" target="_top" xlink:title=" ">
<polygon fill="white" stroke="#666666" points="495,-189.5 364,-189.5 364,-159.5 495,-159.5 495,-189.5"/>
<text text-anchor="start" x="372" y="-177.5" font-family="Helvetica,sans-Serif" font-size="10.00">include/Hermes/Socket</text>
<text text-anchor="middle" x="429.5" y="-166.5" font-family="Helvetica,sans-Serif" font-size="10.00">/Sync/ServerSocket.hpp</text>
</a>
</g>
</g>
<!-- Node11&#45;&gt;Node12 -->
<g id="edge14_Node000011_Node000012" class="edge">
<title>Node11&#45;&gt;Node12</title>
<g id="a_edge14_Node000011_Node000012"><a xlink:title=" ">
<path fill="none" stroke="#63b8ff" d="M424.69,-220.61C425.82,-210.01 427.04,-198.57 427.97,-189.86"/>
<polygon fill="#63b8ff" stroke="#63b8ff" points="421.18,-220.48 423.6,-230.79 428.14,-221.22 421.18,-220.48"/>
</a>
</g>
</g>
<!-- Node14 -->
<g id="Node000014" class="node">
<title>Node14</title>
<g id="a_Node000014"><a xlink:href="_tls_accept_policy_8hpp.html" target="_top" xlink:title=" ">
<polygon fill="white" stroke="#666666" points="674,-195 513,-195 513,-154 674,-154 674,-195"/>
<text text-anchor="start" x="521" y="-183" font-family="Helvetica,sans-Serif" font-size="10.00">include/Hermes/Socket</text>
<text text-anchor="start" x="521" y="-172" font-family="Helvetica,sans-Serif" font-size="10.00">/Sync/_base/Accept/TlsAccept</text>
<text text-anchor="middle" x="593.5" y="-161" font-family="Helvetica,sans-Serif" font-size="10.00">Policy.hpp</text>
</a>
</g>
</g>
<!-- Node11&#45;&gt;Node14 -->
<g id="edge16_Node000011_Node000014" class="edge">
<title>Node11&#45;&gt;Node14</title>
<g id="a_edge16_Node000011_Node000014"><a xlink:title=" ">
<path fill="none" stroke="#63b8ff" d="M475.72,-226.86C499.2,-216.62 526.36,-204.77 548.68,-195.04"/>
<polygon fill="#63b8ff" stroke="#63b8ff" points="474.01,-223.79 466.24,-230.99 476.81,-230.2 474.01,-223.79"/>
</a>
</g>
</g>
<!-- Node13 -->
<g id="Node000013" class="node">
<title>Node13</title>
<g id="a_Node000013"><a xlink:href="_listener_socket_8hpp.html" target="_top" xlink:title=" ">
<polygon fill="white" stroke="#666666" points="421.5,-112.5 283.5,-112.5 283.5,-82.5 421.5,-82.5 421.5,-112.5"/>
<text text-anchor="start" x="291.5" y="-100.5" font-family="Helvetica,sans-Serif" font-size="10.00">include/Hermes/Socket</text>
<text text-anchor="middle" x="352.5" y="-89.5" font-family="Helvetica,sans-Serif" font-size="10.00">/Sync/ListenerSocket.hpp</text>
</a>
</g>
</g>
<!-- Node12&#45;&gt;Node13 -->
<g id="edge15_Node000012_Node000013" class="edge">
<title>Node12&#45;&gt;Node13</title>
<g id="a_edge15_Node000012_Node000013"><a xlink:title=" ">
<path fill="none" stroke="#63b8ff" d="M407.75,-152.32C394.68,-139.58 378.41,-123.74 366.92,-112.54"/>
<polygon fill="#63b8ff" stroke="#63b8ff" points="405.41,-154.92 415.02,-159.39 410.3,-149.91 405.41,-154.92"/>
</a>
</g>
</g>
<!-- Node14&#45;&gt;Node6 -->
<g id="edge17_Node000014_Node000006" class="edge">
<title>Node14&#45;&gt;Node6</title>
<g id="a_edge17_Node000014_Node000006"><a xlink:title=" ">
<path fill="none" stroke="#63b8ff" d="M567.59,-146.51C558.57,-137.11 548.63,-126.76 540.29,-118.07"/>
<polygon fill="#63b8ff" stroke="#63b8ff" points="565.13,-149 574.58,-153.79 570.18,-144.16 565.13,-149"/>
</a>
</g>
</g>
<!-- Node15 -->
<g id="Node000015" class="node">
<title>Node15</title>
<g id="a_Node000015"><a xlink:href="_tls_accept_state_machine_8hpp.html" target="_top" xlink:title=" ">
<polygon fill="white" stroke="#666666" points="781.5,-118 621.5,-118 621.5,-77 781.5,-77 781.5,-118"/>
<text text-anchor="start" x="629.5" y="-106" font-family="Helvetica,sans-Serif" font-size="10.00">include/Hermes/Socket</text>
<text text-anchor="start" x="629.5" y="-95" font-family="Helvetica,sans-Serif" font-size="10.00">/_base/Accept/TlsAcceptState</text>
<text text-anchor="middle" x="701.5" y="-84" font-family="Helvetica,sans-Serif" font-size="10.00">Machine.hpp</text>
</a>
</g>
</g>
<!-- Node14&#45;&gt;Node15 -->
<g id="edge18_Node000014_Node000015" class="edge">
<title>Node14&#45;&gt;Node15</title>
<g id="a_edge18_Node000014_Node000015"><a xlink:title=" ">
<path fill="none" stroke="#63b8ff" d="M630.09,-148.09C644.16,-138.32 659.99,-127.32 673.17,-118.17"/>
<polygon fill="#63b8ff" stroke="#63b8ff" points="627.81,-145.41 621.59,-153.99 631.8,-151.16 627.81,-145.41"/>
</a>
</g>
</g>
<!-- Node17 -->
<g id="Node000017" class="node">
<title>Node17</title>
<g id="a_Node000017"><a xlink:href="_client_socket_8hpp.html" target="_top" xlink:title=" ">
<polygon fill="white" stroke="#666666" points="858.5,-189.5 730.5,-189.5 730.5,-159.5 858.5,-159.5 858.5,-189.5"/>
<text text-anchor="start" x="738.5" y="-177.5" font-family="Helvetica,sans-Serif" font-size="10.00">include/Hermes/Socket</text>
<text text-anchor="middle" x="794.5" y="-166.5" font-family="Helvetica,sans-Serif" font-size="10.00">/Sync/ClientSocket.hpp</text>
</a>
</g>
</g>
<!-- Node16&#45;&gt;Node17 -->
<g id="edge20_Node000016_Node000017" class="edge">
<title>Node16&#45;&gt;Node17</title>
<g id="a_edge20_Node000016_Node000017"><a xlink:title=" ">
<path fill="none" stroke="#63b8ff" d="M799.31,-220.61C798.18,-210.01 796.96,-198.57 796.03,-189.86"/>
<polygon fill="#63b8ff" stroke="#63b8ff" points="795.86,-221.22 800.4,-230.79 802.82,-220.48 795.86,-221.22"/>
</a>
</g>
</g>
<!-- Node16&#45;&gt;Node18 -->
<g id="edge21_Node000016_Node000018" class="edge">
<title>Node16&#45;&gt;Node18</title>
<g id="a_edge21_Node000016_Node000018"><a xlink:title=" ">
<path fill="none" stroke="#63b8ff" d="M858.28,-227C882.66,-216.72 910.92,-204.82 934.12,-195.04"/>
<polygon fill="#63b8ff" stroke="#63b8ff" points="856.66,-223.88 848.8,-230.99 859.38,-230.33 856.66,-223.88"/>
</a>
</g>
</g>
<!-- Node18&#45;&gt;Node7 -->
<g id="edge22_Node000018_Node000007" class="edge">
<title>Node18&#45;&gt;Node7</title>
<g id="a_edge22_Node000018_Node000007"><a xlink:title=" ">
<path fill="none" stroke="#63b8ff" d="M947.72,-147.35C935.67,-137.73 922.24,-127.01 911.03,-118.07"/>
<polygon fill="#63b8ff" stroke="#63b8ff" points="945.8,-150.29 955.8,-153.79 950.17,-144.82 945.8,-150.29"/>
</a>
</g>
</g>
<!-- Node18&#45;&gt;Node9 -->
<g id="edge23_Node000018_Node000009" class="edge">
<title>Node18&#45;&gt;Node9</title>
<g id="a_edge23_Node000018_Node000009"><a xlink:title=" ">
<path fill="none" stroke="#63b8ff" d="M1056.67,-152.32C1105.16,-138.53 1159.6,-122.31 1163.5,-118 1182.52,-96.98 1184.86,-62.64 1184.16,-41.1"/>
<polygon fill="#63b8ff" stroke="#63b8ff" points="1055.41,-149.04 1046.75,-155.14 1057.32,-155.78 1055.41,-149.04"/>
</a>
</g>
</g>
<!-- Node19 -->
<g id="Node000019" class="node">
<title>Node19</title>
<g id="a_Node000019"><a xlink:href="_tls_connect_state_machine_8hpp.html" target="_top" xlink:title=" ">
<polygon fill="white" stroke="#666666" points="1154,-118 991,-118 991,-77 1154,-77 1154,-118"/>
<text text-anchor="start" x="999" y="-106" font-family="Helvetica,sans-Serif" font-size="10.00">include/Hermes/Socket</text>
<text text-anchor="start" x="999" y="-95" font-family="Helvetica,sans-Serif" font-size="10.00">/_base/Connection/TlsConnect</text>
<text text-anchor="middle" x="1072.5" y="-84" font-family="Helvetica,sans-Serif" font-size="10.00">StateMachine.hpp</text>
</a>
</g>
</g>
<!-- Node18&#45;&gt;Node19 -->
<g id="edge24_Node000018_Node000019" class="edge">
<title>Node18&#45;&gt;Node19</title>
<g id="a_edge24_Node000018_Node000019"><a xlink:title=" ">
<path fill="none" stroke="#63b8ff" d="M1012.58,-147.35C1024.38,-137.73 1037.52,-127.01 1048.49,-118.07"/>
<polygon fill="#63b8ff" stroke="#63b8ff" points="1010.21,-144.76 1004.67,-153.79 1014.63,-150.19 1010.21,-144.76"/>
</a>
</g>
</g>
<!-- Node20&#45;&gt;Node12 -->
<g id="edge27_Node000020_Node000012" class="edge">
<title>Node20&#45;&gt;Node12</title>
<g id="a_edge27_Node000020_Node000012"><a xlink:title=" ">
<path fill="none" stroke="#63b8ff" d="M548.13,-226.93C519.84,-214.66 486.2,-200.08 461.98,-189.58"/>
<polygon fill="#63b8ff" stroke="#63b8ff" points="546.93,-230.22 557.5,-230.99 549.72,-223.8 546.93,-230.22"/>
</a>
</g>
</g>
<!-- Node20&#45;&gt;Node17 -->
<g id="edge26_Node000020_Node000017" class="edge">
<title>Node20&#45;&gt;Node17</title>
<g id="a_edge26_Node000020_Node000017"><a xlink:title=" ">
<path fill="none" stroke="#63b8ff" d="M662.02,-227.25C693.59,-214.92 731.34,-200.17 758.45,-189.58"/>
<polygon fill="#63b8ff" stroke="#63b8ff" points="660.49,-224.09 652.44,-230.99 663.03,-230.61 660.49,-224.09"/>
</a>
</g>
</g>
<!-- Node21&#45;&gt;Node6 -->
<g id="edge29_Node000021_Node000006" class="edge">
<title>Node21&#45;&gt;Node6</title>
<g id="a_edge29_Node000021_Node000006"><a xlink:title=" ">
<path fill="none" stroke="#63b8ff" d="M961.96,-231.62C944.07,-221.82 922.84,-208.98 905.5,-195 886.16,-179.41 889.52,-165.51 867.5,-154 766.07,-100.96 725.2,-138 612.5,-118 609.48,-117.46 606.4,-116.9 603.3,-116.31"/>
<polygon fill="#63b8ff" stroke="#63b8ff" points="960.51,-234.81 970.98,-236.46 963.82,-228.64 960.51,-234.81"/>
</a>
</g>
</g>
<!-- Node21&#45;&gt;Node9 -->
<g id="edge30_Node000021_Node000009" class="edge">
<title>Node21&#45;&gt;Node9</title>
<g id="a_edge30_Node000021_Node000009"><a xlink:title=" ">
<path fill="none" stroke="#63b8ff" d="M1077.93,-238.91C1127.95,-229.73 1186.18,-215.1 1201.5,-195 1236.4,-149.21 1209.03,-75.82 1192.6,-41.02"/>
<polygon fill="#63b8ff" stroke="#63b8ff" points="1077.28,-235.47 1068.05,-240.67 1078.51,-242.36 1077.28,-235.47"/>
</a>
</g>
</g>
<!-- Node21&#45;&gt;Node14 -->
<g id="edge32_Node000021_Node000014" class="edge">
<title>Node21&#45;&gt;Node14</title>
<g id="a_edge32_Node000021_Node000014"><a xlink:title=" ">
<path fill="none" stroke="#63b8ff" d="M920.4,-235.89C849.42,-222.78 745.72,-203.62 674.25,-190.42"/>
<polygon fill="#63b8ff" stroke="#63b8ff" points="920.16,-239.4 930.63,-237.78 921.43,-232.52 920.16,-239.4"/>
</a>
</g>
</g>
<!-- Node21&#45;&gt;Node18 -->
<g id="edge33_Node000021_Node000018" class="edge">
<title>Node21&#45;&gt;Node18</title>
<g id="a_edge33_Node000021_Node000018"><a xlink:title=" ">
<path fill="none" stroke="#63b8ff" d="M993.43,-226.55C990.87,-216.44 987.92,-204.81 985.49,-195.2"/>
<polygon fill="#63b8ff" stroke="#63b8ff" points="990.08,-227.56 995.93,-236.39 996.86,-225.84 990.08,-227.56"/>
</a>
</g>
</g>
<!-- Node22 -->
<g id="Node000022" class="node">
<title>Node22</title>
<g id="a_Node000022"><a xlink:href="_tls_async_transfer_policy_8hpp.html" target="_top" xlink:title=" ">
<polygon fill="white" stroke="#666666" points="1400,-195 1249,-195 1249,-154 1400,-154 1400,-195"/>
<text text-anchor="start" x="1257" y="-183" font-family="Helvetica,sans-Serif" font-size="10.00">include/Hermes/Socket</text>
<text text-anchor="start" x="1257" y="-172" font-family="Helvetica,sans-Serif" font-size="10.00">/Async/_base/Transfer</text>
<text text-anchor="middle" x="1324.5" y="-161" font-family="Helvetica,sans-Serif" font-size="10.00">/TlsAsyncTransferPolicy.hpp</text>
</a>
</g>
</g>
<!-- Node21&#45;&gt;Node22 -->
<g id="edge31_Node000021_Node000022" class="edge">
<title>Node21&#45;&gt;Node22</title>
<g id="a_edge31_Node000021_Node000022"><a xlink:title=" ">
<path fill="none" stroke="#63b8ff" d="M1070.2,-234.18C1122.98,-222.01 1194.97,-205.39 1248.89,-192.95"/>
<polygon fill="#63b8ff" stroke="#63b8ff" points="1069.21,-230.82 1060.25,-236.48 1070.78,-237.64 1069.21,-230.82"/>
</a>
</g>
</g>
<!-- Node23 -->
<g id="Node000023" class="node">
<title>Node23</title>
<g id="a_Node000023"><a xlink:href="_tls_transfer_policy_8hpp.html" target="_top" xlink:title=" ">
<polygon fill="white" stroke="#666666" points="1192.5,-195 1064.5,-195 1064.5,-154 1192.5,-154 1192.5,-195"/>
<text text-anchor="start" x="1072.5" y="-183" font-family="Helvetica,sans-Serif" font-size="10.00">include/Hermes/Socket</text>
<text text-anchor="start" x="1072.5" y="-172" font-family="Helvetica,sans-Serif" font-size="10.00">/Sync/_base/Transfer</text>
<text text-anchor="middle" x="1128.5" y="-161" font-family="Helvetica,sans-Serif" font-size="10.00">/TlsTransferPolicy.hpp</text>
</a>
</g>
</g>
<!-- Node21&#45;&gt;Node23 -->
<g id="edge34_Node000021_Node000023" class="edge">
<title>Node21&#45;&gt;Node23</title>
<g id="a_edge34_Node000021_Node000023"><a xlink:title=" ">
<path fill="none" stroke="#63b8ff" d="M1032.41,-231.37C1051.46,-220.29 1075.39,-206.38 1094.61,-195.2"/>
<polygon fill="#63b8ff" stroke="#63b8ff" points="1030.65,-228.34 1023.76,-236.39 1034.17,-234.39 1030.65,-228.34"/>
</a>
</g>
</g>
</g>
</svg>
