<?xml version="1.0" encoding="UTF-8" standalone="no"?>
<!DOCTYPE svg PUBLIC "-//W3C//DTD SVG 1.1//EN"
 "http://www.w3.org/Graphics/SVG/1.1/DTD/svg11.dtd">
<!-- Generated by graphviz version 2.43.0 (0)
 -->
<!-- Title: include/Hermes/Endpoint/IpEndpoint/IpEndpoint.hpp Pages: 1 -->
<svg width="4292pt" height="302pt"
 viewBox="0.00 0.00 4291.50 302.00" xmlns="http://www.w3.org/2000/svg" xmlns:xlink="http://www.w3.org/1999/xlink">
<g id="graph0" class="graph" transform="scale(1 1) rotate(0) translate(4 298)">
<title>include/Hermes/Endpoint/IpEndpoint/IpEndpoint.hpp</title>
<!-- Node1 -->
<g id="Node000001" class="node">
<title>Node1</title>
<g id="a_Node000001"><a xlink:title=" ">
<polygon fill="#999999" stroke="#666666" points="3870,-294 3723,-294 3723,-264 3870,-264 3870,-294"/>
<text text-anchor="start" x="3731" y="-282" font-family="Helvetica,sans-Serif" font-size="10.00">include/Hermes/Endpoint</text>
<text text-anchor="middle" x="3796.5" y="-271" font-family="Helvetica,sans-Serif" font-size="10.00">/IpEndpoint/IpEndpoint.hpp</text>
</a>
</g>
</g>
<!-- Node2 -->
<g id="Node000002" class="node">
<title>Node2</title>
<g id="a_Node000002"><a xlink:href="_endpoint_concept_8hpp.html" target="_top" xlink:title=" ">
<polygon fill="white" stroke="#666666" points="3572.5,-228 3440.5,-228 3440.5,-198 3572.5,-198 3572.5,-228"/>
<text text-anchor="start" x="3448.5" y="-216" font-family="Helvetica,sans-Serif" font-size="10.00">Hermes/Endpoint/_base</text>
<text text-anchor="middle" x="3506.5" y="-205" font-family="Helvetica,sans-Serif" font-size="10.00">/EndpointConcept.hpp</text>
</a>
</g>
</g>
<!-- Node1&#45;&gt;Node2 -->
<g id="edge1_Node000001_Node000002" class="edge">
<title>Node1&#45;&gt;Node2</title>
<g id="a_edge1_Node000001_Node000002"><a xlink:title=" ">
<path fill="none" stroke="#63b8ff" d="M3732.86,-263.95C3687.72,-253.99 3627.02,-240.6 3579.84,-230.19"/>
<polygon fill="#63b8ff" stroke="#63b8ff" points="3580.51,-226.75 3569.99,-228.01 3579,-233.59 3580.51,-226.75"/>
</a>
</g>
</g>
<!-- Node35 -->
<g id="Node000035" class="node">
<title>Node35</title>
<g id="a_Node000035"><a xlink:href="_ip_address_8hpp.html" target="_top" xlink:title=" ">
<polygon fill="white" stroke="#666666" points="3945,-228 3790,-228 3790,-198 3945,-198 3945,-228"/>
<text text-anchor="start" x="3798" y="-216" font-family="Helvetica,sans-Serif" font-size="10.00">Hermes/Endpoint/IpEndpoint</text>
<text text-anchor="middle" x="3867.5" y="-205" font-family="Helvetica,sans-Serif" font-size="10.00">/IpAddress.hpp</text>
</a>
</g>
</g>
<!-- Node1&#45;&gt;Node35 -->
<g id="edge49_Node000001_Node000035" class="edge">
<title>Node1&#45;&gt;Node35</title>
<g id="a_edge49_Node000001_Node000035"><a xlink:title=" ">
<path fill="none" stroke="#63b8ff" d="M3812.26,-263.8C3821.63,-255.34 3833.7,-244.46 3844.17,-235.03"/>
<polygon fill="#63b8ff" stroke="#63b8ff" points="3846.7,-237.46 3851.79,-228.16 3842.02,-232.26 3846.7,-237.46"/>
</a>
</g>
</g>
<!-- Node36 -->
<g id="Node000036" class="node">
<title>Node36</title>
<g id="a_Node000036"><a xlink:href="_hash_8hpp.html" target="_top" xlink:title=" ">
<polygon fill="white" stroke="#666666" points="3799,-156.5 3670,-156.5 3670,-137.5 3799,-137.5 3799,-156.5"/>
<text text-anchor="middle" x="3734.5" y="-144.5" font-family="Helvetica,sans-Serif" font-size="10.00">Hermes/Utils/Hash.hpp</text>
</a>
</g>
</g>
<!-- Node1&#45;&gt;Node36 -->
<g id="edge59_Node000001_Node000036" class="edge">
<title>Node1&#45;&gt;Node36</title>
<g id="a_edge59_Node000001_Node000036"><a xlink:title=" ">
<path fill="none" stroke="#63b8ff" d="M3789.75,-263.84C3778.39,-240.02 3755.48,-191.99 3743.03,-165.88"/>
<polygon fill="#63b8ff" stroke="#63b8ff" points="3746.14,-164.27 3738.67,-156.75 3739.82,-167.28 3746.14,-164.27"/>
</a>
</g>
</g>
<!-- Node39 -->
<g id="Node000039" class="node">
<title>Node39</title>
<g id="a_Node000039"><a xlink:title=" ">
<polygon fill="#e0e0e0" stroke="#999999" points="3651.5,-156.5 3607.5,-156.5 3607.5,-137.5 3651.5,-137.5 3651.5,-156.5"/>
<text text-anchor="middle" x="3629.5" y="-144.5" font-family="Helvetica,sans-Serif" font-size="10.00">string</text>
</a>
</g>
</g>
<!-- Node1&#45;&gt;Node39 -->
<g id="edge61_Node000001_Node000039" class="edge">
<title>Node1&#45;&gt;Node39</title>
<g id="a_edge61_Node000001_Node000039"><a xlink:title=" ">
<path fill="none" stroke="#63b8ff" d="M3778.31,-263.84C3746.63,-239.18 3681.6,-188.56 3649.01,-163.19"/>
<polygon fill="#63b8ff" stroke="#63b8ff" points="3650.78,-160.13 3640.74,-156.75 3646.48,-165.65 3650.78,-160.13"/>
</a>
</g>
</g>
<!-- Node41 -->
<g id="Node000041" class="node">
<title>Node41</title>
<g id="a_Node000041"><a xlink:title=" ">
<polygon fill="#e0e0e0" stroke="#999999" points="4283.5,-156.5 4227.5,-156.5 4227.5,-137.5 4283.5,-137.5 4283.5,-156.5"/>
<text text-anchor="middle" x="4255.5" y="-144.5" font-family="Helvetica,sans-Serif" font-size="10.00">optional</text>
</a>
</g>
</g>
<!-- Node1&#45;&gt;Node41 -->
<g id="edge60_Node000001_Node000041" class="edge">
<title>Node1&#45;&gt;Node41</title>
<g id="a_edge60_Node000001_Node000041"><a xlink:title=" ">
<path fill="none" stroke="#63b8ff" d="M3857.74,-263.98C3887.87,-255.76 3924.15,-243.84 3954.5,-228 3973.89,-217.88 3973.42,-206.66 3993.5,-198 4086.49,-157.89 4120.64,-188.05 4218.5,-162 4220.8,-161.39 4223.15,-160.69 4225.5,-159.93"/>
<polygon fill="#63b8ff" stroke="#63b8ff" points="4226.72,-163.21 4235,-156.6 4224.4,-156.6 4226.72,-163.21"/>
</a>
</g>
</g>
<!-- Node44 -->
<g id="Node000044" class="node">
<title>Node44</title>
<g id="a_Node000044"><a xlink:title=" ">
<polygon fill="#e0e0e0" stroke="#999999" points="4157,-228 4002,-228 4002,-198 4157,-198 4157,-228"/>
<text text-anchor="start" x="4010" y="-216" font-family="Helvetica,sans-Serif" font-size="10.00">Hermes/Endpoint/IpEndpoint</text>
<text text-anchor="middle" x="4079.5" y="-205" font-family="Helvetica,sans-Serif" font-size="10.00">/IpEndpoint.tpp</text>
</a>
</g>
</g>
<!-- Node1&#45;&gt;Node44 -->
<g id="edge62_Node000001_Node000044" class="edge">
<title>Node1&#45;&gt;Node44</title>
<g id="a_edge62_Node000001_Node000044"><a xlink:title=" ">
<path fill="none" stroke="#63b8ff" d="M3858.61,-263.95C3902.56,-254.01 3961.64,-240.65 4007.64,-230.25"/>
<polygon fill="#63b8ff" stroke="#63b8ff" points="4008.56,-233.63 4017.54,-228.01 4007.01,-226.8 4008.56,-233.63"/>
</a>
</g>
</g>
<!-- Node3 -->
<g id="Node000003" class="node">
<title>Node3</title>
<g id="a_Node000003"><a xlink:href="_connection_error_enum_8hpp.html" target="_top" xlink:title=" ">
<polygon fill="white" stroke="#666666" points="3590,-162 3423,-162 3423,-132 3590,-132 3590,-162"/>
<text text-anchor="start" x="3431" y="-150" font-family="Helvetica,sans-Serif" font-size="10.00">Hermes/_base/ConnectionError</text>
<text text-anchor="middle" x="3506.5" y="-139" font-family="Helvetica,sans-Serif" font-size="10.00">Enum.hpp</text>
</a>
</g>
</g>
<!-- Node2&#45;&gt;Node3 -->
<g id="edge2_Node000002_Node000003" class="edge">
<title>Node2&#45;&gt;Node3</title>
<g id="a_edge2_Node000002_Node000003"><a xlink:title=" ">
<path fill="none" stroke="#63b8ff" d="M3506.5,-197.8C3506.5,-190.34 3506.5,-180.99 3506.5,-172.41"/>
<polygon fill="#63b8ff" stroke="#63b8ff" points="3510,-172.16 3506.5,-162.16 3503,-172.16 3510,-172.16"/>
</a>
</g>
</g>
<!-- Node8 -->
<g id="Node000008" class="node">
<title>Node8</title>
<g id="a_Node000008"><a xlink:href="_win_api_8hpp.html" target="_top" xlink:title=" ">
<polygon fill="white" stroke="#666666" points="1668.5,-162 1544.5,-162 1544.5,-132 1668.5,-132 1668.5,-162"/>
<text text-anchor="start" x="1552.5" y="-150" font-family="Helvetica,sans-Serif" font-size="10.00">Hermes/_base/WinApi</text>
<text text-anchor="middle" x="1606.5" y="-139" font-family="Helvetica,sans-Serif" font-size="10.00">/WinApi.hpp</text>
</a>
</g>
</g>
<!-- Node2&#45;&gt;Node8 -->
<g id="edge7_Node000002_Node000008" class="edge">
<title>Node2&#45;&gt;Node8</title>
<g id="a_edge7_Node000002_Node000008"><a xlink:title=" ">
<path fill="none" stroke="#63b8ff" d="M3440.27,-209.77C3148.97,-199.96 1982.69,-160.67 1679.06,-150.44"/>
<polygon fill="#63b8ff" stroke="#63b8ff" points="1678.74,-146.93 1668.63,-150.09 1678.5,-153.93 1678.74,-146.93"/>
</a>
</g>
</g>
<!-- Node4 -->
<g id="Node000004" class="node">
<title>Node4</title>
<g id="a_Node000004"><a xlink:title=" ">
<polygon fill="#e0e0e0" stroke="#999999" points="3586.5,-85 3524.5,-85 3524.5,-66 3586.5,-66 3586.5,-85"/>
<text text-anchor="middle" x="3555.5" y="-73" font-family="Helvetica,sans-Serif" font-size="10.00">expected</text>
</a>
</g>
</g>
<!-- Node3&#45;&gt;Node4 -->
<g id="edge3_Node000003_Node000004" class="edge">
<title>Node3&#45;&gt;Node4</title>
<g id="a_edge3_Node000003_Node000004"><a xlink:title=" ">
<path fill="none" stroke="#63b8ff" d="M3516.42,-131.94C3524.18,-120.92 3535.03,-105.54 3543.32,-93.78"/>
<polygon fill="#63b8ff" stroke="#63b8ff" points="3546.42,-95.46 3549.32,-85.27 3540.7,-91.42 3546.42,-95.46"/>
</a>
</g>
</g>
<!-- Node5 -->
<g id="Node000005" class="node">
<title>Node5</title>
<g id="a_Node000005"><a xlink:title=" ">
<polygon fill="#e0e0e0" stroke="#999999" points="3837,-85 3790,-85 3790,-66 3837,-66 3837,-85"/>
<text text-anchor="middle" x="3813.5" y="-73" font-family="Helvetica,sans-Serif" font-size="10.00">vector</text>
</a>
</g>
</g>
<!-- Node3&#45;&gt;Node5 -->
<g id="edge4_Node000003_Node000005" class="edge">
<title>Node3&#45;&gt;Node5</title>
<g id="a_edge4_Node000003_Node000005"><a xlink:title=" ">
<path fill="none" stroke="#63b8ff" d="M3589.2,-131.98C3652.39,-120.91 3733.98,-105.76 3766.5,-96 3772.83,-94.1 3779.47,-91.64 3785.71,-89.12"/>
<polygon fill="#63b8ff" stroke="#63b8ff" points="3787.21,-92.29 3795.06,-85.17 3784.49,-85.84 3787.21,-92.29"/>
</a>
</g>
</g>
<!-- Node6 -->
<g id="Node000006" class="node">
<title>Node6</title>
<g id="a_Node000006"><a xlink:title=" ">
<polygon fill="#e0e0e0" stroke="#999999" points="3644.5,-85 3604.5,-85 3604.5,-66 3644.5,-66 3644.5,-85"/>
<text text-anchor="middle" x="3624.5" y="-73" font-family="Helvetica,sans-Serif" font-size="10.00">span</text>
</a>
</g>
</g>
<!-- Node3&#45;&gt;Node6 -->
<g id="edge5_Node000003_Node000006" class="edge">
<title>Node3&#45;&gt;Node6</title>
<g id="a_edge5_Node000003_Node000006"><a xlink:title=" ">
<path fill="none" stroke="#63b8ff" d="M3532.91,-131.88C3550.79,-122.16 3574.82,-108.73 3595.5,-96 3598.2,-94.34 3601.01,-92.54 3603.77,-90.73"/>
<polygon fill="#63b8ff" stroke="#63b8ff" points="3605.86,-93.54 3612.22,-85.07 3601.97,-87.73 3605.86,-93.54"/>
</a>
</g>
</g>
<!-- Node7 -->
<g id="Node000007" class="node">
<title>Node7</title>
<g id="a_Node000007"><a xlink:title=" ">
<polygon fill="#e0e0e0" stroke="#999999" points="3507,-90.5 3340,-90.5 3340,-60.5 3507,-60.5 3507,-90.5"/>
<text text-anchor="start" x="3348" y="-78.5" font-family="Helvetica,sans-Serif" font-size="10.00">Hermes\_base\ConnectionError</text>
<text text-anchor="middle" x="3423.5" y="-67.5" font-family="Helvetica,sans-Serif" font-size="10.00">Enum.tpp</text>
</a>
</g>
</g>
<!-- Node3&#45;&gt;Node7 -->
<g id="edge6_Node000003_Node000007" class="edge">
<title>Node3&#45;&gt;Node7</title>
<g id="a_edge6_Node000003_Node000007"><a xlink:title=" ">
<path fill="none" stroke="#63b8ff" d="M3489.7,-131.94C3477.78,-121.95 3461.57,-108.38 3448.18,-97.17"/>
<polygon fill="#63b8ff" stroke="#63b8ff" points="3450.19,-94.28 3440.27,-90.54 3445.69,-99.65 3450.19,-94.28"/>
</a>
</g>
</g>
<!-- Node9 -->
<g id="Node000009" class="node">
<title>Node9</title>
<g id="a_Node000009"><a xlink:title=" ">
<polygon fill="#e0e0e0" stroke="#999999" points="978,-85 909,-85 909,-66 978,-66 978,-85"/>
<text text-anchor="middle" x="943.5" y="-73" font-family="Helvetica,sans-Serif" font-size="10.00">ws2tcpip.h</text>
</a>
</g>
</g>
<!-- Node8&#45;&gt;Node9 -->
<g id="edge8_Node000008_Node000009" class="edge">
<title>Node8&#45;&gt;Node9</title>
<g id="a_edge8_Node000008_Node000009"><a xlink:title=" ">
<path fill="none" stroke="#63b8ff" d="M1544.33,-143.63C1409.03,-138.04 1091.67,-122.47 987.5,-96 981.27,-94.42 974.82,-92.03 968.84,-89.46"/>
<polygon fill="#63b8ff" stroke="#63b8ff" points="969.88,-86.08 959.33,-85.07 966.95,-92.44 969.88,-86.08"/>
</a>
</g>
</g>
<!-- Node10 -->
<g id="Node000010" class="node">
<title>Node10</title>
<g id="a_Node000010"><a xlink:title=" ">
<polygon fill="#e0e0e0" stroke="#999999" points="1590,-19 1519,-19 1519,0 1590,0 1590,-19"/>
<text text-anchor="middle" x="1554.5" y="-7" font-family="Helvetica,sans-Serif" font-size="10.00">winsock2.h</text>
</a>
</g>
</g>
<!-- Node8&#45;&gt;Node10 -->
<g id="edge9_Node000008_Node000010" class="edge">
<title>Node8&#45;&gt;Node10</title>
<g id="a_edge9_Node000008_Node000010"><a xlink:title=" ">
<path fill="none" stroke="#63b8ff" d="M1595.18,-131.93C1587.99,-122.32 1579.02,-109.02 1573.5,-96 1564.2,-74.07 1559.17,-46.95 1556.66,-29.22"/>
<polygon fill="#63b8ff" stroke="#63b8ff" points="1560.1,-28.54 1555.36,-19.07 1553.16,-29.43 1560.1,-28.54"/>
</a>
</g>
</g>
<!-- Node11 -->
<g id="Node000011" class="node">
<title>Node11</title>
<g id="a_Node000011"><a xlink:title=" ">
<polygon fill="#e0e0e0" stroke="#999999" points="2300,-19 2231,-19 2231,0 2300,0 2300,-19"/>
<text text-anchor="middle" x="2265.5" y="-7" font-family="Helvetica,sans-Serif" font-size="10.00">schannel.h</text>
</a>
</g>
</g>
<!-- Node8&#45;&gt;Node11 -->
<g id="edge10_Node000008_Node000011" class="edge">
<title>Node8&#45;&gt;Node11</title>
<g id="a_edge10_Node000008_Node000011"><a xlink:title=" ">
<path fill="none" stroke="#63b8ff" d="M1668.78,-145.75C1792.21,-144.36 2063.1,-136.61 2145.5,-96 2167.79,-85.02 2163.88,-70.24 2183.5,-55 2199.76,-42.38 2220.07,-31.32 2236.42,-23.39"/>
<polygon fill="#63b8ff" stroke="#63b8ff" points="2237.98,-26.52 2245.52,-19.09 2234.99,-20.19 2237.98,-26.52"/>
</a>
</g>
</g>
<!-- Node12 -->
<g id="Node000012" class="node">
<title>Node12</title>
<g id="a_Node000012"><a xlink:title=" ">
<polygon fill="#e0e0e0" stroke="#999999" points="742,-19 697,-19 697,0 742,0 742,-19"/>
<text text-anchor="middle" x="719.5" y="-7" font-family="Helvetica,sans-Serif" font-size="10.00">sspi.h</text>
</a>
</g>
</g>
<!-- Node8&#45;&gt;Node12 -->
<g id="edge11_Node000008_Node000012" class="edge">
<title>Node8&#45;&gt;Node12</title>
<g id="a_edge11_Node000008_Node000012"><a xlink:title=" ">
<path fill="none" stroke="#63b8ff" d="M1544.49,-143.48C1446.65,-138.64 1261.62,-125.77 1203.5,-96 1181.39,-84.67 1187.75,-66.06 1165.5,-55 1092.85,-18.88 842.64,-12.08 752.33,-10.8"/>
<polygon fill="#63b8ff" stroke="#63b8ff" points="752.18,-7.29 742.14,-10.67 752.09,-14.29 752.18,-7.29"/>
</a>
</g>
</g>
<!-- Node13 -->
<g id="Node000013" class="node">
<title>Node13</title>
<g id="a_Node000013"><a xlink:href="_conversion_and_literals_8hpp.html" target="_top" xlink:title=" ">
<polygon fill="white" stroke="#666666" points="1732.5,-90.5 1582.5,-90.5 1582.5,-60.5 1732.5,-60.5 1732.5,-90.5"/>
<text text-anchor="start" x="1590.5" y="-78.5" font-family="Helvetica,sans-Serif" font-size="10.00">Hermes/_base/WinApi</text>
<text text-anchor="middle" x="1657.5" y="-67.5" font-family="Helvetica,sans-Serif" font-size="10.00">/ConversionAndLiterals.hpp</text>
</a>
</g>
</g>
<!-- Node8&#45;&gt;Node13 -->
<g id="edge12_Node000008_Node000013" class="edge">
<title>Node8&#45;&gt;Node13</title>
<g id="a_edge12_Node000008_Node000013"><a xlink:title=" ">
<path fill="none" stroke="#63b8ff" d="M1616.82,-131.94C1623.8,-122.42 1633.17,-109.65 1641.16,-98.77"/>
<polygon fill="#63b8ff" stroke="#63b8ff" points="1644.1,-100.68 1647.19,-90.54 1638.46,-96.54 1644.1,-100.68"/>
</a>
</g>
</g>
<!-- Node15 -->
<g id="Node000015" class="node">
<title>Node15</title>
<g id="a_Node000015"><a xlink:href="_macros_8hpp.html" target="_top" xlink:title=" ">
<polygon fill="white" stroke="#666666" points="1526.5,-90.5 1402.5,-90.5 1402.5,-60.5 1526.5,-60.5 1526.5,-90.5"/>
<text text-anchor="start" x="1410.5" y="-78.5" font-family="Helvetica,sans-Serif" font-size="10.00">Hermes/_base/WinApi</text>
<text text-anchor="middle" x="1464.5" y="-67.5" font-family="Helvetica,sans-Serif" font-size="10.00">/Macros.hpp</text>
</a>
</g>
</g>
<!-- Node8&#45;&gt;Node15 -->
<g id="edge14_Node000008_Node000015" class="edge">
<title>Node8&#45;&gt;Node15</title>
<g id="a_edge14_Node000008_Node000015"><a xlink:title=" ">
<path fill="none" stroke="#63b8ff" d="M1577.76,-131.94C1556.01,-121.29 1525.95,-106.57 1502.26,-94.98"/>
<polygon fill="#63b8ff" stroke="#63b8ff" points="1503.71,-91.8 1493.19,-90.54 1500.64,-98.08 1503.71,-91.8"/>
</a>
</g>
</g>
<!-- Node17 -->
<g id="Node000017" class="node">
<title>Node17</title>
<g id="a_Node000017"><a xlink:href="_address_family_enum_8hpp.html" target="_top" xlink:title=" ">
<polygon fill="white" stroke="#666666" points="1926.5,-90.5 1750.5,-90.5 1750.5,-60.5 1926.5,-60.5 1926.5,-90.5"/>
<text text-anchor="start" x="1758.5" y="-78.5" font-family="Helvetica,sans-Serif" font-size="10.00">Hermes/_base/WinApi</text>
<text text-anchor="middle" x="1838.5" y="-67.5" font-family="Helvetica,sans-Serif" font-size="10.00">/Enums/AddressFamilyEnum.hpp</text>
</a>
</g>
</g>
<!-- Node8&#45;&gt;Node17 -->
<g id="edge19_Node000008_Node000017" class="edge">
<title>Node8&#45;&gt;Node17</title>
<g id="a_edge19_Node000008_Node000017"><a xlink:title=" ">
<path fill="none" stroke="#63b8ff" d="M1653.45,-131.94C1690.56,-120.82 1742.48,-105.26 1781.89,-93.46"/>
<polygon fill="#63b8ff" stroke="#63b8ff" points="1783.05,-96.77 1791.62,-90.54 1781.04,-90.06 1783.05,-96.77"/>
</a>
</g>
</g>
<!-- Node19 -->
<g id="Node000019" class="node">
<title>Node19</title>
<g id="a_Node000019"><a xlink:href="_condition_function_enum_8hpp.html" target="_top" xlink:title=" ">
<polygon fill="white" stroke="#666666" points="3321.5,-90.5 3129.5,-90.5 3129.5,-60.5 3321.5,-60.5 3321.5,-90.5"/>
<text text-anchor="start" x="3137.5" y="-78.5" font-family="Helvetica,sans-Serif" font-size="10.00">Hermes/_base/WinApi</text>
<text text-anchor="middle" x="3225.5" y="-67.5" font-family="Helvetica,sans-Serif" font-size="10.00">/Enums/ConditionFunctionEnum.hpp</text>
</a>
</g>
</g>
<!-- Node8&#45;&gt;Node19 -->
<g id="edge21_Node000008_Node000019" class="edge">
<title>Node8&#45;&gt;Node19</title>
<g id="a_edge21_Node000008_Node000019"><a xlink:title=" ">
<path fill="none" stroke="#63b8ff" d="M1668.72,-145.2C1916.3,-141.8 2832.09,-127.36 3120.5,-96 3129.5,-95.02 3138.89,-93.71 3148.19,-92.22"/>
<polygon fill="#63b8ff" stroke="#63b8ff" points="3148.94,-95.64 3158.22,-90.55 3147.78,-88.74 3148.94,-95.64"/>
</a>
</g>
</g>
<!-- Node21 -->
<g id="Node000021" class="node">
<title>Node21</title>
<g id="a_Node000021"><a xlink:href="_encrypt_status_enum_8hpp.html" target="_top" xlink:title=" ">
<polygon fill="white" stroke="#666666" points="1384.5,-90.5 1212.5,-90.5 1212.5,-60.5 1384.5,-60.5 1384.5,-90.5"/>
<text text-anchor="start" x="1220.5" y="-78.5" font-family="Helvetica,sans-Serif" font-size="10.00">Hermes/_base/WinApi</text>
<text text-anchor="middle" x="1298.5" y="-67.5" font-family="Helvetica,sans-Serif" font-size="10.00">/Enums/EncryptStatusEnum.hpp</text>
</a>
</g>
</g>
<!-- Node8&#45;&gt;Node21 -->
<g id="edge23_Node000008_Node000021" class="edge">
<title>Node8&#45;&gt;Node21</title>
<g id="a_edge23_Node000008_Node000021"><a xlink:title=" ">
<path fill="none" stroke="#63b8ff" d="M1544.17,-131.94C1493.97,-120.61 1423.34,-104.67 1370.68,-92.79"/>
<polygon fill="#63b8ff" stroke="#63b8ff" points="1371.26,-89.33 1360.74,-90.54 1369.72,-96.16 1371.26,-89.33"/>
</a>
</g>
</g>
<!-- Node23 -->
<g id="Node000023" class="node">
<title>Node23</title>
<g id="a_Node000023"><a xlink:href="_protocol_base_type_enum_8hpp.html" target="_top" xlink:title=" ">
<polygon fill="white" stroke="#666666" points="2136,-90.5 1945,-90.5 1945,-60.5 2136,-60.5 2136,-90.5"/>
<text text-anchor="start" x="1953" y="-78.5" font-family="Helvetica,sans-Serif" font-size="10.00">Hermes/_base/WinApi</text>
<text text-anchor="middle" x="2040.5" y="-67.5" font-family="Helvetica,sans-Serif" font-size="10.00">/Enums/ProtocolBaseTypeEnum.hpp</text>
</a>
</g>
</g>
<!-- Node8&#45;&gt;Node23 -->
<g id="edge25_Node000008_Node000023" class="edge">
<title>Node8&#45;&gt;Node23</title>
<g id="a_edge25_Node000008_Node000023"><a xlink:title=" ">
<path fill="none" stroke="#63b8ff" d="M1668.75,-137.16C1734.98,-127.61 1842.78,-111.65 1935.5,-96 1942.26,-94.86 1949.25,-93.64 1956.27,-92.39"/>
<polygon fill="#63b8ff" stroke="#63b8ff" points="1957.33,-95.76 1966.55,-90.55 1956.09,-88.87 1957.33,-95.76"/>
</a>
</g>
</g>
<!-- Node24 -->
<g id="Node000024" class="node">
<title>Node24</title>
<g id="a_Node000024"><a xlink:href="_s_ch_cred_enum_8hpp.html" target="_top" xlink:title=" ">
<polygon fill="white" stroke="#666666" points="2338.5,-90.5 2192.5,-90.5 2192.5,-60.5 2338.5,-60.5 2338.5,-90.5"/>
<text text-anchor="start" x="2200.5" y="-78.5" font-family="Helvetica,sans-Serif" font-size="10.00">Hermes/_base/WinApi</text>
<text text-anchor="middle" x="2265.5" y="-67.5" font-family="Helvetica,sans-Serif" font-size="10.00">/Enums/SChCredEnum.hpp</text>
</a>
</g>
</g>
<!-- Node8&#45;&gt;Node24 -->
<g id="edge27_Node000008_Node000024" class="edge">
<title>Node8&#45;&gt;Node24</title>
<g id="a_edge27_Node000008_Node000024"><a xlink:title=" ">
<path fill="none" stroke="#63b8ff" d="M1668.62,-143.29C1773.99,-138.08 1994.29,-124.56 2178.5,-96 2184.72,-95.03 2191.17,-93.88 2197.6,-92.63"/>
<polygon fill="#63b8ff" stroke="#63b8ff" points="2198.57,-96.01 2207.68,-90.59 2197.18,-89.15 2198.57,-96.01"/>
</a>
</g>
</g>
<!-- Node25 -->
<g id="Node000025" class="node">
<title>Node25</title>
<g id="a_Node000025"><a xlink:href="_security_buffer_enum_8hpp.html" target="_top" xlink:title=" ">
<polygon fill="white" stroke="#666666" points="173,-90.5 0,-90.5 0,-60.5 173,-60.5 173,-90.5"/>
<text text-anchor="start" x="8" y="-78.5" font-family="Helvetica,sans-Serif" font-size="10.00">Hermes/_base/WinApi</text>
<text text-anchor="middle" x="86.5" y="-67.5" font-family="Helvetica,sans-Serif" font-size="10.00">/Enums/SecurityBufferEnum.hpp</text>
</a>
</g>
</g>
<!-- Node8&#45;&gt;Node25 -->
<g id="edge29_Node000008_Node000025" class="edge">
<title>Node8&#45;&gt;Node25</title>
<g id="a_edge29_Node000008_Node000025"><a xlink:title=" ">
<path fill="none" stroke="#63b8ff" d="M1544.35,-145.19C1306.27,-141.85 452.11,-127.89 182.5,-96 174.46,-95.05 166.08,-93.78 157.78,-92.33"/>
<polygon fill="#63b8ff" stroke="#63b8ff" points="158.18,-88.85 147.71,-90.5 156.92,-95.74 158.18,-88.85"/>
</a>
</g>
</g>
<!-- Node26 -->
<g id="Node000026" class="node">
<title>Node26</title>
<g id="a_Node000026"><a xlink:href="_socket_shutdown_enum_8hpp.html" target="_top" xlink:title=" ">
<polygon fill="white" stroke="#666666" points="2934,-90.5 2749,-90.5 2749,-60.5 2934,-60.5 2934,-90.5"/>
<text text-anchor="start" x="2757" y="-78.5" font-family="Helvetica,sans-Serif" font-size="10.00">Hermes/_base/WinApi</text>
<text text-anchor="middle" x="2841.5" y="-67.5" font-family="Helvetica,sans-Serif" font-size="10.00">/Enums/SocketShutdownEnum.hpp</text>
</a>
</g>
</g>
<!-- Node8&#45;&gt;Node26 -->
<g id="edge31_Node000008_Node000026" class="edge">
<title>Node8&#45;&gt;Node26</title>
<g id="a_edge31_Node000008_Node000026"><a xlink:title=" ">
<path fill="none" stroke="#63b8ff" d="M1668.78,-146.41C1840.19,-146.85 2333.23,-143.55 2739.5,-96 2748.02,-95 2756.9,-93.7 2765.71,-92.25"/>
<polygon fill="#63b8ff" stroke="#63b8ff" points="2766.34,-95.69 2775.6,-90.54 2765.15,-88.79 2766.34,-95.69"/>
</a>
</g>
</g>
<!-- Node27 -->
<g id="Node000027" class="node">
<title>Node27</title>
<g id="a_Node000027"><a xlink:href="_socket_type_enum_8hpp.html" target="_top" xlink:title=" ">
<polygon fill="white" stroke="#666666" points="3111,-90.5 2952,-90.5 2952,-60.5 3111,-60.5 3111,-90.5"/>
<text text-anchor="start" x="2960" y="-78.5" font-family="Helvetica,sans-Serif" font-size="10.00">Hermes/_base/WinApi</text>
<text text-anchor="middle" x="3031.5" y="-67.5" font-family="Helvetica,sans-Serif" font-size="10.00">/Enums/SocketTypeEnum.hpp</text>
</a>
</g>
</g>
<!-- Node8&#45;&gt;Node27 -->
<g id="edge33_Node000008_Node000027" class="edge">
<title>Node8&#45;&gt;Node27</title>
<g id="a_edge33_Node000008_Node000027"><a xlink:title=" ">
<path fill="none" stroke="#63b8ff" d="M1668.74,-145.17C1897.59,-141.86 2692.09,-128.29 2943.5,-96 2950.65,-95.08 2958.07,-93.86 2965.45,-92.48"/>
<polygon fill="#63b8ff" stroke="#63b8ff" points="2966.3,-95.88 2975.43,-90.51 2964.94,-89.01 2966.3,-95.88"/>
</a>
</g>
</g>
<!-- Node28 -->
<g id="Node000028" class="node">
<title>Node28</title>
<g id="a_Node000028"><a xlink:href="_credential_flags_8hpp.html" target="_top" xlink:title=" ">
<polygon fill="white" stroke="#666666" points="337.5,-90.5 191.5,-90.5 191.5,-60.5 337.5,-60.5 337.5,-90.5"/>
<text text-anchor="start" x="199.5" y="-78.5" font-family="Helvetica,sans-Serif" font-size="10.00">Hermes/_base/WinApi</text>
<text text-anchor="middle" x="264.5" y="-67.5" font-family="Helvetica,sans-Serif" font-size="10.00">/Flags/CredentialFlags.hpp</text>
</a>
</g>
</g>
<!-- Node8&#45;&gt;Node28 -->
<g id="edge35_Node000008_Node000028" class="edge">
<title>Node8&#45;&gt;Node28</title>
<g id="a_edge35_Node000008_Node000028"><a xlink:title=" ">
<path fill="none" stroke="#63b8ff" d="M1544.45,-145.13C1324.39,-141.79 581.95,-128.36 346.5,-96 340.13,-95.12 333.52,-93.97 326.96,-92.67"/>
<polygon fill="#63b8ff" stroke="#63b8ff" points="327.21,-89.15 316.71,-90.51 325.77,-96 327.21,-89.15"/>
</a>
</g>
</g>
<!-- Node29 -->
<g id="Node000029" class="node">
<title>Node29</title>
<g id="a_Node000029"><a xlink:href="_supported_protocols_flags_8hpp.html" target="_top" xlink:title=" ">
<polygon fill="white" stroke="#666666" points="2548,-90.5 2357,-90.5 2357,-60.5 2548,-60.5 2548,-90.5"/>
<text text-anchor="start" x="2365" y="-78.5" font-family="Helvetica,sans-Serif" font-size="10.00">Hermes/_base/WinApi</text>
<text text-anchor="middle" x="2452.5" y="-67.5" font-family="Helvetica,sans-Serif" font-size="10.00">/Flags/SupportedProtocolsFlags.hpp</text>
</a>
</g>
</g>
<!-- Node8&#45;&gt;Node29 -->
<g id="edge37_Node000008_Node000029" class="edge">
<title>Node8&#45;&gt;Node29</title>
<g id="a_edge37_Node000008_Node000029"><a xlink:title=" ">
<path fill="none" stroke="#63b8ff" d="M1668.7,-144.24C1796.38,-140.1 2097.09,-127.59 2347.5,-96 2355.83,-94.95 2364.5,-93.66 2373.12,-92.25"/>
<polygon fill="#63b8ff" stroke="#63b8ff" points="2373.93,-95.66 2383.21,-90.55 2372.76,-88.76 2373.93,-95.66"/>
</a>
</g>
</g>
<!-- Node30 -->
<g id="Node000030" class="node">
<title>Node30</title>
<g id="a_Node000030"><a xlink:href="_initialize_security_context_flags_8hpp.html" target="_top" xlink:title=" ">
<polygon fill="white" stroke="#666666" points="525,-96 356,-96 356,-55 525,-55 525,-96"/>
<text text-anchor="start" x="364" y="-84" font-family="Helvetica,sans-Serif" font-size="10.00">Hermes/_base/WinApi</text>
<text text-anchor="start" x="364" y="-73" font-family="Helvetica,sans-Serif" font-size="10.00">/Flags/InitializeSecurityContext</text>
<text text-anchor="middle" x="440.5" y="-62" font-family="Helvetica,sans-Serif" font-size="10.00">Flags.hpp</text>
</a>
</g>
</g>
<!-- Node8&#45;&gt;Node30 -->
<g id="edge39_Node000008_Node000030" class="edge">
<title>Node8&#45;&gt;Node30</title>
<g id="a_edge39_Node000008_Node000030"><a xlink:title=" ">
<path fill="none" stroke="#63b8ff" d="M1544.21,-146.57C1380.25,-147.33 923.18,-144.65 535.07,-96.09"/>
<polygon fill="#63b8ff" stroke="#63b8ff" points="535.41,-92.61 525.05,-94.83 534.53,-99.55 535.41,-92.61"/>
</a>
</g>
</g>
<!-- Node31 -->
<g id="Node000031" class="node">
<title>Node31</title>
<g id="a_Node000031"><a xlink:href="_initialize_security_context_return_flags_8hpp.html" target="_top" xlink:title=" ">
<polygon fill="white" stroke="#666666" points="712,-96 543,-96 543,-55 712,-55 712,-96"/>
<text text-anchor="start" x="551" y="-84" font-family="Helvetica,sans-Serif" font-size="10.00">Hermes/_base/WinApi</text>
<text text-anchor="start" x="551" y="-73" font-family="Helvetica,sans-Serif" font-size="10.00">/Flags/InitializeSecurityContext</text>
<text text-anchor="middle" x="627.5" y="-62" font-family="Helvetica,sans-Serif" font-size="10.00">ReturnFlags.hpp</text>
</a>
</g>
</g>
<!-- Node8&#45;&gt;Node31 -->
<g id="edge41_Node000008_Node000031" class="edge">
<title>Node8&#45;&gt;Node31</title>
<g id="a_edge41_Node000008_Node000031"><a xlink:title=" ">
<path fill="none" stroke="#63b8ff" d="M1544.24,-145.64C1400.88,-144.14 1036.32,-136.44 722.41,-96"/>
<polygon fill="#63b8ff" stroke="#63b8ff" points="722.57,-92.49 712.2,-94.67 721.67,-99.44 722.57,-92.49"/>
</a>
</g>
</g>
<!-- Node32 -->
<g id="Node000032" class="node">
<title>Node32</title>
<g id="a_Node000032"><a xlink:href="_accept_security_context_flags_8hpp.html" target="_top" xlink:title=" ">
<polygon fill="white" stroke="#666666" points="890.5,-96 730.5,-96 730.5,-55 890.5,-55 890.5,-96"/>
<text text-anchor="start" x="738.5" y="-84" font-family="Helvetica,sans-Serif" font-size="10.00">Hermes/_base/WinApi</text>
<text text-anchor="start" x="738.5" y="-73" font-family="Helvetica,sans-Serif" font-size="10.00">/Flags/AcceptSecurityContext</text>
<text text-anchor="middle" x="810.5" y="-62" font-family="Helvetica,sans-Serif" font-size="10.00">Flags.hpp</text>
</a>
</g>
</g>
<!-- Node8&#45;&gt;Node32 -->
<g id="edge43_Node000008_Node000032" class="edge">
<title>Node8&#45;&gt;Node32</title>
<g id="a_edge43_Node000008_Node000032"><a xlink:title=" ">
<path fill="none" stroke="#63b8ff" d="M1544.23,-144.63C1422.38,-141.28 1143.83,-130.4 901.01,-96.11"/>
<polygon fill="#63b8ff" stroke="#63b8ff" points="901.33,-92.62 890.93,-94.67 900.34,-99.55 901.33,-92.62"/>
</a>
</g>
</g>
<!-- Node33 -->
<g id="Node000033" class="node">
<title>Node33</title>
<g id="a_Node000033"><a xlink:href="_accept_security_context_return_flags_8hpp.html" target="_top" xlink:title=" ">
<polygon fill="white" stroke="#666666" points="1156.5,-96 996.5,-96 996.5,-55 1156.5,-55 1156.5,-96"/>
<text text-anchor="start" x="1004.5" y="-84" font-family="Helvetica,sans-Serif" font-size="10.00">Hermes/_base/WinApi</text>
<text text-anchor="start" x="1004.5" y="-73" font-family="Helvetica,sans-Serif" font-size="10.00">/Flags/AcceptSecurityContext</text>
<text text-anchor="middle" x="1076.5" y="-62" font-family="Helvetica,sans-Serif" font-size="10.00">ReturnFlags.hpp</text>
</a>
</g>
</g>
<!-- Node8&#45;&gt;Node33 -->
<g id="edge45_Node000008_Node000033" class="edge">
<title>Node8&#45;&gt;Node33</title>
<g id="a_edge45_Node000008_Node000033"><a xlink:title=" ">
<path fill="none" stroke="#63b8ff" d="M1544.16,-140.64C1459.33,-132.93 1302.9,-117.28 1170.5,-96 1169.23,-95.8 1167.95,-95.59 1166.66,-95.37"/>
<polygon fill="#63b8ff" stroke="#63b8ff" points="1167.11,-91.9 1156.66,-93.63 1165.92,-98.79 1167.11,-91.9"/>
</a>
</g>
</g>
<!-- Node34 -->
<g id="Node000034" class="node">
<title>Node34</title>
<g id="a_Node000034"><a xlink:href="_s_channel_cred_flags_8hpp.html" target="_top" xlink:title=" ">
<polygon fill="white" stroke="#666666" points="2730.5,-90.5 2566.5,-90.5 2566.5,-60.5 2730.5,-60.5 2730.5,-90.5"/>
<text text-anchor="start" x="2574.5" y="-78.5" font-family="Helvetica,sans-Serif" font-size="10.00">Hermes/_base/WinApi</text>
<text text-anchor="middle" x="2648.5" y="-67.5" font-family="Helvetica,sans-Serif" font-size="10.00">/Flags/SChannelCredFlags.hpp</text>
</a>
</g>
</g>
<!-- Node8&#45;&gt;Node34 -->
<g id="edge47_Node000008_Node000034" class="edge">
<title>Node8&#45;&gt;Node34</title>
<g id="a_edge47_Node000008_Node000034"><a xlink:title=" ">
<path fill="none" stroke="#63b8ff" d="M1668.56,-146.13C1820.75,-145.72 2224.38,-140.17 2557.5,-96 2564.66,-95.05 2572.09,-93.84 2579.48,-92.49"/>
<polygon fill="#63b8ff" stroke="#63b8ff" points="2580.35,-95.88 2589.51,-90.56 2579.03,-89.01 2580.35,-95.88"/>
</a>
</g>
</g>
<!-- Node14 -->
<g id="Node000014" class="node">
<title>Node14</title>
<g id="a_Node000014"><a xlink:title=" ">
<polygon fill="#e0e0e0" stroke="#999999" points="1682.5,-19 1632.5,-19 1632.5,0 1682.5,0 1682.5,-19"/>
<text text-anchor="middle" x="1657.5" y="-7" font-family="Helvetica,sans-Serif" font-size="10.00">cstdint</text>
</a>
</g>
</g>
<!-- Node13&#45;&gt;Node14 -->
<g id="edge13_Node000013_Node000014" class="edge">
<title>Node13&#45;&gt;Node14</title>
<g id="a_edge13_Node000013_Node000014"><a xlink:title=" ">
<path fill="none" stroke="#63b8ff" d="M1657.5,-60.3C1657.5,-51.2 1657.5,-39.29 1657.5,-29.4"/>
<polygon fill="#63b8ff" stroke="#63b8ff" points="1661,-29.34 1657.5,-19.34 1654,-29.34 1661,-29.34"/>
</a>
</g>
</g>
<!-- Node15&#45;&gt;Node10 -->
<g id="edge16_Node000015_Node000010" class="edge">
<title>Node15&#45;&gt;Node10</title>
<g id="a_edge16_Node000015_Node000010"><a xlink:title=" ">
<path fill="none" stroke="#63b8ff" d="M1484.47,-60.3C1499.14,-49.87 1519.01,-35.74 1533.84,-25.19"/>
<polygon fill="#63b8ff" stroke="#63b8ff" points="1536.2,-27.81 1542.32,-19.16 1532.15,-22.1 1536.2,-27.81"/>
</a>
</g>
</g>
<!-- Node15&#45;&gt;Node11 -->
<g id="edge17_Node000015_Node000011" class="edge">
<title>Node15&#45;&gt;Node11</title>
<g id="a_edge17_Node000015_Node000011"><a xlink:title=" ">
<path fill="none" stroke="#63b8ff" d="M1526.57,-62.15C1541.86,-59.45 1558.23,-56.85 1573.5,-55 1816.63,-25.53 2110.35,-14.8 2220.71,-11.63"/>
<polygon fill="#63b8ff" stroke="#63b8ff" points="2220.91,-15.13 2230.81,-11.35 2220.72,-8.13 2220.91,-15.13"/>
</a>
</g>
</g>
<!-- Node15&#45;&gt;Node12 -->
<g id="edge18_Node000015_Node000012" class="edge">
<title>Node15&#45;&gt;Node12</title>
<g id="a_edge18_Node000015_Node000012"><a xlink:title=" ">
<path fill="none" stroke="#63b8ff" d="M1418.59,-60.44C1410.3,-58.32 1401.69,-56.38 1393.5,-55 1149.68,-13.9 850.29,-10.32 752.25,-10.33"/>
<polygon fill="#63b8ff" stroke="#63b8ff" points="752.09,-6.83 742.09,-10.34 752.1,-13.83 752.09,-6.83"/>
</a>
</g>
</g>
<!-- Node16 -->
<g id="Node000016" class="node">
<title>Node16</title>
<g id="a_Node000016"><a xlink:title=" ">
<polygon fill="#e0e0e0" stroke="#999999" points="1501,-19 1428,-19 1428,0 1501,0 1501,-19"/>
<text text-anchor="middle" x="1464.5" y="-7" font-family="Helvetica,sans-Serif" font-size="10.00">string_view</text>
</a>
</g>
</g>
<!-- Node15&#45;&gt;Node16 -->
<g id="edge15_Node000015_Node000016" class="edge">
<title>Node15&#45;&gt;Node16</title>
<g id="a_edge15_Node000015_Node000016"><a xlink:title=" ">
<path fill="none" stroke="#63b8ff" d="M1464.5,-60.3C1464.5,-51.2 1464.5,-39.29 1464.5,-29.4"/>
<polygon fill="#63b8ff" stroke="#63b8ff" points="1468,-29.34 1464.5,-19.34 1461,-29.34 1468,-29.34"/>
</a>
</g>
</g>
<!-- Node18 -->
<g id="Node000018" class="node">
<title>Node18</title>
<g id="a_Node000018"><a xlink:title=" ">
<polygon fill="#e0e0e0" stroke="#999999" points="1969.5,-19 1909.5,-19 1909.5,0 1969.5,0 1969.5,-19"/>
<text text-anchor="middle" x="1939.5" y="-7" font-family="Helvetica,sans-Serif" font-size="10.00">ws2def.h</text>
</a>
</g>
</g>
<!-- Node17&#45;&gt;Node18 -->
<g id="edge20_Node000017_Node000018" class="edge">
<title>Node17&#45;&gt;Node18</title>
<g id="a_edge20_Node000017_Node000018"><a xlink:title=" ">
<path fill="none" stroke="#63b8ff" d="M1860.92,-60.3C1877.69,-49.67 1900.51,-35.2 1917.25,-24.6"/>
<polygon fill="#63b8ff" stroke="#63b8ff" points="1919.26,-27.47 1925.84,-19.16 1915.52,-21.55 1919.26,-27.47"/>
</a>
</g>
</g>
<!-- Node20 -->
<g id="Node000020" class="node">
<title>Node20</title>
<g id="a_Node000020"><a xlink:title=" ">
<polygon fill="#e0e0e0" stroke="#999999" points="3068.5,-19 2994.5,-19 2994.5,0 3068.5,0 3068.5,-19"/>
<text text-anchor="middle" x="3031.5" y="-7" font-family="Helvetica,sans-Serif" font-size="10.00">WinSock2.h</text>
</a>
</g>
</g>
<!-- Node19&#45;&gt;Node20 -->
<g id="edge22_Node000019_Node000020" class="edge">
<title>Node19&#45;&gt;Node20</title>
<g id="a_edge22_Node000019_Node000020"><a xlink:title=" ">
<path fill="none" stroke="#63b8ff" d="M3182.93,-60.45C3148.15,-48.98 3099.59,-32.96 3066.91,-22.18"/>
<polygon fill="#63b8ff" stroke="#63b8ff" points="3067.91,-18.83 3057.32,-19.02 3065.72,-25.47 3067.91,-18.83"/>
</a>
</g>
</g>
<!-- Node22 -->
<g id="Node000022" class="node">
<title>Node22</title>
<g id="a_Node000022"><a xlink:title=" ">
<polygon fill="#e0e0e0" stroke="#999999" points="1331,-19 1266,-19 1266,0 1331,0 1331,-19"/>
<text text-anchor="middle" x="1298.5" y="-7" font-family="Helvetica,sans-Serif" font-size="10.00">winerror.h</text>
</a>
</g>
</g>
<!-- Node21&#45;&gt;Node22 -->
<g id="edge24_Node000021_Node000022" class="edge">
<title>Node21&#45;&gt;Node22</title>
<g id="a_edge24_Node000021_Node000022"><a xlink:title=" ">
<path fill="none" stroke="#63b8ff" d="M1298.5,-60.3C1298.5,-51.2 1298.5,-39.29 1298.5,-29.4"/>
<polygon fill="#63b8ff" stroke="#63b8ff" points="1302,-29.34 1298.5,-19.34 1295,-29.34 1302,-29.34"/>
</a>
</g>
</g>
<!-- Node23&#45;&gt;Node18 -->
<g id="edge26_Node000023_Node000018" class="edge">
<title>Node23&#45;&gt;Node18</title>
<g id="a_edge26_Node000023_Node000018"><a xlink:title=" ">
<path fill="none" stroke="#63b8ff" d="M2018.08,-60.3C2001.31,-49.67 1978.49,-35.2 1961.75,-24.6"/>
<polygon fill="#63b8ff" stroke="#63b8ff" points="1963.48,-21.55 1953.16,-19.16 1959.74,-27.47 1963.48,-21.55"/>
</a>
</g>
</g>
<!-- Node24&#45;&gt;Node11 -->
<g id="edge28_Node000024_Node000011" class="edge">
<title>Node24&#45;&gt;Node11</title>
<g id="a_edge28_Node000024_Node000011"><a xlink:title=" ">
<path fill="none" stroke="#63b8ff" d="M2265.5,-60.3C2265.5,-51.2 2265.5,-39.29 2265.5,-29.4"/>
<polygon fill="#63b8ff" stroke="#63b8ff" points="2269,-29.34 2265.5,-19.34 2262,-29.34 2269,-29.34"/>
</a>
</g>
</g>
<!-- Node25&#45;&gt;Node12 -->
<g id="edge30_Node000025_Node000012" class="edge">
<title>Node25&#45;&gt;Node12</title>
<g id="a_edge30_Node000025_Node000012"><a xlink:title=" ">
<path fill="none" stroke="#63b8ff" d="M150.09,-60.49C160.87,-58.43 171.98,-56.5 182.5,-55 372.37,-27.95 602.53,-15.68 686.68,-11.87"/>
<polygon fill="#63b8ff" stroke="#63b8ff" points="687.05,-15.36 696.88,-11.42 686.74,-8.37 687.05,-15.36"/>
</a>
</g>
</g>
<!-- Node26&#45;&gt;Node20 -->
<g id="edge32_Node000026_Node000020" class="edge">
<title>Node26&#45;&gt;Node20</title>
<g id="a_edge32_Node000026_Node000020"><a xlink:title=" ">
<path fill="none" stroke="#63b8ff" d="M2883.2,-60.45C2917.1,-49.03 2964.41,-33.1 2996.4,-22.32"/>
<polygon fill="#63b8ff" stroke="#63b8ff" points="2997.85,-25.53 3006.21,-19.02 2995.62,-18.89 2997.85,-25.53"/>
</a>
</g>
</g>
<!-- Node27&#45;&gt;Node20 -->
<g id="edge34_Node000027_Node000020" class="edge">
<title>Node27&#45;&gt;Node20</title>
<g id="a_edge34_Node000027_Node000020"><a xlink:title=" ">
<path fill="none" stroke="#63b8ff" d="M3031.5,-60.3C3031.5,-51.2 3031.5,-39.29 3031.5,-29.4"/>
<polygon fill="#63b8ff" stroke="#63b8ff" points="3035,-29.34 3031.5,-19.34 3028,-29.34 3035,-29.34"/>
</a>
</g>
</g>
<!-- Node28&#45;&gt;Node12 -->
<g id="edge36_Node000028_Node000012" class="edge">
<title>Node28&#45;&gt;Node12</title>
<g id="a_edge36_Node000028_Node000012"><a xlink:title=" ">
<path fill="none" stroke="#63b8ff" d="M319.9,-60.42C328.76,-58.43 337.86,-56.54 346.5,-55 471.18,-32.81 621.33,-18.68 686.57,-13.15"/>
<polygon fill="#63b8ff" stroke="#63b8ff" points="686.99,-16.63 696.66,-12.31 686.4,-9.65 686.99,-16.63"/>
</a>
</g>
</g>
<!-- Node29&#45;&gt;Node11 -->
<g id="edge38_Node000029_Node000011" class="edge">
<title>Node29&#45;&gt;Node11</title>
<g id="a_edge38_Node000029_Node000011"><a xlink:title=" ">
<path fill="none" stroke="#63b8ff" d="M2411.46,-60.45C2378.09,-49.03 2331.53,-33.1 2300.04,-22.32"/>
<polygon fill="#63b8ff" stroke="#63b8ff" points="2300.98,-18.94 2290.39,-19.02 2298.71,-25.57 2300.98,-18.94"/>
</a>
</g>
</g>
<!-- Node30&#45;&gt;Node12 -->
<g id="edge40_Node000030_Node000012" class="edge">
<title>Node30&#45;&gt;Node12</title>
<g id="a_edge40_Node000030_Node000012"><a xlink:title=" ">
<path fill="none" stroke="#63b8ff" d="M525.35,-55.04C579.94,-42.51 647.81,-26.94 687.14,-17.92"/>
<polygon fill="#63b8ff" stroke="#63b8ff" points="688,-21.32 696.97,-15.67 686.44,-14.49 688,-21.32"/>
</a>
</g>
</g>
<!-- Node31&#45;&gt;Node12 -->
<g id="edge42_Node000031_Node000012" class="edge">
<title>Node31&#45;&gt;Node12</title>
<g id="a_edge42_Node000031_Node000012"><a xlink:title=" ">
<path fill="none" stroke="#63b8ff" d="M655.6,-54.95C669.38,-45.37 685.69,-34.02 698.39,-25.19"/>
<polygon fill="#63b8ff" stroke="#63b8ff" points="700.7,-27.84 706.91,-19.26 696.7,-22.1 700.7,-27.84"/>
</a>
</g>
</g>
<!-- Node32&#45;&gt;Node12 -->
<g id="edge44_Node000032_Node000012" class="edge">
<title>Node32&#45;&gt;Node12</title>
<g id="a_edge44_Node000032_Node000012"><a xlink:title=" ">
<path fill="none" stroke="#63b8ff" d="M782.7,-54.95C769.08,-45.37 752.94,-34.02 740.38,-25.19"/>
<polygon fill="#63b8ff" stroke="#63b8ff" points="742.15,-22.15 731.96,-19.26 738.12,-27.88 742.15,-22.15"/>
</a>
</g>
</g>
<!-- Node33&#45;&gt;Node12 -->
<g id="edge46_Node000033_Node000012" class="edge">
<title>Node33&#45;&gt;Node12</title>
<g id="a_edge46_Node000033_Node000012"><a xlink:title=" ">
<path fill="none" stroke="#63b8ff" d="M996.07,-56.87C992.84,-56.23 989.64,-55.6 986.5,-55 902.26,-38.86 802.42,-23.12 752.05,-15.41"/>
<polygon fill="#63b8ff" stroke="#63b8ff" points="752.48,-11.93 742.07,-13.89 751.43,-18.85 752.48,-11.93"/>
</a>
</g>
</g>
<!-- Node34&#45;&gt;Node11 -->
<g id="edge48_Node000034_Node000011" class="edge">
<title>Node34&#45;&gt;Node11</title>
<g id="a_edge48_Node000034_Node000011"><a xlink:title=" ">
<path fill="none" stroke="#63b8ff" d="M2585.45,-60.48C2576.1,-58.55 2566.56,-56.66 2557.5,-55 2470.36,-39.04 2367.86,-24.36 2310.41,-16.49"/>
<polygon fill="#63b8ff" stroke="#63b8ff" points="2310.6,-12.99 2300.22,-15.11 2309.66,-19.92 2310.6,-12.99"/>
</a>
</g>
</g>
<!-- Node35&#45;&gt;Node5 -->
<g id="edge56_Node000035_Node000005" class="edge">
<title>Node35&#45;&gt;Node5</title>
<g id="a_edge56_Node000035_Node000005"><a xlink:title=" ">
<path fill="none" stroke="#63b8ff" d="M3861.32,-197.61C3857.08,-187.64 3851.36,-174.05 3846.5,-162 3837.14,-138.78 3826.82,-111.8 3820.26,-94.46"/>
<polygon fill="#63b8ff" stroke="#63b8ff" points="3823.5,-93.15 3816.7,-85.03 3816.95,-95.62 3823.5,-93.15"/>
</a>
</g>
</g>
<!-- Node35&#45;&gt;Node36 -->
<g id="edge50_Node000035_Node000036" class="edge">
<title>Node35&#45;&gt;Node36</title>
<g id="a_edge50_Node000035_Node000036"><a xlink:title=" ">
<path fill="none" stroke="#63b8ff" d="M3838.31,-197.95C3815.4,-186.93 3783.75,-171.7 3761.43,-160.96"/>
<polygon fill="#63b8ff" stroke="#63b8ff" points="3762.73,-157.7 3752.2,-156.52 3759.69,-164.01 3762.73,-157.7"/>
</a>
</g>
</g>
<!-- Node38 -->
<g id="Node000038" class="node">
<title>Node38</title>
<g id="a_Node000038"><a xlink:title=" ">
<polygon fill="#e0e0e0" stroke="#999999" points="3897.5,-156.5 3855.5,-156.5 3855.5,-137.5 3897.5,-137.5 3897.5,-156.5"/>
<text text-anchor="middle" x="3876.5" y="-144.5" font-family="Helvetica,sans-Serif" font-size="10.00">array</text>
</a>
</g>
</g>
<!-- Node35&#45;&gt;Node38 -->
<g id="edge52_Node000035_Node000038" class="edge">
<title>Node35&#45;&gt;Node38</title>
<g id="a_edge52_Node000035_Node000038"><a xlink:title=" ">
<path fill="none" stroke="#63b8ff" d="M3869.5,-197.8C3870.78,-188.7 3872.45,-176.79 3873.84,-166.9"/>
<polygon fill="#63b8ff" stroke="#63b8ff" points="3877.33,-167.23 3875.26,-156.84 3870.4,-166.26 3877.33,-167.23"/>
</a>
</g>
</g>
<!-- Node35&#45;&gt;Node39 -->
<g id="edge53_Node000035_Node000039" class="edge">
<title>Node35&#45;&gt;Node39</title>
<g id="a_edge53_Node000035_Node000039"><a xlink:title=" ">
<path fill="none" stroke="#63b8ff" d="M3796.55,-197.98C3756.43,-189.26 3705.61,-176.88 3661.5,-162 3660.06,-161.52 3658.6,-160.99 3657.14,-160.44"/>
<polygon fill="#63b8ff" stroke="#63b8ff" points="3658.14,-157.07 3647.56,-156.55 3655.51,-163.56 3658.14,-157.07"/>
</a>
</g>
</g>
<!-- Node40 -->
<g id="Node000040" class="node">
<title>Node40</title>
<g id="a_Node000040"><a xlink:title=" ">
<polygon fill="#e0e0e0" stroke="#999999" points="3967,-156.5 3916,-156.5 3916,-137.5 3967,-137.5 3967,-156.5"/>
<text text-anchor="middle" x="3941.5" y="-144.5" font-family="Helvetica,sans-Serif" font-size="10.00">variant</text>
</a>
</g>
</g>
<!-- Node35&#45;&gt;Node40 -->
<g id="edge54_Node000035_Node000040" class="edge">
<title>Node35&#45;&gt;Node40</title>
<g id="a_edge54_Node000035_Node000040"><a xlink:title=" ">
<path fill="none" stroke="#63b8ff" d="M3883.92,-197.8C3895.69,-187.62 3911.52,-173.93 3923.6,-163.48"/>
<polygon fill="#63b8ff" stroke="#63b8ff" points="3926,-166.03 3931.27,-156.84 3921.42,-160.74 3926,-166.03"/>
</a>
</g>
</g>
<!-- Node35&#45;&gt;Node41 -->
<g id="edge55_Node000035_Node000041" class="edge">
<title>Node35&#45;&gt;Node41</title>
<g id="a_edge55_Node000035_Node000041"><a xlink:title=" ">
<path fill="none" stroke="#63b8ff" d="M3945.29,-200.09C3950.1,-199.38 3954.86,-198.67 3959.5,-198 4074.51,-181.26 4105.89,-190.74 4218.5,-162 4220.95,-161.38 4223.45,-160.64 4225.95,-159.84"/>
<polygon fill="#63b8ff" stroke="#63b8ff" points="4227.12,-163.14 4235.41,-156.53 4224.81,-156.53 4227.12,-163.14"/>
</a>
</g>
</g>
<!-- Node42 -->
<g id="Node000042" class="node">
<title>Node42</title>
<g id="a_Node000042"><a xlink:title=" ">
<polygon fill="#e0e0e0" stroke="#999999" points="4035.5,-156.5 3985.5,-156.5 3985.5,-137.5 4035.5,-137.5 4035.5,-156.5"/>
<text text-anchor="middle" x="4010.5" y="-144.5" font-family="Helvetica,sans-Serif" font-size="10.00">format</text>
</a>
</g>
</g>
<!-- Node35&#45;&gt;Node42 -->
<g id="edge57_Node000035_Node000042" class="edge">
<title>Node35&#45;&gt;Node42</title>
<g id="a_edge57_Node000035_Node000042"><a xlink:title=" ">
<path fill="none" stroke="#63b8ff" d="M3898.88,-197.95C3923.74,-186.83 3958.16,-171.42 3982.18,-160.67"/>
<polygon fill="#63b8ff" stroke="#63b8ff" points="3983.77,-163.8 3991.47,-156.52 3980.91,-157.41 3983.77,-163.8"/>
</a>
</g>
</g>
<!-- Node43 -->
<g id="Node000043" class="node">
<title>Node43</title>
<g id="a_Node000043"><a xlink:title=" ">
<polygon fill="#e0e0e0" stroke="#999999" points="4209,-162 4054,-162 4054,-132 4209,-132 4209,-162"/>
<text text-anchor="start" x="4062" y="-150" font-family="Helvetica,sans-Serif" font-size="10.00">Hermes/Endpoint/IpEndpoint</text>
<text text-anchor="middle" x="4131.5" y="-139" font-family="Helvetica,sans-Serif" font-size="10.00">/IpAddress.tpp</text>
</a>
</g>
</g>
<!-- Node35&#45;&gt;Node43 -->
<g id="edge58_Node000035_Node000043" class="edge">
<title>Node35&#45;&gt;Node43</title>
<g id="a_edge58_Node000035_Node000043"><a xlink:title=" ">
<path fill="none" stroke="#63b8ff" d="M3925.44,-197.95C3966.27,-188.06 4021.09,-174.77 4063.92,-164.38"/>
<polygon fill="#63b8ff" stroke="#63b8ff" points="4064.81,-167.77 4073.7,-162.01 4063.16,-160.97 4064.81,-167.77"/>
</a>
</g>
</g>
<!-- Node37 -->
<g id="Node000037" class="node">
<title>Node37</title>
<g id="a_Node000037"><a xlink:title=" ">
<polygon fill="#e0e0e0" stroke="#999999" points="3757,-85 3712,-85 3712,-66 3757,-66 3757,-85"/>
<text text-anchor="middle" x="3734.5" y="-73" font-family="Helvetica,sans-Serif" font-size="10.00">utility</text>
</a>
</g>
</g>
<!-- Node36&#45;&gt;Node37 -->
<g id="edge51_Node000036_Node000037" class="edge">
<title>Node36&#45;&gt;Node37</title>
<g id="a_edge51_Node000036_Node000037"><a xlink:title=" ">
<path fill="none" stroke="#63b8ff" d="M3734.5,-137.48C3734.5,-127.06 3734.5,-109.11 3734.5,-95.38"/>
<polygon fill="#63b8ff" stroke="#63b8ff" points="3738,-95.09 3734.5,-85.09 3731,-95.09 3738,-95.09"/>
</a>
</g>
</g>
</g>
</svg>
