<?xml version="1.0" encoding="UTF-8" standalone="no"?>
<!DOCTYPE svg PUBLIC "-//W3C//DTD SVG 1.1//EN"
 "http://www.w3.org/Graphics/SVG/1.1/DTD/svg11.dtd">
<!-- Generated by graphviz version 2.43.0 (0)
 -->
<!-- Title: include/Hermes/Endpoint/IpEndpoint/IpEndpoint.hpp Pages: 1 -->
<svg width="3506pt" height="302pt"
 viewBox="0.00 0.00 3506.26 302.00" xmlns="http://www.w3.org/2000/svg" xmlns:xlink="http://www.w3.org/1999/xlink">
<g id="graph0" class="graph" transform="scale(1 1) rotate(0) translate(4 298)">
<title>include/Hermes/Endpoint/IpEndpoint/IpEndpoint.hpp</title>
<!-- Node1 -->
<g id="Node000001" class="node">
<title>Node1</title>
<g id="a_Node000001"><a xlink:title=" ">
<polygon fill="#999999" stroke="#666666" points="3112.76,-294 2965.76,-294 2965.76,-264 3112.76,-264 3112.76,-294"/>
<text text-anchor="start" x="2973.76" y="-282" font-family="Helvetica,sans-Serif" font-size="10.00">include/Hermes/Endpoint</text>
<text text-anchor="middle" x="3039.26" y="-271" font-family="Helvetica,sans-Serif" font-size="10.00">/IpEndpoint/IpEndpoint.hpp</text>
</a>
</g>
</g>
<!-- Node2 -->
<g id="Node000002" class="node">
<title>Node2</title>
<g id="a_Node000002"><a xlink:href="_endpoint_concept_8hpp.html" target="_top" xlink:title=" ">
<polygon fill="white" stroke="#666666" points="2676.26,-228 2544.26,-228 2544.26,-198 2676.26,-198 2676.26,-228"/>
<text text-anchor="start" x="2552.26" y="-216" font-family="Helvetica,sans-Serif" font-size="10.00">Hermes/Endpoint/_base</text>
<text text-anchor="middle" x="2610.26" y="-205" font-family="Helvetica,sans-Serif" font-size="10.00">/EndpointConcept.hpp</text>
</a>
</g>
</g>
<!-- Node1&#45;&gt;Node2 -->
<g id="edge1_Node000001_Node000002" class="edge">
<title>Node1&#45;&gt;Node2</title>
<g id="a_edge1_Node000001_Node000002"><a xlink:title=" ">
<path fill="none" stroke="#63b8ff" d="M2965.52,-267C2887.68,-255.39 2765.57,-237.17 2686.72,-225.41"/>
<polygon fill="#63b8ff" stroke="#63b8ff" points="2686.78,-221.88 2676.37,-223.86 2685.75,-228.8 2686.78,-221.88"/>
</a>
</g>
</g>
<!-- Node29 -->
<g id="Node000029" class="node">
<title>Node29</title>
<g id="a_Node000029"><a xlink:href="_ip_address_8hpp.html" target="_top" xlink:title=" ">
<polygon fill="white" stroke="#666666" points="3169.76,-228 3014.76,-228 3014.76,-198 3169.76,-198 3169.76,-228"/>
<text text-anchor="start" x="3022.76" y="-216" font-family="Helvetica,sans-Serif" font-size="10.00">Hermes/Endpoint/IpEndpoint</text>
<text text-anchor="middle" x="3092.26" y="-205" font-family="Helvetica,sans-Serif" font-size="10.00">/IpAddress.hpp</text>
</a>
</g>
</g>
<!-- Node1&#45;&gt;Node29 -->
<g id="edge34_Node000001_Node000029" class="edge">
<title>Node1&#45;&gt;Node29</title>
<g id="a_edge34_Node000001_Node000029"><a xlink:title=" ">
<path fill="none" stroke="#63b8ff" d="M3051.03,-263.8C3057.82,-255.59 3066.51,-245.1 3074.16,-235.87"/>
<polygon fill="#63b8ff" stroke="#63b8ff" points="3076.85,-238.1 3080.54,-228.16 3071.46,-233.63 3076.85,-238.1"/>
</a>
</g>
</g>
<!-- Node30 -->
<g id="Node000030" class="node">
<title>Node30</title>
<g id="a_Node000030"><a xlink:href="_hash_8hpp.html" target="_top" xlink:title=" ">
<polygon fill="white" stroke="#666666" points="3051.76,-156.5 2922.76,-156.5 2922.76,-137.5 3051.76,-137.5 3051.76,-156.5"/>
<text text-anchor="middle" x="2987.26" y="-144.5" font-family="Helvetica,sans-Serif" font-size="10.00">Hermes/Utils/Hash.hpp</text>
</a>
</g>
</g>
<!-- Node1&#45;&gt;Node30 -->
<g id="edge45_Node000001_Node000030" class="edge">
<title>Node1&#45;&gt;Node30</title>
<g id="a_edge45_Node000001_Node000030"><a xlink:title=" ">
<path fill="none" stroke="#63b8ff" d="M3028.01,-263.9C3020.84,-254.28 3011.88,-240.98 3006.26,-228 2997.61,-207.99 2992.52,-183.37 2989.82,-166.78"/>
<polygon fill="#63b8ff" stroke="#63b8ff" points="2993.26,-166.1 2988.32,-156.72 2986.33,-167.13 2993.26,-166.1"/>
</a>
</g>
</g>
<!-- Node34 -->
<g id="Node000034" class="node">
<title>Node34</title>
<g id="a_Node000034"><a xlink:title=" ">
<polygon fill="#e0e0e0" stroke="#999999" points="2866.26,-156.5 2822.26,-156.5 2822.26,-137.5 2866.26,-137.5 2866.26,-156.5"/>
<text text-anchor="middle" x="2844.26" y="-144.5" font-family="Helvetica,sans-Serif" font-size="10.00">string</text>
</a>
</g>
</g>
<!-- Node1&#45;&gt;Node34 -->
<g id="edge47_Node000001_Node000034" class="edge">
<title>Node1&#45;&gt;Node34</title>
<g id="a_edge47_Node000001_Node000034"><a xlink:title=" ">
<path fill="none" stroke="#63b8ff" d="M3018.03,-263.84C2980.72,-238.97 2903.8,-187.69 2866.08,-162.55"/>
<polygon fill="#63b8ff" stroke="#63b8ff" points="2867.65,-159.38 2857.39,-156.75 2863.77,-165.21 2867.65,-159.38"/>
</a>
</g>
</g>
<!-- Node36 -->
<g id="Node000036" class="node">
<title>Node36</title>
<g id="a_Node000036"><a xlink:title=" ">
<polygon fill="#e0e0e0" stroke="#999999" points="3498.26,-156.5 3442.26,-156.5 3442.26,-137.5 3498.26,-137.5 3498.26,-156.5"/>
<text text-anchor="middle" x="3470.26" y="-144.5" font-family="Helvetica,sans-Serif" font-size="10.00">optional</text>
</a>
</g>
</g>
<!-- Node1&#45;&gt;Node36 -->
<g id="edge46_Node000001_Node000036" class="edge">
<title>Node1&#45;&gt;Node36</title>
<g id="a_edge46_Node000001_Node000036"><a xlink:title=" ">
<path fill="none" stroke="#63b8ff" d="M3090.47,-263.95C3117.72,-255.44 3151.28,-243.26 3179.26,-228 3198.46,-217.53 3198.22,-206.73 3218.26,-198 3307.09,-159.31 3339.73,-187.26 3433.26,-162 3435.56,-161.38 3437.91,-160.67 3440.26,-159.91"/>
<polygon fill="#63b8ff" stroke="#63b8ff" points="3441.48,-163.19 3449.76,-156.58 3439.16,-156.59 3441.48,-163.19"/>
</a>
</g>
</g>
<!-- Node39 -->
<g id="Node000039" class="node">
<title>Node39</title>
<g id="a_Node000039"><a xlink:title=" ">
<polygon fill="#e0e0e0" stroke="#999999" points="3381.76,-228 3226.76,-228 3226.76,-198 3381.76,-198 3381.76,-228"/>
<text text-anchor="start" x="3234.76" y="-216" font-family="Helvetica,sans-Serif" font-size="10.00">Hermes/Endpoint/IpEndpoint</text>
<text text-anchor="middle" x="3304.26" y="-205" font-family="Helvetica,sans-Serif" font-size="10.00">/IpEndpoint.tpp</text>
</a>
</g>
</g>
<!-- Node1&#45;&gt;Node39 -->
<g id="edge48_Node000001_Node000039" class="edge">
<title>Node1&#45;&gt;Node39</title>
<g id="a_edge48_Node000001_Node000039"><a xlink:title=" ">
<path fill="none" stroke="#63b8ff" d="M3097.42,-263.95C3138.41,-254.06 3193.44,-240.77 3236.43,-230.38"/>
<polygon fill="#63b8ff" stroke="#63b8ff" points="3237.35,-233.76 3246.25,-228.01 3235.7,-226.96 3237.35,-233.76"/>
</a>
</g>
</g>
<!-- Node3 -->
<g id="Node000003" class="node">
<title>Node3</title>
<g id="a_Node000003"><a xlink:href="_connection_error_enum_8hpp.html" target="_top" xlink:title=" ">
<polygon fill="white" stroke="#666666" points="2693.76,-162 2526.76,-162 2526.76,-132 2693.76,-132 2693.76,-162"/>
<text text-anchor="start" x="2534.76" y="-150" font-family="Helvetica,sans-Serif" font-size="10.00">Hermes/_base/ConnectionError</text>
<text text-anchor="middle" x="2610.26" y="-139" font-family="Helvetica,sans-Serif" font-size="10.00">Enum.hpp</text>
</a>
</g>
</g>
<!-- Node2&#45;&gt;Node3 -->
<g id="edge2_Node000002_Node000003" class="edge">
<title>Node2&#45;&gt;Node3</title>
<g id="a_edge2_Node000002_Node000003"><a xlink:title=" ">
<path fill="none" stroke="#63b8ff" d="M2610.26,-197.8C2610.26,-190.34 2610.26,-180.99 2610.26,-172.41"/>
<polygon fill="#63b8ff" stroke="#63b8ff" points="2613.77,-172.16 2610.26,-162.16 2606.77,-172.16 2613.77,-172.16"/>
</a>
</g>
</g>
<!-- Node9 -->
<g id="Node000009" class="node">
<title>Node9</title>
<g id="a_Node000009"><a xlink:href="_os_api_8hpp.html" target="_top" xlink:title=" ">
<polygon fill="white" stroke="#666666" points="1253.26,-162 1135.26,-162 1135.26,-132 1253.26,-132 1253.26,-162"/>
<text text-anchor="start" x="1143.26" y="-150" font-family="Helvetica,sans-Serif" font-size="10.00">Hermes/_base/OsApi</text>
<text text-anchor="middle" x="1194.26" y="-139" font-family="Helvetica,sans-Serif" font-size="10.00">/OsApi.hpp</text>
</a>
</g>
</g>
<!-- Node2&#45;&gt;Node9 -->
<g id="edge8_Node000002_Node000009" class="edge">
<title>Node2&#45;&gt;Node9</title>
<g id="a_edge8_Node000002_Node000009"><a xlink:title=" ">
<path fill="none" stroke="#63b8ff" d="M2543.87,-209C2306.96,-198.29 1504.53,-162.02 1263.37,-151.12"/>
<polygon fill="#63b8ff" stroke="#63b8ff" points="1263.48,-147.62 1253.33,-150.67 1263.16,-154.62 1263.48,-147.62"/>
</a>
</g>
</g>
<!-- Node4 -->
<g id="Node000004" class="node">
<title>Node4</title>
<g id="a_Node000004"><a xlink:title=" ">
<polygon fill="#e0e0e0" stroke="#999999" points="2471.26,-85 2409.26,-85 2409.26,-66 2471.26,-66 2471.26,-85"/>
<text text-anchor="middle" x="2440.26" y="-73" font-family="Helvetica,sans-Serif" font-size="10.00">expected</text>
</a>
</g>
</g>
<!-- Node3&#45;&gt;Node4 -->
<g id="edge3_Node000003_Node000004" class="edge">
<title>Node3&#45;&gt;Node4</title>
<g id="a_edge3_Node000003_Node000004"><a xlink:title=" ">
<path fill="none" stroke="#63b8ff" d="M2571.23,-131.99C2545.23,-122.41 2510.42,-109.12 2480.26,-96 2475.72,-94.02 2470.95,-91.81 2466.34,-89.61"/>
<polygon fill="#63b8ff" stroke="#63b8ff" points="2467.77,-86.41 2457.24,-85.18 2464.7,-92.71 2467.77,-86.41"/>
</a>
</g>
</g>
<!-- Node5 -->
<g id="Node000005" class="node">
<title>Node5</title>
<g id="a_Node000005"><a xlink:title=" ">
<polygon fill="#e0e0e0" stroke="#999999" points="2922.76,-85 2875.76,-85 2875.76,-66 2922.76,-66 2922.76,-85"/>
<text text-anchor="middle" x="2899.26" y="-73" font-family="Helvetica,sans-Serif" font-size="10.00">vector</text>
</a>
</g>
</g>
<!-- Node3&#45;&gt;Node5 -->
<g id="edge4_Node000003_Node000005" class="edge">
<title>Node3&#45;&gt;Node5</title>
<g id="a_edge4_Node000003_Node000005"><a xlink:title=" ">
<path fill="none" stroke="#63b8ff" d="M2693.95,-137.35C2745.24,-130.2 2811.53,-117.6 2867.26,-96 2871.11,-94.51 2875.02,-92.56 2878.72,-90.47"/>
<polygon fill="#63b8ff" stroke="#63b8ff" points="2880.65,-93.39 2887.34,-85.17 2876.98,-87.43 2880.65,-93.39"/>
</a>
</g>
</g>
<!-- Node6 -->
<g id="Node000006" class="node">
<title>Node6</title>
<g id="a_Node000006"><a xlink:title=" ">
<polygon fill="#e0e0e0" stroke="#999999" points="2529.26,-85 2489.26,-85 2489.26,-66 2529.26,-66 2529.26,-85"/>
<text text-anchor="middle" x="2509.26" y="-73" font-family="Helvetica,sans-Serif" font-size="10.00">span</text>
</a>
</g>
</g>
<!-- Node3&#45;&gt;Node6 -->
<g id="edge5_Node000003_Node000006" class="edge">
<title>Node3&#45;&gt;Node6</title>
<g id="a_edge5_Node000003_Node000006"><a xlink:title=" ">
<path fill="none" stroke="#63b8ff" d="M2589.83,-131.94C2572.45,-119.98 2547.61,-102.88 2530.12,-90.85"/>
<polygon fill="#63b8ff" stroke="#63b8ff" points="2531.94,-87.85 2521.72,-85.07 2527.97,-93.62 2531.94,-87.85"/>
</a>
</g>
</g>
<!-- Node7 -->
<g id="Node000007" class="node">
<title>Node7</title>
<g id="a_Node000007"><a xlink:title=" ">
<polygon fill="#e0e0e0" stroke="#999999" points="2672.76,-85 2547.76,-85 2547.76,-66 2672.76,-66 2672.76,-85"/>
<text text-anchor="middle" x="2610.26" y="-73" font-family="Helvetica,sans-Serif" font-size="10.00">stdexec/execution.hpp</text>
</a>
</g>
</g>
<!-- Node3&#45;&gt;Node7 -->
<g id="edge6_Node000003_Node000007" class="edge">
<title>Node3&#45;&gt;Node7</title>
<g id="a_edge6_Node000003_Node000007"><a xlink:title=" ">
<path fill="none" stroke="#63b8ff" d="M2610.26,-131.94C2610.26,-121.46 2610.26,-107.05 2610.26,-95.55"/>
<polygon fill="#63b8ff" stroke="#63b8ff" points="2613.77,-95.27 2610.26,-85.27 2606.77,-95.27 2613.77,-95.27"/>
</a>
</g>
</g>
<!-- Node8 -->
<g id="Node000008" class="node">
<title>Node8</title>
<g id="a_Node000008"><a xlink:title=" ">
<polygon fill="#e0e0e0" stroke="#999999" points="2857.76,-90.5 2690.76,-90.5 2690.76,-60.5 2857.76,-60.5 2857.76,-90.5"/>
<text text-anchor="start" x="2698.76" y="-78.5" font-family="Helvetica,sans-Serif" font-size="10.00">Hermes/_base/ConnectionError</text>
<text text-anchor="middle" x="2774.26" y="-67.5" font-family="Helvetica,sans-Serif" font-size="10.00">Enum.tpp</text>
</a>
</g>
</g>
<!-- Node3&#45;&gt;Node8 -->
<g id="edge7_Node000003_Node000008" class="edge">
<title>Node3&#45;&gt;Node8</title>
<g id="a_edge7_Node000003_Node000008"><a xlink:title=" ">
<path fill="none" stroke="#63b8ff" d="M2643.45,-131.94C2668.91,-121.15 2704.22,-106.18 2731.75,-94.52"/>
<polygon fill="#63b8ff" stroke="#63b8ff" points="2733.28,-97.67 2741.13,-90.54 2730.55,-91.22 2733.28,-97.67"/>
</a>
</g>
</g>
<!-- Node10 -->
<g id="Node000010" class="node">
<title>Node10</title>
<g id="a_Node000010"><a xlink:title=" ">
<polygon fill="#e0e0e0" stroke="#999999" points="1878.76,-19 1801.76,-19 1801.76,0 1878.76,0 1878.76,-19"/>
<text text-anchor="middle" x="1840.26" y="-7" font-family="Helvetica,sans-Serif" font-size="10.00">sys/socket.h</text>
</a>
</g>
</g>
<!-- Node9&#45;&gt;Node10 -->
<g id="edge9_Node000009_Node000010" class="edge">
<title>Node9&#45;&gt;Node10</title>
<g id="a_edge9_Node000009_Node000010"><a xlink:title=" ">
<path fill="none" stroke="#63b8ff" d="M1253.28,-145.26C1401.41,-142.85 1780.1,-133.09 1822.26,-96 1840.93,-79.59 1843.07,-49.16 1842.2,-29.38"/>
<polygon fill="#63b8ff" stroke="#63b8ff" points="1845.67,-28.87 1841.44,-19.15 1838.69,-29.38 1845.67,-28.87"/>
</a>
</g>
</g>
<!-- Node11 -->
<g id="Node000011" class="node">
<title>Node11</title>
<g id="a_Node000011"><a xlink:title=" ">
<polygon fill="#e0e0e0" stroke="#999999" points="1015.26,-19 943.26,-19 943.26,0 1015.26,0 1015.26,-19"/>
<text text-anchor="middle" x="979.26" y="-7" font-family="Helvetica,sans-Serif" font-size="10.00">netinet/in.h</text>
</a>
</g>
</g>
<!-- Node9&#45;&gt;Node11 -->
<g id="edge10_Node000009_Node000011" class="edge">
<title>Node9&#45;&gt;Node11</title>
<g id="a_edge10_Node000009_Node000011"><a xlink:title=" ">
<path fill="none" stroke="#63b8ff" d="M1163.67,-131.92C1145.56,-122.9 1122.64,-110.22 1104.26,-96 1084.38,-80.61 1085.38,-70.1 1065.26,-55 1048.29,-42.26 1027.15,-31.27 1010.08,-23.39"/>
<polygon fill="#63b8ff" stroke="#63b8ff" points="1011.11,-20.02 1000.55,-19.13 1008.25,-26.41 1011.11,-20.02"/>
</a>
</g>
</g>
<!-- Node12 -->
<g id="Node000012" class="node">
<title>Node12</title>
<g id="a_Node000012"><a xlink:title=" ">
<polygon fill="#e0e0e0" stroke="#999999" points="1056.76,-85 987.76,-85 987.76,-66 1056.76,-66 1056.76,-85"/>
<text text-anchor="middle" x="1022.26" y="-73" font-family="Helvetica,sans-Serif" font-size="10.00">arpa/inet.h</text>
</a>
</g>
</g>
<!-- Node9&#45;&gt;Node12 -->
<g id="edge11_Node000009_Node000012" class="edge">
<title>Node9&#45;&gt;Node12</title>
<g id="a_edge11_Node000009_Node000012"><a xlink:title=" ">
<path fill="none" stroke="#63b8ff" d="M1159.46,-131.94C1128.24,-119.32 1082.87,-100.99 1052.97,-88.91"/>
<polygon fill="#63b8ff" stroke="#63b8ff" points="1054.05,-85.57 1043.47,-85.07 1051.43,-92.06 1054.05,-85.57"/>
</a>
</g>
</g>
<!-- Node13 -->
<g id="Node000013" class="node">
<title>Node13</title>
<g id="a_Node000013"><a xlink:title=" ">
<polygon fill="#e0e0e0" stroke="#999999" points="365.76,-19 312.76,-19 312.76,0 365.76,0 365.76,-19"/>
<text text-anchor="middle" x="339.26" y="-7" font-family="Helvetica,sans-Serif" font-size="10.00">netdb.h</text>
</a>
</g>
</g>
<!-- Node9&#45;&gt;Node13 -->
<g id="edge12_Node000009_Node000013" class="edge">
<title>Node9&#45;&gt;Node13</title>
<g id="a_edge12_Node000009_Node000013"><a xlink:title=" ">
<path fill="none" stroke="#63b8ff" d="M1134.89,-145.75C900.26,-144.47 48.56,-136.99 9.26,-96 -3.35,-82.85 -2.73,-68.72 9.26,-55 47.01,-11.82 224.49,-8.84 302.42,-9.69"/>
<polygon fill="#63b8ff" stroke="#63b8ff" points="302.68,-13.19 312.73,-9.83 302.78,-6.19 302.68,-13.19"/>
</a>
</g>
</g>
<!-- Node14 -->
<g id="Node000014" class="node">
<title>Node14</title>
<g id="a_Node000014"><a xlink:title=" ">
<polygon fill="#e0e0e0" stroke="#999999" points="1169.26,-85 1113.26,-85 1113.26,-66 1169.26,-66 1169.26,-85"/>
<text text-anchor="middle" x="1141.26" y="-73" font-family="Helvetica,sans-Serif" font-size="10.00">unistd.h</text>
</a>
</g>
</g>
<!-- Node9&#45;&gt;Node14 -->
<g id="edge13_Node000009_Node000014" class="edge">
<title>Node9&#45;&gt;Node14</title>
<g id="a_edge13_Node000009_Node000014"><a xlink:title=" ">
<path fill="none" stroke="#63b8ff" d="M1183.54,-131.94C1175.06,-120.81 1163.18,-105.24 1154.17,-93.43"/>
<polygon fill="#63b8ff" stroke="#63b8ff" points="1156.8,-91.1 1147.95,-85.27 1151.23,-95.34 1156.8,-91.1"/>
</a>
</g>
</g>
<!-- Node15 -->
<g id="Node000015" class="node">
<title>Node15</title>
<g id="a_Node000015"><a xlink:href="_types_8hpp.html" target="_top" xlink:title=" ">
<polygon fill="white" stroke="#666666" points="1305.26,-90.5 1187.26,-90.5 1187.26,-60.5 1305.26,-60.5 1305.26,-90.5"/>
<text text-anchor="start" x="1195.26" y="-78.5" font-family="Helvetica,sans-Serif" font-size="10.00">Hermes/_base/OsApi</text>
<text text-anchor="middle" x="1246.26" y="-67.5" font-family="Helvetica,sans-Serif" font-size="10.00">/Types.hpp</text>
</a>
</g>
</g>
<!-- Node9&#45;&gt;Node15 -->
<g id="edge14_Node000009_Node000015" class="edge">
<title>Node9&#45;&gt;Node15</title>
<g id="a_edge14_Node000009_Node000015"><a xlink:title=" ">
<path fill="none" stroke="#63b8ff" d="M1204.79,-131.94C1211.91,-122.42 1221.46,-109.65 1229.6,-98.77"/>
<polygon fill="#63b8ff" stroke="#63b8ff" points="1232.57,-100.65 1235.76,-90.54 1226.96,-96.45 1232.57,-100.65"/>
</a>
</g>
</g>
<!-- Node16 -->
<g id="Node000016" class="node">
<title>Node16</title>
<g id="a_Node000016"><a xlink:href="_conversion_and_literals_8hpp.html" target="_top" xlink:title=" ">
<polygon fill="white" stroke="#666666" points="1473.26,-90.5 1323.26,-90.5 1323.26,-60.5 1473.26,-60.5 1473.26,-90.5"/>
<text text-anchor="start" x="1331.26" y="-78.5" font-family="Helvetica,sans-Serif" font-size="10.00">Hermes/_base/OsApi</text>
<text text-anchor="middle" x="1398.26" y="-67.5" font-family="Helvetica,sans-Serif" font-size="10.00">/ConversionAndLiterals.hpp</text>
</a>
</g>
</g>
<!-- Node9&#45;&gt;Node16 -->
<g id="edge15_Node000009_Node000016" class="edge">
<title>Node9&#45;&gt;Node16</title>
<g id="a_edge15_Node000009_Node000016"><a xlink:title=" ">
<path fill="none" stroke="#63b8ff" d="M1235.55,-131.94C1267.76,-120.96 1312.68,-105.66 1347.16,-93.91"/>
<polygon fill="#63b8ff" stroke="#63b8ff" points="1348.71,-97.08 1357.04,-90.54 1346.45,-90.46 1348.71,-97.08"/>
</a>
</g>
</g>
<!-- Node18 -->
<g id="Node000018" class="node">
<title>Node18</title>
<g id="a_Node000018"><a xlink:href="_macros_8hpp.html" target="_top" xlink:title=" ">
<polygon fill="white" stroke="#666666" points="1609.26,-90.5 1491.26,-90.5 1491.26,-60.5 1609.26,-60.5 1609.26,-90.5"/>
<text text-anchor="start" x="1499.26" y="-78.5" font-family="Helvetica,sans-Serif" font-size="10.00">Hermes/_base/OsApi</text>
<text text-anchor="middle" x="1550.26" y="-67.5" font-family="Helvetica,sans-Serif" font-size="10.00">/Macros.hpp</text>
</a>
</g>
</g>
<!-- Node9&#45;&gt;Node18 -->
<g id="edge17_Node000009_Node000018" class="edge">
<title>Node9&#45;&gt;Node18</title>
<g id="a_edge17_Node000009_Node000018"><a xlink:title=" ">
<path fill="none" stroke="#63b8ff" d="M1253.38,-137.64C1311.86,-128.92 1403.74,-114.02 1482.26,-96 1486.06,-95.13 1489.96,-94.17 1493.88,-93.17"/>
<polygon fill="#63b8ff" stroke="#63b8ff" points="1494.84,-96.54 1503.61,-90.59 1493.05,-89.77 1494.84,-96.54"/>
</a>
</g>
</g>
<!-- Node20 -->
<g id="Node000020" class="node">
<title>Node20</title>
<g id="a_Node000020"><a xlink:href="_address_family_enum_8hpp.html" target="_top" xlink:title=" ">
<polygon fill="white" stroke="#666666" points="2044.26,-90.5 1868.26,-90.5 1868.26,-60.5 2044.26,-60.5 2044.26,-90.5"/>
<text text-anchor="start" x="1876.26" y="-78.5" font-family="Helvetica,sans-Serif" font-size="10.00">Hermes/_base/OsApi</text>
<text text-anchor="middle" x="1956.26" y="-67.5" font-family="Helvetica,sans-Serif" font-size="10.00">/Enums/AddressFamilyEnum.hpp</text>
</a>
</g>
</g>
<!-- Node9&#45;&gt;Node20 -->
<g id="edge20_Node000009_Node000020" class="edge">
<title>Node9&#45;&gt;Node20</title>
<g id="a_edge20_Node000009_Node000020"><a xlink:title=" ">
<path fill="none" stroke="#63b8ff" d="M1253.66,-143.76C1369.57,-138.88 1633.85,-125.32 1854.26,-96 1862.21,-94.94 1870.46,-93.67 1878.69,-92.28"/>
<polygon fill="#63b8ff" stroke="#63b8ff" points="1879.43,-95.7 1888.68,-90.53 1878.23,-88.8 1879.43,-95.7"/>
</a>
</g>
</g>
<!-- Node21 -->
<g id="Node000021" class="node">
<title>Node21</title>
<g id="a_Node000021"><a xlink:href="_protocol_base_type_enum_8hpp.html" target="_top" xlink:title=" ">
<polygon fill="white" stroke="#666666" points="969.76,-90.5 778.76,-90.5 778.76,-60.5 969.76,-60.5 969.76,-90.5"/>
<text text-anchor="start" x="786.76" y="-78.5" font-family="Helvetica,sans-Serif" font-size="10.00">Hermes/_base/OsApi</text>
<text text-anchor="middle" x="874.26" y="-67.5" font-family="Helvetica,sans-Serif" font-size="10.00">/Enums/ProtocolBaseTypeEnum.hpp</text>
</a>
</g>
</g>
<!-- Node9&#45;&gt;Node21 -->
<g id="edge22_Node000009_Node000021" class="edge">
<title>Node9&#45;&gt;Node21</title>
<g id="a_edge22_Node000009_Node000021"><a xlink:title=" ">
<path fill="none" stroke="#63b8ff" d="M1135.2,-133.17C1082.64,-121.76 1005.53,-105.01 948.75,-92.68"/>
<polygon fill="#63b8ff" stroke="#63b8ff" points="949.27,-89.21 938.76,-90.51 947.79,-96.05 949.27,-89.21"/>
</a>
</g>
</g>
<!-- Node22 -->
<g id="Node000022" class="node">
<title>Node22</title>
<g id="a_Node000022"><a xlink:href="_socket_shutdown_enum_8hpp.html" target="_top" xlink:title=" ">
<polygon fill="white" stroke="#666666" points="1812.76,-90.5 1627.76,-90.5 1627.76,-60.5 1812.76,-60.5 1812.76,-90.5"/>
<text text-anchor="start" x="1635.76" y="-78.5" font-family="Helvetica,sans-Serif" font-size="10.00">Hermes/_base/OsApi</text>
<text text-anchor="middle" x="1720.26" y="-67.5" font-family="Helvetica,sans-Serif" font-size="10.00">/Enums/SocketShutdownEnum.hpp</text>
</a>
</g>
</g>
<!-- Node9&#45;&gt;Node22 -->
<g id="edge24_Node000009_Node000022" class="edge">
<title>Node9&#45;&gt;Node22</title>
<g id="a_edge24_Node000009_Node000022"><a xlink:title=" ">
<path fill="none" stroke="#63b8ff" d="M1253.43,-140.37C1335.55,-132.25 1488.61,-116.01 1618.26,-96 1625.51,-94.88 1633.03,-93.63 1640.55,-92.31"/>
<polygon fill="#63b8ff" stroke="#63b8ff" points="1641.2,-95.75 1650.42,-90.54 1639.96,-88.86 1641.2,-95.75"/>
</a>
</g>
</g>
<!-- Node23 -->
<g id="Node000023" class="node">
<title>Node23</title>
<g id="a_Node000023"><a xlink:href="_socket_type_enum_8hpp.html" target="_top" xlink:title=" ">
<polygon fill="white" stroke="#666666" points="2220.76,-90.5 2061.76,-90.5 2061.76,-60.5 2220.76,-60.5 2220.76,-90.5"/>
<text text-anchor="start" x="2069.76" y="-78.5" font-family="Helvetica,sans-Serif" font-size="10.00">Hermes/_base/OsApi</text>
<text text-anchor="middle" x="2141.26" y="-67.5" font-family="Helvetica,sans-Serif" font-size="10.00">/Enums/SocketTypeEnum.hpp</text>
</a>
</g>
</g>
<!-- Node9&#45;&gt;Node23 -->
<g id="edge26_Node000009_Node000023" class="edge">
<title>Node9&#45;&gt;Node23</title>
<g id="a_edge26_Node000009_Node000023"><a xlink:title=" ">
<path fill="none" stroke="#63b8ff" d="M1253.43,-145.81C1393.24,-144.64 1754.75,-137.49 2053.26,-96 2060.03,-95.06 2067.05,-93.87 2074.04,-92.55"/>
<polygon fill="#63b8ff" stroke="#63b8ff" points="2075.1,-95.91 2084.23,-90.53 2073.74,-89.04 2075.1,-95.91"/>
</a>
</g>
</g>
<!-- Node24 -->
<g id="Node000024" class="node">
<title>Node24</title>
<g id="a_Node000024"><a xlink:href="_linux_2_encrypt_status_enum_8hpp.html" target="_top" xlink:title=" ">
<polygon fill="white" stroke="#666666" points="2391.26,-96 2239.26,-96 2239.26,-55 2391.26,-55 2391.26,-96"/>
<text text-anchor="start" x="2247.26" y="-84" font-family="Helvetica,sans-Serif" font-size="10.00">Hermes/_base/OsApi</text>
<text text-anchor="start" x="2247.26" y="-73" font-family="Helvetica,sans-Serif" font-size="10.00">/Enums/Linux/EncryptStatus</text>
<text text-anchor="middle" x="2315.26" y="-62" font-family="Helvetica,sans-Serif" font-size="10.00">Enum.hpp</text>
</a>
</g>
</g>
<!-- Node9&#45;&gt;Node24 -->
<g id="edge28_Node000009_Node000024" class="edge">
<title>Node9&#45;&gt;Node24</title>
<g id="a_edge28_Node000009_Node000024"><a xlink:title=" ">
<path fill="none" stroke="#63b8ff" d="M1253.36,-144.53C1440.62,-139.65 2020.3,-122.84 2228.98,-96.01"/>
<polygon fill="#63b8ff" stroke="#63b8ff" points="2229.48,-99.48 2238.93,-94.68 2228.55,-92.54 2229.48,-99.48"/>
</a>
</g>
</g>
<!-- Node25 -->
<g id="Node000025" class="node">
<title>Node25</title>
<g id="a_Node000025"><a xlink:href="_name_info_flags_8hpp.html" target="_top" xlink:title=" ">
<polygon fill="white" stroke="#666666" points="760.26,-90.5 616.26,-90.5 616.26,-60.5 760.26,-60.5 760.26,-90.5"/>
<text text-anchor="start" x="624.26" y="-78.5" font-family="Helvetica,sans-Serif" font-size="10.00">Hermes/_base/OsApi</text>
<text text-anchor="middle" x="688.26" y="-67.5" font-family="Helvetica,sans-Serif" font-size="10.00">/Flags/NameInfoFlags.hpp</text>
</a>
</g>
</g>
<!-- Node9&#45;&gt;Node25 -->
<g id="edge29_Node000009_Node000025" class="edge">
<title>Node9&#45;&gt;Node25</title>
<g id="a_edge29_Node000009_Node000025"><a xlink:title=" ">
<path fill="none" stroke="#63b8ff" d="M1135.16,-141.29C1052.76,-134.21 898.9,-119.14 769.26,-96 763.84,-95.03 758.23,-93.92 752.61,-92.73"/>
<polygon fill="#63b8ff" stroke="#63b8ff" points="753.06,-89.24 742.54,-90.51 751.55,-96.08 753.06,-89.24"/>
</a>
</g>
</g>
<!-- Node26 -->
<g id="Node000026" class="node">
<title>Node26</title>
<g id="a_Node000026"><a xlink:href="_linux_2_credential_flags_8hpp.html" target="_top" xlink:title=" ">
<polygon fill="white" stroke="#666666" points="194.26,-90.5 18.26,-90.5 18.26,-60.5 194.26,-60.5 194.26,-90.5"/>
<text text-anchor="start" x="26.26" y="-78.5" font-family="Helvetica,sans-Serif" font-size="10.00">Hermes/_base/OsApi</text>
<text text-anchor="middle" x="106.26" y="-67.5" font-family="Helvetica,sans-Serif" font-size="10.00">/Flags/Linux/CredentialFlags.hpp</text>
</a>
</g>
</g>
<!-- Node9&#45;&gt;Node26 -->
<g id="edge31_Node000009_Node000026" class="edge">
<title>Node9&#45;&gt;Node26</title>
<g id="a_edge31_Node000009_Node000026"><a xlink:title=" ">
<path fill="none" stroke="#63b8ff" d="M1135.08,-146.06C980.95,-145.56 554.75,-139.95 203.26,-96 195.33,-95.01 187.07,-93.73 178.87,-92.31"/>
<polygon fill="#63b8ff" stroke="#63b8ff" points="179.38,-88.84 168.92,-90.5 178.13,-95.73 179.38,-88.84"/>
</a>
</g>
</g>
<!-- Node27 -->
<g id="Node000027" class="node">
<title>Node27</title>
<g id="a_Node000027"><a xlink:href="_linux_2_supported_protocols_flags_8hpp.html" target="_top" xlink:title=" ">
<polygon fill="white" stroke="#666666" points="385.76,-96 212.76,-96 212.76,-55 385.76,-55 385.76,-96"/>
<text text-anchor="start" x="220.76" y="-84" font-family="Helvetica,sans-Serif" font-size="10.00">Hermes/_base/OsApi</text>
<text text-anchor="start" x="220.76" y="-73" font-family="Helvetica,sans-Serif" font-size="10.00">/Flags/Linux/SupportedProtocols</text>
<text text-anchor="middle" x="299.26" y="-62" font-family="Helvetica,sans-Serif" font-size="10.00">Flags.hpp</text>
</a>
</g>
</g>
<!-- Node9&#45;&gt;Node27 -->
<g id="edge32_Node000009_Node000027" class="edge">
<title>Node9&#45;&gt;Node27</title>
<g id="a_edge32_Node000009_Node000027"><a xlink:title=" ">
<path fill="none" stroke="#63b8ff" d="M1134.86,-145.08C1003.4,-142.44 677.9,-132.58 395.8,-95.96"/>
<polygon fill="#63b8ff" stroke="#63b8ff" points="396.15,-92.47 385.78,-94.64 395.24,-99.42 396.15,-92.47"/>
</a>
</g>
</g>
<!-- Node28 -->
<g id="Node000028" class="node">
<title>Node28</title>
<g id="a_Node000028"><a xlink:href="_linux_2_s_channel_cred_flags_8hpp.html" target="_top" xlink:title=" ">
<polygon fill="white" stroke="#666666" points="598.26,-90.5 404.26,-90.5 404.26,-60.5 598.26,-60.5 598.26,-90.5"/>
<text text-anchor="start" x="412.26" y="-78.5" font-family="Helvetica,sans-Serif" font-size="10.00">Hermes/_base/OsApi</text>
<text text-anchor="middle" x="501.26" y="-67.5" font-family="Helvetica,sans-Serif" font-size="10.00">/Flags/Linux/SChannelCredFlags.hpp</text>
</a>
</g>
</g>
<!-- Node9&#45;&gt;Node28 -->
<g id="edge33_Node000009_Node000028" class="edge">
<title>Node9&#45;&gt;Node28</title>
<g id="a_edge33_Node000009_Node000028"><a xlink:title=" ">
<path fill="none" stroke="#63b8ff" d="M1134.9,-142.85C1028.71,-136.8 799.36,-121.79 607.26,-96 599.07,-94.9 590.54,-93.6 582.04,-92.2"/>
<polygon fill="#63b8ff" stroke="#63b8ff" points="582.54,-88.73 572.1,-90.51 581.38,-95.63 582.54,-88.73"/>
</a>
</g>
</g>
<!-- Node17 -->
<g id="Node000017" class="node">
<title>Node17</title>
<g id="a_Node000017"><a xlink:title=" ">
<polygon fill="#e0e0e0" stroke="#999999" points="1423.26,-19 1373.26,-19 1373.26,0 1423.26,0 1423.26,-19"/>
<text text-anchor="middle" x="1398.26" y="-7" font-family="Helvetica,sans-Serif" font-size="10.00">cstdint</text>
</a>
</g>
</g>
<!-- Node16&#45;&gt;Node17 -->
<g id="edge16_Node000016_Node000017" class="edge">
<title>Node16&#45;&gt;Node17</title>
<g id="a_edge16_Node000016_Node000017"><a xlink:title=" ">
<path fill="none" stroke="#63b8ff" d="M1398.26,-60.3C1398.26,-51.2 1398.26,-39.29 1398.26,-29.4"/>
<polygon fill="#63b8ff" stroke="#63b8ff" points="1401.77,-29.34 1398.26,-19.34 1394.77,-29.34 1401.77,-29.34"/>
</a>
</g>
</g>
<!-- Node18&#45;&gt;Node10 -->
<g id="edge19_Node000018_Node000010" class="edge">
<title>Node18&#45;&gt;Node10</title>
<g id="a_edge19_Node000018_Node000010"><a xlink:title=" ">
<path fill="none" stroke="#63b8ff" d="M1598.02,-60.49C1605.12,-58.56 1612.37,-56.67 1619.26,-55 1678.21,-40.76 1746.75,-27.46 1791.69,-19.17"/>
<polygon fill="#63b8ff" stroke="#63b8ff" points="1792.54,-22.58 1801.74,-17.33 1791.27,-15.69 1792.54,-22.58"/>
</a>
</g>
</g>
<!-- Node19 -->
<g id="Node000019" class="node">
<title>Node19</title>
<g id="a_Node000019"><a xlink:title=" ">
<polygon fill="#e0e0e0" stroke="#999999" points="1586.76,-19 1513.76,-19 1513.76,0 1586.76,0 1586.76,-19"/>
<text text-anchor="middle" x="1550.26" y="-7" font-family="Helvetica,sans-Serif" font-size="10.00">string_view</text>
</a>
</g>
</g>
<!-- Node18&#45;&gt;Node19 -->
<g id="edge18_Node000018_Node000019" class="edge">
<title>Node18&#45;&gt;Node19</title>
<g id="a_edge18_Node000018_Node000019"><a xlink:title=" ">
<path fill="none" stroke="#63b8ff" d="M1550.26,-60.3C1550.26,-51.2 1550.26,-39.29 1550.26,-29.4"/>
<polygon fill="#63b8ff" stroke="#63b8ff" points="1553.77,-29.34 1550.26,-19.34 1546.77,-29.34 1553.77,-29.34"/>
</a>
</g>
</g>
<!-- Node20&#45;&gt;Node10 -->
<g id="edge21_Node000020_Node000010" class="edge">
<title>Node20&#45;&gt;Node10</title>
<g id="a_edge21_Node000020_Node000010"><a xlink:title=" ">
<path fill="none" stroke="#63b8ff" d="M1930.81,-60.45C1911.09,-49.58 1883.96,-34.61 1864.55,-23.9"/>
<polygon fill="#63b8ff" stroke="#63b8ff" points="1866.15,-20.78 1855.7,-19.02 1862.77,-26.91 1866.15,-20.78"/>
</a>
</g>
</g>
<!-- Node21&#45;&gt;Node11 -->
<g id="edge23_Node000021_Node000011" class="edge">
<title>Node21&#45;&gt;Node11</title>
<g id="a_edge23_Node000021_Node000011"><a xlink:title=" ">
<path fill="none" stroke="#63b8ff" d="M897.31,-60.45C914.83,-49.77 938.82,-35.15 956.32,-24.48"/>
<polygon fill="#63b8ff" stroke="#63b8ff" points="958.57,-27.21 965.29,-19.02 954.93,-21.23 958.57,-27.21"/>
</a>
</g>
</g>
<!-- Node22&#45;&gt;Node10 -->
<g id="edge25_Node000022_Node000010" class="edge">
<title>Node22&#45;&gt;Node10</title>
<g id="a_edge25_Node000022_Node000010"><a xlink:title=" ">
<path fill="none" stroke="#63b8ff" d="M1746.6,-60.45C1767.09,-49.53 1795.32,-34.47 1815.42,-23.75"/>
<polygon fill="#63b8ff" stroke="#63b8ff" points="1817.12,-26.81 1824.3,-19.02 1813.82,-20.64 1817.12,-26.81"/>
</a>
</g>
</g>
<!-- Node23&#45;&gt;Node10 -->
<g id="edge27_Node000023_Node000010" class="edge">
<title>Node23&#45;&gt;Node10</title>
<g id="a_edge27_Node000023_Node000010"><a xlink:title=" ">
<path fill="none" stroke="#63b8ff" d="M2078.31,-60.45C2069.9,-58.6 2061.37,-56.75 2053.26,-55 1996.85,-42.86 1931.92,-29.36 1888.73,-20.45"/>
<polygon fill="#63b8ff" stroke="#63b8ff" points="1889.27,-16.99 1878.77,-18.4 1887.86,-23.85 1889.27,-16.99"/>
</a>
</g>
</g>
<!-- Node25&#45;&gt;Node13 -->
<g id="edge30_Node000025_Node000013" class="edge">
<title>Node25&#45;&gt;Node13</title>
<g id="a_edge30_Node000025_Node000013"><a xlink:title=" ">
<path fill="none" stroke="#63b8ff" d="M632.17,-60.44C623.84,-58.52 615.34,-56.64 607.26,-55 525.11,-38.31 427.83,-23.34 376.04,-15.75"/>
<polygon fill="#63b8ff" stroke="#63b8ff" points="376.41,-12.27 366.01,-14.29 375.4,-19.2 376.41,-12.27"/>
</a>
</g>
</g>
<!-- Node29&#45;&gt;Node5 -->
<g id="edge42_Node000029_Node000005" class="edge">
<title>Node29&#45;&gt;Node5</title>
<g id="a_edge42_Node000029_Node000005"><a xlink:title=" ">
<path fill="none" stroke="#63b8ff" d="M3014.55,-208.49C2979.14,-202.8 2939.57,-189.97 2914.26,-162 2897.86,-143.87 2896.23,-114.38 2897.23,-95.21"/>
<polygon fill="#63b8ff" stroke="#63b8ff" points="2900.73,-95.29 2898.06,-85.04 2893.76,-94.72 2900.73,-95.29"/>
</a>
</g>
</g>
<!-- Node29&#45;&gt;Node30 -->
<g id="edge35_Node000029_Node000030" class="edge">
<title>Node29&#45;&gt;Node30</title>
<g id="a_edge35_Node000029_Node000030"><a xlink:title=" ">
<path fill="none" stroke="#63b8ff" d="M3069.22,-197.95C3051.7,-187.27 3027.71,-172.65 3010.21,-161.98"/>
<polygon fill="#63b8ff" stroke="#63b8ff" points="3011.6,-158.73 3001.24,-156.52 3007.96,-164.71 3011.6,-158.73"/>
</a>
</g>
</g>
<!-- Node33 -->
<g id="Node000033" class="node">
<title>Node33</title>
<g id="a_Node000033"><a xlink:title=" ">
<polygon fill="#e0e0e0" stroke="#999999" points="3112.26,-156.5 3070.26,-156.5 3070.26,-137.5 3112.26,-137.5 3112.26,-156.5"/>
<text text-anchor="middle" x="3091.26" y="-144.5" font-family="Helvetica,sans-Serif" font-size="10.00">array</text>
</a>
</g>
</g>
<!-- Node29&#45;&gt;Node33 -->
<g id="edge38_Node000029_Node000033" class="edge">
<title>Node29&#45;&gt;Node33</title>
<g id="a_edge38_Node000029_Node000033"><a xlink:title=" ">
<path fill="none" stroke="#63b8ff" d="M3092.04,-197.8C3091.9,-188.7 3091.71,-176.79 3091.56,-166.9"/>
<polygon fill="#63b8ff" stroke="#63b8ff" points="3095.06,-166.79 3091.4,-156.84 3088.06,-166.9 3095.06,-166.79"/>
</a>
</g>
</g>
<!-- Node29&#45;&gt;Node34 -->
<g id="edge39_Node000029_Node000034" class="edge">
<title>Node29&#45;&gt;Node34</title>
<g id="a_edge39_Node000029_Node000034"><a xlink:title=" ">
<path fill="none" stroke="#63b8ff" d="M3021.9,-197.98C2980.32,-189.06 2926.85,-176.47 2880.26,-162 2878.39,-161.42 2876.48,-160.79 2874.55,-160.12"/>
<polygon fill="#63b8ff" stroke="#63b8ff" points="2875.62,-156.79 2865.03,-156.64 2873.22,-163.36 2875.62,-156.79"/>
</a>
</g>
</g>
<!-- Node35 -->
<g id="Node000035" class="node">
<title>Node35</title>
<g id="a_Node000035"><a xlink:title=" ">
<polygon fill="#e0e0e0" stroke="#999999" points="3181.76,-156.5 3130.76,-156.5 3130.76,-137.5 3181.76,-137.5 3181.76,-156.5"/>
<text text-anchor="middle" x="3156.26" y="-144.5" font-family="Helvetica,sans-Serif" font-size="10.00">variant</text>
</a>
</g>
</g>
<!-- Node29&#45;&gt;Node35 -->
<g id="edge40_Node000029_Node000035" class="edge">
<title>Node29&#45;&gt;Node35</title>
<g id="a_edge40_Node000029_Node000035"><a xlink:title=" ">
<path fill="none" stroke="#63b8ff" d="M3106.47,-197.8C3116.45,-187.82 3129.81,-174.46 3140.18,-164.09"/>
<polygon fill="#63b8ff" stroke="#63b8ff" points="3142.82,-166.39 3147.42,-156.84 3137.87,-161.44 3142.82,-166.39"/>
</a>
</g>
</g>
<!-- Node29&#45;&gt;Node36 -->
<g id="edge41_Node000029_Node000036" class="edge">
<title>Node29&#45;&gt;Node36</title>
<g id="a_edge41_Node000029_Node000036"><a xlink:title=" ">
<path fill="none" stroke="#63b8ff" d="M3170.06,-200.12C3174.87,-199.4 3179.63,-198.69 3184.26,-198 3294.87,-181.59 3325,-189.95 3433.26,-162 3435.71,-161.37 3438.21,-160.63 3440.71,-159.83"/>
<polygon fill="#63b8ff" stroke="#63b8ff" points="3441.89,-163.13 3450.17,-156.51 3439.57,-156.52 3441.89,-163.13"/>
</a>
</g>
</g>
<!-- Node37 -->
<g id="Node000037" class="node">
<title>Node37</title>
<g id="a_Node000037"><a xlink:title=" ">
<polygon fill="#e0e0e0" stroke="#999999" points="3250.26,-156.5 3200.26,-156.5 3200.26,-137.5 3250.26,-137.5 3250.26,-156.5"/>
<text text-anchor="middle" x="3225.26" y="-144.5" font-family="Helvetica,sans-Serif" font-size="10.00">format</text>
</a>
</g>
</g>
<!-- Node29&#45;&gt;Node37 -->
<g id="edge43_Node000029_Node000037" class="edge">
<title>Node29&#45;&gt;Node37</title>
<g id="a_edge43_Node000029_Node000037"><a xlink:title=" ">
<path fill="none" stroke="#63b8ff" d="M3121.45,-197.95C3144.37,-186.93 3176.02,-171.7 3198.33,-160.96"/>
<polygon fill="#63b8ff" stroke="#63b8ff" points="3200.07,-164.01 3207.56,-156.52 3197.04,-157.7 3200.07,-164.01"/>
</a>
</g>
</g>
<!-- Node38 -->
<g id="Node000038" class="node">
<title>Node38</title>
<g id="a_Node000038"><a xlink:title=" ">
<polygon fill="#e0e0e0" stroke="#999999" points="3423.76,-162 3268.76,-162 3268.76,-132 3423.76,-132 3423.76,-162"/>
<text text-anchor="start" x="3276.76" y="-150" font-family="Helvetica,sans-Serif" font-size="10.00">Hermes/Endpoint/IpEndpoint</text>
<text text-anchor="middle" x="3346.26" y="-139" font-family="Helvetica,sans-Serif" font-size="10.00">/IpAddress.tpp</text>
</a>
</g>
</g>
<!-- Node29&#45;&gt;Node38 -->
<g id="edge44_Node000029_Node000038" class="edge">
<title>Node29&#45;&gt;Node38</title>
<g id="a_edge44_Node000029_Node000038"><a xlink:title=" ">
<path fill="none" stroke="#63b8ff" d="M3148.01,-197.95C3187.13,-188.1 3239.59,-174.88 3280.72,-164.51"/>
<polygon fill="#63b8ff" stroke="#63b8ff" points="3281.81,-167.85 3290.65,-162.01 3280.1,-161.06 3281.81,-167.85"/>
</a>
</g>
</g>
<!-- Node31 -->
<g id="Node000031" class="node">
<title>Node31</title>
<g id="a_Node000031"><a xlink:title=" ">
<polygon fill="#e0e0e0" stroke="#999999" points="3077.76,-85 3032.76,-85 3032.76,-66 3077.76,-66 3077.76,-85"/>
<text text-anchor="middle" x="3055.26" y="-73" font-family="Helvetica,sans-Serif" font-size="10.00">utility</text>
</a>
</g>
</g>
<!-- Node30&#45;&gt;Node31 -->
<g id="edge36_Node000030_Node000031" class="edge">
<title>Node30&#45;&gt;Node31</title>
<g id="a_edge36_Node000030_Node000031"><a xlink:title=" ">
<path fill="none" stroke="#63b8ff" d="M2995.6,-137.48C3006.51,-126.33 3025.85,-106.56 3039.55,-92.56"/>
<polygon fill="#63b8ff" stroke="#63b8ff" points="3042.37,-94.69 3046.86,-85.09 3037.36,-89.79 3042.37,-94.69"/>
</a>
</g>
</g>
<!-- Node32 -->
<g id="Node000032" class="node">
<title>Node32</title>
<g id="a_Node000032"><a xlink:title=" ">
<polygon fill="#e0e0e0" stroke="#999999" points="3014.76,-85 2949.76,-85 2949.76,-66 3014.76,-66 3014.76,-85"/>
<text text-anchor="middle" x="2982.26" y="-73" font-family="Helvetica,sans-Serif" font-size="10.00">functional</text>
</a>
</g>
</g>
<!-- Node30&#45;&gt;Node32 -->
<g id="edge37_Node000030_Node000032" class="edge">
<title>Node30&#45;&gt;Node32</title>
<g id="a_edge37_Node000030_Node000032"><a xlink:title=" ">
<path fill="none" stroke="#63b8ff" d="M2986.65,-137.48C2985.9,-127.06 2984.61,-109.11 2983.62,-95.38"/>
<polygon fill="#63b8ff" stroke="#63b8ff" points="2987.09,-94.81 2982.88,-85.09 2980.11,-95.32 2987.09,-94.81"/>
</a>
</g>
</g>
</g>
</svg>
