<?xml version="1.0" encoding="UTF-8" standalone="no"?>
<!DOCTYPE svg PUBLIC "-//W3C//DTD SVG 1.1//EN"
 "http://www.w3.org/Graphics/SVG/1.1/DTD/svg11.dtd">
<!-- Generated by graphviz version 2.43.0 (0)
 -->
<!-- Title: include/Hermes/Endpoint/IpEndpoint/IpEndpoint.hpp Pages: 1 -->
<svg width="1292pt" height="478pt"
 viewBox="0.00 0.00 1291.75 478.00" xmlns="http://www.w3.org/2000/svg" xmlns:xlink="http://www.w3.org/1999/xlink">
<g id="graph0" class="graph" transform="scale(1 1) rotate(0) translate(4 474)">
<title>include/Hermes/Endpoint/IpEndpoint/IpEndpoint.hpp</title>
<!-- Node1 -->
<g id="Node000001" class="node">
<title>Node1</title>
<g id="a_Node000001"><a xlink:title=" ">
<polygon fill="#999999" stroke="#666666" points="924.75,-470 777.75,-470 777.75,-440 924.75,-440 924.75,-470"/>
<text text-anchor="start" x="785.75" y="-458" font-family="Helvetica,sans-Serif" font-size="10.00">include/Hermes/Endpoint</text>
<text text-anchor="middle" x="851.25" y="-447" font-family="Helvetica,sans-Serif" font-size="10.00">/IpEndpoint/IpEndpoint.hpp</text>
</a>
</g>
</g>
<!-- Node2 -->
<g id="Node000002" class="node">
<title>Node2</title>
<g id="a_Node000002"><a xlink:href="_default_socket_data_8hpp.html" target="_top" xlink:title=" ">
<polygon fill="white" stroke="#666666" points="877.25,-404 719.25,-404 719.25,-374 877.25,-374 877.25,-404"/>
<text text-anchor="start" x="727.25" y="-392" font-family="Helvetica,sans-Serif" font-size="10.00">include/Hermes/Socket</text>
<text text-anchor="middle" x="798.25" y="-381" font-family="Helvetica,sans-Serif" font-size="10.00">/Data/DefaultSocketData.hpp</text>
</a>
</g>
</g>
<!-- Node1&#45;&gt;Node2 -->
<g id="edge1_Node000001_Node000002" class="edge">
<title>Node1&#45;&gt;Node2</title>
<g id="a_edge1_Node000001_Node000002"><a xlink:title=" ">
<path fill="none" stroke="#63b8ff" d="M833.11,-432.09C825.46,-422.85 816.77,-412.36 809.98,-404.16"/>
<polygon fill="#63b8ff" stroke="#63b8ff" points="830.42,-434.33 839.49,-439.8 835.81,-429.86 830.42,-434.33"/>
</a>
</g>
</g>
<!-- Node15 -->
<g id="Node000015" class="node">
<title>Node15</title>
<g id="a_Node000015"><a xlink:href="_default_connect_policy_8hpp.html" target="_top" xlink:title=" ">
<polygon fill="white" stroke="#666666" points="977.25,-338 833.25,-338 833.25,-297 977.25,-297 977.25,-338"/>
<text text-anchor="start" x="841.25" y="-326" font-family="Helvetica,sans-Serif" font-size="10.00">include/Hermes/Socket</text>
<text text-anchor="start" x="841.25" y="-315" font-family="Helvetica,sans-Serif" font-size="10.00">/Sync/_base/Connection</text>
<text text-anchor="middle" x="905.25" y="-304" font-family="Helvetica,sans-Serif" font-size="10.00">/DefaultConnectPolicy.hpp</text>
</a>
</g>
</g>
<!-- Node1&#45;&gt;Node15 -->
<g id="edge42_Node000001_Node000015" class="edge">
<title>Node1&#45;&gt;Node15</title>
<g id="a_edge42_Node000001_Node000015"><a xlink:title=" ">
<path fill="none" stroke="#63b8ff" d="M869.75,-431.6C875.78,-423.34 882.01,-413.64 886.25,-404 895.69,-382.57 900.65,-355.98 903.1,-338.2"/>
<polygon fill="#63b8ff" stroke="#63b8ff" points="866.92,-429.54 863.63,-439.61 872.48,-433.79 866.92,-429.54"/>
</a>
</g>
</g>
<!-- Node17 -->
<g id="Node000017" class="node">
<title>Node17</title>
<g id="a_Node000017"><a xlink:href="_tls_connect_policy_8hpp.html" target="_top" xlink:title=" ">
<polygon fill="white" stroke="#666666" points="1065.25,-261 933.25,-261 933.25,-220 1065.25,-220 1065.25,-261"/>
<text text-anchor="start" x="941.25" y="-249" font-family="Helvetica,sans-Serif" font-size="10.00">include/Hermes/Socket</text>
<text text-anchor="start" x="941.25" y="-238" font-family="Helvetica,sans-Serif" font-size="10.00">/Sync/_base/Connection</text>
<text text-anchor="middle" x="999.25" y="-227" font-family="Helvetica,sans-Serif" font-size="10.00">/TlsConnectPolicy.hpp</text>
</a>
</g>
</g>
<!-- Node1&#45;&gt;Node17 -->
<g id="edge43_Node000001_Node000017" class="edge">
<title>Node1&#45;&gt;Node17</title>
<g id="a_edge43_Node000001_Node000017"><a xlink:title=" ">
<path fill="none" stroke="#63b8ff" d="M885.41,-434.76C917.18,-414.9 963,-380.82 986.25,-338 999.32,-313.93 1001.06,-281.68 1000.57,-261.24"/>
<polygon fill="#63b8ff" stroke="#63b8ff" points="883.57,-431.78 876.85,-439.98 887.21,-437.76 883.57,-431.78"/>
</a>
</g>
</g>
<!-- Node20 -->
<g id="Node000020" class="node">
<title>Node20</title>
<g id="a_Node000020"><a xlink:href="_tls_socket_data_8hpp.html" target="_top" xlink:title=" ">
<polygon fill="white" stroke="#666666" points="643.75,-332.5 506.75,-332.5 506.75,-302.5 643.75,-302.5 643.75,-332.5"/>
<text text-anchor="start" x="514.75" y="-320.5" font-family="Helvetica,sans-Serif" font-size="10.00">include/Hermes/Socket</text>
<text text-anchor="middle" x="575.25" y="-309.5" font-family="Helvetica,sans-Serif" font-size="10.00">/Data/TlsSocketData.hpp</text>
</a>
</g>
</g>
<!-- Node1&#45;&gt;Node20 -->
<g id="edge31_Node000001_Node000020" class="edge">
<title>Node1&#45;&gt;Node20</title>
<g id="a_edge31_Node000001_Node000020"><a xlink:title=" ">
<path fill="none" stroke="#63b8ff" d="M793.47,-436.76C767.48,-428.18 736.76,-416.89 710.25,-404 666.84,-382.89 620.08,-350.98 594.57,-332.7"/>
<polygon fill="#63b8ff" stroke="#63b8ff" points="792.58,-440.15 803.18,-439.91 794.75,-433.49 792.58,-440.15"/>
</a>
</g>
</g>
<!-- Node3 -->
<g id="Node000003" class="node">
<title>Node3</title>
<g id="a_Node000003"><a xlink:href="_default_async_accept_policy_8hpp.html" target="_top" xlink:title=" ">
<polygon fill="white" stroke="#666666" points="188.75,-261 33.75,-261 33.75,-220 188.75,-220 188.75,-261"/>
<text text-anchor="start" x="41.75" y="-249" font-family="Helvetica,sans-Serif" font-size="10.00">include/Hermes/Socket</text>
<text text-anchor="start" x="41.75" y="-238" font-family="Helvetica,sans-Serif" font-size="10.00">/Async/_base/Accept/Default</text>
<text text-anchor="middle" x="111.25" y="-227" font-family="Helvetica,sans-Serif" font-size="10.00">AsyncAcceptPolicy.hpp</text>
</a>
</g>
</g>
<!-- Node2&#45;&gt;Node3 -->
<g id="edge2_Node000002_Node000003" class="edge">
<title>Node2&#45;&gt;Node3</title>
<g id="a_edge2_Node000002_Node000003"><a xlink:title=" ">
<path fill="none" stroke="#63b8ff" d="M709.04,-386.13C572.84,-382.26 320.02,-370.79 236.25,-338 192.85,-321.01 151.97,-284.03 129.4,-261.1"/>
<polygon fill="#63b8ff" stroke="#63b8ff" points="708.95,-389.63 719.04,-386.41 709.14,-382.63 708.95,-389.63"/>
</a>
</g>
</g>
<!-- Node7 -->
<g id="Node000007" class="node">
<title>Node7</title>
<g id="a_Node000007"><a xlink:href="_default_async_connect_policy_8hpp.html" target="_top" xlink:title=" ">
<polygon fill="white" stroke="#666666" points="1283.75,-184 1110.75,-184 1110.75,-143 1283.75,-143 1283.75,-184"/>
<text text-anchor="start" x="1118.75" y="-172" font-family="Helvetica,sans-Serif" font-size="10.00">include/Hermes/Socket</text>
<text text-anchor="start" x="1118.75" y="-161" font-family="Helvetica,sans-Serif" font-size="10.00">/Async/_base/Connection</text>
<text text-anchor="middle" x="1197.25" y="-150" font-family="Helvetica,sans-Serif" font-size="10.00">/DefaultAsyncConnectPolicy.hpp</text>
</a>
</g>
</g>
<!-- Node2&#45;&gt;Node7 -->
<g id="edge7_Node000002_Node000007" class="edge">
<title>Node2&#45;&gt;Node7</title>
<g id="a_edge7_Node000002_Node000007"><a xlink:title=" ">
<path fill="none" stroke="#63b8ff" d="M887.27,-372.55C919.57,-364.85 955.62,-353.72 986.25,-338 1067.06,-296.54 1145.04,-220.02 1179.21,-184.1"/>
<polygon fill="#63b8ff" stroke="#63b8ff" points="886.34,-369.17 877.38,-374.83 887.91,-375.99 886.34,-369.17"/>
</a>
</g>
</g>
<!-- Node10 -->
<g id="Node000010" class="node">
<title>Node10</title>
<g id="a_Node000010"><a xlink:href="_default_async_transfer_policy_8hpp.html" target="_top" xlink:title=" ">
<polygon fill="white" stroke="#666666" points="688.75,-184 515.75,-184 515.75,-143 688.75,-143 688.75,-184"/>
<text text-anchor="start" x="523.75" y="-172" font-family="Helvetica,sans-Serif" font-size="10.00">include/Hermes/Socket</text>
<text text-anchor="start" x="523.75" y="-161" font-family="Helvetica,sans-Serif" font-size="10.00">/Async/_base/Transfer</text>
<text text-anchor="middle" x="602.25" y="-150" font-family="Helvetica,sans-Serif" font-size="10.00">/DefaultAsyncTransferPolicy.hpp</text>
</a>
</g>
</g>
<!-- Node2&#45;&gt;Node10 -->
<g id="edge11_Node000002_Node000010" class="edge">
<title>Node2&#45;&gt;Node10</title>
<g id="a_edge11_Node000002_Node000010"><a xlink:title=" ">
<path fill="none" stroke="#63b8ff" d="M778.91,-365.94C740.71,-322.38 656.13,-225.93 619.6,-184.28"/>
<polygon fill="#63b8ff" stroke="#63b8ff" points="776.47,-368.47 785.7,-373.68 781.73,-363.85 776.47,-368.47"/>
</a>
</g>
</g>
<!-- Node11 -->
<g id="Node000011" class="node">
<title>Node11</title>
<g id="a_Node000011"><a xlink:href="_default_accept_policy_8hpp.html" target="_top" xlink:title=" ">
<polygon fill="white" stroke="#666666" points="427.25,-338 245.25,-338 245.25,-297 427.25,-297 427.25,-338"/>
<text text-anchor="start" x="253.25" y="-326" font-family="Helvetica,sans-Serif" font-size="10.00">include/Hermes/Socket</text>
<text text-anchor="start" x="253.25" y="-315" font-family="Helvetica,sans-Serif" font-size="10.00">/Sync/_base/Accept/DefaultAccept</text>
<text text-anchor="middle" x="336.25" y="-304" font-family="Helvetica,sans-Serif" font-size="10.00">Policy.hpp</text>
</a>
</g>
</g>
<!-- Node2&#45;&gt;Node11 -->
<g id="edge14_Node000002_Node000011" class="edge">
<title>Node2&#45;&gt;Node11</title>
<g id="a_edge14_Node000002_Node000011"><a xlink:title=" ">
<path fill="none" stroke="#63b8ff" d="M708.91,-374.56C627.89,-362.37 508.99,-344.49 427.41,-332.21"/>
<polygon fill="#63b8ff" stroke="#63b8ff" points="708.69,-378.07 719.1,-376.09 709.73,-371.14 708.69,-378.07"/>
</a>
</g>
</g>
<!-- Node2&#45;&gt;Node15 -->
<g id="edge21_Node000002_Node000015" class="edge">
<title>Node2&#45;&gt;Node15</title>
<g id="a_edge21_Node000002_Node000015"><a xlink:title=" ">
<path fill="none" stroke="#63b8ff" d="M828.56,-368.31C843.14,-358.84 860.57,-347.53 875.12,-338.07"/>
<polygon fill="#63b8ff" stroke="#63b8ff" points="826.39,-365.55 819.91,-373.94 830.2,-371.42 826.39,-365.55"/>
</a>
</g>
</g>
<!-- Node19 -->
<g id="Node000019" class="node">
<title>Node19</title>
<g id="a_Node000019"><a xlink:href="_default_transfer_policy_8hpp.html" target="_top" xlink:title=" ">
<polygon fill="white" stroke="#666666" points="876.75,-261 733.75,-261 733.75,-220 876.75,-220 876.75,-261"/>
<text text-anchor="start" x="741.75" y="-249" font-family="Helvetica,sans-Serif" font-size="10.00">include/Hermes/Socket</text>
<text text-anchor="start" x="741.75" y="-238" font-family="Helvetica,sans-Serif" font-size="10.00">/Sync/_base/Transfer</text>
<text text-anchor="middle" x="805.25" y="-227" font-family="Helvetica,sans-Serif" font-size="10.00">/DefaultTransferPolicy.hpp</text>
</a>
</g>
</g>
<!-- Node2&#45;&gt;Node19 -->
<g id="edge28_Node000002_Node000019" class="edge">
<title>Node2&#45;&gt;Node19</title>
<g id="a_edge28_Node000002_Node000019"><a xlink:title=" ">
<path fill="none" stroke="#63b8ff" d="M799.4,-363.96C800.77,-335.3 803.04,-287.92 804.31,-261.27"/>
<polygon fill="#63b8ff" stroke="#63b8ff" points="795.91,-363.8 798.93,-373.95 802.9,-364.13 795.91,-363.8"/>
</a>
</g>
</g>
<!-- Node4 -->
<g id="Node000004" class="node">
<title>Node4</title>
<g id="a_Node000004"><a xlink:href="_async_server_socket_8hpp.html" target="_top" xlink:title=" ">
<polygon fill="white" stroke="#666666" points="213.25,-101.5 47.25,-101.5 47.25,-71.5 213.25,-71.5 213.25,-101.5"/>
<text text-anchor="start" x="55.25" y="-89.5" font-family="Helvetica,sans-Serif" font-size="10.00">include/Hermes/Socket</text>
<text text-anchor="middle" x="130.25" y="-78.5" font-family="Helvetica,sans-Serif" font-size="10.00">/Async/AsyncServerSocket.hpp</text>
</a>
</g>
</g>
<!-- Node3&#45;&gt;Node4 -->
<g id="edge3_Node000003_Node000004" class="edge">
<title>Node3&#45;&gt;Node4</title>
<g id="a_edge3_Node000003_Node000004"><a xlink:title=" ">
<path fill="none" stroke="#63b8ff" d="M40.46,-215.13C27.23,-207.28 15.11,-197.1 7.25,-184 -2.12,-168.37 -2.63,-158.31 7.25,-143 20.35,-122.73 42.81,-109.79 64.99,-101.56"/>
<polygon fill="#63b8ff" stroke="#63b8ff" points="38.82,-218.22 49.27,-219.96 42.18,-212.08 38.82,-218.22"/>
</a>
</g>
</g>
<!-- Node6 -->
<g id="Node000006" class="node">
<title>Node6</title>
<g id="a_Node000006"><a xlink:href="_tls_async_accept_policy_8hpp.html" target="_top" xlink:title=" ">
<polygon fill="white" stroke="#666666" points="179.75,-184 16.75,-184 16.75,-143 179.75,-143 179.75,-184"/>
<text text-anchor="start" x="24.75" y="-172" font-family="Helvetica,sans-Serif" font-size="10.00">include/Hermes/Socket</text>
<text text-anchor="start" x="24.75" y="-161" font-family="Helvetica,sans-Serif" font-size="10.00">/Async/_base/Accept/TlsAsync</text>
<text text-anchor="middle" x="98.25" y="-150" font-family="Helvetica,sans-Serif" font-size="10.00">AcceptPolicy.hpp</text>
</a>
</g>
</g>
<!-- Node3&#45;&gt;Node6 -->
<g id="edge5_Node000003_Node000006" class="edge">
<title>Node3&#45;&gt;Node6</title>
<g id="a_edge5_Node000003_Node000006"><a xlink:title=" ">
<path fill="none" stroke="#63b8ff" d="M106.09,-209.69C104.59,-201.08 103,-191.9 101.65,-184.07"/>
<polygon fill="#63b8ff" stroke="#63b8ff" points="102.68,-210.54 107.84,-219.79 109.58,-209.34 102.68,-210.54"/>
</a>
</g>
</g>
<!-- Node5 -->
<g id="Node000005" class="node">
<title>Node5</title>
<g id="a_Node000005"><a xlink:href="_async_listener_socket_8hpp.html" target="_top" xlink:title=" ">
<polygon fill="white" stroke="#666666" points="216.75,-30 43.75,-30 43.75,0 216.75,0 216.75,-30"/>
<text text-anchor="start" x="51.75" y="-18" font-family="Helvetica,sans-Serif" font-size="10.00">include/Hermes/Socket</text>
<text text-anchor="middle" x="130.25" y="-7" font-family="Helvetica,sans-Serif" font-size="10.00">/Async/AsyncListenerSocket.hpp</text>
</a>
</g>
</g>
<!-- Node4&#45;&gt;Node5 -->
<g id="edge4_Node000004_Node000005" class="edge">
<title>Node4&#45;&gt;Node5</title>
<g id="a_edge4_Node000004_Node000005"><a xlink:title=" ">
<path fill="none" stroke="#63b8ff" d="M130.25,-61.25C130.25,-50.81 130.25,-38.99 130.25,-30.04"/>
<polygon fill="#63b8ff" stroke="#63b8ff" points="126.75,-61.44 130.25,-71.44 133.75,-61.44 126.75,-61.44"/>
</a>
</g>
</g>
<!-- Node6&#45;&gt;Node4 -->
<g id="edge6_Node000006_Node000004" class="edge">
<title>Node6&#45;&gt;Node4</title>
<g id="a_edge6_Node000006_Node000004"><a xlink:title=" ">
<path fill="none" stroke="#63b8ff" d="M110.72,-133.27C115.32,-122.49 120.33,-110.75 124.13,-101.86"/>
<polygon fill="#63b8ff" stroke="#63b8ff" points="107.37,-132.22 106.66,-142.79 113.81,-134.97 107.37,-132.22"/>
</a>
</g>
</g>
<!-- Node8 -->
<g id="Node000008" class="node">
<title>Node8</title>
<g id="a_Node000008"><a xlink:href="_async_client_socket_8hpp.html" target="_top" xlink:title=" ">
<polygon fill="white" stroke="#666666" points="837.75,-30 674.75,-30 674.75,0 837.75,0 837.75,-30"/>
<text text-anchor="start" x="682.75" y="-18" font-family="Helvetica,sans-Serif" font-size="10.00">include/Hermes/Socket</text>
<text text-anchor="middle" x="756.25" y="-7" font-family="Helvetica,sans-Serif" font-size="10.00">/Async/AsyncClientSocket.hpp</text>
</a>
</g>
</g>
<!-- Node7&#45;&gt;Node8 -->
<g id="edge8_Node000007_Node000008" class="edge">
<title>Node7&#45;&gt;Node8</title>
<g id="a_edge8_Node000007_Node000008"><a xlink:title=" ">
<path fill="none" stroke="#63b8ff" d="M1128.7,-139.73C1036.33,-109.04 874.72,-55.36 798.42,-30.01"/>
<polygon fill="#63b8ff" stroke="#63b8ff" points="1127.64,-143.06 1138.24,-142.89 1129.85,-136.42 1127.64,-143.06"/>
</a>
</g>
</g>
<!-- Node9 -->
<g id="Node000009" class="node">
<title>Node9</title>
<g id="a_Node000009"><a xlink:href="_tls_async_connect_policy_8hpp.html" target="_top" xlink:title=" ">
<polygon fill="white" stroke="#666666" points="885.25,-107 733.25,-107 733.25,-66 885.25,-66 885.25,-107"/>
<text text-anchor="start" x="741.25" y="-95" font-family="Helvetica,sans-Serif" font-size="10.00">include/Hermes/Socket</text>
<text text-anchor="start" x="741.25" y="-84" font-family="Helvetica,sans-Serif" font-size="10.00">/Async/_base/Connection</text>
<text text-anchor="middle" x="809.25" y="-73" font-family="Helvetica,sans-Serif" font-size="10.00">/TlsAsyncConnectPolicy.hpp</text>
</a>
</g>
</g>
<!-- Node7&#45;&gt;Node9 -->
<g id="edge9_Node000007_Node000009" class="edge">
<title>Node7&#45;&gt;Node9</title>
<g id="a_edge9_Node000007_Node000009"><a xlink:title=" ">
<path fill="none" stroke="#63b8ff" d="M1100.47,-142.66C1021.88,-127.2 942.25,-112.19 885.51,-101.61"/>
<polygon fill="#63b8ff" stroke="#63b8ff" points="1100.06,-146.15 1110.54,-144.64 1101.41,-139.28 1100.06,-146.15"/>
</a>
</g>
</g>
<!-- Node9&#45;&gt;Node8 -->
<g id="edge10_Node000009_Node000008" class="edge">
<title>Node9&#45;&gt;Node8</title>
<g id="a_edge10_Node000009_Node000008"><a xlink:title=" ">
<path fill="none" stroke="#63b8ff" d="M788.04,-57.69C780.81,-48.19 773.02,-37.98 766.96,-30.04"/>
<polygon fill="#63b8ff" stroke="#63b8ff" points="785.36,-59.94 794.21,-65.77 790.93,-55.7 785.36,-59.94"/>
</a>
</g>
</g>
<!-- Node10&#45;&gt;Node4 -->
<g id="edge13_Node000010_Node000004" class="edge">
<title>Node10&#45;&gt;Node4</title>
<g id="a_edge13_Node000010_Node000004"><a xlink:title=" ">
<path fill="none" stroke="#63b8ff" d="M505.7,-142.95C398.84,-124.41 287.37,-108.52 213.35,-98.46"/>
<polygon fill="#63b8ff" stroke="#63b8ff" points="505.24,-146.42 515.69,-144.69 506.44,-139.53 505.24,-146.42"/>
</a>
</g>
</g>
<!-- Node10&#45;&gt;Node8 -->
<g id="edge12_Node000010_Node000008" class="edge">
<title>Node10&#45;&gt;Node8</title>
<g id="a_edge12_Node000010_Node000008"><a xlink:title=" ">
<path fill="none" stroke="#63b8ff" d="M630.48,-135.65C663.16,-104.56 715.78,-54.5 741.35,-30.18"/>
<polygon fill="#63b8ff" stroke="#63b8ff" points="627.86,-133.31 623.02,-142.74 632.68,-138.39 627.86,-133.31"/>
</a>
</g>
</g>
<!-- Node11&#45;&gt;Node3 -->
<g id="edge15_Node000011_Node000003" class="edge">
<title>Node11&#45;&gt;Node3</title>
<g id="a_edge15_Node000011_Node000003"><a xlink:title=" ">
<path fill="none" stroke="#63b8ff" d="M268.18,-293.81C236.83,-283.36 199.99,-271.08 169.88,-261.04"/>
<polygon fill="#63b8ff" stroke="#63b8ff" points="267.13,-297.15 277.73,-296.99 269.35,-290.51 267.13,-297.15"/>
</a>
</g>
</g>
<!-- Node12 -->
<g id="Node000012" class="node">
<title>Node12</title>
<g id="a_Node000012"><a xlink:href="_server_socket_8hpp.html" target="_top" xlink:title=" ">
<polygon fill="white" stroke="#666666" points="497.75,-178.5 366.75,-178.5 366.75,-148.5 497.75,-148.5 497.75,-178.5"/>
<text text-anchor="start" x="374.75" y="-166.5" font-family="Helvetica,sans-Serif" font-size="10.00">include/Hermes/Socket</text>
<text text-anchor="middle" x="432.25" y="-155.5" font-family="Helvetica,sans-Serif" font-size="10.00">/Sync/ServerSocket.hpp</text>
</a>
</g>
</g>
<!-- Node11&#45;&gt;Node12 -->
<g id="edge16_Node000011_Node000012" class="edge">
<title>Node11&#45;&gt;Node12</title>
<g id="a_edge16_Node000011_Node000012"><a xlink:title=" ">
<path fill="none" stroke="#63b8ff" d="M303.58,-289.7C295.75,-281.41 288.45,-271.62 284.25,-261 277.56,-244.05 273.88,-234.98 284.25,-220 295.23,-204.16 338.74,-188.99 375.77,-178.52"/>
<polygon fill="#63b8ff" stroke="#63b8ff" points="301.27,-292.34 310.84,-296.88 306.19,-287.36 301.27,-292.34"/>
</a>
</g>
</g>
<!-- Node14 -->
<g id="Node000014" class="node">
<title>Node14</title>
<g id="a_Node000014"><a xlink:href="_tls_accept_policy_8hpp.html" target="_top" xlink:title=" ">
<polygon fill="white" stroke="#666666" points="454.75,-261 293.75,-261 293.75,-220 454.75,-220 454.75,-261"/>
<text text-anchor="start" x="301.75" y="-249" font-family="Helvetica,sans-Serif" font-size="10.00">include/Hermes/Socket</text>
<text text-anchor="start" x="301.75" y="-238" font-family="Helvetica,sans-Serif" font-size="10.00">/Sync/_base/Accept/TlsAccept</text>
<text text-anchor="middle" x="374.25" y="-227" font-family="Helvetica,sans-Serif" font-size="10.00">Policy.hpp</text>
</a>
</g>
</g>
<!-- Node11&#45;&gt;Node14 -->
<g id="edge18_Node000011_Node000014" class="edge">
<title>Node11&#45;&gt;Node14</title>
<g id="a_edge18_Node000011_Node000014"><a xlink:title=" ">
<path fill="none" stroke="#63b8ff" d="M350.78,-287.83C355.31,-278.89 360.2,-269.24 364.34,-261.07"/>
<polygon fill="#63b8ff" stroke="#63b8ff" points="347.64,-286.29 346.24,-296.79 353.88,-289.46 347.64,-286.29"/>
</a>
</g>
</g>
<!-- Node13 -->
<g id="Node000013" class="node">
<title>Node13</title>
<g id="a_Node000013"><a xlink:href="_listener_socket_8hpp.html" target="_top" xlink:title=" ">
<polygon fill="white" stroke="#666666" points="501.25,-101.5 363.25,-101.5 363.25,-71.5 501.25,-71.5 501.25,-101.5"/>
<text text-anchor="start" x="371.25" y="-89.5" font-family="Helvetica,sans-Serif" font-size="10.00">include/Hermes/Socket</text>
<text text-anchor="middle" x="432.25" y="-78.5" font-family="Helvetica,sans-Serif" font-size="10.00">/Sync/ListenerSocket.hpp</text>
</a>
</g>
</g>
<!-- Node12&#45;&gt;Node13 -->
<g id="edge17_Node000012_Node000013" class="edge">
<title>Node12&#45;&gt;Node13</title>
<g id="a_edge17_Node000012_Node000013"><a xlink:title=" ">
<path fill="none" stroke="#63b8ff" d="M432.25,-138.04C432.25,-125.95 432.25,-111.79 432.25,-101.54"/>
<polygon fill="#63b8ff" stroke="#63b8ff" points="428.75,-138.39 432.25,-148.39 435.75,-138.39 428.75,-138.39"/>
</a>
</g>
</g>
<!-- Node14&#45;&gt;Node6 -->
<g id="edge19_Node000014_Node000006" class="edge">
<title>Node14&#45;&gt;Node6</title>
<g id="a_edge19_Node000014_Node000006"><a xlink:title=" ">
<path fill="none" stroke="#63b8ff" d="M292.74,-217.35C253.85,-206.78 207.73,-194.25 170.17,-184.04"/>
<polygon fill="#63b8ff" stroke="#63b8ff" points="291.89,-220.75 302.46,-219.99 293.73,-213.99 291.89,-220.75"/>
</a>
</g>
</g>
<!-- Node14&#45;&gt;Node12 -->
<g id="edge20_Node000014_Node000012" class="edge">
<title>Node14&#45;&gt;Node12</title>
<g id="a_edge20_Node000014_Node000012"><a xlink:title=" ">
<path fill="none" stroke="#63b8ff" d="M395.84,-211.59C404.45,-200.46 413.99,-188.12 421.15,-178.86"/>
<polygon fill="#63b8ff" stroke="#63b8ff" points="392.84,-209.74 389.49,-219.79 398.38,-214.03 392.84,-209.74"/>
</a>
</g>
</g>
<!-- Node16 -->
<g id="Node000016" class="node">
<title>Node16</title>
<g id="a_Node000016"><a xlink:href="_client_socket_8hpp.html" target="_top" xlink:title=" ">
<polygon fill="white" stroke="#666666" points="873.25,-178.5 745.25,-178.5 745.25,-148.5 873.25,-148.5 873.25,-178.5"/>
<text text-anchor="start" x="753.25" y="-166.5" font-family="Helvetica,sans-Serif" font-size="10.00">include/Hermes/Socket</text>
<text text-anchor="middle" x="809.25" y="-155.5" font-family="Helvetica,sans-Serif" font-size="10.00">/Sync/ClientSocket.hpp</text>
</a>
</g>
</g>
<!-- Node15&#45;&gt;Node16 -->
<g id="edge22_Node000015_Node000016" class="edge">
<title>Node15&#45;&gt;Node16</title>
<g id="a_edge22_Node000015_Node000016"><a xlink:title=" ">
<path fill="none" stroke="#63b8ff" d="M904.98,-286.61C903.52,-266.39 898.99,-239.86 886.25,-220 874.78,-202.11 855.32,-188.15 838.83,-178.71"/>
<polygon fill="#63b8ff" stroke="#63b8ff" points="901.5,-287.01 905.5,-296.82 908.49,-286.66 901.5,-287.01"/>
</a>
</g>
</g>
<!-- Node15&#45;&gt;Node17 -->
<g id="edge23_Node000015_Node000017" class="edge">
<title>Node15&#45;&gt;Node17</title>
<g id="a_edge23_Node000015_Node000017"><a xlink:title=" ">
<path fill="none" stroke="#63b8ff" d="M938.03,-290.35C950.09,-280.73 963.52,-270.01 974.72,-261.07"/>
<polygon fill="#63b8ff" stroke="#63b8ff" points="935.59,-287.82 929.95,-296.79 939.95,-293.29 935.59,-287.82"/>
</a>
</g>
</g>
<!-- Node17&#45;&gt;Node7 -->
<g id="edge24_Node000017_Node000007" class="edge">
<title>Node17&#45;&gt;Node7</title>
<g id="a_edge24_Node000017_Node000007"><a xlink:title=" ">
<path fill="none" stroke="#63b8ff" d="M1060.23,-216.4C1087.59,-206.04 1119.51,-193.95 1145.66,-184.04"/>
<polygon fill="#63b8ff" stroke="#63b8ff" points="1058.87,-213.18 1050.76,-219.99 1061.35,-219.72 1058.87,-213.18"/>
</a>
</g>
</g>
<!-- Node17&#45;&gt;Node9 -->
<g id="edge25_Node000017_Node000009" class="edge">
<title>Node17&#45;&gt;Node9</title>
<g id="a_edge25_Node000017_Node000009"><a xlink:title=" ">
<path fill="none" stroke="#63b8ff" d="M960.7,-214.26C947.76,-205.22 933.51,-194.63 921.25,-184 902.25,-167.52 900.99,-159.78 882.25,-143 868.02,-130.26 851.09,-117.27 837.12,-107.06"/>
<polygon fill="#63b8ff" stroke="#63b8ff" points="958.76,-217.17 968.99,-219.96 962.73,-211.41 958.76,-217.17"/>
</a>
</g>
</g>
<!-- Node17&#45;&gt;Node16 -->
<g id="edge26_Node000017_Node000016" class="edge">
<title>Node17&#45;&gt;Node16</title>
<g id="a_edge26_Node000017_Node000016"><a xlink:title=" ">
<path fill="none" stroke="#63b8ff" d="M940.35,-216.25C909.11,-203.92 871.76,-189.17 844.93,-178.58"/>
<polygon fill="#63b8ff" stroke="#63b8ff" points="939.24,-219.57 949.83,-219.99 941.81,-213.06 939.24,-219.57"/>
</a>
</g>
</g>
<!-- Node18 -->
<g id="Node000018" class="node">
<title>Node18</title>
<g id="a_Node000018"><a xlink:href="_tls_connect_state_machine_8hpp.html" target="_top" xlink:title=" ">
<polygon fill="white" stroke="#666666" points="1092.75,-184 929.75,-184 929.75,-143 1092.75,-143 1092.75,-184"/>
<text text-anchor="start" x="937.75" y="-172" font-family="Helvetica,sans-Serif" font-size="10.00">include/Hermes/Socket</text>
<text text-anchor="start" x="937.75" y="-161" font-family="Helvetica,sans-Serif" font-size="10.00">/_base/Connection/TlsConnect</text>
<text text-anchor="middle" x="1011.25" y="-150" font-family="Helvetica,sans-Serif" font-size="10.00">StateMachine.hpp</text>
</a>
</g>
</g>
<!-- Node17&#45;&gt;Node18 -->
<g id="edge27_Node000017_Node000018" class="edge">
<title>Node17&#45;&gt;Node18</title>
<g id="a_edge27_Node000017_Node000018"><a xlink:title=" ">
<path fill="none" stroke="#63b8ff" d="M1004.02,-209.69C1005.4,-201.08 1006.87,-191.9 1008.12,-184.07"/>
<polygon fill="#63b8ff" stroke="#63b8ff" points="1000.53,-209.37 1002.41,-219.79 1007.44,-210.47 1000.53,-209.37"/>
</a>
</g>
</g>
<!-- Node19&#45;&gt;Node12 -->
<g id="edge30_Node000019_Node000012" class="edge">
<title>Node19&#45;&gt;Node12</title>
<g id="a_edge30_Node000019_Node000012"><a xlink:title=" ">
<path fill="none" stroke="#63b8ff" d="M723.45,-226C663.16,-215.64 579.3,-200.38 506.25,-184 498.87,-182.34 491.1,-180.46 483.49,-178.53"/>
<polygon fill="#63b8ff" stroke="#63b8ff" points="723.22,-229.51 733.66,-227.75 724.4,-222.61 723.22,-229.51"/>
</a>
</g>
</g>
<!-- Node19&#45;&gt;Node16 -->
<g id="edge29_Node000019_Node000016" class="edge">
<title>Node19&#45;&gt;Node16</title>
<g id="a_edge29_Node000019_Node000016"><a xlink:title=" ">
<path fill="none" stroke="#63b8ff" d="M806.85,-209.61C807.41,-199.01 808.02,-187.57 808.49,-178.86"/>
<polygon fill="#63b8ff" stroke="#63b8ff" points="803.34,-209.62 806.31,-219.79 810.33,-210 803.34,-209.62"/>
</a>
</g>
</g>
<!-- Node20&#45;&gt;Node6 -->
<g id="edge32_Node000020_Node000006" class="edge">
<title>Node20&#45;&gt;Node6</title>
<g id="a_edge32_Node000020_Node000006"><a xlink:title=" ">
<path fill="none" stroke="#63b8ff" d="M496.61,-304.14C424.27,-292.29 322.6,-274.29 284.25,-261 254.09,-250.55 177.87,-209.08 132.92,-184.02"/>
<polygon fill="#63b8ff" stroke="#63b8ff" points="496.18,-307.61 506.61,-305.77 497.31,-300.7 496.18,-307.61"/>
</a>
</g>
</g>
<!-- Node20&#45;&gt;Node9 -->
<g id="edge33_Node000020_Node000009" class="edge">
<title>Node20&#45;&gt;Node9</title>
<g id="a_edge33_Node000020_Node000009"><a xlink:title=" ">
<path fill="none" stroke="#63b8ff" d="M605.23,-296.61C619.07,-286.73 635.26,-274.11 648.25,-261 694.3,-214.53 690.21,-189.47 736.25,-143 749.36,-129.77 765.74,-117.04 779.66,-107.12"/>
<polygon fill="#63b8ff" stroke="#63b8ff" points="603.16,-293.79 596.97,-302.39 607.17,-299.53 603.16,-293.79"/>
</a>
</g>
</g>
<!-- Node20&#45;&gt;Node14 -->
<g id="edge37_Node000020_Node000014" class="edge">
<title>Node20&#45;&gt;Node14</title>
<g id="a_edge37_Node000020_Node000014"><a xlink:title=" ">
<path fill="none" stroke="#63b8ff" d="M527.92,-298.84C497.53,-287.5 458.02,-272.76 426.68,-261.06"/>
<polygon fill="#63b8ff" stroke="#63b8ff" points="526.86,-302.18 537.45,-302.39 529.3,-295.62 526.86,-302.18"/>
</a>
</g>
</g>
<!-- Node20&#45;&gt;Node17 -->
<g id="edge38_Node000020_Node000017" class="edge">
<title>Node20&#45;&gt;Node17</title>
<g id="a_edge38_Node000020_Node000017"><a xlink:title=" ">
<path fill="none" stroke="#63b8ff" d="M653.92,-302.59C734.3,-288.37 857.73,-266.53 933.2,-253.18"/>
<polygon fill="#63b8ff" stroke="#63b8ff" points="653.09,-299.18 643.85,-304.37 654.31,-306.07 653.09,-299.18"/>
</a>
</g>
</g>
<!-- Node21 -->
<g id="Node000021" class="node">
<title>Node21</title>
<g id="a_Node000021"><a xlink:href="_tls_async_transfer_policy_8hpp.html" target="_top" xlink:title=" ">
<polygon fill="white" stroke="#666666" points="348.75,-184 197.75,-184 197.75,-143 348.75,-143 348.75,-184"/>
<text text-anchor="start" x="205.75" y="-172" font-family="Helvetica,sans-Serif" font-size="10.00">include/Hermes/Socket</text>
<text text-anchor="start" x="205.75" y="-161" font-family="Helvetica,sans-Serif" font-size="10.00">/Async/_base/Transfer</text>
<text text-anchor="middle" x="273.25" y="-150" font-family="Helvetica,sans-Serif" font-size="10.00">/TlsAsyncTransferPolicy.hpp</text>
</a>
</g>
</g>
<!-- Node20&#45;&gt;Node21 -->
<g id="edge34_Node000020_Node000021" class="edge">
<title>Node20&#45;&gt;Node21</title>
<g id="a_edge34_Node000020_Node000021"><a xlink:title=" ">
<path fill="none" stroke="#63b8ff" d="M546.84,-296.54C532.97,-286.39 516.3,-273.58 502.25,-261 483.52,-244.22 484.73,-233.09 463.25,-220 443.74,-208.11 393.22,-193.59 349.18,-182.39"/>
<polygon fill="#63b8ff" stroke="#63b8ff" points="544.9,-299.46 555.06,-302.48 549,-293.79 544.9,-299.46"/>
</a>
</g>
</g>
<!-- Node22 -->
<g id="Node000022" class="node">
<title>Node22</title>
<g id="a_Node000022"><a xlink:href="_tls_transfer_policy_8hpp.html" target="_top" xlink:title=" ">
<polygon fill="white" stroke="#666666" points="639.25,-261 511.25,-261 511.25,-220 639.25,-220 639.25,-261"/>
<text text-anchor="start" x="519.25" y="-249" font-family="Helvetica,sans-Serif" font-size="10.00">include/Hermes/Socket</text>
<text text-anchor="start" x="519.25" y="-238" font-family="Helvetica,sans-Serif" font-size="10.00">/Sync/_base/Transfer</text>
<text text-anchor="middle" x="575.25" y="-227" font-family="Helvetica,sans-Serif" font-size="10.00">/TlsTransferPolicy.hpp</text>
</a>
</g>
</g>
<!-- Node20&#45;&gt;Node22 -->
<g id="edge39_Node000020_Node000022" class="edge">
<title>Node20&#45;&gt;Node22</title>
<g id="a_edge39_Node000020_Node000022"><a xlink:title=" ">
<path fill="none" stroke="#63b8ff" d="M575.25,-292.23C575.25,-282.2 575.25,-270.71 575.25,-261.2"/>
<polygon fill="#63b8ff" stroke="#63b8ff" points="571.75,-292.39 575.25,-302.39 578.75,-292.39 571.75,-292.39"/>
</a>
</g>
</g>
<!-- Node21&#45;&gt;Node4 -->
<g id="edge36_Node000021_Node000004" class="edge">
<title>Node21&#45;&gt;Node4</title>
<g id="a_edge36_Node000021_Node000004"><a xlink:title=" ">
<path fill="none" stroke="#63b8ff" d="M227.12,-138.3C204.07,-126.22 176.99,-112.01 157.33,-101.7"/>
<polygon fill="#63b8ff" stroke="#63b8ff" points="225.57,-141.45 236.06,-142.99 228.83,-135.25 225.57,-141.45"/>
</a>
</g>
</g>
<!-- Node21&#45;&gt;Node8 -->
<g id="edge35_Node000021_Node000008" class="edge">
<title>Node21&#45;&gt;Node8</title>
<g id="a_edge35_Node000021_Node000008"><a xlink:title=" ">
<path fill="none" stroke="#63b8ff" d="M289,-133.97C303.02,-111.52 325.71,-81.52 354.25,-66 407.85,-36.85 573.45,-24.25 674.61,-19.15"/>
<polygon fill="#63b8ff" stroke="#63b8ff" points="285.87,-132.39 283.71,-142.76 291.87,-136 285.87,-132.39"/>
</a>
</g>
</g>
<!-- Node22&#45;&gt;Node12 -->
<g id="edge41_Node000022_Node000012" class="edge">
<title>Node22&#45;&gt;Node12</title>
<g id="a_edge41_Node000022_Node000012"><a xlink:title=" ">
<path fill="none" stroke="#63b8ff" d="M529.12,-215.3C506.07,-203.22 478.99,-189.01 459.33,-178.7"/>
<polygon fill="#63b8ff" stroke="#63b8ff" points="527.57,-218.45 538.06,-219.99 530.83,-212.25 527.57,-218.45"/>
</a>
</g>
</g>
<!-- Node22&#45;&gt;Node16 -->
<g id="edge40_Node000022_Node000016" class="edge">
<title>Node22&#45;&gt;Node16</title>
<g id="a_edge40_Node000022_Node000016"><a xlink:title=" ">
<path fill="none" stroke="#63b8ff" d="M645.82,-216.88C684.68,-204.43 731.71,-189.36 765.32,-178.58"/>
<polygon fill="#63b8ff" stroke="#63b8ff" points="644.58,-213.61 636.12,-219.99 646.72,-220.27 644.58,-213.61"/>
</a>
</g>
</g>
</g>
</svg>
