<?xml version="1.0" encoding="UTF-8" standalone="no"?>
<!DOCTYPE svg PUBLIC "-//W3C//DTD SVG 1.1//EN"
 "http://www.w3.org/Graphics/SVG/1.1/DTD/svg11.dtd">
<!-- Generated by graphviz version 2.43.0 (0)
 -->
<!-- Title: include/Hermes/_base/WinApi/Macros.hpp Pages: 1 -->
<svg width="874pt" height="588pt"
 viewBox="0.00 0.00 874.00 588.00" xmlns="http://www.w3.org/2000/svg" xmlns:xlink="http://www.w3.org/1999/xlink">
<g id="graph0" class="graph" transform="scale(1 1) rotate(0) translate(4 584)">
<title>include/Hermes/_base/WinApi/Macros.hpp</title>
<!-- Node1 -->
<g id="Node000001" class="node">
<title>Node1</title>
<g id="a_Node000001"><a xlink:title=" ">
<polygon fill="#999999" stroke="#666666" points="774.5,-580 649.5,-580 649.5,-550 774.5,-550 774.5,-580"/>
<text text-anchor="start" x="657.5" y="-568" font-family="Helvetica,sans-Serif" font-size="10.00">include/Hermes/_base</text>
<text text-anchor="middle" x="712" y="-557" font-family="Helvetica,sans-Serif" font-size="10.00">/WinApi/Macros.hpp</text>
</a>
</g>
</g>
<!-- Node2 -->
<g id="Node000002" class="node">
<title>Node2</title>
<g id="a_Node000002"><a xlink:href="_win_api_8hpp.html" target="_top" xlink:title=" ">
<polygon fill="white" stroke="#666666" points="774.5,-514 649.5,-514 649.5,-484 774.5,-484 774.5,-514"/>
<text text-anchor="start" x="657.5" y="-502" font-family="Helvetica,sans-Serif" font-size="10.00">include/Hermes/_base</text>
<text text-anchor="middle" x="712" y="-491" font-family="Helvetica,sans-Serif" font-size="10.00">/WinApi/WinApi.hpp</text>
</a>
</g>
</g>
<!-- Node1&#45;&gt;Node2 -->
<g id="edge1_Node000001_Node000002" class="edge">
<title>Node1&#45;&gt;Node2</title>
<g id="a_edge1_Node000001_Node000002"><a xlink:title=" ">
<path fill="none" stroke="#63b8ff" d="M712,-539.54C712,-530.96 712,-521.61 712,-514.16"/>
<polygon fill="#63b8ff" stroke="#63b8ff" points="708.5,-539.8 712,-549.8 715.5,-539.8 708.5,-539.8"/>
</a>
</g>
</g>
<!-- Node3 -->
<g id="Node000003" class="node">
<title>Node3</title>
<g id="a_Node000003"><a xlink:href="_endpoint_concept_8hpp.html" target="_top" xlink:title=" ">
<polygon fill="white" stroke="#666666" points="614.5,-448 459.5,-448 459.5,-418 614.5,-418 614.5,-448"/>
<text text-anchor="start" x="467.5" y="-436" font-family="Helvetica,sans-Serif" font-size="10.00">include/Hermes/Endpoint</text>
<text text-anchor="middle" x="537" y="-425" font-family="Helvetica,sans-Serif" font-size="10.00">/_base/EndpointConcept.hpp</text>
</a>
</g>
</g>
<!-- Node2&#45;&gt;Node3 -->
<g id="edge2_Node000002_Node000003" class="edge">
<title>Node2&#45;&gt;Node3</title>
<g id="a_edge2_Node000002_Node000003"><a xlink:title=" ">
<path fill="none" stroke="#63b8ff" d="M664.03,-480.46C636.11,-470.25 601.4,-457.55 575.31,-448.01"/>
<polygon fill="#63b8ff" stroke="#63b8ff" points="663,-483.81 673.6,-483.95 665.41,-477.23 663,-483.81"/>
</a>
</g>
</g>
<!-- Node14 -->
<g id="Node000014" class="node">
<title>Node14</title>
<g id="a_Node000014"><a xlink:href="_tls_socket_data_8hpp.html" target="_top" xlink:title=" ">
<polygon fill="white" stroke="#666666" points="866,-316 698,-316 698,-286 866,-286 866,-316"/>
<text text-anchor="start" x="706" y="-304" font-family="Helvetica,sans-Serif" font-size="10.00">include/Hermes/Socket</text>
<text text-anchor="middle" x="782" y="-293" font-family="Helvetica,sans-Serif" font-size="10.00">/_base/Data/TlsSocketData.hpp</text>
</a>
</g>
</g>
<!-- Node2&#45;&gt;Node14 -->
<g id="edge33_Node000002_Node000014" class="edge">
<title>Node2&#45;&gt;Node14</title>
<g id="a_edge33_Node000002_Node000014"><a xlink:title=" ">
<path fill="none" stroke="#63b8ff" d="M753.68,-478.74C765.67,-470.99 777.3,-460.8 784,-448 806.68,-404.65 794.02,-343.68 786.42,-316.3"/>
<polygon fill="#63b8ff" stroke="#63b8ff" points="751.74,-475.82 744.95,-483.95 755.33,-481.82 751.74,-475.82"/>
</a>
</g>
</g>
<!-- Node18 -->
<g id="Node000018" class="node">
<title>Node18</title>
<g id="a_Node000018"><a xlink:href="_credentials_8hpp.html" target="_top" xlink:title=" ">
<polygon fill="white" stroke="#666666" points="774.5,-448 649.5,-448 649.5,-418 774.5,-418 774.5,-448"/>
<text text-anchor="start" x="657.5" y="-436" font-family="Helvetica,sans-Serif" font-size="10.00">include/Hermes/_base</text>
<text text-anchor="middle" x="712" y="-425" font-family="Helvetica,sans-Serif" font-size="10.00">/Credentials.hpp</text>
</a>
</g>
</g>
<!-- Node2&#45;&gt;Node18 -->
<g id="edge34_Node000002_Node000018" class="edge">
<title>Node2&#45;&gt;Node18</title>
<g id="a_edge34_Node000002_Node000018"><a xlink:title=" ">
<path fill="none" stroke="#63b8ff" d="M712,-473.54C712,-464.96 712,-455.61 712,-448.16"/>
<polygon fill="#63b8ff" stroke="#63b8ff" points="708.5,-473.8 712,-483.8 715.5,-473.8 708.5,-473.8"/>
</a>
</g>
</g>
<!-- Node4 -->
<g id="Node000004" class="node">
<title>Node4</title>
<g id="a_Node000004"><a xlink:href="_ip_endpoint_8hpp.html" target="_top" xlink:title=" ">
<polygon fill="white" stroke="#666666" points="610.5,-382 463.5,-382 463.5,-352 610.5,-352 610.5,-382"/>
<text text-anchor="start" x="471.5" y="-370" font-family="Helvetica,sans-Serif" font-size="10.00">include/Hermes/Endpoint</text>
<text text-anchor="middle" x="537" y="-359" font-family="Helvetica,sans-Serif" font-size="10.00">/IpEndpoint/IpEndpoint.hpp</text>
</a>
</g>
</g>
<!-- Node3&#45;&gt;Node4 -->
<g id="edge3_Node000003_Node000004" class="edge">
<title>Node3&#45;&gt;Node4</title>
<g id="a_edge3_Node000003_Node000004"><a xlink:title=" ">
<path fill="none" stroke="#63b8ff" d="M537,-407.54C537,-398.96 537,-389.61 537,-382.16"/>
<polygon fill="#63b8ff" stroke="#63b8ff" points="533.5,-407.8 537,-417.8 540.5,-407.8 533.5,-407.8"/>
</a>
</g>
</g>
<!-- Node16 -->
<g id="Node000016" class="node">
<title>Node16</title>
<g id="a_Node000016"><a xlink:href="__base_8hpp.html" target="_top" xlink:title=" ">
<polygon fill="white" stroke="#666666" points="445,-382 317,-382 317,-352 445,-352 445,-382"/>
<text text-anchor="start" x="325" y="-370" font-family="Helvetica,sans-Serif" font-size="10.00">include/Hermes/Socket</text>
<text text-anchor="middle" x="381" y="-359" font-family="Helvetica,sans-Serif" font-size="10.00">/_base/_base.hpp</text>
</a>
</g>
</g>
<!-- Node3&#45;&gt;Node16 -->
<g id="edge23_Node000003_Node000016" class="edge">
<title>Node3&#45;&gt;Node16</title>
<g id="a_edge23_Node000003_Node000016"><a xlink:title=" ">
<path fill="none" stroke="#63b8ff" d="M493.26,-414.05C468.54,-403.91 438.1,-391.43 415.16,-382.01"/>
<polygon fill="#63b8ff" stroke="#63b8ff" points="492.18,-417.4 502.77,-417.95 494.84,-410.92 492.18,-417.4"/>
</a>
</g>
</g>
<!-- Node5 -->
<g id="Node000005" class="node">
<title>Node5</title>
<g id="a_Node000005"><a xlink:href="_default_socket_data_8hpp.html" target="_top" xlink:title=" ">
<polygon fill="white" stroke="#666666" points="566,-316 376,-316 376,-286 566,-286 566,-316"/>
<text text-anchor="start" x="384" y="-304" font-family="Helvetica,sans-Serif" font-size="10.00">include/Hermes/Socket</text>
<text text-anchor="middle" x="471" y="-293" font-family="Helvetica,sans-Serif" font-size="10.00">/_base/Data/DefaultSocketData.hpp</text>
</a>
</g>
</g>
<!-- Node4&#45;&gt;Node5 -->
<g id="edge4_Node000004_Node000005" class="edge">
<title>Node4&#45;&gt;Node5</title>
<g id="a_edge4_Node000004_Node000005"><a xlink:title=" ">
<path fill="none" stroke="#63b8ff" d="M514.98,-344.65C505.31,-335.27 494.23,-324.53 485.61,-316.16"/>
<polygon fill="#63b8ff" stroke="#63b8ff" points="512.74,-347.35 522.35,-351.8 517.61,-342.32 512.74,-347.35"/>
</a>
</g>
</g>
<!-- Node4&#45;&gt;Node14 -->
<g id="edge17_Node000004_Node000014" class="edge">
<title>Node4&#45;&gt;Node14</title>
<g id="a_edge17_Node000004_Node000014"><a xlink:title=" ">
<path fill="none" stroke="#63b8ff" d="M600.6,-349.39C640.26,-339.03 690.73,-325.84 728.36,-316.01"/>
<polygon fill="#63b8ff" stroke="#63b8ff" points="599.56,-346.04 590.77,-351.95 601.33,-352.81 599.56,-346.04"/>
</a>
</g>
</g>
<!-- Node6 -->
<g id="Node000006" class="node">
<title>Node6</title>
<g id="a_Node000006"><a xlink:href="_default_accept_policy_8hpp.html" target="_top" xlink:title=" ">
<polygon fill="white" stroke="#666666" points="156,-250 0,-250 0,-209 156,-209 156,-250"/>
<text text-anchor="start" x="8" y="-238" font-family="Helvetica,sans-Serif" font-size="10.00">include/Hermes/Socket</text>
<text text-anchor="start" x="8" y="-227" font-family="Helvetica,sans-Serif" font-size="10.00">/_base/Accept/DefaultAccept</text>
<text text-anchor="middle" x="78" y="-216" font-family="Helvetica,sans-Serif" font-size="10.00">Policy.hpp</text>
</a>
</g>
</g>
<!-- Node5&#45;&gt;Node6 -->
<g id="edge5_Node000005_Node000006" class="edge">
<title>Node5&#45;&gt;Node6</title>
<g id="a_edge5_Node000005_Node000006"><a xlink:title=" ">
<path fill="none" stroke="#63b8ff" d="M381.21,-284.12C313.29,-272.11 220.94,-255.78 156.07,-244.31"/>
<polygon fill="#63b8ff" stroke="#63b8ff" points="381.01,-287.64 391.47,-285.94 382.23,-280.75 381.01,-287.64"/>
</a>
</g>
</g>
<!-- Node10 -->
<g id="Node000010" class="node">
<title>Node10</title>
<g id="a_Node000010"><a xlink:href="_default_connect_policy_8hpp.html" target="_top" xlink:title=" ">
<polygon fill="white" stroke="#666666" points="604.5,-250 419.5,-250 419.5,-209 604.5,-209 604.5,-250"/>
<text text-anchor="start" x="427.5" y="-238" font-family="Helvetica,sans-Serif" font-size="10.00">include/Hermes/Socket</text>
<text text-anchor="start" x="427.5" y="-227" font-family="Helvetica,sans-Serif" font-size="10.00">/_base/Connection/DefaultConnect</text>
<text text-anchor="middle" x="512" y="-216" font-family="Helvetica,sans-Serif" font-size="10.00">Policy.hpp</text>
</a>
</g>
</g>
<!-- Node5&#45;&gt;Node10 -->
<g id="edge10_Node000005_Node000010" class="edge">
<title>Node5&#45;&gt;Node10</title>
<g id="a_edge10_Node000005_Node000010"><a xlink:title=" ">
<path fill="none" stroke="#63b8ff" d="M484.39,-277.31C489.57,-268.52 495.46,-258.55 500.45,-250.07"/>
<polygon fill="#63b8ff" stroke="#63b8ff" points="481.36,-275.54 479.3,-285.94 487.39,-279.1 481.36,-275.54"/>
</a>
</g>
</g>
<!-- Node13 -->
<g id="Node000013" class="node">
<title>Node13</title>
<g id="a_Node000013"><a xlink:href="_default_transfer_policy_8hpp.html" target="_top" xlink:title=" ">
<polygon fill="white" stroke="#666666" points="476,-173 308,-173 308,-132 476,-132 476,-173"/>
<text text-anchor="start" x="316" y="-161" font-family="Helvetica,sans-Serif" font-size="10.00">include/Hermes/Socket</text>
<text text-anchor="start" x="316" y="-150" font-family="Helvetica,sans-Serif" font-size="10.00">/_base/Transfer/DefaultTransfer</text>
<text text-anchor="middle" x="392" y="-139" font-family="Helvetica,sans-Serif" font-size="10.00">Policy.hpp</text>
</a>
</g>
</g>
<!-- Node5&#45;&gt;Node13 -->
<g id="edge14_Node000005_Node000013" class="edge">
<title>Node5&#45;&gt;Node13</title>
<g id="a_edge14_Node000005_Node000013"><a xlink:title=" ">
<path fill="none" stroke="#63b8ff" d="M438.24,-279.92C427.68,-271.87 416.93,-261.72 410,-250 395.94,-226.24 392.47,-193.91 391.81,-173.37"/>
<polygon fill="#63b8ff" stroke="#63b8ff" points="436.42,-282.92 446.58,-285.9 440.5,-277.23 436.42,-282.92"/>
</a>
</g>
</g>
<!-- Node7 -->
<g id="Node000007" class="node">
<title>Node7</title>
<g id="a_Node000007"><a xlink:href="_server_socket_8hpp.html" target="_top" xlink:title=" ">
<polygon fill="white" stroke="#666666" points="401,-96 273,-96 273,-66 401,-66 401,-96"/>
<text text-anchor="start" x="281" y="-84" font-family="Helvetica,sans-Serif" font-size="10.00">include/Hermes/Socket</text>
<text text-anchor="middle" x="337" y="-73" font-family="Helvetica,sans-Serif" font-size="10.00">/ServerSocket.hpp</text>
</a>
</g>
</g>
<!-- Node6&#45;&gt;Node7 -->
<g id="edge6_Node000006_Node000007" class="edge">
<title>Node6&#45;&gt;Node7</title>
<g id="a_edge6_Node000006_Node000007"><a xlink:title=" ">
<path fill="none" stroke="#63b8ff" d="M75.8,-198.78C75.92,-177.38 79.85,-149.34 97,-132 121.17,-107.56 210.36,-94.06 272.91,-87.42"/>
<polygon fill="#63b8ff" stroke="#63b8ff" points="72.31,-199.05 76.02,-208.97 79.3,-198.9 72.31,-199.05"/>
</a>
</g>
</g>
<!-- Node9 -->
<g id="Node000009" class="node">
<title>Node9</title>
<g id="a_Node000009"><a xlink:href="_tls_accept_policy_8hpp.html" target="_top" xlink:title=" ">
<polygon fill="white" stroke="#666666" points="289.5,-167.5 106.5,-167.5 106.5,-137.5 289.5,-137.5 289.5,-167.5"/>
<text text-anchor="start" x="114.5" y="-155.5" font-family="Helvetica,sans-Serif" font-size="10.00">include/Hermes/Socket</text>
<text text-anchor="middle" x="198" y="-144.5" font-family="Helvetica,sans-Serif" font-size="10.00">/_base/Accept/TlsAcceptPolicy.hpp</text>
</a>
</g>
</g>
<!-- Node6&#45;&gt;Node9 -->
<g id="edge8_Node000006_Node000009" class="edge">
<title>Node6&#45;&gt;Node9</title>
<g id="a_edge8_Node000006_Node000009"><a xlink:title=" ">
<path fill="none" stroke="#63b8ff" d="M117.74,-203.66C136.86,-191.71 159.07,-177.83 175.28,-167.7"/>
<polygon fill="#63b8ff" stroke="#63b8ff" points="115.84,-200.72 109.22,-208.99 119.55,-206.66 115.84,-200.72"/>
</a>
</g>
</g>
<!-- Node8 -->
<g id="Node000008" class="node">
<title>Node8</title>
<g id="a_Node000008"><a xlink:href="_listener_socket_8hpp.html" target="_top" xlink:title=" ">
<polygon fill="white" stroke="#666666" points="401,-30 273,-30 273,0 401,0 401,-30"/>
<text text-anchor="start" x="281" y="-18" font-family="Helvetica,sans-Serif" font-size="10.00">include/Hermes/Socket</text>
<text text-anchor="middle" x="337" y="-7" font-family="Helvetica,sans-Serif" font-size="10.00">/ListenerSocket.hpp</text>
</a>
</g>
</g>
<!-- Node7&#45;&gt;Node8 -->
<g id="edge7_Node000007_Node000008" class="edge">
<title>Node7&#45;&gt;Node8</title>
<g id="a_edge7_Node000007_Node000008"><a xlink:title=" ">
<path fill="none" stroke="#63b8ff" d="M337,-55.54C337,-46.96 337,-37.61 337,-30.16"/>
<polygon fill="#63b8ff" stroke="#63b8ff" points="333.5,-55.8 337,-65.8 340.5,-55.8 333.5,-55.8"/>
</a>
</g>
</g>
<!-- Node9&#45;&gt;Node7 -->
<g id="edge9_Node000009_Node000007" class="edge">
<title>Node9&#45;&gt;Node7</title>
<g id="a_edge9_Node000009_Node000007"><a xlink:title=" ">
<path fill="none" stroke="#63b8ff" d="M235.31,-132.84C258.46,-121.27 287.73,-106.64 308.91,-96.04"/>
<polygon fill="#63b8ff" stroke="#63b8ff" points="233.51,-129.83 226.13,-137.44 236.64,-136.09 233.51,-129.83"/>
</a>
</g>
</g>
<!-- Node11 -->
<g id="Node000011" class="node">
<title>Node11</title>
<g id="a_Node000011"><a xlink:href="_client_socket_8hpp.html" target="_top" xlink:title=" ">
<polygon fill="white" stroke="#666666" points="631,-96 503,-96 503,-66 631,-66 631,-96"/>
<text text-anchor="start" x="511" y="-84" font-family="Helvetica,sans-Serif" font-size="10.00">include/Hermes/Socket</text>
<text text-anchor="middle" x="567" y="-73" font-family="Helvetica,sans-Serif" font-size="10.00">/ClientSocket.hpp</text>
</a>
</g>
</g>
<!-- Node10&#45;&gt;Node11 -->
<g id="edge11_Node000010_Node000011" class="edge">
<title>Node10&#45;&gt;Node11</title>
<g id="a_edge11_Node000010_Node000011"><a xlink:title=" ">
<path fill="none" stroke="#63b8ff" d="M514.99,-198.78C517.72,-179.2 522.79,-153.34 532,-132 537.63,-118.96 546.95,-105.88 554.56,-96.36"/>
<polygon fill="#63b8ff" stroke="#63b8ff" points="511.49,-198.58 513.71,-208.94 518.44,-199.46 511.49,-198.58"/>
</a>
</g>
</g>
<!-- Node12 -->
<g id="Node000012" class="node">
<title>Node12</title>
<g id="a_Node000012"><a xlink:href="_tls_connect_policy_8hpp.html" target="_top" xlink:title=" ">
<polygon fill="white" stroke="#666666" points="704.5,-173 541.5,-173 541.5,-132 704.5,-132 704.5,-173"/>
<text text-anchor="start" x="549.5" y="-161" font-family="Helvetica,sans-Serif" font-size="10.00">include/Hermes/Socket</text>
<text text-anchor="start" x="549.5" y="-150" font-family="Helvetica,sans-Serif" font-size="10.00">/_base/Connection/TlsConnect</text>
<text text-anchor="middle" x="623" y="-139" font-family="Helvetica,sans-Serif" font-size="10.00">Policy.hpp</text>
</a>
</g>
</g>
<!-- Node10&#45;&gt;Node12 -->
<g id="edge12_Node000010_Node000012" class="edge">
<title>Node10&#45;&gt;Node12</title>
<g id="a_edge12_Node000010_Node000012"><a xlink:title=" ">
<path fill="none" stroke="#63b8ff" d="M549.19,-203.37C563.76,-193.53 580.21,-182.41 593.88,-173.17"/>
<polygon fill="#63b8ff" stroke="#63b8ff" points="547.2,-200.49 540.87,-208.99 551.12,-206.29 547.2,-200.49"/>
</a>
</g>
</g>
<!-- Node12&#45;&gt;Node11 -->
<g id="edge13_Node000012_Node000011" class="edge">
<title>Node12&#45;&gt;Node11</title>
<g id="a_edge13_Node000012_Node000011"><a xlink:title=" ">
<path fill="none" stroke="#63b8ff" d="M600.82,-123.98C593.11,-114.4 584.77,-104.06 578.31,-96.04"/>
<polygon fill="#63b8ff" stroke="#63b8ff" points="598.1,-126.18 607.1,-131.77 603.55,-121.79 598.1,-126.18"/>
</a>
</g>
</g>
<!-- Node13&#45;&gt;Node7 -->
<g id="edge16_Node000013_Node000007" class="edge">
<title>Node13&#45;&gt;Node7</title>
<g id="a_edge16_Node000013_Node000007"><a xlink:title=" ">
<path fill="none" stroke="#63b8ff" d="M369.99,-123.69C362.48,-114.19 354.39,-103.98 348.11,-96.04"/>
<polygon fill="#63b8ff" stroke="#63b8ff" points="367.44,-126.1 376.39,-131.77 372.93,-121.76 367.44,-126.1"/>
</a>
</g>
</g>
<!-- Node13&#45;&gt;Node11 -->
<g id="edge15_Node000013_Node000011" class="edge">
<title>Node13&#45;&gt;Node11</title>
<g id="a_edge15_Node000013_Node000011"><a xlink:title=" ">
<path fill="none" stroke="#63b8ff" d="M450.54,-128.25C477.45,-117.56 508.48,-105.24 531.74,-96"/>
<polygon fill="#63b8ff" stroke="#63b8ff" points="449.21,-125.01 441.21,-131.96 451.8,-131.52 449.21,-125.01"/>
</a>
</g>
</g>
<!-- Node14&#45;&gt;Node9 -->
<g id="edge18_Node000014_Node000009" class="edge">
<title>Node14&#45;&gt;Node9</title>
<g id="a_edge18_Node000014_Node000009"><a xlink:title=" ">
<path fill="none" stroke="#63b8ff" d="M687.77,-294.99C611.61,-289.12 502.29,-276.58 410,-250 338.89,-229.52 261.11,-189.01 222.54,-167.57"/>
<polygon fill="#63b8ff" stroke="#63b8ff" points="687.59,-298.48 697.82,-295.74 688.11,-291.5 687.59,-298.48"/>
</a>
</g>
</g>
<!-- Node14&#45;&gt;Node12 -->
<g id="edge19_Node000014_Node000012" class="edge">
<title>Node14&#45;&gt;Node12</title>
<g id="a_edge19_Node000014_Node000012"><a xlink:title=" ">
<path fill="none" stroke="#63b8ff" d="M737.41,-281.45C721.07,-273.31 703.13,-262.7 689,-250 664.24,-227.75 644.12,-194.4 632.85,-173.31"/>
<polygon fill="#63b8ff" stroke="#63b8ff" points="736.27,-284.79 746.81,-285.95 739.3,-278.47 736.27,-284.79"/>
</a>
</g>
</g>
<!-- Node15 -->
<g id="Node000015" class="node">
<title>Node15</title>
<g id="a_Node000015"><a xlink:href="_tls_transfer_policy_8hpp.html" target="_top" xlink:title=" ">
<polygon fill="white" stroke="#666666" points="844,-250 698,-250 698,-209 844,-209 844,-250"/>
<text text-anchor="start" x="706" y="-238" font-family="Helvetica,sans-Serif" font-size="10.00">include/Hermes/Socket</text>
<text text-anchor="start" x="706" y="-227" font-family="Helvetica,sans-Serif" font-size="10.00">/_base/Transfer/TlsTransfer</text>
<text text-anchor="middle" x="771" y="-216" font-family="Helvetica,sans-Serif" font-size="10.00">Policy.hpp</text>
</a>
</g>
</g>
<!-- Node14&#45;&gt;Node15 -->
<g id="edge20_Node000014_Node000015" class="edge">
<title>Node14&#45;&gt;Node15</title>
<g id="a_edge20_Node000014_Node000015"><a xlink:title=" ">
<path fill="none" stroke="#63b8ff" d="M778.19,-275.91C776.85,-267.47 775.37,-258.1 774.1,-250.07"/>
<polygon fill="#63b8ff" stroke="#63b8ff" points="774.75,-276.61 779.77,-285.94 781.67,-275.51 774.75,-276.61"/>
</a>
</g>
</g>
<!-- Node15&#45;&gt;Node7 -->
<g id="edge22_Node000015_Node000007" class="edge">
<title>Node15&#45;&gt;Node7</title>
<g id="a_edge22_Node000015_Node000007"><a xlink:title=" ">
<path fill="none" stroke="#63b8ff" d="M757.51,-199.69C745.07,-174.4 726.66,-140.38 714,-132 688.47,-115.1 501.99,-96.44 401.22,-87.44"/>
<polygon fill="#63b8ff" stroke="#63b8ff" points="754.45,-201.41 761.96,-208.89 760.75,-198.36 754.45,-201.41"/>
</a>
</g>
</g>
<!-- Node15&#45;&gt;Node11 -->
<g id="edge21_Node000015_Node000011" class="edge">
<title>Node15&#45;&gt;Node11</title>
<g id="a_edge21_Node000015_Node000011"><a xlink:title=" ">
<path fill="none" stroke="#63b8ff" d="M771.13,-198.59C769.61,-177.34 764.1,-149.57 747,-132 717.03,-101.2 669.86,-88.89 631.33,-84.18"/>
<polygon fill="#63b8ff" stroke="#63b8ff" points="767.64,-198.89 771.6,-208.72 774.64,-198.57 767.64,-198.89"/>
</a>
</g>
</g>
<!-- Node16&#45;&gt;Node5 -->
<g id="edge28_Node000016_Node000005" class="edge">
<title>Node16&#45;&gt;Node5</title>
<g id="a_edge28_Node000016_Node000005"><a xlink:title=" ">
<path fill="none" stroke="#63b8ff" d="M409.47,-345.75C423.01,-336.13 438.86,-324.86 451.08,-316.16"/>
<polygon fill="#63b8ff" stroke="#63b8ff" points="407.1,-343.15 400.97,-351.8 411.15,-348.85 407.1,-343.15"/>
</a>
</g>
</g>
<!-- Node16&#45;&gt;Node6 -->
<g id="edge24_Node000016_Node000006" class="edge">
<title>Node16&#45;&gt;Node6</title>
<g id="a_edge24_Node000016_Node000006"><a xlink:title=" ">
<path fill="none" stroke="#63b8ff" d="M306.74,-360.48C261.34,-354.49 203.47,-342.01 158,-316 129.41,-299.65 104.97,-269.75 90.88,-250"/>
<polygon fill="#63b8ff" stroke="#63b8ff" points="306.46,-363.97 316.81,-361.73 307.32,-357.02 306.46,-363.97"/>
</a>
</g>
</g>
<!-- Node16&#45;&gt;Node9 -->
<g id="edge25_Node000016_Node000009" class="edge">
<title>Node16&#45;&gt;Node9</title>
<g id="a_edge25_Node000016_Node000009"><a xlink:title=" ">
<path fill="none" stroke="#63b8ff" d="M306.92,-355.92C259.96,-347.83 205.44,-334.73 191,-316 156.86,-271.72 179.72,-198.73 191.83,-167.93"/>
<polygon fill="#63b8ff" stroke="#63b8ff" points="306.37,-359.37 316.81,-357.57 307.52,-352.47 306.37,-359.37"/>
</a>
</g>
</g>
<!-- Node16&#45;&gt;Node10 -->
<g id="edge26_Node000016_Node000010" class="edge">
<title>Node16&#45;&gt;Node10</title>
<g id="a_edge26_Node000016_Node000010"><a xlink:title=" ">
<path fill="none" stroke="#63b8ff" d="M455.03,-351.45C506.54,-340.57 567.31,-325.93 575,-316 592.28,-293.7 566.4,-267.52 542.78,-250.06"/>
<polygon fill="#63b8ff" stroke="#63b8ff" points="454.28,-348.03 445.21,-353.5 455.71,-354.88 454.28,-348.03"/>
</a>
</g>
</g>
<!-- Node16&#45;&gt;Node12 -->
<g id="edge27_Node000016_Node000012" class="edge">
<title>Node16&#45;&gt;Node12</title>
<g id="a_edge27_Node000016_Node000012"><a xlink:title=" ">
<path fill="none" stroke="#63b8ff" d="M455.18,-350.23C513.85,-337.47 586.77,-320.85 592,-316 631.91,-278.99 629.72,-207.73 625.89,-173.21"/>
<polygon fill="#63b8ff" stroke="#63b8ff" points="454.18,-346.86 445.15,-352.4 455.67,-353.7 454.18,-346.86"/>
</a>
</g>
</g>
<!-- Node16&#45;&gt;Node13 -->
<g id="edge30_Node000016_Node000013" class="edge">
<title>Node16&#45;&gt;Node13</title>
<g id="a_edge30_Node000016_Node000013"><a xlink:title=" ">
<path fill="none" stroke="#63b8ff" d="M372.89,-342.13C370.49,-333.95 368.19,-324.67 367,-316 359.91,-264.39 375.63,-203.78 385.25,-173.23"/>
<polygon fill="#63b8ff" stroke="#63b8ff" points="369.58,-343.28 375.9,-351.78 376.26,-341.19 369.58,-343.28"/>
</a>
</g>
</g>
<!-- Node16&#45;&gt;Node14 -->
<g id="edge29_Node000016_Node000014" class="edge">
<title>Node16&#45;&gt;Node14</title>
<g id="a_edge29_Node000016_Node000014"><a xlink:title=" ">
<path fill="none" stroke="#63b8ff" d="M455.26,-351.84C513.08,-342.13 621.31,-325.85 697.76,-314.47"/>
<polygon fill="#63b8ff" stroke="#63b8ff" points="454.34,-348.44 445.07,-353.57 455.51,-355.34 454.34,-348.44"/>
</a>
</g>
</g>
<!-- Node16&#45;&gt;Node15 -->
<g id="edge31_Node000016_Node000015" class="edge">
<title>Node16&#45;&gt;Node15</title>
<g id="a_edge31_Node000016_Node000015"><a xlink:title=" ">
<path fill="none" stroke="#63b8ff" d="M455.04,-351.88C541.3,-336.76 568.83,-348.38 646,-316 667.49,-306.98 669.79,-299.2 689,-286 706.43,-274.02 726.04,-260.74 741.71,-250.18"/>
<polygon fill="#63b8ff" stroke="#63b8ff" points="454.3,-348.45 445.09,-353.69 455.56,-355.34 454.3,-348.45"/>
</a>
</g>
</g>
<!-- Node17 -->
<g id="Node000017" class="node">
<title>Node17</title>
<g id="a_Node000017"><a xlink:href="_to_bytes_8hpp.html" target="_top" xlink:title=" ">
<polygon fill="white" stroke="#666666" points="319.5,-316 200.5,-316 200.5,-286 319.5,-286 319.5,-316"/>
<text text-anchor="start" x="208.5" y="-304" font-family="Helvetica,sans-Serif" font-size="10.00">include/Hermes/Utils</text>
<text text-anchor="middle" x="260" y="-293" font-family="Helvetica,sans-Serif" font-size="10.00">/ToBytes.hpp</text>
</a>
</g>
</g>
<!-- Node16&#45;&gt;Node17 -->
<g id="edge32_Node000016_Node000017" class="edge">
<title>Node16&#45;&gt;Node17</title>
<g id="a_edge32_Node000016_Node000017"><a xlink:title=" ">
<path fill="none" stroke="#63b8ff" d="M345.53,-347.24C326.65,-337.25 303.82,-325.18 286.49,-316.01"/>
<polygon fill="#63b8ff" stroke="#63b8ff" points="343.97,-350.37 354.45,-351.95 347.24,-344.19 343.97,-350.37"/>
</a>
</g>
</g>
<!-- Node18&#45;&gt;Node14 -->
<g id="edge35_Node000018_Node000014" class="edge">
<title>Node18&#45;&gt;Node14</title>
<g id="a_edge35_Node000018_Node000014"><a xlink:title=" ">
<path fill="none" stroke="#63b8ff" d="M738.59,-411.28C747.54,-403.05 756.82,-392.94 763,-382 774.87,-361 779.35,-332.86 781.02,-316.16"/>
<polygon fill="#63b8ff" stroke="#63b8ff" points="736.12,-408.78 730.89,-417.99 740.73,-414.06 736.12,-408.78"/>
</a>
</g>
</g>
<!-- Node19 -->
<g id="Node000019" class="node">
<title>Node19</title>
<g id="a_Node000019"><a xlink:href="_network_8hpp.html" target="_top" xlink:title=" ">
<polygon fill="white" stroke="#666666" points="753.5,-382 628.5,-382 628.5,-352 753.5,-352 753.5,-382"/>
<text text-anchor="start" x="636.5" y="-370" font-family="Helvetica,sans-Serif" font-size="10.00">include/Hermes/_base</text>
<text text-anchor="middle" x="691" y="-359" font-family="Helvetica,sans-Serif" font-size="10.00">/Network.hpp</text>
</a>
</g>
</g>
<!-- Node18&#45;&gt;Node19 -->
<g id="edge36_Node000018_Node000019" class="edge">
<title>Node18&#45;&gt;Node19</title>
<g id="a_edge36_Node000018_Node000019"><a xlink:title=" ">
<path fill="none" stroke="#63b8ff" d="M704.16,-408.11C701.3,-399.38 698.15,-389.78 695.65,-382.16"/>
<polygon fill="#63b8ff" stroke="#63b8ff" points="700.9,-409.39 707.34,-417.8 707.55,-407.2 700.9,-409.39"/>
</a>
</g>
</g>
</g>
</svg>
