<?xml version="1.0" encoding="UTF-8" standalone="no"?>
<!DOCTYPE svg PUBLIC "-//W3C//DTD SVG 1.1//EN"
 "http://www.w3.org/Graphics/SVG/1.1/DTD/svg11.dtd">
<!-- Generated by graphviz version 2.43.0 (0)
 -->
<!-- Title: include/Hermes/_base/Network.hpp Pages: 1 -->
<svg width="2405pt" height="291pt"
 viewBox="0.00 0.00 2404.99 291.00" xmlns="http://www.w3.org/2000/svg" xmlns:xlink="http://www.w3.org/1999/xlink">
<g id="graph0" class="graph" transform="scale(1 1) rotate(0) translate(4 287)">
<title>include/Hermes/_base/Network.hpp</title>
<!-- Node1 -->
<g id="Node000001" class="node">
<title>Node1</title>
<g id="a_Node000001"><a xlink:title=" ">
<polygon fill="#999999" stroke="#666666" points="1368.49,-283 1243.49,-283 1243.49,-253 1368.49,-253 1368.49,-283"/>
<text text-anchor="start" x="1251.49" y="-271" font-family="Helvetica,sans-Serif" font-size="10.00">include/Hermes/_base</text>
<text text-anchor="middle" x="1305.99" y="-260" font-family="Helvetica,sans-Serif" font-size="10.00">/Network.hpp</text>
</a>
</g>
</g>
<!-- Node2 -->
<g id="Node000002" class="node">
<title>Node2</title>
<g id="a_Node000002"><a xlink:href="_credentials_8hpp.html" target="_top" xlink:title=" ">
<polygon fill="white" stroke="#666666" points="1388.99,-217 1222.99,-217 1222.99,-198 1388.99,-198 1388.99,-217"/>
<text text-anchor="middle" x="1305.99" y="-205" font-family="Helvetica,sans-Serif" font-size="10.00">Hermes/_base/Credentials.hpp</text>
</a>
</g>
</g>
<!-- Node1&#45;&gt;Node2 -->
<g id="edge1_Node000001_Node000002" class="edge">
<title>Node1&#45;&gt;Node2</title>
<g id="a_edge1_Node000001_Node000002"><a xlink:title=" ">
<path fill="none" stroke="#63b8ff" d="M1305.99,-252.84C1305.99,-245.21 1305.99,-235.7 1305.99,-227.45"/>
<polygon fill="#63b8ff" stroke="#63b8ff" points="1309.49,-227.27 1305.99,-217.27 1302.49,-227.27 1309.49,-227.27"/>
</a>
</g>
</g>
<!-- Node3 -->
<g id="Node000003" class="node">
<title>Node3</title>
<g id="a_Node000003"><a xlink:href="_os_api_8hpp.html" target="_top" xlink:title=" ">
<polygon fill="white" stroke="#666666" points="1137.99,-162 1019.99,-162 1019.99,-132 1137.99,-132 1137.99,-162"/>
<text text-anchor="start" x="1027.99" y="-150" font-family="Helvetica,sans-Serif" font-size="10.00">Hermes/_base/OsApi</text>
<text text-anchor="middle" x="1078.99" y="-139" font-family="Helvetica,sans-Serif" font-size="10.00">/OsApi.hpp</text>
</a>
</g>
</g>
<!-- Node2&#45;&gt;Node3 -->
<g id="edge2_Node000002_Node000003" class="edge">
<title>Node2&#45;&gt;Node3</title>
<g id="a_edge2_Node000002_Node000003"><a xlink:title=" ">
<path fill="none" stroke="#63b8ff" d="M1272.98,-197.99C1239.17,-189.28 1185.73,-175.51 1143.49,-164.62"/>
<polygon fill="#63b8ff" stroke="#63b8ff" points="1144.12,-161.17 1133.56,-162.06 1142.38,-167.95 1144.12,-161.17"/>
</a>
</g>
</g>
<!-- Node24 -->
<g id="Node000024" class="node">
<title>Node24</title>
<g id="a_Node000024"><a xlink:title=" ">
<polygon fill="#e0e0e0" stroke="#999999" points="1217.99,-156.5 1155.99,-156.5 1155.99,-137.5 1217.99,-137.5 1217.99,-156.5"/>
<text text-anchor="middle" x="1186.99" y="-144.5" font-family="Helvetica,sans-Serif" font-size="10.00">expected</text>
</a>
</g>
</g>
<!-- Node2&#45;&gt;Node24 -->
<g id="edge29_Node000002_Node000024" class="edge">
<title>Node2&#45;&gt;Node24</title>
<g id="a_edge29_Node000002_Node000024"><a xlink:title=" ">
<path fill="none" stroke="#63b8ff" d="M1288.69,-197.99C1268.95,-188.29 1236.44,-172.31 1213.5,-161.03"/>
<polygon fill="#63b8ff" stroke="#63b8ff" points="1214.83,-157.79 1204.32,-156.52 1211.75,-164.07 1214.83,-157.79"/>
</a>
</g>
</g>
<!-- Node25 -->
<g id="Node000025" class="node">
<title>Node25</title>
<g id="a_Node000025"><a xlink:title=" ">
<polygon fill="#e0e0e0" stroke="#999999" points="1303.99,-156.5 1235.99,-156.5 1235.99,-137.5 1303.99,-137.5 1303.99,-156.5"/>
<text text-anchor="middle" x="1269.99" y="-144.5" font-family="Helvetica,sans-Serif" font-size="10.00">filesystem</text>
</a>
</g>
</g>
<!-- Node2&#45;&gt;Node25 -->
<g id="edge30_Node000002_Node000025" class="edge">
<title>Node2&#45;&gt;Node25</title>
<g id="a_edge30_Node000002_Node000025"><a xlink:title=" ">
<path fill="none" stroke="#63b8ff" d="M1300.68,-197.87C1295.41,-189.31 1287.2,-175.97 1280.6,-165.24"/>
<polygon fill="#63b8ff" stroke="#63b8ff" points="1283.55,-163.35 1275.32,-156.67 1277.58,-167.02 1283.55,-163.35"/>
</a>
</g>
</g>
<!-- Node26 -->
<g id="Node000026" class="node">
<title>Node26</title>
<g id="a_Node000026"><a xlink:title=" ">
<polygon fill="#e0e0e0" stroke="#999999" points="1361.99,-156.5 1321.99,-156.5 1321.99,-137.5 1361.99,-137.5 1361.99,-156.5"/>
<text text-anchor="middle" x="1341.99" y="-144.5" font-family="Helvetica,sans-Serif" font-size="10.00">span</text>
</a>
</g>
</g>
<!-- Node2&#45;&gt;Node26 -->
<g id="edge31_Node000002_Node000026" class="edge">
<title>Node2&#45;&gt;Node26</title>
<g id="a_edge31_Node000002_Node000026"><a xlink:title=" ">
<path fill="none" stroke="#63b8ff" d="M1311.3,-197.87C1316.57,-189.31 1324.78,-175.97 1331.38,-165.24"/>
<polygon fill="#63b8ff" stroke="#63b8ff" points="1334.4,-167.02 1336.66,-156.67 1328.44,-163.35 1334.4,-167.02"/>
</a>
</g>
</g>
<!-- Node27 -->
<g id="Node000027" class="node">
<title>Node27</title>
<g id="a_Node000027"><a xlink:title=" ">
<polygon fill="#e0e0e0" stroke="#999999" points="1433.49,-156.5 1380.49,-156.5 1380.49,-137.5 1433.49,-137.5 1433.49,-156.5"/>
<text text-anchor="middle" x="1406.99" y="-144.5" font-family="Helvetica,sans-Serif" font-size="10.00">cstddef</text>
</a>
</g>
</g>
<!-- Node2&#45;&gt;Node27 -->
<g id="edge32_Node000002_Node000027" class="edge">
<title>Node2&#45;&gt;Node27</title>
<g id="a_edge32_Node000002_Node000027"><a xlink:title=" ">
<path fill="none" stroke="#63b8ff" d="M1320.89,-197.87C1337.3,-188.36 1363.92,-172.95 1383.22,-161.77"/>
<polygon fill="#63b8ff" stroke="#63b8ff" points="1385.13,-164.71 1392.03,-156.67 1381.62,-158.65 1385.13,-164.71"/>
</a>
</g>
</g>
<!-- Node28 -->
<g id="Node000028" class="node">
<title>Node28</title>
<g id="a_Node000028"><a xlink:title=" ">
<polygon fill="#e0e0e0" stroke="#999999" points="1509.99,-156.5 1451.99,-156.5 1451.99,-137.5 1509.99,-137.5 1509.99,-156.5"/>
<text text-anchor="middle" x="1480.99" y="-144.5" font-family="Helvetica,sans-Serif" font-size="10.00">memory</text>
</a>
</g>
</g>
<!-- Node2&#45;&gt;Node28 -->
<g id="edge33_Node000002_Node000028" class="edge">
<title>Node2&#45;&gt;Node28</title>
<g id="a_edge33_Node000002_Node000028"><a xlink:title=" ">
<path fill="none" stroke="#63b8ff" d="M1332.9,-197.94C1360.39,-189.14 1404.28,-174.94 1441.99,-162 1443.88,-161.35 1445.82,-160.68 1447.77,-160"/>
<polygon fill="#63b8ff" stroke="#63b8ff" points="1449.26,-163.18 1457.52,-156.55 1446.92,-156.58 1449.26,-163.18"/>
</a>
</g>
</g>
<!-- Node4 -->
<g id="Node000004" class="node">
<title>Node4</title>
<g id="a_Node000004"><a xlink:title=" ">
<polygon fill="#e0e0e0" stroke="#999999" points="348.49,-19 271.49,-19 271.49,0 348.49,0 348.49,-19"/>
<text text-anchor="middle" x="309.99" y="-7" font-family="Helvetica,sans-Serif" font-size="10.00">sys/socket.h</text>
</a>
</g>
</g>
<!-- Node3&#45;&gt;Node4 -->
<g id="edge3_Node000003_Node000004" class="edge">
<title>Node3&#45;&gt;Node4</title>
<g id="a_edge3_Node000003_Node000004"><a xlink:title=" ">
<path fill="none" stroke="#63b8ff" d="M1019.81,-145.45C801.18,-143.14 49.88,-132.56 14.99,-96 -58.14,-19.35 159.92,-10.18 261.24,-9.91"/>
<polygon fill="#63b8ff" stroke="#63b8ff" points="261.25,-13.41 271.25,-9.91 261.25,-6.41 261.25,-13.41"/>
</a>
</g>
</g>
<!-- Node5 -->
<g id="Node000005" class="node">
<title>Node5</title>
<g id="a_Node000005"><a xlink:title=" ">
<polygon fill="#e0e0e0" stroke="#999999" points="843.99,-19 771.99,-19 771.99,0 843.99,0 843.99,-19"/>
<text text-anchor="middle" x="807.99" y="-7" font-family="Helvetica,sans-Serif" font-size="10.00">netinet/in.h</text>
</a>
</g>
</g>
<!-- Node3&#45;&gt;Node5 -->
<g id="edge4_Node000003_Node000005" class="edge">
<title>Node3&#45;&gt;Node5</title>
<g id="a_edge4_Node000003_Node000005"><a xlink:title=" ">
<path fill="none" stroke="#63b8ff" d="M1019.87,-145.43C937.7,-143.24 795.37,-133.9 762.99,-96 751.16,-82.14 755.97,-71.82 762.99,-55 767.85,-43.36 777.41,-33.2 786.47,-25.55"/>
<polygon fill="#63b8ff" stroke="#63b8ff" points="788.79,-28.17 794.5,-19.25 784.47,-22.67 788.79,-28.17"/>
</a>
</g>
</g>
<!-- Node6 -->
<g id="Node000006" class="node">
<title>Node6</title>
<g id="a_Node000006"><a xlink:title=" ">
<polygon fill="#e0e0e0" stroke="#999999" points="1050.49,-85 981.49,-85 981.49,-66 1050.49,-66 1050.49,-85"/>
<text text-anchor="middle" x="1015.99" y="-73" font-family="Helvetica,sans-Serif" font-size="10.00">arpa/inet.h</text>
</a>
</g>
</g>
<!-- Node3&#45;&gt;Node6 -->
<g id="edge5_Node000003_Node000006" class="edge">
<title>Node3&#45;&gt;Node6</title>
<g id="a_edge5_Node000003_Node000006"><a xlink:title=" ">
<path fill="none" stroke="#63b8ff" d="M1066.24,-131.94C1055.96,-120.59 1041.48,-104.62 1030.71,-92.74"/>
<polygon fill="#63b8ff" stroke="#63b8ff" points="1033.25,-90.33 1023.94,-85.27 1028.06,-95.03 1033.25,-90.33"/>
</a>
</g>
</g>
<!-- Node7 -->
<g id="Node000007" class="node">
<title>Node7</title>
<g id="a_Node000007"><a xlink:title=" ">
<polygon fill="#e0e0e0" stroke="#999999" points="1155.49,-19 1102.49,-19 1102.49,0 1155.49,0 1155.49,-19"/>
<text text-anchor="middle" x="1128.99" y="-7" font-family="Helvetica,sans-Serif" font-size="10.00">netdb.h</text>
</a>
</g>
</g>
<!-- Node3&#45;&gt;Node7 -->
<g id="edge6_Node000003_Node000007" class="edge">
<title>Node3&#45;&gt;Node7</title>
<g id="a_edge6_Node000003_Node000007"><a xlink:title=" ">
<path fill="none" stroke="#63b8ff" d="M1080.17,-131.91C1082.09,-113.56 1086.87,-80.79 1097.99,-55 1102.27,-45.07 1108.95,-35.1 1115.01,-27.12"/>
<polygon fill="#63b8ff" stroke="#63b8ff" points="1117.93,-29.07 1121.43,-19.07 1112.46,-24.7 1117.93,-29.07"/>
</a>
</g>
</g>
<!-- Node8 -->
<g id="Node000008" class="node">
<title>Node8</title>
<g id="a_Node000008"><a xlink:title=" ">
<polygon fill="#e0e0e0" stroke="#999999" points="1324.99,-85 1268.99,-85 1268.99,-66 1324.99,-66 1324.99,-85"/>
<text text-anchor="middle" x="1296.99" y="-73" font-family="Helvetica,sans-Serif" font-size="10.00">unistd.h</text>
</a>
</g>
</g>
<!-- Node3&#45;&gt;Node8 -->
<g id="edge7_Node000003_Node000008" class="edge">
<title>Node3&#45;&gt;Node8</title>
<g id="a_edge7_Node000003_Node000008"><a xlink:title=" ">
<path fill="none" stroke="#63b8ff" d="M1138.32,-133.03C1174.18,-124.36 1220.44,-111.67 1259.99,-96 1264.44,-94.24 1269.05,-92.09 1273.44,-89.87"/>
<polygon fill="#63b8ff" stroke="#63b8ff" points="1275.38,-92.81 1282.57,-85.03 1272.1,-86.62 1275.38,-92.81"/>
</a>
</g>
</g>
<!-- Node9 -->
<g id="Node000009" class="node">
<title>Node9</title>
<g id="a_Node000009"><a xlink:href="_types_8hpp.html" target="_top" xlink:title=" ">
<polygon fill="white" stroke="#666666" points="1460.99,-90.5 1342.99,-90.5 1342.99,-60.5 1460.99,-60.5 1460.99,-90.5"/>
<text text-anchor="start" x="1350.99" y="-78.5" font-family="Helvetica,sans-Serif" font-size="10.00">Hermes/_base/OsApi</text>
<text text-anchor="middle" x="1401.99" y="-67.5" font-family="Helvetica,sans-Serif" font-size="10.00">/Types.hpp</text>
</a>
</g>
</g>
<!-- Node3&#45;&gt;Node9 -->
<g id="edge8_Node000003_Node000009" class="edge">
<title>Node3&#45;&gt;Node9</title>
<g id="a_edge8_Node000003_Node000009"><a xlink:title=" ">
<path fill="none" stroke="#63b8ff" d="M1138.32,-133.74C1141.25,-133.15 1144.15,-132.57 1146.99,-132 1230,-115.47 1251.67,-115.68 1333.99,-96 1337.61,-95.14 1341.32,-94.2 1345.06,-93.23"/>
<polygon fill="#63b8ff" stroke="#63b8ff" points="1346.19,-96.55 1354.95,-90.58 1344.38,-89.79 1346.19,-96.55"/>
</a>
</g>
</g>
<!-- Node11 -->
<g id="Node000011" class="node">
<title>Node11</title>
<g id="a_Node000011"><a xlink:href="_conversion_and_literals_8hpp.html" target="_top" xlink:title=" ">
<polygon fill="white" stroke="#666666" points="1628.99,-90.5 1478.99,-90.5 1478.99,-60.5 1628.99,-60.5 1628.99,-90.5"/>
<text text-anchor="start" x="1486.99" y="-78.5" font-family="Helvetica,sans-Serif" font-size="10.00">Hermes/_base/OsApi</text>
<text text-anchor="middle" x="1553.99" y="-67.5" font-family="Helvetica,sans-Serif" font-size="10.00">/ConversionAndLiterals.hpp</text>
</a>
</g>
</g>
<!-- Node3&#45;&gt;Node11 -->
<g id="edge10_Node000003_Node000011" class="edge">
<title>Node3&#45;&gt;Node11</title>
<g id="a_edge10_Node000003_Node000011"><a xlink:title=" ">
<path fill="none" stroke="#63b8ff" d="M1138.27,-133.46C1141.21,-132.94 1144.13,-132.45 1146.99,-132 1289.66,-109.41 1327.62,-120.37 1469.99,-96 1475.76,-95.01 1481.72,-93.87 1487.69,-92.65"/>
<polygon fill="#63b8ff" stroke="#63b8ff" points="1488.64,-96.02 1497.69,-90.52 1487.19,-89.18 1488.64,-96.02"/>
</a>
</g>
</g>
<!-- Node13 -->
<g id="Node000013" class="node">
<title>Node13</title>
<g id="a_Node000013"><a xlink:href="_macros_8hpp.html" target="_top" xlink:title=" ">
<polygon fill="white" stroke="#666666" points="715.99,-90.5 597.99,-90.5 597.99,-60.5 715.99,-60.5 715.99,-90.5"/>
<text text-anchor="start" x="605.99" y="-78.5" font-family="Helvetica,sans-Serif" font-size="10.00">Hermes/_base/OsApi</text>
<text text-anchor="middle" x="656.99" y="-67.5" font-family="Helvetica,sans-Serif" font-size="10.00">/Macros.hpp</text>
</a>
</g>
</g>
<!-- Node3&#45;&gt;Node13 -->
<g id="edge12_Node000003_Node000013" class="edge">
<title>Node3&#45;&gt;Node13</title>
<g id="a_edge12_Node000003_Node000013"><a xlink:title=" ">
<path fill="none" stroke="#63b8ff" d="M1019.96,-139.71C950.26,-131.78 831.04,-116.66 729.99,-96 725.53,-95.09 720.94,-94.07 716.34,-92.98"/>
<polygon fill="#63b8ff" stroke="#63b8ff" points="716.83,-89.5 706.28,-90.52 715.16,-96.29 716.83,-89.5"/>
</a>
</g>
</g>
<!-- Node15 -->
<g id="Node000015" class="node">
<title>Node15</title>
<g id="a_Node000015"><a xlink:href="_address_family_enum_8hpp.html" target="_top" xlink:title=" ">
<polygon fill="white" stroke="#666666" points="199.99,-90.5 23.99,-90.5 23.99,-60.5 199.99,-60.5 199.99,-90.5"/>
<text text-anchor="start" x="31.99" y="-78.5" font-family="Helvetica,sans-Serif" font-size="10.00">Hermes/_base/OsApi</text>
<text text-anchor="middle" x="111.99" y="-67.5" font-family="Helvetica,sans-Serif" font-size="10.00">/Enums/AddressFamilyEnum.hpp</text>
</a>
</g>
</g>
<!-- Node3&#45;&gt;Node15 -->
<g id="edge15_Node000003_Node000015" class="edge">
<title>Node3&#45;&gt;Node15</title>
<g id="a_edge15_Node000003_Node000015"><a xlink:title=" ">
<path fill="none" stroke="#63b8ff" d="M1019.84,-145.52C878.75,-143.73 511.6,-135.34 207.99,-96 200.34,-95.01 192.39,-93.76 184.48,-92.37"/>
<polygon fill="#63b8ff" stroke="#63b8ff" points="184.98,-88.9 174.52,-90.54 183.72,-95.79 184.98,-88.9"/>
</a>
</g>
</g>
<!-- Node16 -->
<g id="Node000016" class="node">
<title>Node16</title>
<g id="a_Node000016"><a xlink:href="_protocol_base_type_enum_8hpp.html" target="_top" xlink:title=" ">
<polygon fill="white" stroke="#666666" points="963.49,-90.5 772.49,-90.5 772.49,-60.5 963.49,-60.5 963.49,-90.5"/>
<text text-anchor="start" x="780.49" y="-78.5" font-family="Helvetica,sans-Serif" font-size="10.00">Hermes/_base/OsApi</text>
<text text-anchor="middle" x="867.99" y="-67.5" font-family="Helvetica,sans-Serif" font-size="10.00">/Enums/ProtocolBaseTypeEnum.hpp</text>
</a>
</g>
</g>
<!-- Node3&#45;&gt;Node16 -->
<g id="edge17_Node000003_Node000016" class="edge">
<title>Node3&#45;&gt;Node16</title>
<g id="a_edge17_Node000003_Node000016"><a xlink:title=" ">
<path fill="none" stroke="#63b8ff" d="M1036.29,-131.94C1002.83,-120.91 956.12,-105.53 920.39,-93.76"/>
<polygon fill="#63b8ff" stroke="#63b8ff" points="921.22,-90.35 910.63,-90.54 919.03,-97 921.22,-90.35"/>
</a>
</g>
</g>
<!-- Node17 -->
<g id="Node000017" class="node">
<title>Node17</title>
<g id="a_Node000017"><a xlink:href="_socket_shutdown_enum_8hpp.html" target="_top" xlink:title=" ">
<polygon fill="white" stroke="#666666" points="402.49,-90.5 217.49,-90.5 217.49,-60.5 402.49,-60.5 402.49,-90.5"/>
<text text-anchor="start" x="225.49" y="-78.5" font-family="Helvetica,sans-Serif" font-size="10.00">Hermes/_base/OsApi</text>
<text text-anchor="middle" x="309.99" y="-67.5" font-family="Helvetica,sans-Serif" font-size="10.00">/Enums/SocketShutdownEnum.hpp</text>
</a>
</g>
</g>
<!-- Node3&#45;&gt;Node17 -->
<g id="edge19_Node000003_Node000017" class="edge">
<title>Node3&#45;&gt;Node17</title>
<g id="a_edge19_Node000003_Node000017"><a xlink:title=" ">
<path fill="none" stroke="#63b8ff" d="M1019.78,-143.88C902.93,-139.18 634.62,-125.86 410.99,-96 403.13,-94.95 394.95,-93.68 386.8,-92.29"/>
<polygon fill="#63b8ff" stroke="#63b8ff" points="387.36,-88.83 376.91,-90.55 386.15,-95.73 387.36,-88.83"/>
</a>
</g>
</g>
<!-- Node18 -->
<g id="Node000018" class="node">
<title>Node18</title>
<g id="a_Node000018"><a xlink:href="_socket_type_enum_8hpp.html" target="_top" xlink:title=" ">
<polygon fill="white" stroke="#666666" points="579.49,-90.5 420.49,-90.5 420.49,-60.5 579.49,-60.5 579.49,-90.5"/>
<text text-anchor="start" x="428.49" y="-78.5" font-family="Helvetica,sans-Serif" font-size="10.00">Hermes/_base/OsApi</text>
<text text-anchor="middle" x="499.99" y="-67.5" font-family="Helvetica,sans-Serif" font-size="10.00">/Enums/SocketTypeEnum.hpp</text>
</a>
</g>
</g>
<!-- Node3&#45;&gt;Node18 -->
<g id="edge21_Node000003_Node000018" class="edge">
<title>Node3&#45;&gt;Node18</title>
<g id="a_edge21_Node000003_Node000018"><a xlink:title=" ">
<path fill="none" stroke="#63b8ff" d="M1019.88,-142.15C927.51,-135.65 743.51,-120.73 588.99,-96 582.74,-95 576.26,-93.83 569.79,-92.58"/>
<polygon fill="#63b8ff" stroke="#63b8ff" points="570.15,-89.08 559.65,-90.55 568.77,-95.95 570.15,-89.08"/>
</a>
</g>
</g>
<!-- Node19 -->
<g id="Node000019" class="node">
<title>Node19</title>
<g id="a_Node000019"><a xlink:href="_linux_2_encrypt_status_enum_8hpp.html" target="_top" xlink:title=" ">
<polygon fill="white" stroke="#666666" points="1798.99,-96 1646.99,-96 1646.99,-55 1798.99,-55 1798.99,-96"/>
<text text-anchor="start" x="1654.99" y="-84" font-family="Helvetica,sans-Serif" font-size="10.00">Hermes/_base/OsApi</text>
<text text-anchor="start" x="1654.99" y="-73" font-family="Helvetica,sans-Serif" font-size="10.00">/Enums/Linux/EncryptStatus</text>
<text text-anchor="middle" x="1722.99" y="-62" font-family="Helvetica,sans-Serif" font-size="10.00">Enum.hpp</text>
</a>
</g>
</g>
<!-- Node3&#45;&gt;Node19 -->
<g id="edge23_Node000003_Node000019" class="edge">
<title>Node3&#45;&gt;Node19</title>
<g id="a_edge23_Node000003_Node000019"><a xlink:title=" ">
<path fill="none" stroke="#63b8ff" d="M1138.25,-133.33C1141.2,-132.84 1144.13,-132.4 1146.99,-132 1360.43,-102.33 1419.83,-127.76 1636.54,-96.09"/>
<polygon fill="#63b8ff" stroke="#63b8ff" points="1637.26,-99.52 1646.64,-94.59 1636.23,-92.6 1637.26,-99.52"/>
</a>
</g>
</g>
<!-- Node20 -->
<g id="Node000020" class="node">
<title>Node20</title>
<g id="a_Node000020"><a xlink:href="_name_info_flags_8hpp.html" target="_top" xlink:title=" ">
<polygon fill="white" stroke="#666666" points="1250.99,-90.5 1106.99,-90.5 1106.99,-60.5 1250.99,-60.5 1250.99,-90.5"/>
<text text-anchor="start" x="1114.99" y="-78.5" font-family="Helvetica,sans-Serif" font-size="10.00">Hermes/_base/OsApi</text>
<text text-anchor="middle" x="1178.99" y="-67.5" font-family="Helvetica,sans-Serif" font-size="10.00">/Flags/NameInfoFlags.hpp</text>
</a>
</g>
</g>
<!-- Node3&#45;&gt;Node20 -->
<g id="edge24_Node000003_Node000020" class="edge">
<title>Node3&#45;&gt;Node20</title>
<g id="a_edge24_Node000003_Node000020"><a xlink:title=" ">
<path fill="none" stroke="#63b8ff" d="M1099.23,-131.94C1113.87,-121.76 1133.86,-107.87 1150.16,-96.54"/>
<polygon fill="#63b8ff" stroke="#63b8ff" points="1152.57,-99.12 1158.78,-90.54 1148.58,-93.38 1152.57,-99.12"/>
</a>
</g>
</g>
<!-- Node21 -->
<g id="Node000021" class="node">
<title>Node21</title>
<g id="a_Node000021"><a xlink:href="_linux_2_credential_flags_8hpp.html" target="_top" xlink:title=" ">
<polygon fill="white" stroke="#666666" points="1992.99,-90.5 1816.99,-90.5 1816.99,-60.5 1992.99,-60.5 1992.99,-90.5"/>
<text text-anchor="start" x="1824.99" y="-78.5" font-family="Helvetica,sans-Serif" font-size="10.00">Hermes/_base/OsApi</text>
<text text-anchor="middle" x="1904.99" y="-67.5" font-family="Helvetica,sans-Serif" font-size="10.00">/Flags/Linux/CredentialFlags.hpp</text>
</a>
</g>
</g>
<!-- Node3&#45;&gt;Node21 -->
<g id="edge26_Node000003_Node000021" class="edge">
<title>Node3&#45;&gt;Node21</title>
<g id="a_edge26_Node000003_Node000021"><a xlink:title=" ">
<path fill="none" stroke="#63b8ff" d="M1138.24,-133.26C1141.19,-132.8 1144.12,-132.37 1146.99,-132 1438.77,-94.23 1516.12,-133.09 1807.99,-96 1815.87,-95 1824.06,-93.72 1832.2,-92.31"/>
<polygon fill="#63b8ff" stroke="#63b8ff" points="1832.86,-95.74 1842.07,-90.52 1831.61,-88.86 1832.86,-95.74"/>
</a>
</g>
</g>
<!-- Node22 -->
<g id="Node000022" class="node">
<title>Node22</title>
<g id="a_Node000022"><a xlink:href="_linux_2_supported_protocols_flags_8hpp.html" target="_top" xlink:title=" ">
<polygon fill="white" stroke="#666666" points="2184.49,-96 2011.49,-96 2011.49,-55 2184.49,-55 2184.49,-96"/>
<text text-anchor="start" x="2019.49" y="-84" font-family="Helvetica,sans-Serif" font-size="10.00">Hermes/_base/OsApi</text>
<text text-anchor="start" x="2019.49" y="-73" font-family="Helvetica,sans-Serif" font-size="10.00">/Flags/Linux/SupportedProtocols</text>
<text text-anchor="middle" x="2097.99" y="-62" font-family="Helvetica,sans-Serif" font-size="10.00">Flags.hpp</text>
</a>
</g>
</g>
<!-- Node3&#45;&gt;Node22 -->
<g id="edge27_Node000003_Node000022" class="edge">
<title>Node3&#45;&gt;Node22</title>
<g id="a_edge27_Node000003_Node000022"><a xlink:title=" ">
<path fill="none" stroke="#63b8ff" d="M1138.24,-133.22C1141.19,-132.76 1144.12,-132.35 1146.99,-132 1521.16,-85.91 1622.67,-141.01 2001.35,-95.95"/>
<polygon fill="#63b8ff" stroke="#63b8ff" points="2001.98,-99.4 2011.49,-94.73 2001.14,-92.45 2001.98,-99.4"/>
</a>
</g>
</g>
<!-- Node23 -->
<g id="Node000023" class="node">
<title>Node23</title>
<g id="a_Node000023"><a xlink:href="_linux_2_s_channel_cred_flags_8hpp.html" target="_top" xlink:title=" ">
<polygon fill="white" stroke="#666666" points="2396.99,-90.5 2202.99,-90.5 2202.99,-60.5 2396.99,-60.5 2396.99,-90.5"/>
<text text-anchor="start" x="2210.99" y="-78.5" font-family="Helvetica,sans-Serif" font-size="10.00">Hermes/_base/OsApi</text>
<text text-anchor="middle" x="2299.99" y="-67.5" font-family="Helvetica,sans-Serif" font-size="10.00">/Flags/Linux/SChannelCredFlags.hpp</text>
</a>
</g>
</g>
<!-- Node3&#45;&gt;Node23 -->
<g id="edge28_Node000003_Node000023" class="edge">
<title>Node3&#45;&gt;Node23</title>
<g id="a_edge28_Node000003_Node000023"><a xlink:title=" ">
<path fill="none" stroke="#63b8ff" d="M1138.23,-133.19C1141.19,-132.74 1144.12,-132.34 1146.99,-132 1609.32,-76.86 1731.1,-146.26 2193.99,-96 2203.08,-95.01 2212.55,-93.69 2221.94,-92.2"/>
<polygon fill="#63b8ff" stroke="#63b8ff" points="2222.77,-95.61 2232.07,-90.53 2221.63,-88.71 2222.77,-95.61"/>
</a>
</g>
</g>
<!-- Node10 -->
<g id="Node000010" class="node">
<title>Node10</title>
<g id="a_Node000010"><a xlink:title=" ">
<polygon fill="#e0e0e0" stroke="#999999" points="1438.99,-19 1364.99,-19 1364.99,0 1438.99,0 1438.99,-19"/>
<text text-anchor="middle" x="1401.99" y="-7" font-family="Helvetica,sans-Serif" font-size="10.00">WinSock2.h</text>
</a>
</g>
</g>
<!-- Node9&#45;&gt;Node10 -->
<g id="edge9_Node000009_Node000010" class="edge">
<title>Node9&#45;&gt;Node10</title>
<g id="a_edge9_Node000009_Node000010"><a xlink:title=" ">
<path fill="none" stroke="#63b8ff" d="M1401.99,-60.3C1401.99,-51.2 1401.99,-39.29 1401.99,-29.4"/>
<polygon fill="#63b8ff" stroke="#63b8ff" points="1405.49,-29.34 1401.99,-19.34 1398.49,-29.34 1405.49,-29.34"/>
</a>
</g>
</g>
<!-- Node12 -->
<g id="Node000012" class="node">
<title>Node12</title>
<g id="a_Node000012"><a xlink:title=" ">
<polygon fill="#e0e0e0" stroke="#999999" points="1578.99,-19 1528.99,-19 1528.99,0 1578.99,0 1578.99,-19"/>
<text text-anchor="middle" x="1553.99" y="-7" font-family="Helvetica,sans-Serif" font-size="10.00">cstdint</text>
</a>
</g>
</g>
<!-- Node11&#45;&gt;Node12 -->
<g id="edge11_Node000011_Node000012" class="edge">
<title>Node11&#45;&gt;Node12</title>
<g id="a_edge11_Node000011_Node000012"><a xlink:title=" ">
<path fill="none" stroke="#63b8ff" d="M1553.99,-60.3C1553.99,-51.2 1553.99,-39.29 1553.99,-29.4"/>
<polygon fill="#63b8ff" stroke="#63b8ff" points="1557.49,-29.34 1553.99,-19.34 1550.49,-29.34 1557.49,-29.34"/>
</a>
</g>
</g>
<!-- Node13&#45;&gt;Node4 -->
<g id="edge14_Node000013_Node000004" class="edge">
<title>Node13&#45;&gt;Node4</title>
<g id="a_edge14_Node000013_Node000004"><a xlink:title=" ">
<path fill="none" stroke="#63b8ff" d="M610.04,-60.44C602.69,-58.47 595.16,-56.58 587.99,-55 508.46,-37.46 414.68,-23.9 358.9,-16.57"/>
<polygon fill="#63b8ff" stroke="#63b8ff" points="359.3,-13.09 348.94,-15.27 358.4,-20.04 359.3,-13.09"/>
</a>
</g>
</g>
<!-- Node14 -->
<g id="Node000014" class="node">
<title>Node14</title>
<g id="a_Node000014"><a xlink:title=" ">
<polygon fill="#e0e0e0" stroke="#999999" points="693.49,-19 620.49,-19 620.49,0 693.49,0 693.49,-19"/>
<text text-anchor="middle" x="656.99" y="-7" font-family="Helvetica,sans-Serif" font-size="10.00">string_view</text>
</a>
</g>
</g>
<!-- Node13&#45;&gt;Node14 -->
<g id="edge13_Node000013_Node000014" class="edge">
<title>Node13&#45;&gt;Node14</title>
<g id="a_edge13_Node000013_Node000014"><a xlink:title=" ">
<path fill="none" stroke="#63b8ff" d="M656.99,-60.3C656.99,-51.2 656.99,-39.29 656.99,-29.4"/>
<polygon fill="#63b8ff" stroke="#63b8ff" points="660.49,-29.34 656.99,-19.34 653.49,-29.34 660.49,-29.34"/>
</a>
</g>
</g>
<!-- Node15&#45;&gt;Node4 -->
<g id="edge16_Node000015_Node000004" class="edge">
<title>Node15&#45;&gt;Node4</title>
<g id="a_edge16_Node000015_Node000004"><a xlink:title=" ">
<path fill="none" stroke="#63b8ff" d="M155.44,-60.45C190.93,-48.98 240.5,-32.96 273.85,-22.18"/>
<polygon fill="#63b8ff" stroke="#63b8ff" points="275.2,-25.42 283.64,-19.02 273.05,-18.76 275.2,-25.42"/>
</a>
</g>
</g>
<!-- Node16&#45;&gt;Node5 -->
<g id="edge18_Node000016_Node000005" class="edge">
<title>Node16&#45;&gt;Node5</title>
<g id="a_edge18_Node000016_Node000005"><a xlink:title=" ">
<path fill="none" stroke="#63b8ff" d="M854.67,-60.3C845.41,-50.42 833.04,-37.22 823.36,-26.89"/>
<polygon fill="#63b8ff" stroke="#63b8ff" points="825.68,-24.25 816.28,-19.34 820.57,-29.03 825.68,-24.25"/>
</a>
</g>
</g>
<!-- Node17&#45;&gt;Node4 -->
<g id="edge20_Node000017_Node000004" class="edge">
<title>Node17&#45;&gt;Node4</title>
<g id="a_edge20_Node000017_Node000004"><a xlink:title=" ">
<path fill="none" stroke="#63b8ff" d="M309.99,-60.3C309.99,-51.2 309.99,-39.29 309.99,-29.4"/>
<polygon fill="#63b8ff" stroke="#63b8ff" points="313.49,-29.34 309.99,-19.34 306.49,-29.34 313.49,-29.34"/>
</a>
</g>
</g>
<!-- Node18&#45;&gt;Node4 -->
<g id="edge22_Node000018_Node000004" class="edge">
<title>Node18&#45;&gt;Node4</title>
<g id="a_edge22_Node000018_Node000004"><a xlink:title=" ">
<path fill="none" stroke="#63b8ff" d="M458.29,-60.45C424.39,-49.03 377.08,-33.1 345.09,-22.32"/>
<polygon fill="#63b8ff" stroke="#63b8ff" points="345.87,-18.89 335.28,-19.02 343.64,-25.53 345.87,-18.89"/>
</a>
</g>
</g>
<!-- Node20&#45;&gt;Node7 -->
<g id="edge25_Node000020_Node000007" class="edge">
<title>Node20&#45;&gt;Node7</title>
<g id="a_edge25_Node000020_Node000007"><a xlink:title=" ">
<path fill="none" stroke="#63b8ff" d="M1167.89,-60.3C1160.33,-50.61 1150.27,-37.74 1142.28,-27.51"/>
<polygon fill="#63b8ff" stroke="#63b8ff" points="1144.82,-25.07 1135.9,-19.34 1139.3,-29.38 1144.82,-25.07"/>
</a>
</g>
</g>
</g>
</svg>
