<?xml version="1.0" encoding="UTF-8" standalone="no"?>
<!DOCTYPE svg PUBLIC "-//W3C//DTD SVG 1.1//EN"
 "http://www.w3.org/Graphics/SVG/1.1/DTD/svg11.dtd">
<!-- Generated by graphviz version 2.43.0 (0)
 -->
<!-- Title: include/Hermes/_base/Network.hpp Pages: 1 -->
<svg width="2261pt" height="291pt"
 viewBox="0.00 0.00 2260.62 291.00" xmlns="http://www.w3.org/2000/svg" xmlns:xlink="http://www.w3.org/1999/xlink">
<g id="graph0" class="graph" transform="scale(1 1) rotate(0) translate(4 287)">
<title>include/Hermes/_base/Network.hpp</title>
<!-- Node1 -->
<g id="Node000001" class="node">
<title>Node1</title>
<g id="a_Node000001"><a xlink:title=" ">
<polygon fill="#999999" stroke="#666666" points="1262.12,-283 1137.12,-283 1137.12,-253 1262.12,-253 1262.12,-283"/>
<text text-anchor="start" x="1145.12" y="-271" font-family="Helvetica,sans-Serif" font-size="10.00">include/Hermes/_base</text>
<text text-anchor="middle" x="1199.62" y="-260" font-family="Helvetica,sans-Serif" font-size="10.00">/Network.hpp</text>
</a>
</g>
</g>
<!-- Node2 -->
<g id="Node000002" class="node">
<title>Node2</title>
<g id="a_Node000002"><a xlink:href="_credentials_8hpp.html" target="_top" xlink:title=" ">
<polygon fill="white" stroke="#666666" points="1282.62,-217 1116.62,-217 1116.62,-198 1282.62,-198 1282.62,-217"/>
<text text-anchor="middle" x="1199.62" y="-205" font-family="Helvetica,sans-Serif" font-size="10.00">Hermes/_base/Credentials.hpp</text>
</a>
</g>
</g>
<!-- Node1&#45;&gt;Node2 -->
<g id="edge1_Node000001_Node000002" class="edge">
<title>Node1&#45;&gt;Node2</title>
<g id="a_edge1_Node000001_Node000002"><a xlink:title=" ">
<path fill="none" stroke="#63b8ff" d="M1199.62,-252.84C1199.62,-245.21 1199.62,-235.7 1199.62,-227.45"/>
<polygon fill="#63b8ff" stroke="#63b8ff" points="1203.12,-227.27 1199.62,-217.27 1196.12,-227.27 1203.12,-227.27"/>
</a>
</g>
</g>
<!-- Node3 -->
<g id="Node000003" class="node">
<title>Node3</title>
<g id="a_Node000003"><a xlink:href="_os_api_8hpp.html" target="_top" xlink:title=" ">
<polygon fill="white" stroke="#666666" points="1031.62,-162 913.62,-162 913.62,-132 1031.62,-132 1031.62,-162"/>
<text text-anchor="start" x="921.62" y="-150" font-family="Helvetica,sans-Serif" font-size="10.00">Hermes/_base/OsApi</text>
<text text-anchor="middle" x="972.62" y="-139" font-family="Helvetica,sans-Serif" font-size="10.00">/OsApi.hpp</text>
</a>
</g>
</g>
<!-- Node2&#45;&gt;Node3 -->
<g id="edge2_Node000002_Node000003" class="edge">
<title>Node2&#45;&gt;Node3</title>
<g id="a_edge2_Node000002_Node000003"><a xlink:title=" ">
<path fill="none" stroke="#63b8ff" d="M1166.62,-197.99C1132.81,-189.28 1079.36,-175.51 1037.12,-164.62"/>
<polygon fill="#63b8ff" stroke="#63b8ff" points="1037.75,-161.17 1027.2,-162.06 1036.01,-167.95 1037.75,-161.17"/>
</a>
</g>
</g>
<!-- Node22 -->
<g id="Node000022" class="node">
<title>Node22</title>
<g id="a_Node000022"><a xlink:title=" ">
<polygon fill="#e0e0e0" stroke="#999999" points="1111.62,-156.5 1049.62,-156.5 1049.62,-137.5 1111.62,-137.5 1111.62,-156.5"/>
<text text-anchor="middle" x="1080.62" y="-144.5" font-family="Helvetica,sans-Serif" font-size="10.00">expected</text>
</a>
</g>
</g>
<!-- Node2&#45;&gt;Node22 -->
<g id="edge27_Node000002_Node000022" class="edge">
<title>Node2&#45;&gt;Node22</title>
<g id="a_edge27_Node000002_Node000022"><a xlink:title=" ">
<path fill="none" stroke="#63b8ff" d="M1182.32,-197.99C1162.58,-188.29 1130.07,-172.31 1107.13,-161.03"/>
<polygon fill="#63b8ff" stroke="#63b8ff" points="1108.47,-157.79 1097.95,-156.52 1105.38,-164.07 1108.47,-157.79"/>
</a>
</g>
</g>
<!-- Node23 -->
<g id="Node000023" class="node">
<title>Node23</title>
<g id="a_Node000023"><a xlink:title=" ">
<polygon fill="#e0e0e0" stroke="#999999" points="1197.62,-156.5 1129.62,-156.5 1129.62,-137.5 1197.62,-137.5 1197.62,-156.5"/>
<text text-anchor="middle" x="1163.62" y="-144.5" font-family="Helvetica,sans-Serif" font-size="10.00">filesystem</text>
</a>
</g>
</g>
<!-- Node2&#45;&gt;Node23 -->
<g id="edge28_Node000002_Node000023" class="edge">
<title>Node2&#45;&gt;Node23</title>
<g id="a_edge28_Node000002_Node000023"><a xlink:title=" ">
<path fill="none" stroke="#63b8ff" d="M1194.31,-197.87C1189.05,-189.31 1180.84,-175.97 1174.23,-165.24"/>
<polygon fill="#63b8ff" stroke="#63b8ff" points="1177.18,-163.35 1168.96,-156.67 1171.22,-167.02 1177.18,-163.35"/>
</a>
</g>
</g>
<!-- Node24 -->
<g id="Node000024" class="node">
<title>Node24</title>
<g id="a_Node000024"><a xlink:title=" ">
<polygon fill="#e0e0e0" stroke="#999999" points="1255.62,-156.5 1215.62,-156.5 1215.62,-137.5 1255.62,-137.5 1255.62,-156.5"/>
<text text-anchor="middle" x="1235.62" y="-144.5" font-family="Helvetica,sans-Serif" font-size="10.00">span</text>
</a>
</g>
</g>
<!-- Node2&#45;&gt;Node24 -->
<g id="edge29_Node000002_Node000024" class="edge">
<title>Node2&#45;&gt;Node24</title>
<g id="a_edge29_Node000002_Node000024"><a xlink:title=" ">
<path fill="none" stroke="#63b8ff" d="M1204.94,-197.87C1210.2,-189.31 1218.41,-175.97 1225.01,-165.24"/>
<polygon fill="#63b8ff" stroke="#63b8ff" points="1228.03,-167.02 1230.29,-156.67 1222.07,-163.35 1228.03,-167.02"/>
</a>
</g>
</g>
<!-- Node25 -->
<g id="Node000025" class="node">
<title>Node25</title>
<g id="a_Node000025"><a xlink:title=" ">
<polygon fill="#e0e0e0" stroke="#999999" points="1327.12,-156.5 1274.12,-156.5 1274.12,-137.5 1327.12,-137.5 1327.12,-156.5"/>
<text text-anchor="middle" x="1300.62" y="-144.5" font-family="Helvetica,sans-Serif" font-size="10.00">cstddef</text>
</a>
</g>
</g>
<!-- Node2&#45;&gt;Node25 -->
<g id="edge30_Node000002_Node000025" class="edge">
<title>Node2&#45;&gt;Node25</title>
<g id="a_edge30_Node000002_Node000025"><a xlink:title=" ">
<path fill="none" stroke="#63b8ff" d="M1214.53,-197.87C1230.94,-188.36 1257.55,-172.95 1276.85,-161.77"/>
<polygon fill="#63b8ff" stroke="#63b8ff" points="1278.76,-164.71 1285.66,-156.67 1275.25,-158.65 1278.76,-164.71"/>
</a>
</g>
</g>
<!-- Node26 -->
<g id="Node000026" class="node">
<title>Node26</title>
<g id="a_Node000026"><a xlink:title=" ">
<polygon fill="#e0e0e0" stroke="#999999" points="1403.62,-156.5 1345.62,-156.5 1345.62,-137.5 1403.62,-137.5 1403.62,-156.5"/>
<text text-anchor="middle" x="1374.62" y="-144.5" font-family="Helvetica,sans-Serif" font-size="10.00">memory</text>
</a>
</g>
</g>
<!-- Node2&#45;&gt;Node26 -->
<g id="edge31_Node000002_Node000026" class="edge">
<title>Node2&#45;&gt;Node26</title>
<g id="a_edge31_Node000002_Node000026"><a xlink:title=" ">
<path fill="none" stroke="#63b8ff" d="M1226.54,-197.94C1254.03,-189.14 1297.91,-174.94 1335.62,-162 1337.51,-161.35 1339.45,-160.68 1341.4,-160"/>
<polygon fill="#63b8ff" stroke="#63b8ff" points="1342.89,-163.18 1351.15,-156.55 1340.56,-156.58 1342.89,-163.18"/>
</a>
</g>
</g>
<!-- Node4 -->
<g id="Node000004" class="node">
<title>Node4</title>
<g id="a_Node000004"><a xlink:title=" ">
<polygon fill="#e0e0e0" stroke="#999999" points="728.12,-19 651.12,-19 651.12,0 728.12,0 728.12,-19"/>
<text text-anchor="middle" x="689.62" y="-7" font-family="Helvetica,sans-Serif" font-size="10.00">sys/socket.h</text>
</a>
</g>
</g>
<!-- Node3&#45;&gt;Node4 -->
<g id="edge3_Node000003_Node000004" class="edge">
<title>Node3&#45;&gt;Node4</title>
<g id="a_edge3_Node000003_Node000004"><a xlink:title=" ">
<path fill="none" stroke="#63b8ff" d="M913.23,-142.43C811.64,-135.71 613.41,-119.7 592.62,-96 580.61,-82.3 582.78,-70.34 592.62,-55 603.53,-38 622.73,-27.41 641.19,-20.85"/>
<polygon fill="#63b8ff" stroke="#63b8ff" points="642.28,-24.18 650.73,-17.78 640.14,-17.52 642.28,-24.18"/>
</a>
</g>
</g>
<!-- Node5 -->
<g id="Node000005" class="node">
<title>Node5</title>
<g id="a_Node000005"><a xlink:title=" ">
<polygon fill="#e0e0e0" stroke="#999999" points="86.62,-19 14.62,-19 14.62,0 86.62,0 86.62,-19"/>
<text text-anchor="middle" x="50.62" y="-7" font-family="Helvetica,sans-Serif" font-size="10.00">netinet/in.h</text>
</a>
</g>
</g>
<!-- Node3&#45;&gt;Node5 -->
<g id="edge4_Node000003_Node000005" class="edge">
<title>Node3&#45;&gt;Node5</title>
<g id="a_edge4_Node000003_Node000005"><a xlink:title=" ">
<path fill="none" stroke="#63b8ff" d="M913.38,-145.15C708.22,-141.94 38.9,-128.94 7.62,-96 -4.92,-82.79 0.79,-71.89 7.62,-55 12.31,-43.41 21.62,-33.16 30.38,-25.43"/>
<polygon fill="#63b8ff" stroke="#63b8ff" points="32.62,-28.12 38.13,-19.07 28.18,-22.71 32.62,-28.12"/>
</a>
</g>
</g>
<!-- Node6 -->
<g id="Node000006" class="node">
<title>Node6</title>
<g id="a_Node000006"><a xlink:title=" ">
<polygon fill="#e0e0e0" stroke="#999999" points="295.12,-85 226.12,-85 226.12,-66 295.12,-66 295.12,-85"/>
<text text-anchor="middle" x="260.62" y="-73" font-family="Helvetica,sans-Serif" font-size="10.00">arpa/inet.h</text>
</a>
</g>
</g>
<!-- Node3&#45;&gt;Node6 -->
<g id="edge5_Node000003_Node000006" class="edge">
<title>Node3&#45;&gt;Node6</title>
<g id="a_edge5_Node000003_Node000006"><a xlink:title=" ">
<path fill="none" stroke="#63b8ff" d="M913.46,-144.23C772.15,-139.58 418.23,-125.29 303.62,-96 297.52,-94.44 291.2,-92.06 285.35,-89.49"/>
<polygon fill="#63b8ff" stroke="#63b8ff" points="286.6,-86.21 276.07,-85.1 283.61,-92.54 286.6,-86.21"/>
</a>
</g>
</g>
<!-- Node7 -->
<g id="Node000007" class="node">
<title>Node7</title>
<g id="a_Node000007"><a xlink:title=" ">
<polygon fill="#e0e0e0" stroke="#999999" points="1221.12,-19 1168.12,-19 1168.12,0 1221.12,0 1221.12,-19"/>
<text text-anchor="middle" x="1194.62" y="-7" font-family="Helvetica,sans-Serif" font-size="10.00">netdb.h</text>
</a>
</g>
</g>
<!-- Node3&#45;&gt;Node7 -->
<g id="edge6_Node000003_Node000007" class="edge">
<title>Node3&#45;&gt;Node7</title>
<g id="a_edge6_Node000003_Node000007"><a xlink:title=" ">
<path fill="none" stroke="#63b8ff" d="M1026.51,-131.9C1063.68,-121.52 1109.23,-107.31 1125.62,-96 1139.43,-86.48 1166.83,-49.68 1182.63,-27.59"/>
<polygon fill="#63b8ff" stroke="#63b8ff" points="1185.7,-29.32 1188.62,-19.14 1179.98,-25.27 1185.7,-29.32"/>
</a>
</g>
</g>
<!-- Node8 -->
<g id="Node000008" class="node">
<title>Node8</title>
<g id="a_Node000008"><a xlink:title=" ">
<polygon fill="#e0e0e0" stroke="#999999" points="545.62,-85 489.62,-85 489.62,-66 545.62,-66 545.62,-85"/>
<text text-anchor="middle" x="517.62" y="-73" font-family="Helvetica,sans-Serif" font-size="10.00">unistd.h</text>
</a>
</g>
</g>
<!-- Node3&#45;&gt;Node8 -->
<g id="edge7_Node000003_Node000008" class="edge">
<title>Node3&#45;&gt;Node8</title>
<g id="a_edge7_Node000003_Node000008"><a xlink:title=" ">
<path fill="none" stroke="#63b8ff" d="M913.34,-144.64C832.09,-141.46 682.22,-130.93 559.62,-96 553.92,-94.38 548.02,-92.07 542.5,-89.61"/>
<polygon fill="#63b8ff" stroke="#63b8ff" points="543.66,-86.28 533.13,-85.12 540.64,-92.59 543.66,-86.28"/>
</a>
</g>
</g>
<!-- Node9 -->
<g id="Node000009" class="node">
<title>Node9</title>
<g id="a_Node000009"><a xlink:href="_conversion_and_literals_8hpp.html" target="_top" xlink:title=" ">
<polygon fill="white" stroke="#666666" points="1654.62,-90.5 1504.62,-90.5 1504.62,-60.5 1654.62,-60.5 1654.62,-90.5"/>
<text text-anchor="start" x="1512.62" y="-78.5" font-family="Helvetica,sans-Serif" font-size="10.00">Hermes/_base/OsApi</text>
<text text-anchor="middle" x="1579.62" y="-67.5" font-family="Helvetica,sans-Serif" font-size="10.00">/ConversionAndLiterals.hpp</text>
</a>
</g>
</g>
<!-- Node3&#45;&gt;Node9 -->
<g id="edge8_Node000003_Node000009" class="edge">
<title>Node3&#45;&gt;Node9</title>
<g id="a_edge8_Node000003_Node000009"><a xlink:title=" ">
<path fill="none" stroke="#63b8ff" d="M1031.89,-133.35C1034.83,-132.86 1037.76,-132.41 1040.62,-132 1241.46,-103.49 1295.16,-127.02 1495.62,-96 1501.74,-95.05 1508.07,-93.9 1514.39,-92.64"/>
<polygon fill="#63b8ff" stroke="#63b8ff" points="1515.2,-96.05 1524.27,-90.58 1513.77,-89.2 1515.2,-96.05"/>
</a>
</g>
</g>
<!-- Node11 -->
<g id="Node000011" class="node">
<title>Node11</title>
<g id="a_Node000011"><a xlink:href="_macros_8hpp.html" target="_top" xlink:title=" ">
<polygon fill="white" stroke="#666666" points="1116.62,-90.5 998.62,-90.5 998.62,-60.5 1116.62,-60.5 1116.62,-90.5"/>
<text text-anchor="start" x="1006.62" y="-78.5" font-family="Helvetica,sans-Serif" font-size="10.00">Hermes/_base/OsApi</text>
<text text-anchor="middle" x="1057.62" y="-67.5" font-family="Helvetica,sans-Serif" font-size="10.00">/Macros.hpp</text>
</a>
</g>
</g>
<!-- Node3&#45;&gt;Node11 -->
<g id="edge10_Node000003_Node000011" class="edge">
<title>Node3&#45;&gt;Node11</title>
<g id="a_edge10_Node000003_Node000011"><a xlink:title=" ">
<path fill="none" stroke="#63b8ff" d="M989.82,-131.94C1002.04,-121.95 1018.63,-108.38 1032.35,-97.17"/>
<polygon fill="#63b8ff" stroke="#63b8ff" points="1034.92,-99.58 1040.45,-90.54 1030.49,-94.16 1034.92,-99.58"/>
</a>
</g>
</g>
<!-- Node13 -->
<g id="Node000013" class="node">
<title>Node13</title>
<g id="a_Node000013"><a xlink:href="_address_family_enum_8hpp.html" target="_top" xlink:title=" ">
<polygon fill="white" stroke="#666666" points="777.62,-90.5 601.62,-90.5 601.62,-60.5 777.62,-60.5 777.62,-90.5"/>
<text text-anchor="start" x="609.62" y="-78.5" font-family="Helvetica,sans-Serif" font-size="10.00">Hermes/_base/OsApi</text>
<text text-anchor="middle" x="689.62" y="-67.5" font-family="Helvetica,sans-Serif" font-size="10.00">/Enums/AddressFamilyEnum.hpp</text>
</a>
</g>
</g>
<!-- Node3&#45;&gt;Node13 -->
<g id="edge13_Node000003_Node000013" class="edge">
<title>Node3&#45;&gt;Node13</title>
<g id="a_edge13_Node000003_Node000013"><a xlink:title=" ">
<path fill="none" stroke="#63b8ff" d="M915.35,-131.94C869.42,-120.65 804.87,-104.8 756.55,-92.94"/>
<polygon fill="#63b8ff" stroke="#63b8ff" points="757.35,-89.53 746.81,-90.54 755.68,-96.33 757.35,-89.53"/>
</a>
</g>
</g>
<!-- Node14 -->
<g id="Node000014" class="node">
<title>Node14</title>
<g id="a_Node000014"><a xlink:href="_protocol_base_type_enum_8hpp.html" target="_top" xlink:title=" ">
<polygon fill="white" stroke="#666666" points="208.12,-90.5 17.12,-90.5 17.12,-60.5 208.12,-60.5 208.12,-90.5"/>
<text text-anchor="start" x="25.12" y="-78.5" font-family="Helvetica,sans-Serif" font-size="10.00">Hermes/_base/OsApi</text>
<text text-anchor="middle" x="112.62" y="-67.5" font-family="Helvetica,sans-Serif" font-size="10.00">/Enums/ProtocolBaseTypeEnum.hpp</text>
</a>
</g>
</g>
<!-- Node3&#45;&gt;Node14 -->
<g id="edge15_Node000003_Node000014" class="edge">
<title>Node3&#45;&gt;Node14</title>
<g id="a_edge15_Node000003_Node000014"><a xlink:title=" ">
<path fill="none" stroke="#63b8ff" d="M913.58,-144.49C785.95,-140.7 475.01,-128.65 216.62,-96 208.31,-94.95 199.65,-93.65 191.04,-92.23"/>
<polygon fill="#63b8ff" stroke="#63b8ff" points="191.42,-88.75 180.97,-90.52 190.24,-95.65 191.42,-88.75"/>
</a>
</g>
</g>
<!-- Node15 -->
<g id="Node000015" class="node">
<title>Node15</title>
<g id="a_Node000015"><a xlink:href="_socket_shutdown_enum_8hpp.html" target="_top" xlink:title=" ">
<polygon fill="white" stroke="#666666" points="980.12,-90.5 795.12,-90.5 795.12,-60.5 980.12,-60.5 980.12,-90.5"/>
<text text-anchor="start" x="803.12" y="-78.5" font-family="Helvetica,sans-Serif" font-size="10.00">Hermes/_base/OsApi</text>
<text text-anchor="middle" x="887.62" y="-67.5" font-family="Helvetica,sans-Serif" font-size="10.00">/Enums/SocketShutdownEnum.hpp</text>
</a>
</g>
</g>
<!-- Node3&#45;&gt;Node15 -->
<g id="edge17_Node000003_Node000015" class="edge">
<title>Node3&#45;&gt;Node15</title>
<g id="a_edge17_Node000003_Node000015"><a xlink:title=" ">
<path fill="none" stroke="#63b8ff" d="M955.42,-131.94C943.21,-121.95 926.62,-108.38 912.9,-97.17"/>
<polygon fill="#63b8ff" stroke="#63b8ff" points="914.76,-94.16 904.8,-90.54 910.33,-99.58 914.76,-94.16"/>
</a>
</g>
</g>
<!-- Node16 -->
<g id="Node000016" class="node">
<title>Node16</title>
<g id="a_Node000016"><a xlink:href="_socket_type_enum_8hpp.html" target="_top" xlink:title=" ">
<polygon fill="white" stroke="#666666" points="472.12,-90.5 313.12,-90.5 313.12,-60.5 472.12,-60.5 472.12,-90.5"/>
<text text-anchor="start" x="321.12" y="-78.5" font-family="Helvetica,sans-Serif" font-size="10.00">Hermes/_base/OsApi</text>
<text text-anchor="middle" x="392.62" y="-67.5" font-family="Helvetica,sans-Serif" font-size="10.00">/Enums/SocketTypeEnum.hpp</text>
</a>
</g>
</g>
<!-- Node3&#45;&gt;Node16 -->
<g id="edge19_Node000003_Node000016" class="edge">
<title>Node3&#45;&gt;Node16</title>
<g id="a_edge19_Node000003_Node000016"><a xlink:title=" ">
<path fill="none" stroke="#63b8ff" d="M913.26,-142.22C820.5,-135.8 635.74,-120.98 480.62,-96 474.44,-95 468.04,-93.84 461.64,-92.59"/>
<polygon fill="#63b8ff" stroke="#63b8ff" points="462.11,-89.12 451.61,-90.56 460.72,-95.98 462.11,-89.12"/>
</a>
</g>
</g>
<!-- Node17 -->
<g id="Node000017" class="node">
<title>Node17</title>
<g id="a_Node000017"><a xlink:href="_linux_2_encrypt_status_enum_8hpp.html" target="_top" xlink:title=" ">
<polygon fill="white" stroke="#666666" points="1486.62,-96 1334.62,-96 1334.62,-55 1486.62,-55 1486.62,-96"/>
<text text-anchor="start" x="1342.62" y="-84" font-family="Helvetica,sans-Serif" font-size="10.00">Hermes/_base/OsApi</text>
<text text-anchor="start" x="1342.62" y="-73" font-family="Helvetica,sans-Serif" font-size="10.00">/Enums/Linux/EncryptStatus</text>
<text text-anchor="middle" x="1410.62" y="-62" font-family="Helvetica,sans-Serif" font-size="10.00">Enum.hpp</text>
</a>
</g>
</g>
<!-- Node3&#45;&gt;Node17 -->
<g id="edge21_Node000003_Node000017" class="edge">
<title>Node3&#45;&gt;Node17</title>
<g id="a_edge21_Node000003_Node000017"><a xlink:title=" ">
<path fill="none" stroke="#63b8ff" d="M1031.91,-133.51C1034.85,-132.98 1037.77,-132.47 1040.62,-132 1163.38,-111.64 1198.16,-117.95 1324.2,-96.16"/>
<polygon fill="#63b8ff" stroke="#63b8ff" points="1325,-99.58 1334.24,-94.4 1323.79,-92.68 1325,-99.58"/>
</a>
</g>
</g>
<!-- Node18 -->
<g id="Node000018" class="node">
<title>Node18</title>
<g id="a_Node000018"><a xlink:href="_name_info_flags_8hpp.html" target="_top" xlink:title=" ">
<polygon fill="white" stroke="#666666" points="1316.62,-90.5 1172.62,-90.5 1172.62,-60.5 1316.62,-60.5 1316.62,-90.5"/>
<text text-anchor="start" x="1180.62" y="-78.5" font-family="Helvetica,sans-Serif" font-size="10.00">Hermes/_base/OsApi</text>
<text text-anchor="middle" x="1244.62" y="-67.5" font-family="Helvetica,sans-Serif" font-size="10.00">/Flags/NameInfoFlags.hpp</text>
</a>
</g>
</g>
<!-- Node3&#45;&gt;Node18 -->
<g id="edge22_Node000003_Node000018" class="edge">
<title>Node3&#45;&gt;Node18</title>
<g id="a_edge22_Node000003_Node000018"><a xlink:title=" ">
<path fill="none" stroke="#63b8ff" d="M1027.67,-131.94C1071.63,-120.7 1133.34,-104.93 1179.72,-93.09"/>
<polygon fill="#63b8ff" stroke="#63b8ff" points="1180.84,-96.41 1189.66,-90.54 1179.11,-89.63 1180.84,-96.41"/>
</a>
</g>
</g>
<!-- Node19 -->
<g id="Node000019" class="node">
<title>Node19</title>
<g id="a_Node000019"><a xlink:href="_linux_2_credential_flags_8hpp.html" target="_top" xlink:title=" ">
<polygon fill="white" stroke="#666666" points="1848.62,-90.5 1672.62,-90.5 1672.62,-60.5 1848.62,-60.5 1848.62,-90.5"/>
<text text-anchor="start" x="1680.62" y="-78.5" font-family="Helvetica,sans-Serif" font-size="10.00">Hermes/_base/OsApi</text>
<text text-anchor="middle" x="1760.62" y="-67.5" font-family="Helvetica,sans-Serif" font-size="10.00">/Flags/Linux/CredentialFlags.hpp</text>
</a>
</g>
</g>
<!-- Node3&#45;&gt;Node19 -->
<g id="edge24_Node000003_Node000019" class="edge">
<title>Node3&#45;&gt;Node19</title>
<g id="a_edge24_Node000003_Node000019"><a xlink:title=" ">
<path fill="none" stroke="#63b8ff" d="M1031.88,-133.27C1034.83,-132.8 1037.76,-132.38 1040.62,-132 1315.62,-95.94 1388.54,-131.42 1663.62,-96 1671.35,-95.01 1679.38,-93.75 1687.37,-92.36"/>
<polygon fill="#63b8ff" stroke="#63b8ff" points="1688.22,-95.76 1697.44,-90.53 1686.98,-88.87 1688.22,-95.76"/>
</a>
</g>
</g>
<!-- Node20 -->
<g id="Node000020" class="node">
<title>Node20</title>
<g id="a_Node000020"><a xlink:href="_linux_2_supported_protocols_flags_8hpp.html" target="_top" xlink:title=" ">
<polygon fill="white" stroke="#666666" points="2040.12,-96 1867.12,-96 1867.12,-55 2040.12,-55 2040.12,-96"/>
<text text-anchor="start" x="1875.12" y="-84" font-family="Helvetica,sans-Serif" font-size="10.00">Hermes/_base/OsApi</text>
<text text-anchor="start" x="1875.12" y="-73" font-family="Helvetica,sans-Serif" font-size="10.00">/Flags/Linux/SupportedProtocols</text>
<text text-anchor="middle" x="1953.62" y="-62" font-family="Helvetica,sans-Serif" font-size="10.00">Flags.hpp</text>
</a>
</g>
</g>
<!-- Node3&#45;&gt;Node20 -->
<g id="edge25_Node000003_Node000020" class="edge">
<title>Node3&#45;&gt;Node20</title>
<g id="a_edge25_Node000003_Node000020"><a xlink:title=" ">
<path fill="none" stroke="#63b8ff" d="M1031.87,-133.22C1034.82,-132.77 1037.75,-132.36 1040.62,-132 1398.06,-87.62 1495.12,-139.36 1857.15,-95.93"/>
<polygon fill="#63b8ff" stroke="#63b8ff" points="1857.61,-99.4 1867.12,-94.72 1856.77,-92.45 1857.61,-99.4"/>
</a>
</g>
</g>
<!-- Node21 -->
<g id="Node000021" class="node">
<title>Node21</title>
<g id="a_Node000021"><a xlink:href="_linux_2_s_channel_cred_flags_8hpp.html" target="_top" xlink:title=" ">
<polygon fill="white" stroke="#666666" points="2252.62,-90.5 2058.62,-90.5 2058.62,-60.5 2252.62,-60.5 2252.62,-90.5"/>
<text text-anchor="start" x="2066.62" y="-78.5" font-family="Helvetica,sans-Serif" font-size="10.00">Hermes/_base/OsApi</text>
<text text-anchor="middle" x="2155.62" y="-67.5" font-family="Helvetica,sans-Serif" font-size="10.00">/Flags/Linux/SChannelCredFlags.hpp</text>
</a>
</g>
</g>
<!-- Node3&#45;&gt;Node21 -->
<g id="edge26_Node000003_Node000021" class="edge">
<title>Node3&#45;&gt;Node21</title>
<g id="a_edge26_Node000003_Node000021"><a xlink:title=" ">
<path fill="none" stroke="#63b8ff" d="M1031.87,-133.19C1034.82,-132.75 1037.75,-132.34 1040.62,-132 1486.16,-78.57 1603.55,-144.72 2049.62,-96 2058.71,-95.01 2068.18,-93.68 2077.57,-92.19"/>
<polygon fill="#63b8ff" stroke="#63b8ff" points="2078.41,-95.6 2087.7,-90.52 2077.26,-88.7 2078.41,-95.6"/>
</a>
</g>
</g>
<!-- Node10 -->
<g id="Node000010" class="node">
<title>Node10</title>
<g id="a_Node000010"><a xlink:title=" ">
<polygon fill="#e0e0e0" stroke="#999999" points="1604.62,-19 1554.62,-19 1554.62,0 1604.62,0 1604.62,-19"/>
<text text-anchor="middle" x="1579.62" y="-7" font-family="Helvetica,sans-Serif" font-size="10.00">cstdint</text>
</a>
</g>
</g>
<!-- Node9&#45;&gt;Node10 -->
<g id="edge9_Node000009_Node000010" class="edge">
<title>Node9&#45;&gt;Node10</title>
<g id="a_edge9_Node000009_Node000010"><a xlink:title=" ">
<path fill="none" stroke="#63b8ff" d="M1579.62,-60.3C1579.62,-51.2 1579.62,-39.29 1579.62,-29.4"/>
<polygon fill="#63b8ff" stroke="#63b8ff" points="1583.12,-29.34 1579.62,-19.34 1576.12,-29.34 1583.12,-29.34"/>
</a>
</g>
</g>
<!-- Node11&#45;&gt;Node4 -->
<g id="edge12_Node000011_Node000004" class="edge">
<title>Node11&#45;&gt;Node4</title>
<g id="a_edge12_Node000011_Node000004"><a xlink:title=" ">
<path fill="none" stroke="#63b8ff" d="M1011.06,-60.47C1003.6,-58.47 995.93,-56.57 988.62,-55 901.25,-36.23 797.83,-22.74 738.36,-15.81"/>
<polygon fill="#63b8ff" stroke="#63b8ff" points="738.47,-12.3 728.14,-14.64 737.67,-19.26 738.47,-12.3"/>
</a>
</g>
</g>
<!-- Node12 -->
<g id="Node000012" class="node">
<title>Node12</title>
<g id="a_Node000012"><a xlink:title=" ">
<polygon fill="#e0e0e0" stroke="#999999" points="1094.12,-19 1021.12,-19 1021.12,0 1094.12,0 1094.12,-19"/>
<text text-anchor="middle" x="1057.62" y="-7" font-family="Helvetica,sans-Serif" font-size="10.00">string_view</text>
</a>
</g>
</g>
<!-- Node11&#45;&gt;Node12 -->
<g id="edge11_Node000011_Node000012" class="edge">
<title>Node11&#45;&gt;Node12</title>
<g id="a_edge11_Node000011_Node000012"><a xlink:title=" ">
<path fill="none" stroke="#63b8ff" d="M1057.62,-60.3C1057.62,-51.2 1057.62,-39.29 1057.62,-29.4"/>
<polygon fill="#63b8ff" stroke="#63b8ff" points="1061.12,-29.34 1057.62,-19.34 1054.12,-29.34 1061.12,-29.34"/>
</a>
</g>
</g>
<!-- Node13&#45;&gt;Node4 -->
<g id="edge14_Node000013_Node000004" class="edge">
<title>Node13&#45;&gt;Node4</title>
<g id="a_edge14_Node000013_Node000004"><a xlink:title=" ">
<path fill="none" stroke="#63b8ff" d="M689.62,-60.3C689.62,-51.2 689.62,-39.29 689.62,-29.4"/>
<polygon fill="#63b8ff" stroke="#63b8ff" points="693.12,-29.34 689.62,-19.34 686.12,-29.34 693.12,-29.34"/>
</a>
</g>
</g>
<!-- Node14&#45;&gt;Node5 -->
<g id="edge16_Node000014_Node000005" class="edge">
<title>Node14&#45;&gt;Node5</title>
<g id="a_edge16_Node000014_Node000005"><a xlink:title=" ">
<path fill="none" stroke="#63b8ff" d="M98.86,-60.3C89.2,-50.32 76.25,-36.96 66.21,-26.59"/>
<polygon fill="#63b8ff" stroke="#63b8ff" points="68.66,-24.09 59.19,-19.34 63.64,-28.96 68.66,-24.09"/>
</a>
</g>
</g>
<!-- Node15&#45;&gt;Node4 -->
<g id="edge18_Node000015_Node000004" class="edge">
<title>Node15&#45;&gt;Node4</title>
<g id="a_edge18_Node000015_Node000004"><a xlink:title=" ">
<path fill="none" stroke="#63b8ff" d="M844.17,-60.45C808.68,-48.98 759.11,-32.96 725.77,-22.18"/>
<polygon fill="#63b8ff" stroke="#63b8ff" points="726.57,-18.76 715.97,-19.02 724.41,-25.42 726.57,-18.76"/>
</a>
</g>
</g>
<!-- Node16&#45;&gt;Node4 -->
<g id="edge20_Node000016_Node000004" class="edge">
<title>Node16&#45;&gt;Node4</title>
<g id="a_edge20_Node000016_Node000004"><a xlink:title=" ">
<path fill="none" stroke="#63b8ff" d="M455.58,-60.48C464,-58.63 472.52,-56.76 480.62,-55 535.55,-43.07 598.67,-29.67 641.04,-20.73"/>
<polygon fill="#63b8ff" stroke="#63b8ff" points="642.02,-24.1 651.08,-18.61 640.58,-17.25 642.02,-24.1"/>
</a>
</g>
</g>
<!-- Node18&#45;&gt;Node7 -->
<g id="edge23_Node000018_Node000007" class="edge">
<title>Node18&#45;&gt;Node7</title>
<g id="a_edge23_Node000018_Node000007"><a xlink:title=" ">
<path fill="none" stroke="#63b8ff" d="M1233.53,-60.3C1225.96,-50.61 1215.9,-37.74 1207.91,-27.51"/>
<polygon fill="#63b8ff" stroke="#63b8ff" points="1210.45,-25.07 1201.53,-19.34 1204.93,-29.38 1210.45,-25.07"/>
</a>
</g>
</g>
</g>
</svg>
