<?xml version="1.0" encoding="UTF-8" standalone="no"?>
<!DOCTYPE svg PUBLIC "-//W3C//DTD SVG 1.1//EN"
 "http://www.w3.org/Graphics/SVG/1.1/DTD/svg11.dtd">
<!-- Generated by graphviz version 2.43.0 (0)
 -->
<!-- Title: include/Hermes/_base/OsApi/OsApi.hpp Pages: 1 -->
<svg width="2261pt" height="170pt"
 viewBox="0.00 0.00 2260.62 170.00" xmlns="http://www.w3.org/2000/svg" xmlns:xlink="http://www.w3.org/1999/xlink">
<g id="graph0" class="graph" transform="scale(1 1) rotate(0) translate(4 166)">
<title>include/Hermes/_base/OsApi/OsApi.hpp</title>
<!-- Node1 -->
<g id="Node000001" class="node">
<title>Node1</title>
<g id="a_Node000001"><a xlink:title=" ">
<polygon fill="#999999" stroke="#666666" points="1035.12,-162 910.12,-162 910.12,-132 1035.12,-132 1035.12,-162"/>
<text text-anchor="start" x="918.12" y="-150" font-family="Helvetica,sans-Serif" font-size="10.00">include/Hermes/_base</text>
<text text-anchor="middle" x="972.62" y="-139" font-family="Helvetica,sans-Serif" font-size="10.00">/OsApi/OsApi.hpp</text>
</a>
</g>
</g>
<!-- Node2 -->
<g id="Node000002" class="node">
<title>Node2</title>
<g id="a_Node000002"><a xlink:title=" ">
<polygon fill="#e0e0e0" stroke="#999999" points="728.12,-19 651.12,-19 651.12,0 728.12,0 728.12,-19"/>
<text text-anchor="middle" x="689.62" y="-7" font-family="Helvetica,sans-Serif" font-size="10.00">sys/socket.h</text>
</a>
</g>
</g>
<!-- Node1&#45;&gt;Node2 -->
<g id="edge1_Node000001_Node000002" class="edge">
<title>Node1&#45;&gt;Node2</title>
<g id="a_edge1_Node000001_Node000002"><a xlink:title=" ">
<path fill="none" stroke="#63b8ff" d="M909.98,-142.21C807.48,-135.37 613.19,-119.45 592.62,-96 580.61,-82.3 582.78,-70.34 592.62,-55 603.53,-38 622.73,-27.41 641.19,-20.85"/>
<polygon fill="#63b8ff" stroke="#63b8ff" points="642.28,-24.18 650.73,-17.78 640.14,-17.52 642.28,-24.18"/>
</a>
</g>
</g>
<!-- Node3 -->
<g id="Node000003" class="node">
<title>Node3</title>
<g id="a_Node000003"><a xlink:title=" ">
<polygon fill="#e0e0e0" stroke="#999999" points="86.62,-19 14.62,-19 14.62,0 86.62,0 86.62,-19"/>
<text text-anchor="middle" x="50.62" y="-7" font-family="Helvetica,sans-Serif" font-size="10.00">netinet/in.h</text>
</a>
</g>
</g>
<!-- Node1&#45;&gt;Node3 -->
<g id="edge2_Node000001_Node000003" class="edge">
<title>Node1&#45;&gt;Node3</title>
<g id="a_edge2_Node000001_Node000003"><a xlink:title=" ">
<path fill="none" stroke="#63b8ff" d="M909.78,-145.1C700.52,-141.78 38.72,-128.75 7.62,-96 -4.92,-82.79 0.79,-71.89 7.62,-55 12.31,-43.41 21.62,-33.16 30.38,-25.43"/>
<polygon fill="#63b8ff" stroke="#63b8ff" points="32.62,-28.12 38.13,-19.07 28.18,-22.71 32.62,-28.12"/>
</a>
</g>
</g>
<!-- Node4 -->
<g id="Node000004" class="node">
<title>Node4</title>
<g id="a_Node000004"><a xlink:title=" ">
<polygon fill="#e0e0e0" stroke="#999999" points="295.12,-85 226.12,-85 226.12,-66 295.12,-66 295.12,-85"/>
<text text-anchor="middle" x="260.62" y="-73" font-family="Helvetica,sans-Serif" font-size="10.00">arpa/inet.h</text>
</a>
</g>
</g>
<!-- Node1&#45;&gt;Node4 -->
<g id="edge3_Node000001_Node000004" class="edge">
<title>Node1&#45;&gt;Node4</title>
<g id="a_edge3_Node000001_Node000004"><a xlink:title=" ">
<path fill="none" stroke="#63b8ff" d="M910.03,-144.12C766.5,-139.35 417.31,-125.05 303.62,-96 297.52,-94.44 291.2,-92.06 285.35,-89.49"/>
<polygon fill="#63b8ff" stroke="#63b8ff" points="286.6,-86.21 276.07,-85.1 283.61,-92.54 286.6,-86.21"/>
</a>
</g>
</g>
<!-- Node5 -->
<g id="Node000005" class="node">
<title>Node5</title>
<g id="a_Node000005"><a xlink:title=" ">
<polygon fill="#e0e0e0" stroke="#999999" points="1221.12,-19 1168.12,-19 1168.12,0 1221.12,0 1221.12,-19"/>
<text text-anchor="middle" x="1194.62" y="-7" font-family="Helvetica,sans-Serif" font-size="10.00">netdb.h</text>
</a>
</g>
</g>
<!-- Node1&#45;&gt;Node5 -->
<g id="edge4_Node000001_Node000005" class="edge">
<title>Node1&#45;&gt;Node5</title>
<g id="a_edge4_Node000001_Node000005"><a xlink:title=" ">
<path fill="none" stroke="#63b8ff" d="M1035.16,-134.2C1064.44,-126.6 1098.71,-114.56 1125.62,-96 1139.43,-86.48 1166.83,-49.68 1182.63,-27.59"/>
<polygon fill="#63b8ff" stroke="#63b8ff" points="1185.7,-29.32 1188.62,-19.14 1179.98,-25.27 1185.7,-29.32"/>
</a>
</g>
</g>
<!-- Node6 -->
<g id="Node000006" class="node">
<title>Node6</title>
<g id="a_Node000006"><a xlink:title=" ">
<polygon fill="#e0e0e0" stroke="#999999" points="545.62,-85 489.62,-85 489.62,-66 545.62,-66 545.62,-85"/>
<text text-anchor="middle" x="517.62" y="-73" font-family="Helvetica,sans-Serif" font-size="10.00">unistd.h</text>
</a>
</g>
</g>
<!-- Node1&#45;&gt;Node6 -->
<g id="edge5_Node000001_Node000006" class="edge">
<title>Node1&#45;&gt;Node6</title>
<g id="a_edge5_Node000001_Node000006"><a xlink:title=" ">
<path fill="none" stroke="#63b8ff" d="M909.85,-144.5C827.85,-141.16 680.48,-130.44 559.62,-96 553.92,-94.38 548.02,-92.07 542.5,-89.61"/>
<polygon fill="#63b8ff" stroke="#63b8ff" points="543.66,-86.28 533.13,-85.12 540.64,-92.59 543.66,-86.28"/>
</a>
</g>
</g>
<!-- Node7 -->
<g id="Node000007" class="node">
<title>Node7</title>
<g id="a_Node000007"><a xlink:href="_conversion_and_literals_8hpp.html" target="_top" xlink:title=" ">
<polygon fill="white" stroke="#666666" points="1654.62,-90.5 1504.62,-90.5 1504.62,-60.5 1654.62,-60.5 1654.62,-90.5"/>
<text text-anchor="start" x="1512.62" y="-78.5" font-family="Helvetica,sans-Serif" font-size="10.00">Hermes/_base/OsApi</text>
<text text-anchor="middle" x="1579.62" y="-67.5" font-family="Helvetica,sans-Serif" font-size="10.00">/ConversionAndLiterals.hpp</text>
</a>
</g>
</g>
<!-- Node1&#45;&gt;Node7 -->
<g id="edge6_Node000001_Node000007" class="edge">
<title>Node1&#45;&gt;Node7</title>
<g id="a_edge6_Node000001_Node000007"><a xlink:title=" ">
<path fill="none" stroke="#63b8ff" d="M1035.36,-142.7C1133.88,-136.92 1330.66,-122.91 1495.62,-96 1501.49,-95.04 1507.56,-93.91 1513.63,-92.69"/>
<polygon fill="#63b8ff" stroke="#63b8ff" points="1514.74,-96.03 1523.8,-90.55 1513.29,-89.18 1514.74,-96.03"/>
</a>
</g>
</g>
<!-- Node9 -->
<g id="Node000009" class="node">
<title>Node9</title>
<g id="a_Node000009"><a xlink:href="_macros_8hpp.html" target="_top" xlink:title=" ">
<polygon fill="white" stroke="#666666" points="1116.62,-90.5 998.62,-90.5 998.62,-60.5 1116.62,-60.5 1116.62,-90.5"/>
<text text-anchor="start" x="1006.62" y="-78.5" font-family="Helvetica,sans-Serif" font-size="10.00">Hermes/_base/OsApi</text>
<text text-anchor="middle" x="1057.62" y="-67.5" font-family="Helvetica,sans-Serif" font-size="10.00">/Macros.hpp</text>
</a>
</g>
</g>
<!-- Node1&#45;&gt;Node9 -->
<g id="edge8_Node000001_Node000009" class="edge">
<title>Node1&#45;&gt;Node9</title>
<g id="a_edge8_Node000001_Node000009"><a xlink:title=" ">
<path fill="none" stroke="#63b8ff" d="M989.82,-131.94C1002.04,-121.95 1018.63,-108.38 1032.35,-97.17"/>
<polygon fill="#63b8ff" stroke="#63b8ff" points="1034.92,-99.58 1040.45,-90.54 1030.49,-94.16 1034.92,-99.58"/>
</a>
</g>
</g>
<!-- Node11 -->
<g id="Node000011" class="node">
<title>Node11</title>
<g id="a_Node000011"><a xlink:href="_address_family_enum_8hpp.html" target="_top" xlink:title=" ">
<polygon fill="white" stroke="#666666" points="777.62,-90.5 601.62,-90.5 601.62,-60.5 777.62,-60.5 777.62,-90.5"/>
<text text-anchor="start" x="609.62" y="-78.5" font-family="Helvetica,sans-Serif" font-size="10.00">Hermes/_base/OsApi</text>
<text text-anchor="middle" x="689.62" y="-67.5" font-family="Helvetica,sans-Serif" font-size="10.00">/Enums/AddressFamilyEnum.hpp</text>
</a>
</g>
</g>
<!-- Node1&#45;&gt;Node11 -->
<g id="edge11_Node000001_Node000011" class="edge">
<title>Node1&#45;&gt;Node11</title>
<g id="a_edge11_Node000001_Node000011"><a xlink:title=" ">
<path fill="none" stroke="#63b8ff" d="M915.35,-131.94C869.42,-120.65 804.87,-104.8 756.55,-92.94"/>
<polygon fill="#63b8ff" stroke="#63b8ff" points="757.35,-89.53 746.81,-90.54 755.68,-96.33 757.35,-89.53"/>
</a>
</g>
</g>
<!-- Node12 -->
<g id="Node000012" class="node">
<title>Node12</title>
<g id="a_Node000012"><a xlink:href="_protocol_base_type_enum_8hpp.html" target="_top" xlink:title=" ">
<polygon fill="white" stroke="#666666" points="208.12,-90.5 17.12,-90.5 17.12,-60.5 208.12,-60.5 208.12,-90.5"/>
<text text-anchor="start" x="25.12" y="-78.5" font-family="Helvetica,sans-Serif" font-size="10.00">Hermes/_base/OsApi</text>
<text text-anchor="middle" x="112.62" y="-67.5" font-family="Helvetica,sans-Serif" font-size="10.00">/Enums/ProtocolBaseTypeEnum.hpp</text>
</a>
</g>
</g>
<!-- Node1&#45;&gt;Node12 -->
<g id="edge13_Node000001_Node000012" class="edge">
<title>Node1&#45;&gt;Node12</title>
<g id="a_edge13_Node000001_Node000012"><a xlink:title=" ">
<path fill="none" stroke="#63b8ff" d="M909.66,-144.37C779.67,-140.46 472.4,-128.32 216.62,-96 208.31,-94.95 199.65,-93.65 191.04,-92.23"/>
<polygon fill="#63b8ff" stroke="#63b8ff" points="191.42,-88.75 180.97,-90.52 190.24,-95.65 191.42,-88.75"/>
</a>
</g>
</g>
<!-- Node13 -->
<g id="Node000013" class="node">
<title>Node13</title>
<g id="a_Node000013"><a xlink:href="_socket_shutdown_enum_8hpp.html" target="_top" xlink:title=" ">
<polygon fill="white" stroke="#666666" points="980.12,-90.5 795.12,-90.5 795.12,-60.5 980.12,-60.5 980.12,-90.5"/>
<text text-anchor="start" x="803.12" y="-78.5" font-family="Helvetica,sans-Serif" font-size="10.00">Hermes/_base/OsApi</text>
<text text-anchor="middle" x="887.62" y="-67.5" font-family="Helvetica,sans-Serif" font-size="10.00">/Enums/SocketShutdownEnum.hpp</text>
</a>
</g>
</g>
<!-- Node1&#45;&gt;Node13 -->
<g id="edge15_Node000001_Node000013" class="edge">
<title>Node1&#45;&gt;Node13</title>
<g id="a_edge15_Node000001_Node000013"><a xlink:title=" ">
<path fill="none" stroke="#63b8ff" d="M955.42,-131.94C943.21,-121.95 926.62,-108.38 912.9,-97.17"/>
<polygon fill="#63b8ff" stroke="#63b8ff" points="914.76,-94.16 904.8,-90.54 910.33,-99.58 914.76,-94.16"/>
</a>
</g>
</g>
<!-- Node14 -->
<g id="Node000014" class="node">
<title>Node14</title>
<g id="a_Node000014"><a xlink:href="_socket_type_enum_8hpp.html" target="_top" xlink:title=" ">
<polygon fill="white" stroke="#666666" points="472.12,-90.5 313.12,-90.5 313.12,-60.5 472.12,-60.5 472.12,-90.5"/>
<text text-anchor="start" x="321.12" y="-78.5" font-family="Helvetica,sans-Serif" font-size="10.00">Hermes/_base/OsApi</text>
<text text-anchor="middle" x="392.62" y="-67.5" font-family="Helvetica,sans-Serif" font-size="10.00">/Enums/SocketTypeEnum.hpp</text>
</a>
</g>
</g>
<!-- Node1&#45;&gt;Node14 -->
<g id="edge17_Node000001_Node000014" class="edge">
<title>Node1&#45;&gt;Node14</title>
<g id="a_edge17_Node000001_Node000014"><a xlink:title=" ">
<path fill="none" stroke="#63b8ff" d="M909.8,-141.97C815.96,-135.43 633.84,-120.67 480.62,-96 474.44,-95 468.04,-93.84 461.64,-92.59"/>
<polygon fill="#63b8ff" stroke="#63b8ff" points="462.11,-89.12 451.61,-90.56 460.72,-95.98 462.11,-89.12"/>
</a>
</g>
</g>
<!-- Node15 -->
<g id="Node000015" class="node">
<title>Node15</title>
<g id="a_Node000015"><a xlink:href="_linux_2_encrypt_status_enum_8hpp.html" target="_top" xlink:title=" ">
<polygon fill="white" stroke="#666666" points="1486.62,-96 1334.62,-96 1334.62,-55 1486.62,-55 1486.62,-96"/>
<text text-anchor="start" x="1342.62" y="-84" font-family="Helvetica,sans-Serif" font-size="10.00">Hermes/_base/OsApi</text>
<text text-anchor="start" x="1342.62" y="-73" font-family="Helvetica,sans-Serif" font-size="10.00">/Enums/Linux/EncryptStatus</text>
<text text-anchor="middle" x="1410.62" y="-62" font-family="Helvetica,sans-Serif" font-size="10.00">Enum.hpp</text>
</a>
</g>
</g>
<!-- Node1&#45;&gt;Node15 -->
<g id="edge19_Node000001_Node000015" class="edge">
<title>Node1&#45;&gt;Node15</title>
<g id="a_edge19_Node000001_Node000015"><a xlink:title=" ">
<path fill="none" stroke="#63b8ff" d="M1035.37,-138.74C1104.02,-130.44 1217.47,-115.64 1324.25,-96.18"/>
<polygon fill="#63b8ff" stroke="#63b8ff" points="1325.03,-99.6 1334.23,-94.35 1323.76,-92.71 1325.03,-99.6"/>
</a>
</g>
</g>
<!-- Node16 -->
<g id="Node000016" class="node">
<title>Node16</title>
<g id="a_Node000016"><a xlink:href="_name_info_flags_8hpp.html" target="_top" xlink:title=" ">
<polygon fill="white" stroke="#666666" points="1316.62,-90.5 1172.62,-90.5 1172.62,-60.5 1316.62,-60.5 1316.62,-90.5"/>
<text text-anchor="start" x="1180.62" y="-78.5" font-family="Helvetica,sans-Serif" font-size="10.00">Hermes/_base/OsApi</text>
<text text-anchor="middle" x="1244.62" y="-67.5" font-family="Helvetica,sans-Serif" font-size="10.00">/Flags/NameInfoFlags.hpp</text>
</a>
</g>
</g>
<!-- Node1&#45;&gt;Node16 -->
<g id="edge20_Node000001_Node000016" class="edge">
<title>Node1&#45;&gt;Node16</title>
<g id="a_edge20_Node000001_Node000016"><a xlink:title=" ">
<path fill="none" stroke="#63b8ff" d="M1027.67,-131.94C1071.63,-120.7 1133.34,-104.93 1179.72,-93.09"/>
<polygon fill="#63b8ff" stroke="#63b8ff" points="1180.84,-96.41 1189.66,-90.54 1179.11,-89.63 1180.84,-96.41"/>
</a>
</g>
</g>
<!-- Node17 -->
<g id="Node000017" class="node">
<title>Node17</title>
<g id="a_Node000017"><a xlink:href="_linux_2_credential_flags_8hpp.html" target="_top" xlink:title=" ">
<polygon fill="white" stroke="#666666" points="1848.62,-90.5 1672.62,-90.5 1672.62,-60.5 1848.62,-60.5 1848.62,-90.5"/>
<text text-anchor="start" x="1680.62" y="-78.5" font-family="Helvetica,sans-Serif" font-size="10.00">Hermes/_base/OsApi</text>
<text text-anchor="middle" x="1760.62" y="-67.5" font-family="Helvetica,sans-Serif" font-size="10.00">/Flags/Linux/CredentialFlags.hpp</text>
</a>
</g>
</g>
<!-- Node1&#45;&gt;Node17 -->
<g id="edge22_Node000001_Node000017" class="edge">
<title>Node1&#45;&gt;Node17</title>
<g id="a_edge22_Node000001_Node000017"><a xlink:title=" ">
<path fill="none" stroke="#63b8ff" d="M1035.31,-144.11C1156.95,-139.86 1433.31,-127.36 1663.62,-96 1671.16,-94.97 1679,-93.72 1686.8,-92.34"/>
<polygon fill="#63b8ff" stroke="#63b8ff" points="1687.43,-95.79 1696.64,-90.55 1686.17,-88.9 1687.43,-95.79"/>
</a>
</g>
</g>
<!-- Node18 -->
<g id="Node000018" class="node">
<title>Node18</title>
<g id="a_Node000018"><a xlink:href="_linux_2_supported_protocols_flags_8hpp.html" target="_top" xlink:title=" ">
<polygon fill="white" stroke="#666666" points="2040.12,-96 1867.12,-96 1867.12,-55 2040.12,-55 2040.12,-96"/>
<text text-anchor="start" x="1875.12" y="-84" font-family="Helvetica,sans-Serif" font-size="10.00">Hermes/_base/OsApi</text>
<text text-anchor="start" x="1875.12" y="-73" font-family="Helvetica,sans-Serif" font-size="10.00">/Flags/Linux/SupportedProtocols</text>
<text text-anchor="middle" x="1953.62" y="-62" font-family="Helvetica,sans-Serif" font-size="10.00">Flags.hpp</text>
</a>
</g>
</g>
<!-- Node1&#45;&gt;Node18 -->
<g id="edge23_Node000001_Node000018" class="edge">
<title>Node1&#45;&gt;Node18</title>
<g id="a_edge23_Node000001_Node000018"><a xlink:title=" ">
<path fill="none" stroke="#63b8ff" d="M1035.14,-145.55C1178.67,-143.86 1542.91,-135.79 1856.9,-95.98"/>
<polygon fill="#63b8ff" stroke="#63b8ff" points="1857.64,-99.41 1867.11,-94.67 1856.75,-92.47 1857.64,-99.41"/>
</a>
</g>
</g>
<!-- Node19 -->
<g id="Node000019" class="node">
<title>Node19</title>
<g id="a_Node000019"><a xlink:href="_linux_2_s_channel_cred_flags_8hpp.html" target="_top" xlink:title=" ">
<polygon fill="white" stroke="#666666" points="2252.62,-90.5 2058.62,-90.5 2058.62,-60.5 2252.62,-60.5 2252.62,-90.5"/>
<text text-anchor="start" x="2066.62" y="-78.5" font-family="Helvetica,sans-Serif" font-size="10.00">Hermes/_base/OsApi</text>
<text text-anchor="middle" x="2155.62" y="-67.5" font-family="Helvetica,sans-Serif" font-size="10.00">/Flags/Linux/SChannelCredFlags.hpp</text>
</a>
</g>
</g>
<!-- Node1&#45;&gt;Node19 -->
<g id="edge24_Node000001_Node000019" class="edge">
<title>Node1&#45;&gt;Node19</title>
<g id="a_edge24_Node000001_Node000019"><a xlink:title=" ">
<path fill="none" stroke="#63b8ff" d="M1035.38,-146.05C1201.47,-145.55 1666.08,-139.98 2049.62,-96 2058.57,-94.97 2067.89,-93.65 2077.14,-92.16"/>
<polygon fill="#63b8ff" stroke="#63b8ff" points="2077.83,-95.6 2087.12,-90.5 2076.68,-88.69 2077.83,-95.6"/>
</a>
</g>
</g>
<!-- Node8 -->
<g id="Node000008" class="node">
<title>Node8</title>
<g id="a_Node000008"><a xlink:title=" ">
<polygon fill="#e0e0e0" stroke="#999999" points="1604.62,-19 1554.62,-19 1554.62,0 1604.62,0 1604.62,-19"/>
<text text-anchor="middle" x="1579.62" y="-7" font-family="Helvetica,sans-Serif" font-size="10.00">cstdint</text>
</a>
</g>
</g>
<!-- Node7&#45;&gt;Node8 -->
<g id="edge7_Node000007_Node000008" class="edge">
<title>Node7&#45;&gt;Node8</title>
<g id="a_edge7_Node000007_Node000008"><a xlink:title=" ">
<path fill="none" stroke="#63b8ff" d="M1579.62,-60.3C1579.62,-51.2 1579.62,-39.29 1579.62,-29.4"/>
<polygon fill="#63b8ff" stroke="#63b8ff" points="1583.12,-29.34 1579.62,-19.34 1576.12,-29.34 1583.12,-29.34"/>
</a>
</g>
</g>
<!-- Node9&#45;&gt;Node2 -->
<g id="edge10_Node000009_Node000002" class="edge">
<title>Node9&#45;&gt;Node2</title>
<g id="a_edge10_Node000009_Node000002"><a xlink:title=" ">
<path fill="none" stroke="#63b8ff" d="M1011.06,-60.47C1003.6,-58.47 995.93,-56.57 988.62,-55 901.25,-36.23 797.83,-22.74 738.36,-15.81"/>
<polygon fill="#63b8ff" stroke="#63b8ff" points="738.47,-12.3 728.14,-14.64 737.67,-19.26 738.47,-12.3"/>
</a>
</g>
</g>
<!-- Node10 -->
<g id="Node000010" class="node">
<title>Node10</title>
<g id="a_Node000010"><a xlink:title=" ">
<polygon fill="#e0e0e0" stroke="#999999" points="1094.12,-19 1021.12,-19 1021.12,0 1094.12,0 1094.12,-19"/>
<text text-anchor="middle" x="1057.62" y="-7" font-family="Helvetica,sans-Serif" font-size="10.00">string_view</text>
</a>
</g>
</g>
<!-- Node9&#45;&gt;Node10 -->
<g id="edge9_Node000009_Node000010" class="edge">
<title>Node9&#45;&gt;Node10</title>
<g id="a_edge9_Node000009_Node000010"><a xlink:title=" ">
<path fill="none" stroke="#63b8ff" d="M1057.62,-60.3C1057.62,-51.2 1057.62,-39.29 1057.62,-29.4"/>
<polygon fill="#63b8ff" stroke="#63b8ff" points="1061.12,-29.34 1057.62,-19.34 1054.12,-29.34 1061.12,-29.34"/>
</a>
</g>
</g>
<!-- Node11&#45;&gt;Node2 -->
<g id="edge12_Node000011_Node000002" class="edge">
<title>Node11&#45;&gt;Node2</title>
<g id="a_edge12_Node000011_Node000002"><a xlink:title=" ">
<path fill="none" stroke="#63b8ff" d="M689.62,-60.3C689.62,-51.2 689.62,-39.29 689.62,-29.4"/>
<polygon fill="#63b8ff" stroke="#63b8ff" points="693.12,-29.34 689.62,-19.34 686.12,-29.34 693.12,-29.34"/>
</a>
</g>
</g>
<!-- Node12&#45;&gt;Node3 -->
<g id="edge14_Node000012_Node000003" class="edge">
<title>Node12&#45;&gt;Node3</title>
<g id="a_edge14_Node000012_Node000003"><a xlink:title=" ">
<path fill="none" stroke="#63b8ff" d="M98.86,-60.3C89.2,-50.32 76.25,-36.96 66.21,-26.59"/>
<polygon fill="#63b8ff" stroke="#63b8ff" points="68.66,-24.09 59.19,-19.34 63.64,-28.96 68.66,-24.09"/>
</a>
</g>
</g>
<!-- Node13&#45;&gt;Node2 -->
<g id="edge16_Node000013_Node000002" class="edge">
<title>Node13&#45;&gt;Node2</title>
<g id="a_edge16_Node000013_Node000002"><a xlink:title=" ">
<path fill="none" stroke="#63b8ff" d="M844.17,-60.45C808.68,-48.98 759.11,-32.96 725.77,-22.18"/>
<polygon fill="#63b8ff" stroke="#63b8ff" points="726.57,-18.76 715.97,-19.02 724.41,-25.42 726.57,-18.76"/>
</a>
</g>
</g>
<!-- Node14&#45;&gt;Node2 -->
<g id="edge18_Node000014_Node000002" class="edge">
<title>Node14&#45;&gt;Node2</title>
<g id="a_edge18_Node000014_Node000002"><a xlink:title=" ">
<path fill="none" stroke="#63b8ff" d="M455.58,-60.48C464,-58.63 472.52,-56.76 480.62,-55 535.55,-43.07 598.67,-29.67 641.04,-20.73"/>
<polygon fill="#63b8ff" stroke="#63b8ff" points="642.02,-24.1 651.08,-18.61 640.58,-17.25 642.02,-24.1"/>
</a>
</g>
</g>
<!-- Node16&#45;&gt;Node5 -->
<g id="edge21_Node000016_Node000005" class="edge">
<title>Node16&#45;&gt;Node5</title>
<g id="a_edge21_Node000016_Node000005"><a xlink:title=" ">
<path fill="none" stroke="#63b8ff" d="M1233.53,-60.3C1225.96,-50.61 1215.9,-37.74 1207.91,-27.51"/>
<polygon fill="#63b8ff" stroke="#63b8ff" points="1210.45,-25.07 1201.53,-19.34 1204.93,-29.38 1210.45,-25.07"/>
</a>
</g>
</g>
</g>
</svg>
