<?xml version="1.0" encoding="UTF-8" standalone="no"?>
<!DOCTYPE svg PUBLIC "-//W3C//DTD SVG 1.1//EN"
 "http://www.w3.org/Graphics/SVG/1.1/DTD/svg11.dtd">
<!-- Generated by graphviz version 2.43.0 (0)
 -->
<!-- Title: include/Hermes/_base/OsApi/OsApi.hpp Pages: 1 -->
<svg width="2420pt" height="170pt"
 viewBox="0.00 0.00 2419.50 170.00" xmlns="http://www.w3.org/2000/svg" xmlns:xlink="http://www.w3.org/1999/xlink">
<g id="graph0" class="graph" transform="scale(1 1) rotate(0) translate(4 166)">
<title>include/Hermes/_base/OsApi/OsApi.hpp</title>
<!-- Node1 -->
<g id="Node000001" class="node">
<title>Node1</title>
<g id="a_Node000001"><a xlink:title=" ">
<polygon fill="#999999" stroke="#666666" points="1122,-162 997,-162 997,-132 1122,-132 1122,-162"/>
<text text-anchor="start" x="1005" y="-150" font-family="Helvetica,sans-Serif" font-size="10.00">include/Hermes/_base</text>
<text text-anchor="middle" x="1059.5" y="-139" font-family="Helvetica,sans-Serif" font-size="10.00">/OsApi/OsApi.hpp</text>
</a>
</g>
</g>
<!-- Node2 -->
<g id="Node000002" class="node">
<title>Node2</title>
<g id="a_Node000002"><a xlink:title=" ">
<polygon fill="#e0e0e0" stroke="#999999" points="908,-19 831,-19 831,0 908,0 908,-19"/>
<text text-anchor="middle" x="869.5" y="-7" font-family="Helvetica,sans-Serif" font-size="10.00">sys/socket.h</text>
</a>
</g>
</g>
<!-- Node1&#45;&gt;Node2 -->
<g id="edge1_Node000001_Node000002" class="edge">
<title>Node1&#45;&gt;Node2</title>
<g id="a_edge1_Node000001_Node000002"><a xlink:title=" ">
<path fill="none" stroke="#63b8ff" d="M996.96,-146.24C834.2,-146.22 407.1,-141.77 364.5,-96 352.09,-82.66 352.19,-68.44 364.5,-55 394.93,-21.77 699.82,-13.23 820.6,-11.14"/>
<polygon fill="#63b8ff" stroke="#63b8ff" points="820.74,-14.64 830.68,-10.97 820.62,-7.64 820.74,-14.64"/>
</a>
</g>
</g>
<!-- Node3 -->
<g id="Node000003" class="node">
<title>Node3</title>
<g id="a_Node000003"><a xlink:title=" ">
<polygon fill="#e0e0e0" stroke="#999999" points="193.5,-19 121.5,-19 121.5,0 193.5,0 193.5,-19"/>
<text text-anchor="middle" x="157.5" y="-7" font-family="Helvetica,sans-Serif" font-size="10.00">netinet/in.h</text>
</a>
</g>
</g>
<!-- Node1&#45;&gt;Node3 -->
<g id="edge2_Node000001_Node000003" class="edge">
<title>Node1&#45;&gt;Node3</title>
<g id="a_edge2_Node000001_Node000003"><a xlink:title=" ">
<path fill="none" stroke="#63b8ff" d="M996.73,-144.82C816.59,-141.07 306.52,-127.74 238.5,-96 237.97,-95.75 196.27,-51.6 172.92,-26.85"/>
<polygon fill="#63b8ff" stroke="#63b8ff" points="175.2,-24.17 165.79,-19.29 170.11,-28.97 175.2,-24.17"/>
</a>
</g>
</g>
<!-- Node4 -->
<g id="Node000004" class="node">
<title>Node4</title>
<g id="a_Node000004"><a xlink:title=" ">
<polygon fill="#e0e0e0" stroke="#999999" points="317,-85 248,-85 248,-66 317,-66 317,-85"/>
<text text-anchor="middle" x="282.5" y="-73" font-family="Helvetica,sans-Serif" font-size="10.00">arpa/inet.h</text>
</a>
</g>
</g>
<!-- Node1&#45;&gt;Node4 -->
<g id="edge3_Node000001_Node000004" class="edge">
<title>Node1&#45;&gt;Node4</title>
<g id="a_edge3_Node000001_Node000004"><a xlink:title=" ">
<path fill="none" stroke="#63b8ff" d="M996.91,-144.19C844.5,-139.38 457.42,-124.64 331.5,-96 324.3,-94.36 316.78,-91.82 309.85,-89.11"/>
<polygon fill="#63b8ff" stroke="#63b8ff" points="310.8,-85.72 300.22,-85.1 308.11,-92.18 310.8,-85.72"/>
</a>
</g>
</g>
<!-- Node5 -->
<g id="Node000005" class="node">
<title>Node5</title>
<g id="a_Node000005"><a xlink:title=" ">
<polygon fill="#e0e0e0" stroke="#999999" points="1442,-19 1389,-19 1389,0 1442,0 1442,-19"/>
<text text-anchor="middle" x="1415.5" y="-7" font-family="Helvetica,sans-Serif" font-size="10.00">netdb.h</text>
</a>
</g>
</g>
<!-- Node1&#45;&gt;Node5 -->
<g id="edge4_Node000001_Node000005" class="edge">
<title>Node1&#45;&gt;Node5</title>
<g id="a_edge4_Node000001_Node000005"><a xlink:title=" ">
<path fill="none" stroke="#63b8ff" d="M1122.05,-142.38C1226.09,-135.71 1425.45,-119.95 1446.5,-96 1464.04,-76.05 1445.14,-45.4 1430.12,-26.72"/>
<polygon fill="#63b8ff" stroke="#63b8ff" points="1432.77,-24.44 1423.63,-19.07 1427.43,-28.96 1432.77,-24.44"/>
</a>
</g>
</g>
<!-- Node6 -->
<g id="Node000006" class="node">
<title>Node6</title>
<g id="a_Node000006"><a xlink:title=" ">
<polygon fill="#e0e0e0" stroke="#999999" points="429.5,-85 373.5,-85 373.5,-66 429.5,-66 429.5,-85"/>
<text text-anchor="middle" x="401.5" y="-73" font-family="Helvetica,sans-Serif" font-size="10.00">unistd.h</text>
</a>
</g>
</g>
<!-- Node1&#45;&gt;Node6 -->
<g id="edge5_Node000001_Node000006" class="edge">
<title>Node1&#45;&gt;Node6</title>
<g id="a_edge5_Node000001_Node000006"><a xlink:title=" ">
<path fill="none" stroke="#63b8ff" d="M996.99,-144.16C860.97,-139.63 542.04,-126.08 438.5,-96 433.53,-94.56 428.46,-92.41 423.73,-90.05"/>
<polygon fill="#63b8ff" stroke="#63b8ff" points="425.1,-86.81 414.65,-85.11 421.76,-92.96 425.1,-86.81"/>
</a>
</g>
</g>
<!-- Node7 -->
<g id="Node000007" class="node">
<title>Node7</title>
<g id="a_Node000007"><a xlink:href="_types_8hpp.html" target="_top" xlink:title=" ">
<polygon fill="white" stroke="#666666" points="565.5,-90.5 447.5,-90.5 447.5,-60.5 565.5,-60.5 565.5,-90.5"/>
<text text-anchor="start" x="455.5" y="-78.5" font-family="Helvetica,sans-Serif" font-size="10.00">Hermes/_base/OsApi</text>
<text text-anchor="middle" x="506.5" y="-67.5" font-family="Helvetica,sans-Serif" font-size="10.00">/Types.hpp</text>
</a>
</g>
</g>
<!-- Node1&#45;&gt;Node7 -->
<g id="edge6_Node000001_Node000007" class="edge">
<title>Node1&#45;&gt;Node7</title>
<g id="a_edge6_Node000001_Node000007"><a xlink:title=" ">
<path fill="none" stroke="#63b8ff" d="M996.97,-143.09C904.09,-137.97 724.51,-125.01 574.5,-96 570.11,-95.15 565.59,-94.15 561.07,-93.05"/>
<polygon fill="#63b8ff" stroke="#63b8ff" points="561.77,-89.62 551.22,-90.53 560.04,-96.4 561.77,-89.62"/>
</a>
</g>
</g>
<!-- Node8 -->
<g id="Node000008" class="node">
<title>Node8</title>
<g id="a_Node000008"><a xlink:href="_conversion_and_literals_8hpp.html" target="_top" xlink:title=" ">
<polygon fill="white" stroke="#666666" points="1813.5,-90.5 1663.5,-90.5 1663.5,-60.5 1813.5,-60.5 1813.5,-90.5"/>
<text text-anchor="start" x="1671.5" y="-78.5" font-family="Helvetica,sans-Serif" font-size="10.00">Hermes/_base/OsApi</text>
<text text-anchor="middle" x="1738.5" y="-67.5" font-family="Helvetica,sans-Serif" font-size="10.00">/ConversionAndLiterals.hpp</text>
</a>
</g>
</g>
<!-- Node1&#45;&gt;Node8 -->
<g id="edge7_Node000001_Node000008" class="edge">
<title>Node1&#45;&gt;Node8</title>
<g id="a_edge7_Node000001_Node000008"><a xlink:title=" ">
<path fill="none" stroke="#63b8ff" d="M1122.39,-143.7C1231.34,-139.05 1461.98,-126.27 1654.5,-96 1660.61,-95.04 1666.94,-93.88 1673.26,-92.61"/>
<polygon fill="#63b8ff" stroke="#63b8ff" points="1674.08,-96.02 1683.14,-90.54 1672.64,-89.16 1674.08,-96.02"/>
</a>
</g>
</g>
<!-- Node10 -->
<g id="Node000010" class="node">
<title>Node10</title>
<g id="a_Node000010"><a xlink:href="_macros_8hpp.html" target="_top" xlink:title=" ">
<polygon fill="white" stroke="#666666" points="1275.5,-90.5 1157.5,-90.5 1157.5,-60.5 1275.5,-60.5 1275.5,-90.5"/>
<text text-anchor="start" x="1165.5" y="-78.5" font-family="Helvetica,sans-Serif" font-size="10.00">Hermes/_base/OsApi</text>
<text text-anchor="middle" x="1216.5" y="-67.5" font-family="Helvetica,sans-Serif" font-size="10.00">/Macros.hpp</text>
</a>
</g>
</g>
<!-- Node1&#45;&gt;Node10 -->
<g id="edge9_Node000001_Node000010" class="edge">
<title>Node1&#45;&gt;Node10</title>
<g id="a_edge9_Node000001_Node000010"><a xlink:title=" ">
<path fill="none" stroke="#63b8ff" d="M1091.27,-131.94C1115.53,-121.2 1149.15,-106.31 1175.45,-94.67"/>
<polygon fill="#63b8ff" stroke="#63b8ff" points="1177.05,-97.79 1184.78,-90.54 1174.22,-91.39 1177.05,-97.79"/>
</a>
</g>
</g>
<!-- Node12 -->
<g id="Node000012" class="node">
<title>Node12</title>
<g id="a_Node000012"><a xlink:href="_address_family_enum_8hpp.html" target="_top" xlink:title=" ">
<polygon fill="white" stroke="#666666" points="759.5,-90.5 583.5,-90.5 583.5,-60.5 759.5,-60.5 759.5,-90.5"/>
<text text-anchor="start" x="591.5" y="-78.5" font-family="Helvetica,sans-Serif" font-size="10.00">Hermes/_base/OsApi</text>
<text text-anchor="middle" x="671.5" y="-67.5" font-family="Helvetica,sans-Serif" font-size="10.00">/Enums/AddressFamilyEnum.hpp</text>
</a>
</g>
</g>
<!-- Node1&#45;&gt;Node12 -->
<g id="edge12_Node000001_Node000012" class="edge">
<title>Node1&#45;&gt;Node12</title>
<g id="a_edge12_Node000001_Node000012"><a xlink:title=" ">
<path fill="none" stroke="#63b8ff" d="M996.74,-135.83C937.54,-126.1 846.37,-110.76 767.5,-96 761.47,-94.87 755.23,-93.67 748.96,-92.45"/>
<polygon fill="#63b8ff" stroke="#63b8ff" points="749.59,-89.01 739.11,-90.5 748.24,-95.87 749.59,-89.01"/>
</a>
</g>
</g>
<!-- Node13 -->
<g id="Node000013" class="node">
<title>Node13</title>
<g id="a_Node000013"><a xlink:href="_protocol_base_type_enum_8hpp.html" target="_top" xlink:title=" ">
<polygon fill="white" stroke="#666666" points="191,-90.5 0,-90.5 0,-60.5 191,-60.5 191,-90.5"/>
<text text-anchor="start" x="8" y="-78.5" font-family="Helvetica,sans-Serif" font-size="10.00">Hermes/_base/OsApi</text>
<text text-anchor="middle" x="95.5" y="-67.5" font-family="Helvetica,sans-Serif" font-size="10.00">/Enums/ProtocolBaseTypeEnum.hpp</text>
</a>
</g>
</g>
<!-- Node1&#45;&gt;Node13 -->
<g id="edge14_Node000001_Node000013" class="edge">
<title>Node1&#45;&gt;Node13</title>
<g id="a_edge14_Node000001_Node000013"><a xlink:title=" ">
<path fill="none" stroke="#63b8ff" d="M996.87,-144.84C855.36,-141.67 500.32,-130.64 205.5,-96 196.45,-94.94 187.01,-93.61 177.64,-92.14"/>
<polygon fill="#63b8ff" stroke="#63b8ff" points="177.94,-88.65 167.51,-90.51 176.82,-95.56 177.94,-88.65"/>
</a>
</g>
</g>
<!-- Node14 -->
<g id="Node000014" class="node">
<title>Node14</title>
<g id="a_Node000014"><a xlink:href="_socket_shutdown_enum_8hpp.html" target="_top" xlink:title=" ">
<polygon fill="white" stroke="#666666" points="962,-90.5 777,-90.5 777,-60.5 962,-60.5 962,-90.5"/>
<text text-anchor="start" x="785" y="-78.5" font-family="Helvetica,sans-Serif" font-size="10.00">Hermes/_base/OsApi</text>
<text text-anchor="middle" x="869.5" y="-67.5" font-family="Helvetica,sans-Serif" font-size="10.00">/Enums/SocketShutdownEnum.hpp</text>
</a>
</g>
</g>
<!-- Node1&#45;&gt;Node14 -->
<g id="edge16_Node000001_Node000014" class="edge">
<title>Node1&#45;&gt;Node14</title>
<g id="a_edge16_Node000001_Node000014"><a xlink:title=" ">
<path fill="none" stroke="#63b8ff" d="M1021.05,-131.94C991.18,-121.01 949.57,-105.79 917.51,-94.06"/>
<polygon fill="#63b8ff" stroke="#63b8ff" points="918.49,-90.69 907.89,-90.54 916.08,-97.27 918.49,-90.69"/>
</a>
</g>
</g>
<!-- Node15 -->
<g id="Node000015" class="node">
<title>Node15</title>
<g id="a_Node000015"><a xlink:href="_socket_type_enum_8hpp.html" target="_top" xlink:title=" ">
<polygon fill="white" stroke="#666666" points="1139,-90.5 980,-90.5 980,-60.5 1139,-60.5 1139,-90.5"/>
<text text-anchor="start" x="988" y="-78.5" font-family="Helvetica,sans-Serif" font-size="10.00">Hermes/_base/OsApi</text>
<text text-anchor="middle" x="1059.5" y="-67.5" font-family="Helvetica,sans-Serif" font-size="10.00">/Enums/SocketTypeEnum.hpp</text>
</a>
</g>
</g>
<!-- Node1&#45;&gt;Node15 -->
<g id="edge18_Node000001_Node000015" class="edge">
<title>Node1&#45;&gt;Node15</title>
<g id="a_edge18_Node000001_Node000015"><a xlink:title=" ">
<path fill="none" stroke="#63b8ff" d="M1059.5,-131.94C1059.5,-122.99 1059.5,-111.16 1059.5,-100.73"/>
<polygon fill="#63b8ff" stroke="#63b8ff" points="1063,-100.54 1059.5,-90.54 1056,-100.54 1063,-100.54"/>
</a>
</g>
</g>
<!-- Node16 -->
<g id="Node000016" class="node">
<title>Node16</title>
<g id="a_Node000016"><a xlink:href="_linux_2_encrypt_status_enum_8hpp.html" target="_top" xlink:title=" ">
<polygon fill="white" stroke="#666666" points="1645.5,-96 1493.5,-96 1493.5,-55 1645.5,-55 1645.5,-96"/>
<text text-anchor="start" x="1501.5" y="-84" font-family="Helvetica,sans-Serif" font-size="10.00">Hermes/_base/OsApi</text>
<text text-anchor="start" x="1501.5" y="-73" font-family="Helvetica,sans-Serif" font-size="10.00">/Enums/Linux/EncryptStatus</text>
<text text-anchor="middle" x="1569.5" y="-62" font-family="Helvetica,sans-Serif" font-size="10.00">Enum.hpp</text>
</a>
</g>
</g>
<!-- Node1&#45;&gt;Node16 -->
<g id="edge20_Node000001_Node000016" class="edge">
<title>Node1&#45;&gt;Node16</title>
<g id="a_edge20_Node000001_Node000016"><a xlink:title=" ">
<path fill="none" stroke="#63b8ff" d="M1122.03,-140.43C1204.31,-132.66 1353.3,-117.13 1479.5,-96 1480.79,-95.78 1482.08,-95.56 1483.38,-95.34"/>
<polygon fill="#63b8ff" stroke="#63b8ff" points="1484.28,-98.73 1493.49,-93.5 1483.02,-91.84 1484.28,-98.73"/>
</a>
</g>
</g>
<!-- Node17 -->
<g id="Node000017" class="node">
<title>Node17</title>
<g id="a_Node000017"><a xlink:href="_name_info_flags_8hpp.html" target="_top" xlink:title=" ">
<polygon fill="white" stroke="#666666" points="1437.5,-90.5 1293.5,-90.5 1293.5,-60.5 1437.5,-60.5 1437.5,-90.5"/>
<text text-anchor="start" x="1301.5" y="-78.5" font-family="Helvetica,sans-Serif" font-size="10.00">Hermes/_base/OsApi</text>
<text text-anchor="middle" x="1365.5" y="-67.5" font-family="Helvetica,sans-Serif" font-size="10.00">/Flags/NameInfoFlags.hpp</text>
</a>
</g>
</g>
<!-- Node1&#45;&gt;Node17 -->
<g id="edge21_Node000001_Node000017" class="edge">
<title>Node1&#45;&gt;Node17</title>
<g id="a_edge21_Node000001_Node000017"><a xlink:title=" ">
<path fill="none" stroke="#63b8ff" d="M1122.12,-132.39C1167.3,-122.5 1229.73,-108.68 1284.5,-96 1288.82,-95 1293.26,-93.96 1297.74,-92.91"/>
<polygon fill="#63b8ff" stroke="#63b8ff" points="1298.64,-96.29 1307.57,-90.58 1297.03,-89.48 1298.64,-96.29"/>
</a>
</g>
</g>
<!-- Node18 -->
<g id="Node000018" class="node">
<title>Node18</title>
<g id="a_Node000018"><a xlink:href="_linux_2_credential_flags_8hpp.html" target="_top" xlink:title=" ">
<polygon fill="white" stroke="#666666" points="2007.5,-90.5 1831.5,-90.5 1831.5,-60.5 2007.5,-60.5 2007.5,-90.5"/>
<text text-anchor="start" x="1839.5" y="-78.5" font-family="Helvetica,sans-Serif" font-size="10.00">Hermes/_base/OsApi</text>
<text text-anchor="middle" x="1919.5" y="-67.5" font-family="Helvetica,sans-Serif" font-size="10.00">/Flags/Linux/CredentialFlags.hpp</text>
</a>
</g>
</g>
<!-- Node1&#45;&gt;Node18 -->
<g id="edge23_Node000001_Node000018" class="edge">
<title>Node1&#45;&gt;Node18</title>
<g id="a_edge23_Node000001_Node000018"><a xlink:title=" ">
<path fill="none" stroke="#63b8ff" d="M1122.09,-144.71C1252.76,-141.41 1563.91,-130.31 1822.5,-96 1830.16,-94.98 1838.13,-93.72 1846.05,-92.33"/>
<polygon fill="#63b8ff" stroke="#63b8ff" points="1846.84,-95.75 1856.05,-90.51 1845.58,-88.86 1846.84,-95.75"/>
</a>
</g>
</g>
<!-- Node19 -->
<g id="Node000019" class="node">
<title>Node19</title>
<g id="a_Node000019"><a xlink:href="_linux_2_supported_protocols_flags_8hpp.html" target="_top" xlink:title=" ">
<polygon fill="white" stroke="#666666" points="2199,-96 2026,-96 2026,-55 2199,-55 2199,-96"/>
<text text-anchor="start" x="2034" y="-84" font-family="Helvetica,sans-Serif" font-size="10.00">Hermes/_base/OsApi</text>
<text text-anchor="start" x="2034" y="-73" font-family="Helvetica,sans-Serif" font-size="10.00">/Flags/Linux/SupportedProtocols</text>
<text text-anchor="middle" x="2112.5" y="-62" font-family="Helvetica,sans-Serif" font-size="10.00">Flags.hpp</text>
</a>
</g>
</g>
<!-- Node1&#45;&gt;Node19 -->
<g id="edge24_Node000001_Node000019" class="edge">
<title>Node1&#45;&gt;Node19</title>
<g id="a_edge24_Node000001_Node000019"><a xlink:title=" ">
<path fill="none" stroke="#63b8ff" d="M1122.21,-145.93C1274.01,-145.07 1673.35,-138.69 2015.87,-95.96"/>
<polygon fill="#63b8ff" stroke="#63b8ff" points="2016.51,-99.41 2025.99,-94.69 2015.63,-92.46 2016.51,-99.41"/>
</a>
</g>
</g>
<!-- Node20 -->
<g id="Node000020" class="node">
<title>Node20</title>
<g id="a_Node000020"><a xlink:href="_linux_2_s_channel_cred_flags_8hpp.html" target="_top" xlink:title=" ">
<polygon fill="white" stroke="#666666" points="2411.5,-90.5 2217.5,-90.5 2217.5,-60.5 2411.5,-60.5 2411.5,-90.5"/>
<text text-anchor="start" x="2225.5" y="-78.5" font-family="Helvetica,sans-Serif" font-size="10.00">Hermes/_base/OsApi</text>
<text text-anchor="middle" x="2314.5" y="-67.5" font-family="Helvetica,sans-Serif" font-size="10.00">/Flags/Linux/SChannelCredFlags.hpp</text>
</a>
</g>
</g>
<!-- Node1&#45;&gt;Node20 -->
<g id="edge25_Node000001_Node000020" class="edge">
<title>Node1&#45;&gt;Node20</title>
<g id="a_edge25_Node000001_Node000020"><a xlink:title=" ">
<path fill="none" stroke="#63b8ff" d="M1122.01,-146.31C1295.23,-146.52 1795.83,-142.71 2208.5,-96 2217.44,-94.99 2226.77,-93.67 2236.02,-92.19"/>
<polygon fill="#63b8ff" stroke="#63b8ff" points="2236.71,-95.62 2246,-90.53 2235.56,-88.72 2236.71,-95.62"/>
</a>
</g>
</g>
<!-- Node9 -->
<g id="Node000009" class="node">
<title>Node9</title>
<g id="a_Node000009"><a xlink:title=" ">
<polygon fill="#e0e0e0" stroke="#999999" points="1763.5,-19 1713.5,-19 1713.5,0 1763.5,0 1763.5,-19"/>
<text text-anchor="middle" x="1738.5" y="-7" font-family="Helvetica,sans-Serif" font-size="10.00">cstdint</text>
</a>
</g>
</g>
<!-- Node8&#45;&gt;Node9 -->
<g id="edge8_Node000008_Node000009" class="edge">
<title>Node8&#45;&gt;Node9</title>
<g id="a_edge8_Node000008_Node000009"><a xlink:title=" ">
<path fill="none" stroke="#63b8ff" d="M1738.5,-60.3C1738.5,-51.2 1738.5,-39.29 1738.5,-29.4"/>
<polygon fill="#63b8ff" stroke="#63b8ff" points="1742,-29.34 1738.5,-19.34 1735,-29.34 1742,-29.34"/>
</a>
</g>
</g>
<!-- Node10&#45;&gt;Node2 -->
<g id="edge11_Node000010_Node000002" class="edge">
<title>Node10&#45;&gt;Node2</title>
<g id="a_edge11_Node000010_Node000002"><a xlink:title=" ">
<path fill="none" stroke="#63b8ff" d="M1169.55,-60.44C1162.2,-58.47 1154.67,-56.58 1147.5,-55 1067.97,-37.46 974.19,-23.9 918.41,-16.57"/>
<polygon fill="#63b8ff" stroke="#63b8ff" points="918.81,-13.09 908.45,-15.27 917.91,-20.04 918.81,-13.09"/>
</a>
</g>
</g>
<!-- Node11 -->
<g id="Node000011" class="node">
<title>Node11</title>
<g id="a_Node000011"><a xlink:title=" ">
<polygon fill="#e0e0e0" stroke="#999999" points="1253,-19 1180,-19 1180,0 1253,0 1253,-19"/>
<text text-anchor="middle" x="1216.5" y="-7" font-family="Helvetica,sans-Serif" font-size="10.00">string_view</text>
</a>
</g>
</g>
<!-- Node10&#45;&gt;Node11 -->
<g id="edge10_Node000010_Node000011" class="edge">
<title>Node10&#45;&gt;Node11</title>
<g id="a_edge10_Node000010_Node000011"><a xlink:title=" ">
<path fill="none" stroke="#63b8ff" d="M1216.5,-60.3C1216.5,-51.2 1216.5,-39.29 1216.5,-29.4"/>
<polygon fill="#63b8ff" stroke="#63b8ff" points="1220,-29.34 1216.5,-19.34 1213,-29.34 1220,-29.34"/>
</a>
</g>
</g>
<!-- Node12&#45;&gt;Node2 -->
<g id="edge13_Node000012_Node000002" class="edge">
<title>Node12&#45;&gt;Node2</title>
<g id="a_edge13_Node000012_Node000002"><a xlink:title=" ">
<path fill="none" stroke="#63b8ff" d="M714.95,-60.45C750.44,-48.98 800.01,-32.96 833.36,-22.18"/>
<polygon fill="#63b8ff" stroke="#63b8ff" points="834.71,-25.42 843.15,-19.02 832.56,-18.76 834.71,-25.42"/>
</a>
</g>
</g>
<!-- Node13&#45;&gt;Node3 -->
<g id="edge15_Node000013_Node000003" class="edge">
<title>Node13&#45;&gt;Node3</title>
<g id="a_edge15_Node000013_Node000003"><a xlink:title=" ">
<path fill="none" stroke="#63b8ff" d="M109.26,-60.3C118.93,-50.32 131.87,-36.96 141.92,-26.59"/>
<polygon fill="#63b8ff" stroke="#63b8ff" points="144.49,-28.96 148.93,-19.34 139.46,-24.09 144.49,-28.96"/>
</a>
</g>
</g>
<!-- Node14&#45;&gt;Node2 -->
<g id="edge17_Node000014_Node000002" class="edge">
<title>Node14&#45;&gt;Node2</title>
<g id="a_edge17_Node000014_Node000002"><a xlink:title=" ">
<path fill="none" stroke="#63b8ff" d="M869.5,-60.3C869.5,-51.2 869.5,-39.29 869.5,-29.4"/>
<polygon fill="#63b8ff" stroke="#63b8ff" points="873,-29.34 869.5,-19.34 866,-29.34 873,-29.34"/>
</a>
</g>
</g>
<!-- Node15&#45;&gt;Node2 -->
<g id="edge19_Node000015_Node000002" class="edge">
<title>Node15&#45;&gt;Node2</title>
<g id="a_edge19_Node000015_Node000002"><a xlink:title=" ">
<path fill="none" stroke="#63b8ff" d="M1017.8,-60.45C983.9,-49.03 936.59,-33.1 904.6,-22.32"/>
<polygon fill="#63b8ff" stroke="#63b8ff" points="905.38,-18.89 894.79,-19.02 903.15,-25.53 905.38,-18.89"/>
</a>
</g>
</g>
<!-- Node17&#45;&gt;Node5 -->
<g id="edge22_Node000017_Node000005" class="edge">
<title>Node17&#45;&gt;Node5</title>
<g id="a_edge22_Node000017_Node000005"><a xlink:title=" ">
<path fill="none" stroke="#63b8ff" d="M1376.6,-60.3C1384.16,-50.61 1394.22,-37.74 1402.21,-27.51"/>
<polygon fill="#63b8ff" stroke="#63b8ff" points="1405.19,-29.38 1408.59,-19.34 1399.68,-25.07 1405.19,-29.38"/>
</a>
</g>
</g>
</g>
</svg>
