<?xml version="1.0" encoding="UTF-8" standalone="no"?>
<!DOCTYPE svg PUBLIC "-//W3C//DTD SVG 1.1//EN"
 "http://www.w3.org/Graphics/SVG/1.1/DTD/svg11.dtd">
<!-- Generated by graphviz version 2.43.0 (0)
 -->
<!-- Title: include/Hermes/_base/OsApi/OsApi.hpp Pages: 1 -->
<svg width="2405pt" height="170pt"
 viewBox="0.00 0.00 2404.99 170.00" xmlns="http://www.w3.org/2000/svg" xmlns:xlink="http://www.w3.org/1999/xlink">
<g id="graph0" class="graph" transform="scale(1 1) rotate(0) translate(4 166)">
<title>include/Hermes/_base/OsApi/OsApi.hpp</title>
<!-- Node1 -->
<g id="Node000001" class="node">
<title>Node1</title>
<g id="a_Node000001"><a xlink:title=" ">
<polygon fill="#999999" stroke="#666666" points="1141.49,-162 1016.49,-162 1016.49,-132 1141.49,-132 1141.49,-162"/>
<text text-anchor="start" x="1024.49" y="-150" font-family="Helvetica,sans-Serif" font-size="10.00">include/Hermes/_base</text>
<text text-anchor="middle" x="1078.99" y="-139" font-family="Helvetica,sans-Serif" font-size="10.00">/OsApi/OsApi.hpp</text>
</a>
</g>
</g>
<!-- Node2 -->
<g id="Node000002" class="node">
<title>Node2</title>
<g id="a_Node000002"><a xlink:title=" ">
<polygon fill="#e0e0e0" stroke="#999999" points="348.49,-19 271.49,-19 271.49,0 348.49,0 348.49,-19"/>
<text text-anchor="middle" x="309.99" y="-7" font-family="Helvetica,sans-Serif" font-size="10.00">sys/socket.h</text>
</a>
</g>
</g>
<!-- Node1&#45;&gt;Node2 -->
<g id="edge1_Node000001_Node000002" class="edge">
<title>Node1&#45;&gt;Node2</title>
<g id="a_edge1_Node000001_Node000002"><a xlink:title=" ">
<path fill="none" stroke="#63b8ff" d="M1016.39,-145.42C793.46,-143.03 49.7,-132.38 14.99,-96 -58.14,-19.35 159.92,-10.18 261.24,-9.91"/>
<polygon fill="#63b8ff" stroke="#63b8ff" points="261.25,-13.41 271.25,-9.91 261.25,-6.41 261.25,-13.41"/>
</a>
</g>
</g>
<!-- Node3 -->
<g id="Node000003" class="node">
<title>Node3</title>
<g id="a_Node000003"><a xlink:title=" ">
<polygon fill="#e0e0e0" stroke="#999999" points="843.99,-19 771.99,-19 771.99,0 843.99,0 843.99,-19"/>
<text text-anchor="middle" x="807.99" y="-7" font-family="Helvetica,sans-Serif" font-size="10.00">netinet/in.h</text>
</a>
</g>
</g>
<!-- Node1&#45;&gt;Node3 -->
<g id="edge2_Node000001_Node000003" class="edge">
<title>Node1&#45;&gt;Node3</title>
<g id="a_edge2_Node000001_Node000003"><a xlink:title=" ">
<path fill="none" stroke="#63b8ff" d="M1016.41,-145.33C933.76,-142.97 794.92,-133.38 762.99,-96 751.16,-82.14 755.97,-71.82 762.99,-55 767.85,-43.36 777.41,-33.2 786.47,-25.55"/>
<polygon fill="#63b8ff" stroke="#63b8ff" points="788.79,-28.17 794.5,-19.25 784.47,-22.67 788.79,-28.17"/>
</a>
</g>
</g>
<!-- Node4 -->
<g id="Node000004" class="node">
<title>Node4</title>
<g id="a_Node000004"><a xlink:title=" ">
<polygon fill="#e0e0e0" stroke="#999999" points="1050.49,-85 981.49,-85 981.49,-66 1050.49,-66 1050.49,-85"/>
<text text-anchor="middle" x="1015.99" y="-73" font-family="Helvetica,sans-Serif" font-size="10.00">arpa/inet.h</text>
</a>
</g>
</g>
<!-- Node1&#45;&gt;Node4 -->
<g id="edge3_Node000001_Node000004" class="edge">
<title>Node1&#45;&gt;Node4</title>
<g id="a_edge3_Node000001_Node000004"><a xlink:title=" ">
<path fill="none" stroke="#63b8ff" d="M1066.24,-131.94C1055.96,-120.59 1041.48,-104.62 1030.71,-92.74"/>
<polygon fill="#63b8ff" stroke="#63b8ff" points="1033.25,-90.33 1023.94,-85.27 1028.06,-95.03 1033.25,-90.33"/>
</a>
</g>
</g>
<!-- Node5 -->
<g id="Node000005" class="node">
<title>Node5</title>
<g id="a_Node000005"><a xlink:title=" ">
<polygon fill="#e0e0e0" stroke="#999999" points="1155.49,-19 1102.49,-19 1102.49,0 1155.49,0 1155.49,-19"/>
<text text-anchor="middle" x="1128.99" y="-7" font-family="Helvetica,sans-Serif" font-size="10.00">netdb.h</text>
</a>
</g>
</g>
<!-- Node1&#45;&gt;Node5 -->
<g id="edge4_Node000001_Node000005" class="edge">
<title>Node1&#45;&gt;Node5</title>
<g id="a_edge4_Node000001_Node000005"><a xlink:title=" ">
<path fill="none" stroke="#63b8ff" d="M1080.17,-131.91C1082.09,-113.56 1086.87,-80.79 1097.99,-55 1102.27,-45.07 1108.95,-35.1 1115.01,-27.12"/>
<polygon fill="#63b8ff" stroke="#63b8ff" points="1117.93,-29.07 1121.43,-19.07 1112.46,-24.7 1117.93,-29.07"/>
</a>
</g>
</g>
<!-- Node6 -->
<g id="Node000006" class="node">
<title>Node6</title>
<g id="a_Node000006"><a xlink:title=" ">
<polygon fill="#e0e0e0" stroke="#999999" points="1324.99,-85 1268.99,-85 1268.99,-66 1324.99,-66 1324.99,-85"/>
<text text-anchor="middle" x="1296.99" y="-73" font-family="Helvetica,sans-Serif" font-size="10.00">unistd.h</text>
</a>
</g>
</g>
<!-- Node1&#45;&gt;Node6 -->
<g id="edge5_Node000001_Node000006" class="edge">
<title>Node1&#45;&gt;Node6</title>
<g id="a_edge5_Node000001_Node000006"><a xlink:title=" ">
<path fill="none" stroke="#63b8ff" d="M1141.65,-132.22C1177.01,-123.58 1221.65,-111.19 1259.99,-96 1264.44,-94.24 1269.05,-92.09 1273.44,-89.87"/>
<polygon fill="#63b8ff" stroke="#63b8ff" points="1275.38,-92.81 1282.57,-85.03 1272.1,-86.62 1275.38,-92.81"/>
</a>
</g>
</g>
<!-- Node7 -->
<g id="Node000007" class="node">
<title>Node7</title>
<g id="a_Node000007"><a xlink:href="_types_8hpp.html" target="_top" xlink:title=" ">
<polygon fill="white" stroke="#666666" points="1460.99,-90.5 1342.99,-90.5 1342.99,-60.5 1460.99,-60.5 1460.99,-90.5"/>
<text text-anchor="start" x="1350.99" y="-78.5" font-family="Helvetica,sans-Serif" font-size="10.00">Hermes/_base/OsApi</text>
<text text-anchor="middle" x="1401.99" y="-67.5" font-family="Helvetica,sans-Serif" font-size="10.00">/Types.hpp</text>
</a>
</g>
</g>
<!-- Node1&#45;&gt;Node7 -->
<g id="edge6_Node000001_Node000007" class="edge">
<title>Node1&#45;&gt;Node7</title>
<g id="a_edge6_Node000001_Node000007"><a xlink:title=" ">
<path fill="none" stroke="#63b8ff" d="M1141.67,-135.26C1193.49,-126 1268.86,-111.69 1333.99,-96 1337.61,-95.13 1341.32,-94.19 1345.05,-93.21"/>
<polygon fill="#63b8ff" stroke="#63b8ff" points="1346.19,-96.53 1354.94,-90.56 1344.37,-89.77 1346.19,-96.53"/>
</a>
</g>
</g>
<!-- Node9 -->
<g id="Node000009" class="node">
<title>Node9</title>
<g id="a_Node000009"><a xlink:href="_conversion_and_literals_8hpp.html" target="_top" xlink:title=" ">
<polygon fill="white" stroke="#666666" points="1628.99,-90.5 1478.99,-90.5 1478.99,-60.5 1628.99,-60.5 1628.99,-90.5"/>
<text text-anchor="start" x="1486.99" y="-78.5" font-family="Helvetica,sans-Serif" font-size="10.00">Hermes/_base/OsApi</text>
<text text-anchor="middle" x="1553.99" y="-67.5" font-family="Helvetica,sans-Serif" font-size="10.00">/ConversionAndLiterals.hpp</text>
</a>
</g>
</g>
<!-- Node1&#45;&gt;Node9 -->
<g id="edge8_Node000001_Node000009" class="edge">
<title>Node1&#45;&gt;Node9</title>
<g id="a_edge8_Node000001_Node000009"><a xlink:title=" ">
<path fill="none" stroke="#63b8ff" d="M1141.59,-139.96C1219.05,-132.04 1354.81,-116.68 1469.99,-96 1475.42,-95.02 1481.04,-93.93 1486.66,-92.76"/>
<polygon fill="#63b8ff" stroke="#63b8ff" points="1487.72,-96.11 1496.76,-90.6 1486.25,-89.27 1487.72,-96.11"/>
</a>
</g>
</g>
<!-- Node11 -->
<g id="Node000011" class="node">
<title>Node11</title>
<g id="a_Node000011"><a xlink:href="_macros_8hpp.html" target="_top" xlink:title=" ">
<polygon fill="white" stroke="#666666" points="715.99,-90.5 597.99,-90.5 597.99,-60.5 715.99,-60.5 715.99,-90.5"/>
<text text-anchor="start" x="605.99" y="-78.5" font-family="Helvetica,sans-Serif" font-size="10.00">Hermes/_base/OsApi</text>
<text text-anchor="middle" x="656.99" y="-67.5" font-family="Helvetica,sans-Serif" font-size="10.00">/Macros.hpp</text>
</a>
</g>
</g>
<!-- Node1&#45;&gt;Node11 -->
<g id="edge10_Node000001_Node000011" class="edge">
<title>Node1&#45;&gt;Node11</title>
<g id="a_edge10_Node000001_Node000011"><a xlink:title=" ">
<path fill="none" stroke="#63b8ff" d="M1016.19,-139.28C946.02,-131.24 829.24,-116.29 729.99,-96 725.53,-95.09 720.94,-94.07 716.34,-92.98"/>
<polygon fill="#63b8ff" stroke="#63b8ff" points="716.83,-89.5 706.28,-90.52 715.16,-96.29 716.83,-89.5"/>
</a>
</g>
</g>
<!-- Node13 -->
<g id="Node000013" class="node">
<title>Node13</title>
<g id="a_Node000013"><a xlink:href="_address_family_enum_8hpp.html" target="_top" xlink:title=" ">
<polygon fill="white" stroke="#666666" points="199.99,-90.5 23.99,-90.5 23.99,-60.5 199.99,-60.5 199.99,-90.5"/>
<text text-anchor="start" x="31.99" y="-78.5" font-family="Helvetica,sans-Serif" font-size="10.00">Hermes/_base/OsApi</text>
<text text-anchor="middle" x="111.99" y="-67.5" font-family="Helvetica,sans-Serif" font-size="10.00">/Enums/AddressFamilyEnum.hpp</text>
</a>
</g>
</g>
<!-- Node1&#45;&gt;Node13 -->
<g id="edge13_Node000001_Node000013" class="edge">
<title>Node1&#45;&gt;Node13</title>
<g id="a_edge13_Node000001_Node000013"><a xlink:title=" ">
<path fill="none" stroke="#63b8ff" d="M1016.39,-145.47C872.85,-143.59 509.16,-135.03 207.99,-96 200.34,-95.01 192.39,-93.76 184.48,-92.37"/>
<polygon fill="#63b8ff" stroke="#63b8ff" points="184.98,-88.9 174.52,-90.54 183.72,-95.79 184.98,-88.9"/>
</a>
</g>
</g>
<!-- Node14 -->
<g id="Node000014" class="node">
<title>Node14</title>
<g id="a_Node000014"><a xlink:href="_protocol_base_type_enum_8hpp.html" target="_top" xlink:title=" ">
<polygon fill="white" stroke="#666666" points="963.49,-90.5 772.49,-90.5 772.49,-60.5 963.49,-60.5 963.49,-90.5"/>
<text text-anchor="start" x="780.49" y="-78.5" font-family="Helvetica,sans-Serif" font-size="10.00">Hermes/_base/OsApi</text>
<text text-anchor="middle" x="867.99" y="-67.5" font-family="Helvetica,sans-Serif" font-size="10.00">/Enums/ProtocolBaseTypeEnum.hpp</text>
</a>
</g>
</g>
<!-- Node1&#45;&gt;Node14 -->
<g id="edge15_Node000001_Node000014" class="edge">
<title>Node1&#45;&gt;Node14</title>
<g id="a_edge15_Node000001_Node000014"><a xlink:title=" ">
<path fill="none" stroke="#63b8ff" d="M1036.29,-131.94C1002.83,-120.91 956.12,-105.53 920.39,-93.76"/>
<polygon fill="#63b8ff" stroke="#63b8ff" points="921.22,-90.35 910.63,-90.54 919.03,-97 921.22,-90.35"/>
</a>
</g>
</g>
<!-- Node15 -->
<g id="Node000015" class="node">
<title>Node15</title>
<g id="a_Node000015"><a xlink:href="_socket_shutdown_enum_8hpp.html" target="_top" xlink:title=" ">
<polygon fill="white" stroke="#666666" points="402.49,-90.5 217.49,-90.5 217.49,-60.5 402.49,-60.5 402.49,-90.5"/>
<text text-anchor="start" x="225.49" y="-78.5" font-family="Helvetica,sans-Serif" font-size="10.00">Hermes/_base/OsApi</text>
<text text-anchor="middle" x="309.99" y="-67.5" font-family="Helvetica,sans-Serif" font-size="10.00">/Enums/SocketShutdownEnum.hpp</text>
</a>
</g>
</g>
<!-- Node1&#45;&gt;Node15 -->
<g id="edge17_Node000001_Node000015" class="edge">
<title>Node1&#45;&gt;Node15</title>
<g id="a_edge17_Node000001_Node000015"><a xlink:title=" ">
<path fill="none" stroke="#63b8ff" d="M1016.11,-143.73C897.4,-138.9 632.32,-125.55 410.99,-96 403.13,-94.95 394.95,-93.68 386.8,-92.29"/>
<polygon fill="#63b8ff" stroke="#63b8ff" points="387.36,-88.83 376.91,-90.55 386.15,-95.73 387.36,-88.83"/>
</a>
</g>
</g>
<!-- Node16 -->
<g id="Node000016" class="node">
<title>Node16</title>
<g id="a_Node000016"><a xlink:href="_socket_type_enum_8hpp.html" target="_top" xlink:title=" ">
<polygon fill="white" stroke="#666666" points="579.49,-90.5 420.49,-90.5 420.49,-60.5 579.49,-60.5 579.49,-90.5"/>
<text text-anchor="start" x="428.49" y="-78.5" font-family="Helvetica,sans-Serif" font-size="10.00">Hermes/_base/OsApi</text>
<text text-anchor="middle" x="499.99" y="-67.5" font-family="Helvetica,sans-Serif" font-size="10.00">/Enums/SocketTypeEnum.hpp</text>
</a>
</g>
</g>
<!-- Node1&#45;&gt;Node16 -->
<g id="edge19_Node000001_Node000016" class="edge">
<title>Node1&#45;&gt;Node16</title>
<g id="a_edge19_Node000001_Node000016"><a xlink:title=" ">
<path fill="none" stroke="#63b8ff" d="M1016.43,-141.91C922.99,-135.28 741.61,-120.42 588.99,-96 582.74,-95 576.26,-93.83 569.79,-92.58"/>
<polygon fill="#63b8ff" stroke="#63b8ff" points="570.15,-89.08 559.65,-90.55 568.77,-95.95 570.15,-89.08"/>
</a>
</g>
</g>
<!-- Node17 -->
<g id="Node000017" class="node">
<title>Node17</title>
<g id="a_Node000017"><a xlink:href="_linux_2_encrypt_status_enum_8hpp.html" target="_top" xlink:title=" ">
<polygon fill="white" stroke="#666666" points="1798.99,-96 1646.99,-96 1646.99,-55 1798.99,-55 1798.99,-96"/>
<text text-anchor="start" x="1654.99" y="-84" font-family="Helvetica,sans-Serif" font-size="10.00">Hermes/_base/OsApi</text>
<text text-anchor="start" x="1654.99" y="-73" font-family="Helvetica,sans-Serif" font-size="10.00">/Enums/Linux/EncryptStatus</text>
<text text-anchor="middle" x="1722.99" y="-62" font-family="Helvetica,sans-Serif" font-size="10.00">Enum.hpp</text>
</a>
</g>
</g>
<!-- Node1&#45;&gt;Node17 -->
<g id="edge21_Node000001_Node000017" class="edge">
<title>Node1&#45;&gt;Node17</title>
<g id="a_edge21_Node000001_Node000017"><a xlink:title=" ">
<path fill="none" stroke="#63b8ff" d="M1141.79,-143.18C1243.76,-137.98 1451.76,-124.84 1636.73,-96.09"/>
<polygon fill="#63b8ff" stroke="#63b8ff" points="1637.3,-99.55 1646.63,-94.53 1636.21,-92.63 1637.3,-99.55"/>
</a>
</g>
</g>
<!-- Node18 -->
<g id="Node000018" class="node">
<title>Node18</title>
<g id="a_Node000018"><a xlink:href="_name_info_flags_8hpp.html" target="_top" xlink:title=" ">
<polygon fill="white" stroke="#666666" points="1250.99,-90.5 1106.99,-90.5 1106.99,-60.5 1250.99,-60.5 1250.99,-90.5"/>
<text text-anchor="start" x="1114.99" y="-78.5" font-family="Helvetica,sans-Serif" font-size="10.00">Hermes/_base/OsApi</text>
<text text-anchor="middle" x="1178.99" y="-67.5" font-family="Helvetica,sans-Serif" font-size="10.00">/Flags/NameInfoFlags.hpp</text>
</a>
</g>
</g>
<!-- Node1&#45;&gt;Node18 -->
<g id="edge22_Node000001_Node000018" class="edge">
<title>Node1&#45;&gt;Node18</title>
<g id="a_edge22_Node000001_Node000018"><a xlink:title=" ">
<path fill="none" stroke="#63b8ff" d="M1099.23,-131.94C1113.87,-121.76 1133.86,-107.87 1150.16,-96.54"/>
<polygon fill="#63b8ff" stroke="#63b8ff" points="1152.57,-99.12 1158.78,-90.54 1148.58,-93.38 1152.57,-99.12"/>
</a>
</g>
</g>
<!-- Node19 -->
<g id="Node000019" class="node">
<title>Node19</title>
<g id="a_Node000019"><a xlink:href="_linux_2_credential_flags_8hpp.html" target="_top" xlink:title=" ">
<polygon fill="white" stroke="#666666" points="1992.99,-90.5 1816.99,-90.5 1816.99,-60.5 1992.99,-60.5 1992.99,-90.5"/>
<text text-anchor="start" x="1824.99" y="-78.5" font-family="Helvetica,sans-Serif" font-size="10.00">Hermes/_base/OsApi</text>
<text text-anchor="middle" x="1904.99" y="-67.5" font-family="Helvetica,sans-Serif" font-size="10.00">/Flags/Linux/CredentialFlags.hpp</text>
</a>
</g>
</g>
<!-- Node1&#45;&gt;Node19 -->
<g id="edge24_Node000001_Node000019" class="edge">
<title>Node1&#45;&gt;Node19</title>
<g id="a_edge24_Node000001_Node000019"><a xlink:title=" ">
<path fill="none" stroke="#63b8ff" d="M1141.68,-144.44C1268.17,-140.69 1562.81,-128.91 1807.99,-96 1815.59,-94.98 1823.49,-93.72 1831.36,-92.34"/>
<polygon fill="#63b8ff" stroke="#63b8ff" points="1832.06,-95.77 1841.27,-90.53 1830.81,-88.88 1832.06,-95.77"/>
</a>
</g>
</g>
<!-- Node20 -->
<g id="Node000020" class="node">
<title>Node20</title>
<g id="a_Node000020"><a xlink:href="_linux_2_supported_protocols_flags_8hpp.html" target="_top" xlink:title=" ">
<polygon fill="white" stroke="#666666" points="2184.49,-96 2011.49,-96 2011.49,-55 2184.49,-55 2184.49,-96"/>
<text text-anchor="start" x="2019.49" y="-84" font-family="Helvetica,sans-Serif" font-size="10.00">Hermes/_base/OsApi</text>
<text text-anchor="start" x="2019.49" y="-73" font-family="Helvetica,sans-Serif" font-size="10.00">/Flags/Linux/SupportedProtocols</text>
<text text-anchor="middle" x="2097.99" y="-62" font-family="Helvetica,sans-Serif" font-size="10.00">Flags.hpp</text>
</a>
</g>
</g>
<!-- Node1&#45;&gt;Node20 -->
<g id="edge25_Node000001_Node000020" class="edge">
<title>Node1&#45;&gt;Node20</title>
<g id="a_edge25_Node000001_Node000020"><a xlink:title=" ">
<path fill="none" stroke="#63b8ff" d="M1141.67,-145.76C1289.65,-144.51 1672.29,-137.32 2001.27,-95.97"/>
<polygon fill="#63b8ff" stroke="#63b8ff" points="2002,-99.41 2011.48,-94.68 2001.12,-92.47 2002,-99.41"/>
</a>
</g>
</g>
<!-- Node21 -->
<g id="Node000021" class="node">
<title>Node21</title>
<g id="a_Node000021"><a xlink:href="_linux_2_s_channel_cred_flags_8hpp.html" target="_top" xlink:title=" ">
<polygon fill="white" stroke="#666666" points="2396.99,-90.5 2202.99,-90.5 2202.99,-60.5 2396.99,-60.5 2396.99,-90.5"/>
<text text-anchor="start" x="2210.99" y="-78.5" font-family="Helvetica,sans-Serif" font-size="10.00">Hermes/_base/OsApi</text>
<text text-anchor="middle" x="2299.99" y="-67.5" font-family="Helvetica,sans-Serif" font-size="10.00">/Flags/Linux/SChannelCredFlags.hpp</text>
</a>
</g>
</g>
<!-- Node1&#45;&gt;Node21 -->
<g id="edge26_Node000001_Node000021" class="edge">
<title>Node1&#45;&gt;Node21</title>
<g id="a_edge26_Node000001_Node000021"><a xlink:title=" ">
<path fill="none" stroke="#63b8ff" d="M1141.79,-146.19C1311.83,-146.07 1795.22,-141.4 2193.99,-96 2202.93,-94.98 2212.26,-93.66 2221.51,-92.18"/>
<polygon fill="#63b8ff" stroke="#63b8ff" points="2222.2,-95.61 2231.49,-90.52 2221.05,-88.71 2222.2,-95.61"/>
</a>
</g>
</g>
<!-- Node8 -->
<g id="Node000008" class="node">
<title>Node8</title>
<g id="a_Node000008"><a xlink:title=" ">
<polygon fill="#e0e0e0" stroke="#999999" points="1438.99,-19 1364.99,-19 1364.99,0 1438.99,0 1438.99,-19"/>
<text text-anchor="middle" x="1401.99" y="-7" font-family="Helvetica,sans-Serif" font-size="10.00">WinSock2.h</text>
</a>
</g>
</g>
<!-- Node7&#45;&gt;Node8 -->
<g id="edge7_Node000007_Node000008" class="edge">
<title>Node7&#45;&gt;Node8</title>
<g id="a_edge7_Node000007_Node000008"><a xlink:title=" ">
<path fill="none" stroke="#63b8ff" d="M1401.99,-60.3C1401.99,-51.2 1401.99,-39.29 1401.99,-29.4"/>
<polygon fill="#63b8ff" stroke="#63b8ff" points="1405.49,-29.34 1401.99,-19.34 1398.49,-29.34 1405.49,-29.34"/>
</a>
</g>
</g>
<!-- Node10 -->
<g id="Node000010" class="node">
<title>Node10</title>
<g id="a_Node000010"><a xlink:title=" ">
<polygon fill="#e0e0e0" stroke="#999999" points="1578.99,-19 1528.99,-19 1528.99,0 1578.99,0 1578.99,-19"/>
<text text-anchor="middle" x="1553.99" y="-7" font-family="Helvetica,sans-Serif" font-size="10.00">cstdint</text>
</a>
</g>
</g>
<!-- Node9&#45;&gt;Node10 -->
<g id="edge9_Node000009_Node000010" class="edge">
<title>Node9&#45;&gt;Node10</title>
<g id="a_edge9_Node000009_Node000010"><a xlink:title=" ">
<path fill="none" stroke="#63b8ff" d="M1553.99,-60.3C1553.99,-51.2 1553.99,-39.29 1553.99,-29.4"/>
<polygon fill="#63b8ff" stroke="#63b8ff" points="1557.49,-29.34 1553.99,-19.34 1550.49,-29.34 1557.49,-29.34"/>
</a>
</g>
</g>
<!-- Node11&#45;&gt;Node2 -->
<g id="edge12_Node000011_Node000002" class="edge">
<title>Node11&#45;&gt;Node2</title>
<g id="a_edge12_Node000011_Node000002"><a xlink:title=" ">
<path fill="none" stroke="#63b8ff" d="M610.04,-60.44C602.69,-58.47 595.16,-56.58 587.99,-55 508.46,-37.46 414.68,-23.9 358.9,-16.57"/>
<polygon fill="#63b8ff" stroke="#63b8ff" points="359.3,-13.09 348.94,-15.27 358.4,-20.04 359.3,-13.09"/>
</a>
</g>
</g>
<!-- Node12 -->
<g id="Node000012" class="node">
<title>Node12</title>
<g id="a_Node000012"><a xlink:title=" ">
<polygon fill="#e0e0e0" stroke="#999999" points="693.49,-19 620.49,-19 620.49,0 693.49,0 693.49,-19"/>
<text text-anchor="middle" x="656.99" y="-7" font-family="Helvetica,sans-Serif" font-size="10.00">string_view</text>
</a>
</g>
</g>
<!-- Node11&#45;&gt;Node12 -->
<g id="edge11_Node000011_Node000012" class="edge">
<title>Node11&#45;&gt;Node12</title>
<g id="a_edge11_Node000011_Node000012"><a xlink:title=" ">
<path fill="none" stroke="#63b8ff" d="M656.99,-60.3C656.99,-51.2 656.99,-39.29 656.99,-29.4"/>
<polygon fill="#63b8ff" stroke="#63b8ff" points="660.49,-29.34 656.99,-19.34 653.49,-29.34 660.49,-29.34"/>
</a>
</g>
</g>
<!-- Node13&#45;&gt;Node2 -->
<g id="edge14_Node000013_Node000002" class="edge">
<title>Node13&#45;&gt;Node2</title>
<g id="a_edge14_Node000013_Node000002"><a xlink:title=" ">
<path fill="none" stroke="#63b8ff" d="M155.44,-60.45C190.93,-48.98 240.5,-32.96 273.85,-22.18"/>
<polygon fill="#63b8ff" stroke="#63b8ff" points="275.2,-25.42 283.64,-19.02 273.05,-18.76 275.2,-25.42"/>
</a>
</g>
</g>
<!-- Node14&#45;&gt;Node3 -->
<g id="edge16_Node000014_Node000003" class="edge">
<title>Node14&#45;&gt;Node3</title>
<g id="a_edge16_Node000014_Node000003"><a xlink:title=" ">
<path fill="none" stroke="#63b8ff" d="M854.67,-60.3C845.41,-50.42 833.04,-37.22 823.36,-26.89"/>
<polygon fill="#63b8ff" stroke="#63b8ff" points="825.68,-24.25 816.28,-19.34 820.57,-29.03 825.68,-24.25"/>
</a>
</g>
</g>
<!-- Node15&#45;&gt;Node2 -->
<g id="edge18_Node000015_Node000002" class="edge">
<title>Node15&#45;&gt;Node2</title>
<g id="a_edge18_Node000015_Node000002"><a xlink:title=" ">
<path fill="none" stroke="#63b8ff" d="M309.99,-60.3C309.99,-51.2 309.99,-39.29 309.99,-29.4"/>
<polygon fill="#63b8ff" stroke="#63b8ff" points="313.49,-29.34 309.99,-19.34 306.49,-29.34 313.49,-29.34"/>
</a>
</g>
</g>
<!-- Node16&#45;&gt;Node2 -->
<g id="edge20_Node000016_Node000002" class="edge">
<title>Node16&#45;&gt;Node2</title>
<g id="a_edge20_Node000016_Node000002"><a xlink:title=" ">
<path fill="none" stroke="#63b8ff" d="M458.29,-60.45C424.39,-49.03 377.08,-33.1 345.09,-22.32"/>
<polygon fill="#63b8ff" stroke="#63b8ff" points="345.87,-18.89 335.28,-19.02 343.64,-25.53 345.87,-18.89"/>
</a>
</g>
</g>
<!-- Node18&#45;&gt;Node5 -->
<g id="edge23_Node000018_Node000005" class="edge">
<title>Node18&#45;&gt;Node5</title>
<g id="a_edge23_Node000018_Node000005"><a xlink:title=" ">
<path fill="none" stroke="#63b8ff" d="M1167.89,-60.3C1160.33,-50.61 1150.27,-37.74 1142.28,-27.51"/>
<polygon fill="#63b8ff" stroke="#63b8ff" points="1144.82,-25.07 1135.9,-19.34 1139.3,-29.38 1144.82,-25.07"/>
</a>
</g>
</g>
</g>
</svg>
