<?xml version="1.0" encoding="UTF-8" standalone="no"?>
<!DOCTYPE svg PUBLIC "-//W3C//DTD SVG 1.1//EN"
 "http://www.w3.org/Graphics/SVG/1.1/DTD/svg11.dtd">
<!-- Generated by graphviz version 2.43.0 (0)
 -->
<!-- Title: include/Hermes/_base/OsApi/OsApi.hpp Pages: 1 -->
<svg width="2262pt" height="170pt"
 viewBox="0.00 0.00 2261.63 170.00" xmlns="http://www.w3.org/2000/svg" xmlns:xlink="http://www.w3.org/1999/xlink">
<g id="graph0" class="graph" transform="scale(1 1) rotate(0) translate(4 166)">
<title>include/Hermes/_base/OsApi/OsApi.hpp</title>
<!-- Node1 -->
<g id="Node000001" class="node">
<title>Node1</title>
<g id="a_Node000001"><a xlink:title=" ">
<polygon fill="#999999" stroke="#666666" points="988.13,-162 863.13,-162 863.13,-132 988.13,-132 988.13,-162"/>
<text text-anchor="start" x="871.13" y="-150" font-family="Helvetica,sans-Serif" font-size="10.00">include/Hermes/_base</text>
<text text-anchor="middle" x="925.63" y="-139" font-family="Helvetica,sans-Serif" font-size="10.00">/OsApi/OsApi.hpp</text>
</a>
</g>
</g>
<!-- Node2 -->
<g id="Node000002" class="node">
<title>Node2</title>
<g id="a_Node000002"><a xlink:title=" ">
<polygon fill="#e0e0e0" stroke="#999999" points="749.13,-19 672.13,-19 672.13,0 749.13,0 749.13,-19"/>
<text text-anchor="middle" x="710.63" y="-7" font-family="Helvetica,sans-Serif" font-size="10.00">sys/socket.h</text>
</a>
</g>
</g>
<!-- Node1&#45;&gt;Node2 -->
<g id="edge1_Node000001_Node000002" class="edge">
<title>Node1&#45;&gt;Node2</title>
<g id="a_edge1_Node000001_Node000002"><a xlink:title=" ">
<path fill="none" stroke="#63b8ff" d="M863.07,-137.27C812.96,-129.01 748.08,-115.04 729.63,-96 712.45,-78.29 709.42,-48.68 709.5,-29.38"/>
<polygon fill="#63b8ff" stroke="#63b8ff" points="713,-29.23 709.83,-19.12 706.01,-29 713,-29.23"/>
</a>
</g>
</g>
<!-- Node3 -->
<g id="Node000003" class="node">
<title>Node3</title>
<g id="a_Node000003"><a xlink:title=" ">
<polygon fill="#e0e0e0" stroke="#999999" points="149.63,-19 77.63,-19 77.63,0 149.63,0 149.63,-19"/>
<text text-anchor="middle" x="113.63" y="-7" font-family="Helvetica,sans-Serif" font-size="10.00">netinet/in.h</text>
</a>
</g>
</g>
<!-- Node1&#45;&gt;Node3 -->
<g id="edge2_Node000001_Node000003" class="edge">
<title>Node1&#45;&gt;Node3</title>
<g id="a_edge2_Node000001_Node000003"><a xlink:title=" ">
<path fill="none" stroke="#63b8ff" d="M863.11,-144.92C661.22,-141.15 38,-127.02 8.63,-96 -3.9,-82.77 -1.44,-70.19 8.63,-55 21.8,-35.1 45.85,-24.08 67.61,-17.98"/>
<polygon fill="#63b8ff" stroke="#63b8ff" points="68.56,-21.35 77.4,-15.51 66.85,-14.56 68.56,-21.35"/>
</a>
</g>
</g>
<!-- Node4 -->
<g id="Node000004" class="node">
<title>Node4</title>
<g id="a_Node000004"><a xlink:title=" ">
<polygon fill="#e0e0e0" stroke="#999999" points="296.13,-85 227.13,-85 227.13,-66 296.13,-66 296.13,-85"/>
<text text-anchor="middle" x="261.63" y="-73" font-family="Helvetica,sans-Serif" font-size="10.00">arpa/inet.h</text>
</a>
</g>
</g>
<!-- Node1&#45;&gt;Node4 -->
<g id="edge3_Node000001_Node000004" class="edge">
<title>Node1&#45;&gt;Node4</title>
<g id="a_edge3_Node000001_Node000004"><a xlink:title=" ">
<path fill="none" stroke="#63b8ff" d="M863.1,-143.62C727.44,-138.04 409.9,-122.49 305.63,-96 299.4,-94.42 292.95,-92.03 286.96,-89.46"/>
<polygon fill="#63b8ff" stroke="#63b8ff" points="288,-86.08 277.46,-85.07 285.07,-92.44 288,-86.08"/>
</a>
</g>
</g>
<!-- Node5 -->
<g id="Node000005" class="node">
<title>Node5</title>
<g id="a_Node000005"><a xlink:title=" ">
<polygon fill="#e0e0e0" stroke="#999999" points="1284.13,-19 1231.13,-19 1231.13,0 1284.13,0 1284.13,-19"/>
<text text-anchor="middle" x="1257.63" y="-7" font-family="Helvetica,sans-Serif" font-size="10.00">netdb.h</text>
</a>
</g>
</g>
<!-- Node1&#45;&gt;Node5 -->
<g id="edge4_Node000001_Node000005" class="edge">
<title>Node1&#45;&gt;Node5</title>
<g id="a_edge4_Node000001_Node000005"><a xlink:title=" ">
<path fill="none" stroke="#63b8ff" d="M988.4,-146.82C1081.78,-146.56 1250.43,-139.82 1288.63,-96 1306.08,-75.98 1287.21,-45.35 1272.21,-26.7"/>
<polygon fill="#63b8ff" stroke="#63b8ff" points="1274.87,-24.42 1265.74,-19.05 1269.53,-28.95 1274.87,-24.42"/>
</a>
</g>
</g>
<!-- Node6 -->
<g id="Node000006" class="node">
<title>Node6</title>
<g id="a_Node000006"><a xlink:title=" ">
<polygon fill="#e0e0e0" stroke="#999999" points="506.63,-85 450.63,-85 450.63,-66 506.63,-66 506.63,-85"/>
<text text-anchor="middle" x="478.63" y="-73" font-family="Helvetica,sans-Serif" font-size="10.00">unistd.h</text>
</a>
</g>
</g>
<!-- Node1&#45;&gt;Node6 -->
<g id="edge5_Node000001_Node000006" class="edge">
<title>Node1&#45;&gt;Node6</title>
<g id="a_edge5_Node000001_Node000006"><a xlink:title=" ">
<path fill="none" stroke="#63b8ff" d="M862.81,-145.59C780.83,-143.45 633.78,-134 514.63,-96 510.01,-94.53 505.29,-92.45 500.86,-90.21"/>
<polygon fill="#63b8ff" stroke="#63b8ff" points="502.21,-86.95 491.76,-85.17 498.82,-93.07 502.21,-86.95"/>
</a>
</g>
</g>
<!-- Node7 -->
<g id="Node000007" class="node">
<title>Node7</title>
<g id="a_Node000007"><a xlink:href="_conversion_and_literals_8hpp.html" target="_top" xlink:title=" ">
<polygon fill="white" stroke="#666666" points="1655.63,-90.5 1505.63,-90.5 1505.63,-60.5 1655.63,-60.5 1655.63,-90.5"/>
<text text-anchor="start" x="1513.63" y="-78.5" font-family="Helvetica,sans-Serif" font-size="10.00">Hermes/_base/OsApi</text>
<text text-anchor="middle" x="1580.63" y="-67.5" font-family="Helvetica,sans-Serif" font-size="10.00">/ConversionAndLiterals.hpp</text>
</a>
</g>
</g>
<!-- Node1&#45;&gt;Node7 -->
<g id="edge6_Node000001_Node000007" class="edge">
<title>Node1&#45;&gt;Node7</title>
<g id="a_edge6_Node000001_Node000007"><a xlink:title=" ">
<path fill="none" stroke="#63b8ff" d="M988.5,-143.39C1094.06,-138.36 1313.34,-125.15 1496.63,-96 1502.74,-95.03 1509.07,-93.86 1515.38,-92.59"/>
<polygon fill="#63b8ff" stroke="#63b8ff" points="1516.2,-95.99 1525.27,-90.51 1514.76,-89.14 1516.2,-95.99"/>
</a>
</g>
</g>
<!-- Node9 -->
<g id="Node000009" class="node">
<title>Node9</title>
<g id="a_Node000009"><a xlink:href="_macros_8hpp.html" target="_top" xlink:title=" ">
<polygon fill="white" stroke="#666666" points="432.63,-90.5 314.63,-90.5 314.63,-60.5 432.63,-60.5 432.63,-90.5"/>
<text text-anchor="start" x="322.63" y="-78.5" font-family="Helvetica,sans-Serif" font-size="10.00">Hermes/_base/OsApi</text>
<text text-anchor="middle" x="373.63" y="-67.5" font-family="Helvetica,sans-Serif" font-size="10.00">/Macros.hpp</text>
</a>
</g>
</g>
<!-- Node1&#45;&gt;Node9 -->
<g id="edge8_Node000001_Node000009" class="edge">
<title>Node1&#45;&gt;Node9</title>
<g id="a_edge8_Node000001_Node000009"><a xlink:title=" ">
<path fill="none" stroke="#63b8ff" d="M862.84,-143.05C770.04,-137.9 591.12,-124.92 441.63,-96 437.23,-95.15 432.72,-94.15 428.2,-93.05"/>
<polygon fill="#63b8ff" stroke="#63b8ff" points="428.9,-89.62 418.35,-90.53 427.17,-96.4 428.9,-89.62"/>
</a>
</g>
</g>
<!-- Node11 -->
<g id="Node000011" class="node">
<title>Node11</title>
<g id="a_Node000011"><a xlink:href="_address_family_enum_8hpp.html" target="_top" xlink:title=" ">
<polygon fill="white" stroke="#666666" points="914.63,-90.5 738.63,-90.5 738.63,-60.5 914.63,-60.5 914.63,-90.5"/>
<text text-anchor="start" x="746.63" y="-78.5" font-family="Helvetica,sans-Serif" font-size="10.00">Hermes/_base/OsApi</text>
<text text-anchor="middle" x="826.63" y="-67.5" font-family="Helvetica,sans-Serif" font-size="10.00">/Enums/AddressFamilyEnum.hpp</text>
</a>
</g>
</g>
<!-- Node1&#45;&gt;Node11 -->
<g id="edge12_Node000001_Node000011" class="edge">
<title>Node1&#45;&gt;Node11</title>
<g id="a_edge12_Node000001_Node000011"><a xlink:title=" ">
<path fill="none" stroke="#63b8ff" d="M905.59,-131.94C891.1,-121.76 871.31,-107.87 855.17,-96.54"/>
<polygon fill="#63b8ff" stroke="#63b8ff" points="856.83,-93.42 846.63,-90.54 852.8,-99.15 856.83,-93.42"/>
</a>
</g>
</g>
<!-- Node12 -->
<g id="Node000012" class="node">
<title>Node12</title>
<g id="a_Node000012"><a xlink:href="_protocol_base_type_enum_8hpp.html" target="_top" xlink:title=" ">
<polygon fill="white" stroke="#666666" points="209.13,-90.5 18.13,-90.5 18.13,-60.5 209.13,-60.5 209.13,-90.5"/>
<text text-anchor="start" x="26.13" y="-78.5" font-family="Helvetica,sans-Serif" font-size="10.00">Hermes/_base/OsApi</text>
<text text-anchor="middle" x="113.63" y="-67.5" font-family="Helvetica,sans-Serif" font-size="10.00">/Enums/ProtocolBaseTypeEnum.hpp</text>
</a>
</g>
</g>
<!-- Node1&#45;&gt;Node12 -->
<g id="edge14_Node000001_Node000012" class="edge">
<title>Node1&#45;&gt;Node12</title>
<g id="a_edge14_Node000001_Node000012"><a xlink:title=" ">
<path fill="none" stroke="#63b8ff" d="M862.88,-143.99C739.06,-139.49 454.72,-126.5 217.63,-96 209.38,-94.94 200.79,-93.64 192.25,-92.23"/>
<polygon fill="#63b8ff" stroke="#63b8ff" points="192.7,-88.76 182.26,-90.52 191.53,-95.66 192.7,-88.76"/>
</a>
</g>
</g>
<!-- Node13 -->
<g id="Node000013" class="node">
<title>Node13</title>
<g id="a_Node000013"><a xlink:href="_socket_shutdown_enum_8hpp.html" target="_top" xlink:title=" ">
<polygon fill="white" stroke="#666666" points="1117.13,-90.5 932.13,-90.5 932.13,-60.5 1117.13,-60.5 1117.13,-90.5"/>
<text text-anchor="start" x="940.13" y="-78.5" font-family="Helvetica,sans-Serif" font-size="10.00">Hermes/_base/OsApi</text>
<text text-anchor="middle" x="1024.63" y="-67.5" font-family="Helvetica,sans-Serif" font-size="10.00">/Enums/SocketShutdownEnum.hpp</text>
</a>
</g>
</g>
<!-- Node1&#45;&gt;Node13 -->
<g id="edge16_Node000001_Node000013" class="edge">
<title>Node1&#45;&gt;Node13</title>
<g id="a_edge16_Node000001_Node000013"><a xlink:title=" ">
<path fill="none" stroke="#63b8ff" d="M945.66,-131.94C960.15,-121.76 979.94,-107.87 996.09,-96.54"/>
<polygon fill="#63b8ff" stroke="#63b8ff" points="998.45,-99.15 1004.62,-90.54 994.43,-93.42 998.45,-99.15"/>
</a>
</g>
</g>
<!-- Node14 -->
<g id="Node000014" class="node">
<title>Node14</title>
<g id="a_Node000014"><a xlink:href="_socket_type_enum_8hpp.html" target="_top" xlink:title=" ">
<polygon fill="white" stroke="#666666" points="683.13,-90.5 524.13,-90.5 524.13,-60.5 683.13,-60.5 683.13,-90.5"/>
<text text-anchor="start" x="532.13" y="-78.5" font-family="Helvetica,sans-Serif" font-size="10.00">Hermes/_base/OsApi</text>
<text text-anchor="middle" x="603.63" y="-67.5" font-family="Helvetica,sans-Serif" font-size="10.00">/Enums/SocketTypeEnum.hpp</text>
</a>
</g>
</g>
<!-- Node1&#45;&gt;Node14 -->
<g id="edge18_Node000001_Node000014" class="edge">
<title>Node1&#45;&gt;Node14</title>
<g id="a_edge18_Node000001_Node000014"><a xlink:title=" ">
<path fill="none" stroke="#63b8ff" d="M862.78,-132.43C809.94,-121.03 734.31,-104.71 678.38,-92.63"/>
<polygon fill="#63b8ff" stroke="#63b8ff" points="679.04,-89.2 668.52,-90.51 677.56,-96.04 679.04,-89.2"/>
</a>
</g>
</g>
<!-- Node15 -->
<g id="Node000015" class="node">
<title>Node15</title>
<g id="a_Node000015"><a xlink:title=" ">
<polygon fill="#e0e0e0" stroke="#999999" points="1487.63,-96 1335.63,-96 1335.63,-55 1487.63,-55 1487.63,-96"/>
<text text-anchor="start" x="1343.63" y="-84" font-family="Helvetica,sans-Serif" font-size="10.00">Hermes/_base/OsApi</text>
<text text-anchor="start" x="1343.63" y="-73" font-family="Helvetica,sans-Serif" font-size="10.00">/Enums/Linux/EncryptStatus</text>
<text text-anchor="middle" x="1411.63" y="-62" font-family="Helvetica,sans-Serif" font-size="10.00">Enum.hpp</text>
</a>
</g>
</g>
<!-- Node1&#45;&gt;Node15 -->
<g id="edge20_Node000001_Node000015" class="edge">
<title>Node1&#45;&gt;Node15</title>
<g id="a_edge20_Node000001_Node000015"><a xlink:title=" ">
<path fill="none" stroke="#63b8ff" d="M988.29,-139.81C1066.57,-131.67 1204.49,-116.05 1321.63,-96 1322.91,-95.78 1324.21,-95.55 1325.51,-95.32"/>
<polygon fill="#63b8ff" stroke="#63b8ff" points="1326.41,-98.72 1335.61,-93.46 1325.14,-91.83 1326.41,-98.72"/>
</a>
</g>
</g>
<!-- Node16 -->
<g id="Node000016" class="node">
<title>Node16</title>
<g id="a_Node000016"><a xlink:href="_name_info_flags_8hpp.html" target="_top" xlink:title=" ">
<polygon fill="white" stroke="#666666" points="1279.63,-90.5 1135.63,-90.5 1135.63,-60.5 1279.63,-60.5 1279.63,-90.5"/>
<text text-anchor="start" x="1143.63" y="-78.5" font-family="Helvetica,sans-Serif" font-size="10.00">Hermes/_base/OsApi</text>
<text text-anchor="middle" x="1207.63" y="-67.5" font-family="Helvetica,sans-Serif" font-size="10.00">/Flags/NameInfoFlags.hpp</text>
</a>
</g>
</g>
<!-- Node1&#45;&gt;Node16 -->
<g id="edge21_Node000001_Node000016" class="edge">
<title>Node1&#45;&gt;Node16</title>
<g id="a_edge21_Node000001_Node000016"><a xlink:title=" ">
<path fill="none" stroke="#63b8ff" d="M982.69,-131.94C1028.37,-120.68 1092.52,-104.87 1140.63,-93.01"/>
<polygon fill="#63b8ff" stroke="#63b8ff" points="1141.77,-96.33 1150.64,-90.54 1140.1,-89.54 1141.77,-96.33"/>
</a>
</g>
</g>
<!-- Node17 -->
<g id="Node000017" class="node">
<title>Node17</title>
<g id="a_Node000017"><a xlink:title=" ">
<polygon fill="#e0e0e0" stroke="#999999" points="1849.63,-90.5 1673.63,-90.5 1673.63,-60.5 1849.63,-60.5 1849.63,-90.5"/>
<text text-anchor="start" x="1681.63" y="-78.5" font-family="Helvetica,sans-Serif" font-size="10.00">Hermes/_base/OsApi</text>
<text text-anchor="middle" x="1761.63" y="-67.5" font-family="Helvetica,sans-Serif" font-size="10.00">/Flags/Linux/CredentialFlags.hpp</text>
</a>
</g>
</g>
<!-- Node1&#45;&gt;Node17 -->
<g id="edge23_Node000001_Node000017" class="edge">
<title>Node1&#45;&gt;Node17</title>
<g id="a_edge23_Node000001_Node000017"><a xlink:title=" ">
<path fill="none" stroke="#63b8ff" d="M988.19,-144.53C1115.87,-140.91 1415.45,-129.33 1664.63,-96 1672.23,-94.98 1680.13,-93.73 1687.99,-92.35"/>
<polygon fill="#63b8ff" stroke="#63b8ff" points="1688.7,-95.78 1697.91,-90.54 1687.44,-88.89 1688.7,-95.78"/>
</a>
</g>
</g>
<!-- Node18 -->
<g id="Node000018" class="node">
<title>Node18</title>
<g id="a_Node000018"><a xlink:title=" ">
<polygon fill="#e0e0e0" stroke="#999999" points="2041.13,-96 1868.13,-96 1868.13,-55 2041.13,-55 2041.13,-96"/>
<text text-anchor="start" x="1876.13" y="-84" font-family="Helvetica,sans-Serif" font-size="10.00">Hermes/_base/OsApi</text>
<text text-anchor="start" x="1876.13" y="-73" font-family="Helvetica,sans-Serif" font-size="10.00">/Flags/Linux/SupportedProtocols</text>
<text text-anchor="middle" x="1954.63" y="-62" font-family="Helvetica,sans-Serif" font-size="10.00">Flags.hpp</text>
</a>
</g>
</g>
<!-- Node1&#45;&gt;Node18 -->
<g id="edge24_Node000001_Node000018" class="edge">
<title>Node1&#45;&gt;Node18</title>
<g id="a_edge24_Node000001_Node000018"><a xlink:title=" ">
<path fill="none" stroke="#63b8ff" d="M988.15,-145.81C1137.11,-144.68 1524.73,-137.74 1857.78,-95.99"/>
<polygon fill="#63b8ff" stroke="#63b8ff" points="1858.64,-99.41 1868.12,-94.68 1857.76,-92.46 1858.64,-99.41"/>
</a>
</g>
</g>
<!-- Node19 -->
<g id="Node000019" class="node">
<title>Node19</title>
<g id="a_Node000019"><a xlink:title=" ">
<polygon fill="#e0e0e0" stroke="#999999" points="2253.63,-90.5 2059.63,-90.5 2059.63,-60.5 2253.63,-60.5 2253.63,-90.5"/>
<text text-anchor="start" x="2067.63" y="-78.5" font-family="Helvetica,sans-Serif" font-size="10.00">Hermes/_base/OsApi</text>
<text text-anchor="middle" x="2156.63" y="-67.5" font-family="Helvetica,sans-Serif" font-size="10.00">/Flags/Linux/SChannelCredFlags.hpp</text>
</a>
</g>
</g>
<!-- Node1&#45;&gt;Node19 -->
<g id="edge25_Node000001_Node000019" class="edge">
<title>Node1&#45;&gt;Node19</title>
<g id="a_edge25_Node000001_Node000019"><a xlink:title=" ">
<path fill="none" stroke="#63b8ff" d="M988.37,-146.23C1159.38,-146.2 1647.79,-141.79 2050.63,-96 2059.57,-94.98 2068.89,-93.66 2078.14,-92.18"/>
<polygon fill="#63b8ff" stroke="#63b8ff" points="2078.83,-95.62 2088.12,-90.52 2077.68,-88.71 2078.83,-95.62"/>
</a>
</g>
</g>
<!-- Node8 -->
<g id="Node000008" class="node">
<title>Node8</title>
<g id="a_Node000008"><a xlink:title=" ">
<polygon fill="#e0e0e0" stroke="#999999" points="1605.63,-19 1555.63,-19 1555.63,0 1605.63,0 1605.63,-19"/>
<text text-anchor="middle" x="1580.63" y="-7" font-family="Helvetica,sans-Serif" font-size="10.00">cstdint</text>
</a>
</g>
</g>
<!-- Node7&#45;&gt;Node8 -->
<g id="edge7_Node000007_Node000008" class="edge">
<title>Node7&#45;&gt;Node8</title>
<g id="a_edge7_Node000007_Node000008"><a xlink:title=" ">
<path fill="none" stroke="#63b8ff" d="M1580.63,-60.3C1580.63,-51.2 1580.63,-39.29 1580.63,-29.4"/>
<polygon fill="#63b8ff" stroke="#63b8ff" points="1584.13,-29.34 1580.63,-19.34 1577.13,-29.34 1584.13,-29.34"/>
</a>
</g>
</g>
<!-- Node9&#45;&gt;Node2 -->
<g id="edge10_Node000009_Node000002" class="edge">
<title>Node9&#45;&gt;Node2</title>
<g id="a_edge10_Node000009_Node000002"><a xlink:title=" ">
<path fill="none" stroke="#63b8ff" d="M419.9,-60.46C427.13,-58.49 434.56,-56.59 441.63,-55 517.98,-37.8 607.92,-24.25 662.04,-16.82"/>
<polygon fill="#63b8ff" stroke="#63b8ff" points="662.61,-20.27 672.05,-15.46 661.67,-13.34 662.61,-20.27"/>
</a>
</g>
</g>
<!-- Node9&#45;&gt;Node3 -->
<g id="edge11_Node000009_Node000003" class="edge">
<title>Node9&#45;&gt;Node3</title>
<g id="a_edge11_Node000009_Node000003"><a xlink:title=" ">
<path fill="none" stroke="#63b8ff" d="M325.07,-60.47C318.22,-58.58 311.26,-56.71 304.63,-55 255.29,-42.29 198.38,-29.23 159.6,-20.58"/>
<polygon fill="#63b8ff" stroke="#63b8ff" points="160.18,-17.12 149.65,-18.37 158.66,-23.96 160.18,-17.12"/>
</a>
</g>
</g>
<!-- Node10 -->
<g id="Node000010" class="node">
<title>Node10</title>
<g id="a_Node000010"><a xlink:title=" ">
<polygon fill="#e0e0e0" stroke="#999999" points="410.13,-19 337.13,-19 337.13,0 410.13,0 410.13,-19"/>
<text text-anchor="middle" x="373.63" y="-7" font-family="Helvetica,sans-Serif" font-size="10.00">string_view</text>
</a>
</g>
</g>
<!-- Node9&#45;&gt;Node10 -->
<g id="edge9_Node000009_Node000010" class="edge">
<title>Node9&#45;&gt;Node10</title>
<g id="a_edge9_Node000009_Node000010"><a xlink:title=" ">
<path fill="none" stroke="#63b8ff" d="M373.63,-60.3C373.63,-51.2 373.63,-39.29 373.63,-29.4"/>
<polygon fill="#63b8ff" stroke="#63b8ff" points="377.13,-29.34 373.63,-19.34 370.13,-29.34 377.13,-29.34"/>
</a>
</g>
</g>
<!-- Node11&#45;&gt;Node2 -->
<g id="edge13_Node000011_Node000002" class="edge">
<title>Node11&#45;&gt;Node2</title>
<g id="a_edge13_Node000011_Node000002"><a xlink:title=" ">
<path fill="none" stroke="#63b8ff" d="M801.17,-60.45C781.45,-49.58 754.32,-34.61 734.91,-23.9"/>
<polygon fill="#63b8ff" stroke="#63b8ff" points="736.51,-20.78 726.06,-19.02 733.13,-26.91 736.51,-20.78"/>
</a>
</g>
</g>
<!-- Node12&#45;&gt;Node3 -->
<g id="edge15_Node000012_Node000003" class="edge">
<title>Node12&#45;&gt;Node3</title>
<g id="a_edge15_Node000012_Node000003"><a xlink:title=" ">
<path fill="none" stroke="#63b8ff" d="M113.63,-60.3C113.63,-51.2 113.63,-39.29 113.63,-29.4"/>
<polygon fill="#63b8ff" stroke="#63b8ff" points="117.13,-29.34 113.63,-19.34 110.13,-29.34 117.13,-29.34"/>
</a>
</g>
</g>
<!-- Node13&#45;&gt;Node2 -->
<g id="edge17_Node000013_Node000002" class="edge">
<title>Node13&#45;&gt;Node2</title>
<g id="a_edge17_Node000013_Node000002"><a xlink:title=" ">
<path fill="none" stroke="#63b8ff" d="M955.72,-60.45C896.31,-48.35 812.03,-31.17 759.38,-20.44"/>
<polygon fill="#63b8ff" stroke="#63b8ff" points="759.79,-16.95 749.29,-18.38 758.39,-23.81 759.79,-16.95"/>
</a>
</g>
</g>
<!-- Node14&#45;&gt;Node2 -->
<g id="edge19_Node000014_Node000002" class="edge">
<title>Node14&#45;&gt;Node2</title>
<g id="a_edge19_Node000014_Node000002"><a xlink:title=" ">
<path fill="none" stroke="#63b8ff" d="M627.11,-60.45C645.13,-49.68 669.87,-34.88 687.74,-24.19"/>
<polygon fill="#63b8ff" stroke="#63b8ff" points="689.6,-27.15 696.39,-19.02 686.01,-21.15 689.6,-27.15"/>
</a>
</g>
</g>
<!-- Node16&#45;&gt;Node5 -->
<g id="edge22_Node000016_Node000005" class="edge">
<title>Node16&#45;&gt;Node5</title>
<g id="a_edge22_Node000016_Node000005"><a xlink:title=" ">
<path fill="none" stroke="#63b8ff" d="M1218.72,-60.3C1226.29,-50.61 1236.34,-37.74 1244.34,-27.51"/>
<polygon fill="#63b8ff" stroke="#63b8ff" points="1247.32,-29.38 1250.72,-19.34 1241.8,-25.07 1247.32,-29.38"/>
</a>
</g>
</g>
</g>
</svg>
