<?xml version="1.0" encoding="UTF-8" standalone="no"?>
<!DOCTYPE svg PUBLIC "-//W3C//DTD SVG 1.1//EN"
 "http://www.w3.org/Graphics/SVG/1.1/DTD/svg11.dtd">
<!-- Generated by graphviz version 2.43.0 (0)
 -->
<!-- Title: include/Hermes/_base/WinApi/Enums/SocketTypeEnum.hpp Pages: 1 -->
<svg width="848pt" height="599pt"
 viewBox="0.00 0.00 848.00 599.00" xmlns="http://www.w3.org/2000/svg" xmlns:xlink="http://www.w3.org/1999/xlink">
<g id="graph0" class="graph" transform="scale(1 1) rotate(0) translate(4 595)">
<title>include/Hermes/_base/WinApi/Enums/SocketTypeEnum.hpp</title>
<!-- Node1 -->
<g id="Node000001" class="node">
<title>Node1</title>
<g id="a_Node000001"><a xlink:title=" ">
<polygon fill="#999999" stroke="#666666" points="771.5,-591 574.5,-591 574.5,-561 771.5,-561 771.5,-591"/>
<text text-anchor="start" x="582.5" y="-579" font-family="Helvetica,sans-Serif" font-size="10.00">include/Hermes/_base</text>
<text text-anchor="middle" x="673" y="-568" font-family="Helvetica,sans-Serif" font-size="10.00">/WinApi/Enums/SocketTypeEnum.hpp</text>
</a>
</g>
</g>
<!-- Node2 -->
<g id="Node000002" class="node">
<title>Node2</title>
<g id="a_Node000002"><a xlink:href="_win_api_8hpp.html" target="_top" xlink:title=" ">
<polygon fill="white" stroke="#666666" points="735.5,-525 610.5,-525 610.5,-495 735.5,-495 735.5,-525"/>
<text text-anchor="start" x="618.5" y="-513" font-family="Helvetica,sans-Serif" font-size="10.00">include/Hermes/_base</text>
<text text-anchor="middle" x="673" y="-502" font-family="Helvetica,sans-Serif" font-size="10.00">/WinApi/WinApi.hpp</text>
</a>
</g>
</g>
<!-- Node1&#45;&gt;Node2 -->
<g id="edge1_Node000001_Node000002" class="edge">
<title>Node1&#45;&gt;Node2</title>
<g id="a_edge1_Node000001_Node000002"><a xlink:title=" ">
<path fill="none" stroke="#63b8ff" d="M673,-550.54C673,-541.96 673,-532.61 673,-525.16"/>
<polygon fill="#63b8ff" stroke="#63b8ff" points="669.5,-550.8 673,-560.8 676.5,-550.8 669.5,-550.8"/>
</a>
</g>
</g>
<!-- Node3 -->
<g id="Node000003" class="node">
<title>Node3</title>
<g id="a_Node000003"><a xlink:href="_endpoint_concept_8hpp.html" target="_top" xlink:title=" ">
<polygon fill="white" stroke="#666666" points="575.5,-459 420.5,-459 420.5,-429 575.5,-429 575.5,-459"/>
<text text-anchor="start" x="428.5" y="-447" font-family="Helvetica,sans-Serif" font-size="10.00">include/Hermes/Endpoint</text>
<text text-anchor="middle" x="498" y="-436" font-family="Helvetica,sans-Serif" font-size="10.00">/_base/EndpointConcept.hpp</text>
</a>
</g>
</g>
<!-- Node2&#45;&gt;Node3 -->
<g id="edge2_Node000002_Node000003" class="edge">
<title>Node2&#45;&gt;Node3</title>
<g id="a_edge2_Node000002_Node000003"><a xlink:title=" ">
<path fill="none" stroke="#63b8ff" d="M625.03,-491.46C597.11,-481.25 562.4,-468.55 536.31,-459.01"/>
<polygon fill="#63b8ff" stroke="#63b8ff" points="624,-494.81 634.6,-494.95 626.41,-488.23 624,-494.81"/>
</a>
</g>
</g>
<!-- Node14 -->
<g id="Node000014" class="node">
<title>Node14</title>
<g id="a_Node000014"><a xlink:href="_tls_socket_data_8hpp.html" target="_top" xlink:title=" ">
<polygon fill="white" stroke="#666666" points="840,-321.5 646,-321.5 646,-291.5 840,-291.5 840,-321.5"/>
<text text-anchor="start" x="654" y="-309.5" font-family="Helvetica,sans-Serif" font-size="10.00">include/Hermes/Socket</text>
<text text-anchor="middle" x="743" y="-298.5" font-family="Helvetica,sans-Serif" font-size="10.00">/Sync/_base/Data/TlsSocketData.hpp</text>
</a>
</g>
</g>
<!-- Node2&#45;&gt;Node14 -->
<g id="edge33_Node000002_Node000014" class="edge">
<title>Node2&#45;&gt;Node14</title>
<g id="a_edge33_Node000002_Node000014"><a xlink:title=" ">
<path fill="none" stroke="#63b8ff" d="M714.68,-489.74C726.67,-481.99 738.3,-471.8 745,-459 768.65,-413.78 755.31,-350.09 747.46,-321.9"/>
<polygon fill="#63b8ff" stroke="#63b8ff" points="712.74,-486.82 705.95,-494.95 716.33,-492.82 712.74,-486.82"/>
</a>
</g>
</g>
<!-- Node18 -->
<g id="Node000018" class="node">
<title>Node18</title>
<g id="a_Node000018"><a xlink:href="_credentials_8hpp.html" target="_top" xlink:title=" ">
<polygon fill="white" stroke="#666666" points="735.5,-459 610.5,-459 610.5,-429 735.5,-429 735.5,-459"/>
<text text-anchor="start" x="618.5" y="-447" font-family="Helvetica,sans-Serif" font-size="10.00">include/Hermes/_base</text>
<text text-anchor="middle" x="673" y="-436" font-family="Helvetica,sans-Serif" font-size="10.00">/Credentials.hpp</text>
</a>
</g>
</g>
<!-- Node2&#45;&gt;Node18 -->
<g id="edge34_Node000002_Node000018" class="edge">
<title>Node2&#45;&gt;Node18</title>
<g id="a_edge34_Node000002_Node000018"><a xlink:title=" ">
<path fill="none" stroke="#63b8ff" d="M673,-484.54C673,-475.96 673,-466.61 673,-459.16"/>
<polygon fill="#63b8ff" stroke="#63b8ff" points="669.5,-484.8 673,-494.8 676.5,-484.8 669.5,-484.8"/>
</a>
</g>
</g>
<!-- Node4 -->
<g id="Node000004" class="node">
<title>Node4</title>
<g id="a_Node000004"><a xlink:href="_ip_endpoint_8hpp.html" target="_top" xlink:title=" ">
<polygon fill="white" stroke="#666666" points="571.5,-393 424.5,-393 424.5,-363 571.5,-363 571.5,-393"/>
<text text-anchor="start" x="432.5" y="-381" font-family="Helvetica,sans-Serif" font-size="10.00">include/Hermes/Endpoint</text>
<text text-anchor="middle" x="498" y="-370" font-family="Helvetica,sans-Serif" font-size="10.00">/IpEndpoint/IpEndpoint.hpp</text>
</a>
</g>
</g>
<!-- Node3&#45;&gt;Node4 -->
<g id="edge3_Node000003_Node000004" class="edge">
<title>Node3&#45;&gt;Node4</title>
<g id="a_edge3_Node000003_Node000004"><a xlink:title=" ">
<path fill="none" stroke="#63b8ff" d="M498,-418.54C498,-409.96 498,-400.61 498,-393.16"/>
<polygon fill="#63b8ff" stroke="#63b8ff" points="494.5,-418.8 498,-428.8 501.5,-418.8 494.5,-418.8"/>
</a>
</g>
</g>
<!-- Node16 -->
<g id="Node000016" class="node">
<title>Node16</title>
<g id="a_Node000016"><a xlink:href="__base_8hpp.html" target="_top" xlink:title=" ">
<polygon fill="white" stroke="#666666" points="406,-393 278,-393 278,-363 406,-363 406,-393"/>
<text text-anchor="start" x="286" y="-381" font-family="Helvetica,sans-Serif" font-size="10.00">include/Hermes/Socket</text>
<text text-anchor="middle" x="342" y="-370" font-family="Helvetica,sans-Serif" font-size="10.00">/_base.hpp</text>
</a>
</g>
</g>
<!-- Node3&#45;&gt;Node16 -->
<g id="edge23_Node000003_Node000016" class="edge">
<title>Node3&#45;&gt;Node16</title>
<g id="a_edge23_Node000003_Node000016"><a xlink:title=" ">
<path fill="none" stroke="#63b8ff" d="M454.26,-425.05C429.54,-414.91 399.1,-402.43 376.16,-393.01"/>
<polygon fill="#63b8ff" stroke="#63b8ff" points="453.18,-428.4 463.77,-428.95 455.84,-421.92 453.18,-428.4"/>
</a>
</g>
</g>
<!-- Node5 -->
<g id="Node000005" class="node">
<title>Node5</title>
<g id="a_Node000005"><a xlink:href="_default_socket_data_8hpp.html" target="_top" xlink:title=" ">
<polygon fill="white" stroke="#666666" points="514,-327 342,-327 342,-286 514,-286 514,-327"/>
<text text-anchor="start" x="350" y="-315" font-family="Helvetica,sans-Serif" font-size="10.00">include/Hermes/Socket</text>
<text text-anchor="start" x="350" y="-304" font-family="Helvetica,sans-Serif" font-size="10.00">/Sync/_base/Data/DefaultSocket</text>
<text text-anchor="middle" x="428" y="-293" font-family="Helvetica,sans-Serif" font-size="10.00">Data.hpp</text>
</a>
</g>
</g>
<!-- Node4&#45;&gt;Node5 -->
<g id="edge4_Node000004_Node000005" class="edge">
<title>Node4&#45;&gt;Node5</title>
<g id="a_edge4_Node000004_Node000005"><a xlink:title=" ">
<path fill="none" stroke="#63b8ff" d="M476.53,-355.69C467.35,-346.57 456.7,-335.99 447.71,-327.07"/>
<polygon fill="#63b8ff" stroke="#63b8ff" points="474.27,-358.37 483.83,-362.94 479.2,-353.41 474.27,-358.37"/>
</a>
</g>
</g>
<!-- Node4&#45;&gt;Node14 -->
<g id="edge17_Node000004_Node000014" class="edge">
<title>Node4&#45;&gt;Node14</title>
<g id="a_edge17_Node000004_Node000014"><a xlink:title=" ">
<path fill="none" stroke="#63b8ff" d="M557.33,-360.17C599.03,-348.34 654.16,-332.7 693.49,-321.54"/>
<polygon fill="#63b8ff" stroke="#63b8ff" points="556.24,-356.84 547.58,-362.94 558.16,-363.57 556.24,-356.84"/>
</a>
</g>
</g>
<!-- Node6 -->
<g id="Node000006" class="node">
<title>Node6</title>
<g id="a_Node000006"><a xlink:href="_default_accept_policy_8hpp.html" target="_top" xlink:title=" ">
<polygon fill="white" stroke="#666666" points="182,-250 0,-250 0,-209 182,-209 182,-250"/>
<text text-anchor="start" x="8" y="-238" font-family="Helvetica,sans-Serif" font-size="10.00">include/Hermes/Socket</text>
<text text-anchor="start" x="8" y="-227" font-family="Helvetica,sans-Serif" font-size="10.00">/Sync/_base/Accept/DefaultAccept</text>
<text text-anchor="middle" x="91" y="-216" font-family="Helvetica,sans-Serif" font-size="10.00">Policy.hpp</text>
</a>
</g>
</g>
<!-- Node5&#45;&gt;Node6 -->
<g id="edge5_Node000005_Node000006" class="edge">
<title>Node5&#45;&gt;Node6</title>
<g id="a_edge5_Node000005_Node000006"><a xlink:title=" ">
<path fill="none" stroke="#63b8ff" d="M331.85,-284.1C283.7,-273.39 225.83,-260.51 178.88,-250.06"/>
<polygon fill="#63b8ff" stroke="#63b8ff" points="331.13,-287.53 341.65,-286.28 332.65,-280.69 331.13,-287.53"/>
</a>
</g>
</g>
<!-- Node10 -->
<g id="Node000010" class="node">
<title>Node10</title>
<g id="a_Node000010"><a xlink:href="_default_connect_policy_8hpp.html" target="_top" xlink:title=" ">
<polygon fill="white" stroke="#666666" points="552,-250 408,-250 408,-209 552,-209 552,-250"/>
<text text-anchor="start" x="416" y="-238" font-family="Helvetica,sans-Serif" font-size="10.00">include/Hermes/Socket</text>
<text text-anchor="start" x="416" y="-227" font-family="Helvetica,sans-Serif" font-size="10.00">/Sync/_base/Connection</text>
<text text-anchor="middle" x="480" y="-216" font-family="Helvetica,sans-Serif" font-size="10.00">/DefaultConnectPolicy.hpp</text>
</a>
</g>
</g>
<!-- Node5&#45;&gt;Node10 -->
<g id="edge10_Node000005_Node000010" class="edge">
<title>Node5&#45;&gt;Node10</title>
<g id="a_edge10_Node000005_Node000010"><a xlink:title=" ">
<path fill="none" stroke="#63b8ff" d="M447.49,-277.39C453.8,-268.3 460.65,-258.41 466.43,-250.07"/>
<polygon fill="#63b8ff" stroke="#63b8ff" points="444.48,-275.58 441.66,-285.79 450.24,-279.57 444.48,-275.58"/>
</a>
</g>
</g>
<!-- Node13 -->
<g id="Node000013" class="node">
<title>Node13</title>
<g id="a_Node000013"><a xlink:href="_default_transfer_policy_8hpp.html" target="_top" xlink:title=" ">
<polygon fill="white" stroke="#666666" points="451.5,-173 308.5,-173 308.5,-132 451.5,-132 451.5,-173"/>
<text text-anchor="start" x="316.5" y="-161" font-family="Helvetica,sans-Serif" font-size="10.00">include/Hermes/Socket</text>
<text text-anchor="start" x="316.5" y="-150" font-family="Helvetica,sans-Serif" font-size="10.00">/Sync/_base/Transfer</text>
<text text-anchor="middle" x="380" y="-139" font-family="Helvetica,sans-Serif" font-size="10.00">/DefaultTransferPolicy.hpp</text>
</a>
</g>
</g>
<!-- Node5&#45;&gt;Node13 -->
<g id="edge14_Node000005_Node000013" class="edge">
<title>Node5&#45;&gt;Node13</title>
<g id="a_edge14_Node000005_Node000013"><a xlink:title=" ">
<path fill="none" stroke="#63b8ff" d="M411.01,-276.8C406.58,-268.39 402.17,-259.02 399,-250 389.94,-224.23 384.78,-192.97 382.19,-173.16"/>
<polygon fill="#63b8ff" stroke="#63b8ff" points="408.08,-278.74 415.95,-285.83 414.22,-275.38 408.08,-278.74"/>
</a>
</g>
</g>
<!-- Node7 -->
<g id="Node000007" class="node">
<title>Node7</title>
<g id="a_Node000007"><a xlink:href="_server_socket_8hpp.html" target="_top" xlink:title=" ">
<polygon fill="white" stroke="#666666" points="385.5,-96 254.5,-96 254.5,-66 385.5,-66 385.5,-96"/>
<text text-anchor="start" x="262.5" y="-84" font-family="Helvetica,sans-Serif" font-size="10.00">include/Hermes/Socket</text>
<text text-anchor="middle" x="320" y="-73" font-family="Helvetica,sans-Serif" font-size="10.00">/Sync/ServerSocket.hpp</text>
</a>
</g>
</g>
<!-- Node6&#45;&gt;Node7 -->
<g id="edge6_Node000006_Node000007" class="edge">
<title>Node6&#45;&gt;Node7</title>
<g id="a_edge6_Node000006_Node000007"><a xlink:title=" ">
<path fill="none" stroke="#63b8ff" d="M92.39,-198.73C94.99,-177.3 101.92,-149.25 120,-132 139.29,-113.59 203.88,-99.68 254.5,-91.26"/>
<polygon fill="#63b8ff" stroke="#63b8ff" points="88.88,-198.64 91.41,-208.93 95.85,-199.31 88.88,-198.64"/>
</a>
</g>
</g>
<!-- Node9 -->
<g id="Node000009" class="node">
<title>Node9</title>
<g id="a_Node000009"><a xlink:href="_tls_accept_policy_8hpp.html" target="_top" xlink:title=" ">
<polygon fill="white" stroke="#666666" points="290.5,-173 129.5,-173 129.5,-132 290.5,-132 290.5,-173"/>
<text text-anchor="start" x="137.5" y="-161" font-family="Helvetica,sans-Serif" font-size="10.00">include/Hermes/Socket</text>
<text text-anchor="start" x="137.5" y="-150" font-family="Helvetica,sans-Serif" font-size="10.00">/Sync/_base/Accept/TlsAccept</text>
<text text-anchor="middle" x="210" y="-139" font-family="Helvetica,sans-Serif" font-size="10.00">Policy.hpp</text>
</a>
</g>
</g>
<!-- Node6&#45;&gt;Node9 -->
<g id="edge8_Node000006_Node000009" class="edge">
<title>Node6&#45;&gt;Node9</title>
<g id="a_edge8_Node000006_Node000009"><a xlink:title=" ">
<path fill="none" stroke="#63b8ff" d="M130.44,-203.64C146.16,-193.74 163.99,-182.5 178.79,-173.17"/>
<polygon fill="#63b8ff" stroke="#63b8ff" points="128.55,-200.7 121.96,-208.99 132.28,-206.62 128.55,-200.7"/>
</a>
</g>
</g>
<!-- Node8 -->
<g id="Node000008" class="node">
<title>Node8</title>
<g id="a_Node000008"><a xlink:href="_listener_socket_8hpp.html" target="_top" xlink:title=" ">
<polygon fill="white" stroke="#666666" points="389,-30 251,-30 251,0 389,0 389,-30"/>
<text text-anchor="start" x="259" y="-18" font-family="Helvetica,sans-Serif" font-size="10.00">include/Hermes/Socket</text>
<text text-anchor="middle" x="320" y="-7" font-family="Helvetica,sans-Serif" font-size="10.00">/Sync/ListenerSocket.hpp</text>
</a>
</g>
</g>
<!-- Node7&#45;&gt;Node8 -->
<g id="edge7_Node000007_Node000008" class="edge">
<title>Node7&#45;&gt;Node8</title>
<g id="a_edge7_Node000007_Node000008"><a xlink:title=" ">
<path fill="none" stroke="#63b8ff" d="M320,-55.54C320,-46.96 320,-37.61 320,-30.16"/>
<polygon fill="#63b8ff" stroke="#63b8ff" points="316.5,-55.8 320,-65.8 323.5,-55.8 316.5,-55.8"/>
</a>
</g>
</g>
<!-- Node9&#45;&gt;Node7 -->
<g id="edge9_Node000009_Node000007" class="edge">
<title>Node9&#45;&gt;Node7</title>
<g id="a_edge9_Node000009_Node000007"><a xlink:title=" ">
<path fill="none" stroke="#63b8ff" d="M249.67,-126.44C265.82,-116.23 283.89,-104.82 297.66,-96.11"/>
<polygon fill="#63b8ff" stroke="#63b8ff" points="247.52,-123.66 240.93,-131.96 251.26,-129.57 247.52,-123.66"/>
</a>
</g>
</g>
<!-- Node11 -->
<g id="Node000011" class="node">
<title>Node11</title>
<g id="a_Node000011"><a xlink:href="_client_socket_8hpp.html" target="_top" xlink:title=" ">
<polygon fill="white" stroke="#666666" points="593,-96 465,-96 465,-66 593,-66 593,-96"/>
<text text-anchor="start" x="473" y="-84" font-family="Helvetica,sans-Serif" font-size="10.00">include/Hermes/Socket</text>
<text text-anchor="middle" x="529" y="-73" font-family="Helvetica,sans-Serif" font-size="10.00">/Sync/ClientSocket.hpp</text>
</a>
</g>
</g>
<!-- Node10&#45;&gt;Node11 -->
<g id="edge11_Node000010_Node000011" class="edge">
<title>Node10&#45;&gt;Node11</title>
<g id="a_edge11_Node000010_Node000011"><a xlink:title=" ">
<path fill="none" stroke="#63b8ff" d="M484.63,-198.76C488.16,-179.36 493.84,-153.71 502,-132 506.72,-119.44 514.05,-106.12 519.88,-96.38"/>
<polygon fill="#63b8ff" stroke="#63b8ff" points="481.14,-198.37 482.88,-208.82 488.04,-199.57 481.14,-198.37"/>
</a>
</g>
</g>
<!-- Node12 -->
<g id="Node000012" class="node">
<title>Node12</title>
<g id="a_Node000012"><a xlink:href="_tls_connect_policy_8hpp.html" target="_top" xlink:title=" ">
<polygon fill="white" stroke="#666666" points="643,-173 511,-173 511,-132 643,-132 643,-173"/>
<text text-anchor="start" x="519" y="-161" font-family="Helvetica,sans-Serif" font-size="10.00">include/Hermes/Socket</text>
<text text-anchor="start" x="519" y="-150" font-family="Helvetica,sans-Serif" font-size="10.00">/Sync/_base/Connection</text>
<text text-anchor="middle" x="577" y="-139" font-family="Helvetica,sans-Serif" font-size="10.00">/TlsConnectPolicy.hpp</text>
</a>
</g>
</g>
<!-- Node10&#45;&gt;Node12 -->
<g id="edge12_Node000010_Node000012" class="edge">
<title>Node10&#45;&gt;Node12</title>
<g id="a_edge12_Node000010_Node000012"><a xlink:title=" ">
<path fill="none" stroke="#63b8ff" d="M513.22,-202.82C525.77,-193.11 539.83,-182.24 551.56,-173.17"/>
<polygon fill="#63b8ff" stroke="#63b8ff" points="511,-200.1 505.23,-208.99 515.28,-205.64 511,-200.1"/>
</a>
</g>
</g>
<!-- Node12&#45;&gt;Node11 -->
<g id="edge13_Node000012_Node000011" class="edge">
<title>Node12&#45;&gt;Node11</title>
<g id="a_edge13_Node000012_Node000011"><a xlink:title=" ">
<path fill="none" stroke="#63b8ff" d="M557.59,-123.4C551.09,-113.99 544.12,-103.9 538.7,-96.04"/>
<polygon fill="#63b8ff" stroke="#63b8ff" points="554.81,-125.53 563.37,-131.77 560.57,-121.55 554.81,-125.53"/>
</a>
</g>
</g>
<!-- Node13&#45;&gt;Node7 -->
<g id="edge16_Node000013_Node000007" class="edge">
<title>Node13&#45;&gt;Node7</title>
<g id="a_edge16_Node000013_Node000007"><a xlink:title=" ">
<path fill="none" stroke="#63b8ff" d="M356.24,-123.98C347.97,-114.4 339.04,-104.06 332.12,-96.04"/>
<polygon fill="#63b8ff" stroke="#63b8ff" points="353.78,-126.49 362.97,-131.77 359.08,-121.91 353.78,-126.49"/>
</a>
</g>
</g>
<!-- Node13&#45;&gt;Node11 -->
<g id="edge15_Node000013_Node000011" class="edge">
<title>Node13&#45;&gt;Node11</title>
<g id="a_edge15_Node000013_Node000011"><a xlink:title=" ">
<path fill="none" stroke="#63b8ff" d="M431.01,-127.71C453.56,-117.19 479.3,-105.18 498.74,-96.11"/>
<polygon fill="#63b8ff" stroke="#63b8ff" points="429.48,-124.56 421.9,-131.96 432.44,-130.9 429.48,-124.56"/>
</a>
</g>
</g>
<!-- Node14&#45;&gt;Node9 -->
<g id="edge18_Node000014_Node000009" class="edge">
<title>Node14&#45;&gt;Node9</title>
<g id="a_edge18_Node000014_Node000009"><a xlink:title=" ">
<path fill="none" stroke="#63b8ff" d="M635.82,-296.89C566.89,-289.25 476.14,-275.22 399,-250 340.17,-230.76 277.16,-195.22 240.79,-173.05"/>
<polygon fill="#63b8ff" stroke="#63b8ff" points="635.5,-300.38 645.82,-297.97 636.26,-293.42 635.5,-300.38"/>
</a>
</g>
</g>
<!-- Node14&#45;&gt;Node12 -->
<g id="edge19_Node000014_Node000012" class="edge">
<title>Node14&#45;&gt;Node12</title>
<g id="a_edge19_Node000014_Node000012"><a xlink:title=" ">
<path fill="none" stroke="#63b8ff" d="M695.73,-287.34C676.04,-278.19 653.89,-265.68 637,-250 613.15,-227.85 595.12,-194.16 585.31,-173.02"/>
<polygon fill="#63b8ff" stroke="#63b8ff" points="694.31,-290.54 704.87,-291.43 697.17,-284.15 694.31,-290.54"/>
</a>
</g>
</g>
<!-- Node15 -->
<g id="Node000015" class="node">
<title>Node15</title>
<g id="a_Node000015"><a xlink:href="_tls_transfer_policy_8hpp.html" target="_top" xlink:title=" ">
<polygon fill="white" stroke="#666666" points="774,-250 646,-250 646,-209 774,-209 774,-250"/>
<text text-anchor="start" x="654" y="-238" font-family="Helvetica,sans-Serif" font-size="10.00">include/Hermes/Socket</text>
<text text-anchor="start" x="654" y="-227" font-family="Helvetica,sans-Serif" font-size="10.00">/Sync/_base/Transfer</text>
<text text-anchor="middle" x="710" y="-216" font-family="Helvetica,sans-Serif" font-size="10.00">/TlsTransferPolicy.hpp</text>
</a>
</g>
</g>
<!-- Node14&#45;&gt;Node15 -->
<g id="edge20_Node000014_Node000015" class="edge">
<title>Node14&#45;&gt;Node15</title>
<g id="a_edge20_Node000014_Node000015"><a xlink:title=" ">
<path fill="none" stroke="#63b8ff" d="M732.74,-282.19C728.23,-271.93 722.98,-260.01 718.67,-250.2"/>
<polygon fill="#63b8ff" stroke="#63b8ff" points="729.56,-283.65 736.79,-291.39 735.97,-280.83 729.56,-283.65"/>
</a>
</g>
</g>
<!-- Node15&#45;&gt;Node7 -->
<g id="edge22_Node000015_Node000007" class="edge">
<title>Node15&#45;&gt;Node7</title>
<g id="a_edge22_Node000015_Node000007"><a xlink:title=" ">
<path fill="none" stroke="#63b8ff" d="M696.18,-199.74C683.45,-174.48 664.68,-140.48 652,-132 630.29,-117.48 476.21,-98.78 385.78,-88.87"/>
<polygon fill="#63b8ff" stroke="#63b8ff" points="693.16,-201.52 700.74,-208.92 699.43,-198.41 693.16,-201.52"/>
</a>
</g>
</g>
<!-- Node15&#45;&gt;Node11 -->
<g id="edge21_Node000015_Node000011" class="edge">
<title>Node15&#45;&gt;Node11</title>
<g id="a_edge21_Node000015_Node000011"><a xlink:title=" ">
<path fill="none" stroke="#63b8ff" d="M709.94,-198.78C708.32,-177.62 702.77,-149.89 686,-132 662.03,-106.43 625.05,-93.89 593,-87.75"/>
<polygon fill="#63b8ff" stroke="#63b8ff" points="706.44,-199.05 710.45,-208.86 713.44,-198.69 706.44,-199.05"/>
</a>
</g>
</g>
<!-- Node16&#45;&gt;Node5 -->
<g id="edge28_Node000016_Node000005" class="edge">
<title>Node16&#45;&gt;Node5</title>
<g id="a_edge28_Node000016_Node000005"><a xlink:title=" ">
<path fill="none" stroke="#63b8ff" d="M367.36,-356.5C378.87,-347.21 392.41,-336.26 403.78,-327.07"/>
<polygon fill="#63b8ff" stroke="#63b8ff" points="364.98,-353.93 359.4,-362.94 369.38,-359.37 364.98,-353.93"/>
</a>
</g>
</g>
<!-- Node16&#45;&gt;Node6 -->
<g id="edge24_Node000016_Node000006" class="edge">
<title>Node16&#45;&gt;Node6</title>
<g id="a_edge24_Node000016_Node000006"><a xlink:title=" ">
<path fill="none" stroke="#63b8ff" d="M267.94,-367.81C213.37,-359.64 145.11,-346.02 124,-327 102.03,-307.21 94.68,-272.17 92.23,-250.2"/>
<polygon fill="#63b8ff" stroke="#63b8ff" points="267.56,-371.29 277.96,-369.28 268.57,-364.37 267.56,-371.29"/>
</a>
</g>
</g>
<!-- Node16&#45;&gt;Node9 -->
<g id="edge25_Node000016_Node000009" class="edge">
<title>Node16&#45;&gt;Node9</title>
<g id="a_edge25_Node000016_Node000009"><a xlink:title=" ">
<path fill="none" stroke="#63b8ff" d="M267.42,-366.22C222.26,-357.99 170.77,-344.99 157,-327 145.92,-312.53 150.27,-302.93 157,-286 165.13,-265.55 180.92,-269.57 191,-250 203.67,-225.41 207.91,-193.3 209.32,-173.03"/>
<polygon fill="#63b8ff" stroke="#63b8ff" points="267.09,-369.71 277.55,-368 268.31,-362.82 267.09,-369.71"/>
</a>
</g>
</g>
<!-- Node16&#45;&gt;Node10 -->
<g id="edge26_Node000016_Node000010" class="edge">
<title>Node16&#45;&gt;Node10</title>
<g id="a_edge26_Node000016_Node000010"><a xlink:title=" ">
<path fill="none" stroke="#63b8ff" d="M415.99,-361C462.93,-350.1 516.11,-336.05 523,-327 541.11,-303.21 518.72,-270.59 500.07,-250.03"/>
<polygon fill="#63b8ff" stroke="#63b8ff" points="415.04,-357.62 406.08,-363.27 416.61,-364.44 415.04,-357.62"/>
</a>
</g>
</g>
<!-- Node16&#45;&gt;Node12 -->
<g id="edge27_Node000016_Node000012" class="edge">
<title>Node16&#45;&gt;Node12</title>
<g id="a_edge27_Node000016_Node000012"><a xlink:title=" ">
<path fill="none" stroke="#63b8ff" d="M416.21,-362.17C468.88,-351.01 531.81,-336.12 541,-327 582.82,-285.51 582.22,-209.01 579.26,-173.09"/>
<polygon fill="#63b8ff" stroke="#63b8ff" points="415.24,-358.8 406.17,-364.28 416.68,-365.65 415.24,-358.8"/>
</a>
</g>
</g>
<!-- Node16&#45;&gt;Node13 -->
<g id="edge30_Node000016_Node000013" class="edge">
<title>Node16&#45;&gt;Node13</title>
<g id="a_edge30_Node000016_Node000013"><a xlink:title=" ">
<path fill="none" stroke="#63b8ff" d="M336.73,-352.69C335.21,-344.56 333.75,-335.43 333,-327 331.38,-308.85 329.91,-303.96 333,-286 340.16,-244.39 359.11,-198.51 370.64,-173.13"/>
<polygon fill="#63b8ff" stroke="#63b8ff" points="333.33,-353.53 338.72,-362.65 340.19,-352.16 333.33,-353.53"/>
</a>
</g>
</g>
<!-- Node16&#45;&gt;Node14 -->
<g id="edge29_Node000016_Node000014" class="edge">
<title>Node16&#45;&gt;Node14</title>
<g id="a_edge29_Node000016_Node000014"><a xlink:title=" ">
<path fill="none" stroke="#63b8ff" d="M416,-362.85C512.88,-345.63 538.74,-342.93 632,-327 642.22,-325.25 652.97,-323.4 663.59,-321.55"/>
<polygon fill="#63b8ff" stroke="#63b8ff" points="415.31,-359.42 406.08,-364.62 416.54,-366.31 415.31,-359.42"/>
</a>
</g>
</g>
<!-- Node16&#45;&gt;Node15 -->
<g id="edge31_Node000016_Node000015" class="edge">
<title>Node16&#45;&gt;Node15</title>
<g id="a_edge31_Node000016_Node000015"><a xlink:title=" ">
<path fill="none" stroke="#63b8ff" d="M416.38,-362.5C489.97,-348.11 591.98,-328.05 594,-327 617.44,-314.84 616.9,-303.13 637,-286 651.66,-273.5 668.77,-260.42 682.74,-250.1"/>
<polygon fill="#63b8ff" stroke="#63b8ff" points="415.34,-359.13 406.2,-364.49 416.68,-366 415.34,-359.13"/>
</a>
</g>
</g>
<!-- Node17 -->
<g id="Node000017" class="node">
<title>Node17</title>
<g id="a_Node000017"><a xlink:href="_to_bytes_8hpp.html" target="_top" xlink:title=" ">
<polygon fill="white" stroke="#666666" points="285.5,-321.5 166.5,-321.5 166.5,-291.5 285.5,-291.5 285.5,-321.5"/>
<text text-anchor="start" x="174.5" y="-309.5" font-family="Helvetica,sans-Serif" font-size="10.00">include/Hermes/Utils</text>
<text text-anchor="middle" x="226" y="-298.5" font-family="Helvetica,sans-Serif" font-size="10.00">/ToBytes.hpp</text>
</a>
</g>
</g>
<!-- Node16&#45;&gt;Node17 -->
<g id="edge32_Node000016_Node000017" class="edge">
<title>Node16&#45;&gt;Node17</title>
<g id="a_edge32_Node000016_Node000017"><a xlink:title=" ">
<path fill="none" stroke="#63b8ff" d="M309.83,-357.72C290.68,-346.25 266.8,-331.95 249.44,-321.54"/>
<polygon fill="#63b8ff" stroke="#63b8ff" points="308.15,-360.8 318.53,-362.94 311.75,-354.79 308.15,-360.8"/>
</a>
</g>
</g>
<!-- Node18&#45;&gt;Node14 -->
<g id="edge35_Node000018_Node000014" class="edge">
<title>Node18&#45;&gt;Node14</title>
<g id="a_edge35_Node000018_Node000014"><a xlink:title=" ">
<path fill="none" stroke="#63b8ff" d="M699.88,-422.14C708.78,-413.95 717.95,-403.9 724,-393 736.7,-370.14 740.91,-339.4 742.31,-321.69"/>
<polygon fill="#63b8ff" stroke="#63b8ff" points="697.45,-419.62 692.21,-428.83 702.05,-424.89 697.45,-419.62"/>
</a>
</g>
</g>
<!-- Node19 -->
<g id="Node000019" class="node">
<title>Node19</title>
<g id="a_Node000019"><a xlink:href="_network_8hpp.html" target="_top" xlink:title=" ">
<polygon fill="white" stroke="#666666" points="714.5,-393 589.5,-393 589.5,-363 714.5,-363 714.5,-393"/>
<text text-anchor="start" x="597.5" y="-381" font-family="Helvetica,sans-Serif" font-size="10.00">include/Hermes/_base</text>
<text text-anchor="middle" x="652" y="-370" font-family="Helvetica,sans-Serif" font-size="10.00">/Network.hpp</text>
</a>
</g>
</g>
<!-- Node18&#45;&gt;Node19 -->
<g id="edge36_Node000018_Node000019" class="edge">
<title>Node18&#45;&gt;Node19</title>
<g id="a_edge36_Node000018_Node000019"><a xlink:title=" ">
<path fill="none" stroke="#63b8ff" d="M665.16,-419.11C662.3,-410.38 659.15,-400.78 656.65,-393.16"/>
<polygon fill="#63b8ff" stroke="#63b8ff" points="661.9,-420.39 668.34,-428.8 668.55,-418.2 661.9,-420.39"/>
</a>
</g>
</g>
</g>
</svg>
