<?xml version="1.0" encoding="UTF-8" standalone="no"?>
<!DOCTYPE svg PUBLIC "-//W3C//DTD SVG 1.1//EN"
 "http://www.w3.org/Graphics/SVG/1.1/DTD/svg11.dtd">
<!-- Generated by graphviz version 2.43.0 (0)
 -->
<!-- Title: include/Hermes/_base/WinApi/Enums/SocketShutdownEnum.hpp Pages: 1 -->
<svg width="1233pt" height="687pt"
 viewBox="0.00 0.00 1232.66 687.00" xmlns="http://www.w3.org/2000/svg" xmlns:xlink="http://www.w3.org/1999/xlink">
<g id="graph0" class="graph" transform="scale(1 1) rotate(0) translate(4 683)">
<title>include/Hermes/_base/WinApi/Enums/SocketShutdownEnum.hpp</title>
<!-- Node1 -->
<g id="Node000001" class="node">
<title>Node1</title>
<g id="a_Node000001"><a xlink:title=" ">
<polygon fill="#999999" stroke="#666666" points="1086,-679 913,-679 913,-638 1086,-638 1086,-679"/>
<text text-anchor="start" x="921" y="-667" font-family="Helvetica,sans-Serif" font-size="10.00">include/Hermes/_base</text>
<text text-anchor="start" x="921" y="-656" font-family="Helvetica,sans-Serif" font-size="10.00">/WinApi/Enums/SocketShutdown</text>
<text text-anchor="middle" x="999.5" y="-645" font-family="Helvetica,sans-Serif" font-size="10.00">Enum.hpp</text>
</a>
</g>
</g>
<!-- Node2 -->
<g id="Node000002" class="node">
<title>Node2</title>
<g id="a_Node000002"><a xlink:href="_win_api_8hpp.html" target="_top" xlink:title=" ">
<polygon fill="white" stroke="#666666" points="1062,-602 937,-602 937,-572 1062,-572 1062,-602"/>
<text text-anchor="start" x="945" y="-590" font-family="Helvetica,sans-Serif" font-size="10.00">include/Hermes/_base</text>
<text text-anchor="middle" x="999.5" y="-579" font-family="Helvetica,sans-Serif" font-size="10.00">/WinApi/WinApi.hpp</text>
</a>
</g>
</g>
<!-- Node1&#45;&gt;Node2 -->
<g id="edge1_Node000001_Node000002" class="edge">
<title>Node1&#45;&gt;Node2</title>
<g id="a_edge1_Node000001_Node000002"><a xlink:title=" ">
<path fill="none" stroke="#63b8ff" d="M999.5,-627.66C999.5,-618.76 999.5,-609.42 999.5,-602.04"/>
<polygon fill="#63b8ff" stroke="#63b8ff" points="996,-627.77 999.5,-637.77 1003,-627.77 996,-627.77"/>
</a>
</g>
</g>
<!-- Node3 -->
<g id="Node000003" class="node">
<title>Node3</title>
<g id="a_Node000003"><a xlink:href="_endpoint_concept_8hpp.html" target="_top" xlink:title=" ">
<polygon fill="white" stroke="#666666" points="902,-536 747,-536 747,-506 902,-506 902,-536"/>
<text text-anchor="start" x="755" y="-524" font-family="Helvetica,sans-Serif" font-size="10.00">include/Hermes/Endpoint</text>
<text text-anchor="middle" x="824.5" y="-513" font-family="Helvetica,sans-Serif" font-size="10.00">/_base/EndpointConcept.hpp</text>
</a>
</g>
</g>
<!-- Node2&#45;&gt;Node3 -->
<g id="edge2_Node000002_Node000003" class="edge">
<title>Node2&#45;&gt;Node3</title>
<g id="a_edge2_Node000002_Node000003"><a xlink:title=" ">
<path fill="none" stroke="#63b8ff" d="M951.53,-568.46C923.61,-558.25 888.9,-545.55 862.81,-536.01"/>
<polygon fill="#63b8ff" stroke="#63b8ff" points="950.5,-571.81 961.1,-571.95 952.91,-565.23 950.5,-571.81"/>
</a>
</g>
</g>
<!-- Node20 -->
<g id="Node000020" class="node">
<title>Node20</title>
<g id="a_Node000020"><a xlink:href="_tls_socket_data_8hpp.html" target="_top" xlink:title=" ">
<polygon fill="white" stroke="#666666" points="1164,-404 1027,-404 1027,-374 1164,-374 1164,-404"/>
<text text-anchor="start" x="1035" y="-392" font-family="Helvetica,sans-Serif" font-size="10.00">include/Hermes/Socket</text>
<text text-anchor="middle" x="1095.5" y="-381" font-family="Helvetica,sans-Serif" font-size="10.00">/Data/TlsSocketData.hpp</text>
</a>
</g>
</g>
<!-- Node2&#45;&gt;Node20 -->
<g id="edge51_Node000002_Node000020" class="edge">
<title>Node2&#45;&gt;Node20</title>
<g id="a_edge51_Node000002_Node000020"><a xlink:title=" ">
<path fill="none" stroke="#63b8ff" d="M1037.73,-566.53C1050.08,-558.57 1062.81,-548.3 1071.5,-536 1100.25,-495.3 1099.21,-432.44 1097.02,-404.38"/>
<polygon fill="#63b8ff" stroke="#63b8ff" points="1035.59,-563.73 1028.86,-571.92 1039.23,-569.71 1035.59,-563.73"/>
</a>
</g>
</g>
<!-- Node25 -->
<g id="Node000025" class="node">
<title>Node25</title>
<g id="a_Node000025"><a xlink:href="_credentials_8hpp.html" target="_top" xlink:title=" ">
<polygon fill="white" stroke="#666666" points="1062,-536 937,-536 937,-506 1062,-506 1062,-536"/>
<text text-anchor="start" x="945" y="-524" font-family="Helvetica,sans-Serif" font-size="10.00">include/Hermes/_base</text>
<text text-anchor="middle" x="999.5" y="-513" font-family="Helvetica,sans-Serif" font-size="10.00">/Credentials.hpp</text>
</a>
</g>
</g>
<!-- Node2&#45;&gt;Node25 -->
<g id="edge52_Node000002_Node000025" class="edge">
<title>Node2&#45;&gt;Node25</title>
<g id="a_edge52_Node000002_Node000025"><a xlink:title=" ">
<path fill="none" stroke="#63b8ff" d="M999.5,-561.54C999.5,-552.96 999.5,-543.61 999.5,-536.16"/>
<polygon fill="#63b8ff" stroke="#63b8ff" points="996,-561.8 999.5,-571.8 1003,-561.8 996,-561.8"/>
</a>
</g>
</g>
<!-- Node4 -->
<g id="Node000004" class="node">
<title>Node4</title>
<g id="a_Node000004"><a xlink:href="_ip_endpoint_8hpp.html" target="_top" xlink:title=" ">
<polygon fill="white" stroke="#666666" points="898,-470 751,-470 751,-440 898,-440 898,-470"/>
<text text-anchor="start" x="759" y="-458" font-family="Helvetica,sans-Serif" font-size="10.00">include/Hermes/Endpoint</text>
<text text-anchor="middle" x="824.5" y="-447" font-family="Helvetica,sans-Serif" font-size="10.00">/IpEndpoint/IpEndpoint.hpp</text>
</a>
</g>
</g>
<!-- Node3&#45;&gt;Node4 -->
<g id="edge3_Node000003_Node000004" class="edge">
<title>Node3&#45;&gt;Node4</title>
<g id="a_edge3_Node000003_Node000004"><a xlink:title=" ">
<path fill="none" stroke="#63b8ff" d="M824.5,-495.54C824.5,-486.96 824.5,-477.61 824.5,-470.16"/>
<polygon fill="#63b8ff" stroke="#63b8ff" points="821,-495.8 824.5,-505.8 828,-495.8 821,-495.8"/>
</a>
</g>
</g>
<!-- Node23 -->
<g id="Node000023" class="node">
<title>Node23</title>
<g id="a_Node000023"><a xlink:href="__base_8hpp.html" target="_top" xlink:title=" ">
<polygon fill="white" stroke="#666666" points="732.5,-470 604.5,-470 604.5,-440 732.5,-440 732.5,-470"/>
<text text-anchor="start" x="612.5" y="-458" font-family="Helvetica,sans-Serif" font-size="10.00">include/Hermes/Socket</text>
<text text-anchor="middle" x="668.5" y="-447" font-family="Helvetica,sans-Serif" font-size="10.00">/_base.hpp</text>
</a>
</g>
</g>
<!-- Node3&#45;&gt;Node23 -->
<g id="edge37_Node000003_Node000023" class="edge">
<title>Node3&#45;&gt;Node23</title>
<g id="a_edge37_Node000003_Node000023"><a xlink:title=" ">
<path fill="none" stroke="#63b8ff" d="M780.76,-502.05C756.04,-491.91 725.6,-479.43 702.66,-470.01"/>
<polygon fill="#63b8ff" stroke="#63b8ff" points="779.68,-505.4 790.27,-505.95 782.34,-498.92 779.68,-505.4"/>
</a>
</g>
</g>
<!-- Node5 -->
<g id="Node000005" class="node">
<title>Node5</title>
<g id="a_Node000005"><a xlink:href="_default_socket_data_8hpp.html" target="_top" xlink:title=" ">
<polygon fill="white" stroke="#666666" points="602.5,-404 444.5,-404 444.5,-374 602.5,-374 602.5,-404"/>
<text text-anchor="start" x="452.5" y="-392" font-family="Helvetica,sans-Serif" font-size="10.00">include/Hermes/Socket</text>
<text text-anchor="middle" x="523.5" y="-381" font-family="Helvetica,sans-Serif" font-size="10.00">/Data/DefaultSocketData.hpp</text>
</a>
</g>
</g>
<!-- Node4&#45;&gt;Node5 -->
<g id="edge4_Node000004_Node000005" class="edge">
<title>Node4&#45;&gt;Node5</title>
<g id="a_edge4_Node000004_Node000005"><a xlink:title=" ">
<path fill="none" stroke="#63b8ff" d="M748.52,-437.84C699.48,-427.42 636.32,-413.99 589.4,-404.01"/>
<polygon fill="#63b8ff" stroke="#63b8ff" points="747.93,-441.3 758.44,-439.95 749.39,-434.45 747.93,-441.3"/>
</a>
</g>
</g>
<!-- Node4&#45;&gt;Node20 -->
<g id="edge27_Node000004_Node000020" class="edge">
<title>Node4&#45;&gt;Node20</title>
<g id="a_edge27_Node000004_Node000020"><a xlink:title=" ">
<path fill="none" stroke="#63b8ff" d="M893.74,-437.65C937.77,-427.25 994.19,-413.93 1036.17,-404.01"/>
<polygon fill="#63b8ff" stroke="#63b8ff" points="892.9,-434.25 883.97,-439.95 894.51,-441.06 892.9,-434.25"/>
</a>
</g>
</g>
<!-- Node6 -->
<g id="Node000006" class="node">
<title>Node6</title>
<g id="a_Node000006"><a xlink:href="_default_async_connect_policy_8hpp.html" target="_top" xlink:title=" ">
<polygon fill="white" stroke="#666666" points="173,-184 0,-184 0,-143 173,-143 173,-184"/>
<text text-anchor="start" x="8" y="-172" font-family="Helvetica,sans-Serif" font-size="10.00">include/Hermes/Socket</text>
<text text-anchor="start" x="8" y="-161" font-family="Helvetica,sans-Serif" font-size="10.00">/Async/_base/Connection</text>
<text text-anchor="middle" x="86.5" y="-150" font-family="Helvetica,sans-Serif" font-size="10.00">/DefaultAsyncConnectPolicy.hpp</text>
</a>
</g>
</g>
<!-- Node5&#45;&gt;Node6 -->
<g id="edge5_Node000005_Node000006" class="edge">
<title>Node5&#45;&gt;Node6</title>
<g id="a_edge5_Node000005_Node000006"><a xlink:title=" ">
<path fill="none" stroke="#63b8ff" d="M434.03,-383.79C346.95,-378.14 222.13,-365.44 182.5,-338 128.01,-300.28 101.19,-221.19 91.23,-184.27"/>
<polygon fill="#63b8ff" stroke="#63b8ff" points="433.99,-387.3 444.19,-384.43 434.43,-380.31 433.99,-387.3"/>
</a>
</g>
</g>
<!-- Node9 -->
<g id="Node000009" class="node">
<title>Node9</title>
<g id="a_Node000009"><a xlink:href="_default_async_transfer_policy_8hpp.html" target="_top" xlink:title=" ">
<polygon fill="white" stroke="#666666" points="364,-338 191,-338 191,-297 364,-297 364,-338"/>
<text text-anchor="start" x="199" y="-326" font-family="Helvetica,sans-Serif" font-size="10.00">include/Hermes/Socket</text>
<text text-anchor="start" x="199" y="-315" font-family="Helvetica,sans-Serif" font-size="10.00">/Async/_base/Transfer</text>
<text text-anchor="middle" x="277.5" y="-304" font-family="Helvetica,sans-Serif" font-size="10.00">/DefaultAsyncTransferPolicy.hpp</text>
</a>
</g>
</g>
<!-- Node5&#45;&gt;Node9 -->
<g id="edge9_Node000005_Node000009" class="edge">
<title>Node5&#45;&gt;Node9</title>
<g id="a_edge9_Node000005_Node000009"><a xlink:title=" ">
<path fill="none" stroke="#63b8ff" d="M464.02,-371.2C428.69,-361.21 383.71,-348.51 346.78,-338.07"/>
<polygon fill="#63b8ff" stroke="#63b8ff" points="463.14,-374.58 473.72,-373.94 465.05,-367.85 463.14,-374.58"/>
</a>
</g>
</g>
<!-- Node12 -->
<g id="Node000012" class="node">
<title>Node12</title>
<g id="a_Node000012"><a xlink:href="_default_accept_policy_8hpp.html" target="_top" xlink:title=" ">
<polygon fill="white" stroke="#666666" points="1124.5,-338 942.5,-338 942.5,-297 1124.5,-297 1124.5,-338"/>
<text text-anchor="start" x="950.5" y="-326" font-family="Helvetica,sans-Serif" font-size="10.00">include/Hermes/Socket</text>
<text text-anchor="start" x="950.5" y="-315" font-family="Helvetica,sans-Serif" font-size="10.00">/Sync/_base/Accept/DefaultAccept</text>
<text text-anchor="middle" x="1033.5" y="-304" font-family="Helvetica,sans-Serif" font-size="10.00">Policy.hpp</text>
</a>
</g>
</g>
<!-- Node5&#45;&gt;Node12 -->
<g id="edge13_Node000005_Node000012" class="edge">
<title>Node5&#45;&gt;Node12</title>
<g id="a_edge13_Node000005_Node000012"><a xlink:title=" ">
<path fill="none" stroke="#63b8ff" d="M612.55,-376.2C687.93,-366.18 798.81,-351.33 895.5,-338 910.6,-335.92 926.63,-333.68 942.21,-331.49"/>
<polygon fill="#63b8ff" stroke="#63b8ff" points="612.07,-372.74 602.62,-377.52 612.99,-379.67 612.07,-372.74"/>
</a>
</g>
</g>
<!-- Node16 -->
<g id="Node000016" class="node">
<title>Node16</title>
<g id="a_Node000016"><a xlink:href="_default_connect_policy_8hpp.html" target="_top" xlink:title=" ">
<polygon fill="white" stroke="#666666" points="526.5,-338 382.5,-338 382.5,-297 526.5,-297 526.5,-338"/>
<text text-anchor="start" x="390.5" y="-326" font-family="Helvetica,sans-Serif" font-size="10.00">include/Hermes/Socket</text>
<text text-anchor="start" x="390.5" y="-315" font-family="Helvetica,sans-Serif" font-size="10.00">/Sync/_base/Connection</text>
<text text-anchor="middle" x="454.5" y="-304" font-family="Helvetica,sans-Serif" font-size="10.00">/DefaultConnectPolicy.hpp</text>
</a>
</g>
</g>
<!-- Node5&#45;&gt;Node16 -->
<g id="edge18_Node000005_Node000016" class="edge">
<title>Node5&#45;&gt;Node16</title>
<g id="a_edge18_Node000005_Node000016"><a xlink:title=" ">
<path fill="none" stroke="#63b8ff" d="M502.34,-366.69C493.29,-357.57 482.79,-346.99 473.93,-338.07"/>
<polygon fill="#63b8ff" stroke="#63b8ff" points="500.01,-369.3 509.54,-373.94 504.98,-364.37 500.01,-369.3"/>
</a>
</g>
</g>
<!-- Node19 -->
<g id="Node000019" class="node">
<title>Node19</title>
<g id="a_Node000019"><a xlink:href="_default_transfer_policy_8hpp.html" target="_top" xlink:title=" ">
<polygon fill="white" stroke="#666666" points="726,-261 583,-261 583,-220 726,-220 726,-261"/>
<text text-anchor="start" x="591" y="-249" font-family="Helvetica,sans-Serif" font-size="10.00">include/Hermes/Socket</text>
<text text-anchor="start" x="591" y="-238" font-family="Helvetica,sans-Serif" font-size="10.00">/Sync/_base/Transfer</text>
<text text-anchor="middle" x="654.5" y="-227" font-family="Helvetica,sans-Serif" font-size="10.00">/DefaultTransferPolicy.hpp</text>
</a>
</g>
</g>
<!-- Node5&#45;&gt;Node19 -->
<g id="edge24_Node000005_Node000019" class="edge">
<title>Node5&#45;&gt;Node19</title>
<g id="a_edge24_Node000005_Node000019"><a xlink:title=" ">
<path fill="none" stroke="#63b8ff" d="M543,-366.2C568.37,-337.82 612.36,-288.62 636.82,-261.27"/>
<polygon fill="#63b8ff" stroke="#63b8ff" points="540.12,-364.17 536.06,-373.95 545.34,-368.83 540.12,-364.17"/>
</a>
</g>
</g>
<!-- Node7 -->
<g id="Node000007" class="node">
<title>Node7</title>
<g id="a_Node000007"><a xlink:href="_async_client_socket_8hpp.html" target="_top" xlink:title=" ">
<polygon fill="white" stroke="#666666" points="335,-30 172,-30 172,0 335,0 335,-30"/>
<text text-anchor="start" x="180" y="-18" font-family="Helvetica,sans-Serif" font-size="10.00">include/Hermes/Socket</text>
<text text-anchor="middle" x="253.5" y="-7" font-family="Helvetica,sans-Serif" font-size="10.00">/Async/AsyncClientSocket.hpp</text>
</a>
</g>
</g>
<!-- Node6&#45;&gt;Node7 -->
<g id="edge6_Node000006_Node000007" class="edge">
<title>Node6&#45;&gt;Node7</title>
<g id="a_edge6_Node000006_Node000007"><a xlink:title=" ">
<path fill="none" stroke="#63b8ff" d="M112.83,-135.74C132.77,-115.87 161.14,-88.45 187.5,-66 202.49,-53.23 220.34,-39.81 233.69,-30.09"/>
<polygon fill="#63b8ff" stroke="#63b8ff" points="110.21,-133.41 105.62,-142.95 115.17,-138.35 110.21,-133.41"/>
</a>
</g>
</g>
<!-- Node8 -->
<g id="Node000008" class="node">
<title>Node8</title>
<g id="a_Node000008"><a xlink:href="_tls_async_connect_policy_8hpp.html" target="_top" xlink:title=" ">
<polygon fill="white" stroke="#666666" points="381.5,-107 229.5,-107 229.5,-66 381.5,-66 381.5,-107"/>
<text text-anchor="start" x="237.5" y="-95" font-family="Helvetica,sans-Serif" font-size="10.00">include/Hermes/Socket</text>
<text text-anchor="start" x="237.5" y="-84" font-family="Helvetica,sans-Serif" font-size="10.00">/Async/_base/Connection</text>
<text text-anchor="middle" x="305.5" y="-73" font-family="Helvetica,sans-Serif" font-size="10.00">/TlsAsyncConnectPolicy.hpp</text>
</a>
</g>
</g>
<!-- Node6&#45;&gt;Node8 -->
<g id="edge7_Node000006_Node000008" class="edge">
<title>Node6&#45;&gt;Node8</title>
<g id="a_edge7_Node000006_Node000008"><a xlink:title=" ">
<path fill="none" stroke="#63b8ff" d="M153.15,-139.67C183.58,-129.25 219.26,-117.03 248.44,-107.04"/>
<polygon fill="#63b8ff" stroke="#63b8ff" points="151.79,-136.44 143.47,-142.99 154.06,-143.06 151.79,-136.44"/>
</a>
</g>
</g>
<!-- Node8&#45;&gt;Node7 -->
<g id="edge8_Node000008_Node000007" class="edge">
<title>Node8&#45;&gt;Node7</title>
<g id="a_edge8_Node000008_Node000007"><a xlink:title=" ">
<path fill="none" stroke="#63b8ff" d="M284.69,-57.69C277.59,-48.19 269.95,-37.98 264,-30.04"/>
<polygon fill="#63b8ff" stroke="#63b8ff" points="281.94,-59.86 290.74,-65.77 287.55,-55.67 281.94,-59.86"/>
</a>
</g>
</g>
<!-- Node9&#45;&gt;Node7 -->
<g id="edge10_Node000009_Node000007" class="edge">
<title>Node9&#45;&gt;Node7</title>
<g id="a_edge10_Node000009_Node000007"><a xlink:title=" ">
<path fill="none" stroke="#63b8ff" d="M228.34,-291.01C217.56,-282.95 207.57,-272.96 201.5,-261 183.48,-225.53 179.88,-176.24 220.5,-66 225.32,-52.92 234.13,-39.84 241.44,-30.33"/>
<polygon fill="#63b8ff" stroke="#63b8ff" points="226.47,-293.97 236.68,-296.8 230.46,-288.22 226.47,-293.97"/>
</a>
</g>
</g>
<!-- Node10 -->
<g id="Node000010" class="node">
<title>Node10</title>
<g id="a_Node000010"><a xlink:href="_async_server_socket_8hpp.html" target="_top" xlink:title=" ">
<polygon fill="white" stroke="#666666" points="526.5,-255.5 360.5,-255.5 360.5,-225.5 526.5,-225.5 526.5,-255.5"/>
<text text-anchor="start" x="368.5" y="-243.5" font-family="Helvetica,sans-Serif" font-size="10.00">include/Hermes/Socket</text>
<text text-anchor="middle" x="443.5" y="-232.5" font-family="Helvetica,sans-Serif" font-size="10.00">/Async/AsyncServerSocket.hpp</text>
</a>
</g>
</g>
<!-- Node9&#45;&gt;Node10 -->
<g id="edge11_Node000009_Node000010" class="edge">
<title>Node9&#45;&gt;Node10</title>
<g id="a_edge11_Node000009_Node000010"><a xlink:title=" ">
<path fill="none" stroke="#63b8ff" d="M330.02,-292.77C357.1,-280.54 389.19,-266.04 412.33,-255.58"/>
<polygon fill="#63b8ff" stroke="#63b8ff" points="328.35,-289.68 320.68,-296.99 331.24,-296.06 328.35,-289.68"/>
</a>
</g>
</g>
<!-- Node11 -->
<g id="Node000011" class="node">
<title>Node11</title>
<g id="a_Node000011"><a xlink:href="_async_listener_socket_8hpp.html" target="_top" xlink:title=" ">
<polygon fill="white" stroke="#666666" points="530,-178.5 357,-178.5 357,-148.5 530,-148.5 530,-178.5"/>
<text text-anchor="start" x="365" y="-166.5" font-family="Helvetica,sans-Serif" font-size="10.00">include/Hermes/Socket</text>
<text text-anchor="middle" x="443.5" y="-155.5" font-family="Helvetica,sans-Serif" font-size="10.00">/Async/AsyncListenerSocket.hpp</text>
</a>
</g>
</g>
<!-- Node10&#45;&gt;Node11 -->
<g id="edge12_Node000010_Node000011" class="edge">
<title>Node10&#45;&gt;Node11</title>
<g id="a_edge12_Node000010_Node000011"><a xlink:title=" ">
<path fill="none" stroke="#63b8ff" d="M443.5,-215.04C443.5,-202.95 443.5,-188.79 443.5,-178.54"/>
<polygon fill="#63b8ff" stroke="#63b8ff" points="440,-215.39 443.5,-225.39 447,-215.39 440,-215.39"/>
</a>
</g>
</g>
<!-- Node13 -->
<g id="Node000013" class="node">
<title>Node13</title>
<g id="a_Node000013"><a xlink:href="_server_socket_8hpp.html" target="_top" xlink:title=" ">
<polygon fill="white" stroke="#666666" points="939,-178.5 808,-178.5 808,-148.5 939,-148.5 939,-178.5"/>
<text text-anchor="start" x="816" y="-166.5" font-family="Helvetica,sans-Serif" font-size="10.00">include/Hermes/Socket</text>
<text text-anchor="middle" x="873.5" y="-155.5" font-family="Helvetica,sans-Serif" font-size="10.00">/Sync/ServerSocket.hpp</text>
</a>
</g>
</g>
<!-- Node12&#45;&gt;Node13 -->
<g id="edge14_Node000012_Node000013" class="edge">
<title>Node12&#45;&gt;Node13</title>
<g id="a_edge14_Node000012_Node000013"><a xlink:title=" ">
<path fill="none" stroke="#63b8ff" d="M1006.06,-289.71C986.05,-270.26 958.23,-243.36 933.5,-220 918.44,-205.77 901.04,-189.72 888.87,-178.55"/>
<polygon fill="#63b8ff" stroke="#63b8ff" points="1003.71,-292.32 1013.32,-296.78 1008.59,-287.3 1003.71,-292.32"/>
</a>
</g>
</g>
<!-- Node15 -->
<g id="Node000015" class="node">
<title>Node15</title>
<g id="a_Node000015"><a xlink:href="_tls_accept_policy_8hpp.html" target="_top" xlink:title=" ">
<polygon fill="white" stroke="#666666" points="1200,-261 1039,-261 1039,-220 1200,-220 1200,-261"/>
<text text-anchor="start" x="1047" y="-249" font-family="Helvetica,sans-Serif" font-size="10.00">include/Hermes/Socket</text>
<text text-anchor="start" x="1047" y="-238" font-family="Helvetica,sans-Serif" font-size="10.00">/Sync/_base/Accept/TlsAccept</text>
<text text-anchor="middle" x="1119.5" y="-227" font-family="Helvetica,sans-Serif" font-size="10.00">Policy.hpp</text>
</a>
</g>
</g>
<!-- Node12&#45;&gt;Node15 -->
<g id="edge16_Node000012_Node000015" class="edge">
<title>Node12&#45;&gt;Node15</title>
<g id="a_edge16_Node000012_Node000015"><a xlink:title=" ">
<path fill="none" stroke="#63b8ff" d="M1063.81,-290.07C1074.75,-280.52 1086.9,-269.93 1097.06,-261.07"/>
<polygon fill="#63b8ff" stroke="#63b8ff" points="1061.33,-287.58 1056.1,-296.79 1065.93,-292.86 1061.33,-287.58"/>
</a>
</g>
</g>
<!-- Node14 -->
<g id="Node000014" class="node">
<title>Node14</title>
<g id="a_Node000014"><a xlink:href="_listener_socket_8hpp.html" target="_top" xlink:title=" ">
<polygon fill="white" stroke="#666666" points="942.5,-101.5 804.5,-101.5 804.5,-71.5 942.5,-71.5 942.5,-101.5"/>
<text text-anchor="start" x="812.5" y="-89.5" font-family="Helvetica,sans-Serif" font-size="10.00">include/Hermes/Socket</text>
<text text-anchor="middle" x="873.5" y="-78.5" font-family="Helvetica,sans-Serif" font-size="10.00">/Sync/ListenerSocket.hpp</text>
</a>
</g>
</g>
<!-- Node13&#45;&gt;Node14 -->
<g id="edge15_Node000013_Node000014" class="edge">
<title>Node13&#45;&gt;Node14</title>
<g id="a_edge15_Node000013_Node000014"><a xlink:title=" ">
<path fill="none" stroke="#63b8ff" d="M873.5,-138.04C873.5,-125.95 873.5,-111.79 873.5,-101.54"/>
<polygon fill="#63b8ff" stroke="#63b8ff" points="870,-138.39 873.5,-148.39 877,-138.39 870,-138.39"/>
</a>
</g>
</g>
<!-- Node15&#45;&gt;Node13 -->
<g id="edge17_Node000015_Node000013" class="edge">
<title>Node15&#45;&gt;Node13</title>
<g id="a_edge17_Node000015_Node000013"><a xlink:title=" ">
<path fill="none" stroke="#63b8ff" d="M1045.84,-217.04C1004.88,-204.56 955.18,-189.4 919.69,-178.58"/>
<polygon fill="#63b8ff" stroke="#63b8ff" points="1044.92,-220.42 1055.51,-219.99 1046.96,-213.73 1044.92,-220.42"/>
</a>
</g>
</g>
<!-- Node17 -->
<g id="Node000017" class="node">
<title>Node17</title>
<g id="a_Node000017"><a xlink:href="_client_socket_8hpp.html" target="_top" xlink:title=" ">
<polygon fill="white" stroke="#666666" points="697.5,-178.5 569.5,-178.5 569.5,-148.5 697.5,-148.5 697.5,-178.5"/>
<text text-anchor="start" x="577.5" y="-166.5" font-family="Helvetica,sans-Serif" font-size="10.00">include/Hermes/Socket</text>
<text text-anchor="middle" x="633.5" y="-155.5" font-family="Helvetica,sans-Serif" font-size="10.00">/Sync/ClientSocket.hpp</text>
</a>
</g>
</g>
<!-- Node16&#45;&gt;Node17 -->
<g id="edge19_Node000016_Node000017" class="edge">
<title>Node16&#45;&gt;Node17</title>
<g id="a_edge19_Node000016_Node000017"><a xlink:title=" ">
<path fill="none" stroke="#63b8ff" d="M494.94,-291.22C508.3,-282.24 522.94,-271.7 535.5,-261 554.65,-244.69 556.67,-237.73 574.5,-220 588.86,-205.72 605.73,-189.95 617.75,-178.87"/>
<polygon fill="#63b8ff" stroke="#63b8ff" points="492.8,-288.44 486.39,-296.88 496.66,-294.28 492.8,-288.44"/>
</a>
</g>
</g>
<!-- Node18 -->
<g id="Node000018" class="node">
<title>Node18</title>
<g id="a_Node000018"><a xlink:href="_tls_connect_policy_8hpp.html" target="_top" xlink:title=" ">
<polygon fill="white" stroke="#666666" points="342.5,-261 210.5,-261 210.5,-220 342.5,-220 342.5,-261"/>
<text text-anchor="start" x="218.5" y="-249" font-family="Helvetica,sans-Serif" font-size="10.00">include/Hermes/Socket</text>
<text text-anchor="start" x="218.5" y="-238" font-family="Helvetica,sans-Serif" font-size="10.00">/Sync/_base/Connection</text>
<text text-anchor="middle" x="276.5" y="-227" font-family="Helvetica,sans-Serif" font-size="10.00">/TlsConnectPolicy.hpp</text>
</a>
</g>
</g>
<!-- Node16&#45;&gt;Node18 -->
<g id="edge20_Node000016_Node000018" class="edge">
<title>Node16&#45;&gt;Node18</title>
<g id="a_edge20_Node000016_Node000018"><a xlink:title=" ">
<path fill="none" stroke="#63b8ff" d="M398.72,-293C374.34,-282.72 346.08,-270.82 322.88,-261.04"/>
<polygon fill="#63b8ff" stroke="#63b8ff" points="397.62,-296.33 408.2,-296.99 400.34,-289.88 397.62,-296.33"/>
</a>
</g>
</g>
<!-- Node18&#45;&gt;Node6 -->
<g id="edge21_Node000018_Node000006" class="edge">
<title>Node18&#45;&gt;Node6</title>
<g id="a_edge21_Node000018_Node000006"><a xlink:title=" ">
<path fill="none" stroke="#63b8ff" d="M217.64,-216.27C191.47,-205.94 160.99,-193.9 136.01,-184.04"/>
<polygon fill="#63b8ff" stroke="#63b8ff" points="216.49,-219.57 227.08,-219.99 219.06,-213.06 216.49,-219.57"/>
</a>
</g>
</g>
<!-- Node18&#45;&gt;Node8 -->
<g id="edge22_Node000018_Node000008" class="edge">
<title>Node18&#45;&gt;Node8</title>
<g id="a_edge22_Node000018_Node000008"><a xlink:title=" ">
<path fill="none" stroke="#63b8ff" d="M282.13,-209.98C287.9,-179.76 296.7,-133.64 301.69,-107.47"/>
<polygon fill="#63b8ff" stroke="#63b8ff" points="278.67,-209.46 280.23,-219.94 285.54,-210.77 278.67,-209.46"/>
</a>
</g>
</g>
<!-- Node18&#45;&gt;Node17 -->
<g id="edge23_Node000018_Node000017" class="edge">
<title>Node18&#45;&gt;Node17</title>
<g id="a_edge23_Node000018_Node000017"><a xlink:title=" ">
<path fill="none" stroke="#63b8ff" d="M352.63,-219.81C436.18,-201.22 459.17,-200.02 539.5,-184 549.14,-182.08 559.33,-180 569.31,-177.95"/>
<polygon fill="#63b8ff" stroke="#63b8ff" points="351.69,-216.43 342.7,-222.04 353.22,-223.27 351.69,-216.43"/>
</a>
</g>
</g>
<!-- Node19&#45;&gt;Node13 -->
<g id="edge26_Node000019_Node000013" class="edge">
<title>Node19&#45;&gt;Node13</title>
<g id="a_edge26_Node000019_Node000013"><a xlink:title=" ">
<path fill="none" stroke="#63b8ff" d="M721,-216.73C757.28,-204.3 801.06,-189.31 832.38,-178.58"/>
<polygon fill="#63b8ff" stroke="#63b8ff" points="719.79,-213.44 711.47,-219.99 722.06,-220.06 719.79,-213.44"/>
</a>
</g>
</g>
<!-- Node19&#45;&gt;Node17 -->
<g id="edge25_Node000019_Node000017" class="edge">
<title>Node19&#45;&gt;Node17</title>
<g id="a_edge25_Node000019_Node000017"><a xlink:title=" ">
<path fill="none" stroke="#63b8ff" d="M646.22,-209.94C643.23,-199.25 639.99,-187.66 637.52,-178.86"/>
<polygon fill="#63b8ff" stroke="#63b8ff" points="642.92,-211.11 648.98,-219.79 649.66,-209.22 642.92,-211.11"/>
</a>
</g>
</g>
<!-- Node20&#45;&gt;Node8 -->
<g id="edge28_Node000020_Node000008" class="edge">
<title>Node20&#45;&gt;Node8</title>
<g id="a_edge28_Node000020_Node000008"><a xlink:title=" ">
<path fill="none" stroke="#63b8ff" d="M1141.67,-369.31C1156.37,-361.48 1171.62,-351.09 1182.5,-338 1216.88,-296.62 1241.71,-263.09 1209.5,-220 1137.08,-123.13 1067.35,-165.42 948.5,-143 746.18,-104.83 503.03,-92.86 381.89,-89.14"/>
<polygon fill="#63b8ff" stroke="#63b8ff" points="1139.99,-366.24 1132.64,-373.86 1143.14,-372.49 1139.99,-366.24"/>
</a>
</g>
</g>
<!-- Node20&#45;&gt;Node15 -->
<g id="edge32_Node000020_Node000015" class="edge">
<title>Node20&#45;&gt;Node15</title>
<g id="a_edge32_Node000020_Node000015"><a xlink:title=" ">
<path fill="none" stroke="#63b8ff" d="M1136.61,-368.62C1148.44,-360.87 1159.91,-350.71 1166.5,-338 1174.89,-321.83 1172.77,-314.11 1166.5,-297 1161.5,-283.37 1151.51,-270.78 1142.02,-261.06"/>
<polygon fill="#63b8ff" stroke="#63b8ff" points="1134.74,-365.66 1128.01,-373.84 1138.37,-371.65 1134.74,-365.66"/>
</a>
</g>
</g>
<!-- Node20&#45;&gt;Node18 -->
<g id="edge33_Node000020_Node000018" class="edge">
<title>Node20&#45;&gt;Node18</title>
<g id="a_edge33_Node000020_Node000018"><a xlink:title=" ">
<path fill="none" stroke="#63b8ff" d="M1016.62,-379.09C941.72,-370.21 826.1,-355.41 726.5,-338 640.97,-323.05 620.55,-314.45 535.5,-297 453.87,-280.25 432.75,-279.49 351.5,-261 348.61,-260.34 345.67,-259.66 342.7,-258.95"/>
<polygon fill="#63b8ff" stroke="#63b8ff" points="1016.57,-382.61 1026.91,-380.3 1017.39,-375.66 1016.57,-382.61"/>
</a>
</g>
</g>
<!-- Node21 -->
<g id="Node000021" class="node">
<title>Node21</title>
<g id="a_Node000021"><a xlink:href="_tls_async_transfer_policy_8hpp.html" target="_top" xlink:title=" ">
<polygon fill="white" stroke="#666666" points="886,-338 735,-338 735,-297 886,-297 886,-338"/>
<text text-anchor="start" x="743" y="-326" font-family="Helvetica,sans-Serif" font-size="10.00">include/Hermes/Socket</text>
<text text-anchor="start" x="743" y="-315" font-family="Helvetica,sans-Serif" font-size="10.00">/Async/_base/Transfer</text>
<text text-anchor="middle" x="810.5" y="-304" font-family="Helvetica,sans-Serif" font-size="10.00">/TlsAsyncTransferPolicy.hpp</text>
</a>
</g>
</g>
<!-- Node20&#45;&gt;Node21 -->
<g id="edge29_Node000020_Node000021" class="edge">
<title>Node20&#45;&gt;Node21</title>
<g id="a_edge29_Node000020_Node000021"><a xlink:title=" ">
<path fill="none" stroke="#63b8ff" d="M1028.11,-371.57C985.49,-361.17 930.33,-347.72 886.21,-336.96"/>
<polygon fill="#63b8ff" stroke="#63b8ff" points="1027.28,-374.97 1037.83,-373.94 1028.94,-368.17 1027.28,-374.97"/>
</a>
</g>
</g>
<!-- Node22 -->
<g id="Node000022" class="node">
<title>Node22</title>
<g id="a_Node000022"><a xlink:href="_tls_transfer_policy_8hpp.html" target="_top" xlink:title=" ">
<polygon fill="white" stroke="#666666" points="924.5,-261 796.5,-261 796.5,-220 924.5,-220 924.5,-261"/>
<text text-anchor="start" x="804.5" y="-249" font-family="Helvetica,sans-Serif" font-size="10.00">include/Hermes/Socket</text>
<text text-anchor="start" x="804.5" y="-238" font-family="Helvetica,sans-Serif" font-size="10.00">/Sync/_base/Transfer</text>
<text text-anchor="middle" x="860.5" y="-227" font-family="Helvetica,sans-Serif" font-size="10.00">/TlsTransferPolicy.hpp</text>
</a>
</g>
</g>
<!-- Node20&#45;&gt;Node22 -->
<g id="edge34_Node000020_Node000022" class="edge">
<title>Node20&#45;&gt;Node22</title>
<g id="a_edge34_Node000020_Node000022"><a xlink:title=" ">
<path fill="none" stroke="#63b8ff" d="M1016.83,-374.19C988.78,-366.66 958.08,-355.23 933.5,-338 918.45,-327.45 889.86,-286.23 873.28,-261.2"/>
<polygon fill="#63b8ff" stroke="#63b8ff" points="1016.07,-377.61 1026.63,-376.69 1017.81,-370.82 1016.07,-377.61"/>
</a>
</g>
</g>
<!-- Node21&#45;&gt;Node7 -->
<g id="edge30_Node000021_Node000007" class="edge">
<title>Node21&#45;&gt;Node7</title>
<g id="a_edge30_Node000021_Node000007"><a xlink:title=" ">
<path fill="none" stroke="#63b8ff" d="M892.83,-292.57C908.26,-284.72 922.86,-274.44 933.5,-261 987.52,-192.76 1010.8,-129.7 951.5,-66 910.26,-21.71 510.38,-16.07 335.12,-15.75"/>
<polygon fill="#63b8ff" stroke="#63b8ff" points="891.21,-289.46 883.68,-296.91 894.21,-295.79 891.21,-289.46"/>
</a>
</g>
</g>
<!-- Node21&#45;&gt;Node10 -->
<g id="edge31_Node000021_Node000010" class="edge">
<title>Node21&#45;&gt;Node10</title>
<g id="a_edge31_Node000021_Node000010"><a xlink:title=" ">
<path fill="none" stroke="#63b8ff" d="M724.72,-298.97C659.98,-285.74 572.33,-267.83 512.19,-255.54"/>
<polygon fill="#63b8ff" stroke="#63b8ff" points="724.4,-302.48 734.9,-301.05 725.81,-295.62 724.4,-302.48"/>
</a>
</g>
</g>
<!-- Node22&#45;&gt;Node13 -->
<g id="edge36_Node000022_Node000013" class="edge">
<title>Node22&#45;&gt;Node13</title>
<g id="a_edge36_Node000022_Node000013"><a xlink:title=" ">
<path fill="none" stroke="#63b8ff" d="M865.68,-209.61C867.52,-199.01 869.5,-187.57 871.01,-178.86"/>
<polygon fill="#63b8ff" stroke="#63b8ff" points="862.17,-209.34 863.92,-219.79 869.07,-210.54 862.17,-209.34"/>
</a>
</g>
</g>
<!-- Node22&#45;&gt;Node17 -->
<g id="edge35_Node000022_Node000017" class="edge">
<title>Node22&#45;&gt;Node17</title>
<g id="a_edge35_Node000022_Node000017"><a xlink:title=" ">
<path fill="none" stroke="#63b8ff" d="M791.57,-216.73C753.96,-204.3 708.59,-189.31 676.12,-178.58"/>
<polygon fill="#63b8ff" stroke="#63b8ff" points="790.86,-220.18 801.45,-219.99 793.05,-213.53 790.86,-220.18"/>
</a>
</g>
</g>
<!-- Node23&#45;&gt;Node5 -->
<g id="edge42_Node000023_Node000005" class="edge">
<title>Node23&#45;&gt;Node5</title>
<g id="a_edge42_Node000023_Node000005"><a xlink:title=" ">
<path fill="none" stroke="#63b8ff" d="M627.23,-435.78C604.37,-425.69 576.38,-413.34 555.25,-404.01"/>
<polygon fill="#63b8ff" stroke="#63b8ff" points="626.12,-439.12 636.68,-439.95 628.94,-432.71 626.12,-439.12"/>
</a>
</g>
</g>
<!-- Node23&#45;&gt;Node6 -->
<g id="edge38_Node000023_Node000006" class="edge">
<title>Node23&#45;&gt;Node6</title>
<g id="a_edge38_Node000023_Node000006"><a xlink:title=" ">
<path fill="none" stroke="#63b8ff" d="M594.01,-449.92C487.11,-443.32 295.99,-428.5 231.5,-404 150.93,-373.39 125.64,-343.44 100.5,-261 92.6,-235.09 89.11,-203.87 87.6,-184.1"/>
<polygon fill="#63b8ff" stroke="#63b8ff" points="593.89,-453.42 604.08,-450.54 594.31,-446.44 593.89,-453.42"/>
</a>
</g>
</g>
<!-- Node23&#45;&gt;Node8 -->
<g id="edge39_Node000023_Node000008" class="edge">
<title>Node23&#45;&gt;Node8</title>
<g id="a_edge39_Node000023_Node000008"><a xlink:title=" ">
<path fill="none" stroke="#63b8ff" d="M672.15,-429.68C674.69,-413.77 678.35,-392.56 682.5,-374 690.23,-339.38 686.6,-328.19 703.5,-297 713.7,-278.18 727.89,-281.01 735.5,-261 754.69,-210.52 748.69,-176.71 706.5,-143 657.77,-104.07 483.83,-92.44 381.75,-88.97"/>
<polygon fill="#63b8ff" stroke="#63b8ff" points="668.66,-429.34 670.58,-439.76 675.58,-430.42 668.66,-429.34"/>
</a>
</g>
</g>
<!-- Node23&#45;&gt;Node9 -->
<g id="edge40_Node000023_Node000009" class="edge">
<title>Node23&#45;&gt;Node9</title>
<g id="a_edge40_Node000023_Node000009"><a xlink:title=" ">
<path fill="none" stroke="#63b8ff" d="M594.46,-445.35C544.91,-438.01 478.88,-425.2 423.5,-404 379.33,-387.1 332.97,-357.64 304.65,-338.1"/>
<polygon fill="#63b8ff" stroke="#63b8ff" points="594.06,-448.83 604.46,-446.79 595.06,-441.9 594.06,-448.83"/>
</a>
</g>
</g>
<!-- Node23&#45;&gt;Node12 -->
<g id="edge44_Node000023_Node000012" class="edge">
<title>Node23&#45;&gt;Node12</title>
<g id="a_edge44_Node000023_Node000012"><a xlink:title=" ">
<path fill="none" stroke="#63b8ff" d="M742.39,-439.54C804.94,-427.06 886.74,-410.12 901.5,-404 942.11,-387.16 983.85,-357.69 1009.23,-338.13"/>
<polygon fill="#63b8ff" stroke="#63b8ff" points="741.66,-436.11 732.53,-441.5 743.02,-442.98 741.66,-436.11"/>
</a>
</g>
</g>
<!-- Node23&#45;&gt;Node15 -->
<g id="edge45_Node000023_Node000015" class="edge">
<title>Node23&#45;&gt;Node15</title>
<g id="a_edge45_Node000023_Node000015"><a xlink:title=" ">
<path fill="none" stroke="#63b8ff" d="M742.76,-439.99C832.65,-423.95 858.04,-427.57 941.5,-404 976.85,-394.02 983.84,-386.16 1018.5,-374 1069.04,-356.27 1101.79,-381.16 1133.5,-338 1149.94,-315.63 1139.57,-282.32 1129.99,-261.26"/>
<polygon fill="#63b8ff" stroke="#63b8ff" points="741.88,-436.59 732.67,-441.83 743.13,-443.48 741.88,-436.59"/>
</a>
</g>
</g>
<!-- Node23&#45;&gt;Node16 -->
<g id="edge46_Node000023_Node000016" class="edge">
<title>Node23&#45;&gt;Node16</title>
<g id="a_edge46_Node000023_Node000016"><a xlink:title=" ">
<path fill="none" stroke="#63b8ff" d="M594.12,-448.05C533.66,-441.49 455.26,-428.45 435.5,-404 420.4,-385.31 431.18,-357.12 441.64,-338.28"/>
<polygon fill="#63b8ff" stroke="#63b8ff" points="594.11,-451.57 604.42,-449.13 594.83,-444.61 594.11,-451.57"/>
</a>
</g>
</g>
<!-- Node23&#45;&gt;Node18 -->
<g id="edge47_Node000023_Node000018" class="edge">
<title>Node23&#45;&gt;Node18</title>
<g id="a_edge47_Node000023_Node000018"><a xlink:title=" ">
<path fill="none" stroke="#63b8ff" d="M594.12,-448C469.88,-436.19 229.12,-405.01 182.5,-338 172.09,-323.04 173.47,-312.83 182.5,-297 191.43,-281.36 206.67,-269.69 222.32,-261.19"/>
<polygon fill="#63b8ff" stroke="#63b8ff" points="594.03,-451.51 604.31,-448.95 594.68,-444.54 594.03,-451.51"/>
</a>
</g>
</g>
<!-- Node23&#45;&gt;Node19 -->
<g id="edge48_Node000023_Node000019" class="edge">
<title>Node23&#45;&gt;Node19</title>
<g id="a_edge48_Node000023_Node000019"><a xlink:title=" ">
<path fill="none" stroke="#63b8ff" d="M660.39,-430.13C657.99,-421.95 655.69,-412.67 654.5,-404 647.47,-352.85 650.49,-291.79 652.79,-261.13"/>
<polygon fill="#63b8ff" stroke="#63b8ff" points="657.08,-431.28 663.4,-439.78 663.76,-429.19 657.08,-431.28"/>
</a>
</g>
</g>
<!-- Node23&#45;&gt;Node20 -->
<g id="edge43_Node000023_Node000020" class="edge">
<title>Node23&#45;&gt;Node20</title>
<g id="a_edge43_Node000023_Node000020"><a xlink:title=" ">
<path fill="none" stroke="#63b8ff" d="M742.67,-440.04C863.7,-420.8 895.95,-421.59 1012.5,-404 1017.12,-403.3 1021.89,-402.56 1026.69,-401.8"/>
<polygon fill="#63b8ff" stroke="#63b8ff" points="741.96,-436.61 732.64,-441.64 743.07,-443.52 741.96,-436.61"/>
</a>
</g>
</g>
<!-- Node23&#45;&gt;Node21 -->
<g id="edge41_Node000023_Node000021" class="edge">
<title>Node23&#45;&gt;Node21</title>
<g id="a_edge41_Node000023_Node000021"><a xlink:title=" ">
<path fill="none" stroke="#63b8ff" d="M690.9,-432.62C718.07,-406.7 763.49,-363.36 789.85,-338.21"/>
<polygon fill="#63b8ff" stroke="#63b8ff" points="688.25,-430.32 683.43,-439.76 693.08,-435.38 688.25,-430.32"/>
</a>
</g>
</g>
<!-- Node23&#45;&gt;Node22 -->
<g id="edge49_Node000023_Node000022" class="edge">
<title>Node23&#45;&gt;Node22</title>
<g id="a_edge49_Node000023_Node000022"><a xlink:title=" ">
<path fill="none" stroke="#63b8ff" d="M676.09,-430.3C689.51,-388.93 716.91,-306.97 726.5,-297 745.27,-277.49 771.9,-264.58 796.49,-256.17"/>
<polygon fill="#63b8ff" stroke="#63b8ff" points="672.74,-429.28 673,-439.87 679.4,-431.43 672.74,-429.28"/>
</a>
</g>
</g>
<!-- Node24 -->
<g id="Node000024" class="node">
<title>Node24</title>
<g id="a_Node000024"><a xlink:href="_to_bytes_8hpp.html" target="_top" xlink:title=" ">
<polygon fill="white" stroke="#666666" points="892,-404 773,-404 773,-374 892,-374 892,-404"/>
<text text-anchor="start" x="781" y="-392" font-family="Helvetica,sans-Serif" font-size="10.00">include/Hermes/Utils</text>
<text text-anchor="middle" x="832.5" y="-381" font-family="Helvetica,sans-Serif" font-size="10.00">/ToBytes.hpp</text>
</a>
</g>
</g>
<!-- Node23&#45;&gt;Node24 -->
<g id="edge50_Node000023_Node000024" class="edge">
<title>Node23&#45;&gt;Node24</title>
<g id="a_edge50_Node000023_Node000024"><a xlink:title=" ">
<path fill="none" stroke="#63b8ff" d="M714.14,-436.19C740.19,-426.02 772.37,-413.47 796.59,-404.01"/>
<polygon fill="#63b8ff" stroke="#63b8ff" points="712.53,-433.06 704.49,-439.95 715.08,-439.58 712.53,-433.06"/>
</a>
</g>
</g>
<!-- Node25&#45;&gt;Node20 -->
<g id="edge53_Node000025_Node000020" class="edge">
<title>Node25&#45;&gt;Node20</title>
<g id="a_edge53_Node000025_Node000020"><a xlink:title=" ">
<path fill="none" stroke="#63b8ff" d="M970.99,-499.58C951.74,-483.24 932.22,-459.85 946.5,-440 956.82,-425.66 994.82,-413.03 1029.87,-404.05"/>
<polygon fill="#63b8ff" stroke="#63b8ff" points="968.86,-502.36 978.85,-505.91 973.25,-496.91 968.86,-502.36"/>
</a>
</g>
</g>
<!-- Node26 -->
<g id="Node000026" class="node">
<title>Node26</title>
<g id="a_Node000026"><a xlink:href="_network_8hpp.html" target="_top" xlink:title=" ">
<polygon fill="white" stroke="#666666" points="1080,-470 955,-470 955,-440 1080,-440 1080,-470"/>
<text text-anchor="start" x="963" y="-458" font-family="Helvetica,sans-Serif" font-size="10.00">include/Hermes/_base</text>
<text text-anchor="middle" x="1017.5" y="-447" font-family="Helvetica,sans-Serif" font-size="10.00">/Network.hpp</text>
</a>
</g>
</g>
<!-- Node25&#45;&gt;Node26 -->
<g id="edge54_Node000025_Node000026" class="edge">
<title>Node25&#45;&gt;Node26</title>
<g id="a_edge54_Node000025_Node000026"><a xlink:title=" ">
<path fill="none" stroke="#63b8ff" d="M1006.22,-496.11C1008.68,-487.38 1011.37,-477.78 1013.52,-470.16"/>
<polygon fill="#63b8ff" stroke="#63b8ff" points="1002.83,-495.22 1003.49,-505.8 1009.57,-497.12 1002.83,-495.22"/>
</a>
</g>
</g>
</g>
</svg>
