<?xml version="1.0" encoding="UTF-8" standalone="no"?>
<!DOCTYPE svg PUBLIC "-//W3C//DTD SVG 1.1//EN"
 "http://www.w3.org/Graphics/SVG/1.1/DTD/svg11.dtd">
<!-- Generated by graphviz version 2.43.0 (0)
 -->
<!-- Title: include/Hermes/Socket/Data/TlsSocketData.hpp Pages: 1 -->
<svg width="1245pt" height="335pt"
 viewBox="0.00 0.00 1244.81 335.00" xmlns="http://www.w3.org/2000/svg" xmlns:xlink="http://www.w3.org/1999/xlink">
<g id="graph0" class="graph" transform="scale(1 1) rotate(0) translate(4 331)">
<title>include/Hermes/Socket/Data/TlsSocketData.hpp</title>
<!-- Node1 -->
<g id="Node000001" class="node">
<title>Node1</title>
<g id="a_Node000001"><a xlink:title=" ">
<polygon fill="#999999" stroke="#666666" points="616,-327 479,-327 479,-297 616,-297 616,-327"/>
<text text-anchor="start" x="487" y="-315" font-family="Helvetica,sans-Serif" font-size="10.00">include/Hermes/Socket</text>
<text text-anchor="middle" x="547.5" y="-304" font-family="Helvetica,sans-Serif" font-size="10.00">/Data/TlsSocketData.hpp</text>
</a>
</g>
</g>
<!-- Node2 -->
<g id="Node000002" class="node">
<title>Node2</title>
<g id="a_Node000002"><a xlink:href="_tls_async_accept_policy_8hpp.html" target="_top" xlink:title=" ">
<polygon fill="white" stroke="#666666" points="163,-184 0,-184 0,-143 163,-143 163,-184"/>
<text text-anchor="start" x="8" y="-172" font-family="Helvetica,sans-Serif" font-size="10.00">include/Hermes/Socket</text>
<text text-anchor="start" x="8" y="-161" font-family="Helvetica,sans-Serif" font-size="10.00">/Async/_base/Accept/TlsAsync</text>
<text text-anchor="middle" x="81.5" y="-150" font-family="Helvetica,sans-Serif" font-size="10.00">AcceptPolicy.hpp</text>
</a>
</g>
</g>
<!-- Node1&#45;&gt;Node2 -->
<g id="edge1_Node000001_Node000002" class="edge">
<title>Node1&#45;&gt;Node2</title>
<g id="a_edge1_Node000001_Node000002"><a xlink:title=" ">
<path fill="none" stroke="#63b8ff" d="M468.69,-306.85C404.7,-301.47 313.02,-289.16 237.5,-261 187.22,-242.25 135.55,-206.38 106.09,-184.04"/>
<polygon fill="#63b8ff" stroke="#63b8ff" points="468.47,-310.34 478.72,-307.65 469.03,-303.36 468.47,-310.34"/>
</a>
</g>
</g>
<!-- Node5 -->
<g id="Node000005" class="node">
<title>Node5</title>
<g id="a_Node000005"><a xlink:href="_tls_async_connect_policy_8hpp.html" target="_top" xlink:title=" ">
<polygon fill="white" stroke="#666666" points="1096.5,-107 944.5,-107 944.5,-66 1096.5,-66 1096.5,-107"/>
<text text-anchor="start" x="952.5" y="-95" font-family="Helvetica,sans-Serif" font-size="10.00">include/Hermes/Socket</text>
<text text-anchor="start" x="952.5" y="-84" font-family="Helvetica,sans-Serif" font-size="10.00">/Async/_base/Connection</text>
<text text-anchor="middle" x="1020.5" y="-73" font-family="Helvetica,sans-Serif" font-size="10.00">/TlsAsyncConnectPolicy.hpp</text>
</a>
</g>
</g>
<!-- Node1&#45;&gt;Node5 -->
<g id="edge4_Node000001_Node000005" class="edge">
<title>Node1&#45;&gt;Node5</title>
<g id="a_edge4_Node000001_Node000005"><a xlink:title=" ">
<path fill="none" stroke="#63b8ff" d="M626.26,-309.16C789.93,-303.42 1157.47,-279.89 1227.5,-184 1265.79,-131.57 1170.4,-106.73 1096.68,-95.64"/>
<polygon fill="#63b8ff" stroke="#63b8ff" points="626.13,-305.66 616.25,-309.5 626.36,-312.66 626.13,-305.66"/>
</a>
</g>
</g>
<!-- Node7 -->
<g id="Node000007" class="node">
<title>Node7</title>
<g id="a_Node000007"><a xlink:href="_tls_async_transfer_policy_8hpp.html" target="_top" xlink:title=" ">
<polygon fill="white" stroke="#666666" points="511,-184 360,-184 360,-143 511,-143 511,-184"/>
<text text-anchor="start" x="368" y="-172" font-family="Helvetica,sans-Serif" font-size="10.00">include/Hermes/Socket</text>
<text text-anchor="start" x="368" y="-161" font-family="Helvetica,sans-Serif" font-size="10.00">/Async/_base/Transfer</text>
<text text-anchor="middle" x="435.5" y="-150" font-family="Helvetica,sans-Serif" font-size="10.00">/TlsAsyncTransferPolicy.hpp</text>
</a>
</g>
</g>
<!-- Node1&#45;&gt;Node7 -->
<g id="edge6_Node000001_Node000007" class="edge">
<title>Node1&#45;&gt;Node7</title>
<g id="a_edge6_Node000001_Node000007"><a xlink:title=" ">
<path fill="none" stroke="#63b8ff" d="M530.55,-288.83C508.81,-260.39 471.43,-211.5 450.62,-184.27"/>
<polygon fill="#63b8ff" stroke="#63b8ff" points="527.91,-291.13 536.76,-296.95 533.47,-286.88 527.91,-291.13"/>
</a>
</g>
</g>
<!-- Node8 -->
<g id="Node000008" class="node">
<title>Node8</title>
<g id="a_Node000008"><a xlink:href="_tls_accept_policy_8hpp.html" target="_top" xlink:title=" ">
<polygon fill="white" stroke="#666666" points="408,-261 247,-261 247,-220 408,-220 408,-261"/>
<text text-anchor="start" x="255" y="-249" font-family="Helvetica,sans-Serif" font-size="10.00">include/Hermes/Socket</text>
<text text-anchor="start" x="255" y="-238" font-family="Helvetica,sans-Serif" font-size="10.00">/Sync/_base/Accept/TlsAccept</text>
<text text-anchor="middle" x="327.5" y="-227" font-family="Helvetica,sans-Serif" font-size="10.00">Policy.hpp</text>
</a>
</g>
</g>
<!-- Node1&#45;&gt;Node8 -->
<g id="edge9_Node000001_Node000008" class="edge">
<title>Node1&#45;&gt;Node8</title>
<g id="a_edge9_Node000001_Node000008"><a xlink:title=" ">
<path fill="none" stroke="#63b8ff" d="M493.09,-293.81C461.68,-283.89 422.06,-271.37 389.46,-261.07"/>
<polygon fill="#63b8ff" stroke="#63b8ff" points="492.39,-297.26 502.98,-296.94 494.5,-290.59 492.39,-297.26"/>
</a>
</g>
</g>
<!-- Node12 -->
<g id="Node000012" class="node">
<title>Node12</title>
<g id="a_Node000012"><a xlink:href="_tls_connect_policy_8hpp.html" target="_top" xlink:title=" ">
<polygon fill="white" stroke="#666666" points="977.5,-261 845.5,-261 845.5,-220 977.5,-220 977.5,-261"/>
<text text-anchor="start" x="853.5" y="-249" font-family="Helvetica,sans-Serif" font-size="10.00">include/Hermes/Socket</text>
<text text-anchor="start" x="853.5" y="-238" font-family="Helvetica,sans-Serif" font-size="10.00">/Sync/_base/Connection</text>
<text text-anchor="middle" x="911.5" y="-227" font-family="Helvetica,sans-Serif" font-size="10.00">/TlsConnectPolicy.hpp</text>
</a>
</g>
</g>
<!-- Node1&#45;&gt;Node12 -->
<g id="edge14_Node000001_Node000012" class="edge">
<title>Node1&#45;&gt;Node12</title>
<g id="a_edge14_Node000001_Node000012"><a xlink:title=" ">
<path fill="none" stroke="#63b8ff" d="M626.25,-295.96C691.67,-283.47 783.68,-265.9 845.34,-254.13"/>
<polygon fill="#63b8ff" stroke="#63b8ff" points="625.56,-292.53 616.39,-297.85 626.87,-299.41 625.56,-292.53"/>
</a>
</g>
</g>
<!-- Node16 -->
<g id="Node000016" class="node">
<title>Node16</title>
<g id="a_Node000016"><a xlink:href="_tls_transfer_policy_8hpp.html" target="_top" xlink:title=" ">
<polygon fill="white" stroke="#666666" points="658.5,-261 530.5,-261 530.5,-220 658.5,-220 658.5,-261"/>
<text text-anchor="start" x="538.5" y="-249" font-family="Helvetica,sans-Serif" font-size="10.00">include/Hermes/Socket</text>
<text text-anchor="start" x="538.5" y="-238" font-family="Helvetica,sans-Serif" font-size="10.00">/Sync/_base/Transfer</text>
<text text-anchor="middle" x="594.5" y="-227" font-family="Helvetica,sans-Serif" font-size="10.00">/TlsTransferPolicy.hpp</text>
</a>
</g>
</g>
<!-- Node1&#45;&gt;Node16 -->
<g id="edge21_Node000001_Node000016" class="edge">
<title>Node1&#45;&gt;Node16</title>
<g id="a_edge21_Node000001_Node000016"><a xlink:title=" ">
<path fill="none" stroke="#63b8ff" d="M562.66,-288.59C568.65,-279.73 575.47,-269.63 581.26,-261.07"/>
<polygon fill="#63b8ff" stroke="#63b8ff" points="559.71,-286.69 557.01,-296.94 565.51,-290.61 559.71,-286.69"/>
</a>
</g>
</g>
<!-- Node3 -->
<g id="Node000003" class="node">
<title>Node3</title>
<g id="a_Node000003"><a xlink:href="_async_server_socket_8hpp.html" target="_top" xlink:title=" ">
<polygon fill="white" stroke="#666666" points="286.5,-101.5 120.5,-101.5 120.5,-71.5 286.5,-71.5 286.5,-101.5"/>
<text text-anchor="start" x="128.5" y="-89.5" font-family="Helvetica,sans-Serif" font-size="10.00">include/Hermes/Socket</text>
<text text-anchor="middle" x="203.5" y="-78.5" font-family="Helvetica,sans-Serif" font-size="10.00">/Async/AsyncServerSocket.hpp</text>
</a>
</g>
</g>
<!-- Node2&#45;&gt;Node3 -->
<g id="edge2_Node000002_Node000003" class="edge">
<title>Node2&#45;&gt;Node3</title>
<g id="a_edge2_Node000002_Node000003"><a xlink:title=" ">
<path fill="none" stroke="#63b8ff" d="M121.91,-137.66C141.34,-125.71 163.92,-111.83 180.4,-101.7"/>
<polygon fill="#63b8ff" stroke="#63b8ff" points="119.92,-134.77 113.24,-142.99 123.59,-140.73 119.92,-134.77"/>
</a>
</g>
</g>
<!-- Node4 -->
<g id="Node000004" class="node">
<title>Node4</title>
<g id="a_Node000004"><a xlink:href="_async_listener_socket_8hpp.html" target="_top" xlink:title=" ">
<polygon fill="white" stroke="#666666" points="290,-30 117,-30 117,0 290,0 290,-30"/>
<text text-anchor="start" x="125" y="-18" font-family="Helvetica,sans-Serif" font-size="10.00">include/Hermes/Socket</text>
<text text-anchor="middle" x="203.5" y="-7" font-family="Helvetica,sans-Serif" font-size="10.00">/Async/AsyncListenerSocket.hpp</text>
</a>
</g>
</g>
<!-- Node3&#45;&gt;Node4 -->
<g id="edge3_Node000003_Node000004" class="edge">
<title>Node3&#45;&gt;Node4</title>
<g id="a_edge3_Node000003_Node000004"><a xlink:title=" ">
<path fill="none" stroke="#63b8ff" d="M203.5,-61.25C203.5,-50.81 203.5,-38.99 203.5,-30.04"/>
<polygon fill="#63b8ff" stroke="#63b8ff" points="200,-61.44 203.5,-71.44 207,-61.44 200,-61.44"/>
</a>
</g>
</g>
<!-- Node6 -->
<g id="Node000006" class="node">
<title>Node6</title>
<g id="a_Node000006"><a xlink:href="_async_client_socket_8hpp.html" target="_top" xlink:title=" ">
<polygon fill="white" stroke="#666666" points="993,-30 830,-30 830,0 993,0 993,-30"/>
<text text-anchor="start" x="838" y="-18" font-family="Helvetica,sans-Serif" font-size="10.00">include/Hermes/Socket</text>
<text text-anchor="middle" x="911.5" y="-7" font-family="Helvetica,sans-Serif" font-size="10.00">/Async/AsyncClientSocket.hpp</text>
</a>
</g>
</g>
<!-- Node5&#45;&gt;Node6 -->
<g id="edge5_Node000005_Node000006" class="edge">
<title>Node5&#45;&gt;Node6</title>
<g id="a_edge5_Node000005_Node000006"><a xlink:title=" ">
<path fill="none" stroke="#63b8ff" d="M981.19,-60.44C965.19,-50.23 947.29,-38.82 933.63,-30.11"/>
<polygon fill="#63b8ff" stroke="#63b8ff" points="979.53,-63.53 989.85,-65.96 983.3,-57.63 979.53,-63.53"/>
</a>
</g>
</g>
<!-- Node7&#45;&gt;Node3 -->
<g id="edge8_Node000007_Node000003" class="edge">
<title>Node7&#45;&gt;Node3</title>
<g id="a_edge8_Node000007_Node000003"><a xlink:title=" ">
<path fill="none" stroke="#63b8ff" d="M365.54,-139.88C327.01,-127.43 280.39,-112.36 247.06,-101.58"/>
<polygon fill="#63b8ff" stroke="#63b8ff" points="364.56,-143.24 375.15,-142.99 366.71,-136.58 364.56,-143.24"/>
</a>
</g>
</g>
<!-- Node7&#45;&gt;Node6 -->
<g id="edge7_Node000007_Node000006" class="edge">
<title>Node7&#45;&gt;Node6</title>
<g id="a_edge7_Node000007_Node000006"><a xlink:title=" ">
<path fill="none" stroke="#63b8ff" d="M451.26,-133.98C465.28,-111.55 487.98,-81.55 516.5,-66 568.92,-37.42 730.46,-24.64 829.98,-19.36"/>
<polygon fill="#63b8ff" stroke="#63b8ff" points="448.13,-132.4 445.96,-142.77 454.12,-136.01 448.13,-132.4"/>
</a>
</g>
</g>
<!-- Node8&#45;&gt;Node2 -->
<g id="edge10_Node000008_Node000002" class="edge">
<title>Node8&#45;&gt;Node2</title>
<g id="a_edge10_Node000008_Node000002"><a xlink:title=" ">
<path fill="none" stroke="#63b8ff" d="M253.52,-216.94C219.14,-206.46 178.65,-194.12 145.6,-184.04"/>
<polygon fill="#63b8ff" stroke="#63b8ff" points="252.92,-220.42 263.51,-219.99 254.96,-213.73 252.92,-220.42"/>
</a>
</g>
</g>
<!-- Node9 -->
<g id="Node000009" class="node">
<title>Node9</title>
<g id="a_Node000009"><a xlink:href="_server_socket_8hpp.html" target="_top" xlink:title=" ">
<polygon fill="white" stroke="#666666" points="660,-178.5 529,-178.5 529,-148.5 660,-148.5 660,-178.5"/>
<text text-anchor="start" x="537" y="-166.5" font-family="Helvetica,sans-Serif" font-size="10.00">include/Hermes/Socket</text>
<text text-anchor="middle" x="594.5" y="-155.5" font-family="Helvetica,sans-Serif" font-size="10.00">/Sync/ServerSocket.hpp</text>
</a>
</g>
</g>
<!-- Node8&#45;&gt;Node9 -->
<g id="edge11_Node000008_Node000009" class="edge">
<title>Node8&#45;&gt;Node9</title>
<g id="a_edge11_Node000008_Node000009"><a xlink:title=" ">
<path fill="none" stroke="#63b8ff" d="M406.61,-217.28C451.22,-204.75 505.61,-189.47 544.37,-178.58"/>
<polygon fill="#63b8ff" stroke="#63b8ff" points="405.63,-213.92 396.95,-219.99 407.53,-220.66 405.63,-213.92"/>
</a>
</g>
</g>
<!-- Node11 -->
<g id="Node000011" class="node">
<title>Node11</title>
<g id="a_Node000011"><a xlink:href="_tls_accept_state_machine_8hpp.html" target="_top" xlink:title=" ">
<polygon fill="white" stroke="#666666" points="341.5,-184 181.5,-184 181.5,-143 341.5,-143 341.5,-184"/>
<text text-anchor="start" x="189.5" y="-172" font-family="Helvetica,sans-Serif" font-size="10.00">include/Hermes/Socket</text>
<text text-anchor="start" x="189.5" y="-161" font-family="Helvetica,sans-Serif" font-size="10.00">/_base/Accept/TlsAcceptState</text>
<text text-anchor="middle" x="261.5" y="-150" font-family="Helvetica,sans-Serif" font-size="10.00">Machine.hpp</text>
</a>
</g>
</g>
<!-- Node8&#45;&gt;Node11 -->
<g id="edge13_Node000008_Node000011" class="edge">
<title>Node8&#45;&gt;Node11</title>
<g id="a_edge13_Node000008_Node000011"><a xlink:title=" ">
<path fill="none" stroke="#63b8ff" d="M303.51,-212.23C295.3,-202.91 286.29,-192.67 278.72,-184.07"/>
<polygon fill="#63b8ff" stroke="#63b8ff" points="300.93,-214.6 310.16,-219.79 306.18,-209.98 300.93,-214.6"/>
</a>
</g>
</g>
<!-- Node10 -->
<g id="Node000010" class="node">
<title>Node10</title>
<g id="a_Node000010"><a xlink:href="_listener_socket_8hpp.html" target="_top" xlink:title=" ">
<polygon fill="white" stroke="#666666" points="663.5,-101.5 525.5,-101.5 525.5,-71.5 663.5,-71.5 663.5,-101.5"/>
<text text-anchor="start" x="533.5" y="-89.5" font-family="Helvetica,sans-Serif" font-size="10.00">include/Hermes/Socket</text>
<text text-anchor="middle" x="594.5" y="-78.5" font-family="Helvetica,sans-Serif" font-size="10.00">/Sync/ListenerSocket.hpp</text>
</a>
</g>
</g>
<!-- Node9&#45;&gt;Node10 -->
<g id="edge12_Node000009_Node000010" class="edge">
<title>Node9&#45;&gt;Node10</title>
<g id="a_edge12_Node000009_Node000010"><a xlink:title=" ">
<path fill="none" stroke="#63b8ff" d="M594.5,-138.04C594.5,-125.95 594.5,-111.79 594.5,-101.54"/>
<polygon fill="#63b8ff" stroke="#63b8ff" points="591,-138.39 594.5,-148.39 598,-138.39 591,-138.39"/>
</a>
</g>
</g>
<!-- Node12&#45;&gt;Node5 -->
<g id="edge18_Node000012_Node000005" class="edge">
<title>Node12&#45;&gt;Node5</title>
<g id="a_edge18_Node000012_Node000005"><a xlink:title=" ">
<path fill="none" stroke="#63b8ff" d="M973.09,-215.01C986.34,-207.01 998.93,-196.79 1007.5,-184 1022.93,-160.97 1023.93,-127.84 1022.65,-107.01"/>
<polygon fill="#63b8ff" stroke="#63b8ff" points="971.31,-211.99 964.32,-219.95 974.75,-218.09 971.31,-211.99"/>
</a>
</g>
</g>
<!-- Node13 -->
<g id="Node000013" class="node">
<title>Node13</title>
<g id="a_Node000013"><a xlink:href="_default_async_connect_policy_8hpp.html" target="_top" xlink:title=" ">
<polygon fill="white" stroke="#666666" points="998,-184 825,-184 825,-143 998,-143 998,-184"/>
<text text-anchor="start" x="833" y="-172" font-family="Helvetica,sans-Serif" font-size="10.00">include/Hermes/Socket</text>
<text text-anchor="start" x="833" y="-161" font-family="Helvetica,sans-Serif" font-size="10.00">/Async/_base/Connection</text>
<text text-anchor="middle" x="911.5" y="-150" font-family="Helvetica,sans-Serif" font-size="10.00">/DefaultAsyncConnectPolicy.hpp</text>
</a>
</g>
</g>
<!-- Node12&#45;&gt;Node13 -->
<g id="edge15_Node000012_Node000013" class="edge">
<title>Node12&#45;&gt;Node13</title>
<g id="a_edge15_Node000012_Node000013"><a xlink:title=" ">
<path fill="none" stroke="#63b8ff" d="M911.5,-209.69C911.5,-201.08 911.5,-191.9 911.5,-184.07"/>
<polygon fill="#63b8ff" stroke="#63b8ff" points="908,-209.79 911.5,-219.79 915,-209.79 908,-209.79"/>
</a>
</g>
</g>
<!-- Node14 -->
<g id="Node000014" class="node">
<title>Node14</title>
<g id="a_Node000014"><a xlink:href="_client_socket_8hpp.html" target="_top" xlink:title=" ">
<polygon fill="white" stroke="#666666" points="806.5,-178.5 678.5,-178.5 678.5,-148.5 806.5,-148.5 806.5,-178.5"/>
<text text-anchor="start" x="686.5" y="-166.5" font-family="Helvetica,sans-Serif" font-size="10.00">include/Hermes/Socket</text>
<text text-anchor="middle" x="742.5" y="-155.5" font-family="Helvetica,sans-Serif" font-size="10.00">/Sync/ClientSocket.hpp</text>
</a>
</g>
</g>
<!-- Node12&#45;&gt;Node14 -->
<g id="edge19_Node000012_Node000014" class="edge">
<title>Node12&#45;&gt;Node14</title>
<g id="a_edge19_Node000012_Node000014"><a xlink:title=" ">
<path fill="none" stroke="#63b8ff" d="M858.39,-215.93C830.75,-203.66 797.89,-189.08 774.23,-178.58"/>
<polygon fill="#63b8ff" stroke="#63b8ff" points="856.98,-219.13 867.54,-219.99 859.82,-212.73 856.98,-219.13"/>
</a>
</g>
</g>
<!-- Node15 -->
<g id="Node000015" class="node">
<title>Node15</title>
<g id="a_Node000015"><a xlink:href="_tls_connect_state_machine_8hpp.html" target="_top" xlink:title=" ">
<polygon fill="white" stroke="#666666" points="1218,-184 1055,-184 1055,-143 1218,-143 1218,-184"/>
<text text-anchor="start" x="1063" y="-172" font-family="Helvetica,sans-Serif" font-size="10.00">include/Hermes/Socket</text>
<text text-anchor="start" x="1063" y="-161" font-family="Helvetica,sans-Serif" font-size="10.00">/_base/Connection/TlsConnect</text>
<text text-anchor="middle" x="1136.5" y="-150" font-family="Helvetica,sans-Serif" font-size="10.00">StateMachine.hpp</text>
</a>
</g>
</g>
<!-- Node12&#45;&gt;Node15 -->
<g id="edge20_Node000012_Node000015" class="edge">
<title>Node12&#45;&gt;Node15</title>
<g id="a_edge20_Node000012_Node000015"><a xlink:title=" ">
<path fill="none" stroke="#63b8ff" d="M979.57,-216.81C1010.93,-206.36 1047.77,-194.08 1077.87,-184.04"/>
<polygon fill="#63b8ff" stroke="#63b8ff" points="978.41,-213.51 970.03,-219.99 980.62,-220.15 978.41,-213.51"/>
</a>
</g>
</g>
<!-- Node13&#45;&gt;Node5 -->
<g id="edge17_Node000013_Node000005" class="edge">
<title>Node13&#45;&gt;Node5</title>
<g id="a_edge17_Node000013_Node000005"><a xlink:title=" ">
<path fill="none" stroke="#63b8ff" d="M948.43,-137.09C962.63,-127.32 978.61,-116.32 991.91,-107.17"/>
<polygon fill="#63b8ff" stroke="#63b8ff" points="946.11,-134.44 939.85,-142.99 950.08,-140.21 946.11,-134.44"/>
</a>
</g>
</g>
<!-- Node13&#45;&gt;Node6 -->
<g id="edge16_Node000013_Node000006" class="edge">
<title>Node13&#45;&gt;Node6</title>
<g id="a_edge16_Node000013_Node000006"><a xlink:title=" ">
<path fill="none" stroke="#63b8ff" d="M911.5,-132.44C911.5,-101.21 911.5,-53.68 911.5,-30.18"/>
<polygon fill="#63b8ff" stroke="#63b8ff" points="908,-132.74 911.5,-142.74 915,-132.74 908,-132.74"/>
</a>
</g>
</g>
<!-- Node16&#45;&gt;Node9 -->
<g id="edge23_Node000016_Node000009" class="edge">
<title>Node16&#45;&gt;Node9</title>
<g id="a_edge23_Node000016_Node000009"><a xlink:title=" ">
<path fill="none" stroke="#63b8ff" d="M594.5,-209.61C594.5,-199.01 594.5,-187.57 594.5,-178.86"/>
<polygon fill="#63b8ff" stroke="#63b8ff" points="591,-209.79 594.5,-219.79 598,-209.79 591,-209.79"/>
</a>
</g>
</g>
<!-- Node16&#45;&gt;Node14 -->
<g id="edge22_Node000016_Node000014" class="edge">
<title>Node16&#45;&gt;Node14</title>
<g id="a_edge22_Node000016_Node000014"><a xlink:title=" ">
<path fill="none" stroke="#63b8ff" d="M641.93,-215.46C665.85,-203.34 694.04,-189.06 714.48,-178.7"/>
<polygon fill="#63b8ff" stroke="#63b8ff" points="640.34,-212.35 633,-219.99 643.5,-218.59 640.34,-212.35"/>
</a>
</g>
</g>
</g>
</svg>
