<?xml version="1.0" encoding="UTF-8" standalone="no"?>
<!DOCTYPE svg PUBLIC "-//W3C//DTD SVG 1.1//EN"
 "http://www.w3.org/Graphics/SVG/1.1/DTD/svg11.dtd">
<!-- Generated by graphviz version 2.43.0 (0)
 -->
<!-- Title: include/Hermes/Socket/_base/Transfer/TlsTransferStateMachine.hpp Pages: 1 -->
<svg width="3216pt" height="445pt"
 viewBox="0.00 0.00 3215.50 445.00" xmlns="http://www.w3.org/2000/svg" xmlns:xlink="http://www.w3.org/1999/xlink">
<g id="graph0" class="graph" transform="scale(1 1) rotate(0) translate(4 441)">
<title>include/Hermes/Socket/_base/Transfer/TlsTransferStateMachine.hpp</title>
<!-- Node1 -->
<g id="Node000001" class="node">
<title>Node1</title>
<g id="a_Node000001"><a xlink:title=" ">
<polygon fill="#999999" stroke="#666666" points="3034.5,-437 2888.5,-437 2888.5,-396 3034.5,-396 3034.5,-437"/>
<text text-anchor="start" x="2896.5" y="-425" font-family="Helvetica,sans-Serif" font-size="10.00">include/Hermes/Socket</text>
<text text-anchor="start" x="2896.5" y="-414" font-family="Helvetica,sans-Serif" font-size="10.00">/_base/Transfer/TlsTransfer</text>
<text text-anchor="middle" x="2961.5" y="-403" font-family="Helvetica,sans-Serif" font-size="10.00">StateMachine.hpp</text>
</a>
</g>
</g>
<!-- Node2 -->
<g id="Node000002" class="node">
<title>Node2</title>
<g id="a_Node000002"><a xlink:href="__base_8hpp.html" target="_top" xlink:title=" ">
<polygon fill="white" stroke="#666666" points="1639,-283 1496,-283 1496,-264 1639,-264 1639,-283"/>
<text text-anchor="middle" x="1567.5" y="-271" font-family="Helvetica,sans-Serif" font-size="10.00">Hermes/Socket/_base.hpp</text>
</a>
</g>
</g>
<!-- Node1&#45;&gt;Node2 -->
<g id="edge1_Node000001_Node000002" class="edge">
<title>Node1&#45;&gt;Node2</title>
<g id="a_edge1_Node000001_Node000002"><a xlink:title=" ">
<path fill="none" stroke="#63b8ff" d="M2888.03,-408.07C2649.73,-383.96 1899.28,-308.06 1649.37,-282.78"/>
<polygon fill="#63b8ff" stroke="#63b8ff" points="1649.57,-279.28 1639.27,-281.76 1648.86,-286.25 1649.57,-279.28"/>
</a>
</g>
</g>
<!-- Node32 -->
<g id="Node000032" class="node">
<title>Node32</title>
<g id="a_Node000032"><a xlink:href="_i_tls_transfer_state_machine_8hpp.html" target="_top" xlink:title=" ">
<polygon fill="white" stroke="#666666" points="2983,-360 2840,-360 2840,-319 2983,-319 2983,-360"/>
<text text-anchor="start" x="2848" y="-348" font-family="Helvetica,sans-Serif" font-size="10.00">Hermes/Socket/_base</text>
<text text-anchor="start" x="2848" y="-337" font-family="Helvetica,sans-Serif" font-size="10.00">/Transfer/ITlsTransferState</text>
<text text-anchor="middle" x="2911.5" y="-326" font-family="Helvetica,sans-Serif" font-size="10.00">Machine.hpp</text>
</a>
</g>
</g>
<!-- Node1&#45;&gt;Node32 -->
<g id="edge40_Node000001_Node000032" class="edge">
<title>Node1&#45;&gt;Node32</title>
<g id="a_edge40_Node000001_Node000032"><a xlink:title=" ">
<path fill="none" stroke="#63b8ff" d="M2948.36,-395.79C2942.79,-387.44 2936.2,-377.55 2930.14,-368.47"/>
<polygon fill="#63b8ff" stroke="#63b8ff" points="2933.01,-366.45 2924.55,-360.07 2927.18,-370.34 2933.01,-366.45"/>
</a>
</g>
</g>
<!-- Node33 -->
<g id="Node000033" class="node">
<title>Node33</title>
<g id="a_Node000033"><a xlink:href="_tls_session_8hpp.html" target="_top" xlink:title=" ">
<polygon fill="white" stroke="#666666" points="3101.5,-228 2979.5,-228 2979.5,-198 3101.5,-198 3101.5,-228"/>
<text text-anchor="start" x="2987.5" y="-216" font-family="Helvetica,sans-Serif" font-size="10.00">Hermes/Socket/_base</text>
<text text-anchor="middle" x="3040.5" y="-205" font-family="Helvetica,sans-Serif" font-size="10.00">/TlsSession.hpp</text>
</a>
</g>
</g>
<!-- Node1&#45;&gt;Node33 -->
<g id="edge44_Node000001_Node000033" class="edge">
<title>Node1&#45;&gt;Node33</title>
<g id="a_edge44_Node000001_Node000033"><a xlink:title=" ">
<path fill="none" stroke="#63b8ff" d="M2973.64,-395.93C2979.8,-385.51 2987.09,-372.33 2992.5,-360 3010.83,-318.22 3026.09,-267.11 3034.2,-237.78"/>
<polygon fill="#63b8ff" stroke="#63b8ff" points="3037.61,-238.58 3036.86,-228.02 3030.86,-236.75 3037.61,-238.58"/>
</a>
</g>
</g>
<!-- Node37 -->
<g id="Node000037" class="node">
<title>Node37</title>
<g id="a_Node000037"><a xlink:title=" ">
<polygon fill="#e0e0e0" stroke="#999999" points="3179.5,-360 3039.5,-360 3039.5,-319 3179.5,-319 3179.5,-360"/>
<text text-anchor="start" x="3047.5" y="-348" font-family="Helvetica,sans-Serif" font-size="10.00">Hermes/Socket/_base</text>
<text text-anchor="start" x="3047.5" y="-337" font-family="Helvetica,sans-Serif" font-size="10.00">/Transfer/TlsTransferState</text>
<text text-anchor="middle" x="3109.5" y="-326" font-family="Helvetica,sans-Serif" font-size="10.00">Machine.tpp</text>
</a>
</g>
</g>
<!-- Node1&#45;&gt;Node37 -->
<g id="edge50_Node000001_Node000037" class="edge">
<title>Node1&#45;&gt;Node37</title>
<g id="a_edge50_Node000001_Node000037"><a xlink:title=" ">
<path fill="none" stroke="#63b8ff" d="M3000,-395.99C3018.94,-386.39 3041.94,-374.73 3061.97,-364.59"/>
<polygon fill="#63b8ff" stroke="#63b8ff" points="3063.6,-367.68 3070.94,-360.04 3060.43,-361.44 3063.6,-367.68"/>
</a>
</g>
</g>
<!-- Node3 -->
<g id="Node000003" class="node">
<title>Node3</title>
<g id="a_Node000003"><a xlink:href="_endpoint_concept_8hpp.html" target="_top" xlink:title=" ">
<polygon fill="white" stroke="#666666" points="1680.5,-228 1548.5,-228 1548.5,-198 1680.5,-198 1680.5,-228"/>
<text text-anchor="start" x="1556.5" y="-216" font-family="Helvetica,sans-Serif" font-size="10.00">Hermes/Endpoint/_base</text>
<text text-anchor="middle" x="1614.5" y="-205" font-family="Helvetica,sans-Serif" font-size="10.00">/EndpointConcept.hpp</text>
</a>
</g>
</g>
<!-- Node2&#45;&gt;Node3 -->
<g id="edge2_Node000002_Node000003" class="edge">
<title>Node2&#45;&gt;Node3</title>
<g id="a_edge2_Node000002_Node000003"><a xlink:title=" ">
<path fill="none" stroke="#63b8ff" d="M1574.44,-263.87C1580.28,-256.59 1588.91,-245.85 1596.66,-236.2"/>
<polygon fill="#63b8ff" stroke="#63b8ff" points="1599.63,-238.1 1603.16,-228.11 1594.17,-233.72 1599.63,-238.1"/>
</a>
</g>
</g>
<!-- Node4 -->
<g id="Node000004" class="node">
<title>Node4</title>
<g id="a_Node000004"><a xlink:href="_connection_error_enum_8hpp.html" target="_top" xlink:title=" ">
<polygon fill="white" stroke="#666666" points="507,-162 340,-162 340,-132 507,-132 507,-162"/>
<text text-anchor="start" x="348" y="-150" font-family="Helvetica,sans-Serif" font-size="10.00">Hermes/_base/ConnectionError</text>
<text text-anchor="middle" x="423.5" y="-139" font-family="Helvetica,sans-Serif" font-size="10.00">Enum.hpp</text>
</a>
</g>
</g>
<!-- Node2&#45;&gt;Node4 -->
<g id="edge35_Node000002_Node000004" class="edge">
<title>Node2&#45;&gt;Node4</title>
<g id="a_edge35_Node000002_Node000004"><a xlink:title=" ">
<path fill="none" stroke="#63b8ff" d="M1562.8,-263.54C1553.59,-247.06 1531.43,-212.31 1501.5,-198 1414.07,-156.19 763.8,-149.3 517.6,-148.2"/>
<polygon fill="#63b8ff" stroke="#63b8ff" points="517.25,-144.7 507.24,-148.15 517.22,-151.7 517.25,-144.7"/>
</a>
</g>
</g>
<!-- Node8 -->
<g id="Node000008" class="node">
<title>Node8</title>
<g id="a_Node000008"><a xlink:title=" ">
<polygon fill="#e0e0e0" stroke="#999999" points="125,-85 0,-85 0,-66 125,-66 125,-85"/>
<text text-anchor="middle" x="62.5" y="-73" font-family="Helvetica,sans-Serif" font-size="10.00">stdexec/execution.hpp</text>
</a>
</g>
</g>
<!-- Node2&#45;&gt;Node8 -->
<g id="edge37_Node000002_Node000008" class="edge">
<title>Node2&#45;&gt;Node8</title>
<g id="a_edge37_Node000002_Node000008"><a xlink:title=" ">
<path fill="none" stroke="#63b8ff" d="M1495.66,-271.54C1304.39,-267.82 767.65,-249.71 331.5,-162 243.18,-144.24 142.99,-107.9 93.52,-88.82"/>
<polygon fill="#63b8ff" stroke="#63b8ff" points="94.63,-85.49 84.04,-85.13 92.09,-92.02 94.63,-85.49"/>
</a>
</g>
</g>
<!-- Node10 -->
<g id="Node000010" class="node">
<title>Node10</title>
<g id="a_Node000010"><a xlink:href="_os_api_8hpp.html" target="_top" xlink:title=" ">
<polygon fill="white" stroke="#666666" points="1767.5,-162 1649.5,-162 1649.5,-132 1767.5,-132 1767.5,-162"/>
<text text-anchor="start" x="1657.5" y="-150" font-family="Helvetica,sans-Serif" font-size="10.00">Hermes/_base/OsApi</text>
<text text-anchor="middle" x="1708.5" y="-139" font-family="Helvetica,sans-Serif" font-size="10.00">/OsApi.hpp</text>
</a>
</g>
</g>
<!-- Node2&#45;&gt;Node10 -->
<g id="edge36_Node000002_Node000010" class="edge">
<title>Node2&#45;&gt;Node10</title>
<g id="a_edge36_Node000002_Node000010"><a xlink:title=" ">
<path fill="none" stroke="#63b8ff" d="M1624.26,-263.92C1647.49,-257.64 1672.79,-246.78 1689.5,-228 1703.02,-212.81 1707.37,-189.76 1708.58,-172.29"/>
<polygon fill="#63b8ff" stroke="#63b8ff" points="1712.08,-172.39 1708.98,-162.26 1705.08,-172.12 1712.08,-172.39"/>
</a>
</g>
</g>
<!-- Node30 -->
<g id="Node000030" class="node">
<title>Node30</title>
<g id="a_Node000030"><a xlink:title=" ">
<polygon fill="#e0e0e0" stroke="#999999" points="1424.5,-222.5 1364.5,-222.5 1364.5,-203.5 1424.5,-203.5 1424.5,-222.5"/>
<text text-anchor="middle" x="1394.5" y="-210.5" font-family="Helvetica,sans-Serif" font-size="10.00">concepts</text>
</a>
</g>
</g>
<!-- Node2&#45;&gt;Node30 -->
<g id="edge38_Node000002_Node000030" class="edge">
<title>Node2&#45;&gt;Node30</title>
<g id="a_edge38_Node000002_Node000030"><a xlink:title=" ">
<path fill="none" stroke="#63b8ff" d="M1541.25,-263.99C1514.19,-255.17 1470.8,-240.89 1433.5,-228 1431.61,-227.35 1429.68,-226.67 1427.72,-225.99"/>
<polygon fill="#63b8ff" stroke="#63b8ff" points="1428.57,-222.57 1417.98,-222.53 1426.23,-229.17 1428.57,-222.57"/>
</a>
</g>
</g>
<!-- Node31 -->
<g id="Node000031" class="node">
<title>Node31</title>
<g id="a_Node000031"><a xlink:title=" ">
<polygon fill="#e0e0e0" stroke="#999999" points="1492.5,-222.5 1442.5,-222.5 1442.5,-203.5 1492.5,-203.5 1492.5,-222.5"/>
<text text-anchor="middle" x="1467.5" y="-210.5" font-family="Helvetica,sans-Serif" font-size="10.00">ranges</text>
</a>
</g>
</g>
<!-- Node2&#45;&gt;Node31 -->
<g id="edge39_Node000002_Node000031" class="edge">
<title>Node2&#45;&gt;Node31</title>
<g id="a_edge39_Node000002_Node000031"><a xlink:title=" ">
<path fill="none" stroke="#63b8ff" d="M1552.74,-263.87C1536.5,-254.36 1510.15,-238.95 1491.04,-227.77"/>
<polygon fill="#63b8ff" stroke="#63b8ff" points="1492.71,-224.7 1482.32,-222.67 1489.18,-230.74 1492.71,-224.7"/>
</a>
</g>
</g>
<!-- Node3&#45;&gt;Node4 -->
<g id="edge3_Node000003_Node000004" class="edge">
<title>Node3&#45;&gt;Node4</title>
<g id="a_edge3_Node000003_Node000004"><a xlink:title=" ">
<path fill="none" stroke="#63b8ff" d="M1548.24,-199.73C1543.6,-199.08 1538.99,-198.49 1534.5,-198 1159.04,-156.87 708.65,-149.4 517.09,-148.17"/>
<polygon fill="#63b8ff" stroke="#63b8ff" points="517.08,-144.67 507.05,-148.11 517.03,-151.67 517.08,-144.67"/>
</a>
</g>
</g>
<!-- Node3&#45;&gt;Node10 -->
<g id="edge9_Node000003_Node000010" class="edge">
<title>Node3&#45;&gt;Node10</title>
<g id="a_edge9_Node000003_Node000010"><a xlink:title=" ">
<path fill="none" stroke="#63b8ff" d="M1635.36,-197.8C1648.26,-189.01 1665.01,-177.61 1679.23,-167.93"/>
<polygon fill="#63b8ff" stroke="#63b8ff" points="1681.4,-170.69 1687.7,-162.16 1677.46,-164.9 1681.4,-170.69"/>
</a>
</g>
</g>
<!-- Node5 -->
<g id="Node000005" class="node">
<title>Node5</title>
<g id="a_Node000005"><a xlink:title=" ">
<polygon fill="#e0e0e0" stroke="#999999" points="454.5,-85 392.5,-85 392.5,-66 454.5,-66 454.5,-85"/>
<text text-anchor="middle" x="423.5" y="-73" font-family="Helvetica,sans-Serif" font-size="10.00">expected</text>
</a>
</g>
</g>
<!-- Node4&#45;&gt;Node5 -->
<g id="edge4_Node000004_Node000005" class="edge">
<title>Node4&#45;&gt;Node5</title>
<g id="a_edge4_Node000004_Node000005"><a xlink:title=" ">
<path fill="none" stroke="#63b8ff" d="M423.5,-131.94C423.5,-121.46 423.5,-107.05 423.5,-95.55"/>
<polygon fill="#63b8ff" stroke="#63b8ff" points="427,-95.27 423.5,-85.27 420,-95.27 427,-95.27"/>
</a>
</g>
</g>
<!-- Node6 -->
<g id="Node000006" class="node">
<title>Node6</title>
<g id="a_Node000006"><a xlink:title=" ">
<polygon fill="#e0e0e0" stroke="#999999" points="190,-85 143,-85 143,-66 190,-66 190,-85"/>
<text text-anchor="middle" x="166.5" y="-73" font-family="Helvetica,sans-Serif" font-size="10.00">vector</text>
</a>
</g>
</g>
<!-- Node4&#45;&gt;Node6 -->
<g id="edge5_Node000004_Node000006" class="edge">
<title>Node4&#45;&gt;Node6</title>
<g id="a_edge5_Node000004_Node000006"><a xlink:title=" ">
<path fill="none" stroke="#63b8ff" d="M339.99,-133.79C297.04,-125.92 244.43,-113.77 199.5,-96 195.57,-94.45 191.57,-92.47 187.76,-90.37"/>
<polygon fill="#63b8ff" stroke="#63b8ff" points="189.26,-87.18 178.87,-85.07 185.67,-93.19 189.26,-87.18"/>
</a>
</g>
</g>
<!-- Node7 -->
<g id="Node000007" class="node">
<title>Node7</title>
<g id="a_Node000007"><a xlink:title=" ">
<polygon fill="#e0e0e0" stroke="#999999" points="2979.5,-85 2939.5,-85 2939.5,-66 2979.5,-66 2979.5,-85"/>
<text text-anchor="middle" x="2959.5" y="-73" font-family="Helvetica,sans-Serif" font-size="10.00">span</text>
</a>
</g>
</g>
<!-- Node4&#45;&gt;Node7 -->
<g id="edge6_Node000004_Node000007" class="edge">
<title>Node4&#45;&gt;Node7</title>
<g id="a_edge6_Node000004_Node000007"><a xlink:title=" ">
<path fill="none" stroke="#63b8ff" d="M507.09,-144.92C924.97,-139.47 2772.28,-114.38 2892.5,-96 2904.91,-94.1 2918.25,-90.54 2929.74,-86.98"/>
<polygon fill="#63b8ff" stroke="#63b8ff" points="2930.85,-90.3 2939.29,-83.89 2928.7,-83.64 2930.85,-90.3"/>
</a>
</g>
</g>
<!-- Node4&#45;&gt;Node8 -->
<g id="edge7_Node000004_Node000008" class="edge">
<title>Node4&#45;&gt;Node8</title>
<g id="a_edge7_Node000004_Node000008"><a xlink:title=" ">
<path fill="none" stroke="#63b8ff" d="M339.95,-133.8C281.78,-124.77 202.56,-111.4 133.5,-96 122.82,-93.62 111.34,-90.65 100.79,-87.75"/>
<polygon fill="#63b8ff" stroke="#63b8ff" points="101.59,-84.34 91.01,-85.01 99.7,-91.08 101.59,-84.34"/>
</a>
</g>
</g>
<!-- Node9 -->
<g id="Node000009" class="node">
<title>Node9</title>
<g id="a_Node000009"><a xlink:title=" ">
<polygon fill="#e0e0e0" stroke="#999999" points="375,-90.5 208,-90.5 208,-60.5 375,-60.5 375,-90.5"/>
<text text-anchor="start" x="216" y="-78.5" font-family="Helvetica,sans-Serif" font-size="10.00">Hermes/_base/ConnectionError</text>
<text text-anchor="middle" x="291.5" y="-67.5" font-family="Helvetica,sans-Serif" font-size="10.00">Enum.tpp</text>
</a>
</g>
</g>
<!-- Node4&#45;&gt;Node9 -->
<g id="edge8_Node000004_Node000009" class="edge">
<title>Node4&#45;&gt;Node9</title>
<g id="a_edge8_Node000004_Node000009"><a xlink:title=" ">
<path fill="none" stroke="#63b8ff" d="M396.79,-131.94C376.75,-121.38 349.11,-106.83 327.18,-95.29"/>
<polygon fill="#63b8ff" stroke="#63b8ff" points="328.65,-92.11 318.17,-90.54 325.39,-98.3 328.65,-92.11"/>
</a>
</g>
</g>
<!-- Node11 -->
<g id="Node000011" class="node">
<title>Node11</title>
<g id="a_Node000011"><a xlink:title=" ">
<polygon fill="#e0e0e0" stroke="#999999" points="2266,-19 2189,-19 2189,0 2266,0 2266,-19"/>
<text text-anchor="middle" x="2227.5" y="-7" font-family="Helvetica,sans-Serif" font-size="10.00">sys/socket.h</text>
</a>
</g>
</g>
<!-- Node10&#45;&gt;Node11 -->
<g id="edge10_Node000010_Node000011" class="edge">
<title>Node10&#45;&gt;Node11</title>
<g id="a_edge10_Node000010_Node000011"><a xlink:title=" ">
<path fill="none" stroke="#63b8ff" d="M1767.79,-143.3C1861.34,-138.21 2038.21,-124.99 2093.5,-96 2115.24,-84.6 2110.72,-69.53 2130.5,-55 2149.28,-41.21 2173.02,-30.23 2192.31,-22.63"/>
<polygon fill="#63b8ff" stroke="#63b8ff" points="2193.56,-25.9 2201.66,-19.07 2191.07,-19.35 2193.56,-25.9"/>
</a>
</g>
</g>
<!-- Node12 -->
<g id="Node000012" class="node">
<title>Node12</title>
<g id="a_Node000012"><a xlink:title=" ">
<polygon fill="#e0e0e0" stroke="#999999" points="580.5,-19 508.5,-19 508.5,0 580.5,0 580.5,-19"/>
<text text-anchor="middle" x="544.5" y="-7" font-family="Helvetica,sans-Serif" font-size="10.00">netinet/in.h</text>
</a>
</g>
</g>
<!-- Node10&#45;&gt;Node12 -->
<g id="edge11_Node000010_Node000012" class="edge">
<title>Node10&#45;&gt;Node12</title>
<g id="a_edge11_Node000010_Node000012"><a xlink:title=" ">
<path fill="none" stroke="#63b8ff" d="M1649.28,-145.79C1412.24,-144.69 542.58,-137.77 502.5,-96 489.88,-82.85 495.77,-71.93 502.5,-55 507.02,-43.63 515.97,-33.48 524.46,-25.76"/>
<polygon fill="#63b8ff" stroke="#63b8ff" points="526.91,-28.27 532.29,-19.14 522.39,-22.92 526.91,-28.27"/>
</a>
</g>
</g>
<!-- Node13 -->
<g id="Node000013" class="node">
<title>Node13</title>
<g id="a_Node000013"><a xlink:title=" ">
<polygon fill="#e0e0e0" stroke="#999999" points="2716,-85 2647,-85 2647,-66 2716,-66 2716,-85"/>
<text text-anchor="middle" x="2681.5" y="-73" font-family="Helvetica,sans-Serif" font-size="10.00">arpa/inet.h</text>
</a>
</g>
</g>
<!-- Node10&#45;&gt;Node13 -->
<g id="edge12_Node000010_Node000013" class="edge">
<title>Node10&#45;&gt;Node13</title>
<g id="a_edge12_Node000010_Node000013"><a xlink:title=" ">
<path fill="none" stroke="#63b8ff" d="M1767.58,-145.61C1945.04,-143.99 2471.31,-135.87 2637.5,-96 2643.75,-94.5 2650.21,-92.14 2656.19,-89.58"/>
<polygon fill="#63b8ff" stroke="#63b8ff" points="2658.09,-92.56 2665.7,-85.18 2655.15,-86.21 2658.09,-92.56"/>
</a>
</g>
</g>
<!-- Node14 -->
<g id="Node000014" class="node">
<title>Node14</title>
<g id="a_Node000014"><a xlink:title=" ">
<polygon fill="#e0e0e0" stroke="#999999" points="1785,-19 1732,-19 1732,0 1785,0 1785,-19"/>
<text text-anchor="middle" x="1758.5" y="-7" font-family="Helvetica,sans-Serif" font-size="10.00">netdb.h</text>
</a>
</g>
</g>
<!-- Node10&#45;&gt;Node14 -->
<g id="edge13_Node000010_Node000014" class="edge">
<title>Node10&#45;&gt;Node14</title>
<g id="a_edge13_Node000010_Node000014"><a xlink:title=" ">
<path fill="none" stroke="#63b8ff" d="M1709.68,-131.91C1711.6,-113.56 1716.38,-80.79 1727.5,-55 1731.78,-45.07 1738.46,-35.1 1744.52,-27.12"/>
<polygon fill="#63b8ff" stroke="#63b8ff" points="1747.44,-29.07 1750.94,-19.07 1741.97,-24.7 1747.44,-29.07"/>
</a>
</g>
</g>
<!-- Node15 -->
<g id="Node000015" class="node">
<title>Node15</title>
<g id="a_Node000015"><a xlink:title=" ">
<polygon fill="#e0e0e0" stroke="#999999" points="776.5,-85 720.5,-85 720.5,-66 776.5,-66 776.5,-85"/>
<text text-anchor="middle" x="748.5" y="-73" font-family="Helvetica,sans-Serif" font-size="10.00">unistd.h</text>
</a>
</g>
</g>
<!-- Node10&#45;&gt;Node15 -->
<g id="edge14_Node000010_Node000015" class="edge">
<title>Node10&#45;&gt;Node15</title>
<g id="a_edge14_Node000010_Node000015"><a xlink:title=" ">
<path fill="none" stroke="#63b8ff" d="M1649.36,-146.09C1472.37,-145.84 949.08,-141.2 785.5,-96 780.51,-94.62 775.44,-92.5 770.71,-90.16"/>
<polygon fill="#63b8ff" stroke="#63b8ff" points="772.08,-86.92 761.62,-85.2 768.72,-93.06 772.08,-86.92"/>
</a>
</g>
</g>
<!-- Node16 -->
<g id="Node000016" class="node">
<title>Node16</title>
<g id="a_Node000016"><a xlink:href="_types_8hpp.html" target="_top" xlink:title=" ">
<polygon fill="white" stroke="#666666" points="912.5,-90.5 794.5,-90.5 794.5,-60.5 912.5,-60.5 912.5,-90.5"/>
<text text-anchor="start" x="802.5" y="-78.5" font-family="Helvetica,sans-Serif" font-size="10.00">Hermes/_base/OsApi</text>
<text text-anchor="middle" x="853.5" y="-67.5" font-family="Helvetica,sans-Serif" font-size="10.00">/Types.hpp</text>
</a>
</g>
</g>
<!-- Node10&#45;&gt;Node16 -->
<g id="edge15_Node000010_Node000016" class="edge">
<title>Node10&#45;&gt;Node16</title>
<g id="a_edge15_Node000010_Node000016"><a xlink:title=" ">
<path fill="none" stroke="#63b8ff" d="M1649.25,-146.58C1517.42,-146.91 1190.29,-142.52 921.5,-96 916.83,-95.19 912.02,-94.18 907.22,-93.06"/>
<polygon fill="#63b8ff" stroke="#63b8ff" points="907.99,-89.64 897.44,-90.59 906.28,-96.43 907.99,-89.64"/>
</a>
</g>
</g>
<!-- Node17 -->
<g id="Node000017" class="node">
<title>Node17</title>
<g id="a_Node000017"><a xlink:href="_conversion_and_literals_8hpp.html" target="_top" xlink:title=" ">
<polygon fill="white" stroke="#666666" points="2883.5,-90.5 2733.5,-90.5 2733.5,-60.5 2883.5,-60.5 2883.5,-90.5"/>
<text text-anchor="start" x="2741.5" y="-78.5" font-family="Helvetica,sans-Serif" font-size="10.00">Hermes/_base/OsApi</text>
<text text-anchor="middle" x="2808.5" y="-67.5" font-family="Helvetica,sans-Serif" font-size="10.00">/ConversionAndLiterals.hpp</text>
</a>
</g>
</g>
<!-- Node10&#45;&gt;Node17 -->
<g id="edge16_Node000010_Node000017" class="edge">
<title>Node10&#45;&gt;Node17</title>
<g id="a_edge16_Node000010_Node000017"><a xlink:title=" ">
<path fill="none" stroke="#63b8ff" d="M1767.5,-144.51C1955.42,-139.54 2538.53,-122.34 2725.5,-96 2731.85,-95.11 2738.42,-93.96 2744.97,-92.66"/>
<polygon fill="#63b8ff" stroke="#63b8ff" points="2746.12,-96 2755.19,-90.53 2744.69,-89.15 2746.12,-96"/>
</a>
</g>
</g>
<!-- Node19 -->
<g id="Node000019" class="node">
<title>Node19</title>
<g id="a_Node000019"><a xlink:href="_macros_8hpp.html" target="_top" xlink:title=" ">
<polygon fill="white" stroke="#666666" points="2628.5,-90.5 2510.5,-90.5 2510.5,-60.5 2628.5,-60.5 2628.5,-90.5"/>
<text text-anchor="start" x="2518.5" y="-78.5" font-family="Helvetica,sans-Serif" font-size="10.00">Hermes/_base/OsApi</text>
<text text-anchor="middle" x="2569.5" y="-67.5" font-family="Helvetica,sans-Serif" font-size="10.00">/Macros.hpp</text>
</a>
</g>
</g>
<!-- Node10&#45;&gt;Node19 -->
<g id="edge18_Node000010_Node000019" class="edge">
<title>Node10&#45;&gt;Node19</title>
<g id="a_edge18_Node000010_Node000019"><a xlink:title=" ">
<path fill="none" stroke="#63b8ff" d="M1767.7,-146.62C1900.21,-147.05 2230.32,-142.86 2501.5,-96 2506.17,-95.19 2510.98,-94.19 2515.78,-93.06"/>
<polygon fill="#63b8ff" stroke="#63b8ff" points="2516.72,-96.43 2525.56,-90.6 2515.01,-89.64 2516.72,-96.43"/>
</a>
</g>
</g>
<!-- Node21 -->
<g id="Node000021" class="node">
<title>Node21</title>
<g id="a_Node000021"><a xlink:href="_address_family_enum_8hpp.html" target="_top" xlink:title=" ">
<polygon fill="white" stroke="#666666" points="2315.5,-90.5 2139.5,-90.5 2139.5,-60.5 2315.5,-60.5 2315.5,-90.5"/>
<text text-anchor="start" x="2147.5" y="-78.5" font-family="Helvetica,sans-Serif" font-size="10.00">Hermes/_base/OsApi</text>
<text text-anchor="middle" x="2227.5" y="-67.5" font-family="Helvetica,sans-Serif" font-size="10.00">/Enums/AddressFamilyEnum.hpp</text>
</a>
</g>
</g>
<!-- Node10&#45;&gt;Node21 -->
<g id="edge21_Node000010_Node000021" class="edge">
<title>Node10&#45;&gt;Node21</title>
<g id="a_edge21_Node000010_Node000021"><a xlink:title=" ">
<path fill="none" stroke="#63b8ff" d="M1767.72,-140.21C1848.72,-131.99 1998.51,-115.73 2125.5,-96 2132.75,-94.87 2140.27,-93.61 2147.79,-92.29"/>
<polygon fill="#63b8ff" stroke="#63b8ff" points="2148.43,-95.73 2157.65,-90.52 2147.19,-88.84 2148.43,-95.73"/>
</a>
</g>
</g>
<!-- Node22 -->
<g id="Node000022" class="node">
<title>Node22</title>
<g id="a_Node000022"><a xlink:href="_protocol_base_type_enum_8hpp.html" target="_top" xlink:title=" ">
<polygon fill="white" stroke="#666666" points="702,-90.5 511,-90.5 511,-60.5 702,-60.5 702,-90.5"/>
<text text-anchor="start" x="519" y="-78.5" font-family="Helvetica,sans-Serif" font-size="10.00">Hermes/_base/OsApi</text>
<text text-anchor="middle" x="606.5" y="-67.5" font-family="Helvetica,sans-Serif" font-size="10.00">/Enums/ProtocolBaseTypeEnum.hpp</text>
</a>
</g>
</g>
<!-- Node10&#45;&gt;Node22 -->
<g id="edge23_Node000010_Node000022" class="edge">
<title>Node10&#45;&gt;Node22</title>
<g id="a_edge23_Node000010_Node000022"><a xlink:title=" ">
<path fill="none" stroke="#63b8ff" d="M1649.27,-145.78C1494.54,-144.62 1065.65,-137.58 711.5,-96 702.8,-94.98 693.74,-93.67 684.75,-92.22"/>
<polygon fill="#63b8ff" stroke="#63b8ff" points="685.08,-88.72 674.64,-90.52 683.92,-95.63 685.08,-88.72"/>
</a>
</g>
</g>
<!-- Node23 -->
<g id="Node000023" class="node">
<title>Node23</title>
<g id="a_Node000023"><a xlink:href="_socket_shutdown_enum_8hpp.html" target="_top" xlink:title=" ">
<polygon fill="white" stroke="#666666" points="2084,-90.5 1899,-90.5 1899,-60.5 2084,-60.5 2084,-90.5"/>
<text text-anchor="start" x="1907" y="-78.5" font-family="Helvetica,sans-Serif" font-size="10.00">Hermes/_base/OsApi</text>
<text text-anchor="middle" x="1991.5" y="-67.5" font-family="Helvetica,sans-Serif" font-size="10.00">/Enums/SocketShutdownEnum.hpp</text>
</a>
</g>
</g>
<!-- Node10&#45;&gt;Node23 -->
<g id="edge25_Node000010_Node000023" class="edge">
<title>Node10&#45;&gt;Node23</title>
<g id="a_edge25_Node000010_Node000023"><a xlink:title=" ">
<path fill="none" stroke="#63b8ff" d="M1765.77,-131.94C1811.7,-120.65 1876.26,-104.8 1924.57,-92.94"/>
<polygon fill="#63b8ff" stroke="#63b8ff" points="1925.44,-96.33 1934.32,-90.54 1923.77,-89.53 1925.44,-96.33"/>
</a>
</g>
</g>
<!-- Node24 -->
<g id="Node000024" class="node">
<title>Node24</title>
<g id="a_Node000024"><a xlink:href="_socket_type_enum_8hpp.html" target="_top" xlink:title=" ">
<polygon fill="white" stroke="#666666" points="2492,-90.5 2333,-90.5 2333,-60.5 2492,-60.5 2492,-90.5"/>
<text text-anchor="start" x="2341" y="-78.5" font-family="Helvetica,sans-Serif" font-size="10.00">Hermes/_base/OsApi</text>
<text text-anchor="middle" x="2412.5" y="-67.5" font-family="Helvetica,sans-Serif" font-size="10.00">/Enums/SocketTypeEnum.hpp</text>
</a>
</g>
</g>
<!-- Node10&#45;&gt;Node24 -->
<g id="edge27_Node000010_Node000024" class="edge">
<title>Node10&#45;&gt;Node24</title>
<g id="a_edge27_Node000010_Node000024"><a xlink:title=" ">
<path fill="none" stroke="#63b8ff" d="M1767.84,-143.89C1878.06,-139.37 2121.59,-126.57 2324.5,-96 2331.05,-95.01 2337.84,-93.82 2344.61,-92.51"/>
<polygon fill="#63b8ff" stroke="#63b8ff" points="2345.37,-95.93 2354.49,-90.53 2343.99,-89.07 2345.37,-95.93"/>
</a>
</g>
</g>
<!-- Node25 -->
<g id="Node000025" class="node">
<title>Node25</title>
<g id="a_Node000025"><a xlink:href="_linux_2_encrypt_status_enum_8hpp.html" target="_top" xlink:title=" ">
<polygon fill="white" stroke="#666666" points="1082.5,-96 930.5,-96 930.5,-55 1082.5,-55 1082.5,-96"/>
<text text-anchor="start" x="938.5" y="-84" font-family="Helvetica,sans-Serif" font-size="10.00">Hermes/_base/OsApi</text>
<text text-anchor="start" x="938.5" y="-73" font-family="Helvetica,sans-Serif" font-size="10.00">/Enums/Linux/EncryptStatus</text>
<text text-anchor="middle" x="1006.5" y="-62" font-family="Helvetica,sans-Serif" font-size="10.00">Enum.hpp</text>
</a>
</g>
</g>
<!-- Node10&#45;&gt;Node25 -->
<g id="edge29_Node000010_Node000025" class="edge">
<title>Node10&#45;&gt;Node25</title>
<g id="a_edge29_Node000010_Node000025"><a xlink:title=" ">
<path fill="none" stroke="#63b8ff" d="M1649.47,-144.06C1540.97,-139.87 1302.5,-127.79 1092.82,-96.09"/>
<polygon fill="#63b8ff" stroke="#63b8ff" points="1093.27,-92.62 1082.85,-94.57 1092.21,-99.54 1093.27,-92.62"/>
</a>
</g>
</g>
<!-- Node26 -->
<g id="Node000026" class="node">
<title>Node26</title>
<g id="a_Node000026"><a xlink:href="_name_info_flags_8hpp.html" target="_top" xlink:title=" ">
<polygon fill="white" stroke="#666666" points="1880.5,-90.5 1736.5,-90.5 1736.5,-60.5 1880.5,-60.5 1880.5,-90.5"/>
<text text-anchor="start" x="1744.5" y="-78.5" font-family="Helvetica,sans-Serif" font-size="10.00">Hermes/_base/OsApi</text>
<text text-anchor="middle" x="1808.5" y="-67.5" font-family="Helvetica,sans-Serif" font-size="10.00">/Flags/NameInfoFlags.hpp</text>
</a>
</g>
</g>
<!-- Node10&#45;&gt;Node26 -->
<g id="edge30_Node000010_Node000026" class="edge">
<title>Node10&#45;&gt;Node26</title>
<g id="a_edge30_Node000010_Node000026"><a xlink:title=" ">
<path fill="none" stroke="#63b8ff" d="M1728.74,-131.94C1743.38,-121.76 1763.37,-107.87 1779.67,-96.54"/>
<polygon fill="#63b8ff" stroke="#63b8ff" points="1782.08,-99.12 1788.29,-90.54 1778.08,-93.38 1782.08,-99.12"/>
</a>
</g>
</g>
<!-- Node27 -->
<g id="Node000027" class="node">
<title>Node27</title>
<g id="a_Node000027"><a xlink:href="_linux_2_credential_flags_8hpp.html" target="_top" xlink:title=" ">
<polygon fill="white" stroke="#666666" points="1276.5,-90.5 1100.5,-90.5 1100.5,-60.5 1276.5,-60.5 1276.5,-90.5"/>
<text text-anchor="start" x="1108.5" y="-78.5" font-family="Helvetica,sans-Serif" font-size="10.00">Hermes/_base/OsApi</text>
<text text-anchor="middle" x="1188.5" y="-67.5" font-family="Helvetica,sans-Serif" font-size="10.00">/Flags/Linux/CredentialFlags.hpp</text>
</a>
</g>
</g>
<!-- Node10&#45;&gt;Node27 -->
<g id="edge32_Node000010_Node000027" class="edge">
<title>Node10&#45;&gt;Node27</title>
<g id="a_edge32_Node000010_Node000027"><a xlink:title=" ">
<path fill="none" stroke="#63b8ff" d="M1649.24,-140.46C1567.41,-132.47 1415.29,-116.41 1286.5,-96 1279.71,-94.92 1272.67,-93.71 1265.62,-92.44"/>
<polygon fill="#63b8ff" stroke="#63b8ff" points="1265.8,-88.91 1255.32,-90.52 1264.52,-95.79 1265.8,-88.91"/>
</a>
</g>
</g>
<!-- Node28 -->
<g id="Node000028" class="node">
<title>Node28</title>
<g id="a_Node000028"><a xlink:href="_linux_2_supported_protocols_flags_8hpp.html" target="_top" xlink:title=" ">
<polygon fill="white" stroke="#666666" points="1468,-96 1295,-96 1295,-55 1468,-55 1468,-96"/>
<text text-anchor="start" x="1303" y="-84" font-family="Helvetica,sans-Serif" font-size="10.00">Hermes/_base/OsApi</text>
<text text-anchor="start" x="1303" y="-73" font-family="Helvetica,sans-Serif" font-size="10.00">/Flags/Linux/SupportedProtocols</text>
<text text-anchor="middle" x="1381.5" y="-62" font-family="Helvetica,sans-Serif" font-size="10.00">Flags.hpp</text>
</a>
</g>
</g>
<!-- Node10&#45;&gt;Node28 -->
<g id="edge33_Node000010_Node000028" class="edge">
<title>Node10&#45;&gt;Node28</title>
<g id="a_edge33_Node000010_Node000028"><a xlink:title=" ">
<path fill="none" stroke="#63b8ff" d="M1649.28,-133.41C1601.62,-123.28 1533.67,-108.84 1478.15,-97.04"/>
<polygon fill="#63b8ff" stroke="#63b8ff" points="1478.8,-93.6 1468.29,-94.95 1477.34,-100.45 1478.8,-93.6"/>
</a>
</g>
</g>
<!-- Node29 -->
<g id="Node000029" class="node">
<title>Node29</title>
<g id="a_Node000029"><a xlink:href="_linux_2_s_channel_cred_flags_8hpp.html" target="_top" xlink:title=" ">
<polygon fill="white" stroke="#666666" points="1680.5,-90.5 1486.5,-90.5 1486.5,-60.5 1680.5,-60.5 1680.5,-90.5"/>
<text text-anchor="start" x="1494.5" y="-78.5" font-family="Helvetica,sans-Serif" font-size="10.00">Hermes/_base/OsApi</text>
<text text-anchor="middle" x="1583.5" y="-67.5" font-family="Helvetica,sans-Serif" font-size="10.00">/Flags/Linux/SChannelCredFlags.hpp</text>
</a>
</g>
</g>
<!-- Node10&#45;&gt;Node29 -->
<g id="edge34_Node000010_Node000029" class="edge">
<title>Node10&#45;&gt;Node29</title>
<g id="a_edge34_Node000010_Node000029"><a xlink:title=" ">
<path fill="none" stroke="#63b8ff" d="M1683.2,-131.94C1664.31,-121.43 1638.29,-106.96 1617.57,-95.44"/>
<polygon fill="#63b8ff" stroke="#63b8ff" points="1619.2,-92.34 1608.76,-90.54 1615.8,-98.46 1619.2,-92.34"/>
</a>
</g>
</g>
<!-- Node18 -->
<g id="Node000018" class="node">
<title>Node18</title>
<g id="a_Node000018"><a xlink:title=" ">
<polygon fill="#e0e0e0" stroke="#999999" points="2884.5,-19 2834.5,-19 2834.5,0 2884.5,0 2884.5,-19"/>
<text text-anchor="middle" x="2859.5" y="-7" font-family="Helvetica,sans-Serif" font-size="10.00">cstdint</text>
</a>
</g>
</g>
<!-- Node17&#45;&gt;Node18 -->
<g id="edge17_Node000017_Node000018" class="edge">
<title>Node17&#45;&gt;Node18</title>
<g id="a_edge17_Node000017_Node000018"><a xlink:title=" ">
<path fill="none" stroke="#63b8ff" d="M2819.82,-60.3C2827.61,-50.51 2838,-37.48 2846.19,-27.2"/>
<polygon fill="#63b8ff" stroke="#63b8ff" points="2848.96,-29.35 2852.45,-19.34 2843.48,-24.98 2848.96,-29.35"/>
</a>
</g>
</g>
<!-- Node19&#45;&gt;Node11 -->
<g id="edge20_Node000019_Node000011" class="edge">
<title>Node19&#45;&gt;Node11</title>
<g id="a_edge20_Node000019_Node000011"><a xlink:title=" ">
<path fill="none" stroke="#63b8ff" d="M2523.23,-60.44C2515.99,-58.47 2508.57,-56.58 2501.5,-55 2423.52,-37.55 2331.61,-24.04 2276.52,-16.68"/>
<polygon fill="#63b8ff" stroke="#63b8ff" points="2276.72,-13.18 2266.35,-15.34 2275.8,-20.12 2276.72,-13.18"/>
</a>
</g>
</g>
<!-- Node20 -->
<g id="Node000020" class="node">
<title>Node20</title>
<g id="a_Node000020"><a xlink:title=" ">
<polygon fill="#e0e0e0" stroke="#999999" points="2606,-19 2533,-19 2533,0 2606,0 2606,-19"/>
<text text-anchor="middle" x="2569.5" y="-7" font-family="Helvetica,sans-Serif" font-size="10.00">string_view</text>
</a>
</g>
</g>
<!-- Node19&#45;&gt;Node20 -->
<g id="edge19_Node000019_Node000020" class="edge">
<title>Node19&#45;&gt;Node20</title>
<g id="a_edge19_Node000019_Node000020"><a xlink:title=" ">
<path fill="none" stroke="#63b8ff" d="M2569.5,-60.3C2569.5,-51.2 2569.5,-39.29 2569.5,-29.4"/>
<polygon fill="#63b8ff" stroke="#63b8ff" points="2573,-29.34 2569.5,-19.34 2566,-29.34 2573,-29.34"/>
</a>
</g>
</g>
<!-- Node21&#45;&gt;Node11 -->
<g id="edge22_Node000021_Node000011" class="edge">
<title>Node21&#45;&gt;Node11</title>
<g id="a_edge22_Node000021_Node000011"><a xlink:title=" ">
<path fill="none" stroke="#63b8ff" d="M2227.5,-60.3C2227.5,-51.2 2227.5,-39.29 2227.5,-29.4"/>
<polygon fill="#63b8ff" stroke="#63b8ff" points="2231,-29.34 2227.5,-19.34 2224,-29.34 2231,-29.34"/>
</a>
</g>
</g>
<!-- Node22&#45;&gt;Node12 -->
<g id="edge24_Node000022_Node000012" class="edge">
<title>Node22&#45;&gt;Node12</title>
<g id="a_edge24_Node000022_Node000012"><a xlink:title=" ">
<path fill="none" stroke="#63b8ff" d="M592.74,-60.3C583.07,-50.32 570.13,-36.96 560.08,-26.59"/>
<polygon fill="#63b8ff" stroke="#63b8ff" points="562.54,-24.09 553.07,-19.34 557.51,-28.96 562.54,-24.09"/>
</a>
</g>
</g>
<!-- Node23&#45;&gt;Node11 -->
<g id="edge26_Node000023_Node000011" class="edge">
<title>Node23&#45;&gt;Node11</title>
<g id="a_edge26_Node000023_Node000011"><a xlink:title=" ">
<path fill="none" stroke="#63b8ff" d="M2043.29,-60.45C2086.23,-48.81 2146.46,-32.48 2186.2,-21.7"/>
<polygon fill="#63b8ff" stroke="#63b8ff" points="2187.36,-25.01 2196.09,-19.02 2185.52,-18.26 2187.36,-25.01"/>
</a>
</g>
</g>
<!-- Node24&#45;&gt;Node11 -->
<g id="edge28_Node000024_Node000011" class="edge">
<title>Node24&#45;&gt;Node11</title>
<g id="a_edge28_Node000024_Node000011"><a xlink:title=" ">
<path fill="none" stroke="#63b8ff" d="M2371.9,-60.45C2338.89,-49.03 2292.83,-33.1 2261.68,-22.32"/>
<polygon fill="#63b8ff" stroke="#63b8ff" points="2262.72,-18.98 2252.12,-19.02 2260.43,-25.59 2262.72,-18.98"/>
</a>
</g>
</g>
<!-- Node26&#45;&gt;Node14 -->
<g id="edge31_Node000026_Node000014" class="edge">
<title>Node26&#45;&gt;Node14</title>
<g id="a_edge31_Node000026_Node000014"><a xlink:title=" ">
<path fill="none" stroke="#63b8ff" d="M1797.4,-60.3C1789.84,-50.61 1779.78,-37.74 1771.79,-27.51"/>
<polygon fill="#63b8ff" stroke="#63b8ff" points="1774.32,-25.07 1765.41,-19.34 1768.81,-29.38 1774.32,-25.07"/>
</a>
</g>
</g>
<!-- Node32&#45;&gt;Node2 -->
<g id="edge41_Node000032_Node000002" class="edge">
<title>Node32&#45;&gt;Node2</title>
<g id="a_edge41_Node000032_Node000002"><a xlink:title=" ">
<path fill="none" stroke="#63b8ff" d="M2839.72,-335.08C2609.93,-324.14 1893.28,-290.01 1649.58,-278.41"/>
<polygon fill="#63b8ff" stroke="#63b8ff" points="1649.53,-274.9 1639.38,-277.92 1649.2,-281.89 1649.53,-274.9"/>
</a>
</g>
</g>
<!-- Node32&#45;&gt;Node7 -->
<g id="edge42_Node000032_Node000007" class="edge">
<title>Node32&#45;&gt;Node7</title>
<g id="a_edge42_Node000032_Node000007"><a xlink:title=" ">
<path fill="none" stroke="#63b8ff" d="M2916.89,-318.81C2919.68,-308.25 2923.01,-294.97 2925.5,-283 2939.79,-214.31 2951.87,-131.75 2956.94,-95.33"/>
<polygon fill="#63b8ff" stroke="#63b8ff" points="2960.44,-95.59 2958.33,-85.2 2953.5,-94.63 2960.44,-95.59"/>
</a>
</g>
</g>
<!-- Node32&#45;&gt;Node18 -->
<g id="edge43_Node000032_Node000018" class="edge">
<title>Node32&#45;&gt;Node18</title>
<g id="a_edge43_Node000032_Node000018"><a xlink:title=" ">
<path fill="none" stroke="#63b8ff" d="M2911.5,-318.66C2911.5,-294.09 2911.5,-250.96 2911.5,-214 2911.5,-214 2911.5,-214 2911.5,-146 2911.5,-104.68 2909.42,-92.69 2892.5,-55 2887.99,-44.95 2880.9,-34.98 2874.46,-27.04"/>
<polygon fill="#63b8ff" stroke="#63b8ff" points="2877.01,-24.64 2867.86,-19.3 2871.68,-29.18 2877.01,-24.64"/>
</a>
</g>
</g>
<!-- Node33&#45;&gt;Node7 -->
<g id="edge49_Node000033_Node000007" class="edge">
<title>Node33&#45;&gt;Node7</title>
<g id="a_edge49_Node000033_Node000007"><a xlink:title=" ">
<path fill="none" stroke="#63b8ff" d="M3030.69,-197.74C3023.98,-187.83 3014.97,-174.26 3007.5,-162 2993.43,-138.91 2978.34,-111.56 2968.91,-94.13"/>
<polygon fill="#63b8ff" stroke="#63b8ff" points="2971.89,-92.26 2964.07,-85.11 2965.72,-95.58 2971.89,-92.26"/>
</a>
</g>
</g>
<!-- Node33&#45;&gt;Node10 -->
<g id="edge45_Node000033_Node000010" class="edge">
<title>Node33&#45;&gt;Node10</title>
<g id="a_edge45_Node000033_Node000010"><a xlink:title=" ">
<path fill="none" stroke="#63b8ff" d="M2979.37,-209.06C2759.51,-198.5 2009.75,-162.47 1777.59,-151.32"/>
<polygon fill="#63b8ff" stroke="#63b8ff" points="1777.74,-147.82 1767.59,-150.84 1777.41,-154.82 1777.74,-147.82"/>
</a>
</g>
</g>
<!-- Node34 -->
<g id="Node000034" class="node">
<title>Node34</title>
<g id="a_Node000034"><a xlink:title=" ">
<polygon fill="#e0e0e0" stroke="#999999" points="3069,-156.5 3016,-156.5 3016,-137.5 3069,-137.5 3069,-156.5"/>
<text text-anchor="middle" x="3042.5" y="-144.5" font-family="Helvetica,sans-Serif" font-size="10.00">cstddef</text>
</a>
</g>
</g>
<!-- Node33&#45;&gt;Node34 -->
<g id="edge46_Node000033_Node000034" class="edge">
<title>Node33&#45;&gt;Node34</title>
<g id="a_edge46_Node000033_Node000034"><a xlink:title=" ">
<path fill="none" stroke="#63b8ff" d="M3040.94,-197.8C3041.23,-188.7 3041.6,-176.79 3041.91,-166.9"/>
<polygon fill="#63b8ff" stroke="#63b8ff" points="3045.41,-166.95 3042.22,-156.84 3038.41,-166.73 3045.41,-166.95"/>
</a>
</g>
</g>
<!-- Node35 -->
<g id="Node000035" class="node">
<title>Node35</title>
<g id="a_Node000035"><a xlink:title=" ">
<polygon fill="#e0e0e0" stroke="#999999" points="3131.5,-156.5 3087.5,-156.5 3087.5,-137.5 3131.5,-137.5 3131.5,-156.5"/>
<text text-anchor="middle" x="3109.5" y="-144.5" font-family="Helvetica,sans-Serif" font-size="10.00">string</text>
</a>
</g>
</g>
<!-- Node33&#45;&gt;Node35 -->
<g id="edge47_Node000033_Node000035" class="edge">
<title>Node33&#45;&gt;Node35</title>
<g id="a_edge47_Node000033_Node000035"><a xlink:title=" ">
<path fill="none" stroke="#63b8ff" d="M3055.81,-197.8C3066.68,-187.72 3081.26,-174.19 3092.49,-163.78"/>
<polygon fill="#63b8ff" stroke="#63b8ff" points="3095.01,-166.21 3099.96,-156.84 3090.25,-161.08 3095.01,-166.21"/>
</a>
</g>
</g>
<!-- Node36 -->
<g id="Node000036" class="node">
<title>Node36</title>
<g id="a_Node000036"><a xlink:title=" ">
<polygon fill="#e0e0e0" stroke="#999999" points="3207.5,-156.5 3149.5,-156.5 3149.5,-137.5 3207.5,-137.5 3207.5,-156.5"/>
<text text-anchor="middle" x="3178.5" y="-144.5" font-family="Helvetica,sans-Serif" font-size="10.00">memory</text>
</a>
</g>
</g>
<!-- Node33&#45;&gt;Node36 -->
<g id="edge48_Node000033_Node000036" class="edge">
<title>Node33&#45;&gt;Node36</title>
<g id="a_edge48_Node000033_Node000036"><a xlink:title=" ">
<path fill="none" stroke="#63b8ff" d="M3070.78,-197.95C3094.67,-186.88 3127.7,-171.56 3150.86,-160.82"/>
<polygon fill="#63b8ff" stroke="#63b8ff" points="3152.54,-163.9 3160.13,-156.52 3149.59,-157.55 3152.54,-163.9"/>
</a>
</g>
</g>
</g>
</svg>
