<?xml version="1.0" encoding="UTF-8" standalone="no"?>
<!DOCTYPE svg PUBLIC "-//W3C//DTD SVG 1.1//EN"
 "http://www.w3.org/Graphics/SVG/1.1/DTD/svg11.dtd">
<!-- Generated by graphviz version 2.43.0 (0)
 -->
<!-- Title: include/Hermes/Socket/_base/Accept/TlsAcceptStateMachine.hpp Pages: 1 -->
<svg width="2973pt" height="434pt"
 viewBox="0.00 0.00 2972.70 434.00" xmlns="http://www.w3.org/2000/svg" xmlns:xlink="http://www.w3.org/1999/xlink">
<g id="graph0" class="graph" transform="scale(1 1) rotate(0) translate(4 430)">
<title>include/Hermes/Socket/_base/Accept/TlsAcceptStateMachine.hpp</title>
<!-- Node1 -->
<g id="Node000001" class="node">
<title>Node1</title>
<g id="a_Node000001"><a xlink:title=" ">
<polygon fill="#999999" stroke="#666666" points="2741.7,-426 2581.7,-426 2581.7,-385 2741.7,-385 2741.7,-426"/>
<text text-anchor="start" x="2589.7" y="-414" font-family="Helvetica,sans-Serif" font-size="10.00">include/Hermes/Socket</text>
<text text-anchor="start" x="2589.7" y="-403" font-family="Helvetica,sans-Serif" font-size="10.00">/_base/Accept/TlsAcceptState</text>
<text text-anchor="middle" x="2661.7" y="-392" font-family="Helvetica,sans-Serif" font-size="10.00">Machine.hpp</text>
</a>
</g>
</g>
<!-- Node2 -->
<g id="Node000002" class="node">
<title>Node2</title>
<g id="a_Node000002"><a xlink:href="_i_tls_accept_state_machine_8hpp.html" target="_top" xlink:title=" ">
<polygon fill="white" stroke="#666666" points="2758.7,-349 2564.7,-349 2564.7,-319 2758.7,-319 2758.7,-349"/>
<text text-anchor="start" x="2572.7" y="-337" font-family="Helvetica,sans-Serif" font-size="10.00">Hermes/Socket/_base</text>
<text text-anchor="middle" x="2661.7" y="-326" font-family="Helvetica,sans-Serif" font-size="10.00">/Accept/ITlsAcceptStateMachine.hpp</text>
</a>
</g>
</g>
<!-- Node1&#45;&gt;Node2 -->
<g id="edge1_Node000001_Node000002" class="edge">
<title>Node1&#45;&gt;Node2</title>
<g id="a_edge1_Node000001_Node000002"><a xlink:title=" ">
<path fill="none" stroke="#63b8ff" d="M2661.7,-384.77C2661.7,-376.85 2661.7,-367.63 2661.7,-359.3"/>
<polygon fill="#63b8ff" stroke="#63b8ff" points="2665.2,-359.04 2661.7,-349.04 2658.2,-359.04 2665.2,-359.04"/>
</a>
</g>
</g>
<!-- Node33 -->
<g id="Node000033" class="node">
<title>Node33</title>
<g id="a_Node000033"><a xlink:href="_tls_session_8hpp.html" target="_top" xlink:title=" ">
<polygon fill="white" stroke="#666666" points="1475.7,-228 1353.7,-228 1353.7,-198 1475.7,-198 1475.7,-228"/>
<text text-anchor="start" x="1361.7" y="-216" font-family="Helvetica,sans-Serif" font-size="10.00">Hermes/Socket/_base</text>
<text text-anchor="middle" x="1414.7" y="-205" font-family="Helvetica,sans-Serif" font-size="10.00">/TlsSession.hpp</text>
</a>
</g>
</g>
<!-- Node1&#45;&gt;Node33 -->
<g id="edge43_Node000001_Node000033" class="edge">
<title>Node1&#45;&gt;Node33</title>
<g id="a_edge43_Node000001_Node000033"><a xlink:title=" ">
<path fill="none" stroke="#63b8ff" d="M2581.32,-392.22C2352.93,-357.33 1702.7,-258 1485.97,-224.89"/>
<polygon fill="#63b8ff" stroke="#63b8ff" points="1486.4,-221.41 1475.98,-223.36 1485.34,-228.33 1486.4,-221.41"/>
</a>
</g>
</g>
<!-- Node37 -->
<g id="Node000037" class="node">
<title>Node37</title>
<g id="a_Node000037"><a xlink:title=" ">
<polygon fill="#e0e0e0" stroke="#999999" points="2964.7,-349 2776.7,-349 2776.7,-319 2964.7,-319 2964.7,-349"/>
<text text-anchor="start" x="2784.7" y="-337" font-family="Helvetica,sans-Serif" font-size="10.00">Hermes/Socket/_base</text>
<text text-anchor="middle" x="2870.7" y="-326" font-family="Helvetica,sans-Serif" font-size="10.00">/Accept/TlsAcceptStateMachine.tpp</text>
</a>
</g>
</g>
<!-- Node1&#45;&gt;Node37 -->
<g id="edge49_Node000001_Node000037" class="edge">
<title>Node1&#45;&gt;Node37</title>
<g id="a_edge49_Node000001_Node000037"><a xlink:title=" ">
<path fill="none" stroke="#63b8ff" d="M2720.47,-384.96C2751.39,-374.68 2788.95,-362.18 2818.79,-352.26"/>
<polygon fill="#63b8ff" stroke="#63b8ff" points="2820.2,-355.48 2828.59,-349 2817.99,-348.84 2820.2,-355.48"/>
</a>
</g>
</g>
<!-- Node3 -->
<g id="Node000003" class="node">
<title>Node3</title>
<g id="a_Node000003"><a xlink:href="__base_8hpp.html" target="_top" xlink:title=" ">
<polygon fill="white" stroke="#666666" points="2660.2,-283 2517.2,-283 2517.2,-264 2660.2,-264 2660.2,-283"/>
<text text-anchor="middle" x="2588.7" y="-271" font-family="Helvetica,sans-Serif" font-size="10.00">Hermes/Socket/_base.hpp</text>
</a>
</g>
</g>
<!-- Node2&#45;&gt;Node3 -->
<g id="edge2_Node000002_Node000003" class="edge">
<title>Node2&#45;&gt;Node3</title>
<g id="a_edge2_Node000002_Node000003"><a xlink:title=" ">
<path fill="none" stroke="#63b8ff" d="M2644.03,-318.84C2633,-310 2618.81,-298.63 2607.56,-289.62"/>
<polygon fill="#63b8ff" stroke="#63b8ff" points="2609.63,-286.79 2599.64,-283.27 2605.25,-292.25 2609.63,-286.79"/>
</a>
</g>
</g>
<!-- Node8 -->
<g id="Node000008" class="node">
<title>Node8</title>
<g id="a_Node000008"><a xlink:title=" ">
<polygon fill="#e0e0e0" stroke="#999999" points="2920.7,-85 2880.7,-85 2880.7,-66 2920.7,-66 2920.7,-85"/>
<text text-anchor="middle" x="2900.7" y="-73" font-family="Helvetica,sans-Serif" font-size="10.00">span</text>
</a>
</g>
</g>
<!-- Node2&#45;&gt;Node8 -->
<g id="edge41_Node000002_Node000008" class="edge">
<title>Node2&#45;&gt;Node8</title>
<g id="a_edge41_Node000002_Node000008"><a xlink:title=" ">
<path fill="none" stroke="#63b8ff" d="M2674.89,-318.84C2716.06,-274.66 2842.05,-139.44 2885.66,-92.64"/>
<polygon fill="#63b8ff" stroke="#63b8ff" points="2888.33,-94.91 2892.58,-85.21 2883.21,-90.14 2888.33,-94.91"/>
</a>
</g>
</g>
<!-- Node19 -->
<g id="Node000019" class="node">
<title>Node19</title>
<g id="a_Node000019"><a xlink:title=" ">
<polygon fill="#e0e0e0" stroke="#999999" points="2655.7,-19 2605.7,-19 2605.7,0 2655.7,0 2655.7,-19"/>
<text text-anchor="middle" x="2630.7" y="-7" font-family="Helvetica,sans-Serif" font-size="10.00">cstdint</text>
</a>
</g>
</g>
<!-- Node2&#45;&gt;Node19 -->
<g id="edge42_Node000002_Node000019" class="edge">
<title>Node2&#45;&gt;Node19</title>
<g id="a_edge42_Node000002_Node000019"><a xlink:title=" ">
<path fill="none" stroke="#63b8ff" d="M2729.71,-318.97C2814.58,-299.48 2948.7,-261.2 2948.7,-214 2948.7,-214 2948.7,-214 2948.7,-146 2948.7,-104.68 2959.75,-83.35 2929.7,-55 2892.3,-19.71 2736.99,-12.37 2666.17,-10.87"/>
<polygon fill="#63b8ff" stroke="#63b8ff" points="2666.02,-7.37 2655.96,-10.68 2665.89,-14.37 2666.02,-7.37"/>
</a>
</g>
</g>
<!-- Node4 -->
<g id="Node000004" class="node">
<title>Node4</title>
<g id="a_Node000004"><a xlink:href="_endpoint_concept_8hpp.html" target="_top" xlink:title=" ">
<polygon fill="white" stroke="#666666" points="2654.7,-228 2522.7,-228 2522.7,-198 2654.7,-198 2654.7,-228"/>
<text text-anchor="start" x="2530.7" y="-216" font-family="Helvetica,sans-Serif" font-size="10.00">Hermes/Endpoint/_base</text>
<text text-anchor="middle" x="2588.7" y="-205" font-family="Helvetica,sans-Serif" font-size="10.00">/EndpointConcept.hpp</text>
</a>
</g>
</g>
<!-- Node3&#45;&gt;Node4 -->
<g id="edge3_Node000003_Node000004" class="edge">
<title>Node3&#45;&gt;Node4</title>
<g id="a_edge3_Node000003_Node000004"><a xlink:title=" ">
<path fill="none" stroke="#63b8ff" d="M2588.7,-263.87C2588.7,-257.11 2588.7,-247.35 2588.7,-238.26"/>
<polygon fill="#63b8ff" stroke="#63b8ff" points="2592.2,-238.11 2588.7,-228.11 2585.2,-238.11 2592.2,-238.11"/>
</a>
</g>
</g>
<!-- Node5 -->
<g id="Node000005" class="node">
<title>Node5</title>
<g id="a_Node000005"><a xlink:href="_connection_error_enum_8hpp.html" target="_top" xlink:title=" ">
<polygon fill="white" stroke="#666666" points="2719.2,-162 2552.2,-162 2552.2,-132 2719.2,-132 2719.2,-162"/>
<text text-anchor="start" x="2560.2" y="-150" font-family="Helvetica,sans-Serif" font-size="10.00">Hermes/_base/ConnectionError</text>
<text text-anchor="middle" x="2635.7" y="-139" font-family="Helvetica,sans-Serif" font-size="10.00">Enum.hpp</text>
</a>
</g>
</g>
<!-- Node3&#45;&gt;Node5 -->
<g id="edge36_Node000003_Node000005" class="edge">
<title>Node3&#45;&gt;Node5</title>
<g id="a_edge36_Node000003_Node000005"><a xlink:title=" ">
<path fill="none" stroke="#63b8ff" d="M2616.35,-263.98C2633.28,-257.17 2653.58,-245.76 2663.7,-228 2674.02,-209.87 2664.33,-187.29 2653.62,-170.75"/>
<polygon fill="#63b8ff" stroke="#63b8ff" points="2656.28,-168.44 2647.69,-162.25 2650.54,-172.45 2656.28,-168.44"/>
</a>
</g>
</g>
<!-- Node9 -->
<g id="Node000009" class="node">
<title>Node9</title>
<g id="a_Node000009"><a xlink:title=" ">
<polygon fill="#e0e0e0" stroke="#999999" points="2862.2,-85 2737.2,-85 2737.2,-66 2862.2,-66 2862.2,-85"/>
<text text-anchor="middle" x="2799.7" y="-73" font-family="Helvetica,sans-Serif" font-size="10.00">stdexec/execution.hpp</text>
</a>
</g>
</g>
<!-- Node3&#45;&gt;Node9 -->
<g id="edge38_Node000003_Node000009" class="edge">
<title>Node3&#45;&gt;Node9</title>
<g id="a_edge38_Node000003_Node000009"><a xlink:title=" ">
<path fill="none" stroke="#63b8ff" d="M2613.88,-263.91C2633.43,-256.43 2660.52,-244.24 2680.7,-228 2730.07,-188.26 2771.55,-124.34 2789.77,-93.82"/>
<polygon fill="#63b8ff" stroke="#63b8ff" points="2792.81,-95.55 2794.85,-85.15 2786.78,-92.01 2792.81,-95.55"/>
</a>
</g>
</g>
<!-- Node11 -->
<g id="Node000011" class="node">
<title>Node11</title>
<g id="a_Node000011"><a xlink:href="_os_api_8hpp.html" target="_top" xlink:title=" ">
<polygon fill="white" stroke="#666666" points="1522.7,-162 1404.7,-162 1404.7,-132 1522.7,-132 1522.7,-162"/>
<text text-anchor="start" x="1412.7" y="-150" font-family="Helvetica,sans-Serif" font-size="10.00">Hermes/_base/OsApi</text>
<text text-anchor="middle" x="1463.7" y="-139" font-family="Helvetica,sans-Serif" font-size="10.00">/OsApi.hpp</text>
</a>
</g>
</g>
<!-- Node3&#45;&gt;Node11 -->
<g id="edge37_Node000003_Node000011" class="edge">
<title>Node3&#45;&gt;Node11</title>
<g id="a_edge37_Node000003_Node000011"><a xlink:title=" ">
<path fill="none" stroke="#63b8ff" d="M2517.04,-264.57C2313.44,-242.04 1733.29,-177.84 1532.83,-155.65"/>
<polygon fill="#63b8ff" stroke="#63b8ff" points="1533.05,-152.15 1522.72,-154.53 1532.28,-159.11 1533.05,-152.15"/>
</a>
</g>
</g>
<!-- Node31 -->
<g id="Node000031" class="node">
<title>Node31</title>
<g id="a_Node000031"><a xlink:title=" ">
<polygon fill="#e0e0e0" stroke="#999999" points="2436.7,-222.5 2376.7,-222.5 2376.7,-203.5 2436.7,-203.5 2436.7,-222.5"/>
<text text-anchor="middle" x="2406.7" y="-210.5" font-family="Helvetica,sans-Serif" font-size="10.00">concepts</text>
</a>
</g>
</g>
<!-- Node3&#45;&gt;Node31 -->
<g id="edge39_Node000003_Node000031" class="edge">
<title>Node3&#45;&gt;Node31</title>
<g id="a_edge39_Node000003_Node000031"><a xlink:title=" ">
<path fill="none" stroke="#63b8ff" d="M2560.09,-263.99C2531.14,-255.29 2485.15,-241.21 2445.7,-228 2443.8,-227.37 2441.86,-226.7 2439.91,-226.03"/>
<polygon fill="#63b8ff" stroke="#63b8ff" points="2440.75,-222.62 2430.15,-222.6 2438.43,-229.22 2440.75,-222.62"/>
</a>
</g>
</g>
<!-- Node32 -->
<g id="Node000032" class="node">
<title>Node32</title>
<g id="a_Node000032"><a xlink:title=" ">
<polygon fill="#e0e0e0" stroke="#999999" points="2504.7,-222.5 2454.7,-222.5 2454.7,-203.5 2504.7,-203.5 2504.7,-222.5"/>
<text text-anchor="middle" x="2479.7" y="-210.5" font-family="Helvetica,sans-Serif" font-size="10.00">ranges</text>
</a>
</g>
</g>
<!-- Node3&#45;&gt;Node32 -->
<g id="edge40_Node000003_Node000032" class="edge">
<title>Node3&#45;&gt;Node32</title>
<g id="a_edge40_Node000003_Node000032"><a xlink:title=" ">
<path fill="none" stroke="#63b8ff" d="M2572.61,-263.87C2554.74,-254.28 2525.66,-238.67 2504.79,-227.47"/>
<polygon fill="#63b8ff" stroke="#63b8ff" points="2506.31,-224.31 2495.85,-222.67 2503,-230.48 2506.31,-224.31"/>
</a>
</g>
</g>
<!-- Node4&#45;&gt;Node5 -->
<g id="edge4_Node000004_Node000005" class="edge">
<title>Node4&#45;&gt;Node5</title>
<g id="a_edge4_Node000004_Node000005"><a xlink:title=" ">
<path fill="none" stroke="#63b8ff" d="M2599.13,-197.8C2605.03,-189.76 2612.55,-179.53 2619.23,-170.43"/>
<polygon fill="#63b8ff" stroke="#63b8ff" points="2622.2,-172.3 2625.3,-162.16 2616.56,-168.15 2622.2,-172.3"/>
</a>
</g>
</g>
<!-- Node4&#45;&gt;Node11 -->
<g id="edge10_Node000004_Node000011" class="edge">
<title>Node4&#45;&gt;Node11</title>
<g id="a_edge10_Node000004_Node000011"><a xlink:title=" ">
<path fill="none" stroke="#63b8ff" d="M2522.52,-199.14C2519.54,-198.72 2516.59,-198.34 2513.7,-198 2145.94,-155.12 1701.63,-148.8 1533.07,-148.03"/>
<polygon fill="#63b8ff" stroke="#63b8ff" points="1532.86,-144.53 1522.84,-147.98 1532.83,-151.53 1532.86,-144.53"/>
</a>
</g>
</g>
<!-- Node6 -->
<g id="Node000006" class="node">
<title>Node6</title>
<g id="a_Node000006"><a xlink:title=" ">
<polygon fill="#e0e0e0" stroke="#999999" points="2468.7,-85 2406.7,-85 2406.7,-66 2468.7,-66 2468.7,-85"/>
<text text-anchor="middle" x="2437.7" y="-73" font-family="Helvetica,sans-Serif" font-size="10.00">expected</text>
</a>
</g>
</g>
<!-- Node5&#45;&gt;Node6 -->
<g id="edge5_Node000005_Node000006" class="edge">
<title>Node5&#45;&gt;Node6</title>
<g id="a_edge5_Node000005_Node000006"><a xlink:title=" ">
<path fill="none" stroke="#63b8ff" d="M2584.87,-131.98C2553.56,-122.84 2512.83,-110.03 2477.7,-96 2472.8,-94.04 2467.67,-91.74 2462.78,-89.42"/>
<polygon fill="#63b8ff" stroke="#63b8ff" points="2464.32,-86.28 2453.8,-85.02 2461.24,-92.57 2464.32,-86.28"/>
</a>
</g>
</g>
<!-- Node7 -->
<g id="Node000007" class="node">
<title>Node7</title>
<g id="a_Node000007"><a xlink:title=" ">
<polygon fill="#e0e0e0" stroke="#999999" points="2534.2,-85 2487.2,-85 2487.2,-66 2534.2,-66 2534.2,-85"/>
<text text-anchor="middle" x="2510.7" y="-73" font-family="Helvetica,sans-Serif" font-size="10.00">vector</text>
</a>
</g>
</g>
<!-- Node5&#45;&gt;Node7 -->
<g id="edge6_Node000005_Node000007" class="edge">
<title>Node5&#45;&gt;Node7</title>
<g id="a_edge6_Node000005_Node000007"><a xlink:title=" ">
<path fill="none" stroke="#63b8ff" d="M2608.63,-131.94C2589.96,-122.12 2564.65,-108.58 2542.7,-96 2539.55,-94.2 2536.26,-92.26 2533.04,-90.33"/>
<polygon fill="#63b8ff" stroke="#63b8ff" points="2534.67,-87.22 2524.3,-85.01 2531.03,-93.2 2534.67,-87.22"/>
</a>
</g>
</g>
<!-- Node5&#45;&gt;Node8 -->
<g id="edge7_Node000005_Node000008" class="edge">
<title>Node5&#45;&gt;Node8</title>
<g id="a_edge7_Node000005_Node000008"><a xlink:title=" ">
<path fill="none" stroke="#63b8ff" d="M2718.12,-131.98C2774.7,-121.71 2844.31,-107.59 2871.7,-96 2875.04,-94.59 2878.4,-92.77 2881.6,-90.81"/>
<polygon fill="#63b8ff" stroke="#63b8ff" points="2883.65,-93.65 2889.98,-85.16 2879.73,-87.85 2883.65,-93.65"/>
</a>
</g>
</g>
<!-- Node5&#45;&gt;Node9 -->
<g id="edge8_Node000005_Node000009" class="edge">
<title>Node5&#45;&gt;Node9</title>
<g id="a_edge8_Node000005_Node000009"><a xlink:title=" ">
<path fill="none" stroke="#63b8ff" d="M2668.89,-131.94C2698.52,-119.38 2741.54,-101.15 2770.05,-89.07"/>
<polygon fill="#63b8ff" stroke="#63b8ff" points="2771.64,-92.19 2779.48,-85.07 2768.91,-85.75 2771.64,-92.19"/>
</a>
</g>
</g>
<!-- Node10 -->
<g id="Node000010" class="node">
<title>Node10</title>
<g id="a_Node000010"><a xlink:title=" ">
<polygon fill="#e0e0e0" stroke="#999999" points="2719.2,-90.5 2552.2,-90.5 2552.2,-60.5 2719.2,-60.5 2719.2,-90.5"/>
<text text-anchor="start" x="2560.2" y="-78.5" font-family="Helvetica,sans-Serif" font-size="10.00">Hermes/_base/ConnectionError</text>
<text text-anchor="middle" x="2635.7" y="-67.5" font-family="Helvetica,sans-Serif" font-size="10.00">Enum.tpp</text>
</a>
</g>
</g>
<!-- Node5&#45;&gt;Node10 -->
<g id="edge9_Node000005_Node000010" class="edge">
<title>Node5&#45;&gt;Node10</title>
<g id="a_edge9_Node000005_Node000010"><a xlink:title=" ">
<path fill="none" stroke="#63b8ff" d="M2635.7,-131.94C2635.7,-122.99 2635.7,-111.16 2635.7,-100.73"/>
<polygon fill="#63b8ff" stroke="#63b8ff" points="2639.2,-100.54 2635.7,-90.54 2632.2,-100.54 2639.2,-100.54"/>
</a>
</g>
</g>
<!-- Node12 -->
<g id="Node000012" class="node">
<title>Node12</title>
<g id="a_Node000012"><a xlink:title=" ">
<polygon fill="#e0e0e0" stroke="#999999" points="1792.2,-19 1715.2,-19 1715.2,0 1792.2,0 1792.2,-19"/>
<text text-anchor="middle" x="1753.7" y="-7" font-family="Helvetica,sans-Serif" font-size="10.00">sys/socket.h</text>
</a>
</g>
</g>
<!-- Node11&#45;&gt;Node12 -->
<g id="edge11_Node000011_Node000012" class="edge">
<title>Node11&#45;&gt;Node12</title>
<g id="a_edge11_Node000011_Node000012"><a xlink:title=" ">
<path fill="none" stroke="#63b8ff" d="M1522.82,-142.59C1593.25,-137.28 1705.12,-124.52 1734.7,-96 1752.54,-78.79 1755.36,-48.83 1755.06,-29.34"/>
<polygon fill="#63b8ff" stroke="#63b8ff" points="1758.55,-29.08 1754.61,-19.24 1751.56,-29.39 1758.55,-29.08"/>
</a>
</g>
</g>
<!-- Node13 -->
<g id="Node000013" class="node">
<title>Node13</title>
<g id="a_Node000013"><a xlink:title=" ">
<polygon fill="#e0e0e0" stroke="#999999" points="86.7,-19 14.7,-19 14.7,0 86.7,0 86.7,-19"/>
<text text-anchor="middle" x="50.7" y="-7" font-family="Helvetica,sans-Serif" font-size="10.00">netinet/in.h</text>
</a>
</g>
</g>
<!-- Node11&#45;&gt;Node13 -->
<g id="edge12_Node000011_Node000013" class="edge">
<title>Node11&#45;&gt;Node13</title>
<g id="a_edge12_Node000011_Node000013"><a xlink:title=" ">
<path fill="none" stroke="#63b8ff" d="M1404.46,-133.16C1401.5,-132.72 1398.57,-132.33 1395.7,-132 1319.07,-123.19 61.53,-151.25 7.7,-96 -5.02,-82.95 0.87,-71.89 7.7,-55 12.38,-43.41 21.69,-33.16 30.46,-25.43"/>
<polygon fill="#63b8ff" stroke="#63b8ff" points="32.7,-28.12 38.2,-19.07 28.25,-22.71 32.7,-28.12"/>
</a>
</g>
</g>
<!-- Node14 -->
<g id="Node000014" class="node">
<title>Node14</title>
<g id="a_Node000014"><a xlink:title=" ">
<polygon fill="#e0e0e0" stroke="#999999" points="2221.2,-85 2152.2,-85 2152.2,-66 2221.2,-66 2221.2,-85"/>
<text text-anchor="middle" x="2186.7" y="-73" font-family="Helvetica,sans-Serif" font-size="10.00">arpa/inet.h</text>
</a>
</g>
</g>
<!-- Node11&#45;&gt;Node14 -->
<g id="edge13_Node000011_Node000014" class="edge">
<title>Node11&#45;&gt;Node14</title>
<g id="a_edge13_Node000011_Node000014"><a xlink:title=" ">
<path fill="none" stroke="#63b8ff" d="M1522.93,-144.24C1665.78,-139.58 2026.03,-125.21 2142.7,-96 2148.93,-94.44 2155.39,-92.06 2161.37,-89.49"/>
<polygon fill="#63b8ff" stroke="#63b8ff" points="2163.26,-92.47 2170.87,-85.1 2160.33,-86.12 2163.26,-92.47"/>
</a>
</g>
</g>
<!-- Node15 -->
<g id="Node000015" class="node">
<title>Node15</title>
<g id="a_Node000015"><a xlink:title=" ">
<polygon fill="#e0e0e0" stroke="#999999" points="907.2,-19 854.2,-19 854.2,0 907.2,0 907.2,-19"/>
<text text-anchor="middle" x="880.7" y="-7" font-family="Helvetica,sans-Serif" font-size="10.00">netdb.h</text>
</a>
</g>
</g>
<!-- Node11&#45;&gt;Node15 -->
<g id="edge14_Node000011_Node000015" class="edge">
<title>Node11&#45;&gt;Node15</title>
<g id="a_edge14_Node000011_Node000015"><a xlink:title=" ">
<path fill="none" stroke="#63b8ff" d="M1404.45,-133.21C1401.5,-132.76 1398.57,-132.35 1395.7,-132 1344.37,-125.77 501.54,-133.26 465.7,-96 453.06,-82.87 453.52,-68.55 465.7,-55 490.79,-27.08 747.2,-15.2 843.99,-11.69"/>
<polygon fill="#63b8ff" stroke="#63b8ff" points="844.31,-15.18 854.18,-11.33 844.06,-8.18 844.31,-15.18"/>
</a>
</g>
</g>
<!-- Node16 -->
<g id="Node000016" class="node">
<title>Node16</title>
<g id="a_Node000016"><a xlink:title=" ">
<polygon fill="#e0e0e0" stroke="#999999" points="282.7,-85 226.7,-85 226.7,-66 282.7,-66 282.7,-85"/>
<text text-anchor="middle" x="254.7" y="-73" font-family="Helvetica,sans-Serif" font-size="10.00">unistd.h</text>
</a>
</g>
</g>
<!-- Node11&#45;&gt;Node16 -->
<g id="edge15_Node000011_Node000016" class="edge">
<title>Node11&#45;&gt;Node16</title>
<g id="a_edge15_Node000011_Node000016"><a xlink:title=" ">
<path fill="none" stroke="#63b8ff" d="M1404.46,-133.18C1401.5,-132.74 1398.57,-132.34 1395.7,-132 1151.94,-103.15 528.99,-158.82 291.7,-96 286.48,-94.62 281.17,-92.39 276.27,-89.93"/>
<polygon fill="#63b8ff" stroke="#63b8ff" points="277.9,-86.84 267.46,-85.07 274.52,-92.97 277.9,-86.84"/>
</a>
</g>
</g>
<!-- Node17 -->
<g id="Node000017" class="node">
<title>Node17</title>
<g id="a_Node000017"><a xlink:href="_types_8hpp.html" target="_top" xlink:title=" ">
<polygon fill="white" stroke="#666666" points="418.7,-90.5 300.7,-90.5 300.7,-60.5 418.7,-60.5 418.7,-90.5"/>
<text text-anchor="start" x="308.7" y="-78.5" font-family="Helvetica,sans-Serif" font-size="10.00">Hermes/_base/OsApi</text>
<text text-anchor="middle" x="359.7" y="-67.5" font-family="Helvetica,sans-Serif" font-size="10.00">/Types.hpp</text>
</a>
</g>
</g>
<!-- Node11&#45;&gt;Node17 -->
<g id="edge16_Node000011_Node000017" class="edge">
<title>Node11&#45;&gt;Node17</title>
<g id="a_edge16_Node000011_Node000017"><a xlink:title=" ">
<path fill="none" stroke="#63b8ff" d="M1404.45,-133.2C1401.5,-132.75 1398.57,-132.35 1395.7,-132 970.49,-80.64 856.24,-159.66 432.7,-96 427.27,-95.18 421.66,-94.11 416.08,-92.89"/>
<polygon fill="#63b8ff" stroke="#63b8ff" points="416.64,-89.43 406.1,-90.56 415.04,-96.24 416.64,-89.43"/>
</a>
</g>
</g>
<!-- Node18 -->
<g id="Node000018" class="node">
<title>Node18</title>
<g id="a_Node000018"><a xlink:href="_conversion_and_literals_8hpp.html" target="_top" xlink:title=" ">
<polygon fill="white" stroke="#666666" points="2388.7,-90.5 2238.7,-90.5 2238.7,-60.5 2388.7,-60.5 2388.7,-90.5"/>
<text text-anchor="start" x="2246.7" y="-78.5" font-family="Helvetica,sans-Serif" font-size="10.00">Hermes/_base/OsApi</text>
<text text-anchor="middle" x="2313.7" y="-67.5" font-family="Helvetica,sans-Serif" font-size="10.00">/ConversionAndLiterals.hpp</text>
</a>
</g>
</g>
<!-- Node11&#45;&gt;Node18 -->
<g id="edge17_Node000011_Node000018" class="edge">
<title>Node11&#45;&gt;Node18</title>
<g id="a_edge17_Node000011_Node000018"><a xlink:title=" ">
<path fill="none" stroke="#63b8ff" d="M1523.15,-145.41C1652.39,-143.4 1968.33,-134.61 2229.7,-96 2235.92,-95.08 2242.36,-93.94 2248.78,-92.67"/>
<polygon fill="#63b8ff" stroke="#63b8ff" points="2249.74,-96.05 2258.82,-90.59 2248.32,-89.19 2249.74,-96.05"/>
</a>
</g>
</g>
<!-- Node20 -->
<g id="Node000020" class="node">
<title>Node20</title>
<g id="a_Node000020"><a xlink:href="_macros_8hpp.html" target="_top" xlink:title=" ">
<polygon fill="white" stroke="#666666" points="1522.7,-90.5 1404.7,-90.5 1404.7,-60.5 1522.7,-60.5 1522.7,-90.5"/>
<text text-anchor="start" x="1412.7" y="-78.5" font-family="Helvetica,sans-Serif" font-size="10.00">Hermes/_base/OsApi</text>
<text text-anchor="middle" x="1463.7" y="-67.5" font-family="Helvetica,sans-Serif" font-size="10.00">/Macros.hpp</text>
</a>
</g>
</g>
<!-- Node11&#45;&gt;Node20 -->
<g id="edge19_Node000011_Node000020" class="edge">
<title>Node11&#45;&gt;Node20</title>
<g id="a_edge19_Node000011_Node000020"><a xlink:title=" ">
<path fill="none" stroke="#63b8ff" d="M1463.7,-131.94C1463.7,-122.99 1463.7,-111.16 1463.7,-100.73"/>
<polygon fill="#63b8ff" stroke="#63b8ff" points="1467.2,-100.54 1463.7,-90.54 1460.2,-100.54 1467.2,-100.54"/>
</a>
</g>
</g>
<!-- Node22 -->
<g id="Node000022" class="node">
<title>Node22</title>
<g id="a_Node000022"><a xlink:href="_address_family_enum_8hpp.html" target="_top" xlink:title=" ">
<polygon fill="white" stroke="#666666" points="1957.7,-90.5 1781.7,-90.5 1781.7,-60.5 1957.7,-60.5 1957.7,-90.5"/>
<text text-anchor="start" x="1789.7" y="-78.5" font-family="Helvetica,sans-Serif" font-size="10.00">Hermes/_base/OsApi</text>
<text text-anchor="middle" x="1869.7" y="-67.5" font-family="Helvetica,sans-Serif" font-size="10.00">/Enums/AddressFamilyEnum.hpp</text>
</a>
</g>
</g>
<!-- Node11&#45;&gt;Node22 -->
<g id="edge22_Node000011_Node000022" class="edge">
<title>Node11&#45;&gt;Node22</title>
<g id="a_edge22_Node000011_Node000022"><a xlink:title=" ">
<path fill="none" stroke="#63b8ff" d="M1522.91,-136.73C1584.23,-127.01 1682.78,-111.1 1767.7,-96 1774.2,-94.84 1780.92,-93.62 1787.68,-92.37"/>
<polygon fill="#63b8ff" stroke="#63b8ff" points="1788.39,-95.8 1797.58,-90.53 1787.11,-88.92 1788.39,-95.8"/>
</a>
</g>
</g>
<!-- Node23 -->
<g id="Node000023" class="node">
<title>Node23</title>
<g id="a_Node000023"><a xlink:href="_protocol_base_type_enum_8hpp.html" target="_top" xlink:title=" ">
<polygon fill="white" stroke="#666666" points="208.2,-90.5 17.2,-90.5 17.2,-60.5 208.2,-60.5 208.2,-90.5"/>
<text text-anchor="start" x="25.2" y="-78.5" font-family="Helvetica,sans-Serif" font-size="10.00">Hermes/_base/OsApi</text>
<text text-anchor="middle" x="112.7" y="-67.5" font-family="Helvetica,sans-Serif" font-size="10.00">/Enums/ProtocolBaseTypeEnum.hpp</text>
</a>
</g>
</g>
<!-- Node11&#45;&gt;Node23 -->
<g id="edge24_Node000011_Node000023" class="edge">
<title>Node11&#45;&gt;Node23</title>
<g id="a_edge24_Node000011_Node000023"><a xlink:title=" ">
<path fill="none" stroke="#63b8ff" d="M1404.46,-133.18C1401.5,-132.73 1398.57,-132.34 1395.7,-132 875.47,-70.96 738.5,-151.98 217.7,-96 208.63,-95.02 199.16,-93.7 189.8,-92.21"/>
<polygon fill="#63b8ff" stroke="#63b8ff" points="190.13,-88.71 179.69,-90.52 188.98,-95.62 190.13,-88.71"/>
</a>
</g>
</g>
<!-- Node24 -->
<g id="Node000024" class="node">
<title>Node24</title>
<g id="a_Node000024"><a xlink:href="_socket_shutdown_enum_8hpp.html" target="_top" xlink:title=" ">
<polygon fill="white" stroke="#666666" points="1726.2,-90.5 1541.2,-90.5 1541.2,-60.5 1726.2,-60.5 1726.2,-90.5"/>
<text text-anchor="start" x="1549.2" y="-78.5" font-family="Helvetica,sans-Serif" font-size="10.00">Hermes/_base/OsApi</text>
<text text-anchor="middle" x="1633.7" y="-67.5" font-family="Helvetica,sans-Serif" font-size="10.00">/Enums/SocketShutdownEnum.hpp</text>
</a>
</g>
</g>
<!-- Node11&#45;&gt;Node24 -->
<g id="edge26_Node000011_Node000024" class="edge">
<title>Node11&#45;&gt;Node24</title>
<g id="a_edge26_Node000011_Node000024"><a xlink:title=" ">
<path fill="none" stroke="#63b8ff" d="M1498.1,-131.94C1524.6,-121.1 1561.41,-106.05 1590,-94.37"/>
<polygon fill="#63b8ff" stroke="#63b8ff" points="1591.41,-97.57 1599.35,-90.54 1588.77,-91.09 1591.41,-97.57"/>
</a>
</g>
</g>
<!-- Node25 -->
<g id="Node000025" class="node">
<title>Node25</title>
<g id="a_Node000025"><a xlink:href="_socket_type_enum_8hpp.html" target="_top" xlink:title=" ">
<polygon fill="white" stroke="#666666" points="2134.2,-90.5 1975.2,-90.5 1975.2,-60.5 2134.2,-60.5 2134.2,-90.5"/>
<text text-anchor="start" x="1983.2" y="-78.5" font-family="Helvetica,sans-Serif" font-size="10.00">Hermes/_base/OsApi</text>
<text text-anchor="middle" x="2054.7" y="-67.5" font-family="Helvetica,sans-Serif" font-size="10.00">/Enums/SocketTypeEnum.hpp</text>
</a>
</g>
</g>
<!-- Node11&#45;&gt;Node25 -->
<g id="edge28_Node000011_Node000025" class="edge">
<title>Node11&#45;&gt;Node25</title>
<g id="a_edge28_Node000011_Node000025"><a xlink:title=" ">
<path fill="none" stroke="#63b8ff" d="M1522.84,-142.41C1617.16,-136.17 1807.25,-121.5 1966.7,-96 1972.88,-95.01 1979.29,-93.85 1985.69,-92.61"/>
<polygon fill="#63b8ff" stroke="#63b8ff" points="1986.6,-95.99 1995.71,-90.58 1985.22,-89.13 1986.6,-95.99"/>
</a>
</g>
</g>
<!-- Node26 -->
<g id="Node000026" class="node">
<title>Node26</title>
<g id="a_Node000026"><a xlink:href="_linux_2_encrypt_status_enum_8hpp.html" target="_top" xlink:title=" ">
<polygon fill="white" stroke="#666666" points="626.7,-96 474.7,-96 474.7,-55 626.7,-55 626.7,-96"/>
<text text-anchor="start" x="482.7" y="-84" font-family="Helvetica,sans-Serif" font-size="10.00">Hermes/_base/OsApi</text>
<text text-anchor="start" x="482.7" y="-73" font-family="Helvetica,sans-Serif" font-size="10.00">/Enums/Linux/EncryptStatus</text>
<text text-anchor="middle" x="550.7" y="-62" font-family="Helvetica,sans-Serif" font-size="10.00">Enum.hpp</text>
</a>
</g>
</g>
<!-- Node11&#45;&gt;Node26 -->
<g id="edge30_Node000011_Node000026" class="edge">
<title>Node11&#45;&gt;Node26</title>
<g id="a_edge30_Node000011_Node000026"><a xlink:title=" ">
<path fill="none" stroke="#63b8ff" d="M1404.45,-133.24C1401.5,-132.78 1398.57,-132.36 1395.7,-132 1063.46,-90.19 972.48,-140.98 637.03,-96.05"/>
<polygon fill="#63b8ff" stroke="#63b8ff" points="637.41,-92.57 627.03,-94.69 636.47,-99.5 637.41,-92.57"/>
</a>
</g>
</g>
<!-- Node27 -->
<g id="Node000027" class="node">
<title>Node27</title>
<g id="a_Node000027"><a xlink:href="_name_info_flags_8hpp.html" target="_top" xlink:title=" ">
<polygon fill="white" stroke="#666666" points="1386.7,-90.5 1242.7,-90.5 1242.7,-60.5 1386.7,-60.5 1386.7,-90.5"/>
<text text-anchor="start" x="1250.7" y="-78.5" font-family="Helvetica,sans-Serif" font-size="10.00">Hermes/_base/OsApi</text>
<text text-anchor="middle" x="1314.7" y="-67.5" font-family="Helvetica,sans-Serif" font-size="10.00">/Flags/NameInfoFlags.hpp</text>
</a>
</g>
</g>
<!-- Node11&#45;&gt;Node27 -->
<g id="edge31_Node000011_Node000027" class="edge">
<title>Node11&#45;&gt;Node27</title>
<g id="a_edge31_Node000011_Node000027"><a xlink:title=" ">
<path fill="none" stroke="#63b8ff" d="M1433.55,-131.94C1410.62,-121.24 1378.89,-106.44 1353.99,-94.83"/>
<polygon fill="#63b8ff" stroke="#63b8ff" points="1355.35,-91.6 1344.81,-90.54 1352.39,-97.94 1355.35,-91.6"/>
</a>
</g>
</g>
<!-- Node28 -->
<g id="Node000028" class="node">
<title>Node28</title>
<g id="a_Node000028"><a xlink:href="_linux_2_credential_flags_8hpp.html" target="_top" xlink:title=" ">
<polygon fill="white" stroke="#666666" points="820.7,-90.5 644.7,-90.5 644.7,-60.5 820.7,-60.5 820.7,-90.5"/>
<text text-anchor="start" x="652.7" y="-78.5" font-family="Helvetica,sans-Serif" font-size="10.00">Hermes/_base/OsApi</text>
<text text-anchor="middle" x="732.7" y="-67.5" font-family="Helvetica,sans-Serif" font-size="10.00">/Flags/Linux/CredentialFlags.hpp</text>
</a>
</g>
</g>
<!-- Node11&#45;&gt;Node28 -->
<g id="edge33_Node000011_Node000028" class="edge">
<title>Node11&#45;&gt;Node28</title>
<g id="a_edge33_Node000011_Node000028"><a xlink:title=" ">
<path fill="none" stroke="#63b8ff" d="M1404.44,-133.29C1401.49,-132.82 1398.56,-132.38 1395.7,-132 1145.87,-98.5 1079.6,-128.91 829.7,-96 822.03,-94.99 814.07,-93.73 806.14,-92.35"/>
<polygon fill="#63b8ff" stroke="#63b8ff" points="806.61,-88.88 796.15,-90.53 805.36,-95.76 806.61,-88.88"/>
</a>
</g>
</g>
<!-- Node29 -->
<g id="Node000029" class="node">
<title>Node29</title>
<g id="a_Node000029"><a xlink:href="_linux_2_supported_protocols_flags_8hpp.html" target="_top" xlink:title=" ">
<polygon fill="white" stroke="#666666" points="1012.2,-96 839.2,-96 839.2,-55 1012.2,-55 1012.2,-96"/>
<text text-anchor="start" x="847.2" y="-84" font-family="Helvetica,sans-Serif" font-size="10.00">Hermes/_base/OsApi</text>
<text text-anchor="start" x="847.2" y="-73" font-family="Helvetica,sans-Serif" font-size="10.00">/Flags/Linux/SupportedProtocols</text>
<text text-anchor="middle" x="925.7" y="-62" font-family="Helvetica,sans-Serif" font-size="10.00">Flags.hpp</text>
</a>
</g>
</g>
<!-- Node11&#45;&gt;Node29 -->
<g id="edge34_Node000011_Node000029" class="edge">
<title>Node11&#45;&gt;Node29</title>
<g id="a_edge34_Node000011_Node000029"><a xlink:title=" ">
<path fill="none" stroke="#63b8ff" d="M1404.43,-133.41C1401.48,-132.9 1398.56,-132.43 1395.7,-132 1233.8,-107.61 1188.61,-120.14 1022.32,-96"/>
<polygon fill="#63b8ff" stroke="#63b8ff" points="1022.63,-92.51 1012.23,-94.51 1021.61,-99.43 1022.63,-92.51"/>
</a>
</g>
</g>
<!-- Node30 -->
<g id="Node000030" class="node">
<title>Node30</title>
<g id="a_Node000030"><a xlink:href="_linux_2_s_channel_cred_flags_8hpp.html" target="_top" xlink:title=" ">
<polygon fill="white" stroke="#666666" points="1224.7,-90.5 1030.7,-90.5 1030.7,-60.5 1224.7,-60.5 1224.7,-90.5"/>
<text text-anchor="start" x="1038.7" y="-78.5" font-family="Helvetica,sans-Serif" font-size="10.00">Hermes/_base/OsApi</text>
<text text-anchor="middle" x="1127.7" y="-67.5" font-family="Helvetica,sans-Serif" font-size="10.00">/Flags/Linux/SChannelCredFlags.hpp</text>
</a>
</g>
</g>
<!-- Node11&#45;&gt;Node30 -->
<g id="edge35_Node000011_Node000030" class="edge">
<title>Node11&#45;&gt;Node30</title>
<g id="a_edge35_Node000011_Node000030"><a xlink:title=" ">
<path fill="none" stroke="#63b8ff" d="M1404.4,-133.73C1349.08,-122.29 1266.19,-105.15 1205.56,-92.61"/>
<polygon fill="#63b8ff" stroke="#63b8ff" points="1206.15,-89.15 1195.65,-90.56 1204.73,-96.01 1206.15,-89.15"/>
</a>
</g>
</g>
<!-- Node18&#45;&gt;Node19 -->
<g id="edge18_Node000018_Node000019" class="edge">
<title>Node18&#45;&gt;Node19</title>
<g id="a_edge18_Node000018_Node000019"><a xlink:title=" ">
<path fill="none" stroke="#63b8ff" d="M2372.83,-60.46C2381.17,-58.58 2389.64,-56.7 2397.7,-55 2467.6,-40.22 2549.76,-25.03 2595.47,-16.78"/>
<polygon fill="#63b8ff" stroke="#63b8ff" points="2596.24,-20.2 2605.46,-14.98 2595,-13.31 2596.24,-20.2"/>
</a>
</g>
</g>
<!-- Node20&#45;&gt;Node12 -->
<g id="edge21_Node000020_Node000012" class="edge">
<title>Node20&#45;&gt;Node12</title>
<g id="a_edge21_Node000020_Node000012"><a xlink:title=" ">
<path fill="none" stroke="#63b8ff" d="M1510.75,-60.47C1517.75,-58.54 1524.9,-56.65 1531.7,-55 1590.87,-40.61 1659.73,-27.34 1704.88,-19.1"/>
<polygon fill="#63b8ff" stroke="#63b8ff" points="1705.77,-22.5 1714.99,-17.27 1704.52,-15.61 1705.77,-22.5"/>
</a>
</g>
</g>
<!-- Node21 -->
<g id="Node000021" class="node">
<title>Node21</title>
<g id="a_Node000021"><a xlink:title=" ">
<polygon fill="#e0e0e0" stroke="#999999" points="1500.2,-19 1427.2,-19 1427.2,0 1500.2,0 1500.2,-19"/>
<text text-anchor="middle" x="1463.7" y="-7" font-family="Helvetica,sans-Serif" font-size="10.00">string_view</text>
</a>
</g>
</g>
<!-- Node20&#45;&gt;Node21 -->
<g id="edge20_Node000020_Node000021" class="edge">
<title>Node20&#45;&gt;Node21</title>
<g id="a_edge20_Node000020_Node000021"><a xlink:title=" ">
<path fill="none" stroke="#63b8ff" d="M1463.7,-60.3C1463.7,-51.2 1463.7,-39.29 1463.7,-29.4"/>
<polygon fill="#63b8ff" stroke="#63b8ff" points="1467.2,-29.34 1463.7,-19.34 1460.2,-29.34 1467.2,-29.34"/>
</a>
</g>
</g>
<!-- Node22&#45;&gt;Node12 -->
<g id="edge23_Node000022_Node000012" class="edge">
<title>Node22&#45;&gt;Node12</title>
<g id="a_edge23_Node000022_Node000012"><a xlink:title=" ">
<path fill="none" stroke="#63b8ff" d="M1844.24,-60.45C1824.53,-49.58 1797.39,-34.61 1777.98,-23.9"/>
<polygon fill="#63b8ff" stroke="#63b8ff" points="1779.58,-20.78 1769.14,-19.02 1776.2,-26.91 1779.58,-20.78"/>
</a>
</g>
</g>
<!-- Node23&#45;&gt;Node13 -->
<g id="edge25_Node000023_Node000013" class="edge">
<title>Node23&#45;&gt;Node13</title>
<g id="a_edge25_Node000023_Node000013"><a xlink:title=" ">
<path fill="none" stroke="#63b8ff" d="M98.94,-60.3C89.27,-50.32 76.33,-36.96 66.28,-26.59"/>
<polygon fill="#63b8ff" stroke="#63b8ff" points="68.74,-24.09 59.27,-19.34 63.71,-28.96 68.74,-24.09"/>
</a>
</g>
</g>
<!-- Node24&#45;&gt;Node12 -->
<g id="edge27_Node000024_Node000012" class="edge">
<title>Node24&#45;&gt;Node12</title>
<g id="a_edge27_Node000024_Node000012"><a xlink:title=" ">
<path fill="none" stroke="#63b8ff" d="M1660.03,-60.45C1680.52,-49.53 1708.75,-34.47 1728.85,-23.75"/>
<polygon fill="#63b8ff" stroke="#63b8ff" points="1730.55,-26.81 1737.73,-19.02 1727.26,-20.64 1730.55,-26.81"/>
</a>
</g>
</g>
<!-- Node25&#45;&gt;Node12 -->
<g id="edge29_Node000025_Node000012" class="edge">
<title>Node25&#45;&gt;Node12</title>
<g id="a_edge29_Node000025_Node000012"><a xlink:title=" ">
<path fill="none" stroke="#63b8ff" d="M1991.75,-60.45C1983.33,-58.6 1974.81,-56.75 1966.7,-55 1910.28,-42.86 1845.36,-29.36 1802.16,-20.45"/>
<polygon fill="#63b8ff" stroke="#63b8ff" points="1802.71,-16.99 1792.21,-18.4 1801.29,-23.85 1802.71,-16.99"/>
</a>
</g>
</g>
<!-- Node27&#45;&gt;Node15 -->
<g id="edge32_Node000027_Node000015" class="edge">
<title>Node27&#45;&gt;Node15</title>
<g id="a_edge32_Node000027_Node000015"><a xlink:title=" ">
<path fill="none" stroke="#63b8ff" d="M1259.97,-60.46C1251.22,-58.46 1242.23,-56.56 1233.7,-55 1119.16,-34.06 981.9,-19.83 917.49,-13.78"/>
<polygon fill="#63b8ff" stroke="#63b8ff" points="917.7,-10.29 907.42,-12.85 917.06,-17.26 917.7,-10.29"/>
</a>
</g>
</g>
<!-- Node33&#45;&gt;Node8 -->
<g id="edge48_Node000033_Node000008" class="edge">
<title>Node33&#45;&gt;Node8</title>
<g id="a_edge48_Node000033_Node000008"><a xlink:title=" ">
<path fill="none" stroke="#63b8ff" d="M1475.97,-211.07C1718.67,-207.2 2605.3,-191.16 2727.7,-162 2796.18,-145.68 2810.28,-130.42 2871.7,-96 2874.61,-94.37 2877.61,-92.54 2880.52,-90.67"/>
<polygon fill="#63b8ff" stroke="#63b8ff" points="2882.47,-93.58 2888.84,-85.11 2878.58,-87.76 2882.47,-93.58"/>
</a>
</g>
</g>
<!-- Node33&#45;&gt;Node11 -->
<g id="edge44_Node000033_Node000011" class="edge">
<title>Node33&#45;&gt;Node11</title>
<g id="a_edge44_Node000033_Node000011"><a xlink:title=" ">
<path fill="none" stroke="#63b8ff" d="M1425.57,-197.8C1431.79,-189.68 1439.72,-179.31 1446.74,-170.15"/>
<polygon fill="#63b8ff" stroke="#63b8ff" points="1449.55,-172.23 1452.85,-162.16 1444,-167.98 1449.55,-172.23"/>
</a>
</g>
</g>
<!-- Node34 -->
<g id="Node000034" class="node">
<title>Node34</title>
<g id="a_Node000034"><a xlink:title=" ">
<polygon fill="#e0e0e0" stroke="#999999" points="1248.2,-156.5 1195.2,-156.5 1195.2,-137.5 1248.2,-137.5 1248.2,-156.5"/>
<text text-anchor="middle" x="1221.7" y="-144.5" font-family="Helvetica,sans-Serif" font-size="10.00">cstddef</text>
</a>
</g>
</g>
<!-- Node33&#45;&gt;Node34 -->
<g id="edge45_Node000033_Node000034" class="edge">
<title>Node33&#45;&gt;Node34</title>
<g id="a_edge45_Node000033_Node000034"><a xlink:title=" ">
<path fill="none" stroke="#63b8ff" d="M1368.07,-197.99C1336.71,-188.36 1294.51,-175.01 1257.7,-162 1256.05,-161.42 1254.36,-160.81 1252.65,-160.18"/>
<polygon fill="#63b8ff" stroke="#63b8ff" points="1253.53,-156.77 1242.94,-156.51 1251.06,-163.32 1253.53,-156.77"/>
</a>
</g>
</g>
<!-- Node35 -->
<g id="Node000035" class="node">
<title>Node35</title>
<g id="a_Node000035"><a xlink:title=" ">
<polygon fill="#e0e0e0" stroke="#999999" points="1310.7,-156.5 1266.7,-156.5 1266.7,-137.5 1310.7,-137.5 1310.7,-156.5"/>
<text text-anchor="middle" x="1288.7" y="-144.5" font-family="Helvetica,sans-Serif" font-size="10.00">string</text>
</a>
</g>
</g>
<!-- Node33&#45;&gt;Node35 -->
<g id="edge46_Node000033_Node000035" class="edge">
<title>Node33&#45;&gt;Node35</title>
<g id="a_edge46_Node000033_Node000035"><a xlink:title=" ">
<path fill="none" stroke="#63b8ff" d="M1387.05,-197.95C1365.44,-186.98 1335.62,-171.83 1314.5,-161.11"/>
<polygon fill="#63b8ff" stroke="#63b8ff" points="1315.97,-157.93 1305.47,-156.52 1312.8,-164.17 1315.97,-157.93"/>
</a>
</g>
</g>
<!-- Node36 -->
<g id="Node000036" class="node">
<title>Node36</title>
<g id="a_Node000036"><a xlink:title=" ">
<polygon fill="#e0e0e0" stroke="#999999" points="1386.7,-156.5 1328.7,-156.5 1328.7,-137.5 1386.7,-137.5 1386.7,-156.5"/>
<text text-anchor="middle" x="1357.7" y="-144.5" font-family="Helvetica,sans-Serif" font-size="10.00">memory</text>
</a>
</g>
</g>
<!-- Node33&#45;&gt;Node36 -->
<g id="edge47_Node000033_Node000036" class="edge">
<title>Node33&#45;&gt;Node36</title>
<g id="a_edge47_Node000033_Node000036"><a xlink:title=" ">
<path fill="none" stroke="#63b8ff" d="M1402.05,-197.8C1393.25,-187.92 1381.49,-174.72 1372.3,-164.39"/>
<polygon fill="#63b8ff" stroke="#63b8ff" points="1374.84,-161.98 1365.57,-156.84 1369.61,-166.64 1374.84,-161.98"/>
</a>
</g>
</g>
</g>
</svg>
