<?xml version="1.0" encoding="UTF-8" standalone="no"?>
<!DOCTYPE svg PUBLIC "-//W3C//DTD SVG 1.1//EN"
 "http://www.w3.org/Graphics/SVG/1.1/DTD/svg11.dtd">
<!-- Generated by graphviz version 2.43.0 (0)
 -->
<!-- Title: include/Hermes/Socket/Sync/_base/Connection/TlsConnectPolicy.hpp Pages: 1 -->
<svg width="457pt" height="203pt"
 viewBox="0.00 0.00 457.00 203.00" xmlns="http://www.w3.org/2000/svg" xmlns:xlink="http://www.w3.org/1999/xlink">
<g id="graph0" class="graph" transform="scale(1 1) rotate(0) translate(4 199)">
<title>include/Hermes/Socket/Sync/_base/Connection/TlsConnectPolicy.hpp</title>
<!-- Node1 -->
<g id="Node000001" class="node">
<title>Node1</title>
<g id="a_Node000001"><a xlink:title=" ">
<polygon fill="#999999" stroke="#666666" points="323.5,-195 191.5,-195 191.5,-154 323.5,-154 323.5,-195"/>
<text text-anchor="start" x="199.5" y="-183" font-family="Helvetica,sans-Serif" font-size="10.00">include/Hermes/Socket</text>
<text text-anchor="start" x="199.5" y="-172" font-family="Helvetica,sans-Serif" font-size="10.00">/Sync/_base/Connection</text>
<text text-anchor="middle" x="257.5" y="-161" font-family="Helvetica,sans-Serif" font-size="10.00">/TlsConnectPolicy.hpp</text>
</a>
</g>
</g>
<!-- Node2 -->
<g id="Node000002" class="node">
<title>Node2</title>
<g id="a_Node000002"><a xlink:href="_default_async_connect_policy_8hpp.html" target="_top" xlink:title=" ">
<polygon fill="white" stroke="#666666" points="229,-118 56,-118 56,-77 229,-77 229,-118"/>
<text text-anchor="start" x="64" y="-106" font-family="Helvetica,sans-Serif" font-size="10.00">include/Hermes/Socket</text>
<text text-anchor="start" x="64" y="-95" font-family="Helvetica,sans-Serif" font-size="10.00">/Async/_base/Connection</text>
<text text-anchor="middle" x="142.5" y="-84" font-family="Helvetica,sans-Serif" font-size="10.00">/DefaultAsyncConnectPolicy.hpp</text>
</a>
</g>
</g>
<!-- Node1&#45;&gt;Node2 -->
<g id="edge1_Node000001_Node000002" class="edge">
<title>Node1&#45;&gt;Node2</title>
<g id="a_edge1_Node000001_Node000002"><a xlink:title=" ">
<path fill="none" stroke="#63b8ff" d="M218.97,-148.37C203.88,-138.53 186.83,-127.41 172.66,-118.17"/>
<polygon fill="#63b8ff" stroke="#63b8ff" points="217.3,-151.46 227.59,-153.99 221.12,-145.6 217.3,-151.46"/>
</a>
</g>
</g>
<!-- Node4 -->
<g id="Node000004" class="node">
<title>Node4</title>
<g id="a_Node000004"><a xlink:href="_tls_async_connect_policy_8hpp.html" target="_top" xlink:title=" ">
<polygon fill="white" stroke="#666666" points="333.5,-41 181.5,-41 181.5,0 333.5,0 333.5,-41"/>
<text text-anchor="start" x="189.5" y="-29" font-family="Helvetica,sans-Serif" font-size="10.00">include/Hermes/Socket</text>
<text text-anchor="start" x="189.5" y="-18" font-family="Helvetica,sans-Serif" font-size="10.00">/Async/_base/Connection</text>
<text text-anchor="middle" x="257.5" y="-7" font-family="Helvetica,sans-Serif" font-size="10.00">/TlsAsyncConnectPolicy.hpp</text>
</a>
</g>
</g>
<!-- Node1&#45;&gt;Node4 -->
<g id="edge4_Node000001_Node000004" class="edge">
<title>Node1&#45;&gt;Node4</title>
<g id="a_edge4_Node000001_Node000004"><a xlink:title=" ">
<path fill="none" stroke="#63b8ff" d="M257.5,-143.58C257.5,-113.36 257.5,-67.53 257.5,-41.47"/>
<polygon fill="#63b8ff" stroke="#63b8ff" points="254,-143.94 257.5,-153.94 261,-143.94 254,-143.94"/>
</a>
</g>
</g>
<!-- Node5 -->
<g id="Node000005" class="node">
<title>Node5</title>
<g id="a_Node000005"><a xlink:href="_tls_connect_state_machine_8hpp.html" target="_top" xlink:title=" ">
<polygon fill="white" stroke="#666666" points="449,-118 286,-118 286,-77 449,-77 449,-118"/>
<text text-anchor="start" x="294" y="-106" font-family="Helvetica,sans-Serif" font-size="10.00">include/Hermes/Socket</text>
<text text-anchor="start" x="294" y="-95" font-family="Helvetica,sans-Serif" font-size="10.00">/_base/Connection/TlsConnect</text>
<text text-anchor="middle" x="367.5" y="-84" font-family="Helvetica,sans-Serif" font-size="10.00">StateMachine.hpp</text>
</a>
</g>
</g>
<!-- Node1&#45;&gt;Node5 -->
<g id="edge5_Node000001_Node000005" class="edge">
<title>Node1&#45;&gt;Node5</title>
<g id="a_edge5_Node000001_Node000005"><a xlink:title=" ">
<path fill="none" stroke="#63b8ff" d="M294.76,-148.09C309.1,-138.32 325.22,-127.32 338.65,-118.17"/>
<polygon fill="#63b8ff" stroke="#63b8ff" points="292.4,-145.47 286.11,-153.99 296.35,-151.25 292.4,-145.47"/>
</a>
</g>
</g>
<!-- Node3 -->
<g id="Node000003" class="node">
<title>Node3</title>
<g id="a_Node000003"><a xlink:href="_async_client_socket_8hpp.html" target="_top" xlink:title=" ">
<polygon fill="white" stroke="#666666" points="163,-35.5 0,-35.5 0,-5.5 163,-5.5 163,-35.5"/>
<text text-anchor="start" x="8" y="-23.5" font-family="Helvetica,sans-Serif" font-size="10.00">include/Hermes/Socket</text>
<text text-anchor="middle" x="81.5" y="-12.5" font-family="Helvetica,sans-Serif" font-size="10.00">/Async/AsyncClientSocket.hpp</text>
</a>
</g>
</g>
<!-- Node2&#45;&gt;Node3 -->
<g id="edge2_Node000002_Node000003" class="edge">
<title>Node2&#45;&gt;Node3</title>
<g id="a_edge2_Node000002_Node000003"><a xlink:title=" ">
<path fill="none" stroke="#63b8ff" d="M120.06,-68.92C110.94,-57.7 100.78,-45.21 93.18,-35.86"/>
<polygon fill="#63b8ff" stroke="#63b8ff" points="117.45,-71.25 126.47,-76.79 122.88,-66.83 117.45,-71.25"/>
</a>
</g>
</g>
<!-- Node2&#45;&gt;Node4 -->
<g id="edge3_Node000002_Node000004" class="edge">
<title>Node2&#45;&gt;Node4</title>
<g id="a_edge3_Node000002_Node000004"><a xlink:title=" ">
<path fill="none" stroke="#63b8ff" d="M181.03,-71.37C196.12,-61.53 213.17,-50.41 227.34,-41.17"/>
<polygon fill="#63b8ff" stroke="#63b8ff" points="178.88,-68.6 172.41,-76.99 182.7,-74.46 178.88,-68.6"/>
</a>
</g>
</g>
</g>
</svg>
