<?xml version="1.0" encoding="UTF-8" standalone="no"?>
<!DOCTYPE svg PUBLIC "-//W3C//DTD SVG 1.1//EN"
 "http://www.w3.org/Graphics/SVG/1.1/DTD/svg11.dtd">
<!-- Generated by graphviz version 2.43.0 (0)
 -->
<!-- Title: include/Hermes/Socket/_base/Transfer/TlsTransferStateMachine.hpp Pages: 1 -->
<svg width="4114pt" height="445pt"
 viewBox="0.00 0.00 4114.33 445.00" xmlns="http://www.w3.org/2000/svg" xmlns:xlink="http://www.w3.org/1999/xlink">
<g id="graph0" class="graph" transform="scale(1 1) rotate(0) translate(4 441)">
<title>include/Hermes/Socket/_base/Transfer/TlsTransferStateMachine.hpp</title>
<!-- Node1 -->
<g id="Node000001" class="node">
<title>Node1</title>
<g id="a_Node000001"><a xlink:title=" ">
<polygon fill="#999999" stroke="#666666" points="3021,-437 2875,-437 2875,-396 3021,-396 3021,-437"/>
<text text-anchor="start" x="2883" y="-425" font-family="Helvetica,sans-Serif" font-size="10.00">include/Hermes/Socket</text>
<text text-anchor="start" x="2883" y="-414" font-family="Helvetica,sans-Serif" font-size="10.00">/_base/Transfer/TlsTransfer</text>
<text text-anchor="middle" x="2948" y="-403" font-family="Helvetica,sans-Serif" font-size="10.00">StateMachine.hpp</text>
</a>
</g>
</g>
<!-- Node2 -->
<g id="Node000002" class="node">
<title>Node2</title>
<g id="a_Node000002"><a xlink:href="__base_8hpp.html" target="_top" xlink:title=" ">
<polygon fill="white" stroke="#666666" points="1104.5,-283 961.5,-283 961.5,-264 1104.5,-264 1104.5,-283"/>
<text text-anchor="middle" x="1033" y="-271" font-family="Helvetica,sans-Serif" font-size="10.00">Hermes/Socket/_base.hpp</text>
</a>
</g>
</g>
<!-- Node1&#45;&gt;Node2 -->
<g id="edge1_Node000001_Node000002" class="edge">
<title>Node1&#45;&gt;Node2</title>
<g id="a_edge1_Node000001_Node000002"><a xlink:title=" ">
<path fill="none" stroke="#63b8ff" d="M2874.89,-412.28C2711.13,-404.88 2302.45,-385.32 1961,-360 1648,-336.79 1276.48,-299.66 1114.87,-283.03"/>
<polygon fill="#63b8ff" stroke="#63b8ff" points="1114.84,-279.51 1104.53,-281.97 1114.12,-286.47 1114.84,-279.51"/>
</a>
</g>
</g>
<!-- Node12 -->
<g id="Node000012" class="node">
<title>Node12</title>
<g id="a_Node000012"><a xlink:href="_win_api_8hpp.html" target="_top" xlink:title=" ">
<polygon fill="white" stroke="#666666" points="2582,-162 2458,-162 2458,-132 2582,-132 2582,-162"/>
<text text-anchor="start" x="2466" y="-150" font-family="Helvetica,sans-Serif" font-size="10.00">Hermes/_base/WinApi</text>
<text text-anchor="middle" x="2520" y="-139" font-family="Helvetica,sans-Serif" font-size="10.00">/WinApi.hpp</text>
</a>
</g>
</g>
<!-- Node1&#45;&gt;Node12 -->
<g id="edge57_Node000001_Node000012" class="edge">
<title>Node1&#45;&gt;Node12</title>
<g id="a_edge57_Node000001_Node000012"><a xlink:title=" ">
<path fill="none" stroke="#63b8ff" d="M2916.53,-395.83C2837.25,-346.28 2630.04,-216.77 2551.13,-167.46"/>
<polygon fill="#63b8ff" stroke="#63b8ff" points="2552.93,-164.45 2542.59,-162.12 2549.22,-170.39 2552.93,-164.45"/>
</a>
</g>
</g>
<!-- Node41 -->
<g id="Node000041" class="node">
<title>Node41</title>
<g id="a_Node000041"><a xlink:href="_i_tls_transfer_state_machine_8hpp.html" target="_top" xlink:title=" ">
<polygon fill="white" stroke="#666666" points="2112.5,-360 1969.5,-360 1969.5,-319 2112.5,-319 2112.5,-360"/>
<text text-anchor="start" x="1977.5" y="-348" font-family="Helvetica,sans-Serif" font-size="10.00">Hermes/Socket/_base</text>
<text text-anchor="start" x="1977.5" y="-337" font-family="Helvetica,sans-Serif" font-size="10.00">/Transfer/ITlsTransferState</text>
<text text-anchor="middle" x="2041" y="-326" font-family="Helvetica,sans-Serif" font-size="10.00">Machine.hpp</text>
</a>
</g>
</g>
<!-- Node1&#45;&gt;Node41 -->
<g id="edge58_Node000001_Node000041" class="edge">
<title>Node1&#45;&gt;Node41</title>
<g id="a_edge58_Node000001_Node000041"><a xlink:title=" ">
<path fill="none" stroke="#63b8ff" d="M2874.93,-409.46C2707.73,-395.63 2298.27,-361.77 2122.9,-347.27"/>
<polygon fill="#63b8ff" stroke="#63b8ff" points="2122.95,-343.76 2112.7,-346.43 2122.38,-350.74 2122.95,-343.76"/>
</a>
</g>
</g>
<!-- Node42 -->
<g id="Node000042" class="node">
<title>Node42</title>
<g id="a_Node000042"><a xlink:title=" ">
<polygon fill="#e0e0e0" stroke="#999999" points="3343,-360 3203,-360 3203,-319 3343,-319 3343,-360"/>
<text text-anchor="start" x="3211" y="-348" font-family="Helvetica,sans-Serif" font-size="10.00">Hermes/Socket/_base</text>
<text text-anchor="start" x="3211" y="-337" font-family="Helvetica,sans-Serif" font-size="10.00">/Transfer/TlsTransferState</text>
<text text-anchor="middle" x="3273" y="-326" font-family="Helvetica,sans-Serif" font-size="10.00">Machine.tpp</text>
</a>
</g>
</g>
<!-- Node1&#45;&gt;Node42 -->
<g id="edge62_Node000001_Node000042" class="edge">
<title>Node1&#45;&gt;Node42</title>
<g id="a_edge62_Node000001_Node000042"><a xlink:title=" ">
<path fill="none" stroke="#63b8ff" d="M3021.04,-398.71C3068.83,-387.72 3132.63,-373.03 3189,-360 3190.27,-359.71 3191.55,-359.41 3192.85,-359.11"/>
<polygon fill="#63b8ff" stroke="#63b8ff" points="3193.92,-362.45 3202.88,-356.79 3192.34,-355.63 3193.92,-362.45"/>
</a>
</g>
</g>
<!-- Node3 -->
<g id="Node000003" class="node">
<title>Node3</title>
<g id="a_Node000003"><a xlink:href="_endpoint_concept_8hpp.html" target="_top" xlink:title=" ">
<polygon fill="white" stroke="#666666" points="1099,-228 967,-228 967,-198 1099,-198 1099,-228"/>
<text text-anchor="start" x="975" y="-216" font-family="Helvetica,sans-Serif" font-size="10.00">Hermes/Endpoint/_base</text>
<text text-anchor="middle" x="1033" y="-205" font-family="Helvetica,sans-Serif" font-size="10.00">/EndpointConcept.hpp</text>
</a>
</g>
</g>
<!-- Node2&#45;&gt;Node3 -->
<g id="edge2_Node000002_Node000003" class="edge">
<title>Node2&#45;&gt;Node3</title>
<g id="a_edge2_Node000002_Node000003"><a xlink:title=" ">
<path fill="none" stroke="#63b8ff" d="M1033,-263.87C1033,-257.11 1033,-247.35 1033,-238.26"/>
<polygon fill="#63b8ff" stroke="#63b8ff" points="1036.5,-238.11 1033,-228.11 1029.5,-238.11 1036.5,-238.11"/>
</a>
</g>
</g>
<!-- Node4 -->
<g id="Node000004" class="node">
<title>Node4</title>
<g id="a_Node000004"><a xlink:href="_connection_error_enum_8hpp.html" target="_top" xlink:title=" ">
<polygon fill="white" stroke="#666666" points="600.5,-162 433.5,-162 433.5,-132 600.5,-132 600.5,-162"/>
<text text-anchor="start" x="441.5" y="-150" font-family="Helvetica,sans-Serif" font-size="10.00">Hermes/_base/ConnectionError</text>
<text text-anchor="middle" x="517" y="-139" font-family="Helvetica,sans-Serif" font-size="10.00">Enum.hpp</text>
</a>
</g>
</g>
<!-- Node2&#45;&gt;Node4 -->
<g id="edge53_Node000002_Node000004" class="edge">
<title>Node2&#45;&gt;Node4</title>
<g id="a_edge53_Node000002_Node000004"><a xlink:title=" ">
<path fill="none" stroke="#63b8ff" d="M1017.11,-263.88C1001.67,-255.32 977.72,-241.54 958,-228 940.26,-215.82 939.85,-206.3 920,-198 865.92,-175.4 712.05,-161.06 610.86,-153.79"/>
<polygon fill="#63b8ff" stroke="#63b8ff" points="610.85,-150.28 600.62,-153.07 610.35,-157.26 610.85,-150.28"/>
</a>
</g>
</g>
<!-- Node9 -->
<g id="Node000009" class="node">
<title>Node9</title>
<g id="a_Node000009"><a xlink:title=" ">
<polygon fill="#e0e0e0" stroke="#999999" points="694.5,-85 569.5,-85 569.5,-66 694.5,-66 694.5,-85"/>
<text text-anchor="middle" x="632" y="-73" font-family="Helvetica,sans-Serif" font-size="10.00">stdexec/execution.hpp</text>
</a>
</g>
</g>
<!-- Node2&#45;&gt;Node9 -->
<g id="edge54_Node000002_Node000009" class="edge">
<title>Node2&#45;&gt;Node9</title>
<g id="a_edge54_Node000002_Node000009"><a xlink:title=" ">
<path fill="none" stroke="#63b8ff" d="M1060.65,-263.98C1077.58,-257.17 1097.89,-245.76 1108,-228 1114.6,-216.41 1116.19,-208.52 1108,-198 994.2,-51.9 883.16,-142.87 704,-96 693.95,-93.37 683.12,-90.47 672.99,-87.73"/>
<polygon fill="#63b8ff" stroke="#63b8ff" points="673.72,-84.3 663.16,-85.06 671.89,-91.06 673.72,-84.3"/>
</a>
</g>
</g>
<!-- Node39 -->
<g id="Node000039" class="node">
<title>Node39</title>
<g id="a_Node000039"><a xlink:title=" ">
<polygon fill="#e0e0e0" stroke="#999999" points="843,-222.5 783,-222.5 783,-203.5 843,-203.5 843,-222.5"/>
<text text-anchor="middle" x="813" y="-210.5" font-family="Helvetica,sans-Serif" font-size="10.00">concepts</text>
</a>
</g>
</g>
<!-- Node2&#45;&gt;Node39 -->
<g id="edge55_Node000002_Node000039" class="edge">
<title>Node2&#45;&gt;Node39</title>
<g id="a_edge55_Node000002_Node000039"><a xlink:title=" ">
<path fill="none" stroke="#63b8ff" d="M993.13,-263.95C956.25,-255.74 900.02,-242.48 852,-228 849.73,-227.32 847.41,-226.58 845.07,-225.81"/>
<polygon fill="#63b8ff" stroke="#63b8ff" points="846.15,-222.48 835.55,-222.54 843.88,-229.1 846.15,-222.48"/>
</a>
</g>
</g>
<!-- Node40 -->
<g id="Node000040" class="node">
<title>Node40</title>
<g id="a_Node000040"><a xlink:title=" ">
<polygon fill="#e0e0e0" stroke="#999999" points="911,-222.5 861,-222.5 861,-203.5 911,-203.5 911,-222.5"/>
<text text-anchor="middle" x="886" y="-210.5" font-family="Helvetica,sans-Serif" font-size="10.00">ranges</text>
</a>
</g>
</g>
<!-- Node2&#45;&gt;Node40 -->
<g id="edge56_Node000002_Node000040" class="edge">
<title>Node2&#45;&gt;Node40</title>
<g id="a_edge56_Node000002_Node000040"><a xlink:title=" ">
<path fill="none" stroke="#63b8ff" d="M1011.62,-263.99C986.69,-254.07 945.28,-237.59 916.86,-226.28"/>
<polygon fill="#63b8ff" stroke="#63b8ff" points="917.99,-222.96 907.4,-222.52 915.4,-229.47 917.99,-222.96"/>
</a>
</g>
</g>
<!-- Node3&#45;&gt;Node4 -->
<g id="edge3_Node000003_Node000004" class="edge">
<title>Node3&#45;&gt;Node4</title>
<g id="a_edge3_Node000003_Node000004"><a xlink:title=" ">
<path fill="none" stroke="#63b8ff" d="M966.69,-200.09C962.06,-199.35 957.47,-198.65 953,-198 835.38,-180.98 699.22,-166.14 610.78,-157.14"/>
<polygon fill="#63b8ff" stroke="#63b8ff" points="611.08,-153.65 600.77,-156.12 610.37,-160.61 611.08,-153.65"/>
</a>
</g>
</g>
<!-- Node3&#45;&gt;Node12 -->
<g id="edge11_Node000003_Node000012" class="edge">
<title>Node3&#45;&gt;Node12</title>
<g id="a_edge11_Node000003_Node000012"><a xlink:title=" ">
<path fill="none" stroke="#63b8ff" d="M1099.3,-209.15C1343.75,-198.63 2193.6,-162.05 2447.7,-151.11"/>
<polygon fill="#63b8ff" stroke="#63b8ff" points="2448.08,-154.6 2457.92,-150.67 2447.78,-147.61 2448.08,-154.6"/>
</a>
</g>
</g>
<!-- Node5 -->
<g id="Node000005" class="node">
<title>Node5</title>
<g id="a_Node000005"><a xlink:title=" ">
<polygon fill="#e0e0e0" stroke="#999999" points="399,-85 337,-85 337,-66 399,-66 399,-85"/>
<text text-anchor="middle" x="368" y="-73" font-family="Helvetica,sans-Serif" font-size="10.00">expected</text>
</a>
</g>
</g>
<!-- Node4&#45;&gt;Node5 -->
<g id="edge4_Node000004_Node000005" class="edge">
<title>Node4&#45;&gt;Node5</title>
<g id="a_edge4_Node000004_Node000005"><a xlink:title=" ">
<path fill="none" stroke="#63b8ff" d="M485.9,-131.97C464.05,-122.05 434.16,-108.37 408,-96 403.72,-93.98 399.2,-91.8 394.79,-89.67"/>
<polygon fill="#63b8ff" stroke="#63b8ff" points="396,-86.37 385.48,-85.13 392.94,-92.66 396,-86.37"/>
</a>
</g>
</g>
<!-- Node6 -->
<g id="Node000006" class="node">
<title>Node6</title>
<g id="a_Node000006"><a xlink:title=" ">
<polygon fill="#e0e0e0" stroke="#999999" points="464.5,-85 417.5,-85 417.5,-66 464.5,-66 464.5,-85"/>
<text text-anchor="middle" x="441" y="-73" font-family="Helvetica,sans-Serif" font-size="10.00">vector</text>
</a>
</g>
</g>
<!-- Node4&#45;&gt;Node6 -->
<g id="edge5_Node000004_Node000006" class="edge">
<title>Node4&#45;&gt;Node6</title>
<g id="a_edge5_Node000004_Node000006"><a xlink:title=" ">
<path fill="none" stroke="#63b8ff" d="M501.62,-131.94C488.98,-120.37 471.08,-104.01 458.01,-92.06"/>
<polygon fill="#63b8ff" stroke="#63b8ff" points="460.33,-89.43 450.59,-85.27 455.6,-94.6 460.33,-89.43"/>
</a>
</g>
</g>
<!-- Node7 -->
<g id="Node000007" class="node">
<title>Node7</title>
<g id="a_Node000007"><a xlink:title=" ">
<polygon fill="#e0e0e0" stroke="#999999" points="753,-85 713,-85 713,-66 753,-66 753,-85"/>
<text text-anchor="middle" x="733" y="-73" font-family="Helvetica,sans-Serif" font-size="10.00">span</text>
</a>
</g>
</g>
<!-- Node4&#45;&gt;Node7 -->
<g id="edge6_Node000004_Node000007" class="edge">
<title>Node4&#45;&gt;Node7</title>
<g id="a_edge6_Node000004_Node000007"><a xlink:title=" ">
<path fill="none" stroke="#63b8ff" d="M591.77,-131.97C626.79,-123.91 668.51,-112.13 704,-96 707.3,-94.5 710.65,-92.63 713.83,-90.66"/>
<polygon fill="#63b8ff" stroke="#63b8ff" points="715.88,-93.5 722.22,-85 711.97,-87.69 715.88,-93.5"/>
</a>
</g>
</g>
<!-- Node8 -->
<g id="Node000008" class="node">
<title>Node8</title>
<g id="a_Node000008"><a xlink:title=" ">
<polygon fill="#e0e0e0" stroke="#999999" points="551.5,-85 482.5,-85 482.5,-66 551.5,-66 551.5,-85"/>
<text text-anchor="middle" x="517" y="-73" font-family="Helvetica,sans-Serif" font-size="10.00">type_traits</text>
</a>
</g>
</g>
<!-- Node4&#45;&gt;Node8 -->
<g id="edge7_Node000004_Node000008" class="edge">
<title>Node4&#45;&gt;Node8</title>
<g id="a_edge7_Node000004_Node000008"><a xlink:title=" ">
<path fill="none" stroke="#63b8ff" d="M517,-131.94C517,-121.46 517,-107.05 517,-95.55"/>
<polygon fill="#63b8ff" stroke="#63b8ff" points="520.5,-95.27 517,-85.27 513.5,-95.27 520.5,-95.27"/>
</a>
</g>
</g>
<!-- Node4&#45;&gt;Node9 -->
<g id="edge8_Node000004_Node000009" class="edge">
<title>Node4&#45;&gt;Node9</title>
<g id="a_edge8_Node000004_Node000009"><a xlink:title=" ">
<path fill="none" stroke="#63b8ff" d="M540.27,-131.94C560.33,-119.81 589.12,-102.41 609.08,-90.35"/>
<polygon fill="#63b8ff" stroke="#63b8ff" points="611.07,-93.24 617.82,-85.07 607.45,-87.24 611.07,-93.24"/>
</a>
</g>
</g>
<!-- Node10 -->
<g id="Node000010" class="node">
<title>Node10</title>
<g id="a_Node000010"><a xlink:title=" ">
<polygon fill="#e0e0e0" stroke="#999999" points="134,-85 0,-85 0,-66 134,-66 134,-85"/>
<text text-anchor="middle" x="67" y="-73" font-family="Helvetica,sans-Serif" font-size="10.00">exec/any_sender_of.hpp</text>
</a>
</g>
</g>
<!-- Node4&#45;&gt;Node10 -->
<g id="edge9_Node000004_Node000010" class="edge">
<title>Node4&#45;&gt;Node10</title>
<g id="a_edge9_Node000004_Node000010"><a xlink:title=" ">
<path fill="none" stroke="#63b8ff" d="M433.36,-137.68C357.26,-129.44 242.03,-115.25 143,-96 131.11,-93.69 118.3,-90.63 106.66,-87.62"/>
<polygon fill="#63b8ff" stroke="#63b8ff" points="107.34,-84.18 96.77,-85.01 105.55,-90.95 107.34,-84.18"/>
</a>
</g>
</g>
<!-- Node11 -->
<g id="Node000011" class="node">
<title>Node11</title>
<g id="a_Node000011"><a xlink:title=" ">
<polygon fill="#e0e0e0" stroke="#999999" points="319.5,-90.5 152.5,-90.5 152.5,-60.5 319.5,-60.5 319.5,-90.5"/>
<text text-anchor="start" x="160.5" y="-78.5" font-family="Helvetica,sans-Serif" font-size="10.00">Hermes/_base/ConnectionError</text>
<text text-anchor="middle" x="236" y="-67.5" font-family="Helvetica,sans-Serif" font-size="10.00">Enum.tpp</text>
</a>
</g>
</g>
<!-- Node4&#45;&gt;Node11 -->
<g id="edge10_Node000004_Node000011" class="edge">
<title>Node4&#45;&gt;Node11</title>
<g id="a_edge10_Node000004_Node000011"><a xlink:title=" ">
<path fill="none" stroke="#63b8ff" d="M460.14,-131.94C414.62,-120.68 350.69,-104.87 302.75,-93.01"/>
<polygon fill="#63b8ff" stroke="#63b8ff" points="303.33,-89.55 292.78,-90.54 301.65,-96.34 303.33,-89.55"/>
</a>
</g>
</g>
<!-- Node13 -->
<g id="Node000013" class="node">
<title>Node13</title>
<g id="a_Node000013"><a xlink:title=" ">
<polygon fill="#e0e0e0" stroke="#999999" points="2415.5,-85 2346.5,-85 2346.5,-66 2415.5,-66 2415.5,-85"/>
<text text-anchor="middle" x="2381" y="-73" font-family="Helvetica,sans-Serif" font-size="10.00">ws2tcpip.h</text>
</a>
</g>
</g>
<!-- Node12&#45;&gt;Node13 -->
<g id="edge12_Node000012_Node000013" class="edge">
<title>Node12&#45;&gt;Node13</title>
<g id="a_edge12_Node000012_Node000013"><a xlink:title=" ">
<path fill="none" stroke="#63b8ff" d="M2491.87,-131.94C2467.08,-119.54 2431.25,-101.62 2407.09,-89.54"/>
<polygon fill="#63b8ff" stroke="#63b8ff" points="2408.65,-86.41 2398.14,-85.07 2405.51,-92.67 2408.65,-86.41"/>
</a>
</g>
</g>
<!-- Node14 -->
<g id="Node000014" class="node">
<title>Node14</title>
<g id="a_Node000014"><a xlink:title=" ">
<polygon fill="#e0e0e0" stroke="#999999" points="3021.5,-19 2950.5,-19 2950.5,0 3021.5,0 3021.5,-19"/>
<text text-anchor="middle" x="2986" y="-7" font-family="Helvetica,sans-Serif" font-size="10.00">winsock2.h</text>
</a>
</g>
</g>
<!-- Node12&#45;&gt;Node14 -->
<g id="edge13_Node000012_Node000014" class="edge">
<title>Node12&#45;&gt;Node14</title>
<g id="a_edge13_Node000012_Node000014"><a xlink:title=" ">
<path fill="none" stroke="#63b8ff" d="M2582.06,-143.07C2698.36,-136.99 2939.97,-121.45 2968,-96 2986.4,-79.29 2988.62,-48.95 2987.83,-29.27"/>
<polygon fill="#63b8ff" stroke="#63b8ff" points="2991.31,-28.83 2987.12,-19.09 2984.33,-29.31 2991.31,-28.83"/>
</a>
</g>
</g>
<!-- Node15 -->
<g id="Node000015" class="node">
<title>Node15</title>
<g id="a_Node000015"><a xlink:title=" ">
<polygon fill="#e0e0e0" stroke="#999999" points="3626.5,-19 3557.5,-19 3557.5,0 3626.5,0 3626.5,-19"/>
<text text-anchor="middle" x="3592" y="-7" font-family="Helvetica,sans-Serif" font-size="10.00">schannel.h</text>
</a>
</g>
</g>
<!-- Node12&#45;&gt;Node15 -->
<g id="edge14_Node000012_Node000015" class="edge">
<title>Node12&#45;&gt;Node15</title>
<g id="a_edge14_Node000012_Node000015"><a xlink:title=" ">
<path fill="none" stroke="#63b8ff" d="M2582.3,-144.9C2847.51,-140.06 3869.95,-119.9 3893,-96 3969.12,-17.06 3738.05,-9.45 3636.91,-9.76"/>
<polygon fill="#63b8ff" stroke="#63b8ff" points="3636.66,-6.26 3626.68,-9.82 3636.7,-13.26 3636.66,-6.26"/>
</a>
</g>
</g>
<!-- Node16 -->
<g id="Node000016" class="node">
<title>Node16</title>
<g id="a_Node000016"><a xlink:title=" ">
<polygon fill="#e0e0e0" stroke="#999999" points="2404.5,-19 2359.5,-19 2359.5,0 2404.5,0 2404.5,-19"/>
<text text-anchor="middle" x="2382" y="-7" font-family="Helvetica,sans-Serif" font-size="10.00">sspi.h</text>
</a>
</g>
</g>
<!-- Node12&#45;&gt;Node16 -->
<g id="edge15_Node000012_Node000016" class="edge">
<title>Node12&#45;&gt;Node16</title>
<g id="a_edge15_Node000012_Node000016"><a xlink:title=" ">
<path fill="none" stroke="#63b8ff" d="M2457.75,-146.99C2363.17,-147.01 2190.08,-140.73 2151,-96 2093.9,-30.64 2272.52,-15.18 2349,-11.57"/>
<polygon fill="#63b8ff" stroke="#63b8ff" points="2349.24,-15.07 2359.08,-11.14 2348.94,-8.07 2349.24,-15.07"/>
</a>
</g>
</g>
<!-- Node17 -->
<g id="Node000017" class="node">
<title>Node17</title>
<g id="a_Node000017"><a xlink:href="_conversion_and_literals_8hpp.html" target="_top" xlink:title=" ">
<polygon fill="white" stroke="#666666" points="4090,-90.5 3940,-90.5 3940,-60.5 4090,-60.5 4090,-90.5"/>
<text text-anchor="start" x="3948" y="-78.5" font-family="Helvetica,sans-Serif" font-size="10.00">Hermes/_base/WinApi</text>
<text text-anchor="middle" x="4015" y="-67.5" font-family="Helvetica,sans-Serif" font-size="10.00">/ConversionAndLiterals.hpp</text>
</a>
</g>
</g>
<!-- Node12&#45;&gt;Node17 -->
<g id="edge16_Node000012_Node000017" class="edge">
<title>Node12&#45;&gt;Node17</title>
<g id="a_edge16_Node000012_Node000017"><a xlink:title=" ">
<path fill="none" stroke="#63b8ff" d="M2582.18,-145.28C2818.43,-142.31 3660.35,-129.55 3926,-96 3933.31,-95.08 3940.91,-93.84 3948.45,-92.44"/>
<polygon fill="#63b8ff" stroke="#63b8ff" points="3949.15,-95.87 3958.29,-90.52 3947.81,-89 3949.15,-95.87"/>
</a>
</g>
</g>
<!-- Node19 -->
<g id="Node000019" class="node">
<title>Node19</title>
<g id="a_Node000019"><a xlink:href="_macros_8hpp.html" target="_top" xlink:title=" ">
<polygon fill="white" stroke="#666666" points="3138,-90.5 3014,-90.5 3014,-60.5 3138,-60.5 3138,-90.5"/>
<text text-anchor="start" x="3022" y="-78.5" font-family="Helvetica,sans-Serif" font-size="10.00">Hermes/_base/WinApi</text>
<text text-anchor="middle" x="3076" y="-67.5" font-family="Helvetica,sans-Serif" font-size="10.00">/Macros.hpp</text>
</a>
</g>
</g>
<!-- Node12&#45;&gt;Node19 -->
<g id="edge18_Node000012_Node000019" class="edge">
<title>Node12&#45;&gt;Node19</title>
<g id="a_edge18_Node000012_Node000019"><a xlink:title=" ">
<path fill="none" stroke="#63b8ff" d="M2582.16,-142.46C2674.07,-136.57 2851.35,-122.66 3000,-96 3005.07,-95.09 3010.29,-94.03 3015.52,-92.87"/>
<polygon fill="#63b8ff" stroke="#63b8ff" points="3016.58,-96.22 3025.54,-90.55 3015,-89.4 3016.58,-96.22"/>
</a>
</g>
</g>
<!-- Node21 -->
<g id="Node000021" class="node">
<title>Node21</title>
<g id="a_Node000021"><a xlink:href="_address_family_enum_8hpp.html" target="_top" xlink:title=" ">
<polygon fill="white" stroke="#666666" points="947,-90.5 771,-90.5 771,-60.5 947,-60.5 947,-90.5"/>
<text text-anchor="start" x="779" y="-78.5" font-family="Helvetica,sans-Serif" font-size="10.00">Hermes/_base/WinApi</text>
<text text-anchor="middle" x="859" y="-67.5" font-family="Helvetica,sans-Serif" font-size="10.00">/Enums/AddressFamilyEnum.hpp</text>
</a>
</g>
</g>
<!-- Node12&#45;&gt;Node21 -->
<g id="edge23_Node000012_Node000021" class="edge">
<title>Node12&#45;&gt;Node21</title>
<g id="a_edge23_Node000012_Node000021"><a xlink:title=" ">
<path fill="none" stroke="#63b8ff" d="M2457.91,-145.38C2205.48,-142.64 1255.38,-130.22 957,-96 948.7,-95.05 940.06,-93.76 931.49,-92.31"/>
<polygon fill="#63b8ff" stroke="#63b8ff" points="931.95,-88.83 921.49,-90.53 930.73,-95.73 931.95,-88.83"/>
</a>
</g>
</g>
<!-- Node23 -->
<g id="Node000023" class="node">
<title>Node23</title>
<g id="a_Node000023"><a xlink:href="_condition_function_enum_8hpp.html" target="_top" xlink:title=" ">
<polygon fill="white" stroke="#666666" points="1367,-90.5 1175,-90.5 1175,-60.5 1367,-60.5 1367,-90.5"/>
<text text-anchor="start" x="1183" y="-78.5" font-family="Helvetica,sans-Serif" font-size="10.00">Hermes/_base/WinApi</text>
<text text-anchor="middle" x="1271" y="-67.5" font-family="Helvetica,sans-Serif" font-size="10.00">/Enums/ConditionFunctionEnum.hpp</text>
</a>
</g>
</g>
<!-- Node12&#45;&gt;Node23 -->
<g id="edge25_Node000012_Node000023" class="edge">
<title>Node12&#45;&gt;Node23</title>
<g id="a_edge25_Node000012_Node000023"><a xlink:title=" ">
<path fill="none" stroke="#63b8ff" d="M2457.81,-146.29C2285.5,-146.45 1787.52,-142.51 1377,-96 1368.06,-94.99 1358.73,-93.67 1349.48,-92.19"/>
<polygon fill="#63b8ff" stroke="#63b8ff" points="1349.94,-88.72 1339.5,-90.53 1348.79,-95.62 1349.94,-88.72"/>
</a>
</g>
</g>
<!-- Node25 -->
<g id="Node000025" class="node">
<title>Node25</title>
<g id="a_Node000025"><a xlink:href="_encrypt_status_enum_8hpp.html" target="_top" xlink:title=" ">
<polygon fill="white" stroke="#666666" points="3328,-90.5 3156,-90.5 3156,-60.5 3328,-60.5 3328,-90.5"/>
<text text-anchor="start" x="3164" y="-78.5" font-family="Helvetica,sans-Serif" font-size="10.00">Hermes/_base/WinApi</text>
<text text-anchor="middle" x="3242" y="-67.5" font-family="Helvetica,sans-Serif" font-size="10.00">/Enums/EncryptStatusEnum.hpp</text>
</a>
</g>
</g>
<!-- Node12&#45;&gt;Node25 -->
<g id="edge27_Node000012_Node000025" class="edge">
<title>Node12&#45;&gt;Node25</title>
<g id="a_edge27_Node000012_Node000025"><a xlink:title=" ">
<path fill="none" stroke="#63b8ff" d="M2582.13,-143.58C2695.06,-138.61 2941.31,-125.2 3147,-96 3154.16,-94.98 3161.6,-93.76 3169.01,-92.42"/>
<polygon fill="#63b8ff" stroke="#63b8ff" points="3169.89,-95.82 3179.08,-90.55 3168.61,-88.94 3169.89,-95.82"/>
</a>
</g>
</g>
<!-- Node27 -->
<g id="Node000027" class="node">
<title>Node27</title>
<g id="a_Node000027"><a xlink:href="_protocol_base_type_enum_8hpp.html" target="_top" xlink:title=" ">
<polygon fill="white" stroke="#666666" points="1156.5,-90.5 965.5,-90.5 965.5,-60.5 1156.5,-60.5 1156.5,-90.5"/>
<text text-anchor="start" x="973.5" y="-78.5" font-family="Helvetica,sans-Serif" font-size="10.00">Hermes/_base/WinApi</text>
<text text-anchor="middle" x="1061" y="-67.5" font-family="Helvetica,sans-Serif" font-size="10.00">/Enums/ProtocolBaseTypeEnum.hpp</text>
</a>
</g>
</g>
<!-- Node12&#45;&gt;Node27 -->
<g id="edge29_Node000012_Node000027" class="edge">
<title>Node12&#45;&gt;Node27</title>
<g id="a_edge29_Node000012_Node000027"><a xlink:title=" ">
<path fill="none" stroke="#63b8ff" d="M2457.79,-144.92C2227.21,-140.71 1421.43,-124.28 1166,-96 1157,-95 1147.61,-93.68 1138.31,-92.18"/>
<polygon fill="#63b8ff" stroke="#63b8ff" points="1138.72,-88.7 1128.28,-90.51 1137.57,-95.61 1138.72,-88.7"/>
</a>
</g>
</g>
<!-- Node28 -->
<g id="Node000028" class="node">
<title>Node28</title>
<g id="a_Node000028"><a xlink:href="_s_ch_cred_enum_8hpp.html" target="_top" xlink:title=" ">
<polygon fill="white" stroke="#666666" points="3492,-90.5 3346,-90.5 3346,-60.5 3492,-60.5 3492,-90.5"/>
<text text-anchor="start" x="3354" y="-78.5" font-family="Helvetica,sans-Serif" font-size="10.00">Hermes/_base/WinApi</text>
<text text-anchor="middle" x="3419" y="-67.5" font-family="Helvetica,sans-Serif" font-size="10.00">/Enums/SChCredEnum.hpp</text>
</a>
</g>
</g>
<!-- Node12&#45;&gt;Node28 -->
<g id="edge31_Node000012_Node000028" class="edge">
<title>Node12&#45;&gt;Node28</title>
<g id="a_edge31_Node000012_Node000028"><a xlink:title=" ">
<path fill="none" stroke="#63b8ff" d="M2582.13,-145.84C2719.18,-144.69 3057.45,-137.48 3337,-96 3343.17,-95.08 3349.57,-93.93 3355.94,-92.65"/>
<polygon fill="#63b8ff" stroke="#63b8ff" points="3356.83,-96.04 3365.89,-90.54 3355.38,-89.19 3356.83,-96.04"/>
</a>
</g>
</g>
<!-- Node29 -->
<g id="Node000029" class="node">
<title>Node29</title>
<g id="a_Node000029"><a xlink:href="_security_buffer_enum_8hpp.html" target="_top" xlink:title=" ">
<polygon fill="white" stroke="#666666" points="2606.5,-90.5 2433.5,-90.5 2433.5,-60.5 2606.5,-60.5 2606.5,-90.5"/>
<text text-anchor="start" x="2441.5" y="-78.5" font-family="Helvetica,sans-Serif" font-size="10.00">Hermes/_base/WinApi</text>
<text text-anchor="middle" x="2520" y="-67.5" font-family="Helvetica,sans-Serif" font-size="10.00">/Enums/SecurityBufferEnum.hpp</text>
</a>
</g>
</g>
<!-- Node12&#45;&gt;Node29 -->
<g id="edge33_Node000012_Node000029" class="edge">
<title>Node12&#45;&gt;Node29</title>
<g id="a_edge33_Node000012_Node000029"><a xlink:title=" ">
<path fill="none" stroke="#63b8ff" d="M2520,-131.94C2520,-122.99 2520,-111.16 2520,-100.73"/>
<polygon fill="#63b8ff" stroke="#63b8ff" points="2523.5,-100.54 2520,-90.54 2516.5,-100.54 2523.5,-100.54"/>
</a>
</g>
</g>
<!-- Node30 -->
<g id="Node000030" class="node">
<title>Node30</title>
<g id="a_Node000030"><a xlink:href="_socket_shutdown_enum_8hpp.html" target="_top" xlink:title=" ">
<polygon fill="white" stroke="#666666" points="1747.5,-90.5 1562.5,-90.5 1562.5,-60.5 1747.5,-60.5 1747.5,-90.5"/>
<text text-anchor="start" x="1570.5" y="-78.5" font-family="Helvetica,sans-Serif" font-size="10.00">Hermes/_base/WinApi</text>
<text text-anchor="middle" x="1655" y="-67.5" font-family="Helvetica,sans-Serif" font-size="10.00">/Enums/SocketShutdownEnum.hpp</text>
</a>
</g>
</g>
<!-- Node12&#45;&gt;Node30 -->
<g id="edge35_Node000012_Node000030" class="edge">
<title>Node12&#45;&gt;Node30</title>
<g id="a_edge35_Node000012_Node000030"><a xlink:title=" ">
<path fill="none" stroke="#63b8ff" d="M2457.94,-144.53C2327.61,-140.87 2016.08,-129.12 1757,-96 1748.84,-94.96 1740.34,-93.67 1731.9,-92.25"/>
<polygon fill="#63b8ff" stroke="#63b8ff" points="1732.47,-88.8 1722.02,-90.53 1731.28,-95.69 1732.47,-88.8"/>
</a>
</g>
</g>
<!-- Node31 -->
<g id="Node000031" class="node">
<title>Node31</title>
<g id="a_Node000031"><a xlink:href="_socket_type_enum_8hpp.html" target="_top" xlink:title=" ">
<polygon fill="white" stroke="#666666" points="1544.5,-90.5 1385.5,-90.5 1385.5,-60.5 1544.5,-60.5 1544.5,-90.5"/>
<text text-anchor="start" x="1393.5" y="-78.5" font-family="Helvetica,sans-Serif" font-size="10.00">Hermes/_base/WinApi</text>
<text text-anchor="middle" x="1465" y="-67.5" font-family="Helvetica,sans-Serif" font-size="10.00">/Enums/SocketTypeEnum.hpp</text>
</a>
</g>
</g>
<!-- Node12&#45;&gt;Node31 -->
<g id="edge37_Node000012_Node000031" class="edge">
<title>Node12&#45;&gt;Node31</title>
<g id="a_edge37_Node000012_Node000031"><a xlink:title=" ">
<path fill="none" stroke="#63b8ff" d="M2457.8,-146.3C2303.84,-146.29 1892.9,-141.58 1554,-96 1547.15,-95.08 1540.05,-93.9 1532.98,-92.59"/>
<polygon fill="#63b8ff" stroke="#63b8ff" points="1533.17,-89.06 1522.68,-90.58 1531.83,-95.93 1533.17,-89.06"/>
</a>
</g>
</g>
<!-- Node32 -->
<g id="Node000032" class="node">
<title>Node32</title>
<g id="a_Node000032"><a xlink:href="_credential_flags_8hpp.html" target="_top" xlink:title=" ">
<polygon fill="white" stroke="#666666" points="2771,-90.5 2625,-90.5 2625,-60.5 2771,-60.5 2771,-90.5"/>
<text text-anchor="start" x="2633" y="-78.5" font-family="Helvetica,sans-Serif" font-size="10.00">Hermes/_base/WinApi</text>
<text text-anchor="middle" x="2698" y="-67.5" font-family="Helvetica,sans-Serif" font-size="10.00">/Flags/CredentialFlags.hpp</text>
</a>
</g>
</g>
<!-- Node12&#45;&gt;Node32 -->
<g id="edge39_Node000012_Node000032" class="edge">
<title>Node12&#45;&gt;Node32</title>
<g id="a_edge39_Node000012_Node000032"><a xlink:title=" ">
<path fill="none" stroke="#63b8ff" d="M2556.02,-131.94C2583.89,-121.06 2622.65,-105.92 2652.63,-94.21"/>
<polygon fill="#63b8ff" stroke="#63b8ff" points="2653.99,-97.44 2662.03,-90.54 2651.44,-90.92 2653.99,-97.44"/>
</a>
</g>
</g>
<!-- Node33 -->
<g id="Node000033" class="node">
<title>Node33</title>
<g id="a_Node000033"><a xlink:href="_supported_protocols_flags_8hpp.html" target="_top" xlink:title=" ">
<polygon fill="white" stroke="#666666" points="3883.5,-90.5 3692.5,-90.5 3692.5,-60.5 3883.5,-60.5 3883.5,-90.5"/>
<text text-anchor="start" x="3700.5" y="-78.5" font-family="Helvetica,sans-Serif" font-size="10.00">Hermes/_base/WinApi</text>
<text text-anchor="middle" x="3788" y="-67.5" font-family="Helvetica,sans-Serif" font-size="10.00">/Flags/SupportedProtocolsFlags.hpp</text>
</a>
</g>
</g>
<!-- Node12&#45;&gt;Node33 -->
<g id="edge41_Node000012_Node000033" class="edge">
<title>Node12&#45;&gt;Node33</title>
<g id="a_edge41_Node000012_Node000033"><a xlink:title=" ">
<path fill="none" stroke="#63b8ff" d="M2582.02,-146.39C2756.18,-146.84 3264.33,-143.64 3683,-96 3691.86,-94.99 3701.1,-93.67 3710.26,-92.2"/>
<polygon fill="#63b8ff" stroke="#63b8ff" points="3710.86,-95.65 3720.15,-90.54 3709.71,-88.74 3710.86,-95.65"/>
</a>
</g>
</g>
<!-- Node34 -->
<g id="Node000034" class="node">
<title>Node34</title>
<g id="a_Node000034"><a xlink:href="_initialize_security_context_flags_8hpp.html" target="_top" xlink:title=" ">
<polygon fill="white" stroke="#666666" points="2958.5,-96 2789.5,-96 2789.5,-55 2958.5,-55 2958.5,-96"/>
<text text-anchor="start" x="2797.5" y="-84" font-family="Helvetica,sans-Serif" font-size="10.00">Hermes/_base/WinApi</text>
<text text-anchor="start" x="2797.5" y="-73" font-family="Helvetica,sans-Serif" font-size="10.00">/Flags/InitializeSecurityContext</text>
<text text-anchor="middle" x="2874" y="-62" font-family="Helvetica,sans-Serif" font-size="10.00">Flags.hpp</text>
</a>
</g>
</g>
<!-- Node12&#45;&gt;Node34 -->
<g id="edge43_Node000012_Node000034" class="edge">
<title>Node12&#45;&gt;Node34</title>
<g id="a_edge43_Node000012_Node000034"><a xlink:title=" ">
<path fill="none" stroke="#63b8ff" d="M2582.04,-134.33C2632.48,-124.79 2705.76,-110.78 2779.52,-96.08"/>
<polygon fill="#63b8ff" stroke="#63b8ff" points="2780.34,-99.49 2789.46,-94.1 2778.97,-92.62 2780.34,-99.49"/>
</a>
</g>
</g>
<!-- Node35 -->
<g id="Node000035" class="node">
<title>Node35</title>
<g id="a_Node000035"><a xlink:href="_initialize_security_context_return_flags_8hpp.html" target="_top" xlink:title=" ">
<polygon fill="white" stroke="#666666" points="2328.5,-96 2159.5,-96 2159.5,-55 2328.5,-55 2328.5,-96"/>
<text text-anchor="start" x="2167.5" y="-84" font-family="Helvetica,sans-Serif" font-size="10.00">Hermes/_base/WinApi</text>
<text text-anchor="start" x="2167.5" y="-73" font-family="Helvetica,sans-Serif" font-size="10.00">/Flags/InitializeSecurityContext</text>
<text text-anchor="middle" x="2244" y="-62" font-family="Helvetica,sans-Serif" font-size="10.00">ReturnFlags.hpp</text>
</a>
</g>
</g>
<!-- Node12&#45;&gt;Node35 -->
<g id="edge45_Node000012_Node000035" class="edge">
<title>Node12&#45;&gt;Node35</title>
<g id="a_edge45_Node000012_Node000035"><a xlink:title=" ">
<path fill="none" stroke="#63b8ff" d="M2464.15,-131.94C2426,-122.33 2374.68,-109.41 2331.19,-98.46"/>
<polygon fill="#63b8ff" stroke="#63b8ff" points="2332.02,-95.06 2321.47,-96.01 2330.31,-101.84 2332.02,-95.06"/>
</a>
</g>
</g>
<!-- Node36 -->
<g id="Node000036" class="node">
<title>Node36</title>
<g id="a_Node000036"><a xlink:href="_accept_security_context_flags_8hpp.html" target="_top" xlink:title=" ">
<polygon fill="white" stroke="#666666" points="1926,-96 1766,-96 1766,-55 1926,-55 1926,-96"/>
<text text-anchor="start" x="1774" y="-84" font-family="Helvetica,sans-Serif" font-size="10.00">Hermes/_base/WinApi</text>
<text text-anchor="start" x="1774" y="-73" font-family="Helvetica,sans-Serif" font-size="10.00">/Flags/AcceptSecurityContext</text>
<text text-anchor="middle" x="1846" y="-62" font-family="Helvetica,sans-Serif" font-size="10.00">Flags.hpp</text>
</a>
</g>
</g>
<!-- Node12&#45;&gt;Node36 -->
<g id="edge47_Node000012_Node000036" class="edge">
<title>Node12&#45;&gt;Node36</title>
<g id="a_edge47_Node000012_Node000036"><a xlink:title=" ">
<path fill="none" stroke="#63b8ff" d="M2457.78,-143.35C2352.38,-138.28 2131.92,-125.15 1936.61,-96.14"/>
<polygon fill="#63b8ff" stroke="#63b8ff" points="1936.85,-92.64 1926.44,-94.62 1935.81,-99.56 1936.85,-92.64"/>
</a>
</g>
</g>
<!-- Node37 -->
<g id="Node000037" class="node">
<title>Node37</title>
<g id="a_Node000037"><a xlink:href="_accept_security_context_return_flags_8hpp.html" target="_top" xlink:title=" ">
<polygon fill="white" stroke="#666666" points="2104,-96 1944,-96 1944,-55 2104,-55 2104,-96"/>
<text text-anchor="start" x="1952" y="-84" font-family="Helvetica,sans-Serif" font-size="10.00">Hermes/_base/WinApi</text>
<text text-anchor="start" x="1952" y="-73" font-family="Helvetica,sans-Serif" font-size="10.00">/Flags/AcceptSecurityContext</text>
<text text-anchor="middle" x="2024" y="-62" font-family="Helvetica,sans-Serif" font-size="10.00">ReturnFlags.hpp</text>
</a>
</g>
</g>
<!-- Node12&#45;&gt;Node37 -->
<g id="edge49_Node000012_Node000037" class="edge">
<title>Node12&#45;&gt;Node37</title>
<g id="a_edge49_Node000012_Node000037"><a xlink:title=" ">
<path fill="none" stroke="#63b8ff" d="M2457.8,-139.84C2378.6,-131.63 2237.69,-115.82 2118,-96 2116.73,-95.79 2115.45,-95.57 2114.16,-95.35"/>
<polygon fill="#63b8ff" stroke="#63b8ff" points="2114.63,-91.88 2104.17,-93.58 2113.41,-98.77 2114.63,-91.88"/>
</a>
</g>
</g>
<!-- Node38 -->
<g id="Node000038" class="node">
<title>Node38</title>
<g id="a_Node000038"><a xlink:href="_s_channel_cred_flags_8hpp.html" target="_top" xlink:title=" ">
<polygon fill="white" stroke="#666666" points="3674,-90.5 3510,-90.5 3510,-60.5 3674,-60.5 3674,-90.5"/>
<text text-anchor="start" x="3518" y="-78.5" font-family="Helvetica,sans-Serif" font-size="10.00">Hermes/_base/WinApi</text>
<text text-anchor="middle" x="3592" y="-67.5" font-family="Helvetica,sans-Serif" font-size="10.00">/Flags/SChannelCredFlags.hpp</text>
</a>
</g>
</g>
<!-- Node12&#45;&gt;Node38 -->
<g id="edge51_Node000012_Node000038" class="edge">
<title>Node12&#45;&gt;Node38</title>
<g id="a_edge51_Node000012_Node000038"><a xlink:title=" ">
<path fill="none" stroke="#63b8ff" d="M2582.01,-146.27C2737.42,-146.22 3155.88,-141.47 3501,-96 3508.16,-95.06 3515.59,-93.85 3522.98,-92.5"/>
<polygon fill="#63b8ff" stroke="#63b8ff" points="3523.85,-95.9 3533.01,-90.58 3522.53,-89.02 3523.85,-95.9"/>
</a>
</g>
</g>
<!-- Node18 -->
<g id="Node000018" class="node">
<title>Node18</title>
<g id="a_Node000018"><a xlink:title=" ">
<polygon fill="#e0e0e0" stroke="#999999" points="4091,-19 4041,-19 4041,0 4091,0 4091,-19"/>
<text text-anchor="middle" x="4066" y="-7" font-family="Helvetica,sans-Serif" font-size="10.00">cstdint</text>
</a>
</g>
</g>
<!-- Node17&#45;&gt;Node18 -->
<g id="edge17_Node000017_Node000018" class="edge">
<title>Node17&#45;&gt;Node18</title>
<g id="a_edge17_Node000017_Node000018"><a xlink:title=" ">
<path fill="none" stroke="#63b8ff" d="M4026.32,-60.3C4034.11,-50.51 4044.5,-37.48 4052.69,-27.2"/>
<polygon fill="#63b8ff" stroke="#63b8ff" points="4055.46,-29.35 4058.95,-19.34 4049.98,-24.98 4055.46,-29.35"/>
</a>
</g>
</g>
<!-- Node19&#45;&gt;Node14 -->
<g id="edge20_Node000019_Node000014" class="edge">
<title>Node19&#45;&gt;Node14</title>
<g id="a_edge20_Node000019_Node000014"><a xlink:title=" ">
<path fill="none" stroke="#63b8ff" d="M3056.03,-60.3C3041.36,-49.87 3021.49,-35.74 3006.66,-25.19"/>
<polygon fill="#63b8ff" stroke="#63b8ff" points="3008.35,-22.1 2998.18,-19.16 3004.3,-27.81 3008.35,-22.1"/>
</a>
</g>
</g>
<!-- Node19&#45;&gt;Node15 -->
<g id="edge21_Node000019_Node000015" class="edge">
<title>Node19&#45;&gt;Node15</title>
<g id="a_edge21_Node000019_Node000015"><a xlink:title=" ">
<path fill="none" stroke="#63b8ff" d="M3122.72,-60.47C3130.76,-58.4 3139.08,-56.47 3147,-55 3291.83,-28.07 3466.41,-16.61 3547.1,-12.49"/>
<polygon fill="#63b8ff" stroke="#63b8ff" points="3547.57,-15.97 3557.38,-11.98 3547.22,-8.98 3547.57,-15.97"/>
</a>
</g>
</g>
<!-- Node19&#45;&gt;Node16 -->
<g id="edge22_Node000019_Node000016" class="edge">
<title>Node19&#45;&gt;Node16</title>
<g id="a_edge22_Node000019_Node000016"><a xlink:title=" ">
<path fill="none" stroke="#63b8ff" d="M3013.92,-62.16C2998.93,-59.5 2982.93,-56.91 2968,-55 2758.18,-28.16 2503.87,-15.61 2414.75,-11.8"/>
<polygon fill="#63b8ff" stroke="#63b8ff" points="2414.85,-8.31 2404.71,-11.38 2414.55,-15.3 2414.85,-8.31"/>
</a>
</g>
</g>
<!-- Node20 -->
<g id="Node000020" class="node">
<title>Node20</title>
<g id="a_Node000020"><a xlink:title=" ">
<polygon fill="#e0e0e0" stroke="#999999" points="3112.5,-19 3039.5,-19 3039.5,0 3112.5,0 3112.5,-19"/>
<text text-anchor="middle" x="3076" y="-7" font-family="Helvetica,sans-Serif" font-size="10.00">string_view</text>
</a>
</g>
</g>
<!-- Node19&#45;&gt;Node20 -->
<g id="edge19_Node000019_Node000020" class="edge">
<title>Node19&#45;&gt;Node20</title>
<g id="a_edge19_Node000019_Node000020"><a xlink:title=" ">
<path fill="none" stroke="#63b8ff" d="M3076,-60.3C3076,-51.2 3076,-39.29 3076,-29.4"/>
<polygon fill="#63b8ff" stroke="#63b8ff" points="3079.5,-29.34 3076,-19.34 3072.5,-29.34 3079.5,-29.34"/>
</a>
</g>
</g>
<!-- Node22 -->
<g id="Node000022" class="node">
<title>Node22</title>
<g id="a_Node000022"><a xlink:title=" ">
<polygon fill="#e0e0e0" stroke="#999999" points="990,-19 930,-19 930,0 990,0 990,-19"/>
<text text-anchor="middle" x="960" y="-7" font-family="Helvetica,sans-Serif" font-size="10.00">ws2def.h</text>
</a>
</g>
</g>
<!-- Node21&#45;&gt;Node22 -->
<g id="edge24_Node000021_Node000022" class="edge">
<title>Node21&#45;&gt;Node22</title>
<g id="a_edge24_Node000021_Node000022"><a xlink:title=" ">
<path fill="none" stroke="#63b8ff" d="M881.42,-60.3C898.19,-49.67 921.01,-35.2 937.75,-24.6"/>
<polygon fill="#63b8ff" stroke="#63b8ff" points="939.76,-27.47 946.34,-19.16 936.02,-21.55 939.76,-27.47"/>
</a>
</g>
</g>
<!-- Node24 -->
<g id="Node000024" class="node">
<title>Node24</title>
<g id="a_Node000024"><a xlink:title=" ">
<polygon fill="#e0e0e0" stroke="#999999" points="1502,-19 1428,-19 1428,0 1502,0 1502,-19"/>
<text text-anchor="middle" x="1465" y="-7" font-family="Helvetica,sans-Serif" font-size="10.00">WinSock2.h</text>
</a>
</g>
</g>
<!-- Node23&#45;&gt;Node24 -->
<g id="edge26_Node000023_Node000024" class="edge">
<title>Node23&#45;&gt;Node24</title>
<g id="a_edge26_Node000023_Node000024"><a xlink:title=" ">
<path fill="none" stroke="#63b8ff" d="M1313.57,-60.45C1348.35,-48.98 1396.91,-32.96 1429.59,-22.18"/>
<polygon fill="#63b8ff" stroke="#63b8ff" points="1430.78,-25.47 1439.18,-19.02 1428.59,-18.83 1430.78,-25.47"/>
</a>
</g>
</g>
<!-- Node26 -->
<g id="Node000026" class="node">
<title>Node26</title>
<g id="a_Node000026"><a xlink:title=" ">
<polygon fill="#e0e0e0" stroke="#999999" points="3274.5,-19 3209.5,-19 3209.5,0 3274.5,0 3274.5,-19"/>
<text text-anchor="middle" x="3242" y="-7" font-family="Helvetica,sans-Serif" font-size="10.00">winerror.h</text>
</a>
</g>
</g>
<!-- Node25&#45;&gt;Node26 -->
<g id="edge28_Node000025_Node000026" class="edge">
<title>Node25&#45;&gt;Node26</title>
<g id="a_edge28_Node000025_Node000026"><a xlink:title=" ">
<path fill="none" stroke="#63b8ff" d="M3242,-60.3C3242,-51.2 3242,-39.29 3242,-29.4"/>
<polygon fill="#63b8ff" stroke="#63b8ff" points="3245.5,-29.34 3242,-19.34 3238.5,-29.34 3245.5,-29.34"/>
</a>
</g>
</g>
<!-- Node27&#45;&gt;Node22 -->
<g id="edge30_Node000027_Node000022" class="edge">
<title>Node27&#45;&gt;Node22</title>
<g id="a_edge30_Node000027_Node000022"><a xlink:title=" ">
<path fill="none" stroke="#63b8ff" d="M1038.58,-60.3C1021.81,-49.67 998.99,-35.2 982.25,-24.6"/>
<polygon fill="#63b8ff" stroke="#63b8ff" points="983.98,-21.55 973.66,-19.16 980.24,-27.47 983.98,-21.55"/>
</a>
</g>
</g>
<!-- Node28&#45;&gt;Node15 -->
<g id="edge32_Node000028_Node000015" class="edge">
<title>Node28&#45;&gt;Node15</title>
<g id="a_edge32_Node000028_Node000015"><a xlink:title=" ">
<path fill="none" stroke="#63b8ff" d="M3456.97,-60.45C3487.57,-49.13 3530.17,-33.38 3559.28,-22.6"/>
<polygon fill="#63b8ff" stroke="#63b8ff" points="3560.81,-25.77 3568.98,-19.02 3558.38,-19.2 3560.81,-25.77"/>
</a>
</g>
</g>
<!-- Node29&#45;&gt;Node16 -->
<g id="edge34_Node000029_Node000016" class="edge">
<title>Node29&#45;&gt;Node16</title>
<g id="a_edge34_Node000029_Node000016"><a xlink:title=" ">
<path fill="none" stroke="#63b8ff" d="M2489.72,-60.45C2465.83,-49.38 2432.8,-34.06 2409.64,-23.32"/>
<polygon fill="#63b8ff" stroke="#63b8ff" points="2410.91,-20.05 2400.37,-19.02 2407.96,-26.4 2410.91,-20.05"/>
</a>
</g>
</g>
<!-- Node30&#45;&gt;Node24 -->
<g id="edge36_Node000030_Node000024" class="edge">
<title>Node30&#45;&gt;Node24</title>
<g id="a_edge36_Node000030_Node000024"><a xlink:title=" ">
<path fill="none" stroke="#63b8ff" d="M1613.3,-60.45C1579.4,-49.03 1532.09,-33.1 1500.1,-22.32"/>
<polygon fill="#63b8ff" stroke="#63b8ff" points="1500.88,-18.89 1490.29,-19.02 1498.65,-25.53 1500.88,-18.89"/>
</a>
</g>
</g>
<!-- Node31&#45;&gt;Node24 -->
<g id="edge38_Node000031_Node000024" class="edge">
<title>Node31&#45;&gt;Node24</title>
<g id="a_edge38_Node000031_Node000024"><a xlink:title=" ">
<path fill="none" stroke="#63b8ff" d="M1465,-60.3C1465,-51.2 1465,-39.29 1465,-29.4"/>
<polygon fill="#63b8ff" stroke="#63b8ff" points="1468.5,-29.34 1465,-19.34 1461.5,-29.34 1468.5,-29.34"/>
</a>
</g>
</g>
<!-- Node32&#45;&gt;Node16 -->
<g id="edge40_Node000032_Node000016" class="edge">
<title>Node32&#45;&gt;Node16</title>
<g id="a_edge40_Node000032_Node000016"><a xlink:title=" ">
<path fill="none" stroke="#63b8ff" d="M2640.28,-60.43C2632.14,-58.54 2623.87,-56.68 2616,-55 2544.49,-39.71 2460.13,-24.31 2414.78,-16.25"/>
<polygon fill="#63b8ff" stroke="#63b8ff" points="2415.12,-12.75 2404.66,-14.45 2413.89,-19.65 2415.12,-12.75"/>
</a>
</g>
</g>
<!-- Node33&#45;&gt;Node15 -->
<g id="edge42_Node000033_Node000015" class="edge">
<title>Node33&#45;&gt;Node15</title>
<g id="a_edge42_Node000033_Node000015"><a xlink:title=" ">
<path fill="none" stroke="#63b8ff" d="M3744.99,-60.45C3709.86,-48.98 3660.79,-32.96 3627.78,-22.18"/>
<polygon fill="#63b8ff" stroke="#63b8ff" points="3628.68,-18.79 3618.08,-19.02 3626.5,-25.45 3628.68,-18.79"/>
</a>
</g>
</g>
<!-- Node34&#45;&gt;Node16 -->
<g id="edge44_Node000034_Node000016" class="edge">
<title>Node34&#45;&gt;Node16</title>
<g id="a_edge44_Node000034_Node000016"><a xlink:title=" ">
<path fill="none" stroke="#63b8ff" d="M2789.26,-56.54C2786.14,-56 2783.04,-55.48 2780,-55 2645.09,-33.51 2482.81,-18.79 2414.65,-13.11"/>
<polygon fill="#63b8ff" stroke="#63b8ff" points="2414.79,-9.61 2404.54,-12.28 2414.22,-16.59 2414.79,-9.61"/>
</a>
</g>
</g>
<!-- Node35&#45;&gt;Node16 -->
<g id="edge46_Node000035_Node000016" class="edge">
<title>Node35&#45;&gt;Node16</title>
<g id="a_edge46_Node000035_Node000016"><a xlink:title=" ">
<path fill="none" stroke="#63b8ff" d="M2286.15,-54.95C2308.26,-44.7 2334.72,-32.43 2354.23,-23.38"/>
<polygon fill="#63b8ff" stroke="#63b8ff" points="2355.87,-26.47 2363.47,-19.09 2352.93,-20.12 2355.87,-26.47"/>
</a>
</g>
</g>
<!-- Node36&#45;&gt;Node16 -->
<g id="edge48_Node000036_Node000016" class="edge">
<title>Node36&#45;&gt;Node16</title>
<g id="a_edge48_Node000036_Node000016"><a xlink:title=" ">
<path fill="none" stroke="#63b8ff" d="M1926.45,-56.43C1929.33,-55.93 1932.19,-55.45 1935,-55 2088.8,-30.58 2274.63,-17.18 2348.95,-12.47"/>
<polygon fill="#63b8ff" stroke="#63b8ff" points="2349.32,-15.95 2359.09,-11.84 2348.89,-8.97 2349.32,-15.95"/>
</a>
</g>
</g>
<!-- Node37&#45;&gt;Node16 -->
<g id="edge50_Node000037_Node000016" class="edge">
<title>Node37&#45;&gt;Node16</title>
<g id="a_edge50_Node000037_Node000016"><a xlink:title=" ">
<path fill="none" stroke="#63b8ff" d="M2104.21,-57.65C2108.87,-56.74 2113.5,-55.85 2118,-55 2201.16,-39.37 2299.55,-23.47 2349.46,-15.58"/>
<polygon fill="#63b8ff" stroke="#63b8ff" points="2350.01,-19.04 2359.35,-14.02 2348.93,-12.12 2350.01,-19.04"/>
</a>
</g>
</g>
<!-- Node38&#45;&gt;Node15 -->
<g id="edge52_Node000038_Node000015" class="edge">
<title>Node38&#45;&gt;Node15</title>
<g id="a_edge52_Node000038_Node000015"><a xlink:title=" ">
<path fill="none" stroke="#63b8ff" d="M3592,-60.3C3592,-51.2 3592,-39.29 3592,-29.4"/>
<polygon fill="#63b8ff" stroke="#63b8ff" points="3595.5,-29.34 3592,-19.34 3588.5,-29.34 3595.5,-29.34"/>
</a>
</g>
</g>
<!-- Node41&#45;&gt;Node2 -->
<g id="edge59_Node000041_Node000002" class="edge">
<title>Node41&#45;&gt;Node2</title>
<g id="a_edge59_Node000041_Node000002"><a xlink:title=" ">
<path fill="none" stroke="#63b8ff" d="M1969.31,-323.49C1959.17,-321.75 1948.85,-320.18 1939,-319 1636.62,-282.85 1274.09,-275.92 1114.83,-274.7"/>
<polygon fill="#63b8ff" stroke="#63b8ff" points="1114.66,-271.19 1104.64,-274.62 1114.61,-278.19 1114.66,-271.19"/>
</a>
</g>
</g>
<!-- Node41&#45;&gt;Node7 -->
<g id="edge60_Node000041_Node000007" class="edge">
<title>Node41&#45;&gt;Node7</title>
<g id="a_edge60_Node000041_Node000007"><a xlink:title=" ">
<path fill="none" stroke="#63b8ff" d="M1969.41,-320.94C1808.96,-282.1 1407.94,-187.95 1068,-132 932.88,-109.76 890.42,-143.54 762,-96 758.37,-94.66 754.75,-92.77 751.36,-90.7"/>
<polygon fill="#63b8ff" stroke="#63b8ff" points="753.3,-87.79 743.08,-85.02 749.35,-93.56 753.3,-87.79"/>
</a>
</g>
</g>
<!-- Node41&#45;&gt;Node18 -->
<g id="edge61_Node000041_Node000018" class="edge">
<title>Node41&#45;&gt;Node18</title>
<g id="a_edge61_Node000041_Node000018"><a xlink:title=" ">
<path fill="none" stroke="#63b8ff" d="M2112.73,-335.59C2460.94,-320.72 3963.83,-248.03 4099,-96 4116.79,-76 4096.94,-45.36 4081.25,-26.7"/>
<polygon fill="#63b8ff" stroke="#63b8ff" points="4083.73,-24.22 4074.48,-19.06 4078.49,-28.86 4083.73,-24.22"/>
</a>
</g>
</g>
</g>
</svg>
