<?xml version="1.0" encoding="UTF-8" standalone="no"?>
<!DOCTYPE svg PUBLIC "-//W3C//DTD SVG 1.1//EN"
 "http://www.w3.org/Graphics/SVG/1.1/DTD/svg11.dtd">
<!-- Generated by graphviz version 2.43.0 (0)
 -->
<!-- Title: include/Hermes/Socket/_base/Transfer/TlsTransferStateMachine.hpp Pages: 1 -->
<svg width="3072pt" height="445pt"
 viewBox="0.00 0.00 3072.02 445.00" xmlns="http://www.w3.org/2000/svg" xmlns:xlink="http://www.w3.org/1999/xlink">
<g id="graph0" class="graph" transform="scale(1 1) rotate(0) translate(4 441)">
<title>include/Hermes/Socket/_base/Transfer/TlsTransferStateMachine.hpp</title>
<!-- Node1 -->
<g id="Node000001" class="node">
<title>Node1</title>
<g id="a_Node000001"><a xlink:title=" ">
<polygon fill="#999999" stroke="#666666" points="2253,-437 2107,-437 2107,-396 2253,-396 2253,-437"/>
<text text-anchor="start" x="2115" y="-425" font-family="Helvetica,sans-Serif" font-size="10.00">include/Hermes/Socket</text>
<text text-anchor="start" x="2115" y="-414" font-family="Helvetica,sans-Serif" font-size="10.00">/_base/Transfer/TlsTransfer</text>
<text text-anchor="middle" x="2180" y="-403" font-family="Helvetica,sans-Serif" font-size="10.00">StateMachine.hpp</text>
</a>
</g>
</g>
<!-- Node2 -->
<g id="Node000002" class="node">
<title>Node2</title>
<g id="a_Node000002"><a xlink:href="__base_8hpp.html" target="_top" xlink:title=" ">
<polygon fill="white" stroke="#666666" points="1030.5,-283 887.5,-283 887.5,-264 1030.5,-264 1030.5,-283"/>
<text text-anchor="middle" x="959" y="-271" font-family="Helvetica,sans-Serif" font-size="10.00">Hermes/Socket/_base.hpp</text>
</a>
</g>
</g>
<!-- Node1&#45;&gt;Node2 -->
<g id="edge1_Node000001_Node000002" class="edge">
<title>Node1&#45;&gt;Node2</title>
<g id="a_edge1_Node000001_Node000002"><a xlink:title=" ">
<path fill="none" stroke="#63b8ff" d="M2106.79,-411.09C1983.85,-403.32 1728.2,-385.53 1513,-360 1331.04,-338.42 1117.06,-302.33 1016.59,-284.75"/>
<polygon fill="#63b8ff" stroke="#63b8ff" points="1017.1,-281.29 1006.64,-283.01 1015.89,-288.18 1017.1,-281.29"/>
</a>
</g>
</g>
<!-- Node12 -->
<g id="Node000012" class="node">
<title>Node12</title>
<g id="a_Node000012"><a xlink:href="_os_api_8hpp.html" target="_top" xlink:title=" ">
<polygon fill="white" stroke="#666666" points="2142,-162 2024,-162 2024,-132 2142,-132 2142,-162"/>
<text text-anchor="start" x="2032" y="-150" font-family="Helvetica,sans-Serif" font-size="10.00">Hermes/_base/OsApi</text>
<text text-anchor="middle" x="2083" y="-139" font-family="Helvetica,sans-Serif" font-size="10.00">/OsApi.hpp</text>
</a>
</g>
</g>
<!-- Node1&#45;&gt;Node12 -->
<g id="edge41_Node000001_Node000012" class="edge">
<title>Node1&#45;&gt;Node12</title>
<g id="a_edge41_Node000001_Node000012"><a xlink:title=" ">
<path fill="none" stroke="#63b8ff" d="M2172.87,-395.83C2155.39,-347.64 2110.5,-223.84 2091.6,-171.7"/>
<polygon fill="#63b8ff" stroke="#63b8ff" points="2094.88,-170.48 2088.18,-162.28 2088.3,-172.87 2094.88,-170.48"/>
</a>
</g>
</g>
<!-- Node33 -->
<g id="Node000033" class="node">
<title>Node33</title>
<g id="a_Node000033"><a xlink:href="_i_tls_transfer_state_machine_8hpp.html" target="_top" xlink:title=" ">
<polygon fill="white" stroke="#666666" points="1664.5,-360 1521.5,-360 1521.5,-319 1664.5,-319 1664.5,-360"/>
<text text-anchor="start" x="1529.5" y="-348" font-family="Helvetica,sans-Serif" font-size="10.00">Hermes/Socket/_base</text>
<text text-anchor="start" x="1529.5" y="-337" font-family="Helvetica,sans-Serif" font-size="10.00">/Transfer/ITlsTransferState</text>
<text text-anchor="middle" x="1593" y="-326" font-family="Helvetica,sans-Serif" font-size="10.00">Machine.hpp</text>
</a>
</g>
</g>
<!-- Node1&#45;&gt;Node33 -->
<g id="edge42_Node000001_Node000033" class="edge">
<title>Node1&#45;&gt;Node33</title>
<g id="a_edge42_Node000001_Node000033"><a xlink:title=" ">
<path fill="none" stroke="#63b8ff" d="M2106.84,-406.15C1996.91,-392.11 1789.78,-365.64 1674.92,-350.97"/>
<polygon fill="#63b8ff" stroke="#63b8ff" points="1675.14,-347.47 1664.78,-349.67 1674.25,-354.41 1675.14,-347.47"/>
</a>
</g>
</g>
<!-- Node34 -->
<g id="Node000034" class="node">
<title>Node34</title>
<g id="a_Node000034"><a xlink:title=" ">
<polygon fill="#e0e0e0" stroke="#999999" points="2430,-360 2290,-360 2290,-319 2430,-319 2430,-360"/>
<text text-anchor="start" x="2298" y="-348" font-family="Helvetica,sans-Serif" font-size="10.00">Hermes/Socket/_base</text>
<text text-anchor="start" x="2298" y="-337" font-family="Helvetica,sans-Serif" font-size="10.00">/Transfer/TlsTransferState</text>
<text text-anchor="middle" x="2360" y="-326" font-family="Helvetica,sans-Serif" font-size="10.00">Machine.tpp</text>
</a>
</g>
</g>
<!-- Node1&#45;&gt;Node34 -->
<g id="edge46_Node000001_Node000034" class="edge">
<title>Node1&#45;&gt;Node34</title>
<g id="a_edge46_Node000001_Node000034"><a xlink:title=" ">
<path fill="none" stroke="#63b8ff" d="M2226.82,-395.99C2250.38,-386.18 2279.1,-374.21 2303.83,-363.9"/>
<polygon fill="#63b8ff" stroke="#63b8ff" points="2305.21,-367.12 2313.1,-360.04 2302.52,-360.66 2305.21,-367.12"/>
</a>
</g>
</g>
<!-- Node3 -->
<g id="Node000003" class="node">
<title>Node3</title>
<g id="a_Node000003"><a xlink:href="_endpoint_concept_8hpp.html" target="_top" xlink:title=" ">
<polygon fill="white" stroke="#666666" points="1119,-228 987,-228 987,-198 1119,-198 1119,-228"/>
<text text-anchor="start" x="995" y="-216" font-family="Helvetica,sans-Serif" font-size="10.00">Hermes/Endpoint/_base</text>
<text text-anchor="middle" x="1053" y="-205" font-family="Helvetica,sans-Serif" font-size="10.00">/EndpointConcept.hpp</text>
</a>
</g>
</g>
<!-- Node2&#45;&gt;Node3 -->
<g id="edge2_Node000002_Node000003" class="edge">
<title>Node2&#45;&gt;Node3</title>
<g id="a_edge2_Node000002_Node000003"><a xlink:title=" ">
<path fill="none" stroke="#63b8ff" d="M972.87,-263.87C985.62,-255.93 1005,-243.87 1021.51,-233.6"/>
<polygon fill="#63b8ff" stroke="#63b8ff" points="1023.68,-236.37 1030.32,-228.11 1019.98,-230.43 1023.68,-236.37"/>
</a>
</g>
</g>
<!-- Node4 -->
<g id="Node000004" class="node">
<title>Node4</title>
<g id="a_Node000004"><a xlink:href="_connection_error_enum_8hpp.html" target="_top" xlink:title=" ">
<polygon fill="white" stroke="#666666" points="600.5,-162 433.5,-162 433.5,-132 600.5,-132 600.5,-162"/>
<text text-anchor="start" x="441.5" y="-150" font-family="Helvetica,sans-Serif" font-size="10.00">Hermes/_base/ConnectionError</text>
<text text-anchor="middle" x="517" y="-139" font-family="Helvetica,sans-Serif" font-size="10.00">Enum.hpp</text>
</a>
</g>
</g>
<!-- Node2&#45;&gt;Node4 -->
<g id="edge37_Node000002_Node000004" class="edge">
<title>Node2&#45;&gt;Node4</title>
<g id="a_edge37_Node000002_Node000004"><a xlink:title=" ">
<path fill="none" stroke="#63b8ff" d="M955.17,-263.79C947.6,-247.72 929.08,-213.63 902,-198 854,-170.3 708.83,-157.56 611.11,-151.98"/>
<polygon fill="#63b8ff" stroke="#63b8ff" points="611.1,-148.48 600.92,-151.42 610.72,-155.47 611.1,-148.48"/>
</a>
</g>
</g>
<!-- Node9 -->
<g id="Node000009" class="node">
<title>Node9</title>
<g id="a_Node000009"><a xlink:title=" ">
<polygon fill="#e0e0e0" stroke="#999999" points="694.5,-85 569.5,-85 569.5,-66 694.5,-66 694.5,-85"/>
<text text-anchor="middle" x="632" y="-73" font-family="Helvetica,sans-Serif" font-size="10.00">stdexec/execution.hpp</text>
</a>
</g>
</g>
<!-- Node2&#45;&gt;Node9 -->
<g id="edge38_Node000002_Node000009" class="edge">
<title>Node2&#45;&gt;Node9</title>
<g id="a_edge38_Node000002_Node000009"><a xlink:title=" ">
<path fill="none" stroke="#63b8ff" d="M958.03,-263.95C955.87,-248.74 949.32,-216.81 931,-198 893.29,-159.28 742.6,-109.91 670.64,-87.94"/>
<polygon fill="#63b8ff" stroke="#63b8ff" points="671.61,-84.58 661.03,-85.03 669.58,-91.28 671.61,-84.58"/>
</a>
</g>
</g>
<!-- Node31 -->
<g id="Node000031" class="node">
<title>Node31</title>
<g id="a_Node000031"><a xlink:title=" ">
<polygon fill="#e0e0e0" stroke="#999999" points="825,-222.5 765,-222.5 765,-203.5 825,-203.5 825,-222.5"/>
<text text-anchor="middle" x="795" y="-210.5" font-family="Helvetica,sans-Serif" font-size="10.00">concepts</text>
</a>
</g>
</g>
<!-- Node2&#45;&gt;Node31 -->
<g id="edge39_Node000002_Node000031" class="edge">
<title>Node2&#45;&gt;Node31</title>
<g id="a_edge39_Node000002_Node000031"><a xlink:title=" ">
<path fill="none" stroke="#63b8ff" d="M935.03,-263.99C909.86,-255.05 869.14,-240.56 834,-228 832.17,-227.35 830.29,-226.67 828.4,-226"/>
<polygon fill="#63b8ff" stroke="#63b8ff" points="829.52,-222.68 818.92,-222.6 827.15,-229.27 829.52,-222.68"/>
</a>
</g>
</g>
<!-- Node32 -->
<g id="Node000032" class="node">
<title>Node32</title>
<g id="a_Node000032"><a xlink:title=" ">
<polygon fill="#e0e0e0" stroke="#999999" points="893,-222.5 843,-222.5 843,-203.5 893,-203.5 893,-222.5"/>
<text text-anchor="middle" x="868" y="-210.5" font-family="Helvetica,sans-Serif" font-size="10.00">ranges</text>
</a>
</g>
</g>
<!-- Node2&#45;&gt;Node32 -->
<g id="edge40_Node000002_Node000032" class="edge">
<title>Node2&#45;&gt;Node32</title>
<g id="a_edge40_Node000002_Node000032"><a xlink:title=" ">
<path fill="none" stroke="#63b8ff" d="M945.57,-263.87C930.92,-254.45 907.24,-239.23 889.9,-228.08"/>
<polygon fill="#63b8ff" stroke="#63b8ff" points="891.79,-225.13 881.48,-222.67 888,-231.02 891.79,-225.13"/>
</a>
</g>
</g>
<!-- Node3&#45;&gt;Node4 -->
<g id="edge3_Node000003_Node000004" class="edge">
<title>Node3&#45;&gt;Node4</title>
<g id="a_edge3_Node000003_Node000004"><a xlink:title=" ">
<path fill="none" stroke="#63b8ff" d="M986.74,-204.09C892.31,-192.81 718.58,-172.07 610.92,-159.21"/>
<polygon fill="#63b8ff" stroke="#63b8ff" points="611.05,-155.71 600.71,-158 610.22,-162.66 611.05,-155.71"/>
</a>
</g>
</g>
<!-- Node3&#45;&gt;Node12 -->
<g id="edge11_Node000003_Node000012" class="edge">
<title>Node3&#45;&gt;Node12</title>
<g id="a_edge11_Node000003_Node000012"><a xlink:title=" ">
<path fill="none" stroke="#63b8ff" d="M1119.39,-207.87C1304.51,-196.37 1825.16,-164.02 2013.72,-152.3"/>
<polygon fill="#63b8ff" stroke="#63b8ff" points="2014.02,-155.79 2023.79,-151.68 2013.59,-148.81 2014.02,-155.79"/>
</a>
</g>
</g>
<!-- Node5 -->
<g id="Node000005" class="node">
<title>Node5</title>
<g id="a_Node000005"><a xlink:title=" ">
<polygon fill="#e0e0e0" stroke="#999999" points="399,-85 337,-85 337,-66 399,-66 399,-85"/>
<text text-anchor="middle" x="368" y="-73" font-family="Helvetica,sans-Serif" font-size="10.00">expected</text>
</a>
</g>
</g>
<!-- Node4&#45;&gt;Node5 -->
<g id="edge4_Node000004_Node000005" class="edge">
<title>Node4&#45;&gt;Node5</title>
<g id="a_edge4_Node000004_Node000005"><a xlink:title=" ">
<path fill="none" stroke="#63b8ff" d="M485.9,-131.97C464.05,-122.05 434.16,-108.37 408,-96 403.72,-93.98 399.2,-91.8 394.79,-89.67"/>
<polygon fill="#63b8ff" stroke="#63b8ff" points="396,-86.37 385.48,-85.13 392.94,-92.66 396,-86.37"/>
</a>
</g>
</g>
<!-- Node6 -->
<g id="Node000006" class="node">
<title>Node6</title>
<g id="a_Node000006"><a xlink:title=" ">
<polygon fill="#e0e0e0" stroke="#999999" points="464.5,-85 417.5,-85 417.5,-66 464.5,-66 464.5,-85"/>
<text text-anchor="middle" x="441" y="-73" font-family="Helvetica,sans-Serif" font-size="10.00">vector</text>
</a>
</g>
</g>
<!-- Node4&#45;&gt;Node6 -->
<g id="edge5_Node000004_Node000006" class="edge">
<title>Node4&#45;&gt;Node6</title>
<g id="a_edge5_Node000004_Node000006"><a xlink:title=" ">
<path fill="none" stroke="#63b8ff" d="M501.62,-131.94C488.98,-120.37 471.08,-104.01 458.01,-92.06"/>
<polygon fill="#63b8ff" stroke="#63b8ff" points="460.33,-89.43 450.59,-85.27 455.6,-94.6 460.33,-89.43"/>
</a>
</g>
</g>
<!-- Node7 -->
<g id="Node000007" class="node">
<title>Node7</title>
<g id="a_Node000007"><a xlink:title=" ">
<polygon fill="#e0e0e0" stroke="#999999" points="753,-85 713,-85 713,-66 753,-66 753,-85"/>
<text text-anchor="middle" x="733" y="-73" font-family="Helvetica,sans-Serif" font-size="10.00">span</text>
</a>
</g>
</g>
<!-- Node4&#45;&gt;Node7 -->
<g id="edge6_Node000004_Node000007" class="edge">
<title>Node4&#45;&gt;Node7</title>
<g id="a_edge6_Node000004_Node000007"><a xlink:title=" ">
<path fill="none" stroke="#63b8ff" d="M591.77,-131.97C626.79,-123.91 668.51,-112.13 704,-96 707.3,-94.5 710.65,-92.63 713.83,-90.66"/>
<polygon fill="#63b8ff" stroke="#63b8ff" points="715.88,-93.5 722.22,-85 711.97,-87.69 715.88,-93.5"/>
</a>
</g>
</g>
<!-- Node8 -->
<g id="Node000008" class="node">
<title>Node8</title>
<g id="a_Node000008"><a xlink:title=" ">
<polygon fill="#e0e0e0" stroke="#999999" points="551.5,-85 482.5,-85 482.5,-66 551.5,-66 551.5,-85"/>
<text text-anchor="middle" x="517" y="-73" font-family="Helvetica,sans-Serif" font-size="10.00">type_traits</text>
</a>
</g>
</g>
<!-- Node4&#45;&gt;Node8 -->
<g id="edge7_Node000004_Node000008" class="edge">
<title>Node4&#45;&gt;Node8</title>
<g id="a_edge7_Node000004_Node000008"><a xlink:title=" ">
<path fill="none" stroke="#63b8ff" d="M517,-131.94C517,-121.46 517,-107.05 517,-95.55"/>
<polygon fill="#63b8ff" stroke="#63b8ff" points="520.5,-95.27 517,-85.27 513.5,-95.27 520.5,-95.27"/>
</a>
</g>
</g>
<!-- Node4&#45;&gt;Node9 -->
<g id="edge8_Node000004_Node000009" class="edge">
<title>Node4&#45;&gt;Node9</title>
<g id="a_edge8_Node000004_Node000009"><a xlink:title=" ">
<path fill="none" stroke="#63b8ff" d="M540.27,-131.94C560.33,-119.81 589.12,-102.41 609.08,-90.35"/>
<polygon fill="#63b8ff" stroke="#63b8ff" points="611.07,-93.24 617.82,-85.07 607.45,-87.24 611.07,-93.24"/>
</a>
</g>
</g>
<!-- Node10 -->
<g id="Node000010" class="node">
<title>Node10</title>
<g id="a_Node000010"><a xlink:title=" ">
<polygon fill="#e0e0e0" stroke="#999999" points="134,-85 0,-85 0,-66 134,-66 134,-85"/>
<text text-anchor="middle" x="67" y="-73" font-family="Helvetica,sans-Serif" font-size="10.00">exec/any_sender_of.hpp</text>
</a>
</g>
</g>
<!-- Node4&#45;&gt;Node10 -->
<g id="edge9_Node000004_Node000010" class="edge">
<title>Node4&#45;&gt;Node10</title>
<g id="a_edge9_Node000004_Node000010"><a xlink:title=" ">
<path fill="none" stroke="#63b8ff" d="M433.36,-137.68C357.26,-129.44 242.03,-115.25 143,-96 131.11,-93.69 118.3,-90.63 106.66,-87.62"/>
<polygon fill="#63b8ff" stroke="#63b8ff" points="107.34,-84.18 96.77,-85.01 105.55,-90.95 107.34,-84.18"/>
</a>
</g>
</g>
<!-- Node11 -->
<g id="Node000011" class="node">
<title>Node11</title>
<g id="a_Node000011"><a xlink:title=" ">
<polygon fill="#e0e0e0" stroke="#999999" points="319.5,-90.5 152.5,-90.5 152.5,-60.5 319.5,-60.5 319.5,-90.5"/>
<text text-anchor="start" x="160.5" y="-78.5" font-family="Helvetica,sans-Serif" font-size="10.00">Hermes/_base/ConnectionError</text>
<text text-anchor="middle" x="236" y="-67.5" font-family="Helvetica,sans-Serif" font-size="10.00">Enum.tpp</text>
</a>
</g>
</g>
<!-- Node4&#45;&gt;Node11 -->
<g id="edge10_Node000004_Node000011" class="edge">
<title>Node4&#45;&gt;Node11</title>
<g id="a_edge10_Node000004_Node000011"><a xlink:title=" ">
<path fill="none" stroke="#63b8ff" d="M460.14,-131.94C414.62,-120.68 350.69,-104.87 302.75,-93.01"/>
<polygon fill="#63b8ff" stroke="#63b8ff" points="303.33,-89.55 292.78,-90.54 301.65,-96.34 303.33,-89.55"/>
</a>
</g>
</g>
<!-- Node13 -->
<g id="Node000013" class="node">
<title>Node13</title>
<g id="a_Node000013"><a xlink:title=" ">
<polygon fill="#e0e0e0" stroke="#999999" points="1731.5,-19 1654.5,-19 1654.5,0 1731.5,0 1731.5,-19"/>
<text text-anchor="middle" x="1693" y="-7" font-family="Helvetica,sans-Serif" font-size="10.00">sys/socket.h</text>
</a>
</g>
</g>
<!-- Node12&#45;&gt;Node13 -->
<g id="edge12_Node000012_Node000013" class="edge">
<title>Node12&#45;&gt;Node13</title>
<g id="a_edge12_Node000012_Node000013"><a xlink:title=" ">
<path fill="none" stroke="#63b8ff" d="M2023.95,-146.18C1865.53,-146.03 1440.19,-141.38 1398,-96 1325.94,-18.49 1542.94,-9.77 1644.09,-9.77"/>
<polygon fill="#63b8ff" stroke="#63b8ff" points="1644.37,-13.27 1654.38,-9.8 1644.39,-6.27 1644.37,-13.27"/>
</a>
</g>
</g>
<!-- Node14 -->
<g id="Node000014" class="node">
<title>Node14</title>
<g id="a_Node000014"><a xlink:title=" ">
<polygon fill="#e0e0e0" stroke="#999999" points="2165,-19 2093,-19 2093,0 2165,0 2165,-19"/>
<text text-anchor="middle" x="2129" y="-7" font-family="Helvetica,sans-Serif" font-size="10.00">netinet/in.h</text>
</a>
</g>
</g>
<!-- Node12&#45;&gt;Node14 -->
<g id="edge13_Node000012_Node000014" class="edge">
<title>Node12&#45;&gt;Node14</title>
<g id="a_edge13_Node000012_Node000014"><a xlink:title=" ">
<path fill="none" stroke="#63b8ff" d="M2091.09,-131.94C2096.48,-122.12 2103.38,-108.57 2108,-96 2116.22,-73.64 2122.21,-46.81 2125.65,-29.25"/>
<polygon fill="#63b8ff" stroke="#63b8ff" points="2129.13,-29.66 2127.53,-19.18 2122.25,-28.37 2129.13,-29.66"/>
</a>
</g>
</g>
<!-- Node15 -->
<g id="Node000015" class="node">
<title>Node15</title>
<g id="a_Node000015"><a xlink:title=" ">
<polygon fill="#e0e0e0" stroke="#999999" points="2601.5,-85 2532.5,-85 2532.5,-66 2601.5,-66 2601.5,-85"/>
<text text-anchor="middle" x="2567" y="-73" font-family="Helvetica,sans-Serif" font-size="10.00">arpa/inet.h</text>
</a>
</g>
</g>
<!-- Node12&#45;&gt;Node15 -->
<g id="edge14_Node000012_Node000015" class="edge">
<title>Node12&#45;&gt;Node15</title>
<g id="a_edge14_Node000012_Node000015"><a xlink:title=" ">
<path fill="none" stroke="#63b8ff" d="M2142.25,-145.12C2227.96,-142.55 2390.86,-132.75 2524,-96 2529.97,-94.35 2536.17,-91.98 2541.93,-89.45"/>
<polygon fill="#63b8ff" stroke="#63b8ff" points="2543.54,-92.56 2551.11,-85.15 2540.57,-86.22 2543.54,-92.56"/>
</a>
</g>
</g>
<!-- Node16 -->
<g id="Node000016" class="node">
<title>Node16</title>
<g id="a_Node000016"><a xlink:title=" ">
<polygon fill="#e0e0e0" stroke="#999999" points="2950.5,-19 2897.5,-19 2897.5,0 2950.5,0 2950.5,-19"/>
<text text-anchor="middle" x="2924" y="-7" font-family="Helvetica,sans-Serif" font-size="10.00">netdb.h</text>
</a>
</g>
</g>
<!-- Node12&#45;&gt;Node16 -->
<g id="edge15_Node000012_Node000016" class="edge">
<title>Node12&#45;&gt;Node16</title>
<g id="a_edge15_Node000012_Node000016"><a xlink:title=" ">
<path fill="none" stroke="#63b8ff" d="M2142.15,-144.89C2311.87,-141.34 2792.32,-128.49 2855,-96 2862.66,-92.03 2893.94,-50.98 2911.64,-27.24"/>
<polygon fill="#63b8ff" stroke="#63b8ff" points="2914.54,-29.21 2917.68,-19.1 2908.91,-25.04 2914.54,-29.21"/>
</a>
</g>
</g>
<!-- Node17 -->
<g id="Node000017" class="node">
<title>Node17</title>
<g id="a_Node000017"><a xlink:title=" ">
<polygon fill="#e0e0e0" stroke="#999999" points="2676,-85 2620,-85 2620,-66 2676,-66 2676,-85"/>
<text text-anchor="middle" x="2648" y="-73" font-family="Helvetica,sans-Serif" font-size="10.00">unistd.h</text>
</a>
</g>
</g>
<!-- Node12&#45;&gt;Node17 -->
<g id="edge16_Node000012_Node000017" class="edge">
<title>Node12&#45;&gt;Node17</title>
<g id="a_edge16_Node000012_Node000017"><a xlink:title=" ">
<path fill="none" stroke="#63b8ff" d="M2142.17,-143.3C2260.96,-137.39 2524.53,-121.78 2611,-96 2615.96,-94.52 2621.02,-92.36 2625.75,-90"/>
<polygon fill="#63b8ff" stroke="#63b8ff" points="2627.73,-92.91 2634.84,-85.06 2624.38,-86.76 2627.73,-92.91"/>
</a>
</g>
</g>
<!-- Node18 -->
<g id="Node000018" class="node">
<title>Node18</title>
<g id="a_Node000018"><a xlink:href="_conversion_and_literals_8hpp.html" target="_top" xlink:title=" ">
<polygon fill="white" stroke="#666666" points="2515,-90.5 2365,-90.5 2365,-60.5 2515,-60.5 2515,-90.5"/>
<text text-anchor="start" x="2373" y="-78.5" font-family="Helvetica,sans-Serif" font-size="10.00">Hermes/_base/OsApi</text>
<text text-anchor="middle" x="2440" y="-67.5" font-family="Helvetica,sans-Serif" font-size="10.00">/ConversionAndLiterals.hpp</text>
</a>
</g>
</g>
<!-- Node12&#45;&gt;Node18 -->
<g id="edge17_Node000012_Node000018" class="edge">
<title>Node12&#45;&gt;Node18</title>
<g id="a_edge17_Node000012_Node000018"><a xlink:title=" ">
<path fill="none" stroke="#63b8ff" d="M2142,-136.02C2197.4,-126.45 2282.52,-111.25 2356,-96 2360.91,-94.98 2365.98,-93.89 2371.07,-92.77"/>
<polygon fill="#63b8ff" stroke="#63b8ff" points="2371.88,-96.18 2380.88,-90.59 2370.35,-89.35 2371.88,-96.18"/>
</a>
</g>
</g>
<!-- Node20 -->
<g id="Node000020" class="node">
<title>Node20</title>
<g id="a_Node000020"><a xlink:href="_macros_8hpp.html" target="_top" xlink:title=" ">
<polygon fill="white" stroke="#666666" points="2099,-90.5 1981,-90.5 1981,-60.5 2099,-60.5 2099,-90.5"/>
<text text-anchor="start" x="1989" y="-78.5" font-family="Helvetica,sans-Serif" font-size="10.00">Hermes/_base/OsApi</text>
<text text-anchor="middle" x="2040" y="-67.5" font-family="Helvetica,sans-Serif" font-size="10.00">/Macros.hpp</text>
</a>
</g>
</g>
<!-- Node12&#45;&gt;Node20 -->
<g id="edge19_Node000012_Node000020" class="edge">
<title>Node12&#45;&gt;Node20</title>
<g id="a_edge19_Node000012_Node000020"><a xlink:title=" ">
<path fill="none" stroke="#63b8ff" d="M2074.3,-131.94C2068.47,-122.52 2060.67,-109.91 2053.98,-99.09"/>
<polygon fill="#63b8ff" stroke="#63b8ff" points="2056.93,-97.21 2048.69,-90.54 2050.97,-100.89 2056.93,-97.21"/>
</a>
</g>
</g>
<!-- Node22 -->
<g id="Node000022" class="node">
<title>Node22</title>
<g id="a_Node000022"><a xlink:href="_address_family_enum_8hpp.html" target="_top" xlink:title=" ">
<polygon fill="white" stroke="#666666" points="1583,-90.5 1407,-90.5 1407,-60.5 1583,-60.5 1583,-90.5"/>
<text text-anchor="start" x="1415" y="-78.5" font-family="Helvetica,sans-Serif" font-size="10.00">Hermes/_base/OsApi</text>
<text text-anchor="middle" x="1495" y="-67.5" font-family="Helvetica,sans-Serif" font-size="10.00">/Enums/AddressFamilyEnum.hpp</text>
</a>
</g>
</g>
<!-- Node12&#45;&gt;Node22 -->
<g id="edge23_Node000012_Node000022" class="edge">
<title>Node12&#45;&gt;Node22</title>
<g id="a_edge23_Node000012_Node000022"><a xlink:title=" ">
<path fill="none" stroke="#63b8ff" d="M2023.82,-141.84C1931.32,-134.91 1747.04,-119.42 1592,-96 1584.94,-94.93 1577.61,-93.7 1570.28,-92.38"/>
<polygon fill="#63b8ff" stroke="#63b8ff" points="1570.8,-88.91 1560.33,-90.53 1569.52,-95.8 1570.8,-88.91"/>
</a>
</g>
</g>
<!-- Node23 -->
<g id="Node000023" class="node">
<title>Node23</title>
<g id="a_Node000023"><a xlink:href="_protocol_base_type_enum_8hpp.html" target="_top" xlink:title=" ">
<polygon fill="white" stroke="#666666" points="2346.5,-90.5 2155.5,-90.5 2155.5,-60.5 2346.5,-60.5 2346.5,-90.5"/>
<text text-anchor="start" x="2163.5" y="-78.5" font-family="Helvetica,sans-Serif" font-size="10.00">Hermes/_base/OsApi</text>
<text text-anchor="middle" x="2251" y="-67.5" font-family="Helvetica,sans-Serif" font-size="10.00">/Enums/ProtocolBaseTypeEnum.hpp</text>
</a>
</g>
</g>
<!-- Node12&#45;&gt;Node23 -->
<g id="edge25_Node000012_Node000023" class="edge">
<title>Node12&#45;&gt;Node23</title>
<g id="a_edge25_Node000012_Node000023"><a xlink:title=" ">
<path fill="none" stroke="#63b8ff" d="M2117,-131.94C2143.18,-121.1 2179.57,-106.05 2207.81,-94.37"/>
<polygon fill="#63b8ff" stroke="#63b8ff" points="2209.15,-97.6 2217.05,-90.54 2206.47,-91.13 2209.15,-97.6"/>
</a>
</g>
</g>
<!-- Node24 -->
<g id="Node000024" class="node">
<title>Node24</title>
<g id="a_Node000024"><a xlink:href="_socket_shutdown_enum_8hpp.html" target="_top" xlink:title=" ">
<polygon fill="white" stroke="#666666" points="1785.5,-90.5 1600.5,-90.5 1600.5,-60.5 1785.5,-60.5 1785.5,-90.5"/>
<text text-anchor="start" x="1608.5" y="-78.5" font-family="Helvetica,sans-Serif" font-size="10.00">Hermes/_base/OsApi</text>
<text text-anchor="middle" x="1693" y="-67.5" font-family="Helvetica,sans-Serif" font-size="10.00">/Enums/SocketShutdownEnum.hpp</text>
</a>
</g>
</g>
<!-- Node12&#45;&gt;Node24 -->
<g id="edge27_Node000012_Node000024" class="edge">
<title>Node12&#45;&gt;Node24</title>
<g id="a_edge27_Node000012_Node000024"><a xlink:title=" ">
<path fill="none" stroke="#63b8ff" d="M2023.93,-136.05C1965.68,-126.16 1874.13,-110.43 1795,-96 1788.71,-94.85 1782.21,-93.65 1775.68,-92.43"/>
<polygon fill="#63b8ff" stroke="#63b8ff" points="1775.88,-88.91 1765.41,-90.5 1774.59,-95.79 1775.88,-88.91"/>
</a>
</g>
</g>
<!-- Node25 -->
<g id="Node000025" class="node">
<title>Node25</title>
<g id="a_Node000025"><a xlink:href="_socket_type_enum_8hpp.html" target="_top" xlink:title=" ">
<polygon fill="white" stroke="#666666" points="1962.5,-90.5 1803.5,-90.5 1803.5,-60.5 1962.5,-60.5 1962.5,-90.5"/>
<text text-anchor="start" x="1811.5" y="-78.5" font-family="Helvetica,sans-Serif" font-size="10.00">Hermes/_base/OsApi</text>
<text text-anchor="middle" x="1883" y="-67.5" font-family="Helvetica,sans-Serif" font-size="10.00">/Enums/SocketTypeEnum.hpp</text>
</a>
</g>
</g>
<!-- Node12&#45;&gt;Node25 -->
<g id="edge29_Node000012_Node000025" class="edge">
<title>Node12&#45;&gt;Node25</title>
<g id="a_edge29_Node000012_Node000025"><a xlink:title=" ">
<path fill="none" stroke="#63b8ff" d="M2042.53,-131.94C2010.95,-120.96 1966.91,-105.66 1933.1,-93.91"/>
<polygon fill="#63b8ff" stroke="#63b8ff" points="1934.01,-90.52 1923.41,-90.54 1931.71,-97.13 1934.01,-90.52"/>
</a>
</g>
</g>
<!-- Node26 -->
<g id="Node000026" class="node">
<title>Node26</title>
<g id="a_Node000026"><a xlink:title=" ">
<polygon fill="#e0e0e0" stroke="#999999" points="2846,-96 2694,-96 2694,-55 2846,-55 2846,-96"/>
<text text-anchor="start" x="2702" y="-84" font-family="Helvetica,sans-Serif" font-size="10.00">Hermes/_base/OsApi</text>
<text text-anchor="start" x="2702" y="-73" font-family="Helvetica,sans-Serif" font-size="10.00">/Enums/Linux/EncryptStatus</text>
<text text-anchor="middle" x="2770" y="-62" font-family="Helvetica,sans-Serif" font-size="10.00">Enum.hpp</text>
</a>
</g>
</g>
<!-- Node12&#45;&gt;Node26 -->
<g id="edge31_Node000012_Node000026" class="edge">
<title>Node12&#45;&gt;Node26</title>
<g id="a_edge31_Node000012_Node000026"><a xlink:title=" ">
<path fill="none" stroke="#63b8ff" d="M2142.29,-143.88C2248.88,-139.46 2479.98,-127.09 2683.66,-96.1"/>
<polygon fill="#63b8ff" stroke="#63b8ff" points="2684.29,-99.54 2693.64,-94.56 2683.23,-92.62 2684.29,-99.54"/>
</a>
</g>
</g>
<!-- Node27 -->
<g id="Node000027" class="node">
<title>Node27</title>
<g id="a_Node000027"><a xlink:href="_name_info_flags_8hpp.html" target="_top" xlink:title=" ">
<polygon fill="white" stroke="#666666" points="3046,-90.5 2902,-90.5 2902,-60.5 3046,-60.5 3046,-90.5"/>
<text text-anchor="start" x="2910" y="-78.5" font-family="Helvetica,sans-Serif" font-size="10.00">Hermes/_base/OsApi</text>
<text text-anchor="middle" x="2974" y="-67.5" font-family="Helvetica,sans-Serif" font-size="10.00">/Flags/NameInfoFlags.hpp</text>
</a>
</g>
</g>
<!-- Node12&#45;&gt;Node27 -->
<g id="edge32_Node000012_Node000027" class="edge">
<title>Node12&#45;&gt;Node27</title>
<g id="a_edge32_Node000012_Node000027"><a xlink:title=" ">
<path fill="none" stroke="#63b8ff" d="M2142.16,-145.58C2275.81,-143.91 2610.96,-135.75 2888,-96 2894.62,-95.05 2901.48,-93.86 2908.31,-92.53"/>
<polygon fill="#63b8ff" stroke="#63b8ff" points="2909.17,-95.93 2918.27,-90.51 2907.77,-89.07 2909.17,-95.93"/>
</a>
</g>
</g>
<!-- Node28 -->
<g id="Node000028" class="node">
<title>Node28</title>
<g id="a_Node000028"><a xlink:title=" ">
<polygon fill="#e0e0e0" stroke="#999999" points="947,-90.5 771,-90.5 771,-60.5 947,-60.5 947,-90.5"/>
<text text-anchor="start" x="779" y="-78.5" font-family="Helvetica,sans-Serif" font-size="10.00">Hermes/_base/OsApi</text>
<text text-anchor="middle" x="859" y="-67.5" font-family="Helvetica,sans-Serif" font-size="10.00">/Flags/Linux/CredentialFlags.hpp</text>
</a>
</g>
</g>
<!-- Node12&#45;&gt;Node28 -->
<g id="edge34_Node000012_Node000028" class="edge">
<title>Node12&#45;&gt;Node28</title>
<g id="a_edge34_Node000012_Node000028"><a xlink:title=" ">
<path fill="none" stroke="#63b8ff" d="M2023.79,-144.56C1822.66,-139.49 1166.56,-121.35 957,-96 948.83,-95.01 940.32,-93.72 931.88,-92.27"/>
<polygon fill="#63b8ff" stroke="#63b8ff" points="932.49,-88.82 922.03,-90.51 931.26,-95.72 932.49,-88.82"/>
</a>
</g>
</g>
<!-- Node29 -->
<g id="Node000029" class="node">
<title>Node29</title>
<g id="a_Node000029"><a xlink:title=" ">
<polygon fill="#e0e0e0" stroke="#999999" points="1138.5,-96 965.5,-96 965.5,-55 1138.5,-55 1138.5,-96"/>
<text text-anchor="start" x="973.5" y="-84" font-family="Helvetica,sans-Serif" font-size="10.00">Hermes/_base/OsApi</text>
<text text-anchor="start" x="973.5" y="-73" font-family="Helvetica,sans-Serif" font-size="10.00">/Flags/Linux/SupportedProtocols</text>
<text text-anchor="middle" x="1052" y="-62" font-family="Helvetica,sans-Serif" font-size="10.00">Flags.hpp</text>
</a>
</g>
</g>
<!-- Node12&#45;&gt;Node29 -->
<g id="edge35_Node000012_Node000029" class="edge">
<title>Node12&#45;&gt;Node29</title>
<g id="a_edge35_Node000012_Node000029"><a xlink:title=" ">
<path fill="none" stroke="#63b8ff" d="M2023.93,-145.85C1877.31,-144.82 1484.92,-138.13 1148.45,-95.94"/>
<polygon fill="#63b8ff" stroke="#63b8ff" points="1148.87,-92.47 1138.51,-94.68 1147.99,-99.41 1148.87,-92.47"/>
</a>
</g>
</g>
<!-- Node30 -->
<g id="Node000030" class="node">
<title>Node30</title>
<g id="a_Node000030"><a xlink:title=" ">
<polygon fill="#e0e0e0" stroke="#999999" points="1351,-90.5 1157,-90.5 1157,-60.5 1351,-60.5 1351,-90.5"/>
<text text-anchor="start" x="1165" y="-78.5" font-family="Helvetica,sans-Serif" font-size="10.00">Hermes/_base/OsApi</text>
<text text-anchor="middle" x="1254" y="-67.5" font-family="Helvetica,sans-Serif" font-size="10.00">/Flags/Linux/SChannelCredFlags.hpp</text>
</a>
</g>
</g>
<!-- Node12&#45;&gt;Node30 -->
<g id="edge36_Node000012_Node000030" class="edge">
<title>Node12&#45;&gt;Node30</title>
<g id="a_edge36_Node000012_Node000030"><a xlink:title=" ">
<path fill="none" stroke="#63b8ff" d="M2023.7,-143.97C1900.58,-139.28 1608.41,-125.77 1365,-96 1356.09,-94.91 1346.8,-93.58 1337.56,-92.14"/>
<polygon fill="#63b8ff" stroke="#63b8ff" points="1338.01,-88.67 1327.58,-90.54 1336.9,-95.58 1338.01,-88.67"/>
</a>
</g>
</g>
<!-- Node19 -->
<g id="Node000019" class="node">
<title>Node19</title>
<g id="a_Node000019"><a xlink:title=" ">
<polygon fill="#e0e0e0" stroke="#999999" points="2647,-19 2597,-19 2597,0 2647,0 2647,-19"/>
<text text-anchor="middle" x="2622" y="-7" font-family="Helvetica,sans-Serif" font-size="10.00">cstdint</text>
</a>
</g>
</g>
<!-- Node18&#45;&gt;Node19 -->
<g id="edge18_Node000018_Node000019" class="edge">
<title>Node18&#45;&gt;Node19</title>
<g id="a_edge18_Node000018_Node000019"><a xlink:title=" ">
<path fill="none" stroke="#63b8ff" d="M2479.94,-60.45C2512.28,-49.08 2557.34,-33.24 2587.98,-22.46"/>
<polygon fill="#63b8ff" stroke="#63b8ff" points="2589.51,-25.64 2597.78,-19.02 2587.18,-19.03 2589.51,-25.64"/>
</a>
</g>
</g>
<!-- Node20&#45;&gt;Node13 -->
<g id="edge21_Node000020_Node000013" class="edge">
<title>Node20&#45;&gt;Node13</title>
<g id="a_edge21_Node000020_Node000013"><a xlink:title=" ">
<path fill="none" stroke="#63b8ff" d="M1993.74,-60.42C1986.5,-58.46 1979.07,-56.57 1972,-55 1891.99,-37.22 1797.56,-23.69 1741.62,-16.44"/>
<polygon fill="#63b8ff" stroke="#63b8ff" points="1742,-12.96 1731.64,-15.16 1741.11,-19.9 1742,-12.96"/>
</a>
</g>
</g>
<!-- Node20&#45;&gt;Node14 -->
<g id="edge22_Node000020_Node000014" class="edge">
<title>Node20&#45;&gt;Node14</title>
<g id="a_edge22_Node000020_Node000014"><a xlink:title=" ">
<path fill="none" stroke="#63b8ff" d="M2059.75,-60.3C2074.26,-49.87 2093.9,-35.74 2108.56,-25.19"/>
<polygon fill="#63b8ff" stroke="#63b8ff" points="2110.88,-27.84 2116.96,-19.16 2106.8,-22.16 2110.88,-27.84"/>
</a>
</g>
</g>
<!-- Node21 -->
<g id="Node000021" class="node">
<title>Node21</title>
<g id="a_Node000021"><a xlink:title=" ">
<polygon fill="#e0e0e0" stroke="#999999" points="2074.5,-19 2001.5,-19 2001.5,0 2074.5,0 2074.5,-19"/>
<text text-anchor="middle" x="2038" y="-7" font-family="Helvetica,sans-Serif" font-size="10.00">string_view</text>
</a>
</g>
</g>
<!-- Node20&#45;&gt;Node21 -->
<g id="edge20_Node000020_Node000021" class="edge">
<title>Node20&#45;&gt;Node21</title>
<g id="a_edge20_Node000020_Node000021"><a xlink:title=" ">
<path fill="none" stroke="#63b8ff" d="M2039.56,-60.3C2039.27,-51.2 2038.9,-39.29 2038.59,-29.4"/>
<polygon fill="#63b8ff" stroke="#63b8ff" points="2042.09,-29.23 2038.28,-19.34 2035.09,-29.45 2042.09,-29.23"/>
</a>
</g>
</g>
<!-- Node22&#45;&gt;Node13 -->
<g id="edge24_Node000022_Node000013" class="edge">
<title>Node22&#45;&gt;Node13</title>
<g id="a_edge24_Node000022_Node000013"><a xlink:title=" ">
<path fill="none" stroke="#63b8ff" d="M1538.45,-60.45C1573.94,-48.98 1623.51,-32.96 1656.86,-22.18"/>
<polygon fill="#63b8ff" stroke="#63b8ff" points="1658.21,-25.42 1666.65,-19.02 1656.06,-18.76 1658.21,-25.42"/>
</a>
</g>
</g>
<!-- Node23&#45;&gt;Node14 -->
<g id="edge26_Node000023_Node000014" class="edge">
<title>Node23&#45;&gt;Node14</title>
<g id="a_edge26_Node000023_Node000014"><a xlink:title=" ">
<path fill="none" stroke="#63b8ff" d="M2224.23,-60.45C2203.4,-49.53 2174.69,-34.47 2154.26,-23.75"/>
<polygon fill="#63b8ff" stroke="#63b8ff" points="2155.72,-20.56 2145.24,-19.02 2152.47,-26.76 2155.72,-20.56"/>
</a>
</g>
</g>
<!-- Node24&#45;&gt;Node13 -->
<g id="edge28_Node000024_Node000013" class="edge">
<title>Node24&#45;&gt;Node13</title>
<g id="a_edge28_Node000024_Node000013"><a xlink:title=" ">
<path fill="none" stroke="#63b8ff" d="M1693,-60.3C1693,-51.2 1693,-39.29 1693,-29.4"/>
<polygon fill="#63b8ff" stroke="#63b8ff" points="1696.5,-29.34 1693,-19.34 1689.5,-29.34 1696.5,-29.34"/>
</a>
</g>
</g>
<!-- Node25&#45;&gt;Node13 -->
<g id="edge30_Node000025_Node000013" class="edge">
<title>Node25&#45;&gt;Node13</title>
<g id="a_edge30_Node000025_Node000013"><a xlink:title=" ">
<path fill="none" stroke="#63b8ff" d="M1841.3,-60.45C1807.4,-49.03 1760.09,-33.1 1728.1,-22.32"/>
<polygon fill="#63b8ff" stroke="#63b8ff" points="1728.88,-18.89 1718.29,-19.02 1726.65,-25.53 1728.88,-18.89"/>
</a>
</g>
</g>
<!-- Node27&#45;&gt;Node16 -->
<g id="edge33_Node000027_Node000016" class="edge">
<title>Node27&#45;&gt;Node16</title>
<g id="a_edge33_Node000027_Node000016"><a xlink:title=" ">
<path fill="none" stroke="#63b8ff" d="M2962.9,-60.3C2955.34,-50.61 2945.28,-37.74 2937.29,-27.51"/>
<polygon fill="#63b8ff" stroke="#63b8ff" points="2939.82,-25.07 2930.91,-19.34 2934.31,-29.38 2939.82,-25.07"/>
</a>
</g>
</g>
<!-- Node33&#45;&gt;Node2 -->
<g id="edge43_Node000033_Node000002" class="edge">
<title>Node33&#45;&gt;Node2</title>
<g id="a_edge43_Node000033_Node000002"><a xlink:title=" ">
<path fill="none" stroke="#63b8ff" d="M1521.24,-326.94C1502.33,-324.11 1481.92,-321.25 1463,-319 1314.37,-301.31 1140.31,-287.45 1040.52,-280.16"/>
<polygon fill="#63b8ff" stroke="#63b8ff" points="1040.73,-276.67 1030.5,-279.44 1040.22,-283.65 1040.73,-276.67"/>
</a>
</g>
</g>
<!-- Node33&#45;&gt;Node7 -->
<g id="edge44_Node000033_Node000007" class="edge">
<title>Node33&#45;&gt;Node7</title>
<g id="a_edge44_Node000033_Node000007"><a xlink:title=" ">
<path fill="none" stroke="#63b8ff" d="M1529.95,-318.98C1440.66,-291.44 1272.16,-239.86 1128,-198 965.83,-150.91 915.36,-166.68 762,-96 758.86,-94.55 755.68,-92.78 752.63,-90.91"/>
<polygon fill="#63b8ff" stroke="#63b8ff" points="754.33,-87.83 744.07,-85.17 750.43,-93.64 754.33,-87.83"/>
</a>
</g>
</g>
<!-- Node33&#45;&gt;Node19 -->
<g id="edge45_Node000033_Node000019" class="edge">
<title>Node33&#45;&gt;Node19</title>
<g id="a_edge45_Node000033_Node000019"><a xlink:title=" ">
<path fill="none" stroke="#63b8ff" d="M1664.83,-338.23C1933.48,-335.56 2872.92,-310.77 3055,-96 3066.78,-82.1 3067.21,-68.53 3055,-55 3028.5,-25.64 2755.72,-14.54 2657.23,-11.47"/>
<polygon fill="#63b8ff" stroke="#63b8ff" points="2657.27,-7.97 2647.17,-11.16 2657.06,-14.97 2657.27,-7.97"/>
</a>
</g>
</g>
</g>
</svg>
