<?xml version="1.0" encoding="UTF-8" standalone="no"?>
<!DOCTYPE svg PUBLIC "-//W3C//DTD SVG 1.1//EN"
 "http://www.w3.org/Graphics/SVG/1.1/DTD/svg11.dtd">
<!-- Generated by graphviz version 2.43.0 (0)
 -->
<!-- Title: include/Hermes/Socket/_base/Transfer/TlsTransferStateMachine.hpp Pages: 1 -->
<svg width="2919pt" height="511pt"
 viewBox="0.00 0.00 2918.76 511.00" xmlns="http://www.w3.org/2000/svg" xmlns:xlink="http://www.w3.org/1999/xlink">
<g id="graph0" class="graph" transform="scale(1 1) rotate(0) translate(4 507)">
<title>include/Hermes/Socket/_base/Transfer/TlsTransferStateMachine.hpp</title>
<!-- Node1 -->
<g id="Node000001" class="node">
<title>Node1</title>
<g id="a_Node000001"><a xlink:title=" ">
<polygon fill="#999999" stroke="#666666" points="1181.76,-503 1035.76,-503 1035.76,-462 1181.76,-462 1181.76,-503"/>
<text text-anchor="start" x="1043.76" y="-491" font-family="Helvetica,sans-Serif" font-size="10.00">include/Hermes/Socket</text>
<text text-anchor="start" x="1043.76" y="-480" font-family="Helvetica,sans-Serif" font-size="10.00">/_base/Transfer/TlsTransfer</text>
<text text-anchor="middle" x="1108.76" y="-469" font-family="Helvetica,sans-Serif" font-size="10.00">StateMachine.hpp</text>
</a>
</g>
</g>
<!-- Node2 -->
<g id="Node000002" class="node">
<title>Node2</title>
<g id="a_Node000002"><a xlink:href="__base_8hpp.html" target="_top" xlink:title=" ">
<polygon fill="white" stroke="#666666" points="1105.26,-283 962.26,-283 962.26,-264 1105.26,-264 1105.26,-283"/>
<text text-anchor="middle" x="1033.76" y="-271" font-family="Helvetica,sans-Serif" font-size="10.00">Hermes/Socket/_base.hpp</text>
</a>
</g>
</g>
<!-- Node1&#45;&gt;Node2 -->
<g id="edge1_Node000001_Node000002" class="edge">
<title>Node1&#45;&gt;Node2</title>
<g id="a_edge1_Node000001_Node000002"><a xlink:title=" ">
<path fill="none" stroke="#63b8ff" d="M1101.57,-461.65C1087.03,-421.51 1054.31,-331.22 1040.32,-292.59"/>
<polygon fill="#63b8ff" stroke="#63b8ff" points="1043.59,-291.36 1036.9,-283.15 1037.01,-293.74 1043.59,-291.36"/>
</a>
</g>
</g>
<!-- Node32 -->
<g id="Node000032" class="node">
<title>Node32</title>
<g id="a_Node000032"><a xlink:href="_i_tls_transfer_state_machine_8hpp.html" target="_top" xlink:title=" ">
<polygon fill="white" stroke="#666666" points="861.26,-426 718.26,-426 718.26,-385 861.26,-385 861.26,-426"/>
<text text-anchor="start" x="726.26" y="-414" font-family="Helvetica,sans-Serif" font-size="10.00">Hermes/Socket/_base</text>
<text text-anchor="start" x="726.26" y="-403" font-family="Helvetica,sans-Serif" font-size="10.00">/Transfer/ITlsTransferState</text>
<text text-anchor="middle" x="789.76" y="-392" font-family="Helvetica,sans-Serif" font-size="10.00">Machine.hpp</text>
</a>
</g>
</g>
<!-- Node1&#45;&gt;Node32 -->
<g id="edge40_Node000001_Node000032" class="edge">
<title>Node1&#45;&gt;Node32</title>
<g id="a_edge40_Node000001_Node000032"><a xlink:title=" ">
<path fill="none" stroke="#63b8ff" d="M1035.58,-464.29C986.6,-452.78 922.09,-437.61 871.44,-425.7"/>
<polygon fill="#63b8ff" stroke="#63b8ff" points="872.04,-422.25 861.51,-423.37 870.44,-429.06 872.04,-422.25"/>
</a>
</g>
</g>
<!-- Node40 -->
<g id="Node000040" class="node">
<title>Node40</title>
<g id="a_Node000040"><a xlink:href="_tls_session_8hpp.html" target="_top" xlink:title=" ">
<polygon fill="white" stroke="#666666" points="1487.76,-228 1365.76,-228 1365.76,-198 1487.76,-198 1487.76,-228"/>
<text text-anchor="start" x="1373.76" y="-216" font-family="Helvetica,sans-Serif" font-size="10.00">Hermes/Socket/_base</text>
<text text-anchor="middle" x="1426.76" y="-205" font-family="Helvetica,sans-Serif" font-size="10.00">/TlsSession.hpp</text>
</a>
</g>
</g>
<!-- Node1&#45;&gt;Node40 -->
<g id="edge52_Node000001_Node000040" class="edge">
<title>Node1&#45;&gt;Node40</title>
<g id="a_edge52_Node000001_Node000040"><a xlink:title=" ">
<path fill="none" stroke="#63b8ff" d="M1114.01,-461.86C1120.39,-440.92 1132.84,-407.7 1152.76,-385 1217.58,-311.14 1322.05,-258.27 1381.52,-232.27"/>
<polygon fill="#63b8ff" stroke="#63b8ff" points="1383.22,-235.34 1391.02,-228.17 1380.45,-228.92 1383.22,-235.34"/>
</a>
</g>
</g>
<!-- Node44 -->
<g id="Node000044" class="node">
<title>Node44</title>
<g id="a_Node000044"><a xlink:title=" ">
<polygon fill="#e0e0e0" stroke="#999999" points="1301.76,-426 1161.76,-426 1161.76,-385 1301.76,-385 1301.76,-426"/>
<text text-anchor="start" x="1169.76" y="-414" font-family="Helvetica,sans-Serif" font-size="10.00">Hermes/Socket/_base</text>
<text text-anchor="start" x="1169.76" y="-403" font-family="Helvetica,sans-Serif" font-size="10.00">/Transfer/TlsTransferState</text>
<text text-anchor="middle" x="1231.76" y="-392" font-family="Helvetica,sans-Serif" font-size="10.00">Machine.tpp</text>
</a>
</g>
</g>
<!-- Node1&#45;&gt;Node44 -->
<g id="edge58_Node000001_Node000044" class="edge">
<title>Node1&#45;&gt;Node44</title>
<g id="a_edge58_Node000001_Node000044"><a xlink:title=" ">
<path fill="none" stroke="#63b8ff" d="M1140.76,-461.99C1156.01,-452.69 1174.44,-441.45 1190.72,-431.53"/>
<polygon fill="#63b8ff" stroke="#63b8ff" points="1192.78,-434.37 1199.5,-426.17 1189.14,-428.39 1192.78,-434.37"/>
</a>
</g>
</g>
<!-- Node3 -->
<g id="Node000003" class="node">
<title>Node3</title>
<g id="a_Node000003"><a xlink:href="_endpoint_concept_8hpp.html" target="_top" xlink:title=" ">
<polygon fill="white" stroke="#666666" points="1208.76,-228 1076.76,-228 1076.76,-198 1208.76,-198 1208.76,-228"/>
<text text-anchor="start" x="1084.76" y="-216" font-family="Helvetica,sans-Serif" font-size="10.00">Hermes/Endpoint/_base</text>
<text text-anchor="middle" x="1142.76" y="-205" font-family="Helvetica,sans-Serif" font-size="10.00">/EndpointConcept.hpp</text>
</a>
</g>
</g>
<!-- Node2&#45;&gt;Node3 -->
<g id="edge2_Node000002_Node000003" class="edge">
<title>Node2&#45;&gt;Node3</title>
<g id="a_edge2_Node000002_Node000003"><a xlink:title=" ">
<path fill="none" stroke="#63b8ff" d="M1049.85,-263.87C1064.98,-255.75 1088.15,-243.31 1107.57,-232.89"/>
<polygon fill="#63b8ff" stroke="#63b8ff" points="1109.31,-235.93 1116.46,-228.11 1106,-229.76 1109.31,-235.93"/>
</a>
</g>
</g>
<!-- Node4 -->
<g id="Node000004" class="node">
<title>Node4</title>
<g id="a_Node000004"><a xlink:href="_connection_error_enum_8hpp.html" target="_top" xlink:title=" ">
<polygon fill="white" stroke="#666666" points="487.26,-162 320.26,-162 320.26,-132 487.26,-132 487.26,-162"/>
<text text-anchor="start" x="328.26" y="-150" font-family="Helvetica,sans-Serif" font-size="10.00">Hermes/_base/ConnectionError</text>
<text text-anchor="middle" x="403.76" y="-139" font-family="Helvetica,sans-Serif" font-size="10.00">Enum.hpp</text>
</a>
</g>
</g>
<!-- Node2&#45;&gt;Node4 -->
<g id="edge35_Node000002_Node000004" class="edge">
<title>Node2&#45;&gt;Node4</title>
<g id="a_edge35_Node000002_Node000004"><a xlink:title=" ">
<path fill="none" stroke="#63b8ff" d="M990.46,-263.94C886.11,-243.32 619.44,-190.62 484.52,-163.96"/>
<polygon fill="#63b8ff" stroke="#63b8ff" points="485.14,-160.51 474.65,-162.01 483.78,-167.38 485.14,-160.51"/>
</a>
</g>
</g>
<!-- Node8 -->
<g id="Node000008" class="node">
<title>Node8</title>
<g id="a_Node000008"><a xlink:title=" ">
<polygon fill="#e0e0e0" stroke="#999999" points="156.26,-85 31.26,-85 31.26,-66 156.26,-66 156.26,-85"/>
<text text-anchor="middle" x="93.76" y="-73" font-family="Helvetica,sans-Serif" font-size="10.00">stdexec/execution.hpp</text>
</a>
</g>
</g>
<!-- Node2&#45;&gt;Node8 -->
<g id="edge37_Node000002_Node000008" class="edge">
<title>Node2&#45;&gt;Node8</title>
<g id="a_edge37_Node000002_Node000008"><a xlink:title=" ">
<path fill="none" stroke="#63b8ff" d="M962.12,-264.63C869.88,-254.4 714.69,-236.79 657.76,-228 503.04,-204.12 462.17,-205.43 311.76,-162 241.4,-141.68 162.11,-107.62 121.31,-89.22"/>
<polygon fill="#63b8ff" stroke="#63b8ff" points="122.58,-85.95 112.02,-85 119.68,-92.33 122.58,-85.95"/>
</a>
</g>
</g>
<!-- Node10 -->
<g id="Node000010" class="node">
<title>Node10</title>
<g id="a_Node000010"><a xlink:href="_os_api_8hpp.html" target="_top" xlink:title=" ">
<polygon fill="white" stroke="#666666" points="1419.76,-162 1301.76,-162 1301.76,-132 1419.76,-132 1419.76,-162"/>
<text text-anchor="start" x="1309.76" y="-150" font-family="Helvetica,sans-Serif" font-size="10.00">Hermes/_base/OsApi</text>
<text text-anchor="middle" x="1360.76" y="-139" font-family="Helvetica,sans-Serif" font-size="10.00">/OsApi.hpp</text>
</a>
</g>
</g>
<!-- Node2&#45;&gt;Node10 -->
<g id="edge36_Node000002_Node000010" class="edge">
<title>Node2&#45;&gt;Node10</title>
<g id="a_edge36_Node000002_Node000010"><a xlink:title=" ">
<path fill="none" stroke="#63b8ff" d="M1085.28,-263.94C1122.82,-256.78 1174.47,-244.98 1217.76,-228 1259.11,-211.79 1303.2,-185.6 1331.32,-167.63"/>
<polygon fill="#63b8ff" stroke="#63b8ff" points="1333.36,-170.48 1339.86,-162.11 1329.56,-164.6 1333.36,-170.48"/>
</a>
</g>
</g>
<!-- Node30 -->
<g id="Node000030" class="node">
<title>Node30</title>
<g id="a_Node000030"><a xlink:title=" ">
<polygon fill="#e0e0e0" stroke="#999999" points="990.76,-222.5 930.76,-222.5 930.76,-203.5 990.76,-203.5 990.76,-222.5"/>
<text text-anchor="middle" x="960.76" y="-210.5" font-family="Helvetica,sans-Serif" font-size="10.00">concepts</text>
</a>
</g>
</g>
<!-- Node2&#45;&gt;Node30 -->
<g id="edge38_Node000002_Node000030" class="edge">
<title>Node2&#45;&gt;Node30</title>
<g id="a_edge38_Node000002_Node000030"><a xlink:title=" ">
<path fill="none" stroke="#63b8ff" d="M1022.99,-263.87C1011.56,-254.71 993.28,-240.06 979.49,-229.01"/>
<polygon fill="#63b8ff" stroke="#63b8ff" points="981.57,-226.19 971.58,-222.67 977.19,-231.65 981.57,-226.19"/>
</a>
</g>
</g>
<!-- Node31 -->
<g id="Node000031" class="node">
<title>Node31</title>
<g id="a_Node000031"><a xlink:title=" ">
<polygon fill="#e0e0e0" stroke="#999999" points="1058.76,-222.5 1008.76,-222.5 1008.76,-203.5 1058.76,-203.5 1058.76,-222.5"/>
<text text-anchor="middle" x="1033.76" y="-210.5" font-family="Helvetica,sans-Serif" font-size="10.00">ranges</text>
</a>
</g>
</g>
<!-- Node2&#45;&gt;Node31 -->
<g id="edge39_Node000002_Node000031" class="edge">
<title>Node2&#45;&gt;Node31</title>
<g id="a_edge39_Node000002_Node000031"><a xlink:title=" ">
<path fill="none" stroke="#63b8ff" d="M1033.76,-263.87C1033.76,-255.75 1033.76,-243.31 1033.76,-232.89"/>
<polygon fill="#63b8ff" stroke="#63b8ff" points="1037.26,-232.67 1033.76,-222.67 1030.26,-232.67 1037.26,-232.67"/>
</a>
</g>
</g>
<!-- Node3&#45;&gt;Node4 -->
<g id="edge3_Node000003_Node000004" class="edge">
<title>Node3&#45;&gt;Node4</title>
<g id="a_edge3_Node000003_Node000004"><a xlink:title=" ">
<path fill="none" stroke="#63b8ff" d="M1076.57,-199.24C1073.6,-198.79 1070.65,-198.38 1067.76,-198 865.47,-171.58 626.55,-157.83 497.63,-151.83"/>
<polygon fill="#63b8ff" stroke="#63b8ff" points="497.55,-148.32 487.4,-151.36 497.22,-155.32 497.55,-148.32"/>
</a>
</g>
</g>
<!-- Node3&#45;&gt;Node10 -->
<g id="edge9_Node000003_Node000010" class="edge">
<title>Node3&#45;&gt;Node10</title>
<g id="a_edge9_Node000003_Node000010"><a xlink:title=" ">
<path fill="none" stroke="#63b8ff" d="M1190.6,-197.95C1223.83,-188.2 1268.26,-175.16 1303.39,-164.84"/>
<polygon fill="#63b8ff" stroke="#63b8ff" points="1304.42,-168.19 1313.03,-162.01 1302.45,-161.47 1304.42,-168.19"/>
</a>
</g>
</g>
<!-- Node5 -->
<g id="Node000005" class="node">
<title>Node5</title>
<g id="a_Node000005"><a xlink:title=" ">
<polygon fill="#e0e0e0" stroke="#999999" points="236.76,-85 174.76,-85 174.76,-66 236.76,-66 236.76,-85"/>
<text text-anchor="middle" x="205.76" y="-73" font-family="Helvetica,sans-Serif" font-size="10.00">expected</text>
</a>
</g>
</g>
<!-- Node4&#45;&gt;Node5 -->
<g id="edge4_Node000004_Node000005" class="edge">
<title>Node4&#45;&gt;Node5</title>
<g id="a_edge4_Node000004_Node000005"><a xlink:title=" ">
<path fill="none" stroke="#63b8ff" d="M352.93,-131.98C321.63,-122.84 280.9,-110.03 245.76,-96 240.87,-94.04 235.74,-91.74 230.85,-89.42"/>
<polygon fill="#63b8ff" stroke="#63b8ff" points="232.39,-86.28 221.87,-85.02 229.3,-92.57 232.39,-86.28"/>
</a>
</g>
</g>
<!-- Node6 -->
<g id="Node000006" class="node">
<title>Node6</title>
<g id="a_Node000006"><a xlink:title=" ">
<polygon fill="#e0e0e0" stroke="#999999" points="302.26,-85 255.26,-85 255.26,-66 302.26,-66 302.26,-85"/>
<text text-anchor="middle" x="278.76" y="-73" font-family="Helvetica,sans-Serif" font-size="10.00">vector</text>
</a>
</g>
</g>
<!-- Node4&#45;&gt;Node6 -->
<g id="edge5_Node000004_Node000006" class="edge">
<title>Node4&#45;&gt;Node6</title>
<g id="a_edge5_Node000004_Node000006"><a xlink:title=" ">
<path fill="none" stroke="#63b8ff" d="M377.05,-131.81C358.62,-121.94 333.59,-108.37 311.76,-96 308.6,-94.21 305.28,-92.29 302.02,-90.38"/>
<polygon fill="#63b8ff" stroke="#63b8ff" points="303.55,-87.22 293.15,-85.16 299.99,-93.25 303.55,-87.22"/>
</a>
</g>
</g>
<!-- Node7 -->
<g id="Node000007" class="node">
<title>Node7</title>
<g id="a_Node000007"><a xlink:title=" ">
<polygon fill="#e0e0e0" stroke="#999999" points="544.76,-85 504.76,-85 504.76,-66 544.76,-66 544.76,-85"/>
<text text-anchor="middle" x="524.76" y="-73" font-family="Helvetica,sans-Serif" font-size="10.00">span</text>
</a>
</g>
</g>
<!-- Node4&#45;&gt;Node7 -->
<g id="edge6_Node000004_Node000007" class="edge">
<title>Node4&#45;&gt;Node7</title>
<g id="a_edge6_Node000004_Node000007"><a xlink:title=" ">
<path fill="none" stroke="#63b8ff" d="M431.91,-131.94C450.6,-122.34 475.52,-109.05 496.76,-96 499.32,-94.43 501.96,-92.72 504.55,-90.98"/>
<polygon fill="#63b8ff" stroke="#63b8ff" points="506.74,-93.72 512.97,-85.16 502.76,-87.97 506.74,-93.72"/>
</a>
</g>
</g>
<!-- Node4&#45;&gt;Node8 -->
<g id="edge7_Node000004_Node000008" class="edge">
<title>Node4&#45;&gt;Node8</title>
<g id="a_edge7_Node000004_Node000008"><a xlink:title=" ">
<path fill="none" stroke="#63b8ff" d="M331.66,-131.97C284.34,-122.49 221.18,-109.32 165.76,-96 155.27,-93.48 143.97,-90.53 133.51,-87.7"/>
<polygon fill="#63b8ff" stroke="#63b8ff" points="134.36,-84.31 123.79,-85.05 132.51,-91.06 134.36,-84.31"/>
</a>
</g>
</g>
<!-- Node9 -->
<g id="Node000009" class="node">
<title>Node9</title>
<g id="a_Node000009"><a xlink:title=" ">
<polygon fill="#e0e0e0" stroke="#999999" points="487.26,-90.5 320.26,-90.5 320.26,-60.5 487.26,-60.5 487.26,-90.5"/>
<text text-anchor="start" x="328.26" y="-78.5" font-family="Helvetica,sans-Serif" font-size="10.00">Hermes/_base/ConnectionError</text>
<text text-anchor="middle" x="403.76" y="-67.5" font-family="Helvetica,sans-Serif" font-size="10.00">Enum.tpp</text>
</a>
</g>
</g>
<!-- Node4&#45;&gt;Node9 -->
<g id="edge8_Node000004_Node000009" class="edge">
<title>Node4&#45;&gt;Node9</title>
<g id="a_edge8_Node000004_Node000009"><a xlink:title=" ">
<path fill="none" stroke="#63b8ff" d="M403.76,-131.94C403.76,-122.99 403.76,-111.16 403.76,-100.73"/>
<polygon fill="#63b8ff" stroke="#63b8ff" points="407.26,-100.54 403.76,-90.54 400.26,-100.54 407.26,-100.54"/>
</a>
</g>
</g>
<!-- Node11 -->
<g id="Node000011" class="node">
<title>Node11</title>
<g id="a_Node000011"><a xlink:title=" ">
<polygon fill="#e0e0e0" stroke="#999999" points="2522.26,-19 2445.26,-19 2445.26,0 2522.26,0 2522.26,-19"/>
<text text-anchor="middle" x="2483.76" y="-7" font-family="Helvetica,sans-Serif" font-size="10.00">sys/socket.h</text>
</a>
</g>
</g>
<!-- Node10&#45;&gt;Node11 -->
<g id="edge10_Node000010_Node000011" class="edge">
<title>Node10&#45;&gt;Node11</title>
<g id="a_edge10_Node000010_Node000011"><a xlink:title=" ">
<path fill="none" stroke="#63b8ff" d="M1420.13,-133.32C1423.38,-132.83 1426.61,-132.38 1429.76,-132 1531.33,-119.79 2257.11,-139.38 2349.76,-96 2371.99,-85.59 2366.98,-69.53 2386.76,-55 2405.54,-41.21 2429.28,-30.23 2448.57,-22.63"/>
<polygon fill="#63b8ff" stroke="#63b8ff" points="2449.82,-25.9 2457.92,-19.07 2447.33,-19.35 2449.82,-25.9"/>
</a>
</g>
</g>
<!-- Node12 -->
<g id="Node000012" class="node">
<title>Node12</title>
<g id="a_Node000012"><a xlink:title=" ">
<polygon fill="#e0e0e0" stroke="#999999" points="838.76,-19 766.76,-19 766.76,0 838.76,0 838.76,-19"/>
<text text-anchor="middle" x="802.76" y="-7" font-family="Helvetica,sans-Serif" font-size="10.00">netinet/in.h</text>
</a>
</g>
</g>
<!-- Node10&#45;&gt;Node12 -->
<g id="edge11_Node000010_Node000012" class="edge">
<title>Node10&#45;&gt;Node12</title>
<g id="a_edge11_Node000010_Node000012"><a xlink:title=" ">
<path fill="none" stroke="#63b8ff" d="M1301.55,-145.51C1157.31,-143.71 796.9,-135.28 760.76,-96 748.42,-82.59 754.03,-71.93 760.76,-55 765.28,-43.63 774.24,-33.48 782.72,-25.76"/>
<polygon fill="#63b8ff" stroke="#63b8ff" points="785.18,-28.27 790.55,-19.14 780.66,-22.92 785.18,-28.27"/>
</a>
</g>
</g>
<!-- Node13 -->
<g id="Node000013" class="node">
<title>Node13</title>
<g id="a_Node000013"><a xlink:title=" ">
<polygon fill="#e0e0e0" stroke="#999999" points="1047.26,-85 978.26,-85 978.26,-66 1047.26,-66 1047.26,-85"/>
<text text-anchor="middle" x="1012.76" y="-73" font-family="Helvetica,sans-Serif" font-size="10.00">arpa/inet.h</text>
</a>
</g>
</g>
<!-- Node10&#45;&gt;Node13 -->
<g id="edge12_Node000010_Node000013" class="edge">
<title>Node10&#45;&gt;Node13</title>
<g id="a_edge12_Node000010_Node000013"><a xlink:title=" ">
<path fill="none" stroke="#63b8ff" d="M1301.48,-140.75C1239.47,-134.22 1139.79,-120.79 1056.76,-96 1050.81,-94.22 1044.61,-91.84 1038.8,-89.34"/>
<polygon fill="#63b8ff" stroke="#63b8ff" points="1040.07,-86.07 1029.51,-85.13 1037.18,-92.45 1040.07,-86.07"/>
</a>
</g>
</g>
<!-- Node14 -->
<g id="Node000014" class="node">
<title>Node14</title>
<g id="a_Node000014"><a xlink:title=" ">
<polygon fill="#e0e0e0" stroke="#999999" points="1672.26,-19 1619.26,-19 1619.26,0 1672.26,0 1672.26,-19"/>
<text text-anchor="middle" x="1645.76" y="-7" font-family="Helvetica,sans-Serif" font-size="10.00">netdb.h</text>
</a>
</g>
</g>
<!-- Node10&#45;&gt;Node14 -->
<g id="edge13_Node000010_Node000014" class="edge">
<title>Node10&#45;&gt;Node14</title>
<g id="a_edge13_Node000010_Node000014"><a xlink:title=" ">
<path fill="none" stroke="#63b8ff" d="M1420.14,-133.37C1423.39,-132.86 1426.61,-132.4 1429.76,-132 1507.58,-122.17 2080.73,-152.86 2134.76,-96 2147.32,-82.79 2147.05,-68.46 2134.76,-55 2104.41,-21.76 1791.27,-13.08 1682.63,-11.06"/>
<polygon fill="#63b8ff" stroke="#63b8ff" points="1682.54,-7.56 1672.48,-10.88 1682.42,-14.55 1682.54,-7.56"/>
</a>
</g>
</g>
<!-- Node15 -->
<g id="Node000015" class="node">
<title>Node15</title>
<g id="a_Node000015"><a xlink:title=" ">
<polygon fill="#e0e0e0" stroke="#999999" points="1283.76,-85 1227.76,-85 1227.76,-66 1283.76,-66 1283.76,-85"/>
<text text-anchor="middle" x="1255.76" y="-73" font-family="Helvetica,sans-Serif" font-size="10.00">unistd.h</text>
</a>
</g>
</g>
<!-- Node10&#45;&gt;Node15 -->
<g id="edge14_Node000010_Node000015" class="edge">
<title>Node10&#45;&gt;Node15</title>
<g id="a_edge14_Node000010_Node000015"><a xlink:title=" ">
<path fill="none" stroke="#63b8ff" d="M1339.51,-131.94C1321.45,-119.98 1295.62,-102.88 1277.44,-90.85"/>
<polygon fill="#63b8ff" stroke="#63b8ff" points="1278.98,-87.67 1268.71,-85.07 1275.11,-93.51 1278.98,-87.67"/>
</a>
</g>
</g>
<!-- Node16 -->
<g id="Node000016" class="node">
<title>Node16</title>
<g id="a_Node000016"><a xlink:href="_types_8hpp.html" target="_top" xlink:title=" ">
<polygon fill="white" stroke="#666666" points="1419.76,-90.5 1301.76,-90.5 1301.76,-60.5 1419.76,-60.5 1419.76,-90.5"/>
<text text-anchor="start" x="1309.76" y="-78.5" font-family="Helvetica,sans-Serif" font-size="10.00">Hermes/_base/OsApi</text>
<text text-anchor="middle" x="1360.76" y="-67.5" font-family="Helvetica,sans-Serif" font-size="10.00">/Types.hpp</text>
</a>
</g>
</g>
<!-- Node10&#45;&gt;Node16 -->
<g id="edge15_Node000010_Node000016" class="edge">
<title>Node10&#45;&gt;Node16</title>
<g id="a_edge15_Node000010_Node000016"><a xlink:title=" ">
<path fill="none" stroke="#63b8ff" d="M1360.76,-131.94C1360.76,-122.99 1360.76,-111.16 1360.76,-100.73"/>
<polygon fill="#63b8ff" stroke="#63b8ff" points="1364.26,-100.54 1360.76,-90.54 1357.26,-100.54 1364.26,-100.54"/>
</a>
</g>
</g>
<!-- Node17 -->
<g id="Node000017" class="node">
<title>Node17</title>
<g id="a_Node000017"><a xlink:href="_conversion_and_literals_8hpp.html" target="_top" xlink:title=" ">
<polygon fill="white" stroke="#666666" points="712.76,-90.5 562.76,-90.5 562.76,-60.5 712.76,-60.5 712.76,-90.5"/>
<text text-anchor="start" x="570.76" y="-78.5" font-family="Helvetica,sans-Serif" font-size="10.00">Hermes/_base/OsApi</text>
<text text-anchor="middle" x="637.76" y="-67.5" font-family="Helvetica,sans-Serif" font-size="10.00">/ConversionAndLiterals.hpp</text>
</a>
</g>
</g>
<!-- Node10&#45;&gt;Node17 -->
<g id="edge16_Node000010_Node000017" class="edge">
<title>Node10&#45;&gt;Node17</title>
<g id="a_edge16_Node000010_Node000017"><a xlink:title=" ">
<path fill="none" stroke="#63b8ff" d="M1301.46,-144.03C1188.89,-139.7 936.73,-127.13 726.76,-96 720.14,-95.02 713.27,-93.83 706.43,-92.52"/>
<polygon fill="#63b8ff" stroke="#63b8ff" points="706.93,-89.06 696.44,-90.55 705.57,-95.92 706.93,-89.06"/>
</a>
</g>
</g>
<!-- Node19 -->
<g id="Node000019" class="node">
<title>Node19</title>
<g id="a_Node000019"><a xlink:href="_macros_8hpp.html" target="_top" xlink:title=" ">
<polygon fill="white" stroke="#666666" points="2910.76,-90.5 2792.76,-90.5 2792.76,-60.5 2910.76,-60.5 2910.76,-90.5"/>
<text text-anchor="start" x="2800.76" y="-78.5" font-family="Helvetica,sans-Serif" font-size="10.00">Hermes/_base/OsApi</text>
<text text-anchor="middle" x="2851.76" y="-67.5" font-family="Helvetica,sans-Serif" font-size="10.00">/Macros.hpp</text>
</a>
</g>
</g>
<!-- Node10&#45;&gt;Node19 -->
<g id="edge18_Node000010_Node000019" class="edge">
<title>Node10&#45;&gt;Node19</title>
<g id="a_edge18_Node000010_Node000019"><a xlink:title=" ">
<path fill="none" stroke="#63b8ff" d="M1420.13,-133.27C1423.38,-132.79 1426.61,-132.36 1429.76,-132 2027.89,-63.89 2188.8,-187.7 2783.76,-96 2788.79,-95.22 2793.98,-94.19 2799.13,-93"/>
<polygon fill="#63b8ff" stroke="#63b8ff" points="2800.11,-96.36 2808.96,-90.55 2798.41,-89.57 2800.11,-96.36"/>
</a>
</g>
</g>
<!-- Node21 -->
<g id="Node000021" class="node">
<title>Node21</title>
<g id="a_Node000021"><a xlink:href="_address_family_enum_8hpp.html" target="_top" xlink:title=" ">
<polygon fill="white" stroke="#666666" points="2571.76,-90.5 2395.76,-90.5 2395.76,-60.5 2571.76,-60.5 2571.76,-90.5"/>
<text text-anchor="start" x="2403.76" y="-78.5" font-family="Helvetica,sans-Serif" font-size="10.00">Hermes/_base/OsApi</text>
<text text-anchor="middle" x="2483.76" y="-67.5" font-family="Helvetica,sans-Serif" font-size="10.00">/Enums/AddressFamilyEnum.hpp</text>
</a>
</g>
</g>
<!-- Node10&#45;&gt;Node21 -->
<g id="edge21_Node000010_Node000021" class="edge">
<title>Node10&#45;&gt;Node21</title>
<g id="a_edge21_Node000010_Node000021"><a xlink:title=" ">
<path fill="none" stroke="#63b8ff" d="M1420.13,-133.32C1423.38,-132.82 1426.61,-132.38 1429.76,-132 1850.18,-81.74 1961.07,-143.89 2381.76,-96 2390.42,-95.01 2399.44,-93.71 2408.38,-92.23"/>
<polygon fill="#63b8ff" stroke="#63b8ff" points="2409.16,-95.65 2418.42,-90.51 2407.97,-88.75 2409.16,-95.65"/>
</a>
</g>
</g>
<!-- Node22 -->
<g id="Node000022" class="node">
<title>Node22</title>
<g id="a_Node000022"><a xlink:href="_protocol_base_type_enum_8hpp.html" target="_top" xlink:title=" ">
<polygon fill="white" stroke="#666666" points="960.26,-90.5 769.26,-90.5 769.26,-60.5 960.26,-60.5 960.26,-90.5"/>
<text text-anchor="start" x="777.26" y="-78.5" font-family="Helvetica,sans-Serif" font-size="10.00">Hermes/_base/OsApi</text>
<text text-anchor="middle" x="864.76" y="-67.5" font-family="Helvetica,sans-Serif" font-size="10.00">/Enums/ProtocolBaseTypeEnum.hpp</text>
</a>
</g>
</g>
<!-- Node10&#45;&gt;Node22 -->
<g id="edge23_Node000010_Node000022" class="edge">
<title>Node10&#45;&gt;Node22</title>
<g id="a_edge23_Node000010_Node000022"><a xlink:title=" ">
<path fill="none" stroke="#63b8ff" d="M1301.66,-139.49C1224.96,-130.81 1087.07,-114.38 969.76,-96 962.44,-94.85 954.84,-93.59 947.24,-92.27"/>
<polygon fill="#63b8ff" stroke="#63b8ff" points="947.71,-88.8 937.25,-90.51 946.5,-95.69 947.71,-88.8"/>
</a>
</g>
</g>
<!-- Node23 -->
<g id="Node000023" class="node">
<title>Node23</title>
<g id="a_Node000023"><a xlink:href="_socket_shutdown_enum_8hpp.html" target="_top" xlink:title=" ">
<polygon fill="white" stroke="#666666" points="2774.26,-90.5 2589.26,-90.5 2589.26,-60.5 2774.26,-60.5 2774.26,-90.5"/>
<text text-anchor="start" x="2597.26" y="-78.5" font-family="Helvetica,sans-Serif" font-size="10.00">Hermes/_base/OsApi</text>
<text text-anchor="middle" x="2681.76" y="-67.5" font-family="Helvetica,sans-Serif" font-size="10.00">/Enums/SocketShutdownEnum.hpp</text>
</a>
</g>
</g>
<!-- Node10&#45;&gt;Node23 -->
<g id="edge25_Node000010_Node000023" class="edge">
<title>Node10&#45;&gt;Node23</title>
<g id="a_edge25_Node000010_Node000023"><a xlink:title=" ">
<path fill="none" stroke="#63b8ff" d="M1420.13,-133.29C1423.38,-132.8 1426.61,-132.37 1429.76,-132 1938.15,-72.9 2072.11,-152.69 2580.76,-96 2589.4,-95.04 2598.41,-93.74 2607.33,-92.26"/>
<polygon fill="#63b8ff" stroke="#63b8ff" points="2608.08,-95.68 2617.34,-90.52 2606.89,-88.78 2608.08,-95.68"/>
</a>
</g>
</g>
<!-- Node24 -->
<g id="Node000024" class="node">
<title>Node24</title>
<g id="a_Node000024"><a xlink:href="_socket_type_enum_8hpp.html" target="_top" xlink:title=" ">
<polygon fill="white" stroke="#666666" points="2340.26,-90.5 2181.26,-90.5 2181.26,-60.5 2340.26,-60.5 2340.26,-90.5"/>
<text text-anchor="start" x="2189.26" y="-78.5" font-family="Helvetica,sans-Serif" font-size="10.00">Hermes/_base/OsApi</text>
<text text-anchor="middle" x="2260.76" y="-67.5" font-family="Helvetica,sans-Serif" font-size="10.00">/Enums/SocketTypeEnum.hpp</text>
</a>
</g>
</g>
<!-- Node10&#45;&gt;Node24 -->
<g id="edge27_Node000010_Node000024" class="edge">
<title>Node10&#45;&gt;Node24</title>
<g id="a_edge27_Node000010_Node000024"><a xlink:title=" ">
<path fill="none" stroke="#63b8ff" d="M1420.14,-133.36C1423.38,-132.85 1426.61,-132.39 1429.76,-132 1755.61,-91.23 1842.05,-137.83 2167.76,-96 2175.16,-95.05 2182.84,-93.83 2190.48,-92.46"/>
<polygon fill="#63b8ff" stroke="#63b8ff" points="2191.28,-95.87 2200.47,-90.59 2189.99,-88.99 2191.28,-95.87"/>
</a>
</g>
</g>
<!-- Node25 -->
<g id="Node000025" class="node">
<title>Node25</title>
<g id="a_Node000025"><a xlink:href="_linux_2_encrypt_status_enum_8hpp.html" target="_top" xlink:title=" ">
<polygon fill="white" stroke="#666666" points="1609.76,-96 1437.76,-96 1437.76,-55 1609.76,-55 1609.76,-96"/>
<text text-anchor="start" x="1445.76" y="-84" font-family="Helvetica,sans-Serif" font-size="10.00">Hermes/_base/OsApi</text>
<text text-anchor="start" x="1445.76" y="-73" font-family="Helvetica,sans-Serif" font-size="10.00">/Enums/_os/Linux/EncryptStatus</text>
<text text-anchor="middle" x="1523.76" y="-62" font-family="Helvetica,sans-Serif" font-size="10.00">Enum.hpp</text>
</a>
</g>
</g>
<!-- Node10&#45;&gt;Node25 -->
<g id="edge29_Node000010_Node000025" class="edge">
<title>Node10&#45;&gt;Node25</title>
<g id="a_edge29_Node000010_Node000025"><a xlink:title=" ">
<path fill="none" stroke="#63b8ff" d="M1393.75,-131.94C1415.2,-122.79 1443.69,-110.64 1468.54,-100.05"/>
<polygon fill="#63b8ff" stroke="#63b8ff" points="1470.03,-103.22 1477.86,-96.07 1467.29,-96.78 1470.03,-103.22"/>
</a>
</g>
</g>
<!-- Node26 -->
<g id="Node000026" class="node">
<title>Node26</title>
<g id="a_Node000026"><a xlink:href="_name_info_flags_8hpp.html" target="_top" xlink:title=" ">
<polygon fill="white" stroke="#666666" points="1209.76,-90.5 1065.76,-90.5 1065.76,-60.5 1209.76,-60.5 1209.76,-90.5"/>
<text text-anchor="start" x="1073.76" y="-78.5" font-family="Helvetica,sans-Serif" font-size="10.00">Hermes/_base/OsApi</text>
<text text-anchor="middle" x="1137.76" y="-67.5" font-family="Helvetica,sans-Serif" font-size="10.00">/Flags/NameInfoFlags.hpp</text>
</a>
</g>
</g>
<!-- Node10&#45;&gt;Node26 -->
<g id="edge30_Node000010_Node000026" class="edge">
<title>Node10&#45;&gt;Node26</title>
<g id="a_edge30_Node000010_Node000026"><a xlink:title=" ">
<path fill="none" stroke="#63b8ff" d="M1315.64,-131.94C1280.12,-120.87 1230.48,-105.4 1192.66,-93.61"/>
<polygon fill="#63b8ff" stroke="#63b8ff" points="1193.41,-90.18 1182.82,-90.54 1191.33,-96.86 1193.41,-90.18"/>
</a>
</g>
</g>
<!-- Node27 -->
<g id="Node000027" class="node">
<title>Node27</title>
<g id="a_Node000027"><a xlink:href="_linux_2_credential_flags_8hpp.html" target="_top" xlink:title=" ">
<polygon fill="white" stroke="#666666" points="1775.76,-96 1627.76,-96 1627.76,-55 1775.76,-55 1775.76,-96"/>
<text text-anchor="start" x="1635.76" y="-84" font-family="Helvetica,sans-Serif" font-size="10.00">Hermes/_base/OsApi</text>
<text text-anchor="start" x="1635.76" y="-73" font-family="Helvetica,sans-Serif" font-size="10.00">/Flags/_os/Linux/Credential</text>
<text text-anchor="middle" x="1701.76" y="-62" font-family="Helvetica,sans-Serif" font-size="10.00">Flags.hpp</text>
</a>
</g>
</g>
<!-- Node10&#45;&gt;Node27 -->
<g id="edge32_Node000010_Node000027" class="edge">
<title>Node10&#45;&gt;Node27</title>
<g id="a_edge32_Node000010_Node000027"><a xlink:title=" ">
<path fill="none" stroke="#63b8ff" d="M1419.85,-133.96C1423.2,-133.3 1426.52,-132.64 1429.76,-132 1510.55,-116.11 1533.44,-113.93 1617.58,-96.21"/>
<polygon fill="#63b8ff" stroke="#63b8ff" points="1618.53,-99.59 1627.59,-94.09 1617.08,-92.74 1618.53,-99.59"/>
</a>
</g>
</g>
<!-- Node28 -->
<g id="Node000028" class="node">
<title>Node28</title>
<g id="a_Node000028"><a xlink:href="_linux_2_supported_protocols_flags_8hpp.html" target="_top" xlink:title=" ">
<polygon fill="white" stroke="#666666" points="1941.26,-96 1794.26,-96 1794.26,-55 1941.26,-55 1941.26,-96"/>
<text text-anchor="start" x="1802.26" y="-84" font-family="Helvetica,sans-Serif" font-size="10.00">Hermes/_base/OsApi</text>
<text text-anchor="start" x="1802.26" y="-73" font-family="Helvetica,sans-Serif" font-size="10.00">/Flags/_os/Linux/Supported</text>
<text text-anchor="middle" x="1867.76" y="-62" font-family="Helvetica,sans-Serif" font-size="10.00">ProtocolsFlags.hpp</text>
</a>
</g>
</g>
<!-- Node10&#45;&gt;Node28 -->
<g id="edge33_Node000010_Node000028" class="edge">
<title>Node10&#45;&gt;Node28</title>
<g id="a_edge33_Node000010_Node000028"><a xlink:title=" ">
<path fill="none" stroke="#63b8ff" d="M1419.79,-133.62C1423.16,-133.04 1426.5,-132.5 1429.76,-132 1583.34,-108.69 1626.59,-121.63 1784.05,-95.99"/>
<polygon fill="#63b8ff" stroke="#63b8ff" points="1784.8,-99.42 1794.1,-94.33 1783.66,-92.51 1784.8,-99.42"/>
</a>
</g>
</g>
<!-- Node29 -->
<g id="Node000029" class="node">
<title>Node29</title>
<g id="a_Node000029"><a xlink:href="_linux_2_s_channel_cred_flags_8hpp.html" target="_top" xlink:title=" ">
<polygon fill="white" stroke="#666666" points="2125.76,-96 1959.76,-96 1959.76,-55 2125.76,-55 2125.76,-96"/>
<text text-anchor="start" x="1967.76" y="-84" font-family="Helvetica,sans-Serif" font-size="10.00">Hermes/_base/OsApi</text>
<text text-anchor="start" x="1967.76" y="-73" font-family="Helvetica,sans-Serif" font-size="10.00">/Flags/_os/Linux/SChannelCred</text>
<text text-anchor="middle" x="2042.76" y="-62" font-family="Helvetica,sans-Serif" font-size="10.00">Flags.hpp</text>
</a>
</g>
</g>
<!-- Node10&#45;&gt;Node29 -->
<g id="edge34_Node000010_Node000029" class="edge">
<title>Node10&#45;&gt;Node29</title>
<g id="a_edge34_Node000010_Node000029"><a xlink:title=" ">
<path fill="none" stroke="#63b8ff" d="M1419.77,-133.5C1423.14,-132.95 1426.49,-132.44 1429.76,-132 1656.51,-101.3 1719.13,-127.38 1949.58,-96.05"/>
<polygon fill="#63b8ff" stroke="#63b8ff" points="1950.18,-99.5 1959.61,-94.67 1949.23,-92.57 1950.18,-99.5"/>
</a>
</g>
</g>
<!-- Node18 -->
<g id="Node000018" class="node">
<title>Node18</title>
<g id="a_Node000018"><a xlink:title=" ">
<polygon fill="#e0e0e0" stroke="#999999" points="345.76,-19 295.76,-19 295.76,0 345.76,0 345.76,-19"/>
<text text-anchor="middle" x="320.76" y="-7" font-family="Helvetica,sans-Serif" font-size="10.00">cstdint</text>
</a>
</g>
</g>
<!-- Node17&#45;&gt;Node18 -->
<g id="edge17_Node000017_Node000018" class="edge">
<title>Node17&#45;&gt;Node18</title>
<g id="a_edge17_Node000017_Node000018"><a xlink:title=" ">
<path fill="none" stroke="#63b8ff" d="M578.63,-60.46C570.29,-58.58 561.82,-56.7 553.76,-55 483.86,-40.22 401.7,-25.03 355.99,-16.78"/>
<polygon fill="#63b8ff" stroke="#63b8ff" points="356.46,-13.31 346,-14.98 355.22,-20.2 356.46,-13.31"/>
</a>
</g>
</g>
<!-- Node19&#45;&gt;Node11 -->
<g id="edge20_Node000019_Node000011" class="edge">
<title>Node19&#45;&gt;Node11</title>
<g id="a_edge20_Node000019_Node000011"><a xlink:title=" ">
<path fill="none" stroke="#63b8ff" d="M2805.88,-60.45C2798.53,-58.46 2790.96,-56.56 2783.76,-55 2696.14,-36.02 2592.35,-22.6 2532.68,-15.74"/>
<polygon fill="#63b8ff" stroke="#63b8ff" points="2532.75,-12.23 2522.42,-14.58 2531.96,-19.19 2532.75,-12.23"/>
</a>
</g>
</g>
<!-- Node20 -->
<g id="Node000020" class="node">
<title>Node20</title>
<g id="a_Node000020"><a xlink:title=" ">
<polygon fill="#e0e0e0" stroke="#999999" points="2888.26,-19 2815.26,-19 2815.26,0 2888.26,0 2888.26,-19"/>
<text text-anchor="middle" x="2851.76" y="-7" font-family="Helvetica,sans-Serif" font-size="10.00">string_view</text>
</a>
</g>
</g>
<!-- Node19&#45;&gt;Node20 -->
<g id="edge19_Node000019_Node000020" class="edge">
<title>Node19&#45;&gt;Node20</title>
<g id="a_edge19_Node000019_Node000020"><a xlink:title=" ">
<path fill="none" stroke="#63b8ff" d="M2851.76,-60.3C2851.76,-51.2 2851.76,-39.29 2851.76,-29.4"/>
<polygon fill="#63b8ff" stroke="#63b8ff" points="2855.26,-29.34 2851.76,-19.34 2848.26,-29.34 2855.26,-29.34"/>
</a>
</g>
</g>
<!-- Node21&#45;&gt;Node11 -->
<g id="edge22_Node000021_Node000011" class="edge">
<title>Node21&#45;&gt;Node11</title>
<g id="a_edge22_Node000021_Node000011"><a xlink:title=" ">
<path fill="none" stroke="#63b8ff" d="M2483.76,-60.3C2483.76,-51.2 2483.76,-39.29 2483.76,-29.4"/>
<polygon fill="#63b8ff" stroke="#63b8ff" points="2487.26,-29.34 2483.76,-19.34 2480.26,-29.34 2487.26,-29.34"/>
</a>
</g>
</g>
<!-- Node22&#45;&gt;Node12 -->
<g id="edge24_Node000022_Node000012" class="edge">
<title>Node22&#45;&gt;Node12</title>
<g id="a_edge24_Node000022_Node000012"><a xlink:title=" ">
<path fill="none" stroke="#63b8ff" d="M851,-60.3C841.34,-50.32 828.39,-36.96 818.35,-26.59"/>
<polygon fill="#63b8ff" stroke="#63b8ff" points="820.8,-24.09 811.33,-19.34 815.77,-28.96 820.8,-24.09"/>
</a>
</g>
</g>
<!-- Node23&#45;&gt;Node11 -->
<g id="edge26_Node000023_Node000011" class="edge">
<title>Node23&#45;&gt;Node11</title>
<g id="a_edge26_Node000023_Node000011"><a xlink:title=" ">
<path fill="none" stroke="#63b8ff" d="M2638.31,-60.45C2602.82,-48.98 2553.25,-32.96 2519.91,-22.18"/>
<polygon fill="#63b8ff" stroke="#63b8ff" points="2520.71,-18.76 2510.11,-19.02 2518.55,-25.42 2520.71,-18.76"/>
</a>
</g>
</g>
<!-- Node24&#45;&gt;Node11 -->
<g id="edge28_Node000024_Node000011" class="edge">
<title>Node24&#45;&gt;Node11</title>
<g id="a_edge28_Node000024_Node000011"><a xlink:title=" ">
<path fill="none" stroke="#63b8ff" d="M2309.7,-60.45C2350.02,-48.88 2406.46,-32.68 2444.02,-21.91"/>
<polygon fill="#63b8ff" stroke="#63b8ff" points="2445.44,-25.14 2454.09,-19.02 2443.51,-18.41 2445.44,-25.14"/>
</a>
</g>
</g>
<!-- Node26&#45;&gt;Node14 -->
<g id="edge31_Node000026_Node000014" class="edge">
<title>Node26&#45;&gt;Node14</title>
<g id="a_edge31_Node000026_Node000014"><a xlink:title=" ">
<path fill="none" stroke="#63b8ff" d="M1191.58,-60.49C1200.62,-58.44 1209.92,-56.52 1218.76,-55 1361.94,-30.42 1534.63,-17.47 1608.89,-12.69"/>
<polygon fill="#63b8ff" stroke="#63b8ff" points="1609.35,-16.17 1619.11,-12.05 1608.91,-9.18 1609.35,-16.17"/>
</a>
</g>
</g>
<!-- Node32&#45;&gt;Node2 -->
<g id="edge41_Node000032_Node000002" class="edge">
<title>Node32&#45;&gt;Node2</title>
<g id="a_edge41_Node000032_Node000002"><a xlink:title=" ">
<path fill="none" stroke="#63b8ff" d="M826.56,-384.9C876.81,-358.12 965.58,-310.83 1008.77,-287.82"/>
<polygon fill="#63b8ff" stroke="#63b8ff" points="1010.57,-290.82 1017.75,-283.03 1007.28,-284.65 1010.57,-290.82"/>
</a>
</g>
</g>
<!-- Node32&#45;&gt;Node7 -->
<g id="edge50_Node000032_Node000007" class="edge">
<title>Node32&#45;&gt;Node7</title>
<g id="a_edge50_Node000032_Node000007"><a xlink:title=" ">
<path fill="none" stroke="#63b8ff" d="M718.12,-400.21C638.13,-391.08 519.76,-362.68 519.76,-274.5 519.76,-274.5 519.76,-274.5 519.76,-212 519.76,-170.36 522.15,-121.56 523.63,-95.38"/>
<polygon fill="#63b8ff" stroke="#63b8ff" points="527.14,-95.24 524.23,-85.06 520.15,-94.84 527.14,-95.24"/>
</a>
</g>
</g>
<!-- Node32&#45;&gt;Node18 -->
<g id="edge51_Node000032_Node000018" class="edge">
<title>Node32&#45;&gt;Node18</title>
<g id="a_edge51_Node000032_Node000018"><a xlink:title=" ">
<path fill="none" stroke="#63b8ff" d="M718.19,-400.17C524.18,-387.47 2.76,-346.64 2.76,-274.5 2.76,-274.5 2.76,-274.5 2.76,-146 2.76,-104.68 -8.29,-83.35 21.76,-55 59.16,-19.71 214.47,-12.37 285.29,-10.87"/>
<polygon fill="#63b8ff" stroke="#63b8ff" points="285.57,-14.37 295.5,-10.68 285.44,-7.37 285.57,-14.37"/>
</a>
</g>
</g>
<!-- Node33 -->
<g id="Node000033" class="node">
<title>Node33</title>
<g id="a_Node000033"><a xlink:href="_transfer_io_8hpp.html" target="_top" xlink:title=" ">
<polygon fill="white" stroke="#666666" points="855.26,-349 724.26,-349 724.26,-319 855.26,-319 855.26,-349"/>
<text text-anchor="start" x="732.26" y="-337" font-family="Helvetica,sans-Serif" font-size="10.00">Hermes/Socket/_base</text>
<text text-anchor="middle" x="789.76" y="-326" font-family="Helvetica,sans-Serif" font-size="10.00">/Transfer/TransferIo.hpp</text>
</a>
</g>
</g>
<!-- Node32&#45;&gt;Node33 -->
<g id="edge42_Node000032_Node000033" class="edge">
<title>Node32&#45;&gt;Node33</title>
<g id="a_edge42_Node000032_Node000033"><a xlink:title=" ">
<path fill="none" stroke="#63b8ff" d="M789.76,-384.77C789.76,-376.85 789.76,-367.63 789.76,-359.3"/>
<polygon fill="#63b8ff" stroke="#63b8ff" points="793.26,-359.04 789.76,-349.04 786.26,-359.04 793.26,-359.04"/>
</a>
</g>
</g>
<!-- Node33&#45;&gt;Node2 -->
<g id="edge43_Node000033_Node000002" class="edge">
<title>Node33&#45;&gt;Node2</title>
<g id="a_edge43_Node000033_Node000002"><a xlink:title=" ">
<path fill="none" stroke="#63b8ff" d="M848.21,-318.99C891.14,-308.7 948.63,-294.91 988.19,-285.43"/>
<polygon fill="#63b8ff" stroke="#63b8ff" points="989.18,-288.79 998.09,-283.05 987.55,-281.98 989.18,-288.79"/>
</a>
</g>
</g>
<!-- Node34 -->
<g id="Node000034" class="node">
<title>Node34</title>
<g id="a_Node000034"><a xlink:title=" ">
<polygon fill="#e0e0e0" stroke="#999999" points="943.76,-283 893.76,-283 893.76,-264 943.76,-264 943.76,-283"/>
<text text-anchor="middle" x="918.76" y="-271" font-family="Helvetica,sans-Serif" font-size="10.00">chrono</text>
</a>
</g>
</g>
<!-- Node33&#45;&gt;Node34 -->
<g id="edge44_Node000033_Node000034" class="edge">
<title>Node33&#45;&gt;Node34</title>
<g id="a_edge44_Node000033_Node000034"><a xlink:title=" ">
<path fill="none" stroke="#63b8ff" d="M820.66,-318.99C841.9,-309.36 869.87,-296.67 890.51,-287.31"/>
<polygon fill="#63b8ff" stroke="#63b8ff" points="892.05,-290.46 899.71,-283.14 889.16,-284.08 892.05,-290.46"/>
</a>
</g>
</g>
<!-- Node35 -->
<g id="Node000035" class="node">
<title>Node35</title>
<g id="a_Node000035"><a xlink:title=" ">
<polygon fill="#e0e0e0" stroke="#999999" points="603.76,-283 547.76,-283 547.76,-264 603.76,-264 603.76,-283"/>
<text text-anchor="middle" x="575.76" y="-271" font-family="Helvetica,sans-Serif" font-size="10.00">optional</text>
</a>
</g>
</g>
<!-- Node33&#45;&gt;Node35 -->
<g id="edge45_Node000033_Node000035" class="edge">
<title>Node33&#45;&gt;Node35</title>
<g id="a_edge45_Node000033_Node000035"><a xlink:title=" ">
<path fill="none" stroke="#63b8ff" d="M738.5,-318.99C700.13,-308.5 648.48,-294.38 613.75,-284.88"/>
<polygon fill="#63b8ff" stroke="#63b8ff" points="614.56,-281.48 603.99,-282.22 612.71,-288.23 614.56,-281.48"/>
</a>
</g>
</g>
<!-- Node36 -->
<g id="Node000036" class="node">
<title>Node36</title>
<g id="a_Node000036"><a xlink:title=" ">
<polygon fill="#e0e0e0" stroke="#999999" points="685.76,-283 621.76,-283 621.76,-264 685.76,-264 685.76,-283"/>
<text text-anchor="middle" x="653.76" y="-271" font-family="Helvetica,sans-Serif" font-size="10.00">algorithm</text>
</a>
</g>
</g>
<!-- Node33&#45;&gt;Node36 -->
<g id="edge46_Node000033_Node000036" class="edge">
<title>Node33&#45;&gt;Node36</title>
<g id="a_edge46_Node000033_Node000036"><a xlink:title=" ">
<path fill="none" stroke="#63b8ff" d="M757.19,-318.99C734.7,-309.31 705.04,-296.56 683.25,-287.18"/>
<polygon fill="#63b8ff" stroke="#63b8ff" points="684.42,-283.88 673.85,-283.14 681.65,-290.31 684.42,-283.88"/>
</a>
</g>
</g>
<!-- Node37 -->
<g id="Node000037" class="node">
<title>Node37</title>
<g id="a_Node000037"><a xlink:title=" ">
<polygon fill="#e0e0e0" stroke="#999999" points="747.76,-283 703.76,-283 703.76,-264 747.76,-264 747.76,-283"/>
<text text-anchor="middle" x="725.76" y="-271" font-family="Helvetica,sans-Serif" font-size="10.00">limits</text>
</a>
</g>
</g>
<!-- Node33&#45;&gt;Node37 -->
<g id="edge47_Node000033_Node000037" class="edge">
<title>Node33&#45;&gt;Node37</title>
<g id="a_edge47_Node000033_Node000037"><a xlink:title=" ">
<path fill="none" stroke="#63b8ff" d="M774.27,-318.84C764.79,-310.17 752.65,-299.08 742.89,-290.15"/>
<polygon fill="#63b8ff" stroke="#63b8ff" points="745.1,-287.43 735.35,-283.27 740.37,-292.6 745.1,-287.43"/>
</a>
</g>
</g>
<!-- Node38 -->
<g id="Node000038" class="node">
<title>Node38</title>
<g id="a_Node000038"><a xlink:title=" ">
<polygon fill="#e0e0e0" stroke="#999999" points="813.26,-283 766.26,-283 766.26,-264 813.26,-264 813.26,-283"/>
<text text-anchor="middle" x="789.76" y="-271" font-family="Helvetica,sans-Serif" font-size="10.00">fcntl.h</text>
</a>
</g>
</g>
<!-- Node33&#45;&gt;Node38 -->
<g id="edge48_Node000033_Node000038" class="edge">
<title>Node33&#45;&gt;Node38</title>
<g id="a_edge48_Node000033_Node000038"><a xlink:title=" ">
<path fill="none" stroke="#63b8ff" d="M789.76,-318.84C789.76,-311.21 789.76,-301.7 789.76,-293.45"/>
<polygon fill="#63b8ff" stroke="#63b8ff" points="793.26,-293.27 789.76,-283.27 786.26,-293.27 793.26,-293.27"/>
</a>
</g>
</g>
<!-- Node39 -->
<g id="Node000039" class="node">
<title>Node39</title>
<g id="a_Node000039"><a xlink:title=" ">
<polygon fill="#e0e0e0" stroke="#999999" points="875.76,-283 831.76,-283 831.76,-264 875.76,-264 875.76,-283"/>
<text text-anchor="middle" x="853.76" y="-271" font-family="Helvetica,sans-Serif" font-size="10.00">poll.h</text>
</a>
</g>
</g>
<!-- Node33&#45;&gt;Node39 -->
<g id="edge49_Node000033_Node000039" class="edge">
<title>Node33&#45;&gt;Node39</title>
<g id="a_edge49_Node000033_Node000039"><a xlink:title=" ">
<path fill="none" stroke="#63b8ff" d="M805.26,-318.84C814.74,-310.17 826.88,-299.08 836.64,-290.15"/>
<polygon fill="#63b8ff" stroke="#63b8ff" points="839.15,-292.6 844.17,-283.27 834.43,-287.43 839.15,-292.6"/>
</a>
</g>
</g>
<!-- Node40&#45;&gt;Node7 -->
<g id="edge57_Node000040_Node000007" class="edge">
<title>Node40&#45;&gt;Node7</title>
<g id="a_edge57_Node000040_Node000007"><a xlink:title=" ">
<path fill="none" stroke="#63b8ff" d="M1365.64,-207.52C1192.83,-194.29 703.54,-152.72 553.76,-96 550.31,-94.69 546.86,-92.91 543.61,-90.94"/>
<polygon fill="#63b8ff" stroke="#63b8ff" points="545.36,-87.9 535.12,-85.18 541.43,-93.69 545.36,-87.9"/>
</a>
</g>
</g>
<!-- Node40&#45;&gt;Node10 -->
<g id="edge53_Node000040_Node000010" class="edge">
<title>Node40&#45;&gt;Node10</title>
<g id="a_edge53_Node000040_Node000010"><a xlink:title=" ">
<path fill="none" stroke="#63b8ff" d="M1412.12,-197.8C1403.49,-189.43 1392.4,-178.68 1382.74,-169.31"/>
<polygon fill="#63b8ff" stroke="#63b8ff" points="1384.98,-166.61 1375.37,-162.16 1380.11,-171.64 1384.98,-166.61"/>
</a>
</g>
</g>
<!-- Node41 -->
<g id="Node000041" class="node">
<title>Node41</title>
<g id="a_Node000041"><a xlink:title=" ">
<polygon fill="#e0e0e0" stroke="#999999" points="1491.26,-156.5 1438.26,-156.5 1438.26,-137.5 1491.26,-137.5 1491.26,-156.5"/>
<text text-anchor="middle" x="1464.76" y="-144.5" font-family="Helvetica,sans-Serif" font-size="10.00">cstddef</text>
</a>
</g>
</g>
<!-- Node40&#45;&gt;Node41 -->
<g id="edge54_Node000040_Node000041" class="edge">
<title>Node40&#45;&gt;Node41</title>
<g id="a_edge54_Node000040_Node000041"><a xlink:title=" ">
<path fill="none" stroke="#63b8ff" d="M1435.2,-197.8C1440.83,-188.31 1448.28,-175.76 1454.29,-165.63"/>
<polygon fill="#63b8ff" stroke="#63b8ff" points="1457.42,-167.23 1459.51,-156.84 1451.4,-163.66 1457.42,-167.23"/>
</a>
</g>
</g>
<!-- Node42 -->
<g id="Node000042" class="node">
<title>Node42</title>
<g id="a_Node000042"><a xlink:title=" ">
<polygon fill="#e0e0e0" stroke="#999999" points="1553.76,-156.5 1509.76,-156.5 1509.76,-137.5 1553.76,-137.5 1553.76,-156.5"/>
<text text-anchor="middle" x="1531.76" y="-144.5" font-family="Helvetica,sans-Serif" font-size="10.00">string</text>
</a>
</g>
</g>
<!-- Node40&#45;&gt;Node42 -->
<g id="edge55_Node000040_Node000042" class="edge">
<title>Node40&#45;&gt;Node42</title>
<g id="a_edge55_Node000040_Node000042"><a xlink:title=" ">
<path fill="none" stroke="#63b8ff" d="M1449.81,-197.95C1467.33,-187.27 1491.32,-172.65 1508.82,-161.98"/>
<polygon fill="#63b8ff" stroke="#63b8ff" points="1511.07,-164.71 1517.79,-156.52 1507.43,-158.73 1511.07,-164.71"/>
</a>
</g>
</g>
<!-- Node43 -->
<g id="Node000043" class="node">
<title>Node43</title>
<g id="a_Node000043"><a xlink:title=" ">
<polygon fill="#e0e0e0" stroke="#999999" points="1629.76,-156.5 1571.76,-156.5 1571.76,-137.5 1629.76,-137.5 1629.76,-156.5"/>
<text text-anchor="middle" x="1600.76" y="-144.5" font-family="Helvetica,sans-Serif" font-size="10.00">memory</text>
</a>
</g>
</g>
<!-- Node40&#45;&gt;Node43 -->
<g id="edge56_Node000040_Node000043" class="edge">
<title>Node40&#45;&gt;Node43</title>
<g id="a_edge56_Node000040_Node000043"><a xlink:title=" ">
<path fill="none" stroke="#63b8ff" d="M1464.87,-198C1492.14,-187.98 1529.71,-174.16 1562.76,-162 1564.4,-161.4 1566.07,-160.78 1567.76,-160.16"/>
<polygon fill="#63b8ff" stroke="#63b8ff" points="1569.28,-163.33 1577.45,-156.59 1566.86,-156.76 1569.28,-163.33"/>
</a>
</g>
</g>
</g>
</svg>
