<?xml version="1.0" encoding="UTF-8" standalone="no"?>
<!DOCTYPE svg PUBLIC "-//W3C//DTD SVG 1.1//EN"
 "http://www.w3.org/Graphics/SVG/1.1/DTD/svg11.dtd">
<!-- Generated by graphviz version 2.43.0 (0)
 -->
<!-- Title: include/Hermes/Socket/_base/Transfer/TlsTransferStateMachine.hpp Pages: 1 -->
<svg width="3052pt" height="445pt"
 viewBox="0.00 0.00 3051.50 445.00" xmlns="http://www.w3.org/2000/svg" xmlns:xlink="http://www.w3.org/1999/xlink">
<g id="graph0" class="graph" transform="scale(1 1) rotate(0) translate(4 441)">
<title>include/Hermes/Socket/_base/Transfer/TlsTransferStateMachine.hpp</title>
<!-- Node1 -->
<g id="Node000001" class="node">
<title>Node1</title>
<g id="a_Node000001"><a xlink:title=" ">
<polygon fill="#999999" stroke="#666666" points="2898.5,-437 2752.5,-437 2752.5,-396 2898.5,-396 2898.5,-437"/>
<text text-anchor="start" x="2760.5" y="-425" font-family="Helvetica,sans-Serif" font-size="10.00">include/Hermes/Socket</text>
<text text-anchor="start" x="2760.5" y="-414" font-family="Helvetica,sans-Serif" font-size="10.00">/_base/Transfer/TlsTransfer</text>
<text text-anchor="middle" x="2825.5" y="-403" font-family="Helvetica,sans-Serif" font-size="10.00">StateMachine.hpp</text>
</a>
</g>
</g>
<!-- Node2 -->
<g id="Node000002" class="node">
<title>Node2</title>
<g id="a_Node000002"><a xlink:href="__base_8hpp.html" target="_top" xlink:title=" ">
<polygon fill="white" stroke="#666666" points="1554,-283 1411,-283 1411,-264 1554,-264 1554,-283"/>
<text text-anchor="middle" x="1482.5" y="-271" font-family="Helvetica,sans-Serif" font-size="10.00">Hermes/Socket/_base.hpp</text>
</a>
</g>
</g>
<!-- Node1&#45;&gt;Node2 -->
<g id="edge1_Node000001_Node000002" class="edge">
<title>Node1&#45;&gt;Node2</title>
<g id="a_edge1_Node000001_Node000002"><a xlink:title=" ">
<path fill="none" stroke="#63b8ff" d="M2752.34,-407.82C2521.11,-383.54 1807.02,-308.57 1564.26,-283.08"/>
<polygon fill="#63b8ff" stroke="#63b8ff" points="1564.4,-279.58 1554.09,-282.02 1563.67,-286.54 1564.4,-279.58"/>
</a>
</g>
</g>
<!-- Node31 -->
<g id="Node000031" class="node">
<title>Node31</title>
<g id="a_Node000031"><a xlink:href="_i_tls_transfer_state_machine_8hpp.html" target="_top" xlink:title=" ">
<polygon fill="white" stroke="#666666" points="2847,-360 2704,-360 2704,-319 2847,-319 2847,-360"/>
<text text-anchor="start" x="2712" y="-348" font-family="Helvetica,sans-Serif" font-size="10.00">Hermes/Socket/_base</text>
<text text-anchor="start" x="2712" y="-337" font-family="Helvetica,sans-Serif" font-size="10.00">/Transfer/ITlsTransferState</text>
<text text-anchor="middle" x="2775.5" y="-326" font-family="Helvetica,sans-Serif" font-size="10.00">Machine.hpp</text>
</a>
</g>
</g>
<!-- Node1&#45;&gt;Node31 -->
<g id="edge39_Node000001_Node000031" class="edge">
<title>Node1&#45;&gt;Node31</title>
<g id="a_edge39_Node000001_Node000031"><a xlink:title=" ">
<path fill="none" stroke="#63b8ff" d="M2812.36,-395.79C2806.79,-387.44 2800.2,-377.55 2794.14,-368.47"/>
<polygon fill="#63b8ff" stroke="#63b8ff" points="2797.01,-366.45 2788.55,-360.07 2791.18,-370.34 2797.01,-366.45"/>
</a>
</g>
</g>
<!-- Node32 -->
<g id="Node000032" class="node">
<title>Node32</title>
<g id="a_Node000032"><a xlink:href="_tls_session_8hpp.html" target="_top" xlink:title=" ">
<polygon fill="white" stroke="#666666" points="2963.5,-228 2841.5,-228 2841.5,-198 2963.5,-198 2963.5,-228"/>
<text text-anchor="start" x="2849.5" y="-216" font-family="Helvetica,sans-Serif" font-size="10.00">Hermes/Socket/_base</text>
<text text-anchor="middle" x="2902.5" y="-205" font-family="Helvetica,sans-Serif" font-size="10.00">/TlsSession.hpp</text>
</a>
</g>
</g>
<!-- Node1&#45;&gt;Node32 -->
<g id="edge43_Node000001_Node000032" class="edge">
<title>Node1&#45;&gt;Node32</title>
<g id="a_edge43_Node000001_Node000032"><a xlink:title=" ">
<path fill="none" stroke="#63b8ff" d="M2837.7,-395.96C2843.88,-385.55 2851.17,-372.36 2856.5,-360 2874.5,-318.27 2888.98,-267.15 2896.61,-237.8"/>
<polygon fill="#63b8ff" stroke="#63b8ff" points="2900.02,-238.58 2899.1,-228.03 2893.24,-236.85 2900.02,-238.58"/>
</a>
</g>
</g>
<!-- Node35 -->
<g id="Node000035" class="node">
<title>Node35</title>
<g id="a_Node000035"><a xlink:title=" ">
<polygon fill="#e0e0e0" stroke="#999999" points="3043.5,-360 2903.5,-360 2903.5,-319 3043.5,-319 3043.5,-360"/>
<text text-anchor="start" x="2911.5" y="-348" font-family="Helvetica,sans-Serif" font-size="10.00">Hermes/Socket/_base</text>
<text text-anchor="start" x="2911.5" y="-337" font-family="Helvetica,sans-Serif" font-size="10.00">/Transfer/TlsTransferState</text>
<text text-anchor="middle" x="2973.5" y="-326" font-family="Helvetica,sans-Serif" font-size="10.00">Machine.tpp</text>
</a>
</g>
</g>
<!-- Node1&#45;&gt;Node35 -->
<g id="edge48_Node000001_Node000035" class="edge">
<title>Node1&#45;&gt;Node35</title>
<g id="a_edge48_Node000001_Node000035"><a xlink:title=" ">
<path fill="none" stroke="#63b8ff" d="M2864,-395.99C2882.94,-386.39 2905.94,-374.73 2925.97,-364.59"/>
<polygon fill="#63b8ff" stroke="#63b8ff" points="2927.6,-367.68 2934.94,-360.04 2924.43,-361.44 2927.6,-367.68"/>
</a>
</g>
</g>
<!-- Node3 -->
<g id="Node000003" class="node">
<title>Node3</title>
<g id="a_Node000003"><a xlink:href="_endpoint_concept_8hpp.html" target="_top" xlink:title=" ">
<polygon fill="white" stroke="#666666" points="1595.5,-228 1463.5,-228 1463.5,-198 1595.5,-198 1595.5,-228"/>
<text text-anchor="start" x="1471.5" y="-216" font-family="Helvetica,sans-Serif" font-size="10.00">Hermes/Endpoint/_base</text>
<text text-anchor="middle" x="1529.5" y="-205" font-family="Helvetica,sans-Serif" font-size="10.00">/EndpointConcept.hpp</text>
</a>
</g>
</g>
<!-- Node2&#45;&gt;Node3 -->
<g id="edge2_Node000002_Node000003" class="edge">
<title>Node2&#45;&gt;Node3</title>
<g id="a_edge2_Node000002_Node000003"><a xlink:title=" ">
<path fill="none" stroke="#63b8ff" d="M1489.44,-263.87C1495.28,-256.59 1503.91,-245.85 1511.66,-236.2"/>
<polygon fill="#63b8ff" stroke="#63b8ff" points="1514.63,-238.1 1518.16,-228.11 1509.17,-233.72 1514.63,-238.1"/>
</a>
</g>
</g>
<!-- Node4 -->
<g id="Node000004" class="node">
<title>Node4</title>
<g id="a_Node000004"><a xlink:href="_connection_error_enum_8hpp.html" target="_top" xlink:title=" ">
<polygon fill="white" stroke="#666666" points="515,-162 348,-162 348,-132 515,-132 515,-162"/>
<text text-anchor="start" x="356" y="-150" font-family="Helvetica,sans-Serif" font-size="10.00">Hermes/_base/ConnectionError</text>
<text text-anchor="middle" x="431.5" y="-139" font-family="Helvetica,sans-Serif" font-size="10.00">Enum.hpp</text>
</a>
</g>
</g>
<!-- Node2&#45;&gt;Node4 -->
<g id="edge34_Node000002_Node000004" class="edge">
<title>Node2&#45;&gt;Node4</title>
<g id="a_edge34_Node000002_Node000004"><a xlink:title=" ">
<path fill="none" stroke="#63b8ff" d="M1477.79,-263.56C1468.57,-247.1 1446.4,-212.38 1416.5,-198 1337.58,-160.04 755.73,-150.82 525.19,-148.65"/>
<polygon fill="#63b8ff" stroke="#63b8ff" points="525.18,-145.15 515.14,-148.56 525.11,-152.15 525.18,-145.15"/>
</a>
</g>
</g>
<!-- Node8 -->
<g id="Node000008" class="node">
<title>Node8</title>
<g id="a_Node000008"><a xlink:title=" ">
<polygon fill="#e0e0e0" stroke="#999999" points="125,-85 0,-85 0,-66 125,-66 125,-85"/>
<text text-anchor="middle" x="62.5" y="-73" font-family="Helvetica,sans-Serif" font-size="10.00">stdexec/execution.hpp</text>
</a>
</g>
</g>
<!-- Node2&#45;&gt;Node8 -->
<g id="edge36_Node000002_Node000008" class="edge">
<title>Node2&#45;&gt;Node8</title>
<g id="a_edge36_Node000002_Node000008"><a xlink:title=" ">
<path fill="none" stroke="#63b8ff" d="M1410.87,-270.61C1229.71,-264.76 739.24,-242.15 339.5,-162 248.59,-143.77 145.08,-107.5 94.18,-88.6"/>
<polygon fill="#63b8ff" stroke="#63b8ff" points="95.31,-85.28 84.72,-85.06 92.86,-91.84 95.31,-85.28"/>
</a>
</g>
</g>
<!-- Node10 -->
<g id="Node000010" class="node">
<title>Node10</title>
<g id="a_Node000010"><a xlink:href="_os_api_8hpp.html" target="_top" xlink:title=" ">
<polygon fill="white" stroke="#666666" points="1682.5,-162 1564.5,-162 1564.5,-132 1682.5,-132 1682.5,-162"/>
<text text-anchor="start" x="1572.5" y="-150" font-family="Helvetica,sans-Serif" font-size="10.00">Hermes/_base/OsApi</text>
<text text-anchor="middle" x="1623.5" y="-139" font-family="Helvetica,sans-Serif" font-size="10.00">/OsApi.hpp</text>
</a>
</g>
</g>
<!-- Node2&#45;&gt;Node10 -->
<g id="edge35_Node000002_Node000010" class="edge">
<title>Node2&#45;&gt;Node10</title>
<g id="a_edge35_Node000002_Node000010"><a xlink:title=" ">
<path fill="none" stroke="#63b8ff" d="M1539.26,-263.92C1562.49,-257.64 1587.79,-246.78 1604.5,-228 1618.02,-212.81 1622.37,-189.76 1623.58,-172.29"/>
<polygon fill="#63b8ff" stroke="#63b8ff" points="1627.08,-172.39 1623.98,-162.26 1620.08,-172.12 1627.08,-172.39"/>
</a>
</g>
</g>
<!-- Node29 -->
<g id="Node000029" class="node">
<title>Node29</title>
<g id="a_Node000029"><a xlink:title=" ">
<polygon fill="#e0e0e0" stroke="#999999" points="1339.5,-222.5 1279.5,-222.5 1279.5,-203.5 1339.5,-203.5 1339.5,-222.5"/>
<text text-anchor="middle" x="1309.5" y="-210.5" font-family="Helvetica,sans-Serif" font-size="10.00">concepts</text>
</a>
</g>
</g>
<!-- Node2&#45;&gt;Node29 -->
<g id="edge37_Node000002_Node000029" class="edge">
<title>Node2&#45;&gt;Node29</title>
<g id="a_edge37_Node000002_Node000029"><a xlink:title=" ">
<path fill="none" stroke="#63b8ff" d="M1456.25,-263.99C1429.19,-255.17 1385.8,-240.89 1348.5,-228 1346.61,-227.35 1344.68,-226.67 1342.72,-225.99"/>
<polygon fill="#63b8ff" stroke="#63b8ff" points="1343.57,-222.57 1332.98,-222.53 1341.23,-229.17 1343.57,-222.57"/>
</a>
</g>
</g>
<!-- Node30 -->
<g id="Node000030" class="node">
<title>Node30</title>
<g id="a_Node000030"><a xlink:title=" ">
<polygon fill="#e0e0e0" stroke="#999999" points="1407.5,-222.5 1357.5,-222.5 1357.5,-203.5 1407.5,-203.5 1407.5,-222.5"/>
<text text-anchor="middle" x="1382.5" y="-210.5" font-family="Helvetica,sans-Serif" font-size="10.00">ranges</text>
</a>
</g>
</g>
<!-- Node2&#45;&gt;Node30 -->
<g id="edge38_Node000002_Node000030" class="edge">
<title>Node2&#45;&gt;Node30</title>
<g id="a_edge38_Node000002_Node000030"><a xlink:title=" ">
<path fill="none" stroke="#63b8ff" d="M1467.74,-263.87C1451.5,-254.36 1425.15,-238.95 1406.04,-227.77"/>
<polygon fill="#63b8ff" stroke="#63b8ff" points="1407.71,-224.7 1397.32,-222.67 1404.18,-230.74 1407.71,-224.7"/>
</a>
</g>
</g>
<!-- Node3&#45;&gt;Node4 -->
<g id="edge3_Node000003_Node000004" class="edge">
<title>Node3&#45;&gt;Node4</title>
<g id="a_edge3_Node000003_Node000004"><a xlink:title=" ">
<path fill="none" stroke="#63b8ff" d="M1463.24,-199.75C1458.6,-199.09 1453.98,-198.5 1449.5,-198 1110.74,-160.19 705.38,-150.97 525.47,-148.72"/>
<polygon fill="#63b8ff" stroke="#63b8ff" points="525.29,-145.22 515.25,-148.6 525.2,-152.22 525.29,-145.22"/>
</a>
</g>
</g>
<!-- Node3&#45;&gt;Node10 -->
<g id="edge9_Node000003_Node000010" class="edge">
<title>Node3&#45;&gt;Node10</title>
<g id="a_edge9_Node000003_Node000010"><a xlink:title=" ">
<path fill="none" stroke="#63b8ff" d="M1550.36,-197.8C1563.26,-189.01 1580.01,-177.61 1594.23,-167.93"/>
<polygon fill="#63b8ff" stroke="#63b8ff" points="1596.4,-170.69 1602.7,-162.16 1592.46,-164.9 1596.4,-170.69"/>
</a>
</g>
</g>
<!-- Node5 -->
<g id="Node000005" class="node">
<title>Node5</title>
<g id="a_Node000005"><a xlink:title=" ">
<polygon fill="#e0e0e0" stroke="#999999" points="389.5,-85 327.5,-85 327.5,-66 389.5,-66 389.5,-85"/>
<text text-anchor="middle" x="358.5" y="-73" font-family="Helvetica,sans-Serif" font-size="10.00">expected</text>
</a>
</g>
</g>
<!-- Node4&#45;&gt;Node5 -->
<g id="edge4_Node000004_Node000005" class="edge">
<title>Node4&#45;&gt;Node5</title>
<g id="a_edge4_Node000004_Node000005"><a xlink:title=" ">
<path fill="none" stroke="#63b8ff" d="M416.73,-131.94C404.7,-120.48 387.72,-104.32 375.2,-92.4"/>
<polygon fill="#63b8ff" stroke="#63b8ff" points="377.36,-89.63 367.71,-85.27 372.54,-94.7 377.36,-89.63"/>
</a>
</g>
</g>
<!-- Node6 -->
<g id="Node000006" class="node">
<title>Node6</title>
<g id="a_Node000006"><a xlink:title=" ">
<polygon fill="#e0e0e0" stroke="#999999" points="455,-85 408,-85 408,-66 455,-66 455,-85"/>
<text text-anchor="middle" x="431.5" y="-73" font-family="Helvetica,sans-Serif" font-size="10.00">vector</text>
</a>
</g>
</g>
<!-- Node4&#45;&gt;Node6 -->
<g id="edge5_Node000004_Node000006" class="edge">
<title>Node4&#45;&gt;Node6</title>
<g id="a_edge5_Node000004_Node000006"><a xlink:title=" ">
<path fill="none" stroke="#63b8ff" d="M431.5,-131.94C431.5,-121.46 431.5,-107.05 431.5,-95.55"/>
<polygon fill="#63b8ff" stroke="#63b8ff" points="435,-95.27 431.5,-85.27 428,-95.27 435,-95.27"/>
</a>
</g>
</g>
<!-- Node7 -->
<g id="Node000007" class="node">
<title>Node7</title>
<g id="a_Node000007"><a xlink:title=" ">
<polygon fill="#e0e0e0" stroke="#999999" points="2843.5,-85 2803.5,-85 2803.5,-66 2843.5,-66 2843.5,-85"/>
<text text-anchor="middle" x="2823.5" y="-73" font-family="Helvetica,sans-Serif" font-size="10.00">span</text>
</a>
</g>
</g>
<!-- Node4&#45;&gt;Node7 -->
<g id="edge6_Node000004_Node000007" class="edge">
<title>Node4&#45;&gt;Node7</title>
<g id="a_edge6_Node000004_Node000007"><a xlink:title=" ">
<path fill="none" stroke="#63b8ff" d="M515.16,-144.81C918.07,-139.03 2643.76,-113.31 2756.5,-96 2768.91,-94.09 2782.25,-90.54 2793.74,-86.97"/>
<polygon fill="#63b8ff" stroke="#63b8ff" points="2794.85,-90.29 2803.29,-83.89 2792.69,-83.63 2794.85,-90.29"/>
</a>
</g>
</g>
<!-- Node4&#45;&gt;Node8 -->
<g id="edge7_Node000004_Node000008" class="edge">
<title>Node4&#45;&gt;Node8</title>
<g id="a_edge7_Node000004_Node000008"><a xlink:title=" ">
<path fill="none" stroke="#63b8ff" d="M347.89,-134.3C287.91,-125.34 205.35,-111.85 133.5,-96 122.81,-93.64 111.33,-90.68 100.78,-87.78"/>
<polygon fill="#63b8ff" stroke="#63b8ff" points="101.58,-84.37 91.01,-85.04 99.69,-91.11 101.58,-84.37"/>
</a>
</g>
</g>
<!-- Node9 -->
<g id="Node000009" class="node">
<title>Node9</title>
<g id="a_Node000009"><a xlink:title=" ">
<polygon fill="#e0e0e0" stroke="#999999" points="310,-90.5 143,-90.5 143,-60.5 310,-60.5 310,-90.5"/>
<text text-anchor="start" x="151" y="-78.5" font-family="Helvetica,sans-Serif" font-size="10.00">Hermes/_base/ConnectionError</text>
<text text-anchor="middle" x="226.5" y="-67.5" font-family="Helvetica,sans-Serif" font-size="10.00">Enum.tpp</text>
</a>
</g>
</g>
<!-- Node4&#45;&gt;Node9 -->
<g id="edge8_Node000004_Node000009" class="edge">
<title>Node4&#45;&gt;Node9</title>
<g id="a_edge8_Node000004_Node000009"><a xlink:title=" ">
<path fill="none" stroke="#63b8ff" d="M390.02,-131.94C357.51,-120.91 312.12,-105.53 277.41,-93.76"/>
<polygon fill="#63b8ff" stroke="#63b8ff" points="278.52,-90.44 267.92,-90.54 276.27,-97.07 278.52,-90.44"/>
</a>
</g>
</g>
<!-- Node11 -->
<g id="Node000011" class="node">
<title>Node11</title>
<g id="a_Node000011"><a xlink:title=" ">
<polygon fill="#e0e0e0" stroke="#999999" points="2265,-19 2188,-19 2188,0 2265,0 2265,-19"/>
<text text-anchor="middle" x="2226.5" y="-7" font-family="Helvetica,sans-Serif" font-size="10.00">sys/socket.h</text>
</a>
</g>
</g>
<!-- Node10&#45;&gt;Node11 -->
<g id="edge10_Node000010_Node000011" class="edge">
<title>Node10&#45;&gt;Node11</title>
<g id="a_edge10_Node000010_Node000011"><a xlink:title=" ">
<path fill="none" stroke="#63b8ff" d="M1682.51,-146.31C1844.14,-146.54 2284.88,-142.83 2328.5,-96 2340.92,-82.67 2338.48,-70.25 2328.5,-55 2316.45,-36.59 2294.94,-25.76 2274.77,-19.4"/>
<polygon fill="#63b8ff" stroke="#63b8ff" points="2275.6,-16 2265.02,-16.62 2273.68,-22.73 2275.6,-16"/>
</a>
</g>
</g>
<!-- Node12 -->
<g id="Node000012" class="node">
<title>Node12</title>
<g id="a_Node000012"><a xlink:title=" ">
<polygon fill="#e0e0e0" stroke="#999999" points="581.5,-19 509.5,-19 509.5,0 581.5,0 581.5,-19"/>
<text text-anchor="middle" x="545.5" y="-7" font-family="Helvetica,sans-Serif" font-size="10.00">netinet/in.h</text>
</a>
</g>
</g>
<!-- Node10&#45;&gt;Node12 -->
<g id="edge11_Node000010_Node000012" class="edge">
<title>Node10&#45;&gt;Node12</title>
<g id="a_edge11_Node000010_Node000012"><a xlink:title=" ">
<path fill="none" stroke="#63b8ff" d="M1564.33,-145.6C1338.33,-143.77 540.43,-134.62 503.5,-96 490.91,-82.83 496.77,-71.93 503.5,-55 508.02,-43.63 516.97,-33.48 525.46,-25.76"/>
<polygon fill="#63b8ff" stroke="#63b8ff" points="527.91,-28.27 533.29,-19.14 523.39,-22.92 527.91,-28.27"/>
</a>
</g>
</g>
<!-- Node13 -->
<g id="Node000013" class="node">
<title>Node13</title>
<g id="a_Node000013"><a xlink:title=" ">
<polygon fill="#e0e0e0" stroke="#999999" points="2580,-85 2511,-85 2511,-66 2580,-66 2580,-85"/>
<text text-anchor="middle" x="2545.5" y="-73" font-family="Helvetica,sans-Serif" font-size="10.00">arpa/inet.h</text>
</a>
</g>
</g>
<!-- Node10&#45;&gt;Node13 -->
<g id="edge12_Node000010_Node000013" class="edge">
<title>Node10&#45;&gt;Node13</title>
<g id="a_edge12_Node000010_Node000013"><a xlink:title=" ">
<path fill="none" stroke="#63b8ff" d="M1682.65,-145.39C1853.51,-143.2 2345.49,-133.69 2501.5,-96 2507.74,-94.49 2514.21,-92.13 2520.19,-89.57"/>
<polygon fill="#63b8ff" stroke="#63b8ff" points="2522.09,-92.55 2529.69,-85.17 2519.15,-86.19 2522.09,-92.55"/>
</a>
</g>
</g>
<!-- Node14 -->
<g id="Node000014" class="node">
<title>Node14</title>
<g id="a_Node000014"><a xlink:title=" ">
<polygon fill="#e0e0e0" stroke="#999999" points="1650,-19 1597,-19 1597,0 1650,0 1650,-19"/>
<text text-anchor="middle" x="1623.5" y="-7" font-family="Helvetica,sans-Serif" font-size="10.00">netdb.h</text>
</a>
</g>
</g>
<!-- Node10&#45;&gt;Node14 -->
<g id="edge13_Node000010_Node000014" class="edge">
<title>Node10&#45;&gt;Node14</title>
<g id="a_edge13_Node000010_Node000014"><a xlink:title=" ">
<path fill="none" stroke="#63b8ff" d="M1611.64,-131.72C1604.57,-122.24 1596.25,-109.16 1592.5,-96 1587.51,-78.47 1587.04,-72.39 1592.5,-55 1595.73,-44.71 1602.28,-34.72 1608.53,-26.82"/>
<polygon fill="#63b8ff" stroke="#63b8ff" points="1611.23,-29.04 1615.02,-19.15 1605.89,-24.52 1611.23,-29.04"/>
</a>
</g>
</g>
<!-- Node15 -->
<g id="Node000015" class="node">
<title>Node15</title>
<g id="a_Node000015"><a xlink:title=" ">
<polygon fill="#e0e0e0" stroke="#999999" points="777.5,-85 721.5,-85 721.5,-66 777.5,-66 777.5,-85"/>
<text text-anchor="middle" x="749.5" y="-73" font-family="Helvetica,sans-Serif" font-size="10.00">unistd.h</text>
</a>
</g>
</g>
<!-- Node10&#45;&gt;Node15 -->
<g id="edge14_Node000010_Node000015" class="edge">
<title>Node10&#45;&gt;Node15</title>
<g id="a_edge14_Node000010_Node000015"><a xlink:title=" ">
<path fill="none" stroke="#63b8ff" d="M1564.33,-145.7C1398.73,-144.36 933.1,-136.94 786.5,-96 781.52,-94.61 776.44,-92.48 771.71,-90.13"/>
<polygon fill="#63b8ff" stroke="#63b8ff" points="773.08,-86.9 762.63,-85.18 769.73,-93.04 773.08,-86.9"/>
</a>
</g>
</g>
<!-- Node16 -->
<g id="Node000016" class="node">
<title>Node16</title>
<g id="a_Node000016"><a xlink:href="_conversion_and_literals_8hpp.html" target="_top" xlink:title=" ">
<polygon fill="white" stroke="#666666" points="2747.5,-90.5 2597.5,-90.5 2597.5,-60.5 2747.5,-60.5 2747.5,-90.5"/>
<text text-anchor="start" x="2605.5" y="-78.5" font-family="Helvetica,sans-Serif" font-size="10.00">Hermes/_base/OsApi</text>
<text text-anchor="middle" x="2672.5" y="-67.5" font-family="Helvetica,sans-Serif" font-size="10.00">/ConversionAndLiterals.hpp</text>
</a>
</g>
</g>
<!-- Node10&#45;&gt;Node16 -->
<g id="edge15_Node000010_Node000016" class="edge">
<title>Node10&#45;&gt;Node16</title>
<g id="a_edge15_Node000010_Node000016"><a xlink:title=" ">
<path fill="none" stroke="#63b8ff" d="M1682.66,-146.61C1834.25,-147.37 2248.67,-144.46 2589.5,-96 2595.85,-95.1 2602.42,-93.94 2608.97,-92.65"/>
<polygon fill="#63b8ff" stroke="#63b8ff" points="2610.12,-95.98 2619.19,-90.51 2608.68,-89.13 2610.12,-95.98"/>
</a>
</g>
</g>
<!-- Node18 -->
<g id="Node000018" class="node">
<title>Node18</title>
<g id="a_Node000018"><a xlink:href="_macros_8hpp.html" target="_top" xlink:title=" ">
<polygon fill="white" stroke="#666666" points="2492.5,-90.5 2374.5,-90.5 2374.5,-60.5 2492.5,-60.5 2492.5,-90.5"/>
<text text-anchor="start" x="2382.5" y="-78.5" font-family="Helvetica,sans-Serif" font-size="10.00">Hermes/_base/OsApi</text>
<text text-anchor="middle" x="2433.5" y="-67.5" font-family="Helvetica,sans-Serif" font-size="10.00">/Macros.hpp</text>
</a>
</g>
</g>
<!-- Node10&#45;&gt;Node18 -->
<g id="edge17_Node000010_Node000018" class="edge">
<title>Node10&#45;&gt;Node18</title>
<g id="a_edge17_Node000010_Node000018"><a xlink:title=" ">
<path fill="none" stroke="#63b8ff" d="M1682.7,-145.85C1808.41,-144.68 2110.95,-137.4 2360.5,-96 2365.63,-95.15 2370.91,-94.1 2376.19,-92.92"/>
<polygon fill="#63b8ff" stroke="#63b8ff" points="2377.35,-96.24 2386.28,-90.54 2375.74,-89.43 2377.35,-96.24"/>
</a>
</g>
</g>
<!-- Node20 -->
<g id="Node000020" class="node">
<title>Node20</title>
<g id="a_Node000020"><a xlink:href="_address_family_enum_8hpp.html" target="_top" xlink:title=" ">
<polygon fill="white" stroke="#666666" points="1939.5,-90.5 1763.5,-90.5 1763.5,-60.5 1939.5,-60.5 1939.5,-90.5"/>
<text text-anchor="start" x="1771.5" y="-78.5" font-family="Helvetica,sans-Serif" font-size="10.00">Hermes/_base/OsApi</text>
<text text-anchor="middle" x="1851.5" y="-67.5" font-family="Helvetica,sans-Serif" font-size="10.00">/Enums/AddressFamilyEnum.hpp</text>
</a>
</g>
</g>
<!-- Node10&#45;&gt;Node20 -->
<g id="edge20_Node000010_Node000020" class="edge">
<title>Node10&#45;&gt;Node20</title>
<g id="a_edge20_Node000010_Node000020"><a xlink:title=" ">
<path fill="none" stroke="#63b8ff" d="M1669.64,-131.94C1705.95,-120.87 1756.71,-105.4 1795.37,-93.61"/>
<polygon fill="#63b8ff" stroke="#63b8ff" points="1796.88,-96.81 1805.43,-90.54 1794.84,-90.11 1796.88,-96.81"/>
</a>
</g>
</g>
<!-- Node21 -->
<g id="Node000021" class="node">
<title>Node21</title>
<g id="a_Node000021"><a xlink:href="_protocol_base_type_enum_8hpp.html" target="_top" xlink:title=" ">
<polygon fill="white" stroke="#666666" points="703,-90.5 512,-90.5 512,-60.5 703,-60.5 703,-90.5"/>
<text text-anchor="start" x="520" y="-78.5" font-family="Helvetica,sans-Serif" font-size="10.00">Hermes/_base/OsApi</text>
<text text-anchor="middle" x="607.5" y="-67.5" font-family="Helvetica,sans-Serif" font-size="10.00">/Enums/ProtocolBaseTypeEnum.hpp</text>
</a>
</g>
</g>
<!-- Node10&#45;&gt;Node21 -->
<g id="edge22_Node000010_Node000021" class="edge">
<title>Node10&#45;&gt;Node21</title>
<g id="a_edge22_Node000010_Node000021"><a xlink:title=" ">
<path fill="none" stroke="#63b8ff" d="M1564.39,-145.39C1418.96,-143.31 1032.35,-134.32 712.5,-96 703.87,-94.97 694.89,-93.66 685.96,-92.21"/>
<polygon fill="#63b8ff" stroke="#63b8ff" points="686.37,-88.73 675.93,-90.52 685.21,-95.63 686.37,-88.73"/>
</a>
</g>
</g>
<!-- Node22 -->
<g id="Node000022" class="node">
<title>Node22</title>
<g id="a_Node000022"><a xlink:href="_socket_shutdown_enum_8hpp.html" target="_top" xlink:title=" ">
<polygon fill="white" stroke="#666666" points="2319,-90.5 2134,-90.5 2134,-60.5 2319,-60.5 2319,-90.5"/>
<text text-anchor="start" x="2142" y="-78.5" font-family="Helvetica,sans-Serif" font-size="10.00">Hermes/_base/OsApi</text>
<text text-anchor="middle" x="2226.5" y="-67.5" font-family="Helvetica,sans-Serif" font-size="10.00">/Enums/SocketShutdownEnum.hpp</text>
</a>
</g>
</g>
<!-- Node10&#45;&gt;Node22 -->
<g id="edge24_Node000010_Node000022" class="edge">
<title>Node10&#45;&gt;Node22</title>
<g id="a_edge24_Node000010_Node000022"><a xlink:title=" ">
<path fill="none" stroke="#63b8ff" d="M1682.83,-141.86C1776.98,-134.89 1966.25,-119.25 2125.5,-96 2132.93,-94.91 2140.65,-93.66 2148.36,-92.32"/>
<polygon fill="#63b8ff" stroke="#63b8ff" points="2149.23,-95.72 2158.46,-90.52 2148,-88.83 2149.23,-95.72"/>
</a>
</g>
</g>
<!-- Node23 -->
<g id="Node000023" class="node">
<title>Node23</title>
<g id="a_Node000023"><a xlink:href="_socket_type_enum_8hpp.html" target="_top" xlink:title=" ">
<polygon fill="white" stroke="#666666" points="2116,-90.5 1957,-90.5 1957,-60.5 2116,-60.5 2116,-90.5"/>
<text text-anchor="start" x="1965" y="-78.5" font-family="Helvetica,sans-Serif" font-size="10.00">Hermes/_base/OsApi</text>
<text text-anchor="middle" x="2036.5" y="-67.5" font-family="Helvetica,sans-Serif" font-size="10.00">/Enums/SocketTypeEnum.hpp</text>
</a>
</g>
</g>
<!-- Node10&#45;&gt;Node23 -->
<g id="edge26_Node000010_Node000023" class="edge">
<title>Node10&#45;&gt;Node23</title>
<g id="a_edge26_Node000010_Node000023"><a xlink:title=" ">
<path fill="none" stroke="#63b8ff" d="M1682.71,-138.08C1748,-129.07 1856.06,-113.33 1948.5,-96 1954.12,-94.95 1959.92,-93.8 1965.75,-92.6"/>
<polygon fill="#63b8ff" stroke="#63b8ff" points="1966.47,-96.03 1975.54,-90.55 1965.03,-89.17 1966.47,-96.03"/>
</a>
</g>
</g>
<!-- Node24 -->
<g id="Node000024" class="node">
<title>Node24</title>
<g id="a_Node000024"><a xlink:href="_linux_2_encrypt_status_enum_8hpp.html" target="_top" xlink:title=" ">
<polygon fill="white" stroke="#666666" points="947.5,-96 795.5,-96 795.5,-55 947.5,-55 947.5,-96"/>
<text text-anchor="start" x="803.5" y="-84" font-family="Helvetica,sans-Serif" font-size="10.00">Hermes/_base/OsApi</text>
<text text-anchor="start" x="803.5" y="-73" font-family="Helvetica,sans-Serif" font-size="10.00">/Enums/Linux/EncryptStatus</text>
<text text-anchor="middle" x="871.5" y="-62" font-family="Helvetica,sans-Serif" font-size="10.00">Enum.hpp</text>
</a>
</g>
</g>
<!-- Node10&#45;&gt;Node24 -->
<g id="edge28_Node000010_Node000024" class="edge">
<title>Node10&#45;&gt;Node24</title>
<g id="a_edge28_Node000010_Node000024"><a xlink:title=" ">
<path fill="none" stroke="#63b8ff" d="M1564.28,-144.55C1449.15,-141.09 1187.07,-130.03 958.04,-96.12"/>
<polygon fill="#63b8ff" stroke="#63b8ff" points="958.26,-92.61 947.85,-94.59 957.22,-99.53 958.26,-92.61"/>
</a>
</g>
</g>
<!-- Node25 -->
<g id="Node000025" class="node">
<title>Node25</title>
<g id="a_Node000025"><a xlink:href="_name_info_flags_8hpp.html" target="_top" xlink:title=" ">
<polygon fill="white" stroke="#666666" points="1745.5,-90.5 1601.5,-90.5 1601.5,-60.5 1745.5,-60.5 1745.5,-90.5"/>
<text text-anchor="start" x="1609.5" y="-78.5" font-family="Helvetica,sans-Serif" font-size="10.00">Hermes/_base/OsApi</text>
<text text-anchor="middle" x="1673.5" y="-67.5" font-family="Helvetica,sans-Serif" font-size="10.00">/Flags/NameInfoFlags.hpp</text>
</a>
</g>
</g>
<!-- Node10&#45;&gt;Node25 -->
<g id="edge29_Node000010_Node000025" class="edge">
<title>Node10&#45;&gt;Node25</title>
<g id="a_edge29_Node000010_Node000025"><a xlink:title=" ">
<path fill="none" stroke="#63b8ff" d="M1633.62,-131.94C1640.46,-122.42 1649.65,-109.65 1657.48,-98.77"/>
<polygon fill="#63b8ff" stroke="#63b8ff" points="1660.4,-100.71 1663.4,-90.54 1654.72,-96.62 1660.4,-100.71"/>
</a>
</g>
</g>
<!-- Node26 -->
<g id="Node000026" class="node">
<title>Node26</title>
<g id="a_Node000026"><a xlink:href="_linux_2_credential_flags_8hpp.html" target="_top" xlink:title=" ">
<polygon fill="white" stroke="#666666" points="1141.5,-90.5 965.5,-90.5 965.5,-60.5 1141.5,-60.5 1141.5,-90.5"/>
<text text-anchor="start" x="973.5" y="-78.5" font-family="Helvetica,sans-Serif" font-size="10.00">Hermes/_base/OsApi</text>
<text text-anchor="middle" x="1053.5" y="-67.5" font-family="Helvetica,sans-Serif" font-size="10.00">/Flags/Linux/CredentialFlags.hpp</text>
</a>
</g>
</g>
<!-- Node10&#45;&gt;Node26 -->
<g id="edge31_Node000010_Node000026" class="edge">
<title>Node10&#45;&gt;Node26</title>
<g id="a_edge31_Node000010_Node000026"><a xlink:title=" ">
<path fill="none" stroke="#63b8ff" d="M1564.41,-141.48C1474.81,-134.23 1299.36,-118.49 1151.5,-96 1144.43,-94.92 1137.09,-93.69 1129.75,-92.37"/>
<polygon fill="#63b8ff" stroke="#63b8ff" points="1130.25,-88.9 1119.78,-90.54 1128.98,-95.79 1130.25,-88.9"/>
</a>
</g>
</g>
<!-- Node27 -->
<g id="Node000027" class="node">
<title>Node27</title>
<g id="a_Node000027"><a xlink:href="_linux_2_supported_protocols_flags_8hpp.html" target="_top" xlink:title=" ">
<polygon fill="white" stroke="#666666" points="1333,-96 1160,-96 1160,-55 1333,-55 1333,-96"/>
<text text-anchor="start" x="1168" y="-84" font-family="Helvetica,sans-Serif" font-size="10.00">Hermes/_base/OsApi</text>
<text text-anchor="start" x="1168" y="-73" font-family="Helvetica,sans-Serif" font-size="10.00">/Flags/Linux/SupportedProtocols</text>
<text text-anchor="middle" x="1246.5" y="-62" font-family="Helvetica,sans-Serif" font-size="10.00">Flags.hpp</text>
</a>
</g>
</g>
<!-- Node10&#45;&gt;Node27 -->
<g id="edge32_Node000010_Node000027" class="edge">
<title>Node10&#45;&gt;Node27</title>
<g id="a_edge32_Node000010_Node000027"><a xlink:title=" ">
<path fill="none" stroke="#63b8ff" d="M1564.49,-135.93C1509.74,-126.49 1425.74,-111.76 1342.92,-96.06"/>
<polygon fill="#63b8ff" stroke="#63b8ff" points="1343.57,-92.62 1333.09,-94.19 1342.26,-99.5 1343.57,-92.62"/>
</a>
</g>
</g>
<!-- Node28 -->
<g id="Node000028" class="node">
<title>Node28</title>
<g id="a_Node000028"><a xlink:href="_linux_2_s_channel_cred_flags_8hpp.html" target="_top" xlink:title=" ">
<polygon fill="white" stroke="#666666" points="1545.5,-90.5 1351.5,-90.5 1351.5,-60.5 1545.5,-60.5 1545.5,-90.5"/>
<text text-anchor="start" x="1359.5" y="-78.5" font-family="Helvetica,sans-Serif" font-size="10.00">Hermes/_base/OsApi</text>
<text text-anchor="middle" x="1448.5" y="-67.5" font-family="Helvetica,sans-Serif" font-size="10.00">/Flags/Linux/SChannelCredFlags.hpp</text>
</a>
</g>
</g>
<!-- Node10&#45;&gt;Node28 -->
<g id="edge33_Node000010_Node000028" class="edge">
<title>Node10&#45;&gt;Node28</title>
<g id="a_edge33_Node000010_Node000028"><a xlink:title=" ">
<path fill="none" stroke="#63b8ff" d="M1588.09,-131.94C1560.81,-121.1 1522.91,-106.05 1493.49,-94.37"/>
<polygon fill="#63b8ff" stroke="#63b8ff" points="1494.45,-90.98 1483.86,-90.54 1491.86,-97.49 1494.45,-90.98"/>
</a>
</g>
</g>
<!-- Node17 -->
<g id="Node000017" class="node">
<title>Node17</title>
<g id="a_Node000017"><a xlink:title=" ">
<polygon fill="#e0e0e0" stroke="#999999" points="2748.5,-19 2698.5,-19 2698.5,0 2748.5,0 2748.5,-19"/>
<text text-anchor="middle" x="2723.5" y="-7" font-family="Helvetica,sans-Serif" font-size="10.00">cstdint</text>
</a>
</g>
</g>
<!-- Node16&#45;&gt;Node17 -->
<g id="edge16_Node000016_Node000017" class="edge">
<title>Node16&#45;&gt;Node17</title>
<g id="a_edge16_Node000016_Node000017"><a xlink:title=" ">
<path fill="none" stroke="#63b8ff" d="M2683.82,-60.3C2691.61,-50.51 2702,-37.48 2710.19,-27.2"/>
<polygon fill="#63b8ff" stroke="#63b8ff" points="2712.96,-29.35 2716.45,-19.34 2707.48,-24.98 2712.96,-29.35"/>
</a>
</g>
</g>
<!-- Node18&#45;&gt;Node11 -->
<g id="edge19_Node000018_Node000011" class="edge">
<title>Node18&#45;&gt;Node11</title>
<g id="a_edge19_Node000018_Node000011"><a xlink:title=" ">
<path fill="none" stroke="#63b8ff" d="M2388.07,-60.45C2350.81,-48.93 2298.7,-32.82 2263.84,-22.04"/>
<polygon fill="#63b8ff" stroke="#63b8ff" points="2264.64,-18.63 2254.05,-19.02 2262.57,-25.32 2264.64,-18.63"/>
</a>
</g>
</g>
<!-- Node19 -->
<g id="Node000019" class="node">
<title>Node19</title>
<g id="a_Node000019"><a xlink:title=" ">
<polygon fill="#e0e0e0" stroke="#999999" points="2470,-19 2397,-19 2397,0 2470,0 2470,-19"/>
<text text-anchor="middle" x="2433.5" y="-7" font-family="Helvetica,sans-Serif" font-size="10.00">string_view</text>
</a>
</g>
</g>
<!-- Node18&#45;&gt;Node19 -->
<g id="edge18_Node000018_Node000019" class="edge">
<title>Node18&#45;&gt;Node19</title>
<g id="a_edge18_Node000018_Node000019"><a xlink:title=" ">
<path fill="none" stroke="#63b8ff" d="M2433.5,-60.3C2433.5,-51.2 2433.5,-39.29 2433.5,-29.4"/>
<polygon fill="#63b8ff" stroke="#63b8ff" points="2437,-29.34 2433.5,-19.34 2430,-29.34 2437,-29.34"/>
</a>
</g>
</g>
<!-- Node20&#45;&gt;Node11 -->
<g id="edge21_Node000020_Node000011" class="edge">
<title>Node20&#45;&gt;Node11</title>
<g id="a_edge21_Node000020_Node000011"><a xlink:title=" ">
<path fill="none" stroke="#63b8ff" d="M1919.53,-60.47C1929.25,-58.57 1939.12,-56.69 1948.5,-55 2028.65,-40.53 2122.24,-26.05 2177.82,-17.69"/>
<polygon fill="#63b8ff" stroke="#63b8ff" points="2178.37,-21.15 2187.74,-16.21 2177.33,-14.23 2178.37,-21.15"/>
</a>
</g>
</g>
<!-- Node21&#45;&gt;Node12 -->
<g id="edge23_Node000021_Node000012" class="edge">
<title>Node21&#45;&gt;Node12</title>
<g id="a_edge23_Node000021_Node000012"><a xlink:title=" ">
<path fill="none" stroke="#63b8ff" d="M593.74,-60.3C584.07,-50.32 571.13,-36.96 561.08,-26.59"/>
<polygon fill="#63b8ff" stroke="#63b8ff" points="563.54,-24.09 554.07,-19.34 558.51,-28.96 563.54,-24.09"/>
</a>
</g>
</g>
<!-- Node22&#45;&gt;Node11 -->
<g id="edge25_Node000022_Node000011" class="edge">
<title>Node22&#45;&gt;Node11</title>
<g id="a_edge25_Node000022_Node000011"><a xlink:title=" ">
<path fill="none" stroke="#63b8ff" d="M2226.5,-60.3C2226.5,-51.2 2226.5,-39.29 2226.5,-29.4"/>
<polygon fill="#63b8ff" stroke="#63b8ff" points="2230,-29.34 2226.5,-19.34 2223,-29.34 2230,-29.34"/>
</a>
</g>
</g>
<!-- Node23&#45;&gt;Node11 -->
<g id="edge27_Node000023_Node000011" class="edge">
<title>Node23&#45;&gt;Node11</title>
<g id="a_edge27_Node000023_Node000011"><a xlink:title=" ">
<path fill="none" stroke="#63b8ff" d="M2078.2,-60.45C2112.1,-49.03 2159.41,-33.1 2191.4,-22.32"/>
<polygon fill="#63b8ff" stroke="#63b8ff" points="2192.85,-25.53 2201.21,-19.02 2190.62,-18.89 2192.85,-25.53"/>
</a>
</g>
</g>
<!-- Node25&#45;&gt;Node14 -->
<g id="edge30_Node000025_Node000014" class="edge">
<title>Node25&#45;&gt;Node14</title>
<g id="a_edge30_Node000025_Node000014"><a xlink:title=" ">
<path fill="none" stroke="#63b8ff" d="M1662.4,-60.3C1654.84,-50.61 1644.78,-37.74 1636.79,-27.51"/>
<polygon fill="#63b8ff" stroke="#63b8ff" points="1639.32,-25.07 1630.41,-19.34 1633.81,-29.38 1639.32,-25.07"/>
</a>
</g>
</g>
<!-- Node31&#45;&gt;Node2 -->
<g id="edge40_Node000031_Node000002" class="edge">
<title>Node31&#45;&gt;Node2</title>
<g id="a_edge40_Node000031_Node000002"><a xlink:title=" ">
<path fill="none" stroke="#63b8ff" d="M2703.68,-334.94C2480.68,-323.91 1801.02,-290.27 1564.6,-278.56"/>
<polygon fill="#63b8ff" stroke="#63b8ff" points="1564.52,-275.06 1554.36,-278.06 1564.17,-282.05 1564.52,-275.06"/>
</a>
</g>
</g>
<!-- Node31&#45;&gt;Node7 -->
<g id="edge41_Node000031_Node000007" class="edge">
<title>Node31&#45;&gt;Node7</title>
<g id="a_edge41_Node000031_Node000007"><a xlink:title=" ">
<path fill="none" stroke="#63b8ff" d="M2780.89,-318.81C2783.68,-308.25 2787.01,-294.97 2789.5,-283 2803.79,-214.31 2815.87,-131.75 2820.94,-95.33"/>
<polygon fill="#63b8ff" stroke="#63b8ff" points="2824.44,-95.59 2822.33,-85.2 2817.5,-94.63 2824.44,-95.59"/>
</a>
</g>
</g>
<!-- Node31&#45;&gt;Node17 -->
<g id="edge42_Node000031_Node000017" class="edge">
<title>Node31&#45;&gt;Node17</title>
<g id="a_edge42_Node000031_Node000017"><a xlink:title=" ">
<path fill="none" stroke="#63b8ff" d="M2775.5,-318.66C2775.5,-294.09 2775.5,-250.96 2775.5,-214 2775.5,-214 2775.5,-214 2775.5,-146 2775.5,-104.68 2773.42,-92.69 2756.5,-55 2751.99,-44.95 2744.9,-34.98 2738.46,-27.04"/>
<polygon fill="#63b8ff" stroke="#63b8ff" points="2741.01,-24.64 2731.86,-19.3 2735.68,-29.18 2741.01,-24.64"/>
</a>
</g>
</g>
<!-- Node32&#45;&gt;Node7 -->
<g id="edge47_Node000032_Node000007" class="edge">
<title>Node32&#45;&gt;Node7</title>
<g id="a_edge47_Node000032_Node000007"><a xlink:title=" ">
<path fill="none" stroke="#63b8ff" d="M2906.83,-197.76C2911.07,-180.98 2915.45,-152.77 2904.5,-132 2893.67,-111.45 2871.42,-97.06 2852.98,-88.08"/>
<polygon fill="#63b8ff" stroke="#63b8ff" points="2854.31,-84.84 2843.76,-83.88 2851.41,-91.21 2854.31,-84.84"/>
</a>
</g>
</g>
<!-- Node32&#45;&gt;Node10 -->
<g id="edge44_Node000032_Node000010" class="edge">
<title>Node32&#45;&gt;Node10</title>
<g id="a_edge44_Node000032_Node000010"><a xlink:title=" ">
<path fill="none" stroke="#63b8ff" d="M2841.24,-208.93C2627.89,-198.26 1918.21,-162.75 1692.83,-151.47"/>
<polygon fill="#63b8ff" stroke="#63b8ff" points="1692.95,-147.97 1682.78,-150.97 1692.6,-154.96 1692.95,-147.97"/>
</a>
</g>
</g>
<!-- Node33 -->
<g id="Node000033" class="node">
<title>Node33</title>
<g id="a_Node000033"><a xlink:title=" ">
<polygon fill="#e0e0e0" stroke="#999999" points="2895,-156.5 2842,-156.5 2842,-137.5 2895,-137.5 2895,-156.5"/>
<text text-anchor="middle" x="2868.5" y="-144.5" font-family="Helvetica,sans-Serif" font-size="10.00">cstddef</text>
</a>
</g>
</g>
<!-- Node32&#45;&gt;Node33 -->
<g id="edge45_Node000032_Node000033" class="edge">
<title>Node32&#45;&gt;Node33</title>
<g id="a_edge45_Node000032_Node000033"><a xlink:title=" ">
<path fill="none" stroke="#63b8ff" d="M2894.95,-197.8C2889.97,-188.41 2883.38,-176.02 2878.03,-165.95"/>
<polygon fill="#63b8ff" stroke="#63b8ff" points="2880.98,-164.03 2873.2,-156.84 2874.8,-167.32 2880.98,-164.03"/>
</a>
</g>
</g>
<!-- Node34 -->
<g id="Node000034" class="node">
<title>Node34</title>
<g id="a_Node000034"><a xlink:title=" ">
<polygon fill="#e0e0e0" stroke="#999999" points="3009.5,-156.5 2951.5,-156.5 2951.5,-137.5 3009.5,-137.5 3009.5,-156.5"/>
<text text-anchor="middle" x="2980.5" y="-144.5" font-family="Helvetica,sans-Serif" font-size="10.00">memory</text>
</a>
</g>
</g>
<!-- Node32&#45;&gt;Node34 -->
<g id="edge46_Node000032_Node000034" class="edge">
<title>Node32&#45;&gt;Node34</title>
<g id="a_edge46_Node000032_Node000034"><a xlink:title=" ">
<path fill="none" stroke="#63b8ff" d="M2919.81,-197.8C2932.21,-187.62 2948.9,-173.93 2961.63,-163.48"/>
<polygon fill="#63b8ff" stroke="#63b8ff" points="2964.21,-165.89 2969.72,-156.84 2959.77,-160.48 2964.21,-165.89"/>
</a>
</g>
</g>
</g>
</svg>
