<?xml version="1.0" encoding="UTF-8" standalone="no"?>
<!DOCTYPE svg PUBLIC "-//W3C//DTD SVG 1.1//EN"
 "http://www.w3.org/Graphics/SVG/1.1/DTD/svg11.dtd">
<!-- Generated by graphviz version 2.43.0 (0)
 -->
<!-- Title: include/Hermes/Socket/_base/Transfer/TlsTransferStateMachine.hpp Pages: 1 -->
<svg width="3215pt" height="445pt"
 viewBox="0.00 0.00 3214.50 445.00" xmlns="http://www.w3.org/2000/svg" xmlns:xlink="http://www.w3.org/1999/xlink">
<g id="graph0" class="graph" transform="scale(1 1) rotate(0) translate(4 441)">
<title>include/Hermes/Socket/_base/Transfer/TlsTransferStateMachine.hpp</title>
<!-- Node1 -->
<g id="Node000001" class="node">
<title>Node1</title>
<g id="a_Node000001"><a xlink:title=" ">
<polygon fill="#999999" stroke="#666666" points="3033.5,-437 2887.5,-437 2887.5,-396 3033.5,-396 3033.5,-437"/>
<text text-anchor="start" x="2895.5" y="-425" font-family="Helvetica,sans-Serif" font-size="10.00">include/Hermes/Socket</text>
<text text-anchor="start" x="2895.5" y="-414" font-family="Helvetica,sans-Serif" font-size="10.00">/_base/Transfer/TlsTransfer</text>
<text text-anchor="middle" x="2960.5" y="-403" font-family="Helvetica,sans-Serif" font-size="10.00">StateMachine.hpp</text>
</a>
</g>
</g>
<!-- Node2 -->
<g id="Node000002" class="node">
<title>Node2</title>
<g id="a_Node000002"><a xlink:href="__base_8hpp.html" target="_top" xlink:title=" ">
<polygon fill="white" stroke="#666666" points="1603,-283 1460,-283 1460,-264 1603,-264 1603,-283"/>
<text text-anchor="middle" x="1531.5" y="-271" font-family="Helvetica,sans-Serif" font-size="10.00">Hermes/Socket/_base.hpp</text>
</a>
</g>
</g>
<!-- Node1&#45;&gt;Node2 -->
<g id="edge1_Node000001_Node000002" class="edge">
<title>Node1&#45;&gt;Node2</title>
<g id="a_edge1_Node000001_Node000002"><a xlink:title=" ">
<path fill="none" stroke="#63b8ff" d="M2887.18,-408.27C2644.52,-384.32 1868.54,-307.76 1613.56,-282.6"/>
<polygon fill="#63b8ff" stroke="#63b8ff" points="1613.55,-279.08 1603.25,-281.58 1612.86,-286.05 1613.55,-279.08"/>
</a>
</g>
</g>
<!-- Node33 -->
<g id="Node000033" class="node">
<title>Node33</title>
<g id="a_Node000033"><a xlink:href="_i_tls_transfer_state_machine_8hpp.html" target="_top" xlink:title=" ">
<polygon fill="white" stroke="#666666" points="2982,-360 2839,-360 2839,-319 2982,-319 2982,-360"/>
<text text-anchor="start" x="2847" y="-348" font-family="Helvetica,sans-Serif" font-size="10.00">Hermes/Socket/_base</text>
<text text-anchor="start" x="2847" y="-337" font-family="Helvetica,sans-Serif" font-size="10.00">/Transfer/ITlsTransferState</text>
<text text-anchor="middle" x="2910.5" y="-326" font-family="Helvetica,sans-Serif" font-size="10.00">Machine.hpp</text>
</a>
</g>
</g>
<!-- Node1&#45;&gt;Node33 -->
<g id="edge41_Node000001_Node000033" class="edge">
<title>Node1&#45;&gt;Node33</title>
<g id="a_edge41_Node000001_Node000033"><a xlink:title=" ">
<path fill="none" stroke="#63b8ff" d="M2947.36,-395.79C2941.79,-387.44 2935.2,-377.55 2929.14,-368.47"/>
<polygon fill="#63b8ff" stroke="#63b8ff" points="2932.01,-366.45 2923.55,-360.07 2926.18,-370.34 2932.01,-366.45"/>
</a>
</g>
</g>
<!-- Node34 -->
<g id="Node000034" class="node">
<title>Node34</title>
<g id="a_Node000034"><a xlink:href="_tls_session_8hpp.html" target="_top" xlink:title=" ">
<polygon fill="white" stroke="#666666" points="3100.5,-228 2978.5,-228 2978.5,-198 3100.5,-198 3100.5,-228"/>
<text text-anchor="start" x="2986.5" y="-216" font-family="Helvetica,sans-Serif" font-size="10.00">Hermes/Socket/_base</text>
<text text-anchor="middle" x="3039.5" y="-205" font-family="Helvetica,sans-Serif" font-size="10.00">/TlsSession.hpp</text>
</a>
</g>
</g>
<!-- Node1&#45;&gt;Node34 -->
<g id="edge45_Node000001_Node000034" class="edge">
<title>Node1&#45;&gt;Node34</title>
<g id="a_edge45_Node000001_Node000034"><a xlink:title=" ">
<path fill="none" stroke="#63b8ff" d="M2972.64,-395.93C2978.8,-385.51 2986.09,-372.33 2991.5,-360 3009.83,-318.22 3025.09,-267.11 3033.2,-237.78"/>
<polygon fill="#63b8ff" stroke="#63b8ff" points="3036.61,-238.58 3035.86,-228.02 3029.86,-236.75 3036.61,-238.58"/>
</a>
</g>
</g>
<!-- Node38 -->
<g id="Node000038" class="node">
<title>Node38</title>
<g id="a_Node000038"><a xlink:title=" ">
<polygon fill="#e0e0e0" stroke="#999999" points="3178.5,-360 3038.5,-360 3038.5,-319 3178.5,-319 3178.5,-360"/>
<text text-anchor="start" x="3046.5" y="-348" font-family="Helvetica,sans-Serif" font-size="10.00">Hermes/Socket/_base</text>
<text text-anchor="start" x="3046.5" y="-337" font-family="Helvetica,sans-Serif" font-size="10.00">/Transfer/TlsTransferState</text>
<text text-anchor="middle" x="3108.5" y="-326" font-family="Helvetica,sans-Serif" font-size="10.00">Machine.tpp</text>
</a>
</g>
</g>
<!-- Node1&#45;&gt;Node38 -->
<g id="edge51_Node000001_Node000038" class="edge">
<title>Node1&#45;&gt;Node38</title>
<g id="a_edge51_Node000001_Node000038"><a xlink:title=" ">
<path fill="none" stroke="#63b8ff" d="M2999,-395.99C3017.94,-386.39 3040.94,-374.73 3060.97,-364.59"/>
<polygon fill="#63b8ff" stroke="#63b8ff" points="3062.6,-367.68 3069.94,-360.04 3059.43,-361.44 3062.6,-367.68"/>
</a>
</g>
</g>
<!-- Node3 -->
<g id="Node000003" class="node">
<title>Node3</title>
<g id="a_Node000003"><a xlink:href="_endpoint_concept_8hpp.html" target="_top" xlink:title=" ">
<polygon fill="white" stroke="#666666" points="1644.5,-228 1512.5,-228 1512.5,-198 1644.5,-198 1644.5,-228"/>
<text text-anchor="start" x="1520.5" y="-216" font-family="Helvetica,sans-Serif" font-size="10.00">Hermes/Endpoint/_base</text>
<text text-anchor="middle" x="1578.5" y="-205" font-family="Helvetica,sans-Serif" font-size="10.00">/EndpointConcept.hpp</text>
</a>
</g>
</g>
<!-- Node2&#45;&gt;Node3 -->
<g id="edge2_Node000002_Node000003" class="edge">
<title>Node2&#45;&gt;Node3</title>
<g id="a_edge2_Node000002_Node000003"><a xlink:title=" ">
<path fill="none" stroke="#63b8ff" d="M1538.44,-263.87C1544.28,-256.59 1552.91,-245.85 1560.66,-236.2"/>
<polygon fill="#63b8ff" stroke="#63b8ff" points="1563.63,-238.1 1567.16,-228.11 1558.17,-233.72 1563.63,-238.1"/>
</a>
</g>
</g>
<!-- Node4 -->
<g id="Node000004" class="node">
<title>Node4</title>
<g id="a_Node000004"><a xlink:href="_connection_error_enum_8hpp.html" target="_top" xlink:title=" ">
<polygon fill="white" stroke="#666666" points="507,-162 340,-162 340,-132 507,-132 507,-162"/>
<text text-anchor="start" x="348" y="-150" font-family="Helvetica,sans-Serif" font-size="10.00">Hermes/_base/ConnectionError</text>
<text text-anchor="middle" x="423.5" y="-139" font-family="Helvetica,sans-Serif" font-size="10.00">Enum.hpp</text>
</a>
</g>
</g>
<!-- Node2&#45;&gt;Node4 -->
<g id="edge36_Node000002_Node000004" class="edge">
<title>Node2&#45;&gt;Node4</title>
<g id="a_edge36_Node000002_Node000004"><a xlink:title=" ">
<path fill="none" stroke="#63b8ff" d="M1526.8,-263.55C1517.58,-247.08 1495.42,-212.34 1465.5,-198 1381.37,-157.68 757.68,-149.88 517.45,-148.36"/>
<polygon fill="#63b8ff" stroke="#63b8ff" points="517.36,-144.86 507.34,-148.3 517.32,-151.86 517.36,-144.86"/>
</a>
</g>
</g>
<!-- Node8 -->
<g id="Node000008" class="node">
<title>Node8</title>
<g id="a_Node000008"><a xlink:title=" ">
<polygon fill="#e0e0e0" stroke="#999999" points="125,-85 0,-85 0,-66 125,-66 125,-85"/>
<text text-anchor="middle" x="62.5" y="-73" font-family="Helvetica,sans-Serif" font-size="10.00">stdexec/execution.hpp</text>
</a>
</g>
</g>
<!-- Node2&#45;&gt;Node8 -->
<g id="edge38_Node000002_Node000008" class="edge">
<title>Node2&#45;&gt;Node8</title>
<g id="a_edge38_Node000002_Node000008"><a xlink:title=" ">
<path fill="none" stroke="#63b8ff" d="M1459.71,-271.27C1272.27,-266.91 753.4,-247.43 331.5,-162 243.21,-144.12 143,-107.83 93.53,-88.79"/>
<polygon fill="#63b8ff" stroke="#63b8ff" points="94.63,-85.47 84.04,-85.11 92.1,-91.99 94.63,-85.47"/>
</a>
</g>
</g>
<!-- Node10 -->
<g id="Node000010" class="node">
<title>Node10</title>
<g id="a_Node000010"><a xlink:href="_os_api_8hpp.html" target="_top" xlink:title=" ">
<polygon fill="white" stroke="#666666" points="1731.5,-162 1613.5,-162 1613.5,-132 1731.5,-132 1731.5,-162"/>
<text text-anchor="start" x="1621.5" y="-150" font-family="Helvetica,sans-Serif" font-size="10.00">Hermes/_base/OsApi</text>
<text text-anchor="middle" x="1672.5" y="-139" font-family="Helvetica,sans-Serif" font-size="10.00">/OsApi.hpp</text>
</a>
</g>
</g>
<!-- Node2&#45;&gt;Node10 -->
<g id="edge37_Node000002_Node000010" class="edge">
<title>Node2&#45;&gt;Node10</title>
<g id="a_edge37_Node000002_Node000010"><a xlink:title=" ">
<path fill="none" stroke="#63b8ff" d="M1588.26,-263.92C1611.49,-257.64 1636.79,-246.78 1653.5,-228 1667.02,-212.81 1671.37,-189.76 1672.58,-172.29"/>
<polygon fill="#63b8ff" stroke="#63b8ff" points="1676.08,-172.39 1672.98,-162.26 1669.08,-172.12 1676.08,-172.39"/>
</a>
</g>
</g>
<!-- Node31 -->
<g id="Node000031" class="node">
<title>Node31</title>
<g id="a_Node000031"><a xlink:title=" ">
<polygon fill="#e0e0e0" stroke="#999999" points="1388.5,-222.5 1328.5,-222.5 1328.5,-203.5 1388.5,-203.5 1388.5,-222.5"/>
<text text-anchor="middle" x="1358.5" y="-210.5" font-family="Helvetica,sans-Serif" font-size="10.00">concepts</text>
</a>
</g>
</g>
<!-- Node2&#45;&gt;Node31 -->
<g id="edge39_Node000002_Node000031" class="edge">
<title>Node2&#45;&gt;Node31</title>
<g id="a_edge39_Node000002_Node000031"><a xlink:title=" ">
<path fill="none" stroke="#63b8ff" d="M1505.25,-263.99C1478.19,-255.17 1434.8,-240.89 1397.5,-228 1395.61,-227.35 1393.68,-226.67 1391.72,-225.99"/>
<polygon fill="#63b8ff" stroke="#63b8ff" points="1392.57,-222.57 1381.98,-222.53 1390.23,-229.17 1392.57,-222.57"/>
</a>
</g>
</g>
<!-- Node32 -->
<g id="Node000032" class="node">
<title>Node32</title>
<g id="a_Node000032"><a xlink:title=" ">
<polygon fill="#e0e0e0" stroke="#999999" points="1456.5,-222.5 1406.5,-222.5 1406.5,-203.5 1456.5,-203.5 1456.5,-222.5"/>
<text text-anchor="middle" x="1431.5" y="-210.5" font-family="Helvetica,sans-Serif" font-size="10.00">ranges</text>
</a>
</g>
</g>
<!-- Node2&#45;&gt;Node32 -->
<g id="edge40_Node000002_Node000032" class="edge">
<title>Node2&#45;&gt;Node32</title>
<g id="a_edge40_Node000002_Node000032"><a xlink:title=" ">
<path fill="none" stroke="#63b8ff" d="M1516.74,-263.87C1500.5,-254.36 1474.15,-238.95 1455.04,-227.77"/>
<polygon fill="#63b8ff" stroke="#63b8ff" points="1456.71,-224.7 1446.32,-222.67 1453.18,-230.74 1456.71,-224.7"/>
</a>
</g>
</g>
<!-- Node3&#45;&gt;Node4 -->
<g id="edge3_Node000003_Node000004" class="edge">
<title>Node3&#45;&gt;Node4</title>
<g id="a_edge3_Node000003_Node000004"><a xlink:title=" ">
<path fill="none" stroke="#63b8ff" d="M1512.24,-199.74C1507.6,-199.08 1502.98,-198.49 1498.5,-198 1137.21,-158.15 704.21,-149.99 517.15,-148.37"/>
<polygon fill="#63b8ff" stroke="#63b8ff" points="517.1,-144.87 507.07,-148.29 517.04,-151.87 517.1,-144.87"/>
</a>
</g>
</g>
<!-- Node3&#45;&gt;Node10 -->
<g id="edge9_Node000003_Node000010" class="edge">
<title>Node3&#45;&gt;Node10</title>
<g id="a_edge9_Node000003_Node000010"><a xlink:title=" ">
<path fill="none" stroke="#63b8ff" d="M1599.36,-197.8C1612.26,-189.01 1629.01,-177.61 1643.23,-167.93"/>
<polygon fill="#63b8ff" stroke="#63b8ff" points="1645.4,-170.69 1651.7,-162.16 1641.46,-164.9 1645.4,-170.69"/>
</a>
</g>
</g>
<!-- Node5 -->
<g id="Node000005" class="node">
<title>Node5</title>
<g id="a_Node000005"><a xlink:title=" ">
<polygon fill="#e0e0e0" stroke="#999999" points="454.5,-85 392.5,-85 392.5,-66 454.5,-66 454.5,-85"/>
<text text-anchor="middle" x="423.5" y="-73" font-family="Helvetica,sans-Serif" font-size="10.00">expected</text>
</a>
</g>
</g>
<!-- Node4&#45;&gt;Node5 -->
<g id="edge4_Node000004_Node000005" class="edge">
<title>Node4&#45;&gt;Node5</title>
<g id="a_edge4_Node000004_Node000005"><a xlink:title=" ">
<path fill="none" stroke="#63b8ff" d="M423.5,-131.94C423.5,-121.46 423.5,-107.05 423.5,-95.55"/>
<polygon fill="#63b8ff" stroke="#63b8ff" points="427,-95.27 423.5,-85.27 420,-95.27 427,-95.27"/>
</a>
</g>
</g>
<!-- Node6 -->
<g id="Node000006" class="node">
<title>Node6</title>
<g id="a_Node000006"><a xlink:title=" ">
<polygon fill="#e0e0e0" stroke="#999999" points="190,-85 143,-85 143,-66 190,-66 190,-85"/>
<text text-anchor="middle" x="166.5" y="-73" font-family="Helvetica,sans-Serif" font-size="10.00">vector</text>
</a>
</g>
</g>
<!-- Node4&#45;&gt;Node6 -->
<g id="edge5_Node000004_Node000006" class="edge">
<title>Node4&#45;&gt;Node6</title>
<g id="a_edge5_Node000004_Node000006"><a xlink:title=" ">
<path fill="none" stroke="#63b8ff" d="M339.99,-133.79C297.04,-125.92 244.43,-113.77 199.5,-96 195.57,-94.45 191.57,-92.47 187.76,-90.37"/>
<polygon fill="#63b8ff" stroke="#63b8ff" points="189.26,-87.18 178.87,-85.07 185.67,-93.19 189.26,-87.18"/>
</a>
</g>
</g>
<!-- Node7 -->
<g id="Node000007" class="node">
<title>Node7</title>
<g id="a_Node000007"><a xlink:title=" ">
<polygon fill="#e0e0e0" stroke="#999999" points="2978.5,-85 2938.5,-85 2938.5,-66 2978.5,-66 2978.5,-85"/>
<text text-anchor="middle" x="2958.5" y="-73" font-family="Helvetica,sans-Serif" font-size="10.00">span</text>
</a>
</g>
</g>
<!-- Node4&#45;&gt;Node7 -->
<g id="edge6_Node000004_Node000007" class="edge">
<title>Node4&#45;&gt;Node7</title>
<g id="a_edge6_Node000004_Node000007"><a xlink:title=" ">
<path fill="none" stroke="#63b8ff" d="M507.05,-144.92C924.77,-139.46 2771.33,-114.38 2891.5,-96 2903.91,-94.1 2917.25,-90.54 2928.74,-86.98"/>
<polygon fill="#63b8ff" stroke="#63b8ff" points="2929.85,-90.3 2938.29,-83.89 2927.7,-83.64 2929.85,-90.3"/>
</a>
</g>
</g>
<!-- Node4&#45;&gt;Node8 -->
<g id="edge7_Node000004_Node000008" class="edge">
<title>Node4&#45;&gt;Node8</title>
<g id="a_edge7_Node000004_Node000008"><a xlink:title=" ">
<path fill="none" stroke="#63b8ff" d="M339.95,-133.8C281.78,-124.77 202.56,-111.4 133.5,-96 122.82,-93.62 111.34,-90.65 100.79,-87.75"/>
<polygon fill="#63b8ff" stroke="#63b8ff" points="101.59,-84.34 91.01,-85.01 99.7,-91.08 101.59,-84.34"/>
</a>
</g>
</g>
<!-- Node9 -->
<g id="Node000009" class="node">
<title>Node9</title>
<g id="a_Node000009"><a xlink:title=" ">
<polygon fill="#e0e0e0" stroke="#999999" points="375,-90.5 208,-90.5 208,-60.5 375,-60.5 375,-90.5"/>
<text text-anchor="start" x="216" y="-78.5" font-family="Helvetica,sans-Serif" font-size="10.00">Hermes/_base/ConnectionError</text>
<text text-anchor="middle" x="291.5" y="-67.5" font-family="Helvetica,sans-Serif" font-size="10.00">Enum.tpp</text>
</a>
</g>
</g>
<!-- Node4&#45;&gt;Node9 -->
<g id="edge8_Node000004_Node000009" class="edge">
<title>Node4&#45;&gt;Node9</title>
<g id="a_edge8_Node000004_Node000009"><a xlink:title=" ">
<path fill="none" stroke="#63b8ff" d="M396.79,-131.94C376.75,-121.38 349.11,-106.83 327.18,-95.29"/>
<polygon fill="#63b8ff" stroke="#63b8ff" points="328.65,-92.11 318.17,-90.54 325.39,-98.3 328.65,-92.11"/>
</a>
</g>
</g>
<!-- Node11 -->
<g id="Node000011" class="node">
<title>Node11</title>
<g id="a_Node000011"><a xlink:title=" ">
<polygon fill="#e0e0e0" stroke="#999999" points="2286,-19 2209,-19 2209,0 2286,0 2286,-19"/>
<text text-anchor="middle" x="2247.5" y="-7" font-family="Helvetica,sans-Serif" font-size="10.00">sys/socket.h</text>
</a>
</g>
</g>
<!-- Node10&#45;&gt;Node11 -->
<g id="edge10_Node000010_Node000011" class="edge">
<title>Node10&#45;&gt;Node11</title>
<g id="a_edge10_Node000010_Node000011"><a xlink:title=" ">
<path fill="none" stroke="#63b8ff" d="M1731.5,-144.61C1867.24,-140.87 2192.85,-128.57 2229.5,-96 2248.08,-79.49 2250.25,-49.09 2249.4,-29.34"/>
<polygon fill="#63b8ff" stroke="#63b8ff" points="2252.88,-28.85 2248.66,-19.13 2245.9,-29.36 2252.88,-28.85"/>
</a>
</g>
</g>
<!-- Node12 -->
<g id="Node000012" class="node">
<title>Node12</title>
<g id="a_Node000012"><a xlink:title=" ">
<polygon fill="#e0e0e0" stroke="#999999" points="580.5,-19 508.5,-19 508.5,0 580.5,0 580.5,-19"/>
<text text-anchor="middle" x="544.5" y="-7" font-family="Helvetica,sans-Serif" font-size="10.00">netinet/in.h</text>
</a>
</g>
</g>
<!-- Node10&#45;&gt;Node12 -->
<g id="edge11_Node000010_Node000012" class="edge">
<title>Node10&#45;&gt;Node12</title>
<g id="a_edge11_Node000010_Node000012"><a xlink:title=" ">
<path fill="none" stroke="#63b8ff" d="M1613.48,-145.72C1381.26,-144.32 541.27,-136.46 502.5,-96 489.89,-82.84 495.77,-71.93 502.5,-55 507.02,-43.63 515.97,-33.48 524.46,-25.76"/>
<polygon fill="#63b8ff" stroke="#63b8ff" points="526.91,-28.27 532.29,-19.14 522.39,-22.92 526.91,-28.27"/>
</a>
</g>
</g>
<!-- Node13 -->
<g id="Node000013" class="node">
<title>Node13</title>
<g id="a_Node000013"><a xlink:title=" ">
<polygon fill="#e0e0e0" stroke="#999999" points="2715,-85 2646,-85 2646,-66 2715,-66 2715,-85"/>
<text text-anchor="middle" x="2680.5" y="-73" font-family="Helvetica,sans-Serif" font-size="10.00">arpa/inet.h</text>
</a>
</g>
</g>
<!-- Node10&#45;&gt;Node13 -->
<g id="edge12_Node000010_Node000013" class="edge">
<title>Node10&#45;&gt;Node13</title>
<g id="a_edge12_Node000010_Node000013"><a xlink:title=" ">
<path fill="none" stroke="#63b8ff" d="M1731.62,-145.81C1913.73,-144.78 2464.31,-138.15 2637.5,-96 2643.62,-94.51 2649.95,-92.16 2655.8,-89.59"/>
<polygon fill="#63b8ff" stroke="#63b8ff" points="2657.54,-92.64 2665.08,-85.19 2654.54,-86.31 2657.54,-92.64"/>
</a>
</g>
</g>
<!-- Node14 -->
<g id="Node000014" class="node">
<title>Node14</title>
<g id="a_Node000014"><a xlink:title=" ">
<polygon fill="#e0e0e0" stroke="#999999" points="1265,-19 1212,-19 1212,0 1265,0 1265,-19"/>
<text text-anchor="middle" x="1238.5" y="-7" font-family="Helvetica,sans-Serif" font-size="10.00">netdb.h</text>
</a>
</g>
</g>
<!-- Node10&#45;&gt;Node14 -->
<g id="edge13_Node000010_Node000014" class="edge">
<title>Node10&#45;&gt;Node14</title>
<g id="a_edge13_Node000010_Node000014"><a xlink:title=" ">
<path fill="none" stroke="#63b8ff" d="M1613.3,-144.72C1424.99,-140.35 850.58,-124.72 823.5,-96 811,-82.74 811.32,-68.55 823.5,-55 848.59,-27.08 1105,-15.2 1201.79,-11.69"/>
<polygon fill="#63b8ff" stroke="#63b8ff" points="1202.11,-15.18 1211.98,-11.33 1201.86,-8.18 1202.11,-15.18"/>
</a>
</g>
</g>
<!-- Node15 -->
<g id="Node000015" class="node">
<title>Node15</title>
<g id="a_Node000015"><a xlink:title=" ">
<polygon fill="#e0e0e0" stroke="#999999" points="776.5,-85 720.5,-85 720.5,-66 776.5,-66 776.5,-85"/>
<text text-anchor="middle" x="748.5" y="-73" font-family="Helvetica,sans-Serif" font-size="10.00">unistd.h</text>
</a>
</g>
</g>
<!-- Node10&#45;&gt;Node15 -->
<g id="edge14_Node000010_Node000015" class="edge">
<title>Node10&#45;&gt;Node15</title>
<g id="a_edge14_Node000010_Node000015"><a xlink:title=" ">
<path fill="none" stroke="#63b8ff" d="M1613.35,-145.54C1441.91,-143.75 946.98,-135.23 790.5,-96 784.51,-94.5 778.32,-92.14 772.61,-89.57"/>
<polygon fill="#63b8ff" stroke="#63b8ff" points="774.07,-86.39 763.54,-85.18 771.01,-92.69 774.07,-86.39"/>
</a>
</g>
</g>
<!-- Node16 -->
<g id="Node000016" class="node">
<title>Node16</title>
<g id="a_Node000016"><a xlink:href="_types_8hpp.html" target="_top" xlink:title=" ">
<polygon fill="white" stroke="#666666" points="1880.5,-90.5 1762.5,-90.5 1762.5,-60.5 1880.5,-60.5 1880.5,-90.5"/>
<text text-anchor="start" x="1770.5" y="-78.5" font-family="Helvetica,sans-Serif" font-size="10.00">Hermes/_base/OsApi</text>
<text text-anchor="middle" x="1821.5" y="-67.5" font-family="Helvetica,sans-Serif" font-size="10.00">/Types.hpp</text>
</a>
</g>
</g>
<!-- Node10&#45;&gt;Node16 -->
<g id="edge15_Node000010_Node000016" class="edge">
<title>Node10&#45;&gt;Node16</title>
<g id="a_edge15_Node000010_Node000016"><a xlink:title=" ">
<path fill="none" stroke="#63b8ff" d="M1702.65,-131.94C1725.57,-121.24 1757.3,-106.44 1782.21,-94.83"/>
<polygon fill="#63b8ff" stroke="#63b8ff" points="1783.81,-97.94 1791.39,-90.54 1780.85,-91.6 1783.81,-97.94"/>
</a>
</g>
</g>
<!-- Node18 -->
<g id="Node000018" class="node">
<title>Node18</title>
<g id="a_Node000018"><a xlink:href="_conversion_and_literals_8hpp.html" target="_top" xlink:title=" ">
<polygon fill="white" stroke="#666666" points="2882.5,-90.5 2732.5,-90.5 2732.5,-60.5 2882.5,-60.5 2882.5,-90.5"/>
<text text-anchor="start" x="2740.5" y="-78.5" font-family="Helvetica,sans-Serif" font-size="10.00">Hermes/_base/OsApi</text>
<text text-anchor="middle" x="2807.5" y="-67.5" font-family="Helvetica,sans-Serif" font-size="10.00">/ConversionAndLiterals.hpp</text>
</a>
</g>
</g>
<!-- Node10&#45;&gt;Node18 -->
<g id="edge17_Node000010_Node000018" class="edge">
<title>Node10&#45;&gt;Node18</title>
<g id="a_edge17_Node000010_Node000018"><a xlink:title=" ">
<path fill="none" stroke="#63b8ff" d="M1731.84,-144.61C1924.38,-139.88 2530.52,-123.16 2724.5,-96 2730.85,-95.11 2737.43,-93.96 2743.97,-92.67"/>
<polygon fill="#63b8ff" stroke="#63b8ff" points="2745.12,-96.01 2754.19,-90.54 2743.69,-89.16 2745.12,-96.01"/>
</a>
</g>
</g>
<!-- Node20 -->
<g id="Node000020" class="node">
<title>Node20</title>
<g id="a_Node000020"><a xlink:href="_macros_8hpp.html" target="_top" xlink:title=" ">
<polygon fill="white" stroke="#666666" points="2016.5,-90.5 1898.5,-90.5 1898.5,-60.5 2016.5,-60.5 2016.5,-90.5"/>
<text text-anchor="start" x="1906.5" y="-78.5" font-family="Helvetica,sans-Serif" font-size="10.00">Hermes/_base/OsApi</text>
<text text-anchor="middle" x="1957.5" y="-67.5" font-family="Helvetica,sans-Serif" font-size="10.00">/Macros.hpp</text>
</a>
</g>
</g>
<!-- Node10&#45;&gt;Node20 -->
<g id="edge19_Node000010_Node000020" class="edge">
<title>Node10&#45;&gt;Node20</title>
<g id="a_edge19_Node000010_Node000020"><a xlink:title=" ">
<path fill="none" stroke="#63b8ff" d="M1731.65,-133.26C1775.39,-123.62 1836.35,-109.73 1889.5,-96 1892.87,-95.13 1896.33,-94.21 1899.82,-93.27"/>
<polygon fill="#63b8ff" stroke="#63b8ff" points="1900.95,-96.59 1909.66,-90.56 1899.09,-89.84 1900.95,-96.59"/>
</a>
</g>
</g>
<!-- Node22 -->
<g id="Node000022" class="node">
<title>Node22</title>
<g id="a_Node000022"><a xlink:href="_address_family_enum_8hpp.html" target="_top" xlink:title=" ">
<polygon fill="white" stroke="#666666" points="2451.5,-90.5 2275.5,-90.5 2275.5,-60.5 2451.5,-60.5 2451.5,-90.5"/>
<text text-anchor="start" x="2283.5" y="-78.5" font-family="Helvetica,sans-Serif" font-size="10.00">Hermes/_base/OsApi</text>
<text text-anchor="middle" x="2363.5" y="-67.5" font-family="Helvetica,sans-Serif" font-size="10.00">/Enums/AddressFamilyEnum.hpp</text>
</a>
</g>
</g>
<!-- Node10&#45;&gt;Node22 -->
<g id="edge22_Node000010_Node000022" class="edge">
<title>Node10&#45;&gt;Node22</title>
<g id="a_edge22_Node000010_Node000022"><a xlink:title=" ">
<path fill="none" stroke="#63b8ff" d="M1731.66,-143.02C1838.06,-137.21 2068.59,-122.55 2261.5,-96 2269.22,-94.94 2277.25,-93.68 2285.25,-92.32"/>
<polygon fill="#63b8ff" stroke="#63b8ff" points="2286.11,-95.72 2295.35,-90.55 2284.9,-88.82 2286.11,-95.72"/>
</a>
</g>
</g>
<!-- Node23 -->
<g id="Node000023" class="node">
<title>Node23</title>
<g id="a_Node000023"><a xlink:href="_protocol_base_type_enum_8hpp.html" target="_top" xlink:title=" ">
<polygon fill="white" stroke="#666666" points="702,-90.5 511,-90.5 511,-60.5 702,-60.5 702,-90.5"/>
<text text-anchor="start" x="519" y="-78.5" font-family="Helvetica,sans-Serif" font-size="10.00">Hermes/_base/OsApi</text>
<text text-anchor="middle" x="606.5" y="-67.5" font-family="Helvetica,sans-Serif" font-size="10.00">/Enums/ProtocolBaseTypeEnum.hpp</text>
</a>
</g>
</g>
<!-- Node10&#45;&gt;Node23 -->
<g id="edge24_Node000010_Node000023" class="edge">
<title>Node10&#45;&gt;Node23</title>
<g id="a_edge24_Node000010_Node000023"><a xlink:title=" ">
<path fill="none" stroke="#63b8ff" d="M1613.5,-145.63C1462.75,-144.09 1051.4,-136.23 711.5,-96 702.8,-94.97 693.74,-93.66 684.75,-92.2"/>
<polygon fill="#63b8ff" stroke="#63b8ff" points="685.09,-88.71 674.64,-90.5 683.92,-95.61 685.09,-88.71"/>
</a>
</g>
</g>
<!-- Node24 -->
<g id="Node000024" class="node">
<title>Node24</title>
<g id="a_Node000024"><a xlink:href="_socket_shutdown_enum_8hpp.html" target="_top" xlink:title=" ">
<polygon fill="white" stroke="#666666" points="2220,-90.5 2035,-90.5 2035,-60.5 2220,-60.5 2220,-90.5"/>
<text text-anchor="start" x="2043" y="-78.5" font-family="Helvetica,sans-Serif" font-size="10.00">Hermes/_base/OsApi</text>
<text text-anchor="middle" x="2127.5" y="-67.5" font-family="Helvetica,sans-Serif" font-size="10.00">/Enums/SocketShutdownEnum.hpp</text>
</a>
</g>
</g>
<!-- Node10&#45;&gt;Node24 -->
<g id="edge26_Node000010_Node000024" class="edge">
<title>Node10&#45;&gt;Node24</title>
<g id="a_edge26_Node000010_Node000024"><a xlink:title=" ">
<path fill="none" stroke="#63b8ff" d="M1731.66,-138.51C1801.88,-129.41 1922.46,-113.14 2025.5,-96 2032.25,-94.88 2039.24,-93.66 2046.26,-92.4"/>
<polygon fill="#63b8ff" stroke="#63b8ff" points="2047.31,-95.76 2056.52,-90.53 2046.05,-88.88 2047.31,-95.76"/>
</a>
</g>
</g>
<!-- Node25 -->
<g id="Node000025" class="node">
<title>Node25</title>
<g id="a_Node000025"><a xlink:href="_socket_type_enum_8hpp.html" target="_top" xlink:title=" ">
<polygon fill="white" stroke="#666666" points="2628,-90.5 2469,-90.5 2469,-60.5 2628,-60.5 2628,-90.5"/>
<text text-anchor="start" x="2477" y="-78.5" font-family="Helvetica,sans-Serif" font-size="10.00">Hermes/_base/OsApi</text>
<text text-anchor="middle" x="2548.5" y="-67.5" font-family="Helvetica,sans-Serif" font-size="10.00">/Enums/SocketTypeEnum.hpp</text>
</a>
</g>
</g>
<!-- Node10&#45;&gt;Node25 -->
<g id="edge28_Node000010_Node000025" class="edge">
<title>Node10&#45;&gt;Node25</title>
<g id="a_edge28_Node000010_Node000025"><a xlink:title=" ">
<path fill="none" stroke="#63b8ff" d="M1731.63,-145.37C1863.24,-143.27 2190.07,-134.31 2460.5,-96 2467.16,-95.06 2474.07,-93.88 2480.95,-92.57"/>
<polygon fill="#63b8ff" stroke="#63b8ff" points="2481.86,-95.96 2490.98,-90.58 2480.49,-89.1 2481.86,-95.96"/>
</a>
</g>
</g>
<!-- Node26 -->
<g id="Node000026" class="node">
<title>Node26</title>
<g id="a_Node000026"><a xlink:href="_linux_2_encrypt_status_enum_8hpp.html" target="_top" xlink:title=" ">
<polygon fill="white" stroke="#666666" points="984.5,-96 832.5,-96 832.5,-55 984.5,-55 984.5,-96"/>
<text text-anchor="start" x="840.5" y="-84" font-family="Helvetica,sans-Serif" font-size="10.00">Hermes/_base/OsApi</text>
<text text-anchor="start" x="840.5" y="-73" font-family="Helvetica,sans-Serif" font-size="10.00">/Enums/Linux/EncryptStatus</text>
<text text-anchor="middle" x="908.5" y="-62" font-family="Helvetica,sans-Serif" font-size="10.00">Enum.hpp</text>
</a>
</g>
</g>
<!-- Node10&#45;&gt;Node26 -->
<g id="edge30_Node000010_Node000026" class="edge">
<title>Node10&#45;&gt;Node26</title>
<g id="a_edge30_Node000010_Node000026"><a xlink:title=" ">
<path fill="none" stroke="#63b8ff" d="M1613.13,-144.66C1496.35,-141.36 1228.56,-130.56 994.9,-96.09"/>
<polygon fill="#63b8ff" stroke="#63b8ff" points="995.26,-92.61 984.85,-94.59 994.22,-99.53 995.26,-92.61"/>
</a>
</g>
</g>
<!-- Node27 -->
<g id="Node000027" class="node">
<title>Node27</title>
<g id="a_Node000027"><a xlink:href="_name_info_flags_8hpp.html" target="_top" xlink:title=" ">
<polygon fill="white" stroke="#666666" points="1744.5,-90.5 1600.5,-90.5 1600.5,-60.5 1744.5,-60.5 1744.5,-90.5"/>
<text text-anchor="start" x="1608.5" y="-78.5" font-family="Helvetica,sans-Serif" font-size="10.00">Hermes/_base/OsApi</text>
<text text-anchor="middle" x="1672.5" y="-67.5" font-family="Helvetica,sans-Serif" font-size="10.00">/Flags/NameInfoFlags.hpp</text>
</a>
</g>
</g>
<!-- Node10&#45;&gt;Node27 -->
<g id="edge31_Node000010_Node000027" class="edge">
<title>Node10&#45;&gt;Node27</title>
<g id="a_edge31_Node000010_Node000027"><a xlink:title=" ">
<path fill="none" stroke="#63b8ff" d="M1672.5,-131.94C1672.5,-122.99 1672.5,-111.16 1672.5,-100.73"/>
<polygon fill="#63b8ff" stroke="#63b8ff" points="1676,-100.54 1672.5,-90.54 1669,-100.54 1676,-100.54"/>
</a>
</g>
</g>
<!-- Node28 -->
<g id="Node000028" class="node">
<title>Node28</title>
<g id="a_Node000028"><a xlink:href="_linux_2_credential_flags_8hpp.html" target="_top" xlink:title=" ">
<polygon fill="white" stroke="#666666" points="1178.5,-90.5 1002.5,-90.5 1002.5,-60.5 1178.5,-60.5 1178.5,-90.5"/>
<text text-anchor="start" x="1010.5" y="-78.5" font-family="Helvetica,sans-Serif" font-size="10.00">Hermes/_base/OsApi</text>
<text text-anchor="middle" x="1090.5" y="-67.5" font-family="Helvetica,sans-Serif" font-size="10.00">/Flags/Linux/CredentialFlags.hpp</text>
</a>
</g>
</g>
<!-- Node10&#45;&gt;Node28 -->
<g id="edge33_Node000010_Node000028" class="edge">
<title>Node10&#45;&gt;Node28</title>
<g id="a_edge33_Node000010_Node000028"><a xlink:title=" ">
<path fill="none" stroke="#63b8ff" d="M1613.42,-141.69C1522.01,-134.61 1340.94,-118.99 1188.5,-96 1181.37,-94.92 1173.96,-93.68 1166.57,-92.36"/>
<polygon fill="#63b8ff" stroke="#63b8ff" points="1166.98,-88.88 1156.51,-90.51 1165.71,-95.76 1166.98,-88.88"/>
</a>
</g>
</g>
<!-- Node29 -->
<g id="Node000029" class="node">
<title>Node29</title>
<g id="a_Node000029"><a xlink:href="_linux_2_supported_protocols_flags_8hpp.html" target="_top" xlink:title=" ">
<polygon fill="white" stroke="#666666" points="1370,-96 1197,-96 1197,-55 1370,-55 1370,-96"/>
<text text-anchor="start" x="1205" y="-84" font-family="Helvetica,sans-Serif" font-size="10.00">Hermes/_base/OsApi</text>
<text text-anchor="start" x="1205" y="-73" font-family="Helvetica,sans-Serif" font-size="10.00">/Flags/Linux/SupportedProtocols</text>
<text text-anchor="middle" x="1283.5" y="-62" font-family="Helvetica,sans-Serif" font-size="10.00">Flags.hpp</text>
</a>
</g>
</g>
<!-- Node10&#45;&gt;Node29 -->
<g id="edge34_Node000010_Node000029" class="edge">
<title>Node10&#45;&gt;Node29</title>
<g id="a_edge34_Node000010_Node000029"><a xlink:title=" ">
<path fill="none" stroke="#63b8ff" d="M1613.48,-136.49C1556.43,-127.17 1467.32,-112.27 1380.15,-96.09"/>
<polygon fill="#63b8ff" stroke="#63b8ff" points="1380.55,-92.61 1370.08,-94.22 1379.27,-99.49 1380.55,-92.61"/>
</a>
</g>
</g>
<!-- Node30 -->
<g id="Node000030" class="node">
<title>Node30</title>
<g id="a_Node000030"><a xlink:href="_linux_2_s_channel_cred_flags_8hpp.html" target="_top" xlink:title=" ">
<polygon fill="white" stroke="#666666" points="1582.5,-90.5 1388.5,-90.5 1388.5,-60.5 1582.5,-60.5 1582.5,-90.5"/>
<text text-anchor="start" x="1396.5" y="-78.5" font-family="Helvetica,sans-Serif" font-size="10.00">Hermes/_base/OsApi</text>
<text text-anchor="middle" x="1485.5" y="-67.5" font-family="Helvetica,sans-Serif" font-size="10.00">/Flags/Linux/SChannelCredFlags.hpp</text>
</a>
</g>
</g>
<!-- Node10&#45;&gt;Node30 -->
<g id="edge35_Node000010_Node000030" class="edge">
<title>Node10&#45;&gt;Node30</title>
<g id="a_edge35_Node000010_Node000030"><a xlink:title=" ">
<path fill="none" stroke="#63b8ff" d="M1634.66,-131.94C1605.26,-121.01 1564.31,-105.79 1532.75,-94.06"/>
<polygon fill="#63b8ff" stroke="#63b8ff" points="1533.88,-90.75 1523.29,-90.54 1531.44,-97.31 1533.88,-90.75"/>
</a>
</g>
</g>
<!-- Node17 -->
<g id="Node000017" class="node">
<title>Node17</title>
<g id="a_Node000017"><a xlink:title=" ">
<polygon fill="#e0e0e0" stroke="#999999" points="1858.5,-19 1784.5,-19 1784.5,0 1858.5,0 1858.5,-19"/>
<text text-anchor="middle" x="1821.5" y="-7" font-family="Helvetica,sans-Serif" font-size="10.00">WinSock2.h</text>
</a>
</g>
</g>
<!-- Node16&#45;&gt;Node17 -->
<g id="edge16_Node000016_Node000017" class="edge">
<title>Node16&#45;&gt;Node17</title>
<g id="a_edge16_Node000016_Node000017"><a xlink:title=" ">
<path fill="none" stroke="#63b8ff" d="M1821.5,-60.3C1821.5,-51.2 1821.5,-39.29 1821.5,-29.4"/>
<polygon fill="#63b8ff" stroke="#63b8ff" points="1825,-29.34 1821.5,-19.34 1818,-29.34 1825,-29.34"/>
</a>
</g>
</g>
<!-- Node19 -->
<g id="Node000019" class="node">
<title>Node19</title>
<g id="a_Node000019"><a xlink:title=" ">
<polygon fill="#e0e0e0" stroke="#999999" points="2883.5,-19 2833.5,-19 2833.5,0 2883.5,0 2883.5,-19"/>
<text text-anchor="middle" x="2858.5" y="-7" font-family="Helvetica,sans-Serif" font-size="10.00">cstdint</text>
</a>
</g>
</g>
<!-- Node18&#45;&gt;Node19 -->
<g id="edge18_Node000018_Node000019" class="edge">
<title>Node18&#45;&gt;Node19</title>
<g id="a_edge18_Node000018_Node000019"><a xlink:title=" ">
<path fill="none" stroke="#63b8ff" d="M2818.82,-60.3C2826.61,-50.51 2837,-37.48 2845.19,-27.2"/>
<polygon fill="#63b8ff" stroke="#63b8ff" points="2847.96,-29.35 2851.45,-19.34 2842.48,-24.98 2847.96,-29.35"/>
</a>
</g>
</g>
<!-- Node20&#45;&gt;Node11 -->
<g id="edge21_Node000020_Node000011" class="edge">
<title>Node20&#45;&gt;Node11</title>
<g id="a_edge21_Node000020_Node000011"><a xlink:title=" ">
<path fill="none" stroke="#63b8ff" d="M2005.26,-60.49C2012.36,-58.56 2019.6,-56.67 2026.5,-55 2085.44,-40.76 2153.99,-27.46 2198.92,-19.17"/>
<polygon fill="#63b8ff" stroke="#63b8ff" points="2199.77,-22.58 2208.98,-17.33 2198.51,-15.69 2199.77,-22.58"/>
</a>
</g>
</g>
<!-- Node21 -->
<g id="Node000021" class="node">
<title>Node21</title>
<g id="a_Node000021"><a xlink:title=" ">
<polygon fill="#e0e0e0" stroke="#999999" points="1994,-19 1921,-19 1921,0 1994,0 1994,-19"/>
<text text-anchor="middle" x="1957.5" y="-7" font-family="Helvetica,sans-Serif" font-size="10.00">string_view</text>
</a>
</g>
</g>
<!-- Node20&#45;&gt;Node21 -->
<g id="edge20_Node000020_Node000021" class="edge">
<title>Node20&#45;&gt;Node21</title>
<g id="a_edge20_Node000020_Node000021"><a xlink:title=" ">
<path fill="none" stroke="#63b8ff" d="M1957.5,-60.3C1957.5,-51.2 1957.5,-39.29 1957.5,-29.4"/>
<polygon fill="#63b8ff" stroke="#63b8ff" points="1961,-29.34 1957.5,-19.34 1954,-29.34 1961,-29.34"/>
</a>
</g>
</g>
<!-- Node22&#45;&gt;Node11 -->
<g id="edge23_Node000022_Node000011" class="edge">
<title>Node22&#45;&gt;Node11</title>
<g id="a_edge23_Node000022_Node000011"><a xlink:title=" ">
<path fill="none" stroke="#63b8ff" d="M2338.04,-60.45C2318.33,-49.58 2291.19,-34.61 2271.78,-23.9"/>
<polygon fill="#63b8ff" stroke="#63b8ff" points="2273.38,-20.78 2262.94,-19.02 2270,-26.91 2273.38,-20.78"/>
</a>
</g>
</g>
<!-- Node23&#45;&gt;Node12 -->
<g id="edge25_Node000023_Node000012" class="edge">
<title>Node23&#45;&gt;Node12</title>
<g id="a_edge25_Node000023_Node000012"><a xlink:title=" ">
<path fill="none" stroke="#63b8ff" d="M592.74,-60.3C583.07,-50.32 570.13,-36.96 560.08,-26.59"/>
<polygon fill="#63b8ff" stroke="#63b8ff" points="562.54,-24.09 553.07,-19.34 557.51,-28.96 562.54,-24.09"/>
</a>
</g>
</g>
<!-- Node24&#45;&gt;Node11 -->
<g id="edge27_Node000024_Node000011" class="edge">
<title>Node24&#45;&gt;Node11</title>
<g id="a_edge27_Node000024_Node000011"><a xlink:title=" ">
<path fill="none" stroke="#63b8ff" d="M2153.83,-60.45C2174.32,-49.53 2202.56,-34.47 2222.66,-23.75"/>
<polygon fill="#63b8ff" stroke="#63b8ff" points="2224.35,-26.81 2231.53,-19.02 2221.06,-20.64 2224.35,-26.81"/>
</a>
</g>
</g>
<!-- Node25&#45;&gt;Node11 -->
<g id="edge29_Node000025_Node000011" class="edge">
<title>Node25&#45;&gt;Node11</title>
<g id="a_edge29_Node000025_Node000011"><a xlink:title=" ">
<path fill="none" stroke="#63b8ff" d="M2485.55,-60.45C2477.13,-58.6 2468.61,-56.75 2460.5,-55 2404.09,-42.86 2339.16,-29.36 2295.96,-20.45"/>
<polygon fill="#63b8ff" stroke="#63b8ff" points="2296.51,-16.99 2286.01,-18.4 2295.1,-23.85 2296.51,-16.99"/>
</a>
</g>
</g>
<!-- Node27&#45;&gt;Node14 -->
<g id="edge32_Node000027_Node000014" class="edge">
<title>Node27&#45;&gt;Node14</title>
<g id="a_edge32_Node000027_Node000014"><a xlink:title=" ">
<path fill="none" stroke="#63b8ff" d="M1617.78,-60.46C1609.02,-58.46 1600.04,-56.56 1591.5,-55 1476.96,-34.06 1339.7,-19.83 1275.29,-13.78"/>
<polygon fill="#63b8ff" stroke="#63b8ff" points="1275.5,-10.29 1265.22,-12.85 1274.86,-17.26 1275.5,-10.29"/>
</a>
</g>
</g>
<!-- Node33&#45;&gt;Node2 -->
<g id="edge42_Node000033_Node000002" class="edge">
<title>Node33&#45;&gt;Node2</title>
<g id="a_edge42_Node000033_Node000002"><a xlink:title=" ">
<path fill="none" stroke="#63b8ff" d="M2838.78,-335.17C2604.31,-324.29 1861.26,-289.8 1613.09,-278.29"/>
<polygon fill="#63b8ff" stroke="#63b8ff" points="1613.21,-274.79 1603.06,-277.82 1612.89,-281.78 1613.21,-274.79"/>
</a>
</g>
</g>
<!-- Node33&#45;&gt;Node7 -->
<g id="edge43_Node000033_Node000007" class="edge">
<title>Node33&#45;&gt;Node7</title>
<g id="a_edge43_Node000033_Node000007"><a xlink:title=" ">
<path fill="none" stroke="#63b8ff" d="M2915.89,-318.81C2918.68,-308.25 2922.01,-294.97 2924.5,-283 2938.79,-214.31 2950.87,-131.75 2955.94,-95.33"/>
<polygon fill="#63b8ff" stroke="#63b8ff" points="2959.44,-95.59 2957.33,-85.2 2952.5,-94.63 2959.44,-95.59"/>
</a>
</g>
</g>
<!-- Node33&#45;&gt;Node19 -->
<g id="edge44_Node000033_Node000019" class="edge">
<title>Node33&#45;&gt;Node19</title>
<g id="a_edge44_Node000033_Node000019"><a xlink:title=" ">
<path fill="none" stroke="#63b8ff" d="M2910.5,-318.66C2910.5,-294.09 2910.5,-250.96 2910.5,-214 2910.5,-214 2910.5,-214 2910.5,-146 2910.5,-104.68 2908.42,-92.69 2891.5,-55 2886.99,-44.95 2879.9,-34.98 2873.46,-27.04"/>
<polygon fill="#63b8ff" stroke="#63b8ff" points="2876.01,-24.64 2866.86,-19.3 2870.68,-29.18 2876.01,-24.64"/>
</a>
</g>
</g>
<!-- Node34&#45;&gt;Node7 -->
<g id="edge50_Node000034_Node000007" class="edge">
<title>Node34&#45;&gt;Node7</title>
<g id="a_edge50_Node000034_Node000007"><a xlink:title=" ">
<path fill="none" stroke="#63b8ff" d="M3029.69,-197.74C3022.98,-187.83 3013.97,-174.26 3006.5,-162 2992.43,-138.91 2977.34,-111.56 2967.91,-94.13"/>
<polygon fill="#63b8ff" stroke="#63b8ff" points="2970.89,-92.26 2963.07,-85.11 2964.72,-95.58 2970.89,-92.26"/>
</a>
</g>
</g>
<!-- Node34&#45;&gt;Node10 -->
<g id="edge46_Node000034_Node000010" class="edge">
<title>Node34&#45;&gt;Node10</title>
<g id="a_edge46_Node000034_Node000010"><a xlink:title=" ">
<path fill="none" stroke="#63b8ff" d="M2978.11,-209.13C2753.76,-198.62 1979.1,-162.35 1742.01,-151.25"/>
<polygon fill="#63b8ff" stroke="#63b8ff" points="1741.94,-147.75 1731.79,-150.78 1741.62,-154.74 1741.94,-147.75"/>
</a>
</g>
</g>
<!-- Node35 -->
<g id="Node000035" class="node">
<title>Node35</title>
<g id="a_Node000035"><a xlink:title=" ">
<polygon fill="#e0e0e0" stroke="#999999" points="3068,-156.5 3015,-156.5 3015,-137.5 3068,-137.5 3068,-156.5"/>
<text text-anchor="middle" x="3041.5" y="-144.5" font-family="Helvetica,sans-Serif" font-size="10.00">cstddef</text>
</a>
</g>
</g>
<!-- Node34&#45;&gt;Node35 -->
<g id="edge47_Node000034_Node000035" class="edge">
<title>Node34&#45;&gt;Node35</title>
<g id="a_edge47_Node000034_Node000035"><a xlink:title=" ">
<path fill="none" stroke="#63b8ff" d="M3039.94,-197.8C3040.23,-188.7 3040.6,-176.79 3040.91,-166.9"/>
<polygon fill="#63b8ff" stroke="#63b8ff" points="3044.41,-166.95 3041.22,-156.84 3037.41,-166.73 3044.41,-166.95"/>
</a>
</g>
</g>
<!-- Node36 -->
<g id="Node000036" class="node">
<title>Node36</title>
<g id="a_Node000036"><a xlink:title=" ">
<polygon fill="#e0e0e0" stroke="#999999" points="3130.5,-156.5 3086.5,-156.5 3086.5,-137.5 3130.5,-137.5 3130.5,-156.5"/>
<text text-anchor="middle" x="3108.5" y="-144.5" font-family="Helvetica,sans-Serif" font-size="10.00">string</text>
</a>
</g>
</g>
<!-- Node34&#45;&gt;Node36 -->
<g id="edge48_Node000034_Node000036" class="edge">
<title>Node34&#45;&gt;Node36</title>
<g id="a_edge48_Node000034_Node000036"><a xlink:title=" ">
<path fill="none" stroke="#63b8ff" d="M3054.81,-197.8C3065.68,-187.72 3080.26,-174.19 3091.49,-163.78"/>
<polygon fill="#63b8ff" stroke="#63b8ff" points="3094.01,-166.21 3098.96,-156.84 3089.25,-161.08 3094.01,-166.21"/>
</a>
</g>
</g>
<!-- Node37 -->
<g id="Node000037" class="node">
<title>Node37</title>
<g id="a_Node000037"><a xlink:title=" ">
<polygon fill="#e0e0e0" stroke="#999999" points="3206.5,-156.5 3148.5,-156.5 3148.5,-137.5 3206.5,-137.5 3206.5,-156.5"/>
<text text-anchor="middle" x="3177.5" y="-144.5" font-family="Helvetica,sans-Serif" font-size="10.00">memory</text>
</a>
</g>
</g>
<!-- Node34&#45;&gt;Node37 -->
<g id="edge49_Node000034_Node000037" class="edge">
<title>Node34&#45;&gt;Node37</title>
<g id="a_edge49_Node000034_Node000037"><a xlink:title=" ">
<path fill="none" stroke="#63b8ff" d="M3069.78,-197.95C3093.67,-186.88 3126.7,-171.56 3149.86,-160.82"/>
<polygon fill="#63b8ff" stroke="#63b8ff" points="3151.54,-163.9 3159.13,-156.52 3148.59,-157.55 3151.54,-163.9"/>
</a>
</g>
</g>
</g>
</svg>
