<?xml version="1.0" encoding="UTF-8" standalone="no"?>
<!DOCTYPE svg PUBLIC "-//W3C//DTD SVG 1.1//EN"
 "http://www.w3.org/Graphics/SVG/1.1/DTD/svg11.dtd">
<!-- Generated by graphviz version 2.43.0 (0)
 -->
<!-- Title: include/Hermes/Socket/Data/TlsSocketData.hpp Pages: 1 -->
<svg width="1107pt" height="335pt"
 viewBox="0.00 0.00 1106.50 335.00" xmlns="http://www.w3.org/2000/svg" xmlns:xlink="http://www.w3.org/1999/xlink">
<g id="graph0" class="graph" transform="scale(1 1) rotate(0) translate(4 331)">
<title>include/Hermes/Socket/Data/TlsSocketData.hpp</title>
<!-- Node1 -->
<g id="Node000001" class="node">
<title>Node1</title>
<g id="a_Node000001"><a xlink:title=" ">
<polygon fill="#999999" stroke="#666666" points="512,-327 375,-327 375,-297 512,-297 512,-327"/>
<text text-anchor="start" x="383" y="-315" font-family="Helvetica,sans-Serif" font-size="10.00">include/Hermes/Socket</text>
<text text-anchor="middle" x="443.5" y="-304" font-family="Helvetica,sans-Serif" font-size="10.00">/Data/TlsSocketData.hpp</text>
</a>
</g>
</g>
<!-- Node2 -->
<g id="Node000002" class="node">
<title>Node2</title>
<g id="a_Node000002"><a xlink:href="_tls_async_accept_policy_8hpp.html" target="_top" xlink:title=" ">
<polygon fill="white" stroke="#666666" points="163,-184 0,-184 0,-143 163,-143 163,-184"/>
<text text-anchor="start" x="8" y="-172" font-family="Helvetica,sans-Serif" font-size="10.00">include/Hermes/Socket</text>
<text text-anchor="start" x="8" y="-161" font-family="Helvetica,sans-Serif" font-size="10.00">/Async/_base/Accept/TlsAsync</text>
<text text-anchor="middle" x="81.5" y="-150" font-family="Helvetica,sans-Serif" font-size="10.00">AcceptPolicy.hpp</text>
</a>
</g>
</g>
<!-- Node1&#45;&gt;Node2 -->
<g id="edge1_Node000001_Node000002" class="edge">
<title>Node1&#45;&gt;Node2</title>
<g id="a_edge1_Node000001_Node000002"><a xlink:title=" ">
<path fill="none" stroke="#63b8ff" d="M364.97,-304.61C315.57,-298.28 251.56,-285.75 199.5,-261 159.35,-241.91 121.08,-206.32 99.51,-184.1"/>
<polygon fill="#63b8ff" stroke="#63b8ff" points="364.61,-308.09 374.96,-305.83 365.46,-301.14 364.61,-308.09"/>
</a>
</g>
</g>
<!-- Node5 -->
<g id="Node000005" class="node">
<title>Node5</title>
<g id="a_Node000005"><a xlink:href="_tls_async_connect_policy_8hpp.html" target="_top" xlink:title=" ">
<polygon fill="white" stroke="#666666" points="1098.5,-107 946.5,-107 946.5,-66 1098.5,-66 1098.5,-107"/>
<text text-anchor="start" x="954.5" y="-95" font-family="Helvetica,sans-Serif" font-size="10.00">include/Hermes/Socket</text>
<text text-anchor="start" x="954.5" y="-84" font-family="Helvetica,sans-Serif" font-size="10.00">/Async/_base/Connection</text>
<text text-anchor="middle" x="1022.5" y="-73" font-family="Helvetica,sans-Serif" font-size="10.00">/TlsAsyncConnectPolicy.hpp</text>
</a>
</g>
</g>
<!-- Node1&#45;&gt;Node5 -->
<g id="edge4_Node000001_Node000005" class="edge">
<title>Node1&#45;&gt;Node5</title>
<g id="a_edge4_Node000001_Node000005"><a xlink:title=" ">
<path fill="none" stroke="#63b8ff" d="M522.41,-306.56C668.75,-296.42 972.72,-265.78 1031.5,-184 1047.61,-161.59 1039.38,-128.29 1031.39,-107.25"/>
<polygon fill="#63b8ff" stroke="#63b8ff" points="521.89,-303.09 512.15,-307.25 522.37,-310.07 521.89,-303.09"/>
</a>
</g>
</g>
<!-- Node7 -->
<g id="Node000007" class="node">
<title>Node7</title>
<g id="a_Node000007"><a xlink:href="_tls_async_transfer_policy_8hpp.html" target="_top" xlink:title=" ">
<polygon fill="white" stroke="#666666" points="332,-184 181,-184 181,-143 332,-143 332,-184"/>
<text text-anchor="start" x="189" y="-172" font-family="Helvetica,sans-Serif" font-size="10.00">include/Hermes/Socket</text>
<text text-anchor="start" x="189" y="-161" font-family="Helvetica,sans-Serif" font-size="10.00">/Async/_base/Transfer</text>
<text text-anchor="middle" x="256.5" y="-150" font-family="Helvetica,sans-Serif" font-size="10.00">/TlsAsyncTransferPolicy.hpp</text>
</a>
</g>
</g>
<!-- Node1&#45;&gt;Node7 -->
<g id="edge6_Node000001_Node000007" class="edge">
<title>Node1&#45;&gt;Node7</title>
<g id="a_edge6_Node000001_Node000007"><a xlink:title=" ">
<path fill="none" stroke="#63b8ff" d="M431.69,-288.09C420.33,-267.95 401.53,-238.96 378.5,-220 360.09,-204.84 336.86,-192.92 315.63,-184.08"/>
<polygon fill="#63b8ff" stroke="#63b8ff" points="428.64,-289.82 436.51,-296.92 434.79,-286.47 428.64,-289.82"/>
</a>
</g>
</g>
<!-- Node8 -->
<g id="Node000008" class="node">
<title>Node8</title>
<g id="a_Node000008"><a xlink:href="_tls_accept_policy_8hpp.html" target="_top" xlink:title=" ">
<polygon fill="white" stroke="#666666" points="369,-261 208,-261 208,-220 369,-220 369,-261"/>
<text text-anchor="start" x="216" y="-249" font-family="Helvetica,sans-Serif" font-size="10.00">include/Hermes/Socket</text>
<text text-anchor="start" x="216" y="-238" font-family="Helvetica,sans-Serif" font-size="10.00">/Sync/_base/Accept/TlsAccept</text>
<text text-anchor="middle" x="288.5" y="-227" font-family="Helvetica,sans-Serif" font-size="10.00">Policy.hpp</text>
</a>
</g>
</g>
<!-- Node1&#45;&gt;Node8 -->
<g id="edge9_Node000001_Node000008" class="edge">
<title>Node1&#45;&gt;Node8</title>
<g id="a_edge9_Node000001_Node000008"><a xlink:title=" ">
<path fill="none" stroke="#63b8ff" d="M402.85,-292.77C381.11,-283.02 354.33,-271.02 332.15,-261.07"/>
<polygon fill="#63b8ff" stroke="#63b8ff" points="401.58,-296.04 412.13,-296.94 404.44,-289.65 401.58,-296.04"/>
</a>
</g>
</g>
<!-- Node11 -->
<g id="Node000011" class="node">
<title>Node11</title>
<g id="a_Node000011"><a xlink:href="_tls_connect_policy_8hpp.html" target="_top" xlink:title=" ">
<polygon fill="white" stroke="#666666" points="793.5,-261 661.5,-261 661.5,-220 793.5,-220 793.5,-261"/>
<text text-anchor="start" x="669.5" y="-249" font-family="Helvetica,sans-Serif" font-size="10.00">include/Hermes/Socket</text>
<text text-anchor="start" x="669.5" y="-238" font-family="Helvetica,sans-Serif" font-size="10.00">/Sync/_base/Connection</text>
<text text-anchor="middle" x="727.5" y="-227" font-family="Helvetica,sans-Serif" font-size="10.00">/TlsConnectPolicy.hpp</text>
</a>
</g>
</g>
<!-- Node1&#45;&gt;Node11 -->
<g id="edge13_Node000001_Node000011" class="edge">
<title>Node1&#45;&gt;Node11</title>
<g id="a_edge13_Node000001_Node000011"><a xlink:title=" ">
<path fill="none" stroke="#63b8ff" d="M510.75,-294.54C556.27,-283.4 616.13,-268.75 661.4,-257.67"/>
<polygon fill="#63b8ff" stroke="#63b8ff" points="509.85,-291.16 500.97,-296.94 511.52,-297.96 509.85,-291.16"/>
</a>
</g>
</g>
<!-- Node15 -->
<g id="Node000015" class="node">
<title>Node15</title>
<g id="a_Node000015"><a xlink:href="_tls_transfer_policy_8hpp.html" target="_top" xlink:title=" ">
<polygon fill="white" stroke="#666666" points="553.5,-261 425.5,-261 425.5,-220 553.5,-220 553.5,-261"/>
<text text-anchor="start" x="433.5" y="-249" font-family="Helvetica,sans-Serif" font-size="10.00">include/Hermes/Socket</text>
<text text-anchor="start" x="433.5" y="-238" font-family="Helvetica,sans-Serif" font-size="10.00">/Sync/_base/Transfer</text>
<text text-anchor="middle" x="489.5" y="-227" font-family="Helvetica,sans-Serif" font-size="10.00">/TlsTransferPolicy.hpp</text>
</a>
</g>
</g>
<!-- Node1&#45;&gt;Node15 -->
<g id="edge20_Node000001_Node000015" class="edge">
<title>Node1&#45;&gt;Node15</title>
<g id="a_edge20_Node000001_Node000015"><a xlink:title=" ">
<path fill="none" stroke="#63b8ff" d="M458.33,-288.59C464.2,-279.73 470.88,-269.63 476.54,-261.07"/>
<polygon fill="#63b8ff" stroke="#63b8ff" points="455.41,-286.66 452.81,-296.94 461.25,-290.53 455.41,-286.66"/>
</a>
</g>
</g>
<!-- Node3 -->
<g id="Node000003" class="node">
<title>Node3</title>
<g id="a_Node000003"><a xlink:href="_async_server_socket_8hpp.html" target="_top" xlink:title=" ">
<polygon fill="white" stroke="#666666" points="196.5,-101.5 30.5,-101.5 30.5,-71.5 196.5,-71.5 196.5,-101.5"/>
<text text-anchor="start" x="38.5" y="-89.5" font-family="Helvetica,sans-Serif" font-size="10.00">include/Hermes/Socket</text>
<text text-anchor="middle" x="113.5" y="-78.5" font-family="Helvetica,sans-Serif" font-size="10.00">/Async/AsyncServerSocket.hpp</text>
</a>
</g>
</g>
<!-- Node2&#45;&gt;Node3 -->
<g id="edge2_Node000002_Node000003" class="edge">
<title>Node2&#45;&gt;Node3</title>
<g id="a_edge2_Node000002_Node000003"><a xlink:title=" ">
<path fill="none" stroke="#63b8ff" d="M93.97,-133.27C98.57,-122.49 103.58,-110.75 107.37,-101.86"/>
<polygon fill="#63b8ff" stroke="#63b8ff" points="90.61,-132.22 89.91,-142.79 97.05,-134.97 90.61,-132.22"/>
</a>
</g>
</g>
<!-- Node4 -->
<g id="Node000004" class="node">
<title>Node4</title>
<g id="a_Node000004"><a xlink:href="_async_listener_socket_8hpp.html" target="_top" xlink:title=" ">
<polygon fill="white" stroke="#666666" points="200,-30 27,-30 27,0 200,0 200,-30"/>
<text text-anchor="start" x="35" y="-18" font-family="Helvetica,sans-Serif" font-size="10.00">include/Hermes/Socket</text>
<text text-anchor="middle" x="113.5" y="-7" font-family="Helvetica,sans-Serif" font-size="10.00">/Async/AsyncListenerSocket.hpp</text>
</a>
</g>
</g>
<!-- Node3&#45;&gt;Node4 -->
<g id="edge3_Node000003_Node000004" class="edge">
<title>Node3&#45;&gt;Node4</title>
<g id="a_edge3_Node000003_Node000004"><a xlink:title=" ">
<path fill="none" stroke="#63b8ff" d="M113.5,-61.25C113.5,-50.81 113.5,-38.99 113.5,-30.04"/>
<polygon fill="#63b8ff" stroke="#63b8ff" points="110,-61.44 113.5,-71.44 117,-61.44 110,-61.44"/>
</a>
</g>
</g>
<!-- Node6 -->
<g id="Node000006" class="node">
<title>Node6</title>
<g id="a_Node000006"><a xlink:href="_async_client_socket_8hpp.html" target="_top" xlink:title=" ">
<polygon fill="white" stroke="#666666" points="995,-30 832,-30 832,0 995,0 995,-30"/>
<text text-anchor="start" x="840" y="-18" font-family="Helvetica,sans-Serif" font-size="10.00">include/Hermes/Socket</text>
<text text-anchor="middle" x="913.5" y="-7" font-family="Helvetica,sans-Serif" font-size="10.00">/Async/AsyncClientSocket.hpp</text>
</a>
</g>
</g>
<!-- Node5&#45;&gt;Node6 -->
<g id="edge5_Node000005_Node000006" class="edge">
<title>Node5&#45;&gt;Node6</title>
<g id="a_edge5_Node000005_Node000006"><a xlink:title=" ">
<path fill="none" stroke="#63b8ff" d="M983.19,-60.44C967.19,-50.23 949.29,-38.82 935.63,-30.11"/>
<polygon fill="#63b8ff" stroke="#63b8ff" points="981.53,-63.53 991.85,-65.96 985.3,-57.63 981.53,-63.53"/>
</a>
</g>
</g>
<!-- Node7&#45;&gt;Node3 -->
<g id="edge8_Node000007_Node000003" class="edge">
<title>Node7&#45;&gt;Node3</title>
<g id="a_edge8_Node000007_Node000003"><a xlink:title=" ">
<path fill="none" stroke="#63b8ff" d="M210.36,-138.3C187.32,-126.22 160.24,-112.01 140.57,-101.7"/>
<polygon fill="#63b8ff" stroke="#63b8ff" points="208.82,-141.45 219.3,-142.99 212.07,-135.25 208.82,-141.45"/>
</a>
</g>
</g>
<!-- Node7&#45;&gt;Node6 -->
<g id="edge7_Node000007_Node000006" class="edge">
<title>Node7&#45;&gt;Node6</title>
<g id="a_edge7_Node000007_Node000006"><a xlink:title=" ">
<path fill="none" stroke="#63b8ff" d="M271.85,-134.09C285.76,-111.43 308.5,-81.08 337.5,-66 421.43,-22.35 694.06,-15.87 831.99,-15.49"/>
<polygon fill="#63b8ff" stroke="#63b8ff" points="268.69,-132.56 266.61,-142.95 274.71,-136.13 268.69,-132.56"/>
</a>
</g>
</g>
<!-- Node8&#45;&gt;Node2 -->
<g id="edge10_Node000008_Node000002" class="edge">
<title>Node8&#45;&gt;Node2</title>
<g id="a_edge10_Node000008_Node000002"><a xlink:title=" ">
<path fill="none" stroke="#63b8ff" d="M225.13,-216.54C196.44,-206.15 162.89,-193.99 135.44,-184.04"/>
<polygon fill="#63b8ff" stroke="#63b8ff" points="224.06,-219.87 234.65,-219.99 226.44,-213.29 224.06,-219.87"/>
</a>
</g>
</g>
<!-- Node9 -->
<g id="Node000009" class="node">
<title>Node9</title>
<g id="a_Node000009"><a xlink:href="_server_socket_8hpp.html" target="_top" xlink:title=" ">
<polygon fill="white" stroke="#666666" points="481,-178.5 350,-178.5 350,-148.5 481,-148.5 481,-178.5"/>
<text text-anchor="start" x="358" y="-166.5" font-family="Helvetica,sans-Serif" font-size="10.00">include/Hermes/Socket</text>
<text text-anchor="middle" x="415.5" y="-155.5" font-family="Helvetica,sans-Serif" font-size="10.00">/Sync/ServerSocket.hpp</text>
</a>
</g>
</g>
<!-- Node8&#45;&gt;Node9 -->
<g id="edge11_Node000008_Node000009" class="edge">
<title>Node8&#45;&gt;Node9</title>
<g id="a_edge11_Node000008_Node000009"><a xlink:title=" ">
<path fill="none" stroke="#63b8ff" d="M330.29,-214.82C350.58,-202.84 374.23,-188.87 391.45,-178.7"/>
<polygon fill="#63b8ff" stroke="#63b8ff" points="328.37,-211.89 321.54,-219.99 331.93,-217.92 328.37,-211.89"/>
</a>
</g>
</g>
<!-- Node10 -->
<g id="Node000010" class="node">
<title>Node10</title>
<g id="a_Node000010"><a xlink:href="_listener_socket_8hpp.html" target="_top" xlink:title=" ">
<polygon fill="white" stroke="#666666" points="484.5,-101.5 346.5,-101.5 346.5,-71.5 484.5,-71.5 484.5,-101.5"/>
<text text-anchor="start" x="354.5" y="-89.5" font-family="Helvetica,sans-Serif" font-size="10.00">include/Hermes/Socket</text>
<text text-anchor="middle" x="415.5" y="-78.5" font-family="Helvetica,sans-Serif" font-size="10.00">/Sync/ListenerSocket.hpp</text>
</a>
</g>
</g>
<!-- Node9&#45;&gt;Node10 -->
<g id="edge12_Node000009_Node000010" class="edge">
<title>Node9&#45;&gt;Node10</title>
<g id="a_edge12_Node000009_Node000010"><a xlink:title=" ">
<path fill="none" stroke="#63b8ff" d="M415.5,-138.04C415.5,-125.95 415.5,-111.79 415.5,-101.54"/>
<polygon fill="#63b8ff" stroke="#63b8ff" points="412,-138.39 415.5,-148.39 419,-138.39 412,-138.39"/>
</a>
</g>
</g>
<!-- Node11&#45;&gt;Node5 -->
<g id="edge17_Node000011_Node000005" class="edge">
<title>Node11&#45;&gt;Node5</title>
<g id="a_edge17_Node000011_Node000005"><a xlink:title=" ">
<path fill="none" stroke="#63b8ff" d="M803.9,-234.32C877.62,-227.65 981.98,-213.24 1009.5,-184 1028.73,-163.57 1028.49,-129.06 1025.94,-107.32"/>
<polygon fill="#63b8ff" stroke="#63b8ff" points="803.37,-230.85 793.71,-235.21 803.98,-237.82 803.37,-230.85"/>
</a>
</g>
</g>
<!-- Node12 -->
<g id="Node000012" class="node">
<title>Node12</title>
<g id="a_Node000012"><a xlink:href="_default_async_connect_policy_8hpp.html" target="_top" xlink:title=" ">
<polygon fill="white" stroke="#666666" points="1000,-184 827,-184 827,-143 1000,-143 1000,-184"/>
<text text-anchor="start" x="835" y="-172" font-family="Helvetica,sans-Serif" font-size="10.00">include/Hermes/Socket</text>
<text text-anchor="start" x="835" y="-161" font-family="Helvetica,sans-Serif" font-size="10.00">/Async/_base/Connection</text>
<text text-anchor="middle" x="913.5" y="-150" font-family="Helvetica,sans-Serif" font-size="10.00">/DefaultAsyncConnectPolicy.hpp</text>
</a>
</g>
</g>
<!-- Node11&#45;&gt;Node12 -->
<g id="edge14_Node000011_Node000012" class="edge">
<title>Node11&#45;&gt;Node12</title>
<g id="a_edge14_Node000011_Node000012"><a xlink:title=" ">
<path fill="none" stroke="#63b8ff" d="M785.45,-216.13C811,-205.83 840.69,-193.86 865.04,-184.04"/>
<polygon fill="#63b8ff" stroke="#63b8ff" points="783.85,-213 775.88,-219.99 786.47,-219.5 783.85,-213"/>
</a>
</g>
</g>
<!-- Node13 -->
<g id="Node000013" class="node">
<title>Node13</title>
<g id="a_Node000013"><a xlink:href="_client_socket_8hpp.html" target="_top" xlink:title=" ">
<polygon fill="white" stroke="#666666" points="627.5,-178.5 499.5,-178.5 499.5,-148.5 627.5,-148.5 627.5,-178.5"/>
<text text-anchor="start" x="507.5" y="-166.5" font-family="Helvetica,sans-Serif" font-size="10.00">include/Hermes/Socket</text>
<text text-anchor="middle" x="563.5" y="-155.5" font-family="Helvetica,sans-Serif" font-size="10.00">/Sync/ClientSocket.hpp</text>
</a>
</g>
</g>
<!-- Node11&#45;&gt;Node13 -->
<g id="edge18_Node000011_Node000013" class="edge">
<title>Node11&#45;&gt;Node13</title>
<g id="a_edge18_Node000011_Node000013"><a xlink:title=" ">
<path fill="none" stroke="#63b8ff" d="M675.61,-215.77C648.86,-203.54 617.15,-189.04 594.29,-178.58"/>
<polygon fill="#63b8ff" stroke="#63b8ff" points="674.29,-219.01 684.84,-219.99 677.2,-212.65 674.29,-219.01"/>
</a>
</g>
</g>
<!-- Node14 -->
<g id="Node000014" class="node">
<title>Node14</title>
<g id="a_Node000014"><a xlink:href="_tls_connect_state_machine_8hpp.html" target="_top" xlink:title=" ">
<polygon fill="white" stroke="#666666" points="809,-184 646,-184 646,-143 809,-143 809,-184"/>
<text text-anchor="start" x="654" y="-172" font-family="Helvetica,sans-Serif" font-size="10.00">include/Hermes/Socket</text>
<text text-anchor="start" x="654" y="-161" font-family="Helvetica,sans-Serif" font-size="10.00">/_base/Connection/TlsConnect</text>
<text text-anchor="middle" x="727.5" y="-150" font-family="Helvetica,sans-Serif" font-size="10.00">StateMachine.hpp</text>
</a>
</g>
</g>
<!-- Node11&#45;&gt;Node14 -->
<g id="edge19_Node000011_Node000014" class="edge">
<title>Node11&#45;&gt;Node14</title>
<g id="a_edge19_Node000011_Node000014"><a xlink:title=" ">
<path fill="none" stroke="#63b8ff" d="M727.5,-209.69C727.5,-201.08 727.5,-191.9 727.5,-184.07"/>
<polygon fill="#63b8ff" stroke="#63b8ff" points="724,-209.79 727.5,-219.79 731,-209.79 724,-209.79"/>
</a>
</g>
</g>
<!-- Node12&#45;&gt;Node5 -->
<g id="edge16_Node000012_Node000005" class="edge">
<title>Node12&#45;&gt;Node5</title>
<g id="a_edge16_Node000012_Node000005"><a xlink:title=" ">
<path fill="none" stroke="#63b8ff" d="M950.43,-137.09C964.63,-127.32 980.61,-116.32 993.91,-107.17"/>
<polygon fill="#63b8ff" stroke="#63b8ff" points="948.11,-134.44 941.85,-142.99 952.08,-140.21 948.11,-134.44"/>
</a>
</g>
</g>
<!-- Node12&#45;&gt;Node6 -->
<g id="edge15_Node000012_Node000006" class="edge">
<title>Node12&#45;&gt;Node6</title>
<g id="a_edge15_Node000012_Node000006"><a xlink:title=" ">
<path fill="none" stroke="#63b8ff" d="M913.5,-132.44C913.5,-101.21 913.5,-53.68 913.5,-30.18"/>
<polygon fill="#63b8ff" stroke="#63b8ff" points="910,-132.74 913.5,-142.74 917,-132.74 910,-132.74"/>
</a>
</g>
</g>
<!-- Node15&#45;&gt;Node9 -->
<g id="edge22_Node000015_Node000009" class="edge">
<title>Node15&#45;&gt;Node9</title>
<g id="a_edge22_Node000015_Node000009"><a xlink:title=" ">
<path fill="none" stroke="#63b8ff" d="M462.93,-212.57C451.7,-201.18 439.07,-188.39 429.67,-178.86"/>
<polygon fill="#63b8ff" stroke="#63b8ff" points="460.54,-215.13 470.06,-219.79 465.53,-210.22 460.54,-215.13"/>
</a>
</g>
</g>
<!-- Node15&#45;&gt;Node13 -->
<g id="edge21_Node000015_Node000013" class="edge">
<title>Node15&#45;&gt;Node13</title>
<g id="a_edge21_Node000015_Node000013"><a xlink:title=" ">
<path fill="none" stroke="#63b8ff" d="M516.07,-212.57C527.3,-201.18 539.93,-188.39 549.33,-178.86"/>
<polygon fill="#63b8ff" stroke="#63b8ff" points="513.47,-210.22 508.94,-219.79 518.46,-215.13 513.47,-210.22"/>
</a>
</g>
</g>
</g>
</svg>
