<?xml version="1.0" encoding="UTF-8" standalone="no"?>
<!DOCTYPE svg PUBLIC "-//W3C//DTD SVG 1.1//EN"
 "http://www.w3.org/Graphics/SVG/1.1/DTD/svg11.dtd">
<!-- Generated by graphviz version 2.43.0 (0)
 -->
<!-- Title: include/Hermes/Socket/Async/_base/Transfer/TlsAsyncTransferPolicy.hpp Pages: 1 -->
<svg width="359pt" height="181pt"
 viewBox="0.00 0.00 359.00 181.00" xmlns="http://www.w3.org/2000/svg" xmlns:xlink="http://www.w3.org/1999/xlink">
<g id="graph0" class="graph" transform="scale(1 1) rotate(0) translate(4 177)">
<title>include/Hermes/Socket/Async/_base/Transfer/TlsAsyncTransferPolicy.hpp</title>
<!-- Node1 -->
<g id="Node000001" class="node">
<title>Node1</title>
<g id="a_Node000001"><a xlink:title=" ">
<polygon fill="#999999" stroke="#666666" points="248,-173 97,-173 97,-132 248,-132 248,-173"/>
<text text-anchor="start" x="105" y="-161" font-family="Helvetica,sans-Serif" font-size="10.00">include/Hermes/Socket</text>
<text text-anchor="start" x="105" y="-150" font-family="Helvetica,sans-Serif" font-size="10.00">/Async/_base/Transfer</text>
<text text-anchor="middle" x="172.5" y="-139" font-family="Helvetica,sans-Serif" font-size="10.00">/TlsAsyncTransferPolicy.hpp</text>
</a>
</g>
</g>
<!-- Node2 -->
<g id="Node000002" class="node">
<title>Node2</title>
<g id="a_Node000002"><a xlink:href="_async_client_socket_8hpp.html" target="_top" xlink:title=" ">
<polygon fill="white" stroke="#666666" points="163,-96 0,-96 0,-66 163,-66 163,-96"/>
<text text-anchor="start" x="8" y="-84" font-family="Helvetica,sans-Serif" font-size="10.00">include/Hermes/Socket</text>
<text text-anchor="middle" x="81.5" y="-73" font-family="Helvetica,sans-Serif" font-size="10.00">/Async/AsyncClientSocket.hpp</text>
</a>
</g>
</g>
<!-- Node1&#45;&gt;Node2 -->
<g id="edge1_Node000001_Node000002" class="edge">
<title>Node1&#45;&gt;Node2</title>
<g id="a_edge1_Node000001_Node000002"><a xlink:title=" ">
<path fill="none" stroke="#63b8ff" d="M138.71,-125.69C125.56,-115.65 111.01,-104.54 99.88,-96.04"/>
<polygon fill="#63b8ff" stroke="#63b8ff" points="136.59,-128.48 146.67,-131.77 140.84,-122.92 136.59,-128.48"/>
</a>
</g>
</g>
<!-- Node3 -->
<g id="Node000003" class="node">
<title>Node3</title>
<g id="a_Node000003"><a xlink:href="_async_server_socket_8hpp.html" target="_top" xlink:title=" ">
<polygon fill="white" stroke="#666666" points="347.5,-96 181.5,-96 181.5,-66 347.5,-66 347.5,-96"/>
<text text-anchor="start" x="189.5" y="-84" font-family="Helvetica,sans-Serif" font-size="10.00">include/Hermes/Socket</text>
<text text-anchor="middle" x="264.5" y="-73" font-family="Helvetica,sans-Serif" font-size="10.00">/Async/AsyncServerSocket.hpp</text>
</a>
</g>
</g>
<!-- Node1&#45;&gt;Node3 -->
<g id="edge2_Node000001_Node000003" class="edge">
<title>Node1&#45;&gt;Node3</title>
<g id="a_edge2_Node000001_Node000003"><a xlink:title=" ">
<path fill="none" stroke="#63b8ff" d="M206.67,-125.69C219.96,-115.65 234.66,-104.54 245.92,-96.04"/>
<polygon fill="#63b8ff" stroke="#63b8ff" points="204.49,-122.95 198.62,-131.77 208.71,-128.53 204.49,-122.95"/>
</a>
</g>
</g>
<!-- Node4 -->
<g id="Node000004" class="node">
<title>Node4</title>
<g id="a_Node000004"><a xlink:href="_async_listener_socket_8hpp.html" target="_top" xlink:title=" ">
<polygon fill="white" stroke="#666666" points="351,-30 178,-30 178,0 351,0 351,-30"/>
<text text-anchor="start" x="186" y="-18" font-family="Helvetica,sans-Serif" font-size="10.00">include/Hermes/Socket</text>
<text text-anchor="middle" x="264.5" y="-7" font-family="Helvetica,sans-Serif" font-size="10.00">/Async/AsyncListenerSocket.hpp</text>
</a>
</g>
</g>
<!-- Node3&#45;&gt;Node4 -->
<g id="edge3_Node000003_Node000004" class="edge">
<title>Node3&#45;&gt;Node4</title>
<g id="a_edge3_Node000003_Node000004"><a xlink:title=" ">
<path fill="none" stroke="#63b8ff" d="M264.5,-55.54C264.5,-46.96 264.5,-37.61 264.5,-30.16"/>
<polygon fill="#63b8ff" stroke="#63b8ff" points="261,-55.8 264.5,-65.8 268,-55.8 261,-55.8"/>
</a>
</g>
</g>
</g>
</svg>
