<?xml version="1.0" encoding="UTF-8" standalone="no"?>
<!DOCTYPE svg PUBLIC "-//W3C//DTD SVG 1.1//EN"
 "http://www.w3.org/Graphics/SVG/1.1/DTD/svg11.dtd">
<!-- Generated by graphviz version 2.43.0 (0)
 -->
<!-- Title: include/Hermes/Socket/_base/Accept/TlsAcceptStateMachine.hpp Pages: 1 -->
<svg width="2846pt" height="434pt"
 viewBox="0.00 0.00 2845.76 434.00" xmlns="http://www.w3.org/2000/svg" xmlns:xlink="http://www.w3.org/1999/xlink">
<g id="graph0" class="graph" transform="scale(1 1) rotate(0) translate(4 430)">
<title>include/Hermes/Socket/_base/Accept/TlsAcceptStateMachine.hpp</title>
<!-- Node1 -->
<g id="Node000001" class="node">
<title>Node1</title>
<g id="a_Node000001"><a xlink:title=" ">
<polygon fill="#999999" stroke="#666666" points="2205,-426 2045,-426 2045,-385 2205,-385 2205,-426"/>
<text text-anchor="start" x="2053" y="-414" font-family="Helvetica,sans-Serif" font-size="10.00">include/Hermes/Socket</text>
<text text-anchor="start" x="2053" y="-403" font-family="Helvetica,sans-Serif" font-size="10.00">/_base/Accept/TlsAcceptState</text>
<text text-anchor="middle" x="2125" y="-392" font-family="Helvetica,sans-Serif" font-size="10.00">Machine.hpp</text>
</a>
</g>
</g>
<!-- Node2 -->
<g id="Node000002" class="node">
<title>Node2</title>
<g id="a_Node000002"><a xlink:href="_i_tls_accept_state_machine_8hpp.html" target="_top" xlink:title=" ">
<polygon fill="white" stroke="#666666" points="2222,-349 2028,-349 2028,-319 2222,-319 2222,-349"/>
<text text-anchor="start" x="2036" y="-337" font-family="Helvetica,sans-Serif" font-size="10.00">Hermes/Socket/_base</text>
<text text-anchor="middle" x="2125" y="-326" font-family="Helvetica,sans-Serif" font-size="10.00">/Accept/ITlsAcceptStateMachine.hpp</text>
</a>
</g>
</g>
<!-- Node1&#45;&gt;Node2 -->
<g id="edge1_Node000001_Node000002" class="edge">
<title>Node1&#45;&gt;Node2</title>
<g id="a_edge1_Node000001_Node000002"><a xlink:title=" ">
<path fill="none" stroke="#63b8ff" d="M2125,-384.77C2125,-376.85 2125,-367.63 2125,-359.3"/>
<polygon fill="#63b8ff" stroke="#63b8ff" points="2128.5,-359.04 2125,-349.04 2121.5,-359.04 2128.5,-359.04"/>
</a>
</g>
</g>
<!-- Node32 -->
<g id="Node000032" class="node">
<title>Node32</title>
<g id="a_Node000032"><a xlink:href="_tls_session_8hpp.html" target="_top" xlink:title=" ">
<polygon fill="white" stroke="#666666" points="1280,-228 1158,-228 1158,-198 1280,-198 1280,-228"/>
<text text-anchor="start" x="1166" y="-216" font-family="Helvetica,sans-Serif" font-size="10.00">Hermes/Socket/_base</text>
<text text-anchor="middle" x="1219" y="-205" font-family="Helvetica,sans-Serif" font-size="10.00">/TlsSession.hpp</text>
</a>
</g>
</g>
<!-- Node1&#45;&gt;Node32 -->
<g id="edge42_Node000001_Node000032" class="edge">
<title>Node1&#45;&gt;Node32</title>
<g id="a_edge42_Node000001_Node000032"><a xlink:title=" ">
<path fill="none" stroke="#63b8ff" d="M2045,-387.68C1870.27,-350.94 1456.93,-264.03 1290.38,-229.01"/>
<polygon fill="#63b8ff" stroke="#63b8ff" points="1290.76,-225.51 1280.25,-226.88 1289.32,-232.36 1290.76,-225.51"/>
</a>
</g>
</g>
<!-- Node35 -->
<g id="Node000035" class="node">
<title>Node35</title>
<g id="a_Node000035"><a xlink:title=" ">
<polygon fill="#e0e0e0" stroke="#999999" points="2428,-349 2240,-349 2240,-319 2428,-319 2428,-349"/>
<text text-anchor="start" x="2248" y="-337" font-family="Helvetica,sans-Serif" font-size="10.00">Hermes/Socket/_base</text>
<text text-anchor="middle" x="2334" y="-326" font-family="Helvetica,sans-Serif" font-size="10.00">/Accept/TlsAcceptStateMachine.tpp</text>
</a>
</g>
</g>
<!-- Node1&#45;&gt;Node35 -->
<g id="edge47_Node000001_Node000035" class="edge">
<title>Node1&#45;&gt;Node35</title>
<g id="a_edge47_Node000001_Node000035"><a xlink:title=" ">
<path fill="none" stroke="#63b8ff" d="M2183.77,-384.96C2214.69,-374.68 2252.26,-362.18 2282.09,-352.26"/>
<polygon fill="#63b8ff" stroke="#63b8ff" points="2283.5,-355.48 2291.89,-349 2281.29,-348.84 2283.5,-355.48"/>
</a>
</g>
</g>
<!-- Node3 -->
<g id="Node000003" class="node">
<title>Node3</title>
<g id="a_Node000003"><a xlink:href="__base_8hpp.html" target="_top" xlink:title=" ">
<polygon fill="white" stroke="#666666" points="2359.5,-283 2216.5,-283 2216.5,-264 2359.5,-264 2359.5,-283"/>
<text text-anchor="middle" x="2288" y="-271" font-family="Helvetica,sans-Serif" font-size="10.00">Hermes/Socket/_base.hpp</text>
</a>
</g>
</g>
<!-- Node2&#45;&gt;Node3 -->
<g id="edge2_Node000002_Node000003" class="edge">
<title>Node2&#45;&gt;Node3</title>
<g id="a_edge2_Node000002_Node000003"><a xlink:title=" ">
<path fill="none" stroke="#63b8ff" d="M2164.04,-318.99C2191.6,-309.1 2228.15,-295.98 2254.41,-286.56"/>
<polygon fill="#63b8ff" stroke="#63b8ff" points="2255.7,-289.81 2263.93,-283.14 2253.33,-283.22 2255.7,-289.81"/>
</a>
</g>
</g>
<!-- Node8 -->
<g id="Node000008" class="node">
<title>Node8</title>
<g id="a_Node000008"><a xlink:title=" ">
<polygon fill="#e0e0e0" stroke="#999999" points="2333,-85 2293,-85 2293,-66 2333,-66 2333,-85"/>
<text text-anchor="middle" x="2313" y="-73" font-family="Helvetica,sans-Serif" font-size="10.00">span</text>
</a>
</g>
</g>
<!-- Node2&#45;&gt;Node8 -->
<g id="edge40_Node000002_Node000008" class="edge">
<title>Node2&#45;&gt;Node8</title>
<g id="a_edge40_Node000002_Node000008"><a xlink:title=" ">
<path fill="none" stroke="#63b8ff" d="M2116.34,-318.9C2101.7,-293.08 2075.82,-237.25 2099,-198 2146.75,-117.15 2203.85,-144.91 2284,-96 2286.71,-94.35 2289.52,-92.55 2292.28,-90.75"/>
<polygon fill="#63b8ff" stroke="#63b8ff" points="2294.37,-93.56 2300.74,-85.09 2290.48,-87.75 2294.37,-93.56"/>
</a>
</g>
</g>
<!-- Node18 -->
<g id="Node000018" class="node">
<title>Node18</title>
<g id="a_Node000018"><a xlink:title=" ">
<polygon fill="#e0e0e0" stroke="#999999" points="2542,-19 2492,-19 2492,0 2542,0 2542,-19"/>
<text text-anchor="middle" x="2517" y="-7" font-family="Helvetica,sans-Serif" font-size="10.00">cstdint</text>
</a>
</g>
</g>
<!-- Node2&#45;&gt;Node18 -->
<g id="edge41_Node000002_Node000018" class="edge">
<title>Node2&#45;&gt;Node18</title>
<g id="a_edge41_Node000002_Node000018"><a xlink:title=" ">
<path fill="none" stroke="#63b8ff" d="M2222.23,-319.19C2416.68,-291.25 2835,-229.35 2835,-214 2835,-214 2835,-214 2835,-146 2835,-104.68 2846.05,-83.35 2816,-55 2778.6,-19.71 2623.29,-12.37 2552.47,-10.87"/>
<polygon fill="#63b8ff" stroke="#63b8ff" points="2552.33,-7.37 2542.26,-10.68 2552.2,-14.37 2552.33,-7.37"/>
</a>
</g>
</g>
<!-- Node4 -->
<g id="Node000004" class="node">
<title>Node4</title>
<g id="a_Node000004"><a xlink:href="_endpoint_concept_8hpp.html" target="_top" xlink:title=" ">
<polygon fill="white" stroke="#666666" points="2240,-228 2108,-228 2108,-198 2240,-198 2240,-228"/>
<text text-anchor="start" x="2116" y="-216" font-family="Helvetica,sans-Serif" font-size="10.00">Hermes/Endpoint/_base</text>
<text text-anchor="middle" x="2174" y="-205" font-family="Helvetica,sans-Serif" font-size="10.00">/EndpointConcept.hpp</text>
</a>
</g>
</g>
<!-- Node3&#45;&gt;Node4 -->
<g id="edge3_Node000003_Node000004" class="edge">
<title>Node3&#45;&gt;Node4</title>
<g id="a_edge3_Node000003_Node000004"><a xlink:title=" ">
<path fill="none" stroke="#63b8ff" d="M2271.18,-263.87C2255.28,-255.71 2230.9,-243.2 2210.53,-232.75"/>
<polygon fill="#63b8ff" stroke="#63b8ff" points="2212,-229.57 2201.51,-228.11 2208.8,-235.79 2212,-229.57"/>
</a>
</g>
</g>
<!-- Node5 -->
<g id="Node000005" class="node">
<title>Node5</title>
<g id="a_Node000005"><a xlink:href="_connection_error_enum_8hpp.html" target="_top" xlink:title=" ">
<polygon fill="white" stroke="#666666" points="2608.5,-162 2441.5,-162 2441.5,-132 2608.5,-132 2608.5,-162"/>
<text text-anchor="start" x="2449.5" y="-150" font-family="Helvetica,sans-Serif" font-size="10.00">Hermes/_base/ConnectionError</text>
<text text-anchor="middle" x="2525" y="-139" font-family="Helvetica,sans-Serif" font-size="10.00">Enum.hpp</text>
</a>
</g>
</g>
<!-- Node3&#45;&gt;Node5 -->
<g id="edge35_Node000003_Node000005" class="edge">
<title>Node3&#45;&gt;Node5</title>
<g id="a_edge35_Node000003_Node000005"><a xlink:title=" ">
<path fill="none" stroke="#63b8ff" d="M2328.56,-263.96C2357.43,-256.87 2396.53,-245.14 2428,-228 2457.02,-212.2 2485.64,-187.11 2504.18,-169.25"/>
<polygon fill="#63b8ff" stroke="#63b8ff" points="2506.8,-171.58 2511.48,-162.08 2501.89,-166.59 2506.8,-171.58"/>
</a>
</g>
</g>
<!-- Node9 -->
<g id="Node000009" class="node">
<title>Node9</title>
<g id="a_Node000009"><a xlink:title=" ">
<polygon fill="#e0e0e0" stroke="#999999" points="2476.5,-85 2351.5,-85 2351.5,-66 2476.5,-66 2476.5,-85"/>
<text text-anchor="middle" x="2414" y="-73" font-family="Helvetica,sans-Serif" font-size="10.00">stdexec/execution.hpp</text>
</a>
</g>
</g>
<!-- Node3&#45;&gt;Node9 -->
<g id="edge37_Node000003_Node000009" class="edge">
<title>Node3&#45;&gt;Node9</title>
<g id="a_edge37_Node000003_Node000009"><a xlink:title=" ">
<path fill="none" stroke="#63b8ff" d="M2335.77,-263.95C2357.17,-257.63 2380.74,-246.73 2395,-228 2424.9,-188.73 2421.36,-126.43 2417.2,-95.38"/>
<polygon fill="#63b8ff" stroke="#63b8ff" points="2420.6,-94.49 2415.65,-85.13 2413.68,-95.54 2420.6,-94.49"/>
</a>
</g>
</g>
<!-- Node11 -->
<g id="Node000011" class="node">
<title>Node11</title>
<g id="a_Node000011"><a xlink:href="_os_api_8hpp.html" target="_top" xlink:title=" ">
<polygon fill="white" stroke="#666666" points="1278,-162 1160,-162 1160,-132 1278,-132 1278,-162"/>
<text text-anchor="start" x="1168" y="-150" font-family="Helvetica,sans-Serif" font-size="10.00">Hermes/_base/OsApi</text>
<text text-anchor="middle" x="1219" y="-139" font-family="Helvetica,sans-Serif" font-size="10.00">/OsApi.hpp</text>
</a>
</g>
</g>
<!-- Node3&#45;&gt;Node11 -->
<g id="edge36_Node000003_Node000011" class="edge">
<title>Node3&#45;&gt;Node11</title>
<g id="a_edge36_Node000003_Node000011"><a xlink:title=" ">
<path fill="none" stroke="#63b8ff" d="M2216.2,-264.14C2020.63,-241.36 1480.28,-178.43 1288.02,-156.04"/>
<polygon fill="#63b8ff" stroke="#63b8ff" points="1288.37,-152.56 1278.04,-154.88 1287.56,-159.51 1288.37,-152.56"/>
</a>
</g>
</g>
<!-- Node30 -->
<g id="Node000030" class="node">
<title>Node30</title>
<g id="a_Node000030"><a xlink:title=" ">
<polygon fill="#e0e0e0" stroke="#999999" points="2318,-222.5 2258,-222.5 2258,-203.5 2318,-203.5 2318,-222.5"/>
<text text-anchor="middle" x="2288" y="-210.5" font-family="Helvetica,sans-Serif" font-size="10.00">concepts</text>
</a>
</g>
</g>
<!-- Node3&#45;&gt;Node30 -->
<g id="edge38_Node000003_Node000030" class="edge">
<title>Node3&#45;&gt;Node30</title>
<g id="a_edge38_Node000003_Node000030"><a xlink:title=" ">
<path fill="none" stroke="#63b8ff" d="M2288,-263.87C2288,-255.75 2288,-243.31 2288,-232.89"/>
<polygon fill="#63b8ff" stroke="#63b8ff" points="2291.5,-232.67 2288,-222.67 2284.5,-232.67 2291.5,-232.67"/>
</a>
</g>
</g>
<!-- Node31 -->
<g id="Node000031" class="node">
<title>Node31</title>
<g id="a_Node000031"><a xlink:title=" ">
<polygon fill="#e0e0e0" stroke="#999999" points="2386,-222.5 2336,-222.5 2336,-203.5 2386,-203.5 2386,-222.5"/>
<text text-anchor="middle" x="2361" y="-210.5" font-family="Helvetica,sans-Serif" font-size="10.00">ranges</text>
</a>
</g>
</g>
<!-- Node3&#45;&gt;Node31 -->
<g id="edge39_Node000003_Node000031" class="edge">
<title>Node3&#45;&gt;Node31</title>
<g id="a_edge39_Node000003_Node000031"><a xlink:title=" ">
<path fill="none" stroke="#63b8ff" d="M2298.77,-263.87C2310.2,-254.71 2328.48,-240.06 2342.28,-229.01"/>
<polygon fill="#63b8ff" stroke="#63b8ff" points="2344.57,-231.65 2350.18,-222.67 2340.19,-226.19 2344.57,-231.65"/>
</a>
</g>
</g>
<!-- Node4&#45;&gt;Node5 -->
<g id="edge4_Node000004_Node000005" class="edge">
<title>Node4&#45;&gt;Node5</title>
<g id="a_edge4_Node000004_Node000005"><a xlink:title=" ">
<path fill="none" stroke="#63b8ff" d="M2240.25,-199.61C2243.21,-199.07 2246.13,-198.53 2249,-198 2311.9,-186.43 2382.89,-173.58 2437.13,-163.8"/>
<polygon fill="#63b8ff" stroke="#63b8ff" points="2437.84,-167.22 2447.06,-162.01 2436.59,-160.34 2437.84,-167.22"/>
</a>
</g>
</g>
<!-- Node4&#45;&gt;Node11 -->
<g id="edge10_Node000004_Node000011" class="edge">
<title>Node4&#45;&gt;Node11</title>
<g id="a_edge10_Node000004_Node000011"><a xlink:title=" ">
<path fill="none" stroke="#63b8ff" d="M2107.73,-199.79C2103.09,-199.13 2098.48,-198.52 2094,-198 1795.46,-163.47 1436.74,-152.46 1288.41,-149.23"/>
<polygon fill="#63b8ff" stroke="#63b8ff" points="1288.16,-145.72 1278.09,-149.01 1288.02,-152.72 1288.16,-145.72"/>
</a>
</g>
</g>
<!-- Node6 -->
<g id="Node000006" class="node">
<title>Node6</title>
<g id="a_Node000006"><a xlink:title=" ">
<polygon fill="#e0e0e0" stroke="#999999" points="2741,-85 2679,-85 2679,-66 2741,-66 2741,-85"/>
<text text-anchor="middle" x="2710" y="-73" font-family="Helvetica,sans-Serif" font-size="10.00">expected</text>
</a>
</g>
</g>
<!-- Node5&#45;&gt;Node6 -->
<g id="edge5_Node000005_Node000006" class="edge">
<title>Node5&#45;&gt;Node6</title>
<g id="a_edge5_Node000005_Node000006"><a xlink:title=" ">
<path fill="none" stroke="#63b8ff" d="M2571.29,-131.9C2600.3,-122.63 2638.26,-109.72 2671,-96 2675.56,-94.09 2680.33,-91.88 2684.91,-89.66"/>
<polygon fill="#63b8ff" stroke="#63b8ff" points="2686.53,-92.76 2693.91,-85.15 2683.4,-86.5 2686.53,-92.76"/>
</a>
</g>
</g>
<!-- Node7 -->
<g id="Node000007" class="node">
<title>Node7</title>
<g id="a_Node000007"><a xlink:title=" ">
<polygon fill="#e0e0e0" stroke="#999999" points="2806.5,-85 2759.5,-85 2759.5,-66 2806.5,-66 2806.5,-85"/>
<text text-anchor="middle" x="2783" y="-73" font-family="Helvetica,sans-Serif" font-size="10.00">vector</text>
</a>
</g>
</g>
<!-- Node5&#45;&gt;Node7 -->
<g id="edge6_Node000005_Node000007" class="edge">
<title>Node5&#45;&gt;Node7</title>
<g id="a_edge6_Node000005_Node000007"><a xlink:title=" ">
<path fill="none" stroke="#63b8ff" d="M2608.62,-133.89C2651.8,-126.03 2704.78,-113.86 2750,-96 2753.93,-94.45 2757.93,-92.47 2761.74,-90.37"/>
<polygon fill="#63b8ff" stroke="#63b8ff" points="2763.83,-93.2 2770.63,-85.07 2760.25,-87.18 2763.83,-93.2"/>
</a>
</g>
</g>
<!-- Node5&#45;&gt;Node8 -->
<g id="edge7_Node000005_Node000008" class="edge">
<title>Node5&#45;&gt;Node8</title>
<g id="a_edge7_Node000005_Node000008"><a xlink:title=" ">
<path fill="none" stroke="#63b8ff" d="M2454.54,-131.99C2420.05,-123.81 2378.42,-111.91 2343,-96 2339.67,-94.5 2336.29,-92.67 2333.05,-90.72"/>
<polygon fill="#63b8ff" stroke="#63b8ff" points="2334.78,-87.67 2324.49,-85.16 2330.97,-93.55 2334.78,-87.67"/>
</a>
</g>
</g>
<!-- Node5&#45;&gt;Node9 -->
<g id="edge8_Node000005_Node000009" class="edge">
<title>Node5&#45;&gt;Node9</title>
<g id="a_edge8_Node000005_Node000009"><a xlink:title=" ">
<path fill="none" stroke="#63b8ff" d="M2502.54,-131.94C2483.27,-119.87 2455.64,-102.57 2436.39,-90.52"/>
<polygon fill="#63b8ff" stroke="#63b8ff" points="2438.02,-87.41 2427.68,-85.07 2434.3,-93.34 2438.02,-87.41"/>
</a>
</g>
</g>
<!-- Node10 -->
<g id="Node000010" class="node">
<title>Node10</title>
<g id="a_Node000010"><a xlink:title=" ">
<polygon fill="#e0e0e0" stroke="#999999" points="2661.5,-90.5 2494.5,-90.5 2494.5,-60.5 2661.5,-60.5 2661.5,-90.5"/>
<text text-anchor="start" x="2502.5" y="-78.5" font-family="Helvetica,sans-Serif" font-size="10.00">Hermes/_base/ConnectionError</text>
<text text-anchor="middle" x="2578" y="-67.5" font-family="Helvetica,sans-Serif" font-size="10.00">Enum.tpp</text>
</a>
</g>
</g>
<!-- Node5&#45;&gt;Node10 -->
<g id="edge9_Node000005_Node000010" class="edge">
<title>Node5&#45;&gt;Node10</title>
<g id="a_edge9_Node000005_Node000010"><a xlink:title=" ">
<path fill="none" stroke="#63b8ff" d="M2535.73,-131.94C2542.98,-122.42 2552.72,-109.65 2561.02,-98.77"/>
<polygon fill="#63b8ff" stroke="#63b8ff" points="2564.01,-100.62 2567.29,-90.54 2558.44,-96.37 2564.01,-100.62"/>
</a>
</g>
</g>
<!-- Node12 -->
<g id="Node000012" class="node">
<title>Node12</title>
<g id="a_Node000012"><a xlink:title=" ">
<polygon fill="#e0e0e0" stroke="#999999" points="387.5,-19 310.5,-19 310.5,0 387.5,0 387.5,-19"/>
<text text-anchor="middle" x="349" y="-7" font-family="Helvetica,sans-Serif" font-size="10.00">sys/socket.h</text>
</a>
</g>
</g>
<!-- Node11&#45;&gt;Node12 -->
<g id="edge11_Node000011_Node000012" class="edge">
<title>Node11&#45;&gt;Node12</title>
<g id="a_edge11_Node000011_Node000012"><a xlink:title=" ">
<path fill="none" stroke="#63b8ff" d="M1159.63,-133.35C1156.38,-132.85 1153.15,-132.39 1150,-132 1063.68,-121.32 434.58,-151.97 368,-96 348.84,-79.89 346.46,-49.15 347.21,-29.25"/>
<polygon fill="#63b8ff" stroke="#63b8ff" points="350.71,-29.44 347.88,-19.23 343.72,-28.97 350.71,-29.44"/>
</a>
</g>
</g>
<!-- Node13 -->
<g id="Node000013" class="node">
<title>Node13</title>
<g id="a_Node000013"><a xlink:title=" ">
<polygon fill="#e0e0e0" stroke="#999999" points="943,-19 871,-19 871,0 943,0 943,-19"/>
<text text-anchor="middle" x="907" y="-7" font-family="Helvetica,sans-Serif" font-size="10.00">netinet/in.h</text>
</a>
</g>
</g>
<!-- Node11&#45;&gt;Node13 -->
<g id="edge12_Node000011_Node000013" class="edge">
<title>Node11&#45;&gt;Node13</title>
<g id="a_edge12_Node000011_Node000013"><a xlink:title=" ">
<path fill="none" stroke="#63b8ff" d="M1159.96,-133.72C1156.59,-133.11 1153.26,-132.53 1150,-132 1086.79,-121.62 906.37,-144.04 864,-96 851.95,-82.33 857.17,-71.89 864,-55 868.69,-43.41 878,-33.16 886.76,-25.43"/>
<polygon fill="#63b8ff" stroke="#63b8ff" points="889,-28.12 894.51,-19.07 884.56,-22.71 889,-28.12"/>
</a>
</g>
</g>
<!-- Node14 -->
<g id="Node000014" class="node">
<title>Node14</title>
<g id="a_Node000014"><a xlink:title=" ">
<polygon fill="#e0e0e0" stroke="#999999" points="816.5,-85 747.5,-85 747.5,-66 816.5,-66 816.5,-85"/>
<text text-anchor="middle" x="782" y="-73" font-family="Helvetica,sans-Serif" font-size="10.00">arpa/inet.h</text>
</a>
</g>
</g>
<!-- Node11&#45;&gt;Node14 -->
<g id="edge13_Node000011_Node000014" class="edge">
<title>Node11&#45;&gt;Node14</title>
<g id="a_edge13_Node000011_Node000014"><a xlink:title=" ">
<path fill="none" stroke="#63b8ff" d="M1159.97,-133.67C1156.6,-133.07 1153.26,-132.51 1150,-132 1009.06,-109.79 969.4,-130.69 831,-96 823.96,-94.24 816.58,-91.69 809.75,-89.03"/>
<polygon fill="#63b8ff" stroke="#63b8ff" points="810.81,-85.68 800.23,-85.1 808.14,-92.15 810.81,-85.68"/>
</a>
</g>
</g>
<!-- Node15 -->
<g id="Node000015" class="node">
<title>Node15</title>
<g id="a_Node000015"><a xlink:title=" ">
<polygon fill="#e0e0e0" stroke="#999999" points="1627.5,-19 1574.5,-19 1574.5,0 1627.5,0 1627.5,-19"/>
<text text-anchor="middle" x="1601" y="-7" font-family="Helvetica,sans-Serif" font-size="10.00">netdb.h</text>
</a>
</g>
</g>
<!-- Node11&#45;&gt;Node15 -->
<g id="edge14_Node000011_Node000015" class="edge">
<title>Node11&#45;&gt;Node15</title>
<g id="a_edge14_Node000011_Node000015"><a xlink:title=" ">
<path fill="none" stroke="#63b8ff" d="M1205.83,-131.67C1189.51,-112.16 1166.12,-77.13 1186,-55 1211.09,-27.08 1467.5,-15.2 1564.29,-11.69"/>
<polygon fill="#63b8ff" stroke="#63b8ff" points="1564.61,-15.18 1574.48,-11.33 1564.36,-8.18 1564.61,-15.18"/>
</a>
</g>
</g>
<!-- Node16 -->
<g id="Node000016" class="node">
<title>Node16</title>
<g id="a_Node000016"><a xlink:title=" ">
<polygon fill="#e0e0e0" stroke="#999999" points="1139,-85 1083,-85 1083,-66 1139,-66 1139,-85"/>
<text text-anchor="middle" x="1111" y="-73" font-family="Helvetica,sans-Serif" font-size="10.00">unistd.h</text>
</a>
</g>
</g>
<!-- Node11&#45;&gt;Node16 -->
<g id="edge15_Node000011_Node000016" class="edge">
<title>Node11&#45;&gt;Node16</title>
<g id="a_edge15_Node000011_Node000016"><a xlink:title=" ">
<path fill="none" stroke="#63b8ff" d="M1197.14,-131.94C1178.39,-119.87 1151.51,-102.57 1132.78,-90.52"/>
<polygon fill="#63b8ff" stroke="#63b8ff" points="1134.62,-87.54 1124.31,-85.07 1130.83,-93.42 1134.62,-87.54"/>
</a>
</g>
</g>
<!-- Node17 -->
<g id="Node000017" class="node">
<title>Node17</title>
<g id="a_Node000017"><a xlink:href="_conversion_and_literals_8hpp.html" target="_top" xlink:title=" ">
<polygon fill="white" stroke="#666666" points="2275,-90.5 2125,-90.5 2125,-60.5 2275,-60.5 2275,-90.5"/>
<text text-anchor="start" x="2133" y="-78.5" font-family="Helvetica,sans-Serif" font-size="10.00">Hermes/_base/OsApi</text>
<text text-anchor="middle" x="2200" y="-67.5" font-family="Helvetica,sans-Serif" font-size="10.00">/ConversionAndLiterals.hpp</text>
</a>
</g>
</g>
<!-- Node11&#45;&gt;Node17 -->
<g id="edge16_Node000011_Node000017" class="edge">
<title>Node11&#45;&gt;Node17</title>
<g id="a_edge16_Node000011_Node000017"><a xlink:title=" ">
<path fill="none" stroke="#63b8ff" d="M1278.23,-144.03C1451.16,-138.08 1953.39,-119.23 2116,-96 2122.32,-95.1 2128.87,-93.95 2135.39,-92.67"/>
<polygon fill="#63b8ff" stroke="#63b8ff" points="2136.5,-96.02 2145.58,-90.57 2135.08,-89.16 2136.5,-96.02"/>
</a>
</g>
</g>
<!-- Node19 -->
<g id="Node000019" class="node">
<title>Node19</title>
<g id="a_Node000019"><a xlink:href="_macros_8hpp.html" target="_top" xlink:title=" ">
<polygon fill="white" stroke="#666666" points="118,-90.5 0,-90.5 0,-60.5 118,-60.5 118,-90.5"/>
<text text-anchor="start" x="8" y="-78.5" font-family="Helvetica,sans-Serif" font-size="10.00">Hermes/_base/OsApi</text>
<text text-anchor="middle" x="59" y="-67.5" font-family="Helvetica,sans-Serif" font-size="10.00">/Macros.hpp</text>
</a>
</g>
</g>
<!-- Node11&#45;&gt;Node19 -->
<g id="edge18_Node000011_Node000019" class="edge">
<title>Node11&#45;&gt;Node19</title>
<g id="a_edge18_Node000011_Node000019"><a xlink:title=" ">
<path fill="none" stroke="#63b8ff" d="M1159.63,-133.31C1156.38,-132.81 1153.16,-132.37 1150,-132 698.2,-78.59 576.34,-167.23 127,-96 122.17,-95.24 117.21,-94.24 112.26,-93.1"/>
<polygon fill="#63b8ff" stroke="#63b8ff" points="112.73,-89.61 102.18,-90.59 111.03,-96.4 112.73,-89.61"/>
</a>
</g>
</g>
<!-- Node21 -->
<g id="Node000021" class="node">
<title>Node21</title>
<g id="a_Node000021"><a xlink:href="_address_family_enum_8hpp.html" target="_top" xlink:title=" ">
<polygon fill="white" stroke="#666666" points="553,-90.5 377,-90.5 377,-60.5 553,-60.5 553,-90.5"/>
<text text-anchor="start" x="385" y="-78.5" font-family="Helvetica,sans-Serif" font-size="10.00">Hermes/_base/OsApi</text>
<text text-anchor="middle" x="465" y="-67.5" font-family="Helvetica,sans-Serif" font-size="10.00">/Enums/AddressFamilyEnum.hpp</text>
</a>
</g>
</g>
<!-- Node11&#45;&gt;Node21 -->
<g id="edge21_Node000011_Node000021" class="edge">
<title>Node11&#45;&gt;Node21</title>
<g id="a_edge21_Node000011_Node000021"><a xlink:title=" ">
<path fill="none" stroke="#63b8ff" d="M1160,-133.47C1156.62,-132.92 1153.27,-132.43 1150,-132 889.97,-97.84 821.03,-130.19 561,-96 553.35,-94.99 545.4,-93.73 537.5,-92.34"/>
<polygon fill="#63b8ff" stroke="#63b8ff" points="538,-88.87 527.53,-90.51 536.73,-95.76 538,-88.87"/>
</a>
</g>
</g>
<!-- Node22 -->
<g id="Node000022" class="node">
<title>Node22</title>
<g id="a_Node000022"><a xlink:href="_protocol_base_type_enum_8hpp.html" target="_top" xlink:title=" ">
<polygon fill="white" stroke="#666666" points="1064.5,-90.5 873.5,-90.5 873.5,-60.5 1064.5,-60.5 1064.5,-90.5"/>
<text text-anchor="start" x="881.5" y="-78.5" font-family="Helvetica,sans-Serif" font-size="10.00">Hermes/_base/OsApi</text>
<text text-anchor="middle" x="969" y="-67.5" font-family="Helvetica,sans-Serif" font-size="10.00">/Enums/ProtocolBaseTypeEnum.hpp</text>
</a>
</g>
</g>
<!-- Node11&#45;&gt;Node22 -->
<g id="edge23_Node000011_Node000022" class="edge">
<title>Node11&#45;&gt;Node22</title>
<g id="a_edge23_Node000011_Node000022"><a xlink:title=" ">
<path fill="none" stroke="#63b8ff" d="M1168.41,-131.94C1128.17,-120.75 1071.76,-105.07 1029.2,-93.23"/>
<polygon fill="#63b8ff" stroke="#63b8ff" points="1030.09,-89.85 1019.52,-90.54 1028.21,-96.59 1030.09,-89.85"/>
</a>
</g>
</g>
<!-- Node23 -->
<g id="Node000023" class="node">
<title>Node23</title>
<g id="a_Node000023"><a xlink:href="_socket_shutdown_enum_8hpp.html" target="_top" xlink:title=" ">
<polygon fill="white" stroke="#666666" points="321.5,-90.5 136.5,-90.5 136.5,-60.5 321.5,-60.5 321.5,-90.5"/>
<text text-anchor="start" x="144.5" y="-78.5" font-family="Helvetica,sans-Serif" font-size="10.00">Hermes/_base/OsApi</text>
<text text-anchor="middle" x="229" y="-67.5" font-family="Helvetica,sans-Serif" font-size="10.00">/Enums/SocketShutdownEnum.hpp</text>
</a>
</g>
</g>
<!-- Node11&#45;&gt;Node23 -->
<g id="edge25_Node000011_Node000023" class="edge">
<title>Node11&#45;&gt;Node23</title>
<g id="a_edge25_Node000011_Node000023"><a xlink:title=" ">
<path fill="none" stroke="#63b8ff" d="M1159.63,-133.34C1156.38,-132.84 1153.15,-132.39 1150,-132 790.13,-87.82 695.26,-136.9 335,-96 326.06,-94.98 316.73,-93.66 307.49,-92.18"/>
<polygon fill="#63b8ff" stroke="#63b8ff" points="307.94,-88.71 297.5,-90.53 306.79,-95.62 307.94,-88.71"/>
</a>
</g>
</g>
<!-- Node24 -->
<g id="Node000024" class="node">
<title>Node24</title>
<g id="a_Node000024"><a xlink:href="_socket_type_enum_8hpp.html" target="_top" xlink:title=" ">
<polygon fill="white" stroke="#666666" points="729.5,-90.5 570.5,-90.5 570.5,-60.5 729.5,-60.5 729.5,-90.5"/>
<text text-anchor="start" x="578.5" y="-78.5" font-family="Helvetica,sans-Serif" font-size="10.00">Hermes/_base/OsApi</text>
<text text-anchor="middle" x="650" y="-67.5" font-family="Helvetica,sans-Serif" font-size="10.00">/Enums/SocketTypeEnum.hpp</text>
</a>
</g>
</g>
<!-- Node11&#45;&gt;Node24 -->
<g id="edge27_Node000011_Node000024" class="edge">
<title>Node11&#45;&gt;Node24</title>
<g id="a_edge27_Node000011_Node000024"><a xlink:title=" ">
<path fill="none" stroke="#63b8ff" d="M1159.98,-133.57C1156.61,-133 1153.27,-132.47 1150,-132 968.08,-105.68 919.67,-123.94 738,-96 731.71,-95.03 725.19,-93.88 718.68,-92.62"/>
<polygon fill="#63b8ff" stroke="#63b8ff" points="718.99,-89.12 708.49,-90.58 717.61,-95.98 718.99,-89.12"/>
</a>
</g>
</g>
<!-- Node25 -->
<g id="Node000025" class="node">
<title>Node25</title>
<g id="a_Node000025"><a xlink:href="_linux_2_encrypt_status_enum_8hpp.html" target="_top" xlink:title=" ">
<polygon fill="white" stroke="#666666" points="1347,-96 1195,-96 1195,-55 1347,-55 1347,-96"/>
<text text-anchor="start" x="1203" y="-84" font-family="Helvetica,sans-Serif" font-size="10.00">Hermes/_base/OsApi</text>
<text text-anchor="start" x="1203" y="-73" font-family="Helvetica,sans-Serif" font-size="10.00">/Enums/Linux/EncryptStatus</text>
<text text-anchor="middle" x="1271" y="-62" font-family="Helvetica,sans-Serif" font-size="10.00">Enum.hpp</text>
</a>
</g>
</g>
<!-- Node11&#45;&gt;Node25 -->
<g id="edge29_Node000011_Node000025" class="edge">
<title>Node11&#45;&gt;Node25</title>
<g id="a_edge29_Node000011_Node000025"><a xlink:title=" ">
<path fill="none" stroke="#63b8ff" d="M1229.52,-131.94C1235.49,-123.96 1243.17,-113.7 1250.29,-104.17"/>
<polygon fill="#63b8ff" stroke="#63b8ff" points="1253.17,-106.18 1256.36,-96.07 1247.56,-101.98 1253.17,-106.18"/>
</a>
</g>
</g>
<!-- Node26 -->
<g id="Node000026" class="node">
<title>Node26</title>
<g id="a_Node000026"><a xlink:href="_name_info_flags_8hpp.html" target="_top" xlink:title=" ">
<polygon fill="white" stroke="#666666" points="2107,-90.5 1963,-90.5 1963,-60.5 2107,-60.5 2107,-90.5"/>
<text text-anchor="start" x="1971" y="-78.5" font-family="Helvetica,sans-Serif" font-size="10.00">Hermes/_base/OsApi</text>
<text text-anchor="middle" x="2035" y="-67.5" font-family="Helvetica,sans-Serif" font-size="10.00">/Flags/NameInfoFlags.hpp</text>
</a>
</g>
</g>
<!-- Node11&#45;&gt;Node26 -->
<g id="edge30_Node000011_Node000026" class="edge">
<title>Node11&#45;&gt;Node26</title>
<g id="a_edge30_Node000011_Node000026"><a xlink:title=" ">
<path fill="none" stroke="#63b8ff" d="M1278.44,-145.34C1403.95,-143.2 1704.95,-134.17 1954,-96 1959.86,-95.1 1965.92,-93.99 1971.97,-92.76"/>
<polygon fill="#63b8ff" stroke="#63b8ff" points="1973.05,-96.11 1982.1,-90.59 1971.59,-89.26 1973.05,-96.11"/>
</a>
</g>
</g>
<!-- Node27 -->
<g id="Node000027" class="node">
<title>Node27</title>
<g id="a_Node000027"><a xlink:href="_linux_2_credential_flags_8hpp.html" target="_top" xlink:title=" ">
<polygon fill="white" stroke="#666666" points="1541,-90.5 1365,-90.5 1365,-60.5 1541,-60.5 1541,-90.5"/>
<text text-anchor="start" x="1373" y="-78.5" font-family="Helvetica,sans-Serif" font-size="10.00">Hermes/_base/OsApi</text>
<text text-anchor="middle" x="1453" y="-67.5" font-family="Helvetica,sans-Serif" font-size="10.00">/Flags/Linux/CredentialFlags.hpp</text>
</a>
</g>
</g>
<!-- Node11&#45;&gt;Node27 -->
<g id="edge32_Node000011_Node000027" class="edge">
<title>Node11&#45;&gt;Node27</title>
<g id="a_edge32_Node000011_Node000027"><a xlink:title=" ">
<path fill="none" stroke="#63b8ff" d="M1266.35,-131.94C1303.78,-120.82 1356.15,-105.26 1395.9,-93.46"/>
<polygon fill="#63b8ff" stroke="#63b8ff" points="1397.13,-96.75 1405.72,-90.54 1395.13,-90.04 1397.13,-96.75"/>
</a>
</g>
</g>
<!-- Node28 -->
<g id="Node000028" class="node">
<title>Node28</title>
<g id="a_Node000028"><a xlink:href="_linux_2_supported_protocols_flags_8hpp.html" target="_top" xlink:title=" ">
<polygon fill="white" stroke="#666666" points="1732.5,-96 1559.5,-96 1559.5,-55 1732.5,-55 1732.5,-96"/>
<text text-anchor="start" x="1567.5" y="-84" font-family="Helvetica,sans-Serif" font-size="10.00">Hermes/_base/OsApi</text>
<text text-anchor="start" x="1567.5" y="-73" font-family="Helvetica,sans-Serif" font-size="10.00">/Flags/Linux/SupportedProtocols</text>
<text text-anchor="middle" x="1646" y="-62" font-family="Helvetica,sans-Serif" font-size="10.00">Flags.hpp</text>
</a>
</g>
</g>
<!-- Node11&#45;&gt;Node28 -->
<g id="edge33_Node000011_Node000028" class="edge">
<title>Node11&#45;&gt;Node28</title>
<g id="a_edge33_Node000011_Node000028"><a xlink:title=" ">
<path fill="none" stroke="#63b8ff" d="M1278.04,-138C1342.23,-129.09 1448.05,-113.81 1549.33,-96.07"/>
<polygon fill="#63b8ff" stroke="#63b8ff" points="1550.19,-99.48 1559.43,-94.29 1548.98,-92.58 1550.19,-99.48"/>
</a>
</g>
</g>
<!-- Node29 -->
<g id="Node000029" class="node">
<title>Node29</title>
<g id="a_Node000029"><a xlink:href="_linux_2_s_channel_cred_flags_8hpp.html" target="_top" xlink:title=" ">
<polygon fill="white" stroke="#666666" points="1945,-90.5 1751,-90.5 1751,-60.5 1945,-60.5 1945,-90.5"/>
<text text-anchor="start" x="1759" y="-78.5" font-family="Helvetica,sans-Serif" font-size="10.00">Hermes/_base/OsApi</text>
<text text-anchor="middle" x="1848" y="-67.5" font-family="Helvetica,sans-Serif" font-size="10.00">/Flags/Linux/SChannelCredFlags.hpp</text>
</a>
</g>
</g>
<!-- Node11&#45;&gt;Node29 -->
<g id="edge34_Node000011_Node000029" class="edge">
<title>Node11&#45;&gt;Node29</title>
<g id="a_edge34_Node000011_Node000029"><a xlink:title=" ">
<path fill="none" stroke="#63b8ff" d="M1278.29,-141.97C1375.32,-134.99 1573.95,-119.18 1741,-96 1749.13,-94.87 1757.59,-93.56 1766.03,-92.17"/>
<polygon fill="#63b8ff" stroke="#63b8ff" points="1766.62,-95.62 1775.9,-90.5 1765.46,-88.72 1766.62,-95.62"/>
</a>
</g>
</g>
<!-- Node17&#45;&gt;Node18 -->
<g id="edge17_Node000017_Node000018" class="edge">
<title>Node17&#45;&gt;Node18</title>
<g id="a_edge17_Node000017_Node000018"><a xlink:title=" ">
<path fill="none" stroke="#63b8ff" d="M2259.14,-60.46C2267.47,-58.58 2275.94,-56.7 2284,-55 2353.9,-40.22 2436.07,-25.03 2481.77,-16.78"/>
<polygon fill="#63b8ff" stroke="#63b8ff" points="2482.54,-20.2 2491.77,-14.98 2481.3,-13.31 2482.54,-20.2"/>
</a>
</g>
</g>
<!-- Node19&#45;&gt;Node12 -->
<g id="edge20_Node000019_Node000012" class="edge">
<title>Node19&#45;&gt;Node12</title>
<g id="a_edge20_Node000019_Node000012"><a xlink:title=" ">
<path fill="none" stroke="#63b8ff" d="M106.06,-60.47C113.05,-58.54 120.2,-56.65 127,-55 186.18,-40.61 255.04,-27.34 300.19,-19.1"/>
<polygon fill="#63b8ff" stroke="#63b8ff" points="301.07,-22.5 310.29,-17.27 299.83,-15.61 301.07,-22.5"/>
</a>
</g>
</g>
<!-- Node20 -->
<g id="Node000020" class="node">
<title>Node20</title>
<g id="a_Node000020"><a xlink:title=" ">
<polygon fill="#e0e0e0" stroke="#999999" points="95.5,-19 22.5,-19 22.5,0 95.5,0 95.5,-19"/>
<text text-anchor="middle" x="59" y="-7" font-family="Helvetica,sans-Serif" font-size="10.00">string_view</text>
</a>
</g>
</g>
<!-- Node19&#45;&gt;Node20 -->
<g id="edge19_Node000019_Node000020" class="edge">
<title>Node19&#45;&gt;Node20</title>
<g id="a_edge19_Node000019_Node000020"><a xlink:title=" ">
<path fill="none" stroke="#63b8ff" d="M59,-60.3C59,-51.2 59,-39.29 59,-29.4"/>
<polygon fill="#63b8ff" stroke="#63b8ff" points="62.5,-29.34 59,-19.34 55.5,-29.34 62.5,-29.34"/>
</a>
</g>
</g>
<!-- Node21&#45;&gt;Node12 -->
<g id="edge22_Node000021_Node000012" class="edge">
<title>Node21&#45;&gt;Node12</title>
<g id="a_edge22_Node000021_Node000012"><a xlink:title=" ">
<path fill="none" stroke="#63b8ff" d="M439.54,-60.45C419.83,-49.58 392.69,-34.61 373.28,-23.9"/>
<polygon fill="#63b8ff" stroke="#63b8ff" points="374.88,-20.78 364.44,-19.02 371.5,-26.91 374.88,-20.78"/>
</a>
</g>
</g>
<!-- Node22&#45;&gt;Node13 -->
<g id="edge24_Node000022_Node000013" class="edge">
<title>Node22&#45;&gt;Node13</title>
<g id="a_edge24_Node000022_Node000013"><a xlink:title=" ">
<path fill="none" stroke="#63b8ff" d="M955.24,-60.3C945.57,-50.32 932.63,-36.96 922.58,-26.59"/>
<polygon fill="#63b8ff" stroke="#63b8ff" points="925.04,-24.09 915.57,-19.34 920.01,-28.96 925.04,-24.09"/>
</a>
</g>
</g>
<!-- Node23&#45;&gt;Node12 -->
<g id="edge26_Node000023_Node000012" class="edge">
<title>Node23&#45;&gt;Node12</title>
<g id="a_edge26_Node000023_Node000012"><a xlink:title=" ">
<path fill="none" stroke="#63b8ff" d="M255.33,-60.45C275.82,-49.53 304.06,-34.47 324.16,-23.75"/>
<polygon fill="#63b8ff" stroke="#63b8ff" points="325.85,-26.81 333.03,-19.02 322.56,-20.64 325.85,-26.81"/>
</a>
</g>
</g>
<!-- Node24&#45;&gt;Node12 -->
<g id="edge28_Node000024_Node000012" class="edge">
<title>Node24&#45;&gt;Node12</title>
<g id="a_edge28_Node000024_Node000012"><a xlink:title=" ">
<path fill="none" stroke="#63b8ff" d="M587.05,-60.45C578.63,-58.6 570.11,-56.75 562,-55 505.59,-42.86 440.66,-29.36 397.46,-20.45"/>
<polygon fill="#63b8ff" stroke="#63b8ff" points="398.01,-16.99 387.51,-18.4 396.6,-23.85 398.01,-16.99"/>
</a>
</g>
</g>
<!-- Node26&#45;&gt;Node15 -->
<g id="edge31_Node000026_Node000015" class="edge">
<title>Node26&#45;&gt;Node15</title>
<g id="a_edge31_Node000026_Node000015"><a xlink:title=" ">
<path fill="none" stroke="#63b8ff" d="M1980.28,-60.46C1971.52,-58.46 1962.54,-56.56 1954,-55 1839.46,-34.06 1702.2,-19.83 1637.79,-13.78"/>
<polygon fill="#63b8ff" stroke="#63b8ff" points="1638,-10.29 1627.72,-12.85 1637.36,-17.26 1638,-10.29"/>
</a>
</g>
</g>
<!-- Node32&#45;&gt;Node8 -->
<g id="edge46_Node000032_Node000008" class="edge">
<title>Node32&#45;&gt;Node8</title>
<g id="a_edge46_Node000032_Node000008"><a xlink:title=" ">
<path fill="none" stroke="#63b8ff" d="M1280.04,-206.17C1499.27,-185.12 2236.45,-113.37 2284,-96 2287.63,-94.67 2291.25,-92.8 2294.65,-90.73"/>
<polygon fill="#63b8ff" stroke="#63b8ff" points="2296.66,-93.59 2302.93,-85.05 2292.71,-87.82 2296.66,-93.59"/>
</a>
</g>
</g>
<!-- Node32&#45;&gt;Node11 -->
<g id="edge43_Node000032_Node000011" class="edge">
<title>Node32&#45;&gt;Node11</title>
<g id="a_edge43_Node000032_Node000011"><a xlink:title=" ">
<path fill="none" stroke="#63b8ff" d="M1219,-197.8C1219,-190.34 1219,-180.99 1219,-172.41"/>
<polygon fill="#63b8ff" stroke="#63b8ff" points="1222.5,-172.16 1219,-162.16 1215.5,-172.16 1222.5,-172.16"/>
</a>
</g>
</g>
<!-- Node33 -->
<g id="Node000033" class="node">
<title>Node33</title>
<g id="a_Node000033"><a xlink:title=" ">
<polygon fill="#e0e0e0" stroke="#999999" points="1141.5,-156.5 1088.5,-156.5 1088.5,-137.5 1141.5,-137.5 1141.5,-156.5"/>
<text text-anchor="middle" x="1115" y="-144.5" font-family="Helvetica,sans-Serif" font-size="10.00">cstddef</text>
</a>
</g>
</g>
<!-- Node32&#45;&gt;Node33 -->
<g id="edge44_Node000032_Node000033" class="edge">
<title>Node32&#45;&gt;Node33</title>
<g id="a_edge44_Node000032_Node000033"><a xlink:title=" ">
<path fill="none" stroke="#63b8ff" d="M1196.18,-197.95C1178.82,-187.27 1155.06,-172.65 1137.73,-161.98"/>
<polygon fill="#63b8ff" stroke="#63b8ff" points="1139.19,-158.78 1128.84,-156.52 1135.52,-164.74 1139.19,-158.78"/>
</a>
</g>
</g>
<!-- Node34 -->
<g id="Node000034" class="node">
<title>Node34</title>
<g id="a_Node000034"><a xlink:title=" ">
<polygon fill="#e0e0e0" stroke="#999999" points="1070,-156.5 1012,-156.5 1012,-137.5 1070,-137.5 1070,-156.5"/>
<text text-anchor="middle" x="1041" y="-144.5" font-family="Helvetica,sans-Serif" font-size="10.00">memory</text>
</a>
</g>
</g>
<!-- Node32&#45;&gt;Node34 -->
<g id="edge45_Node000032_Node000034" class="edge">
<title>Node32&#45;&gt;Node34</title>
<g id="a_edge45_Node000032_Node000034"><a xlink:title=" ">
<path fill="none" stroke="#63b8ff" d="M1179.44,-197.99C1151.38,-188.02 1112.85,-174.28 1079,-162 1077.36,-161.41 1075.69,-160.8 1074,-160.18"/>
<polygon fill="#63b8ff" stroke="#63b8ff" points="1074.89,-156.78 1064.3,-156.63 1072.48,-163.35 1074.89,-156.78"/>
</a>
</g>
</g>
</g>
</svg>
