<?xml version="1.0" encoding="UTF-8" standalone="no"?>
<!DOCTYPE svg PUBLIC "-//W3C//DTD SVG 1.1//EN"
 "http://www.w3.org/Graphics/SVG/1.1/DTD/svg11.dtd">
<!-- Generated by graphviz version 2.43.0 (0)
 -->
<!-- Title: include/Hermes/Socket/_base/Accept/TlsAcceptStateMachine.hpp Pages: 1 -->
<svg width="2973pt" height="434pt"
 viewBox="0.00 0.00 2972.70 434.00" xmlns="http://www.w3.org/2000/svg" xmlns:xlink="http://www.w3.org/1999/xlink">
<g id="graph0" class="graph" transform="scale(1 1) rotate(0) translate(4 430)">
<title>include/Hermes/Socket/_base/Accept/TlsAcceptStateMachine.hpp</title>
<!-- Node1 -->
<g id="Node000001" class="node">
<title>Node1</title>
<g id="a_Node000001"><a xlink:title=" ">
<polygon fill="#999999" stroke="#666666" points="2741.7,-426 2581.7,-426 2581.7,-385 2741.7,-385 2741.7,-426"/>
<text text-anchor="start" x="2589.7" y="-414" font-family="Helvetica,sans-Serif" font-size="10.00">include/Hermes/Socket</text>
<text text-anchor="start" x="2589.7" y="-403" font-family="Helvetica,sans-Serif" font-size="10.00">/_base/Accept/TlsAcceptState</text>
<text text-anchor="middle" x="2661.7" y="-392" font-family="Helvetica,sans-Serif" font-size="10.00">Machine.hpp</text>
</a>
</g>
</g>
<!-- Node2 -->
<g id="Node000002" class="node">
<title>Node2</title>
<g id="a_Node000002"><a xlink:href="_i_tls_accept_state_machine_8hpp.html" target="_top" xlink:title=" ">
<polygon fill="white" stroke="#666666" points="2758.7,-349 2564.7,-349 2564.7,-319 2758.7,-319 2758.7,-349"/>
<text text-anchor="start" x="2572.7" y="-337" font-family="Helvetica,sans-Serif" font-size="10.00">Hermes/Socket/_base</text>
<text text-anchor="middle" x="2661.7" y="-326" font-family="Helvetica,sans-Serif" font-size="10.00">/Accept/ITlsAcceptStateMachine.hpp</text>
</a>
</g>
</g>
<!-- Node1&#45;&gt;Node2 -->
<g id="edge1_Node000001_Node000002" class="edge">
<title>Node1&#45;&gt;Node2</title>
<g id="a_edge1_Node000001_Node000002"><a xlink:title=" ">
<path fill="none" stroke="#63b8ff" d="M2661.7,-384.77C2661.7,-376.85 2661.7,-367.63 2661.7,-359.3"/>
<polygon fill="#63b8ff" stroke="#63b8ff" points="2665.2,-359.04 2661.7,-349.04 2658.2,-359.04 2665.2,-359.04"/>
</a>
</g>
</g>
<!-- Node34 -->
<g id="Node000034" class="node">
<title>Node34</title>
<g id="a_Node000034"><a xlink:href="_tls_session_8hpp.html" target="_top" xlink:title=" ">
<polygon fill="white" stroke="#666666" points="1504.7,-228 1382.7,-228 1382.7,-198 1504.7,-198 1504.7,-228"/>
<text text-anchor="start" x="1390.7" y="-216" font-family="Helvetica,sans-Serif" font-size="10.00">Hermes/Socket/_base</text>
<text text-anchor="middle" x="1443.7" y="-205" font-family="Helvetica,sans-Serif" font-size="10.00">/TlsSession.hpp</text>
</a>
</g>
</g>
<!-- Node1&#45;&gt;Node34 -->
<g id="edge44_Node000001_Node000034" class="edge">
<title>Node1&#45;&gt;Node34</title>
<g id="a_edge44_Node000001_Node000034"><a xlink:title=" ">
<path fill="none" stroke="#63b8ff" d="M2581.31,-391.93C2357.23,-356.88 1728.09,-258.48 1515.17,-225.18"/>
<polygon fill="#63b8ff" stroke="#63b8ff" points="1515.47,-221.68 1505.05,-223.6 1514.39,-228.6 1515.47,-221.68"/>
</a>
</g>
</g>
<!-- Node38 -->
<g id="Node000038" class="node">
<title>Node38</title>
<g id="a_Node000038"><a xlink:title=" ">
<polygon fill="#e0e0e0" stroke="#999999" points="2964.7,-349 2776.7,-349 2776.7,-319 2964.7,-319 2964.7,-349"/>
<text text-anchor="start" x="2784.7" y="-337" font-family="Helvetica,sans-Serif" font-size="10.00">Hermes/Socket/_base</text>
<text text-anchor="middle" x="2870.7" y="-326" font-family="Helvetica,sans-Serif" font-size="10.00">/Accept/TlsAcceptStateMachine.tpp</text>
</a>
</g>
</g>
<!-- Node1&#45;&gt;Node38 -->
<g id="edge50_Node000001_Node000038" class="edge">
<title>Node1&#45;&gt;Node38</title>
<g id="a_edge50_Node000001_Node000038"><a xlink:title=" ">
<path fill="none" stroke="#63b8ff" d="M2720.47,-384.96C2751.39,-374.68 2788.95,-362.18 2818.79,-352.26"/>
<polygon fill="#63b8ff" stroke="#63b8ff" points="2820.2,-355.48 2828.59,-349 2817.99,-348.84 2820.2,-355.48"/>
</a>
</g>
</g>
<!-- Node3 -->
<g id="Node000003" class="node">
<title>Node3</title>
<g id="a_Node000003"><a xlink:href="__base_8hpp.html" target="_top" xlink:title=" ">
<polygon fill="white" stroke="#666666" points="2660.2,-283 2517.2,-283 2517.2,-264 2660.2,-264 2660.2,-283"/>
<text text-anchor="middle" x="2588.7" y="-271" font-family="Helvetica,sans-Serif" font-size="10.00">Hermes/Socket/_base.hpp</text>
</a>
</g>
</g>
<!-- Node2&#45;&gt;Node3 -->
<g id="edge2_Node000002_Node000003" class="edge">
<title>Node2&#45;&gt;Node3</title>
<g id="a_edge2_Node000002_Node000003"><a xlink:title=" ">
<path fill="none" stroke="#63b8ff" d="M2644.03,-318.84C2633,-310 2618.81,-298.63 2607.56,-289.62"/>
<polygon fill="#63b8ff" stroke="#63b8ff" points="2609.63,-286.79 2599.64,-283.27 2605.25,-292.25 2609.63,-286.79"/>
</a>
</g>
</g>
<!-- Node8 -->
<g id="Node000008" class="node">
<title>Node8</title>
<g id="a_Node000008"><a xlink:title=" ">
<polygon fill="#e0e0e0" stroke="#999999" points="2920.7,-85 2880.7,-85 2880.7,-66 2920.7,-66 2920.7,-85"/>
<text text-anchor="middle" x="2900.7" y="-73" font-family="Helvetica,sans-Serif" font-size="10.00">span</text>
</a>
</g>
</g>
<!-- Node2&#45;&gt;Node8 -->
<g id="edge42_Node000002_Node000008" class="edge">
<title>Node2&#45;&gt;Node8</title>
<g id="a_edge42_Node000002_Node000008"><a xlink:title=" ">
<path fill="none" stroke="#63b8ff" d="M2674.89,-318.84C2716.06,-274.66 2842.05,-139.44 2885.66,-92.64"/>
<polygon fill="#63b8ff" stroke="#63b8ff" points="2888.33,-94.91 2892.59,-85.21 2883.21,-90.14 2888.33,-94.91"/>
</a>
</g>
</g>
<!-- Node20 -->
<g id="Node000020" class="node">
<title>Node20</title>
<g id="a_Node000020"><a xlink:title=" ">
<polygon fill="#e0e0e0" stroke="#999999" points="2655.7,-19 2605.7,-19 2605.7,0 2655.7,0 2655.7,-19"/>
<text text-anchor="middle" x="2630.7" y="-7" font-family="Helvetica,sans-Serif" font-size="10.00">cstdint</text>
</a>
</g>
</g>
<!-- Node2&#45;&gt;Node20 -->
<g id="edge43_Node000002_Node000020" class="edge">
<title>Node2&#45;&gt;Node20</title>
<g id="a_edge43_Node000002_Node000020"><a xlink:title=" ">
<path fill="none" stroke="#63b8ff" d="M2729.71,-318.97C2814.58,-299.48 2948.7,-261.2 2948.7,-214 2948.7,-214 2948.7,-214 2948.7,-146 2948.7,-104.68 2959.75,-83.35 2929.7,-55 2892.3,-19.71 2736.99,-12.37 2666.17,-10.87"/>
<polygon fill="#63b8ff" stroke="#63b8ff" points="2666.02,-7.37 2655.96,-10.68 2665.9,-14.37 2666.02,-7.37"/>
</a>
</g>
</g>
<!-- Node4 -->
<g id="Node000004" class="node">
<title>Node4</title>
<g id="a_Node000004"><a xlink:href="_endpoint_concept_8hpp.html" target="_top" xlink:title=" ">
<polygon fill="white" stroke="#666666" points="2654.7,-228 2522.7,-228 2522.7,-198 2654.7,-198 2654.7,-228"/>
<text text-anchor="start" x="2530.7" y="-216" font-family="Helvetica,sans-Serif" font-size="10.00">Hermes/Endpoint/_base</text>
<text text-anchor="middle" x="2588.7" y="-205" font-family="Helvetica,sans-Serif" font-size="10.00">/EndpointConcept.hpp</text>
</a>
</g>
</g>
<!-- Node3&#45;&gt;Node4 -->
<g id="edge3_Node000003_Node000004" class="edge">
<title>Node3&#45;&gt;Node4</title>
<g id="a_edge3_Node000003_Node000004"><a xlink:title=" ">
<path fill="none" stroke="#63b8ff" d="M2588.7,-263.87C2588.7,-257.11 2588.7,-247.35 2588.7,-238.26"/>
<polygon fill="#63b8ff" stroke="#63b8ff" points="2592.2,-238.11 2588.7,-228.11 2585.2,-238.11 2592.2,-238.11"/>
</a>
</g>
</g>
<!-- Node5 -->
<g id="Node000005" class="node">
<title>Node5</title>
<g id="a_Node000005"><a xlink:href="_connection_error_enum_8hpp.html" target="_top" xlink:title=" ">
<polygon fill="white" stroke="#666666" points="2719.2,-162 2552.2,-162 2552.2,-132 2719.2,-132 2719.2,-162"/>
<text text-anchor="start" x="2560.2" y="-150" font-family="Helvetica,sans-Serif" font-size="10.00">Hermes/_base/ConnectionError</text>
<text text-anchor="middle" x="2635.7" y="-139" font-family="Helvetica,sans-Serif" font-size="10.00">Enum.hpp</text>
</a>
</g>
</g>
<!-- Node3&#45;&gt;Node5 -->
<g id="edge37_Node000003_Node000005" class="edge">
<title>Node3&#45;&gt;Node5</title>
<g id="a_edge37_Node000003_Node000005"><a xlink:title=" ">
<path fill="none" stroke="#63b8ff" d="M2616.35,-263.98C2633.28,-257.17 2653.59,-245.76 2663.7,-228 2674.02,-209.87 2664.33,-187.29 2653.62,-170.75"/>
<polygon fill="#63b8ff" stroke="#63b8ff" points="2656.28,-168.44 2647.69,-162.25 2650.54,-172.45 2656.28,-168.44"/>
</a>
</g>
</g>
<!-- Node9 -->
<g id="Node000009" class="node">
<title>Node9</title>
<g id="a_Node000009"><a xlink:title=" ">
<polygon fill="#e0e0e0" stroke="#999999" points="2862.2,-85 2737.2,-85 2737.2,-66 2862.2,-66 2862.2,-85"/>
<text text-anchor="middle" x="2799.7" y="-73" font-family="Helvetica,sans-Serif" font-size="10.00">stdexec/execution.hpp</text>
</a>
</g>
</g>
<!-- Node3&#45;&gt;Node9 -->
<g id="edge39_Node000003_Node000009" class="edge">
<title>Node3&#45;&gt;Node9</title>
<g id="a_edge39_Node000003_Node000009"><a xlink:title=" ">
<path fill="none" stroke="#63b8ff" d="M2613.88,-263.91C2633.43,-256.43 2660.52,-244.24 2680.7,-228 2730.07,-188.26 2771.55,-124.34 2789.77,-93.82"/>
<polygon fill="#63b8ff" stroke="#63b8ff" points="2792.82,-95.55 2794.85,-85.15 2786.78,-92.01 2792.82,-95.55"/>
</a>
</g>
</g>
<!-- Node11 -->
<g id="Node000011" class="node">
<title>Node11</title>
<g id="a_Node000011"><a xlink:href="_os_api_8hpp.html" target="_top" xlink:title=" ">
<polygon fill="white" stroke="#666666" points="1551.7,-162 1433.7,-162 1433.7,-132 1551.7,-132 1551.7,-162"/>
<text text-anchor="start" x="1441.7" y="-150" font-family="Helvetica,sans-Serif" font-size="10.00">Hermes/_base/OsApi</text>
<text text-anchor="middle" x="1492.7" y="-139" font-family="Helvetica,sans-Serif" font-size="10.00">/OsApi.hpp</text>
</a>
</g>
</g>
<!-- Node3&#45;&gt;Node11 -->
<g id="edge38_Node000003_Node000011" class="edge">
<title>Node3&#45;&gt;Node11</title>
<g id="a_edge38_Node000003_Node000011"><a xlink:title=" ">
<path fill="none" stroke="#63b8ff" d="M2516.79,-264.33C2317.25,-241.66 1758.45,-178.19 1562.03,-155.88"/>
<polygon fill="#63b8ff" stroke="#63b8ff" points="1562.17,-152.37 1551.84,-154.72 1561.38,-159.32 1562.17,-152.37"/>
</a>
</g>
</g>
<!-- Node32 -->
<g id="Node000032" class="node">
<title>Node32</title>
<g id="a_Node000032"><a xlink:title=" ">
<polygon fill="#e0e0e0" stroke="#999999" points="2436.7,-222.5 2376.7,-222.5 2376.7,-203.5 2436.7,-203.5 2436.7,-222.5"/>
<text text-anchor="middle" x="2406.7" y="-210.5" font-family="Helvetica,sans-Serif" font-size="10.00">concepts</text>
</a>
</g>
</g>
<!-- Node3&#45;&gt;Node32 -->
<g id="edge40_Node000003_Node000032" class="edge">
<title>Node3&#45;&gt;Node32</title>
<g id="a_edge40_Node000003_Node000032"><a xlink:title=" ">
<path fill="none" stroke="#63b8ff" d="M2560.1,-263.99C2531.14,-255.29 2485.15,-241.21 2445.7,-228 2443.81,-227.37 2441.87,-226.7 2439.91,-226.03"/>
<polygon fill="#63b8ff" stroke="#63b8ff" points="2440.75,-222.62 2430.15,-222.6 2438.43,-229.22 2440.75,-222.62"/>
</a>
</g>
</g>
<!-- Node33 -->
<g id="Node000033" class="node">
<title>Node33</title>
<g id="a_Node000033"><a xlink:title=" ">
<polygon fill="#e0e0e0" stroke="#999999" points="2504.7,-222.5 2454.7,-222.5 2454.7,-203.5 2504.7,-203.5 2504.7,-222.5"/>
<text text-anchor="middle" x="2479.7" y="-210.5" font-family="Helvetica,sans-Serif" font-size="10.00">ranges</text>
</a>
</g>
</g>
<!-- Node3&#45;&gt;Node33 -->
<g id="edge41_Node000003_Node000033" class="edge">
<title>Node3&#45;&gt;Node33</title>
<g id="a_edge41_Node000003_Node000033"><a xlink:title=" ">
<path fill="none" stroke="#63b8ff" d="M2572.62,-263.87C2554.74,-254.28 2525.66,-238.67 2504.79,-227.47"/>
<polygon fill="#63b8ff" stroke="#63b8ff" points="2506.31,-224.31 2495.85,-222.67 2503,-230.48 2506.31,-224.31"/>
</a>
</g>
</g>
<!-- Node4&#45;&gt;Node5 -->
<g id="edge4_Node000004_Node000005" class="edge">
<title>Node4&#45;&gt;Node5</title>
<g id="a_edge4_Node000004_Node000005"><a xlink:title=" ">
<path fill="none" stroke="#63b8ff" d="M2599.13,-197.8C2605.03,-189.76 2612.55,-179.53 2619.23,-170.43"/>
<polygon fill="#63b8ff" stroke="#63b8ff" points="2622.2,-172.3 2625.3,-162.16 2616.56,-168.15 2622.2,-172.3"/>
</a>
</g>
</g>
<!-- Node4&#45;&gt;Node11 -->
<g id="edge10_Node000004_Node000011" class="edge">
<title>Node4&#45;&gt;Node11</title>
<g id="a_edge10_Node000004_Node000011"><a xlink:title=" ">
<path fill="none" stroke="#63b8ff" d="M2522.52,-199.14C2519.54,-198.72 2516.59,-198.34 2513.7,-198 2157.4,-156.22 1727.19,-149.24 1561.94,-148.16"/>
<polygon fill="#63b8ff" stroke="#63b8ff" points="1561.94,-144.66 1551.92,-148.1 1561.89,-151.66 1561.94,-144.66"/>
</a>
</g>
</g>
<!-- Node6 -->
<g id="Node000006" class="node">
<title>Node6</title>
<g id="a_Node000006"><a xlink:title=" ">
<polygon fill="#e0e0e0" stroke="#999999" points="2468.7,-85 2406.7,-85 2406.7,-66 2468.7,-66 2468.7,-85"/>
<text text-anchor="middle" x="2437.7" y="-73" font-family="Helvetica,sans-Serif" font-size="10.00">expected</text>
</a>
</g>
</g>
<!-- Node5&#45;&gt;Node6 -->
<g id="edge5_Node000005_Node000006" class="edge">
<title>Node5&#45;&gt;Node6</title>
<g id="a_edge5_Node000005_Node000006"><a xlink:title=" ">
<path fill="none" stroke="#63b8ff" d="M2584.87,-131.98C2553.56,-122.84 2512.83,-110.03 2477.7,-96 2472.8,-94.04 2467.67,-91.74 2462.78,-89.42"/>
<polygon fill="#63b8ff" stroke="#63b8ff" points="2464.32,-86.28 2453.8,-85.02 2461.24,-92.57 2464.32,-86.28"/>
</a>
</g>
</g>
<!-- Node7 -->
<g id="Node000007" class="node">
<title>Node7</title>
<g id="a_Node000007"><a xlink:title=" ">
<polygon fill="#e0e0e0" stroke="#999999" points="2534.2,-85 2487.2,-85 2487.2,-66 2534.2,-66 2534.2,-85"/>
<text text-anchor="middle" x="2510.7" y="-73" font-family="Helvetica,sans-Serif" font-size="10.00">vector</text>
</a>
</g>
</g>
<!-- Node5&#45;&gt;Node7 -->
<g id="edge6_Node000005_Node000007" class="edge">
<title>Node5&#45;&gt;Node7</title>
<g id="a_edge6_Node000005_Node000007"><a xlink:title=" ">
<path fill="none" stroke="#63b8ff" d="M2608.63,-131.94C2589.96,-122.12 2564.65,-108.58 2542.7,-96 2539.56,-94.2 2536.27,-92.26 2533.04,-90.33"/>
<polygon fill="#63b8ff" stroke="#63b8ff" points="2534.67,-87.22 2524.31,-85.01 2531.03,-93.2 2534.67,-87.22"/>
</a>
</g>
</g>
<!-- Node5&#45;&gt;Node8 -->
<g id="edge7_Node000005_Node000008" class="edge">
<title>Node5&#45;&gt;Node8</title>
<g id="a_edge7_Node000005_Node000008"><a xlink:title=" ">
<path fill="none" stroke="#63b8ff" d="M2718.13,-131.98C2774.7,-121.71 2844.31,-107.59 2871.7,-96 2875.04,-94.59 2878.4,-92.77 2881.6,-90.81"/>
<polygon fill="#63b8ff" stroke="#63b8ff" points="2883.65,-93.65 2889.98,-85.16 2879.73,-87.85 2883.65,-93.65"/>
</a>
</g>
</g>
<!-- Node5&#45;&gt;Node9 -->
<g id="edge8_Node000005_Node000009" class="edge">
<title>Node5&#45;&gt;Node9</title>
<g id="a_edge8_Node000005_Node000009"><a xlink:title=" ">
<path fill="none" stroke="#63b8ff" d="M2668.89,-131.94C2698.53,-119.38 2741.54,-101.15 2770.05,-89.07"/>
<polygon fill="#63b8ff" stroke="#63b8ff" points="2771.64,-92.19 2779.48,-85.07 2768.91,-85.75 2771.64,-92.19"/>
</a>
</g>
</g>
<!-- Node10 -->
<g id="Node000010" class="node">
<title>Node10</title>
<g id="a_Node000010"><a xlink:title=" ">
<polygon fill="#e0e0e0" stroke="#999999" points="2719.2,-90.5 2552.2,-90.5 2552.2,-60.5 2719.2,-60.5 2719.2,-90.5"/>
<text text-anchor="start" x="2560.2" y="-78.5" font-family="Helvetica,sans-Serif" font-size="10.00">Hermes/_base/ConnectionError</text>
<text text-anchor="middle" x="2635.7" y="-67.5" font-family="Helvetica,sans-Serif" font-size="10.00">Enum.tpp</text>
</a>
</g>
</g>
<!-- Node5&#45;&gt;Node10 -->
<g id="edge9_Node000005_Node000010" class="edge">
<title>Node5&#45;&gt;Node10</title>
<g id="a_edge9_Node000005_Node000010"><a xlink:title=" ">
<path fill="none" stroke="#63b8ff" d="M2635.7,-131.94C2635.7,-122.99 2635.7,-111.16 2635.7,-100.73"/>
<polygon fill="#63b8ff" stroke="#63b8ff" points="2639.2,-100.54 2635.7,-90.54 2632.2,-100.54 2639.2,-100.54"/>
</a>
</g>
</g>
<!-- Node12 -->
<g id="Node000012" class="node">
<title>Node12</title>
<g id="a_Node000012"><a xlink:title=" ">
<polygon fill="#e0e0e0" stroke="#999999" points="1906.2,-19 1829.2,-19 1829.2,0 1906.2,0 1906.2,-19"/>
<text text-anchor="middle" x="1867.7" y="-7" font-family="Helvetica,sans-Serif" font-size="10.00">sys/socket.h</text>
</a>
</g>
</g>
<!-- Node11&#45;&gt;Node12 -->
<g id="edge11_Node000011_Node000012" class="edge">
<title>Node11&#45;&gt;Node12</title>
<g id="a_edge11_Node000011_Node000012"><a xlink:title=" ">
<path fill="none" stroke="#63b8ff" d="M1552.07,-144.12C1673.52,-139.66 1941.28,-126.45 1968.7,-96 1980.89,-82.46 1978.65,-70.26 1968.7,-55 1956.92,-36.95 1935.99,-26.16 1916.23,-19.75"/>
<polygon fill="#63b8ff" stroke="#63b8ff" points="1916.94,-16.31 1906.36,-16.86 1914.98,-23.03 1916.94,-16.31"/>
</a>
</g>
</g>
<!-- Node13 -->
<g id="Node000013" class="node">
<title>Node13</title>
<g id="a_Node000013"><a xlink:title=" ">
<polygon fill="#e0e0e0" stroke="#999999" points="86.7,-19 14.7,-19 14.7,0 86.7,0 86.7,-19"/>
<text text-anchor="middle" x="50.7" y="-7" font-family="Helvetica,sans-Serif" font-size="10.00">netinet/in.h</text>
</a>
</g>
</g>
<!-- Node11&#45;&gt;Node13 -->
<g id="edge12_Node000011_Node000013" class="edge">
<title>Node11&#45;&gt;Node13</title>
<g id="a_edge12_Node000011_Node000013"><a xlink:title=" ">
<path fill="none" stroke="#63b8ff" d="M1433.46,-133.16C1430.51,-132.72 1427.57,-132.33 1424.7,-132 1346.46,-123.02 62.67,-152.39 7.7,-96 -5.02,-82.95 0.87,-71.89 7.7,-55 12.38,-43.41 21.7,-33.16 30.46,-25.43"/>
<polygon fill="#63b8ff" stroke="#63b8ff" points="32.7,-28.12 38.21,-19.07 28.26,-22.71 32.7,-28.12"/>
</a>
</g>
</g>
<!-- Node14 -->
<g id="Node000014" class="node">
<title>Node14</title>
<g id="a_Node000014"><a xlink:title=" ">
<polygon fill="#e0e0e0" stroke="#999999" points="2221.2,-85 2152.2,-85 2152.2,-66 2221.2,-66 2221.2,-85"/>
<text text-anchor="middle" x="2186.7" y="-73" font-family="Helvetica,sans-Serif" font-size="10.00">arpa/inet.h</text>
</a>
</g>
</g>
<!-- Node11&#45;&gt;Node14 -->
<g id="edge13_Node000011_Node000014" class="edge">
<title>Node11&#45;&gt;Node14</title>
<g id="a_edge13_Node000011_Node000014"><a xlink:title=" ">
<path fill="none" stroke="#63b8ff" d="M1551.95,-144.01C1690.39,-138.96 2031.72,-123.98 2142.7,-96 2148.93,-94.43 2155.38,-92.04 2161.37,-89.47"/>
<polygon fill="#63b8ff" stroke="#63b8ff" points="2163.26,-92.46 2170.87,-85.09 2160.32,-86.1 2163.26,-92.46"/>
</a>
</g>
</g>
<!-- Node15 -->
<g id="Node000015" class="node">
<title>Node15</title>
<g id="a_Node000015"><a xlink:title=" ">
<polygon fill="#e0e0e0" stroke="#999999" points="387.2,-19 334.2,-19 334.2,0 387.2,0 387.2,-19"/>
<text text-anchor="middle" x="360.7" y="-7" font-family="Helvetica,sans-Serif" font-size="10.00">netdb.h</text>
</a>
</g>
</g>
<!-- Node11&#45;&gt;Node15 -->
<g id="edge14_Node000011_Node000015" class="edge">
<title>Node11&#45;&gt;Node15</title>
<g id="a_edge14_Node000011_Node000015"><a xlink:title=" ">
<path fill="none" stroke="#63b8ff" d="M1433.46,-133.18C1430.5,-132.74 1427.57,-132.34 1424.7,-132 1364.26,-124.84 372.03,-139.74 329.7,-96 311.23,-76.91 330.42,-45.99 345.75,-27.03"/>
<polygon fill="#63b8ff" stroke="#63b8ff" points="348.56,-29.13 352.38,-19.24 343.23,-24.59 348.56,-29.13"/>
</a>
</g>
</g>
<!-- Node16 -->
<g id="Node000016" class="node">
<title>Node16</title>
<g id="a_Node000016"><a xlink:title=" ">
<polygon fill="#e0e0e0" stroke="#999999" points="282.7,-85 226.7,-85 226.7,-66 282.7,-66 282.7,-85"/>
<text text-anchor="middle" x="254.7" y="-73" font-family="Helvetica,sans-Serif" font-size="10.00">unistd.h</text>
</a>
</g>
</g>
<!-- Node11&#45;&gt;Node16 -->
<g id="edge15_Node000011_Node000016" class="edge">
<title>Node11&#45;&gt;Node16</title>
<g id="a_edge15_Node000011_Node000016"><a xlink:title=" ">
<path fill="none" stroke="#63b8ff" d="M1433.46,-133.18C1430.5,-132.74 1427.57,-132.34 1424.7,-132 1175.63,-102.61 540.7,-153.98 296.7,-96 290.59,-94.55 284.29,-92.16 278.49,-89.55"/>
<polygon fill="#63b8ff" stroke="#63b8ff" points="279.85,-86.32 269.33,-85.07 276.78,-92.61 279.85,-86.32"/>
</a>
</g>
</g>
<!-- Node17 -->
<g id="Node000017" class="node">
<title>Node17</title>
<g id="a_Node000017"><a xlink:href="_types_8hpp.html" target="_top" xlink:title=" ">
<polygon fill="white" stroke="#666666" points="1386.7,-90.5 1268.7,-90.5 1268.7,-60.5 1386.7,-60.5 1386.7,-90.5"/>
<text text-anchor="start" x="1276.7" y="-78.5" font-family="Helvetica,sans-Serif" font-size="10.00">Hermes/_base/OsApi</text>
<text text-anchor="middle" x="1327.7" y="-67.5" font-family="Helvetica,sans-Serif" font-size="10.00">/Types.hpp</text>
</a>
</g>
</g>
<!-- Node11&#45;&gt;Node17 -->
<g id="edge16_Node000011_Node000017" class="edge">
<title>Node11&#45;&gt;Node17</title>
<g id="a_edge16_Node000011_Node000017"><a xlink:title=" ">
<path fill="none" stroke="#63b8ff" d="M1459.31,-131.94C1433.7,-121.15 1398.17,-106.18 1370.48,-94.52"/>
<polygon fill="#63b8ff" stroke="#63b8ff" points="1371.61,-91.2 1361.04,-90.54 1368.9,-97.65 1371.61,-91.2"/>
</a>
</g>
</g>
<!-- Node19 -->
<g id="Node000019" class="node">
<title>Node19</title>
<g id="a_Node000019"><a xlink:href="_conversion_and_literals_8hpp.html" target="_top" xlink:title=" ">
<polygon fill="white" stroke="#666666" points="2388.7,-90.5 2238.7,-90.5 2238.7,-60.5 2388.7,-60.5 2388.7,-90.5"/>
<text text-anchor="start" x="2246.7" y="-78.5" font-family="Helvetica,sans-Serif" font-size="10.00">Hermes/_base/OsApi</text>
<text text-anchor="middle" x="2313.7" y="-67.5" font-family="Helvetica,sans-Serif" font-size="10.00">/ConversionAndLiterals.hpp</text>
</a>
</g>
</g>
<!-- Node11&#45;&gt;Node19 -->
<g id="edge18_Node000011_Node000019" class="edge">
<title>Node11&#45;&gt;Node19</title>
<g id="a_edge18_Node000011_Node000019"><a xlink:title=" ">
<path fill="none" stroke="#63b8ff" d="M1551.8,-145.2C1677.32,-142.8 1979.5,-133.28 2229.7,-96 2235.92,-95.07 2242.36,-93.93 2248.78,-92.65"/>
<polygon fill="#63b8ff" stroke="#63b8ff" points="2249.74,-96.03 2258.82,-90.57 2248.31,-89.18 2249.74,-96.03"/>
</a>
</g>
</g>
<!-- Node21 -->
<g id="Node000021" class="node">
<title>Node21</title>
<g id="a_Node000021"><a xlink:href="_macros_8hpp.html" target="_top" xlink:title=" ">
<polygon fill="white" stroke="#666666" points="2133.7,-90.5 2015.7,-90.5 2015.7,-60.5 2133.7,-60.5 2133.7,-90.5"/>
<text text-anchor="start" x="2023.7" y="-78.5" font-family="Helvetica,sans-Serif" font-size="10.00">Hermes/_base/OsApi</text>
<text text-anchor="middle" x="2074.7" y="-67.5" font-family="Helvetica,sans-Serif" font-size="10.00">/Macros.hpp</text>
</a>
</g>
</g>
<!-- Node11&#45;&gt;Node21 -->
<g id="edge20_Node000011_Node000021" class="edge">
<title>Node11&#45;&gt;Node21</title>
<g id="a_edge20_Node000011_Node000021"><a xlink:title=" ">
<path fill="none" stroke="#63b8ff" d="M1551.91,-143.32C1647.28,-138.31 1840.51,-125.24 2001.7,-96 2006.65,-95.1 2011.77,-94.03 2016.87,-92.87"/>
<polygon fill="#63b8ff" stroke="#63b8ff" points="2017.74,-96.26 2026.65,-90.52 2016.11,-89.45 2017.74,-96.26"/>
</a>
</g>
</g>
<!-- Node23 -->
<g id="Node000023" class="node">
<title>Node23</title>
<g id="a_Node000023"><a xlink:href="_address_family_enum_8hpp.html" target="_top" xlink:title=" ">
<polygon fill="white" stroke="#666666" points="1580.7,-90.5 1404.7,-90.5 1404.7,-60.5 1580.7,-60.5 1580.7,-90.5"/>
<text text-anchor="start" x="1412.7" y="-78.5" font-family="Helvetica,sans-Serif" font-size="10.00">Hermes/_base/OsApi</text>
<text text-anchor="middle" x="1492.7" y="-67.5" font-family="Helvetica,sans-Serif" font-size="10.00">/Enums/AddressFamilyEnum.hpp</text>
</a>
</g>
</g>
<!-- Node11&#45;&gt;Node23 -->
<g id="edge23_Node000011_Node000023" class="edge">
<title>Node11&#45;&gt;Node23</title>
<g id="a_edge23_Node000011_Node000023"><a xlink:title=" ">
<path fill="none" stroke="#63b8ff" d="M1492.7,-131.94C1492.7,-122.99 1492.7,-111.16 1492.7,-100.73"/>
<polygon fill="#63b8ff" stroke="#63b8ff" points="1496.2,-100.54 1492.7,-90.54 1489.2,-100.54 1496.2,-100.54"/>
</a>
</g>
</g>
<!-- Node24 -->
<g id="Node000024" class="node">
<title>Node24</title>
<g id="a_Node000024"><a xlink:href="_protocol_base_type_enum_8hpp.html" target="_top" xlink:title=" ">
<polygon fill="white" stroke="#666666" points="208.2,-90.5 17.2,-90.5 17.2,-60.5 208.2,-60.5 208.2,-90.5"/>
<text text-anchor="start" x="25.2" y="-78.5" font-family="Helvetica,sans-Serif" font-size="10.00">Hermes/_base/OsApi</text>
<text text-anchor="middle" x="112.7" y="-67.5" font-family="Helvetica,sans-Serif" font-size="10.00">/Enums/ProtocolBaseTypeEnum.hpp</text>
</a>
</g>
</g>
<!-- Node11&#45;&gt;Node24 -->
<g id="edge25_Node000011_Node000024" class="edge">
<title>Node11&#45;&gt;Node24</title>
<g id="a_edge25_Node000011_Node000024"><a xlink:title=" ">
<path fill="none" stroke="#63b8ff" d="M1433.46,-133.17C1430.5,-132.73 1427.57,-132.34 1424.7,-132 891.65,-69.65 751.33,-153.17 217.7,-96 208.63,-95.03 199.17,-93.71 189.8,-92.21"/>
<polygon fill="#63b8ff" stroke="#63b8ff" points="190.13,-88.72 179.69,-90.53 188.98,-95.63 190.13,-88.72"/>
</a>
</g>
</g>
<!-- Node25 -->
<g id="Node000025" class="node">
<title>Node25</title>
<g id="a_Node000025"><a xlink:href="_socket_shutdown_enum_8hpp.html" target="_top" xlink:title=" ">
<polygon fill="white" stroke="#666666" points="1960.2,-90.5 1775.2,-90.5 1775.2,-60.5 1960.2,-60.5 1960.2,-90.5"/>
<text text-anchor="start" x="1783.2" y="-78.5" font-family="Helvetica,sans-Serif" font-size="10.00">Hermes/_base/OsApi</text>
<text text-anchor="middle" x="1867.7" y="-67.5" font-family="Helvetica,sans-Serif" font-size="10.00">/Enums/SocketShutdownEnum.hpp</text>
</a>
</g>
</g>
<!-- Node11&#45;&gt;Node25 -->
<g id="edge27_Node000011_Node000025" class="edge">
<title>Node11&#45;&gt;Node25</title>
<g id="a_edge27_Node000011_Node000025"><a xlink:title=" ">
<path fill="none" stroke="#63b8ff" d="M1551.84,-135.31C1607.15,-125.27 1692.05,-109.78 1765.7,-96 1771.86,-94.85 1778.23,-93.65 1784.64,-92.43"/>
<polygon fill="#63b8ff" stroke="#63b8ff" points="1785.55,-95.82 1794.72,-90.52 1784.25,-88.95 1785.55,-95.82"/>
</a>
</g>
</g>
<!-- Node26 -->
<g id="Node000026" class="node">
<title>Node26</title>
<g id="a_Node000026"><a xlink:href="_socket_type_enum_8hpp.html" target="_top" xlink:title=" ">
<polygon fill="white" stroke="#666666" points="1757.2,-90.5 1598.2,-90.5 1598.2,-60.5 1757.2,-60.5 1757.2,-90.5"/>
<text text-anchor="start" x="1606.2" y="-78.5" font-family="Helvetica,sans-Serif" font-size="10.00">Hermes/_base/OsApi</text>
<text text-anchor="middle" x="1677.7" y="-67.5" font-family="Helvetica,sans-Serif" font-size="10.00">/Enums/SocketTypeEnum.hpp</text>
</a>
</g>
</g>
<!-- Node11&#45;&gt;Node26 -->
<g id="edge29_Node000011_Node000026" class="edge">
<title>Node11&#45;&gt;Node26</title>
<g id="a_edge29_Node000011_Node000026"><a xlink:title=" ">
<path fill="none" stroke="#63b8ff" d="M1530.14,-131.94C1559.22,-121.01 1599.73,-105.79 1630.95,-94.06"/>
<polygon fill="#63b8ff" stroke="#63b8ff" points="1632.19,-97.34 1640.32,-90.54 1629.73,-90.78 1632.19,-97.34"/>
</a>
</g>
</g>
<!-- Node27 -->
<g id="Node000027" class="node">
<title>Node27</title>
<g id="a_Node000027"><a xlink:href="_linux_2_encrypt_status_enum_8hpp.html" target="_top" xlink:title=" ">
<polygon fill="white" stroke="#666666" points="652.7,-96 500.7,-96 500.7,-55 652.7,-55 652.7,-96"/>
<text text-anchor="start" x="508.7" y="-84" font-family="Helvetica,sans-Serif" font-size="10.00">Hermes/_base/OsApi</text>
<text text-anchor="start" x="508.7" y="-73" font-family="Helvetica,sans-Serif" font-size="10.00">/Enums/Linux/EncryptStatus</text>
<text text-anchor="middle" x="576.7" y="-62" font-family="Helvetica,sans-Serif" font-size="10.00">Enum.hpp</text>
</a>
</g>
</g>
<!-- Node11&#45;&gt;Node27 -->
<g id="edge31_Node000011_Node000027" class="edge">
<title>Node11&#45;&gt;Node27</title>
<g id="a_edge31_Node000011_Node000027"><a xlink:title=" ">
<path fill="none" stroke="#63b8ff" d="M1433.45,-133.24C1430.5,-132.78 1427.57,-132.36 1424.7,-132 1091.15,-90.06 999.82,-141.12 663.07,-96.05"/>
<polygon fill="#63b8ff" stroke="#63b8ff" points="663.42,-92.57 653.04,-94.69 662.47,-99.5 663.42,-92.57"/>
</a>
</g>
</g>
<!-- Node28 -->
<g id="Node000028" class="node">
<title>Node28</title>
<g id="a_Node000028"><a xlink:href="_name_info_flags_8hpp.html" target="_top" xlink:title=" ">
<polygon fill="white" stroke="#666666" points="482.7,-90.5 338.7,-90.5 338.7,-60.5 482.7,-60.5 482.7,-90.5"/>
<text text-anchor="start" x="346.7" y="-78.5" font-family="Helvetica,sans-Serif" font-size="10.00">Hermes/_base/OsApi</text>
<text text-anchor="middle" x="410.7" y="-67.5" font-family="Helvetica,sans-Serif" font-size="10.00">/Flags/NameInfoFlags.hpp</text>
</a>
</g>
</g>
<!-- Node11&#45;&gt;Node28 -->
<g id="edge32_Node000011_Node000028" class="edge">
<title>Node11&#45;&gt;Node28</title>
<g id="a_edge32_Node000011_Node000028"><a xlink:title=" ">
<path fill="none" stroke="#63b8ff" d="M1433.46,-133.21C1430.5,-132.75 1427.57,-132.35 1424.7,-132 1012.75,-81.99 902.76,-152.84 491.7,-96 485.4,-95.13 478.87,-93.98 472.39,-92.68"/>
<polygon fill="#63b8ff" stroke="#63b8ff" points="472.77,-89.18 462.26,-90.52 471.31,-96.03 472.77,-89.18"/>
</a>
</g>
</g>
<!-- Node29 -->
<g id="Node000029" class="node">
<title>Node29</title>
<g id="a_Node000029"><a xlink:href="_linux_2_credential_flags_8hpp.html" target="_top" xlink:title=" ">
<polygon fill="white" stroke="#666666" points="846.7,-90.5 670.7,-90.5 670.7,-60.5 846.7,-60.5 846.7,-90.5"/>
<text text-anchor="start" x="678.7" y="-78.5" font-family="Helvetica,sans-Serif" font-size="10.00">Hermes/_base/OsApi</text>
<text text-anchor="middle" x="758.7" y="-67.5" font-family="Helvetica,sans-Serif" font-size="10.00">/Flags/Linux/CredentialFlags.hpp</text>
</a>
</g>
</g>
<!-- Node11&#45;&gt;Node29 -->
<g id="edge34_Node000011_Node000029" class="edge">
<title>Node11&#45;&gt;Node29</title>
<g id="a_edge34_Node000011_Node000029"><a xlink:title=" ">
<path fill="none" stroke="#63b8ff" d="M1433.44,-133.29C1430.49,-132.82 1427.57,-132.38 1424.7,-132 1173.55,-98.37 1106.93,-129.05 855.7,-96 848.04,-94.99 840.07,-93.74 832.14,-92.35"/>
<polygon fill="#63b8ff" stroke="#63b8ff" points="832.61,-88.88 822.15,-90.53 831.36,-95.77 832.61,-88.88"/>
</a>
</g>
</g>
<!-- Node30 -->
<g id="Node000030" class="node">
<title>Node30</title>
<g id="a_Node000030"><a xlink:href="_linux_2_supported_protocols_flags_8hpp.html" target="_top" xlink:title=" ">
<polygon fill="white" stroke="#666666" points="1038.2,-96 865.2,-96 865.2,-55 1038.2,-55 1038.2,-96"/>
<text text-anchor="start" x="873.2" y="-84" font-family="Helvetica,sans-Serif" font-size="10.00">Hermes/_base/OsApi</text>
<text text-anchor="start" x="873.2" y="-73" font-family="Helvetica,sans-Serif" font-size="10.00">/Flags/Linux/SupportedProtocols</text>
<text text-anchor="middle" x="951.7" y="-62" font-family="Helvetica,sans-Serif" font-size="10.00">Flags.hpp</text>
</a>
</g>
</g>
<!-- Node11&#45;&gt;Node30 -->
<g id="edge35_Node000011_Node000030" class="edge">
<title>Node11&#45;&gt;Node30</title>
<g id="a_edge35_Node000011_Node000030"><a xlink:title=" ">
<path fill="none" stroke="#63b8ff" d="M1433.43,-133.4C1430.48,-132.9 1427.56,-132.43 1424.7,-132 1261.42,-107.47 1215.9,-120.28 1048.14,-95.97"/>
<polygon fill="#63b8ff" stroke="#63b8ff" points="1048.64,-92.51 1038.23,-94.51 1047.62,-99.43 1048.64,-92.51"/>
</a>
</g>
</g>
<!-- Node31 -->
<g id="Node000031" class="node">
<title>Node31</title>
<g id="a_Node000031"><a xlink:href="_linux_2_s_channel_cred_flags_8hpp.html" target="_top" xlink:title=" ">
<polygon fill="white" stroke="#666666" points="1250.7,-90.5 1056.7,-90.5 1056.7,-60.5 1250.7,-60.5 1250.7,-90.5"/>
<text text-anchor="start" x="1064.7" y="-78.5" font-family="Helvetica,sans-Serif" font-size="10.00">Hermes/_base/OsApi</text>
<text text-anchor="middle" x="1153.7" y="-67.5" font-family="Helvetica,sans-Serif" font-size="10.00">/Flags/Linux/SChannelCredFlags.hpp</text>
</a>
</g>
</g>
<!-- Node11&#45;&gt;Node31 -->
<g id="edge36_Node000011_Node000031" class="edge">
<title>Node11&#45;&gt;Node31</title>
<g id="a_edge36_Node000011_Node000031"><a xlink:title=" ">
<path fill="none" stroke="#63b8ff" d="M1433.36,-133.78C1430.43,-133.18 1427.53,-132.58 1424.7,-132 1359.82,-118.68 1286.19,-103.6 1232.07,-92.53"/>
<polygon fill="#63b8ff" stroke="#63b8ff" points="1232.7,-89.08 1222.2,-90.51 1231.3,-95.94 1232.7,-89.08"/>
</a>
</g>
</g>
<!-- Node18 -->
<g id="Node000018" class="node">
<title>Node18</title>
<g id="a_Node000018"><a xlink:title=" ">
<polygon fill="#e0e0e0" stroke="#999999" points="1364.7,-19 1290.7,-19 1290.7,0 1364.7,0 1364.7,-19"/>
<text text-anchor="middle" x="1327.7" y="-7" font-family="Helvetica,sans-Serif" font-size="10.00">WinSock2.h</text>
</a>
</g>
</g>
<!-- Node17&#45;&gt;Node18 -->
<g id="edge17_Node000017_Node000018" class="edge">
<title>Node17&#45;&gt;Node18</title>
<g id="a_edge17_Node000017_Node000018"><a xlink:title=" ">
<path fill="none" stroke="#63b8ff" d="M1327.7,-60.3C1327.7,-51.2 1327.7,-39.29 1327.7,-29.4"/>
<polygon fill="#63b8ff" stroke="#63b8ff" points="1331.2,-29.34 1327.7,-19.34 1324.2,-29.34 1331.2,-29.34"/>
</a>
</g>
</g>
<!-- Node19&#45;&gt;Node20 -->
<g id="edge19_Node000019_Node000020" class="edge">
<title>Node19&#45;&gt;Node20</title>
<g id="a_edge19_Node000019_Node000020"><a xlink:title=" ">
<path fill="none" stroke="#63b8ff" d="M2372.83,-60.46C2381.17,-58.58 2389.64,-56.7 2397.7,-55 2467.6,-40.22 2549.77,-25.03 2595.47,-16.78"/>
<polygon fill="#63b8ff" stroke="#63b8ff" points="2596.24,-20.2 2605.46,-14.98 2595,-13.31 2596.24,-20.2"/>
</a>
</g>
</g>
<!-- Node21&#45;&gt;Node12 -->
<g id="edge22_Node000021_Node000012" class="edge">
<title>Node21&#45;&gt;Node12</title>
<g id="a_edge22_Node000021_Node000012"><a xlink:title=" ">
<path fill="none" stroke="#63b8ff" d="M2029.27,-60.45C1992.01,-48.93 1939.9,-32.82 1905.04,-22.04"/>
<polygon fill="#63b8ff" stroke="#63b8ff" points="1905.83,-18.63 1895.25,-19.02 1903.77,-25.32 1905.83,-18.63"/>
</a>
</g>
</g>
<!-- Node22 -->
<g id="Node000022" class="node">
<title>Node22</title>
<g id="a_Node000022"><a xlink:title=" ">
<polygon fill="#e0e0e0" stroke="#999999" points="2111.2,-19 2038.2,-19 2038.2,0 2111.2,0 2111.2,-19"/>
<text text-anchor="middle" x="2074.7" y="-7" font-family="Helvetica,sans-Serif" font-size="10.00">string_view</text>
</a>
</g>
</g>
<!-- Node21&#45;&gt;Node22 -->
<g id="edge21_Node000021_Node000022" class="edge">
<title>Node21&#45;&gt;Node22</title>
<g id="a_edge21_Node000021_Node000022"><a xlink:title=" ">
<path fill="none" stroke="#63b8ff" d="M2074.7,-60.3C2074.7,-51.2 2074.7,-39.29 2074.7,-29.4"/>
<polygon fill="#63b8ff" stroke="#63b8ff" points="2078.2,-29.34 2074.7,-19.34 2071.2,-29.34 2078.2,-29.34"/>
</a>
</g>
</g>
<!-- Node23&#45;&gt;Node12 -->
<g id="edge24_Node000023_Node000012" class="edge">
<title>Node23&#45;&gt;Node12</title>
<g id="a_edge24_Node000023_Node000012"><a xlink:title=" ">
<path fill="none" stroke="#63b8ff" d="M1560.03,-60.45C1569.64,-58.55 1579.41,-56.68 1588.7,-55 1669.12,-40.43 1763.05,-25.97 1818.84,-17.65"/>
<polygon fill="#63b8ff" stroke="#63b8ff" points="1819.42,-21.11 1828.8,-16.17 1818.39,-14.18 1819.42,-21.11"/>
</a>
</g>
</g>
<!-- Node24&#45;&gt;Node13 -->
<g id="edge26_Node000024_Node000013" class="edge">
<title>Node24&#45;&gt;Node13</title>
<g id="a_edge26_Node000024_Node000013"><a xlink:title=" ">
<path fill="none" stroke="#63b8ff" d="M98.94,-60.3C89.27,-50.32 76.33,-36.96 66.28,-26.59"/>
<polygon fill="#63b8ff" stroke="#63b8ff" points="68.74,-24.09 59.27,-19.34 63.71,-28.96 68.74,-24.09"/>
</a>
</g>
</g>
<!-- Node25&#45;&gt;Node12 -->
<g id="edge28_Node000025_Node000012" class="edge">
<title>Node25&#45;&gt;Node12</title>
<g id="a_edge28_Node000025_Node000012"><a xlink:title=" ">
<path fill="none" stroke="#63b8ff" d="M1867.7,-60.3C1867.7,-51.2 1867.7,-39.29 1867.7,-29.4"/>
<polygon fill="#63b8ff" stroke="#63b8ff" points="1871.2,-29.34 1867.7,-19.34 1864.2,-29.34 1871.2,-29.34"/>
</a>
</g>
</g>
<!-- Node26&#45;&gt;Node12 -->
<g id="edge30_Node000026_Node000012" class="edge">
<title>Node26&#45;&gt;Node12</title>
<g id="a_edge30_Node000026_Node000012"><a xlink:title=" ">
<path fill="none" stroke="#63b8ff" d="M1719.4,-60.45C1753.3,-49.03 1800.61,-33.1 1832.6,-22.32"/>
<polygon fill="#63b8ff" stroke="#63b8ff" points="1834.05,-25.53 1842.41,-19.02 1831.82,-18.89 1834.05,-25.53"/>
</a>
</g>
</g>
<!-- Node28&#45;&gt;Node15 -->
<g id="edge33_Node000028_Node000015" class="edge">
<title>Node28&#45;&gt;Node15</title>
<g id="a_edge33_Node000028_Node000015"><a xlink:title=" ">
<path fill="none" stroke="#63b8ff" d="M399.6,-60.3C392.04,-50.61 381.98,-37.74 373.99,-27.51"/>
<polygon fill="#63b8ff" stroke="#63b8ff" points="376.52,-25.07 367.61,-19.34 371.01,-29.38 376.52,-25.07"/>
</a>
</g>
</g>
<!-- Node34&#45;&gt;Node8 -->
<g id="edge49_Node000034_Node000008" class="edge">
<title>Node34&#45;&gt;Node8</title>
<g id="a_edge49_Node000034_Node000008"><a xlink:title=" ">
<path fill="none" stroke="#63b8ff" d="M1504.84,-211.02C1743.91,-206.98 2608.22,-190.52 2727.7,-162 2796.18,-145.65 2810.29,-130.42 2871.7,-96 2874.61,-94.37 2877.61,-92.54 2880.52,-90.67"/>
<polygon fill="#63b8ff" stroke="#63b8ff" points="2882.47,-93.58 2888.84,-85.11 2878.58,-87.76 2882.47,-93.58"/>
</a>
</g>
</g>
<!-- Node34&#45;&gt;Node11 -->
<g id="edge45_Node000034_Node000011" class="edge">
<title>Node34&#45;&gt;Node11</title>
<g id="a_edge45_Node000034_Node000011"><a xlink:title=" ">
<path fill="none" stroke="#63b8ff" d="M1454.57,-197.8C1460.79,-189.68 1468.72,-179.31 1475.74,-170.15"/>
<polygon fill="#63b8ff" stroke="#63b8ff" points="1478.55,-172.23 1481.85,-162.16 1473,-167.98 1478.55,-172.23"/>
</a>
</g>
</g>
<!-- Node35 -->
<g id="Node000035" class="node">
<title>Node35</title>
<g id="a_Node000035"><a xlink:title=" ">
<polygon fill="#e0e0e0" stroke="#999999" points="1277.2,-156.5 1224.2,-156.5 1224.2,-137.5 1277.2,-137.5 1277.2,-156.5"/>
<text text-anchor="middle" x="1250.7" y="-144.5" font-family="Helvetica,sans-Serif" font-size="10.00">cstddef</text>
</a>
</g>
</g>
<!-- Node34&#45;&gt;Node35 -->
<g id="edge46_Node000034_Node000035" class="edge">
<title>Node34&#45;&gt;Node35</title>
<g id="a_edge46_Node000034_Node000035"><a xlink:title=" ">
<path fill="none" stroke="#63b8ff" d="M1397.07,-197.99C1365.71,-188.36 1323.52,-175.01 1286.7,-162 1285.05,-161.42 1283.36,-160.81 1281.66,-160.18"/>
<polygon fill="#63b8ff" stroke="#63b8ff" points="1282.53,-156.77 1271.94,-156.51 1280.06,-163.32 1282.53,-156.77"/>
</a>
</g>
</g>
<!-- Node36 -->
<g id="Node000036" class="node">
<title>Node36</title>
<g id="a_Node000036"><a xlink:title=" ">
<polygon fill="#e0e0e0" stroke="#999999" points="1339.7,-156.5 1295.7,-156.5 1295.7,-137.5 1339.7,-137.5 1339.7,-156.5"/>
<text text-anchor="middle" x="1317.7" y="-144.5" font-family="Helvetica,sans-Serif" font-size="10.00">string</text>
</a>
</g>
</g>
<!-- Node34&#45;&gt;Node36 -->
<g id="edge47_Node000034_Node000036" class="edge">
<title>Node34&#45;&gt;Node36</title>
<g id="a_edge47_Node000034_Node000036"><a xlink:title=" ">
<path fill="none" stroke="#63b8ff" d="M1416.05,-197.95C1394.44,-186.98 1364.62,-171.83 1343.5,-161.11"/>
<polygon fill="#63b8ff" stroke="#63b8ff" points="1344.97,-157.93 1334.47,-156.52 1341.8,-164.17 1344.97,-157.93"/>
</a>
</g>
</g>
<!-- Node37 -->
<g id="Node000037" class="node">
<title>Node37</title>
<g id="a_Node000037"><a xlink:title=" ">
<polygon fill="#e0e0e0" stroke="#999999" points="1415.7,-156.5 1357.7,-156.5 1357.7,-137.5 1415.7,-137.5 1415.7,-156.5"/>
<text text-anchor="middle" x="1386.7" y="-144.5" font-family="Helvetica,sans-Serif" font-size="10.00">memory</text>
</a>
</g>
</g>
<!-- Node34&#45;&gt;Node37 -->
<g id="edge48_Node000034_Node000037" class="edge">
<title>Node34&#45;&gt;Node37</title>
<g id="a_edge48_Node000034_Node000037"><a xlink:title=" ">
<path fill="none" stroke="#63b8ff" d="M1431.05,-197.8C1422.25,-187.92 1410.5,-174.72 1401.3,-164.39"/>
<polygon fill="#63b8ff" stroke="#63b8ff" points="1403.84,-161.98 1394.58,-156.84 1398.61,-166.64 1403.84,-161.98"/>
</a>
</g>
</g>
</g>
</svg>
