<?xml version="1.0" encoding="UTF-8" standalone="no"?>
<!DOCTYPE svg PUBLIC "-//W3C//DTD SVG 1.1//EN"
 "http://www.w3.org/Graphics/SVG/1.1/DTD/svg11.dtd">
<!-- Generated by graphviz version 2.43.0 (0)
 -->
<!-- Title: include/Hermes/Socket/_base/Transfer/TlsTransferStateMachine.hpp Pages: 1 -->
<svg width="4184pt" height="445pt"
 viewBox="0.00 0.00 4184.35 445.00" xmlns="http://www.w3.org/2000/svg" xmlns:xlink="http://www.w3.org/1999/xlink">
<g id="graph0" class="graph" transform="scale(1 1) rotate(0) translate(4 441)">
<title>include/Hermes/Socket/_base/Transfer/TlsTransferStateMachine.hpp</title>
<!-- Node1 -->
<g id="Node000001" class="node">
<title>Node1</title>
<g id="a_Node000001"><a xlink:title=" ">
<polygon fill="#999999" stroke="#666666" points="3074,-437 2928,-437 2928,-396 3074,-396 3074,-437"/>
<text text-anchor="start" x="2936" y="-425" font-family="Helvetica,sans-Serif" font-size="10.00">include/Hermes/Socket</text>
<text text-anchor="start" x="2936" y="-414" font-family="Helvetica,sans-Serif" font-size="10.00">/_base/Transfer/TlsTransfer</text>
<text text-anchor="middle" x="3001" y="-403" font-family="Helvetica,sans-Serif" font-size="10.00">StateMachine.hpp</text>
</a>
</g>
</g>
<!-- Node2 -->
<g id="Node000002" class="node">
<title>Node2</title>
<g id="a_Node000002"><a xlink:href="__base_8hpp.html" target="_top" xlink:title=" ">
<polygon fill="white" stroke="#666666" points="1126.5,-283 983.5,-283 983.5,-264 1126.5,-264 1126.5,-283"/>
<text text-anchor="middle" x="1055" y="-271" font-family="Helvetica,sans-Serif" font-size="10.00">Hermes/Socket/_base.hpp</text>
</a>
</g>
</g>
<!-- Node1&#45;&gt;Node2 -->
<g id="edge1_Node000001_Node000002" class="edge">
<title>Node1&#45;&gt;Node2</title>
<g id="a_edge1_Node000001_Node000002"><a xlink:title=" ">
<path fill="none" stroke="#63b8ff" d="M2927.97,-412.37C2761.94,-405.06 2343.47,-385.53 1994,-360 1676.57,-336.81 1299.67,-299.53 1136.74,-282.93"/>
<polygon fill="#63b8ff" stroke="#63b8ff" points="1137.09,-279.45 1126.79,-281.92 1136.38,-286.42 1137.09,-279.45"/>
</a>
</g>
</g>
<!-- Node12 -->
<g id="Node000012" class="node">
<title>Node12</title>
<g id="a_Node000012"><a xlink:href="_win_api_8hpp.html" target="_top" xlink:title=" ">
<polygon fill="white" stroke="#666666" points="2571,-162 2447,-162 2447,-132 2571,-132 2571,-162"/>
<text text-anchor="start" x="2455" y="-150" font-family="Helvetica,sans-Serif" font-size="10.00">Hermes/_base/WinApi</text>
<text text-anchor="middle" x="2509" y="-139" font-family="Helvetica,sans-Serif" font-size="10.00">/WinApi.hpp</text>
</a>
</g>
</g>
<!-- Node1&#45;&gt;Node12 -->
<g id="edge58_Node000001_Node000012" class="edge">
<title>Node1&#45;&gt;Node12</title>
<g id="a_edge58_Node000001_Node000012"><a xlink:title=" ">
<path fill="none" stroke="#63b8ff" d="M2964.82,-395.83C2873.41,-346.13 2634.04,-215.99 2543.96,-167.01"/>
<polygon fill="#63b8ff" stroke="#63b8ff" points="2545.43,-163.82 2534.97,-162.12 2542.08,-169.97 2545.43,-163.82"/>
</a>
</g>
</g>
<!-- Node42 -->
<g id="Node000042" class="node">
<title>Node42</title>
<g id="a_Node000042"><a xlink:href="_i_tls_transfer_state_machine_8hpp.html" target="_top" xlink:title=" ">
<polygon fill="white" stroke="#666666" points="2145.5,-360 2002.5,-360 2002.5,-319 2145.5,-319 2145.5,-360"/>
<text text-anchor="start" x="2010.5" y="-348" font-family="Helvetica,sans-Serif" font-size="10.00">Hermes/Socket/_base</text>
<text text-anchor="start" x="2010.5" y="-337" font-family="Helvetica,sans-Serif" font-size="10.00">/Transfer/ITlsTransferState</text>
<text text-anchor="middle" x="2074" y="-326" font-family="Helvetica,sans-Serif" font-size="10.00">Machine.hpp</text>
</a>
</g>
</g>
<!-- Node1&#45;&gt;Node42 -->
<g id="edge59_Node000001_Node000042" class="edge">
<title>Node1&#45;&gt;Node42</title>
<g id="a_edge59_Node000001_Node000042"><a xlink:title=" ">
<path fill="none" stroke="#63b8ff" d="M2927.87,-409.58C2757.39,-395.79 2334.53,-361.58 2155.81,-347.12"/>
<polygon fill="#63b8ff" stroke="#63b8ff" points="2155.93,-343.62 2145.69,-346.3 2155.37,-350.59 2155.93,-343.62"/>
</a>
</g>
</g>
<!-- Node43 -->
<g id="Node000043" class="node">
<title>Node43</title>
<g id="a_Node000043"><a xlink:title=" ">
<polygon fill="#e0e0e0" stroke="#999999" points="3401,-360 3261,-360 3261,-319 3401,-319 3401,-360"/>
<text text-anchor="start" x="3269" y="-348" font-family="Helvetica,sans-Serif" font-size="10.00">Hermes/Socket/_base</text>
<text text-anchor="start" x="3269" y="-337" font-family="Helvetica,sans-Serif" font-size="10.00">/Transfer/TlsTransferState</text>
<text text-anchor="middle" x="3331" y="-326" font-family="Helvetica,sans-Serif" font-size="10.00">Machine.tpp</text>
</a>
</g>
</g>
<!-- Node1&#45;&gt;Node43 -->
<g id="edge63_Node000001_Node000043" class="edge">
<title>Node1&#45;&gt;Node43</title>
<g id="a_edge63_Node000001_Node000043"><a xlink:title=" ">
<path fill="none" stroke="#63b8ff" d="M3074.22,-399.1C3123.16,-388.12 3188.96,-373.28 3247,-360 3248.27,-359.71 3249.56,-359.41 3250.85,-359.12"/>
<polygon fill="#63b8ff" stroke="#63b8ff" points="3251.92,-362.46 3260.88,-356.81 3250.35,-355.64 3251.92,-362.46"/>
</a>
</g>
</g>
<!-- Node3 -->
<g id="Node000003" class="node">
<title>Node3</title>
<g id="a_Node000003"><a xlink:href="_endpoint_concept_8hpp.html" target="_top" xlink:title=" ">
<polygon fill="white" stroke="#666666" points="1121,-228 989,-228 989,-198 1121,-198 1121,-228"/>
<text text-anchor="start" x="997" y="-216" font-family="Helvetica,sans-Serif" font-size="10.00">Hermes/Endpoint/_base</text>
<text text-anchor="middle" x="1055" y="-205" font-family="Helvetica,sans-Serif" font-size="10.00">/EndpointConcept.hpp</text>
</a>
</g>
</g>
<!-- Node2&#45;&gt;Node3 -->
<g id="edge2_Node000002_Node000003" class="edge">
<title>Node2&#45;&gt;Node3</title>
<g id="a_edge2_Node000002_Node000003"><a xlink:title=" ">
<path fill="none" stroke="#63b8ff" d="M1055,-263.87C1055,-257.11 1055,-247.35 1055,-238.26"/>
<polygon fill="#63b8ff" stroke="#63b8ff" points="1058.5,-238.11 1055,-228.11 1051.5,-238.11 1058.5,-238.11"/>
</a>
</g>
</g>
<!-- Node4 -->
<g id="Node000004" class="node">
<title>Node4</title>
<g id="a_Node000004"><a xlink:href="_connection_error_enum_8hpp.html" target="_top" xlink:title=" ">
<polygon fill="white" stroke="#666666" points="552.5,-162 385.5,-162 385.5,-132 552.5,-132 552.5,-162"/>
<text text-anchor="start" x="393.5" y="-150" font-family="Helvetica,sans-Serif" font-size="10.00">Hermes/_base/ConnectionError</text>
<text text-anchor="middle" x="469" y="-139" font-family="Helvetica,sans-Serif" font-size="10.00">Enum.hpp</text>
</a>
</g>
</g>
<!-- Node2&#45;&gt;Node4 -->
<g id="edge54_Node000002_Node000004" class="edge">
<title>Node2&#45;&gt;Node4</title>
<g id="a_edge54_Node000002_Node000004"><a xlink:title=" ">
<path fill="none" stroke="#63b8ff" d="M1039.11,-263.88C1023.67,-255.32 999.72,-241.54 980,-228 962.26,-215.82 961.93,-206.12 942,-198 875.4,-170.87 680.47,-157.51 562.67,-151.74"/>
<polygon fill="#63b8ff" stroke="#63b8ff" points="562.73,-148.24 552.57,-151.26 562.39,-155.24 562.73,-148.24"/>
</a>
</g>
</g>
<!-- Node9 -->
<g id="Node000009" class="node">
<title>Node9</title>
<g id="a_Node000009"><a xlink:title=" ">
<polygon fill="#e0e0e0" stroke="#999999" points="695.5,-85 570.5,-85 570.5,-66 695.5,-66 695.5,-85"/>
<text text-anchor="middle" x="633" y="-73" font-family="Helvetica,sans-Serif" font-size="10.00">stdexec/execution.hpp</text>
</a>
</g>
</g>
<!-- Node2&#45;&gt;Node9 -->
<g id="edge55_Node000002_Node000009" class="edge">
<title>Node2&#45;&gt;Node9</title>
<g id="a_edge55_Node000002_Node000009"><a xlink:title=" ">
<path fill="none" stroke="#63b8ff" d="M1082.65,-263.98C1099.58,-257.17 1119.89,-245.76 1130,-228 1136.6,-216.41 1138.25,-208.47 1130,-198 1009.73,-45.45 893.21,-144.06 705,-96 694.84,-93.4 683.9,-90.5 673.69,-87.74"/>
<polygon fill="#63b8ff" stroke="#63b8ff" points="674.35,-84.29 663.78,-85.05 672.51,-91.05 674.35,-84.29"/>
</a>
</g>
</g>
<!-- Node40 -->
<g id="Node000040" class="node">
<title>Node40</title>
<g id="a_Node000040"><a xlink:title=" ">
<polygon fill="#e0e0e0" stroke="#999999" points="865,-222.5 805,-222.5 805,-203.5 865,-203.5 865,-222.5"/>
<text text-anchor="middle" x="835" y="-210.5" font-family="Helvetica,sans-Serif" font-size="10.00">concepts</text>
</a>
</g>
</g>
<!-- Node2&#45;&gt;Node40 -->
<g id="edge56_Node000002_Node000040" class="edge">
<title>Node2&#45;&gt;Node40</title>
<g id="a_edge56_Node000002_Node000040"><a xlink:title=" ">
<path fill="none" stroke="#63b8ff" d="M1015.13,-263.95C978.25,-255.74 922.02,-242.48 874,-228 871.73,-227.32 869.41,-226.58 867.07,-225.81"/>
<polygon fill="#63b8ff" stroke="#63b8ff" points="868.15,-222.48 857.55,-222.54 865.88,-229.1 868.15,-222.48"/>
</a>
</g>
</g>
<!-- Node41 -->
<g id="Node000041" class="node">
<title>Node41</title>
<g id="a_Node000041"><a xlink:title=" ">
<polygon fill="#e0e0e0" stroke="#999999" points="933,-222.5 883,-222.5 883,-203.5 933,-203.5 933,-222.5"/>
<text text-anchor="middle" x="908" y="-210.5" font-family="Helvetica,sans-Serif" font-size="10.00">ranges</text>
</a>
</g>
</g>
<!-- Node2&#45;&gt;Node41 -->
<g id="edge57_Node000002_Node000041" class="edge">
<title>Node2&#45;&gt;Node41</title>
<g id="a_edge57_Node000002_Node000041"><a xlink:title=" ">
<path fill="none" stroke="#63b8ff" d="M1033.62,-263.99C1008.69,-254.07 967.28,-237.59 938.86,-226.28"/>
<polygon fill="#63b8ff" stroke="#63b8ff" points="939.99,-222.96 929.4,-222.52 937.4,-229.47 939.99,-222.96"/>
</a>
</g>
</g>
<!-- Node3&#45;&gt;Node4 -->
<g id="edge3_Node000003_Node000004" class="edge">
<title>Node3&#45;&gt;Node4</title>
<g id="a_edge3_Node000003_Node000004"><a xlink:title=" ">
<path fill="none" stroke="#63b8ff" d="M988.71,-200.01C984.07,-199.29 979.47,-198.61 975,-198 831.89,-178.43 665,-163.45 563.19,-155.19"/>
<polygon fill="#63b8ff" stroke="#63b8ff" points="563.19,-151.68 552.94,-154.36 562.63,-158.65 563.19,-151.68"/>
</a>
</g>
</g>
<!-- Node3&#45;&gt;Node12 -->
<g id="edge11_Node000003_Node000012" class="edge">
<title>Node3&#45;&gt;Node12</title>
<g id="a_edge11_Node000003_Node000012"><a xlink:title=" ">
<path fill="none" stroke="#63b8ff" d="M1121.25,-209.08C1361.67,-198.5 2187.07,-162.17 2436.83,-151.18"/>
<polygon fill="#63b8ff" stroke="#63b8ff" points="2437.05,-154.67 2446.88,-150.73 2436.74,-147.68 2437.05,-154.67"/>
</a>
</g>
</g>
<!-- Node5 -->
<g id="Node000005" class="node">
<title>Node5</title>
<g id="a_Node000005"><a xlink:title=" ">
<polygon fill="#e0e0e0" stroke="#999999" points="62,-85 0,-85 0,-66 62,-66 62,-85"/>
<text text-anchor="middle" x="31" y="-73" font-family="Helvetica,sans-Serif" font-size="10.00">expected</text>
</a>
</g>
</g>
<!-- Node4&#45;&gt;Node5 -->
<g id="edge4_Node000004_Node000005" class="edge">
<title>Node4&#45;&gt;Node5</title>
<g id="a_edge4_Node000004_Node000005"><a xlink:title=" ">
<path fill="none" stroke="#63b8ff" d="M385.43,-143.45C303.75,-139.11 176.63,-127.44 71,-96 65.68,-94.42 60.19,-92.18 55.05,-89.79"/>
<polygon fill="#63b8ff" stroke="#63b8ff" points="56.23,-86.47 45.72,-85.12 53.1,-92.73 56.23,-86.47"/>
</a>
</g>
</g>
<!-- Node6 -->
<g id="Node000006" class="node">
<title>Node6</title>
<g id="a_Node000006"><a xlink:title=" ">
<polygon fill="#e0e0e0" stroke="#999999" points="127.5,-85 80.5,-85 80.5,-66 127.5,-66 127.5,-85"/>
<text text-anchor="middle" x="104" y="-73" font-family="Helvetica,sans-Serif" font-size="10.00">vector</text>
</a>
</g>
</g>
<!-- Node4&#45;&gt;Node6 -->
<g id="edge5_Node000004_Node000006" class="edge">
<title>Node4&#45;&gt;Node6</title>
<g id="a_edge5_Node000004_Node000006"><a xlink:title=" ">
<path fill="none" stroke="#63b8ff" d="M385.33,-142.62C316.59,-137.7 217.61,-125.62 136,-96 132.05,-94.57 128.06,-92.62 124.3,-90.5"/>
<polygon fill="#63b8ff" stroke="#63b8ff" points="125.93,-87.39 115.58,-85.11 122.24,-93.35 125.93,-87.39"/>
</a>
</g>
</g>
<!-- Node7 -->
<g id="Node000007" class="node">
<title>Node7</title>
<g id="a_Node000007"><a xlink:title=" ">
<polygon fill="#e0e0e0" stroke="#999999" points="754,-85 714,-85 714,-66 754,-66 754,-85"/>
<text text-anchor="middle" x="734" y="-73" font-family="Helvetica,sans-Serif" font-size="10.00">span</text>
</a>
</g>
</g>
<!-- Node4&#45;&gt;Node7 -->
<g id="edge6_Node000004_Node000007" class="edge">
<title>Node4&#45;&gt;Node7</title>
<g id="a_edge6_Node000004_Node000007"><a xlink:title=" ">
<path fill="none" stroke="#63b8ff" d="M552.72,-136.24C598.93,-128.9 656.6,-116.49 705,-96 708.34,-94.59 711.71,-92.77 714.9,-90.81"/>
<polygon fill="#63b8ff" stroke="#63b8ff" points="716.95,-93.65 723.28,-85.16 713.03,-87.85 716.95,-93.65"/>
</a>
</g>
</g>
<!-- Node8 -->
<g id="Node000008" class="node">
<title>Node8</title>
<g id="a_Node000008"><a xlink:title=" ">
<polygon fill="#e0e0e0" stroke="#999999" points="214.5,-85 145.5,-85 145.5,-66 214.5,-66 214.5,-85"/>
<text text-anchor="middle" x="180" y="-73" font-family="Helvetica,sans-Serif" font-size="10.00">type_traits</text>
</a>
</g>
</g>
<!-- Node4&#45;&gt;Node8 -->
<g id="edge7_Node000004_Node000008" class="edge">
<title>Node4&#45;&gt;Node8</title>
<g id="a_edge7_Node000004_Node000008"><a xlink:title=" ">
<path fill="none" stroke="#63b8ff" d="M385.35,-133.54C337.46,-125.26 276.62,-112.81 224,-96 218.19,-94.14 212.11,-91.76 206.39,-89.3"/>
<polygon fill="#63b8ff" stroke="#63b8ff" points="207.78,-86.08 197.22,-85.17 204.9,-92.47 207.78,-86.08"/>
</a>
</g>
</g>
<!-- Node4&#45;&gt;Node9 -->
<g id="edge8_Node000004_Node000009" class="edge">
<title>Node4&#45;&gt;Node9</title>
<g id="a_edge8_Node000004_Node000009"><a xlink:title=" ">
<path fill="none" stroke="#63b8ff" d="M502.19,-131.94C531.83,-119.38 574.84,-101.15 603.35,-89.07"/>
<polygon fill="#63b8ff" stroke="#63b8ff" points="604.94,-92.19 612.78,-85.07 602.21,-85.75 604.94,-92.19"/>
</a>
</g>
</g>
<!-- Node10 -->
<g id="Node000010" class="node">
<title>Node10</title>
<g id="a_Node000010"><a xlink:title=" ">
<polygon fill="#e0e0e0" stroke="#999999" points="367,-85 233,-85 233,-66 367,-66 367,-85"/>
<text text-anchor="middle" x="300" y="-73" font-family="Helvetica,sans-Serif" font-size="10.00">exec/any_sender_of.hpp</text>
</a>
</g>
</g>
<!-- Node4&#45;&gt;Node10 -->
<g id="edge9_Node000004_Node000010" class="edge">
<title>Node4&#45;&gt;Node10</title>
<g id="a_edge9_Node000004_Node000010"><a xlink:title=" ">
<path fill="none" stroke="#63b8ff" d="M434.8,-131.94C404.12,-119.32 359.54,-100.99 330.17,-88.91"/>
<polygon fill="#63b8ff" stroke="#63b8ff" points="331.41,-85.63 320.83,-85.07 328.75,-92.11 331.41,-85.63"/>
</a>
</g>
</g>
<!-- Node11 -->
<g id="Node000011" class="node">
<title>Node11</title>
<g id="a_Node000011"><a xlink:title=" ">
<polygon fill="#e0e0e0" stroke="#999999" points="552.5,-90.5 385.5,-90.5 385.5,-60.5 552.5,-60.5 552.5,-90.5"/>
<text text-anchor="start" x="393.5" y="-78.5" font-family="Helvetica,sans-Serif" font-size="10.00">Hermes/_base/ConnectionError</text>
<text text-anchor="middle" x="469" y="-67.5" font-family="Helvetica,sans-Serif" font-size="10.00">Enum.tpp</text>
</a>
</g>
</g>
<!-- Node4&#45;&gt;Node11 -->
<g id="edge10_Node000004_Node000011" class="edge">
<title>Node4&#45;&gt;Node11</title>
<g id="a_edge10_Node000004_Node000011"><a xlink:title=" ">
<path fill="none" stroke="#63b8ff" d="M469,-131.94C469,-122.99 469,-111.16 469,-100.73"/>
<polygon fill="#63b8ff" stroke="#63b8ff" points="472.5,-100.54 469,-90.54 465.5,-100.54 472.5,-100.54"/>
</a>
</g>
</g>
<!-- Node13 -->
<g id="Node000013" class="node">
<title>Node13</title>
<g id="a_Node000013"><a xlink:title=" ">
<polygon fill="#e0e0e0" stroke="#999999" points="2475.5,-85 2406.5,-85 2406.5,-66 2475.5,-66 2475.5,-85"/>
<text text-anchor="middle" x="2441" y="-73" font-family="Helvetica,sans-Serif" font-size="10.00">ws2tcpip.h</text>
</a>
</g>
</g>
<!-- Node12&#45;&gt;Node13 -->
<g id="edge12_Node000012_Node000013" class="edge">
<title>Node12&#45;&gt;Node13</title>
<g id="a_edge12_Node000012_Node000013"><a xlink:title=" ">
<path fill="none" stroke="#63b8ff" d="M2495.24,-131.94C2484.14,-120.59 2468.52,-104.62 2456.89,-92.74"/>
<polygon fill="#63b8ff" stroke="#63b8ff" points="2459.07,-89.97 2449.58,-85.27 2454.07,-94.86 2459.07,-89.97"/>
</a>
</g>
</g>
<!-- Node14 -->
<g id="Node000014" class="node">
<title>Node14</title>
<g id="a_Node000014"><a xlink:title=" ">
<polygon fill="#e0e0e0" stroke="#999999" points="3091.5,-19 3020.5,-19 3020.5,0 3091.5,0 3091.5,-19"/>
<text text-anchor="middle" x="3056" y="-7" font-family="Helvetica,sans-Serif" font-size="10.00">winsock2.h</text>
</a>
</g>
</g>
<!-- Node12&#45;&gt;Node14 -->
<g id="edge13_Node000012_Node000014" class="edge">
<title>Node12&#45;&gt;Node14</title>
<g id="a_edge13_Node000012_Node000014"><a xlink:title=" ">
<path fill="none" stroke="#63b8ff" d="M2571.26,-144.16C2703.41,-139.68 3002.7,-126.28 3037,-96 3055.68,-79.51 3058.23,-49.11 3057.65,-29.35"/>
<polygon fill="#63b8ff" stroke="#63b8ff" points="3061.13,-28.91 3057.04,-19.14 3054.14,-29.33 3061.13,-28.91"/>
</a>
</g>
</g>
<!-- Node15 -->
<g id="Node000015" class="node">
<title>Node15</title>
<g id="a_Node000015"><a xlink:title=" ">
<polygon fill="#e0e0e0" stroke="#999999" points="1226,-85 1176,-85 1176,-66 1226,-66 1226,-85"/>
<text text-anchor="middle" x="1201" y="-73" font-family="Helvetica,sans-Serif" font-size="10.00">ntdef.h</text>
</a>
</g>
</g>
<!-- Node12&#45;&gt;Node15 -->
<g id="edge14_Node000012_Node000015" class="edge">
<title>Node12&#45;&gt;Node15</title>
<g id="a_edge14_Node000012_Node000015"><a xlink:title=" ">
<path fill="none" stroke="#63b8ff" d="M2446.63,-145.3C2206.84,-142.36 1351.87,-129.6 1235,-96 1230.39,-94.67 1225.74,-92.6 1221.42,-90.29"/>
<polygon fill="#63b8ff" stroke="#63b8ff" points="1223.02,-87.17 1212.64,-85.05 1219.43,-93.18 1223.02,-87.17"/>
</a>
</g>
</g>
<!-- Node16 -->
<g id="Node000016" class="node">
<title>Node16</title>
<g id="a_Node000016"><a xlink:title=" ">
<polygon fill="#e0e0e0" stroke="#999999" points="3670.5,-19 3601.5,-19 3601.5,0 3670.5,0 3670.5,-19"/>
<text text-anchor="middle" x="3636" y="-7" font-family="Helvetica,sans-Serif" font-size="10.00">schannel.h</text>
</a>
</g>
</g>
<!-- Node12&#45;&gt;Node16 -->
<g id="edge15_Node000012_Node000016" class="edge">
<title>Node12&#45;&gt;Node16</title>
<g id="a_edge15_Node000012_Node000016"><a xlink:title=" ">
<path fill="none" stroke="#63b8ff" d="M2571.16,-145.27C2798.93,-142.32 3576.75,-129.81 3617,-96 3636.17,-79.9 3638.54,-49.16 3637.79,-29.25"/>
<polygon fill="#63b8ff" stroke="#63b8ff" points="3641.28,-28.97 3637.12,-19.23 3634.3,-29.44 3641.28,-28.97"/>
</a>
</g>
</g>
<!-- Node17 -->
<g id="Node000017" class="node">
<title>Node17</title>
<g id="a_Node000017"><a xlink:title=" ">
<polygon fill="#e0e0e0" stroke="#999999" points="2468.5,-19 2423.5,-19 2423.5,0 2468.5,0 2468.5,-19"/>
<text text-anchor="middle" x="2446" y="-7" font-family="Helvetica,sans-Serif" font-size="10.00">sspi.h</text>
</a>
</g>
</g>
<!-- Node12&#45;&gt;Node17 -->
<g id="edge16_Node000012_Node000017" class="edge">
<title>Node12&#45;&gt;Node17</title>
<g id="a_edge16_Node000012_Node000017"><a xlink:title=" ">
<path fill="none" stroke="#63b8ff" d="M2446.78,-145.87C2292.71,-144.89 1903.07,-138.22 1864,-96 1851.62,-82.63 1851.62,-68.37 1864,-55 1901.48,-14.54 2296.11,-10.71 2413.34,-10.47"/>
<polygon fill="#63b8ff" stroke="#63b8ff" points="2413.49,-13.97 2423.49,-10.46 2413.48,-6.97 2413.49,-13.97"/>
</a>
</g>
</g>
<!-- Node18 -->
<g id="Node000018" class="node">
<title>Node18</title>
<g id="a_Node000018"><a xlink:href="_conversion_and_literals_8hpp.html" target="_top" xlink:title=" ">
<polygon fill="white" stroke="#666666" points="4160,-90.5 4010,-90.5 4010,-60.5 4160,-60.5 4160,-90.5"/>
<text text-anchor="start" x="4018" y="-78.5" font-family="Helvetica,sans-Serif" font-size="10.00">Hermes/_base/WinApi</text>
<text text-anchor="middle" x="4085" y="-67.5" font-family="Helvetica,sans-Serif" font-size="10.00">/ConversionAndLiterals.hpp</text>
</a>
</g>
</g>
<!-- Node12&#45;&gt;Node18 -->
<g id="edge17_Node000012_Node000018" class="edge">
<title>Node12&#45;&gt;Node18</title>
<g id="a_edge17_Node000012_Node000018"><a xlink:title=" ">
<path fill="none" stroke="#63b8ff" d="M2571.19,-145.53C2816.56,-143.42 3717.86,-133.25 4001,-96 4007.68,-95.12 4014.61,-93.95 4021.49,-92.61"/>
<polygon fill="#63b8ff" stroke="#63b8ff" points="4022.42,-95.99 4031.51,-90.55 4021.01,-89.14 4022.42,-95.99"/>
</a>
</g>
</g>
<!-- Node20 -->
<g id="Node000020" class="node">
<title>Node20</title>
<g id="a_Node000020"><a xlink:href="_macros_8hpp.html" target="_top" xlink:title=" ">
<polygon fill="white" stroke="#666666" points="3208,-90.5 3084,-90.5 3084,-60.5 3208,-60.5 3208,-90.5"/>
<text text-anchor="start" x="3092" y="-78.5" font-family="Helvetica,sans-Serif" font-size="10.00">Hermes/_base/WinApi</text>
<text text-anchor="middle" x="3146" y="-67.5" font-family="Helvetica,sans-Serif" font-size="10.00">/Macros.hpp</text>
</a>
</g>
</g>
<!-- Node12&#45;&gt;Node20 -->
<g id="edge19_Node000012_Node000020" class="edge">
<title>Node12&#45;&gt;Node20</title>
<g id="a_edge19_Node000012_Node000020"><a xlink:title=" ">
<path fill="none" stroke="#63b8ff" d="M2571.27,-143.75C2675.25,-139.26 2890.51,-126.82 3070,-96 3075.29,-95.09 3080.74,-94 3086.2,-92.81"/>
<polygon fill="#63b8ff" stroke="#63b8ff" points="3087,-96.21 3095.96,-90.56 3085.43,-89.39 3087,-96.21"/>
</a>
</g>
</g>
<!-- Node22 -->
<g id="Node000022" class="node">
<title>Node22</title>
<g id="a_Node000022"><a xlink:href="_address_family_enum_8hpp.html" target="_top" xlink:title=" ">
<polygon fill="white" stroke="#666666" points="948,-90.5 772,-90.5 772,-60.5 948,-60.5 948,-90.5"/>
<text text-anchor="start" x="780" y="-78.5" font-family="Helvetica,sans-Serif" font-size="10.00">Hermes/_base/WinApi</text>
<text text-anchor="middle" x="860" y="-67.5" font-family="Helvetica,sans-Serif" font-size="10.00">/Enums/AddressFamilyEnum.hpp</text>
</a>
</g>
</g>
<!-- Node12&#45;&gt;Node22 -->
<g id="edge24_Node000012_Node000022" class="edge">
<title>Node12&#45;&gt;Node22</title>
<g id="a_edge24_Node000012_Node000022"><a xlink:title=" ">
<path fill="none" stroke="#63b8ff" d="M2446.96,-145.36C2195.83,-142.56 1253.92,-129.98 958,-96 949.7,-95.05 941.06,-93.76 932.49,-92.31"/>
<polygon fill="#63b8ff" stroke="#63b8ff" points="932.95,-88.83 922.49,-90.52 931.73,-95.72 932.95,-88.83"/>
</a>
</g>
</g>
<!-- Node24 -->
<g id="Node000024" class="node">
<title>Node24</title>
<g id="a_Node000024"><a xlink:href="_condition_function_enum_8hpp.html" target="_top" xlink:title=" ">
<polygon fill="white" stroke="#666666" points="1436,-90.5 1244,-90.5 1244,-60.5 1436,-60.5 1436,-90.5"/>
<text text-anchor="start" x="1252" y="-78.5" font-family="Helvetica,sans-Serif" font-size="10.00">Hermes/_base/WinApi</text>
<text text-anchor="middle" x="1340" y="-67.5" font-family="Helvetica,sans-Serif" font-size="10.00">/Enums/ConditionFunctionEnum.hpp</text>
</a>
</g>
</g>
<!-- Node12&#45;&gt;Node24 -->
<g id="edge26_Node000012_Node000024" class="edge">
<title>Node12&#45;&gt;Node24</title>
<g id="a_edge26_Node000012_Node000024"><a xlink:title=" ">
<path fill="none" stroke="#63b8ff" d="M2446.76,-146C2282.57,-145.36 1824.33,-139.5 1446,-96 1437.13,-94.98 1427.88,-93.66 1418.7,-92.19"/>
<polygon fill="#63b8ff" stroke="#63b8ff" points="1419.23,-88.73 1408.79,-90.55 1418.08,-95.64 1419.23,-88.73"/>
</a>
</g>
</g>
<!-- Node26 -->
<g id="Node000026" class="node">
<title>Node26</title>
<g id="a_Node000026"><a xlink:href="_encrypt_status_enum_8hpp.html" target="_top" xlink:title=" ">
<polygon fill="white" stroke="#666666" points="3398,-90.5 3226,-90.5 3226,-60.5 3398,-60.5 3398,-90.5"/>
<text text-anchor="start" x="3234" y="-78.5" font-family="Helvetica,sans-Serif" font-size="10.00">Hermes/_base/WinApi</text>
<text text-anchor="middle" x="3312" y="-67.5" font-family="Helvetica,sans-Serif" font-size="10.00">/Enums/EncryptStatusEnum.hpp</text>
</a>
</g>
</g>
<!-- Node12&#45;&gt;Node26 -->
<g id="edge28_Node000012_Node000026" class="edge">
<title>Node12&#45;&gt;Node26</title>
<g id="a_edge28_Node000012_Node000026"><a xlink:title=" ">
<path fill="none" stroke="#63b8ff" d="M2571.32,-144.36C2694.96,-140.5 2979.87,-128.57 3217,-96 3224.36,-94.99 3232.01,-93.75 3239.63,-92.38"/>
<polygon fill="#63b8ff" stroke="#63b8ff" points="3240.41,-95.8 3249.6,-90.53 3239.13,-88.92 3240.41,-95.8"/>
</a>
</g>
</g>
<!-- Node28 -->
<g id="Node000028" class="node">
<title>Node28</title>
<g id="a_Node000028"><a xlink:href="_protocol_base_type_enum_8hpp.html" target="_top" xlink:title=" ">
<polygon fill="white" stroke="#666666" points="1157.5,-90.5 966.5,-90.5 966.5,-60.5 1157.5,-60.5 1157.5,-90.5"/>
<text text-anchor="start" x="974.5" y="-78.5" font-family="Helvetica,sans-Serif" font-size="10.00">Hermes/_base/WinApi</text>
<text text-anchor="middle" x="1062" y="-67.5" font-family="Helvetica,sans-Serif" font-size="10.00">/Enums/ProtocolBaseTypeEnum.hpp</text>
</a>
</g>
</g>
<!-- Node12&#45;&gt;Node28 -->
<g id="edge30_Node000012_Node000028" class="edge">
<title>Node12&#45;&gt;Node28</title>
<g id="a_edge30_Node000012_Node000028"><a xlink:title=" ">
<path fill="none" stroke="#63b8ff" d="M2446.95,-144.9C2217.89,-140.63 1420.02,-124.06 1167,-96 1158,-95 1148.61,-93.68 1139.31,-92.18"/>
<polygon fill="#63b8ff" stroke="#63b8ff" points="1139.72,-88.7 1129.28,-90.5 1138.57,-95.6 1139.72,-88.7"/>
</a>
</g>
</g>
<!-- Node29 -->
<g id="Node000029" class="node">
<title>Node29</title>
<g id="a_Node000029"><a xlink:href="_s_ch_cred_enum_8hpp.html" target="_top" xlink:title=" ">
<polygon fill="white" stroke="#666666" points="3810,-90.5 3664,-90.5 3664,-60.5 3810,-60.5 3810,-90.5"/>
<text text-anchor="start" x="3672" y="-78.5" font-family="Helvetica,sans-Serif" font-size="10.00">Hermes/_base/WinApi</text>
<text text-anchor="middle" x="3737" y="-67.5" font-family="Helvetica,sans-Serif" font-size="10.00">/Enums/SChCredEnum.hpp</text>
</a>
</g>
</g>
<!-- Node12&#45;&gt;Node29 -->
<g id="edge32_Node000012_Node000029" class="edge">
<title>Node12&#45;&gt;Node29</title>
<g id="a_edge32_Node000012_Node000029"><a xlink:title=" ">
<path fill="none" stroke="#63b8ff" d="M2571.17,-144.72C2777.53,-140.26 3438.71,-124.08 3650,-96 3656.8,-95.1 3663.86,-93.92 3670.88,-92.59"/>
<polygon fill="#63b8ff" stroke="#63b8ff" points="3671.98,-95.94 3681.1,-90.56 3670.61,-89.08 3671.98,-95.94"/>
</a>
</g>
</g>
<!-- Node30 -->
<g id="Node000030" class="node">
<title>Node30</title>
<g id="a_Node000030"><a xlink:href="_security_buffer_enum_8hpp.html" target="_top" xlink:title=" ">
<polygon fill="white" stroke="#666666" points="2045.5,-90.5 1872.5,-90.5 1872.5,-60.5 2045.5,-60.5 2045.5,-90.5"/>
<text text-anchor="start" x="1880.5" y="-78.5" font-family="Helvetica,sans-Serif" font-size="10.00">Hermes/_base/WinApi</text>
<text text-anchor="middle" x="1959" y="-67.5" font-family="Helvetica,sans-Serif" font-size="10.00">/Enums/SecurityBufferEnum.hpp</text>
</a>
</g>
</g>
<!-- Node12&#45;&gt;Node30 -->
<g id="edge34_Node000012_Node000030" class="edge">
<title>Node12&#45;&gt;Node30</title>
<g id="a_edge34_Node000012_Node000030"><a xlink:title=" ">
<path fill="none" stroke="#63b8ff" d="M2446.71,-140.94C2359.01,-133.41 2194.26,-117.77 2055,-96 2048.23,-94.94 2041.21,-93.73 2034.18,-92.45"/>
<polygon fill="#63b8ff" stroke="#63b8ff" points="2034.4,-88.93 2023.92,-90.52 2033.1,-95.81 2034.4,-88.93"/>
</a>
</g>
</g>
<!-- Node31 -->
<g id="Node000031" class="node">
<title>Node31</title>
<g id="a_Node000031"><a xlink:href="_socket_shutdown_enum_8hpp.html" target="_top" xlink:title=" ">
<polygon fill="white" stroke="#666666" points="1816.5,-90.5 1631.5,-90.5 1631.5,-60.5 1816.5,-60.5 1816.5,-90.5"/>
<text text-anchor="start" x="1639.5" y="-78.5" font-family="Helvetica,sans-Serif" font-size="10.00">Hermes/_base/WinApi</text>
<text text-anchor="middle" x="1724" y="-67.5" font-family="Helvetica,sans-Serif" font-size="10.00">/Enums/SocketShutdownEnum.hpp</text>
</a>
</g>
</g>
<!-- Node12&#45;&gt;Node31 -->
<g id="edge36_Node000012_Node000031" class="edge">
<title>Node12&#45;&gt;Node31</title>
<g id="a_edge36_Node000012_Node000031"><a xlink:title=" ">
<path fill="none" stroke="#63b8ff" d="M2446.98,-143.69C2327.29,-138.72 2056.27,-125.06 1830,-96 1821.66,-94.93 1812.99,-93.63 1804.35,-92.23"/>
<polygon fill="#63b8ff" stroke="#63b8ff" points="1804.69,-88.73 1794.25,-90.53 1803.53,-95.64 1804.69,-88.73"/>
</a>
</g>
</g>
<!-- Node32 -->
<g id="Node000032" class="node">
<title>Node32</title>
<g id="a_Node000032"><a xlink:href="_socket_type_enum_8hpp.html" target="_top" xlink:title=" ">
<polygon fill="white" stroke="#666666" points="1613.5,-90.5 1454.5,-90.5 1454.5,-60.5 1613.5,-60.5 1613.5,-90.5"/>
<text text-anchor="start" x="1462.5" y="-78.5" font-family="Helvetica,sans-Serif" font-size="10.00">Hermes/_base/WinApi</text>
<text text-anchor="middle" x="1534" y="-67.5" font-family="Helvetica,sans-Serif" font-size="10.00">/Enums/SocketTypeEnum.hpp</text>
</a>
</g>
</g>
<!-- Node12&#45;&gt;Node32 -->
<g id="edge38_Node000012_Node000032" class="edge">
<title>Node12&#45;&gt;Node32</title>
<g id="a_edge38_Node000012_Node000032"><a xlink:title=" ">
<path fill="none" stroke="#63b8ff" d="M2446.91,-145.89C2301.95,-144.89 1930.19,-138.05 1623,-96 1616.16,-95.06 1609.06,-93.88 1601.99,-92.56"/>
<polygon fill="#63b8ff" stroke="#63b8ff" points="1602.18,-89.03 1591.69,-90.54 1600.83,-95.9 1602.18,-89.03"/>
</a>
</g>
</g>
<!-- Node33 -->
<g id="Node000033" class="node">
<title>Node33</title>
<g id="a_Node000033"><a xlink:href="_credential_flags_8hpp.html" target="_top" xlink:title=" ">
<polygon fill="white" stroke="#666666" points="2388,-90.5 2242,-90.5 2242,-60.5 2388,-60.5 2388,-90.5"/>
<text text-anchor="start" x="2250" y="-78.5" font-family="Helvetica,sans-Serif" font-size="10.00">Hermes/_base/WinApi</text>
<text text-anchor="middle" x="2315" y="-67.5" font-family="Helvetica,sans-Serif" font-size="10.00">/Flags/CredentialFlags.hpp</text>
</a>
</g>
</g>
<!-- Node12&#45;&gt;Node33 -->
<g id="edge40_Node000012_Node000033" class="edge">
<title>Node12&#45;&gt;Node33</title>
<g id="a_edge40_Node000012_Node000033"><a xlink:title=" ">
<path fill="none" stroke="#63b8ff" d="M2469.74,-131.94C2439.24,-121.01 2396.76,-105.79 2364.02,-94.06"/>
<polygon fill="#63b8ff" stroke="#63b8ff" points="2364.79,-90.62 2354.2,-90.54 2362.43,-97.21 2364.79,-90.62"/>
</a>
</g>
</g>
<!-- Node34 -->
<g id="Node000034" class="node">
<title>Node34</title>
<g id="a_Node000034"><a xlink:href="_supported_protocols_flags_8hpp.html" target="_top" xlink:title=" ">
<polygon fill="white" stroke="#666666" points="3607.5,-90.5 3416.5,-90.5 3416.5,-60.5 3607.5,-60.5 3607.5,-90.5"/>
<text text-anchor="start" x="3424.5" y="-78.5" font-family="Helvetica,sans-Serif" font-size="10.00">Hermes/_base/WinApi</text>
<text text-anchor="middle" x="3512" y="-67.5" font-family="Helvetica,sans-Serif" font-size="10.00">/Flags/SupportedProtocolsFlags.hpp</text>
</a>
</g>
</g>
<!-- Node12&#45;&gt;Node34 -->
<g id="edge42_Node000012_Node000034" class="edge">
<title>Node12&#45;&gt;Node34</title>
<g id="a_edge42_Node000012_Node000034"><a xlink:title=" ">
<path fill="none" stroke="#63b8ff" d="M2571.02,-145.28C2717.18,-142.98 3094.42,-133.57 3407,-96 3415.63,-94.96 3424.61,-93.65 3433.54,-92.2"/>
<polygon fill="#63b8ff" stroke="#63b8ff" points="3434.29,-95.63 3443.57,-90.51 3433.13,-88.72 3434.29,-95.63"/>
</a>
</g>
</g>
<!-- Node35 -->
<g id="Node000035" class="node">
<title>Node35</title>
<g id="a_Node000035"><a xlink:href="_initialize_security_context_flags_8hpp.html" target="_top" xlink:title=" ">
<polygon fill="white" stroke="#666666" points="2662.5,-96 2493.5,-96 2493.5,-55 2662.5,-55 2662.5,-96"/>
<text text-anchor="start" x="2501.5" y="-84" font-family="Helvetica,sans-Serif" font-size="10.00">Hermes/_base/WinApi</text>
<text text-anchor="start" x="2501.5" y="-73" font-family="Helvetica,sans-Serif" font-size="10.00">/Flags/InitializeSecurityContext</text>
<text text-anchor="middle" x="2578" y="-62" font-family="Helvetica,sans-Serif" font-size="10.00">Flags.hpp</text>
</a>
</g>
</g>
<!-- Node12&#45;&gt;Node35 -->
<g id="edge44_Node000012_Node000035" class="edge">
<title>Node12&#45;&gt;Node35</title>
<g id="a_edge44_Node000012_Node000035"><a xlink:title=" ">
<path fill="none" stroke="#63b8ff" d="M2522.96,-131.94C2531.12,-123.72 2541.69,-113.07 2551.38,-103.31"/>
<polygon fill="#63b8ff" stroke="#63b8ff" points="2554.01,-105.64 2558.57,-96.07 2549.04,-100.7 2554.01,-105.64"/>
</a>
</g>
</g>
<!-- Node36 -->
<g id="Node000036" class="node">
<title>Node36</title>
<g id="a_Node000036"><a xlink:href="_initialize_security_context_return_flags_8hpp.html" target="_top" xlink:title=" ">
<polygon fill="white" stroke="#666666" points="2849.5,-96 2680.5,-96 2680.5,-55 2849.5,-55 2849.5,-96"/>
<text text-anchor="start" x="2688.5" y="-84" font-family="Helvetica,sans-Serif" font-size="10.00">Hermes/_base/WinApi</text>
<text text-anchor="start" x="2688.5" y="-73" font-family="Helvetica,sans-Serif" font-size="10.00">/Flags/InitializeSecurityContext</text>
<text text-anchor="middle" x="2765" y="-62" font-family="Helvetica,sans-Serif" font-size="10.00">ReturnFlags.hpp</text>
</a>
</g>
</g>
<!-- Node12&#45;&gt;Node36 -->
<g id="edge46_Node000012_Node000036" class="edge">
<title>Node12&#45;&gt;Node36</title>
<g id="a_edge46_Node000012_Node000036"><a xlink:title=" ">
<path fill="none" stroke="#63b8ff" d="M2560.81,-131.94C2595.9,-122.41 2643,-109.62 2683.13,-98.73"/>
<polygon fill="#63b8ff" stroke="#63b8ff" points="2684.17,-102.07 2692.9,-96.07 2682.33,-95.32 2684.17,-102.07"/>
</a>
</g>
</g>
<!-- Node37 -->
<g id="Node000037" class="node">
<title>Node37</title>
<g id="a_Node000037"><a xlink:href="_accept_security_context_flags_8hpp.html" target="_top" xlink:title=" ">
<polygon fill="white" stroke="#666666" points="2224,-96 2064,-96 2064,-55 2224,-55 2224,-96"/>
<text text-anchor="start" x="2072" y="-84" font-family="Helvetica,sans-Serif" font-size="10.00">Hermes/_base/WinApi</text>
<text text-anchor="start" x="2072" y="-73" font-family="Helvetica,sans-Serif" font-size="10.00">/Flags/AcceptSecurityContext</text>
<text text-anchor="middle" x="2144" y="-62" font-family="Helvetica,sans-Serif" font-size="10.00">Flags.hpp</text>
</a>
</g>
</g>
<!-- Node12&#45;&gt;Node37 -->
<g id="edge48_Node000012_Node000037" class="edge">
<title>Node12&#45;&gt;Node37</title>
<g id="a_edge48_Node000012_Node000037"><a xlink:title=" ">
<path fill="none" stroke="#63b8ff" d="M2446.94,-135.42C2393.22,-126.12 2313.19,-111.89 2234.16,-96.2"/>
<polygon fill="#63b8ff" stroke="#63b8ff" points="2234.52,-92.7 2224.02,-94.18 2233.15,-99.57 2234.52,-92.7"/>
</a>
</g>
</g>
<!-- Node38 -->
<g id="Node000038" class="node">
<title>Node38</title>
<g id="a_Node000038"><a xlink:href="_accept_security_context_return_flags_8hpp.html" target="_top" xlink:title=" ">
<polygon fill="white" stroke="#666666" points="3028,-96 2868,-96 2868,-55 3028,-55 3028,-96"/>
<text text-anchor="start" x="2876" y="-84" font-family="Helvetica,sans-Serif" font-size="10.00">Hermes/_base/WinApi</text>
<text text-anchor="start" x="2876" y="-73" font-family="Helvetica,sans-Serif" font-size="10.00">/Flags/AcceptSecurityContext</text>
<text text-anchor="middle" x="2948" y="-62" font-family="Helvetica,sans-Serif" font-size="10.00">ReturnFlags.hpp</text>
</a>
</g>
</g>
<!-- Node12&#45;&gt;Node38 -->
<g id="edge50_Node000012_Node000038" class="edge">
<title>Node12&#45;&gt;Node38</title>
<g id="a_edge50_Node000012_Node000038"><a xlink:title=" ">
<path fill="none" stroke="#63b8ff" d="M2571.18,-138.52C2639.21,-130.03 2751.67,-115.06 2857.62,-96.19"/>
<polygon fill="#63b8ff" stroke="#63b8ff" points="2858.3,-99.62 2867.52,-94.41 2857.06,-92.73 2858.3,-99.62"/>
</a>
</g>
</g>
<!-- Node39 -->
<g id="Node000039" class="node">
<title>Node39</title>
<g id="a_Node000039"><a xlink:href="_s_channel_cred_flags_8hpp.html" target="_top" xlink:title=" ">
<polygon fill="white" stroke="#666666" points="3992,-90.5 3828,-90.5 3828,-60.5 3992,-60.5 3992,-90.5"/>
<text text-anchor="start" x="3836" y="-78.5" font-family="Helvetica,sans-Serif" font-size="10.00">Hermes/_base/WinApi</text>
<text text-anchor="middle" x="3910" y="-67.5" font-family="Helvetica,sans-Serif" font-size="10.00">/Flags/SChannelCredFlags.hpp</text>
</a>
</g>
</g>
<!-- Node12&#45;&gt;Node39 -->
<g id="edge52_Node000012_Node000039" class="edge">
<title>Node12&#45;&gt;Node39</title>
<g id="a_edge52_Node000012_Node000039"><a xlink:title=" ">
<path fill="none" stroke="#63b8ff" d="M2571.14,-145.05C2796.86,-141.4 3572.99,-126.82 3819,-96 3826.36,-95.08 3834,-93.86 3841.59,-92.48"/>
<polygon fill="#63b8ff" stroke="#63b8ff" points="3842.35,-95.9 3851.51,-90.59 3841.03,-89.03 3842.35,-95.9"/>
</a>
</g>
</g>
<!-- Node19 -->
<g id="Node000019" class="node">
<title>Node19</title>
<g id="a_Node000019"><a xlink:title=" ">
<polygon fill="#e0e0e0" stroke="#999999" points="4161,-19 4111,-19 4111,0 4161,0 4161,-19"/>
<text text-anchor="middle" x="4136" y="-7" font-family="Helvetica,sans-Serif" font-size="10.00">cstdint</text>
</a>
</g>
</g>
<!-- Node18&#45;&gt;Node19 -->
<g id="edge18_Node000018_Node000019" class="edge">
<title>Node18&#45;&gt;Node19</title>
<g id="a_edge18_Node000018_Node000019"><a xlink:title=" ">
<path fill="none" stroke="#63b8ff" d="M4096.32,-60.3C4104.11,-50.51 4114.5,-37.48 4122.69,-27.2"/>
<polygon fill="#63b8ff" stroke="#63b8ff" points="4125.46,-29.35 4128.95,-19.34 4119.98,-24.98 4125.46,-29.35"/>
</a>
</g>
</g>
<!-- Node20&#45;&gt;Node14 -->
<g id="edge21_Node000020_Node000014" class="edge">
<title>Node20&#45;&gt;Node14</title>
<g id="a_edge21_Node000020_Node000014"><a xlink:title=" ">
<path fill="none" stroke="#63b8ff" d="M3126.03,-60.3C3111.36,-49.87 3091.49,-35.74 3076.66,-25.19"/>
<polygon fill="#63b8ff" stroke="#63b8ff" points="3078.35,-22.1 3068.18,-19.16 3074.3,-27.81 3078.35,-22.1"/>
</a>
</g>
</g>
<!-- Node20&#45;&gt;Node16 -->
<g id="edge22_Node000020_Node000016" class="edge">
<title>Node20&#45;&gt;Node16</title>
<g id="a_edge22_Node000020_Node000016"><a xlink:title=" ">
<path fill="none" stroke="#63b8ff" d="M3193.11,-60.41C3201.03,-58.38 3209.21,-56.47 3217,-55 3351.72,-29.52 3513.78,-17.5 3590.92,-12.88"/>
<polygon fill="#63b8ff" stroke="#63b8ff" points="3591.45,-16.36 3601.23,-12.28 3591.05,-9.37 3591.45,-16.36"/>
</a>
</g>
</g>
<!-- Node20&#45;&gt;Node17 -->
<g id="edge23_Node000020_Node000017" class="edge">
<title>Node20&#45;&gt;Node17</title>
<g id="a_edge23_Node000020_Node000017"><a xlink:title=" ">
<path fill="none" stroke="#63b8ff" d="M3083.91,-62.27C3068.62,-59.56 3052.26,-56.93 3037,-55 2825.12,-28.14 2568.31,-15.58 2478.71,-11.79"/>
<polygon fill="#63b8ff" stroke="#63b8ff" points="2478.76,-8.29 2468.63,-11.37 2478.47,-15.29 2478.76,-8.29"/>
</a>
</g>
</g>
<!-- Node21 -->
<g id="Node000021" class="node">
<title>Node21</title>
<g id="a_Node000021"><a xlink:title=" ">
<polygon fill="#e0e0e0" stroke="#999999" points="3182.5,-19 3109.5,-19 3109.5,0 3182.5,0 3182.5,-19"/>
<text text-anchor="middle" x="3146" y="-7" font-family="Helvetica,sans-Serif" font-size="10.00">string_view</text>
</a>
</g>
</g>
<!-- Node20&#45;&gt;Node21 -->
<g id="edge20_Node000020_Node000021" class="edge">
<title>Node20&#45;&gt;Node21</title>
<g id="a_edge20_Node000020_Node000021"><a xlink:title=" ">
<path fill="none" stroke="#63b8ff" d="M3146,-60.3C3146,-51.2 3146,-39.29 3146,-29.4"/>
<polygon fill="#63b8ff" stroke="#63b8ff" points="3149.5,-29.34 3146,-19.34 3142.5,-29.34 3149.5,-29.34"/>
</a>
</g>
</g>
<!-- Node23 -->
<g id="Node000023" class="node">
<title>Node23</title>
<g id="a_Node000023"><a xlink:title=" ">
<polygon fill="#e0e0e0" stroke="#999999" points="991,-19 931,-19 931,0 991,0 991,-19"/>
<text text-anchor="middle" x="961" y="-7" font-family="Helvetica,sans-Serif" font-size="10.00">ws2def.h</text>
</a>
</g>
</g>
<!-- Node22&#45;&gt;Node23 -->
<g id="edge25_Node000022_Node000023" class="edge">
<title>Node22&#45;&gt;Node23</title>
<g id="a_edge25_Node000022_Node000023"><a xlink:title=" ">
<path fill="none" stroke="#63b8ff" d="M882.42,-60.3C899.19,-49.67 922.01,-35.2 938.75,-24.6"/>
<polygon fill="#63b8ff" stroke="#63b8ff" points="940.76,-27.47 947.34,-19.16 937.02,-21.55 940.76,-27.47"/>
</a>
</g>
</g>
<!-- Node25 -->
<g id="Node000025" class="node">
<title>Node25</title>
<g id="a_Node000025"><a xlink:title=" ">
<polygon fill="#e0e0e0" stroke="#999999" points="1571,-19 1497,-19 1497,0 1571,0 1571,-19"/>
<text text-anchor="middle" x="1534" y="-7" font-family="Helvetica,sans-Serif" font-size="10.00">WinSock2.h</text>
</a>
</g>
</g>
<!-- Node24&#45;&gt;Node25 -->
<g id="edge27_Node000024_Node000025" class="edge">
<title>Node24&#45;&gt;Node25</title>
<g id="a_edge27_Node000024_Node000025"><a xlink:title=" ">
<path fill="none" stroke="#63b8ff" d="M1382.57,-60.45C1417.35,-48.98 1465.91,-32.96 1498.59,-22.18"/>
<polygon fill="#63b8ff" stroke="#63b8ff" points="1499.78,-25.47 1508.18,-19.02 1497.59,-18.83 1499.78,-25.47"/>
</a>
</g>
</g>
<!-- Node27 -->
<g id="Node000027" class="node">
<title>Node27</title>
<g id="a_Node000027"><a xlink:title=" ">
<polygon fill="#e0e0e0" stroke="#999999" points="3344.5,-19 3279.5,-19 3279.5,0 3344.5,0 3344.5,-19"/>
<text text-anchor="middle" x="3312" y="-7" font-family="Helvetica,sans-Serif" font-size="10.00">winerror.h</text>
</a>
</g>
</g>
<!-- Node26&#45;&gt;Node27 -->
<g id="edge29_Node000026_Node000027" class="edge">
<title>Node26&#45;&gt;Node27</title>
<g id="a_edge29_Node000026_Node000027"><a xlink:title=" ">
<path fill="none" stroke="#63b8ff" d="M3312,-60.3C3312,-51.2 3312,-39.29 3312,-29.4"/>
<polygon fill="#63b8ff" stroke="#63b8ff" points="3315.5,-29.34 3312,-19.34 3308.5,-29.34 3315.5,-29.34"/>
</a>
</g>
</g>
<!-- Node28&#45;&gt;Node23 -->
<g id="edge31_Node000028_Node000023" class="edge">
<title>Node28&#45;&gt;Node23</title>
<g id="a_edge31_Node000028_Node000023"><a xlink:title=" ">
<path fill="none" stroke="#63b8ff" d="M1039.58,-60.3C1022.81,-49.67 999.99,-35.2 983.25,-24.6"/>
<polygon fill="#63b8ff" stroke="#63b8ff" points="984.98,-21.55 974.66,-19.16 981.24,-27.47 984.98,-21.55"/>
</a>
</g>
</g>
<!-- Node29&#45;&gt;Node16 -->
<g id="edge33_Node000029_Node000016" class="edge">
<title>Node29&#45;&gt;Node16</title>
<g id="a_edge33_Node000029_Node000016"><a xlink:title=" ">
<path fill="none" stroke="#63b8ff" d="M3714.58,-60.3C3697.81,-49.67 3674.99,-35.2 3658.25,-24.6"/>
<polygon fill="#63b8ff" stroke="#63b8ff" points="3659.98,-21.55 3649.66,-19.16 3656.24,-27.47 3659.98,-21.55"/>
</a>
</g>
</g>
<!-- Node30&#45;&gt;Node17 -->
<g id="edge35_Node000030_Node000017" class="edge">
<title>Node30&#45;&gt;Node17</title>
<g id="a_edge35_Node000030_Node000017"><a xlink:title=" ">
<path fill="none" stroke="#63b8ff" d="M2024.19,-60.46C2034.47,-58.48 2045.01,-56.58 2055,-55 2187.27,-34.08 2346.22,-19.11 2413.44,-13.24"/>
<polygon fill="#63b8ff" stroke="#63b8ff" points="2413.77,-16.72 2423.43,-12.38 2413.16,-9.75 2413.77,-16.72"/>
</a>
</g>
</g>
<!-- Node31&#45;&gt;Node25 -->
<g id="edge37_Node000031_Node000025" class="edge">
<title>Node31&#45;&gt;Node25</title>
<g id="a_edge37_Node000031_Node000025"><a xlink:title=" ">
<path fill="none" stroke="#63b8ff" d="M1682.3,-60.45C1648.4,-49.03 1601.09,-33.1 1569.1,-22.32"/>
<polygon fill="#63b8ff" stroke="#63b8ff" points="1569.88,-18.89 1559.29,-19.02 1567.65,-25.53 1569.88,-18.89"/>
</a>
</g>
</g>
<!-- Node32&#45;&gt;Node25 -->
<g id="edge39_Node000032_Node000025" class="edge">
<title>Node32&#45;&gt;Node25</title>
<g id="a_edge39_Node000032_Node000025"><a xlink:title=" ">
<path fill="none" stroke="#63b8ff" d="M1534,-60.3C1534,-51.2 1534,-39.29 1534,-29.4"/>
<polygon fill="#63b8ff" stroke="#63b8ff" points="1537.5,-29.34 1534,-19.34 1530.5,-29.34 1537.5,-29.34"/>
</a>
</g>
</g>
<!-- Node33&#45;&gt;Node17 -->
<g id="edge41_Node000033_Node000017" class="edge">
<title>Node33&#45;&gt;Node17</title>
<g id="a_edge41_Node000033_Node000017"><a xlink:title=" ">
<path fill="none" stroke="#63b8ff" d="M2343.75,-60.45C2366.32,-49.43 2397.49,-34.2 2419.47,-23.46"/>
<polygon fill="#63b8ff" stroke="#63b8ff" points="2421.12,-26.55 2428.57,-19.02 2418.04,-20.26 2421.12,-26.55"/>
</a>
</g>
</g>
<!-- Node34&#45;&gt;Node16 -->
<g id="edge43_Node000034_Node000016" class="edge">
<title>Node34&#45;&gt;Node16</title>
<g id="a_edge43_Node000034_Node000016"><a xlink:title=" ">
<path fill="none" stroke="#63b8ff" d="M3539.21,-60.45C3560.48,-49.48 3589.82,-34.33 3610.61,-23.61"/>
<polygon fill="#63b8ff" stroke="#63b8ff" points="3612.22,-26.71 3619.5,-19.02 3609.01,-20.49 3612.22,-26.71"/>
</a>
</g>
</g>
<!-- Node35&#45;&gt;Node17 -->
<g id="edge45_Node000035_Node000017" class="edge">
<title>Node35&#45;&gt;Node17</title>
<g id="a_edge45_Node000035_Node000017"><a xlink:title=" ">
<path fill="none" stroke="#63b8ff" d="M2537.68,-54.95C2516.63,-44.75 2491.46,-32.54 2472.82,-23.5"/>
<polygon fill="#63b8ff" stroke="#63b8ff" points="2474.25,-20.31 2463.72,-19.09 2471.19,-26.6 2474.25,-20.31"/>
</a>
</g>
</g>
<!-- Node36&#45;&gt;Node17 -->
<g id="edge47_Node000036_Node000017" class="edge">
<title>Node36&#45;&gt;Node17</title>
<g id="a_edge47_Node000036_Node000017"><a xlink:title=" ">
<path fill="none" stroke="#63b8ff" d="M2680.36,-56.71C2677.54,-56.13 2674.75,-55.56 2672,-55 2603.25,-41.02 2522.59,-25.31 2478.63,-16.8"/>
<polygon fill="#63b8ff" stroke="#63b8ff" points="2479.28,-13.35 2468.79,-14.89 2477.95,-20.23 2479.28,-13.35"/>
</a>
</g>
</g>
<!-- Node37&#45;&gt;Node17 -->
<g id="edge49_Node000037_Node000017" class="edge">
<title>Node37&#45;&gt;Node17</title>
<g id="a_edge49_Node000037_Node000017"><a xlink:title=" ">
<path fill="none" stroke="#63b8ff" d="M2224.05,-56.92C2227.07,-56.27 2230.06,-55.63 2233,-55 2296.85,-41.34 2371.58,-25.84 2413.39,-17.21"/>
<polygon fill="#63b8ff" stroke="#63b8ff" points="2414.2,-20.62 2423.29,-15.17 2412.79,-13.76 2414.2,-20.62"/>
</a>
</g>
</g>
<!-- Node38&#45;&gt;Node17 -->
<g id="edge51_Node000038_Node000017" class="edge">
<title>Node38&#45;&gt;Node17</title>
<g id="a_edge51_Node000038_Node000017"><a xlink:title=" ">
<path fill="none" stroke="#63b8ff" d="M2867.54,-56.46C2864.67,-55.95 2861.81,-55.46 2859,-55 2718.52,-32.11 2549.17,-18.06 2478.96,-12.83"/>
<polygon fill="#63b8ff" stroke="#63b8ff" points="2479.18,-9.34 2468.95,-12.1 2478.67,-16.32 2479.18,-9.34"/>
</a>
</g>
</g>
<!-- Node39&#45;&gt;Node16 -->
<g id="edge53_Node000039_Node000016" class="edge">
<title>Node39&#45;&gt;Node16</title>
<g id="a_edge53_Node000039_Node000016"><a xlink:title=" ">
<path fill="none" stroke="#63b8ff" d="M3849.87,-60.45C3798.76,-48.52 3726.54,-31.65 3680.49,-20.89"/>
<polygon fill="#63b8ff" stroke="#63b8ff" points="3681.04,-17.43 3670.51,-18.56 3679.45,-24.24 3681.04,-17.43"/>
</a>
</g>
</g>
<!-- Node42&#45;&gt;Node2 -->
<g id="edge60_Node000042_Node000002" class="edge">
<title>Node42&#45;&gt;Node2</title>
<g id="a_edge60_Node000042_Node000002"><a xlink:title=" ">
<path fill="none" stroke="#63b8ff" d="M2002.31,-323.49C1992.17,-321.74 1981.85,-320.17 1972,-319 1665.36,-282.43 1297.63,-275.73 1136.91,-274.63"/>
<polygon fill="#63b8ff" stroke="#63b8ff" points="1136.65,-271.13 1126.63,-274.56 1136.6,-278.13 1136.65,-271.13"/>
</a>
</g>
</g>
<!-- Node42&#45;&gt;Node7 -->
<g id="edge61_Node000042_Node000007" class="edge">
<title>Node42&#45;&gt;Node7</title>
<g id="a_edge61_Node000042_Node000007"><a xlink:title=" ">
<path fill="none" stroke="#63b8ff" d="M2002.45,-321.01C1840.66,-282.02 1433.86,-187.06 1089,-132 945.05,-109.02 899.88,-146.12 763,-96 759.37,-94.67 755.75,-92.79 752.36,-90.72"/>
<polygon fill="#63b8ff" stroke="#63b8ff" points="754.3,-87.81 744.07,-85.04 750.34,-93.58 754.3,-87.81"/>
</a>
</g>
</g>
<!-- Node42&#45;&gt;Node19 -->
<g id="edge62_Node000042_Node000019" class="edge">
<title>Node42&#45;&gt;Node19</title>
<g id="a_edge62_Node000042_Node000019"><a xlink:title=" ">
<path fill="none" stroke="#63b8ff" d="M2145.55,-335.75C2497.23,-321.51 4031.08,-250.8 4169,-96 4186.81,-76.01 4166.96,-45.37 4151.26,-26.71"/>
<polygon fill="#63b8ff" stroke="#63b8ff" points="4153.73,-24.23 4144.48,-19.06 4148.49,-28.87 4153.73,-24.23"/>
</a>
</g>
</g>
</g>
</svg>
