<?xml version="1.0" encoding="UTF-8" standalone="no"?>
<!DOCTYPE svg PUBLIC "-//W3C//DTD SVG 1.1//EN"
 "http://www.w3.org/Graphics/SVG/1.1/DTD/svg11.dtd">
<!-- Generated by graphviz version 2.43.0 (0)
 -->
<!-- Title: include/Hermes/Socket/_base/TlsSession.hpp Pages: 1 -->
<svg width="2548pt" height="236pt"
 viewBox="0.00 0.00 2547.50 236.00" xmlns="http://www.w3.org/2000/svg" xmlns:xlink="http://www.w3.org/1999/xlink">
<g id="graph0" class="graph" transform="scale(1 1) rotate(0) translate(4 232)">
<title>include/Hermes/Socket/_base/TlsSession.hpp</title>
<!-- Node1 -->
<g id="Node000001" class="node">
<title>Node1</title>
<g id="a_Node000001"><a xlink:title=" ">
<polygon fill="#999999" stroke="#666666" points="2414.5,-228 2286.5,-228 2286.5,-198 2414.5,-198 2414.5,-228"/>
<text text-anchor="start" x="2294.5" y="-216" font-family="Helvetica,sans-Serif" font-size="10.00">include/Hermes/Socket</text>
<text text-anchor="middle" x="2350.5" y="-205" font-family="Helvetica,sans-Serif" font-size="10.00">/_base/TlsSession.hpp</text>
</a>
</g>
</g>
<!-- Node2 -->
<g id="Node000002" class="node">
<title>Node2</title>
<g id="a_Node000002"><a xlink:href="_os_api_8hpp.html" target="_top" xlink:title=" ">
<polygon fill="white" stroke="#666666" points="1190.5,-162 1072.5,-162 1072.5,-132 1190.5,-132 1190.5,-162"/>
<text text-anchor="start" x="1080.5" y="-150" font-family="Helvetica,sans-Serif" font-size="10.00">Hermes/_base/OsApi</text>
<text text-anchor="middle" x="1131.5" y="-139" font-family="Helvetica,sans-Serif" font-size="10.00">/OsApi.hpp</text>
</a>
</g>
</g>
<!-- Node1&#45;&gt;Node2 -->
<g id="edge1_Node000001_Node000002" class="edge">
<title>Node1&#45;&gt;Node2</title>
<g id="a_edge1_Node000001_Node000002"><a xlink:title=" ">
<path fill="none" stroke="#63b8ff" d="M2286.25,-208.63C2077.17,-197.65 1417.26,-163 1200.93,-151.65"/>
<polygon fill="#63b8ff" stroke="#63b8ff" points="1200.83,-148.14 1190.66,-151.11 1200.46,-155.13 1200.83,-148.14"/>
</a>
</g>
</g>
<!-- Node9 -->
<g id="Node000009" class="node">
<title>Node9</title>
<g id="a_Node000009"><a xlink:title=" ">
<polygon fill="#e0e0e0" stroke="#999999" points="2296.5,-19 2246.5,-19 2246.5,0 2296.5,0 2296.5,-19"/>
<text text-anchor="middle" x="2271.5" y="-7" font-family="Helvetica,sans-Serif" font-size="10.00">cstdint</text>
</a>
</g>
</g>
<!-- Node1&#45;&gt;Node9 -->
<g id="edge27_Node000001_Node000009" class="edge">
<title>Node1&#45;&gt;Node9</title>
<g id="a_edge27_Node000001_Node000009"><a xlink:title=" ">
<path fill="none" stroke="#63b8ff" d="M2348.11,-197.95C2342.94,-169.73 2329.17,-104.59 2304.5,-55 2299.53,-45.01 2292.29,-34.93 2285.85,-26.9"/>
<polygon fill="#63b8ff" stroke="#63b8ff" points="2288.43,-24.52 2279.33,-19.09 2283.05,-29.01 2288.43,-24.52"/>
</a>
</g>
</g>
<!-- Node11 -->
<g id="Node000011" class="node">
<title>Node11</title>
<g id="a_Node000011"><a xlink:title=" ">
<polygon fill="#e0e0e0" stroke="#999999" points="73,-19 0,-19 0,0 73,0 73,-19"/>
<text text-anchor="middle" x="36.5" y="-7" font-family="Helvetica,sans-Serif" font-size="10.00">string_view</text>
</a>
</g>
</g>
<!-- Node1&#45;&gt;Node11 -->
<g id="edge30_Node000001_Node000011" class="edge">
<title>Node1&#45;&gt;Node11</title>
<g id="a_edge30_Node000001_Node000011"><a xlink:title=" ">
<path fill="none" stroke="#63b8ff" d="M2286.4,-211.3C1918.75,-206.98 91.59,-181.27 11.5,-96 -6.24,-77.11 9.96,-46.31 23.26,-27.29"/>
<polygon fill="#63b8ff" stroke="#63b8ff" points="26.26,-29.12 29.4,-19.01 20.64,-24.96 26.26,-29.12"/>
</a>
</g>
</g>
<!-- Node21 -->
<g id="Node000021" class="node">
<title>Node21</title>
<g id="a_Node000021"><a xlink:title=" ">
<polygon fill="#e0e0e0" stroke="#999999" points="2405,-156.5 2352,-156.5 2352,-137.5 2405,-137.5 2405,-156.5"/>
<text text-anchor="middle" x="2378.5" y="-144.5" font-family="Helvetica,sans-Serif" font-size="10.00">cstddef</text>
</a>
</g>
</g>
<!-- Node1&#45;&gt;Node21 -->
<g id="edge26_Node000001_Node000021" class="edge">
<title>Node1&#45;&gt;Node21</title>
<g id="a_edge26_Node000001_Node000021"><a xlink:title=" ">
<path fill="none" stroke="#63b8ff" d="M2356.71,-197.8C2360.78,-188.5 2366.13,-176.27 2370.51,-166.26"/>
<polygon fill="#63b8ff" stroke="#63b8ff" points="2373.83,-167.41 2374.63,-156.84 2367.42,-164.6 2373.83,-167.41"/>
</a>
</g>
</g>
<!-- Node22 -->
<g id="Node000022" class="node">
<title>Node22</title>
<g id="a_Node000022"><a xlink:title=" ">
<polygon fill="#e0e0e0" stroke="#999999" points="2481.5,-156.5 2423.5,-156.5 2423.5,-137.5 2481.5,-137.5 2481.5,-156.5"/>
<text text-anchor="middle" x="2452.5" y="-144.5" font-family="Helvetica,sans-Serif" font-size="10.00">memory</text>
</a>
</g>
</g>
<!-- Node1&#45;&gt;Node22 -->
<g id="edge28_Node000001_Node000022" class="edge">
<title>Node1&#45;&gt;Node22</title>
<g id="a_edge28_Node000001_Node000022"><a xlink:title=" ">
<path fill="none" stroke="#63b8ff" d="M2372.88,-197.95C2389.91,-187.27 2413.21,-172.65 2430.21,-161.98"/>
<polygon fill="#63b8ff" stroke="#63b8ff" points="2432.32,-164.8 2438.93,-156.52 2428.59,-158.87 2432.32,-164.8"/>
</a>
</g>
</g>
<!-- Node23 -->
<g id="Node000023" class="node">
<title>Node23</title>
<g id="a_Node000023"><a xlink:title=" ">
<polygon fill="#e0e0e0" stroke="#999999" points="2539.5,-156.5 2499.5,-156.5 2499.5,-137.5 2539.5,-137.5 2539.5,-156.5"/>
<text text-anchor="middle" x="2519.5" y="-144.5" font-family="Helvetica,sans-Serif" font-size="10.00">span</text>
</a>
</g>
</g>
<!-- Node1&#45;&gt;Node23 -->
<g id="edge29_Node000001_Node000023" class="edge">
<title>Node1&#45;&gt;Node23</title>
<g id="a_edge29_Node000001_Node000023"><a xlink:title=" ">
<path fill="none" stroke="#63b8ff" d="M2393.53,-197.96C2421.46,-188.52 2458.48,-175.4 2490.5,-162 2491.36,-161.64 2492.23,-161.27 2493.1,-160.89"/>
<polygon fill="#63b8ff" stroke="#63b8ff" points="2494.83,-163.95 2502.46,-156.6 2491.91,-157.58 2494.83,-163.95"/>
</a>
</g>
</g>
<!-- Node3 -->
<g id="Node000003" class="node">
<title>Node3</title>
<g id="a_Node000003"><a xlink:title=" ">
<polygon fill="#e0e0e0" stroke="#999999" points="408,-19 331,-19 331,0 408,0 408,-19"/>
<text text-anchor="middle" x="369.5" y="-7" font-family="Helvetica,sans-Serif" font-size="10.00">sys/socket.h</text>
</a>
</g>
</g>
<!-- Node2&#45;&gt;Node3 -->
<g id="edge2_Node000002_Node000003" class="edge">
<title>Node2&#45;&gt;Node3</title>
<g id="a_edge2_Node000002_Node000003"><a xlink:title=" ">
<path fill="none" stroke="#63b8ff" d="M1072.25,-146.02C905.31,-145.52 439.9,-140.15 388.5,-96 369.51,-79.69 367.09,-49 367.78,-29.17"/>
<polygon fill="#63b8ff" stroke="#63b8ff" points="371.27,-29.39 368.42,-19.19 364.28,-28.94 371.27,-29.39"/>
</a>
</g>
</g>
<!-- Node4 -->
<g id="Node000004" class="node">
<title>Node4</title>
<g id="a_Node000004"><a xlink:title=" ">
<polygon fill="#e0e0e0" stroke="#999999" points="963.5,-19 891.5,-19 891.5,0 963.5,0 963.5,-19"/>
<text text-anchor="middle" x="927.5" y="-7" font-family="Helvetica,sans-Serif" font-size="10.00">netinet/in.h</text>
</a>
</g>
</g>
<!-- Node2&#45;&gt;Node4 -->
<g id="edge3_Node000002_Node000004" class="edge">
<title>Node2&#45;&gt;Node4</title>
<g id="a_edge3_Node000002_Node000004"><a xlink:title=" ">
<path fill="none" stroke="#63b8ff" d="M1072.25,-142.42C1006.87,-137.09 907.77,-124.45 884.5,-96 872.96,-81.89 877.67,-71.89 884.5,-55 889.19,-43.41 898.5,-33.16 907.26,-25.43"/>
<polygon fill="#63b8ff" stroke="#63b8ff" points="909.5,-28.12 915.01,-19.07 905.06,-22.71 909.5,-28.12"/>
</a>
</g>
</g>
<!-- Node5 -->
<g id="Node000005" class="node">
<title>Node5</title>
<g id="a_Node000005"><a xlink:title=" ">
<polygon fill="#e0e0e0" stroke="#999999" points="837,-85 768,-85 768,-66 837,-66 837,-85"/>
<text text-anchor="middle" x="802.5" y="-73" font-family="Helvetica,sans-Serif" font-size="10.00">arpa/inet.h</text>
</a>
</g>
</g>
<!-- Node2&#45;&gt;Node5 -->
<g id="edge4_Node000002_Node000005" class="edge">
<title>Node2&#45;&gt;Node5</title>
<g id="a_edge4_Node000002_Node000005"><a xlink:title=" ">
<path fill="none" stroke="#63b8ff" d="M1072.26,-138.96C1015.04,-131.33 926.29,-117.32 851.5,-96 844.64,-94.04 837.41,-91.47 830.68,-88.84"/>
<polygon fill="#63b8ff" stroke="#63b8ff" points="831.85,-85.54 821.27,-85 829.21,-92.02 831.85,-85.54"/>
</a>
</g>
</g>
<!-- Node6 -->
<g id="Node000006" class="node">
<title>Node6</title>
<g id="a_Node000006"><a xlink:title=" ">
<polygon fill="#e0e0e0" stroke="#999999" points="1648,-19 1595,-19 1595,0 1648,0 1648,-19"/>
<text text-anchor="middle" x="1621.5" y="-7" font-family="Helvetica,sans-Serif" font-size="10.00">netdb.h</text>
</a>
</g>
</g>
<!-- Node2&#45;&gt;Node6 -->
<g id="edge5_Node000002_Node000006" class="edge">
<title>Node2&#45;&gt;Node6</title>
<g id="a_edge5_Node000002_Node000006"><a xlink:title=" ">
<path fill="none" stroke="#63b8ff" d="M1142.18,-131.89C1160.77,-107.5 1197.94,-59.61 1206.5,-55 1271.48,-19.99 1495.84,-12.52 1584.77,-10.93"/>
<polygon fill="#63b8ff" stroke="#63b8ff" points="1584.99,-14.43 1594.93,-10.76 1584.87,-7.43 1584.99,-14.43"/>
</a>
</g>
</g>
<!-- Node7 -->
<g id="Node000007" class="node">
<title>Node7</title>
<g id="a_Node000007"><a xlink:title=" ">
<polygon fill="#e0e0e0" stroke="#999999" points="1159.5,-85 1103.5,-85 1103.5,-66 1159.5,-66 1159.5,-85"/>
<text text-anchor="middle" x="1131.5" y="-73" font-family="Helvetica,sans-Serif" font-size="10.00">unistd.h</text>
</a>
</g>
</g>
<!-- Node2&#45;&gt;Node7 -->
<g id="edge6_Node000002_Node000007" class="edge">
<title>Node2&#45;&gt;Node7</title>
<g id="a_edge6_Node000002_Node000007"><a xlink:title=" ">
<path fill="none" stroke="#63b8ff" d="M1131.5,-131.94C1131.5,-121.46 1131.5,-107.05 1131.5,-95.55"/>
<polygon fill="#63b8ff" stroke="#63b8ff" points="1135,-95.27 1131.5,-85.27 1128,-95.27 1135,-95.27"/>
</a>
</g>
</g>
<!-- Node8 -->
<g id="Node000008" class="node">
<title>Node8</title>
<g id="a_Node000008"><a xlink:href="_conversion_and_literals_8hpp.html" target="_top" xlink:title=" ">
<polygon fill="white" stroke="#666666" points="2295.5,-90.5 2145.5,-90.5 2145.5,-60.5 2295.5,-60.5 2295.5,-90.5"/>
<text text-anchor="start" x="2153.5" y="-78.5" font-family="Helvetica,sans-Serif" font-size="10.00">Hermes/_base/OsApi</text>
<text text-anchor="middle" x="2220.5" y="-67.5" font-family="Helvetica,sans-Serif" font-size="10.00">/ConversionAndLiterals.hpp</text>
</a>
</g>
</g>
<!-- Node2&#45;&gt;Node8 -->
<g id="edge7_Node000002_Node000008" class="edge">
<title>Node2&#45;&gt;Node8</title>
<g id="a_edge7_Node000002_Node000008"><a xlink:title=" ">
<path fill="none" stroke="#63b8ff" d="M1190.75,-146.73C1346.52,-147.84 1780.09,-145.83 2136.5,-96 2143.07,-95.08 2149.89,-93.89 2156.67,-92.56"/>
<polygon fill="#63b8ff" stroke="#63b8ff" points="2157.46,-95.97 2166.54,-90.52 2156.04,-89.12 2157.46,-95.97"/>
</a>
</g>
</g>
<!-- Node10 -->
<g id="Node000010" class="node">
<title>Node10</title>
<g id="a_Node000010"><a xlink:href="_macros_8hpp.html" target="_top" xlink:title=" ">
<polygon fill="white" stroke="#666666" points="138.5,-90.5 20.5,-90.5 20.5,-60.5 138.5,-60.5 138.5,-90.5"/>
<text text-anchor="start" x="28.5" y="-78.5" font-family="Helvetica,sans-Serif" font-size="10.00">Hermes/_base/OsApi</text>
<text text-anchor="middle" x="79.5" y="-67.5" font-family="Helvetica,sans-Serif" font-size="10.00">/Macros.hpp</text>
</a>
</g>
</g>
<!-- Node2&#45;&gt;Node10 -->
<g id="edge9_Node000002_Node000010" class="edge">
<title>Node2&#45;&gt;Node10</title>
<g id="a_edge9_Node000002_Node000010"><a xlink:title=" ">
<path fill="none" stroke="#63b8ff" d="M1072.43,-144.77C888.41,-140.65 327.09,-125.91 147.5,-96 142.75,-95.21 137.87,-94.2 132.99,-93.07"/>
<polygon fill="#63b8ff" stroke="#63b8ff" points="133.61,-89.61 123.06,-90.58 131.91,-96.4 133.61,-89.61"/>
</a>
</g>
</g>
<!-- Node12 -->
<g id="Node000012" class="node">
<title>Node12</title>
<g id="a_Node000012"><a xlink:href="_address_family_enum_8hpp.html" target="_top" xlink:title=" ">
<polygon fill="white" stroke="#666666" points="573.5,-90.5 397.5,-90.5 397.5,-60.5 573.5,-60.5 573.5,-90.5"/>
<text text-anchor="start" x="405.5" y="-78.5" font-family="Helvetica,sans-Serif" font-size="10.00">Hermes/_base/OsApi</text>
<text text-anchor="middle" x="485.5" y="-67.5" font-family="Helvetica,sans-Serif" font-size="10.00">/Enums/AddressFamilyEnum.hpp</text>
</a>
</g>
</g>
<!-- Node2&#45;&gt;Node12 -->
<g id="edge12_Node000002_Node000012" class="edge">
<title>Node2&#45;&gt;Node12</title>
<g id="a_edge12_Node000002_Node000012"><a xlink:title=" ">
<path fill="none" stroke="#63b8ff" d="M1072.24,-142.75C971.17,-136.73 759.14,-122.04 581.5,-96 574.39,-94.96 567,-93.73 559.63,-92.4"/>
<polygon fill="#63b8ff" stroke="#63b8ff" points="560.09,-88.92 549.62,-90.54 558.81,-95.81 560.09,-88.92"/>
</a>
</g>
</g>
<!-- Node13 -->
<g id="Node000013" class="node">
<title>Node13</title>
<g id="a_Node000013"><a xlink:href="_protocol_base_type_enum_8hpp.html" target="_top" xlink:title=" ">
<polygon fill="white" stroke="#666666" points="1085,-90.5 894,-90.5 894,-60.5 1085,-60.5 1085,-90.5"/>
<text text-anchor="start" x="902" y="-78.5" font-family="Helvetica,sans-Serif" font-size="10.00">Hermes/_base/OsApi</text>
<text text-anchor="middle" x="989.5" y="-67.5" font-family="Helvetica,sans-Serif" font-size="10.00">/Enums/ProtocolBaseTypeEnum.hpp</text>
</a>
</g>
</g>
<!-- Node2&#45;&gt;Node13 -->
<g id="edge14_Node000002_Node000013" class="edge">
<title>Node2&#45;&gt;Node13</title>
<g id="a_edge14_Node000002_Node000013"><a xlink:title=" ">
<path fill="none" stroke="#63b8ff" d="M1102.76,-131.94C1081.01,-121.29 1050.95,-106.57 1027.26,-94.98"/>
<polygon fill="#63b8ff" stroke="#63b8ff" points="1028.71,-91.8 1018.19,-90.54 1025.64,-98.08 1028.71,-91.8"/>
</a>
</g>
</g>
<!-- Node14 -->
<g id="Node000014" class="node">
<title>Node14</title>
<g id="a_Node000014"><a xlink:href="_socket_shutdown_enum_8hpp.html" target="_top" xlink:title=" ">
<polygon fill="white" stroke="#666666" points="342,-90.5 157,-90.5 157,-60.5 342,-60.5 342,-90.5"/>
<text text-anchor="start" x="165" y="-78.5" font-family="Helvetica,sans-Serif" font-size="10.00">Hermes/_base/OsApi</text>
<text text-anchor="middle" x="249.5" y="-67.5" font-family="Helvetica,sans-Serif" font-size="10.00">/Enums/SocketShutdownEnum.hpp</text>
</a>
</g>
</g>
<!-- Node2&#45;&gt;Node14 -->
<g id="edge16_Node000002_Node000014" class="edge">
<title>Node2&#45;&gt;Node14</title>
<g id="a_edge16_Node000002_Node000014"><a xlink:title=" ">
<path fill="none" stroke="#63b8ff" d="M1072.38,-144.56C942.33,-140.88 621.78,-128.96 355.5,-96 346.93,-94.94 338.01,-93.63 329.14,-92.19"/>
<polygon fill="#63b8ff" stroke="#63b8ff" points="329.61,-88.72 319.17,-90.52 328.45,-95.62 329.61,-88.72"/>
</a>
</g>
</g>
<!-- Node15 -->
<g id="Node000015" class="node">
<title>Node15</title>
<g id="a_Node000015"><a xlink:href="_socket_type_enum_8hpp.html" target="_top" xlink:title=" ">
<polygon fill="white" stroke="#666666" points="750,-90.5 591,-90.5 591,-60.5 750,-60.5 750,-90.5"/>
<text text-anchor="start" x="599" y="-78.5" font-family="Helvetica,sans-Serif" font-size="10.00">Hermes/_base/OsApi</text>
<text text-anchor="middle" x="670.5" y="-67.5" font-family="Helvetica,sans-Serif" font-size="10.00">/Enums/SocketTypeEnum.hpp</text>
</a>
</g>
</g>
<!-- Node2&#45;&gt;Node15 -->
<g id="edge18_Node000002_Node000015" class="edge">
<title>Node2&#45;&gt;Node15</title>
<g id="a_edge18_Node000002_Node000015"><a xlink:title=" ">
<path fill="none" stroke="#63b8ff" d="M1072.47,-139.65C998.73,-131.37 868.83,-115.58 758.5,-96 752.68,-94.97 746.65,-93.81 740.62,-92.6"/>
<polygon fill="#63b8ff" stroke="#63b8ff" points="740.98,-89.1 730.48,-90.5 739.57,-95.95 740.98,-89.1"/>
</a>
</g>
</g>
<!-- Node16 -->
<g id="Node000016" class="node">
<title>Node16</title>
<g id="a_Node000016"><a xlink:href="_linux_2_encrypt_status_enum_8hpp.html" target="_top" xlink:title=" ">
<polygon fill="white" stroke="#666666" points="1367.5,-96 1215.5,-96 1215.5,-55 1367.5,-55 1367.5,-96"/>
<text text-anchor="start" x="1223.5" y="-84" font-family="Helvetica,sans-Serif" font-size="10.00">Hermes/_base/OsApi</text>
<text text-anchor="start" x="1223.5" y="-73" font-family="Helvetica,sans-Serif" font-size="10.00">/Enums/Linux/EncryptStatus</text>
<text text-anchor="middle" x="1291.5" y="-62" font-family="Helvetica,sans-Serif" font-size="10.00">Enum.hpp</text>
</a>
</g>
</g>
<!-- Node2&#45;&gt;Node16 -->
<g id="edge20_Node000002_Node000016" class="edge">
<title>Node2&#45;&gt;Node16</title>
<g id="a_edge20_Node000002_Node000016"><a xlink:title=" ">
<path fill="none" stroke="#63b8ff" d="M1163.88,-131.94C1184.84,-122.83 1212.65,-110.75 1236.97,-100.19"/>
<polygon fill="#63b8ff" stroke="#63b8ff" points="1238.66,-103.27 1246.44,-96.07 1235.87,-96.85 1238.66,-103.27"/>
</a>
</g>
</g>
<!-- Node17 -->
<g id="Node000017" class="node">
<title>Node17</title>
<g id="a_Node000017"><a xlink:href="_name_info_flags_8hpp.html" target="_top" xlink:title=" ">
<polygon fill="white" stroke="#666666" points="2127.5,-90.5 1983.5,-90.5 1983.5,-60.5 2127.5,-60.5 2127.5,-90.5"/>
<text text-anchor="start" x="1991.5" y="-78.5" font-family="Helvetica,sans-Serif" font-size="10.00">Hermes/_base/OsApi</text>
<text text-anchor="middle" x="2055.5" y="-67.5" font-family="Helvetica,sans-Serif" font-size="10.00">/Flags/NameInfoFlags.hpp</text>
</a>
</g>
</g>
<!-- Node2&#45;&gt;Node17 -->
<g id="edge21_Node000002_Node000017" class="edge">
<title>Node2&#45;&gt;Node17</title>
<g id="a_edge21_Node000002_Node000017"><a xlink:title=" ">
<path fill="none" stroke="#63b8ff" d="M1190.64,-146.08C1328.69,-145.48 1682.66,-139.43 1974.5,-96 1980.6,-95.09 1986.92,-93.94 1993.21,-92.66"/>
<polygon fill="#63b8ff" stroke="#63b8ff" points="1994,-96.07 2003.04,-90.56 1992.53,-89.23 1994,-96.07"/>
</a>
</g>
</g>
<!-- Node18 -->
<g id="Node000018" class="node">
<title>Node18</title>
<g id="a_Node000018"><a xlink:href="_linux_2_credential_flags_8hpp.html" target="_top" xlink:title=" ">
<polygon fill="white" stroke="#666666" points="1561.5,-90.5 1385.5,-90.5 1385.5,-60.5 1561.5,-60.5 1561.5,-90.5"/>
<text text-anchor="start" x="1393.5" y="-78.5" font-family="Helvetica,sans-Serif" font-size="10.00">Hermes/_base/OsApi</text>
<text text-anchor="middle" x="1473.5" y="-67.5" font-family="Helvetica,sans-Serif" font-size="10.00">/Flags/Linux/CredentialFlags.hpp</text>
</a>
</g>
</g>
<!-- Node2&#45;&gt;Node18 -->
<g id="edge23_Node000002_Node000018" class="edge">
<title>Node2&#45;&gt;Node18</title>
<g id="a_edge23_Node000002_Node000018"><a xlink:title=" ">
<path fill="none" stroke="#63b8ff" d="M1190.68,-133.97C1247,-122.53 1332.14,-105.23 1394.29,-92.6"/>
<polygon fill="#63b8ff" stroke="#63b8ff" points="1395.35,-95.95 1404.45,-90.53 1393.95,-89.09 1395.35,-95.95"/>
</a>
</g>
</g>
<!-- Node19 -->
<g id="Node000019" class="node">
<title>Node19</title>
<g id="a_Node000019"><a xlink:href="_linux_2_supported_protocols_flags_8hpp.html" target="_top" xlink:title=" ">
<polygon fill="white" stroke="#666666" points="1753,-96 1580,-96 1580,-55 1753,-55 1753,-96"/>
<text text-anchor="start" x="1588" y="-84" font-family="Helvetica,sans-Serif" font-size="10.00">Hermes/_base/OsApi</text>
<text text-anchor="start" x="1588" y="-73" font-family="Helvetica,sans-Serif" font-size="10.00">/Flags/Linux/SupportedProtocols</text>
<text text-anchor="middle" x="1666.5" y="-62" font-family="Helvetica,sans-Serif" font-size="10.00">Flags.hpp</text>
</a>
</g>
</g>
<!-- Node2&#45;&gt;Node19 -->
<g id="edge24_Node000002_Node000019" class="edge">
<title>Node2&#45;&gt;Node19</title>
<g id="a_edge24_Node000002_Node000019"><a xlink:title=" ">
<path fill="none" stroke="#63b8ff" d="M1190.66,-140.91C1273.2,-133.44 1427.8,-118.13 1569.76,-96.04"/>
<polygon fill="#63b8ff" stroke="#63b8ff" points="1570.62,-99.45 1579.96,-94.44 1569.53,-92.53 1570.62,-99.45"/>
</a>
</g>
</g>
<!-- Node20 -->
<g id="Node000020" class="node">
<title>Node20</title>
<g id="a_Node000020"><a xlink:href="_linux_2_s_channel_cred_flags_8hpp.html" target="_top" xlink:title=" ">
<polygon fill="white" stroke="#666666" points="1965.5,-90.5 1771.5,-90.5 1771.5,-60.5 1965.5,-60.5 1965.5,-90.5"/>
<text text-anchor="start" x="1779.5" y="-78.5" font-family="Helvetica,sans-Serif" font-size="10.00">Hermes/_base/OsApi</text>
<text text-anchor="middle" x="1868.5" y="-67.5" font-family="Helvetica,sans-Serif" font-size="10.00">/Flags/Linux/SChannelCredFlags.hpp</text>
</a>
</g>
</g>
<!-- Node2&#45;&gt;Node20 -->
<g id="edge25_Node000002_Node000020" class="edge">
<title>Node2&#45;&gt;Node20</title>
<g id="a_edge25_Node000002_Node000020"><a xlink:title=" ">
<path fill="none" stroke="#63b8ff" d="M1190.77,-143.3C1302.68,-137.75 1552.61,-123.25 1761.5,-96 1769.84,-94.91 1778.52,-93.61 1787.17,-92.21"/>
<polygon fill="#63b8ff" stroke="#63b8ff" points="1788,-95.62 1797.29,-90.51 1786.85,-88.71 1788,-95.62"/>
</a>
</g>
</g>
<!-- Node8&#45;&gt;Node9 -->
<g id="edge8_Node000008_Node000009" class="edge">
<title>Node8&#45;&gt;Node9</title>
<g id="a_edge8_Node000008_Node000009"><a xlink:title=" ">
<path fill="none" stroke="#63b8ff" d="M2231.82,-60.3C2239.61,-50.51 2250,-37.48 2258.19,-27.2"/>
<polygon fill="#63b8ff" stroke="#63b8ff" points="2260.96,-29.35 2264.45,-19.34 2255.48,-24.98 2260.96,-29.35"/>
</a>
</g>
</g>
<!-- Node10&#45;&gt;Node3 -->
<g id="edge11_Node000010_Node000003" class="edge">
<title>Node10&#45;&gt;Node3</title>
<g id="a_edge11_Node000010_Node000003"><a xlink:title=" ">
<path fill="none" stroke="#63b8ff" d="M126.56,-60.47C133.55,-58.54 140.7,-56.65 147.5,-55 206.68,-40.61 275.54,-27.34 320.69,-19.1"/>
<polygon fill="#63b8ff" stroke="#63b8ff" points="321.57,-22.5 330.79,-17.27 320.33,-15.61 321.57,-22.5"/>
</a>
</g>
</g>
<!-- Node10&#45;&gt;Node11 -->
<g id="edge10_Node000010_Node000011" class="edge">
<title>Node10&#45;&gt;Node11</title>
<g id="a_edge10_Node000010_Node000011"><a xlink:title=" ">
<path fill="none" stroke="#63b8ff" d="M69.96,-60.3C63.52,-50.71 54.98,-38 48.14,-27.82"/>
<polygon fill="#63b8ff" stroke="#63b8ff" points="50.92,-25.69 42.44,-19.34 45.11,-29.6 50.92,-25.69"/>
</a>
</g>
</g>
<!-- Node12&#45;&gt;Node3 -->
<g id="edge13_Node000012_Node000003" class="edge">
<title>Node12&#45;&gt;Node3</title>
<g id="a_edge13_Node000012_Node000003"><a xlink:title=" ">
<path fill="none" stroke="#63b8ff" d="M460.04,-60.45C440.33,-49.58 413.19,-34.61 393.78,-23.9"/>
<polygon fill="#63b8ff" stroke="#63b8ff" points="395.38,-20.78 384.94,-19.02 392,-26.91 395.38,-20.78"/>
</a>
</g>
</g>
<!-- Node13&#45;&gt;Node4 -->
<g id="edge15_Node000013_Node000004" class="edge">
<title>Node13&#45;&gt;Node4</title>
<g id="a_edge15_Node000013_Node000004"><a xlink:title=" ">
<path fill="none" stroke="#63b8ff" d="M975.74,-60.3C966.07,-50.32 953.13,-36.96 943.08,-26.59"/>
<polygon fill="#63b8ff" stroke="#63b8ff" points="945.54,-24.09 936.07,-19.34 940.51,-28.96 945.54,-24.09"/>
</a>
</g>
</g>
<!-- Node14&#45;&gt;Node3 -->
<g id="edge17_Node000014_Node000003" class="edge">
<title>Node14&#45;&gt;Node3</title>
<g id="a_edge17_Node000014_Node000003"><a xlink:title=" ">
<path fill="none" stroke="#63b8ff" d="M275.83,-60.45C296.32,-49.53 324.56,-34.47 344.66,-23.75"/>
<polygon fill="#63b8ff" stroke="#63b8ff" points="346.35,-26.81 353.53,-19.02 343.06,-20.64 346.35,-26.81"/>
</a>
</g>
</g>
<!-- Node15&#45;&gt;Node3 -->
<g id="edge19_Node000015_Node000003" class="edge">
<title>Node15&#45;&gt;Node3</title>
<g id="a_edge19_Node000015_Node000003"><a xlink:title=" ">
<path fill="none" stroke="#63b8ff" d="M607.55,-60.45C599.13,-58.6 590.61,-56.75 582.5,-55 526.09,-42.86 461.16,-29.36 417.96,-20.45"/>
<polygon fill="#63b8ff" stroke="#63b8ff" points="418.51,-16.99 408.01,-18.4 417.1,-23.85 418.51,-16.99"/>
</a>
</g>
</g>
<!-- Node17&#45;&gt;Node6 -->
<g id="edge22_Node000017_Node000006" class="edge">
<title>Node17&#45;&gt;Node6</title>
<g id="a_edge22_Node000017_Node000006"><a xlink:title=" ">
<path fill="none" stroke="#63b8ff" d="M2000.78,-60.46C1992.02,-58.46 1983.04,-56.56 1974.5,-55 1859.96,-34.06 1722.7,-19.83 1658.29,-13.78"/>
<polygon fill="#63b8ff" stroke="#63b8ff" points="1658.5,-10.29 1648.22,-12.85 1657.86,-17.26 1658.5,-10.29"/>
</a>
</g>
</g>
</g>
</svg>
