<?xml version="1.0" encoding="UTF-8" standalone="no"?>
<!DOCTYPE svg PUBLIC "-//W3C//DTD SVG 1.1//EN"
 "http://www.w3.org/Graphics/SVG/1.1/DTD/svg11.dtd">
<!-- Generated by graphviz version 2.43.0 (0)
 -->
<!-- Title: include/Hermes/Socket/_base/Transfer/TlsTransferStateMachine.hpp Pages: 1 -->
<svg width="3084pt" height="445pt"
 viewBox="0.00 0.00 3084.48 445.00" xmlns="http://www.w3.org/2000/svg" xmlns:xlink="http://www.w3.org/1999/xlink">
<g id="graph0" class="graph" transform="scale(1 1) rotate(0) translate(4 441)">
<title>include/Hermes/Socket/_base/Transfer/TlsTransferStateMachine.hpp</title>
<!-- Node1 -->
<g id="Node000001" class="node">
<title>Node1</title>
<g id="a_Node000001"><a xlink:title=" ">
<polygon fill="#999999" stroke="#666666" points="2445.5,-437 2299.5,-437 2299.5,-396 2445.5,-396 2445.5,-437"/>
<text text-anchor="start" x="2307.5" y="-425" font-family="Helvetica,sans-Serif" font-size="10.00">include/Hermes/Socket</text>
<text text-anchor="start" x="2307.5" y="-414" font-family="Helvetica,sans-Serif" font-size="10.00">/_base/Transfer/TlsTransfer</text>
<text text-anchor="middle" x="2372.5" y="-403" font-family="Helvetica,sans-Serif" font-size="10.00">StateMachine.hpp</text>
</a>
</g>
</g>
<!-- Node2 -->
<g id="Node000002" class="node">
<title>Node2</title>
<g id="a_Node000002"><a xlink:href="__base_8hpp.html" target="_top" xlink:title=" ">
<polygon fill="white" stroke="#666666" points="2394,-283 2251,-283 2251,-264 2394,-264 2394,-283"/>
<text text-anchor="middle" x="2322.5" y="-271" font-family="Helvetica,sans-Serif" font-size="10.00">Hermes/Socket/_base.hpp</text>
</a>
</g>
</g>
<!-- Node1&#45;&gt;Node2 -->
<g id="edge1_Node000001_Node000002" class="edge">
<title>Node1&#45;&gt;Node2</title>
<g id="a_edge1_Node000001_Node000002"><a xlink:title=" ">
<path fill="none" stroke="#63b8ff" d="M2359.7,-395.89C2353.44,-385.56 2346.25,-372.48 2341.5,-360 2333.06,-337.85 2327.86,-310.98 2325.07,-293.35"/>
<polygon fill="#63b8ff" stroke="#63b8ff" points="2328.5,-292.62 2323.59,-283.24 2321.58,-293.64 2328.5,-292.62"/>
</a>
</g>
</g>
<!-- Node12 -->
<g id="Node000012" class="node">
<title>Node12</title>
<g id="a_Node000012"><a xlink:href="_os_api_8hpp.html" target="_top" xlink:title=" ">
<polygon fill="white" stroke="#666666" points="1358.5,-162 1240.5,-162 1240.5,-132 1358.5,-132 1358.5,-162"/>
<text text-anchor="start" x="1248.5" y="-150" font-family="Helvetica,sans-Serif" font-size="10.00">Hermes/_base/OsApi</text>
<text text-anchor="middle" x="1299.5" y="-139" font-family="Helvetica,sans-Serif" font-size="10.00">/OsApi.hpp</text>
</a>
</g>
</g>
<!-- Node1&#45;&gt;Node12 -->
<g id="edge41_Node000001_Node000012" class="edge">
<title>Node1&#45;&gt;Node12</title>
<g id="a_edge41_Node000001_Node000012"><a xlink:title=" ">
<path fill="none" stroke="#63b8ff" d="M2299.17,-397.22C2100.69,-347.74 1555.19,-211.74 1365.53,-164.46"/>
<polygon fill="#63b8ff" stroke="#63b8ff" points="1366.24,-161.03 1355.69,-162.01 1364.55,-167.82 1366.24,-161.03"/>
</a>
</g>
</g>
<!-- Node33 -->
<g id="Node000033" class="node">
<title>Node33</title>
<g id="a_Node000033"><a xlink:href="_i_tls_transfer_state_machine_8hpp.html" target="_top" xlink:title=" ">
<polygon fill="white" stroke="#666666" points="2494,-360 2351,-360 2351,-319 2494,-319 2494,-360"/>
<text text-anchor="start" x="2359" y="-348" font-family="Helvetica,sans-Serif" font-size="10.00">Hermes/Socket/_base</text>
<text text-anchor="start" x="2359" y="-337" font-family="Helvetica,sans-Serif" font-size="10.00">/Transfer/ITlsTransferState</text>
<text text-anchor="middle" x="2422.5" y="-326" font-family="Helvetica,sans-Serif" font-size="10.00">Machine.hpp</text>
</a>
</g>
</g>
<!-- Node1&#45;&gt;Node33 -->
<g id="edge42_Node000001_Node000033" class="edge">
<title>Node1&#45;&gt;Node33</title>
<g id="a_edge42_Node000001_Node000033"><a xlink:title=" ">
<path fill="none" stroke="#63b8ff" d="M2385.64,-395.79C2391.21,-387.44 2397.8,-377.55 2403.86,-368.47"/>
<polygon fill="#63b8ff" stroke="#63b8ff" points="2406.82,-370.34 2409.45,-360.07 2400.99,-366.45 2406.82,-370.34"/>
</a>
</g>
</g>
<!-- Node34 -->
<g id="Node000034" class="node">
<title>Node34</title>
<g id="a_Node000034"><a xlink:title=" ">
<polygon fill="#e0e0e0" stroke="#999999" points="2652.5,-360 2512.5,-360 2512.5,-319 2652.5,-319 2652.5,-360"/>
<text text-anchor="start" x="2520.5" y="-348" font-family="Helvetica,sans-Serif" font-size="10.00">Hermes/Socket/_base</text>
<text text-anchor="start" x="2520.5" y="-337" font-family="Helvetica,sans-Serif" font-size="10.00">/Transfer/TlsTransferState</text>
<text text-anchor="middle" x="2582.5" y="-326" font-family="Helvetica,sans-Serif" font-size="10.00">Machine.tpp</text>
</a>
</g>
</g>
<!-- Node1&#45;&gt;Node34 -->
<g id="edge46_Node000001_Node000034" class="edge">
<title>Node1&#45;&gt;Node34</title>
<g id="a_edge46_Node000001_Node000034"><a xlink:title=" ">
<path fill="none" stroke="#63b8ff" d="M2427.13,-395.99C2454.97,-386.05 2489,-373.89 2518.11,-363.49"/>
<polygon fill="#63b8ff" stroke="#63b8ff" points="2519.54,-366.7 2527.78,-360.04 2517.19,-360.11 2519.54,-366.7"/>
</a>
</g>
</g>
<!-- Node3 -->
<g id="Node000003" class="node">
<title>Node3</title>
<g id="a_Node000003"><a xlink:href="_endpoint_concept_8hpp.html" target="_top" xlink:title=" ">
<polygon fill="white" stroke="#666666" points="2388.5,-228 2256.5,-228 2256.5,-198 2388.5,-198 2388.5,-228"/>
<text text-anchor="start" x="2264.5" y="-216" font-family="Helvetica,sans-Serif" font-size="10.00">Hermes/Endpoint/_base</text>
<text text-anchor="middle" x="2322.5" y="-205" font-family="Helvetica,sans-Serif" font-size="10.00">/EndpointConcept.hpp</text>
</a>
</g>
</g>
<!-- Node2&#45;&gt;Node3 -->
<g id="edge2_Node000002_Node000003" class="edge">
<title>Node2&#45;&gt;Node3</title>
<g id="a_edge2_Node000002_Node000003"><a xlink:title=" ">
<path fill="none" stroke="#63b8ff" d="M2322.5,-263.87C2322.5,-257.11 2322.5,-247.35 2322.5,-238.26"/>
<polygon fill="#63b8ff" stroke="#63b8ff" points="2326,-238.11 2322.5,-228.11 2319,-238.11 2326,-238.11"/>
</a>
</g>
</g>
<!-- Node4 -->
<g id="Node000004" class="node">
<title>Node4</title>
<g id="a_Node000004"><a xlink:href="_connection_error_enum_8hpp.html" target="_top" xlink:title=" ">
<polygon fill="white" stroke="#666666" points="2673,-162 2506,-162 2506,-132 2673,-132 2673,-162"/>
<text text-anchor="start" x="2514" y="-150" font-family="Helvetica,sans-Serif" font-size="10.00">Hermes/_base/ConnectionError</text>
<text text-anchor="middle" x="2589.5" y="-139" font-family="Helvetica,sans-Serif" font-size="10.00">Enum.hpp</text>
</a>
</g>
</g>
<!-- Node2&#45;&gt;Node4 -->
<g id="edge36_Node000002_Node000004" class="edge">
<title>Node2&#45;&gt;Node4</title>
<g id="a_edge36_Node000002_Node000004"><a xlink:title=" ">
<path fill="none" stroke="#63b8ff" d="M2344.63,-263.95C2366.61,-255.32 2401.17,-241.4 2430.5,-228 2473.61,-208.31 2522.13,-183.5 2554.11,-166.77"/>
<polygon fill="#63b8ff" stroke="#63b8ff" points="2555.84,-169.81 2563.07,-162.07 2552.59,-163.61 2555.84,-169.81"/>
</a>
</g>
</g>
<!-- Node9 -->
<g id="Node000009" class="node">
<title>Node9</title>
<g id="a_Node000009"><a xlink:title=" ">
<polygon fill="#e0e0e0" stroke="#999999" points="2417,-85 2292,-85 2292,-66 2417,-66 2417,-85"/>
<text text-anchor="middle" x="2354.5" y="-73" font-family="Helvetica,sans-Serif" font-size="10.00">stdexec/execution.hpp</text>
</a>
</g>
</g>
<!-- Node2&#45;&gt;Node9 -->
<g id="edge38_Node000002_Node000009" class="edge">
<title>Node2&#45;&gt;Node9</title>
<g id="a_edge38_Node000002_Node000009"><a xlink:title=" ">
<path fill="none" stroke="#63b8ff" d="M2350.15,-263.98C2367.08,-257.17 2387.39,-245.76 2397.5,-228 2422.89,-183.41 2387.94,-122.77 2367.48,-93.58"/>
<polygon fill="#63b8ff" stroke="#63b8ff" points="2370.15,-91.3 2361.44,-85.27 2364.48,-95.42 2370.15,-91.3"/>
</a>
</g>
</g>
<!-- Node2&#45;&gt;Node12 -->
<g id="edge37_Node000002_Node000012" class="edge">
<title>Node2&#45;&gt;Node12</title>
<g id="a_edge37_Node000002_Node000012"><a xlink:title=" ">
<path fill="none" stroke="#63b8ff" d="M2252.59,-263.99C2065.44,-241.22 1554.69,-179.06 1368.55,-156.4"/>
<polygon fill="#63b8ff" stroke="#63b8ff" points="1368.96,-152.93 1358.61,-155.19 1368.11,-159.88 1368.96,-152.93"/>
</a>
</g>
</g>
<!-- Node31 -->
<g id="Node000031" class="node">
<title>Node31</title>
<g id="a_Node000031"><a xlink:title=" ">
<polygon fill="#e0e0e0" stroke="#999999" points="2170.5,-222.5 2110.5,-222.5 2110.5,-203.5 2170.5,-203.5 2170.5,-222.5"/>
<text text-anchor="middle" x="2140.5" y="-210.5" font-family="Helvetica,sans-Serif" font-size="10.00">concepts</text>
</a>
</g>
</g>
<!-- Node2&#45;&gt;Node31 -->
<g id="edge39_Node000002_Node000031" class="edge">
<title>Node2&#45;&gt;Node31</title>
<g id="a_edge39_Node000002_Node000031"><a xlink:title=" ">
<path fill="none" stroke="#63b8ff" d="M2293.9,-263.99C2264.95,-255.29 2218.95,-241.21 2179.5,-228 2177.61,-227.37 2175.67,-226.7 2173.71,-226.03"/>
<polygon fill="#63b8ff" stroke="#63b8ff" points="2174.55,-222.62 2163.95,-222.6 2172.23,-229.22 2174.55,-222.62"/>
</a>
</g>
</g>
<!-- Node32 -->
<g id="Node000032" class="node">
<title>Node32</title>
<g id="a_Node000032"><a xlink:title=" ">
<polygon fill="#e0e0e0" stroke="#999999" points="2238.5,-222.5 2188.5,-222.5 2188.5,-203.5 2238.5,-203.5 2238.5,-222.5"/>
<text text-anchor="middle" x="2213.5" y="-210.5" font-family="Helvetica,sans-Serif" font-size="10.00">ranges</text>
</a>
</g>
</g>
<!-- Node2&#45;&gt;Node32 -->
<g id="edge40_Node000002_Node000032" class="edge">
<title>Node2&#45;&gt;Node32</title>
<g id="a_edge40_Node000002_Node000032"><a xlink:title=" ">
<path fill="none" stroke="#63b8ff" d="M2306.42,-263.87C2288.55,-254.28 2259.46,-238.67 2238.59,-227.47"/>
<polygon fill="#63b8ff" stroke="#63b8ff" points="2240.12,-224.31 2229.65,-222.67 2236.81,-230.48 2240.12,-224.31"/>
</a>
</g>
</g>
<!-- Node3&#45;&gt;Node4 -->
<g id="edge3_Node000003_Node000004" class="edge">
<title>Node3&#45;&gt;Node4</title>
<g id="a_edge3_Node000003_Node000004"><a xlink:title=" ">
<path fill="none" stroke="#63b8ff" d="M2381.09,-197.95C2422.39,-188.06 2477.84,-174.77 2521.15,-164.38"/>
<polygon fill="#63b8ff" stroke="#63b8ff" points="2522.13,-167.75 2531.04,-162.01 2520.5,-160.94 2522.13,-167.75"/>
</a>
</g>
</g>
<!-- Node3&#45;&gt;Node12 -->
<g id="edge11_Node000003_Node000012" class="edge">
<title>Node3&#45;&gt;Node12</title>
<g id="a_edge11_Node000003_Node000012"><a xlink:title=" ">
<path fill="none" stroke="#63b8ff" d="M2256.32,-199.16C2253.34,-198.73 2250.39,-198.34 2247.5,-198 1920.34,-159.01 1526.06,-150.42 1368.98,-148.53"/>
<polygon fill="#63b8ff" stroke="#63b8ff" points="1368.57,-145.03 1358.53,-148.41 1368.49,-152.03 1368.57,-145.03"/>
</a>
</g>
</g>
<!-- Node5 -->
<g id="Node000005" class="node">
<title>Node5</title>
<g id="a_Node000005"><a xlink:title=" ">
<polygon fill="#e0e0e0" stroke="#999999" points="2921.5,-85 2859.5,-85 2859.5,-66 2921.5,-66 2921.5,-85"/>
<text text-anchor="middle" x="2890.5" y="-73" font-family="Helvetica,sans-Serif" font-size="10.00">expected</text>
</a>
</g>
</g>
<!-- Node4&#45;&gt;Node5 -->
<g id="edge4_Node000004_Node000005" class="edge">
<title>Node4&#45;&gt;Node5</title>
<g id="a_edge4_Node000004_Node000005"><a xlink:title=" ">
<path fill="none" stroke="#63b8ff" d="M2673.01,-136.04C2725.23,-128.36 2793.38,-115.66 2851.5,-96 2856.57,-94.29 2861.81,-92.03 2866.75,-89.67"/>
<polygon fill="#63b8ff" stroke="#63b8ff" points="2868.41,-92.75 2875.73,-85.09 2865.23,-86.51 2868.41,-92.75"/>
</a>
</g>
</g>
<!-- Node6 -->
<g id="Node000006" class="node">
<title>Node6</title>
<g id="a_Node000006"><a xlink:title=" ">
<polygon fill="#e0e0e0" stroke="#999999" points="2987,-85 2940,-85 2940,-66 2987,-66 2987,-85"/>
<text text-anchor="middle" x="2963.5" y="-73" font-family="Helvetica,sans-Serif" font-size="10.00">vector</text>
</a>
</g>
</g>
<!-- Node4&#45;&gt;Node6 -->
<g id="edge5_Node000004_Node000006" class="edge">
<title>Node4&#45;&gt;Node6</title>
<g id="a_edge5_Node000004_Node000006"><a xlink:title=" ">
<path fill="none" stroke="#63b8ff" d="M2673.3,-142.74C2743.69,-137.89 2846.02,-125.85 2930.5,-96 2934.66,-94.53 2938.89,-92.51 2942.86,-90.32"/>
<polygon fill="#63b8ff" stroke="#63b8ff" points="2944.76,-93.27 2951.52,-85.11 2941.15,-87.27 2944.76,-93.27"/>
</a>
</g>
</g>
<!-- Node7 -->
<g id="Node000007" class="node">
<title>Node7</title>
<g id="a_Node000007"><a xlink:title=" ">
<polygon fill="#e0e0e0" stroke="#999999" points="3045.5,-85 3005.5,-85 3005.5,-66 3045.5,-66 3045.5,-85"/>
<text text-anchor="middle" x="3025.5" y="-73" font-family="Helvetica,sans-Serif" font-size="10.00">span</text>
</a>
</g>
</g>
<!-- Node4&#45;&gt;Node7 -->
<g id="edge6_Node000004_Node000007" class="edge">
<title>Node4&#45;&gt;Node7</title>
<g id="a_edge6_Node000004_Node000007"><a xlink:title=" ">
<path fill="none" stroke="#63b8ff" d="M2673.23,-140.33C2774.65,-132.66 2939.05,-117.43 2996.5,-96 3000.12,-94.65 3003.74,-92.76 3007.13,-90.69"/>
<polygon fill="#63b8ff" stroke="#63b8ff" points="3009.15,-93.55 3015.42,-85.01 3005.19,-87.77 3009.15,-93.55"/>
</a>
</g>
</g>
<!-- Node8 -->
<g id="Node000008" class="node">
<title>Node8</title>
<g id="a_Node000008"><a xlink:title=" ">
<polygon fill="#e0e0e0" stroke="#999999" points="2504,-85 2435,-85 2435,-66 2504,-66 2504,-85"/>
<text text-anchor="middle" x="2469.5" y="-73" font-family="Helvetica,sans-Serif" font-size="10.00">type_traits</text>
</a>
</g>
</g>
<!-- Node4&#45;&gt;Node8 -->
<g id="edge7_Node000004_Node000008" class="edge">
<title>Node4&#45;&gt;Node8</title>
<g id="a_edge7_Node000004_Node000008"><a xlink:title=" ">
<path fill="none" stroke="#63b8ff" d="M2565.22,-131.94C2544.19,-119.76 2513.97,-102.26 2493.14,-90.19"/>
<polygon fill="#63b8ff" stroke="#63b8ff" points="2494.7,-87.05 2484.29,-85.07 2491.19,-93.11 2494.7,-87.05"/>
</a>
</g>
</g>
<!-- Node4&#45;&gt;Node9 -->
<g id="edge8_Node000004_Node000009" class="edge">
<title>Node4&#45;&gt;Node9</title>
<g id="a_edge8_Node000004_Node000009"><a xlink:title=" ">
<path fill="none" stroke="#63b8ff" d="M2541.94,-131.94C2498.18,-118.99 2434.05,-100.03 2393.3,-87.97"/>
<polygon fill="#63b8ff" stroke="#63b8ff" points="2394.05,-84.55 2383.47,-85.07 2392.07,-91.26 2394.05,-84.55"/>
</a>
</g>
</g>
<!-- Node10 -->
<g id="Node000010" class="node">
<title>Node10</title>
<g id="a_Node000010"><a xlink:title=" ">
<polygon fill="#e0e0e0" stroke="#999999" points="2656.5,-85 2522.5,-85 2522.5,-66 2656.5,-66 2656.5,-85"/>
<text text-anchor="middle" x="2589.5" y="-73" font-family="Helvetica,sans-Serif" font-size="10.00">exec/any_sender_of.hpp</text>
</a>
</g>
</g>
<!-- Node4&#45;&gt;Node10 -->
<g id="edge9_Node000004_Node000010" class="edge">
<title>Node4&#45;&gt;Node10</title>
<g id="a_edge9_Node000004_Node000010"><a xlink:title=" ">
<path fill="none" stroke="#63b8ff" d="M2589.5,-131.94C2589.5,-121.46 2589.5,-107.05 2589.5,-95.55"/>
<polygon fill="#63b8ff" stroke="#63b8ff" points="2593,-95.27 2589.5,-85.27 2586,-95.27 2593,-95.27"/>
</a>
</g>
</g>
<!-- Node11 -->
<g id="Node000011" class="node">
<title>Node11</title>
<g id="a_Node000011"><a xlink:title=" ">
<polygon fill="#e0e0e0" stroke="#999999" points="2842,-90.5 2675,-90.5 2675,-60.5 2842,-60.5 2842,-90.5"/>
<text text-anchor="start" x="2683" y="-78.5" font-family="Helvetica,sans-Serif" font-size="10.00">Hermes/_base/ConnectionError</text>
<text text-anchor="middle" x="2758.5" y="-67.5" font-family="Helvetica,sans-Serif" font-size="10.00">Enum.tpp</text>
</a>
</g>
</g>
<!-- Node4&#45;&gt;Node11 -->
<g id="edge10_Node000004_Node000011" class="edge">
<title>Node4&#45;&gt;Node11</title>
<g id="a_edge10_Node000004_Node000011"><a xlink:title=" ">
<path fill="none" stroke="#63b8ff" d="M2623.7,-131.94C2650.04,-121.1 2686.64,-106.05 2715.06,-94.37"/>
<polygon fill="#63b8ff" stroke="#63b8ff" points="2716.43,-97.58 2724.35,-90.54 2713.77,-91.11 2716.43,-97.58"/>
</a>
</g>
</g>
<!-- Node13 -->
<g id="Node000013" class="node">
<title>Node13</title>
<g id="a_Node000013"><a xlink:title=" ">
<polygon fill="#e0e0e0" stroke="#999999" points="1458,-19 1381,-19 1381,0 1458,0 1458,-19"/>
<text text-anchor="middle" x="1419.5" y="-7" font-family="Helvetica,sans-Serif" font-size="10.00">sys/socket.h</text>
</a>
</g>
</g>
<!-- Node12&#45;&gt;Node13 -->
<g id="edge12_Node000012_Node000013" class="edge">
<title>Node12&#45;&gt;Node13</title>
<g id="a_edge12_Node000012_Node000013"><a xlink:title=" ">
<path fill="none" stroke="#63b8ff" d="M1348.41,-131.97C1367.26,-124.23 1387.4,-112.71 1400.5,-96 1415.57,-76.77 1419.21,-48.01 1419.83,-29.24"/>
<polygon fill="#63b8ff" stroke="#63b8ff" points="1423.33,-29.05 1419.9,-19.03 1416.33,-29.01 1423.33,-29.05"/>
</a>
</g>
</g>
<!-- Node14 -->
<g id="Node000014" class="node">
<title>Node14</title>
<g id="a_Node000014"><a xlink:title=" ">
<polygon fill="#e0e0e0" stroke="#999999" points="873.5,-19 801.5,-19 801.5,0 873.5,0 873.5,-19"/>
<text text-anchor="middle" x="837.5" y="-7" font-family="Helvetica,sans-Serif" font-size="10.00">netinet/in.h</text>
</a>
</g>
</g>
<!-- Node12&#45;&gt;Node14 -->
<g id="edge13_Node000012_Node000014" class="edge">
<title>Node12&#45;&gt;Node14</title>
<g id="a_edge13_Node000012_Node000014"><a xlink:title=" ">
<path fill="none" stroke="#63b8ff" d="M1240.4,-144.51C1113.48,-140.71 823.96,-128.52 794.5,-96 782.27,-82.5 787.67,-71.89 794.5,-55 799.19,-43.41 808.5,-33.16 817.26,-25.43"/>
<polygon fill="#63b8ff" stroke="#63b8ff" points="819.5,-28.12 825.01,-19.07 815.06,-22.71 819.5,-28.12"/>
</a>
</g>
</g>
<!-- Node15 -->
<g id="Node000015" class="node">
<title>Node15</title>
<g id="a_Node000015"><a xlink:title=" ">
<polygon fill="#e0e0e0" stroke="#999999" points="511,-85 442,-85 442,-66 511,-66 511,-85"/>
<text text-anchor="middle" x="476.5" y="-73" font-family="Helvetica,sans-Serif" font-size="10.00">arpa/inet.h</text>
</a>
</g>
</g>
<!-- Node12&#45;&gt;Node15 -->
<g id="edge14_Node000012_Node000015" class="edge">
<title>Node12&#45;&gt;Node15</title>
<g id="a_edge14_Node000012_Node000015"><a xlink:title=" ">
<path fill="none" stroke="#63b8ff" d="M1240.35,-144.89C1083,-141.52 656.89,-129.47 520.5,-96 514.26,-94.47 507.8,-92.1 501.82,-89.53"/>
<polygon fill="#63b8ff" stroke="#63b8ff" points="502.86,-86.16 492.32,-85.14 499.92,-92.51 502.86,-86.16"/>
</a>
</g>
</g>
<!-- Node16 -->
<g id="Node000016" class="node">
<title>Node16</title>
<g id="a_Node000016"><a xlink:title=" ">
<polygon fill="#e0e0e0" stroke="#999999" points="534,-19 481,-19 481,0 534,0 534,-19"/>
<text text-anchor="middle" x="507.5" y="-7" font-family="Helvetica,sans-Serif" font-size="10.00">netdb.h</text>
</a>
</g>
</g>
<!-- Node12&#45;&gt;Node16 -->
<g id="edge15_Node000012_Node000016" class="edge">
<title>Node12&#45;&gt;Node16</title>
<g id="a_edge15_Node000012_Node000016"><a xlink:title=" ">
<path fill="none" stroke="#63b8ff" d="M1240.39,-144.79C1049.5,-140.62 460.23,-125.38 432.5,-96 419.99,-82.75 423.48,-70.83 432.5,-55 440.98,-40.11 456.63,-29.68 471.44,-22.69"/>
<polygon fill="#63b8ff" stroke="#63b8ff" points="473.18,-25.75 480.98,-18.58 470.41,-19.32 473.18,-25.75"/>
</a>
</g>
</g>
<!-- Node17 -->
<g id="Node000017" class="node">
<title>Node17</title>
<g id="a_Node000017"><a xlink:title=" ">
<polygon fill="#e0e0e0" stroke="#999999" points="747.5,-85 691.5,-85 691.5,-66 747.5,-66 747.5,-85"/>
<text text-anchor="middle" x="719.5" y="-73" font-family="Helvetica,sans-Serif" font-size="10.00">unistd.h</text>
</a>
</g>
</g>
<!-- Node12&#45;&gt;Node17 -->
<g id="edge16_Node000012_Node000017" class="edge">
<title>Node12&#45;&gt;Node17</title>
<g id="a_edge16_Node000012_Node000017"><a xlink:title=" ">
<path fill="none" stroke="#63b8ff" d="M1240.24,-143.05C1119.84,-136.62 850.48,-120.02 761.5,-96 755.53,-94.39 749.36,-91.99 743.65,-89.42"/>
<polygon fill="#63b8ff" stroke="#63b8ff" points="745.11,-86.23 734.58,-85.03 742.06,-92.54 745.11,-86.23"/>
</a>
</g>
</g>
<!-- Node18 -->
<g id="Node000018" class="node">
<title>Node18</title>
<g id="a_Node000018"><a xlink:href="_conversion_and_literals_8hpp.html" target="_top" xlink:title=" ">
<polygon fill="white" stroke="#666666" points="2080.5,-90.5 1930.5,-90.5 1930.5,-60.5 2080.5,-60.5 2080.5,-90.5"/>
<text text-anchor="start" x="1938.5" y="-78.5" font-family="Helvetica,sans-Serif" font-size="10.00">Hermes/_base/OsApi</text>
<text text-anchor="middle" x="2005.5" y="-67.5" font-family="Helvetica,sans-Serif" font-size="10.00">/ConversionAndLiterals.hpp</text>
</a>
</g>
</g>
<!-- Node12&#45;&gt;Node18 -->
<g id="edge17_Node000012_Node000018" class="edge">
<title>Node12&#45;&gt;Node18</title>
<g id="a_edge17_Node000012_Node000018"><a xlink:title=" ">
<path fill="none" stroke="#63b8ff" d="M1358.58,-144.16C1469.5,-140.06 1716.23,-127.9 1921.5,-96 1927.62,-95.05 1933.95,-93.9 1940.27,-92.63"/>
<polygon fill="#63b8ff" stroke="#63b8ff" points="1941.08,-96.04 1950.15,-90.57 1939.65,-89.19 1941.08,-96.04"/>
</a>
</g>
</g>
<!-- Node20 -->
<g id="Node000020" class="node">
<title>Node20</title>
<g id="a_Node000020"><a xlink:href="_macros_8hpp.html" target="_top" xlink:title=" ">
<polygon fill="white" stroke="#666666" points="1912.5,-90.5 1794.5,-90.5 1794.5,-60.5 1912.5,-60.5 1912.5,-90.5"/>
<text text-anchor="start" x="1802.5" y="-78.5" font-family="Helvetica,sans-Serif" font-size="10.00">Hermes/_base/OsApi</text>
<text text-anchor="middle" x="1853.5" y="-67.5" font-family="Helvetica,sans-Serif" font-size="10.00">/Macros.hpp</text>
</a>
</g>
</g>
<!-- Node12&#45;&gt;Node20 -->
<g id="edge19_Node000012_Node000020" class="edge">
<title>Node12&#45;&gt;Node20</title>
<g id="a_edge19_Node000012_Node000020"><a xlink:title=" ">
<path fill="none" stroke="#63b8ff" d="M1358.72,-143.29C1450.74,-138.31 1633.31,-125.41 1785.5,-96 1789.89,-95.15 1794.41,-94.15 1798.93,-93.05"/>
<polygon fill="#63b8ff" stroke="#63b8ff" points="1799.96,-96.4 1808.78,-90.54 1798.23,-89.62 1799.96,-96.4"/>
</a>
</g>
</g>
<!-- Node22 -->
<g id="Node000022" class="node">
<title>Node22</title>
<g id="a_Node000022"><a xlink:href="_address_family_enum_8hpp.html" target="_top" xlink:title=" ">
<polygon fill="white" stroke="#666666" points="1189.5,-90.5 1013.5,-90.5 1013.5,-60.5 1189.5,-60.5 1189.5,-90.5"/>
<text text-anchor="start" x="1021.5" y="-78.5" font-family="Helvetica,sans-Serif" font-size="10.00">Hermes/_base/OsApi</text>
<text text-anchor="middle" x="1101.5" y="-67.5" font-family="Helvetica,sans-Serif" font-size="10.00">/Enums/AddressFamilyEnum.hpp</text>
</a>
</g>
</g>
<!-- Node12&#45;&gt;Node22 -->
<g id="edge22_Node000012_Node000022" class="edge">
<title>Node12&#45;&gt;Node22</title>
<g id="a_edge22_Node000012_Node000022"><a xlink:title=" ">
<path fill="none" stroke="#63b8ff" d="M1259.43,-131.94C1228.17,-120.96 1184.57,-105.66 1151.1,-93.91"/>
<polygon fill="#63b8ff" stroke="#63b8ff" points="1152.1,-90.55 1141.51,-90.54 1149.79,-97.16 1152.1,-90.55"/>
</a>
</g>
</g>
<!-- Node23 -->
<g id="Node000023" class="node">
<title>Node23</title>
<g id="a_Node000023"><a xlink:href="_protocol_base_type_enum_8hpp.html" target="_top" xlink:title=" ">
<polygon fill="white" stroke="#666666" points="995,-90.5 804,-90.5 804,-60.5 995,-60.5 995,-90.5"/>
<text text-anchor="start" x="812" y="-78.5" font-family="Helvetica,sans-Serif" font-size="10.00">Hermes/_base/OsApi</text>
<text text-anchor="middle" x="899.5" y="-67.5" font-family="Helvetica,sans-Serif" font-size="10.00">/Enums/ProtocolBaseTypeEnum.hpp</text>
</a>
</g>
</g>
<!-- Node12&#45;&gt;Node23 -->
<g id="edge24_Node000012_Node000023" class="edge">
<title>Node12&#45;&gt;Node23</title>
<g id="a_edge24_Node000012_Node000023"><a xlink:title=" ">
<path fill="none" stroke="#63b8ff" d="M1240.4,-136.26C1180.81,-126.38 1086.2,-110.51 1004.5,-96 997.94,-94.83 991.15,-93.61 984.33,-92.37"/>
<polygon fill="#63b8ff" stroke="#63b8ff" points="984.79,-88.9 974.33,-90.55 983.53,-95.79 984.79,-88.9"/>
</a>
</g>
</g>
<!-- Node24 -->
<g id="Node000024" class="node">
<title>Node24</title>
<g id="a_Node000024"><a xlink:href="_socket_shutdown_enum_8hpp.html" target="_top" xlink:title=" ">
<polygon fill="white" stroke="#666666" points="1392,-90.5 1207,-90.5 1207,-60.5 1392,-60.5 1392,-90.5"/>
<text text-anchor="start" x="1215" y="-78.5" font-family="Helvetica,sans-Serif" font-size="10.00">Hermes/_base/OsApi</text>
<text text-anchor="middle" x="1299.5" y="-67.5" font-family="Helvetica,sans-Serif" font-size="10.00">/Enums/SocketShutdownEnum.hpp</text>
</a>
</g>
</g>
<!-- Node12&#45;&gt;Node24 -->
<g id="edge26_Node000012_Node000024" class="edge">
<title>Node12&#45;&gt;Node24</title>
<g id="a_edge26_Node000012_Node000024"><a xlink:title=" ">
<path fill="none" stroke="#63b8ff" d="M1299.5,-131.94C1299.5,-122.99 1299.5,-111.16 1299.5,-100.73"/>
<polygon fill="#63b8ff" stroke="#63b8ff" points="1303,-100.54 1299.5,-90.54 1296,-100.54 1303,-100.54"/>
</a>
</g>
</g>
<!-- Node25 -->
<g id="Node000025" class="node">
<title>Node25</title>
<g id="a_Node000025"><a xlink:href="_socket_type_enum_8hpp.html" target="_top" xlink:title=" ">
<polygon fill="white" stroke="#666666" points="1606,-90.5 1447,-90.5 1447,-60.5 1606,-60.5 1606,-90.5"/>
<text text-anchor="start" x="1455" y="-78.5" font-family="Helvetica,sans-Serif" font-size="10.00">Hermes/_base/OsApi</text>
<text text-anchor="middle" x="1526.5" y="-67.5" font-family="Helvetica,sans-Serif" font-size="10.00">/Enums/SocketTypeEnum.hpp</text>
</a>
</g>
</g>
<!-- Node12&#45;&gt;Node25 -->
<g id="edge28_Node000012_Node000025" class="edge">
<title>Node12&#45;&gt;Node25</title>
<g id="a_edge28_Node000012_Node000025"><a xlink:title=" ">
<path fill="none" stroke="#63b8ff" d="M1345.44,-131.94C1381.59,-120.87 1432.12,-105.4 1470.62,-93.61"/>
<polygon fill="#63b8ff" stroke="#63b8ff" points="1472.09,-96.82 1480.63,-90.54 1470.04,-90.12 1472.09,-96.82"/>
</a>
</g>
</g>
<!-- Node26 -->
<g id="Node000026" class="node">
<title>Node26</title>
<g id="a_Node000026"><a xlink:href="_linux_2_encrypt_status_enum_8hpp.html" target="_top" xlink:title=" ">
<polygon fill="white" stroke="#666666" points="1776.5,-96 1624.5,-96 1624.5,-55 1776.5,-55 1776.5,-96"/>
<text text-anchor="start" x="1632.5" y="-84" font-family="Helvetica,sans-Serif" font-size="10.00">Hermes/_base/OsApi</text>
<text text-anchor="start" x="1632.5" y="-73" font-family="Helvetica,sans-Serif" font-size="10.00">/Enums/Linux/EncryptStatus</text>
<text text-anchor="middle" x="1700.5" y="-62" font-family="Helvetica,sans-Serif" font-size="10.00">Enum.hpp</text>
</a>
</g>
</g>
<!-- Node12&#45;&gt;Node26 -->
<g id="edge30_Node000012_Node000026" class="edge">
<title>Node12&#45;&gt;Node26</title>
<g id="a_edge30_Node000012_Node000026"><a xlink:title=" ">
<path fill="none" stroke="#63b8ff" d="M1358.63,-137.8C1419.91,-129.03 1518.7,-114.15 1614.02,-96.03"/>
<polygon fill="#63b8ff" stroke="#63b8ff" points="1614.96,-99.41 1624.12,-94.09 1613.64,-92.54 1614.96,-99.41"/>
</a>
</g>
</g>
<!-- Node27 -->
<g id="Node000027" class="node">
<title>Node27</title>
<g id="a_Node000027"><a xlink:href="_name_info_flags_8hpp.html" target="_top" xlink:title=" ">
<polygon fill="white" stroke="#666666" points="673.5,-90.5 529.5,-90.5 529.5,-60.5 673.5,-60.5 673.5,-90.5"/>
<text text-anchor="start" x="537.5" y="-78.5" font-family="Helvetica,sans-Serif" font-size="10.00">Hermes/_base/OsApi</text>
<text text-anchor="middle" x="601.5" y="-67.5" font-family="Helvetica,sans-Serif" font-size="10.00">/Flags/NameInfoFlags.hpp</text>
</a>
</g>
</g>
<!-- Node12&#45;&gt;Node27 -->
<g id="edge31_Node000012_Node000027" class="edge">
<title>Node12&#45;&gt;Node27</title>
<g id="a_edge31_Node000012_Node000027"><a xlink:title=" ">
<path fill="none" stroke="#63b8ff" d="M1240.44,-144.27C1130.16,-140.35 885.72,-128.49 682.5,-96 676.74,-95.08 670.78,-93.96 664.82,-92.74"/>
<polygon fill="#63b8ff" stroke="#63b8ff" points="665.37,-89.27 654.85,-90.59 663.89,-96.12 665.37,-89.27"/>
</a>
</g>
</g>
<!-- Node28 -->
<g id="Node000028" class="node">
<title>Node28</title>
<g id="a_Node000028"><a xlink:href="_linux_2_credential_flags_8hpp.html" target="_top" xlink:title=" ">
<polygon fill="white" stroke="#666666" points="2274.5,-90.5 2098.5,-90.5 2098.5,-60.5 2274.5,-60.5 2274.5,-90.5"/>
<text text-anchor="start" x="2106.5" y="-78.5" font-family="Helvetica,sans-Serif" font-size="10.00">Hermes/_base/OsApi</text>
<text text-anchor="middle" x="2186.5" y="-67.5" font-family="Helvetica,sans-Serif" font-size="10.00">/Flags/Linux/CredentialFlags.hpp</text>
</a>
</g>
</g>
<!-- Node12&#45;&gt;Node28 -->
<g id="edge33_Node000012_Node000028" class="edge">
<title>Node12&#45;&gt;Node28</title>
<g id="a_edge33_Node000012_Node000028"><a xlink:title=" ">
<path fill="none" stroke="#63b8ff" d="M1358.73,-144.98C1490.57,-142.12 1818.02,-131.71 2089.5,-96 2097.16,-94.99 2105.13,-93.74 2113.06,-92.35"/>
<polygon fill="#63b8ff" stroke="#63b8ff" points="2113.84,-95.77 2123.05,-90.53 2112.58,-88.88 2113.84,-95.77"/>
</a>
</g>
</g>
<!-- Node29 -->
<g id="Node000029" class="node">
<title>Node29</title>
<g id="a_Node000029"><a xlink:href="_linux_2_supported_protocols_flags_8hpp.html" target="_top" xlink:title=" ">
<polygon fill="white" stroke="#666666" points="173,-96 0,-96 0,-55 173,-55 173,-96"/>
<text text-anchor="start" x="8" y="-84" font-family="Helvetica,sans-Serif" font-size="10.00">Hermes/_base/OsApi</text>
<text text-anchor="start" x="8" y="-73" font-family="Helvetica,sans-Serif" font-size="10.00">/Flags/Linux/SupportedProtocols</text>
<text text-anchor="middle" x="86.5" y="-62" font-family="Helvetica,sans-Serif" font-size="10.00">Flags.hpp</text>
</a>
</g>
</g>
<!-- Node12&#45;&gt;Node29 -->
<g id="edge34_Node000012_Node000029" class="edge">
<title>Node12&#45;&gt;Node29</title>
<g id="a_edge34_Node000012_Node000029"><a xlink:title=" ">
<path fill="none" stroke="#63b8ff" d="M1240.49,-146.58C1075.03,-147.53 592.54,-145.57 182.97,-95.93"/>
<polygon fill="#63b8ff" stroke="#63b8ff" points="183.36,-92.46 173.01,-94.72 182.51,-99.4 183.36,-92.46"/>
</a>
</g>
</g>
<!-- Node30 -->
<g id="Node000030" class="node">
<title>Node30</title>
<g id="a_Node000030"><a xlink:href="_linux_2_s_channel_cred_flags_8hpp.html" target="_top" xlink:title=" ">
<polygon fill="white" stroke="#666666" points="385.5,-90.5 191.5,-90.5 191.5,-60.5 385.5,-60.5 385.5,-90.5"/>
<text text-anchor="start" x="199.5" y="-78.5" font-family="Helvetica,sans-Serif" font-size="10.00">Hermes/_base/OsApi</text>
<text text-anchor="middle" x="288.5" y="-67.5" font-family="Helvetica,sans-Serif" font-size="10.00">/Flags/Linux/SChannelCredFlags.hpp</text>
</a>
</g>
</g>
<!-- Node12&#45;&gt;Node30 -->
<g id="edge35_Node000012_Node000030" class="edge">
<title>Node12&#45;&gt;Node30</title>
<g id="a_edge35_Node000012_Node000030"><a xlink:title=" ">
<path fill="none" stroke="#63b8ff" d="M1240.33,-145.13C1096.09,-142.49 715.09,-132.36 399.5,-96 390.27,-94.94 380.64,-93.6 371.08,-92.12"/>
<polygon fill="#63b8ff" stroke="#63b8ff" points="371.59,-88.66 361.16,-90.53 370.49,-95.57 371.59,-88.66"/>
</a>
</g>
</g>
<!-- Node19 -->
<g id="Node000019" class="node">
<title>Node19</title>
<g id="a_Node000019"><a xlink:title=" ">
<polygon fill="#e0e0e0" stroke="#999999" points="2564.5,-19 2514.5,-19 2514.5,0 2564.5,0 2564.5,-19"/>
<text text-anchor="middle" x="2539.5" y="-7" font-family="Helvetica,sans-Serif" font-size="10.00">cstdint</text>
</a>
</g>
</g>
<!-- Node18&#45;&gt;Node19 -->
<g id="edge18_Node000018_Node000019" class="edge">
<title>Node18&#45;&gt;Node19</title>
<g id="a_edge18_Node000018_Node000019"><a xlink:title=" ">
<path fill="none" stroke="#63b8ff" d="M2061.33,-60.48C2070.69,-58.43 2080.34,-56.51 2089.5,-55 2242.7,-29.75 2427.77,-16.96 2504.03,-12.44"/>
<polygon fill="#63b8ff" stroke="#63b8ff" points="2504.69,-15.91 2514.47,-11.83 2504.29,-8.92 2504.69,-15.91"/>
</a>
</g>
</g>
<!-- Node20&#45;&gt;Node13 -->
<g id="edge21_Node000020_Node000013" class="edge">
<title>Node20&#45;&gt;Node13</title>
<g id="a_edge21_Node000020_Node000013"><a xlink:title=" ">
<path fill="none" stroke="#63b8ff" d="M1808.39,-60.49C1800.8,-58.44 1792.96,-56.51 1785.5,-55 1673.17,-32.21 1538.92,-19.53 1468.37,-13.97"/>
<polygon fill="#63b8ff" stroke="#63b8ff" points="1468.26,-10.45 1458.02,-13.17 1467.72,-17.43 1468.26,-10.45"/>
</a>
</g>
</g>
<!-- Node21 -->
<g id="Node000021" class="node">
<title>Node21</title>
<g id="a_Node000021"><a xlink:title=" ">
<polygon fill="#e0e0e0" stroke="#999999" points="1890,-19 1817,-19 1817,0 1890,0 1890,-19"/>
<text text-anchor="middle" x="1853.5" y="-7" font-family="Helvetica,sans-Serif" font-size="10.00">string_view</text>
</a>
</g>
</g>
<!-- Node20&#45;&gt;Node21 -->
<g id="edge20_Node000020_Node000021" class="edge">
<title>Node20&#45;&gt;Node21</title>
<g id="a_edge20_Node000020_Node000021"><a xlink:title=" ">
<path fill="none" stroke="#63b8ff" d="M1853.5,-60.3C1853.5,-51.2 1853.5,-39.29 1853.5,-29.4"/>
<polygon fill="#63b8ff" stroke="#63b8ff" points="1857,-29.34 1853.5,-19.34 1850,-29.34 1857,-29.34"/>
</a>
</g>
</g>
<!-- Node22&#45;&gt;Node13 -->
<g id="edge23_Node000022_Node000013" class="edge">
<title>Node22&#45;&gt;Node13</title>
<g id="a_edge23_Node000022_Node000013"><a xlink:title=" ">
<path fill="none" stroke="#63b8ff" d="M1170.45,-60.47C1179.55,-58.63 1188.75,-56.77 1197.5,-55 1257.2,-42.95 1325.95,-29.19 1370.93,-20.2"/>
<polygon fill="#63b8ff" stroke="#63b8ff" points="1371.87,-23.58 1380.99,-18.19 1370.5,-16.72 1371.87,-23.58"/>
</a>
</g>
</g>
<!-- Node23&#45;&gt;Node14 -->
<g id="edge25_Node000023_Node000014" class="edge">
<title>Node23&#45;&gt;Node14</title>
<g id="a_edge25_Node000023_Node000014"><a xlink:title=" ">
<path fill="none" stroke="#63b8ff" d="M885.74,-60.3C876.07,-50.32 863.13,-36.96 853.08,-26.59"/>
<polygon fill="#63b8ff" stroke="#63b8ff" points="855.54,-24.09 846.07,-19.34 850.51,-28.96 855.54,-24.09"/>
</a>
</g>
</g>
<!-- Node24&#45;&gt;Node13 -->
<g id="edge27_Node000024_Node000013" class="edge">
<title>Node24&#45;&gt;Node13</title>
<g id="a_edge27_Node000024_Node000013"><a xlink:title=" ">
<path fill="none" stroke="#63b8ff" d="M1325.83,-60.45C1346.32,-49.53 1374.56,-34.47 1394.66,-23.75"/>
<polygon fill="#63b8ff" stroke="#63b8ff" points="1396.35,-26.81 1403.53,-19.02 1393.06,-20.64 1396.35,-26.81"/>
</a>
</g>
</g>
<!-- Node25&#45;&gt;Node13 -->
<g id="edge29_Node000025_Node000013" class="edge">
<title>Node25&#45;&gt;Node13</title>
<g id="a_edge29_Node000025_Node000013"><a xlink:title=" ">
<path fill="none" stroke="#63b8ff" d="M1503.02,-60.45C1485,-49.68 1460.26,-34.88 1442.39,-24.19"/>
<polygon fill="#63b8ff" stroke="#63b8ff" points="1444.12,-21.15 1433.74,-19.02 1440.53,-27.15 1444.12,-21.15"/>
</a>
</g>
</g>
<!-- Node27&#45;&gt;Node16 -->
<g id="edge32_Node000027_Node000016" class="edge">
<title>Node27&#45;&gt;Node16</title>
<g id="a_edge32_Node000027_Node000016"><a xlink:title=" ">
<path fill="none" stroke="#63b8ff" d="M580.64,-60.3C565.18,-49.77 544.18,-35.47 528.65,-24.9"/>
<polygon fill="#63b8ff" stroke="#63b8ff" points="530.45,-21.89 520.22,-19.16 526.51,-27.68 530.45,-21.89"/>
</a>
</g>
</g>
<!-- Node33&#45;&gt;Node2 -->
<g id="edge43_Node000033_Node000002" class="edge">
<title>Node33&#45;&gt;Node2</title>
<g id="a_edge43_Node000033_Node000002"><a xlink:title=" ">
<path fill="none" stroke="#63b8ff" d="M2391.95,-318.95C2376.59,-309.12 2358.33,-297.43 2344.39,-288.51"/>
<polygon fill="#63b8ff" stroke="#63b8ff" points="2346.23,-285.53 2335.92,-283.09 2342.46,-291.43 2346.23,-285.53"/>
</a>
</g>
</g>
<!-- Node33&#45;&gt;Node7 -->
<g id="edge44_Node000033_Node000007" class="edge">
<title>Node33&#45;&gt;Node7</title>
<g id="a_edge44_Node000033_Node000007"><a xlink:title=" ">
<path fill="none" stroke="#63b8ff" d="M2478.34,-318.99C2582.88,-281.59 2814.05,-194.69 2996.5,-96 2999.44,-94.41 3002.45,-92.61 3005.37,-90.75"/>
<polygon fill="#63b8ff" stroke="#63b8ff" points="3007.32,-93.66 3013.69,-85.19 3003.43,-87.84 3007.32,-93.66"/>
</a>
</g>
</g>
<!-- Node33&#45;&gt;Node19 -->
<g id="edge45_Node000033_Node000019" class="edge">
<title>Node33&#45;&gt;Node19</title>
<g id="a_edge45_Node000033_Node000019"><a xlink:title=" ">
<path fill="none" stroke="#63b8ff" d="M2494.01,-321.06C2497.21,-320.35 2500.39,-319.66 2503.5,-319 2629.49,-292.25 3073.5,-342.8 3073.5,-214 3073.5,-214 3073.5,-214 3073.5,-146 3073.5,-104.68 3085.41,-82.42 3054.5,-55 3018.72,-23.27 2685.49,-13.53 2574.95,-11.16"/>
<polygon fill="#63b8ff" stroke="#63b8ff" points="2574.73,-7.65 2564.66,-10.94 2574.59,-14.65 2574.73,-7.65"/>
</a>
</g>
</g>
</g>
</svg>
