<?xml version="1.0" encoding="UTF-8" standalone="no"?>
<!DOCTYPE svg PUBLIC "-//W3C//DTD SVG 1.1//EN"
 "http://www.w3.org/Graphics/SVG/1.1/DTD/svg11.dtd">
<!-- Generated by graphviz version 2.43.0 (0)
 -->
<!-- Title: include/Hermes/Socket/_base/TlsSession.hpp Pages: 1 -->
<svg width="1466pt" height="412pt"
 viewBox="0.00 0.00 1465.50 412.00" xmlns="http://www.w3.org/2000/svg" xmlns:xlink="http://www.w3.org/1999/xlink">
<g id="graph0" class="graph" transform="scale(1 1) rotate(0) translate(4 408)">
<title>include/Hermes/Socket/_base/TlsSession.hpp</title>
<!-- Node1 -->
<g id="Node000001" class="node">
<title>Node1</title>
<g id="a_Node000001"><a xlink:title=" ">
<polygon fill="#999999" stroke="#666666" points="1223.5,-404 1095.5,-404 1095.5,-374 1223.5,-374 1223.5,-404"/>
<text text-anchor="start" x="1103.5" y="-392" font-family="Helvetica,sans-Serif" font-size="10.00">include/Hermes/Socket</text>
<text text-anchor="middle" x="1159.5" y="-381" font-family="Helvetica,sans-Serif" font-size="10.00">/_base/TlsSession.hpp</text>
</a>
</g>
</g>
<!-- Node2 -->
<g id="Node000002" class="node">
<title>Node2</title>
<g id="a_Node000002"><a xlink:href="_tls_socket_data_8hpp.html" target="_top" xlink:title=" ">
<polygon fill="white" stroke="#666666" points="632,-332.5 495,-332.5 495,-302.5 632,-302.5 632,-332.5"/>
<text text-anchor="start" x="503" y="-320.5" font-family="Helvetica,sans-Serif" font-size="10.00">include/Hermes/Socket</text>
<text text-anchor="middle" x="563.5" y="-309.5" font-family="Helvetica,sans-Serif" font-size="10.00">/Data/TlsSocketData.hpp</text>
</a>
</g>
</g>
<!-- Node1&#45;&gt;Node2 -->
<g id="edge1_Node000001_Node000002" class="edge">
<title>Node1&#45;&gt;Node2</title>
<g id="a_edge1_Node000001_Node000002"><a xlink:title=" ">
<path fill="none" stroke="#63b8ff" d="M1085.19,-379.34C968.79,-365.76 745.1,-339.68 632.23,-326.51"/>
<polygon fill="#63b8ff" stroke="#63b8ff" points="1085.1,-382.85 1095.43,-380.53 1085.91,-375.89 1085.1,-382.85"/>
</a>
</g>
</g>
<!-- Node15 -->
<g id="Node000015" class="node">
<title>Node15</title>
<g id="a_Node000015"><a xlink:href="_tls_connect_state_machine_8hpp.html" target="_top" xlink:title=" ">
<polygon fill="white" stroke="#666666" points="1039,-184 876,-184 876,-143 1039,-143 1039,-184"/>
<text text-anchor="start" x="884" y="-172" font-family="Helvetica,sans-Serif" font-size="10.00">include/Hermes/Socket</text>
<text text-anchor="start" x="884" y="-161" font-family="Helvetica,sans-Serif" font-size="10.00">/_base/Connection/TlsConnect</text>
<text text-anchor="middle" x="957.5" y="-150" font-family="Helvetica,sans-Serif" font-size="10.00">StateMachine.hpp</text>
</a>
</g>
</g>
<!-- Node1&#45;&gt;Node15 -->
<g id="edge25_Node000001_Node000015" class="edge">
<title>Node1&#45;&gt;Node15</title>
<g id="a_edge25_Node000001_Node000015"><a xlink:title=" ">
<path fill="none" stroke="#63b8ff" d="M1139.81,-366.22C1100.56,-322.79 1013.1,-226.02 975.38,-184.28"/>
<polygon fill="#63b8ff" stroke="#63b8ff" points="1137.25,-368.61 1146.56,-373.68 1142.45,-363.91 1137.25,-368.61"/>
</a>
</g>
</g>
<!-- Node17 -->
<g id="Node000017" class="node">
<title>Node17</title>
<g id="a_Node000017"><a xlink:href="_tls_accept_state_machine_8hpp.html" target="_top" xlink:title=" ">
<polygon fill="white" stroke="#666666" points="1293.5,-338 1133.5,-338 1133.5,-297 1293.5,-297 1293.5,-338"/>
<text text-anchor="start" x="1141.5" y="-326" font-family="Helvetica,sans-Serif" font-size="10.00">include/Hermes/Socket</text>
<text text-anchor="start" x="1141.5" y="-315" font-family="Helvetica,sans-Serif" font-size="10.00">/_base/Accept/TlsAcceptState</text>
<text text-anchor="middle" x="1213.5" y="-304" font-family="Helvetica,sans-Serif" font-size="10.00">Machine.hpp</text>
</a>
</g>
</g>
<!-- Node1&#45;&gt;Node17 -->
<g id="edge24_Node000001_Node000017" class="edge">
<title>Node1&#45;&gt;Node17</title>
<g id="a_edge24_Node000001_Node000017"><a xlink:title=" ">
<path fill="none" stroke="#63b8ff" d="M1176.7,-365.86C1183.64,-356.94 1191.57,-346.72 1198.29,-338.07"/>
<polygon fill="#63b8ff" stroke="#63b8ff" points="1173.8,-363.89 1170.43,-373.94 1179.33,-368.19 1173.8,-363.89"/>
</a>
</g>
</g>
<!-- Node18 -->
<g id="Node000018" class="node">
<title>Node18</title>
<g id="a_Node000018"><a xlink:href="_tls_transfer_state_machine_8hpp.html" target="_top" xlink:title=" ">
<polygon fill="white" stroke="#666666" points="1457.5,-338 1311.5,-338 1311.5,-297 1457.5,-297 1457.5,-338"/>
<text text-anchor="start" x="1319.5" y="-326" font-family="Helvetica,sans-Serif" font-size="10.00">include/Hermes/Socket</text>
<text text-anchor="start" x="1319.5" y="-315" font-family="Helvetica,sans-Serif" font-size="10.00">/_base/Transfer/TlsTransfer</text>
<text text-anchor="middle" x="1384.5" y="-304" font-family="Helvetica,sans-Serif" font-size="10.00">StateMachine.hpp</text>
</a>
</g>
</g>
<!-- Node1&#45;&gt;Node18 -->
<g id="edge26_Node000001_Node000018" class="edge">
<title>Node1&#45;&gt;Node18</title>
<g id="a_edge26_Node000001_Node000018"><a xlink:title=" ">
<path fill="none" stroke="#63b8ff" d="M1214.73,-370.94C1246.92,-361 1287.64,-348.42 1321.13,-338.07"/>
<polygon fill="#63b8ff" stroke="#63b8ff" points="1213.55,-367.64 1205.03,-373.94 1215.62,-374.33 1213.55,-367.64"/>
</a>
</g>
</g>
<!-- Node3 -->
<g id="Node000003" class="node">
<title>Node3</title>
<g id="a_Node000003"><a xlink:href="_tls_async_accept_policy_8hpp.html" target="_top" xlink:title=" ">
<polygon fill="white" stroke="#666666" points="163,-184 0,-184 0,-143 163,-143 163,-184"/>
<text text-anchor="start" x="8" y="-172" font-family="Helvetica,sans-Serif" font-size="10.00">include/Hermes/Socket</text>
<text text-anchor="start" x="8" y="-161" font-family="Helvetica,sans-Serif" font-size="10.00">/Async/_base/Accept/TlsAsync</text>
<text text-anchor="middle" x="81.5" y="-150" font-family="Helvetica,sans-Serif" font-size="10.00">AcceptPolicy.hpp</text>
</a>
</g>
</g>
<!-- Node2&#45;&gt;Node3 -->
<g id="edge2_Node000002_Node000003" class="edge">
<title>Node2&#45;&gt;Node3</title>
<g id="a_edge2_Node000002_Node000003"><a xlink:title=" ">
<path fill="none" stroke="#63b8ff" d="M485,-307.35C426.01,-299.06 343.8,-284.48 274.5,-261 215.25,-240.92 151.17,-205.97 113.78,-184.1"/>
<polygon fill="#63b8ff" stroke="#63b8ff" points="484.61,-310.83 494.99,-308.72 485.56,-303.89 484.61,-310.83"/>
</a>
</g>
</g>
<!-- Node6 -->
<g id="Node000006" class="node">
<title>Node6</title>
<g id="a_Node000006"><a xlink:href="_tls_async_connect_policy_8hpp.html" target="_top" xlink:title=" ">
<polygon fill="white" stroke="#666666" points="917.5,-107 765.5,-107 765.5,-66 917.5,-66 917.5,-107"/>
<text text-anchor="start" x="773.5" y="-95" font-family="Helvetica,sans-Serif" font-size="10.00">include/Hermes/Socket</text>
<text text-anchor="start" x="773.5" y="-84" font-family="Helvetica,sans-Serif" font-size="10.00">/Async/_base/Connection</text>
<text text-anchor="middle" x="841.5" y="-73" font-family="Helvetica,sans-Serif" font-size="10.00">/TlsAsyncConnectPolicy.hpp</text>
</a>
</g>
</g>
<!-- Node2&#45;&gt;Node6 -->
<g id="edge5_Node000002_Node000006" class="edge">
<title>Node2&#45;&gt;Node6</title>
<g id="a_edge5_Node000002_Node000006"><a xlink:title=" ">
<path fill="none" stroke="#63b8ff" d="M642.66,-306.77C767.46,-289.6 1000.74,-249.39 1048.5,-184 1086.79,-131.57 991.4,-106.73 917.68,-95.64"/>
<polygon fill="#63b8ff" stroke="#63b8ff" points="641.83,-303.35 632.39,-308.17 642.77,-310.29 641.83,-303.35"/>
</a>
</g>
</g>
<!-- Node8 -->
<g id="Node000008" class="node">
<title>Node8</title>
<g id="a_Node000008"><a xlink:href="_tls_async_transfer_policy_8hpp.html" target="_top" xlink:title=" ">
<polygon fill="white" stroke="#666666" points="332,-184 181,-184 181,-143 332,-143 332,-184"/>
<text text-anchor="start" x="189" y="-172" font-family="Helvetica,sans-Serif" font-size="10.00">include/Hermes/Socket</text>
<text text-anchor="start" x="189" y="-161" font-family="Helvetica,sans-Serif" font-size="10.00">/Async/_base/Transfer</text>
<text text-anchor="middle" x="256.5" y="-150" font-family="Helvetica,sans-Serif" font-size="10.00">/TlsAsyncTransferPolicy.hpp</text>
</a>
</g>
</g>
<!-- Node2&#45;&gt;Node8 -->
<g id="edge7_Node000002_Node000008" class="edge">
<title>Node2&#45;&gt;Node8</title>
<g id="a_edge7_Node000002_Node000008"><a xlink:title=" ">
<path fill="none" stroke="#63b8ff" d="M484.77,-315.66C431.01,-311.41 360.71,-298.25 310.5,-261 284.6,-241.78 269.44,-206.23 262.07,-184.06"/>
<polygon fill="#63b8ff" stroke="#63b8ff" points="484.73,-319.16 494.95,-316.37 485.22,-312.18 484.73,-319.16"/>
</a>
</g>
</g>
<!-- Node9 -->
<g id="Node000009" class="node">
<title>Node9</title>
<g id="a_Node000009"><a xlink:href="_tls_accept_policy_8hpp.html" target="_top" xlink:title=" ">
<polygon fill="white" stroke="#666666" points="481,-261 320,-261 320,-220 481,-220 481,-261"/>
<text text-anchor="start" x="328" y="-249" font-family="Helvetica,sans-Serif" font-size="10.00">include/Hermes/Socket</text>
<text text-anchor="start" x="328" y="-238" font-family="Helvetica,sans-Serif" font-size="10.00">/Sync/_base/Accept/TlsAccept</text>
<text text-anchor="middle" x="400.5" y="-227" font-family="Helvetica,sans-Serif" font-size="10.00">Policy.hpp</text>
</a>
</g>
</g>
<!-- Node2&#45;&gt;Node9 -->
<g id="edge10_Node000002_Node000009" class="edge">
<title>Node2&#45;&gt;Node9</title>
<g id="a_edge10_Node000002_Node000009"><a xlink:title=" ">
<path fill="none" stroke="#63b8ff" d="M523.51,-298.1C499.08,-286.86 467.88,-272.5 443.02,-261.06"/>
<polygon fill="#63b8ff" stroke="#63b8ff" points="522.29,-301.39 532.84,-302.39 525.22,-295.03 522.29,-301.39"/>
</a>
</g>
</g>
<!-- Node12 -->
<g id="Node000012" class="node">
<title>Node12</title>
<g id="a_Node000012"><a xlink:href="_tls_connect_policy_8hpp.html" target="_top" xlink:title=" ">
<polygon fill="white" stroke="#666666" points="798.5,-261 666.5,-261 666.5,-220 798.5,-220 798.5,-261"/>
<text text-anchor="start" x="674.5" y="-249" font-family="Helvetica,sans-Serif" font-size="10.00">include/Hermes/Socket</text>
<text text-anchor="start" x="674.5" y="-238" font-family="Helvetica,sans-Serif" font-size="10.00">/Sync/_base/Connection</text>
<text text-anchor="middle" x="732.5" y="-227" font-family="Helvetica,sans-Serif" font-size="10.00">/TlsConnectPolicy.hpp</text>
</a>
</g>
</g>
<!-- Node2&#45;&gt;Node12 -->
<g id="edge14_Node000002_Node000012" class="edge">
<title>Node2&#45;&gt;Node12</title>
<g id="a_edge14_Node000002_Node000012"><a xlink:title=" ">
<path fill="none" stroke="#63b8ff" d="M604.63,-298.25C630,-286.99 662.52,-272.56 688.42,-261.06"/>
<polygon fill="#63b8ff" stroke="#63b8ff" points="603.01,-295.14 595.29,-302.39 605.85,-301.54 603.01,-295.14"/>
</a>
</g>
</g>
<!-- Node16 -->
<g id="Node000016" class="node">
<title>Node16</title>
<g id="a_Node000016"><a xlink:href="_tls_transfer_policy_8hpp.html" target="_top" xlink:title=" ">
<polygon fill="white" stroke="#666666" points="627.5,-261 499.5,-261 499.5,-220 627.5,-220 627.5,-261"/>
<text text-anchor="start" x="507.5" y="-249" font-family="Helvetica,sans-Serif" font-size="10.00">include/Hermes/Socket</text>
<text text-anchor="start" x="507.5" y="-238" font-family="Helvetica,sans-Serif" font-size="10.00">/Sync/_base/Transfer</text>
<text text-anchor="middle" x="563.5" y="-227" font-family="Helvetica,sans-Serif" font-size="10.00">/TlsTransferPolicy.hpp</text>
</a>
</g>
</g>
<!-- Node2&#45;&gt;Node16 -->
<g id="edge21_Node000002_Node000016" class="edge">
<title>Node2&#45;&gt;Node16</title>
<g id="a_edge21_Node000002_Node000016"><a xlink:title=" ">
<path fill="none" stroke="#63b8ff" d="M563.5,-292.23C563.5,-282.2 563.5,-270.71 563.5,-261.2"/>
<polygon fill="#63b8ff" stroke="#63b8ff" points="560,-292.39 563.5,-302.39 567,-292.39 560,-292.39"/>
</a>
</g>
</g>
<!-- Node4 -->
<g id="Node000004" class="node">
<title>Node4</title>
<g id="a_Node000004"><a xlink:href="_async_server_socket_8hpp.html" target="_top" xlink:title=" ">
<polygon fill="white" stroke="#666666" points="196.5,-101.5 30.5,-101.5 30.5,-71.5 196.5,-71.5 196.5,-101.5"/>
<text text-anchor="start" x="38.5" y="-89.5" font-family="Helvetica,sans-Serif" font-size="10.00">include/Hermes/Socket</text>
<text text-anchor="middle" x="113.5" y="-78.5" font-family="Helvetica,sans-Serif" font-size="10.00">/Async/AsyncServerSocket.hpp</text>
</a>
</g>
</g>
<!-- Node3&#45;&gt;Node4 -->
<g id="edge3_Node000003_Node000004" class="edge">
<title>Node3&#45;&gt;Node4</title>
<g id="a_edge3_Node000003_Node000004"><a xlink:title=" ">
<path fill="none" stroke="#63b8ff" d="M93.97,-133.27C98.57,-122.49 103.58,-110.75 107.37,-101.86"/>
<polygon fill="#63b8ff" stroke="#63b8ff" points="90.61,-132.22 89.91,-142.79 97.05,-134.97 90.61,-132.22"/>
</a>
</g>
</g>
<!-- Node5 -->
<g id="Node000005" class="node">
<title>Node5</title>
<g id="a_Node000005"><a xlink:href="_async_listener_socket_8hpp.html" target="_top" xlink:title=" ">
<polygon fill="white" stroke="#666666" points="200,-30 27,-30 27,0 200,0 200,-30"/>
<text text-anchor="start" x="35" y="-18" font-family="Helvetica,sans-Serif" font-size="10.00">include/Hermes/Socket</text>
<text text-anchor="middle" x="113.5" y="-7" font-family="Helvetica,sans-Serif" font-size="10.00">/Async/AsyncListenerSocket.hpp</text>
</a>
</g>
</g>
<!-- Node4&#45;&gt;Node5 -->
<g id="edge4_Node000004_Node000005" class="edge">
<title>Node4&#45;&gt;Node5</title>
<g id="a_edge4_Node000004_Node000005"><a xlink:title=" ">
<path fill="none" stroke="#63b8ff" d="M113.5,-61.25C113.5,-50.81 113.5,-38.99 113.5,-30.04"/>
<polygon fill="#63b8ff" stroke="#63b8ff" points="110,-61.44 113.5,-71.44 117,-61.44 110,-61.44"/>
</a>
</g>
</g>
<!-- Node7 -->
<g id="Node000007" class="node">
<title>Node7</title>
<g id="a_Node000007"><a xlink:href="_async_client_socket_8hpp.html" target="_top" xlink:title=" ">
<polygon fill="white" stroke="#666666" points="814,-30 651,-30 651,0 814,0 814,-30"/>
<text text-anchor="start" x="659" y="-18" font-family="Helvetica,sans-Serif" font-size="10.00">include/Hermes/Socket</text>
<text text-anchor="middle" x="732.5" y="-7" font-family="Helvetica,sans-Serif" font-size="10.00">/Async/AsyncClientSocket.hpp</text>
</a>
</g>
</g>
<!-- Node6&#45;&gt;Node7 -->
<g id="edge6_Node000006_Node000007" class="edge">
<title>Node6&#45;&gt;Node7</title>
<g id="a_edge6_Node000006_Node000007"><a xlink:title=" ">
<path fill="none" stroke="#63b8ff" d="M802.19,-60.44C786.19,-50.23 768.29,-38.82 754.63,-30.11"/>
<polygon fill="#63b8ff" stroke="#63b8ff" points="800.53,-63.53 810.85,-65.96 804.3,-57.63 800.53,-63.53"/>
</a>
</g>
</g>
<!-- Node8&#45;&gt;Node4 -->
<g id="edge9_Node000008_Node000004" class="edge">
<title>Node8&#45;&gt;Node4</title>
<g id="a_edge9_Node000008_Node000004"><a xlink:title=" ">
<path fill="none" stroke="#63b8ff" d="M210.36,-138.3C187.32,-126.22 160.24,-112.01 140.57,-101.7"/>
<polygon fill="#63b8ff" stroke="#63b8ff" points="208.82,-141.45 219.3,-142.99 212.07,-135.25 208.82,-141.45"/>
</a>
</g>
</g>
<!-- Node8&#45;&gt;Node7 -->
<g id="edge8_Node000008_Node000007" class="edge">
<title>Node8&#45;&gt;Node7</title>
<g id="a_edge8_Node000008_Node000007"><a xlink:title=" ">
<path fill="none" stroke="#63b8ff" d="M272.26,-133.98C286.28,-111.55 308.98,-81.55 337.5,-66 389.92,-37.42 551.46,-24.64 650.98,-19.36"/>
<polygon fill="#63b8ff" stroke="#63b8ff" points="269.13,-132.4 266.96,-142.77 275.12,-136.01 269.13,-132.4"/>
</a>
</g>
</g>
<!-- Node9&#45;&gt;Node3 -->
<g id="edge11_Node000009_Node000003" class="edge">
<title>Node9&#45;&gt;Node3</title>
<g id="a_edge11_Node000009_Node000003"><a xlink:title=" ">
<path fill="none" stroke="#63b8ff" d="M309.6,-218.13C263.48,-207.28 207.9,-194.22 163.15,-183.7"/>
<polygon fill="#63b8ff" stroke="#63b8ff" points="309.05,-221.6 319.59,-220.48 310.66,-214.78 309.05,-221.6"/>
</a>
</g>
</g>
<!-- Node10 -->
<g id="Node000010" class="node">
<title>Node10</title>
<g id="a_Node000010"><a xlink:href="_server_socket_8hpp.html" target="_top" xlink:title=" ">
<polygon fill="white" stroke="#666666" points="481,-178.5 350,-178.5 350,-148.5 481,-148.5 481,-178.5"/>
<text text-anchor="start" x="358" y="-166.5" font-family="Helvetica,sans-Serif" font-size="10.00">include/Hermes/Socket</text>
<text text-anchor="middle" x="415.5" y="-155.5" font-family="Helvetica,sans-Serif" font-size="10.00">/Sync/ServerSocket.hpp</text>
</a>
</g>
</g>
<!-- Node9&#45;&gt;Node10 -->
<g id="edge12_Node000009_Node000010" class="edge">
<title>Node9&#45;&gt;Node10</title>
<g id="a_edge12_Node000009_Node000010"><a xlink:title=" ">
<path fill="none" stroke="#63b8ff" d="M406.41,-209.94C408.55,-199.25 410.87,-187.66 412.63,-178.86"/>
<polygon fill="#63b8ff" stroke="#63b8ff" points="402.97,-209.3 404.44,-219.79 409.83,-210.68 402.97,-209.3"/>
</a>
</g>
</g>
<!-- Node11 -->
<g id="Node000011" class="node">
<title>Node11</title>
<g id="a_Node000011"><a xlink:href="_listener_socket_8hpp.html" target="_top" xlink:title=" ">
<polygon fill="white" stroke="#666666" points="484.5,-101.5 346.5,-101.5 346.5,-71.5 484.5,-71.5 484.5,-101.5"/>
<text text-anchor="start" x="354.5" y="-89.5" font-family="Helvetica,sans-Serif" font-size="10.00">include/Hermes/Socket</text>
<text text-anchor="middle" x="415.5" y="-78.5" font-family="Helvetica,sans-Serif" font-size="10.00">/Sync/ListenerSocket.hpp</text>
</a>
</g>
</g>
<!-- Node10&#45;&gt;Node11 -->
<g id="edge13_Node000010_Node000011" class="edge">
<title>Node10&#45;&gt;Node11</title>
<g id="a_edge13_Node000010_Node000011"><a xlink:title=" ">
<path fill="none" stroke="#63b8ff" d="M415.5,-138.04C415.5,-125.95 415.5,-111.79 415.5,-101.54"/>
<polygon fill="#63b8ff" stroke="#63b8ff" points="412,-138.39 415.5,-148.39 419,-138.39 412,-138.39"/>
</a>
</g>
</g>
<!-- Node12&#45;&gt;Node6 -->
<g id="edge18_Node000012_Node000006" class="edge">
<title>Node12&#45;&gt;Node6</title>
<g id="a_edge18_Node000012_Node000006"><a xlink:title=" ">
<path fill="none" stroke="#63b8ff" d="M794.09,-215.01C807.34,-207.01 819.93,-196.79 828.5,-184 843.93,-160.97 844.93,-127.84 843.65,-107.01"/>
<polygon fill="#63b8ff" stroke="#63b8ff" points="792.31,-211.99 785.32,-219.95 795.75,-218.09 792.31,-211.99"/>
</a>
</g>
</g>
<!-- Node13 -->
<g id="Node000013" class="node">
<title>Node13</title>
<g id="a_Node000013"><a xlink:href="_default_async_connect_policy_8hpp.html" target="_top" xlink:title=" ">
<polygon fill="white" stroke="#666666" points="819,-184 646,-184 646,-143 819,-143 819,-184"/>
<text text-anchor="start" x="654" y="-172" font-family="Helvetica,sans-Serif" font-size="10.00">include/Hermes/Socket</text>
<text text-anchor="start" x="654" y="-161" font-family="Helvetica,sans-Serif" font-size="10.00">/Async/_base/Connection</text>
<text text-anchor="middle" x="732.5" y="-150" font-family="Helvetica,sans-Serif" font-size="10.00">/DefaultAsyncConnectPolicy.hpp</text>
</a>
</g>
</g>
<!-- Node12&#45;&gt;Node13 -->
<g id="edge15_Node000012_Node000013" class="edge">
<title>Node12&#45;&gt;Node13</title>
<g id="a_edge15_Node000012_Node000013"><a xlink:title=" ">
<path fill="none" stroke="#63b8ff" d="M732.5,-209.69C732.5,-201.08 732.5,-191.9 732.5,-184.07"/>
<polygon fill="#63b8ff" stroke="#63b8ff" points="729,-209.79 732.5,-219.79 736,-209.79 729,-209.79"/>
</a>
</g>
</g>
<!-- Node14 -->
<g id="Node000014" class="node">
<title>Node14</title>
<g id="a_Node000014"><a xlink:href="_client_socket_8hpp.html" target="_top" xlink:title=" ">
<polygon fill="white" stroke="#666666" points="627.5,-178.5 499.5,-178.5 499.5,-148.5 627.5,-148.5 627.5,-178.5"/>
<text text-anchor="start" x="507.5" y="-166.5" font-family="Helvetica,sans-Serif" font-size="10.00">include/Hermes/Socket</text>
<text text-anchor="middle" x="563.5" y="-155.5" font-family="Helvetica,sans-Serif" font-size="10.00">/Sync/ClientSocket.hpp</text>
</a>
</g>
</g>
<!-- Node12&#45;&gt;Node14 -->
<g id="edge19_Node000012_Node000014" class="edge">
<title>Node12&#45;&gt;Node14</title>
<g id="a_edge19_Node000012_Node000014"><a xlink:title=" ">
<path fill="none" stroke="#63b8ff" d="M679.39,-215.93C651.75,-203.66 618.89,-189.08 595.23,-178.58"/>
<polygon fill="#63b8ff" stroke="#63b8ff" points="677.98,-219.13 688.54,-219.99 680.82,-212.73 677.98,-219.13"/>
</a>
</g>
</g>
<!-- Node12&#45;&gt;Node15 -->
<g id="edge20_Node000012_Node000015" class="edge">
<title>Node12&#45;&gt;Node15</title>
<g id="a_edge20_Node000012_Node000015"><a xlink:title=" ">
<path fill="none" stroke="#63b8ff" d="M800.57,-216.81C831.93,-206.36 868.77,-194.08 898.87,-184.04"/>
<polygon fill="#63b8ff" stroke="#63b8ff" points="799.41,-213.51 791.03,-219.99 801.62,-220.15 799.41,-213.51"/>
</a>
</g>
</g>
<!-- Node13&#45;&gt;Node6 -->
<g id="edge17_Node000013_Node000006" class="edge">
<title>Node13&#45;&gt;Node6</title>
<g id="a_edge17_Node000013_Node000006"><a xlink:title=" ">
<path fill="none" stroke="#63b8ff" d="M769.43,-137.09C783.63,-127.32 799.61,-116.32 812.91,-107.17"/>
<polygon fill="#63b8ff" stroke="#63b8ff" points="767.11,-134.44 760.85,-142.99 771.08,-140.21 767.11,-134.44"/>
</a>
</g>
</g>
<!-- Node13&#45;&gt;Node7 -->
<g id="edge16_Node000013_Node000007" class="edge">
<title>Node13&#45;&gt;Node7</title>
<g id="a_edge16_Node000013_Node000007"><a xlink:title=" ">
<path fill="none" stroke="#63b8ff" d="M732.5,-132.44C732.5,-101.21 732.5,-53.68 732.5,-30.18"/>
<polygon fill="#63b8ff" stroke="#63b8ff" points="729,-132.74 732.5,-142.74 736,-132.74 729,-132.74"/>
</a>
</g>
</g>
<!-- Node16&#45;&gt;Node10 -->
<g id="edge23_Node000016_Node000010" class="edge">
<title>Node16&#45;&gt;Node10</title>
<g id="a_edge23_Node000016_Node000010"><a xlink:title=" ">
<path fill="none" stroke="#63b8ff" d="M516.07,-215.46C492.15,-203.34 463.96,-189.06 443.52,-178.7"/>
<polygon fill="#63b8ff" stroke="#63b8ff" points="514.5,-218.59 525,-219.99 517.66,-212.35 514.5,-218.59"/>
</a>
</g>
</g>
<!-- Node16&#45;&gt;Node14 -->
<g id="edge22_Node000016_Node000014" class="edge">
<title>Node16&#45;&gt;Node14</title>
<g id="a_edge22_Node000016_Node000014"><a xlink:title=" ">
<path fill="none" stroke="#63b8ff" d="M563.5,-209.61C563.5,-199.01 563.5,-187.57 563.5,-178.86"/>
<polygon fill="#63b8ff" stroke="#63b8ff" points="560,-209.79 563.5,-219.79 567,-209.79 560,-209.79"/>
</a>
</g>
</g>
</g>
</svg>
