<?xml version="1.0" encoding="UTF-8" standalone="no"?>
<!DOCTYPE svg PUBLIC "-//W3C//DTD SVG 1.1//EN"
 "http://www.w3.org/Graphics/SVG/1.1/DTD/svg11.dtd">
<!-- Generated by graphviz version 2.43.0 (0)
 -->
<!-- Title: include/Hermes/Socket/_base/TlsSession.hpp Pages: 1 -->
<svg width="2548pt" height="236pt"
 viewBox="0.00 0.00 2547.90 236.00" xmlns="http://www.w3.org/2000/svg" xmlns:xlink="http://www.w3.org/1999/xlink">
<g id="graph0" class="graph" transform="scale(1 1) rotate(0) translate(4 232)">
<title>include/Hermes/Socket/_base/TlsSession.hpp</title>
<!-- Node1 -->
<g id="Node000001" class="node">
<title>Node1</title>
<g id="a_Node000001"><a xlink:title=" ">
<polygon fill="#999999" stroke="#666666" points="2414.9,-228 2286.9,-228 2286.9,-198 2414.9,-198 2414.9,-228"/>
<text text-anchor="start" x="2294.9" y="-216" font-family="Helvetica,sans-Serif" font-size="10.00">include/Hermes/Socket</text>
<text text-anchor="middle" x="2350.9" y="-205" font-family="Helvetica,sans-Serif" font-size="10.00">/_base/TlsSession.hpp</text>
</a>
</g>
</g>
<!-- Node2 -->
<g id="Node000002" class="node">
<title>Node2</title>
<g id="a_Node000002"><a xlink:href="_os_api_8hpp.html" target="_top" xlink:title=" ">
<polygon fill="white" stroke="#666666" points="1401.9,-162 1283.9,-162 1283.9,-132 1401.9,-132 1401.9,-162"/>
<text text-anchor="start" x="1291.9" y="-150" font-family="Helvetica,sans-Serif" font-size="10.00">Hermes/_base/OsApi</text>
<text text-anchor="middle" x="1342.9" y="-139" font-family="Helvetica,sans-Serif" font-size="10.00">/OsApi.hpp</text>
</a>
</g>
</g>
<!-- Node1&#45;&gt;Node2 -->
<g id="edge1_Node000001_Node000002" class="edge">
<title>Node1&#45;&gt;Node2</title>
<g id="a_edge1_Node000001_Node000002"><a xlink:title=" ">
<path fill="none" stroke="#63b8ff" d="M2286.7,-207.92C2106.67,-196.49 1598.08,-164.2 1412.11,-152.39"/>
<polygon fill="#63b8ff" stroke="#63b8ff" points="1412.11,-148.89 1401.91,-151.75 1411.67,-155.87 1412.11,-148.89"/>
</a>
</g>
</g>
<!-- Node9 -->
<g id="Node000009" class="node">
<title>Node9</title>
<g id="a_Node000009"><a xlink:title=" ">
<polygon fill="#e0e0e0" stroke="#999999" points="2296.9,-19 2246.9,-19 2246.9,0 2296.9,0 2296.9,-19"/>
<text text-anchor="middle" x="2271.9" y="-7" font-family="Helvetica,sans-Serif" font-size="10.00">cstdint</text>
</a>
</g>
</g>
<!-- Node1&#45;&gt;Node9 -->
<g id="edge28_Node000001_Node000009" class="edge">
<title>Node1&#45;&gt;Node9</title>
<g id="a_edge28_Node000001_Node000009"><a xlink:title=" ">
<path fill="none" stroke="#63b8ff" d="M2348.51,-197.95C2343.35,-169.73 2329.57,-104.59 2304.9,-55 2299.93,-45.01 2292.69,-34.93 2286.25,-26.9"/>
<polygon fill="#63b8ff" stroke="#63b8ff" points="2288.83,-24.52 2279.73,-19.09 2283.45,-29.01 2288.83,-24.52"/>
</a>
</g>
</g>
<!-- Node11 -->
<g id="Node000011" class="node">
<title>Node11</title>
<g id="a_Node000011"><a xlink:title=" ">
<polygon fill="#e0e0e0" stroke="#999999" points="273.4,-19 200.4,-19 200.4,0 273.4,0 273.4,-19"/>
<text text-anchor="middle" x="236.9" y="-7" font-family="Helvetica,sans-Serif" font-size="10.00">string_view</text>
</a>
</g>
</g>
<!-- Node1&#45;&gt;Node11 -->
<g id="edge31_Node000001_Node000011" class="edge">
<title>Node1&#45;&gt;Node11</title>
<g id="a_edge31_Node000001_Node000011"><a xlink:title=" ">
<path fill="none" stroke="#63b8ff" d="M2286.81,-211.29C1919.24,-206.9 92.44,-180.85 11.9,-96 -42.95,-38.2 108.75,-19.07 189.73,-13.07"/>
<polygon fill="#63b8ff" stroke="#63b8ff" points="190.45,-16.53 200.18,-12.34 189.96,-9.55 190.45,-16.53"/>
</a>
</g>
</g>
<!-- Node21 -->
<g id="Node000021" class="node">
<title>Node21</title>
<g id="a_Node000021"><a xlink:title=" ">
<polygon fill="#e0e0e0" stroke="#999999" points="2405.4,-156.5 2352.4,-156.5 2352.4,-137.5 2405.4,-137.5 2405.4,-156.5"/>
<text text-anchor="middle" x="2378.9" y="-144.5" font-family="Helvetica,sans-Serif" font-size="10.00">cstddef</text>
</a>
</g>
</g>
<!-- Node1&#45;&gt;Node21 -->
<g id="edge27_Node000001_Node000021" class="edge">
<title>Node1&#45;&gt;Node21</title>
<g id="a_edge27_Node000001_Node000021"><a xlink:title=" ">
<path fill="none" stroke="#63b8ff" d="M2357.12,-197.8C2361.18,-188.5 2366.53,-176.27 2370.91,-166.26"/>
<polygon fill="#63b8ff" stroke="#63b8ff" points="2374.23,-167.41 2375.03,-156.84 2367.82,-164.6 2374.23,-167.41"/>
</a>
</g>
</g>
<!-- Node22 -->
<g id="Node000022" class="node">
<title>Node22</title>
<g id="a_Node000022"><a xlink:title=" ">
<polygon fill="#e0e0e0" stroke="#999999" points="2481.9,-156.5 2423.9,-156.5 2423.9,-137.5 2481.9,-137.5 2481.9,-156.5"/>
<text text-anchor="middle" x="2452.9" y="-144.5" font-family="Helvetica,sans-Serif" font-size="10.00">memory</text>
</a>
</g>
</g>
<!-- Node1&#45;&gt;Node22 -->
<g id="edge29_Node000001_Node000022" class="edge">
<title>Node1&#45;&gt;Node22</title>
<g id="a_edge29_Node000001_Node000022"><a xlink:title=" ">
<path fill="none" stroke="#63b8ff" d="M2373.29,-197.95C2390.31,-187.27 2413.62,-172.65 2430.61,-161.98"/>
<polygon fill="#63b8ff" stroke="#63b8ff" points="2432.72,-164.8 2439.33,-156.52 2429,-158.87 2432.72,-164.8"/>
</a>
</g>
</g>
<!-- Node23 -->
<g id="Node000023" class="node">
<title>Node23</title>
<g id="a_Node000023"><a xlink:title=" ">
<polygon fill="#e0e0e0" stroke="#999999" points="2539.9,-156.5 2499.9,-156.5 2499.9,-137.5 2539.9,-137.5 2539.9,-156.5"/>
<text text-anchor="middle" x="2519.9" y="-144.5" font-family="Helvetica,sans-Serif" font-size="10.00">span</text>
</a>
</g>
</g>
<!-- Node1&#45;&gt;Node23 -->
<g id="edge30_Node000001_Node000023" class="edge">
<title>Node1&#45;&gt;Node23</title>
<g id="a_edge30_Node000001_Node000023"><a xlink:title=" ">
<path fill="none" stroke="#63b8ff" d="M2393.94,-197.96C2421.86,-188.52 2458.88,-175.4 2490.9,-162 2491.76,-161.64 2492.63,-161.27 2493.5,-160.89"/>
<polygon fill="#63b8ff" stroke="#63b8ff" points="2495.23,-163.95 2502.86,-156.6 2492.32,-157.58 2495.23,-163.95"/>
</a>
</g>
</g>
<!-- Node3 -->
<g id="Node000003" class="node">
<title>Node3</title>
<g id="a_Node000003"><a xlink:title=" ">
<polygon fill="#e0e0e0" stroke="#999999" points="610.4,-19 533.4,-19 533.4,0 610.4,0 610.4,-19"/>
<text text-anchor="middle" x="571.9" y="-7" font-family="Helvetica,sans-Serif" font-size="10.00">sys/socket.h</text>
</a>
</g>
</g>
<!-- Node2&#45;&gt;Node3 -->
<g id="edge2_Node000002_Node000003" class="edge">
<title>Node2&#45;&gt;Node3</title>
<g id="a_edge2_Node000002_Node000003"><a xlink:title=" ">
<path fill="none" stroke="#63b8ff" d="M1401.95,-146.3C1510.86,-145.03 1725.7,-132.95 1650.9,-55 1614.8,-17.38 826.33,-11.54 620.62,-10.65"/>
<polygon fill="#63b8ff" stroke="#63b8ff" points="620.44,-7.15 610.43,-10.61 620.42,-14.15 620.44,-7.15"/>
</a>
</g>
</g>
<!-- Node4 -->
<g id="Node000004" class="node">
<title>Node4</title>
<g id="a_Node000004"><a xlink:title=" ">
<polygon fill="#e0e0e0" stroke="#999999" points="1743.9,-19 1671.9,-19 1671.9,0 1743.9,0 1743.9,-19"/>
<text text-anchor="middle" x="1707.9" y="-7" font-family="Helvetica,sans-Serif" font-size="10.00">netinet/in.h</text>
</a>
</g>
</g>
<!-- Node2&#45;&gt;Node4 -->
<g id="edge3_Node000002_Node000004" class="edge">
<title>Node2&#45;&gt;Node4</title>
<g id="a_edge3_Node000002_Node000004"><a xlink:title=" ">
<path fill="none" stroke="#63b8ff" d="M1402.01,-144.88C1488.34,-142.03 1643.07,-131.91 1683.9,-96 1702.87,-79.32 1707.39,-48.97 1708.18,-29.28"/>
<polygon fill="#63b8ff" stroke="#63b8ff" points="1711.69,-29.14 1708.3,-19.1 1704.69,-29.06 1711.69,-29.14"/>
</a>
</g>
</g>
<!-- Node5 -->
<g id="Node000005" class="node">
<title>Node5</title>
<g id="a_Node000005"><a xlink:title=" ">
<polygon fill="#e0e0e0" stroke="#999999" points="267.4,-85 198.4,-85 198.4,-66 267.4,-66 267.4,-85"/>
<text text-anchor="middle" x="232.9" y="-73" font-family="Helvetica,sans-Serif" font-size="10.00">arpa/inet.h</text>
</a>
</g>
</g>
<!-- Node2&#45;&gt;Node5 -->
<g id="edge4_Node000002_Node000005" class="edge">
<title>Node2&#45;&gt;Node5</title>
<g id="a_edge4_Node000002_Node000005"><a xlink:title=" ">
<path fill="none" stroke="#63b8ff" d="M1283.87,-146.09C1089.44,-145.93 470.51,-141.74 276.9,-96 270.39,-94.46 263.65,-91.98 257.46,-89.29"/>
<polygon fill="#63b8ff" stroke="#63b8ff" points="258.83,-86.07 248.29,-85.01 255.87,-92.41 258.83,-86.07"/>
</a>
</g>
</g>
<!-- Node6 -->
<g id="Node000006" class="node">
<title>Node6</title>
<g id="a_Node000006"><a xlink:title=" ">
<polygon fill="#e0e0e0" stroke="#999999" points="2032.4,-19 1979.4,-19 1979.4,0 2032.4,0 2032.4,-19"/>
<text text-anchor="middle" x="2005.9" y="-7" font-family="Helvetica,sans-Serif" font-size="10.00">netdb.h</text>
</a>
</g>
</g>
<!-- Node2&#45;&gt;Node6 -->
<g id="edge5_Node000002_Node000006" class="edge">
<title>Node2&#45;&gt;Node6</title>
<g id="a_edge5_Node000002_Node000006"><a xlink:title=" ">
<path fill="none" stroke="#63b8ff" d="M1402,-146.77C1533.19,-147.58 1844.36,-144.18 1935.9,-96 1950.97,-88.07 1978.81,-50.02 1994.45,-27.44"/>
<polygon fill="#63b8ff" stroke="#63b8ff" points="1997.4,-29.33 2000.16,-19.1 1991.62,-25.38 1997.4,-29.33"/>
</a>
</g>
</g>
<!-- Node7 -->
<g id="Node000007" class="node">
<title>Node7</title>
<g id="a_Node000007"><a xlink:title=" ">
<polygon fill="#e0e0e0" stroke="#999999" points="737.9,-85 681.9,-85 681.9,-66 737.9,-66 737.9,-85"/>
<text text-anchor="middle" x="709.9" y="-73" font-family="Helvetica,sans-Serif" font-size="10.00">unistd.h</text>
</a>
</g>
</g>
<!-- Node2&#45;&gt;Node7 -->
<g id="edge6_Node000002_Node000007" class="edge">
<title>Node2&#45;&gt;Node7</title>
<g id="a_edge6_Node000002_Node000007"><a xlink:title=" ">
<path fill="none" stroke="#63b8ff" d="M1283.64,-144.03C1153.51,-139.23 846.44,-125.09 746.9,-96 741.94,-94.55 736.87,-92.39 732.14,-90.04"/>
<polygon fill="#63b8ff" stroke="#63b8ff" points="733.51,-86.8 723.05,-85.09 730.16,-92.95 733.51,-86.8"/>
</a>
</g>
</g>
<!-- Node8 -->
<g id="Node000008" class="node">
<title>Node8</title>
<g id="a_Node000008"><a xlink:href="_conversion_and_literals_8hpp.html" target="_top" xlink:title=" ">
<polygon fill="white" stroke="#666666" points="2295.9,-90.5 2145.9,-90.5 2145.9,-60.5 2295.9,-60.5 2295.9,-90.5"/>
<text text-anchor="start" x="2153.9" y="-78.5" font-family="Helvetica,sans-Serif" font-size="10.00">Hermes/_base/OsApi</text>
<text text-anchor="middle" x="2220.9" y="-67.5" font-family="Helvetica,sans-Serif" font-size="10.00">/ConversionAndLiterals.hpp</text>
</a>
</g>
</g>
<!-- Node2&#45;&gt;Node8 -->
<g id="edge7_Node000002_Node000008" class="edge">
<title>Node2&#45;&gt;Node8</title>
<g id="a_edge7_Node000002_Node000008"><a xlink:title=" ">
<path fill="none" stroke="#63b8ff" d="M1402.02,-145.61C1534.36,-144 1864.26,-135.95 2136.9,-96 2143.22,-95.07 2149.77,-93.92 2156.29,-92.63"/>
<polygon fill="#63b8ff" stroke="#63b8ff" points="2157.4,-95.97 2166.48,-90.51 2155.97,-89.12 2157.4,-95.97"/>
</a>
</g>
</g>
<!-- Node10 -->
<g id="Node000010" class="node">
<title>Node10</title>
<g id="a_Node000010"><a xlink:href="_macros_8hpp.html" target="_top" xlink:title=" ">
<polygon fill="white" stroke="#666666" points="873.9,-90.5 755.9,-90.5 755.9,-60.5 873.9,-60.5 873.9,-90.5"/>
<text text-anchor="start" x="763.9" y="-78.5" font-family="Helvetica,sans-Serif" font-size="10.00">Hermes/_base/OsApi</text>
<text text-anchor="middle" x="814.9" y="-67.5" font-family="Helvetica,sans-Serif" font-size="10.00">/Macros.hpp</text>
</a>
</g>
</g>
<!-- Node2&#45;&gt;Node10 -->
<g id="edge9_Node000002_Node000010" class="edge">
<title>Node2&#45;&gt;Node10</title>
<g id="a_edge9_Node000002_Node000010"><a xlink:title=" ">
<path fill="none" stroke="#63b8ff" d="M1283.6,-142.8C1195.51,-137.33 1025.19,-123.92 882.9,-96 878.58,-95.15 874.14,-94.16 869.69,-93.08"/>
<polygon fill="#63b8ff" stroke="#63b8ff" points="870.55,-89.69 860,-90.6 868.81,-96.47 870.55,-89.69"/>
</a>
</g>
</g>
<!-- Node12 -->
<g id="Node000012" class="node">
<title>Node12</title>
<g id="a_Node000012"><a xlink:href="_address_family_enum_8hpp.html" target="_top" xlink:title=" ">
<polygon fill="white" stroke="#666666" points="461.9,-90.5 285.9,-90.5 285.9,-60.5 461.9,-60.5 461.9,-90.5"/>
<text text-anchor="start" x="293.9" y="-78.5" font-family="Helvetica,sans-Serif" font-size="10.00">Hermes/_base/OsApi</text>
<text text-anchor="middle" x="373.9" y="-67.5" font-family="Helvetica,sans-Serif" font-size="10.00">/Enums/AddressFamilyEnum.hpp</text>
</a>
</g>
</g>
<!-- Node2&#45;&gt;Node12 -->
<g id="edge13_Node000002_Node000012" class="edge">
<title>Node2&#45;&gt;Node12</title>
<g id="a_edge13_Node000002_Node000012"><a xlink:title=" ">
<path fill="none" stroke="#63b8ff" d="M1283.88,-145.53C1142.66,-143.77 774.4,-135.44 469.9,-96 462.25,-95.01 454.3,-93.76 446.39,-92.37"/>
<polygon fill="#63b8ff" stroke="#63b8ff" points="446.89,-88.9 436.43,-90.54 445.63,-95.79 446.89,-88.9"/>
</a>
</g>
</g>
<!-- Node13 -->
<g id="Node000013" class="node">
<title>Node13</title>
<g id="a_Node000013"><a xlink:href="_protocol_base_type_enum_8hpp.html" target="_top" xlink:title=" ">
<polygon fill="white" stroke="#666666" points="1927.4,-90.5 1736.4,-90.5 1736.4,-60.5 1927.4,-60.5 1927.4,-90.5"/>
<text text-anchor="start" x="1744.4" y="-78.5" font-family="Helvetica,sans-Serif" font-size="10.00">Hermes/_base/OsApi</text>
<text text-anchor="middle" x="1831.9" y="-67.5" font-family="Helvetica,sans-Serif" font-size="10.00">/Enums/ProtocolBaseTypeEnum.hpp</text>
</a>
</g>
</g>
<!-- Node2&#45;&gt;Node13 -->
<g id="edge15_Node000002_Node000013" class="edge">
<title>Node2&#45;&gt;Node13</title>
<g id="a_edge15_Node000002_Node000013"><a xlink:title=" ">
<path fill="none" stroke="#63b8ff" d="M1402.1,-139.01C1476.78,-130.01 1609.09,-113.43 1721.9,-96 1729.52,-94.82 1737.42,-93.54 1745.33,-92.22"/>
<polygon fill="#63b8ff" stroke="#63b8ff" points="1746.07,-95.64 1755.34,-90.52 1744.9,-88.74 1746.07,-95.64"/>
</a>
</g>
</g>
<!-- Node14 -->
<g id="Node000014" class="node">
<title>Node14</title>
<g id="a_Node000014"><a xlink:href="_socket_shutdown_enum_8hpp.html" target="_top" xlink:title=" ">
<polygon fill="white" stroke="#666666" points="664.4,-90.5 479.4,-90.5 479.4,-60.5 664.4,-60.5 664.4,-90.5"/>
<text text-anchor="start" x="487.4" y="-78.5" font-family="Helvetica,sans-Serif" font-size="10.00">Hermes/_base/OsApi</text>
<text text-anchor="middle" x="571.9" y="-67.5" font-family="Helvetica,sans-Serif" font-size="10.00">/Enums/SocketShutdownEnum.hpp</text>
</a>
</g>
</g>
<!-- Node2&#45;&gt;Node14 -->
<g id="edge17_Node000002_Node000014" class="edge">
<title>Node2&#45;&gt;Node14</title>
<g id="a_edge17_Node000002_Node000014"><a xlink:title=" ">
<path fill="none" stroke="#63b8ff" d="M1283.51,-143.89C1166.31,-139.21 897.2,-125.92 672.9,-96 664.97,-94.94 656.73,-93.66 648.52,-92.26"/>
<polygon fill="#63b8ff" stroke="#63b8ff" points="649,-88.79 638.55,-90.5 647.79,-95.68 649,-88.79"/>
</a>
</g>
</g>
<!-- Node15 -->
<g id="Node000015" class="node">
<title>Node15</title>
<g id="a_Node000015"><a xlink:href="_socket_type_enum_8hpp.html" target="_top" xlink:title=" ">
<polygon fill="white" stroke="#666666" points="180.4,-90.5 21.4,-90.5 21.4,-60.5 180.4,-60.5 180.4,-90.5"/>
<text text-anchor="start" x="29.4" y="-78.5" font-family="Helvetica,sans-Serif" font-size="10.00">Hermes/_base/OsApi</text>
<text text-anchor="middle" x="100.9" y="-67.5" font-family="Helvetica,sans-Serif" font-size="10.00">/Enums/SocketTypeEnum.hpp</text>
</a>
</g>
</g>
<!-- Node2&#45;&gt;Node15 -->
<g id="edge19_Node000002_Node000015" class="edge">
<title>Node2&#45;&gt;Node15</title>
<g id="a_edge19_Node000002_Node000015"><a xlink:title=" ">
<path fill="none" stroke="#63b8ff" d="M1283.62,-144.8C1079.11,-140.45 403.88,-124.26 188.9,-96 181.86,-95.07 174.55,-93.86 167.29,-92.5"/>
<polygon fill="#63b8ff" stroke="#63b8ff" points="167.94,-89.06 157.45,-90.56 166.58,-95.93 167.94,-89.06"/>
</a>
</g>
</g>
<!-- Node16 -->
<g id="Node000016" class="node">
<title>Node16</title>
<g id="a_Node000016"><a xlink:title=" ">
<polygon fill="#e0e0e0" stroke="#999999" points="1043.9,-96 891.9,-96 891.9,-55 1043.9,-55 1043.9,-96"/>
<text text-anchor="start" x="899.9" y="-84" font-family="Helvetica,sans-Serif" font-size="10.00">Hermes/_base/OsApi</text>
<text text-anchor="start" x="899.9" y="-73" font-family="Helvetica,sans-Serif" font-size="10.00">/Enums/Linux/EncryptStatus</text>
<text text-anchor="middle" x="967.9" y="-62" font-family="Helvetica,sans-Serif" font-size="10.00">Enum.hpp</text>
</a>
</g>
</g>
<!-- Node2&#45;&gt;Node16 -->
<g id="edge21_Node000002_Node000016" class="edge">
<title>Node2&#45;&gt;Node16</title>
<g id="a_edge21_Node000002_Node000016"><a xlink:title=" ">
<path fill="none" stroke="#63b8ff" d="M1283.85,-136.79C1227.31,-127.75 1139.37,-113.12 1054.15,-96.2"/>
<polygon fill="#63b8ff" stroke="#63b8ff" points="1054.81,-92.77 1044.31,-94.24 1053.43,-99.63 1054.81,-92.77"/>
</a>
</g>
</g>
<!-- Node17 -->
<g id="Node000017" class="node">
<title>Node17</title>
<g id="a_Node000017"><a xlink:href="_name_info_flags_8hpp.html" target="_top" xlink:title=" ">
<polygon fill="white" stroke="#666666" points="2127.9,-90.5 1983.9,-90.5 1983.9,-60.5 2127.9,-60.5 2127.9,-90.5"/>
<text text-anchor="start" x="1991.9" y="-78.5" font-family="Helvetica,sans-Serif" font-size="10.00">Hermes/_base/OsApi</text>
<text text-anchor="middle" x="2055.9" y="-67.5" font-family="Helvetica,sans-Serif" font-size="10.00">/Flags/NameInfoFlags.hpp</text>
</a>
</g>
</g>
<!-- Node2&#45;&gt;Node17 -->
<g id="edge22_Node000002_Node000017" class="edge">
<title>Node2&#45;&gt;Node17</title>
<g id="a_edge22_Node000002_Node000017"><a xlink:title=" ">
<path fill="none" stroke="#63b8ff" d="M1402.01,-144.11C1513.58,-139.92 1762.63,-127.6 1969.9,-96 1976.16,-95.05 1982.64,-93.89 1989.1,-92.63"/>
<polygon fill="#63b8ff" stroke="#63b8ff" points="1990.12,-95.99 1999.22,-90.56 1988.72,-89.13 1990.12,-95.99"/>
</a>
</g>
</g>
<!-- Node18 -->
<g id="Node000018" class="node">
<title>Node18</title>
<g id="a_Node000018"><a xlink:title=" ">
<polygon fill="#e0e0e0" stroke="#999999" points="1237.9,-90.5 1061.9,-90.5 1061.9,-60.5 1237.9,-60.5 1237.9,-90.5"/>
<text text-anchor="start" x="1069.9" y="-78.5" font-family="Helvetica,sans-Serif" font-size="10.00">Hermes/_base/OsApi</text>
<text text-anchor="middle" x="1149.9" y="-67.5" font-family="Helvetica,sans-Serif" font-size="10.00">/Flags/Linux/CredentialFlags.hpp</text>
</a>
</g>
</g>
<!-- Node2&#45;&gt;Node18 -->
<g id="edge24_Node000002_Node000018" class="edge">
<title>Node2&#45;&gt;Node18</title>
<g id="a_edge24_Node000002_Node000018"><a xlink:title=" ">
<path fill="none" stroke="#63b8ff" d="M1303.85,-131.94C1273.5,-121.01 1231.24,-105.79 1198.67,-94.06"/>
<polygon fill="#63b8ff" stroke="#63b8ff" points="1199.49,-90.64 1188.9,-90.54 1197.12,-97.22 1199.49,-90.64"/>
</a>
</g>
</g>
<!-- Node19 -->
<g id="Node000019" class="node">
<title>Node19</title>
<g id="a_Node000019"><a xlink:title=" ">
<polygon fill="#e0e0e0" stroke="#999999" points="1429.4,-96 1256.4,-96 1256.4,-55 1429.4,-55 1429.4,-96"/>
<text text-anchor="start" x="1264.4" y="-84" font-family="Helvetica,sans-Serif" font-size="10.00">Hermes/_base/OsApi</text>
<text text-anchor="start" x="1264.4" y="-73" font-family="Helvetica,sans-Serif" font-size="10.00">/Flags/Linux/SupportedProtocols</text>
<text text-anchor="middle" x="1342.9" y="-62" font-family="Helvetica,sans-Serif" font-size="10.00">Flags.hpp</text>
</a>
</g>
</g>
<!-- Node2&#45;&gt;Node19 -->
<g id="edge25_Node000002_Node000019" class="edge">
<title>Node2&#45;&gt;Node19</title>
<g id="a_edge25_Node000002_Node000019"><a xlink:title=" ">
<path fill="none" stroke="#63b8ff" d="M1342.9,-131.94C1342.9,-124.52 1342.9,-115.14 1342.9,-106.2"/>
<polygon fill="#63b8ff" stroke="#63b8ff" points="1346.4,-106.07 1342.9,-96.07 1339.4,-106.07 1346.4,-106.07"/>
</a>
</g>
</g>
<!-- Node20 -->
<g id="Node000020" class="node">
<title>Node20</title>
<g id="a_Node000020"><a xlink:title=" ">
<polygon fill="#e0e0e0" stroke="#999999" points="1641.9,-90.5 1447.9,-90.5 1447.9,-60.5 1641.9,-60.5 1641.9,-90.5"/>
<text text-anchor="start" x="1455.9" y="-78.5" font-family="Helvetica,sans-Serif" font-size="10.00">Hermes/_base/OsApi</text>
<text text-anchor="middle" x="1544.9" y="-67.5" font-family="Helvetica,sans-Serif" font-size="10.00">/Flags/Linux/SChannelCredFlags.hpp</text>
</a>
</g>
</g>
<!-- Node2&#45;&gt;Node20 -->
<g id="edge26_Node000002_Node000020" class="edge">
<title>Node2&#45;&gt;Node20</title>
<g id="a_edge26_Node000002_Node000020"><a xlink:title=" ">
<path fill="none" stroke="#63b8ff" d="M1383.78,-131.94C1415.68,-120.96 1460.15,-105.66 1494.3,-93.91"/>
<polygon fill="#63b8ff" stroke="#63b8ff" points="1495.77,-97.11 1504.08,-90.54 1493.49,-90.49 1495.77,-97.11"/>
</a>
</g>
</g>
<!-- Node8&#45;&gt;Node9 -->
<g id="edge8_Node000008_Node000009" class="edge">
<title>Node8&#45;&gt;Node9</title>
<g id="a_edge8_Node000008_Node000009"><a xlink:title=" ">
<path fill="none" stroke="#63b8ff" d="M2232.22,-60.3C2240.02,-50.51 2250.4,-37.48 2258.59,-27.2"/>
<polygon fill="#63b8ff" stroke="#63b8ff" points="2261.36,-29.35 2264.85,-19.34 2255.88,-24.98 2261.36,-29.35"/>
</a>
</g>
</g>
<!-- Node10&#45;&gt;Node3 -->
<g id="edge11_Node000010_Node000003" class="edge">
<title>Node10&#45;&gt;Node3</title>
<g id="a_edge11_Node000010_Node000003"><a xlink:title=" ">
<path fill="none" stroke="#63b8ff" d="M766.66,-60.47C760.03,-58.6 753.3,-56.73 746.9,-55 702.83,-43.08 652.27,-30.32 616.87,-21.54"/>
<polygon fill="#63b8ff" stroke="#63b8ff" points="617.39,-18.06 606.85,-19.06 615.71,-24.86 617.39,-18.06"/>
</a>
</g>
</g>
<!-- Node10&#45;&gt;Node4 -->
<g id="edge12_Node000010_Node000004" class="edge">
<title>Node10&#45;&gt;Node4</title>
<g id="a_edge12_Node000010_Node000004"><a xlink:title=" ">
<path fill="none" stroke="#63b8ff" d="M858.46,-60.44C866.52,-58.29 874.91,-56.34 882.9,-55 1034.51,-29.51 1510.65,-15.51 1661.54,-11.63"/>
<polygon fill="#63b8ff" stroke="#63b8ff" points="1661.93,-15.12 1671.84,-11.36 1661.75,-8.12 1661.93,-15.12"/>
</a>
</g>
</g>
<!-- Node10&#45;&gt;Node11 -->
<g id="edge10_Node000010_Node000011" class="edge">
<title>Node10&#45;&gt;Node11</title>
<g id="a_edge10_Node000010_Node000011"><a xlink:title=" ">
<path fill="none" stroke="#63b8ff" d="M770.57,-60.46C762.74,-58.37 754.63,-56.43 746.9,-55 578.35,-23.78 374.3,-14.34 283.91,-11.59"/>
<polygon fill="#63b8ff" stroke="#63b8ff" points="283.81,-8.08 273.71,-11.29 283.61,-15.08 283.81,-8.08"/>
</a>
</g>
</g>
<!-- Node12&#45;&gt;Node3 -->
<g id="edge14_Node000012_Node000003" class="edge">
<title>Node12&#45;&gt;Node3</title>
<g id="a_edge14_Node000012_Node000003"><a xlink:title=" ">
<path fill="none" stroke="#63b8ff" d="M417.35,-60.45C452.84,-48.98 502.41,-32.96 535.76,-22.18"/>
<polygon fill="#63b8ff" stroke="#63b8ff" points="537.11,-25.42 545.55,-19.02 534.96,-18.76 537.11,-25.42"/>
</a>
</g>
</g>
<!-- Node13&#45;&gt;Node4 -->
<g id="edge16_Node000013_Node000004" class="edge">
<title>Node13&#45;&gt;Node4</title>
<g id="a_edge16_Node000013_Node000004"><a xlink:title=" ">
<path fill="none" stroke="#63b8ff" d="M1804.69,-60.45C1783.42,-49.48 1754.08,-34.33 1733.29,-23.61"/>
<polygon fill="#63b8ff" stroke="#63b8ff" points="1734.9,-20.49 1724.4,-19.02 1731.68,-26.71 1734.9,-20.49"/>
</a>
</g>
</g>
<!-- Node14&#45;&gt;Node3 -->
<g id="edge18_Node000014_Node000003" class="edge">
<title>Node14&#45;&gt;Node3</title>
<g id="a_edge18_Node000014_Node000003"><a xlink:title=" ">
<path fill="none" stroke="#63b8ff" d="M571.9,-60.3C571.9,-51.2 571.9,-39.29 571.9,-29.4"/>
<polygon fill="#63b8ff" stroke="#63b8ff" points="575.4,-29.34 571.9,-19.34 568.4,-29.34 575.4,-29.34"/>
</a>
</g>
</g>
<!-- Node15&#45;&gt;Node3 -->
<g id="edge20_Node000015_Node000003" class="edge">
<title>Node15&#45;&gt;Node3</title>
<g id="a_edge20_Node000015_Node000003"><a xlink:title=" ">
<path fill="none" stroke="#63b8ff" d="M160.38,-60.45C169.89,-58.46 179.64,-56.56 188.9,-55 308.29,-34.89 450.14,-20.99 523.13,-14.55"/>
<polygon fill="#63b8ff" stroke="#63b8ff" points="523.73,-18.01 533.39,-13.66 523.13,-11.04 523.73,-18.01"/>
</a>
</g>
</g>
<!-- Node17&#45;&gt;Node6 -->
<g id="edge23_Node000017_Node000006" class="edge">
<title>Node17&#45;&gt;Node6</title>
<g id="a_edge23_Node000017_Node000006"><a xlink:title=" ">
<path fill="none" stroke="#63b8ff" d="M2044.8,-60.3C2037.24,-50.61 2027.18,-37.74 2019.19,-27.51"/>
<polygon fill="#63b8ff" stroke="#63b8ff" points="2021.73,-25.07 2012.81,-19.34 2016.21,-29.38 2021.73,-25.07"/>
</a>
</g>
</g>
</g>
</svg>
