<?xml version="1.0" encoding="UTF-8" standalone="no"?>
<!DOCTYPE svg PUBLIC "-//W3C//DTD SVG 1.1//EN"
 "http://www.w3.org/Graphics/SVG/1.1/DTD/svg11.dtd">
<!-- Generated by graphviz version 2.43.0 (0)
 -->
<!-- Title: include/Hermes/Socket/Data/TlsSocketData.hpp Pages: 1 -->
<svg width="787pt" height="269pt"
 viewBox="0.00 0.00 786.82 269.00" xmlns="http://www.w3.org/2000/svg" xmlns:xlink="http://www.w3.org/1999/xlink">
<g id="graph0" class="graph" transform="scale(1 1) rotate(0) translate(4 265)">
<title>include/Hermes/Socket/Data/TlsSocketData.hpp</title>
<!-- Node1 -->
<g id="Node000001" class="node">
<title>Node1</title>
<g id="a_Node000001"><a xlink:title=" ">
<polygon fill="#999999" stroke="#666666" points="295.82,-261 158.82,-261 158.82,-231 295.82,-231 295.82,-261"/>
<text text-anchor="start" x="166.82" y="-249" font-family="Helvetica,sans-Serif" font-size="10.00">include/Hermes/Socket</text>
<text text-anchor="middle" x="227.32" y="-238" font-family="Helvetica,sans-Serif" font-size="10.00">/Data/TlsSocketData.hpp</text>
</a>
</g>
</g>
<!-- Node2 -->
<g id="Node000002" class="node">
<title>Node2</title>
<g id="a_Node000002"><a xlink:href="_tls_async_accept_policy_8hpp.html" target="_top" xlink:title=" ">
<polygon fill="white" stroke="#666666" points="189.82,-118 26.82,-118 26.82,-77 189.82,-77 189.82,-118"/>
<text text-anchor="start" x="34.82" y="-106" font-family="Helvetica,sans-Serif" font-size="10.00">include/Hermes/Socket</text>
<text text-anchor="start" x="34.82" y="-95" font-family="Helvetica,sans-Serif" font-size="10.00">/Async/_base/Accept/TlsAsync</text>
<text text-anchor="middle" x="108.32" y="-84" font-family="Helvetica,sans-Serif" font-size="10.00">AcceptPolicy.hpp</text>
</a>
</g>
</g>
<!-- Node1&#45;&gt;Node2 -->
<g id="edge1_Node000001_Node000002" class="edge">
<title>Node1&#45;&gt;Node2</title>
<g id="a_edge1_Node000001_Node000002"><a xlink:title=" ">
<path fill="none" stroke="#63b8ff" d="M148.68,-231.6C109.13,-223.08 67.11,-210.7 55.32,-195 36.84,-170.39 62.57,-138.57 84.21,-118.34"/>
<polygon fill="#63b8ff" stroke="#63b8ff" points="148.16,-235.06 158.66,-233.68 149.59,-228.21 148.16,-235.06"/>
</a>
</g>
</g>
<!-- Node3 -->
<g id="Node000003" class="node">
<title>Node3</title>
<g id="a_Node000003"><a xlink:href="_tls_async_connect_policy_8hpp.html" target="_top" xlink:title=" ">
<polygon fill="white" stroke="#666666" points="441.32,-41 289.32,-41 289.32,0 441.32,0 441.32,-41"/>
<text text-anchor="start" x="297.32" y="-29" font-family="Helvetica,sans-Serif" font-size="10.00">include/Hermes/Socket</text>
<text text-anchor="start" x="297.32" y="-18" font-family="Helvetica,sans-Serif" font-size="10.00">/Async/_base/Connection</text>
<text text-anchor="middle" x="365.32" y="-7" font-family="Helvetica,sans-Serif" font-size="10.00">/TlsAsyncConnectPolicy.hpp</text>
</a>
</g>
</g>
<!-- Node1&#45;&gt;Node3 -->
<g id="edge2_Node000001_Node000003" class="edge">
<title>Node1&#45;&gt;Node3</title>
<g id="a_edge2_Node000001_Node000003"><a xlink:title=" ">
<path fill="none" stroke="#63b8ff" d="M148.25,-239.55C112.96,-233.36 73.16,-220.68 45.32,-195 5.7,-158.45 -17.67,-118.01 17.32,-77 51.52,-36.91 197.24,-25.65 288.93,-22.56"/>
<polygon fill="#63b8ff" stroke="#63b8ff" points="148.13,-243.08 158.55,-241.2 149.23,-236.16 148.13,-243.08"/>
</a>
</g>
</g>
<!-- Node4 -->
<g id="Node000004" class="node">
<title>Node4</title>
<g id="a_Node000004"><a xlink:href="_tls_async_transfer_policy_8hpp.html" target="_top" xlink:title=" ">
<polygon fill="white" stroke="#666666" points="215.82,-195 64.82,-195 64.82,-154 215.82,-154 215.82,-195"/>
<text text-anchor="start" x="72.82" y="-183" font-family="Helvetica,sans-Serif" font-size="10.00">include/Hermes/Socket</text>
<text text-anchor="start" x="72.82" y="-172" font-family="Helvetica,sans-Serif" font-size="10.00">/Async/_base/Transfer</text>
<text text-anchor="middle" x="140.32" y="-161" font-family="Helvetica,sans-Serif" font-size="10.00">/TlsAsyncTransferPolicy.hpp</text>
</a>
</g>
</g>
<!-- Node1&#45;&gt;Node4 -->
<g id="edge3_Node000001_Node000004" class="edge">
<title>Node1&#45;&gt;Node4</title>
<g id="a_edge3_Node000001_Node000004"><a xlink:title=" ">
<path fill="none" stroke="#63b8ff" d="M201.66,-224.5C190.02,-215.21 176.32,-204.26 164.82,-195.07"/>
<polygon fill="#63b8ff" stroke="#63b8ff" points="199.71,-227.43 209.71,-230.94 204.08,-221.96 199.71,-227.43"/>
</a>
</g>
</g>
<!-- Node5 -->
<g id="Node000005" class="node">
<title>Node5</title>
<g id="a_Node000005"><a xlink:href="_tls_accept_policy_8hpp.html" target="_top" xlink:title=" ">
<polygon fill="white" stroke="#666666" points="394.82,-195 233.82,-195 233.82,-154 394.82,-154 394.82,-195"/>
<text text-anchor="start" x="241.82" y="-183" font-family="Helvetica,sans-Serif" font-size="10.00">include/Hermes/Socket</text>
<text text-anchor="start" x="241.82" y="-172" font-family="Helvetica,sans-Serif" font-size="10.00">/Sync/_base/Accept/TlsAccept</text>
<text text-anchor="middle" x="314.32" y="-161" font-family="Helvetica,sans-Serif" font-size="10.00">Policy.hpp</text>
</a>
</g>
</g>
<!-- Node1&#45;&gt;Node5 -->
<g id="edge4_Node000001_Node000005" class="edge">
<title>Node1&#45;&gt;Node5</title>
<g id="a_edge4_Node000001_Node000005"><a xlink:title=" ">
<path fill="none" stroke="#63b8ff" d="M252.97,-224.5C264.61,-215.21 278.32,-204.26 289.82,-195.07"/>
<polygon fill="#63b8ff" stroke="#63b8ff" points="250.55,-221.96 244.92,-230.94 254.92,-227.43 250.55,-221.96"/>
</a>
</g>
</g>
<!-- Node7 -->
<g id="Node000007" class="node">
<title>Node7</title>
<g id="a_Node000007"><a xlink:href="_tls_connect_policy_8hpp.html" target="_top" xlink:title=" ">
<polygon fill="white" stroke="#666666" points="545.32,-195 413.32,-195 413.32,-154 545.32,-154 545.32,-195"/>
<text text-anchor="start" x="421.32" y="-183" font-family="Helvetica,sans-Serif" font-size="10.00">include/Hermes/Socket</text>
<text text-anchor="start" x="421.32" y="-172" font-family="Helvetica,sans-Serif" font-size="10.00">/Sync/_base/Connection</text>
<text text-anchor="middle" x="479.32" y="-161" font-family="Helvetica,sans-Serif" font-size="10.00">/TlsConnectPolicy.hpp</text>
</a>
</g>
</g>
<!-- Node1&#45;&gt;Node7 -->
<g id="edge7_Node000001_Node000007" class="edge">
<title>Node1&#45;&gt;Node7</title>
<g id="a_edge7_Node000001_Node000007"><a xlink:title=" ">
<path fill="none" stroke="#63b8ff" d="M288.16,-228.22C325.89,-217.81 374.38,-204.44 413.08,-193.77"/>
<polygon fill="#63b8ff" stroke="#63b8ff" points="287.02,-224.9 278.31,-230.94 288.88,-231.65 287.02,-224.9"/>
</a>
</g>
</g>
<!-- Node11 -->
<g id="Node000011" class="node">
<title>Node11</title>
<g id="a_Node000011"><a xlink:href="_tls_transfer_policy_8hpp.html" target="_top" xlink:title=" ">
<polygon fill="white" stroke="#666666" points="691.32,-195 563.32,-195 563.32,-154 691.32,-154 691.32,-195"/>
<text text-anchor="start" x="571.32" y="-183" font-family="Helvetica,sans-Serif" font-size="10.00">include/Hermes/Socket</text>
<text text-anchor="start" x="571.32" y="-172" font-family="Helvetica,sans-Serif" font-size="10.00">/Sync/_base/Transfer</text>
<text text-anchor="middle" x="627.32" y="-161" font-family="Helvetica,sans-Serif" font-size="10.00">/TlsTransferPolicy.hpp</text>
</a>
</g>
</g>
<!-- Node1&#45;&gt;Node11 -->
<g id="edge13_Node000001_Node000011" class="edge">
<title>Node1&#45;&gt;Node11</title>
<g id="a_edge13_Node000001_Node000011"><a xlink:title=" ">
<path fill="none" stroke="#63b8ff" d="M305.97,-235.43C372.47,-226.75 470.11,-212.63 554.32,-195 557.14,-194.41 560.02,-193.77 562.92,-193.11"/>
<polygon fill="#63b8ff" stroke="#63b8ff" points="305.44,-231.97 295.98,-236.72 306.34,-238.91 305.44,-231.97"/>
</a>
</g>
</g>
<!-- Node5&#45;&gt;Node2 -->
<g id="edge5_Node000005_Node000002" class="edge">
<title>Node5&#45;&gt;Node2</title>
<g id="a_edge5_Node000005_Node000002"><a xlink:title=" ">
<path fill="none" stroke="#63b8ff" d="M251.25,-150.54C222.71,-140.15 189.32,-127.99 161.99,-118.04"/>
<polygon fill="#63b8ff" stroke="#63b8ff" points="250.14,-153.86 260.73,-153.99 252.53,-147.28 250.14,-153.86"/>
</a>
</g>
</g>
<!-- Node6 -->
<g id="Node000006" class="node">
<title>Node6</title>
<g id="a_Node000006"><a xlink:href="_tls_accept_state_machine_8hpp.html" target="_top" xlink:title=" ">
<polygon fill="white" stroke="#666666" points="368.32,-118 208.32,-118 208.32,-77 368.32,-77 368.32,-118"/>
<text text-anchor="start" x="216.32" y="-106" font-family="Helvetica,sans-Serif" font-size="10.00">include/Hermes/Socket</text>
<text text-anchor="start" x="216.32" y="-95" font-family="Helvetica,sans-Serif" font-size="10.00">/_base/Accept/TlsAcceptState</text>
<text text-anchor="middle" x="288.32" y="-84" font-family="Helvetica,sans-Serif" font-size="10.00">Machine.hpp</text>
</a>
</g>
</g>
<!-- Node5&#45;&gt;Node6 -->
<g id="edge6_Node000005_Node000006" class="edge">
<title>Node5&#45;&gt;Node6</title>
<g id="a_edge6_Node000005_Node000006"><a xlink:title=" ">
<path fill="none" stroke="#63b8ff" d="M304.18,-144.26C301.14,-135.48 297.87,-126.07 295.1,-118.07"/>
<polygon fill="#63b8ff" stroke="#63b8ff" points="300.9,-145.49 307.49,-153.79 307.52,-143.2 300.9,-145.49"/>
</a>
</g>
</g>
<!-- Node7&#45;&gt;Node3 -->
<g id="edge11_Node000007_Node000003" class="edge">
<title>Node7&#45;&gt;Node3</title>
<g id="a_edge11_Node000007_Node000003"><a xlink:title=" ">
<path fill="none" stroke="#63b8ff" d="M444.95,-147.19C434.98,-138.56 424.58,-128.48 416.32,-118 397.32,-93.89 381.94,-61.65 373.21,-41.23"/>
<polygon fill="#63b8ff" stroke="#63b8ff" points="442.88,-150.02 452.79,-153.77 447.38,-144.66 442.88,-150.02"/>
</a>
</g>
</g>
<!-- Node8 -->
<g id="Node000008" class="node">
<title>Node8</title>
<g id="a_Node000008"><a xlink:href="_default_async_connect_policy_8hpp.html" target="_top" xlink:title=" ">
<polygon fill="white" stroke="#666666" points="597.82,-118 424.82,-118 424.82,-77 597.82,-77 597.82,-118"/>
<text text-anchor="start" x="432.82" y="-106" font-family="Helvetica,sans-Serif" font-size="10.00">include/Hermes/Socket</text>
<text text-anchor="start" x="432.82" y="-95" font-family="Helvetica,sans-Serif" font-size="10.00">/Async/_base/Connection</text>
<text text-anchor="middle" x="511.32" y="-84" font-family="Helvetica,sans-Serif" font-size="10.00">/DefaultAsyncConnectPolicy.hpp</text>
</a>
</g>
</g>
<!-- Node7&#45;&gt;Node8 -->
<g id="edge8_Node000007_Node000008" class="edge">
<title>Node7&#45;&gt;Node8</title>
<g id="a_edge8_Node000007_Node000008"><a xlink:title=" ">
<path fill="none" stroke="#63b8ff" d="M491.67,-144.55C495.45,-135.69 499.52,-126.15 502.97,-118.07"/>
<polygon fill="#63b8ff" stroke="#63b8ff" points="488.43,-143.22 487.73,-153.79 494.87,-145.97 488.43,-143.22"/>
</a>
</g>
</g>
<!-- Node10 -->
<g id="Node000010" class="node">
<title>Node10</title>
<g id="a_Node000010"><a xlink:href="_tls_connect_state_machine_8hpp.html" target="_top" xlink:title=" ">
<polygon fill="white" stroke="#666666" points="778.82,-118 615.82,-118 615.82,-77 778.82,-77 778.82,-118"/>
<text text-anchor="start" x="623.82" y="-106" font-family="Helvetica,sans-Serif" font-size="10.00">include/Hermes/Socket</text>
<text text-anchor="start" x="623.82" y="-95" font-family="Helvetica,sans-Serif" font-size="10.00">/_base/Connection/TlsConnect</text>
<text text-anchor="middle" x="697.32" y="-84" font-family="Helvetica,sans-Serif" font-size="10.00">StateMachine.hpp</text>
</a>
</g>
</g>
<!-- Node7&#45;&gt;Node10 -->
<g id="edge12_Node000007_Node000010" class="edge">
<title>Node7&#45;&gt;Node10</title>
<g id="a_edge12_Node000007_Node000010"><a xlink:title=" ">
<path fill="none" stroke="#63b8ff" d="M545.66,-150.67C575.96,-140.25 611.47,-128.03 640.52,-118.04"/>
<polygon fill="#63b8ff" stroke="#63b8ff" points="544.34,-147.43 536.03,-153.99 546.62,-154.05 544.34,-147.43"/>
</a>
</g>
</g>
<!-- Node8&#45;&gt;Node3 -->
<g id="edge10_Node000008_Node000003" class="edge">
<title>Node8&#45;&gt;Node3</title>
<g id="a_edge10_Node000008_Node000003"><a xlink:title=" ">
<path fill="none" stroke="#63b8ff" d="M464.23,-72.31C444.54,-62.2 421.97,-50.6 403.36,-41.04"/>
<polygon fill="#63b8ff" stroke="#63b8ff" points="462.85,-75.53 473.34,-76.99 466.04,-69.31 462.85,-75.53"/>
</a>
</g>
</g>
<!-- Node9 -->
<g id="Node000009" class="node">
<title>Node9</title>
<g id="a_Node000009"><a xlink:href="_async_client_socket_8hpp.html" target="_top" xlink:title=" ">
<polygon fill="white" stroke="#666666" points="622.82,-35.5 459.82,-35.5 459.82,-5.5 622.82,-5.5 622.82,-35.5"/>
<text text-anchor="start" x="467.82" y="-23.5" font-family="Helvetica,sans-Serif" font-size="10.00">include/Hermes/Socket</text>
<text text-anchor="middle" x="541.32" y="-12.5" font-family="Helvetica,sans-Serif" font-size="10.00">/Async/AsyncClientSocket.hpp</text>
</a>
</g>
</g>
<!-- Node8&#45;&gt;Node9 -->
<g id="edge9_Node000008_Node000009" class="edge">
<title>Node8&#45;&gt;Node9</title>
<g id="a_edge9_Node000008_Node000009"><a xlink:title=" ">
<path fill="none" stroke="#63b8ff" d="M523.01,-67.27C527.32,-56.49 532.02,-44.75 535.57,-35.86"/>
<polygon fill="#63b8ff" stroke="#63b8ff" points="519.66,-66.21 519.2,-76.79 526.16,-68.81 519.66,-66.21"/>
</a>
</g>
</g>
</g>
</svg>
