<?xml version="1.0" encoding="UTF-8" standalone="no"?>
<!DOCTYPE svg PUBLIC "-//W3C//DTD SVG 1.1//EN"
 "http://www.w3.org/Graphics/SVG/1.1/DTD/svg11.dtd">
<!-- Generated by graphviz version 2.43.0 (0)
 -->
<!-- Title: include/Hermes/Utils/ToBytes.hpp Pages: 1 -->
<svg width="3055pt" height="357pt"
 viewBox="0.00 0.00 3054.50 357.00" xmlns="http://www.w3.org/2000/svg" xmlns:xlink="http://www.w3.org/1999/xlink">
<g id="graph0" class="graph" transform="scale(1 1) rotate(0) translate(4 353)">
<title>include/Hermes/Utils/ToBytes.hpp</title>
<!-- Node1 -->
<g id="Node000001" class="node">
<title>Node1</title>
<g id="a_Node000001"><a xlink:title=" ">
<polygon fill="#999999" stroke="#666666" points="2476.5,-349 2357.5,-349 2357.5,-319 2476.5,-319 2476.5,-349"/>
<text text-anchor="start" x="2365.5" y="-337" font-family="Helvetica,sans-Serif" font-size="10.00">include/Hermes/Utils</text>
<text text-anchor="middle" x="2417" y="-326" font-family="Helvetica,sans-Serif" font-size="10.00">/ToBytes.hpp</text>
</a>
</g>
</g>
<!-- Node2 -->
<g id="Node000002" class="node">
<title>Node2</title>
<g id="a_Node000002"><a xlink:title=" ">
<polygon fill="#e0e0e0" stroke="#999999" points="2333,-85 2293,-85 2293,-66 2333,-66 2333,-85"/>
<text text-anchor="middle" x="2313" y="-73" font-family="Helvetica,sans-Serif" font-size="10.00">span</text>
</a>
</g>
</g>
<!-- Node1&#45;&gt;Node2 -->
<g id="edge1_Node000001_Node000002" class="edge">
<title>Node1&#45;&gt;Node2</title>
<g id="a_edge1_Node000001_Node000002"><a xlink:title=" ">
<path fill="none" stroke="#63b8ff" d="M2401,-318.82C2381.13,-300.16 2347.9,-265.33 2332,-228 2312.93,-183.22 2311.44,-124.73 2312.12,-95.24"/>
<polygon fill="#63b8ff" stroke="#63b8ff" points="2315.63,-95.25 2312.47,-85.13 2308.63,-95 2315.63,-95.25"/>
</a>
</g>
</g>
<!-- Node3 -->
<g id="Node000003" class="node">
<title>Node3</title>
<g id="a_Node000003"><a xlink:href="__base_8hpp.html" target="_top" xlink:title=" ">
<polygon fill="white" stroke="#666666" points="2628.5,-283 2485.5,-283 2485.5,-264 2628.5,-264 2628.5,-283"/>
<text text-anchor="middle" x="2557" y="-271" font-family="Helvetica,sans-Serif" font-size="10.00">Hermes/Socket/_base.hpp</text>
</a>
</g>
</g>
<!-- Node1&#45;&gt;Node3 -->
<g id="edge2_Node000001_Node000003" class="edge">
<title>Node1&#45;&gt;Node3</title>
<g id="a_edge2_Node000001_Node000003"><a xlink:title=" ">
<path fill="none" stroke="#63b8ff" d="M2450.53,-318.99C2473.79,-309.27 2504.49,-296.44 2526.95,-287.06"/>
<polygon fill="#63b8ff" stroke="#63b8ff" points="2528.45,-290.22 2536.32,-283.14 2525.75,-283.77 2528.45,-290.22"/>
</a>
</g>
</g>
<!-- Node4 -->
<g id="Node000004" class="node">
<title>Node4</title>
<g id="a_Node000004"><a xlink:href="_endpoint_concept_8hpp.html" target="_top" xlink:title=" ">
<polygon fill="white" stroke="#666666" points="2473,-228 2341,-228 2341,-198 2473,-198 2473,-228"/>
<text text-anchor="start" x="2349" y="-216" font-family="Helvetica,sans-Serif" font-size="10.00">Hermes/Endpoint/_base</text>
<text text-anchor="middle" x="2407" y="-205" font-family="Helvetica,sans-Serif" font-size="10.00">/EndpointConcept.hpp</text>
</a>
</g>
</g>
<!-- Node3&#45;&gt;Node4 -->
<g id="edge3_Node000003_Node000004" class="edge">
<title>Node3&#45;&gt;Node4</title>
<g id="a_edge3_Node000003_Node000004"><a xlink:title=" ">
<path fill="none" stroke="#63b8ff" d="M2535.19,-263.99C2513.6,-255.57 2479.9,-242.43 2452.47,-231.73"/>
<polygon fill="#63b8ff" stroke="#63b8ff" points="2453.65,-228.44 2443.06,-228.06 2451.11,-234.96 2453.65,-228.44"/>
</a>
</g>
</g>
<!-- Node5 -->
<g id="Node000005" class="node">
<title>Node5</title>
<g id="a_Node000005"><a xlink:href="_connection_error_enum_8hpp.html" target="_top" xlink:title=" ">
<polygon fill="white" stroke="#666666" points="2614.5,-162 2447.5,-162 2447.5,-132 2614.5,-132 2614.5,-162"/>
<text text-anchor="start" x="2455.5" y="-150" font-family="Helvetica,sans-Serif" font-size="10.00">Hermes/_base/ConnectionError</text>
<text text-anchor="middle" x="2531" y="-139" font-family="Helvetica,sans-Serif" font-size="10.00">Enum.hpp</text>
</a>
</g>
</g>
<!-- Node3&#45;&gt;Node5 -->
<g id="edge38_Node000003_Node000005" class="edge">
<title>Node3&#45;&gt;Node5</title>
<g id="a_edge38_Node000003_Node000005"><a xlink:title=" ">
<path fill="none" stroke="#63b8ff" d="M2582.51,-263.9C2598.69,-256.96 2618.35,-245.44 2628,-228 2634.46,-216.33 2634.94,-209.38 2628,-198 2619.47,-184 2605.62,-173.75 2591.02,-166.32"/>
<polygon fill="#63b8ff" stroke="#63b8ff" points="2592.42,-163.11 2581.88,-162.05 2589.46,-169.45 2592.42,-163.11"/>
</a>
</g>
</g>
<!-- Node9 -->
<g id="Node000009" class="node">
<title>Node9</title>
<g id="a_Node000009"><a xlink:title=" ">
<polygon fill="#e0e0e0" stroke="#999999" points="3046.5,-85 2921.5,-85 2921.5,-66 3046.5,-66 3046.5,-85"/>
<text text-anchor="middle" x="2984" y="-73" font-family="Helvetica,sans-Serif" font-size="10.00">stdexec/execution.hpp</text>
</a>
</g>
</g>
<!-- Node3&#45;&gt;Node9 -->
<g id="edge39_Node000003_Node000009" class="edge">
<title>Node3&#45;&gt;Node9</title>
<g id="a_edge39_Node000003_Node000009"><a xlink:title=" ">
<path fill="none" stroke="#63b8ff" d="M2575.62,-263.95C2643.05,-233 2874.69,-126.67 2955.73,-89.48"/>
<polygon fill="#63b8ff" stroke="#63b8ff" points="2957.65,-92.45 2965.28,-85.09 2954.73,-86.08 2957.65,-92.45"/>
</a>
</g>
</g>
<!-- Node31 -->
<g id="Node000031" class="node">
<title>Node31</title>
<g id="a_Node000031"><a xlink:title=" ">
<polygon fill="#e0e0e0" stroke="#999999" points="2551,-222.5 2491,-222.5 2491,-203.5 2551,-203.5 2551,-222.5"/>
<text text-anchor="middle" x="2521" y="-210.5" font-family="Helvetica,sans-Serif" font-size="10.00">concepts</text>
</a>
</g>
</g>
<!-- Node3&#45;&gt;Node31 -->
<g id="edge40_Node000003_Node000031" class="edge">
<title>Node3&#45;&gt;Node31</title>
<g id="a_edge40_Node000003_Node000031"><a xlink:title=" ">
<path fill="none" stroke="#63b8ff" d="M2551.69,-263.87C2546.42,-255.31 2538.21,-241.97 2531.61,-231.24"/>
<polygon fill="#63b8ff" stroke="#63b8ff" points="2534.56,-229.35 2526.33,-222.67 2528.59,-233.02 2534.56,-229.35"/>
</a>
</g>
</g>
<!-- Node32 -->
<g id="Node000032" class="node">
<title>Node32</title>
<g id="a_Node000032"><a xlink:title=" ">
<polygon fill="#e0e0e0" stroke="#999999" points="2619,-222.5 2569,-222.5 2569,-203.5 2619,-203.5 2619,-222.5"/>
<text text-anchor="middle" x="2594" y="-210.5" font-family="Helvetica,sans-Serif" font-size="10.00">ranges</text>
</a>
</g>
</g>
<!-- Node3&#45;&gt;Node32 -->
<g id="edge41_Node000003_Node000032" class="edge">
<title>Node3&#45;&gt;Node32</title>
<g id="a_edge41_Node000003_Node000032"><a xlink:title=" ">
<path fill="none" stroke="#63b8ff" d="M2562.46,-263.87C2567.87,-255.31 2576.31,-241.97 2583.1,-231.24"/>
<polygon fill="#63b8ff" stroke="#63b8ff" points="2586.13,-232.99 2588.52,-222.67 2580.21,-229.25 2586.13,-232.99"/>
</a>
</g>
</g>
<!-- Node4&#45;&gt;Node5 -->
<g id="edge4_Node000004_Node000005" class="edge">
<title>Node4&#45;&gt;Node5</title>
<g id="a_edge4_Node000004_Node000005"><a xlink:title=" ">
<path fill="none" stroke="#63b8ff" d="M2434.21,-197.95C2451.98,-188.78 2475.38,-176.71 2494.72,-166.72"/>
<polygon fill="#63b8ff" stroke="#63b8ff" points="2496.57,-169.71 2503.85,-162.01 2493.36,-163.49 2496.57,-169.71"/>
</a>
</g>
</g>
<!-- Node12 -->
<g id="Node000012" class="node">
<title>Node12</title>
<g id="a_Node000012"><a xlink:href="_os_api_8hpp.html" target="_top" xlink:title=" ">
<polygon fill="white" stroke="#666666" points="1234,-162 1116,-162 1116,-132 1234,-132 1234,-162"/>
<text text-anchor="start" x="1124" y="-150" font-family="Helvetica,sans-Serif" font-size="10.00">Hermes/_base/OsApi</text>
<text text-anchor="middle" x="1175" y="-139" font-family="Helvetica,sans-Serif" font-size="10.00">/OsApi.hpp</text>
</a>
</g>
</g>
<!-- Node4&#45;&gt;Node12 -->
<g id="edge12_Node000004_Node000012" class="edge">
<title>Node4&#45;&gt;Node12</title>
<g id="a_edge12_Node000004_Node000012"><a xlink:title=" ">
<path fill="none" stroke="#63b8ff" d="M2340.76,-208.56C2127.73,-197.49 1461.47,-162.88 1244.24,-151.6"/>
<polygon fill="#63b8ff" stroke="#63b8ff" points="1244.41,-148.1 1234.24,-151.08 1244.05,-155.09 1244.41,-148.1"/>
</a>
</g>
</g>
<!-- Node5&#45;&gt;Node2 -->
<g id="edge7_Node000005_Node000002" class="edge">
<title>Node5&#45;&gt;Node2</title>
<g id="a_edge7_Node000005_Node000002"><a xlink:title=" ">
<path fill="none" stroke="#63b8ff" d="M2454.97,-131.97C2419.67,-123.93 2377.71,-112.17 2342,-96 2338.69,-94.5 2335.35,-92.64 2332.17,-90.67"/>
<polygon fill="#63b8ff" stroke="#63b8ff" points="2334.03,-87.7 2323.78,-85.01 2330.12,-93.5 2334.03,-87.7"/>
</a>
</g>
</g>
<!-- Node6 -->
<g id="Node000006" class="node">
<title>Node6</title>
<g id="a_Node000006"><a xlink:title=" ">
<polygon fill="#e0e0e0" stroke="#999999" points="2413,-85 2351,-85 2351,-66 2413,-66 2413,-85"/>
<text text-anchor="middle" x="2382" y="-73" font-family="Helvetica,sans-Serif" font-size="10.00">expected</text>
</a>
</g>
</g>
<!-- Node5&#45;&gt;Node6 -->
<g id="edge5_Node000005_Node000006" class="edge">
<title>Node5&#45;&gt;Node6</title>
<g id="a_edge5_Node000005_Node000006"><a xlink:title=" ">
<path fill="none" stroke="#63b8ff" d="M2500.24,-131.86C2478.61,-121.89 2449,-108.2 2423,-96 2418.51,-93.89 2413.75,-91.64 2409.12,-89.45"/>
<polygon fill="#63b8ff" stroke="#63b8ff" points="2410.48,-86.22 2399.94,-85.08 2407.47,-92.54 2410.48,-86.22"/>
</a>
</g>
</g>
<!-- Node7 -->
<g id="Node000007" class="node">
<title>Node7</title>
<g id="a_Node000007"><a xlink:title=" ">
<polygon fill="#e0e0e0" stroke="#999999" points="2478.5,-85 2431.5,-85 2431.5,-66 2478.5,-66 2478.5,-85"/>
<text text-anchor="middle" x="2455" y="-73" font-family="Helvetica,sans-Serif" font-size="10.00">vector</text>
</a>
</g>
</g>
<!-- Node5&#45;&gt;Node7 -->
<g id="edge6_Node000005_Node000007" class="edge">
<title>Node5&#45;&gt;Node7</title>
<g id="a_edge6_Node000005_Node000007"><a xlink:title=" ">
<path fill="none" stroke="#63b8ff" d="M2515.62,-131.94C2502.98,-120.37 2485.08,-104.01 2472.01,-92.06"/>
<polygon fill="#63b8ff" stroke="#63b8ff" points="2474.33,-89.43 2464.59,-85.27 2469.6,-94.6 2474.33,-89.43"/>
</a>
</g>
</g>
<!-- Node8 -->
<g id="Node000008" class="node">
<title>Node8</title>
<g id="a_Node000008"><a xlink:title=" ">
<polygon fill="#e0e0e0" stroke="#999999" points="2565.5,-85 2496.5,-85 2496.5,-66 2565.5,-66 2565.5,-85"/>
<text text-anchor="middle" x="2531" y="-73" font-family="Helvetica,sans-Serif" font-size="10.00">type_traits</text>
</a>
</g>
</g>
<!-- Node5&#45;&gt;Node8 -->
<g id="edge8_Node000005_Node000008" class="edge">
<title>Node5&#45;&gt;Node8</title>
<g id="a_edge8_Node000005_Node000008"><a xlink:title=" ">
<path fill="none" stroke="#63b8ff" d="M2531,-131.94C2531,-121.46 2531,-107.05 2531,-95.55"/>
<polygon fill="#63b8ff" stroke="#63b8ff" points="2534.5,-95.27 2531,-85.27 2527.5,-95.27 2534.5,-95.27"/>
</a>
</g>
</g>
<!-- Node5&#45;&gt;Node9 -->
<g id="edge9_Node000005_Node000009" class="edge">
<title>Node5&#45;&gt;Node9</title>
<g id="a_edge9_Node000005_Node000009"><a xlink:title=" ">
<path fill="none" stroke="#63b8ff" d="M2614.63,-138.41C2692.39,-130.55 2811.21,-116.54 2913,-96 2923.92,-93.8 2935.63,-90.83 2946.33,-87.88"/>
<polygon fill="#63b8ff" stroke="#63b8ff" points="2947.56,-91.18 2956.22,-85.08 2945.65,-84.44 2947.56,-91.18"/>
</a>
</g>
</g>
<!-- Node10 -->
<g id="Node000010" class="node">
<title>Node10</title>
<g id="a_Node000010"><a xlink:title=" ">
<polygon fill="#e0e0e0" stroke="#999999" points="2718,-85 2584,-85 2584,-66 2718,-66 2718,-85"/>
<text text-anchor="middle" x="2651" y="-73" font-family="Helvetica,sans-Serif" font-size="10.00">exec/any_sender_of.hpp</text>
</a>
</g>
</g>
<!-- Node5&#45;&gt;Node10 -->
<g id="edge10_Node000005_Node000010" class="edge">
<title>Node5&#45;&gt;Node10</title>
<g id="a_edge10_Node000005_Node000010"><a xlink:title=" ">
<path fill="none" stroke="#63b8ff" d="M2555.28,-131.94C2576.31,-119.76 2606.53,-102.26 2627.36,-90.19"/>
<polygon fill="#63b8ff" stroke="#63b8ff" points="2629.31,-93.11 2636.21,-85.07 2625.8,-87.05 2629.31,-93.11"/>
</a>
</g>
</g>
<!-- Node11 -->
<g id="Node000011" class="node">
<title>Node11</title>
<g id="a_Node000011"><a xlink:title=" ">
<polygon fill="#e0e0e0" stroke="#999999" points="2903.5,-90.5 2736.5,-90.5 2736.5,-60.5 2903.5,-60.5 2903.5,-90.5"/>
<text text-anchor="start" x="2744.5" y="-78.5" font-family="Helvetica,sans-Serif" font-size="10.00">Hermes/_base/ConnectionError</text>
<text text-anchor="middle" x="2820" y="-67.5" font-family="Helvetica,sans-Serif" font-size="10.00">Enum.tpp</text>
</a>
</g>
</g>
<!-- Node5&#45;&gt;Node11 -->
<g id="edge11_Node000005_Node000011" class="edge">
<title>Node5&#45;&gt;Node11</title>
<g id="a_edge11_Node000005_Node000011"><a xlink:title=" ">
<path fill="none" stroke="#63b8ff" d="M2589.48,-131.94C2636.39,-120.65 2702.31,-104.8 2751.65,-92.94"/>
<polygon fill="#63b8ff" stroke="#63b8ff" points="2752.7,-96.28 2761.6,-90.54 2751.06,-89.48 2752.7,-96.28"/>
</a>
</g>
</g>
<!-- Node13 -->
<g id="Node000013" class="node">
<title>Node13</title>
<g id="a_Node000013"><a xlink:title=" ">
<polygon fill="#e0e0e0" stroke="#999999" points="1812.5,-19 1735.5,-19 1735.5,0 1812.5,0 1812.5,-19"/>
<text text-anchor="middle" x="1774" y="-7" font-family="Helvetica,sans-Serif" font-size="10.00">sys/socket.h</text>
</a>
</g>
</g>
<!-- Node12&#45;&gt;Node13 -->
<g id="edge13_Node000012_Node000013" class="edge">
<title>Node12&#45;&gt;Node13</title>
<g id="a_edge13_Node000012_Node000013"><a xlink:title=" ">
<path fill="none" stroke="#63b8ff" d="M1234.22,-146.19C1393.11,-146.08 1819.68,-141.51 1862,-96 1874.41,-82.66 1871.54,-70.52 1862,-55 1852.55,-39.64 1835.98,-29.39 1819.75,-22.64"/>
<polygon fill="#63b8ff" stroke="#63b8ff" points="1820.88,-19.32 1810.29,-19.06 1818.4,-25.87 1820.88,-19.32"/>
</a>
</g>
</g>
<!-- Node14 -->
<g id="Node000014" class="node">
<title>Node14</title>
<g id="a_Node000014"><a xlink:title=" ">
<polygon fill="#e0e0e0" stroke="#999999" points="2177,-19 2105,-19 2105,0 2177,0 2177,-19"/>
<text text-anchor="middle" x="2141" y="-7" font-family="Helvetica,sans-Serif" font-size="10.00">netinet/in.h</text>
</a>
</g>
</g>
<!-- Node12&#45;&gt;Node14 -->
<g id="edge14_Node000012_Node000014" class="edge">
<title>Node12&#45;&gt;Node14</title>
<g id="a_edge14_Node000012_Node000014"><a xlink:title=" ">
<path fill="none" stroke="#63b8ff" d="M1234.14,-145.47C1453.52,-143.21 2209.89,-132.79 2245,-96 2257.58,-82.82 2255.04,-70.21 2245,-55 2232.07,-35.4 2208.53,-24.4 2187.11,-18.25"/>
<polygon fill="#63b8ff" stroke="#63b8ff" points="2187.71,-14.78 2177.15,-15.67 2185.95,-21.56 2187.71,-14.78"/>
</a>
</g>
</g>
<!-- Node15 -->
<g id="Node000015" class="node">
<title>Node15</title>
<g id="a_Node000015"><a xlink:title=" ">
<polygon fill="#e0e0e0" stroke="#999999" points="231.5,-85 162.5,-85 162.5,-66 231.5,-66 231.5,-85"/>
<text text-anchor="middle" x="197" y="-73" font-family="Helvetica,sans-Serif" font-size="10.00">arpa/inet.h</text>
</a>
</g>
</g>
<!-- Node12&#45;&gt;Node15 -->
<g id="edge15_Node000012_Node000015" class="edge">
<title>Node12&#45;&gt;Node15</title>
<g id="a_edge15_Node000012_Node000015"><a xlink:title=" ">
<path fill="none" stroke="#63b8ff" d="M1115.98,-145.32C938.72,-142.88 412.93,-132.67 246,-96 238.79,-94.42 231.26,-91.9 224.33,-89.19"/>
<polygon fill="#63b8ff" stroke="#63b8ff" points="225.28,-85.79 214.71,-85.17 222.59,-92.25 225.28,-85.79"/>
</a>
</g>
</g>
<!-- Node16 -->
<g id="Node000016" class="node">
<title>Node16</title>
<g id="a_Node000016"><a xlink:title=" ">
<polygon fill="#e0e0e0" stroke="#999999" points="192.5,-19 139.5,-19 139.5,0 192.5,0 192.5,-19"/>
<text text-anchor="middle" x="166" y="-7" font-family="Helvetica,sans-Serif" font-size="10.00">netdb.h</text>
</a>
</g>
</g>
<!-- Node12&#45;&gt;Node16 -->
<g id="edge16_Node000012_Node000016" class="edge">
<title>Node12&#45;&gt;Node16</title>
<g id="a_edge16_Node000012_Node000016"><a xlink:title=" ">
<path fill="none" stroke="#63b8ff" d="M1115.69,-145.21C927.93,-142.38 354.52,-130.92 279,-96 256.17,-85.45 259.62,-70.73 240,-55 225.13,-43.08 206.78,-32.02 192.07,-23.91"/>
<polygon fill="#63b8ff" stroke="#63b8ff" points="193.47,-20.69 183,-19.03 190.15,-26.85 193.47,-20.69"/>
</a>
</g>
</g>
<!-- Node17 -->
<g id="Node000017" class="node">
<title>Node17</title>
<g id="a_Node000017"><a xlink:title=" ">
<polygon fill="#e0e0e0" stroke="#999999" points="512,-85 456,-85 456,-66 512,-66 512,-85"/>
<text text-anchor="middle" x="484" y="-73" font-family="Helvetica,sans-Serif" font-size="10.00">unistd.h</text>
</a>
</g>
</g>
<!-- Node12&#45;&gt;Node17 -->
<g id="edge17_Node000012_Node000017" class="edge">
<title>Node12&#45;&gt;Node17</title>
<g id="a_edge17_Node000012_Node000017"><a xlink:title=" ">
<path fill="none" stroke="#63b8ff" d="M1115.76,-144.55C976.52,-140.63 631.78,-127.94 521,-96 516.03,-94.57 510.96,-92.42 506.23,-90.07"/>
<polygon fill="#63b8ff" stroke="#63b8ff" points="507.6,-86.83 497.14,-85.12 504.25,-92.98 507.6,-86.83"/>
</a>
</g>
</g>
<!-- Node18 -->
<g id="Node000018" class="node">
<title>Node18</title>
<g id="a_Node000018"><a xlink:href="_conversion_and_literals_8hpp.html" target="_top" xlink:title=" ">
<polygon fill="white" stroke="#666666" points="438,-90.5 288,-90.5 288,-60.5 438,-60.5 438,-90.5"/>
<text text-anchor="start" x="296" y="-78.5" font-family="Helvetica,sans-Serif" font-size="10.00">Hermes/_base/OsApi</text>
<text text-anchor="middle" x="363" y="-67.5" font-family="Helvetica,sans-Serif" font-size="10.00">/ConversionAndLiterals.hpp</text>
</a>
</g>
</g>
<!-- Node12&#45;&gt;Node18 -->
<g id="edge18_Node000012_Node000018" class="edge">
<title>Node12&#45;&gt;Node18</title>
<g id="a_edge18_Node000012_Node000018"><a xlink:title=" ">
<path fill="none" stroke="#63b8ff" d="M1115.68,-145.12C991.12,-142.59 693.52,-132.84 447,-96 440.78,-95.07 434.34,-93.92 427.92,-92.65"/>
<polygon fill="#63b8ff" stroke="#63b8ff" points="428.39,-89.17 417.88,-90.56 426.96,-96.02 428.39,-89.17"/>
</a>
</g>
</g>
<!-- Node20 -->
<g id="Node000020" class="node">
<title>Node20</title>
<g id="a_Node000020"><a xlink:href="_macros_8hpp.html" target="_top" xlink:title=" ">
<polygon fill="white" stroke="#666666" points="2027,-90.5 1909,-90.5 1909,-60.5 2027,-60.5 2027,-90.5"/>
<text text-anchor="start" x="1917" y="-78.5" font-family="Helvetica,sans-Serif" font-size="10.00">Hermes/_base/OsApi</text>
<text text-anchor="middle" x="1968" y="-67.5" font-family="Helvetica,sans-Serif" font-size="10.00">/Macros.hpp</text>
</a>
</g>
</g>
<!-- Node12&#45;&gt;Node20 -->
<g id="edge20_Node000012_Node000020" class="edge">
<title>Node12&#45;&gt;Node20</title>
<g id="a_edge20_Node000012_Node000020"><a xlink:title=" ">
<path fill="none" stroke="#63b8ff" d="M1234.24,-145.71C1357.9,-144.28 1652.13,-136.49 1895,-96 1900.13,-95.15 1905.41,-94.09 1910.69,-92.91"/>
<polygon fill="#63b8ff" stroke="#63b8ff" points="1911.85,-96.23 1920.77,-90.53 1910.24,-89.42 1911.85,-96.23"/>
</a>
</g>
</g>
<!-- Node22 -->
<g id="Node000022" class="node">
<title>Node22</title>
<g id="a_Node000022"><a xlink:href="_address_family_enum_8hpp.html" target="_top" xlink:title=" ">
<polygon fill="white" stroke="#666666" points="706,-90.5 530,-90.5 530,-60.5 706,-60.5 706,-90.5"/>
<text text-anchor="start" x="538" y="-78.5" font-family="Helvetica,sans-Serif" font-size="10.00">Hermes/_base/OsApi</text>
<text text-anchor="middle" x="618" y="-67.5" font-family="Helvetica,sans-Serif" font-size="10.00">/Enums/AddressFamilyEnum.hpp</text>
</a>
</g>
</g>
<!-- Node12&#45;&gt;Node22 -->
<g id="edge24_Node000012_Node000022" class="edge">
<title>Node12&#45;&gt;Node22</title>
<g id="a_edge24_Node000012_Node000022"><a xlink:title=" ">
<path fill="none" stroke="#63b8ff" d="M1115.96,-141.3C1028.21,-133.92 858.3,-118.15 715,-96 708,-94.92 700.73,-93.68 693.47,-92.36"/>
<polygon fill="#63b8ff" stroke="#63b8ff" points="694.07,-88.91 683.6,-90.52 692.79,-95.79 694.07,-88.91"/>
</a>
</g>
</g>
<!-- Node23 -->
<g id="Node000023" class="node">
<title>Node23</title>
<g id="a_Node000023"><a xlink:href="_protocol_base_type_enum_8hpp.html" target="_top" xlink:title=" ">
<polygon fill="white" stroke="#666666" points="2236.5,-90.5 2045.5,-90.5 2045.5,-60.5 2236.5,-60.5 2236.5,-90.5"/>
<text text-anchor="start" x="2053.5" y="-78.5" font-family="Helvetica,sans-Serif" font-size="10.00">Hermes/_base/OsApi</text>
<text text-anchor="middle" x="2141" y="-67.5" font-family="Helvetica,sans-Serif" font-size="10.00">/Enums/ProtocolBaseTypeEnum.hpp</text>
</a>
</g>
</g>
<!-- Node12&#45;&gt;Node23 -->
<g id="edge26_Node000012_Node000023" class="edge">
<title>Node12&#45;&gt;Node23</title>
<g id="a_edge26_Node000012_Node000023"><a xlink:title=" ">
<path fill="none" stroke="#63b8ff" d="M1234.21,-145.12C1374.15,-142.48 1736.12,-132.41 2036,-96 2044.56,-94.96 2053.47,-93.66 2062.33,-92.22"/>
<polygon fill="#63b8ff" stroke="#63b8ff" points="2063,-95.65 2072.28,-90.54 2061.84,-88.75 2063,-95.65"/>
</a>
</g>
</g>
<!-- Node24 -->
<g id="Node000024" class="node">
<title>Node24</title>
<g id="a_Node000024"><a xlink:href="_socket_shutdown_enum_8hpp.html" target="_top" xlink:title=" ">
<polygon fill="white" stroke="#666666" points="1676.5,-90.5 1491.5,-90.5 1491.5,-60.5 1676.5,-60.5 1676.5,-90.5"/>
<text text-anchor="start" x="1499.5" y="-78.5" font-family="Helvetica,sans-Serif" font-size="10.00">Hermes/_base/OsApi</text>
<text text-anchor="middle" x="1584" y="-67.5" font-family="Helvetica,sans-Serif" font-size="10.00">/Enums/SocketShutdownEnum.hpp</text>
</a>
</g>
</g>
<!-- Node12&#45;&gt;Node24 -->
<g id="edge28_Node000012_Node000024" class="edge">
<title>Node12&#45;&gt;Node24</title>
<g id="a_edge28_Node000012_Node000024"><a xlink:title=" ">
<path fill="none" stroke="#63b8ff" d="M1234.13,-136.94C1296.21,-127.3 1396.59,-111.35 1483,-96 1489.5,-94.85 1496.22,-93.62 1502.98,-92.36"/>
<polygon fill="#63b8ff" stroke="#63b8ff" points="1503.68,-95.79 1512.87,-90.51 1502.39,-88.91 1503.68,-95.79"/>
</a>
</g>
</g>
<!-- Node25 -->
<g id="Node000025" class="node">
<title>Node25</title>
<g id="a_Node000025"><a xlink:href="_socket_type_enum_8hpp.html" target="_top" xlink:title=" ">
<polygon fill="white" stroke="#666666" points="1853.5,-90.5 1694.5,-90.5 1694.5,-60.5 1853.5,-60.5 1853.5,-90.5"/>
<text text-anchor="start" x="1702.5" y="-78.5" font-family="Helvetica,sans-Serif" font-size="10.00">Hermes/_base/OsApi</text>
<text text-anchor="middle" x="1774" y="-67.5" font-family="Helvetica,sans-Serif" font-size="10.00">/Enums/SocketTypeEnum.hpp</text>
</a>
</g>
</g>
<!-- Node12&#45;&gt;Node25 -->
<g id="edge30_Node000012_Node000025" class="edge">
<title>Node12&#45;&gt;Node25</title>
<g id="a_edge30_Node000012_Node000025"><a xlink:title=" ">
<path fill="none" stroke="#63b8ff" d="M1234.19,-142.47C1329.53,-136.28 1522.87,-121.62 1685,-96 1691.25,-95.01 1697.73,-93.86 1704.2,-92.61"/>
<polygon fill="#63b8ff" stroke="#63b8ff" points="1705.22,-95.97 1714.34,-90.58 1703.85,-89.11 1705.22,-95.97"/>
</a>
</g>
</g>
<!-- Node26 -->
<g id="Node000026" class="node">
<title>Node26</title>
<g id="a_Node000026"><a xlink:title=" ">
<polygon fill="#e0e0e0" stroke="#999999" points="876,-96 724,-96 724,-55 876,-55 876,-96"/>
<text text-anchor="start" x="732" y="-84" font-family="Helvetica,sans-Serif" font-size="10.00">Hermes/_base/OsApi</text>
<text text-anchor="start" x="732" y="-73" font-family="Helvetica,sans-Serif" font-size="10.00">/Enums/Linux/EncryptStatus</text>
<text text-anchor="middle" x="800" y="-62" font-family="Helvetica,sans-Serif" font-size="10.00">Enum.hpp</text>
</a>
</g>
</g>
<!-- Node12&#45;&gt;Node26 -->
<g id="edge32_Node000012_Node000026" class="edge">
<title>Node12&#45;&gt;Node26</title>
<g id="a_edge32_Node000012_Node000026"><a xlink:title=" ">
<path fill="none" stroke="#63b8ff" d="M1115.95,-136.79C1059.4,-127.75 971.47,-113.12 886.25,-96.2"/>
<polygon fill="#63b8ff" stroke="#63b8ff" points="886.91,-92.77 876.41,-94.24 885.53,-99.63 886.91,-92.77"/>
</a>
</g>
</g>
<!-- Node27 -->
<g id="Node000027" class="node">
<title>Node27</title>
<g id="a_Node000027"><a xlink:href="_name_info_flags_8hpp.html" target="_top" xlink:title=" ">
<polygon fill="white" stroke="#666666" points="144,-90.5 0,-90.5 0,-60.5 144,-60.5 144,-90.5"/>
<text text-anchor="start" x="8" y="-78.5" font-family="Helvetica,sans-Serif" font-size="10.00">Hermes/_base/OsApi</text>
<text text-anchor="middle" x="72" y="-67.5" font-family="Helvetica,sans-Serif" font-size="10.00">/Flags/NameInfoFlags.hpp</text>
</a>
</g>
</g>
<!-- Node12&#45;&gt;Node27 -->
<g id="edge33_Node000012_Node000027" class="edge">
<title>Node12&#45;&gt;Node27</title>
<g id="a_edge33_Node000012_Node000027"><a xlink:title=" ">
<path fill="none" stroke="#63b8ff" d="M1115.7,-144.56C926.84,-139.74 340.82,-122.96 153,-96 146.8,-95.11 140.38,-93.96 133.99,-92.67"/>
<polygon fill="#63b8ff" stroke="#63b8ff" points="134.52,-89.21 124.01,-90.54 133.06,-96.05 134.52,-89.21"/>
</a>
</g>
</g>
<!-- Node28 -->
<g id="Node000028" class="node">
<title>Node28</title>
<g id="a_Node000028"><a xlink:title=" ">
<polygon fill="#e0e0e0" stroke="#999999" points="1070,-90.5 894,-90.5 894,-60.5 1070,-60.5 1070,-90.5"/>
<text text-anchor="start" x="902" y="-78.5" font-family="Helvetica,sans-Serif" font-size="10.00">Hermes/_base/OsApi</text>
<text text-anchor="middle" x="982" y="-67.5" font-family="Helvetica,sans-Serif" font-size="10.00">/Flags/Linux/CredentialFlags.hpp</text>
</a>
</g>
</g>
<!-- Node12&#45;&gt;Node28 -->
<g id="edge35_Node000012_Node000028" class="edge">
<title>Node12&#45;&gt;Node28</title>
<g id="a_edge35_Node000012_Node000028"><a xlink:title=" ">
<path fill="none" stroke="#63b8ff" d="M1135.94,-131.94C1105.6,-121.01 1063.34,-105.79 1030.77,-94.06"/>
<polygon fill="#63b8ff" stroke="#63b8ff" points="1031.59,-90.64 1021,-90.54 1029.22,-97.22 1031.59,-90.64"/>
</a>
</g>
</g>
<!-- Node29 -->
<g id="Node000029" class="node">
<title>Node29</title>
<g id="a_Node000029"><a xlink:title=" ">
<polygon fill="#e0e0e0" stroke="#999999" points="1261.5,-96 1088.5,-96 1088.5,-55 1261.5,-55 1261.5,-96"/>
<text text-anchor="start" x="1096.5" y="-84" font-family="Helvetica,sans-Serif" font-size="10.00">Hermes/_base/OsApi</text>
<text text-anchor="start" x="1096.5" y="-73" font-family="Helvetica,sans-Serif" font-size="10.00">/Flags/Linux/SupportedProtocols</text>
<text text-anchor="middle" x="1175" y="-62" font-family="Helvetica,sans-Serif" font-size="10.00">Flags.hpp</text>
</a>
</g>
</g>
<!-- Node12&#45;&gt;Node29 -->
<g id="edge36_Node000012_Node000029" class="edge">
<title>Node12&#45;&gt;Node29</title>
<g id="a_edge36_Node000012_Node000029"><a xlink:title=" ">
<path fill="none" stroke="#63b8ff" d="M1175,-131.94C1175,-124.52 1175,-115.14 1175,-106.2"/>
<polygon fill="#63b8ff" stroke="#63b8ff" points="1178.5,-106.07 1175,-96.07 1171.5,-106.07 1178.5,-106.07"/>
</a>
</g>
</g>
<!-- Node30 -->
<g id="Node000030" class="node">
<title>Node30</title>
<g id="a_Node000030"><a xlink:title=" ">
<polygon fill="#e0e0e0" stroke="#999999" points="1474,-90.5 1280,-90.5 1280,-60.5 1474,-60.5 1474,-90.5"/>
<text text-anchor="start" x="1288" y="-78.5" font-family="Helvetica,sans-Serif" font-size="10.00">Hermes/_base/OsApi</text>
<text text-anchor="middle" x="1377" y="-67.5" font-family="Helvetica,sans-Serif" font-size="10.00">/Flags/Linux/SChannelCredFlags.hpp</text>
</a>
</g>
</g>
<!-- Node12&#45;&gt;Node30 -->
<g id="edge37_Node000012_Node000030" class="edge">
<title>Node12&#45;&gt;Node30</title>
<g id="a_edge37_Node000012_Node000030"><a xlink:title=" ">
<path fill="none" stroke="#63b8ff" d="M1215.88,-131.94C1247.78,-120.96 1292.25,-105.66 1326.4,-93.91"/>
<polygon fill="#63b8ff" stroke="#63b8ff" points="1327.87,-97.11 1336.18,-90.54 1325.59,-90.49 1327.87,-97.11"/>
</a>
</g>
</g>
<!-- Node19 -->
<g id="Node000019" class="node">
<title>Node19</title>
<g id="a_Node000019"><a xlink:title=" ">
<polygon fill="#e0e0e0" stroke="#999999" points="388,-19 338,-19 338,0 388,0 388,-19"/>
<text text-anchor="middle" x="363" y="-7" font-family="Helvetica,sans-Serif" font-size="10.00">cstdint</text>
</a>
</g>
</g>
<!-- Node18&#45;&gt;Node19 -->
<g id="edge19_Node000018_Node000019" class="edge">
<title>Node18&#45;&gt;Node19</title>
<g id="a_edge19_Node000018_Node000019"><a xlink:title=" ">
<path fill="none" stroke="#63b8ff" d="M363,-60.3C363,-51.2 363,-39.29 363,-29.4"/>
<polygon fill="#63b8ff" stroke="#63b8ff" points="366.5,-29.34 363,-19.34 359.5,-29.34 366.5,-29.34"/>
</a>
</g>
</g>
<!-- Node20&#45;&gt;Node13 -->
<g id="edge22_Node000020_Node000013" class="edge">
<title>Node20&#45;&gt;Node13</title>
<g id="a_edge22_Node000020_Node000013"><a xlink:title=" ">
<path fill="none" stroke="#63b8ff" d="M1925.43,-60.45C1890.65,-48.98 1842.09,-32.96 1809.41,-22.18"/>
<polygon fill="#63b8ff" stroke="#63b8ff" points="1810.41,-18.83 1799.82,-19.02 1808.22,-25.47 1810.41,-18.83"/>
</a>
</g>
</g>
<!-- Node20&#45;&gt;Node14 -->
<g id="edge23_Node000020_Node000014" class="edge">
<title>Node20&#45;&gt;Node14</title>
<g id="a_edge23_Node000020_Node000014"><a xlink:title=" ">
<path fill="none" stroke="#63b8ff" d="M2005.97,-60.45C2036.57,-49.13 2079.17,-33.38 2108.28,-22.6"/>
<polygon fill="#63b8ff" stroke="#63b8ff" points="2109.81,-25.77 2117.98,-19.02 2107.38,-19.2 2109.81,-25.77"/>
</a>
</g>
</g>
<!-- Node21 -->
<g id="Node000021" class="node">
<title>Node21</title>
<g id="a_Node000021"><a xlink:title=" ">
<polygon fill="#e0e0e0" stroke="#999999" points="2004.5,-19 1931.5,-19 1931.5,0 2004.5,0 2004.5,-19"/>
<text text-anchor="middle" x="1968" y="-7" font-family="Helvetica,sans-Serif" font-size="10.00">string_view</text>
</a>
</g>
</g>
<!-- Node20&#45;&gt;Node21 -->
<g id="edge21_Node000020_Node000021" class="edge">
<title>Node20&#45;&gt;Node21</title>
<g id="a_edge21_Node000020_Node000021"><a xlink:title=" ">
<path fill="none" stroke="#63b8ff" d="M1968,-60.3C1968,-51.2 1968,-39.29 1968,-29.4"/>
<polygon fill="#63b8ff" stroke="#63b8ff" points="1971.5,-29.34 1968,-19.34 1964.5,-29.34 1971.5,-29.34"/>
</a>
</g>
</g>
<!-- Node22&#45;&gt;Node13 -->
<g id="edge25_Node000022_Node000013" class="edge">
<title>Node22&#45;&gt;Node13</title>
<g id="a_edge25_Node000022_Node000013"><a xlink:title=" ">
<path fill="none" stroke="#63b8ff" d="M680.38,-60.47C691.85,-58.31 703.74,-56.36 715,-55 914.5,-30.91 1544.36,-15.53 1725.08,-11.54"/>
<polygon fill="#63b8ff" stroke="#63b8ff" points="1725.42,-15.03 1735.34,-11.31 1725.27,-8.03 1725.42,-15.03"/>
</a>
</g>
</g>
<!-- Node23&#45;&gt;Node14 -->
<g id="edge27_Node000023_Node000014" class="edge">
<title>Node23&#45;&gt;Node14</title>
<g id="a_edge27_Node000023_Node000014"><a xlink:title=" ">
<path fill="none" stroke="#63b8ff" d="M2141,-60.3C2141,-51.2 2141,-39.29 2141,-29.4"/>
<polygon fill="#63b8ff" stroke="#63b8ff" points="2144.5,-29.34 2141,-19.34 2137.5,-29.34 2144.5,-29.34"/>
</a>
</g>
</g>
<!-- Node24&#45;&gt;Node13 -->
<g id="edge29_Node000024_Node000013" class="edge">
<title>Node24&#45;&gt;Node13</title>
<g id="a_edge29_Node000024_Node000013"><a xlink:title=" ">
<path fill="none" stroke="#63b8ff" d="M1625.7,-60.45C1659.6,-49.03 1706.91,-33.1 1738.9,-22.32"/>
<polygon fill="#63b8ff" stroke="#63b8ff" points="1740.35,-25.53 1748.71,-19.02 1738.12,-18.89 1740.35,-25.53"/>
</a>
</g>
</g>
<!-- Node25&#45;&gt;Node13 -->
<g id="edge31_Node000025_Node000013" class="edge">
<title>Node25&#45;&gt;Node13</title>
<g id="a_edge31_Node000025_Node000013"><a xlink:title=" ">
<path fill="none" stroke="#63b8ff" d="M1774,-60.3C1774,-51.2 1774,-39.29 1774,-29.4"/>
<polygon fill="#63b8ff" stroke="#63b8ff" points="1777.5,-29.34 1774,-19.34 1770.5,-29.34 1777.5,-29.34"/>
</a>
</g>
</g>
<!-- Node27&#45;&gt;Node16 -->
<g id="edge34_Node000027_Node000016" class="edge">
<title>Node27&#45;&gt;Node16</title>
<g id="a_edge34_Node000027_Node000016"><a xlink:title=" ">
<path fill="none" stroke="#63b8ff" d="M92.86,-60.3C108.32,-49.77 129.32,-35.47 144.85,-24.9"/>
<polygon fill="#63b8ff" stroke="#63b8ff" points="146.99,-27.68 153.28,-19.16 143.05,-21.89 146.99,-27.68"/>
</a>
</g>
</g>
</g>
</svg>
