<?xml version="1.0" encoding="UTF-8" standalone="no"?>
<!DOCTYPE svg PUBLIC "-//W3C//DTD SVG 1.1//EN"
 "http://www.w3.org/Graphics/SVG/1.1/DTD/svg11.dtd">
<!-- Generated by graphviz version 2.43.0 (0)
 -->
<!-- Title: include/Hermes/Utils/ToBytes.hpp Pages: 1 -->
<svg width="2814pt" height="357pt"
 viewBox="0.00 0.00 2814.00 357.00" xmlns="http://www.w3.org/2000/svg" xmlns:xlink="http://www.w3.org/1999/xlink">
<g id="graph0" class="graph" transform="scale(1 1) rotate(0) translate(4 353)">
<title>include/Hermes/Utils/ToBytes.hpp</title>
<!-- Node1 -->
<g id="Node000001" class="node">
<title>Node1</title>
<g id="a_Node000001"><a xlink:title=" ">
<polygon fill="#999999" stroke="#666666" points="204.5,-349 85.5,-349 85.5,-319 204.5,-319 204.5,-349"/>
<text text-anchor="start" x="93.5" y="-337" font-family="Helvetica,sans-Serif" font-size="10.00">include/Hermes/Utils</text>
<text text-anchor="middle" x="145" y="-326" font-family="Helvetica,sans-Serif" font-size="10.00">/ToBytes.hpp</text>
</a>
</g>
</g>
<!-- Node2 -->
<g id="Node000002" class="node">
<title>Node2</title>
<g id="a_Node000002"><a xlink:title=" ">
<polygon fill="#e0e0e0" stroke="#999999" points="40,-85 0,-85 0,-66 40,-66 40,-85"/>
<text text-anchor="middle" x="20" y="-73" font-family="Helvetica,sans-Serif" font-size="10.00">span</text>
</a>
</g>
</g>
<!-- Node1&#45;&gt;Node2 -->
<g id="edge1_Node000001_Node000002" class="edge">
<title>Node1&#45;&gt;Node2</title>
<g id="a_edge1_Node000001_Node000002"><a xlink:title=" ">
<path fill="none" stroke="#63b8ff" d="M138.1,-318.84C116.83,-275.21 52.3,-142.79 28.74,-94.43"/>
<polygon fill="#63b8ff" stroke="#63b8ff" points="31.77,-92.66 24.24,-85.21 25.48,-95.73 31.77,-92.66"/>
</a>
</g>
</g>
<!-- Node3 -->
<g id="Node000003" class="node">
<title>Node3</title>
<g id="a_Node000003"><a xlink:href="__base_8hpp.html" target="_top" xlink:title=" ">
<polygon fill="white" stroke="#666666" points="377.5,-283 234.5,-283 234.5,-264 377.5,-264 377.5,-283"/>
<text text-anchor="middle" x="306" y="-271" font-family="Helvetica,sans-Serif" font-size="10.00">Hermes/Socket/_base.hpp</text>
</a>
</g>
</g>
<!-- Node1&#45;&gt;Node3 -->
<g id="edge2_Node000001_Node000003" class="edge">
<title>Node1&#45;&gt;Node3</title>
<g id="a_edge2_Node000001_Node000003"><a xlink:title=" ">
<path fill="none" stroke="#63b8ff" d="M183.56,-318.99C210.79,-309.1 246.88,-295.98 272.82,-286.56"/>
<polygon fill="#63b8ff" stroke="#63b8ff" points="274.02,-289.84 282.22,-283.14 271.63,-283.26 274.02,-289.84"/>
</a>
</g>
</g>
<!-- Node4 -->
<g id="Node000004" class="node">
<title>Node4</title>
<g id="a_Node000004"><a xlink:href="_endpoint_concept_8hpp.html" target="_top" xlink:title=" ">
<polygon fill="white" stroke="#666666" points="554,-228 422,-228 422,-198 554,-198 554,-228"/>
<text text-anchor="start" x="430" y="-216" font-family="Helvetica,sans-Serif" font-size="10.00">Hermes/Endpoint/_base</text>
<text text-anchor="middle" x="488" y="-205" font-family="Helvetica,sans-Serif" font-size="10.00">/EndpointConcept.hpp</text>
</a>
</g>
</g>
<!-- Node3&#45;&gt;Node4 -->
<g id="edge3_Node000003_Node000004" class="edge">
<title>Node3&#45;&gt;Node4</title>
<g id="a_edge3_Node000003_Node000004"><a xlink:title=" ">
<path fill="none" stroke="#63b8ff" d="M332.46,-263.99C359.11,-255.43 400.98,-241.97 434.56,-231.18"/>
<polygon fill="#63b8ff" stroke="#63b8ff" points="435.8,-234.46 444.24,-228.06 433.65,-227.79 435.8,-234.46"/>
</a>
</g>
</g>
<!-- Node5 -->
<g id="Node000005" class="node">
<title>Node5</title>
<g id="a_Node000005"><a xlink:href="_connection_error_enum_8hpp.html" target="_top" xlink:title=" ">
<polygon fill="white" stroke="#666666" points="368.5,-162 201.5,-162 201.5,-132 368.5,-132 368.5,-162"/>
<text text-anchor="start" x="209.5" y="-150" font-family="Helvetica,sans-Serif" font-size="10.00">Hermes/_base/ConnectionError</text>
<text text-anchor="middle" x="285" y="-139" font-family="Helvetica,sans-Serif" font-size="10.00">Enum.hpp</text>
</a>
</g>
</g>
<!-- Node3&#45;&gt;Node5 -->
<g id="edge35_Node000003_Node000005" class="edge">
<title>Node3&#45;&gt;Node5</title>
<g id="a_edge35_Node000003_Node000005"><a xlink:title=" ">
<path fill="none" stroke="#63b8ff" d="M295.01,-263.99C285.55,-255.9 272.57,-242.81 267,-228 260.07,-209.57 265.88,-187.71 272.69,-171.5"/>
<polygon fill="#63b8ff" stroke="#63b8ff" points="275.96,-172.76 276.95,-162.22 269.6,-169.84 275.96,-172.76"/>
</a>
</g>
</g>
<!-- Node8 -->
<g id="Node000008" class="node">
<title>Node8</title>
<g id="a_Node000008"><a xlink:title=" ">
<polygon fill="#e0e0e0" stroke="#999999" points="183.5,-85 58.5,-85 58.5,-66 183.5,-66 183.5,-85"/>
<text text-anchor="middle" x="121" y="-73" font-family="Helvetica,sans-Serif" font-size="10.00">stdexec/execution.hpp</text>
</a>
</g>
</g>
<!-- Node3&#45;&gt;Node8 -->
<g id="edge37_Node000003_Node000008" class="edge">
<title>Node3&#45;&gt;Node8</title>
<g id="a_edge37_Node000003_Node000008"><a xlink:title=" ">
<path fill="none" stroke="#63b8ff" d="M297.18,-263.97C287.91,-255.02 272.93,-240.53 260,-228 229.75,-198.69 220.61,-192.91 192,-162 170.69,-138.97 147.79,-110.69 133.93,-93.13"/>
<polygon fill="#63b8ff" stroke="#63b8ff" points="136.49,-90.72 127.57,-85.01 130.98,-95.03 136.49,-90.72"/>
</a>
</g>
</g>
<!-- Node10 -->
<g id="Node000010" class="node">
<title>Node10</title>
<g id="a_Node000010"><a xlink:href="_os_api_8hpp.html" target="_top" xlink:title=" ">
<polygon fill="white" stroke="#666666" points="1359,-162 1241,-162 1241,-132 1359,-132 1359,-162"/>
<text text-anchor="start" x="1249" y="-150" font-family="Helvetica,sans-Serif" font-size="10.00">Hermes/_base/OsApi</text>
<text text-anchor="middle" x="1300" y="-139" font-family="Helvetica,sans-Serif" font-size="10.00">/OsApi.hpp</text>
</a>
</g>
</g>
<!-- Node3&#45;&gt;Node10 -->
<g id="edge36_Node000003_Node000010" class="edge">
<title>Node3&#45;&gt;Node10</title>
<g id="a_edge36_Node000003_Node000010"><a xlink:title=" ">
<path fill="none" stroke="#63b8ff" d="M373.93,-263.99C555.04,-241.31 1048.03,-179.56 1230.7,-156.68"/>
<polygon fill="#63b8ff" stroke="#63b8ff" points="1231.24,-160.14 1240.72,-155.42 1230.37,-153.19 1231.24,-160.14"/>
</a>
</g>
</g>
<!-- Node29 -->
<g id="Node000029" class="node">
<title>Node29</title>
<g id="a_Node000029"><a xlink:title=" ">
<polygon fill="#e0e0e0" stroke="#999999" points="336,-222.5 276,-222.5 276,-203.5 336,-203.5 336,-222.5"/>
<text text-anchor="middle" x="306" y="-210.5" font-family="Helvetica,sans-Serif" font-size="10.00">concepts</text>
</a>
</g>
</g>
<!-- Node3&#45;&gt;Node29 -->
<g id="edge38_Node000003_Node000029" class="edge">
<title>Node3&#45;&gt;Node29</title>
<g id="a_edge38_Node000003_Node000029"><a xlink:title=" ">
<path fill="none" stroke="#63b8ff" d="M306,-263.87C306,-255.75 306,-243.31 306,-232.89"/>
<polygon fill="#63b8ff" stroke="#63b8ff" points="309.5,-232.67 306,-222.67 302.5,-232.67 309.5,-232.67"/>
</a>
</g>
</g>
<!-- Node30 -->
<g id="Node000030" class="node">
<title>Node30</title>
<g id="a_Node000030"><a xlink:title=" ">
<polygon fill="#e0e0e0" stroke="#999999" points="404,-222.5 354,-222.5 354,-203.5 404,-203.5 404,-222.5"/>
<text text-anchor="middle" x="379" y="-210.5" font-family="Helvetica,sans-Serif" font-size="10.00">ranges</text>
</a>
</g>
</g>
<!-- Node3&#45;&gt;Node30 -->
<g id="edge39_Node000003_Node000030" class="edge">
<title>Node3&#45;&gt;Node30</title>
<g id="a_edge39_Node000003_Node000030"><a xlink:title=" ">
<path fill="none" stroke="#63b8ff" d="M316.77,-263.87C328.2,-254.71 346.48,-240.06 360.28,-229.01"/>
<polygon fill="#63b8ff" stroke="#63b8ff" points="362.57,-231.65 368.18,-222.67 358.19,-226.19 362.57,-231.65"/>
</a>
</g>
</g>
<!-- Node4&#45;&gt;Node5 -->
<g id="edge4_Node000004_Node000005" class="edge">
<title>Node4&#45;&gt;Node5</title>
<g id="a_edge4_Node000004_Node000005"><a xlink:title=" ">
<path fill="none" stroke="#63b8ff" d="M443.45,-197.95C412.78,-188.28 371.84,-175.38 339.27,-165.11"/>
<polygon fill="#63b8ff" stroke="#63b8ff" points="340.03,-161.68 329.45,-162.01 337.93,-168.36 340.03,-161.68"/>
</a>
</g>
</g>
<!-- Node4&#45;&gt;Node10 -->
<g id="edge10_Node000004_Node000010" class="edge">
<title>Node4&#45;&gt;Node10</title>
<g id="a_edge10_Node000004_Node000010"><a xlink:title=" ">
<path fill="none" stroke="#63b8ff" d="M554.11,-206.79C705.48,-194.86 1076.1,-165.65 1230.6,-153.47"/>
<polygon fill="#63b8ff" stroke="#63b8ff" points="1231.21,-156.93 1240.91,-152.66 1230.66,-149.95 1231.21,-156.93"/>
</a>
</g>
</g>
<!-- Node5&#45;&gt;Node2 -->
<g id="edge7_Node000005_Node000002" class="edge">
<title>Node5&#45;&gt;Node2</title>
<g id="a_edge7_Node000005_Node000002"><a xlink:title=" ">
<path fill="none" stroke="#63b8ff" d="M201.28,-136.24C155.07,-128.9 97.4,-116.49 49,-96 45.66,-94.59 42.29,-92.77 39.1,-90.81"/>
<polygon fill="#63b8ff" stroke="#63b8ff" points="40.97,-87.85 30.72,-85.16 37.05,-93.65 40.97,-87.85"/>
</a>
</g>
</g>
<!-- Node6 -->
<g id="Node000006" class="node">
<title>Node6</title>
<g id="a_Node000006"><a xlink:title=" ">
<polygon fill="#e0e0e0" stroke="#999999" points="448,-85 386,-85 386,-66 448,-66 448,-85"/>
<text text-anchor="middle" x="417" y="-73" font-family="Helvetica,sans-Serif" font-size="10.00">expected</text>
</a>
</g>
</g>
<!-- Node5&#45;&gt;Node6 -->
<g id="edge5_Node000005_Node000006" class="edge">
<title>Node5&#45;&gt;Node6</title>
<g id="a_edge5_Node000005_Node000006"><a xlink:title=" ">
<path fill="none" stroke="#63b8ff" d="M311.71,-131.94C335.05,-119.65 368.68,-101.94 391.62,-89.87"/>
<polygon fill="#63b8ff" stroke="#63b8ff" points="393.51,-92.82 400.73,-85.07 390.25,-86.63 393.51,-92.82"/>
</a>
</g>
</g>
<!-- Node7 -->
<g id="Node000007" class="node">
<title>Node7</title>
<g id="a_Node000007"><a xlink:title=" ">
<polygon fill="#e0e0e0" stroke="#999999" points="513.5,-85 466.5,-85 466.5,-66 513.5,-66 513.5,-85"/>
<text text-anchor="middle" x="490" y="-73" font-family="Helvetica,sans-Serif" font-size="10.00">vector</text>
</a>
</g>
</g>
<!-- Node5&#45;&gt;Node7 -->
<g id="edge6_Node000005_Node000007" class="edge">
<title>Node5&#45;&gt;Node7</title>
<g id="a_edge6_Node000005_Node000007"><a xlink:title=" ">
<path fill="none" stroke="#63b8ff" d="M347.21,-131.94C380.48,-123.42 421.75,-111.25 457,-96 460.81,-94.35 464.72,-92.35 468.46,-90.27"/>
<polygon fill="#63b8ff" stroke="#63b8ff" points="470.41,-93.17 477.23,-85.06 466.84,-87.15 470.41,-93.17"/>
</a>
</g>
</g>
<!-- Node5&#45;&gt;Node8 -->
<g id="edge8_Node000005_Node000008" class="edge">
<title>Node5&#45;&gt;Node8</title>
<g id="a_edge8_Node000005_Node000008"><a xlink:title=" ">
<path fill="none" stroke="#63b8ff" d="M251.81,-131.94C222.17,-119.38 179.16,-101.15 150.65,-89.07"/>
<polygon fill="#63b8ff" stroke="#63b8ff" points="151.79,-85.75 141.22,-85.07 149.06,-92.19 151.79,-85.75"/>
</a>
</g>
</g>
<!-- Node9 -->
<g id="Node000009" class="node">
<title>Node9</title>
<g id="a_Node000009"><a xlink:title=" ">
<polygon fill="#e0e0e0" stroke="#999999" points="368.5,-90.5 201.5,-90.5 201.5,-60.5 368.5,-60.5 368.5,-90.5"/>
<text text-anchor="start" x="209.5" y="-78.5" font-family="Helvetica,sans-Serif" font-size="10.00">Hermes/_base/ConnectionError</text>
<text text-anchor="middle" x="285" y="-67.5" font-family="Helvetica,sans-Serif" font-size="10.00">Enum.tpp</text>
</a>
</g>
</g>
<!-- Node5&#45;&gt;Node9 -->
<g id="edge9_Node000005_Node000009" class="edge">
<title>Node5&#45;&gt;Node9</title>
<g id="a_edge9_Node000005_Node000009"><a xlink:title=" ">
<path fill="none" stroke="#63b8ff" d="M285,-131.94C285,-122.99 285,-111.16 285,-100.73"/>
<polygon fill="#63b8ff" stroke="#63b8ff" points="288.5,-100.54 285,-90.54 281.5,-100.54 288.5,-100.54"/>
</a>
</g>
</g>
<!-- Node11 -->
<g id="Node000011" class="node">
<title>Node11</title>
<g id="a_Node000011"><a xlink:title=" ">
<polygon fill="#e0e0e0" stroke="#999999" points="2504.5,-19 2427.5,-19 2427.5,0 2504.5,0 2504.5,-19"/>
<text text-anchor="middle" x="2466" y="-7" font-family="Helvetica,sans-Serif" font-size="10.00">sys/socket.h</text>
</a>
</g>
</g>
<!-- Node10&#45;&gt;Node11 -->
<g id="edge11_Node000010_Node000011" class="edge">
<title>Node10&#45;&gt;Node11</title>
<g id="a_edge11_Node000010_Node000011"><a xlink:title=" ">
<path fill="none" stroke="#63b8ff" d="M1359.24,-145.42C1588.41,-142.91 2406.16,-131.49 2448,-96 2467.04,-79.85 2469.04,-49.12 2468.04,-29.23"/>
<polygon fill="#63b8ff" stroke="#63b8ff" points="2471.52,-28.91 2467.23,-19.22 2464.54,-29.47 2471.52,-28.91"/>
</a>
</g>
</g>
<!-- Node12 -->
<g id="Node000012" class="node">
<title>Node12</title>
<g id="a_Node000012"><a xlink:title=" ">
<polygon fill="#e0e0e0" stroke="#999999" points="640,-19 568,-19 568,0 640,0 640,-19"/>
<text text-anchor="middle" x="604" y="-7" font-family="Helvetica,sans-Serif" font-size="10.00">netinet/in.h</text>
</a>
</g>
</g>
<!-- Node10&#45;&gt;Node12 -->
<g id="edge12_Node000010_Node000012" class="edge">
<title>Node10&#45;&gt;Node12</title>
<g id="a_edge12_Node000010_Node000012"><a xlink:title=" ">
<path fill="none" stroke="#63b8ff" d="M1240.94,-146.51C1074.04,-147.34 607.98,-145.2 562,-96 549.56,-82.69 555.27,-71.93 562,-55 566.52,-43.63 575.47,-33.48 583.96,-25.76"/>
<polygon fill="#63b8ff" stroke="#63b8ff" points="586.41,-28.27 591.79,-19.14 581.89,-22.92 586.41,-28.27"/>
</a>
</g>
</g>
<!-- Node13 -->
<g id="Node000013" class="node">
<title>Node13</title>
<g id="a_Node000013"><a xlink:title=" ">
<polygon fill="#e0e0e0" stroke="#999999" points="848.5,-85 779.5,-85 779.5,-66 848.5,-66 848.5,-85"/>
<text text-anchor="middle" x="814" y="-73" font-family="Helvetica,sans-Serif" font-size="10.00">arpa/inet.h</text>
</a>
</g>
</g>
<!-- Node10&#45;&gt;Node13 -->
<g id="edge13_Node000010_Node000013" class="edge">
<title>Node10&#45;&gt;Node13</title>
<g id="a_edge13_Node000010_Node000013"><a xlink:title=" ">
<path fill="none" stroke="#63b8ff" d="M1240.8,-144.18C1155.95,-140.47 995.38,-129.29 863,-96 855.96,-94.23 848.58,-91.69 841.75,-89.02"/>
<polygon fill="#63b8ff" stroke="#63b8ff" points="842.81,-85.67 832.23,-85.09 840.14,-92.14 842.81,-85.67"/>
</a>
</g>
</g>
<!-- Node14 -->
<g id="Node000014" class="node">
<title>Node14</title>
<g id="a_Node000014"><a xlink:title=" ">
<polygon fill="#e0e0e0" stroke="#999999" points="953.5,-19 900.5,-19 900.5,0 953.5,0 953.5,-19"/>
<text text-anchor="middle" x="927" y="-7" font-family="Helvetica,sans-Serif" font-size="10.00">netdb.h</text>
</a>
</g>
</g>
<!-- Node10&#45;&gt;Node14 -->
<g id="edge14_Node000010_Node000014" class="edge">
<title>Node10&#45;&gt;Node14</title>
<g id="a_edge14_Node000010_Node000014"><a xlink:title=" ">
<path fill="none" stroke="#63b8ff" d="M1240.67,-142.93C1133.92,-136.79 918.44,-121.38 896,-96 878.41,-76.1 897.33,-45.43 912.36,-26.74"/>
<polygon fill="#63b8ff" stroke="#63b8ff" points="915.06,-28.97 918.86,-19.08 909.72,-24.44 915.06,-28.97"/>
</a>
</g>
</g>
<!-- Node15 -->
<g id="Node000015" class="node">
<title>Node15</title>
<g id="a_Node000015"><a xlink:title=" ">
<polygon fill="#e0e0e0" stroke="#999999" points="1123,-85 1067,-85 1067,-66 1123,-66 1123,-85"/>
<text text-anchor="middle" x="1095" y="-73" font-family="Helvetica,sans-Serif" font-size="10.00">unistd.h</text>
</a>
</g>
</g>
<!-- Node10&#45;&gt;Node15 -->
<g id="edge15_Node000010_Node000015" class="edge">
<title>Node10&#45;&gt;Node15</title>
<g id="a_edge15_Node000010_Node000015"><a xlink:title=" ">
<path fill="none" stroke="#63b8ff" d="M1242.66,-131.93C1209.74,-123.11 1167.93,-110.65 1132,-96 1127.65,-94.22 1123.13,-92.1 1118.81,-89.92"/>
<polygon fill="#63b8ff" stroke="#63b8ff" points="1120.28,-86.74 1109.8,-85.15 1117.01,-92.92 1120.28,-86.74"/>
</a>
</g>
</g>
<!-- Node16 -->
<g id="Node000016" class="node">
<title>Node16</title>
<g id="a_Node000016"><a xlink:href="_conversion_and_literals_8hpp.html" target="_top" xlink:title=" ">
<polygon fill="white" stroke="#666666" points="1291,-90.5 1141,-90.5 1141,-60.5 1291,-60.5 1291,-90.5"/>
<text text-anchor="start" x="1149" y="-78.5" font-family="Helvetica,sans-Serif" font-size="10.00">Hermes/_base/OsApi</text>
<text text-anchor="middle" x="1216" y="-67.5" font-family="Helvetica,sans-Serif" font-size="10.00">/ConversionAndLiterals.hpp</text>
</a>
</g>
</g>
<!-- Node10&#45;&gt;Node16 -->
<g id="edge16_Node000010_Node000016" class="edge">
<title>Node10&#45;&gt;Node16</title>
<g id="a_edge16_Node000010_Node000016"><a xlink:title=" ">
<path fill="none" stroke="#63b8ff" d="M1283,-131.94C1270.93,-121.95 1254.53,-108.38 1240.98,-97.17"/>
<polygon fill="#63b8ff" stroke="#63b8ff" points="1242.91,-94.22 1232.97,-90.54 1238.45,-99.61 1242.91,-94.22"/>
</a>
</g>
</g>
<!-- Node18 -->
<g id="Node000018" class="node">
<title>Node18</title>
<g id="a_Node000018"><a xlink:href="_macros_8hpp.html" target="_top" xlink:title=" ">
<polygon fill="white" stroke="#666666" points="2806,-90.5 2688,-90.5 2688,-60.5 2806,-60.5 2806,-90.5"/>
<text text-anchor="start" x="2696" y="-78.5" font-family="Helvetica,sans-Serif" font-size="10.00">Hermes/_base/OsApi</text>
<text text-anchor="middle" x="2747" y="-67.5" font-family="Helvetica,sans-Serif" font-size="10.00">/Macros.hpp</text>
</a>
</g>
</g>
<!-- Node10&#45;&gt;Node18 -->
<g id="edge18_Node000010_Node000018" class="edge">
<title>Node10&#45;&gt;Node18</title>
<g id="a_edge18_Node000010_Node000018"><a xlink:title=" ">
<path fill="none" stroke="#63b8ff" d="M1359.09,-145.77C1588.32,-144.56 2418.9,-137.38 2679,-96 2683.83,-95.23 2688.79,-94.23 2693.74,-93.09"/>
<polygon fill="#63b8ff" stroke="#63b8ff" points="2694.97,-96.39 2703.82,-90.58 2693.27,-89.6 2694.97,-96.39"/>
</a>
</g>
</g>
<!-- Node20 -->
<g id="Node000020" class="node">
<title>Node20</title>
<g id="a_Node000020"><a xlink:href="_address_family_enum_8hpp.html" target="_top" xlink:title=" ">
<polygon fill="white" stroke="#666666" points="2670,-90.5 2494,-90.5 2494,-60.5 2670,-60.5 2670,-90.5"/>
<text text-anchor="start" x="2502" y="-78.5" font-family="Helvetica,sans-Serif" font-size="10.00">Hermes/_base/OsApi</text>
<text text-anchor="middle" x="2582" y="-67.5" font-family="Helvetica,sans-Serif" font-size="10.00">/Enums/AddressFamilyEnum.hpp</text>
</a>
</g>
</g>
<!-- Node10&#45;&gt;Node20 -->
<g id="edge21_Node000010_Node000020" class="edge">
<title>Node10&#45;&gt;Node20</title>
<g id="a_edge21_Node000010_Node000020"><a xlink:title=" ">
<path fill="none" stroke="#63b8ff" d="M1359.18,-146.55C1532.25,-147.5 2052.28,-145.68 2480,-96 2488.59,-95 2497.54,-93.69 2506.41,-92.23"/>
<polygon fill="#63b8ff" stroke="#63b8ff" points="2507.11,-95.66 2516.38,-90.51 2505.93,-88.76 2507.11,-95.66"/>
</a>
</g>
</g>
<!-- Node21 -->
<g id="Node000021" class="node">
<title>Node21</title>
<g id="a_Node000021"><a xlink:href="_protocol_base_type_enum_8hpp.html" target="_top" xlink:title=" ">
<polygon fill="white" stroke="#666666" points="761.5,-90.5 570.5,-90.5 570.5,-60.5 761.5,-60.5 761.5,-90.5"/>
<text text-anchor="start" x="578.5" y="-78.5" font-family="Helvetica,sans-Serif" font-size="10.00">Hermes/_base/OsApi</text>
<text text-anchor="middle" x="666" y="-67.5" font-family="Helvetica,sans-Serif" font-size="10.00">/Enums/ProtocolBaseTypeEnum.hpp</text>
</a>
</g>
</g>
<!-- Node10&#45;&gt;Node21 -->
<g id="edge23_Node000010_Node000021" class="edge">
<title>Node10&#45;&gt;Node21</title>
<g id="a_edge23_Node000010_Node000021"><a xlink:title=" ">
<path fill="none" stroke="#63b8ff" d="M1240.69,-142.13C1142.64,-135.35 940.7,-119.73 771,-96 763.1,-94.9 754.89,-93.61 746.7,-92.24"/>
<polygon fill="#63b8ff" stroke="#63b8ff" points="747.19,-88.77 736.74,-90.53 746.01,-95.67 747.19,-88.77"/>
</a>
</g>
</g>
<!-- Node22 -->
<g id="Node000022" class="node">
<title>Node22</title>
<g id="a_Node000022"><a xlink:href="_socket_shutdown_enum_8hpp.html" target="_top" xlink:title=" ">
<polygon fill="white" stroke="#666666" points="2261.5,-90.5 2076.5,-90.5 2076.5,-60.5 2261.5,-60.5 2261.5,-90.5"/>
<text text-anchor="start" x="2084.5" y="-78.5" font-family="Helvetica,sans-Serif" font-size="10.00">Hermes/_base/OsApi</text>
<text text-anchor="middle" x="2169" y="-67.5" font-family="Helvetica,sans-Serif" font-size="10.00">/Enums/SocketShutdownEnum.hpp</text>
</a>
</g>
</g>
<!-- Node10&#45;&gt;Node22 -->
<g id="edge25_Node000010_Node000022" class="edge">
<title>Node10&#45;&gt;Node22</title>
<g id="a_edge25_Node000010_Node000022"><a xlink:title=" ">
<path fill="none" stroke="#63b8ff" d="M1359.02,-144.68C1488.08,-141.25 1804.94,-129.82 2068,-96 2076,-94.97 2084.31,-93.7 2092.59,-92.3"/>
<polygon fill="#63b8ff" stroke="#63b8ff" points="2093.39,-95.71 2102.64,-90.54 2092.19,-88.82 2093.39,-95.71"/>
</a>
</g>
</g>
<!-- Node23 -->
<g id="Node000023" class="node">
<title>Node23</title>
<g id="a_Node000023"><a xlink:href="_socket_type_enum_8hpp.html" target="_top" xlink:title=" ">
<polygon fill="white" stroke="#666666" points="2438.5,-90.5 2279.5,-90.5 2279.5,-60.5 2438.5,-60.5 2438.5,-90.5"/>
<text text-anchor="start" x="2287.5" y="-78.5" font-family="Helvetica,sans-Serif" font-size="10.00">Hermes/_base/OsApi</text>
<text text-anchor="middle" x="2359" y="-67.5" font-family="Helvetica,sans-Serif" font-size="10.00">/Enums/SocketTypeEnum.hpp</text>
</a>
</g>
</g>
<!-- Node10&#45;&gt;Node23 -->
<g id="edge27_Node000010_Node000023" class="edge">
<title>Node10&#45;&gt;Node23</title>
<g id="a_edge27_Node000010_Node000023"><a xlink:title=" ">
<path fill="none" stroke="#63b8ff" d="M1359.15,-146.37C1511.21,-146.59 1927.89,-142.52 2271,-96 2277.77,-95.08 2284.79,-93.91 2291.78,-92.6"/>
<polygon fill="#63b8ff" stroke="#63b8ff" points="2292.84,-95.96 2301.97,-90.58 2291.48,-89.09 2292.84,-95.96"/>
</a>
</g>
</g>
<!-- Node24 -->
<g id="Node000024" class="node">
<title>Node24</title>
<g id="a_Node000024"><a xlink:href="_linux_2_encrypt_status_enum_8hpp.html" target="_top" xlink:title=" ">
<polygon fill="white" stroke="#666666" points="1461,-96 1309,-96 1309,-55 1461,-55 1461,-96"/>
<text text-anchor="start" x="1317" y="-84" font-family="Helvetica,sans-Serif" font-size="10.00">Hermes/_base/OsApi</text>
<text text-anchor="start" x="1317" y="-73" font-family="Helvetica,sans-Serif" font-size="10.00">/Enums/Linux/EncryptStatus</text>
<text text-anchor="middle" x="1385" y="-62" font-family="Helvetica,sans-Serif" font-size="10.00">Enum.hpp</text>
</a>
</g>
</g>
<!-- Node10&#45;&gt;Node24 -->
<g id="edge29_Node000010_Node000024" class="edge">
<title>Node10&#45;&gt;Node24</title>
<g id="a_edge29_Node000010_Node000024"><a xlink:title=" ">
<path fill="none" stroke="#63b8ff" d="M1317.2,-131.94C1327.55,-123.48 1341.04,-112.44 1353.26,-102.45"/>
<polygon fill="#63b8ff" stroke="#63b8ff" points="1355.54,-105.11 1361.06,-96.07 1351.1,-99.69 1355.54,-105.11"/>
</a>
</g>
</g>
<!-- Node25 -->
<g id="Node000025" class="node">
<title>Node25</title>
<g id="a_Node000025"><a xlink:href="_name_info_flags_8hpp.html" target="_top" xlink:title=" ">
<polygon fill="white" stroke="#666666" points="1049,-90.5 905,-90.5 905,-60.5 1049,-60.5 1049,-90.5"/>
<text text-anchor="start" x="913" y="-78.5" font-family="Helvetica,sans-Serif" font-size="10.00">Hermes/_base/OsApi</text>
<text text-anchor="middle" x="977" y="-67.5" font-family="Helvetica,sans-Serif" font-size="10.00">/Flags/NameInfoFlags.hpp</text>
</a>
</g>
</g>
<!-- Node10&#45;&gt;Node25 -->
<g id="edge30_Node000010_Node000025" class="edge">
<title>Node10&#45;&gt;Node25</title>
<g id="a_edge30_Node000010_Node000025"><a xlink:title=" ">
<path fill="none" stroke="#63b8ff" d="M1240.71,-134.31C1191.65,-124.5 1120.17,-109.9 1058,-96 1053.59,-95.01 1049.06,-93.98 1044.49,-92.92"/>
<polygon fill="#63b8ff" stroke="#63b8ff" points="1045,-89.45 1034.47,-90.58 1043.41,-96.26 1045,-89.45"/>
</a>
</g>
</g>
<!-- Node26 -->
<g id="Node000026" class="node">
<title>Node26</title>
<g id="a_Node000026"><a xlink:href="_linux_2_credential_flags_8hpp.html" target="_top" xlink:title=" ">
<polygon fill="white" stroke="#666666" points="1655,-90.5 1479,-90.5 1479,-60.5 1655,-60.5 1655,-90.5"/>
<text text-anchor="start" x="1487" y="-78.5" font-family="Helvetica,sans-Serif" font-size="10.00">Hermes/_base/OsApi</text>
<text text-anchor="middle" x="1567" y="-67.5" font-family="Helvetica,sans-Serif" font-size="10.00">/Flags/Linux/CredentialFlags.hpp</text>
</a>
</g>
</g>
<!-- Node10&#45;&gt;Node26 -->
<g id="edge32_Node000010_Node000026" class="edge">
<title>Node10&#45;&gt;Node26</title>
<g id="a_edge32_Node000010_Node000026"><a xlink:title=" ">
<path fill="none" stroke="#63b8ff" d="M1354.03,-131.94C1397.19,-120.7 1457.77,-104.93 1503.28,-93.09"/>
<polygon fill="#63b8ff" stroke="#63b8ff" points="1504.25,-96.45 1513.05,-90.54 1502.49,-89.68 1504.25,-96.45"/>
</a>
</g>
</g>
<!-- Node27 -->
<g id="Node000027" class="node">
<title>Node27</title>
<g id="a_Node000027"><a xlink:href="_linux_2_supported_protocols_flags_8hpp.html" target="_top" xlink:title=" ">
<polygon fill="white" stroke="#666666" points="1846.5,-96 1673.5,-96 1673.5,-55 1846.5,-55 1846.5,-96"/>
<text text-anchor="start" x="1681.5" y="-84" font-family="Helvetica,sans-Serif" font-size="10.00">Hermes/_base/OsApi</text>
<text text-anchor="start" x="1681.5" y="-73" font-family="Helvetica,sans-Serif" font-size="10.00">/Flags/Linux/SupportedProtocols</text>
<text text-anchor="middle" x="1760" y="-62" font-family="Helvetica,sans-Serif" font-size="10.00">Flags.hpp</text>
</a>
</g>
</g>
<!-- Node10&#45;&gt;Node27 -->
<g id="edge33_Node000010_Node000027" class="edge">
<title>Node10&#45;&gt;Node27</title>
<g id="a_edge33_Node000010_Node000027"><a xlink:title=" ">
<path fill="none" stroke="#63b8ff" d="M1359.12,-139.06C1429.24,-130.56 1549.86,-115.11 1663.52,-96.03"/>
<polygon fill="#63b8ff" stroke="#63b8ff" points="1664.16,-99.47 1673.44,-94.35 1663,-92.56 1664.16,-99.47"/>
</a>
</g>
</g>
<!-- Node28 -->
<g id="Node000028" class="node">
<title>Node28</title>
<g id="a_Node000028"><a xlink:href="_linux_2_s_channel_cred_flags_8hpp.html" target="_top" xlink:title=" ">
<polygon fill="white" stroke="#666666" points="2059,-90.5 1865,-90.5 1865,-60.5 2059,-60.5 2059,-90.5"/>
<text text-anchor="start" x="1873" y="-78.5" font-family="Helvetica,sans-Serif" font-size="10.00">Hermes/_base/OsApi</text>
<text text-anchor="middle" x="1962" y="-67.5" font-family="Helvetica,sans-Serif" font-size="10.00">/Flags/Linux/SChannelCredFlags.hpp</text>
</a>
</g>
</g>
<!-- Node10&#45;&gt;Node28 -->
<g id="edge34_Node000010_Node000028" class="edge">
<title>Node10&#45;&gt;Node28</title>
<g id="a_edge34_Node000010_Node000028"><a xlink:title=" ">
<path fill="none" stroke="#63b8ff" d="M1359.04,-142.49C1460.81,-136.03 1675.71,-120.64 1856,-96 1864.13,-94.89 1872.58,-93.59 1881.01,-92.19"/>
<polygon fill="#63b8ff" stroke="#63b8ff" points="1881.6,-95.64 1890.87,-90.52 1880.43,-88.74 1881.6,-95.64"/>
</a>
</g>
</g>
<!-- Node17 -->
<g id="Node000017" class="node">
<title>Node17</title>
<g id="a_Node000017"><a xlink:title=" ">
<polygon fill="#e0e0e0" stroke="#999999" points="1241,-19 1191,-19 1191,0 1241,0 1241,-19"/>
<text text-anchor="middle" x="1216" y="-7" font-family="Helvetica,sans-Serif" font-size="10.00">cstdint</text>
</a>
</g>
</g>
<!-- Node16&#45;&gt;Node17 -->
<g id="edge17_Node000016_Node000017" class="edge">
<title>Node16&#45;&gt;Node17</title>
<g id="a_edge17_Node000016_Node000017"><a xlink:title=" ">
<path fill="none" stroke="#63b8ff" d="M1216,-60.3C1216,-51.2 1216,-39.29 1216,-29.4"/>
<polygon fill="#63b8ff" stroke="#63b8ff" points="1219.5,-29.34 1216,-19.34 1212.5,-29.34 1219.5,-29.34"/>
</a>
</g>
</g>
<!-- Node18&#45;&gt;Node11 -->
<g id="edge20_Node000018_Node000011" class="edge">
<title>Node18&#45;&gt;Node11</title>
<g id="a_edge20_Node000018_Node000011"><a xlink:title=" ">
<path fill="none" stroke="#63b8ff" d="M2699.56,-60.42C2692.69,-58.51 2685.68,-56.65 2679,-55 2622.98,-41.14 2557.98,-27.97 2514.66,-19.61"/>
<polygon fill="#63b8ff" stroke="#63b8ff" points="2515.15,-16.14 2504.67,-17.69 2513.83,-23.02 2515.15,-16.14"/>
</a>
</g>
</g>
<!-- Node19 -->
<g id="Node000019" class="node">
<title>Node19</title>
<g id="a_Node000019"><a xlink:title=" ">
<polygon fill="#e0e0e0" stroke="#999999" points="2783.5,-19 2710.5,-19 2710.5,0 2783.5,0 2783.5,-19"/>
<text text-anchor="middle" x="2747" y="-7" font-family="Helvetica,sans-Serif" font-size="10.00">string_view</text>
</a>
</g>
</g>
<!-- Node18&#45;&gt;Node19 -->
<g id="edge19_Node000018_Node000019" class="edge">
<title>Node18&#45;&gt;Node19</title>
<g id="a_edge19_Node000018_Node000019"><a xlink:title=" ">
<path fill="none" stroke="#63b8ff" d="M2747,-60.3C2747,-51.2 2747,-39.29 2747,-29.4"/>
<polygon fill="#63b8ff" stroke="#63b8ff" points="2750.5,-29.34 2747,-19.34 2743.5,-29.34 2750.5,-29.34"/>
</a>
</g>
</g>
<!-- Node20&#45;&gt;Node11 -->
<g id="edge22_Node000020_Node000011" class="edge">
<title>Node20&#45;&gt;Node11</title>
<g id="a_edge22_Node000020_Node000011"><a xlink:title=" ">
<path fill="none" stroke="#63b8ff" d="M2556.54,-60.45C2536.83,-49.58 2509.69,-34.61 2490.28,-23.9"/>
<polygon fill="#63b8ff" stroke="#63b8ff" points="2491.88,-20.78 2481.44,-19.02 2488.5,-26.91 2491.88,-20.78"/>
</a>
</g>
</g>
<!-- Node21&#45;&gt;Node12 -->
<g id="edge24_Node000021_Node000012" class="edge">
<title>Node21&#45;&gt;Node12</title>
<g id="a_edge24_Node000021_Node000012"><a xlink:title=" ">
<path fill="none" stroke="#63b8ff" d="M652.24,-60.3C642.57,-50.32 629.63,-36.96 619.58,-26.59"/>
<polygon fill="#63b8ff" stroke="#63b8ff" points="622.04,-24.09 612.57,-19.34 617.01,-28.96 622.04,-24.09"/>
</a>
</g>
</g>
<!-- Node22&#45;&gt;Node11 -->
<g id="edge26_Node000022_Node000011" class="edge">
<title>Node22&#45;&gt;Node11</title>
<g id="a_edge26_Node000022_Node000011"><a xlink:title=" ">
<path fill="none" stroke="#63b8ff" d="M2234.18,-60.45C2289.45,-48.54 2367.5,-31.73 2417.42,-20.97"/>
<polygon fill="#63b8ff" stroke="#63b8ff" points="2418.29,-24.36 2427.33,-18.83 2416.81,-17.52 2418.29,-24.36"/>
</a>
</g>
</g>
<!-- Node23&#45;&gt;Node11 -->
<g id="edge28_Node000023_Node000011" class="edge">
<title>Node23&#45;&gt;Node11</title>
<g id="a_edge28_Node000023_Node000011"><a xlink:title=" ">
<path fill="none" stroke="#63b8ff" d="M2382.48,-60.45C2400.5,-49.68 2425.24,-34.88 2443.11,-24.19"/>
<polygon fill="#63b8ff" stroke="#63b8ff" points="2444.97,-27.15 2451.76,-19.02 2441.38,-21.15 2444.97,-27.15"/>
</a>
</g>
</g>
<!-- Node25&#45;&gt;Node14 -->
<g id="edge31_Node000025_Node000014" class="edge">
<title>Node25&#45;&gt;Node14</title>
<g id="a_edge31_Node000025_Node000014"><a xlink:title=" ">
<path fill="none" stroke="#63b8ff" d="M965.9,-60.3C958.34,-50.61 948.28,-37.74 940.29,-27.51"/>
<polygon fill="#63b8ff" stroke="#63b8ff" points="942.82,-25.07 933.91,-19.34 937.31,-29.38 942.82,-25.07"/>
</a>
</g>
</g>
</g>
</svg>
