<?xml version="1.0" encoding="UTF-8" standalone="no"?>
<!DOCTYPE svg PUBLIC "-//W3C//DTD SVG 1.1//EN"
 "http://www.w3.org/Graphics/SVG/1.1/DTD/svg11.dtd">
<!-- Generated by graphviz version 2.43.0 (0)
 -->
<!-- Title: include/Hermes/Utils/ToBytes.hpp Pages: 1 -->
<svg width="4101pt" height="357pt"
 viewBox="0.00 0.00 4101.00 357.00" xmlns="http://www.w3.org/2000/svg" xmlns:xlink="http://www.w3.org/1999/xlink">
<g id="graph0" class="graph" transform="scale(1 1) rotate(0) translate(4 353)">
<title>include/Hermes/Utils/ToBytes.hpp</title>
<!-- Node1 -->
<g id="Node000001" class="node">
<title>Node1</title>
<g id="a_Node000001"><a xlink:title=" ">
<polygon fill="#999999" stroke="#666666" points="295.5,-349 176.5,-349 176.5,-319 295.5,-319 295.5,-349"/>
<text text-anchor="start" x="184.5" y="-337" font-family="Helvetica,sans-Serif" font-size="10.00">include/Hermes/Utils</text>
<text text-anchor="middle" x="236" y="-326" font-family="Helvetica,sans-Serif" font-size="10.00">/ToBytes.hpp</text>
</a>
</g>
</g>
<!-- Node2 -->
<g id="Node000002" class="node">
<title>Node2</title>
<g id="a_Node000002"><a xlink:title=" ">
<polygon fill="#e0e0e0" stroke="#999999" points="40,-85 0,-85 0,-66 40,-66 40,-85"/>
<text text-anchor="middle" x="20" y="-73" font-family="Helvetica,sans-Serif" font-size="10.00">span</text>
</a>
</g>
</g>
<!-- Node1&#45;&gt;Node2 -->
<g id="edge1_Node000001_Node000002" class="edge">
<title>Node1&#45;&gt;Node2</title>
<g id="a_edge1_Node000001_Node000002"><a xlink:title=" ">
<path fill="none" stroke="#63b8ff" d="M224.08,-318.84C186.95,-274.75 73.47,-140 33.84,-92.93"/>
<polygon fill="#63b8ff" stroke="#63b8ff" points="36.45,-90.6 27.33,-85.21 31.1,-95.11 36.45,-90.6"/>
</a>
</g>
</g>
<!-- Node3 -->
<g id="Node000003" class="node">
<title>Node3</title>
<g id="a_Node000003"><a xlink:href="__base_8hpp.html" target="_top" xlink:title=" ">
<polygon fill="white" stroke="#666666" points="510.5,-283 367.5,-283 367.5,-264 510.5,-264 510.5,-283"/>
<text text-anchor="middle" x="439" y="-271" font-family="Helvetica,sans-Serif" font-size="10.00">Hermes/Socket/_base.hpp</text>
</a>
</g>
</g>
<!-- Node1&#45;&gt;Node3 -->
<g id="edge2_Node000001_Node000003" class="edge">
<title>Node1&#45;&gt;Node3</title>
<g id="a_edge2_Node000001_Node000003"><a xlink:title=" ">
<path fill="none" stroke="#63b8ff" d="M284.62,-318.99C319.81,-308.85 366.76,-295.32 399.6,-285.85"/>
<polygon fill="#63b8ff" stroke="#63b8ff" points="400.68,-289.19 409.32,-283.05 398.74,-282.46 400.68,-289.19"/>
</a>
</g>
</g>
<!-- Node4 -->
<g id="Node000004" class="node">
<title>Node4</title>
<g id="a_Node000004"><a xlink:href="_endpoint_concept_8hpp.html" target="_top" xlink:title=" ">
<polygon fill="white" stroke="#666666" points="458,-228 326,-228 326,-198 458,-198 458,-228"/>
<text text-anchor="start" x="334" y="-216" font-family="Helvetica,sans-Serif" font-size="10.00">Hermes/Endpoint/_base</text>
<text text-anchor="middle" x="392" y="-205" font-family="Helvetica,sans-Serif" font-size="10.00">/EndpointConcept.hpp</text>
</a>
</g>
</g>
<!-- Node3&#45;&gt;Node4 -->
<g id="edge3_Node000003_Node000004" class="edge">
<title>Node3&#45;&gt;Node4</title>
<g id="a_edge3_Node000003_Node000004"><a xlink:title=" ">
<path fill="none" stroke="#63b8ff" d="M432.06,-263.87C426.22,-256.59 417.59,-245.85 409.84,-236.2"/>
<polygon fill="#63b8ff" stroke="#63b8ff" points="412.33,-233.72 403.34,-228.11 406.87,-238.1 412.33,-233.72"/>
</a>
</g>
</g>
<!-- Node5 -->
<g id="Node000005" class="node">
<title>Node5</title>
<g id="a_Node000005"><a xlink:href="_connection_error_enum_8hpp.html" target="_top" xlink:title=" ">
<polygon fill="white" stroke="#666666" points="381.5,-162 214.5,-162 214.5,-132 381.5,-132 381.5,-162"/>
<text text-anchor="start" x="222.5" y="-150" font-family="Helvetica,sans-Serif" font-size="10.00">Hermes/_base/ConnectionError</text>
<text text-anchor="middle" x="298" y="-139" font-family="Helvetica,sans-Serif" font-size="10.00">Enum.hpp</text>
</a>
</g>
</g>
<!-- Node3&#45;&gt;Node5 -->
<g id="edge54_Node000003_Node000005" class="edge">
<title>Node3&#45;&gt;Node5</title>
<g id="a_edge54_Node000003_Node000005"><a xlink:title=" ">
<path fill="none" stroke="#63b8ff" d="M382.24,-263.92C359.01,-257.64 333.71,-246.78 317,-228 303.48,-212.81 299.13,-189.76 297.92,-172.29"/>
<polygon fill="#63b8ff" stroke="#63b8ff" points="301.42,-172.12 297.52,-162.26 294.42,-172.39 301.42,-172.12"/>
</a>
</g>
</g>
<!-- Node9 -->
<g id="Node000009" class="node">
<title>Node9</title>
<g id="a_Node000009"><a xlink:title=" ">
<polygon fill="#e0e0e0" stroke="#999999" points="753.5,-85 628.5,-85 628.5,-66 753.5,-66 753.5,-85"/>
<text text-anchor="middle" x="691" y="-73" font-family="Helvetica,sans-Serif" font-size="10.00">stdexec/execution.hpp</text>
</a>
</g>
</g>
<!-- Node3&#45;&gt;Node9 -->
<g id="edge55_Node000003_Node000009" class="edge">
<title>Node3&#45;&gt;Node9</title>
<g id="a_edge55_Node000003_Node000009"><a xlink:title=" ">
<path fill="none" stroke="#63b8ff" d="M445.65,-263.55C456.86,-248.81 480.67,-219 505,-198 557.66,-152.53 628.46,-110.82 665.68,-90.14"/>
<polygon fill="#63b8ff" stroke="#63b8ff" points="667.75,-93 674.82,-85.11 664.38,-86.86 667.75,-93"/>
</a>
</g>
</g>
<!-- Node39 -->
<g id="Node000039" class="node">
<title>Node39</title>
<g id="a_Node000039"><a xlink:title=" ">
<polygon fill="#e0e0e0" stroke="#999999" points="574,-222.5 514,-222.5 514,-203.5 574,-203.5 574,-222.5"/>
<text text-anchor="middle" x="544" y="-210.5" font-family="Helvetica,sans-Serif" font-size="10.00">concepts</text>
</a>
</g>
</g>
<!-- Node3&#45;&gt;Node39 -->
<g id="edge56_Node000003_Node000039" class="edge">
<title>Node3&#45;&gt;Node39</title>
<g id="a_edge56_Node000003_Node000039"><a xlink:title=" ">
<path fill="none" stroke="#63b8ff" d="M454.49,-263.87C471.63,-254.32 499.47,-238.81 519.56,-227.62"/>
<polygon fill="#63b8ff" stroke="#63b8ff" points="521.41,-230.59 528.44,-222.67 518,-224.48 521.41,-230.59"/>
</a>
</g>
</g>
<!-- Node40 -->
<g id="Node000040" class="node">
<title>Node40</title>
<g id="a_Node000040"><a xlink:title=" ">
<polygon fill="#e0e0e0" stroke="#999999" points="642,-222.5 592,-222.5 592,-203.5 642,-203.5 642,-222.5"/>
<text text-anchor="middle" x="617" y="-210.5" font-family="Helvetica,sans-Serif" font-size="10.00">ranges</text>
</a>
</g>
</g>
<!-- Node3&#45;&gt;Node40 -->
<g id="edge57_Node000003_Node000040" class="edge">
<title>Node3&#45;&gt;Node40</title>
<g id="a_edge57_Node000003_Node000040"><a xlink:title=" ">
<path fill="none" stroke="#63b8ff" d="M469.33,-264C498.65,-255.57 544.22,-241.94 583,-228 584.43,-227.49 585.88,-226.95 587.35,-226.39"/>
<polygon fill="#63b8ff" stroke="#63b8ff" points="588.96,-229.52 596.98,-222.6 586.39,-223.01 588.96,-229.52"/>
</a>
</g>
</g>
<!-- Node4&#45;&gt;Node5 -->
<g id="edge4_Node000004_Node000005" class="edge">
<title>Node4&#45;&gt;Node5</title>
<g id="a_edge4_Node000004_Node000005"><a xlink:title=" ">
<path fill="none" stroke="#63b8ff" d="M371.14,-197.8C358.24,-189.01 341.49,-177.61 327.27,-167.93"/>
<polygon fill="#63b8ff" stroke="#63b8ff" points="329.04,-164.9 318.8,-162.16 325.1,-170.69 329.04,-164.9"/>
</a>
</g>
</g>
<!-- Node12 -->
<g id="Node000012" class="node">
<title>Node12</title>
<g id="a_Node000012"><a xlink:href="_win_api_8hpp.html" target="_top" xlink:title=" ">
<polygon fill="white" stroke="#666666" points="2086,-162 1962,-162 1962,-132 2086,-132 2086,-162"/>
<text text-anchor="start" x="1970" y="-150" font-family="Helvetica,sans-Serif" font-size="10.00">Hermes/_base/WinApi</text>
<text text-anchor="middle" x="2024" y="-139" font-family="Helvetica,sans-Serif" font-size="10.00">/WinApi.hpp</text>
</a>
</g>
</g>
<!-- Node4&#45;&gt;Node12 -->
<g id="edge12_Node000004_Node000012" class="edge">
<title>Node4&#45;&gt;Node12</title>
<g id="a_edge12_Node000004_Node000012"><a xlink:title=" ">
<path fill="none" stroke="#63b8ff" d="M458.22,-202.78C473.56,-200.93 489.82,-199.19 505,-198 1060.43,-154.54 1732.99,-148.76 1951.61,-148.06"/>
<polygon fill="#63b8ff" stroke="#63b8ff" points="1951.68,-151.56 1961.67,-148.04 1951.66,-144.56 1951.68,-151.56"/>
</a>
</g>
</g>
<!-- Node5&#45;&gt;Node2 -->
<g id="edge7_Node000005_Node000002" class="edge">
<title>Node5&#45;&gt;Node2</title>
<g id="a_edge7_Node000005_Node000002"><a xlink:title=" ">
<path fill="none" stroke="#63b8ff" d="M214.29,-137.54C164.8,-130.51 101.7,-117.98 49,-96 45.65,-94.6 42.28,-92.79 39.09,-90.84"/>
<polygon fill="#63b8ff" stroke="#63b8ff" points="40.95,-87.88 30.71,-85.19 37.04,-93.68 40.95,-87.88"/>
</a>
</g>
</g>
<!-- Node6 -->
<g id="Node000006" class="node">
<title>Node6</title>
<g id="a_Node000006"><a xlink:title=" ">
<polygon fill="#e0e0e0" stroke="#999999" points="120,-85 58,-85 58,-66 120,-66 120,-85"/>
<text text-anchor="middle" x="89" y="-73" font-family="Helvetica,sans-Serif" font-size="10.00">expected</text>
</a>
</g>
</g>
<!-- Node5&#45;&gt;Node6 -->
<g id="edge5_Node000005_Node000006" class="edge">
<title>Node5&#45;&gt;Node6</title>
<g id="a_edge5_Node000005_Node000006"><a xlink:title=" ">
<path fill="none" stroke="#63b8ff" d="M242.04,-131.95C208.75,-122.98 165.93,-110.35 129,-96 124.09,-94.09 118.95,-91.81 114.06,-89.5"/>
<polygon fill="#63b8ff" stroke="#63b8ff" points="115.59,-86.36 105.07,-85.09 112.51,-92.64 115.59,-86.36"/>
</a>
</g>
</g>
<!-- Node7 -->
<g id="Node000007" class="node">
<title>Node7</title>
<g id="a_Node000007"><a xlink:title=" ">
<polygon fill="#e0e0e0" stroke="#999999" points="185.5,-85 138.5,-85 138.5,-66 185.5,-66 185.5,-85"/>
<text text-anchor="middle" x="162" y="-73" font-family="Helvetica,sans-Serif" font-size="10.00">vector</text>
</a>
</g>
</g>
<!-- Node5&#45;&gt;Node7 -->
<g id="edge6_Node000005_Node000007" class="edge">
<title>Node5&#45;&gt;Node7</title>
<g id="a_edge6_Node000005_Node000007"><a xlink:title=" ">
<path fill="none" stroke="#63b8ff" d="M266.65,-131.92C245.8,-122.31 217.94,-109.01 194,-96 190.82,-94.27 187.5,-92.37 184.27,-90.46"/>
<polygon fill="#63b8ff" stroke="#63b8ff" points="185.89,-87.35 175.53,-85.15 182.26,-93.33 185.89,-87.35"/>
</a>
</g>
</g>
<!-- Node8 -->
<g id="Node000008" class="node">
<title>Node8</title>
<g id="a_Node000008"><a xlink:title=" ">
<polygon fill="#e0e0e0" stroke="#999999" points="272.5,-85 203.5,-85 203.5,-66 272.5,-66 272.5,-85"/>
<text text-anchor="middle" x="238" y="-73" font-family="Helvetica,sans-Serif" font-size="10.00">type_traits</text>
</a>
</g>
</g>
<!-- Node5&#45;&gt;Node8 -->
<g id="edge8_Node000005_Node000008" class="edge">
<title>Node5&#45;&gt;Node8</title>
<g id="a_edge8_Node000005_Node000008"><a xlink:title=" ">
<path fill="none" stroke="#63b8ff" d="M285.86,-131.94C276.16,-120.7 262.54,-104.93 252.31,-93.08"/>
<polygon fill="#63b8ff" stroke="#63b8ff" points="254.75,-90.55 245.57,-85.27 249.45,-95.12 254.75,-90.55"/>
</a>
</g>
</g>
<!-- Node5&#45;&gt;Node9 -->
<g id="edge9_Node000005_Node000009" class="edge">
<title>Node5&#45;&gt;Node9</title>
<g id="a_edge9_Node000005_Node000009"><a xlink:title=" ">
<path fill="none" stroke="#63b8ff" d="M381.6,-135.54C446.65,-126.79 539.01,-113.01 619,-96 630.06,-93.65 641.94,-90.63 652.81,-87.68"/>
<polygon fill="#63b8ff" stroke="#63b8ff" points="653.75,-91.05 662.45,-85.01 651.87,-84.31 653.75,-91.05"/>
</a>
</g>
</g>
<!-- Node10 -->
<g id="Node000010" class="node">
<title>Node10</title>
<g id="a_Node000010"><a xlink:title=" ">
<polygon fill="#e0e0e0" stroke="#999999" points="425,-85 291,-85 291,-66 425,-66 425,-85"/>
<text text-anchor="middle" x="358" y="-73" font-family="Helvetica,sans-Serif" font-size="10.00">exec/any_sender_of.hpp</text>
</a>
</g>
</g>
<!-- Node5&#45;&gt;Node10 -->
<g id="edge10_Node000005_Node000010" class="edge">
<title>Node5&#45;&gt;Node10</title>
<g id="a_edge10_Node000005_Node000010"><a xlink:title=" ">
<path fill="none" stroke="#63b8ff" d="M310.14,-131.94C319.84,-120.7 333.46,-104.93 343.69,-93.08"/>
<polygon fill="#63b8ff" stroke="#63b8ff" points="346.55,-95.12 350.43,-85.27 341.25,-90.55 346.55,-95.12"/>
</a>
</g>
</g>
<!-- Node11 -->
<g id="Node000011" class="node">
<title>Node11</title>
<g id="a_Node000011"><a xlink:title=" ">
<polygon fill="#e0e0e0" stroke="#999999" points="610.5,-90.5 443.5,-90.5 443.5,-60.5 610.5,-60.5 610.5,-90.5"/>
<text text-anchor="start" x="451.5" y="-78.5" font-family="Helvetica,sans-Serif" font-size="10.00">Hermes/_base/ConnectionError</text>
<text text-anchor="middle" x="527" y="-67.5" font-family="Helvetica,sans-Serif" font-size="10.00">Enum.tpp</text>
</a>
</g>
</g>
<!-- Node5&#45;&gt;Node11 -->
<g id="edge11_Node000005_Node000011" class="edge">
<title>Node5&#45;&gt;Node11</title>
<g id="a_edge11_Node000005_Node000011"><a xlink:title=" ">
<path fill="none" stroke="#63b8ff" d="M344.34,-131.94C380.97,-120.82 432.22,-105.26 471.12,-93.46"/>
<polygon fill="#63b8ff" stroke="#63b8ff" points="472.17,-96.8 480.73,-90.54 470.14,-90.1 472.17,-96.8"/>
</a>
</g>
</g>
<!-- Node13 -->
<g id="Node000013" class="node">
<title>Node13</title>
<g id="a_Node000013"><a xlink:title=" ">
<polygon fill="#e0e0e0" stroke="#999999" points="840.5,-85 771.5,-85 771.5,-66 840.5,-66 840.5,-85"/>
<text text-anchor="middle" x="806" y="-73" font-family="Helvetica,sans-Serif" font-size="10.00">ws2tcpip.h</text>
</a>
</g>
</g>
<!-- Node12&#45;&gt;Node13 -->
<g id="edge13_Node000012_Node000013" class="edge">
<title>Node12&#45;&gt;Node13</title>
<g id="a_edge13_Node000012_Node000013"><a xlink:title=" ">
<path fill="none" stroke="#63b8ff" d="M1961.92,-146.08C1751.89,-145.92 1069.16,-141.81 855,-96 847.49,-94.39 839.64,-91.75 832.48,-88.91"/>
<polygon fill="#63b8ff" stroke="#63b8ff" points="833.82,-85.68 823.24,-85.01 831.1,-92.13 833.82,-85.68"/>
</a>
</g>
</g>
<!-- Node14 -->
<g id="Node000014" class="node">
<title>Node14</title>
<g id="a_Node000014"><a xlink:title=" ">
<polygon fill="#e0e0e0" stroke="#999999" points="1023.5,-19 952.5,-19 952.5,0 1023.5,0 1023.5,-19"/>
<text text-anchor="middle" x="988" y="-7" font-family="Helvetica,sans-Serif" font-size="10.00">winsock2.h</text>
</a>
</g>
</g>
<!-- Node12&#45;&gt;Node14 -->
<g id="edge14_Node000012_Node000014" class="edge">
<title>Node12&#45;&gt;Node14</title>
<g id="a_edge14_Node000012_Node000014"><a xlink:title=" ">
<path fill="none" stroke="#63b8ff" d="M1961.81,-145.55C1733.03,-143.59 949.44,-134.12 913,-96 900.41,-82.83 903.98,-70.83 913,-55 921.3,-40.43 936.45,-30.14 950.98,-23.15"/>
<polygon fill="#63b8ff" stroke="#63b8ff" points="952.61,-26.25 960.35,-19.02 949.79,-19.85 952.61,-26.25"/>
</a>
</g>
</g>
<!-- Node15 -->
<g id="Node000015" class="node">
<title>Node15</title>
<g id="a_Node000015"><a xlink:title=" ">
<polygon fill="#e0e0e0" stroke="#999999" points="1229.5,-19 1160.5,-19 1160.5,0 1229.5,0 1229.5,-19"/>
<text text-anchor="middle" x="1195" y="-7" font-family="Helvetica,sans-Serif" font-size="10.00">schannel.h</text>
</a>
</g>
</g>
<!-- Node12&#45;&gt;Node15 -->
<g id="edge15_Node000012_Node000015" class="edge">
<title>Node12&#45;&gt;Node15</title>
<g id="a_edge15_Node000012_Node000015"><a xlink:title=" ">
<path fill="none" stroke="#63b8ff" d="M1961.76,-145.51C1734.66,-143.44 961.96,-133.64 926,-96 913.41,-82.83 914.21,-68.9 926,-55 954.21,-21.74 1081.21,-13.3 1150.14,-11.19"/>
<polygon fill="#63b8ff" stroke="#63b8ff" points="1150.38,-14.68 1160.28,-10.91 1150.19,-7.69 1150.38,-14.68"/>
</a>
</g>
</g>
<!-- Node16 -->
<g id="Node000016" class="node">
<title>Node16</title>
<g id="a_Node000016"><a xlink:title=" ">
<polygon fill="#e0e0e0" stroke="#999999" points="2046.5,-19 2001.5,-19 2001.5,0 2046.5,0 2046.5,-19"/>
<text text-anchor="middle" x="2024" y="-7" font-family="Helvetica,sans-Serif" font-size="10.00">sspi.h</text>
</a>
</g>
</g>
<!-- Node12&#45;&gt;Node16 -->
<g id="edge16_Node000012_Node000016" class="edge">
<title>Node12&#45;&gt;Node16</title>
<g id="a_edge16_Node000012_Node000016"><a xlink:title=" ">
<path fill="none" stroke="#63b8ff" d="M1961.78,-146.8C1868.73,-146.51 1700.14,-139.77 1662,-96 1650.03,-82.26 1649.93,-68.65 1662,-55 1683.68,-30.5 1906.27,-16.55 1991.26,-12.09"/>
<polygon fill="#63b8ff" stroke="#63b8ff" points="1991.58,-15.58 2001.38,-11.57 1991.22,-8.59 1991.58,-15.58"/>
</a>
</g>
</g>
<!-- Node17 -->
<g id="Node000017" class="node">
<title>Node17</title>
<g id="a_Node000017"><a xlink:href="_conversion_and_literals_8hpp.html" target="_top" xlink:title=" ">
<polygon fill="white" stroke="#666666" points="2908,-90.5 2758,-90.5 2758,-60.5 2908,-60.5 2908,-90.5"/>
<text text-anchor="start" x="2766" y="-78.5" font-family="Helvetica,sans-Serif" font-size="10.00">Hermes/_base/WinApi</text>
<text text-anchor="middle" x="2833" y="-67.5" font-family="Helvetica,sans-Serif" font-size="10.00">/ConversionAndLiterals.hpp</text>
</a>
</g>
</g>
<!-- Node12&#45;&gt;Node17 -->
<g id="edge17_Node000012_Node000017" class="edge">
<title>Node12&#45;&gt;Node17</title>
<g id="a_edge17_Node000012_Node000017"><a xlink:title=" ">
<path fill="none" stroke="#63b8ff" d="M2086.43,-145.04C2212.39,-142.36 2505.68,-132.4 2749,-96 2755.22,-95.07 2761.66,-93.92 2768.08,-92.65"/>
<polygon fill="#63b8ff" stroke="#63b8ff" points="2769.04,-96.02 2778.12,-90.56 2767.61,-89.17 2769.04,-96.02"/>
</a>
</g>
</g>
<!-- Node19 -->
<g id="Node000019" class="node">
<title>Node19</title>
<g id="a_Node000019"><a xlink:href="_macros_8hpp.html" target="_top" xlink:title=" ">
<polygon fill="white" stroke="#666666" points="1615,-90.5 1491,-90.5 1491,-60.5 1615,-60.5 1615,-90.5"/>
<text text-anchor="start" x="1499" y="-78.5" font-family="Helvetica,sans-Serif" font-size="10.00">Hermes/_base/WinApi</text>
<text text-anchor="middle" x="1553" y="-67.5" font-family="Helvetica,sans-Serif" font-size="10.00">/Macros.hpp</text>
</a>
</g>
</g>
<!-- Node12&#45;&gt;Node19 -->
<g id="edge19_Node000012_Node000019" class="edge">
<title>Node12&#45;&gt;Node19</title>
<g id="a_edge19_Node000012_Node000019"><a xlink:title=" ">
<path fill="none" stroke="#63b8ff" d="M1961.71,-140.55C1883.55,-133.15 1745.62,-118.25 1629,-96 1624.23,-95.09 1619.32,-94.06 1614.4,-92.95"/>
<polygon fill="#63b8ff" stroke="#63b8ff" points="1614.85,-89.46 1604.31,-90.59 1613.26,-96.28 1614.85,-89.46"/>
</a>
</g>
</g>
<!-- Node21 -->
<g id="Node000021" class="node">
<title>Node21</title>
<g id="a_Node000021"><a xlink:href="_address_family_enum_8hpp.html" target="_top" xlink:title=" ">
<polygon fill="white" stroke="#666666" points="3102,-90.5 2926,-90.5 2926,-60.5 3102,-60.5 3102,-90.5"/>
<text text-anchor="start" x="2934" y="-78.5" font-family="Helvetica,sans-Serif" font-size="10.00">Hermes/_base/WinApi</text>
<text text-anchor="middle" x="3014" y="-67.5" font-family="Helvetica,sans-Serif" font-size="10.00">/Enums/AddressFamilyEnum.hpp</text>
</a>
</g>
</g>
<!-- Node12&#45;&gt;Node21 -->
<g id="edge24_Node000012_Node000021" class="edge">
<title>Node12&#45;&gt;Node21</title>
<g id="a_edge24_Node000012_Node000021"><a xlink:title=" ">
<path fill="none" stroke="#63b8ff" d="M2086.26,-145.56C2232.07,-143.86 2606.83,-135.65 2917,-96 2924.87,-94.99 2933.07,-93.71 2941.2,-92.3"/>
<polygon fill="#63b8ff" stroke="#63b8ff" points="2941.87,-95.73 2951.08,-90.5 2940.62,-88.84 2941.87,-95.73"/>
</a>
</g>
</g>
<!-- Node23 -->
<g id="Node000023" class="node">
<title>Node23</title>
<g id="a_Node000023"><a xlink:href="_condition_function_enum_8hpp.html" target="_top" xlink:title=" ">
<polygon fill="white" stroke="#666666" points="3522,-90.5 3330,-90.5 3330,-60.5 3522,-60.5 3522,-90.5"/>
<text text-anchor="start" x="3338" y="-78.5" font-family="Helvetica,sans-Serif" font-size="10.00">Hermes/_base/WinApi</text>
<text text-anchor="middle" x="3426" y="-67.5" font-family="Helvetica,sans-Serif" font-size="10.00">/Enums/ConditionFunctionEnum.hpp</text>
</a>
</g>
</g>
<!-- Node12&#45;&gt;Node23 -->
<g id="edge26_Node000012_Node000023" class="edge">
<title>Node12&#45;&gt;Node23</title>
<g id="a_edge26_Node000012_Node000023"><a xlink:title=" ">
<path fill="none" stroke="#63b8ff" d="M2086.27,-144.8C2310.64,-140.28 3077.31,-123.18 3321,-96 3329.93,-95 3339.24,-93.69 3348.47,-92.2"/>
<polygon fill="#63b8ff" stroke="#63b8ff" points="3349.15,-95.64 3358.44,-90.54 3348,-88.74 3349.15,-95.64"/>
</a>
</g>
</g>
<!-- Node25 -->
<g id="Node000025" class="node">
<title>Node25</title>
<g id="a_Node000025"><a xlink:href="_encrypt_status_enum_8hpp.html" target="_top" xlink:title=" ">
<polygon fill="white" stroke="#666666" points="4093,-90.5 3921,-90.5 3921,-60.5 4093,-60.5 4093,-90.5"/>
<text text-anchor="start" x="3929" y="-78.5" font-family="Helvetica,sans-Serif" font-size="10.00">Hermes/_base/WinApi</text>
<text text-anchor="middle" x="4007" y="-67.5" font-family="Helvetica,sans-Serif" font-size="10.00">/Enums/EncryptStatusEnum.hpp</text>
</a>
</g>
</g>
<!-- Node12&#45;&gt;Node25 -->
<g id="edge28_Node000012_Node000025" class="edge">
<title>Node12&#45;&gt;Node25</title>
<g id="a_edge28_Node000012_Node000025"><a xlink:title=" ">
<path fill="none" stroke="#63b8ff" d="M2086.11,-145.82C2370.06,-144.8 3546.35,-138.04 3912,-96 3920.03,-95.08 3928.38,-93.82 3936.66,-92.37"/>
<polygon fill="#63b8ff" stroke="#63b8ff" points="3937.49,-95.78 3946.7,-90.54 3936.23,-88.89 3937.49,-95.78"/>
</a>
</g>
</g>
<!-- Node27 -->
<g id="Node000027" class="node">
<title>Node27</title>
<g id="a_Node000027"><a xlink:href="_protocol_base_type_enum_8hpp.html" target="_top" xlink:title=" ">
<polygon fill="white" stroke="#666666" points="3311.5,-90.5 3120.5,-90.5 3120.5,-60.5 3311.5,-60.5 3311.5,-90.5"/>
<text text-anchor="start" x="3128.5" y="-78.5" font-family="Helvetica,sans-Serif" font-size="10.00">Hermes/_base/WinApi</text>
<text text-anchor="middle" x="3216" y="-67.5" font-family="Helvetica,sans-Serif" font-size="10.00">/Enums/ProtocolBaseTypeEnum.hpp</text>
</a>
</g>
</g>
<!-- Node12&#45;&gt;Node27 -->
<g id="edge30_Node000012_Node000027" class="edge">
<title>Node12&#45;&gt;Node27</title>
<g id="a_edge30_Node000012_Node000027"><a xlink:title=" ">
<path fill="none" stroke="#63b8ff" d="M2086.13,-146.13C2252.72,-145.83 2722.99,-140.74 3111,-96 3119.86,-94.98 3129.1,-93.65 3138.26,-92.17"/>
<polygon fill="#63b8ff" stroke="#63b8ff" points="3138.86,-95.62 3148.15,-90.51 3137.7,-88.72 3138.86,-95.62"/>
</a>
</g>
</g>
<!-- Node28 -->
<g id="Node000028" class="node">
<title>Node28</title>
<g id="a_Node000028"><a xlink:href="_s_ch_cred_enum_8hpp.html" target="_top" xlink:title=" ">
<polygon fill="white" stroke="#666666" points="1081,-90.5 935,-90.5 935,-60.5 1081,-60.5 1081,-90.5"/>
<text text-anchor="start" x="943" y="-78.5" font-family="Helvetica,sans-Serif" font-size="10.00">Hermes/_base/WinApi</text>
<text text-anchor="middle" x="1008" y="-67.5" font-family="Helvetica,sans-Serif" font-size="10.00">/Enums/SChCredEnum.hpp</text>
</a>
</g>
</g>
<!-- Node12&#45;&gt;Node28 -->
<g id="edge32_Node000012_Node000028" class="edge">
<title>Node12&#45;&gt;Node28</title>
<g id="a_edge32_Node000012_Node000028"><a xlink:title=" ">
<path fill="none" stroke="#63b8ff" d="M1961.87,-146.52C1811.41,-146.95 1415.85,-143.08 1090,-96 1083.82,-95.11 1077.43,-93.97 1071.06,-92.7"/>
<polygon fill="#63b8ff" stroke="#63b8ff" points="1071.61,-89.24 1061.1,-90.6 1070.17,-96.09 1071.61,-89.24"/>
</a>
</g>
</g>
<!-- Node29 -->
<g id="Node000029" class="node">
<title>Node29</title>
<g id="a_Node000029"><a xlink:href="_security_buffer_enum_8hpp.html" target="_top" xlink:title=" ">
<polygon fill="white" stroke="#666666" points="1844.5,-90.5 1671.5,-90.5 1671.5,-60.5 1844.5,-60.5 1844.5,-90.5"/>
<text text-anchor="start" x="1679.5" y="-78.5" font-family="Helvetica,sans-Serif" font-size="10.00">Hermes/_base/WinApi</text>
<text text-anchor="middle" x="1758" y="-67.5" font-family="Helvetica,sans-Serif" font-size="10.00">/Enums/SecurityBufferEnum.hpp</text>
</a>
</g>
</g>
<!-- Node12&#45;&gt;Node29 -->
<g id="edge34_Node000012_Node000029" class="edge">
<title>Node12&#45;&gt;Node29</title>
<g id="a_edge34_Node000012_Node000029"><a xlink:title=" ">
<path fill="none" stroke="#63b8ff" d="M1970.17,-131.94C1927.18,-120.7 1866.83,-104.93 1821.48,-93.09"/>
<polygon fill="#63b8ff" stroke="#63b8ff" points="1822.31,-89.69 1811.75,-90.54 1820.54,-96.46 1822.31,-89.69"/>
</a>
</g>
</g>
<!-- Node30 -->
<g id="Node000030" class="node">
<title>Node30</title>
<g id="a_Node000030"><a xlink:href="_socket_shutdown_enum_8hpp.html" target="_top" xlink:title=" ">
<polygon fill="white" stroke="#666666" points="3725.5,-90.5 3540.5,-90.5 3540.5,-60.5 3725.5,-60.5 3725.5,-90.5"/>
<text text-anchor="start" x="3548.5" y="-78.5" font-family="Helvetica,sans-Serif" font-size="10.00">Hermes/_base/WinApi</text>
<text text-anchor="middle" x="3633" y="-67.5" font-family="Helvetica,sans-Serif" font-size="10.00">/Enums/SocketShutdownEnum.hpp</text>
</a>
</g>
</g>
<!-- Node12&#45;&gt;Node30 -->
<g id="edge36_Node000012_Node000030" class="edge">
<title>Node12&#45;&gt;Node30</title>
<g id="a_edge36_Node000012_Node000030"><a xlink:title=" ">
<path fill="none" stroke="#63b8ff" d="M2086.35,-145.23C2333.43,-141.96 3244.17,-127.98 3531,-96 3539.72,-95.03 3548.82,-93.72 3557.82,-92.24"/>
<polygon fill="#63b8ff" stroke="#63b8ff" points="3558.67,-95.65 3567.93,-90.5 3557.49,-88.75 3558.67,-95.65"/>
</a>
</g>
</g>
<!-- Node31 -->
<g id="Node000031" class="node">
<title>Node31</title>
<g id="a_Node000031"><a xlink:href="_socket_type_enum_8hpp.html" target="_top" xlink:title=" ">
<polygon fill="white" stroke="#666666" points="3902.5,-90.5 3743.5,-90.5 3743.5,-60.5 3902.5,-60.5 3902.5,-90.5"/>
<text text-anchor="start" x="3751.5" y="-78.5" font-family="Helvetica,sans-Serif" font-size="10.00">Hermes/_base/WinApi</text>
<text text-anchor="middle" x="3823" y="-67.5" font-family="Helvetica,sans-Serif" font-size="10.00">/Enums/SocketTypeEnum.hpp</text>
</a>
</g>
</g>
<!-- Node12&#45;&gt;Node31 -->
<g id="edge38_Node000012_Node000031" class="edge">
<title>Node12&#45;&gt;Node31</title>
<g id="a_edge38_Node000012_Node000031"><a xlink:title=" ">
<path fill="none" stroke="#63b8ff" d="M2086.02,-145.76C2353.09,-144.47 3406.36,-136.84 3735,-96 3742.15,-95.11 3749.58,-93.91 3756.95,-92.54"/>
<polygon fill="#63b8ff" stroke="#63b8ff" points="3757.8,-95.94 3766.94,-90.58 3756.45,-89.07 3757.8,-95.94"/>
</a>
</g>
</g>
<!-- Node32 -->
<g id="Node000032" class="node">
<title>Node32</title>
<g id="a_Node000032"><a xlink:href="_credential_flags_8hpp.html" target="_top" xlink:title=" ">
<polygon fill="white" stroke="#666666" points="2009,-90.5 1863,-90.5 1863,-60.5 2009,-60.5 2009,-90.5"/>
<text text-anchor="start" x="1871" y="-78.5" font-family="Helvetica,sans-Serif" font-size="10.00">Hermes/_base/WinApi</text>
<text text-anchor="middle" x="1936" y="-67.5" font-family="Helvetica,sans-Serif" font-size="10.00">/Flags/CredentialFlags.hpp</text>
</a>
</g>
</g>
<!-- Node12&#45;&gt;Node32 -->
<g id="edge40_Node000012_Node000032" class="edge">
<title>Node12&#45;&gt;Node32</title>
<g id="a_edge40_Node000012_Node000032"><a xlink:title=" ">
<path fill="none" stroke="#63b8ff" d="M2006.19,-131.94C1993.43,-121.86 1976.04,-108.13 1961.77,-96.85"/>
<polygon fill="#63b8ff" stroke="#63b8ff" points="1963.8,-93.99 1953.78,-90.54 1959.46,-99.49 1963.8,-93.99"/>
</a>
</g>
</g>
<!-- Node33 -->
<g id="Node000033" class="node">
<title>Node33</title>
<g id="a_Node000033"><a xlink:href="_supported_protocols_flags_8hpp.html" target="_top" xlink:title=" ">
<polygon fill="white" stroke="#666666" points="1290.5,-90.5 1099.5,-90.5 1099.5,-60.5 1290.5,-60.5 1290.5,-90.5"/>
<text text-anchor="start" x="1107.5" y="-78.5" font-family="Helvetica,sans-Serif" font-size="10.00">Hermes/_base/WinApi</text>
<text text-anchor="middle" x="1195" y="-67.5" font-family="Helvetica,sans-Serif" font-size="10.00">/Flags/SupportedProtocolsFlags.hpp</text>
</a>
</g>
</g>
<!-- Node12&#45;&gt;Node33 -->
<g id="edge42_Node000012_Node000033" class="edge">
<title>Node12&#45;&gt;Node33</title>
<g id="a_edge42_Node000012_Node000033"><a xlink:title=" ">
<path fill="none" stroke="#63b8ff" d="M1961.78,-144.11C1836.23,-139.76 1543.73,-126.94 1300,-96 1291.67,-94.94 1283,-93.65 1274.38,-92.24"/>
<polygon fill="#63b8ff" stroke="#63b8ff" points="1274.74,-88.75 1264.29,-90.53 1273.57,-95.65 1274.74,-88.75"/>
</a>
</g>
</g>
<!-- Node34 -->
<g id="Node000034" class="node">
<title>Node34</title>
<g id="a_Node000034"><a xlink:href="_initialize_security_context_flags_8hpp.html" target="_top" xlink:title=" ">
<polygon fill="white" stroke="#666666" points="2196.5,-96 2027.5,-96 2027.5,-55 2196.5,-55 2196.5,-96"/>
<text text-anchor="start" x="2035.5" y="-84" font-family="Helvetica,sans-Serif" font-size="10.00">Hermes/_base/WinApi</text>
<text text-anchor="start" x="2035.5" y="-73" font-family="Helvetica,sans-Serif" font-size="10.00">/Flags/InitializeSecurityContext</text>
<text text-anchor="middle" x="2112" y="-62" font-family="Helvetica,sans-Serif" font-size="10.00">Flags.hpp</text>
</a>
</g>
</g>
<!-- Node12&#45;&gt;Node34 -->
<g id="edge44_Node000012_Node000034" class="edge">
<title>Node12&#45;&gt;Node34</title>
<g id="a_edge44_Node000012_Node000034"><a xlink:title=" ">
<path fill="none" stroke="#63b8ff" d="M2041.81,-131.94C2052.52,-123.48 2066.49,-112.44 2079.14,-102.45"/>
<polygon fill="#63b8ff" stroke="#63b8ff" points="2081.54,-105.02 2087.22,-96.07 2077.2,-99.52 2081.54,-105.02"/>
</a>
</g>
</g>
<!-- Node35 -->
<g id="Node000035" class="node">
<title>Node35</title>
<g id="a_Node000035"><a xlink:href="_initialize_security_context_return_flags_8hpp.html" target="_top" xlink:title=" ">
<polygon fill="white" stroke="#666666" points="2383.5,-96 2214.5,-96 2214.5,-55 2383.5,-55 2383.5,-96"/>
<text text-anchor="start" x="2222.5" y="-84" font-family="Helvetica,sans-Serif" font-size="10.00">Hermes/_base/WinApi</text>
<text text-anchor="start" x="2222.5" y="-73" font-family="Helvetica,sans-Serif" font-size="10.00">/Flags/InitializeSecurityContext</text>
<text text-anchor="middle" x="2299" y="-62" font-family="Helvetica,sans-Serif" font-size="10.00">ReturnFlags.hpp</text>
</a>
</g>
</g>
<!-- Node12&#45;&gt;Node35 -->
<g id="edge46_Node000012_Node000035" class="edge">
<title>Node12&#45;&gt;Node35</title>
<g id="a_edge46_Node000012_Node000035"><a xlink:title=" ">
<path fill="none" stroke="#63b8ff" d="M2079.65,-131.94C2117.58,-122.35 2168.57,-109.46 2211.85,-98.53"/>
<polygon fill="#63b8ff" stroke="#63b8ff" points="2212.97,-101.85 2221.81,-96.01 2211.26,-95.06 2212.97,-101.85"/>
</a>
</g>
</g>
<!-- Node36 -->
<g id="Node000036" class="node">
<title>Node36</title>
<g id="a_Node000036"><a xlink:href="_accept_security_context_flags_8hpp.html" target="_top" xlink:title=" ">
<polygon fill="white" stroke="#666666" points="2562,-96 2402,-96 2402,-55 2562,-55 2562,-96"/>
<text text-anchor="start" x="2410" y="-84" font-family="Helvetica,sans-Serif" font-size="10.00">Hermes/_base/WinApi</text>
<text text-anchor="start" x="2410" y="-73" font-family="Helvetica,sans-Serif" font-size="10.00">/Flags/AcceptSecurityContext</text>
<text text-anchor="middle" x="2482" y="-62" font-family="Helvetica,sans-Serif" font-size="10.00">Flags.hpp</text>
</a>
</g>
</g>
<!-- Node12&#45;&gt;Node36 -->
<g id="edge48_Node000012_Node000036" class="edge">
<title>Node12&#45;&gt;Node36</title>
<g id="a_edge48_Node000012_Node000036"><a xlink:title=" ">
<path fill="none" stroke="#63b8ff" d="M2086.26,-139.12C2157.73,-130.88 2278.65,-115.87 2391.67,-96.17"/>
<polygon fill="#63b8ff" stroke="#63b8ff" points="2392.29,-99.62 2401.53,-94.44 2391.07,-92.72 2392.29,-99.62"/>
</a>
</g>
</g>
<!-- Node37 -->
<g id="Node000037" class="node">
<title>Node37</title>
<g id="a_Node000037"><a xlink:href="_accept_security_context_return_flags_8hpp.html" target="_top" xlink:title=" ">
<polygon fill="white" stroke="#666666" points="2740,-96 2580,-96 2580,-55 2740,-55 2740,-96"/>
<text text-anchor="start" x="2588" y="-84" font-family="Helvetica,sans-Serif" font-size="10.00">Hermes/_base/WinApi</text>
<text text-anchor="start" x="2588" y="-73" font-family="Helvetica,sans-Serif" font-size="10.00">/Flags/AcceptSecurityContext</text>
<text text-anchor="middle" x="2660" y="-62" font-family="Helvetica,sans-Serif" font-size="10.00">ReturnFlags.hpp</text>
</a>
</g>
</g>
<!-- Node12&#45;&gt;Node37 -->
<g id="edge50_Node000012_Node000037" class="edge">
<title>Node12&#45;&gt;Node37</title>
<g id="a_edge50_Node000012_Node000037"><a xlink:title=" ">
<path fill="none" stroke="#63b8ff" d="M2086.24,-142.84C2186.23,-137.21 2388.92,-123.5 2569.6,-96.12"/>
<polygon fill="#63b8ff" stroke="#63b8ff" points="2570.2,-99.57 2579.55,-94.6 2569.14,-92.65 2570.2,-99.57"/>
</a>
</g>
</g>
<!-- Node38 -->
<g id="Node000038" class="node">
<title>Node38</title>
<g id="a_Node000038"><a xlink:href="_s_channel_cred_flags_8hpp.html" target="_top" xlink:title=" ">
<polygon fill="white" stroke="#666666" points="1473,-90.5 1309,-90.5 1309,-60.5 1473,-60.5 1473,-90.5"/>
<text text-anchor="start" x="1317" y="-78.5" font-family="Helvetica,sans-Serif" font-size="10.00">Hermes/_base/WinApi</text>
<text text-anchor="middle" x="1391" y="-67.5" font-family="Helvetica,sans-Serif" font-size="10.00">/Flags/SChannelCredFlags.hpp</text>
</a>
</g>
</g>
<!-- Node12&#45;&gt;Node38 -->
<g id="edge52_Node000012_Node000038" class="edge">
<title>Node12&#45;&gt;Node38</title>
<g id="a_edge52_Node000012_Node000038"><a xlink:title=" ">
<path fill="none" stroke="#63b8ff" d="M1961.93,-142.69C1860.91,-136.75 1654.82,-122.39 1482,-96 1475.35,-94.98 1468.45,-93.78 1461.56,-92.48"/>
<polygon fill="#63b8ff" stroke="#63b8ff" points="1462,-89 1451.51,-90.52 1460.65,-95.87 1462,-89"/>
</a>
</g>
</g>
<!-- Node18 -->
<g id="Node000018" class="node">
<title>Node18</title>
<g id="a_Node000018"><a xlink:title=" ">
<polygon fill="#e0e0e0" stroke="#999999" points="2858,-19 2808,-19 2808,0 2858,0 2858,-19"/>
<text text-anchor="middle" x="2833" y="-7" font-family="Helvetica,sans-Serif" font-size="10.00">cstdint</text>
</a>
</g>
</g>
<!-- Node17&#45;&gt;Node18 -->
<g id="edge18_Node000017_Node000018" class="edge">
<title>Node17&#45;&gt;Node18</title>
<g id="a_edge18_Node000017_Node000018"><a xlink:title=" ">
<path fill="none" stroke="#63b8ff" d="M2833,-60.3C2833,-51.2 2833,-39.29 2833,-29.4"/>
<polygon fill="#63b8ff" stroke="#63b8ff" points="2836.5,-29.34 2833,-19.34 2829.5,-29.34 2836.5,-29.34"/>
</a>
</g>
</g>
<!-- Node19&#45;&gt;Node14 -->
<g id="edge21_Node000019_Node000014" class="edge">
<title>Node19&#45;&gt;Node14</title>
<g id="a_edge21_Node000019_Node000014"><a xlink:title=" ">
<path fill="none" stroke="#63b8ff" d="M1506.3,-60.41C1498.25,-58.34 1489.92,-56.43 1482,-55 1396.51,-39.54 1138.88,-20.8 1033.59,-13.56"/>
<polygon fill="#63b8ff" stroke="#63b8ff" points="1033.8,-10.07 1023.59,-12.88 1033.32,-17.05 1033.8,-10.07"/>
</a>
</g>
</g>
<!-- Node19&#45;&gt;Node15 -->
<g id="edge22_Node000019_Node000015" class="edge">
<title>Node19&#45;&gt;Node15</title>
<g id="a_edge22_Node000019_Node000015"><a xlink:title=" ">
<path fill="none" stroke="#63b8ff" d="M1504.68,-60.44C1497.12,-58.47 1489.37,-56.58 1482,-55 1397.06,-36.81 1296.47,-22.95 1239.76,-15.83"/>
<polygon fill="#63b8ff" stroke="#63b8ff" points="1240.05,-12.34 1229.69,-14.58 1239.18,-19.29 1240.05,-12.34"/>
</a>
</g>
</g>
<!-- Node19&#45;&gt;Node16 -->
<g id="edge23_Node000019_Node000016" class="edge">
<title>Node19&#45;&gt;Node16</title>
<g id="a_edge23_Node000019_Node000016"><a xlink:title=" ">
<path fill="none" stroke="#63b8ff" d="M1603.89,-60.41C1612.23,-58.39 1620.83,-56.5 1629,-55 1762.04,-30.56 1922.92,-17.46 1991.01,-12.66"/>
<polygon fill="#63b8ff" stroke="#63b8ff" points="1991.39,-16.14 2001.13,-11.96 1990.91,-9.16 1991.39,-16.14"/>
</a>
</g>
</g>
<!-- Node20 -->
<g id="Node000020" class="node">
<title>Node20</title>
<g id="a_Node000020"><a xlink:title=" ">
<polygon fill="#e0e0e0" stroke="#999999" points="1589.5,-19 1516.5,-19 1516.5,0 1589.5,0 1589.5,-19"/>
<text text-anchor="middle" x="1553" y="-7" font-family="Helvetica,sans-Serif" font-size="10.00">string_view</text>
</a>
</g>
</g>
<!-- Node19&#45;&gt;Node20 -->
<g id="edge20_Node000019_Node000020" class="edge">
<title>Node19&#45;&gt;Node20</title>
<g id="a_edge20_Node000019_Node000020"><a xlink:title=" ">
<path fill="none" stroke="#63b8ff" d="M1553,-60.3C1553,-51.2 1553,-39.29 1553,-29.4"/>
<polygon fill="#63b8ff" stroke="#63b8ff" points="1556.5,-29.34 1553,-19.34 1549.5,-29.34 1556.5,-29.34"/>
</a>
</g>
</g>
<!-- Node22 -->
<g id="Node000022" class="node">
<title>Node22</title>
<g id="a_Node000022"><a xlink:title=" ">
<polygon fill="#e0e0e0" stroke="#999999" points="3145,-19 3085,-19 3085,0 3145,0 3145,-19"/>
<text text-anchor="middle" x="3115" y="-7" font-family="Helvetica,sans-Serif" font-size="10.00">ws2def.h</text>
</a>
</g>
</g>
<!-- Node21&#45;&gt;Node22 -->
<g id="edge25_Node000021_Node000022" class="edge">
<title>Node21&#45;&gt;Node22</title>
<g id="a_edge25_Node000021_Node000022"><a xlink:title=" ">
<path fill="none" stroke="#63b8ff" d="M3036.42,-60.3C3053.19,-49.67 3076.01,-35.2 3092.75,-24.6"/>
<polygon fill="#63b8ff" stroke="#63b8ff" points="3094.76,-27.47 3101.34,-19.16 3091.02,-21.55 3094.76,-27.47"/>
</a>
</g>
</g>
<!-- Node24 -->
<g id="Node000024" class="node">
<title>Node24</title>
<g id="a_Node000024"><a xlink:title=" ">
<polygon fill="#e0e0e0" stroke="#999999" points="3670,-19 3596,-19 3596,0 3670,0 3670,-19"/>
<text text-anchor="middle" x="3633" y="-7" font-family="Helvetica,sans-Serif" font-size="10.00">WinSock2.h</text>
</a>
</g>
</g>
<!-- Node23&#45;&gt;Node24 -->
<g id="edge27_Node000023_Node000024" class="edge">
<title>Node23&#45;&gt;Node24</title>
<g id="a_edge27_Node000023_Node000024"><a xlink:title=" ">
<path fill="none" stroke="#63b8ff" d="M3471.43,-60.45C3508.69,-48.93 3560.8,-32.82 3595.66,-22.04"/>
<polygon fill="#63b8ff" stroke="#63b8ff" points="3596.93,-25.32 3605.45,-19.02 3594.86,-18.63 3596.93,-25.32"/>
</a>
</g>
</g>
<!-- Node26 -->
<g id="Node000026" class="node">
<title>Node26</title>
<g id="a_Node000026"><a xlink:title=" ">
<polygon fill="#e0e0e0" stroke="#999999" points="4039.5,-19 3974.5,-19 3974.5,0 4039.5,0 4039.5,-19"/>
<text text-anchor="middle" x="4007" y="-7" font-family="Helvetica,sans-Serif" font-size="10.00">winerror.h</text>
</a>
</g>
</g>
<!-- Node25&#45;&gt;Node26 -->
<g id="edge29_Node000025_Node000026" class="edge">
<title>Node25&#45;&gt;Node26</title>
<g id="a_edge29_Node000025_Node000026"><a xlink:title=" ">
<path fill="none" stroke="#63b8ff" d="M4007,-60.3C4007,-51.2 4007,-39.29 4007,-29.4"/>
<polygon fill="#63b8ff" stroke="#63b8ff" points="4010.5,-29.34 4007,-19.34 4003.5,-29.34 4010.5,-29.34"/>
</a>
</g>
</g>
<!-- Node27&#45;&gt;Node22 -->
<g id="edge31_Node000027_Node000022" class="edge">
<title>Node27&#45;&gt;Node22</title>
<g id="a_edge31_Node000027_Node000022"><a xlink:title=" ">
<path fill="none" stroke="#63b8ff" d="M3193.58,-60.3C3176.81,-49.67 3153.99,-35.2 3137.25,-24.6"/>
<polygon fill="#63b8ff" stroke="#63b8ff" points="3138.98,-21.55 3128.66,-19.16 3135.24,-27.47 3138.98,-21.55"/>
</a>
</g>
</g>
<!-- Node28&#45;&gt;Node15 -->
<g id="edge33_Node000028_Node000015" class="edge">
<title>Node28&#45;&gt;Node15</title>
<g id="a_edge33_Node000028_Node000015"><a xlink:title=" ">
<path fill="none" stroke="#63b8ff" d="M1049.04,-60.45C1082.41,-49.03 1128.97,-33.1 1160.46,-22.32"/>
<polygon fill="#63b8ff" stroke="#63b8ff" points="1161.79,-25.57 1170.11,-19.02 1159.52,-18.94 1161.79,-25.57"/>
</a>
</g>
</g>
<!-- Node29&#45;&gt;Node16 -->
<g id="edge35_Node000029_Node000016" class="edge">
<title>Node29&#45;&gt;Node16</title>
<g id="a_edge35_Node000029_Node000016"><a xlink:title=" ">
<path fill="none" stroke="#63b8ff" d="M1816.37,-60.45C1870.18,-47.51 1948.07,-28.77 1991.54,-18.31"/>
<polygon fill="#63b8ff" stroke="#63b8ff" points="1992.4,-21.7 2001.3,-15.96 1990.76,-14.9 1992.4,-21.7"/>
</a>
</g>
</g>
<!-- Node30&#45;&gt;Node24 -->
<g id="edge37_Node000030_Node000024" class="edge">
<title>Node30&#45;&gt;Node24</title>
<g id="a_edge37_Node000030_Node000024"><a xlink:title=" ">
<path fill="none" stroke="#63b8ff" d="M3633,-60.3C3633,-51.2 3633,-39.29 3633,-29.4"/>
<polygon fill="#63b8ff" stroke="#63b8ff" points="3636.5,-29.34 3633,-19.34 3629.5,-29.34 3636.5,-29.34"/>
</a>
</g>
</g>
<!-- Node31&#45;&gt;Node24 -->
<g id="edge39_Node000031_Node000024" class="edge">
<title>Node31&#45;&gt;Node24</title>
<g id="a_edge39_Node000031_Node000024"><a xlink:title=" ">
<path fill="none" stroke="#63b8ff" d="M3781.3,-60.45C3747.4,-49.03 3700.09,-33.1 3668.1,-22.32"/>
<polygon fill="#63b8ff" stroke="#63b8ff" points="3668.88,-18.89 3658.29,-19.02 3666.65,-25.53 3668.88,-18.89"/>
</a>
</g>
</g>
<!-- Node32&#45;&gt;Node16 -->
<g id="edge41_Node000032_Node000016" class="edge">
<title>Node32&#45;&gt;Node16</title>
<g id="a_edge41_Node000032_Node000016"><a xlink:title=" ">
<path fill="none" stroke="#63b8ff" d="M1955.53,-60.3C1969.87,-49.87 1989.3,-35.74 2003.79,-25.19"/>
<polygon fill="#63b8ff" stroke="#63b8ff" points="2006.07,-27.87 2012.09,-19.16 2001.95,-22.21 2006.07,-27.87"/>
</a>
</g>
</g>
<!-- Node33&#45;&gt;Node15 -->
<g id="edge43_Node000033_Node000015" class="edge">
<title>Node33&#45;&gt;Node15</title>
<g id="a_edge43_Node000033_Node000015"><a xlink:title=" ">
<path fill="none" stroke="#63b8ff" d="M1195,-60.3C1195,-51.2 1195,-39.29 1195,-29.4"/>
<polygon fill="#63b8ff" stroke="#63b8ff" points="1198.5,-29.34 1195,-19.34 1191.5,-29.34 1198.5,-29.34"/>
</a>
</g>
</g>
<!-- Node34&#45;&gt;Node16 -->
<g id="edge45_Node000034_Node000016" class="edge">
<title>Node34&#45;&gt;Node16</title>
<g id="a_edge45_Node000034_Node000016"><a xlink:title=" ">
<path fill="none" stroke="#63b8ff" d="M2085.12,-54.95C2071.94,-45.37 2056.34,-34.02 2044.19,-25.19"/>
<polygon fill="#63b8ff" stroke="#63b8ff" points="2046.19,-22.31 2036.05,-19.26 2042.07,-27.97 2046.19,-22.31"/>
</a>
</g>
</g>
<!-- Node35&#45;&gt;Node16 -->
<g id="edge47_Node000035_Node000016" class="edge">
<title>Node35&#45;&gt;Node16</title>
<g id="a_edge47_Node000035_Node000016"><a xlink:title=" ">
<path fill="none" stroke="#63b8ff" d="M2215,-54.95C2161.72,-42.55 2095.75,-27.2 2056.93,-18.16"/>
<polygon fill="#63b8ff" stroke="#63b8ff" points="2057.27,-14.65 2046.73,-15.79 2055.68,-21.47 2057.27,-14.65"/>
</a>
</g>
</g>
<!-- Node36&#45;&gt;Node16 -->
<g id="edge49_Node000036_Node000016" class="edge">
<title>Node36&#45;&gt;Node16</title>
<g id="a_edge49_Node000036_Node000016"><a xlink:title=" ">
<path fill="none" stroke="#63b8ff" d="M2401.54,-56.51C2398.66,-55.98 2395.81,-55.48 2393,-55 2269.46,-34.07 2121.02,-19.29 2056.54,-13.37"/>
<polygon fill="#63b8ff" stroke="#63b8ff" points="2056.85,-9.88 2046.57,-12.46 2056.21,-16.85 2056.85,-9.88"/>
</a>
</g>
</g>
<!-- Node37&#45;&gt;Node16 -->
<g id="edge51_Node000037_Node000016" class="edge">
<title>Node37&#45;&gt;Node16</title>
<g id="a_edge51_Node000037_Node000016"><a xlink:title=" ">
<path fill="none" stroke="#63b8ff" d="M2579.56,-56.37C2576.68,-55.88 2573.82,-55.42 2571,-55 2377.16,-26.02 2141.66,-14.88 2056.6,-11.62"/>
<polygon fill="#63b8ff" stroke="#63b8ff" points="2056.65,-8.12 2046.53,-11.25 2056.39,-15.12 2056.65,-8.12"/>
</a>
</g>
</g>
<!-- Node38&#45;&gt;Node15 -->
<g id="edge53_Node000038_Node000015" class="edge">
<title>Node38&#45;&gt;Node15</title>
<g id="a_edge53_Node000038_Node000015"><a xlink:title=" ">
<path fill="none" stroke="#63b8ff" d="M1347.99,-60.45C1312.86,-48.98 1263.79,-32.96 1230.78,-22.18"/>
<polygon fill="#63b8ff" stroke="#63b8ff" points="1231.68,-18.79 1221.08,-19.02 1229.5,-25.45 1231.68,-18.79"/>
</a>
</g>
</g>
</g>
</svg>
