<?xml version="1.0" encoding="UTF-8" standalone="no"?>
<!DOCTYPE svg PUBLIC "-//W3C//DTD SVG 1.1//EN"
 "http://www.w3.org/Graphics/SVG/1.1/DTD/svg11.dtd">
<!-- Generated by graphviz version 2.43.0 (0)
 -->
<!-- Title: include/Hermes/Utils/ToBytes.hpp Pages: 1 -->
<svg width="4169pt" height="357pt"
 viewBox="0.00 0.00 4169.00 357.00" xmlns="http://www.w3.org/2000/svg" xmlns:xlink="http://www.w3.org/1999/xlink">
<g id="graph0" class="graph" transform="scale(1 1) rotate(0) translate(4 353)">
<title>include/Hermes/Utils/ToBytes.hpp</title>
<!-- Node1 -->
<g id="Node000001" class="node">
<title>Node1</title>
<g id="a_Node000001"><a xlink:title=" ">
<polygon fill="#999999" stroke="#666666" points="295.5,-349 176.5,-349 176.5,-319 295.5,-319 295.5,-349"/>
<text text-anchor="start" x="184.5" y="-337" font-family="Helvetica,sans-Serif" font-size="10.00">include/Hermes/Utils</text>
<text text-anchor="middle" x="236" y="-326" font-family="Helvetica,sans-Serif" font-size="10.00">/ToBytes.hpp</text>
</a>
</g>
</g>
<!-- Node2 -->
<g id="Node000002" class="node">
<title>Node2</title>
<g id="a_Node000002"><a xlink:title=" ">
<polygon fill="#e0e0e0" stroke="#999999" points="40,-85 0,-85 0,-66 40,-66 40,-85"/>
<text text-anchor="middle" x="20" y="-73" font-family="Helvetica,sans-Serif" font-size="10.00">span</text>
</a>
</g>
</g>
<!-- Node1&#45;&gt;Node2 -->
<g id="edge1_Node000001_Node000002" class="edge">
<title>Node1&#45;&gt;Node2</title>
<g id="a_edge1_Node000001_Node000002"><a xlink:title=" ">
<path fill="none" stroke="#63b8ff" d="M224.08,-318.84C186.95,-274.75 73.47,-140 33.84,-92.93"/>
<polygon fill="#63b8ff" stroke="#63b8ff" points="36.45,-90.6 27.33,-85.21 31.1,-95.11 36.45,-90.6"/>
</a>
</g>
</g>
<!-- Node3 -->
<g id="Node000003" class="node">
<title>Node3</title>
<g id="a_Node000003"><a xlink:href="__base_8hpp.html" target="_top" xlink:title=" ">
<polygon fill="white" stroke="#666666" points="510.5,-283 367.5,-283 367.5,-264 510.5,-264 510.5,-283"/>
<text text-anchor="middle" x="439" y="-271" font-family="Helvetica,sans-Serif" font-size="10.00">Hermes/Socket/_base.hpp</text>
</a>
</g>
</g>
<!-- Node1&#45;&gt;Node3 -->
<g id="edge2_Node000001_Node000003" class="edge">
<title>Node1&#45;&gt;Node3</title>
<g id="a_edge2_Node000001_Node000003"><a xlink:title=" ">
<path fill="none" stroke="#63b8ff" d="M284.62,-318.99C319.81,-308.85 366.76,-295.32 399.6,-285.85"/>
<polygon fill="#63b8ff" stroke="#63b8ff" points="400.68,-289.19 409.32,-283.05 398.74,-282.46 400.68,-289.19"/>
</a>
</g>
</g>
<!-- Node4 -->
<g id="Node000004" class="node">
<title>Node4</title>
<g id="a_Node000004"><a xlink:href="_endpoint_concept_8hpp.html" target="_top" xlink:title=" ">
<polygon fill="white" stroke="#666666" points="458,-228 326,-228 326,-198 458,-198 458,-228"/>
<text text-anchor="start" x="334" y="-216" font-family="Helvetica,sans-Serif" font-size="10.00">Hermes/Endpoint/_base</text>
<text text-anchor="middle" x="392" y="-205" font-family="Helvetica,sans-Serif" font-size="10.00">/EndpointConcept.hpp</text>
</a>
</g>
</g>
<!-- Node3&#45;&gt;Node4 -->
<g id="edge3_Node000003_Node000004" class="edge">
<title>Node3&#45;&gt;Node4</title>
<g id="a_edge3_Node000003_Node000004"><a xlink:title=" ">
<path fill="none" stroke="#63b8ff" d="M432.06,-263.87C426.22,-256.59 417.59,-245.85 409.84,-236.2"/>
<polygon fill="#63b8ff" stroke="#63b8ff" points="412.33,-233.72 403.34,-228.11 406.87,-238.1 412.33,-233.72"/>
</a>
</g>
</g>
<!-- Node5 -->
<g id="Node000005" class="node">
<title>Node5</title>
<g id="a_Node000005"><a xlink:href="_connection_error_enum_8hpp.html" target="_top" xlink:title=" ">
<polygon fill="white" stroke="#666666" points="381.5,-162 214.5,-162 214.5,-132 381.5,-132 381.5,-162"/>
<text text-anchor="start" x="222.5" y="-150" font-family="Helvetica,sans-Serif" font-size="10.00">Hermes/_base/ConnectionError</text>
<text text-anchor="middle" x="298" y="-139" font-family="Helvetica,sans-Serif" font-size="10.00">Enum.hpp</text>
</a>
</g>
</g>
<!-- Node3&#45;&gt;Node5 -->
<g id="edge55_Node000003_Node000005" class="edge">
<title>Node3&#45;&gt;Node5</title>
<g id="a_edge55_Node000003_Node000005"><a xlink:title=" ">
<path fill="none" stroke="#63b8ff" d="M382.24,-263.92C359.01,-257.64 333.71,-246.78 317,-228 303.48,-212.81 299.13,-189.76 297.92,-172.29"/>
<polygon fill="#63b8ff" stroke="#63b8ff" points="301.42,-172.12 297.52,-162.26 294.42,-172.39 301.42,-172.12"/>
</a>
</g>
</g>
<!-- Node9 -->
<g id="Node000009" class="node">
<title>Node9</title>
<g id="a_Node000009"><a xlink:title=" ">
<polygon fill="#e0e0e0" stroke="#999999" points="753.5,-85 628.5,-85 628.5,-66 753.5,-66 753.5,-85"/>
<text text-anchor="middle" x="691" y="-73" font-family="Helvetica,sans-Serif" font-size="10.00">stdexec/execution.hpp</text>
</a>
</g>
</g>
<!-- Node3&#45;&gt;Node9 -->
<g id="edge56_Node000003_Node000009" class="edge">
<title>Node3&#45;&gt;Node9</title>
<g id="a_edge56_Node000003_Node000009"><a xlink:title=" ">
<path fill="none" stroke="#63b8ff" d="M445.65,-263.55C456.86,-248.81 480.67,-219 505,-198 557.66,-152.53 628.46,-110.82 665.68,-90.14"/>
<polygon fill="#63b8ff" stroke="#63b8ff" points="667.75,-93 674.82,-85.11 664.38,-86.86 667.75,-93"/>
</a>
</g>
</g>
<!-- Node40 -->
<g id="Node000040" class="node">
<title>Node40</title>
<g id="a_Node000040"><a xlink:title=" ">
<polygon fill="#e0e0e0" stroke="#999999" points="574,-222.5 514,-222.5 514,-203.5 574,-203.5 574,-222.5"/>
<text text-anchor="middle" x="544" y="-210.5" font-family="Helvetica,sans-Serif" font-size="10.00">concepts</text>
</a>
</g>
</g>
<!-- Node3&#45;&gt;Node40 -->
<g id="edge57_Node000003_Node000040" class="edge">
<title>Node3&#45;&gt;Node40</title>
<g id="a_edge57_Node000003_Node000040"><a xlink:title=" ">
<path fill="none" stroke="#63b8ff" d="M454.49,-263.87C471.63,-254.32 499.47,-238.81 519.56,-227.62"/>
<polygon fill="#63b8ff" stroke="#63b8ff" points="521.41,-230.59 528.44,-222.67 518,-224.48 521.41,-230.59"/>
</a>
</g>
</g>
<!-- Node41 -->
<g id="Node000041" class="node">
<title>Node41</title>
<g id="a_Node000041"><a xlink:title=" ">
<polygon fill="#e0e0e0" stroke="#999999" points="642,-222.5 592,-222.5 592,-203.5 642,-203.5 642,-222.5"/>
<text text-anchor="middle" x="617" y="-210.5" font-family="Helvetica,sans-Serif" font-size="10.00">ranges</text>
</a>
</g>
</g>
<!-- Node3&#45;&gt;Node41 -->
<g id="edge58_Node000003_Node000041" class="edge">
<title>Node3&#45;&gt;Node41</title>
<g id="a_edge58_Node000003_Node000041"><a xlink:title=" ">
<path fill="none" stroke="#63b8ff" d="M469.33,-264C498.65,-255.57 544.22,-241.94 583,-228 584.43,-227.49 585.88,-226.95 587.35,-226.39"/>
<polygon fill="#63b8ff" stroke="#63b8ff" points="588.96,-229.52 596.98,-222.6 586.39,-223.01 588.96,-229.52"/>
</a>
</g>
</g>
<!-- Node4&#45;&gt;Node5 -->
<g id="edge4_Node000004_Node000005" class="edge">
<title>Node4&#45;&gt;Node5</title>
<g id="a_edge4_Node000004_Node000005"><a xlink:title=" ">
<path fill="none" stroke="#63b8ff" d="M371.14,-197.8C358.24,-189.01 341.49,-177.61 327.27,-167.93"/>
<polygon fill="#63b8ff" stroke="#63b8ff" points="329.04,-164.9 318.8,-162.16 325.1,-170.69 329.04,-164.9"/>
</a>
</g>
</g>
<!-- Node12 -->
<g id="Node000012" class="node">
<title>Node12</title>
<g id="a_Node000012"><a xlink:href="_win_api_8hpp.html" target="_top" xlink:title=" ">
<polygon fill="white" stroke="#666666" points="2174,-162 2050,-162 2050,-132 2174,-132 2174,-162"/>
<text text-anchor="start" x="2058" y="-150" font-family="Helvetica,sans-Serif" font-size="10.00">Hermes/_base/WinApi</text>
<text text-anchor="middle" x="2112" y="-139" font-family="Helvetica,sans-Serif" font-size="10.00">/WinApi.hpp</text>
</a>
</g>
</g>
<!-- Node4&#45;&gt;Node12 -->
<g id="edge12_Node000004_Node000012" class="edge">
<title>Node4&#45;&gt;Node12</title>
<g id="a_edge12_Node000004_Node000012"><a xlink:title=" ">
<path fill="none" stroke="#63b8ff" d="M458.22,-202.76C473.55,-200.91 489.82,-199.17 505,-198 1096.34,-152.27 1813.14,-148.01 2039.75,-147.88"/>
<polygon fill="#63b8ff" stroke="#63b8ff" points="2039.84,-151.38 2049.84,-147.88 2039.84,-144.38 2039.84,-151.38"/>
</a>
</g>
</g>
<!-- Node5&#45;&gt;Node2 -->
<g id="edge7_Node000005_Node000002" class="edge">
<title>Node5&#45;&gt;Node2</title>
<g id="a_edge7_Node000005_Node000002"><a xlink:title=" ">
<path fill="none" stroke="#63b8ff" d="M214.29,-137.54C164.8,-130.51 101.7,-117.98 49,-96 45.65,-94.6 42.28,-92.79 39.09,-90.84"/>
<polygon fill="#63b8ff" stroke="#63b8ff" points="40.95,-87.88 30.71,-85.19 37.04,-93.68 40.95,-87.88"/>
</a>
</g>
</g>
<!-- Node6 -->
<g id="Node000006" class="node">
<title>Node6</title>
<g id="a_Node000006"><a xlink:title=" ">
<polygon fill="#e0e0e0" stroke="#999999" points="120,-85 58,-85 58,-66 120,-66 120,-85"/>
<text text-anchor="middle" x="89" y="-73" font-family="Helvetica,sans-Serif" font-size="10.00">expected</text>
</a>
</g>
</g>
<!-- Node5&#45;&gt;Node6 -->
<g id="edge5_Node000005_Node000006" class="edge">
<title>Node5&#45;&gt;Node6</title>
<g id="a_edge5_Node000005_Node000006"><a xlink:title=" ">
<path fill="none" stroke="#63b8ff" d="M242.04,-131.95C208.75,-122.98 165.93,-110.35 129,-96 124.09,-94.09 118.95,-91.81 114.06,-89.5"/>
<polygon fill="#63b8ff" stroke="#63b8ff" points="115.59,-86.36 105.07,-85.09 112.51,-92.64 115.59,-86.36"/>
</a>
</g>
</g>
<!-- Node7 -->
<g id="Node000007" class="node">
<title>Node7</title>
<g id="a_Node000007"><a xlink:title=" ">
<polygon fill="#e0e0e0" stroke="#999999" points="185.5,-85 138.5,-85 138.5,-66 185.5,-66 185.5,-85"/>
<text text-anchor="middle" x="162" y="-73" font-family="Helvetica,sans-Serif" font-size="10.00">vector</text>
</a>
</g>
</g>
<!-- Node5&#45;&gt;Node7 -->
<g id="edge6_Node000005_Node000007" class="edge">
<title>Node5&#45;&gt;Node7</title>
<g id="a_edge6_Node000005_Node000007"><a xlink:title=" ">
<path fill="none" stroke="#63b8ff" d="M266.65,-131.92C245.8,-122.31 217.94,-109.01 194,-96 190.82,-94.27 187.5,-92.37 184.27,-90.46"/>
<polygon fill="#63b8ff" stroke="#63b8ff" points="185.89,-87.35 175.53,-85.15 182.26,-93.33 185.89,-87.35"/>
</a>
</g>
</g>
<!-- Node8 -->
<g id="Node000008" class="node">
<title>Node8</title>
<g id="a_Node000008"><a xlink:title=" ">
<polygon fill="#e0e0e0" stroke="#999999" points="272.5,-85 203.5,-85 203.5,-66 272.5,-66 272.5,-85"/>
<text text-anchor="middle" x="238" y="-73" font-family="Helvetica,sans-Serif" font-size="10.00">type_traits</text>
</a>
</g>
</g>
<!-- Node5&#45;&gt;Node8 -->
<g id="edge8_Node000005_Node000008" class="edge">
<title>Node5&#45;&gt;Node8</title>
<g id="a_edge8_Node000005_Node000008"><a xlink:title=" ">
<path fill="none" stroke="#63b8ff" d="M285.86,-131.94C276.16,-120.7 262.54,-104.93 252.31,-93.08"/>
<polygon fill="#63b8ff" stroke="#63b8ff" points="254.75,-90.55 245.57,-85.27 249.45,-95.12 254.75,-90.55"/>
</a>
</g>
</g>
<!-- Node5&#45;&gt;Node9 -->
<g id="edge9_Node000005_Node000009" class="edge">
<title>Node5&#45;&gt;Node9</title>
<g id="a_edge9_Node000005_Node000009"><a xlink:title=" ">
<path fill="none" stroke="#63b8ff" d="M381.6,-135.54C446.65,-126.79 539.01,-113.01 619,-96 630.06,-93.65 641.94,-90.63 652.81,-87.68"/>
<polygon fill="#63b8ff" stroke="#63b8ff" points="653.75,-91.05 662.45,-85.01 651.87,-84.31 653.75,-91.05"/>
</a>
</g>
</g>
<!-- Node10 -->
<g id="Node000010" class="node">
<title>Node10</title>
<g id="a_Node000010"><a xlink:title=" ">
<polygon fill="#e0e0e0" stroke="#999999" points="425,-85 291,-85 291,-66 425,-66 425,-85"/>
<text text-anchor="middle" x="358" y="-73" font-family="Helvetica,sans-Serif" font-size="10.00">exec/any_sender_of.hpp</text>
</a>
</g>
</g>
<!-- Node5&#45;&gt;Node10 -->
<g id="edge10_Node000005_Node000010" class="edge">
<title>Node5&#45;&gt;Node10</title>
<g id="a_edge10_Node000005_Node000010"><a xlink:title=" ">
<path fill="none" stroke="#63b8ff" d="M310.14,-131.94C319.84,-120.7 333.46,-104.93 343.69,-93.08"/>
<polygon fill="#63b8ff" stroke="#63b8ff" points="346.55,-95.12 350.43,-85.27 341.25,-90.55 346.55,-95.12"/>
</a>
</g>
</g>
<!-- Node11 -->
<g id="Node000011" class="node">
<title>Node11</title>
<g id="a_Node000011"><a xlink:title=" ">
<polygon fill="#e0e0e0" stroke="#999999" points="610.5,-90.5 443.5,-90.5 443.5,-60.5 610.5,-60.5 610.5,-90.5"/>
<text text-anchor="start" x="451.5" y="-78.5" font-family="Helvetica,sans-Serif" font-size="10.00">Hermes/_base/ConnectionError</text>
<text text-anchor="middle" x="527" y="-67.5" font-family="Helvetica,sans-Serif" font-size="10.00">Enum.tpp</text>
</a>
</g>
</g>
<!-- Node5&#45;&gt;Node11 -->
<g id="edge11_Node000005_Node000011" class="edge">
<title>Node5&#45;&gt;Node11</title>
<g id="a_edge11_Node000005_Node000011"><a xlink:title=" ">
<path fill="none" stroke="#63b8ff" d="M344.34,-131.94C380.97,-120.82 432.22,-105.26 471.12,-93.46"/>
<polygon fill="#63b8ff" stroke="#63b8ff" points="472.17,-96.8 480.73,-90.54 470.14,-90.1 472.17,-96.8"/>
</a>
</g>
</g>
<!-- Node13 -->
<g id="Node000013" class="node">
<title>Node13</title>
<g id="a_Node000013"><a xlink:title=" ">
<polygon fill="#e0e0e0" stroke="#999999" points="840.5,-85 771.5,-85 771.5,-66 840.5,-66 840.5,-85"/>
<text text-anchor="middle" x="806" y="-73" font-family="Helvetica,sans-Serif" font-size="10.00">ws2tcpip.h</text>
</a>
</g>
</g>
<!-- Node12&#45;&gt;Node13 -->
<g id="edge13_Node000012_Node000013" class="edge">
<title>Node12&#45;&gt;Node13</title>
<g id="a_edge13_Node000012_Node000013"><a xlink:title=" ">
<path fill="none" stroke="#63b8ff" d="M2049.89,-146.3C1829.66,-146.93 1086.93,-145.25 855,-96 847.49,-94.4 839.64,-91.76 832.48,-88.93"/>
<polygon fill="#63b8ff" stroke="#63b8ff" points="833.81,-85.69 823.24,-85.03 831.09,-92.14 833.81,-85.69"/>
</a>
</g>
</g>
<!-- Node14 -->
<g id="Node000014" class="node">
<title>Node14</title>
<g id="a_Node000014"><a xlink:title=" ">
<polygon fill="#e0e0e0" stroke="#999999" points="1023.5,-19 952.5,-19 952.5,0 1023.5,0 1023.5,-19"/>
<text text-anchor="middle" x="988" y="-7" font-family="Helvetica,sans-Serif" font-size="10.00">winsock2.h</text>
</a>
</g>
</g>
<!-- Node12&#45;&gt;Node14 -->
<g id="edge14_Node000012_Node000014" class="edge">
<title>Node12&#45;&gt;Node14</title>
<g id="a_edge14_Node000012_Node000014"><a xlink:title=" ">
<path fill="none" stroke="#63b8ff" d="M2049.89,-145.76C1809.65,-144.56 952.66,-137.35 913,-96 900.39,-82.85 903.98,-70.83 913,-55 921.3,-40.43 936.45,-30.14 950.98,-23.15"/>
<polygon fill="#63b8ff" stroke="#63b8ff" points="952.61,-26.25 960.35,-19.02 949.79,-19.85 952.61,-26.25"/>
</a>
</g>
</g>
<!-- Node15 -->
<g id="Node000015" class="node">
<title>Node15</title>
<g id="a_Node000015"><a xlink:title=" ">
<polygon fill="#e0e0e0" stroke="#999999" points="2808,-85 2758,-85 2758,-66 2808,-66 2808,-85"/>
<text text-anchor="middle" x="2783" y="-73" font-family="Helvetica,sans-Serif" font-size="10.00">ntdef.h</text>
</a>
</g>
</g>
<!-- Node12&#45;&gt;Node15 -->
<g id="edge15_Node000012_Node000015" class="edge">
<title>Node12&#45;&gt;Node15</title>
<g id="a_edge15_Node000012_Node000015"><a xlink:title=" ">
<path fill="none" stroke="#63b8ff" d="M2174.11,-144.59C2312.6,-140.88 2642.81,-128.79 2749,-96 2753.51,-94.61 2758.07,-92.54 2762.33,-90.26"/>
<polygon fill="#63b8ff" stroke="#63b8ff" points="2764.19,-93.23 2771.01,-85.12 2760.63,-87.2 2764.19,-93.23"/>
</a>
</g>
</g>
<!-- Node16 -->
<g id="Node000016" class="node">
<title>Node16</title>
<g id="a_Node000016"><a xlink:title=" ">
<polygon fill="#e0e0e0" stroke="#999999" points="1229.5,-19 1160.5,-19 1160.5,0 1229.5,0 1229.5,-19"/>
<text text-anchor="middle" x="1195" y="-7" font-family="Helvetica,sans-Serif" font-size="10.00">schannel.h</text>
</a>
</g>
</g>
<!-- Node12&#45;&gt;Node16 -->
<g id="edge16_Node000012_Node000016" class="edge">
<title>Node12&#45;&gt;Node16</title>
<g id="a_edge16_Node000012_Node000016"><a xlink:title=" ">
<path fill="none" stroke="#63b8ff" d="M2049.75,-145.73C1811,-144.41 965.18,-136.86 926,-96 913.39,-82.85 914.21,-68.9 926,-55 954.21,-21.74 1081.21,-13.3 1150.14,-11.19"/>
<polygon fill="#63b8ff" stroke="#63b8ff" points="1150.38,-14.68 1160.28,-10.91 1150.19,-7.69 1150.38,-14.68"/>
</a>
</g>
</g>
<!-- Node17 -->
<g id="Node000017" class="node">
<title>Node17</title>
<g id="a_Node000017"><a xlink:title=" ">
<polygon fill="#e0e0e0" stroke="#999999" points="2046.5,-19 2001.5,-19 2001.5,0 2046.5,0 2046.5,-19"/>
<text text-anchor="middle" x="2024" y="-7" font-family="Helvetica,sans-Serif" font-size="10.00">sspi.h</text>
</a>
</g>
</g>
<!-- Node12&#45;&gt;Node17 -->
<g id="edge17_Node000012_Node000017" class="edge">
<title>Node12&#45;&gt;Node17</title>
<g id="a_edge17_Node000012_Node000017"><a xlink:title=" ">
<path fill="none" stroke="#63b8ff" d="M2049.62,-143.6C1932.11,-138.44 1687.39,-124.37 1662,-96 1649.85,-82.42 1649.93,-68.65 1662,-55 1683.68,-30.5 1906.27,-16.55 1991.26,-12.09"/>
<polygon fill="#63b8ff" stroke="#63b8ff" points="1991.58,-15.58 2001.38,-11.57 1991.22,-8.59 1991.58,-15.58"/>
</a>
</g>
</g>
<!-- Node18 -->
<g id="Node000018" class="node">
<title>Node18</title>
<g id="a_Node000018"><a xlink:href="_conversion_and_literals_8hpp.html" target="_top" xlink:title=" ">
<polygon fill="white" stroke="#666666" points="2976,-90.5 2826,-90.5 2826,-60.5 2976,-60.5 2976,-90.5"/>
<text text-anchor="start" x="2834" y="-78.5" font-family="Helvetica,sans-Serif" font-size="10.00">Hermes/_base/WinApi</text>
<text text-anchor="middle" x="2901" y="-67.5" font-family="Helvetica,sans-Serif" font-size="10.00">/ConversionAndLiterals.hpp</text>
</a>
</g>
</g>
<!-- Node12&#45;&gt;Node18 -->
<g id="edge18_Node000012_Node000018" class="edge">
<title>Node12&#45;&gt;Node18</title>
<g id="a_edge18_Node000012_Node000018"><a xlink:title=" ">
<path fill="none" stroke="#63b8ff" d="M2174.13,-144.87C2297.38,-141.91 2581.31,-131.49 2817,-96 2823.22,-95.06 2829.66,-93.91 2836.08,-92.63"/>
<polygon fill="#63b8ff" stroke="#63b8ff" points="2837.04,-96.01 2846.11,-90.55 2835.61,-89.16 2837.04,-96.01"/>
</a>
</g>
</g>
<!-- Node20 -->
<g id="Node000020" class="node">
<title>Node20</title>
<g id="a_Node000020"><a xlink:href="_macros_8hpp.html" target="_top" xlink:title=" ">
<polygon fill="white" stroke="#666666" points="1615,-90.5 1491,-90.5 1491,-60.5 1615,-60.5 1615,-90.5"/>
<text text-anchor="start" x="1499" y="-78.5" font-family="Helvetica,sans-Serif" font-size="10.00">Hermes/_base/WinApi</text>
<text text-anchor="middle" x="1553" y="-67.5" font-family="Helvetica,sans-Serif" font-size="10.00">/Macros.hpp</text>
</a>
</g>
</g>
<!-- Node12&#45;&gt;Node20 -->
<g id="edge20_Node000012_Node000020" class="edge">
<title>Node12&#45;&gt;Node20</title>
<g id="a_edge20_Node000012_Node000020"><a xlink:title=" ">
<path fill="none" stroke="#63b8ff" d="M2049.83,-142.52C1957.47,-136.67 1778.78,-122.82 1629,-96 1623.93,-95.09 1618.71,-94.03 1613.48,-92.87"/>
<polygon fill="#63b8ff" stroke="#63b8ff" points="1613.99,-89.4 1603.46,-90.56 1612.42,-96.22 1613.99,-89.4"/>
</a>
</g>
</g>
<!-- Node22 -->
<g id="Node000022" class="node">
<title>Node22</title>
<g id="a_Node000022"><a xlink:href="_address_family_enum_8hpp.html" target="_top" xlink:title=" ">
<polygon fill="white" stroke="#666666" points="3170,-90.5 2994,-90.5 2994,-60.5 3170,-60.5 3170,-90.5"/>
<text text-anchor="start" x="3002" y="-78.5" font-family="Helvetica,sans-Serif" font-size="10.00">Hermes/_base/WinApi</text>
<text text-anchor="middle" x="3082" y="-67.5" font-family="Helvetica,sans-Serif" font-size="10.00">/Enums/AddressFamilyEnum.hpp</text>
</a>
</g>
</g>
<!-- Node12&#45;&gt;Node22 -->
<g id="edge25_Node000012_Node000022" class="edge">
<title>Node12&#45;&gt;Node22</title>
<g id="a_edge25_Node000012_Node000022"><a xlink:title=" ">
<path fill="none" stroke="#63b8ff" d="M2174.2,-145.45C2317.69,-143.51 2682.73,-134.84 2985,-96 2992.73,-95.01 3000.76,-93.75 3008.75,-92.36"/>
<polygon fill="#63b8ff" stroke="#63b8ff" points="3009.6,-95.77 3018.82,-90.54 3008.35,-88.88 3009.6,-95.77"/>
</a>
</g>
</g>
<!-- Node24 -->
<g id="Node000024" class="node">
<title>Node24</title>
<g id="a_Node000024"><a xlink:href="_condition_function_enum_8hpp.html" target="_top" xlink:title=" ">
<polygon fill="white" stroke="#666666" points="3590,-90.5 3398,-90.5 3398,-60.5 3590,-60.5 3590,-90.5"/>
<text text-anchor="start" x="3406" y="-78.5" font-family="Helvetica,sans-Serif" font-size="10.00">Hermes/_base/WinApi</text>
<text text-anchor="middle" x="3494" y="-67.5" font-family="Helvetica,sans-Serif" font-size="10.00">/Enums/ConditionFunctionEnum.hpp</text>
</a>
</g>
</g>
<!-- Node12&#45;&gt;Node24 -->
<g id="edge27_Node000012_Node000024" class="edge">
<title>Node12&#45;&gt;Node24</title>
<g id="a_edge27_Node000012_Node000024"><a xlink:title=" ">
<path fill="none" stroke="#63b8ff" d="M2174.07,-144.76C2395.96,-140.14 3149.35,-122.8 3389,-96 3397.93,-95 3407.24,-93.68 3416.47,-92.2"/>
<polygon fill="#63b8ff" stroke="#63b8ff" points="3417.15,-95.63 3426.44,-90.53 3415.99,-88.73 3417.15,-95.63"/>
</a>
</g>
</g>
<!-- Node26 -->
<g id="Node000026" class="node">
<title>Node26</title>
<g id="a_Node000026"><a xlink:href="_encrypt_status_enum_8hpp.html" target="_top" xlink:title=" ">
<polygon fill="white" stroke="#666666" points="4161,-90.5 3989,-90.5 3989,-60.5 4161,-60.5 4161,-90.5"/>
<text text-anchor="start" x="3997" y="-78.5" font-family="Helvetica,sans-Serif" font-size="10.00">Hermes/_base/WinApi</text>
<text text-anchor="middle" x="4075" y="-67.5" font-family="Helvetica,sans-Serif" font-size="10.00">/Enums/EncryptStatusEnum.hpp</text>
</a>
</g>
</g>
<!-- Node12&#45;&gt;Node26 -->
<g id="edge29_Node000012_Node000026" class="edge">
<title>Node12&#45;&gt;Node26</title>
<g id="a_edge29_Node000012_Node000026"><a xlink:title=" ">
<path fill="none" stroke="#63b8ff" d="M2174.4,-145.8C2456.98,-144.68 3618.63,-137.6 3980,-96 3988.03,-95.08 3996.38,-93.81 4004.66,-92.37"/>
<polygon fill="#63b8ff" stroke="#63b8ff" points="4005.49,-95.78 4014.7,-90.53 4004.23,-88.89 4005.49,-95.78"/>
</a>
</g>
</g>
<!-- Node28 -->
<g id="Node000028" class="node">
<title>Node28</title>
<g id="a_Node000028"><a xlink:href="_protocol_base_type_enum_8hpp.html" target="_top" xlink:title=" ">
<polygon fill="white" stroke="#666666" points="3379.5,-90.5 3188.5,-90.5 3188.5,-60.5 3379.5,-60.5 3379.5,-90.5"/>
<text text-anchor="start" x="3196.5" y="-78.5" font-family="Helvetica,sans-Serif" font-size="10.00">Hermes/_base/WinApi</text>
<text text-anchor="middle" x="3284" y="-67.5" font-family="Helvetica,sans-Serif" font-size="10.00">/Enums/ProtocolBaseTypeEnum.hpp</text>
</a>
</g>
</g>
<!-- Node12&#45;&gt;Node28 -->
<g id="edge31_Node000012_Node000028" class="edge">
<title>Node12&#45;&gt;Node28</title>
<g id="a_edge31_Node000012_Node000028"><a xlink:title=" ">
<path fill="none" stroke="#63b8ff" d="M2174.18,-146.05C2338.74,-145.55 2799.05,-139.97 3179,-96 3187.86,-94.97 3197.1,-93.65 3206.26,-92.16"/>
<polygon fill="#63b8ff" stroke="#63b8ff" points="3206.86,-95.61 3216.14,-90.5 3205.7,-88.71 3206.86,-95.61"/>
</a>
</g>
</g>
<!-- Node29 -->
<g id="Node000029" class="node">
<title>Node29</title>
<g id="a_Node000029"><a xlink:href="_s_ch_cred_enum_8hpp.html" target="_top" xlink:title=" ">
<polygon fill="white" stroke="#666666" points="1081,-90.5 935,-90.5 935,-60.5 1081,-60.5 1081,-90.5"/>
<text text-anchor="start" x="943" y="-78.5" font-family="Helvetica,sans-Serif" font-size="10.00">Hermes/_base/WinApi</text>
<text text-anchor="middle" x="1008" y="-67.5" font-family="Helvetica,sans-Serif" font-size="10.00">/Enums/SChCredEnum.hpp</text>
</a>
</g>
</g>
<!-- Node12&#45;&gt;Node29 -->
<g id="edge33_Node000012_Node000029" class="edge">
<title>Node12&#45;&gt;Node29</title>
<g id="a_edge33_Node000012_Node000029"><a xlink:title=" ">
<path fill="none" stroke="#63b8ff" d="M2049.69,-144.46C1857.69,-139.48 1276.87,-122.56 1090,-96 1083.73,-95.11 1077.23,-93.96 1070.76,-92.67"/>
<polygon fill="#63b8ff" stroke="#63b8ff" points="1071.17,-89.18 1060.66,-90.53 1069.72,-96.03 1071.17,-89.18"/>
</a>
</g>
</g>
<!-- Node30 -->
<g id="Node000030" class="node">
<title>Node30</title>
<g id="a_Node000030"><a xlink:href="_security_buffer_enum_8hpp.html" target="_top" xlink:title=" ">
<polygon fill="white" stroke="#666666" points="1844.5,-90.5 1671.5,-90.5 1671.5,-60.5 1844.5,-60.5 1844.5,-90.5"/>
<text text-anchor="start" x="1679.5" y="-78.5" font-family="Helvetica,sans-Serif" font-size="10.00">Hermes/_base/WinApi</text>
<text text-anchor="middle" x="1758" y="-67.5" font-family="Helvetica,sans-Serif" font-size="10.00">/Enums/SecurityBufferEnum.hpp</text>
</a>
</g>
</g>
<!-- Node12&#45;&gt;Node30 -->
<g id="edge35_Node000012_Node000030" class="edge">
<title>Node12&#45;&gt;Node30</title>
<g id="a_edge35_Node000012_Node000030"><a xlink:title=" ">
<path fill="none" stroke="#63b8ff" d="M2049.93,-134.13C1997.65,-124.1 1920.9,-109.28 1854,-96 1848.34,-94.88 1842.49,-93.71 1836.6,-92.52"/>
<polygon fill="#63b8ff" stroke="#63b8ff" points="1837.18,-89.07 1826.68,-90.53 1835.79,-95.93 1837.18,-89.07"/>
</a>
</g>
</g>
<!-- Node31 -->
<g id="Node000031" class="node">
<title>Node31</title>
<g id="a_Node000031"><a xlink:href="_socket_shutdown_enum_8hpp.html" target="_top" xlink:title=" ">
<polygon fill="white" stroke="#666666" points="3793.5,-90.5 3608.5,-90.5 3608.5,-60.5 3793.5,-60.5 3793.5,-90.5"/>
<text text-anchor="start" x="3616.5" y="-78.5" font-family="Helvetica,sans-Serif" font-size="10.00">Hermes/_base/WinApi</text>
<text text-anchor="middle" x="3701" y="-67.5" font-family="Helvetica,sans-Serif" font-size="10.00">/Enums/SocketShutdownEnum.hpp</text>
</a>
</g>
</g>
<!-- Node12&#45;&gt;Node31 -->
<g id="edge37_Node000012_Node000031" class="edge">
<title>Node12&#45;&gt;Node31</title>
<g id="a_edge37_Node000012_Node000031"><a xlink:title=" ">
<path fill="none" stroke="#63b8ff" d="M2174.36,-145.19C2419.36,-141.83 3316.3,-127.58 3599,-96 3607.66,-95.03 3616.68,-93.74 3625.62,-92.27"/>
<polygon fill="#63b8ff" stroke="#63b8ff" points="3626.39,-95.69 3635.66,-90.55 3625.21,-88.79 3626.39,-95.69"/>
</a>
</g>
</g>
<!-- Node32 -->
<g id="Node000032" class="node">
<title>Node32</title>
<g id="a_Node000032"><a xlink:href="_socket_type_enum_8hpp.html" target="_top" xlink:title=" ">
<polygon fill="white" stroke="#666666" points="3970.5,-90.5 3811.5,-90.5 3811.5,-60.5 3970.5,-60.5 3970.5,-90.5"/>
<text text-anchor="start" x="3819.5" y="-78.5" font-family="Helvetica,sans-Serif" font-size="10.00">Hermes/_base/WinApi</text>
<text text-anchor="middle" x="3891" y="-67.5" font-family="Helvetica,sans-Serif" font-size="10.00">/Enums/SocketTypeEnum.hpp</text>
</a>
</g>
</g>
<!-- Node12&#45;&gt;Node32 -->
<g id="edge39_Node000012_Node000032" class="edge">
<title>Node12&#45;&gt;Node32</title>
<g id="a_edge39_Node000012_Node000032"><a xlink:title=" ">
<path fill="none" stroke="#63b8ff" d="M2174.19,-145.73C2439.58,-144.34 3478.57,-136.38 3803,-96 3810.15,-95.11 3817.58,-93.91 3824.95,-92.54"/>
<polygon fill="#63b8ff" stroke="#63b8ff" points="3825.8,-95.94 3834.94,-90.57 3824.45,-89.07 3825.8,-95.94"/>
</a>
</g>
</g>
<!-- Node33 -->
<g id="Node000033" class="node">
<title>Node33</title>
<g id="a_Node000033"><a xlink:href="_credential_flags_8hpp.html" target="_top" xlink:title=" ">
<polygon fill="white" stroke="#666666" points="2009,-90.5 1863,-90.5 1863,-60.5 2009,-60.5 2009,-90.5"/>
<text text-anchor="start" x="1871" y="-78.5" font-family="Helvetica,sans-Serif" font-size="10.00">Hermes/_base/WinApi</text>
<text text-anchor="middle" x="1936" y="-67.5" font-family="Helvetica,sans-Serif" font-size="10.00">/Flags/CredentialFlags.hpp</text>
</a>
</g>
</g>
<!-- Node12&#45;&gt;Node33 -->
<g id="edge41_Node000012_Node000033" class="edge">
<title>Node12&#45;&gt;Node33</title>
<g id="a_edge41_Node000012_Node000033"><a xlink:title=" ">
<path fill="none" stroke="#63b8ff" d="M2076.38,-131.94C2048.95,-121.1 2010.84,-106.05 1981.24,-94.37"/>
<polygon fill="#63b8ff" stroke="#63b8ff" points="1982.15,-90.96 1971.56,-90.54 1979.58,-97.47 1982.15,-90.96"/>
</a>
</g>
</g>
<!-- Node34 -->
<g id="Node000034" class="node">
<title>Node34</title>
<g id="a_Node000034"><a xlink:href="_supported_protocols_flags_8hpp.html" target="_top" xlink:title=" ">
<polygon fill="white" stroke="#666666" points="1290.5,-90.5 1099.5,-90.5 1099.5,-60.5 1290.5,-60.5 1290.5,-90.5"/>
<text text-anchor="start" x="1107.5" y="-78.5" font-family="Helvetica,sans-Serif" font-size="10.00">Hermes/_base/WinApi</text>
<text text-anchor="middle" x="1195" y="-67.5" font-family="Helvetica,sans-Serif" font-size="10.00">/Flags/SupportedProtocolsFlags.hpp</text>
</a>
</g>
</g>
<!-- Node12&#45;&gt;Node34 -->
<g id="edge43_Node000012_Node000034" class="edge">
<title>Node12&#45;&gt;Node34</title>
<g id="a_edge43_Node000012_Node000034"><a xlink:title=" ">
<path fill="none" stroke="#63b8ff" d="M2049.88,-144.76C1913.62,-141.47 1578.43,-130.3 1300,-96 1291.44,-94.95 1282.53,-93.63 1273.67,-92.19"/>
<polygon fill="#63b8ff" stroke="#63b8ff" points="1274.16,-88.72 1263.72,-90.51 1273,-95.62 1274.16,-88.72"/>
</a>
</g>
</g>
<!-- Node35 -->
<g id="Node000035" class="node">
<title>Node35</title>
<g id="a_Node000035"><a xlink:href="_initialize_security_context_flags_8hpp.html" target="_top" xlink:title=" ">
<polygon fill="white" stroke="#666666" points="2196.5,-96 2027.5,-96 2027.5,-55 2196.5,-55 2196.5,-96"/>
<text text-anchor="start" x="2035.5" y="-84" font-family="Helvetica,sans-Serif" font-size="10.00">Hermes/_base/WinApi</text>
<text text-anchor="start" x="2035.5" y="-73" font-family="Helvetica,sans-Serif" font-size="10.00">/Flags/InitializeSecurityContext</text>
<text text-anchor="middle" x="2112" y="-62" font-family="Helvetica,sans-Serif" font-size="10.00">Flags.hpp</text>
</a>
</g>
</g>
<!-- Node12&#45;&gt;Node35 -->
<g id="edge45_Node000012_Node000035" class="edge">
<title>Node12&#45;&gt;Node35</title>
<g id="a_edge45_Node000012_Node000035"><a xlink:title=" ">
<path fill="none" stroke="#63b8ff" d="M2112,-131.94C2112,-124.52 2112,-115.14 2112,-106.2"/>
<polygon fill="#63b8ff" stroke="#63b8ff" points="2115.5,-106.07 2112,-96.07 2108.5,-106.07 2115.5,-106.07"/>
</a>
</g>
</g>
<!-- Node36 -->
<g id="Node000036" class="node">
<title>Node36</title>
<g id="a_Node000036"><a xlink:href="_initialize_security_context_return_flags_8hpp.html" target="_top" xlink:title=" ">
<polygon fill="white" stroke="#666666" points="2383.5,-96 2214.5,-96 2214.5,-55 2383.5,-55 2383.5,-96"/>
<text text-anchor="start" x="2222.5" y="-84" font-family="Helvetica,sans-Serif" font-size="10.00">Hermes/_base/WinApi</text>
<text text-anchor="start" x="2222.5" y="-73" font-family="Helvetica,sans-Serif" font-size="10.00">/Flags/InitializeSecurityContext</text>
<text text-anchor="middle" x="2299" y="-62" font-family="Helvetica,sans-Serif" font-size="10.00">ReturnFlags.hpp</text>
</a>
</g>
</g>
<!-- Node12&#45;&gt;Node36 -->
<g id="edge47_Node000012_Node000036" class="edge">
<title>Node12&#45;&gt;Node36</title>
<g id="a_edge47_Node000012_Node000036"><a xlink:title=" ">
<path fill="none" stroke="#63b8ff" d="M2149.84,-131.94C2174.77,-122.67 2208,-110.32 2236.77,-99.63"/>
<polygon fill="#63b8ff" stroke="#63b8ff" points="2238.18,-102.84 2246.33,-96.07 2235.74,-96.28 2238.18,-102.84"/>
</a>
</g>
</g>
<!-- Node37 -->
<g id="Node000037" class="node">
<title>Node37</title>
<g id="a_Node000037"><a xlink:href="_accept_security_context_flags_8hpp.html" target="_top" xlink:title=" ">
<polygon fill="white" stroke="#666666" points="2562,-96 2402,-96 2402,-55 2562,-55 2562,-96"/>
<text text-anchor="start" x="2410" y="-84" font-family="Helvetica,sans-Serif" font-size="10.00">Hermes/_base/WinApi</text>
<text text-anchor="start" x="2410" y="-73" font-family="Helvetica,sans-Serif" font-size="10.00">/Flags/AcceptSecurityContext</text>
<text text-anchor="middle" x="2482" y="-62" font-family="Helvetica,sans-Serif" font-size="10.00">Flags.hpp</text>
</a>
</g>
</g>
<!-- Node12&#45;&gt;Node37 -->
<g id="edge49_Node000012_Node000037" class="edge">
<title>Node12&#45;&gt;Node37</title>
<g id="a_edge49_Node000012_Node000037"><a xlink:title=" ">
<path fill="none" stroke="#63b8ff" d="M2174.08,-135.68C2228.88,-126.4 2311.17,-112.07 2392.12,-96.14"/>
<polygon fill="#63b8ff" stroke="#63b8ff" points="2392.85,-99.56 2401.98,-94.19 2391.49,-92.7 2392.85,-99.56"/>
</a>
</g>
</g>
<!-- Node38 -->
<g id="Node000038" class="node">
<title>Node38</title>
<g id="a_Node000038"><a xlink:href="_accept_security_context_return_flags_8hpp.html" target="_top" xlink:title=" ">
<polygon fill="white" stroke="#666666" points="2740,-96 2580,-96 2580,-55 2740,-55 2740,-96"/>
<text text-anchor="start" x="2588" y="-84" font-family="Helvetica,sans-Serif" font-size="10.00">Hermes/_base/WinApi</text>
<text text-anchor="start" x="2588" y="-73" font-family="Helvetica,sans-Serif" font-size="10.00">/Flags/AcceptSecurityContext</text>
<text text-anchor="middle" x="2660" y="-62" font-family="Helvetica,sans-Serif" font-size="10.00">ReturnFlags.hpp</text>
</a>
</g>
</g>
<!-- Node12&#45;&gt;Node38 -->
<g id="edge51_Node000012_Node000038" class="edge">
<title>Node12&#45;&gt;Node38</title>
<g id="a_edge51_Node000012_Node000038"><a xlink:title=" ">
<path fill="none" stroke="#63b8ff" d="M2174.28,-141.35C2260.83,-134.41 2422.52,-119.74 2569.44,-96.17"/>
<polygon fill="#63b8ff" stroke="#63b8ff" points="2570.23,-99.59 2579.54,-94.53 2569.11,-92.68 2570.23,-99.59"/>
</a>
</g>
</g>
<!-- Node39 -->
<g id="Node000039" class="node">
<title>Node39</title>
<g id="a_Node000039"><a xlink:href="_s_channel_cred_flags_8hpp.html" target="_top" xlink:title=" ">
<polygon fill="white" stroke="#666666" points="1473,-90.5 1309,-90.5 1309,-60.5 1473,-60.5 1473,-90.5"/>
<text text-anchor="start" x="1317" y="-78.5" font-family="Helvetica,sans-Serif" font-size="10.00">Hermes/_base/WinApi</text>
<text text-anchor="middle" x="1391" y="-67.5" font-family="Helvetica,sans-Serif" font-size="10.00">/Flags/SChannelCredFlags.hpp</text>
</a>
</g>
</g>
<!-- Node12&#45;&gt;Node39 -->
<g id="edge53_Node000012_Node000039" class="edge">
<title>Node12&#45;&gt;Node39</title>
<g id="a_edge53_Node000012_Node000039"><a xlink:title=" ">
<path fill="none" stroke="#63b8ff" d="M2049.99,-143.79C1936.69,-139.16 1688.82,-126.23 1482,-96 1475.23,-95.01 1468.22,-93.82 1461.22,-92.51"/>
<polygon fill="#63b8ff" stroke="#63b8ff" points="1461.49,-89 1451,-90.53 1460.16,-95.87 1461.49,-89"/>
</a>
</g>
</g>
<!-- Node19 -->
<g id="Node000019" class="node">
<title>Node19</title>
<g id="a_Node000019"><a xlink:title=" ">
<polygon fill="#e0e0e0" stroke="#999999" points="2926,-19 2876,-19 2876,0 2926,0 2926,-19"/>
<text text-anchor="middle" x="2901" y="-7" font-family="Helvetica,sans-Serif" font-size="10.00">cstdint</text>
</a>
</g>
</g>
<!-- Node18&#45;&gt;Node19 -->
<g id="edge19_Node000018_Node000019" class="edge">
<title>Node18&#45;&gt;Node19</title>
<g id="a_edge19_Node000018_Node000019"><a xlink:title=" ">
<path fill="none" stroke="#63b8ff" d="M2901,-60.3C2901,-51.2 2901,-39.29 2901,-29.4"/>
<polygon fill="#63b8ff" stroke="#63b8ff" points="2904.5,-29.34 2901,-19.34 2897.5,-29.34 2904.5,-29.34"/>
</a>
</g>
</g>
<!-- Node20&#45;&gt;Node14 -->
<g id="edge22_Node000020_Node000014" class="edge">
<title>Node20&#45;&gt;Node14</title>
<g id="a_edge22_Node000020_Node000014"><a xlink:title=" ">
<path fill="none" stroke="#63b8ff" d="M1506.3,-60.41C1498.25,-58.34 1489.92,-56.43 1482,-55 1396.51,-39.54 1138.88,-20.8 1033.59,-13.56"/>
<polygon fill="#63b8ff" stroke="#63b8ff" points="1033.8,-10.07 1023.59,-12.88 1033.32,-17.05 1033.8,-10.07"/>
</a>
</g>
</g>
<!-- Node20&#45;&gt;Node16 -->
<g id="edge23_Node000020_Node000016" class="edge">
<title>Node20&#45;&gt;Node16</title>
<g id="a_edge23_Node000020_Node000016"><a xlink:title=" ">
<path fill="none" stroke="#63b8ff" d="M1504.68,-60.44C1497.12,-58.47 1489.37,-56.58 1482,-55 1397.06,-36.81 1296.47,-22.95 1239.76,-15.83"/>
<polygon fill="#63b8ff" stroke="#63b8ff" points="1240.05,-12.34 1229.69,-14.58 1239.18,-19.29 1240.05,-12.34"/>
</a>
</g>
</g>
<!-- Node20&#45;&gt;Node17 -->
<g id="edge24_Node000020_Node000017" class="edge">
<title>Node20&#45;&gt;Node17</title>
<g id="a_edge24_Node000020_Node000017"><a xlink:title=" ">
<path fill="none" stroke="#63b8ff" d="M1603.89,-60.41C1612.23,-58.39 1620.83,-56.5 1629,-55 1762.04,-30.56 1922.92,-17.46 1991.01,-12.66"/>
<polygon fill="#63b8ff" stroke="#63b8ff" points="1991.39,-16.14 2001.13,-11.96 1990.91,-9.16 1991.39,-16.14"/>
</a>
</g>
</g>
<!-- Node21 -->
<g id="Node000021" class="node">
<title>Node21</title>
<g id="a_Node000021"><a xlink:title=" ">
<polygon fill="#e0e0e0" stroke="#999999" points="1589.5,-19 1516.5,-19 1516.5,0 1589.5,0 1589.5,-19"/>
<text text-anchor="middle" x="1553" y="-7" font-family="Helvetica,sans-Serif" font-size="10.00">string_view</text>
</a>
</g>
</g>
<!-- Node20&#45;&gt;Node21 -->
<g id="edge21_Node000020_Node000021" class="edge">
<title>Node20&#45;&gt;Node21</title>
<g id="a_edge21_Node000020_Node000021"><a xlink:title=" ">
<path fill="none" stroke="#63b8ff" d="M1553,-60.3C1553,-51.2 1553,-39.29 1553,-29.4"/>
<polygon fill="#63b8ff" stroke="#63b8ff" points="1556.5,-29.34 1553,-19.34 1549.5,-29.34 1556.5,-29.34"/>
</a>
</g>
</g>
<!-- Node23 -->
<g id="Node000023" class="node">
<title>Node23</title>
<g id="a_Node000023"><a xlink:title=" ">
<polygon fill="#e0e0e0" stroke="#999999" points="3213,-19 3153,-19 3153,0 3213,0 3213,-19"/>
<text text-anchor="middle" x="3183" y="-7" font-family="Helvetica,sans-Serif" font-size="10.00">ws2def.h</text>
</a>
</g>
</g>
<!-- Node22&#45;&gt;Node23 -->
<g id="edge26_Node000022_Node000023" class="edge">
<title>Node22&#45;&gt;Node23</title>
<g id="a_edge26_Node000022_Node000023"><a xlink:title=" ">
<path fill="none" stroke="#63b8ff" d="M3104.42,-60.3C3121.19,-49.67 3144.01,-35.2 3160.75,-24.6"/>
<polygon fill="#63b8ff" stroke="#63b8ff" points="3162.76,-27.47 3169.34,-19.16 3159.02,-21.55 3162.76,-27.47"/>
</a>
</g>
</g>
<!-- Node25 -->
<g id="Node000025" class="node">
<title>Node25</title>
<g id="a_Node000025"><a xlink:title=" ">
<polygon fill="#e0e0e0" stroke="#999999" points="3738,-19 3664,-19 3664,0 3738,0 3738,-19"/>
<text text-anchor="middle" x="3701" y="-7" font-family="Helvetica,sans-Serif" font-size="10.00">WinSock2.h</text>
</a>
</g>
</g>
<!-- Node24&#45;&gt;Node25 -->
<g id="edge28_Node000024_Node000025" class="edge">
<title>Node24&#45;&gt;Node25</title>
<g id="a_edge28_Node000024_Node000025"><a xlink:title=" ">
<path fill="none" stroke="#63b8ff" d="M3539.43,-60.45C3576.69,-48.93 3628.8,-32.82 3663.66,-22.04"/>
<polygon fill="#63b8ff" stroke="#63b8ff" points="3664.93,-25.32 3673.45,-19.02 3662.86,-18.63 3664.93,-25.32"/>
</a>
</g>
</g>
<!-- Node27 -->
<g id="Node000027" class="node">
<title>Node27</title>
<g id="a_Node000027"><a xlink:title=" ">
<polygon fill="#e0e0e0" stroke="#999999" points="4107.5,-19 4042.5,-19 4042.5,0 4107.5,0 4107.5,-19"/>
<text text-anchor="middle" x="4075" y="-7" font-family="Helvetica,sans-Serif" font-size="10.00">winerror.h</text>
</a>
</g>
</g>
<!-- Node26&#45;&gt;Node27 -->
<g id="edge30_Node000026_Node000027" class="edge">
<title>Node26&#45;&gt;Node27</title>
<g id="a_edge30_Node000026_Node000027"><a xlink:title=" ">
<path fill="none" stroke="#63b8ff" d="M4075,-60.3C4075,-51.2 4075,-39.29 4075,-29.4"/>
<polygon fill="#63b8ff" stroke="#63b8ff" points="4078.5,-29.34 4075,-19.34 4071.5,-29.34 4078.5,-29.34"/>
</a>
</g>
</g>
<!-- Node28&#45;&gt;Node23 -->
<g id="edge32_Node000028_Node000023" class="edge">
<title>Node28&#45;&gt;Node23</title>
<g id="a_edge32_Node000028_Node000023"><a xlink:title=" ">
<path fill="none" stroke="#63b8ff" d="M3261.58,-60.3C3244.81,-49.67 3221.99,-35.2 3205.25,-24.6"/>
<polygon fill="#63b8ff" stroke="#63b8ff" points="3206.98,-21.55 3196.66,-19.16 3203.24,-27.47 3206.98,-21.55"/>
</a>
</g>
</g>
<!-- Node29&#45;&gt;Node16 -->
<g id="edge34_Node000029_Node000016" class="edge">
<title>Node29&#45;&gt;Node16</title>
<g id="a_edge34_Node000029_Node000016"><a xlink:title=" ">
<path fill="none" stroke="#63b8ff" d="M1049.04,-60.45C1082.41,-49.03 1128.97,-33.1 1160.46,-22.32"/>
<polygon fill="#63b8ff" stroke="#63b8ff" points="1161.79,-25.57 1170.11,-19.02 1159.52,-18.94 1161.79,-25.57"/>
</a>
</g>
</g>
<!-- Node30&#45;&gt;Node17 -->
<g id="edge36_Node000030_Node000017" class="edge">
<title>Node30&#45;&gt;Node17</title>
<g id="a_edge36_Node000030_Node000017"><a xlink:title=" ">
<path fill="none" stroke="#63b8ff" d="M1816.37,-60.45C1870.18,-47.51 1948.07,-28.77 1991.54,-18.31"/>
<polygon fill="#63b8ff" stroke="#63b8ff" points="1992.4,-21.7 2001.3,-15.96 1990.76,-14.9 1992.4,-21.7"/>
</a>
</g>
</g>
<!-- Node31&#45;&gt;Node25 -->
<g id="edge38_Node000031_Node000025" class="edge">
<title>Node31&#45;&gt;Node25</title>
<g id="a_edge38_Node000031_Node000025"><a xlink:title=" ">
<path fill="none" stroke="#63b8ff" d="M3701,-60.3C3701,-51.2 3701,-39.29 3701,-29.4"/>
<polygon fill="#63b8ff" stroke="#63b8ff" points="3704.5,-29.34 3701,-19.34 3697.5,-29.34 3704.5,-29.34"/>
</a>
</g>
</g>
<!-- Node32&#45;&gt;Node25 -->
<g id="edge40_Node000032_Node000025" class="edge">
<title>Node32&#45;&gt;Node25</title>
<g id="a_edge40_Node000032_Node000025"><a xlink:title=" ">
<path fill="none" stroke="#63b8ff" d="M3849.3,-60.45C3815.4,-49.03 3768.09,-33.1 3736.1,-22.32"/>
<polygon fill="#63b8ff" stroke="#63b8ff" points="3736.88,-18.89 3726.29,-19.02 3734.65,-25.53 3736.88,-18.89"/>
</a>
</g>
</g>
<!-- Node33&#45;&gt;Node17 -->
<g id="edge42_Node000033_Node000017" class="edge">
<title>Node33&#45;&gt;Node17</title>
<g id="a_edge42_Node000033_Node000017"><a xlink:title=" ">
<path fill="none" stroke="#63b8ff" d="M1955.53,-60.3C1969.87,-49.87 1989.3,-35.74 2003.79,-25.19"/>
<polygon fill="#63b8ff" stroke="#63b8ff" points="2006.07,-27.87 2012.09,-19.16 2001.95,-22.21 2006.07,-27.87"/>
</a>
</g>
</g>
<!-- Node34&#45;&gt;Node16 -->
<g id="edge44_Node000034_Node000016" class="edge">
<title>Node34&#45;&gt;Node16</title>
<g id="a_edge44_Node000034_Node000016"><a xlink:title=" ">
<path fill="none" stroke="#63b8ff" d="M1195,-60.3C1195,-51.2 1195,-39.29 1195,-29.4"/>
<polygon fill="#63b8ff" stroke="#63b8ff" points="1198.5,-29.34 1195,-19.34 1191.5,-29.34 1198.5,-29.34"/>
</a>
</g>
</g>
<!-- Node35&#45;&gt;Node17 -->
<g id="edge46_Node000035_Node000017" class="edge">
<title>Node35&#45;&gt;Node17</title>
<g id="a_edge46_Node000035_Node000017"><a xlink:title=" ">
<path fill="none" stroke="#63b8ff" d="M2085.12,-54.95C2071.94,-45.37 2056.34,-34.02 2044.19,-25.19"/>
<polygon fill="#63b8ff" stroke="#63b8ff" points="2046.19,-22.31 2036.05,-19.26 2042.07,-27.97 2046.19,-22.31"/>
</a>
</g>
</g>
<!-- Node36&#45;&gt;Node17 -->
<g id="edge48_Node000036_Node000017" class="edge">
<title>Node36&#45;&gt;Node17</title>
<g id="a_edge48_Node000036_Node000017"><a xlink:title=" ">
<path fill="none" stroke="#63b8ff" d="M2215,-54.95C2161.72,-42.55 2095.75,-27.2 2056.93,-18.16"/>
<polygon fill="#63b8ff" stroke="#63b8ff" points="2057.27,-14.65 2046.73,-15.79 2055.68,-21.47 2057.27,-14.65"/>
</a>
</g>
</g>
<!-- Node37&#45;&gt;Node17 -->
<g id="edge50_Node000037_Node000017" class="edge">
<title>Node37&#45;&gt;Node17</title>
<g id="a_edge50_Node000037_Node000017"><a xlink:title=" ">
<path fill="none" stroke="#63b8ff" d="M2401.54,-56.51C2398.66,-55.98 2395.81,-55.48 2393,-55 2269.46,-34.07 2121.02,-19.29 2056.54,-13.37"/>
<polygon fill="#63b8ff" stroke="#63b8ff" points="2056.85,-9.88 2046.57,-12.46 2056.21,-16.85 2056.85,-9.88"/>
</a>
</g>
</g>
<!-- Node38&#45;&gt;Node17 -->
<g id="edge52_Node000038_Node000017" class="edge">
<title>Node38&#45;&gt;Node17</title>
<g id="a_edge52_Node000038_Node000017"><a xlink:title=" ">
<path fill="none" stroke="#63b8ff" d="M2579.56,-56.37C2576.68,-55.88 2573.82,-55.42 2571,-55 2377.16,-26.02 2141.66,-14.88 2056.6,-11.62"/>
<polygon fill="#63b8ff" stroke="#63b8ff" points="2056.65,-8.12 2046.53,-11.25 2056.39,-15.12 2056.65,-8.12"/>
</a>
</g>
</g>
<!-- Node39&#45;&gt;Node16 -->
<g id="edge54_Node000039_Node000016" class="edge">
<title>Node39&#45;&gt;Node16</title>
<g id="a_edge54_Node000039_Node000016"><a xlink:title=" ">
<path fill="none" stroke="#63b8ff" d="M1347.99,-60.45C1312.86,-48.98 1263.79,-32.96 1230.78,-22.18"/>
<polygon fill="#63b8ff" stroke="#63b8ff" points="1231.68,-18.79 1221.08,-19.02 1229.5,-25.45 1231.68,-18.79"/>
</a>
</g>
</g>
</g>
</svg>
