<?xml version="1.0" encoding="UTF-8" standalone="no"?>
<!DOCTYPE svg PUBLIC "-//W3C//DTD SVG 1.1//EN"
 "http://www.w3.org/Graphics/SVG/1.1/DTD/svg11.dtd">
<!-- Generated by graphviz version 2.43.0 (0)
 -->
<!-- Title: include/Hermes/Utils/ToBytes.hpp Pages: 1 -->
<svg width="3055pt" height="357pt"
 viewBox="0.00 0.00 3054.50 357.00" xmlns="http://www.w3.org/2000/svg" xmlns:xlink="http://www.w3.org/1999/xlink">
<g id="graph0" class="graph" transform="scale(1 1) rotate(0) translate(4 353)">
<title>include/Hermes/Utils/ToBytes.hpp</title>
<!-- Node1 -->
<g id="Node000001" class="node">
<title>Node1</title>
<g id="a_Node000001"><a xlink:title=" ">
<polygon fill="#999999" stroke="#666666" points="215.5,-349 96.5,-349 96.5,-319 215.5,-319 215.5,-349"/>
<text text-anchor="start" x="104.5" y="-337" font-family="Helvetica,sans-Serif" font-size="10.00">include/Hermes/Utils</text>
<text text-anchor="middle" x="156" y="-326" font-family="Helvetica,sans-Serif" font-size="10.00">/ToBytes.hpp</text>
</a>
</g>
</g>
<!-- Node2 -->
<g id="Node000002" class="node">
<title>Node2</title>
<g id="a_Node000002"><a xlink:title=" ">
<polygon fill="#e0e0e0" stroke="#999999" points="40,-85 0,-85 0,-66 40,-66 40,-85"/>
<text text-anchor="middle" x="20" y="-73" font-family="Helvetica,sans-Serif" font-size="10.00">span</text>
</a>
</g>
</g>
<!-- Node1&#45;&gt;Node2 -->
<g id="edge1_Node000001_Node000002" class="edge">
<title>Node1&#45;&gt;Node2</title>
<g id="a_edge1_Node000001_Node000002"><a xlink:title=" ">
<path fill="none" stroke="#63b8ff" d="M148.49,-318.84C125.31,-275.11 54.85,-142.23 29.34,-94.12"/>
<polygon fill="#63b8ff" stroke="#63b8ff" points="32.39,-92.4 24.62,-85.21 26.21,-95.68 32.39,-92.4"/>
</a>
</g>
</g>
<!-- Node3 -->
<g id="Node000003" class="node">
<title>Node3</title>
<g id="a_Node000003"><a xlink:href="__base_8hpp.html" target="_top" xlink:title=" ">
<polygon fill="white" stroke="#666666" points="398.5,-283 255.5,-283 255.5,-264 398.5,-264 398.5,-283"/>
<text text-anchor="middle" x="327" y="-271" font-family="Helvetica,sans-Serif" font-size="10.00">Hermes/Socket/_base.hpp</text>
</a>
</g>
</g>
<!-- Node1&#45;&gt;Node3 -->
<g id="edge2_Node000001_Node000003" class="edge">
<title>Node1&#45;&gt;Node3</title>
<g id="a_edge2_Node000001_Node000003"><a xlink:title=" ">
<path fill="none" stroke="#63b8ff" d="M196.96,-318.99C226,-309.05 264.55,-295.86 292.12,-286.43"/>
<polygon fill="#63b8ff" stroke="#63b8ff" points="293.42,-289.69 301.75,-283.14 291.15,-283.06 293.42,-289.69"/>
</a>
</g>
</g>
<!-- Node4 -->
<g id="Node000004" class="node">
<title>Node4</title>
<g id="a_Node000004"><a xlink:href="_endpoint_concept_8hpp.html" target="_top" xlink:title=" ">
<polygon fill="white" stroke="#666666" points="575,-228 443,-228 443,-198 575,-198 575,-228"/>
<text text-anchor="start" x="451" y="-216" font-family="Helvetica,sans-Serif" font-size="10.00">Hermes/Endpoint/_base</text>
<text text-anchor="middle" x="509" y="-205" font-family="Helvetica,sans-Serif" font-size="10.00">/EndpointConcept.hpp</text>
</a>
</g>
</g>
<!-- Node3&#45;&gt;Node4 -->
<g id="edge3_Node000003_Node000004" class="edge">
<title>Node3&#45;&gt;Node4</title>
<g id="a_edge3_Node000003_Node000004"><a xlink:title=" ">
<path fill="none" stroke="#63b8ff" d="M353.46,-263.99C380.11,-255.43 421.98,-241.97 455.56,-231.18"/>
<polygon fill="#63b8ff" stroke="#63b8ff" points="456.8,-234.46 465.24,-228.06 454.65,-227.79 456.8,-234.46"/>
</a>
</g>
</g>
<!-- Node5 -->
<g id="Node000005" class="node">
<title>Node5</title>
<g id="a_Node000005"><a xlink:href="_connection_error_enum_8hpp.html" target="_top" xlink:title=" ">
<polygon fill="white" stroke="#666666" points="389.5,-162 222.5,-162 222.5,-132 389.5,-132 389.5,-162"/>
<text text-anchor="start" x="230.5" y="-150" font-family="Helvetica,sans-Serif" font-size="10.00">Hermes/_base/ConnectionError</text>
<text text-anchor="middle" x="306" y="-139" font-family="Helvetica,sans-Serif" font-size="10.00">Enum.hpp</text>
</a>
</g>
</g>
<!-- Node3&#45;&gt;Node5 -->
<g id="edge37_Node000003_Node000005" class="edge">
<title>Node3&#45;&gt;Node5</title>
<g id="a_edge37_Node000003_Node000005"><a xlink:title=" ">
<path fill="none" stroke="#63b8ff" d="M316.01,-263.99C306.55,-255.9 293.57,-242.81 288,-228 281.07,-209.57 286.88,-187.71 293.69,-171.5"/>
<polygon fill="#63b8ff" stroke="#63b8ff" points="296.96,-172.76 297.95,-162.22 290.6,-169.84 296.96,-172.76"/>
</a>
</g>
</g>
<!-- Node9 -->
<g id="Node000009" class="node">
<title>Node9</title>
<g id="a_Node000009"><a xlink:title=" ">
<polygon fill="#e0e0e0" stroke="#999999" points="183.5,-85 58.5,-85 58.5,-66 183.5,-66 183.5,-85"/>
<text text-anchor="middle" x="121" y="-73" font-family="Helvetica,sans-Serif" font-size="10.00">stdexec/execution.hpp</text>
</a>
</g>
</g>
<!-- Node3&#45;&gt;Node9 -->
<g id="edge39_Node000003_Node000009" class="edge">
<title>Node3&#45;&gt;Node9</title>
<g id="a_edge39_Node000003_Node000009"><a xlink:title=" ">
<path fill="none" stroke="#63b8ff" d="M317.88,-263.83C285.91,-233.4 178.58,-131.29 137.34,-92.05"/>
<polygon fill="#63b8ff" stroke="#63b8ff" points="139.67,-89.43 130.01,-85.07 134.84,-94.5 139.67,-89.43"/>
</a>
</g>
</g>
<!-- Node12 -->
<g id="Node000012" class="node">
<title>Node12</title>
<g id="a_Node000012"><a xlink:href="_os_api_8hpp.html" target="_top" xlink:title=" ">
<polygon fill="white" stroke="#666666" points="1715,-162 1597,-162 1597,-132 1715,-132 1715,-162"/>
<text text-anchor="start" x="1605" y="-150" font-family="Helvetica,sans-Serif" font-size="10.00">Hermes/_base/OsApi</text>
<text text-anchor="middle" x="1656" y="-139" font-family="Helvetica,sans-Serif" font-size="10.00">/OsApi.hpp</text>
</a>
</g>
</g>
<!-- Node3&#45;&gt;Node12 -->
<g id="edge38_Node000003_Node000012" class="edge">
<title>Node3&#45;&gt;Node12</title>
<g id="a_edge38_Node000003_Node000012"><a xlink:title=" ">
<path fill="none" stroke="#63b8ff" d="M398.92,-265.76C630.98,-244.02 1357.99,-175.92 1586.52,-154.51"/>
<polygon fill="#63b8ff" stroke="#63b8ff" points="1587.07,-157.97 1596.7,-153.55 1586.42,-151 1587.07,-157.97"/>
</a>
</g>
</g>
<!-- Node31 -->
<g id="Node000031" class="node">
<title>Node31</title>
<g id="a_Node000031"><a xlink:title=" ">
<polygon fill="#e0e0e0" stroke="#999999" points="357,-222.5 297,-222.5 297,-203.5 357,-203.5 357,-222.5"/>
<text text-anchor="middle" x="327" y="-210.5" font-family="Helvetica,sans-Serif" font-size="10.00">concepts</text>
</a>
</g>
</g>
<!-- Node3&#45;&gt;Node31 -->
<g id="edge40_Node000003_Node000031" class="edge">
<title>Node3&#45;&gt;Node31</title>
<g id="a_edge40_Node000003_Node000031"><a xlink:title=" ">
<path fill="none" stroke="#63b8ff" d="M327,-263.87C327,-255.75 327,-243.31 327,-232.89"/>
<polygon fill="#63b8ff" stroke="#63b8ff" points="330.5,-232.67 327,-222.67 323.5,-232.67 330.5,-232.67"/>
</a>
</g>
</g>
<!-- Node32 -->
<g id="Node000032" class="node">
<title>Node32</title>
<g id="a_Node000032"><a xlink:title=" ">
<polygon fill="#e0e0e0" stroke="#999999" points="425,-222.5 375,-222.5 375,-203.5 425,-203.5 425,-222.5"/>
<text text-anchor="middle" x="400" y="-210.5" font-family="Helvetica,sans-Serif" font-size="10.00">ranges</text>
</a>
</g>
</g>
<!-- Node3&#45;&gt;Node32 -->
<g id="edge41_Node000003_Node000032" class="edge">
<title>Node3&#45;&gt;Node32</title>
<g id="a_edge41_Node000003_Node000032"><a xlink:title=" ">
<path fill="none" stroke="#63b8ff" d="M337.77,-263.87C349.2,-254.71 367.48,-240.06 381.28,-229.01"/>
<polygon fill="#63b8ff" stroke="#63b8ff" points="383.57,-231.65 389.18,-222.67 379.19,-226.19 383.57,-231.65"/>
</a>
</g>
</g>
<!-- Node4&#45;&gt;Node5 -->
<g id="edge4_Node000004_Node000005" class="edge">
<title>Node4&#45;&gt;Node5</title>
<g id="a_edge4_Node000004_Node000005"><a xlink:title=" ">
<path fill="none" stroke="#63b8ff" d="M464.45,-197.95C433.78,-188.28 392.84,-175.38 360.27,-165.11"/>
<polygon fill="#63b8ff" stroke="#63b8ff" points="361.03,-161.68 350.45,-162.01 358.93,-168.36 361.03,-161.68"/>
</a>
</g>
</g>
<!-- Node4&#45;&gt;Node12 -->
<g id="edge12_Node000004_Node000012" class="edge">
<title>Node4&#45;&gt;Node12</title>
<g id="a_edge12_Node000004_Node000012"><a xlink:title=" ">
<path fill="none" stroke="#63b8ff" d="M575.21,-208.31C776.71,-197.06 1381.26,-163.33 1586.76,-151.86"/>
<polygon fill="#63b8ff" stroke="#63b8ff" points="1587.03,-155.35 1596.82,-151.3 1586.64,-148.36 1587.03,-155.35"/>
</a>
</g>
</g>
<!-- Node5&#45;&gt;Node2 -->
<g id="edge7_Node000005_Node000002" class="edge">
<title>Node5&#45;&gt;Node2</title>
<g id="a_edge7_Node000005_Node000002"><a xlink:title=" ">
<path fill="none" stroke="#63b8ff" d="M222.26,-138.27C170.79,-131.46 104.34,-118.88 49,-96 45.59,-94.59 42.16,-92.75 38.92,-90.76"/>
<polygon fill="#63b8ff" stroke="#63b8ff" points="40.67,-87.72 30.43,-85.01 36.74,-93.51 40.67,-87.72"/>
</a>
</g>
</g>
<!-- Node6 -->
<g id="Node000006" class="node">
<title>Node6</title>
<g id="a_Node000006"><a xlink:title=" ">
<polygon fill="#e0e0e0" stroke="#999999" points="264,-85 202,-85 202,-66 264,-66 264,-85"/>
<text text-anchor="middle" x="233" y="-73" font-family="Helvetica,sans-Serif" font-size="10.00">expected</text>
</a>
</g>
</g>
<!-- Node5&#45;&gt;Node6 -->
<g id="edge5_Node000005_Node000006" class="edge">
<title>Node5&#45;&gt;Node6</title>
<g id="a_edge5_Node000005_Node000006"><a xlink:title=" ">
<path fill="none" stroke="#63b8ff" d="M291.23,-131.94C279.2,-120.48 262.22,-104.32 249.7,-92.4"/>
<polygon fill="#63b8ff" stroke="#63b8ff" points="251.86,-89.63 242.21,-85.27 247.04,-94.7 251.86,-89.63"/>
</a>
</g>
</g>
<!-- Node7 -->
<g id="Node000007" class="node">
<title>Node7</title>
<g id="a_Node000007"><a xlink:title=" ">
<polygon fill="#e0e0e0" stroke="#999999" points="329.5,-85 282.5,-85 282.5,-66 329.5,-66 329.5,-85"/>
<text text-anchor="middle" x="306" y="-73" font-family="Helvetica,sans-Serif" font-size="10.00">vector</text>
</a>
</g>
</g>
<!-- Node5&#45;&gt;Node7 -->
<g id="edge6_Node000005_Node000007" class="edge">
<title>Node5&#45;&gt;Node7</title>
<g id="a_edge6_Node000005_Node000007"><a xlink:title=" ">
<path fill="none" stroke="#63b8ff" d="M306,-131.94C306,-121.46 306,-107.05 306,-95.55"/>
<polygon fill="#63b8ff" stroke="#63b8ff" points="309.5,-95.27 306,-85.27 302.5,-95.27 309.5,-95.27"/>
</a>
</g>
</g>
<!-- Node8 -->
<g id="Node000008" class="node">
<title>Node8</title>
<g id="a_Node000008"><a xlink:title=" ">
<polygon fill="#e0e0e0" stroke="#999999" points="416.5,-85 347.5,-85 347.5,-66 416.5,-66 416.5,-85"/>
<text text-anchor="middle" x="382" y="-73" font-family="Helvetica,sans-Serif" font-size="10.00">type_traits</text>
</a>
</g>
</g>
<!-- Node5&#45;&gt;Node8 -->
<g id="edge8_Node000005_Node000008" class="edge">
<title>Node5&#45;&gt;Node8</title>
<g id="a_edge8_Node000005_Node000008"><a xlink:title=" ">
<path fill="none" stroke="#63b8ff" d="M321.38,-131.94C334.02,-120.37 351.92,-104.01 364.99,-92.06"/>
<polygon fill="#63b8ff" stroke="#63b8ff" points="367.4,-94.6 372.41,-85.27 362.67,-89.43 367.4,-94.6"/>
</a>
</g>
</g>
<!-- Node5&#45;&gt;Node9 -->
<g id="edge9_Node000005_Node000009" class="edge">
<title>Node5&#45;&gt;Node9</title>
<g id="a_edge9_Node000005_Node000009"><a xlink:title=" ">
<path fill="none" stroke="#63b8ff" d="M268.56,-131.94C234.69,-119.21 185.33,-100.67 153.19,-88.59"/>
<polygon fill="#63b8ff" stroke="#63b8ff" points="154.4,-85.31 143.81,-85.07 151.94,-91.86 154.4,-85.31"/>
</a>
</g>
</g>
<!-- Node10 -->
<g id="Node000010" class="node">
<title>Node10</title>
<g id="a_Node000010"><a xlink:title=" ">
<polygon fill="#e0e0e0" stroke="#999999" points="569,-85 435,-85 435,-66 569,-66 569,-85"/>
<text text-anchor="middle" x="502" y="-73" font-family="Helvetica,sans-Serif" font-size="10.00">exec/any_sender_of.hpp</text>
</a>
</g>
</g>
<!-- Node5&#45;&gt;Node10 -->
<g id="edge10_Node000005_Node000010" class="edge">
<title>Node5&#45;&gt;Node10</title>
<g id="a_edge10_Node000005_Node000010"><a xlink:title=" ">
<path fill="none" stroke="#63b8ff" d="M345.66,-131.94C381.7,-119.16 434.29,-100.51 468.33,-88.44"/>
<polygon fill="#63b8ff" stroke="#63b8ff" points="469.58,-91.71 477.84,-85.07 467.24,-85.11 469.58,-91.71"/>
</a>
</g>
</g>
<!-- Node11 -->
<g id="Node000011" class="node">
<title>Node11</title>
<g id="a_Node000011"><a xlink:title=" ">
<polygon fill="#e0e0e0" stroke="#999999" points="754.5,-90.5 587.5,-90.5 587.5,-60.5 754.5,-60.5 754.5,-90.5"/>
<text text-anchor="start" x="595.5" y="-78.5" font-family="Helvetica,sans-Serif" font-size="10.00">Hermes/_base/ConnectionError</text>
<text text-anchor="middle" x="671" y="-67.5" font-family="Helvetica,sans-Serif" font-size="10.00">Enum.tpp</text>
</a>
</g>
</g>
<!-- Node5&#45;&gt;Node11 -->
<g id="edge11_Node000005_Node000011" class="edge">
<title>Node5&#45;&gt;Node11</title>
<g id="a_edge11_Node000005_Node000011"><a xlink:title=" ">
<path fill="none" stroke="#63b8ff" d="M385.25,-131.97C439.56,-122.22 513.22,-108.74 578,-96 583.46,-94.93 589.1,-93.8 594.78,-92.64"/>
<polygon fill="#63b8ff" stroke="#63b8ff" points="595.9,-95.99 604.99,-90.55 594.5,-89.13 595.9,-95.99"/>
</a>
</g>
</g>
<!-- Node13 -->
<g id="Node000013" class="node">
<title>Node13</title>
<g id="a_Node000013"><a xlink:title=" ">
<polygon fill="#e0e0e0" stroke="#999999" points="2497.5,-19 2420.5,-19 2420.5,0 2497.5,0 2497.5,-19"/>
<text text-anchor="middle" x="2459" y="-7" font-family="Helvetica,sans-Serif" font-size="10.00">sys/socket.h</text>
</a>
</g>
</g>
<!-- Node12&#45;&gt;Node13 -->
<g id="edge13_Node000012_Node000013" class="edge">
<title>Node12&#45;&gt;Node13</title>
<g id="a_edge13_Node000012_Node000013"><a xlink:title=" ">
<path fill="none" stroke="#63b8ff" d="M1715.19,-146.28C1888.57,-146.54 2386.53,-143.14 2441,-96 2459.88,-79.66 2461.92,-48.98 2460.97,-29.16"/>
<polygon fill="#63b8ff" stroke="#63b8ff" points="2464.46,-28.88 2460.2,-19.18 2457.48,-29.42 2464.46,-28.88"/>
</a>
</g>
</g>
<!-- Node14 -->
<g id="Node000014" class="node">
<title>Node14</title>
<g id="a_Node000014"><a xlink:title=" ">
<polygon fill="#e0e0e0" stroke="#999999" points="2927,-19 2855,-19 2855,0 2927,0 2927,-19"/>
<text text-anchor="middle" x="2891" y="-7" font-family="Helvetica,sans-Serif" font-size="10.00">netinet/in.h</text>
</a>
</g>
</g>
<!-- Node12&#45;&gt;Node14 -->
<g id="edge14_Node000012_Node000014" class="edge">
<title>Node12&#45;&gt;Node14</title>
<g id="a_edge14_Node000012_Node000014"><a xlink:title=" ">
<path fill="none" stroke="#63b8ff" d="M1715.36,-146.01C1936.98,-145.7 2708.29,-141.35 2808,-96 2830.89,-85.59 2829.49,-73.05 2847,-55 2856.17,-45.54 2866.53,-35.06 2874.88,-26.65"/>
<polygon fill="#63b8ff" stroke="#63b8ff" points="2877.61,-28.87 2882.18,-19.32 2872.65,-23.93 2877.61,-28.87"/>
</a>
</g>
</g>
<!-- Node15 -->
<g id="Node000015" class="node">
<title>Node15</title>
<g id="a_Node000015"><a xlink:title=" ">
<polygon fill="#e0e0e0" stroke="#999999" points="841.5,-85 772.5,-85 772.5,-66 841.5,-66 841.5,-85"/>
<text text-anchor="middle" x="807" y="-73" font-family="Helvetica,sans-Serif" font-size="10.00">arpa/inet.h</text>
</a>
</g>
</g>
<!-- Node12&#45;&gt;Node15 -->
<g id="edge15_Node000012_Node000015" class="edge">
<title>Node12&#45;&gt;Node15</title>
<g id="a_edge15_Node000012_Node000015"><a xlink:title=" ">
<path fill="none" stroke="#63b8ff" d="M1596.78,-144.72C1436.55,-140.87 997.13,-127.65 856,-96 848.8,-94.38 841.27,-91.85 834.34,-89.14"/>
<polygon fill="#63b8ff" stroke="#63b8ff" points="835.29,-85.75 824.72,-85.13 832.6,-92.21 835.29,-85.75"/>
</a>
</g>
</g>
<!-- Node16 -->
<g id="Node000016" class="node">
<title>Node16</title>
<g id="a_Node000016"><a xlink:title=" ">
<polygon fill="#e0e0e0" stroke="#999999" points="946.5,-19 893.5,-19 893.5,0 946.5,0 946.5,-19"/>
<text text-anchor="middle" x="920" y="-7" font-family="Helvetica,sans-Serif" font-size="10.00">netdb.h</text>
</a>
</g>
</g>
<!-- Node12&#45;&gt;Node16 -->
<g id="edge16_Node000012_Node000016" class="edge">
<title>Node12&#45;&gt;Node16</title>
<g id="a_edge16_Node000012_Node000016"><a xlink:title=" ">
<path fill="none" stroke="#63b8ff" d="M1596.78,-146.68C1425.23,-148.02 937.04,-147.28 889,-96 870.84,-76.62 889.93,-45.78 905.16,-26.92"/>
<polygon fill="#63b8ff" stroke="#63b8ff" points="907.93,-29.07 911.74,-19.18 902.6,-24.54 907.93,-29.07"/>
</a>
</g>
</g>
<!-- Node17 -->
<g id="Node000017" class="node">
<title>Node17</title>
<g id="a_Node000017"><a xlink:title=" ">
<polygon fill="#e0e0e0" stroke="#999999" points="1116,-85 1060,-85 1060,-66 1116,-66 1116,-85"/>
<text text-anchor="middle" x="1088" y="-73" font-family="Helvetica,sans-Serif" font-size="10.00">unistd.h</text>
</a>
</g>
</g>
<!-- Node12&#45;&gt;Node17 -->
<g id="edge17_Node000012_Node000017" class="edge">
<title>Node12&#45;&gt;Node17</title>
<g id="a_edge17_Node000012_Node000017"><a xlink:title=" ">
<path fill="none" stroke="#63b8ff" d="M1596.96,-143.34C1477.71,-137.49 1212.08,-121.93 1125,-96 1120.04,-94.52 1114.98,-92.36 1110.25,-90"/>
<polygon fill="#63b8ff" stroke="#63b8ff" points="1111.62,-86.76 1101.16,-85.06 1108.27,-92.91 1111.62,-86.76"/>
</a>
</g>
</g>
<!-- Node18 -->
<g id="Node000018" class="node">
<title>Node18</title>
<g id="a_Node000018"><a xlink:href="_conversion_and_literals_8hpp.html" target="_top" xlink:title=" ">
<polygon fill="white" stroke="#666666" points="1284,-90.5 1134,-90.5 1134,-60.5 1284,-60.5 1284,-90.5"/>
<text text-anchor="start" x="1142" y="-78.5" font-family="Helvetica,sans-Serif" font-size="10.00">Hermes/_base/OsApi</text>
<text text-anchor="middle" x="1209" y="-67.5" font-family="Helvetica,sans-Serif" font-size="10.00">/ConversionAndLiterals.hpp</text>
</a>
</g>
</g>
<!-- Node12&#45;&gt;Node18 -->
<g id="edge18_Node000012_Node000018" class="edge">
<title>Node12&#45;&gt;Node18</title>
<g id="a_edge18_Node000012_Node000018"><a xlink:title=" ">
<path fill="none" stroke="#63b8ff" d="M1596.95,-139.54C1524.9,-131.28 1399.51,-115.66 1293,-96 1287.57,-95 1281.96,-93.88 1276.34,-92.7"/>
<polygon fill="#63b8ff" stroke="#63b8ff" points="1276.75,-89.21 1266.24,-90.52 1275.28,-96.05 1276.75,-89.21"/>
</a>
</g>
</g>
<!-- Node20 -->
<g id="Node000020" class="node">
<title>Node20</title>
<g id="a_Node000020"><a xlink:href="_macros_8hpp.html" target="_top" xlink:title=" ">
<polygon fill="white" stroke="#666666" points="2799,-90.5 2681,-90.5 2681,-60.5 2799,-60.5 2799,-90.5"/>
<text text-anchor="start" x="2689" y="-78.5" font-family="Helvetica,sans-Serif" font-size="10.00">Hermes/_base/OsApi</text>
<text text-anchor="middle" x="2740" y="-67.5" font-family="Helvetica,sans-Serif" font-size="10.00">/Macros.hpp</text>
</a>
</g>
</g>
<!-- Node12&#45;&gt;Node20 -->
<g id="edge20_Node000012_Node000020" class="edge">
<title>Node12&#45;&gt;Node20</title>
<g id="a_edge20_Node000012_Node000020"><a xlink:title=" ">
<path fill="none" stroke="#63b8ff" d="M1715,-144.88C1902.91,-141.03 2485.9,-126.84 2672,-96 2676.75,-95.21 2681.64,-94.21 2686.51,-93.08"/>
<polygon fill="#63b8ff" stroke="#63b8ff" points="2687.59,-96.41 2696.44,-90.59 2685.89,-89.62 2687.59,-96.41"/>
</a>
</g>
</g>
<!-- Node22 -->
<g id="Node000022" class="node">
<title>Node22</title>
<g id="a_Node000022"><a xlink:href="_address_family_enum_8hpp.html" target="_top" xlink:title=" ">
<polygon fill="white" stroke="#666666" points="2663,-90.5 2487,-90.5 2487,-60.5 2663,-60.5 2663,-90.5"/>
<text text-anchor="start" x="2495" y="-78.5" font-family="Helvetica,sans-Serif" font-size="10.00">Hermes/_base/OsApi</text>
<text text-anchor="middle" x="2575" y="-67.5" font-family="Helvetica,sans-Serif" font-size="10.00">/Enums/AddressFamilyEnum.hpp</text>
</a>
</g>
</g>
<!-- Node12&#45;&gt;Node22 -->
<g id="edge23_Node000012_Node000022" class="edge">
<title>Node12&#45;&gt;Node22</title>
<g id="a_edge23_Node000012_Node000022"><a xlink:title=" ">
<path fill="none" stroke="#63b8ff" d="M1715.19,-144.97C1850.12,-142.05 2190.65,-131.48 2473,-96 2481.23,-94.97 2489.79,-93.67 2498.31,-92.25"/>
<polygon fill="#63b8ff" stroke="#63b8ff" points="2499,-95.68 2508.26,-90.53 2497.81,-88.78 2499,-95.68"/>
</a>
</g>
</g>
<!-- Node23 -->
<g id="Node000023" class="node">
<title>Node23</title>
<g id="a_Node000023"><a xlink:href="_protocol_base_type_enum_8hpp.html" target="_top" xlink:title=" ">
<polygon fill="white" stroke="#666666" points="3046.5,-90.5 2855.5,-90.5 2855.5,-60.5 3046.5,-60.5 3046.5,-90.5"/>
<text text-anchor="start" x="2863.5" y="-78.5" font-family="Helvetica,sans-Serif" font-size="10.00">Hermes/_base/OsApi</text>
<text text-anchor="middle" x="2951" y="-67.5" font-family="Helvetica,sans-Serif" font-size="10.00">/Enums/ProtocolBaseTypeEnum.hpp</text>
</a>
</g>
</g>
<!-- Node12&#45;&gt;Node23 -->
<g id="edge25_Node000012_Node000023" class="edge">
<title>Node12&#45;&gt;Node23</title>
<g id="a_edge25_Node000012_Node000023"><a xlink:title=" ">
<path fill="none" stroke="#63b8ff" d="M1715.09,-146.29C1888.5,-146.53 2410.89,-142.99 2841,-96 2850.37,-94.98 2860.15,-93.64 2869.85,-92.14"/>
<polygon fill="#63b8ff" stroke="#63b8ff" points="2870.58,-95.57 2879.9,-90.53 2869.47,-88.66 2870.58,-95.57"/>
</a>
</g>
</g>
<!-- Node24 -->
<g id="Node000024" class="node">
<title>Node24</title>
<g id="a_Node000024"><a xlink:href="_socket_shutdown_enum_8hpp.html" target="_top" xlink:title=" ">
<polygon fill="white" stroke="#666666" points="2254.5,-90.5 2069.5,-90.5 2069.5,-60.5 2254.5,-60.5 2254.5,-90.5"/>
<text text-anchor="start" x="2077.5" y="-78.5" font-family="Helvetica,sans-Serif" font-size="10.00">Hermes/_base/OsApi</text>
<text text-anchor="middle" x="2162" y="-67.5" font-family="Helvetica,sans-Serif" font-size="10.00">/Enums/SocketShutdownEnum.hpp</text>
</a>
</g>
</g>
<!-- Node12&#45;&gt;Node24 -->
<g id="edge27_Node000012_Node000024" class="edge">
<title>Node12&#45;&gt;Node24</title>
<g id="a_edge27_Node000012_Node000024"><a xlink:title=" ">
<path fill="none" stroke="#63b8ff" d="M1715.2,-139.96C1794.25,-131.62 1938.54,-115.36 2061,-96 2068.03,-94.89 2075.33,-93.65 2082.63,-92.35"/>
<polygon fill="#63b8ff" stroke="#63b8ff" points="2083.35,-95.78 2092.56,-90.55 2082.1,-88.89 2083.35,-95.78"/>
</a>
</g>
</g>
<!-- Node25 -->
<g id="Node000025" class="node">
<title>Node25</title>
<g id="a_Node000025"><a xlink:href="_socket_type_enum_8hpp.html" target="_top" xlink:title=" ">
<polygon fill="white" stroke="#666666" points="2431.5,-90.5 2272.5,-90.5 2272.5,-60.5 2431.5,-60.5 2431.5,-90.5"/>
<text text-anchor="start" x="2280.5" y="-78.5" font-family="Helvetica,sans-Serif" font-size="10.00">Hermes/_base/OsApi</text>
<text text-anchor="middle" x="2352" y="-67.5" font-family="Helvetica,sans-Serif" font-size="10.00">/Enums/SocketTypeEnum.hpp</text>
</a>
</g>
</g>
<!-- Node12&#45;&gt;Node25 -->
<g id="edge29_Node000012_Node000025" class="edge">
<title>Node12&#45;&gt;Node25</title>
<g id="a_edge29_Node000012_Node000025"><a xlink:title=" ">
<path fill="none" stroke="#63b8ff" d="M1715,-143.82C1823.98,-139.19 2063.98,-126.24 2264,-96 2270.55,-95.01 2277.34,-93.81 2284.11,-92.51"/>
<polygon fill="#63b8ff" stroke="#63b8ff" points="2284.87,-95.92 2293.99,-90.53 2283.49,-89.06 2284.87,-95.92"/>
</a>
</g>
</g>
<!-- Node26 -->
<g id="Node000026" class="node">
<title>Node26</title>
<g id="a_Node000026"><a xlink:href="_linux_2_encrypt_status_enum_8hpp.html" target="_top" xlink:title=" ">
<polygon fill="white" stroke="#666666" points="1454,-96 1302,-96 1302,-55 1454,-55 1454,-96"/>
<text text-anchor="start" x="1310" y="-84" font-family="Helvetica,sans-Serif" font-size="10.00">Hermes/_base/OsApi</text>
<text text-anchor="start" x="1310" y="-73" font-family="Helvetica,sans-Serif" font-size="10.00">/Enums/Linux/EncryptStatus</text>
<text text-anchor="middle" x="1378" y="-62" font-family="Helvetica,sans-Serif" font-size="10.00">Enum.hpp</text>
</a>
</g>
</g>
<!-- Node12&#45;&gt;Node26 -->
<g id="edge31_Node000012_Node000026" class="edge">
<title>Node12&#45;&gt;Node26</title>
<g id="a_edge31_Node000012_Node000026"><a xlink:title=" ">
<path fill="none" stroke="#63b8ff" d="M1599.74,-131.94C1560.8,-122.2 1508.24,-109.06 1464.06,-98.02"/>
<polygon fill="#63b8ff" stroke="#63b8ff" points="1464.74,-94.58 1454.19,-95.55 1463.05,-101.37 1464.74,-94.58"/>
</a>
</g>
</g>
<!-- Node27 -->
<g id="Node000027" class="node">
<title>Node27</title>
<g id="a_Node000027"><a xlink:href="_name_info_flags_8hpp.html" target="_top" xlink:title=" ">
<polygon fill="white" stroke="#666666" points="1042,-90.5 898,-90.5 898,-60.5 1042,-60.5 1042,-90.5"/>
<text text-anchor="start" x="906" y="-78.5" font-family="Helvetica,sans-Serif" font-size="10.00">Hermes/_base/OsApi</text>
<text text-anchor="middle" x="970" y="-67.5" font-family="Helvetica,sans-Serif" font-size="10.00">/Flags/NameInfoFlags.hpp</text>
</a>
</g>
</g>
<!-- Node12&#45;&gt;Node27 -->
<g id="edge32_Node000012_Node000027" class="edge">
<title>Node12&#45;&gt;Node27</title>
<g id="a_edge32_Node000012_Node000027"><a xlink:title=" ">
<path fill="none" stroke="#63b8ff" d="M1596.81,-144.13C1488.08,-140.02 1249.49,-127.9 1051,-96 1045.24,-95.07 1039.28,-93.95 1033.33,-92.73"/>
<polygon fill="#63b8ff" stroke="#63b8ff" points="1033.87,-89.26 1023.36,-90.57 1032.39,-96.11 1033.87,-89.26"/>
</a>
</g>
</g>
<!-- Node28 -->
<g id="Node000028" class="node">
<title>Node28</title>
<g id="a_Node000028"><a xlink:href="_linux_2_credential_flags_8hpp.html" target="_top" xlink:title=" ">
<polygon fill="white" stroke="#666666" points="1648,-90.5 1472,-90.5 1472,-60.5 1648,-60.5 1648,-90.5"/>
<text text-anchor="start" x="1480" y="-78.5" font-family="Helvetica,sans-Serif" font-size="10.00">Hermes/_base/OsApi</text>
<text text-anchor="middle" x="1560" y="-67.5" font-family="Helvetica,sans-Serif" font-size="10.00">/Flags/Linux/CredentialFlags.hpp</text>
</a>
</g>
</g>
<!-- Node12&#45;&gt;Node28 -->
<g id="edge34_Node000012_Node000028" class="edge">
<title>Node12&#45;&gt;Node28</title>
<g id="a_edge34_Node000012_Node000028"><a xlink:title=" ">
<path fill="none" stroke="#63b8ff" d="M1636.57,-131.94C1622.52,-121.76 1603.33,-107.87 1587.68,-96.54"/>
<polygon fill="#63b8ff" stroke="#63b8ff" points="1589.55,-93.57 1579.4,-90.54 1585.45,-99.24 1589.55,-93.57"/>
</a>
</g>
</g>
<!-- Node29 -->
<g id="Node000029" class="node">
<title>Node29</title>
<g id="a_Node000029"><a xlink:href="_linux_2_supported_protocols_flags_8hpp.html" target="_top" xlink:title=" ">
<polygon fill="white" stroke="#666666" points="1839.5,-96 1666.5,-96 1666.5,-55 1839.5,-55 1839.5,-96"/>
<text text-anchor="start" x="1674.5" y="-84" font-family="Helvetica,sans-Serif" font-size="10.00">Hermes/_base/OsApi</text>
<text text-anchor="start" x="1674.5" y="-73" font-family="Helvetica,sans-Serif" font-size="10.00">/Flags/Linux/SupportedProtocols</text>
<text text-anchor="middle" x="1753" y="-62" font-family="Helvetica,sans-Serif" font-size="10.00">Flags.hpp</text>
</a>
</g>
</g>
<!-- Node12&#45;&gt;Node29 -->
<g id="edge35_Node000012_Node000029" class="edge">
<title>Node12&#45;&gt;Node29</title>
<g id="a_edge35_Node000012_Node000029"><a xlink:title=" ">
<path fill="none" stroke="#63b8ff" d="M1675.63,-131.94C1687.55,-123.4 1703.13,-112.23 1717.18,-102.17"/>
<polygon fill="#63b8ff" stroke="#63b8ff" points="1719.59,-104.74 1725.68,-96.07 1715.51,-99.05 1719.59,-104.74"/>
</a>
</g>
</g>
<!-- Node30 -->
<g id="Node000030" class="node">
<title>Node30</title>
<g id="a_Node000030"><a xlink:href="_linux_2_s_channel_cred_flags_8hpp.html" target="_top" xlink:title=" ">
<polygon fill="white" stroke="#666666" points="2052,-90.5 1858,-90.5 1858,-60.5 2052,-60.5 2052,-90.5"/>
<text text-anchor="start" x="1866" y="-78.5" font-family="Helvetica,sans-Serif" font-size="10.00">Hermes/_base/OsApi</text>
<text text-anchor="middle" x="1955" y="-67.5" font-family="Helvetica,sans-Serif" font-size="10.00">/Flags/Linux/SChannelCredFlags.hpp</text>
</a>
</g>
</g>
<!-- Node12&#45;&gt;Node30 -->
<g id="edge36_Node000012_Node000030" class="edge">
<title>Node12&#45;&gt;Node30</title>
<g id="a_edge36_Node000012_Node000030"><a xlink:title=" ">
<path fill="none" stroke="#63b8ff" d="M1715.07,-132.27C1763.92,-120.92 1833.39,-104.77 1885.02,-92.77"/>
<polygon fill="#63b8ff" stroke="#63b8ff" points="1885.82,-96.17 1894.77,-90.5 1884.24,-89.36 1885.82,-96.17"/>
</a>
</g>
</g>
<!-- Node19 -->
<g id="Node000019" class="node">
<title>Node19</title>
<g id="a_Node000019"><a xlink:title=" ">
<polygon fill="#e0e0e0" stroke="#999999" points="1234,-19 1184,-19 1184,0 1234,0 1234,-19"/>
<text text-anchor="middle" x="1209" y="-7" font-family="Helvetica,sans-Serif" font-size="10.00">cstdint</text>
</a>
</g>
</g>
<!-- Node18&#45;&gt;Node19 -->
<g id="edge19_Node000018_Node000019" class="edge">
<title>Node18&#45;&gt;Node19</title>
<g id="a_edge19_Node000018_Node000019"><a xlink:title=" ">
<path fill="none" stroke="#63b8ff" d="M1209,-60.3C1209,-51.2 1209,-39.29 1209,-29.4"/>
<polygon fill="#63b8ff" stroke="#63b8ff" points="1212.5,-29.34 1209,-19.34 1205.5,-29.34 1212.5,-29.34"/>
</a>
</g>
</g>
<!-- Node20&#45;&gt;Node13 -->
<g id="edge22_Node000020_Node000013" class="edge">
<title>Node20&#45;&gt;Node13</title>
<g id="a_edge22_Node000020_Node000013"><a xlink:title=" ">
<path fill="none" stroke="#63b8ff" d="M2692.56,-60.42C2685.69,-58.51 2678.68,-56.65 2672,-55 2615.98,-41.14 2550.98,-27.97 2507.66,-19.61"/>
<polygon fill="#63b8ff" stroke="#63b8ff" points="2508.15,-16.14 2497.67,-17.69 2506.83,-23.02 2508.15,-16.14"/>
</a>
</g>
</g>
<!-- Node21 -->
<g id="Node000021" class="node">
<title>Node21</title>
<g id="a_Node000021"><a xlink:title=" ">
<polygon fill="#e0e0e0" stroke="#999999" points="2776.5,-19 2703.5,-19 2703.5,0 2776.5,0 2776.5,-19"/>
<text text-anchor="middle" x="2740" y="-7" font-family="Helvetica,sans-Serif" font-size="10.00">string_view</text>
</a>
</g>
</g>
<!-- Node20&#45;&gt;Node21 -->
<g id="edge21_Node000020_Node000021" class="edge">
<title>Node20&#45;&gt;Node21</title>
<g id="a_edge21_Node000020_Node000021"><a xlink:title=" ">
<path fill="none" stroke="#63b8ff" d="M2740,-60.3C2740,-51.2 2740,-39.29 2740,-29.4"/>
<polygon fill="#63b8ff" stroke="#63b8ff" points="2743.5,-29.34 2740,-19.34 2736.5,-29.34 2743.5,-29.34"/>
</a>
</g>
</g>
<!-- Node22&#45;&gt;Node13 -->
<g id="edge24_Node000022_Node000013" class="edge">
<title>Node22&#45;&gt;Node13</title>
<g id="a_edge24_Node000022_Node000013"><a xlink:title=" ">
<path fill="none" stroke="#63b8ff" d="M2549.54,-60.45C2529.83,-49.58 2502.69,-34.61 2483.28,-23.9"/>
<polygon fill="#63b8ff" stroke="#63b8ff" points="2484.88,-20.78 2474.44,-19.02 2481.5,-26.91 2484.88,-20.78"/>
</a>
</g>
</g>
<!-- Node23&#45;&gt;Node14 -->
<g id="edge26_Node000023_Node000014" class="edge">
<title>Node23&#45;&gt;Node14</title>
<g id="a_edge26_Node000023_Node000014"><a xlink:title=" ">
<path fill="none" stroke="#63b8ff" d="M2937.68,-60.3C2928.42,-50.42 2916.05,-37.22 2906.37,-26.89"/>
<polygon fill="#63b8ff" stroke="#63b8ff" points="2908.68,-24.25 2899.29,-19.34 2903.58,-29.03 2908.68,-24.25"/>
</a>
</g>
</g>
<!-- Node24&#45;&gt;Node13 -->
<g id="edge28_Node000024_Node000013" class="edge">
<title>Node24&#45;&gt;Node13</title>
<g id="a_edge28_Node000024_Node000013"><a xlink:title=" ">
<path fill="none" stroke="#63b8ff" d="M2227.18,-60.45C2282.45,-48.54 2360.5,-31.73 2410.42,-20.97"/>
<polygon fill="#63b8ff" stroke="#63b8ff" points="2411.29,-24.36 2420.33,-18.83 2409.81,-17.52 2411.29,-24.36"/>
</a>
</g>
</g>
<!-- Node25&#45;&gt;Node13 -->
<g id="edge30_Node000025_Node000013" class="edge">
<title>Node25&#45;&gt;Node13</title>
<g id="a_edge30_Node000025_Node000013"><a xlink:title=" ">
<path fill="none" stroke="#63b8ff" d="M2375.48,-60.45C2393.5,-49.68 2418.24,-34.88 2436.11,-24.19"/>
<polygon fill="#63b8ff" stroke="#63b8ff" points="2437.97,-27.15 2444.76,-19.02 2434.38,-21.15 2437.97,-27.15"/>
</a>
</g>
</g>
<!-- Node27&#45;&gt;Node16 -->
<g id="edge33_Node000027_Node000016" class="edge">
<title>Node27&#45;&gt;Node16</title>
<g id="a_edge33_Node000027_Node000016"><a xlink:title=" ">
<path fill="none" stroke="#63b8ff" d="M958.9,-60.3C951.34,-50.61 941.28,-37.74 933.29,-27.51"/>
<polygon fill="#63b8ff" stroke="#63b8ff" points="935.82,-25.07 926.91,-19.34 930.31,-29.38 935.82,-25.07"/>
</a>
</g>
</g>
</g>
</svg>
