<?xml version="1.0" encoding="UTF-8" standalone="no"?>
<!DOCTYPE svg PUBLIC "-//W3C//DTD SVG 1.1//EN"
 "http://www.w3.org/Graphics/SVG/1.1/DTD/svg11.dtd">
<!-- Generated by graphviz version 2.43.0 (0)
 -->
<!-- Title: include/Hermes/Utils/ToBytes.hpp Pages: 1 -->
<svg width="4014pt" height="357pt"
 viewBox="0.00 0.00 4014.00 357.00" xmlns="http://www.w3.org/2000/svg" xmlns:xlink="http://www.w3.org/1999/xlink">
<g id="graph0" class="graph" transform="scale(1 1) rotate(0) translate(4 353)">
<title>include/Hermes/Utils/ToBytes.hpp</title>
<!-- Node1 -->
<g id="Node000001" class="node">
<title>Node1</title>
<g id="a_Node000001"><a xlink:title=" ">
<polygon fill="#999999" stroke="#666666" points="298.5,-349 179.5,-349 179.5,-319 298.5,-319 298.5,-349"/>
<text text-anchor="start" x="187.5" y="-337" font-family="Helvetica,sans-Serif" font-size="10.00">include/Hermes/Utils</text>
<text text-anchor="middle" x="239" y="-326" font-family="Helvetica,sans-Serif" font-size="10.00">/ToBytes.hpp</text>
</a>
</g>
</g>
<!-- Node2 -->
<g id="Node000002" class="node">
<title>Node2</title>
<g id="a_Node000002"><a xlink:title=" ">
<polygon fill="#e0e0e0" stroke="#999999" points="40,-85 0,-85 0,-66 40,-66 40,-85"/>
<text text-anchor="middle" x="20" y="-73" font-family="Helvetica,sans-Serif" font-size="10.00">span</text>
</a>
</g>
</g>
<!-- Node1&#45;&gt;Node2 -->
<g id="edge1_Node000001_Node000002" class="edge">
<title>Node1&#45;&gt;Node2</title>
<g id="a_edge1_Node000001_Node000002"><a xlink:title=" ">
<path fill="none" stroke="#63b8ff" d="M226.91,-318.84C189.26,-274.75 74.22,-140 34.03,-92.93"/>
<polygon fill="#63b8ff" stroke="#63b8ff" points="36.59,-90.54 27.43,-85.21 31.27,-95.09 36.59,-90.54"/>
</a>
</g>
</g>
<!-- Node3 -->
<g id="Node000003" class="node">
<title>Node3</title>
<g id="a_Node000003"><a xlink:href="__base_8hpp.html" target="_top" xlink:title=" ">
<polygon fill="white" stroke="#666666" points="530.5,-283 387.5,-283 387.5,-264 530.5,-264 530.5,-283"/>
<text text-anchor="middle" x="459" y="-271" font-family="Helvetica,sans-Serif" font-size="10.00">Hermes/Socket/_base.hpp</text>
</a>
</g>
</g>
<!-- Node1&#45;&gt;Node3 -->
<g id="edge2_Node000001_Node000003" class="edge">
<title>Node1&#45;&gt;Node3</title>
<g id="a_edge2_Node000001_Node000003"><a xlink:title=" ">
<path fill="none" stroke="#63b8ff" d="M291.7,-318.99C329.99,-308.8 381.14,-295.2 416.77,-285.73"/>
<polygon fill="#63b8ff" stroke="#63b8ff" points="418.07,-289.01 426.83,-283.05 416.27,-282.24 418.07,-289.01"/>
</a>
</g>
</g>
<!-- Node4 -->
<g id="Node000004" class="node">
<title>Node4</title>
<g id="a_Node000004"><a xlink:href="_endpoint_concept_8hpp.html" target="_top" xlink:title=" ">
<polygon fill="white" stroke="#666666" points="431,-228 299,-228 299,-198 431,-198 431,-228"/>
<text text-anchor="start" x="307" y="-216" font-family="Helvetica,sans-Serif" font-size="10.00">Hermes/Endpoint/_base</text>
<text text-anchor="middle" x="365" y="-205" font-family="Helvetica,sans-Serif" font-size="10.00">/EndpointConcept.hpp</text>
</a>
</g>
</g>
<!-- Node3&#45;&gt;Node4 -->
<g id="edge3_Node000003_Node000004" class="edge">
<title>Node3&#45;&gt;Node4</title>
<g id="a_edge3_Node000003_Node000004"><a xlink:title=" ">
<path fill="none" stroke="#63b8ff" d="M445.13,-263.87C432.38,-255.93 413,-243.87 396.49,-233.6"/>
<polygon fill="#63b8ff" stroke="#63b8ff" points="398.02,-230.43 387.68,-228.11 394.32,-236.37 398.02,-230.43"/>
</a>
</g>
</g>
<!-- Node5 -->
<g id="Node000005" class="node">
<title>Node5</title>
<g id="a_Node000005"><a xlink:href="_connection_error_enum_8hpp.html" target="_top" xlink:title=" ">
<polygon fill="white" stroke="#666666" points="354.5,-162 187.5,-162 187.5,-132 354.5,-132 354.5,-162"/>
<text text-anchor="start" x="195.5" y="-150" font-family="Helvetica,sans-Serif" font-size="10.00">Hermes/_base/ConnectionError</text>
<text text-anchor="middle" x="271" y="-139" font-family="Helvetica,sans-Serif" font-size="10.00">Enum.hpp</text>
</a>
</g>
</g>
<!-- Node3&#45;&gt;Node5 -->
<g id="edge53_Node000003_Node000005" class="edge">
<title>Node3&#45;&gt;Node5</title>
<g id="a_edge53_Node000003_Node000005"><a xlink:title=" ">
<path fill="none" stroke="#63b8ff" d="M387.27,-270.11C353.51,-265.27 315.22,-253.84 290,-228 275.72,-213.36 271.47,-190.05 270.5,-172.36"/>
<polygon fill="#63b8ff" stroke="#63b8ff" points="273.99,-172.12 270.26,-162.2 267,-172.28 273.99,-172.12"/>
</a>
</g>
</g>
<!-- Node8 -->
<g id="Node000008" class="node">
<title>Node8</title>
<g id="a_Node000008"><a xlink:title=" ">
<polygon fill="#e0e0e0" stroke="#999999" points="666.5,-85 541.5,-85 541.5,-66 666.5,-66 666.5,-85"/>
<text text-anchor="middle" x="604" y="-73" font-family="Helvetica,sans-Serif" font-size="10.00">stdexec/execution.hpp</text>
</a>
</g>
</g>
<!-- Node3&#45;&gt;Node8 -->
<g id="edge54_Node000003_Node000008" class="edge">
<title>Node3&#45;&gt;Node8</title>
<g id="a_edge54_Node000003_Node000008"><a xlink:title=" ">
<path fill="none" stroke="#63b8ff" d="M459.69,-263.65C461.15,-249.07 465.52,-219.46 478,-198 504.88,-151.77 554.33,-111.69 582.63,-91.15"/>
<polygon fill="#63b8ff" stroke="#63b8ff" points="584.9,-93.83 591.02,-85.18 580.84,-88.13 584.9,-93.83"/>
</a>
</g>
</g>
<!-- Node38 -->
<g id="Node000038" class="node">
<title>Node38</title>
<g id="a_Node000038"><a xlink:title=" ">
<polygon fill="#e0e0e0" stroke="#999999" points="547,-222.5 487,-222.5 487,-203.5 547,-203.5 547,-222.5"/>
<text text-anchor="middle" x="517" y="-210.5" font-family="Helvetica,sans-Serif" font-size="10.00">concepts</text>
</a>
</g>
</g>
<!-- Node3&#45;&gt;Node38 -->
<g id="edge55_Node000003_Node000038" class="edge">
<title>Node3&#45;&gt;Node38</title>
<g id="a_edge55_Node000003_Node000038"><a xlink:title=" ">
<path fill="none" stroke="#63b8ff" d="M467.56,-263.87C476.38,-254.97 490.34,-240.89 501.18,-229.95"/>
<polygon fill="#63b8ff" stroke="#63b8ff" points="503.85,-232.23 508.41,-222.67 498.88,-227.3 503.85,-232.23"/>
</a>
</g>
</g>
<!-- Node39 -->
<g id="Node000039" class="node">
<title>Node39</title>
<g id="a_Node000039"><a xlink:title=" ">
<polygon fill="#e0e0e0" stroke="#999999" points="629,-222.5 565,-222.5 565,-203.5 629,-203.5 629,-222.5"/>
<text text-anchor="middle" x="597" y="-210.5" font-family="Helvetica,sans-Serif" font-size="10.00">generator</text>
</a>
</g>
</g>
<!-- Node3&#45;&gt;Node39 -->
<g id="edge56_Node000003_Node000039" class="edge">
<title>Node3&#45;&gt;Node39</title>
<g id="a_edge56_Node000003_Node000039"><a xlink:title=" ">
<path fill="none" stroke="#63b8ff" d="M479.07,-263.99C502.37,-254.12 541.01,-237.73 567.68,-226.43"/>
<polygon fill="#63b8ff" stroke="#63b8ff" points="569.07,-229.64 576.91,-222.52 566.34,-223.2 569.07,-229.64"/>
</a>
</g>
</g>
<!-- Node40 -->
<g id="Node000040" class="node">
<title>Node40</title>
<g id="a_Node000040"><a xlink:title=" ">
<polygon fill="#e0e0e0" stroke="#999999" points="697,-222.5 647,-222.5 647,-203.5 697,-203.5 697,-222.5"/>
<text text-anchor="middle" x="672" y="-210.5" font-family="Helvetica,sans-Serif" font-size="10.00">ranges</text>
</a>
</g>
</g>
<!-- Node3&#45;&gt;Node40 -->
<g id="edge57_Node000003_Node000040" class="edge">
<title>Node3&#45;&gt;Node40</title>
<g id="a_edge57_Node000003_Node000040"><a xlink:title=" ">
<path fill="none" stroke="#63b8ff" d="M500.73,-263.95C537.32,-256.02 591.75,-243.18 638,-228 639.63,-227.47 641.28,-226.89 642.95,-226.29"/>
<polygon fill="#63b8ff" stroke="#63b8ff" points="644.34,-229.5 652.41,-222.64 641.82,-222.97 644.34,-229.5"/>
</a>
</g>
</g>
<!-- Node4&#45;&gt;Node5 -->
<g id="edge4_Node000004_Node000005" class="edge">
<title>Node4&#45;&gt;Node5</title>
<g id="a_edge4_Node000004_Node000005"><a xlink:title=" ">
<path fill="none" stroke="#63b8ff" d="M344.14,-197.8C331.24,-189.01 314.49,-177.61 300.27,-167.93"/>
<polygon fill="#63b8ff" stroke="#63b8ff" points="302.04,-164.9 291.8,-162.16 298.1,-170.69 302.04,-164.9"/>
</a>
</g>
</g>
<!-- Node11 -->
<g id="Node000011" class="node">
<title>Node11</title>
<g id="a_Node000011"><a xlink:href="_win_api_8hpp.html" target="_top" xlink:title=" ">
<polygon fill="white" stroke="#666666" points="1999,-162 1875,-162 1875,-132 1999,-132 1999,-162"/>
<text text-anchor="start" x="1883" y="-150" font-family="Helvetica,sans-Serif" font-size="10.00">Hermes/_base/WinApi</text>
<text text-anchor="middle" x="1937" y="-139" font-family="Helvetica,sans-Serif" font-size="10.00">/WinApi.hpp</text>
</a>
</g>
</g>
<!-- Node4&#45;&gt;Node11 -->
<g id="edge11_Node000004_Node000011" class="edge">
<title>Node4&#45;&gt;Node11</title>
<g id="a_edge11_Node000004_Node000011"><a xlink:title=" ">
<path fill="none" stroke="#63b8ff" d="M431.22,-202.79C446.56,-200.94 462.83,-199.2 478,-198 1009.05,-156.09 1651.58,-149.29 1864.56,-148.2"/>
<polygon fill="#63b8ff" stroke="#63b8ff" points="1864.69,-151.7 1874.67,-148.15 1864.66,-144.7 1864.69,-151.7"/>
</a>
</g>
</g>
<!-- Node5&#45;&gt;Node2 -->
<g id="edge7_Node000005_Node000002" class="edge">
<title>Node5&#45;&gt;Node2</title>
<g id="a_edge7_Node000005_Node000002"><a xlink:title=" ">
<path fill="none" stroke="#63b8ff" d="M187.27,-134.68C144.69,-127.07 92.81,-114.87 49,-96 45.67,-94.56 42.31,-92.74 39.12,-90.77"/>
<polygon fill="#63b8ff" stroke="#63b8ff" points="40.98,-87.81 30.73,-85.12 37.07,-93.61 40.98,-87.81"/>
</a>
</g>
</g>
<!-- Node6 -->
<g id="Node000006" class="node">
<title>Node6</title>
<g id="a_Node000006"><a xlink:title=" ">
<polygon fill="#e0e0e0" stroke="#999999" points="120,-85 58,-85 58,-66 120,-66 120,-85"/>
<text text-anchor="middle" x="89" y="-73" font-family="Helvetica,sans-Serif" font-size="10.00">expected</text>
</a>
</g>
</g>
<!-- Node5&#45;&gt;Node6 -->
<g id="edge5_Node000005_Node000006" class="edge">
<title>Node5&#45;&gt;Node6</title>
<g id="a_edge5_Node000005_Node000006"><a xlink:title=" ">
<path fill="none" stroke="#63b8ff" d="M227,-131.96C198.7,-122.58 161.31,-109.51 129,-96 124.34,-94.05 119.46,-91.83 114.77,-89.6"/>
<polygon fill="#63b8ff" stroke="#63b8ff" points="116.06,-86.34 105.54,-85.09 112.99,-92.63 116.06,-86.34"/>
</a>
</g>
</g>
<!-- Node7 -->
<g id="Node000007" class="node">
<title>Node7</title>
<g id="a_Node000007"><a xlink:title=" ">
<polygon fill="#e0e0e0" stroke="#999999" points="185.5,-85 138.5,-85 138.5,-66 185.5,-66 185.5,-85"/>
<text text-anchor="middle" x="162" y="-73" font-family="Helvetica,sans-Serif" font-size="10.00">vector</text>
</a>
</g>
</g>
<!-- Node5&#45;&gt;Node7 -->
<g id="edge6_Node000005_Node000007" class="edge">
<title>Node5&#45;&gt;Node7</title>
<g id="a_edge6_Node000005_Node000007"><a xlink:title=" ">
<path fill="none" stroke="#63b8ff" d="M248.94,-131.94C230.02,-119.87 202.89,-102.57 183.98,-90.52"/>
<polygon fill="#63b8ff" stroke="#63b8ff" points="185.75,-87.49 175.44,-85.07 181.99,-93.4 185.75,-87.49"/>
</a>
</g>
</g>
<!-- Node5&#45;&gt;Node8 -->
<g id="edge8_Node000005_Node000008" class="edge">
<title>Node5&#45;&gt;Node8</title>
<g id="a_edge8_Node000005_Node000008"><a xlink:title=" ">
<path fill="none" stroke="#63b8ff" d="M352.74,-131.97C404.36,-122.71 472.32,-109.78 532,-96 542.61,-93.55 554.03,-90.6 564.57,-87.75"/>
<polygon fill="#63b8ff" stroke="#63b8ff" points="565.63,-91.09 574.35,-85.07 563.78,-84.34 565.63,-91.09"/>
</a>
</g>
</g>
<!-- Node9 -->
<g id="Node000009" class="node">
<title>Node9</title>
<g id="a_Node000009"><a xlink:title=" ">
<polygon fill="#e0e0e0" stroke="#999999" points="338,-85 204,-85 204,-66 338,-66 338,-85"/>
<text text-anchor="middle" x="271" y="-73" font-family="Helvetica,sans-Serif" font-size="10.00">exec/any_sender_of.hpp</text>
</a>
</g>
</g>
<!-- Node5&#45;&gt;Node9 -->
<g id="edge9_Node000005_Node000009" class="edge">
<title>Node5&#45;&gt;Node9</title>
<g id="a_edge9_Node000005_Node000009"><a xlink:title=" ">
<path fill="none" stroke="#63b8ff" d="M271,-131.94C271,-121.46 271,-107.05 271,-95.55"/>
<polygon fill="#63b8ff" stroke="#63b8ff" points="274.5,-95.27 271,-85.27 267.5,-95.27 274.5,-95.27"/>
</a>
</g>
</g>
<!-- Node10 -->
<g id="Node000010" class="node">
<title>Node10</title>
<g id="a_Node000010"><a xlink:title=" ">
<polygon fill="#e0e0e0" stroke="#999999" points="523.5,-90.5 356.5,-90.5 356.5,-60.5 523.5,-60.5 523.5,-90.5"/>
<text text-anchor="start" x="364.5" y="-78.5" font-family="Helvetica,sans-Serif" font-size="10.00">Hermes/_base/ConnectionError</text>
<text text-anchor="middle" x="440" y="-67.5" font-family="Helvetica,sans-Serif" font-size="10.00">Enum.tpp</text>
</a>
</g>
</g>
<!-- Node5&#45;&gt;Node10 -->
<g id="edge10_Node000005_Node000010" class="edge">
<title>Node5&#45;&gt;Node10</title>
<g id="a_edge10_Node000005_Node000010"><a xlink:title=" ">
<path fill="none" stroke="#63b8ff" d="M305.2,-131.94C331.54,-121.1 368.14,-106.05 396.56,-94.37"/>
<polygon fill="#63b8ff" stroke="#63b8ff" points="397.93,-97.58 405.85,-90.54 395.27,-91.11 397.93,-97.58"/>
</a>
</g>
</g>
<!-- Node12 -->
<g id="Node000012" class="node">
<title>Node12</title>
<g id="a_Node000012"><a xlink:title=" ">
<polygon fill="#e0e0e0" stroke="#999999" points="753.5,-85 684.5,-85 684.5,-66 753.5,-66 753.5,-85"/>
<text text-anchor="middle" x="719" y="-73" font-family="Helvetica,sans-Serif" font-size="10.00">ws2tcpip.h</text>
</a>
</g>
</g>
<!-- Node11&#45;&gt;Node12 -->
<g id="edge12_Node000011_Node000012" class="edge">
<title>Node11&#45;&gt;Node12</title>
<g id="a_edge12_Node000011_Node000012"><a xlink:title=" ">
<path fill="none" stroke="#63b8ff" d="M1874.92,-146.08C1664.89,-145.92 982.16,-141.81 768,-96 760.49,-94.39 752.64,-91.75 745.48,-88.91"/>
<polygon fill="#63b8ff" stroke="#63b8ff" points="746.82,-85.68 736.24,-85.01 744.1,-92.13 746.82,-85.68"/>
</a>
</g>
</g>
<!-- Node13 -->
<g id="Node000013" class="node">
<title>Node13</title>
<g id="a_Node000013"><a xlink:title=" ">
<polygon fill="#e0e0e0" stroke="#999999" points="936.5,-19 865.5,-19 865.5,0 936.5,0 936.5,-19"/>
<text text-anchor="middle" x="901" y="-7" font-family="Helvetica,sans-Serif" font-size="10.00">winsock2.h</text>
</a>
</g>
</g>
<!-- Node11&#45;&gt;Node13 -->
<g id="edge13_Node000011_Node000013" class="edge">
<title>Node11&#45;&gt;Node13</title>
<g id="a_edge13_Node000011_Node000013"><a xlink:title=" ">
<path fill="none" stroke="#63b8ff" d="M1874.81,-145.55C1646.03,-143.59 862.44,-134.12 826,-96 813.41,-82.83 816.98,-70.83 826,-55 834.3,-40.43 849.45,-30.14 863.98,-23.15"/>
<polygon fill="#63b8ff" stroke="#63b8ff" points="865.61,-26.25 873.35,-19.02 862.79,-19.85 865.61,-26.25"/>
</a>
</g>
</g>
<!-- Node14 -->
<g id="Node000014" class="node">
<title>Node14</title>
<g id="a_Node000014"><a xlink:title=" ">
<polygon fill="#e0e0e0" stroke="#999999" points="1142.5,-19 1073.5,-19 1073.5,0 1142.5,0 1142.5,-19"/>
<text text-anchor="middle" x="1108" y="-7" font-family="Helvetica,sans-Serif" font-size="10.00">schannel.h</text>
</a>
</g>
</g>
<!-- Node11&#45;&gt;Node14 -->
<g id="edge14_Node000011_Node000014" class="edge">
<title>Node11&#45;&gt;Node14</title>
<g id="a_edge14_Node000011_Node000014"><a xlink:title=" ">
<path fill="none" stroke="#63b8ff" d="M1874.76,-145.51C1647.66,-143.44 874.96,-133.64 839,-96 826.41,-82.83 827.21,-68.9 839,-55 867.21,-21.74 994.21,-13.3 1063.14,-11.19"/>
<polygon fill="#63b8ff" stroke="#63b8ff" points="1063.38,-14.68 1073.28,-10.91 1063.19,-7.69 1063.38,-14.68"/>
</a>
</g>
</g>
<!-- Node15 -->
<g id="Node000015" class="node">
<title>Node15</title>
<g id="a_Node000015"><a xlink:title=" ">
<polygon fill="#e0e0e0" stroke="#999999" points="1959.5,-19 1914.5,-19 1914.5,0 1959.5,0 1959.5,-19"/>
<text text-anchor="middle" x="1937" y="-7" font-family="Helvetica,sans-Serif" font-size="10.00">sspi.h</text>
</a>
</g>
</g>
<!-- Node11&#45;&gt;Node15 -->
<g id="edge15_Node000011_Node000015" class="edge">
<title>Node11&#45;&gt;Node15</title>
<g id="a_edge15_Node000011_Node000015"><a xlink:title=" ">
<path fill="none" stroke="#63b8ff" d="M1874.95,-146.77C1782.16,-146.45 1614.03,-139.66 1576,-96 1564.03,-82.26 1563.93,-68.65 1576,-55 1597.61,-30.56 1819.59,-16.58 1904.35,-12.1"/>
<polygon fill="#63b8ff" stroke="#63b8ff" points="1904.64,-15.59 1914.45,-11.58 1904.28,-8.6 1904.64,-15.59"/>
</a>
</g>
</g>
<!-- Node16 -->
<g id="Node000016" class="node">
<title>Node16</title>
<g id="a_Node000016"><a xlink:href="_conversion_and_literals_8hpp.html" target="_top" xlink:title=" ">
<polygon fill="white" stroke="#666666" points="2821,-90.5 2671,-90.5 2671,-60.5 2821,-60.5 2821,-90.5"/>
<text text-anchor="start" x="2679" y="-78.5" font-family="Helvetica,sans-Serif" font-size="10.00">Hermes/_base/WinApi</text>
<text text-anchor="middle" x="2746" y="-67.5" font-family="Helvetica,sans-Serif" font-size="10.00">/ConversionAndLiterals.hpp</text>
</a>
</g>
</g>
<!-- Node11&#45;&gt;Node16 -->
<g id="edge16_Node000011_Node000016" class="edge">
<title>Node11&#45;&gt;Node16</title>
<g id="a_edge16_Node000011_Node000016"><a xlink:title=" ">
<path fill="none" stroke="#63b8ff" d="M1999.43,-145.04C2125.39,-142.36 2418.68,-132.4 2662,-96 2668.22,-95.07 2674.66,-93.92 2681.08,-92.65"/>
<polygon fill="#63b8ff" stroke="#63b8ff" points="2682.04,-96.02 2691.12,-90.56 2680.61,-89.17 2682.04,-96.02"/>
</a>
</g>
</g>
<!-- Node18 -->
<g id="Node000018" class="node">
<title>Node18</title>
<g id="a_Node000018"><a xlink:href="_macros_8hpp.html" target="_top" xlink:title=" ">
<polygon fill="white" stroke="#666666" points="1528,-90.5 1404,-90.5 1404,-60.5 1528,-60.5 1528,-90.5"/>
<text text-anchor="start" x="1412" y="-78.5" font-family="Helvetica,sans-Serif" font-size="10.00">Hermes/_base/WinApi</text>
<text text-anchor="middle" x="1466" y="-67.5" font-family="Helvetica,sans-Serif" font-size="10.00">/Macros.hpp</text>
</a>
</g>
</g>
<!-- Node11&#45;&gt;Node18 -->
<g id="edge18_Node000011_Node000018" class="edge">
<title>Node11&#45;&gt;Node18</title>
<g id="a_edge18_Node000011_Node000018"><a xlink:title=" ">
<path fill="none" stroke="#63b8ff" d="M1874.71,-140.55C1796.55,-133.15 1658.62,-118.25 1542,-96 1537.23,-95.09 1532.32,-94.06 1527.4,-92.95"/>
<polygon fill="#63b8ff" stroke="#63b8ff" points="1527.85,-89.46 1517.31,-90.59 1526.26,-96.28 1527.85,-89.46"/>
</a>
</g>
</g>
<!-- Node20 -->
<g id="Node000020" class="node">
<title>Node20</title>
<g id="a_Node000020"><a xlink:href="_address_family_enum_8hpp.html" target="_top" xlink:title=" ">
<polygon fill="white" stroke="#666666" points="3015,-90.5 2839,-90.5 2839,-60.5 3015,-60.5 3015,-90.5"/>
<text text-anchor="start" x="2847" y="-78.5" font-family="Helvetica,sans-Serif" font-size="10.00">Hermes/_base/WinApi</text>
<text text-anchor="middle" x="2927" y="-67.5" font-family="Helvetica,sans-Serif" font-size="10.00">/Enums/AddressFamilyEnum.hpp</text>
</a>
</g>
</g>
<!-- Node11&#45;&gt;Node20 -->
<g id="edge23_Node000011_Node000020" class="edge">
<title>Node11&#45;&gt;Node20</title>
<g id="a_edge23_Node000011_Node000020"><a xlink:title=" ">
<path fill="none" stroke="#63b8ff" d="M1999.26,-145.56C2145.07,-143.86 2519.83,-135.65 2830,-96 2837.87,-94.99 2846.07,-93.71 2854.2,-92.3"/>
<polygon fill="#63b8ff" stroke="#63b8ff" points="2854.87,-95.73 2864.08,-90.5 2853.62,-88.84 2854.87,-95.73"/>
</a>
</g>
</g>
<!-- Node22 -->
<g id="Node000022" class="node">
<title>Node22</title>
<g id="a_Node000022"><a xlink:href="_condition_function_enum_8hpp.html" target="_top" xlink:title=" ">
<polygon fill="white" stroke="#666666" points="3435,-90.5 3243,-90.5 3243,-60.5 3435,-60.5 3435,-90.5"/>
<text text-anchor="start" x="3251" y="-78.5" font-family="Helvetica,sans-Serif" font-size="10.00">Hermes/_base/WinApi</text>
<text text-anchor="middle" x="3339" y="-67.5" font-family="Helvetica,sans-Serif" font-size="10.00">/Enums/ConditionFunctionEnum.hpp</text>
</a>
</g>
</g>
<!-- Node11&#45;&gt;Node22 -->
<g id="edge25_Node000011_Node000022" class="edge">
<title>Node11&#45;&gt;Node22</title>
<g id="a_edge25_Node000011_Node000022"><a xlink:title=" ">
<path fill="none" stroke="#63b8ff" d="M1999.27,-144.8C2223.64,-140.28 2990.31,-123.18 3234,-96 3242.93,-95 3252.24,-93.69 3261.47,-92.2"/>
<polygon fill="#63b8ff" stroke="#63b8ff" points="3262.15,-95.64 3271.44,-90.54 3261,-88.74 3262.15,-95.64"/>
</a>
</g>
</g>
<!-- Node24 -->
<g id="Node000024" class="node">
<title>Node24</title>
<g id="a_Node000024"><a xlink:href="_encrypt_status_enum_8hpp.html" target="_top" xlink:title=" ">
<polygon fill="white" stroke="#666666" points="4006,-90.5 3834,-90.5 3834,-60.5 4006,-60.5 4006,-90.5"/>
<text text-anchor="start" x="3842" y="-78.5" font-family="Helvetica,sans-Serif" font-size="10.00">Hermes/_base/WinApi</text>
<text text-anchor="middle" x="3920" y="-67.5" font-family="Helvetica,sans-Serif" font-size="10.00">/Enums/EncryptStatusEnum.hpp</text>
</a>
</g>
</g>
<!-- Node11&#45;&gt;Node24 -->
<g id="edge27_Node000011_Node000024" class="edge">
<title>Node11&#45;&gt;Node24</title>
<g id="a_edge27_Node000011_Node000024"><a xlink:title=" ">
<path fill="none" stroke="#63b8ff" d="M1999.11,-145.82C2283.06,-144.8 3459.35,-138.04 3825,-96 3833.03,-95.08 3841.38,-93.82 3849.66,-92.37"/>
<polygon fill="#63b8ff" stroke="#63b8ff" points="3850.49,-95.78 3859.7,-90.54 3849.23,-88.89 3850.49,-95.78"/>
</a>
</g>
</g>
<!-- Node26 -->
<g id="Node000026" class="node">
<title>Node26</title>
<g id="a_Node000026"><a xlink:href="_protocol_base_type_enum_8hpp.html" target="_top" xlink:title=" ">
<polygon fill="white" stroke="#666666" points="3224.5,-90.5 3033.5,-90.5 3033.5,-60.5 3224.5,-60.5 3224.5,-90.5"/>
<text text-anchor="start" x="3041.5" y="-78.5" font-family="Helvetica,sans-Serif" font-size="10.00">Hermes/_base/WinApi</text>
<text text-anchor="middle" x="3129" y="-67.5" font-family="Helvetica,sans-Serif" font-size="10.00">/Enums/ProtocolBaseTypeEnum.hpp</text>
</a>
</g>
</g>
<!-- Node11&#45;&gt;Node26 -->
<g id="edge29_Node000011_Node000026" class="edge">
<title>Node11&#45;&gt;Node26</title>
<g id="a_edge29_Node000011_Node000026"><a xlink:title=" ">
<path fill="none" stroke="#63b8ff" d="M1999.13,-146.13C2165.72,-145.83 2635.99,-140.74 3024,-96 3032.86,-94.98 3042.1,-93.65 3051.26,-92.17"/>
<polygon fill="#63b8ff" stroke="#63b8ff" points="3051.86,-95.62 3061.15,-90.51 3050.7,-88.72 3051.86,-95.62"/>
</a>
</g>
</g>
<!-- Node27 -->
<g id="Node000027" class="node">
<title>Node27</title>
<g id="a_Node000027"><a xlink:href="_s_ch_cred_enum_8hpp.html" target="_top" xlink:title=" ">
<polygon fill="white" stroke="#666666" points="994,-90.5 848,-90.5 848,-60.5 994,-60.5 994,-90.5"/>
<text text-anchor="start" x="856" y="-78.5" font-family="Helvetica,sans-Serif" font-size="10.00">Hermes/_base/WinApi</text>
<text text-anchor="middle" x="921" y="-67.5" font-family="Helvetica,sans-Serif" font-size="10.00">/Enums/SChCredEnum.hpp</text>
</a>
</g>
</g>
<!-- Node11&#45;&gt;Node27 -->
<g id="edge31_Node000011_Node000027" class="edge">
<title>Node11&#45;&gt;Node27</title>
<g id="a_edge31_Node000011_Node000027"><a xlink:title=" ">
<path fill="none" stroke="#63b8ff" d="M1874.87,-146.52C1724.41,-146.95 1328.85,-143.08 1003,-96 996.82,-95.11 990.43,-93.97 984.06,-92.7"/>
<polygon fill="#63b8ff" stroke="#63b8ff" points="984.61,-89.24 974.1,-90.6 983.17,-96.09 984.61,-89.24"/>
</a>
</g>
</g>
<!-- Node28 -->
<g id="Node000028" class="node">
<title>Node28</title>
<g id="a_Node000028"><a xlink:href="_security_buffer_enum_8hpp.html" target="_top" xlink:title=" ">
<polygon fill="white" stroke="#666666" points="1757.5,-90.5 1584.5,-90.5 1584.5,-60.5 1757.5,-60.5 1757.5,-90.5"/>
<text text-anchor="start" x="1592.5" y="-78.5" font-family="Helvetica,sans-Serif" font-size="10.00">Hermes/_base/WinApi</text>
<text text-anchor="middle" x="1671" y="-67.5" font-family="Helvetica,sans-Serif" font-size="10.00">/Enums/SecurityBufferEnum.hpp</text>
</a>
</g>
</g>
<!-- Node11&#45;&gt;Node28 -->
<g id="edge33_Node000011_Node000028" class="edge">
<title>Node11&#45;&gt;Node28</title>
<g id="a_edge33_Node000011_Node000028"><a xlink:title=" ">
<path fill="none" stroke="#63b8ff" d="M1883.17,-131.94C1840.18,-120.7 1779.83,-104.93 1734.48,-93.09"/>
<polygon fill="#63b8ff" stroke="#63b8ff" points="1735.31,-89.69 1724.75,-90.54 1733.54,-96.46 1735.31,-89.69"/>
</a>
</g>
</g>
<!-- Node29 -->
<g id="Node000029" class="node">
<title>Node29</title>
<g id="a_Node000029"><a xlink:href="_socket_shutdown_enum_8hpp.html" target="_top" xlink:title=" ">
<polygon fill="white" stroke="#666666" points="3638.5,-90.5 3453.5,-90.5 3453.5,-60.5 3638.5,-60.5 3638.5,-90.5"/>
<text text-anchor="start" x="3461.5" y="-78.5" font-family="Helvetica,sans-Serif" font-size="10.00">Hermes/_base/WinApi</text>
<text text-anchor="middle" x="3546" y="-67.5" font-family="Helvetica,sans-Serif" font-size="10.00">/Enums/SocketShutdownEnum.hpp</text>
</a>
</g>
</g>
<!-- Node11&#45;&gt;Node29 -->
<g id="edge35_Node000011_Node000029" class="edge">
<title>Node11&#45;&gt;Node29</title>
<g id="a_edge35_Node000011_Node000029"><a xlink:title=" ">
<path fill="none" stroke="#63b8ff" d="M1999.35,-145.23C2246.43,-141.96 3157.17,-127.98 3444,-96 3452.72,-95.03 3461.82,-93.72 3470.82,-92.24"/>
<polygon fill="#63b8ff" stroke="#63b8ff" points="3471.67,-95.65 3480.93,-90.5 3470.49,-88.75 3471.67,-95.65"/>
</a>
</g>
</g>
<!-- Node30 -->
<g id="Node000030" class="node">
<title>Node30</title>
<g id="a_Node000030"><a xlink:href="_socket_type_enum_8hpp.html" target="_top" xlink:title=" ">
<polygon fill="white" stroke="#666666" points="3815.5,-90.5 3656.5,-90.5 3656.5,-60.5 3815.5,-60.5 3815.5,-90.5"/>
<text text-anchor="start" x="3664.5" y="-78.5" font-family="Helvetica,sans-Serif" font-size="10.00">Hermes/_base/WinApi</text>
<text text-anchor="middle" x="3736" y="-67.5" font-family="Helvetica,sans-Serif" font-size="10.00">/Enums/SocketTypeEnum.hpp</text>
</a>
</g>
</g>
<!-- Node11&#45;&gt;Node30 -->
<g id="edge37_Node000011_Node000030" class="edge">
<title>Node11&#45;&gt;Node30</title>
<g id="a_edge37_Node000011_Node000030"><a xlink:title=" ">
<path fill="none" stroke="#63b8ff" d="M1999.02,-145.76C2266.09,-144.47 3319.36,-136.84 3648,-96 3655.15,-95.11 3662.58,-93.91 3669.95,-92.54"/>
<polygon fill="#63b8ff" stroke="#63b8ff" points="3670.8,-95.94 3679.94,-90.58 3669.45,-89.07 3670.8,-95.94"/>
</a>
</g>
</g>
<!-- Node31 -->
<g id="Node000031" class="node">
<title>Node31</title>
<g id="a_Node000031"><a xlink:href="_credential_flags_8hpp.html" target="_top" xlink:title=" ">
<polygon fill="white" stroke="#666666" points="1922,-90.5 1776,-90.5 1776,-60.5 1922,-60.5 1922,-90.5"/>
<text text-anchor="start" x="1784" y="-78.5" font-family="Helvetica,sans-Serif" font-size="10.00">Hermes/_base/WinApi</text>
<text text-anchor="middle" x="1849" y="-67.5" font-family="Helvetica,sans-Serif" font-size="10.00">/Flags/CredentialFlags.hpp</text>
</a>
</g>
</g>
<!-- Node11&#45;&gt;Node31 -->
<g id="edge39_Node000011_Node000031" class="edge">
<title>Node11&#45;&gt;Node31</title>
<g id="a_edge39_Node000011_Node000031"><a xlink:title=" ">
<path fill="none" stroke="#63b8ff" d="M1919.19,-131.94C1906.43,-121.86 1889.04,-108.13 1874.77,-96.85"/>
<polygon fill="#63b8ff" stroke="#63b8ff" points="1876.8,-93.99 1866.78,-90.54 1872.46,-99.49 1876.8,-93.99"/>
</a>
</g>
</g>
<!-- Node32 -->
<g id="Node000032" class="node">
<title>Node32</title>
<g id="a_Node000032"><a xlink:href="_supported_protocols_flags_8hpp.html" target="_top" xlink:title=" ">
<polygon fill="white" stroke="#666666" points="1203.5,-90.5 1012.5,-90.5 1012.5,-60.5 1203.5,-60.5 1203.5,-90.5"/>
<text text-anchor="start" x="1020.5" y="-78.5" font-family="Helvetica,sans-Serif" font-size="10.00">Hermes/_base/WinApi</text>
<text text-anchor="middle" x="1108" y="-67.5" font-family="Helvetica,sans-Serif" font-size="10.00">/Flags/SupportedProtocolsFlags.hpp</text>
</a>
</g>
</g>
<!-- Node11&#45;&gt;Node32 -->
<g id="edge41_Node000011_Node000032" class="edge">
<title>Node11&#45;&gt;Node32</title>
<g id="a_edge41_Node000011_Node000032"><a xlink:title=" ">
<path fill="none" stroke="#63b8ff" d="M1874.78,-144.11C1749.23,-139.76 1456.73,-126.94 1213,-96 1204.67,-94.94 1196,-93.65 1187.38,-92.24"/>
<polygon fill="#63b8ff" stroke="#63b8ff" points="1187.74,-88.75 1177.29,-90.53 1186.57,-95.65 1187.74,-88.75"/>
</a>
</g>
</g>
<!-- Node33 -->
<g id="Node000033" class="node">
<title>Node33</title>
<g id="a_Node000033"><a xlink:href="_initialize_security_context_flags_8hpp.html" target="_top" xlink:title=" ">
<polygon fill="white" stroke="#666666" points="2109.5,-96 1940.5,-96 1940.5,-55 2109.5,-55 2109.5,-96"/>
<text text-anchor="start" x="1948.5" y="-84" font-family="Helvetica,sans-Serif" font-size="10.00">Hermes/_base/WinApi</text>
<text text-anchor="start" x="1948.5" y="-73" font-family="Helvetica,sans-Serif" font-size="10.00">/Flags/InitializeSecurityContext</text>
<text text-anchor="middle" x="2025" y="-62" font-family="Helvetica,sans-Serif" font-size="10.00">Flags.hpp</text>
</a>
</g>
</g>
<!-- Node11&#45;&gt;Node33 -->
<g id="edge43_Node000011_Node000033" class="edge">
<title>Node11&#45;&gt;Node33</title>
<g id="a_edge43_Node000011_Node000033"><a xlink:title=" ">
<path fill="none" stroke="#63b8ff" d="M1954.81,-131.94C1965.52,-123.48 1979.49,-112.44 1992.14,-102.45"/>
<polygon fill="#63b8ff" stroke="#63b8ff" points="1994.54,-105.02 2000.22,-96.07 1990.2,-99.52 1994.54,-105.02"/>
</a>
</g>
</g>
<!-- Node34 -->
<g id="Node000034" class="node">
<title>Node34</title>
<g id="a_Node000034"><a xlink:href="_initialize_security_context_return_flags_8hpp.html" target="_top" xlink:title=" ">
<polygon fill="white" stroke="#666666" points="2296.5,-96 2127.5,-96 2127.5,-55 2296.5,-55 2296.5,-96"/>
<text text-anchor="start" x="2135.5" y="-84" font-family="Helvetica,sans-Serif" font-size="10.00">Hermes/_base/WinApi</text>
<text text-anchor="start" x="2135.5" y="-73" font-family="Helvetica,sans-Serif" font-size="10.00">/Flags/InitializeSecurityContext</text>
<text text-anchor="middle" x="2212" y="-62" font-family="Helvetica,sans-Serif" font-size="10.00">ReturnFlags.hpp</text>
</a>
</g>
</g>
<!-- Node11&#45;&gt;Node34 -->
<g id="edge45_Node000011_Node000034" class="edge">
<title>Node11&#45;&gt;Node34</title>
<g id="a_edge45_Node000011_Node000034"><a xlink:title=" ">
<path fill="none" stroke="#63b8ff" d="M1992.65,-131.94C2030.58,-122.35 2081.57,-109.46 2124.85,-98.53"/>
<polygon fill="#63b8ff" stroke="#63b8ff" points="2125.97,-101.85 2134.81,-96.01 2124.26,-95.06 2125.97,-101.85"/>
</a>
</g>
</g>
<!-- Node35 -->
<g id="Node000035" class="node">
<title>Node35</title>
<g id="a_Node000035"><a xlink:href="_accept_security_context_flags_8hpp.html" target="_top" xlink:title=" ">
<polygon fill="white" stroke="#666666" points="2475,-96 2315,-96 2315,-55 2475,-55 2475,-96"/>
<text text-anchor="start" x="2323" y="-84" font-family="Helvetica,sans-Serif" font-size="10.00">Hermes/_base/WinApi</text>
<text text-anchor="start" x="2323" y="-73" font-family="Helvetica,sans-Serif" font-size="10.00">/Flags/AcceptSecurityContext</text>
<text text-anchor="middle" x="2395" y="-62" font-family="Helvetica,sans-Serif" font-size="10.00">Flags.hpp</text>
</a>
</g>
</g>
<!-- Node11&#45;&gt;Node35 -->
<g id="edge47_Node000011_Node000035" class="edge">
<title>Node11&#45;&gt;Node35</title>
<g id="a_edge47_Node000011_Node000035"><a xlink:title=" ">
<path fill="none" stroke="#63b8ff" d="M1999.26,-139.12C2070.73,-130.88 2191.65,-115.87 2304.67,-96.17"/>
<polygon fill="#63b8ff" stroke="#63b8ff" points="2305.29,-99.62 2314.53,-94.44 2304.07,-92.72 2305.29,-99.62"/>
</a>
</g>
</g>
<!-- Node36 -->
<g id="Node000036" class="node">
<title>Node36</title>
<g id="a_Node000036"><a xlink:href="_accept_security_context_return_flags_8hpp.html" target="_top" xlink:title=" ">
<polygon fill="white" stroke="#666666" points="2653,-96 2493,-96 2493,-55 2653,-55 2653,-96"/>
<text text-anchor="start" x="2501" y="-84" font-family="Helvetica,sans-Serif" font-size="10.00">Hermes/_base/WinApi</text>
<text text-anchor="start" x="2501" y="-73" font-family="Helvetica,sans-Serif" font-size="10.00">/Flags/AcceptSecurityContext</text>
<text text-anchor="middle" x="2573" y="-62" font-family="Helvetica,sans-Serif" font-size="10.00">ReturnFlags.hpp</text>
</a>
</g>
</g>
<!-- Node11&#45;&gt;Node36 -->
<g id="edge49_Node000011_Node000036" class="edge">
<title>Node11&#45;&gt;Node36</title>
<g id="a_edge49_Node000011_Node000036"><a xlink:title=" ">
<path fill="none" stroke="#63b8ff" d="M1999.24,-142.84C2099.23,-137.21 2301.92,-123.5 2482.6,-96.12"/>
<polygon fill="#63b8ff" stroke="#63b8ff" points="2483.2,-99.57 2492.55,-94.6 2482.14,-92.65 2483.2,-99.57"/>
</a>
</g>
</g>
<!-- Node37 -->
<g id="Node000037" class="node">
<title>Node37</title>
<g id="a_Node000037"><a xlink:href="_s_channel_cred_flags_8hpp.html" target="_top" xlink:title=" ">
<polygon fill="white" stroke="#666666" points="1386,-90.5 1222,-90.5 1222,-60.5 1386,-60.5 1386,-90.5"/>
<text text-anchor="start" x="1230" y="-78.5" font-family="Helvetica,sans-Serif" font-size="10.00">Hermes/_base/WinApi</text>
<text text-anchor="middle" x="1304" y="-67.5" font-family="Helvetica,sans-Serif" font-size="10.00">/Flags/SChannelCredFlags.hpp</text>
</a>
</g>
</g>
<!-- Node11&#45;&gt;Node37 -->
<g id="edge51_Node000011_Node000037" class="edge">
<title>Node11&#45;&gt;Node37</title>
<g id="a_edge51_Node000011_Node000037"><a xlink:title=" ">
<path fill="none" stroke="#63b8ff" d="M1874.93,-142.69C1773.91,-136.75 1567.82,-122.39 1395,-96 1388.35,-94.98 1381.45,-93.78 1374.56,-92.48"/>
<polygon fill="#63b8ff" stroke="#63b8ff" points="1375,-89 1364.51,-90.52 1373.65,-95.87 1375,-89"/>
</a>
</g>
</g>
<!-- Node17 -->
<g id="Node000017" class="node">
<title>Node17</title>
<g id="a_Node000017"><a xlink:title=" ">
<polygon fill="#e0e0e0" stroke="#999999" points="2771,-19 2721,-19 2721,0 2771,0 2771,-19"/>
<text text-anchor="middle" x="2746" y="-7" font-family="Helvetica,sans-Serif" font-size="10.00">cstdint</text>
</a>
</g>
</g>
<!-- Node16&#45;&gt;Node17 -->
<g id="edge17_Node000016_Node000017" class="edge">
<title>Node16&#45;&gt;Node17</title>
<g id="a_edge17_Node000016_Node000017"><a xlink:title=" ">
<path fill="none" stroke="#63b8ff" d="M2746,-60.3C2746,-51.2 2746,-39.29 2746,-29.4"/>
<polygon fill="#63b8ff" stroke="#63b8ff" points="2749.5,-29.34 2746,-19.34 2742.5,-29.34 2749.5,-29.34"/>
</a>
</g>
</g>
<!-- Node18&#45;&gt;Node13 -->
<g id="edge20_Node000018_Node000013" class="edge">
<title>Node18&#45;&gt;Node13</title>
<g id="a_edge20_Node000018_Node000013"><a xlink:title=" ">
<path fill="none" stroke="#63b8ff" d="M1419.3,-60.41C1411.25,-58.34 1402.92,-56.43 1395,-55 1309.51,-39.54 1051.88,-20.8 946.59,-13.56"/>
<polygon fill="#63b8ff" stroke="#63b8ff" points="946.8,-10.07 936.59,-12.88 946.32,-17.05 946.8,-10.07"/>
</a>
</g>
</g>
<!-- Node18&#45;&gt;Node14 -->
<g id="edge21_Node000018_Node000014" class="edge">
<title>Node18&#45;&gt;Node14</title>
<g id="a_edge21_Node000018_Node000014"><a xlink:title=" ">
<path fill="none" stroke="#63b8ff" d="M1417.68,-60.44C1410.12,-58.47 1402.37,-56.58 1395,-55 1310.06,-36.81 1209.47,-22.95 1152.76,-15.83"/>
<polygon fill="#63b8ff" stroke="#63b8ff" points="1153.05,-12.34 1142.69,-14.58 1152.18,-19.29 1153.05,-12.34"/>
</a>
</g>
</g>
<!-- Node18&#45;&gt;Node15 -->
<g id="edge22_Node000018_Node000015" class="edge">
<title>Node18&#45;&gt;Node15</title>
<g id="a_edge22_Node000018_Node000015"><a xlink:title=" ">
<path fill="none" stroke="#63b8ff" d="M1516.89,-60.41C1525.23,-58.39 1533.83,-56.5 1542,-55 1675.04,-30.56 1835.92,-17.46 1904.01,-12.66"/>
<polygon fill="#63b8ff" stroke="#63b8ff" points="1904.39,-16.14 1914.13,-11.96 1903.91,-9.16 1904.39,-16.14"/>
</a>
</g>
</g>
<!-- Node19 -->
<g id="Node000019" class="node">
<title>Node19</title>
<g id="a_Node000019"><a xlink:title=" ">
<polygon fill="#e0e0e0" stroke="#999999" points="1502.5,-19 1429.5,-19 1429.5,0 1502.5,0 1502.5,-19"/>
<text text-anchor="middle" x="1466" y="-7" font-family="Helvetica,sans-Serif" font-size="10.00">string_view</text>
</a>
</g>
</g>
<!-- Node18&#45;&gt;Node19 -->
<g id="edge19_Node000018_Node000019" class="edge">
<title>Node18&#45;&gt;Node19</title>
<g id="a_edge19_Node000018_Node000019"><a xlink:title=" ">
<path fill="none" stroke="#63b8ff" d="M1466,-60.3C1466,-51.2 1466,-39.29 1466,-29.4"/>
<polygon fill="#63b8ff" stroke="#63b8ff" points="1469.5,-29.34 1466,-19.34 1462.5,-29.34 1469.5,-29.34"/>
</a>
</g>
</g>
<!-- Node21 -->
<g id="Node000021" class="node">
<title>Node21</title>
<g id="a_Node000021"><a xlink:title=" ">
<polygon fill="#e0e0e0" stroke="#999999" points="3058,-19 2998,-19 2998,0 3058,0 3058,-19"/>
<text text-anchor="middle" x="3028" y="-7" font-family="Helvetica,sans-Serif" font-size="10.00">ws2def.h</text>
</a>
</g>
</g>
<!-- Node20&#45;&gt;Node21 -->
<g id="edge24_Node000020_Node000021" class="edge">
<title>Node20&#45;&gt;Node21</title>
<g id="a_edge24_Node000020_Node000021"><a xlink:title=" ">
<path fill="none" stroke="#63b8ff" d="M2949.42,-60.3C2966.19,-49.67 2989.01,-35.2 3005.75,-24.6"/>
<polygon fill="#63b8ff" stroke="#63b8ff" points="3007.76,-27.47 3014.34,-19.16 3004.02,-21.55 3007.76,-27.47"/>
</a>
</g>
</g>
<!-- Node23 -->
<g id="Node000023" class="node">
<title>Node23</title>
<g id="a_Node000023"><a xlink:title=" ">
<polygon fill="#e0e0e0" stroke="#999999" points="3583,-19 3509,-19 3509,0 3583,0 3583,-19"/>
<text text-anchor="middle" x="3546" y="-7" font-family="Helvetica,sans-Serif" font-size="10.00">WinSock2.h</text>
</a>
</g>
</g>
<!-- Node22&#45;&gt;Node23 -->
<g id="edge26_Node000022_Node000023" class="edge">
<title>Node22&#45;&gt;Node23</title>
<g id="a_edge26_Node000022_Node000023"><a xlink:title=" ">
<path fill="none" stroke="#63b8ff" d="M3384.43,-60.45C3421.69,-48.93 3473.8,-32.82 3508.66,-22.04"/>
<polygon fill="#63b8ff" stroke="#63b8ff" points="3509.93,-25.32 3518.45,-19.02 3507.86,-18.63 3509.93,-25.32"/>
</a>
</g>
</g>
<!-- Node25 -->
<g id="Node000025" class="node">
<title>Node25</title>
<g id="a_Node000025"><a xlink:title=" ">
<polygon fill="#e0e0e0" stroke="#999999" points="3952.5,-19 3887.5,-19 3887.5,0 3952.5,0 3952.5,-19"/>
<text text-anchor="middle" x="3920" y="-7" font-family="Helvetica,sans-Serif" font-size="10.00">winerror.h</text>
</a>
</g>
</g>
<!-- Node24&#45;&gt;Node25 -->
<g id="edge28_Node000024_Node000025" class="edge">
<title>Node24&#45;&gt;Node25</title>
<g id="a_edge28_Node000024_Node000025"><a xlink:title=" ">
<path fill="none" stroke="#63b8ff" d="M3920,-60.3C3920,-51.2 3920,-39.29 3920,-29.4"/>
<polygon fill="#63b8ff" stroke="#63b8ff" points="3923.5,-29.34 3920,-19.34 3916.5,-29.34 3923.5,-29.34"/>
</a>
</g>
</g>
<!-- Node26&#45;&gt;Node21 -->
<g id="edge30_Node000026_Node000021" class="edge">
<title>Node26&#45;&gt;Node21</title>
<g id="a_edge30_Node000026_Node000021"><a xlink:title=" ">
<path fill="none" stroke="#63b8ff" d="M3106.58,-60.3C3089.81,-49.67 3066.99,-35.2 3050.25,-24.6"/>
<polygon fill="#63b8ff" stroke="#63b8ff" points="3051.98,-21.55 3041.66,-19.16 3048.24,-27.47 3051.98,-21.55"/>
</a>
</g>
</g>
<!-- Node27&#45;&gt;Node14 -->
<g id="edge32_Node000027_Node000014" class="edge">
<title>Node27&#45;&gt;Node14</title>
<g id="a_edge32_Node000027_Node000014"><a xlink:title=" ">
<path fill="none" stroke="#63b8ff" d="M962.04,-60.45C995.41,-49.03 1041.97,-33.1 1073.46,-22.32"/>
<polygon fill="#63b8ff" stroke="#63b8ff" points="1074.79,-25.57 1083.11,-19.02 1072.52,-18.94 1074.79,-25.57"/>
</a>
</g>
</g>
<!-- Node28&#45;&gt;Node15 -->
<g id="edge34_Node000028_Node000015" class="edge">
<title>Node28&#45;&gt;Node15</title>
<g id="a_edge34_Node000028_Node000015"><a xlink:title=" ">
<path fill="none" stroke="#63b8ff" d="M1729.37,-60.45C1783.18,-47.51 1861.07,-28.77 1904.54,-18.31"/>
<polygon fill="#63b8ff" stroke="#63b8ff" points="1905.4,-21.7 1914.3,-15.96 1903.76,-14.9 1905.4,-21.7"/>
</a>
</g>
</g>
<!-- Node29&#45;&gt;Node23 -->
<g id="edge36_Node000029_Node000023" class="edge">
<title>Node29&#45;&gt;Node23</title>
<g id="a_edge36_Node000029_Node000023"><a xlink:title=" ">
<path fill="none" stroke="#63b8ff" d="M3546,-60.3C3546,-51.2 3546,-39.29 3546,-29.4"/>
<polygon fill="#63b8ff" stroke="#63b8ff" points="3549.5,-29.34 3546,-19.34 3542.5,-29.34 3549.5,-29.34"/>
</a>
</g>
</g>
<!-- Node30&#45;&gt;Node23 -->
<g id="edge38_Node000030_Node000023" class="edge">
<title>Node30&#45;&gt;Node23</title>
<g id="a_edge38_Node000030_Node000023"><a xlink:title=" ">
<path fill="none" stroke="#63b8ff" d="M3694.3,-60.45C3660.4,-49.03 3613.09,-33.1 3581.1,-22.32"/>
<polygon fill="#63b8ff" stroke="#63b8ff" points="3581.88,-18.89 3571.29,-19.02 3579.65,-25.53 3581.88,-18.89"/>
</a>
</g>
</g>
<!-- Node31&#45;&gt;Node15 -->
<g id="edge40_Node000031_Node000015" class="edge">
<title>Node31&#45;&gt;Node15</title>
<g id="a_edge40_Node000031_Node000015"><a xlink:title=" ">
<path fill="none" stroke="#63b8ff" d="M1868.53,-60.3C1882.87,-49.87 1902.3,-35.74 1916.79,-25.19"/>
<polygon fill="#63b8ff" stroke="#63b8ff" points="1919.07,-27.87 1925.09,-19.16 1914.95,-22.21 1919.07,-27.87"/>
</a>
</g>
</g>
<!-- Node32&#45;&gt;Node14 -->
<g id="edge42_Node000032_Node000014" class="edge">
<title>Node32&#45;&gt;Node14</title>
<g id="a_edge42_Node000032_Node000014"><a xlink:title=" ">
<path fill="none" stroke="#63b8ff" d="M1108,-60.3C1108,-51.2 1108,-39.29 1108,-29.4"/>
<polygon fill="#63b8ff" stroke="#63b8ff" points="1111.5,-29.34 1108,-19.34 1104.5,-29.34 1111.5,-29.34"/>
</a>
</g>
</g>
<!-- Node33&#45;&gt;Node15 -->
<g id="edge44_Node000033_Node000015" class="edge">
<title>Node33&#45;&gt;Node15</title>
<g id="a_edge44_Node000033_Node000015"><a xlink:title=" ">
<path fill="none" stroke="#63b8ff" d="M1998.12,-54.95C1984.94,-45.37 1969.34,-34.02 1957.19,-25.19"/>
<polygon fill="#63b8ff" stroke="#63b8ff" points="1959.19,-22.31 1949.05,-19.26 1955.07,-27.97 1959.19,-22.31"/>
</a>
</g>
</g>
<!-- Node34&#45;&gt;Node15 -->
<g id="edge46_Node000034_Node000015" class="edge">
<title>Node34&#45;&gt;Node15</title>
<g id="a_edge46_Node000034_Node000015"><a xlink:title=" ">
<path fill="none" stroke="#63b8ff" d="M2128,-54.95C2074.72,-42.55 2008.75,-27.2 1969.93,-18.16"/>
<polygon fill="#63b8ff" stroke="#63b8ff" points="1970.27,-14.65 1959.73,-15.79 1968.68,-21.47 1970.27,-14.65"/>
</a>
</g>
</g>
<!-- Node35&#45;&gt;Node15 -->
<g id="edge48_Node000035_Node000015" class="edge">
<title>Node35&#45;&gt;Node15</title>
<g id="a_edge48_Node000035_Node000015"><a xlink:title=" ">
<path fill="none" stroke="#63b8ff" d="M2314.54,-56.51C2311.66,-55.98 2308.81,-55.48 2306,-55 2182.46,-34.07 2034.02,-19.29 1969.54,-13.37"/>
<polygon fill="#63b8ff" stroke="#63b8ff" points="1969.85,-9.88 1959.57,-12.46 1969.21,-16.85 1969.85,-9.88"/>
</a>
</g>
</g>
<!-- Node36&#45;&gt;Node15 -->
<g id="edge50_Node000036_Node000015" class="edge">
<title>Node36&#45;&gt;Node15</title>
<g id="a_edge50_Node000036_Node000015"><a xlink:title=" ">
<path fill="none" stroke="#63b8ff" d="M2492.56,-56.37C2489.68,-55.88 2486.82,-55.42 2484,-55 2290.16,-26.02 2054.66,-14.88 1969.6,-11.62"/>
<polygon fill="#63b8ff" stroke="#63b8ff" points="1969.65,-8.12 1959.53,-11.25 1969.39,-15.12 1969.65,-8.12"/>
</a>
</g>
</g>
<!-- Node37&#45;&gt;Node14 -->
<g id="edge52_Node000037_Node000014" class="edge">
<title>Node37&#45;&gt;Node14</title>
<g id="a_edge52_Node000037_Node000014"><a xlink:title=" ">
<path fill="none" stroke="#63b8ff" d="M1260.99,-60.45C1225.86,-48.98 1176.79,-32.96 1143.78,-22.18"/>
<polygon fill="#63b8ff" stroke="#63b8ff" points="1144.68,-18.79 1134.08,-19.02 1142.5,-25.45 1144.68,-18.79"/>
</a>
</g>
</g>
</g>
</svg>
