<?xml version="1.0" encoding="UTF-8" standalone="no"?>
<!DOCTYPE svg PUBLIC "-//W3C//DTD SVG 1.1//EN"
 "http://www.w3.org/Graphics/SVG/1.1/DTD/svg11.dtd">
<!-- Generated by graphviz version 2.43.0 (0)
 -->
<!-- Title: include/Hermes/_base/WinApi/WinApi.hpp Pages: 1 -->
<svg width="3330pt" height="170pt"
 viewBox="0.00 0.00 3329.50 170.00" xmlns="http://www.w3.org/2000/svg" xmlns:xlink="http://www.w3.org/1999/xlink">
<g id="graph0" class="graph" transform="scale(1 1) rotate(0) translate(4 166)">
<title>include/Hermes/_base/WinApi/WinApi.hpp</title>
<!-- Node1 -->
<g id="Node000001" class="node">
<title>Node1</title>
<g id="a_Node000001"><a xlink:title=" ">
<polygon fill="#999999" stroke="#666666" points="1403,-162 1278,-162 1278,-132 1403,-132 1403,-162"/>
<text text-anchor="start" x="1286" y="-150" font-family="Helvetica,sans-Serif" font-size="10.00">include/Hermes/_base</text>
<text text-anchor="middle" x="1340.5" y="-139" font-family="Helvetica,sans-Serif" font-size="10.00">/WinApi/WinApi.hpp</text>
</a>
</g>
</g>
<!-- Node2 -->
<g id="Node000002" class="node">
<title>Node2</title>
<g id="a_Node000002"><a xlink:title=" ">
<polygon fill="#e0e0e0" stroke="#999999" points="69,-85 0,-85 0,-66 69,-66 69,-85"/>
<text text-anchor="middle" x="34.5" y="-73" font-family="Helvetica,sans-Serif" font-size="10.00">ws2tcpip.h</text>
</a>
</g>
</g>
<!-- Node1&#45;&gt;Node2 -->
<g id="edge1_Node000001_Node000002" class="edge">
<title>Node1&#45;&gt;Node2</title>
<g id="a_edge1_Node000001_Node000002"><a xlink:title=" ">
<path fill="none" stroke="#63b8ff" d="M1277.63,-146.3C1056.45,-146.92 315.16,-145.2 83.5,-96 75.99,-94.4 68.14,-91.76 60.98,-88.93"/>
<polygon fill="#63b8ff" stroke="#63b8ff" points="62.31,-85.69 51.74,-85.03 59.59,-92.14 62.31,-85.69"/>
</a>
</g>
</g>
<!-- Node3 -->
<g id="Node000003" class="node">
<title>Node3</title>
<g id="a_Node000003"><a xlink:title=" ">
<polygon fill="#e0e0e0" stroke="#999999" points="250,-19 179,-19 179,0 250,0 250,-19"/>
<text text-anchor="middle" x="214.5" y="-7" font-family="Helvetica,sans-Serif" font-size="10.00">winsock2.h</text>
</a>
</g>
</g>
<!-- Node1&#45;&gt;Node3 -->
<g id="edge2_Node000001_Node000003" class="edge">
<title>Node1&#45;&gt;Node3</title>
<g id="a_edge2_Node000001_Node000003"><a xlink:title=" ">
<path fill="none" stroke="#63b8ff" d="M1277.93,-145.82C1033.84,-144.81 157.05,-138.24 116.5,-96 103.88,-82.85 106.63,-70.32 116.5,-55 128.19,-36.86 149.27,-26.03 168.9,-19.61"/>
<polygon fill="#63b8ff" stroke="#63b8ff" points="170.08,-22.91 178.67,-16.71 168.09,-16.2 170.08,-22.91"/>
</a>
</g>
</g>
<!-- Node4 -->
<g id="Node000004" class="node">
<title>Node4</title>
<g id="a_Node000004"><a xlink:title=" ">
<polygon fill="#e0e0e0" stroke="#999999" points="453,-19 384,-19 384,0 453,0 453,-19"/>
<text text-anchor="middle" x="418.5" y="-7" font-family="Helvetica,sans-Serif" font-size="10.00">schannel.h</text>
</a>
</g>
</g>
<!-- Node1&#45;&gt;Node4 -->
<g id="edge3_Node000001_Node000004" class="edge">
<title>Node1&#45;&gt;Node4</title>
<g id="a_edge3_Node000001_Node000004"><a xlink:title=" ">
<path fill="none" stroke="#63b8ff" d="M1277.75,-145.23C1063.02,-142.29 369.02,-130.18 336.5,-96 323.94,-82.8 327.18,-70.66 336.5,-55 345.42,-40.02 361.34,-29.76 376.79,-22.91"/>
<polygon fill="#63b8ff" stroke="#63b8ff" points="378.33,-26.07 386.29,-19.08 375.7,-19.58 378.33,-26.07"/>
</a>
</g>
</g>
<!-- Node5 -->
<g id="Node000005" class="node">
<title>Node5</title>
<g id="a_Node000005"><a xlink:title=" ">
<polygon fill="#e0e0e0" stroke="#999999" points="1275,-19 1230,-19 1230,0 1275,0 1275,-19"/>
<text text-anchor="middle" x="1252.5" y="-7" font-family="Helvetica,sans-Serif" font-size="10.00">sspi.h</text>
</a>
</g>
</g>
<!-- Node1&#45;&gt;Node5 -->
<g id="edge4_Node000001_Node000005" class="edge">
<title>Node1&#45;&gt;Node5</title>
<g id="a_edge4_Node000001_Node000005"><a xlink:title=" ">
<path fill="none" stroke="#63b8ff" d="M1277.67,-143.58C1159.98,-138.4 915.86,-124.33 890.5,-96 878.35,-82.42 878.43,-68.65 890.5,-55 912.18,-30.5 1134.77,-16.55 1219.76,-12.09"/>
<polygon fill="#63b8ff" stroke="#63b8ff" points="1220.08,-15.58 1229.88,-11.57 1219.72,-8.59 1220.08,-15.58"/>
</a>
</g>
</g>
<!-- Node6 -->
<g id="Node000006" class="node">
<title>Node6</title>
<g id="a_Node000006"><a xlink:href="_conversion_and_literals_8hpp.html" target="_top" xlink:title=" ">
<polygon fill="white" stroke="#666666" points="2136.5,-90.5 1986.5,-90.5 1986.5,-60.5 2136.5,-60.5 2136.5,-90.5"/>
<text text-anchor="start" x="1994.5" y="-78.5" font-family="Helvetica,sans-Serif" font-size="10.00">Hermes/_base/WinApi</text>
<text text-anchor="middle" x="2061.5" y="-67.5" font-family="Helvetica,sans-Serif" font-size="10.00">/ConversionAndLiterals.hpp</text>
</a>
</g>
</g>
<!-- Node1&#45;&gt;Node6 -->
<g id="edge5_Node000001_Node000006" class="edge">
<title>Node1&#45;&gt;Node6</title>
<g id="a_edge5_Node000001_Node000006"><a xlink:title=" ">
<path fill="none" stroke="#63b8ff" d="M1403.25,-144.19C1517.89,-140.19 1768.65,-128.25 1977.5,-96 1983.62,-95.06 1989.95,-93.91 1996.27,-92.65"/>
<polygon fill="#63b8ff" stroke="#63b8ff" points="1997.08,-96.05 2006.15,-90.58 1995.65,-89.2 1997.08,-96.05"/>
</a>
</g>
</g>
<!-- Node8 -->
<g id="Node000008" class="node">
<title>Node8</title>
<g id="a_Node000008"><a xlink:href="_macros_8hpp.html" target="_top" xlink:title=" ">
<polygon fill="white" stroke="#666666" points="843.5,-90.5 719.5,-90.5 719.5,-60.5 843.5,-60.5 843.5,-90.5"/>
<text text-anchor="start" x="727.5" y="-78.5" font-family="Helvetica,sans-Serif" font-size="10.00">Hermes/_base/WinApi</text>
<text text-anchor="middle" x="781.5" y="-67.5" font-family="Helvetica,sans-Serif" font-size="10.00">/Macros.hpp</text>
</a>
</g>
</g>
<!-- Node1&#45;&gt;Node8 -->
<g id="edge7_Node000001_Node000008" class="edge">
<title>Node1&#45;&gt;Node8</title>
<g id="a_edge7_Node000001_Node000008"><a xlink:title=" ">
<path fill="none" stroke="#63b8ff" d="M1277.95,-142.49C1185.47,-136.64 1007.08,-122.78 857.5,-96 852.43,-95.09 847.21,-94.03 841.98,-92.87"/>
<polygon fill="#63b8ff" stroke="#63b8ff" points="842.49,-89.4 831.96,-90.56 840.92,-96.22 842.49,-89.4"/>
</a>
</g>
</g>
<!-- Node10 -->
<g id="Node000010" class="node">
<title>Node10</title>
<g id="a_Node000010"><a xlink:href="_address_family_enum_8hpp.html" target="_top" xlink:title=" ">
<polygon fill="white" stroke="#666666" points="2540.5,-90.5 2364.5,-90.5 2364.5,-60.5 2540.5,-60.5 2540.5,-90.5"/>
<text text-anchor="start" x="2372.5" y="-78.5" font-family="Helvetica,sans-Serif" font-size="10.00">Hermes/_base/WinApi</text>
<text text-anchor="middle" x="2452.5" y="-67.5" font-family="Helvetica,sans-Serif" font-size="10.00">/Enums/AddressFamilyEnum.hpp</text>
</a>
</g>
</g>
<!-- Node1&#45;&gt;Node10 -->
<g id="edge12_Node000001_Node000010" class="edge">
<title>Node1&#45;&gt;Node10</title>
<g id="a_edge12_Node000001_Node000010"><a xlink:title=" ">
<path fill="none" stroke="#63b8ff" d="M1403.08,-146.11C1562.45,-145.69 1996.34,-140.22 2354.5,-96 2362.52,-95.01 2370.86,-93.74 2379.15,-92.31"/>
<polygon fill="#63b8ff" stroke="#63b8ff" points="2379.97,-95.72 2389.2,-90.51 2378.74,-88.83 2379.97,-95.72"/>
</a>
</g>
</g>
<!-- Node12 -->
<g id="Node000012" class="node">
<title>Node12</title>
<g id="a_Node000012"><a xlink:href="_condition_function_enum_8hpp.html" target="_top" xlink:title=" ">
<polygon fill="white" stroke="#666666" points="2750.5,-90.5 2558.5,-90.5 2558.5,-60.5 2750.5,-60.5 2750.5,-90.5"/>
<text text-anchor="start" x="2566.5" y="-78.5" font-family="Helvetica,sans-Serif" font-size="10.00">Hermes/_base/WinApi</text>
<text text-anchor="middle" x="2654.5" y="-67.5" font-family="Helvetica,sans-Serif" font-size="10.00">/Enums/ConditionFunctionEnum.hpp</text>
</a>
</g>
</g>
<!-- Node1&#45;&gt;Node12 -->
<g id="edge14_Node000001_Node000012" class="edge">
<title>Node1&#45;&gt;Node12</title>
<g id="a_edge14_Node000001_Node000012"><a xlink:title=" ">
<path fill="none" stroke="#63b8ff" d="M1403.03,-146.54C1582.21,-147.43 2112.7,-145.34 2549.5,-96 2558.43,-94.99 2567.74,-93.67 2576.97,-92.18"/>
<polygon fill="#63b8ff" stroke="#63b8ff" points="2577.65,-95.61 2586.93,-90.51 2576.49,-88.71 2577.65,-95.61"/>
</a>
</g>
</g>
<!-- Node14 -->
<g id="Node000014" class="node">
<title>Node14</title>
<g id="a_Node000014"><a xlink:href="_encrypt_status_enum_8hpp.html" target="_top" xlink:title=" ">
<polygon fill="white" stroke="#666666" points="3321.5,-90.5 3149.5,-90.5 3149.5,-60.5 3321.5,-60.5 3321.5,-90.5"/>
<text text-anchor="start" x="3157.5" y="-78.5" font-family="Helvetica,sans-Serif" font-size="10.00">Hermes/_base/WinApi</text>
<text text-anchor="middle" x="3235.5" y="-67.5" font-family="Helvetica,sans-Serif" font-size="10.00">/Enums/EncryptStatusEnum.hpp</text>
</a>
</g>
</g>
<!-- Node1&#45;&gt;Node14 -->
<g id="edge16_Node000001_Node000014" class="edge">
<title>Node1&#45;&gt;Node14</title>
<g id="a_edge16_Node000001_Node000014"><a xlink:title=" ">
<path fill="none" stroke="#63b8ff" d="M1403.35,-145.71C1680.21,-144.2 2792.61,-135.75 3139.5,-96 3147.7,-95.06 3156.24,-93.78 3164.69,-92.31"/>
<polygon fill="#63b8ff" stroke="#63b8ff" points="3165.34,-95.75 3174.55,-90.52 3164.09,-88.87 3165.34,-95.75"/>
</a>
</g>
</g>
<!-- Node16 -->
<g id="Node000016" class="node">
<title>Node16</title>
<g id="a_Node000016"><a xlink:href="_protocol_base_type_enum_8hpp.html" target="_top" xlink:title=" ">
<polygon fill="white" stroke="#666666" points="2346,-90.5 2155,-90.5 2155,-60.5 2346,-60.5 2346,-90.5"/>
<text text-anchor="start" x="2163" y="-78.5" font-family="Helvetica,sans-Serif" font-size="10.00">Hermes/_base/WinApi</text>
<text text-anchor="middle" x="2250.5" y="-67.5" font-family="Helvetica,sans-Serif" font-size="10.00">/Enums/ProtocolBaseTypeEnum.hpp</text>
</a>
</g>
</g>
<!-- Node1&#45;&gt;Node16 -->
<g id="edge18_Node000001_Node000016" class="edge">
<title>Node1&#45;&gt;Node16</title>
<g id="a_edge18_Node000001_Node000016"><a xlink:title=" ">
<path fill="none" stroke="#63b8ff" d="M1403.11,-144.7C1538.84,-141.32 1870.16,-129.99 2145.5,-96 2153.99,-94.95 2162.83,-93.65 2171.62,-92.22"/>
<polygon fill="#63b8ff" stroke="#63b8ff" points="2172.22,-95.66 2181.5,-90.55 2171.05,-88.76 2172.22,-95.66"/>
</a>
</g>
</g>
<!-- Node17 -->
<g id="Node000017" class="node">
<title>Node17</title>
<g id="a_Node000017"><a xlink:href="_s_ch_cred_enum_8hpp.html" target="_top" xlink:title=" ">
<polygon fill="white" stroke="#666666" points="491.5,-90.5 345.5,-90.5 345.5,-60.5 491.5,-60.5 491.5,-90.5"/>
<text text-anchor="start" x="353.5" y="-78.5" font-family="Helvetica,sans-Serif" font-size="10.00">Hermes/_base/WinApi</text>
<text text-anchor="middle" x="418.5" y="-67.5" font-family="Helvetica,sans-Serif" font-size="10.00">/Enums/SChCredEnum.hpp</text>
</a>
</g>
</g>
<!-- Node1&#45;&gt;Node17 -->
<g id="edge20_Node000001_Node000017" class="edge">
<title>Node1&#45;&gt;Node17</title>
<g id="a_edge20_Node000001_Node000017"><a xlink:title=" ">
<path fill="none" stroke="#63b8ff" d="M1277.95,-145.98C1137.91,-145.14 788.83,-138.53 500.5,-96 494.32,-95.09 487.93,-93.94 481.56,-92.66"/>
<polygon fill="#63b8ff" stroke="#63b8ff" points="482.12,-89.2 471.61,-90.55 480.67,-96.05 482.12,-89.2"/>
</a>
</g>
</g>
<!-- Node18 -->
<g id="Node000018" class="node">
<title>Node18</title>
<g id="a_Node000018"><a xlink:href="_security_buffer_enum_8hpp.html" target="_top" xlink:title=" ">
<polygon fill="white" stroke="#666666" points="1073,-90.5 900,-90.5 900,-60.5 1073,-60.5 1073,-90.5"/>
<text text-anchor="start" x="908" y="-78.5" font-family="Helvetica,sans-Serif" font-size="10.00">Hermes/_base/WinApi</text>
<text text-anchor="middle" x="986.5" y="-67.5" font-family="Helvetica,sans-Serif" font-size="10.00">/Enums/SecurityBufferEnum.hpp</text>
</a>
</g>
</g>
<!-- Node1&#45;&gt;Node18 -->
<g id="edge22_Node000001_Node000018" class="edge">
<title>Node1&#45;&gt;Node18</title>
<g id="a_edge22_Node000001_Node000018"><a xlink:title=" ">
<path fill="none" stroke="#63b8ff" d="M1277.91,-134.03C1225.64,-124 1149.18,-109.23 1082.5,-96 1076.84,-94.88 1070.99,-93.71 1065.1,-92.52"/>
<polygon fill="#63b8ff" stroke="#63b8ff" points="1065.68,-89.07 1055.18,-90.53 1064.29,-95.93 1065.68,-89.07"/>
</a>
</g>
</g>
<!-- Node19 -->
<g id="Node000019" class="node">
<title>Node19</title>
<g id="a_Node000019"><a xlink:href="_socket_shutdown_enum_8hpp.html" target="_top" xlink:title=" ">
<polygon fill="white" stroke="#666666" points="2954,-90.5 2769,-90.5 2769,-60.5 2954,-60.5 2954,-90.5"/>
<text text-anchor="start" x="2777" y="-78.5" font-family="Helvetica,sans-Serif" font-size="10.00">Hermes/_base/WinApi</text>
<text text-anchor="middle" x="2861.5" y="-67.5" font-family="Helvetica,sans-Serif" font-size="10.00">/Enums/SocketShutdownEnum.hpp</text>
</a>
</g>
</g>
<!-- Node1&#45;&gt;Node19 -->
<g id="edge24_Node000001_Node000019" class="edge">
<title>Node1&#45;&gt;Node19</title>
<g id="a_edge24_Node000001_Node000019"><a xlink:title=" ">
<path fill="none" stroke="#63b8ff" d="M1403.23,-145.07C1641.57,-141.35 2490.96,-126.22 2759.5,-96 2768.16,-95.03 2777.18,-93.72 2786.12,-92.26"/>
<polygon fill="#63b8ff" stroke="#63b8ff" points="2786.89,-95.67 2796.16,-90.53 2785.71,-88.77 2786.89,-95.67"/>
</a>
</g>
</g>
<!-- Node20 -->
<g id="Node000020" class="node">
<title>Node20</title>
<g id="a_Node000020"><a xlink:href="_socket_type_enum_8hpp.html" target="_top" xlink:title=" ">
<polygon fill="white" stroke="#666666" points="3131,-90.5 2972,-90.5 2972,-60.5 3131,-60.5 3131,-90.5"/>
<text text-anchor="start" x="2980" y="-78.5" font-family="Helvetica,sans-Serif" font-size="10.00">Hermes/_base/WinApi</text>
<text text-anchor="middle" x="3051.5" y="-67.5" font-family="Helvetica,sans-Serif" font-size="10.00">/Enums/SocketTypeEnum.hpp</text>
</a>
</g>
</g>
<!-- Node1&#45;&gt;Node20 -->
<g id="edge26_Node000001_Node000020" class="edge">
<title>Node1&#45;&gt;Node20</title>
<g id="a_edge26_Node000001_Node000020"><a xlink:title=" ">
<path fill="none" stroke="#63b8ff" d="M1403.18,-145.62C1662.53,-143.79 2652.5,-134.4 2962.5,-96 2969.81,-95.09 2977.41,-93.87 2984.95,-92.48"/>
<polygon fill="#63b8ff" stroke="#63b8ff" points="2985.65,-95.91 2994.8,-90.56 2984.31,-89.04 2985.65,-95.91"/>
</a>
</g>
</g>
<!-- Node21 -->
<g id="Node000021" class="node">
<title>Node21</title>
<g id="a_Node000021"><a xlink:href="_credential_flags_8hpp.html" target="_top" xlink:title=" ">
<polygon fill="white" stroke="#666666" points="1237.5,-90.5 1091.5,-90.5 1091.5,-60.5 1237.5,-60.5 1237.5,-90.5"/>
<text text-anchor="start" x="1099.5" y="-78.5" font-family="Helvetica,sans-Serif" font-size="10.00">Hermes/_base/WinApi</text>
<text text-anchor="middle" x="1164.5" y="-67.5" font-family="Helvetica,sans-Serif" font-size="10.00">/Flags/CredentialFlags.hpp</text>
</a>
</g>
</g>
<!-- Node1&#45;&gt;Node21 -->
<g id="edge28_Node000001_Node000021" class="edge">
<title>Node1&#45;&gt;Node21</title>
<g id="a_edge28_Node000001_Node000021"><a xlink:title=" ">
<path fill="none" stroke="#63b8ff" d="M1304.88,-131.94C1277.45,-121.1 1239.34,-106.05 1209.74,-94.37"/>
<polygon fill="#63b8ff" stroke="#63b8ff" points="1210.65,-90.96 1200.06,-90.54 1208.08,-97.47 1210.65,-90.96"/>
</a>
</g>
</g>
<!-- Node22 -->
<g id="Node000022" class="node">
<title>Node22</title>
<g id="a_Node000022"><a xlink:href="_supported_protocols_flags_8hpp.html" target="_top" xlink:title=" ">
<polygon fill="white" stroke="#666666" points="701,-90.5 510,-90.5 510,-60.5 701,-60.5 701,-90.5"/>
<text text-anchor="start" x="518" y="-78.5" font-family="Helvetica,sans-Serif" font-size="10.00">Hermes/_base/WinApi</text>
<text text-anchor="middle" x="605.5" y="-67.5" font-family="Helvetica,sans-Serif" font-size="10.00">/Flags/SupportedProtocolsFlags.hpp</text>
</a>
</g>
</g>
<!-- Node1&#45;&gt;Node22 -->
<g id="edge30_Node000001_Node000022" class="edge">
<title>Node1&#45;&gt;Node22</title>
<g id="a_edge30_Node000001_Node000022"><a xlink:title=" ">
<path fill="none" stroke="#63b8ff" d="M1277.68,-143.19C1164.09,-137.63 917.17,-123.32 710.5,-96 702.31,-94.92 693.79,-93.62 685.3,-92.22"/>
<polygon fill="#63b8ff" stroke="#63b8ff" points="685.82,-88.76 675.37,-90.53 684.64,-95.66 685.82,-88.76"/>
</a>
</g>
</g>
<!-- Node23 -->
<g id="Node000023" class="node">
<title>Node23</title>
<g id="a_Node000023"><a xlink:href="_initialize_security_context_flags_8hpp.html" target="_top" xlink:title=" ">
<polygon fill="white" stroke="#666666" points="1425,-96 1256,-96 1256,-55 1425,-55 1425,-96"/>
<text text-anchor="start" x="1264" y="-84" font-family="Helvetica,sans-Serif" font-size="10.00">Hermes/_base/WinApi</text>
<text text-anchor="start" x="1264" y="-73" font-family="Helvetica,sans-Serif" font-size="10.00">/Flags/InitializeSecurityContext</text>
<text text-anchor="middle" x="1340.5" y="-62" font-family="Helvetica,sans-Serif" font-size="10.00">Flags.hpp</text>
</a>
</g>
</g>
<!-- Node1&#45;&gt;Node23 -->
<g id="edge32_Node000001_Node000023" class="edge">
<title>Node1&#45;&gt;Node23</title>
<g id="a_edge32_Node000001_Node000023"><a xlink:title=" ">
<path fill="none" stroke="#63b8ff" d="M1340.5,-131.94C1340.5,-124.52 1340.5,-115.14 1340.5,-106.2"/>
<polygon fill="#63b8ff" stroke="#63b8ff" points="1344,-106.07 1340.5,-96.07 1337,-106.07 1344,-106.07"/>
</a>
</g>
</g>
<!-- Node24 -->
<g id="Node000024" class="node">
<title>Node24</title>
<g id="a_Node000024"><a xlink:href="_initialize_security_context_return_flags_8hpp.html" target="_top" xlink:title=" ">
<polygon fill="white" stroke="#666666" points="1612,-96 1443,-96 1443,-55 1612,-55 1612,-96"/>
<text text-anchor="start" x="1451" y="-84" font-family="Helvetica,sans-Serif" font-size="10.00">Hermes/_base/WinApi</text>
<text text-anchor="start" x="1451" y="-73" font-family="Helvetica,sans-Serif" font-size="10.00">/Flags/InitializeSecurityContext</text>
<text text-anchor="middle" x="1527.5" y="-62" font-family="Helvetica,sans-Serif" font-size="10.00">ReturnFlags.hpp</text>
</a>
</g>
</g>
<!-- Node1&#45;&gt;Node24 -->
<g id="edge34_Node000001_Node000024" class="edge">
<title>Node1&#45;&gt;Node24</title>
<g id="a_edge34_Node000001_Node000024"><a xlink:title=" ">
<path fill="none" stroke="#63b8ff" d="M1378.34,-131.94C1403.27,-122.67 1436.5,-110.32 1465.27,-99.63"/>
<polygon fill="#63b8ff" stroke="#63b8ff" points="1466.68,-102.84 1474.83,-96.07 1464.24,-96.28 1466.68,-102.84"/>
</a>
</g>
</g>
<!-- Node25 -->
<g id="Node000025" class="node">
<title>Node25</title>
<g id="a_Node000025"><a xlink:href="_accept_security_context_flags_8hpp.html" target="_top" xlink:title=" ">
<polygon fill="white" stroke="#666666" points="1790.5,-96 1630.5,-96 1630.5,-55 1790.5,-55 1790.5,-96"/>
<text text-anchor="start" x="1638.5" y="-84" font-family="Helvetica,sans-Serif" font-size="10.00">Hermes/_base/WinApi</text>
<text text-anchor="start" x="1638.5" y="-73" font-family="Helvetica,sans-Serif" font-size="10.00">/Flags/AcceptSecurityContext</text>
<text text-anchor="middle" x="1710.5" y="-62" font-family="Helvetica,sans-Serif" font-size="10.00">Flags.hpp</text>
</a>
</g>
</g>
<!-- Node1&#45;&gt;Node25 -->
<g id="edge36_Node000001_Node000025" class="edge">
<title>Node1&#45;&gt;Node25</title>
<g id="a_edge36_Node000001_Node000025"><a xlink:title=" ">
<path fill="none" stroke="#63b8ff" d="M1403.18,-135.48C1457.78,-126.17 1539.34,-111.88 1620.2,-96.02"/>
<polygon fill="#63b8ff" stroke="#63b8ff" points="1620.92,-99.45 1630.06,-94.08 1619.57,-92.58 1620.92,-99.45"/>
</a>
</g>
</g>
<!-- Node26 -->
<g id="Node000026" class="node">
<title>Node26</title>
<g id="a_Node000026"><a xlink:href="_accept_security_context_return_flags_8hpp.html" target="_top" xlink:title=" ">
<polygon fill="white" stroke="#666666" points="1968.5,-96 1808.5,-96 1808.5,-55 1968.5,-55 1968.5,-96"/>
<text text-anchor="start" x="1816.5" y="-84" font-family="Helvetica,sans-Serif" font-size="10.00">Hermes/_base/WinApi</text>
<text text-anchor="start" x="1816.5" y="-73" font-family="Helvetica,sans-Serif" font-size="10.00">/Flags/AcceptSecurityContext</text>
<text text-anchor="middle" x="1888.5" y="-62" font-family="Helvetica,sans-Serif" font-size="10.00">ReturnFlags.hpp</text>
</a>
</g>
</g>
<!-- Node1&#45;&gt;Node26 -->
<g id="edge38_Node000001_Node000026" class="edge">
<title>Node1&#45;&gt;Node26</title>
<g id="a_edge38_Node000001_Node000026"><a xlink:title=" ">
<path fill="none" stroke="#63b8ff" d="M1403.15,-141.32C1489.79,-134.37 1651.23,-119.71 1797.95,-96.17"/>
<polygon fill="#63b8ff" stroke="#63b8ff" points="1798.73,-99.59 1808.04,-94.53 1797.61,-92.68 1798.73,-99.59"/>
</a>
</g>
</g>
<!-- Node27 -->
<g id="Node000027" class="node">
<title>Node27</title>
<g id="a_Node000027"><a xlink:href="_s_channel_cred_flags_8hpp.html" target="_top" xlink:title=" ">
<polygon fill="white" stroke="#666666" points="289.5,-90.5 125.5,-90.5 125.5,-60.5 289.5,-60.5 289.5,-90.5"/>
<text text-anchor="start" x="133.5" y="-78.5" font-family="Helvetica,sans-Serif" font-size="10.00">Hermes/_base/WinApi</text>
<text text-anchor="middle" x="207.5" y="-67.5" font-family="Helvetica,sans-Serif" font-size="10.00">/Flags/SChannelCredFlags.hpp</text>
</a>
</g>
</g>
<!-- Node1&#45;&gt;Node27 -->
<g id="edge40_Node000001_Node000027" class="edge">
<title>Node1&#45;&gt;Node27</title>
<g id="a_edge40_Node000001_Node000027"><a xlink:title=" ">
<path fill="none" stroke="#63b8ff" d="M1277.97,-146.29C1116.19,-146.33 670.82,-141.89 303.5,-96 295.64,-95.02 287.47,-93.75 279.35,-92.33"/>
<polygon fill="#63b8ff" stroke="#63b8ff" points="279.97,-88.88 269.5,-90.53 278.71,-95.77 279.97,-88.88"/>
</a>
</g>
</g>
<!-- Node7 -->
<g id="Node000007" class="node">
<title>Node7</title>
<g id="a_Node000007"><a xlink:title=" ">
<polygon fill="#e0e0e0" stroke="#999999" points="2086.5,-19 2036.5,-19 2036.5,0 2086.5,0 2086.5,-19"/>
<text text-anchor="middle" x="2061.5" y="-7" font-family="Helvetica,sans-Serif" font-size="10.00">cstdint</text>
</a>
</g>
</g>
<!-- Node6&#45;&gt;Node7 -->
<g id="edge6_Node000006_Node000007" class="edge">
<title>Node6&#45;&gt;Node7</title>
<g id="a_edge6_Node000006_Node000007"><a xlink:title=" ">
<path fill="none" stroke="#63b8ff" d="M2061.5,-60.3C2061.5,-51.2 2061.5,-39.29 2061.5,-29.4"/>
<polygon fill="#63b8ff" stroke="#63b8ff" points="2065,-29.34 2061.5,-19.34 2058,-29.34 2065,-29.34"/>
</a>
</g>
</g>
<!-- Node8&#45;&gt;Node3 -->
<g id="edge9_Node000008_Node000003" class="edge">
<title>Node8&#45;&gt;Node3</title>
<g id="a_edge9_Node000008_Node000003"><a xlink:title=" ">
<path fill="none" stroke="#63b8ff" d="M734.13,-60.41C725.97,-58.35 717.53,-56.44 709.5,-55 623.81,-39.67 365.67,-20.86 260.18,-13.58"/>
<polygon fill="#63b8ff" stroke="#63b8ff" points="260.37,-10.08 250.16,-12.89 259.89,-17.07 260.37,-10.08"/>
</a>
</g>
</g>
<!-- Node8&#45;&gt;Node4 -->
<g id="edge10_Node000008_Node000004" class="edge">
<title>Node8&#45;&gt;Node4</title>
<g id="a_edge10_Node000008_Node000004"><a xlink:title=" ">
<path fill="none" stroke="#63b8ff" d="M732.49,-60.43C724.83,-58.47 716.98,-56.58 709.5,-55 623.12,-36.76 520.81,-22.87 463.4,-15.77"/>
<polygon fill="#63b8ff" stroke="#63b8ff" points="463.57,-12.26 453.22,-14.52 462.72,-19.21 463.57,-12.26"/>
</a>
</g>
</g>
<!-- Node8&#45;&gt;Node5 -->
<g id="edge11_Node000008_Node000005" class="edge">
<title>Node8&#45;&gt;Node5</title>
<g id="a_edge11_Node000008_Node000005"><a xlink:title=" ">
<path fill="none" stroke="#63b8ff" d="M832.39,-60.41C840.73,-58.39 849.33,-56.5 857.5,-55 990.54,-30.56 1151.42,-17.46 1219.51,-12.66"/>
<polygon fill="#63b8ff" stroke="#63b8ff" points="1219.89,-16.14 1229.63,-11.96 1219.41,-9.16 1219.89,-16.14"/>
</a>
</g>
</g>
<!-- Node9 -->
<g id="Node000009" class="node">
<title>Node9</title>
<g id="a_Node000009"><a xlink:title=" ">
<polygon fill="#e0e0e0" stroke="#999999" points="818,-19 745,-19 745,0 818,0 818,-19"/>
<text text-anchor="middle" x="781.5" y="-7" font-family="Helvetica,sans-Serif" font-size="10.00">string_view</text>
</a>
</g>
</g>
<!-- Node8&#45;&gt;Node9 -->
<g id="edge8_Node000008_Node000009" class="edge">
<title>Node8&#45;&gt;Node9</title>
<g id="a_edge8_Node000008_Node000009"><a xlink:title=" ">
<path fill="none" stroke="#63b8ff" d="M781.5,-60.3C781.5,-51.2 781.5,-39.29 781.5,-29.4"/>
<polygon fill="#63b8ff" stroke="#63b8ff" points="785,-29.34 781.5,-19.34 778,-29.34 785,-29.34"/>
</a>
</g>
</g>
<!-- Node11 -->
<g id="Node000011" class="node">
<title>Node11</title>
<g id="a_Node000011"><a xlink:title=" ">
<polygon fill="#e0e0e0" stroke="#999999" points="2381.5,-19 2321.5,-19 2321.5,0 2381.5,0 2381.5,-19"/>
<text text-anchor="middle" x="2351.5" y="-7" font-family="Helvetica,sans-Serif" font-size="10.00">ws2def.h</text>
</a>
</g>
</g>
<!-- Node10&#45;&gt;Node11 -->
<g id="edge13_Node000010_Node000011" class="edge">
<title>Node10&#45;&gt;Node11</title>
<g id="a_edge13_Node000010_Node000011"><a xlink:title=" ">
<path fill="none" stroke="#63b8ff" d="M2430.08,-60.3C2413.31,-49.67 2390.49,-35.2 2373.75,-24.6"/>
<polygon fill="#63b8ff" stroke="#63b8ff" points="2375.48,-21.55 2365.16,-19.16 2371.74,-27.47 2375.48,-21.55"/>
</a>
</g>
</g>
<!-- Node13 -->
<g id="Node000013" class="node">
<title>Node13</title>
<g id="a_Node000013"><a xlink:title=" ">
<polygon fill="#e0e0e0" stroke="#999999" points="2898.5,-19 2824.5,-19 2824.5,0 2898.5,0 2898.5,-19"/>
<text text-anchor="middle" x="2861.5" y="-7" font-family="Helvetica,sans-Serif" font-size="10.00">WinSock2.h</text>
</a>
</g>
</g>
<!-- Node12&#45;&gt;Node13 -->
<g id="edge15_Node000012_Node000013" class="edge">
<title>Node12&#45;&gt;Node13</title>
<g id="a_edge15_Node000012_Node000013"><a xlink:title=" ">
<path fill="none" stroke="#63b8ff" d="M2699.93,-60.45C2737.19,-48.93 2789.3,-32.82 2824.16,-22.04"/>
<polygon fill="#63b8ff" stroke="#63b8ff" points="2825.43,-25.32 2833.95,-19.02 2823.36,-18.63 2825.43,-25.32"/>
</a>
</g>
</g>
<!-- Node15 -->
<g id="Node000015" class="node">
<title>Node15</title>
<g id="a_Node000015"><a xlink:title=" ">
<polygon fill="#e0e0e0" stroke="#999999" points="3268,-19 3203,-19 3203,0 3268,0 3268,-19"/>
<text text-anchor="middle" x="3235.5" y="-7" font-family="Helvetica,sans-Serif" font-size="10.00">winerror.h</text>
</a>
</g>
</g>
<!-- Node14&#45;&gt;Node15 -->
<g id="edge17_Node000014_Node000015" class="edge">
<title>Node14&#45;&gt;Node15</title>
<g id="a_edge17_Node000014_Node000015"><a xlink:title=" ">
<path fill="none" stroke="#63b8ff" d="M3235.5,-60.3C3235.5,-51.2 3235.5,-39.29 3235.5,-29.4"/>
<polygon fill="#63b8ff" stroke="#63b8ff" points="3239,-29.34 3235.5,-19.34 3232,-29.34 3239,-29.34"/>
</a>
</g>
</g>
<!-- Node16&#45;&gt;Node11 -->
<g id="edge19_Node000016_Node000011" class="edge">
<title>Node16&#45;&gt;Node11</title>
<g id="a_edge19_Node000016_Node000011"><a xlink:title=" ">
<path fill="none" stroke="#63b8ff" d="M2272.92,-60.3C2289.69,-49.67 2312.51,-35.2 2329.25,-24.6"/>
<polygon fill="#63b8ff" stroke="#63b8ff" points="2331.26,-27.47 2337.84,-19.16 2327.52,-21.55 2331.26,-27.47"/>
</a>
</g>
</g>
<!-- Node17&#45;&gt;Node4 -->
<g id="edge21_Node000017_Node000004" class="edge">
<title>Node17&#45;&gt;Node4</title>
<g id="a_edge21_Node000017_Node000004"><a xlink:title=" ">
<path fill="none" stroke="#63b8ff" d="M418.5,-60.3C418.5,-51.2 418.5,-39.29 418.5,-29.4"/>
<polygon fill="#63b8ff" stroke="#63b8ff" points="422,-29.34 418.5,-19.34 415,-29.34 422,-29.34"/>
</a>
</g>
</g>
<!-- Node18&#45;&gt;Node5 -->
<g id="edge23_Node000018_Node000005" class="edge">
<title>Node18&#45;&gt;Node5</title>
<g id="a_edge23_Node000018_Node000005"><a xlink:title=" ">
<path fill="none" stroke="#63b8ff" d="M1044.87,-60.45C1098.68,-47.51 1176.57,-28.77 1220.04,-18.31"/>
<polygon fill="#63b8ff" stroke="#63b8ff" points="1220.9,-21.7 1229.8,-15.96 1219.26,-14.9 1220.9,-21.7"/>
</a>
</g>
</g>
<!-- Node19&#45;&gt;Node13 -->
<g id="edge25_Node000019_Node000013" class="edge">
<title>Node19&#45;&gt;Node13</title>
<g id="a_edge25_Node000019_Node000013"><a xlink:title=" ">
<path fill="none" stroke="#63b8ff" d="M2861.5,-60.3C2861.5,-51.2 2861.5,-39.29 2861.5,-29.4"/>
<polygon fill="#63b8ff" stroke="#63b8ff" points="2865,-29.34 2861.5,-19.34 2858,-29.34 2865,-29.34"/>
</a>
</g>
</g>
<!-- Node20&#45;&gt;Node13 -->
<g id="edge27_Node000020_Node000013" class="edge">
<title>Node20&#45;&gt;Node13</title>
<g id="a_edge27_Node000020_Node000013"><a xlink:title=" ">
<path fill="none" stroke="#63b8ff" d="M3009.8,-60.45C2975.9,-49.03 2928.59,-33.1 2896.6,-22.32"/>
<polygon fill="#63b8ff" stroke="#63b8ff" points="2897.38,-18.89 2886.79,-19.02 2895.15,-25.53 2897.38,-18.89"/>
</a>
</g>
</g>
<!-- Node21&#45;&gt;Node5 -->
<g id="edge29_Node000021_Node000005" class="edge">
<title>Node21&#45;&gt;Node5</title>
<g id="a_edge29_Node000021_Node000005"><a xlink:title=" ">
<path fill="none" stroke="#63b8ff" d="M1184.03,-60.3C1198.37,-49.87 1217.8,-35.74 1232.29,-25.19"/>
<polygon fill="#63b8ff" stroke="#63b8ff" points="1234.57,-27.87 1240.59,-19.16 1230.45,-22.21 1234.57,-27.87"/>
</a>
</g>
</g>
<!-- Node22&#45;&gt;Node4 -->
<g id="edge31_Node000022_Node000004" class="edge">
<title>Node22&#45;&gt;Node4</title>
<g id="a_edge31_Node000022_Node000004"><a xlink:title=" ">
<path fill="none" stroke="#63b8ff" d="M564.46,-60.45C531.09,-49.03 484.53,-33.1 453.04,-22.32"/>
<polygon fill="#63b8ff" stroke="#63b8ff" points="453.98,-18.94 443.39,-19.02 451.71,-25.57 453.98,-18.94"/>
</a>
</g>
</g>
<!-- Node23&#45;&gt;Node5 -->
<g id="edge33_Node000023_Node000005" class="edge">
<title>Node23&#45;&gt;Node5</title>
<g id="a_edge33_Node000023_Node000005"><a xlink:title=" ">
<path fill="none" stroke="#63b8ff" d="M1313.62,-54.95C1300.44,-45.37 1284.84,-34.02 1272.69,-25.19"/>
<polygon fill="#63b8ff" stroke="#63b8ff" points="1274.69,-22.31 1264.55,-19.26 1270.57,-27.97 1274.69,-22.31"/>
</a>
</g>
</g>
<!-- Node24&#45;&gt;Node5 -->
<g id="edge35_Node000024_Node000005" class="edge">
<title>Node24&#45;&gt;Node5</title>
<g id="a_edge35_Node000024_Node000005"><a xlink:title=" ">
<path fill="none" stroke="#63b8ff" d="M1443.5,-54.95C1390.22,-42.55 1324.25,-27.2 1285.43,-18.16"/>
<polygon fill="#63b8ff" stroke="#63b8ff" points="1285.77,-14.65 1275.23,-15.79 1284.18,-21.47 1285.77,-14.65"/>
</a>
</g>
</g>
<!-- Node25&#45;&gt;Node5 -->
<g id="edge37_Node000025_Node000005" class="edge">
<title>Node25&#45;&gt;Node5</title>
<g id="a_edge37_Node000025_Node000005"><a xlink:title=" ">
<path fill="none" stroke="#63b8ff" d="M1630.1,-56.69C1626.86,-56.1 1623.65,-55.53 1620.5,-55 1497.52,-34.29 1349.85,-19.43 1285.35,-13.44"/>
<polygon fill="#63b8ff" stroke="#63b8ff" points="1285.29,-9.92 1275.01,-12.49 1284.64,-16.89 1285.29,-9.92"/>
</a>
</g>
</g>
<!-- Node26&#45;&gt;Node5 -->
<g id="edge39_Node000026_Node000005" class="edge">
<title>Node26&#45;&gt;Node5</title>
<g id="a_edge39_Node000026_Node000005"><a xlink:title=" ">
<path fill="none" stroke="#63b8ff" d="M1808.06,-56.37C1805.18,-55.88 1802.32,-55.42 1799.5,-55 1605.66,-26.02 1370.16,-14.88 1285.1,-11.62"/>
<polygon fill="#63b8ff" stroke="#63b8ff" points="1285.15,-8.12 1275.03,-11.25 1284.89,-15.12 1285.15,-8.12"/>
</a>
</g>
</g>
<!-- Node27&#45;&gt;Node4 -->
<g id="edge41_Node000027_Node000004" class="edge">
<title>Node27&#45;&gt;Node4</title>
<g id="a_edge41_Node000027_Node000004"><a xlink:title=" ">
<path fill="none" stroke="#63b8ff" d="M253.8,-60.45C291.79,-48.93 344.9,-32.82 380.44,-22.04"/>
<polygon fill="#63b8ff" stroke="#63b8ff" points="381.87,-25.27 390.42,-19.02 379.83,-18.57 381.87,-25.27"/>
</a>
</g>
</g>
</g>
</svg>
