<?xml version="1.0" encoding="UTF-8" standalone="no"?>
<!DOCTYPE svg PUBLIC "-//W3C//DTD SVG 1.1//EN"
 "http://www.w3.org/Graphics/SVG/1.1/DTD/svg11.dtd">
<!-- Generated by graphviz version 2.43.0 (0)
 -->
<!-- Title: include/Hermes/_base/WinApi/WinApi.hpp Pages: 1 -->
<svg width="3398pt" height="170pt"
 viewBox="0.00 0.00 3397.50 170.00" xmlns="http://www.w3.org/2000/svg" xmlns:xlink="http://www.w3.org/1999/xlink">
<g id="graph0" class="graph" transform="scale(1 1) rotate(0) translate(4 166)">
<title>include/Hermes/_base/WinApi/WinApi.hpp</title>
<!-- Node1 -->
<g id="Node000001" class="node">
<title>Node1</title>
<g id="a_Node000001"><a xlink:title=" ">
<polygon fill="#999999" stroke="#666666" points="1611,-162 1486,-162 1486,-132 1611,-132 1611,-162"/>
<text text-anchor="start" x="1494" y="-150" font-family="Helvetica,sans-Serif" font-size="10.00">include/Hermes/_base</text>
<text text-anchor="middle" x="1548.5" y="-139" font-family="Helvetica,sans-Serif" font-size="10.00">/WinApi/WinApi.hpp</text>
</a>
</g>
</g>
<!-- Node2 -->
<g id="Node000002" class="node">
<title>Node2</title>
<g id="a_Node000002"><a xlink:title=" ">
<polygon fill="#e0e0e0" stroke="#999999" points="69,-85 0,-85 0,-66 69,-66 69,-85"/>
<text text-anchor="middle" x="34.5" y="-73" font-family="Helvetica,sans-Serif" font-size="10.00">ws2tcpip.h</text>
</a>
</g>
</g>
<!-- Node1&#45;&gt;Node2 -->
<g id="edge1_Node000001_Node000002" class="edge">
<title>Node1&#45;&gt;Node2</title>
<g id="a_edge1_Node000001_Node000002"><a xlink:title=" ">
<path fill="none" stroke="#63b8ff" d="M1485.6,-145.13C1223.05,-141.31 221.82,-124.97 83.5,-96 75.98,-94.43 68.13,-91.79 60.97,-88.96"/>
<polygon fill="#63b8ff" stroke="#63b8ff" points="62.31,-85.72 51.73,-85.05 59.58,-92.17 62.31,-85.72"/>
</a>
</g>
</g>
<!-- Node3 -->
<g id="Node000003" class="node">
<title>Node3</title>
<g id="a_Node000003"><a xlink:title=" ">
<polygon fill="#e0e0e0" stroke="#999999" points="304,-19 233,-19 233,0 304,0 304,-19"/>
<text text-anchor="middle" x="268.5" y="-7" font-family="Helvetica,sans-Serif" font-size="10.00">winsock2.h</text>
</a>
</g>
</g>
<!-- Node1&#45;&gt;Node3 -->
<g id="edge2_Node000001_Node000003" class="edge">
<title>Node1&#45;&gt;Node3</title>
<g id="a_edge2_Node000001_Node000003"><a xlink:title=" ">
<path fill="none" stroke="#63b8ff" d="M1485.65,-146.21C1215.53,-146.8 164.67,-145.88 116.5,-96 103.84,-82.89 105.57,-69.58 116.5,-55 129.35,-37.84 182.94,-25.08 222.87,-17.72"/>
<polygon fill="#63b8ff" stroke="#63b8ff" points="223.72,-21.12 232.95,-15.92 222.49,-14.23 223.72,-21.12"/>
</a>
</g>
</g>
<!-- Node4 -->
<g id="Node000004" class="node">
<title>Node4</title>
<g id="a_Node000004"><a xlink:title=" ">
<polygon fill="#e0e0e0" stroke="#999999" points="2036.5,-85 1986.5,-85 1986.5,-66 2036.5,-66 2036.5,-85"/>
<text text-anchor="middle" x="2011.5" y="-73" font-family="Helvetica,sans-Serif" font-size="10.00">ntdef.h</text>
</a>
</g>
</g>
<!-- Node1&#45;&gt;Node4 -->
<g id="edge3_Node000001_Node000004" class="edge">
<title>Node1&#45;&gt;Node4</title>
<g id="a_edge3_Node000001_Node000004"><a xlink:title=" ">
<path fill="none" stroke="#63b8ff" d="M1611.28,-146.51C1696.39,-145.45 1852.16,-137.31 1977.5,-96 1981.79,-94.59 1986.14,-92.59 1990.23,-90.42"/>
<polygon fill="#63b8ff" stroke="#63b8ff" points="1992.29,-93.27 1999.16,-85.2 1988.76,-87.23 1992.29,-93.27"/>
</a>
</g>
</g>
<!-- Node5 -->
<g id="Node000005" class="node">
<title>Node5</title>
<g id="a_Node000005"><a xlink:title=" ">
<polygon fill="#e0e0e0" stroke="#999999" points="562,-19 493,-19 493,0 562,0 562,-19"/>
<text text-anchor="middle" x="527.5" y="-7" font-family="Helvetica,sans-Serif" font-size="10.00">schannel.h</text>
</a>
</g>
</g>
<!-- Node1&#45;&gt;Node5 -->
<g id="edge4_Node000001_Node000005" class="edge">
<title>Node1&#45;&gt;Node5</title>
<g id="a_edge4_Node000001_Node000005"><a xlink:title=" ">
<path fill="none" stroke="#63b8ff" d="M1485.76,-144.95C1271.87,-141.09 582.46,-126.35 546.5,-96 527.37,-79.86 524.99,-49.12 525.72,-29.24"/>
<polygon fill="#63b8ff" stroke="#63b8ff" points="529.22,-29.43 526.39,-19.22 522.23,-28.97 529.22,-29.43"/>
</a>
</g>
</g>
<!-- Node6 -->
<g id="Node000006" class="node">
<title>Node6</title>
<g id="a_Node000006"><a xlink:title=" ">
<polygon fill="#e0e0e0" stroke="#999999" points="1428,-19 1383,-19 1383,0 1428,0 1428,-19"/>
<text text-anchor="middle" x="1405.5" y="-7" font-family="Helvetica,sans-Serif" font-size="10.00">sspi.h</text>
</a>
</g>
</g>
<!-- Node1&#45;&gt;Node6 -->
<g id="edge5_Node000001_Node000006" class="edge">
<title>Node1&#45;&gt;Node6</title>
<g id="a_edge5_Node000001_Node000006"><a xlink:title=" ">
<path fill="none" stroke="#63b8ff" d="M1561.99,-131.77C1578.42,-112.69 1601.83,-78.48 1583.5,-55 1565.81,-32.35 1484.62,-19.52 1438.24,-13.92"/>
<polygon fill="#63b8ff" stroke="#63b8ff" points="1438.42,-10.42 1428.08,-12.74 1437.61,-17.37 1438.42,-10.42"/>
</a>
</g>
</g>
<!-- Node7 -->
<g id="Node000007" class="node">
<title>Node7</title>
<g id="a_Node000007"><a xlink:href="_conversion_and_literals_8hpp.html" target="_top" xlink:title=" ">
<polygon fill="white" stroke="#666666" points="2204.5,-90.5 2054.5,-90.5 2054.5,-60.5 2204.5,-60.5 2204.5,-90.5"/>
<text text-anchor="start" x="2062.5" y="-78.5" font-family="Helvetica,sans-Serif" font-size="10.00">Hermes/_base/WinApi</text>
<text text-anchor="middle" x="2129.5" y="-67.5" font-family="Helvetica,sans-Serif" font-size="10.00">/ConversionAndLiterals.hpp</text>
</a>
</g>
</g>
<!-- Node1&#45;&gt;Node7 -->
<g id="edge6_Node000001_Node000007" class="edge">
<title>Node1&#45;&gt;Node7</title>
<g id="a_edge6_Node000001_Node000007"><a xlink:title=" ">
<path fill="none" stroke="#63b8ff" d="M1611.21,-142.27C1705.81,-136.07 1890.43,-121.69 2045.5,-96 2051.37,-95.03 2057.43,-93.89 2063.5,-92.66"/>
<polygon fill="#63b8ff" stroke="#63b8ff" points="2064.61,-96 2073.67,-90.51 2063.16,-89.15 2064.61,-96"/>
</a>
</g>
</g>
<!-- Node9 -->
<g id="Node000009" class="node">
<title>Node9</title>
<g id="a_Node000009"><a xlink:href="_macros_8hpp.html" target="_top" xlink:title=" ">
<polygon fill="white" stroke="#666666" points="843.5,-90.5 719.5,-90.5 719.5,-60.5 843.5,-60.5 843.5,-90.5"/>
<text text-anchor="start" x="727.5" y="-78.5" font-family="Helvetica,sans-Serif" font-size="10.00">Hermes/_base/WinApi</text>
<text text-anchor="middle" x="781.5" y="-67.5" font-family="Helvetica,sans-Serif" font-size="10.00">/Macros.hpp</text>
</a>
</g>
</g>
<!-- Node1&#45;&gt;Node9 -->
<g id="edge8_Node000001_Node000009" class="edge">
<title>Node1&#45;&gt;Node9</title>
<g id="a_edge8_Node000001_Node000009"><a xlink:title=" ">
<path fill="none" stroke="#63b8ff" d="M1485.62,-145.6C1362.95,-143.92 1083.54,-135.63 852.5,-96 847.51,-95.14 842.36,-94.09 837.23,-92.91"/>
<polygon fill="#63b8ff" stroke="#63b8ff" points="837.96,-89.48 827.42,-90.52 836.31,-96.29 837.96,-89.48"/>
</a>
</g>
</g>
<!-- Node11 -->
<g id="Node000011" class="node">
<title>Node11</title>
<g id="a_Node000011"><a xlink:href="_address_family_enum_8hpp.html" target="_top" xlink:title=" ">
<polygon fill="white" stroke="#666666" points="2398.5,-90.5 2222.5,-90.5 2222.5,-60.5 2398.5,-60.5 2398.5,-90.5"/>
<text text-anchor="start" x="2230.5" y="-78.5" font-family="Helvetica,sans-Serif" font-size="10.00">Hermes/_base/WinApi</text>
<text text-anchor="middle" x="2310.5" y="-67.5" font-family="Helvetica,sans-Serif" font-size="10.00">/Enums/AddressFamilyEnum.hpp</text>
</a>
</g>
</g>
<!-- Node1&#45;&gt;Node11 -->
<g id="edge13_Node000001_Node000011" class="edge">
<title>Node1&#45;&gt;Node11</title>
<g id="a_edge13_Node000001_Node000011"><a xlink:title=" ">
<path fill="none" stroke="#63b8ff" d="M1611.12,-143.87C1729.33,-139.27 1993.28,-126.3 2213.5,-96 2221.04,-94.96 2228.87,-93.7 2236.67,-92.32"/>
<polygon fill="#63b8ff" stroke="#63b8ff" points="2237.31,-95.77 2246.51,-90.52 2236.05,-88.88 2237.31,-95.77"/>
</a>
</g>
</g>
<!-- Node13 -->
<g id="Node000013" class="node">
<title>Node13</title>
<g id="a_Node000013"><a xlink:href="_condition_function_enum_8hpp.html" target="_top" xlink:title=" ">
<polygon fill="white" stroke="#666666" points="2818.5,-90.5 2626.5,-90.5 2626.5,-60.5 2818.5,-60.5 2818.5,-90.5"/>
<text text-anchor="start" x="2634.5" y="-78.5" font-family="Helvetica,sans-Serif" font-size="10.00">Hermes/_base/WinApi</text>
<text text-anchor="middle" x="2722.5" y="-67.5" font-family="Helvetica,sans-Serif" font-size="10.00">/Enums/ConditionFunctionEnum.hpp</text>
</a>
</g>
</g>
<!-- Node1&#45;&gt;Node13 -->
<g id="edge15_Node000001_Node000013" class="edge">
<title>Node1&#45;&gt;Node13</title>
<g id="a_edge15_Node000001_Node000013"><a xlink:title=" ">
<path fill="none" stroke="#63b8ff" d="M1611.03,-146.02C1776,-145.43 2236.39,-139.66 2616.5,-96 2625.44,-94.97 2634.77,-93.64 2644.01,-92.16"/>
<polygon fill="#63b8ff" stroke="#63b8ff" points="2644.7,-95.59 2653.99,-90.5 2643.56,-88.69 2644.7,-95.59"/>
</a>
</g>
</g>
<!-- Node15 -->
<g id="Node000015" class="node">
<title>Node15</title>
<g id="a_Node000015"><a xlink:href="_encrypt_status_enum_8hpp.html" target="_top" xlink:title=" ">
<polygon fill="white" stroke="#666666" points="3389.5,-90.5 3217.5,-90.5 3217.5,-60.5 3389.5,-60.5 3389.5,-90.5"/>
<text text-anchor="start" x="3225.5" y="-78.5" font-family="Helvetica,sans-Serif" font-size="10.00">Hermes/_base/WinApi</text>
<text text-anchor="middle" x="3303.5" y="-67.5" font-family="Helvetica,sans-Serif" font-size="10.00">/Enums/EncryptStatusEnum.hpp</text>
</a>
</g>
</g>
<!-- Node1&#45;&gt;Node15 -->
<g id="edge17_Node000001_Node000015" class="edge">
<title>Node1&#45;&gt;Node15</title>
<g id="a_edge17_Node000001_Node000015"><a xlink:title=" ">
<path fill="none" stroke="#63b8ff" d="M1611.26,-145.54C1874.37,-143.38 2889.6,-132.81 3207.5,-96 3215.7,-95.05 3224.23,-93.76 3232.69,-92.29"/>
<polygon fill="#63b8ff" stroke="#63b8ff" points="3233.34,-95.73 3242.55,-90.5 3232.09,-88.85 3233.34,-95.73"/>
</a>
</g>
</g>
<!-- Node17 -->
<g id="Node000017" class="node">
<title>Node17</title>
<g id="a_Node000017"><a xlink:href="_protocol_base_type_enum_8hpp.html" target="_top" xlink:title=" ">
<polygon fill="white" stroke="#666666" points="2608,-90.5 2417,-90.5 2417,-60.5 2608,-60.5 2608,-90.5"/>
<text text-anchor="start" x="2425" y="-78.5" font-family="Helvetica,sans-Serif" font-size="10.00">Hermes/_base/WinApi</text>
<text text-anchor="middle" x="2512.5" y="-67.5" font-family="Helvetica,sans-Serif" font-size="10.00">/Enums/ProtocolBaseTypeEnum.hpp</text>
</a>
</g>
</g>
<!-- Node1&#45;&gt;Node17 -->
<g id="edge19_Node000001_Node000017" class="edge">
<title>Node1&#45;&gt;Node17</title>
<g id="a_edge19_Node000001_Node000017"><a xlink:title=" ">
<path fill="none" stroke="#63b8ff" d="M1611.25,-145.04C1753.45,-142.28 2110.91,-132.03 2407.5,-96 2416.06,-94.96 2424.97,-93.66 2433.83,-92.21"/>
<polygon fill="#63b8ff" stroke="#63b8ff" points="2434.5,-95.65 2443.78,-90.54 2433.34,-88.75 2434.5,-95.65"/>
</a>
</g>
</g>
<!-- Node18 -->
<g id="Node000018" class="node">
<title>Node18</title>
<g id="a_Node000018"><a xlink:href="_s_ch_cred_enum_8hpp.html" target="_top" xlink:title=" ">
<polygon fill="white" stroke="#666666" points="701.5,-90.5 555.5,-90.5 555.5,-60.5 701.5,-60.5 701.5,-90.5"/>
<text text-anchor="start" x="563.5" y="-78.5" font-family="Helvetica,sans-Serif" font-size="10.00">Hermes/_base/WinApi</text>
<text text-anchor="middle" x="628.5" y="-67.5" font-family="Helvetica,sans-Serif" font-size="10.00">/Enums/SChCredEnum.hpp</text>
</a>
</g>
</g>
<!-- Node1&#45;&gt;Node18 -->
<g id="edge21_Node000001_Node000018" class="edge">
<title>Node1&#45;&gt;Node18</title>
<g id="a_edge21_Node000001_Node000018"><a xlink:title=" ">
<path fill="none" stroke="#63b8ff" d="M1485.83,-145.97C1345.95,-145.1 997.96,-138.43 710.5,-96 704.32,-95.09 697.93,-93.94 691.56,-92.66"/>
<polygon fill="#63b8ff" stroke="#63b8ff" points="692.12,-89.2 681.61,-90.55 690.67,-96.05 692.12,-89.2"/>
</a>
</g>
</g>
<!-- Node19 -->
<g id="Node000019" class="node">
<title>Node19</title>
<g id="a_Node000019"><a xlink:href="_security_buffer_enum_8hpp.html" target="_top" xlink:title=" ">
<polygon fill="white" stroke="#666666" points="1804,-90.5 1631,-90.5 1631,-60.5 1804,-60.5 1804,-90.5"/>
<text text-anchor="start" x="1639" y="-78.5" font-family="Helvetica,sans-Serif" font-size="10.00">Hermes/_base/WinApi</text>
<text text-anchor="middle" x="1717.5" y="-67.5" font-family="Helvetica,sans-Serif" font-size="10.00">/Enums/SecurityBufferEnum.hpp</text>
</a>
</g>
</g>
<!-- Node1&#45;&gt;Node19 -->
<g id="edge23_Node000001_Node000019" class="edge">
<title>Node1&#45;&gt;Node19</title>
<g id="a_edge23_Node000001_Node000019"><a xlink:title=" ">
<path fill="none" stroke="#63b8ff" d="M1582.7,-131.94C1609.04,-121.1 1645.64,-106.05 1674.06,-94.37"/>
<polygon fill="#63b8ff" stroke="#63b8ff" points="1675.43,-97.58 1683.35,-90.54 1672.77,-91.11 1675.43,-97.58"/>
</a>
</g>
</g>
<!-- Node20 -->
<g id="Node000020" class="node">
<title>Node20</title>
<g id="a_Node000020"><a xlink:href="_socket_shutdown_enum_8hpp.html" target="_top" xlink:title=" ">
<polygon fill="white" stroke="#666666" points="3022,-90.5 2837,-90.5 2837,-60.5 3022,-60.5 3022,-90.5"/>
<text text-anchor="start" x="2845" y="-78.5" font-family="Helvetica,sans-Serif" font-size="10.00">Hermes/_base/WinApi</text>
<text text-anchor="middle" x="2929.5" y="-67.5" font-family="Helvetica,sans-Serif" font-size="10.00">/Enums/SocketShutdownEnum.hpp</text>
</a>
</g>
</g>
<!-- Node1&#45;&gt;Node20 -->
<g id="edge25_Node000001_Node000020" class="edge">
<title>Node1&#45;&gt;Node20</title>
<g id="a_edge25_Node000001_Node000020"><a xlink:title=" ">
<path fill="none" stroke="#63b8ff" d="M1611.06,-144.8C1833.79,-140.32 2587.68,-123.45 2827.5,-96 2836.09,-95.02 2845.04,-93.72 2853.91,-92.26"/>
<polygon fill="#63b8ff" stroke="#63b8ff" points="2854.62,-95.69 2863.88,-90.54 2853.43,-88.79 2854.62,-95.69"/>
</a>
</g>
</g>
<!-- Node21 -->
<g id="Node000021" class="node">
<title>Node21</title>
<g id="a_Node000021"><a xlink:href="_socket_type_enum_8hpp.html" target="_top" xlink:title=" ">
<polygon fill="white" stroke="#666666" points="3199,-90.5 3040,-90.5 3040,-60.5 3199,-60.5 3199,-90.5"/>
<text text-anchor="start" x="3048" y="-78.5" font-family="Helvetica,sans-Serif" font-size="10.00">Hermes/_base/WinApi</text>
<text text-anchor="middle" x="3119.5" y="-67.5" font-family="Helvetica,sans-Serif" font-size="10.00">/Enums/SocketTypeEnum.hpp</text>
</a>
</g>
</g>
<!-- Node1&#45;&gt;Node21 -->
<g id="edge27_Node000001_Node000021" class="edge">
<title>Node1&#45;&gt;Node21</title>
<g id="a_edge27_Node000001_Node000021"><a xlink:title=" ">
<path fill="none" stroke="#63b8ff" d="M1611.09,-145.41C1855.96,-142.85 2749.36,-131.24 3030.5,-96 3037.81,-95.08 3045.41,-93.85 3052.95,-92.46"/>
<polygon fill="#63b8ff" stroke="#63b8ff" points="3053.65,-95.89 3062.79,-90.54 3052.31,-89.02 3053.65,-95.89"/>
</a>
</g>
</g>
<!-- Node22 -->
<g id="Node000022" class="node">
<title>Node22</title>
<g id="a_Node000022"><a xlink:href="_credential_flags_8hpp.html" target="_top" xlink:title=" ">
<polygon fill="white" stroke="#666666" points="1968.5,-90.5 1822.5,-90.5 1822.5,-60.5 1968.5,-60.5 1968.5,-90.5"/>
<text text-anchor="start" x="1830.5" y="-78.5" font-family="Helvetica,sans-Serif" font-size="10.00">Hermes/_base/WinApi</text>
<text text-anchor="middle" x="1895.5" y="-67.5" font-family="Helvetica,sans-Serif" font-size="10.00">/Flags/CredentialFlags.hpp</text>
</a>
</g>
</g>
<!-- Node1&#45;&gt;Node22 -->
<g id="edge29_Node000001_Node000022" class="edge">
<title>Node1&#45;&gt;Node22</title>
<g id="a_edge29_Node000001_Node000022"><a xlink:title=" ">
<path fill="none" stroke="#63b8ff" d="M1611.06,-134.94C1664.65,-125.28 1743.82,-110.56 1812.5,-96 1817.23,-95 1822.1,-93.93 1827,-92.84"/>
<polygon fill="#63b8ff" stroke="#63b8ff" points="1828.09,-96.18 1837.08,-90.56 1826.55,-89.35 1828.09,-96.18"/>
</a>
</g>
</g>
<!-- Node23 -->
<g id="Node000023" class="node">
<title>Node23</title>
<g id="a_Node000023"><a xlink:href="_supported_protocols_flags_8hpp.html" target="_top" xlink:title=" ">
<polygon fill="white" stroke="#666666" points="317,-90.5 126,-90.5 126,-60.5 317,-60.5 317,-90.5"/>
<text text-anchor="start" x="134" y="-78.5" font-family="Helvetica,sans-Serif" font-size="10.00">Hermes/_base/WinApi</text>
<text text-anchor="middle" x="221.5" y="-67.5" font-family="Helvetica,sans-Serif" font-size="10.00">/Flags/SupportedProtocolsFlags.hpp</text>
</a>
</g>
</g>
<!-- Node1&#45;&gt;Node23 -->
<g id="edge31_Node000001_Node000023" class="edge">
<title>Node1&#45;&gt;Node23</title>
<g id="a_edge31_Node000001_Node000023"><a xlink:title=" ">
<path fill="none" stroke="#63b8ff" d="M1485.95,-146.58C1305.47,-147.59 768.53,-145.83 326.5,-96 317.57,-94.99 308.26,-93.67 299.03,-92.18"/>
<polygon fill="#63b8ff" stroke="#63b8ff" points="299.51,-88.71 289.07,-90.51 298.35,-95.62 299.51,-88.71"/>
</a>
</g>
</g>
<!-- Node24 -->
<g id="Node000024" class="node">
<title>Node24</title>
<g id="a_Node000024"><a xlink:href="_initialize_security_context_flags_8hpp.html" target="_top" xlink:title=" ">
<polygon fill="white" stroke="#666666" points="1031,-96 862,-96 862,-55 1031,-55 1031,-96"/>
<text text-anchor="start" x="870" y="-84" font-family="Helvetica,sans-Serif" font-size="10.00">Hermes/_base/WinApi</text>
<text text-anchor="start" x="870" y="-73" font-family="Helvetica,sans-Serif" font-size="10.00">/Flags/InitializeSecurityContext</text>
<text text-anchor="middle" x="946.5" y="-62" font-family="Helvetica,sans-Serif" font-size="10.00">Flags.hpp</text>
</a>
</g>
</g>
<!-- Node1&#45;&gt;Node24 -->
<g id="edge33_Node000001_Node000024" class="edge">
<title>Node1&#45;&gt;Node24</title>
<g id="a_edge33_Node000001_Node000024"><a xlink:title=" ">
<path fill="none" stroke="#63b8ff" d="M1485.93,-142.05C1391.51,-135.61 1206.85,-121.13 1040.97,-96.15"/>
<polygon fill="#63b8ff" stroke="#63b8ff" points="1041.49,-92.69 1031.08,-94.64 1040.44,-99.61 1041.49,-92.69"/>
</a>
</g>
</g>
<!-- Node25 -->
<g id="Node000025" class="node">
<title>Node25</title>
<g id="a_Node000025"><a xlink:href="_initialize_security_context_return_flags_8hpp.html" target="_top" xlink:title=" ">
<polygon fill="white" stroke="#666666" points="1218,-96 1049,-96 1049,-55 1218,-55 1218,-96"/>
<text text-anchor="start" x="1057" y="-84" font-family="Helvetica,sans-Serif" font-size="10.00">Hermes/_base/WinApi</text>
<text text-anchor="start" x="1057" y="-73" font-family="Helvetica,sans-Serif" font-size="10.00">/Flags/InitializeSecurityContext</text>
<text text-anchor="middle" x="1133.5" y="-62" font-family="Helvetica,sans-Serif" font-size="10.00">ReturnFlags.hpp</text>
</a>
</g>
</g>
<!-- Node1&#45;&gt;Node25 -->
<g id="edge35_Node000001_Node000025" class="edge">
<title>Node1&#45;&gt;Node25</title>
<g id="a_edge35_Node000001_Node000025"><a xlink:title=" ">
<path fill="none" stroke="#63b8ff" d="M1485.91,-137.2C1423.25,-128.17 1323.86,-113.27 1227.89,-96.02"/>
<polygon fill="#63b8ff" stroke="#63b8ff" points="1228.48,-92.57 1218.01,-94.24 1227.23,-99.46 1228.48,-92.57"/>
</a>
</g>
</g>
<!-- Node26 -->
<g id="Node000026" class="node">
<title>Node26</title>
<g id="a_Node000026"><a xlink:href="_accept_security_context_flags_8hpp.html" target="_top" xlink:title=" ">
<polygon fill="white" stroke="#666666" points="1396.5,-96 1236.5,-96 1236.5,-55 1396.5,-55 1396.5,-96"/>
<text text-anchor="start" x="1244.5" y="-84" font-family="Helvetica,sans-Serif" font-size="10.00">Hermes/_base/WinApi</text>
<text text-anchor="start" x="1244.5" y="-73" font-family="Helvetica,sans-Serif" font-size="10.00">/Flags/AcceptSecurityContext</text>
<text text-anchor="middle" x="1316.5" y="-62" font-family="Helvetica,sans-Serif" font-size="10.00">Flags.hpp</text>
</a>
</g>
</g>
<!-- Node1&#45;&gt;Node26 -->
<g id="edge37_Node000001_Node000026" class="edge">
<title>Node1&#45;&gt;Node26</title>
<g id="a_edge37_Node000001_Node000026"><a xlink:title=" ">
<path fill="none" stroke="#63b8ff" d="M1501.55,-131.94C1470.08,-122.51 1427.96,-109.89 1391.85,-99.07"/>
<polygon fill="#63b8ff" stroke="#63b8ff" points="1392.42,-95.59 1381.84,-96.07 1390.41,-102.3 1392.42,-95.59"/>
</a>
</g>
</g>
<!-- Node27 -->
<g id="Node000027" class="node">
<title>Node27</title>
<g id="a_Node000027"><a xlink:href="_accept_security_context_return_flags_8hpp.html" target="_top" xlink:title=" ">
<polygon fill="white" stroke="#666666" points="1574.5,-96 1414.5,-96 1414.5,-55 1574.5,-55 1574.5,-96"/>
<text text-anchor="start" x="1422.5" y="-84" font-family="Helvetica,sans-Serif" font-size="10.00">Hermes/_base/WinApi</text>
<text text-anchor="start" x="1422.5" y="-73" font-family="Helvetica,sans-Serif" font-size="10.00">/Flags/AcceptSecurityContext</text>
<text text-anchor="middle" x="1494.5" y="-62" font-family="Helvetica,sans-Serif" font-size="10.00">ReturnFlags.hpp</text>
</a>
</g>
</g>
<!-- Node1&#45;&gt;Node27 -->
<g id="edge39_Node000001_Node000027" class="edge">
<title>Node1&#45;&gt;Node27</title>
<g id="a_edge39_Node000001_Node000027"><a xlink:title=" ">
<path fill="none" stroke="#63b8ff" d="M1537.57,-131.94C1531.37,-123.96 1523.4,-113.7 1516,-104.17"/>
<polygon fill="#63b8ff" stroke="#63b8ff" points="1518.61,-101.82 1509.71,-96.07 1513.08,-106.12 1518.61,-101.82"/>
</a>
</g>
</g>
<!-- Node28 -->
<g id="Node000028" class="node">
<title>Node28</title>
<g id="a_Node000028"><a xlink:href="_s_channel_cred_flags_8hpp.html" target="_top" xlink:title=" ">
<polygon fill="white" stroke="#666666" points="499.5,-90.5 335.5,-90.5 335.5,-60.5 499.5,-60.5 499.5,-90.5"/>
<text text-anchor="start" x="343.5" y="-78.5" font-family="Helvetica,sans-Serif" font-size="10.00">Hermes/_base/WinApi</text>
<text text-anchor="middle" x="417.5" y="-67.5" font-family="Helvetica,sans-Serif" font-size="10.00">/Flags/SChannelCredFlags.hpp</text>
</a>
</g>
</g>
<!-- Node1&#45;&gt;Node28 -->
<g id="edge41_Node000001_Node000028" class="edge">
<title>Node1&#45;&gt;Node28</title>
<g id="a_edge41_Node000001_Node000028"><a xlink:title=" ">
<path fill="none" stroke="#63b8ff" d="M1485.8,-146.28C1324.08,-146.3 879.89,-141.79 513.5,-96 505.64,-95.02 497.47,-93.75 489.35,-92.33"/>
<polygon fill="#63b8ff" stroke="#63b8ff" points="489.97,-88.88 479.5,-90.53 488.71,-95.77 489.97,-88.88"/>
</a>
</g>
</g>
<!-- Node8 -->
<g id="Node000008" class="node">
<title>Node8</title>
<g id="a_Node000008"><a xlink:title=" ">
<polygon fill="#e0e0e0" stroke="#999999" points="2154.5,-19 2104.5,-19 2104.5,0 2154.5,0 2154.5,-19"/>
<text text-anchor="middle" x="2129.5" y="-7" font-family="Helvetica,sans-Serif" font-size="10.00">cstdint</text>
</a>
</g>
</g>
<!-- Node7&#45;&gt;Node8 -->
<g id="edge7_Node000007_Node000008" class="edge">
<title>Node7&#45;&gt;Node8</title>
<g id="a_edge7_Node000007_Node000008"><a xlink:title=" ">
<path fill="none" stroke="#63b8ff" d="M2129.5,-60.3C2129.5,-51.2 2129.5,-39.29 2129.5,-29.4"/>
<polygon fill="#63b8ff" stroke="#63b8ff" points="2133,-29.34 2129.5,-19.34 2126,-29.34 2133,-29.34"/>
</a>
</g>
</g>
<!-- Node9&#45;&gt;Node3 -->
<g id="edge10_Node000009_Node000003" class="edge">
<title>Node9&#45;&gt;Node3</title>
<g id="a_edge10_Node000009_Node000003"><a xlink:title=" ">
<path fill="none" stroke="#63b8ff" d="M734.78,-60.48C726.74,-58.4 718.42,-56.47 710.5,-55 567.37,-28.34 394.99,-16.8 314.32,-12.58"/>
<polygon fill="#63b8ff" stroke="#63b8ff" points="314.19,-9.07 304.02,-12.05 313.83,-16.06 314.19,-9.07"/>
</a>
</g>
</g>
<!-- Node9&#45;&gt;Node5 -->
<g id="edge11_Node000009_Node000005" class="edge">
<title>Node9&#45;&gt;Node5</title>
<g id="a_edge11_Node000009_Node000005"><a xlink:title=" ">
<path fill="none" stroke="#63b8ff" d="M731.13,-60.47C724.2,-58.6 717.18,-56.73 710.5,-55 663.48,-42.83 609.42,-29.8 572.31,-21.01"/>
<polygon fill="#63b8ff" stroke="#63b8ff" points="572.86,-17.54 562.32,-18.64 571.24,-24.35 572.86,-17.54"/>
</a>
</g>
</g>
<!-- Node9&#45;&gt;Node6 -->
<g id="edge12_Node000009_Node000006" class="edge">
<title>Node9&#45;&gt;Node6</title>
<g id="a_edge12_Node000009_Node000006"><a xlink:title=" ">
<path fill="none" stroke="#63b8ff" d="M827.81,-60.44C835.98,-58.35 844.44,-56.42 852.5,-55 1047.86,-20.63 1286.78,-12.76 1372.74,-11"/>
<polygon fill="#63b8ff" stroke="#63b8ff" points="1372.99,-14.49 1382.92,-10.8 1372.86,-7.49 1372.99,-14.49"/>
</a>
</g>
</g>
<!-- Node10 -->
<g id="Node000010" class="node">
<title>Node10</title>
<g id="a_Node000010"><a xlink:title=" ">
<polygon fill="#e0e0e0" stroke="#999999" points="818,-19 745,-19 745,0 818,0 818,-19"/>
<text text-anchor="middle" x="781.5" y="-7" font-family="Helvetica,sans-Serif" font-size="10.00">string_view</text>
</a>
</g>
</g>
<!-- Node9&#45;&gt;Node10 -->
<g id="edge9_Node000009_Node000010" class="edge">
<title>Node9&#45;&gt;Node10</title>
<g id="a_edge9_Node000009_Node000010"><a xlink:title=" ">
<path fill="none" stroke="#63b8ff" d="M781.5,-60.3C781.5,-51.2 781.5,-39.29 781.5,-29.4"/>
<polygon fill="#63b8ff" stroke="#63b8ff" points="785,-29.34 781.5,-19.34 778,-29.34 785,-29.34"/>
</a>
</g>
</g>
<!-- Node12 -->
<g id="Node000012" class="node">
<title>Node12</title>
<g id="a_Node000012"><a xlink:title=" ">
<polygon fill="#e0e0e0" stroke="#999999" points="2441.5,-19 2381.5,-19 2381.5,0 2441.5,0 2441.5,-19"/>
<text text-anchor="middle" x="2411.5" y="-7" font-family="Helvetica,sans-Serif" font-size="10.00">ws2def.h</text>
</a>
</g>
</g>
<!-- Node11&#45;&gt;Node12 -->
<g id="edge14_Node000011_Node000012" class="edge">
<title>Node11&#45;&gt;Node12</title>
<g id="a_edge14_Node000011_Node000012"><a xlink:title=" ">
<path fill="none" stroke="#63b8ff" d="M2332.92,-60.3C2349.69,-49.67 2372.51,-35.2 2389.25,-24.6"/>
<polygon fill="#63b8ff" stroke="#63b8ff" points="2391.26,-27.47 2397.84,-19.16 2387.52,-21.55 2391.26,-27.47"/>
</a>
</g>
</g>
<!-- Node14 -->
<g id="Node000014" class="node">
<title>Node14</title>
<g id="a_Node000014"><a xlink:title=" ">
<polygon fill="#e0e0e0" stroke="#999999" points="2966.5,-19 2892.5,-19 2892.5,0 2966.5,0 2966.5,-19"/>
<text text-anchor="middle" x="2929.5" y="-7" font-family="Helvetica,sans-Serif" font-size="10.00">WinSock2.h</text>
</a>
</g>
</g>
<!-- Node13&#45;&gt;Node14 -->
<g id="edge16_Node000013_Node000014" class="edge">
<title>Node13&#45;&gt;Node14</title>
<g id="a_edge16_Node000013_Node000014"><a xlink:title=" ">
<path fill="none" stroke="#63b8ff" d="M2767.93,-60.45C2805.19,-48.93 2857.3,-32.82 2892.16,-22.04"/>
<polygon fill="#63b8ff" stroke="#63b8ff" points="2893.43,-25.32 2901.95,-19.02 2891.36,-18.63 2893.43,-25.32"/>
</a>
</g>
</g>
<!-- Node16 -->
<g id="Node000016" class="node">
<title>Node16</title>
<g id="a_Node000016"><a xlink:title=" ">
<polygon fill="#e0e0e0" stroke="#999999" points="3336,-19 3271,-19 3271,0 3336,0 3336,-19"/>
<text text-anchor="middle" x="3303.5" y="-7" font-family="Helvetica,sans-Serif" font-size="10.00">winerror.h</text>
</a>
</g>
</g>
<!-- Node15&#45;&gt;Node16 -->
<g id="edge18_Node000015_Node000016" class="edge">
<title>Node15&#45;&gt;Node16</title>
<g id="a_edge18_Node000015_Node000016"><a xlink:title=" ">
<path fill="none" stroke="#63b8ff" d="M3303.5,-60.3C3303.5,-51.2 3303.5,-39.29 3303.5,-29.4"/>
<polygon fill="#63b8ff" stroke="#63b8ff" points="3307,-29.34 3303.5,-19.34 3300,-29.34 3307,-29.34"/>
</a>
</g>
</g>
<!-- Node17&#45;&gt;Node12 -->
<g id="edge20_Node000017_Node000012" class="edge">
<title>Node17&#45;&gt;Node12</title>
<g id="a_edge20_Node000017_Node000012"><a xlink:title=" ">
<path fill="none" stroke="#63b8ff" d="M2490.08,-60.3C2473.31,-49.67 2450.49,-35.2 2433.75,-24.6"/>
<polygon fill="#63b8ff" stroke="#63b8ff" points="2435.48,-21.55 2425.16,-19.16 2431.74,-27.47 2435.48,-21.55"/>
</a>
</g>
</g>
<!-- Node18&#45;&gt;Node5 -->
<g id="edge22_Node000018_Node000005" class="edge">
<title>Node18&#45;&gt;Node5</title>
<g id="a_edge22_Node000018_Node000005"><a xlink:title=" ">
<path fill="none" stroke="#63b8ff" d="M606.08,-60.3C589.31,-49.67 566.49,-35.2 549.75,-24.6"/>
<polygon fill="#63b8ff" stroke="#63b8ff" points="551.48,-21.55 541.16,-19.16 547.74,-27.47 551.48,-21.55"/>
</a>
</g>
</g>
<!-- Node19&#45;&gt;Node6 -->
<g id="edge24_Node000019_Node000006" class="edge">
<title>Node19&#45;&gt;Node6</title>
<g id="a_edge24_Node000019_Node000006"><a xlink:title=" ">
<path fill="none" stroke="#63b8ff" d="M1649.03,-60.45C1583.55,-47.02 1487.65,-27.35 1437.99,-17.16"/>
<polygon fill="#63b8ff" stroke="#63b8ff" points="1438.62,-13.72 1428.12,-15.14 1437.22,-20.58 1438.62,-13.72"/>
</a>
</g>
</g>
<!-- Node20&#45;&gt;Node14 -->
<g id="edge26_Node000020_Node000014" class="edge">
<title>Node20&#45;&gt;Node14</title>
<g id="a_edge26_Node000020_Node000014"><a xlink:title=" ">
<path fill="none" stroke="#63b8ff" d="M2929.5,-60.3C2929.5,-51.2 2929.5,-39.29 2929.5,-29.4"/>
<polygon fill="#63b8ff" stroke="#63b8ff" points="2933,-29.34 2929.5,-19.34 2926,-29.34 2933,-29.34"/>
</a>
</g>
</g>
<!-- Node21&#45;&gt;Node14 -->
<g id="edge28_Node000021_Node000014" class="edge">
<title>Node21&#45;&gt;Node14</title>
<g id="a_edge28_Node000021_Node000014"><a xlink:title=" ">
<path fill="none" stroke="#63b8ff" d="M3077.8,-60.45C3043.9,-49.03 2996.59,-33.1 2964.6,-22.32"/>
<polygon fill="#63b8ff" stroke="#63b8ff" points="2965.38,-18.89 2954.79,-19.02 2963.15,-25.53 2965.38,-18.89"/>
</a>
</g>
</g>
<!-- Node22&#45;&gt;Node6 -->
<g id="edge30_Node000022_Node000006" class="edge">
<title>Node22&#45;&gt;Node6</title>
<g id="a_edge30_Node000022_Node000006"><a xlink:title=" ">
<path fill="none" stroke="#63b8ff" d="M1839.88,-60.45C1830.77,-58.43 1821.4,-56.53 1812.5,-55 1674.51,-31.34 1507.93,-17.74 1438.44,-12.73"/>
<polygon fill="#63b8ff" stroke="#63b8ff" points="1438.36,-9.22 1428.14,-12 1437.86,-16.2 1438.36,-9.22"/>
</a>
</g>
</g>
<!-- Node23&#45;&gt;Node5 -->
<g id="edge32_Node000023_Node000005" class="edge">
<title>Node23&#45;&gt;Node5</title>
<g id="a_edge32_Node000023_Node000005"><a xlink:title=" ">
<path fill="none" stroke="#63b8ff" d="M288.65,-60.45C347.58,-48.13 431.62,-30.55 482.7,-19.87"/>
<polygon fill="#63b8ff" stroke="#63b8ff" points="483.7,-23.24 492.77,-17.76 482.26,-16.39 483.7,-23.24"/>
</a>
</g>
</g>
<!-- Node24&#45;&gt;Node6 -->
<g id="edge34_Node000024_Node000006" class="edge">
<title>Node24&#45;&gt;Node6</title>
<g id="a_edge34_Node000024_Node000006"><a xlink:title=" ">
<path fill="none" stroke="#63b8ff" d="M1031.09,-56.44C1033.92,-55.94 1036.73,-55.46 1039.5,-55 1161.58,-34.82 1307.99,-19.74 1372.37,-13.57"/>
<polygon fill="#63b8ff" stroke="#63b8ff" points="1373.08,-17.02 1382.7,-12.59 1372.42,-10.05 1373.08,-17.02"/>
</a>
</g>
</g>
<!-- Node25&#45;&gt;Node6 -->
<g id="edge36_Node000025_Node000006" class="edge">
<title>Node25&#45;&gt;Node6</title>
<g id="a_edge36_Node000025_Node000006"><a xlink:title=" ">
<path fill="none" stroke="#63b8ff" d="M1216.59,-54.95C1269.14,-42.58 1334.18,-27.28 1372.62,-18.24"/>
<polygon fill="#63b8ff" stroke="#63b8ff" points="1373.79,-21.56 1382.72,-15.86 1372.18,-14.74 1373.79,-21.56"/>
</a>
</g>
</g>
<!-- Node26&#45;&gt;Node6 -->
<g id="edge38_Node000026_Node000006" class="edge">
<title>Node26&#45;&gt;Node6</title>
<g id="a_edge38_Node000026_Node000006"><a xlink:title=" ">
<path fill="none" stroke="#63b8ff" d="M1343.69,-54.95C1357.01,-45.37 1372.8,-34.02 1385.08,-25.19"/>
<polygon fill="#63b8ff" stroke="#63b8ff" points="1387.24,-27.94 1393.32,-19.26 1383.16,-22.26 1387.24,-27.94"/>
</a>
</g>
</g>
<!-- Node27&#45;&gt;Node6 -->
<g id="edge40_Node000027_Node000006" class="edge">
<title>Node27&#45;&gt;Node6</title>
<g id="a_edge40_Node000027_Node000006"><a xlink:title=" ">
<path fill="none" stroke="#63b8ff" d="M1467.31,-54.95C1453.99,-45.37 1438.2,-34.02 1425.92,-25.19"/>
<polygon fill="#63b8ff" stroke="#63b8ff" points="1427.84,-22.26 1417.68,-19.26 1423.76,-27.94 1427.84,-22.26"/>
</a>
</g>
</g>
<!-- Node28&#45;&gt;Node5 -->
<g id="edge42_Node000028_Node000005" class="edge">
<title>Node28&#45;&gt;Node5</title>
<g id="a_edge42_Node000028_Node000005"><a xlink:title=" ">
<path fill="none" stroke="#63b8ff" d="M441.64,-60.45C460.17,-49.68 485.6,-34.88 503.97,-24.19"/>
<polygon fill="#63b8ff" stroke="#63b8ff" points="505.98,-27.07 512.86,-19.02 502.46,-21.02 505.98,-27.07"/>
</a>
</g>
</g>
</g>
</svg>
