<?xml version="1.0" encoding="UTF-8" standalone="no"?>
<!DOCTYPE svg PUBLIC "-//W3C//DTD SVG 1.1//EN"
 "http://www.w3.org/Graphics/SVG/1.1/DTD/svg11.dtd">
<!-- Generated by graphviz version 2.43.0 (0)
 -->
<!-- Title: include/Hermes Pages: 1 -->
<svg width="189pt" height="259pt"
 viewBox="0.00 0.00 189.00 259.00" xmlns="http://www.w3.org/2000/svg" xmlns:xlink="http://www.w3.org/1999/xlink">
<g id="graph0" class="graph" transform="scale(1 1) rotate(0) translate(4 255)">
<title>include/Hermes</title>
<g id="clust1" class="cluster">
<title>clusterdir_d44c64559bbebec7f509842c48db8b23</title>
<g id="a_clust1"><a xlink:href="dir_d44c64559bbebec7f509842c48db8b23.html" target="_top" xlink:title="include">
<polygon fill="#daedff" stroke="#404040" stroke-dasharray="5,2" points="8,-8 8,-243 173,-243 173,-8 8,-8"/>
<text text-anchor="middle" x="90.5" y="-231" font-family="Helvetica,sans-Serif" font-size="10.00">include</text>
</a>
</g>
</g>
<g id="clust2" class="cluster">
<title>clusterdir_48552af575f0c01fd908f857e8ea26ca</title>
<g id="a_clust2"><a xlink:href="dir_48552af575f0c01fd908f857e8ea26ca.html" target="_top">
<polygon fill="#daedff" stroke="#404040" stroke-width="2" points="16,-16 16,-216 165,-216 165,-16 16,-16"/>
</a>
</g>
</g>
<!-- dir_48552af575f0c01fd908f857e8ea26ca -->
<g id="node1" class="node">
<title>dir_48552af575f0c01fd908f857e8ea26ca</title>
<text text-anchor="middle" x="129" y="-196" font-family="Helvetica,sans-Serif" font-size="10.00">Hermes</text>
</g>
<!-- dir_1749b645fa05fc0c477f9e54117aefed -->
<g id="node2" class="node">
<title>dir_1749b645fa05fc0c477f9e54117aefed</title>
<g id="a_node2"><a xlink:href="dir_1749b645fa05fc0c477f9e54117aefed.html" target="_top" xlink:title="_base">
<polygon fill="#4ea9ff" stroke="#404040" points="80.5,-43 35.5,-43 35.5,-24 80.5,-24 80.5,-43"/>
<text text-anchor="middle" x="58" y="-31" font-family="Helvetica,sans-Serif" font-size="10.00">_base</text>
</a>
</g>
</g>
<!-- dir_a49b2ae4e107057a382f7728faa95ee7 -->
<g id="node3" class="node">
<title>dir_a49b2ae4e107057a382f7728faa95ee7</title>
<g id="a_node3"><a xlink:href="dir_a49b2ae4e107057a382f7728faa95ee7.html" target="_top" xlink:title="Endpoint">
<polygon fill="#4ea9ff" stroke="#404040" points="83.5,-208 24.5,-208 24.5,-189 83.5,-189 83.5,-208"/>
<text text-anchor="middle" x="54" y="-196" font-family="Helvetica,sans-Serif" font-size="10.00">Endpoint</text>
</a>
</g>
</g>
<!-- dir_a49b2ae4e107057a382f7728faa95ee7&#45;&gt;dir_1749b645fa05fc0c477f9e54117aefed -->
<g id="edge1" class="edge">
<title>dir_a49b2ae4e107057a382f7728faa95ee7&#45;&gt;dir_1749b645fa05fc0c477f9e54117aefed</title>
<g id="a_edge1"><a xlink:href="dir_000006_000000.html" target="_top">
<path fill="none" stroke="#63b8ff" d="M49.12,-188.98C44.44,-180.26 37.69,-166.17 35,-153 32.37,-140.15 29.88,-104.16 36,-79 38.29,-69.59 42.8,-59.87 47.15,-51.93"/>
<polygon fill="#63b8ff" stroke="#63b8ff" points="50.2,-53.66 52.21,-43.25 44.15,-50.13 50.2,-53.66"/>
</a>
</g>
<g id="a_edge1&#45;headlabel"><a xlink:href="dir_000006_000000.html" target="_top" xlink:title="2">
<text text-anchor="middle" x="50.84" y="-55.69" font-family="Helvetica,sans-Serif" font-size="10.00" fill="#63b8ff">2</text>
</a>
</g>
</g>
<!-- dir_61f21cccd0004905e8ed10fdaca4e0ea -->
<g id="node5" class="node">
<title>dir_61f21cccd0004905e8ed10fdaca4e0ea</title>
<g id="a_node5"><a xlink:href="dir_61f21cccd0004905e8ed10fdaca4e0ea.html" target="_top" xlink:title="Utils">
<polygon fill="#4ea9ff" stroke="#404040" points="83.5,-153 44.5,-153 44.5,-134 83.5,-134 83.5,-153"/>
<text text-anchor="middle" x="64" y="-141" font-family="Helvetica,sans-Serif" font-size="10.00">Utils</text>
</a>
</g>
</g>
<!-- dir_a49b2ae4e107057a382f7728faa95ee7&#45;&gt;dir_61f21cccd0004905e8ed10fdaca4e0ea -->
<g id="edge2" class="edge">
<title>dir_a49b2ae4e107057a382f7728faa95ee7&#45;&gt;dir_61f21cccd0004905e8ed10fdaca4e0ea</title>
<g id="a_edge2"><a xlink:href="dir_000006_000014.html" target="_top">
<path fill="none" stroke="#63b8ff" d="M55.65,-188.75C56.96,-181.8 58.84,-171.85 60.48,-163.13"/>
<polygon fill="#63b8ff" stroke="#63b8ff" points="63.96,-163.56 62.38,-153.09 57.09,-162.27 63.96,-163.56"/>
</a>
</g>
<g id="a_edge2&#45;headlabel"><a xlink:href="dir_000006_000014.html" target="_top" xlink:title="2">
<text text-anchor="middle" x="66.09" y="-165.12" font-family="Helvetica,sans-Serif" font-size="10.00" fill="#63b8ff">2</text>
</a>
</g>
</g>
<!-- dir_0b5ff7c741697c8eb7741053aebed106 -->
<g id="node4" class="node">
<title>dir_0b5ff7c741697c8eb7741053aebed106</title>
<g id="a_node4"><a xlink:href="dir_0b5ff7c741697c8eb7741053aebed106.html" target="_top" xlink:title="Socket">
<polygon fill="#4ea9ff" stroke="#404040" points="93.5,-98 44.5,-98 44.5,-79 93.5,-79 93.5,-98"/>
<text text-anchor="middle" x="69" y="-86" font-family="Helvetica,sans-Serif" font-size="10.00">Socket</text>
</a>
</g>
</g>
<!-- dir_0b5ff7c741697c8eb7741053aebed106&#45;&gt;dir_1749b645fa05fc0c477f9e54117aefed -->
<g id="edge3" class="edge">
<title>dir_0b5ff7c741697c8eb7741053aebed106&#45;&gt;dir_1749b645fa05fc0c477f9e54117aefed</title>
<g id="a_edge3"><a xlink:href="dir_000012_000000.html" target="_top">
<path fill="none" stroke="#63b8ff" d="M67.18,-78.75C65.74,-71.8 63.68,-61.85 61.87,-53.13"/>
<polygon fill="#63b8ff" stroke="#63b8ff" points="65.24,-52.17 59.78,-43.09 58.39,-53.59 65.24,-52.17"/>
</a>
</g>
<g id="a_edge3&#45;headlabel"><a xlink:href="dir_000012_000000.html" target="_top" xlink:title="9">
<text text-anchor="middle" x="68.75" y="-52.61" font-family="Helvetica,sans-Serif" font-size="10.00" fill="#63b8ff">9</text>
</a>
</g>
</g>
<!-- dir_0b5ff7c741697c8eb7741053aebed106&#45;&gt;dir_a49b2ae4e107057a382f7728faa95ee7 -->
<g id="edge4" class="edge">
<title>dir_0b5ff7c741697c8eb7741053aebed106&#45;&gt;dir_a49b2ae4e107057a382f7728faa95ee7</title>
<g id="a_edge4"><a xlink:href="dir_000012_000006.html" target="_top">
<path fill="none" stroke="#63b8ff" d="M76.38,-98.12C85.9,-110.34 100.39,-133.37 93,-153 88.82,-164.11 80.48,-174.25 72.57,-182.04"/>
<polygon fill="#63b8ff" stroke="#63b8ff" points="69.99,-179.65 64.99,-188.99 74.72,-184.81 69.99,-179.65"/>
</a>
</g>
<g id="a_edge4&#45;headlabel"><a xlink:href="dir_000012_000006.html" target="_top" xlink:title="3">
<text text-anchor="middle" x="70.73" y="-172.63" font-family="Helvetica,sans-Serif" font-size="10.00" fill="#63b8ff">3</text>
</a>
</g>
</g>
<!-- dir_61f21cccd0004905e8ed10fdaca4e0ea&#45;&gt;dir_0b5ff7c741697c8eb7741053aebed106 -->
<g id="edge5" class="edge">
<title>dir_61f21cccd0004905e8ed10fdaca4e0ea&#45;&gt;dir_0b5ff7c741697c8eb7741053aebed106</title>
<g id="a_edge5"><a xlink:href="dir_000014_000012.html" target="_top">
<path fill="none" stroke="#63b8ff" d="M64.83,-133.75C65.48,-126.8 66.42,-116.85 67.24,-108.13"/>
<polygon fill="#63b8ff" stroke="#63b8ff" points="70.73,-108.37 68.19,-98.09 63.77,-107.72 70.73,-108.37"/>
</a>
</g>
<g id="a_edge5&#45;headlabel"><a xlink:href="dir_000014_000012.html" target="_top" xlink:title="1">
<text text-anchor="middle" x="73.22" y="-109.72" font-family="Helvetica,sans-Serif" font-size="10.00" fill="#63b8ff">1</text>
</a>
</g>
</g>
</g>
</svg>
