<?xml version="1.0" encoding="UTF-8" standalone="no"?>
<!DOCTYPE svg PUBLIC "-//W3C//DTD SVG 1.1//EN"
 "http://www.w3.org/Graphics/SVG/1.1/DTD/svg11.dtd">
<!-- Generated by graphviz version 2.43.0 (0)
 -->
<!-- Title: include/Hermes/Socket Pages: 1 -->
<svg width="234pt" height="251pt"
 viewBox="0.00 0.00 234.00 251.00" xmlns="http://www.w3.org/2000/svg" xmlns:xlink="http://www.w3.org/1999/xlink">
<g id="graph0" class="graph" transform="scale(1 1) rotate(0) translate(4 247)">
<title>include/Hermes/Socket</title>
<g id="clust1" class="cluster">
<title>clusterdir_48552af575f0c01fd908f857e8ea26ca</title>
<g id="a_clust1"><a xlink:href="dir_48552af575f0c01fd908f857e8ea26ca.html" target="_top" xlink:title="Hermes">
<polygon fill="#daedff" stroke="#7f7f7f" stroke-dasharray="5,2" points="8,-8 8,-235 218,-235 218,-8 8,-8"/>
<text text-anchor="middle" x="113" y="-223" font-family="Helvetica,sans-Serif" font-size="10.00">Hermes</text>
</a>
</g>
</g>
<g id="clust2" class="cluster">
<title>clusterdir_0b5ff7c741697c8eb7741053aebed106</title>
<g id="a_clust2"><a xlink:href="dir_0b5ff7c741697c8eb7741053aebed106.html" target="_top">
<polygon fill="#daedff" stroke="#404040" stroke-width="2" points="16,-63 16,-208 210,-208 210,-63 16,-63"/>
</a>
</g>
</g>
<!-- dir_1749b645fa05fc0c477f9e54117aefed -->
<g id="node1" class="node">
<title>dir_1749b645fa05fc0c477f9e54117aefed</title>
<g id="a_node1"><a xlink:href="dir_1749b645fa05fc0c477f9e54117aefed.html" target="_top" xlink:title="_base">
<polygon fill="#4ea9ff" stroke="red" points="176.5,-35 131.5,-35 131.5,-16 176.5,-16 176.5,-35"/>
<text text-anchor="middle" x="154" y="-23" font-family="Helvetica,sans-Serif" font-size="10.00">_base</text>
</a>
</g>
</g>
<!-- dir_a49b2ae4e107057a382f7728faa95ee7 -->
<g id="node2" class="node">
<title>dir_a49b2ae4e107057a382f7728faa95ee7</title>
<g id="a_node2"><a xlink:href="dir_a49b2ae4e107057a382f7728faa95ee7.html" target="_top" xlink:title="Endpoint">
<polygon fill="#4ea9ff" stroke="red" points="85.5,-35 26.5,-35 26.5,-16 85.5,-16 85.5,-35"/>
<text text-anchor="middle" x="56" y="-23" font-family="Helvetica,sans-Serif" font-size="10.00">Endpoint</text>
</a>
</g>
</g>
<!-- dir_0b5ff7c741697c8eb7741053aebed106 -->
<g id="node3" class="node">
<title>dir_0b5ff7c741697c8eb7741053aebed106</title>
<text text-anchor="middle" x="49" y="-188" font-family="Helvetica,sans-Serif" font-size="10.00">Socket</text>
</g>
<!-- dir_0b5ff7c741697c8eb7741053aebed106&#45;&gt;dir_1749b645fa05fc0c477f9e54117aefed -->
<g id="edge1" class="edge">
<title>dir_0b5ff7c741697c8eb7741053aebed106&#45;&gt;dir_1749b645fa05fc0c477f9e54117aefed</title>
<g id="a_edge1"><a xlink:href="dir_000023_000000.html" target="_top">
<path fill="none" stroke="#63b8ff" d="M73.68,-181.14C98.88,-172.07 135.46,-157.25 144,-145 154.89,-129.37 155.28,-74.72 154.64,-45.41"/>
<polygon fill="#63b8ff" stroke="#63b8ff" points="158.14,-45.12 154.36,-35.23 151.14,-45.32 158.14,-45.12"/>
</a>
</g>
<g id="a_edge1&#45;headlabel"><a xlink:href="dir_000023_000000.html" target="_top" xlink:title="14">
<text text-anchor="middle" x="161.07" y="-46.14" font-family="Helvetica,sans-Serif" font-size="10.00" fill="#63b8ff">14</text>
</a>
</g>
</g>
<!-- dir_0b5ff7c741697c8eb7741053aebed106&#45;&gt;dir_a49b2ae4e107057a382f7728faa95ee7 -->
<g id="edge2" class="edge">
<title>dir_0b5ff7c741697c8eb7741053aebed106&#45;&gt;dir_a49b2ae4e107057a382f7728faa95ee7</title>
<g id="a_edge2"><a xlink:href="dir_000023_000013.html" target="_top">
<path fill="none" stroke="#63b8ff" d="M49.29,-180.91C50,-160.47 51.91,-107.35 54,-63 54.27,-57.35 54.59,-51.22 54.9,-45.62"/>
<polygon fill="#63b8ff" stroke="#63b8ff" points="58.42,-45.38 55.49,-35.2 51.43,-44.99 58.42,-45.38"/>
</a>
</g>
<g id="a_edge2&#45;headlabel"><a xlink:href="dir_000023_000013.html" target="_top" xlink:title="5">
<text text-anchor="middle" x="61.05" y="-46.63" font-family="Helvetica,sans-Serif" font-size="10.00" fill="#63b8ff">5</text>
</a>
</g>
</g>
<!-- dir_c121d3193a09b0381037e0156068a995 -->
<g id="node4" class="node">
<title>dir_c121d3193a09b0381037e0156068a995</title>
<g id="a_node4"><a xlink:href="dir_c121d3193a09b0381037e0156068a995.html" target="_top" xlink:title="_base">
<polygon fill="#4ea9ff" stroke="#404040" points="201.5,-200 156.5,-200 156.5,-181 201.5,-181 201.5,-200"/>
<text text-anchor="middle" x="179" y="-188" font-family="Helvetica,sans-Serif" font-size="10.00">_base</text>
</a>
</g>
</g>
<!-- dir_c121d3193a09b0381037e0156068a995&#45;&gt;dir_1749b645fa05fc0c477f9e54117aefed -->
<g id="edge3" class="edge">
<title>dir_c121d3193a09b0381037e0156068a995&#45;&gt;dir_1749b645fa05fc0c477f9e54117aefed</title>
<g id="a_edge3"><a xlink:href="dir_000002_000000.html" target="_top">
<path fill="none" stroke="#63b8ff" d="M180.7,-180.96C184.46,-160.18 192.19,-105.59 179,-63 176.85,-56.07 172.88,-49.28 168.73,-43.47"/>
<polygon fill="#63b8ff" stroke="#63b8ff" points="171.22,-40.98 162.29,-35.28 165.72,-45.3 171.22,-40.98"/>
</a>
</g>
<g id="a_edge3&#45;headlabel"><a xlink:href="dir_000002_000000.html" target="_top" xlink:title="2">
<text text-anchor="middle" x="175.68" y="-39.55" font-family="Helvetica,sans-Serif" font-size="10.00" fill="#63b8ff">2</text>
</a>
</g>
</g>
<!-- dir_0ee8d01c818a6381a98a3d57ad9512e1 -->
<g id="node7" class="node">
<title>dir_0ee8d01c818a6381a98a3d57ad9512e1</title>
<g id="a_node7"><a xlink:href="dir_0ee8d01c818a6381a98a3d57ad9512e1.html" target="_top" xlink:title="Sync">
<polygon fill="#4ea9ff" stroke="#404040" points="135,-145 95,-145 95,-126 135,-126 135,-145"/>
<text text-anchor="middle" x="115" y="-133" font-family="Helvetica,sans-Serif" font-size="10.00">Sync</text>
</a>
</g>
</g>
<!-- dir_c121d3193a09b0381037e0156068a995&#45;&gt;dir_0ee8d01c818a6381a98a3d57ad9512e1 -->
<g id="edge4" class="edge">
<title>dir_c121d3193a09b0381037e0156068a995&#45;&gt;dir_0ee8d01c818a6381a98a3d57ad9512e1</title>
<g id="a_edge4"><a xlink:href="dir_000002_000024.html" target="_top">
<path fill="none" stroke="#63b8ff" d="M168.72,-180.98C159.16,-173.07 144.72,-161.11 133.22,-151.58"/>
<polygon fill="#63b8ff" stroke="#63b8ff" points="135.4,-148.85 125.47,-145.17 130.94,-154.24 135.4,-148.85"/>
</a>
</g>
<g id="a_edge4&#45;headlabel"><a xlink:href="dir_000002_000024.html" target="_top" xlink:title="2">
<text text-anchor="middle" x="139.98" y="-146.46" font-family="Helvetica,sans-Serif" font-size="10.00" fill="#63b8ff">2</text>
</a>
</g>
</g>
<!-- dir_12a10213270ed7546c8ef2a0fecfbc3d -->
<g id="node5" class="node">
<title>dir_12a10213270ed7546c8ef2a0fecfbc3d</title>
<g id="a_node5"><a xlink:href="dir_12a10213270ed7546c8ef2a0fecfbc3d.html" target="_top" xlink:title="Async">
<polygon fill="#4ea9ff" stroke="#404040" points="138,-200 92,-200 92,-181 138,-181 138,-200"/>
<text text-anchor="middle" x="115" y="-188" font-family="Helvetica,sans-Serif" font-size="10.00">Async</text>
</a>
</g>
</g>
<!-- dir_12a10213270ed7546c8ef2a0fecfbc3d&#45;&gt;dir_1749b645fa05fc0c477f9e54117aefed -->
<g id="edge7" class="edge">
<title>dir_12a10213270ed7546c8ef2a0fecfbc3d&#45;&gt;dir_1749b645fa05fc0c477f9e54117aefed</title>
<g id="a_edge7"><a xlink:href="dir_000008_000000.html" target="_top">
<path fill="none" stroke="#63b8ff" d="M127.78,-181C138.39,-173.1 152.72,-160.27 159,-145 172.58,-111.95 165.45,-69.26 159.45,-45.18"/>
<polygon fill="#63b8ff" stroke="#63b8ff" points="162.76,-44 156.77,-35.26 156,-45.82 162.76,-44"/>
</a>
</g>
<g id="a_edge7&#45;headlabel"><a xlink:href="dir_000008_000000.html" target="_top" xlink:title="2">
<text text-anchor="middle" x="166.44" y="-44.23" font-family="Helvetica,sans-Serif" font-size="10.00" fill="#63b8ff">2</text>
</a>
</g>
</g>
<!-- dir_fe25ebdea0b69c48cf495d114ea06d68 -->
<g id="node6" class="node">
<title>dir_fe25ebdea0b69c48cf495d114ea06d68</title>
<g id="a_node6"><a xlink:href="dir_fe25ebdea0b69c48cf495d114ea06d68.html" target="_top" xlink:title="Data">
<polygon fill="#4ea9ff" stroke="#404040" points="115,-90 75,-90 75,-71 115,-71 115,-90"/>
<text text-anchor="middle" x="95" y="-78" font-family="Helvetica,sans-Serif" font-size="10.00">Data</text>
</a>
</g>
</g>
<!-- dir_12a10213270ed7546c8ef2a0fecfbc3d&#45;&gt;dir_fe25ebdea0b69c48cf495d114ea06d68 -->
<g id="edge6" class="edge">
<title>dir_12a10213270ed7546c8ef2a0fecfbc3d&#45;&gt;dir_fe25ebdea0b69c48cf495d114ea06d68</title>
<g id="a_edge6"><a xlink:href="dir_000008_000012.html" target="_top">
<path fill="none" stroke="#63b8ff" d="M107.06,-180.75C99.97,-172.3 90.1,-158.79 86,-145 81.59,-130.16 84.63,-112.7 88.32,-99.85"/>
<polygon fill="#63b8ff" stroke="#63b8ff" points="91.66,-100.89 91.43,-90.3 85.01,-98.73 91.66,-100.89"/>
</a>
</g>
<g id="a_edge6&#45;headlabel"><a xlink:href="dir_000008_000012.html" target="_top" xlink:title="6">
<text text-anchor="middle" x="93.25" y="-102.69" font-family="Helvetica,sans-Serif" font-size="10.00" fill="#63b8ff">6</text>
</a>
</g>
</g>
<!-- dir_12a10213270ed7546c8ef2a0fecfbc3d&#45;&gt;dir_0ee8d01c818a6381a98a3d57ad9512e1 -->
<g id="edge5" class="edge">
<title>dir_12a10213270ed7546c8ef2a0fecfbc3d&#45;&gt;dir_0ee8d01c818a6381a98a3d57ad9512e1</title>
<g id="a_edge5"><a xlink:href="dir_000008_000024.html" target="_top">
<path fill="none" stroke="#63b8ff" d="M115,-180.75C115,-173.8 115,-163.85 115,-155.13"/>
<polygon fill="#63b8ff" stroke="#63b8ff" points="118.5,-155.09 115,-145.09 111.5,-155.09 118.5,-155.09"/>
</a>
</g>
<g id="a_edge5&#45;headlabel"><a xlink:href="dir_000008_000024.html" target="_top" xlink:title="4">
<text text-anchor="middle" x="121.34" y="-156.18" font-family="Helvetica,sans-Serif" font-size="10.00" fill="#63b8ff">4</text>
</a>
</g>
</g>
<!-- dir_fe25ebdea0b69c48cf495d114ea06d68&#45;&gt;dir_1749b645fa05fc0c477f9e54117aefed -->
<g id="edge8" class="edge">
<title>dir_fe25ebdea0b69c48cf495d114ea06d68&#45;&gt;dir_1749b645fa05fc0c477f9e54117aefed</title>
<g id="a_edge8"><a xlink:href="dir_000012_000000.html" target="_top">
<path fill="none" stroke="#63b8ff" d="M104.48,-70.98C113.2,-63.15 126.34,-51.34 136.9,-41.86"/>
<polygon fill="#63b8ff" stroke="#63b8ff" points="139.25,-44.46 144.35,-35.17 134.57,-39.25 139.25,-44.46"/>
</a>
</g>
<g id="a_edge8&#45;headlabel"><a xlink:href="dir_000012_000000.html" target="_top" xlink:title="2">
<text text-anchor="middle" x="138.47" y="-46.47" font-family="Helvetica,sans-Serif" font-size="10.00" fill="#63b8ff">2</text>
</a>
</g>
</g>
<!-- dir_fe25ebdea0b69c48cf495d114ea06d68&#45;&gt;dir_a49b2ae4e107057a382f7728faa95ee7 -->
<g id="edge9" class="edge">
<title>dir_fe25ebdea0b69c48cf495d114ea06d68&#45;&gt;dir_a49b2ae4e107057a382f7728faa95ee7</title>
<g id="a_edge9"><a xlink:href="dir_000012_000013.html" target="_top">
<path fill="none" stroke="#63b8ff" d="M88.56,-70.75C83.11,-63.34 75.14,-52.5 68.44,-43.41"/>
<polygon fill="#63b8ff" stroke="#63b8ff" points="71.07,-41.07 62.32,-35.09 65.43,-45.22 71.07,-41.07"/>
</a>
</g>
<g id="a_edge9&#45;headlabel"><a xlink:href="dir_000012_000013.html" target="_top" xlink:title="2">
<text text-anchor="middle" x="75.48" y="-39.78" font-family="Helvetica,sans-Serif" font-size="10.00" fill="#63b8ff">2</text>
</a>
</g>
</g>
<!-- dir_0ee8d01c818a6381a98a3d57ad9512e1&#45;&gt;dir_1749b645fa05fc0c477f9e54117aefed -->
<g id="edge10" class="edge">
<title>dir_0ee8d01c818a6381a98a3d57ad9512e1&#45;&gt;dir_1749b645fa05fc0c477f9e54117aefed</title>
<g id="a_edge10"><a xlink:href="dir_000024_000000.html" target="_top">
<path fill="none" stroke="#63b8ff" d="M118.19,-125.66C124.57,-108.01 138.98,-68.09 147.45,-44.64"/>
<polygon fill="#63b8ff" stroke="#63b8ff" points="150.77,-45.75 150.87,-35.16 144.18,-43.38 150.77,-45.75"/>
</a>
</g>
<g id="a_edge10&#45;headlabel"><a xlink:href="dir_000024_000000.html" target="_top" xlink:title="6">
<text text-anchor="middle" x="152.22" y="-47.6" font-family="Helvetica,sans-Serif" font-size="10.00" fill="#63b8ff">6</text>
</a>
</g>
</g>
<!-- dir_0ee8d01c818a6381a98a3d57ad9512e1&#45;&gt;dir_a49b2ae4e107057a382f7728faa95ee7 -->
<g id="edge11" class="edge">
<title>dir_0ee8d01c818a6381a98a3d57ad9512e1&#45;&gt;dir_a49b2ae4e107057a382f7728faa95ee7</title>
<g id="a_edge11"><a xlink:href="dir_000024_000013.html" target="_top">
<path fill="none" stroke="#63b8ff" d="M100.96,-125.73C89.6,-117.84 74.19,-105.17 66,-90 58.62,-76.33 56.31,-58.75 55.74,-45.55"/>
<polygon fill="#63b8ff" stroke="#63b8ff" points="59.23,-45.24 55.6,-35.29 52.23,-45.34 59.23,-45.24"/>
</a>
</g>
<g id="a_edge11&#45;headlabel"><a xlink:href="dir_000024_000013.html" target="_top" xlink:title="2">
<text text-anchor="middle" x="62.12" y="-46.3" font-family="Helvetica,sans-Serif" font-size="10.00" fill="#63b8ff">2</text>
</a>
</g>
</g>
<!-- dir_0ee8d01c818a6381a98a3d57ad9512e1&#45;&gt;dir_fe25ebdea0b69c48cf495d114ea06d68 -->
<g id="edge12" class="edge">
<title>dir_0ee8d01c818a6381a98a3d57ad9512e1&#45;&gt;dir_fe25ebdea0b69c48cf495d114ea06d68</title>
<g id="a_edge12"><a xlink:href="dir_000024_000012.html" target="_top">
<path fill="none" stroke="#63b8ff" d="M111.7,-125.75C109.02,-118.65 105.15,-108.4 101.81,-99.56"/>
<polygon fill="#63b8ff" stroke="#63b8ff" points="105.05,-98.21 98.24,-90.09 98.5,-100.68 105.05,-98.21"/>
</a>
</g>
<g id="a_edge12&#45;headlabel"><a xlink:href="dir_000024_000012.html" target="_top" xlink:title="6">
<text text-anchor="middle" x="108.97" y="-98.07" font-family="Helvetica,sans-Serif" font-size="10.00" fill="#63b8ff">6</text>
</a>
</g>
</g>
</g>
</svg>
