<?xml version="1.0" encoding="UTF-8" standalone="no"?>
<!DOCTYPE svg PUBLIC "-//W3C//DTD SVG 1.1//EN"
 "http://www.w3.org/Graphics/SVG/1.1/DTD/svg11.dtd">
<!-- Generated by graphviz version 2.43.0 (0)
 -->
<!-- Title: include/Hermes/Socket Pages: 1 -->
<svg width="234pt" height="251pt"
 viewBox="0.00 0.00 234.00 251.00" xmlns="http://www.w3.org/2000/svg" xmlns:xlink="http://www.w3.org/1999/xlink">
<g id="graph0" class="graph" transform="scale(1 1) rotate(0) translate(4 247)">
<title>include/Hermes/Socket</title>
<g id="clust1" class="cluster">
<title>clusterdir_48552af575f0c01fd908f857e8ea26ca</title>
<g id="a_clust1"><a xlink:href="dir_48552af575f0c01fd908f857e8ea26ca.html" target="_top" xlink:title="Hermes">
<polygon fill="#daedff" stroke="#7f7f7f" stroke-dasharray="5,2" points="8,-8 8,-235 218,-235 218,-8 8,-8"/>
<text text-anchor="middle" x="113" y="-223" font-family="Helvetica,sans-Serif" font-size="10.00">Hermes</text>
</a>
</g>
</g>
<g id="clust2" class="cluster">
<title>clusterdir_0b5ff7c741697c8eb7741053aebed106</title>
<g id="a_clust2"><a xlink:href="dir_0b5ff7c741697c8eb7741053aebed106.html" target="_top">
<polygon fill="#daedff" stroke="#404040" stroke-width="2" points="16,-63 16,-208 210,-208 210,-63 16,-63"/>
</a>
</g>
</g>
<!-- dir_1749b645fa05fc0c477f9e54117aefed -->
<g id="node1" class="node">
<title>dir_1749b645fa05fc0c477f9e54117aefed</title>
<g id="a_node1"><a xlink:href="dir_1749b645fa05fc0c477f9e54117aefed.html" target="_top" xlink:title="_base">
<polygon fill="#4ea9ff" stroke="red" points="190.5,-35 145.5,-35 145.5,-16 190.5,-16 190.5,-35"/>
<text text-anchor="middle" x="168" y="-23" font-family="Helvetica,sans-Serif" font-size="10.00">_base</text>
</a>
</g>
</g>
<!-- dir_a49b2ae4e107057a382f7728faa95ee7 -->
<g id="node2" class="node">
<title>dir_a49b2ae4e107057a382f7728faa95ee7</title>
<g id="a_node2"><a xlink:href="dir_a49b2ae4e107057a382f7728faa95ee7.html" target="_top" xlink:title="Endpoint">
<polygon fill="#4ea9ff" stroke="red" points="99.5,-35 40.5,-35 40.5,-16 99.5,-16 99.5,-35"/>
<text text-anchor="middle" x="70" y="-23" font-family="Helvetica,sans-Serif" font-size="10.00">Endpoint</text>
</a>
</g>
</g>
<!-- dir_0b5ff7c741697c8eb7741053aebed106 -->
<g id="node3" class="node">
<title>dir_0b5ff7c741697c8eb7741053aebed106</title>
<text text-anchor="middle" x="49" y="-188" font-family="Helvetica,sans-Serif" font-size="10.00">Socket</text>
</g>
<!-- dir_0b5ff7c741697c8eb7741053aebed106&#45;&gt;dir_1749b645fa05fc0c477f9e54117aefed -->
<g id="edge1" class="edge">
<title>dir_0b5ff7c741697c8eb7741053aebed106&#45;&gt;dir_1749b645fa05fc0c477f9e54117aefed</title>
<g id="a_edge1"><a xlink:href="dir_000023_000000.html" target="_top">
<path fill="none" stroke="#63b8ff" d="M73.79,-183.31C93.99,-177 121.76,-165.19 138,-145 161.54,-115.75 166.87,-70.34 167.92,-45.07"/>
<polygon fill="#63b8ff" stroke="#63b8ff" points="171.42,-45.08 168.15,-35.01 164.42,-44.92 171.42,-45.08"/>
</a>
</g>
<g id="a_edge1&#45;headlabel"><a xlink:href="dir_000023_000000.html" target="_top" xlink:title="13">
<text text-anchor="middle" x="174.17" y="-46.24" font-family="Helvetica,sans-Serif" font-size="10.00" fill="#63b8ff">13</text>
</a>
</g>
</g>
<!-- dir_0b5ff7c741697c8eb7741053aebed106&#45;&gt;dir_a49b2ae4e107057a382f7728faa95ee7 -->
<g id="edge2" class="edge">
<title>dir_0b5ff7c741697c8eb7741053aebed106&#45;&gt;dir_a49b2ae4e107057a382f7728faa95ee7</title>
<g id="a_edge2"><a xlink:href="dir_000023_000013.html" target="_top">
<path fill="none" stroke="#63b8ff" d="M50.13,-180.74C53.42,-155.2 63.05,-80.43 67.59,-45.23"/>
<polygon fill="#63b8ff" stroke="#63b8ff" points="71.06,-45.67 68.87,-35.31 64.12,-44.78 71.06,-45.67"/>
</a>
</g>
<g id="a_edge2&#45;headlabel"><a xlink:href="dir_000023_000013.html" target="_top" xlink:title="5">
<text text-anchor="middle" x="73.42" y="-47.1" font-family="Helvetica,sans-Serif" font-size="10.00" fill="#63b8ff">5</text>
</a>
</g>
</g>
<!-- dir_c121d3193a09b0381037e0156068a995 -->
<g id="node4" class="node">
<title>dir_c121d3193a09b0381037e0156068a995</title>
<g id="a_node4"><a xlink:href="dir_c121d3193a09b0381037e0156068a995.html" target="_top" xlink:title="_base">
<polygon fill="#4ea9ff" stroke="#404040" points="201.5,-200 156.5,-200 156.5,-181 201.5,-181 201.5,-200"/>
<text text-anchor="middle" x="179" y="-188" font-family="Helvetica,sans-Serif" font-size="10.00">_base</text>
</a>
</g>
</g>
<!-- dir_c121d3193a09b0381037e0156068a995&#45;&gt;dir_1749b645fa05fc0c477f9e54117aefed -->
<g id="edge3" class="edge">
<title>dir_c121d3193a09b0381037e0156068a995&#45;&gt;dir_1749b645fa05fc0c477f9e54117aefed</title>
<g id="a_edge3"><a xlink:href="dir_000002_000000.html" target="_top">
<path fill="none" stroke="#63b8ff" d="M182.6,-180.82C186.06,-171.99 191.03,-157.81 193,-145 198.53,-108.98 203.78,-97.81 193,-63 190.85,-56.07 186.88,-49.28 182.73,-43.47"/>
<polygon fill="#63b8ff" stroke="#63b8ff" points="185.22,-40.98 176.29,-35.28 179.72,-45.3 185.22,-40.98"/>
</a>
</g>
<g id="a_edge3&#45;headlabel"><a xlink:href="dir_000002_000000.html" target="_top" xlink:title="1">
<text text-anchor="middle" x="189.68" y="-39.55" font-family="Helvetica,sans-Serif" font-size="10.00" fill="#63b8ff">1</text>
</a>
</g>
</g>
<!-- dir_0ee8d01c818a6381a98a3d57ad9512e1 -->
<g id="node7" class="node">
<title>dir_0ee8d01c818a6381a98a3d57ad9512e1</title>
<g id="a_node7"><a xlink:href="dir_0ee8d01c818a6381a98a3d57ad9512e1.html" target="_top" xlink:title="Sync">
<polygon fill="#4ea9ff" stroke="#404040" points="129,-145 89,-145 89,-126 129,-126 129,-145"/>
<text text-anchor="middle" x="109" y="-133" font-family="Helvetica,sans-Serif" font-size="10.00">Sync</text>
</a>
</g>
</g>
<!-- dir_c121d3193a09b0381037e0156068a995&#45;&gt;dir_0ee8d01c818a6381a98a3d57ad9512e1 -->
<g id="edge4" class="edge">
<title>dir_c121d3193a09b0381037e0156068a995&#45;&gt;dir_0ee8d01c818a6381a98a3d57ad9512e1</title>
<g id="a_edge4"><a xlink:href="dir_000002_000024.html" target="_top">
<path fill="none" stroke="#63b8ff" d="M167.75,-180.98C157.2,-173 141.2,-160.88 128.56,-151.31"/>
<polygon fill="#63b8ff" stroke="#63b8ff" points="130.54,-148.42 120.45,-145.17 126.31,-154 130.54,-148.42"/>
</a>
</g>
<g id="a_edge4&#45;headlabel"><a xlink:href="dir_000002_000024.html" target="_top" xlink:title="1">
<text text-anchor="middle" x="135.12" y="-145.82" font-family="Helvetica,sans-Serif" font-size="10.00" fill="#63b8ff">1</text>
</a>
</g>
</g>
<!-- dir_12a10213270ed7546c8ef2a0fecfbc3d -->
<g id="node5" class="node">
<title>dir_12a10213270ed7546c8ef2a0fecfbc3d</title>
<g id="a_node5"><a xlink:href="dir_12a10213270ed7546c8ef2a0fecfbc3d.html" target="_top" xlink:title="Async">
<polygon fill="#4ea9ff" stroke="#404040" points="138,-200 92,-200 92,-181 138,-181 138,-200"/>
<text text-anchor="middle" x="115" y="-188" font-family="Helvetica,sans-Serif" font-size="10.00">Async</text>
</a>
</g>
</g>
<!-- dir_12a10213270ed7546c8ef2a0fecfbc3d&#45;&gt;dir_1749b645fa05fc0c477f9e54117aefed -->
<g id="edge7" class="edge">
<title>dir_12a10213270ed7546c8ef2a0fecfbc3d&#45;&gt;dir_1749b645fa05fc0c477f9e54117aefed</title>
<g id="a_edge7"><a xlink:href="dir_000008_000000.html" target="_top">
<path fill="none" stroke="#63b8ff" d="M133.67,-180.97C147.33,-173.59 164.86,-161.5 173,-145 188.95,-112.65 180.73,-69.09 173.95,-44.8"/>
<polygon fill="#63b8ff" stroke="#63b8ff" points="177.27,-43.68 171.03,-35.11 170.57,-45.7 177.27,-43.68"/>
</a>
</g>
<g id="a_edge7&#45;headlabel"><a xlink:href="dir_000008_000000.html" target="_top" xlink:title="2">
<text text-anchor="middle" x="181.02" y="-43.8" font-family="Helvetica,sans-Serif" font-size="10.00" fill="#63b8ff">2</text>
</a>
</g>
</g>
<!-- dir_fe25ebdea0b69c48cf495d114ea06d68 -->
<g id="node6" class="node">
<title>dir_fe25ebdea0b69c48cf495d114ea06d68</title>
<g id="a_node6"><a xlink:href="dir_fe25ebdea0b69c48cf495d114ea06d68.html" target="_top" xlink:title="Data">
<polygon fill="#4ea9ff" stroke="#404040" points="129,-90 89,-90 89,-71 129,-71 129,-90"/>
<text text-anchor="middle" x="109" y="-78" font-family="Helvetica,sans-Serif" font-size="10.00">Data</text>
</a>
</g>
</g>
<!-- dir_12a10213270ed7546c8ef2a0fecfbc3d&#45;&gt;dir_fe25ebdea0b69c48cf495d114ea06d68 -->
<g id="edge6" class="edge">
<title>dir_12a10213270ed7546c8ef2a0fecfbc3d&#45;&gt;dir_fe25ebdea0b69c48cf495d114ea06d68</title>
<g id="a_edge6"><a xlink:href="dir_000008_000012.html" target="_top">
<path fill="none" stroke="#63b8ff" d="M105.12,-180.75C96.61,-172.5 84.95,-159.3 80,-145 74.33,-128.62 84.04,-110.73 93.72,-98.12"/>
<polygon fill="#63b8ff" stroke="#63b8ff" points="96.51,-100.24 100.23,-90.32 91.14,-95.76 96.51,-100.24"/>
</a>
</g>
<g id="a_edge6&#45;headlabel"><a xlink:href="dir_000008_000012.html" target="_top" xlink:title="6">
<text text-anchor="middle" x="96.39" y="-102.32" font-family="Helvetica,sans-Serif" font-size="10.00" fill="#63b8ff">6</text>
</a>
</g>
</g>
<!-- dir_12a10213270ed7546c8ef2a0fecfbc3d&#45;&gt;dir_0ee8d01c818a6381a98a3d57ad9512e1 -->
<g id="edge5" class="edge">
<title>dir_12a10213270ed7546c8ef2a0fecfbc3d&#45;&gt;dir_0ee8d01c818a6381a98a3d57ad9512e1</title>
<g id="a_edge5"><a xlink:href="dir_000008_000024.html" target="_top">
<path fill="none" stroke="#63b8ff" d="M114.01,-180.75C113.22,-173.8 112.1,-163.85 111.11,-155.13"/>
<polygon fill="#63b8ff" stroke="#63b8ff" points="114.58,-154.63 109.97,-145.09 107.62,-155.42 114.58,-154.63"/>
</a>
</g>
<g id="a_edge5&#45;headlabel"><a xlink:href="dir_000008_000024.html" target="_top" xlink:title="4">
<text text-anchor="middle" x="117.8" y="-155.38" font-family="Helvetica,sans-Serif" font-size="10.00" fill="#63b8ff">4</text>
</a>
</g>
</g>
<!-- dir_fe25ebdea0b69c48cf495d114ea06d68&#45;&gt;dir_1749b645fa05fc0c477f9e54117aefed -->
<g id="edge8" class="edge">
<title>dir_fe25ebdea0b69c48cf495d114ea06d68&#45;&gt;dir_1749b645fa05fc0c477f9e54117aefed</title>
<g id="a_edge8"><a xlink:href="dir_000012_000000.html" target="_top">
<path fill="none" stroke="#63b8ff" d="M118.48,-70.98C127.2,-63.15 140.34,-51.34 150.9,-41.86"/>
<polygon fill="#63b8ff" stroke="#63b8ff" points="153.25,-44.46 158.35,-35.17 148.57,-39.25 153.25,-44.46"/>
</a>
</g>
<g id="a_edge8&#45;headlabel"><a xlink:href="dir_000012_000000.html" target="_top" xlink:title="2">
<text text-anchor="middle" x="152.47" y="-46.47" font-family="Helvetica,sans-Serif" font-size="10.00" fill="#63b8ff">2</text>
</a>
</g>
</g>
<!-- dir_fe25ebdea0b69c48cf495d114ea06d68&#45;&gt;dir_a49b2ae4e107057a382f7728faa95ee7 -->
<g id="edge9" class="edge">
<title>dir_fe25ebdea0b69c48cf495d114ea06d68&#45;&gt;dir_a49b2ae4e107057a382f7728faa95ee7</title>
<g id="a_edge9"><a xlink:href="dir_000012_000013.html" target="_top">
<path fill="none" stroke="#63b8ff" d="M102.56,-70.75C97.11,-63.34 89.14,-52.5 82.44,-43.41"/>
<polygon fill="#63b8ff" stroke="#63b8ff" points="85.07,-41.07 76.32,-35.09 79.43,-45.22 85.07,-41.07"/>
</a>
</g>
<g id="a_edge9&#45;headlabel"><a xlink:href="dir_000012_000013.html" target="_top" xlink:title="2">
<text text-anchor="middle" x="89.48" y="-39.78" font-family="Helvetica,sans-Serif" font-size="10.00" fill="#63b8ff">2</text>
</a>
</g>
</g>
<!-- dir_fe25ebdea0b69c48cf495d114ea06d68&#45;&gt;dir_c121d3193a09b0381037e0156068a995 -->
<g id="edge10" class="edge">
<title>dir_fe25ebdea0b69c48cf495d114ea06d68&#45;&gt;dir_c121d3193a09b0381037e0156068a995</title>
<g id="a_edge10"><a xlink:href="dir_000012_000002.html" target="_top">
<path fill="none" stroke="#63b8ff" d="M114.57,-90.02C120.42,-98.98 129.87,-113.47 138,-126 148.13,-141.62 159.62,-159.42 167.86,-172.2"/>
<polygon fill="#63b8ff" stroke="#63b8ff" points="165.08,-174.35 173.44,-180.86 170.97,-170.56 165.08,-174.35"/>
</a>
</g>
<g id="a_edge10&#45;headlabel"><a xlink:href="dir_000012_000002.html" target="_top" xlink:title="1">
<text text-anchor="middle" x="160.75" y="-170.37" font-family="Helvetica,sans-Serif" font-size="10.00" fill="#63b8ff">1</text>
</a>
</g>
</g>
<!-- dir_0ee8d01c818a6381a98a3d57ad9512e1&#45;&gt;dir_1749b645fa05fc0c477f9e54117aefed -->
<g id="edge11" class="edge">
<title>dir_0ee8d01c818a6381a98a3d57ad9512e1&#45;&gt;dir_1749b645fa05fc0c477f9e54117aefed</title>
<g id="a_edge11"><a xlink:href="dir_000024_000000.html" target="_top">
<path fill="none" stroke="#63b8ff" d="M115.14,-125.85C121.28,-117.04 130.8,-102.88 138,-90 146.35,-75.05 154.57,-57.39 160.29,-44.49"/>
<polygon fill="#63b8ff" stroke="#63b8ff" points="163.5,-45.88 164.29,-35.32 157.08,-43.08 163.5,-45.88"/>
</a>
</g>
<g id="a_edge11&#45;headlabel"><a xlink:href="dir_000024_000000.html" target="_top" xlink:title="6">
<text text-anchor="middle" x="164.67" y="-47.81" font-family="Helvetica,sans-Serif" font-size="10.00" fill="#63b8ff">6</text>
</a>
</g>
</g>
<!-- dir_0ee8d01c818a6381a98a3d57ad9512e1&#45;&gt;dir_a49b2ae4e107057a382f7728faa95ee7 -->
<g id="edge12" class="edge">
<title>dir_0ee8d01c818a6381a98a3d57ad9512e1&#45;&gt;dir_a49b2ae4e107057a382f7728faa95ee7</title>
<g id="a_edge12"><a xlink:href="dir_000024_000013.html" target="_top">
<path fill="none" stroke="#63b8ff" d="M101.8,-125.91C95.05,-117.36 85.23,-103.6 80,-90 74.43,-75.5 71.96,-57.99 70.87,-45.03"/>
<polygon fill="#63b8ff" stroke="#63b8ff" points="74.35,-44.76 70.22,-35.01 67.37,-45.21 74.35,-44.76"/>
</a>
</g>
<g id="a_edge12&#45;headlabel"><a xlink:href="dir_000024_000013.html" target="_top" xlink:title="2">
<text text-anchor="middle" x="77.42" y="-45.66" font-family="Helvetica,sans-Serif" font-size="10.00" fill="#63b8ff">2</text>
</a>
</g>
</g>
<!-- dir_0ee8d01c818a6381a98a3d57ad9512e1&#45;&gt;dir_fe25ebdea0b69c48cf495d114ea06d68 -->
<g id="edge13" class="edge">
<title>dir_0ee8d01c818a6381a98a3d57ad9512e1&#45;&gt;dir_fe25ebdea0b69c48cf495d114ea06d68</title>
<g id="a_edge13"><a xlink:href="dir_000024_000012.html" target="_top">
<path fill="none" stroke="#63b8ff" d="M109,-125.75C109,-118.8 109,-108.85 109,-100.13"/>
<polygon fill="#63b8ff" stroke="#63b8ff" points="112.5,-100.09 109,-90.09 105.5,-100.09 112.5,-100.09"/>
</a>
</g>
<g id="a_edge13&#45;headlabel"><a xlink:href="dir_000024_000012.html" target="_top" xlink:title="6">
<text text-anchor="middle" x="115.34" y="-101.18" font-family="Helvetica,sans-Serif" font-size="10.00" fill="#63b8ff">6</text>
</a>
</g>
</g>
</g>
</svg>
