<?xml version="1.0" encoding="UTF-8" standalone="no"?>
<!DOCTYPE svg PUBLIC "-//W3C//DTD SVG 1.1//EN"
 "http://www.w3.org/Graphics/SVG/1.1/DTD/svg11.dtd">
<!-- Generated by graphviz version 2.43.0 (0)
 -->
<!-- Title: include/Hermes/Socket Pages: 1 -->
<svg width="170pt" height="251pt"
 viewBox="0.00 0.00 170.00 251.00" xmlns="http://www.w3.org/2000/svg" xmlns:xlink="http://www.w3.org/1999/xlink">
<g id="graph0" class="graph" transform="scale(1 1) rotate(0) translate(4 247)">
<title>include/Hermes/Socket</title>
<g id="clust1" class="cluster">
<title>clusterdir_48552af575f0c01fd908f857e8ea26ca</title>
<g id="a_clust1"><a xlink:href="dir_48552af575f0c01fd908f857e8ea26ca.html" target="_top" xlink:title="Hermes">
<polygon fill="#daedff" stroke="#7f7f7f" stroke-dasharray="5,2" points="8,-8 8,-235 154,-235 154,-8 8,-8"/>
<text text-anchor="middle" x="81" y="-223" font-family="Helvetica,sans-Serif" font-size="10.00">Hermes</text>
</a>
</g>
</g>
<g id="clust2" class="cluster">
<title>clusterdir_0b5ff7c741697c8eb7741053aebed106</title>
<g id="a_clust2"><a xlink:href="dir_0b5ff7c741697c8eb7741053aebed106.html" target="_top">
<polygon fill="#daedff" stroke="#404040" stroke-width="2" points="16,-63 16,-208 146,-208 146,-63 16,-63"/>
</a>
</g>
</g>
<!-- dir_1749b645fa05fc0c477f9e54117aefed -->
<g id="node1" class="node">
<title>dir_1749b645fa05fc0c477f9e54117aefed</title>
<g id="a_node1"><a xlink:href="dir_1749b645fa05fc0c477f9e54117aefed.html" target="_top" xlink:title="_base">
<polygon fill="#4ea9ff" stroke="red" points="64.5,-35 19.5,-35 19.5,-16 64.5,-16 64.5,-35"/>
<text text-anchor="middle" x="42" y="-23" font-family="Helvetica,sans-Serif" font-size="10.00">_base</text>
</a>
</g>
</g>
<!-- dir_a49b2ae4e107057a382f7728faa95ee7 -->
<g id="node2" class="node">
<title>dir_a49b2ae4e107057a382f7728faa95ee7</title>
<g id="a_node2"><a xlink:href="dir_a49b2ae4e107057a382f7728faa95ee7.html" target="_top" xlink:title="Endpoint">
<polygon fill="#4ea9ff" stroke="red" points="143.5,-35 84.5,-35 84.5,-16 143.5,-16 143.5,-35"/>
<text text-anchor="middle" x="114" y="-23" font-family="Helvetica,sans-Serif" font-size="10.00">Endpoint</text>
</a>
</g>
</g>
<!-- dir_0b5ff7c741697c8eb7741053aebed106 -->
<g id="node3" class="node">
<title>dir_0b5ff7c741697c8eb7741053aebed106</title>
<text text-anchor="middle" x="113" y="-188" font-family="Helvetica,sans-Serif" font-size="10.00">Socket</text>
</g>
<!-- dir_0b5ff7c741697c8eb7741053aebed106&#45;&gt;dir_1749b645fa05fc0c477f9e54117aefed -->
<g id="edge1" class="edge">
<title>dir_0b5ff7c741697c8eb7741053aebed106&#45;&gt;dir_1749b645fa05fc0c477f9e54117aefed</title>
<g id="a_edge1"><a xlink:href="dir_000016_000000.html" target="_top">
<path fill="none" stroke="#63b8ff" d="M90.77,-180.92C75.57,-173.78 56.51,-162.01 47,-145 29.4,-113.52 33.54,-69.64 37.92,-45.06"/>
<polygon fill="#63b8ff" stroke="#63b8ff" points="41.35,-45.74 39.86,-35.25 34.48,-44.37 41.35,-45.74"/>
</a>
</g>
<g id="a_edge1&#45;headlabel"><a xlink:href="dir_000016_000000.html" target="_top" xlink:title="10">
<text text-anchor="middle" x="43.44" y="-47.32" font-family="Helvetica,sans-Serif" font-size="10.00" fill="#63b8ff">10</text>
</a>
</g>
</g>
<!-- dir_0b5ff7c741697c8eb7741053aebed106&#45;&gt;dir_a49b2ae4e107057a382f7728faa95ee7 -->
<g id="edge2" class="edge">
<title>dir_0b5ff7c741697c8eb7741053aebed106&#45;&gt;dir_a49b2ae4e107057a382f7728faa95ee7</title>
<g id="a_edge2"><a xlink:href="dir_000016_000010.html" target="_top">
<path fill="none" stroke="#63b8ff" d="M115.24,-180.87C120.27,-160.36 131.5,-107.09 125,-63 124.12,-57.02 122.46,-50.65 120.7,-44.94"/>
<polygon fill="#63b8ff" stroke="#63b8ff" points="123.87,-43.39 117.35,-35.04 117.24,-45.63 123.87,-43.39"/>
</a>
</g>
<g id="a_edge2&#45;headlabel"><a xlink:href="dir_000016_000010.html" target="_top" xlink:title="3">
<text text-anchor="middle" x="127.71" y="-43.39" font-family="Helvetica,sans-Serif" font-size="10.00" fill="#63b8ff">3</text>
</a>
</g>
</g>
<!-- dir_12a10213270ed7546c8ef2a0fecfbc3d -->
<g id="node4" class="node">
<title>dir_12a10213270ed7546c8ef2a0fecfbc3d</title>
<g id="a_node4"><a xlink:href="dir_12a10213270ed7546c8ef2a0fecfbc3d.html" target="_top" xlink:title="Async">
<polygon fill="#4ea9ff" stroke="#404040" points="70,-200 24,-200 24,-181 70,-181 70,-200"/>
<text text-anchor="middle" x="47" y="-188" font-family="Helvetica,sans-Serif" font-size="10.00">Async</text>
</a>
</g>
</g>
<!-- dir_12a10213270ed7546c8ef2a0fecfbc3d&#45;&gt;dir_1749b645fa05fc0c477f9e54117aefed -->
<g id="edge5" class="edge">
<title>dir_12a10213270ed7546c8ef2a0fecfbc3d&#45;&gt;dir_1749b645fa05fc0c477f9e54117aefed</title>
<g id="a_edge5"><a xlink:href="dir_000006_000000.html" target="_top">
<path fill="none" stroke="#63b8ff" d="M43.14,-180.85C39.44,-172.04 34.11,-157.87 32,-145 26.1,-109.04 27.14,-99.12 32,-63 32.8,-57.05 34.3,-50.69 35.91,-44.98"/>
<polygon fill="#63b8ff" stroke="#63b8ff" points="39.36,-45.65 38.95,-35.07 32.67,-43.6 39.36,-45.65"/>
</a>
</g>
<g id="a_edge5&#45;headlabel"><a xlink:href="dir_000006_000000.html" target="_top" xlink:title="1">
<text text-anchor="middle" x="41.02" y="-47.42" font-family="Helvetica,sans-Serif" font-size="10.00" fill="#63b8ff">1</text>
</a>
</g>
</g>
<!-- dir_fe25ebdea0b69c48cf495d114ea06d68 -->
<g id="node5" class="node">
<title>dir_fe25ebdea0b69c48cf495d114ea06d68</title>
<g id="a_node5"><a xlink:href="dir_fe25ebdea0b69c48cf495d114ea06d68.html" target="_top" xlink:title="Data">
<polygon fill="#4ea9ff" stroke="#404040" points="116,-90 76,-90 76,-71 116,-71 116,-90"/>
<text text-anchor="middle" x="96" y="-78" font-family="Helvetica,sans-Serif" font-size="10.00">Data</text>
</a>
</g>
</g>
<!-- dir_12a10213270ed7546c8ef2a0fecfbc3d&#45;&gt;dir_fe25ebdea0b69c48cf495d114ea06d68 -->
<g id="edge3" class="edge">
<title>dir_12a10213270ed7546c8ef2a0fecfbc3d&#45;&gt;dir_fe25ebdea0b69c48cf495d114ea06d68</title>
<g id="a_edge3"><a xlink:href="dir_000006_000009.html" target="_top">
<path fill="none" stroke="#63b8ff" d="M65.67,-180.97C79.33,-173.59 96.86,-161.5 105,-145 111.99,-130.82 108.46,-112.83 103.92,-99.62"/>
<polygon fill="#63b8ff" stroke="#63b8ff" points="107.15,-98.26 100.25,-90.21 100.63,-100.8 107.15,-98.26"/>
</a>
</g>
<g id="a_edge3&#45;headlabel"><a xlink:href="dir_000006_000009.html" target="_top" xlink:title="4">
<text text-anchor="middle" x="111.1" y="-98.07" font-family="Helvetica,sans-Serif" font-size="10.00" fill="#63b8ff">4</text>
</a>
</g>
</g>
<!-- dir_0ee8d01c818a6381a98a3d57ad9512e1 -->
<g id="node6" class="node">
<title>dir_0ee8d01c818a6381a98a3d57ad9512e1</title>
<g id="a_node6"><a xlink:href="dir_0ee8d01c818a6381a98a3d57ad9512e1.html" target="_top" xlink:title="Sync">
<polygon fill="#4ea9ff" stroke="#404040" points="96,-145 56,-145 56,-126 96,-126 96,-145"/>
<text text-anchor="middle" x="76" y="-133" font-family="Helvetica,sans-Serif" font-size="10.00">Sync</text>
</a>
</g>
</g>
<!-- dir_12a10213270ed7546c8ef2a0fecfbc3d&#45;&gt;dir_0ee8d01c818a6381a98a3d57ad9512e1 -->
<g id="edge4" class="edge">
<title>dir_12a10213270ed7546c8ef2a0fecfbc3d&#45;&gt;dir_0ee8d01c818a6381a98a3d57ad9512e1</title>
<g id="a_edge4"><a xlink:href="dir_000006_000017.html" target="_top">
<path fill="none" stroke="#63b8ff" d="M51.79,-180.75C55.76,-173.49 61.53,-162.95 66.43,-153.98"/>
<polygon fill="#63b8ff" stroke="#63b8ff" points="69.57,-155.54 71.3,-145.09 63.43,-152.18 69.57,-155.54"/>
</a>
</g>
<g id="a_edge4&#45;headlabel"><a xlink:href="dir_000006_000017.html" target="_top" xlink:title="2">
<text text-anchor="middle" x="70.34" y="-157.56" font-family="Helvetica,sans-Serif" font-size="10.00" fill="#63b8ff">2</text>
</a>
</g>
</g>
<!-- dir_fe25ebdea0b69c48cf495d114ea06d68&#45;&gt;dir_1749b645fa05fc0c477f9e54117aefed -->
<g id="edge6" class="edge">
<title>dir_fe25ebdea0b69c48cf495d114ea06d68&#45;&gt;dir_1749b645fa05fc0c477f9e54117aefed</title>
<g id="a_edge6"><a xlink:href="dir_000009_000000.html" target="_top">
<path fill="none" stroke="#63b8ff" d="M87.08,-70.75C79.22,-63.03 67.57,-51.6 58.08,-42.28"/>
<polygon fill="#63b8ff" stroke="#63b8ff" points="60.34,-39.6 50.75,-35.09 55.44,-44.59 60.34,-39.6"/>
</a>
</g>
<g id="a_edge6&#45;headlabel"><a xlink:href="dir_000009_000000.html" target="_top" xlink:title="2">
<text text-anchor="middle" x="64.89" y="-37.59" font-family="Helvetica,sans-Serif" font-size="10.00" fill="#63b8ff">2</text>
</a>
</g>
</g>
<!-- dir_fe25ebdea0b69c48cf495d114ea06d68&#45;&gt;dir_a49b2ae4e107057a382f7728faa95ee7 -->
<g id="edge7" class="edge">
<title>dir_fe25ebdea0b69c48cf495d114ea06d68&#45;&gt;dir_a49b2ae4e107057a382f7728faa95ee7</title>
<g id="a_edge7"><a xlink:href="dir_000009_000010.html" target="_top">
<path fill="none" stroke="#63b8ff" d="M98.97,-70.75C101.36,-63.72 104.79,-53.62 107.77,-44.84"/>
<polygon fill="#63b8ff" stroke="#63b8ff" points="111.18,-45.68 111.08,-35.09 104.55,-43.43 111.18,-45.68"/>
</a>
</g>
<g id="a_edge7&#45;headlabel"><a xlink:href="dir_000009_000010.html" target="_top" xlink:title="2">
<text text-anchor="middle" x="112.71" y="-47.5" font-family="Helvetica,sans-Serif" font-size="10.00" fill="#63b8ff">2</text>
</a>
</g>
</g>
<!-- dir_0ee8d01c818a6381a98a3d57ad9512e1&#45;&gt;dir_1749b645fa05fc0c477f9e54117aefed -->
<g id="edge8" class="edge">
<title>dir_0ee8d01c818a6381a98a3d57ad9512e1&#45;&gt;dir_1749b645fa05fc0c477f9e54117aefed</title>
<g id="a_edge8"><a xlink:href="dir_000017_000000.html" target="_top">
<path fill="none" stroke="#63b8ff" d="M73.22,-125.66C67.69,-108.09 55.21,-68.45 47.81,-44.95"/>
<polygon fill="#63b8ff" stroke="#63b8ff" points="51.07,-43.65 44.73,-35.16 44.39,-45.75 51.07,-43.65"/>
</a>
</g>
<g id="a_edge8&#45;headlabel"><a xlink:href="dir_000017_000000.html" target="_top" xlink:title="6">
<text text-anchor="middle" x="54.85" y="-43.72" font-family="Helvetica,sans-Serif" font-size="10.00" fill="#63b8ff">6</text>
</a>
</g>
</g>
<!-- dir_0ee8d01c818a6381a98a3d57ad9512e1&#45;&gt;dir_fe25ebdea0b69c48cf495d114ea06d68 -->
<g id="edge9" class="edge">
<title>dir_0ee8d01c818a6381a98a3d57ad9512e1&#45;&gt;dir_fe25ebdea0b69c48cf495d114ea06d68</title>
<g id="a_edge9"><a xlink:href="dir_000017_000009.html" target="_top">
<path fill="none" stroke="#63b8ff" d="M79.3,-125.75C81.98,-118.65 85.85,-108.4 89.19,-99.56"/>
<polygon fill="#63b8ff" stroke="#63b8ff" points="92.5,-100.68 92.76,-90.09 85.95,-98.21 92.5,-100.68"/>
</a>
</g>
<g id="a_edge9&#45;headlabel"><a xlink:href="dir_000017_000009.html" target="_top" xlink:title="6">
<text text-anchor="middle" x="93.89" y="-102.55" font-family="Helvetica,sans-Serif" font-size="10.00" fill="#63b8ff">6</text>
</a>
</g>
</g>
</g>
</svg>
