<?xml version="1.0" encoding="UTF-8" standalone="no"?>
<!DOCTYPE svg PUBLIC "-//W3C//DTD SVG 1.1//EN"
 "http://www.w3.org/Graphics/SVG/1.1/DTD/svg11.dtd">
<!-- Generated by graphviz version 2.43.0 (0)
 -->
<!-- Title: include/Hermes/Socket/Sync/_base Pages: 1 -->
<svg width="333pt" height="125pt"
 viewBox="0.00 0.00 333.00 125.00" xmlns="http://www.w3.org/2000/svg" xmlns:xlink="http://www.w3.org/1999/xlink">
<g id="graph0" class="graph" transform="scale(1 1) rotate(0) translate(4 121)">
<title>include/Hermes/Socket/Sync/_base</title>
<g id="clust1" class="cluster">
<title>clusterdir_0ee8d01c818a6381a98a3d57ad9512e1</title>
<g id="a_clust1"><a xlink:href="dir_0ee8d01c818a6381a98a3d57ad9512e1.html" target="_top" xlink:title="Sync">
<polygon fill="#daedff" stroke="#7f7f7f" stroke-dasharray="5,2" points="8,-39 8,-109 317,-109 317,-39 8,-39"/>
<text text-anchor="middle" x="162.5" y="-97" font-family="Helvetica,sans-Serif" font-size="10.00">Sync</text>
</a>
</g>
</g>
<g id="clust2" class="cluster">
<title>clusterdir_6c65d6b76d253c9224cf49be08fab4e8</title>
<g id="a_clust2"><a xlink:href="dir_6c65d6b76d253c9224cf49be08fab4e8.html" target="_top">
<polygon fill="#daedff" stroke="#404040" stroke-width="2" points="16,-47 16,-82 309,-82 309,-47 16,-47"/>
</a>
</g>
</g>
<!-- dir_6c65d6b76d253c9224cf49be08fab4e8 -->
<g id="node1" class="node">
<title>dir_6c65d6b76d253c9224cf49be08fab4e8</title>
<text text-anchor="middle" x="278" y="-62" font-family="Helvetica,sans-Serif" font-size="10.00">_base</text>
</g>
<!-- dir_34ccd12e905e1d8fbe8158f13744f06f -->
<g id="node2" class="node">
<title>dir_34ccd12e905e1d8fbe8158f13744f06f</title>
<g id="a_node2"><a xlink:href="dir_34ccd12e905e1d8fbe8158f13744f06f.html" target="_top" xlink:title="Accept">
<polygon fill="#4ea9ff" stroke="#404040" points="74,-74 24,-74 24,-55 74,-55 74,-74"/>
<text text-anchor="middle" x="49" y="-62" font-family="Helvetica,sans-Serif" font-size="10.00">Accept</text>
</a>
</g>
</g>
<!-- dir_fe25ebdea0b69c48cf495d114ea06d68 -->
<g id="node5" class="node">
<title>dir_fe25ebdea0b69c48cf495d114ea06d68</title>
<g id="a_node5"><a xlink:href="dir_fe25ebdea0b69c48cf495d114ea06d68.html" target="_top" xlink:title="Data">
<polygon fill="#daedff" stroke="#7f7f7f" points="109,-19 69,-19 69,0 109,0 109,-19"/>
<text text-anchor="middle" x="89" y="-7" font-family="Helvetica,sans-Serif" font-size="10.00">Data</text>
</a>
</g>
</g>
<!-- dir_34ccd12e905e1d8fbe8158f13744f06f&#45;&gt;dir_fe25ebdea0b69c48cf495d114ea06d68 -->
<g id="edge2" class="edge">
<title>dir_34ccd12e905e1d8fbe8158f13744f06f&#45;&gt;dir_fe25ebdea0b69c48cf495d114ea06d68</title>
<g id="a_edge2"><a xlink:href="dir_000005_000009.html" target="_top">
<path fill="none" stroke="#63b8ff" d="M55.61,-54.75C61.26,-47.26 69.54,-36.28 76.45,-27.13"/>
<polygon fill="#63b8ff" stroke="#63b8ff" points="79.29,-29.18 82.52,-19.09 73.7,-24.96 79.29,-29.18"/>
</a>
</g>
<g id="a_edge2&#45;headlabel"><a xlink:href="dir_000005_000009.html" target="_top" xlink:title="2">
<text text-anchor="middle" x="79.39" y="-31.26" font-family="Helvetica,sans-Serif" font-size="10.00" fill="#63b8ff">2</text>
</a>
</g>
</g>
<!-- dir_1749b645fa05fc0c477f9e54117aefed -->
<g id="node6" class="node">
<title>dir_1749b645fa05fc0c477f9e54117aefed</title>
<g id="a_node6"><a xlink:href="dir_1749b645fa05fc0c477f9e54117aefed.html" target="_top" xlink:title="_base">
<polygon fill="#daedff" stroke="red" stroke-dasharray="5,2" points="172.5,-19 127.5,-19 127.5,0 172.5,0 172.5,-19"/>
<text text-anchor="middle" x="150" y="-7" font-family="Helvetica,sans-Serif" font-size="10.00">_base</text>
</a>
</g>
</g>
<!-- dir_34ccd12e905e1d8fbe8158f13744f06f&#45;&gt;dir_1749b645fa05fc0c477f9e54117aefed -->
<g id="edge1" class="edge">
<title>dir_34ccd12e905e1d8fbe8158f13744f06f&#45;&gt;dir_1749b645fa05fc0c477f9e54117aefed</title>
<g id="a_edge1"><a xlink:href="dir_000005_000000.html" target="_top">
<path fill="none" stroke="#63b8ff" d="M59.61,-54.91C66.12,-49.89 74.76,-43.64 83,-39 93.99,-32.81 106.59,-27.11 117.87,-22.47"/>
<polygon fill="#63b8ff" stroke="#63b8ff" points="119.39,-25.63 127.38,-18.67 116.8,-19.13 119.39,-25.63"/>
</a>
</g>
<g id="a_edge1&#45;headlabel"><a xlink:href="dir_000005_000000.html" target="_top" xlink:title="2">
<text text-anchor="middle" x="117.11" y="-27.1" font-family="Helvetica,sans-Serif" font-size="10.00" fill="#63b8ff">2</text>
</a>
</g>
</g>
<!-- dir_f394f55731a2b928908fdd0c70b34b47 -->
<g id="node3" class="node">
<title>dir_f394f55731a2b928908fdd0c70b34b47</title>
<g id="a_node3"><a xlink:href="dir_f394f55731a2b928908fdd0c70b34b47.html" target="_top" xlink:title="Connection">
<polygon fill="#4ea9ff" stroke="#404040" points="237.5,-74 166.5,-74 166.5,-55 237.5,-55 237.5,-74"/>
<text text-anchor="middle" x="202" y="-62" font-family="Helvetica,sans-Serif" font-size="10.00">Connection</text>
</a>
</g>
</g>
<!-- dir_f394f55731a2b928908fdd0c70b34b47&#45;&gt;dir_fe25ebdea0b69c48cf495d114ea06d68 -->
<g id="edge4" class="edge">
<title>dir_f394f55731a2b928908fdd0c70b34b47&#45;&gt;dir_fe25ebdea0b69c48cf495d114ea06d68</title>
<g id="a_edge4"><a xlink:href="dir_000008_000009.html" target="_top">
<path fill="none" stroke="#63b8ff" d="M187.2,-54.95C178.51,-50.05 167.26,-43.93 157,-39 144.65,-33.07 130.74,-27.12 118.73,-22.2"/>
<polygon fill="#63b8ff" stroke="#63b8ff" points="119.76,-18.83 109.17,-18.33 117.13,-25.32 119.76,-18.83"/>
</a>
</g>
<g id="a_edge4&#45;headlabel"><a xlink:href="dir_000008_000009.html" target="_top" xlink:title="2">
<text text-anchor="middle" x="124.15" y="-15.05" font-family="Helvetica,sans-Serif" font-size="10.00" fill="#63b8ff">2</text>
</a>
</g>
</g>
<!-- dir_f394f55731a2b928908fdd0c70b34b47&#45;&gt;dir_1749b645fa05fc0c477f9e54117aefed -->
<g id="edge3" class="edge">
<title>dir_f394f55731a2b928908fdd0c70b34b47&#45;&gt;dir_1749b645fa05fc0c477f9e54117aefed</title>
<g id="a_edge3"><a xlink:href="dir_000008_000000.html" target="_top">
<path fill="none" stroke="#63b8ff" d="M193.41,-54.75C185.84,-47.03 174.62,-35.6 165.49,-26.28"/>
<polygon fill="#63b8ff" stroke="#63b8ff" points="167.93,-23.78 158.43,-19.09 162.93,-28.68 167.93,-23.78"/>
</a>
</g>
<g id="a_edge3&#45;headlabel"><a xlink:href="dir_000008_000000.html" target="_top" xlink:title="2">
<text text-anchor="middle" x="172.47" y="-21.85" font-family="Helvetica,sans-Serif" font-size="10.00" fill="#63b8ff">2</text>
</a>
</g>
</g>
<!-- dir_f08b9429a747e7265fc669d93e024fc1 -->
<g id="node4" class="node">
<title>dir_f08b9429a747e7265fc669d93e024fc1</title>
<g id="a_node4"><a xlink:href="dir_f08b9429a747e7265fc669d93e024fc1.html" target="_top" xlink:title="Transfer">
<polygon fill="#4ea9ff" stroke="#404040" points="148,-74 92,-74 92,-55 148,-55 148,-74"/>
<text text-anchor="middle" x="120" y="-62" font-family="Helvetica,sans-Serif" font-size="10.00">Transfer</text>
</a>
</g>
</g>
<!-- dir_f08b9429a747e7265fc669d93e024fc1&#45;&gt;dir_fe25ebdea0b69c48cf495d114ea06d68 -->
<g id="edge6" class="edge">
<title>dir_f08b9429a747e7265fc669d93e024fc1&#45;&gt;dir_fe25ebdea0b69c48cf495d114ea06d68</title>
<g id="a_edge6"><a xlink:href="dir_000019_000009.html" target="_top">
<path fill="none" stroke="#63b8ff" d="M114.88,-54.75C110.64,-47.49 104.47,-36.95 99.22,-27.98"/>
<polygon fill="#63b8ff" stroke="#63b8ff" points="102.09,-25.95 94.02,-19.09 96.05,-29.49 102.09,-25.95"/>
</a>
</g>
<g id="a_edge6&#45;headlabel"><a xlink:href="dir_000019_000009.html" target="_top" xlink:title="2">
<text text-anchor="middle" x="106.36" y="-25.12" font-family="Helvetica,sans-Serif" font-size="10.00" fill="#63b8ff">2</text>
</a>
</g>
</g>
<!-- dir_f08b9429a747e7265fc669d93e024fc1&#45;&gt;dir_1749b645fa05fc0c477f9e54117aefed -->
<g id="edge5" class="edge">
<title>dir_f08b9429a747e7265fc669d93e024fc1&#45;&gt;dir_1749b645fa05fc0c477f9e54117aefed</title>
<g id="a_edge5"><a xlink:href="dir_000019_000000.html" target="_top">
<path fill="none" stroke="#63b8ff" d="M124.95,-54.75C129.06,-47.49 135.03,-36.95 140.1,-27.98"/>
<polygon fill="#63b8ff" stroke="#63b8ff" points="143.26,-29.52 145.14,-19.09 137.17,-26.07 143.26,-29.52"/>
</a>
</g>
<g id="a_edge5&#45;headlabel"><a xlink:href="dir_000019_000000.html" target="_top" xlink:title="2">
<text text-anchor="middle" x="143.96" y="-31.54" font-family="Helvetica,sans-Serif" font-size="10.00" fill="#63b8ff">2</text>
</a>
</g>
</g>
</g>
</svg>
