<?xml version="1.0" encoding="UTF-8" standalone="no"?>
<!DOCTYPE svg PUBLIC "-//W3C//DTD SVG 1.1//EN"
 "http://www.w3.org/Graphics/SVG/1.1/DTD/svg11.dtd">
<!-- Generated by graphviz version 2.43.0 (0)
 -->
<!-- Title: include/Hermes/Socket/Sync/_base Pages: 1 -->
<svg width="333pt" height="125pt"
 viewBox="0.00 0.00 333.00 125.00" xmlns="http://www.w3.org/2000/svg" xmlns:xlink="http://www.w3.org/1999/xlink">
<g id="graph0" class="graph" transform="scale(1 1) rotate(0) translate(4 121)">
<title>include/Hermes/Socket/Sync/_base</title>
<g id="clust1" class="cluster">
<title>clusterdir_0ee8d01c818a6381a98a3d57ad9512e1</title>
<g id="a_clust1"><a xlink:href="dir_0ee8d01c818a6381a98a3d57ad9512e1.html" target="_top" xlink:title="Sync">
<polygon fill="#daedff" stroke="#7f7f7f" stroke-dasharray="5,2" points="8,-39 8,-109 317,-109 317,-39 8,-39"/>
<text text-anchor="middle" x="162.5" y="-97" font-family="Helvetica,sans-Serif" font-size="10.00">Sync</text>
</a>
</g>
</g>
<g id="clust2" class="cluster">
<title>clusterdir_6c65d6b76d253c9224cf49be08fab4e8</title>
<g id="a_clust2"><a xlink:href="dir_6c65d6b76d253c9224cf49be08fab4e8.html" target="_top">
<polygon fill="#daedff" stroke="#404040" stroke-width="2" points="16,-47 16,-82 309,-82 309,-47 16,-47"/>
</a>
</g>
</g>
<!-- dir_6c65d6b76d253c9224cf49be08fab4e8 -->
<g id="node1" class="node">
<title>dir_6c65d6b76d253c9224cf49be08fab4e8</title>
<text text-anchor="middle" x="278" y="-62" font-family="Helvetica,sans-Serif" font-size="10.00">_base</text>
</g>
<!-- dir_34ccd12e905e1d8fbe8158f13744f06f -->
<g id="node2" class="node">
<title>dir_34ccd12e905e1d8fbe8158f13744f06f</title>
<g id="a_node2"><a xlink:href="dir_34ccd12e905e1d8fbe8158f13744f06f.html" target="_top" xlink:title="Accept">
<polygon fill="#4ea9ff" stroke="#404040" points="74,-74 24,-74 24,-55 74,-55 74,-74"/>
<text text-anchor="middle" x="49" y="-62" font-family="Helvetica,sans-Serif" font-size="10.00">Accept</text>
</a>
</g>
</g>
<!-- dir_fe25ebdea0b69c48cf495d114ea06d68 -->
<g id="node5" class="node">
<title>dir_fe25ebdea0b69c48cf495d114ea06d68</title>
<g id="a_node5"><a xlink:href="dir_fe25ebdea0b69c48cf495d114ea06d68.html" target="_top" xlink:title="Data">
<polygon fill="#daedff" stroke="#7f7f7f" points="85,-19 45,-19 45,0 85,0 85,-19"/>
<text text-anchor="middle" x="65" y="-7" font-family="Helvetica,sans-Serif" font-size="10.00">Data</text>
</a>
</g>
</g>
<!-- dir_34ccd12e905e1d8fbe8158f13744f06f&#45;&gt;dir_fe25ebdea0b69c48cf495d114ea06d68 -->
<g id="edge2" class="edge">
<title>dir_34ccd12e905e1d8fbe8158f13744f06f&#45;&gt;dir_fe25ebdea0b69c48cf495d114ea06d68</title>
<g id="a_edge2"><a xlink:href="dir_000007_000012.html" target="_top">
<path fill="none" stroke="#63b8ff" d="M51.64,-54.75C53.76,-47.72 56.81,-37.62 59.46,-28.84"/>
<polygon fill="#63b8ff" stroke="#63b8ff" points="62.87,-29.67 62.41,-19.09 56.17,-27.65 62.87,-29.67"/>
</a>
</g>
<g id="a_edge2&#45;headlabel"><a xlink:href="dir_000007_000012.html" target="_top" xlink:title="2">
<text text-anchor="middle" x="64.55" y="-31.44" font-family="Helvetica,sans-Serif" font-size="10.00" fill="#63b8ff">2</text>
</a>
</g>
</g>
<!-- dir_1749b645fa05fc0c477f9e54117aefed -->
<g id="node6" class="node">
<title>dir_1749b645fa05fc0c477f9e54117aefed</title>
<g id="a_node6"><a xlink:href="dir_1749b645fa05fc0c477f9e54117aefed.html" target="_top" xlink:title="_base">
<polygon fill="#daedff" stroke="red" stroke-dasharray="5,2" points="148.5,-19 103.5,-19 103.5,0 148.5,0 148.5,-19"/>
<text text-anchor="middle" x="126" y="-7" font-family="Helvetica,sans-Serif" font-size="10.00">_base</text>
</a>
</g>
</g>
<!-- dir_34ccd12e905e1d8fbe8158f13744f06f&#45;&gt;dir_1749b645fa05fc0c477f9e54117aefed -->
<g id="edge1" class="edge">
<title>dir_34ccd12e905e1d8fbe8158f13744f06f&#45;&gt;dir_1749b645fa05fc0c477f9e54117aefed</title>
<g id="a_edge1"><a xlink:href="dir_000007_000000.html" target="_top">
<path fill="none" stroke="#63b8ff" d="M60.56,-55C67.1,-50.23 75.46,-44.21 83,-39 89.79,-34.31 97.26,-29.3 104.04,-24.82"/>
<polygon fill="#63b8ff" stroke="#63b8ff" points="106.3,-27.52 112.74,-19.1 102.46,-21.67 106.3,-27.52"/>
</a>
</g>
<g id="a_edge1&#45;headlabel"><a xlink:href="dir_000007_000000.html" target="_top" xlink:title="2">
<text text-anchor="middle" x="104.86" y="-29.36" font-family="Helvetica,sans-Serif" font-size="10.00" fill="#63b8ff">2</text>
</a>
</g>
</g>
<!-- dir_f394f55731a2b928908fdd0c70b34b47 -->
<g id="node3" class="node">
<title>dir_f394f55731a2b928908fdd0c70b34b47</title>
<g id="a_node3"><a xlink:href="dir_f394f55731a2b928908fdd0c70b34b47.html" target="_top" xlink:title="Connection">
<polygon fill="#4ea9ff" stroke="#404040" points="237.5,-74 166.5,-74 166.5,-55 237.5,-55 237.5,-74"/>
<text text-anchor="middle" x="202" y="-62" font-family="Helvetica,sans-Serif" font-size="10.00">Connection</text>
</a>
</g>
</g>
<!-- dir_f394f55731a2b928908fdd0c70b34b47&#45;&gt;dir_fe25ebdea0b69c48cf495d114ea06d68 -->
<g id="edge5" class="edge">
<title>dir_f394f55731a2b928908fdd0c70b34b47&#45;&gt;dir_fe25ebdea0b69c48cf495d114ea06d68</title>
<g id="a_edge5"><a xlink:href="dir_000011_000012.html" target="_top">
<path fill="none" stroke="#63b8ff" d="M187.77,-54.81C179.09,-49.75 167.65,-43.5 157,-39 151.11,-36.51 119.43,-26.83 94.87,-19.43"/>
<polygon fill="#63b8ff" stroke="#63b8ff" points="95.79,-16.05 85.21,-16.53 93.78,-22.76 95.79,-16.05"/>
</a>
</g>
<g id="a_edge5&#45;headlabel"><a xlink:href="dir_000011_000012.html" target="_top" xlink:title="2">
<text text-anchor="middle" x="100.05" y="-11.87" font-family="Helvetica,sans-Serif" font-size="10.00" fill="#63b8ff">2</text>
</a>
</g>
</g>
<!-- dir_f394f55731a2b928908fdd0c70b34b47&#45;&gt;dir_1749b645fa05fc0c477f9e54117aefed -->
<g id="edge3" class="edge">
<title>dir_f394f55731a2b928908fdd0c70b34b47&#45;&gt;dir_1749b645fa05fc0c477f9e54117aefed</title>
<g id="a_edge3"><a xlink:href="dir_000011_000000.html" target="_top">
<path fill="none" stroke="#63b8ff" d="M189.79,-54.98C178.22,-46.92 160.62,-34.65 146.84,-25.03"/>
<polygon fill="#63b8ff" stroke="#63b8ff" points="148.64,-22.02 138.43,-19.17 144.63,-27.76 148.64,-22.02"/>
</a>
</g>
<g id="a_edge3&#45;headlabel"><a xlink:href="dir_000011_000000.html" target="_top" xlink:title="2">
<text text-anchor="middle" x="153.21" y="-19.25" font-family="Helvetica,sans-Serif" font-size="10.00" fill="#63b8ff">2</text>
</a>
</g>
</g>
<!-- dir_a49b2ae4e107057a382f7728faa95ee7 -->
<g id="node7" class="node">
<title>dir_a49b2ae4e107057a382f7728faa95ee7</title>
<g id="a_node7"><a xlink:href="dir_a49b2ae4e107057a382f7728faa95ee7.html" target="_top" xlink:title="Endpoint">
<polygon fill="#daedff" stroke="red" stroke-dasharray="5,2" points="231.5,-19 172.5,-19 172.5,0 231.5,0 231.5,-19"/>
<text text-anchor="middle" x="202" y="-7" font-family="Helvetica,sans-Serif" font-size="10.00">Endpoint</text>
</a>
</g>
</g>
<!-- dir_f394f55731a2b928908fdd0c70b34b47&#45;&gt;dir_a49b2ae4e107057a382f7728faa95ee7 -->
<g id="edge4" class="edge">
<title>dir_f394f55731a2b928908fdd0c70b34b47&#45;&gt;dir_a49b2ae4e107057a382f7728faa95ee7</title>
<g id="a_edge4"><a xlink:href="dir_000011_000013.html" target="_top">
<path fill="none" stroke="#63b8ff" d="M202,-54.75C202,-47.8 202,-37.85 202,-29.13"/>
<polygon fill="#63b8ff" stroke="#63b8ff" points="205.5,-29.09 202,-19.09 198.5,-29.09 205.5,-29.09"/>
</a>
</g>
<g id="a_edge4&#45;headlabel"><a xlink:href="dir_000011_000013.html" target="_top" xlink:title="2">
<text text-anchor="middle" x="208.34" y="-30.18" font-family="Helvetica,sans-Serif" font-size="10.00" fill="#63b8ff">2</text>
</a>
</g>
</g>
<!-- dir_f08b9429a747e7265fc669d93e024fc1 -->
<g id="node4" class="node">
<title>dir_f08b9429a747e7265fc669d93e024fc1</title>
<g id="a_node4"><a xlink:href="dir_f08b9429a747e7265fc669d93e024fc1.html" target="_top" xlink:title="Transfer">
<polygon fill="#4ea9ff" stroke="#404040" points="148,-74 92,-74 92,-55 148,-55 148,-74"/>
<text text-anchor="middle" x="120" y="-62" font-family="Helvetica,sans-Serif" font-size="10.00">Transfer</text>
</a>
</g>
</g>
<!-- dir_f08b9429a747e7265fc669d93e024fc1&#45;&gt;dir_fe25ebdea0b69c48cf495d114ea06d68 -->
<g id="edge7" class="edge">
<title>dir_f08b9429a747e7265fc669d93e024fc1&#45;&gt;dir_fe25ebdea0b69c48cf495d114ea06d68</title>
<g id="a_edge7"><a xlink:href="dir_000025_000012.html" target="_top">
<path fill="none" stroke="#63b8ff" d="M110.92,-54.75C102.91,-47.03 91.04,-35.6 81.38,-26.28"/>
<polygon fill="#63b8ff" stroke="#63b8ff" points="83.54,-23.51 73.91,-19.09 78.69,-28.55 83.54,-23.51"/>
</a>
</g>
<g id="a_edge7&#45;headlabel"><a xlink:href="dir_000025_000012.html" target="_top" xlink:title="2">
<text text-anchor="middle" x="88.1" y="-21.46" font-family="Helvetica,sans-Serif" font-size="10.00" fill="#63b8ff">2</text>
</a>
</g>
</g>
<!-- dir_f08b9429a747e7265fc669d93e024fc1&#45;&gt;dir_1749b645fa05fc0c477f9e54117aefed -->
<g id="edge6" class="edge">
<title>dir_f08b9429a747e7265fc669d93e024fc1&#45;&gt;dir_1749b645fa05fc0c477f9e54117aefed</title>
<g id="a_edge6"><a xlink:href="dir_000025_000000.html" target="_top">
<path fill="none" stroke="#63b8ff" d="M120.99,-54.75C121.78,-47.8 122.9,-37.85 123.89,-29.13"/>
<polygon fill="#63b8ff" stroke="#63b8ff" points="127.38,-29.42 125.03,-19.09 120.42,-28.63 127.38,-29.42"/>
</a>
</g>
<g id="a_edge6&#45;headlabel"><a xlink:href="dir_000025_000000.html" target="_top" xlink:title="2">
<text text-anchor="middle" x="129.8" y="-30.81" font-family="Helvetica,sans-Serif" font-size="10.00" fill="#63b8ff">2</text>
</a>
</g>
</g>
</g>
</svg>
