<?xml version="1.0" encoding="UTF-8" standalone="no"?>
<!DOCTYPE svg PUBLIC "-//W3C//DTD SVG 1.1//EN"
 "http://www.w3.org/Graphics/SVG/1.1/DTD/svg11.dtd">
<!-- Generated by graphviz version 2.43.0 (0)
 -->
<!-- Title: include/Hermes/Socket/Async/_base Pages: 1 -->
<svg width="448pt" height="180pt"
 viewBox="0.00 0.00 448.40 180.00" xmlns="http://www.w3.org/2000/svg" xmlns:xlink="http://www.w3.org/1999/xlink">
<g id="graph0" class="graph" transform="scale(1 1) rotate(0) translate(4 176)">
<title>include/Hermes/Socket/Async/_base</title>
<g id="clust1" class="cluster">
<title>clusterdir_12a10213270ed7546c8ef2a0fecfbc3d</title>
<g id="a_clust1"><a xlink:href="dir_12a10213270ed7546c8ef2a0fecfbc3d.html" target="_top" xlink:title="Async">
<polygon fill="#daedff" stroke="#7f7f7f" stroke-dasharray="5,2" points="8,-39 8,-164 318,-164 318,-39 8,-39"/>
<text text-anchor="middle" x="163" y="-152" font-family="Helvetica,sans-Serif" font-size="10.00">Async</text>
</a>
</g>
</g>
<g id="clust2" class="cluster">
<title>clusterdir_06af5df3c2709e6a7ef82106d7a20cd9</title>
<g id="a_clust2"><a xlink:href="dir_06af5df3c2709e6a7ef82106d7a20cd9.html" target="_top">
<polygon fill="#daedff" stroke="#404040" stroke-width="2" points="16,-47 16,-137 310,-137 310,-47 16,-47"/>
</a>
</g>
</g>
<!-- dir_06af5df3c2709e6a7ef82106d7a20cd9 -->
<g id="node1" class="node">
<title>dir_06af5df3c2709e6a7ef82106d7a20cd9</title>
<text text-anchor="middle" x="279" y="-117" font-family="Helvetica,sans-Serif" font-size="10.00">_base</text>
</g>
<!-- dir_712fab54381e11049ae9d576aa28212a -->
<g id="node2" class="node">
<title>dir_712fab54381e11049ae9d576aa28212a</title>
<g id="a_node2"><a xlink:href="dir_712fab54381e11049ae9d576aa28212a.html" target="_top" xlink:title="Accept">
<polygon fill="#4ea9ff" stroke="#404040" points="164,-129 114,-129 114,-110 164,-110 164,-129"/>
<text text-anchor="middle" x="139" y="-117" font-family="Helvetica,sans-Serif" font-size="10.00">Accept</text>
</a>
</g>
</g>
<!-- dir_4763cd3430a3c57aac9a2dc63f6c1e05 -->
<g id="node4" class="node">
<title>dir_4763cd3430a3c57aac9a2dc63f6c1e05</title>
<g id="a_node4"><a xlink:href="dir_4763cd3430a3c57aac9a2dc63f6c1e05.html" target="_top" xlink:title="ExecutionContext">
<polygon fill="#4ea9ff" stroke="#404040" points="190,-74 88,-74 88,-55 190,-55 190,-74"/>
<text text-anchor="middle" x="139" y="-62" font-family="Helvetica,sans-Serif" font-size="10.00">ExecutionContext</text>
</a>
</g>
</g>
<!-- dir_712fab54381e11049ae9d576aa28212a&#45;&gt;dir_4763cd3430a3c57aac9a2dc63f6c1e05 -->
<g id="edge2" class="edge">
<title>dir_712fab54381e11049ae9d576aa28212a&#45;&gt;dir_4763cd3430a3c57aac9a2dc63f6c1e05</title>
<g id="a_edge2"><a xlink:href="dir_000006_000015.html" target="_top">
<path fill="none" stroke="#63b8ff" d="M139,-109.75C139,-102.8 139,-92.85 139,-84.13"/>
<polygon fill="#63b8ff" stroke="#63b8ff" points="142.5,-84.09 139,-74.09 135.5,-84.09 142.5,-84.09"/>
</a>
</g>
<g id="a_edge2&#45;headlabel"><a xlink:href="dir_000006_000015.html" target="_top" xlink:title="2">
<text text-anchor="middle" x="145.34" y="-85.18" font-family="Helvetica,sans-Serif" font-size="10.00" fill="#63b8ff">2</text>
</a>
</g>
</g>
<!-- dir_fe25ebdea0b69c48cf495d114ea06d68 -->
<g id="node6" class="node">
<title>dir_fe25ebdea0b69c48cf495d114ea06d68</title>
<g id="a_node6"><a xlink:href="dir_fe25ebdea0b69c48cf495d114ea06d68.html" target="_top" xlink:title="Data">
<polygon fill="#daedff" stroke="#7f7f7f" points="424,-74 384,-74 384,-55 424,-55 424,-74"/>
<text text-anchor="middle" x="404" y="-62" font-family="Helvetica,sans-Serif" font-size="10.00">Data</text>
</a>
</g>
</g>
<!-- dir_712fab54381e11049ae9d576aa28212a&#45;&gt;dir_fe25ebdea0b69c48cf495d114ea06d68 -->
<g id="edge3" class="edge">
<title>dir_712fab54381e11049ae9d576aa28212a&#45;&gt;dir_fe25ebdea0b69c48cf495d114ea06d68</title>
<g id="a_edge3"><a xlink:href="dir_000006_000012.html" target="_top">
<path fill="none" stroke="#63b8ff" d="M164.21,-111.99C167.16,-111.29 170.14,-110.61 173,-110 259.13,-91.58 284.5,-94.61 374.04,-74.01"/>
<polygon fill="#63b8ff" stroke="#63b8ff" points="374.85,-77.41 383.79,-71.73 373.26,-70.59 374.85,-77.41"/>
</a>
</g>
<g id="a_edge3&#45;headlabel"><a xlink:href="dir_000006_000012.html" target="_top" xlink:title="2">
<text text-anchor="middle" x="372" y="-78.49" font-family="Helvetica,sans-Serif" font-size="10.00" fill="#63b8ff">2</text>
</a>
</g>
</g>
<!-- dir_0ee8d01c818a6381a98a3d57ad9512e1 -->
<g id="node7" class="node">
<title>dir_0ee8d01c818a6381a98a3d57ad9512e1</title>
<g id="a_node7"><a xlink:href="dir_0ee8d01c818a6381a98a3d57ad9512e1.html" target="_top" xlink:title="Sync">
<polygon fill="#daedff" stroke="red" stroke-dasharray="5,2" points="366,-74 326,-74 326,-55 366,-55 366,-74"/>
<text text-anchor="middle" x="346" y="-62" font-family="Helvetica,sans-Serif" font-size="10.00">Sync</text>
</a>
</g>
</g>
<!-- dir_712fab54381e11049ae9d576aa28212a&#45;&gt;dir_0ee8d01c818a6381a98a3d57ad9512e1 -->
<g id="edge1" class="edge">
<title>dir_712fab54381e11049ae9d576aa28212a&#45;&gt;dir_0ee8d01c818a6381a98a3d57ad9512e1</title>
<g id="a_edge1"><a xlink:href="dir_000006_000021.html" target="_top">
<path fill="none" stroke="#63b8ff" d="M164.23,-112.17C198.27,-103.62 260.75,-87.84 314,-74 314.59,-73.85 315.19,-73.69 315.79,-73.53"/>
<polygon fill="#63b8ff" stroke="#63b8ff" points="316.91,-76.86 325.69,-70.93 315.13,-70.09 316.91,-76.86"/>
</a>
</g>
<g id="a_edge1&#45;headlabel"><a xlink:href="dir_000006_000021.html" target="_top" xlink:title="2">
<text text-anchor="middle" x="314.16" y="-78.02" font-family="Helvetica,sans-Serif" font-size="10.00" fill="#63b8ff">2</text>
</a>
</g>
</g>
<!-- dir_7184f108bdbfc6552bc4bad46b5d0dea -->
<g id="node3" class="node">
<title>dir_7184f108bdbfc6552bc4bad46b5d0dea</title>
<g id="a_node3"><a xlink:href="dir_7184f108bdbfc6552bc4bad46b5d0dea.html" target="_top" xlink:title="Connection">
<polygon fill="#4ea9ff" stroke="#404040" points="95.5,-129 24.5,-129 24.5,-110 95.5,-110 95.5,-129"/>
<text text-anchor="middle" x="60" y="-117" font-family="Helvetica,sans-Serif" font-size="10.00">Connection</text>
</a>
</g>
</g>
<!-- dir_7184f108bdbfc6552bc4bad46b5d0dea&#45;&gt;dir_4763cd3430a3c57aac9a2dc63f6c1e05 -->
<g id="edge5" class="edge">
<title>dir_7184f108bdbfc6552bc4bad46b5d0dea&#45;&gt;dir_4763cd3430a3c57aac9a2dc63f6c1e05</title>
<g id="a_edge5"><a xlink:href="dir_000010_000015.html" target="_top">
<path fill="none" stroke="#63b8ff" d="M72.69,-109.98C84.83,-101.84 103.36,-89.41 117.75,-79.76"/>
<polygon fill="#63b8ff" stroke="#63b8ff" points="119.72,-82.65 126.08,-74.17 115.82,-76.84 119.72,-82.65"/>
</a>
</g>
<g id="a_edge5&#45;headlabel"><a xlink:href="dir_000010_000015.html" target="_top" xlink:title="2">
<text text-anchor="middle" x="118.32" y="-84.51" font-family="Helvetica,sans-Serif" font-size="10.00" fill="#63b8ff">2</text>
</a>
</g>
</g>
<!-- dir_7184f108bdbfc6552bc4bad46b5d0dea&#45;&gt;dir_fe25ebdea0b69c48cf495d114ea06d68 -->
<g id="edge6" class="edge">
<title>dir_7184f108bdbfc6552bc4bad46b5d0dea&#45;&gt;dir_fe25ebdea0b69c48cf495d114ea06d68</title>
<g id="a_edge6"><a xlink:href="dir_000010_000012.html" target="_top">
<path fill="none" stroke="#63b8ff" d="M95.83,-111.55C98.93,-111.01 102.02,-110.48 105,-110 221.37,-91.27 254.82,-98.68 373.95,-73.93"/>
<polygon fill="#63b8ff" stroke="#63b8ff" points="374.76,-77.33 383.82,-71.84 373.31,-70.48 374.76,-77.33"/>
</a>
</g>
<g id="a_edge6&#45;headlabel"><a xlink:href="dir_000010_000012.html" target="_top" xlink:title="2">
<text text-anchor="middle" x="371.83" y="-78.35" font-family="Helvetica,sans-Serif" font-size="10.00" fill="#63b8ff">2</text>
</a>
</g>
</g>
<!-- dir_7184f108bdbfc6552bc4bad46b5d0dea&#45;&gt;dir_0ee8d01c818a6381a98a3d57ad9512e1 -->
<g id="edge4" class="edge">
<title>dir_7184f108bdbfc6552bc4bad46b5d0dea&#45;&gt;dir_0ee8d01c818a6381a98a3d57ad9512e1</title>
<g id="a_edge4"><a xlink:href="dir_000010_000021.html" target="_top">
<path fill="none" stroke="#63b8ff" d="M95.85,-111.67C98.94,-111.1 102.03,-110.54 105,-110 197.76,-93.25 221.92,-94.12 314,-74 314.6,-73.87 315.2,-73.74 315.81,-73.6"/>
<polygon fill="#63b8ff" stroke="#63b8ff" points="316.87,-76.94 325.75,-71.17 315.21,-70.14 316.87,-76.94"/>
</a>
</g>
<g id="a_edge4&#45;headlabel"><a xlink:href="dir_000010_000021.html" target="_top" xlink:title="2">
<text text-anchor="middle" x="314.05" y="-78.05" font-family="Helvetica,sans-Serif" font-size="10.00" fill="#63b8ff">2</text>
</a>
</g>
</g>
<!-- dir_1749b645fa05fc0c477f9e54117aefed -->
<g id="node8" class="node">
<title>dir_1749b645fa05fc0c477f9e54117aefed</title>
<g id="a_node8"><a xlink:href="dir_1749b645fa05fc0c477f9e54117aefed.html" target="_top" xlink:title="_base">
<polygon fill="#daedff" stroke="red" stroke-dasharray="5,2" points="317.5,-19 272.5,-19 272.5,0 317.5,0 317.5,-19"/>
<text text-anchor="middle" x="295" y="-7" font-family="Helvetica,sans-Serif" font-size="10.00">_base</text>
</a>
</g>
</g>
<!-- dir_4763cd3430a3c57aac9a2dc63f6c1e05&#45;&gt;dir_1749b645fa05fc0c477f9e54117aefed -->
<g id="edge7" class="edge">
<title>dir_4763cd3430a3c57aac9a2dc63f6c1e05&#45;&gt;dir_1749b645fa05fc0c477f9e54117aefed</title>
<g id="a_edge7"><a xlink:href="dir_000015_000000.html" target="_top">
<path fill="none" stroke="#63b8ff" d="M164.06,-54.98C190.72,-45.93 233,-31.56 262.27,-21.62"/>
<polygon fill="#63b8ff" stroke="#63b8ff" points="263.69,-24.83 272.03,-18.3 261.44,-18.21 263.69,-24.83"/>
</a>
</g>
<g id="a_edge7&#45;headlabel"><a xlink:href="dir_000015_000000.html" target="_top" xlink:title="1">
<text text-anchor="middle" x="261.2" y="-26.18" font-family="Helvetica,sans-Serif" font-size="10.00" fill="#63b8ff">1</text>
</a>
</g>
</g>
<!-- dir_5edd08ab7cc7acef5796950a6f1e7c8e -->
<g id="node5" class="node">
<title>dir_5edd08ab7cc7acef5796950a6f1e7c8e</title>
<g id="a_node5"><a xlink:href="dir_5edd08ab7cc7acef5796950a6f1e7c8e.html" target="_top" xlink:title="Transfer">
<polygon fill="#4ea9ff" stroke="#404040" points="238,-129 182,-129 182,-110 238,-110 238,-129"/>
<text text-anchor="middle" x="210" y="-117" font-family="Helvetica,sans-Serif" font-size="10.00">Transfer</text>
</a>
</g>
</g>
<!-- dir_5edd08ab7cc7acef5796950a6f1e7c8e&#45;&gt;dir_fe25ebdea0b69c48cf495d114ea06d68 -->
<g id="edge9" class="edge">
<title>dir_5edd08ab7cc7acef5796950a6f1e7c8e&#45;&gt;dir_fe25ebdea0b69c48cf495d114ea06d68</title>
<g id="a_edge9"><a xlink:href="dir_000023_000012.html" target="_top">
<path fill="none" stroke="#63b8ff" d="M238.08,-111.13C269.09,-102.94 320.74,-89.17 374.11,-74.21"/>
<polygon fill="#63b8ff" stroke="#63b8ff" points="375.06,-77.58 383.73,-71.5 373.16,-70.84 375.06,-77.58"/>
</a>
</g>
<g id="a_edge9&#45;headlabel"><a xlink:href="dir_000023_000012.html" target="_top" xlink:title="2">
<text text-anchor="middle" x="372.36" y="-78.78" font-family="Helvetica,sans-Serif" font-size="10.00" fill="#63b8ff">2</text>
</a>
</g>
</g>
<!-- dir_5edd08ab7cc7acef5796950a6f1e7c8e&#45;&gt;dir_1749b645fa05fc0c477f9e54117aefed -->
<g id="edge8" class="edge">
<title>dir_5edd08ab7cc7acef5796950a6f1e7c8e&#45;&gt;dir_1749b645fa05fc0c477f9e54117aefed</title>
<g id="a_edge8"><a xlink:href="dir_000023_000000.html" target="_top">
<path fill="none" stroke="#63b8ff" d="M238.2,-112.1C241.5,-111.38 244.82,-110.66 248,-110 329.99,-92.86 379.73,-138.64 433,-74 442.89,-62 442.82,-51.06 433,-39 419.99,-23.03 364.4,-15.74 327.86,-12.62"/>
<polygon fill="#63b8ff" stroke="#63b8ff" points="327.9,-9.11 317.66,-11.81 327.35,-16.09 327.9,-9.11"/>
</a>
</g>
<g id="a_edge8&#45;headlabel"><a xlink:href="dir_000023_000000.html" target="_top" xlink:title="1">
<text text-anchor="middle" x="331.71" y="-4.06" font-family="Helvetica,sans-Serif" font-size="10.00" fill="#63b8ff">1</text>
</a>
</g>
</g>
</g>
</svg>
