<?xml version="1.0" encoding="UTF-8" standalone="no"?>
<!DOCTYPE svg PUBLIC "-//W3C//DTD SVG 1.1//EN"
 "http://www.w3.org/Graphics/SVG/1.1/DTD/svg11.dtd">
<!-- Generated by graphviz version 2.43.0 (0)
 -->
<!-- Title: include/Hermes/Socket/Sync/_base Pages: 1 -->
<svg width="333pt" height="180pt"
 viewBox="0.00 0.00 333.00 180.00" xmlns="http://www.w3.org/2000/svg" xmlns:xlink="http://www.w3.org/1999/xlink">
<g id="graph0" class="graph" transform="scale(1 1) rotate(0) translate(4 176)">
<title>include/Hermes/Socket/Sync/_base</title>
<g id="clust1" class="cluster">
<title>clusterdir_0ee8d01c818a6381a98a3d57ad9512e1</title>
<g id="a_clust1"><a xlink:href="dir_0ee8d01c818a6381a98a3d57ad9512e1.html" target="_top" xlink:title="Sync">
<polygon fill="#daedff" stroke="#7f7f7f" stroke-dasharray="5,2" points="8,-39 8,-164 317,-164 317,-39 8,-39"/>
<text text-anchor="middle" x="162.5" y="-152" font-family="Helvetica,sans-Serif" font-size="10.00">Sync</text>
</a>
</g>
</g>
<g id="clust2" class="cluster">
<title>clusterdir_6c65d6b76d253c9224cf49be08fab4e8</title>
<g id="a_clust2"><a xlink:href="dir_6c65d6b76d253c9224cf49be08fab4e8.html" target="_top">
<polygon fill="#daedff" stroke="#404040" stroke-width="2" points="16,-47 16,-137 309,-137 309,-47 16,-47"/>
</a>
</g>
</g>
<!-- dir_6c65d6b76d253c9224cf49be08fab4e8 -->
<g id="node1" class="node">
<title>dir_6c65d6b76d253c9224cf49be08fab4e8</title>
<text text-anchor="middle" x="278" y="-117" font-family="Helvetica,sans-Serif" font-size="10.00">_base</text>
</g>
<!-- dir_34ccd12e905e1d8fbe8158f13744f06f -->
<g id="node2" class="node">
<title>dir_34ccd12e905e1d8fbe8158f13744f06f</title>
<g id="a_node2"><a xlink:href="dir_34ccd12e905e1d8fbe8158f13744f06f.html" target="_top" xlink:title="Accept">
<polygon fill="#4ea9ff" stroke="#404040" points="148,-129 98,-129 98,-110 148,-110 148,-129"/>
<text text-anchor="middle" x="123" y="-117" font-family="Helvetica,sans-Serif" font-size="10.00">Accept</text>
</a>
</g>
</g>
<!-- dir_eb07dff0ff93c78f46369d97d3c707fa -->
<g id="node4" class="node">
<title>dir_eb07dff0ff93c78f46369d97d3c707fa</title>
<g id="a_node4"><a xlink:href="dir_eb07dff0ff93c78f46369d97d3c707fa.html" target="_top" xlink:title="Data">
<polygon fill="#4ea9ff" stroke="#404040" points="215,-74 175,-74 175,-55 215,-55 215,-74"/>
<text text-anchor="middle" x="195" y="-62" font-family="Helvetica,sans-Serif" font-size="10.00">Data</text>
</a>
</g>
</g>
<!-- dir_34ccd12e905e1d8fbe8158f13744f06f&#45;&gt;dir_eb07dff0ff93c78f46369d97d3c707fa -->
<g id="edge2" class="edge">
<title>dir_34ccd12e905e1d8fbe8158f13744f06f&#45;&gt;dir_eb07dff0ff93c78f46369d97d3c707fa</title>
<g id="a_edge2"><a xlink:href="dir_000003_000005.html" target="_top">
<path fill="none" stroke="#63b8ff" d="M134.57,-109.98C145.42,-102 161.88,-89.88 174.88,-80.31"/>
<polygon fill="#63b8ff" stroke="#63b8ff" points="177.24,-82.92 183.22,-74.17 173.09,-77.28 177.24,-82.92"/>
</a>
</g>
<g id="a_edge2&#45;headlabel"><a xlink:href="dir_000003_000005.html" target="_top" xlink:title="2">
<text text-anchor="middle" x="176.03" y="-84.83" font-family="Helvetica,sans-Serif" font-size="10.00" fill="#63b8ff">2</text>
</a>
</g>
</g>
<!-- dir_1749b645fa05fc0c477f9e54117aefed -->
<g id="node6" class="node">
<title>dir_1749b645fa05fc0c477f9e54117aefed</title>
<g id="a_node6"><a xlink:href="dir_1749b645fa05fc0c477f9e54117aefed.html" target="_top" xlink:title="_base">
<polygon fill="#daedff" stroke="red" stroke-dasharray="5,2" points="139.5,-19 94.5,-19 94.5,0 139.5,0 139.5,-19"/>
<text text-anchor="middle" x="117" y="-7" font-family="Helvetica,sans-Serif" font-size="10.00">_base</text>
</a>
</g>
</g>
<!-- dir_34ccd12e905e1d8fbe8158f13744f06f&#45;&gt;dir_1749b645fa05fc0c477f9e54117aefed -->
<g id="edge1" class="edge">
<title>dir_34ccd12e905e1d8fbe8158f13744f06f&#45;&gt;dir_1749b645fa05fc0c477f9e54117aefed</title>
<g id="a_edge1"><a xlink:href="dir_000003_000000.html" target="_top">
<path fill="none" stroke="#63b8ff" d="M122.51,-109.66C121.54,-92.17 119.35,-52.8 118.04,-29.27"/>
<polygon fill="#63b8ff" stroke="#63b8ff" points="121.53,-28.95 117.48,-19.16 114.54,-29.34 121.53,-28.95"/>
</a>
</g>
<g id="a_edge1&#45;headlabel"><a xlink:href="dir_000003_000000.html" target="_top" xlink:title="2">
<text text-anchor="middle" x="124.56" y="-29.88" font-family="Helvetica,sans-Serif" font-size="10.00" fill="#63b8ff">2</text>
</a>
</g>
</g>
<!-- dir_f394f55731a2b928908fdd0c70b34b47 -->
<g id="node3" class="node">
<title>dir_f394f55731a2b928908fdd0c70b34b47</title>
<g id="a_node3"><a xlink:href="dir_f394f55731a2b928908fdd0c70b34b47.html" target="_top" xlink:title="Connection">
<polygon fill="#4ea9ff" stroke="#404040" points="237.5,-129 166.5,-129 166.5,-110 237.5,-110 237.5,-129"/>
<text text-anchor="middle" x="202" y="-117" font-family="Helvetica,sans-Serif" font-size="10.00">Connection</text>
</a>
</g>
</g>
<!-- dir_f394f55731a2b928908fdd0c70b34b47&#45;&gt;dir_eb07dff0ff93c78f46369d97d3c707fa -->
<g id="edge4" class="edge">
<title>dir_f394f55731a2b928908fdd0c70b34b47&#45;&gt;dir_eb07dff0ff93c78f46369d97d3c707fa</title>
<g id="a_edge4"><a xlink:href="dir_000004_000005.html" target="_top">
<path fill="none" stroke="#63b8ff" d="M200.84,-109.75C199.93,-102.8 198.61,-92.85 197.46,-84.13"/>
<polygon fill="#63b8ff" stroke="#63b8ff" points="200.91,-83.54 196.13,-74.09 193.97,-84.46 200.91,-83.54"/>
</a>
</g>
<g id="a_edge4&#45;headlabel"><a xlink:href="dir_000004_000005.html" target="_top" xlink:title="2">
<text text-anchor="middle" x="204.2" y="-84.24" font-family="Helvetica,sans-Serif" font-size="10.00" fill="#63b8ff">2</text>
</a>
</g>
</g>
<!-- dir_f394f55731a2b928908fdd0c70b34b47&#45;&gt;dir_1749b645fa05fc0c477f9e54117aefed -->
<g id="edge3" class="edge">
<title>dir_f394f55731a2b928908fdd0c70b34b47&#45;&gt;dir_1749b645fa05fc0c477f9e54117aefed</title>
<g id="a_edge3"><a xlink:href="dir_000004_000000.html" target="_top">
<path fill="none" stroke="#63b8ff" d="M194.77,-109.68C187.46,-100.74 175.86,-86.48 166,-74 153.51,-58.2 139.5,-39.98 129.66,-27.13"/>
<polygon fill="#63b8ff" stroke="#63b8ff" points="132.44,-25 123.59,-19.18 126.88,-29.25 132.44,-25"/>
</a>
</g>
<g id="a_edge3&#45;headlabel"><a xlink:href="dir_000004_000000.html" target="_top" xlink:title="2">
<text text-anchor="middle" x="136.88" y="-23.64" font-family="Helvetica,sans-Serif" font-size="10.00" fill="#63b8ff">2</text>
</a>
</g>
</g>
<!-- dir_eb07dff0ff93c78f46369d97d3c707fa&#45;&gt;dir_1749b645fa05fc0c477f9e54117aefed -->
<g id="edge5" class="edge">
<title>dir_eb07dff0ff93c78f46369d97d3c707fa&#45;&gt;dir_1749b645fa05fc0c477f9e54117aefed</title>
<g id="a_edge5"><a xlink:href="dir_000005_000000.html" target="_top">
<path fill="none" stroke="#63b8ff" d="M183.46,-54.96C176.92,-50.19 168.57,-44.17 161,-39 153.92,-34.16 146.09,-29.02 139.03,-24.46"/>
<polygon fill="#63b8ff" stroke="#63b8ff" points="140.9,-21.51 130.59,-19.06 137.13,-27.4 140.9,-21.51"/>
</a>
</g>
<g id="a_edge5&#45;headlabel"><a xlink:href="dir_000005_000000.html" target="_top" xlink:title="2">
<text text-anchor="middle" x="145.46" y="-18.56" font-family="Helvetica,sans-Serif" font-size="10.00" fill="#63b8ff">2</text>
</a>
</g>
</g>
<!-- dir_a49b2ae4e107057a382f7728faa95ee7 -->
<g id="node7" class="node">
<title>dir_a49b2ae4e107057a382f7728faa95ee7</title>
<g id="a_node7"><a xlink:href="dir_a49b2ae4e107057a382f7728faa95ee7.html" target="_top" xlink:title="Endpoint">
<polygon fill="#daedff" stroke="red" stroke-dasharray="5,2" points="224.5,-19 165.5,-19 165.5,0 224.5,0 224.5,-19"/>
<text text-anchor="middle" x="195" y="-7" font-family="Helvetica,sans-Serif" font-size="10.00">Endpoint</text>
</a>
</g>
</g>
<!-- dir_eb07dff0ff93c78f46369d97d3c707fa&#45;&gt;dir_a49b2ae4e107057a382f7728faa95ee7 -->
<g id="edge6" class="edge">
<title>dir_eb07dff0ff93c78f46369d97d3c707fa&#45;&gt;dir_a49b2ae4e107057a382f7728faa95ee7</title>
<g id="a_edge6"><a xlink:href="dir_000005_000006.html" target="_top">
<path fill="none" stroke="#63b8ff" d="M195,-54.75C195,-47.8 195,-37.85 195,-29.13"/>
<polygon fill="#63b8ff" stroke="#63b8ff" points="198.5,-29.09 195,-19.09 191.5,-29.09 198.5,-29.09"/>
</a>
</g>
<g id="a_edge6&#45;headlabel"><a xlink:href="dir_000005_000006.html" target="_top" xlink:title="2">
<text text-anchor="middle" x="201.34" y="-30.18" font-family="Helvetica,sans-Serif" font-size="10.00" fill="#63b8ff">2</text>
</a>
</g>
</g>
<!-- dir_f08b9429a747e7265fc669d93e024fc1 -->
<g id="node5" class="node">
<title>dir_f08b9429a747e7265fc669d93e024fc1</title>
<g id="a_node5"><a xlink:href="dir_f08b9429a747e7265fc669d93e024fc1.html" target="_top" xlink:title="Transfer">
<polygon fill="#4ea9ff" stroke="#404040" points="80,-129 24,-129 24,-110 80,-110 80,-129"/>
<text text-anchor="middle" x="52" y="-117" font-family="Helvetica,sans-Serif" font-size="10.00">Transfer</text>
</a>
</g>
</g>
<!-- dir_f08b9429a747e7265fc669d93e024fc1&#45;&gt;dir_eb07dff0ff93c78f46369d97d3c707fa -->
<g id="edge8" class="edge">
<title>dir_f08b9429a747e7265fc669d93e024fc1&#45;&gt;dir_eb07dff0ff93c78f46369d97d3c707fa</title>
<g id="a_edge8"><a xlink:href="dir_000014_000005.html" target="_top">
<path fill="none" stroke="#63b8ff" d="M74.98,-109.98C99.48,-100.9 138.38,-86.49 165.21,-76.54"/>
<polygon fill="#63b8ff" stroke="#63b8ff" points="166.69,-79.72 174.86,-72.97 164.26,-73.16 166.69,-79.72"/>
</a>
</g>
<g id="a_edge8&#45;headlabel"><a xlink:href="dir_000014_000005.html" target="_top" xlink:title="2">
<text text-anchor="middle" x="164.31" y="-81.13" font-family="Helvetica,sans-Serif" font-size="10.00" fill="#63b8ff">2</text>
</a>
</g>
</g>
<!-- dir_f08b9429a747e7265fc669d93e024fc1&#45;&gt;dir_1749b645fa05fc0c477f9e54117aefed -->
<g id="edge7" class="edge">
<title>dir_f08b9429a747e7265fc669d93e024fc1&#45;&gt;dir_1749b645fa05fc0c477f9e54117aefed</title>
<g id="a_edge7"><a xlink:href="dir_000014_000000.html" target="_top">
<path fill="none" stroke="#63b8ff" d="M57.32,-109.66C68.04,-91.85 92.4,-51.37 106.46,-28.01"/>
<polygon fill="#63b8ff" stroke="#63b8ff" points="109.63,-29.53 111.79,-19.16 103.63,-25.92 109.63,-29.53"/>
</a>
</g>
<g id="a_edge7&#45;headlabel"><a xlink:href="dir_000014_000000.html" target="_top" xlink:title="2">
<text text-anchor="middle" x="110.21" y="-31.58" font-family="Helvetica,sans-Serif" font-size="10.00" fill="#63b8ff">2</text>
</a>
</g>
</g>
</g>
</svg>
