<?xml version="1.0" encoding="UTF-8" standalone="no"?>
<!DOCTYPE svg PUBLIC "-//W3C//DTD SVG 1.1//EN"
 "http://www.w3.org/Graphics/SVG/1.1/DTD/svg11.dtd">
<!-- Generated by graphviz version 2.43.0 (0)
 -->
<!-- Title: include/Hermes/Socket/_base Pages: 1 -->
<svg width="334pt" height="180pt"
 viewBox="0.00 0.00 334.00 180.00" xmlns="http://www.w3.org/2000/svg" xmlns:xlink="http://www.w3.org/1999/xlink">
<g id="graph0" class="graph" transform="scale(1 1) rotate(0) translate(4 176)">
<title>include/Hermes/Socket/_base</title>
<g id="clust1" class="cluster">
<title>clusterdir_0b5ff7c741697c8eb7741053aebed106</title>
<g id="a_clust1"><a xlink:href="dir_0b5ff7c741697c8eb7741053aebed106.html" target="_top" xlink:title="Socket">
<polygon fill="#daedff" stroke="#7f7f7f" stroke-dasharray="5,2" points="8,-39 8,-164 318,-164 318,-39 8,-39"/>
<text text-anchor="middle" x="163" y="-152" font-family="Helvetica,sans-Serif" font-size="10.00">Socket</text>
</a>
</g>
</g>
<g id="clust2" class="cluster">
<title>clusterdir_c121d3193a09b0381037e0156068a995</title>
<g id="a_clust2"><a xlink:href="dir_c121d3193a09b0381037e0156068a995.html" target="_top">
<polygon fill="#daedff" stroke="#404040" stroke-width="2" points="16,-47 16,-137 310,-137 310,-47 16,-47"/>
</a>
</g>
</g>
<!-- dir_c121d3193a09b0381037e0156068a995 -->
<g id="node1" class="node">
<title>dir_c121d3193a09b0381037e0156068a995</title>
<text text-anchor="middle" x="279" y="-117" font-family="Helvetica,sans-Serif" font-size="10.00">_base</text>
</g>
<!-- dir_1749b645fa05fc0c477f9e54117aefed -->
<g id="node6" class="node">
<title>dir_1749b645fa05fc0c477f9e54117aefed</title>
<g id="a_node6"><a xlink:href="dir_1749b645fa05fc0c477f9e54117aefed.html" target="_top" xlink:title="_base">
<polygon fill="#daedff" stroke="red" stroke-dasharray="5,2" points="164.5,-19 119.5,-19 119.5,0 164.5,0 164.5,-19"/>
<text text-anchor="middle" x="142" y="-7" font-family="Helvetica,sans-Serif" font-size="10.00">_base</text>
</a>
</g>
</g>
<!-- dir_c121d3193a09b0381037e0156068a995&#45;&gt;dir_1749b645fa05fc0c477f9e54117aefed -->
<g id="edge1" class="edge">
<title>dir_c121d3193a09b0381037e0156068a995&#45;&gt;dir_1749b645fa05fc0c477f9e54117aefed</title>
<g id="a_edge1"><a xlink:href="dir_000002_000000.html" target="_top">
<path fill="none" stroke="#63b8ff" d="M259.47,-109.89C242.55,-101.93 217.88,-89.07 199,-74 194.17,-70.15 171.46,-44.38 156.2,-26.88"/>
<polygon fill="#63b8ff" stroke="#63b8ff" points="158.63,-24.33 149.42,-19.08 153.34,-28.92 158.63,-24.33"/>
</a>
</g>
<g id="a_edge1&#45;headlabel"><a xlink:href="dir_000002_000000.html" target="_top" xlink:title="9">
<text text-anchor="middle" x="163.13" y="-22.68" font-family="Helvetica,sans-Serif" font-size="10.00" fill="#63b8ff">9</text>
</a>
</g>
</g>
<!-- dir_a49b2ae4e107057a382f7728faa95ee7 -->
<g id="node7" class="node">
<title>dir_a49b2ae4e107057a382f7728faa95ee7</title>
<g id="a_node7"><a xlink:href="dir_a49b2ae4e107057a382f7728faa95ee7.html" target="_top" xlink:title="Endpoint">
<polygon fill="#daedff" stroke="red" stroke-dasharray="5,2" points="281.5,-19 222.5,-19 222.5,0 281.5,0 281.5,-19"/>
<text text-anchor="middle" x="252" y="-7" font-family="Helvetica,sans-Serif" font-size="10.00">Endpoint</text>
</a>
</g>
</g>
<!-- dir_c121d3193a09b0381037e0156068a995&#45;&gt;dir_a49b2ae4e107057a382f7728faa95ee7 -->
<g id="edge2" class="edge">
<title>dir_c121d3193a09b0381037e0156068a995&#45;&gt;dir_a49b2ae4e107057a382f7728faa95ee7</title>
<g id="a_edge2"><a xlink:href="dir_000002_000006.html" target="_top">
<path fill="none" stroke="#63b8ff" d="M276.79,-109.66C272.4,-92.09 262.49,-52.45 256.61,-28.95"/>
<polygon fill="#63b8ff" stroke="#63b8ff" points="259.99,-28.01 254.16,-19.16 253.19,-29.71 259.99,-28.01"/>
</a>
</g>
<g id="a_edge2&#45;headlabel"><a xlink:href="dir_000002_000006.html" target="_top" xlink:title="3">
<text text-anchor="middle" x="263.61" y="-28.31" font-family="Helvetica,sans-Serif" font-size="10.00" fill="#63b8ff">3</text>
</a>
</g>
</g>
<!-- dir_dec97c6bd1351cf0030844a84c8306b1 -->
<g id="node2" class="node">
<title>dir_dec97c6bd1351cf0030844a84c8306b1</title>
<g id="a_node2"><a xlink:href="dir_dec97c6bd1351cf0030844a84c8306b1.html" target="_top" xlink:title="Accept">
<polygon fill="#4ea9ff" stroke="#404040" points="238,-129 188,-129 188,-110 238,-110 238,-129"/>
<text text-anchor="middle" x="213" y="-117" font-family="Helvetica,sans-Serif" font-size="10.00">Accept</text>
</a>
</g>
</g>
<!-- dir_728b5a409313ee5a81d8264901410722 -->
<g id="node4" class="node">
<title>dir_728b5a409313ee5a81d8264901410722</title>
<g id="a_node4"><a xlink:href="dir_728b5a409313ee5a81d8264901410722.html" target="_top" xlink:title="Data">
<polygon fill="#4ea9ff" stroke="#404040" points="248,-74 208,-74 208,-55 248,-55 248,-74"/>
<text text-anchor="middle" x="228" y="-62" font-family="Helvetica,sans-Serif" font-size="10.00">Data</text>
</a>
</g>
</g>
<!-- dir_dec97c6bd1351cf0030844a84c8306b1&#45;&gt;dir_728b5a409313ee5a81d8264901410722 -->
<g id="edge4" class="edge">
<title>dir_dec97c6bd1351cf0030844a84c8306b1&#45;&gt;dir_728b5a409313ee5a81d8264901410722</title>
<g id="a_edge4"><a xlink:href="dir_000003_000005.html" target="_top">
<path fill="none" stroke="#63b8ff" d="M215.48,-109.75C217.46,-102.72 220.32,-92.62 222.81,-83.84"/>
<polygon fill="#63b8ff" stroke="#63b8ff" points="226.21,-84.66 225.57,-74.09 219.48,-82.76 226.21,-84.66"/>
</a>
</g>
<g id="a_edge4&#45;headlabel"><a xlink:href="dir_000003_000005.html" target="_top" xlink:title="2">
<text text-anchor="middle" x="227.97" y="-86.4" font-family="Helvetica,sans-Serif" font-size="10.00" fill="#63b8ff">2</text>
</a>
</g>
</g>
<!-- dir_dec97c6bd1351cf0030844a84c8306b1&#45;&gt;dir_1749b645fa05fc0c477f9e54117aefed -->
<g id="edge3" class="edge">
<title>dir_dec97c6bd1351cf0030844a84c8306b1&#45;&gt;dir_1749b645fa05fc0c477f9e54117aefed</title>
<g id="a_edge3"><a xlink:href="dir_000003_000000.html" target="_top">
<path fill="none" stroke="#63b8ff" d="M201.13,-109.8C190.65,-101.58 175.59,-88.41 166,-74 156.82,-60.2 150.48,-42.4 146.64,-29.16"/>
<polygon fill="#63b8ff" stroke="#63b8ff" points="149.96,-28.04 143.98,-19.3 143.2,-29.86 149.96,-28.04"/>
</a>
</g>
<g id="a_edge3&#45;headlabel"><a xlink:href="dir_000003_000000.html" target="_top" xlink:title="2">
<text text-anchor="middle" x="153.64" y="-28.28" font-family="Helvetica,sans-Serif" font-size="10.00" fill="#63b8ff">2</text>
</a>
</g>
</g>
<!-- dir_88c4dcd6bb5d9e6324cd74cc0276504f -->
<g id="node3" class="node">
<title>dir_88c4dcd6bb5d9e6324cd74cc0276504f</title>
<g id="a_node3"><a xlink:href="dir_88c4dcd6bb5d9e6324cd74cc0276504f.html" target="_top" xlink:title="Connection">
<polygon fill="#4ea9ff" stroke="#404040" points="95.5,-129 24.5,-129 24.5,-110 95.5,-110 95.5,-129"/>
<text text-anchor="middle" x="60" y="-117" font-family="Helvetica,sans-Serif" font-size="10.00">Connection</text>
</a>
</g>
</g>
<!-- dir_88c4dcd6bb5d9e6324cd74cc0276504f&#45;&gt;dir_728b5a409313ee5a81d8264901410722 -->
<g id="edge6" class="edge">
<title>dir_88c4dcd6bb5d9e6324cd74cc0276504f&#45;&gt;dir_728b5a409313ee5a81d8264901410722</title>
<g id="a_edge6"><a xlink:href="dir_000004_000005.html" target="_top">
<path fill="none" stroke="#63b8ff" d="M86.99,-109.98C117.46,-100.37 166.86,-84.79 198.37,-74.85"/>
<polygon fill="#63b8ff" stroke="#63b8ff" points="199.44,-78.18 207.93,-71.83 197.34,-71.5 199.44,-78.18"/>
</a>
</g>
<g id="a_edge6&#45;headlabel"><a xlink:href="dir_000004_000005.html" target="_top" xlink:title="2">
<text text-anchor="middle" x="196.87" y="-79.47" font-family="Helvetica,sans-Serif" font-size="10.00" fill="#63b8ff">2</text>
</a>
</g>
</g>
<!-- dir_88c4dcd6bb5d9e6324cd74cc0276504f&#45;&gt;dir_1749b645fa05fc0c477f9e54117aefed -->
<g id="edge5" class="edge">
<title>dir_88c4dcd6bb5d9e6324cd74cc0276504f&#45;&gt;dir_1749b645fa05fc0c477f9e54117aefed</title>
<g id="a_edge5"><a xlink:href="dir_000004_000000.html" target="_top">
<path fill="none" stroke="#63b8ff" d="M66.71,-109.66C80.35,-91.69 111.52,-50.64 129.18,-27.38"/>
<polygon fill="#63b8ff" stroke="#63b8ff" points="132.17,-29.24 135.43,-19.16 126.59,-25.01 132.17,-29.24"/>
</a>
</g>
<g id="a_edge5&#45;headlabel"><a xlink:href="dir_000004_000000.html" target="_top" xlink:title="2">
<text text-anchor="middle" x="132.25" y="-31.32" font-family="Helvetica,sans-Serif" font-size="10.00" fill="#63b8ff">2</text>
</a>
</g>
</g>
<!-- dir_728b5a409313ee5a81d8264901410722&#45;&gt;dir_1749b645fa05fc0c477f9e54117aefed -->
<g id="edge7" class="edge">
<title>dir_728b5a409313ee5a81d8264901410722&#45;&gt;dir_1749b645fa05fc0c477f9e54117aefed</title>
<g id="a_edge7"><a xlink:href="dir_000005_000000.html" target="_top">
<path fill="none" stroke="#63b8ff" d="M216.91,-54.98C210.38,-50.09 201.88,-43.97 194,-39 185.78,-33.81 176.54,-28.57 168.16,-24.02"/>
<polygon fill="#63b8ff" stroke="#63b8ff" points="169.64,-20.84 159.17,-19.23 166.34,-27.02 169.64,-20.84"/>
</a>
</g>
<g id="a_edge7&#45;headlabel"><a xlink:href="dir_000005_000000.html" target="_top" xlink:title="2">
<text text-anchor="middle" x="174.14" y="-17.53" font-family="Helvetica,sans-Serif" font-size="10.00" fill="#63b8ff">2</text>
</a>
</g>
</g>
<!-- dir_728b5a409313ee5a81d8264901410722&#45;&gt;dir_a49b2ae4e107057a382f7728faa95ee7 -->
<g id="edge8" class="edge">
<title>dir_728b5a409313ee5a81d8264901410722&#45;&gt;dir_a49b2ae4e107057a382f7728faa95ee7</title>
<g id="a_edge8"><a xlink:href="dir_000005_000006.html" target="_top">
<path fill="none" stroke="#63b8ff" d="M231.96,-54.75C235.21,-47.57 239.92,-37.18 243.95,-28.27"/>
<polygon fill="#63b8ff" stroke="#63b8ff" points="247.17,-29.64 248.11,-19.09 240.8,-26.75 247.17,-29.64"/>
</a>
</g>
<g id="a_edge8&#45;headlabel"><a xlink:href="dir_000005_000006.html" target="_top" xlink:title="2">
<text text-anchor="middle" x="248.28" y="-31.59" font-family="Helvetica,sans-Serif" font-size="10.00" fill="#63b8ff">2</text>
</a>
</g>
</g>
<!-- dir_1f26bd99bb0cf5a70565fa117abc1809 -->
<g id="node5" class="node">
<title>dir_1f26bd99bb0cf5a70565fa117abc1809</title>
<g id="a_node5"><a xlink:href="dir_1f26bd99bb0cf5a70565fa117abc1809.html" target="_top" xlink:title="Transfer">
<polygon fill="#4ea9ff" stroke="#404040" points="170,-129 114,-129 114,-110 170,-110 170,-129"/>
<text text-anchor="middle" x="142" y="-117" font-family="Helvetica,sans-Serif" font-size="10.00">Transfer</text>
</a>
</g>
</g>
<!-- dir_1f26bd99bb0cf5a70565fa117abc1809&#45;&gt;dir_728b5a409313ee5a81d8264901410722 -->
<g id="edge10" class="edge">
<title>dir_1f26bd99bb0cf5a70565fa117abc1809&#45;&gt;dir_728b5a409313ee5a81d8264901410722</title>
<g id="a_edge10"><a xlink:href="dir_000013_000005.html" target="_top">
<path fill="none" stroke="#63b8ff" d="M155.82,-109.98C169.15,-101.77 189.58,-89.18 205.31,-79.49"/>
<polygon fill="#63b8ff" stroke="#63b8ff" points="207.25,-82.4 213.93,-74.17 203.58,-76.44 207.25,-82.4"/>
</a>
</g>
<g id="a_edge10&#45;headlabel"><a xlink:href="dir_000013_000005.html" target="_top" xlink:title="2">
<text text-anchor="middle" x="205.68" y="-84.2" font-family="Helvetica,sans-Serif" font-size="10.00" fill="#63b8ff">2</text>
</a>
</g>
</g>
<!-- dir_1f26bd99bb0cf5a70565fa117abc1809&#45;&gt;dir_1749b645fa05fc0c477f9e54117aefed -->
<g id="edge9" class="edge">
<title>dir_1f26bd99bb0cf5a70565fa117abc1809&#45;&gt;dir_1749b645fa05fc0c477f9e54117aefed</title>
<g id="a_edge9"><a xlink:href="dir_000013_000000.html" target="_top">
<path fill="none" stroke="#63b8ff" d="M138.11,-109.61C132.16,-94.85 122.1,-64.39 128,-39 128.85,-35.35 130.24,-31.62 131.82,-28.12"/>
<polygon fill="#63b8ff" stroke="#63b8ff" points="135,-29.58 136.49,-19.09 128.78,-26.37 135,-29.58"/>
</a>
</g>
<g id="a_edge9&#45;headlabel"><a xlink:href="dir_000013_000000.html" target="_top" xlink:title="2">
<text text-anchor="middle" x="135.87" y="-31.58" font-family="Helvetica,sans-Serif" font-size="10.00" fill="#63b8ff">2</text>
</a>
</g>
</g>
</g>
</svg>
