<?xml version="1.0" encoding="UTF-8" standalone="no"?>
<!DOCTYPE svg PUBLIC "-//W3C//DTD SVG 1.1//EN"
 "http://www.w3.org/Graphics/SVG/1.1/DTD/svg11.dtd">
<!-- Generated by graphviz version 2.43.0 (0)
 -->
<!-- Title: Graphical Class Hierarchy Pages: 1 -->
<svg width="563pt" height="98pt"
 viewBox="0.00 0.00 563.00 97.50" xmlns="http://www.w3.org/2000/svg" xmlns:xlink="http://www.w3.org/1999/xlink">
<g id="graph0" class="graph" transform="scale(1 1) rotate(0) translate(4 93.5)">
<title>Graphical Class Hierarchy</title>
<!-- Node0 -->
<g id="Node000000" class="node">
<title>Node0</title>
<g id="a_Node000000"><a xlink:href="struct_hermes_1_1__details_1_1_connect_options_ipv6_base.html" target="_top" xlink:title=" ">
<polygon fill="white" stroke="#666666" points="159,-89.5 14,-89.5 14,-48.5 159,-48.5 159,-89.5"/>
<text text-anchor="start" x="22" y="-77.5" font-family="Helvetica,sans-Serif" font-size="10.00">Hermes::_details::Connect</text>
<text text-anchor="start" x="22" y="-66.5" font-family="Helvetica,sans-Serif" font-size="10.00">OptionsIpv6Base&lt; Data::</text>
<text text-anchor="middle" x="86.5" y="-55.5" font-family="Helvetica,sans-Serif" font-size="10.00">Family &gt;</text>
</a>
</g>
</g>
<!-- Node1 -->
<g id="Node000001" class="node">
<title>Node1</title>
<g id="a_Node000001"><a xlink:href="struct_hermes_1_1_default_connect_policy_1_1_options.html" target="_top" xlink:title=" ">
<polygon fill="white" stroke="#666666" points="375,-57 209,-57 209,-27 375,-27 375,-57"/>
<text text-anchor="start" x="217" y="-45" font-family="Helvetica,sans-Serif" font-size="10.00">Hermes::DefaultConnectPolicy</text>
<text text-anchor="middle" x="292" y="-34" font-family="Helvetica,sans-Serif" font-size="10.00">&lt; Data &gt;::Options</text>
</a>
</g>
</g>
<!-- Node0&#45;&gt;Node1 -->
<g id="edge3_Node000000_Node000001" class="edge">
<title>Node0&#45;&gt;Node1</title>
<g id="a_edge3_Node000000_Node000001"><a xlink:title=" ">
<path fill="none" stroke="#63b8ff" d="M169.51,-58.12C182.45,-56.4 195.84,-54.63 208.78,-52.91"/>
<polygon fill="#63b8ff" stroke="#63b8ff" points="168.7,-54.7 159.25,-59.48 169.62,-61.64 168.7,-54.7"/>
</a>
</g>
</g>
<!-- Node2 -->
<g id="Node000002" class="node">
<title>Node2</title>
<g id="a_Node000002"><a xlink:href="struct_hermes_1_1_tls_connect_policy_1_1_options.html" target="_top" xlink:title=" ">
<polygon fill="white" stroke="#666666" points="555,-57 411,-57 411,-27 555,-27 555,-57"/>
<text text-anchor="start" x="419" y="-45" font-family="Helvetica,sans-Serif" font-size="10.00">Hermes::TlsConnectPolicy</text>
<text text-anchor="middle" x="483" y="-34" font-family="Helvetica,sans-Serif" font-size="10.00">&lt; Data &gt;::Options</text>
</a>
</g>
</g>
<!-- Node1&#45;&gt;Node2 -->
<g id="edge4_Node000001_Node000002" class="edge">
<title>Node1&#45;&gt;Node2</title>
<g id="a_edge4_Node000001_Node000002"><a xlink:title=" ">
<path fill="none" stroke="#63b8ff" d="M385.21,-42C393.86,-42 402.55,-42 410.96,-42"/>
<polygon fill="#63b8ff" stroke="#63b8ff" points="385.07,-38.5 375.07,-42 385.07,-45.5 385.07,-38.5"/>
</a>
</g>
</g>
<!-- Node3 -->
<g id="Node000003" class="node">
<title>Node3</title>
<g id="a_Node000003"><a xlink:href="struct_hermes_1_1__details_1_1_options_tcp_no_delay_base.html" target="_top" xlink:title=" ">
<polygon fill="white" stroke="#666666" points="173,-30 0,-30 0,0 173,0 173,-30"/>
<text text-anchor="start" x="8" y="-18" font-family="Helvetica,sans-Serif" font-size="10.00">Hermes::_details::Options</text>
<text text-anchor="middle" x="86.5" y="-7" font-family="Helvetica,sans-Serif" font-size="10.00">TcpNoDelayBase&lt; Data::Type &gt;</text>
</a>
</g>
</g>
<!-- Node3&#45;&gt;Node1 -->
<g id="edge5_Node000003_Node000001" class="edge">
<title>Node3&#45;&gt;Node1</title>
<g id="a_edge5_Node000003_Node000001"><a xlink:title=" ">
<path fill="none" stroke="#63b8ff" d="M183.26,-27.71C191.85,-28.85 200.5,-29.99 208.96,-31.12"/>
<polygon fill="#63b8ff" stroke="#63b8ff" points="183.59,-24.22 173.21,-26.37 182.67,-31.16 183.59,-24.22"/>
</a>
</g>
</g>
</g>
</svg>
