<?xml version="1.0" encoding="UTF-8" standalone="no"?>
<!DOCTYPE svg PUBLIC "-//W3C//DTD SVG 1.1//EN"
 "http://www.w3.org/Graphics/SVG/1.1/DTD/svg11.dtd">
<!-- Generated by graphviz version 2.43.0 (0)
 -->
<!-- Title: Graphical Class Hierarchy Pages: 1 -->
<svg width="377pt" height="182pt"
 viewBox="0.00 0.00 377.00 182.00" xmlns="http://www.w3.org/2000/svg" xmlns:xlink="http://www.w3.org/1999/xlink">
<g id="graph0" class="graph" transform="scale(1 1) rotate(0) translate(4 178)">
<title>Graphical Class Hierarchy</title>
<!-- Node0 -->
<g id="Node000000" class="node">
<title>Node0</title>
<g id="a_Node000000"><a xlink:title=" ">
<polygon fill="#e0e0e0" stroke="#999999" points="149,-96.5 0,-96.5 0,-77.5 149,-77.5 149,-96.5"/>
<text text-anchor="middle" x="74.5" y="-84.5" font-family="Helvetica,sans-Serif" font-size="10.00">std::ranges::view_interface</text>
</a>
</g>
</g>
<!-- Node1 -->
<g id="Node000001" class="node">
<title>Node1</title>
<g id="a_Node000001"><a xlink:href="struct_hermes_1_1_default_transfer_policy_1_1_recv_stream.html" target="_top" xlink:title=" ">
<polygon fill="white" stroke="#666666" points="363.5,-174 190.5,-174 190.5,-144 363.5,-144 363.5,-174"/>
<text text-anchor="start" x="198.5" y="-162" font-family="Helvetica,sans-Serif" font-size="10.00">Hermes::DefaultTransferPolicy</text>
<text text-anchor="middle" x="277" y="-151" font-family="Helvetica,sans-Serif" font-size="10.00">&lt; Data &gt;::RecvStream&lt; Byte &gt;</text>
</a>
</g>
</g>
<!-- Node0&#45;&gt;Node1 -->
<g id="edge11_Node000000_Node000001" class="edge">
<title>Node0&#45;&gt;Node1</title>
<g id="a_edge11_Node000000_Node000001"><a xlink:title=" ">
<path fill="none" stroke="#63b8ff" d="M103.95,-100.93C125.77,-111.25 156.83,-125.18 185,-135 194.1,-138.17 203.84,-141.16 213.44,-143.88"/>
<polygon fill="#63b8ff" stroke="#63b8ff" points="105.44,-97.76 94.91,-96.61 102.43,-104.08 105.44,-97.76"/>
</a>
</g>
</g>
<!-- Node2 -->
<g id="Node000002" class="node">
<title>Node2</title>
<g id="a_Node000002"><a xlink:href="struct_hermes_1_1_tls_transfer_policy_1_1_recv_stream.html" target="_top" xlink:title=" ">
<polygon fill="white" stroke="#666666" points="363.5,-126 190.5,-126 190.5,-96 363.5,-96 363.5,-126"/>
<text text-anchor="start" x="198.5" y="-114" font-family="Helvetica,sans-Serif" font-size="10.00">Hermes::TlsTransferPolicy</text>
<text text-anchor="middle" x="277" y="-103" font-family="Helvetica,sans-Serif" font-size="10.00">&lt; Data &gt;::RecvStream&lt; Byte &gt;</text>
</a>
</g>
</g>
<!-- Node0&#45;&gt;Node2 -->
<g id="edge12_Node000000_Node000002" class="edge">
<title>Node0&#45;&gt;Node2</title>
<g id="a_edge12_Node000000_Node000002"><a xlink:title=" ">
<path fill="none" stroke="#63b8ff" d="M159.19,-97.02C169.46,-98.25 179.96,-99.5 190.26,-100.74"/>
<polygon fill="#63b8ff" stroke="#63b8ff" points="159.37,-93.51 149.02,-95.8 158.53,-100.46 159.37,-93.51"/>
</a>
</g>
</g>
<!-- Node3 -->
<g id="Node000003" class="node">
<title>Node3</title>
<g id="a_Node000003"><a xlink:href="struct_hermes_1_1_utils_1_1_drop_last_view.html" target="_top" xlink:title=" ">
<polygon fill="white" stroke="#666666" points="355.5,-78 198.5,-78 198.5,-48 355.5,-48 355.5,-78"/>
<text text-anchor="start" x="206.5" y="-66" font-family="Helvetica,sans-Serif" font-size="10.00">Hermes::Utils::DropLastView</text>
<text text-anchor="middle" x="277" y="-55" font-family="Helvetica,sans-Serif" font-size="10.00">&lt; Range &gt;</text>
</a>
</g>
</g>
<!-- Node0&#45;&gt;Node3 -->
<g id="edge13_Node000000_Node000003" class="edge">
<title>Node0&#45;&gt;Node3</title>
<g id="a_edge13_Node000000_Node000003"><a xlink:title=" ">
<path fill="none" stroke="#63b8ff" d="M159.32,-76.97C172.28,-75.41 185.63,-73.82 198.45,-72.28"/>
<polygon fill="#63b8ff" stroke="#63b8ff" points="158.53,-73.54 149.02,-78.2 159.37,-80.49 158.53,-73.54"/>
</a>
</g>
</g>
<!-- Node4 -->
<g id="Node000004" class="node">
<title>Node4</title>
<g id="a_Node000004"><a xlink:href="struct_hermes_1_1_utils_1_1_until_match_view.html" target="_top" xlink:title=" ">
<polygon fill="white" stroke="#666666" points="369,-30 185,-30 185,0 369,0 369,-30"/>
<text text-anchor="start" x="193" y="-18" font-family="Helvetica,sans-Serif" font-size="10.00">Hermes::Utils::UntilMatch</text>
<text text-anchor="middle" x="277" y="-7" font-family="Helvetica,sans-Serif" font-size="10.00">View&lt; Range, Pattern, Inclusive &gt;</text>
</a>
</g>
</g>
<!-- Node0&#45;&gt;Node4 -->
<g id="edge14_Node000000_Node000004" class="edge">
<title>Node0&#45;&gt;Node4</title>
<g id="a_edge14_Node000000_Node000004"><a xlink:title=" ">
<path fill="none" stroke="#63b8ff" d="M103.95,-73.07C125.77,-62.75 156.83,-48.82 185,-39 194.1,-35.83 203.84,-32.84 213.44,-30.12"/>
<polygon fill="#63b8ff" stroke="#63b8ff" points="102.43,-69.92 94.91,-77.39 105.44,-76.24 102.43,-69.92"/>
</a>
</g>
</g>
</g>
</svg>
