<?xml version="1.0" encoding="UTF-8" standalone="no"?>
<!DOCTYPE svg PUBLIC "-//W3C//DTD SVG 1.1//EN"
 "http://www.w3.org/Graphics/SVG/1.1/DTD/svg11.dtd">
<!-- Generated by graphviz version 2.43.0 (0)
 -->
<!-- Title: Graphical Class Hierarchy Pages: 1 -->
<svg width="377pt" height="146pt"
 viewBox="0.00 0.00 377.00 145.50" xmlns="http://www.w3.org/2000/svg" xmlns:xlink="http://www.w3.org/1999/xlink">
<g id="graph0" class="graph" transform="scale(1 1) rotate(0) translate(4 141.5)">
<title>Graphical Class Hierarchy</title>
<!-- Node0 -->
<g id="Node000000" class="node">
<title>Node0</title>
<g id="a_Node000000"><a xlink:title=" ">
<polygon fill="#e0e0e0" stroke="#999999" points="149,-72.5 0,-72.5 0,-53.5 149,-53.5 149,-72.5"/>
<text text-anchor="middle" x="74.5" y="-60.5" font-family="Helvetica,sans-Serif" font-size="10.00">std::ranges::view_interface</text>
</a>
</g>
</g>
<!-- Node1 -->
<g id="Node000001" class="node">
<title>Node1</title>
<g id="a_Node000001"><a xlink:href="struct_hermes_1_1_default_transfer_policy_1_1_recv_stream.html" target="_top" xlink:title=" ">
<polygon fill="white" stroke="#666666" points="359.5,-137.5 194.5,-137.5 194.5,-96.5 359.5,-96.5 359.5,-137.5"/>
<text text-anchor="start" x="202.5" y="-125.5" font-family="Helvetica,sans-Serif" font-size="10.00">Hermes::DefaultTransferPolicy</text>
<text text-anchor="start" x="202.5" y="-114.5" font-family="Helvetica,sans-Serif" font-size="10.00">&lt; SocketType &gt;::RecvStream</text>
<text text-anchor="middle" x="277" y="-103.5" font-family="Helvetica,sans-Serif" font-size="10.00">&lt; Byte &gt;</text>
</a>
</g>
</g>
<!-- Node0&#45;&gt;Node1 -->
<g id="edge5_Node000000_Node000001" class="edge">
<title>Node0&#45;&gt;Node1</title>
<g id="a_edge5_Node000000_Node000001"><a xlink:title=" ">
<path fill="none" stroke="#63b8ff" d="M120.83,-75.21C144.16,-81.49 173.21,-89.32 199.86,-96.49"/>
<polygon fill="#63b8ff" stroke="#63b8ff" points="121.45,-71.75 110.88,-72.53 119.63,-78.51 121.45,-71.75"/>
</a>
</g>
</g>
<!-- Node2 -->
<g id="Node000002" class="node">
<title>Node2</title>
<g id="a_Node000002"><a xlink:href="struct_hermes_1_1_utils_1_1_drop_last_view.html" target="_top" xlink:title="A lazy view that removes the last element of a range.">
<polygon fill="white" stroke="#666666" points="355.5,-78 198.5,-78 198.5,-48 355.5,-48 355.5,-78"/>
<text text-anchor="start" x="206.5" y="-66" font-family="Helvetica,sans-Serif" font-size="10.00">Hermes::Utils::DropLastView</text>
<text text-anchor="middle" x="277" y="-55" font-family="Helvetica,sans-Serif" font-size="10.00">&lt; Range &gt;</text>
</a>
</g>
</g>
<!-- Node0&#45;&gt;Node2 -->
<g id="edge6_Node000000_Node000002" class="edge">
<title>Node0&#45;&gt;Node2</title>
<g id="a_edge6_Node000000_Node000002"><a xlink:title=" ">
<path fill="none" stroke="#63b8ff" d="M159.32,-63C172.28,-63 185.63,-63 198.45,-63"/>
<polygon fill="#63b8ff" stroke="#63b8ff" points="159.02,-59.5 149.02,-63 159.02,-66.5 159.02,-59.5"/>
</a>
</g>
</g>
<!-- Node3 -->
<g id="Node000003" class="node">
<title>Node3</title>
<g id="a_Node000003"><a xlink:href="struct_hermes_1_1_utils_1_1_until_match_view.html" target="_top" xlink:title="A range whose end is determined by the first occurrence of a pattern.">
<polygon fill="white" stroke="#666666" points="369,-30 185,-30 185,0 369,0 369,-30"/>
<text text-anchor="start" x="193" y="-18" font-family="Helvetica,sans-Serif" font-size="10.00">Hermes::Utils::UntilMatch</text>
<text text-anchor="middle" x="277" y="-7" font-family="Helvetica,sans-Serif" font-size="10.00">View&lt; Range, Pattern, Inclusive &gt;</text>
</a>
</g>
</g>
<!-- Node0&#45;&gt;Node3 -->
<g id="edge7_Node000000_Node000003" class="edge">
<title>Node0&#45;&gt;Node3</title>
<g id="a_edge7_Node000000_Node000003"><a xlink:title=" ">
<path fill="none" stroke="#63b8ff" d="M125.43,-51.05C151.95,-44.7 184.82,-36.83 213.08,-30.06"/>
<polygon fill="#63b8ff" stroke="#63b8ff" points="124.5,-47.67 115.59,-53.4 126.13,-54.48 124.5,-47.67"/>
</a>
</g>
</g>
</g>
</svg>
