<?xml version="1.0" encoding="UTF-8" standalone="no"?>
<!DOCTYPE svg PUBLIC "-//W3C//DTD SVG 1.1//EN"
 "http://www.w3.org/Graphics/SVG/1.1/DTD/svg11.dtd">
<!-- Generated by graphviz version 2.43.0 (0)
 -->
<!-- Title: Graphical Class Hierarchy Pages: 1 -->
<svg width="384pt" height="194pt"
 viewBox="0.00 0.00 384.00 194.00" xmlns="http://www.w3.org/2000/svg" xmlns:xlink="http://www.w3.org/1999/xlink">
<g id="graph0" class="graph" transform="scale(1 1) rotate(0) translate(4 190)">
<title>Graphical Class Hierarchy</title>
<!-- Node0 -->
<g id="Node000000" class="node">
<title>Node0</title>
<g id="a_Node000000"><a xlink:title=" ">
<polygon fill="#e0e0e0" stroke="#999999" points="149,-99.5 0,-99.5 0,-80.5 149,-80.5 149,-99.5"/>
<text text-anchor="middle" x="74.5" y="-87.5" font-family="Helvetica,sans-Serif" font-size="10.00">std::ranges::view_interface</text>
</a>
</g>
</g>
<!-- Node1 -->
<g id="Node000001" class="node">
<title>Node1</title>
<g id="a_Node000001"><a xlink:href="struct_hermes_1_1_default_transfer_policy_1_1_recv_lazy_range.html" target="_top" xlink:title=" ">
<polygon fill="white" stroke="#666666" points="376,-186 185,-186 185,-156 376,-156 376,-186"/>
<text text-anchor="start" x="193" y="-174" font-family="Helvetica,sans-Serif" font-size="10.00">Hermes::DefaultTransferPolicy</text>
<text text-anchor="middle" x="280.5" y="-163" font-family="Helvetica,sans-Serif" font-size="10.00">&lt; Data &gt;::RecvLazyRange&lt; Byte &gt;</text>
</a>
</g>
</g>
<!-- Node0&#45;&gt;Node1 -->
<g id="edge8_Node000000_Node000001" class="edge">
<title>Node0&#45;&gt;Node1</title>
<g id="a_edge8_Node000000_Node000001"><a xlink:title=" ">
<path fill="none" stroke="#63b8ff" d="M100.15,-104.94C121.85,-117.58 154.65,-135.43 185,-147 193.7,-150.32 203.02,-153.32 212.3,-155.98"/>
<polygon fill="#63b8ff" stroke="#63b8ff" points="101.67,-101.78 91.28,-99.71 98.12,-107.8 101.67,-101.78"/>
</a>
</g>
</g>
<!-- Node2 -->
<g id="Node000002" class="node">
<title>Node2</title>
<g id="a_Node000002"><a xlink:href="struct_hermes_1_1_tls_transfer_policy_1_1_recv_lazy_range.html" target="_top" xlink:title=" ">
<polygon fill="white" stroke="#666666" points="353.5,-137.5 207.5,-137.5 207.5,-96.5 353.5,-96.5 353.5,-137.5"/>
<text text-anchor="start" x="215.5" y="-125.5" font-family="Helvetica,sans-Serif" font-size="10.00">Hermes::TlsTransferPolicy</text>
<text text-anchor="start" x="215.5" y="-114.5" font-family="Helvetica,sans-Serif" font-size="10.00">&lt; Data &gt;::RecvLazyRange</text>
<text text-anchor="middle" x="280.5" y="-103.5" font-family="Helvetica,sans-Serif" font-size="10.00">&lt; Byte &gt;</text>
</a>
</g>
</g>
<!-- Node0&#45;&gt;Node2 -->
<g id="edge9_Node000000_Node000002" class="edge">
<title>Node0&#45;&gt;Node2</title>
<g id="a_edge9_Node000000_Node000002"><a xlink:title=" ">
<path fill="none" stroke="#63b8ff" d="M157.54,-100.86C173.97,-103.03 191.12,-105.3 207.19,-107.43"/>
<polygon fill="#63b8ff" stroke="#63b8ff" points="157.8,-97.36 147.42,-99.52 156.88,-104.3 157.8,-97.36"/>
</a>
</g>
</g>
<!-- Node3 -->
<g id="Node000003" class="node">
<title>Node3</title>
<g id="a_Node000003"><a xlink:href="struct_hermes_1_1_utils_1_1_drop_last_view.html" target="_top" xlink:title=" ">
<polygon fill="white" stroke="#666666" points="359,-78 202,-78 202,-48 359,-48 359,-78"/>
<text text-anchor="start" x="210" y="-66" font-family="Helvetica,sans-Serif" font-size="10.00">Hermes::Utils::DropLastView</text>
<text text-anchor="middle" x="280.5" y="-55" font-family="Helvetica,sans-Serif" font-size="10.00">&lt; Range &gt;</text>
</a>
</g>
</g>
<!-- Node0&#45;&gt;Node3 -->
<g id="edge10_Node000000_Node000003" class="edge">
<title>Node0&#45;&gt;Node3</title>
<g id="a_edge10_Node000000_Node000003"><a xlink:title=" ">
<path fill="none" stroke="#63b8ff" d="M157.48,-79.15C172.17,-77.21 187.44,-75.19 201.99,-73.26"/>
<polygon fill="#63b8ff" stroke="#63b8ff" points="156.88,-75.7 147.42,-80.48 157.8,-82.64 156.88,-75.7"/>
</a>
</g>
</g>
<!-- Node4 -->
<g id="Node000004" class="node">
<title>Node4</title>
<g id="a_Node000004"><a xlink:href="struct_hermes_1_1_utils_1_1_until_match_view.html" target="_top" xlink:title=" ">
<polygon fill="white" stroke="#666666" points="372.5,-30 188.5,-30 188.5,0 372.5,0 372.5,-30"/>
<text text-anchor="start" x="196.5" y="-18" font-family="Helvetica,sans-Serif" font-size="10.00">Hermes::Utils::UntilMatch</text>
<text text-anchor="middle" x="280.5" y="-7" font-family="Helvetica,sans-Serif" font-size="10.00">View&lt; Range, Pattern, Inclusive &gt;</text>
</a>
</g>
</g>
<!-- Node0&#45;&gt;Node4 -->
<g id="edge11_Node000000_Node000004" class="edge">
<title>Node0&#45;&gt;Node4</title>
<g id="a_edge11_Node000000_Node000004"><a xlink:title=" ">
<path fill="none" stroke="#63b8ff" d="M102.26,-75.81C124.07,-64.67 155.92,-49.36 185,-39 194.17,-35.73 203.99,-32.72 213.7,-30.02"/>
<polygon fill="#63b8ff" stroke="#63b8ff" points="100.55,-72.75 93.28,-80.45 103.77,-78.97 100.55,-72.75"/>
</a>
</g>
</g>
</g>
</svg>
