<?xml version="1.0" encoding="UTF-8" standalone="no"?>
<!DOCTYPE svg PUBLIC "-//W3C//DTD SVG 1.1//EN"
 "http://www.w3.org/Graphics/SVG/1.1/DTD/svg11.dtd">
<!-- Generated by graphviz version 2.43.0 (0)
 -->
<!-- Title: Graphical Class Hierarchy Pages: 1 -->
<svg width="587pt" height="86pt"
 viewBox="0.00 0.00 587.00 86.00" xmlns="http://www.w3.org/2000/svg" xmlns:xlink="http://www.w3.org/1999/xlink">
<g id="graph0" class="graph" transform="scale(1 1) rotate(0) translate(4 82)">
<title>Graphical Class Hierarchy</title>
<!-- Node0 -->
<g id="Node000000" class="node">
<title>Node0</title>
<g id="a_Node000000"><a xlink:href="struct_hermes_1_1_default_accept_policy_1_1_accept_options.html" target="_top" xlink:title=" ">
<polygon fill="white" stroke="#666666" points="172,-59.5 0,-59.5 0,-18.5 172,-18.5 172,-59.5"/>
<text text-anchor="start" x="8" y="-47.5" font-family="Helvetica,sans-Serif" font-size="10.00">Hermes::DefaultAcceptPolicy</text>
<text text-anchor="start" x="8" y="-36.5" font-family="Helvetica,sans-Serif" font-size="10.00">&lt; Endpoint, SocketType,</text>
<text text-anchor="middle" x="86" y="-25.5" font-family="Helvetica,sans-Serif" font-size="10.00"> SocketFamily &gt;::AcceptOptions</text>
</a>
</g>
</g>
<!-- Node1 -->
<g id="Node000001" class="node">
<title>Node1</title>
<g id="a_Node000001"><a xlink:href="struct_hermes_1_1_default_async_accept_policy_1_1_accept_options.html" target="_top" xlink:title=" ">
<polygon fill="white" stroke="#666666" points="376,-78 208,-78 208,-48 376,-48 376,-78"/>
<text text-anchor="start" x="216" y="-66" font-family="Helvetica,sans-Serif" font-size="10.00">Hermes::DefaultAsyncAccept</text>
<text text-anchor="middle" x="292" y="-55" font-family="Helvetica,sans-Serif" font-size="10.00">Policy&lt; Data &gt;::AcceptOptions</text>
</a>
</g>
</g>
<!-- Node0&#45;&gt;Node1 -->
<g id="edge14_Node000000_Node000001" class="edge">
<title>Node0&#45;&gt;Node1</title>
<g id="a_edge14_Node000000_Node000001"><a xlink:title=" ">
<path fill="none" stroke="#63b8ff" d="M182.06,-50.18C190.63,-51.19 199.28,-52.21 207.74,-53.2"/>
<polygon fill="#63b8ff" stroke="#63b8ff" points="182.38,-46.7 172.04,-49 181.56,-53.65 182.38,-46.7"/>
</a>
</g>
</g>
<!-- Node2 -->
<g id="Node000002" class="node">
<title>Node2</title>
<g id="a_Node000002"><a xlink:href="struct_hermes_1_1_tls_accept_policy_1_1_accept_options.html" target="_top" xlink:title=" ">
<polygon fill="white" stroke="#666666" points="361.5,-30 222.5,-30 222.5,0 361.5,0 361.5,-30"/>
<text text-anchor="start" x="230.5" y="-18" font-family="Helvetica,sans-Serif" font-size="10.00">Hermes::TlsAcceptPolicy</text>
<text text-anchor="middle" x="292" y="-7" font-family="Helvetica,sans-Serif" font-size="10.00">&lt; Data &gt;::AcceptOptions</text>
</a>
</g>
</g>
<!-- Node0&#45;&gt;Node2 -->
<g id="edge15_Node000000_Node000002" class="edge">
<title>Node0&#45;&gt;Node2</title>
<g id="a_edge15_Node000000_Node000002"><a xlink:title=" ">
<path fill="none" stroke="#63b8ff" d="M182.29,-27.79C195.76,-26.2 209.39,-24.6 222.23,-23.09"/>
<polygon fill="#63b8ff" stroke="#63b8ff" points="181.56,-24.35 172.04,-29 182.38,-31.3 181.56,-24.35"/>
</a>
</g>
</g>
<!-- Node3 -->
<g id="Node000003" class="node">
<title>Node3</title>
<g id="a_Node000003"><a xlink:href="struct_hermes_1_1_tls_async_accept_policy_1_1_accept_options.html" target="_top" xlink:title=" ">
<polygon fill="white" stroke="#666666" points="579,-30 412,-30 412,0 579,0 579,-30"/>
<text text-anchor="start" x="420" y="-18" font-family="Helvetica,sans-Serif" font-size="10.00">Hermes::TlsAsyncAcceptPolicy</text>
<text text-anchor="middle" x="495.5" y="-7" font-family="Helvetica,sans-Serif" font-size="10.00">&lt; Data &gt;::AcceptOptions</text>
</a>
</g>
</g>
<!-- Node2&#45;&gt;Node3 -->
<g id="edge16_Node000002_Node000003" class="edge">
<title>Node2&#45;&gt;Node3</title>
<g id="a_edge16_Node000002_Node000003"><a xlink:title=" ">
<path fill="none" stroke="#63b8ff" d="M372.1,-15C385.12,-15 398.65,-15 411.76,-15"/>
<polygon fill="#63b8ff" stroke="#63b8ff" points="371.78,-11.5 361.78,-15 371.78,-18.5 371.78,-11.5"/>
</a>
</g>
</g>
</g>
</svg>
