<?xml version="1.0" encoding="UTF-8" standalone="no"?>
<!DOCTYPE svg PUBLIC "-//W3C//DTD SVG 1.1//EN"
 "http://www.w3.org/Graphics/SVG/1.1/DTD/svg11.dtd">
<!-- Generated by graphviz version 2.43.0 (0)
 -->
<!-- Title: Graphical Class Hierarchy Pages: 1 -->
<svg width="592pt" height="98pt"
 viewBox="0.00 0.00 592.00 97.50" xmlns="http://www.w3.org/2000/svg" xmlns:xlink="http://www.w3.org/1999/xlink">
<g id="graph0" class="graph" transform="scale(1 1) rotate(0) translate(4 93.5)">
<title>Graphical Class Hierarchy</title>
<!-- Node0 -->
<g id="Node000000" class="node">
<title>Node0</title>
<g id="a_Node000000"><a xlink:href="struct_hermes_1_1__details_1_1_connect_options_ipv6_base.html" target="_top" xlink:title=" ">
<polygon fill="white" stroke="#666666" points="159,-89.5 14,-89.5 14,-48.5 159,-48.5 159,-89.5"/>
<text text-anchor="start" x="22" y="-77.5" font-family="Helvetica,sans-Serif" font-size="10.00">Hermes::_details::Connect</text>
<text text-anchor="start" x="22" y="-66.5" font-family="Helvetica,sans-Serif" font-size="10.00">OptionsIpv6Base&lt; Data::</text>
<text text-anchor="middle" x="86.5" y="-55.5" font-family="Helvetica,sans-Serif" font-size="10.00">Family &gt;</text>
</a>
</g>
</g>
<!-- Node1 -->
<g id="Node000001" class="node">
<title>Node1</title>
<g id="a_Node000001"><a xlink:href="struct_hermes_1_1_default_async_connect_policy_1_1_options.html" target="_top" xlink:title=" ">
<polygon fill="white" stroke="#666666" points="375,-82 209,-82 209,-52 375,-52 375,-82"/>
<text text-anchor="start" x="217" y="-70" font-family="Helvetica,sans-Serif" font-size="10.00">Hermes::DefaultAsyncConnect</text>
<text text-anchor="middle" x="292" y="-59" font-family="Helvetica,sans-Serif" font-size="10.00">Policy&lt; Data &gt;::Options</text>
</a>
</g>
</g>
<!-- Node0&#45;&gt;Node1 -->
<g id="edge3_Node000000_Node000001" class="edge">
<title>Node0&#45;&gt;Node1</title>
<g id="a_edge3_Node000000_Node000001"><a xlink:title=" ">
<path fill="none" stroke="#63b8ff" d="M169.51,-68.19C182.45,-68.07 195.84,-67.94 208.78,-67.81"/>
<polygon fill="#63b8ff" stroke="#63b8ff" points="169.21,-64.7 159.25,-68.29 169.28,-71.7 169.21,-64.7"/>
</a>
</g>
</g>
<!-- Node4 -->
<g id="Node000004" class="node">
<title>Node4</title>
<g id="a_Node000004"><a xlink:href="struct_hermes_1_1_default_connect_policy_1_1_options.html" target="_top" xlink:title=" ">
<polygon fill="white" stroke="#666666" points="375,-33 209,-33 209,-3 375,-3 375,-33"/>
<text text-anchor="start" x="217" y="-21" font-family="Helvetica,sans-Serif" font-size="10.00">Hermes::DefaultConnectPolicy</text>
<text text-anchor="middle" x="292" y="-10" font-family="Helvetica,sans-Serif" font-size="10.00">&lt; Data &gt;::Options</text>
</a>
</g>
</g>
<!-- Node0&#45;&gt;Node4 -->
<g id="edge5_Node000000_Node000004" class="edge">
<title>Node0&#45;&gt;Node4</title>
<g id="a_edge5_Node000000_Node000004"><a xlink:title=" ">
<path fill="none" stroke="#63b8ff" d="M168.98,-48.58C189.7,-43.39 211.58,-37.9 231,-33.04"/>
<polygon fill="#63b8ff" stroke="#63b8ff" points="168.1,-45.19 159.25,-51.02 169.8,-51.98 168.1,-45.19"/>
</a>
</g>
</g>
<!-- Node2 -->
<g id="Node000002" class="node">
<title>Node2</title>
<g id="a_Node000002"><a xlink:href="struct_hermes_1_1_tls_async_connect_policy_1_1_options.html" target="_top" xlink:title=" ">
<polygon fill="white" stroke="#666666" points="584,-82 411,-82 411,-52 584,-52 584,-82"/>
<text text-anchor="start" x="419" y="-70" font-family="Helvetica,sans-Serif" font-size="10.00">Hermes::TlsAsyncConnectPolicy</text>
<text text-anchor="middle" x="497.5" y="-59" font-family="Helvetica,sans-Serif" font-size="10.00">&lt; Data &gt;::Options</text>
</a>
</g>
</g>
<!-- Node1&#45;&gt;Node2 -->
<g id="edge4_Node000001_Node000002" class="edge">
<title>Node1&#45;&gt;Node2</title>
<g id="a_edge4_Node000001_Node000002"><a xlink:title=" ">
<path fill="none" stroke="#63b8ff" d="M385.4,-67C393.82,-67 402.33,-67 410.69,-67"/>
<polygon fill="#63b8ff" stroke="#63b8ff" points="385.18,-63.5 375.18,-67 385.18,-70.5 385.18,-63.5"/>
</a>
</g>
</g>
<!-- Node5 -->
<g id="Node000005" class="node">
<title>Node5</title>
<g id="a_Node000005"><a xlink:href="struct_hermes_1_1_tls_connect_policy_1_1_options.html" target="_top" xlink:title=" ">
<polygon fill="white" stroke="#666666" points="569.5,-33 425.5,-33 425.5,-3 569.5,-3 569.5,-33"/>
<text text-anchor="start" x="433.5" y="-21" font-family="Helvetica,sans-Serif" font-size="10.00">Hermes::TlsConnectPolicy</text>
<text text-anchor="middle" x="497.5" y="-10" font-family="Helvetica,sans-Serif" font-size="10.00">&lt; Data &gt;::Options</text>
</a>
</g>
</g>
<!-- Node4&#45;&gt;Node5 -->
<g id="edge6_Node000004_Node000005" class="edge">
<title>Node4&#45;&gt;Node5</title>
<g id="a_edge6_Node000004_Node000005"><a xlink:title=" ">
<path fill="none" stroke="#63b8ff" d="M385.41,-18C398.86,-18 412.52,-18 425.46,-18"/>
<polygon fill="#63b8ff" stroke="#63b8ff" points="385.18,-14.5 375.18,-18 385.18,-21.5 385.18,-14.5"/>
</a>
</g>
</g>
<!-- Node3 -->
<g id="Node000003" class="node">
<title>Node3</title>
<g id="a_Node000003"><a xlink:href="struct_hermes_1_1__details_1_1_options_tcp_no_delay_base.html" target="_top" xlink:title=" ">
<polygon fill="white" stroke="#666666" points="173,-30 0,-30 0,0 173,0 173,-30"/>
<text text-anchor="start" x="8" y="-18" font-family="Helvetica,sans-Serif" font-size="10.00">Hermes::_details::Options</text>
<text text-anchor="middle" x="86.5" y="-7" font-family="Helvetica,sans-Serif" font-size="10.00">TcpNoDelayBase&lt; Data::Type &gt;</text>
</a>
</g>
</g>
<!-- Node3&#45;&gt;Node1 -->
<g id="edge7_Node000003_Node000001" class="edge">
<title>Node3&#45;&gt;Node1</title>
<g id="a_edge7_Node000003_Node000001"><a xlink:title=" ">
<path fill="none" stroke="#63b8ff" d="M156.37,-32.6C181.02,-38.9 208.56,-45.93 232.27,-51.99"/>
<polygon fill="#63b8ff" stroke="#63b8ff" points="156.92,-29.13 146.36,-30.04 155.18,-35.91 156.92,-29.13"/>
</a>
</g>
</g>
<!-- Node3&#45;&gt;Node4 -->
<g id="edge8_Node000003_Node000004" class="edge">
<title>Node3&#45;&gt;Node4</title>
<g id="a_edge8_Node000003_Node000004"><a xlink:title=" ">
<path fill="none" stroke="#63b8ff" d="M183.26,-16.41C191.85,-16.54 200.5,-16.67 208.96,-16.79"/>
<polygon fill="#63b8ff" stroke="#63b8ff" points="183.26,-12.91 173.21,-16.26 183.16,-19.91 183.26,-12.91"/>
</a>
</g>
</g>
</g>
</svg>
