<?xml version="1.0" encoding="UTF-8" standalone="no"?>
<!DOCTYPE svg PUBLIC "-//W3C//DTD SVG 1.1//EN"
 "http://www.w3.org/Graphics/SVG/1.1/DTD/svg11.dtd">
<!-- Generated by graphviz version 2.43.0 (0)
 -->
<!-- Title: Hermes::DefaultAsyncAcceptPolicy&lt; Data &gt;::ListenOptions Pages: 1 -->
<svg width="176pt" height="181pt"
 viewBox="0.00 0.00 176.00 181.00" xmlns="http://www.w3.org/2000/svg" xmlns:xlink="http://www.w3.org/1999/xlink">
<g id="graph0" class="graph" transform="scale(1 1) rotate(0) translate(4 177)">
<title>Hermes::DefaultAsyncAcceptPolicy&lt; Data &gt;::ListenOptions</title>
<!-- Node1 -->
<g id="Node000001" class="node">
<title>Node1</title>
<g id="a_Node000001"><a xlink:title=" ">
<polygon fill="#999999" stroke="#666666" points="166,-30 2,-30 2,0 166,0 166,-30"/>
<text text-anchor="start" x="10" y="-18" font-family="Helvetica,sans-Serif" font-size="10.00">Hermes::DefaultAsyncAccept</text>
<text text-anchor="middle" x="84" y="-7" font-family="Helvetica,sans-Serif" font-size="10.00">Policy&lt; Data &gt;::ListenOptions</text>
</a>
</g>
</g>
<!-- Node2 -->
<g id="Node000002" class="node">
<title>Node2</title>
<g id="a_Node000002"><a xlink:href="struct_hermes_1_1_default_accept_policy_1_1_listen_options.html" target="_top" xlink:title=" ">
<polygon fill="white" stroke="#666666" points="168,-107 0,-107 0,-66 168,-66 168,-107"/>
<text text-anchor="start" x="8" y="-95" font-family="Helvetica,sans-Serif" font-size="10.00">Hermes::DefaultAcceptPolicy</text>
<text text-anchor="start" x="8" y="-84" font-family="Helvetica,sans-Serif" font-size="10.00">&lt; Endpoint, SocketType,</text>
<text text-anchor="middle" x="84" y="-73" font-family="Helvetica,sans-Serif" font-size="10.00"> SocketFamily &gt;::ListenOptions</text>
</a>
</g>
</g>
<!-- Node2&#45;&gt;Node1 -->
<g id="edge1_Node000001_Node000002" class="edge">
<title>Node2&#45;&gt;Node1</title>
<g id="a_edge1_Node000001_Node000002"><a xlink:title=" ">
<path fill="none" stroke="#63b8ff" d="M84,-55.66C84,-46.76 84,-37.42 84,-30.04"/>
<polygon fill="#63b8ff" stroke="#63b8ff" points="80.5,-55.77 84,-65.77 87.5,-55.77 80.5,-55.77"/>
</a>
</g>
</g>
<!-- Node3 -->
<g id="Node000003" class="node">
<title>Node3</title>
<g id="a_Node000003"><a xlink:href="struct_hermes_1_1__details_1_1_accept_options_ipv6_base.html" target="_top" xlink:title=" ">
<polygon fill="white" stroke="#666666" points="161,-173 7,-173 7,-143 161,-143 161,-173"/>
<text text-anchor="start" x="15" y="-161" font-family="Helvetica,sans-Serif" font-size="10.00">Hermes::_details::Accept</text>
<text text-anchor="middle" x="84" y="-150" font-family="Helvetica,sans-Serif" font-size="10.00">OptionsIpv6Base&lt; Family &gt;</text>
</a>
</g>
</g>
<!-- Node3&#45;&gt;Node2 -->
<g id="edge2_Node000002_Node000003" class="edge">
<title>Node3&#45;&gt;Node2</title>
<g id="a_edge2_Node000002_Node000003"><a xlink:title=" ">
<path fill="none" stroke="#63b8ff" d="M84,-132.91C84,-124.47 84,-115.1 84,-107.07"/>
<polygon fill="#63b8ff" stroke="#63b8ff" points="80.5,-132.94 84,-142.94 87.5,-132.94 80.5,-132.94"/>
</a>
</g>
</g>
</g>
</svg>
