<?xml version="1.0" encoding="UTF-8" standalone="no"?>
<!DOCTYPE svg PUBLIC "-//W3C//DTD SVG 1.1//EN"
 "http://www.w3.org/Graphics/SVG/1.1/DTD/svg11.dtd">
<!-- Generated by graphviz version 2.43.0 (0)
 -->
<!-- Title: Hermes::TlsAcceptPolicy&lt; Data &gt;::ListenOptions Pages: 1 -->
<svg width="176pt" height="247pt"
 viewBox="0.00 0.00 176.00 247.00" xmlns="http://www.w3.org/2000/svg" xmlns:xlink="http://www.w3.org/1999/xlink">
<g id="graph0" class="graph" transform="scale(1 1) rotate(0) translate(4 243)">
<title>Hermes::TlsAcceptPolicy&lt; Data &gt;::ListenOptions</title>
<!-- Node1 -->
<g id="Node000001" class="node">
<title>Node1</title>
<g id="a_Node000001"><a xlink:title=" ">
<polygon fill="#999999" stroke="#666666" points="152.5,-96 15.5,-96 15.5,-66 152.5,-66 152.5,-96"/>
<text text-anchor="start" x="23.5" y="-84" font-family="Helvetica,sans-Serif" font-size="10.00">Hermes::TlsAcceptPolicy</text>
<text text-anchor="middle" x="84" y="-73" font-family="Helvetica,sans-Serif" font-size="10.00">&lt; Data &gt;::ListenOptions</text>
</a>
</g>
</g>
<!-- Node4 -->
<g id="Node000004" class="node">
<title>Node4</title>
<g id="a_Node000004"><a xlink:href="struct_hermes_1_1_tls_async_accept_policy_1_1_listen_options.html" target="_top" xlink:title=" ">
<polygon fill="white" stroke="#666666" points="167.5,-30 0.5,-30 0.5,0 167.5,0 167.5,-30"/>
<text text-anchor="start" x="8.5" y="-18" font-family="Helvetica,sans-Serif" font-size="10.00">Hermes::TlsAsyncAcceptPolicy</text>
<text text-anchor="middle" x="84" y="-7" font-family="Helvetica,sans-Serif" font-size="10.00">&lt; Data &gt;::ListenOptions</text>
</a>
</g>
</g>
<!-- Node1&#45;&gt;Node4 -->
<g id="edge3_Node000001_Node000004" class="edge">
<title>Node1&#45;&gt;Node4</title>
<g id="a_edge3_Node000001_Node000004"><a xlink:title=" ">
<path fill="none" stroke="#63b8ff" d="M84,-55.54C84,-46.96 84,-37.61 84,-30.16"/>
<polygon fill="#63b8ff" stroke="#63b8ff" points="80.5,-55.8 84,-65.8 87.5,-55.8 80.5,-55.8"/>
</a>
</g>
</g>
<!-- Node2 -->
<g id="Node000002" class="node">
<title>Node2</title>
<g id="a_Node000002"><a xlink:href="struct_hermes_1_1_default_accept_policy_1_1_listen_options.html" target="_top" xlink:title=" ">
<polygon fill="white" stroke="#666666" points="168,-173 0,-173 0,-132 168,-132 168,-173"/>
<text text-anchor="start" x="8" y="-161" font-family="Helvetica,sans-Serif" font-size="10.00">Hermes::DefaultAcceptPolicy</text>
<text text-anchor="start" x="8" y="-150" font-family="Helvetica,sans-Serif" font-size="10.00">&lt; Endpoint, SocketType,</text>
<text text-anchor="middle" x="84" y="-139" font-family="Helvetica,sans-Serif" font-size="10.00"> SocketFamily &gt;::ListenOptions</text>
</a>
</g>
</g>
<!-- Node2&#45;&gt;Node1 -->
<g id="edge1_Node000001_Node000002" class="edge">
<title>Node2&#45;&gt;Node1</title>
<g id="a_edge1_Node000001_Node000002"><a xlink:title=" ">
<path fill="none" stroke="#63b8ff" d="M84,-121.66C84,-112.76 84,-103.42 84,-96.04"/>
<polygon fill="#63b8ff" stroke="#63b8ff" points="80.5,-121.77 84,-131.77 87.5,-121.77 80.5,-121.77"/>
</a>
</g>
</g>
<!-- Node3 -->
<g id="Node000003" class="node">
<title>Node3</title>
<g id="a_Node000003"><a xlink:href="struct_hermes_1_1__details_1_1_accept_options_ipv6_base.html" target="_top" xlink:title=" ">
<polygon fill="white" stroke="#666666" points="161,-239 7,-239 7,-209 161,-209 161,-239"/>
<text text-anchor="start" x="15" y="-227" font-family="Helvetica,sans-Serif" font-size="10.00">Hermes::_details::Accept</text>
<text text-anchor="middle" x="84" y="-216" font-family="Helvetica,sans-Serif" font-size="10.00">OptionsIpv6Base&lt; Family &gt;</text>
</a>
</g>
</g>
<!-- Node3&#45;&gt;Node2 -->
<g id="edge2_Node000002_Node000003" class="edge">
<title>Node3&#45;&gt;Node2</title>
<g id="a_edge2_Node000002_Node000003"><a xlink:title=" ">
<path fill="none" stroke="#63b8ff" d="M84,-198.91C84,-190.47 84,-181.1 84,-173.07"/>
<polygon fill="#63b8ff" stroke="#63b8ff" points="80.5,-198.94 84,-208.94 87.5,-198.94 80.5,-198.94"/>
</a>
</g>
</g>
</g>
</svg>
