<?xml version="1.0" encoding="UTF-8" standalone="no"?>
<!DOCTYPE svg PUBLIC "-//W3C//DTD SVG 1.1//EN"
 "http://www.w3.org/Graphics/SVG/1.1/DTD/svg11.dtd">
<!-- Generated by graphviz version 2.43.0 (0)
 -->
<!-- Title: Hermes::DefaultAcceptPolicy&lt; Endpoint, SocketType, SocketFamily &gt;::ListenOptions Pages: 1 -->
<svg width="769pt" height="86pt"
 viewBox="0.00 0.00 769.00 86.00" xmlns="http://www.w3.org/2000/svg" xmlns:xlink="http://www.w3.org/1999/xlink">
<g id="graph0" class="graph" transform="scale(1 1) rotate(0) translate(4 82)">
<title>Hermes::DefaultAcceptPolicy&lt; Endpoint, SocketType, SocketFamily &gt;::ListenOptions</title>
<!-- Node1 -->
<g id="Node000001" class="node">
<title>Node1</title>
<g id="a_Node000001"><a xlink:title=" ">
<polygon fill="#999999" stroke="#666666" points="358,-59.5 190,-59.5 190,-18.5 358,-18.5 358,-59.5"/>
<text text-anchor="start" x="198" y="-47.5" font-family="Helvetica,sans-Serif" font-size="10.00">Hermes::DefaultAcceptPolicy</text>
<text text-anchor="start" x="198" y="-36.5" font-family="Helvetica,sans-Serif" font-size="10.00">&lt; Endpoint, SocketType,</text>
<text text-anchor="middle" x="274" y="-25.5" font-family="Helvetica,sans-Serif" font-size="10.00"> SocketFamily &gt;::ListenOptions</text>
</a>
</g>
</g>
<!-- Node3 -->
<g id="Node000003" class="node">
<title>Node3</title>
<g id="a_Node000003"><a xlink:href="struct_hermes_1_1_default_async_accept_policy_1_1_listen_options.html" target="_top" xlink:title=" ">
<polygon fill="white" stroke="#666666" points="558,-78 394,-78 394,-48 558,-48 558,-78"/>
<text text-anchor="start" x="402" y="-66" font-family="Helvetica,sans-Serif" font-size="10.00">Hermes::DefaultAsyncAccept</text>
<text text-anchor="middle" x="476" y="-55" font-family="Helvetica,sans-Serif" font-size="10.00">Policy&lt; Data &gt;::ListenOptions</text>
</a>
</g>
</g>
<!-- Node1&#45;&gt;Node3 -->
<g id="edge2_Node000001_Node000003" class="edge">
<title>Node1&#45;&gt;Node3</title>
<g id="a_edge2_Node000001_Node000003"><a xlink:title=" ">
<path fill="none" stroke="#63b8ff" d="M368.1,-50.17C376.68,-51.2 385.33,-52.24 393.79,-53.25"/>
<polygon fill="#63b8ff" stroke="#63b8ff" points="368.43,-46.69 358.08,-48.97 367.59,-53.64 368.43,-46.69"/>
</a>
</g>
</g>
<!-- Node4 -->
<g id="Node000004" class="node">
<title>Node4</title>
<g id="a_Node000004"><a xlink:href="struct_hermes_1_1_tls_accept_policy_1_1_listen_options.html" target="_top" xlink:title=" ">
<polygon fill="white" stroke="#666666" points="544.5,-30 407.5,-30 407.5,0 544.5,0 544.5,-30"/>
<text text-anchor="start" x="415.5" y="-18" font-family="Helvetica,sans-Serif" font-size="10.00">Hermes::TlsAcceptPolicy</text>
<text text-anchor="middle" x="476" y="-7" font-family="Helvetica,sans-Serif" font-size="10.00">&lt; Data &gt;::ListenOptions</text>
</a>
</g>
</g>
<!-- Node1&#45;&gt;Node4 -->
<g id="edge3_Node000001_Node000004" class="edge">
<title>Node1&#45;&gt;Node4</title>
<g id="a_edge3_Node000001_Node000004"><a xlink:title=" ">
<path fill="none" stroke="#63b8ff" d="M368.15,-27.82C381.38,-26.23 394.76,-24.63 407.38,-23.11"/>
<polygon fill="#63b8ff" stroke="#63b8ff" points="367.59,-24.36 358.08,-29.03 368.43,-31.31 367.59,-24.36"/>
</a>
</g>
</g>
<!-- Node2 -->
<g id="Node000002" class="node">
<title>Node2</title>
<g id="a_Node000002"><a xlink:href="struct_hermes_1_1__details_1_1_accept_options_ipv6_base.html" target="_top" xlink:title=" ">
<polygon fill="white" stroke="#666666" points="154,-54 0,-54 0,-24 154,-24 154,-54"/>
<text text-anchor="start" x="8" y="-42" font-family="Helvetica,sans-Serif" font-size="10.00">Hermes::_details::Accept</text>
<text text-anchor="middle" x="77" y="-31" font-family="Helvetica,sans-Serif" font-size="10.00">OptionsIpv6Base&lt; Family &gt;</text>
</a>
</g>
</g>
<!-- Node2&#45;&gt;Node1 -->
<g id="edge1_Node000001_Node000002" class="edge">
<title>Node2&#45;&gt;Node1</title>
<g id="a_edge1_Node000001_Node000002"><a xlink:title=" ">
<path fill="none" stroke="#63b8ff" d="M164.42,-39C172.83,-39 181.35,-39 189.73,-39"/>
<polygon fill="#63b8ff" stroke="#63b8ff" points="164.23,-35.5 154.23,-39 164.23,-42.5 164.23,-35.5"/>
</a>
</g>
</g>
<!-- Node5 -->
<g id="Node000005" class="node">
<title>Node5</title>
<g id="a_Node000005"><a xlink:href="struct_hermes_1_1_tls_async_accept_policy_1_1_listen_options.html" target="_top" xlink:title=" ">
<polygon fill="white" stroke="#666666" points="761,-30 594,-30 594,0 761,0 761,-30"/>
<text text-anchor="start" x="602" y="-18" font-family="Helvetica,sans-Serif" font-size="10.00">Hermes::TlsAsyncAcceptPolicy</text>
<text text-anchor="middle" x="677.5" y="-7" font-family="Helvetica,sans-Serif" font-size="10.00">&lt; Data &gt;::ListenOptions</text>
</a>
</g>
</g>
<!-- Node4&#45;&gt;Node5 -->
<g id="edge4_Node000004_Node000005" class="edge">
<title>Node4&#45;&gt;Node5</title>
<g id="a_edge4_Node000004_Node000005"><a xlink:title=" ">
<path fill="none" stroke="#63b8ff" d="M554.7,-15C567.53,-15 580.86,-15 593.81,-15"/>
<polygon fill="#63b8ff" stroke="#63b8ff" points="554.54,-11.5 544.54,-15 554.54,-18.5 554.54,-11.5"/>
</a>
</g>
</g>
</g>
</svg>
