<?xml version="1.0" encoding="UTF-8" standalone="no"?>
<!DOCTYPE svg PUBLIC "-//W3C//DTD SVG 1.1//EN"
 "http://www.w3.org/Graphics/SVG/1.1/DTD/svg11.dtd">
<!-- Generated by graphviz version 2.43.0 (0)
 -->
<!-- Title: Hermes::TlsConnectPolicy&lt; Data &gt;::Options Pages: 1 -->
<svg width="612pt" height="86pt"
 viewBox="0.00 0.00 612.00 86.00" xmlns="http://www.w3.org/2000/svg" xmlns:xlink="http://www.w3.org/1999/xlink">
<g id="graph0" class="graph" transform="scale(1 1) rotate(0) translate(4 82)">
<title>Hermes::TlsConnectPolicy&lt; Data &gt;::Options</title>
<!-- Node1 -->
<g id="Node000001" class="node">
<title>Node1</title>
<g id="a_Node000001"><a xlink:title=" ">
<polygon fill="#999999" stroke="#666666" points="604,-54 460,-54 460,-24 604,-24 604,-54"/>
<text text-anchor="start" x="468" y="-42" font-family="Helvetica,sans-Serif" font-size="10.00">Hermes::TlsConnectPolicy</text>
<text text-anchor="middle" x="532" y="-31" font-family="Helvetica,sans-Serif" font-size="10.00">&lt; Data &gt;::Options</text>
</a>
</g>
</g>
<!-- Node2 -->
<g id="Node000002" class="node">
<title>Node2</title>
<g id="a_Node000002"><a xlink:href="struct_hermes_1_1_default_connect_policy_1_1_options.html" target="_top" xlink:title=" ">
<polygon fill="white" stroke="#666666" points="424,-59.5 222,-59.5 222,-18.5 424,-18.5 424,-59.5"/>
<text text-anchor="start" x="230" y="-47.5" font-family="Helvetica,sans-Serif" font-size="10.00">Hermes::DefaultConnectPolicy</text>
<text text-anchor="start" x="230" y="-36.5" font-family="Helvetica,sans-Serif" font-size="10.00">&lt; Endpoint, SocketType, SocketFamily</text>
<text text-anchor="middle" x="323" y="-25.5" font-family="Helvetica,sans-Serif" font-size="10.00"> &gt;::Options</text>
</a>
</g>
</g>
<!-- Node2&#45;&gt;Node1 -->
<g id="edge1_Node000001_Node000002" class="edge">
<title>Node2&#45;&gt;Node1</title>
<g id="a_edge1_Node000001_Node000002"><a xlink:title=" ">
<path fill="none" stroke="#63b8ff" d="M434.35,-39C443.02,-39 451.62,-39 459.91,-39"/>
<polygon fill="#63b8ff" stroke="#63b8ff" points="434.17,-35.5 424.17,-39 434.17,-42.5 434.17,-35.5"/>
</a>
</g>
</g>
<!-- Node3 -->
<g id="Node000003" class="node">
<title>Node3</title>
<g id="a_Node000003"><a xlink:href="struct_hermes_1_1__details_1_1_connect_options_ipv6_base.html" target="_top" xlink:title=" ">
<polygon fill="white" stroke="#666666" points="186,-78 0,-78 0,-48 186,-48 186,-78"/>
<text text-anchor="start" x="8" y="-66" font-family="Helvetica,sans-Serif" font-size="10.00">Hermes::_details::Connect</text>
<text text-anchor="middle" x="93" y="-55" font-family="Helvetica,sans-Serif" font-size="10.00">OptionsIpv6Base&lt; SocketFamily &gt;</text>
</a>
</g>
</g>
<!-- Node3&#45;&gt;Node2 -->
<g id="edge2_Node000002_Node000003" class="edge">
<title>Node3&#45;&gt;Node2</title>
<g id="a_edge2_Node000002_Node000003"><a xlink:title=" ">
<path fill="none" stroke="#63b8ff" d="M196.05,-52.26C204.59,-51.36 213.22,-50.45 221.75,-49.55"/>
<polygon fill="#63b8ff" stroke="#63b8ff" points="195.66,-48.78 186.08,-53.31 196.39,-55.74 195.66,-48.78"/>
</a>
</g>
</g>
<!-- Node4 -->
<g id="Node000004" class="node">
<title>Node4</title>
<g id="a_Node000004"><a xlink:href="struct_hermes_1_1__details_1_1_options_tcp_no_delay_base.html" target="_top" xlink:title=" ">
<polygon fill="white" stroke="#666666" points="181,-30 5,-30 5,0 181,0 181,-30"/>
<text text-anchor="start" x="13" y="-18" font-family="Helvetica,sans-Serif" font-size="10.00">Hermes::_details::Options</text>
<text text-anchor="middle" x="93" y="-7" font-family="Helvetica,sans-Serif" font-size="10.00">TcpNoDelayBase&lt; SocketType &gt;</text>
</a>
</g>
</g>
<!-- Node4&#45;&gt;Node2 -->
<g id="edge3_Node000002_Node000004" class="edge">
<title>Node4&#45;&gt;Node2</title>
<g id="a_edge3_Node000002_Node000004"><a xlink:title=" ">
<path fill="none" stroke="#63b8ff" d="M191.25,-25.24C201.4,-26.31 211.74,-27.39 221.92,-28.47"/>
<polygon fill="#63b8ff" stroke="#63b8ff" points="191.48,-21.74 181.17,-24.18 190.75,-28.7 191.48,-21.74"/>
</a>
</g>
</g>
</g>
</svg>
